%TF.GenerationSoftware,KiCad,Pcbnew,6.0.4-6f826c9f35~116~ubuntu20.04.1*%
%TF.CreationDate,2022-05-21T20:21:02+00:00*%
%TF.ProjectId,USTSIPIN02A,55535453-4950-4494-9e30-32412e6b6963,REV*%
%TF.SameCoordinates,Original*%
%TF.FileFunction,Legend,Bot*%
%TF.FilePolarity,Positive*%
%FSLAX46Y46*%
G04 Gerber Fmt 4.6, Leading zero omitted, Abs format (unit mm)*
G04 Created by KiCad (PCBNEW 6.0.4-6f826c9f35~116~ubuntu20.04.1) date 2022-05-21 20:21:02*
%MOMM*%
%LPD*%
G01*
G04 APERTURE LIST*
%ADD10C,0.150000*%
%ADD11C,0.015000*%
%ADD12C,0.120000*%
%ADD13C,0.200000*%
G04 APERTURE END LIST*
D10*
%TO.C,C1*%
X17591066Y16551657D02*
X17638685Y16504038D01*
X17781542Y16456419D01*
X17876780Y16456419D01*
X18019638Y16504038D01*
X18114876Y16599276D01*
X18162495Y16694514D01*
X18210114Y16884990D01*
X18210114Y17027847D01*
X18162495Y17218323D01*
X18114876Y17313561D01*
X18019638Y17408800D01*
X17876780Y17456419D01*
X17781542Y17456419D01*
X17638685Y17408800D01*
X17591066Y17361180D01*
X16638685Y16456419D02*
X17210114Y16456419D01*
X16924400Y16456419D02*
X16924400Y17456419D01*
X17019638Y17313561D01*
X17114876Y17218323D01*
X17210114Y17170704D01*
%TO.C,C3*%
X7027142Y30069166D02*
X7074761Y30116785D01*
X7122380Y30259642D01*
X7122380Y30354880D01*
X7074761Y30497738D01*
X6979523Y30592976D01*
X6884285Y30640595D01*
X6693809Y30688214D01*
X6550952Y30688214D01*
X6360476Y30640595D01*
X6265238Y30592976D01*
X6170000Y30497738D01*
X6122380Y30354880D01*
X6122380Y30259642D01*
X6170000Y30116785D01*
X6217619Y30069166D01*
X6122380Y29735833D02*
X6122380Y29116785D01*
X6503333Y29450119D01*
X6503333Y29307261D01*
X6550952Y29212023D01*
X6598571Y29164404D01*
X6693809Y29116785D01*
X6931904Y29116785D01*
X7027142Y29164404D01*
X7074761Y29212023D01*
X7122380Y29307261D01*
X7122380Y29592976D01*
X7074761Y29688214D01*
X7027142Y29735833D01*
%TO.C,C4*%
X17591066Y18431257D02*
X17638685Y18383638D01*
X17781542Y18336019D01*
X17876780Y18336019D01*
X18019638Y18383638D01*
X18114876Y18478876D01*
X18162495Y18574114D01*
X18210114Y18764590D01*
X18210114Y18907447D01*
X18162495Y19097923D01*
X18114876Y19193161D01*
X18019638Y19288400D01*
X17876780Y19336019D01*
X17781542Y19336019D01*
X17638685Y19288400D01*
X17591066Y19240780D01*
X16733923Y19002685D02*
X16733923Y18336019D01*
X16972019Y19383638D02*
X17210114Y18669352D01*
X16591066Y18669352D01*
%TO.C,C6*%
X13608342Y23483866D02*
X13655961Y23531485D01*
X13703580Y23674342D01*
X13703580Y23769580D01*
X13655961Y23912438D01*
X13560723Y24007676D01*
X13465485Y24055295D01*
X13275009Y24102914D01*
X13132152Y24102914D01*
X12941676Y24055295D01*
X12846438Y24007676D01*
X12751200Y23912438D01*
X12703580Y23769580D01*
X12703580Y23674342D01*
X12751200Y23531485D01*
X12798819Y23483866D01*
X12703580Y22626723D02*
X12703580Y22817200D01*
X12751200Y22912438D01*
X12798819Y22960057D01*
X12941676Y23055295D01*
X13132152Y23102914D01*
X13513104Y23102914D01*
X13608342Y23055295D01*
X13655961Y23007676D01*
X13703580Y22912438D01*
X13703580Y22721961D01*
X13655961Y22626723D01*
X13608342Y22579104D01*
X13513104Y22531485D01*
X13275009Y22531485D01*
X13179771Y22579104D01*
X13132152Y22626723D01*
X13084533Y22721961D01*
X13084533Y22912438D01*
X13132152Y23007676D01*
X13179771Y23055295D01*
X13275009Y23102914D01*
%TO.C,C7*%
X31103866Y20884857D02*
X31151485Y20837238D01*
X31294342Y20789619D01*
X31389580Y20789619D01*
X31532438Y20837238D01*
X31627676Y20932476D01*
X31675295Y21027714D01*
X31722914Y21218190D01*
X31722914Y21361047D01*
X31675295Y21551523D01*
X31627676Y21646761D01*
X31532438Y21742000D01*
X31389580Y21789619D01*
X31294342Y21789619D01*
X31151485Y21742000D01*
X31103866Y21694380D01*
X30770533Y21789619D02*
X30103866Y21789619D01*
X30532438Y20789619D01*
%TO.C,C8*%
X25617466Y15449257D02*
X25665085Y15401638D01*
X25807942Y15354019D01*
X25903180Y15354019D01*
X26046038Y15401638D01*
X26141276Y15496876D01*
X26188895Y15592114D01*
X26236514Y15782590D01*
X26236514Y15925447D01*
X26188895Y16115923D01*
X26141276Y16211161D01*
X26046038Y16306400D01*
X25903180Y16354019D01*
X25807942Y16354019D01*
X25665085Y16306400D01*
X25617466Y16258780D01*
X25046038Y15925447D02*
X25141276Y15973066D01*
X25188895Y16020685D01*
X25236514Y16115923D01*
X25236514Y16163542D01*
X25188895Y16258780D01*
X25141276Y16306400D01*
X25046038Y16354019D01*
X24855561Y16354019D01*
X24760323Y16306400D01*
X24712704Y16258780D01*
X24665085Y16163542D01*
X24665085Y16115923D01*
X24712704Y16020685D01*
X24760323Y15973066D01*
X24855561Y15925447D01*
X25046038Y15925447D01*
X25141276Y15877828D01*
X25188895Y15830209D01*
X25236514Y15734971D01*
X25236514Y15544495D01*
X25188895Y15449257D01*
X25141276Y15401638D01*
X25046038Y15354019D01*
X24855561Y15354019D01*
X24760323Y15401638D01*
X24712704Y15449257D01*
X24665085Y15544495D01*
X24665085Y15734971D01*
X24712704Y15830209D01*
X24760323Y15877828D01*
X24855561Y15925447D01*
%TO.C,C9*%
X21451866Y12335257D02*
X21499485Y12287638D01*
X21642342Y12240019D01*
X21737580Y12240019D01*
X21880438Y12287638D01*
X21975676Y12382876D01*
X22023295Y12478114D01*
X22070914Y12668590D01*
X22070914Y12811447D01*
X22023295Y13001923D01*
X21975676Y13097161D01*
X21880438Y13192400D01*
X21737580Y13240019D01*
X21642342Y13240019D01*
X21499485Y13192400D01*
X21451866Y13144780D01*
X20975676Y12240019D02*
X20785200Y12240019D01*
X20689961Y12287638D01*
X20642342Y12335257D01*
X20547104Y12478114D01*
X20499485Y12668590D01*
X20499485Y13049542D01*
X20547104Y13144780D01*
X20594723Y13192400D01*
X20689961Y13240019D01*
X20880438Y13240019D01*
X20975676Y13192400D01*
X21023295Y13144780D01*
X21070914Y13049542D01*
X21070914Y12811447D01*
X21023295Y12716209D01*
X20975676Y12668590D01*
X20880438Y12620971D01*
X20689961Y12620971D01*
X20594723Y12668590D01*
X20547104Y12716209D01*
X20499485Y12811447D01*
%TO.C,C12*%
X31580057Y22866057D02*
X31627676Y22818438D01*
X31770533Y22770819D01*
X31865771Y22770819D01*
X32008628Y22818438D01*
X32103866Y22913676D01*
X32151485Y23008914D01*
X32199104Y23199390D01*
X32199104Y23342247D01*
X32151485Y23532723D01*
X32103866Y23627961D01*
X32008628Y23723200D01*
X31865771Y23770819D01*
X31770533Y23770819D01*
X31627676Y23723200D01*
X31580057Y23675580D01*
X30627676Y22770819D02*
X31199104Y22770819D01*
X30913390Y22770819D02*
X30913390Y23770819D01*
X31008628Y23627961D01*
X31103866Y23532723D01*
X31199104Y23485104D01*
X30246723Y23675580D02*
X30199104Y23723200D01*
X30103866Y23770819D01*
X29865771Y23770819D01*
X29770533Y23723200D01*
X29722914Y23675580D01*
X29675295Y23580342D01*
X29675295Y23485104D01*
X29722914Y23342247D01*
X30294342Y22770819D01*
X29675295Y22770819D01*
%TO.C,C13*%
X26093657Y17227257D02*
X26141276Y17179638D01*
X26284133Y17132019D01*
X26379371Y17132019D01*
X26522228Y17179638D01*
X26617466Y17274876D01*
X26665085Y17370114D01*
X26712704Y17560590D01*
X26712704Y17703447D01*
X26665085Y17893923D01*
X26617466Y17989161D01*
X26522228Y18084400D01*
X26379371Y18132019D01*
X26284133Y18132019D01*
X26141276Y18084400D01*
X26093657Y18036780D01*
X25141276Y17132019D02*
X25712704Y17132019D01*
X25426990Y17132019D02*
X25426990Y18132019D01*
X25522228Y17989161D01*
X25617466Y17893923D01*
X25712704Y17846304D01*
X24807942Y18132019D02*
X24188895Y18132019D01*
X24522228Y17751066D01*
X24379371Y17751066D01*
X24284133Y17703447D01*
X24236514Y17655828D01*
X24188895Y17560590D01*
X24188895Y17322495D01*
X24236514Y17227257D01*
X24284133Y17179638D01*
X24379371Y17132019D01*
X24665085Y17132019D01*
X24760323Y17179638D01*
X24807942Y17227257D01*
%TO.C,C14*%
X21928057Y14113257D02*
X21975676Y14065638D01*
X22118533Y14018019D01*
X22213771Y14018019D01*
X22356628Y14065638D01*
X22451866Y14160876D01*
X22499485Y14256114D01*
X22547104Y14446590D01*
X22547104Y14589447D01*
X22499485Y14779923D01*
X22451866Y14875161D01*
X22356628Y14970400D01*
X22213771Y15018019D01*
X22118533Y15018019D01*
X21975676Y14970400D01*
X21928057Y14922780D01*
X20975676Y14018019D02*
X21547104Y14018019D01*
X21261390Y14018019D02*
X21261390Y15018019D01*
X21356628Y14875161D01*
X21451866Y14779923D01*
X21547104Y14732304D01*
X20118533Y14684685D02*
X20118533Y14018019D01*
X20356628Y15065638D02*
X20594723Y14351352D01*
X19975676Y14351352D01*
%TO.C,C17*%
X23604457Y29368457D02*
X23652076Y29320838D01*
X23794933Y29273219D01*
X23890171Y29273219D01*
X24033028Y29320838D01*
X24128266Y29416076D01*
X24175885Y29511314D01*
X24223504Y29701790D01*
X24223504Y29844647D01*
X24175885Y30035123D01*
X24128266Y30130361D01*
X24033028Y30225600D01*
X23890171Y30273219D01*
X23794933Y30273219D01*
X23652076Y30225600D01*
X23604457Y30177980D01*
X22652076Y29273219D02*
X23223504Y29273219D01*
X22937790Y29273219D02*
X22937790Y30273219D01*
X23033028Y30130361D01*
X23128266Y30035123D01*
X23223504Y29987504D01*
X22318742Y30273219D02*
X21652076Y30273219D01*
X22080647Y29273219D01*
%TO.C,C19*%
X33228342Y32037257D02*
X33275961Y32084876D01*
X33323580Y32227733D01*
X33323580Y32322971D01*
X33275961Y32465828D01*
X33180723Y32561066D01*
X33085485Y32608685D01*
X32895009Y32656304D01*
X32752152Y32656304D01*
X32561676Y32608685D01*
X32466438Y32561066D01*
X32371200Y32465828D01*
X32323580Y32322971D01*
X32323580Y32227733D01*
X32371200Y32084876D01*
X32418819Y32037257D01*
X33323580Y31084876D02*
X33323580Y31656304D01*
X33323580Y31370590D02*
X32323580Y31370590D01*
X32466438Y31465828D01*
X32561676Y31561066D01*
X32609295Y31656304D01*
X33323580Y30608685D02*
X33323580Y30418209D01*
X33275961Y30322971D01*
X33228342Y30275352D01*
X33085485Y30180114D01*
X32895009Y30132495D01*
X32514057Y30132495D01*
X32418819Y30180114D01*
X32371200Y30227733D01*
X32323580Y30322971D01*
X32323580Y30513447D01*
X32371200Y30608685D01*
X32418819Y30656304D01*
X32514057Y30703923D01*
X32752152Y30703923D01*
X32847390Y30656304D01*
X32895009Y30608685D01*
X32942628Y30513447D01*
X32942628Y30322971D01*
X32895009Y30227733D01*
X32847390Y30180114D01*
X32752152Y30132495D01*
%TO.C,R3*%
X30619980Y17235466D02*
X30143790Y17568800D01*
X30619980Y17806895D02*
X29619980Y17806895D01*
X29619980Y17425942D01*
X29667600Y17330704D01*
X29715219Y17283085D01*
X29810457Y17235466D01*
X29953314Y17235466D01*
X30048552Y17283085D01*
X30096171Y17330704D01*
X30143790Y17425942D01*
X30143790Y17806895D01*
X29619980Y16902133D02*
X29619980Y16283085D01*
X30000933Y16616419D01*
X30000933Y16473561D01*
X30048552Y16378323D01*
X30096171Y16330704D01*
X30191409Y16283085D01*
X30429504Y16283085D01*
X30524742Y16330704D01*
X30572361Y16378323D01*
X30619980Y16473561D01*
X30619980Y16759276D01*
X30572361Y16854514D01*
X30524742Y16902133D01*
%TO.C,R4*%
X25617466Y13525219D02*
X25950800Y14001409D01*
X26188895Y13525219D02*
X26188895Y14525219D01*
X25807942Y14525219D01*
X25712704Y14477600D01*
X25665085Y14429980D01*
X25617466Y14334742D01*
X25617466Y14191885D01*
X25665085Y14096647D01*
X25712704Y14049028D01*
X25807942Y14001409D01*
X26188895Y14001409D01*
X24760323Y14191885D02*
X24760323Y13525219D01*
X24998419Y14572838D02*
X25236514Y13858552D01*
X24617466Y13858552D01*
%TO.C,R5*%
X17591066Y15557219D02*
X17924400Y16033409D01*
X18162495Y15557219D02*
X18162495Y16557219D01*
X17781542Y16557219D01*
X17686304Y16509600D01*
X17638685Y16461980D01*
X17591066Y16366742D01*
X17591066Y16223885D01*
X17638685Y16128647D01*
X17686304Y16081028D01*
X17781542Y16033409D01*
X18162495Y16033409D01*
X16686304Y16557219D02*
X17162495Y16557219D01*
X17210114Y16081028D01*
X17162495Y16128647D01*
X17067257Y16176266D01*
X16829161Y16176266D01*
X16733923Y16128647D01*
X16686304Y16081028D01*
X16638685Y15985790D01*
X16638685Y15747695D01*
X16686304Y15652457D01*
X16733923Y15604838D01*
X16829161Y15557219D01*
X17067257Y15557219D01*
X17162495Y15604838D01*
X17210114Y15652457D01*
%TO.C,R7*%
X14422380Y31021666D02*
X13946190Y31355000D01*
X14422380Y31593095D02*
X13422380Y31593095D01*
X13422380Y31212142D01*
X13470000Y31116904D01*
X13517619Y31069285D01*
X13612857Y31021666D01*
X13755714Y31021666D01*
X13850952Y31069285D01*
X13898571Y31116904D01*
X13946190Y31212142D01*
X13946190Y31593095D01*
X13422380Y30688333D02*
X13422380Y30021666D01*
X14422380Y30450238D01*
%TO.C,R12*%
X26215580Y20505657D02*
X25739390Y20838990D01*
X26215580Y21077085D02*
X25215580Y21077085D01*
X25215580Y20696133D01*
X25263200Y20600895D01*
X25310819Y20553276D01*
X25406057Y20505657D01*
X25548914Y20505657D01*
X25644152Y20553276D01*
X25691771Y20600895D01*
X25739390Y20696133D01*
X25739390Y21077085D01*
X26215580Y19553276D02*
X26215580Y20124704D01*
X26215580Y19838990D02*
X25215580Y19838990D01*
X25358438Y19934228D01*
X25453676Y20029466D01*
X25501295Y20124704D01*
X25310819Y19172323D02*
X25263200Y19124704D01*
X25215580Y19029466D01*
X25215580Y18791371D01*
X25263200Y18696133D01*
X25310819Y18648514D01*
X25406057Y18600895D01*
X25501295Y18600895D01*
X25644152Y18648514D01*
X26215580Y19219942D01*
X26215580Y18600895D01*
%TO.C,R13*%
X29078657Y31406819D02*
X29411990Y31883009D01*
X29650085Y31406819D02*
X29650085Y32406819D01*
X29269133Y32406819D01*
X29173895Y32359200D01*
X29126276Y32311580D01*
X29078657Y32216342D01*
X29078657Y32073485D01*
X29126276Y31978247D01*
X29173895Y31930628D01*
X29269133Y31883009D01*
X29650085Y31883009D01*
X28126276Y31406819D02*
X28697704Y31406819D01*
X28411990Y31406819D02*
X28411990Y32406819D01*
X28507228Y32263961D01*
X28602466Y32168723D01*
X28697704Y32121104D01*
X27792942Y32406819D02*
X27173895Y32406819D01*
X27507228Y32025866D01*
X27364371Y32025866D01*
X27269133Y31978247D01*
X27221514Y31930628D01*
X27173895Y31835390D01*
X27173895Y31597295D01*
X27221514Y31502057D01*
X27269133Y31454438D01*
X27364371Y31406819D01*
X27650085Y31406819D01*
X27745323Y31454438D01*
X27792942Y31502057D01*
%TO.C,U1*%
X11081904Y24827619D02*
X11081904Y24018095D01*
X11034285Y23922857D01*
X10986666Y23875238D01*
X10891428Y23827619D01*
X10700952Y23827619D01*
X10605714Y23875238D01*
X10558095Y23922857D01*
X10510476Y24018095D01*
X10510476Y24827619D01*
X9510476Y23827619D02*
X10081904Y23827619D01*
X9796190Y23827619D02*
X9796190Y24827619D01*
X9891428Y24684761D01*
X9986666Y24589523D01*
X10081904Y24541904D01*
%TO.C,U4*%
X26681180Y20878704D02*
X27490704Y20878704D01*
X27585942Y20831085D01*
X27633561Y20783466D01*
X27681180Y20688228D01*
X27681180Y20497752D01*
X27633561Y20402514D01*
X27585942Y20354895D01*
X27490704Y20307276D01*
X26681180Y20307276D01*
X27014514Y19402514D02*
X27681180Y19402514D01*
X26633561Y19640609D02*
X27347847Y19878704D01*
X27347847Y19259657D01*
%TO.C,U5*%
X20737580Y20827904D02*
X21547104Y20827904D01*
X21642342Y20780285D01*
X21689961Y20732666D01*
X21737580Y20637428D01*
X21737580Y20446952D01*
X21689961Y20351714D01*
X21642342Y20304095D01*
X21547104Y20256476D01*
X20737580Y20256476D01*
X20737580Y19304095D02*
X20737580Y19780285D01*
X21213771Y19827904D01*
X21166152Y19780285D01*
X21118533Y19685047D01*
X21118533Y19446952D01*
X21166152Y19351714D01*
X21213771Y19304095D01*
X21309009Y19256476D01*
X21547104Y19256476D01*
X21642342Y19304095D01*
X21689961Y19351714D01*
X21737580Y19446952D01*
X21737580Y19685047D01*
X21689961Y19780285D01*
X21642342Y19827904D01*
%TO.C,U2*%
X29326904Y23462019D02*
X29326904Y22652495D01*
X29279285Y22557257D01*
X29231666Y22509638D01*
X29136428Y22462019D01*
X28945952Y22462019D01*
X28850714Y22509638D01*
X28803095Y22557257D01*
X28755476Y22652495D01*
X28755476Y23462019D01*
X28326904Y23366780D02*
X28279285Y23414400D01*
X28184047Y23462019D01*
X27945952Y23462019D01*
X27850714Y23414400D01*
X27803095Y23366780D01*
X27755476Y23271542D01*
X27755476Y23176304D01*
X27803095Y23033447D01*
X28374523Y22462019D01*
X27755476Y22462019D01*
%TO.C,R1*%
X30939980Y15914666D02*
X30463790Y16248000D01*
X30939980Y16486095D02*
X29939980Y16486095D01*
X29939980Y16105142D01*
X29987600Y16009904D01*
X30035219Y15962285D01*
X30130457Y15914666D01*
X30273314Y15914666D01*
X30368552Y15962285D01*
X30416171Y16009904D01*
X30463790Y16105142D01*
X30463790Y16486095D01*
X30939980Y14962285D02*
X30939980Y15533714D01*
X30939980Y15248000D02*
X29939980Y15248000D01*
X30082838Y15343238D01*
X30178076Y15438476D01*
X30225695Y15533714D01*
%TO.C,C2*%
X21939542Y34659866D02*
X21987161Y34707485D01*
X22034780Y34850342D01*
X22034780Y34945580D01*
X21987161Y35088438D01*
X21891923Y35183676D01*
X21796685Y35231295D01*
X21606209Y35278914D01*
X21463352Y35278914D01*
X21272876Y35231295D01*
X21177638Y35183676D01*
X21082400Y35088438D01*
X21034780Y34945580D01*
X21034780Y34850342D01*
X21082400Y34707485D01*
X21130019Y34659866D01*
X21130019Y34278914D02*
X21082400Y34231295D01*
X21034780Y34136057D01*
X21034780Y33897961D01*
X21082400Y33802723D01*
X21130019Y33755104D01*
X21225257Y33707485D01*
X21320495Y33707485D01*
X21463352Y33755104D01*
X22034780Y34326533D01*
X22034780Y33707485D01*
%TO.C,U3*%
X11644380Y19033904D02*
X12453904Y19033904D01*
X12549142Y18986285D01*
X12596761Y18938666D01*
X12644380Y18843428D01*
X12644380Y18652952D01*
X12596761Y18557714D01*
X12549142Y18510095D01*
X12453904Y18462476D01*
X11644380Y18462476D01*
X11644380Y18081523D02*
X11644380Y17462476D01*
X12025333Y17795809D01*
X12025333Y17652952D01*
X12072952Y17557714D01*
X12120571Y17510095D01*
X12215809Y17462476D01*
X12453904Y17462476D01*
X12549142Y17510095D01*
X12596761Y17557714D01*
X12644380Y17652952D01*
X12644380Y17938666D01*
X12596761Y18033904D01*
X12549142Y18081523D01*
%TO.C,C21*%
X26105142Y35136057D02*
X26152761Y35183676D01*
X26200380Y35326533D01*
X26200380Y35421771D01*
X26152761Y35564628D01*
X26057523Y35659866D01*
X25962285Y35707485D01*
X25771809Y35755104D01*
X25628952Y35755104D01*
X25438476Y35707485D01*
X25343238Y35659866D01*
X25248000Y35564628D01*
X25200380Y35421771D01*
X25200380Y35326533D01*
X25248000Y35183676D01*
X25295619Y35136057D01*
X25295619Y34755104D02*
X25248000Y34707485D01*
X25200380Y34612247D01*
X25200380Y34374152D01*
X25248000Y34278914D01*
X25295619Y34231295D01*
X25390857Y34183676D01*
X25486095Y34183676D01*
X25628952Y34231295D01*
X26200380Y34802723D01*
X26200380Y34183676D01*
X26200380Y33231295D02*
X26200380Y33802723D01*
X26200380Y33517009D02*
X25200380Y33517009D01*
X25343238Y33612247D01*
X25438476Y33707485D01*
X25486095Y33802723D01*
%TO.C,F2*%
X69920571Y28528333D02*
X69920571Y28861666D01*
X70444380Y28861666D02*
X69444380Y28861666D01*
X69444380Y28385476D01*
X69539619Y28052142D02*
X69492000Y28004523D01*
X69444380Y27909285D01*
X69444380Y27671190D01*
X69492000Y27575952D01*
X69539619Y27528333D01*
X69634857Y27480714D01*
X69730095Y27480714D01*
X69872952Y27528333D01*
X70444380Y28099761D01*
X70444380Y27480714D01*
%TO.C,L3*%
X85160380Y35218666D02*
X85160380Y35694857D01*
X84160380Y35694857D01*
X84160380Y34980571D02*
X84160380Y34361523D01*
X84541333Y34694857D01*
X84541333Y34552000D01*
X84588952Y34456761D01*
X84636571Y34409142D01*
X84731809Y34361523D01*
X84969904Y34361523D01*
X85065142Y34409142D01*
X85112761Y34456761D01*
X85160380Y34552000D01*
X85160380Y34837714D01*
X85112761Y34932952D01*
X85065142Y34980571D01*
%TO.C,C50*%
X78749142Y40787857D02*
X78796761Y40835476D01*
X78844380Y40978333D01*
X78844380Y41073571D01*
X78796761Y41216428D01*
X78701523Y41311666D01*
X78606285Y41359285D01*
X78415809Y41406904D01*
X78272952Y41406904D01*
X78082476Y41359285D01*
X77987238Y41311666D01*
X77892000Y41216428D01*
X77844380Y41073571D01*
X77844380Y40978333D01*
X77892000Y40835476D01*
X77939619Y40787857D01*
X77844380Y39883095D02*
X77844380Y40359285D01*
X78320571Y40406904D01*
X78272952Y40359285D01*
X78225333Y40264047D01*
X78225333Y40025952D01*
X78272952Y39930714D01*
X78320571Y39883095D01*
X78415809Y39835476D01*
X78653904Y39835476D01*
X78749142Y39883095D01*
X78796761Y39930714D01*
X78844380Y40025952D01*
X78844380Y40264047D01*
X78796761Y40359285D01*
X78749142Y40406904D01*
X77844380Y39216428D02*
X77844380Y39121190D01*
X77892000Y39025952D01*
X77939619Y38978333D01*
X78034857Y38930714D01*
X78225333Y38883095D01*
X78463428Y38883095D01*
X78653904Y38930714D01*
X78749142Y38978333D01*
X78796761Y39025952D01*
X78844380Y39121190D01*
X78844380Y39216428D01*
X78796761Y39311666D01*
X78749142Y39359285D01*
X78653904Y39406904D01*
X78463428Y39454523D01*
X78225333Y39454523D01*
X78034857Y39406904D01*
X77939619Y39359285D01*
X77892000Y39311666D01*
X77844380Y39216428D01*
%TO.C,C42*%
X76717142Y40787857D02*
X76764761Y40835476D01*
X76812380Y40978333D01*
X76812380Y41073571D01*
X76764761Y41216428D01*
X76669523Y41311666D01*
X76574285Y41359285D01*
X76383809Y41406904D01*
X76240952Y41406904D01*
X76050476Y41359285D01*
X75955238Y41311666D01*
X75860000Y41216428D01*
X75812380Y41073571D01*
X75812380Y40978333D01*
X75860000Y40835476D01*
X75907619Y40787857D01*
X76145714Y39930714D02*
X76812380Y39930714D01*
X75764761Y40168809D02*
X76479047Y40406904D01*
X76479047Y39787857D01*
X75907619Y39454523D02*
X75860000Y39406904D01*
X75812380Y39311666D01*
X75812380Y39073571D01*
X75860000Y38978333D01*
X75907619Y38930714D01*
X76002857Y38883095D01*
X76098095Y38883095D01*
X76240952Y38930714D01*
X76812380Y39502142D01*
X76812380Y38883095D01*
%TO.C,C52*%
X76328542Y36435257D02*
X76376161Y36482876D01*
X76423780Y36625733D01*
X76423780Y36720971D01*
X76376161Y36863828D01*
X76280923Y36959066D01*
X76185685Y37006685D01*
X75995209Y37054304D01*
X75852352Y37054304D01*
X75661876Y37006685D01*
X75566638Y36959066D01*
X75471400Y36863828D01*
X75423780Y36720971D01*
X75423780Y36625733D01*
X75471400Y36482876D01*
X75519019Y36435257D01*
X75423780Y35530495D02*
X75423780Y36006685D01*
X75899971Y36054304D01*
X75852352Y36006685D01*
X75804733Y35911447D01*
X75804733Y35673352D01*
X75852352Y35578114D01*
X75899971Y35530495D01*
X75995209Y35482876D01*
X76233304Y35482876D01*
X76328542Y35530495D01*
X76376161Y35578114D01*
X76423780Y35673352D01*
X76423780Y35911447D01*
X76376161Y36006685D01*
X76328542Y36054304D01*
X75519019Y35101923D02*
X75471400Y35054304D01*
X75423780Y34959066D01*
X75423780Y34720971D01*
X75471400Y34625733D01*
X75519019Y34578114D01*
X75614257Y34530495D01*
X75709495Y34530495D01*
X75852352Y34578114D01*
X76423780Y35149542D01*
X76423780Y34530495D01*
%TO.C,C44*%
X65033142Y34932857D02*
X65080761Y34980476D01*
X65128380Y35123333D01*
X65128380Y35218571D01*
X65080761Y35361428D01*
X64985523Y35456666D01*
X64890285Y35504285D01*
X64699809Y35551904D01*
X64556952Y35551904D01*
X64366476Y35504285D01*
X64271238Y35456666D01*
X64176000Y35361428D01*
X64128380Y35218571D01*
X64128380Y35123333D01*
X64176000Y34980476D01*
X64223619Y34932857D01*
X64461714Y34075714D02*
X65128380Y34075714D01*
X64080761Y34313809D02*
X64795047Y34551904D01*
X64795047Y33932857D01*
X64461714Y33123333D02*
X65128380Y33123333D01*
X64080761Y33361428D02*
X64795047Y33599523D01*
X64795047Y32980476D01*
%TO.C,C40*%
X67319142Y34932857D02*
X67366761Y34980476D01*
X67414380Y35123333D01*
X67414380Y35218571D01*
X67366761Y35361428D01*
X67271523Y35456666D01*
X67176285Y35504285D01*
X66985809Y35551904D01*
X66842952Y35551904D01*
X66652476Y35504285D01*
X66557238Y35456666D01*
X66462000Y35361428D01*
X66414380Y35218571D01*
X66414380Y35123333D01*
X66462000Y34980476D01*
X66509619Y34932857D01*
X66747714Y34075714D02*
X67414380Y34075714D01*
X66366761Y34313809D02*
X67081047Y34551904D01*
X67081047Y33932857D01*
X66414380Y33361428D02*
X66414380Y33266190D01*
X66462000Y33170952D01*
X66509619Y33123333D01*
X66604857Y33075714D01*
X66795333Y33028095D01*
X67033428Y33028095D01*
X67223904Y33075714D01*
X67319142Y33123333D01*
X67366761Y33170952D01*
X67414380Y33266190D01*
X67414380Y33361428D01*
X67366761Y33456666D01*
X67319142Y33504285D01*
X67223904Y33551904D01*
X67033428Y33599523D01*
X66795333Y33599523D01*
X66604857Y33551904D01*
X66509619Y33504285D01*
X66462000Y33456666D01*
X66414380Y33361428D01*
%TO.C,C31*%
X65033142Y38488857D02*
X65080761Y38536476D01*
X65128380Y38679333D01*
X65128380Y38774571D01*
X65080761Y38917428D01*
X64985523Y39012666D01*
X64890285Y39060285D01*
X64699809Y39107904D01*
X64556952Y39107904D01*
X64366476Y39060285D01*
X64271238Y39012666D01*
X64176000Y38917428D01*
X64128380Y38774571D01*
X64128380Y38679333D01*
X64176000Y38536476D01*
X64223619Y38488857D01*
X64128380Y38155523D02*
X64128380Y37536476D01*
X64509333Y37869809D01*
X64509333Y37726952D01*
X64556952Y37631714D01*
X64604571Y37584095D01*
X64699809Y37536476D01*
X64937904Y37536476D01*
X65033142Y37584095D01*
X65080761Y37631714D01*
X65128380Y37726952D01*
X65128380Y38012666D01*
X65080761Y38107904D01*
X65033142Y38155523D01*
X65128380Y36584095D02*
X65128380Y37155523D01*
X65128380Y36869809D02*
X64128380Y36869809D01*
X64271238Y36965047D01*
X64366476Y37060285D01*
X64414095Y37155523D01*
%TO.C,C27*%
X73032857Y34788857D02*
X73080476Y34741238D01*
X73223333Y34693619D01*
X73318571Y34693619D01*
X73461428Y34741238D01*
X73556666Y34836476D01*
X73604285Y34931714D01*
X73651904Y35122190D01*
X73651904Y35265047D01*
X73604285Y35455523D01*
X73556666Y35550761D01*
X73461428Y35646000D01*
X73318571Y35693619D01*
X73223333Y35693619D01*
X73080476Y35646000D01*
X73032857Y35598380D01*
X72651904Y35598380D02*
X72604285Y35646000D01*
X72509047Y35693619D01*
X72270952Y35693619D01*
X72175714Y35646000D01*
X72128095Y35598380D01*
X72080476Y35503142D01*
X72080476Y35407904D01*
X72128095Y35265047D01*
X72699523Y34693619D01*
X72080476Y34693619D01*
X71747142Y35693619D02*
X71080476Y35693619D01*
X71509047Y34693619D01*
%TO.C,U8*%
X79378380Y37784904D02*
X80187904Y37784904D01*
X80283142Y37737285D01*
X80330761Y37689666D01*
X80378380Y37594428D01*
X80378380Y37403952D01*
X80330761Y37308714D01*
X80283142Y37261095D01*
X80187904Y37213476D01*
X79378380Y37213476D01*
X79806952Y36594428D02*
X79759333Y36689666D01*
X79711714Y36737285D01*
X79616476Y36784904D01*
X79568857Y36784904D01*
X79473619Y36737285D01*
X79426000Y36689666D01*
X79378380Y36594428D01*
X79378380Y36403952D01*
X79426000Y36308714D01*
X79473619Y36261095D01*
X79568857Y36213476D01*
X79616476Y36213476D01*
X79711714Y36261095D01*
X79759333Y36308714D01*
X79806952Y36403952D01*
X79806952Y36594428D01*
X79854571Y36689666D01*
X79902190Y36737285D01*
X79997428Y36784904D01*
X80187904Y36784904D01*
X80283142Y36737285D01*
X80330761Y36689666D01*
X80378380Y36594428D01*
X80378380Y36403952D01*
X80330761Y36308714D01*
X80283142Y36261095D01*
X80187904Y36213476D01*
X79997428Y36213476D01*
X79902190Y36261095D01*
X79854571Y36308714D01*
X79806952Y36403952D01*
%TO.C,U10*%
X55848095Y35980619D02*
X55848095Y35171095D01*
X55800476Y35075857D01*
X55752857Y35028238D01*
X55657619Y34980619D01*
X55467142Y34980619D01*
X55371904Y35028238D01*
X55324285Y35075857D01*
X55276666Y35171095D01*
X55276666Y35980619D01*
X54276666Y34980619D02*
X54848095Y34980619D01*
X54562380Y34980619D02*
X54562380Y35980619D01*
X54657619Y35837761D01*
X54752857Y35742523D01*
X54848095Y35694904D01*
X53657619Y35980619D02*
X53562380Y35980619D01*
X53467142Y35933000D01*
X53419523Y35885380D01*
X53371904Y35790142D01*
X53324285Y35599666D01*
X53324285Y35361571D01*
X53371904Y35171095D01*
X53419523Y35075857D01*
X53467142Y35028238D01*
X53562380Y34980619D01*
X53657619Y34980619D01*
X53752857Y35028238D01*
X53800476Y35075857D01*
X53848095Y35171095D01*
X53895714Y35361571D01*
X53895714Y35599666D01*
X53848095Y35790142D01*
X53800476Y35885380D01*
X53752857Y35933000D01*
X53657619Y35980619D01*
%TO.C,R20*%
X54490857Y17487619D02*
X54824190Y17963809D01*
X55062285Y17487619D02*
X55062285Y18487619D01*
X54681333Y18487619D01*
X54586095Y18440000D01*
X54538476Y18392380D01*
X54490857Y18297142D01*
X54490857Y18154285D01*
X54538476Y18059047D01*
X54586095Y18011428D01*
X54681333Y17963809D01*
X55062285Y17963809D01*
X54109904Y18392380D02*
X54062285Y18440000D01*
X53967047Y18487619D01*
X53728952Y18487619D01*
X53633714Y18440000D01*
X53586095Y18392380D01*
X53538476Y18297142D01*
X53538476Y18201904D01*
X53586095Y18059047D01*
X54157523Y17487619D01*
X53538476Y17487619D01*
X52919428Y18487619D02*
X52824190Y18487619D01*
X52728952Y18440000D01*
X52681333Y18392380D01*
X52633714Y18297142D01*
X52586095Y18106666D01*
X52586095Y17868571D01*
X52633714Y17678095D01*
X52681333Y17582857D01*
X52728952Y17535238D01*
X52824190Y17487619D01*
X52919428Y17487619D01*
X53014666Y17535238D01*
X53062285Y17582857D01*
X53109904Y17678095D01*
X53157523Y17868571D01*
X53157523Y18106666D01*
X53109904Y18297142D01*
X53062285Y18392380D01*
X53014666Y18440000D01*
X52919428Y18487619D01*
%TO.C,C29*%
X75566542Y26957257D02*
X75614161Y27004876D01*
X75661780Y27147733D01*
X75661780Y27242971D01*
X75614161Y27385828D01*
X75518923Y27481066D01*
X75423685Y27528685D01*
X75233209Y27576304D01*
X75090352Y27576304D01*
X74899876Y27528685D01*
X74804638Y27481066D01*
X74709400Y27385828D01*
X74661780Y27242971D01*
X74661780Y27147733D01*
X74709400Y27004876D01*
X74757019Y26957257D01*
X74757019Y26576304D02*
X74709400Y26528685D01*
X74661780Y26433447D01*
X74661780Y26195352D01*
X74709400Y26100114D01*
X74757019Y26052495D01*
X74852257Y26004876D01*
X74947495Y26004876D01*
X75090352Y26052495D01*
X75661780Y26623923D01*
X75661780Y26004876D01*
X75661780Y25528685D02*
X75661780Y25338209D01*
X75614161Y25242971D01*
X75566542Y25195352D01*
X75423685Y25100114D01*
X75233209Y25052495D01*
X74852257Y25052495D01*
X74757019Y25100114D01*
X74709400Y25147733D01*
X74661780Y25242971D01*
X74661780Y25433447D01*
X74709400Y25528685D01*
X74757019Y25576304D01*
X74852257Y25623923D01*
X75090352Y25623923D01*
X75185590Y25576304D01*
X75233209Y25528685D01*
X75280828Y25433447D01*
X75280828Y25242971D01*
X75233209Y25147733D01*
X75185590Y25100114D01*
X75090352Y25052495D01*
%TO.C,R23*%
X47348380Y30868857D02*
X46872190Y31202190D01*
X47348380Y31440285D02*
X46348380Y31440285D01*
X46348380Y31059333D01*
X46396000Y30964095D01*
X46443619Y30916476D01*
X46538857Y30868857D01*
X46681714Y30868857D01*
X46776952Y30916476D01*
X46824571Y30964095D01*
X46872190Y31059333D01*
X46872190Y31440285D01*
X46443619Y30487904D02*
X46396000Y30440285D01*
X46348380Y30345047D01*
X46348380Y30106952D01*
X46396000Y30011714D01*
X46443619Y29964095D01*
X46538857Y29916476D01*
X46634095Y29916476D01*
X46776952Y29964095D01*
X47348380Y30535523D01*
X47348380Y29916476D01*
X46348380Y29583142D02*
X46348380Y28964095D01*
X46729333Y29297428D01*
X46729333Y29154571D01*
X46776952Y29059333D01*
X46824571Y29011714D01*
X46919809Y28964095D01*
X47157904Y28964095D01*
X47253142Y29011714D01*
X47300761Y29059333D01*
X47348380Y29154571D01*
X47348380Y29440285D01*
X47300761Y29535523D01*
X47253142Y29583142D01*
%TO.C,C26*%
X73032857Y32502857D02*
X73080476Y32455238D01*
X73223333Y32407619D01*
X73318571Y32407619D01*
X73461428Y32455238D01*
X73556666Y32550476D01*
X73604285Y32645714D01*
X73651904Y32836190D01*
X73651904Y32979047D01*
X73604285Y33169523D01*
X73556666Y33264761D01*
X73461428Y33360000D01*
X73318571Y33407619D01*
X73223333Y33407619D01*
X73080476Y33360000D01*
X73032857Y33312380D01*
X72651904Y33312380D02*
X72604285Y33360000D01*
X72509047Y33407619D01*
X72270952Y33407619D01*
X72175714Y33360000D01*
X72128095Y33312380D01*
X72080476Y33217142D01*
X72080476Y33121904D01*
X72128095Y32979047D01*
X72699523Y32407619D01*
X72080476Y32407619D01*
X71223333Y33407619D02*
X71413809Y33407619D01*
X71509047Y33360000D01*
X71556666Y33312380D01*
X71651904Y33169523D01*
X71699523Y32979047D01*
X71699523Y32598095D01*
X71651904Y32502857D01*
X71604285Y32455238D01*
X71509047Y32407619D01*
X71318571Y32407619D01*
X71223333Y32455238D01*
X71175714Y32502857D01*
X71128095Y32598095D01*
X71128095Y32836190D01*
X71175714Y32931428D01*
X71223333Y32979047D01*
X71318571Y33026666D01*
X71509047Y33026666D01*
X71604285Y32979047D01*
X71651904Y32931428D01*
X71699523Y32836190D01*
%TO.C,C28*%
X73032857Y36820857D02*
X73080476Y36773238D01*
X73223333Y36725619D01*
X73318571Y36725619D01*
X73461428Y36773238D01*
X73556666Y36868476D01*
X73604285Y36963714D01*
X73651904Y37154190D01*
X73651904Y37297047D01*
X73604285Y37487523D01*
X73556666Y37582761D01*
X73461428Y37678000D01*
X73318571Y37725619D01*
X73223333Y37725619D01*
X73080476Y37678000D01*
X73032857Y37630380D01*
X72651904Y37630380D02*
X72604285Y37678000D01*
X72509047Y37725619D01*
X72270952Y37725619D01*
X72175714Y37678000D01*
X72128095Y37630380D01*
X72080476Y37535142D01*
X72080476Y37439904D01*
X72128095Y37297047D01*
X72699523Y36725619D01*
X72080476Y36725619D01*
X71509047Y37297047D02*
X71604285Y37344666D01*
X71651904Y37392285D01*
X71699523Y37487523D01*
X71699523Y37535142D01*
X71651904Y37630380D01*
X71604285Y37678000D01*
X71509047Y37725619D01*
X71318571Y37725619D01*
X71223333Y37678000D01*
X71175714Y37630380D01*
X71128095Y37535142D01*
X71128095Y37487523D01*
X71175714Y37392285D01*
X71223333Y37344666D01*
X71318571Y37297047D01*
X71509047Y37297047D01*
X71604285Y37249428D01*
X71651904Y37201809D01*
X71699523Y37106571D01*
X71699523Y36916095D01*
X71651904Y36820857D01*
X71604285Y36773238D01*
X71509047Y36725619D01*
X71318571Y36725619D01*
X71223333Y36773238D01*
X71175714Y36820857D01*
X71128095Y36916095D01*
X71128095Y37106571D01*
X71175714Y37201809D01*
X71223333Y37249428D01*
X71318571Y37297047D01*
%TO.C,C30*%
X41665142Y33154857D02*
X41712761Y33202476D01*
X41760380Y33345333D01*
X41760380Y33440571D01*
X41712761Y33583428D01*
X41617523Y33678666D01*
X41522285Y33726285D01*
X41331809Y33773904D01*
X41188952Y33773904D01*
X40998476Y33726285D01*
X40903238Y33678666D01*
X40808000Y33583428D01*
X40760380Y33440571D01*
X40760380Y33345333D01*
X40808000Y33202476D01*
X40855619Y33154857D01*
X40760380Y32821523D02*
X40760380Y32202476D01*
X41141333Y32535809D01*
X41141333Y32392952D01*
X41188952Y32297714D01*
X41236571Y32250095D01*
X41331809Y32202476D01*
X41569904Y32202476D01*
X41665142Y32250095D01*
X41712761Y32297714D01*
X41760380Y32392952D01*
X41760380Y32678666D01*
X41712761Y32773904D01*
X41665142Y32821523D01*
X40760380Y31583428D02*
X40760380Y31488190D01*
X40808000Y31392952D01*
X40855619Y31345333D01*
X40950857Y31297714D01*
X41141333Y31250095D01*
X41379428Y31250095D01*
X41569904Y31297714D01*
X41665142Y31345333D01*
X41712761Y31392952D01*
X41760380Y31488190D01*
X41760380Y31583428D01*
X41712761Y31678666D01*
X41665142Y31726285D01*
X41569904Y31773904D01*
X41379428Y31821523D01*
X41141333Y31821523D01*
X40950857Y31773904D01*
X40855619Y31726285D01*
X40808000Y31678666D01*
X40760380Y31583428D01*
%TO.C,C33*%
X38805142Y36456857D02*
X38852761Y36504476D01*
X38900380Y36647333D01*
X38900380Y36742571D01*
X38852761Y36885428D01*
X38757523Y36980666D01*
X38662285Y37028285D01*
X38471809Y37075904D01*
X38328952Y37075904D01*
X38138476Y37028285D01*
X38043238Y36980666D01*
X37948000Y36885428D01*
X37900380Y36742571D01*
X37900380Y36647333D01*
X37948000Y36504476D01*
X37995619Y36456857D01*
X37900380Y36123523D02*
X37900380Y35504476D01*
X38281333Y35837809D01*
X38281333Y35694952D01*
X38328952Y35599714D01*
X38376571Y35552095D01*
X38471809Y35504476D01*
X38709904Y35504476D01*
X38805142Y35552095D01*
X38852761Y35599714D01*
X38900380Y35694952D01*
X38900380Y35980666D01*
X38852761Y36075904D01*
X38805142Y36123523D01*
X37900380Y35171142D02*
X37900380Y34552095D01*
X38281333Y34885428D01*
X38281333Y34742571D01*
X38328952Y34647333D01*
X38376571Y34599714D01*
X38471809Y34552095D01*
X38709904Y34552095D01*
X38805142Y34599714D01*
X38852761Y34647333D01*
X38900380Y34742571D01*
X38900380Y35028285D01*
X38852761Y35123523D01*
X38805142Y35171142D01*
%TO.C,C34*%
X47761142Y34678857D02*
X47808761Y34726476D01*
X47856380Y34869333D01*
X47856380Y34964571D01*
X47808761Y35107428D01*
X47713523Y35202666D01*
X47618285Y35250285D01*
X47427809Y35297904D01*
X47284952Y35297904D01*
X47094476Y35250285D01*
X46999238Y35202666D01*
X46904000Y35107428D01*
X46856380Y34964571D01*
X46856380Y34869333D01*
X46904000Y34726476D01*
X46951619Y34678857D01*
X46856380Y34345523D02*
X46856380Y33726476D01*
X47237333Y34059809D01*
X47237333Y33916952D01*
X47284952Y33821714D01*
X47332571Y33774095D01*
X47427809Y33726476D01*
X47665904Y33726476D01*
X47761142Y33774095D01*
X47808761Y33821714D01*
X47856380Y33916952D01*
X47856380Y34202666D01*
X47808761Y34297904D01*
X47761142Y34345523D01*
X47189714Y32869333D02*
X47856380Y32869333D01*
X46808761Y33107428D02*
X47523047Y33345523D01*
X47523047Y32726476D01*
%TO.C,C35*%
X54299142Y27312857D02*
X54346761Y27360476D01*
X54394380Y27503333D01*
X54394380Y27598571D01*
X54346761Y27741428D01*
X54251523Y27836666D01*
X54156285Y27884285D01*
X53965809Y27931904D01*
X53822952Y27931904D01*
X53632476Y27884285D01*
X53537238Y27836666D01*
X53442000Y27741428D01*
X53394380Y27598571D01*
X53394380Y27503333D01*
X53442000Y27360476D01*
X53489619Y27312857D01*
X53394380Y26979523D02*
X53394380Y26360476D01*
X53775333Y26693809D01*
X53775333Y26550952D01*
X53822952Y26455714D01*
X53870571Y26408095D01*
X53965809Y26360476D01*
X54203904Y26360476D01*
X54299142Y26408095D01*
X54346761Y26455714D01*
X54394380Y26550952D01*
X54394380Y26836666D01*
X54346761Y26931904D01*
X54299142Y26979523D01*
X53394380Y25455714D02*
X53394380Y25931904D01*
X53870571Y25979523D01*
X53822952Y25931904D01*
X53775333Y25836666D01*
X53775333Y25598571D01*
X53822952Y25503333D01*
X53870571Y25455714D01*
X53965809Y25408095D01*
X54203904Y25408095D01*
X54299142Y25455714D01*
X54346761Y25503333D01*
X54394380Y25598571D01*
X54394380Y25836666D01*
X54346761Y25931904D01*
X54299142Y25979523D01*
%TO.C,C39*%
X56397142Y46108857D02*
X56444761Y46156476D01*
X56492380Y46299333D01*
X56492380Y46394571D01*
X56444761Y46537428D01*
X56349523Y46632666D01*
X56254285Y46680285D01*
X56063809Y46727904D01*
X55920952Y46727904D01*
X55730476Y46680285D01*
X55635238Y46632666D01*
X55540000Y46537428D01*
X55492380Y46394571D01*
X55492380Y46299333D01*
X55540000Y46156476D01*
X55587619Y46108857D01*
X55492380Y45775523D02*
X55492380Y45156476D01*
X55873333Y45489809D01*
X55873333Y45346952D01*
X55920952Y45251714D01*
X55968571Y45204095D01*
X56063809Y45156476D01*
X56301904Y45156476D01*
X56397142Y45204095D01*
X56444761Y45251714D01*
X56492380Y45346952D01*
X56492380Y45632666D01*
X56444761Y45727904D01*
X56397142Y45775523D01*
X56492380Y44680285D02*
X56492380Y44489809D01*
X56444761Y44394571D01*
X56397142Y44346952D01*
X56254285Y44251714D01*
X56063809Y44204095D01*
X55682857Y44204095D01*
X55587619Y44251714D01*
X55540000Y44299333D01*
X55492380Y44394571D01*
X55492380Y44585047D01*
X55540000Y44680285D01*
X55587619Y44727904D01*
X55682857Y44775523D01*
X55920952Y44775523D01*
X56016190Y44727904D01*
X56063809Y44680285D01*
X56111428Y44585047D01*
X56111428Y44394571D01*
X56063809Y44299333D01*
X56016190Y44251714D01*
X55920952Y44204095D01*
%TO.C,C43*%
X47886857Y24628857D02*
X47934476Y24581238D01*
X48077333Y24533619D01*
X48172571Y24533619D01*
X48315428Y24581238D01*
X48410666Y24676476D01*
X48458285Y24771714D01*
X48505904Y24962190D01*
X48505904Y25105047D01*
X48458285Y25295523D01*
X48410666Y25390761D01*
X48315428Y25486000D01*
X48172571Y25533619D01*
X48077333Y25533619D01*
X47934476Y25486000D01*
X47886857Y25438380D01*
X47029714Y25200285D02*
X47029714Y24533619D01*
X47267809Y25581238D02*
X47505904Y24866952D01*
X46886857Y24866952D01*
X46601142Y25533619D02*
X45982095Y25533619D01*
X46315428Y25152666D01*
X46172571Y25152666D01*
X46077333Y25105047D01*
X46029714Y25057428D01*
X45982095Y24962190D01*
X45982095Y24724095D01*
X46029714Y24628857D01*
X46077333Y24581238D01*
X46172571Y24533619D01*
X46458285Y24533619D01*
X46553523Y24581238D01*
X46601142Y24628857D01*
%TO.C,C47*%
X73032857Y30216857D02*
X73080476Y30169238D01*
X73223333Y30121619D01*
X73318571Y30121619D01*
X73461428Y30169238D01*
X73556666Y30264476D01*
X73604285Y30359714D01*
X73651904Y30550190D01*
X73651904Y30693047D01*
X73604285Y30883523D01*
X73556666Y30978761D01*
X73461428Y31074000D01*
X73318571Y31121619D01*
X73223333Y31121619D01*
X73080476Y31074000D01*
X73032857Y31026380D01*
X72175714Y30788285D02*
X72175714Y30121619D01*
X72413809Y31169238D02*
X72651904Y30454952D01*
X72032857Y30454952D01*
X71747142Y31121619D02*
X71080476Y31121619D01*
X71509047Y30121619D01*
%TO.C,L1*%
X67603666Y39546619D02*
X68079857Y39546619D01*
X68079857Y40546619D01*
X66746523Y39546619D02*
X67317952Y39546619D01*
X67032238Y39546619D02*
X67032238Y40546619D01*
X67127476Y40403761D01*
X67222714Y40308523D01*
X67317952Y40260904D01*
%TO.C,R21*%
X54490857Y19265619D02*
X54824190Y19741809D01*
X55062285Y19265619D02*
X55062285Y20265619D01*
X54681333Y20265619D01*
X54586095Y20218000D01*
X54538476Y20170380D01*
X54490857Y20075142D01*
X54490857Y19932285D01*
X54538476Y19837047D01*
X54586095Y19789428D01*
X54681333Y19741809D01*
X55062285Y19741809D01*
X54109904Y20170380D02*
X54062285Y20218000D01*
X53967047Y20265619D01*
X53728952Y20265619D01*
X53633714Y20218000D01*
X53586095Y20170380D01*
X53538476Y20075142D01*
X53538476Y19979904D01*
X53586095Y19837047D01*
X54157523Y19265619D01*
X53538476Y19265619D01*
X52586095Y19265619D02*
X53157523Y19265619D01*
X52871809Y19265619D02*
X52871809Y20265619D01*
X52967047Y20122761D01*
X53062285Y20027523D01*
X53157523Y19979904D01*
%TO.C,U11*%
X70328380Y31464095D02*
X71137904Y31464095D01*
X71233142Y31416476D01*
X71280761Y31368857D01*
X71328380Y31273619D01*
X71328380Y31083142D01*
X71280761Y30987904D01*
X71233142Y30940285D01*
X71137904Y30892666D01*
X70328380Y30892666D01*
X71328380Y29892666D02*
X71328380Y30464095D01*
X71328380Y30178380D02*
X70328380Y30178380D01*
X70471238Y30273619D01*
X70566476Y30368857D01*
X70614095Y30464095D01*
X71328380Y28940285D02*
X71328380Y29511714D01*
X71328380Y29226000D02*
X70328380Y29226000D01*
X70471238Y29321238D01*
X70566476Y29416476D01*
X70614095Y29511714D01*
%TO.C,C23*%
X23971542Y35136057D02*
X24019161Y35183676D01*
X24066780Y35326533D01*
X24066780Y35421771D01*
X24019161Y35564628D01*
X23923923Y35659866D01*
X23828685Y35707485D01*
X23638209Y35755104D01*
X23495352Y35755104D01*
X23304876Y35707485D01*
X23209638Y35659866D01*
X23114400Y35564628D01*
X23066780Y35421771D01*
X23066780Y35326533D01*
X23114400Y35183676D01*
X23162019Y35136057D01*
X23162019Y34755104D02*
X23114400Y34707485D01*
X23066780Y34612247D01*
X23066780Y34374152D01*
X23114400Y34278914D01*
X23162019Y34231295D01*
X23257257Y34183676D01*
X23352495Y34183676D01*
X23495352Y34231295D01*
X24066780Y34802723D01*
X24066780Y34183676D01*
X23066780Y33850342D02*
X23066780Y33231295D01*
X23447733Y33564628D01*
X23447733Y33421771D01*
X23495352Y33326533D01*
X23542971Y33278914D01*
X23638209Y33231295D01*
X23876304Y33231295D01*
X23971542Y33278914D01*
X24019161Y33326533D01*
X24066780Y33421771D01*
X24066780Y33707485D01*
X24019161Y33802723D01*
X23971542Y33850342D01*
%TO.C,C32*%
X80652857Y35108857D02*
X80700476Y35061238D01*
X80843333Y35013619D01*
X80938571Y35013619D01*
X81081428Y35061238D01*
X81176666Y35156476D01*
X81224285Y35251714D01*
X81271904Y35442190D01*
X81271904Y35585047D01*
X81224285Y35775523D01*
X81176666Y35870761D01*
X81081428Y35966000D01*
X80938571Y36013619D01*
X80843333Y36013619D01*
X80700476Y35966000D01*
X80652857Y35918380D01*
X80319523Y36013619D02*
X79700476Y36013619D01*
X80033809Y35632666D01*
X79890952Y35632666D01*
X79795714Y35585047D01*
X79748095Y35537428D01*
X79700476Y35442190D01*
X79700476Y35204095D01*
X79748095Y35108857D01*
X79795714Y35061238D01*
X79890952Y35013619D01*
X80176666Y35013619D01*
X80271904Y35061238D01*
X80319523Y35108857D01*
X79319523Y35918380D02*
X79271904Y35966000D01*
X79176666Y36013619D01*
X78938571Y36013619D01*
X78843333Y35966000D01*
X78795714Y35918380D01*
X78748095Y35823142D01*
X78748095Y35727904D01*
X78795714Y35585047D01*
X79367142Y35013619D01*
X78748095Y35013619D01*
%TO.C,C54*%
X79128857Y30470857D02*
X79176476Y30423238D01*
X79319333Y30375619D01*
X79414571Y30375619D01*
X79557428Y30423238D01*
X79652666Y30518476D01*
X79700285Y30613714D01*
X79747904Y30804190D01*
X79747904Y30947047D01*
X79700285Y31137523D01*
X79652666Y31232761D01*
X79557428Y31328000D01*
X79414571Y31375619D01*
X79319333Y31375619D01*
X79176476Y31328000D01*
X79128857Y31280380D01*
X78224095Y31375619D02*
X78700285Y31375619D01*
X78747904Y30899428D01*
X78700285Y30947047D01*
X78605047Y30994666D01*
X78366952Y30994666D01*
X78271714Y30947047D01*
X78224095Y30899428D01*
X78176476Y30804190D01*
X78176476Y30566095D01*
X78224095Y30470857D01*
X78271714Y30423238D01*
X78366952Y30375619D01*
X78605047Y30375619D01*
X78700285Y30423238D01*
X78747904Y30470857D01*
X77319333Y31042285D02*
X77319333Y30375619D01*
X77557428Y31423238D02*
X77795523Y30708952D01*
X77176476Y30708952D01*
%TO.C,R15*%
X29078157Y35615619D02*
X29411490Y36091809D01*
X29649585Y35615619D02*
X29649585Y36615619D01*
X29268633Y36615619D01*
X29173395Y36568000D01*
X29125776Y36520380D01*
X29078157Y36425142D01*
X29078157Y36282285D01*
X29125776Y36187047D01*
X29173395Y36139428D01*
X29268633Y36091809D01*
X29649585Y36091809D01*
X28125776Y35615619D02*
X28697204Y35615619D01*
X28411490Y35615619D02*
X28411490Y36615619D01*
X28506728Y36472761D01*
X28601966Y36377523D01*
X28697204Y36329904D01*
X27221014Y36615619D02*
X27697204Y36615619D01*
X27744823Y36139428D01*
X27697204Y36187047D01*
X27601966Y36234666D01*
X27363871Y36234666D01*
X27268633Y36187047D01*
X27221014Y36139428D01*
X27173395Y36044190D01*
X27173395Y35806095D01*
X27221014Y35710857D01*
X27268633Y35663238D01*
X27363871Y35615619D01*
X27601966Y35615619D01*
X27697204Y35663238D01*
X27744823Y35710857D01*
%TO.C,R19*%
X25534857Y35404819D02*
X25868190Y35881009D01*
X26106285Y35404819D02*
X26106285Y36404819D01*
X25725333Y36404819D01*
X25630095Y36357200D01*
X25582476Y36309580D01*
X25534857Y36214342D01*
X25534857Y36071485D01*
X25582476Y35976247D01*
X25630095Y35928628D01*
X25725333Y35881009D01*
X26106285Y35881009D01*
X24582476Y35404819D02*
X25153904Y35404819D01*
X24868190Y35404819D02*
X24868190Y36404819D01*
X24963428Y36261961D01*
X25058666Y36166723D01*
X25153904Y36119104D01*
X24106285Y35404819D02*
X23915809Y35404819D01*
X23820571Y35452438D01*
X23772952Y35500057D01*
X23677714Y35642914D01*
X23630095Y35833390D01*
X23630095Y36214342D01*
X23677714Y36309580D01*
X23725333Y36357200D01*
X23820571Y36404819D01*
X24011047Y36404819D01*
X24106285Y36357200D01*
X24153904Y36309580D01*
X24201523Y36214342D01*
X24201523Y35976247D01*
X24153904Y35881009D01*
X24106285Y35833390D01*
X24011047Y35785771D01*
X23820571Y35785771D01*
X23725333Y35833390D01*
X23677714Y35881009D01*
X23630095Y35976247D01*
%TO.C,R22*%
X21877257Y35404819D02*
X22210590Y35881009D01*
X22448685Y35404819D02*
X22448685Y36404819D01*
X22067733Y36404819D01*
X21972495Y36357200D01*
X21924876Y36309580D01*
X21877257Y36214342D01*
X21877257Y36071485D01*
X21924876Y35976247D01*
X21972495Y35928628D01*
X22067733Y35881009D01*
X22448685Y35881009D01*
X21496304Y36309580D02*
X21448685Y36357200D01*
X21353447Y36404819D01*
X21115352Y36404819D01*
X21020114Y36357200D01*
X20972495Y36309580D01*
X20924876Y36214342D01*
X20924876Y36119104D01*
X20972495Y35976247D01*
X21543923Y35404819D01*
X20924876Y35404819D01*
X20543923Y36309580D02*
X20496304Y36357200D01*
X20401066Y36404819D01*
X20162971Y36404819D01*
X20067733Y36357200D01*
X20020114Y36309580D01*
X19972495Y36214342D01*
X19972495Y36119104D01*
X20020114Y35976247D01*
X20591542Y35404819D01*
X19972495Y35404819D01*
%TO.C,M8*%
X19081523Y7547619D02*
X19081523Y8547619D01*
X18748190Y7833333D01*
X18414857Y8547619D01*
X18414857Y7547619D01*
X17795809Y8119047D02*
X17891047Y8166666D01*
X17938666Y8214285D01*
X17986285Y8309523D01*
X17986285Y8357142D01*
X17938666Y8452380D01*
X17891047Y8500000D01*
X17795809Y8547619D01*
X17605333Y8547619D01*
X17510095Y8500000D01*
X17462476Y8452380D01*
X17414857Y8357142D01*
X17414857Y8309523D01*
X17462476Y8214285D01*
X17510095Y8166666D01*
X17605333Y8119047D01*
X17795809Y8119047D01*
X17891047Y8071428D01*
X17938666Y8023809D01*
X17986285Y7928571D01*
X17986285Y7738095D01*
X17938666Y7642857D01*
X17891047Y7595238D01*
X17795809Y7547619D01*
X17605333Y7547619D01*
X17510095Y7595238D01*
X17462476Y7642857D01*
X17414857Y7738095D01*
X17414857Y7928571D01*
X17462476Y8023809D01*
X17510095Y8071428D01*
X17605333Y8119047D01*
%TO.C,J3*%
X74863880Y23828333D02*
X75578166Y23828333D01*
X75721023Y23875952D01*
X75816261Y23971190D01*
X75863880Y24114047D01*
X75863880Y24209285D01*
X74863880Y23447380D02*
X74863880Y22828333D01*
X75244833Y23161666D01*
X75244833Y23018809D01*
X75292452Y22923571D01*
X75340071Y22875952D01*
X75435309Y22828333D01*
X75673404Y22828333D01*
X75768642Y22875952D01*
X75816261Y22923571D01*
X75863880Y23018809D01*
X75863880Y23304523D01*
X75816261Y23399761D01*
X75768642Y23447380D01*
%TO.C,Q2*%
X47847238Y6424380D02*
X47942476Y6472000D01*
X48037714Y6567238D01*
X48180571Y6710095D01*
X48275809Y6757714D01*
X48371047Y6757714D01*
X48323428Y6519619D02*
X48418666Y6567238D01*
X48513904Y6662476D01*
X48561523Y6852952D01*
X48561523Y7186285D01*
X48513904Y7376761D01*
X48418666Y7472000D01*
X48323428Y7519619D01*
X48132952Y7519619D01*
X48037714Y7472000D01*
X47942476Y7376761D01*
X47894857Y7186285D01*
X47894857Y6852952D01*
X47942476Y6662476D01*
X48037714Y6567238D01*
X48132952Y6519619D01*
X48323428Y6519619D01*
X47513904Y7424380D02*
X47466285Y7472000D01*
X47371047Y7519619D01*
X47132952Y7519619D01*
X47037714Y7472000D01*
X46990095Y7424380D01*
X46942476Y7329142D01*
X46942476Y7233904D01*
X46990095Y7091047D01*
X47561523Y6519619D01*
X46942476Y6519619D01*
%TO.C,C58*%
X14765257Y15652457D02*
X14812876Y15604838D01*
X14955733Y15557219D01*
X15050971Y15557219D01*
X15193828Y15604838D01*
X15289066Y15700076D01*
X15336685Y15795314D01*
X15384304Y15985790D01*
X15384304Y16128647D01*
X15336685Y16319123D01*
X15289066Y16414361D01*
X15193828Y16509600D01*
X15050971Y16557219D01*
X14955733Y16557219D01*
X14812876Y16509600D01*
X14765257Y16461980D01*
X13860495Y16557219D02*
X14336685Y16557219D01*
X14384304Y16081028D01*
X14336685Y16128647D01*
X14241447Y16176266D01*
X14003352Y16176266D01*
X13908114Y16128647D01*
X13860495Y16081028D01*
X13812876Y15985790D01*
X13812876Y15747695D01*
X13860495Y15652457D01*
X13908114Y15604838D01*
X14003352Y15557219D01*
X14241447Y15557219D01*
X14336685Y15604838D01*
X14384304Y15652457D01*
X13241447Y16128647D02*
X13336685Y16176266D01*
X13384304Y16223885D01*
X13431923Y16319123D01*
X13431923Y16366742D01*
X13384304Y16461980D01*
X13336685Y16509600D01*
X13241447Y16557219D01*
X13050971Y16557219D01*
X12955733Y16509600D01*
X12908114Y16461980D01*
X12860495Y16366742D01*
X12860495Y16319123D01*
X12908114Y16223885D01*
X12955733Y16176266D01*
X13050971Y16128647D01*
X13241447Y16128647D01*
X13336685Y16081028D01*
X13384304Y16033409D01*
X13431923Y15938171D01*
X13431923Y15747695D01*
X13384304Y15652457D01*
X13336685Y15604838D01*
X13241447Y15557219D01*
X13050971Y15557219D01*
X12955733Y15604838D01*
X12908114Y15652457D01*
X12860495Y15747695D01*
X12860495Y15938171D01*
X12908114Y16033409D01*
X12955733Y16081028D01*
X13050971Y16128647D01*
%TO.C,R39*%
X7094457Y18706819D02*
X7427790Y19183009D01*
X7665885Y18706819D02*
X7665885Y19706819D01*
X7284933Y19706819D01*
X7189695Y19659200D01*
X7142076Y19611580D01*
X7094457Y19516342D01*
X7094457Y19373485D01*
X7142076Y19278247D01*
X7189695Y19230628D01*
X7284933Y19183009D01*
X7665885Y19183009D01*
X6761123Y19706819D02*
X6142076Y19706819D01*
X6475409Y19325866D01*
X6332552Y19325866D01*
X6237314Y19278247D01*
X6189695Y19230628D01*
X6142076Y19135390D01*
X6142076Y18897295D01*
X6189695Y18802057D01*
X6237314Y18754438D01*
X6332552Y18706819D01*
X6618266Y18706819D01*
X6713504Y18754438D01*
X6761123Y18802057D01*
X5665885Y18706819D02*
X5475409Y18706819D01*
X5380171Y18754438D01*
X5332552Y18802057D01*
X5237314Y18944914D01*
X5189695Y19135390D01*
X5189695Y19516342D01*
X5237314Y19611580D01*
X5284933Y19659200D01*
X5380171Y19706819D01*
X5570647Y19706819D01*
X5665885Y19659200D01*
X5713504Y19611580D01*
X5761123Y19516342D01*
X5761123Y19278247D01*
X5713504Y19183009D01*
X5665885Y19135390D01*
X5570647Y19087771D01*
X5380171Y19087771D01*
X5284933Y19135390D01*
X5237314Y19183009D01*
X5189695Y19278247D01*
%TO.C,R37*%
X58458380Y9786857D02*
X57982190Y10120190D01*
X58458380Y10358285D02*
X57458380Y10358285D01*
X57458380Y9977333D01*
X57506000Y9882095D01*
X57553619Y9834476D01*
X57648857Y9786857D01*
X57791714Y9786857D01*
X57886952Y9834476D01*
X57934571Y9882095D01*
X57982190Y9977333D01*
X57982190Y10358285D01*
X57458380Y9453523D02*
X57458380Y8834476D01*
X57839333Y9167809D01*
X57839333Y9024952D01*
X57886952Y8929714D01*
X57934571Y8882095D01*
X58029809Y8834476D01*
X58267904Y8834476D01*
X58363142Y8882095D01*
X58410761Y8929714D01*
X58458380Y9024952D01*
X58458380Y9310666D01*
X58410761Y9405904D01*
X58363142Y9453523D01*
X57458380Y8501142D02*
X57458380Y7834476D01*
X58458380Y8263047D01*
%TO.C,C59*%
X10407942Y38031657D02*
X10455561Y38079276D01*
X10503180Y38222133D01*
X10503180Y38317371D01*
X10455561Y38460228D01*
X10360323Y38555466D01*
X10265085Y38603085D01*
X10074609Y38650704D01*
X9931752Y38650704D01*
X9741276Y38603085D01*
X9646038Y38555466D01*
X9550800Y38460228D01*
X9503180Y38317371D01*
X9503180Y38222133D01*
X9550800Y38079276D01*
X9598419Y38031657D01*
X9503180Y37126895D02*
X9503180Y37603085D01*
X9979371Y37650704D01*
X9931752Y37603085D01*
X9884133Y37507847D01*
X9884133Y37269752D01*
X9931752Y37174514D01*
X9979371Y37126895D01*
X10074609Y37079276D01*
X10312704Y37079276D01*
X10407942Y37126895D01*
X10455561Y37174514D01*
X10503180Y37269752D01*
X10503180Y37507847D01*
X10455561Y37603085D01*
X10407942Y37650704D01*
X10503180Y36603085D02*
X10503180Y36412609D01*
X10455561Y36317371D01*
X10407942Y36269752D01*
X10265085Y36174514D01*
X10074609Y36126895D01*
X9693657Y36126895D01*
X9598419Y36174514D01*
X9550800Y36222133D01*
X9503180Y36317371D01*
X9503180Y36507847D01*
X9550800Y36603085D01*
X9598419Y36650704D01*
X9693657Y36698323D01*
X9931752Y36698323D01*
X10026990Y36650704D01*
X10074609Y36603085D01*
X10122228Y36507847D01*
X10122228Y36317371D01*
X10074609Y36222133D01*
X10026990Y36174514D01*
X9931752Y36126895D01*
%TO.C,J1*%
X74863880Y39068333D02*
X75578166Y39068333D01*
X75721023Y39115952D01*
X75816261Y39211190D01*
X75863880Y39354047D01*
X75863880Y39449285D01*
X75863880Y38068333D02*
X75863880Y38639761D01*
X75863880Y38354047D02*
X74863880Y38354047D01*
X75006738Y38449285D01*
X75101976Y38544523D01*
X75149595Y38639761D01*
%TO.C,R42*%
X53632380Y9786857D02*
X53156190Y10120190D01*
X53632380Y10358285D02*
X52632380Y10358285D01*
X52632380Y9977333D01*
X52680000Y9882095D01*
X52727619Y9834476D01*
X52822857Y9786857D01*
X52965714Y9786857D01*
X53060952Y9834476D01*
X53108571Y9882095D01*
X53156190Y9977333D01*
X53156190Y10358285D01*
X52965714Y8929714D02*
X53632380Y8929714D01*
X52584761Y9167809D02*
X53299047Y9405904D01*
X53299047Y8786857D01*
X52727619Y8453523D02*
X52680000Y8405904D01*
X52632380Y8310666D01*
X52632380Y8072571D01*
X52680000Y7977333D01*
X52727619Y7929714D01*
X52822857Y7882095D01*
X52918095Y7882095D01*
X53060952Y7929714D01*
X53632380Y8501142D01*
X53632380Y7882095D01*
%TO.C,R44*%
X53952380Y8770857D02*
X53476190Y9104190D01*
X53952380Y9342285D02*
X52952380Y9342285D01*
X52952380Y8961333D01*
X53000000Y8866095D01*
X53047619Y8818476D01*
X53142857Y8770857D01*
X53285714Y8770857D01*
X53380952Y8818476D01*
X53428571Y8866095D01*
X53476190Y8961333D01*
X53476190Y9342285D01*
X53285714Y7913714D02*
X53952380Y7913714D01*
X52904761Y8151809D02*
X53619047Y8389904D01*
X53619047Y7770857D01*
X53285714Y6961333D02*
X53952380Y6961333D01*
X52904761Y7199428D02*
X53619047Y7437523D01*
X53619047Y6818476D01*
%TO.C,R28*%
X71224380Y10294857D02*
X70748190Y10628190D01*
X71224380Y10866285D02*
X70224380Y10866285D01*
X70224380Y10485333D01*
X70272000Y10390095D01*
X70319619Y10342476D01*
X70414857Y10294857D01*
X70557714Y10294857D01*
X70652952Y10342476D01*
X70700571Y10390095D01*
X70748190Y10485333D01*
X70748190Y10866285D01*
X70319619Y9913904D02*
X70272000Y9866285D01*
X70224380Y9771047D01*
X70224380Y9532952D01*
X70272000Y9437714D01*
X70319619Y9390095D01*
X70414857Y9342476D01*
X70510095Y9342476D01*
X70652952Y9390095D01*
X71224380Y9961523D01*
X71224380Y9342476D01*
X70652952Y8771047D02*
X70605333Y8866285D01*
X70557714Y8913904D01*
X70462476Y8961523D01*
X70414857Y8961523D01*
X70319619Y8913904D01*
X70272000Y8866285D01*
X70224380Y8771047D01*
X70224380Y8580571D01*
X70272000Y8485333D01*
X70319619Y8437714D01*
X70414857Y8390095D01*
X70462476Y8390095D01*
X70557714Y8437714D01*
X70605333Y8485333D01*
X70652952Y8580571D01*
X70652952Y8771047D01*
X70700571Y8866285D01*
X70748190Y8913904D01*
X70843428Y8961523D01*
X71033904Y8961523D01*
X71129142Y8913904D01*
X71176761Y8866285D01*
X71224380Y8771047D01*
X71224380Y8580571D01*
X71176761Y8485333D01*
X71129142Y8437714D01*
X71033904Y8390095D01*
X70843428Y8390095D01*
X70748190Y8437714D01*
X70700571Y8485333D01*
X70652952Y8580571D01*
%TO.C,C55*%
X18067257Y14672057D02*
X18114876Y14624438D01*
X18257733Y14576819D01*
X18352971Y14576819D01*
X18495828Y14624438D01*
X18591066Y14719676D01*
X18638685Y14814914D01*
X18686304Y15005390D01*
X18686304Y15148247D01*
X18638685Y15338723D01*
X18591066Y15433961D01*
X18495828Y15529200D01*
X18352971Y15576819D01*
X18257733Y15576819D01*
X18114876Y15529200D01*
X18067257Y15481580D01*
X17162495Y15576819D02*
X17638685Y15576819D01*
X17686304Y15100628D01*
X17638685Y15148247D01*
X17543447Y15195866D01*
X17305352Y15195866D01*
X17210114Y15148247D01*
X17162495Y15100628D01*
X17114876Y15005390D01*
X17114876Y14767295D01*
X17162495Y14672057D01*
X17210114Y14624438D01*
X17305352Y14576819D01*
X17543447Y14576819D01*
X17638685Y14624438D01*
X17686304Y14672057D01*
X16210114Y15576819D02*
X16686304Y15576819D01*
X16733923Y15100628D01*
X16686304Y15148247D01*
X16591066Y15195866D01*
X16352971Y15195866D01*
X16257733Y15148247D01*
X16210114Y15100628D01*
X16162495Y15005390D01*
X16162495Y14767295D01*
X16210114Y14672057D01*
X16257733Y14624438D01*
X16352971Y14576819D01*
X16591066Y14576819D01*
X16686304Y14624438D01*
X16733923Y14672057D01*
%TO.C,D6*%
X82780095Y28727619D02*
X82780095Y29727619D01*
X82542000Y29727619D01*
X82399142Y29680000D01*
X82303904Y29584761D01*
X82256285Y29489523D01*
X82208666Y29299047D01*
X82208666Y29156190D01*
X82256285Y28965714D01*
X82303904Y28870476D01*
X82399142Y28775238D01*
X82542000Y28727619D01*
X82780095Y28727619D01*
X81351523Y29727619D02*
X81542000Y29727619D01*
X81637238Y29680000D01*
X81684857Y29632380D01*
X81780095Y29489523D01*
X81827714Y29299047D01*
X81827714Y28918095D01*
X81780095Y28822857D01*
X81732476Y28775238D01*
X81637238Y28727619D01*
X81446761Y28727619D01*
X81351523Y28775238D01*
X81303904Y28822857D01*
X81256285Y28918095D01*
X81256285Y29156190D01*
X81303904Y29251428D01*
X81351523Y29299047D01*
X81446761Y29346666D01*
X81637238Y29346666D01*
X81732476Y29299047D01*
X81780095Y29251428D01*
X81827714Y29156190D01*
%TO.C,C48*%
X78175142Y18676857D02*
X78222761Y18724476D01*
X78270380Y18867333D01*
X78270380Y18962571D01*
X78222761Y19105428D01*
X78127523Y19200666D01*
X78032285Y19248285D01*
X77841809Y19295904D01*
X77698952Y19295904D01*
X77508476Y19248285D01*
X77413238Y19200666D01*
X77318000Y19105428D01*
X77270380Y18962571D01*
X77270380Y18867333D01*
X77318000Y18724476D01*
X77365619Y18676857D01*
X77603714Y17819714D02*
X78270380Y17819714D01*
X77222761Y18057809D02*
X77937047Y18295904D01*
X77937047Y17676857D01*
X77698952Y17153047D02*
X77651333Y17248285D01*
X77603714Y17295904D01*
X77508476Y17343523D01*
X77460857Y17343523D01*
X77365619Y17295904D01*
X77318000Y17248285D01*
X77270380Y17153047D01*
X77270380Y16962571D01*
X77318000Y16867333D01*
X77365619Y16819714D01*
X77460857Y16772095D01*
X77508476Y16772095D01*
X77603714Y16819714D01*
X77651333Y16867333D01*
X77698952Y16962571D01*
X77698952Y17153047D01*
X77746571Y17248285D01*
X77794190Y17295904D01*
X77889428Y17343523D01*
X78079904Y17343523D01*
X78175142Y17295904D01*
X78222761Y17248285D01*
X78270380Y17153047D01*
X78270380Y16962571D01*
X78222761Y16867333D01*
X78175142Y16819714D01*
X78079904Y16772095D01*
X77889428Y16772095D01*
X77794190Y16819714D01*
X77746571Y16867333D01*
X77698952Y16962571D01*
%TO.C,Q1*%
X6834419Y37738038D02*
X6786800Y37833276D01*
X6691561Y37928514D01*
X6548704Y38071371D01*
X6501085Y38166609D01*
X6501085Y38261847D01*
X6739180Y38214228D02*
X6691561Y38309466D01*
X6596323Y38404704D01*
X6405847Y38452323D01*
X6072514Y38452323D01*
X5882038Y38404704D01*
X5786800Y38309466D01*
X5739180Y38214228D01*
X5739180Y38023752D01*
X5786800Y37928514D01*
X5882038Y37833276D01*
X6072514Y37785657D01*
X6405847Y37785657D01*
X6596323Y37833276D01*
X6691561Y37928514D01*
X6739180Y38023752D01*
X6739180Y38214228D01*
X6739180Y36833276D02*
X6739180Y37404704D01*
X6739180Y37118990D02*
X5739180Y37118990D01*
X5882038Y37214228D01*
X5977276Y37309466D01*
X6024895Y37404704D01*
%TO.C,R41*%
X15191980Y39860457D02*
X14715790Y40193790D01*
X15191980Y40431885D02*
X14191980Y40431885D01*
X14191980Y40050933D01*
X14239600Y39955695D01*
X14287219Y39908076D01*
X14382457Y39860457D01*
X14525314Y39860457D01*
X14620552Y39908076D01*
X14668171Y39955695D01*
X14715790Y40050933D01*
X14715790Y40431885D01*
X14525314Y39003314D02*
X15191980Y39003314D01*
X14144361Y39241409D02*
X14858647Y39479504D01*
X14858647Y38860457D01*
X15191980Y37955695D02*
X15191980Y38527123D01*
X15191980Y38241409D02*
X14191980Y38241409D01*
X14334838Y38336647D01*
X14430076Y38431885D01*
X14477695Y38527123D01*
D11*
%TO.C,J4*%
X81509380Y9000833D02*
X82223666Y9000833D01*
X82366523Y9048452D01*
X82461761Y9143690D01*
X82509380Y9286547D01*
X82509380Y9381785D01*
X81842714Y8096071D02*
X82509380Y8096071D01*
X81461761Y8334166D02*
X82176047Y8572261D01*
X82176047Y7953214D01*
D10*
%TO.C,R27*%
X69984857Y15709619D02*
X70318190Y16185809D01*
X70556285Y15709619D02*
X70556285Y16709619D01*
X70175333Y16709619D01*
X70080095Y16662000D01*
X70032476Y16614380D01*
X69984857Y16519142D01*
X69984857Y16376285D01*
X70032476Y16281047D01*
X70080095Y16233428D01*
X70175333Y16185809D01*
X70556285Y16185809D01*
X69603904Y16614380D02*
X69556285Y16662000D01*
X69461047Y16709619D01*
X69222952Y16709619D01*
X69127714Y16662000D01*
X69080095Y16614380D01*
X69032476Y16519142D01*
X69032476Y16423904D01*
X69080095Y16281047D01*
X69651523Y15709619D01*
X69032476Y15709619D01*
X68699142Y16709619D02*
X68032476Y16709619D01*
X68461047Y15709619D01*
%TO.C,R34*%
X82938857Y21993619D02*
X83272190Y22469809D01*
X83510285Y21993619D02*
X83510285Y22993619D01*
X83129333Y22993619D01*
X83034095Y22946000D01*
X82986476Y22898380D01*
X82938857Y22803142D01*
X82938857Y22660285D01*
X82986476Y22565047D01*
X83034095Y22517428D01*
X83129333Y22469809D01*
X83510285Y22469809D01*
X82605523Y22993619D02*
X81986476Y22993619D01*
X82319809Y22612666D01*
X82176952Y22612666D01*
X82081714Y22565047D01*
X82034095Y22517428D01*
X81986476Y22422190D01*
X81986476Y22184095D01*
X82034095Y22088857D01*
X82081714Y22041238D01*
X82176952Y21993619D01*
X82462666Y21993619D01*
X82557904Y22041238D01*
X82605523Y22088857D01*
X81129333Y22660285D02*
X81129333Y21993619D01*
X81367428Y23041238D02*
X81605523Y22326952D01*
X80986476Y22326952D01*
%TO.C,L2*%
X50618380Y25312666D02*
X50618380Y25788857D01*
X49618380Y25788857D01*
X49713619Y25026952D02*
X49666000Y24979333D01*
X49618380Y24884095D01*
X49618380Y24646000D01*
X49666000Y24550761D01*
X49713619Y24503142D01*
X49808857Y24455523D01*
X49904095Y24455523D01*
X50046952Y24503142D01*
X50618380Y25074571D01*
X50618380Y24455523D01*
%TO.C,R43*%
X59032380Y8770857D02*
X58556190Y9104190D01*
X59032380Y9342285D02*
X58032380Y9342285D01*
X58032380Y8961333D01*
X58080000Y8866095D01*
X58127619Y8818476D01*
X58222857Y8770857D01*
X58365714Y8770857D01*
X58460952Y8818476D01*
X58508571Y8866095D01*
X58556190Y8961333D01*
X58556190Y9342285D01*
X58365714Y7913714D02*
X59032380Y7913714D01*
X57984761Y8151809D02*
X58699047Y8389904D01*
X58699047Y7770857D01*
X58032380Y7485142D02*
X58032380Y6866095D01*
X58413333Y7199428D01*
X58413333Y7056571D01*
X58460952Y6961333D01*
X58508571Y6913714D01*
X58603809Y6866095D01*
X58841904Y6866095D01*
X58937142Y6913714D01*
X58984761Y6961333D01*
X59032380Y7056571D01*
X59032380Y7342285D01*
X58984761Y7437523D01*
X58937142Y7485142D01*
%TO.C,R30*%
X88272857Y5991619D02*
X88606190Y6467809D01*
X88844285Y5991619D02*
X88844285Y6991619D01*
X88463333Y6991619D01*
X88368095Y6944000D01*
X88320476Y6896380D01*
X88272857Y6801142D01*
X88272857Y6658285D01*
X88320476Y6563047D01*
X88368095Y6515428D01*
X88463333Y6467809D01*
X88844285Y6467809D01*
X87939523Y6991619D02*
X87320476Y6991619D01*
X87653809Y6610666D01*
X87510952Y6610666D01*
X87415714Y6563047D01*
X87368095Y6515428D01*
X87320476Y6420190D01*
X87320476Y6182095D01*
X87368095Y6086857D01*
X87415714Y6039238D01*
X87510952Y5991619D01*
X87796666Y5991619D01*
X87891904Y6039238D01*
X87939523Y6086857D01*
X86701428Y6991619D02*
X86606190Y6991619D01*
X86510952Y6944000D01*
X86463333Y6896380D01*
X86415714Y6801142D01*
X86368095Y6610666D01*
X86368095Y6372571D01*
X86415714Y6182095D01*
X86463333Y6086857D01*
X86510952Y6039238D01*
X86606190Y5991619D01*
X86701428Y5991619D01*
X86796666Y6039238D01*
X86844285Y6086857D01*
X86891904Y6182095D01*
X86939523Y6372571D01*
X86939523Y6610666D01*
X86891904Y6801142D01*
X86844285Y6896380D01*
X86796666Y6944000D01*
X86701428Y6991619D01*
%TO.C,C57*%
X30931142Y12885657D02*
X30978761Y12933276D01*
X31026380Y13076133D01*
X31026380Y13171371D01*
X30978761Y13314228D01*
X30883523Y13409466D01*
X30788285Y13457085D01*
X30597809Y13504704D01*
X30454952Y13504704D01*
X30264476Y13457085D01*
X30169238Y13409466D01*
X30074000Y13314228D01*
X30026380Y13171371D01*
X30026380Y13076133D01*
X30074000Y12933276D01*
X30121619Y12885657D01*
X30026380Y11980895D02*
X30026380Y12457085D01*
X30502571Y12504704D01*
X30454952Y12457085D01*
X30407333Y12361847D01*
X30407333Y12123752D01*
X30454952Y12028514D01*
X30502571Y11980895D01*
X30597809Y11933276D01*
X30835904Y11933276D01*
X30931142Y11980895D01*
X30978761Y12028514D01*
X31026380Y12123752D01*
X31026380Y12361847D01*
X30978761Y12457085D01*
X30931142Y12504704D01*
X30026380Y11599942D02*
X30026380Y10933276D01*
X31026380Y11361847D01*
%TO.C,U7*%
X78993904Y9831619D02*
X78993904Y9022095D01*
X78946285Y8926857D01*
X78898666Y8879238D01*
X78803428Y8831619D01*
X78612952Y8831619D01*
X78517714Y8879238D01*
X78470095Y8926857D01*
X78422476Y9022095D01*
X78422476Y9831619D01*
X78041523Y9831619D02*
X77374857Y9831619D01*
X77803428Y8831619D01*
%TO.C,JP1*%
X83129333Y19829619D02*
X83129333Y19115333D01*
X83176952Y18972476D01*
X83272190Y18877238D01*
X83415047Y18829619D01*
X83510285Y18829619D01*
X82653142Y18829619D02*
X82653142Y19829619D01*
X82272190Y19829619D01*
X82176952Y19782000D01*
X82129333Y19734380D01*
X82081714Y19639142D01*
X82081714Y19496285D01*
X82129333Y19401047D01*
X82176952Y19353428D01*
X82272190Y19305809D01*
X82653142Y19305809D01*
X81129333Y18829619D02*
X81700761Y18829619D01*
X81415047Y18829619D02*
X81415047Y19829619D01*
X81510285Y19686761D01*
X81605523Y19591523D01*
X81700761Y19543904D01*
%TO.C,R40*%
X30213580Y37879257D02*
X29737390Y38212590D01*
X30213580Y38450685D02*
X29213580Y38450685D01*
X29213580Y38069733D01*
X29261200Y37974495D01*
X29308819Y37926876D01*
X29404057Y37879257D01*
X29546914Y37879257D01*
X29642152Y37926876D01*
X29689771Y37974495D01*
X29737390Y38069733D01*
X29737390Y38450685D01*
X29546914Y37022114D02*
X30213580Y37022114D01*
X29165961Y37260209D02*
X29880247Y37498304D01*
X29880247Y36879257D01*
X29213580Y36307828D02*
X29213580Y36212590D01*
X29261200Y36117352D01*
X29308819Y36069733D01*
X29404057Y36022114D01*
X29594533Y35974495D01*
X29832628Y35974495D01*
X30023104Y36022114D01*
X30118342Y36069733D01*
X30165961Y36117352D01*
X30213580Y36212590D01*
X30213580Y36307828D01*
X30165961Y36403066D01*
X30118342Y36450685D01*
X30023104Y36498304D01*
X29832628Y36545923D01*
X29594533Y36545923D01*
X29404057Y36498304D01*
X29308819Y36450685D01*
X29261200Y36403066D01*
X29213580Y36307828D01*
%TO.C,R29*%
X66144380Y10294857D02*
X65668190Y10628190D01*
X66144380Y10866285D02*
X65144380Y10866285D01*
X65144380Y10485333D01*
X65192000Y10390095D01*
X65239619Y10342476D01*
X65334857Y10294857D01*
X65477714Y10294857D01*
X65572952Y10342476D01*
X65620571Y10390095D01*
X65668190Y10485333D01*
X65668190Y10866285D01*
X65239619Y9913904D02*
X65192000Y9866285D01*
X65144380Y9771047D01*
X65144380Y9532952D01*
X65192000Y9437714D01*
X65239619Y9390095D01*
X65334857Y9342476D01*
X65430095Y9342476D01*
X65572952Y9390095D01*
X66144380Y9961523D01*
X66144380Y9342476D01*
X66144380Y8866285D02*
X66144380Y8675809D01*
X66096761Y8580571D01*
X66049142Y8532952D01*
X65906285Y8437714D01*
X65715809Y8390095D01*
X65334857Y8390095D01*
X65239619Y8437714D01*
X65192000Y8485333D01*
X65144380Y8580571D01*
X65144380Y8771047D01*
X65192000Y8866285D01*
X65239619Y8913904D01*
X65334857Y8961523D01*
X65572952Y8961523D01*
X65668190Y8913904D01*
X65715809Y8866285D01*
X65763428Y8771047D01*
X65763428Y8580571D01*
X65715809Y8485333D01*
X65668190Y8437714D01*
X65572952Y8390095D01*
%TO.C,C56*%
X29102342Y12885657D02*
X29149961Y12933276D01*
X29197580Y13076133D01*
X29197580Y13171371D01*
X29149961Y13314228D01*
X29054723Y13409466D01*
X28959485Y13457085D01*
X28769009Y13504704D01*
X28626152Y13504704D01*
X28435676Y13457085D01*
X28340438Y13409466D01*
X28245200Y13314228D01*
X28197580Y13171371D01*
X28197580Y13076133D01*
X28245200Y12933276D01*
X28292819Y12885657D01*
X28197580Y11980895D02*
X28197580Y12457085D01*
X28673771Y12504704D01*
X28626152Y12457085D01*
X28578533Y12361847D01*
X28578533Y12123752D01*
X28626152Y12028514D01*
X28673771Y11980895D01*
X28769009Y11933276D01*
X29007104Y11933276D01*
X29102342Y11980895D01*
X29149961Y12028514D01*
X29197580Y12123752D01*
X29197580Y12361847D01*
X29149961Y12457085D01*
X29102342Y12504704D01*
X28197580Y11076133D02*
X28197580Y11266609D01*
X28245200Y11361847D01*
X28292819Y11409466D01*
X28435676Y11504704D01*
X28626152Y11552323D01*
X29007104Y11552323D01*
X29102342Y11504704D01*
X29149961Y11457085D01*
X29197580Y11361847D01*
X29197580Y11171371D01*
X29149961Y11076133D01*
X29102342Y11028514D01*
X29007104Y10980895D01*
X28769009Y10980895D01*
X28673771Y11028514D01*
X28626152Y11076133D01*
X28578533Y11171371D01*
X28578533Y11361847D01*
X28626152Y11457085D01*
X28673771Y11504704D01*
X28769009Y11552323D01*
%TO.C,C49*%
X65158857Y24694857D02*
X65206476Y24647238D01*
X65349333Y24599619D01*
X65444571Y24599619D01*
X65587428Y24647238D01*
X65682666Y24742476D01*
X65730285Y24837714D01*
X65777904Y25028190D01*
X65777904Y25171047D01*
X65730285Y25361523D01*
X65682666Y25456761D01*
X65587428Y25552000D01*
X65444571Y25599619D01*
X65349333Y25599619D01*
X65206476Y25552000D01*
X65158857Y25504380D01*
X64301714Y25266285D02*
X64301714Y24599619D01*
X64539809Y25647238D02*
X64777904Y24932952D01*
X64158857Y24932952D01*
X63730285Y24599619D02*
X63539809Y24599619D01*
X63444571Y24647238D01*
X63396952Y24694857D01*
X63301714Y24837714D01*
X63254095Y25028190D01*
X63254095Y25409142D01*
X63301714Y25504380D01*
X63349333Y25552000D01*
X63444571Y25599619D01*
X63635047Y25599619D01*
X63730285Y25552000D01*
X63777904Y25504380D01*
X63825523Y25409142D01*
X63825523Y25171047D01*
X63777904Y25075809D01*
X63730285Y25028190D01*
X63635047Y24980571D01*
X63444571Y24980571D01*
X63349333Y25028190D01*
X63301714Y25075809D01*
X63254095Y25171047D01*
%TO.C,R31*%
X88272857Y3959619D02*
X88606190Y4435809D01*
X88844285Y3959619D02*
X88844285Y4959619D01*
X88463333Y4959619D01*
X88368095Y4912000D01*
X88320476Y4864380D01*
X88272857Y4769142D01*
X88272857Y4626285D01*
X88320476Y4531047D01*
X88368095Y4483428D01*
X88463333Y4435809D01*
X88844285Y4435809D01*
X87939523Y4959619D02*
X87320476Y4959619D01*
X87653809Y4578666D01*
X87510952Y4578666D01*
X87415714Y4531047D01*
X87368095Y4483428D01*
X87320476Y4388190D01*
X87320476Y4150095D01*
X87368095Y4054857D01*
X87415714Y4007238D01*
X87510952Y3959619D01*
X87796666Y3959619D01*
X87891904Y4007238D01*
X87939523Y4054857D01*
X86368095Y3959619D02*
X86939523Y3959619D01*
X86653809Y3959619D02*
X86653809Y4959619D01*
X86749047Y4816761D01*
X86844285Y4721523D01*
X86939523Y4673904D01*
%TO.C,C60*%
X63951142Y29852857D02*
X63998761Y29900476D01*
X64046380Y30043333D01*
X64046380Y30138571D01*
X63998761Y30281428D01*
X63903523Y30376666D01*
X63808285Y30424285D01*
X63617809Y30471904D01*
X63474952Y30471904D01*
X63284476Y30424285D01*
X63189238Y30376666D01*
X63094000Y30281428D01*
X63046380Y30138571D01*
X63046380Y30043333D01*
X63094000Y29900476D01*
X63141619Y29852857D01*
X63046380Y28995714D02*
X63046380Y29186190D01*
X63094000Y29281428D01*
X63141619Y29329047D01*
X63284476Y29424285D01*
X63474952Y29471904D01*
X63855904Y29471904D01*
X63951142Y29424285D01*
X63998761Y29376666D01*
X64046380Y29281428D01*
X64046380Y29090952D01*
X63998761Y28995714D01*
X63951142Y28948095D01*
X63855904Y28900476D01*
X63617809Y28900476D01*
X63522571Y28948095D01*
X63474952Y28995714D01*
X63427333Y29090952D01*
X63427333Y29281428D01*
X63474952Y29376666D01*
X63522571Y29424285D01*
X63617809Y29471904D01*
X63046380Y28281428D02*
X63046380Y28186190D01*
X63094000Y28090952D01*
X63141619Y28043333D01*
X63236857Y27995714D01*
X63427333Y27948095D01*
X63665428Y27948095D01*
X63855904Y27995714D01*
X63951142Y28043333D01*
X63998761Y28090952D01*
X64046380Y28186190D01*
X64046380Y28281428D01*
X63998761Y28376666D01*
X63951142Y28424285D01*
X63855904Y28471904D01*
X63665428Y28519523D01*
X63427333Y28519523D01*
X63236857Y28471904D01*
X63141619Y28424285D01*
X63094000Y28376666D01*
X63046380Y28281428D01*
%TO.C,C38*%
X77159142Y27566857D02*
X77206761Y27614476D01*
X77254380Y27757333D01*
X77254380Y27852571D01*
X77206761Y27995428D01*
X77111523Y28090666D01*
X77016285Y28138285D01*
X76825809Y28185904D01*
X76682952Y28185904D01*
X76492476Y28138285D01*
X76397238Y28090666D01*
X76302000Y27995428D01*
X76254380Y27852571D01*
X76254380Y27757333D01*
X76302000Y27614476D01*
X76349619Y27566857D01*
X76254380Y27233523D02*
X76254380Y26614476D01*
X76635333Y26947809D01*
X76635333Y26804952D01*
X76682952Y26709714D01*
X76730571Y26662095D01*
X76825809Y26614476D01*
X77063904Y26614476D01*
X77159142Y26662095D01*
X77206761Y26709714D01*
X77254380Y26804952D01*
X77254380Y27090666D01*
X77206761Y27185904D01*
X77159142Y27233523D01*
X76682952Y26043047D02*
X76635333Y26138285D01*
X76587714Y26185904D01*
X76492476Y26233523D01*
X76444857Y26233523D01*
X76349619Y26185904D01*
X76302000Y26138285D01*
X76254380Y26043047D01*
X76254380Y25852571D01*
X76302000Y25757333D01*
X76349619Y25709714D01*
X76444857Y25662095D01*
X76492476Y25662095D01*
X76587714Y25709714D01*
X76635333Y25757333D01*
X76682952Y25852571D01*
X76682952Y26043047D01*
X76730571Y26138285D01*
X76778190Y26185904D01*
X76873428Y26233523D01*
X77063904Y26233523D01*
X77159142Y26185904D01*
X77206761Y26138285D01*
X77254380Y26043047D01*
X77254380Y25852571D01*
X77206761Y25757333D01*
X77159142Y25709714D01*
X77063904Y25662095D01*
X76873428Y25662095D01*
X76778190Y25709714D01*
X76730571Y25757333D01*
X76682952Y25852571D01*
%TO.C,Q3*%
X57753238Y6424380D02*
X57848476Y6472000D01*
X57943714Y6567238D01*
X58086571Y6710095D01*
X58181809Y6757714D01*
X58277047Y6757714D01*
X58229428Y6519619D02*
X58324666Y6567238D01*
X58419904Y6662476D01*
X58467523Y6852952D01*
X58467523Y7186285D01*
X58419904Y7376761D01*
X58324666Y7472000D01*
X58229428Y7519619D01*
X58038952Y7519619D01*
X57943714Y7472000D01*
X57848476Y7376761D01*
X57800857Y7186285D01*
X57800857Y6852952D01*
X57848476Y6662476D01*
X57943714Y6567238D01*
X58038952Y6519619D01*
X58229428Y6519619D01*
X57467523Y7519619D02*
X56848476Y7519619D01*
X57181809Y7138666D01*
X57038952Y7138666D01*
X56943714Y7091047D01*
X56896095Y7043428D01*
X56848476Y6948190D01*
X56848476Y6710095D01*
X56896095Y6614857D01*
X56943714Y6567238D01*
X57038952Y6519619D01*
X57324666Y6519619D01*
X57419904Y6567238D01*
X57467523Y6614857D01*
%TO.C,U9*%
X75437904Y21119619D02*
X75437904Y20310095D01*
X75390285Y20214857D01*
X75342666Y20167238D01*
X75247428Y20119619D01*
X75056952Y20119619D01*
X74961714Y20167238D01*
X74914095Y20214857D01*
X74866476Y20310095D01*
X74866476Y21119619D01*
X74342666Y20119619D02*
X74152190Y20119619D01*
X74056952Y20167238D01*
X74009333Y20214857D01*
X73914095Y20357714D01*
X73866476Y20548190D01*
X73866476Y20929142D01*
X73914095Y21024380D01*
X73961714Y21072000D01*
X74056952Y21119619D01*
X74247428Y21119619D01*
X74342666Y21072000D01*
X74390285Y21024380D01*
X74437904Y20929142D01*
X74437904Y20691047D01*
X74390285Y20595809D01*
X74342666Y20548190D01*
X74247428Y20500571D01*
X74056952Y20500571D01*
X73961714Y20548190D01*
X73914095Y20595809D01*
X73866476Y20691047D01*
%TO.C,C46*%
X71825142Y23248857D02*
X71872761Y23296476D01*
X71920380Y23439333D01*
X71920380Y23534571D01*
X71872761Y23677428D01*
X71777523Y23772666D01*
X71682285Y23820285D01*
X71491809Y23867904D01*
X71348952Y23867904D01*
X71158476Y23820285D01*
X71063238Y23772666D01*
X70968000Y23677428D01*
X70920380Y23534571D01*
X70920380Y23439333D01*
X70968000Y23296476D01*
X71015619Y23248857D01*
X71253714Y22391714D02*
X71920380Y22391714D01*
X70872761Y22629809D02*
X71587047Y22867904D01*
X71587047Y22248857D01*
X70920380Y21439333D02*
X70920380Y21629809D01*
X70968000Y21725047D01*
X71015619Y21772666D01*
X71158476Y21867904D01*
X71348952Y21915523D01*
X71729904Y21915523D01*
X71825142Y21867904D01*
X71872761Y21820285D01*
X71920380Y21725047D01*
X71920380Y21534571D01*
X71872761Y21439333D01*
X71825142Y21391714D01*
X71729904Y21344095D01*
X71491809Y21344095D01*
X71396571Y21391714D01*
X71348952Y21439333D01*
X71301333Y21534571D01*
X71301333Y21725047D01*
X71348952Y21820285D01*
X71396571Y21867904D01*
X71491809Y21915523D01*
%TO.C,C53*%
X14065542Y38983857D02*
X14113161Y39031476D01*
X14160780Y39174333D01*
X14160780Y39269571D01*
X14113161Y39412428D01*
X14017923Y39507666D01*
X13922685Y39555285D01*
X13732209Y39602904D01*
X13589352Y39602904D01*
X13398876Y39555285D01*
X13303638Y39507666D01*
X13208400Y39412428D01*
X13160780Y39269571D01*
X13160780Y39174333D01*
X13208400Y39031476D01*
X13256019Y38983857D01*
X13160780Y38079095D02*
X13160780Y38555285D01*
X13636971Y38602904D01*
X13589352Y38555285D01*
X13541733Y38460047D01*
X13541733Y38221952D01*
X13589352Y38126714D01*
X13636971Y38079095D01*
X13732209Y38031476D01*
X13970304Y38031476D01*
X14065542Y38079095D01*
X14113161Y38126714D01*
X14160780Y38221952D01*
X14160780Y38460047D01*
X14113161Y38555285D01*
X14065542Y38602904D01*
X13160780Y37698142D02*
X13160780Y37079095D01*
X13541733Y37412428D01*
X13541733Y37269571D01*
X13589352Y37174333D01*
X13636971Y37126714D01*
X13732209Y37079095D01*
X13970304Y37079095D01*
X14065542Y37126714D01*
X14113161Y37174333D01*
X14160780Y37269571D01*
X14160780Y37555285D01*
X14113161Y37650523D01*
X14065542Y37698142D01*
%TO.C,C41*%
X74111142Y23248857D02*
X74158761Y23296476D01*
X74206380Y23439333D01*
X74206380Y23534571D01*
X74158761Y23677428D01*
X74063523Y23772666D01*
X73968285Y23820285D01*
X73777809Y23867904D01*
X73634952Y23867904D01*
X73444476Y23820285D01*
X73349238Y23772666D01*
X73254000Y23677428D01*
X73206380Y23534571D01*
X73206380Y23439333D01*
X73254000Y23296476D01*
X73301619Y23248857D01*
X73539714Y22391714D02*
X74206380Y22391714D01*
X73158761Y22629809D02*
X73873047Y22867904D01*
X73873047Y22248857D01*
X74206380Y21344095D02*
X74206380Y21915523D01*
X74206380Y21629809D02*
X73206380Y21629809D01*
X73349238Y21725047D01*
X73444476Y21820285D01*
X73492095Y21915523D01*
%TO.C,R45*%
X52712857Y45427619D02*
X53046190Y45903809D01*
X53284285Y45427619D02*
X53284285Y46427619D01*
X52903333Y46427619D01*
X52808095Y46380000D01*
X52760476Y46332380D01*
X52712857Y46237142D01*
X52712857Y46094285D01*
X52760476Y45999047D01*
X52808095Y45951428D01*
X52903333Y45903809D01*
X53284285Y45903809D01*
X51855714Y46094285D02*
X51855714Y45427619D01*
X52093809Y46475238D02*
X52331904Y45760952D01*
X51712857Y45760952D01*
X50855714Y46427619D02*
X51331904Y46427619D01*
X51379523Y45951428D01*
X51331904Y45999047D01*
X51236666Y46046666D01*
X50998571Y46046666D01*
X50903333Y45999047D01*
X50855714Y45951428D01*
X50808095Y45856190D01*
X50808095Y45618095D01*
X50855714Y45522857D01*
X50903333Y45475238D01*
X50998571Y45427619D01*
X51236666Y45427619D01*
X51331904Y45475238D01*
X51379523Y45522857D01*
%TO.C,R36*%
X48872380Y8770857D02*
X48396190Y9104190D01*
X48872380Y9342285D02*
X47872380Y9342285D01*
X47872380Y8961333D01*
X47920000Y8866095D01*
X47967619Y8818476D01*
X48062857Y8770857D01*
X48205714Y8770857D01*
X48300952Y8818476D01*
X48348571Y8866095D01*
X48396190Y8961333D01*
X48396190Y9342285D01*
X47872380Y8437523D02*
X47872380Y7818476D01*
X48253333Y8151809D01*
X48253333Y8008952D01*
X48300952Y7913714D01*
X48348571Y7866095D01*
X48443809Y7818476D01*
X48681904Y7818476D01*
X48777142Y7866095D01*
X48824761Y7913714D01*
X48872380Y8008952D01*
X48872380Y8294666D01*
X48824761Y8389904D01*
X48777142Y8437523D01*
X47872380Y6961333D02*
X47872380Y7151809D01*
X47920000Y7247047D01*
X47967619Y7294666D01*
X48110476Y7389904D01*
X48300952Y7437523D01*
X48681904Y7437523D01*
X48777142Y7389904D01*
X48824761Y7342285D01*
X48872380Y7247047D01*
X48872380Y7056571D01*
X48824761Y6961333D01*
X48777142Y6913714D01*
X48681904Y6866095D01*
X48443809Y6866095D01*
X48348571Y6913714D01*
X48300952Y6961333D01*
X48253333Y7056571D01*
X48253333Y7247047D01*
X48300952Y7342285D01*
X48348571Y7389904D01*
X48443809Y7437523D01*
%TO.C,D1*%
X85508880Y31599095D02*
X84508880Y31599095D01*
X84508880Y31361000D01*
X84556500Y31218142D01*
X84651738Y31122904D01*
X84746976Y31075285D01*
X84937452Y31027666D01*
X85080309Y31027666D01*
X85270785Y31075285D01*
X85366023Y31122904D01*
X85461261Y31218142D01*
X85508880Y31361000D01*
X85508880Y31599095D01*
X85508880Y30075285D02*
X85508880Y30646714D01*
X85508880Y30361000D02*
X84508880Y30361000D01*
X84651738Y30456238D01*
X84746976Y30551476D01*
X84794595Y30646714D01*
%TO.C,R26*%
X71762857Y13677619D02*
X72096190Y14153809D01*
X72334285Y13677619D02*
X72334285Y14677619D01*
X71953333Y14677619D01*
X71858095Y14630000D01*
X71810476Y14582380D01*
X71762857Y14487142D01*
X71762857Y14344285D01*
X71810476Y14249047D01*
X71858095Y14201428D01*
X71953333Y14153809D01*
X72334285Y14153809D01*
X71381904Y14582380D02*
X71334285Y14630000D01*
X71239047Y14677619D01*
X71000952Y14677619D01*
X70905714Y14630000D01*
X70858095Y14582380D01*
X70810476Y14487142D01*
X70810476Y14391904D01*
X70858095Y14249047D01*
X71429523Y13677619D01*
X70810476Y13677619D01*
X69953333Y14677619D02*
X70143809Y14677619D01*
X70239047Y14630000D01*
X70286666Y14582380D01*
X70381904Y14439523D01*
X70429523Y14249047D01*
X70429523Y13868095D01*
X70381904Y13772857D01*
X70334285Y13725238D01*
X70239047Y13677619D01*
X70048571Y13677619D01*
X69953333Y13725238D01*
X69905714Y13772857D01*
X69858095Y13868095D01*
X69858095Y14106190D01*
X69905714Y14201428D01*
X69953333Y14249047D01*
X70048571Y14296666D01*
X70239047Y14296666D01*
X70334285Y14249047D01*
X70381904Y14201428D01*
X70429523Y14106190D01*
%TO.C,U12*%
X70834095Y25299619D02*
X70834095Y24490095D01*
X70786476Y24394857D01*
X70738857Y24347238D01*
X70643619Y24299619D01*
X70453142Y24299619D01*
X70357904Y24347238D01*
X70310285Y24394857D01*
X70262666Y24490095D01*
X70262666Y25299619D01*
X69262666Y24299619D02*
X69834095Y24299619D01*
X69548380Y24299619D02*
X69548380Y25299619D01*
X69643619Y25156761D01*
X69738857Y25061523D01*
X69834095Y25013904D01*
X68881714Y25204380D02*
X68834095Y25252000D01*
X68738857Y25299619D01*
X68500761Y25299619D01*
X68405523Y25252000D01*
X68357904Y25204380D01*
X68310285Y25109142D01*
X68310285Y25013904D01*
X68357904Y24871047D01*
X68929333Y24299619D01*
X68310285Y24299619D01*
%TO.C,C45*%
X72145142Y17927857D02*
X72192761Y17975476D01*
X72240380Y18118333D01*
X72240380Y18213571D01*
X72192761Y18356428D01*
X72097523Y18451666D01*
X72002285Y18499285D01*
X71811809Y18546904D01*
X71668952Y18546904D01*
X71478476Y18499285D01*
X71383238Y18451666D01*
X71288000Y18356428D01*
X71240380Y18213571D01*
X71240380Y18118333D01*
X71288000Y17975476D01*
X71335619Y17927857D01*
X71573714Y17070714D02*
X72240380Y17070714D01*
X71192761Y17308809D02*
X71907047Y17546904D01*
X71907047Y16927857D01*
X71240380Y16070714D02*
X71240380Y16546904D01*
X71716571Y16594523D01*
X71668952Y16546904D01*
X71621333Y16451666D01*
X71621333Y16213571D01*
X71668952Y16118333D01*
X71716571Y16070714D01*
X71811809Y16023095D01*
X72049904Y16023095D01*
X72145142Y16070714D01*
X72192761Y16118333D01*
X72240380Y16213571D01*
X72240380Y16451666D01*
X72192761Y16546904D01*
X72145142Y16594523D01*
%TO.C,Q4*%
X52927238Y6424380D02*
X53022476Y6472000D01*
X53117714Y6567238D01*
X53260571Y6710095D01*
X53355809Y6757714D01*
X53451047Y6757714D01*
X53403428Y6519619D02*
X53498666Y6567238D01*
X53593904Y6662476D01*
X53641523Y6852952D01*
X53641523Y7186285D01*
X53593904Y7376761D01*
X53498666Y7472000D01*
X53403428Y7519619D01*
X53212952Y7519619D01*
X53117714Y7472000D01*
X53022476Y7376761D01*
X52974857Y7186285D01*
X52974857Y6852952D01*
X53022476Y6662476D01*
X53117714Y6567238D01*
X53212952Y6519619D01*
X53403428Y6519619D01*
X52117714Y7186285D02*
X52117714Y6519619D01*
X52355809Y7567238D02*
X52593904Y6852952D01*
X51974857Y6852952D01*
%TO.C,R32*%
X79636857Y19199619D02*
X79970190Y19675809D01*
X80208285Y19199619D02*
X80208285Y20199619D01*
X79827333Y20199619D01*
X79732095Y20152000D01*
X79684476Y20104380D01*
X79636857Y20009142D01*
X79636857Y19866285D01*
X79684476Y19771047D01*
X79732095Y19723428D01*
X79827333Y19675809D01*
X80208285Y19675809D01*
X79303523Y20199619D02*
X78684476Y20199619D01*
X79017809Y19818666D01*
X78874952Y19818666D01*
X78779714Y19771047D01*
X78732095Y19723428D01*
X78684476Y19628190D01*
X78684476Y19390095D01*
X78732095Y19294857D01*
X78779714Y19247238D01*
X78874952Y19199619D01*
X79160666Y19199619D01*
X79255904Y19247238D01*
X79303523Y19294857D01*
X78303523Y20104380D02*
X78255904Y20152000D01*
X78160666Y20199619D01*
X77922571Y20199619D01*
X77827333Y20152000D01*
X77779714Y20104380D01*
X77732095Y20009142D01*
X77732095Y19913904D01*
X77779714Y19771047D01*
X78351142Y19199619D01*
X77732095Y19199619D01*
%TO.C,D5*%
X82780095Y26695619D02*
X82780095Y27695619D01*
X82542000Y27695619D01*
X82399142Y27648000D01*
X82303904Y27552761D01*
X82256285Y27457523D01*
X82208666Y27267047D01*
X82208666Y27124190D01*
X82256285Y26933714D01*
X82303904Y26838476D01*
X82399142Y26743238D01*
X82542000Y26695619D01*
X82780095Y26695619D01*
X81303904Y27695619D02*
X81780095Y27695619D01*
X81827714Y27219428D01*
X81780095Y27267047D01*
X81684857Y27314666D01*
X81446761Y27314666D01*
X81351523Y27267047D01*
X81303904Y27219428D01*
X81256285Y27124190D01*
X81256285Y26886095D01*
X81303904Y26790857D01*
X81351523Y26743238D01*
X81446761Y26695619D01*
X81684857Y26695619D01*
X81780095Y26743238D01*
X81827714Y26790857D01*
%TO.C,C51*%
X64713142Y21470857D02*
X64760761Y21518476D01*
X64808380Y21661333D01*
X64808380Y21756571D01*
X64760761Y21899428D01*
X64665523Y21994666D01*
X64570285Y22042285D01*
X64379809Y22089904D01*
X64236952Y22089904D01*
X64046476Y22042285D01*
X63951238Y21994666D01*
X63856000Y21899428D01*
X63808380Y21756571D01*
X63808380Y21661333D01*
X63856000Y21518476D01*
X63903619Y21470857D01*
X63808380Y20566095D02*
X63808380Y21042285D01*
X64284571Y21089904D01*
X64236952Y21042285D01*
X64189333Y20947047D01*
X64189333Y20708952D01*
X64236952Y20613714D01*
X64284571Y20566095D01*
X64379809Y20518476D01*
X64617904Y20518476D01*
X64713142Y20566095D01*
X64760761Y20613714D01*
X64808380Y20708952D01*
X64808380Y20947047D01*
X64760761Y21042285D01*
X64713142Y21089904D01*
X64808380Y19566095D02*
X64808380Y20137523D01*
X64808380Y19851809D02*
X63808380Y19851809D01*
X63951238Y19947047D01*
X64046476Y20042285D01*
X64094095Y20137523D01*
%TO.C,U6*%
X61213904Y22997619D02*
X61213904Y22188095D01*
X61166285Y22092857D01*
X61118666Y22045238D01*
X61023428Y21997619D01*
X60832952Y21997619D01*
X60737714Y22045238D01*
X60690095Y22092857D01*
X60642476Y22188095D01*
X60642476Y22997619D01*
X59737714Y22997619D02*
X59928190Y22997619D01*
X60023428Y22950000D01*
X60071047Y22902380D01*
X60166285Y22759523D01*
X60213904Y22569047D01*
X60213904Y22188095D01*
X60166285Y22092857D01*
X60118666Y22045238D01*
X60023428Y21997619D01*
X59832952Y21997619D01*
X59737714Y22045238D01*
X59690095Y22092857D01*
X59642476Y22188095D01*
X59642476Y22426190D01*
X59690095Y22521428D01*
X59737714Y22569047D01*
X59832952Y22616666D01*
X60023428Y22616666D01*
X60118666Y22569047D01*
X60166285Y22521428D01*
X60213904Y22426190D01*
%TO.C,C36*%
X59316857Y21326857D02*
X59364476Y21279238D01*
X59507333Y21231619D01*
X59602571Y21231619D01*
X59745428Y21279238D01*
X59840666Y21374476D01*
X59888285Y21469714D01*
X59935904Y21660190D01*
X59935904Y21803047D01*
X59888285Y21993523D01*
X59840666Y22088761D01*
X59745428Y22184000D01*
X59602571Y22231619D01*
X59507333Y22231619D01*
X59364476Y22184000D01*
X59316857Y22136380D01*
X58983523Y22231619D02*
X58364476Y22231619D01*
X58697809Y21850666D01*
X58554952Y21850666D01*
X58459714Y21803047D01*
X58412095Y21755428D01*
X58364476Y21660190D01*
X58364476Y21422095D01*
X58412095Y21326857D01*
X58459714Y21279238D01*
X58554952Y21231619D01*
X58840666Y21231619D01*
X58935904Y21279238D01*
X58983523Y21326857D01*
X57507333Y22231619D02*
X57697809Y22231619D01*
X57793047Y22184000D01*
X57840666Y22136380D01*
X57935904Y21993523D01*
X57983523Y21803047D01*
X57983523Y21422095D01*
X57935904Y21326857D01*
X57888285Y21279238D01*
X57793047Y21231619D01*
X57602571Y21231619D01*
X57507333Y21279238D01*
X57459714Y21326857D01*
X57412095Y21422095D01*
X57412095Y21660190D01*
X57459714Y21755428D01*
X57507333Y21803047D01*
X57602571Y21850666D01*
X57793047Y21850666D01*
X57888285Y21803047D01*
X57935904Y21755428D01*
X57983523Y21660190D01*
%TO.C,R38*%
X65062380Y46616857D02*
X64586190Y46950190D01*
X65062380Y47188285D02*
X64062380Y47188285D01*
X64062380Y46807333D01*
X64110000Y46712095D01*
X64157619Y46664476D01*
X64252857Y46616857D01*
X64395714Y46616857D01*
X64490952Y46664476D01*
X64538571Y46712095D01*
X64586190Y46807333D01*
X64586190Y47188285D01*
X64062380Y46283523D02*
X64062380Y45664476D01*
X64443333Y45997809D01*
X64443333Y45854952D01*
X64490952Y45759714D01*
X64538571Y45712095D01*
X64633809Y45664476D01*
X64871904Y45664476D01*
X64967142Y45712095D01*
X65014761Y45759714D01*
X65062380Y45854952D01*
X65062380Y46140666D01*
X65014761Y46235904D01*
X64967142Y46283523D01*
X64490952Y45093047D02*
X64443333Y45188285D01*
X64395714Y45235904D01*
X64300476Y45283523D01*
X64252857Y45283523D01*
X64157619Y45235904D01*
X64110000Y45188285D01*
X64062380Y45093047D01*
X64062380Y44902571D01*
X64110000Y44807333D01*
X64157619Y44759714D01*
X64252857Y44712095D01*
X64300476Y44712095D01*
X64395714Y44759714D01*
X64443333Y44807333D01*
X64490952Y44902571D01*
X64490952Y45093047D01*
X64538571Y45188285D01*
X64586190Y45235904D01*
X64681428Y45283523D01*
X64871904Y45283523D01*
X64967142Y45235904D01*
X65014761Y45188285D01*
X65062380Y45093047D01*
X65062380Y44902571D01*
X65014761Y44807333D01*
X64967142Y44759714D01*
X64871904Y44712095D01*
X64681428Y44712095D01*
X64586190Y44759714D01*
X64538571Y44807333D01*
X64490952Y44902571D01*
%TO.C,R35*%
X48552380Y9786857D02*
X48076190Y10120190D01*
X48552380Y10358285D02*
X47552380Y10358285D01*
X47552380Y9977333D01*
X47600000Y9882095D01*
X47647619Y9834476D01*
X47742857Y9786857D01*
X47885714Y9786857D01*
X47980952Y9834476D01*
X48028571Y9882095D01*
X48076190Y9977333D01*
X48076190Y10358285D01*
X47552380Y9453523D02*
X47552380Y8834476D01*
X47933333Y9167809D01*
X47933333Y9024952D01*
X47980952Y8929714D01*
X48028571Y8882095D01*
X48123809Y8834476D01*
X48361904Y8834476D01*
X48457142Y8882095D01*
X48504761Y8929714D01*
X48552380Y9024952D01*
X48552380Y9310666D01*
X48504761Y9405904D01*
X48457142Y9453523D01*
X47552380Y7929714D02*
X47552380Y8405904D01*
X48028571Y8453523D01*
X47980952Y8405904D01*
X47933333Y8310666D01*
X47933333Y8072571D01*
X47980952Y7977333D01*
X48028571Y7929714D01*
X48123809Y7882095D01*
X48361904Y7882095D01*
X48457142Y7929714D01*
X48504761Y7977333D01*
X48552380Y8072571D01*
X48552380Y8310666D01*
X48504761Y8405904D01*
X48457142Y8453523D01*
%TO.C,R33*%
X82938857Y23771619D02*
X83272190Y24247809D01*
X83510285Y23771619D02*
X83510285Y24771619D01*
X83129333Y24771619D01*
X83034095Y24724000D01*
X82986476Y24676380D01*
X82938857Y24581142D01*
X82938857Y24438285D01*
X82986476Y24343047D01*
X83034095Y24295428D01*
X83129333Y24247809D01*
X83510285Y24247809D01*
X82605523Y24771619D02*
X81986476Y24771619D01*
X82319809Y24390666D01*
X82176952Y24390666D01*
X82081714Y24343047D01*
X82034095Y24295428D01*
X81986476Y24200190D01*
X81986476Y23962095D01*
X82034095Y23866857D01*
X82081714Y23819238D01*
X82176952Y23771619D01*
X82462666Y23771619D01*
X82557904Y23819238D01*
X82605523Y23866857D01*
X81653142Y24771619D02*
X81034095Y24771619D01*
X81367428Y24390666D01*
X81224571Y24390666D01*
X81129333Y24343047D01*
X81081714Y24295428D01*
X81034095Y24200190D01*
X81034095Y23962095D01*
X81081714Y23866857D01*
X81129333Y23819238D01*
X81224571Y23771619D01*
X81510285Y23771619D01*
X81605523Y23819238D01*
X81653142Y23866857D01*
D12*
%TO.C,C20*%
X8634000Y17107780D02*
X8634000Y16826620D01*
X9654000Y17107780D02*
X9654000Y16826620D01*
%TO.C,C1*%
X17283820Y18848800D02*
X17564980Y18848800D01*
X17283820Y17828800D02*
X17564980Y17828800D01*
%TO.C,C3*%
X4730000Y29761920D02*
X4730000Y30043080D01*
X5750000Y29761920D02*
X5750000Y30043080D01*
%TO.C,C4*%
X17283820Y19708400D02*
X17564980Y19708400D01*
X17283820Y20728400D02*
X17564980Y20728400D01*
%TO.C,C5*%
X7088752Y23135000D02*
X6566248Y23135000D01*
X7088752Y24605000D02*
X6566248Y24605000D01*
%TO.C,C6*%
X14171200Y23457780D02*
X14171200Y23176620D01*
X15191200Y23457780D02*
X15191200Y23176620D01*
%TO.C,C7*%
X31077780Y20322000D02*
X30796620Y20322000D01*
X31077780Y19302000D02*
X30796620Y19302000D01*
%TO.C,C8*%
X25591380Y14886400D02*
X25310220Y14886400D01*
X25591380Y13866400D02*
X25310220Y13866400D01*
%TO.C,C9*%
X21144620Y14632400D02*
X21425780Y14632400D01*
X21144620Y13612400D02*
X21425780Y13612400D01*
%TO.C,C10*%
X10460580Y24380000D02*
X10179420Y24380000D01*
X10460580Y23360000D02*
X10179420Y23360000D01*
%TO.C,C11*%
X17020000Y23457780D02*
X17020000Y23176620D01*
X16000000Y23457780D02*
X16000000Y23176620D01*
%TO.C,C12*%
X31077780Y21283200D02*
X30796620Y21283200D01*
X31077780Y22303200D02*
X30796620Y22303200D01*
%TO.C,C13*%
X25591380Y16664400D02*
X25310220Y16664400D01*
X25591380Y15644400D02*
X25310220Y15644400D01*
%TO.C,C14*%
X21144620Y16410400D02*
X21425780Y16410400D01*
X21144620Y15390400D02*
X21425780Y15390400D01*
%TO.C,C15*%
X16254000Y27545420D02*
X16254000Y27826580D01*
X17274000Y27545420D02*
X17274000Y27826580D01*
%TO.C,C16*%
X18032000Y27826580D02*
X18032000Y27545420D01*
X19052000Y27826580D02*
X19052000Y27545420D01*
%TO.C,C17*%
X23102180Y28805600D02*
X22821020Y28805600D01*
X23102180Y27785600D02*
X22821020Y27785600D01*
%TO.C,C18*%
X23264400Y25398820D02*
X23264400Y25679980D01*
X24284400Y25398820D02*
X24284400Y25679980D01*
%TO.C,C19*%
X30456200Y31133148D02*
X30456200Y31655652D01*
X31926200Y31133148D02*
X31926200Y31655652D01*
%TO.C,R3*%
X31075100Y17306058D02*
X31075100Y16831542D01*
X32120100Y17306058D02*
X32120100Y16831542D01*
%TO.C,R4*%
X25688058Y12025100D02*
X25213542Y12025100D01*
X25688058Y13070100D02*
X25213542Y13070100D01*
%TO.C,R5*%
X17661658Y14057100D02*
X17187142Y14057100D01*
X17661658Y15102100D02*
X17187142Y15102100D01*
%TO.C,R6*%
X7064758Y20807500D02*
X6590242Y20807500D01*
X7064758Y21852500D02*
X6590242Y21852500D01*
%TO.C,R7*%
X15922500Y31092258D02*
X15922500Y30617742D01*
X14877500Y31092258D02*
X14877500Y30617742D01*
%TO.C,R8*%
X16495500Y30681242D02*
X16495500Y31155758D01*
X17540500Y30681242D02*
X17540500Y31155758D01*
%TO.C,R9*%
X14463500Y27448742D02*
X14463500Y27923258D01*
X15508500Y27448742D02*
X15508500Y27923258D01*
%TO.C,R10*%
X19797500Y27448742D02*
X19797500Y27923258D01*
X20842500Y27448742D02*
X20842500Y27923258D01*
%TO.C,R11*%
X21473900Y25302942D02*
X21473900Y25777458D01*
X22518900Y25302942D02*
X22518900Y25777458D01*
%TO.C,R12*%
X23810700Y19625542D02*
X23810700Y20100058D01*
X24855700Y19625542D02*
X24855700Y20100058D01*
%TO.C,R13*%
X28673058Y30951700D02*
X28198542Y30951700D01*
X28673058Y29906700D02*
X28198542Y29906700D01*
%TO.C,U1*%
X10320000Y30240000D02*
X12270000Y30240000D01*
X10320000Y30240000D02*
X8370000Y30240000D01*
X10320000Y25120000D02*
X6870000Y25120000D01*
X10320000Y25120000D02*
X12270000Y25120000D01*
%TO.C,U4*%
X25618800Y19216800D02*
X25618800Y21666800D01*
X28838800Y21016800D02*
X28838800Y19216800D01*
%TO.C,U5*%
X22895200Y20966000D02*
X22895200Y19166000D01*
X19675200Y19166000D02*
X19675200Y21616000D01*
%TO.C,R2*%
X17765500Y23452858D02*
X17765500Y22978342D01*
X18810500Y23452858D02*
X18810500Y22978342D01*
%TO.C,U2*%
X28752800Y28874400D02*
X30702800Y28874400D01*
X28752800Y23754400D02*
X30702800Y23754400D01*
X28752800Y28874400D02*
X26802800Y28874400D01*
X28752800Y23754400D02*
X25302800Y23754400D01*
%TO.C,R1*%
X29580100Y15510742D02*
X29580100Y15985258D01*
X28535100Y15510742D02*
X28535100Y15985258D01*
%TO.C,C2*%
X23522400Y34633780D02*
X23522400Y34352620D01*
X22502400Y34633780D02*
X22502400Y34352620D01*
%TO.C,U3*%
X13752000Y18796000D02*
X13752000Y17121000D01*
X10632000Y18796000D02*
X10632000Y19446000D01*
X10632000Y18796000D02*
X10632000Y18146000D01*
X13752000Y18796000D02*
X13752000Y19446000D01*
%TO.C,C21*%
X27688000Y34633780D02*
X27688000Y34352620D01*
X26668000Y34633780D02*
X26668000Y34352620D01*
%TO.C,F2*%
X78305922Y30682000D02*
X78823078Y30682000D01*
X78305922Y29262000D02*
X78823078Y29262000D01*
%TO.C,L3*%
X83768000Y34790748D02*
X83768000Y35313252D01*
X82348000Y34790748D02*
X82348000Y35313252D01*
%TO.C,C50*%
X77472000Y40004420D02*
X77472000Y40285580D01*
X76452000Y40004420D02*
X76452000Y40285580D01*
%TO.C,C42*%
X75440000Y40004420D02*
X75440000Y40285580D01*
X74420000Y40004420D02*
X74420000Y40285580D01*
D10*
%TO.C,C52*%
X75184000Y34116000D02*
X76708000Y34116000D01*
X76708000Y38180000D02*
X75184000Y38180000D01*
X76708000Y34116000D02*
X76708000Y38180000D01*
X75184000Y38180000D02*
X75311000Y38180000D01*
X75184000Y38180000D02*
X75184000Y34116000D01*
D12*
%TO.C,C44*%
X63756000Y34149420D02*
X63756000Y34430580D01*
X62736000Y34149420D02*
X62736000Y34430580D01*
%TO.C,C40*%
X66042000Y34149420D02*
X66042000Y34430580D01*
X65022000Y34149420D02*
X65022000Y34430580D01*
%TO.C,C31*%
X63756000Y37705420D02*
X63756000Y37986580D01*
X62736000Y37705420D02*
X62736000Y37986580D01*
%TO.C,C27*%
X72249420Y36066000D02*
X72530580Y36066000D01*
X72249420Y37086000D02*
X72530580Y37086000D01*
%TO.C,U8*%
X81316000Y37338000D02*
X81316000Y38138000D01*
X78196000Y37338000D02*
X78196000Y36538000D01*
X78196000Y37338000D02*
X78196000Y38138000D01*
X81316000Y37338000D02*
X81316000Y35538000D01*
D10*
%TO.C,U10*%
X59789000Y30291000D02*
X59789000Y30966000D01*
X59789000Y30291000D02*
X59114000Y30291000D01*
X49439000Y30291000D02*
X50114000Y30291000D01*
X49439000Y30291000D02*
X49439000Y30866000D01*
X49439000Y30866000D02*
X48164000Y30866000D01*
X59789000Y40641000D02*
X59789000Y39966000D01*
X49439000Y40641000D02*
X50114000Y40641000D01*
X59789000Y40641000D02*
X59114000Y40641000D01*
X49439000Y40641000D02*
X49439000Y39966000D01*
D12*
%TO.C,R20*%
X54085258Y15987500D02*
X53610742Y15987500D01*
X54085258Y17032500D02*
X53610742Y17032500D01*
D10*
%TO.C,C29*%
X75946000Y28702000D02*
X74422000Y28702000D01*
X74422000Y28702000D02*
X74549000Y28702000D01*
X75946000Y24638000D02*
X75946000Y28702000D01*
X74422000Y28702000D02*
X74422000Y24638000D01*
X74422000Y24638000D02*
X75946000Y24638000D01*
D12*
%TO.C,R23*%
X44943500Y29988742D02*
X44943500Y30463258D01*
X45988500Y29988742D02*
X45988500Y30463258D01*
%TO.C,C26*%
X72249420Y33780000D02*
X72530580Y33780000D01*
X72249420Y34800000D02*
X72530580Y34800000D01*
%TO.C,C28*%
X72249420Y39118000D02*
X72530580Y39118000D01*
X72249420Y38098000D02*
X72530580Y38098000D01*
%TO.C,C30*%
X40388000Y32371420D02*
X40388000Y32652580D01*
X39368000Y32371420D02*
X39368000Y32652580D01*
%TO.C,C33*%
X39368000Y35954580D02*
X39368000Y35673420D01*
X40388000Y35954580D02*
X40388000Y35673420D01*
%TO.C,C34*%
X45464000Y33895420D02*
X45464000Y34176580D01*
X46484000Y33895420D02*
X46484000Y34176580D01*
%TO.C,C35*%
X54862000Y26810580D02*
X54862000Y26529420D01*
X55882000Y26810580D02*
X55882000Y26529420D01*
%TO.C,C39*%
X54100000Y45325420D02*
X54100000Y45606580D01*
X55120000Y45325420D02*
X55120000Y45606580D01*
%TO.C,C43*%
X47103420Y26926000D02*
X47384580Y26926000D01*
X47103420Y25906000D02*
X47384580Y25906000D01*
%TO.C,C47*%
X72249420Y31494000D02*
X72530580Y31494000D01*
X72249420Y32514000D02*
X72530580Y32514000D01*
%TO.C,L1*%
X68039064Y39079000D02*
X66834936Y39079000D01*
X68039064Y36359000D02*
X66834936Y36359000D01*
%TO.C,R21*%
X54085258Y17765500D02*
X53610742Y17765500D01*
X54085258Y18810500D02*
X53610742Y18810500D01*
D10*
%TO.C,U11*%
X69951000Y31851000D02*
X69676000Y31851000D01*
X66701000Y28601000D02*
X66976000Y28601000D01*
X69951000Y28601000D02*
X69951000Y31851000D01*
X69951000Y28601000D02*
X69776000Y28601000D01*
X66701000Y31851000D02*
X66976000Y31851000D01*
X66701000Y28601000D02*
X66701000Y31851000D01*
X69776000Y28601000D02*
X69776000Y27526000D01*
D12*
%TO.C,C23*%
X25554400Y34633780D02*
X25554400Y34352620D01*
X24534400Y34633780D02*
X24534400Y34352620D01*
%TO.C,C24*%
X21338000Y34633780D02*
X21338000Y34352620D01*
X20318000Y34633780D02*
X20318000Y34352620D01*
%TO.C,C32*%
X80150580Y33526000D02*
X79869420Y33526000D01*
X80150580Y34546000D02*
X79869420Y34546000D01*
%TO.C,C54*%
X78345420Y32768000D02*
X78626580Y32768000D01*
X78345420Y31748000D02*
X78626580Y31748000D01*
%TO.C,R15*%
X28210742Y36764700D02*
X28685258Y36764700D01*
X28210742Y37809700D02*
X28685258Y37809700D01*
%TO.C,R19*%
X24654742Y37809700D02*
X25129258Y37809700D01*
X24654742Y36764700D02*
X25129258Y36764700D01*
%TO.C,R22*%
X20997142Y36764700D02*
X21471658Y36764700D01*
X20997142Y37809700D02*
X21471658Y37809700D01*
%TO.C,M8*%
X23472000Y9250000D02*
X25072000Y9250000D01*
X34422000Y36600000D02*
X34422000Y38200000D01*
X2122000Y30600000D02*
X2122000Y32200000D01*
X11472000Y9250000D02*
X13072000Y9250000D01*
X17472000Y41550000D02*
X19072000Y41550000D01*
X2122000Y36600000D02*
X2122000Y38200000D01*
X34422000Y12600000D02*
X34422000Y14200000D01*
X34422000Y24600000D02*
X34422000Y26200000D01*
X2122000Y18600000D02*
X2122000Y20200000D01*
X23472000Y41550000D02*
X25072000Y41550000D01*
X29472000Y9250000D02*
X31072000Y9250000D01*
X5472000Y9250000D02*
X7072000Y9250000D01*
X17472000Y9250000D02*
X19072000Y9250000D01*
X34422000Y18600000D02*
X34422000Y20200000D01*
X29472000Y41550000D02*
X31072000Y41550000D01*
X5472000Y41550000D02*
X7072000Y41550000D01*
X2122000Y12600000D02*
X2122000Y14200000D01*
X2122000Y24600000D02*
X2122000Y26200000D01*
X34422000Y30600000D02*
X34422000Y32200000D01*
X11472000Y41550000D02*
X13072000Y41550000D01*
%TO.C,J3*%
X86174000Y29107000D02*
X86174000Y27307000D01*
X86174000Y27307000D02*
X85184000Y27307000D01*
X87624000Y18137000D02*
X86174000Y18137000D01*
X87624000Y29107000D02*
X86174000Y29107000D01*
X90444000Y27837000D02*
X90444000Y19407000D01*
X86174000Y18137000D02*
X86174000Y19937000D01*
%TO.C,Q2*%
X47752000Y6132000D02*
X49427000Y6132000D01*
X47752000Y3012000D02*
X48402000Y3012000D01*
X47752000Y6132000D02*
X47102000Y6132000D01*
X47752000Y3012000D02*
X47102000Y3012000D01*
%TO.C,C58*%
X14262980Y15089600D02*
X13981820Y15089600D01*
X14262980Y14069600D02*
X13981820Y14069600D01*
%TO.C,R39*%
X6688858Y17206700D02*
X6214342Y17206700D01*
X6688858Y18251700D02*
X6214342Y18251700D01*
%TO.C,R37*%
X59958500Y9381258D02*
X59958500Y8906742D01*
X58913500Y9381258D02*
X58913500Y8906742D01*
%TO.C,C59*%
X10970800Y37529380D02*
X10970800Y37248220D01*
X11990800Y37529380D02*
X11990800Y37248220D01*
%TO.C,J1*%
X86174000Y45597000D02*
X86174000Y43797000D01*
X90444000Y44327000D02*
X90444000Y33397000D01*
X86174000Y32127000D02*
X86174000Y33927000D01*
X87624000Y32127000D02*
X86174000Y32127000D01*
X86174000Y43797000D02*
X85184000Y43797000D01*
X87624000Y45597000D02*
X86174000Y45597000D01*
%TO.C,R42*%
X55132500Y9381258D02*
X55132500Y8906742D01*
X54087500Y9381258D02*
X54087500Y8906742D01*
%TO.C,R44*%
X51547500Y7890742D02*
X51547500Y8365258D01*
X52592500Y7890742D02*
X52592500Y8365258D01*
%TO.C,R28*%
X68819500Y9414742D02*
X68819500Y9889258D01*
X69864500Y9414742D02*
X69864500Y9889258D01*
%TO.C,C37*%
X17477200Y37072180D02*
X17477200Y36791020D01*
X16457200Y37072180D02*
X16457200Y36791020D01*
%TO.C,C55*%
X17283820Y16969200D02*
X17564980Y16969200D01*
X17283820Y15949200D02*
X17564980Y15949200D01*
%TO.C,D6*%
X82742000Y31080000D02*
X80892000Y31080000D01*
X80892000Y29880000D02*
X80892000Y31080000D01*
X82742000Y29880000D02*
X80892000Y29880000D01*
%TO.C,C48*%
X79758000Y18174580D02*
X79758000Y17893420D01*
X78738000Y18174580D02*
X78738000Y17893420D01*
%TO.C,Q1*%
X10246800Y37642800D02*
X10246800Y38292800D01*
X10246800Y37642800D02*
X10246800Y36992800D01*
X7126800Y37642800D02*
X7126800Y39317800D01*
X7126800Y37642800D02*
X7126800Y36992800D01*
%TO.C,R41*%
X13832100Y38980342D02*
X13832100Y39454858D01*
X12787100Y38980342D02*
X12787100Y39454858D01*
D13*
%TO.C,J4*%
X85742000Y1952500D02*
X86992000Y1952500D01*
X90992000Y11532500D02*
X90992000Y1952500D01*
X85742000Y11532500D02*
X86992000Y11532500D01*
X90992000Y1952500D02*
X89712000Y1952500D01*
X89712000Y11532500D02*
X90992000Y11532500D01*
D12*
%TO.C,R27*%
X69579258Y14209500D02*
X69104742Y14209500D01*
X69579258Y15254500D02*
X69104742Y15254500D01*
%TO.C,R34*%
X82058742Y23353500D02*
X82533258Y23353500D01*
X82058742Y24398500D02*
X82533258Y24398500D01*
%TO.C,L2*%
X51106000Y25407252D02*
X51106000Y24884748D01*
X52526000Y25407252D02*
X52526000Y24884748D01*
%TO.C,R43*%
X56627500Y7890742D02*
X56627500Y8365258D01*
X57672500Y7890742D02*
X57672500Y8365258D01*
%TO.C,R30*%
X87392742Y8396500D02*
X87867258Y8396500D01*
X87392742Y7351500D02*
X87867258Y7351500D01*
%TO.C,C57*%
X31494000Y12383380D02*
X31494000Y12102220D01*
X32514000Y12383380D02*
X32514000Y12102220D01*
%TO.C,U7*%
X78232000Y10124000D02*
X79032000Y10124000D01*
X78232000Y13244000D02*
X79032000Y13244000D01*
X78232000Y13244000D02*
X77432000Y13244000D01*
X78232000Y10124000D02*
X76432000Y10124000D01*
%TO.C,R14*%
X13832100Y36305258D02*
X13832100Y35830742D01*
X12787100Y36305258D02*
X12787100Y35830742D01*
%TO.C,JP1*%
X83696000Y20782000D02*
X83696000Y21382000D01*
X81596000Y20082000D02*
X82996000Y20082000D01*
X80896000Y21382000D02*
X80896000Y20782000D01*
X82996000Y22082000D02*
X81596000Y22082000D01*
X80896000Y20782000D02*
G75*
G03*
X81596000Y20082000I699999J-1D01*
G01*
X82996000Y20082000D02*
G75*
G03*
X83696000Y20782000I0J700000D01*
G01*
X83696000Y21382000D02*
G75*
G03*
X82996000Y22082000I-700000J0D01*
G01*
X81596000Y22082000D02*
G75*
G03*
X80896000Y21382000I-1J-699999D01*
G01*
%TO.C,R40*%
X30668700Y37473658D02*
X30668700Y36999142D01*
X31713700Y37473658D02*
X31713700Y36999142D01*
%TO.C,R29*%
X63739500Y9414742D02*
X63739500Y9889258D01*
X64784500Y9414742D02*
X64784500Y9889258D01*
%TO.C,C56*%
X30685200Y12383380D02*
X30685200Y12102220D01*
X29665200Y12383380D02*
X29665200Y12102220D01*
%TO.C,C49*%
X64656580Y24132000D02*
X64375420Y24132000D01*
X64656580Y23112000D02*
X64375420Y23112000D01*
%TO.C,R31*%
X87392742Y5319500D02*
X87867258Y5319500D01*
X87392742Y6364500D02*
X87867258Y6364500D01*
%TO.C,C60*%
X65534000Y29350580D02*
X65534000Y29069420D01*
X64514000Y29350580D02*
X64514000Y29069420D01*
%TO.C,C38*%
X77722000Y27064580D02*
X77722000Y26783420D01*
X78742000Y27064580D02*
X78742000Y26783420D01*
%TO.C,Q3*%
X57658000Y3012000D02*
X57008000Y3012000D01*
X57658000Y3012000D02*
X58308000Y3012000D01*
X57658000Y6132000D02*
X57008000Y6132000D01*
X57658000Y6132000D02*
X59333000Y6132000D01*
%TO.C,U9*%
X72566000Y15162000D02*
X72566000Y15887000D01*
X76061000Y15162000D02*
X76786000Y15162000D01*
X73291000Y19382000D02*
X72566000Y19382000D01*
X73291000Y15162000D02*
X72566000Y15162000D01*
X76061000Y19382000D02*
X76786000Y19382000D01*
X76786000Y15162000D02*
X76786000Y15887000D01*
X72566000Y19382000D02*
X72566000Y18657000D01*
%TO.C,R16*%
X18222700Y35373542D02*
X18222700Y35848058D01*
X19267700Y35373542D02*
X19267700Y35848058D01*
%TO.C,C46*%
X73408000Y22746580D02*
X73408000Y22465420D01*
X72388000Y22746580D02*
X72388000Y22465420D01*
%TO.C,C53*%
X15660900Y38578258D02*
X15660900Y38103742D01*
X14615900Y38578258D02*
X14615900Y38103742D01*
%TO.C,C41*%
X75694000Y22746580D02*
X75694000Y22465420D01*
X74674000Y22746580D02*
X74674000Y22465420D01*
%TO.C,R45*%
X52307258Y44972500D02*
X51832742Y44972500D01*
X52307258Y43927500D02*
X51832742Y43927500D01*
%TO.C,R36*%
X47512500Y7890742D02*
X47512500Y8365258D01*
X46467500Y7890742D02*
X46467500Y8365258D01*
%TO.C,D1*%
X75784000Y29584000D02*
X74584000Y29584000D01*
X74584000Y31434000D02*
X74584000Y29584000D01*
X75784000Y31434000D02*
X75784000Y29584000D01*
%TO.C,R26*%
X71357258Y13222500D02*
X70882742Y13222500D01*
X71357258Y12177500D02*
X70882742Y12177500D01*
%TO.C,U12*%
X69596000Y20792000D02*
X68796000Y20792000D01*
X69596000Y23912000D02*
X71396000Y23912000D01*
X69596000Y23912000D02*
X68796000Y23912000D01*
X69596000Y20792000D02*
X70396000Y20792000D01*
%TO.C,C45*%
X69848000Y17144420D02*
X69848000Y17425580D01*
X70868000Y17144420D02*
X70868000Y17425580D01*
%TO.C,Q4*%
X52832000Y3012000D02*
X52182000Y3012000D01*
X52832000Y3012000D02*
X53482000Y3012000D01*
X52832000Y6132000D02*
X52182000Y6132000D01*
X52832000Y6132000D02*
X54507000Y6132000D01*
%TO.C,R32*%
X78756742Y20559500D02*
X79231258Y20559500D01*
X78756742Y21604500D02*
X79231258Y21604500D01*
%TO.C,D5*%
X80892000Y27848000D02*
X80892000Y29048000D01*
X82742000Y27848000D02*
X80892000Y27848000D01*
X82742000Y29048000D02*
X80892000Y29048000D01*
%TO.C,C51*%
X66296000Y20968580D02*
X66296000Y20687420D01*
X65276000Y20968580D02*
X65276000Y20687420D01*
%TO.C,U6*%
X60452000Y16490000D02*
X62402000Y16490000D01*
X60452000Y21610000D02*
X58502000Y21610000D01*
X60452000Y21610000D02*
X63902000Y21610000D01*
X60452000Y16490000D02*
X58502000Y16490000D01*
%TO.C,C36*%
X58533420Y22604000D02*
X58814580Y22604000D01*
X58533420Y23624000D02*
X58814580Y23624000D01*
%TO.C,R38*%
X66562500Y46211258D02*
X66562500Y45736742D01*
X65517500Y46211258D02*
X65517500Y45736742D01*
%TO.C,R35*%
X49007500Y9381258D02*
X49007500Y8906742D01*
X50052500Y9381258D02*
X50052500Y8906742D01*
%TO.C,R33*%
X82058742Y25131500D02*
X82533258Y25131500D01*
X82058742Y26176500D02*
X82533258Y26176500D01*
%TD*%
M02*
