M48
; DRILL file {KiCad 6.0.4-6f826c9f35~116~ubuntu20.04.1} date Wed May  4 08:48:27 2022
; FORMAT={-:-/ absolute / metric / decimal}
; #@! TF.CreationDate,2022-05-04T08:48:27+00:00
; #@! TF.GenerationSoftware,Kicad,Pcbnew,6.0.4-6f826c9f35~116~ubuntu20.04.1
; #@! TF.FileFunction,Plated,1,4,PTH
FMAT,2
METRIC
; #@! TA.AperFunction,Plated,PTH,ViaDrill
T1C0.400
; #@! TA.AperFunction,Plated,PTH,ComponentDrill
T2C0.600
; #@! TA.AperFunction,Plated,PTH,ComponentDrill
T3C0.762
; #@! TA.AperFunction,Plated,PTH,ComponentDrill
T4C0.800
; #@! TA.AperFunction,Plated,PTH,ComponentDrill
T5C0.889
; #@! TA.AperFunction,Plated,PTH,ComponentDrill
T6C3.000
%
G90
G05
T1
X2.54Y33.02
X2.54Y29.845
X2.54Y27.94
X2.54Y26.035
X2.54Y24.13
X2.54Y22.225
X2.54Y20.955
X3.175Y19.685
X3.302Y31.648
X4.064Y34.544
X4.445Y18.415
X4.623Y16.256
X4.986Y26.918
X4.986Y25.648
X5.08Y35.56
X5.537Y34.29
X5.715Y33.02
X6.096Y36.576
X6.985Y31.75
X7.62Y33.02
X9.304Y22.092
X9.957Y14.224
X10.319Y30.201
X10.32Y28.95
X10.32Y27.68
X10.32Y25.775
X10.668Y21.965
X12.225Y21.965
X12.86Y23.87
X13.462Y21.59
X14.732Y12.344
X15.138Y25.552
X16.612Y25.502
X18.186Y25.502
X18.288Y29.921
X18.999Y38.71
X19.101Y19.253
X19.152Y17.374
X19.253Y15.545
X19.456Y29.972
X19.914Y25.552
X19.914Y24.13
X20.625Y29.972
X22.352Y39.065
X23.368Y16.053
X23.368Y14.275
X23.622Y21.996
X23.724Y17.475
X24.587Y21.996
X24.74Y17.475
X26.365Y30.429
X26.365Y23.216
X28.143Y11.176
X28.651Y26.924
X28.969Y13.018
X29.87Y18.339
X30.328Y16.967
X30.48Y14.63
X31.191Y35.255
X49.657Y32.512
X50.038Y21.717
X50.038Y13.716
X50.038Y12.446
X50.8Y39.116
X51.054Y32.512
X51.308Y13.716
X51.308Y12.446
X51.435Y24.765
X52.324Y39.116
X52.578Y13.716
X52.578Y12.446
X53.848Y39.116
X53.848Y20.32
X54.229Y28.829
X55.372Y39.116
X55.372Y26.416
X55.867Y24.816
X56.896Y39.116
X57.912Y24.892
X58.42Y39.116
X58.42Y15.367
X58.928Y20.32
X59.182Y15.367
X59.69Y29.21
X59.944Y39.116
X59.944Y26.416
X60.325Y34.671
X61.468Y39.116
X61.468Y26.924
X61.976Y34.671
X62.702Y32.22
X62.865Y31.115
X62.992Y26.924
X63.754Y33.02
X64.389Y20.574
X64.389Y19.558
X65.405Y27.94
X65.747Y29.387
X66.548Y31.496
X67.056Y34.036
X67.056Y29.21
X67.183Y38.735
X68.453Y38.735
X69.596Y39.243
X69.596Y24.892
X70.104Y22.352
X70.612Y39.243
X71.374Y35.306
X71.375Y27.336
X71.882Y24.638
X72.067Y36.192
X72.136Y39.243
X73.66Y39.243
X75.184Y39.243
X75.311Y14.605
X76.2Y33.02
X76.2Y31.496
X76.708Y39.243
X78.232Y39.243
X78.232Y19.304
X78.74Y31.115
X79.248Y33.528
X79.248Y21.844
X79.248Y20.32
X87.884Y13.716
X87.884Y12.192
X88.392Y16.764
T3
X10.36Y34.19
X15.36Y34.19
T4
X50.292Y34.544
X55.172Y34.544
T5
X45.942Y45.72
X49.632Y45.72
T6
X5.08Y45.72
X5.08Y5.08
X63.5Y5.08
X71.12Y45.72
T2
G00X85.27Y44.96
M15
G01X84.17Y44.96
M16
G05
G00X85.27Y36.32
M15
G01X84.17Y36.32
M16
G05
G00X89.3Y44.96
M15
G01X88.5Y44.96
M16
G05
G00X89.3Y36.32
M15
G01X88.5Y36.32
M16
G05
T0
M30
