M48
; DRILL file {KiCad 7.0.9-7.0.9~ubuntu23.04.1} date Sat Dec  9 00:16:29 2023
; FORMAT={-:-/ absolute / metric / decimal}
; #@! TF.CreationDate,2023-12-09T00:16:29+00:00
; #@! TF.GenerationSoftware,Kicad,Pcbnew,7.0.9-7.0.9~ubuntu23.04.1
; #@! TF.FileFunction,Plated,1,4,PTH
FMAT,2
METRIC
; #@! TA.AperFunction,Plated,PTH,ViaDrill
T1C0.400
; #@! TA.AperFunction,Plated,PTH,ComponentDrill
T2C0.600
; #@! TA.AperFunction,Plated,PTH,ComponentDrill
T3C0.762
; #@! TA.AperFunction,Plated,PTH,ComponentDrill
T4C0.800
; #@! TA.AperFunction,Plated,PTH,ComponentDrill
T5C3.000
%
G90
G05
T1
X103.09Y-91.377
X105.762Y-109.43
X107.007Y-111.871
X108.145Y-95.314
X108.526Y-103.772
X108.755Y-113.145
X108.932Y-76.137
X108.932Y-78.677
X108.939Y-117.927
X109.009Y-80.607
X109.263Y-119.85
X109.948Y-84.773
X110.344Y-93.344
X111.472Y-76.137
X111.472Y-78.677
X112.012Y-113.24
X112.26Y-120.13
X112.895Y-98.895
X114.012Y-78.677
X114.419Y-80.734
X116.552Y-78.677
X117.06Y-116.345
X118.076Y-84.646
X118.381Y-111.545
X118.942Y-116.371
X119.092Y-78.677
X119.169Y-113.597
X120.058Y-102.655
X120.21Y-120.435
X120.406Y-106.103
X121.632Y-78.677
X121.632Y-116.942
X122.166Y-122.441
X123.995Y-81.242
X124.172Y-78.677
X124.172Y-116.942
X124.985Y-92.749
X125.131Y-107.589
X126.204Y-92.647
X126.712Y-116.942
X126.926Y-98.476
X127.474Y-93.434
X127.629Y-84.826
X128.08Y-106.261
X129.026Y-116.942
X129.252Y-76.137
X129.252Y-107.735
X129.564Y-90.615
X130.319Y-122.721
X131.615Y-92.114
X131.706Y-109.955
X131.792Y-76.137
X132.25Y-81.369
X132.707Y-122.924
X133.113Y-120.435
X133.956Y-105.017
X134.332Y-76.137
X134.663Y-82.944
X134.688Y-89.599
X134.956Y-119.375
X134.956Y-117.143
X135.983Y-113.881
X136.237Y-122.492
X136.466Y-106.846
X136.847Y-102.594
X137.863Y-91.987
X137.914Y-75.121
X139.514Y-118.707
X140.065Y-119.639
X140.307Y-114.879
X140.378Y-92.164
X141.025Y-102.286
X141.218Y-106.134
X141.55Y-107.909
X141.952Y-119.317
X142.006Y-113.494
X142.486Y-93.383
X142.714Y-82.055
X142.74Y-104.864
X142.918Y-101.105
X143.222Y-120.409
X143.857Y-110.046
X143.934Y-90.31
X143.984Y-84.265
X144.823Y-100.14
X145.181Y-94.662
X146.829Y-93.553
X147.007Y-115.456
X147.54Y-82.995
X147.876Y-95.47
X147.921Y-99.708
X147.972Y-98.514
X148.117Y-92.351
X148.15Y-87.161
X148.302Y-123.242
X149.318Y-76.137
X149.318Y-77.915
X149.572Y-112.967
X149.776Y-108.7
X149.776Y-110.681
X149.826Y-85.865
X149.953Y-82.081
X150.75Y-123.242
X151.604Y-75.629
X151.655Y-84.163
X151.858Y-96.203
X152.138Y-115.482
X152.265Y-112.484
X152.725Y-103.723
X152.976Y-82.639
X153.097Y-86.181
X153.105Y-87.821
X153.209Y-123.363
X153.382Y-75.629
X153.867Y-88.542
X154.085Y-86.329
X154.681Y-123.718
X155.16Y-75.629
X155.592Y-101.76
X155.684Y-85.957
X156.202Y-79.972
X156.314Y-97.742
X156.532Y-108.611
X156.684Y-75.629
X156.902Y-99.875
X157.065Y-77.026
X157.065Y-115.38
X157.099Y-88.705
X157.218Y-109.538
X158.081Y-78.855
X158.719Y-94.402
X158.97Y-77.026
X159.116Y-91.343
X159.49Y-93.764
X159.783Y-75.731
X159.783Y-114.847
X160.096Y-88.698
X160.164Y-110.579
X160.291Y-86.043
X160.42Y-94.131
X160.748Y-122.619
X160.75Y-89.704
X161.002Y-82.233
X161.096Y-91.553
X161.142Y-87.034
X161.25Y-92.544
X162.018Y-84.113
X162.501Y-101.029
X163.034Y-116.726
X163.415Y-106.338
X164.304Y-122.619
X164.406Y-101.918
X164.66Y-81.801
X164.762Y-75.248
X165.066Y-109.843
X165.143Y-117.133
X165.482Y-94.619
X166.032Y-84.519
X166.481Y-90.653
X167.149Y-111.9
X167.454Y-105.753
X167.931Y-87.648
X168.013Y-75.934
X168.064Y-116.726
X168.066Y-84.223
X168.114Y-122.619
X168.165Y-100.14
X168.306Y-112.403
X168.533Y-93.656
X169.854Y-81.635
X170.096Y-76.416
X170.4Y-122.568
X170.646Y-102.903
X170.985Y-87.77
X171.112Y-75.172
X171.158Y-107.115
X171.162Y-81.852
X171.826Y-110.973
X171.826Y-113.623
X171.916Y-106.463
X172.084Y-114.961
X172.178Y-97.27
X172.28Y-95.162
X172.737Y-99.114
X172.763Y-101.054
X173.194Y-105.169
X173.601Y-88.38
X174.439Y-84.113
X175.229Y-99.239
X175.328Y-91.479
X175.353Y-105.474
X176.75Y-105.753
X176.776Y-89.269
X177.276Y-109.523
X177.284Y-100.61
X177.301Y-112.188
X177.665Y-91.428
X178.173Y-96.66
X178.205Y-98.826
X178.401Y-101.156
X178.554Y-107.252
X178.935Y-89.294
X178.97Y-91.406
X179.214Y-75.705
X179.335Y-104.903
X179.341Y-87.059
X179.392Y-85.535
X179.443Y-114.237
X179.925Y-121.984
X180.136Y-103.753
X180.56Y-116.65
X180.595Y-114.23
X180.814Y-120.079
X181.348Y-75.172
X182.237Y-94.069
X183.075Y-74.588
X184.116Y-109.411
X185.64Y-102.553
X185.64Y-110.046
X185.691Y-103.925
X185.894Y-89.853
X185.945Y-74.715
X186.352Y-83.147
X186.402Y-81.877
X186.428Y-77.813
X187.164Y-89.853
X187.164Y-97.6
X187.164Y-108.395
X187.164Y-115.126
X187.164Y-116.523
X187.164Y-118.047
X187.164Y-119.825
X187.418Y-92.647
X187.545Y-94.552
X187.901Y-74.588
X187.926Y-102.553
X188.079Y-77.864
X188.434Y-98.489
X188.434Y-108.395
X188.688Y-89.853
X189.196Y-102.553
X189.247Y-74.588
X189.323Y-77.813
T3
X109.132Y-87.997
X114.132Y-87.997
T4
X155.581Y-77.966
X160.461Y-77.966
T5
X103.852Y-78.677
X103.852Y-119.317
X174.972Y-78.677
X174.972Y-119.317
T2
G00X183.534Y-113.334
M15
G01X182.434Y-113.334
M16
G05
G00X183.534Y-121.974
M15
G01X182.434Y-121.974
M16
G05
G00X187.564Y-113.334
M15
G01X186.764Y-113.334
M16
G05
G00X187.564Y-121.974
M15
G01X186.764Y-121.974
M16
G05
T0
M30
