%TF.GenerationSoftware,KiCad,Pcbnew,6.0.4-6f826c9f35~116~ubuntu20.04.1*%
%TF.CreationDate,2022-05-02T13:01:33+00:00*%
%TF.ProjectId,USTSIPIN01A,55535453-4950-4494-9e30-31412e6b6963,REV*%
%TF.SameCoordinates,Original*%
%TF.FileFunction,Legend,Top*%
%TF.FilePolarity,Positive*%
%FSLAX46Y46*%
G04 Gerber Fmt 4.6, Leading zero omitted, Abs format (unit mm)*
G04 Created by KiCad (PCBNEW 6.0.4-6f826c9f35~116~ubuntu20.04.1) date 2022-05-02 13:01:33*
%MOMM*%
%LPD*%
G01*
G04 APERTURE LIST*
%ADD10C,0.300000*%
%ADD11C,0.150000*%
%ADD12C,0.119380*%
%ADD13C,0.099060*%
%ADD14C,0.100000*%
%ADD15C,0.120000*%
%ADD16R,1.524000X1.524000*%
G04 APERTURE END LIST*
D10*
X75911809Y30399904D02*
X75478476Y31018952D01*
X75168952Y30399904D02*
X75168952Y31699904D01*
X75664190Y31699904D01*
X75788000Y31638000D01*
X75849904Y31576095D01*
X75911809Y31452285D01*
X75911809Y31266571D01*
X75849904Y31142761D01*
X75788000Y31080857D01*
X75664190Y31018952D01*
X75168952Y31018952D01*
X76407047Y30461809D02*
X76592761Y30399904D01*
X76902285Y30399904D01*
X77026095Y30461809D01*
X77088000Y30523714D01*
X77149904Y30647523D01*
X77149904Y30771333D01*
X77088000Y30895142D01*
X77026095Y30957047D01*
X76902285Y31018952D01*
X76654666Y31080857D01*
X76530857Y31142761D01*
X76468952Y31204666D01*
X76407047Y31328476D01*
X76407047Y31452285D01*
X76468952Y31576095D01*
X76530857Y31638000D01*
X76654666Y31699904D01*
X76964190Y31699904D01*
X77149904Y31638000D01*
X77521333Y31699904D02*
X78264190Y31699904D01*
X77892761Y30399904D02*
X77892761Y31699904D01*
X78635619Y31266571D02*
X79564190Y31266571D01*
X79007047Y31823714D02*
X78635619Y30152285D01*
X79440380Y30709428D02*
X78511809Y30709428D01*
X79068952Y30152285D02*
X79440380Y31823714D01*
X53839904Y46082809D02*
X54025619Y46020904D01*
X54335142Y46020904D01*
X54458952Y46082809D01*
X54520857Y46144714D01*
X54582761Y46268523D01*
X54582761Y46392333D01*
X54520857Y46516142D01*
X54458952Y46578047D01*
X54335142Y46639952D01*
X54087523Y46701857D01*
X53963714Y46763761D01*
X53901809Y46825666D01*
X53839904Y46949476D01*
X53839904Y47073285D01*
X53901809Y47197095D01*
X53963714Y47259000D01*
X54087523Y47320904D01*
X54397047Y47320904D01*
X54582761Y47259000D01*
X55139904Y46020904D02*
X55139904Y47320904D01*
X55635142Y47320904D01*
X55758952Y47259000D01*
X55820857Y47197095D01*
X55882761Y47073285D01*
X55882761Y46887571D01*
X55820857Y46763761D01*
X55758952Y46701857D01*
X55635142Y46639952D01*
X55139904Y46639952D01*
X56378000Y46392333D02*
X56997047Y46392333D01*
X56254190Y46020904D02*
X56687523Y47320904D01*
X57120857Y46020904D01*
X58297047Y46144714D02*
X58235142Y46082809D01*
X58049428Y46020904D01*
X57925619Y46020904D01*
X57739904Y46082809D01*
X57616095Y46206619D01*
X57554190Y46330428D01*
X57492285Y46578047D01*
X57492285Y46763761D01*
X57554190Y47011380D01*
X57616095Y47135190D01*
X57739904Y47259000D01*
X57925619Y47320904D01*
X58049428Y47320904D01*
X58235142Y47259000D01*
X58297047Y47197095D01*
X58854190Y46701857D02*
X59287523Y46701857D01*
X59473238Y46020904D02*
X58854190Y46020904D01*
X58854190Y47320904D01*
X59473238Y47320904D01*
X60030380Y46020904D02*
X60030380Y47320904D01*
X60339904Y47320904D01*
X60525619Y47259000D01*
X60649428Y47135190D01*
X60711333Y47011380D01*
X60773238Y46763761D01*
X60773238Y46578047D01*
X60711333Y46330428D01*
X60649428Y46206619D01*
X60525619Y46082809D01*
X60339904Y46020904D01*
X60030380Y46020904D01*
X61578000Y47320904D02*
X61825619Y47320904D01*
X61949428Y47259000D01*
X62073238Y47135190D01*
X62135142Y46887571D01*
X62135142Y46454238D01*
X62073238Y46206619D01*
X61949428Y46082809D01*
X61825619Y46020904D01*
X61578000Y46020904D01*
X61454190Y46082809D01*
X61330380Y46206619D01*
X61268476Y46454238D01*
X61268476Y46887571D01*
X61330380Y47135190D01*
X61454190Y47259000D01*
X61578000Y47320904D01*
X62630380Y46082809D02*
X62816095Y46020904D01*
X63125619Y46020904D01*
X63249428Y46082809D01*
X63311333Y46144714D01*
X63373238Y46268523D01*
X63373238Y46392333D01*
X63311333Y46516142D01*
X63249428Y46578047D01*
X63125619Y46639952D01*
X62878000Y46701857D01*
X62754190Y46763761D01*
X62692285Y46825666D01*
X62630380Y46949476D01*
X62630380Y47073285D01*
X62692285Y47197095D01*
X62754190Y47259000D01*
X62878000Y47320904D01*
X63187523Y47320904D01*
X63373238Y47259000D01*
X64178000Y47320904D02*
X64301809Y47320904D01*
X64425619Y47259000D01*
X64487523Y47197095D01*
X64549428Y47073285D01*
X64611333Y46825666D01*
X64611333Y46516142D01*
X64549428Y46268523D01*
X64487523Y46144714D01*
X64425619Y46082809D01*
X64301809Y46020904D01*
X64178000Y46020904D01*
X64054190Y46082809D01*
X63992285Y46144714D01*
X63930380Y46268523D01*
X63868476Y46516142D01*
X63868476Y46825666D01*
X63930380Y47073285D01*
X63992285Y47197095D01*
X64054190Y47259000D01*
X64178000Y47320904D01*
X65849428Y46020904D02*
X65106571Y46020904D01*
X65478000Y46020904D02*
X65478000Y47320904D01*
X65354190Y47135190D01*
X65230380Y47011380D01*
X65106571Y46949476D01*
X66344666Y46392333D02*
X66963714Y46392333D01*
X66220857Y46020904D02*
X66654190Y47320904D01*
X67087523Y46020904D01*
X67211333Y45897095D02*
X68201809Y45897095D01*
X68511333Y46020904D02*
X68511333Y47320904D01*
X69006571Y47320904D01*
X69130380Y47259000D01*
X69192285Y47197095D01*
X69254190Y47073285D01*
X69254190Y46887571D01*
X69192285Y46763761D01*
X69130380Y46701857D01*
X69006571Y46639952D01*
X68511333Y46639952D01*
X70554190Y46144714D02*
X70492285Y46082809D01*
X70306571Y46020904D01*
X70182761Y46020904D01*
X69997047Y46082809D01*
X69873238Y46206619D01*
X69811333Y46330428D01*
X69749428Y46578047D01*
X69749428Y46763761D01*
X69811333Y47011380D01*
X69873238Y47135190D01*
X69997047Y47259000D01*
X70182761Y47320904D01*
X70306571Y47320904D01*
X70492285Y47259000D01*
X70554190Y47197095D01*
X71544666Y46701857D02*
X71730380Y46639952D01*
X71792285Y46578047D01*
X71854190Y46454238D01*
X71854190Y46268523D01*
X71792285Y46144714D01*
X71730380Y46082809D01*
X71606571Y46020904D01*
X71111333Y46020904D01*
X71111333Y47320904D01*
X71544666Y47320904D01*
X71668476Y47259000D01*
X71730380Y47197095D01*
X71792285Y47073285D01*
X71792285Y46949476D01*
X71730380Y46825666D01*
X71668476Y46763761D01*
X71544666Y46701857D01*
X71111333Y46701857D01*
X72658952Y47320904D02*
X72782761Y47320904D01*
X72906571Y47259000D01*
X72968476Y47197095D01*
X73030380Y47073285D01*
X73092285Y46825666D01*
X73092285Y46516142D01*
X73030380Y46268523D01*
X72968476Y46144714D01*
X72906571Y46082809D01*
X72782761Y46020904D01*
X72658952Y46020904D01*
X72535142Y46082809D01*
X72473238Y46144714D01*
X72411333Y46268523D01*
X72349428Y46516142D01*
X72349428Y46825666D01*
X72411333Y47073285D01*
X72473238Y47197095D01*
X72535142Y47259000D01*
X72658952Y47320904D01*
X74330380Y46020904D02*
X73587523Y46020904D01*
X73958952Y46020904D02*
X73958952Y47320904D01*
X73835142Y47135190D01*
X73711333Y47011380D01*
X73587523Y46949476D01*
X75320857Y46701857D02*
X75506571Y46639952D01*
X75568476Y46578047D01*
X75630380Y46454238D01*
X75630380Y46268523D01*
X75568476Y46144714D01*
X75506571Y46082809D01*
X75382761Y46020904D01*
X74887523Y46020904D01*
X74887523Y47320904D01*
X75320857Y47320904D01*
X75444666Y47259000D01*
X75506571Y47197095D01*
X75568476Y47073285D01*
X75568476Y46949476D01*
X75506571Y46825666D01*
X75444666Y46763761D01*
X75320857Y46701857D01*
X74887523Y46701857D01*
X76472142Y34493904D02*
X77215000Y34493904D01*
X76843571Y33193904D02*
X76843571Y34493904D01*
X77524523Y34493904D02*
X78391190Y33193904D01*
X78391190Y34493904D02*
X77524523Y33193904D01*
X79134047Y34493904D02*
X79257857Y34493904D01*
X79381666Y34432000D01*
X79443571Y34370095D01*
X79505476Y34246285D01*
X79567380Y33998666D01*
X79567380Y33689142D01*
X79505476Y33441523D01*
X79443571Y33317714D01*
X79381666Y33255809D01*
X79257857Y33193904D01*
X79134047Y33193904D01*
X79010238Y33255809D01*
X78948333Y33317714D01*
X78886428Y33441523D01*
X78824523Y33689142D01*
X78824523Y33998666D01*
X78886428Y34246285D01*
X78948333Y34370095D01*
X79010238Y34432000D01*
X79134047Y34493904D01*
X77883190Y24333904D02*
X77264142Y24333904D01*
X77202238Y23714857D01*
X77264142Y23776761D01*
X77387952Y23838666D01*
X77697476Y23838666D01*
X77821285Y23776761D01*
X77883190Y23714857D01*
X77945095Y23591047D01*
X77945095Y23281523D01*
X77883190Y23157714D01*
X77821285Y23095809D01*
X77697476Y23033904D01*
X77387952Y23033904D01*
X77264142Y23095809D01*
X77202238Y23157714D01*
X78316523Y24333904D02*
X78749857Y23033904D01*
X79183190Y24333904D01*
X73027190Y33193904D02*
X72593857Y33812952D01*
X72284333Y33193904D02*
X72284333Y34493904D01*
X72779571Y34493904D01*
X72903380Y34432000D01*
X72965285Y34370095D01*
X73027190Y34246285D01*
X73027190Y34060571D01*
X72965285Y33936761D01*
X72903380Y33874857D01*
X72779571Y33812952D01*
X72284333Y33812952D01*
X73460523Y34493904D02*
X74327190Y33193904D01*
X74327190Y34493904D02*
X73460523Y33193904D01*
X75070047Y34493904D02*
X75193857Y34493904D01*
X75317666Y34432000D01*
X75379571Y34370095D01*
X75441476Y34246285D01*
X75503380Y33998666D01*
X75503380Y33689142D01*
X75441476Y33441523D01*
X75379571Y33317714D01*
X75317666Y33255809D01*
X75193857Y33193904D01*
X75070047Y33193904D01*
X74946238Y33255809D01*
X74884333Y33317714D01*
X74822428Y33441523D01*
X74760523Y33689142D01*
X74760523Y33998666D01*
X74822428Y34246285D01*
X74884333Y34370095D01*
X74946238Y34432000D01*
X75070047Y34493904D01*
X75902238Y26492904D02*
X76707000Y26492904D01*
X76273666Y25997666D01*
X76459380Y25997666D01*
X76583190Y25935761D01*
X76645095Y25873857D01*
X76707000Y25750047D01*
X76707000Y25440523D01*
X76645095Y25316714D01*
X76583190Y25254809D01*
X76459380Y25192904D01*
X76087952Y25192904D01*
X75964142Y25254809D01*
X75902238Y25316714D01*
X77078428Y26492904D02*
X77511761Y25192904D01*
X77945095Y26492904D01*
X78254619Y26492904D02*
X79059380Y26492904D01*
X78626047Y25997666D01*
X78811761Y25997666D01*
X78935571Y25935761D01*
X78997476Y25873857D01*
X79059380Y25750047D01*
X79059380Y25440523D01*
X78997476Y25316714D01*
X78935571Y25254809D01*
X78811761Y25192904D01*
X78440333Y25192904D01*
X78316523Y25254809D01*
X78254619Y25316714D01*
X76335571Y29098000D02*
X76211761Y29159904D01*
X76026047Y29159904D01*
X75840333Y29098000D01*
X75716523Y28974190D01*
X75654619Y28850380D01*
X75592714Y28602761D01*
X75592714Y28417047D01*
X75654619Y28169428D01*
X75716523Y28045619D01*
X75840333Y27921809D01*
X76026047Y27859904D01*
X76149857Y27859904D01*
X76335571Y27921809D01*
X76397476Y27983714D01*
X76397476Y28417047D01*
X76149857Y28417047D01*
X76954619Y27859904D02*
X76954619Y29159904D01*
X77697476Y27859904D01*
X77697476Y29159904D01*
X78316523Y27859904D02*
X78316523Y29159904D01*
X78626047Y29159904D01*
X78811761Y29098000D01*
X78935571Y28974190D01*
X78997476Y28850380D01*
X79059380Y28602761D01*
X79059380Y28417047D01*
X78997476Y28169428D01*
X78935571Y28045619D01*
X78811761Y27921809D01*
X78626047Y27859904D01*
X78316523Y27859904D01*
X72349428Y35352904D02*
X72349428Y36652904D01*
X72844666Y36652904D01*
X72968476Y36591000D01*
X73030380Y36529095D01*
X73092285Y36405285D01*
X73092285Y36219571D01*
X73030380Y36095761D01*
X72968476Y36033857D01*
X72844666Y35971952D01*
X72349428Y35971952D01*
X74392285Y35476714D02*
X74330380Y35414809D01*
X74144666Y35352904D01*
X74020857Y35352904D01*
X73835142Y35414809D01*
X73711333Y35538619D01*
X73649428Y35662428D01*
X73587523Y35910047D01*
X73587523Y36095761D01*
X73649428Y36343380D01*
X73711333Y36467190D01*
X73835142Y36591000D01*
X74020857Y36652904D01*
X74144666Y36652904D01*
X74330380Y36591000D01*
X74392285Y36529095D01*
X74825619Y36652904D02*
X75692285Y36652904D01*
X75135142Y35352904D01*
X76413428Y35352904D02*
X76413428Y36652904D01*
X76908666Y36652904D01*
X77032476Y36591000D01*
X77094380Y36529095D01*
X77156285Y36405285D01*
X77156285Y36219571D01*
X77094380Y36095761D01*
X77032476Y36033857D01*
X76908666Y35971952D01*
X76413428Y35971952D01*
X78456285Y35476714D02*
X78394380Y35414809D01*
X78208666Y35352904D01*
X78084857Y35352904D01*
X77899142Y35414809D01*
X77775333Y35538619D01*
X77713428Y35662428D01*
X77651523Y35910047D01*
X77651523Y36095761D01*
X77713428Y36343380D01*
X77775333Y36467190D01*
X77899142Y36591000D01*
X78084857Y36652904D01*
X78208666Y36652904D01*
X78394380Y36591000D01*
X78456285Y36529095D01*
X78889619Y36652904D02*
X79694380Y36652904D01*
X79261047Y36157666D01*
X79446761Y36157666D01*
X79570571Y36095761D01*
X79632476Y36033857D01*
X79694380Y35910047D01*
X79694380Y35600523D01*
X79632476Y35476714D01*
X79570571Y35414809D01*
X79446761Y35352904D01*
X79075333Y35352904D01*
X78951523Y35414809D01*
X78889619Y35476714D01*
X69818571Y4615571D02*
X69890000Y4687000D01*
X70032857Y4758428D01*
X70390000Y4758428D01*
X70532857Y4687000D01*
X70604285Y4615571D01*
X70675714Y4472714D01*
X70675714Y4329857D01*
X70604285Y4115571D01*
X69747142Y3258428D01*
X70675714Y3258428D01*
X71604285Y4758428D02*
X71747142Y4758428D01*
X71890000Y4687000D01*
X71961428Y4615571D01*
X72032857Y4472714D01*
X72104285Y4187000D01*
X72104285Y3829857D01*
X72032857Y3544142D01*
X71961428Y3401285D01*
X71890000Y3329857D01*
X71747142Y3258428D01*
X71604285Y3258428D01*
X71461428Y3329857D01*
X71390000Y3401285D01*
X71318571Y3544142D01*
X71247142Y3829857D01*
X71247142Y4187000D01*
X71318571Y4472714D01*
X71390000Y4615571D01*
X71461428Y4687000D01*
X71604285Y4758428D01*
X72675714Y4615571D02*
X72747142Y4687000D01*
X72890000Y4758428D01*
X73247142Y4758428D01*
X73390000Y4687000D01*
X73461428Y4615571D01*
X73532857Y4472714D01*
X73532857Y4329857D01*
X73461428Y4115571D01*
X72604285Y3258428D01*
X73532857Y3258428D01*
X74461428Y4758428D02*
X74604285Y4758428D01*
X74747142Y4687000D01*
X74818571Y4615571D01*
X74890000Y4472714D01*
X74961428Y4187000D01*
X74961428Y3829857D01*
X74890000Y3544142D01*
X74818571Y3401285D01*
X74747142Y3329857D01*
X74604285Y3258428D01*
X74461428Y3258428D01*
X74318571Y3329857D01*
X74247142Y3401285D01*
X74175714Y3544142D01*
X74104285Y3829857D01*
X74104285Y4187000D01*
X74175714Y4472714D01*
X74247142Y4615571D01*
X74318571Y4687000D01*
X74461428Y4758428D01*
X69513000Y7298428D02*
X69513000Y6227000D01*
X69441571Y6012714D01*
X69298714Y5869857D01*
X69084428Y5798428D01*
X68941571Y5798428D01*
X70155857Y6227000D02*
X70870142Y6227000D01*
X70013000Y5798428D02*
X70513000Y7298428D01*
X71013000Y5798428D01*
X72370142Y5941285D02*
X72298714Y5869857D01*
X72084428Y5798428D01*
X71941571Y5798428D01*
X71727285Y5869857D01*
X71584428Y6012714D01*
X71513000Y6155571D01*
X71441571Y6441285D01*
X71441571Y6655571D01*
X71513000Y6941285D01*
X71584428Y7084142D01*
X71727285Y7227000D01*
X71941571Y7298428D01*
X72084428Y7298428D01*
X72298714Y7227000D01*
X72370142Y7155571D01*
X73013000Y5798428D02*
X73013000Y7298428D01*
X73013000Y6584142D02*
X73870142Y6584142D01*
X73870142Y5798428D02*
X73870142Y7298428D01*
X74870142Y7298428D02*
X75155857Y7298428D01*
X75298714Y7227000D01*
X75441571Y7084142D01*
X75513000Y6798428D01*
X75513000Y6298428D01*
X75441571Y6012714D01*
X75298714Y5869857D01*
X75155857Y5798428D01*
X74870142Y5798428D01*
X74727285Y5869857D01*
X74584428Y6012714D01*
X74513000Y6298428D01*
X74513000Y6798428D01*
X74584428Y7084142D01*
X74727285Y7227000D01*
X74870142Y7298428D01*
D11*
%TO.C,D2*%
X12121904Y28617619D02*
X12121904Y29617619D01*
X12360000Y29617619D01*
X12502857Y29570000D01*
X12598095Y29474761D01*
X12645714Y29379523D01*
X12693333Y29189047D01*
X12693333Y29046190D01*
X12645714Y28855714D01*
X12598095Y28760476D01*
X12502857Y28665238D01*
X12360000Y28617619D01*
X12121904Y28617619D01*
X13074285Y29522380D02*
X13121904Y29570000D01*
X13217142Y29617619D01*
X13455238Y29617619D01*
X13550476Y29570000D01*
X13598095Y29522380D01*
X13645714Y29427142D01*
X13645714Y29331904D01*
X13598095Y29189047D01*
X13026666Y28617619D01*
X13645714Y28617619D01*
X16408095Y32427619D02*
X16408095Y33427619D01*
X16979523Y32427619D02*
X16550952Y32999047D01*
X16979523Y33427619D02*
X16408095Y32856190D01*
%TO.C,M5*%
X39038380Y36423476D02*
X38038380Y36423476D01*
X38752666Y36756809D01*
X38038380Y37090142D01*
X39038380Y37090142D01*
X38038380Y38042523D02*
X38038380Y37566333D01*
X38514571Y37518714D01*
X38466952Y37566333D01*
X38419333Y37661571D01*
X38419333Y37899666D01*
X38466952Y37994904D01*
X38514571Y38042523D01*
X38609809Y38090142D01*
X38847904Y38090142D01*
X38943142Y38042523D01*
X38990761Y37994904D01*
X39038380Y37899666D01*
X39038380Y37661571D01*
X38990761Y37566333D01*
X38943142Y37518714D01*
%TO.C,M8*%
X16462476Y42347619D02*
X16462476Y43347619D01*
X16795809Y42633333D01*
X17129142Y43347619D01*
X17129142Y42347619D01*
X17748190Y42919047D02*
X17652952Y42966666D01*
X17605333Y43014285D01*
X17557714Y43109523D01*
X17557714Y43157142D01*
X17605333Y43252380D01*
X17652952Y43300000D01*
X17748190Y43347619D01*
X17938666Y43347619D01*
X18033904Y43300000D01*
X18081523Y43252380D01*
X18129142Y43157142D01*
X18129142Y43109523D01*
X18081523Y43014285D01*
X18033904Y42966666D01*
X17938666Y42919047D01*
X17748190Y42919047D01*
X17652952Y42871428D01*
X17605333Y42823809D01*
X17557714Y42728571D01*
X17557714Y42538095D01*
X17605333Y42442857D01*
X17652952Y42395238D01*
X17748190Y42347619D01*
X17938666Y42347619D01*
X18033904Y42395238D01*
X18081523Y42442857D01*
X18129142Y42538095D01*
X18129142Y42728571D01*
X18081523Y42823809D01*
X18033904Y42871428D01*
X17938666Y42919047D01*
%TO.C,Y1*%
X52255809Y38092809D02*
X52255809Y37616619D01*
X51922476Y38616619D02*
X52255809Y38092809D01*
X52589142Y38616619D01*
X53446285Y37616619D02*
X52874857Y37616619D01*
X53160571Y37616619D02*
X53160571Y38616619D01*
X53065333Y38473761D01*
X52970095Y38378523D01*
X52874857Y38330904D01*
%TO.C,J3*%
X72652666Y-10810380D02*
X72652666Y-11524666D01*
X72605047Y-11667523D01*
X72509809Y-11762761D01*
X72366952Y-11810380D01*
X72271714Y-11810380D01*
X73033619Y-10810380D02*
X73652666Y-10810380D01*
X73319333Y-11191333D01*
X73462190Y-11191333D01*
X73557428Y-11238952D01*
X73605047Y-11286571D01*
X73652666Y-11381809D01*
X73652666Y-11619904D01*
X73605047Y-11715142D01*
X73557428Y-11762761D01*
X73462190Y-11810380D01*
X73176476Y-11810380D01*
X73081238Y-11762761D01*
X73033619Y-11715142D01*
%TO.C,J1*%
X73892666Y-3360380D02*
X73892666Y-4074666D01*
X73845047Y-4217523D01*
X73749809Y-4312761D01*
X73606952Y-4360380D01*
X73511714Y-4360380D01*
X74892666Y-4360380D02*
X74321238Y-4360380D01*
X74606952Y-4360380D02*
X74606952Y-3360380D01*
X74511714Y-3503238D01*
X74416476Y-3598476D01*
X74321238Y-3646095D01*
D12*
%TO.C,Q1*%
X32557355Y-52956711D02*
X32521070Y-53029282D01*
X32448498Y-53101854D01*
X32339641Y-53210711D01*
X32303355Y-53283282D01*
X32303355Y-53355854D01*
X32484784Y-53319568D02*
X32448498Y-53392140D01*
X32375927Y-53464711D01*
X32230784Y-53500997D01*
X31976784Y-53500997D01*
X31831641Y-53464711D01*
X31759070Y-53392140D01*
X31722784Y-53319568D01*
X31722784Y-53174425D01*
X31759070Y-53101854D01*
X31831641Y-53029282D01*
X31976784Y-52992997D01*
X32230784Y-52992997D01*
X32375927Y-53029282D01*
X32448498Y-53101854D01*
X32484784Y-53174425D01*
X32484784Y-53319568D01*
X32484784Y-52267282D02*
X32484784Y-52702711D01*
X32484784Y-52484997D02*
X31722784Y-52484997D01*
X31831641Y-52557568D01*
X31904212Y-52630140D01*
X31940498Y-52702711D01*
D13*
X29311054Y-52947458D02*
X29382537Y-52971286D01*
X29406364Y-52995113D01*
X29430192Y-53042769D01*
X29430192Y-53114251D01*
X29406364Y-53161907D01*
X29382537Y-53185734D01*
X29334881Y-53209562D01*
X29144260Y-53209562D01*
X29144260Y-52709182D01*
X29311054Y-52709182D01*
X29358709Y-52733010D01*
X29382537Y-52756837D01*
X29406364Y-52804492D01*
X29406364Y-52852148D01*
X29382537Y-52899803D01*
X29358709Y-52923630D01*
X29311054Y-52947458D01*
X29144260Y-52947458D01*
X29811434Y-52947458D02*
X29644640Y-52947458D01*
X29644640Y-53209562D02*
X29644640Y-52709182D01*
X29882917Y-52709182D01*
X30145020Y-52923630D02*
X30097365Y-52899803D01*
X30073538Y-52875975D01*
X30049710Y-52828320D01*
X30049710Y-52804492D01*
X30073538Y-52756837D01*
X30097365Y-52733010D01*
X30145020Y-52709182D01*
X30240331Y-52709182D01*
X30287986Y-52733010D01*
X30311814Y-52756837D01*
X30335641Y-52804492D01*
X30335641Y-52828320D01*
X30311814Y-52875975D01*
X30287986Y-52899803D01*
X30240331Y-52923630D01*
X30145020Y-52923630D01*
X30097365Y-52947458D01*
X30073538Y-52971286D01*
X30049710Y-53018941D01*
X30049710Y-53114251D01*
X30073538Y-53161907D01*
X30097365Y-53185734D01*
X30145020Y-53209562D01*
X30240331Y-53209562D01*
X30287986Y-53185734D01*
X30311814Y-53161907D01*
X30335641Y-53114251D01*
X30335641Y-53018941D01*
X30311814Y-52971286D01*
X30287986Y-52947458D01*
X30240331Y-52923630D01*
X30764539Y-52709182D02*
X30669228Y-52709182D01*
X30621573Y-52733010D01*
X30597745Y-52756837D01*
X30550090Y-52828320D01*
X30526262Y-52923630D01*
X30526262Y-53114251D01*
X30550090Y-53161907D01*
X30573918Y-53185734D01*
X30621573Y-53209562D01*
X30716883Y-53209562D01*
X30764539Y-53185734D01*
X30788366Y-53161907D01*
X30812194Y-53114251D01*
X30812194Y-52995113D01*
X30788366Y-52947458D01*
X30764539Y-52923630D01*
X30716883Y-52899803D01*
X30621573Y-52899803D01*
X30573918Y-52923630D01*
X30550090Y-52947458D01*
X30526262Y-52995113D01*
X31002815Y-52756837D02*
X31026642Y-52733010D01*
X31074298Y-52709182D01*
X31193436Y-52709182D01*
X31241091Y-52733010D01*
X31264919Y-52756837D01*
X31288746Y-52804492D01*
X31288746Y-52852148D01*
X31264919Y-52923630D01*
X30978987Y-53209562D01*
X31288746Y-53209562D01*
D11*
%TO.C,U7*%
X133134095Y-3360380D02*
X133134095Y-4169904D01*
X133181714Y-4265142D01*
X133229333Y-4312761D01*
X133324571Y-4360380D01*
X133515047Y-4360380D01*
X133610285Y-4312761D01*
X133657904Y-4265142D01*
X133705523Y-4169904D01*
X133705523Y-3360380D01*
X134086476Y-3360380D02*
X134753142Y-3360380D01*
X134324571Y-4360380D01*
%TO.C,J8*%
X109257666Y-3310380D02*
X109257666Y-4024666D01*
X109210047Y-4167523D01*
X109114809Y-4262761D01*
X108971952Y-4310380D01*
X108876714Y-4310380D01*
X109876714Y-3738952D02*
X109781476Y-3691333D01*
X109733857Y-3643714D01*
X109686238Y-3548476D01*
X109686238Y-3500857D01*
X109733857Y-3405619D01*
X109781476Y-3358000D01*
X109876714Y-3310380D01*
X110067190Y-3310380D01*
X110162428Y-3358000D01*
X110210047Y-3405619D01*
X110257666Y-3500857D01*
X110257666Y-3548476D01*
X110210047Y-3643714D01*
X110162428Y-3691333D01*
X110067190Y-3738952D01*
X109876714Y-3738952D01*
X109781476Y-3786571D01*
X109733857Y-3834190D01*
X109686238Y-3929428D01*
X109686238Y-4119904D01*
X109733857Y-4215142D01*
X109781476Y-4262761D01*
X109876714Y-4310380D01*
X110067190Y-4310380D01*
X110162428Y-4262761D01*
X110210047Y-4215142D01*
X110257666Y-4119904D01*
X110257666Y-3929428D01*
X110210047Y-3834190D01*
X110162428Y-3786571D01*
X110067190Y-3738952D01*
%TO.C,U9*%
X102314095Y-20950380D02*
X102314095Y-21759904D01*
X102361714Y-21855142D01*
X102409333Y-21902761D01*
X102504571Y-21950380D01*
X102695047Y-21950380D01*
X102790285Y-21902761D01*
X102837904Y-21855142D01*
X102885523Y-21759904D01*
X102885523Y-20950380D01*
X103409333Y-21950380D02*
X103599809Y-21950380D01*
X103695047Y-21902761D01*
X103742666Y-21855142D01*
X103837904Y-21712285D01*
X103885523Y-21521809D01*
X103885523Y-21140857D01*
X103837904Y-21045619D01*
X103790285Y-20998000D01*
X103695047Y-20950380D01*
X103504571Y-20950380D01*
X103409333Y-20998000D01*
X103361714Y-21045619D01*
X103314095Y-21140857D01*
X103314095Y-21378952D01*
X103361714Y-21474190D01*
X103409333Y-21521809D01*
X103504571Y-21569428D01*
X103695047Y-21569428D01*
X103790285Y-21521809D01*
X103837904Y-21474190D01*
X103885523Y-21378952D01*
%TO.C,D1*%
X107237904Y-25740380D02*
X107237904Y-24740380D01*
X107476000Y-24740380D01*
X107618857Y-24788000D01*
X107714095Y-24883238D01*
X107761714Y-24978476D01*
X107809333Y-25168952D01*
X107809333Y-25311809D01*
X107761714Y-25502285D01*
X107714095Y-25597523D01*
X107618857Y-25692761D01*
X107476000Y-25740380D01*
X107237904Y-25740380D01*
X108761714Y-25740380D02*
X108190285Y-25740380D01*
X108476000Y-25740380D02*
X108476000Y-24740380D01*
X108380761Y-24883238D01*
X108285523Y-24978476D01*
X108190285Y-25026095D01*
%TO.C,J2*%
X51481780Y-25692333D02*
X52196066Y-25692333D01*
X52338923Y-25739952D01*
X52434161Y-25835190D01*
X52481780Y-25978047D01*
X52481780Y-26073285D01*
X51577019Y-25263761D02*
X51529400Y-25216142D01*
X51481780Y-25120904D01*
X51481780Y-24882809D01*
X51529400Y-24787571D01*
X51577019Y-24739952D01*
X51672257Y-24692333D01*
X51767495Y-24692333D01*
X51910352Y-24739952D01*
X52481780Y-25311380D01*
X52481780Y-24692333D01*
%TO.C,U6*%
X85434095Y-3360380D02*
X85434095Y-4169904D01*
X85481714Y-4265142D01*
X85529333Y-4312761D01*
X85624571Y-4360380D01*
X85815047Y-4360380D01*
X85910285Y-4312761D01*
X85957904Y-4265142D01*
X86005523Y-4169904D01*
X86005523Y-3360380D01*
X86910285Y-3360380D02*
X86719809Y-3360380D01*
X86624571Y-3408000D01*
X86576952Y-3455619D01*
X86481714Y-3598476D01*
X86434095Y-3788952D01*
X86434095Y-4169904D01*
X86481714Y-4265142D01*
X86529333Y-4312761D01*
X86624571Y-4360380D01*
X86815047Y-4360380D01*
X86910285Y-4312761D01*
X86957904Y-4265142D01*
X87005523Y-4169904D01*
X87005523Y-3931809D01*
X86957904Y-3836571D01*
X86910285Y-3788952D01*
X86815047Y-3741333D01*
X86624571Y-3741333D01*
X86529333Y-3788952D01*
X86481714Y-3836571D01*
X86434095Y-3931809D01*
%TO.C,J1*%
X88773000Y24638000D02*
X83693000Y24638000D01*
X88773000Y27178000D02*
X88773000Y24638000D01*
X83693000Y27178000D02*
X88773000Y27178000D01*
X83693000Y24638000D02*
X83693000Y27178000D01*
%TO.C,J2*%
X83693000Y27178000D02*
X83693000Y29718000D01*
X83693000Y29718000D02*
X88773000Y29718000D01*
X88773000Y27178000D02*
X83693000Y27178000D01*
X88773000Y29718000D02*
X88773000Y27178000D01*
%TO.C,J3*%
X83693000Y24638000D02*
X88773000Y24638000D01*
X83693000Y22098000D02*
X83693000Y24638000D01*
X88773000Y24638000D02*
X88773000Y22098000D01*
X88773000Y22098000D02*
X83693000Y22098000D01*
D14*
%TO.C,D2*%
X19960000Y9690000D02*
X19960000Y36690000D01*
X19960000Y9690000D02*
X5760000Y9690000D01*
X5760000Y9690000D02*
X5760000Y36690000D01*
X19960000Y36690000D02*
X5760000Y36690000D01*
D11*
%TO.C,J4*%
X83693000Y37338000D02*
X86233000Y37338000D01*
X86233000Y37338000D02*
X86233000Y34798000D01*
X83693000Y34798000D02*
X83693000Y37338000D01*
X86233000Y34798000D02*
X83693000Y34798000D01*
%TO.C,J5*%
X88773000Y34798000D02*
X86233000Y34798000D01*
X86233000Y37338000D02*
X88773000Y37338000D01*
X88773000Y37338000D02*
X88773000Y34798000D01*
X86233000Y34798000D02*
X86233000Y37338000D01*
%TO.C,J6*%
X83693000Y34798000D02*
X86233000Y34798000D01*
X86233000Y34798000D02*
X86233000Y32258000D01*
X83693000Y32258000D02*
X83693000Y34798000D01*
X86233000Y32258000D02*
X83693000Y32258000D01*
%TO.C,J7*%
X88773000Y32258000D02*
X86233000Y32258000D01*
X86233000Y32258000D02*
X86233000Y34798000D01*
X88773000Y34798000D02*
X88773000Y32258000D01*
X86233000Y34798000D02*
X88773000Y34798000D01*
%TO.C,J19*%
X88773000Y29718000D02*
X83693000Y29718000D01*
X88773000Y32258000D02*
X88773000Y29718000D01*
X83693000Y32258000D02*
X88773000Y32258000D01*
X83693000Y29718000D02*
X83693000Y32258000D01*
D15*
%TO.C,M8*%
X22472000Y41550000D02*
X24072000Y41550000D01*
X33422000Y14200000D02*
X33422000Y12600000D01*
X1122000Y20200000D02*
X1122000Y18600000D01*
X10472000Y41550000D02*
X12072000Y41550000D01*
X16472000Y9250000D02*
X18072000Y9250000D01*
X1122000Y14200000D02*
X1122000Y12600000D01*
X33422000Y38200000D02*
X33422000Y36600000D01*
X33422000Y26200000D02*
X33422000Y24600000D01*
X1122000Y32200000D02*
X1122000Y30600000D01*
X22472000Y9250000D02*
X24072000Y9250000D01*
X28472000Y41550000D02*
X30072000Y41550000D01*
X4472000Y41550000D02*
X6072000Y41550000D01*
X16472000Y41550000D02*
X18072000Y41550000D01*
X33422000Y32200000D02*
X33422000Y30600000D01*
X28472000Y9250000D02*
X30072000Y9250000D01*
X4472000Y9250000D02*
X6072000Y9250000D01*
X1122000Y38200000D02*
X1122000Y36600000D01*
X1122000Y26200000D02*
X1122000Y24600000D01*
X33422000Y20200000D02*
X33422000Y18600000D01*
X10472000Y9250000D02*
X12072000Y9250000D01*
%TO.C,Y1*%
X49532000Y37069000D02*
X55932000Y37069000D01*
X49532000Y32019000D02*
X55932000Y32019000D01*
X55932000Y32019000D02*
G75*
G03*
X55932000Y37069000I0J2525000D01*
G01*
X49532000Y37069000D02*
G75*
G03*
X49532000Y32019000I0J-2525000D01*
G01*
%TO.C,J3*%
X67501000Y-13548000D02*
X69301000Y-13548000D01*
X69301000Y-13548000D02*
X69301000Y-12558000D01*
X78471000Y-14998000D02*
X78471000Y-13548000D01*
X67501000Y-14998000D02*
X67501000Y-13548000D01*
X68771000Y-17818000D02*
X77201000Y-17818000D01*
X78471000Y-13548000D02*
X76671000Y-13548000D01*
D11*
%TO.C,J4*%
X67183000Y-22228000D02*
X69469000Y-22228000D01*
X67056000Y-24641000D02*
X67056000Y-22355000D01*
%TO.C,J10*%
X111836000Y-31038000D02*
X106756000Y-31038000D01*
X106756000Y-31038000D02*
X106756000Y-28752000D01*
X111836000Y-28752000D02*
X111836000Y-31038000D01*
%TO.C,R17*%
X32996000Y-46352000D02*
X32996000Y-44828000D01*
X36044000Y-44828000D02*
X36044000Y-46352000D01*
D15*
X34139000Y-46352000D02*
X34901000Y-46352000D01*
X34139000Y-44828000D02*
X34901000Y-44828000D01*
D11*
%TO.C,J17*%
X124516000Y-14578000D02*
X119436000Y-14578000D01*
X119436000Y-14578000D02*
X119436000Y-12292000D01*
X124516000Y-12292000D02*
X124516000Y-14578000D01*
%TO.C,J18*%
X117176000Y-28651000D02*
X117176000Y-26365000D01*
X117303000Y-26238000D02*
X119589000Y-26238000D01*
D15*
%TO.C,R25*%
X29949000Y-43682000D02*
X30711000Y-43682000D01*
D11*
X28806000Y-43682000D02*
X28806000Y-42158000D01*
X31854000Y-42158000D02*
X31854000Y-43682000D01*
D15*
X29949000Y-42158000D02*
X30711000Y-42158000D01*
%TO.C,J1*%
X67491000Y-6098000D02*
X69291000Y-6098000D01*
X68761000Y-10368000D02*
X79691000Y-10368000D01*
X80961000Y-6098000D02*
X79161000Y-6098000D01*
X80961000Y-7548000D02*
X80961000Y-6098000D01*
X69291000Y-6098000D02*
X69291000Y-5108000D01*
X67491000Y-7548000D02*
X67491000Y-6098000D01*
%TO.C,R24*%
X34139000Y-42158000D02*
X34901000Y-42158000D01*
X34139000Y-43682000D02*
X34901000Y-43682000D01*
D11*
X32996000Y-43682000D02*
X32996000Y-42158000D01*
X36044000Y-42158000D02*
X36044000Y-43682000D01*
D15*
%TO.C,R28*%
X126809000Y-12338000D02*
X127571000Y-12338000D01*
D11*
X128714000Y-12338000D02*
X128714000Y-13862000D01*
D15*
X126809000Y-13862000D02*
X127571000Y-13862000D01*
D11*
X125666000Y-13862000D02*
X125666000Y-12338000D01*
%TO.C,C37*%
X32996000Y-55652000D02*
X32996000Y-54128000D01*
D15*
X34139000Y-54128000D02*
X34901000Y-54128000D01*
X34139000Y-55652000D02*
X34901000Y-55652000D01*
D11*
X36044000Y-54128000D02*
X36044000Y-55652000D01*
%TO.C,J11*%
X130746000Y-7198000D02*
X125666000Y-7198000D01*
X125666000Y-7198000D02*
X125666000Y-4912000D01*
X130746000Y-4912000D02*
X130746000Y-7198000D01*
%TO.C,J6*%
X48756000Y-44571000D02*
X48756000Y-42285000D01*
X48883000Y-42158000D02*
X51169000Y-42158000D01*
%TO.C,C48*%
X122224000Y-22248000D02*
X122224000Y-23772000D01*
D15*
X120319000Y-23772000D02*
X121081000Y-23772000D01*
D11*
X119176000Y-23772000D02*
X119176000Y-22248000D01*
D15*
X120319000Y-22248000D02*
X121081000Y-22248000D01*
D11*
%TO.C,Q1*%
X28807590Y-52475200D02*
X28807590Y-53491200D01*
X31411090Y-52475200D02*
X31411090Y-53491200D01*
X28807590Y-52475200D02*
X31411090Y-52475200D01*
X31411090Y-53491200D02*
X28807590Y-53491200D01*
X29124140Y-53333720D02*
G75*
G03*
X29124140Y-53333720I-159070J0D01*
G01*
D15*
%TO.C,R27*%
X126809000Y-15008000D02*
X127571000Y-15008000D01*
X126809000Y-16532000D02*
X127571000Y-16532000D01*
D11*
X128714000Y-15008000D02*
X128714000Y-16532000D01*
X125666000Y-16532000D02*
X125666000Y-15008000D01*
%TO.C,L2*%
X28806000Y-46352000D02*
X28806000Y-44828000D01*
D15*
X29949000Y-44828000D02*
X30711000Y-44828000D01*
X29949000Y-46352000D02*
X30711000Y-46352000D01*
D11*
X31854000Y-44828000D02*
X31854000Y-46352000D01*
%TO.C,C25*%
X71246000Y-21082000D02*
X71246000Y-19558000D01*
D15*
X72389000Y-21082000D02*
X73151000Y-21082000D01*
X72389000Y-19558000D02*
X73151000Y-19558000D01*
D11*
X74294000Y-19558000D02*
X74294000Y-21082000D01*
D15*
%TO.C,U7*%
X133896000Y-4748000D02*
X134696000Y-4748000D01*
X133896000Y-7868000D02*
X134696000Y-7868000D01*
X133896000Y-7868000D02*
X133096000Y-7868000D01*
X133896000Y-4748000D02*
X132096000Y-4748000D01*
%TO.C,R14*%
X33709000Y-52982000D02*
X34471000Y-52982000D01*
X33709000Y-51458000D02*
X34471000Y-51458000D01*
D11*
X32566000Y-52982000D02*
X32566000Y-51458000D01*
X35614000Y-51458000D02*
X35614000Y-52982000D01*
D15*
%TO.C,C22*%
X68199000Y-19558000D02*
X68961000Y-19558000D01*
D11*
X70104000Y-19558000D02*
X70104000Y-21082000D01*
X67056000Y-21082000D02*
X67056000Y-19558000D01*
D15*
X68199000Y-21082000D02*
X68961000Y-21082000D01*
%TO.C,J8*%
X100511000Y-11128000D02*
X100511000Y-12128000D01*
X100511000Y-12128000D02*
X101011000Y-11628000D01*
X117951000Y-6718000D02*
X117951000Y-19038000D01*
X101011000Y-11628000D02*
X100511000Y-11128000D01*
X109591000Y-6718000D02*
X117951000Y-6718000D01*
X101231000Y-6718000D02*
X101231000Y-19038000D01*
X117951000Y-19038000D02*
X109591000Y-19038000D01*
X101231000Y-19038000D02*
X105491000Y-19038000D01*
X105491000Y-6718000D02*
X101231000Y-6718000D01*
D11*
%TO.C,R29*%
X103574000Y-35878000D02*
X103574000Y-37402000D01*
D15*
X101669000Y-35878000D02*
X102431000Y-35878000D01*
X101669000Y-37402000D02*
X102431000Y-37402000D01*
D11*
X100526000Y-37402000D02*
X100526000Y-35878000D01*
D15*
%TO.C,C38*%
X132979000Y-9108000D02*
X133741000Y-9108000D01*
X132979000Y-10632000D02*
X133741000Y-10632000D01*
D11*
X134884000Y-9108000D02*
X134884000Y-10632000D01*
X131836000Y-10632000D02*
X131836000Y-9108000D01*
%TO.C,J16*%
X111856000Y-24788000D02*
X106776000Y-24788000D01*
X106776000Y-24788000D02*
X106776000Y-22502000D01*
X111856000Y-22502000D02*
X111856000Y-24788000D01*
D15*
%TO.C,U9*%
X105186000Y-26908000D02*
X105186000Y-26183000D01*
X101691000Y-26908000D02*
X100966000Y-26908000D01*
X104461000Y-22688000D02*
X105186000Y-22688000D01*
X104461000Y-26908000D02*
X105186000Y-26908000D01*
X101691000Y-22688000D02*
X100966000Y-22688000D01*
X100966000Y-26908000D02*
X100966000Y-26183000D01*
X105186000Y-22688000D02*
X105186000Y-23413000D01*
D11*
%TO.C,R16*%
X31854000Y-55658000D02*
X31854000Y-57182000D01*
D15*
X29949000Y-57182000D02*
X30711000Y-57182000D01*
D11*
X28806000Y-57182000D02*
X28806000Y-55658000D01*
D15*
X29949000Y-55658000D02*
X30711000Y-55658000D01*
%TO.C,G\u002A\u002A\u002A*%
G36*
X48829066Y6675024D02*
G01*
X49064096Y6627014D01*
X49161726Y6589966D01*
X49390113Y6425237D01*
X49564747Y6212836D01*
X49651591Y5997029D01*
X49655597Y5947610D01*
X49636917Y5837430D01*
X49554209Y5790638D01*
X49395111Y5781658D01*
X49173918Y5815267D01*
X49011733Y5937399D01*
X48983565Y5971105D01*
X48800360Y6108626D01*
X48568339Y6164932D01*
X48342492Y6134121D01*
X48213619Y6053728D01*
X48142293Y5937930D01*
X48173195Y5821356D01*
X48316045Y5692636D01*
X48580562Y5540401D01*
X48705199Y5478731D01*
X49041600Y5299180D01*
X49262601Y5130574D01*
X49388740Y4949015D01*
X49440555Y4730607D01*
X49445100Y4617773D01*
X49379679Y4290076D01*
X49189842Y4018850D01*
X48951229Y3850698D01*
X48724290Y3782733D01*
X48420393Y3753903D01*
X48097384Y3764349D01*
X47813110Y3814214D01*
X47717500Y3847674D01*
X47462710Y4020832D01*
X47307320Y4260693D01*
X47269962Y4464121D01*
X47282531Y4588993D01*
X47346820Y4644704D01*
X47502702Y4658768D01*
X47552361Y4659006D01*
X47746536Y4643502D01*
X47850796Y4581235D01*
X47898982Y4490091D01*
X48020062Y4347580D01*
X48219239Y4269172D01*
X48448768Y4256879D01*
X48660898Y4312711D01*
X48807881Y4438681D01*
X48815207Y4451497D01*
X48856926Y4582092D01*
X48817454Y4697412D01*
X48681143Y4814936D01*
X48432345Y4952141D01*
X48317806Y5007103D01*
X47966027Y5193965D01*
X47733631Y5376763D01*
X47601966Y5576738D01*
X47552383Y5815126D01*
X47550625Y5880756D01*
X47607602Y6210251D01*
X47776266Y6456730D01*
X48053219Y6617478D01*
X48435060Y6689776D01*
X48568028Y6693812D01*
X48829066Y6675024D01*
G37*
G36*
X45417448Y6605609D02*
G01*
X45512027Y6555700D01*
X45515818Y6539979D01*
X45502859Y6443787D01*
X45467294Y6237448D01*
X45414089Y5948415D01*
X45348211Y5604137D01*
X45325398Y5487464D01*
X45250955Y5102899D01*
X45203231Y4831869D01*
X45180705Y4650447D01*
X45181857Y4534707D01*
X45205166Y4460723D01*
X45249113Y4404568D01*
X45256143Y4397449D01*
X45436734Y4302530D01*
X45677602Y4277487D01*
X45917828Y4321460D01*
X46072239Y4408986D01*
X46173526Y4536577D01*
X46265618Y4735986D01*
X46353845Y5024462D01*
X46443536Y5419256D01*
X46534245Y5904448D01*
X46659908Y6623647D01*
X46964935Y6623647D01*
X47177822Y6605767D01*
X47266043Y6549758D01*
X47269962Y6528047D01*
X47252971Y6369566D01*
X47207307Y6110483D01*
X47140927Y5785662D01*
X47061791Y5429968D01*
X46977858Y5078265D01*
X46897087Y4765416D01*
X46827436Y4526285D01*
X46788487Y4418979D01*
X46604511Y4114633D01*
X46356528Y3912462D01*
X46023145Y3799727D01*
X45691542Y3765735D01*
X45421834Y3765742D01*
X45191725Y3782405D01*
X45054018Y3811233D01*
X44886575Y3925307D01*
X44718795Y4103092D01*
X44588519Y4297060D01*
X44533592Y4459683D01*
X44533498Y4464954D01*
X44546020Y4584155D01*
X44580426Y4812113D01*
X44631977Y5119803D01*
X44695932Y5478198D01*
X44721689Y5617305D01*
X44909880Y6623647D01*
X45212849Y6623647D01*
X45417448Y6605609D01*
G37*
G36*
X40651873Y8552105D02*
G01*
X41081895Y8530738D01*
X41433894Y8492797D01*
X41621619Y8454326D01*
X42219888Y8230879D01*
X42742110Y7924860D01*
X43169248Y7550113D01*
X43482263Y7120481D01*
X43499376Y7088771D01*
X43626142Y6716665D01*
X43661599Y6287662D01*
X43606816Y5850504D01*
X43463584Y5455318D01*
X43150052Y4992320D01*
X42725506Y4571766D01*
X42217551Y4214250D01*
X41653791Y3940367D01*
X41265849Y3815753D01*
X40533561Y3689737D01*
X39825599Y3688840D01*
X39157228Y3811493D01*
X38543715Y4056129D01*
X38455619Y4104237D01*
X38121058Y4258257D01*
X37852244Y4298011D01*
X37634257Y4224060D01*
X37534182Y4138909D01*
X37366420Y3873134D01*
X37321052Y3577896D01*
X37388596Y3271710D01*
X37559572Y2973091D01*
X37824499Y2700555D01*
X38173895Y2472616D01*
X38447616Y2355088D01*
X39006852Y2210679D01*
X39646734Y2132759D01*
X40324290Y2121395D01*
X40996547Y2176655D01*
X41620536Y2298606D01*
X41797033Y2349830D01*
X42221397Y2505650D01*
X42572473Y2691049D01*
X42894757Y2935337D01*
X43232749Y3267819D01*
X43297709Y3338221D01*
X43496936Y3549184D01*
X43660818Y3709027D01*
X43767485Y3797167D01*
X43795448Y3806632D01*
X43785161Y3730309D01*
X43722766Y3565816D01*
X43623469Y3352277D01*
X43286236Y2831871D01*
X42837016Y2395465D01*
X42276771Y2043784D01*
X41606466Y1777554D01*
X41481288Y1740747D01*
X41128033Y1669538D01*
X40679915Y1620303D01*
X40176813Y1593485D01*
X39658609Y1589527D01*
X39165181Y1608874D01*
X38736409Y1651968D01*
X38454480Y1707087D01*
X37863489Y1905107D01*
X37381738Y2155565D01*
X36983676Y2471852D01*
X36970479Y2484738D01*
X36623252Y2905307D01*
X36414657Y3347433D01*
X36344792Y3810277D01*
X36413756Y4293003D01*
X36621648Y4794772D01*
X36685461Y4906668D01*
X36933035Y5216231D01*
X37293417Y5525019D01*
X37739798Y5818089D01*
X38245372Y6080499D01*
X38783331Y6297307D01*
X39326868Y6453572D01*
X39534940Y6494941D01*
X40168504Y6534071D01*
X40801011Y6433559D01*
X41434368Y6193088D01*
X41481288Y6169740D01*
X41890743Y5997813D01*
X42221078Y5934517D01*
X42469050Y5979016D01*
X42631418Y6130472D01*
X42704940Y6388048D01*
X42709188Y6486800D01*
X42642107Y6860399D01*
X42452955Y7213521D01*
X42159874Y7519840D01*
X41864542Y7712590D01*
X41507895Y7847999D01*
X41049578Y7948635D01*
X40524356Y8012556D01*
X39966995Y8037821D01*
X39412261Y8022487D01*
X38894921Y7964612D01*
X38569409Y7896641D01*
X38105865Y7763625D01*
X37744138Y7626847D01*
X37446738Y7465648D01*
X37176171Y7259367D01*
X36894947Y6987343D01*
X36867890Y6958990D01*
X36665986Y6740749D01*
X36506946Y6558126D01*
X36411859Y6435942D01*
X36394271Y6401617D01*
X36340548Y6344620D01*
X36324105Y6342984D01*
X36256227Y6394351D01*
X36275748Y6540733D01*
X36378795Y6770551D01*
X36561497Y7072225D01*
X36574517Y7091774D01*
X36731776Y7317098D01*
X36866472Y7492619D01*
X36955331Y7588530D01*
X36969200Y7597196D01*
X37071616Y7663490D01*
X37177033Y7757237D01*
X37368420Y7901842D01*
X37656165Y8062961D01*
X38000825Y8221733D01*
X38362958Y8359298D01*
X38569409Y8423035D01*
X38858981Y8479094D01*
X39247384Y8520394D01*
X39699247Y8546571D01*
X40179200Y8557262D01*
X40651873Y8552105D01*
G37*
G36*
X52379100Y6397413D02*
G01*
X52361441Y6270930D01*
X52316503Y6200380D01*
X52209911Y6166698D01*
X52007292Y6150824D01*
X51927388Y6146912D01*
X51497797Y6126255D01*
X51039785Y3817017D01*
X50733603Y3817017D01*
X50548555Y3821956D01*
X50439646Y3834412D01*
X50427420Y3841153D01*
X50440613Y3914677D01*
X50476968Y4101298D01*
X50531653Y4376601D01*
X50599837Y4716170D01*
X50637917Y4904586D01*
X50711587Y5274312D01*
X50774004Y5598996D01*
X50820230Y5852036D01*
X50845325Y6006832D01*
X50848415Y6038185D01*
X50796485Y6099739D01*
X50630335Y6128825D01*
X50493140Y6132486D01*
X50137866Y6132486D01*
X50181840Y6588564D01*
X51291531Y6607910D01*
X52401221Y6627257D01*
X52379100Y6397413D01*
G37*
%TO.C,C46*%
X105859000Y-37402000D02*
X106621000Y-37402000D01*
D11*
X104716000Y-37402000D02*
X104716000Y-35878000D01*
X107764000Y-35878000D02*
X107764000Y-37402000D01*
D15*
X105859000Y-35878000D02*
X106621000Y-35878000D01*
D11*
%TO.C,J12*%
X119436000Y-10888000D02*
X119436000Y-8602000D01*
X124516000Y-8602000D02*
X124516000Y-10888000D01*
X124516000Y-10888000D02*
X119436000Y-10888000D01*
%TO.C,J20*%
X123753000Y-19418000D02*
X126039000Y-19418000D01*
X123626000Y-21831000D02*
X123626000Y-19545000D01*
D15*
%TO.C,C41*%
X114129000Y-27762000D02*
X114891000Y-27762000D01*
D11*
X112986000Y-27762000D02*
X112986000Y-26238000D01*
D15*
X114129000Y-26238000D02*
X114891000Y-26238000D01*
D11*
X116034000Y-26238000D02*
X116034000Y-27762000D01*
%TO.C,J21*%
X111073000Y-32188000D02*
X113359000Y-32188000D01*
X110946000Y-34601000D02*
X110946000Y-32315000D01*
D15*
%TO.C,D1*%
X106826000Y-25988000D02*
X106826000Y-27188000D01*
X108676000Y-27188000D02*
X106826000Y-27188000D01*
X108676000Y-25988000D02*
X106826000Y-25988000D01*
D11*
%TO.C,R26*%
X109804000Y-32188000D02*
X109804000Y-33712000D01*
D15*
X107899000Y-33712000D02*
X108661000Y-33712000D01*
X107899000Y-32188000D02*
X108661000Y-32188000D01*
D11*
X106756000Y-33712000D02*
X106756000Y-32188000D01*
D15*
%TO.C,C45*%
X120579000Y-20942000D02*
X121341000Y-20942000D01*
X120579000Y-19418000D02*
X121341000Y-19418000D01*
D11*
X122484000Y-19418000D02*
X122484000Y-20942000D01*
X119436000Y-20942000D02*
X119436000Y-19418000D01*
%TO.C,R18*%
X40234000Y-42158000D02*
X40234000Y-43682000D01*
D15*
X38329000Y-43682000D02*
X39091000Y-43682000D01*
D11*
X37186000Y-43682000D02*
X37186000Y-42158000D01*
D15*
X38329000Y-42158000D02*
X39091000Y-42158000D01*
D11*
%TO.C,J7*%
X41376000Y-44571000D02*
X41376000Y-42285000D01*
X41503000Y-42158000D02*
X43789000Y-42158000D01*
%TO.C,J14*%
X105606000Y-31038000D02*
X100526000Y-31038000D01*
X105606000Y-28752000D02*
X105606000Y-31038000D01*
X100526000Y-31038000D02*
X100526000Y-28752000D01*
%TO.C,J2*%
X30298000Y-20177400D02*
X30298000Y-20799700D01*
X30298000Y-27683100D02*
X30298000Y-28394300D01*
X30298000Y-17624700D02*
X30298000Y-18247000D01*
X30272600Y-15745100D02*
X30272600Y-10385700D01*
X30310700Y-25130400D02*
X30310700Y-25841600D01*
X60701800Y-10134700D02*
X60701800Y-4659700D01*
X59876300Y-10134700D02*
X60701800Y-10134700D01*
X30298000Y-27530700D02*
X30298000Y-27683100D01*
X60701800Y-4659700D02*
X65731000Y-4659700D01*
X35746300Y-10134700D02*
X54301000Y-10134700D01*
X30298000Y-32623400D02*
X30298000Y-33360000D01*
X35708200Y-39084700D02*
X60549400Y-39084700D01*
X30298000Y-30197700D02*
X30298000Y-30858100D01*
X30298000Y-22692000D02*
X30298000Y-23339700D01*
X65731000Y-4659700D02*
X65731000Y-37609700D01*
X30310700Y-36928700D02*
X30310700Y-38313000D01*
%TO.C,J23*%
X129983000Y-12338000D02*
X132269000Y-12338000D01*
X129856000Y-14751000D02*
X129856000Y-12465000D01*
%TO.C,J9*%
X124516000Y-7198000D02*
X119436000Y-7198000D01*
X119436000Y-7198000D02*
X119436000Y-4912000D01*
X124516000Y-4912000D02*
X124516000Y-7198000D01*
%TO.C,J15*%
X105606000Y-34728000D02*
X100526000Y-34728000D01*
X100526000Y-34728000D02*
X100526000Y-32442000D01*
X105606000Y-32442000D02*
X105606000Y-34728000D01*
D15*
%TO.C,U6*%
X86196000Y-9868000D02*
X84246000Y-9868000D01*
X86196000Y-4748000D02*
X88146000Y-4748000D01*
X86196000Y-4748000D02*
X82746000Y-4748000D01*
X86196000Y-9868000D02*
X88146000Y-9868000D01*
%TO.C,C36*%
X81209000Y-12108000D02*
X81971000Y-12108000D01*
D11*
X80066000Y-13632000D02*
X80066000Y-12108000D01*
X83114000Y-12108000D02*
X83114000Y-13632000D01*
D15*
X81209000Y-13632000D02*
X81971000Y-13632000D01*
D11*
%TO.C,J13*%
X119436000Y-18268000D02*
X119436000Y-15982000D01*
X124516000Y-15982000D02*
X124516000Y-18268000D01*
X124516000Y-18268000D02*
X119436000Y-18268000D01*
%TO.C,J5*%
X45193000Y-42158000D02*
X47479000Y-42158000D01*
X45066000Y-44571000D02*
X45066000Y-42285000D01*
%TD*%
D16*
%TO.C,J1*%
X84963000Y25908000D03*
X87503000Y25908000D03*
%TD*%
%TO.C,J2*%
X84963000Y28448000D03*
X87503000Y28448000D03*
%TD*%
%TO.C,J3*%
X84963000Y23368000D03*
X87503000Y23368000D03*
%TD*%
%TO.C,J4*%
X84963000Y36068000D03*
%TD*%
%TO.C,J5*%
X87503000Y36068000D03*
%TD*%
%TO.C,J6*%
X84963000Y33528000D03*
%TD*%
%TO.C,J7*%
X87503000Y33528000D03*
%TD*%
%TO.C,J19*%
X84963000Y30988000D03*
X87503000Y30988000D03*
%TD*%
M02*
