%TF.GenerationSoftware,KiCad,Pcbnew,7.0.8-7.0.8~ubuntu23.04.1*%
%TF.CreationDate,2023-11-22T16:42:41+00:00*%
%TF.ProjectId,USTSIPIN02,55535453-4950-4494-9e30-322e6b696361,02A*%
%TF.SameCoordinates,Original*%
%TF.FileFunction,Soldermask,Top*%
%TF.FilePolarity,Negative*%
%FSLAX46Y46*%
G04 Gerber Fmt 4.6, Leading zero omitted, Abs format (unit mm)*
G04 Created by KiCad (PCBNEW 7.0.8-7.0.8~ubuntu23.04.1) date 2023-11-22 16:42:41*
%MOMM*%
%LPD*%
G01*
G04 APERTURE LIST*
G04 Aperture macros list*
%AMRoundRect*
0 Rectangle with rounded corners*
0 $1 Rounding radius*
0 $2 $3 $4 $5 $6 $7 $8 $9 X,Y pos of 4 corners*
0 Add a 4 corners polygon primitive as box body*
4,1,4,$2,$3,$4,$5,$6,$7,$8,$9,$2,$3,0*
0 Add four circle primitives for the rounded corners*
1,1,$1+$1,$2,$3*
1,1,$1+$1,$4,$5*
1,1,$1+$1,$6,$7*
1,1,$1+$1,$8,$9*
0 Add four rect primitives between the rounded corners*
20,1,$1+$1,$2,$3,$4,$5,0*
20,1,$1+$1,$4,$5,$6,$7,0*
20,1,$1+$1,$6,$7,$8,$9,0*
20,1,$1+$1,$8,$9,$2,$3,0*%
G04 Aperture macros list end*
%ADD10C,6.160000*%
%ADD11C,1.684000*%
%ADD12RoundRect,0.080000X0.762000X0.762000X-0.762000X0.762000X-0.762000X-0.762000X0.762000X-0.762000X0*%
%ADD13C,1.660000*%
%ADD14RoundRect,0.330000X-0.262500X-0.450000X0.262500X-0.450000X0.262500X0.450000X-0.262500X0.450000X0*%
%ADD15RoundRect,0.330000X-0.625000X0.375000X-0.625000X-0.375000X0.625000X-0.375000X0.625000X0.375000X0*%
%ADD16RoundRect,0.330000X0.475000X-0.250000X0.475000X0.250000X-0.475000X0.250000X-0.475000X-0.250000X0*%
%ADD17C,2.000000*%
%ADD18RoundRect,0.080000X-0.890000X-2.540000X0.890000X-2.540000X0.890000X2.540000X-0.890000X2.540000X0*%
%ADD19RoundRect,0.080000X-1.980000X-1.980000X1.980000X-1.980000X1.980000X1.980000X-1.980000X1.980000X0*%
%ADD20RoundRect,0.080000X0.800000X0.600000X-0.800000X0.600000X-0.800000X-0.600000X0.800000X-0.600000X0*%
%ADD21RoundRect,0.080000X0.800000X-0.600000X0.800000X0.600000X-0.800000X0.600000X-0.800000X-0.600000X0*%
%ADD22RoundRect,0.080000X2.500000X1.250000X-2.500000X1.250000X-2.500000X-1.250000X2.500000X-1.250000X0*%
%ADD23C,0.810000*%
%ADD24O,2.160000X1.160000*%
%ADD25O,2.260000X1.210000*%
G04 APERTURE END LIST*
D10*
%TO.C,M2*%
X174972341Y-78676927D03*
%TD*%
%TO.C,M3*%
X103852341Y-78676927D03*
%TD*%
%TO.C,M4*%
X103852341Y-119316927D03*
%TD*%
D11*
%TO.C,D2*%
X114132341Y-87996927D03*
X109132341Y-87996927D03*
%TD*%
D12*
%TO.C,J22*%
X140783941Y-100165327D03*
X138243941Y-100165327D03*
X140783941Y-97625327D03*
X138243941Y-97625327D03*
X140783941Y-95085327D03*
X138243941Y-95085327D03*
%TD*%
D10*
%TO.C,M1*%
X174972341Y-119316927D03*
%TD*%
D13*
%TO.C,Y1*%
X155580541Y-77965727D03*
X160460541Y-77965727D03*
%TD*%
D14*
%TO.C,R17*%
X149421841Y-92240527D03*
X151246841Y-92240527D03*
%TD*%
%TO.C,R25*%
X149421841Y-107175727D03*
X151246841Y-107175727D03*
%TD*%
D15*
%TO.C,D9*%
X153026341Y-117916927D03*
X153026341Y-120716927D03*
%TD*%
D14*
%TO.C,R24*%
X149421841Y-102248127D03*
X151246841Y-102248127D03*
%TD*%
D15*
%TO.C,D7*%
X148026341Y-117916927D03*
X148026341Y-120716927D03*
%TD*%
D16*
%TO.C,C25*%
X151401141Y-99489727D03*
X151401141Y-97589727D03*
%TD*%
D17*
%TO.C,FID2*%
X181830341Y-78270527D03*
%TD*%
D15*
%TO.C,D4*%
X163026341Y-117916927D03*
X163026341Y-120716927D03*
%TD*%
D16*
%TO.C,C22*%
X149267541Y-99489727D03*
X149267541Y-97589727D03*
%TD*%
D15*
%TO.C,D3*%
X168026341Y-117916927D03*
X168026341Y-120716927D03*
%TD*%
D17*
%TO.C,FID6*%
X126763141Y-76848127D03*
%TD*%
D15*
%TO.C,D10*%
X168026341Y-77276927D03*
X168026341Y-80076927D03*
%TD*%
D14*
%TO.C,R18*%
X149421841Y-94831327D03*
X151246841Y-94831327D03*
%TD*%
D18*
%TO.C,BT1*%
X138014341Y-78930927D03*
X147414341Y-78930927D03*
D19*
X142714341Y-78930927D03*
%TD*%
D20*
%TO.C,J2*%
X153622341Y-92256927D03*
X153622341Y-94756927D03*
X153622341Y-97256927D03*
X153622341Y-99756927D03*
X153622341Y-102256927D03*
X153622341Y-104756927D03*
X153622341Y-107186927D03*
X153622341Y-108986927D03*
D21*
X153622341Y-89756927D03*
D22*
X157122341Y-82421927D03*
X157122341Y-112871927D03*
X181322341Y-82421927D03*
X187322341Y-112871927D03*
%TD*%
D15*
%TO.C,D8*%
X158026341Y-117916927D03*
X158026341Y-120716927D03*
%TD*%
D17*
%TO.C,FID1*%
X126712341Y-121501327D03*
%TD*%
D23*
%TO.C,J4*%
X183484341Y-114764427D03*
X183484341Y-120544427D03*
D24*
X187164341Y-113334427D03*
X187164341Y-121974427D03*
D25*
X182984341Y-113334427D03*
X182984341Y-121974427D03*
%TD*%
G36*
X124259443Y-73865425D02*
G01*
X124273941Y-73900427D01*
X124273941Y-124093427D01*
X124259443Y-124128429D01*
X124224441Y-124142927D01*
X99075841Y-124142927D01*
X99040839Y-124128429D01*
X99026341Y-124093427D01*
X99026341Y-73900427D01*
X99040839Y-73865425D01*
X99075841Y-73850927D01*
X124224441Y-73850927D01*
X124259443Y-73865425D01*
G37*
M02*
