%TF.GenerationSoftware,KiCad,Pcbnew,6.0.4-6f826c9f35~116~ubuntu20.04.1*%
%TF.CreationDate,2022-05-04T09:33:00+00:00*%
%TF.ProjectId,USTSIPIN02A,55535453-4950-4494-9e30-32412e6b6963,REV*%
%TF.SameCoordinates,Original*%
%TF.FileFunction,Legend,Bot*%
%TF.FilePolarity,Positive*%
%FSLAX46Y46*%
G04 Gerber Fmt 4.6, Leading zero omitted, Abs format (unit mm)*
G04 Created by KiCad (PCBNEW 6.0.4-6f826c9f35~116~ubuntu20.04.1) date 2022-05-04 09:33:00*
%MOMM*%
%LPD*%
G01*
G04 APERTURE LIST*
%ADD10C,0.150000*%
%ADD11C,0.050000*%
%ADD12C,0.015000*%
%ADD13C,0.120000*%
%ADD14C,0.200000*%
G04 APERTURE END LIST*
D10*
%TO.C,C1*%
X17591066Y16551657D02*
X17638685Y16504038D01*
X17781542Y16456419D01*
X17876780Y16456419D01*
X18019638Y16504038D01*
X18114876Y16599276D01*
X18162495Y16694514D01*
X18210114Y16884990D01*
X18210114Y17027847D01*
X18162495Y17218323D01*
X18114876Y17313561D01*
X18019638Y17408800D01*
X17876780Y17456419D01*
X17781542Y17456419D01*
X17638685Y17408800D01*
X17591066Y17361180D01*
X16638685Y16456419D02*
X17210114Y16456419D01*
X16924400Y16456419D02*
X16924400Y17456419D01*
X17019638Y17313561D01*
X17114876Y17218323D01*
X17210114Y17170704D01*
%TO.C,C3*%
X7027142Y30069166D02*
X7074761Y30116785D01*
X7122380Y30259642D01*
X7122380Y30354880D01*
X7074761Y30497738D01*
X6979523Y30592976D01*
X6884285Y30640595D01*
X6693809Y30688214D01*
X6550952Y30688214D01*
X6360476Y30640595D01*
X6265238Y30592976D01*
X6170000Y30497738D01*
X6122380Y30354880D01*
X6122380Y30259642D01*
X6170000Y30116785D01*
X6217619Y30069166D01*
X6122380Y29735833D02*
X6122380Y29116785D01*
X6503333Y29450119D01*
X6503333Y29307261D01*
X6550952Y29212023D01*
X6598571Y29164404D01*
X6693809Y29116785D01*
X6931904Y29116785D01*
X7027142Y29164404D01*
X7074761Y29212023D01*
X7122380Y29307261D01*
X7122380Y29592976D01*
X7074761Y29688214D01*
X7027142Y29735833D01*
%TO.C,C4*%
X17591066Y18431257D02*
X17638685Y18383638D01*
X17781542Y18336019D01*
X17876780Y18336019D01*
X18019638Y18383638D01*
X18114876Y18478876D01*
X18162495Y18574114D01*
X18210114Y18764590D01*
X18210114Y18907447D01*
X18162495Y19097923D01*
X18114876Y19193161D01*
X18019638Y19288400D01*
X17876780Y19336019D01*
X17781542Y19336019D01*
X17638685Y19288400D01*
X17591066Y19240780D01*
X16733923Y19002685D02*
X16733923Y18336019D01*
X16972019Y19383638D02*
X17210114Y18669352D01*
X16591066Y18669352D01*
%TO.C,C6*%
X13608342Y23483866D02*
X13655961Y23531485D01*
X13703580Y23674342D01*
X13703580Y23769580D01*
X13655961Y23912438D01*
X13560723Y24007676D01*
X13465485Y24055295D01*
X13275009Y24102914D01*
X13132152Y24102914D01*
X12941676Y24055295D01*
X12846438Y24007676D01*
X12751200Y23912438D01*
X12703580Y23769580D01*
X12703580Y23674342D01*
X12751200Y23531485D01*
X12798819Y23483866D01*
X12703580Y22626723D02*
X12703580Y22817200D01*
X12751200Y22912438D01*
X12798819Y22960057D01*
X12941676Y23055295D01*
X13132152Y23102914D01*
X13513104Y23102914D01*
X13608342Y23055295D01*
X13655961Y23007676D01*
X13703580Y22912438D01*
X13703580Y22721961D01*
X13655961Y22626723D01*
X13608342Y22579104D01*
X13513104Y22531485D01*
X13275009Y22531485D01*
X13179771Y22579104D01*
X13132152Y22626723D01*
X13084533Y22721961D01*
X13084533Y22912438D01*
X13132152Y23007676D01*
X13179771Y23055295D01*
X13275009Y23102914D01*
%TO.C,C7*%
X31103866Y20884857D02*
X31151485Y20837238D01*
X31294342Y20789619D01*
X31389580Y20789619D01*
X31532438Y20837238D01*
X31627676Y20932476D01*
X31675295Y21027714D01*
X31722914Y21218190D01*
X31722914Y21361047D01*
X31675295Y21551523D01*
X31627676Y21646761D01*
X31532438Y21742000D01*
X31389580Y21789619D01*
X31294342Y21789619D01*
X31151485Y21742000D01*
X31103866Y21694380D01*
X30770533Y21789619D02*
X30103866Y21789619D01*
X30532438Y20789619D01*
%TO.C,C8*%
X25617466Y15449257D02*
X25665085Y15401638D01*
X25807942Y15354019D01*
X25903180Y15354019D01*
X26046038Y15401638D01*
X26141276Y15496876D01*
X26188895Y15592114D01*
X26236514Y15782590D01*
X26236514Y15925447D01*
X26188895Y16115923D01*
X26141276Y16211161D01*
X26046038Y16306400D01*
X25903180Y16354019D01*
X25807942Y16354019D01*
X25665085Y16306400D01*
X25617466Y16258780D01*
X25046038Y15925447D02*
X25141276Y15973066D01*
X25188895Y16020685D01*
X25236514Y16115923D01*
X25236514Y16163542D01*
X25188895Y16258780D01*
X25141276Y16306400D01*
X25046038Y16354019D01*
X24855561Y16354019D01*
X24760323Y16306400D01*
X24712704Y16258780D01*
X24665085Y16163542D01*
X24665085Y16115923D01*
X24712704Y16020685D01*
X24760323Y15973066D01*
X24855561Y15925447D01*
X25046038Y15925447D01*
X25141276Y15877828D01*
X25188895Y15830209D01*
X25236514Y15734971D01*
X25236514Y15544495D01*
X25188895Y15449257D01*
X25141276Y15401638D01*
X25046038Y15354019D01*
X24855561Y15354019D01*
X24760323Y15401638D01*
X24712704Y15449257D01*
X24665085Y15544495D01*
X24665085Y15734971D01*
X24712704Y15830209D01*
X24760323Y15877828D01*
X24855561Y15925447D01*
%TO.C,C9*%
X21451866Y12335257D02*
X21499485Y12287638D01*
X21642342Y12240019D01*
X21737580Y12240019D01*
X21880438Y12287638D01*
X21975676Y12382876D01*
X22023295Y12478114D01*
X22070914Y12668590D01*
X22070914Y12811447D01*
X22023295Y13001923D01*
X21975676Y13097161D01*
X21880438Y13192400D01*
X21737580Y13240019D01*
X21642342Y13240019D01*
X21499485Y13192400D01*
X21451866Y13144780D01*
X20975676Y12240019D02*
X20785200Y12240019D01*
X20689961Y12287638D01*
X20642342Y12335257D01*
X20547104Y12478114D01*
X20499485Y12668590D01*
X20499485Y13049542D01*
X20547104Y13144780D01*
X20594723Y13192400D01*
X20689961Y13240019D01*
X20880438Y13240019D01*
X20975676Y13192400D01*
X21023295Y13144780D01*
X21070914Y13049542D01*
X21070914Y12811447D01*
X21023295Y12716209D01*
X20975676Y12668590D01*
X20880438Y12620971D01*
X20689961Y12620971D01*
X20594723Y12668590D01*
X20547104Y12716209D01*
X20499485Y12811447D01*
%TO.C,C12*%
X31580057Y22866057D02*
X31627676Y22818438D01*
X31770533Y22770819D01*
X31865771Y22770819D01*
X32008628Y22818438D01*
X32103866Y22913676D01*
X32151485Y23008914D01*
X32199104Y23199390D01*
X32199104Y23342247D01*
X32151485Y23532723D01*
X32103866Y23627961D01*
X32008628Y23723200D01*
X31865771Y23770819D01*
X31770533Y23770819D01*
X31627676Y23723200D01*
X31580057Y23675580D01*
X30627676Y22770819D02*
X31199104Y22770819D01*
X30913390Y22770819D02*
X30913390Y23770819D01*
X31008628Y23627961D01*
X31103866Y23532723D01*
X31199104Y23485104D01*
X30246723Y23675580D02*
X30199104Y23723200D01*
X30103866Y23770819D01*
X29865771Y23770819D01*
X29770533Y23723200D01*
X29722914Y23675580D01*
X29675295Y23580342D01*
X29675295Y23485104D01*
X29722914Y23342247D01*
X30294342Y22770819D01*
X29675295Y22770819D01*
%TO.C,C13*%
X26093657Y17227257D02*
X26141276Y17179638D01*
X26284133Y17132019D01*
X26379371Y17132019D01*
X26522228Y17179638D01*
X26617466Y17274876D01*
X26665085Y17370114D01*
X26712704Y17560590D01*
X26712704Y17703447D01*
X26665085Y17893923D01*
X26617466Y17989161D01*
X26522228Y18084400D01*
X26379371Y18132019D01*
X26284133Y18132019D01*
X26141276Y18084400D01*
X26093657Y18036780D01*
X25141276Y17132019D02*
X25712704Y17132019D01*
X25426990Y17132019D02*
X25426990Y18132019D01*
X25522228Y17989161D01*
X25617466Y17893923D01*
X25712704Y17846304D01*
X24807942Y18132019D02*
X24188895Y18132019D01*
X24522228Y17751066D01*
X24379371Y17751066D01*
X24284133Y17703447D01*
X24236514Y17655828D01*
X24188895Y17560590D01*
X24188895Y17322495D01*
X24236514Y17227257D01*
X24284133Y17179638D01*
X24379371Y17132019D01*
X24665085Y17132019D01*
X24760323Y17179638D01*
X24807942Y17227257D01*
%TO.C,C14*%
X21928057Y14113257D02*
X21975676Y14065638D01*
X22118533Y14018019D01*
X22213771Y14018019D01*
X22356628Y14065638D01*
X22451866Y14160876D01*
X22499485Y14256114D01*
X22547104Y14446590D01*
X22547104Y14589447D01*
X22499485Y14779923D01*
X22451866Y14875161D01*
X22356628Y14970400D01*
X22213771Y15018019D01*
X22118533Y15018019D01*
X21975676Y14970400D01*
X21928057Y14922780D01*
X20975676Y14018019D02*
X21547104Y14018019D01*
X21261390Y14018019D02*
X21261390Y15018019D01*
X21356628Y14875161D01*
X21451866Y14779923D01*
X21547104Y14732304D01*
X20118533Y14684685D02*
X20118533Y14018019D01*
X20356628Y15065638D02*
X20594723Y14351352D01*
X19975676Y14351352D01*
%TO.C,C17*%
X23604457Y29368457D02*
X23652076Y29320838D01*
X23794933Y29273219D01*
X23890171Y29273219D01*
X24033028Y29320838D01*
X24128266Y29416076D01*
X24175885Y29511314D01*
X24223504Y29701790D01*
X24223504Y29844647D01*
X24175885Y30035123D01*
X24128266Y30130361D01*
X24033028Y30225600D01*
X23890171Y30273219D01*
X23794933Y30273219D01*
X23652076Y30225600D01*
X23604457Y30177980D01*
X22652076Y29273219D02*
X23223504Y29273219D01*
X22937790Y29273219D02*
X22937790Y30273219D01*
X23033028Y30130361D01*
X23128266Y30035123D01*
X23223504Y29987504D01*
X22318742Y30273219D02*
X21652076Y30273219D01*
X22080647Y29273219D01*
%TO.C,C19*%
X33228342Y32037257D02*
X33275961Y32084876D01*
X33323580Y32227733D01*
X33323580Y32322971D01*
X33275961Y32465828D01*
X33180723Y32561066D01*
X33085485Y32608685D01*
X32895009Y32656304D01*
X32752152Y32656304D01*
X32561676Y32608685D01*
X32466438Y32561066D01*
X32371200Y32465828D01*
X32323580Y32322971D01*
X32323580Y32227733D01*
X32371200Y32084876D01*
X32418819Y32037257D01*
X33323580Y31084876D02*
X33323580Y31656304D01*
X33323580Y31370590D02*
X32323580Y31370590D01*
X32466438Y31465828D01*
X32561676Y31561066D01*
X32609295Y31656304D01*
X33323580Y30608685D02*
X33323580Y30418209D01*
X33275961Y30322971D01*
X33228342Y30275352D01*
X33085485Y30180114D01*
X32895009Y30132495D01*
X32514057Y30132495D01*
X32418819Y30180114D01*
X32371200Y30227733D01*
X32323580Y30322971D01*
X32323580Y30513447D01*
X32371200Y30608685D01*
X32418819Y30656304D01*
X32514057Y30703923D01*
X32752152Y30703923D01*
X32847390Y30656304D01*
X32895009Y30608685D01*
X32942628Y30513447D01*
X32942628Y30322971D01*
X32895009Y30227733D01*
X32847390Y30180114D01*
X32752152Y30132495D01*
%TO.C,R3*%
X30619980Y17235466D02*
X30143790Y17568800D01*
X30619980Y17806895D02*
X29619980Y17806895D01*
X29619980Y17425942D01*
X29667600Y17330704D01*
X29715219Y17283085D01*
X29810457Y17235466D01*
X29953314Y17235466D01*
X30048552Y17283085D01*
X30096171Y17330704D01*
X30143790Y17425942D01*
X30143790Y17806895D01*
X29619980Y16902133D02*
X29619980Y16283085D01*
X30000933Y16616419D01*
X30000933Y16473561D01*
X30048552Y16378323D01*
X30096171Y16330704D01*
X30191409Y16283085D01*
X30429504Y16283085D01*
X30524742Y16330704D01*
X30572361Y16378323D01*
X30619980Y16473561D01*
X30619980Y16759276D01*
X30572361Y16854514D01*
X30524742Y16902133D01*
%TO.C,R4*%
X25617466Y13525219D02*
X25950800Y14001409D01*
X26188895Y13525219D02*
X26188895Y14525219D01*
X25807942Y14525219D01*
X25712704Y14477600D01*
X25665085Y14429980D01*
X25617466Y14334742D01*
X25617466Y14191885D01*
X25665085Y14096647D01*
X25712704Y14049028D01*
X25807942Y14001409D01*
X26188895Y14001409D01*
X24760323Y14191885D02*
X24760323Y13525219D01*
X24998419Y14572838D02*
X25236514Y13858552D01*
X24617466Y13858552D01*
%TO.C,R5*%
X17591066Y15557219D02*
X17924400Y16033409D01*
X18162495Y15557219D02*
X18162495Y16557219D01*
X17781542Y16557219D01*
X17686304Y16509600D01*
X17638685Y16461980D01*
X17591066Y16366742D01*
X17591066Y16223885D01*
X17638685Y16128647D01*
X17686304Y16081028D01*
X17781542Y16033409D01*
X18162495Y16033409D01*
X16686304Y16557219D02*
X17162495Y16557219D01*
X17210114Y16081028D01*
X17162495Y16128647D01*
X17067257Y16176266D01*
X16829161Y16176266D01*
X16733923Y16128647D01*
X16686304Y16081028D01*
X16638685Y15985790D01*
X16638685Y15747695D01*
X16686304Y15652457D01*
X16733923Y15604838D01*
X16829161Y15557219D01*
X17067257Y15557219D01*
X17162495Y15604838D01*
X17210114Y15652457D01*
%TO.C,R7*%
X14422380Y31021666D02*
X13946190Y31355000D01*
X14422380Y31593095D02*
X13422380Y31593095D01*
X13422380Y31212142D01*
X13470000Y31116904D01*
X13517619Y31069285D01*
X13612857Y31021666D01*
X13755714Y31021666D01*
X13850952Y31069285D01*
X13898571Y31116904D01*
X13946190Y31212142D01*
X13946190Y31593095D01*
X13422380Y30688333D02*
X13422380Y30021666D01*
X14422380Y30450238D01*
%TO.C,R12*%
X26215580Y20505657D02*
X25739390Y20838990D01*
X26215580Y21077085D02*
X25215580Y21077085D01*
X25215580Y20696133D01*
X25263200Y20600895D01*
X25310819Y20553276D01*
X25406057Y20505657D01*
X25548914Y20505657D01*
X25644152Y20553276D01*
X25691771Y20600895D01*
X25739390Y20696133D01*
X25739390Y21077085D01*
X26215580Y19553276D02*
X26215580Y20124704D01*
X26215580Y19838990D02*
X25215580Y19838990D01*
X25358438Y19934228D01*
X25453676Y20029466D01*
X25501295Y20124704D01*
X25310819Y19172323D02*
X25263200Y19124704D01*
X25215580Y19029466D01*
X25215580Y18791371D01*
X25263200Y18696133D01*
X25310819Y18648514D01*
X25406057Y18600895D01*
X25501295Y18600895D01*
X25644152Y18648514D01*
X26215580Y19219942D01*
X26215580Y18600895D01*
%TO.C,R13*%
X29078657Y31406819D02*
X29411990Y31883009D01*
X29650085Y31406819D02*
X29650085Y32406819D01*
X29269133Y32406819D01*
X29173895Y32359200D01*
X29126276Y32311580D01*
X29078657Y32216342D01*
X29078657Y32073485D01*
X29126276Y31978247D01*
X29173895Y31930628D01*
X29269133Y31883009D01*
X29650085Y31883009D01*
X28126276Y31406819D02*
X28697704Y31406819D01*
X28411990Y31406819D02*
X28411990Y32406819D01*
X28507228Y32263961D01*
X28602466Y32168723D01*
X28697704Y32121104D01*
X27792942Y32406819D02*
X27173895Y32406819D01*
X27507228Y32025866D01*
X27364371Y32025866D01*
X27269133Y31978247D01*
X27221514Y31930628D01*
X27173895Y31835390D01*
X27173895Y31597295D01*
X27221514Y31502057D01*
X27269133Y31454438D01*
X27364371Y31406819D01*
X27650085Y31406819D01*
X27745323Y31454438D01*
X27792942Y31502057D01*
%TO.C,U1*%
X11081904Y24827619D02*
X11081904Y24018095D01*
X11034285Y23922857D01*
X10986666Y23875238D01*
X10891428Y23827619D01*
X10700952Y23827619D01*
X10605714Y23875238D01*
X10558095Y23922857D01*
X10510476Y24018095D01*
X10510476Y24827619D01*
X9510476Y23827619D02*
X10081904Y23827619D01*
X9796190Y23827619D02*
X9796190Y24827619D01*
X9891428Y24684761D01*
X9986666Y24589523D01*
X10081904Y24541904D01*
%TO.C,U4*%
X26681180Y20878704D02*
X27490704Y20878704D01*
X27585942Y20831085D01*
X27633561Y20783466D01*
X27681180Y20688228D01*
X27681180Y20497752D01*
X27633561Y20402514D01*
X27585942Y20354895D01*
X27490704Y20307276D01*
X26681180Y20307276D01*
X27014514Y19402514D02*
X27681180Y19402514D01*
X26633561Y19640609D02*
X27347847Y19878704D01*
X27347847Y19259657D01*
%TO.C,U5*%
X20737580Y20827904D02*
X21547104Y20827904D01*
X21642342Y20780285D01*
X21689961Y20732666D01*
X21737580Y20637428D01*
X21737580Y20446952D01*
X21689961Y20351714D01*
X21642342Y20304095D01*
X21547104Y20256476D01*
X20737580Y20256476D01*
X20737580Y19304095D02*
X20737580Y19780285D01*
X21213771Y19827904D01*
X21166152Y19780285D01*
X21118533Y19685047D01*
X21118533Y19446952D01*
X21166152Y19351714D01*
X21213771Y19304095D01*
X21309009Y19256476D01*
X21547104Y19256476D01*
X21642342Y19304095D01*
X21689961Y19351714D01*
X21737580Y19446952D01*
X21737580Y19685047D01*
X21689961Y19780285D01*
X21642342Y19827904D01*
%TO.C,U2*%
X29326904Y23462019D02*
X29326904Y22652495D01*
X29279285Y22557257D01*
X29231666Y22509638D01*
X29136428Y22462019D01*
X28945952Y22462019D01*
X28850714Y22509638D01*
X28803095Y22557257D01*
X28755476Y22652495D01*
X28755476Y23462019D01*
X28326904Y23366780D02*
X28279285Y23414400D01*
X28184047Y23462019D01*
X27945952Y23462019D01*
X27850714Y23414400D01*
X27803095Y23366780D01*
X27755476Y23271542D01*
X27755476Y23176304D01*
X27803095Y23033447D01*
X28374523Y22462019D01*
X27755476Y22462019D01*
%TO.C,R1*%
X30939980Y15914666D02*
X30463790Y16248000D01*
X30939980Y16486095D02*
X29939980Y16486095D01*
X29939980Y16105142D01*
X29987600Y16009904D01*
X30035219Y15962285D01*
X30130457Y15914666D01*
X30273314Y15914666D01*
X30368552Y15962285D01*
X30416171Y16009904D01*
X30463790Y16105142D01*
X30463790Y16486095D01*
X30939980Y14962285D02*
X30939980Y15533714D01*
X30939980Y15248000D02*
X29939980Y15248000D01*
X30082838Y15343238D01*
X30178076Y15438476D01*
X30225695Y15533714D01*
%TO.C,C2*%
X21939542Y34659866D02*
X21987161Y34707485D01*
X22034780Y34850342D01*
X22034780Y34945580D01*
X21987161Y35088438D01*
X21891923Y35183676D01*
X21796685Y35231295D01*
X21606209Y35278914D01*
X21463352Y35278914D01*
X21272876Y35231295D01*
X21177638Y35183676D01*
X21082400Y35088438D01*
X21034780Y34945580D01*
X21034780Y34850342D01*
X21082400Y34707485D01*
X21130019Y34659866D01*
X21130019Y34278914D02*
X21082400Y34231295D01*
X21034780Y34136057D01*
X21034780Y33897961D01*
X21082400Y33802723D01*
X21130019Y33755104D01*
X21225257Y33707485D01*
X21320495Y33707485D01*
X21463352Y33755104D01*
X22034780Y34326533D01*
X22034780Y33707485D01*
%TO.C,U3*%
X11644380Y19033904D02*
X12453904Y19033904D01*
X12549142Y18986285D01*
X12596761Y18938666D01*
X12644380Y18843428D01*
X12644380Y18652952D01*
X12596761Y18557714D01*
X12549142Y18510095D01*
X12453904Y18462476D01*
X11644380Y18462476D01*
X11644380Y18081523D02*
X11644380Y17462476D01*
X12025333Y17795809D01*
X12025333Y17652952D01*
X12072952Y17557714D01*
X12120571Y17510095D01*
X12215809Y17462476D01*
X12453904Y17462476D01*
X12549142Y17510095D01*
X12596761Y17557714D01*
X12644380Y17652952D01*
X12644380Y17938666D01*
X12596761Y18033904D01*
X12549142Y18081523D01*
%TO.C,C21*%
X26105142Y35136057D02*
X26152761Y35183676D01*
X26200380Y35326533D01*
X26200380Y35421771D01*
X26152761Y35564628D01*
X26057523Y35659866D01*
X25962285Y35707485D01*
X25771809Y35755104D01*
X25628952Y35755104D01*
X25438476Y35707485D01*
X25343238Y35659866D01*
X25248000Y35564628D01*
X25200380Y35421771D01*
X25200380Y35326533D01*
X25248000Y35183676D01*
X25295619Y35136057D01*
X25295619Y34755104D02*
X25248000Y34707485D01*
X25200380Y34612247D01*
X25200380Y34374152D01*
X25248000Y34278914D01*
X25295619Y34231295D01*
X25390857Y34183676D01*
X25486095Y34183676D01*
X25628952Y34231295D01*
X26200380Y34802723D01*
X26200380Y34183676D01*
X26200380Y33231295D02*
X26200380Y33802723D01*
X26200380Y33517009D02*
X25200380Y33517009D01*
X25343238Y33612247D01*
X25438476Y33707485D01*
X25486095Y33802723D01*
%TO.C,F2*%
X85613833Y18360428D02*
X85947166Y18360428D01*
X85947166Y17836619D02*
X85947166Y18836619D01*
X85470976Y18836619D01*
X85137642Y18741380D02*
X85090023Y18789000D01*
X84994785Y18836619D01*
X84756690Y18836619D01*
X84661452Y18789000D01*
X84613833Y18741380D01*
X84566214Y18646142D01*
X84566214Y18550904D01*
X84613833Y18408047D01*
X85185261Y17836619D01*
X84566214Y17836619D01*
%TO.C,L3*%
X61888666Y21263619D02*
X62364857Y21263619D01*
X62364857Y22263619D01*
X61650571Y22263619D02*
X61031523Y22263619D01*
X61364857Y21882666D01*
X61222000Y21882666D01*
X61126761Y21835047D01*
X61079142Y21787428D01*
X61031523Y21692190D01*
X61031523Y21454095D01*
X61079142Y21358857D01*
X61126761Y21311238D01*
X61222000Y21263619D01*
X61507714Y21263619D01*
X61602952Y21311238D01*
X61650571Y21358857D01*
%TO.C,C50*%
X56778142Y19502357D02*
X56825761Y19549976D01*
X56873380Y19692833D01*
X56873380Y19788071D01*
X56825761Y19930928D01*
X56730523Y20026166D01*
X56635285Y20073785D01*
X56444809Y20121404D01*
X56301952Y20121404D01*
X56111476Y20073785D01*
X56016238Y20026166D01*
X55921000Y19930928D01*
X55873380Y19788071D01*
X55873380Y19692833D01*
X55921000Y19549976D01*
X55968619Y19502357D01*
X55873380Y18597595D02*
X55873380Y19073785D01*
X56349571Y19121404D01*
X56301952Y19073785D01*
X56254333Y18978547D01*
X56254333Y18740452D01*
X56301952Y18645214D01*
X56349571Y18597595D01*
X56444809Y18549976D01*
X56682904Y18549976D01*
X56778142Y18597595D01*
X56825761Y18645214D01*
X56873380Y18740452D01*
X56873380Y18978547D01*
X56825761Y19073785D01*
X56778142Y19121404D01*
X55873380Y17930928D02*
X55873380Y17835690D01*
X55921000Y17740452D01*
X55968619Y17692833D01*
X56063857Y17645214D01*
X56254333Y17597595D01*
X56492428Y17597595D01*
X56682904Y17645214D01*
X56778142Y17692833D01*
X56825761Y17740452D01*
X56873380Y17835690D01*
X56873380Y17930928D01*
X56825761Y18026166D01*
X56778142Y18073785D01*
X56682904Y18121404D01*
X56492428Y18169023D01*
X56254333Y18169023D01*
X56063857Y18121404D01*
X55968619Y18073785D01*
X55921000Y18026166D01*
X55873380Y17930928D01*
%TO.C,C42*%
X58937142Y19502357D02*
X58984761Y19549976D01*
X59032380Y19692833D01*
X59032380Y19788071D01*
X58984761Y19930928D01*
X58889523Y20026166D01*
X58794285Y20073785D01*
X58603809Y20121404D01*
X58460952Y20121404D01*
X58270476Y20073785D01*
X58175238Y20026166D01*
X58080000Y19930928D01*
X58032380Y19788071D01*
X58032380Y19692833D01*
X58080000Y19549976D01*
X58127619Y19502357D01*
X58365714Y18645214D02*
X59032380Y18645214D01*
X57984761Y18883309D02*
X58699047Y19121404D01*
X58699047Y18502357D01*
X58127619Y18169023D02*
X58080000Y18121404D01*
X58032380Y18026166D01*
X58032380Y17788071D01*
X58080000Y17692833D01*
X58127619Y17645214D01*
X58222857Y17597595D01*
X58318095Y17597595D01*
X58460952Y17645214D01*
X59032380Y18216642D01*
X59032380Y17597595D01*
%TO.C,C52*%
X52274742Y19921457D02*
X52322361Y19969076D01*
X52369980Y20111933D01*
X52369980Y20207171D01*
X52322361Y20350028D01*
X52227123Y20445266D01*
X52131885Y20492885D01*
X51941409Y20540504D01*
X51798552Y20540504D01*
X51608076Y20492885D01*
X51512838Y20445266D01*
X51417600Y20350028D01*
X51369980Y20207171D01*
X51369980Y20111933D01*
X51417600Y19969076D01*
X51465219Y19921457D01*
X51369980Y19016695D02*
X51369980Y19492885D01*
X51846171Y19540504D01*
X51798552Y19492885D01*
X51750933Y19397647D01*
X51750933Y19159552D01*
X51798552Y19064314D01*
X51846171Y19016695D01*
X51941409Y18969076D01*
X52179504Y18969076D01*
X52274742Y19016695D01*
X52322361Y19064314D01*
X52369980Y19159552D01*
X52369980Y19397647D01*
X52322361Y19492885D01*
X52274742Y19540504D01*
X51465219Y18588123D02*
X51417600Y18540504D01*
X51369980Y18445266D01*
X51369980Y18207171D01*
X51417600Y18111933D01*
X51465219Y18064314D01*
X51560457Y18016695D01*
X51655695Y18016695D01*
X51798552Y18064314D01*
X52369980Y18635742D01*
X52369980Y18016695D01*
%TO.C,C44*%
X73669142Y30106857D02*
X73716761Y30154476D01*
X73764380Y30297333D01*
X73764380Y30392571D01*
X73716761Y30535428D01*
X73621523Y30630666D01*
X73526285Y30678285D01*
X73335809Y30725904D01*
X73192952Y30725904D01*
X73002476Y30678285D01*
X72907238Y30630666D01*
X72812000Y30535428D01*
X72764380Y30392571D01*
X72764380Y30297333D01*
X72812000Y30154476D01*
X72859619Y30106857D01*
X73097714Y29249714D02*
X73764380Y29249714D01*
X72716761Y29487809D02*
X73431047Y29725904D01*
X73431047Y29106857D01*
X73097714Y28297333D02*
X73764380Y28297333D01*
X72716761Y28535428D02*
X73431047Y28773523D01*
X73431047Y28154476D01*
%TO.C,C40*%
X75955142Y30106857D02*
X76002761Y30154476D01*
X76050380Y30297333D01*
X76050380Y30392571D01*
X76002761Y30535428D01*
X75907523Y30630666D01*
X75812285Y30678285D01*
X75621809Y30725904D01*
X75478952Y30725904D01*
X75288476Y30678285D01*
X75193238Y30630666D01*
X75098000Y30535428D01*
X75050380Y30392571D01*
X75050380Y30297333D01*
X75098000Y30154476D01*
X75145619Y30106857D01*
X75383714Y29249714D02*
X76050380Y29249714D01*
X75002761Y29487809D02*
X75717047Y29725904D01*
X75717047Y29106857D01*
X75050380Y28535428D02*
X75050380Y28440190D01*
X75098000Y28344952D01*
X75145619Y28297333D01*
X75240857Y28249714D01*
X75431333Y28202095D01*
X75669428Y28202095D01*
X75859904Y28249714D01*
X75955142Y28297333D01*
X76002761Y28344952D01*
X76050380Y28440190D01*
X76050380Y28535428D01*
X76002761Y28630666D01*
X75955142Y28678285D01*
X75859904Y28725904D01*
X75669428Y28773523D01*
X75431333Y28773523D01*
X75240857Y28725904D01*
X75145619Y28678285D01*
X75098000Y28630666D01*
X75050380Y28535428D01*
%TO.C,C31*%
X71317142Y33472357D02*
X71364761Y33519976D01*
X71412380Y33662833D01*
X71412380Y33758071D01*
X71364761Y33900928D01*
X71269523Y33996166D01*
X71174285Y34043785D01*
X70983809Y34091404D01*
X70840952Y34091404D01*
X70650476Y34043785D01*
X70555238Y33996166D01*
X70460000Y33900928D01*
X70412380Y33758071D01*
X70412380Y33662833D01*
X70460000Y33519976D01*
X70507619Y33472357D01*
X70412380Y33139023D02*
X70412380Y32519976D01*
X70793333Y32853309D01*
X70793333Y32710452D01*
X70840952Y32615214D01*
X70888571Y32567595D01*
X70983809Y32519976D01*
X71221904Y32519976D01*
X71317142Y32567595D01*
X71364761Y32615214D01*
X71412380Y32710452D01*
X71412380Y32996166D01*
X71364761Y33091404D01*
X71317142Y33139023D01*
X71412380Y31567595D02*
X71412380Y32139023D01*
X71412380Y31853309D02*
X70412380Y31853309D01*
X70555238Y31948547D01*
X70650476Y32043785D01*
X70698095Y32139023D01*
%TO.C,C27*%
X81795857Y26025857D02*
X81843476Y25978238D01*
X81986333Y25930619D01*
X82081571Y25930619D01*
X82224428Y25978238D01*
X82319666Y26073476D01*
X82367285Y26168714D01*
X82414904Y26359190D01*
X82414904Y26502047D01*
X82367285Y26692523D01*
X82319666Y26787761D01*
X82224428Y26883000D01*
X82081571Y26930619D01*
X81986333Y26930619D01*
X81843476Y26883000D01*
X81795857Y26835380D01*
X81414904Y26835380D02*
X81367285Y26883000D01*
X81272047Y26930619D01*
X81033952Y26930619D01*
X80938714Y26883000D01*
X80891095Y26835380D01*
X80843476Y26740142D01*
X80843476Y26644904D01*
X80891095Y26502047D01*
X81462523Y25930619D01*
X80843476Y25930619D01*
X80510142Y26930619D02*
X79843476Y26930619D01*
X80272047Y25930619D01*
%TO.C,U8*%
X61655904Y17989619D02*
X61655904Y17180095D01*
X61608285Y17084857D01*
X61560666Y17037238D01*
X61465428Y16989619D01*
X61274952Y16989619D01*
X61179714Y17037238D01*
X61132095Y17084857D01*
X61084476Y17180095D01*
X61084476Y17989619D01*
X60465428Y17561047D02*
X60560666Y17608666D01*
X60608285Y17656285D01*
X60655904Y17751523D01*
X60655904Y17799142D01*
X60608285Y17894380D01*
X60560666Y17942000D01*
X60465428Y17989619D01*
X60274952Y17989619D01*
X60179714Y17942000D01*
X60132095Y17894380D01*
X60084476Y17799142D01*
X60084476Y17751523D01*
X60132095Y17656285D01*
X60179714Y17608666D01*
X60274952Y17561047D01*
X60465428Y17561047D01*
X60560666Y17513428D01*
X60608285Y17465809D01*
X60655904Y17370571D01*
X60655904Y17180095D01*
X60608285Y17084857D01*
X60560666Y17037238D01*
X60465428Y16989619D01*
X60274952Y16989619D01*
X60179714Y17037238D01*
X60132095Y17084857D01*
X60084476Y17180095D01*
X60084476Y17370571D01*
X60132095Y17465809D01*
X60179714Y17513428D01*
X60274952Y17561047D01*
%TO.C,U10*%
X64484095Y31154619D02*
X64484095Y30345095D01*
X64436476Y30249857D01*
X64388857Y30202238D01*
X64293619Y30154619D01*
X64103142Y30154619D01*
X64007904Y30202238D01*
X63960285Y30249857D01*
X63912666Y30345095D01*
X63912666Y31154619D01*
X62912666Y30154619D02*
X63484095Y30154619D01*
X63198380Y30154619D02*
X63198380Y31154619D01*
X63293619Y31011761D01*
X63388857Y30916523D01*
X63484095Y30868904D01*
X62293619Y31154619D02*
X62198380Y31154619D01*
X62103142Y31107000D01*
X62055523Y31059380D01*
X62007904Y30964142D01*
X61960285Y30773666D01*
X61960285Y30535571D01*
X62007904Y30345095D01*
X62055523Y30249857D01*
X62103142Y30202238D01*
X62198380Y30154619D01*
X62293619Y30154619D01*
X62388857Y30202238D01*
X62436476Y30249857D01*
X62484095Y30345095D01*
X62531714Y30535571D01*
X62531714Y30773666D01*
X62484095Y30964142D01*
X62436476Y31059380D01*
X62388857Y31107000D01*
X62293619Y31154619D01*
%TO.C,R20*%
X77795357Y26438619D02*
X78128690Y26914809D01*
X78366785Y26438619D02*
X78366785Y27438619D01*
X77985833Y27438619D01*
X77890595Y27391000D01*
X77842976Y27343380D01*
X77795357Y27248142D01*
X77795357Y27105285D01*
X77842976Y27010047D01*
X77890595Y26962428D01*
X77985833Y26914809D01*
X78366785Y26914809D01*
X77414404Y27343380D02*
X77366785Y27391000D01*
X77271547Y27438619D01*
X77033452Y27438619D01*
X76938214Y27391000D01*
X76890595Y27343380D01*
X76842976Y27248142D01*
X76842976Y27152904D01*
X76890595Y27010047D01*
X77462023Y26438619D01*
X76842976Y26438619D01*
X76223928Y27438619D02*
X76128690Y27438619D01*
X76033452Y27391000D01*
X75985833Y27343380D01*
X75938214Y27248142D01*
X75890595Y27057666D01*
X75890595Y26819571D01*
X75938214Y26629095D01*
X75985833Y26533857D01*
X76033452Y26486238D01*
X76128690Y26438619D01*
X76223928Y26438619D01*
X76319166Y26486238D01*
X76366785Y26533857D01*
X76414404Y26629095D01*
X76462023Y26819571D01*
X76462023Y27057666D01*
X76414404Y27248142D01*
X76366785Y27343380D01*
X76319166Y27391000D01*
X76223928Y27438619D01*
%TO.C,C29*%
X75598257Y16000457D02*
X75645876Y15952838D01*
X75788733Y15905219D01*
X75883971Y15905219D01*
X76026828Y15952838D01*
X76122066Y16048076D01*
X76169685Y16143314D01*
X76217304Y16333790D01*
X76217304Y16476647D01*
X76169685Y16667123D01*
X76122066Y16762361D01*
X76026828Y16857600D01*
X75883971Y16905219D01*
X75788733Y16905219D01*
X75645876Y16857600D01*
X75598257Y16809980D01*
X75217304Y16809980D02*
X75169685Y16857600D01*
X75074447Y16905219D01*
X74836352Y16905219D01*
X74741114Y16857600D01*
X74693495Y16809980D01*
X74645876Y16714742D01*
X74645876Y16619504D01*
X74693495Y16476647D01*
X75264923Y15905219D01*
X74645876Y15905219D01*
X74169685Y15905219D02*
X73979209Y15905219D01*
X73883971Y15952838D01*
X73836352Y16000457D01*
X73741114Y16143314D01*
X73693495Y16333790D01*
X73693495Y16714742D01*
X73741114Y16809980D01*
X73788733Y16857600D01*
X73883971Y16905219D01*
X74074447Y16905219D01*
X74169685Y16857600D01*
X74217304Y16809980D01*
X74264923Y16714742D01*
X74264923Y16476647D01*
X74217304Y16381409D01*
X74169685Y16333790D01*
X74074447Y16286171D01*
X73883971Y16286171D01*
X73788733Y16333790D01*
X73741114Y16381409D01*
X73693495Y16476647D01*
D11*
%TO.C,J22*%
X48371142Y23395809D02*
X48656857Y23395809D01*
X48514000Y23395809D02*
X48514000Y23895809D01*
X48561619Y23824380D01*
X48609238Y23776761D01*
X48656857Y23752952D01*
D10*
%TO.C,R23*%
X51252357Y29105619D02*
X51585690Y29581809D01*
X51823785Y29105619D02*
X51823785Y30105619D01*
X51442833Y30105619D01*
X51347595Y30058000D01*
X51299976Y30010380D01*
X51252357Y29915142D01*
X51252357Y29772285D01*
X51299976Y29677047D01*
X51347595Y29629428D01*
X51442833Y29581809D01*
X51823785Y29581809D01*
X50871404Y30010380D02*
X50823785Y30058000D01*
X50728547Y30105619D01*
X50490452Y30105619D01*
X50395214Y30058000D01*
X50347595Y30010380D01*
X50299976Y29915142D01*
X50299976Y29819904D01*
X50347595Y29677047D01*
X50919023Y29105619D01*
X50299976Y29105619D01*
X49966642Y30105619D02*
X49347595Y30105619D01*
X49680928Y29724666D01*
X49538071Y29724666D01*
X49442833Y29677047D01*
X49395214Y29629428D01*
X49347595Y29534190D01*
X49347595Y29296095D01*
X49395214Y29200857D01*
X49442833Y29153238D01*
X49538071Y29105619D01*
X49823785Y29105619D01*
X49919023Y29153238D01*
X49966642Y29200857D01*
%TO.C,C26*%
X80525857Y23866857D02*
X80573476Y23819238D01*
X80716333Y23771619D01*
X80811571Y23771619D01*
X80954428Y23819238D01*
X81049666Y23914476D01*
X81097285Y24009714D01*
X81144904Y24200190D01*
X81144904Y24343047D01*
X81097285Y24533523D01*
X81049666Y24628761D01*
X80954428Y24724000D01*
X80811571Y24771619D01*
X80716333Y24771619D01*
X80573476Y24724000D01*
X80525857Y24676380D01*
X80144904Y24676380D02*
X80097285Y24724000D01*
X80002047Y24771619D01*
X79763952Y24771619D01*
X79668714Y24724000D01*
X79621095Y24676380D01*
X79573476Y24581142D01*
X79573476Y24485904D01*
X79621095Y24343047D01*
X80192523Y23771619D01*
X79573476Y23771619D01*
X78716333Y24771619D02*
X78906809Y24771619D01*
X79002047Y24724000D01*
X79049666Y24676380D01*
X79144904Y24533523D01*
X79192523Y24343047D01*
X79192523Y23962095D01*
X79144904Y23866857D01*
X79097285Y23819238D01*
X79002047Y23771619D01*
X78811571Y23771619D01*
X78716333Y23819238D01*
X78668714Y23866857D01*
X78621095Y23962095D01*
X78621095Y24200190D01*
X78668714Y24295428D01*
X78716333Y24343047D01*
X78811571Y24390666D01*
X79002047Y24390666D01*
X79097285Y24343047D01*
X79144904Y24295428D01*
X79192523Y24200190D01*
%TO.C,C28*%
X81795857Y28057857D02*
X81843476Y28010238D01*
X81986333Y27962619D01*
X82081571Y27962619D01*
X82224428Y28010238D01*
X82319666Y28105476D01*
X82367285Y28200714D01*
X82414904Y28391190D01*
X82414904Y28534047D01*
X82367285Y28724523D01*
X82319666Y28819761D01*
X82224428Y28915000D01*
X82081571Y28962619D01*
X81986333Y28962619D01*
X81843476Y28915000D01*
X81795857Y28867380D01*
X81414904Y28867380D02*
X81367285Y28915000D01*
X81272047Y28962619D01*
X81033952Y28962619D01*
X80938714Y28915000D01*
X80891095Y28867380D01*
X80843476Y28772142D01*
X80843476Y28676904D01*
X80891095Y28534047D01*
X81462523Y27962619D01*
X80843476Y27962619D01*
X80272047Y28534047D02*
X80367285Y28581666D01*
X80414904Y28629285D01*
X80462523Y28724523D01*
X80462523Y28772142D01*
X80414904Y28867380D01*
X80367285Y28915000D01*
X80272047Y28962619D01*
X80081571Y28962619D01*
X79986333Y28915000D01*
X79938714Y28867380D01*
X79891095Y28772142D01*
X79891095Y28724523D01*
X79938714Y28629285D01*
X79986333Y28581666D01*
X80081571Y28534047D01*
X80272047Y28534047D01*
X80367285Y28486428D01*
X80414904Y28438809D01*
X80462523Y28343571D01*
X80462523Y28153095D01*
X80414904Y28057857D01*
X80367285Y28010238D01*
X80272047Y27962619D01*
X80081571Y27962619D01*
X79986333Y28010238D01*
X79938714Y28057857D01*
X79891095Y28153095D01*
X79891095Y28343571D01*
X79938714Y28438809D01*
X79986333Y28486428D01*
X80081571Y28534047D01*
%TO.C,C30*%
X51442857Y35169857D02*
X51490476Y35122238D01*
X51633333Y35074619D01*
X51728571Y35074619D01*
X51871428Y35122238D01*
X51966666Y35217476D01*
X52014285Y35312714D01*
X52061904Y35503190D01*
X52061904Y35646047D01*
X52014285Y35836523D01*
X51966666Y35931761D01*
X51871428Y36027000D01*
X51728571Y36074619D01*
X51633333Y36074619D01*
X51490476Y36027000D01*
X51442857Y35979380D01*
X51109523Y36074619D02*
X50490476Y36074619D01*
X50823809Y35693666D01*
X50680952Y35693666D01*
X50585714Y35646047D01*
X50538095Y35598428D01*
X50490476Y35503190D01*
X50490476Y35265095D01*
X50538095Y35169857D01*
X50585714Y35122238D01*
X50680952Y35074619D01*
X50966666Y35074619D01*
X51061904Y35122238D01*
X51109523Y35169857D01*
X49871428Y36074619D02*
X49776190Y36074619D01*
X49680952Y36027000D01*
X49633333Y35979380D01*
X49585714Y35884142D01*
X49538095Y35693666D01*
X49538095Y35455571D01*
X49585714Y35265095D01*
X49633333Y35169857D01*
X49680952Y35122238D01*
X49776190Y35074619D01*
X49871428Y35074619D01*
X49966666Y35122238D01*
X50014285Y35169857D01*
X50061904Y35265095D01*
X50109523Y35455571D01*
X50109523Y35693666D01*
X50061904Y35884142D01*
X50014285Y35979380D01*
X49966666Y36027000D01*
X49871428Y36074619D01*
%TO.C,C33*%
X55125857Y38029857D02*
X55173476Y37982238D01*
X55316333Y37934619D01*
X55411571Y37934619D01*
X55554428Y37982238D01*
X55649666Y38077476D01*
X55697285Y38172714D01*
X55744904Y38363190D01*
X55744904Y38506047D01*
X55697285Y38696523D01*
X55649666Y38791761D01*
X55554428Y38887000D01*
X55411571Y38934619D01*
X55316333Y38934619D01*
X55173476Y38887000D01*
X55125857Y38839380D01*
X54792523Y38934619D02*
X54173476Y38934619D01*
X54506809Y38553666D01*
X54363952Y38553666D01*
X54268714Y38506047D01*
X54221095Y38458428D01*
X54173476Y38363190D01*
X54173476Y38125095D01*
X54221095Y38029857D01*
X54268714Y37982238D01*
X54363952Y37934619D01*
X54649666Y37934619D01*
X54744904Y37982238D01*
X54792523Y38029857D01*
X53840142Y38934619D02*
X53221095Y38934619D01*
X53554428Y38553666D01*
X53411571Y38553666D01*
X53316333Y38506047D01*
X53268714Y38458428D01*
X53221095Y38363190D01*
X53221095Y38125095D01*
X53268714Y38029857D01*
X53316333Y37982238D01*
X53411571Y37934619D01*
X53697285Y37934619D01*
X53792523Y37982238D01*
X53840142Y38029857D01*
%TO.C,C34*%
X55000142Y32456357D02*
X55047761Y32503976D01*
X55095380Y32646833D01*
X55095380Y32742071D01*
X55047761Y32884928D01*
X54952523Y32980166D01*
X54857285Y33027785D01*
X54666809Y33075404D01*
X54523952Y33075404D01*
X54333476Y33027785D01*
X54238238Y32980166D01*
X54143000Y32884928D01*
X54095380Y32742071D01*
X54095380Y32646833D01*
X54143000Y32503976D01*
X54190619Y32456357D01*
X54095380Y32123023D02*
X54095380Y31503976D01*
X54476333Y31837309D01*
X54476333Y31694452D01*
X54523952Y31599214D01*
X54571571Y31551595D01*
X54666809Y31503976D01*
X54904904Y31503976D01*
X55000142Y31551595D01*
X55047761Y31599214D01*
X55095380Y31694452D01*
X55095380Y31980166D01*
X55047761Y32075404D01*
X55000142Y32123023D01*
X54428714Y30646833D02*
X55095380Y30646833D01*
X54047761Y30884928D02*
X54762047Y31123023D01*
X54762047Y30503976D01*
%TO.C,C35*%
X64142857Y23297857D02*
X64190476Y23250238D01*
X64333333Y23202619D01*
X64428571Y23202619D01*
X64571428Y23250238D01*
X64666666Y23345476D01*
X64714285Y23440714D01*
X64761904Y23631190D01*
X64761904Y23774047D01*
X64714285Y23964523D01*
X64666666Y24059761D01*
X64571428Y24155000D01*
X64428571Y24202619D01*
X64333333Y24202619D01*
X64190476Y24155000D01*
X64142857Y24107380D01*
X63809523Y24202619D02*
X63190476Y24202619D01*
X63523809Y23821666D01*
X63380952Y23821666D01*
X63285714Y23774047D01*
X63238095Y23726428D01*
X63190476Y23631190D01*
X63190476Y23393095D01*
X63238095Y23297857D01*
X63285714Y23250238D01*
X63380952Y23202619D01*
X63666666Y23202619D01*
X63761904Y23250238D01*
X63809523Y23297857D01*
X62285714Y24202619D02*
X62761904Y24202619D01*
X62809523Y23726428D01*
X62761904Y23774047D01*
X62666666Y23821666D01*
X62428571Y23821666D01*
X62333333Y23774047D01*
X62285714Y23726428D01*
X62238095Y23631190D01*
X62238095Y23393095D01*
X62285714Y23297857D01*
X62333333Y23250238D01*
X62428571Y23202619D01*
X62666666Y23202619D01*
X62761904Y23250238D01*
X62809523Y23297857D01*
%TO.C,C39*%
X64777857Y36693857D02*
X64825476Y36646238D01*
X64968333Y36598619D01*
X65063571Y36598619D01*
X65206428Y36646238D01*
X65301666Y36741476D01*
X65349285Y36836714D01*
X65396904Y37027190D01*
X65396904Y37170047D01*
X65349285Y37360523D01*
X65301666Y37455761D01*
X65206428Y37551000D01*
X65063571Y37598619D01*
X64968333Y37598619D01*
X64825476Y37551000D01*
X64777857Y37503380D01*
X64444523Y37598619D02*
X63825476Y37598619D01*
X64158809Y37217666D01*
X64015952Y37217666D01*
X63920714Y37170047D01*
X63873095Y37122428D01*
X63825476Y37027190D01*
X63825476Y36789095D01*
X63873095Y36693857D01*
X63920714Y36646238D01*
X64015952Y36598619D01*
X64301666Y36598619D01*
X64396904Y36646238D01*
X64444523Y36693857D01*
X63349285Y36598619D02*
X63158809Y36598619D01*
X63063571Y36646238D01*
X63015952Y36693857D01*
X62920714Y36836714D01*
X62873095Y37027190D01*
X62873095Y37408142D01*
X62920714Y37503380D01*
X62968333Y37551000D01*
X63063571Y37598619D01*
X63254047Y37598619D01*
X63349285Y37551000D01*
X63396904Y37503380D01*
X63444523Y37408142D01*
X63444523Y37170047D01*
X63396904Y37074809D01*
X63349285Y37027190D01*
X63254047Y36979571D01*
X63063571Y36979571D01*
X62968333Y37027190D01*
X62920714Y37074809D01*
X62873095Y37170047D01*
%TO.C,C43*%
X81795857Y30216857D02*
X81843476Y30169238D01*
X81986333Y30121619D01*
X82081571Y30121619D01*
X82224428Y30169238D01*
X82319666Y30264476D01*
X82367285Y30359714D01*
X82414904Y30550190D01*
X82414904Y30693047D01*
X82367285Y30883523D01*
X82319666Y30978761D01*
X82224428Y31074000D01*
X82081571Y31121619D01*
X81986333Y31121619D01*
X81843476Y31074000D01*
X81795857Y31026380D01*
X80938714Y30788285D02*
X80938714Y30121619D01*
X81176809Y31169238D02*
X81414904Y30454952D01*
X80795857Y30454952D01*
X80510142Y31121619D02*
X79891095Y31121619D01*
X80224428Y30740666D01*
X80081571Y30740666D01*
X79986333Y30693047D01*
X79938714Y30645428D01*
X79891095Y30550190D01*
X79891095Y30312095D01*
X79938714Y30216857D01*
X79986333Y30169238D01*
X80081571Y30121619D01*
X80367285Y30121619D01*
X80462523Y30169238D01*
X80510142Y30216857D01*
%TO.C,C47*%
X75889142Y23121857D02*
X75936761Y23169476D01*
X75984380Y23312333D01*
X75984380Y23407571D01*
X75936761Y23550428D01*
X75841523Y23645666D01*
X75746285Y23693285D01*
X75555809Y23740904D01*
X75412952Y23740904D01*
X75222476Y23693285D01*
X75127238Y23645666D01*
X75032000Y23550428D01*
X74984380Y23407571D01*
X74984380Y23312333D01*
X75032000Y23169476D01*
X75079619Y23121857D01*
X75317714Y22264714D02*
X75984380Y22264714D01*
X74936761Y22502809D02*
X75651047Y22740904D01*
X75651047Y22121857D01*
X74984380Y21836142D02*
X74984380Y21169476D01*
X75984380Y21598047D01*
%TO.C,L1*%
X76239666Y34720619D02*
X76715857Y34720619D01*
X76715857Y35720619D01*
X75382523Y34720619D02*
X75953952Y34720619D01*
X75668238Y34720619D02*
X75668238Y35720619D01*
X75763476Y35577761D01*
X75858714Y35482523D01*
X75953952Y35434904D01*
%TO.C,R21*%
X76842857Y24025619D02*
X77176190Y24501809D01*
X77414285Y24025619D02*
X77414285Y25025619D01*
X77033333Y25025619D01*
X76938095Y24978000D01*
X76890476Y24930380D01*
X76842857Y24835142D01*
X76842857Y24692285D01*
X76890476Y24597047D01*
X76938095Y24549428D01*
X77033333Y24501809D01*
X77414285Y24501809D01*
X76461904Y24930380D02*
X76414285Y24978000D01*
X76319047Y25025619D01*
X76080952Y25025619D01*
X75985714Y24978000D01*
X75938095Y24930380D01*
X75890476Y24835142D01*
X75890476Y24739904D01*
X75938095Y24597047D01*
X76509523Y24025619D01*
X75890476Y24025619D01*
X74938095Y24025619D02*
X75509523Y24025619D01*
X75223809Y24025619D02*
X75223809Y25025619D01*
X75319047Y24882761D01*
X75414285Y24787523D01*
X75509523Y24739904D01*
%TO.C,U11*%
X74392380Y25114095D02*
X75201904Y25114095D01*
X75297142Y25066476D01*
X75344761Y25018857D01*
X75392380Y24923619D01*
X75392380Y24733142D01*
X75344761Y24637904D01*
X75297142Y24590285D01*
X75201904Y24542666D01*
X74392380Y24542666D01*
X75392380Y23542666D02*
X75392380Y24114095D01*
X75392380Y23828380D02*
X74392380Y23828380D01*
X74535238Y23923619D01*
X74630476Y24018857D01*
X74678095Y24114095D01*
X75392380Y22590285D02*
X75392380Y23161714D01*
X75392380Y22876000D02*
X74392380Y22876000D01*
X74535238Y22971238D01*
X74630476Y23066476D01*
X74678095Y23161714D01*
%TO.C,C23*%
X23971542Y35136057D02*
X24019161Y35183676D01*
X24066780Y35326533D01*
X24066780Y35421771D01*
X24019161Y35564628D01*
X23923923Y35659866D01*
X23828685Y35707485D01*
X23638209Y35755104D01*
X23495352Y35755104D01*
X23304876Y35707485D01*
X23209638Y35659866D01*
X23114400Y35564628D01*
X23066780Y35421771D01*
X23066780Y35326533D01*
X23114400Y35183676D01*
X23162019Y35136057D01*
X23162019Y34755104D02*
X23114400Y34707485D01*
X23066780Y34612247D01*
X23066780Y34374152D01*
X23114400Y34278914D01*
X23162019Y34231295D01*
X23257257Y34183676D01*
X23352495Y34183676D01*
X23495352Y34231295D01*
X24066780Y34802723D01*
X24066780Y34183676D01*
X23066780Y33850342D02*
X23066780Y33231295D01*
X23447733Y33564628D01*
X23447733Y33421771D01*
X23495352Y33326533D01*
X23542971Y33278914D01*
X23638209Y33231295D01*
X23876304Y33231295D01*
X23971542Y33278914D01*
X24019161Y33326533D01*
X24066780Y33421771D01*
X24066780Y33707485D01*
X24019161Y33802723D01*
X23971542Y33850342D01*
%TO.C,C32*%
X68396142Y13787357D02*
X68443761Y13834976D01*
X68491380Y13977833D01*
X68491380Y14073071D01*
X68443761Y14215928D01*
X68348523Y14311166D01*
X68253285Y14358785D01*
X68062809Y14406404D01*
X67919952Y14406404D01*
X67729476Y14358785D01*
X67634238Y14311166D01*
X67539000Y14215928D01*
X67491380Y14073071D01*
X67491380Y13977833D01*
X67539000Y13834976D01*
X67586619Y13787357D01*
X67491380Y13454023D02*
X67491380Y12834976D01*
X67872333Y13168309D01*
X67872333Y13025452D01*
X67919952Y12930214D01*
X67967571Y12882595D01*
X68062809Y12834976D01*
X68300904Y12834976D01*
X68396142Y12882595D01*
X68443761Y12930214D01*
X68491380Y13025452D01*
X68491380Y13311166D01*
X68443761Y13406404D01*
X68396142Y13454023D01*
X67586619Y12454023D02*
X67539000Y12406404D01*
X67491380Y12311166D01*
X67491380Y12073071D01*
X67539000Y11977833D01*
X67586619Y11930214D01*
X67681857Y11882595D01*
X67777095Y11882595D01*
X67919952Y11930214D01*
X68491380Y12501642D01*
X68491380Y11882595D01*
%TO.C,C54*%
X47822142Y19438857D02*
X47869761Y19486476D01*
X47917380Y19629333D01*
X47917380Y19724571D01*
X47869761Y19867428D01*
X47774523Y19962666D01*
X47679285Y20010285D01*
X47488809Y20057904D01*
X47345952Y20057904D01*
X47155476Y20010285D01*
X47060238Y19962666D01*
X46965000Y19867428D01*
X46917380Y19724571D01*
X46917380Y19629333D01*
X46965000Y19486476D01*
X47012619Y19438857D01*
X46917380Y18534095D02*
X46917380Y19010285D01*
X47393571Y19057904D01*
X47345952Y19010285D01*
X47298333Y18915047D01*
X47298333Y18676952D01*
X47345952Y18581714D01*
X47393571Y18534095D01*
X47488809Y18486476D01*
X47726904Y18486476D01*
X47822142Y18534095D01*
X47869761Y18581714D01*
X47917380Y18676952D01*
X47917380Y18915047D01*
X47869761Y19010285D01*
X47822142Y19057904D01*
X47250714Y17629333D02*
X47917380Y17629333D01*
X46869761Y17867428D02*
X47584047Y18105523D01*
X47584047Y17486476D01*
%TO.C,R15*%
X29078157Y35615619D02*
X29411490Y36091809D01*
X29649585Y35615619D02*
X29649585Y36615619D01*
X29268633Y36615619D01*
X29173395Y36568000D01*
X29125776Y36520380D01*
X29078157Y36425142D01*
X29078157Y36282285D01*
X29125776Y36187047D01*
X29173395Y36139428D01*
X29268633Y36091809D01*
X29649585Y36091809D01*
X28125776Y35615619D02*
X28697204Y35615619D01*
X28411490Y35615619D02*
X28411490Y36615619D01*
X28506728Y36472761D01*
X28601966Y36377523D01*
X28697204Y36329904D01*
X27221014Y36615619D02*
X27697204Y36615619D01*
X27744823Y36139428D01*
X27697204Y36187047D01*
X27601966Y36234666D01*
X27363871Y36234666D01*
X27268633Y36187047D01*
X27221014Y36139428D01*
X27173395Y36044190D01*
X27173395Y35806095D01*
X27221014Y35710857D01*
X27268633Y35663238D01*
X27363871Y35615619D01*
X27601966Y35615619D01*
X27697204Y35663238D01*
X27744823Y35710857D01*
%TO.C,R19*%
X25534857Y35404819D02*
X25868190Y35881009D01*
X26106285Y35404819D02*
X26106285Y36404819D01*
X25725333Y36404819D01*
X25630095Y36357200D01*
X25582476Y36309580D01*
X25534857Y36214342D01*
X25534857Y36071485D01*
X25582476Y35976247D01*
X25630095Y35928628D01*
X25725333Y35881009D01*
X26106285Y35881009D01*
X24582476Y35404819D02*
X25153904Y35404819D01*
X24868190Y35404819D02*
X24868190Y36404819D01*
X24963428Y36261961D01*
X25058666Y36166723D01*
X25153904Y36119104D01*
X24106285Y35404819D02*
X23915809Y35404819D01*
X23820571Y35452438D01*
X23772952Y35500057D01*
X23677714Y35642914D01*
X23630095Y35833390D01*
X23630095Y36214342D01*
X23677714Y36309580D01*
X23725333Y36357200D01*
X23820571Y36404819D01*
X24011047Y36404819D01*
X24106285Y36357200D01*
X24153904Y36309580D01*
X24201523Y36214342D01*
X24201523Y35976247D01*
X24153904Y35881009D01*
X24106285Y35833390D01*
X24011047Y35785771D01*
X23820571Y35785771D01*
X23725333Y35833390D01*
X23677714Y35881009D01*
X23630095Y35976247D01*
%TO.C,R22*%
X21877257Y35404819D02*
X22210590Y35881009D01*
X22448685Y35404819D02*
X22448685Y36404819D01*
X22067733Y36404819D01*
X21972495Y36357200D01*
X21924876Y36309580D01*
X21877257Y36214342D01*
X21877257Y36071485D01*
X21924876Y35976247D01*
X21972495Y35928628D01*
X22067733Y35881009D01*
X22448685Y35881009D01*
X21496304Y36309580D02*
X21448685Y36357200D01*
X21353447Y36404819D01*
X21115352Y36404819D01*
X21020114Y36357200D01*
X20972495Y36309580D01*
X20924876Y36214342D01*
X20924876Y36119104D01*
X20972495Y35976247D01*
X21543923Y35404819D01*
X20924876Y35404819D01*
X20543923Y36309580D02*
X20496304Y36357200D01*
X20401066Y36404819D01*
X20162971Y36404819D01*
X20067733Y36357200D01*
X20020114Y36309580D01*
X19972495Y36214342D01*
X19972495Y36119104D01*
X20020114Y35976247D01*
X20591542Y35404819D01*
X19972495Y35404819D01*
%TO.C,M8*%
X19081523Y7547619D02*
X19081523Y8547619D01*
X18748190Y7833333D01*
X18414857Y8547619D01*
X18414857Y7547619D01*
X17795809Y8119047D02*
X17891047Y8166666D01*
X17938666Y8214285D01*
X17986285Y8309523D01*
X17986285Y8357142D01*
X17938666Y8452380D01*
X17891047Y8500000D01*
X17795809Y8547619D01*
X17605333Y8547619D01*
X17510095Y8500000D01*
X17462476Y8452380D01*
X17414857Y8357142D01*
X17414857Y8309523D01*
X17462476Y8214285D01*
X17510095Y8166666D01*
X17605333Y8119047D01*
X17795809Y8119047D01*
X17891047Y8071428D01*
X17938666Y8023809D01*
X17986285Y7928571D01*
X17986285Y7738095D01*
X17938666Y7642857D01*
X17891047Y7595238D01*
X17795809Y7547619D01*
X17605333Y7547619D01*
X17510095Y7595238D01*
X17462476Y7642857D01*
X17414857Y7738095D01*
X17414857Y7928571D01*
X17462476Y8023809D01*
X17510095Y8071428D01*
X17605333Y8119047D01*
%TO.C,J3*%
X81912380Y13033333D02*
X82626666Y13033333D01*
X82769523Y13080952D01*
X82864761Y13176190D01*
X82912380Y13319047D01*
X82912380Y13414285D01*
X81912380Y12652380D02*
X81912380Y12033333D01*
X82293333Y12366666D01*
X82293333Y12223809D01*
X82340952Y12128571D01*
X82388571Y12080952D01*
X82483809Y12033333D01*
X82721904Y12033333D01*
X82817142Y12080952D01*
X82864761Y12128571D01*
X82912380Y12223809D01*
X82912380Y12509523D01*
X82864761Y12604761D01*
X82817142Y12652380D01*
%TO.C,C58*%
X14765257Y15652457D02*
X14812876Y15604838D01*
X14955733Y15557219D01*
X15050971Y15557219D01*
X15193828Y15604838D01*
X15289066Y15700076D01*
X15336685Y15795314D01*
X15384304Y15985790D01*
X15384304Y16128647D01*
X15336685Y16319123D01*
X15289066Y16414361D01*
X15193828Y16509600D01*
X15050971Y16557219D01*
X14955733Y16557219D01*
X14812876Y16509600D01*
X14765257Y16461980D01*
X13860495Y16557219D02*
X14336685Y16557219D01*
X14384304Y16081028D01*
X14336685Y16128647D01*
X14241447Y16176266D01*
X14003352Y16176266D01*
X13908114Y16128647D01*
X13860495Y16081028D01*
X13812876Y15985790D01*
X13812876Y15747695D01*
X13860495Y15652457D01*
X13908114Y15604838D01*
X14003352Y15557219D01*
X14241447Y15557219D01*
X14336685Y15604838D01*
X14384304Y15652457D01*
X13241447Y16128647D02*
X13336685Y16176266D01*
X13384304Y16223885D01*
X13431923Y16319123D01*
X13431923Y16366742D01*
X13384304Y16461980D01*
X13336685Y16509600D01*
X13241447Y16557219D01*
X13050971Y16557219D01*
X12955733Y16509600D01*
X12908114Y16461980D01*
X12860495Y16366742D01*
X12860495Y16319123D01*
X12908114Y16223885D01*
X12955733Y16176266D01*
X13050971Y16128647D01*
X13241447Y16128647D01*
X13336685Y16081028D01*
X13384304Y16033409D01*
X13431923Y15938171D01*
X13431923Y15747695D01*
X13384304Y15652457D01*
X13336685Y15604838D01*
X13241447Y15557219D01*
X13050971Y15557219D01*
X12955733Y15604838D01*
X12908114Y15652457D01*
X12860495Y15747695D01*
X12860495Y15938171D01*
X12908114Y16033409D01*
X12955733Y16081028D01*
X13050971Y16128647D01*
%TO.C,R17*%
X133231375Y-44612380D02*
X133564708Y-44136190D01*
X133802803Y-44612380D02*
X133802803Y-43612380D01*
X133421851Y-43612380D01*
X133326613Y-43660000D01*
X133278994Y-43707619D01*
X133231375Y-43802857D01*
X133231375Y-43945714D01*
X133278994Y-44040952D01*
X133326613Y-44088571D01*
X133421851Y-44136190D01*
X133802803Y-44136190D01*
X132278994Y-44612380D02*
X132850422Y-44612380D01*
X132564708Y-44612380D02*
X132564708Y-43612380D01*
X132659946Y-43755238D01*
X132755184Y-43850476D01*
X132850422Y-43898095D01*
X131945660Y-43612380D02*
X131278994Y-43612380D01*
X131707565Y-44612380D01*
%TO.C,R39*%
X7094457Y18706819D02*
X7427790Y19183009D01*
X7665885Y18706819D02*
X7665885Y19706819D01*
X7284933Y19706819D01*
X7189695Y19659200D01*
X7142076Y19611580D01*
X7094457Y19516342D01*
X7094457Y19373485D01*
X7142076Y19278247D01*
X7189695Y19230628D01*
X7284933Y19183009D01*
X7665885Y19183009D01*
X6761123Y19706819D02*
X6142076Y19706819D01*
X6475409Y19325866D01*
X6332552Y19325866D01*
X6237314Y19278247D01*
X6189695Y19230628D01*
X6142076Y19135390D01*
X6142076Y18897295D01*
X6189695Y18802057D01*
X6237314Y18754438D01*
X6332552Y18706819D01*
X6618266Y18706819D01*
X6713504Y18754438D01*
X6761123Y18802057D01*
X5665885Y18706819D02*
X5475409Y18706819D01*
X5380171Y18754438D01*
X5332552Y18802057D01*
X5237314Y18944914D01*
X5189695Y19135390D01*
X5189695Y19516342D01*
X5237314Y19611580D01*
X5284933Y19659200D01*
X5380171Y19706819D01*
X5570647Y19706819D01*
X5665885Y19659200D01*
X5713504Y19611580D01*
X5761123Y19516342D01*
X5761123Y19278247D01*
X5713504Y19183009D01*
X5665885Y19135390D01*
X5570647Y19087771D01*
X5380171Y19087771D01*
X5284933Y19135390D01*
X5237314Y19183009D01*
X5189695Y19278247D01*
%TO.C,R25*%
X137421375Y-41942380D02*
X137754708Y-41466190D01*
X137992803Y-41942380D02*
X137992803Y-40942380D01*
X137611851Y-40942380D01*
X137516613Y-40990000D01*
X137468994Y-41037619D01*
X137421375Y-41132857D01*
X137421375Y-41275714D01*
X137468994Y-41370952D01*
X137516613Y-41418571D01*
X137611851Y-41466190D01*
X137992803Y-41466190D01*
X137040422Y-41037619D02*
X136992803Y-40990000D01*
X136897565Y-40942380D01*
X136659470Y-40942380D01*
X136564232Y-40990000D01*
X136516613Y-41037619D01*
X136468994Y-41132857D01*
X136468994Y-41228095D01*
X136516613Y-41370952D01*
X137088041Y-41942380D01*
X136468994Y-41942380D01*
X135564232Y-40942380D02*
X136040422Y-40942380D01*
X136088041Y-41418571D01*
X136040422Y-41370952D01*
X135945184Y-41323333D01*
X135707089Y-41323333D01*
X135611851Y-41370952D01*
X135564232Y-41418571D01*
X135516613Y-41513809D01*
X135516613Y-41751904D01*
X135564232Y-41847142D01*
X135611851Y-41894761D01*
X135707089Y-41942380D01*
X135945184Y-41942380D01*
X136040422Y-41894761D01*
X136088041Y-41847142D01*
%TO.C,C59*%
X10407942Y38031657D02*
X10455561Y38079276D01*
X10503180Y38222133D01*
X10503180Y38317371D01*
X10455561Y38460228D01*
X10360323Y38555466D01*
X10265085Y38603085D01*
X10074609Y38650704D01*
X9931752Y38650704D01*
X9741276Y38603085D01*
X9646038Y38555466D01*
X9550800Y38460228D01*
X9503180Y38317371D01*
X9503180Y38222133D01*
X9550800Y38079276D01*
X9598419Y38031657D01*
X9503180Y37126895D02*
X9503180Y37603085D01*
X9979371Y37650704D01*
X9931752Y37603085D01*
X9884133Y37507847D01*
X9884133Y37269752D01*
X9931752Y37174514D01*
X9979371Y37126895D01*
X10074609Y37079276D01*
X10312704Y37079276D01*
X10407942Y37126895D01*
X10455561Y37174514D01*
X10503180Y37269752D01*
X10503180Y37507847D01*
X10455561Y37603085D01*
X10407942Y37650704D01*
X10503180Y36603085D02*
X10503180Y36412609D01*
X10455561Y36317371D01*
X10407942Y36269752D01*
X10265085Y36174514D01*
X10074609Y36126895D01*
X9693657Y36126895D01*
X9598419Y36174514D01*
X9550800Y36222133D01*
X9503180Y36317371D01*
X9503180Y36507847D01*
X9550800Y36603085D01*
X9598419Y36650704D01*
X9693657Y36698323D01*
X9931752Y36698323D01*
X10026990Y36650704D01*
X10074609Y36603085D01*
X10122228Y36507847D01*
X10122228Y36317371D01*
X10074609Y36222133D01*
X10026990Y36174514D01*
X9931752Y36126895D01*
%TO.C,J1*%
X81912380Y28273333D02*
X82626666Y28273333D01*
X82769523Y28320952D01*
X82864761Y28416190D01*
X82912380Y28559047D01*
X82912380Y28654285D01*
X82912380Y27273333D02*
X82912380Y27844761D01*
X82912380Y27559047D02*
X81912380Y27559047D01*
X82055238Y27654285D01*
X82150476Y27749523D01*
X82198095Y27844761D01*
%TO.C,R24*%
X133231375Y-41942380D02*
X133564708Y-41466190D01*
X133802803Y-41942380D02*
X133802803Y-40942380D01*
X133421851Y-40942380D01*
X133326613Y-40990000D01*
X133278994Y-41037619D01*
X133231375Y-41132857D01*
X133231375Y-41275714D01*
X133278994Y-41370952D01*
X133326613Y-41418571D01*
X133421851Y-41466190D01*
X133802803Y-41466190D01*
X132850422Y-41037619D02*
X132802803Y-40990000D01*
X132707565Y-40942380D01*
X132469470Y-40942380D01*
X132374232Y-40990000D01*
X132326613Y-41037619D01*
X132278994Y-41132857D01*
X132278994Y-41228095D01*
X132326613Y-41370952D01*
X132898041Y-41942380D01*
X132278994Y-41942380D01*
X131421851Y-41275714D02*
X131421851Y-41942380D01*
X131659946Y-40894761D02*
X131898041Y-41609047D01*
X131278994Y-41609047D01*
%TO.C,R28*%
X40561375Y-12122380D02*
X40894708Y-11646190D01*
X41132803Y-12122380D02*
X41132803Y-11122380D01*
X40751851Y-11122380D01*
X40656613Y-11170000D01*
X40608994Y-11217619D01*
X40561375Y-11312857D01*
X40561375Y-11455714D01*
X40608994Y-11550952D01*
X40656613Y-11598571D01*
X40751851Y-11646190D01*
X41132803Y-11646190D01*
X40180422Y-11217619D02*
X40132803Y-11170000D01*
X40037565Y-11122380D01*
X39799470Y-11122380D01*
X39704232Y-11170000D01*
X39656613Y-11217619D01*
X39608994Y-11312857D01*
X39608994Y-11408095D01*
X39656613Y-11550952D01*
X40228041Y-12122380D01*
X39608994Y-12122380D01*
X39037565Y-11550952D02*
X39132803Y-11503333D01*
X39180422Y-11455714D01*
X39228041Y-11360476D01*
X39228041Y-11312857D01*
X39180422Y-11217619D01*
X39132803Y-11170000D01*
X39037565Y-11122380D01*
X38847089Y-11122380D01*
X38751851Y-11170000D01*
X38704232Y-11217619D01*
X38656613Y-11312857D01*
X38656613Y-11360476D01*
X38704232Y-11455714D01*
X38751851Y-11503333D01*
X38847089Y-11550952D01*
X39037565Y-11550952D01*
X39132803Y-11598571D01*
X39180422Y-11646190D01*
X39228041Y-11741428D01*
X39228041Y-11931904D01*
X39180422Y-12027142D01*
X39132803Y-12074761D01*
X39037565Y-12122380D01*
X38847089Y-12122380D01*
X38751851Y-12074761D01*
X38704232Y-12027142D01*
X38656613Y-11931904D01*
X38656613Y-11741428D01*
X38704232Y-11646190D01*
X38751851Y-11598571D01*
X38847089Y-11550952D01*
%TO.C,C55*%
X18067257Y14672057D02*
X18114876Y14624438D01*
X18257733Y14576819D01*
X18352971Y14576819D01*
X18495828Y14624438D01*
X18591066Y14719676D01*
X18638685Y14814914D01*
X18686304Y15005390D01*
X18686304Y15148247D01*
X18638685Y15338723D01*
X18591066Y15433961D01*
X18495828Y15529200D01*
X18352971Y15576819D01*
X18257733Y15576819D01*
X18114876Y15529200D01*
X18067257Y15481580D01*
X17162495Y15576819D02*
X17638685Y15576819D01*
X17686304Y15100628D01*
X17638685Y15148247D01*
X17543447Y15195866D01*
X17305352Y15195866D01*
X17210114Y15148247D01*
X17162495Y15100628D01*
X17114876Y15005390D01*
X17114876Y14767295D01*
X17162495Y14672057D01*
X17210114Y14624438D01*
X17305352Y14576819D01*
X17543447Y14576819D01*
X17638685Y14624438D01*
X17686304Y14672057D01*
X16210114Y15576819D02*
X16686304Y15576819D01*
X16733923Y15100628D01*
X16686304Y15148247D01*
X16591066Y15195866D01*
X16352971Y15195866D01*
X16257733Y15148247D01*
X16210114Y15100628D01*
X16162495Y15005390D01*
X16162495Y14767295D01*
X16210114Y14672057D01*
X16257733Y14624438D01*
X16352971Y14576819D01*
X16591066Y14576819D01*
X16686304Y14624438D01*
X16733923Y14672057D01*
%TO.C,D6*%
X86820613Y-53010380D02*
X86820613Y-52010380D01*
X86582518Y-52010380D01*
X86439660Y-52058000D01*
X86344422Y-52153238D01*
X86296803Y-52248476D01*
X86249184Y-52438952D01*
X86249184Y-52581809D01*
X86296803Y-52772285D01*
X86344422Y-52867523D01*
X86439660Y-52962761D01*
X86582518Y-53010380D01*
X86820613Y-53010380D01*
X85392041Y-52010380D02*
X85582518Y-52010380D01*
X85677756Y-52058000D01*
X85725375Y-52105619D01*
X85820613Y-52248476D01*
X85868232Y-52438952D01*
X85868232Y-52819904D01*
X85820613Y-52915142D01*
X85772994Y-52962761D01*
X85677756Y-53010380D01*
X85487279Y-53010380D01*
X85392041Y-52962761D01*
X85344422Y-52915142D01*
X85296803Y-52819904D01*
X85296803Y-52581809D01*
X85344422Y-52486571D01*
X85392041Y-52438952D01*
X85487279Y-52391333D01*
X85677756Y-52391333D01*
X85772994Y-52438952D01*
X85820613Y-52486571D01*
X85868232Y-52581809D01*
%TO.C,C48*%
X47051375Y-21937142D02*
X47098994Y-21984761D01*
X47241851Y-22032380D01*
X47337089Y-22032380D01*
X47479946Y-21984761D01*
X47575184Y-21889523D01*
X47622803Y-21794285D01*
X47670422Y-21603809D01*
X47670422Y-21460952D01*
X47622803Y-21270476D01*
X47575184Y-21175238D01*
X47479946Y-21080000D01*
X47337089Y-21032380D01*
X47241851Y-21032380D01*
X47098994Y-21080000D01*
X47051375Y-21127619D01*
X46194232Y-21365714D02*
X46194232Y-22032380D01*
X46432327Y-20984761D02*
X46670422Y-21699047D01*
X46051375Y-21699047D01*
X45527565Y-21460952D02*
X45622803Y-21413333D01*
X45670422Y-21365714D01*
X45718041Y-21270476D01*
X45718041Y-21222857D01*
X45670422Y-21127619D01*
X45622803Y-21080000D01*
X45527565Y-21032380D01*
X45337089Y-21032380D01*
X45241851Y-21080000D01*
X45194232Y-21127619D01*
X45146613Y-21222857D01*
X45146613Y-21270476D01*
X45194232Y-21365714D01*
X45241851Y-21413333D01*
X45337089Y-21460952D01*
X45527565Y-21460952D01*
X45622803Y-21508571D01*
X45670422Y-21556190D01*
X45718041Y-21651428D01*
X45718041Y-21841904D01*
X45670422Y-21937142D01*
X45622803Y-21984761D01*
X45527565Y-22032380D01*
X45337089Y-22032380D01*
X45241851Y-21984761D01*
X45194232Y-21937142D01*
X45146613Y-21841904D01*
X45146613Y-21651428D01*
X45194232Y-21556190D01*
X45241851Y-21508571D01*
X45337089Y-21460952D01*
%TO.C,Q1*%
X6834419Y37738038D02*
X6786800Y37833276D01*
X6691561Y37928514D01*
X6548704Y38071371D01*
X6501085Y38166609D01*
X6501085Y38261847D01*
X6739180Y38214228D02*
X6691561Y38309466D01*
X6596323Y38404704D01*
X6405847Y38452323D01*
X6072514Y38452323D01*
X5882038Y38404704D01*
X5786800Y38309466D01*
X5739180Y38214228D01*
X5739180Y38023752D01*
X5786800Y37928514D01*
X5882038Y37833276D01*
X6072514Y37785657D01*
X6405847Y37785657D01*
X6596323Y37833276D01*
X6691561Y37928514D01*
X6739180Y38023752D01*
X6739180Y38214228D01*
X6739180Y36833276D02*
X6739180Y37404704D01*
X6739180Y37118990D02*
X5739180Y37118990D01*
X5882038Y37214228D01*
X5977276Y37309466D01*
X6024895Y37404704D01*
%TO.C,R41*%
X15191980Y39860457D02*
X14715790Y40193790D01*
X15191980Y40431885D02*
X14191980Y40431885D01*
X14191980Y40050933D01*
X14239600Y39955695D01*
X14287219Y39908076D01*
X14382457Y39860457D01*
X14525314Y39860457D01*
X14620552Y39908076D01*
X14668171Y39955695D01*
X14715790Y40050933D01*
X14715790Y40431885D01*
X14525314Y39003314D02*
X15191980Y39003314D01*
X14144361Y39241409D02*
X14858647Y39479504D01*
X14858647Y38860457D01*
X15191980Y37955695D02*
X15191980Y38527123D01*
X15191980Y38241409D02*
X14191980Y38241409D01*
X14334838Y38336647D01*
X14430076Y38431885D01*
X14477695Y38527123D01*
D12*
%TO.C,J4*%
X82017380Y42898333D02*
X82731666Y42898333D01*
X82874523Y42945952D01*
X82969761Y43041190D01*
X83017380Y43184047D01*
X83017380Y43279285D01*
X82350714Y41993571D02*
X83017380Y41993571D01*
X81969761Y42231666D02*
X82684047Y42469761D01*
X82684047Y41850714D01*
D10*
%TO.C,R27*%
X40561375Y-14792380D02*
X40894708Y-14316190D01*
X41132803Y-14792380D02*
X41132803Y-13792380D01*
X40751851Y-13792380D01*
X40656613Y-13840000D01*
X40608994Y-13887619D01*
X40561375Y-13982857D01*
X40561375Y-14125714D01*
X40608994Y-14220952D01*
X40656613Y-14268571D01*
X40751851Y-14316190D01*
X41132803Y-14316190D01*
X40180422Y-13887619D02*
X40132803Y-13840000D01*
X40037565Y-13792380D01*
X39799470Y-13792380D01*
X39704232Y-13840000D01*
X39656613Y-13887619D01*
X39608994Y-13982857D01*
X39608994Y-14078095D01*
X39656613Y-14220952D01*
X40228041Y-14792380D01*
X39608994Y-14792380D01*
X39275660Y-13792380D02*
X38608994Y-13792380D01*
X39037565Y-14792380D01*
%TO.C,L2*%
X136945184Y-44392380D02*
X137421375Y-44392380D01*
X137421375Y-43392380D01*
X136659470Y-43487619D02*
X136611851Y-43440000D01*
X136516613Y-43392380D01*
X136278518Y-43392380D01*
X136183279Y-43440000D01*
X136135660Y-43487619D01*
X136088041Y-43582857D01*
X136088041Y-43678095D01*
X136135660Y-43820952D01*
X136707089Y-44392380D01*
X136088041Y-44392380D01*
%TO.C,C25*%
X94981375Y-19247142D02*
X95028994Y-19294761D01*
X95171851Y-19342380D01*
X95267089Y-19342380D01*
X95409946Y-19294761D01*
X95505184Y-19199523D01*
X95552803Y-19104285D01*
X95600422Y-18913809D01*
X95600422Y-18770952D01*
X95552803Y-18580476D01*
X95505184Y-18485238D01*
X95409946Y-18390000D01*
X95267089Y-18342380D01*
X95171851Y-18342380D01*
X95028994Y-18390000D01*
X94981375Y-18437619D01*
X94600422Y-18437619D02*
X94552803Y-18390000D01*
X94457565Y-18342380D01*
X94219470Y-18342380D01*
X94124232Y-18390000D01*
X94076613Y-18437619D01*
X94028994Y-18532857D01*
X94028994Y-18628095D01*
X94076613Y-18770952D01*
X94648041Y-19342380D01*
X94028994Y-19342380D01*
X93124232Y-18342380D02*
X93600422Y-18342380D01*
X93648041Y-18818571D01*
X93600422Y-18770952D01*
X93505184Y-18723333D01*
X93267089Y-18723333D01*
X93171851Y-18770952D01*
X93124232Y-18818571D01*
X93076613Y-18913809D01*
X93076613Y-19151904D01*
X93124232Y-19247142D01*
X93171851Y-19294761D01*
X93267089Y-19342380D01*
X93505184Y-19342380D01*
X93600422Y-19294761D01*
X93648041Y-19247142D01*
%TO.C,R30*%
X101931375Y-62472380D02*
X102264708Y-61996190D01*
X102502803Y-62472380D02*
X102502803Y-61472380D01*
X102121851Y-61472380D01*
X102026613Y-61520000D01*
X101978994Y-61567619D01*
X101931375Y-61662857D01*
X101931375Y-61805714D01*
X101978994Y-61900952D01*
X102026613Y-61948571D01*
X102121851Y-61996190D01*
X102502803Y-61996190D01*
X101598041Y-61472380D02*
X100978994Y-61472380D01*
X101312327Y-61853333D01*
X101169470Y-61853333D01*
X101074232Y-61900952D01*
X101026613Y-61948571D01*
X100978994Y-62043809D01*
X100978994Y-62281904D01*
X101026613Y-62377142D01*
X101074232Y-62424761D01*
X101169470Y-62472380D01*
X101455184Y-62472380D01*
X101550422Y-62424761D01*
X101598041Y-62377142D01*
X100359946Y-61472380D02*
X100264708Y-61472380D01*
X100169470Y-61520000D01*
X100121851Y-61567619D01*
X100074232Y-61662857D01*
X100026613Y-61853333D01*
X100026613Y-62091428D01*
X100074232Y-62281904D01*
X100121851Y-62377142D01*
X100169470Y-62424761D01*
X100264708Y-62472380D01*
X100359946Y-62472380D01*
X100455184Y-62424761D01*
X100502803Y-62377142D01*
X100550422Y-62281904D01*
X100598041Y-62091428D01*
X100598041Y-61853333D01*
X100550422Y-61662857D01*
X100502803Y-61567619D01*
X100455184Y-61520000D01*
X100359946Y-61472380D01*
%TO.C,C57*%
X30931142Y12885657D02*
X30978761Y12933276D01*
X31026380Y13076133D01*
X31026380Y13171371D01*
X30978761Y13314228D01*
X30883523Y13409466D01*
X30788285Y13457085D01*
X30597809Y13504704D01*
X30454952Y13504704D01*
X30264476Y13457085D01*
X30169238Y13409466D01*
X30074000Y13314228D01*
X30026380Y13171371D01*
X30026380Y13076133D01*
X30074000Y12933276D01*
X30121619Y12885657D01*
X30026380Y11980895D02*
X30026380Y12457085D01*
X30502571Y12504704D01*
X30454952Y12457085D01*
X30407333Y12361847D01*
X30407333Y12123752D01*
X30454952Y12028514D01*
X30502571Y11980895D01*
X30597809Y11933276D01*
X30835904Y11933276D01*
X30931142Y11980895D01*
X30978761Y12028514D01*
X31026380Y12123752D01*
X31026380Y12361847D01*
X30978761Y12457085D01*
X30931142Y12504704D01*
X30026380Y11599942D02*
X30026380Y10933276D01*
X31026380Y11361847D01*
%TO.C,U7*%
X33974422Y-3360380D02*
X33974422Y-4169904D01*
X33926803Y-4265142D01*
X33879184Y-4312761D01*
X33783946Y-4360380D01*
X33593470Y-4360380D01*
X33498232Y-4312761D01*
X33450613Y-4265142D01*
X33402994Y-4169904D01*
X33402994Y-3360380D01*
X33022041Y-3360380D02*
X32355375Y-3360380D01*
X32783946Y-4360380D01*
%TO.C,R40*%
X30213580Y37879257D02*
X29737390Y38212590D01*
X30213580Y38450685D02*
X29213580Y38450685D01*
X29213580Y38069733D01*
X29261200Y37974495D01*
X29308819Y37926876D01*
X29404057Y37879257D01*
X29546914Y37879257D01*
X29642152Y37926876D01*
X29689771Y37974495D01*
X29737390Y38069733D01*
X29737390Y38450685D01*
X29546914Y37022114D02*
X30213580Y37022114D01*
X29165961Y37260209D02*
X29880247Y37498304D01*
X29880247Y36879257D01*
X29213580Y36307828D02*
X29213580Y36212590D01*
X29261200Y36117352D01*
X29308819Y36069733D01*
X29404057Y36022114D01*
X29594533Y35974495D01*
X29832628Y35974495D01*
X30023104Y36022114D01*
X30118342Y36069733D01*
X30165961Y36117352D01*
X30213580Y36212590D01*
X30213580Y36307828D01*
X30165961Y36403066D01*
X30118342Y36450685D01*
X30023104Y36498304D01*
X29832628Y36545923D01*
X29594533Y36545923D01*
X29404057Y36498304D01*
X29308819Y36450685D01*
X29261200Y36403066D01*
X29213580Y36307828D01*
%TO.C,C22*%
X99171375Y-19247142D02*
X99218994Y-19294761D01*
X99361851Y-19342380D01*
X99457089Y-19342380D01*
X99599946Y-19294761D01*
X99695184Y-19199523D01*
X99742803Y-19104285D01*
X99790422Y-18913809D01*
X99790422Y-18770952D01*
X99742803Y-18580476D01*
X99695184Y-18485238D01*
X99599946Y-18390000D01*
X99457089Y-18342380D01*
X99361851Y-18342380D01*
X99218994Y-18390000D01*
X99171375Y-18437619D01*
X98790422Y-18437619D02*
X98742803Y-18390000D01*
X98647565Y-18342380D01*
X98409470Y-18342380D01*
X98314232Y-18390000D01*
X98266613Y-18437619D01*
X98218994Y-18532857D01*
X98218994Y-18628095D01*
X98266613Y-18770952D01*
X98838041Y-19342380D01*
X98218994Y-19342380D01*
X97838041Y-18437619D02*
X97790422Y-18390000D01*
X97695184Y-18342380D01*
X97457089Y-18342380D01*
X97361851Y-18390000D01*
X97314232Y-18437619D01*
X97266613Y-18532857D01*
X97266613Y-18628095D01*
X97314232Y-18770952D01*
X97885660Y-19342380D01*
X97266613Y-19342380D01*
%TO.C,R29*%
X65701375Y-35662380D02*
X66034708Y-35186190D01*
X66272803Y-35662380D02*
X66272803Y-34662380D01*
X65891851Y-34662380D01*
X65796613Y-34710000D01*
X65748994Y-34757619D01*
X65701375Y-34852857D01*
X65701375Y-34995714D01*
X65748994Y-35090952D01*
X65796613Y-35138571D01*
X65891851Y-35186190D01*
X66272803Y-35186190D01*
X65320422Y-34757619D02*
X65272803Y-34710000D01*
X65177565Y-34662380D01*
X64939470Y-34662380D01*
X64844232Y-34710000D01*
X64796613Y-34757619D01*
X64748994Y-34852857D01*
X64748994Y-34948095D01*
X64796613Y-35090952D01*
X65368041Y-35662380D01*
X64748994Y-35662380D01*
X64272803Y-35662380D02*
X64082327Y-35662380D01*
X63987089Y-35614761D01*
X63939470Y-35567142D01*
X63844232Y-35424285D01*
X63796613Y-35233809D01*
X63796613Y-34852857D01*
X63844232Y-34757619D01*
X63891851Y-34710000D01*
X63987089Y-34662380D01*
X64177565Y-34662380D01*
X64272803Y-34710000D01*
X64320422Y-34757619D01*
X64368041Y-34852857D01*
X64368041Y-35090952D01*
X64320422Y-35186190D01*
X64272803Y-35233809D01*
X64177565Y-35281428D01*
X63987089Y-35281428D01*
X63891851Y-35233809D01*
X63844232Y-35186190D01*
X63796613Y-35090952D01*
%TO.C,C56*%
X29102342Y12885657D02*
X29149961Y12933276D01*
X29197580Y13076133D01*
X29197580Y13171371D01*
X29149961Y13314228D01*
X29054723Y13409466D01*
X28959485Y13457085D01*
X28769009Y13504704D01*
X28626152Y13504704D01*
X28435676Y13457085D01*
X28340438Y13409466D01*
X28245200Y13314228D01*
X28197580Y13171371D01*
X28197580Y13076133D01*
X28245200Y12933276D01*
X28292819Y12885657D01*
X28197580Y11980895D02*
X28197580Y12457085D01*
X28673771Y12504704D01*
X28626152Y12457085D01*
X28578533Y12361847D01*
X28578533Y12123752D01*
X28626152Y12028514D01*
X28673771Y11980895D01*
X28769009Y11933276D01*
X29007104Y11933276D01*
X29102342Y11980895D01*
X29149961Y12028514D01*
X29197580Y12123752D01*
X29197580Y12361847D01*
X29149961Y12457085D01*
X29102342Y12504704D01*
X28197580Y11076133D02*
X28197580Y11266609D01*
X28245200Y11361847D01*
X28292819Y11409466D01*
X28435676Y11504704D01*
X28626152Y11552323D01*
X29007104Y11552323D01*
X29102342Y11504704D01*
X29149961Y11457085D01*
X29197580Y11361847D01*
X29197580Y11171371D01*
X29149961Y11076133D01*
X29102342Y11028514D01*
X29007104Y10980895D01*
X28769009Y10980895D01*
X28673771Y11028514D01*
X28626152Y11076133D01*
X28578533Y11171371D01*
X28578533Y11361847D01*
X28626152Y11457085D01*
X28673771Y11504704D01*
X28769009Y11552323D01*
%TO.C,C49*%
X91551375Y-57347142D02*
X91598994Y-57394761D01*
X91741851Y-57442380D01*
X91837089Y-57442380D01*
X91979946Y-57394761D01*
X92075184Y-57299523D01*
X92122803Y-57204285D01*
X92170422Y-57013809D01*
X92170422Y-56870952D01*
X92122803Y-56680476D01*
X92075184Y-56585238D01*
X91979946Y-56490000D01*
X91837089Y-56442380D01*
X91741851Y-56442380D01*
X91598994Y-56490000D01*
X91551375Y-56537619D01*
X90694232Y-56775714D02*
X90694232Y-57442380D01*
X90932327Y-56394761D02*
X91170422Y-57109047D01*
X90551375Y-57109047D01*
X90122803Y-57442380D02*
X89932327Y-57442380D01*
X89837089Y-57394761D01*
X89789470Y-57347142D01*
X89694232Y-57204285D01*
X89646613Y-57013809D01*
X89646613Y-56632857D01*
X89694232Y-56537619D01*
X89741851Y-56490000D01*
X89837089Y-56442380D01*
X90027565Y-56442380D01*
X90122803Y-56490000D01*
X90170422Y-56537619D01*
X90218041Y-56632857D01*
X90218041Y-56870952D01*
X90170422Y-56966190D01*
X90122803Y-57013809D01*
X90027565Y-57061428D01*
X89837089Y-57061428D01*
X89741851Y-57013809D01*
X89694232Y-56966190D01*
X89646613Y-56870952D01*
%TO.C,R31*%
X97741375Y-62472380D02*
X98074708Y-61996190D01*
X98312803Y-62472380D02*
X98312803Y-61472380D01*
X97931851Y-61472380D01*
X97836613Y-61520000D01*
X97788994Y-61567619D01*
X97741375Y-61662857D01*
X97741375Y-61805714D01*
X97788994Y-61900952D01*
X97836613Y-61948571D01*
X97931851Y-61996190D01*
X98312803Y-61996190D01*
X97408041Y-61472380D02*
X96788994Y-61472380D01*
X97122327Y-61853333D01*
X96979470Y-61853333D01*
X96884232Y-61900952D01*
X96836613Y-61948571D01*
X96788994Y-62043809D01*
X96788994Y-62281904D01*
X96836613Y-62377142D01*
X96884232Y-62424761D01*
X96979470Y-62472380D01*
X97265184Y-62472380D01*
X97360422Y-62424761D01*
X97408041Y-62377142D01*
X95836613Y-62472380D02*
X96408041Y-62472380D01*
X96122327Y-62472380D02*
X96122327Y-61472380D01*
X96217565Y-61615238D01*
X96312803Y-61710476D01*
X96408041Y-61758095D01*
%TO.C,C38*%
X34391375Y-8797142D02*
X34438994Y-8844761D01*
X34581851Y-8892380D01*
X34677089Y-8892380D01*
X34819946Y-8844761D01*
X34915184Y-8749523D01*
X34962803Y-8654285D01*
X35010422Y-8463809D01*
X35010422Y-8320952D01*
X34962803Y-8130476D01*
X34915184Y-8035238D01*
X34819946Y-7940000D01*
X34677089Y-7892380D01*
X34581851Y-7892380D01*
X34438994Y-7940000D01*
X34391375Y-7987619D01*
X34058041Y-7892380D02*
X33438994Y-7892380D01*
X33772327Y-8273333D01*
X33629470Y-8273333D01*
X33534232Y-8320952D01*
X33486613Y-8368571D01*
X33438994Y-8463809D01*
X33438994Y-8701904D01*
X33486613Y-8797142D01*
X33534232Y-8844761D01*
X33629470Y-8892380D01*
X33915184Y-8892380D01*
X34010422Y-8844761D01*
X34058041Y-8797142D01*
X32867565Y-8320952D02*
X32962803Y-8273333D01*
X33010422Y-8225714D01*
X33058041Y-8130476D01*
X33058041Y-8082857D01*
X33010422Y-7987619D01*
X32962803Y-7940000D01*
X32867565Y-7892380D01*
X32677089Y-7892380D01*
X32581851Y-7940000D01*
X32534232Y-7987619D01*
X32486613Y-8082857D01*
X32486613Y-8130476D01*
X32534232Y-8225714D01*
X32581851Y-8273333D01*
X32677089Y-8320952D01*
X32867565Y-8320952D01*
X32962803Y-8368571D01*
X33010422Y-8416190D01*
X33058041Y-8511428D01*
X33058041Y-8701904D01*
X33010422Y-8797142D01*
X32962803Y-8844761D01*
X32867565Y-8892380D01*
X32677089Y-8892380D01*
X32581851Y-8844761D01*
X32534232Y-8797142D01*
X32486613Y-8701904D01*
X32486613Y-8511428D01*
X32534232Y-8416190D01*
X32581851Y-8368571D01*
X32677089Y-8320952D01*
%TO.C,U9*%
X64794422Y-20950380D02*
X64794422Y-21759904D01*
X64746803Y-21855142D01*
X64699184Y-21902761D01*
X64603946Y-21950380D01*
X64413470Y-21950380D01*
X64318232Y-21902761D01*
X64270613Y-21855142D01*
X64222994Y-21759904D01*
X64222994Y-20950380D01*
X63699184Y-21950380D02*
X63508708Y-21950380D01*
X63413470Y-21902761D01*
X63365851Y-21855142D01*
X63270613Y-21712285D01*
X63222994Y-21521809D01*
X63222994Y-21140857D01*
X63270613Y-21045619D01*
X63318232Y-20998000D01*
X63413470Y-20950380D01*
X63603946Y-20950380D01*
X63699184Y-20998000D01*
X63746803Y-21045619D01*
X63794422Y-21140857D01*
X63794422Y-21378952D01*
X63746803Y-21474190D01*
X63699184Y-21521809D01*
X63603946Y-21569428D01*
X63413470Y-21569428D01*
X63318232Y-21521809D01*
X63270613Y-21474190D01*
X63222994Y-21378952D01*
%TO.C,C46*%
X61511375Y-35567142D02*
X61558994Y-35614761D01*
X61701851Y-35662380D01*
X61797089Y-35662380D01*
X61939946Y-35614761D01*
X62035184Y-35519523D01*
X62082803Y-35424285D01*
X62130422Y-35233809D01*
X62130422Y-35090952D01*
X62082803Y-34900476D01*
X62035184Y-34805238D01*
X61939946Y-34710000D01*
X61797089Y-34662380D01*
X61701851Y-34662380D01*
X61558994Y-34710000D01*
X61511375Y-34757619D01*
X60654232Y-34995714D02*
X60654232Y-35662380D01*
X60892327Y-34614761D02*
X61130422Y-35329047D01*
X60511375Y-35329047D01*
X59701851Y-34662380D02*
X59892327Y-34662380D01*
X59987565Y-34710000D01*
X60035184Y-34757619D01*
X60130422Y-34900476D01*
X60178041Y-35090952D01*
X60178041Y-35471904D01*
X60130422Y-35567142D01*
X60082803Y-35614761D01*
X59987565Y-35662380D01*
X59797089Y-35662380D01*
X59701851Y-35614761D01*
X59654232Y-35567142D01*
X59606613Y-35471904D01*
X59606613Y-35233809D01*
X59654232Y-35138571D01*
X59701851Y-35090952D01*
X59797089Y-35043333D01*
X59987565Y-35043333D01*
X60082803Y-35090952D01*
X60130422Y-35138571D01*
X60178041Y-35233809D01*
%TO.C,C53*%
X14065542Y38983857D02*
X14113161Y39031476D01*
X14160780Y39174333D01*
X14160780Y39269571D01*
X14113161Y39412428D01*
X14017923Y39507666D01*
X13922685Y39555285D01*
X13732209Y39602904D01*
X13589352Y39602904D01*
X13398876Y39555285D01*
X13303638Y39507666D01*
X13208400Y39412428D01*
X13160780Y39269571D01*
X13160780Y39174333D01*
X13208400Y39031476D01*
X13256019Y38983857D01*
X13160780Y38079095D02*
X13160780Y38555285D01*
X13636971Y38602904D01*
X13589352Y38555285D01*
X13541733Y38460047D01*
X13541733Y38221952D01*
X13589352Y38126714D01*
X13636971Y38079095D01*
X13732209Y38031476D01*
X13970304Y38031476D01*
X14065542Y38079095D01*
X14113161Y38126714D01*
X14160780Y38221952D01*
X14160780Y38460047D01*
X14113161Y38555285D01*
X14065542Y38602904D01*
X13160780Y37698142D02*
X13160780Y37079095D01*
X13541733Y37412428D01*
X13541733Y37269571D01*
X13589352Y37174333D01*
X13636971Y37126714D01*
X13732209Y37079095D01*
X13970304Y37079095D01*
X14065542Y37126714D01*
X14113161Y37174333D01*
X14160780Y37269571D01*
X14160780Y37555285D01*
X14113161Y37650523D01*
X14065542Y37698142D01*
%TO.C,C41*%
X53241375Y-25927142D02*
X53288994Y-25974761D01*
X53431851Y-26022380D01*
X53527089Y-26022380D01*
X53669946Y-25974761D01*
X53765184Y-25879523D01*
X53812803Y-25784285D01*
X53860422Y-25593809D01*
X53860422Y-25450952D01*
X53812803Y-25260476D01*
X53765184Y-25165238D01*
X53669946Y-25070000D01*
X53527089Y-25022380D01*
X53431851Y-25022380D01*
X53288994Y-25070000D01*
X53241375Y-25117619D01*
X52384232Y-25355714D02*
X52384232Y-26022380D01*
X52622327Y-24974761D02*
X52860422Y-25689047D01*
X52241375Y-25689047D01*
X51336613Y-26022380D02*
X51908041Y-26022380D01*
X51622327Y-26022380D02*
X51622327Y-25022380D01*
X51717565Y-25165238D01*
X51812803Y-25260476D01*
X51908041Y-25308095D01*
%TO.C,D1*%
X59870613Y-25740380D02*
X59870613Y-24740380D01*
X59632518Y-24740380D01*
X59489660Y-24788000D01*
X59394422Y-24883238D01*
X59346803Y-24978476D01*
X59299184Y-25168952D01*
X59299184Y-25311809D01*
X59346803Y-25502285D01*
X59394422Y-25597523D01*
X59489660Y-25692761D01*
X59632518Y-25740380D01*
X59870613Y-25740380D01*
X58346803Y-25740380D02*
X58918232Y-25740380D01*
X58632518Y-25740380D02*
X58632518Y-24740380D01*
X58727756Y-24883238D01*
X58822994Y-24978476D01*
X58918232Y-25026095D01*
%TO.C,R26*%
X59471375Y-31972380D02*
X59804708Y-31496190D01*
X60042803Y-31972380D02*
X60042803Y-30972380D01*
X59661851Y-30972380D01*
X59566613Y-31020000D01*
X59518994Y-31067619D01*
X59471375Y-31162857D01*
X59471375Y-31305714D01*
X59518994Y-31400952D01*
X59566613Y-31448571D01*
X59661851Y-31496190D01*
X60042803Y-31496190D01*
X59090422Y-31067619D02*
X59042803Y-31020000D01*
X58947565Y-30972380D01*
X58709470Y-30972380D01*
X58614232Y-31020000D01*
X58566613Y-31067619D01*
X58518994Y-31162857D01*
X58518994Y-31258095D01*
X58566613Y-31400952D01*
X59138041Y-31972380D01*
X58518994Y-31972380D01*
X57661851Y-30972380D02*
X57852327Y-30972380D01*
X57947565Y-31020000D01*
X57995184Y-31067619D01*
X58090422Y-31210476D01*
X58138041Y-31400952D01*
X58138041Y-31781904D01*
X58090422Y-31877142D01*
X58042803Y-31924761D01*
X57947565Y-31972380D01*
X57757089Y-31972380D01*
X57661851Y-31924761D01*
X57614232Y-31877142D01*
X57566613Y-31781904D01*
X57566613Y-31543809D01*
X57614232Y-31448571D01*
X57661851Y-31400952D01*
X57757089Y-31353333D01*
X57947565Y-31353333D01*
X58042803Y-31400952D01*
X58090422Y-31448571D01*
X58138041Y-31543809D01*
%TO.C,U12*%
X91670613Y-51910380D02*
X91670613Y-52719904D01*
X91622994Y-52815142D01*
X91575375Y-52862761D01*
X91480137Y-52910380D01*
X91289660Y-52910380D01*
X91194422Y-52862761D01*
X91146803Y-52815142D01*
X91099184Y-52719904D01*
X91099184Y-51910380D01*
X90099184Y-52910380D02*
X90670613Y-52910380D01*
X90384898Y-52910380D02*
X90384898Y-51910380D01*
X90480137Y-52053238D01*
X90575375Y-52148476D01*
X90670613Y-52196095D01*
X89718232Y-52005619D02*
X89670613Y-51958000D01*
X89575375Y-51910380D01*
X89337279Y-51910380D01*
X89242041Y-51958000D01*
X89194422Y-52005619D01*
X89146803Y-52100857D01*
X89146803Y-52196095D01*
X89194422Y-52338952D01*
X89765851Y-52910380D01*
X89146803Y-52910380D01*
%TO.C,C45*%
X46791375Y-19107142D02*
X46838994Y-19154761D01*
X46981851Y-19202380D01*
X47077089Y-19202380D01*
X47219946Y-19154761D01*
X47315184Y-19059523D01*
X47362803Y-18964285D01*
X47410422Y-18773809D01*
X47410422Y-18630952D01*
X47362803Y-18440476D01*
X47315184Y-18345238D01*
X47219946Y-18250000D01*
X47077089Y-18202380D01*
X46981851Y-18202380D01*
X46838994Y-18250000D01*
X46791375Y-18297619D01*
X45934232Y-18535714D02*
X45934232Y-19202380D01*
X46172327Y-18154761D02*
X46410422Y-18869047D01*
X45791375Y-18869047D01*
X44934232Y-18202380D02*
X45410422Y-18202380D01*
X45458041Y-18678571D01*
X45410422Y-18630952D01*
X45315184Y-18583333D01*
X45077089Y-18583333D01*
X44981851Y-18630952D01*
X44934232Y-18678571D01*
X44886613Y-18773809D01*
X44886613Y-19011904D01*
X44934232Y-19107142D01*
X44981851Y-19154761D01*
X45077089Y-19202380D01*
X45315184Y-19202380D01*
X45410422Y-19154761D01*
X45458041Y-19107142D01*
%TO.C,R18*%
X129041375Y-41942380D02*
X129374708Y-41466190D01*
X129612803Y-41942380D02*
X129612803Y-40942380D01*
X129231851Y-40942380D01*
X129136613Y-40990000D01*
X129088994Y-41037619D01*
X129041375Y-41132857D01*
X129041375Y-41275714D01*
X129088994Y-41370952D01*
X129136613Y-41418571D01*
X129231851Y-41466190D01*
X129612803Y-41466190D01*
X128088994Y-41942380D02*
X128660422Y-41942380D01*
X128374708Y-41942380D02*
X128374708Y-40942380D01*
X128469946Y-41085238D01*
X128565184Y-41180476D01*
X128660422Y-41228095D01*
X127517565Y-41370952D02*
X127612803Y-41323333D01*
X127660422Y-41275714D01*
X127708041Y-41180476D01*
X127708041Y-41132857D01*
X127660422Y-41037619D01*
X127612803Y-40990000D01*
X127517565Y-40942380D01*
X127327089Y-40942380D01*
X127231851Y-40990000D01*
X127184232Y-41037619D01*
X127136613Y-41132857D01*
X127136613Y-41180476D01*
X127184232Y-41275714D01*
X127231851Y-41323333D01*
X127327089Y-41370952D01*
X127517565Y-41370952D01*
X127612803Y-41418571D01*
X127660422Y-41466190D01*
X127708041Y-41561428D01*
X127708041Y-41751904D01*
X127660422Y-41847142D01*
X127612803Y-41894761D01*
X127517565Y-41942380D01*
X127327089Y-41942380D01*
X127231851Y-41894761D01*
X127184232Y-41847142D01*
X127136613Y-41751904D01*
X127136613Y-41561428D01*
X127184232Y-41466190D01*
X127231851Y-41418571D01*
X127327089Y-41370952D01*
%TO.C,D5*%
X91970613Y-60130380D02*
X91970613Y-59130380D01*
X91732518Y-59130380D01*
X91589660Y-59178000D01*
X91494422Y-59273238D01*
X91446803Y-59368476D01*
X91399184Y-59558952D01*
X91399184Y-59701809D01*
X91446803Y-59892285D01*
X91494422Y-59987523D01*
X91589660Y-60082761D01*
X91732518Y-60130380D01*
X91970613Y-60130380D01*
X90494422Y-59130380D02*
X90970613Y-59130380D01*
X91018232Y-59606571D01*
X90970613Y-59558952D01*
X90875375Y-59511333D01*
X90637279Y-59511333D01*
X90542041Y-59558952D01*
X90494422Y-59606571D01*
X90446803Y-59701809D01*
X90446803Y-59939904D01*
X90494422Y-60035142D01*
X90542041Y-60082761D01*
X90637279Y-60130380D01*
X90875375Y-60130380D01*
X90970613Y-60082761D01*
X91018232Y-60035142D01*
%TO.C,C51*%
X106121375Y-62377142D02*
X106168994Y-62424761D01*
X106311851Y-62472380D01*
X106407089Y-62472380D01*
X106549946Y-62424761D01*
X106645184Y-62329523D01*
X106692803Y-62234285D01*
X106740422Y-62043809D01*
X106740422Y-61900952D01*
X106692803Y-61710476D01*
X106645184Y-61615238D01*
X106549946Y-61520000D01*
X106407089Y-61472380D01*
X106311851Y-61472380D01*
X106168994Y-61520000D01*
X106121375Y-61567619D01*
X105216613Y-61472380D02*
X105692803Y-61472380D01*
X105740422Y-61948571D01*
X105692803Y-61900952D01*
X105597565Y-61853333D01*
X105359470Y-61853333D01*
X105264232Y-61900952D01*
X105216613Y-61948571D01*
X105168994Y-62043809D01*
X105168994Y-62281904D01*
X105216613Y-62377142D01*
X105264232Y-62424761D01*
X105359470Y-62472380D01*
X105597565Y-62472380D01*
X105692803Y-62424761D01*
X105740422Y-62377142D01*
X104216613Y-62472380D02*
X104788041Y-62472380D01*
X104502327Y-62472380D02*
X104502327Y-61472380D01*
X104597565Y-61615238D01*
X104692803Y-61710476D01*
X104788041Y-61758095D01*
%TO.C,U6*%
X81674422Y-3360380D02*
X81674422Y-4169904D01*
X81626803Y-4265142D01*
X81579184Y-4312761D01*
X81483946Y-4360380D01*
X81293470Y-4360380D01*
X81198232Y-4312761D01*
X81150613Y-4265142D01*
X81102994Y-4169904D01*
X81102994Y-3360380D01*
X80198232Y-3360380D02*
X80388708Y-3360380D01*
X80483946Y-3408000D01*
X80531565Y-3455619D01*
X80626803Y-3598476D01*
X80674422Y-3788952D01*
X80674422Y-4169904D01*
X80626803Y-4265142D01*
X80579184Y-4312761D01*
X80483946Y-4360380D01*
X80293470Y-4360380D01*
X80198232Y-4312761D01*
X80150613Y-4265142D01*
X80102994Y-4169904D01*
X80102994Y-3931809D01*
X80150613Y-3836571D01*
X80198232Y-3788952D01*
X80293470Y-3741333D01*
X80483946Y-3741333D01*
X80579184Y-3788952D01*
X80626803Y-3836571D01*
X80674422Y-3931809D01*
%TO.C,C36*%
X86161375Y-11797142D02*
X86208994Y-11844761D01*
X86351851Y-11892380D01*
X86447089Y-11892380D01*
X86589946Y-11844761D01*
X86685184Y-11749523D01*
X86732803Y-11654285D01*
X86780422Y-11463809D01*
X86780422Y-11320952D01*
X86732803Y-11130476D01*
X86685184Y-11035238D01*
X86589946Y-10940000D01*
X86447089Y-10892380D01*
X86351851Y-10892380D01*
X86208994Y-10940000D01*
X86161375Y-10987619D01*
X85828041Y-10892380D02*
X85208994Y-10892380D01*
X85542327Y-11273333D01*
X85399470Y-11273333D01*
X85304232Y-11320952D01*
X85256613Y-11368571D01*
X85208994Y-11463809D01*
X85208994Y-11701904D01*
X85256613Y-11797142D01*
X85304232Y-11844761D01*
X85399470Y-11892380D01*
X85685184Y-11892380D01*
X85780422Y-11844761D01*
X85828041Y-11797142D01*
X84351851Y-10892380D02*
X84542327Y-10892380D01*
X84637565Y-10940000D01*
X84685184Y-10987619D01*
X84780422Y-11130476D01*
X84828041Y-11320952D01*
X84828041Y-11701904D01*
X84780422Y-11797142D01*
X84732803Y-11844761D01*
X84637565Y-11892380D01*
X84447089Y-11892380D01*
X84351851Y-11844761D01*
X84304232Y-11797142D01*
X84256613Y-11701904D01*
X84256613Y-11463809D01*
X84304232Y-11368571D01*
X84351851Y-11320952D01*
X84447089Y-11273333D01*
X84637565Y-11273333D01*
X84732803Y-11320952D01*
X84780422Y-11368571D01*
X84828041Y-11463809D01*
D13*
%TO.C,C20*%
X8634000Y17107780D02*
X8634000Y16826620D01*
X9654000Y17107780D02*
X9654000Y16826620D01*
%TO.C,C1*%
X17283820Y18848800D02*
X17564980Y18848800D01*
X17283820Y17828800D02*
X17564980Y17828800D01*
%TO.C,C3*%
X4730000Y29761920D02*
X4730000Y30043080D01*
X5750000Y29761920D02*
X5750000Y30043080D01*
%TO.C,C4*%
X17283820Y19708400D02*
X17564980Y19708400D01*
X17283820Y20728400D02*
X17564980Y20728400D01*
%TO.C,C5*%
X7088752Y23135000D02*
X6566248Y23135000D01*
X7088752Y24605000D02*
X6566248Y24605000D01*
%TO.C,C6*%
X14171200Y23457780D02*
X14171200Y23176620D01*
X15191200Y23457780D02*
X15191200Y23176620D01*
%TO.C,C7*%
X31077780Y20322000D02*
X30796620Y20322000D01*
X31077780Y19302000D02*
X30796620Y19302000D01*
%TO.C,C8*%
X25591380Y14886400D02*
X25310220Y14886400D01*
X25591380Y13866400D02*
X25310220Y13866400D01*
%TO.C,C9*%
X21144620Y14632400D02*
X21425780Y14632400D01*
X21144620Y13612400D02*
X21425780Y13612400D01*
%TO.C,C10*%
X10460580Y24380000D02*
X10179420Y24380000D01*
X10460580Y23360000D02*
X10179420Y23360000D01*
%TO.C,C11*%
X17020000Y23457780D02*
X17020000Y23176620D01*
X16000000Y23457780D02*
X16000000Y23176620D01*
%TO.C,C12*%
X31077780Y21283200D02*
X30796620Y21283200D01*
X31077780Y22303200D02*
X30796620Y22303200D01*
%TO.C,C13*%
X25591380Y16664400D02*
X25310220Y16664400D01*
X25591380Y15644400D02*
X25310220Y15644400D01*
%TO.C,C14*%
X21144620Y16410400D02*
X21425780Y16410400D01*
X21144620Y15390400D02*
X21425780Y15390400D01*
%TO.C,C15*%
X16254000Y27545420D02*
X16254000Y27826580D01*
X17274000Y27545420D02*
X17274000Y27826580D01*
%TO.C,C16*%
X18032000Y27826580D02*
X18032000Y27545420D01*
X19052000Y27826580D02*
X19052000Y27545420D01*
%TO.C,C17*%
X23102180Y28805600D02*
X22821020Y28805600D01*
X23102180Y27785600D02*
X22821020Y27785600D01*
%TO.C,C18*%
X23264400Y25398820D02*
X23264400Y25679980D01*
X24284400Y25398820D02*
X24284400Y25679980D01*
%TO.C,C19*%
X30456200Y31133148D02*
X30456200Y31655652D01*
X31926200Y31133148D02*
X31926200Y31655652D01*
%TO.C,R3*%
X31075100Y17306058D02*
X31075100Y16831542D01*
X32120100Y17306058D02*
X32120100Y16831542D01*
%TO.C,R4*%
X25688058Y12025100D02*
X25213542Y12025100D01*
X25688058Y13070100D02*
X25213542Y13070100D01*
%TO.C,R5*%
X17661658Y14057100D02*
X17187142Y14057100D01*
X17661658Y15102100D02*
X17187142Y15102100D01*
%TO.C,R6*%
X7064758Y20807500D02*
X6590242Y20807500D01*
X7064758Y21852500D02*
X6590242Y21852500D01*
%TO.C,R7*%
X15922500Y31092258D02*
X15922500Y30617742D01*
X14877500Y31092258D02*
X14877500Y30617742D01*
%TO.C,R8*%
X16495500Y30681242D02*
X16495500Y31155758D01*
X17540500Y30681242D02*
X17540500Y31155758D01*
%TO.C,R9*%
X14463500Y27448742D02*
X14463500Y27923258D01*
X15508500Y27448742D02*
X15508500Y27923258D01*
%TO.C,R10*%
X19797500Y27448742D02*
X19797500Y27923258D01*
X20842500Y27448742D02*
X20842500Y27923258D01*
%TO.C,R11*%
X21473900Y25302942D02*
X21473900Y25777458D01*
X22518900Y25302942D02*
X22518900Y25777458D01*
%TO.C,R12*%
X23810700Y19625542D02*
X23810700Y20100058D01*
X24855700Y19625542D02*
X24855700Y20100058D01*
%TO.C,R13*%
X28673058Y30951700D02*
X28198542Y30951700D01*
X28673058Y29906700D02*
X28198542Y29906700D01*
%TO.C,U1*%
X10320000Y30240000D02*
X12270000Y30240000D01*
X10320000Y30240000D02*
X8370000Y30240000D01*
X10320000Y25120000D02*
X6870000Y25120000D01*
X10320000Y25120000D02*
X12270000Y25120000D01*
%TO.C,U4*%
X25618800Y19216800D02*
X25618800Y21666800D01*
X28838800Y21016800D02*
X28838800Y19216800D01*
%TO.C,U5*%
X22895200Y20966000D02*
X22895200Y19166000D01*
X19675200Y19166000D02*
X19675200Y21616000D01*
%TO.C,R2*%
X17765500Y23452858D02*
X17765500Y22978342D01*
X18810500Y23452858D02*
X18810500Y22978342D01*
%TO.C,U2*%
X28752800Y28874400D02*
X30702800Y28874400D01*
X28752800Y23754400D02*
X30702800Y23754400D01*
X28752800Y28874400D02*
X26802800Y28874400D01*
X28752800Y23754400D02*
X25302800Y23754400D01*
%TO.C,R1*%
X29580100Y15510742D02*
X29580100Y15985258D01*
X28535100Y15510742D02*
X28535100Y15985258D01*
%TO.C,C2*%
X23522400Y34633780D02*
X23522400Y34352620D01*
X22502400Y34633780D02*
X22502400Y34352620D01*
%TO.C,U3*%
X13752000Y18796000D02*
X13752000Y17121000D01*
X10632000Y18796000D02*
X10632000Y19446000D01*
X10632000Y18796000D02*
X10632000Y18146000D01*
X13752000Y18796000D02*
X13752000Y19446000D01*
%TO.C,C21*%
X27688000Y34633780D02*
X27688000Y34352620D01*
X26668000Y34633780D02*
X26668000Y34352620D01*
%TO.C,F2*%
X85021922Y20649000D02*
X85539078Y20649000D01*
X85021922Y19229000D02*
X85539078Y19229000D01*
%TO.C,L3*%
X61983252Y20776000D02*
X61460748Y20776000D01*
X61983252Y19356000D02*
X61460748Y19356000D01*
%TO.C,C50*%
X55501000Y18718920D02*
X55501000Y19000080D01*
X54481000Y18718920D02*
X54481000Y19000080D01*
%TO.C,C42*%
X57660000Y18718920D02*
X57660000Y19000080D01*
X56640000Y18718920D02*
X56640000Y19000080D01*
D10*
%TO.C,C52*%
X52705000Y20955000D02*
X51181000Y20955000D01*
X51181000Y16891000D02*
X52705000Y16891000D01*
X51181000Y20955000D02*
X51181000Y16891000D01*
X52705000Y16891000D02*
X52578000Y16891000D01*
X52705000Y16891000D02*
X52705000Y20955000D01*
D13*
%TO.C,C44*%
X72392000Y29323420D02*
X72392000Y29604580D01*
X71372000Y29323420D02*
X71372000Y29604580D01*
%TO.C,C40*%
X74678000Y29323420D02*
X74678000Y29604580D01*
X73658000Y29323420D02*
X73658000Y29604580D01*
%TO.C,C31*%
X71880000Y32970080D02*
X71880000Y32688920D01*
X72900000Y32970080D02*
X72900000Y32688920D01*
%TO.C,C27*%
X81012420Y27303000D02*
X81293580Y27303000D01*
X81012420Y28323000D02*
X81293580Y28323000D01*
%TO.C,U8*%
X60579000Y18832000D02*
X59779000Y18832000D01*
X60579000Y15712000D02*
X61379000Y15712000D01*
X60579000Y15712000D02*
X59779000Y15712000D01*
X60579000Y18832000D02*
X62379000Y18832000D01*
D10*
%TO.C,U10*%
X68425000Y25465000D02*
X68425000Y26140000D01*
X68425000Y25465000D02*
X67750000Y25465000D01*
X58075000Y25465000D02*
X58750000Y25465000D01*
X58075000Y25465000D02*
X58075000Y26040000D01*
X58075000Y26040000D02*
X56800000Y26040000D01*
X68425000Y35815000D02*
X68425000Y35140000D01*
X58075000Y35815000D02*
X58750000Y35815000D01*
X68425000Y35815000D02*
X67750000Y35815000D01*
X58075000Y35815000D02*
X58075000Y35140000D01*
D13*
%TO.C,R20*%
X76915242Y28843500D02*
X77389758Y28843500D01*
X76915242Y27798500D02*
X77389758Y27798500D01*
D10*
%TO.C,C29*%
X77343000Y15621000D02*
X77343000Y17145000D01*
X77343000Y17145000D02*
X77343000Y17018000D01*
X73279000Y15621000D02*
X77343000Y15621000D01*
X77343000Y17145000D02*
X73279000Y17145000D01*
X73279000Y17145000D02*
X73279000Y15621000D01*
%TO.C,J22*%
X48895000Y29972000D02*
X48895000Y22352000D01*
X48895000Y22352000D02*
X53975000Y22352000D01*
X53975000Y22352000D02*
X53975000Y29972000D01*
X53975000Y29972000D02*
X48895000Y29972000D01*
D13*
%TO.C,R23*%
X50372242Y31510500D02*
X50846758Y31510500D01*
X50372242Y30465500D02*
X50846758Y30465500D01*
%TO.C,C26*%
X79742420Y25144000D02*
X80023580Y25144000D01*
X79742420Y26164000D02*
X80023580Y26164000D01*
%TO.C,C28*%
X81012420Y30355000D02*
X81293580Y30355000D01*
X81012420Y29335000D02*
X81293580Y29335000D01*
%TO.C,C30*%
X50659420Y36447000D02*
X50940580Y36447000D01*
X50659420Y37467000D02*
X50940580Y37467000D01*
%TO.C,C33*%
X54623580Y37467000D02*
X54342420Y37467000D01*
X54623580Y36447000D02*
X54342420Y36447000D01*
%TO.C,C34*%
X52703000Y31672920D02*
X52703000Y31954080D01*
X53723000Y31672920D02*
X53723000Y31954080D01*
%TO.C,C35*%
X63640580Y22735000D02*
X63359420Y22735000D01*
X63640580Y21715000D02*
X63359420Y21715000D01*
%TO.C,C39*%
X63994420Y38991000D02*
X64275580Y38991000D01*
X63994420Y37971000D02*
X64275580Y37971000D01*
%TO.C,C43*%
X81012420Y32514000D02*
X81293580Y32514000D01*
X81012420Y31494000D02*
X81293580Y31494000D01*
%TO.C,C47*%
X76452000Y22619580D02*
X76452000Y22338420D01*
X77472000Y22619580D02*
X77472000Y22338420D01*
%TO.C,L1*%
X76675064Y34253000D02*
X75470936Y34253000D01*
X76675064Y31533000D02*
X75470936Y31533000D01*
%TO.C,R21*%
X75962742Y26430500D02*
X76437258Y26430500D01*
X75962742Y25385500D02*
X76437258Y25385500D01*
D10*
%TO.C,U11*%
X74015000Y25501000D02*
X73740000Y25501000D01*
X70765000Y22251000D02*
X71040000Y22251000D01*
X74015000Y22251000D02*
X74015000Y25501000D01*
X74015000Y22251000D02*
X73840000Y22251000D01*
X70765000Y25501000D02*
X71040000Y25501000D01*
X70765000Y22251000D02*
X70765000Y25501000D01*
X73840000Y22251000D02*
X73840000Y21176000D01*
D13*
%TO.C,C23*%
X25554400Y34633780D02*
X25554400Y34352620D01*
X24534400Y34633780D02*
X24534400Y34352620D01*
%TO.C,C24*%
X21338000Y34633780D02*
X21338000Y34352620D01*
X20318000Y34633780D02*
X20318000Y34352620D01*
%TO.C,C32*%
X69979000Y13285080D02*
X69979000Y13003920D01*
X68959000Y13285080D02*
X68959000Y13003920D01*
%TO.C,C54*%
X49405000Y18936580D02*
X49405000Y18655420D01*
X48385000Y18936580D02*
X48385000Y18655420D01*
%TO.C,R15*%
X28210742Y36764700D02*
X28685258Y36764700D01*
X28210742Y37809700D02*
X28685258Y37809700D01*
%TO.C,R19*%
X24654742Y37809700D02*
X25129258Y37809700D01*
X24654742Y36764700D02*
X25129258Y36764700D01*
%TO.C,R22*%
X20997142Y36764700D02*
X21471658Y36764700D01*
X20997142Y37809700D02*
X21471658Y37809700D01*
%TO.C,M8*%
X23472000Y9250000D02*
X25072000Y9250000D01*
X34422000Y36600000D02*
X34422000Y38200000D01*
X2122000Y30600000D02*
X2122000Y32200000D01*
X11472000Y9250000D02*
X13072000Y9250000D01*
X17472000Y41550000D02*
X19072000Y41550000D01*
X2122000Y36600000D02*
X2122000Y38200000D01*
X34422000Y12600000D02*
X34422000Y14200000D01*
X34422000Y24600000D02*
X34422000Y26200000D01*
X2122000Y18600000D02*
X2122000Y20200000D01*
X23472000Y41550000D02*
X25072000Y41550000D01*
X29472000Y9250000D02*
X31072000Y9250000D01*
X5472000Y9250000D02*
X7072000Y9250000D01*
X17472000Y9250000D02*
X19072000Y9250000D01*
X34422000Y18600000D02*
X34422000Y20200000D01*
X29472000Y41550000D02*
X31072000Y41550000D01*
X5472000Y41550000D02*
X7072000Y41550000D01*
X2122000Y12600000D02*
X2122000Y14200000D01*
X2122000Y24600000D02*
X2122000Y26200000D01*
X34422000Y30600000D02*
X34422000Y32200000D01*
X11472000Y41550000D02*
X13072000Y41550000D01*
%TO.C,J3*%
X84650000Y18185000D02*
X84650000Y16385000D01*
X84650000Y16385000D02*
X83660000Y16385000D01*
X86100000Y7215000D02*
X84650000Y7215000D01*
X86100000Y18185000D02*
X84650000Y18185000D01*
X88920000Y16915000D02*
X88920000Y8485000D01*
X84650000Y7215000D02*
X84650000Y9015000D01*
%TO.C,C58*%
X14262980Y15089600D02*
X13981820Y15089600D01*
X14262980Y14069600D02*
X13981820Y14069600D01*
%TO.C,R17*%
X132825776Y-45067500D02*
X132351260Y-45067500D01*
X132825776Y-46112500D02*
X132351260Y-46112500D01*
%TO.C,R39*%
X6688858Y17206700D02*
X6214342Y17206700D01*
X6688858Y18251700D02*
X6214342Y18251700D01*
%TO.C,R25*%
X137015776Y-42397500D02*
X136541260Y-42397500D01*
X137015776Y-43442500D02*
X136541260Y-43442500D01*
%TO.C,C59*%
X10970800Y37529380D02*
X10970800Y37248220D01*
X11990800Y37529380D02*
X11990800Y37248220D01*
%TO.C,J1*%
X84650000Y34675000D02*
X84650000Y32875000D01*
X88920000Y33405000D02*
X88920000Y22475000D01*
X84650000Y21205000D02*
X84650000Y23005000D01*
X86100000Y21205000D02*
X84650000Y21205000D01*
X84650000Y32875000D02*
X83660000Y32875000D01*
X86100000Y34675000D02*
X84650000Y34675000D01*
%TO.C,R24*%
X132825776Y-42397500D02*
X132351260Y-42397500D01*
X132825776Y-43442500D02*
X132351260Y-43442500D01*
%TO.C,R28*%
X40155776Y-13622500D02*
X39681260Y-13622500D01*
X40155776Y-12577500D02*
X39681260Y-12577500D01*
%TO.C,C37*%
X17477200Y37072180D02*
X17477200Y36791020D01*
X16457200Y37072180D02*
X16457200Y36791020D01*
%TO.C,C55*%
X17283820Y16969200D02*
X17564980Y16969200D01*
X17283820Y15949200D02*
X17564980Y15949200D01*
%TO.C,D6*%
X85382518Y-54458000D02*
X87232518Y-54458000D01*
X87232518Y-53258000D02*
X87232518Y-54458000D01*
X85382518Y-53258000D02*
X87232518Y-53258000D01*
%TO.C,C48*%
X46549098Y-23520000D02*
X46267938Y-23520000D01*
X46549098Y-22500000D02*
X46267938Y-22500000D01*
%TO.C,Q1*%
X10246800Y37642800D02*
X10246800Y38292800D01*
X10246800Y37642800D02*
X10246800Y36992800D01*
X7126800Y37642800D02*
X7126800Y39317800D01*
X7126800Y37642800D02*
X7126800Y36992800D01*
%TO.C,R41*%
X13832100Y38980342D02*
X13832100Y39454858D01*
X12787100Y38980342D02*
X12787100Y39454858D01*
D14*
%TO.C,J4*%
X86250000Y35850000D02*
X87500000Y35850000D01*
X91500000Y45430000D02*
X91500000Y35850000D01*
X86250000Y45430000D02*
X87500000Y45430000D01*
X91500000Y35850000D02*
X90220000Y35850000D01*
X90220000Y45430000D02*
X91500000Y45430000D01*
D13*
%TO.C,R27*%
X40155776Y-16292500D02*
X39681260Y-16292500D01*
X40155776Y-15247500D02*
X39681260Y-15247500D01*
%TO.C,L2*%
X137039770Y-44880000D02*
X136517266Y-44880000D01*
X137039770Y-46300000D02*
X136517266Y-46300000D01*
%TO.C,C25*%
X94479098Y-19810000D02*
X94197938Y-19810000D01*
X94479098Y-20830000D02*
X94197938Y-20830000D01*
%TO.C,R30*%
X101525776Y-63972500D02*
X101051260Y-63972500D01*
X101525776Y-62927500D02*
X101051260Y-62927500D01*
%TO.C,C57*%
X31494000Y12383380D02*
X31494000Y12102220D01*
X32514000Y12383380D02*
X32514000Y12102220D01*
%TO.C,U7*%
X33212518Y-4748000D02*
X32412518Y-4748000D01*
X33212518Y-7868000D02*
X32412518Y-7868000D01*
X33212518Y-7868000D02*
X34012518Y-7868000D01*
X33212518Y-4748000D02*
X35012518Y-4748000D01*
%TO.C,R14*%
X13832100Y36305258D02*
X13832100Y35830742D01*
X12787100Y36305258D02*
X12787100Y35830742D01*
%TO.C,R40*%
X30668700Y37473658D02*
X30668700Y36999142D01*
X31713700Y37473658D02*
X31713700Y36999142D01*
%TO.C,C22*%
X98669098Y-19810000D02*
X98387938Y-19810000D01*
X98669098Y-20830000D02*
X98387938Y-20830000D01*
%TO.C,R29*%
X65295776Y-37162500D02*
X64821260Y-37162500D01*
X65295776Y-36117500D02*
X64821260Y-36117500D01*
%TO.C,C56*%
X30685200Y12383380D02*
X30685200Y12102220D01*
X29665200Y12383380D02*
X29665200Y12102220D01*
%TO.C,C49*%
X91049098Y-57910000D02*
X90767938Y-57910000D01*
X91049098Y-58930000D02*
X90767938Y-58930000D01*
%TO.C,R31*%
X97335776Y-62927500D02*
X96861260Y-62927500D01*
X97335776Y-63972500D02*
X96861260Y-63972500D01*
%TO.C,C38*%
X33889098Y-9360000D02*
X33607938Y-9360000D01*
X33889098Y-10380000D02*
X33607938Y-10380000D01*
%TO.C,U9*%
X61922518Y-26908000D02*
X61922518Y-26183000D01*
X65417518Y-26908000D02*
X66142518Y-26908000D01*
X62647518Y-22688000D02*
X61922518Y-22688000D01*
X62647518Y-26908000D02*
X61922518Y-26908000D01*
X65417518Y-22688000D02*
X66142518Y-22688000D01*
X66142518Y-26908000D02*
X66142518Y-26183000D01*
X61922518Y-22688000D02*
X61922518Y-23413000D01*
%TO.C,R16*%
X18222700Y35373542D02*
X18222700Y35848058D01*
X19267700Y35373542D02*
X19267700Y35848058D01*
%TO.C,C46*%
X61009098Y-37150000D02*
X60727938Y-37150000D01*
X61009098Y-36130000D02*
X60727938Y-36130000D01*
%TO.C,C53*%
X15660900Y38578258D02*
X15660900Y38103742D01*
X14615900Y38578258D02*
X14615900Y38103742D01*
%TO.C,C41*%
X52739098Y-27510000D02*
X52457938Y-27510000D01*
X52739098Y-26490000D02*
X52457938Y-26490000D01*
%TO.C,D1*%
X60282518Y-25988000D02*
X60282518Y-27188000D01*
X58432518Y-27188000D02*
X60282518Y-27188000D01*
X58432518Y-25988000D02*
X60282518Y-25988000D01*
%TO.C,R26*%
X59065776Y-32427500D02*
X58591260Y-32427500D01*
X59065776Y-33472500D02*
X58591260Y-33472500D01*
%TO.C,U12*%
X90432518Y-56418000D02*
X89632518Y-56418000D01*
X90432518Y-53298000D02*
X92232518Y-53298000D01*
X90432518Y-53298000D02*
X89632518Y-53298000D01*
X90432518Y-56418000D02*
X91232518Y-56418000D01*
%TO.C,C45*%
X46289098Y-20690000D02*
X46007938Y-20690000D01*
X46289098Y-19670000D02*
X46007938Y-19670000D01*
%TO.C,R18*%
X128635776Y-42397500D02*
X128161260Y-42397500D01*
X128635776Y-43442500D02*
X128161260Y-43442500D01*
%TO.C,D5*%
X92382518Y-60378000D02*
X92382518Y-61578000D01*
X90532518Y-60378000D02*
X92382518Y-60378000D01*
X90532518Y-61578000D02*
X92382518Y-61578000D01*
%TO.C,C51*%
X105619098Y-63960000D02*
X105337938Y-63960000D01*
X105619098Y-62940000D02*
X105337938Y-62940000D01*
%TO.C,U6*%
X80912518Y-9868000D02*
X82862518Y-9868000D01*
X80912518Y-4748000D02*
X78962518Y-4748000D01*
X80912518Y-4748000D02*
X84362518Y-4748000D01*
X80912518Y-9868000D02*
X78962518Y-9868000D01*
%TO.C,C36*%
X85659098Y-12360000D02*
X85377938Y-12360000D01*
X85659098Y-13380000D02*
X85377938Y-13380000D01*
%TD*%
M02*
