%TF.GenerationSoftware,KiCad,Pcbnew,6.0.4-6f826c9f35~116~ubuntu20.04.1*%
%TF.CreationDate,2022-05-02T14:47:28+00:00*%
%TF.ProjectId,USTSIPIN01A,55535453-4950-4494-9e30-31412e6b6963,REV*%
%TF.SameCoordinates,Original*%
%TF.FileFunction,Soldermask,Top*%
%TF.FilePolarity,Negative*%
%FSLAX46Y46*%
G04 Gerber Fmt 4.6, Leading zero omitted, Abs format (unit mm)*
G04 Created by KiCad (PCBNEW 6.0.4-6f826c9f35~116~ubuntu20.04.1) date 2022-05-02 14:47:28*
%MOMM*%
%LPD*%
G01*
G04 APERTURE LIST*
%ADD10C,0.150000*%
%ADD11C,6.000000*%
%ADD12C,1.524000*%
%ADD13R,3.800000X1.000000*%
%ADD14R,1.000000X3.800000*%
%ADD15R,1.000000X1.000000*%
%ADD16R,1.000000X2.300000*%
%ADD17R,2.300000X1.000000*%
%ADD18C,1.500000*%
%ADD19R,1.600000X1.200000*%
%ADD20R,5.000000X2.500000*%
%ADD21C,0.650000*%
%ADD22O,2.000000X1.000000*%
%ADD23O,2.100000X1.050000*%
%ADD24C,2.700000*%
G04 APERTURE END LIST*
D10*
G36*
X24892000Y508000D02*
G01*
X508000Y508000D01*
X508000Y50292000D01*
X24892000Y50292000D01*
X24892000Y508000D01*
G37*
X24892000Y508000D02*
X508000Y508000D01*
X508000Y50292000D01*
X24892000Y50292000D01*
X24892000Y508000D01*
D11*
%TO.C,M2*%
X71120000Y45720000D03*
%TD*%
%TO.C,M3*%
X5080000Y45720000D03*
%TD*%
%TO.C,M4*%
X5080000Y5080000D03*
%TD*%
D12*
%TO.C,D2*%
X15360000Y34190000D03*
X10360000Y34190000D03*
%TD*%
D11*
%TO.C,M1*%
X63500000Y5080000D03*
%TD*%
D13*
%TO.C,M8*%
X26272000Y9500000D03*
D14*
X1372000Y22400000D03*
D15*
X33172000Y9500000D03*
D13*
X8272000Y41300000D03*
X26272000Y41300000D03*
X14272000Y41300000D03*
D14*
X33172000Y34400000D03*
D13*
X20272000Y41300000D03*
D14*
X1372000Y28400000D03*
X33172000Y22400000D03*
D16*
X33172000Y11150000D03*
D14*
X1372000Y16400000D03*
D17*
X31522000Y9500000D03*
D13*
X20272000Y9500000D03*
D14*
X1372000Y34400000D03*
D13*
X8272000Y9500000D03*
D15*
X1372000Y41300000D03*
X1372000Y9500000D03*
D14*
X33172000Y16400000D03*
D16*
X1372000Y39650000D03*
X1372000Y11150000D03*
D17*
X31522000Y41300000D03*
D14*
X33172000Y28400000D03*
D13*
X14272000Y9500000D03*
D15*
X33172000Y41300000D03*
D16*
X33172000Y39650000D03*
D17*
X3022000Y41300000D03*
X3022000Y9500000D03*
%TD*%
D18*
%TO.C,Y1*%
X50292000Y34544000D03*
X55172000Y34544000D03*
%TD*%
D19*
%TO.C,J2*%
X52700000Y30790000D03*
X52700000Y28290000D03*
X52700000Y25790000D03*
X52700000Y23290000D03*
X52700000Y20790000D03*
X52700000Y18290000D03*
X52700000Y15860000D03*
X52700000Y14060000D03*
X52700000Y33290000D03*
D20*
X56200000Y40625000D03*
X56200000Y10175000D03*
X80400000Y40625000D03*
X86400000Y10175000D03*
%TD*%
D21*
%TO.C,J4*%
X85220000Y37750000D03*
X85220000Y43530000D03*
D22*
X88900000Y44960000D03*
X88900000Y36320000D03*
D23*
X84720000Y44960000D03*
X84720000Y36320000D03*
%TD*%
D24*
%TO.C,D4*%
X51587918Y-23670400D03*
%TD*%
%TO.C,D3*%
X38927918Y-9770400D03*
%TD*%
G36*
X90747121Y40873998D02*
G01*
X90793614Y40820342D01*
X90805000Y40768000D01*
X90805000Y18795000D01*
X90784998Y18726879D01*
X90731342Y18680386D01*
X90679000Y18669000D01*
X80390000Y18669000D01*
X80321879Y18689002D01*
X80275386Y18742658D01*
X80264000Y18795000D01*
X80264000Y40768000D01*
X80284002Y40836121D01*
X80337658Y40882614D01*
X80390000Y40894000D01*
X90679000Y40894000D01*
X90747121Y40873998D01*
G37*
M02*
