%TF.GenerationSoftware,KiCad,Pcbnew,6.0.4-6f826c9f35~116~ubuntu20.04.1*%
%TF.CreationDate,2022-05-02T13:51:41+00:00*%
%TF.ProjectId,USTSIPIN01A,55535453-4950-4494-9e30-31412e6b6963,REV*%
%TF.SameCoordinates,Original*%
%TF.FileFunction,Soldermask,Top*%
%TF.FilePolarity,Negative*%
%FSLAX46Y46*%
G04 Gerber Fmt 4.6, Leading zero omitted, Abs format (unit mm)*
G04 Created by KiCad (PCBNEW 6.0.4-6f826c9f35~116~ubuntu20.04.1) date 2022-05-02 13:51:41*
%MOMM*%
%LPD*%
G01*
G04 APERTURE LIST*
G04 Aperture macros list*
%AMRoundRect*
0 Rectangle with rounded corners*
0 $1 Rounding radius*
0 $2 $3 $4 $5 $6 $7 $8 $9 X,Y pos of 4 corners*
0 Add a 4 corners polygon primitive as box body*
4,1,4,$2,$3,$4,$5,$6,$7,$8,$9,$2,$3,0*
0 Add four circle primitives for the rounded corners*
1,1,$1+$1,$2,$3*
1,1,$1+$1,$4,$5*
1,1,$1+$1,$6,$7*
1,1,$1+$1,$8,$9*
0 Add four rect primitives between the rounded corners*
20,1,$1+$1,$2,$3,$4,$5,0*
20,1,$1+$1,$4,$5,$6,$7,0*
20,1,$1+$1,$6,$7,$8,$9,0*
20,1,$1+$1,$8,$9,$2,$3,0*%
G04 Aperture macros list end*
%ADD10C,0.150000*%
%ADD11C,6.000000*%
%ADD12C,1.524000*%
%ADD13R,3.800000X1.000000*%
%ADD14R,1.000000X3.800000*%
%ADD15R,3.300000X2.550000*%
%ADD16R,1.000000X1.000000*%
%ADD17R,1.000000X2.300000*%
%ADD18R,2.300000X1.000000*%
%ADD19C,1.500000*%
%ADD20RoundRect,0.150000X-0.150000X-0.700000X0.150000X-0.700000X0.150000X0.700000X-0.150000X0.700000X0*%
%ADD21RoundRect,0.250000X-0.250000X-1.100000X0.250000X-1.100000X0.250000X1.100000X-0.250000X1.100000X0*%
%ADD22RoundRect,0.200000X-0.200000X-0.275000X0.200000X-0.275000X0.200000X0.275000X-0.200000X0.275000X0*%
%ADD23RoundRect,0.225000X-0.225000X-0.250000X0.225000X-0.250000X0.225000X0.250000X-0.225000X0.250000X0*%
%ADD24R,0.600000X0.700000*%
%ADD25RoundRect,0.150000X-0.587500X-0.150000X0.587500X-0.150000X0.587500X0.150000X-0.587500X0.150000X0*%
%ADD26C,0.650000*%
%ADD27R,0.600000X1.150000*%
%ADD28R,0.300000X1.150000*%
%ADD29O,1.000000X2.000000*%
%ADD30O,1.050000X2.100000*%
%ADD31RoundRect,0.250000X-0.325000X-0.450000X0.325000X-0.450000X0.325000X0.450000X-0.325000X0.450000X0*%
%ADD32RoundRect,0.150000X-0.512500X-0.150000X0.512500X-0.150000X0.512500X0.150000X-0.512500X0.150000X0*%
%ADD33C,2.700000*%
%ADD34R,0.950000X1.500000*%
%ADD35RoundRect,0.250000X-0.250000X-0.475000X0.250000X-0.475000X0.250000X0.475000X-0.250000X0.475000X0*%
%ADD36RoundRect,0.062500X-0.350000X-0.062500X0.350000X-0.062500X0.350000X0.062500X-0.350000X0.062500X0*%
%ADD37RoundRect,0.062500X-0.062500X-0.350000X0.062500X-0.350000X0.062500X0.350000X-0.062500X0.350000X0*%
%ADD38R,2.500000X2.500000*%
%ADD39R,1.600000X1.200000*%
%ADD40R,5.000000X2.500000*%
%ADD41RoundRect,0.150000X-0.825000X-0.150000X0.825000X-0.150000X0.825000X0.150000X-0.825000X0.150000X0*%
G04 APERTURE END LIST*
D10*
G36*
X24892000Y508000D02*
G01*
X508000Y508000D01*
X508000Y50292000D01*
X24892000Y50292000D01*
X24892000Y508000D01*
G37*
X24892000Y508000D02*
X508000Y508000D01*
X508000Y50292000D01*
X24892000Y50292000D01*
X24892000Y508000D01*
D11*
%TO.C,M2*%
X86360000Y45720000D03*
%TD*%
%TO.C,M3*%
X5080000Y45720000D03*
%TD*%
%TO.C,M4*%
X5080000Y5080000D03*
%TD*%
D12*
%TO.C,D2*%
X15360000Y34190000D03*
X10360000Y34190000D03*
%TD*%
D11*
%TO.C,M1*%
X86360000Y5080000D03*
%TD*%
D13*
%TO.C,M5*%
X49976000Y40648000D03*
X67976000Y40648000D03*
X43976000Y40648000D03*
D14*
X80876000Y22498000D03*
X37076000Y34498000D03*
X80876000Y34498000D03*
D15*
X79726000Y39873000D03*
D13*
X49976000Y10348000D03*
X67976000Y10348000D03*
D15*
X79726000Y11123000D03*
X38226000Y11123000D03*
D13*
X61976000Y10348000D03*
X61976000Y40648000D03*
X55976000Y40648000D03*
X73976000Y10348000D03*
D14*
X37076000Y16498000D03*
D13*
X43976000Y10348000D03*
D14*
X80876000Y28498000D03*
X37076000Y22498000D03*
D13*
X73976000Y40648000D03*
D14*
X80876000Y16498000D03*
X37076000Y28498000D03*
D13*
X55976000Y10348000D03*
D15*
X38226000Y39873000D03*
%TD*%
D13*
%TO.C,M8*%
X26272000Y9500000D03*
D14*
X1372000Y22400000D03*
D16*
X33172000Y9500000D03*
D13*
X8272000Y41300000D03*
X26272000Y41300000D03*
X14272000Y41300000D03*
D14*
X33172000Y34400000D03*
D13*
X20272000Y41300000D03*
D14*
X1372000Y28400000D03*
X33172000Y22400000D03*
D17*
X33172000Y11150000D03*
D14*
X1372000Y16400000D03*
D18*
X31522000Y9500000D03*
D13*
X20272000Y9500000D03*
D14*
X1372000Y34400000D03*
D13*
X8272000Y9500000D03*
D16*
X1372000Y41300000D03*
X1372000Y9500000D03*
D14*
X33172000Y16400000D03*
D17*
X1372000Y39650000D03*
X1372000Y11150000D03*
D18*
X31522000Y41300000D03*
D14*
X33172000Y28400000D03*
D13*
X14272000Y9500000D03*
D16*
X33172000Y41300000D03*
D17*
X33172000Y39650000D03*
D18*
X3022000Y41300000D03*
X3022000Y9500000D03*
%TD*%
D19*
%TO.C,Y1*%
X50292000Y34544000D03*
X55172000Y34544000D03*
%TD*%
D20*
%TO.C,J3*%
X69861000Y-13408000D03*
X71111000Y-13408000D03*
X72361000Y-13408000D03*
X73611000Y-13408000D03*
X74861000Y-13408000D03*
X76111000Y-13408000D03*
D21*
X68011000Y-16608000D03*
X77961000Y-16608000D03*
%TD*%
D22*
%TO.C,R17*%
X33695000Y-45590000D03*
X35345000Y-45590000D03*
%TD*%
%TO.C,R25*%
X29505000Y-42920000D03*
X31155000Y-42920000D03*
%TD*%
D20*
%TO.C,J1*%
X69851000Y-5958000D03*
X71101000Y-5958000D03*
X72351000Y-5958000D03*
X73601000Y-5958000D03*
X74851000Y-5958000D03*
X76101000Y-5958000D03*
X77351000Y-5958000D03*
X78601000Y-5958000D03*
D21*
X68001000Y-9158000D03*
X80451000Y-9158000D03*
%TD*%
D22*
%TO.C,R24*%
X33695000Y-42920000D03*
X35345000Y-42920000D03*
%TD*%
%TO.C,R28*%
X126365000Y-13100000D03*
X128015000Y-13100000D03*
%TD*%
D23*
%TO.C,C37*%
X33745000Y-54890000D03*
X35295000Y-54890000D03*
%TD*%
D24*
%TO.C,D6*%
X80326000Y-53858000D03*
X81726000Y-53858000D03*
%TD*%
D23*
%TO.C,C48*%
X119925000Y-23010000D03*
X121475000Y-23010000D03*
%TD*%
D25*
%TO.C,Q1*%
X29203590Y-52033200D03*
X29203590Y-53933200D03*
X31078590Y-52983200D03*
%TD*%
D26*
%TO.C,J4*%
X68046000Y-55058000D03*
X62266000Y-55058000D03*
D27*
X61956000Y-53983000D03*
X62756000Y-53983000D03*
D28*
X63906000Y-53983000D03*
X64906000Y-53983000D03*
X65406000Y-53983000D03*
X66406000Y-53983000D03*
D27*
X68356000Y-53983000D03*
X67556000Y-53983000D03*
D28*
X66906000Y-53983000D03*
X65906000Y-53983000D03*
X64406000Y-53983000D03*
X63406000Y-53983000D03*
D29*
X60836000Y-58738000D03*
X69476000Y-58738000D03*
D30*
X60836000Y-54558000D03*
X69476000Y-54558000D03*
%TD*%
D22*
%TO.C,R27*%
X126365000Y-15770000D03*
X128015000Y-15770000D03*
%TD*%
D31*
%TO.C,L2*%
X29305000Y-45590000D03*
X31355000Y-45590000D03*
%TD*%
D23*
%TO.C,C25*%
X71995000Y-20320000D03*
X73545000Y-20320000D03*
%TD*%
D22*
%TO.C,R30*%
X64995000Y-63450000D03*
X66645000Y-63450000D03*
%TD*%
D32*
%TO.C,U7*%
X132758500Y-5358000D03*
X132758500Y-6308000D03*
X132758500Y-7258000D03*
X135033500Y-7258000D03*
X135033500Y-6308000D03*
X135033500Y-5358000D03*
%TD*%
D22*
%TO.C,R14*%
X33265000Y-52220000D03*
X34915000Y-52220000D03*
%TD*%
D33*
%TO.C,D4*%
X115520600Y-23670400D03*
D34*
X117595600Y-23670400D03*
X113445600Y-23670400D03*
%TD*%
D35*
%TO.C,C22*%
X67630000Y-20320000D03*
X69530000Y-20320000D03*
%TD*%
D22*
%TO.C,R29*%
X101225000Y-36640000D03*
X102875000Y-36640000D03*
%TD*%
D33*
%TO.C,D3*%
X128180600Y-9770400D03*
D34*
X130255600Y-9770400D03*
X126105600Y-9770400D03*
%TD*%
D35*
%TO.C,C49*%
X75250000Y-58420000D03*
X77150000Y-58420000D03*
%TD*%
D22*
%TO.C,R31*%
X69185000Y-63450000D03*
X70835000Y-63450000D03*
%TD*%
D35*
%TO.C,C38*%
X132410000Y-9870000D03*
X134310000Y-9870000D03*
%TD*%
D36*
%TO.C,U9*%
X101138500Y-23798000D03*
X101138500Y-24298000D03*
X101138500Y-24798000D03*
X101138500Y-25298000D03*
X101138500Y-25798000D03*
D37*
X102076000Y-26735500D03*
X102576000Y-26735500D03*
X103076000Y-26735500D03*
X103576000Y-26735500D03*
X104076000Y-26735500D03*
D36*
X105013500Y-25798000D03*
X105013500Y-25298000D03*
X105013500Y-24798000D03*
X105013500Y-24298000D03*
X105013500Y-23798000D03*
D37*
X104076000Y-22860500D03*
X103576000Y-22860500D03*
X103076000Y-22860500D03*
X102576000Y-22860500D03*
X102076000Y-22860500D03*
D38*
X103076000Y-24798000D03*
%TD*%
D22*
%TO.C,R16*%
X29505000Y-56420000D03*
X31155000Y-56420000D03*
%TD*%
D23*
%TO.C,C46*%
X105465000Y-36640000D03*
X107015000Y-36640000D03*
%TD*%
D35*
%TO.C,C41*%
X113560000Y-27000000D03*
X115460000Y-27000000D03*
%TD*%
D24*
%TO.C,D1*%
X107276000Y-26588000D03*
X108676000Y-26588000D03*
%TD*%
D22*
%TO.C,R26*%
X107455000Y-32950000D03*
X109105000Y-32950000D03*
%TD*%
D32*
%TO.C,U12*%
X75538500Y-53908000D03*
X75538500Y-54858000D03*
X75538500Y-55808000D03*
X77813500Y-55808000D03*
X77813500Y-53908000D03*
%TD*%
D23*
%TO.C,C45*%
X120185000Y-20180000D03*
X121735000Y-20180000D03*
%TD*%
D22*
%TO.C,R18*%
X37885000Y-42920000D03*
X39535000Y-42920000D03*
%TD*%
D39*
%TO.C,J2*%
X29531000Y-19219700D03*
X29531000Y-21719700D03*
X29531000Y-24219700D03*
X29531000Y-26719700D03*
X29531000Y-29219700D03*
X29531000Y-31719700D03*
X29531000Y-34149700D03*
X29531000Y-35949700D03*
X29531000Y-16719700D03*
D40*
X33031000Y-9384700D03*
X33031000Y-39834700D03*
X57231000Y-9384700D03*
X63231000Y-39834700D03*
%TD*%
D24*
%TO.C,D5*%
X75176000Y-60978000D03*
X76576000Y-60978000D03*
%TD*%
D23*
%TO.C,C51*%
X60855000Y-63450000D03*
X62405000Y-63450000D03*
%TD*%
D41*
%TO.C,U6*%
X83721000Y-5403000D03*
X83721000Y-6673000D03*
X83721000Y-7943000D03*
X83721000Y-9213000D03*
X88671000Y-9213000D03*
X88671000Y-7943000D03*
X88671000Y-6673000D03*
X88671000Y-5403000D03*
%TD*%
D23*
%TO.C,C36*%
X80815000Y-12870000D03*
X82365000Y-12870000D03*
%TD*%
G36*
X90747121Y40873998D02*
G01*
X90793614Y40820342D01*
X90805000Y40768000D01*
X90805000Y18795000D01*
X90784998Y18726879D01*
X90731342Y18680386D01*
X90679000Y18669000D01*
X80390000Y18669000D01*
X80321879Y18689002D01*
X80275386Y18742658D01*
X80264000Y18795000D01*
X80264000Y40768000D01*
X80284002Y40836121D01*
X80337658Y40882614D01*
X80390000Y40894000D01*
X90679000Y40894000D01*
X90747121Y40873998D01*
G37*
M02*
