%TF.GenerationSoftware,KiCad,Pcbnew,6.0.4-6f826c9f35~116~ubuntu20.04.1*%
%TF.CreationDate,2022-05-02T13:51:41+00:00*%
%TF.ProjectId,USTSIPIN01A,55535453-4950-4494-9e30-31412e6b6963,REV*%
%TF.SameCoordinates,Original*%
%TF.FileFunction,Soldermask,Bot*%
%TF.FilePolarity,Negative*%
%FSLAX46Y46*%
G04 Gerber Fmt 4.6, Leading zero omitted, Abs format (unit mm)*
G04 Created by KiCad (PCBNEW 6.0.4-6f826c9f35~116~ubuntu20.04.1) date 2022-05-02 13:51:41*
%MOMM*%
%LPD*%
G01*
G04 APERTURE LIST*
G04 Aperture macros list*
%AMRoundRect*
0 Rectangle with rounded corners*
0 $1 Rounding radius*
0 $2 $3 $4 $5 $6 $7 $8 $9 X,Y pos of 4 corners*
0 Add a 4 corners polygon primitive as box body*
4,1,4,$2,$3,$4,$5,$6,$7,$8,$9,$2,$3,0*
0 Add four circle primitives for the rounded corners*
1,1,$1+$1,$2,$3*
1,1,$1+$1,$4,$5*
1,1,$1+$1,$6,$7*
1,1,$1+$1,$8,$9*
0 Add four rect primitives between the rounded corners*
20,1,$1+$1,$2,$3,$4,$5,0*
20,1,$1+$1,$4,$5,$6,$7,0*
20,1,$1+$1,$6,$7,$8,$9,0*
20,1,$1+$1,$8,$9,$2,$3,0*%
G04 Aperture macros list end*
%ADD10C,6.000000*%
%ADD11C,1.524000*%
%ADD12C,1.500000*%
%ADD13C,0.650000*%
%ADD14O,1.000000X2.000000*%
%ADD15O,1.050000X2.100000*%
%ADD16C,2.700000*%
%ADD17RoundRect,0.225000X-0.250000X0.225000X-0.250000X-0.225000X0.250000X-0.225000X0.250000X0.225000X0*%
%ADD18RoundRect,0.250000X0.250000X0.475000X-0.250000X0.475000X-0.250000X-0.475000X0.250000X-0.475000X0*%
%ADD19RoundRect,0.250000X0.475000X-0.250000X0.475000X0.250000X-0.475000X0.250000X-0.475000X-0.250000X0*%
%ADD20RoundRect,0.250000X-0.475000X0.250000X-0.475000X-0.250000X0.475000X-0.250000X0.475000X0.250000X0*%
%ADD21RoundRect,0.225000X0.225000X0.250000X-0.225000X0.250000X-0.225000X-0.250000X0.225000X-0.250000X0*%
%ADD22RoundRect,0.225000X0.250000X-0.225000X0.250000X0.225000X-0.250000X0.225000X-0.250000X-0.225000X0*%
%ADD23RoundRect,0.200000X-0.275000X0.200000X-0.275000X-0.200000X0.275000X-0.200000X0.275000X0.200000X0*%
%ADD24RoundRect,0.200000X0.275000X-0.200000X0.275000X0.200000X-0.275000X0.200000X-0.275000X-0.200000X0*%
%ADD25RoundRect,0.200000X0.200000X0.275000X-0.200000X0.275000X-0.200000X-0.275000X0.200000X-0.275000X0*%
%ADD26RoundRect,0.200000X-0.200000X-0.275000X0.200000X-0.275000X0.200000X0.275000X-0.200000X0.275000X0*%
%ADD27RoundRect,0.150000X-0.825000X-0.150000X0.825000X-0.150000X0.825000X0.150000X-0.825000X0.150000X0*%
%ADD28R,0.650000X1.560000*%
%ADD29R,1.560000X0.650000*%
%ADD30RoundRect,0.150000X-0.587500X-0.150000X0.587500X-0.150000X0.587500X0.150000X-0.587500X0.150000X0*%
%ADD31RoundRect,0.243750X-0.243750X-0.456250X0.243750X-0.456250X0.243750X0.456250X-0.243750X0.456250X0*%
%ADD32RoundRect,0.250000X0.325000X0.450000X-0.325000X0.450000X-0.325000X-0.450000X0.325000X-0.450000X0*%
%ADD33R,1.500000X1.300000*%
%ADD34R,3.000000X0.700000*%
%ADD35RoundRect,0.225000X-0.225000X-0.250000X0.225000X-0.250000X0.225000X0.250000X-0.225000X0.250000X0*%
%ADD36RoundRect,0.150000X0.512500X0.150000X-0.512500X0.150000X-0.512500X-0.150000X0.512500X-0.150000X0*%
%ADD37R,1.500000X0.550000*%
%ADD38R,0.550000X1.500000*%
%ADD39R,3.800000X1.000000*%
%ADD40R,1.000000X3.800000*%
%ADD41R,3.300000X2.550000*%
%ADD42R,1.300000X1.500000*%
%ADD43R,0.700000X3.000000*%
%ADD44R,1.524000X1.524000*%
%ADD45RoundRect,0.250000X-0.250000X-0.475000X0.250000X-0.475000X0.250000X0.475000X-0.250000X0.475000X0*%
%ADD46RoundRect,0.250001X0.462499X1.074999X-0.462499X1.074999X-0.462499X-1.074999X0.462499X-1.074999X0*%
%ADD47R,0.250000X1.100000*%
%ADD48R,1.000000X1.800000*%
G04 APERTURE END LIST*
D10*
%TO.C,M2*%
X86360000Y45720000D03*
%TD*%
%TO.C,M3*%
X5080000Y45720000D03*
%TD*%
%TO.C,M4*%
X5080000Y5080000D03*
%TD*%
D11*
%TO.C,D2*%
X15360000Y34190000D03*
X10360000Y34190000D03*
%TD*%
D10*
%TO.C,M1*%
X86360000Y5080000D03*
%TD*%
D12*
%TO.C,Y1*%
X50292000Y34544000D03*
X55172000Y34544000D03*
%TD*%
D13*
%TO.C,J4*%
X68046000Y-55058000D03*
X62266000Y-55058000D03*
D14*
X60836000Y-58738000D03*
X69476000Y-58738000D03*
D15*
X60836000Y-54558000D03*
X69476000Y-54558000D03*
%TD*%
D16*
%TO.C,D4*%
X115520600Y-23670400D03*
%TD*%
%TO.C,D3*%
X128180600Y-9770400D03*
%TD*%
D17*
%TO.C,C20*%
X10066000Y20327000D03*
X10066000Y18777000D03*
%TD*%
D18*
%TO.C,C1*%
X28415000Y16250000D03*
X26515000Y16250000D03*
%TD*%
D19*
%TO.C,C3*%
X5240000Y28952500D03*
X5240000Y30852500D03*
%TD*%
D18*
%TO.C,C4*%
X30002500Y13075000D03*
X28102500Y13075000D03*
%TD*%
%TO.C,C5*%
X7777500Y23870000D03*
X5877500Y23870000D03*
%TD*%
D20*
%TO.C,C6*%
X19718000Y24756500D03*
X19718000Y22856500D03*
%TD*%
D19*
%TO.C,C7*%
X40038000Y23936000D03*
X40038000Y25836000D03*
%TD*%
%TO.C,C8*%
X33180000Y32064000D03*
X33180000Y33964000D03*
%TD*%
D20*
%TO.C,C9*%
X40165000Y17835000D03*
X40165000Y15935000D03*
%TD*%
D21*
%TO.C,C10*%
X11095000Y23870000D03*
X9545000Y23870000D03*
%TD*%
D17*
%TO.C,C11*%
X17686000Y24581500D03*
X17686000Y23031500D03*
%TD*%
D22*
%TO.C,C12*%
X37752000Y24111000D03*
X37752000Y25661000D03*
%TD*%
%TO.C,C13*%
X35466000Y32239000D03*
X35466000Y33789000D03*
%TD*%
D17*
%TO.C,C14*%
X42705000Y17660000D03*
X42705000Y16110000D03*
%TD*%
D22*
%TO.C,C15*%
X20226000Y26587500D03*
X20226000Y28137500D03*
%TD*%
D17*
%TO.C,C16*%
X22766000Y28264500D03*
X22766000Y26714500D03*
%TD*%
D19*
%TO.C,C17*%
X27338000Y27365000D03*
X27338000Y29265000D03*
%TD*%
D22*
%TO.C,C18*%
X27084000Y23031500D03*
X27084000Y24581500D03*
%TD*%
D19*
%TO.C,C19*%
X37752000Y27746000D03*
X37752000Y29646000D03*
%TD*%
D23*
%TO.C,R3*%
X35720000Y21520000D03*
X35720000Y19870000D03*
%TD*%
D24*
%TO.C,R4*%
X30894000Y32189000D03*
X30894000Y33839000D03*
%TD*%
D25*
%TO.C,R5*%
X37815000Y17520000D03*
X36165000Y17520000D03*
%TD*%
%TO.C,R6*%
X7652500Y21330000D03*
X6002500Y21330000D03*
%TD*%
D23*
%TO.C,R7*%
X15400000Y31680000D03*
X15400000Y30030000D03*
%TD*%
D24*
%TO.C,R8*%
X17940000Y30093500D03*
X17940000Y31743500D03*
%TD*%
%TO.C,R9*%
X17940000Y26537500D03*
X17940000Y28187500D03*
%TD*%
%TO.C,R10*%
X24798000Y26664500D03*
X24798000Y28314500D03*
%TD*%
%TO.C,R11*%
X24798000Y22981500D03*
X24798000Y24631500D03*
%TD*%
%TO.C,R12*%
X42705000Y23680000D03*
X42705000Y25330000D03*
%TD*%
D26*
%TO.C,R13*%
X39721000Y27934000D03*
X41371000Y27934000D03*
%TD*%
D27*
%TO.C,U1*%
X7845000Y25775000D03*
X7845000Y27045000D03*
X7845000Y28315000D03*
X7845000Y29585000D03*
X12795000Y29585000D03*
X12795000Y28315000D03*
X12795000Y27045000D03*
X12795000Y25775000D03*
%TD*%
D28*
%TO.C,U4*%
X39718000Y32172000D03*
X38768000Y32172000D03*
X37818000Y32172000D03*
X37818000Y34872000D03*
X39718000Y34872000D03*
%TD*%
D29*
%TO.C,U5*%
X40085000Y19745000D03*
X40085000Y20695000D03*
X40085000Y21645000D03*
X42785000Y21645000D03*
X42785000Y19745000D03*
%TD*%
D23*
%TO.C,R2*%
X15400000Y25647500D03*
X15400000Y23997500D03*
%TD*%
D27*
%TO.C,U2*%
X30197000Y23743000D03*
X30197000Y25013000D03*
X30197000Y26283000D03*
X30197000Y27553000D03*
X35147000Y27553000D03*
X35147000Y26283000D03*
X35147000Y25013000D03*
X35147000Y23743000D03*
%TD*%
D24*
%TO.C,R1*%
X42324000Y33713000D03*
X42324000Y35363000D03*
%TD*%
D17*
%TO.C,C2*%
X20320000Y35319000D03*
X20320000Y33769000D03*
%TD*%
D30*
%TO.C,U3*%
X14478500Y18602000D03*
X14478500Y20502000D03*
X16353500Y19552000D03*
%TD*%
D20*
%TO.C,C21*%
X24384000Y35494000D03*
X24384000Y33594000D03*
%TD*%
D31*
%TO.C,F2*%
X84343000Y19939000D03*
X86218000Y19939000D03*
%TD*%
D32*
%TO.C,L3*%
X62747000Y20066000D03*
X60697000Y20066000D03*
%TD*%
D19*
%TO.C,C50*%
X54991000Y17909500D03*
X54991000Y19809500D03*
%TD*%
%TO.C,C42*%
X57150000Y17909500D03*
X57150000Y19809500D03*
%TD*%
D33*
%TO.C,C52*%
X51943000Y17573000D03*
D34*
X51943000Y18923000D03*
D33*
X51943000Y20273000D03*
%TD*%
D22*
%TO.C,C44*%
X71882000Y28689000D03*
X71882000Y30239000D03*
%TD*%
D19*
%TO.C,C40*%
X74168000Y28514000D03*
X74168000Y30414000D03*
%TD*%
D17*
%TO.C,C31*%
X72390000Y33604500D03*
X72390000Y32054500D03*
%TD*%
D35*
%TO.C,C27*%
X80378000Y27813000D03*
X81928000Y27813000D03*
%TD*%
D36*
%TO.C,U8*%
X61716500Y18222000D03*
X61716500Y17272000D03*
X61716500Y16322000D03*
X59441500Y16322000D03*
X59441500Y18222000D03*
%TD*%
D37*
%TO.C,U10*%
X57550000Y26640000D03*
X57550000Y27440000D03*
X57550000Y28240000D03*
X57550000Y29040000D03*
X57550000Y29840000D03*
X57550000Y30640000D03*
X57550000Y31440000D03*
X57550000Y32240000D03*
X57550000Y33040000D03*
X57550000Y33840000D03*
X57550000Y34640000D03*
D38*
X59250000Y36340000D03*
X60050000Y36340000D03*
X60850000Y36340000D03*
X61650000Y36340000D03*
X62450000Y36340000D03*
X63250000Y36340000D03*
X64050000Y36340000D03*
X64850000Y36340000D03*
X65650000Y36340000D03*
X66450000Y36340000D03*
X67250000Y36340000D03*
D37*
X68950000Y34640000D03*
X68950000Y33840000D03*
X68950000Y33040000D03*
X68950000Y32240000D03*
X68950000Y31440000D03*
X68950000Y30640000D03*
X68950000Y29840000D03*
X68950000Y29040000D03*
X68950000Y28240000D03*
X68950000Y27440000D03*
X68950000Y26640000D03*
D38*
X67250000Y24940000D03*
X66450000Y24940000D03*
X65650000Y24940000D03*
X64850000Y24940000D03*
X64050000Y24940000D03*
X63250000Y24940000D03*
X62450000Y24940000D03*
X61650000Y24940000D03*
X60850000Y24940000D03*
X60050000Y24940000D03*
X59250000Y24940000D03*
%TD*%
D26*
%TO.C,R20*%
X76327500Y28321000D03*
X77977500Y28321000D03*
%TD*%
D39*
%TO.C,M7*%
X77501000Y10279000D03*
X71501000Y40579000D03*
X65501000Y40579000D03*
D40*
X46601000Y34429000D03*
D39*
X53501000Y40579000D03*
X53501000Y10279000D03*
X77501000Y40579000D03*
X83501000Y40579000D03*
D40*
X90401000Y34429000D03*
D41*
X89251000Y39804000D03*
D39*
X83501000Y10279000D03*
X59501000Y40579000D03*
D40*
X46601000Y28429000D03*
D39*
X65501000Y10279000D03*
D40*
X90401000Y28429000D03*
X46601000Y22429000D03*
X90401000Y22429000D03*
X90401000Y16429000D03*
X46601000Y16429000D03*
D39*
X59501000Y10279000D03*
D41*
X47751000Y11054000D03*
X89251000Y11054000D03*
D39*
X71501000Y10279000D03*
D41*
X47751000Y39804000D03*
%TD*%
D42*
%TO.C,C29*%
X76661000Y16383000D03*
D43*
X75311000Y16383000D03*
D42*
X73961000Y16383000D03*
%TD*%
D44*
%TO.C,J22*%
X50165000Y23622000D03*
X52705000Y23622000D03*
X50165000Y26162000D03*
X52705000Y26162000D03*
X50165000Y28702000D03*
X52705000Y28702000D03*
%TD*%
D26*
%TO.C,R23*%
X49784500Y30988000D03*
X51434500Y30988000D03*
%TD*%
D35*
%TO.C,C26*%
X79108000Y25654000D03*
X80658000Y25654000D03*
%TD*%
%TO.C,C28*%
X80378000Y29845000D03*
X81928000Y29845000D03*
%TD*%
%TO.C,C30*%
X50025000Y36957000D03*
X51575000Y36957000D03*
%TD*%
D21*
%TO.C,C33*%
X55258000Y36957000D03*
X53708000Y36957000D03*
%TD*%
D22*
%TO.C,C34*%
X53213000Y31038500D03*
X53213000Y32588500D03*
%TD*%
D21*
%TO.C,C35*%
X64275000Y22225000D03*
X62725000Y22225000D03*
%TD*%
D35*
%TO.C,C39*%
X63360000Y38481000D03*
X64910000Y38481000D03*
%TD*%
D45*
%TO.C,C43*%
X80203000Y32004000D03*
X82103000Y32004000D03*
%TD*%
D17*
%TO.C,C47*%
X76962000Y23254000D03*
X76962000Y21704000D03*
%TD*%
D46*
%TO.C,L1*%
X77560500Y32893000D03*
X74585500Y32893000D03*
%TD*%
D26*
%TO.C,R21*%
X75375000Y25908000D03*
X77025000Y25908000D03*
%TD*%
D47*
%TO.C,U11*%
X73390000Y21726000D03*
X72890000Y21726000D03*
X72390000Y21726000D03*
X71890000Y21726000D03*
X71390000Y21726000D03*
X71390000Y26026000D03*
X71890000Y26026000D03*
X72390000Y26026000D03*
X72890000Y26026000D03*
X73390000Y26026000D03*
%TD*%
D48*
%TO.C,Y2*%
X74168000Y19558000D03*
X76668000Y19558000D03*
%TD*%
D20*
%TO.C,C23*%
X22352000Y35494000D03*
X22352000Y33594000D03*
%TD*%
D17*
%TO.C,C24*%
X18034000Y35382500D03*
X18034000Y33832500D03*
%TD*%
%TO.C,C32*%
X69469000Y13919500D03*
X69469000Y12369500D03*
%TD*%
%TO.C,C54*%
X48895000Y19571000D03*
X48895000Y18021000D03*
%TD*%
D26*
%TO.C,R15*%
X26162500Y38100000D03*
X27812500Y38100000D03*
%TD*%
%TO.C,R19*%
X22352500Y38100000D03*
X24002500Y38100000D03*
%TD*%
%TO.C,R22*%
X18542500Y38100000D03*
X20192500Y38100000D03*
%TD*%
D39*
%TO.C,M6*%
X25874000Y10340000D03*
X7874000Y10340000D03*
X37874000Y40640000D03*
D41*
X43624000Y11115000D03*
D40*
X974000Y16490000D03*
X44774000Y22490000D03*
D39*
X19874000Y10340000D03*
X7874000Y40640000D03*
D40*
X44774000Y16490000D03*
D39*
X31874000Y10340000D03*
D40*
X44774000Y34490000D03*
D39*
X19874000Y40640000D03*
X13874000Y10340000D03*
D41*
X2124000Y39865000D03*
D40*
X974000Y22490000D03*
X974000Y28490000D03*
D39*
X13874000Y40640000D03*
D40*
X44774000Y28490000D03*
D41*
X43624000Y39865000D03*
D39*
X37874000Y10340000D03*
X31874000Y40640000D03*
D40*
X974000Y34490000D03*
D41*
X2124000Y11115000D03*
D39*
X25874000Y40640000D03*
%TD*%
M02*
