%TF.GenerationSoftware,KiCad,Pcbnew,6.0.4-6f826c9f35~116~ubuntu20.04.1*%
%TF.CreationDate,2022-05-21T18:43:43+00:00*%
%TF.ProjectId,USTSIPIN02A,55535453-4950-4494-9e30-32412e6b6963,REV*%
%TF.SameCoordinates,Original*%
%TF.FileFunction,Paste,Bot*%
%TF.FilePolarity,Positive*%
%FSLAX46Y46*%
G04 Gerber Fmt 4.6, Leading zero omitted, Abs format (unit mm)*
G04 Created by KiCad (PCBNEW 6.0.4-6f826c9f35~116~ubuntu20.04.1) date 2022-05-21 18:43:43*
%MOMM*%
%LPD*%
G01*
G04 APERTURE LIST*
G04 Aperture macros list*
%AMRoundRect*
0 Rectangle with rounded corners*
0 $1 Rounding radius*
0 $2 $3 $4 $5 $6 $7 $8 $9 X,Y pos of 4 corners*
0 Add a 4 corners polygon primitive as box body*
4,1,4,$2,$3,$4,$5,$6,$7,$8,$9,$2,$3,0*
0 Add four circle primitives for the rounded corners*
1,1,$1+$1,$2,$3*
1,1,$1+$1,$4,$5*
1,1,$1+$1,$6,$7*
1,1,$1+$1,$8,$9*
0 Add four rect primitives between the rounded corners*
20,1,$1+$1,$2,$3,$4,$5,0*
20,1,$1+$1,$4,$5,$6,$7,0*
20,1,$1+$1,$6,$7,$8,$9,0*
20,1,$1+$1,$8,$9,$2,$3,0*%
G04 Aperture macros list end*
%ADD10RoundRect,0.225000X-0.250000X0.225000X-0.250000X-0.225000X0.250000X-0.225000X0.250000X0.225000X0*%
%ADD11RoundRect,0.225000X-0.225000X-0.250000X0.225000X-0.250000X0.225000X0.250000X-0.225000X0.250000X0*%
%ADD12RoundRect,0.225000X0.250000X-0.225000X0.250000X0.225000X-0.250000X0.225000X-0.250000X-0.225000X0*%
%ADD13RoundRect,0.250000X0.250000X0.475000X-0.250000X0.475000X-0.250000X-0.475000X0.250000X-0.475000X0*%
%ADD14RoundRect,0.225000X0.225000X0.250000X-0.225000X0.250000X-0.225000X-0.250000X0.225000X-0.250000X0*%
%ADD15RoundRect,0.250000X0.475000X-0.250000X0.475000X0.250000X-0.475000X0.250000X-0.475000X-0.250000X0*%
%ADD16RoundRect,0.200000X-0.275000X0.200000X-0.275000X-0.200000X0.275000X-0.200000X0.275000X0.200000X0*%
%ADD17RoundRect,0.200000X0.200000X0.275000X-0.200000X0.275000X-0.200000X-0.275000X0.200000X-0.275000X0*%
%ADD18RoundRect,0.200000X0.275000X-0.200000X0.275000X0.200000X-0.275000X0.200000X-0.275000X-0.200000X0*%
%ADD19RoundRect,0.150000X-0.825000X-0.150000X0.825000X-0.150000X0.825000X0.150000X-0.825000X0.150000X0*%
%ADD20R,0.650000X1.560000*%
%ADD21RoundRect,0.150000X0.150000X-0.587500X0.150000X0.587500X-0.150000X0.587500X-0.150000X-0.587500X0*%
%ADD22RoundRect,0.243750X0.456250X-0.243750X0.456250X0.243750X-0.456250X0.243750X-0.456250X-0.243750X0*%
%ADD23RoundRect,0.250000X0.450000X-0.325000X0.450000X0.325000X-0.450000X0.325000X-0.450000X-0.325000X0*%
%ADD24R,1.500000X1.300000*%
%ADD25R,3.000000X0.700000*%
%ADD26RoundRect,0.150000X0.150000X-0.512500X0.150000X0.512500X-0.150000X0.512500X-0.150000X-0.512500X0*%
%ADD27R,1.500000X0.550000*%
%ADD28R,0.550000X1.500000*%
%ADD29RoundRect,0.200000X-0.200000X-0.275000X0.200000X-0.275000X0.200000X0.275000X-0.200000X0.275000X0*%
%ADD30RoundRect,0.250001X0.462499X1.074999X-0.462499X1.074999X-0.462499X-1.074999X0.462499X-1.074999X0*%
%ADD31R,0.250000X1.100000*%
%ADD32R,1.000000X1.800000*%
%ADD33R,3.800000X1.000000*%
%ADD34R,1.000000X3.800000*%
%ADD35R,1.000000X1.000000*%
%ADD36R,1.000000X2.300000*%
%ADD37R,2.300000X1.000000*%
%ADD38RoundRect,0.150000X-0.700000X0.150000X-0.700000X-0.150000X0.700000X-0.150000X0.700000X0.150000X0*%
%ADD39RoundRect,0.250000X-1.100000X0.250000X-1.100000X-0.250000X1.100000X-0.250000X1.100000X0.250000X0*%
%ADD40RoundRect,0.150000X-0.587500X-0.150000X0.587500X-0.150000X0.587500X0.150000X-0.587500X0.150000X0*%
%ADD41R,0.600000X0.700000*%
%ADD42RoundRect,0.150000X-0.150000X0.587500X-0.150000X-0.587500X0.150000X-0.587500X0.150000X0.587500X0*%
%ADD43R,1.150000X0.600000*%
%ADD44R,1.150000X0.300000*%
%ADD45RoundRect,0.250000X-0.450000X0.325000X-0.450000X-0.325000X0.450000X-0.325000X0.450000X0.325000X0*%
%ADD46RoundRect,0.150000X-0.512500X-0.150000X0.512500X-0.150000X0.512500X0.150000X-0.512500X0.150000X0*%
%ADD47RoundRect,0.250000X0.255000X0.255000X-0.255000X0.255000X-0.255000X-0.255000X0.255000X-0.255000X0*%
%ADD48RoundRect,0.062500X0.350000X0.062500X-0.350000X0.062500X-0.350000X-0.062500X0.350000X-0.062500X0*%
%ADD49RoundRect,0.062500X0.062500X0.350000X-0.062500X0.350000X-0.062500X-0.350000X0.062500X-0.350000X0*%
%ADD50R,0.700000X0.600000*%
%ADD51RoundRect,0.150000X0.512500X0.150000X-0.512500X0.150000X-0.512500X-0.150000X0.512500X-0.150000X0*%
%ADD52RoundRect,0.150000X0.825000X0.150000X-0.825000X0.150000X-0.825000X-0.150000X0.825000X-0.150000X0*%
G04 APERTURE END LIST*
D10*
%TO.C,C20*%
X9144000Y17742200D03*
X9144000Y16192200D03*
%TD*%
D11*
%TO.C,C1*%
X16649400Y18338800D03*
X18199400Y18338800D03*
%TD*%
D12*
%TO.C,C3*%
X5240000Y29127500D03*
X5240000Y30677500D03*
%TD*%
D11*
%TO.C,C4*%
X16649400Y20218400D03*
X18199400Y20218400D03*
%TD*%
D13*
%TO.C,C5*%
X7777500Y23870000D03*
X5877500Y23870000D03*
%TD*%
D10*
%TO.C,C6*%
X14681200Y24092200D03*
X14681200Y22542200D03*
%TD*%
D14*
%TO.C,C7*%
X31712200Y19812000D03*
X30162200Y19812000D03*
%TD*%
%TO.C,C8*%
X26225800Y14376400D03*
X24675800Y14376400D03*
%TD*%
D11*
%TO.C,C9*%
X20510200Y14122400D03*
X22060200Y14122400D03*
%TD*%
D14*
%TO.C,C10*%
X11095000Y23870000D03*
X9545000Y23870000D03*
%TD*%
D10*
%TO.C,C11*%
X16510000Y24092200D03*
X16510000Y22542200D03*
%TD*%
D14*
%TO.C,C12*%
X31712200Y21793200D03*
X30162200Y21793200D03*
%TD*%
%TO.C,C13*%
X26225800Y16154400D03*
X24675800Y16154400D03*
%TD*%
D11*
%TO.C,C14*%
X20510200Y15900400D03*
X22060200Y15900400D03*
%TD*%
D12*
%TO.C,C15*%
X16764000Y26911000D03*
X16764000Y28461000D03*
%TD*%
D10*
%TO.C,C16*%
X18542000Y28461000D03*
X18542000Y26911000D03*
%TD*%
D14*
%TO.C,C17*%
X23736600Y28295600D03*
X22186600Y28295600D03*
%TD*%
D12*
%TO.C,C18*%
X23774400Y24764400D03*
X23774400Y26314400D03*
%TD*%
D15*
%TO.C,C19*%
X31191200Y30444400D03*
X31191200Y32344400D03*
%TD*%
D16*
%TO.C,R3*%
X31597600Y17893800D03*
X31597600Y16243800D03*
%TD*%
D17*
%TO.C,R4*%
X26275800Y12547600D03*
X24625800Y12547600D03*
%TD*%
%TO.C,R5*%
X18249400Y14579600D03*
X16599400Y14579600D03*
%TD*%
%TO.C,R6*%
X7652500Y21330000D03*
X6002500Y21330000D03*
%TD*%
D16*
%TO.C,R7*%
X15400000Y31680000D03*
X15400000Y30030000D03*
%TD*%
D18*
%TO.C,R8*%
X17018000Y30093500D03*
X17018000Y31743500D03*
%TD*%
%TO.C,R9*%
X14986000Y26861000D03*
X14986000Y28511000D03*
%TD*%
%TO.C,R10*%
X20320000Y26861000D03*
X20320000Y28511000D03*
%TD*%
%TO.C,R11*%
X21996400Y24715200D03*
X21996400Y26365200D03*
%TD*%
%TO.C,R12*%
X24333200Y19037800D03*
X24333200Y20687800D03*
%TD*%
D17*
%TO.C,R13*%
X29260800Y30429200D03*
X27610800Y30429200D03*
%TD*%
D19*
%TO.C,U1*%
X7845000Y25775000D03*
X7845000Y27045000D03*
X7845000Y28315000D03*
X7845000Y29585000D03*
X12795000Y29585000D03*
X12795000Y28315000D03*
X12795000Y27045000D03*
X12795000Y25775000D03*
%TD*%
D20*
%TO.C,U4*%
X26278800Y21466800D03*
X27228800Y21466800D03*
X28178800Y21466800D03*
X28178800Y18766800D03*
X26278800Y18766800D03*
%TD*%
%TO.C,U5*%
X20335200Y21416000D03*
X21285200Y21416000D03*
X22235200Y21416000D03*
X22235200Y18716000D03*
X20335200Y18716000D03*
%TD*%
D16*
%TO.C,R2*%
X18288000Y24040600D03*
X18288000Y22390600D03*
%TD*%
D19*
%TO.C,U2*%
X26277800Y24409400D03*
X26277800Y25679400D03*
X26277800Y26949400D03*
X26277800Y28219400D03*
X31227800Y28219400D03*
X31227800Y26949400D03*
X31227800Y25679400D03*
X31227800Y24409400D03*
%TD*%
D18*
%TO.C,R1*%
X29057600Y14923000D03*
X29057600Y16573000D03*
%TD*%
D10*
%TO.C,C2*%
X23012400Y35268200D03*
X23012400Y33718200D03*
%TD*%
D21*
%TO.C,U3*%
X13142000Y17858500D03*
X11242000Y17858500D03*
X12192000Y19733500D03*
%TD*%
D10*
%TO.C,C21*%
X27178000Y35268200D03*
X27178000Y33718200D03*
%TD*%
D22*
%TO.C,F2*%
X77627000Y29972000D03*
X79502000Y29972000D03*
%TD*%
D23*
%TO.C,L3*%
X83058000Y34027000D03*
X83058000Y36077000D03*
%TD*%
D12*
%TO.C,C50*%
X76962000Y39370000D03*
X76962000Y40920000D03*
%TD*%
%TO.C,C42*%
X74930000Y39370000D03*
X74930000Y40920000D03*
%TD*%
D24*
%TO.C,C52*%
X75946000Y37498000D03*
D25*
X75946000Y36148000D03*
D24*
X75946000Y34798000D03*
%TD*%
D12*
%TO.C,C44*%
X63246000Y33515000D03*
X63246000Y35065000D03*
%TD*%
%TO.C,C40*%
X65532000Y33515000D03*
X65532000Y35065000D03*
%TD*%
%TO.C,C31*%
X63246000Y37071000D03*
X63246000Y38621000D03*
%TD*%
D11*
%TO.C,C27*%
X71615000Y36576000D03*
X73165000Y36576000D03*
%TD*%
D26*
%TO.C,U8*%
X80706000Y36200500D03*
X79756000Y36200500D03*
X78806000Y36200500D03*
X78806000Y38475500D03*
X80706000Y38475500D03*
%TD*%
D27*
%TO.C,U10*%
X48914000Y31466000D03*
X48914000Y32266000D03*
X48914000Y33066000D03*
X48914000Y33866000D03*
X48914000Y34666000D03*
X48914000Y35466000D03*
X48914000Y36266000D03*
X48914000Y37066000D03*
X48914000Y37866000D03*
X48914000Y38666000D03*
X48914000Y39466000D03*
D28*
X50614000Y41166000D03*
X51414000Y41166000D03*
X52214000Y41166000D03*
X53014000Y41166000D03*
X53814000Y41166000D03*
X54614000Y41166000D03*
X55414000Y41166000D03*
X56214000Y41166000D03*
X57014000Y41166000D03*
X57814000Y41166000D03*
X58614000Y41166000D03*
D27*
X60314000Y39466000D03*
X60314000Y38666000D03*
X60314000Y37866000D03*
X60314000Y37066000D03*
X60314000Y36266000D03*
X60314000Y35466000D03*
X60314000Y34666000D03*
X60314000Y33866000D03*
X60314000Y33066000D03*
X60314000Y32266000D03*
X60314000Y31466000D03*
D28*
X58614000Y29766000D03*
X57814000Y29766000D03*
X57014000Y29766000D03*
X56214000Y29766000D03*
X55414000Y29766000D03*
X54614000Y29766000D03*
X53814000Y29766000D03*
X53014000Y29766000D03*
X52214000Y29766000D03*
X51414000Y29766000D03*
X50614000Y29766000D03*
%TD*%
D29*
%TO.C,R20*%
X63691000Y14986000D03*
X65341000Y14986000D03*
%TD*%
D24*
%TO.C,C29*%
X75184000Y28020000D03*
D25*
X75184000Y26670000D03*
D24*
X75184000Y25320000D03*
%TD*%
D18*
%TO.C,R23*%
X45466000Y29401000D03*
X45466000Y31051000D03*
%TD*%
D11*
%TO.C,C26*%
X71615000Y34290000D03*
X73165000Y34290000D03*
%TD*%
%TO.C,C28*%
X71615000Y38608000D03*
X73165000Y38608000D03*
%TD*%
D12*
%TO.C,C30*%
X39878000Y31737000D03*
X39878000Y33287000D03*
%TD*%
D10*
%TO.C,C33*%
X39878000Y36589000D03*
X39878000Y35039000D03*
%TD*%
D12*
%TO.C,C34*%
X45974000Y33261000D03*
X45974000Y34811000D03*
%TD*%
D10*
%TO.C,C35*%
X55372000Y27445000D03*
X55372000Y25895000D03*
%TD*%
D11*
%TO.C,C39*%
X54597000Y44450000D03*
X56147000Y44450000D03*
%TD*%
%TO.C,C43*%
X46469000Y26416000D03*
X48019000Y26416000D03*
%TD*%
%TO.C,C47*%
X71615000Y32004000D03*
X73165000Y32004000D03*
%TD*%
D30*
%TO.C,L1*%
X68924500Y37719000D03*
X65949500Y37719000D03*
%TD*%
D29*
%TO.C,R21*%
X63691000Y13208000D03*
X65341000Y13208000D03*
%TD*%
D31*
%TO.C,U11*%
X69326000Y28076000D03*
X68826000Y28076000D03*
X68326000Y28076000D03*
X67826000Y28076000D03*
X67326000Y28076000D03*
X67326000Y32376000D03*
X67826000Y32376000D03*
X68326000Y32376000D03*
X68826000Y32376000D03*
X69326000Y32376000D03*
%TD*%
D32*
%TO.C,Y2*%
X67076000Y25654000D03*
X69576000Y25654000D03*
%TD*%
D10*
%TO.C,C23*%
X25044400Y35268200D03*
X25044400Y33718200D03*
%TD*%
%TO.C,C24*%
X20828000Y35268200D03*
X20828000Y33718200D03*
%TD*%
D14*
%TO.C,C32*%
X80785000Y34036000D03*
X79235000Y34036000D03*
%TD*%
D11*
%TO.C,C54*%
X77711000Y32258000D03*
X79261000Y32258000D03*
%TD*%
D29*
%TO.C,R15*%
X27623000Y37287200D03*
X29273000Y37287200D03*
%TD*%
%TO.C,R19*%
X24067000Y37287200D03*
X25717000Y37287200D03*
%TD*%
%TO.C,R22*%
X20409400Y37287200D03*
X22059400Y37287200D03*
%TD*%
D33*
%TO.C,M8*%
X27272000Y41300000D03*
D34*
X2372000Y28400000D03*
D35*
X34172000Y41300000D03*
D33*
X9272000Y9500000D03*
X27272000Y9500000D03*
X15272000Y9500000D03*
D34*
X34172000Y16400000D03*
D33*
X21272000Y9500000D03*
D34*
X2372000Y22400000D03*
X34172000Y28400000D03*
D36*
X34172000Y39650000D03*
D34*
X2372000Y34400000D03*
D37*
X32522000Y41300000D03*
D33*
X21272000Y41300000D03*
D34*
X2372000Y16400000D03*
D33*
X9272000Y41300000D03*
D35*
X2372000Y9500000D03*
X2372000Y41300000D03*
D34*
X34172000Y34400000D03*
D36*
X2372000Y11150000D03*
X2372000Y39650000D03*
D37*
X32522000Y9500000D03*
D34*
X34172000Y22400000D03*
D33*
X15272000Y41300000D03*
D35*
X34172000Y9500000D03*
D36*
X34172000Y11150000D03*
D37*
X4022000Y9500000D03*
X4022000Y41300000D03*
%TD*%
D38*
%TO.C,J3*%
X86034000Y26747000D03*
X86034000Y25497000D03*
X86034000Y24247000D03*
X86034000Y22997000D03*
X86034000Y21747000D03*
X86034000Y20497000D03*
D39*
X89234000Y28597000D03*
X89234000Y18647000D03*
%TD*%
D40*
%TO.C,Q2*%
X48689500Y5522000D03*
X48689500Y3622000D03*
X46814500Y4572000D03*
%TD*%
D14*
%TO.C,C58*%
X14897400Y14579600D03*
X13347400Y14579600D03*
%TD*%
D17*
%TO.C,R39*%
X7276600Y17729200D03*
X5626600Y17729200D03*
%TD*%
D16*
%TO.C,R37*%
X59436000Y9969000D03*
X59436000Y8319000D03*
%TD*%
D10*
%TO.C,C59*%
X11480800Y38163800D03*
X11480800Y36613800D03*
%TD*%
D38*
%TO.C,J1*%
X86034000Y43237000D03*
X86034000Y41987000D03*
X86034000Y40737000D03*
X86034000Y39487000D03*
X86034000Y38237000D03*
X86034000Y36987000D03*
X86034000Y35737000D03*
X86034000Y34487000D03*
D39*
X89234000Y45087000D03*
X89234000Y32637000D03*
%TD*%
D16*
%TO.C,R42*%
X54610000Y9969000D03*
X54610000Y8319000D03*
%TD*%
%TO.C,R44*%
X52070000Y7303000D03*
X52070000Y8953000D03*
%TD*%
D18*
%TO.C,R28*%
X69342000Y8827000D03*
X69342000Y10477000D03*
%TD*%
D10*
%TO.C,C37*%
X16967200Y37706600D03*
X16967200Y36156600D03*
%TD*%
D11*
%TO.C,C55*%
X16649400Y16459200D03*
X18199400Y16459200D03*
%TD*%
D41*
%TO.C,D6*%
X81342000Y30480000D03*
X82742000Y30480000D03*
%TD*%
D11*
%TO.C,C48*%
X78727000Y16764000D03*
X80277000Y16764000D03*
%TD*%
D42*
%TO.C,Q1*%
X7736800Y38580300D03*
X9636800Y38580300D03*
X8686800Y36705300D03*
%TD*%
D18*
%TO.C,R41*%
X13309600Y38392600D03*
X13309600Y40042600D03*
%TD*%
D43*
%TO.C,J4*%
X83637000Y9942500D03*
X83637000Y9142500D03*
D44*
X83637000Y7992500D03*
X83637000Y6992500D03*
X83637000Y6492500D03*
X83637000Y5492500D03*
D43*
X83637000Y3542500D03*
X83637000Y4342500D03*
D44*
X83637000Y4992500D03*
X83637000Y5992500D03*
X83637000Y7492500D03*
X83637000Y8492500D03*
%TD*%
D17*
%TO.C,R27*%
X70167000Y14732000D03*
X68517000Y14732000D03*
%TD*%
D29*
%TO.C,R34*%
X81471000Y23876000D03*
X83121000Y23876000D03*
%TD*%
D45*
%TO.C,L2*%
X51816000Y26171000D03*
X51816000Y24121000D03*
%TD*%
D18*
%TO.C,R43*%
X57150000Y7303000D03*
X57150000Y8953000D03*
%TD*%
D29*
%TO.C,R30*%
X86805000Y7874000D03*
X88455000Y7874000D03*
%TD*%
D10*
%TO.C,C57*%
X32004000Y13017800D03*
X32004000Y11467800D03*
%TD*%
D46*
%TO.C,U7*%
X77094500Y10734000D03*
X77094500Y11684000D03*
X77094500Y12634000D03*
X79369500Y12634000D03*
X79369500Y11684000D03*
X79369500Y10734000D03*
%TD*%
D16*
%TO.C,R14*%
X13309600Y36893000D03*
X13309600Y35243000D03*
%TD*%
%TO.C,R40*%
X31191200Y38061400D03*
X31191200Y36411400D03*
%TD*%
D18*
%TO.C,R29*%
X64262000Y8827000D03*
X64262000Y10477000D03*
%TD*%
D10*
%TO.C,C56*%
X30175200Y13017800D03*
X30175200Y11467800D03*
%TD*%
%TO.C,C49*%
X66294000Y22365000D03*
X66294000Y20815000D03*
%TD*%
D29*
%TO.C,R31*%
X86805000Y5842000D03*
X88455000Y5842000D03*
%TD*%
D14*
%TO.C,C60*%
X65291000Y26670000D03*
X63741000Y26670000D03*
%TD*%
D10*
%TO.C,C38*%
X78232000Y27699000D03*
X78232000Y26149000D03*
%TD*%
D40*
%TO.C,Q3*%
X58595500Y5522000D03*
X58595500Y3622000D03*
X56720500Y4572000D03*
%TD*%
D47*
%TO.C,U9*%
X75301000Y17389000D03*
X74051000Y17389000D03*
X75301000Y16139000D03*
X74051000Y16139000D03*
D48*
X76613500Y17764000D03*
X76613500Y17264000D03*
X76613500Y16764000D03*
X76613500Y16264000D03*
X76613500Y15764000D03*
D49*
X75676000Y14826500D03*
X75176000Y14826500D03*
X74676000Y14826500D03*
X74176000Y14826500D03*
X73676000Y14826500D03*
D48*
X72738500Y15764000D03*
X72738500Y16264000D03*
X72738500Y16764000D03*
X72738500Y17264000D03*
X72738500Y17764000D03*
D49*
X73676000Y18701500D03*
X74176000Y18701500D03*
X74676000Y18701500D03*
X75176000Y18701500D03*
X75676000Y18701500D03*
%TD*%
D18*
%TO.C,R16*%
X18745200Y34785800D03*
X18745200Y36435800D03*
%TD*%
D10*
%TO.C,C46*%
X72898000Y23381000D03*
X72898000Y21831000D03*
%TD*%
D16*
%TO.C,C53*%
X15138400Y39166000D03*
X15138400Y37516000D03*
%TD*%
D10*
%TO.C,C41*%
X75184000Y23381000D03*
X75184000Y21831000D03*
%TD*%
D17*
%TO.C,R45*%
X52895000Y44450000D03*
X51245000Y44450000D03*
%TD*%
D18*
%TO.C,R36*%
X46990000Y7303000D03*
X46990000Y8953000D03*
%TD*%
D50*
%TO.C,D1*%
X75184000Y30034000D03*
X75184000Y31434000D03*
%TD*%
D17*
%TO.C,R26*%
X71945000Y12700000D03*
X70295000Y12700000D03*
%TD*%
D51*
%TO.C,U12*%
X70733500Y23302000D03*
X70733500Y22352000D03*
X70733500Y21402000D03*
X68458500Y21402000D03*
X68458500Y23302000D03*
%TD*%
D12*
%TO.C,C45*%
X70358000Y16510000D03*
X70358000Y18060000D03*
%TD*%
D40*
%TO.C,Q4*%
X53769500Y5522000D03*
X53769500Y3622000D03*
X51894500Y4572000D03*
%TD*%
D29*
%TO.C,R32*%
X78169000Y21082000D03*
X79819000Y21082000D03*
%TD*%
D41*
%TO.C,D5*%
X81342000Y28448000D03*
X82742000Y28448000D03*
%TD*%
D10*
%TO.C,C51*%
X66294000Y19063000D03*
X66294000Y17513000D03*
%TD*%
D52*
%TO.C,U6*%
X62927000Y20955000D03*
X62927000Y19685000D03*
X62927000Y18415000D03*
X62927000Y17145000D03*
X57977000Y17145000D03*
X57977000Y18415000D03*
X57977000Y19685000D03*
X57977000Y20955000D03*
%TD*%
D11*
%TO.C,C36*%
X57899000Y23114000D03*
X59449000Y23114000D03*
%TD*%
D16*
%TO.C,R38*%
X66040000Y46799000D03*
X66040000Y45149000D03*
%TD*%
%TO.C,R35*%
X49530000Y9969000D03*
X49530000Y8319000D03*
%TD*%
D29*
%TO.C,R33*%
X81471000Y25654000D03*
X83121000Y25654000D03*
%TD*%
M02*
