M48
; DRILL file {KiCad 6.0.4-6f826c9f35~116~ubuntu20.04.1} date Thu Apr 14 19:41:17 2022
; FORMAT={-:-/ absolute / metric / decimal}
; #@! TF.CreationDate,2022-04-14T19:41:17+00:00
; #@! TF.GenerationSoftware,Kicad,Pcbnew,6.0.4-6f826c9f35~116~ubuntu20.04.1
; #@! TF.FileFunction,Plated,1,2,PTH
FMAT,2
METRIC
; #@! TA.AperFunction,Plated,PTH,ViaDrill
T1C0.400
; #@! TA.AperFunction,Plated,PTH,ComponentDrill
T2C0.762
; #@! TA.AperFunction,Plated,PTH,ComponentDrill
T3C0.800
; #@! TA.AperFunction,Plated,PTH,ComponentDrill
T4C0.889
; #@! TA.AperFunction,Plated,PTH,ComponentDrill
T5C3.000
%
G90
G05
T1
X2.325Y32.708
X2.325Y31.438
X2.325Y29.533
X2.325Y27.628
X2.325Y25.723
X2.325Y23.818
X2.325Y21.913
X2.325Y20.643
X2.96Y19.373
X3.849Y34.232
X4.23Y18.103
X4.771Y26.606
X4.771Y25.336
X4.865Y35.248
X5.5Y32.708
X5.5Y17.468
X5.881Y36.264
X6.77Y31.438
X6.897Y37.28
X7.405Y32.708
X7.405Y17.468
X8.04Y35.248
X8.04Y33.978
X8.421Y38.296
X8.675Y16.833
X9.089Y21.78
X9.945Y38.296
X9.945Y35.883
X10.104Y29.889
X10.105Y28.638
X10.105Y27.368
X10.105Y25.463
X10.453Y21.653
X10.58Y31.438
X10.58Y16.833
X11.215Y35.883
X11.469Y38.296
X11.85Y34.613
X11.85Y32.708
X12.01Y31.178
X12.01Y21.653
X12.485Y16.833
X12.645Y23.558
X12.993Y38.296
X13.755Y34.613
X13.755Y16.833
X14.009Y37.28
X14.39Y35.883
X14.517Y22.04
X15.025Y15.563
X15.66Y35.883
X16.295Y38.423
X16.295Y37.153
X16.93Y15.563
X17.565Y21.278
X17.565Y20.008
X17.565Y18.738
X18.2Y15.563
X18.835Y21.278
X18.835Y20.008
X19.47Y30.168
X19.47Y16.198
X20.105Y21.278
X20.74Y30.168
X20.74Y17.468
X21.375Y24.58
X21.375Y22.548
X21.375Y21.278
X22.01Y30.168
X22.01Y18.103
X22.645Y24.58
X22.645Y22.548
X22.645Y21.278
X23.153Y29.66
X23.28Y18.103
X23.915Y21.278
X24.55Y31.692
X24.55Y18.103
X25.185Y21.278
X25.82Y35.248
X25.82Y33.343
X25.82Y30.676
X25.82Y18.103
X26.455Y21.278
X26.455Y13.658
X26.455Y12.388
X27.09Y35.883
X27.09Y31.438
X27.09Y30.168
X27.09Y17.468
X27.725Y32.708
X27.725Y16.198
X27.725Y14.928
X28.36Y35.883
X28.36Y33.978
X28.36Y11.118
X28.647Y32.194
X28.647Y19.748
X29.63Y35.248
X29.647Y28.511
X29.757Y21.532
X30.265Y20.008
X30.265Y18.738
X30.425Y29.908
X30.552Y28.511
X30.9Y35.248
X30.9Y21.913
X31.281Y25.215
X31.535Y20.008
X31.535Y18.738
X31.695Y29.908
X32.17Y35.248
X32.17Y21.278
X32.297Y16.96
X32.551Y11.88
X32.805Y13.404
X33.003Y27.368
X33.213Y28.39
X33.219Y24.32
X33.44Y35.248
X33.44Y19.373
X33.821Y16.96
X34.042Y26.053
X34.075Y21.913
X34.075Y18.103
X34.075Y11.88
X34.235Y29.108
X34.71Y35.248
X35.599Y11.88
X35.98Y37.153
X35.98Y35.883
X37.123Y11.88
X37.25Y37.788
X37.25Y15.563
X37.41Y21.653
X38.534Y37.254
X38.553Y25.59
X38.68Y29.908
X38.68Y21.653
X38.901Y36.264
X38.901Y11.88
X39.315Y29.273
X39.79Y37.153
X40.425Y11.88
X40.621Y34.936
X40.679Y33.724
X40.679Y32.2
X40.679Y31.184
X41.441Y30.168
X42.49Y22.548
X42.711Y30.168
X42.965Y31.438
X43.473Y29.152
X49.442Y32.2
X49.823Y21.405
X49.823Y13.404
X49.823Y12.134
X50.585Y38.804
X50.839Y32.2
X51.093Y13.404
X51.093Y12.134
X51.22Y24.453
X51.728Y21.532
X52.109Y38.804
X52.363Y13.404
X52.363Y12.134
X53.633Y38.804
X53.633Y20.008
X54.014Y28.517
X55.157Y38.804
X55.157Y26.104
X55.652Y24.504
X56.681Y38.804
X57.697Y24.58
X58.205Y38.804
X58.205Y15.055
X58.713Y20.008
X58.967Y15.055
X59.475Y28.898
X59.729Y38.804
X59.729Y26.104
X60.11Y34.359
X61.253Y38.804
X61.253Y26.612
X61.761Y34.359
X62.487Y31.908
X62.65Y30.803
X62.777Y26.612
X63.539Y32.708
X64.174Y20.262
X64.174Y19.246
X65.19Y27.628
X65.317Y18.865
X65.532Y29.075
X66.333Y31.184
X66.841Y33.724
X66.841Y28.898
X66.968Y38.423
X68.238Y38.423
X69.381Y38.931
X69.381Y24.58
X69.889Y22.04
X70.397Y38.931
X71.159Y34.994
X71.16Y27.024
X71.667Y24.326
X71.852Y35.88
X71.921Y38.931
X73.445Y38.931
X74.969Y38.931
X75.096Y14.293
X75.985Y32.708
X75.985Y31.184
X76.493Y38.931
X78.017Y38.931
X78.017Y18.992
X78.525Y30.803
X79.033Y33.216
X79.033Y21.532
X79.033Y20.008
X87.669Y13.404
X87.669Y11.88
X88.177Y16.452
T2
X10.145Y33.878
X15.145Y33.878
T3
X50.077Y34.232
X54.957Y34.232
T4
X84.748Y35.756
X84.748Y33.216
X84.748Y30.676
X84.748Y28.136
X84.748Y25.596
X84.748Y23.056
X87.288Y35.756
X87.288Y33.216
X87.288Y30.676
X87.288Y28.136
X87.288Y25.596
X87.288Y23.056
T5
X4.865Y45.408
X4.865Y4.768
X86.145Y45.408
X86.145Y4.768
T0
M30
