%TF.GenerationSoftware,KiCad,Pcbnew,6.0.4-6f826c9f35~116~ubuntu20.04.1*%
%TF.CreationDate,2022-05-02T13:01:33+00:00*%
%TF.ProjectId,USTSIPIN01A,55535453-4950-4494-9e30-31412e6b6963,REV*%
%TF.SameCoordinates,Original*%
%TF.FileFunction,Legend,Bot*%
%TF.FilePolarity,Positive*%
%FSLAX46Y46*%
G04 Gerber Fmt 4.6, Leading zero omitted, Abs format (unit mm)*
G04 Created by KiCad (PCBNEW 6.0.4-6f826c9f35~116~ubuntu20.04.1) date 2022-05-02 13:01:33*
%MOMM*%
%LPD*%
G01*
G04 APERTURE LIST*
%ADD10C,0.304800*%
%ADD11C,0.150000*%
%ADD12C,0.050000*%
%ADD13C,0.127000*%
%ADD14C,0.120000*%
G04 APERTURE END LIST*
D10*
%TO.C,C1*%
X27719000Y18555714D02*
X27791571Y18483142D01*
X28009285Y18410571D01*
X28154428Y18410571D01*
X28372142Y18483142D01*
X28517285Y18628285D01*
X28589857Y18773428D01*
X28662428Y19063714D01*
X28662428Y19281428D01*
X28589857Y19571714D01*
X28517285Y19716857D01*
X28372142Y19862000D01*
X28154428Y19934571D01*
X28009285Y19934571D01*
X27791571Y19862000D01*
X27719000Y19789428D01*
X26267571Y18410571D02*
X27138428Y18410571D01*
X26703000Y18410571D02*
X26703000Y19934571D01*
X26848142Y19716857D01*
X26993285Y19571714D01*
X27138428Y19499142D01*
X33044291Y18691302D02*
X31883148Y18691302D01*
X32463720Y18110731D02*
X32463720Y19271874D01*
D11*
%TO.C,U1*%
X11081904Y28227619D02*
X11081904Y27418095D01*
X11034285Y27322857D01*
X10986666Y27275238D01*
X10891428Y27227619D01*
X10700952Y27227619D01*
X10605714Y27275238D01*
X10558095Y27322857D01*
X10510476Y27418095D01*
X10510476Y28227619D01*
X9510476Y27227619D02*
X10081904Y27227619D01*
X9796190Y27227619D02*
X9796190Y28227619D01*
X9891428Y28084761D01*
X9986666Y27989523D01*
X10081904Y27941904D01*
%TO.C,U4*%
X38220380Y34283904D02*
X39029904Y34283904D01*
X39125142Y34236285D01*
X39172761Y34188666D01*
X39220380Y34093428D01*
X39220380Y33902952D01*
X39172761Y33807714D01*
X39125142Y33760095D01*
X39029904Y33712476D01*
X38220380Y33712476D01*
X38553714Y32807714D02*
X39220380Y32807714D01*
X38172761Y33045809D02*
X38887047Y33283904D01*
X38887047Y32664857D01*
%TO.C,U5*%
X42196904Y21242619D02*
X42196904Y20433095D01*
X42149285Y20337857D01*
X42101666Y20290238D01*
X42006428Y20242619D01*
X41815952Y20242619D01*
X41720714Y20290238D01*
X41673095Y20337857D01*
X41625476Y20433095D01*
X41625476Y21242619D01*
X40673095Y21242619D02*
X41149285Y21242619D01*
X41196904Y20766428D01*
X41149285Y20814047D01*
X41054047Y20861666D01*
X40815952Y20861666D01*
X40720714Y20814047D01*
X40673095Y20766428D01*
X40625476Y20671190D01*
X40625476Y20433095D01*
X40673095Y20337857D01*
X40720714Y20290238D01*
X40815952Y20242619D01*
X41054047Y20242619D01*
X41149285Y20290238D01*
X41196904Y20337857D01*
%TO.C,U2*%
X33433904Y26195619D02*
X33433904Y25386095D01*
X33386285Y25290857D01*
X33338666Y25243238D01*
X33243428Y25195619D01*
X33052952Y25195619D01*
X32957714Y25243238D01*
X32910095Y25290857D01*
X32862476Y25386095D01*
X32862476Y26195619D01*
X32433904Y26100380D02*
X32386285Y26148000D01*
X32291047Y26195619D01*
X32052952Y26195619D01*
X31957714Y26148000D01*
X31910095Y26100380D01*
X31862476Y26005142D01*
X31862476Y25909904D01*
X31910095Y25767047D01*
X32481523Y25195619D01*
X31862476Y25195619D01*
%TO.C,R1*%
X44426380Y34704666D02*
X43950190Y35038000D01*
X44426380Y35276095D02*
X43426380Y35276095D01*
X43426380Y34895142D01*
X43474000Y34799904D01*
X43521619Y34752285D01*
X43616857Y34704666D01*
X43759714Y34704666D01*
X43854952Y34752285D01*
X43902571Y34799904D01*
X43950190Y34895142D01*
X43950190Y35276095D01*
X44426380Y33752285D02*
X44426380Y34323714D01*
X44426380Y34038000D02*
X43426380Y34038000D01*
X43569238Y34133238D01*
X43664476Y34228476D01*
X43712095Y34323714D01*
%TO.C,U3*%
X15653904Y20099619D02*
X15653904Y19290095D01*
X15606285Y19194857D01*
X15558666Y19147238D01*
X15463428Y19099619D01*
X15272952Y19099619D01*
X15177714Y19147238D01*
X15130095Y19194857D01*
X15082476Y19290095D01*
X15082476Y20099619D01*
X14701523Y20099619D02*
X14082476Y20099619D01*
X14415809Y19718666D01*
X14272952Y19718666D01*
X14177714Y19671047D01*
X14130095Y19623428D01*
X14082476Y19528190D01*
X14082476Y19290095D01*
X14130095Y19194857D01*
X14177714Y19147238D01*
X14272952Y19099619D01*
X14558666Y19099619D01*
X14653904Y19147238D01*
X14701523Y19194857D01*
%TO.C,D1*%
X83768095Y12120619D02*
X83768095Y13120619D01*
X83530000Y13120619D01*
X83387142Y13073000D01*
X83291904Y12977761D01*
X83244285Y12882523D01*
X83196666Y12692047D01*
X83196666Y12549190D01*
X83244285Y12358714D01*
X83291904Y12263476D01*
X83387142Y12168238D01*
X83530000Y12120619D01*
X83768095Y12120619D01*
X82244285Y12120619D02*
X82815714Y12120619D01*
X82530000Y12120619D02*
X82530000Y13120619D01*
X82625238Y12977761D01*
X82720476Y12882523D01*
X82815714Y12834904D01*
%TO.C,D3*%
X85673095Y14660619D02*
X85673095Y15660619D01*
X85435000Y15660619D01*
X85292142Y15613000D01*
X85196904Y15517761D01*
X85149285Y15422523D01*
X85101666Y15232047D01*
X85101666Y15089190D01*
X85149285Y14898714D01*
X85196904Y14803476D01*
X85292142Y14708238D01*
X85435000Y14660619D01*
X85673095Y14660619D01*
X84768333Y15660619D02*
X84149285Y15660619D01*
X84482619Y15279666D01*
X84339761Y15279666D01*
X84244523Y15232047D01*
X84196904Y15184428D01*
X84149285Y15089190D01*
X84149285Y14851095D01*
X84196904Y14755857D01*
X84244523Y14708238D01*
X84339761Y14660619D01*
X84625476Y14660619D01*
X84720714Y14708238D01*
X84768333Y14755857D01*
%TO.C,L2*%
X67086666Y15803619D02*
X67562857Y15803619D01*
X67562857Y16803619D01*
X66800952Y16708380D02*
X66753333Y16756000D01*
X66658095Y16803619D01*
X66420000Y16803619D01*
X66324761Y16756000D01*
X66277142Y16708380D01*
X66229523Y16613142D01*
X66229523Y16517904D01*
X66277142Y16375047D01*
X66848571Y15803619D01*
X66229523Y15803619D01*
%TO.C,L3*%
X61888666Y19613619D02*
X62364857Y19613619D01*
X62364857Y20613619D01*
X61650571Y20613619D02*
X61031523Y20613619D01*
X61364857Y20232666D01*
X61222000Y20232666D01*
X61126761Y20185047D01*
X61079142Y20137428D01*
X61031523Y20042190D01*
X61031523Y19804095D01*
X61079142Y19708857D01*
X61126761Y19661238D01*
X61222000Y19613619D01*
X61507714Y19613619D01*
X61602952Y19661238D01*
X61650571Y19708857D01*
%TO.C,U6*%
X66844904Y14014619D02*
X66844904Y13205095D01*
X66797285Y13109857D01*
X66749666Y13062238D01*
X66654428Y13014619D01*
X66463952Y13014619D01*
X66368714Y13062238D01*
X66321095Y13109857D01*
X66273476Y13205095D01*
X66273476Y14014619D01*
X65368714Y14014619D02*
X65559190Y14014619D01*
X65654428Y13967000D01*
X65702047Y13919380D01*
X65797285Y13776523D01*
X65844904Y13586047D01*
X65844904Y13205095D01*
X65797285Y13109857D01*
X65749666Y13062238D01*
X65654428Y13014619D01*
X65463952Y13014619D01*
X65368714Y13062238D01*
X65321095Y13109857D01*
X65273476Y13205095D01*
X65273476Y13443190D01*
X65321095Y13538428D01*
X65368714Y13586047D01*
X65463952Y13633666D01*
X65654428Y13633666D01*
X65749666Y13586047D01*
X65797285Y13538428D01*
X65844904Y13443190D01*
%TO.C,C52*%
X52274742Y19921457D02*
X52322361Y19969076D01*
X52369980Y20111933D01*
X52369980Y20207171D01*
X52322361Y20350028D01*
X52227123Y20445266D01*
X52131885Y20492885D01*
X51941409Y20540504D01*
X51798552Y20540504D01*
X51608076Y20492885D01*
X51512838Y20445266D01*
X51417600Y20350028D01*
X51369980Y20207171D01*
X51369980Y20111933D01*
X51417600Y19969076D01*
X51465219Y19921457D01*
X51369980Y19016695D02*
X51369980Y19492885D01*
X51846171Y19540504D01*
X51798552Y19492885D01*
X51750933Y19397647D01*
X51750933Y19159552D01*
X51798552Y19064314D01*
X51846171Y19016695D01*
X51941409Y18969076D01*
X52179504Y18969076D01*
X52274742Y19016695D01*
X52322361Y19064314D01*
X52369980Y19159552D01*
X52369980Y19397647D01*
X52322361Y19492885D01*
X52274742Y19540504D01*
X51465219Y18588123D02*
X51417600Y18540504D01*
X51369980Y18445266D01*
X51369980Y18207171D01*
X51417600Y18111933D01*
X51465219Y18064314D01*
X51560457Y18016695D01*
X51655695Y18016695D01*
X51798552Y18064314D01*
X52369980Y18635742D01*
X52369980Y18016695D01*
%TO.C,C51*%
X57354742Y15222457D02*
X57402361Y15270076D01*
X57449980Y15412933D01*
X57449980Y15508171D01*
X57402361Y15651028D01*
X57307123Y15746266D01*
X57211885Y15793885D01*
X57021409Y15841504D01*
X56878552Y15841504D01*
X56688076Y15793885D01*
X56592838Y15746266D01*
X56497600Y15651028D01*
X56449980Y15508171D01*
X56449980Y15412933D01*
X56497600Y15270076D01*
X56545219Y15222457D01*
X56449980Y14317695D02*
X56449980Y14793885D01*
X56926171Y14841504D01*
X56878552Y14793885D01*
X56830933Y14698647D01*
X56830933Y14460552D01*
X56878552Y14365314D01*
X56926171Y14317695D01*
X57021409Y14270076D01*
X57259504Y14270076D01*
X57354742Y14317695D01*
X57402361Y14365314D01*
X57449980Y14460552D01*
X57449980Y14698647D01*
X57402361Y14793885D01*
X57354742Y14841504D01*
X57449980Y13317695D02*
X57449980Y13889123D01*
X57449980Y13603409D02*
X56449980Y13603409D01*
X56592838Y13698647D01*
X56688076Y13793885D01*
X56735695Y13889123D01*
%TO.C,U8*%
X61655904Y17989619D02*
X61655904Y17180095D01*
X61608285Y17084857D01*
X61560666Y17037238D01*
X61465428Y16989619D01*
X61274952Y16989619D01*
X61179714Y17037238D01*
X61132095Y17084857D01*
X61084476Y17180095D01*
X61084476Y17989619D01*
X60465428Y17561047D02*
X60560666Y17608666D01*
X60608285Y17656285D01*
X60655904Y17751523D01*
X60655904Y17799142D01*
X60608285Y17894380D01*
X60560666Y17942000D01*
X60465428Y17989619D01*
X60274952Y17989619D01*
X60179714Y17942000D01*
X60132095Y17894380D01*
X60084476Y17799142D01*
X60084476Y17751523D01*
X60132095Y17656285D01*
X60179714Y17608666D01*
X60274952Y17561047D01*
X60465428Y17561047D01*
X60560666Y17513428D01*
X60608285Y17465809D01*
X60655904Y17370571D01*
X60655904Y17180095D01*
X60608285Y17084857D01*
X60560666Y17037238D01*
X60465428Y16989619D01*
X60274952Y16989619D01*
X60179714Y17037238D01*
X60132095Y17084857D01*
X60084476Y17180095D01*
X60084476Y17370571D01*
X60132095Y17465809D01*
X60179714Y17513428D01*
X60274952Y17561047D01*
%TO.C,U10*%
X64484095Y31154619D02*
X64484095Y30345095D01*
X64436476Y30249857D01*
X64388857Y30202238D01*
X64293619Y30154619D01*
X64103142Y30154619D01*
X64007904Y30202238D01*
X63960285Y30249857D01*
X63912666Y30345095D01*
X63912666Y31154619D01*
X62912666Y30154619D02*
X63484095Y30154619D01*
X63198380Y30154619D02*
X63198380Y31154619D01*
X63293619Y31011761D01*
X63388857Y30916523D01*
X63484095Y30868904D01*
X62293619Y31154619D02*
X62198380Y31154619D01*
X62103142Y31107000D01*
X62055523Y31059380D01*
X62007904Y30964142D01*
X61960285Y30773666D01*
X61960285Y30535571D01*
X62007904Y30345095D01*
X62055523Y30249857D01*
X62103142Y30202238D01*
X62198380Y30154619D01*
X62293619Y30154619D01*
X62388857Y30202238D01*
X62436476Y30249857D01*
X62484095Y30345095D01*
X62531714Y30535571D01*
X62531714Y30773666D01*
X62484095Y30964142D01*
X62436476Y31059380D01*
X62388857Y31107000D01*
X62293619Y31154619D01*
%TO.C,M7*%
X48563380Y14503523D02*
X47563380Y14503523D01*
X48277666Y14170190D01*
X47563380Y13836857D01*
X48563380Y13836857D01*
X47563380Y13455904D02*
X47563380Y12789238D01*
X48563380Y13217809D01*
%TO.C,C29*%
X75598257Y16000457D02*
X75645876Y15952838D01*
X75788733Y15905219D01*
X75883971Y15905219D01*
X76026828Y15952838D01*
X76122066Y16048076D01*
X76169685Y16143314D01*
X76217304Y16333790D01*
X76217304Y16476647D01*
X76169685Y16667123D01*
X76122066Y16762361D01*
X76026828Y16857600D01*
X75883971Y16905219D01*
X75788733Y16905219D01*
X75645876Y16857600D01*
X75598257Y16809980D01*
X75217304Y16809980D02*
X75169685Y16857600D01*
X75074447Y16905219D01*
X74836352Y16905219D01*
X74741114Y16857600D01*
X74693495Y16809980D01*
X74645876Y16714742D01*
X74645876Y16619504D01*
X74693495Y16476647D01*
X75264923Y15905219D01*
X74645876Y15905219D01*
X74169685Y15905219D02*
X73979209Y15905219D01*
X73883971Y15952838D01*
X73836352Y16000457D01*
X73741114Y16143314D01*
X73693495Y16333790D01*
X73693495Y16714742D01*
X73741114Y16809980D01*
X73788733Y16857600D01*
X73883971Y16905219D01*
X74074447Y16905219D01*
X74169685Y16857600D01*
X74217304Y16809980D01*
X74264923Y16714742D01*
X74264923Y16476647D01*
X74217304Y16381409D01*
X74169685Y16333790D01*
X74074447Y16286171D01*
X73883971Y16286171D01*
X73788733Y16333790D01*
X73741114Y16381409D01*
X73693495Y16476647D01*
D12*
%TO.C,J22*%
X48371142Y23395809D02*
X48656857Y23395809D01*
X48514000Y23395809D02*
X48514000Y23895809D01*
X48561619Y23824380D01*
X48609238Y23776761D01*
X48656857Y23752952D01*
D13*
%TO.C,L1*%
X76327000Y33183285D02*
X76689857Y33183285D01*
X76689857Y33945285D01*
X75673857Y33183285D02*
X76109285Y33183285D01*
X75891571Y33183285D02*
X75891571Y33945285D01*
X75964142Y33836428D01*
X76036714Y33763857D01*
X76109285Y33727571D01*
D11*
%TO.C,U11*%
X74392380Y25114095D02*
X75201904Y25114095D01*
X75297142Y25066476D01*
X75344761Y25018857D01*
X75392380Y24923619D01*
X75392380Y24733142D01*
X75344761Y24637904D01*
X75297142Y24590285D01*
X75201904Y24542666D01*
X74392380Y24542666D01*
X75392380Y23542666D02*
X75392380Y24114095D01*
X75392380Y23828380D02*
X74392380Y23828380D01*
X74535238Y23923619D01*
X74630476Y24018857D01*
X74678095Y24114095D01*
X75392380Y22590285D02*
X75392380Y23161714D01*
X75392380Y22876000D02*
X74392380Y22876000D01*
X74535238Y22971238D01*
X74630476Y23066476D01*
X74678095Y23161714D01*
%TO.C,C45*%
X75598257Y12444457D02*
X75645876Y12396838D01*
X75788733Y12349219D01*
X75883971Y12349219D01*
X76026828Y12396838D01*
X76122066Y12492076D01*
X76169685Y12587314D01*
X76217304Y12777790D01*
X76217304Y12920647D01*
X76169685Y13111123D01*
X76122066Y13206361D01*
X76026828Y13301600D01*
X75883971Y13349219D01*
X75788733Y13349219D01*
X75645876Y13301600D01*
X75598257Y13253980D01*
X74741114Y13015885D02*
X74741114Y12349219D01*
X74979209Y13396838D02*
X75217304Y12682552D01*
X74598257Y12682552D01*
X73741114Y13349219D02*
X74217304Y13349219D01*
X74264923Y12873028D01*
X74217304Y12920647D01*
X74122066Y12968266D01*
X73883971Y12968266D01*
X73788733Y12920647D01*
X73741114Y12873028D01*
X73693495Y12777790D01*
X73693495Y12539695D01*
X73741114Y12444457D01*
X73788733Y12396838D01*
X73883971Y12349219D01*
X74122066Y12349219D01*
X74217304Y12396838D01*
X74264923Y12444457D01*
%TO.C,M6*%
X2936380Y14564523D02*
X1936380Y14564523D01*
X2650666Y14231190D01*
X1936380Y13897857D01*
X2936380Y13897857D01*
X1936380Y12993095D02*
X1936380Y13183571D01*
X1984000Y13278809D01*
X2031619Y13326428D01*
X2174476Y13421666D01*
X2364952Y13469285D01*
X2745904Y13469285D01*
X2841142Y13421666D01*
X2888761Y13374047D01*
X2936380Y13278809D01*
X2936380Y13088333D01*
X2888761Y12993095D01*
X2841142Y12945476D01*
X2745904Y12897857D01*
X2507809Y12897857D01*
X2412571Y12945476D01*
X2364952Y12993095D01*
X2317333Y13088333D01*
X2317333Y13278809D01*
X2364952Y13374047D01*
X2412571Y13421666D01*
X2507809Y13469285D01*
D14*
%TO.C,C20*%
X9304000Y19933000D02*
X9304000Y19171000D01*
X10828000Y19933000D02*
X10828000Y19171000D01*
D11*
X9304000Y18028000D02*
X10828000Y18028000D01*
X10828000Y21076000D02*
X9304000Y21076000D01*
%TO.C,C1*%
X31765220Y17949260D02*
X31765220Y14550740D01*
X32466260Y19303080D02*
X32466260Y18203260D01*
X24488120Y17951800D02*
X30487600Y17951800D01*
X33065700Y18802700D02*
X31866820Y18802700D01*
X24465260Y14550740D02*
X30464740Y14550740D01*
X31783000Y17951800D02*
X31783000Y14553280D01*
D14*
%TO.C,C3*%
X6002000Y29521500D02*
X6002000Y30283500D01*
D11*
X4478000Y28378500D02*
X6002000Y28378500D01*
D14*
X4478000Y29521500D02*
X4478000Y30283500D01*
D11*
X6002000Y31426500D02*
X4478000Y31426500D01*
%TO.C,C4*%
X30576500Y12313000D02*
X30576500Y13837000D01*
D14*
X29433500Y13837000D02*
X28671500Y13837000D01*
D11*
X27528500Y13837000D02*
X27528500Y12313000D01*
D14*
X29433500Y12313000D02*
X28671500Y12313000D01*
%TO.C,C5*%
X7208500Y23108000D02*
X6446500Y23108000D01*
D11*
X5303500Y24632000D02*
X5303500Y23108000D01*
X8351500Y23108000D02*
X8351500Y24632000D01*
D14*
X7208500Y24632000D02*
X6446500Y24632000D01*
D11*
%TO.C,C6*%
X20480000Y25330500D02*
X18956000Y25330500D01*
D14*
X18956000Y24187500D02*
X18956000Y23425500D01*
D11*
X18956000Y22282500D02*
X20480000Y22282500D01*
D14*
X20480000Y24187500D02*
X20480000Y23425500D01*
D11*
%TO.C,C7*%
X39276000Y23362000D02*
X40800000Y23362000D01*
D14*
X40800000Y24505000D02*
X40800000Y25267000D01*
D11*
X40800000Y26410000D02*
X39276000Y26410000D01*
D14*
X39276000Y24505000D02*
X39276000Y25267000D01*
D11*
%TO.C,C8*%
X32418000Y31490000D02*
X33942000Y31490000D01*
X33942000Y34538000D02*
X32418000Y34538000D01*
D14*
X32418000Y32633000D02*
X32418000Y33395000D01*
X33942000Y32633000D02*
X33942000Y33395000D01*
%TO.C,C9*%
X39403000Y17266000D02*
X39403000Y16504000D01*
D11*
X40927000Y18409000D02*
X39403000Y18409000D01*
X39403000Y15361000D02*
X40927000Y15361000D01*
D14*
X40927000Y17266000D02*
X40927000Y16504000D01*
%TO.C,C10*%
X10701000Y24632000D02*
X9939000Y24632000D01*
D11*
X8796000Y24632000D02*
X8796000Y23108000D01*
X11844000Y23108000D02*
X11844000Y24632000D01*
D14*
X10701000Y23108000D02*
X9939000Y23108000D01*
D11*
%TO.C,C11*%
X18448000Y25330500D02*
X16924000Y25330500D01*
D14*
X16924000Y24187500D02*
X16924000Y23425500D01*
D11*
X16924000Y22282500D02*
X18448000Y22282500D01*
D14*
X18448000Y24187500D02*
X18448000Y23425500D01*
D11*
%TO.C,C12*%
X38514000Y26410000D02*
X36990000Y26410000D01*
D14*
X36990000Y24505000D02*
X36990000Y25267000D01*
X38514000Y24505000D02*
X38514000Y25267000D01*
D11*
X36990000Y23362000D02*
X38514000Y23362000D01*
D14*
%TO.C,C13*%
X34704000Y32633000D02*
X34704000Y33395000D01*
X36228000Y32633000D02*
X36228000Y33395000D01*
D11*
X34704000Y31490000D02*
X36228000Y31490000D01*
X36228000Y34538000D02*
X34704000Y34538000D01*
D14*
%TO.C,C14*%
X43467000Y17266000D02*
X43467000Y16504000D01*
D11*
X43467000Y18409000D02*
X41943000Y18409000D01*
X41943000Y15361000D02*
X43467000Y15361000D01*
D14*
X41943000Y17266000D02*
X41943000Y16504000D01*
%TO.C,C15*%
X19464000Y26981500D02*
X19464000Y27743500D01*
D11*
X20988000Y28886500D02*
X19464000Y28886500D01*
X19464000Y25838500D02*
X20988000Y25838500D01*
D14*
X20988000Y26981500D02*
X20988000Y27743500D01*
D11*
%TO.C,C16*%
X22004000Y25965500D02*
X23528000Y25965500D01*
X23528000Y29013500D02*
X22004000Y29013500D01*
D14*
X23528000Y27870500D02*
X23528000Y27108500D01*
X22004000Y27870500D02*
X22004000Y27108500D01*
D11*
%TO.C,C17*%
X26576000Y26791000D02*
X28100000Y26791000D01*
X28100000Y29839000D02*
X26576000Y29839000D01*
D14*
X28100000Y27934000D02*
X28100000Y28696000D01*
X26576000Y27934000D02*
X26576000Y28696000D01*
D11*
%TO.C,C18*%
X26322000Y22282500D02*
X27846000Y22282500D01*
D14*
X26322000Y23425500D02*
X26322000Y24187500D01*
X27846000Y23425500D02*
X27846000Y24187500D01*
D11*
X27846000Y25330500D02*
X26322000Y25330500D01*
D14*
%TO.C,C19*%
X38514000Y28315000D02*
X38514000Y29077000D01*
X36990000Y28315000D02*
X36990000Y29077000D01*
D11*
X36990000Y27172000D02*
X38514000Y27172000D01*
X38514000Y30220000D02*
X36990000Y30220000D01*
%TO.C,R3*%
X36482000Y22219000D02*
X34958000Y22219000D01*
D14*
X36482000Y21076000D02*
X36482000Y20314000D01*
X34958000Y21076000D02*
X34958000Y20314000D01*
D11*
X34958000Y19171000D02*
X36482000Y19171000D01*
D14*
%TO.C,R4*%
X31656000Y32633000D02*
X31656000Y33395000D01*
D11*
X31656000Y34538000D02*
X30132000Y34538000D01*
X30132000Y31490000D02*
X31656000Y31490000D01*
D14*
X30132000Y32633000D02*
X30132000Y33395000D01*
%TO.C,R5*%
X37371000Y18282000D02*
X36609000Y18282000D01*
D11*
X38514000Y16758000D02*
X38514000Y18282000D01*
D14*
X37371000Y16758000D02*
X36609000Y16758000D01*
D11*
X35466000Y18282000D02*
X35466000Y16758000D01*
D14*
%TO.C,R6*%
X7208500Y20568000D02*
X6446500Y20568000D01*
D11*
X8351500Y20568000D02*
X8351500Y22092000D01*
D14*
X7208500Y22092000D02*
X6446500Y22092000D01*
D11*
X5303500Y22092000D02*
X5303500Y20568000D01*
%TO.C,R7*%
X14638000Y29331000D02*
X16162000Y29331000D01*
D14*
X14638000Y31236000D02*
X14638000Y30474000D01*
D11*
X16162000Y32379000D02*
X14638000Y32379000D01*
D14*
X16162000Y31236000D02*
X16162000Y30474000D01*
D11*
%TO.C,R8*%
X17178000Y29394500D02*
X18702000Y29394500D01*
D14*
X17178000Y30537500D02*
X17178000Y31299500D01*
X18702000Y30537500D02*
X18702000Y31299500D01*
D11*
X18702000Y32442500D02*
X17178000Y32442500D01*
D14*
%TO.C,R9*%
X17178000Y26981500D02*
X17178000Y27743500D01*
D11*
X18702000Y28886500D02*
X17178000Y28886500D01*
D14*
X18702000Y26981500D02*
X18702000Y27743500D01*
D11*
X17178000Y25838500D02*
X18702000Y25838500D01*
%TO.C,R10*%
X24036000Y25965500D02*
X25560000Y25965500D01*
D14*
X24036000Y27108500D02*
X24036000Y27870500D01*
D11*
X25560000Y29013500D02*
X24036000Y29013500D01*
D14*
X25560000Y27108500D02*
X25560000Y27870500D01*
D11*
%TO.C,R11*%
X25560000Y25330500D02*
X24036000Y25330500D01*
D14*
X24036000Y23425500D02*
X24036000Y24187500D01*
D11*
X24036000Y22282500D02*
X25560000Y22282500D01*
D14*
X25560000Y23425500D02*
X25560000Y24187500D01*
D11*
%TO.C,R12*%
X43467000Y26029000D02*
X41943000Y26029000D01*
D14*
X41943000Y24124000D02*
X41943000Y24886000D01*
D11*
X41943000Y22981000D02*
X43467000Y22981000D01*
D14*
X43467000Y24124000D02*
X43467000Y24886000D01*
%TO.C,R13*%
X40165000Y27172000D02*
X40927000Y27172000D01*
D11*
X39022000Y28696000D02*
X39022000Y27172000D01*
D14*
X40165000Y28696000D02*
X40927000Y28696000D01*
D11*
X42070000Y27172000D02*
X42070000Y28696000D01*
%TO.C,U1*%
X8245000Y25105000D02*
X8245000Y25250000D01*
X8245000Y25250000D02*
X6845000Y25250000D01*
X12395000Y25105000D02*
X12395000Y25250000D01*
X8245000Y30255000D02*
X8245000Y30110000D01*
X8245000Y25105000D02*
X12395000Y25105000D01*
X8245000Y30255000D02*
X12395000Y30255000D01*
D14*
%TO.C,U4*%
X40378000Y34422000D02*
X40378000Y31972000D01*
X37158000Y32622000D02*
X37158000Y34422000D01*
%TO.C,U5*%
X42335000Y19085000D02*
X39885000Y19085000D01*
X40535000Y22305000D02*
X42335000Y22305000D01*
D11*
%TO.C,R2*%
X14638000Y23298500D02*
X16162000Y23298500D01*
D14*
X14638000Y25203500D02*
X14638000Y24441500D01*
X16162000Y25203500D02*
X16162000Y24441500D01*
D11*
X16162000Y26346500D02*
X14638000Y26346500D01*
%TO.C,U2*%
X30597000Y28223000D02*
X34747000Y28223000D01*
X34747000Y23073000D02*
X34747000Y23218000D01*
X30597000Y23073000D02*
X34747000Y23073000D01*
X30597000Y23218000D02*
X29197000Y23218000D01*
X30597000Y28223000D02*
X30597000Y28078000D01*
X30597000Y23073000D02*
X30597000Y23218000D01*
D14*
%TO.C,R1*%
X41562000Y34157000D02*
X41562000Y34919000D01*
D11*
X41562000Y33014000D02*
X43086000Y33014000D01*
X43086000Y36062000D02*
X41562000Y36062000D01*
D14*
X43086000Y34157000D02*
X43086000Y34919000D01*
D11*
%TO.C,C2*%
X21082000Y36068000D02*
X19558000Y36068000D01*
X19558000Y33020000D02*
X21082000Y33020000D01*
D14*
X21082000Y34925000D02*
X21082000Y34163000D01*
X19558000Y34925000D02*
X19558000Y34163000D01*
%TO.C,U3*%
X16176000Y21132000D02*
X16176000Y20202000D01*
X16176000Y17972000D02*
X14016000Y17972000D01*
X16176000Y21132000D02*
X14716000Y21132000D01*
X16176000Y17972000D02*
X16176000Y18902000D01*
%TO.C,D1*%
X80607000Y13573000D02*
X84907000Y13573000D01*
X84907000Y11573000D02*
X80607000Y11573000D01*
X80607000Y11573000D02*
X80607000Y13573000D01*
D11*
%TO.C,C55*%
X71247000Y17526000D02*
X72771000Y17526000D01*
X72771000Y20574000D02*
X71247000Y20574000D01*
D14*
X71247000Y18669000D02*
X71247000Y19431000D01*
X72771000Y18669000D02*
X72771000Y19431000D01*
D11*
%TO.C,R25*%
X66103500Y19812000D02*
X66103500Y18288000D01*
D14*
X67246500Y18288000D02*
X68008500Y18288000D01*
X67246500Y19812000D02*
X68008500Y19812000D01*
D11*
X69151500Y18288000D02*
X69151500Y19812000D01*
%TO.C,R27*%
X66103500Y21844000D02*
X66103500Y20320000D01*
D14*
X67246500Y21844000D02*
X68008500Y21844000D01*
D11*
X69151500Y20320000D02*
X69151500Y21844000D01*
D14*
X67246500Y20320000D02*
X68008500Y20320000D01*
D11*
%TO.C,R28*%
X72263000Y15494000D02*
X72263000Y17018000D01*
D14*
X70358000Y17018000D02*
X71120000Y17018000D01*
X70358000Y15494000D02*
X71120000Y15494000D01*
D11*
X69215000Y17018000D02*
X69215000Y15494000D01*
%TO.C,C21*%
X25146000Y36068000D02*
X23622000Y36068000D01*
D14*
X25146000Y34925000D02*
X25146000Y34163000D01*
X23622000Y34925000D02*
X23622000Y34163000D01*
D11*
X23622000Y33020000D02*
X25146000Y33020000D01*
D14*
%TO.C,C22*%
X79629000Y13462000D02*
X79629000Y12700000D01*
X78105000Y13462000D02*
X78105000Y12700000D01*
D11*
X78105000Y11557000D02*
X79629000Y11557000D01*
X79629000Y14605000D02*
X78105000Y14605000D01*
D14*
%TO.C,C36*%
X84899500Y16891000D02*
X85661500Y16891000D01*
D11*
X86804500Y16891000D02*
X86804500Y18415000D01*
D14*
X84899500Y18415000D02*
X85661500Y18415000D01*
D11*
X83756500Y18415000D02*
X83756500Y16891000D01*
D14*
%TO.C,F1*%
X79629000Y16065500D02*
X79629000Y16827500D01*
D11*
X79629000Y17970500D02*
X78105000Y17970500D01*
D14*
X78105000Y16065500D02*
X78105000Y16827500D01*
D11*
X78105000Y14922500D02*
X79629000Y14922500D01*
D14*
%TO.C,F2*%
X84899500Y19177000D02*
X85661500Y19177000D01*
D11*
X86804500Y19177000D02*
X86804500Y20701000D01*
X83756500Y20701000D02*
X83756500Y19177000D01*
D14*
X84899500Y20701000D02*
X85661500Y20701000D01*
%TO.C,D3*%
X82385000Y14113000D02*
X82385000Y16113000D01*
X82385000Y16113000D02*
X86685000Y16113000D01*
X86685000Y14113000D02*
X82385000Y14113000D01*
%TO.C,L2*%
X67181252Y15546000D02*
X66658748Y15546000D01*
X67181252Y16966000D02*
X66658748Y16966000D01*
%TO.C,L3*%
X61983252Y20776000D02*
X61460748Y20776000D01*
X61983252Y19356000D02*
X61460748Y19356000D01*
%TO.C,U6*%
X66983000Y11537000D02*
X65183000Y11537000D01*
X65183000Y14757000D02*
X67633000Y14757000D01*
%TO.C,C50*%
X55753000Y18478500D02*
X55753000Y19240500D01*
X54229000Y18478500D02*
X54229000Y19240500D01*
D11*
X55753000Y20383500D02*
X54229000Y20383500D01*
X54229000Y17335500D02*
X55753000Y17335500D01*
D14*
%TO.C,C49*%
X61595000Y12954000D02*
X61595000Y13716000D01*
X63119000Y12954000D02*
X63119000Y13716000D01*
D11*
X61595000Y11811000D02*
X63119000Y11811000D01*
X63119000Y14859000D02*
X61595000Y14859000D01*
%TO.C,C42*%
X57912000Y20383500D02*
X56388000Y20383500D01*
X56388000Y17335500D02*
X57912000Y17335500D01*
D14*
X56388000Y18478500D02*
X56388000Y19240500D01*
X57912000Y18478500D02*
X57912000Y19240500D01*
D11*
%TO.C,C52*%
X52705000Y20955000D02*
X51181000Y20955000D01*
X51181000Y16891000D02*
X52705000Y16891000D01*
X51181000Y20955000D02*
X51181000Y16891000D01*
X52705000Y16891000D02*
X52578000Y16891000D01*
X52705000Y16891000D02*
X52705000Y20955000D01*
%TO.C,C38*%
X59309000Y11874500D02*
X60833000Y11874500D01*
D14*
X60833000Y13017500D02*
X60833000Y13779500D01*
X59309000Y13017500D02*
X59309000Y13779500D01*
D11*
X60833000Y14922500D02*
X59309000Y14922500D01*
%TO.C,C51*%
X56261000Y12192000D02*
X57785000Y12192000D01*
X56261000Y16256000D02*
X56261000Y12192000D01*
X57785000Y12192000D02*
X57658000Y12192000D01*
X57785000Y12192000D02*
X57785000Y16256000D01*
X57785000Y16256000D02*
X56261000Y16256000D01*
%TO.C,C25*%
X64516000Y18669000D02*
X62992000Y18669000D01*
D14*
X62992000Y17526000D02*
X62992000Y16764000D01*
X64516000Y17526000D02*
X64516000Y16764000D01*
D11*
X62992000Y15621000D02*
X64516000Y15621000D01*
%TO.C,C44*%
X72644000Y30988000D02*
X71120000Y30988000D01*
D14*
X72644000Y29083000D02*
X72644000Y29845000D01*
X71120000Y29083000D02*
X71120000Y29845000D01*
D11*
X71120000Y27940000D02*
X72644000Y27940000D01*
D14*
%TO.C,C40*%
X73406000Y29083000D02*
X73406000Y29845000D01*
D11*
X73406000Y27940000D02*
X74930000Y27940000D01*
D14*
X74930000Y29083000D02*
X74930000Y29845000D01*
D11*
X74930000Y30988000D02*
X73406000Y30988000D01*
%TO.C,R24*%
X80010000Y24130000D02*
X80010000Y22606000D01*
X83058000Y22606000D02*
X83058000Y24130000D01*
D14*
X81153000Y24130000D02*
X81915000Y24130000D01*
X81153000Y22606000D02*
X81915000Y22606000D01*
D11*
%TO.C,C31*%
X71628000Y31305500D02*
X73152000Y31305500D01*
D14*
X73152000Y33210500D02*
X73152000Y32448500D01*
X71628000Y33210500D02*
X71628000Y32448500D01*
D11*
X73152000Y34353500D02*
X71628000Y34353500D01*
D14*
%TO.C,C27*%
X80772000Y28575000D02*
X81534000Y28575000D01*
X80772000Y27051000D02*
X81534000Y27051000D01*
D11*
X82677000Y27051000D02*
X82677000Y28575000D01*
X79629000Y28575000D02*
X79629000Y27051000D01*
D14*
%TO.C,C53*%
X54610000Y14986000D02*
X54610000Y14224000D01*
D11*
X53086000Y13081000D02*
X54610000Y13081000D01*
X54610000Y16129000D02*
X53086000Y16129000D01*
D14*
X53086000Y14986000D02*
X53086000Y14224000D01*
%TO.C,U8*%
X61479000Y15662000D02*
X59679000Y15662000D01*
X59679000Y18882000D02*
X62129000Y18882000D01*
D11*
%TO.C,U10*%
X68425000Y25465000D02*
X67750000Y25465000D01*
X68425000Y35815000D02*
X67750000Y35815000D01*
X58075000Y25465000D02*
X58750000Y25465000D01*
X58075000Y26040000D02*
X56800000Y26040000D01*
X58075000Y35815000D02*
X58075000Y35140000D01*
X68425000Y25465000D02*
X68425000Y26140000D01*
X58075000Y25465000D02*
X58075000Y26040000D01*
X68425000Y35815000D02*
X68425000Y35140000D01*
X58075000Y35815000D02*
X58750000Y35815000D01*
D14*
%TO.C,R20*%
X76771500Y27559000D02*
X77533500Y27559000D01*
X76771500Y29083000D02*
X77533500Y29083000D01*
D11*
X75628500Y29083000D02*
X75628500Y27559000D01*
X78676500Y27559000D02*
X78676500Y29083000D01*
%TO.C,C29*%
X77343000Y15621000D02*
X77343000Y17145000D01*
X77343000Y17145000D02*
X77343000Y17018000D01*
X73279000Y15621000D02*
X77343000Y15621000D01*
X77343000Y17145000D02*
X73279000Y17145000D01*
X73279000Y17145000D02*
X73279000Y15621000D01*
%TO.C,J22*%
X48895000Y29972000D02*
X48895000Y22352000D01*
X48895000Y22352000D02*
X53975000Y22352000D01*
X53975000Y22352000D02*
X53975000Y29972000D01*
X53975000Y29972000D02*
X48895000Y29972000D01*
D14*
%TO.C,R23*%
X50228500Y30226000D02*
X50990500Y30226000D01*
D11*
X52133500Y30226000D02*
X52133500Y31750000D01*
D14*
X50228500Y31750000D02*
X50990500Y31750000D01*
D11*
X49085500Y31750000D02*
X49085500Y30226000D01*
%TO.C,C26*%
X78359000Y26416000D02*
X78359000Y24892000D01*
X81407000Y24892000D02*
X81407000Y26416000D01*
D14*
X79502000Y24892000D02*
X80264000Y24892000D01*
X79502000Y26416000D02*
X80264000Y26416000D01*
D11*
%TO.C,C28*%
X82677000Y29083000D02*
X82677000Y30607000D01*
X79629000Y30607000D02*
X79629000Y29083000D01*
D14*
X80772000Y29083000D02*
X81534000Y29083000D01*
X80772000Y30607000D02*
X81534000Y30607000D01*
D11*
%TO.C,C30*%
X52324000Y36195000D02*
X52324000Y37719000D01*
D14*
X50419000Y37719000D02*
X51181000Y37719000D01*
X50419000Y36195000D02*
X51181000Y36195000D01*
D11*
X49276000Y37719000D02*
X49276000Y36195000D01*
%TO.C,C33*%
X52959000Y37719000D02*
X52959000Y36195000D01*
D14*
X54864000Y36195000D02*
X54102000Y36195000D01*
X54864000Y37719000D02*
X54102000Y37719000D01*
D11*
X56007000Y36195000D02*
X56007000Y37719000D01*
%TO.C,C34*%
X52451000Y30289500D02*
X53975000Y30289500D01*
D14*
X53975000Y31432500D02*
X53975000Y32194500D01*
D11*
X53975000Y33337500D02*
X52451000Y33337500D01*
D14*
X52451000Y31432500D02*
X52451000Y32194500D01*
%TO.C,C35*%
X63881000Y21463000D02*
X63119000Y21463000D01*
D11*
X65024000Y21463000D02*
X65024000Y22987000D01*
X61976000Y22987000D02*
X61976000Y21463000D01*
D14*
X63881000Y22987000D02*
X63119000Y22987000D01*
D11*
%TO.C,C39*%
X62611000Y39243000D02*
X62611000Y37719000D01*
D14*
X63754000Y37719000D02*
X64516000Y37719000D01*
X63754000Y39243000D02*
X64516000Y39243000D01*
D11*
X65659000Y37719000D02*
X65659000Y39243000D01*
D14*
%TO.C,C43*%
X80772000Y32766000D02*
X81534000Y32766000D01*
D11*
X79629000Y32766000D02*
X79629000Y31242000D01*
D14*
X80772000Y31242000D02*
X81534000Y31242000D01*
D11*
X82677000Y31242000D02*
X82677000Y32766000D01*
%TO.C,C47*%
X77724000Y24003000D02*
X76200000Y24003000D01*
D14*
X76200000Y22860000D02*
X76200000Y22098000D01*
D11*
X76200000Y20955000D02*
X77724000Y20955000D01*
D14*
X77724000Y22860000D02*
X77724000Y22098000D01*
D11*
%TO.C,L1*%
X73787000Y31496000D02*
X73787000Y34290000D01*
X76835000Y34290000D02*
X78359000Y34290000D01*
X75311000Y31496000D02*
X73787000Y31496000D01*
X78359000Y31496000D02*
X76835000Y31496000D01*
X76835000Y34290000D02*
X78359000Y34290000D01*
X78359000Y34290000D02*
X78359000Y31496000D01*
X73787000Y34290000D02*
X75311000Y34290000D01*
X78665605Y31369000D02*
G75*
G03*
X78665605Y31369000I-179605J0D01*
G01*
%TO.C,R21*%
X74676000Y26670000D02*
X74676000Y25146000D01*
D14*
X75819000Y25146000D02*
X76581000Y25146000D01*
D11*
X77724000Y25146000D02*
X77724000Y26670000D01*
D14*
X75819000Y26670000D02*
X76581000Y26670000D01*
D11*
%TO.C,U11*%
X70765000Y22251000D02*
X71040000Y22251000D01*
X74015000Y22251000D02*
X74015000Y25501000D01*
X70765000Y25501000D02*
X71040000Y25501000D01*
X74015000Y25501000D02*
X73740000Y25501000D01*
X73840000Y22251000D02*
X73840000Y21176000D01*
X70765000Y22251000D02*
X70765000Y25501000D01*
X74015000Y22251000D02*
X73840000Y22251000D01*
X73640000Y22876000D02*
G75*
G03*
X73640000Y22876000I-250000J0D01*
G01*
%TO.C,C23*%
X21590000Y33020000D02*
X23114000Y33020000D01*
X23114000Y36068000D02*
X21590000Y36068000D01*
D14*
X21590000Y34925000D02*
X21590000Y34163000D01*
X23114000Y34925000D02*
X23114000Y34163000D01*
D11*
%TO.C,C24*%
X17272000Y33083500D02*
X18796000Y33083500D01*
X18796000Y36131500D02*
X17272000Y36131500D01*
D14*
X18796000Y34988500D02*
X18796000Y34226500D01*
X17272000Y34988500D02*
X17272000Y34226500D01*
%TO.C,C32*%
X68707000Y13525500D02*
X68707000Y12763500D01*
X70231000Y13525500D02*
X70231000Y12763500D01*
D11*
X70231000Y14668500D02*
X68707000Y14668500D01*
X68707000Y11620500D02*
X70231000Y11620500D01*
%TO.C,C45*%
X73279000Y13589000D02*
X73279000Y12065000D01*
X77343000Y12065000D02*
X77343000Y13589000D01*
X77343000Y13589000D02*
X73279000Y13589000D01*
X73279000Y12065000D02*
X77343000Y12065000D01*
X77343000Y13589000D02*
X77343000Y13462000D01*
%TO.C,C48*%
X71120000Y11684000D02*
X72644000Y11684000D01*
D14*
X71120000Y13589000D02*
X71120000Y12827000D01*
X72644000Y13589000D02*
X72644000Y12827000D01*
D11*
X72644000Y14732000D02*
X71120000Y14732000D01*
%TO.C,C54*%
X48133000Y17272000D02*
X49657000Y17272000D01*
X49657000Y20320000D02*
X48133000Y20320000D01*
D14*
X49657000Y19177000D02*
X49657000Y18415000D01*
X48133000Y19177000D02*
X48133000Y18415000D01*
%TO.C,R15*%
X26606500Y37338000D02*
X27368500Y37338000D01*
D11*
X25463500Y38862000D02*
X25463500Y37338000D01*
D14*
X26606500Y38862000D02*
X27368500Y38862000D01*
D11*
X28511500Y37338000D02*
X28511500Y38862000D01*
D14*
%TO.C,R19*%
X22796500Y37338000D02*
X23558500Y37338000D01*
D11*
X21653500Y38862000D02*
X21653500Y37338000D01*
D14*
X22796500Y38862000D02*
X23558500Y38862000D01*
D11*
X24701500Y37338000D02*
X24701500Y38862000D01*
%TO.C,R22*%
X17843500Y38862000D02*
X17843500Y37338000D01*
D14*
X18986500Y37338000D02*
X19748500Y37338000D01*
X18986500Y38862000D02*
X19748500Y38862000D01*
D11*
X20891500Y37338000D02*
X20891500Y38862000D01*
%TD*%
M02*
