%TF.GenerationSoftware,KiCad,Pcbnew,6.0.4-6f826c9f35~116~ubuntu20.04.1*%
%TF.CreationDate,2022-05-20T11:28:00+00:00*%
%TF.ProjectId,USTSIPIN02A,55535453-4950-4494-9e30-32412e6b6963,REV*%
%TF.SameCoordinates,Original*%
%TF.FileFunction,Soldermask,Bot*%
%TF.FilePolarity,Negative*%
%FSLAX46Y46*%
G04 Gerber Fmt 4.6, Leading zero omitted, Abs format (unit mm)*
G04 Created by KiCad (PCBNEW 6.0.4-6f826c9f35~116~ubuntu20.04.1) date 2022-05-20 11:28:00*
%MOMM*%
%LPD*%
G01*
G04 APERTURE LIST*
G04 Aperture macros list*
%AMRoundRect*
0 Rectangle with rounded corners*
0 $1 Rounding radius*
0 $2 $3 $4 $5 $6 $7 $8 $9 X,Y pos of 4 corners*
0 Add a 4 corners polygon primitive as box body*
4,1,4,$2,$3,$4,$5,$6,$7,$8,$9,$2,$3,0*
0 Add four circle primitives for the rounded corners*
1,1,$1+$1,$2,$3*
1,1,$1+$1,$4,$5*
1,1,$1+$1,$6,$7*
1,1,$1+$1,$8,$9*
0 Add four rect primitives between the rounded corners*
20,1,$1+$1,$2,$3,$4,$5,0*
20,1,$1+$1,$4,$5,$6,$7,0*
20,1,$1+$1,$6,$7,$8,$9,0*
20,1,$1+$1,$8,$9,$2,$3,0*%
%AMFreePoly0*
4,1,41,0.586777,0.930194,0.656366,0.874698,0.694986,0.794504,0.700000,0.750000,0.700000,-0.750000,0.680194,-0.836777,0.624698,-0.906366,0.544504,-0.944986,0.500000,-0.950000,0.000000,-0.950000,-0.023504,-0.944635,-0.083606,-0.943534,-0.139582,-0.934468,-0.274897,-0.892193,-0.326080,-0.867780,-0.444090,-0.789225,-0.486362,-0.751429,-0.577582,-0.642910,-0.607548,-0.594768,-0.664643,-0.465009,
-0.679893,-0.410393,-0.697476,-0.275933,-0.697084,-0.275882,-0.700000,-0.250000,-0.700000,0.250000,-0.697921,0.259109,-0.697582,0.286880,-0.675771,0.426957,-0.659192,0.481183,-0.598944,0.609508,-0.567811,0.656904,-0.473967,0.763162,-0.430783,0.799915,-0.310888,0.875563,-0.259125,0.898717,-0.122818,0.937674,-0.066635,0.945370,-0.042411,0.945222,0.000000,0.950000,0.500000,0.950000,
0.586777,0.930194,0.586777,0.930194,$1*%
%AMFreePoly1*
4,1,41,0.022678,0.944824,0.075125,0.944504,0.131210,0.936123,0.267031,0.895504,0.318507,0.871718,0.437469,0.794611,0.480202,0.757333,0.572740,0.649936,0.603290,0.602165,0.661967,0.473113,0.677883,0.418686,0.697980,0.278353,0.700000,0.250000,0.700000,-0.250000,0.699985,-0.252439,0.699836,-0.264655,0.697079,-0.295398,0.673559,-0.435199,0.656318,-0.489221,0.594506,-0.616800,
0.562797,-0.663810,0.467662,-0.768914,0.424032,-0.805137,0.303222,-0.879314,0.251181,-0.901834,0.114408,-0.939123,0.058135,-0.946132,0.037663,-0.945757,0.000000,-0.950000,-0.500000,-0.950000,-0.586777,-0.930194,-0.656366,-0.874698,-0.694986,-0.794504,-0.700000,-0.750000,-0.700000,0.750000,-0.680194,0.836777,-0.624698,0.906366,-0.544504,0.944986,-0.500000,0.950000,0.000000,0.950000,
0.022678,0.944824,0.022678,0.944824,$1*%
G04 Aperture macros list end*
%ADD10C,6.400000*%
%ADD11C,1.924000*%
%ADD12C,1.900000*%
%ADD13RoundRect,0.200000X-0.762000X-0.762000X0.762000X-0.762000X0.762000X0.762000X-0.762000X0.762000X0*%
%ADD14RoundRect,0.425000X-0.250000X0.225000X-0.250000X-0.225000X0.250000X-0.225000X0.250000X0.225000X0*%
%ADD15RoundRect,0.425000X-0.225000X-0.250000X0.225000X-0.250000X0.225000X0.250000X-0.225000X0.250000X0*%
%ADD16RoundRect,0.425000X0.250000X-0.225000X0.250000X0.225000X-0.250000X0.225000X-0.250000X-0.225000X0*%
%ADD17RoundRect,0.450000X0.250000X0.475000X-0.250000X0.475000X-0.250000X-0.475000X0.250000X-0.475000X0*%
%ADD18RoundRect,0.425000X0.225000X0.250000X-0.225000X0.250000X-0.225000X-0.250000X0.225000X-0.250000X0*%
%ADD19RoundRect,0.450000X0.475000X-0.250000X0.475000X0.250000X-0.475000X0.250000X-0.475000X-0.250000X0*%
%ADD20RoundRect,0.400000X-0.275000X0.200000X-0.275000X-0.200000X0.275000X-0.200000X0.275000X0.200000X0*%
%ADD21RoundRect,0.400000X0.200000X0.275000X-0.200000X0.275000X-0.200000X-0.275000X0.200000X-0.275000X0*%
%ADD22RoundRect,0.400000X0.275000X-0.200000X0.275000X0.200000X-0.275000X0.200000X-0.275000X-0.200000X0*%
%ADD23RoundRect,0.350000X-0.825000X-0.150000X0.825000X-0.150000X0.825000X0.150000X-0.825000X0.150000X0*%
%ADD24RoundRect,0.200000X-0.325000X0.780000X-0.325000X-0.780000X0.325000X-0.780000X0.325000X0.780000X0*%
%ADD25RoundRect,0.350000X0.150000X-0.587500X0.150000X0.587500X-0.150000X0.587500X-0.150000X-0.587500X0*%
%ADD26RoundRect,0.443750X0.456250X-0.243750X0.456250X0.243750X-0.456250X0.243750X-0.456250X-0.243750X0*%
%ADD27RoundRect,0.450000X0.325000X0.450000X-0.325000X0.450000X-0.325000X-0.450000X0.325000X-0.450000X0*%
%ADD28RoundRect,0.200000X0.750000X-0.650000X0.750000X0.650000X-0.750000X0.650000X-0.750000X-0.650000X0*%
%ADD29RoundRect,0.200000X1.500000X-0.350000X1.500000X0.350000X-1.500000X0.350000X-1.500000X-0.350000X0*%
%ADD30RoundRect,0.350000X0.512500X0.150000X-0.512500X0.150000X-0.512500X-0.150000X0.512500X-0.150000X0*%
%ADD31RoundRect,0.200000X-0.750000X-0.275000X0.750000X-0.275000X0.750000X0.275000X-0.750000X0.275000X0*%
%ADD32RoundRect,0.200000X-0.275000X0.750000X-0.275000X-0.750000X0.275000X-0.750000X0.275000X0.750000X0*%
%ADD33RoundRect,0.400000X-0.200000X-0.275000X0.200000X-0.275000X0.200000X0.275000X-0.200000X0.275000X0*%
%ADD34RoundRect,0.200000X0.650000X0.750000X-0.650000X0.750000X-0.650000X-0.750000X0.650000X-0.750000X0*%
%ADD35RoundRect,0.200000X0.350000X1.500000X-0.350000X1.500000X-0.350000X-1.500000X0.350000X-1.500000X0*%
%ADD36RoundRect,0.450001X0.462499X1.074999X-0.462499X1.074999X-0.462499X-1.074999X0.462499X-1.074999X0*%
%ADD37RoundRect,0.200000X0.125000X-0.550000X0.125000X0.550000X-0.125000X0.550000X-0.125000X-0.550000X0*%
%ADD38RoundRect,0.200000X0.500000X0.900000X-0.500000X0.900000X-0.500000X-0.900000X0.500000X-0.900000X0*%
%ADD39RoundRect,0.200000X-1.900000X-0.500000X1.900000X-0.500000X1.900000X0.500000X-1.900000X0.500000X0*%
%ADD40RoundRect,0.200000X-0.500000X-1.900000X0.500000X-1.900000X0.500000X1.900000X-0.500000X1.900000X0*%
%ADD41RoundRect,0.200000X-0.500000X-0.500000X0.500000X-0.500000X0.500000X0.500000X-0.500000X0.500000X0*%
%ADD42RoundRect,0.200000X-0.500000X-1.150000X0.500000X-1.150000X0.500000X1.150000X-0.500000X1.150000X0*%
%ADD43RoundRect,0.200000X-1.150000X-0.500000X1.150000X-0.500000X1.150000X0.500000X-1.150000X0.500000X0*%
%ADD44RoundRect,0.350000X-0.700000X0.150000X-0.700000X-0.150000X0.700000X-0.150000X0.700000X0.150000X0*%
%ADD45RoundRect,0.450000X-1.100000X0.250000X-1.100000X-0.250000X1.100000X-0.250000X1.100000X0.250000X0*%
%ADD46RoundRect,0.350000X-0.587500X-0.150000X0.587500X-0.150000X0.587500X0.150000X-0.587500X0.150000X0*%
%ADD47RoundRect,0.200000X0.300000X0.350000X-0.300000X0.350000X-0.300000X-0.350000X0.300000X-0.350000X0*%
%ADD48RoundRect,0.350000X-0.150000X0.587500X-0.150000X-0.587500X0.150000X-0.587500X0.150000X0.587500X0*%
%ADD49C,1.050000*%
%ADD50RoundRect,0.200000X-0.575000X0.300000X-0.575000X-0.300000X0.575000X-0.300000X0.575000X0.300000X0*%
%ADD51RoundRect,0.200000X-0.575000X0.150000X-0.575000X-0.150000X0.575000X-0.150000X0.575000X0.150000X0*%
%ADD52O,2.400000X1.400000*%
%ADD53O,2.500000X1.450000*%
%ADD54FreePoly0,0.000000*%
%ADD55FreePoly1,0.000000*%
%ADD56RoundRect,0.262500X0.350000X0.062500X-0.350000X0.062500X-0.350000X-0.062500X0.350000X-0.062500X0*%
%ADD57RoundRect,0.262500X0.062500X0.350000X-0.062500X0.350000X-0.062500X-0.350000X0.062500X-0.350000X0*%
%ADD58RoundRect,0.200000X1.250000X1.250000X-1.250000X1.250000X-1.250000X-1.250000X1.250000X-1.250000X0*%
%ADD59RoundRect,0.200000X0.350000X-0.300000X0.350000X0.300000X-0.350000X0.300000X-0.350000X-0.300000X0*%
%ADD60RoundRect,0.200000X-0.350000X0.300000X-0.350000X-0.300000X0.350000X-0.300000X0.350000X0.300000X0*%
%ADD61RoundRect,0.350000X0.825000X0.150000X-0.825000X0.150000X-0.825000X-0.150000X0.825000X-0.150000X0*%
G04 APERTURE END LIST*
D10*
%TO.C,M2*%
X76200000Y45720000D03*
%TD*%
%TO.C,M3*%
X5080000Y45720000D03*
%TD*%
%TO.C,M4*%
X5080000Y5080000D03*
%TD*%
D11*
%TO.C,D2*%
X15360000Y34190000D03*
X10360000Y34190000D03*
%TD*%
D10*
%TO.C,M1*%
X76200000Y5080000D03*
%TD*%
D12*
%TO.C,Y1*%
X43434000Y31242000D03*
X43434000Y36122000D03*
%TD*%
D13*
%TO.C,J6*%
X59182000Y45720000D03*
%TD*%
%TO.C,J5*%
X61722000Y45720000D03*
%TD*%
D14*
%TO.C,C20*%
X9144000Y17742200D03*
X9144000Y16192200D03*
%TD*%
D15*
%TO.C,C1*%
X16649400Y18338800D03*
X18199400Y18338800D03*
%TD*%
D16*
%TO.C,C3*%
X5240000Y29127500D03*
X5240000Y30677500D03*
%TD*%
D15*
%TO.C,C4*%
X16649400Y20218400D03*
X18199400Y20218400D03*
%TD*%
D17*
%TO.C,C5*%
X7777500Y23870000D03*
X5877500Y23870000D03*
%TD*%
D14*
%TO.C,C6*%
X14681200Y24092200D03*
X14681200Y22542200D03*
%TD*%
D18*
%TO.C,C7*%
X31712200Y19812000D03*
X30162200Y19812000D03*
%TD*%
%TO.C,C8*%
X26225800Y14376400D03*
X24675800Y14376400D03*
%TD*%
D15*
%TO.C,C9*%
X20510200Y14122400D03*
X22060200Y14122400D03*
%TD*%
D18*
%TO.C,C10*%
X11095000Y23870000D03*
X9545000Y23870000D03*
%TD*%
D14*
%TO.C,C11*%
X16510000Y24092200D03*
X16510000Y22542200D03*
%TD*%
D18*
%TO.C,C12*%
X31712200Y21793200D03*
X30162200Y21793200D03*
%TD*%
%TO.C,C13*%
X26225800Y16154400D03*
X24675800Y16154400D03*
%TD*%
D15*
%TO.C,C14*%
X20510200Y15900400D03*
X22060200Y15900400D03*
%TD*%
D16*
%TO.C,C15*%
X16764000Y26911000D03*
X16764000Y28461000D03*
%TD*%
D14*
%TO.C,C16*%
X18542000Y28461000D03*
X18542000Y26911000D03*
%TD*%
D18*
%TO.C,C17*%
X23736600Y28295600D03*
X22186600Y28295600D03*
%TD*%
D16*
%TO.C,C18*%
X23774400Y24764400D03*
X23774400Y26314400D03*
%TD*%
D19*
%TO.C,C19*%
X31191200Y30444400D03*
X31191200Y32344400D03*
%TD*%
D20*
%TO.C,R3*%
X31597600Y17893800D03*
X31597600Y16243800D03*
%TD*%
D21*
%TO.C,R4*%
X26275800Y12547600D03*
X24625800Y12547600D03*
%TD*%
%TO.C,R5*%
X18249400Y14579600D03*
X16599400Y14579600D03*
%TD*%
%TO.C,R6*%
X7652500Y21330000D03*
X6002500Y21330000D03*
%TD*%
D20*
%TO.C,R7*%
X15400000Y31680000D03*
X15400000Y30030000D03*
%TD*%
D22*
%TO.C,R8*%
X17018000Y30093500D03*
X17018000Y31743500D03*
%TD*%
%TO.C,R9*%
X14986000Y26861000D03*
X14986000Y28511000D03*
%TD*%
%TO.C,R10*%
X20320000Y26861000D03*
X20320000Y28511000D03*
%TD*%
%TO.C,R11*%
X21996400Y24715200D03*
X21996400Y26365200D03*
%TD*%
%TO.C,R12*%
X24333200Y19037800D03*
X24333200Y20687800D03*
%TD*%
D21*
%TO.C,R13*%
X29260800Y30429200D03*
X27610800Y30429200D03*
%TD*%
D23*
%TO.C,U1*%
X7845000Y25775000D03*
X7845000Y27045000D03*
X7845000Y28315000D03*
X7845000Y29585000D03*
X12795000Y29585000D03*
X12795000Y28315000D03*
X12795000Y27045000D03*
X12795000Y25775000D03*
%TD*%
D24*
%TO.C,U4*%
X26278800Y21466800D03*
X27228800Y21466800D03*
X28178800Y21466800D03*
X28178800Y18766800D03*
X26278800Y18766800D03*
%TD*%
%TO.C,U5*%
X20335200Y21416000D03*
X21285200Y21416000D03*
X22235200Y21416000D03*
X22235200Y18716000D03*
X20335200Y18716000D03*
%TD*%
D20*
%TO.C,R2*%
X18288000Y24040600D03*
X18288000Y22390600D03*
%TD*%
D23*
%TO.C,U2*%
X26277800Y24409400D03*
X26277800Y25679400D03*
X26277800Y26949400D03*
X26277800Y28219400D03*
X31227800Y28219400D03*
X31227800Y26949400D03*
X31227800Y25679400D03*
X31227800Y24409400D03*
%TD*%
D22*
%TO.C,R1*%
X29057600Y14923000D03*
X29057600Y16573000D03*
%TD*%
D14*
%TO.C,C2*%
X23012400Y35268200D03*
X23012400Y33718200D03*
%TD*%
D25*
%TO.C,U3*%
X13142000Y17858500D03*
X11242000Y17858500D03*
X12192000Y19733500D03*
%TD*%
D14*
%TO.C,C21*%
X27178000Y35268200D03*
X27178000Y33718200D03*
%TD*%
D26*
%TO.C,F2*%
X78740000Y26670000D03*
X78740000Y28545000D03*
%TD*%
D27*
%TO.C,L3*%
X54111000Y24892000D03*
X52061000Y24892000D03*
%TD*%
D16*
%TO.C,C50*%
X46355000Y22910500D03*
X46355000Y24460500D03*
%TD*%
%TO.C,C42*%
X48514000Y22910500D03*
X48514000Y24460500D03*
%TD*%
D28*
%TO.C,C52*%
X43307000Y22399000D03*
D29*
X43307000Y23749000D03*
D28*
X43307000Y25099000D03*
%TD*%
D16*
%TO.C,C44*%
X63246000Y33515000D03*
X63246000Y35065000D03*
%TD*%
%TO.C,C40*%
X65532000Y33515000D03*
X65532000Y35065000D03*
%TD*%
D14*
%TO.C,C31*%
X63754000Y38430500D03*
X63754000Y36880500D03*
%TD*%
D15*
%TO.C,C27*%
X71742000Y32639000D03*
X73292000Y32639000D03*
%TD*%
D30*
%TO.C,U8*%
X53080500Y23048000D03*
X53080500Y22098000D03*
X53080500Y21148000D03*
X50805500Y21148000D03*
X50805500Y23048000D03*
%TD*%
D31*
%TO.C,U10*%
X48914000Y31466000D03*
X48914000Y32266000D03*
X48914000Y33066000D03*
X48914000Y33866000D03*
X48914000Y34666000D03*
X48914000Y35466000D03*
X48914000Y36266000D03*
X48914000Y37066000D03*
X48914000Y37866000D03*
X48914000Y38666000D03*
X48914000Y39466000D03*
D32*
X50614000Y41166000D03*
X51414000Y41166000D03*
X52214000Y41166000D03*
X53014000Y41166000D03*
X53814000Y41166000D03*
X54614000Y41166000D03*
X55414000Y41166000D03*
X56214000Y41166000D03*
X57014000Y41166000D03*
X57814000Y41166000D03*
X58614000Y41166000D03*
D31*
X60314000Y39466000D03*
X60314000Y38666000D03*
X60314000Y37866000D03*
X60314000Y37066000D03*
X60314000Y36266000D03*
X60314000Y35466000D03*
X60314000Y34666000D03*
X60314000Y33866000D03*
X60314000Y33066000D03*
X60314000Y32266000D03*
X60314000Y31466000D03*
D32*
X58614000Y29766000D03*
X57814000Y29766000D03*
X57014000Y29766000D03*
X56214000Y29766000D03*
X55414000Y29766000D03*
X54614000Y29766000D03*
X53814000Y29766000D03*
X53014000Y29766000D03*
X52214000Y29766000D03*
X51414000Y29766000D03*
X50614000Y29766000D03*
%TD*%
D33*
%TO.C,R20*%
X67691500Y33147000D03*
X69341500Y33147000D03*
%TD*%
D34*
%TO.C,C29*%
X76978500Y23749000D03*
D35*
X75628500Y23749000D03*
D34*
X74278500Y23749000D03*
%TD*%
D22*
%TO.C,R23*%
X46482000Y30480500D03*
X46482000Y32130500D03*
%TD*%
D15*
%TO.C,C26*%
X70472000Y30480000D03*
X72022000Y30480000D03*
%TD*%
%TO.C,C28*%
X71742000Y34671000D03*
X73292000Y34671000D03*
%TD*%
D16*
%TO.C,C30*%
X40513000Y30721000D03*
X40513000Y32271000D03*
%TD*%
D14*
%TO.C,C33*%
X40513000Y35954000D03*
X40513000Y34404000D03*
%TD*%
D18*
%TO.C,C34*%
X46431500Y33909000D03*
X44881500Y33909000D03*
%TD*%
%TO.C,C35*%
X55639000Y27051000D03*
X54089000Y27051000D03*
%TD*%
D15*
%TO.C,C39*%
X60439000Y13462000D03*
X61989000Y13462000D03*
%TD*%
%TO.C,C43*%
X71742000Y36830000D03*
X73292000Y36830000D03*
%TD*%
D14*
%TO.C,C47*%
X68326000Y28080000D03*
X68326000Y26530000D03*
%TD*%
D36*
%TO.C,L1*%
X68924500Y37719000D03*
X65949500Y37719000D03*
%TD*%
D33*
%TO.C,R21*%
X66739000Y30734000D03*
X68389000Y30734000D03*
%TD*%
D37*
%TO.C,U11*%
X64754000Y26552000D03*
X64254000Y26552000D03*
X63754000Y26552000D03*
X63254000Y26552000D03*
X62754000Y26552000D03*
X62754000Y30852000D03*
X63254000Y30852000D03*
X63754000Y30852000D03*
X64254000Y30852000D03*
X64754000Y30852000D03*
%TD*%
D38*
%TO.C,Y2*%
X65532000Y24384000D03*
X68032000Y24384000D03*
%TD*%
D14*
%TO.C,C23*%
X25044400Y35268200D03*
X25044400Y33718200D03*
%TD*%
%TO.C,C24*%
X20828000Y35268200D03*
X20828000Y33718200D03*
%TD*%
%TO.C,C32*%
X55118000Y23127000D03*
X55118000Y21577000D03*
%TD*%
%TO.C,C54*%
X40259000Y24397000D03*
X40259000Y22847000D03*
%TD*%
D33*
%TO.C,R15*%
X27623000Y37287200D03*
X29273000Y37287200D03*
%TD*%
%TO.C,R19*%
X24067000Y37287200D03*
X25717000Y37287200D03*
%TD*%
%TO.C,R22*%
X20409400Y37287200D03*
X22059400Y37287200D03*
%TD*%
D39*
%TO.C,M8*%
X27272000Y41300000D03*
D40*
X2372000Y28400000D03*
D41*
X34172000Y41300000D03*
D39*
X9272000Y9500000D03*
X27272000Y9500000D03*
X15272000Y9500000D03*
D40*
X34172000Y16400000D03*
D39*
X21272000Y9500000D03*
D40*
X2372000Y22400000D03*
X34172000Y28400000D03*
D42*
X34172000Y39650000D03*
D40*
X2372000Y34400000D03*
D43*
X32522000Y41300000D03*
D39*
X21272000Y41300000D03*
D40*
X2372000Y16400000D03*
D39*
X9272000Y41300000D03*
D41*
X2372000Y9500000D03*
X2372000Y41300000D03*
D40*
X34172000Y34400000D03*
D42*
X2372000Y11150000D03*
X2372000Y39650000D03*
D43*
X32522000Y9500000D03*
D40*
X34172000Y22400000D03*
D39*
X15272000Y41300000D03*
D41*
X34172000Y9500000D03*
D42*
X34172000Y11150000D03*
D43*
X4022000Y9500000D03*
X4022000Y41300000D03*
%TD*%
D44*
%TO.C,J3*%
X86034000Y26747000D03*
X86034000Y25497000D03*
X86034000Y24247000D03*
X86034000Y22997000D03*
X86034000Y21747000D03*
X86034000Y20497000D03*
D45*
X89234000Y28597000D03*
X89234000Y18647000D03*
%TD*%
D46*
%TO.C,Q2*%
X47576500Y4130000D03*
X47576500Y6030000D03*
X49451500Y5080000D03*
%TD*%
D18*
%TO.C,C58*%
X14897400Y14579600D03*
X13347400Y14579600D03*
%TD*%
D21*
%TO.C,R39*%
X7276600Y17729200D03*
X5626600Y17729200D03*
%TD*%
D20*
%TO.C,R37*%
X56896000Y9969000D03*
X56896000Y8319000D03*
%TD*%
D14*
%TO.C,C59*%
X11480800Y38163800D03*
X11480800Y36613800D03*
%TD*%
D44*
%TO.C,J1*%
X86034000Y43237000D03*
X86034000Y41987000D03*
X86034000Y40737000D03*
X86034000Y39487000D03*
X86034000Y38237000D03*
X86034000Y36987000D03*
X86034000Y35737000D03*
X86034000Y34487000D03*
D45*
X89234000Y45087000D03*
X89234000Y32637000D03*
%TD*%
D20*
%TO.C,R42*%
X51816000Y9969000D03*
X51816000Y8319000D03*
%TD*%
%TO.C,R44*%
X54356000Y8508000D03*
X54356000Y6858000D03*
%TD*%
D22*
%TO.C,R28*%
X69342000Y8319000D03*
X69342000Y9969000D03*
%TD*%
D14*
%TO.C,C37*%
X16967200Y37706600D03*
X16967200Y36156600D03*
%TD*%
D15*
%TO.C,C55*%
X16649400Y16459200D03*
X18199400Y16459200D03*
%TD*%
D47*
%TO.C,D6*%
X81596000Y28194000D03*
X82996000Y28194000D03*
%TD*%
D18*
%TO.C,C48*%
X78982482Y15400000D03*
X77432482Y15400000D03*
%TD*%
D48*
%TO.C,Q1*%
X7736800Y38580300D03*
X9636800Y38580300D03*
X8686800Y36705300D03*
%TD*%
D22*
%TO.C,R41*%
X13309600Y38392600D03*
X13309600Y40042600D03*
%TD*%
D49*
%TO.C,J4*%
X84712000Y3852500D03*
X84712000Y9632500D03*
D50*
X83637000Y9942500D03*
X83637000Y9142500D03*
D51*
X83637000Y7992500D03*
X83637000Y6992500D03*
X83637000Y6492500D03*
X83637000Y5492500D03*
D50*
X83637000Y3542500D03*
X83637000Y4342500D03*
D51*
X83637000Y4992500D03*
X83637000Y5992500D03*
X83637000Y7492500D03*
X83637000Y8492500D03*
D52*
X88392000Y11062500D03*
X88392000Y2422500D03*
D53*
X84212000Y11062500D03*
X84212000Y2422500D03*
%TD*%
D21*
%TO.C,R27*%
X74206482Y12606000D03*
X72556482Y12606000D03*
%TD*%
D33*
%TO.C,R34*%
X81471000Y23876000D03*
X83121000Y23876000D03*
%TD*%
D27*
%TO.C,L2*%
X54864000Y28448000D03*
X52814000Y28448000D03*
%TD*%
D22*
%TO.C,R43*%
X59182000Y6795000D03*
X59182000Y8445000D03*
%TD*%
%TO.C,R30*%
X85598000Y8065000D03*
X85598000Y9715000D03*
%TD*%
D14*
%TO.C,C57*%
X32004000Y13017800D03*
X32004000Y11467800D03*
%TD*%
D30*
%TO.C,U7*%
X81909500Y9840000D03*
X81909500Y8890000D03*
X81909500Y7940000D03*
X79634500Y7940000D03*
X79634500Y8890000D03*
X79634500Y9840000D03*
%TD*%
D20*
%TO.C,R14*%
X13309600Y36893000D03*
X13309600Y35243000D03*
%TD*%
D54*
%TO.C,JP1*%
X82012000Y21590000D03*
D55*
X83312000Y21590000D03*
%TD*%
D20*
%TO.C,R40*%
X31191200Y38061400D03*
X31191200Y36411400D03*
%TD*%
D22*
%TO.C,R29*%
X64262000Y8319000D03*
X64262000Y9969000D03*
%TD*%
D14*
%TO.C,C56*%
X30175200Y13017800D03*
X30175200Y11467800D03*
%TD*%
%TO.C,C49*%
X71564500Y17920000D03*
X71564500Y16370000D03*
%TD*%
D20*
%TO.C,R31*%
X85598000Y6921000D03*
X85598000Y5271000D03*
%TD*%
D14*
%TO.C,C60*%
X66294000Y28715000D03*
X66294000Y27165000D03*
%TD*%
%TO.C,C38*%
X78676500Y24016000D03*
X78676500Y22466000D03*
%TD*%
D46*
%TO.C,Q3*%
X57736500Y4130000D03*
X57736500Y6030000D03*
X59611500Y5080000D03*
%TD*%
D56*
%TO.C,U9*%
X80169500Y12430000D03*
X80169500Y11930000D03*
X80169500Y11430000D03*
X80169500Y10930000D03*
X80169500Y10430000D03*
D57*
X79232000Y9492500D03*
X78732000Y9492500D03*
X78232000Y9492500D03*
X77732000Y9492500D03*
X77232000Y9492500D03*
D56*
X76294500Y10430000D03*
X76294500Y10930000D03*
X76294500Y11430000D03*
X76294500Y11930000D03*
X76294500Y12430000D03*
D57*
X77232000Y13367500D03*
X77732000Y13367500D03*
X78232000Y13367500D03*
X78732000Y13367500D03*
X79232000Y13367500D03*
D58*
X78232000Y11430000D03*
%TD*%
D22*
%TO.C,R16*%
X18745200Y34785800D03*
X18745200Y36435800D03*
%TD*%
D14*
%TO.C,C46*%
X71818500Y21730000D03*
X71818500Y20180000D03*
%TD*%
D20*
%TO.C,C53*%
X15138400Y39166000D03*
X15138400Y37516000D03*
%TD*%
D14*
%TO.C,C41*%
X73850500Y21730000D03*
X73850500Y20180000D03*
%TD*%
D21*
%TO.C,R45*%
X53466500Y40513000D03*
X51816500Y40513000D03*
%TD*%
D22*
%TO.C,R36*%
X49276000Y6795000D03*
X49276000Y8445000D03*
%TD*%
D59*
%TO.C,D1*%
X80010000Y22544000D03*
X80010000Y21144000D03*
%TD*%
D21*
%TO.C,R26*%
X73952482Y14384000D03*
X72302482Y14384000D03*
%TD*%
D30*
%TO.C,U12*%
X69908000Y21143000D03*
X69908000Y20193000D03*
X69908000Y19243000D03*
X67633000Y19243000D03*
X67633000Y21143000D03*
%TD*%
D18*
%TO.C,C45*%
X74943000Y10668000D03*
X73393000Y10668000D03*
%TD*%
D46*
%TO.C,Q4*%
X52656500Y4130000D03*
X52656500Y6030000D03*
X54531500Y5080000D03*
%TD*%
D21*
%TO.C,R32*%
X80327000Y19050000D03*
X78677000Y19050000D03*
%TD*%
D60*
%TO.C,D5*%
X82804000Y17588000D03*
X82804000Y18988000D03*
%TD*%
D14*
%TO.C,C51*%
X73596500Y17920000D03*
X73596500Y16370000D03*
%TD*%
D61*
%TO.C,U6*%
X62863500Y22352000D03*
X62863500Y21082000D03*
X62863500Y19812000D03*
X62863500Y18542000D03*
X57913500Y18542000D03*
X57913500Y19812000D03*
X57913500Y21082000D03*
X57913500Y22352000D03*
%TD*%
D18*
%TO.C,C36*%
X61784982Y17087000D03*
X60234982Y17087000D03*
%TD*%
D22*
%TO.C,R38*%
X65786000Y45657000D03*
X65786000Y47307000D03*
%TD*%
D20*
%TO.C,R35*%
X46736000Y9969000D03*
X46736000Y8319000D03*
%TD*%
D33*
%TO.C,R33*%
X81471000Y25654000D03*
X83121000Y25654000D03*
%TD*%
M02*
