%TF.GenerationSoftware,KiCad,Pcbnew,6.0.4-6f826c9f35~116~ubuntu20.04.1*%
%TF.CreationDate,2022-05-21T21:40:52+00:00*%
%TF.ProjectId,USTSIPIN02A,55535453-4950-4494-9e30-32412e6b6963,REV*%
%TF.SameCoordinates,Original*%
%TF.FileFunction,Legend,Top*%
%TF.FilePolarity,Positive*%
%FSLAX46Y46*%
G04 Gerber Fmt 4.6, Leading zero omitted, Abs format (unit mm)*
G04 Created by KiCad (PCBNEW 6.0.4-6f826c9f35~116~ubuntu20.04.1) date 2022-05-21 21:40:52*
%MOMM*%
%LPD*%
G01*
G04 APERTURE LIST*
%ADD10C,0.300000*%
%ADD11C,0.150000*%
%ADD12C,0.050000*%
%ADD13C,0.100000*%
%ADD14C,0.120000*%
G04 APERTURE END LIST*
D10*
X31483476Y8585904D02*
X31483476Y7533523D01*
X31545380Y7409714D01*
X31607285Y7347809D01*
X31731095Y7285904D01*
X31978714Y7285904D01*
X32102523Y7347809D01*
X32164428Y7409714D01*
X32226333Y7533523D01*
X32226333Y8585904D01*
X32783476Y7347809D02*
X32969190Y7285904D01*
X33278714Y7285904D01*
X33402523Y7347809D01*
X33464428Y7409714D01*
X33526333Y7533523D01*
X33526333Y7657333D01*
X33464428Y7781142D01*
X33402523Y7843047D01*
X33278714Y7904952D01*
X33031095Y7966857D01*
X32907285Y8028761D01*
X32845380Y8090666D01*
X32783476Y8214476D01*
X32783476Y8338285D01*
X32845380Y8462095D01*
X32907285Y8524000D01*
X33031095Y8585904D01*
X33340619Y8585904D01*
X33526333Y8524000D01*
X33897761Y8585904D02*
X34640619Y8585904D01*
X34269190Y7285904D02*
X34269190Y8585904D01*
X35012047Y7347809D02*
X35197761Y7285904D01*
X35507285Y7285904D01*
X35631095Y7347809D01*
X35693000Y7409714D01*
X35754904Y7533523D01*
X35754904Y7657333D01*
X35693000Y7781142D01*
X35631095Y7843047D01*
X35507285Y7904952D01*
X35259666Y7966857D01*
X35135857Y8028761D01*
X35073952Y8090666D01*
X35012047Y8214476D01*
X35012047Y8338285D01*
X35073952Y8462095D01*
X35135857Y8524000D01*
X35259666Y8585904D01*
X35569190Y8585904D01*
X35754904Y8524000D01*
X36312047Y7285904D02*
X36312047Y8585904D01*
X36931095Y7285904D02*
X36931095Y8585904D01*
X37426333Y8585904D01*
X37550142Y8524000D01*
X37612047Y8462095D01*
X37673952Y8338285D01*
X37673952Y8152571D01*
X37612047Y8028761D01*
X37550142Y7966857D01*
X37426333Y7904952D01*
X36931095Y7904952D01*
X38231095Y7285904D02*
X38231095Y8585904D01*
X38850142Y7285904D02*
X38850142Y8585904D01*
X39593000Y7285904D01*
X39593000Y8585904D01*
X40459666Y8585904D02*
X40583476Y8585904D01*
X40707285Y8524000D01*
X40769190Y8462095D01*
X40831095Y8338285D01*
X40893000Y8090666D01*
X40893000Y7781142D01*
X40831095Y7533523D01*
X40769190Y7409714D01*
X40707285Y7347809D01*
X40583476Y7285904D01*
X40459666Y7285904D01*
X40335857Y7347809D01*
X40273952Y7409714D01*
X40212047Y7533523D01*
X40150142Y7781142D01*
X40150142Y8090666D01*
X40212047Y8338285D01*
X40273952Y8462095D01*
X40335857Y8524000D01*
X40459666Y8585904D01*
X41388238Y8462095D02*
X41450142Y8524000D01*
X41573952Y8585904D01*
X41883476Y8585904D01*
X42007285Y8524000D01*
X42069190Y8462095D01*
X42131095Y8338285D01*
X42131095Y8214476D01*
X42069190Y8028761D01*
X41326333Y7285904D01*
X42131095Y7285904D01*
X42626333Y7657333D02*
X43245380Y7657333D01*
X42502523Y7285904D02*
X42935857Y8585904D01*
X43369190Y7285904D01*
X87459428Y20796571D02*
X87388000Y20868000D01*
X87316571Y21010857D01*
X87316571Y21368000D01*
X87388000Y21510857D01*
X87459428Y21582285D01*
X87602285Y21653714D01*
X87745142Y21653714D01*
X87959428Y21582285D01*
X88816571Y20725142D01*
X88816571Y21653714D01*
X87316571Y22582285D02*
X87316571Y22725142D01*
X87388000Y22868000D01*
X87459428Y22939428D01*
X87602285Y23010857D01*
X87888000Y23082285D01*
X88245142Y23082285D01*
X88530857Y23010857D01*
X88673714Y22939428D01*
X88745142Y22868000D01*
X88816571Y22725142D01*
X88816571Y22582285D01*
X88745142Y22439428D01*
X88673714Y22368000D01*
X88530857Y22296571D01*
X88245142Y22225142D01*
X87888000Y22225142D01*
X87602285Y22296571D01*
X87459428Y22368000D01*
X87388000Y22439428D01*
X87316571Y22582285D01*
X87459428Y23653714D02*
X87388000Y23725142D01*
X87316571Y23868000D01*
X87316571Y24225142D01*
X87388000Y24368000D01*
X87459428Y24439428D01*
X87602285Y24510857D01*
X87745142Y24510857D01*
X87959428Y24439428D01*
X88816571Y23582285D01*
X88816571Y24510857D01*
X87459428Y25082285D02*
X87388000Y25153714D01*
X87316571Y25296571D01*
X87316571Y25653714D01*
X87388000Y25796571D01*
X87459428Y25868000D01*
X87602285Y25939428D01*
X87745142Y25939428D01*
X87959428Y25868000D01*
X88816571Y25010857D01*
X88816571Y25939428D01*
X84776571Y20364000D02*
X85848000Y20364000D01*
X86062285Y20292571D01*
X86205142Y20149714D01*
X86276571Y19935428D01*
X86276571Y19792571D01*
X85848000Y21006857D02*
X85848000Y21721142D01*
X86276571Y20864000D02*
X84776571Y21364000D01*
X86276571Y21864000D01*
X86133714Y23221142D02*
X86205142Y23149714D01*
X86276571Y22935428D01*
X86276571Y22792571D01*
X86205142Y22578285D01*
X86062285Y22435428D01*
X85919428Y22364000D01*
X85633714Y22292571D01*
X85419428Y22292571D01*
X85133714Y22364000D01*
X84990857Y22435428D01*
X84848000Y22578285D01*
X84776571Y22792571D01*
X84776571Y22935428D01*
X84848000Y23149714D01*
X84919428Y23221142D01*
X86276571Y23864000D02*
X84776571Y23864000D01*
X85490857Y23864000D02*
X85490857Y24721142D01*
X86276571Y24721142D02*
X84776571Y24721142D01*
X84776571Y25721142D02*
X84776571Y26006857D01*
X84848000Y26149714D01*
X84990857Y26292571D01*
X85276571Y26364000D01*
X85776571Y26364000D01*
X86062285Y26292571D01*
X86205142Y26149714D01*
X86276571Y26006857D01*
X86276571Y25721142D01*
X86205142Y25578285D01*
X86062285Y25435428D01*
X85776571Y25364000D01*
X85276571Y25364000D01*
X84990857Y25435428D01*
X84848000Y25578285D01*
X84776571Y25721142D01*
D11*
%TO.C,D2*%
X12121904Y28617619D02*
X12121904Y29617619D01*
X12360000Y29617619D01*
X12502857Y29570000D01*
X12598095Y29474761D01*
X12645714Y29379523D01*
X12693333Y29189047D01*
X12693333Y29046190D01*
X12645714Y28855714D01*
X12598095Y28760476D01*
X12502857Y28665238D01*
X12360000Y28617619D01*
X12121904Y28617619D01*
X13074285Y29522380D02*
X13121904Y29570000D01*
X13217142Y29617619D01*
X13455238Y29617619D01*
X13550476Y29570000D01*
X13598095Y29522380D01*
X13645714Y29427142D01*
X13645714Y29331904D01*
X13598095Y29189047D01*
X13026666Y28617619D01*
X13645714Y28617619D01*
X16408095Y32427619D02*
X16408095Y33427619D01*
X16979523Y32427619D02*
X16550952Y32999047D01*
X16979523Y33427619D02*
X16408095Y32856190D01*
D12*
%TO.C,J22*%
X43317857Y17487809D02*
X43032142Y17487809D01*
X43175000Y17487809D02*
X43175000Y17987809D01*
X43127380Y17916380D01*
X43079761Y17868761D01*
X43032142Y17844952D01*
D11*
%TO.C,Y1*%
X38361190Y33713809D02*
X38837380Y33713809D01*
X37837380Y33380476D02*
X38361190Y33713809D01*
X37837380Y34047142D01*
X38837380Y34904285D02*
X38837380Y34332857D01*
X38837380Y34618571D02*
X37837380Y34618571D01*
X37980238Y34523333D01*
X38075476Y34428095D01*
X38123095Y34332857D01*
%TO.C,R17*%
X51681142Y32981619D02*
X51347809Y33457809D01*
X51109714Y32981619D02*
X51109714Y33981619D01*
X51490666Y33981619D01*
X51585904Y33934000D01*
X51633523Y33886380D01*
X51681142Y33791142D01*
X51681142Y33648285D01*
X51633523Y33553047D01*
X51585904Y33505428D01*
X51490666Y33457809D01*
X51109714Y33457809D01*
X52633523Y32981619D02*
X52062095Y32981619D01*
X52347809Y32981619D02*
X52347809Y33981619D01*
X52252571Y33838761D01*
X52157333Y33743523D01*
X52062095Y33695904D01*
X52966857Y33981619D02*
X53633523Y33981619D01*
X53204952Y32981619D01*
%TO.C,R25*%
X50157142Y17995619D02*
X49823809Y18471809D01*
X49585714Y17995619D02*
X49585714Y18995619D01*
X49966666Y18995619D01*
X50061904Y18948000D01*
X50109523Y18900380D01*
X50157142Y18805142D01*
X50157142Y18662285D01*
X50109523Y18567047D01*
X50061904Y18519428D01*
X49966666Y18471809D01*
X49585714Y18471809D01*
X50538095Y18900380D02*
X50585714Y18948000D01*
X50680952Y18995619D01*
X50919047Y18995619D01*
X51014285Y18948000D01*
X51061904Y18900380D01*
X51109523Y18805142D01*
X51109523Y18709904D01*
X51061904Y18567047D01*
X50490476Y17995619D01*
X51109523Y17995619D01*
X52014285Y18995619D02*
X51538095Y18995619D01*
X51490476Y18519428D01*
X51538095Y18567047D01*
X51633333Y18614666D01*
X51871428Y18614666D01*
X51966666Y18567047D01*
X52014285Y18519428D01*
X52061904Y18424190D01*
X52061904Y18186095D01*
X52014285Y18090857D01*
X51966666Y18043238D01*
X51871428Y17995619D01*
X51633333Y17995619D01*
X51538095Y18043238D01*
X51490476Y18090857D01*
%TO.C,D9*%
X52802380Y4361904D02*
X51802380Y4361904D01*
X51802380Y4600000D01*
X51850000Y4742857D01*
X51945238Y4838095D01*
X52040476Y4885714D01*
X52230952Y4933333D01*
X52373809Y4933333D01*
X52564285Y4885714D01*
X52659523Y4838095D01*
X52754761Y4742857D01*
X52802380Y4600000D01*
X52802380Y4361904D01*
X52802380Y5409523D02*
X52802380Y5600000D01*
X52754761Y5695238D01*
X52707142Y5742857D01*
X52564285Y5838095D01*
X52373809Y5885714D01*
X51992857Y5885714D01*
X51897619Y5838095D01*
X51850000Y5790476D01*
X51802380Y5695238D01*
X51802380Y5504761D01*
X51850000Y5409523D01*
X51897619Y5361904D01*
X51992857Y5314285D01*
X52230952Y5314285D01*
X52326190Y5361904D01*
X52373809Y5409523D01*
X52421428Y5504761D01*
X52421428Y5695238D01*
X52373809Y5790476D01*
X52326190Y5838095D01*
X52230952Y5885714D01*
%TO.C,R24*%
X47207142Y20847619D02*
X46873809Y21323809D01*
X46635714Y20847619D02*
X46635714Y21847619D01*
X47016666Y21847619D01*
X47111904Y21800000D01*
X47159523Y21752380D01*
X47207142Y21657142D01*
X47207142Y21514285D01*
X47159523Y21419047D01*
X47111904Y21371428D01*
X47016666Y21323809D01*
X46635714Y21323809D01*
X47588095Y21752380D02*
X47635714Y21800000D01*
X47730952Y21847619D01*
X47969047Y21847619D01*
X48064285Y21800000D01*
X48111904Y21752380D01*
X48159523Y21657142D01*
X48159523Y21561904D01*
X48111904Y21419047D01*
X47540476Y20847619D01*
X48159523Y20847619D01*
X49016666Y21514285D02*
X49016666Y20847619D01*
X48778571Y21895238D02*
X48540476Y21180952D01*
X49159523Y21180952D01*
%TO.C,D7*%
X47902380Y4311904D02*
X46902380Y4311904D01*
X46902380Y4550000D01*
X46950000Y4692857D01*
X47045238Y4788095D01*
X47140476Y4835714D01*
X47330952Y4883333D01*
X47473809Y4883333D01*
X47664285Y4835714D01*
X47759523Y4788095D01*
X47854761Y4692857D01*
X47902380Y4550000D01*
X47902380Y4311904D01*
X46902380Y5216666D02*
X46902380Y5883333D01*
X47902380Y5454761D01*
%TO.C,C25*%
X47057142Y24842857D02*
X47009523Y24795238D01*
X46866666Y24747619D01*
X46771428Y24747619D01*
X46628571Y24795238D01*
X46533333Y24890476D01*
X46485714Y24985714D01*
X46438095Y25176190D01*
X46438095Y25319047D01*
X46485714Y25509523D01*
X46533333Y25604761D01*
X46628571Y25700000D01*
X46771428Y25747619D01*
X46866666Y25747619D01*
X47009523Y25700000D01*
X47057142Y25652380D01*
X47438095Y25652380D02*
X47485714Y25700000D01*
X47580952Y25747619D01*
X47819047Y25747619D01*
X47914285Y25700000D01*
X47961904Y25652380D01*
X48009523Y25557142D01*
X48009523Y25461904D01*
X47961904Y25319047D01*
X47390476Y24747619D01*
X48009523Y24747619D01*
X48914285Y25747619D02*
X48438095Y25747619D01*
X48390476Y25271428D01*
X48438095Y25319047D01*
X48533333Y25366666D01*
X48771428Y25366666D01*
X48866666Y25319047D01*
X48914285Y25271428D01*
X48961904Y25176190D01*
X48961904Y24938095D01*
X48914285Y24842857D01*
X48866666Y24795238D01*
X48771428Y24747619D01*
X48533333Y24747619D01*
X48438095Y24795238D01*
X48390476Y24842857D01*
%TO.C,D4*%
X62852380Y4261904D02*
X61852380Y4261904D01*
X61852380Y4500000D01*
X61900000Y4642857D01*
X61995238Y4738095D01*
X62090476Y4785714D01*
X62280952Y4833333D01*
X62423809Y4833333D01*
X62614285Y4785714D01*
X62709523Y4738095D01*
X62804761Y4642857D01*
X62852380Y4500000D01*
X62852380Y4261904D01*
X62185714Y5690476D02*
X62852380Y5690476D01*
X61804761Y5452380D02*
X62519047Y5214285D01*
X62519047Y5833333D01*
%TO.C,C22*%
X47057142Y23042857D02*
X47009523Y22995238D01*
X46866666Y22947619D01*
X46771428Y22947619D01*
X46628571Y22995238D01*
X46533333Y23090476D01*
X46485714Y23185714D01*
X46438095Y23376190D01*
X46438095Y23519047D01*
X46485714Y23709523D01*
X46533333Y23804761D01*
X46628571Y23900000D01*
X46771428Y23947619D01*
X46866666Y23947619D01*
X47009523Y23900000D01*
X47057142Y23852380D01*
X47438095Y23852380D02*
X47485714Y23900000D01*
X47580952Y23947619D01*
X47819047Y23947619D01*
X47914285Y23900000D01*
X47961904Y23852380D01*
X48009523Y23757142D01*
X48009523Y23661904D01*
X47961904Y23519047D01*
X47390476Y22947619D01*
X48009523Y22947619D01*
X48390476Y23852380D02*
X48438095Y23900000D01*
X48533333Y23947619D01*
X48771428Y23947619D01*
X48866666Y23900000D01*
X48914285Y23852380D01*
X48961904Y23757142D01*
X48961904Y23661904D01*
X48914285Y23519047D01*
X48342857Y22947619D01*
X48961904Y22947619D01*
%TO.C,D3*%
X67852380Y4261904D02*
X66852380Y4261904D01*
X66852380Y4500000D01*
X66900000Y4642857D01*
X66995238Y4738095D01*
X67090476Y4785714D01*
X67280952Y4833333D01*
X67423809Y4833333D01*
X67614285Y4785714D01*
X67709523Y4738095D01*
X67804761Y4642857D01*
X67852380Y4500000D01*
X67852380Y4261904D01*
X66852380Y5166666D02*
X66852380Y5785714D01*
X67233333Y5452380D01*
X67233333Y5595238D01*
X67280952Y5690476D01*
X67328571Y5738095D01*
X67423809Y5785714D01*
X67661904Y5785714D01*
X67757142Y5738095D01*
X67804761Y5690476D01*
X67852380Y5595238D01*
X67852380Y5309523D01*
X67804761Y5214285D01*
X67757142Y5166666D01*
%TO.C,D10*%
X67902380Y44635714D02*
X66902380Y44635714D01*
X66902380Y44873809D01*
X66950000Y45016666D01*
X67045238Y45111904D01*
X67140476Y45159523D01*
X67330952Y45207142D01*
X67473809Y45207142D01*
X67664285Y45159523D01*
X67759523Y45111904D01*
X67854761Y45016666D01*
X67902380Y44873809D01*
X67902380Y44635714D01*
X67902380Y46159523D02*
X67902380Y45588095D01*
X67902380Y45873809D02*
X66902380Y45873809D01*
X67045238Y45778571D01*
X67140476Y45683333D01*
X67188095Y45588095D01*
X66902380Y46778571D02*
X66902380Y46873809D01*
X66950000Y46969047D01*
X66997619Y47016666D01*
X67092857Y47064285D01*
X67283333Y47111904D01*
X67521428Y47111904D01*
X67711904Y47064285D01*
X67807142Y47016666D01*
X67854761Y46969047D01*
X67902380Y46873809D01*
X67902380Y46778571D01*
X67854761Y46683333D01*
X67807142Y46635714D01*
X67711904Y46588095D01*
X67521428Y46540476D01*
X67283333Y46540476D01*
X67092857Y46588095D01*
X66997619Y46635714D01*
X66950000Y46683333D01*
X66902380Y46778571D01*
%TO.C,R18*%
X50157142Y30441619D02*
X49823809Y30917809D01*
X49585714Y30441619D02*
X49585714Y31441619D01*
X49966666Y31441619D01*
X50061904Y31394000D01*
X50109523Y31346380D01*
X50157142Y31251142D01*
X50157142Y31108285D01*
X50109523Y31013047D01*
X50061904Y30965428D01*
X49966666Y30917809D01*
X49585714Y30917809D01*
X51109523Y30441619D02*
X50538095Y30441619D01*
X50823809Y30441619D02*
X50823809Y31441619D01*
X50728571Y31298761D01*
X50633333Y31203523D01*
X50538095Y31155904D01*
X51680952Y31013047D02*
X51585714Y31060666D01*
X51538095Y31108285D01*
X51490476Y31203523D01*
X51490476Y31251142D01*
X51538095Y31346380D01*
X51585714Y31394000D01*
X51680952Y31441619D01*
X51871428Y31441619D01*
X51966666Y31394000D01*
X52014285Y31346380D01*
X52061904Y31251142D01*
X52061904Y31203523D01*
X52014285Y31108285D01*
X51966666Y31060666D01*
X51871428Y31013047D01*
X51680952Y31013047D01*
X51585714Y30965428D01*
X51538095Y30917809D01*
X51490476Y30822571D01*
X51490476Y30632095D01*
X51538095Y30536857D01*
X51585714Y30489238D01*
X51680952Y30441619D01*
X51871428Y30441619D01*
X51966666Y30489238D01*
X52014285Y30536857D01*
X52061904Y30632095D01*
X52061904Y30822571D01*
X52014285Y30917809D01*
X51966666Y30965428D01*
X51871428Y31013047D01*
%TO.C,BT1*%
X43156285Y49737428D02*
X43299142Y49689809D01*
X43346761Y49642190D01*
X43394380Y49546952D01*
X43394380Y49404095D01*
X43346761Y49308857D01*
X43299142Y49261238D01*
X43203904Y49213619D01*
X42822952Y49213619D01*
X42822952Y50213619D01*
X43156285Y50213619D01*
X43251523Y50166000D01*
X43299142Y50118380D01*
X43346761Y50023142D01*
X43346761Y49927904D01*
X43299142Y49832666D01*
X43251523Y49785047D01*
X43156285Y49737428D01*
X42822952Y49737428D01*
X43680095Y50213619D02*
X44251523Y50213619D01*
X43965809Y49213619D02*
X43965809Y50213619D01*
X45108666Y49213619D02*
X44537238Y49213619D01*
X44822952Y49213619D02*
X44822952Y50213619D01*
X44727714Y50070761D01*
X44632476Y49975523D01*
X44537238Y49927904D01*
%TO.C,J2*%
X76800780Y25667366D02*
X77515066Y25667366D01*
X77657923Y25619747D01*
X77753161Y25524509D01*
X77800780Y25381652D01*
X77800780Y25286414D01*
X76896019Y26095938D02*
X76848400Y26143557D01*
X76800780Y26238795D01*
X76800780Y26476890D01*
X76848400Y26572128D01*
X76896019Y26619747D01*
X76991257Y26667366D01*
X77086495Y26667366D01*
X77229352Y26619747D01*
X77800780Y26048319D01*
X77800780Y26667366D01*
%TO.C,D8*%
X57902380Y4311904D02*
X56902380Y4311904D01*
X56902380Y4550000D01*
X56950000Y4692857D01*
X57045238Y4788095D01*
X57140476Y4835714D01*
X57330952Y4883333D01*
X57473809Y4883333D01*
X57664285Y4835714D01*
X57759523Y4788095D01*
X57854761Y4692857D01*
X57902380Y4550000D01*
X57902380Y4311904D01*
X57330952Y5454761D02*
X57283333Y5359523D01*
X57235714Y5311904D01*
X57140476Y5264285D01*
X57092857Y5264285D01*
X56997619Y5311904D01*
X56950000Y5359523D01*
X56902380Y5454761D01*
X56902380Y5645238D01*
X56950000Y5740476D01*
X56997619Y5788095D01*
X57092857Y5835714D01*
X57140476Y5835714D01*
X57235714Y5788095D01*
X57283333Y5740476D01*
X57330952Y5645238D01*
X57330952Y5454761D01*
X57378571Y5359523D01*
X57426190Y5311904D01*
X57521428Y5264285D01*
X57711904Y5264285D01*
X57807142Y5311904D01*
X57854761Y5359523D01*
X57902380Y5454761D01*
X57902380Y5645238D01*
X57854761Y5740476D01*
X57807142Y5788095D01*
X57711904Y5835714D01*
X57521428Y5835714D01*
X57426190Y5788095D01*
X57378571Y5740476D01*
X57330952Y5645238D01*
D13*
%TO.C,D2*%
X19960000Y9690000D02*
X19960000Y36690000D01*
X19960000Y9690000D02*
X5760000Y9690000D01*
X5760000Y9690000D02*
X5760000Y36690000D01*
X19960000Y36690000D02*
X5760000Y36690000D01*
D11*
%TO.C,J22*%
X42794000Y24064000D02*
X42794000Y16444000D01*
X42794000Y16444000D02*
X37714000Y16444000D01*
X37714000Y16444000D02*
X37714000Y24064000D01*
X37714000Y24064000D02*
X42794000Y24064000D01*
D14*
%TO.C,Y1*%
X44435000Y30990000D02*
X44435000Y37390000D01*
X39385000Y30990000D02*
X39385000Y37390000D01*
X44435000Y37390000D02*
G75*
G03*
X39385000Y37390000I-2525000J0D01*
G01*
X39385000Y30990000D02*
G75*
G03*
X44435000Y30990000I2525000J0D01*
G01*
%TO.C,R17*%
X52086742Y32526500D02*
X52561258Y32526500D01*
X52086742Y31481500D02*
X52561258Y31481500D01*
%TO.C,R25*%
X50562742Y17540500D02*
X51037258Y17540500D01*
X50562742Y16495500D02*
X51037258Y16495500D01*
%TO.C,D9*%
X55389000Y3480000D02*
X55389000Y7365000D01*
X53119000Y7365000D02*
X53119000Y3480000D01*
X55389000Y7365000D02*
X53119000Y7365000D01*
%TO.C,R24*%
X50562742Y21858500D02*
X51037258Y21858500D01*
X50562742Y20813500D02*
X51037258Y20813500D01*
%TO.C,D7*%
X50389000Y7365000D02*
X48119000Y7365000D01*
X50389000Y3480000D02*
X50389000Y7365000D01*
X48119000Y7365000D02*
X48119000Y3480000D01*
D11*
%TO.C,J6*%
X60579000Y46990000D02*
X62865000Y46990000D01*
X60452000Y44577000D02*
X60452000Y46863000D01*
D14*
%TO.C,C25*%
X50940580Y24890000D02*
X50659420Y24890000D01*
X50940580Y25910000D02*
X50659420Y25910000D01*
%TO.C,D4*%
X63119000Y7365000D02*
X63119000Y3480000D01*
X65389000Y7365000D02*
X63119000Y7365000D01*
X65389000Y3480000D02*
X65389000Y7365000D01*
%TO.C,C22*%
X50940580Y22858000D02*
X50659420Y22858000D01*
X50940580Y23878000D02*
X50659420Y23878000D01*
D11*
%TO.C,J5*%
X57912000Y44577000D02*
X57912000Y46863000D01*
X58039000Y46990000D02*
X60325000Y46990000D01*
D14*
%TO.C,D3*%
X68119000Y7365000D02*
X68119000Y3480000D01*
X70389000Y7365000D02*
X68119000Y7365000D01*
X70389000Y3480000D02*
X70389000Y7365000D01*
%TO.C,D10*%
X70389000Y48005000D02*
X68119000Y48005000D01*
X70389000Y44120000D02*
X70389000Y48005000D01*
X68119000Y48005000D02*
X68119000Y44120000D01*
%TO.C,R18*%
X50562742Y29986500D02*
X51037258Y29986500D01*
X50562742Y28941500D02*
X51037258Y28941500D01*
%TO.C,BT1*%
X41942000Y40966000D02*
X45942000Y40966000D01*
X47642000Y48966000D02*
X47642000Y42966000D01*
X40242000Y48966000D02*
X40242000Y42966000D01*
X45942000Y40966000D02*
X47642000Y42966000D01*
X41942000Y40966000D02*
X40242000Y42966000D01*
X41542000Y48966000D02*
G75*
G03*
X46333383Y48961415I2400000J4499997D01*
G01*
X47645723Y48966000D02*
G75*
G03*
X46334627Y48959972I-653723J-400000D01*
G01*
X41542000Y48966000D02*
G75*
G03*
X40236352Y48956673I-650000J-400001D01*
G01*
D11*
%TO.C,J2*%
X55617000Y31182300D02*
X55617000Y30560000D01*
X55617000Y23676600D02*
X55617000Y22965400D01*
X55617000Y33735000D02*
X55617000Y33112700D01*
X55591600Y35614600D02*
X55591600Y40974000D01*
X55629700Y26229300D02*
X55629700Y25518100D01*
X86020800Y41225000D02*
X86020800Y46700000D01*
X85195300Y41225000D02*
X86020800Y41225000D01*
X55617000Y23829000D02*
X55617000Y23676600D01*
X86020800Y46700000D02*
X91050000Y46700000D01*
X61065300Y41225000D02*
X79620000Y41225000D01*
X55617000Y18736300D02*
X55617000Y17999700D01*
X61027200Y12275000D02*
X85868400Y12275000D01*
X55617000Y21162000D02*
X55617000Y20501600D01*
X55617000Y28667700D02*
X55617000Y28020000D01*
X91050000Y46700000D02*
X91050000Y13750000D01*
X55629700Y14431000D02*
X55629700Y13046700D01*
D14*
%TO.C,D8*%
X60389000Y7365000D02*
X58119000Y7365000D01*
X60389000Y3480000D02*
X60389000Y7365000D01*
X58119000Y7365000D02*
X58119000Y3480000D01*
%TD*%
M02*
