%TF.GenerationSoftware,KiCad,Pcbnew,7.0.8-7.0.8~ubuntu23.04.1*%
%TF.CreationDate,2023-11-12T23:29:36+00:00*%
%TF.ProjectId,USTSIPIN02,55535453-4950-4494-9e30-322e6b696361,02A*%
%TF.SameCoordinates,Original*%
%TF.FileFunction,Paste,Top*%
%TF.FilePolarity,Positive*%
%FSLAX46Y46*%
G04 Gerber Fmt 4.6, Leading zero omitted, Abs format (unit mm)*
G04 Created by KiCad (PCBNEW 7.0.8-7.0.8~ubuntu23.04.1) date 2023-11-12 23:29:36*
%MOMM*%
%LPD*%
G01*
G04 APERTURE LIST*
G04 Aperture macros list*
%AMRoundRect*
0 Rectangle with rounded corners*
0 $1 Rounding radius*
0 $2 $3 $4 $5 $6 $7 $8 $9 X,Y pos of 4 corners*
0 Add a 4 corners polygon primitive as box body*
4,1,4,$2,$3,$4,$5,$6,$7,$8,$9,$2,$3,0*
0 Add four circle primitives for the rounded corners*
1,1,$1+$1,$2,$3*
1,1,$1+$1,$4,$5*
1,1,$1+$1,$6,$7*
1,1,$1+$1,$8,$9*
0 Add four rect primitives between the rounded corners*
20,1,$1+$1,$2,$3,$4,$5,0*
20,1,$1+$1,$4,$5,$6,$7,0*
20,1,$1+$1,$6,$7,$8,$9,0*
20,1,$1+$1,$8,$9,$2,$3,0*%
G04 Aperture macros list end*
%ADD10RoundRect,0.250000X-0.262500X-0.450000X0.262500X-0.450000X0.262500X0.450000X-0.262500X0.450000X0*%
%ADD11RoundRect,0.250000X-0.625000X0.375000X-0.625000X-0.375000X0.625000X-0.375000X0.625000X0.375000X0*%
%ADD12RoundRect,0.250000X0.475000X-0.250000X0.475000X0.250000X-0.475000X0.250000X-0.475000X-0.250000X0*%
%ADD13R,1.780000X5.080000*%
%ADD14R,3.960000X3.960000*%
%ADD15R,1.600000X1.200000*%
%ADD16R,5.000000X2.500000*%
G04 APERTURE END LIST*
D10*
%TO.C,R17*%
X149421841Y-92240527D03*
X151246841Y-92240527D03*
%TD*%
%TO.C,R25*%
X149421841Y-107175727D03*
X151246841Y-107175727D03*
%TD*%
D11*
%TO.C,D9*%
X153026341Y-117916927D03*
X153026341Y-120716927D03*
%TD*%
D10*
%TO.C,R24*%
X149421841Y-102248127D03*
X151246841Y-102248127D03*
%TD*%
D11*
%TO.C,D7*%
X148026341Y-117916927D03*
X148026341Y-120716927D03*
%TD*%
D12*
%TO.C,C25*%
X151401141Y-99489727D03*
X151401141Y-97589727D03*
%TD*%
D11*
%TO.C,D4*%
X163026341Y-117916927D03*
X163026341Y-120716927D03*
%TD*%
D12*
%TO.C,C22*%
X149267541Y-99489727D03*
X149267541Y-97589727D03*
%TD*%
D11*
%TO.C,D3*%
X168026341Y-117916927D03*
X168026341Y-120716927D03*
%TD*%
%TO.C,D10*%
X168026341Y-77276927D03*
X168026341Y-80076927D03*
%TD*%
D10*
%TO.C,R18*%
X149421841Y-94831327D03*
X151246841Y-94831327D03*
%TD*%
D13*
%TO.C,BT1*%
X138014341Y-78930927D03*
X147414341Y-78930927D03*
D14*
X142714341Y-78930927D03*
%TD*%
D15*
%TO.C,J2*%
X153622341Y-92256927D03*
X153622341Y-94756927D03*
X153622341Y-97256927D03*
X153622341Y-99756927D03*
X153622341Y-102256927D03*
X153622341Y-104756927D03*
X153622341Y-107186927D03*
X153622341Y-108986927D03*
X153622341Y-89756927D03*
D16*
X157122341Y-82421927D03*
X157122341Y-112871927D03*
X181322341Y-82421927D03*
X187322341Y-112871927D03*
%TD*%
D11*
%TO.C,D8*%
X158026341Y-117916927D03*
X158026341Y-120716927D03*
%TD*%
M02*
