%TF.GenerationSoftware,KiCad,Pcbnew,6.0.4-6f826c9f35~116~ubuntu20.04.1*%
%TF.CreationDate,2022-05-21T20:39:34+00:00*%
%TF.ProjectId,USTSIPIN02A,55535453-4950-4494-9e30-32412e6b6963,REV*%
%TF.SameCoordinates,Original*%
%TF.FileFunction,Legend,Top*%
%TF.FilePolarity,Positive*%
%FSLAX46Y46*%
G04 Gerber Fmt 4.6, Leading zero omitted, Abs format (unit mm)*
G04 Created by KiCad (PCBNEW 6.0.4-6f826c9f35~116~ubuntu20.04.1) date 2022-05-21 20:39:34*
%MOMM*%
%LPD*%
G01*
G04 APERTURE LIST*
%ADD10C,0.300000*%
%ADD11C,0.150000*%
%ADD12C,0.050000*%
%ADD13C,0.100000*%
%ADD14C,0.120000*%
G04 APERTURE END LIST*
D10*
X31483476Y8585904D02*
X31483476Y7533523D01*
X31545380Y7409714D01*
X31607285Y7347809D01*
X31731095Y7285904D01*
X31978714Y7285904D01*
X32102523Y7347809D01*
X32164428Y7409714D01*
X32226333Y7533523D01*
X32226333Y8585904D01*
X32783476Y7347809D02*
X32969190Y7285904D01*
X33278714Y7285904D01*
X33402523Y7347809D01*
X33464428Y7409714D01*
X33526333Y7533523D01*
X33526333Y7657333D01*
X33464428Y7781142D01*
X33402523Y7843047D01*
X33278714Y7904952D01*
X33031095Y7966857D01*
X32907285Y8028761D01*
X32845380Y8090666D01*
X32783476Y8214476D01*
X32783476Y8338285D01*
X32845380Y8462095D01*
X32907285Y8524000D01*
X33031095Y8585904D01*
X33340619Y8585904D01*
X33526333Y8524000D01*
X33897761Y8585904D02*
X34640619Y8585904D01*
X34269190Y7285904D02*
X34269190Y8585904D01*
X35012047Y7347809D02*
X35197761Y7285904D01*
X35507285Y7285904D01*
X35631095Y7347809D01*
X35693000Y7409714D01*
X35754904Y7533523D01*
X35754904Y7657333D01*
X35693000Y7781142D01*
X35631095Y7843047D01*
X35507285Y7904952D01*
X35259666Y7966857D01*
X35135857Y8028761D01*
X35073952Y8090666D01*
X35012047Y8214476D01*
X35012047Y8338285D01*
X35073952Y8462095D01*
X35135857Y8524000D01*
X35259666Y8585904D01*
X35569190Y8585904D01*
X35754904Y8524000D01*
X36312047Y7285904D02*
X36312047Y8585904D01*
X36931095Y7285904D02*
X36931095Y8585904D01*
X37426333Y8585904D01*
X37550142Y8524000D01*
X37612047Y8462095D01*
X37673952Y8338285D01*
X37673952Y8152571D01*
X37612047Y8028761D01*
X37550142Y7966857D01*
X37426333Y7904952D01*
X36931095Y7904952D01*
X38231095Y7285904D02*
X38231095Y8585904D01*
X38850142Y7285904D02*
X38850142Y8585904D01*
X39593000Y7285904D01*
X39593000Y8585904D01*
X40459666Y8585904D02*
X40583476Y8585904D01*
X40707285Y8524000D01*
X40769190Y8462095D01*
X40831095Y8338285D01*
X40893000Y8090666D01*
X40893000Y7781142D01*
X40831095Y7533523D01*
X40769190Y7409714D01*
X40707285Y7347809D01*
X40583476Y7285904D01*
X40459666Y7285904D01*
X40335857Y7347809D01*
X40273952Y7409714D01*
X40212047Y7533523D01*
X40150142Y7781142D01*
X40150142Y8090666D01*
X40212047Y8338285D01*
X40273952Y8462095D01*
X40335857Y8524000D01*
X40459666Y8585904D01*
X41388238Y8462095D02*
X41450142Y8524000D01*
X41573952Y8585904D01*
X41883476Y8585904D01*
X42007285Y8524000D01*
X42069190Y8462095D01*
X42131095Y8338285D01*
X42131095Y8214476D01*
X42069190Y8028761D01*
X41326333Y7285904D01*
X42131095Y7285904D01*
X42626333Y7657333D02*
X43245380Y7657333D01*
X42502523Y7285904D02*
X42935857Y8585904D01*
X43369190Y7285904D01*
X87459428Y20796571D02*
X87388000Y20868000D01*
X87316571Y21010857D01*
X87316571Y21368000D01*
X87388000Y21510857D01*
X87459428Y21582285D01*
X87602285Y21653714D01*
X87745142Y21653714D01*
X87959428Y21582285D01*
X88816571Y20725142D01*
X88816571Y21653714D01*
X87316571Y22582285D02*
X87316571Y22725142D01*
X87388000Y22868000D01*
X87459428Y22939428D01*
X87602285Y23010857D01*
X87888000Y23082285D01*
X88245142Y23082285D01*
X88530857Y23010857D01*
X88673714Y22939428D01*
X88745142Y22868000D01*
X88816571Y22725142D01*
X88816571Y22582285D01*
X88745142Y22439428D01*
X88673714Y22368000D01*
X88530857Y22296571D01*
X88245142Y22225142D01*
X87888000Y22225142D01*
X87602285Y22296571D01*
X87459428Y22368000D01*
X87388000Y22439428D01*
X87316571Y22582285D01*
X87459428Y23653714D02*
X87388000Y23725142D01*
X87316571Y23868000D01*
X87316571Y24225142D01*
X87388000Y24368000D01*
X87459428Y24439428D01*
X87602285Y24510857D01*
X87745142Y24510857D01*
X87959428Y24439428D01*
X88816571Y23582285D01*
X88816571Y24510857D01*
X87459428Y25082285D02*
X87388000Y25153714D01*
X87316571Y25296571D01*
X87316571Y25653714D01*
X87388000Y25796571D01*
X87459428Y25868000D01*
X87602285Y25939428D01*
X87745142Y25939428D01*
X87959428Y25868000D01*
X88816571Y25010857D01*
X88816571Y25939428D01*
X84776571Y20364000D02*
X85848000Y20364000D01*
X86062285Y20292571D01*
X86205142Y20149714D01*
X86276571Y19935428D01*
X86276571Y19792571D01*
X85848000Y21006857D02*
X85848000Y21721142D01*
X86276571Y20864000D02*
X84776571Y21364000D01*
X86276571Y21864000D01*
X86133714Y23221142D02*
X86205142Y23149714D01*
X86276571Y22935428D01*
X86276571Y22792571D01*
X86205142Y22578285D01*
X86062285Y22435428D01*
X85919428Y22364000D01*
X85633714Y22292571D01*
X85419428Y22292571D01*
X85133714Y22364000D01*
X84990857Y22435428D01*
X84848000Y22578285D01*
X84776571Y22792571D01*
X84776571Y22935428D01*
X84848000Y23149714D01*
X84919428Y23221142D01*
X86276571Y23864000D02*
X84776571Y23864000D01*
X85490857Y23864000D02*
X85490857Y24721142D01*
X86276571Y24721142D02*
X84776571Y24721142D01*
X84776571Y25721142D02*
X84776571Y26006857D01*
X84848000Y26149714D01*
X84990857Y26292571D01*
X85276571Y26364000D01*
X85776571Y26364000D01*
X86062285Y26292571D01*
X86205142Y26149714D01*
X86276571Y26006857D01*
X86276571Y25721142D01*
X86205142Y25578285D01*
X86062285Y25435428D01*
X85776571Y25364000D01*
X85276571Y25364000D01*
X84990857Y25435428D01*
X84848000Y25578285D01*
X84776571Y25721142D01*
D11*
%TO.C,D2*%
X12121904Y28617619D02*
X12121904Y29617619D01*
X12360000Y29617619D01*
X12502857Y29570000D01*
X12598095Y29474761D01*
X12645714Y29379523D01*
X12693333Y29189047D01*
X12693333Y29046190D01*
X12645714Y28855714D01*
X12598095Y28760476D01*
X12502857Y28665238D01*
X12360000Y28617619D01*
X12121904Y28617619D01*
X13074285Y29522380D02*
X13121904Y29570000D01*
X13217142Y29617619D01*
X13455238Y29617619D01*
X13550476Y29570000D01*
X13598095Y29522380D01*
X13645714Y29427142D01*
X13645714Y29331904D01*
X13598095Y29189047D01*
X13026666Y28617619D01*
X13645714Y28617619D01*
X16408095Y32427619D02*
X16408095Y33427619D01*
X16979523Y32427619D02*
X16550952Y32999047D01*
X16979523Y33427619D02*
X16408095Y32856190D01*
D12*
%TO.C,J22*%
X43317857Y17487809D02*
X43032142Y17487809D01*
X43175000Y17487809D02*
X43175000Y17987809D01*
X43127380Y17916380D01*
X43079761Y17868761D01*
X43032142Y17844952D01*
D11*
%TO.C,Y1*%
X38361190Y33713809D02*
X38837380Y33713809D01*
X37837380Y33380476D02*
X38361190Y33713809D01*
X37837380Y34047142D01*
X38837380Y34904285D02*
X38837380Y34332857D01*
X38837380Y34618571D02*
X37837380Y34618571D01*
X37980238Y34523333D01*
X38075476Y34428095D01*
X38123095Y34332857D01*
%TO.C,R17*%
X51681142Y32981619D02*
X51347809Y33457809D01*
X51109714Y32981619D02*
X51109714Y33981619D01*
X51490666Y33981619D01*
X51585904Y33934000D01*
X51633523Y33886380D01*
X51681142Y33791142D01*
X51681142Y33648285D01*
X51633523Y33553047D01*
X51585904Y33505428D01*
X51490666Y33457809D01*
X51109714Y33457809D01*
X52633523Y32981619D02*
X52062095Y32981619D01*
X52347809Y32981619D02*
X52347809Y33981619D01*
X52252571Y33838761D01*
X52157333Y33743523D01*
X52062095Y33695904D01*
X52966857Y33981619D02*
X53633523Y33981619D01*
X53204952Y32981619D01*
%TO.C,R25*%
X50157142Y17995619D02*
X49823809Y18471809D01*
X49585714Y17995619D02*
X49585714Y18995619D01*
X49966666Y18995619D01*
X50061904Y18948000D01*
X50109523Y18900380D01*
X50157142Y18805142D01*
X50157142Y18662285D01*
X50109523Y18567047D01*
X50061904Y18519428D01*
X49966666Y18471809D01*
X49585714Y18471809D01*
X50538095Y18900380D02*
X50585714Y18948000D01*
X50680952Y18995619D01*
X50919047Y18995619D01*
X51014285Y18948000D01*
X51061904Y18900380D01*
X51109523Y18805142D01*
X51109523Y18709904D01*
X51061904Y18567047D01*
X50490476Y17995619D01*
X51109523Y17995619D01*
X52014285Y18995619D02*
X51538095Y18995619D01*
X51490476Y18519428D01*
X51538095Y18567047D01*
X51633333Y18614666D01*
X51871428Y18614666D01*
X51966666Y18567047D01*
X52014285Y18519428D01*
X52061904Y18424190D01*
X52061904Y18186095D01*
X52014285Y18090857D01*
X51966666Y18043238D01*
X51871428Y17995619D01*
X51633333Y17995619D01*
X51538095Y18043238D01*
X51490476Y18090857D01*
%TO.C,D9*%
X56526380Y4341904D02*
X55526380Y4341904D01*
X55526380Y4580000D01*
X55574000Y4722857D01*
X55669238Y4818095D01*
X55764476Y4865714D01*
X55954952Y4913333D01*
X56097809Y4913333D01*
X56288285Y4865714D01*
X56383523Y4818095D01*
X56478761Y4722857D01*
X56526380Y4580000D01*
X56526380Y4341904D01*
X56526380Y5389523D02*
X56526380Y5580000D01*
X56478761Y5675238D01*
X56431142Y5722857D01*
X56288285Y5818095D01*
X56097809Y5865714D01*
X55716857Y5865714D01*
X55621619Y5818095D01*
X55574000Y5770476D01*
X55526380Y5675238D01*
X55526380Y5484761D01*
X55574000Y5389523D01*
X55621619Y5341904D01*
X55716857Y5294285D01*
X55954952Y5294285D01*
X56050190Y5341904D01*
X56097809Y5389523D01*
X56145428Y5484761D01*
X56145428Y5675238D01*
X56097809Y5770476D01*
X56050190Y5818095D01*
X55954952Y5865714D01*
%TO.C,R24*%
X50157142Y22313619D02*
X49823809Y22789809D01*
X49585714Y22313619D02*
X49585714Y23313619D01*
X49966666Y23313619D01*
X50061904Y23266000D01*
X50109523Y23218380D01*
X50157142Y23123142D01*
X50157142Y22980285D01*
X50109523Y22885047D01*
X50061904Y22837428D01*
X49966666Y22789809D01*
X49585714Y22789809D01*
X50538095Y23218380D02*
X50585714Y23266000D01*
X50680952Y23313619D01*
X50919047Y23313619D01*
X51014285Y23266000D01*
X51061904Y23218380D01*
X51109523Y23123142D01*
X51109523Y23027904D01*
X51061904Y22885047D01*
X50490476Y22313619D01*
X51109523Y22313619D01*
X51966666Y22980285D02*
X51966666Y22313619D01*
X51728571Y23361238D02*
X51490476Y22646952D01*
X52109523Y22646952D01*
%TO.C,D7*%
X51526380Y4341904D02*
X50526380Y4341904D01*
X50526380Y4580000D01*
X50574000Y4722857D01*
X50669238Y4818095D01*
X50764476Y4865714D01*
X50954952Y4913333D01*
X51097809Y4913333D01*
X51288285Y4865714D01*
X51383523Y4818095D01*
X51478761Y4722857D01*
X51526380Y4580000D01*
X51526380Y4341904D01*
X50526380Y5246666D02*
X50526380Y5913333D01*
X51526380Y5484761D01*
%TO.C,C25*%
X50157142Y23612857D02*
X50109523Y23565238D01*
X49966666Y23517619D01*
X49871428Y23517619D01*
X49728571Y23565238D01*
X49633333Y23660476D01*
X49585714Y23755714D01*
X49538095Y23946190D01*
X49538095Y24089047D01*
X49585714Y24279523D01*
X49633333Y24374761D01*
X49728571Y24470000D01*
X49871428Y24517619D01*
X49966666Y24517619D01*
X50109523Y24470000D01*
X50157142Y24422380D01*
X50538095Y24422380D02*
X50585714Y24470000D01*
X50680952Y24517619D01*
X50919047Y24517619D01*
X51014285Y24470000D01*
X51061904Y24422380D01*
X51109523Y24327142D01*
X51109523Y24231904D01*
X51061904Y24089047D01*
X50490476Y23517619D01*
X51109523Y23517619D01*
X52014285Y24517619D02*
X51538095Y24517619D01*
X51490476Y24041428D01*
X51538095Y24089047D01*
X51633333Y24136666D01*
X51871428Y24136666D01*
X51966666Y24089047D01*
X52014285Y24041428D01*
X52061904Y23946190D01*
X52061904Y23708095D01*
X52014285Y23612857D01*
X51966666Y23565238D01*
X51871428Y23517619D01*
X51633333Y23517619D01*
X51538095Y23565238D01*
X51490476Y23612857D01*
%TO.C,D4*%
X66526380Y4341904D02*
X65526380Y4341904D01*
X65526380Y4580000D01*
X65574000Y4722857D01*
X65669238Y4818095D01*
X65764476Y4865714D01*
X65954952Y4913333D01*
X66097809Y4913333D01*
X66288285Y4865714D01*
X66383523Y4818095D01*
X66478761Y4722857D01*
X66526380Y4580000D01*
X66526380Y4341904D01*
X65859714Y5770476D02*
X66526380Y5770476D01*
X65478761Y5532380D02*
X66193047Y5294285D01*
X66193047Y5913333D01*
%TO.C,C22*%
X50157142Y21580857D02*
X50109523Y21533238D01*
X49966666Y21485619D01*
X49871428Y21485619D01*
X49728571Y21533238D01*
X49633333Y21628476D01*
X49585714Y21723714D01*
X49538095Y21914190D01*
X49538095Y22057047D01*
X49585714Y22247523D01*
X49633333Y22342761D01*
X49728571Y22438000D01*
X49871428Y22485619D01*
X49966666Y22485619D01*
X50109523Y22438000D01*
X50157142Y22390380D01*
X50538095Y22390380D02*
X50585714Y22438000D01*
X50680952Y22485619D01*
X50919047Y22485619D01*
X51014285Y22438000D01*
X51061904Y22390380D01*
X51109523Y22295142D01*
X51109523Y22199904D01*
X51061904Y22057047D01*
X50490476Y21485619D01*
X51109523Y21485619D01*
X51490476Y22390380D02*
X51538095Y22438000D01*
X51633333Y22485619D01*
X51871428Y22485619D01*
X51966666Y22438000D01*
X52014285Y22390380D01*
X52061904Y22295142D01*
X52061904Y22199904D01*
X52014285Y22057047D01*
X51442857Y21485619D01*
X52061904Y21485619D01*
%TO.C,D3*%
X71526380Y4341904D02*
X70526380Y4341904D01*
X70526380Y4580000D01*
X70574000Y4722857D01*
X70669238Y4818095D01*
X70764476Y4865714D01*
X70954952Y4913333D01*
X71097809Y4913333D01*
X71288285Y4865714D01*
X71383523Y4818095D01*
X71478761Y4722857D01*
X71526380Y4580000D01*
X71526380Y4341904D01*
X70526380Y5246666D02*
X70526380Y5865714D01*
X70907333Y5532380D01*
X70907333Y5675238D01*
X70954952Y5770476D01*
X71002571Y5818095D01*
X71097809Y5865714D01*
X71335904Y5865714D01*
X71431142Y5818095D01*
X71478761Y5770476D01*
X71526380Y5675238D01*
X71526380Y5389523D01*
X71478761Y5294285D01*
X71431142Y5246666D01*
%TO.C,D10*%
X71526380Y44505714D02*
X70526380Y44505714D01*
X70526380Y44743809D01*
X70574000Y44886666D01*
X70669238Y44981904D01*
X70764476Y45029523D01*
X70954952Y45077142D01*
X71097809Y45077142D01*
X71288285Y45029523D01*
X71383523Y44981904D01*
X71478761Y44886666D01*
X71526380Y44743809D01*
X71526380Y44505714D01*
X71526380Y46029523D02*
X71526380Y45458095D01*
X71526380Y45743809D02*
X70526380Y45743809D01*
X70669238Y45648571D01*
X70764476Y45553333D01*
X70812095Y45458095D01*
X70526380Y46648571D02*
X70526380Y46743809D01*
X70574000Y46839047D01*
X70621619Y46886666D01*
X70716857Y46934285D01*
X70907333Y46981904D01*
X71145428Y46981904D01*
X71335904Y46934285D01*
X71431142Y46886666D01*
X71478761Y46839047D01*
X71526380Y46743809D01*
X71526380Y46648571D01*
X71478761Y46553333D01*
X71431142Y46505714D01*
X71335904Y46458095D01*
X71145428Y46410476D01*
X70907333Y46410476D01*
X70716857Y46458095D01*
X70621619Y46505714D01*
X70574000Y46553333D01*
X70526380Y46648571D01*
%TO.C,R18*%
X50157142Y30441619D02*
X49823809Y30917809D01*
X49585714Y30441619D02*
X49585714Y31441619D01*
X49966666Y31441619D01*
X50061904Y31394000D01*
X50109523Y31346380D01*
X50157142Y31251142D01*
X50157142Y31108285D01*
X50109523Y31013047D01*
X50061904Y30965428D01*
X49966666Y30917809D01*
X49585714Y30917809D01*
X51109523Y30441619D02*
X50538095Y30441619D01*
X50823809Y30441619D02*
X50823809Y31441619D01*
X50728571Y31298761D01*
X50633333Y31203523D01*
X50538095Y31155904D01*
X51680952Y31013047D02*
X51585714Y31060666D01*
X51538095Y31108285D01*
X51490476Y31203523D01*
X51490476Y31251142D01*
X51538095Y31346380D01*
X51585714Y31394000D01*
X51680952Y31441619D01*
X51871428Y31441619D01*
X51966666Y31394000D01*
X52014285Y31346380D01*
X52061904Y31251142D01*
X52061904Y31203523D01*
X52014285Y31108285D01*
X51966666Y31060666D01*
X51871428Y31013047D01*
X51680952Y31013047D01*
X51585714Y30965428D01*
X51538095Y30917809D01*
X51490476Y30822571D01*
X51490476Y30632095D01*
X51538095Y30536857D01*
X51585714Y30489238D01*
X51680952Y30441619D01*
X51871428Y30441619D01*
X51966666Y30489238D01*
X52014285Y30536857D01*
X52061904Y30632095D01*
X52061904Y30822571D01*
X52014285Y30917809D01*
X51966666Y30965428D01*
X51871428Y31013047D01*
%TO.C,BT1*%
X43156285Y49737428D02*
X43299142Y49689809D01*
X43346761Y49642190D01*
X43394380Y49546952D01*
X43394380Y49404095D01*
X43346761Y49308857D01*
X43299142Y49261238D01*
X43203904Y49213619D01*
X42822952Y49213619D01*
X42822952Y50213619D01*
X43156285Y50213619D01*
X43251523Y50166000D01*
X43299142Y50118380D01*
X43346761Y50023142D01*
X43346761Y49927904D01*
X43299142Y49832666D01*
X43251523Y49785047D01*
X43156285Y49737428D01*
X42822952Y49737428D01*
X43680095Y50213619D02*
X44251523Y50213619D01*
X43965809Y49213619D02*
X43965809Y50213619D01*
X45108666Y49213619D02*
X44537238Y49213619D01*
X44822952Y49213619D02*
X44822952Y50213619D01*
X44727714Y50070761D01*
X44632476Y49975523D01*
X44537238Y49927904D01*
%TO.C,J2*%
X76936780Y25587366D02*
X77651066Y25587366D01*
X77793923Y25539747D01*
X77889161Y25444509D01*
X77936780Y25301652D01*
X77936780Y25206414D01*
X77032019Y26015938D02*
X76984400Y26063557D01*
X76936780Y26158795D01*
X76936780Y26396890D01*
X76984400Y26492128D01*
X77032019Y26539747D01*
X77127257Y26587366D01*
X77222495Y26587366D01*
X77365352Y26539747D01*
X77936780Y25968319D01*
X77936780Y26587366D01*
%TO.C,D8*%
X61526380Y4341904D02*
X60526380Y4341904D01*
X60526380Y4580000D01*
X60574000Y4722857D01*
X60669238Y4818095D01*
X60764476Y4865714D01*
X60954952Y4913333D01*
X61097809Y4913333D01*
X61288285Y4865714D01*
X61383523Y4818095D01*
X61478761Y4722857D01*
X61526380Y4580000D01*
X61526380Y4341904D01*
X60954952Y5484761D02*
X60907333Y5389523D01*
X60859714Y5341904D01*
X60764476Y5294285D01*
X60716857Y5294285D01*
X60621619Y5341904D01*
X60574000Y5389523D01*
X60526380Y5484761D01*
X60526380Y5675238D01*
X60574000Y5770476D01*
X60621619Y5818095D01*
X60716857Y5865714D01*
X60764476Y5865714D01*
X60859714Y5818095D01*
X60907333Y5770476D01*
X60954952Y5675238D01*
X60954952Y5484761D01*
X61002571Y5389523D01*
X61050190Y5341904D01*
X61145428Y5294285D01*
X61335904Y5294285D01*
X61431142Y5341904D01*
X61478761Y5389523D01*
X61526380Y5484761D01*
X61526380Y5675238D01*
X61478761Y5770476D01*
X61431142Y5818095D01*
X61335904Y5865714D01*
X61145428Y5865714D01*
X61050190Y5818095D01*
X61002571Y5770476D01*
X60954952Y5675238D01*
D13*
%TO.C,D2*%
X19960000Y9690000D02*
X19960000Y36690000D01*
X19960000Y9690000D02*
X5760000Y9690000D01*
X5760000Y9690000D02*
X5760000Y36690000D01*
X19960000Y36690000D02*
X5760000Y36690000D01*
D11*
%TO.C,J22*%
X42794000Y24064000D02*
X42794000Y16444000D01*
X42794000Y16444000D02*
X37714000Y16444000D01*
X37714000Y16444000D02*
X37714000Y24064000D01*
X37714000Y24064000D02*
X42794000Y24064000D01*
D14*
%TO.C,Y1*%
X44435000Y30990000D02*
X44435000Y37390000D01*
X39385000Y30990000D02*
X39385000Y37390000D01*
X44435000Y37390000D02*
G75*
G03*
X39385000Y37390000I-2525000J0D01*
G01*
X39385000Y30990000D02*
G75*
G03*
X44435000Y30990000I2525000J0D01*
G01*
%TO.C,R17*%
X52086742Y32526500D02*
X52561258Y32526500D01*
X52086742Y31481500D02*
X52561258Y31481500D01*
%TO.C,R25*%
X50562742Y17540500D02*
X51037258Y17540500D01*
X50562742Y16495500D02*
X51037258Y16495500D01*
%TO.C,D9*%
X55389000Y3480000D02*
X55389000Y7365000D01*
X53119000Y7365000D02*
X53119000Y3480000D01*
X55389000Y7365000D02*
X53119000Y7365000D01*
%TO.C,R24*%
X50562742Y21858500D02*
X51037258Y21858500D01*
X50562742Y20813500D02*
X51037258Y20813500D01*
%TO.C,D7*%
X50389000Y7365000D02*
X48119000Y7365000D01*
X50389000Y3480000D02*
X50389000Y7365000D01*
X48119000Y7365000D02*
X48119000Y3480000D01*
D11*
%TO.C,J6*%
X60579000Y46990000D02*
X62865000Y46990000D01*
X60452000Y44577000D02*
X60452000Y46863000D01*
D14*
%TO.C,C25*%
X50940580Y24890000D02*
X50659420Y24890000D01*
X50940580Y25910000D02*
X50659420Y25910000D01*
%TO.C,D4*%
X63119000Y7365000D02*
X63119000Y3480000D01*
X65389000Y7365000D02*
X63119000Y7365000D01*
X65389000Y3480000D02*
X65389000Y7365000D01*
%TO.C,C22*%
X50940580Y22858000D02*
X50659420Y22858000D01*
X50940580Y23878000D02*
X50659420Y23878000D01*
D11*
%TO.C,J5*%
X57912000Y44577000D02*
X57912000Y46863000D01*
X58039000Y46990000D02*
X60325000Y46990000D01*
D14*
%TO.C,D3*%
X68119000Y7365000D02*
X68119000Y3480000D01*
X70389000Y7365000D02*
X68119000Y7365000D01*
X70389000Y3480000D02*
X70389000Y7365000D01*
%TO.C,D10*%
X70389000Y48005000D02*
X68119000Y48005000D01*
X70389000Y44120000D02*
X70389000Y48005000D01*
X68119000Y48005000D02*
X68119000Y44120000D01*
%TO.C,R18*%
X50562742Y29986500D02*
X51037258Y29986500D01*
X50562742Y28941500D02*
X51037258Y28941500D01*
%TO.C,BT1*%
X41942000Y40966000D02*
X45942000Y40966000D01*
X47642000Y48966000D02*
X47642000Y42966000D01*
X40242000Y48966000D02*
X40242000Y42966000D01*
X45942000Y40966000D02*
X47642000Y42966000D01*
X41942000Y40966000D02*
X40242000Y42966000D01*
X41542000Y48966000D02*
G75*
G03*
X46333383Y48961415I2400000J4499997D01*
G01*
X47645723Y48966000D02*
G75*
G03*
X46334627Y48959972I-653723J-400000D01*
G01*
X41542000Y48966000D02*
G75*
G03*
X40236352Y48956673I-650000J-400001D01*
G01*
D11*
%TO.C,J2*%
X55753000Y31102300D02*
X55753000Y30480000D01*
X55753000Y23596600D02*
X55753000Y22885400D01*
X55753000Y33655000D02*
X55753000Y33032700D01*
X55727600Y35534600D02*
X55727600Y40894000D01*
X55765700Y26149300D02*
X55765700Y25438100D01*
X86156800Y41145000D02*
X86156800Y46620000D01*
X85331300Y41145000D02*
X86156800Y41145000D01*
X55753000Y23749000D02*
X55753000Y23596600D01*
X86156800Y46620000D02*
X91186000Y46620000D01*
X61201300Y41145000D02*
X79756000Y41145000D01*
X55753000Y18656300D02*
X55753000Y17919700D01*
X61163200Y12195000D02*
X86004400Y12195000D01*
X55753000Y21082000D02*
X55753000Y20421600D01*
X55753000Y28587700D02*
X55753000Y27940000D01*
X91186000Y46620000D02*
X91186000Y13670000D01*
X55765700Y14351000D02*
X55765700Y12966700D01*
D14*
%TO.C,D8*%
X60389000Y7365000D02*
X58119000Y7365000D01*
X60389000Y3480000D02*
X60389000Y7365000D01*
X58119000Y7365000D02*
X58119000Y3480000D01*
%TD*%
M02*
