%TF.GenerationSoftware,KiCad,Pcbnew,6.0.4-6f826c9f35~116~ubuntu20.04.1*%
%TF.CreationDate,2022-05-21T20:39:33+00:00*%
%TF.ProjectId,USTSIPIN02A,55535453-4950-4494-9e30-32412e6b6963,REV*%
%TF.SameCoordinates,Original*%
%TF.FileFunction,Copper,L3,Inr*%
%TF.FilePolarity,Positive*%
%FSLAX46Y46*%
G04 Gerber Fmt 4.6, Leading zero omitted, Abs format (unit mm)*
G04 Created by KiCad (PCBNEW 6.0.4-6f826c9f35~116~ubuntu20.04.1) date 2022-05-21 20:39:33*
%MOMM*%
%LPD*%
G01*
G04 APERTURE LIST*
%TA.AperFunction,ComponentPad*%
%ADD10C,6.000000*%
%TD*%
%TA.AperFunction,ComponentPad*%
%ADD11C,1.524000*%
%TD*%
%TA.AperFunction,ComponentPad*%
%ADD12C,1.500000*%
%TD*%
%TA.AperFunction,ComponentPad*%
%ADD13R,1.524000X1.524000*%
%TD*%
%TA.AperFunction,ComponentPad*%
%ADD14O,2.000000X1.000000*%
%TD*%
%TA.AperFunction,ComponentPad*%
%ADD15O,2.100000X1.050000*%
%TD*%
%TA.AperFunction,ViaPad*%
%ADD16C,0.800000*%
%TD*%
%TA.AperFunction,Conductor*%
%ADD17C,0.400000*%
%TD*%
G04 APERTURE END LIST*
D10*
%TO.N,GND*%
%TO.C,M2*%
X76200000Y45720000D03*
%TD*%
%TO.N,GND*%
%TO.C,M3*%
X5080000Y45720000D03*
%TD*%
%TO.N,GND*%
%TO.C,M4*%
X5080000Y5080000D03*
%TD*%
D11*
%TO.N,/K*%
%TO.C,D2*%
X15360000Y34190000D03*
%TO.N,/A*%
X10360000Y34190000D03*
%TD*%
D10*
%TO.N,GND*%
%TO.C,M1*%
X76200000Y5080000D03*
%TD*%
D12*
%TO.N,Net-(C30-Pad1)*%
%TO.C,Y1*%
X41910000Y31750000D03*
%TO.N,Net-(C33-Pad1)*%
X41910000Y36630000D03*
%TD*%
D13*
%TO.N,/cpu/PC4*%
%TO.C,J6*%
X61722000Y45720000D03*
%TD*%
%TO.N,/cpu/PC3*%
%TO.C,J5*%
X59182000Y45720000D03*
%TD*%
D14*
%TO.N,GND*%
%TO.C,J4*%
X88392000Y11062500D03*
X88392000Y2422500D03*
D15*
X84212000Y11062500D03*
X84212000Y2422500D03*
%TD*%
D16*
%TO.N,GND*%
X14732000Y12344400D03*
X19913600Y24130000D03*
X19913600Y25552400D03*
X10160000Y14478000D03*
X4622800Y16256000D03*
X4445000Y18415000D03*
X3175000Y19685000D03*
X2540000Y20955000D03*
X2540000Y22225000D03*
X2540000Y24130000D03*
X2540000Y26035000D03*
X2540000Y27940000D03*
X18288000Y29921200D03*
X19456400Y29972000D03*
X20624800Y29972000D03*
X4064000Y38354000D03*
X30480000Y5080000D03*
X26416000Y32004000D03*
X17272000Y33782000D03*
X58420000Y32004000D03*
X12700000Y45720000D03*
X62230000Y42164000D03*
X10320000Y27680000D03*
X79502000Y8890000D03*
X89535000Y16256000D03*
X46990000Y24130000D03*
X64008000Y32004000D03*
X17526000Y39116000D03*
X48768000Y41402000D03*
X15138400Y25552400D03*
X71374000Y47244000D03*
X24587200Y21996400D03*
X61722000Y48768000D03*
X27940000Y7620000D03*
X56388000Y23368000D03*
X17526000Y39116000D03*
X72898000Y25146000D03*
X12954000Y16256000D03*
X32766000Y33528000D03*
X20320000Y45720000D03*
X89408000Y47498000D03*
X22352000Y38862000D03*
X33020000Y48260000D03*
X36576000Y17526000D03*
X52070000Y35814000D03*
X33020000Y45720000D03*
X69342000Y1778000D03*
X85471000Y30607000D03*
X43180000Y10160000D03*
X61976000Y1778000D03*
X24130000Y38862000D03*
X40640000Y10160000D03*
X36830000Y34290000D03*
X83439000Y14478000D03*
X70612000Y30734000D03*
X70358000Y42164000D03*
X52578000Y1778000D03*
X87122000Y30607000D03*
X63500000Y42164000D03*
X24892000Y32004000D03*
X89535000Y14351000D03*
X48260000Y13970000D03*
X25400000Y48260000D03*
X5334000Y32766000D03*
X45974000Y20320000D03*
X11430000Y13716000D03*
X4064000Y34544000D03*
X36576000Y23622000D03*
X30480000Y45720000D03*
X22860000Y45720000D03*
X46990000Y22606000D03*
X10319457Y30200565D03*
X50546000Y48260000D03*
X83947000Y18796000D03*
X80010000Y28448000D03*
X65786000Y9144000D03*
X12700000Y48260000D03*
X12700000Y7620000D03*
X7366000Y19304000D03*
X35560000Y45720000D03*
X21844000Y29718000D03*
X32766000Y14478000D03*
X42672000Y40132000D03*
X77724000Y33782000D03*
X65278000Y26670000D03*
X28956000Y38862000D03*
X57150000Y13970000D03*
X40640000Y40132000D03*
X35560000Y5080000D03*
X32766000Y17272000D03*
X33020000Y5080000D03*
X30226000Y18338800D03*
X8382000Y12700000D03*
X88392000Y7874000D03*
X89662000Y20828000D03*
X22860000Y5080000D03*
X27940000Y45720000D03*
X30480000Y14630400D03*
X89662000Y25908000D03*
X70104000Y48768000D03*
X27940000Y32004000D03*
X43180000Y12700000D03*
X4064000Y36576000D03*
X73152000Y30226000D03*
X59436000Y24130000D03*
X39116000Y28702000D03*
X23368000Y32004000D03*
X52832000Y48768000D03*
X65024000Y18542000D03*
X36830000Y31750000D03*
X72644000Y20574000D03*
X59690000Y48768000D03*
X4064000Y32766000D03*
X20320000Y7620000D03*
X28702000Y34544000D03*
X13208000Y32766000D03*
X22860000Y7620000D03*
X61214000Y15494000D03*
X23368000Y16052800D03*
X22352000Y32512000D03*
X4986000Y26918000D03*
X58674000Y1778000D03*
X36830000Y38608000D03*
X88392000Y6350000D03*
X52070000Y11430000D03*
X14732000Y19558000D03*
X10160000Y45720000D03*
X88392000Y4572000D03*
X14986000Y21082000D03*
X9304000Y22092000D03*
X5080000Y12700000D03*
X36830000Y33020000D03*
X38100000Y12700000D03*
X69342000Y22352000D03*
X10668000Y31750000D03*
X57150000Y15240000D03*
X27686000Y38862000D03*
X80772000Y32258000D03*
X5334000Y36576000D03*
X8890000Y19304000D03*
X88900000Y30607000D03*
X6858000Y32766000D03*
X80137000Y15240000D03*
X12446000Y31750000D03*
X28448000Y28448000D03*
X48514000Y27940000D03*
X11938000Y34036000D03*
X32766000Y29464000D03*
X71374000Y45212000D03*
X72898000Y27686000D03*
X36576000Y13970000D03*
X63500000Y27940000D03*
X25400000Y45720000D03*
X32766000Y20828000D03*
X36830000Y30480000D03*
X83566000Y32258000D03*
X81153000Y45339000D03*
X81280000Y27178000D03*
X88392000Y9271000D03*
X63754000Y48768000D03*
X44450000Y24638000D03*
X63754000Y13970000D03*
X54610000Y48768000D03*
X13462000Y21590000D03*
X25400000Y7620000D03*
X32766000Y31496000D03*
X17780000Y48260000D03*
X21844000Y17272000D03*
X10668000Y21965000D03*
X15240000Y7620000D03*
X44196000Y42672000D03*
X11684000Y35306000D03*
X57912000Y48768000D03*
X49530000Y1778000D03*
X15240000Y45720000D03*
X38100000Y5080000D03*
X44196000Y23114000D03*
X43180000Y5080000D03*
X70612000Y29464000D03*
X83058000Y48006000D03*
X19253200Y15544800D03*
X12225000Y21965000D03*
X7620000Y35052000D03*
X27940000Y5080000D03*
X67310000Y45212000D03*
X20828000Y38862000D03*
X40640000Y12700000D03*
X71882000Y8001000D03*
X89154000Y35052000D03*
X36830000Y29210000D03*
X14986000Y36068000D03*
X12954000Y12700000D03*
X18186400Y25501600D03*
X5334000Y38354000D03*
X38608000Y40386000D03*
X25908000Y38862000D03*
X56388000Y48768000D03*
X7874000Y32766000D03*
X19558000Y32766000D03*
X72390000Y10160000D03*
X30480000Y48260000D03*
X19151600Y17373600D03*
X50038000Y27940000D03*
X30327600Y16967200D03*
X24892000Y29464000D03*
X12860000Y23870000D03*
X81153000Y2413000D03*
X6858000Y12700000D03*
X65532000Y32004000D03*
X70612000Y27940000D03*
X10160000Y48260000D03*
X43942000Y20320000D03*
X31750000Y34036000D03*
X64008000Y26670000D03*
X8382000Y34036000D03*
X80899000Y18669000D03*
X53086000Y12700000D03*
X55626000Y1778000D03*
X83185000Y45339000D03*
X59944000Y29210000D03*
X19100800Y19253200D03*
X32512000Y39624000D03*
X87503000Y47498000D03*
X16611600Y25501600D03*
X85344000Y47498000D03*
X27940000Y48260000D03*
X4064000Y39624000D03*
X13716000Y31242000D03*
X50546000Y14732000D03*
X69088000Y18542000D03*
X22860000Y48260000D03*
X72898000Y41910000D03*
X83439000Y16510000D03*
X45212000Y40132000D03*
X65786000Y48768000D03*
X32766000Y23114000D03*
X24638000Y30734000D03*
X4986000Y25648000D03*
X78359000Y15240000D03*
X20320000Y48260000D03*
X56896000Y33782000D03*
X36576000Y25400000D03*
X68072000Y48768000D03*
X11176000Y15748000D03*
X35560000Y43434000D03*
X73914000Y9652000D03*
X25400000Y5080000D03*
X24739600Y17475200D03*
X6604000Y34544000D03*
X10320000Y28950000D03*
X36576000Y21590000D03*
X38100000Y10160000D03*
X40640000Y5080000D03*
X59944000Y26924000D03*
X15240000Y48260000D03*
X23622000Y21996400D03*
X50546000Y46482000D03*
X45720000Y12700000D03*
X5334000Y39624000D03*
X82042000Y32258000D03*
X38862000Y25400000D03*
X17780000Y45720000D03*
X7366000Y31242000D03*
X10320000Y25775000D03*
X23368000Y14274800D03*
X35560000Y48260000D03*
X63500000Y28956000D03*
X3810000Y30480000D03*
X23723600Y17475200D03*
X76962000Y25146000D03*
X68580000Y13208000D03*
X17780000Y7620000D03*
X89662000Y23368000D03*
X81407000Y48006000D03*
X19050000Y38862000D03*
X76962000Y23622000D03*
X5334000Y34544000D03*
X58674000Y26924000D03*
X63754000Y12192000D03*
X14478000Y16256000D03*
X28702000Y11684000D03*
X65532000Y1778000D03*
%TO.N,Net-(R13-Pad2)*%
X26365200Y30429200D03*
X26365200Y23215600D03*
%TO.N,/cpu/RST#_P*%
X42672000Y24130000D03*
%TO.N,/cpu/PC0*%
X84369236Y38427429D03*
X56438536Y44200622D03*
X68580000Y34290000D03*
X60960000Y18415000D03*
%TO.N,/cpu/PC1*%
X60198000Y17272000D03*
X57404000Y43942000D03*
X67310000Y37338000D03*
X81745417Y37295417D03*
X67056000Y34290000D03*
%TO.N,/cpu/PB5*%
X48260000Y29718000D03*
%TO.N,/cpu/PB7*%
X47244000Y28956000D03*
%TO.N,/cpu/PB6*%
X50800000Y18542000D03*
X51308000Y33782000D03*
%TO.N,+3V3*%
X70866000Y43434000D03*
X69088000Y16510000D03*
X48768000Y16510000D03*
X77470000Y19209500D03*
X71628000Y14986000D03*
%TO.N,+5V*%
X52832000Y38353989D03*
X74930000Y33020000D03*
X29210000Y36068000D03*
%TO.N,PA1*%
X57150000Y32004000D03*
X27686000Y10922000D03*
X27940000Y26924000D03*
%TO.N,PA0*%
X30250211Y15603127D03*
X57150000Y27686000D03*
%TO.N,Vin*%
X70866000Y20066000D03*
X68326000Y19304000D03*
X72070000Y23302000D03*
%TO.N,PB0*%
X24338980Y18390902D03*
X53340000Y25654000D03*
%TO.N,POWER_ANALOG_3V3*%
X50292000Y44450000D03*
X77724000Y38100000D03*
X64262000Y46228000D03*
X32512000Y36830000D03*
X81797000Y34027000D03*
X31191200Y35255200D03*
X66040000Y40894000D03*
X28969000Y13017800D03*
%TO.N,/cpu/SD_VDD*%
X48805500Y24390730D03*
%TO.N,Net-(D3-Pad1)*%
X69342000Y7620000D03*
%TO.N,Net-(D4-Pad1)*%
X64262000Y7874000D03*
%TO.N,/cpu/TIMEPULSE*%
X89154000Y43180000D03*
X64457500Y35052000D03*
X51308000Y38354000D03*
X69596000Y35052000D03*
%TO.N,Net-(D7-Pad1)*%
X48260000Y8382000D03*
%TO.N,/cpu/EXTINT*%
X88354500Y41910000D03*
X52049291Y43185569D03*
%TO.N,/cpu/GEO_STAT*%
X78486000Y40769020D03*
X53014500Y42926000D03*
%TO.N,/cpu/TX1*%
X50546000Y42926000D03*
X84582000Y37084000D03*
%TO.N,/cpu/RX1*%
X46482000Y39878000D03*
X84357500Y35814000D03*
%TO.N,Net-(D8-Pad1)*%
X58166000Y8382000D03*
%TO.N,/power/D+*%
X81788000Y7112000D03*
X81026000Y12700000D03*
%TO.N,/power/RXLED{slash}CBUS1*%
X65278000Y11430000D03*
X71628000Y18288000D03*
%TO.N,/power/TXLED{slash}CBUS2*%
X69342000Y11684000D03*
X75400500Y14299011D03*
%TO.N,/cpu/PB4*%
X52324000Y33020000D03*
%TO.N,Net-(D9-Pad1)*%
X53314168Y8153832D03*
%TO.N,RST#*%
X48006000Y25146000D03*
X76660635Y20621365D03*
%TO.N,Net-(D10-Pad1)*%
X67310000Y46990000D03*
%TO.N,/power/VBUS*%
X73152000Y12700000D03*
X82083519Y13503519D03*
X82042000Y17526000D03*
X82042000Y4318000D03*
X82804000Y27178000D03*
%TO.N,RX0*%
X45720000Y37865500D03*
X78815336Y23800664D03*
%TO.N,TX0*%
X45974000Y38862000D03*
X79835635Y23796365D03*
X77978000Y17526000D03*
%TO.N,/cpu/PC5_D1*%
X50038000Y11684000D03*
X56535408Y35646098D03*
%TO.N,/cpu/PC7_D3*%
X59436000Y14732000D03*
X58441003Y36068000D03*
%TO.N,/cpu/PC6_D2*%
X54610000Y11430000D03*
X57441500Y36068000D03*
%TO.N,Net-(BT1-Pad1)*%
X66053000Y29985000D03*
%TD*%
D17*
%TO.N,/cpu/PC0*%
X68072000Y25527000D02*
X60960000Y18415000D01*
X82437713Y36495906D02*
X84369236Y38427429D01*
X68660094Y36495906D02*
X68580000Y36415812D01*
X68072000Y33782000D02*
X68072000Y25527000D01*
X68580000Y34290000D02*
X68072000Y33782000D01*
X84369236Y38427429D02*
X84295807Y38354000D01*
X56438536Y43776784D02*
X63719414Y36495906D01*
X68660094Y36495906D02*
X82437713Y36495906D01*
X56438536Y44200622D02*
X56438536Y43776784D01*
X68580000Y36415812D02*
X68580000Y34290000D01*
X63719414Y36495906D02*
X68660094Y36495906D01*
%TO.N,/cpu/PC1*%
X81745417Y37295417D02*
X81545426Y37095426D01*
X60160489Y18758489D02*
X60160489Y17309511D01*
X67056000Y34290000D02*
X67472480Y33873520D01*
X67321426Y37095426D02*
X67321426Y37326574D01*
X67321426Y37326574D02*
X67310000Y37338000D01*
X60160489Y17309511D02*
X60198000Y17272000D01*
X81545426Y37095426D02*
X67321426Y37095426D01*
X67321426Y37095426D02*
X64250574Y37095426D01*
X67472480Y26070480D02*
X60160489Y18758489D01*
X67472480Y33873520D02*
X67472480Y26070480D01*
X64250574Y37095426D02*
X57404000Y43942000D01*
%TO.N,+5V*%
X52832000Y38353989D02*
X49958500Y35480489D01*
X31509080Y36068000D02*
X29210000Y36068000D01*
X49958500Y35480489D02*
X32096591Y35480489D01*
X32096591Y35480489D02*
X31509080Y36068000D01*
%TO.N,PA1*%
X52070000Y26924000D02*
X57150000Y32004000D01*
X27940000Y26924000D02*
X52070000Y26924000D01*
%TO.N,PA0*%
X45575127Y15603127D02*
X57150000Y27178000D01*
X30250211Y15603127D02*
X45575127Y15603127D01*
X57150000Y27178000D02*
X57150000Y27686000D01*
%TO.N,PB0*%
X53340000Y25654000D02*
X46824311Y19138311D01*
X25086389Y19138311D02*
X24338980Y18390902D01*
X46824311Y19138311D02*
X25086389Y19138311D01*
%TO.N,POWER_ANALOG_3V3*%
X63537511Y46952489D02*
X64262000Y46228000D01*
X52794489Y46952489D02*
X63537511Y46952489D01*
X68072000Y38862000D02*
X66040000Y40894000D01*
X40132000Y44450000D02*
X50292000Y44450000D01*
X32512000Y36830000D02*
X40132000Y44450000D01*
X50292000Y44450000D02*
X52794489Y46952489D01*
X77724000Y38100000D02*
X68834000Y38100000D01*
X68834000Y38100000D02*
X68072000Y38862000D01*
%TO.N,/cpu/TIMEPULSE*%
X59489470Y39878000D02*
X52832000Y39878000D01*
X89154000Y37846000D02*
X89154000Y43180000D01*
X52832000Y39878000D02*
X51308000Y38354000D01*
X69821489Y34826511D02*
X86077489Y34826511D01*
X86106000Y34798000D02*
X89154000Y37846000D01*
X69596000Y35052000D02*
X69821489Y34826511D01*
X64457500Y35052000D02*
X64315470Y35052000D01*
X64315470Y35052000D02*
X59489470Y39878000D01*
X86077489Y34826511D02*
X86106000Y34798000D01*
%TO.N,/cpu/EXTINT*%
X59042680Y43434000D02*
X66040000Y43434000D01*
X52049291Y43185569D02*
X53863855Y45000133D01*
X53863855Y45000133D02*
X57476547Y45000133D01*
X69504491Y39969509D02*
X86414009Y39969509D01*
X66040000Y43434000D02*
X69504491Y39969509D01*
X57476547Y45000133D02*
X59042680Y43434000D01*
X86414009Y39969509D02*
X88354500Y41910000D01*
%TO.N,/cpu/PC5_D1*%
X61284960Y22848660D02*
X50120300Y11684000D01*
X56697822Y35646098D02*
X61284960Y31058960D01*
X50120300Y11684000D02*
X50038000Y11684000D01*
X56535408Y35646098D02*
X56697822Y35646098D01*
X61284960Y31058960D02*
X61284960Y22848660D01*
%TO.N,/cpu/PC7_D3*%
X59398489Y19266489D02*
X62484000Y22352000D01*
X62484000Y32025003D02*
X58441003Y36068000D01*
X62484000Y22352000D02*
X62484000Y32025003D01*
X59436000Y14732000D02*
X59398489Y14769511D01*
X59398489Y14769511D02*
X59398489Y19266489D01*
%TO.N,/cpu/PC6_D2*%
X61884480Y22600330D02*
X54610000Y15325849D01*
X54610000Y15325849D02*
X54610000Y11430000D01*
X57441500Y35847460D02*
X61884480Y31404480D01*
X61884480Y31404480D02*
X61884480Y22600330D01*
X57441500Y36068000D02*
X57441500Y35847460D01*
%TD*%
%TA.AperFunction,Conductor*%
%TO.N,GND*%
G36*
X90878539Y50275815D02*
G01*
X90924294Y50223011D01*
X90935500Y50171500D01*
X90935500Y628500D01*
X90915815Y561461D01*
X90863011Y515706D01*
X90811500Y504500D01*
X628500Y504500D01*
X561461Y524185D01*
X515706Y576989D01*
X504500Y628500D01*
X504500Y4324862D01*
X81386758Y4324862D01*
X81387578Y4317434D01*
X81387578Y4317432D01*
X81389474Y4300256D01*
X81404035Y4168367D01*
X81406601Y4161355D01*
X81406602Y4161351D01*
X81436206Y4080456D01*
X81458143Y4020510D01*
X81545958Y3889828D01*
X81586981Y3852500D01*
X81656878Y3788898D01*
X81656882Y3788895D01*
X81662410Y3783865D01*
X81800776Y3708738D01*
X81903031Y3681912D01*
X81945841Y3670681D01*
X81945843Y3670681D01*
X81953069Y3668785D01*
X82030127Y3667575D01*
X82103025Y3666429D01*
X82103028Y3666429D01*
X82110495Y3666312D01*
X82117776Y3667980D01*
X82117780Y3667980D01*
X82256681Y3699793D01*
X82263968Y3701462D01*
X82404625Y3772205D01*
X82410306Y3777057D01*
X82410309Y3777059D01*
X82498639Y3852500D01*
X84131534Y3852500D01*
X84151313Y3702264D01*
X84154422Y3694757D01*
X84154423Y3694755D01*
X84165229Y3668668D01*
X84209302Y3562267D01*
X84301549Y3442049D01*
X84421767Y3349802D01*
X84491765Y3320808D01*
X84554255Y3294923D01*
X84554257Y3294922D01*
X84561764Y3291813D01*
X84569823Y3290752D01*
X84670260Y3277529D01*
X84670264Y3277529D01*
X84674280Y3277000D01*
X84749720Y3277000D01*
X84753736Y3277529D01*
X84753740Y3277529D01*
X84854177Y3290752D01*
X84862236Y3291813D01*
X84869743Y3294922D01*
X84869745Y3294923D01*
X84932235Y3320808D01*
X85002233Y3349802D01*
X85122451Y3442049D01*
X85214698Y3562267D01*
X85258771Y3668668D01*
X85269577Y3694755D01*
X85269578Y3694757D01*
X85272687Y3702264D01*
X85292466Y3852500D01*
X85272687Y4002736D01*
X85214698Y4142733D01*
X85122451Y4262951D01*
X85002233Y4355198D01*
X84932235Y4384192D01*
X84869745Y4410077D01*
X84869743Y4410078D01*
X84862236Y4413187D01*
X84854177Y4414248D01*
X84753740Y4427471D01*
X84753736Y4427471D01*
X84749720Y4428000D01*
X84674280Y4428000D01*
X84670264Y4427471D01*
X84670260Y4427471D01*
X84569823Y4414248D01*
X84561764Y4413187D01*
X84554257Y4410078D01*
X84554255Y4410077D01*
X84491765Y4384192D01*
X84421767Y4355198D01*
X84301549Y4262951D01*
X84209302Y4142733D01*
X84151313Y4002736D01*
X84131534Y3852500D01*
X82498639Y3852500D01*
X82518666Y3869605D01*
X82518667Y3869606D01*
X82524348Y3874458D01*
X82535393Y3889828D01*
X82610734Y3994677D01*
X82616224Y4002317D01*
X82674950Y4148402D01*
X82676793Y4161351D01*
X82696562Y4300256D01*
X82696562Y4300260D01*
X82697134Y4304277D01*
X82697278Y4318000D01*
X82678363Y4474306D01*
X82622710Y4621588D01*
X82614337Y4633771D01*
X82537768Y4745179D01*
X82537765Y4745182D01*
X82533531Y4751343D01*
X82415976Y4856081D01*
X82276831Y4929755D01*
X82124128Y4968111D01*
X82042329Y4968539D01*
X81974158Y4968896D01*
X81974157Y4968896D01*
X81966684Y4968935D01*
X81959421Y4967191D01*
X81959418Y4967191D01*
X81890136Y4950557D01*
X81813588Y4932180D01*
X81673679Y4859968D01*
X81555034Y4756467D01*
X81464501Y4627652D01*
X81407309Y4480961D01*
X81386758Y4324862D01*
X504500Y4324862D01*
X504500Y8388862D01*
X47604758Y8388862D01*
X47605578Y8381434D01*
X47605578Y8381432D01*
X47612677Y8317135D01*
X47622035Y8232367D01*
X47624601Y8225355D01*
X47624602Y8225351D01*
X47646543Y8165396D01*
X47676143Y8084510D01*
X47763958Y7953828D01*
X47798183Y7922686D01*
X47874878Y7852898D01*
X47874882Y7852895D01*
X47880410Y7847865D01*
X47886980Y7844298D01*
X47886981Y7844297D01*
X48012208Y7776304D01*
X48018776Y7772738D01*
X48121031Y7745912D01*
X48163841Y7734681D01*
X48163843Y7734681D01*
X48171069Y7732785D01*
X48248127Y7731575D01*
X48321025Y7730429D01*
X48321028Y7730429D01*
X48328495Y7730312D01*
X48335776Y7731980D01*
X48335780Y7731980D01*
X48474681Y7763793D01*
X48481968Y7765462D01*
X48622625Y7836205D01*
X48628306Y7841057D01*
X48628309Y7841059D01*
X48736666Y7933605D01*
X48736667Y7933606D01*
X48742348Y7938458D01*
X48753393Y7953828D01*
X48808347Y8030306D01*
X48834224Y8066317D01*
X48872163Y8160694D01*
X52658926Y8160694D01*
X52659746Y8153266D01*
X52659746Y8153264D01*
X52670887Y8052350D01*
X52676203Y8004199D01*
X52678769Y7997187D01*
X52678770Y7997183D01*
X52708263Y7916592D01*
X52730311Y7856342D01*
X52734482Y7850135D01*
X52794856Y7760290D01*
X52818126Y7725660D01*
X52872861Y7675855D01*
X52929046Y7624730D01*
X52929050Y7624727D01*
X52934578Y7619697D01*
X52941148Y7616130D01*
X52941149Y7616129D01*
X53066376Y7548136D01*
X53072944Y7544570D01*
X53175199Y7517744D01*
X53218009Y7506513D01*
X53218011Y7506513D01*
X53225237Y7504617D01*
X53302295Y7503407D01*
X53375193Y7502261D01*
X53375196Y7502261D01*
X53382663Y7502144D01*
X53389944Y7503812D01*
X53389948Y7503812D01*
X53528849Y7535625D01*
X53536136Y7537294D01*
X53676793Y7608037D01*
X53682474Y7612889D01*
X53682477Y7612891D01*
X53790834Y7705437D01*
X53790835Y7705438D01*
X53796516Y7710290D01*
X53803678Y7720256D01*
X53853741Y7789927D01*
X53888392Y7838149D01*
X53947118Y7984234D01*
X53948961Y7997183D01*
X53968730Y8136088D01*
X53968730Y8136092D01*
X53969302Y8140109D01*
X53969446Y8153832D01*
X53966571Y8177588D01*
X53951430Y8302713D01*
X53951429Y8302717D01*
X53950531Y8310138D01*
X53927027Y8372340D01*
X53920784Y8388862D01*
X57510758Y8388862D01*
X57511578Y8381434D01*
X57511578Y8381432D01*
X57518677Y8317135D01*
X57528035Y8232367D01*
X57530601Y8225355D01*
X57530602Y8225351D01*
X57552543Y8165396D01*
X57582143Y8084510D01*
X57669958Y7953828D01*
X57704183Y7922686D01*
X57780878Y7852898D01*
X57780882Y7852895D01*
X57786410Y7847865D01*
X57792980Y7844298D01*
X57792981Y7844297D01*
X57918208Y7776304D01*
X57924776Y7772738D01*
X58027031Y7745912D01*
X58069841Y7734681D01*
X58069843Y7734681D01*
X58077069Y7732785D01*
X58154127Y7731575D01*
X58227025Y7730429D01*
X58227028Y7730429D01*
X58234495Y7730312D01*
X58241776Y7731980D01*
X58241780Y7731980D01*
X58380681Y7763793D01*
X58387968Y7765462D01*
X58528625Y7836205D01*
X58534306Y7841057D01*
X58534309Y7841059D01*
X58580912Y7880862D01*
X63606758Y7880862D01*
X63607578Y7873434D01*
X63607578Y7873432D01*
X63611688Y7836205D01*
X63624035Y7724367D01*
X63678143Y7576510D01*
X63765958Y7445828D01*
X63800183Y7414686D01*
X63876878Y7344898D01*
X63876882Y7344895D01*
X63882410Y7339865D01*
X63888980Y7336298D01*
X63888981Y7336297D01*
X64014208Y7268304D01*
X64020776Y7264738D01*
X64123031Y7237912D01*
X64165841Y7226681D01*
X64165843Y7226681D01*
X64173069Y7224785D01*
X64250127Y7223575D01*
X64323025Y7222429D01*
X64323028Y7222429D01*
X64330495Y7222312D01*
X64337776Y7223980D01*
X64337780Y7223980D01*
X64476681Y7255793D01*
X64483968Y7257462D01*
X64624625Y7328205D01*
X64630306Y7333057D01*
X64630309Y7333059D01*
X64738666Y7425605D01*
X64738667Y7425606D01*
X64744348Y7430458D01*
X64755393Y7445828D01*
X64778363Y7477795D01*
X64836224Y7558317D01*
X64863779Y7626862D01*
X68686758Y7626862D01*
X68687578Y7619434D01*
X68687578Y7619432D01*
X68700044Y7506513D01*
X68704035Y7470367D01*
X68706601Y7463355D01*
X68706602Y7463351D01*
X68721825Y7421753D01*
X68758143Y7322510D01*
X68762314Y7316303D01*
X68825474Y7222312D01*
X68845958Y7191828D01*
X68868183Y7171605D01*
X68956878Y7090898D01*
X68956882Y7090895D01*
X68962410Y7085865D01*
X69100776Y7010738D01*
X69203031Y6983912D01*
X69245841Y6972681D01*
X69245843Y6972681D01*
X69253069Y6970785D01*
X69330127Y6969575D01*
X69403025Y6968429D01*
X69403028Y6968429D01*
X69410495Y6968312D01*
X69417776Y6969980D01*
X69417780Y6969980D01*
X69556681Y7001793D01*
X69563968Y7003462D01*
X69704625Y7074205D01*
X69710306Y7079057D01*
X69710309Y7079059D01*
X69756912Y7118862D01*
X81132758Y7118862D01*
X81133578Y7111434D01*
X81133578Y7111432D01*
X81135474Y7094256D01*
X81150035Y6962367D01*
X81204143Y6814510D01*
X81291958Y6683828D01*
X81314183Y6663605D01*
X81402878Y6582898D01*
X81402882Y6582895D01*
X81408410Y6577865D01*
X81546776Y6502738D01*
X81649031Y6475912D01*
X81691841Y6464681D01*
X81691843Y6464681D01*
X81699069Y6462785D01*
X81776127Y6461575D01*
X81849025Y6460429D01*
X81849028Y6460429D01*
X81856495Y6460312D01*
X81863776Y6461980D01*
X81863780Y6461980D01*
X82002681Y6493793D01*
X82009968Y6495462D01*
X82150625Y6566205D01*
X82156306Y6571057D01*
X82156309Y6571059D01*
X82264666Y6663605D01*
X82264667Y6663606D01*
X82270348Y6668458D01*
X82281393Y6683828D01*
X82301798Y6712225D01*
X82362224Y6796317D01*
X82420950Y6942402D01*
X82422793Y6955351D01*
X82442562Y7094256D01*
X82442562Y7094260D01*
X82443134Y7098277D01*
X82443278Y7112000D01*
X82429630Y7224785D01*
X82425262Y7260881D01*
X82425261Y7260885D01*
X82424363Y7268306D01*
X82403881Y7322510D01*
X82371354Y7408592D01*
X82371352Y7408595D01*
X82368710Y7415588D01*
X82364473Y7421753D01*
X82283768Y7539179D01*
X82283765Y7539182D01*
X82279531Y7545343D01*
X82233251Y7586577D01*
X82167559Y7645107D01*
X82167558Y7645108D01*
X82161976Y7650081D01*
X82022831Y7723755D01*
X81870128Y7762111D01*
X81788329Y7762539D01*
X81720158Y7762896D01*
X81720157Y7762896D01*
X81712684Y7762935D01*
X81705421Y7761191D01*
X81705418Y7761191D01*
X81636136Y7744558D01*
X81559588Y7726180D01*
X81419679Y7653968D01*
X81301034Y7550467D01*
X81210501Y7421652D01*
X81153309Y7274961D01*
X81132758Y7118862D01*
X69756912Y7118862D01*
X69818666Y7171605D01*
X69818667Y7171606D01*
X69824348Y7176458D01*
X69835393Y7191828D01*
X69857297Y7222312D01*
X69916224Y7304317D01*
X69974950Y7450402D01*
X69976793Y7463351D01*
X69996562Y7602256D01*
X69996562Y7602260D01*
X69997134Y7606277D01*
X69997278Y7620000D01*
X69993215Y7653579D01*
X69979262Y7768881D01*
X69979261Y7768885D01*
X69978363Y7776306D01*
X69957289Y7832078D01*
X69925354Y7916592D01*
X69925352Y7916595D01*
X69922710Y7923588D01*
X69918473Y7929753D01*
X69837768Y8047179D01*
X69837765Y8047182D01*
X69833531Y8053343D01*
X69787251Y8094577D01*
X69721559Y8153107D01*
X69721558Y8153108D01*
X69715976Y8158081D01*
X69576831Y8231755D01*
X69424128Y8270111D01*
X69342329Y8270539D01*
X69274158Y8270896D01*
X69274157Y8270896D01*
X69266684Y8270935D01*
X69259421Y8269191D01*
X69259418Y8269191D01*
X69190136Y8252557D01*
X69113588Y8234180D01*
X68973679Y8161968D01*
X68968048Y8157055D01*
X68968047Y8157055D01*
X68963701Y8153264D01*
X68855034Y8058467D01*
X68764501Y7929652D01*
X68707309Y7782961D01*
X68686758Y7626862D01*
X64863779Y7626862D01*
X64894950Y7704402D01*
X64896793Y7717351D01*
X64916562Y7856256D01*
X64916562Y7856260D01*
X64917134Y7860277D01*
X64917278Y7874000D01*
X64912124Y7916592D01*
X64899262Y8022881D01*
X64899261Y8022885D01*
X64898363Y8030306D01*
X64875228Y8091531D01*
X64845354Y8170592D01*
X64845352Y8170595D01*
X64842710Y8177588D01*
X64807887Y8228256D01*
X64757768Y8301179D01*
X64757765Y8301182D01*
X64753531Y8307343D01*
X64707251Y8348577D01*
X64641559Y8407107D01*
X64641558Y8407108D01*
X64635976Y8412081D01*
X64496831Y8485755D01*
X64344128Y8524111D01*
X64262329Y8524539D01*
X64194158Y8524896D01*
X64194157Y8524896D01*
X64186684Y8524935D01*
X64179421Y8523191D01*
X64179418Y8523191D01*
X64110136Y8506558D01*
X64033588Y8488180D01*
X63893679Y8415968D01*
X63775034Y8312467D01*
X63684501Y8183652D01*
X63681785Y8176687D01*
X63681785Y8176686D01*
X63667524Y8140109D01*
X63627309Y8036961D01*
X63606758Y7880862D01*
X58580912Y7880862D01*
X58642666Y7933605D01*
X58642667Y7933606D01*
X58648348Y7938458D01*
X58659393Y7953828D01*
X58714347Y8030306D01*
X58740224Y8066317D01*
X58798950Y8212402D01*
X58800793Y8225351D01*
X58820562Y8364256D01*
X58820562Y8364260D01*
X58821134Y8368277D01*
X58821278Y8382000D01*
X58817215Y8415579D01*
X58803262Y8530881D01*
X58803261Y8530885D01*
X58802363Y8538306D01*
X58781961Y8592299D01*
X58749354Y8678592D01*
X58749352Y8678595D01*
X58746710Y8685588D01*
X58739959Y8695411D01*
X58661768Y8809179D01*
X58661765Y8809182D01*
X58657531Y8815343D01*
X58539976Y8920081D01*
X58400831Y8993755D01*
X58248128Y9032111D01*
X58166329Y9032539D01*
X58098158Y9032896D01*
X58098157Y9032896D01*
X58090684Y9032935D01*
X58083421Y9031191D01*
X58083418Y9031191D01*
X58014136Y9014558D01*
X57937588Y8996180D01*
X57797679Y8923968D01*
X57679034Y8820467D01*
X57588501Y8691652D01*
X57531309Y8544961D01*
X57510758Y8388862D01*
X53920784Y8388862D01*
X53897522Y8450424D01*
X53897520Y8450427D01*
X53894878Y8457420D01*
X53877809Y8482256D01*
X53809936Y8581011D01*
X53809933Y8581014D01*
X53805699Y8587175D01*
X53703095Y8678592D01*
X53693727Y8686939D01*
X53693726Y8686940D01*
X53688144Y8691913D01*
X53548999Y8765587D01*
X53396296Y8803943D01*
X53314497Y8804371D01*
X53246326Y8804728D01*
X53246325Y8804728D01*
X53238852Y8804767D01*
X53231589Y8803023D01*
X53231586Y8803023D01*
X53162304Y8786390D01*
X53085756Y8768012D01*
X52945847Y8695800D01*
X52827202Y8592299D01*
X52736669Y8463484D01*
X52679477Y8316793D01*
X52658926Y8160694D01*
X48872163Y8160694D01*
X48892950Y8212402D01*
X48894793Y8225351D01*
X48914562Y8364256D01*
X48914562Y8364260D01*
X48915134Y8368277D01*
X48915278Y8382000D01*
X48911215Y8415579D01*
X48897262Y8530881D01*
X48897261Y8530885D01*
X48896363Y8538306D01*
X48875961Y8592299D01*
X48843354Y8678592D01*
X48843352Y8678595D01*
X48840710Y8685588D01*
X48833959Y8695411D01*
X48755768Y8809179D01*
X48755765Y8809182D01*
X48751531Y8815343D01*
X48633976Y8920081D01*
X48494831Y8993755D01*
X48342128Y9032111D01*
X48260329Y9032539D01*
X48192158Y9032896D01*
X48192157Y9032896D01*
X48184684Y9032935D01*
X48177421Y9031191D01*
X48177418Y9031191D01*
X48108136Y9014558D01*
X48031588Y8996180D01*
X47891679Y8923968D01*
X47773034Y8820467D01*
X47682501Y8691652D01*
X47625309Y8544961D01*
X47604758Y8388862D01*
X504500Y8388862D01*
X504500Y9632500D01*
X84131534Y9632500D01*
X84151313Y9482264D01*
X84209302Y9342267D01*
X84301549Y9222049D01*
X84421767Y9129802D01*
X84491765Y9100808D01*
X84554255Y9074923D01*
X84554257Y9074922D01*
X84561764Y9071813D01*
X84569823Y9070752D01*
X84670260Y9057529D01*
X84670264Y9057529D01*
X84674280Y9057000D01*
X84749720Y9057000D01*
X84753736Y9057529D01*
X84753740Y9057529D01*
X84854177Y9070752D01*
X84862236Y9071813D01*
X84869743Y9074922D01*
X84869745Y9074923D01*
X84932235Y9100808D01*
X85002233Y9129802D01*
X85122451Y9222049D01*
X85214698Y9342267D01*
X85272687Y9482264D01*
X85292466Y9632500D01*
X85272687Y9782736D01*
X85214698Y9922733D01*
X85122451Y10042951D01*
X85002233Y10135198D01*
X84932235Y10164192D01*
X84869745Y10190077D01*
X84869743Y10190078D01*
X84862236Y10193187D01*
X84854177Y10194248D01*
X84753740Y10207471D01*
X84753736Y10207471D01*
X84749720Y10208000D01*
X84674280Y10208000D01*
X84670264Y10207471D01*
X84670260Y10207471D01*
X84569823Y10194248D01*
X84561764Y10193187D01*
X84554257Y10190078D01*
X84554255Y10190077D01*
X84491765Y10164192D01*
X84421767Y10135198D01*
X84301549Y10042951D01*
X84209302Y9922733D01*
X84151313Y9782736D01*
X84131534Y9632500D01*
X504500Y9632500D01*
X504500Y10928862D01*
X27030758Y10928862D01*
X27031578Y10921434D01*
X27031578Y10921432D01*
X27033474Y10904256D01*
X27048035Y10772367D01*
X27102143Y10624510D01*
X27189958Y10493828D01*
X27212183Y10473605D01*
X27300878Y10392898D01*
X27300882Y10392895D01*
X27306410Y10387865D01*
X27444776Y10312738D01*
X27547031Y10285912D01*
X27589841Y10274681D01*
X27589843Y10274681D01*
X27597069Y10272785D01*
X27674127Y10271575D01*
X27747025Y10270429D01*
X27747028Y10270429D01*
X27754495Y10270312D01*
X27761776Y10271980D01*
X27761780Y10271980D01*
X27900681Y10303793D01*
X27907968Y10305462D01*
X28048625Y10376205D01*
X28054306Y10381057D01*
X28054309Y10381059D01*
X28162666Y10473605D01*
X28162667Y10473606D01*
X28168348Y10478458D01*
X28179393Y10493828D01*
X28199798Y10522225D01*
X28260224Y10606317D01*
X28318950Y10752402D01*
X28320793Y10765351D01*
X28340562Y10904256D01*
X28340562Y10904260D01*
X28341134Y10908277D01*
X28341278Y10922000D01*
X28327630Y11034785D01*
X28323262Y11070881D01*
X28323261Y11070885D01*
X28322363Y11078306D01*
X28301881Y11132510D01*
X28269354Y11218592D01*
X28269352Y11218595D01*
X28266710Y11225588D01*
X28262473Y11231753D01*
X28181768Y11349179D01*
X28181765Y11349182D01*
X28177531Y11355343D01*
X28131251Y11396577D01*
X28065559Y11455107D01*
X28065558Y11455108D01*
X28059976Y11460081D01*
X27920831Y11533755D01*
X27768128Y11572111D01*
X27686329Y11572539D01*
X27618158Y11572896D01*
X27618157Y11572896D01*
X27610684Y11572935D01*
X27603421Y11571191D01*
X27603418Y11571191D01*
X27534136Y11554558D01*
X27457588Y11536180D01*
X27317679Y11463968D01*
X27199034Y11360467D01*
X27108501Y11231652D01*
X27051309Y11084961D01*
X27030758Y10928862D01*
X504500Y10928862D01*
X504500Y13024662D01*
X28313758Y13024662D01*
X28314578Y13017234D01*
X28314578Y13017232D01*
X28316184Y13002686D01*
X28331035Y12868167D01*
X28333601Y12861155D01*
X28333602Y12861151D01*
X28363206Y12780256D01*
X28385143Y12720310D01*
X28472958Y12589628D01*
X28523816Y12543351D01*
X28583878Y12488698D01*
X28583882Y12488695D01*
X28589410Y12483665D01*
X28727776Y12408538D01*
X28820102Y12384317D01*
X28872841Y12370481D01*
X28872843Y12370481D01*
X28880069Y12368585D01*
X28957127Y12367375D01*
X29030025Y12366229D01*
X29030028Y12366229D01*
X29037495Y12366112D01*
X29044776Y12367780D01*
X29044780Y12367780D01*
X29183681Y12399593D01*
X29190968Y12401262D01*
X29331625Y12472005D01*
X29337306Y12476857D01*
X29337309Y12476859D01*
X29445666Y12569405D01*
X29445667Y12569406D01*
X29451348Y12574258D01*
X29462393Y12589628D01*
X29528952Y12682256D01*
X29543224Y12702117D01*
X29601950Y12848202D01*
X29603003Y12855599D01*
X29623562Y13000056D01*
X29623562Y13000060D01*
X29624134Y13004077D01*
X29624278Y13017800D01*
X29609676Y13138467D01*
X29606262Y13166681D01*
X29606261Y13166685D01*
X29605363Y13174106D01*
X29593300Y13206029D01*
X29552354Y13314392D01*
X29552352Y13314395D01*
X29549710Y13321388D01*
X29541096Y13333921D01*
X29464768Y13444979D01*
X29464765Y13444982D01*
X29460531Y13451143D01*
X29342976Y13555881D01*
X29203831Y13629555D01*
X29051128Y13667911D01*
X28969329Y13668339D01*
X28901158Y13668696D01*
X28901157Y13668696D01*
X28893684Y13668735D01*
X28886421Y13666991D01*
X28886418Y13666991D01*
X28817136Y13650358D01*
X28740588Y13631980D01*
X28600679Y13559768D01*
X28482034Y13456267D01*
X28391501Y13327452D01*
X28388785Y13320487D01*
X28388785Y13320486D01*
X28386091Y13313577D01*
X28334309Y13180761D01*
X28313758Y13024662D01*
X504500Y13024662D01*
X504500Y15609989D01*
X29594969Y15609989D01*
X29595789Y15602561D01*
X29595789Y15602559D01*
X29596430Y15596753D01*
X29612246Y15453494D01*
X29666354Y15305637D01*
X29754169Y15174955D01*
X29798210Y15134881D01*
X29865089Y15074025D01*
X29865093Y15074022D01*
X29870621Y15068992D01*
X29877191Y15065425D01*
X29877192Y15065424D01*
X29932143Y15035588D01*
X30008987Y14993865D01*
X30111242Y14967039D01*
X30154052Y14955808D01*
X30154054Y14955808D01*
X30161280Y14953912D01*
X30238338Y14952702D01*
X30311236Y14951556D01*
X30311239Y14951556D01*
X30318706Y14951439D01*
X30325987Y14953107D01*
X30325991Y14953107D01*
X30464892Y14984920D01*
X30472179Y14986589D01*
X30612836Y15057332D01*
X30618517Y15062184D01*
X30618520Y15062186D01*
X30689626Y15122917D01*
X30753388Y15151488D01*
X30770158Y15152627D01*
X45541024Y15152627D01*
X45555598Y15151768D01*
X45580232Y15148852D01*
X45580235Y15148852D01*
X45589437Y15147763D01*
X45634139Y15155927D01*
X45647149Y15158303D01*
X45650991Y15158943D01*
X45693558Y15165343D01*
X45709089Y15167678D01*
X45715602Y15170806D01*
X45722700Y15172102D01*
X45730926Y15176375D01*
X45774790Y15199160D01*
X45778273Y15200900D01*
X45793467Y15208196D01*
X45831206Y15226318D01*
X45836426Y15231143D01*
X45836647Y15231292D01*
X45842915Y15234548D01*
X45847955Y15238852D01*
X45885224Y15276121D01*
X45888734Y15279496D01*
X45923876Y15311980D01*
X45923878Y15311983D01*
X45930683Y15318273D01*
X45934364Y15324611D01*
X45939955Y15330852D01*
X47125965Y16516862D01*
X48112758Y16516862D01*
X48113578Y16509434D01*
X48113578Y16509432D01*
X48115474Y16492256D01*
X48130035Y16360367D01*
X48184143Y16212510D01*
X48271958Y16081828D01*
X48316175Y16041594D01*
X48382878Y15980898D01*
X48382882Y15980895D01*
X48388410Y15975865D01*
X48394980Y15972298D01*
X48394981Y15972297D01*
X48504599Y15912779D01*
X48526776Y15900738D01*
X48629031Y15873912D01*
X48671841Y15862681D01*
X48671843Y15862681D01*
X48679069Y15860785D01*
X48756127Y15859575D01*
X48829025Y15858429D01*
X48829028Y15858429D01*
X48836495Y15858312D01*
X48843776Y15859980D01*
X48843780Y15859980D01*
X48982681Y15891793D01*
X48989968Y15893462D01*
X49130625Y15964205D01*
X49136306Y15969057D01*
X49136309Y15969059D01*
X49244666Y16061605D01*
X49244667Y16061606D01*
X49250348Y16066458D01*
X49261393Y16081828D01*
X49306854Y16145095D01*
X49342224Y16194317D01*
X49400950Y16340402D01*
X49402793Y16353351D01*
X49422562Y16492256D01*
X49422562Y16492260D01*
X49423134Y16496277D01*
X49423278Y16510000D01*
X49420823Y16530289D01*
X49405262Y16658881D01*
X49405261Y16658885D01*
X49404363Y16666306D01*
X49383597Y16721262D01*
X49351354Y16806592D01*
X49351352Y16806595D01*
X49348710Y16813588D01*
X49344473Y16819753D01*
X49263768Y16937179D01*
X49263765Y16937182D01*
X49259531Y16943343D01*
X49141976Y17048081D01*
X49002831Y17121755D01*
X48850128Y17160111D01*
X48768329Y17160539D01*
X48700158Y17160896D01*
X48700157Y17160896D01*
X48692684Y17160935D01*
X48685421Y17159191D01*
X48685418Y17159191D01*
X48616136Y17142557D01*
X48539588Y17124180D01*
X48399679Y17051968D01*
X48281034Y16948467D01*
X48190501Y16819652D01*
X48133309Y16672961D01*
X48112758Y16516862D01*
X47125965Y16516862D01*
X49157965Y18548862D01*
X50144758Y18548862D01*
X50145578Y18541434D01*
X50145578Y18541432D01*
X50154797Y18457927D01*
X50162035Y18392367D01*
X50164601Y18385355D01*
X50164602Y18385351D01*
X50169341Y18372402D01*
X50216143Y18244510D01*
X50303958Y18113828D01*
X50338770Y18082152D01*
X50414878Y18012898D01*
X50414882Y18012895D01*
X50420410Y18007865D01*
X50426980Y18004298D01*
X50426981Y18004297D01*
X50540784Y17942507D01*
X50558776Y17932738D01*
X50661031Y17905912D01*
X50703841Y17894681D01*
X50703843Y17894681D01*
X50711069Y17892785D01*
X50788127Y17891575D01*
X50861025Y17890429D01*
X50861028Y17890429D01*
X50868495Y17890312D01*
X50875776Y17891980D01*
X50875780Y17891980D01*
X51014681Y17923793D01*
X51021968Y17925462D01*
X51162625Y17996205D01*
X51168306Y18001057D01*
X51168309Y18001059D01*
X51276666Y18093605D01*
X51276667Y18093606D01*
X51282348Y18098458D01*
X51293393Y18113828D01*
X51338739Y18176935D01*
X51374224Y18226317D01*
X51432950Y18372402D01*
X51435583Y18390902D01*
X51454562Y18524256D01*
X51454562Y18524260D01*
X51455134Y18528277D01*
X51455278Y18542000D01*
X51453163Y18559480D01*
X51437262Y18690881D01*
X51437261Y18690885D01*
X51436363Y18698306D01*
X51422037Y18736220D01*
X51383354Y18838592D01*
X51383352Y18838595D01*
X51380710Y18845588D01*
X51375302Y18853457D01*
X51295768Y18969179D01*
X51295765Y18969182D01*
X51291531Y18975343D01*
X51219072Y19039902D01*
X51179559Y19075107D01*
X51179558Y19075108D01*
X51173976Y19080081D01*
X51034831Y19153755D01*
X50882128Y19192111D01*
X50800329Y19192539D01*
X50732158Y19192896D01*
X50732157Y19192896D01*
X50724684Y19192935D01*
X50717421Y19191191D01*
X50717418Y19191191D01*
X50648136Y19174557D01*
X50571588Y19156180D01*
X50431679Y19083968D01*
X50426048Y19079055D01*
X50426047Y19079055D01*
X50383339Y19041798D01*
X50313034Y18980467D01*
X50222501Y18851652D01*
X50219785Y18844687D01*
X50219785Y18844686D01*
X50208086Y18814680D01*
X50165309Y18704961D01*
X50144758Y18548862D01*
X49157965Y18548862D01*
X57444436Y26835333D01*
X57455349Y26845031D01*
X57474830Y26860389D01*
X57482110Y26866128D01*
X57515505Y26914446D01*
X57517719Y26917546D01*
X57552634Y26964816D01*
X57555027Y26971632D01*
X57559131Y26977569D01*
X57576826Y27033519D01*
X57578057Y27037209D01*
X57594448Y27083884D01*
X57594449Y27083888D01*
X57597519Y27092631D01*
X57597798Y27099735D01*
X57597847Y27099986D01*
X57599980Y27106730D01*
X57600500Y27113337D01*
X57600500Y27160805D01*
X57620185Y27227844D01*
X57629756Y27240244D01*
X57632348Y27242458D01*
X57724224Y27370317D01*
X57782950Y27516402D01*
X57784793Y27529351D01*
X57804562Y27668256D01*
X57804562Y27668260D01*
X57805134Y27672277D01*
X57805278Y27686000D01*
X57801215Y27719579D01*
X57787262Y27834881D01*
X57787261Y27834885D01*
X57786363Y27842306D01*
X57730710Y27989588D01*
X57722337Y28001771D01*
X57645768Y28113179D01*
X57645765Y28113182D01*
X57641531Y28119343D01*
X57523976Y28224081D01*
X57384831Y28297755D01*
X57232128Y28336111D01*
X57150329Y28336539D01*
X57082158Y28336896D01*
X57082157Y28336896D01*
X57074684Y28336935D01*
X57067421Y28335191D01*
X57067418Y28335191D01*
X56998136Y28318558D01*
X56921588Y28300180D01*
X56781679Y28227968D01*
X56663034Y28124467D01*
X56572501Y27995652D01*
X56515309Y27848961D01*
X56494758Y27692862D01*
X56495578Y27685434D01*
X56495578Y27685432D01*
X56503192Y27616467D01*
X56512035Y27536367D01*
X56514601Y27529355D01*
X56514602Y27529351D01*
X56539220Y27462081D01*
X56566143Y27388510D01*
X56570312Y27382306D01*
X56570315Y27382300D01*
X56572441Y27379136D01*
X56573279Y27376482D01*
X56573706Y27375645D01*
X56573566Y27375574D01*
X56593490Y27312512D01*
X56575178Y27245085D01*
X56557197Y27222300D01*
X45424843Y16089946D01*
X45363520Y16056461D01*
X45337162Y16053627D01*
X30769713Y16053627D01*
X30702674Y16073312D01*
X30687224Y16085044D01*
X30629770Y16136234D01*
X30629768Y16136235D01*
X30624187Y16141208D01*
X30485042Y16214882D01*
X30332339Y16253238D01*
X30250540Y16253666D01*
X30182369Y16254023D01*
X30182368Y16254023D01*
X30174895Y16254062D01*
X30167632Y16252318D01*
X30167629Y16252318D01*
X30098347Y16235684D01*
X30021799Y16217307D01*
X29881890Y16145095D01*
X29763245Y16041594D01*
X29672712Y15912779D01*
X29615520Y15766088D01*
X29594969Y15609989D01*
X504500Y15609989D01*
X504500Y18397764D01*
X23683738Y18397764D01*
X23684558Y18390336D01*
X23684558Y18390334D01*
X23686445Y18373245D01*
X23701015Y18241269D01*
X23703581Y18234257D01*
X23703582Y18234253D01*
X23708321Y18221304D01*
X23755123Y18093412D01*
X23842938Y17962730D01*
X23865163Y17942507D01*
X23953858Y17861800D01*
X23953862Y17861797D01*
X23959390Y17856767D01*
X23965960Y17853200D01*
X23965961Y17853199D01*
X24091188Y17785206D01*
X24097756Y17781640D01*
X24161261Y17764980D01*
X24242821Y17743583D01*
X24242823Y17743583D01*
X24250049Y17741687D01*
X24327107Y17740477D01*
X24400005Y17739331D01*
X24400008Y17739331D01*
X24407475Y17739214D01*
X24414756Y17740882D01*
X24414760Y17740882D01*
X24553661Y17772695D01*
X24560948Y17774364D01*
X24701605Y17845107D01*
X24707286Y17849959D01*
X24707289Y17849961D01*
X24815646Y17942507D01*
X24815647Y17942508D01*
X24821328Y17947360D01*
X24832373Y17962730D01*
X24856427Y17996205D01*
X24913204Y18075219D01*
X24971930Y18221304D01*
X24974772Y18241269D01*
X24983544Y18302910D01*
X24993554Y18373245D01*
X25022488Y18436842D01*
X25028636Y18443455D01*
X25236673Y18651492D01*
X25297996Y18684977D01*
X25324354Y18687811D01*
X46790208Y18687811D01*
X46804782Y18686952D01*
X46829416Y18684036D01*
X46829419Y18684036D01*
X46838621Y18682947D01*
X46892801Y18692842D01*
X46896333Y18693487D01*
X46900175Y18694127D01*
X46933328Y18699112D01*
X46958273Y18702862D01*
X46964786Y18705990D01*
X46971884Y18707286D01*
X47008523Y18726318D01*
X47023974Y18734344D01*
X47027457Y18736084D01*
X47080390Y18761502D01*
X47085610Y18766327D01*
X47085831Y18766476D01*
X47092099Y18769732D01*
X47097139Y18774036D01*
X47134408Y18811305D01*
X47137918Y18814680D01*
X47173060Y18847164D01*
X47173062Y18847167D01*
X47179867Y18853457D01*
X47183548Y18859795D01*
X47189139Y18866036D01*
X53289571Y24966468D01*
X53350894Y24999953D01*
X53379199Y25002772D01*
X53401024Y25002429D01*
X53401027Y25002429D01*
X53408495Y25002312D01*
X53415776Y25003980D01*
X53415780Y25003980D01*
X53554681Y25035793D01*
X53561968Y25037462D01*
X53702625Y25108205D01*
X53708306Y25113057D01*
X53708309Y25113059D01*
X53816666Y25205605D01*
X53816667Y25205606D01*
X53822348Y25210458D01*
X53914224Y25338317D01*
X53972950Y25484402D01*
X53974003Y25491799D01*
X53994562Y25636256D01*
X53994562Y25636260D01*
X53995134Y25640277D01*
X53995278Y25654000D01*
X53991215Y25687579D01*
X53977262Y25802881D01*
X53977261Y25802885D01*
X53976363Y25810306D01*
X53920710Y25957588D01*
X53912337Y25969771D01*
X53835768Y26081179D01*
X53835765Y26081182D01*
X53831531Y26087343D01*
X53713976Y26192081D01*
X53574831Y26265755D01*
X53422128Y26304111D01*
X53340329Y26304539D01*
X53272158Y26304896D01*
X53272157Y26304896D01*
X53264684Y26304935D01*
X53257421Y26303191D01*
X53257418Y26303191D01*
X53188136Y26286558D01*
X53111588Y26268180D01*
X52971679Y26195968D01*
X52853034Y26092467D01*
X52762501Y25963652D01*
X52705309Y25816961D01*
X52688276Y25687579D01*
X52686462Y25673803D01*
X52658196Y25609906D01*
X52651204Y25602307D01*
X46674027Y19625130D01*
X46612704Y19591645D01*
X46586346Y19588811D01*
X25120492Y19588811D01*
X25105918Y19589670D01*
X25081284Y19592586D01*
X25081281Y19592586D01*
X25072079Y19593675D01*
X25035415Y19586979D01*
X25014367Y19583135D01*
X25010525Y19582495D01*
X24977372Y19577510D01*
X24952427Y19573760D01*
X24945914Y19570632D01*
X24938816Y19569336D01*
X24930590Y19565063D01*
X24886726Y19542278D01*
X24883252Y19540542D01*
X24830310Y19515120D01*
X24825090Y19510295D01*
X24824869Y19510146D01*
X24818601Y19506890D01*
X24813561Y19502586D01*
X24776292Y19465317D01*
X24772782Y19461942D01*
X24737640Y19429458D01*
X24737638Y19429455D01*
X24730833Y19423165D01*
X24727152Y19416827D01*
X24721561Y19410586D01*
X24388936Y19077961D01*
X24327613Y19044476D01*
X24300607Y19041644D01*
X24271139Y19041798D01*
X24271138Y19041798D01*
X24263664Y19041837D01*
X24256401Y19040093D01*
X24256398Y19040093D01*
X24187116Y19023460D01*
X24110568Y19005082D01*
X23970659Y18932870D01*
X23965028Y18927957D01*
X23965027Y18927957D01*
X23934787Y18901577D01*
X23852014Y18829369D01*
X23761481Y18700554D01*
X23758765Y18693589D01*
X23758765Y18693588D01*
X23751660Y18675365D01*
X23704289Y18553863D01*
X23683738Y18397764D01*
X504500Y18397764D01*
X504500Y23222462D01*
X25709958Y23222462D01*
X25710778Y23215034D01*
X25710778Y23215032D01*
X25718545Y23144677D01*
X25727235Y23065967D01*
X25729801Y23058955D01*
X25729802Y23058951D01*
X25753846Y22993250D01*
X25781343Y22918110D01*
X25869158Y22787428D01*
X25903472Y22756205D01*
X25980078Y22686498D01*
X25980082Y22686495D01*
X25985610Y22681465D01*
X25992180Y22677898D01*
X25992181Y22677897D01*
X26038647Y22652668D01*
X26123976Y22606338D01*
X26226231Y22579512D01*
X26269041Y22568281D01*
X26269043Y22568281D01*
X26276269Y22566385D01*
X26353327Y22565175D01*
X26426225Y22564029D01*
X26426228Y22564029D01*
X26433695Y22563912D01*
X26440976Y22565580D01*
X26440980Y22565580D01*
X26579881Y22597393D01*
X26587168Y22599062D01*
X26727825Y22669805D01*
X26733506Y22674657D01*
X26733509Y22674659D01*
X26841866Y22767205D01*
X26841867Y22767206D01*
X26847548Y22772058D01*
X26858593Y22787428D01*
X26906145Y22853605D01*
X26939424Y22899917D01*
X26998150Y23046002D01*
X26999993Y23058951D01*
X27019762Y23197856D01*
X27019762Y23197860D01*
X27020334Y23201877D01*
X27020478Y23215600D01*
X27016246Y23250570D01*
X27002462Y23364481D01*
X27002461Y23364485D01*
X27001563Y23371906D01*
X26971721Y23450881D01*
X26948554Y23512192D01*
X26948552Y23512195D01*
X26945910Y23519188D01*
X26937537Y23531371D01*
X26860968Y23642779D01*
X26860965Y23642782D01*
X26856731Y23648943D01*
X26790408Y23708035D01*
X26744759Y23748707D01*
X26744758Y23748708D01*
X26739176Y23753681D01*
X26600031Y23827355D01*
X26447328Y23865711D01*
X26365529Y23866139D01*
X26297358Y23866496D01*
X26297357Y23866496D01*
X26289884Y23866535D01*
X26282621Y23864791D01*
X26282618Y23864791D01*
X26220132Y23849789D01*
X26136788Y23829780D01*
X25996879Y23757568D01*
X25991248Y23752655D01*
X25991247Y23752655D01*
X25978477Y23741515D01*
X25878234Y23654067D01*
X25787701Y23525252D01*
X25784985Y23518287D01*
X25784985Y23518286D01*
X25779093Y23503174D01*
X25730509Y23378561D01*
X25709958Y23222462D01*
X504500Y23222462D01*
X504500Y24136862D01*
X42016758Y24136862D01*
X42017578Y24129434D01*
X42017578Y24129432D01*
X42030814Y24009541D01*
X42034035Y23980367D01*
X42036601Y23973355D01*
X42036602Y23973351D01*
X42058778Y23912753D01*
X42088143Y23832510D01*
X42092314Y23826303D01*
X42150873Y23739159D01*
X42175958Y23701828D01*
X42230693Y23652023D01*
X42286878Y23600898D01*
X42286882Y23600895D01*
X42292410Y23595865D01*
X42298980Y23592298D01*
X42298981Y23592297D01*
X42422276Y23525353D01*
X42430776Y23520738D01*
X42533031Y23493912D01*
X42575841Y23482681D01*
X42575843Y23482681D01*
X42583069Y23480785D01*
X42660127Y23479575D01*
X42733025Y23478429D01*
X42733028Y23478429D01*
X42740495Y23478312D01*
X42747776Y23479980D01*
X42747780Y23479980D01*
X42886681Y23511793D01*
X42893968Y23513462D01*
X43034625Y23584205D01*
X43040306Y23589057D01*
X43040309Y23589059D01*
X43148666Y23681605D01*
X43148667Y23681606D01*
X43154348Y23686458D01*
X43165393Y23701828D01*
X43192133Y23739042D01*
X43246224Y23814317D01*
X43304950Y23960402D01*
X43306793Y23973351D01*
X43326562Y24112256D01*
X43326562Y24112260D01*
X43327134Y24116277D01*
X43327278Y24130000D01*
X43325551Y24144273D01*
X43309262Y24278881D01*
X43309261Y24278885D01*
X43308363Y24286306D01*
X43290428Y24333771D01*
X43255354Y24426592D01*
X43255352Y24426595D01*
X43252710Y24433588D01*
X43243852Y24446476D01*
X43167768Y24557179D01*
X43167765Y24557182D01*
X43163531Y24563343D01*
X43045976Y24668081D01*
X42906831Y24741755D01*
X42754128Y24780111D01*
X42672329Y24780539D01*
X42604158Y24780896D01*
X42604157Y24780896D01*
X42596684Y24780935D01*
X42589421Y24779191D01*
X42589418Y24779191D01*
X42520136Y24762558D01*
X42443588Y24744180D01*
X42303679Y24671968D01*
X42185034Y24568467D01*
X42094501Y24439652D01*
X42037309Y24292961D01*
X42016758Y24136862D01*
X504500Y24136862D01*
X504500Y25152862D01*
X47350758Y25152862D01*
X47351578Y25145434D01*
X47351578Y25145432D01*
X47354997Y25114466D01*
X47368035Y24996367D01*
X47422143Y24848510D01*
X47509958Y24717828D01*
X47543484Y24687322D01*
X47620878Y24616898D01*
X47620882Y24616895D01*
X47626410Y24611865D01*
X47632980Y24608298D01*
X47632981Y24608297D01*
X47758208Y24540304D01*
X47764776Y24536738D01*
X47846833Y24515211D01*
X47909841Y24498681D01*
X47909843Y24498681D01*
X47917069Y24496785D01*
X48030386Y24495005D01*
X48097108Y24474270D01*
X48142028Y24420754D01*
X48151689Y24384627D01*
X48156800Y24338333D01*
X48167535Y24241097D01*
X48170101Y24234085D01*
X48170102Y24234081D01*
X48172134Y24228529D01*
X48221643Y24093240D01*
X48309458Y23962558D01*
X48328484Y23945246D01*
X48420378Y23861628D01*
X48420382Y23861625D01*
X48425910Y23856595D01*
X48432480Y23853028D01*
X48432481Y23853027D01*
X48557708Y23785034D01*
X48564276Y23781468D01*
X48655378Y23757568D01*
X48709341Y23743411D01*
X48709343Y23743411D01*
X48716569Y23741515D01*
X48792768Y23740318D01*
X48866525Y23739159D01*
X48866528Y23739159D01*
X48873995Y23739042D01*
X48881276Y23740710D01*
X48881280Y23740710D01*
X49020181Y23772523D01*
X49027468Y23774192D01*
X49168125Y23844935D01*
X49173806Y23849787D01*
X49173809Y23849789D01*
X49282166Y23942335D01*
X49282167Y23942336D01*
X49287848Y23947188D01*
X49298893Y23962558D01*
X49319298Y23990955D01*
X49379724Y24075047D01*
X49438450Y24221132D01*
X49440141Y24233014D01*
X49460062Y24372986D01*
X49460062Y24372990D01*
X49460634Y24377007D01*
X49460778Y24390730D01*
X49454846Y24439753D01*
X49442762Y24539611D01*
X49442761Y24539615D01*
X49441863Y24547036D01*
X49431908Y24573380D01*
X49388854Y24687322D01*
X49388852Y24687325D01*
X49386210Y24694318D01*
X49352355Y24743577D01*
X49301268Y24817909D01*
X49301265Y24817912D01*
X49297031Y24824073D01*
X49179476Y24928811D01*
X49040331Y25002485D01*
X48907725Y25035793D01*
X48894878Y25039020D01*
X48887628Y25040841D01*
X48856955Y25041002D01*
X48783188Y25041388D01*
X48716252Y25061423D01*
X48670774Y25114466D01*
X48660735Y25150489D01*
X48643262Y25294881D01*
X48643261Y25294885D01*
X48642363Y25302306D01*
X48593023Y25432882D01*
X48589354Y25442592D01*
X48589352Y25442595D01*
X48586710Y25449588D01*
X48577948Y25462337D01*
X48501768Y25573179D01*
X48501765Y25573182D01*
X48497531Y25579343D01*
X48451251Y25620577D01*
X48385559Y25679107D01*
X48385558Y25679108D01*
X48379976Y25684081D01*
X48240831Y25757755D01*
X48088128Y25796111D01*
X48006329Y25796539D01*
X47938158Y25796896D01*
X47938157Y25796896D01*
X47930684Y25796935D01*
X47923421Y25795191D01*
X47923418Y25795191D01*
X47854136Y25778558D01*
X47777588Y25760180D01*
X47637679Y25687968D01*
X47519034Y25584467D01*
X47428501Y25455652D01*
X47371309Y25308961D01*
X47350758Y25152862D01*
X504500Y25152862D01*
X504500Y26930862D01*
X27284758Y26930862D01*
X27285578Y26923434D01*
X27285578Y26923432D01*
X27294234Y26845031D01*
X27302035Y26774367D01*
X27304601Y26767355D01*
X27304602Y26767351D01*
X27334206Y26686456D01*
X27356143Y26626510D01*
X27360314Y26620303D01*
X27423474Y26526312D01*
X27443958Y26495828D01*
X27469748Y26472361D01*
X27554878Y26394898D01*
X27554882Y26394895D01*
X27560410Y26389865D01*
X27698776Y26314738D01*
X27801031Y26287912D01*
X27843841Y26276681D01*
X27843843Y26276681D01*
X27851069Y26274785D01*
X27928127Y26273575D01*
X28001025Y26272429D01*
X28001028Y26272429D01*
X28008495Y26272312D01*
X28015776Y26273980D01*
X28015780Y26273980D01*
X28154681Y26305793D01*
X28161968Y26307462D01*
X28302625Y26378205D01*
X28308306Y26383057D01*
X28308309Y26383059D01*
X28379415Y26443790D01*
X28443177Y26472361D01*
X28459947Y26473500D01*
X52035897Y26473500D01*
X52050471Y26472641D01*
X52075105Y26469725D01*
X52075108Y26469725D01*
X52084310Y26468636D01*
X52120974Y26475332D01*
X52142022Y26479176D01*
X52145864Y26479816D01*
X52179017Y26484801D01*
X52203962Y26488551D01*
X52210475Y26491679D01*
X52217573Y26492975D01*
X52225799Y26497248D01*
X52269663Y26520033D01*
X52273146Y26521773D01*
X52326079Y26547191D01*
X52331299Y26552016D01*
X52331520Y26552165D01*
X52337788Y26555421D01*
X52342828Y26559725D01*
X52380097Y26596994D01*
X52383607Y26600369D01*
X52418749Y26632853D01*
X52418751Y26632856D01*
X52425556Y26639146D01*
X52429237Y26645484D01*
X52434828Y26651725D01*
X57099571Y31316468D01*
X57160894Y31349953D01*
X57189199Y31352772D01*
X57211024Y31352429D01*
X57211027Y31352429D01*
X57218495Y31352312D01*
X57225776Y31353980D01*
X57225780Y31353980D01*
X57364681Y31385793D01*
X57371968Y31387462D01*
X57512625Y31458205D01*
X57518306Y31463057D01*
X57518309Y31463059D01*
X57626666Y31555605D01*
X57626667Y31555606D01*
X57632348Y31560458D01*
X57642487Y31574567D01*
X57663798Y31604225D01*
X57724224Y31688317D01*
X57782950Y31834402D01*
X57800812Y31959906D01*
X57804562Y31986256D01*
X57804562Y31986260D01*
X57805134Y31990277D01*
X57805278Y32004000D01*
X57802882Y32023803D01*
X57787262Y32152881D01*
X57787261Y32152885D01*
X57786363Y32160306D01*
X57760725Y32228155D01*
X57733354Y32300592D01*
X57733352Y32300595D01*
X57730710Y32307588D01*
X57720374Y32322627D01*
X57645768Y32431179D01*
X57645765Y32431182D01*
X57641531Y32437343D01*
X57523976Y32542081D01*
X57384831Y32615755D01*
X57232128Y32654111D01*
X57150329Y32654539D01*
X57082158Y32654896D01*
X57082157Y32654896D01*
X57074684Y32654935D01*
X57067421Y32653191D01*
X57067418Y32653191D01*
X56998136Y32636558D01*
X56921588Y32618180D01*
X56781679Y32545968D01*
X56663034Y32442467D01*
X56572501Y32313652D01*
X56515309Y32166961D01*
X56499705Y32048434D01*
X56496462Y32023803D01*
X56468196Y31959906D01*
X56461204Y31952307D01*
X51919716Y27410819D01*
X51858393Y27377334D01*
X51832035Y27374500D01*
X28459502Y27374500D01*
X28392463Y27394185D01*
X28377013Y27405917D01*
X28319559Y27457107D01*
X28319557Y27457108D01*
X28313976Y27462081D01*
X28174831Y27535755D01*
X28022128Y27574111D01*
X27940329Y27574539D01*
X27872158Y27574896D01*
X27872157Y27574896D01*
X27864684Y27574935D01*
X27857421Y27573191D01*
X27857418Y27573191D01*
X27788136Y27556557D01*
X27711588Y27538180D01*
X27571679Y27465968D01*
X27453034Y27362467D01*
X27362501Y27233652D01*
X27305309Y27086961D01*
X27284758Y26930862D01*
X504500Y26930862D01*
X504500Y28962862D01*
X46588758Y28962862D01*
X46589578Y28955434D01*
X46589578Y28955432D01*
X46591474Y28938256D01*
X46606035Y28806367D01*
X46660143Y28658510D01*
X46747958Y28527828D01*
X46770183Y28507605D01*
X46858878Y28426898D01*
X46858882Y28426895D01*
X46864410Y28421865D01*
X47002776Y28346738D01*
X47105031Y28319912D01*
X47147841Y28308681D01*
X47147843Y28308681D01*
X47155069Y28306785D01*
X47232127Y28305575D01*
X47305025Y28304429D01*
X47305028Y28304429D01*
X47312495Y28304312D01*
X47319776Y28305980D01*
X47319780Y28305980D01*
X47458681Y28337793D01*
X47465968Y28339462D01*
X47606625Y28410205D01*
X47612306Y28415057D01*
X47612309Y28415059D01*
X47720666Y28507605D01*
X47720667Y28507606D01*
X47726348Y28512458D01*
X47737393Y28527828D01*
X47757798Y28556225D01*
X47818224Y28640317D01*
X47876950Y28786402D01*
X47878793Y28799351D01*
X47898562Y28938256D01*
X47898562Y28938260D01*
X47899134Y28942277D01*
X47899278Y28956000D01*
X47898448Y28962862D01*
X47898191Y28964989D01*
X47909681Y29033908D01*
X47956607Y29085673D01*
X48024071Y29103851D01*
X48052757Y29099823D01*
X48052873Y29099793D01*
X48163841Y29070681D01*
X48163843Y29070681D01*
X48171069Y29068785D01*
X48248127Y29067575D01*
X48321025Y29066429D01*
X48321028Y29066429D01*
X48328495Y29066312D01*
X48335776Y29067980D01*
X48335780Y29067980D01*
X48474681Y29099793D01*
X48481968Y29101462D01*
X48622625Y29172205D01*
X48628306Y29177057D01*
X48628309Y29177059D01*
X48736666Y29269605D01*
X48736667Y29269606D01*
X48742348Y29274458D01*
X48834224Y29402317D01*
X48892950Y29548402D01*
X48895562Y29566753D01*
X48914562Y29700256D01*
X48914562Y29700260D01*
X48915134Y29704277D01*
X48915278Y29718000D01*
X48913551Y29732273D01*
X48897262Y29866881D01*
X48897261Y29866885D01*
X48896363Y29874306D01*
X48886617Y29900098D01*
X48843354Y30014592D01*
X48843352Y30014595D01*
X48840710Y30021588D01*
X48781701Y30107446D01*
X48755768Y30145179D01*
X48755765Y30145182D01*
X48751531Y30151343D01*
X48633976Y30256081D01*
X48494831Y30329755D01*
X48342128Y30368111D01*
X48260329Y30368539D01*
X48192158Y30368896D01*
X48192157Y30368896D01*
X48184684Y30368935D01*
X48177421Y30367191D01*
X48177418Y30367191D01*
X48108136Y30350557D01*
X48031588Y30332180D01*
X47891679Y30259968D01*
X47773034Y30156467D01*
X47682501Y30027652D01*
X47625309Y29880961D01*
X47604758Y29724862D01*
X47605578Y29717434D01*
X47605578Y29717430D01*
X47606611Y29708075D01*
X47594401Y29639280D01*
X47546937Y29588008D01*
X47479287Y29570536D01*
X47453152Y29574205D01*
X47333378Y29604290D01*
X47326128Y29606111D01*
X47244329Y29606539D01*
X47176158Y29606896D01*
X47176157Y29606896D01*
X47168684Y29606935D01*
X47161421Y29605191D01*
X47161418Y29605191D01*
X47092136Y29588557D01*
X47015588Y29570180D01*
X46875679Y29497968D01*
X46757034Y29394467D01*
X46666501Y29265652D01*
X46663785Y29258687D01*
X46663785Y29258686D01*
X46637905Y29192306D01*
X46609309Y29118961D01*
X46588758Y28962862D01*
X504500Y28962862D01*
X504500Y30436062D01*
X25709958Y30436062D01*
X25710778Y30428634D01*
X25710778Y30428632D01*
X25721493Y30331577D01*
X25727235Y30279567D01*
X25729801Y30272555D01*
X25729802Y30272551D01*
X25736205Y30255055D01*
X25781343Y30131710D01*
X25869158Y30001028D01*
X25886773Y29985000D01*
X25980078Y29900098D01*
X25980082Y29900095D01*
X25985610Y29895065D01*
X25992180Y29891498D01*
X25992181Y29891497D01*
X26037518Y29866881D01*
X26123976Y29819938D01*
X26226231Y29793112D01*
X26269041Y29781881D01*
X26269043Y29781881D01*
X26276269Y29779985D01*
X26353327Y29778775D01*
X26426225Y29777629D01*
X26426228Y29777629D01*
X26433695Y29777512D01*
X26440976Y29779180D01*
X26440980Y29779180D01*
X26579881Y29810993D01*
X26587168Y29812662D01*
X26727825Y29883405D01*
X26733506Y29888257D01*
X26733509Y29888259D01*
X26841866Y29980805D01*
X26841867Y29980806D01*
X26847548Y29985658D01*
X26857332Y29999273D01*
X26882121Y30033771D01*
X26939424Y30113517D01*
X26998150Y30259602D01*
X26999993Y30272551D01*
X27019762Y30411456D01*
X27019762Y30411460D01*
X27020334Y30415477D01*
X27020478Y30429200D01*
X27009719Y30518107D01*
X27002462Y30578081D01*
X27002461Y30578085D01*
X27001563Y30585506D01*
X26945910Y30732788D01*
X26937537Y30744971D01*
X26860968Y30856379D01*
X26860965Y30856382D01*
X26856731Y30862543D01*
X26790555Y30921504D01*
X26744759Y30962307D01*
X26744758Y30962308D01*
X26739176Y30967281D01*
X26600031Y31040955D01*
X26447328Y31079311D01*
X26365529Y31079739D01*
X26297358Y31080096D01*
X26297357Y31080096D01*
X26289884Y31080135D01*
X26282621Y31078391D01*
X26282618Y31078391D01*
X26213336Y31061757D01*
X26136788Y31043380D01*
X25996879Y30971168D01*
X25878234Y30867667D01*
X25787701Y30738852D01*
X25730509Y30592161D01*
X25709958Y30436062D01*
X504500Y30436062D01*
X504500Y31764037D01*
X40904757Y31764037D01*
X40921175Y31568517D01*
X40975258Y31379909D01*
X40978030Y31374514D01*
X40978031Y31374513D01*
X40989381Y31352429D01*
X41064944Y31205399D01*
X41068709Y31200649D01*
X41068712Y31200644D01*
X41183049Y31056386D01*
X41186818Y31051631D01*
X41336238Y30924465D01*
X41341536Y30921504D01*
X41458064Y30856379D01*
X41507513Y30828743D01*
X41694118Y30768111D01*
X41888946Y30744879D01*
X41894990Y30745344D01*
X41894991Y30745344D01*
X41986761Y30752405D01*
X42084576Y30759932D01*
X42273556Y30812697D01*
X42448689Y30901163D01*
X42603303Y31021960D01*
X42607259Y31026544D01*
X42607263Y31026547D01*
X42727547Y31165899D01*
X42731509Y31170489D01*
X42828425Y31341091D01*
X42890358Y31527268D01*
X42914949Y31721929D01*
X42915341Y31750000D01*
X42896194Y31945272D01*
X42839484Y32133106D01*
X42835675Y32140271D01*
X42788945Y32228155D01*
X42747370Y32306347D01*
X42623361Y32458398D01*
X42606811Y32472089D01*
X42476856Y32579597D01*
X42476854Y32579598D01*
X42472180Y32583465D01*
X42299585Y32676787D01*
X42112152Y32734807D01*
X41917019Y32755317D01*
X41910986Y32754768D01*
X41910982Y32754768D01*
X41747278Y32739869D01*
X41721618Y32737534D01*
X41649482Y32716303D01*
X41539208Y32683848D01*
X41539203Y32683846D01*
X41533393Y32682136D01*
X41528023Y32679329D01*
X41528019Y32679327D01*
X41479786Y32654111D01*
X41359512Y32591233D01*
X41354789Y32587436D01*
X41354788Y32587435D01*
X41292193Y32537107D01*
X41206600Y32468289D01*
X41080480Y32317984D01*
X41055599Y32272726D01*
X40989714Y32152881D01*
X40985956Y32146046D01*
X40984124Y32140271D01*
X40935931Y31988347D01*
X40926628Y31959022D01*
X40925952Y31952994D01*
X40912650Y31834402D01*
X40904757Y31764037D01*
X504500Y31764037D01*
X504500Y34204205D01*
X9342700Y34204205D01*
X9359315Y34006340D01*
X9414046Y33815470D01*
X9416818Y33810076D01*
X9416819Y33810074D01*
X9431247Y33782000D01*
X9504808Y33638867D01*
X9508576Y33634113D01*
X9621585Y33491531D01*
X9628144Y33483255D01*
X9657270Y33458467D01*
X9772929Y33360035D01*
X9779357Y33354564D01*
X9784653Y33351604D01*
X9784656Y33351602D01*
X9814865Y33334719D01*
X9952685Y33257693D01*
X10141528Y33196335D01*
X10147549Y33195617D01*
X10214839Y33187593D01*
X10338693Y33172824D01*
X10344736Y33173289D01*
X10344738Y33173289D01*
X10530631Y33187593D01*
X10530635Y33187594D01*
X10536669Y33188058D01*
X10542501Y33189686D01*
X10542505Y33189687D01*
X10722075Y33239824D01*
X10722077Y33239825D01*
X10727916Y33241455D01*
X10905150Y33330982D01*
X10909929Y33334716D01*
X10909934Y33334719D01*
X11056838Y33449493D01*
X11056841Y33449496D01*
X11061618Y33453228D01*
X11158439Y33565396D01*
X11187397Y33598944D01*
X11187399Y33598947D01*
X11191362Y33603538D01*
X11196398Y33612402D01*
X11286444Y33770913D01*
X11289440Y33776187D01*
X11352116Y33964597D01*
X11355643Y33992510D01*
X11376567Y34158148D01*
X11376567Y34158152D01*
X11377002Y34161593D01*
X11377295Y34182546D01*
X11377351Y34186539D01*
X11377351Y34186546D01*
X11377399Y34190000D01*
X11376006Y34204205D01*
X14342700Y34204205D01*
X14359315Y34006340D01*
X14414046Y33815470D01*
X14416818Y33810076D01*
X14416819Y33810074D01*
X14431247Y33782000D01*
X14504808Y33638867D01*
X14508576Y33634113D01*
X14621585Y33491531D01*
X14628144Y33483255D01*
X14657270Y33458467D01*
X14772929Y33360035D01*
X14779357Y33354564D01*
X14784653Y33351604D01*
X14784656Y33351602D01*
X14814865Y33334719D01*
X14952685Y33257693D01*
X15141528Y33196335D01*
X15147549Y33195617D01*
X15214839Y33187593D01*
X15338693Y33172824D01*
X15344736Y33173289D01*
X15344738Y33173289D01*
X15530631Y33187593D01*
X15530635Y33187594D01*
X15536669Y33188058D01*
X15542501Y33189686D01*
X15542505Y33189687D01*
X15722075Y33239824D01*
X15722077Y33239825D01*
X15727916Y33241455D01*
X15905150Y33330982D01*
X15909929Y33334716D01*
X15909934Y33334719D01*
X16056838Y33449493D01*
X16056841Y33449496D01*
X16061618Y33453228D01*
X16158439Y33565396D01*
X16187397Y33598944D01*
X16187399Y33598947D01*
X16191362Y33603538D01*
X16196398Y33612402D01*
X16286444Y33770913D01*
X16289440Y33776187D01*
X16293656Y33788862D01*
X50652758Y33788862D01*
X50653578Y33781434D01*
X50653578Y33781432D01*
X50661319Y33711317D01*
X50670035Y33632367D01*
X50672601Y33625355D01*
X50672602Y33625351D01*
X50702206Y33544456D01*
X50724143Y33484510D01*
X50766616Y33421304D01*
X50795860Y33377785D01*
X50811958Y33353828D01*
X50846183Y33322686D01*
X50922878Y33252898D01*
X50922882Y33252895D01*
X50928410Y33247865D01*
X50934980Y33244298D01*
X50934981Y33244297D01*
X51060208Y33176304D01*
X51066776Y33172738D01*
X51169031Y33145912D01*
X51211841Y33134681D01*
X51211843Y33134681D01*
X51219069Y33132785D01*
X51296127Y33131575D01*
X51369025Y33130429D01*
X51369028Y33130429D01*
X51376495Y33130312D01*
X51462472Y33150003D01*
X51518124Y33162749D01*
X51587866Y33158528D01*
X51644255Y33117271D01*
X51669387Y33052078D01*
X51669800Y33040579D01*
X51669734Y33034274D01*
X51668758Y33026862D01*
X51669578Y33019434D01*
X51669578Y33019431D01*
X51671474Y33002256D01*
X51686035Y32870367D01*
X51740143Y32722510D01*
X51827958Y32591828D01*
X51850183Y32571605D01*
X51938878Y32490898D01*
X51938882Y32490895D01*
X51944410Y32485865D01*
X51950980Y32482298D01*
X51950981Y32482297D01*
X52076208Y32414304D01*
X52082776Y32410738D01*
X52180343Y32385142D01*
X52227841Y32372681D01*
X52227843Y32372681D01*
X52235069Y32370785D01*
X52312127Y32369575D01*
X52385025Y32368429D01*
X52385028Y32368429D01*
X52392495Y32368312D01*
X52399776Y32369980D01*
X52399780Y32369980D01*
X52538681Y32401793D01*
X52545968Y32403462D01*
X52686625Y32474205D01*
X52692306Y32479057D01*
X52692309Y32479059D01*
X52800666Y32571605D01*
X52800667Y32571606D01*
X52806348Y32576458D01*
X52817393Y32591828D01*
X52876368Y32673901D01*
X52898224Y32704317D01*
X52956950Y32850402D01*
X52958793Y32863351D01*
X52978562Y33002256D01*
X52978562Y33002260D01*
X52979134Y33006277D01*
X52979278Y33020000D01*
X52965630Y33132785D01*
X52961262Y33168881D01*
X52961261Y33168885D01*
X52960363Y33176306D01*
X52936362Y33239824D01*
X52907354Y33316592D01*
X52907352Y33316595D01*
X52904710Y33323588D01*
X52887386Y33348794D01*
X52819768Y33447179D01*
X52819765Y33447182D01*
X52815531Y33453343D01*
X52728692Y33530714D01*
X52703559Y33553107D01*
X52703558Y33553108D01*
X52697976Y33558081D01*
X52558831Y33631755D01*
X52406128Y33670111D01*
X52324329Y33670539D01*
X52256158Y33670896D01*
X52256157Y33670896D01*
X52248684Y33670935D01*
X52241421Y33669191D01*
X52241418Y33669191D01*
X52174222Y33653058D01*
X52115507Y33638962D01*
X52045726Y33642453D01*
X51988908Y33683116D01*
X51963095Y33748043D01*
X51962935Y33766882D01*
X51963134Y33768277D01*
X51963278Y33782000D01*
X51955478Y33846458D01*
X51945262Y33930881D01*
X51945261Y33930885D01*
X51944363Y33938306D01*
X51918655Y34006340D01*
X51891354Y34078592D01*
X51891352Y34078595D01*
X51888710Y34085588D01*
X51845956Y34147795D01*
X51803768Y34209179D01*
X51803765Y34209182D01*
X51799531Y34215343D01*
X51753251Y34256577D01*
X51687559Y34315107D01*
X51687558Y34315108D01*
X51681976Y34320081D01*
X51542831Y34393755D01*
X51413800Y34426165D01*
X51397378Y34430290D01*
X51390128Y34432111D01*
X51308329Y34432539D01*
X51240158Y34432896D01*
X51240157Y34432896D01*
X51232684Y34432935D01*
X51225421Y34431191D01*
X51225418Y34431191D01*
X51156136Y34414557D01*
X51079588Y34396180D01*
X50939679Y34323968D01*
X50821034Y34220467D01*
X50730501Y34091652D01*
X50673309Y33944961D01*
X50652758Y33788862D01*
X16293656Y33788862D01*
X16352116Y33964597D01*
X16355643Y33992510D01*
X16376567Y34158148D01*
X16376567Y34158152D01*
X16377002Y34161593D01*
X16377295Y34182546D01*
X16377351Y34186539D01*
X16377351Y34186546D01*
X16377399Y34190000D01*
X16376006Y34204205D01*
X16358615Y34381578D01*
X16358615Y34381580D01*
X16358023Y34387614D01*
X16300632Y34577701D01*
X16292665Y34592686D01*
X16258989Y34656020D01*
X16207413Y34753020D01*
X16081917Y34906894D01*
X16049821Y34933446D01*
X15933598Y35029594D01*
X15933596Y35029595D01*
X15928922Y35033462D01*
X15754258Y35127903D01*
X15745853Y35130505D01*
X15570368Y35184826D01*
X15570369Y35184826D01*
X15564576Y35186619D01*
X15367103Y35207374D01*
X15361070Y35206825D01*
X15361066Y35206825D01*
X15241218Y35195918D01*
X15169358Y35189378D01*
X15163546Y35187667D01*
X15163544Y35187667D01*
X15047397Y35153483D01*
X14978876Y35133316D01*
X14802910Y35041323D01*
X14798187Y35037526D01*
X14798186Y35037525D01*
X14675883Y34939191D01*
X14648163Y34916904D01*
X14520530Y34764797D01*
X14424873Y34590796D01*
X14423039Y34585014D01*
X14423038Y34585012D01*
X14366667Y34407308D01*
X14364834Y34401529D01*
X14359810Y34356742D01*
X14345490Y34229076D01*
X14342700Y34204205D01*
X11376006Y34204205D01*
X11358615Y34381578D01*
X11358615Y34381580D01*
X11358023Y34387614D01*
X11300632Y34577701D01*
X11292665Y34592686D01*
X11258989Y34656020D01*
X11207413Y34753020D01*
X11081917Y34906894D01*
X11049821Y34933446D01*
X10933598Y35029594D01*
X10933596Y35029595D01*
X10928922Y35033462D01*
X10754258Y35127903D01*
X10745853Y35130505D01*
X10570368Y35184826D01*
X10570369Y35184826D01*
X10564576Y35186619D01*
X10367103Y35207374D01*
X10361070Y35206825D01*
X10361066Y35206825D01*
X10241218Y35195918D01*
X10169358Y35189378D01*
X10163546Y35187667D01*
X10163544Y35187667D01*
X10047397Y35153483D01*
X9978876Y35133316D01*
X9802910Y35041323D01*
X9798187Y35037526D01*
X9798186Y35037525D01*
X9675883Y34939191D01*
X9648163Y34916904D01*
X9520530Y34764797D01*
X9424873Y34590796D01*
X9423039Y34585014D01*
X9423038Y34585012D01*
X9366667Y34407308D01*
X9364834Y34401529D01*
X9359810Y34356742D01*
X9345490Y34229076D01*
X9342700Y34204205D01*
X504500Y34204205D01*
X504500Y36074862D01*
X28554758Y36074862D01*
X28555578Y36067434D01*
X28555578Y36067432D01*
X28558547Y36040542D01*
X28572035Y35918367D01*
X28574601Y35911355D01*
X28574602Y35911351D01*
X28603010Y35833725D01*
X28626143Y35770510D01*
X28713958Y35639828D01*
X28739748Y35616361D01*
X28824878Y35538898D01*
X28824882Y35538895D01*
X28830410Y35533865D01*
X28836980Y35530298D01*
X28836981Y35530297D01*
X28937254Y35475853D01*
X28968776Y35458738D01*
X29071031Y35431912D01*
X29113841Y35420681D01*
X29113843Y35420681D01*
X29121069Y35418785D01*
X29198127Y35417575D01*
X29271025Y35416429D01*
X29271028Y35416429D01*
X29278495Y35416312D01*
X29285776Y35417980D01*
X29285780Y35417980D01*
X29424681Y35449793D01*
X29431968Y35451462D01*
X29572625Y35522205D01*
X29578306Y35527057D01*
X29578309Y35527059D01*
X29649415Y35587790D01*
X29713177Y35616361D01*
X29729947Y35617500D01*
X30452791Y35617500D01*
X30519830Y35597815D01*
X30565585Y35545011D01*
X30575529Y35475853D01*
X30568321Y35448458D01*
X30556509Y35418161D01*
X30535958Y35262062D01*
X30536778Y35254634D01*
X30536778Y35254632D01*
X30543922Y35189927D01*
X30553235Y35105567D01*
X30555801Y35098555D01*
X30555802Y35098551D01*
X30579081Y35034940D01*
X30607343Y34957710D01*
X30695158Y34827028D01*
X30717383Y34806805D01*
X30806078Y34726098D01*
X30806082Y34726095D01*
X30811610Y34721065D01*
X30949976Y34645938D01*
X31034255Y34623828D01*
X31095041Y34607881D01*
X31095043Y34607881D01*
X31102269Y34605985D01*
X31179327Y34604775D01*
X31252225Y34603629D01*
X31252228Y34603629D01*
X31259695Y34603512D01*
X31266976Y34605180D01*
X31266980Y34605180D01*
X31405881Y34636993D01*
X31413168Y34638662D01*
X31553825Y34709405D01*
X31559506Y34714257D01*
X31559509Y34714259D01*
X31667866Y34806805D01*
X31667867Y34806806D01*
X31673548Y34811658D01*
X31684593Y34827028D01*
X31704998Y34855425D01*
X31765424Y34939517D01*
X31784326Y34986537D01*
X31827595Y35041397D01*
X31893654Y35064155D01*
X31936771Y35058514D01*
X31951876Y35053737D01*
X31952110Y35053663D01*
X31955800Y35052432D01*
X32002475Y35036041D01*
X32002479Y35036040D01*
X32011222Y35032970D01*
X32018326Y35032691D01*
X32018577Y35032642D01*
X32025321Y35030509D01*
X32031928Y35029989D01*
X32084659Y35029989D01*
X32089528Y35029893D01*
X32137318Y35028015D01*
X32137319Y35028015D01*
X32146585Y35027651D01*
X32153669Y35029529D01*
X32162029Y35029989D01*
X49924397Y35029989D01*
X49938971Y35029130D01*
X49963605Y35026214D01*
X49963608Y35026214D01*
X49972810Y35025125D01*
X50019116Y35033582D01*
X50030522Y35035665D01*
X50034364Y35036305D01*
X50074503Y35042340D01*
X50092462Y35045040D01*
X50098975Y35048168D01*
X50106073Y35049464D01*
X50134355Y35064155D01*
X50158163Y35076522D01*
X50161646Y35078262D01*
X50214579Y35103680D01*
X50219799Y35108505D01*
X50220020Y35108654D01*
X50226288Y35111910D01*
X50231328Y35116214D01*
X50268597Y35153483D01*
X50272107Y35156858D01*
X50307249Y35189342D01*
X50307251Y35189345D01*
X50314056Y35195635D01*
X50317737Y35201973D01*
X50323328Y35208214D01*
X52781571Y37666457D01*
X52842894Y37699942D01*
X52871199Y37702761D01*
X52893024Y37702418D01*
X52893027Y37702418D01*
X52900495Y37702301D01*
X52907776Y37703969D01*
X52907780Y37703969D01*
X53046681Y37735782D01*
X53053968Y37737451D01*
X53194625Y37808194D01*
X53200306Y37813046D01*
X53200309Y37813048D01*
X53308666Y37905594D01*
X53308667Y37905595D01*
X53314348Y37910447D01*
X53325401Y37925828D01*
X53367120Y37983887D01*
X53406224Y38038306D01*
X53464950Y38184391D01*
X53466003Y38191788D01*
X53486562Y38336245D01*
X53486562Y38336249D01*
X53487134Y38340266D01*
X53487278Y38353989D01*
X53486446Y38360862D01*
X53469262Y38502870D01*
X53469261Y38502874D01*
X53468363Y38510295D01*
X53457046Y38540246D01*
X53415354Y38650581D01*
X53415352Y38650584D01*
X53412710Y38657577D01*
X53404329Y38669771D01*
X53327768Y38781168D01*
X53327765Y38781171D01*
X53323531Y38787332D01*
X53205976Y38892070D01*
X53066831Y38965744D01*
X52914128Y39004100D01*
X52894020Y39004205D01*
X52827085Y39024239D01*
X52781606Y39077281D01*
X52772024Y39146491D01*
X52801380Y39209894D01*
X52806987Y39215884D01*
X52982284Y39391181D01*
X53043607Y39424666D01*
X53069965Y39427500D01*
X59251505Y39427500D01*
X59318544Y39407815D01*
X59339186Y39391181D01*
X63795290Y34935077D01*
X63824057Y34890010D01*
X63873643Y34754510D01*
X63961458Y34623828D01*
X63995683Y34592686D01*
X64072378Y34522898D01*
X64072382Y34522895D01*
X64077910Y34517865D01*
X64084480Y34514298D01*
X64084481Y34514297D01*
X64209708Y34446304D01*
X64216276Y34442738D01*
X64318531Y34415912D01*
X64361341Y34404681D01*
X64361343Y34404681D01*
X64368569Y34402785D01*
X64445627Y34401575D01*
X64518525Y34400429D01*
X64518528Y34400429D01*
X64525995Y34400312D01*
X64533276Y34401980D01*
X64533280Y34401980D01*
X64672181Y34433793D01*
X64679468Y34435462D01*
X64820125Y34506205D01*
X64825806Y34511057D01*
X64825809Y34511059D01*
X64934166Y34603605D01*
X64934167Y34603606D01*
X64939848Y34608458D01*
X64950893Y34623828D01*
X65009972Y34706046D01*
X65031724Y34736317D01*
X65090450Y34882402D01*
X65091533Y34890010D01*
X65112062Y35034256D01*
X65112062Y35034260D01*
X65112634Y35038277D01*
X65112696Y35044131D01*
X65112735Y35047936D01*
X65112778Y35052000D01*
X65111307Y35064155D01*
X65094762Y35200881D01*
X65094761Y35200885D01*
X65093863Y35208306D01*
X65063260Y35289295D01*
X65040854Y35348592D01*
X65040852Y35348595D01*
X65038210Y35355588D01*
X65022308Y35378725D01*
X64953268Y35479179D01*
X64953265Y35479182D01*
X64949031Y35485343D01*
X64882061Y35545011D01*
X64837059Y35585107D01*
X64837058Y35585108D01*
X64831476Y35590081D01*
X64692331Y35663755D01*
X64539628Y35702111D01*
X64466355Y35702494D01*
X64389664Y35702896D01*
X64389663Y35702896D01*
X64382184Y35702935D01*
X64374915Y35701190D01*
X64370344Y35700661D01*
X64301487Y35712512D01*
X64268414Y35736159D01*
X64170848Y35833725D01*
X64137363Y35895048D01*
X64142347Y35964740D01*
X64184219Y36020673D01*
X64249683Y36045090D01*
X64258529Y36045406D01*
X68005500Y36045406D01*
X68072539Y36025721D01*
X68118294Y35972917D01*
X68129500Y35921406D01*
X68129500Y34815223D01*
X68109815Y34748184D01*
X68098204Y34732977D01*
X68093034Y34728467D01*
X68002501Y34599652D01*
X67999785Y34592687D01*
X67999785Y34592686D01*
X67973905Y34526307D01*
X67945309Y34452961D01*
X67943687Y34440642D01*
X67941210Y34421827D01*
X67912943Y34357930D01*
X67854618Y34319460D01*
X67784753Y34318629D01*
X67725530Y34355702D01*
X67695169Y34423118D01*
X67693262Y34438879D01*
X67693262Y34438881D01*
X67692363Y34446306D01*
X67674312Y34494078D01*
X67639354Y34586592D01*
X67639352Y34586595D01*
X67636710Y34593588D01*
X67629889Y34603512D01*
X67551768Y34717179D01*
X67551765Y34717182D01*
X67547531Y34723343D01*
X67448409Y34811658D01*
X67435559Y34823107D01*
X67435558Y34823108D01*
X67429976Y34828081D01*
X67290831Y34901755D01*
X67164663Y34933446D01*
X67145378Y34938290D01*
X67138128Y34940111D01*
X67056329Y34940539D01*
X66988158Y34940896D01*
X66988157Y34940896D01*
X66980684Y34940935D01*
X66973421Y34939191D01*
X66973418Y34939191D01*
X66904136Y34922557D01*
X66827588Y34904180D01*
X66687679Y34831968D01*
X66569034Y34728467D01*
X66478501Y34599652D01*
X66475785Y34592687D01*
X66475785Y34592686D01*
X66449905Y34526307D01*
X66421309Y34452961D01*
X66400758Y34296862D01*
X66401578Y34289434D01*
X66401578Y34289432D01*
X66412560Y34189961D01*
X66418035Y34140367D01*
X66472143Y33992510D01*
X66559958Y33861828D01*
X66582183Y33841605D01*
X66670878Y33760898D01*
X66670882Y33760895D01*
X66676410Y33755865D01*
X66682980Y33752298D01*
X66682981Y33752297D01*
X66769638Y33705246D01*
X66814776Y33680738D01*
X66906442Y33656690D01*
X66929446Y33650655D01*
X66989296Y33614603D01*
X67020154Y33551917D01*
X67021980Y33530714D01*
X67021980Y26308445D01*
X67002295Y26241406D01*
X66985661Y26220764D01*
X63146181Y22381284D01*
X63084858Y22347799D01*
X63015166Y22352783D01*
X62959233Y22394655D01*
X62934816Y22460119D01*
X62934500Y22468965D01*
X62934500Y29991862D01*
X65397758Y29991862D01*
X65398578Y29984434D01*
X65398578Y29984432D01*
X65400474Y29967256D01*
X65415035Y29835367D01*
X65417601Y29828355D01*
X65417602Y29828351D01*
X65436164Y29777629D01*
X65469143Y29687510D01*
X65556958Y29556828D01*
X65579183Y29536605D01*
X65667878Y29455898D01*
X65667882Y29455895D01*
X65673410Y29450865D01*
X65679980Y29447298D01*
X65679981Y29447297D01*
X65805208Y29379304D01*
X65811776Y29375738D01*
X65914031Y29348912D01*
X65956841Y29337681D01*
X65956843Y29337681D01*
X65964069Y29335785D01*
X66041127Y29334575D01*
X66114025Y29333429D01*
X66114028Y29333429D01*
X66121495Y29333312D01*
X66128776Y29334980D01*
X66128780Y29334980D01*
X66267681Y29366793D01*
X66274968Y29368462D01*
X66415625Y29439205D01*
X66421306Y29444057D01*
X66421309Y29444059D01*
X66529666Y29536605D01*
X66529667Y29536606D01*
X66535348Y29541458D01*
X66546393Y29556828D01*
X66605640Y29639280D01*
X66627224Y29669317D01*
X66685950Y29815402D01*
X66687793Y29828351D01*
X66707562Y29967256D01*
X66707562Y29967260D01*
X66708134Y29971277D01*
X66708278Y29985000D01*
X66703960Y30020686D01*
X66690262Y30133881D01*
X66690261Y30133885D01*
X66689363Y30141306D01*
X66647873Y30251107D01*
X66636354Y30281592D01*
X66636352Y30281595D01*
X66633710Y30288588D01*
X66606105Y30328753D01*
X66548768Y30412179D01*
X66548765Y30412182D01*
X66544531Y30418343D01*
X66426976Y30523081D01*
X66287831Y30596755D01*
X66135128Y30635111D01*
X66053329Y30635539D01*
X65985158Y30635896D01*
X65985157Y30635896D01*
X65977684Y30635935D01*
X65970421Y30634191D01*
X65970418Y30634191D01*
X65901136Y30617558D01*
X65824588Y30599180D01*
X65684679Y30526968D01*
X65566034Y30423467D01*
X65475501Y30294652D01*
X65418309Y30147961D01*
X65397758Y29991862D01*
X62934500Y29991862D01*
X62934500Y31990901D01*
X62935359Y32005475D01*
X62938275Y32030109D01*
X62938275Y32030112D01*
X62939364Y32039314D01*
X62928821Y32097041D01*
X62928181Y32100882D01*
X62919449Y32158965D01*
X62916321Y32165478D01*
X62915025Y32172576D01*
X62887964Y32224672D01*
X62886224Y32228155D01*
X62864821Y32272726D01*
X62860809Y32281082D01*
X62855982Y32286304D01*
X62855839Y32286517D01*
X62852579Y32292792D01*
X62848275Y32297831D01*
X62811006Y32335100D01*
X62807631Y32338610D01*
X62775147Y32373752D01*
X62775144Y32373754D01*
X62768854Y32380559D01*
X62762516Y32384240D01*
X62756275Y32389831D01*
X59129060Y36017046D01*
X59095575Y36078369D01*
X59093639Y36089830D01*
X59093277Y36092826D01*
X59083862Y36170625D01*
X59078265Y36216881D01*
X59078264Y36216885D01*
X59077366Y36224306D01*
X59058694Y36273720D01*
X59024357Y36364592D01*
X59024355Y36364595D01*
X59021713Y36371588D01*
X59017476Y36377753D01*
X58936771Y36495179D01*
X58936768Y36495182D01*
X58932534Y36501343D01*
X58814979Y36606081D01*
X58675834Y36679755D01*
X58523131Y36718111D01*
X58441332Y36718539D01*
X58373161Y36718896D01*
X58373160Y36718896D01*
X58365687Y36718935D01*
X58358424Y36717191D01*
X58358421Y36717191D01*
X58289139Y36700558D01*
X58212591Y36682180D01*
X58072682Y36609968D01*
X58067053Y36605057D01*
X58067045Y36605052D01*
X58022898Y36566539D01*
X57959440Y36537302D01*
X57890248Y36547014D01*
X57858894Y36567397D01*
X57821059Y36601107D01*
X57821058Y36601108D01*
X57815476Y36606081D01*
X57676331Y36679755D01*
X57523628Y36718111D01*
X57441829Y36718539D01*
X57373658Y36718896D01*
X57373657Y36718896D01*
X57366184Y36718935D01*
X57358921Y36717191D01*
X57358918Y36717191D01*
X57289636Y36700558D01*
X57213088Y36682180D01*
X57073179Y36609968D01*
X56954534Y36506467D01*
X56864001Y36377652D01*
X56858909Y36364592D01*
X56852807Y36348941D01*
X56810114Y36293631D01*
X56744297Y36270183D01*
X56707069Y36273720D01*
X56624786Y36294388D01*
X56617536Y36296209D01*
X56535737Y36296637D01*
X56467566Y36296994D01*
X56467565Y36296994D01*
X56460092Y36297033D01*
X56452829Y36295289D01*
X56452826Y36295289D01*
X56406659Y36284205D01*
X56306996Y36260278D01*
X56167087Y36188066D01*
X56161456Y36183153D01*
X56161455Y36183153D01*
X56147094Y36170625D01*
X56048442Y36084565D01*
X55957909Y35955750D01*
X55900717Y35809059D01*
X55880166Y35652960D01*
X55880986Y35645532D01*
X55880986Y35645530D01*
X55892758Y35538898D01*
X55897443Y35496465D01*
X55900009Y35489453D01*
X55900010Y35489449D01*
X55915011Y35448457D01*
X55951551Y35348608D01*
X56039366Y35217926D01*
X56094101Y35168121D01*
X56150286Y35116996D01*
X56150290Y35116993D01*
X56155818Y35111963D01*
X56162388Y35108396D01*
X56162389Y35108395D01*
X56285920Y35041323D01*
X56294184Y35036836D01*
X56378829Y35014630D01*
X56439249Y34998779D01*
X56439251Y34998779D01*
X56446477Y34996883D01*
X56523535Y34995673D01*
X56596433Y34994527D01*
X56596436Y34994527D01*
X56603903Y34994410D01*
X56611185Y34996078D01*
X56611187Y34996078D01*
X56625329Y34999317D01*
X56695071Y34995094D01*
X56740690Y34966127D01*
X60798141Y30908676D01*
X60831626Y30847353D01*
X60834460Y30820995D01*
X60834460Y23086626D01*
X60814775Y23019587D01*
X60798141Y22998945D01*
X50169827Y12370630D01*
X50108504Y12337145D01*
X50081499Y12334313D01*
X50013864Y12334667D01*
X49970158Y12334896D01*
X49970157Y12334896D01*
X49962684Y12334935D01*
X49955421Y12333191D01*
X49955418Y12333191D01*
X49886136Y12316558D01*
X49809588Y12298180D01*
X49669679Y12225968D01*
X49551034Y12122467D01*
X49460501Y11993652D01*
X49403309Y11846961D01*
X49382758Y11690862D01*
X49383578Y11683434D01*
X49383578Y11683432D01*
X49385474Y11666256D01*
X49400035Y11534367D01*
X49402601Y11527355D01*
X49402602Y11527351D01*
X49404634Y11521799D01*
X49454143Y11386510D01*
X49541958Y11255828D01*
X49576183Y11224686D01*
X49652878Y11154898D01*
X49652882Y11154895D01*
X49658410Y11149865D01*
X49664980Y11146298D01*
X49664981Y11146297D01*
X49790208Y11078304D01*
X49796776Y11074738D01*
X49899031Y11047912D01*
X49941841Y11036681D01*
X49941843Y11036681D01*
X49949069Y11034785D01*
X50026127Y11033575D01*
X50099025Y11032429D01*
X50099028Y11032429D01*
X50106495Y11032312D01*
X50113776Y11033980D01*
X50113780Y11033980D01*
X50252681Y11065793D01*
X50259968Y11067462D01*
X50400625Y11138205D01*
X50406306Y11143057D01*
X50406309Y11143059D01*
X50514666Y11235605D01*
X50514667Y11235606D01*
X50520348Y11240458D01*
X50531393Y11255828D01*
X50598472Y11349179D01*
X50612224Y11368317D01*
X50670950Y11514402D01*
X50673792Y11534367D01*
X50678918Y11570388D01*
X50707852Y11633985D01*
X50714000Y11640597D01*
X53947819Y14874416D01*
X54009142Y14907901D01*
X54078834Y14902917D01*
X54134767Y14861045D01*
X54159184Y14795581D01*
X54159500Y14786735D01*
X54159500Y11955223D01*
X54139815Y11888184D01*
X54128204Y11872977D01*
X54123034Y11868467D01*
X54032501Y11739652D01*
X53975309Y11592961D01*
X53954758Y11436862D01*
X53955578Y11429434D01*
X53955578Y11429432D01*
X53963192Y11360467D01*
X53972035Y11280367D01*
X53974601Y11273355D01*
X53974602Y11273351D01*
X53989825Y11231753D01*
X54026143Y11132510D01*
X54030314Y11126303D01*
X54093474Y11032312D01*
X54113958Y11001828D01*
X54136183Y10981605D01*
X54224878Y10900898D01*
X54224882Y10900895D01*
X54230410Y10895865D01*
X54368776Y10820738D01*
X54471031Y10793912D01*
X54513841Y10782681D01*
X54513843Y10782681D01*
X54521069Y10780785D01*
X54598127Y10779575D01*
X54671025Y10778429D01*
X54671028Y10778429D01*
X54678495Y10778312D01*
X54685776Y10779980D01*
X54685780Y10779980D01*
X54824681Y10811793D01*
X54831968Y10813462D01*
X54972625Y10884205D01*
X54978306Y10889057D01*
X54978309Y10889059D01*
X55086666Y10981605D01*
X55086667Y10981606D01*
X55092348Y10986458D01*
X55103393Y11001828D01*
X55125297Y11032312D01*
X55184224Y11114317D01*
X55242950Y11260402D01*
X55244793Y11273351D01*
X55264562Y11412256D01*
X55264562Y11412260D01*
X55265134Y11416277D01*
X55265278Y11430000D01*
X55264448Y11436862D01*
X64622758Y11436862D01*
X64623578Y11429434D01*
X64623578Y11429432D01*
X64631192Y11360467D01*
X64640035Y11280367D01*
X64642601Y11273355D01*
X64642602Y11273351D01*
X64657825Y11231753D01*
X64694143Y11132510D01*
X64698314Y11126303D01*
X64761474Y11032312D01*
X64781958Y11001828D01*
X64804183Y10981605D01*
X64892878Y10900898D01*
X64892882Y10900895D01*
X64898410Y10895865D01*
X65036776Y10820738D01*
X65139031Y10793912D01*
X65181841Y10782681D01*
X65181843Y10782681D01*
X65189069Y10780785D01*
X65266127Y10779575D01*
X65339025Y10778429D01*
X65339028Y10778429D01*
X65346495Y10778312D01*
X65353776Y10779980D01*
X65353780Y10779980D01*
X65492681Y10811793D01*
X65499968Y10813462D01*
X65640625Y10884205D01*
X65646306Y10889057D01*
X65646309Y10889059D01*
X65754666Y10981605D01*
X65754667Y10981606D01*
X65760348Y10986458D01*
X65771393Y11001828D01*
X65793297Y11032312D01*
X65852224Y11114317D01*
X65910950Y11260402D01*
X65912793Y11273351D01*
X65932562Y11412256D01*
X65932562Y11412260D01*
X65933134Y11416277D01*
X65933278Y11430000D01*
X65929215Y11463579D01*
X65915262Y11578881D01*
X65915261Y11578885D01*
X65914363Y11586306D01*
X65881098Y11674340D01*
X65874855Y11690862D01*
X68686758Y11690862D01*
X68687578Y11683434D01*
X68687578Y11683432D01*
X68689474Y11666256D01*
X68704035Y11534367D01*
X68706601Y11527355D01*
X68706602Y11527351D01*
X68708634Y11521799D01*
X68758143Y11386510D01*
X68845958Y11255828D01*
X68880183Y11224686D01*
X68956878Y11154898D01*
X68956882Y11154895D01*
X68962410Y11149865D01*
X68968980Y11146298D01*
X68968981Y11146297D01*
X69094208Y11078304D01*
X69100776Y11074738D01*
X69203031Y11047912D01*
X69245841Y11036681D01*
X69245843Y11036681D01*
X69253069Y11034785D01*
X69330127Y11033575D01*
X69403025Y11032429D01*
X69403028Y11032429D01*
X69410495Y11032312D01*
X69417776Y11033980D01*
X69417780Y11033980D01*
X69556681Y11065793D01*
X69563968Y11067462D01*
X69704625Y11138205D01*
X69710306Y11143057D01*
X69710309Y11143059D01*
X69818666Y11235605D01*
X69818667Y11235606D01*
X69824348Y11240458D01*
X69835393Y11255828D01*
X69902472Y11349179D01*
X69916224Y11368317D01*
X69974950Y11514402D01*
X69976793Y11527351D01*
X69996562Y11666256D01*
X69996562Y11666260D01*
X69997134Y11670277D01*
X69997278Y11684000D01*
X69992124Y11726592D01*
X69979262Y11832881D01*
X69979261Y11832885D01*
X69978363Y11840306D01*
X69965865Y11873380D01*
X69925354Y11980592D01*
X69925352Y11980595D01*
X69922710Y11987588D01*
X69887887Y12038256D01*
X69837768Y12111179D01*
X69837765Y12111182D01*
X69833531Y12117343D01*
X69715976Y12222081D01*
X69576831Y12295755D01*
X69424128Y12334111D01*
X69342329Y12334539D01*
X69274158Y12334896D01*
X69274157Y12334896D01*
X69266684Y12334935D01*
X69259421Y12333191D01*
X69259418Y12333191D01*
X69190136Y12316558D01*
X69113588Y12298180D01*
X68973679Y12225968D01*
X68855034Y12122467D01*
X68764501Y11993652D01*
X68707309Y11846961D01*
X68686758Y11690862D01*
X65874855Y11690862D01*
X65861354Y11726592D01*
X65861352Y11726595D01*
X65858710Y11733588D01*
X65850337Y11745771D01*
X65773768Y11857179D01*
X65773765Y11857182D01*
X65769531Y11863343D01*
X65687221Y11936679D01*
X65657559Y11963107D01*
X65657558Y11963108D01*
X65651976Y11968081D01*
X65512831Y12041755D01*
X65360128Y12080111D01*
X65278329Y12080539D01*
X65210158Y12080896D01*
X65210157Y12080896D01*
X65202684Y12080935D01*
X65195421Y12079191D01*
X65195418Y12079191D01*
X65126136Y12062558D01*
X65049588Y12044180D01*
X64909679Y11971968D01*
X64791034Y11868467D01*
X64700501Y11739652D01*
X64643309Y11592961D01*
X64622758Y11436862D01*
X55264448Y11436862D01*
X55261215Y11463579D01*
X55247262Y11578881D01*
X55247261Y11578885D01*
X55246363Y11586306D01*
X55213098Y11674340D01*
X55193354Y11726592D01*
X55193352Y11726595D01*
X55190710Y11733588D01*
X55182337Y11745771D01*
X55105768Y11857179D01*
X55105765Y11857182D01*
X55101531Y11863343D01*
X55095945Y11868320D01*
X55091488Y11873375D01*
X55061918Y11936679D01*
X55060500Y11955380D01*
X55060500Y12706862D01*
X72496758Y12706862D01*
X72497578Y12699434D01*
X72497578Y12699432D01*
X72499474Y12682256D01*
X72514035Y12550367D01*
X72516601Y12543355D01*
X72516602Y12543351D01*
X72538444Y12483665D01*
X72568143Y12402510D01*
X72655958Y12271828D01*
X72678183Y12251605D01*
X72766878Y12170898D01*
X72766882Y12170895D01*
X72772410Y12165865D01*
X72778980Y12162298D01*
X72778981Y12162297D01*
X72904208Y12094304D01*
X72910776Y12090738D01*
X73013031Y12063912D01*
X73055841Y12052681D01*
X73055843Y12052681D01*
X73063069Y12050785D01*
X73140127Y12049575D01*
X73213025Y12048429D01*
X73213028Y12048429D01*
X73220495Y12048312D01*
X73227776Y12049980D01*
X73227780Y12049980D01*
X73366681Y12081793D01*
X73373968Y12083462D01*
X73514625Y12154205D01*
X73520306Y12159057D01*
X73520309Y12159059D01*
X73628666Y12251605D01*
X73628667Y12251606D01*
X73634348Y12256458D01*
X73645393Y12271828D01*
X73713226Y12366229D01*
X73726224Y12384317D01*
X73784950Y12530402D01*
X73786793Y12543351D01*
X73806562Y12682256D01*
X73806562Y12682260D01*
X73807134Y12686277D01*
X73807278Y12700000D01*
X73806448Y12706862D01*
X80370758Y12706862D01*
X80371578Y12699434D01*
X80371578Y12699432D01*
X80373474Y12682256D01*
X80388035Y12550367D01*
X80390601Y12543355D01*
X80390602Y12543351D01*
X80412444Y12483665D01*
X80442143Y12402510D01*
X80529958Y12271828D01*
X80552183Y12251605D01*
X80640878Y12170898D01*
X80640882Y12170895D01*
X80646410Y12165865D01*
X80652980Y12162298D01*
X80652981Y12162297D01*
X80778208Y12094304D01*
X80784776Y12090738D01*
X80887031Y12063912D01*
X80929841Y12052681D01*
X80929843Y12052681D01*
X80937069Y12050785D01*
X81014127Y12049575D01*
X81087025Y12048429D01*
X81087028Y12048429D01*
X81094495Y12048312D01*
X81101776Y12049980D01*
X81101780Y12049980D01*
X81240681Y12081793D01*
X81247968Y12083462D01*
X81388625Y12154205D01*
X81394306Y12159057D01*
X81394309Y12159059D01*
X81502666Y12251605D01*
X81502667Y12251606D01*
X81508348Y12256458D01*
X81519393Y12271828D01*
X81587226Y12366229D01*
X81600224Y12384317D01*
X81658950Y12530402D01*
X81660793Y12543351D01*
X81680562Y12682256D01*
X81680562Y12682260D01*
X81681134Y12686277D01*
X81681278Y12700000D01*
X81673401Y12765092D01*
X81684889Y12834010D01*
X81731814Y12885777D01*
X81799277Y12903957D01*
X81839377Y12895841D01*
X81842295Y12894257D01*
X81913431Y12875595D01*
X81987360Y12856200D01*
X81987362Y12856200D01*
X81994588Y12854304D01*
X82071646Y12853094D01*
X82144544Y12851948D01*
X82144547Y12851948D01*
X82152014Y12851831D01*
X82159295Y12853499D01*
X82159299Y12853499D01*
X82298200Y12885312D01*
X82305487Y12886981D01*
X82446144Y12957724D01*
X82451825Y12962576D01*
X82451828Y12962578D01*
X82560185Y13055124D01*
X82560186Y13055125D01*
X82565867Y13059977D01*
X82576912Y13075347D01*
X82597317Y13103744D01*
X82657743Y13187836D01*
X82716469Y13333921D01*
X82718885Y13350896D01*
X82738081Y13485775D01*
X82738081Y13485779D01*
X82738653Y13489796D01*
X82738797Y13503519D01*
X82737070Y13517792D01*
X82720781Y13652400D01*
X82720780Y13652404D01*
X82719882Y13659825D01*
X82684593Y13753216D01*
X82666873Y13800111D01*
X82666871Y13800114D01*
X82664229Y13807107D01*
X82634326Y13850616D01*
X82579287Y13930698D01*
X82579284Y13930701D01*
X82575050Y13936862D01*
X82522898Y13983328D01*
X82463078Y14036626D01*
X82463077Y14036627D01*
X82457495Y14041600D01*
X82318350Y14115274D01*
X82165647Y14153630D01*
X82083848Y14154058D01*
X82015677Y14154415D01*
X82015676Y14154415D01*
X82008203Y14154454D01*
X82000940Y14152710D01*
X82000937Y14152710D01*
X81934710Y14136810D01*
X81855107Y14117699D01*
X81715198Y14045487D01*
X81596553Y13941986D01*
X81506020Y13813171D01*
X81448828Y13666480D01*
X81428277Y13510381D01*
X81429097Y13502953D01*
X81429097Y13502950D01*
X81436361Y13437153D01*
X81424152Y13368359D01*
X81376687Y13317086D01*
X81309038Y13299614D01*
X81268674Y13307783D01*
X81267433Y13308259D01*
X81260831Y13311755D01*
X81108128Y13350111D01*
X81026329Y13350539D01*
X80958158Y13350896D01*
X80958157Y13350896D01*
X80950684Y13350935D01*
X80943421Y13349191D01*
X80943418Y13349191D01*
X80874136Y13332558D01*
X80797588Y13314180D01*
X80657679Y13241968D01*
X80539034Y13138467D01*
X80448501Y13009652D01*
X80391309Y12862961D01*
X80370758Y12706862D01*
X73806448Y12706862D01*
X73799401Y12765091D01*
X73789262Y12848881D01*
X73789261Y12848885D01*
X73788363Y12856306D01*
X73751310Y12954365D01*
X73735354Y12996592D01*
X73735352Y12996595D01*
X73732710Y13003588D01*
X73728471Y13009756D01*
X73647768Y13127179D01*
X73647765Y13127182D01*
X73643531Y13133343D01*
X73525976Y13238081D01*
X73386831Y13311755D01*
X73234128Y13350111D01*
X73152329Y13350539D01*
X73084158Y13350896D01*
X73084157Y13350896D01*
X73076684Y13350935D01*
X73069421Y13349191D01*
X73069418Y13349191D01*
X73000136Y13332558D01*
X72923588Y13314180D01*
X72783679Y13241968D01*
X72665034Y13138467D01*
X72574501Y13009652D01*
X72517309Y12862961D01*
X72496758Y12706862D01*
X55060500Y12706862D01*
X55060500Y15087884D01*
X55080185Y15154923D01*
X55096819Y15175565D01*
X56913119Y16991865D01*
X58736308Y18815055D01*
X58797631Y18848540D01*
X58867323Y18843556D01*
X58923256Y18801684D01*
X58947673Y18736220D01*
X58947989Y18727374D01*
X58947989Y15208196D01*
X58925441Y15136897D01*
X58858501Y15041652D01*
X58801309Y14894961D01*
X58780758Y14738862D01*
X58781578Y14731434D01*
X58781578Y14731432D01*
X58794456Y14614782D01*
X58798035Y14582367D01*
X58800601Y14575355D01*
X58800602Y14575351D01*
X58830206Y14494456D01*
X58852143Y14434510D01*
X58856314Y14428303D01*
X58919474Y14334312D01*
X58939958Y14303828D01*
X58994693Y14254023D01*
X59050878Y14202898D01*
X59050882Y14202895D01*
X59056410Y14197865D01*
X59062980Y14194298D01*
X59062981Y14194297D01*
X59182482Y14129413D01*
X59194776Y14122738D01*
X59297031Y14095912D01*
X59339841Y14084681D01*
X59339843Y14084681D01*
X59347069Y14082785D01*
X59424127Y14081575D01*
X59497025Y14080429D01*
X59497028Y14080429D01*
X59504495Y14080312D01*
X59511776Y14081980D01*
X59511780Y14081980D01*
X59650681Y14113793D01*
X59657968Y14115462D01*
X59798625Y14186205D01*
X59804306Y14191057D01*
X59804309Y14191059D01*
X59912666Y14283605D01*
X59912667Y14283606D01*
X59918348Y14288458D01*
X59929393Y14303828D01*
X59930862Y14305873D01*
X74745258Y14305873D01*
X74746078Y14298445D01*
X74746078Y14298443D01*
X74747716Y14283605D01*
X74762535Y14149378D01*
X74765101Y14142366D01*
X74765102Y14142362D01*
X74794706Y14061467D01*
X74816643Y14001521D01*
X74904458Y13870839D01*
X74926683Y13850616D01*
X75015378Y13769909D01*
X75015382Y13769906D01*
X75020910Y13764876D01*
X75159276Y13689749D01*
X75261531Y13662923D01*
X75304341Y13651692D01*
X75304343Y13651692D01*
X75311569Y13649796D01*
X75388627Y13648586D01*
X75461525Y13647440D01*
X75461528Y13647440D01*
X75468995Y13647323D01*
X75476276Y13648991D01*
X75476280Y13648991D01*
X75615181Y13680804D01*
X75622468Y13682473D01*
X75763125Y13753216D01*
X75768806Y13758068D01*
X75768809Y13758070D01*
X75877166Y13850616D01*
X75877167Y13850617D01*
X75882848Y13855469D01*
X75893893Y13870839D01*
X75914298Y13899236D01*
X75974724Y13983328D01*
X76033450Y14129413D01*
X76035293Y14142362D01*
X76055062Y14281267D01*
X76055062Y14281271D01*
X76055634Y14285288D01*
X76055778Y14299011D01*
X76051207Y14336785D01*
X76037762Y14447892D01*
X76037761Y14447896D01*
X76036863Y14455317D01*
X76005769Y14537605D01*
X75983854Y14595603D01*
X75983852Y14595606D01*
X75981210Y14602599D01*
X75938841Y14664246D01*
X75896268Y14726190D01*
X75896265Y14726193D01*
X75892031Y14732354D01*
X75789396Y14823799D01*
X75780059Y14832118D01*
X75780058Y14832119D01*
X75774476Y14837092D01*
X75635331Y14910766D01*
X75482628Y14949122D01*
X75400829Y14949550D01*
X75332658Y14949907D01*
X75332657Y14949907D01*
X75325184Y14949946D01*
X75317921Y14948202D01*
X75317918Y14948202D01*
X75248636Y14931569D01*
X75172088Y14913191D01*
X75032179Y14840979D01*
X75026548Y14836066D01*
X75026547Y14836066D01*
X75012485Y14823799D01*
X74913534Y14737478D01*
X74823001Y14608663D01*
X74765809Y14461972D01*
X74745258Y14305873D01*
X59930862Y14305873D01*
X59951297Y14334312D01*
X60010224Y14416317D01*
X60068950Y14562402D01*
X60070793Y14575351D01*
X60090562Y14714256D01*
X60090562Y14714260D01*
X60091134Y14718277D01*
X60091278Y14732000D01*
X60089551Y14746273D01*
X60073262Y14880881D01*
X60073261Y14880885D01*
X60072363Y14888306D01*
X60039098Y14976340D01*
X60032855Y14992862D01*
X70972758Y14992862D01*
X70973578Y14985434D01*
X70973578Y14985432D01*
X70977587Y14949122D01*
X70990035Y14836367D01*
X70992601Y14829355D01*
X70992602Y14829351D01*
X71008198Y14786735D01*
X71044143Y14688510D01*
X71131958Y14557828D01*
X71154183Y14537605D01*
X71242878Y14456898D01*
X71242882Y14456895D01*
X71248410Y14451865D01*
X71254980Y14448298D01*
X71254981Y14448297D01*
X71301112Y14423250D01*
X71386776Y14376738D01*
X71489031Y14349912D01*
X71531841Y14338681D01*
X71531843Y14338681D01*
X71539069Y14336785D01*
X71616127Y14335575D01*
X71689025Y14334429D01*
X71689028Y14334429D01*
X71696495Y14334312D01*
X71703776Y14335980D01*
X71703780Y14335980D01*
X71842681Y14367793D01*
X71849968Y14369462D01*
X71990625Y14440205D01*
X71996306Y14445057D01*
X71996309Y14445059D01*
X72104666Y14537605D01*
X72104667Y14537606D01*
X72110348Y14542458D01*
X72121393Y14557828D01*
X72144363Y14589795D01*
X72202224Y14670317D01*
X72260950Y14816402D01*
X72263749Y14836066D01*
X72282562Y14968256D01*
X72282562Y14968260D01*
X72283134Y14972277D01*
X72283278Y14986000D01*
X72278124Y15028592D01*
X72265262Y15134881D01*
X72265261Y15134885D01*
X72264363Y15142306D01*
X72242222Y15200900D01*
X72211354Y15282592D01*
X72211352Y15282595D01*
X72208710Y15289588D01*
X72187325Y15320703D01*
X72123768Y15413179D01*
X72123765Y15413182D01*
X72119531Y15419343D01*
X72001976Y15524081D01*
X71862831Y15597755D01*
X71710128Y15636111D01*
X71628329Y15636539D01*
X71560158Y15636896D01*
X71560157Y15636896D01*
X71552684Y15636935D01*
X71545421Y15635191D01*
X71545418Y15635191D01*
X71476136Y15618557D01*
X71399588Y15600180D01*
X71259679Y15527968D01*
X71141034Y15424467D01*
X71050501Y15295652D01*
X70993309Y15148961D01*
X70972758Y14992862D01*
X60032855Y14992862D01*
X60019354Y15028592D01*
X60019352Y15028595D01*
X60016710Y15035588D01*
X59956690Y15122917D01*
X59931768Y15159179D01*
X59931765Y15159182D01*
X59927531Y15165343D01*
X59921948Y15170317D01*
X59921943Y15170323D01*
X59890500Y15198338D01*
X59853541Y15257632D01*
X59848989Y15290920D01*
X59848989Y16516862D01*
X68432758Y16516862D01*
X68433578Y16509434D01*
X68433578Y16509432D01*
X68435474Y16492256D01*
X68450035Y16360367D01*
X68504143Y16212510D01*
X68591958Y16081828D01*
X68636175Y16041594D01*
X68702878Y15980898D01*
X68702882Y15980895D01*
X68708410Y15975865D01*
X68714980Y15972298D01*
X68714981Y15972297D01*
X68824599Y15912779D01*
X68846776Y15900738D01*
X68949031Y15873912D01*
X68991841Y15862681D01*
X68991843Y15862681D01*
X68999069Y15860785D01*
X69076127Y15859575D01*
X69149025Y15858429D01*
X69149028Y15858429D01*
X69156495Y15858312D01*
X69163776Y15859980D01*
X69163780Y15859980D01*
X69302681Y15891793D01*
X69309968Y15893462D01*
X69450625Y15964205D01*
X69456306Y15969057D01*
X69456309Y15969059D01*
X69564666Y16061605D01*
X69564667Y16061606D01*
X69570348Y16066458D01*
X69581393Y16081828D01*
X69626854Y16145095D01*
X69662224Y16194317D01*
X69720950Y16340402D01*
X69722793Y16353351D01*
X69742562Y16492256D01*
X69742562Y16492260D01*
X69743134Y16496277D01*
X69743278Y16510000D01*
X69740823Y16530289D01*
X69725262Y16658881D01*
X69725261Y16658885D01*
X69724363Y16666306D01*
X69703597Y16721262D01*
X69671354Y16806592D01*
X69671352Y16806595D01*
X69668710Y16813588D01*
X69664473Y16819753D01*
X69583768Y16937179D01*
X69583765Y16937182D01*
X69579531Y16943343D01*
X69461976Y17048081D01*
X69322831Y17121755D01*
X69170128Y17160111D01*
X69088329Y17160539D01*
X69020158Y17160896D01*
X69020157Y17160896D01*
X69012684Y17160935D01*
X69005421Y17159191D01*
X69005418Y17159191D01*
X68936136Y17142557D01*
X68859588Y17124180D01*
X68719679Y17051968D01*
X68601034Y16948467D01*
X68510501Y16819652D01*
X68453309Y16672961D01*
X68432758Y16516862D01*
X59848989Y16516862D01*
X59848989Y16530289D01*
X59868674Y16597328D01*
X59921478Y16643083D01*
X59990636Y16653027D01*
X60004451Y16650231D01*
X60031697Y16643083D01*
X60101841Y16624681D01*
X60101843Y16624681D01*
X60109069Y16622785D01*
X60186127Y16621575D01*
X60259025Y16620429D01*
X60259028Y16620429D01*
X60266495Y16620312D01*
X60273776Y16621980D01*
X60273780Y16621980D01*
X60412681Y16653793D01*
X60419968Y16655462D01*
X60560625Y16726205D01*
X60566306Y16731057D01*
X60566309Y16731059D01*
X60674666Y16823605D01*
X60674667Y16823606D01*
X60680348Y16828458D01*
X60772224Y16956317D01*
X60830950Y17102402D01*
X60832003Y17109799D01*
X60852562Y17254256D01*
X60852562Y17254260D01*
X60853134Y17258277D01*
X60853278Y17272000D01*
X60843903Y17349470D01*
X60835262Y17420881D01*
X60835261Y17420885D01*
X60834363Y17428306D01*
X60794855Y17532862D01*
X77322758Y17532862D01*
X77323578Y17525434D01*
X77323578Y17525432D01*
X77325474Y17508256D01*
X77340035Y17376367D01*
X77394143Y17228510D01*
X77481958Y17097828D01*
X77504183Y17077605D01*
X77592878Y16996898D01*
X77592882Y16996895D01*
X77598410Y16991865D01*
X77604980Y16988298D01*
X77604981Y16988297D01*
X77730208Y16920304D01*
X77736776Y16916738D01*
X77839031Y16889912D01*
X77881841Y16878681D01*
X77881843Y16878681D01*
X77889069Y16876785D01*
X77966127Y16875575D01*
X78039025Y16874429D01*
X78039028Y16874429D01*
X78046495Y16874312D01*
X78053776Y16875980D01*
X78053780Y16875980D01*
X78192681Y16907793D01*
X78199968Y16909462D01*
X78340625Y16980205D01*
X78346306Y16985057D01*
X78346309Y16985059D01*
X78454666Y17077605D01*
X78454667Y17077606D01*
X78460348Y17082458D01*
X78471393Y17097828D01*
X78516739Y17160935D01*
X78552224Y17210317D01*
X78610950Y17356402D01*
X78612793Y17369351D01*
X78632562Y17508256D01*
X78632562Y17508260D01*
X78633134Y17512277D01*
X78633278Y17526000D01*
X78632448Y17532862D01*
X81386758Y17532862D01*
X81387578Y17525434D01*
X81387578Y17525432D01*
X81389474Y17508256D01*
X81404035Y17376367D01*
X81458143Y17228510D01*
X81545958Y17097828D01*
X81568183Y17077605D01*
X81656878Y16996898D01*
X81656882Y16996895D01*
X81662410Y16991865D01*
X81668980Y16988298D01*
X81668981Y16988297D01*
X81794208Y16920304D01*
X81800776Y16916738D01*
X81903031Y16889912D01*
X81945841Y16878681D01*
X81945843Y16878681D01*
X81953069Y16876785D01*
X82030127Y16875575D01*
X82103025Y16874429D01*
X82103028Y16874429D01*
X82110495Y16874312D01*
X82117776Y16875980D01*
X82117780Y16875980D01*
X82256681Y16907793D01*
X82263968Y16909462D01*
X82404625Y16980205D01*
X82410306Y16985057D01*
X82410309Y16985059D01*
X82518666Y17077605D01*
X82518667Y17077606D01*
X82524348Y17082458D01*
X82535393Y17097828D01*
X82580739Y17160935D01*
X82616224Y17210317D01*
X82674950Y17356402D01*
X82676793Y17369351D01*
X82696562Y17508256D01*
X82696562Y17508260D01*
X82697134Y17512277D01*
X82697278Y17526000D01*
X82683630Y17638785D01*
X82679262Y17674881D01*
X82679261Y17674885D01*
X82678363Y17682306D01*
X82664999Y17717672D01*
X82625354Y17822592D01*
X82625352Y17822595D01*
X82622710Y17829588D01*
X82618473Y17835753D01*
X82537768Y17953179D01*
X82537765Y17953182D01*
X82533531Y17959343D01*
X82415976Y18064081D01*
X82276831Y18137755D01*
X82124128Y18176111D01*
X82042329Y18176539D01*
X81974158Y18176896D01*
X81974157Y18176896D01*
X81966684Y18176935D01*
X81959421Y18175191D01*
X81959418Y18175191D01*
X81890136Y18158558D01*
X81813588Y18140180D01*
X81673679Y18067968D01*
X81555034Y17964467D01*
X81464501Y17835652D01*
X81407309Y17688961D01*
X81386758Y17532862D01*
X78632448Y17532862D01*
X78619630Y17638785D01*
X78615262Y17674881D01*
X78615261Y17674885D01*
X78614363Y17682306D01*
X78600999Y17717672D01*
X78561354Y17822592D01*
X78561352Y17822595D01*
X78558710Y17829588D01*
X78554473Y17835753D01*
X78473768Y17953179D01*
X78473765Y17953182D01*
X78469531Y17959343D01*
X78351976Y18064081D01*
X78212831Y18137755D01*
X78060128Y18176111D01*
X77978329Y18176539D01*
X77910158Y18176896D01*
X77910157Y18176896D01*
X77902684Y18176935D01*
X77895421Y18175191D01*
X77895418Y18175191D01*
X77826136Y18158558D01*
X77749588Y18140180D01*
X77609679Y18067968D01*
X77491034Y17964467D01*
X77400501Y17835652D01*
X77343309Y17688961D01*
X77322758Y17532862D01*
X60794855Y17532862D01*
X60781353Y17568594D01*
X60781352Y17568595D01*
X60778710Y17575588D01*
X60774474Y17581751D01*
X60773231Y17584129D01*
X60759615Y17652659D01*
X60785211Y17717672D01*
X60841892Y17758526D01*
X60885067Y17765565D01*
X61021025Y17763429D01*
X61021028Y17763429D01*
X61028495Y17763312D01*
X61035776Y17764980D01*
X61035780Y17764980D01*
X61174681Y17796793D01*
X61181968Y17798462D01*
X61322625Y17869205D01*
X61328306Y17874057D01*
X61328309Y17874059D01*
X61436666Y17966605D01*
X61436667Y17966606D01*
X61442348Y17971458D01*
X61463619Y18001059D01*
X61512545Y18069148D01*
X61534224Y18099317D01*
X61592950Y18245402D01*
X61597060Y18274277D01*
X61599990Y18294862D01*
X70972758Y18294862D01*
X70973578Y18287434D01*
X70973578Y18287432D01*
X70981644Y18214372D01*
X70990035Y18138367D01*
X70992601Y18131355D01*
X70992602Y18131351D01*
X71015797Y18067968D01*
X71044143Y17990510D01*
X71073139Y17947360D01*
X71111474Y17890312D01*
X71131958Y17859828D01*
X71166183Y17828686D01*
X71242878Y17758898D01*
X71242882Y17758895D01*
X71248410Y17753865D01*
X71254980Y17750298D01*
X71254981Y17750297D01*
X71380208Y17682304D01*
X71386776Y17678738D01*
X71486184Y17652659D01*
X71531841Y17640681D01*
X71531843Y17640681D01*
X71539069Y17638785D01*
X71616127Y17637575D01*
X71689025Y17636429D01*
X71689028Y17636429D01*
X71696495Y17636312D01*
X71703776Y17637980D01*
X71703780Y17637980D01*
X71842681Y17669793D01*
X71849968Y17671462D01*
X71990625Y17742205D01*
X71996306Y17747057D01*
X71996309Y17747059D01*
X72104666Y17839605D01*
X72104667Y17839606D01*
X72110348Y17844458D01*
X72121393Y17859828D01*
X72143297Y17890312D01*
X72202224Y17972317D01*
X72260950Y18118402D01*
X72262793Y18131351D01*
X72282562Y18270256D01*
X72282562Y18270260D01*
X72283134Y18274277D01*
X72283278Y18288000D01*
X72273903Y18365470D01*
X72265262Y18436881D01*
X72265261Y18436885D01*
X72264363Y18444306D01*
X72231098Y18532340D01*
X72211354Y18584592D01*
X72211352Y18584595D01*
X72208710Y18591588D01*
X72165356Y18654668D01*
X72123768Y18715179D01*
X72123765Y18715182D01*
X72119531Y18721343D01*
X72014772Y18814680D01*
X72007559Y18821107D01*
X72007558Y18821108D01*
X72001976Y18826081D01*
X71862831Y18899755D01*
X71750553Y18927957D01*
X71717378Y18936290D01*
X71710128Y18938111D01*
X71628329Y18938539D01*
X71560158Y18938896D01*
X71560157Y18938896D01*
X71552684Y18938935D01*
X71545421Y18937191D01*
X71545418Y18937191D01*
X71476136Y18920557D01*
X71399588Y18902180D01*
X71259679Y18829968D01*
X71254048Y18825055D01*
X71254047Y18825055D01*
X71211037Y18787535D01*
X71141034Y18726467D01*
X71050501Y18597652D01*
X71047785Y18590687D01*
X71047785Y18590686D01*
X71031479Y18548862D01*
X70993309Y18450961D01*
X70972758Y18294862D01*
X61599990Y18294862D01*
X61610038Y18365470D01*
X61614574Y18397343D01*
X61643508Y18460940D01*
X61649656Y18467553D01*
X62492965Y19310862D01*
X67670758Y19310862D01*
X67671578Y19303434D01*
X67671578Y19303432D01*
X67673474Y19286256D01*
X67688035Y19154367D01*
X67742143Y19006510D01*
X67829958Y18875828D01*
X67864183Y18844686D01*
X67940878Y18774898D01*
X67940882Y18774895D01*
X67946410Y18769865D01*
X67952980Y18766298D01*
X67952981Y18766297D01*
X68078208Y18698304D01*
X68084776Y18694738D01*
X68172223Y18671797D01*
X68229841Y18656681D01*
X68229843Y18656681D01*
X68237069Y18654785D01*
X68314127Y18653575D01*
X68387025Y18652429D01*
X68387028Y18652429D01*
X68394495Y18652312D01*
X68401776Y18653980D01*
X68401780Y18653980D01*
X68540681Y18685793D01*
X68547968Y18687462D01*
X68688625Y18758205D01*
X68694306Y18763057D01*
X68694309Y18763059D01*
X68802666Y18855605D01*
X68802667Y18855606D01*
X68808348Y18860458D01*
X68819393Y18875828D01*
X68862839Y18936290D01*
X68900224Y18988317D01*
X68958950Y19134402D01*
X68960793Y19147351D01*
X68970615Y19216362D01*
X76814758Y19216362D01*
X76815578Y19208934D01*
X76815578Y19208932D01*
X76821602Y19154367D01*
X76832035Y19059867D01*
X76834601Y19052855D01*
X76834602Y19052851D01*
X76859293Y18985380D01*
X76886143Y18912010D01*
X76890314Y18905803D01*
X76947228Y18821107D01*
X76973958Y18781328D01*
X77023531Y18736220D01*
X77084878Y18680398D01*
X77084882Y18680395D01*
X77090410Y18675365D01*
X77096980Y18671798D01*
X77096981Y18671797D01*
X77132868Y18652312D01*
X77228776Y18600238D01*
X77331031Y18573412D01*
X77373841Y18562181D01*
X77373843Y18562181D01*
X77381069Y18560285D01*
X77458127Y18559075D01*
X77531025Y18557929D01*
X77531028Y18557929D01*
X77538495Y18557812D01*
X77545776Y18559480D01*
X77545780Y18559480D01*
X77684681Y18591293D01*
X77691968Y18592962D01*
X77832625Y18663705D01*
X77838306Y18668557D01*
X77838309Y18668559D01*
X77946666Y18761105D01*
X77946667Y18761106D01*
X77952348Y18765958D01*
X77963393Y18781328D01*
X77987628Y18815055D01*
X78044224Y18893817D01*
X78102950Y19039902D01*
X78104793Y19052851D01*
X78124562Y19191756D01*
X78124562Y19191760D01*
X78125134Y19195777D01*
X78125278Y19209500D01*
X78115503Y19290277D01*
X78107262Y19358381D01*
X78107261Y19358385D01*
X78106363Y19365806D01*
X78070942Y19459546D01*
X78053354Y19506092D01*
X78053352Y19506095D01*
X78050710Y19513088D01*
X78045819Y19520205D01*
X77965768Y19636679D01*
X77965765Y19636682D01*
X77961531Y19642843D01*
X77862385Y19731179D01*
X77849559Y19742607D01*
X77849558Y19742608D01*
X77843976Y19747581D01*
X77704831Y19821255D01*
X77552128Y19859611D01*
X77470329Y19860039D01*
X77402158Y19860396D01*
X77402157Y19860396D01*
X77394684Y19860435D01*
X77387421Y19858691D01*
X77387418Y19858691D01*
X77334424Y19845968D01*
X77241588Y19823680D01*
X77101679Y19751468D01*
X76983034Y19647967D01*
X76892501Y19519152D01*
X76835309Y19372461D01*
X76814758Y19216362D01*
X68970615Y19216362D01*
X68980562Y19286256D01*
X68980562Y19286260D01*
X68981134Y19290277D01*
X68981278Y19304000D01*
X68973799Y19365806D01*
X68963262Y19452881D01*
X68963261Y19452885D01*
X68962363Y19460306D01*
X68945062Y19506092D01*
X68909354Y19600592D01*
X68909352Y19600595D01*
X68906710Y19607588D01*
X68902473Y19613753D01*
X68821768Y19731179D01*
X68821765Y19731182D01*
X68817531Y19737343D01*
X68720629Y19823680D01*
X68705559Y19837107D01*
X68705558Y19837108D01*
X68699976Y19842081D01*
X68560831Y19915755D01*
X68408128Y19954111D01*
X68326329Y19954539D01*
X68258158Y19954896D01*
X68258157Y19954896D01*
X68250684Y19954935D01*
X68243421Y19953191D01*
X68243418Y19953191D01*
X68174136Y19936557D01*
X68097588Y19918180D01*
X67957679Y19845968D01*
X67839034Y19742467D01*
X67748501Y19613652D01*
X67691309Y19466961D01*
X67670758Y19310862D01*
X62492965Y19310862D01*
X63254965Y20072862D01*
X70210758Y20072862D01*
X70211578Y20065434D01*
X70211578Y20065432D01*
X70213474Y20048256D01*
X70228035Y19916367D01*
X70282143Y19768510D01*
X70369958Y19637828D01*
X70404183Y19606686D01*
X70480878Y19536898D01*
X70480882Y19536895D01*
X70486410Y19531865D01*
X70492980Y19528298D01*
X70492981Y19528297D01*
X70618208Y19460304D01*
X70624776Y19456738D01*
X70727031Y19429912D01*
X70769841Y19418681D01*
X70769843Y19418681D01*
X70777069Y19416785D01*
X70854127Y19415575D01*
X70927025Y19414429D01*
X70927028Y19414429D01*
X70934495Y19414312D01*
X70941776Y19415980D01*
X70941780Y19415980D01*
X71080681Y19447793D01*
X71087968Y19449462D01*
X71228625Y19520205D01*
X71234306Y19525057D01*
X71234309Y19525059D01*
X71342666Y19617605D01*
X71342667Y19617606D01*
X71348348Y19622458D01*
X71359393Y19637828D01*
X71426472Y19731179D01*
X71440224Y19750317D01*
X71498950Y19896402D01*
X71500793Y19909351D01*
X71520562Y20048256D01*
X71520562Y20048260D01*
X71521134Y20052277D01*
X71521278Y20066000D01*
X71518100Y20092263D01*
X71503262Y20214881D01*
X71503261Y20214885D01*
X71502363Y20222306D01*
X71466329Y20317668D01*
X71449354Y20362592D01*
X71449352Y20362595D01*
X71446710Y20369588D01*
X71394994Y20444835D01*
X71361768Y20493179D01*
X71361765Y20493182D01*
X71357531Y20499343D01*
X71239976Y20604081D01*
X71194372Y20628227D01*
X76005393Y20628227D01*
X76006213Y20620799D01*
X76006213Y20620797D01*
X76008109Y20603621D01*
X76022670Y20471732D01*
X76076778Y20323875D01*
X76080949Y20317668D01*
X76145541Y20221546D01*
X76164593Y20193193D01*
X76186818Y20172970D01*
X76275513Y20092263D01*
X76275517Y20092260D01*
X76281045Y20087230D01*
X76287615Y20083663D01*
X76287616Y20083662D01*
X76412843Y20015669D01*
X76419411Y20012103D01*
X76521666Y19985277D01*
X76564476Y19974046D01*
X76564478Y19974046D01*
X76571704Y19972150D01*
X76648762Y19970940D01*
X76721660Y19969794D01*
X76721663Y19969794D01*
X76729130Y19969677D01*
X76736411Y19971345D01*
X76736415Y19971345D01*
X76875316Y20003158D01*
X76882603Y20004827D01*
X77023260Y20075570D01*
X77028941Y20080422D01*
X77028944Y20080424D01*
X77137301Y20172970D01*
X77137302Y20172971D01*
X77142983Y20177823D01*
X77154028Y20193193D01*
X77184735Y20235927D01*
X77234859Y20305682D01*
X77293585Y20451767D01*
X77295428Y20464716D01*
X77315197Y20603621D01*
X77315197Y20603625D01*
X77315769Y20607642D01*
X77315913Y20621365D01*
X77309513Y20674256D01*
X77297897Y20770246D01*
X77297896Y20770250D01*
X77296998Y20777671D01*
X77241345Y20924953D01*
X77232972Y20937136D01*
X77156403Y21048544D01*
X77156400Y21048547D01*
X77152166Y21054708D01*
X77034611Y21159446D01*
X76895466Y21233120D01*
X76742763Y21271476D01*
X76660964Y21271904D01*
X76592793Y21272261D01*
X76592792Y21272261D01*
X76585319Y21272300D01*
X76578056Y21270556D01*
X76578053Y21270556D01*
X76508771Y21253922D01*
X76432223Y21235545D01*
X76292314Y21163333D01*
X76173669Y21059832D01*
X76083136Y20931017D01*
X76025944Y20784326D01*
X76005393Y20628227D01*
X71194372Y20628227D01*
X71100831Y20677755D01*
X70948128Y20716111D01*
X70866329Y20716539D01*
X70798158Y20716896D01*
X70798157Y20716896D01*
X70790684Y20716935D01*
X70783421Y20715191D01*
X70783418Y20715191D01*
X70714136Y20698558D01*
X70637588Y20680180D01*
X70497679Y20607968D01*
X70379034Y20504467D01*
X70288501Y20375652D01*
X70231309Y20228961D01*
X70210758Y20072862D01*
X63254965Y20072862D01*
X66490965Y23308862D01*
X71414758Y23308862D01*
X71415578Y23301434D01*
X71415578Y23301432D01*
X71424609Y23219633D01*
X71432035Y23152367D01*
X71486143Y23004510D01*
X71573958Y22873828D01*
X71596183Y22853605D01*
X71684878Y22772898D01*
X71684882Y22772895D01*
X71690410Y22767865D01*
X71828776Y22692738D01*
X71897690Y22674659D01*
X71973841Y22654681D01*
X71973843Y22654681D01*
X71981069Y22652785D01*
X72058127Y22651575D01*
X72131025Y22650429D01*
X72131028Y22650429D01*
X72138495Y22650312D01*
X72145776Y22651980D01*
X72145780Y22651980D01*
X72284681Y22683793D01*
X72291968Y22685462D01*
X72432625Y22756205D01*
X72438306Y22761057D01*
X72438309Y22761059D01*
X72546666Y22853605D01*
X72546667Y22853606D01*
X72552348Y22858458D01*
X72563393Y22873828D01*
X72600257Y22925131D01*
X72644224Y22986317D01*
X72702950Y23132402D01*
X72704793Y23145351D01*
X72724562Y23284256D01*
X72724562Y23284260D01*
X72725134Y23288277D01*
X72725278Y23302000D01*
X72717268Y23368193D01*
X72707262Y23450881D01*
X72707261Y23450885D01*
X72706363Y23458306D01*
X72683699Y23518286D01*
X72653354Y23598592D01*
X72653352Y23598595D01*
X72650710Y23605588D01*
X72619478Y23651031D01*
X72565768Y23729179D01*
X72565765Y23729182D01*
X72561531Y23735343D01*
X72480515Y23807526D01*
X78160094Y23807526D01*
X78160914Y23800098D01*
X78160914Y23800096D01*
X78168743Y23729179D01*
X78177371Y23651031D01*
X78179937Y23644019D01*
X78179938Y23644015D01*
X78201826Y23584205D01*
X78231479Y23503174D01*
X78319294Y23372492D01*
X78356630Y23338519D01*
X78430214Y23271562D01*
X78430218Y23271559D01*
X78435746Y23266529D01*
X78442316Y23262962D01*
X78442317Y23262961D01*
X78562225Y23197856D01*
X78574112Y23191402D01*
X78676367Y23164576D01*
X78719177Y23153345D01*
X78719179Y23153345D01*
X78726405Y23151449D01*
X78803463Y23150239D01*
X78876361Y23149093D01*
X78876364Y23149093D01*
X78883831Y23148976D01*
X78891112Y23150644D01*
X78891116Y23150644D01*
X79030017Y23182457D01*
X79037304Y23184126D01*
X79177961Y23254869D01*
X79183642Y23259721D01*
X79183645Y23259723D01*
X79239434Y23307372D01*
X79242451Y23309948D01*
X79306212Y23338519D01*
X79375297Y23328082D01*
X79406430Y23307376D01*
X79456045Y23262230D01*
X79462615Y23258663D01*
X79462616Y23258662D01*
X79586493Y23191402D01*
X79594411Y23187103D01*
X79696666Y23160277D01*
X79739476Y23149046D01*
X79739478Y23149046D01*
X79746704Y23147150D01*
X79823762Y23145940D01*
X79896660Y23144794D01*
X79896663Y23144794D01*
X79904130Y23144677D01*
X79911411Y23146345D01*
X79911415Y23146345D01*
X80050316Y23178158D01*
X80057603Y23179827D01*
X80198260Y23250570D01*
X80203941Y23255422D01*
X80203944Y23255424D01*
X80312301Y23347970D01*
X80312302Y23347971D01*
X80317983Y23352823D01*
X80328500Y23367458D01*
X80349433Y23396590D01*
X80409859Y23480682D01*
X80468585Y23626767D01*
X80472449Y23653918D01*
X80490197Y23778621D01*
X80490197Y23778625D01*
X80490769Y23782642D01*
X80490913Y23796365D01*
X80485747Y23839055D01*
X80472897Y23945246D01*
X80472896Y23945250D01*
X80471998Y23952671D01*
X80458726Y23987795D01*
X80418989Y24092957D01*
X80418987Y24092960D01*
X80416345Y24099953D01*
X80398487Y24125936D01*
X80331403Y24223544D01*
X80331400Y24223547D01*
X80327166Y24229708D01*
X80209611Y24334446D01*
X80070466Y24408120D01*
X79917763Y24446476D01*
X79835964Y24446904D01*
X79767793Y24447261D01*
X79767792Y24447261D01*
X79760319Y24447300D01*
X79753056Y24445556D01*
X79753053Y24445556D01*
X79703204Y24433588D01*
X79607223Y24410545D01*
X79467314Y24338333D01*
X79461685Y24333422D01*
X79461677Y24333417D01*
X79409460Y24287864D01*
X79346002Y24258627D01*
X79276810Y24268339D01*
X79245456Y24288722D01*
X79240699Y24292961D01*
X79189312Y24338745D01*
X79050167Y24412419D01*
X78897464Y24450775D01*
X78815665Y24451203D01*
X78747494Y24451560D01*
X78747493Y24451560D01*
X78740020Y24451599D01*
X78732757Y24449855D01*
X78732754Y24449855D01*
X78664999Y24433588D01*
X78586924Y24414844D01*
X78447015Y24342632D01*
X78441384Y24337719D01*
X78441383Y24337719D01*
X78390468Y24293303D01*
X78328370Y24239131D01*
X78237837Y24110316D01*
X78180645Y23963625D01*
X78160094Y23807526D01*
X72480515Y23807526D01*
X72472197Y23814937D01*
X72449559Y23835107D01*
X72449558Y23835108D01*
X72443976Y23840081D01*
X72304831Y23913755D01*
X72179459Y23945246D01*
X72159378Y23950290D01*
X72152128Y23952111D01*
X72070329Y23952539D01*
X72002158Y23952896D01*
X72002157Y23952896D01*
X71994684Y23952935D01*
X71987421Y23951191D01*
X71987418Y23951191D01*
X71918136Y23934558D01*
X71841588Y23916180D01*
X71701679Y23843968D01*
X71696048Y23839055D01*
X71696047Y23839055D01*
X71660730Y23808246D01*
X71583034Y23740467D01*
X71492501Y23611652D01*
X71435309Y23464961D01*
X71414758Y23308862D01*
X66490965Y23308862D01*
X68366436Y25184333D01*
X68377349Y25194031D01*
X68396830Y25209389D01*
X68404110Y25215128D01*
X68437483Y25263414D01*
X68439737Y25266568D01*
X68469125Y25306356D01*
X68469129Y25306364D01*
X68474634Y25313817D01*
X68477027Y25320631D01*
X68481131Y25326569D01*
X68498835Y25382548D01*
X68500068Y25386243D01*
X68502083Y25391981D01*
X68519519Y25441631D01*
X68519798Y25448733D01*
X68519847Y25448989D01*
X68521980Y25455730D01*
X68522500Y25462337D01*
X68522500Y25515068D01*
X68522596Y25519937D01*
X68524474Y25567727D01*
X68524474Y25567728D01*
X68524838Y25576994D01*
X68522960Y25584078D01*
X68522500Y25592438D01*
X68522500Y27184862D01*
X82148758Y27184862D01*
X82149578Y27177434D01*
X82149578Y27177432D01*
X82158797Y27093927D01*
X82166035Y27028367D01*
X82168601Y27021355D01*
X82168602Y27021351D01*
X82186129Y26973458D01*
X82220143Y26880510D01*
X82307958Y26749828D01*
X82330183Y26729605D01*
X82418878Y26648898D01*
X82418882Y26648895D01*
X82424410Y26643865D01*
X82430980Y26640298D01*
X82430981Y26640297D01*
X82504519Y26600369D01*
X82562776Y26568738D01*
X82644909Y26547191D01*
X82707841Y26530681D01*
X82707843Y26530681D01*
X82715069Y26528785D01*
X82792127Y26527575D01*
X82865025Y26526429D01*
X82865028Y26526429D01*
X82872495Y26526312D01*
X82879776Y26527980D01*
X82879780Y26527980D01*
X83018681Y26559793D01*
X83025968Y26561462D01*
X83166625Y26632205D01*
X83172306Y26637057D01*
X83172309Y26637059D01*
X83280666Y26729605D01*
X83280667Y26729606D01*
X83286348Y26734458D01*
X83297393Y26749828D01*
X83362551Y26840506D01*
X83378224Y26862317D01*
X83436950Y27008402D01*
X83438793Y27021351D01*
X83458562Y27160256D01*
X83458562Y27160260D01*
X83459134Y27164277D01*
X83459179Y27168494D01*
X83459235Y27173936D01*
X83459278Y27178000D01*
X83453917Y27222300D01*
X83441262Y27326881D01*
X83441261Y27326885D01*
X83440363Y27334306D01*
X83417737Y27394185D01*
X83387354Y27474592D01*
X83387352Y27474595D01*
X83384710Y27481588D01*
X83349887Y27532256D01*
X83299768Y27605179D01*
X83299765Y27605182D01*
X83295531Y27611343D01*
X83249251Y27652577D01*
X83183559Y27711107D01*
X83183558Y27711108D01*
X83177976Y27716081D01*
X83038831Y27789755D01*
X82886128Y27828111D01*
X82804329Y27828539D01*
X82736158Y27828896D01*
X82736157Y27828896D01*
X82728684Y27828935D01*
X82721421Y27827191D01*
X82721418Y27827191D01*
X82652136Y27810558D01*
X82575588Y27792180D01*
X82435679Y27719968D01*
X82317034Y27616467D01*
X82226501Y27487652D01*
X82169309Y27340961D01*
X82148758Y27184862D01*
X68522500Y27184862D01*
X68522500Y33026862D01*
X74274758Y33026862D01*
X74275578Y33019434D01*
X74275578Y33019432D01*
X74277474Y33002256D01*
X74292035Y32870367D01*
X74346143Y32722510D01*
X74433958Y32591828D01*
X74456183Y32571605D01*
X74544878Y32490898D01*
X74544882Y32490895D01*
X74550410Y32485865D01*
X74556980Y32482298D01*
X74556981Y32482297D01*
X74682208Y32414304D01*
X74688776Y32410738D01*
X74786343Y32385142D01*
X74833841Y32372681D01*
X74833843Y32372681D01*
X74841069Y32370785D01*
X74918127Y32369575D01*
X74991025Y32368429D01*
X74991028Y32368429D01*
X74998495Y32368312D01*
X75005776Y32369980D01*
X75005780Y32369980D01*
X75144681Y32401793D01*
X75151968Y32403462D01*
X75292625Y32474205D01*
X75298306Y32479057D01*
X75298309Y32479059D01*
X75406666Y32571605D01*
X75406667Y32571606D01*
X75412348Y32576458D01*
X75423393Y32591828D01*
X75482368Y32673901D01*
X75504224Y32704317D01*
X75562950Y32850402D01*
X75564793Y32863351D01*
X75584562Y33002256D01*
X75584562Y33002260D01*
X75585134Y33006277D01*
X75585278Y33020000D01*
X75571630Y33132785D01*
X75567262Y33168881D01*
X75567261Y33168885D01*
X75566363Y33176306D01*
X75542362Y33239824D01*
X75513354Y33316592D01*
X75513352Y33316595D01*
X75510710Y33323588D01*
X75493386Y33348794D01*
X75425768Y33447179D01*
X75425765Y33447182D01*
X75421531Y33453343D01*
X75334692Y33530714D01*
X75309559Y33553107D01*
X75309558Y33553108D01*
X75303976Y33558081D01*
X75164831Y33631755D01*
X75012128Y33670111D01*
X74930329Y33670539D01*
X74862158Y33670896D01*
X74862157Y33670896D01*
X74854684Y33670935D01*
X74847421Y33669191D01*
X74847418Y33669191D01*
X74778136Y33652557D01*
X74701588Y33634180D01*
X74561679Y33561968D01*
X74443034Y33458467D01*
X74352501Y33329652D01*
X74295309Y33182961D01*
X74274758Y33026862D01*
X68522500Y33026862D01*
X68522500Y33514328D01*
X68542185Y33581367D01*
X68594989Y33627122D01*
X68633846Y33635143D01*
X68633583Y33637647D01*
X68641026Y33638429D01*
X68648495Y33638312D01*
X68655776Y33639980D01*
X68655780Y33639980D01*
X68794681Y33671793D01*
X68801968Y33673462D01*
X68942625Y33744205D01*
X68948306Y33749057D01*
X68948309Y33749059D01*
X69056666Y33841605D01*
X69056667Y33841606D01*
X69062348Y33846458D01*
X69073393Y33861828D01*
X69128347Y33938306D01*
X69154224Y33974317D01*
X69212950Y34120402D01*
X69214793Y34133351D01*
X69234562Y34272256D01*
X69234562Y34272260D01*
X69235134Y34276277D01*
X69235278Y34290000D01*
X69234448Y34296862D01*
X69234191Y34298989D01*
X69245681Y34367908D01*
X69292607Y34419673D01*
X69360071Y34437851D01*
X69388757Y34433823D01*
X69405538Y34429421D01*
X69499841Y34404681D01*
X69499843Y34404681D01*
X69507069Y34402785D01*
X69655785Y34400449D01*
X69694919Y34393460D01*
X69736120Y34378991D01*
X69743222Y34378712D01*
X69743484Y34378660D01*
X69750219Y34376531D01*
X69756826Y34376011D01*
X69809532Y34376011D01*
X69814401Y34375915D01*
X69871483Y34373672D01*
X69878567Y34375551D01*
X69886932Y34376011D01*
X81053410Y34376011D01*
X81120449Y34356326D01*
X81166204Y34303522D01*
X81176148Y34234364D01*
X81168939Y34206967D01*
X81162309Y34189961D01*
X81141758Y34033862D01*
X81142578Y34026434D01*
X81142578Y34026432D01*
X81151535Y33945303D01*
X81159035Y33877367D01*
X81161601Y33870355D01*
X81161602Y33870351D01*
X81168878Y33850470D01*
X81213143Y33729510D01*
X81300958Y33598828D01*
X81346866Y33557055D01*
X81411878Y33497898D01*
X81411882Y33497895D01*
X81417410Y33492865D01*
X81423980Y33489298D01*
X81423981Y33489297D01*
X81549208Y33421304D01*
X81555776Y33417738D01*
X81658031Y33390912D01*
X81700841Y33379681D01*
X81700843Y33379681D01*
X81708069Y33377785D01*
X81785127Y33376575D01*
X81858025Y33375429D01*
X81858028Y33375429D01*
X81865495Y33375312D01*
X81872776Y33376980D01*
X81872780Y33376980D01*
X82011681Y33408793D01*
X82018968Y33410462D01*
X82159625Y33481205D01*
X82165306Y33486057D01*
X82165309Y33486059D01*
X82273666Y33578605D01*
X82273667Y33578606D01*
X82279348Y33583458D01*
X82290393Y33598828D01*
X82341614Y33670111D01*
X82371224Y33711317D01*
X82429950Y33857402D01*
X82431003Y33864799D01*
X82451562Y34009256D01*
X82451562Y34009260D01*
X82452134Y34013277D01*
X82452278Y34027000D01*
X82445188Y34085588D01*
X82434262Y34175881D01*
X82434261Y34175885D01*
X82433363Y34183306D01*
X82423964Y34208181D01*
X82418681Y34277850D01*
X82451903Y34339316D01*
X82513083Y34373063D01*
X82539959Y34376011D01*
X85920118Y34376011D01*
X85970257Y34365422D01*
X85977304Y34362306D01*
X85977307Y34362305D01*
X85985783Y34358558D01*
X85994987Y34357468D01*
X86003367Y34355176D01*
X86011885Y34353551D01*
X86020631Y34350480D01*
X86065765Y34348706D01*
X86075465Y34347943D01*
X86111100Y34343725D01*
X86111107Y34343725D01*
X86120310Y34342636D01*
X86129428Y34344301D01*
X86138127Y34344575D01*
X86146732Y34345525D01*
X86155994Y34345161D01*
X86199672Y34356742D01*
X86209173Y34358866D01*
X86244457Y34365310D01*
X86244458Y34365310D01*
X86253573Y34366975D01*
X86261796Y34371246D01*
X86270017Y34374061D01*
X86277975Y34377505D01*
X86286937Y34379881D01*
X86325286Y34403797D01*
X86333707Y34408601D01*
X86373788Y34429421D01*
X86378828Y34433725D01*
X86380550Y34435447D01*
X86381306Y34436146D01*
X86387058Y34440536D01*
X86386968Y34440642D01*
X86394015Y34446661D01*
X86401882Y34451567D01*
X86409137Y34459927D01*
X86433207Y34487666D01*
X86439181Y34494078D01*
X89448436Y37503333D01*
X89459349Y37513031D01*
X89478830Y37528389D01*
X89486110Y37534128D01*
X89496954Y37549817D01*
X89506651Y37563848D01*
X89519483Y37582414D01*
X89521737Y37585568D01*
X89551125Y37625356D01*
X89551129Y37625364D01*
X89556634Y37632817D01*
X89559027Y37639631D01*
X89563131Y37645569D01*
X89580835Y37701548D01*
X89582068Y37705243D01*
X89589978Y37727767D01*
X89601519Y37760631D01*
X89601798Y37767733D01*
X89601847Y37767989D01*
X89603980Y37774730D01*
X89604500Y37781337D01*
X89604500Y37834068D01*
X89604596Y37838937D01*
X89606474Y37886727D01*
X89606474Y37886728D01*
X89606838Y37895994D01*
X89604960Y37903078D01*
X89604500Y37911438D01*
X89604500Y42654805D01*
X89624185Y42721844D01*
X89633756Y42734244D01*
X89636348Y42736458D01*
X89728224Y42864317D01*
X89786950Y43010402D01*
X89788793Y43023351D01*
X89808562Y43162256D01*
X89808562Y43162260D01*
X89809134Y43166277D01*
X89809278Y43180000D01*
X89804124Y43222592D01*
X89791262Y43328881D01*
X89791261Y43328885D01*
X89790363Y43336306D01*
X89777865Y43369380D01*
X89737354Y43476592D01*
X89737352Y43476595D01*
X89734710Y43483588D01*
X89721905Y43502219D01*
X89649768Y43607179D01*
X89649765Y43607182D01*
X89645531Y43613343D01*
X89564525Y43685517D01*
X89533559Y43713107D01*
X89533558Y43713108D01*
X89527976Y43718081D01*
X89388831Y43791755D01*
X89236128Y43830111D01*
X89154329Y43830539D01*
X89086158Y43830896D01*
X89086157Y43830896D01*
X89078684Y43830935D01*
X89071421Y43829191D01*
X89071418Y43829191D01*
X89002136Y43812557D01*
X88925588Y43794180D01*
X88785679Y43721968D01*
X88667034Y43618467D01*
X88576501Y43489652D01*
X88519309Y43342961D01*
X88498758Y43186862D01*
X88499578Y43179434D01*
X88499578Y43179432D01*
X88507721Y43105672D01*
X88516035Y43030367D01*
X88518601Y43023355D01*
X88518602Y43023351D01*
X88542237Y42958767D01*
X88570143Y42882510D01*
X88574314Y42876303D01*
X88637474Y42782312D01*
X88657958Y42751828D01*
X88663488Y42746796D01*
X88668372Y42741138D01*
X88667272Y42740189D01*
X88699290Y42687605D01*
X88703500Y42655568D01*
X88703500Y42652076D01*
X88683815Y42585037D01*
X88631011Y42539282D01*
X88561853Y42529338D01*
X88549292Y42531812D01*
X88443878Y42558290D01*
X88436628Y42560111D01*
X88354829Y42560539D01*
X88286658Y42560896D01*
X88286657Y42560896D01*
X88279184Y42560935D01*
X88271921Y42559191D01*
X88271918Y42559191D01*
X88202636Y42542558D01*
X88126088Y42524180D01*
X87986179Y42451968D01*
X87867534Y42348467D01*
X87777001Y42219652D01*
X87719809Y42072961D01*
X87718833Y42065546D01*
X87700962Y41929803D01*
X87672696Y41865906D01*
X87665704Y41858307D01*
X86263725Y40456328D01*
X86202402Y40422843D01*
X86176044Y40420009D01*
X79230319Y40420009D01*
X79163280Y40439694D01*
X79117525Y40492498D01*
X79107581Y40561656D01*
X79115267Y40590258D01*
X79116162Y40592484D01*
X79116164Y40592492D01*
X79118950Y40599422D01*
X79120793Y40612371D01*
X79140562Y40751276D01*
X79140562Y40751280D01*
X79141134Y40755297D01*
X79141278Y40769020D01*
X79128271Y40876506D01*
X79123262Y40917901D01*
X79123261Y40917905D01*
X79122363Y40925326D01*
X79077943Y41042881D01*
X79069354Y41065612D01*
X79069352Y41065615D01*
X79066710Y41072608D01*
X79001873Y41166946D01*
X78981768Y41196199D01*
X78981765Y41196202D01*
X78977531Y41202363D01*
X78912862Y41259981D01*
X78865559Y41302127D01*
X78865558Y41302128D01*
X78859976Y41307101D01*
X78720831Y41380775D01*
X78568128Y41419131D01*
X78486329Y41419559D01*
X78418158Y41419916D01*
X78418157Y41419916D01*
X78410684Y41419955D01*
X78403421Y41418211D01*
X78403418Y41418211D01*
X78334136Y41401578D01*
X78257588Y41383200D01*
X78117679Y41310988D01*
X78112048Y41306075D01*
X78112047Y41306075D01*
X78086278Y41283595D01*
X77999034Y41207487D01*
X77908501Y41078672D01*
X77851309Y40931981D01*
X77830758Y40775882D01*
X77831578Y40768454D01*
X77831578Y40768452D01*
X77833417Y40751795D01*
X77848035Y40619387D01*
X77850601Y40612375D01*
X77850602Y40612371D01*
X77860025Y40586623D01*
X77864578Y40516902D01*
X77830714Y40455787D01*
X77769185Y40422682D01*
X77743577Y40420009D01*
X69742456Y40420009D01*
X69675417Y40439694D01*
X69654775Y40456328D01*
X66670241Y43440862D01*
X70210758Y43440862D01*
X70211578Y43433434D01*
X70211578Y43433432D01*
X70219192Y43364467D01*
X70228035Y43284367D01*
X70230601Y43277355D01*
X70230602Y43277351D01*
X70258967Y43199841D01*
X70282143Y43136510D01*
X70369958Y43005828D01*
X70397067Y42981161D01*
X70480878Y42904898D01*
X70480882Y42904895D01*
X70486410Y42899865D01*
X70492980Y42896298D01*
X70492981Y42896297D01*
X70539112Y42871250D01*
X70624776Y42824738D01*
X70727031Y42797912D01*
X70769841Y42786681D01*
X70769843Y42786681D01*
X70777069Y42784785D01*
X70854127Y42783575D01*
X70927025Y42782429D01*
X70927028Y42782429D01*
X70934495Y42782312D01*
X70941776Y42783980D01*
X70941780Y42783980D01*
X71080681Y42815793D01*
X71087968Y42817462D01*
X71228625Y42888205D01*
X71234306Y42893057D01*
X71234309Y42893059D01*
X71342666Y42985605D01*
X71342667Y42985606D01*
X71348348Y42990458D01*
X71359393Y43005828D01*
X71409012Y43074881D01*
X71440224Y43118317D01*
X71498950Y43264402D01*
X71500793Y43277351D01*
X71520562Y43416256D01*
X71520562Y43416260D01*
X71521134Y43420277D01*
X71521278Y43434000D01*
X71517531Y43464962D01*
X71503262Y43582881D01*
X71503261Y43582885D01*
X71502363Y43590306D01*
X71455961Y43713107D01*
X71449354Y43730592D01*
X71449352Y43730595D01*
X71446710Y43737588D01*
X71411887Y43788256D01*
X71361768Y43861179D01*
X71361765Y43861182D01*
X71357531Y43867343D01*
X71239976Y43972081D01*
X71100831Y44045755D01*
X70948128Y44084111D01*
X70866329Y44084539D01*
X70798158Y44084896D01*
X70798157Y44084896D01*
X70790684Y44084935D01*
X70783421Y44083191D01*
X70783418Y44083191D01*
X70714136Y44066557D01*
X70637588Y44048180D01*
X70497679Y43975968D01*
X70379034Y43872467D01*
X70288501Y43743652D01*
X70285785Y43736687D01*
X70285785Y43736686D01*
X70282218Y43727537D01*
X70231309Y43596961D01*
X70210758Y43440862D01*
X66670241Y43440862D01*
X66382667Y43728436D01*
X66372969Y43739349D01*
X66357611Y43758830D01*
X66351872Y43766110D01*
X66303554Y43799505D01*
X66300454Y43801719D01*
X66253184Y43836634D01*
X66246368Y43839027D01*
X66240431Y43843131D01*
X66184481Y43860826D01*
X66180791Y43862057D01*
X66134116Y43878448D01*
X66134112Y43878449D01*
X66125369Y43881519D01*
X66118265Y43881798D01*
X66118014Y43881847D01*
X66111270Y43883980D01*
X66104663Y43884500D01*
X66051932Y43884500D01*
X66047063Y43884596D01*
X65999273Y43886474D01*
X65999272Y43886474D01*
X65990006Y43886838D01*
X65982922Y43884960D01*
X65974562Y43884500D01*
X59280646Y43884500D01*
X59213607Y43904185D01*
X59192965Y43920819D01*
X58617964Y44495820D01*
X58584479Y44557142D01*
X58589463Y44626833D01*
X58631334Y44682767D01*
X58696799Y44707184D01*
X58705645Y44707500D01*
X59968674Y44707500D01*
X59974650Y44708689D01*
X59974653Y44708689D01*
X60007687Y44715260D01*
X60041740Y44722034D01*
X60124601Y44777399D01*
X60179966Y44860260D01*
X60194500Y44933326D01*
X60194500Y46377989D01*
X60214185Y46445028D01*
X60266989Y46490783D01*
X60318500Y46501989D01*
X60585500Y46501989D01*
X60652539Y46482304D01*
X60698294Y46429500D01*
X60709500Y46377989D01*
X60709500Y44933326D01*
X60724034Y44860260D01*
X60779399Y44777399D01*
X60862260Y44722034D01*
X60896313Y44715260D01*
X60929347Y44708689D01*
X60929350Y44708689D01*
X60935326Y44707500D01*
X62508674Y44707500D01*
X62514650Y44708689D01*
X62514653Y44708689D01*
X62547687Y44715260D01*
X62581740Y44722034D01*
X62664601Y44777399D01*
X62719966Y44860260D01*
X62734500Y44933326D01*
X62734500Y46377989D01*
X62754185Y46445028D01*
X62806989Y46490783D01*
X62858500Y46501989D01*
X63299546Y46501989D01*
X63366585Y46482304D01*
X63387227Y46465670D01*
X63574567Y46278330D01*
X63608052Y46217007D01*
X63610137Y46204258D01*
X63624035Y46078367D01*
X63678143Y45930510D01*
X63765958Y45799828D01*
X63788183Y45779605D01*
X63876878Y45698898D01*
X63876882Y45698895D01*
X63882410Y45693865D01*
X64020776Y45618738D01*
X64123031Y45591912D01*
X64165841Y45580681D01*
X64165843Y45580681D01*
X64173069Y45578785D01*
X64250127Y45577575D01*
X64323025Y45576429D01*
X64323028Y45576429D01*
X64330495Y45576312D01*
X64337776Y45577980D01*
X64337780Y45577980D01*
X64476681Y45609793D01*
X64483968Y45611462D01*
X64624625Y45682205D01*
X64630306Y45687057D01*
X64630309Y45687059D01*
X64738666Y45779605D01*
X64738667Y45779606D01*
X64744348Y45784458D01*
X64755393Y45799828D01*
X64775798Y45828225D01*
X64836224Y45912317D01*
X64894950Y46058402D01*
X64896793Y46071351D01*
X64916562Y46210256D01*
X64916562Y46210260D01*
X64917134Y46214277D01*
X64917278Y46228000D01*
X64915242Y46244827D01*
X64899262Y46376881D01*
X64899261Y46376885D01*
X64898363Y46384306D01*
X64881286Y46429500D01*
X64845354Y46524592D01*
X64845352Y46524595D01*
X64842710Y46531588D01*
X64838473Y46537753D01*
X64757768Y46655179D01*
X64757765Y46655182D01*
X64753531Y46661343D01*
X64635976Y46766081D01*
X64496831Y46839755D01*
X64344128Y46878111D01*
X64310526Y46878287D01*
X64299472Y46878345D01*
X64232537Y46898380D01*
X64212441Y46914662D01*
X64130241Y46996862D01*
X66654758Y46996862D01*
X66655578Y46989434D01*
X66655578Y46989432D01*
X66657474Y46972256D01*
X66672035Y46840367D01*
X66726143Y46692510D01*
X66813958Y46561828D01*
X66854880Y46524592D01*
X66924878Y46460898D01*
X66924882Y46460895D01*
X66930410Y46455865D01*
X66936980Y46452298D01*
X66936981Y46452297D01*
X67062208Y46384304D01*
X67068776Y46380738D01*
X67171031Y46353912D01*
X67213841Y46342681D01*
X67213843Y46342681D01*
X67221069Y46340785D01*
X67298127Y46339575D01*
X67371025Y46338429D01*
X67371028Y46338429D01*
X67378495Y46338312D01*
X67385776Y46339980D01*
X67385780Y46339980D01*
X67524681Y46371793D01*
X67531968Y46373462D01*
X67672625Y46444205D01*
X67678306Y46449057D01*
X67678309Y46449059D01*
X67786666Y46541605D01*
X67786667Y46541606D01*
X67792348Y46546458D01*
X67803393Y46561828D01*
X67878476Y46666318D01*
X67884224Y46674317D01*
X67942950Y46820402D01*
X67944793Y46833351D01*
X67964562Y46972256D01*
X67964562Y46972260D01*
X67965134Y46976277D01*
X67965278Y46990000D01*
X67946363Y47146306D01*
X67937276Y47170354D01*
X67893354Y47286592D01*
X67893352Y47286595D01*
X67890710Y47293588D01*
X67875975Y47315027D01*
X67805768Y47417179D01*
X67805765Y47417182D01*
X67801531Y47423343D01*
X67683976Y47528081D01*
X67544831Y47601755D01*
X67392128Y47640111D01*
X67310329Y47640539D01*
X67242158Y47640896D01*
X67242157Y47640896D01*
X67234684Y47640935D01*
X67227421Y47639191D01*
X67227418Y47639191D01*
X67158136Y47622558D01*
X67081588Y47604180D01*
X66941679Y47531968D01*
X66823034Y47428467D01*
X66732501Y47299652D01*
X66729785Y47292687D01*
X66729785Y47292686D01*
X66705132Y47229453D01*
X66675309Y47152961D01*
X66654758Y46996862D01*
X64130241Y46996862D01*
X63880178Y47246925D01*
X63870480Y47257838D01*
X63855122Y47277319D01*
X63849383Y47284599D01*
X63801065Y47317994D01*
X63797965Y47320208D01*
X63750695Y47355123D01*
X63743879Y47357516D01*
X63737942Y47361620D01*
X63681992Y47379315D01*
X63678302Y47380546D01*
X63631627Y47396937D01*
X63631623Y47396938D01*
X63622880Y47400008D01*
X63615776Y47400287D01*
X63615525Y47400336D01*
X63608781Y47402469D01*
X63602174Y47402989D01*
X63549443Y47402989D01*
X63544574Y47403085D01*
X63496784Y47404963D01*
X63496783Y47404963D01*
X63487517Y47405327D01*
X63480433Y47403449D01*
X63472073Y47402989D01*
X52828592Y47402989D01*
X52814018Y47403848D01*
X52789382Y47406764D01*
X52789381Y47406764D01*
X52780179Y47407853D01*
X52771063Y47406188D01*
X52771056Y47406188D01*
X52722427Y47397307D01*
X52718591Y47396668D01*
X52705493Y47394698D01*
X52669691Y47389316D01*
X52669690Y47389316D01*
X52660527Y47387938D01*
X52654017Y47384812D01*
X52646916Y47383515D01*
X52610148Y47364415D01*
X52594838Y47356462D01*
X52591364Y47354726D01*
X52538410Y47329298D01*
X52533188Y47324471D01*
X52532972Y47324326D01*
X52526701Y47321068D01*
X52521661Y47316764D01*
X52484392Y47279495D01*
X52480882Y47276120D01*
X52445740Y47243636D01*
X52445738Y47243633D01*
X52438933Y47237343D01*
X52435252Y47231005D01*
X52429661Y47224764D01*
X50341956Y45137059D01*
X50280633Y45103574D01*
X50253627Y45100742D01*
X50224159Y45100896D01*
X50224158Y45100896D01*
X50216684Y45100935D01*
X50209421Y45099191D01*
X50209418Y45099191D01*
X50140136Y45082558D01*
X50063588Y45064180D01*
X49923679Y44991968D01*
X49918048Y44987055D01*
X49918047Y44987055D01*
X49853857Y44931058D01*
X49790398Y44901822D01*
X49772342Y44900500D01*
X40166102Y44900500D01*
X40151528Y44901359D01*
X40126894Y44904275D01*
X40126891Y44904275D01*
X40117689Y44905364D01*
X40059965Y44894821D01*
X40056124Y44894182D01*
X39998038Y44885449D01*
X39991525Y44882321D01*
X39984427Y44881025D01*
X39976201Y44876752D01*
X39932331Y44853964D01*
X39928857Y44852229D01*
X39875921Y44826809D01*
X39870699Y44821982D01*
X39870486Y44821839D01*
X39864211Y44818579D01*
X39859172Y44814275D01*
X39821903Y44777006D01*
X39818393Y44773631D01*
X39783251Y44741147D01*
X39783249Y44741144D01*
X39776444Y44734854D01*
X39772763Y44728516D01*
X39767172Y44722275D01*
X32561956Y37517059D01*
X32500633Y37483574D01*
X32473627Y37480742D01*
X32444159Y37480896D01*
X32444158Y37480896D01*
X32436684Y37480935D01*
X32429421Y37479191D01*
X32429418Y37479191D01*
X32380452Y37467435D01*
X32283588Y37444180D01*
X32143679Y37371968D01*
X32025034Y37268467D01*
X31934501Y37139652D01*
X31877309Y36992961D01*
X31856758Y36836862D01*
X31857578Y36829434D01*
X31857578Y36829432D01*
X31869777Y36718935D01*
X31874035Y36680367D01*
X31876602Y36673352D01*
X31876603Y36673348D01*
X31895272Y36622332D01*
X31899825Y36552611D01*
X31865960Y36491496D01*
X31804431Y36458392D01*
X31734772Y36463808D01*
X31726854Y36467243D01*
X31722264Y36470634D01*
X31715448Y36473027D01*
X31709511Y36477131D01*
X31653561Y36494826D01*
X31649871Y36496057D01*
X31603196Y36512448D01*
X31603192Y36512449D01*
X31594449Y36515519D01*
X31587345Y36515798D01*
X31587094Y36515847D01*
X31580350Y36517980D01*
X31573743Y36518500D01*
X31521012Y36518500D01*
X31516143Y36518596D01*
X31468353Y36520474D01*
X31468352Y36520474D01*
X31459086Y36520838D01*
X31452002Y36518960D01*
X31443642Y36518500D01*
X29729502Y36518500D01*
X29662463Y36538185D01*
X29647013Y36549917D01*
X29589559Y36601107D01*
X29589557Y36601108D01*
X29583976Y36606081D01*
X29444831Y36679755D01*
X29292128Y36718111D01*
X29210329Y36718539D01*
X29142158Y36718896D01*
X29142157Y36718896D01*
X29134684Y36718935D01*
X29127421Y36717191D01*
X29127418Y36717191D01*
X29058136Y36700558D01*
X28981588Y36682180D01*
X28841679Y36609968D01*
X28723034Y36506467D01*
X28632501Y36377652D01*
X28629785Y36370687D01*
X28629785Y36370686D01*
X28603905Y36304307D01*
X28575309Y36230961D01*
X28554758Y36074862D01*
X504500Y36074862D01*
X504500Y50171500D01*
X524185Y50238539D01*
X576989Y50284294D01*
X628500Y50295500D01*
X90811500Y50295500D01*
X90878539Y50275815D01*
G37*
%TD.AperFunction*%
%TA.AperFunction,Conductor*%
G36*
X65869074Y42963815D02*
G01*
X65889716Y42947181D01*
X69161824Y39675073D01*
X69171522Y39664160D01*
X69192619Y39637399D01*
X69240937Y39604004D01*
X69244037Y39601790D01*
X69291307Y39566875D01*
X69298123Y39564482D01*
X69304060Y39560378D01*
X69359776Y39542757D01*
X69360007Y39542684D01*
X69363700Y39541452D01*
X69410375Y39525061D01*
X69410379Y39525060D01*
X69419122Y39521990D01*
X69426226Y39521711D01*
X69426477Y39521662D01*
X69433221Y39519529D01*
X69439828Y39519009D01*
X69492559Y39519009D01*
X69497428Y39518913D01*
X69554485Y39516671D01*
X69561567Y39518549D01*
X69569926Y39519009D01*
X86379906Y39519009D01*
X86394480Y39518150D01*
X86419114Y39515234D01*
X86419117Y39515234D01*
X86428319Y39514145D01*
X86474625Y39522602D01*
X86486031Y39524685D01*
X86489873Y39525325D01*
X86523026Y39530310D01*
X86547971Y39534060D01*
X86554484Y39537188D01*
X86561582Y39538484D01*
X86598350Y39557583D01*
X86613672Y39565542D01*
X86617155Y39567282D01*
X86670088Y39592700D01*
X86675308Y39597525D01*
X86675529Y39597674D01*
X86681797Y39600930D01*
X86686837Y39605234D01*
X86724106Y39642503D01*
X86727616Y39645878D01*
X86762758Y39678362D01*
X86762760Y39678365D01*
X86769565Y39684655D01*
X86773246Y39690993D01*
X86778837Y39697234D01*
X88304071Y41222468D01*
X88365394Y41255953D01*
X88393699Y41258772D01*
X88415524Y41258429D01*
X88415527Y41258429D01*
X88422995Y41258312D01*
X88521712Y41280921D01*
X88551817Y41287816D01*
X88621559Y41283595D01*
X88677948Y41242339D01*
X88703080Y41177145D01*
X88703500Y41166946D01*
X88703500Y38083965D01*
X88683815Y38016926D01*
X88667181Y37996284D01*
X85984227Y35313330D01*
X85922904Y35279845D01*
X85896546Y35277011D01*
X85014496Y35277011D01*
X84947457Y35296696D01*
X84901702Y35349500D01*
X84891758Y35418658D01*
X84913797Y35473369D01*
X84922401Y35485343D01*
X84931724Y35498317D01*
X84990450Y35644402D01*
X84992293Y35657351D01*
X85012062Y35796256D01*
X85012062Y35796260D01*
X85012634Y35800277D01*
X85012778Y35814000D01*
X85002970Y35895048D01*
X84994762Y35962881D01*
X84994761Y35962885D01*
X84993863Y35970306D01*
X84981328Y36003478D01*
X84940854Y36110592D01*
X84940852Y36110595D01*
X84938210Y36117588D01*
X84928649Y36131499D01*
X84853268Y36241179D01*
X84853265Y36241182D01*
X84849031Y36247343D01*
X84843449Y36252317D01*
X84843444Y36252322D01*
X84811090Y36281148D01*
X84774130Y36340442D01*
X84775094Y36410305D01*
X84813676Y36468556D01*
X84837862Y36484509D01*
X84842650Y36486917D01*
X84944625Y36538205D01*
X84950306Y36543057D01*
X84950309Y36543059D01*
X85058666Y36635605D01*
X85058667Y36635606D01*
X85064348Y36640458D01*
X85075393Y36655828D01*
X85120739Y36718935D01*
X85156224Y36768317D01*
X85214950Y36914402D01*
X85216793Y36927351D01*
X85236562Y37066256D01*
X85236562Y37066260D01*
X85237134Y37070277D01*
X85237278Y37084000D01*
X85236448Y37090862D01*
X85219262Y37232881D01*
X85219261Y37232885D01*
X85218363Y37240306D01*
X85182053Y37336398D01*
X85165354Y37380592D01*
X85165352Y37380595D01*
X85162710Y37387588D01*
X85158473Y37393753D01*
X85077768Y37511179D01*
X85077765Y37511182D01*
X85073531Y37517343D01*
X84975070Y37605069D01*
X84961559Y37617107D01*
X84961558Y37617108D01*
X84955976Y37622081D01*
X84816831Y37695755D01*
X84809576Y37697577D01*
X84802603Y37700254D01*
X84803727Y37703183D01*
X84755776Y37731388D01*
X84724265Y37793749D01*
X84731471Y37863246D01*
X84765679Y37910517D01*
X84845902Y37979034D01*
X84845903Y37979035D01*
X84851584Y37983887D01*
X84943460Y38111746D01*
X85002186Y38257831D01*
X85003239Y38265228D01*
X85023798Y38409685D01*
X85023798Y38409689D01*
X85024370Y38413706D01*
X85024514Y38427429D01*
X85013681Y38516950D01*
X85006498Y38576310D01*
X85006497Y38576314D01*
X85005599Y38583735D01*
X84985451Y38637055D01*
X84952590Y38724021D01*
X84952588Y38724024D01*
X84949946Y38731017D01*
X84941573Y38743200D01*
X84865004Y38854608D01*
X84865001Y38854611D01*
X84860767Y38860772D01*
X84743212Y38965510D01*
X84604067Y39039184D01*
X84451364Y39077540D01*
X84369565Y39077968D01*
X84301394Y39078325D01*
X84301393Y39078325D01*
X84293920Y39078364D01*
X84286657Y39076620D01*
X84286654Y39076620D01*
X84217372Y39059986D01*
X84140824Y39041609D01*
X84000915Y38969397D01*
X83995284Y38964484D01*
X83995283Y38964484D01*
X83990757Y38960536D01*
X83882270Y38865896D01*
X83791737Y38737081D01*
X83789021Y38730116D01*
X83789021Y38730115D01*
X83771615Y38685470D01*
X83734545Y38590390D01*
X83717728Y38462649D01*
X83715698Y38447232D01*
X83687432Y38383335D01*
X83680440Y38375736D01*
X82602395Y37297691D01*
X82541072Y37264206D01*
X82471380Y37269190D01*
X82415447Y37311062D01*
X82391612Y37370475D01*
X82382679Y37444298D01*
X82382678Y37444302D01*
X82381780Y37451723D01*
X82370815Y37480742D01*
X82328771Y37592009D01*
X82328769Y37592012D01*
X82326127Y37599005D01*
X82321448Y37605813D01*
X82241185Y37722596D01*
X82241182Y37722599D01*
X82236948Y37728760D01*
X82162994Y37794651D01*
X82124976Y37828524D01*
X82124975Y37828525D01*
X82119393Y37833498D01*
X81980248Y37907172D01*
X81827545Y37945528D01*
X81745746Y37945956D01*
X81677575Y37946313D01*
X81677574Y37946313D01*
X81670101Y37946352D01*
X81662838Y37944608D01*
X81662835Y37944608D01*
X81610466Y37932035D01*
X81517005Y37909597D01*
X81377096Y37837385D01*
X81371465Y37832472D01*
X81371464Y37832472D01*
X81352922Y37816297D01*
X81258451Y37733884D01*
X81167918Y37605069D01*
X81166860Y37605813D01*
X81123270Y37561551D01*
X81063013Y37545926D01*
X78368719Y37545926D01*
X78301680Y37565611D01*
X78255925Y37618415D01*
X78245981Y37687573D01*
X78268021Y37742285D01*
X78279443Y37758181D01*
X78298224Y37784317D01*
X78356950Y37930402D01*
X78359103Y37945528D01*
X78378562Y38082256D01*
X78378562Y38082260D01*
X78379134Y38086277D01*
X78379278Y38100000D01*
X78371027Y38168186D01*
X78361262Y38248881D01*
X78361261Y38248885D01*
X78360363Y38256306D01*
X78344665Y38297850D01*
X78307354Y38396592D01*
X78307352Y38396595D01*
X78304710Y38403588D01*
X78300473Y38409753D01*
X78219768Y38527179D01*
X78219765Y38527182D01*
X78215531Y38533343D01*
X78097976Y38638081D01*
X77958831Y38711755D01*
X77806128Y38750111D01*
X77724329Y38750539D01*
X77656158Y38750896D01*
X77656157Y38750896D01*
X77648684Y38750935D01*
X77641421Y38749191D01*
X77641418Y38749191D01*
X77572136Y38732557D01*
X77495588Y38714180D01*
X77355679Y38641968D01*
X77350048Y38637055D01*
X77350047Y38637055D01*
X77285857Y38581058D01*
X77222398Y38551822D01*
X77204342Y38550500D01*
X69071965Y38550500D01*
X69004926Y38570185D01*
X68984284Y38586819D01*
X66728057Y40843046D01*
X66694572Y40904369D01*
X66692636Y40915830D01*
X66692386Y40917901D01*
X66676363Y41050306D01*
X66620710Y41197588D01*
X66589953Y41242339D01*
X66535768Y41321179D01*
X66535765Y41321182D01*
X66531531Y41327343D01*
X66471560Y41380775D01*
X66419559Y41427107D01*
X66419558Y41427108D01*
X66413976Y41432081D01*
X66274831Y41505755D01*
X66122128Y41544111D01*
X66040329Y41544539D01*
X65972158Y41544896D01*
X65972157Y41544896D01*
X65964684Y41544935D01*
X65957421Y41543191D01*
X65957418Y41543191D01*
X65888136Y41526557D01*
X65811588Y41508180D01*
X65671679Y41435968D01*
X65553034Y41332467D01*
X65462501Y41203652D01*
X65405309Y41056961D01*
X65384758Y40900862D01*
X65385578Y40893434D01*
X65385578Y40893432D01*
X65387447Y40876506D01*
X65402035Y40744367D01*
X65456143Y40596510D01*
X65543958Y40465828D01*
X65572679Y40439694D01*
X65654878Y40364898D01*
X65654882Y40364895D01*
X65660410Y40359865D01*
X65666980Y40356298D01*
X65666981Y40356297D01*
X65761913Y40304753D01*
X65798776Y40284738D01*
X65897570Y40258820D01*
X65943841Y40246681D01*
X65943843Y40246681D01*
X65951069Y40244785D01*
X65997381Y40244057D01*
X66003507Y40243961D01*
X66070229Y40223225D01*
X66089240Y40207657D01*
X68491333Y37805564D01*
X68501031Y37794651D01*
X68522128Y37767890D01*
X68529755Y37762618D01*
X68532204Y37760319D01*
X68567599Y37700078D01*
X68564807Y37630265D01*
X68524714Y37573043D01*
X68460049Y37546581D01*
X68447321Y37545926D01*
X68012559Y37545926D01*
X67945520Y37565611D01*
X67899765Y37618415D01*
X67896570Y37626081D01*
X67890710Y37641588D01*
X67886473Y37647753D01*
X67805768Y37765179D01*
X67805765Y37765182D01*
X67801531Y37771343D01*
X67727407Y37837385D01*
X67689559Y37871107D01*
X67689558Y37871108D01*
X67683976Y37876081D01*
X67544831Y37949755D01*
X67465769Y37969614D01*
X67399378Y37986290D01*
X67392128Y37988111D01*
X67310329Y37988539D01*
X67242158Y37988896D01*
X67242157Y37988896D01*
X67234684Y37988935D01*
X67227421Y37987191D01*
X67227418Y37987191D01*
X67158136Y37970558D01*
X67081588Y37952180D01*
X66941679Y37879968D01*
X66936048Y37875055D01*
X66936047Y37875055D01*
X66882708Y37828524D01*
X66823034Y37776467D01*
X66732501Y37647652D01*
X66729784Y37640683D01*
X66723624Y37624884D01*
X66680933Y37569574D01*
X66608094Y37545926D01*
X64488539Y37545926D01*
X64421500Y37565611D01*
X64400858Y37582245D01*
X59211284Y42771819D01*
X59177799Y42833142D01*
X59182783Y42902834D01*
X59224655Y42958767D01*
X59290119Y42983184D01*
X59298965Y42983500D01*
X65802035Y42983500D01*
X65869074Y42963815D01*
G37*
%TD.AperFunction*%
%TA.AperFunction,Conductor*%
G36*
X58112539Y46482304D02*
G01*
X58158294Y46429500D01*
X58169500Y46377989D01*
X58169500Y45243645D01*
X58149815Y45176606D01*
X58097011Y45130851D01*
X58027853Y45120907D01*
X57964297Y45149932D01*
X57957819Y45155964D01*
X57819213Y45294570D01*
X57809515Y45305483D01*
X57794158Y45324964D01*
X57794155Y45324966D01*
X57788419Y45332243D01*
X57740101Y45365638D01*
X57737001Y45367852D01*
X57689731Y45402767D01*
X57682915Y45405160D01*
X57676978Y45409264D01*
X57621028Y45426959D01*
X57617338Y45428190D01*
X57570663Y45444581D01*
X57570659Y45444582D01*
X57561916Y45447652D01*
X57554812Y45447931D01*
X57554561Y45447980D01*
X57547817Y45450113D01*
X57541210Y45450633D01*
X57488479Y45450633D01*
X57483610Y45450729D01*
X57435820Y45452607D01*
X57435819Y45452607D01*
X57426553Y45452971D01*
X57419469Y45451093D01*
X57411109Y45450633D01*
X53897958Y45450633D01*
X53883384Y45451492D01*
X53858750Y45454408D01*
X53858747Y45454408D01*
X53849545Y45455497D01*
X53822327Y45450526D01*
X53791833Y45444957D01*
X53787991Y45444317D01*
X53754838Y45439332D01*
X53729893Y45435582D01*
X53723380Y45432454D01*
X53716282Y45431158D01*
X53708056Y45426885D01*
X53664192Y45404100D01*
X53660718Y45402364D01*
X53607776Y45376942D01*
X53602556Y45372117D01*
X53602335Y45371968D01*
X53596067Y45368712D01*
X53591027Y45364408D01*
X53553758Y45327139D01*
X53550248Y45323764D01*
X53515106Y45291280D01*
X53515104Y45291277D01*
X53508299Y45284987D01*
X53504618Y45278649D01*
X53499027Y45272408D01*
X52099247Y43872628D01*
X52037924Y43839143D01*
X52010918Y43836311D01*
X51981450Y43836465D01*
X51981449Y43836465D01*
X51973975Y43836504D01*
X51966712Y43834760D01*
X51966709Y43834760D01*
X51897427Y43818126D01*
X51820879Y43799749D01*
X51680970Y43727537D01*
X51562325Y43624036D01*
X51471792Y43495221D01*
X51469076Y43488256D01*
X51469076Y43488255D01*
X51466905Y43482686D01*
X51414600Y43348530D01*
X51413624Y43341115D01*
X51395024Y43199841D01*
X51395024Y43199836D01*
X51394440Y43195398D01*
X51394439Y43195396D01*
X51394058Y43192496D01*
X51394049Y43192431D01*
X51393555Y43192496D01*
X51374609Y43130395D01*
X51321328Y43085198D01*
X51252068Y43075981D01*
X51188821Y43105672D01*
X51155009Y43154697D01*
X51129355Y43222589D01*
X51129354Y43222591D01*
X51126710Y43229588D01*
X51083956Y43291795D01*
X51041768Y43353179D01*
X51041765Y43353182D01*
X51037531Y43359343D01*
X50978480Y43411956D01*
X50925559Y43459107D01*
X50925558Y43459108D01*
X50919976Y43464081D01*
X50780831Y43537755D01*
X50628128Y43576111D01*
X50583832Y43576343D01*
X50489662Y43576836D01*
X50438555Y43592133D01*
X50438424Y43591859D01*
X50374945Y43553950D01*
X50317588Y43540180D01*
X50177679Y43467968D01*
X50059034Y43364467D01*
X49968501Y43235652D01*
X49911309Y43088961D01*
X49890758Y42932862D01*
X49891578Y42925434D01*
X49891578Y42925432D01*
X49901767Y42833142D01*
X49908035Y42776367D01*
X49910601Y42769355D01*
X49910602Y42769351D01*
X49932180Y42710388D01*
X49962143Y42628510D01*
X49966314Y42622303D01*
X50024070Y42536354D01*
X50049958Y42497828D01*
X50096590Y42455396D01*
X50160878Y42396898D01*
X50160882Y42396895D01*
X50166410Y42391865D01*
X50172980Y42388298D01*
X50172981Y42388297D01*
X50298208Y42320304D01*
X50304776Y42316738D01*
X50407031Y42289912D01*
X50449841Y42278681D01*
X50449843Y42278681D01*
X50457069Y42276785D01*
X50534127Y42275575D01*
X50607025Y42274429D01*
X50607028Y42274429D01*
X50614495Y42274312D01*
X50621776Y42275980D01*
X50621780Y42275980D01*
X50760681Y42307793D01*
X50767968Y42309462D01*
X50908625Y42380205D01*
X50914306Y42385057D01*
X50914309Y42385059D01*
X51022666Y42477605D01*
X51022667Y42477606D01*
X51028348Y42482458D01*
X51039393Y42497828D01*
X51069180Y42539282D01*
X51120224Y42610317D01*
X51178950Y42756402D01*
X51181792Y42776367D01*
X51200562Y42908258D01*
X51201134Y42912277D01*
X51201177Y42916340D01*
X51201464Y42920119D01*
X51226175Y42985473D01*
X51282296Y43027092D01*
X51352010Y43031763D01*
X51413182Y42998003D01*
X51441555Y42953331D01*
X51465434Y42888079D01*
X51553249Y42757397D01*
X51604911Y42710388D01*
X51664169Y42656467D01*
X51664173Y42656464D01*
X51669701Y42651434D01*
X51676271Y42647867D01*
X51676272Y42647866D01*
X51750827Y42607386D01*
X51808067Y42576307D01*
X51896028Y42553231D01*
X51953132Y42538250D01*
X51953134Y42538250D01*
X51960360Y42536354D01*
X52037418Y42535144D01*
X52110316Y42533998D01*
X52110319Y42533998D01*
X52117786Y42533881D01*
X52125067Y42535549D01*
X52125071Y42535549D01*
X52263972Y42567362D01*
X52271259Y42569031D01*
X52322593Y42594849D01*
X52391327Y42607386D01*
X52455929Y42580771D01*
X52481228Y42553231D01*
X52514284Y42504038D01*
X52514287Y42504035D01*
X52518458Y42497828D01*
X52565090Y42455396D01*
X52629378Y42396898D01*
X52629382Y42396895D01*
X52634910Y42391865D01*
X52641480Y42388298D01*
X52641481Y42388297D01*
X52766708Y42320304D01*
X52773276Y42316738D01*
X52875531Y42289912D01*
X52918341Y42278681D01*
X52918343Y42278681D01*
X52925569Y42276785D01*
X53002627Y42275575D01*
X53075525Y42274429D01*
X53075528Y42274429D01*
X53082995Y42274312D01*
X53090276Y42275980D01*
X53090280Y42275980D01*
X53229181Y42307793D01*
X53236468Y42309462D01*
X53377125Y42380205D01*
X53382806Y42385057D01*
X53382809Y42385059D01*
X53491166Y42477605D01*
X53491167Y42477606D01*
X53496848Y42482458D01*
X53507893Y42497828D01*
X53537680Y42539282D01*
X53588724Y42610317D01*
X53647450Y42756402D01*
X53649644Y42771819D01*
X53669062Y42908256D01*
X53669062Y42908260D01*
X53669634Y42912277D01*
X53669778Y42926000D01*
X53660118Y43005828D01*
X53651762Y43074881D01*
X53651761Y43074885D01*
X53650863Y43082306D01*
X53617598Y43170340D01*
X53597854Y43222592D01*
X53597852Y43222595D01*
X53595210Y43229588D01*
X53552456Y43291795D01*
X53510268Y43353179D01*
X53510265Y43353182D01*
X53506031Y43359343D01*
X53446980Y43411956D01*
X53394059Y43459107D01*
X53394058Y43459108D01*
X53388476Y43464081D01*
X53313166Y43503956D01*
X53259906Y43532156D01*
X53209870Y43580923D01*
X53194142Y43648999D01*
X53217716Y43714772D01*
X53230249Y43729424D01*
X54014139Y44513314D01*
X54075462Y44546799D01*
X54101820Y44549633D01*
X55694946Y44549633D01*
X55761985Y44529948D01*
X55807740Y44477144D01*
X55817684Y44407986D01*
X55810475Y44380589D01*
X55803845Y44363583D01*
X55783294Y44207484D01*
X55784114Y44200056D01*
X55784114Y44200054D01*
X55792042Y44128246D01*
X55800571Y44050989D01*
X55803137Y44043977D01*
X55803138Y44043973D01*
X55816867Y44006458D01*
X55854679Y43903132D01*
X55858850Y43896925D01*
X55929522Y43791755D01*
X55942494Y43772450D01*
X55957499Y43758796D01*
X55993836Y43699120D01*
X55996668Y43685518D01*
X56003087Y43642822D01*
X56006215Y43636309D01*
X56007511Y43629211D01*
X56011784Y43620985D01*
X56034569Y43577121D01*
X56036305Y43573647D01*
X56061727Y43520705D01*
X56066552Y43515485D01*
X56066701Y43515264D01*
X56069957Y43508996D01*
X56074261Y43503956D01*
X56111530Y43466687D01*
X56114905Y43463177D01*
X56147389Y43428035D01*
X56147392Y43428033D01*
X56153682Y43421228D01*
X56160020Y43417547D01*
X56166261Y43411956D01*
X59038036Y40540181D01*
X59071521Y40478858D01*
X59066537Y40409166D01*
X59024665Y40353233D01*
X58959201Y40328816D01*
X58950355Y40328500D01*
X52866102Y40328500D01*
X52851528Y40329359D01*
X52826894Y40332275D01*
X52826891Y40332275D01*
X52817689Y40333364D01*
X52759963Y40322821D01*
X52756119Y40322181D01*
X52707202Y40314827D01*
X52707200Y40314826D01*
X52698038Y40313449D01*
X52691525Y40310322D01*
X52684426Y40309025D01*
X52676202Y40304753D01*
X52632336Y40281967D01*
X52628853Y40280227D01*
X52575921Y40254809D01*
X52570698Y40249981D01*
X52570488Y40249840D01*
X52564211Y40246579D01*
X52559172Y40242275D01*
X52521903Y40205006D01*
X52518393Y40201631D01*
X52483251Y40169147D01*
X52483249Y40169144D01*
X52476444Y40162854D01*
X52472763Y40156516D01*
X52467172Y40150275D01*
X51357956Y39041059D01*
X51296633Y39007574D01*
X51269627Y39004742D01*
X51240159Y39004896D01*
X51240158Y39004896D01*
X51232684Y39004935D01*
X51225421Y39003191D01*
X51225418Y39003191D01*
X51156136Y38986557D01*
X51079588Y38968180D01*
X50939679Y38895968D01*
X50821034Y38792467D01*
X50730501Y38663652D01*
X50673309Y38516961D01*
X50652758Y38360862D01*
X50653578Y38353434D01*
X50653578Y38353432D01*
X50659977Y38295468D01*
X50670035Y38204367D01*
X50724143Y38056510D01*
X50811958Y37925828D01*
X50854930Y37886727D01*
X50922878Y37824898D01*
X50922882Y37824895D01*
X50928410Y37819865D01*
X50934980Y37816298D01*
X50934981Y37816297D01*
X51042017Y37758181D01*
X51066776Y37744738D01*
X51148513Y37723295D01*
X51211841Y37706681D01*
X51211843Y37706681D01*
X51219069Y37704785D01*
X51247470Y37704339D01*
X51247842Y37704333D01*
X51314564Y37683598D01*
X51359484Y37630081D01*
X51368340Y37560775D01*
X51333575Y37492667D01*
X49808216Y35967308D01*
X49746893Y35933823D01*
X49720535Y35930989D01*
X42876677Y35930989D01*
X42809638Y35950674D01*
X42763883Y36003478D01*
X42753939Y36072636D01*
X42768860Y36116238D01*
X42819147Y36204759D01*
X42828425Y36221091D01*
X42882542Y36383771D01*
X42888446Y36401520D01*
X42888446Y36401521D01*
X42890358Y36407268D01*
X42892694Y36425755D01*
X42914514Y36598485D01*
X42914514Y36598486D01*
X42914949Y36601929D01*
X42915341Y36630000D01*
X42896194Y36825272D01*
X42839484Y37013106D01*
X42835675Y37020271D01*
X42772198Y37139652D01*
X42747370Y37186347D01*
X42623361Y37338398D01*
X42606811Y37352089D01*
X42476856Y37459597D01*
X42476854Y37459598D01*
X42472180Y37463465D01*
X42299585Y37556787D01*
X42112152Y37614807D01*
X41917019Y37635317D01*
X41910986Y37634768D01*
X41910982Y37634768D01*
X41747278Y37619869D01*
X41721618Y37617534D01*
X41638217Y37592988D01*
X41539208Y37563848D01*
X41539203Y37563846D01*
X41533393Y37562136D01*
X41528023Y37559329D01*
X41528019Y37559327D01*
X41468841Y37528389D01*
X41359512Y37471233D01*
X41354789Y37467436D01*
X41354788Y37467435D01*
X41305776Y37428028D01*
X41206600Y37348289D01*
X41080480Y37197984D01*
X40985956Y37026046D01*
X40984124Y37020271D01*
X40952887Y36921799D01*
X40926628Y36839022D01*
X40921525Y36793531D01*
X40906080Y36655828D01*
X40904757Y36644037D01*
X40921175Y36448517D01*
X40975258Y36259909D01*
X40978030Y36254514D01*
X40978031Y36254513D01*
X41051443Y36111669D01*
X41064578Y36043045D01*
X41038528Y35978214D01*
X40981563Y35937758D01*
X40941155Y35930989D01*
X32584844Y35930989D01*
X32569496Y35935496D01*
X32569467Y35935478D01*
X32536405Y35930989D01*
X32334556Y35930989D01*
X32267517Y35950674D01*
X32246875Y35967308D01*
X32218649Y35995534D01*
X32185164Y36056857D01*
X32190148Y36126549D01*
X32232020Y36182482D01*
X32297484Y36206899D01*
X32337795Y36203156D01*
X32377850Y36192648D01*
X32415841Y36182681D01*
X32415843Y36182681D01*
X32423069Y36180785D01*
X32536012Y36179011D01*
X32538353Y36178974D01*
X32552696Y36174517D01*
X32571880Y36178309D01*
X32573025Y36178429D01*
X32580495Y36178312D01*
X32713302Y36208729D01*
X32726681Y36211793D01*
X32733968Y36213462D01*
X32874625Y36284205D01*
X32880306Y36289057D01*
X32880309Y36289059D01*
X32988666Y36381605D01*
X32988667Y36381606D01*
X32994348Y36386458D01*
X33005393Y36401828D01*
X33046038Y36458392D01*
X33086224Y36514317D01*
X33144950Y36660402D01*
X33146793Y36673348D01*
X33166574Y36812343D01*
X33195508Y36875940D01*
X33201656Y36882553D01*
X34191465Y37872362D01*
X45064758Y37872362D01*
X45065578Y37864934D01*
X45065578Y37864932D01*
X45077364Y37758181D01*
X45082035Y37715867D01*
X45084601Y37708855D01*
X45084602Y37708851D01*
X45106322Y37649500D01*
X45136143Y37568010D01*
X45223958Y37437328D01*
X45246183Y37417105D01*
X45334878Y37336398D01*
X45334882Y37336395D01*
X45340410Y37331365D01*
X45346980Y37327798D01*
X45346981Y37327797D01*
X45456253Y37268467D01*
X45478776Y37256238D01*
X45581031Y37229412D01*
X45623841Y37218181D01*
X45623843Y37218181D01*
X45631069Y37216285D01*
X45708127Y37215075D01*
X45781025Y37213929D01*
X45781028Y37213929D01*
X45788495Y37213812D01*
X45795776Y37215480D01*
X45795780Y37215480D01*
X45934681Y37247293D01*
X45941968Y37248962D01*
X46082625Y37319705D01*
X46088306Y37324557D01*
X46088309Y37324559D01*
X46196666Y37417105D01*
X46196667Y37417106D01*
X46202348Y37421958D01*
X46213393Y37437328D01*
X46244394Y37480471D01*
X46294224Y37549817D01*
X46352950Y37695902D01*
X46354280Y37705243D01*
X46364416Y37776467D01*
X46375134Y37851777D01*
X46375278Y37865500D01*
X46374790Y37869533D01*
X46357262Y38014381D01*
X46357261Y38014385D01*
X46356363Y38021806D01*
X46300710Y38169088D01*
X46301927Y38169548D01*
X46289827Y38230456D01*
X46315425Y38295468D01*
X46337128Y38315616D01*
X46336625Y38316205D01*
X46450666Y38413605D01*
X46450667Y38413606D01*
X46456348Y38418458D01*
X46462795Y38427429D01*
X46488102Y38462649D01*
X46548224Y38546317D01*
X46606950Y38692402D01*
X46608793Y38705351D01*
X46628562Y38844256D01*
X46628562Y38844260D01*
X46629134Y38848277D01*
X46629201Y38854608D01*
X46629235Y38857936D01*
X46629278Y38862000D01*
X46625216Y38895568D01*
X46611262Y39010881D01*
X46611261Y39010885D01*
X46610363Y39018306D01*
X46583500Y39089397D01*
X46578217Y39159065D01*
X46611439Y39220531D01*
X46671811Y39254097D01*
X46674769Y39254775D01*
X46703968Y39261462D01*
X46844625Y39332205D01*
X46850306Y39337057D01*
X46850309Y39337059D01*
X46958666Y39429605D01*
X46958667Y39429606D01*
X46964348Y39434458D01*
X47056224Y39562317D01*
X47114950Y39708402D01*
X47116793Y39721351D01*
X47136562Y39860256D01*
X47136562Y39860260D01*
X47137134Y39864277D01*
X47137278Y39878000D01*
X47118363Y40034306D01*
X47074542Y40150275D01*
X47065354Y40174592D01*
X47065352Y40174595D01*
X47062710Y40181588D01*
X47044793Y40207657D01*
X46977768Y40305179D01*
X46977765Y40305182D01*
X46973531Y40311343D01*
X46913422Y40364898D01*
X46861559Y40411107D01*
X46861558Y40411108D01*
X46855976Y40416081D01*
X46716831Y40489755D01*
X46564128Y40528111D01*
X46482329Y40528539D01*
X46414158Y40528896D01*
X46414157Y40528896D01*
X46406684Y40528935D01*
X46399421Y40527191D01*
X46399418Y40527191D01*
X46330136Y40510557D01*
X46253588Y40492180D01*
X46113679Y40419968D01*
X45995034Y40316467D01*
X45904501Y40187652D01*
X45847309Y40040961D01*
X45826758Y39884862D01*
X45827578Y39877434D01*
X45827578Y39877432D01*
X45829474Y39860256D01*
X45844035Y39728367D01*
X45846601Y39721355D01*
X45846602Y39721351D01*
X45873090Y39648971D01*
X45877643Y39579250D01*
X45843779Y39518135D01*
X45785588Y39485783D01*
X45777024Y39483727D01*
X45752855Y39477925D01*
X45752852Y39477924D01*
X45745588Y39476180D01*
X45605679Y39403968D01*
X45487034Y39300467D01*
X45396501Y39171652D01*
X45393785Y39164687D01*
X45393785Y39164686D01*
X45386691Y39146491D01*
X45339309Y39024961D01*
X45318758Y38868862D01*
X45319578Y38861434D01*
X45319578Y38861432D01*
X45327192Y38792467D01*
X45336035Y38712367D01*
X45390143Y38564510D01*
X45391596Y38562347D01*
X45404111Y38495719D01*
X45377837Y38430978D01*
X45353556Y38408437D01*
X45351679Y38407468D01*
X45233034Y38303967D01*
X45142501Y38175152D01*
X45085309Y38028461D01*
X45064758Y37872362D01*
X34191465Y37872362D01*
X40282284Y43963181D01*
X40343607Y43996666D01*
X40369965Y43999500D01*
X49772525Y43999500D01*
X49839564Y43979815D01*
X49855978Y43967214D01*
X49906878Y43920898D01*
X49906882Y43920895D01*
X49912410Y43915865D01*
X49918980Y43912298D01*
X49918981Y43912297D01*
X50041221Y43845926D01*
X50050776Y43840738D01*
X50153031Y43813912D01*
X50195841Y43802681D01*
X50195843Y43802681D01*
X50203069Y43800785D01*
X50310034Y43799105D01*
X50347946Y43798509D01*
X50397830Y43783007D01*
X50462626Y43821703D01*
X50513968Y43833462D01*
X50654625Y43904205D01*
X50660306Y43909057D01*
X50660309Y43909059D01*
X50768666Y44001605D01*
X50768667Y44001606D01*
X50774348Y44006458D01*
X50800072Y44042256D01*
X50830739Y44084935D01*
X50866224Y44134317D01*
X50924950Y44280402D01*
X50946574Y44432343D01*
X50975508Y44495940D01*
X50981656Y44502553D01*
X52944773Y46465670D01*
X53006096Y46499155D01*
X53032454Y46501989D01*
X58045500Y46501989D01*
X58112539Y46482304D01*
G37*
%TD.AperFunction*%
%TD*%
M02*
