%TF.GenerationSoftware,KiCad,Pcbnew,6.0.4-6f826c9f35~116~ubuntu20.04.1*%
%TF.CreationDate,2022-05-23T14:27:53+00:00*%
%TF.ProjectId,USTSIPIN02A,55535453-4950-4494-9e30-32412e6b6963,02A*%
%TF.SameCoordinates,Original*%
%TF.FileFunction,Paste,Top*%
%TF.FilePolarity,Positive*%
%FSLAX46Y46*%
G04 Gerber Fmt 4.6, Leading zero omitted, Abs format (unit mm)*
G04 Created by KiCad (PCBNEW 6.0.4-6f826c9f35~116~ubuntu20.04.1) date 2022-05-23 14:27:53*
%MOMM*%
%LPD*%
G01*
G04 APERTURE LIST*
G04 Aperture macros list*
%AMRoundRect*
0 Rectangle with rounded corners*
0 $1 Rounding radius*
0 $2 $3 $4 $5 $6 $7 $8 $9 X,Y pos of 4 corners*
0 Add a 4 corners polygon primitive as box body*
4,1,4,$2,$3,$4,$5,$6,$7,$8,$9,$2,$3,0*
0 Add four circle primitives for the rounded corners*
1,1,$1+$1,$2,$3*
1,1,$1+$1,$4,$5*
1,1,$1+$1,$6,$7*
1,1,$1+$1,$8,$9*
0 Add four rect primitives between the rounded corners*
20,1,$1+$1,$2,$3,$4,$5,0*
20,1,$1+$1,$4,$5,$6,$7,0*
20,1,$1+$1,$6,$7,$8,$9,0*
20,1,$1+$1,$8,$9,$2,$3,0*%
G04 Aperture macros list end*
%ADD10R,1.524000X1.524000*%
%ADD11RoundRect,0.200000X-0.200000X-0.275000X0.200000X-0.275000X0.200000X0.275000X-0.200000X0.275000X0*%
%ADD12RoundRect,0.250000X-0.625000X0.375000X-0.625000X-0.375000X0.625000X-0.375000X0.625000X0.375000X0*%
%ADD13RoundRect,0.225000X0.225000X0.250000X-0.225000X0.250000X-0.225000X-0.250000X0.225000X-0.250000X0*%
%ADD14R,1.780000X5.080000*%
%ADD15R,3.960000X3.960000*%
%ADD16R,1.600000X1.200000*%
%ADD17R,5.000000X2.500000*%
G04 APERTURE END LIST*
D10*
%TO.C,J22*%
X140296341Y-106682927D03*
X137756341Y-106682927D03*
X140296341Y-104142927D03*
X137756341Y-104142927D03*
X140296341Y-101602927D03*
X137756341Y-101602927D03*
%TD*%
D11*
%TO.C,R17*%
X148747341Y-92542927D03*
X150397341Y-92542927D03*
%TD*%
%TO.C,R25*%
X148747341Y-107378927D03*
X150397341Y-107378927D03*
%TD*%
D12*
%TO.C,D9*%
X153026341Y-117916927D03*
X153026341Y-120716927D03*
%TD*%
D11*
%TO.C,R24*%
X148747341Y-103060927D03*
X150397341Y-103060927D03*
%TD*%
D12*
%TO.C,D7*%
X148026341Y-117916927D03*
X148026341Y-120716927D03*
%TD*%
D13*
%TO.C,C25*%
X150347341Y-98996927D03*
X148797341Y-98996927D03*
%TD*%
D12*
%TO.C,D4*%
X163026341Y-117916927D03*
X163026341Y-120716927D03*
%TD*%
D13*
%TO.C,C22*%
X150347341Y-101028927D03*
X148797341Y-101028927D03*
%TD*%
D12*
%TO.C,D3*%
X168026341Y-117916927D03*
X168026341Y-120716927D03*
%TD*%
%TO.C,D10*%
X168026341Y-77276927D03*
X168026341Y-80076927D03*
%TD*%
D11*
%TO.C,R18*%
X148747341Y-94932927D03*
X150397341Y-94932927D03*
%TD*%
D14*
%TO.C,BT1*%
X138014341Y-78930927D03*
X147414341Y-78930927D03*
D15*
X142714341Y-78930927D03*
%TD*%
D16*
%TO.C,J2*%
X153622341Y-92256927D03*
X153622341Y-94756927D03*
X153622341Y-97256927D03*
X153622341Y-99756927D03*
X153622341Y-102256927D03*
X153622341Y-104756927D03*
X153622341Y-107186927D03*
X153622341Y-108986927D03*
X153622341Y-89756927D03*
D17*
X157122341Y-82421927D03*
X157122341Y-112871927D03*
X181322341Y-82421927D03*
X187322341Y-112871927D03*
%TD*%
D12*
%TO.C,D8*%
X158026341Y-117916927D03*
X158026341Y-120716927D03*
%TD*%
M02*
