%TF.GenerationSoftware,KiCad,Pcbnew,6.0.4-6f826c9f35~116~ubuntu20.04.1*%
%TF.CreationDate,2022-05-02T13:01:33+00:00*%
%TF.ProjectId,USTSIPIN01A,55535453-4950-4494-9e30-31412e6b6963,REV*%
%TF.SameCoordinates,Original*%
%TF.FileFunction,Paste,Bot*%
%TF.FilePolarity,Positive*%
%FSLAX46Y46*%
G04 Gerber Fmt 4.6, Leading zero omitted, Abs format (unit mm)*
G04 Created by KiCad (PCBNEW 6.0.4-6f826c9f35~116~ubuntu20.04.1) date 2022-05-02 13:01:33*
%MOMM*%
%LPD*%
G01*
G04 APERTURE LIST*
G04 Aperture macros list*
%AMRoundRect*
0 Rectangle with rounded corners*
0 $1 Rounding radius*
0 $2 $3 $4 $5 $6 $7 $8 $9 X,Y pos of 4 corners*
0 Add a 4 corners polygon primitive as box body*
4,1,4,$2,$3,$4,$5,$6,$7,$8,$9,$2,$3,0*
0 Add four circle primitives for the rounded corners*
1,1,$1+$1,$2,$3*
1,1,$1+$1,$4,$5*
1,1,$1+$1,$6,$7*
1,1,$1+$1,$8,$9*
0 Add four rect primitives between the rounded corners*
20,1,$1+$1,$2,$3,$4,$5,0*
20,1,$1+$1,$4,$5,$6,$7,0*
20,1,$1+$1,$6,$7,$8,$9,0*
20,1,$1+$1,$8,$9,$2,$3,0*%
G04 Aperture macros list end*
%ADD10R,1.397000X0.889000*%
%ADD11R,2.550160X2.499360*%
%ADD12R,0.889000X1.397000*%
%ADD13R,1.550000X0.600000*%
%ADD14R,0.650000X1.560000*%
%ADD15R,1.560000X0.650000*%
%ADD16R,0.900000X0.800000*%
%ADD17R,1.300000X1.700000*%
%ADD18RoundRect,0.250000X0.325000X0.450000X-0.325000X0.450000X-0.325000X-0.450000X0.325000X-0.450000X0*%
%ADD19R,1.060000X0.650000*%
%ADD20R,1.500000X1.300000*%
%ADD21R,3.000000X0.700000*%
%ADD22R,1.500000X0.550000*%
%ADD23R,0.550000X1.500000*%
%ADD24R,3.800000X1.000000*%
%ADD25R,1.000000X3.800000*%
%ADD26R,3.300000X2.550000*%
%ADD27R,1.300000X1.500000*%
%ADD28R,0.700000X3.000000*%
%ADD29R,1.524000X1.524000*%
%ADD30R,1.270000X2.540000*%
%ADD31R,0.250000X1.100000*%
%ADD32R,1.000000X1.800000*%
G04 APERTURE END LIST*
D10*
%TO.C,C20*%
X10066000Y20504500D03*
X10066000Y18599500D03*
%TD*%
D11*
%TO.C,C1*%
X29989760Y16250000D03*
X24940240Y16250000D03*
%TD*%
D10*
%TO.C,C3*%
X5240000Y28950000D03*
X5240000Y30855000D03*
%TD*%
D12*
%TO.C,C4*%
X30005000Y13075000D03*
X28100000Y13075000D03*
%TD*%
%TO.C,C5*%
X7780000Y23870000D03*
X5875000Y23870000D03*
%TD*%
D10*
%TO.C,C6*%
X19718000Y24759000D03*
X19718000Y22854000D03*
%TD*%
%TO.C,C7*%
X40038000Y23933500D03*
X40038000Y25838500D03*
%TD*%
%TO.C,C8*%
X33180000Y32061500D03*
X33180000Y33966500D03*
%TD*%
%TO.C,C9*%
X40165000Y17837500D03*
X40165000Y15932500D03*
%TD*%
D12*
%TO.C,C10*%
X11272500Y23870000D03*
X9367500Y23870000D03*
%TD*%
D10*
%TO.C,C11*%
X17686000Y24759000D03*
X17686000Y22854000D03*
%TD*%
%TO.C,C12*%
X37752000Y23933500D03*
X37752000Y25838500D03*
%TD*%
%TO.C,C13*%
X35466000Y32061500D03*
X35466000Y33966500D03*
%TD*%
%TO.C,C14*%
X42705000Y17837500D03*
X42705000Y15932500D03*
%TD*%
%TO.C,C15*%
X20226000Y26410000D03*
X20226000Y28315000D03*
%TD*%
%TO.C,C16*%
X22766000Y28442000D03*
X22766000Y26537000D03*
%TD*%
%TO.C,C17*%
X27338000Y27362500D03*
X27338000Y29267500D03*
%TD*%
%TO.C,C18*%
X27084000Y22854000D03*
X27084000Y24759000D03*
%TD*%
%TO.C,C19*%
X37752000Y27743500D03*
X37752000Y29648500D03*
%TD*%
%TO.C,R3*%
X35720000Y21647500D03*
X35720000Y19742500D03*
%TD*%
%TO.C,R4*%
X30894000Y32061500D03*
X30894000Y33966500D03*
%TD*%
D12*
%TO.C,R5*%
X37942500Y17520000D03*
X36037500Y17520000D03*
%TD*%
%TO.C,R6*%
X7780000Y21330000D03*
X5875000Y21330000D03*
%TD*%
D10*
%TO.C,R7*%
X15400000Y31807500D03*
X15400000Y29902500D03*
%TD*%
%TO.C,R8*%
X17940000Y29966000D03*
X17940000Y31871000D03*
%TD*%
%TO.C,R9*%
X17940000Y26410000D03*
X17940000Y28315000D03*
%TD*%
%TO.C,R10*%
X24798000Y26537000D03*
X24798000Y28442000D03*
%TD*%
%TO.C,R11*%
X24798000Y22854000D03*
X24798000Y24759000D03*
%TD*%
%TO.C,R12*%
X42705000Y23552500D03*
X42705000Y25457500D03*
%TD*%
D12*
%TO.C,R13*%
X39593500Y27934000D03*
X41498500Y27934000D03*
%TD*%
D13*
%TO.C,U1*%
X7620000Y25775000D03*
X7620000Y27045000D03*
X7620000Y28315000D03*
X7620000Y29585000D03*
X13020000Y29585000D03*
X13020000Y28315000D03*
X13020000Y27045000D03*
X13020000Y25775000D03*
%TD*%
D14*
%TO.C,U4*%
X39718000Y32172000D03*
X38768000Y32172000D03*
X37818000Y32172000D03*
X37818000Y34872000D03*
X39718000Y34872000D03*
%TD*%
D15*
%TO.C,U5*%
X40085000Y19745000D03*
X40085000Y20695000D03*
X40085000Y21645000D03*
X42785000Y21645000D03*
X42785000Y19745000D03*
%TD*%
D10*
%TO.C,R2*%
X15400000Y25775000D03*
X15400000Y23870000D03*
%TD*%
D13*
%TO.C,U2*%
X29972000Y23743000D03*
X29972000Y25013000D03*
X29972000Y26283000D03*
X29972000Y27553000D03*
X35372000Y27553000D03*
X35372000Y26283000D03*
X35372000Y25013000D03*
X35372000Y23743000D03*
%TD*%
D10*
%TO.C,R1*%
X42324000Y33585500D03*
X42324000Y35490500D03*
%TD*%
%TO.C,C2*%
X20320000Y35496500D03*
X20320000Y33591500D03*
%TD*%
D16*
%TO.C,U3*%
X14416000Y18602000D03*
X14416000Y20502000D03*
X16416000Y19552000D03*
%TD*%
D17*
%TO.C,D1*%
X81407000Y12573000D03*
X84907000Y12573000D03*
%TD*%
D10*
%TO.C,C55*%
X72009000Y18097500D03*
X72009000Y20002500D03*
%TD*%
D12*
%TO.C,R25*%
X66675000Y19050000D03*
X68580000Y19050000D03*
%TD*%
%TO.C,R27*%
X66675000Y21082000D03*
X68580000Y21082000D03*
%TD*%
%TO.C,R28*%
X69786500Y16256000D03*
X71691500Y16256000D03*
%TD*%
D10*
%TO.C,C21*%
X24384000Y35496500D03*
X24384000Y33591500D03*
%TD*%
%TO.C,C22*%
X78867000Y14033500D03*
X78867000Y12128500D03*
%TD*%
D12*
%TO.C,C36*%
X84328000Y17653000D03*
X86233000Y17653000D03*
%TD*%
D10*
%TO.C,F1*%
X78867000Y15494000D03*
X78867000Y17399000D03*
%TD*%
D12*
%TO.C,F2*%
X84328000Y19939000D03*
X86233000Y19939000D03*
%TD*%
D17*
%TO.C,D3*%
X83185000Y15113000D03*
X86685000Y15113000D03*
%TD*%
D18*
%TO.C,L2*%
X67945000Y16256000D03*
X65895000Y16256000D03*
%TD*%
%TO.C,L3*%
X62747000Y20066000D03*
X60697000Y20066000D03*
%TD*%
D19*
%TO.C,U6*%
X67183000Y14097000D03*
X67183000Y13147000D03*
X67183000Y12197000D03*
X64983000Y12197000D03*
X64983000Y14097000D03*
%TD*%
D10*
%TO.C,C50*%
X54991000Y17907000D03*
X54991000Y19812000D03*
%TD*%
%TO.C,C49*%
X62357000Y12382500D03*
X62357000Y14287500D03*
%TD*%
%TO.C,C42*%
X57150000Y17907000D03*
X57150000Y19812000D03*
%TD*%
D20*
%TO.C,C52*%
X51943000Y17573000D03*
D21*
X51943000Y18923000D03*
D20*
X51943000Y20273000D03*
%TD*%
D10*
%TO.C,C38*%
X60071000Y12446000D03*
X60071000Y14351000D03*
%TD*%
D20*
%TO.C,C51*%
X57023000Y12874000D03*
D21*
X57023000Y14224000D03*
D20*
X57023000Y15574000D03*
%TD*%
D10*
%TO.C,C25*%
X63754000Y18097500D03*
X63754000Y16192500D03*
%TD*%
%TO.C,C44*%
X71882000Y28511500D03*
X71882000Y30416500D03*
%TD*%
%TO.C,C40*%
X74168000Y28511500D03*
X74168000Y30416500D03*
%TD*%
D12*
%TO.C,R24*%
X80581500Y23368000D03*
X82486500Y23368000D03*
%TD*%
D10*
%TO.C,C31*%
X72390000Y33782000D03*
X72390000Y31877000D03*
%TD*%
D12*
%TO.C,C27*%
X80200500Y27813000D03*
X82105500Y27813000D03*
%TD*%
D10*
%TO.C,C53*%
X53848000Y15557500D03*
X53848000Y13652500D03*
%TD*%
D19*
%TO.C,U8*%
X61679000Y18222000D03*
X61679000Y17272000D03*
X61679000Y16322000D03*
X59479000Y16322000D03*
X59479000Y18222000D03*
%TD*%
D22*
%TO.C,U10*%
X57550000Y26640000D03*
X57550000Y27440000D03*
X57550000Y28240000D03*
X57550000Y29040000D03*
X57550000Y29840000D03*
X57550000Y30640000D03*
X57550000Y31440000D03*
X57550000Y32240000D03*
X57550000Y33040000D03*
X57550000Y33840000D03*
X57550000Y34640000D03*
D23*
X59250000Y36340000D03*
X60050000Y36340000D03*
X60850000Y36340000D03*
X61650000Y36340000D03*
X62450000Y36340000D03*
X63250000Y36340000D03*
X64050000Y36340000D03*
X64850000Y36340000D03*
X65650000Y36340000D03*
X66450000Y36340000D03*
X67250000Y36340000D03*
D22*
X68950000Y34640000D03*
X68950000Y33840000D03*
X68950000Y33040000D03*
X68950000Y32240000D03*
X68950000Y31440000D03*
X68950000Y30640000D03*
X68950000Y29840000D03*
X68950000Y29040000D03*
X68950000Y28240000D03*
X68950000Y27440000D03*
X68950000Y26640000D03*
D23*
X67250000Y24940000D03*
X66450000Y24940000D03*
X65650000Y24940000D03*
X64850000Y24940000D03*
X64050000Y24940000D03*
X63250000Y24940000D03*
X62450000Y24940000D03*
X61650000Y24940000D03*
X60850000Y24940000D03*
X60050000Y24940000D03*
X59250000Y24940000D03*
%TD*%
D12*
%TO.C,R20*%
X76200000Y28321000D03*
X78105000Y28321000D03*
%TD*%
D24*
%TO.C,M7*%
X77501000Y10279000D03*
X71501000Y40579000D03*
X65501000Y40579000D03*
D25*
X46601000Y34429000D03*
D24*
X53501000Y40579000D03*
X53501000Y10279000D03*
X77501000Y40579000D03*
X83501000Y40579000D03*
D25*
X90401000Y34429000D03*
D26*
X89251000Y39804000D03*
D24*
X83501000Y10279000D03*
X59501000Y40579000D03*
D25*
X46601000Y28429000D03*
D24*
X65501000Y10279000D03*
D25*
X90401000Y28429000D03*
X46601000Y22429000D03*
X90401000Y22429000D03*
X90401000Y16429000D03*
X46601000Y16429000D03*
D24*
X59501000Y10279000D03*
D26*
X47751000Y11054000D03*
X89251000Y11054000D03*
D24*
X71501000Y10279000D03*
D26*
X47751000Y39804000D03*
%TD*%
D27*
%TO.C,C29*%
X76661000Y16383000D03*
D28*
X75311000Y16383000D03*
D27*
X73961000Y16383000D03*
%TD*%
D29*
%TO.C,J22*%
X50165000Y23622000D03*
X52705000Y23622000D03*
X50165000Y26162000D03*
X52705000Y26162000D03*
X50165000Y28702000D03*
X52705000Y28702000D03*
%TD*%
D12*
%TO.C,R23*%
X49657000Y30988000D03*
X51562000Y30988000D03*
%TD*%
%TO.C,C26*%
X78930500Y25654000D03*
X80835500Y25654000D03*
%TD*%
%TO.C,C28*%
X80200500Y29845000D03*
X82105500Y29845000D03*
%TD*%
%TO.C,C30*%
X49847500Y36957000D03*
X51752500Y36957000D03*
%TD*%
%TO.C,C33*%
X55435500Y36957000D03*
X53530500Y36957000D03*
%TD*%
D10*
%TO.C,C34*%
X53213000Y30861000D03*
X53213000Y32766000D03*
%TD*%
D12*
%TO.C,C35*%
X64452500Y22225000D03*
X62547500Y22225000D03*
%TD*%
%TO.C,C39*%
X63182500Y38481000D03*
X65087500Y38481000D03*
%TD*%
%TO.C,C43*%
X80200500Y32004000D03*
X82105500Y32004000D03*
%TD*%
D10*
%TO.C,C47*%
X76962000Y23431500D03*
X76962000Y21526500D03*
%TD*%
D30*
%TO.C,L1*%
X77597000Y32893000D03*
X74549000Y32893000D03*
%TD*%
D12*
%TO.C,R21*%
X75247500Y25908000D03*
X77152500Y25908000D03*
%TD*%
D31*
%TO.C,U11*%
X73390000Y21726000D03*
X72890000Y21726000D03*
X72390000Y21726000D03*
X71890000Y21726000D03*
X71390000Y21726000D03*
X71390000Y26026000D03*
X71890000Y26026000D03*
X72390000Y26026000D03*
X72890000Y26026000D03*
X73390000Y26026000D03*
%TD*%
D32*
%TO.C,Y2*%
X74168000Y19558000D03*
X76668000Y19558000D03*
%TD*%
D10*
%TO.C,C23*%
X22352000Y35496500D03*
X22352000Y33591500D03*
%TD*%
%TO.C,C24*%
X18034000Y35560000D03*
X18034000Y33655000D03*
%TD*%
%TO.C,C32*%
X69469000Y14097000D03*
X69469000Y12192000D03*
%TD*%
D27*
%TO.C,C45*%
X76661000Y12827000D03*
D28*
X75311000Y12827000D03*
D27*
X73961000Y12827000D03*
%TD*%
D10*
%TO.C,C48*%
X71882000Y14160500D03*
X71882000Y12255500D03*
%TD*%
%TO.C,C54*%
X48895000Y19748500D03*
X48895000Y17843500D03*
%TD*%
D12*
%TO.C,R15*%
X26035000Y38100000D03*
X27940000Y38100000D03*
%TD*%
%TO.C,R19*%
X22225000Y38100000D03*
X24130000Y38100000D03*
%TD*%
%TO.C,R22*%
X18415000Y38100000D03*
X20320000Y38100000D03*
%TD*%
D24*
%TO.C,M6*%
X25874000Y10340000D03*
X7874000Y10340000D03*
X37874000Y40640000D03*
D26*
X43624000Y11115000D03*
D25*
X974000Y16490000D03*
X44774000Y22490000D03*
D24*
X19874000Y10340000D03*
X7874000Y40640000D03*
D25*
X44774000Y16490000D03*
D24*
X31874000Y10340000D03*
D25*
X44774000Y34490000D03*
D24*
X19874000Y40640000D03*
X13874000Y10340000D03*
D26*
X2124000Y39865000D03*
D25*
X974000Y22490000D03*
X974000Y28490000D03*
D24*
X13874000Y40640000D03*
D25*
X44774000Y28490000D03*
D26*
X43624000Y39865000D03*
D24*
X37874000Y10340000D03*
X31874000Y40640000D03*
D25*
X974000Y34490000D03*
D26*
X2124000Y11115000D03*
D24*
X25874000Y40640000D03*
%TD*%
M02*
