%TF.GenerationSoftware,KiCad,Pcbnew,6.0.4-6f826c9f35~116~ubuntu20.04.1*%
%TF.CreationDate,2022-05-21T21:40:52+00:00*%
%TF.ProjectId,USTSIPIN02A,55535453-4950-4494-9e30-32412e6b6963,REV*%
%TF.SameCoordinates,Original*%
%TF.FileFunction,Copper,L2,Inr*%
%TF.FilePolarity,Positive*%
%FSLAX46Y46*%
G04 Gerber Fmt 4.6, Leading zero omitted, Abs format (unit mm)*
G04 Created by KiCad (PCBNEW 6.0.4-6f826c9f35~116~ubuntu20.04.1) date 2022-05-21 21:40:52*
%MOMM*%
%LPD*%
G01*
G04 APERTURE LIST*
%TA.AperFunction,ComponentPad*%
%ADD10C,6.000000*%
%TD*%
%TA.AperFunction,ComponentPad*%
%ADD11C,1.524000*%
%TD*%
%TA.AperFunction,ComponentPad*%
%ADD12C,1.500000*%
%TD*%
%TA.AperFunction,ComponentPad*%
%ADD13R,1.524000X1.524000*%
%TD*%
%TA.AperFunction,ComponentPad*%
%ADD14O,2.000000X1.000000*%
%TD*%
%TA.AperFunction,ComponentPad*%
%ADD15O,2.100000X1.050000*%
%TD*%
%TA.AperFunction,ViaPad*%
%ADD16C,0.800000*%
%TD*%
%TA.AperFunction,Conductor*%
%ADD17C,0.400000*%
%TD*%
G04 APERTURE END LIST*
D10*
%TO.N,GND*%
%TO.C,M2*%
X76200000Y45720000D03*
%TD*%
%TO.N,GND*%
%TO.C,M3*%
X5080000Y45720000D03*
%TD*%
%TO.N,GND*%
%TO.C,M4*%
X5080000Y5080000D03*
%TD*%
D11*
%TO.N,/K*%
%TO.C,D2*%
X15360000Y34190000D03*
%TO.N,/A*%
X10360000Y34190000D03*
%TD*%
D10*
%TO.N,GND*%
%TO.C,M1*%
X76200000Y5080000D03*
%TD*%
D12*
%TO.N,Net-(C30-Pad1)*%
%TO.C,Y1*%
X41910000Y31750000D03*
%TO.N,Net-(C33-Pad1)*%
X41910000Y36630000D03*
%TD*%
D13*
%TO.N,/cpu/PC4*%
%TO.C,J6*%
X61722000Y45720000D03*
%TD*%
%TO.N,/cpu/PC3*%
%TO.C,J5*%
X59182000Y45720000D03*
%TD*%
D14*
%TO.N,GND*%
%TO.C,J4*%
X88392000Y11062500D03*
X88392000Y2422500D03*
D15*
X84212000Y11062500D03*
X84212000Y2422500D03*
%TD*%
D16*
%TO.N,*%
X10450000Y11000000D03*
%TO.N,GND*%
X14732000Y12344400D03*
X19913600Y24130000D03*
X19913600Y25552400D03*
X10160000Y14478000D03*
X4622800Y16256000D03*
X4445000Y18415000D03*
X3175000Y19685000D03*
X2540000Y20955000D03*
X2540000Y22225000D03*
X2540000Y24130000D03*
X2540000Y26035000D03*
X2540000Y27940000D03*
X18288000Y29921200D03*
X19456400Y29972000D03*
X20624800Y29972000D03*
X4064000Y38354000D03*
X30480000Y5080000D03*
X26416000Y32004000D03*
X17272000Y33782000D03*
X58420000Y32004000D03*
X12700000Y45720000D03*
X62230000Y42164000D03*
X10320000Y27680000D03*
X79502000Y8890000D03*
X89535000Y16256000D03*
X49100000Y25950000D03*
X64008000Y32004000D03*
X18800000Y37750000D03*
X48768000Y41402000D03*
X15138400Y25552400D03*
X71374000Y47244000D03*
X24700000Y22300000D03*
X61722000Y48768000D03*
X27940000Y7620000D03*
X56388000Y23368000D03*
X17526000Y39116000D03*
X72898000Y25146000D03*
X12954000Y16256000D03*
X32766000Y33528000D03*
X20320000Y45720000D03*
X89408000Y47498000D03*
X22352000Y38862000D03*
X33020000Y48260000D03*
X36576000Y17526000D03*
X52070000Y35814000D03*
X33020000Y45720000D03*
X69342000Y1778000D03*
X85471000Y30607000D03*
X43180000Y10160000D03*
X61976000Y1778000D03*
X24130000Y38862000D03*
X40640000Y10160000D03*
X36830000Y34290000D03*
X83439000Y14478000D03*
X70612000Y30734000D03*
X70358000Y42164000D03*
X52578000Y1778000D03*
X87122000Y30607000D03*
X63500000Y42164000D03*
X24892000Y32004000D03*
X89535000Y14351000D03*
X48260000Y13970000D03*
X25400000Y48260000D03*
X5334000Y32766000D03*
X45974000Y20320000D03*
X11430000Y13716000D03*
X4064000Y34544000D03*
X36576000Y23622000D03*
X30480000Y45720000D03*
X22860000Y45720000D03*
X46990000Y22606000D03*
X10319457Y30200565D03*
X50546000Y48260000D03*
X83947000Y18796000D03*
X80010000Y28448000D03*
X65786000Y9144000D03*
X12700000Y48260000D03*
X12700000Y7620000D03*
X7366000Y19304000D03*
X35560000Y45720000D03*
X21844000Y29718000D03*
X32766000Y14478000D03*
X42672000Y40132000D03*
X77724000Y33782000D03*
X65278000Y26670000D03*
X28956000Y38862000D03*
X57150000Y13970000D03*
X40640000Y40132000D03*
X35560000Y5080000D03*
X32766000Y17272000D03*
X33020000Y5080000D03*
X30350000Y18300000D03*
X8382000Y12700000D03*
X88392000Y7874000D03*
X89662000Y20828000D03*
X22860000Y5080000D03*
X30600000Y14400000D03*
X89662000Y25908000D03*
X70104000Y48768000D03*
X27940000Y32004000D03*
X43180000Y12700000D03*
X4064000Y36576000D03*
X73152000Y30226000D03*
X59436000Y24130000D03*
X39116000Y28702000D03*
X23368000Y32004000D03*
X52832000Y48768000D03*
X65024000Y18542000D03*
X36830000Y31750000D03*
X72644000Y20574000D03*
X59690000Y48768000D03*
X4064000Y32766000D03*
X20320000Y7620000D03*
X28702000Y34544000D03*
X13208000Y32766000D03*
X22860000Y7620000D03*
X61214000Y15494000D03*
X23368000Y16052800D03*
X22352000Y32512000D03*
X4986000Y26918000D03*
X58674000Y1778000D03*
X36830000Y38608000D03*
X88392000Y6350000D03*
X52070000Y11430000D03*
X14732000Y19558000D03*
X10160000Y45720000D03*
X88392000Y4572000D03*
X14986000Y21082000D03*
X9304000Y22092000D03*
X5080000Y12700000D03*
X36830000Y33020000D03*
X38100000Y12700000D03*
X69342000Y22352000D03*
X10668000Y31750000D03*
X57150000Y15240000D03*
X27686000Y38862000D03*
X80772000Y32258000D03*
X5334000Y36576000D03*
X8890000Y19304000D03*
X88900000Y30607000D03*
X6858000Y32766000D03*
X80137000Y15240000D03*
X12446000Y31750000D03*
X28448000Y28448000D03*
X48514000Y27940000D03*
X10500000Y35900000D03*
X32766000Y29464000D03*
X71374000Y45212000D03*
X72898000Y27686000D03*
X36576000Y13970000D03*
X63500000Y27940000D03*
X25400000Y45720000D03*
X32766000Y20828000D03*
X36830000Y30480000D03*
X83566000Y32258000D03*
X27940000Y45720000D03*
X81153000Y45339000D03*
X81280000Y27178000D03*
X88392000Y9271000D03*
X63754000Y48768000D03*
X44450000Y24638000D03*
X63754000Y13970000D03*
X54610000Y48768000D03*
X13462000Y21590000D03*
X25400000Y7620000D03*
X32766000Y31496000D03*
X17780000Y48260000D03*
X22200000Y17250000D03*
X10668000Y21965000D03*
X15240000Y7620000D03*
X44196000Y42672000D03*
X11500000Y32800000D03*
X57912000Y48768000D03*
X49530000Y1778000D03*
X15240000Y45720000D03*
X38100000Y5080000D03*
X44196000Y23114000D03*
X43180000Y5080000D03*
X70612000Y29464000D03*
X83058000Y48006000D03*
X19253200Y15544800D03*
X12225000Y21965000D03*
X7620000Y35052000D03*
X27940000Y5080000D03*
X67310000Y45212000D03*
X20828000Y38862000D03*
X40640000Y12700000D03*
X71882000Y8001000D03*
X89154000Y35052000D03*
X36830000Y29210000D03*
X15300000Y35700000D03*
X12954000Y12700000D03*
X18186400Y25501600D03*
X5334000Y38354000D03*
X38608000Y40386000D03*
X25908000Y38862000D03*
X56388000Y48768000D03*
X7874000Y32766000D03*
X19558000Y32766000D03*
X72390000Y10160000D03*
X30480000Y48260000D03*
X19151600Y17373600D03*
X50038000Y27940000D03*
X30400000Y17250000D03*
X24892000Y29464000D03*
X12860000Y23870000D03*
X81153000Y2413000D03*
X6858000Y12700000D03*
X65532000Y32004000D03*
X70612000Y27940000D03*
X10160000Y48260000D03*
X43942000Y20320000D03*
X31750000Y34036000D03*
X64008000Y26670000D03*
X8382000Y34036000D03*
X80899000Y18669000D03*
X53086000Y12700000D03*
X55626000Y1778000D03*
X83185000Y45339000D03*
X59944000Y29210000D03*
X19100800Y19253200D03*
X32512000Y39624000D03*
X87503000Y47498000D03*
X16611600Y25501600D03*
X85344000Y47498000D03*
X27940000Y48260000D03*
X4064000Y39624000D03*
X13716000Y31242000D03*
X50546000Y14732000D03*
X69088000Y18542000D03*
X22860000Y48260000D03*
X72898000Y41910000D03*
X83439000Y16510000D03*
X45212000Y40132000D03*
X65786000Y48768000D03*
X32766000Y23114000D03*
X24638000Y30734000D03*
X4986000Y25648000D03*
X78359000Y15240000D03*
X20320000Y48260000D03*
X56896000Y33782000D03*
X36576000Y25400000D03*
X68072000Y48768000D03*
X11176000Y15748000D03*
X35560000Y43434000D03*
X73914000Y9652000D03*
X25400000Y5080000D03*
X26100000Y17350000D03*
X6604000Y34544000D03*
X10320000Y28950000D03*
X36576000Y21590000D03*
X38100000Y10160000D03*
X40640000Y5080000D03*
X59944000Y26924000D03*
X15240000Y48260000D03*
X23622000Y22300000D03*
X50546000Y46482000D03*
X45720000Y12700000D03*
X5334000Y39624000D03*
X82042000Y32258000D03*
X38862000Y25400000D03*
X17780000Y45720000D03*
X7366000Y31242000D03*
X10320000Y25775000D03*
X23368000Y14274800D03*
X35560000Y48260000D03*
X63500000Y28956000D03*
X3810000Y30480000D03*
X23400000Y18050000D03*
X76962000Y25146000D03*
X68580000Y13208000D03*
X17780000Y7620000D03*
X89662000Y23368000D03*
X81407000Y48006000D03*
X19050000Y38862000D03*
X76962000Y23622000D03*
X5334000Y34544000D03*
X58674000Y26924000D03*
X63754000Y12192000D03*
X16250000Y38400000D03*
X14478000Y16256000D03*
X28702000Y11684000D03*
X65532000Y1778000D03*
%TO.N,Net-(R13-Pad2)*%
X26365200Y30429200D03*
X26365200Y23215600D03*
%TO.N,/cpu/RST#_P*%
X42672000Y24130000D03*
%TO.N,/cpu/PC0*%
X84369236Y38427429D03*
X56438536Y44200622D03*
X68580000Y34290000D03*
X60960000Y18415000D03*
%TO.N,/cpu/PC1*%
X60198000Y17272000D03*
X57404000Y43942000D03*
X67310000Y37338000D03*
X81745417Y37295417D03*
X67056000Y34290000D03*
%TO.N,/cpu/PB5*%
X48260000Y29718000D03*
%TO.N,/cpu/PB7*%
X47244000Y28956000D03*
%TO.N,/cpu/PB6*%
X50800000Y18542000D03*
X51308000Y33782000D03*
%TO.N,+3V3*%
X70866000Y43434000D03*
X69088000Y16510000D03*
X48768000Y16510000D03*
X77470000Y19209500D03*
X71628000Y14986000D03*
%TO.N,+5V*%
X52832000Y38353989D03*
X74930000Y33020000D03*
X29210000Y36068000D03*
%TO.N,PA1*%
X57150000Y32004000D03*
X27686000Y10922000D03*
X27940000Y26924000D03*
%TO.N,PA0*%
X30250211Y15603127D03*
X57150000Y27686000D03*
%TO.N,Vin*%
X70866000Y20066000D03*
X68326000Y19304000D03*
X72070000Y23302000D03*
%TO.N,PB0*%
X24338980Y18390902D03*
X53340000Y25654000D03*
%TO.N,POWER_ANALOG_3V3*%
X50292000Y44450000D03*
X77724000Y38100000D03*
X64262000Y46228000D03*
X32512000Y36830000D03*
X81797000Y34027000D03*
X31191200Y35255200D03*
X66040000Y40894000D03*
X28969000Y13017800D03*
%TO.N,/cpu/SD_VDD*%
X48805500Y24390730D03*
%TO.N,Net-(D3-Pad1)*%
X69342000Y7620000D03*
%TO.N,Net-(D4-Pad1)*%
X64262000Y7874000D03*
%TO.N,/cpu/TIMEPULSE*%
X89154000Y43180000D03*
X64457500Y35052000D03*
X51308000Y38354000D03*
X69596000Y35052000D03*
%TO.N,Net-(D7-Pad1)*%
X48260000Y8382000D03*
%TO.N,/cpu/EXTINT*%
X88354500Y41910000D03*
X52049291Y43185569D03*
%TO.N,/cpu/GEO_STAT*%
X78486000Y40769020D03*
X53014500Y42926000D03*
%TO.N,/cpu/TX1*%
X50546000Y42926000D03*
X84582000Y37084000D03*
%TO.N,/cpu/RX1*%
X46482000Y39878000D03*
X84357500Y35814000D03*
%TO.N,Net-(D8-Pad1)*%
X58166000Y8382000D03*
%TO.N,/power/D+*%
X81788000Y7112000D03*
X81026000Y12700000D03*
%TO.N,/power/RXLED{slash}CBUS1*%
X65278000Y11430000D03*
X71628000Y18288000D03*
%TO.N,/power/TXLED{slash}CBUS2*%
X69342000Y11684000D03*
X75400500Y14299011D03*
%TO.N,/cpu/PB4*%
X52324000Y33020000D03*
%TO.N,Net-(D9-Pad1)*%
X53314168Y8153832D03*
%TO.N,RST#*%
X47200000Y25050000D03*
X76660635Y20621365D03*
%TO.N,Net-(D10-Pad1)*%
X67310000Y46990000D03*
%TO.N,/power/VBUS*%
X73152000Y12700000D03*
X82083519Y13503519D03*
X82042000Y17526000D03*
X82042000Y4318000D03*
X82804000Y27178000D03*
%TO.N,RX0*%
X45720000Y37865500D03*
X78815336Y23800664D03*
%TO.N,TX0*%
X45974000Y38862000D03*
X79835635Y23796365D03*
X77978000Y17526000D03*
%TO.N,/cpu/PC5_D1*%
X50038000Y11684000D03*
X56535408Y35646098D03*
%TO.N,/cpu/PC7_D3*%
X59436000Y14732000D03*
X58441003Y36068000D03*
%TO.N,/cpu/PC6_D2*%
X54610000Y11430000D03*
X57441500Y36068000D03*
%TO.N,Net-(BT1-Pad1)*%
X66053000Y29985000D03*
%TD*%
D17*
%TO.N,Net-(R13-Pad2)*%
X26365200Y23215600D02*
X26365200Y30429200D01*
%TO.N,/cpu/PC1*%
X67101500Y34335500D02*
X67101500Y37129500D01*
X67101500Y37129500D02*
X67310000Y37338000D01*
X67056000Y34290000D02*
X67101500Y34335500D01*
%TO.N,/cpu/PB6*%
X50800000Y18542000D02*
X51308000Y19050000D01*
X51308000Y19050000D02*
X51308000Y33782000D01*
%TO.N,PA1*%
X27800000Y26784000D02*
X27800000Y15100000D01*
X27432000Y11176000D02*
X27686000Y10922000D01*
X27940000Y26924000D02*
X27800000Y26784000D01*
X27432000Y14732000D02*
X27432000Y11176000D01*
X27800000Y15100000D02*
X27432000Y14732000D01*
%TO.N,POWER_ANALOG_3V3*%
X81797000Y34027000D02*
X77724000Y38100000D01*
X28969000Y13017800D02*
X29250000Y13298800D01*
X29250000Y13298800D02*
X29250000Y33314000D01*
X29250000Y33314000D02*
X31191200Y35255200D01*
%TD*%
%TA.AperFunction,Conductor*%
%TO.N,GND*%
G36*
X90944691Y50326593D02*
G01*
X90980655Y50277093D01*
X90985500Y50246500D01*
X90985500Y553500D01*
X90966593Y495309D01*
X90917093Y459345D01*
X90886500Y454500D01*
X553500Y454500D01*
X495309Y473407D01*
X459345Y522907D01*
X454500Y553500D01*
X454500Y4318000D01*
X81436318Y4318000D01*
X81456956Y4161238D01*
X81517464Y4015159D01*
X81613718Y3889718D01*
X81739159Y3793464D01*
X81885238Y3732956D01*
X82042000Y3712318D01*
X82198762Y3732956D01*
X82344841Y3793464D01*
X82378372Y3819193D01*
X84182606Y3819193D01*
X84183940Y3812578D01*
X84183940Y3812576D01*
X84199493Y3735440D01*
X84211064Y3678056D01*
X84276429Y3549770D01*
X84280992Y3544807D01*
X84280994Y3544805D01*
X84326896Y3494887D01*
X84373884Y3443788D01*
X84496250Y3367918D01*
X84634512Y3327749D01*
X84639682Y3327369D01*
X84639684Y3327369D01*
X84642911Y3327132D01*
X84642918Y3327132D01*
X84644712Y3327000D01*
X84748070Y3327000D01*
X84854646Y3341599D01*
X84860832Y3344276D01*
X84860836Y3344277D01*
X84980595Y3396102D01*
X84980596Y3396103D01*
X84986783Y3398780D01*
X85042364Y3443788D01*
X85093433Y3485143D01*
X85093434Y3485144D01*
X85098675Y3489388D01*
X85182079Y3606749D01*
X85184363Y3613094D01*
X85184365Y3613097D01*
X85220391Y3713165D01*
X85230850Y3742215D01*
X85234431Y3790981D01*
X85240900Y3879073D01*
X85240900Y3879077D01*
X85241394Y3885807D01*
X85239567Y3894871D01*
X85214269Y4020333D01*
X85212936Y4026944D01*
X85147571Y4155230D01*
X85143008Y4160193D01*
X85143006Y4160195D01*
X85054684Y4256244D01*
X85050116Y4261212D01*
X84927750Y4337082D01*
X84789488Y4377251D01*
X84784318Y4377631D01*
X84784316Y4377631D01*
X84781089Y4377868D01*
X84781082Y4377868D01*
X84779288Y4378000D01*
X84675930Y4378000D01*
X84569354Y4363401D01*
X84563168Y4360724D01*
X84563164Y4360723D01*
X84443405Y4308898D01*
X84437217Y4306220D01*
X84431978Y4301978D01*
X84431977Y4301977D01*
X84330567Y4219857D01*
X84325325Y4215612D01*
X84321417Y4210113D01*
X84282422Y4155241D01*
X84241921Y4098251D01*
X84239637Y4091906D01*
X84239635Y4091903D01*
X84218412Y4032952D01*
X84193150Y3962785D01*
X84192656Y3956053D01*
X84192655Y3956050D01*
X84187785Y3889718D01*
X84182606Y3819193D01*
X82378372Y3819193D01*
X82470282Y3889718D01*
X82566536Y4015159D01*
X82627044Y4161238D01*
X82647682Y4318000D01*
X82627044Y4474762D01*
X82566536Y4620841D01*
X82470282Y4746282D01*
X82344841Y4842536D01*
X82198762Y4903044D01*
X82042000Y4923682D01*
X81885238Y4903044D01*
X81739159Y4842536D01*
X81613718Y4746282D01*
X81517464Y4620841D01*
X81456956Y4474762D01*
X81436318Y4318000D01*
X454500Y4318000D01*
X454500Y8382000D01*
X47654318Y8382000D01*
X47674956Y8225238D01*
X47735464Y8079159D01*
X47831718Y7953718D01*
X47957159Y7857464D01*
X48103238Y7796956D01*
X48260000Y7776318D01*
X48416762Y7796956D01*
X48562841Y7857464D01*
X48688282Y7953718D01*
X48784536Y8079159D01*
X48815467Y8153832D01*
X52708486Y8153832D01*
X52729124Y7997070D01*
X52789632Y7850991D01*
X52885886Y7725550D01*
X53011327Y7629296D01*
X53157406Y7568788D01*
X53314168Y7548150D01*
X53470930Y7568788D01*
X53617009Y7629296D01*
X53742450Y7725550D01*
X53838704Y7850991D01*
X53899212Y7997070D01*
X53919850Y8153832D01*
X53899212Y8310594D01*
X53869635Y8382000D01*
X57560318Y8382000D01*
X57580956Y8225238D01*
X57641464Y8079159D01*
X57737718Y7953718D01*
X57863159Y7857464D01*
X58009238Y7796956D01*
X58166000Y7776318D01*
X58322762Y7796956D01*
X58468841Y7857464D01*
X58490391Y7874000D01*
X63656318Y7874000D01*
X63676956Y7717238D01*
X63737464Y7571159D01*
X63833718Y7445718D01*
X63959159Y7349464D01*
X64105238Y7288956D01*
X64262000Y7268318D01*
X64418762Y7288956D01*
X64564841Y7349464D01*
X64690282Y7445718D01*
X64786536Y7571159D01*
X64806767Y7620000D01*
X68736318Y7620000D01*
X68756956Y7463238D01*
X68817464Y7317159D01*
X68913718Y7191718D01*
X69039159Y7095464D01*
X69185238Y7034956D01*
X69342000Y7014318D01*
X69498762Y7034956D01*
X69644841Y7095464D01*
X69666391Y7112000D01*
X81182318Y7112000D01*
X81202956Y6955238D01*
X81263464Y6809159D01*
X81359718Y6683718D01*
X81485159Y6587464D01*
X81631238Y6526956D01*
X81788000Y6506318D01*
X81944762Y6526956D01*
X82090841Y6587464D01*
X82216282Y6683718D01*
X82312536Y6809159D01*
X82373044Y6955238D01*
X82393682Y7112000D01*
X82373044Y7268762D01*
X82312536Y7414841D01*
X82216282Y7540282D01*
X82090841Y7636536D01*
X81944762Y7697044D01*
X81788000Y7717682D01*
X81631238Y7697044D01*
X81485159Y7636536D01*
X81359718Y7540282D01*
X81263464Y7414841D01*
X81202956Y7268762D01*
X81182318Y7112000D01*
X69666391Y7112000D01*
X69770282Y7191718D01*
X69866536Y7317159D01*
X69927044Y7463238D01*
X69947682Y7620000D01*
X69927044Y7776762D01*
X69866536Y7922841D01*
X69770282Y8048282D01*
X69644841Y8144536D01*
X69498762Y8205044D01*
X69342000Y8225682D01*
X69185238Y8205044D01*
X69039159Y8144536D01*
X68913718Y8048282D01*
X68817464Y7922841D01*
X68756956Y7776762D01*
X68736318Y7620000D01*
X64806767Y7620000D01*
X64847044Y7717238D01*
X64867682Y7874000D01*
X64847044Y8030762D01*
X64786536Y8176841D01*
X64690282Y8302282D01*
X64564841Y8398536D01*
X64418762Y8459044D01*
X64262000Y8479682D01*
X64105238Y8459044D01*
X63959159Y8398536D01*
X63833718Y8302282D01*
X63737464Y8176841D01*
X63676956Y8030762D01*
X63656318Y7874000D01*
X58490391Y7874000D01*
X58594282Y7953718D01*
X58690536Y8079159D01*
X58751044Y8225238D01*
X58771682Y8382000D01*
X58751044Y8538762D01*
X58690536Y8684841D01*
X58594282Y8810282D01*
X58468841Y8906536D01*
X58322762Y8967044D01*
X58166000Y8987682D01*
X58009238Y8967044D01*
X57863159Y8906536D01*
X57737718Y8810282D01*
X57641464Y8684841D01*
X57580956Y8538762D01*
X57560318Y8382000D01*
X53869635Y8382000D01*
X53838704Y8456673D01*
X53742450Y8582114D01*
X53617009Y8678368D01*
X53470930Y8738876D01*
X53314168Y8759514D01*
X53157406Y8738876D01*
X53011327Y8678368D01*
X52885886Y8582114D01*
X52789632Y8456673D01*
X52729124Y8310594D01*
X52708486Y8153832D01*
X48815467Y8153832D01*
X48845044Y8225238D01*
X48865682Y8382000D01*
X48845044Y8538762D01*
X48784536Y8684841D01*
X48688282Y8810282D01*
X48562841Y8906536D01*
X48416762Y8967044D01*
X48260000Y8987682D01*
X48103238Y8967044D01*
X47957159Y8906536D01*
X47831718Y8810282D01*
X47735464Y8684841D01*
X47674956Y8538762D01*
X47654318Y8382000D01*
X454500Y8382000D01*
X454500Y9599193D01*
X84182606Y9599193D01*
X84183940Y9592578D01*
X84183940Y9592576D01*
X84209545Y9465591D01*
X84211064Y9458056D01*
X84276429Y9329770D01*
X84280992Y9324807D01*
X84280994Y9324805D01*
X84326896Y9274887D01*
X84373884Y9223788D01*
X84496250Y9147918D01*
X84634512Y9107749D01*
X84639682Y9107369D01*
X84639684Y9107369D01*
X84642911Y9107132D01*
X84642918Y9107132D01*
X84644712Y9107000D01*
X84748070Y9107000D01*
X84854646Y9121599D01*
X84860832Y9124276D01*
X84860836Y9124277D01*
X84980595Y9176102D01*
X84980596Y9176103D01*
X84986783Y9178780D01*
X85042364Y9223788D01*
X85093433Y9265143D01*
X85093434Y9265144D01*
X85098675Y9269388D01*
X85182079Y9386749D01*
X85184363Y9393094D01*
X85184365Y9393097D01*
X85228562Y9515861D01*
X85230850Y9522215D01*
X85241394Y9665807D01*
X85224592Y9749139D01*
X85214269Y9800333D01*
X85212936Y9806944D01*
X85147571Y9935230D01*
X85143008Y9940193D01*
X85143006Y9940195D01*
X85054684Y10036244D01*
X85050116Y10041212D01*
X84927750Y10117082D01*
X84789488Y10157251D01*
X84784318Y10157631D01*
X84784316Y10157631D01*
X84781089Y10157868D01*
X84781082Y10157868D01*
X84779288Y10158000D01*
X84675930Y10158000D01*
X84569354Y10143401D01*
X84563168Y10140724D01*
X84563164Y10140723D01*
X84443405Y10088898D01*
X84437217Y10086220D01*
X84431978Y10081978D01*
X84431977Y10081977D01*
X84330567Y9999857D01*
X84325325Y9995612D01*
X84241921Y9878251D01*
X84239637Y9871906D01*
X84239635Y9871903D01*
X84218412Y9812952D01*
X84193150Y9742785D01*
X84182606Y9599193D01*
X454500Y9599193D01*
X454500Y11000000D01*
X9844318Y11000000D01*
X9864956Y10843238D01*
X9925464Y10697159D01*
X10021718Y10571718D01*
X10147159Y10475464D01*
X10293238Y10414956D01*
X10450000Y10394318D01*
X10606762Y10414956D01*
X10752841Y10475464D01*
X10878282Y10571718D01*
X10974536Y10697159D01*
X11035044Y10843238D01*
X11055682Y11000000D01*
X11040862Y11112567D01*
X27031500Y11112567D01*
X27038955Y11089625D01*
X27042581Y11074519D01*
X27046354Y11050696D01*
X27057305Y11029203D01*
X27063248Y11014857D01*
X27070704Y10991910D01*
X27072418Y10989550D01*
X27081926Y10934220D01*
X27081165Y10928438D01*
X27081165Y10928434D01*
X27080318Y10922000D01*
X27100956Y10765238D01*
X27161464Y10619159D01*
X27257718Y10493718D01*
X27383159Y10397464D01*
X27529238Y10336956D01*
X27686000Y10316318D01*
X27842762Y10336956D01*
X27988841Y10397464D01*
X28114282Y10493718D01*
X28210536Y10619159D01*
X28271044Y10765238D01*
X28291682Y10922000D01*
X28271044Y11078762D01*
X28210536Y11224841D01*
X28114282Y11350282D01*
X27988841Y11446536D01*
X27982850Y11449018D01*
X27982844Y11449021D01*
X27893615Y11485980D01*
X27847089Y11525716D01*
X27832500Y11577444D01*
X27832500Y11684000D01*
X49432318Y11684000D01*
X49452956Y11527238D01*
X49513464Y11381159D01*
X49609718Y11255718D01*
X49735159Y11159464D01*
X49881238Y11098956D01*
X50038000Y11078318D01*
X50194762Y11098956D01*
X50340841Y11159464D01*
X50466282Y11255718D01*
X50562536Y11381159D01*
X50582767Y11430000D01*
X54004318Y11430000D01*
X54024956Y11273238D01*
X54085464Y11127159D01*
X54181718Y11001718D01*
X54307159Y10905464D01*
X54453238Y10844956D01*
X54610000Y10824318D01*
X54766762Y10844956D01*
X54912841Y10905464D01*
X55038282Y11001718D01*
X55134536Y11127159D01*
X55195044Y11273238D01*
X55215682Y11430000D01*
X64672318Y11430000D01*
X64692956Y11273238D01*
X64753464Y11127159D01*
X64849718Y11001718D01*
X64975159Y10905464D01*
X65121238Y10844956D01*
X65278000Y10824318D01*
X65434762Y10844956D01*
X65580841Y10905464D01*
X65706282Y11001718D01*
X65802536Y11127159D01*
X65863044Y11273238D01*
X65883682Y11430000D01*
X65863044Y11586762D01*
X65822767Y11684000D01*
X68736318Y11684000D01*
X68756956Y11527238D01*
X68817464Y11381159D01*
X68913718Y11255718D01*
X69039159Y11159464D01*
X69185238Y11098956D01*
X69342000Y11078318D01*
X69498762Y11098956D01*
X69644841Y11159464D01*
X69770282Y11255718D01*
X69866536Y11381159D01*
X69927044Y11527238D01*
X69947682Y11684000D01*
X69927044Y11840762D01*
X69866536Y11986841D01*
X69770282Y12112282D01*
X69644841Y12208536D01*
X69498762Y12269044D01*
X69342000Y12289682D01*
X69185238Y12269044D01*
X69039159Y12208536D01*
X68913718Y12112282D01*
X68817464Y11986841D01*
X68756956Y11840762D01*
X68736318Y11684000D01*
X65822767Y11684000D01*
X65802536Y11732841D01*
X65706282Y11858282D01*
X65580841Y11954536D01*
X65434762Y12015044D01*
X65278000Y12035682D01*
X65121238Y12015044D01*
X64975159Y11954536D01*
X64849718Y11858282D01*
X64753464Y11732841D01*
X64692956Y11586762D01*
X64672318Y11430000D01*
X55215682Y11430000D01*
X55195044Y11586762D01*
X55134536Y11732841D01*
X55038282Y11858282D01*
X54912841Y11954536D01*
X54766762Y12015044D01*
X54610000Y12035682D01*
X54453238Y12015044D01*
X54307159Y11954536D01*
X54181718Y11858282D01*
X54085464Y11732841D01*
X54024956Y11586762D01*
X54004318Y11430000D01*
X50582767Y11430000D01*
X50623044Y11527238D01*
X50643682Y11684000D01*
X50623044Y11840762D01*
X50562536Y11986841D01*
X50466282Y12112282D01*
X50340841Y12208536D01*
X50194762Y12269044D01*
X50038000Y12289682D01*
X49881238Y12269044D01*
X49735159Y12208536D01*
X49609718Y12112282D01*
X49513464Y11986841D01*
X49452956Y11840762D01*
X49432318Y11684000D01*
X27832500Y11684000D01*
X27832500Y13017800D01*
X28363318Y13017800D01*
X28364165Y13011366D01*
X28364649Y13007689D01*
X28383956Y12861038D01*
X28444464Y12714959D01*
X28540718Y12589518D01*
X28666159Y12493264D01*
X28812238Y12432756D01*
X28969000Y12412118D01*
X29125762Y12432756D01*
X29271841Y12493264D01*
X29397282Y12589518D01*
X29482058Y12700000D01*
X72546318Y12700000D01*
X72566956Y12543238D01*
X72627464Y12397159D01*
X72723718Y12271718D01*
X72849159Y12175464D01*
X72995238Y12114956D01*
X73152000Y12094318D01*
X73308762Y12114956D01*
X73454841Y12175464D01*
X73580282Y12271718D01*
X73676536Y12397159D01*
X73737044Y12543238D01*
X73757682Y12700000D01*
X80420318Y12700000D01*
X80440956Y12543238D01*
X80501464Y12397159D01*
X80597718Y12271718D01*
X80723159Y12175464D01*
X80869238Y12114956D01*
X81026000Y12094318D01*
X81182762Y12114956D01*
X81328841Y12175464D01*
X81454282Y12271718D01*
X81550536Y12397159D01*
X81611044Y12543238D01*
X81631682Y12700000D01*
X81630391Y12709810D01*
X81611891Y12850326D01*
X81611044Y12856762D01*
X81599185Y12885392D01*
X81594384Y12946389D01*
X81626353Y12998558D01*
X81682881Y13021973D01*
X81742376Y13007689D01*
X81750916Y13001820D01*
X81780678Y12978983D01*
X81926757Y12918475D01*
X82083519Y12897837D01*
X82240281Y12918475D01*
X82386360Y12978983D01*
X82511801Y13075237D01*
X82608055Y13200678D01*
X82668563Y13346757D01*
X82689201Y13503519D01*
X82668563Y13660281D01*
X82608055Y13806360D01*
X82511801Y13931801D01*
X82386360Y14028055D01*
X82240281Y14088563D01*
X82083519Y14109201D01*
X81926757Y14088563D01*
X81780678Y14028055D01*
X81655237Y13931801D01*
X81558983Y13806360D01*
X81498475Y13660281D01*
X81477837Y13503519D01*
X81498475Y13346757D01*
X81500959Y13340760D01*
X81510334Y13318127D01*
X81515135Y13257130D01*
X81483166Y13204961D01*
X81426638Y13181546D01*
X81367143Y13195830D01*
X81358603Y13201699D01*
X81333990Y13220585D01*
X81328841Y13224536D01*
X81182762Y13285044D01*
X81026000Y13305682D01*
X80869238Y13285044D01*
X80723159Y13224536D01*
X80597718Y13128282D01*
X80501464Y13002841D01*
X80440956Y12856762D01*
X80440109Y12850326D01*
X80421610Y12709810D01*
X80420318Y12700000D01*
X73757682Y12700000D01*
X73756391Y12709810D01*
X73737891Y12850326D01*
X73737044Y12856762D01*
X73676536Y13002841D01*
X73580282Y13128282D01*
X73454841Y13224536D01*
X73308762Y13285044D01*
X73152000Y13305682D01*
X72995238Y13285044D01*
X72849159Y13224536D01*
X72723718Y13128282D01*
X72627464Y13002841D01*
X72566956Y12856762D01*
X72566109Y12850326D01*
X72547610Y12709810D01*
X72546318Y12700000D01*
X29482058Y12700000D01*
X29493536Y12714959D01*
X29554044Y12861038D01*
X29573351Y13007689D01*
X29573835Y13011366D01*
X29574682Y13017800D01*
X29573835Y13024234D01*
X29573835Y13028418D01*
X29584622Y13073357D01*
X29585580Y13075237D01*
X29589000Y13081950D01*
X29597117Y13095195D01*
X29606715Y13108405D01*
X29611296Y13114710D01*
X29618752Y13137657D01*
X29624695Y13152003D01*
X29635646Y13173496D01*
X29639136Y13195529D01*
X29639419Y13197319D01*
X29643045Y13212425D01*
X29650500Y13235367D01*
X29650500Y14732000D01*
X58830318Y14732000D01*
X58850956Y14575238D01*
X58911464Y14429159D01*
X59007718Y14303718D01*
X59133159Y14207464D01*
X59279238Y14146956D01*
X59436000Y14126318D01*
X59592762Y14146956D01*
X59738841Y14207464D01*
X59858148Y14299011D01*
X74794818Y14299011D01*
X74815456Y14142249D01*
X74875964Y13996170D01*
X74972218Y13870729D01*
X75097659Y13774475D01*
X75243738Y13713967D01*
X75400500Y13693329D01*
X75557262Y13713967D01*
X75703341Y13774475D01*
X75828782Y13870729D01*
X75925036Y13996170D01*
X75985544Y14142249D01*
X76006182Y14299011D01*
X75985544Y14455773D01*
X75925036Y14601852D01*
X75828782Y14727293D01*
X75703341Y14823547D01*
X75557262Y14884055D01*
X75400500Y14904693D01*
X75243738Y14884055D01*
X75097659Y14823547D01*
X74972218Y14727293D01*
X74875964Y14601852D01*
X74815456Y14455773D01*
X74794818Y14299011D01*
X59858148Y14299011D01*
X59864282Y14303718D01*
X59960536Y14429159D01*
X60021044Y14575238D01*
X60041682Y14732000D01*
X60021044Y14888762D01*
X60009799Y14915911D01*
X59999030Y14941909D01*
X59980767Y14986000D01*
X71022318Y14986000D01*
X71042956Y14829238D01*
X71103464Y14683159D01*
X71199718Y14557718D01*
X71325159Y14461464D01*
X71471238Y14400956D01*
X71628000Y14380318D01*
X71784762Y14400956D01*
X71930841Y14461464D01*
X72056282Y14557718D01*
X72152536Y14683159D01*
X72213044Y14829238D01*
X72233682Y14986000D01*
X72213044Y15142762D01*
X72152536Y15288841D01*
X72056282Y15414282D01*
X71930841Y15510536D01*
X71784762Y15571044D01*
X71628000Y15591682D01*
X71471238Y15571044D01*
X71325159Y15510536D01*
X71199718Y15414282D01*
X71103464Y15288841D01*
X71042956Y15142762D01*
X71022318Y14986000D01*
X59980767Y14986000D01*
X59960536Y15034841D01*
X59864282Y15160282D01*
X59738841Y15256536D01*
X59592762Y15317044D01*
X59436000Y15337682D01*
X59279238Y15317044D01*
X59133159Y15256536D01*
X59007718Y15160282D01*
X58911464Y15034841D01*
X58872970Y14941909D01*
X58862202Y14915911D01*
X58850956Y14888762D01*
X58830318Y14732000D01*
X29650500Y14732000D01*
X29650500Y15108465D01*
X29669407Y15166656D01*
X29718907Y15202620D01*
X29780093Y15202620D01*
X29818832Y15178881D01*
X29821929Y15174845D01*
X29947370Y15078591D01*
X30093449Y15018083D01*
X30250211Y14997445D01*
X30406973Y15018083D01*
X30553052Y15078591D01*
X30678493Y15174845D01*
X30774747Y15300286D01*
X30835255Y15446365D01*
X30855893Y15603127D01*
X30835255Y15759889D01*
X30774747Y15905968D01*
X30678493Y16031409D01*
X30553052Y16127663D01*
X30406973Y16188171D01*
X30250211Y16208809D01*
X30093449Y16188171D01*
X29947370Y16127663D01*
X29821929Y16031409D01*
X29818920Y16027487D01*
X29764987Y16000008D01*
X29704555Y16009579D01*
X29661290Y16052844D01*
X29650500Y16097789D01*
X29650500Y16510000D01*
X48162318Y16510000D01*
X48182956Y16353238D01*
X48243464Y16207159D01*
X48339718Y16081718D01*
X48465159Y15985464D01*
X48611238Y15924956D01*
X48768000Y15904318D01*
X48924762Y15924956D01*
X49070841Y15985464D01*
X49196282Y16081718D01*
X49292536Y16207159D01*
X49353044Y16353238D01*
X49373682Y16510000D01*
X68482318Y16510000D01*
X68502956Y16353238D01*
X68563464Y16207159D01*
X68659718Y16081718D01*
X68785159Y15985464D01*
X68931238Y15924956D01*
X69088000Y15904318D01*
X69244762Y15924956D01*
X69390841Y15985464D01*
X69516282Y16081718D01*
X69612536Y16207159D01*
X69673044Y16353238D01*
X69693682Y16510000D01*
X69673044Y16666762D01*
X69612536Y16812841D01*
X69516282Y16938282D01*
X69390841Y17034536D01*
X69244762Y17095044D01*
X69088000Y17115682D01*
X68931238Y17095044D01*
X68785159Y17034536D01*
X68659718Y16938282D01*
X68563464Y16812841D01*
X68502956Y16666762D01*
X68482318Y16510000D01*
X49373682Y16510000D01*
X49353044Y16666762D01*
X49292536Y16812841D01*
X49196282Y16938282D01*
X49070841Y17034536D01*
X48924762Y17095044D01*
X48768000Y17115682D01*
X48611238Y17095044D01*
X48465159Y17034536D01*
X48339718Y16938282D01*
X48243464Y16812841D01*
X48182956Y16666762D01*
X48162318Y16510000D01*
X29650500Y16510000D01*
X29650500Y17272000D01*
X59592318Y17272000D01*
X59612956Y17115238D01*
X59673464Y16969159D01*
X59769718Y16843718D01*
X59895159Y16747464D01*
X60041238Y16686956D01*
X60198000Y16666318D01*
X60354762Y16686956D01*
X60500841Y16747464D01*
X60626282Y16843718D01*
X60722536Y16969159D01*
X60783044Y17115238D01*
X60803682Y17272000D01*
X60783044Y17428762D01*
X60742767Y17526000D01*
X77372318Y17526000D01*
X77392956Y17369238D01*
X77453464Y17223159D01*
X77549718Y17097718D01*
X77675159Y17001464D01*
X77821238Y16940956D01*
X77978000Y16920318D01*
X78134762Y16940956D01*
X78280841Y17001464D01*
X78406282Y17097718D01*
X78502536Y17223159D01*
X78563044Y17369238D01*
X78583682Y17526000D01*
X81436318Y17526000D01*
X81456956Y17369238D01*
X81517464Y17223159D01*
X81613718Y17097718D01*
X81739159Y17001464D01*
X81885238Y16940956D01*
X82042000Y16920318D01*
X82198762Y16940956D01*
X82344841Y17001464D01*
X82470282Y17097718D01*
X82566536Y17223159D01*
X82627044Y17369238D01*
X82647682Y17526000D01*
X82627044Y17682762D01*
X82566536Y17828841D01*
X82470282Y17954282D01*
X82344841Y18050536D01*
X82198762Y18111044D01*
X82042000Y18131682D01*
X81885238Y18111044D01*
X81739159Y18050536D01*
X81613718Y17954282D01*
X81517464Y17828841D01*
X81456956Y17682762D01*
X81436318Y17526000D01*
X78583682Y17526000D01*
X78563044Y17682762D01*
X78502536Y17828841D01*
X78406282Y17954282D01*
X78280841Y18050536D01*
X78134762Y18111044D01*
X77978000Y18131682D01*
X77821238Y18111044D01*
X77675159Y18050536D01*
X77549718Y17954282D01*
X77453464Y17828841D01*
X77392956Y17682762D01*
X77372318Y17526000D01*
X60742767Y17526000D01*
X60722536Y17574841D01*
X60626282Y17700282D01*
X60627039Y17700863D01*
X60601897Y17750208D01*
X60611468Y17810640D01*
X60654733Y17853905D01*
X60715165Y17863476D01*
X60737565Y17857159D01*
X60803238Y17829956D01*
X60960000Y17809318D01*
X61116762Y17829956D01*
X61262841Y17890464D01*
X61388282Y17986718D01*
X61484536Y18112159D01*
X61545044Y18258238D01*
X61548962Y18288000D01*
X71022318Y18288000D01*
X71042956Y18131238D01*
X71103464Y17985159D01*
X71199718Y17859718D01*
X71325159Y17763464D01*
X71471238Y17702956D01*
X71628000Y17682318D01*
X71784762Y17702956D01*
X71930841Y17763464D01*
X72056282Y17859718D01*
X72152536Y17985159D01*
X72213044Y18131238D01*
X72233682Y18288000D01*
X72213044Y18444762D01*
X72152536Y18590841D01*
X72056282Y18716282D01*
X71930841Y18812536D01*
X71784762Y18873044D01*
X71628000Y18893682D01*
X71471238Y18873044D01*
X71325159Y18812536D01*
X71199718Y18716282D01*
X71103464Y18590841D01*
X71042956Y18444762D01*
X71022318Y18288000D01*
X61548962Y18288000D01*
X61565682Y18415000D01*
X61545044Y18571762D01*
X61484536Y18717841D01*
X61388282Y18843282D01*
X61262841Y18939536D01*
X61116762Y19000044D01*
X60985569Y19017316D01*
X60966434Y19019835D01*
X60960000Y19020682D01*
X60953566Y19019835D01*
X60934431Y19017316D01*
X60803238Y19000044D01*
X60657159Y18939536D01*
X60531718Y18843282D01*
X60435464Y18717841D01*
X60374956Y18571762D01*
X60354318Y18415000D01*
X60374956Y18258238D01*
X60435464Y18112159D01*
X60528584Y17990803D01*
X60528584Y17990802D01*
X60531718Y17986718D01*
X60530961Y17986137D01*
X60556103Y17936792D01*
X60546532Y17876360D01*
X60503267Y17833095D01*
X60442835Y17823524D01*
X60420436Y17829841D01*
X60360759Y17854560D01*
X60354762Y17857044D01*
X60198000Y17877682D01*
X60041238Y17857044D01*
X59895159Y17796536D01*
X59769718Y17700282D01*
X59673464Y17574841D01*
X59612956Y17428762D01*
X59592318Y17272000D01*
X29650500Y17272000D01*
X29650500Y18542000D01*
X50194318Y18542000D01*
X50214956Y18385238D01*
X50275464Y18239159D01*
X50371718Y18113718D01*
X50497159Y18017464D01*
X50643238Y17956956D01*
X50800000Y17936318D01*
X50956762Y17956956D01*
X51102841Y18017464D01*
X51228282Y18113718D01*
X51324536Y18239159D01*
X51385044Y18385238D01*
X51405682Y18542000D01*
X51405678Y18542030D01*
X51423742Y18597626D01*
X51433831Y18609439D01*
X51636050Y18811658D01*
X51647004Y18833156D01*
X51655111Y18846386D01*
X51669296Y18865910D01*
X51676751Y18888856D01*
X51682696Y18903206D01*
X51693646Y18924696D01*
X51697420Y18948525D01*
X51701046Y18963627D01*
X51706092Y18979157D01*
X51706093Y18979160D01*
X51708499Y18986567D01*
X51708499Y19018475D01*
X51708500Y19018481D01*
X51708500Y19304000D01*
X67720318Y19304000D01*
X67740956Y19147238D01*
X67801464Y19001159D01*
X67897718Y18875718D01*
X68023159Y18779464D01*
X68169238Y18718956D01*
X68326000Y18698318D01*
X68482762Y18718956D01*
X68628841Y18779464D01*
X68754282Y18875718D01*
X68850536Y19001159D01*
X68911044Y19147238D01*
X68919241Y19209500D01*
X76864318Y19209500D01*
X76884956Y19052738D01*
X76945464Y18906659D01*
X77041718Y18781218D01*
X77167159Y18684964D01*
X77313238Y18624456D01*
X77470000Y18603818D01*
X77626762Y18624456D01*
X77772841Y18684964D01*
X77898282Y18781218D01*
X77994536Y18906659D01*
X78055044Y19052738D01*
X78075682Y19209500D01*
X78055044Y19366262D01*
X77994536Y19512341D01*
X77898282Y19637782D01*
X77772841Y19734036D01*
X77626762Y19794544D01*
X77470000Y19815182D01*
X77313238Y19794544D01*
X77167159Y19734036D01*
X77041718Y19637782D01*
X76945464Y19512341D01*
X76884956Y19366262D01*
X76864318Y19209500D01*
X68919241Y19209500D01*
X68931682Y19304000D01*
X68911044Y19460762D01*
X68850536Y19606841D01*
X68754282Y19732282D01*
X68628841Y19828536D01*
X68482762Y19889044D01*
X68326000Y19909682D01*
X68169238Y19889044D01*
X68023159Y19828536D01*
X67897718Y19732282D01*
X67801464Y19606841D01*
X67740956Y19460762D01*
X67720318Y19304000D01*
X51708500Y19304000D01*
X51708500Y20066000D01*
X70260318Y20066000D01*
X70280956Y19909238D01*
X70341464Y19763159D01*
X70437718Y19637718D01*
X70563159Y19541464D01*
X70709238Y19480956D01*
X70866000Y19460318D01*
X71022762Y19480956D01*
X71168841Y19541464D01*
X71294282Y19637718D01*
X71390536Y19763159D01*
X71451044Y19909238D01*
X71471682Y20066000D01*
X71451044Y20222762D01*
X71390536Y20368841D01*
X71294282Y20494282D01*
X71168841Y20590536D01*
X71094413Y20621365D01*
X76054953Y20621365D01*
X76075591Y20464603D01*
X76136099Y20318524D01*
X76232353Y20193083D01*
X76357794Y20096829D01*
X76503873Y20036321D01*
X76660635Y20015683D01*
X76817397Y20036321D01*
X76963476Y20096829D01*
X77088917Y20193083D01*
X77185171Y20318524D01*
X77245679Y20464603D01*
X77266317Y20621365D01*
X77245679Y20778127D01*
X77185171Y20924206D01*
X77088917Y21049647D01*
X76963476Y21145901D01*
X76817397Y21206409D01*
X76660635Y21227047D01*
X76503873Y21206409D01*
X76357794Y21145901D01*
X76232353Y21049647D01*
X76136099Y20924206D01*
X76075591Y20778127D01*
X76054953Y20621365D01*
X71094413Y20621365D01*
X71022762Y20651044D01*
X70866000Y20671682D01*
X70709238Y20651044D01*
X70563159Y20590536D01*
X70437718Y20494282D01*
X70341464Y20368841D01*
X70280956Y20222762D01*
X70260318Y20066000D01*
X51708500Y20066000D01*
X51708500Y23302000D01*
X71464318Y23302000D01*
X71484956Y23145238D01*
X71545464Y22999159D01*
X71641718Y22873718D01*
X71767159Y22777464D01*
X71913238Y22716956D01*
X72070000Y22696318D01*
X72226762Y22716956D01*
X72372841Y22777464D01*
X72498282Y22873718D01*
X72594536Y22999159D01*
X72655044Y23145238D01*
X72675682Y23302000D01*
X72655044Y23458762D01*
X72594536Y23604841D01*
X72498282Y23730282D01*
X72406558Y23800664D01*
X78209654Y23800664D01*
X78230292Y23643902D01*
X78290800Y23497823D01*
X78387054Y23372382D01*
X78512495Y23276128D01*
X78658574Y23215620D01*
X78815336Y23194982D01*
X78972098Y23215620D01*
X79118177Y23276128D01*
X79243618Y23372382D01*
X79247572Y23377535D01*
X79252156Y23382119D01*
X79253837Y23380438D01*
X79295723Y23409223D01*
X79356887Y23407619D01*
X79398431Y23377436D01*
X79398815Y23377820D01*
X79401239Y23375396D01*
X79402375Y23374571D01*
X79407353Y23368083D01*
X79532794Y23271829D01*
X79678873Y23211321D01*
X79835635Y23190683D01*
X79992397Y23211321D01*
X80138476Y23271829D01*
X80263917Y23368083D01*
X80360171Y23493524D01*
X80420679Y23639603D01*
X80441317Y23796365D01*
X80420679Y23953127D01*
X80360171Y24099206D01*
X80263917Y24224647D01*
X80138476Y24320901D01*
X79992397Y24381409D01*
X79835635Y24402047D01*
X79678873Y24381409D01*
X79532794Y24320901D01*
X79407353Y24224647D01*
X79403399Y24219494D01*
X79398815Y24214910D01*
X79397134Y24216591D01*
X79355248Y24187806D01*
X79294084Y24189410D01*
X79252540Y24219593D01*
X79252156Y24219209D01*
X79249732Y24221633D01*
X79248596Y24222458D01*
X79243618Y24228946D01*
X79118177Y24325200D01*
X78972098Y24385708D01*
X78815336Y24406346D01*
X78658574Y24385708D01*
X78512495Y24325200D01*
X78387054Y24228946D01*
X78290800Y24103505D01*
X78288317Y24097510D01*
X78234358Y23967241D01*
X78230292Y23957426D01*
X78209654Y23800664D01*
X72406558Y23800664D01*
X72372841Y23826536D01*
X72226762Y23887044D01*
X72070000Y23907682D01*
X71913238Y23887044D01*
X71767159Y23826536D01*
X71641718Y23730282D01*
X71545464Y23604841D01*
X71484956Y23458762D01*
X71464318Y23302000D01*
X51708500Y23302000D01*
X51708500Y25654000D01*
X52734318Y25654000D01*
X52754956Y25497238D01*
X52815464Y25351159D01*
X52911718Y25225718D01*
X53037159Y25129464D01*
X53183238Y25068956D01*
X53340000Y25048318D01*
X53496762Y25068956D01*
X53642841Y25129464D01*
X53768282Y25225718D01*
X53864536Y25351159D01*
X53925044Y25497238D01*
X53945682Y25654000D01*
X53925044Y25810762D01*
X53864536Y25956841D01*
X53768282Y26082282D01*
X53642841Y26178536D01*
X53496762Y26239044D01*
X53340000Y26259682D01*
X53183238Y26239044D01*
X53037159Y26178536D01*
X52911718Y26082282D01*
X52815464Y25956841D01*
X52754956Y25810762D01*
X52734318Y25654000D01*
X51708500Y25654000D01*
X51708500Y27686000D01*
X56544318Y27686000D01*
X56564956Y27529238D01*
X56625464Y27383159D01*
X56721718Y27257718D01*
X56847159Y27161464D01*
X56993238Y27100956D01*
X57150000Y27080318D01*
X57306762Y27100956D01*
X57452841Y27161464D01*
X57474391Y27178000D01*
X82198318Y27178000D01*
X82218956Y27021238D01*
X82279464Y26875159D01*
X82375718Y26749718D01*
X82501159Y26653464D01*
X82647238Y26592956D01*
X82804000Y26572318D01*
X82960762Y26592956D01*
X83106841Y26653464D01*
X83232282Y26749718D01*
X83328536Y26875159D01*
X83389044Y27021238D01*
X83409682Y27178000D01*
X83389044Y27334762D01*
X83328536Y27480841D01*
X83232282Y27606282D01*
X83106841Y27702536D01*
X82960762Y27763044D01*
X82804000Y27783682D01*
X82647238Y27763044D01*
X82501159Y27702536D01*
X82375718Y27606282D01*
X82279464Y27480841D01*
X82218956Y27334762D01*
X82198318Y27178000D01*
X57474391Y27178000D01*
X57578282Y27257718D01*
X57674536Y27383159D01*
X57735044Y27529238D01*
X57755682Y27686000D01*
X57735044Y27842762D01*
X57674536Y27988841D01*
X57578282Y28114282D01*
X57452841Y28210536D01*
X57306762Y28271044D01*
X57150000Y28291682D01*
X56993238Y28271044D01*
X56847159Y28210536D01*
X56721718Y28114282D01*
X56625464Y27988841D01*
X56564956Y27842762D01*
X56544318Y27686000D01*
X51708500Y27686000D01*
X51708500Y29985000D01*
X65447318Y29985000D01*
X65467956Y29828238D01*
X65528464Y29682159D01*
X65624718Y29556718D01*
X65750159Y29460464D01*
X65896238Y29399956D01*
X66053000Y29379318D01*
X66209762Y29399956D01*
X66355841Y29460464D01*
X66481282Y29556718D01*
X66577536Y29682159D01*
X66638044Y29828238D01*
X66658682Y29985000D01*
X66638044Y30141762D01*
X66577536Y30287841D01*
X66481282Y30413282D01*
X66355841Y30509536D01*
X66209762Y30570044D01*
X66053000Y30590682D01*
X65896238Y30570044D01*
X65750159Y30509536D01*
X65624718Y30413282D01*
X65528464Y30287841D01*
X65467956Y30141762D01*
X65447318Y29985000D01*
X51708500Y29985000D01*
X51708500Y32004000D01*
X56544318Y32004000D01*
X56564956Y31847238D01*
X56625464Y31701159D01*
X56721718Y31575718D01*
X56847159Y31479464D01*
X56993238Y31418956D01*
X57150000Y31398318D01*
X57306762Y31418956D01*
X57452841Y31479464D01*
X57578282Y31575718D01*
X57674536Y31701159D01*
X57735044Y31847238D01*
X57755682Y32004000D01*
X57735044Y32160762D01*
X57674536Y32306841D01*
X57578282Y32432282D01*
X57452841Y32528536D01*
X57306762Y32589044D01*
X57150000Y32609682D01*
X56993238Y32589044D01*
X56847159Y32528536D01*
X56721718Y32432282D01*
X56625464Y32306841D01*
X56564956Y32160762D01*
X56544318Y32004000D01*
X51708500Y32004000D01*
X51708500Y32544061D01*
X51727407Y32602252D01*
X51776907Y32638216D01*
X51838093Y32638216D01*
X51886042Y32604328D01*
X51895718Y32591718D01*
X52021159Y32495464D01*
X52167238Y32434956D01*
X52324000Y32414318D01*
X52480762Y32434956D01*
X52626841Y32495464D01*
X52752282Y32591718D01*
X52848536Y32717159D01*
X52909044Y32863238D01*
X52929682Y33020000D01*
X74324318Y33020000D01*
X74344956Y32863238D01*
X74405464Y32717159D01*
X74501718Y32591718D01*
X74627159Y32495464D01*
X74773238Y32434956D01*
X74930000Y32414318D01*
X75086762Y32434956D01*
X75232841Y32495464D01*
X75358282Y32591718D01*
X75454536Y32717159D01*
X75515044Y32863238D01*
X75535682Y33020000D01*
X75515044Y33176762D01*
X75454536Y33322841D01*
X75358282Y33448282D01*
X75232841Y33544536D01*
X75086762Y33605044D01*
X74930000Y33625682D01*
X74773238Y33605044D01*
X74627159Y33544536D01*
X74501718Y33448282D01*
X74405464Y33322841D01*
X74344956Y33176762D01*
X74324318Y33020000D01*
X52929682Y33020000D01*
X52909044Y33176762D01*
X52848536Y33322841D01*
X52752282Y33448282D01*
X52626841Y33544536D01*
X52480762Y33605044D01*
X52324000Y33625682D01*
X52167238Y33605044D01*
X52161240Y33602560D01*
X52161238Y33602559D01*
X52032837Y33549374D01*
X51971841Y33544573D01*
X51919672Y33576543D01*
X51896257Y33633071D01*
X51896799Y33653760D01*
X51912835Y33775566D01*
X51913682Y33782000D01*
X51893044Y33938762D01*
X51832536Y34084841D01*
X51736282Y34210282D01*
X51632391Y34290000D01*
X66450318Y34290000D01*
X66470956Y34133238D01*
X66531464Y33987159D01*
X66627718Y33861718D01*
X66753159Y33765464D01*
X66899238Y33704956D01*
X67056000Y33684318D01*
X67212762Y33704956D01*
X67358841Y33765464D01*
X67484282Y33861718D01*
X67580536Y33987159D01*
X67641044Y34133238D01*
X67661682Y34290000D01*
X67974318Y34290000D01*
X67994956Y34133238D01*
X68055464Y33987159D01*
X68151718Y33861718D01*
X68277159Y33765464D01*
X68423238Y33704956D01*
X68580000Y33684318D01*
X68736762Y33704956D01*
X68882841Y33765464D01*
X69008282Y33861718D01*
X69104536Y33987159D01*
X69165044Y34133238D01*
X69185682Y34290000D01*
X69172934Y34386835D01*
X69168799Y34418240D01*
X69179949Y34478401D01*
X69224331Y34520518D01*
X69284993Y34528504D01*
X69304837Y34522626D01*
X69433238Y34469441D01*
X69433240Y34469440D01*
X69439238Y34466956D01*
X69596000Y34446318D01*
X69752762Y34466956D01*
X69898841Y34527464D01*
X70024282Y34623718D01*
X70120536Y34749159D01*
X70181044Y34895238D01*
X70201682Y35052000D01*
X70181044Y35208762D01*
X70120536Y35354841D01*
X70024282Y35480282D01*
X69898841Y35576536D01*
X69752762Y35637044D01*
X69596000Y35657682D01*
X69439238Y35637044D01*
X69293159Y35576536D01*
X69167718Y35480282D01*
X69071464Y35354841D01*
X69010956Y35208762D01*
X68990318Y35052000D01*
X68991165Y35045566D01*
X69007201Y34923760D01*
X68996051Y34863599D01*
X68951669Y34821482D01*
X68891007Y34813496D01*
X68871163Y34819374D01*
X68742762Y34872559D01*
X68742760Y34872560D01*
X68736762Y34875044D01*
X68580000Y34895682D01*
X68423238Y34875044D01*
X68277159Y34814536D01*
X68151718Y34718282D01*
X68055464Y34592841D01*
X67994956Y34446762D01*
X67974318Y34290000D01*
X67661682Y34290000D01*
X67641044Y34446762D01*
X67580536Y34592841D01*
X67533539Y34654089D01*
X67522458Y34668530D01*
X67502000Y34728797D01*
X67502000Y36701402D01*
X67520907Y36759593D01*
X67563114Y36792866D01*
X67606156Y36810695D01*
X67612841Y36813464D01*
X67738282Y36909718D01*
X67834536Y37035159D01*
X67895044Y37181238D01*
X67915682Y37338000D01*
X67895044Y37494762D01*
X67886433Y37515552D01*
X67864632Y37568182D01*
X67834536Y37640841D01*
X67738282Y37766282D01*
X67612841Y37862536D01*
X67466762Y37923044D01*
X67310000Y37943682D01*
X67153238Y37923044D01*
X67007159Y37862536D01*
X66881718Y37766282D01*
X66785464Y37640841D01*
X66755368Y37568182D01*
X66733568Y37515552D01*
X66724956Y37494762D01*
X66704318Y37338000D01*
X66705165Y37331567D01*
X66705165Y37331565D01*
X66713662Y37267025D01*
X66713291Y37238621D01*
X66712082Y37230985D01*
X66708454Y37215874D01*
X66701000Y37192933D01*
X66701000Y34823334D01*
X66682093Y34765143D01*
X66662268Y34744793D01*
X66627718Y34718282D01*
X66531464Y34592841D01*
X66470956Y34446762D01*
X66450318Y34290000D01*
X51632391Y34290000D01*
X51610841Y34306536D01*
X51464762Y34367044D01*
X51308000Y34387682D01*
X51151238Y34367044D01*
X51005159Y34306536D01*
X50879718Y34210282D01*
X50783464Y34084841D01*
X50722956Y33938762D01*
X50702318Y33782000D01*
X50722956Y33625238D01*
X50783464Y33479159D01*
X50879718Y33353718D01*
X50879743Y33353699D01*
X50906281Y33301614D01*
X50907500Y33286127D01*
X50907500Y19256900D01*
X50888593Y19198709D01*
X50878504Y19186896D01*
X50867439Y19175831D01*
X50812922Y19148054D01*
X50803067Y19147278D01*
X50800000Y19147682D01*
X50643238Y19127044D01*
X50497159Y19066536D01*
X50371718Y18970282D01*
X50275464Y18844841D01*
X50214956Y18698762D01*
X50194318Y18542000D01*
X29650500Y18542000D01*
X29650500Y24130000D01*
X42066318Y24130000D01*
X42086956Y23973238D01*
X42089440Y23967241D01*
X42091425Y23962448D01*
X42147464Y23827159D01*
X42243718Y23701718D01*
X42369159Y23605464D01*
X42515238Y23544956D01*
X42672000Y23524318D01*
X42828762Y23544956D01*
X42974841Y23605464D01*
X43100282Y23701718D01*
X43196536Y23827159D01*
X43252575Y23962448D01*
X43254560Y23967241D01*
X43257044Y23973238D01*
X43277682Y24130000D01*
X43257044Y24286762D01*
X43213979Y24390730D01*
X48199818Y24390730D01*
X48220456Y24233968D01*
X48280964Y24087889D01*
X48377218Y23962448D01*
X48502659Y23866194D01*
X48648738Y23805686D01*
X48805500Y23785048D01*
X48962262Y23805686D01*
X49108341Y23866194D01*
X49233782Y23962448D01*
X49330036Y24087889D01*
X49390544Y24233968D01*
X49411182Y24390730D01*
X49390544Y24547492D01*
X49330036Y24693571D01*
X49233782Y24819012D01*
X49108341Y24915266D01*
X48962262Y24975774D01*
X48805500Y24996412D01*
X48648738Y24975774D01*
X48502659Y24915266D01*
X48377218Y24819012D01*
X48280964Y24693571D01*
X48220456Y24547492D01*
X48199818Y24390730D01*
X43213979Y24390730D01*
X43196536Y24432841D01*
X43100282Y24558282D01*
X42974841Y24654536D01*
X42828762Y24715044D01*
X42672000Y24735682D01*
X42515238Y24715044D01*
X42369159Y24654536D01*
X42243718Y24558282D01*
X42147464Y24432841D01*
X42086956Y24286762D01*
X42066318Y24130000D01*
X29650500Y24130000D01*
X29650500Y25050000D01*
X46594318Y25050000D01*
X46614956Y24893238D01*
X46675464Y24747159D01*
X46771718Y24621718D01*
X46897159Y24525464D01*
X47043238Y24464956D01*
X47200000Y24444318D01*
X47356762Y24464956D01*
X47502841Y24525464D01*
X47628282Y24621718D01*
X47724536Y24747159D01*
X47785044Y24893238D01*
X47805682Y25050000D01*
X47785044Y25206762D01*
X47724536Y25352841D01*
X47628282Y25478282D01*
X47502841Y25574536D01*
X47356762Y25635044D01*
X47200000Y25655682D01*
X47043238Y25635044D01*
X46897159Y25574536D01*
X46771718Y25478282D01*
X46675464Y25352841D01*
X46614956Y25206762D01*
X46594318Y25050000D01*
X29650500Y25050000D01*
X29650500Y28956000D01*
X46638318Y28956000D01*
X46658956Y28799238D01*
X46719464Y28653159D01*
X46815718Y28527718D01*
X46941159Y28431464D01*
X47087238Y28370956D01*
X47244000Y28350318D01*
X47400762Y28370956D01*
X47546841Y28431464D01*
X47672282Y28527718D01*
X47768536Y28653159D01*
X47829044Y28799238D01*
X47849682Y28956000D01*
X47832799Y29084240D01*
X47843949Y29144401D01*
X47888331Y29186518D01*
X47948993Y29194504D01*
X47968837Y29188626D01*
X48097238Y29135441D01*
X48097240Y29135440D01*
X48103238Y29132956D01*
X48260000Y29112318D01*
X48416762Y29132956D01*
X48562841Y29193464D01*
X48688282Y29289718D01*
X48784536Y29415159D01*
X48845044Y29561238D01*
X48865682Y29718000D01*
X48845044Y29874762D01*
X48784536Y30020841D01*
X48688282Y30146282D01*
X48562841Y30242536D01*
X48416762Y30303044D01*
X48260000Y30323682D01*
X48103238Y30303044D01*
X47957159Y30242536D01*
X47831718Y30146282D01*
X47735464Y30020841D01*
X47674956Y29874762D01*
X47654318Y29718000D01*
X47655165Y29711566D01*
X47671201Y29589760D01*
X47660051Y29529599D01*
X47615669Y29487482D01*
X47555007Y29479496D01*
X47535163Y29485374D01*
X47406762Y29538559D01*
X47406760Y29538560D01*
X47400762Y29541044D01*
X47244000Y29561682D01*
X47087238Y29541044D01*
X46941159Y29480536D01*
X46815718Y29384282D01*
X46719464Y29258841D01*
X46658956Y29112762D01*
X46638318Y28956000D01*
X29650500Y28956000D01*
X29650500Y31763335D01*
X40954994Y31763335D01*
X40970592Y31577586D01*
X40971925Y31572938D01*
X40971925Y31572937D01*
X40981829Y31538399D01*
X41021971Y31398405D01*
X41107176Y31232615D01*
X41222959Y31086532D01*
X41226646Y31083394D01*
X41226648Y31083392D01*
X41361224Y30968859D01*
X41361229Y30968856D01*
X41364912Y30965721D01*
X41369134Y30963361D01*
X41369139Y30963358D01*
X41399191Y30946563D01*
X41527627Y30874783D01*
X41532225Y30873289D01*
X41700302Y30818677D01*
X41700304Y30818676D01*
X41704907Y30817181D01*
X41889998Y30795110D01*
X41894820Y30795481D01*
X41894823Y30795481D01*
X42071023Y30809039D01*
X42071028Y30809040D01*
X42075851Y30809411D01*
X42255387Y30859538D01*
X42259700Y30861717D01*
X42259706Y30861719D01*
X42417447Y30941400D01*
X42417449Y30941402D01*
X42421768Y30943583D01*
X42568655Y31058344D01*
X42690454Y31199450D01*
X42782526Y31361526D01*
X42793361Y31394095D01*
X42839837Y31533808D01*
X42839837Y31533810D01*
X42841364Y31538399D01*
X42864727Y31723332D01*
X42865099Y31750000D01*
X42846909Y31935513D01*
X42793033Y32113960D01*
X42705522Y32278544D01*
X42587710Y32422995D01*
X42582713Y32427129D01*
X42447812Y32538730D01*
X42447810Y32538731D01*
X42444085Y32541813D01*
X42280116Y32630471D01*
X42102049Y32685591D01*
X42097239Y32686097D01*
X42097237Y32686097D01*
X41921484Y32704570D01*
X41921482Y32704570D01*
X41916668Y32705076D01*
X41854673Y32699434D01*
X41735852Y32688621D01*
X41735848Y32688620D01*
X41731032Y32688182D01*
X41726390Y32686816D01*
X41726386Y32686815D01*
X41556861Y32636920D01*
X41556858Y32636919D01*
X41552214Y32635552D01*
X41387023Y32549193D01*
X41383247Y32546157D01*
X41383244Y32546155D01*
X41317109Y32492981D01*
X41241752Y32432392D01*
X41238644Y32428688D01*
X41125044Y32293305D01*
X41125041Y32293301D01*
X41121935Y32289599D01*
X41032135Y32126254D01*
X41030672Y32121641D01*
X41030670Y32121637D01*
X40991313Y31997566D01*
X40975772Y31948576D01*
X40975232Y31943764D01*
X40975232Y31943763D01*
X40963733Y31841241D01*
X40954994Y31763335D01*
X29650500Y31763335D01*
X29650500Y33107099D01*
X29669407Y33165290D01*
X29679496Y33177103D01*
X31123761Y34621369D01*
X31178278Y34649146D01*
X31188133Y34649922D01*
X31191200Y34649518D01*
X31200498Y34650742D01*
X31225920Y34654089D01*
X31347962Y34670156D01*
X31494041Y34730664D01*
X31619482Y34826918D01*
X31715736Y34952359D01*
X31776244Y35098438D01*
X31796882Y35255200D01*
X31776244Y35411962D01*
X31715736Y35558041D01*
X31648168Y35646098D01*
X55929726Y35646098D01*
X55950364Y35489336D01*
X55952848Y35483339D01*
X55954114Y35480282D01*
X56010872Y35343257D01*
X56107126Y35217816D01*
X56232567Y35121562D01*
X56378646Y35061054D01*
X56535408Y35040416D01*
X56623398Y35052000D01*
X63851818Y35052000D01*
X63872456Y34895238D01*
X63932964Y34749159D01*
X64029218Y34623718D01*
X64154659Y34527464D01*
X64300738Y34466956D01*
X64457500Y34446318D01*
X64614262Y34466956D01*
X64760341Y34527464D01*
X64885782Y34623718D01*
X64982036Y34749159D01*
X65042544Y34895238D01*
X65063182Y35052000D01*
X65042544Y35208762D01*
X64982036Y35354841D01*
X64885782Y35480282D01*
X64760341Y35576536D01*
X64614262Y35637044D01*
X64457500Y35657682D01*
X64300738Y35637044D01*
X64154659Y35576536D01*
X64029218Y35480282D01*
X63932964Y35354841D01*
X63872456Y35208762D01*
X63851818Y35052000D01*
X56623398Y35052000D01*
X56692170Y35061054D01*
X56838249Y35121562D01*
X56963690Y35217816D01*
X57059944Y35343257D01*
X57104370Y35450510D01*
X57144107Y35497036D01*
X57203602Y35511319D01*
X57233719Y35504088D01*
X57278738Y35485441D01*
X57278740Y35485440D01*
X57284738Y35482956D01*
X57441500Y35462318D01*
X57598262Y35482956D01*
X57744341Y35543464D01*
X57869782Y35639718D01*
X57872198Y35642867D01*
X57925769Y35670160D01*
X57986201Y35660586D01*
X58009947Y35643333D01*
X58012721Y35639718D01*
X58138162Y35543464D01*
X58284241Y35482956D01*
X58441003Y35462318D01*
X58597765Y35482956D01*
X58743844Y35543464D01*
X58869285Y35639718D01*
X58965539Y35765159D01*
X59026047Y35911238D01*
X59046685Y36068000D01*
X59026047Y36224762D01*
X59023054Y36231989D01*
X59001898Y36283063D01*
X58965539Y36370841D01*
X58869285Y36496282D01*
X58743844Y36592536D01*
X58597765Y36653044D01*
X58441003Y36673682D01*
X58284241Y36653044D01*
X58138162Y36592536D01*
X58012721Y36496282D01*
X58010305Y36493134D01*
X57956739Y36465841D01*
X57896307Y36475412D01*
X57872555Y36492669D01*
X57869782Y36496282D01*
X57744341Y36592536D01*
X57598262Y36653044D01*
X57441500Y36673682D01*
X57284738Y36653044D01*
X57138659Y36592536D01*
X57013218Y36496282D01*
X56916964Y36370841D01*
X56914481Y36364846D01*
X56872538Y36263588D01*
X56832801Y36217062D01*
X56773306Y36202779D01*
X56743189Y36210010D01*
X56698170Y36228657D01*
X56698168Y36228658D01*
X56692170Y36231142D01*
X56535408Y36251780D01*
X56378646Y36231142D01*
X56232567Y36170634D01*
X56107126Y36074380D01*
X56010872Y35948939D01*
X55950364Y35802860D01*
X55929726Y35646098D01*
X31648168Y35646098D01*
X31619482Y35683482D01*
X31494041Y35779736D01*
X31347962Y35840244D01*
X31191200Y35860882D01*
X31034438Y35840244D01*
X30888359Y35779736D01*
X30762918Y35683482D01*
X30666664Y35558041D01*
X30606156Y35411962D01*
X30585518Y35255200D01*
X30585522Y35255170D01*
X30567458Y35199574D01*
X30557369Y35187761D01*
X28944516Y33574909D01*
X28944513Y33574905D01*
X28921950Y33552342D01*
X28910998Y33530846D01*
X28902884Y33517607D01*
X28888704Y33498090D01*
X28886296Y33490679D01*
X28881248Y33475143D01*
X28875305Y33460797D01*
X28864354Y33439304D01*
X28863136Y33431611D01*
X28863135Y33431609D01*
X28860581Y33415481D01*
X28856956Y33400380D01*
X28849500Y33377433D01*
X28849500Y13684428D01*
X28830593Y13626237D01*
X28788386Y13592964D01*
X28666159Y13542336D01*
X28540718Y13446082D01*
X28444464Y13320641D01*
X28441981Y13314646D01*
X28392766Y13195830D01*
X28383956Y13174562D01*
X28363318Y13017800D01*
X27832500Y13017800D01*
X27832500Y14525099D01*
X27851407Y14583290D01*
X27861496Y14595103D01*
X28105484Y14839091D01*
X28105487Y14839095D01*
X28128050Y14861658D01*
X28136779Y14878789D01*
X28139001Y14883151D01*
X28147113Y14896390D01*
X28161296Y14915911D01*
X28163702Y14923316D01*
X28163704Y14923320D01*
X28168751Y14938855D01*
X28174694Y14953201D01*
X28185646Y14974696D01*
X28187437Y14986000D01*
X28189419Y14998519D01*
X28193045Y15013625D01*
X28200500Y15036567D01*
X28200500Y26318839D01*
X28219407Y26377030D01*
X28243447Y26398675D01*
X28242841Y26399464D01*
X28363129Y26491764D01*
X28368282Y26495718D01*
X28464536Y26621159D01*
X28525044Y26767238D01*
X28545682Y26924000D01*
X28525044Y27080762D01*
X28464536Y27226841D01*
X28368282Y27352282D01*
X28242841Y27448536D01*
X28096762Y27509044D01*
X27940000Y27529682D01*
X27783238Y27509044D01*
X27637159Y27448536D01*
X27511718Y27352282D01*
X27415464Y27226841D01*
X27354956Y27080762D01*
X27334318Y26924000D01*
X27354956Y26767238D01*
X27357440Y26761241D01*
X27391964Y26677893D01*
X27399500Y26640007D01*
X27399500Y15306901D01*
X27380593Y15248710D01*
X27370504Y15236897D01*
X27126516Y14992909D01*
X27126513Y14992905D01*
X27103950Y14970342D01*
X27092998Y14948846D01*
X27084884Y14935607D01*
X27070704Y14916090D01*
X27068296Y14908679D01*
X27063248Y14893143D01*
X27057305Y14878797D01*
X27046354Y14857304D01*
X27045136Y14849611D01*
X27045135Y14849609D01*
X27042581Y14833481D01*
X27038956Y14818380D01*
X27031500Y14795433D01*
X27031500Y11112567D01*
X11040862Y11112567D01*
X11035044Y11156762D01*
X10974536Y11302841D01*
X10878282Y11428282D01*
X10752841Y11524536D01*
X10606762Y11585044D01*
X10450000Y11605682D01*
X10293238Y11585044D01*
X10147159Y11524536D01*
X10021718Y11428282D01*
X9925464Y11302841D01*
X9864956Y11156762D01*
X9844318Y11000000D01*
X454500Y11000000D01*
X454500Y18390902D01*
X23733298Y18390902D01*
X23753936Y18234140D01*
X23814444Y18088061D01*
X23910698Y17962620D01*
X24036139Y17866366D01*
X24182218Y17805858D01*
X24338980Y17785220D01*
X24495742Y17805858D01*
X24641821Y17866366D01*
X24767262Y17962620D01*
X24863516Y18088061D01*
X24924024Y18234140D01*
X24944662Y18390902D01*
X24924024Y18547664D01*
X24863516Y18693743D01*
X24767262Y18819184D01*
X24641821Y18915438D01*
X24495742Y18975946D01*
X24364549Y18993218D01*
X24345414Y18995737D01*
X24338980Y18996584D01*
X24332546Y18995737D01*
X24313411Y18993218D01*
X24182218Y18975946D01*
X24036139Y18915438D01*
X23910698Y18819184D01*
X23814444Y18693743D01*
X23753936Y18547664D01*
X23733298Y18390902D01*
X454500Y18390902D01*
X454500Y23215600D01*
X25759518Y23215600D01*
X25780156Y23058838D01*
X25840664Y22912759D01*
X25936918Y22787318D01*
X26062359Y22691064D01*
X26208438Y22630556D01*
X26365200Y22609918D01*
X26521962Y22630556D01*
X26668041Y22691064D01*
X26793482Y22787318D01*
X26889736Y22912759D01*
X26950244Y23058838D01*
X26970882Y23215600D01*
X26950244Y23372362D01*
X26889736Y23518441D01*
X26793482Y23643882D01*
X26793456Y23643902D01*
X26766919Y23695986D01*
X26765700Y23711473D01*
X26765700Y29933327D01*
X26784607Y29991518D01*
X26791025Y29999033D01*
X26793482Y30000918D01*
X26889736Y30126359D01*
X26950244Y30272438D01*
X26970882Y30429200D01*
X26950244Y30585962D01*
X26889736Y30732041D01*
X26793482Y30857482D01*
X26668041Y30953736D01*
X26521962Y31014244D01*
X26365200Y31034882D01*
X26208438Y31014244D01*
X26062359Y30953736D01*
X25936918Y30857482D01*
X25840664Y30732041D01*
X25780156Y30585962D01*
X25759518Y30429200D01*
X25780156Y30272438D01*
X25840664Y30126359D01*
X25936918Y30000918D01*
X25936943Y30000899D01*
X25963481Y29948814D01*
X25964700Y29933327D01*
X25964700Y23711473D01*
X25945793Y23653282D01*
X25939375Y23645767D01*
X25936918Y23643882D01*
X25840664Y23518441D01*
X25780156Y23372362D01*
X25759518Y23215600D01*
X454500Y23215600D01*
X454500Y34203504D01*
X9392937Y34203504D01*
X9393342Y34198684D01*
X9407759Y34027000D01*
X9408732Y34015410D01*
X9410065Y34010762D01*
X9410065Y34010761D01*
X9451325Y33866871D01*
X9460760Y33833966D01*
X9462975Y33829656D01*
X9544827Y33670388D01*
X9544830Y33670384D01*
X9547040Y33666083D01*
X9664285Y33518156D01*
X9667972Y33515018D01*
X9667974Y33515016D01*
X9804342Y33398958D01*
X9804347Y33398955D01*
X9808030Y33395820D01*
X9812253Y33393460D01*
X9812257Y33393457D01*
X9929397Y33327990D01*
X9972800Y33303733D01*
X10058685Y33275828D01*
X10147718Y33246899D01*
X10147721Y33246898D01*
X10152317Y33245405D01*
X10157113Y33244833D01*
X10157118Y33244832D01*
X10246031Y33234230D01*
X10339745Y33223055D01*
X10344567Y33223426D01*
X10344570Y33223426D01*
X10406278Y33228174D01*
X10527945Y33237536D01*
X10709748Y33288297D01*
X10878229Y33373402D01*
X11026970Y33489612D01*
X11030132Y33493275D01*
X11030137Y33493280D01*
X11126608Y33605044D01*
X11150307Y33632499D01*
X11169386Y33666083D01*
X11241153Y33792416D01*
X11241154Y33792419D01*
X11243542Y33796622D01*
X11257515Y33838624D01*
X11301596Y33971137D01*
X11301596Y33971139D01*
X11303123Y33975728D01*
X11305325Y33993154D01*
X11326432Y34160242D01*
X11326780Y34162995D01*
X11327157Y34190000D01*
X11325833Y34203504D01*
X14392937Y34203504D01*
X14393342Y34198684D01*
X14407759Y34027000D01*
X14408732Y34015410D01*
X14410065Y34010762D01*
X14410065Y34010761D01*
X14451325Y33866871D01*
X14460760Y33833966D01*
X14462975Y33829656D01*
X14544827Y33670388D01*
X14544830Y33670384D01*
X14547040Y33666083D01*
X14664285Y33518156D01*
X14667972Y33515018D01*
X14667974Y33515016D01*
X14804342Y33398958D01*
X14804347Y33398955D01*
X14808030Y33395820D01*
X14812253Y33393460D01*
X14812257Y33393457D01*
X14929397Y33327990D01*
X14972800Y33303733D01*
X15058685Y33275828D01*
X15147718Y33246899D01*
X15147721Y33246898D01*
X15152317Y33245405D01*
X15157113Y33244833D01*
X15157118Y33244832D01*
X15246031Y33234230D01*
X15339745Y33223055D01*
X15344567Y33223426D01*
X15344570Y33223426D01*
X15406278Y33228174D01*
X15527945Y33237536D01*
X15709748Y33288297D01*
X15878229Y33373402D01*
X16026970Y33489612D01*
X16030132Y33493275D01*
X16030137Y33493280D01*
X16126608Y33605044D01*
X16150307Y33632499D01*
X16169386Y33666083D01*
X16241153Y33792416D01*
X16241154Y33792419D01*
X16243542Y33796622D01*
X16257515Y33838624D01*
X16301596Y33971137D01*
X16301596Y33971139D01*
X16303123Y33975728D01*
X16305325Y33993154D01*
X16326432Y34160242D01*
X16326780Y34162995D01*
X16327157Y34190000D01*
X16308738Y34377855D01*
X16254181Y34558555D01*
X16165566Y34725217D01*
X16046266Y34871492D01*
X16041972Y34875044D01*
X15904554Y34988726D01*
X15904553Y34988727D01*
X15900827Y34991809D01*
X15734788Y35081586D01*
X15554474Y35137403D01*
X15542524Y35138659D01*
X15371568Y35156627D01*
X15371566Y35156627D01*
X15366752Y35157133D01*
X15311883Y35152140D01*
X15183592Y35140465D01*
X15183588Y35140464D01*
X15178773Y35140026D01*
X15116038Y35121562D01*
X15002344Y35088100D01*
X15002341Y35088099D01*
X14997697Y35086732D01*
X14959769Y35066904D01*
X14834717Y35001529D01*
X14834713Y35001526D01*
X14830420Y34999282D01*
X14826644Y34996246D01*
X14826641Y34996244D01*
X14693557Y34889241D01*
X14683316Y34881007D01*
X14680207Y34877302D01*
X14680204Y34877299D01*
X14568361Y34744010D01*
X14561986Y34736412D01*
X14559650Y34732164D01*
X14559650Y34732163D01*
X14526927Y34672640D01*
X14471052Y34571004D01*
X14413978Y34391083D01*
X14392937Y34203504D01*
X11325833Y34203504D01*
X11308738Y34377855D01*
X11254181Y34558555D01*
X11165566Y34725217D01*
X11046266Y34871492D01*
X11041972Y34875044D01*
X10904554Y34988726D01*
X10904553Y34988727D01*
X10900827Y34991809D01*
X10734788Y35081586D01*
X10554474Y35137403D01*
X10542524Y35138659D01*
X10371568Y35156627D01*
X10371566Y35156627D01*
X10366752Y35157133D01*
X10311883Y35152140D01*
X10183592Y35140465D01*
X10183588Y35140464D01*
X10178773Y35140026D01*
X10116038Y35121562D01*
X10002344Y35088100D01*
X10002341Y35088099D01*
X9997697Y35086732D01*
X9959769Y35066904D01*
X9834717Y35001529D01*
X9834713Y35001526D01*
X9830420Y34999282D01*
X9826644Y34996246D01*
X9826641Y34996244D01*
X9693557Y34889241D01*
X9683316Y34881007D01*
X9680207Y34877302D01*
X9680204Y34877299D01*
X9568361Y34744010D01*
X9561986Y34736412D01*
X9559650Y34732164D01*
X9559650Y34732163D01*
X9526927Y34672640D01*
X9471052Y34571004D01*
X9413978Y34391083D01*
X9392937Y34203504D01*
X454500Y34203504D01*
X454500Y36068000D01*
X28604318Y36068000D01*
X28624956Y35911238D01*
X28685464Y35765159D01*
X28781718Y35639718D01*
X28907159Y35543464D01*
X29053238Y35482956D01*
X29210000Y35462318D01*
X29366762Y35482956D01*
X29512841Y35543464D01*
X29638282Y35639718D01*
X29734536Y35765159D01*
X29795044Y35911238D01*
X29815682Y36068000D01*
X29795044Y36224762D01*
X29792051Y36231989D01*
X29770895Y36283063D01*
X29734536Y36370841D01*
X29638282Y36496282D01*
X29512841Y36592536D01*
X29366762Y36653044D01*
X29210000Y36673682D01*
X29053238Y36653044D01*
X28907159Y36592536D01*
X28781718Y36496282D01*
X28685464Y36370841D01*
X28649105Y36283063D01*
X28627950Y36231989D01*
X28624956Y36224762D01*
X28604318Y36068000D01*
X454500Y36068000D01*
X454500Y36830000D01*
X31906318Y36830000D01*
X31926956Y36673238D01*
X31987464Y36527159D01*
X32083718Y36401718D01*
X32209159Y36305464D01*
X32355238Y36244956D01*
X32512000Y36224318D01*
X32668762Y36244956D01*
X32814841Y36305464D01*
X32940282Y36401718D01*
X33036536Y36527159D01*
X33084658Y36643335D01*
X40954994Y36643335D01*
X40958120Y36606106D01*
X40969948Y36465259D01*
X40970592Y36457586D01*
X40971925Y36452938D01*
X40971925Y36452937D01*
X41009714Y36321152D01*
X41021971Y36278405D01*
X41107176Y36112615D01*
X41222959Y35966532D01*
X41226646Y35963394D01*
X41226648Y35963392D01*
X41361224Y35848859D01*
X41361229Y35848856D01*
X41364912Y35845721D01*
X41369134Y35843361D01*
X41369139Y35843358D01*
X41441603Y35802860D01*
X41527627Y35754783D01*
X41532225Y35753289D01*
X41700302Y35698677D01*
X41700304Y35698676D01*
X41704907Y35697181D01*
X41889998Y35675110D01*
X41894820Y35675481D01*
X41894823Y35675481D01*
X42071023Y35689039D01*
X42071028Y35689040D01*
X42075851Y35689411D01*
X42255387Y35739538D01*
X42259700Y35741717D01*
X42259706Y35741719D01*
X42417447Y35821400D01*
X42417449Y35821402D01*
X42421768Y35823583D01*
X42568655Y35938344D01*
X42690454Y36079450D01*
X42760515Y36202779D01*
X42780137Y36237320D01*
X42780138Y36237323D01*
X42782526Y36241526D01*
X42784494Y36247440D01*
X42839837Y36413808D01*
X42839837Y36413810D01*
X42841364Y36418399D01*
X42847358Y36465841D01*
X42863363Y36592536D01*
X42864727Y36603332D01*
X42865099Y36630000D01*
X42846909Y36815513D01*
X42793033Y36993960D01*
X42705522Y37158544D01*
X42587710Y37302995D01*
X42583981Y37306080D01*
X42447812Y37418730D01*
X42447810Y37418731D01*
X42444085Y37421813D01*
X42308424Y37495165D01*
X42284370Y37508171D01*
X42284369Y37508171D01*
X42280116Y37510471D01*
X42102049Y37565591D01*
X42097239Y37566097D01*
X42097237Y37566097D01*
X41921484Y37584570D01*
X41921482Y37584570D01*
X41916668Y37585076D01*
X41854673Y37579434D01*
X41735852Y37568621D01*
X41735848Y37568620D01*
X41731032Y37568182D01*
X41726390Y37566816D01*
X41726386Y37566815D01*
X41556861Y37516920D01*
X41556858Y37516919D01*
X41552214Y37515552D01*
X41387023Y37429193D01*
X41383247Y37426157D01*
X41383244Y37426155D01*
X41289254Y37350585D01*
X41241752Y37312392D01*
X41238644Y37308688D01*
X41125044Y37173305D01*
X41125041Y37173301D01*
X41121935Y37169599D01*
X41032135Y37006254D01*
X41030672Y37001641D01*
X41030670Y37001637D01*
X40989638Y36872288D01*
X40975772Y36828576D01*
X40975232Y36823764D01*
X40975232Y36823763D01*
X40960199Y36689735D01*
X40954994Y36643335D01*
X33084658Y36643335D01*
X33097044Y36673238D01*
X33117682Y36830000D01*
X33097044Y36986762D01*
X33094063Y36993960D01*
X33056767Y37084000D01*
X33036536Y37132841D01*
X32940282Y37258282D01*
X32814841Y37354536D01*
X32668762Y37415044D01*
X32512000Y37435682D01*
X32355238Y37415044D01*
X32209159Y37354536D01*
X32083718Y37258282D01*
X31987464Y37132841D01*
X31967233Y37084000D01*
X31929938Y36993960D01*
X31926956Y36986762D01*
X31906318Y36830000D01*
X454500Y36830000D01*
X454500Y37865500D01*
X45114318Y37865500D01*
X45134956Y37708738D01*
X45195464Y37562659D01*
X45291718Y37437218D01*
X45417159Y37340964D01*
X45563238Y37280456D01*
X45720000Y37259818D01*
X45876762Y37280456D01*
X46022841Y37340964D01*
X46148282Y37437218D01*
X46244536Y37562659D01*
X46305044Y37708738D01*
X46325682Y37865500D01*
X46305044Y38022262D01*
X46244536Y38168341D01*
X46232396Y38184163D01*
X46211971Y38241837D01*
X46229348Y38300503D01*
X46266083Y38330252D01*
X46265226Y38331736D01*
X46270846Y38334981D01*
X46276841Y38337464D01*
X46298391Y38354000D01*
X50702318Y38354000D01*
X50722956Y38197238D01*
X50783464Y38051159D01*
X50879718Y37925718D01*
X51005159Y37829464D01*
X51151238Y37768956D01*
X51308000Y37748318D01*
X51464762Y37768956D01*
X51610841Y37829464D01*
X51736282Y37925718D01*
X51832536Y38051159D01*
X51893044Y38197238D01*
X51913681Y38353989D01*
X52226318Y38353989D01*
X52246956Y38197227D01*
X52307464Y38051148D01*
X52403718Y37925707D01*
X52529159Y37829453D01*
X52619554Y37792010D01*
X52669215Y37771440D01*
X52675238Y37768945D01*
X52806431Y37751673D01*
X52825483Y37749165D01*
X52832000Y37748307D01*
X52838518Y37749165D01*
X52857569Y37751673D01*
X52988762Y37768945D01*
X52994786Y37771440D01*
X53044446Y37792010D01*
X53134841Y37829453D01*
X53260282Y37925707D01*
X53356536Y38051148D01*
X53376771Y38100000D01*
X77118318Y38100000D01*
X77138956Y37943238D01*
X77199464Y37797159D01*
X77295718Y37671718D01*
X77421159Y37575464D01*
X77567238Y37514956D01*
X77689280Y37498889D01*
X77717566Y37495165D01*
X77724000Y37494318D01*
X77724029Y37494322D01*
X77779625Y37476258D01*
X77791438Y37466169D01*
X81163169Y34094438D01*
X81190946Y34039921D01*
X81191722Y34030066D01*
X81191318Y34027000D01*
X81211956Y33870238D01*
X81272464Y33724159D01*
X81368718Y33598718D01*
X81494159Y33502464D01*
X81640238Y33441956D01*
X81797000Y33421318D01*
X81953762Y33441956D01*
X82099841Y33502464D01*
X82225282Y33598718D01*
X82321536Y33724159D01*
X82382044Y33870238D01*
X82402682Y34027000D01*
X82382044Y34183762D01*
X82321536Y34329841D01*
X82225282Y34455282D01*
X82099841Y34551536D01*
X81953762Y34612044D01*
X81797000Y34632682D01*
X81796971Y34632678D01*
X81741375Y34650742D01*
X81729562Y34660831D01*
X80576393Y35814000D01*
X83751818Y35814000D01*
X83772456Y35657238D01*
X83832964Y35511159D01*
X83929218Y35385718D01*
X84054659Y35289464D01*
X84200738Y35228956D01*
X84357500Y35208318D01*
X84514262Y35228956D01*
X84660341Y35289464D01*
X84785782Y35385718D01*
X84882036Y35511159D01*
X84942544Y35657238D01*
X84963182Y35814000D01*
X84942544Y35970762D01*
X84882036Y36116841D01*
X84785782Y36242282D01*
X84682996Y36321153D01*
X84648340Y36371576D01*
X84649941Y36432741D01*
X84687189Y36481282D01*
X84726116Y36496226D01*
X84726061Y36496430D01*
X84727998Y36496949D01*
X84730336Y36497847D01*
X84738762Y36498956D01*
X84884841Y36559464D01*
X85010282Y36655718D01*
X85106536Y36781159D01*
X85167044Y36927238D01*
X85187682Y37084000D01*
X85167044Y37240762D01*
X85106536Y37386841D01*
X85010282Y37512282D01*
X84884841Y37608536D01*
X84738762Y37669044D01*
X84661909Y37679162D01*
X84626072Y37683880D01*
X84570847Y37710221D01*
X84541652Y37763992D01*
X84549638Y37824654D01*
X84591755Y37869036D01*
X84601109Y37873497D01*
X84666080Y37900408D01*
X84666086Y37900411D01*
X84672077Y37902893D01*
X84797518Y37999147D01*
X84893772Y38124588D01*
X84954280Y38270667D01*
X84974918Y38427429D01*
X84954280Y38584191D01*
X84893772Y38730270D01*
X84797518Y38855711D01*
X84672077Y38951965D01*
X84525998Y39012473D01*
X84369236Y39033111D01*
X84212474Y39012473D01*
X84066395Y38951965D01*
X83940954Y38855711D01*
X83844700Y38730270D01*
X83784192Y38584191D01*
X83763554Y38427429D01*
X83784192Y38270667D01*
X83844700Y38124588D01*
X83940954Y37999147D01*
X84066395Y37902893D01*
X84212474Y37842385D01*
X84280692Y37833404D01*
X84325164Y37827549D01*
X84380389Y37801208D01*
X84409584Y37747437D01*
X84401598Y37686775D01*
X84359481Y37642393D01*
X84350127Y37637932D01*
X84285156Y37611021D01*
X84285153Y37611019D01*
X84279159Y37608536D01*
X84153718Y37512282D01*
X84057464Y37386841D01*
X83996956Y37240762D01*
X83976318Y37084000D01*
X83996956Y36927238D01*
X84057464Y36781159D01*
X84153718Y36655718D01*
X84225576Y36600580D01*
X84256504Y36576848D01*
X84291160Y36526424D01*
X84289559Y36465259D01*
X84252311Y36416718D01*
X84213384Y36401774D01*
X84213439Y36401570D01*
X84211502Y36401051D01*
X84209164Y36400153D01*
X84200738Y36399044D01*
X84054659Y36338536D01*
X83929218Y36242282D01*
X83832964Y36116841D01*
X83772456Y35970762D01*
X83751818Y35814000D01*
X80576393Y35814000D01*
X79094976Y37295417D01*
X81139735Y37295417D01*
X81160373Y37138655D01*
X81220881Y36992576D01*
X81317135Y36867135D01*
X81442576Y36770881D01*
X81588655Y36710373D01*
X81745417Y36689735D01*
X81902179Y36710373D01*
X82048258Y36770881D01*
X82173699Y36867135D01*
X82269953Y36992576D01*
X82330461Y37138655D01*
X82351099Y37295417D01*
X82330461Y37452179D01*
X82269953Y37598258D01*
X82173699Y37723699D01*
X82048258Y37819953D01*
X81902179Y37880461D01*
X81745417Y37901099D01*
X81588655Y37880461D01*
X81442576Y37819953D01*
X81317135Y37723699D01*
X81220881Y37598258D01*
X81160373Y37452179D01*
X81139735Y37295417D01*
X79094976Y37295417D01*
X78357831Y38032562D01*
X78330054Y38087079D01*
X78329278Y38096934D01*
X78329682Y38100000D01*
X78309044Y38256762D01*
X78248536Y38402841D01*
X78152282Y38528282D01*
X78026841Y38624536D01*
X77880762Y38685044D01*
X77724000Y38705682D01*
X77567238Y38685044D01*
X77421159Y38624536D01*
X77295718Y38528282D01*
X77199464Y38402841D01*
X77138956Y38256762D01*
X77118318Y38100000D01*
X53376771Y38100000D01*
X53417044Y38197227D01*
X53437682Y38353989D01*
X53417044Y38510751D01*
X53356536Y38656830D01*
X53260282Y38782271D01*
X53134841Y38878525D01*
X52988762Y38939033D01*
X52832000Y38959671D01*
X52675238Y38939033D01*
X52529159Y38878525D01*
X52403718Y38782271D01*
X52307464Y38656830D01*
X52246956Y38510751D01*
X52226318Y38353989D01*
X51913681Y38353989D01*
X51913682Y38354000D01*
X51893044Y38510762D01*
X51832536Y38656841D01*
X51736282Y38782282D01*
X51610841Y38878536D01*
X51493046Y38927329D01*
X51470759Y38936560D01*
X51464762Y38939044D01*
X51333569Y38956316D01*
X51314434Y38958835D01*
X51308000Y38959682D01*
X51301566Y38958835D01*
X51282431Y38956316D01*
X51151238Y38939044D01*
X51145241Y38936560D01*
X51122954Y38927329D01*
X51005159Y38878536D01*
X50879718Y38782282D01*
X50783464Y38656841D01*
X50722956Y38510762D01*
X50702318Y38354000D01*
X46298391Y38354000D01*
X46402282Y38433718D01*
X46498536Y38559159D01*
X46559044Y38705238D01*
X46579682Y38862000D01*
X46559044Y39018762D01*
X46504838Y39149627D01*
X46500037Y39210623D01*
X46532006Y39262792D01*
X46583380Y39285665D01*
X46638762Y39292956D01*
X46784841Y39353464D01*
X46910282Y39449718D01*
X47006536Y39575159D01*
X47067044Y39721238D01*
X47087682Y39878000D01*
X47067044Y40034762D01*
X47006536Y40180841D01*
X46910282Y40306282D01*
X46784841Y40402536D01*
X46638762Y40463044D01*
X46482000Y40483682D01*
X46325238Y40463044D01*
X46179159Y40402536D01*
X46053718Y40306282D01*
X45957464Y40180841D01*
X45896956Y40034762D01*
X45876318Y39878000D01*
X45896956Y39721238D01*
X45899440Y39715241D01*
X45951162Y39590374D01*
X45955963Y39529377D01*
X45923994Y39477208D01*
X45872620Y39454335D01*
X45817238Y39447044D01*
X45671159Y39386536D01*
X45545718Y39290282D01*
X45449464Y39164841D01*
X45388956Y39018762D01*
X45368318Y38862000D01*
X45388956Y38705238D01*
X45449464Y38559159D01*
X45453415Y38554010D01*
X45461604Y38543338D01*
X45482029Y38485663D01*
X45464652Y38426997D01*
X45427917Y38397248D01*
X45428774Y38395764D01*
X45423154Y38392519D01*
X45417159Y38390036D01*
X45291718Y38293782D01*
X45195464Y38168341D01*
X45134956Y38022262D01*
X45114318Y37865500D01*
X454500Y37865500D01*
X454500Y40894000D01*
X65434318Y40894000D01*
X65454956Y40737238D01*
X65515464Y40591159D01*
X65611718Y40465718D01*
X65737159Y40369464D01*
X65883238Y40308956D01*
X66040000Y40288318D01*
X66196762Y40308956D01*
X66342841Y40369464D01*
X66468282Y40465718D01*
X66564536Y40591159D01*
X66625044Y40737238D01*
X66629228Y40769020D01*
X77880318Y40769020D01*
X77900956Y40612258D01*
X77903440Y40606261D01*
X77911828Y40586010D01*
X77961464Y40466179D01*
X78057718Y40340738D01*
X78183159Y40244484D01*
X78329238Y40183976D01*
X78486000Y40163338D01*
X78642762Y40183976D01*
X78788841Y40244484D01*
X78914282Y40340738D01*
X79010536Y40466179D01*
X79060172Y40586010D01*
X79068560Y40606261D01*
X79071044Y40612258D01*
X79091682Y40769020D01*
X79071044Y40925782D01*
X79010536Y41071861D01*
X78914282Y41197302D01*
X78788841Y41293556D01*
X78642762Y41354064D01*
X78486000Y41374702D01*
X78329238Y41354064D01*
X78183159Y41293556D01*
X78057718Y41197302D01*
X77961464Y41071861D01*
X77900956Y40925782D01*
X77880318Y40769020D01*
X66629228Y40769020D01*
X66645682Y40894000D01*
X66625044Y41050762D01*
X66616305Y41071861D01*
X66567019Y41190846D01*
X66564536Y41196841D01*
X66468282Y41322282D01*
X66342841Y41418536D01*
X66196762Y41479044D01*
X66040000Y41499682D01*
X65883238Y41479044D01*
X65737159Y41418536D01*
X65611718Y41322282D01*
X65515464Y41196841D01*
X65512981Y41190846D01*
X65463696Y41071861D01*
X65454956Y41050762D01*
X65434318Y40894000D01*
X454500Y40894000D01*
X454500Y41910000D01*
X87748818Y41910000D01*
X87769456Y41753238D01*
X87829964Y41607159D01*
X87926218Y41481718D01*
X88051659Y41385464D01*
X88197738Y41324956D01*
X88354500Y41304318D01*
X88511262Y41324956D01*
X88657341Y41385464D01*
X88782782Y41481718D01*
X88879036Y41607159D01*
X88939544Y41753238D01*
X88960182Y41910000D01*
X88939544Y42066762D01*
X88879036Y42212841D01*
X88782782Y42338282D01*
X88657341Y42434536D01*
X88511262Y42495044D01*
X88354500Y42515682D01*
X88197738Y42495044D01*
X88051659Y42434536D01*
X87926218Y42338282D01*
X87829964Y42212841D01*
X87769456Y42066762D01*
X87748818Y41910000D01*
X454500Y41910000D01*
X454500Y42926000D01*
X49940318Y42926000D01*
X49960956Y42769238D01*
X50021464Y42623159D01*
X50117718Y42497718D01*
X50243159Y42401464D01*
X50389238Y42340956D01*
X50546000Y42320318D01*
X50702762Y42340956D01*
X50848841Y42401464D01*
X50974282Y42497718D01*
X51070536Y42623159D01*
X51131044Y42769238D01*
X51151682Y42926000D01*
X51131044Y43082762D01*
X51088460Y43185569D01*
X51443609Y43185569D01*
X51464247Y43028807D01*
X51524755Y42882728D01*
X51621009Y42757287D01*
X51746450Y42661033D01*
X51892529Y42600525D01*
X52049291Y42579887D01*
X52206053Y42600525D01*
X52248266Y42618010D01*
X52346135Y42658549D01*
X52352132Y42661033D01*
X52354913Y42663167D01*
X52413529Y42675626D01*
X52469424Y42650739D01*
X52488086Y42627694D01*
X52489964Y42623159D01*
X52586218Y42497718D01*
X52711659Y42401464D01*
X52857738Y42340956D01*
X53014500Y42320318D01*
X53171262Y42340956D01*
X53317341Y42401464D01*
X53442782Y42497718D01*
X53539036Y42623159D01*
X53599544Y42769238D01*
X53620182Y42926000D01*
X53599544Y43082762D01*
X53539036Y43228841D01*
X53442782Y43354282D01*
X53317341Y43450536D01*
X53171262Y43511044D01*
X53014500Y43531682D01*
X52857738Y43511044D01*
X52851741Y43508560D01*
X52803095Y43488410D01*
X52711659Y43450536D01*
X52708878Y43448402D01*
X52650262Y43435943D01*
X52594367Y43460830D01*
X52575705Y43483875D01*
X52573827Y43488410D01*
X52477573Y43613851D01*
X52352132Y43710105D01*
X52206053Y43770613D01*
X52049291Y43791251D01*
X51892529Y43770613D01*
X51746450Y43710105D01*
X51621009Y43613851D01*
X51524755Y43488410D01*
X51464247Y43342331D01*
X51443609Y43185569D01*
X51088460Y43185569D01*
X51070536Y43228841D01*
X50974282Y43354282D01*
X50848841Y43450536D01*
X50702762Y43511044D01*
X50546000Y43531682D01*
X50389238Y43511044D01*
X50243159Y43450536D01*
X50117718Y43354282D01*
X50021464Y43228841D01*
X49960956Y43082762D01*
X49940318Y42926000D01*
X454500Y42926000D01*
X454500Y44450000D01*
X49686318Y44450000D01*
X49706956Y44293238D01*
X49767464Y44147159D01*
X49863718Y44021718D01*
X49989159Y43925464D01*
X50135238Y43864956D01*
X50292000Y43844318D01*
X50448762Y43864956D01*
X50594841Y43925464D01*
X50720282Y44021718D01*
X50816536Y44147159D01*
X50838681Y44200622D01*
X55832854Y44200622D01*
X55853492Y44043860D01*
X55914000Y43897781D01*
X56010254Y43772340D01*
X56135695Y43676086D01*
X56281774Y43615578D01*
X56438536Y43594940D01*
X56595298Y43615578D01*
X56652228Y43639159D01*
X56735380Y43673602D01*
X56741377Y43676086D01*
X56744553Y43678523D01*
X56803375Y43691026D01*
X56859270Y43666139D01*
X56877732Y43643341D01*
X56879464Y43639159D01*
X56975718Y43513718D01*
X57101159Y43417464D01*
X57247238Y43356956D01*
X57404000Y43336318D01*
X57560762Y43356956D01*
X57706841Y43417464D01*
X57728391Y43434000D01*
X70260318Y43434000D01*
X70280956Y43277238D01*
X70341464Y43131159D01*
X70437718Y43005718D01*
X70563159Y42909464D01*
X70709238Y42848956D01*
X70866000Y42828318D01*
X71022762Y42848956D01*
X71168841Y42909464D01*
X71294282Y43005718D01*
X71390536Y43131159D01*
X71410767Y43180000D01*
X88548318Y43180000D01*
X88568956Y43023238D01*
X88629464Y42877159D01*
X88725718Y42751718D01*
X88851159Y42655464D01*
X88997238Y42594956D01*
X89154000Y42574318D01*
X89310762Y42594956D01*
X89456841Y42655464D01*
X89582282Y42751718D01*
X89678536Y42877159D01*
X89739044Y43023238D01*
X89759682Y43180000D01*
X89739044Y43336762D01*
X89678536Y43482841D01*
X89582282Y43608282D01*
X89456841Y43704536D01*
X89310762Y43765044D01*
X89154000Y43785682D01*
X88997238Y43765044D01*
X88851159Y43704536D01*
X88725718Y43608282D01*
X88629464Y43482841D01*
X88568956Y43336762D01*
X88548318Y43180000D01*
X71410767Y43180000D01*
X71451044Y43277238D01*
X71471682Y43434000D01*
X71451044Y43590762D01*
X71390536Y43736841D01*
X71294282Y43862282D01*
X71168841Y43958536D01*
X71022762Y44019044D01*
X70866000Y44039682D01*
X70709238Y44019044D01*
X70563159Y43958536D01*
X70437718Y43862282D01*
X70341464Y43736841D01*
X70280956Y43590762D01*
X70260318Y43434000D01*
X57728391Y43434000D01*
X57832282Y43513718D01*
X57928536Y43639159D01*
X57989044Y43785238D01*
X58009682Y43942000D01*
X57989044Y44098762D01*
X57928536Y44244841D01*
X57832282Y44370282D01*
X57706841Y44466536D01*
X57560762Y44527044D01*
X57404000Y44547682D01*
X57247238Y44527044D01*
X57241241Y44524560D01*
X57183283Y44500553D01*
X57101159Y44466536D01*
X57097983Y44464099D01*
X57039161Y44451596D01*
X56983266Y44476483D01*
X56964804Y44499281D01*
X56963072Y44503463D01*
X56866818Y44628904D01*
X56741377Y44725158D01*
X56595298Y44785666D01*
X56438536Y44806304D01*
X56281774Y44785666D01*
X56135695Y44725158D01*
X56010254Y44628904D01*
X55914000Y44503463D01*
X55853492Y44357384D01*
X55832854Y44200622D01*
X50838681Y44200622D01*
X50877044Y44293238D01*
X50897682Y44450000D01*
X50877044Y44606762D01*
X50816536Y44752841D01*
X50720282Y44878282D01*
X50642127Y44938252D01*
X58219500Y44938252D01*
X58231133Y44879769D01*
X58275448Y44813448D01*
X58341769Y44769133D01*
X58351332Y44767231D01*
X58351334Y44767230D01*
X58374005Y44762721D01*
X58400252Y44757500D01*
X59963748Y44757500D01*
X59989995Y44762721D01*
X60012666Y44767230D01*
X60012668Y44767231D01*
X60022231Y44769133D01*
X60088552Y44813448D01*
X60132867Y44879769D01*
X60144500Y44938252D01*
X60759500Y44938252D01*
X60771133Y44879769D01*
X60815448Y44813448D01*
X60881769Y44769133D01*
X60891332Y44767231D01*
X60891334Y44767230D01*
X60914005Y44762721D01*
X60940252Y44757500D01*
X62503748Y44757500D01*
X62529995Y44762721D01*
X62552666Y44767230D01*
X62552668Y44767231D01*
X62562231Y44769133D01*
X62628552Y44813448D01*
X62672867Y44879769D01*
X62684500Y44938252D01*
X62684500Y46228000D01*
X63656318Y46228000D01*
X63676956Y46071238D01*
X63737464Y45925159D01*
X63833718Y45799718D01*
X63959159Y45703464D01*
X64105238Y45642956D01*
X64262000Y45622318D01*
X64418762Y45642956D01*
X64564841Y45703464D01*
X64690282Y45799718D01*
X64786536Y45925159D01*
X64847044Y46071238D01*
X64867682Y46228000D01*
X64847044Y46384762D01*
X64786536Y46530841D01*
X64690282Y46656282D01*
X64564841Y46752536D01*
X64418762Y46813044D01*
X64262000Y46833682D01*
X64105238Y46813044D01*
X63959159Y46752536D01*
X63833718Y46656282D01*
X63737464Y46530841D01*
X63676956Y46384762D01*
X63656318Y46228000D01*
X62684500Y46228000D01*
X62684500Y46501748D01*
X62672867Y46560231D01*
X62628552Y46626552D01*
X62562231Y46670867D01*
X62552668Y46672769D01*
X62552666Y46672770D01*
X62529995Y46677279D01*
X62503748Y46682500D01*
X60940252Y46682500D01*
X60914005Y46677279D01*
X60891334Y46672770D01*
X60891332Y46672769D01*
X60881769Y46670867D01*
X60815448Y46626552D01*
X60771133Y46560231D01*
X60759500Y46501748D01*
X60759500Y44938252D01*
X60144500Y44938252D01*
X60144500Y46501748D01*
X60132867Y46560231D01*
X60088552Y46626552D01*
X60022231Y46670867D01*
X60012668Y46672769D01*
X60012666Y46672770D01*
X59989995Y46677279D01*
X59963748Y46682500D01*
X58400252Y46682500D01*
X58374005Y46677279D01*
X58351334Y46672770D01*
X58351332Y46672769D01*
X58341769Y46670867D01*
X58275448Y46626552D01*
X58231133Y46560231D01*
X58219500Y46501748D01*
X58219500Y44938252D01*
X50642127Y44938252D01*
X50594841Y44974536D01*
X50448762Y45035044D01*
X50292000Y45055682D01*
X50135238Y45035044D01*
X49989159Y44974536D01*
X49863718Y44878282D01*
X49767464Y44752841D01*
X49706956Y44606762D01*
X49686318Y44450000D01*
X454500Y44450000D01*
X454500Y46990000D01*
X66704318Y46990000D01*
X66724956Y46833238D01*
X66785464Y46687159D01*
X66881718Y46561718D01*
X67007159Y46465464D01*
X67153238Y46404956D01*
X67310000Y46384318D01*
X67466762Y46404956D01*
X67612841Y46465464D01*
X67738282Y46561718D01*
X67834536Y46687159D01*
X67895044Y46833238D01*
X67915682Y46990000D01*
X67895044Y47146762D01*
X67834536Y47292841D01*
X67738282Y47418282D01*
X67612841Y47514536D01*
X67466762Y47575044D01*
X67310000Y47595682D01*
X67153238Y47575044D01*
X67007159Y47514536D01*
X66881718Y47418282D01*
X66785464Y47292841D01*
X66724956Y47146762D01*
X66704318Y46990000D01*
X454500Y46990000D01*
X454500Y50246500D01*
X473407Y50304691D01*
X522907Y50340655D01*
X553500Y50345500D01*
X90886500Y50345500D01*
X90944691Y50326593D01*
G37*
%TD.AperFunction*%
%TD*%
M02*
