%TF.GenerationSoftware,KiCad,Pcbnew,6.0.4-6f826c9f35~116~ubuntu20.04.1*%
%TF.CreationDate,2022-05-11T12:13:54+00:00*%
%TF.ProjectId,USTSIPIN02A,55535453-4950-4494-9e30-32412e6b6963,REV*%
%TF.SameCoordinates,Original*%
%TF.FileFunction,Legend,Top*%
%TF.FilePolarity,Positive*%
%FSLAX46Y46*%
G04 Gerber Fmt 4.6, Leading zero omitted, Abs format (unit mm)*
G04 Created by KiCad (PCBNEW 6.0.4-6f826c9f35~116~ubuntu20.04.1) date 2022-05-11 12:13:54*
%MOMM*%
%LPD*%
G01*
G04 APERTURE LIST*
%ADD10C,0.300000*%
%ADD11C,0.150000*%
%ADD12C,0.100000*%
%ADD13C,0.120000*%
G04 APERTURE END LIST*
D10*
X75911809Y30399904D02*
X75478476Y31018952D01*
X75168952Y30399904D02*
X75168952Y31699904D01*
X75664190Y31699904D01*
X75788000Y31638000D01*
X75849904Y31576095D01*
X75911809Y31452285D01*
X75911809Y31266571D01*
X75849904Y31142761D01*
X75788000Y31080857D01*
X75664190Y31018952D01*
X75168952Y31018952D01*
X76407047Y30461809D02*
X76592761Y30399904D01*
X76902285Y30399904D01*
X77026095Y30461809D01*
X77088000Y30523714D01*
X77149904Y30647523D01*
X77149904Y30771333D01*
X77088000Y30895142D01*
X77026095Y30957047D01*
X76902285Y31018952D01*
X76654666Y31080857D01*
X76530857Y31142761D01*
X76468952Y31204666D01*
X76407047Y31328476D01*
X76407047Y31452285D01*
X76468952Y31576095D01*
X76530857Y31638000D01*
X76654666Y31699904D01*
X76964190Y31699904D01*
X77149904Y31638000D01*
X77521333Y31699904D02*
X78264190Y31699904D01*
X77892761Y30399904D02*
X77892761Y31699904D01*
X78635619Y31266571D02*
X79564190Y31266571D01*
X79007047Y31823714D02*
X78635619Y30152285D01*
X79440380Y30709428D02*
X78511809Y30709428D01*
X79068952Y30152285D02*
X79440380Y31823714D01*
X53839904Y46082809D02*
X54025619Y46020904D01*
X54335142Y46020904D01*
X54458952Y46082809D01*
X54520857Y46144714D01*
X54582761Y46268523D01*
X54582761Y46392333D01*
X54520857Y46516142D01*
X54458952Y46578047D01*
X54335142Y46639952D01*
X54087523Y46701857D01*
X53963714Y46763761D01*
X53901809Y46825666D01*
X53839904Y46949476D01*
X53839904Y47073285D01*
X53901809Y47197095D01*
X53963714Y47259000D01*
X54087523Y47320904D01*
X54397047Y47320904D01*
X54582761Y47259000D01*
X55139904Y46020904D02*
X55139904Y47320904D01*
X55635142Y47320904D01*
X55758952Y47259000D01*
X55820857Y47197095D01*
X55882761Y47073285D01*
X55882761Y46887571D01*
X55820857Y46763761D01*
X55758952Y46701857D01*
X55635142Y46639952D01*
X55139904Y46639952D01*
X56378000Y46392333D02*
X56997047Y46392333D01*
X56254190Y46020904D02*
X56687523Y47320904D01*
X57120857Y46020904D01*
X58297047Y46144714D02*
X58235142Y46082809D01*
X58049428Y46020904D01*
X57925619Y46020904D01*
X57739904Y46082809D01*
X57616095Y46206619D01*
X57554190Y46330428D01*
X57492285Y46578047D01*
X57492285Y46763761D01*
X57554190Y47011380D01*
X57616095Y47135190D01*
X57739904Y47259000D01*
X57925619Y47320904D01*
X58049428Y47320904D01*
X58235142Y47259000D01*
X58297047Y47197095D01*
X58854190Y46701857D02*
X59287523Y46701857D01*
X59473238Y46020904D02*
X58854190Y46020904D01*
X58854190Y47320904D01*
X59473238Y47320904D01*
X60030380Y46020904D02*
X60030380Y47320904D01*
X60339904Y47320904D01*
X60525619Y47259000D01*
X60649428Y47135190D01*
X60711333Y47011380D01*
X60773238Y46763761D01*
X60773238Y46578047D01*
X60711333Y46330428D01*
X60649428Y46206619D01*
X60525619Y46082809D01*
X60339904Y46020904D01*
X60030380Y46020904D01*
X61578000Y47320904D02*
X61825619Y47320904D01*
X61949428Y47259000D01*
X62073238Y47135190D01*
X62135142Y46887571D01*
X62135142Y46454238D01*
X62073238Y46206619D01*
X61949428Y46082809D01*
X61825619Y46020904D01*
X61578000Y46020904D01*
X61454190Y46082809D01*
X61330380Y46206619D01*
X61268476Y46454238D01*
X61268476Y46887571D01*
X61330380Y47135190D01*
X61454190Y47259000D01*
X61578000Y47320904D01*
X62630380Y46082809D02*
X62816095Y46020904D01*
X63125619Y46020904D01*
X63249428Y46082809D01*
X63311333Y46144714D01*
X63373238Y46268523D01*
X63373238Y46392333D01*
X63311333Y46516142D01*
X63249428Y46578047D01*
X63125619Y46639952D01*
X62878000Y46701857D01*
X62754190Y46763761D01*
X62692285Y46825666D01*
X62630380Y46949476D01*
X62630380Y47073285D01*
X62692285Y47197095D01*
X62754190Y47259000D01*
X62878000Y47320904D01*
X63187523Y47320904D01*
X63373238Y47259000D01*
X64178000Y47320904D02*
X64301809Y47320904D01*
X64425619Y47259000D01*
X64487523Y47197095D01*
X64549428Y47073285D01*
X64611333Y46825666D01*
X64611333Y46516142D01*
X64549428Y46268523D01*
X64487523Y46144714D01*
X64425619Y46082809D01*
X64301809Y46020904D01*
X64178000Y46020904D01*
X64054190Y46082809D01*
X63992285Y46144714D01*
X63930380Y46268523D01*
X63868476Y46516142D01*
X63868476Y46825666D01*
X63930380Y47073285D01*
X63992285Y47197095D01*
X64054190Y47259000D01*
X64178000Y47320904D01*
X65849428Y46020904D02*
X65106571Y46020904D01*
X65478000Y46020904D02*
X65478000Y47320904D01*
X65354190Y47135190D01*
X65230380Y47011380D01*
X65106571Y46949476D01*
X66344666Y46392333D02*
X66963714Y46392333D01*
X66220857Y46020904D02*
X66654190Y47320904D01*
X67087523Y46020904D01*
X67211333Y45897095D02*
X68201809Y45897095D01*
X68511333Y46020904D02*
X68511333Y47320904D01*
X69006571Y47320904D01*
X69130380Y47259000D01*
X69192285Y47197095D01*
X69254190Y47073285D01*
X69254190Y46887571D01*
X69192285Y46763761D01*
X69130380Y46701857D01*
X69006571Y46639952D01*
X68511333Y46639952D01*
X70554190Y46144714D02*
X70492285Y46082809D01*
X70306571Y46020904D01*
X70182761Y46020904D01*
X69997047Y46082809D01*
X69873238Y46206619D01*
X69811333Y46330428D01*
X69749428Y46578047D01*
X69749428Y46763761D01*
X69811333Y47011380D01*
X69873238Y47135190D01*
X69997047Y47259000D01*
X70182761Y47320904D01*
X70306571Y47320904D01*
X70492285Y47259000D01*
X70554190Y47197095D01*
X71544666Y46701857D02*
X71730380Y46639952D01*
X71792285Y46578047D01*
X71854190Y46454238D01*
X71854190Y46268523D01*
X71792285Y46144714D01*
X71730380Y46082809D01*
X71606571Y46020904D01*
X71111333Y46020904D01*
X71111333Y47320904D01*
X71544666Y47320904D01*
X71668476Y47259000D01*
X71730380Y47197095D01*
X71792285Y47073285D01*
X71792285Y46949476D01*
X71730380Y46825666D01*
X71668476Y46763761D01*
X71544666Y46701857D01*
X71111333Y46701857D01*
X72658952Y47320904D02*
X72782761Y47320904D01*
X72906571Y47259000D01*
X72968476Y47197095D01*
X73030380Y47073285D01*
X73092285Y46825666D01*
X73092285Y46516142D01*
X73030380Y46268523D01*
X72968476Y46144714D01*
X72906571Y46082809D01*
X72782761Y46020904D01*
X72658952Y46020904D01*
X72535142Y46082809D01*
X72473238Y46144714D01*
X72411333Y46268523D01*
X72349428Y46516142D01*
X72349428Y46825666D01*
X72411333Y47073285D01*
X72473238Y47197095D01*
X72535142Y47259000D01*
X72658952Y47320904D01*
X74330380Y46020904D02*
X73587523Y46020904D01*
X73958952Y46020904D02*
X73958952Y47320904D01*
X73835142Y47135190D01*
X73711333Y47011380D01*
X73587523Y46949476D01*
X75320857Y46701857D02*
X75506571Y46639952D01*
X75568476Y46578047D01*
X75630380Y46454238D01*
X75630380Y46268523D01*
X75568476Y46144714D01*
X75506571Y46082809D01*
X75382761Y46020904D01*
X74887523Y46020904D01*
X74887523Y47320904D01*
X75320857Y47320904D01*
X75444666Y47259000D01*
X75506571Y47197095D01*
X75568476Y47073285D01*
X75568476Y46949476D01*
X75506571Y46825666D01*
X75444666Y46763761D01*
X75320857Y46701857D01*
X74887523Y46701857D01*
X76472142Y34493904D02*
X77215000Y34493904D01*
X76843571Y33193904D02*
X76843571Y34493904D01*
X77524523Y34493904D02*
X78391190Y33193904D01*
X78391190Y34493904D02*
X77524523Y33193904D01*
X79134047Y34493904D02*
X79257857Y34493904D01*
X79381666Y34432000D01*
X79443571Y34370095D01*
X79505476Y34246285D01*
X79567380Y33998666D01*
X79567380Y33689142D01*
X79505476Y33441523D01*
X79443571Y33317714D01*
X79381666Y33255809D01*
X79257857Y33193904D01*
X79134047Y33193904D01*
X79010238Y33255809D01*
X78948333Y33317714D01*
X78886428Y33441523D01*
X78824523Y33689142D01*
X78824523Y33998666D01*
X78886428Y34246285D01*
X78948333Y34370095D01*
X79010238Y34432000D01*
X79134047Y34493904D01*
X77883190Y24333904D02*
X77264142Y24333904D01*
X77202238Y23714857D01*
X77264142Y23776761D01*
X77387952Y23838666D01*
X77697476Y23838666D01*
X77821285Y23776761D01*
X77883190Y23714857D01*
X77945095Y23591047D01*
X77945095Y23281523D01*
X77883190Y23157714D01*
X77821285Y23095809D01*
X77697476Y23033904D01*
X77387952Y23033904D01*
X77264142Y23095809D01*
X77202238Y23157714D01*
X78316523Y24333904D02*
X78749857Y23033904D01*
X79183190Y24333904D01*
X73027190Y33193904D02*
X72593857Y33812952D01*
X72284333Y33193904D02*
X72284333Y34493904D01*
X72779571Y34493904D01*
X72903380Y34432000D01*
X72965285Y34370095D01*
X73027190Y34246285D01*
X73027190Y34060571D01*
X72965285Y33936761D01*
X72903380Y33874857D01*
X72779571Y33812952D01*
X72284333Y33812952D01*
X73460523Y34493904D02*
X74327190Y33193904D01*
X74327190Y34493904D02*
X73460523Y33193904D01*
X75070047Y34493904D02*
X75193857Y34493904D01*
X75317666Y34432000D01*
X75379571Y34370095D01*
X75441476Y34246285D01*
X75503380Y33998666D01*
X75503380Y33689142D01*
X75441476Y33441523D01*
X75379571Y33317714D01*
X75317666Y33255809D01*
X75193857Y33193904D01*
X75070047Y33193904D01*
X74946238Y33255809D01*
X74884333Y33317714D01*
X74822428Y33441523D01*
X74760523Y33689142D01*
X74760523Y33998666D01*
X74822428Y34246285D01*
X74884333Y34370095D01*
X74946238Y34432000D01*
X75070047Y34493904D01*
X75902238Y26492904D02*
X76707000Y26492904D01*
X76273666Y25997666D01*
X76459380Y25997666D01*
X76583190Y25935761D01*
X76645095Y25873857D01*
X76707000Y25750047D01*
X76707000Y25440523D01*
X76645095Y25316714D01*
X76583190Y25254809D01*
X76459380Y25192904D01*
X76087952Y25192904D01*
X75964142Y25254809D01*
X75902238Y25316714D01*
X77078428Y26492904D02*
X77511761Y25192904D01*
X77945095Y26492904D01*
X78254619Y26492904D02*
X79059380Y26492904D01*
X78626047Y25997666D01*
X78811761Y25997666D01*
X78935571Y25935761D01*
X78997476Y25873857D01*
X79059380Y25750047D01*
X79059380Y25440523D01*
X78997476Y25316714D01*
X78935571Y25254809D01*
X78811761Y25192904D01*
X78440333Y25192904D01*
X78316523Y25254809D01*
X78254619Y25316714D01*
X76335571Y29098000D02*
X76211761Y29159904D01*
X76026047Y29159904D01*
X75840333Y29098000D01*
X75716523Y28974190D01*
X75654619Y28850380D01*
X75592714Y28602761D01*
X75592714Y28417047D01*
X75654619Y28169428D01*
X75716523Y28045619D01*
X75840333Y27921809D01*
X76026047Y27859904D01*
X76149857Y27859904D01*
X76335571Y27921809D01*
X76397476Y27983714D01*
X76397476Y28417047D01*
X76149857Y28417047D01*
X76954619Y27859904D02*
X76954619Y29159904D01*
X77697476Y27859904D01*
X77697476Y29159904D01*
X78316523Y27859904D02*
X78316523Y29159904D01*
X78626047Y29159904D01*
X78811761Y29098000D01*
X78935571Y28974190D01*
X78997476Y28850380D01*
X79059380Y28602761D01*
X79059380Y28417047D01*
X78997476Y28169428D01*
X78935571Y28045619D01*
X78811761Y27921809D01*
X78626047Y27859904D01*
X78316523Y27859904D01*
X72349428Y35352904D02*
X72349428Y36652904D01*
X72844666Y36652904D01*
X72968476Y36591000D01*
X73030380Y36529095D01*
X73092285Y36405285D01*
X73092285Y36219571D01*
X73030380Y36095761D01*
X72968476Y36033857D01*
X72844666Y35971952D01*
X72349428Y35971952D01*
X74392285Y35476714D02*
X74330380Y35414809D01*
X74144666Y35352904D01*
X74020857Y35352904D01*
X73835142Y35414809D01*
X73711333Y35538619D01*
X73649428Y35662428D01*
X73587523Y35910047D01*
X73587523Y36095761D01*
X73649428Y36343380D01*
X73711333Y36467190D01*
X73835142Y36591000D01*
X74020857Y36652904D01*
X74144666Y36652904D01*
X74330380Y36591000D01*
X74392285Y36529095D01*
X74825619Y36652904D02*
X75692285Y36652904D01*
X75135142Y35352904D01*
X76413428Y35352904D02*
X76413428Y36652904D01*
X76908666Y36652904D01*
X77032476Y36591000D01*
X77094380Y36529095D01*
X77156285Y36405285D01*
X77156285Y36219571D01*
X77094380Y36095761D01*
X77032476Y36033857D01*
X76908666Y35971952D01*
X76413428Y35971952D01*
X78456285Y35476714D02*
X78394380Y35414809D01*
X78208666Y35352904D01*
X78084857Y35352904D01*
X77899142Y35414809D01*
X77775333Y35538619D01*
X77713428Y35662428D01*
X77651523Y35910047D01*
X77651523Y36095761D01*
X77713428Y36343380D01*
X77775333Y36467190D01*
X77899142Y36591000D01*
X78084857Y36652904D01*
X78208666Y36652904D01*
X78394380Y36591000D01*
X78456285Y36529095D01*
X78889619Y36652904D02*
X79694380Y36652904D01*
X79261047Y36157666D01*
X79446761Y36157666D01*
X79570571Y36095761D01*
X79632476Y36033857D01*
X79694380Y35910047D01*
X79694380Y35600523D01*
X79632476Y35476714D01*
X79570571Y35414809D01*
X79446761Y35352904D01*
X79075333Y35352904D01*
X78951523Y35414809D01*
X78889619Y35476714D01*
X69818571Y4615571D02*
X69890000Y4687000D01*
X70032857Y4758428D01*
X70390000Y4758428D01*
X70532857Y4687000D01*
X70604285Y4615571D01*
X70675714Y4472714D01*
X70675714Y4329857D01*
X70604285Y4115571D01*
X69747142Y3258428D01*
X70675714Y3258428D01*
X71604285Y4758428D02*
X71747142Y4758428D01*
X71890000Y4687000D01*
X71961428Y4615571D01*
X72032857Y4472714D01*
X72104285Y4187000D01*
X72104285Y3829857D01*
X72032857Y3544142D01*
X71961428Y3401285D01*
X71890000Y3329857D01*
X71747142Y3258428D01*
X71604285Y3258428D01*
X71461428Y3329857D01*
X71390000Y3401285D01*
X71318571Y3544142D01*
X71247142Y3829857D01*
X71247142Y4187000D01*
X71318571Y4472714D01*
X71390000Y4615571D01*
X71461428Y4687000D01*
X71604285Y4758428D01*
X72675714Y4615571D02*
X72747142Y4687000D01*
X72890000Y4758428D01*
X73247142Y4758428D01*
X73390000Y4687000D01*
X73461428Y4615571D01*
X73532857Y4472714D01*
X73532857Y4329857D01*
X73461428Y4115571D01*
X72604285Y3258428D01*
X73532857Y3258428D01*
X74461428Y4758428D02*
X74604285Y4758428D01*
X74747142Y4687000D01*
X74818571Y4615571D01*
X74890000Y4472714D01*
X74961428Y4187000D01*
X74961428Y3829857D01*
X74890000Y3544142D01*
X74818571Y3401285D01*
X74747142Y3329857D01*
X74604285Y3258428D01*
X74461428Y3258428D01*
X74318571Y3329857D01*
X74247142Y3401285D01*
X74175714Y3544142D01*
X74104285Y3829857D01*
X74104285Y4187000D01*
X74175714Y4472714D01*
X74247142Y4615571D01*
X74318571Y4687000D01*
X74461428Y4758428D01*
X69513000Y7298428D02*
X69513000Y6227000D01*
X69441571Y6012714D01*
X69298714Y5869857D01*
X69084428Y5798428D01*
X68941571Y5798428D01*
X70155857Y6227000D02*
X70870142Y6227000D01*
X70013000Y5798428D02*
X70513000Y7298428D01*
X71013000Y5798428D01*
X72370142Y5941285D02*
X72298714Y5869857D01*
X72084428Y5798428D01*
X71941571Y5798428D01*
X71727285Y5869857D01*
X71584428Y6012714D01*
X71513000Y6155571D01*
X71441571Y6441285D01*
X71441571Y6655571D01*
X71513000Y6941285D01*
X71584428Y7084142D01*
X71727285Y7227000D01*
X71941571Y7298428D01*
X72084428Y7298428D01*
X72298714Y7227000D01*
X72370142Y7155571D01*
X73013000Y5798428D02*
X73013000Y7298428D01*
X73013000Y6584142D02*
X73870142Y6584142D01*
X73870142Y5798428D02*
X73870142Y7298428D01*
X74870142Y7298428D02*
X75155857Y7298428D01*
X75298714Y7227000D01*
X75441571Y7084142D01*
X75513000Y6798428D01*
X75513000Y6298428D01*
X75441571Y6012714D01*
X75298714Y5869857D01*
X75155857Y5798428D01*
X74870142Y5798428D01*
X74727285Y5869857D01*
X74584428Y6012714D01*
X74513000Y6298428D01*
X74513000Y6798428D01*
X74584428Y7084142D01*
X74727285Y7227000D01*
X74870142Y7298428D01*
D11*
%TO.C,D2*%
X12121904Y28617619D02*
X12121904Y29617619D01*
X12360000Y29617619D01*
X12502857Y29570000D01*
X12598095Y29474761D01*
X12645714Y29379523D01*
X12693333Y29189047D01*
X12693333Y29046190D01*
X12645714Y28855714D01*
X12598095Y28760476D01*
X12502857Y28665238D01*
X12360000Y28617619D01*
X12121904Y28617619D01*
X13074285Y29522380D02*
X13121904Y29570000D01*
X13217142Y29617619D01*
X13455238Y29617619D01*
X13550476Y29570000D01*
X13598095Y29522380D01*
X13645714Y29427142D01*
X13645714Y29331904D01*
X13598095Y29189047D01*
X13026666Y28617619D01*
X13645714Y28617619D01*
X16408095Y32427619D02*
X16408095Y33427619D01*
X16979523Y32427619D02*
X16550952Y32999047D01*
X16979523Y33427619D02*
X16408095Y32856190D01*
%TO.C,Y1*%
X52255809Y38092809D02*
X52255809Y37616619D01*
X51922476Y38616619D02*
X52255809Y38092809D01*
X52589142Y38616619D01*
X53446285Y37616619D02*
X52874857Y37616619D01*
X53160571Y37616619D02*
X53160571Y38616619D01*
X53065333Y38473761D01*
X52970095Y38378523D01*
X52874857Y38330904D01*
%TO.C,Q2*%
X116947961Y9777180D02*
X116852723Y9824800D01*
X116757485Y9920038D01*
X116614628Y10062895D01*
X116519390Y10110514D01*
X116424152Y10110514D01*
X116471771Y9872419D02*
X116376533Y9920038D01*
X116281295Y10015276D01*
X116233676Y10205752D01*
X116233676Y10539085D01*
X116281295Y10729561D01*
X116376533Y10824800D01*
X116471771Y10872419D01*
X116662247Y10872419D01*
X116757485Y10824800D01*
X116852723Y10729561D01*
X116900342Y10539085D01*
X116900342Y10205752D01*
X116852723Y10015276D01*
X116757485Y9920038D01*
X116662247Y9872419D01*
X116471771Y9872419D01*
X117281295Y10777180D02*
X117328914Y10824800D01*
X117424152Y10872419D01*
X117662247Y10872419D01*
X117757485Y10824800D01*
X117805104Y10777180D01*
X117852723Y10681942D01*
X117852723Y10586704D01*
X117805104Y10443847D01*
X117233676Y9872419D01*
X117852723Y9872419D01*
%TO.C,M5*%
X31374380Y131904876D02*
X30374380Y131904876D01*
X31088666Y132238209D01*
X30374380Y132571542D01*
X31374380Y132571542D01*
X30374380Y133523923D02*
X30374380Y133047733D01*
X30850571Y133000114D01*
X30802952Y133047733D01*
X30755333Y133142971D01*
X30755333Y133381066D01*
X30802952Y133476304D01*
X30850571Y133523923D01*
X30945809Y133571542D01*
X31183904Y133571542D01*
X31279142Y133523923D01*
X31326761Y133476304D01*
X31374380Y133381066D01*
X31374380Y133142971D01*
X31326761Y133047733D01*
X31279142Y133000114D01*
%TO.C,R37*%
X115214142Y126612019D02*
X114880809Y127088209D01*
X114642714Y126612019D02*
X114642714Y127612019D01*
X115023666Y127612019D01*
X115118904Y127564400D01*
X115166523Y127516780D01*
X115214142Y127421542D01*
X115214142Y127278685D01*
X115166523Y127183447D01*
X115118904Y127135828D01*
X115023666Y127088209D01*
X114642714Y127088209D01*
X115547476Y127612019D02*
X116166523Y127612019D01*
X115833190Y127231066D01*
X115976047Y127231066D01*
X116071285Y127183447D01*
X116118904Y127135828D01*
X116166523Y127040590D01*
X116166523Y126802495D01*
X116118904Y126707257D01*
X116071285Y126659638D01*
X115976047Y126612019D01*
X115690333Y126612019D01*
X115595095Y126659638D01*
X115547476Y126707257D01*
X116499857Y127612019D02*
X117166523Y127612019D01*
X116737952Y126612019D01*
%TO.C,R42*%
X111070342Y5422419D02*
X110737009Y5898609D01*
X110498914Y5422419D02*
X110498914Y6422419D01*
X110879866Y6422419D01*
X110975104Y6374800D01*
X111022723Y6327180D01*
X111070342Y6231942D01*
X111070342Y6089085D01*
X111022723Y5993847D01*
X110975104Y5946228D01*
X110879866Y5898609D01*
X110498914Y5898609D01*
X111927485Y6089085D02*
X111927485Y5422419D01*
X111689390Y6470038D02*
X111451295Y5755752D01*
X112070342Y5755752D01*
X112403676Y6327180D02*
X112451295Y6374800D01*
X112546533Y6422419D01*
X112784628Y6422419D01*
X112879866Y6374800D01*
X112927485Y6327180D01*
X112975104Y6231942D01*
X112975104Y6136704D01*
X112927485Y5993847D01*
X112356057Y5422419D01*
X112975104Y5422419D01*
%TO.C,R44*%
X119090342Y5422419D02*
X118757009Y5898609D01*
X118518914Y5422419D02*
X118518914Y6422419D01*
X118899866Y6422419D01*
X118995104Y6374800D01*
X119042723Y6327180D01*
X119090342Y6231942D01*
X119090342Y6089085D01*
X119042723Y5993847D01*
X118995104Y5946228D01*
X118899866Y5898609D01*
X118518914Y5898609D01*
X119947485Y6089085D02*
X119947485Y5422419D01*
X119709390Y6470038D02*
X119471295Y5755752D01*
X120090342Y5755752D01*
X120899866Y6089085D02*
X120899866Y5422419D01*
X120661771Y6470038D02*
X120423676Y5755752D01*
X121042723Y5755752D01*
%TO.C,R34*%
X115214142Y129122019D02*
X114880809Y129598209D01*
X114642714Y129122019D02*
X114642714Y130122019D01*
X115023666Y130122019D01*
X115118904Y130074400D01*
X115166523Y130026780D01*
X115214142Y129931542D01*
X115214142Y129788685D01*
X115166523Y129693447D01*
X115118904Y129645828D01*
X115023666Y129598209D01*
X114642714Y129598209D01*
X115547476Y130122019D02*
X116166523Y130122019D01*
X115833190Y129741066D01*
X115976047Y129741066D01*
X116071285Y129693447D01*
X116118904Y129645828D01*
X116166523Y129550590D01*
X116166523Y129312495D01*
X116118904Y129217257D01*
X116071285Y129169638D01*
X115976047Y129122019D01*
X115690333Y129122019D01*
X115595095Y129169638D01*
X115547476Y129217257D01*
X117023666Y129788685D02*
X117023666Y129122019D01*
X116785571Y130169638D02*
X116547476Y129455352D01*
X117166523Y129455352D01*
%TO.C,M6*%
X-14675619Y131904876D02*
X-15675619Y131904876D01*
X-14961333Y132238209D01*
X-15675619Y132571542D01*
X-14675619Y132571542D01*
X-15675619Y133476304D02*
X-15675619Y133285828D01*
X-15628000Y133190590D01*
X-15580380Y133142971D01*
X-15437523Y133047733D01*
X-15247047Y133000114D01*
X-14866095Y133000114D01*
X-14770857Y133047733D01*
X-14723238Y133095352D01*
X-14675619Y133190590D01*
X-14675619Y133381066D01*
X-14723238Y133476304D01*
X-14770857Y133523923D01*
X-14866095Y133571542D01*
X-15104190Y133571542D01*
X-15199428Y133523923D01*
X-15247047Y133476304D01*
X-15294666Y133381066D01*
X-15294666Y133190590D01*
X-15247047Y133095352D01*
X-15199428Y133047733D01*
X-15104190Y133000114D01*
%TO.C,R43*%
X115080342Y5422419D02*
X114747009Y5898609D01*
X114508914Y5422419D02*
X114508914Y6422419D01*
X114889866Y6422419D01*
X114985104Y6374800D01*
X115032723Y6327180D01*
X115080342Y6231942D01*
X115080342Y6089085D01*
X115032723Y5993847D01*
X114985104Y5946228D01*
X114889866Y5898609D01*
X114508914Y5898609D01*
X115937485Y6089085D02*
X115937485Y5422419D01*
X115699390Y6470038D02*
X115461295Y5755752D01*
X116080342Y5755752D01*
X116366057Y6422419D02*
X116985104Y6422419D01*
X116651771Y6041466D01*
X116794628Y6041466D01*
X116889866Y5993847D01*
X116937485Y5946228D01*
X116985104Y5850990D01*
X116985104Y5612895D01*
X116937485Y5517657D01*
X116889866Y5470038D01*
X116794628Y5422419D01*
X116508914Y5422419D01*
X116413676Y5470038D01*
X116366057Y5517657D01*
%TO.C,JP1*%
X125201466Y126096419D02*
X125201466Y125382133D01*
X125153847Y125239276D01*
X125058609Y125144038D01*
X124915752Y125096419D01*
X124820514Y125096419D01*
X125677657Y125096419D02*
X125677657Y126096419D01*
X126058609Y126096419D01*
X126153847Y126048800D01*
X126201466Y126001180D01*
X126249085Y125905942D01*
X126249085Y125763085D01*
X126201466Y125667847D01*
X126153847Y125620228D01*
X126058609Y125572609D01*
X125677657Y125572609D01*
X127201466Y125096419D02*
X126630038Y125096419D01*
X126915752Y125096419D02*
X126915752Y126096419D01*
X126820514Y125953561D01*
X126725276Y125858323D01*
X126630038Y125810704D01*
%TO.C,C60*%
X133113542Y17176457D02*
X133065923Y17128838D01*
X132923066Y17081219D01*
X132827828Y17081219D01*
X132684971Y17128838D01*
X132589733Y17224076D01*
X132542114Y17319314D01*
X132494495Y17509790D01*
X132494495Y17652647D01*
X132542114Y17843123D01*
X132589733Y17938361D01*
X132684971Y18033600D01*
X132827828Y18081219D01*
X132923066Y18081219D01*
X133065923Y18033600D01*
X133113542Y17985980D01*
X133970685Y18081219D02*
X133780209Y18081219D01*
X133684971Y18033600D01*
X133637352Y17985980D01*
X133542114Y17843123D01*
X133494495Y17652647D01*
X133494495Y17271695D01*
X133542114Y17176457D01*
X133589733Y17128838D01*
X133684971Y17081219D01*
X133875447Y17081219D01*
X133970685Y17128838D01*
X134018304Y17176457D01*
X134065923Y17271695D01*
X134065923Y17509790D01*
X134018304Y17605028D01*
X133970685Y17652647D01*
X133875447Y17700266D01*
X133684971Y17700266D01*
X133589733Y17652647D01*
X133542114Y17605028D01*
X133494495Y17509790D01*
X134684971Y18081219D02*
X134780209Y18081219D01*
X134875447Y18033600D01*
X134923066Y17985980D01*
X134970685Y17890742D01*
X135018304Y17700266D01*
X135018304Y17462171D01*
X134970685Y17271695D01*
X134923066Y17176457D01*
X134875447Y17128838D01*
X134780209Y17081219D01*
X134684971Y17081219D01*
X134589733Y17128838D01*
X134542114Y17176457D01*
X134494495Y17271695D01*
X134446876Y17462171D01*
X134446876Y17700266D01*
X134494495Y17890742D01*
X134542114Y17985980D01*
X134589733Y18033600D01*
X134684971Y18081219D01*
%TO.C,Q3*%
X112057961Y9777180D02*
X111962723Y9824800D01*
X111867485Y9920038D01*
X111724628Y10062895D01*
X111629390Y10110514D01*
X111534152Y10110514D01*
X111581771Y9872419D02*
X111486533Y9920038D01*
X111391295Y10015276D01*
X111343676Y10205752D01*
X111343676Y10539085D01*
X111391295Y10729561D01*
X111486533Y10824800D01*
X111581771Y10872419D01*
X111772247Y10872419D01*
X111867485Y10824800D01*
X111962723Y10729561D01*
X112010342Y10539085D01*
X112010342Y10205752D01*
X111962723Y10015276D01*
X111867485Y9920038D01*
X111772247Y9872419D01*
X111581771Y9872419D01*
X112343676Y10872419D02*
X112962723Y10872419D01*
X112629390Y10491466D01*
X112772247Y10491466D01*
X112867485Y10443847D01*
X112915104Y10396228D01*
X112962723Y10300990D01*
X112962723Y10062895D01*
X112915104Y9967657D01*
X112867485Y9920038D01*
X112772247Y9872419D01*
X112486533Y9872419D01*
X112391295Y9920038D01*
X112343676Y9967657D01*
%TO.C,R45*%
X137123542Y17081219D02*
X136790209Y17557409D01*
X136552114Y17081219D02*
X136552114Y18081219D01*
X136933066Y18081219D01*
X137028304Y18033600D01*
X137075923Y17985980D01*
X137123542Y17890742D01*
X137123542Y17747885D01*
X137075923Y17652647D01*
X137028304Y17605028D01*
X136933066Y17557409D01*
X136552114Y17557409D01*
X137980685Y17747885D02*
X137980685Y17081219D01*
X137742590Y18128838D02*
X137504495Y17414552D01*
X138123542Y17414552D01*
X138980685Y18081219D02*
X138504495Y18081219D01*
X138456876Y17605028D01*
X138504495Y17652647D01*
X138599733Y17700266D01*
X138837828Y17700266D01*
X138933066Y17652647D01*
X138980685Y17605028D01*
X139028304Y17509790D01*
X139028304Y17271695D01*
X138980685Y17176457D01*
X138933066Y17128838D01*
X138837828Y17081219D01*
X138599733Y17081219D01*
X138504495Y17128838D01*
X138456876Y17176457D01*
%TO.C,R36*%
X125394142Y133112019D02*
X125060809Y133588209D01*
X124822714Y133112019D02*
X124822714Y134112019D01*
X125203666Y134112019D01*
X125298904Y134064400D01*
X125346523Y134016780D01*
X125394142Y133921542D01*
X125394142Y133778685D01*
X125346523Y133683447D01*
X125298904Y133635828D01*
X125203666Y133588209D01*
X124822714Y133588209D01*
X125727476Y134112019D02*
X126346523Y134112019D01*
X126013190Y133731066D01*
X126156047Y133731066D01*
X126251285Y133683447D01*
X126298904Y133635828D01*
X126346523Y133540590D01*
X126346523Y133302495D01*
X126298904Y133207257D01*
X126251285Y133159638D01*
X126156047Y133112019D01*
X125870333Y133112019D01*
X125775095Y133159638D01*
X125727476Y133207257D01*
X127203666Y134112019D02*
X127013190Y134112019D01*
X126917952Y134064400D01*
X126870333Y134016780D01*
X126775095Y133873923D01*
X126727476Y133683447D01*
X126727476Y133302495D01*
X126775095Y133207257D01*
X126822714Y133159638D01*
X126917952Y133112019D01*
X127108428Y133112019D01*
X127203666Y133159638D01*
X127251285Y133207257D01*
X127298904Y133302495D01*
X127298904Y133540590D01*
X127251285Y133635828D01*
X127203666Y133683447D01*
X127108428Y133731066D01*
X126917952Y133731066D01*
X126822714Y133683447D01*
X126775095Y133635828D01*
X126727476Y133540590D01*
%TO.C,Q4*%
X121837961Y9777180D02*
X121742723Y9824800D01*
X121647485Y9920038D01*
X121504628Y10062895D01*
X121409390Y10110514D01*
X121314152Y10110514D01*
X121361771Y9872419D02*
X121266533Y9920038D01*
X121171295Y10015276D01*
X121123676Y10205752D01*
X121123676Y10539085D01*
X121171295Y10729561D01*
X121266533Y10824800D01*
X121361771Y10872419D01*
X121552247Y10872419D01*
X121647485Y10824800D01*
X121742723Y10729561D01*
X121790342Y10539085D01*
X121790342Y10205752D01*
X121742723Y10015276D01*
X121647485Y9920038D01*
X121552247Y9872419D01*
X121361771Y9872419D01*
X122647485Y10539085D02*
X122647485Y9872419D01*
X122409390Y10920038D02*
X122171295Y10205752D01*
X122790342Y10205752D01*
%TO.C,R32*%
X119224142Y129122019D02*
X118890809Y129598209D01*
X118652714Y129122019D02*
X118652714Y130122019D01*
X119033666Y130122019D01*
X119128904Y130074400D01*
X119176523Y130026780D01*
X119224142Y129931542D01*
X119224142Y129788685D01*
X119176523Y129693447D01*
X119128904Y129645828D01*
X119033666Y129598209D01*
X118652714Y129598209D01*
X119557476Y130122019D02*
X120176523Y130122019D01*
X119843190Y129741066D01*
X119986047Y129741066D01*
X120081285Y129693447D01*
X120128904Y129645828D01*
X120176523Y129550590D01*
X120176523Y129312495D01*
X120128904Y129217257D01*
X120081285Y129169638D01*
X119986047Y129122019D01*
X119700333Y129122019D01*
X119605095Y129169638D01*
X119557476Y129217257D01*
X120557476Y130026780D02*
X120605095Y130074400D01*
X120700333Y130122019D01*
X120938428Y130122019D01*
X121033666Y130074400D01*
X121081285Y130026780D01*
X121128904Y129931542D01*
X121128904Y129836304D01*
X121081285Y129693447D01*
X120509857Y129122019D01*
X121128904Y129122019D01*
%TO.C,J2*%
X74650780Y24317366D02*
X75365066Y24317366D01*
X75507923Y24269747D01*
X75603161Y24174509D01*
X75650780Y24031652D01*
X75650780Y23936414D01*
X74746019Y24745938D02*
X74698400Y24793557D01*
X74650780Y24888795D01*
X74650780Y25126890D01*
X74698400Y25222128D01*
X74746019Y25269747D01*
X74841257Y25317366D01*
X74936495Y25317366D01*
X75079352Y25269747D01*
X75650780Y24698319D01*
X75650780Y25317366D01*
%TO.C,M7*%
X-14675619Y99354876D02*
X-15675619Y99354876D01*
X-14961333Y99688209D01*
X-15675619Y100021542D01*
X-14675619Y100021542D01*
X-15675619Y100402495D02*
X-15675619Y101069161D01*
X-14675619Y100640590D01*
%TO.C,R38*%
X115214142Y98562019D02*
X114880809Y99038209D01*
X114642714Y98562019D02*
X114642714Y99562019D01*
X115023666Y99562019D01*
X115118904Y99514400D01*
X115166523Y99466780D01*
X115214142Y99371542D01*
X115214142Y99228685D01*
X115166523Y99133447D01*
X115118904Y99085828D01*
X115023666Y99038209D01*
X114642714Y99038209D01*
X115547476Y99562019D02*
X116166523Y99562019D01*
X115833190Y99181066D01*
X115976047Y99181066D01*
X116071285Y99133447D01*
X116118904Y99085828D01*
X116166523Y98990590D01*
X116166523Y98752495D01*
X116118904Y98657257D01*
X116071285Y98609638D01*
X115976047Y98562019D01*
X115690333Y98562019D01*
X115595095Y98609638D01*
X115547476Y98657257D01*
X116737952Y99133447D02*
X116642714Y99181066D01*
X116595095Y99228685D01*
X116547476Y99323923D01*
X116547476Y99371542D01*
X116595095Y99466780D01*
X116642714Y99514400D01*
X116737952Y99562019D01*
X116928428Y99562019D01*
X117023666Y99514400D01*
X117071285Y99466780D01*
X117118904Y99371542D01*
X117118904Y99323923D01*
X117071285Y99228685D01*
X117023666Y99181066D01*
X116928428Y99133447D01*
X116737952Y99133447D01*
X116642714Y99085828D01*
X116595095Y99038209D01*
X116547476Y98942971D01*
X116547476Y98752495D01*
X116595095Y98657257D01*
X116642714Y98609638D01*
X116737952Y98562019D01*
X116928428Y98562019D01*
X117023666Y98609638D01*
X117071285Y98657257D01*
X117118904Y98752495D01*
X117118904Y98942971D01*
X117071285Y99038209D01*
X117023666Y99085828D01*
X116928428Y99133447D01*
%TO.C,R35*%
X121384142Y133112019D02*
X121050809Y133588209D01*
X120812714Y133112019D02*
X120812714Y134112019D01*
X121193666Y134112019D01*
X121288904Y134064400D01*
X121336523Y134016780D01*
X121384142Y133921542D01*
X121384142Y133778685D01*
X121336523Y133683447D01*
X121288904Y133635828D01*
X121193666Y133588209D01*
X120812714Y133588209D01*
X121717476Y134112019D02*
X122336523Y134112019D01*
X122003190Y133731066D01*
X122146047Y133731066D01*
X122241285Y133683447D01*
X122288904Y133635828D01*
X122336523Y133540590D01*
X122336523Y133302495D01*
X122288904Y133207257D01*
X122241285Y133159638D01*
X122146047Y133112019D01*
X121860333Y133112019D01*
X121765095Y133159638D01*
X121717476Y133207257D01*
X123241285Y134112019D02*
X122765095Y134112019D01*
X122717476Y133635828D01*
X122765095Y133683447D01*
X122860333Y133731066D01*
X123098428Y133731066D01*
X123193666Y133683447D01*
X123241285Y133635828D01*
X123288904Y133540590D01*
X123288904Y133302495D01*
X123241285Y133207257D01*
X123193666Y133159638D01*
X123098428Y133112019D01*
X122860333Y133112019D01*
X122765095Y133159638D01*
X122717476Y133207257D01*
%TO.C,R33*%
X127554142Y137102019D02*
X127220809Y137578209D01*
X126982714Y137102019D02*
X126982714Y138102019D01*
X127363666Y138102019D01*
X127458904Y138054400D01*
X127506523Y138006780D01*
X127554142Y137911542D01*
X127554142Y137768685D01*
X127506523Y137673447D01*
X127458904Y137625828D01*
X127363666Y137578209D01*
X126982714Y137578209D01*
X127887476Y138102019D02*
X128506523Y138102019D01*
X128173190Y137721066D01*
X128316047Y137721066D01*
X128411285Y137673447D01*
X128458904Y137625828D01*
X128506523Y137530590D01*
X128506523Y137292495D01*
X128458904Y137197257D01*
X128411285Y137149638D01*
X128316047Y137102019D01*
X128030333Y137102019D01*
X127935095Y137149638D01*
X127887476Y137197257D01*
X128839857Y138102019D02*
X129458904Y138102019D01*
X129125571Y137721066D01*
X129268428Y137721066D01*
X129363666Y137673447D01*
X129411285Y137625828D01*
X129458904Y137530590D01*
X129458904Y137292495D01*
X129411285Y137197257D01*
X129363666Y137149638D01*
X129268428Y137102019D01*
X128982714Y137102019D01*
X128887476Y137149638D01*
X128839857Y137197257D01*
D12*
%TO.C,D2*%
X19960000Y9690000D02*
X19960000Y36690000D01*
X19960000Y9690000D02*
X5760000Y9690000D01*
X5760000Y9690000D02*
X5760000Y36690000D01*
X19960000Y36690000D02*
X5760000Y36690000D01*
D13*
%TO.C,Y1*%
X49532000Y32019000D02*
X55932000Y32019000D01*
X49532000Y37069000D02*
X55932000Y37069000D01*
X55932000Y32019000D02*
G75*
G03*
X55932000Y37069000I0J2525000D01*
G01*
X49532000Y37069000D02*
G75*
G03*
X49532000Y32019000I0J-2525000D01*
G01*
%TO.C,Q2*%
X117043200Y9484800D02*
X115368200Y9484800D01*
X117043200Y6364800D02*
X116393200Y6364800D01*
X117043200Y9484800D02*
X117693200Y9484800D01*
X117043200Y6364800D02*
X117693200Y6364800D01*
%TO.C,R37*%
X115619742Y125111900D02*
X116094258Y125111900D01*
X115619742Y126156900D02*
X116094258Y126156900D01*
%TO.C,R42*%
X111475942Y3922300D02*
X111950458Y3922300D01*
X111475942Y4967300D02*
X111950458Y4967300D01*
%TO.C,R44*%
X119495942Y3922300D02*
X119970458Y3922300D01*
X119495942Y4967300D02*
X119970458Y4967300D01*
D11*
%TO.C,J6*%
X44798600Y46990000D02*
X47084600Y46990000D01*
X44671600Y44577000D02*
X44671600Y46863000D01*
D13*
%TO.C,R34*%
X115619742Y128666900D02*
X116094258Y128666900D01*
X115619742Y127621900D02*
X116094258Y127621900D01*
%TO.C,R43*%
X115485942Y3922300D02*
X115960458Y3922300D01*
X115485942Y4967300D02*
X115960458Y4967300D01*
%TO.C,JP1*%
X127434800Y124048800D02*
X127434800Y123448800D01*
X125334800Y124748800D02*
X126734800Y124748800D01*
X124634800Y123448800D02*
X124634800Y124048800D01*
X126734800Y122748800D02*
X125334800Y122748800D01*
X125334800Y124748800D02*
G75*
G03*
X124634800Y124048800I-1J-699999D01*
G01*
X127434800Y124048800D02*
G75*
G03*
X126734800Y124748800I-700000J0D01*
G01*
X126734800Y122748800D02*
G75*
G03*
X127434800Y123448800I0J700000D01*
G01*
X124634800Y123448800D02*
G75*
G03*
X125334800Y122748800I699999J-1D01*
G01*
D11*
%TO.C,J5*%
X48361600Y44577000D02*
X48361600Y46863000D01*
X48488600Y46990000D02*
X50774600Y46990000D01*
D13*
%TO.C,C60*%
X133615820Y15593600D02*
X133896980Y15593600D01*
X133615820Y16613600D02*
X133896980Y16613600D01*
%TO.C,Q3*%
X112153200Y6364800D02*
X112803200Y6364800D01*
X112153200Y6364800D02*
X111503200Y6364800D01*
X112153200Y9484800D02*
X112803200Y9484800D01*
X112153200Y9484800D02*
X110478200Y9484800D01*
%TO.C,R45*%
X137529142Y16626100D02*
X138003658Y16626100D01*
X137529142Y15581100D02*
X138003658Y15581100D01*
%TO.C,R36*%
X125799742Y132656900D02*
X126274258Y132656900D01*
X125799742Y131611900D02*
X126274258Y131611900D01*
%TO.C,Q4*%
X121933200Y6364800D02*
X122583200Y6364800D01*
X121933200Y6364800D02*
X121283200Y6364800D01*
X121933200Y9484800D02*
X122583200Y9484800D01*
X121933200Y9484800D02*
X120258200Y9484800D01*
%TO.C,R32*%
X119629742Y128666900D02*
X120104258Y128666900D01*
X119629742Y127621900D02*
X120104258Y127621900D01*
D11*
%TO.C,J2*%
X53467000Y29832300D02*
X53467000Y29210000D01*
X53467000Y22326600D02*
X53467000Y21615400D01*
X53467000Y32385000D02*
X53467000Y31762700D01*
X53441600Y34264600D02*
X53441600Y39624000D01*
X53479700Y24879300D02*
X53479700Y24168100D01*
X83870800Y39875000D02*
X83870800Y45350000D01*
X83045300Y39875000D02*
X83870800Y39875000D01*
X53467000Y22479000D02*
X53467000Y22326600D01*
X83870800Y45350000D02*
X88900000Y45350000D01*
X58915300Y39875000D02*
X77470000Y39875000D01*
X53467000Y17386300D02*
X53467000Y16649700D01*
X58877200Y10925000D02*
X83718400Y10925000D01*
X53467000Y19812000D02*
X53467000Y19151600D01*
X53467000Y27317700D02*
X53467000Y26670000D01*
X88900000Y45350000D02*
X88900000Y12400000D01*
X53479700Y13081000D02*
X53479700Y11696700D01*
D13*
%TO.C,R38*%
X115619742Y97061900D02*
X116094258Y97061900D01*
X115619742Y98106900D02*
X116094258Y98106900D01*
%TO.C,R35*%
X121789742Y132656900D02*
X122264258Y132656900D01*
X121789742Y131611900D02*
X122264258Y131611900D01*
%TO.C,R33*%
X127959742Y136646900D02*
X128434258Y136646900D01*
X127959742Y135601900D02*
X128434258Y135601900D01*
%TD*%
M02*
