M48
; DRILL file {KiCad 6.0.4-6f826c9f35~116~ubuntu20.04.1} date Tue May 24 17:31:53 2022
; FORMAT={-:-/ absolute / metric / decimal}
; #@! TF.CreationDate,2022-05-24T17:31:53+00:00
; #@! TF.GenerationSoftware,Kicad,Pcbnew,6.0.4-6f826c9f35~116~ubuntu20.04.1
; #@! TF.FileFunction,Plated,1,4,PTH
FMAT,2
METRIC
; #@! TA.AperFunction,Plated,PTH,ViaDrill
T1C0.400
; #@! TA.AperFunction,Plated,PTH,ComponentDrill
T2C0.600
; #@! TA.AperFunction,Plated,PTH,ComponentDrill
T3C0.762
; #@! TA.AperFunction,Plated,PTH,ComponentDrill
T4C0.800
; #@! TA.AperFunction,Plated,PTH,ComponentDrill
T5C0.889
; #@! TA.AperFunction,Plated,PTH,ComponentDrill
T6C3.000
%
G90
G05
T1
X101.312Y-96.457
X101.312Y-98.362
X101.312Y-100.267
X101.312Y-102.172
X101.312Y-103.442
X101.947Y-104.712
X102.582Y-93.917
X102.836Y-84.773
X102.836Y-86.043
X102.836Y-87.821
X102.836Y-89.853
X102.836Y-91.631
X103.217Y-105.982
X103.395Y-108.141
X103.758Y-97.479
X103.758Y-98.749
X103.852Y-111.697
X104.106Y-84.773
X104.106Y-86.043
X104.106Y-87.821
X104.106Y-89.853
X104.106Y-91.631
X105.376Y-89.853
X105.63Y-91.631
X105.63Y-111.697
X106.138Y-93.155
X106.138Y-105.093
X106.392Y-89.345
X106.646Y-91.631
X107.154Y-90.361
X107.154Y-111.697
X107.662Y-105.093
X108.076Y-102.305
X108.932Y-76.137
X108.932Y-78.677
X108.932Y-109.919
X109.092Y-94.196
X109.092Y-95.447
X109.092Y-96.717
X109.092Y-98.622
X109.272Y-88.497
X109.44Y-92.647
X109.44Y-102.432
X109.948Y-108.649
X110.202Y-110.681
X110.272Y-91.597
X110.997Y-102.432
X111.218Y-92.647
X111.472Y-76.137
X111.472Y-78.677
X111.472Y-116.777
X111.632Y-100.527
X111.726Y-108.141
X111.726Y-111.697
X111.98Y-91.631
X112.234Y-102.807
X112.488Y-93.155
X113.25Y-108.141
X113.504Y-104.839
X113.504Y-112.053
X113.758Y-103.315
X113.911Y-98.845
X114.012Y-76.137
X114.012Y-78.677
X114.012Y-116.777
X114.072Y-88.697
X115.022Y-85.997
X115.384Y-98.895
X116.044Y-90.615
X116.298Y-85.281
X116.552Y-76.137
X116.552Y-78.677
X116.552Y-116.777
X116.959Y-98.895
X117.06Y-94.476
X117.572Y-86.647
X117.822Y-85.535
X117.873Y-105.144
X117.924Y-107.023
X118.026Y-108.852
X118.229Y-94.425
X118.33Y-91.631
X118.686Y-98.845
X118.686Y-100.267
X119.092Y-76.137
X119.092Y-78.677
X119.092Y-116.777
X119.397Y-94.425
X119.6Y-85.535
X120.616Y-94.679
X120.972Y-107.147
X121.124Y-85.535
X121.124Y-91.885
X121.632Y-76.137
X121.632Y-78.677
X121.632Y-116.777
X121.632Y-119.317
X122.14Y-92.393
X122.14Y-108.344
X122.14Y-110.122
X122.172Y-106.847
X122.394Y-102.097
X122.902Y-85.535
X123.41Y-93.663
X123.472Y-102.097
X123.664Y-92.393
X123.664Y-94.933
X123.918Y-106.871
X124.172Y-76.137
X124.172Y-78.677
X124.172Y-104.331
X124.172Y-116.777
X124.172Y-119.317
X124.68Y-85.535
X125.138Y-93.968
X125.138Y-101.181
X125.188Y-92.393
X126.458Y-85.535
X126.458Y-113.475
X126.712Y-76.137
X126.712Y-78.677
X126.712Y-92.393
X126.712Y-97.473
X126.712Y-116.777
X126.712Y-119.317
X127.026Y-110.543
X127.22Y-95.949
X127.474Y-89.853
X127.728Y-85.535
X127.741Y-111.379
X127.982Y-88.329
X129.026Y-116.043
X129.122Y-106.097
X129.172Y-107.147
X129.252Y-76.137
X129.252Y-78.677
X129.252Y-119.317
X129.426Y-109.843
X129.964Y-89.142
X130.522Y-90.361
X131.284Y-84.773
X131.284Y-87.567
X131.538Y-90.869
X131.538Y-92.901
X131.538Y-94.933
X131.538Y-101.283
X131.538Y-103.569
X131.538Y-107.125
X131.792Y-76.137
X131.792Y-78.677
X131.792Y-119.317
X133.326Y-104.343
X134.0Y-106.8
X134.332Y-76.137
X134.332Y-78.677
X134.332Y-80.963
X134.332Y-119.317
X135.026Y-115.643
X135.348Y-98.997
X135.348Y-100.775
X135.348Y-102.807
X135.602Y-85.789
X135.602Y-90.107
X135.602Y-91.377
X135.602Y-92.647
X135.602Y-93.917
X135.602Y-95.187
X136.872Y-114.237
X136.872Y-119.317
X137.226Y-109.943
X137.38Y-84.011
X137.634Y-98.997
X137.888Y-95.695
X139.412Y-84.265
X139.412Y-114.237
X139.412Y-119.317
X140.626Y-109.943
X141.444Y-84.265
X141.444Y-100.267
X141.952Y-114.237
X141.952Y-119.317
X142.714Y-104.077
X142.968Y-81.725
X142.968Y-101.283
X143.222Y-99.759
X143.984Y-84.265
X144.026Y-109.743
X144.492Y-86.531
X144.492Y-111.697
X144.746Y-85.535
X144.746Y-104.077
X145.254Y-84.519
X145.762Y-101.791
X145.972Y-99.347
X146.016Y-95.441
X147.032Y-94.679
X147.032Y-110.427
X147.226Y-114.743
X147.286Y-96.457
X147.54Y-82.995
X147.54Y-107.887
X147.578Y-100.006
X147.872Y-98.447
X148.302Y-122.619
X148.81Y-96.457
X148.81Y-112.713
X149.064Y-79.947
X149.318Y-76.137
X149.318Y-77.915
X149.318Y-81.471
X149.318Y-109.665
X149.572Y-105.855
X150.08Y-86.043
X150.08Y-90.615
X150.822Y-81.211
X150.842Y-88.583
X150.842Y-112.967
X151.35Y-122.619
X151.604Y-75.629
X151.604Y-86.043
X151.787Y-81.471
X151.826Y-91.243
X151.858Y-111.697
X152.112Y-98.743
X152.126Y-114.743
X153.382Y-75.629
X153.382Y-112.967
X154.398Y-122.619
X155.16Y-75.629
X155.16Y-101.029
X155.172Y-88.297
X155.211Y-80.196
X155.668Y-90.615
X155.922Y-92.393
X155.922Y-96.711
X155.922Y-109.157
X155.922Y-110.427
X156.176Y-80.455
X156.214Y-88.329
X156.684Y-75.629
X157.026Y-114.743
X157.192Y-92.393
X157.213Y-88.329
X157.446Y-97.473
X157.446Y-122.619
X158.208Y-100.267
X158.208Y-109.665
X158.462Y-75.629
X158.716Y-95.187
X158.716Y-97.473
X158.97Y-107.125
X159.732Y-105.982
X159.986Y-108.903
X160.494Y-75.629
X160.748Y-122.619
X161.002Y-82.233
X162.272Y-82.233
X162.272Y-95.441
X162.272Y-96.457
X162.526Y-75.629
X162.526Y-110.427
X162.526Y-112.205
X162.78Y-92.393
X162.78Y-97.727
X163.034Y-78.169
X163.23Y-89.345
X163.796Y-105.855
X164.05Y-97.727
X164.126Y-112.543
X164.304Y-92.393
X164.304Y-122.619
X164.326Y-79.043
X164.426Y-117.543
X164.558Y-75.629
X164.812Y-83.503
X164.825Y-94.412
X164.826Y-116.143
X165.826Y-76.143
X165.828Y-90.107
X166.082Y-87.059
X166.844Y-75.629
X167.098Y-105.093
X167.352Y-90.107
X167.352Y-111.189
X167.86Y-105.855
X167.86Y-107.887
X168.026Y-112.243
X168.114Y-102.045
X168.114Y-122.619
X168.368Y-89.345
X168.876Y-75.629
X169.13Y-82.233
X169.384Y-93.663
X169.384Y-94.933
X169.384Y-96.457
X169.426Y-117.643
X169.472Y-103.797
X169.638Y-80.963
X170.146Y-77.153
X170.146Y-79.185
X170.222Y-106.397
X170.622Y-109.097
X170.654Y-116.396
X170.842Y-101.095
X171.162Y-114.237
X171.416Y-103.823
X171.67Y-96.711
X171.67Y-99.251
X171.672Y-82.247
X171.924Y-94.171
X171.924Y-111.697
X172.686Y-114.745
X173.702Y-91.377
X174.173Y-110.098
X175.433Y-103.776
X175.734Y-99.251
X175.734Y-100.775
X176.242Y-105.187
X176.496Y-86.297
X176.496Y-90.615
X176.75Y-106.871
X176.75Y-109.157
X177.222Y-82.747
X177.588Y-100.596
X178.274Y-115.507
X178.608Y-100.601
X178.782Y-95.949
X179.544Y-92.139
X179.544Y-104.839
X179.544Y-106.871
X179.798Y-111.697
X179.925Y-79.058
X179.925Y-121.984
X180.052Y-97.219
X180.179Y-76.391
X180.518Y-87.102
X180.56Y-117.285
X180.569Y-90.37
X180.814Y-92.139
X180.814Y-120.079
X180.856Y-110.893
X181.576Y-97.219
X181.83Y-76.391
X181.83Y-84.271
X181.957Y-79.058
X182.338Y-92.139
X182.63Y-85.101
X182.63Y-86.1
X182.719Y-105.601
X184.116Y-109.411
X184.37Y-74.613
X185.64Y-74.613
X185.64Y-102.553
X185.64Y-110.046
X185.894Y-89.853
X186.91Y-74.613
X187.127Y-82.487
X187.164Y-89.853
X187.164Y-108.395
X187.164Y-115.126
X187.164Y-116.523
X187.164Y-118.047
X187.164Y-119.825
X187.418Y-92.647
X187.926Y-81.217
X187.926Y-102.553
X188.18Y-74.613
X188.434Y-98.489
X188.434Y-108.395
X188.688Y-89.853
X189.196Y-74.613
X189.196Y-102.553
T3
X109.132Y-90.207
X114.132Y-90.207
T4
X140.682Y-87.767
X140.682Y-92.647
T5
X157.954Y-78.677
X160.494Y-78.677
T6
X103.852Y-78.677
X103.852Y-119.317
X174.972Y-78.677
X174.972Y-119.317
T2
G00X183.534Y-113.334
M15
G01X182.434Y-113.334
M16
G05
G00X183.534Y-121.974
M15
G01X182.434Y-121.974
M16
G05
G00X187.564Y-113.334
M15
G01X186.764Y-113.334
M16
G05
G00X187.564Y-121.974
M15
G01X186.764Y-121.974
M16
G05
T0
M30
