%TF.GenerationSoftware,KiCad,Pcbnew,6.0.4-6f826c9f35~116~ubuntu20.04.1*%
%TF.CreationDate,2022-04-14T19:41:17+00:00*%
%TF.ProjectId,USTSIPIN01,55535453-4950-4494-9e30-312e6b696361,rev?*%
%TF.SameCoordinates,PX6384130PY6d19b00*%
%TF.FileFunction,Legend,Bot*%
%TF.FilePolarity,Positive*%
%FSLAX46Y46*%
G04 Gerber Fmt 4.6, Leading zero omitted, Abs format (unit mm)*
G04 Created by KiCad (PCBNEW 6.0.4-6f826c9f35~116~ubuntu20.04.1) date 2022-04-14 19:41:17*
%MOMM*%
%LPD*%
G01*
G04 APERTURE LIST*
%ADD10C,0.304800*%
%ADD11C,0.150000*%
%ADD12C,0.050000*%
%ADD13C,0.127000*%
%ADD14C,0.120000*%
G04 APERTURE END LIST*
D10*
%TO.C,C1*%
X27504000Y18243715D02*
X27576571Y18171143D01*
X27794285Y18098572D01*
X27939428Y18098572D01*
X28157142Y18171143D01*
X28302285Y18316286D01*
X28374857Y18461429D01*
X28447428Y18751715D01*
X28447428Y18969429D01*
X28374857Y19259715D01*
X28302285Y19404858D01*
X28157142Y19550000D01*
X27939428Y19622572D01*
X27794285Y19622572D01*
X27576571Y19550000D01*
X27504000Y19477429D01*
X26052571Y18098572D02*
X26923428Y18098572D01*
X26488000Y18098572D02*
X26488000Y19622572D01*
X26633142Y19404858D01*
X26778285Y19259715D01*
X26923428Y19187143D01*
X32829291Y18379303D02*
X31668148Y18379303D01*
X32248720Y17798732D02*
X32248720Y18959875D01*
D11*
%TO.C,U1*%
X10866904Y27915620D02*
X10866904Y27106096D01*
X10819285Y27010858D01*
X10771666Y26963239D01*
X10676428Y26915620D01*
X10485952Y26915620D01*
X10390714Y26963239D01*
X10343095Y27010858D01*
X10295476Y27106096D01*
X10295476Y27915620D01*
X9295476Y26915620D02*
X9866904Y26915620D01*
X9581190Y26915620D02*
X9581190Y27915620D01*
X9676428Y27772762D01*
X9771666Y27677524D01*
X9866904Y27629905D01*
%TO.C,U4*%
X38005380Y33971905D02*
X38814904Y33971905D01*
X38910142Y33924286D01*
X38957761Y33876667D01*
X39005380Y33781429D01*
X39005380Y33590953D01*
X38957761Y33495715D01*
X38910142Y33448096D01*
X38814904Y33400477D01*
X38005380Y33400477D01*
X38338714Y32495715D02*
X39005380Y32495715D01*
X37957761Y32733810D02*
X38672047Y32971905D01*
X38672047Y32352858D01*
%TO.C,U5*%
X41981904Y20930620D02*
X41981904Y20121096D01*
X41934285Y20025858D01*
X41886666Y19978239D01*
X41791428Y19930620D01*
X41600952Y19930620D01*
X41505714Y19978239D01*
X41458095Y20025858D01*
X41410476Y20121096D01*
X41410476Y20930620D01*
X40458095Y20930620D02*
X40934285Y20930620D01*
X40981904Y20454429D01*
X40934285Y20502048D01*
X40839047Y20549667D01*
X40600952Y20549667D01*
X40505714Y20502048D01*
X40458095Y20454429D01*
X40410476Y20359191D01*
X40410476Y20121096D01*
X40458095Y20025858D01*
X40505714Y19978239D01*
X40600952Y19930620D01*
X40839047Y19930620D01*
X40934285Y19978239D01*
X40981904Y20025858D01*
%TO.C,U2*%
X33218904Y25883620D02*
X33218904Y25074096D01*
X33171285Y24978858D01*
X33123666Y24931239D01*
X33028428Y24883620D01*
X32837952Y24883620D01*
X32742714Y24931239D01*
X32695095Y24978858D01*
X32647476Y25074096D01*
X32647476Y25883620D01*
X32218904Y25788381D02*
X32171285Y25836000D01*
X32076047Y25883620D01*
X31837952Y25883620D01*
X31742714Y25836000D01*
X31695095Y25788381D01*
X31647476Y25693143D01*
X31647476Y25597905D01*
X31695095Y25455048D01*
X32266523Y24883620D01*
X31647476Y24883620D01*
%TO.C,R1*%
X44211380Y34392667D02*
X43735190Y34726000D01*
X44211380Y34964096D02*
X43211380Y34964096D01*
X43211380Y34583143D01*
X43259000Y34487905D01*
X43306619Y34440286D01*
X43401857Y34392667D01*
X43544714Y34392667D01*
X43639952Y34440286D01*
X43687571Y34487905D01*
X43735190Y34583143D01*
X43735190Y34964096D01*
X44211380Y33440286D02*
X44211380Y34011715D01*
X44211380Y33726000D02*
X43211380Y33726000D01*
X43354238Y33821239D01*
X43449476Y33916477D01*
X43497095Y34011715D01*
%TO.C,U3*%
X15438904Y19787620D02*
X15438904Y18978096D01*
X15391285Y18882858D01*
X15343666Y18835239D01*
X15248428Y18787620D01*
X15057952Y18787620D01*
X14962714Y18835239D01*
X14915095Y18882858D01*
X14867476Y18978096D01*
X14867476Y19787620D01*
X14486523Y19787620D02*
X13867476Y19787620D01*
X14200809Y19406667D01*
X14057952Y19406667D01*
X13962714Y19359048D01*
X13915095Y19311429D01*
X13867476Y19216191D01*
X13867476Y18978096D01*
X13915095Y18882858D01*
X13962714Y18835239D01*
X14057952Y18787620D01*
X14343666Y18787620D01*
X14438904Y18835239D01*
X14486523Y18882858D01*
%TO.C,D1*%
X83553095Y11808620D02*
X83553095Y12808620D01*
X83315000Y12808620D01*
X83172142Y12761000D01*
X83076904Y12665762D01*
X83029285Y12570524D01*
X82981666Y12380048D01*
X82981666Y12237191D01*
X83029285Y12046715D01*
X83076904Y11951477D01*
X83172142Y11856239D01*
X83315000Y11808620D01*
X83553095Y11808620D01*
X82029285Y11808620D02*
X82600714Y11808620D01*
X82315000Y11808620D02*
X82315000Y12808620D01*
X82410238Y12665762D01*
X82505476Y12570524D01*
X82600714Y12522905D01*
%TO.C,D3*%
X85458095Y14348620D02*
X85458095Y15348620D01*
X85220000Y15348620D01*
X85077142Y15301000D01*
X84981904Y15205762D01*
X84934285Y15110524D01*
X84886666Y14920048D01*
X84886666Y14777191D01*
X84934285Y14586715D01*
X84981904Y14491477D01*
X85077142Y14396239D01*
X85220000Y14348620D01*
X85458095Y14348620D01*
X84553333Y15348620D02*
X83934285Y15348620D01*
X84267619Y14967667D01*
X84124761Y14967667D01*
X84029523Y14920048D01*
X83981904Y14872429D01*
X83934285Y14777191D01*
X83934285Y14539096D01*
X83981904Y14443858D01*
X84029523Y14396239D01*
X84124761Y14348620D01*
X84410476Y14348620D01*
X84505714Y14396239D01*
X84553333Y14443858D01*
%TO.C,L2*%
X66871666Y15491620D02*
X67347857Y15491620D01*
X67347857Y16491620D01*
X66585952Y16396381D02*
X66538333Y16444000D01*
X66443095Y16491620D01*
X66205000Y16491620D01*
X66109761Y16444000D01*
X66062142Y16396381D01*
X66014523Y16301143D01*
X66014523Y16205905D01*
X66062142Y16063048D01*
X66633571Y15491620D01*
X66014523Y15491620D01*
%TO.C,L3*%
X61673666Y19301620D02*
X62149857Y19301620D01*
X62149857Y20301620D01*
X61435571Y20301620D02*
X60816523Y20301620D01*
X61149857Y19920667D01*
X61007000Y19920667D01*
X60911761Y19873048D01*
X60864142Y19825429D01*
X60816523Y19730191D01*
X60816523Y19492096D01*
X60864142Y19396858D01*
X60911761Y19349239D01*
X61007000Y19301620D01*
X61292714Y19301620D01*
X61387952Y19349239D01*
X61435571Y19396858D01*
%TO.C,U6*%
X66629904Y13702620D02*
X66629904Y12893096D01*
X66582285Y12797858D01*
X66534666Y12750239D01*
X66439428Y12702620D01*
X66248952Y12702620D01*
X66153714Y12750239D01*
X66106095Y12797858D01*
X66058476Y12893096D01*
X66058476Y13702620D01*
X65153714Y13702620D02*
X65344190Y13702620D01*
X65439428Y13655000D01*
X65487047Y13607381D01*
X65582285Y13464524D01*
X65629904Y13274048D01*
X65629904Y12893096D01*
X65582285Y12797858D01*
X65534666Y12750239D01*
X65439428Y12702620D01*
X65248952Y12702620D01*
X65153714Y12750239D01*
X65106095Y12797858D01*
X65058476Y12893096D01*
X65058476Y13131191D01*
X65106095Y13226429D01*
X65153714Y13274048D01*
X65248952Y13321667D01*
X65439428Y13321667D01*
X65534666Y13274048D01*
X65582285Y13226429D01*
X65629904Y13131191D01*
%TO.C,C52*%
X52059742Y19609458D02*
X52107361Y19657077D01*
X52154980Y19799934D01*
X52154980Y19895172D01*
X52107361Y20038029D01*
X52012123Y20133267D01*
X51916885Y20180886D01*
X51726409Y20228505D01*
X51583552Y20228505D01*
X51393076Y20180886D01*
X51297838Y20133267D01*
X51202600Y20038029D01*
X51154980Y19895172D01*
X51154980Y19799934D01*
X51202600Y19657077D01*
X51250219Y19609458D01*
X51154980Y18704696D02*
X51154980Y19180886D01*
X51631171Y19228505D01*
X51583552Y19180886D01*
X51535933Y19085648D01*
X51535933Y18847553D01*
X51583552Y18752315D01*
X51631171Y18704696D01*
X51726409Y18657077D01*
X51964504Y18657077D01*
X52059742Y18704696D01*
X52107361Y18752315D01*
X52154980Y18847553D01*
X52154980Y19085648D01*
X52107361Y19180886D01*
X52059742Y19228505D01*
X51250219Y18276124D02*
X51202600Y18228505D01*
X51154980Y18133267D01*
X51154980Y17895172D01*
X51202600Y17799934D01*
X51250219Y17752315D01*
X51345457Y17704696D01*
X51440695Y17704696D01*
X51583552Y17752315D01*
X52154980Y18323743D01*
X52154980Y17704696D01*
%TO.C,C51*%
X57139742Y14910458D02*
X57187361Y14958077D01*
X57234980Y15100934D01*
X57234980Y15196172D01*
X57187361Y15339029D01*
X57092123Y15434267D01*
X56996885Y15481886D01*
X56806409Y15529505D01*
X56663552Y15529505D01*
X56473076Y15481886D01*
X56377838Y15434267D01*
X56282600Y15339029D01*
X56234980Y15196172D01*
X56234980Y15100934D01*
X56282600Y14958077D01*
X56330219Y14910458D01*
X56234980Y14005696D02*
X56234980Y14481886D01*
X56711171Y14529505D01*
X56663552Y14481886D01*
X56615933Y14386648D01*
X56615933Y14148553D01*
X56663552Y14053315D01*
X56711171Y14005696D01*
X56806409Y13958077D01*
X57044504Y13958077D01*
X57139742Y14005696D01*
X57187361Y14053315D01*
X57234980Y14148553D01*
X57234980Y14386648D01*
X57187361Y14481886D01*
X57139742Y14529505D01*
X57234980Y13005696D02*
X57234980Y13577124D01*
X57234980Y13291410D02*
X56234980Y13291410D01*
X56377838Y13386648D01*
X56473076Y13481886D01*
X56520695Y13577124D01*
%TO.C,U8*%
X61440904Y17677620D02*
X61440904Y16868096D01*
X61393285Y16772858D01*
X61345666Y16725239D01*
X61250428Y16677620D01*
X61059952Y16677620D01*
X60964714Y16725239D01*
X60917095Y16772858D01*
X60869476Y16868096D01*
X60869476Y17677620D01*
X60250428Y17249048D02*
X60345666Y17296667D01*
X60393285Y17344286D01*
X60440904Y17439524D01*
X60440904Y17487143D01*
X60393285Y17582381D01*
X60345666Y17630000D01*
X60250428Y17677620D01*
X60059952Y17677620D01*
X59964714Y17630000D01*
X59917095Y17582381D01*
X59869476Y17487143D01*
X59869476Y17439524D01*
X59917095Y17344286D01*
X59964714Y17296667D01*
X60059952Y17249048D01*
X60250428Y17249048D01*
X60345666Y17201429D01*
X60393285Y17153810D01*
X60440904Y17058572D01*
X60440904Y16868096D01*
X60393285Y16772858D01*
X60345666Y16725239D01*
X60250428Y16677620D01*
X60059952Y16677620D01*
X59964714Y16725239D01*
X59917095Y16772858D01*
X59869476Y16868096D01*
X59869476Y17058572D01*
X59917095Y17153810D01*
X59964714Y17201429D01*
X60059952Y17249048D01*
%TO.C,U10*%
X64269095Y30842620D02*
X64269095Y30033096D01*
X64221476Y29937858D01*
X64173857Y29890239D01*
X64078619Y29842620D01*
X63888142Y29842620D01*
X63792904Y29890239D01*
X63745285Y29937858D01*
X63697666Y30033096D01*
X63697666Y30842620D01*
X62697666Y29842620D02*
X63269095Y29842620D01*
X62983380Y29842620D02*
X62983380Y30842620D01*
X63078619Y30699762D01*
X63173857Y30604524D01*
X63269095Y30556905D01*
X62078619Y30842620D02*
X61983380Y30842620D01*
X61888142Y30795000D01*
X61840523Y30747381D01*
X61792904Y30652143D01*
X61745285Y30461667D01*
X61745285Y30223572D01*
X61792904Y30033096D01*
X61840523Y29937858D01*
X61888142Y29890239D01*
X61983380Y29842620D01*
X62078619Y29842620D01*
X62173857Y29890239D01*
X62221476Y29937858D01*
X62269095Y30033096D01*
X62316714Y30223572D01*
X62316714Y30461667D01*
X62269095Y30652143D01*
X62221476Y30747381D01*
X62173857Y30795000D01*
X62078619Y30842620D01*
%TO.C,M7*%
X48348380Y14191524D02*
X47348380Y14191524D01*
X48062666Y13858191D01*
X47348380Y13524858D01*
X48348380Y13524858D01*
X47348380Y13143905D02*
X47348380Y12477239D01*
X48348380Y12905810D01*
%TO.C,C29*%
X75383257Y15688458D02*
X75430876Y15640839D01*
X75573733Y15593220D01*
X75668971Y15593220D01*
X75811828Y15640839D01*
X75907066Y15736077D01*
X75954685Y15831315D01*
X76002304Y16021791D01*
X76002304Y16164648D01*
X75954685Y16355124D01*
X75907066Y16450362D01*
X75811828Y16545600D01*
X75668971Y16593220D01*
X75573733Y16593220D01*
X75430876Y16545600D01*
X75383257Y16497981D01*
X75002304Y16497981D02*
X74954685Y16545600D01*
X74859447Y16593220D01*
X74621352Y16593220D01*
X74526114Y16545600D01*
X74478495Y16497981D01*
X74430876Y16402743D01*
X74430876Y16307505D01*
X74478495Y16164648D01*
X75049923Y15593220D01*
X74430876Y15593220D01*
X73954685Y15593220D02*
X73764209Y15593220D01*
X73668971Y15640839D01*
X73621352Y15688458D01*
X73526114Y15831315D01*
X73478495Y16021791D01*
X73478495Y16402743D01*
X73526114Y16497981D01*
X73573733Y16545600D01*
X73668971Y16593220D01*
X73859447Y16593220D01*
X73954685Y16545600D01*
X74002304Y16497981D01*
X74049923Y16402743D01*
X74049923Y16164648D01*
X74002304Y16069410D01*
X73954685Y16021791D01*
X73859447Y15974172D01*
X73668971Y15974172D01*
X73573733Y16021791D01*
X73526114Y16069410D01*
X73478495Y16164648D01*
D12*
%TO.C,J22*%
X48156142Y23083810D02*
X48441857Y23083810D01*
X48299000Y23083810D02*
X48299000Y23583810D01*
X48346619Y23512381D01*
X48394238Y23464762D01*
X48441857Y23440953D01*
D13*
%TO.C,L1*%
X76112000Y32871286D02*
X76474857Y32871286D01*
X76474857Y33633286D01*
X75458857Y32871286D02*
X75894285Y32871286D01*
X75676571Y32871286D02*
X75676571Y33633286D01*
X75749142Y33524429D01*
X75821714Y33451858D01*
X75894285Y33415572D01*
D11*
%TO.C,U11*%
X74177380Y24802096D02*
X74986904Y24802096D01*
X75082142Y24754477D01*
X75129761Y24706858D01*
X75177380Y24611620D01*
X75177380Y24421143D01*
X75129761Y24325905D01*
X75082142Y24278286D01*
X74986904Y24230667D01*
X74177380Y24230667D01*
X75177380Y23230667D02*
X75177380Y23802096D01*
X75177380Y23516381D02*
X74177380Y23516381D01*
X74320238Y23611620D01*
X74415476Y23706858D01*
X74463095Y23802096D01*
X75177380Y22278286D02*
X75177380Y22849715D01*
X75177380Y22564000D02*
X74177380Y22564000D01*
X74320238Y22659239D01*
X74415476Y22754477D01*
X74463095Y22849715D01*
%TO.C,C45*%
X75383257Y12132458D02*
X75430876Y12084839D01*
X75573733Y12037220D01*
X75668971Y12037220D01*
X75811828Y12084839D01*
X75907066Y12180077D01*
X75954685Y12275315D01*
X76002304Y12465791D01*
X76002304Y12608648D01*
X75954685Y12799124D01*
X75907066Y12894362D01*
X75811828Y12989600D01*
X75668971Y13037220D01*
X75573733Y13037220D01*
X75430876Y12989600D01*
X75383257Y12941981D01*
X74526114Y12703886D02*
X74526114Y12037220D01*
X74764209Y13084839D02*
X75002304Y12370553D01*
X74383257Y12370553D01*
X73526114Y13037220D02*
X74002304Y13037220D01*
X74049923Y12561029D01*
X74002304Y12608648D01*
X73907066Y12656267D01*
X73668971Y12656267D01*
X73573733Y12608648D01*
X73526114Y12561029D01*
X73478495Y12465791D01*
X73478495Y12227696D01*
X73526114Y12132458D01*
X73573733Y12084839D01*
X73668971Y12037220D01*
X73907066Y12037220D01*
X74002304Y12084839D01*
X74049923Y12132458D01*
%TO.C,M6*%
X2721380Y14252524D02*
X1721380Y14252524D01*
X2435666Y13919191D01*
X1721380Y13585858D01*
X2721380Y13585858D01*
X1721380Y12681096D02*
X1721380Y12871572D01*
X1769000Y12966810D01*
X1816619Y13014429D01*
X1959476Y13109667D01*
X2149952Y13157286D01*
X2530904Y13157286D01*
X2626142Y13109667D01*
X2673761Y13062048D01*
X2721380Y12966810D01*
X2721380Y12776334D01*
X2673761Y12681096D01*
X2626142Y12633477D01*
X2530904Y12585858D01*
X2292809Y12585858D01*
X2197571Y12633477D01*
X2149952Y12681096D01*
X2102333Y12776334D01*
X2102333Y12966810D01*
X2149952Y13062048D01*
X2197571Y13109667D01*
X2292809Y13157286D01*
D14*
%TO.C,C20*%
X9089000Y19621000D02*
X9089000Y18859000D01*
X10613000Y19621000D02*
X10613000Y18859000D01*
D11*
X9089000Y17716000D02*
X10613000Y17716000D01*
X10613000Y20764000D02*
X9089000Y20764000D01*
%TO.C,C1*%
X31550220Y17637260D02*
X31550220Y14238740D01*
X32251260Y18991080D02*
X32251260Y17891260D01*
X24273120Y17639800D02*
X30272600Y17639800D01*
X32850700Y18490700D02*
X31651820Y18490700D01*
X24250260Y14238740D02*
X30249740Y14238740D01*
X31568000Y17639800D02*
X31568000Y14241280D01*
D14*
%TO.C,C3*%
X5787000Y29209500D02*
X5787000Y29971500D01*
D11*
X4263000Y28066500D02*
X5787000Y28066500D01*
D14*
X4263000Y29209500D02*
X4263000Y29971500D01*
D11*
X5787000Y31114500D02*
X4263000Y31114500D01*
%TO.C,C4*%
X30361500Y12001000D02*
X30361500Y13525000D01*
D14*
X29218500Y13525000D02*
X28456500Y13525000D01*
D11*
X27313500Y13525000D02*
X27313500Y12001000D01*
D14*
X29218500Y12001000D02*
X28456500Y12001000D01*
%TO.C,C5*%
X6993500Y22796000D02*
X6231500Y22796000D01*
D11*
X5088500Y24320000D02*
X5088500Y22796000D01*
X8136500Y22796000D02*
X8136500Y24320000D01*
D14*
X6993500Y24320000D02*
X6231500Y24320000D01*
D11*
%TO.C,C6*%
X20265000Y25018500D02*
X18741000Y25018500D01*
D14*
X18741000Y23875500D02*
X18741000Y23113500D01*
D11*
X18741000Y21970500D02*
X20265000Y21970500D01*
D14*
X20265000Y23875500D02*
X20265000Y23113500D01*
D11*
%TO.C,C7*%
X39061000Y23050000D02*
X40585000Y23050000D01*
D14*
X40585000Y24193000D02*
X40585000Y24955000D01*
D11*
X40585000Y26098000D02*
X39061000Y26098000D01*
D14*
X39061000Y24193000D02*
X39061000Y24955000D01*
D11*
%TO.C,C8*%
X32203000Y31178000D02*
X33727000Y31178000D01*
X33727000Y34226000D02*
X32203000Y34226000D01*
D14*
X32203000Y32321000D02*
X32203000Y33083000D01*
X33727000Y32321000D02*
X33727000Y33083000D01*
%TO.C,C9*%
X39188000Y16954000D02*
X39188000Y16192000D01*
D11*
X40712000Y18097000D02*
X39188000Y18097000D01*
X39188000Y15049000D02*
X40712000Y15049000D01*
D14*
X40712000Y16954000D02*
X40712000Y16192000D01*
%TO.C,C10*%
X10486000Y24320000D02*
X9724000Y24320000D01*
D11*
X8581000Y24320000D02*
X8581000Y22796000D01*
X11629000Y22796000D02*
X11629000Y24320000D01*
D14*
X10486000Y22796000D02*
X9724000Y22796000D01*
D11*
%TO.C,C11*%
X18233000Y25018500D02*
X16709000Y25018500D01*
D14*
X16709000Y23875500D02*
X16709000Y23113500D01*
D11*
X16709000Y21970500D02*
X18233000Y21970500D01*
D14*
X18233000Y23875500D02*
X18233000Y23113500D01*
D11*
%TO.C,C12*%
X38299000Y26098000D02*
X36775000Y26098000D01*
D14*
X36775000Y24193000D02*
X36775000Y24955000D01*
X38299000Y24193000D02*
X38299000Y24955000D01*
D11*
X36775000Y23050000D02*
X38299000Y23050000D01*
D14*
%TO.C,C13*%
X34489000Y32321000D02*
X34489000Y33083000D01*
X36013000Y32321000D02*
X36013000Y33083000D01*
D11*
X34489000Y31178000D02*
X36013000Y31178000D01*
X36013000Y34226000D02*
X34489000Y34226000D01*
D14*
%TO.C,C14*%
X43252000Y16954000D02*
X43252000Y16192000D01*
D11*
X43252000Y18097000D02*
X41728000Y18097000D01*
X41728000Y15049000D02*
X43252000Y15049000D01*
D14*
X41728000Y16954000D02*
X41728000Y16192000D01*
%TO.C,C15*%
X19249000Y26669500D02*
X19249000Y27431500D01*
D11*
X20773000Y28574500D02*
X19249000Y28574500D01*
X19249000Y25526500D02*
X20773000Y25526500D01*
D14*
X20773000Y26669500D02*
X20773000Y27431500D01*
D11*
%TO.C,C16*%
X21789000Y25653500D02*
X23313000Y25653500D01*
X23313000Y28701500D02*
X21789000Y28701500D01*
D14*
X23313000Y27558500D02*
X23313000Y26796500D01*
X21789000Y27558500D02*
X21789000Y26796500D01*
D11*
%TO.C,C17*%
X26361000Y26479000D02*
X27885000Y26479000D01*
X27885000Y29527000D02*
X26361000Y29527000D01*
D14*
X27885000Y27622000D02*
X27885000Y28384000D01*
X26361000Y27622000D02*
X26361000Y28384000D01*
D11*
%TO.C,C18*%
X26107000Y21970500D02*
X27631000Y21970500D01*
D14*
X26107000Y23113500D02*
X26107000Y23875500D01*
X27631000Y23113500D02*
X27631000Y23875500D01*
D11*
X27631000Y25018500D02*
X26107000Y25018500D01*
D14*
%TO.C,C19*%
X38299000Y28003000D02*
X38299000Y28765000D01*
X36775000Y28003000D02*
X36775000Y28765000D01*
D11*
X36775000Y26860000D02*
X38299000Y26860000D01*
X38299000Y29908000D02*
X36775000Y29908000D01*
%TO.C,R3*%
X36267000Y21907000D02*
X34743000Y21907000D01*
D14*
X36267000Y20764000D02*
X36267000Y20002000D01*
X34743000Y20764000D02*
X34743000Y20002000D01*
D11*
X34743000Y18859000D02*
X36267000Y18859000D01*
D14*
%TO.C,R4*%
X31441000Y32321000D02*
X31441000Y33083000D01*
D11*
X31441000Y34226000D02*
X29917000Y34226000D01*
X29917000Y31178000D02*
X31441000Y31178000D01*
D14*
X29917000Y32321000D02*
X29917000Y33083000D01*
%TO.C,R5*%
X37156000Y17970000D02*
X36394000Y17970000D01*
D11*
X38299000Y16446000D02*
X38299000Y17970000D01*
D14*
X37156000Y16446000D02*
X36394000Y16446000D01*
D11*
X35251000Y17970000D02*
X35251000Y16446000D01*
D14*
%TO.C,R6*%
X6993500Y20256000D02*
X6231500Y20256000D01*
D11*
X8136500Y20256000D02*
X8136500Y21780000D01*
D14*
X6993500Y21780000D02*
X6231500Y21780000D01*
D11*
X5088500Y21780000D02*
X5088500Y20256000D01*
%TO.C,R7*%
X14423000Y29019000D02*
X15947000Y29019000D01*
D14*
X14423000Y30924000D02*
X14423000Y30162000D01*
D11*
X15947000Y32067000D02*
X14423000Y32067000D01*
D14*
X15947000Y30924000D02*
X15947000Y30162000D01*
D11*
%TO.C,R8*%
X16963000Y29082500D02*
X18487000Y29082500D01*
D14*
X16963000Y30225500D02*
X16963000Y30987500D01*
X18487000Y30225500D02*
X18487000Y30987500D01*
D11*
X18487000Y32130500D02*
X16963000Y32130500D01*
D14*
%TO.C,R9*%
X16963000Y26669500D02*
X16963000Y27431500D01*
D11*
X18487000Y28574500D02*
X16963000Y28574500D01*
D14*
X18487000Y26669500D02*
X18487000Y27431500D01*
D11*
X16963000Y25526500D02*
X18487000Y25526500D01*
%TO.C,R10*%
X23821000Y25653500D02*
X25345000Y25653500D01*
D14*
X23821000Y26796500D02*
X23821000Y27558500D01*
D11*
X25345000Y28701500D02*
X23821000Y28701500D01*
D14*
X25345000Y26796500D02*
X25345000Y27558500D01*
D11*
%TO.C,R11*%
X25345000Y25018500D02*
X23821000Y25018500D01*
D14*
X23821000Y23113500D02*
X23821000Y23875500D01*
D11*
X23821000Y21970500D02*
X25345000Y21970500D01*
D14*
X25345000Y23113500D02*
X25345000Y23875500D01*
D11*
%TO.C,R12*%
X43252000Y25717000D02*
X41728000Y25717000D01*
D14*
X41728000Y23812000D02*
X41728000Y24574000D01*
D11*
X41728000Y22669000D02*
X43252000Y22669000D01*
D14*
X43252000Y23812000D02*
X43252000Y24574000D01*
%TO.C,R13*%
X39950000Y26860000D02*
X40712000Y26860000D01*
D11*
X38807000Y28384000D02*
X38807000Y26860000D01*
D14*
X39950000Y28384000D02*
X40712000Y28384000D01*
D11*
X41855000Y26860000D02*
X41855000Y28384000D01*
%TO.C,U1*%
X8030000Y24793000D02*
X8030000Y24938000D01*
X8030000Y24938000D02*
X6630000Y24938000D01*
X12180000Y24793000D02*
X12180000Y24938000D01*
X8030000Y29943000D02*
X8030000Y29798000D01*
X8030000Y24793000D02*
X12180000Y24793000D01*
X8030000Y29943000D02*
X12180000Y29943000D01*
D14*
%TO.C,U4*%
X40163000Y34110000D02*
X40163000Y31660000D01*
X36943000Y32310000D02*
X36943000Y34110000D01*
%TO.C,U5*%
X42120000Y18773000D02*
X39670000Y18773000D01*
X40320000Y21993000D02*
X42120000Y21993000D01*
D11*
%TO.C,R2*%
X14423000Y22986500D02*
X15947000Y22986500D01*
D14*
X14423000Y24891500D02*
X14423000Y24129500D01*
X15947000Y24891500D02*
X15947000Y24129500D01*
D11*
X15947000Y26034500D02*
X14423000Y26034500D01*
%TO.C,U2*%
X30382000Y27911000D02*
X34532000Y27911000D01*
X34532000Y22761000D02*
X34532000Y22906000D01*
X30382000Y22761000D02*
X34532000Y22761000D01*
X30382000Y22906000D02*
X28982000Y22906000D01*
X30382000Y27911000D02*
X30382000Y27766000D01*
X30382000Y22761000D02*
X30382000Y22906000D01*
D14*
%TO.C,R1*%
X41347000Y33845000D02*
X41347000Y34607000D01*
D11*
X41347000Y32702000D02*
X42871000Y32702000D01*
X42871000Y35750000D02*
X41347000Y35750000D01*
D14*
X42871000Y33845000D02*
X42871000Y34607000D01*
D11*
%TO.C,C2*%
X20867000Y35756000D02*
X19343000Y35756000D01*
X19343000Y32708000D02*
X20867000Y32708000D01*
D14*
X20867000Y34613000D02*
X20867000Y33851000D01*
X19343000Y34613000D02*
X19343000Y33851000D01*
%TO.C,U3*%
X15961000Y20820000D02*
X15961000Y19890000D01*
X15961000Y17660000D02*
X13801000Y17660000D01*
X15961000Y20820000D02*
X14501000Y20820000D01*
X15961000Y17660000D02*
X15961000Y18590000D01*
%TO.C,D1*%
X80392000Y13261000D02*
X84692000Y13261000D01*
X84692000Y11261000D02*
X80392000Y11261000D01*
X80392000Y11261000D02*
X80392000Y13261000D01*
D11*
%TO.C,C55*%
X71032000Y17214000D02*
X72556000Y17214000D01*
X72556000Y20262000D02*
X71032000Y20262000D01*
D14*
X71032000Y18357000D02*
X71032000Y19119000D01*
X72556000Y18357000D02*
X72556000Y19119000D01*
D11*
%TO.C,R25*%
X65888500Y19500000D02*
X65888500Y17976000D01*
D14*
X67031500Y17976000D02*
X67793500Y17976000D01*
X67031500Y19500000D02*
X67793500Y19500000D01*
D11*
X68936500Y17976000D02*
X68936500Y19500000D01*
%TO.C,R27*%
X65888500Y21532000D02*
X65888500Y20008000D01*
D14*
X67031500Y21532000D02*
X67793500Y21532000D01*
D11*
X68936500Y20008000D02*
X68936500Y21532000D01*
D14*
X67031500Y20008000D02*
X67793500Y20008000D01*
D11*
%TO.C,R28*%
X72048000Y15182000D02*
X72048000Y16706000D01*
D14*
X70143000Y16706000D02*
X70905000Y16706000D01*
X70143000Y15182000D02*
X70905000Y15182000D01*
D11*
X69000000Y16706000D02*
X69000000Y15182000D01*
%TO.C,C21*%
X24931000Y35756000D02*
X23407000Y35756000D01*
D14*
X24931000Y34613000D02*
X24931000Y33851000D01*
X23407000Y34613000D02*
X23407000Y33851000D01*
D11*
X23407000Y32708000D02*
X24931000Y32708000D01*
D14*
%TO.C,C22*%
X79414000Y13150000D02*
X79414000Y12388000D01*
X77890000Y13150000D02*
X77890000Y12388000D01*
D11*
X77890000Y11245000D02*
X79414000Y11245000D01*
X79414000Y14293000D02*
X77890000Y14293000D01*
D14*
%TO.C,C36*%
X84684500Y16579000D02*
X85446500Y16579000D01*
D11*
X86589500Y16579000D02*
X86589500Y18103000D01*
D14*
X84684500Y18103000D02*
X85446500Y18103000D01*
D11*
X83541500Y18103000D02*
X83541500Y16579000D01*
D14*
%TO.C,F1*%
X79414000Y15753500D02*
X79414000Y16515500D01*
D11*
X79414000Y17658500D02*
X77890000Y17658500D01*
D14*
X77890000Y15753500D02*
X77890000Y16515500D01*
D11*
X77890000Y14610500D02*
X79414000Y14610500D01*
D14*
%TO.C,F2*%
X84684500Y18865000D02*
X85446500Y18865000D01*
D11*
X86589500Y18865000D02*
X86589500Y20389000D01*
X83541500Y20389000D02*
X83541500Y18865000D01*
D14*
X84684500Y20389000D02*
X85446500Y20389000D01*
%TO.C,D3*%
X82170000Y13801000D02*
X82170000Y15801000D01*
X82170000Y15801000D02*
X86470000Y15801000D01*
X86470000Y13801000D02*
X82170000Y13801000D01*
%TO.C,L2*%
X66966252Y15234000D02*
X66443748Y15234000D01*
X66966252Y16654000D02*
X66443748Y16654000D01*
%TO.C,L3*%
X61768252Y20464000D02*
X61245748Y20464000D01*
X61768252Y19044000D02*
X61245748Y19044000D01*
%TO.C,U6*%
X66768000Y11225000D02*
X64968000Y11225000D01*
X64968000Y14445000D02*
X67418000Y14445000D01*
%TO.C,C50*%
X55538000Y18166500D02*
X55538000Y18928500D01*
X54014000Y18166500D02*
X54014000Y18928500D01*
D11*
X55538000Y20071500D02*
X54014000Y20071500D01*
X54014000Y17023500D02*
X55538000Y17023500D01*
D14*
%TO.C,C49*%
X61380000Y12642000D02*
X61380000Y13404000D01*
X62904000Y12642000D02*
X62904000Y13404000D01*
D11*
X61380000Y11499000D02*
X62904000Y11499000D01*
X62904000Y14547000D02*
X61380000Y14547000D01*
%TO.C,C42*%
X57697000Y20071500D02*
X56173000Y20071500D01*
X56173000Y17023500D02*
X57697000Y17023500D01*
D14*
X56173000Y18166500D02*
X56173000Y18928500D01*
X57697000Y18166500D02*
X57697000Y18928500D01*
D11*
%TO.C,C52*%
X52490000Y20643000D02*
X50966000Y20643000D01*
X50966000Y16579000D02*
X52490000Y16579000D01*
X50966000Y20643000D02*
X50966000Y16579000D01*
X52490000Y16579000D02*
X52363000Y16579000D01*
X52490000Y16579000D02*
X52490000Y20643000D01*
%TO.C,C38*%
X59094000Y11562500D02*
X60618000Y11562500D01*
D14*
X60618000Y12705500D02*
X60618000Y13467500D01*
X59094000Y12705500D02*
X59094000Y13467500D01*
D11*
X60618000Y14610500D02*
X59094000Y14610500D01*
%TO.C,C51*%
X56046000Y11880000D02*
X57570000Y11880000D01*
X56046000Y15944000D02*
X56046000Y11880000D01*
X57570000Y11880000D02*
X57443000Y11880000D01*
X57570000Y11880000D02*
X57570000Y15944000D01*
X57570000Y15944000D02*
X56046000Y15944000D01*
%TO.C,C25*%
X64301000Y18357000D02*
X62777000Y18357000D01*
D14*
X62777000Y17214000D02*
X62777000Y16452000D01*
X64301000Y17214000D02*
X64301000Y16452000D01*
D11*
X62777000Y15309000D02*
X64301000Y15309000D01*
%TO.C,C44*%
X72429000Y30676000D02*
X70905000Y30676000D01*
D14*
X72429000Y28771000D02*
X72429000Y29533000D01*
X70905000Y28771000D02*
X70905000Y29533000D01*
D11*
X70905000Y27628000D02*
X72429000Y27628000D01*
D14*
%TO.C,C40*%
X73191000Y28771000D02*
X73191000Y29533000D01*
D11*
X73191000Y27628000D02*
X74715000Y27628000D01*
D14*
X74715000Y28771000D02*
X74715000Y29533000D01*
D11*
X74715000Y30676000D02*
X73191000Y30676000D01*
%TO.C,R24*%
X79795000Y23818000D02*
X79795000Y22294000D01*
X82843000Y22294000D02*
X82843000Y23818000D01*
D14*
X80938000Y23818000D02*
X81700000Y23818000D01*
X80938000Y22294000D02*
X81700000Y22294000D01*
D11*
%TO.C,C31*%
X71413000Y30993500D02*
X72937000Y30993500D01*
D14*
X72937000Y32898500D02*
X72937000Y32136500D01*
X71413000Y32898500D02*
X71413000Y32136500D01*
D11*
X72937000Y34041500D02*
X71413000Y34041500D01*
D14*
%TO.C,C27*%
X80557000Y28263000D02*
X81319000Y28263000D01*
X80557000Y26739000D02*
X81319000Y26739000D01*
D11*
X82462000Y26739000D02*
X82462000Y28263000D01*
X79414000Y28263000D02*
X79414000Y26739000D01*
D14*
%TO.C,C53*%
X54395000Y14674000D02*
X54395000Y13912000D01*
D11*
X52871000Y12769000D02*
X54395000Y12769000D01*
X54395000Y15817000D02*
X52871000Y15817000D01*
D14*
X52871000Y14674000D02*
X52871000Y13912000D01*
%TO.C,U8*%
X61264000Y15350000D02*
X59464000Y15350000D01*
X59464000Y18570000D02*
X61914000Y18570000D01*
D11*
%TO.C,U10*%
X68210000Y25153000D02*
X67535000Y25153000D01*
X68210000Y35503000D02*
X67535000Y35503000D01*
X57860000Y25153000D02*
X58535000Y25153000D01*
X57860000Y25728000D02*
X56585000Y25728000D01*
X57860000Y35503000D02*
X57860000Y34828000D01*
X68210000Y25153000D02*
X68210000Y25828000D01*
X57860000Y25153000D02*
X57860000Y25728000D01*
X68210000Y35503000D02*
X68210000Y34828000D01*
X57860000Y35503000D02*
X58535000Y35503000D01*
D14*
%TO.C,R20*%
X76556500Y27247000D02*
X77318500Y27247000D01*
X76556500Y28771000D02*
X77318500Y28771000D01*
D11*
X75413500Y28771000D02*
X75413500Y27247000D01*
X78461500Y27247000D02*
X78461500Y28771000D01*
%TO.C,C29*%
X77128000Y15309000D02*
X77128000Y16833000D01*
X77128000Y16833000D02*
X77128000Y16706000D01*
X73064000Y15309000D02*
X77128000Y15309000D01*
X77128000Y16833000D02*
X73064000Y16833000D01*
X73064000Y16833000D02*
X73064000Y15309000D01*
%TO.C,J22*%
X48680000Y29660000D02*
X48680000Y22040000D01*
X48680000Y22040000D02*
X53760000Y22040000D01*
X53760000Y22040000D02*
X53760000Y29660000D01*
X53760000Y29660000D02*
X48680000Y29660000D01*
D14*
%TO.C,R23*%
X50013500Y29914000D02*
X50775500Y29914000D01*
D11*
X51918500Y29914000D02*
X51918500Y31438000D01*
D14*
X50013500Y31438000D02*
X50775500Y31438000D01*
D11*
X48870500Y31438000D02*
X48870500Y29914000D01*
%TO.C,C26*%
X78144000Y26104000D02*
X78144000Y24580000D01*
X81192000Y24580000D02*
X81192000Y26104000D01*
D14*
X79287000Y24580000D02*
X80049000Y24580000D01*
X79287000Y26104000D02*
X80049000Y26104000D01*
D11*
%TO.C,C28*%
X82462000Y28771000D02*
X82462000Y30295000D01*
X79414000Y30295000D02*
X79414000Y28771000D01*
D14*
X80557000Y28771000D02*
X81319000Y28771000D01*
X80557000Y30295000D02*
X81319000Y30295000D01*
D11*
%TO.C,C30*%
X52109000Y35883000D02*
X52109000Y37407000D01*
D14*
X50204000Y37407000D02*
X50966000Y37407000D01*
X50204000Y35883000D02*
X50966000Y35883000D01*
D11*
X49061000Y37407000D02*
X49061000Y35883000D01*
%TO.C,C33*%
X52744000Y37407000D02*
X52744000Y35883000D01*
D14*
X54649000Y35883000D02*
X53887000Y35883000D01*
X54649000Y37407000D02*
X53887000Y37407000D01*
D11*
X55792000Y35883000D02*
X55792000Y37407000D01*
%TO.C,C34*%
X52236000Y29977500D02*
X53760000Y29977500D01*
D14*
X53760000Y31120500D02*
X53760000Y31882500D01*
D11*
X53760000Y33025500D02*
X52236000Y33025500D01*
D14*
X52236000Y31120500D02*
X52236000Y31882500D01*
%TO.C,C35*%
X63666000Y21151000D02*
X62904000Y21151000D01*
D11*
X64809000Y21151000D02*
X64809000Y22675000D01*
X61761000Y22675000D02*
X61761000Y21151000D01*
D14*
X63666000Y22675000D02*
X62904000Y22675000D01*
D11*
%TO.C,C39*%
X62396000Y38931000D02*
X62396000Y37407000D01*
D14*
X63539000Y37407000D02*
X64301000Y37407000D01*
X63539000Y38931000D02*
X64301000Y38931000D01*
D11*
X65444000Y37407000D02*
X65444000Y38931000D01*
D14*
%TO.C,C43*%
X80557000Y32454000D02*
X81319000Y32454000D01*
D11*
X79414000Y32454000D02*
X79414000Y30930000D01*
D14*
X80557000Y30930000D02*
X81319000Y30930000D01*
D11*
X82462000Y30930000D02*
X82462000Y32454000D01*
%TO.C,C47*%
X77509000Y23691000D02*
X75985000Y23691000D01*
D14*
X75985000Y22548000D02*
X75985000Y21786000D01*
D11*
X75985000Y20643000D02*
X77509000Y20643000D01*
D14*
X77509000Y22548000D02*
X77509000Y21786000D01*
D11*
%TO.C,L1*%
X73572000Y31184000D02*
X73572000Y33978000D01*
X76620000Y33978000D02*
X78144000Y33978000D01*
X75096000Y31184000D02*
X73572000Y31184000D01*
X78144000Y31184000D02*
X76620000Y31184000D01*
X76620000Y33978000D02*
X78144000Y33978000D01*
X78144000Y33978000D02*
X78144000Y31184000D01*
X73572000Y33978000D02*
X75096000Y33978000D01*
X78450605Y31057000D02*
G75*
G03*
X78450605Y31057000I-179605J0D01*
G01*
%TO.C,R21*%
X74461000Y26358000D02*
X74461000Y24834000D01*
D14*
X75604000Y24834000D02*
X76366000Y24834000D01*
D11*
X77509000Y24834000D02*
X77509000Y26358000D01*
D14*
X75604000Y26358000D02*
X76366000Y26358000D01*
D11*
%TO.C,U11*%
X70550000Y21939000D02*
X70825000Y21939000D01*
X73800000Y21939000D02*
X73800000Y25189000D01*
X70550000Y25189000D02*
X70825000Y25189000D01*
X73800000Y25189000D02*
X73525000Y25189000D01*
X73625000Y21939000D02*
X73625000Y20864000D01*
X70550000Y21939000D02*
X70550000Y25189000D01*
X73800000Y21939000D02*
X73625000Y21939000D01*
X73425000Y22564000D02*
G75*
G03*
X73425000Y22564000I-250000J0D01*
G01*
%TO.C,C23*%
X21375000Y32708000D02*
X22899000Y32708000D01*
X22899000Y35756000D02*
X21375000Y35756000D01*
D14*
X21375000Y34613000D02*
X21375000Y33851000D01*
X22899000Y34613000D02*
X22899000Y33851000D01*
D11*
%TO.C,C24*%
X17057000Y32771500D02*
X18581000Y32771500D01*
X18581000Y35819500D02*
X17057000Y35819500D01*
D14*
X18581000Y34676500D02*
X18581000Y33914500D01*
X17057000Y34676500D02*
X17057000Y33914500D01*
%TO.C,C32*%
X68492000Y13213500D02*
X68492000Y12451500D01*
X70016000Y13213500D02*
X70016000Y12451500D01*
D11*
X70016000Y14356500D02*
X68492000Y14356500D01*
X68492000Y11308500D02*
X70016000Y11308500D01*
%TO.C,C45*%
X73064000Y13277000D02*
X73064000Y11753000D01*
X77128000Y11753000D02*
X77128000Y13277000D01*
X77128000Y13277000D02*
X73064000Y13277000D01*
X73064000Y11753000D02*
X77128000Y11753000D01*
X77128000Y13277000D02*
X77128000Y13150000D01*
%TO.C,C48*%
X70905000Y11372000D02*
X72429000Y11372000D01*
D14*
X70905000Y13277000D02*
X70905000Y12515000D01*
X72429000Y13277000D02*
X72429000Y12515000D01*
D11*
X72429000Y14420000D02*
X70905000Y14420000D01*
%TO.C,C54*%
X47918000Y16960000D02*
X49442000Y16960000D01*
X49442000Y20008000D02*
X47918000Y20008000D01*
D14*
X49442000Y18865000D02*
X49442000Y18103000D01*
X47918000Y18865000D02*
X47918000Y18103000D01*
%TO.C,R15*%
X26391500Y37026000D02*
X27153500Y37026000D01*
D11*
X25248500Y38550000D02*
X25248500Y37026000D01*
D14*
X26391500Y38550000D02*
X27153500Y38550000D01*
D11*
X28296500Y37026000D02*
X28296500Y38550000D01*
D14*
%TO.C,R19*%
X22581500Y37026000D02*
X23343500Y37026000D01*
D11*
X21438500Y38550000D02*
X21438500Y37026000D01*
D14*
X22581500Y38550000D02*
X23343500Y38550000D01*
D11*
X24486500Y37026000D02*
X24486500Y38550000D01*
%TO.C,R22*%
X17628500Y38550000D02*
X17628500Y37026000D01*
D14*
X18771500Y37026000D02*
X19533500Y37026000D01*
X18771500Y38550000D02*
X19533500Y38550000D01*
D11*
X20676500Y37026000D02*
X20676500Y38550000D01*
%TD*%
M02*
