%TF.GenerationSoftware,KiCad,Pcbnew,7.0.9-7.0.9~ubuntu23.04.1*%
%TF.CreationDate,2023-12-09T00:16:29+00:00*%
%TF.ProjectId,USTSIPIN02,55535453-4950-4494-9e30-322e6b696361,02A*%
%TF.SameCoordinates,Original*%
%TF.FileFunction,Legend,Top*%
%TF.FilePolarity,Positive*%
%FSLAX46Y46*%
G04 Gerber Fmt 4.6, Leading zero omitted, Abs format (unit mm)*
G04 Created by KiCad (PCBNEW 7.0.9-7.0.9~ubuntu23.04.1) date 2023-12-09 00:16:29*
%MOMM*%
%LPD*%
G01*
G04 APERTURE LIST*
%ADD10C,0.150000*%
%ADD11C,0.300000*%
%ADD12C,0.200000*%
%ADD13C,0.100000*%
%ADD14C,0.120000*%
G04 APERTURE END LIST*
D10*
X126356741Y-94272527D02*
X136456741Y-94272527D01*
X136456741Y-100972527D01*
X126356741Y-100972527D01*
X126356741Y-94272527D01*
D11*
X126484711Y-111199580D02*
X126484711Y-112575770D01*
X126484711Y-112575770D02*
X126565664Y-112737675D01*
X126565664Y-112737675D02*
X126646616Y-112818628D01*
X126646616Y-112818628D02*
X126808521Y-112899580D01*
X126808521Y-112899580D02*
X127132330Y-112899580D01*
X127132330Y-112899580D02*
X127294235Y-112818628D01*
X127294235Y-112818628D02*
X127375188Y-112737675D01*
X127375188Y-112737675D02*
X127456140Y-112575770D01*
X127456140Y-112575770D02*
X127456140Y-111199580D01*
X128184711Y-112818628D02*
X128427568Y-112899580D01*
X128427568Y-112899580D02*
X128832330Y-112899580D01*
X128832330Y-112899580D02*
X128994235Y-112818628D01*
X128994235Y-112818628D02*
X129075187Y-112737675D01*
X129075187Y-112737675D02*
X129156140Y-112575770D01*
X129156140Y-112575770D02*
X129156140Y-112413866D01*
X129156140Y-112413866D02*
X129075187Y-112251961D01*
X129075187Y-112251961D02*
X128994235Y-112171008D01*
X128994235Y-112171008D02*
X128832330Y-112090056D01*
X128832330Y-112090056D02*
X128508521Y-112009104D01*
X128508521Y-112009104D02*
X128346616Y-111928151D01*
X128346616Y-111928151D02*
X128265663Y-111847199D01*
X128265663Y-111847199D02*
X128184711Y-111685294D01*
X128184711Y-111685294D02*
X128184711Y-111523389D01*
X128184711Y-111523389D02*
X128265663Y-111361485D01*
X128265663Y-111361485D02*
X128346616Y-111280532D01*
X128346616Y-111280532D02*
X128508521Y-111199580D01*
X128508521Y-111199580D02*
X128913282Y-111199580D01*
X128913282Y-111199580D02*
X129156140Y-111280532D01*
X129641854Y-111199580D02*
X130613283Y-111199580D01*
X130127569Y-112899580D02*
X130127569Y-111199580D01*
X131098997Y-112818628D02*
X131341854Y-112899580D01*
X131341854Y-112899580D02*
X131746616Y-112899580D01*
X131746616Y-112899580D02*
X131908521Y-112818628D01*
X131908521Y-112818628D02*
X131989473Y-112737675D01*
X131989473Y-112737675D02*
X132070426Y-112575770D01*
X132070426Y-112575770D02*
X132070426Y-112413866D01*
X132070426Y-112413866D02*
X131989473Y-112251961D01*
X131989473Y-112251961D02*
X131908521Y-112171008D01*
X131908521Y-112171008D02*
X131746616Y-112090056D01*
X131746616Y-112090056D02*
X131422807Y-112009104D01*
X131422807Y-112009104D02*
X131260902Y-111928151D01*
X131260902Y-111928151D02*
X131179949Y-111847199D01*
X131179949Y-111847199D02*
X131098997Y-111685294D01*
X131098997Y-111685294D02*
X131098997Y-111523389D01*
X131098997Y-111523389D02*
X131179949Y-111361485D01*
X131179949Y-111361485D02*
X131260902Y-111280532D01*
X131260902Y-111280532D02*
X131422807Y-111199580D01*
X131422807Y-111199580D02*
X131827568Y-111199580D01*
X131827568Y-111199580D02*
X132070426Y-111280532D01*
X132798997Y-112899580D02*
X132798997Y-111199580D01*
X133608521Y-112899580D02*
X133608521Y-111199580D01*
X133608521Y-111199580D02*
X134256140Y-111199580D01*
X134256140Y-111199580D02*
X134418045Y-111280532D01*
X134418045Y-111280532D02*
X134498998Y-111361485D01*
X134498998Y-111361485D02*
X134579950Y-111523389D01*
X134579950Y-111523389D02*
X134579950Y-111766247D01*
X134579950Y-111766247D02*
X134498998Y-111928151D01*
X134498998Y-111928151D02*
X134418045Y-112009104D01*
X134418045Y-112009104D02*
X134256140Y-112090056D01*
X134256140Y-112090056D02*
X133608521Y-112090056D01*
X135308521Y-112899580D02*
X135308521Y-111199580D01*
X136118045Y-112899580D02*
X136118045Y-111199580D01*
X136118045Y-111199580D02*
X137089474Y-112899580D01*
X137089474Y-112899580D02*
X137089474Y-111199580D01*
X138222807Y-111199580D02*
X138384712Y-111199580D01*
X138384712Y-111199580D02*
X138546616Y-111280532D01*
X138546616Y-111280532D02*
X138627569Y-111361485D01*
X138627569Y-111361485D02*
X138708521Y-111523389D01*
X138708521Y-111523389D02*
X138789474Y-111847199D01*
X138789474Y-111847199D02*
X138789474Y-112251961D01*
X138789474Y-112251961D02*
X138708521Y-112575770D01*
X138708521Y-112575770D02*
X138627569Y-112737675D01*
X138627569Y-112737675D02*
X138546616Y-112818628D01*
X138546616Y-112818628D02*
X138384712Y-112899580D01*
X138384712Y-112899580D02*
X138222807Y-112899580D01*
X138222807Y-112899580D02*
X138060902Y-112818628D01*
X138060902Y-112818628D02*
X137979950Y-112737675D01*
X137979950Y-112737675D02*
X137898997Y-112575770D01*
X137898997Y-112575770D02*
X137818045Y-112251961D01*
X137818045Y-112251961D02*
X137818045Y-111847199D01*
X137818045Y-111847199D02*
X137898997Y-111523389D01*
X137898997Y-111523389D02*
X137979950Y-111361485D01*
X137979950Y-111361485D02*
X138060902Y-111280532D01*
X138060902Y-111280532D02*
X138222807Y-111199580D01*
X139437093Y-111361485D02*
X139518045Y-111280532D01*
X139518045Y-111280532D02*
X139679950Y-111199580D01*
X139679950Y-111199580D02*
X140084712Y-111199580D01*
X140084712Y-111199580D02*
X140246617Y-111280532D01*
X140246617Y-111280532D02*
X140327569Y-111361485D01*
X140327569Y-111361485D02*
X140408522Y-111523389D01*
X140408522Y-111523389D02*
X140408522Y-111685294D01*
X140408522Y-111685294D02*
X140327569Y-111928151D01*
X140327569Y-111928151D02*
X139356141Y-112899580D01*
X139356141Y-112899580D02*
X140408522Y-112899580D01*
X141703760Y-112009104D02*
X141946617Y-112090056D01*
X141946617Y-112090056D02*
X142027570Y-112171008D01*
X142027570Y-112171008D02*
X142108522Y-112332913D01*
X142108522Y-112332913D02*
X142108522Y-112575770D01*
X142108522Y-112575770D02*
X142027570Y-112737675D01*
X142027570Y-112737675D02*
X141946617Y-112818628D01*
X141946617Y-112818628D02*
X141784712Y-112899580D01*
X141784712Y-112899580D02*
X141137093Y-112899580D01*
X141137093Y-112899580D02*
X141137093Y-111199580D01*
X141137093Y-111199580D02*
X141703760Y-111199580D01*
X141703760Y-111199580D02*
X141865665Y-111280532D01*
X141865665Y-111280532D02*
X141946617Y-111361485D01*
X141946617Y-111361485D02*
X142027570Y-111523389D01*
X142027570Y-111523389D02*
X142027570Y-111685294D01*
X142027570Y-111685294D02*
X141946617Y-111847199D01*
X141946617Y-111847199D02*
X141865665Y-111928151D01*
X141865665Y-111928151D02*
X141703760Y-112009104D01*
X141703760Y-112009104D02*
X141137093Y-112009104D01*
X186231526Y-103600354D02*
X186160098Y-103528926D01*
X186160098Y-103528926D02*
X186088669Y-103386069D01*
X186088669Y-103386069D02*
X186088669Y-103028926D01*
X186088669Y-103028926D02*
X186160098Y-102886069D01*
X186160098Y-102886069D02*
X186231526Y-102814640D01*
X186231526Y-102814640D02*
X186374383Y-102743211D01*
X186374383Y-102743211D02*
X186517241Y-102743211D01*
X186517241Y-102743211D02*
X186731526Y-102814640D01*
X186731526Y-102814640D02*
X187588669Y-103671783D01*
X187588669Y-103671783D02*
X187588669Y-102743211D01*
X186088669Y-101814640D02*
X186088669Y-101671783D01*
X186088669Y-101671783D02*
X186160098Y-101528926D01*
X186160098Y-101528926D02*
X186231526Y-101457498D01*
X186231526Y-101457498D02*
X186374383Y-101386069D01*
X186374383Y-101386069D02*
X186660098Y-101314640D01*
X186660098Y-101314640D02*
X187017241Y-101314640D01*
X187017241Y-101314640D02*
X187302955Y-101386069D01*
X187302955Y-101386069D02*
X187445812Y-101457498D01*
X187445812Y-101457498D02*
X187517241Y-101528926D01*
X187517241Y-101528926D02*
X187588669Y-101671783D01*
X187588669Y-101671783D02*
X187588669Y-101814640D01*
X187588669Y-101814640D02*
X187517241Y-101957498D01*
X187517241Y-101957498D02*
X187445812Y-102028926D01*
X187445812Y-102028926D02*
X187302955Y-102100355D01*
X187302955Y-102100355D02*
X187017241Y-102171783D01*
X187017241Y-102171783D02*
X186660098Y-102171783D01*
X186660098Y-102171783D02*
X186374383Y-102100355D01*
X186374383Y-102100355D02*
X186231526Y-102028926D01*
X186231526Y-102028926D02*
X186160098Y-101957498D01*
X186160098Y-101957498D02*
X186088669Y-101814640D01*
X186231526Y-100743212D02*
X186160098Y-100671784D01*
X186160098Y-100671784D02*
X186088669Y-100528927D01*
X186088669Y-100528927D02*
X186088669Y-100171784D01*
X186088669Y-100171784D02*
X186160098Y-100028927D01*
X186160098Y-100028927D02*
X186231526Y-99957498D01*
X186231526Y-99957498D02*
X186374383Y-99886069D01*
X186374383Y-99886069D02*
X186517241Y-99886069D01*
X186517241Y-99886069D02*
X186731526Y-99957498D01*
X186731526Y-99957498D02*
X187588669Y-100814641D01*
X187588669Y-100814641D02*
X187588669Y-99886069D01*
X186088669Y-99386070D02*
X186088669Y-98457498D01*
X186088669Y-98457498D02*
X186660098Y-98957498D01*
X186660098Y-98957498D02*
X186660098Y-98743213D01*
X186660098Y-98743213D02*
X186731526Y-98600356D01*
X186731526Y-98600356D02*
X186802955Y-98528927D01*
X186802955Y-98528927D02*
X186945812Y-98457498D01*
X186945812Y-98457498D02*
X187302955Y-98457498D01*
X187302955Y-98457498D02*
X187445812Y-98528927D01*
X187445812Y-98528927D02*
X187517241Y-98600356D01*
X187517241Y-98600356D02*
X187588669Y-98743213D01*
X187588669Y-98743213D02*
X187588669Y-99171784D01*
X187588669Y-99171784D02*
X187517241Y-99314641D01*
X187517241Y-99314641D02*
X187445812Y-99386070D01*
D12*
X127978795Y-95032436D02*
X127854985Y-94970531D01*
X127854985Y-94970531D02*
X127669271Y-94970531D01*
X127669271Y-94970531D02*
X127483557Y-95032436D01*
X127483557Y-95032436D02*
X127359747Y-95156246D01*
X127359747Y-95156246D02*
X127297842Y-95280055D01*
X127297842Y-95280055D02*
X127235938Y-95527674D01*
X127235938Y-95527674D02*
X127235938Y-95713388D01*
X127235938Y-95713388D02*
X127297842Y-95961007D01*
X127297842Y-95961007D02*
X127359747Y-96084817D01*
X127359747Y-96084817D02*
X127483557Y-96208627D01*
X127483557Y-96208627D02*
X127669271Y-96270531D01*
X127669271Y-96270531D02*
X127793080Y-96270531D01*
X127793080Y-96270531D02*
X127978795Y-96208627D01*
X127978795Y-96208627D02*
X128040699Y-96146722D01*
X128040699Y-96146722D02*
X128040699Y-95713388D01*
X128040699Y-95713388D02*
X127793080Y-95713388D01*
X128597842Y-96270531D02*
X128597842Y-94970531D01*
X128597842Y-94970531D02*
X129340699Y-96270531D01*
X129340699Y-96270531D02*
X129340699Y-94970531D01*
X129959747Y-96270531D02*
X129959747Y-94970531D01*
X129959747Y-94970531D02*
X130269271Y-94970531D01*
X130269271Y-94970531D02*
X130454985Y-95032436D01*
X130454985Y-95032436D02*
X130578795Y-95156246D01*
X130578795Y-95156246D02*
X130640700Y-95280055D01*
X130640700Y-95280055D02*
X130702604Y-95527674D01*
X130702604Y-95527674D02*
X130702604Y-95713388D01*
X130702604Y-95713388D02*
X130640700Y-95961007D01*
X130640700Y-95961007D02*
X130578795Y-96084817D01*
X130578795Y-96084817D02*
X130454985Y-96208627D01*
X130454985Y-96208627D02*
X130269271Y-96270531D01*
X130269271Y-96270531D02*
X129959747Y-96270531D01*
X127297842Y-98363531D02*
X127297842Y-97063531D01*
X127297842Y-97063531D02*
X127793080Y-97063531D01*
X127793080Y-97063531D02*
X127916890Y-97125436D01*
X127916890Y-97125436D02*
X127978795Y-97187341D01*
X127978795Y-97187341D02*
X128040699Y-97311150D01*
X128040699Y-97311150D02*
X128040699Y-97496865D01*
X128040699Y-97496865D02*
X127978795Y-97620674D01*
X127978795Y-97620674D02*
X127916890Y-97682579D01*
X127916890Y-97682579D02*
X127793080Y-97744484D01*
X127793080Y-97744484D02*
X127297842Y-97744484D01*
X129031176Y-97682579D02*
X129216890Y-97744484D01*
X129216890Y-97744484D02*
X129278795Y-97806388D01*
X129278795Y-97806388D02*
X129340699Y-97930198D01*
X129340699Y-97930198D02*
X129340699Y-98115912D01*
X129340699Y-98115912D02*
X129278795Y-98239722D01*
X129278795Y-98239722D02*
X129216890Y-98301627D01*
X129216890Y-98301627D02*
X129093080Y-98363531D01*
X129093080Y-98363531D02*
X128597842Y-98363531D01*
X128597842Y-98363531D02*
X128597842Y-97063531D01*
X128597842Y-97063531D02*
X129031176Y-97063531D01*
X129031176Y-97063531D02*
X129154985Y-97125436D01*
X129154985Y-97125436D02*
X129216890Y-97187341D01*
X129216890Y-97187341D02*
X129278795Y-97311150D01*
X129278795Y-97311150D02*
X129278795Y-97434960D01*
X129278795Y-97434960D02*
X129216890Y-97558769D01*
X129216890Y-97558769D02*
X129154985Y-97620674D01*
X129154985Y-97620674D02*
X129031176Y-97682579D01*
X129031176Y-97682579D02*
X128597842Y-97682579D01*
X130516890Y-97063531D02*
X129897842Y-97063531D01*
X129897842Y-97063531D02*
X129835938Y-97682579D01*
X129835938Y-97682579D02*
X129897842Y-97620674D01*
X129897842Y-97620674D02*
X130021652Y-97558769D01*
X130021652Y-97558769D02*
X130331176Y-97558769D01*
X130331176Y-97558769D02*
X130454985Y-97620674D01*
X130454985Y-97620674D02*
X130516890Y-97682579D01*
X130516890Y-97682579D02*
X130578795Y-97806388D01*
X130578795Y-97806388D02*
X130578795Y-98115912D01*
X130578795Y-98115912D02*
X130516890Y-98239722D01*
X130516890Y-98239722D02*
X130454985Y-98301627D01*
X130454985Y-98301627D02*
X130331176Y-98363531D01*
X130331176Y-98363531D02*
X130021652Y-98363531D01*
X130021652Y-98363531D02*
X129897842Y-98301627D01*
X129897842Y-98301627D02*
X129835938Y-98239722D01*
X127174033Y-99156531D02*
X127978795Y-99156531D01*
X127978795Y-99156531D02*
X127545461Y-99651769D01*
X127545461Y-99651769D02*
X127731176Y-99651769D01*
X127731176Y-99651769D02*
X127854985Y-99713674D01*
X127854985Y-99713674D02*
X127916890Y-99775579D01*
X127916890Y-99775579D02*
X127978795Y-99899388D01*
X127978795Y-99899388D02*
X127978795Y-100208912D01*
X127978795Y-100208912D02*
X127916890Y-100332722D01*
X127916890Y-100332722D02*
X127854985Y-100394627D01*
X127854985Y-100394627D02*
X127731176Y-100456531D01*
X127731176Y-100456531D02*
X127359747Y-100456531D01*
X127359747Y-100456531D02*
X127235938Y-100394627D01*
X127235938Y-100394627D02*
X127174033Y-100332722D01*
X128350223Y-99156531D02*
X128783556Y-100456531D01*
X128783556Y-100456531D02*
X129216890Y-99156531D01*
X129526414Y-99156531D02*
X130331176Y-99156531D01*
X130331176Y-99156531D02*
X129897842Y-99651769D01*
X129897842Y-99651769D02*
X130083557Y-99651769D01*
X130083557Y-99651769D02*
X130207366Y-99713674D01*
X130207366Y-99713674D02*
X130269271Y-99775579D01*
X130269271Y-99775579D02*
X130331176Y-99899388D01*
X130331176Y-99899388D02*
X130331176Y-100208912D01*
X130331176Y-100208912D02*
X130269271Y-100332722D01*
X130269271Y-100332722D02*
X130207366Y-100394627D01*
X130207366Y-100394627D02*
X130083557Y-100456531D01*
X130083557Y-100456531D02*
X129712128Y-100456531D01*
X129712128Y-100456531D02*
X129588319Y-100394627D01*
X129588319Y-100394627D02*
X129526414Y-100332722D01*
X166417345Y-79842926D02*
X165117345Y-79842926D01*
X165117345Y-79842926D02*
X165117345Y-79385783D01*
X165117345Y-79385783D02*
X165179250Y-79271498D01*
X165179250Y-79271498D02*
X165241155Y-79214355D01*
X165241155Y-79214355D02*
X165364964Y-79157212D01*
X165364964Y-79157212D02*
X165550679Y-79157212D01*
X165550679Y-79157212D02*
X165674488Y-79214355D01*
X165674488Y-79214355D02*
X165736393Y-79271498D01*
X165736393Y-79271498D02*
X165798298Y-79385783D01*
X165798298Y-79385783D02*
X165798298Y-79842926D01*
X165117345Y-78757212D02*
X166417345Y-78471498D01*
X166417345Y-78471498D02*
X165488774Y-78242926D01*
X165488774Y-78242926D02*
X166417345Y-78014355D01*
X166417345Y-78014355D02*
X165117345Y-77728641D01*
X166417345Y-76585783D02*
X165798298Y-76985783D01*
X166417345Y-77271497D02*
X165117345Y-77271497D01*
X165117345Y-77271497D02*
X165117345Y-76814354D01*
X165117345Y-76814354D02*
X165179250Y-76700069D01*
X165179250Y-76700069D02*
X165241155Y-76642926D01*
X165241155Y-76642926D02*
X165364964Y-76585783D01*
X165364964Y-76585783D02*
X165550679Y-76585783D01*
X165550679Y-76585783D02*
X165674488Y-76642926D01*
X165674488Y-76642926D02*
X165736393Y-76700069D01*
X165736393Y-76700069D02*
X165798298Y-76814354D01*
X165798298Y-76814354D02*
X165798298Y-77271497D01*
X132440699Y-96270531D02*
X132007366Y-95651484D01*
X131697842Y-96270531D02*
X131697842Y-94970531D01*
X131697842Y-94970531D02*
X132193080Y-94970531D01*
X132193080Y-94970531D02*
X132316890Y-95032436D01*
X132316890Y-95032436D02*
X132378795Y-95094341D01*
X132378795Y-95094341D02*
X132440699Y-95218150D01*
X132440699Y-95218150D02*
X132440699Y-95403865D01*
X132440699Y-95403865D02*
X132378795Y-95527674D01*
X132378795Y-95527674D02*
X132316890Y-95589579D01*
X132316890Y-95589579D02*
X132193080Y-95651484D01*
X132193080Y-95651484D02*
X131697842Y-95651484D01*
X132935938Y-96208627D02*
X133121652Y-96270531D01*
X133121652Y-96270531D02*
X133431176Y-96270531D01*
X133431176Y-96270531D02*
X133554985Y-96208627D01*
X133554985Y-96208627D02*
X133616890Y-96146722D01*
X133616890Y-96146722D02*
X133678795Y-96022912D01*
X133678795Y-96022912D02*
X133678795Y-95899103D01*
X133678795Y-95899103D02*
X133616890Y-95775293D01*
X133616890Y-95775293D02*
X133554985Y-95713388D01*
X133554985Y-95713388D02*
X133431176Y-95651484D01*
X133431176Y-95651484D02*
X133183557Y-95589579D01*
X133183557Y-95589579D02*
X133059747Y-95527674D01*
X133059747Y-95527674D02*
X132997842Y-95465769D01*
X132997842Y-95465769D02*
X132935938Y-95341960D01*
X132935938Y-95341960D02*
X132935938Y-95218150D01*
X132935938Y-95218150D02*
X132997842Y-95094341D01*
X132997842Y-95094341D02*
X133059747Y-95032436D01*
X133059747Y-95032436D02*
X133183557Y-94970531D01*
X133183557Y-94970531D02*
X133493080Y-94970531D01*
X133493080Y-94970531D02*
X133678795Y-95032436D01*
X134050223Y-94970531D02*
X134793080Y-94970531D01*
X134421652Y-96270531D02*
X134421652Y-94970531D01*
X131518319Y-94609627D02*
X134786890Y-94609627D01*
X131697842Y-98363531D02*
X131697842Y-97063531D01*
X131697842Y-97063531D02*
X132193080Y-97063531D01*
X132193080Y-97063531D02*
X132316890Y-97125436D01*
X132316890Y-97125436D02*
X132378795Y-97187341D01*
X132378795Y-97187341D02*
X132440699Y-97311150D01*
X132440699Y-97311150D02*
X132440699Y-97496865D01*
X132440699Y-97496865D02*
X132378795Y-97620674D01*
X132378795Y-97620674D02*
X132316890Y-97682579D01*
X132316890Y-97682579D02*
X132193080Y-97744484D01*
X132193080Y-97744484D02*
X131697842Y-97744484D01*
X133431176Y-97682579D02*
X133616890Y-97744484D01*
X133616890Y-97744484D02*
X133678795Y-97806388D01*
X133678795Y-97806388D02*
X133740699Y-97930198D01*
X133740699Y-97930198D02*
X133740699Y-98115912D01*
X133740699Y-98115912D02*
X133678795Y-98239722D01*
X133678795Y-98239722D02*
X133616890Y-98301627D01*
X133616890Y-98301627D02*
X133493080Y-98363531D01*
X133493080Y-98363531D02*
X132997842Y-98363531D01*
X132997842Y-98363531D02*
X132997842Y-97063531D01*
X132997842Y-97063531D02*
X133431176Y-97063531D01*
X133431176Y-97063531D02*
X133554985Y-97125436D01*
X133554985Y-97125436D02*
X133616890Y-97187341D01*
X133616890Y-97187341D02*
X133678795Y-97311150D01*
X133678795Y-97311150D02*
X133678795Y-97434960D01*
X133678795Y-97434960D02*
X133616890Y-97558769D01*
X133616890Y-97558769D02*
X133554985Y-97620674D01*
X133554985Y-97620674D02*
X133431176Y-97682579D01*
X133431176Y-97682579D02*
X132997842Y-97682579D01*
X134174033Y-97063531D02*
X135040699Y-97063531D01*
X135040699Y-97063531D02*
X134483557Y-98363531D01*
X131697842Y-100456531D02*
X131697842Y-99156531D01*
X131697842Y-99156531D02*
X132193080Y-99156531D01*
X132193080Y-99156531D02*
X132316890Y-99218436D01*
X132316890Y-99218436D02*
X132378795Y-99280341D01*
X132378795Y-99280341D02*
X132440699Y-99404150D01*
X132440699Y-99404150D02*
X132440699Y-99589865D01*
X132440699Y-99589865D02*
X132378795Y-99713674D01*
X132378795Y-99713674D02*
X132316890Y-99775579D01*
X132316890Y-99775579D02*
X132193080Y-99837484D01*
X132193080Y-99837484D02*
X131697842Y-99837484D01*
X133431176Y-99775579D02*
X133616890Y-99837484D01*
X133616890Y-99837484D02*
X133678795Y-99899388D01*
X133678795Y-99899388D02*
X133740699Y-100023198D01*
X133740699Y-100023198D02*
X133740699Y-100208912D01*
X133740699Y-100208912D02*
X133678795Y-100332722D01*
X133678795Y-100332722D02*
X133616890Y-100394627D01*
X133616890Y-100394627D02*
X133493080Y-100456531D01*
X133493080Y-100456531D02*
X132997842Y-100456531D01*
X132997842Y-100456531D02*
X132997842Y-99156531D01*
X132997842Y-99156531D02*
X133431176Y-99156531D01*
X133431176Y-99156531D02*
X133554985Y-99218436D01*
X133554985Y-99218436D02*
X133616890Y-99280341D01*
X133616890Y-99280341D02*
X133678795Y-99404150D01*
X133678795Y-99404150D02*
X133678795Y-99527960D01*
X133678795Y-99527960D02*
X133616890Y-99651769D01*
X133616890Y-99651769D02*
X133554985Y-99713674D01*
X133554985Y-99713674D02*
X133431176Y-99775579D01*
X133431176Y-99775579D02*
X132997842Y-99775579D01*
X134854985Y-99156531D02*
X134607366Y-99156531D01*
X134607366Y-99156531D02*
X134483557Y-99218436D01*
X134483557Y-99218436D02*
X134421652Y-99280341D01*
X134421652Y-99280341D02*
X134297842Y-99466055D01*
X134297842Y-99466055D02*
X134235938Y-99713674D01*
X134235938Y-99713674D02*
X134235938Y-100208912D01*
X134235938Y-100208912D02*
X134297842Y-100332722D01*
X134297842Y-100332722D02*
X134359747Y-100394627D01*
X134359747Y-100394627D02*
X134483557Y-100456531D01*
X134483557Y-100456531D02*
X134731176Y-100456531D01*
X134731176Y-100456531D02*
X134854985Y-100394627D01*
X134854985Y-100394627D02*
X134916890Y-100332722D01*
X134916890Y-100332722D02*
X134978795Y-100208912D01*
X134978795Y-100208912D02*
X134978795Y-99899388D01*
X134978795Y-99899388D02*
X134916890Y-99775579D01*
X134916890Y-99775579D02*
X134854985Y-99713674D01*
X134854985Y-99713674D02*
X134731176Y-99651769D01*
X134731176Y-99651769D02*
X134483557Y-99651769D01*
X134483557Y-99651769D02*
X134359747Y-99713674D01*
X134359747Y-99713674D02*
X134297842Y-99775579D01*
X134297842Y-99775579D02*
X134235938Y-99899388D01*
X129018808Y-114697865D02*
X129018808Y-115564531D01*
X128461665Y-114697865D02*
X128461665Y-115378817D01*
X128461665Y-115378817D02*
X128523570Y-115502627D01*
X128523570Y-115502627D02*
X128647380Y-115564531D01*
X128647380Y-115564531D02*
X128833094Y-115564531D01*
X128833094Y-115564531D02*
X128956903Y-115502627D01*
X128956903Y-115502627D02*
X129018808Y-115440722D01*
X129575951Y-115502627D02*
X129699760Y-115564531D01*
X129699760Y-115564531D02*
X129947379Y-115564531D01*
X129947379Y-115564531D02*
X130071189Y-115502627D01*
X130071189Y-115502627D02*
X130133093Y-115378817D01*
X130133093Y-115378817D02*
X130133093Y-115316912D01*
X130133093Y-115316912D02*
X130071189Y-115193103D01*
X130071189Y-115193103D02*
X129947379Y-115131198D01*
X129947379Y-115131198D02*
X129761665Y-115131198D01*
X129761665Y-115131198D02*
X129637855Y-115069293D01*
X129637855Y-115069293D02*
X129575951Y-114945484D01*
X129575951Y-114945484D02*
X129575951Y-114883579D01*
X129575951Y-114883579D02*
X129637855Y-114759769D01*
X129637855Y-114759769D02*
X129761665Y-114697865D01*
X129761665Y-114697865D02*
X129947379Y-114697865D01*
X129947379Y-114697865D02*
X130071189Y-114759769D01*
X130504522Y-114697865D02*
X130999760Y-114697865D01*
X130690236Y-114264531D02*
X130690236Y-115378817D01*
X130690236Y-115378817D02*
X130752141Y-115502627D01*
X130752141Y-115502627D02*
X130875951Y-115564531D01*
X130875951Y-115564531D02*
X130999760Y-115564531D01*
X131433093Y-115440722D02*
X131494998Y-115502627D01*
X131494998Y-115502627D02*
X131433093Y-115564531D01*
X131433093Y-115564531D02*
X131371189Y-115502627D01*
X131371189Y-115502627D02*
X131433093Y-115440722D01*
X131433093Y-115440722D02*
X131433093Y-115564531D01*
X132609284Y-115502627D02*
X132485475Y-115564531D01*
X132485475Y-115564531D02*
X132237856Y-115564531D01*
X132237856Y-115564531D02*
X132114046Y-115502627D01*
X132114046Y-115502627D02*
X132052141Y-115440722D01*
X132052141Y-115440722D02*
X131990237Y-115316912D01*
X131990237Y-115316912D02*
X131990237Y-114945484D01*
X131990237Y-114945484D02*
X132052141Y-114821674D01*
X132052141Y-114821674D02*
X132114046Y-114759769D01*
X132114046Y-114759769D02*
X132237856Y-114697865D01*
X132237856Y-114697865D02*
X132485475Y-114697865D01*
X132485475Y-114697865D02*
X132609284Y-114759769D01*
X133042618Y-114697865D02*
X133723570Y-114697865D01*
X133723570Y-114697865D02*
X133042618Y-115564531D01*
X133042618Y-115564531D02*
X133723570Y-115564531D01*
X135147380Y-114388341D02*
X135209284Y-114326436D01*
X135209284Y-114326436D02*
X135333094Y-114264531D01*
X135333094Y-114264531D02*
X135642618Y-114264531D01*
X135642618Y-114264531D02*
X135766427Y-114326436D01*
X135766427Y-114326436D02*
X135828332Y-114388341D01*
X135828332Y-114388341D02*
X135890237Y-114512150D01*
X135890237Y-114512150D02*
X135890237Y-114635960D01*
X135890237Y-114635960D02*
X135828332Y-114821674D01*
X135828332Y-114821674D02*
X135085475Y-115564531D01*
X135085475Y-115564531D02*
X135890237Y-115564531D01*
X136694998Y-114264531D02*
X136818808Y-114264531D01*
X136818808Y-114264531D02*
X136942617Y-114326436D01*
X136942617Y-114326436D02*
X137004522Y-114388341D01*
X137004522Y-114388341D02*
X137066427Y-114512150D01*
X137066427Y-114512150D02*
X137128332Y-114759769D01*
X137128332Y-114759769D02*
X137128332Y-115069293D01*
X137128332Y-115069293D02*
X137066427Y-115316912D01*
X137066427Y-115316912D02*
X137004522Y-115440722D01*
X137004522Y-115440722D02*
X136942617Y-115502627D01*
X136942617Y-115502627D02*
X136818808Y-115564531D01*
X136818808Y-115564531D02*
X136694998Y-115564531D01*
X136694998Y-115564531D02*
X136571189Y-115502627D01*
X136571189Y-115502627D02*
X136509284Y-115440722D01*
X136509284Y-115440722D02*
X136447379Y-115316912D01*
X136447379Y-115316912D02*
X136385475Y-115069293D01*
X136385475Y-115069293D02*
X136385475Y-114759769D01*
X136385475Y-114759769D02*
X136447379Y-114512150D01*
X136447379Y-114512150D02*
X136509284Y-114388341D01*
X136509284Y-114388341D02*
X136571189Y-114326436D01*
X136571189Y-114326436D02*
X136694998Y-114264531D01*
X137623570Y-114388341D02*
X137685474Y-114326436D01*
X137685474Y-114326436D02*
X137809284Y-114264531D01*
X137809284Y-114264531D02*
X138118808Y-114264531D01*
X138118808Y-114264531D02*
X138242617Y-114326436D01*
X138242617Y-114326436D02*
X138304522Y-114388341D01*
X138304522Y-114388341D02*
X138366427Y-114512150D01*
X138366427Y-114512150D02*
X138366427Y-114635960D01*
X138366427Y-114635960D02*
X138304522Y-114821674D01*
X138304522Y-114821674D02*
X137561665Y-115564531D01*
X137561665Y-115564531D02*
X138366427Y-115564531D01*
X138799760Y-114264531D02*
X139604522Y-114264531D01*
X139604522Y-114264531D02*
X139171188Y-114759769D01*
X139171188Y-114759769D02*
X139356903Y-114759769D01*
X139356903Y-114759769D02*
X139480712Y-114821674D01*
X139480712Y-114821674D02*
X139542617Y-114883579D01*
X139542617Y-114883579D02*
X139604522Y-115007388D01*
X139604522Y-115007388D02*
X139604522Y-115316912D01*
X139604522Y-115316912D02*
X139542617Y-115440722D01*
X139542617Y-115440722D02*
X139480712Y-115502627D01*
X139480712Y-115502627D02*
X139356903Y-115564531D01*
X139356903Y-115564531D02*
X138985474Y-115564531D01*
X138985474Y-115564531D02*
X138861665Y-115502627D01*
X138861665Y-115502627D02*
X138799760Y-115440722D01*
X152090283Y-116204069D02*
X151518855Y-116204069D01*
X151518855Y-116204069D02*
X151518855Y-115004069D01*
X152490284Y-115575498D02*
X152890284Y-115575498D01*
X153061712Y-116204069D02*
X152490284Y-116204069D01*
X152490284Y-116204069D02*
X152490284Y-115004069D01*
X152490284Y-115004069D02*
X153061712Y-115004069D01*
X153575998Y-116204069D02*
X153575998Y-115004069D01*
X153575998Y-115004069D02*
X153861712Y-115004069D01*
X153861712Y-115004069D02*
X154033141Y-115061212D01*
X154033141Y-115061212D02*
X154147426Y-115175498D01*
X154147426Y-115175498D02*
X154204569Y-115289784D01*
X154204569Y-115289784D02*
X154261712Y-115518355D01*
X154261712Y-115518355D02*
X154261712Y-115689784D01*
X154261712Y-115689784D02*
X154204569Y-115918355D01*
X154204569Y-115918355D02*
X154147426Y-116032641D01*
X154147426Y-116032641D02*
X154033141Y-116146927D01*
X154033141Y-116146927D02*
X153861712Y-116204069D01*
X153861712Y-116204069D02*
X153575998Y-116204069D01*
X154718855Y-115118355D02*
X154775998Y-115061212D01*
X154775998Y-115061212D02*
X154890284Y-115004069D01*
X154890284Y-115004069D02*
X155175998Y-115004069D01*
X155175998Y-115004069D02*
X155290284Y-115061212D01*
X155290284Y-115061212D02*
X155347426Y-115118355D01*
X155347426Y-115118355D02*
X155404569Y-115232641D01*
X155404569Y-115232641D02*
X155404569Y-115346927D01*
X155404569Y-115346927D02*
X155347426Y-115518355D01*
X155347426Y-115518355D02*
X154661712Y-116204069D01*
X154661712Y-116204069D02*
X155404569Y-116204069D01*
X147010283Y-116305669D02*
X146438855Y-116305669D01*
X146438855Y-116305669D02*
X146438855Y-115105669D01*
X147410284Y-115677098D02*
X147810284Y-115677098D01*
X147981712Y-116305669D02*
X147410284Y-116305669D01*
X147410284Y-116305669D02*
X147410284Y-115105669D01*
X147410284Y-115105669D02*
X147981712Y-115105669D01*
X148495998Y-116305669D02*
X148495998Y-115105669D01*
X148495998Y-115105669D02*
X148781712Y-115105669D01*
X148781712Y-115105669D02*
X148953141Y-115162812D01*
X148953141Y-115162812D02*
X149067426Y-115277098D01*
X149067426Y-115277098D02*
X149124569Y-115391384D01*
X149124569Y-115391384D02*
X149181712Y-115619955D01*
X149181712Y-115619955D02*
X149181712Y-115791384D01*
X149181712Y-115791384D02*
X149124569Y-116019955D01*
X149124569Y-116019955D02*
X149067426Y-116134241D01*
X149067426Y-116134241D02*
X148953141Y-116248527D01*
X148953141Y-116248527D02*
X148781712Y-116305669D01*
X148781712Y-116305669D02*
X148495998Y-116305669D01*
X150324569Y-116305669D02*
X149638855Y-116305669D01*
X149981712Y-116305669D02*
X149981712Y-115105669D01*
X149981712Y-115105669D02*
X149867426Y-115277098D01*
X149867426Y-115277098D02*
X149753141Y-115391384D01*
X149753141Y-115391384D02*
X149638855Y-115448527D01*
D11*
X185048669Y-104782927D02*
X183548669Y-104782927D01*
X185048669Y-103925784D02*
X184191526Y-104568641D01*
X183548669Y-103925784D02*
X184405812Y-104782927D01*
X184620098Y-103354355D02*
X184620098Y-102640070D01*
X185048669Y-103497212D02*
X183548669Y-102997212D01*
X183548669Y-102997212D02*
X185048669Y-102497212D01*
X185048669Y-101997213D02*
X183548669Y-101997213D01*
X185048669Y-101140070D02*
X184191526Y-101782927D01*
X183548669Y-101140070D02*
X184405812Y-101997213D01*
X185048669Y-99782927D02*
X185048669Y-100497213D01*
X185048669Y-100497213D02*
X183548669Y-100497213D01*
X185048669Y-99282927D02*
X183548669Y-99282927D01*
X185048669Y-98568641D02*
X183548669Y-98568641D01*
X185048669Y-97711498D02*
X184191526Y-98354355D01*
X183548669Y-97711498D02*
X184405812Y-98568641D01*
D12*
X157043283Y-116432669D02*
X156471855Y-116432669D01*
X156471855Y-116432669D02*
X156471855Y-115232669D01*
X157443284Y-115804098D02*
X157843284Y-115804098D01*
X158014712Y-116432669D02*
X157443284Y-116432669D01*
X157443284Y-116432669D02*
X157443284Y-115232669D01*
X157443284Y-115232669D02*
X158014712Y-115232669D01*
X158528998Y-116432669D02*
X158528998Y-115232669D01*
X158528998Y-115232669D02*
X158814712Y-115232669D01*
X158814712Y-115232669D02*
X158986141Y-115289812D01*
X158986141Y-115289812D02*
X159100426Y-115404098D01*
X159100426Y-115404098D02*
X159157569Y-115518384D01*
X159157569Y-115518384D02*
X159214712Y-115746955D01*
X159214712Y-115746955D02*
X159214712Y-115918384D01*
X159214712Y-115918384D02*
X159157569Y-116146955D01*
X159157569Y-116146955D02*
X159100426Y-116261241D01*
X159100426Y-116261241D02*
X158986141Y-116375527D01*
X158986141Y-116375527D02*
X158814712Y-116432669D01*
X158814712Y-116432669D02*
X158528998Y-116432669D01*
X159614712Y-115232669D02*
X160357569Y-115232669D01*
X160357569Y-115232669D02*
X159957569Y-115689812D01*
X159957569Y-115689812D02*
X160128998Y-115689812D01*
X160128998Y-115689812D02*
X160243284Y-115746955D01*
X160243284Y-115746955D02*
X160300426Y-115804098D01*
X160300426Y-115804098D02*
X160357569Y-115918384D01*
X160357569Y-115918384D02*
X160357569Y-116204098D01*
X160357569Y-116204098D02*
X160300426Y-116318384D01*
X160300426Y-116318384D02*
X160243284Y-116375527D01*
X160243284Y-116375527D02*
X160128998Y-116432669D01*
X160128998Y-116432669D02*
X159786141Y-116432669D01*
X159786141Y-116432669D02*
X159671855Y-116375527D01*
X159671855Y-116375527D02*
X159614712Y-116318384D01*
X161512055Y-113321669D02*
X161512055Y-114293098D01*
X161512055Y-114293098D02*
X161569198Y-114407384D01*
X161569198Y-114407384D02*
X161626341Y-114464527D01*
X161626341Y-114464527D02*
X161740626Y-114521669D01*
X161740626Y-114521669D02*
X161969198Y-114521669D01*
X161969198Y-114521669D02*
X162083483Y-114464527D01*
X162083483Y-114464527D02*
X162140626Y-114407384D01*
X162140626Y-114407384D02*
X162197769Y-114293098D01*
X162197769Y-114293098D02*
X162197769Y-113321669D01*
X162712055Y-114464527D02*
X162883484Y-114521669D01*
X162883484Y-114521669D02*
X163169198Y-114521669D01*
X163169198Y-114521669D02*
X163283484Y-114464527D01*
X163283484Y-114464527D02*
X163340626Y-114407384D01*
X163340626Y-114407384D02*
X163397769Y-114293098D01*
X163397769Y-114293098D02*
X163397769Y-114178812D01*
X163397769Y-114178812D02*
X163340626Y-114064527D01*
X163340626Y-114064527D02*
X163283484Y-114007384D01*
X163283484Y-114007384D02*
X163169198Y-113950241D01*
X163169198Y-113950241D02*
X162940626Y-113893098D01*
X162940626Y-113893098D02*
X162826341Y-113835955D01*
X162826341Y-113835955D02*
X162769198Y-113778812D01*
X162769198Y-113778812D02*
X162712055Y-113664527D01*
X162712055Y-113664527D02*
X162712055Y-113550241D01*
X162712055Y-113550241D02*
X162769198Y-113435955D01*
X162769198Y-113435955D02*
X162826341Y-113378812D01*
X162826341Y-113378812D02*
X162940626Y-113321669D01*
X162940626Y-113321669D02*
X163226341Y-113321669D01*
X163226341Y-113321669D02*
X163397769Y-113378812D01*
X164312055Y-113893098D02*
X164483483Y-113950241D01*
X164483483Y-113950241D02*
X164540626Y-114007384D01*
X164540626Y-114007384D02*
X164597769Y-114121669D01*
X164597769Y-114121669D02*
X164597769Y-114293098D01*
X164597769Y-114293098D02*
X164540626Y-114407384D01*
X164540626Y-114407384D02*
X164483483Y-114464527D01*
X164483483Y-114464527D02*
X164369198Y-114521669D01*
X164369198Y-114521669D02*
X163912055Y-114521669D01*
X163912055Y-114521669D02*
X163912055Y-113321669D01*
X163912055Y-113321669D02*
X164312055Y-113321669D01*
X164312055Y-113321669D02*
X164426341Y-113378812D01*
X164426341Y-113378812D02*
X164483483Y-113435955D01*
X164483483Y-113435955D02*
X164540626Y-113550241D01*
X164540626Y-113550241D02*
X164540626Y-113664527D01*
X164540626Y-113664527D02*
X164483483Y-113778812D01*
X164483483Y-113778812D02*
X164426341Y-113835955D01*
X164426341Y-113835955D02*
X164312055Y-113893098D01*
X164312055Y-113893098D02*
X163912055Y-113893098D01*
X162826341Y-116453669D02*
X162426341Y-115882241D01*
X162140627Y-116453669D02*
X162140627Y-115253669D01*
X162140627Y-115253669D02*
X162597770Y-115253669D01*
X162597770Y-115253669D02*
X162712055Y-115310812D01*
X162712055Y-115310812D02*
X162769198Y-115367955D01*
X162769198Y-115367955D02*
X162826341Y-115482241D01*
X162826341Y-115482241D02*
X162826341Y-115653669D01*
X162826341Y-115653669D02*
X162769198Y-115767955D01*
X162769198Y-115767955D02*
X162712055Y-115825098D01*
X162712055Y-115825098D02*
X162597770Y-115882241D01*
X162597770Y-115882241D02*
X162140627Y-115882241D01*
X163226341Y-115253669D02*
X164026341Y-116453669D01*
X164026341Y-115253669D02*
X163226341Y-116453669D01*
X166512055Y-113321669D02*
X166512055Y-114293098D01*
X166512055Y-114293098D02*
X166569198Y-114407384D01*
X166569198Y-114407384D02*
X166626341Y-114464527D01*
X166626341Y-114464527D02*
X166740626Y-114521669D01*
X166740626Y-114521669D02*
X166969198Y-114521669D01*
X166969198Y-114521669D02*
X167083483Y-114464527D01*
X167083483Y-114464527D02*
X167140626Y-114407384D01*
X167140626Y-114407384D02*
X167197769Y-114293098D01*
X167197769Y-114293098D02*
X167197769Y-113321669D01*
X167712055Y-114464527D02*
X167883484Y-114521669D01*
X167883484Y-114521669D02*
X168169198Y-114521669D01*
X168169198Y-114521669D02*
X168283484Y-114464527D01*
X168283484Y-114464527D02*
X168340626Y-114407384D01*
X168340626Y-114407384D02*
X168397769Y-114293098D01*
X168397769Y-114293098D02*
X168397769Y-114178812D01*
X168397769Y-114178812D02*
X168340626Y-114064527D01*
X168340626Y-114064527D02*
X168283484Y-114007384D01*
X168283484Y-114007384D02*
X168169198Y-113950241D01*
X168169198Y-113950241D02*
X167940626Y-113893098D01*
X167940626Y-113893098D02*
X167826341Y-113835955D01*
X167826341Y-113835955D02*
X167769198Y-113778812D01*
X167769198Y-113778812D02*
X167712055Y-113664527D01*
X167712055Y-113664527D02*
X167712055Y-113550241D01*
X167712055Y-113550241D02*
X167769198Y-113435955D01*
X167769198Y-113435955D02*
X167826341Y-113378812D01*
X167826341Y-113378812D02*
X167940626Y-113321669D01*
X167940626Y-113321669D02*
X168226341Y-113321669D01*
X168226341Y-113321669D02*
X168397769Y-113378812D01*
X169312055Y-113893098D02*
X169483483Y-113950241D01*
X169483483Y-113950241D02*
X169540626Y-114007384D01*
X169540626Y-114007384D02*
X169597769Y-114121669D01*
X169597769Y-114121669D02*
X169597769Y-114293098D01*
X169597769Y-114293098D02*
X169540626Y-114407384D01*
X169540626Y-114407384D02*
X169483483Y-114464527D01*
X169483483Y-114464527D02*
X169369198Y-114521669D01*
X169369198Y-114521669D02*
X168912055Y-114521669D01*
X168912055Y-114521669D02*
X168912055Y-113321669D01*
X168912055Y-113321669D02*
X169312055Y-113321669D01*
X169312055Y-113321669D02*
X169426341Y-113378812D01*
X169426341Y-113378812D02*
X169483483Y-113435955D01*
X169483483Y-113435955D02*
X169540626Y-113550241D01*
X169540626Y-113550241D02*
X169540626Y-113664527D01*
X169540626Y-113664527D02*
X169483483Y-113778812D01*
X169483483Y-113778812D02*
X169426341Y-113835955D01*
X169426341Y-113835955D02*
X169312055Y-113893098D01*
X169312055Y-113893098D02*
X168912055Y-113893098D01*
X167112055Y-115253669D02*
X167797770Y-115253669D01*
X167454912Y-116453669D02*
X167454912Y-115253669D01*
X168083484Y-115253669D02*
X168883484Y-116453669D01*
X168883484Y-115253669D02*
X168083484Y-116453669D01*
D10*
X111293046Y-84643546D02*
X111293046Y-83643546D01*
X111293046Y-83643546D02*
X111531141Y-83643546D01*
X111531141Y-83643546D02*
X111673998Y-83691165D01*
X111673998Y-83691165D02*
X111769236Y-83786403D01*
X111769236Y-83786403D02*
X111816855Y-83881641D01*
X111816855Y-83881641D02*
X111864474Y-84072117D01*
X111864474Y-84072117D02*
X111864474Y-84214974D01*
X111864474Y-84214974D02*
X111816855Y-84405450D01*
X111816855Y-84405450D02*
X111769236Y-84500688D01*
X111769236Y-84500688D02*
X111673998Y-84595927D01*
X111673998Y-84595927D02*
X111531141Y-84643546D01*
X111531141Y-84643546D02*
X111293046Y-84643546D01*
X112245427Y-83738784D02*
X112293046Y-83691165D01*
X112293046Y-83691165D02*
X112388284Y-83643546D01*
X112388284Y-83643546D02*
X112626379Y-83643546D01*
X112626379Y-83643546D02*
X112721617Y-83691165D01*
X112721617Y-83691165D02*
X112769236Y-83738784D01*
X112769236Y-83738784D02*
X112816855Y-83834022D01*
X112816855Y-83834022D02*
X112816855Y-83929260D01*
X112816855Y-83929260D02*
X112769236Y-84072117D01*
X112769236Y-84072117D02*
X112197808Y-84643546D01*
X112197808Y-84643546D02*
X112816855Y-84643546D01*
X115553836Y-89723546D02*
X115553836Y-88723546D01*
X116125264Y-89723546D02*
X115696693Y-89152117D01*
X116125264Y-88723546D02*
X115553836Y-89294974D01*
X151280550Y-80281155D02*
X151280550Y-80757346D01*
X150947217Y-79757346D02*
X151280550Y-80281155D01*
X151280550Y-80281155D02*
X151613883Y-79757346D01*
X152471026Y-80757346D02*
X151899598Y-80757346D01*
X152185312Y-80757346D02*
X152185312Y-79757346D01*
X152185312Y-79757346D02*
X152090074Y-79900203D01*
X152090074Y-79900203D02*
X151994836Y-79995441D01*
X151994836Y-79995441D02*
X151899598Y-80043060D01*
X149589883Y-90917346D02*
X149256550Y-90441155D01*
X149018455Y-90917346D02*
X149018455Y-89917346D01*
X149018455Y-89917346D02*
X149399407Y-89917346D01*
X149399407Y-89917346D02*
X149494645Y-89964965D01*
X149494645Y-89964965D02*
X149542264Y-90012584D01*
X149542264Y-90012584D02*
X149589883Y-90107822D01*
X149589883Y-90107822D02*
X149589883Y-90250679D01*
X149589883Y-90250679D02*
X149542264Y-90345917D01*
X149542264Y-90345917D02*
X149494645Y-90393536D01*
X149494645Y-90393536D02*
X149399407Y-90441155D01*
X149399407Y-90441155D02*
X149018455Y-90441155D01*
X150542264Y-90917346D02*
X149970836Y-90917346D01*
X150256550Y-90917346D02*
X150256550Y-89917346D01*
X150256550Y-89917346D02*
X150161312Y-90060203D01*
X150161312Y-90060203D02*
X150066074Y-90155441D01*
X150066074Y-90155441D02*
X149970836Y-90203060D01*
X150875598Y-89917346D02*
X151542264Y-89917346D01*
X151542264Y-89917346D02*
X151113693Y-90917346D01*
X146287883Y-107655946D02*
X145954550Y-107179755D01*
X145716455Y-107655946D02*
X145716455Y-106655946D01*
X145716455Y-106655946D02*
X146097407Y-106655946D01*
X146097407Y-106655946D02*
X146192645Y-106703565D01*
X146192645Y-106703565D02*
X146240264Y-106751184D01*
X146240264Y-106751184D02*
X146287883Y-106846422D01*
X146287883Y-106846422D02*
X146287883Y-106989279D01*
X146287883Y-106989279D02*
X146240264Y-107084517D01*
X146240264Y-107084517D02*
X146192645Y-107132136D01*
X146192645Y-107132136D02*
X146097407Y-107179755D01*
X146097407Y-107179755D02*
X145716455Y-107179755D01*
X146668836Y-106751184D02*
X146716455Y-106703565D01*
X146716455Y-106703565D02*
X146811693Y-106655946D01*
X146811693Y-106655946D02*
X147049788Y-106655946D01*
X147049788Y-106655946D02*
X147145026Y-106703565D01*
X147145026Y-106703565D02*
X147192645Y-106751184D01*
X147192645Y-106751184D02*
X147240264Y-106846422D01*
X147240264Y-106846422D02*
X147240264Y-106941660D01*
X147240264Y-106941660D02*
X147192645Y-107084517D01*
X147192645Y-107084517D02*
X146621217Y-107655946D01*
X146621217Y-107655946D02*
X147240264Y-107655946D01*
X148145026Y-106655946D02*
X147668836Y-106655946D01*
X147668836Y-106655946D02*
X147621217Y-107132136D01*
X147621217Y-107132136D02*
X147668836Y-107084517D01*
X147668836Y-107084517D02*
X147764074Y-107036898D01*
X147764074Y-107036898D02*
X148002169Y-107036898D01*
X148002169Y-107036898D02*
X148097407Y-107084517D01*
X148097407Y-107084517D02*
X148145026Y-107132136D01*
X148145026Y-107132136D02*
X148192645Y-107227374D01*
X148192645Y-107227374D02*
X148192645Y-107465469D01*
X148192645Y-107465469D02*
X148145026Y-107560707D01*
X148145026Y-107560707D02*
X148097407Y-107608327D01*
X148097407Y-107608327D02*
X148002169Y-107655946D01*
X148002169Y-107655946D02*
X147764074Y-107655946D01*
X147764074Y-107655946D02*
X147668836Y-107608327D01*
X147668836Y-107608327D02*
X147621217Y-107560707D01*
D12*
X151179345Y-120276450D02*
X149879345Y-120276450D01*
X149879345Y-120276450D02*
X149879345Y-119966926D01*
X149879345Y-119966926D02*
X149941250Y-119781212D01*
X149941250Y-119781212D02*
X150065060Y-119657402D01*
X150065060Y-119657402D02*
X150188869Y-119595497D01*
X150188869Y-119595497D02*
X150436488Y-119533593D01*
X150436488Y-119533593D02*
X150622202Y-119533593D01*
X150622202Y-119533593D02*
X150869821Y-119595497D01*
X150869821Y-119595497D02*
X150993631Y-119657402D01*
X150993631Y-119657402D02*
X151117441Y-119781212D01*
X151117441Y-119781212D02*
X151179345Y-119966926D01*
X151179345Y-119966926D02*
X151179345Y-120276450D01*
X151179345Y-118914545D02*
X151179345Y-118666926D01*
X151179345Y-118666926D02*
X151117441Y-118543116D01*
X151117441Y-118543116D02*
X151055536Y-118481212D01*
X151055536Y-118481212D02*
X150869821Y-118357402D01*
X150869821Y-118357402D02*
X150622202Y-118295497D01*
X150622202Y-118295497D02*
X150126964Y-118295497D01*
X150126964Y-118295497D02*
X150003155Y-118357402D01*
X150003155Y-118357402D02*
X149941250Y-118419307D01*
X149941250Y-118419307D02*
X149879345Y-118543116D01*
X149879345Y-118543116D02*
X149879345Y-118790735D01*
X149879345Y-118790735D02*
X149941250Y-118914545D01*
X149941250Y-118914545D02*
X150003155Y-118976450D01*
X150003155Y-118976450D02*
X150126964Y-119038354D01*
X150126964Y-119038354D02*
X150436488Y-119038354D01*
X150436488Y-119038354D02*
X150560298Y-118976450D01*
X150560298Y-118976450D02*
X150622202Y-118914545D01*
X150622202Y-118914545D02*
X150684107Y-118790735D01*
X150684107Y-118790735D02*
X150684107Y-118543116D01*
X150684107Y-118543116D02*
X150622202Y-118419307D01*
X150622202Y-118419307D02*
X150560298Y-118357402D01*
X150560298Y-118357402D02*
X150436488Y-118295497D01*
D10*
X146313283Y-102702946D02*
X145979950Y-102226755D01*
X145741855Y-102702946D02*
X145741855Y-101702946D01*
X145741855Y-101702946D02*
X146122807Y-101702946D01*
X146122807Y-101702946D02*
X146218045Y-101750565D01*
X146218045Y-101750565D02*
X146265664Y-101798184D01*
X146265664Y-101798184D02*
X146313283Y-101893422D01*
X146313283Y-101893422D02*
X146313283Y-102036279D01*
X146313283Y-102036279D02*
X146265664Y-102131517D01*
X146265664Y-102131517D02*
X146218045Y-102179136D01*
X146218045Y-102179136D02*
X146122807Y-102226755D01*
X146122807Y-102226755D02*
X145741855Y-102226755D01*
X146694236Y-101798184D02*
X146741855Y-101750565D01*
X146741855Y-101750565D02*
X146837093Y-101702946D01*
X146837093Y-101702946D02*
X147075188Y-101702946D01*
X147075188Y-101702946D02*
X147170426Y-101750565D01*
X147170426Y-101750565D02*
X147218045Y-101798184D01*
X147218045Y-101798184D02*
X147265664Y-101893422D01*
X147265664Y-101893422D02*
X147265664Y-101988660D01*
X147265664Y-101988660D02*
X147218045Y-102131517D01*
X147218045Y-102131517D02*
X146646617Y-102702946D01*
X146646617Y-102702946D02*
X147265664Y-102702946D01*
X148122807Y-102036279D02*
X148122807Y-102702946D01*
X147884712Y-101655327D02*
X147646617Y-102369612D01*
X147646617Y-102369612D02*
X148265664Y-102369612D01*
D12*
X146226345Y-120276450D02*
X144926345Y-120276450D01*
X144926345Y-120276450D02*
X144926345Y-119966926D01*
X144926345Y-119966926D02*
X144988250Y-119781212D01*
X144988250Y-119781212D02*
X145112060Y-119657402D01*
X145112060Y-119657402D02*
X145235869Y-119595497D01*
X145235869Y-119595497D02*
X145483488Y-119533593D01*
X145483488Y-119533593D02*
X145669202Y-119533593D01*
X145669202Y-119533593D02*
X145916821Y-119595497D01*
X145916821Y-119595497D02*
X146040631Y-119657402D01*
X146040631Y-119657402D02*
X146164441Y-119781212D01*
X146164441Y-119781212D02*
X146226345Y-119966926D01*
X146226345Y-119966926D02*
X146226345Y-120276450D01*
X144926345Y-119100259D02*
X144926345Y-118233593D01*
X144926345Y-118233593D02*
X146226345Y-118790735D01*
D10*
X147391921Y-99106384D02*
X147439541Y-99154003D01*
X147439541Y-99154003D02*
X147487160Y-99296860D01*
X147487160Y-99296860D02*
X147487160Y-99392098D01*
X147487160Y-99392098D02*
X147439541Y-99534955D01*
X147439541Y-99534955D02*
X147344302Y-99630193D01*
X147344302Y-99630193D02*
X147249064Y-99677812D01*
X147249064Y-99677812D02*
X147058588Y-99725431D01*
X147058588Y-99725431D02*
X146915731Y-99725431D01*
X146915731Y-99725431D02*
X146725255Y-99677812D01*
X146725255Y-99677812D02*
X146630017Y-99630193D01*
X146630017Y-99630193D02*
X146534779Y-99534955D01*
X146534779Y-99534955D02*
X146487160Y-99392098D01*
X146487160Y-99392098D02*
X146487160Y-99296860D01*
X146487160Y-99296860D02*
X146534779Y-99154003D01*
X146534779Y-99154003D02*
X146582398Y-99106384D01*
X146582398Y-98725431D02*
X146534779Y-98677812D01*
X146534779Y-98677812D02*
X146487160Y-98582574D01*
X146487160Y-98582574D02*
X146487160Y-98344479D01*
X146487160Y-98344479D02*
X146534779Y-98249241D01*
X146534779Y-98249241D02*
X146582398Y-98201622D01*
X146582398Y-98201622D02*
X146677636Y-98154003D01*
X146677636Y-98154003D02*
X146772874Y-98154003D01*
X146772874Y-98154003D02*
X146915731Y-98201622D01*
X146915731Y-98201622D02*
X147487160Y-98773050D01*
X147487160Y-98773050D02*
X147487160Y-98154003D01*
X146487160Y-97249241D02*
X146487160Y-97725431D01*
X146487160Y-97725431D02*
X146963350Y-97773050D01*
X146963350Y-97773050D02*
X146915731Y-97725431D01*
X146915731Y-97725431D02*
X146868112Y-97630193D01*
X146868112Y-97630193D02*
X146868112Y-97392098D01*
X146868112Y-97392098D02*
X146915731Y-97296860D01*
X146915731Y-97296860D02*
X146963350Y-97249241D01*
X146963350Y-97249241D02*
X147058588Y-97201622D01*
X147058588Y-97201622D02*
X147296683Y-97201622D01*
X147296683Y-97201622D02*
X147391921Y-97249241D01*
X147391921Y-97249241D02*
X147439541Y-97296860D01*
X147439541Y-97296860D02*
X147487160Y-97392098D01*
X147487160Y-97392098D02*
X147487160Y-97630193D01*
X147487160Y-97630193D02*
X147439541Y-97725431D01*
X147439541Y-97725431D02*
X147391921Y-97773050D01*
D12*
X161212345Y-120276450D02*
X159912345Y-120276450D01*
X159912345Y-120276450D02*
X159912345Y-119966926D01*
X159912345Y-119966926D02*
X159974250Y-119781212D01*
X159974250Y-119781212D02*
X160098060Y-119657402D01*
X160098060Y-119657402D02*
X160221869Y-119595497D01*
X160221869Y-119595497D02*
X160469488Y-119533593D01*
X160469488Y-119533593D02*
X160655202Y-119533593D01*
X160655202Y-119533593D02*
X160902821Y-119595497D01*
X160902821Y-119595497D02*
X161026631Y-119657402D01*
X161026631Y-119657402D02*
X161150441Y-119781212D01*
X161150441Y-119781212D02*
X161212345Y-119966926D01*
X161212345Y-119966926D02*
X161212345Y-120276450D01*
X160345679Y-118419307D02*
X161212345Y-118419307D01*
X159850441Y-118728831D02*
X160779012Y-119038354D01*
X160779012Y-119038354D02*
X160779012Y-118233593D01*
D10*
X145817121Y-99080984D02*
X145864741Y-99128603D01*
X145864741Y-99128603D02*
X145912360Y-99271460D01*
X145912360Y-99271460D02*
X145912360Y-99366698D01*
X145912360Y-99366698D02*
X145864741Y-99509555D01*
X145864741Y-99509555D02*
X145769502Y-99604793D01*
X145769502Y-99604793D02*
X145674264Y-99652412D01*
X145674264Y-99652412D02*
X145483788Y-99700031D01*
X145483788Y-99700031D02*
X145340931Y-99700031D01*
X145340931Y-99700031D02*
X145150455Y-99652412D01*
X145150455Y-99652412D02*
X145055217Y-99604793D01*
X145055217Y-99604793D02*
X144959979Y-99509555D01*
X144959979Y-99509555D02*
X144912360Y-99366698D01*
X144912360Y-99366698D02*
X144912360Y-99271460D01*
X144912360Y-99271460D02*
X144959979Y-99128603D01*
X144959979Y-99128603D02*
X145007598Y-99080984D01*
X145007598Y-98700031D02*
X144959979Y-98652412D01*
X144959979Y-98652412D02*
X144912360Y-98557174D01*
X144912360Y-98557174D02*
X144912360Y-98319079D01*
X144912360Y-98319079D02*
X144959979Y-98223841D01*
X144959979Y-98223841D02*
X145007598Y-98176222D01*
X145007598Y-98176222D02*
X145102836Y-98128603D01*
X145102836Y-98128603D02*
X145198074Y-98128603D01*
X145198074Y-98128603D02*
X145340931Y-98176222D01*
X145340931Y-98176222D02*
X145912360Y-98747650D01*
X145912360Y-98747650D02*
X145912360Y-98128603D01*
X145007598Y-97747650D02*
X144959979Y-97700031D01*
X144959979Y-97700031D02*
X144912360Y-97604793D01*
X144912360Y-97604793D02*
X144912360Y-97366698D01*
X144912360Y-97366698D02*
X144959979Y-97271460D01*
X144959979Y-97271460D02*
X145007598Y-97223841D01*
X145007598Y-97223841D02*
X145102836Y-97176222D01*
X145102836Y-97176222D02*
X145198074Y-97176222D01*
X145198074Y-97176222D02*
X145340931Y-97223841D01*
X145340931Y-97223841D02*
X145912360Y-97795269D01*
X145912360Y-97795269D02*
X145912360Y-97176222D01*
D12*
X166165345Y-120276450D02*
X164865345Y-120276450D01*
X164865345Y-120276450D02*
X164865345Y-119966926D01*
X164865345Y-119966926D02*
X164927250Y-119781212D01*
X164927250Y-119781212D02*
X165051060Y-119657402D01*
X165051060Y-119657402D02*
X165174869Y-119595497D01*
X165174869Y-119595497D02*
X165422488Y-119533593D01*
X165422488Y-119533593D02*
X165608202Y-119533593D01*
X165608202Y-119533593D02*
X165855821Y-119595497D01*
X165855821Y-119595497D02*
X165979631Y-119657402D01*
X165979631Y-119657402D02*
X166103441Y-119781212D01*
X166103441Y-119781212D02*
X166165345Y-119966926D01*
X166165345Y-119966926D02*
X166165345Y-120276450D01*
X164865345Y-119100259D02*
X164865345Y-118295497D01*
X164865345Y-118295497D02*
X165360583Y-118728831D01*
X165360583Y-118728831D02*
X165360583Y-118543116D01*
X165360583Y-118543116D02*
X165422488Y-118419307D01*
X165422488Y-118419307D02*
X165484393Y-118357402D01*
X165484393Y-118357402D02*
X165608202Y-118295497D01*
X165608202Y-118295497D02*
X165917726Y-118295497D01*
X165917726Y-118295497D02*
X166041536Y-118357402D01*
X166041536Y-118357402D02*
X166103441Y-118419307D01*
X166103441Y-118419307D02*
X166165345Y-118543116D01*
X166165345Y-118543116D02*
X166165345Y-118914545D01*
X166165345Y-118914545D02*
X166103441Y-119038354D01*
X166103441Y-119038354D02*
X166041536Y-119100259D01*
X170762745Y-80407898D02*
X169462745Y-80407898D01*
X169462745Y-80407898D02*
X169462745Y-80098374D01*
X169462745Y-80098374D02*
X169524650Y-79912660D01*
X169524650Y-79912660D02*
X169648460Y-79788850D01*
X169648460Y-79788850D02*
X169772269Y-79726945D01*
X169772269Y-79726945D02*
X170019888Y-79665041D01*
X170019888Y-79665041D02*
X170205602Y-79665041D01*
X170205602Y-79665041D02*
X170453221Y-79726945D01*
X170453221Y-79726945D02*
X170577031Y-79788850D01*
X170577031Y-79788850D02*
X170700841Y-79912660D01*
X170700841Y-79912660D02*
X170762745Y-80098374D01*
X170762745Y-80098374D02*
X170762745Y-80407898D01*
X170762745Y-78426945D02*
X170762745Y-79169802D01*
X170762745Y-78798374D02*
X169462745Y-78798374D01*
X169462745Y-78798374D02*
X169648460Y-78922183D01*
X169648460Y-78922183D02*
X169772269Y-79045993D01*
X169772269Y-79045993D02*
X169834174Y-79169802D01*
X169462745Y-77622184D02*
X169462745Y-77498374D01*
X169462745Y-77498374D02*
X169524650Y-77374565D01*
X169524650Y-77374565D02*
X169586555Y-77312660D01*
X169586555Y-77312660D02*
X169710364Y-77250755D01*
X169710364Y-77250755D02*
X169957983Y-77188850D01*
X169957983Y-77188850D02*
X170267507Y-77188850D01*
X170267507Y-77188850D02*
X170515126Y-77250755D01*
X170515126Y-77250755D02*
X170638936Y-77312660D01*
X170638936Y-77312660D02*
X170700841Y-77374565D01*
X170700841Y-77374565D02*
X170762745Y-77498374D01*
X170762745Y-77498374D02*
X170762745Y-77622184D01*
X170762745Y-77622184D02*
X170700841Y-77745993D01*
X170700841Y-77745993D02*
X170638936Y-77807898D01*
X170638936Y-77807898D02*
X170515126Y-77869803D01*
X170515126Y-77869803D02*
X170267507Y-77931707D01*
X170267507Y-77931707D02*
X169957983Y-77931707D01*
X169957983Y-77931707D02*
X169710364Y-77869803D01*
X169710364Y-77869803D02*
X169586555Y-77807898D01*
X169586555Y-77807898D02*
X169524650Y-77745993D01*
X169524650Y-77745993D02*
X169462745Y-77622184D01*
D10*
X146567283Y-95006746D02*
X146233950Y-94530555D01*
X145995855Y-95006746D02*
X145995855Y-94006746D01*
X145995855Y-94006746D02*
X146376807Y-94006746D01*
X146376807Y-94006746D02*
X146472045Y-94054365D01*
X146472045Y-94054365D02*
X146519664Y-94101984D01*
X146519664Y-94101984D02*
X146567283Y-94197222D01*
X146567283Y-94197222D02*
X146567283Y-94340079D01*
X146567283Y-94340079D02*
X146519664Y-94435317D01*
X146519664Y-94435317D02*
X146472045Y-94482936D01*
X146472045Y-94482936D02*
X146376807Y-94530555D01*
X146376807Y-94530555D02*
X145995855Y-94530555D01*
X147519664Y-95006746D02*
X146948236Y-95006746D01*
X147233950Y-95006746D02*
X147233950Y-94006746D01*
X147233950Y-94006746D02*
X147138712Y-94149603D01*
X147138712Y-94149603D02*
X147043474Y-94244841D01*
X147043474Y-94244841D02*
X146948236Y-94292460D01*
X148091093Y-94435317D02*
X147995855Y-94387698D01*
X147995855Y-94387698D02*
X147948236Y-94340079D01*
X147948236Y-94340079D02*
X147900617Y-94244841D01*
X147900617Y-94244841D02*
X147900617Y-94197222D01*
X147900617Y-94197222D02*
X147948236Y-94101984D01*
X147948236Y-94101984D02*
X147995855Y-94054365D01*
X147995855Y-94054365D02*
X148091093Y-94006746D01*
X148091093Y-94006746D02*
X148281569Y-94006746D01*
X148281569Y-94006746D02*
X148376807Y-94054365D01*
X148376807Y-94054365D02*
X148424426Y-94101984D01*
X148424426Y-94101984D02*
X148472045Y-94197222D01*
X148472045Y-94197222D02*
X148472045Y-94244841D01*
X148472045Y-94244841D02*
X148424426Y-94340079D01*
X148424426Y-94340079D02*
X148376807Y-94387698D01*
X148376807Y-94387698D02*
X148281569Y-94435317D01*
X148281569Y-94435317D02*
X148091093Y-94435317D01*
X148091093Y-94435317D02*
X147995855Y-94482936D01*
X147995855Y-94482936D02*
X147948236Y-94530555D01*
X147948236Y-94530555D02*
X147900617Y-94625793D01*
X147900617Y-94625793D02*
X147900617Y-94816269D01*
X147900617Y-94816269D02*
X147948236Y-94911507D01*
X147948236Y-94911507D02*
X147995855Y-94959127D01*
X147995855Y-94959127D02*
X148091093Y-95006746D01*
X148091093Y-95006746D02*
X148281569Y-95006746D01*
X148281569Y-95006746D02*
X148376807Y-94959127D01*
X148376807Y-94959127D02*
X148424426Y-94911507D01*
X148424426Y-94911507D02*
X148472045Y-94816269D01*
X148472045Y-94816269D02*
X148472045Y-94625793D01*
X148472045Y-94625793D02*
X148424426Y-94530555D01*
X148424426Y-94530555D02*
X148376807Y-94482936D01*
X148376807Y-94482936D02*
X148281569Y-94435317D01*
D12*
X135766393Y-79571354D02*
X135828298Y-79385640D01*
X135828298Y-79385640D02*
X135890202Y-79323735D01*
X135890202Y-79323735D02*
X136014012Y-79261831D01*
X136014012Y-79261831D02*
X136199726Y-79261831D01*
X136199726Y-79261831D02*
X136323536Y-79323735D01*
X136323536Y-79323735D02*
X136385441Y-79385640D01*
X136385441Y-79385640D02*
X136447345Y-79509450D01*
X136447345Y-79509450D02*
X136447345Y-80004688D01*
X136447345Y-80004688D02*
X135147345Y-80004688D01*
X135147345Y-80004688D02*
X135147345Y-79571354D01*
X135147345Y-79571354D02*
X135209250Y-79447545D01*
X135209250Y-79447545D02*
X135271155Y-79385640D01*
X135271155Y-79385640D02*
X135394964Y-79323735D01*
X135394964Y-79323735D02*
X135518774Y-79323735D01*
X135518774Y-79323735D02*
X135642583Y-79385640D01*
X135642583Y-79385640D02*
X135704488Y-79447545D01*
X135704488Y-79447545D02*
X135766393Y-79571354D01*
X135766393Y-79571354D02*
X135766393Y-80004688D01*
X135147345Y-78890402D02*
X135147345Y-78147545D01*
X136447345Y-78518973D02*
X135147345Y-78518973D01*
X136447345Y-77033259D02*
X136447345Y-77776116D01*
X136447345Y-77404688D02*
X135147345Y-77404688D01*
X135147345Y-77404688D02*
X135333060Y-77528497D01*
X135333060Y-77528497D02*
X135456869Y-77652307D01*
X135456869Y-77652307D02*
X135518774Y-77776116D01*
D10*
X175575560Y-98729560D02*
X176289845Y-98729560D01*
X176289845Y-98729560D02*
X176432702Y-98777179D01*
X176432702Y-98777179D02*
X176527941Y-98872417D01*
X176527941Y-98872417D02*
X176575560Y-99015274D01*
X176575560Y-99015274D02*
X176575560Y-99110512D01*
X175670798Y-98300988D02*
X175623179Y-98253369D01*
X175623179Y-98253369D02*
X175575560Y-98158131D01*
X175575560Y-98158131D02*
X175575560Y-97920036D01*
X175575560Y-97920036D02*
X175623179Y-97824798D01*
X175623179Y-97824798D02*
X175670798Y-97777179D01*
X175670798Y-97777179D02*
X175766036Y-97729560D01*
X175766036Y-97729560D02*
X175861274Y-97729560D01*
X175861274Y-97729560D02*
X176004131Y-97777179D01*
X176004131Y-97777179D02*
X176575560Y-98348607D01*
X176575560Y-98348607D02*
X176575560Y-97729560D01*
D12*
X156132345Y-120276450D02*
X154832345Y-120276450D01*
X154832345Y-120276450D02*
X154832345Y-119966926D01*
X154832345Y-119966926D02*
X154894250Y-119781212D01*
X154894250Y-119781212D02*
X155018060Y-119657402D01*
X155018060Y-119657402D02*
X155141869Y-119595497D01*
X155141869Y-119595497D02*
X155389488Y-119533593D01*
X155389488Y-119533593D02*
X155575202Y-119533593D01*
X155575202Y-119533593D02*
X155822821Y-119595497D01*
X155822821Y-119595497D02*
X155946631Y-119657402D01*
X155946631Y-119657402D02*
X156070441Y-119781212D01*
X156070441Y-119781212D02*
X156132345Y-119966926D01*
X156132345Y-119966926D02*
X156132345Y-120276450D01*
X155389488Y-118790735D02*
X155327583Y-118914545D01*
X155327583Y-118914545D02*
X155265679Y-118976450D01*
X155265679Y-118976450D02*
X155141869Y-119038354D01*
X155141869Y-119038354D02*
X155079964Y-119038354D01*
X155079964Y-119038354D02*
X154956155Y-118976450D01*
X154956155Y-118976450D02*
X154894250Y-118914545D01*
X154894250Y-118914545D02*
X154832345Y-118790735D01*
X154832345Y-118790735D02*
X154832345Y-118543116D01*
X154832345Y-118543116D02*
X154894250Y-118419307D01*
X154894250Y-118419307D02*
X154956155Y-118357402D01*
X154956155Y-118357402D02*
X155079964Y-118295497D01*
X155079964Y-118295497D02*
X155141869Y-118295497D01*
X155141869Y-118295497D02*
X155265679Y-118357402D01*
X155265679Y-118357402D02*
X155327583Y-118419307D01*
X155327583Y-118419307D02*
X155389488Y-118543116D01*
X155389488Y-118543116D02*
X155389488Y-118790735D01*
X155389488Y-118790735D02*
X155451393Y-118914545D01*
X155451393Y-118914545D02*
X155513298Y-118976450D01*
X155513298Y-118976450D02*
X155637107Y-119038354D01*
X155637107Y-119038354D02*
X155884726Y-119038354D01*
X155884726Y-119038354D02*
X156008536Y-118976450D01*
X156008536Y-118976450D02*
X156070441Y-118914545D01*
X156070441Y-118914545D02*
X156132345Y-118790735D01*
X156132345Y-118790735D02*
X156132345Y-118543116D01*
X156132345Y-118543116D02*
X156070441Y-118419307D01*
X156070441Y-118419307D02*
X156008536Y-118357402D01*
X156008536Y-118357402D02*
X155884726Y-118295497D01*
X155884726Y-118295497D02*
X155637107Y-118295497D01*
X155637107Y-118295497D02*
X155513298Y-118357402D01*
X155513298Y-118357402D02*
X155451393Y-118419307D01*
X155451393Y-118419307D02*
X155389488Y-118543116D01*
D13*
%TO.C,D2*%
X118732341Y-85496927D02*
X104532341Y-85496927D01*
X118732341Y-112496927D02*
X118732341Y-85496927D01*
X118732341Y-112496927D02*
X104532341Y-112496927D01*
X104532341Y-112496927D02*
X104532341Y-85496927D01*
D10*
%TO.C,J22*%
X142053941Y-101435327D02*
X136973941Y-101435327D01*
X142053941Y-93815327D02*
X142053941Y-101435327D01*
X136973941Y-101435327D02*
X136973941Y-93815327D01*
X136973941Y-93815327D02*
X142053941Y-93815327D01*
D14*
%TO.C,Y1*%
X154820541Y-75440727D02*
X161220541Y-75440727D01*
X154820541Y-80490727D02*
X161220541Y-80490727D01*
X154820541Y-75440727D02*
G75*
G03*
X154820541Y-80490727I0J-2525000D01*
G01*
X161220541Y-80490727D02*
G75*
G03*
X161220541Y-75440727I0J2525000D01*
G01*
%TO.C,R17*%
X150107277Y-91505527D02*
X150561405Y-91505527D01*
X150107277Y-92975527D02*
X150561405Y-92975527D01*
%TO.C,R25*%
X150107277Y-106440727D02*
X150561405Y-106440727D01*
X150107277Y-107910727D02*
X150561405Y-107910727D01*
%TO.C,D9*%
X154161341Y-117031927D02*
X151891341Y-117031927D01*
X151891341Y-117031927D02*
X151891341Y-120916927D01*
X154161341Y-120916927D02*
X154161341Y-117031927D01*
%TO.C,R24*%
X150107277Y-101513127D02*
X150561405Y-101513127D01*
X150107277Y-102983127D02*
X150561405Y-102983127D01*
%TO.C,D7*%
X149161341Y-117031927D02*
X146891341Y-117031927D01*
X146891341Y-117031927D02*
X146891341Y-120916927D01*
X149161341Y-120916927D02*
X149161341Y-117031927D01*
%TO.C,C25*%
X150666141Y-98800979D02*
X150666141Y-98278475D01*
X152136141Y-98800979D02*
X152136141Y-98278475D01*
%TO.C,G1*%
G36*
X146198441Y-86224114D02*
G01*
X146180782Y-86350597D01*
X146135844Y-86421147D01*
X146029252Y-86454829D01*
X145826633Y-86470703D01*
X145746729Y-86474615D01*
X145317138Y-86495272D01*
X144859126Y-88804510D01*
X144552944Y-88804510D01*
X144367896Y-88799571D01*
X144258987Y-88787115D01*
X144246761Y-88780374D01*
X144259954Y-88706850D01*
X144296309Y-88520229D01*
X144350994Y-88244926D01*
X144419178Y-87905357D01*
X144457258Y-87716941D01*
X144530928Y-87347215D01*
X144593345Y-87022531D01*
X144639571Y-86769491D01*
X144664666Y-86614695D01*
X144667756Y-86583342D01*
X144615826Y-86521788D01*
X144449676Y-86492702D01*
X144312481Y-86489041D01*
X143957207Y-86489041D01*
X144001181Y-86032963D01*
X145110872Y-86013617D01*
X146220562Y-85994270D01*
X146198441Y-86224114D01*
G37*
G36*
X139236789Y-86015918D02*
G01*
X139331368Y-86065827D01*
X139335159Y-86081548D01*
X139322200Y-86177740D01*
X139286635Y-86384079D01*
X139233430Y-86673112D01*
X139167552Y-87017390D01*
X139144739Y-87134063D01*
X139070296Y-87518628D01*
X139022572Y-87789658D01*
X139000046Y-87971080D01*
X139001198Y-88086820D01*
X139024507Y-88160804D01*
X139068454Y-88216959D01*
X139075484Y-88224078D01*
X139256075Y-88318997D01*
X139496943Y-88344040D01*
X139737169Y-88300067D01*
X139891580Y-88212541D01*
X139992867Y-88084950D01*
X140084959Y-87885541D01*
X140173186Y-87597065D01*
X140262877Y-87202271D01*
X140353586Y-86717079D01*
X140479249Y-85997880D01*
X140784276Y-85997880D01*
X140997163Y-86015760D01*
X141085384Y-86071769D01*
X141089303Y-86093480D01*
X141072312Y-86251961D01*
X141026648Y-86511044D01*
X140960268Y-86835865D01*
X140881132Y-87191559D01*
X140797199Y-87543262D01*
X140716428Y-87856111D01*
X140646777Y-88095242D01*
X140607828Y-88202548D01*
X140423852Y-88506894D01*
X140175869Y-88709065D01*
X139842486Y-88821800D01*
X139510883Y-88855792D01*
X139241175Y-88855785D01*
X139011066Y-88839122D01*
X138873359Y-88810294D01*
X138705916Y-88696220D01*
X138538136Y-88518435D01*
X138407860Y-88324467D01*
X138352933Y-88161844D01*
X138352839Y-88156573D01*
X138365361Y-88037372D01*
X138399767Y-87809414D01*
X138451318Y-87501724D01*
X138515273Y-87143329D01*
X138541030Y-87004222D01*
X138729221Y-85997880D01*
X139032190Y-85997880D01*
X139236789Y-86015918D01*
G37*
G36*
X142648407Y-85946503D02*
G01*
X142883437Y-85994513D01*
X142981067Y-86031561D01*
X143209454Y-86196290D01*
X143384088Y-86408691D01*
X143470932Y-86624498D01*
X143474938Y-86673917D01*
X143456258Y-86784097D01*
X143373550Y-86830889D01*
X143214452Y-86839869D01*
X142993259Y-86806260D01*
X142831074Y-86684128D01*
X142802906Y-86650422D01*
X142619701Y-86512901D01*
X142387680Y-86456595D01*
X142161833Y-86487406D01*
X142032960Y-86567799D01*
X141961634Y-86683597D01*
X141992536Y-86800171D01*
X142135386Y-86928891D01*
X142399903Y-87081126D01*
X142524540Y-87142796D01*
X142860941Y-87322347D01*
X143081942Y-87490953D01*
X143208081Y-87672512D01*
X143259896Y-87890920D01*
X143264441Y-88003754D01*
X143199020Y-88331451D01*
X143009183Y-88602677D01*
X142770570Y-88770829D01*
X142543631Y-88838794D01*
X142239734Y-88867624D01*
X141916725Y-88857178D01*
X141632451Y-88807313D01*
X141536841Y-88773853D01*
X141282051Y-88600695D01*
X141126661Y-88360834D01*
X141089303Y-88157406D01*
X141101872Y-88032534D01*
X141166161Y-87976823D01*
X141322043Y-87962759D01*
X141371702Y-87962521D01*
X141565877Y-87978025D01*
X141670137Y-88040292D01*
X141718323Y-88131436D01*
X141839403Y-88273947D01*
X142038580Y-88352355D01*
X142268109Y-88364648D01*
X142480239Y-88308816D01*
X142627222Y-88182846D01*
X142634548Y-88170030D01*
X142676267Y-88039435D01*
X142636795Y-87924115D01*
X142500484Y-87806591D01*
X142251686Y-87669386D01*
X142137147Y-87614424D01*
X141785368Y-87427562D01*
X141552972Y-87244764D01*
X141421307Y-87044789D01*
X141371724Y-86806401D01*
X141369966Y-86740771D01*
X141426943Y-86411276D01*
X141595607Y-86164797D01*
X141872560Y-86004049D01*
X142254401Y-85931751D01*
X142387369Y-85927715D01*
X142648407Y-85946503D01*
G37*
G36*
X134471214Y-84069422D02*
G01*
X134901236Y-84090789D01*
X135253235Y-84128730D01*
X135440960Y-84167201D01*
X136039229Y-84390648D01*
X136561451Y-84696667D01*
X136988589Y-85071414D01*
X137301604Y-85501046D01*
X137318717Y-85532756D01*
X137445483Y-85904862D01*
X137480940Y-86333865D01*
X137426157Y-86771023D01*
X137282925Y-87166209D01*
X136969393Y-87629207D01*
X136544847Y-88049761D01*
X136036892Y-88407277D01*
X135473132Y-88681160D01*
X135085190Y-88805774D01*
X134352902Y-88931790D01*
X133644940Y-88932687D01*
X132976569Y-88810034D01*
X132363056Y-88565398D01*
X132274960Y-88517290D01*
X131940399Y-88363270D01*
X131671585Y-88323516D01*
X131453598Y-88397467D01*
X131353523Y-88482618D01*
X131185761Y-88748393D01*
X131140393Y-89043631D01*
X131207937Y-89349817D01*
X131378913Y-89648436D01*
X131643840Y-89920972D01*
X131993236Y-90148911D01*
X132266957Y-90266439D01*
X132826193Y-90410848D01*
X133466075Y-90488768D01*
X134143631Y-90500132D01*
X134815888Y-90444872D01*
X135439877Y-90322921D01*
X135616374Y-90271697D01*
X136040738Y-90115877D01*
X136391814Y-89930478D01*
X136714098Y-89686190D01*
X137052090Y-89353708D01*
X137117050Y-89283306D01*
X137316277Y-89072343D01*
X137480159Y-88912500D01*
X137586826Y-88824360D01*
X137614789Y-88814895D01*
X137604502Y-88891218D01*
X137542107Y-89055711D01*
X137442810Y-89269250D01*
X137105577Y-89789656D01*
X136656357Y-90226062D01*
X136096112Y-90577743D01*
X135425807Y-90843973D01*
X135300629Y-90880780D01*
X134947374Y-90951989D01*
X134499256Y-91001224D01*
X133996154Y-91028042D01*
X133477950Y-91032000D01*
X132984522Y-91012653D01*
X132555750Y-90969559D01*
X132273821Y-90914440D01*
X131682830Y-90716420D01*
X131201079Y-90465962D01*
X130803017Y-90149675D01*
X130789820Y-90136789D01*
X130442593Y-89716220D01*
X130233998Y-89274094D01*
X130164133Y-88811250D01*
X130233097Y-88328524D01*
X130440989Y-87826755D01*
X130504802Y-87714859D01*
X130752376Y-87405296D01*
X131112758Y-87096508D01*
X131559139Y-86803438D01*
X132064713Y-86541028D01*
X132602672Y-86324220D01*
X133146209Y-86167955D01*
X133354281Y-86126586D01*
X133987845Y-86087456D01*
X134620352Y-86187968D01*
X135253709Y-86428439D01*
X135300629Y-86451787D01*
X135710084Y-86623714D01*
X136040419Y-86687010D01*
X136288391Y-86642511D01*
X136450759Y-86491055D01*
X136524281Y-86233479D01*
X136528529Y-86134727D01*
X136461448Y-85761128D01*
X136272296Y-85408006D01*
X135979215Y-85101687D01*
X135683883Y-84908937D01*
X135327236Y-84773528D01*
X134868919Y-84672892D01*
X134343697Y-84608971D01*
X133786336Y-84583706D01*
X133231602Y-84599040D01*
X132714262Y-84656915D01*
X132388750Y-84724886D01*
X131925206Y-84857902D01*
X131563479Y-84994680D01*
X131266079Y-85155879D01*
X130995512Y-85362160D01*
X130714288Y-85634184D01*
X130687231Y-85662537D01*
X130485327Y-85880778D01*
X130326287Y-86063401D01*
X130231200Y-86185585D01*
X130213612Y-86219910D01*
X130159889Y-86276907D01*
X130143446Y-86278543D01*
X130075568Y-86227176D01*
X130095089Y-86080794D01*
X130198136Y-85850976D01*
X130380838Y-85549302D01*
X130393858Y-85529753D01*
X130551117Y-85304429D01*
X130685813Y-85128908D01*
X130774672Y-85032997D01*
X130788541Y-85024331D01*
X130890957Y-84958037D01*
X130996374Y-84864290D01*
X131187761Y-84719685D01*
X131475506Y-84558566D01*
X131820166Y-84399794D01*
X132182299Y-84262229D01*
X132388750Y-84198492D01*
X132678322Y-84142433D01*
X133066725Y-84101133D01*
X133518588Y-84074956D01*
X133998541Y-84064265D01*
X134471214Y-84069422D01*
G37*
%TO.C,D4*%
X164161341Y-117031927D02*
X161891341Y-117031927D01*
X161891341Y-117031927D02*
X161891341Y-120916927D01*
X164161341Y-120916927D02*
X164161341Y-117031927D01*
%TO.C,C22*%
X148532541Y-98800979D02*
X148532541Y-98278475D01*
X150002541Y-98800979D02*
X150002541Y-98278475D01*
%TO.C,D3*%
X169161341Y-117031927D02*
X166891341Y-117031927D01*
X166891341Y-117031927D02*
X166891341Y-120916927D01*
X169161341Y-120916927D02*
X169161341Y-117031927D01*
%TO.C,D10*%
X169161341Y-76391927D02*
X166891341Y-76391927D01*
X166891341Y-76391927D02*
X166891341Y-80276927D01*
X169161341Y-80276927D02*
X169161341Y-76391927D01*
%TO.C,R18*%
X150107277Y-94096327D02*
X150561405Y-94096327D01*
X150107277Y-95566327D02*
X150561405Y-95566327D01*
%TO.C,BT1*%
X139014341Y-75430927D02*
X139014341Y-81430927D01*
X140714341Y-83430927D02*
X139014341Y-81430927D01*
X140714341Y-83430927D02*
X144714341Y-83430927D01*
X144714341Y-83430927D02*
X146414341Y-81430927D01*
X146414341Y-75430927D02*
X146414341Y-81430927D01*
X140314341Y-75430927D02*
G75*
G03*
X139008693Y-75440254I-650000J-400001D01*
G01*
X140314341Y-75430927D02*
G75*
G03*
X145105724Y-75435512I2400000J4499997D01*
G01*
X146418063Y-75430928D02*
G75*
G03*
X145106969Y-75436955I-653722J-399999D01*
G01*
D13*
%TO.C,J2*%
X154363941Y-88782327D02*
X154363941Y-83422927D01*
X154389341Y-90661927D02*
X154389341Y-91284227D01*
X154389341Y-93214627D02*
X154389341Y-93836927D01*
X154389341Y-95729227D02*
X154389341Y-96376927D01*
X154389341Y-100567927D02*
X154389341Y-100720327D01*
X154389341Y-100720327D02*
X154389341Y-101431527D01*
X154389341Y-103234927D02*
X154389341Y-103895327D01*
X154389341Y-105660627D02*
X154389341Y-106397227D01*
X154402041Y-98167627D02*
X154402041Y-98878827D01*
X154402041Y-109965927D02*
X154402041Y-111350227D01*
X159799541Y-112121927D02*
X184640741Y-112121927D01*
X159837641Y-83171927D02*
X178392341Y-83171927D01*
X183967641Y-83171927D02*
X184793141Y-83171927D01*
X184793141Y-77696927D02*
X189822341Y-77696927D01*
X184793141Y-83171927D02*
X184793141Y-77696927D01*
X189822341Y-77696927D02*
X189822341Y-110646927D01*
D14*
%TO.C,D8*%
X159161341Y-117031927D02*
X156891341Y-117031927D01*
X156891341Y-117031927D02*
X156891341Y-120916927D01*
X159161341Y-120916927D02*
X159161341Y-117031927D01*
%TD*%
M02*
