%TF.GenerationSoftware,KiCad,Pcbnew,6.0.4-6f826c9f35~116~ubuntu20.04.1*%
%TF.CreationDate,2022-04-14T19:41:17+00:00*%
%TF.ProjectId,USTSIPIN01,55535453-4950-4494-9e30-312e6b696361,rev?*%
%TF.SameCoordinates,PX6384130PY6d19b00*%
%TF.FileFunction,Copper,L1,Top*%
%TF.FilePolarity,Positive*%
%FSLAX46Y46*%
G04 Gerber Fmt 4.6, Leading zero omitted, Abs format (unit mm)*
G04 Created by KiCad (PCBNEW 6.0.4-6f826c9f35~116~ubuntu20.04.1) date 2022-04-14 19:41:17*
%MOMM*%
%LPD*%
G01*
G04 APERTURE LIST*
%TA.AperFunction,ComponentPad*%
%ADD10C,6.000000*%
%TD*%
%TA.AperFunction,ComponentPad*%
%ADD11R,1.524000X1.524000*%
%TD*%
%TA.AperFunction,ComponentPad*%
%ADD12C,1.524000*%
%TD*%
%TA.AperFunction,SMDPad,CuDef*%
%ADD13R,3.800000X1.000000*%
%TD*%
%TA.AperFunction,SMDPad,CuDef*%
%ADD14R,1.000000X3.800000*%
%TD*%
%TA.AperFunction,SMDPad,CuDef*%
%ADD15R,3.300000X2.550000*%
%TD*%
%TA.AperFunction,SMDPad,CuDef*%
%ADD16R,1.000000X1.000000*%
%TD*%
%TA.AperFunction,SMDPad,CuDef*%
%ADD17R,1.000000X2.300000*%
%TD*%
%TA.AperFunction,SMDPad,CuDef*%
%ADD18R,2.300000X1.000000*%
%TD*%
%TA.AperFunction,ComponentPad*%
%ADD19C,1.500000*%
%TD*%
%TA.AperFunction,ViaPad*%
%ADD20C,0.800000*%
%TD*%
%TA.AperFunction,Conductor*%
%ADD21C,0.250000*%
%TD*%
%TA.AperFunction,Conductor*%
%ADD22C,0.400000*%
%TD*%
%TA.AperFunction,Conductor*%
%ADD23C,0.800000*%
%TD*%
G04 APERTURE END LIST*
D10*
%TO.P,M2,1*%
%TO.N,GND*%
X86145000Y45408000D03*
%TD*%
%TO.P,M3,1*%
%TO.N,GND*%
X4865000Y45408000D03*
%TD*%
%TO.P,M4,1*%
%TO.N,GND*%
X4865000Y4768000D03*
%TD*%
D11*
%TO.P,J1,1*%
%TO.N,/power/5*%
X84748000Y25596000D03*
%TO.P,J1,2*%
X87288000Y25596000D03*
%TD*%
%TO.P,J2,1*%
%TO.N,GND*%
X84748000Y28136000D03*
%TO.P,J2,2*%
X87288000Y28136000D03*
%TD*%
%TO.P,J3,1*%
%TO.N,/power/3*%
X84748000Y23056000D03*
%TO.P,J3,2*%
X87288000Y23056000D03*
%TD*%
D12*
%TO.P,D2,1,K*%
%TO.N,/K*%
X15145000Y33878000D03*
%TO.P,D2,2,A*%
%TO.N,/A*%
X10145000Y33878000D03*
%TD*%
D11*
%TO.P,J4,1*%
%TO.N,/cpu/PC7*%
X84748000Y35756000D03*
%TD*%
%TO.P,J5,1*%
%TO.N,/cpu/PC3*%
X87288000Y35756000D03*
%TD*%
%TO.P,J6,1*%
%TO.N,/cpu/RX0*%
X84748000Y33216000D03*
%TD*%
%TO.P,J7,1*%
%TO.N,/cpu/TX0*%
X87288000Y33216000D03*
%TD*%
%TO.P,J19,1*%
%TO.N,/cpu/RST#*%
X84748000Y30676000D03*
%TO.P,J19,2*%
X87288000Y30676000D03*
%TD*%
D10*
%TO.P,M1,1*%
%TO.N,GND*%
X86145000Y4768000D03*
%TD*%
D13*
%TO.P,M5,1*%
%TO.N,GND*%
X49761000Y40336000D03*
X67761000Y40336000D03*
X43761000Y40336000D03*
D14*
X80661000Y22186000D03*
X36861000Y34186000D03*
X80661000Y34186000D03*
D15*
X79511000Y39561000D03*
D13*
X49761000Y10036000D03*
X67761000Y10036000D03*
D15*
X79511000Y10811000D03*
X38011000Y10811000D03*
D13*
X61761000Y10036000D03*
X61761000Y40336000D03*
X55761000Y40336000D03*
X73761000Y10036000D03*
D14*
X36861000Y16186000D03*
D13*
X43761000Y10036000D03*
D14*
X80661000Y28186000D03*
X36861000Y22186000D03*
D13*
X73761000Y40336000D03*
D14*
X80661000Y16186000D03*
X36861000Y28186000D03*
D13*
X55761000Y10036000D03*
D15*
X38011000Y39561000D03*
%TD*%
D13*
%TO.P,M8,1*%
%TO.N,GND*%
X26057000Y9188000D03*
D14*
X1157000Y22088000D03*
D16*
X32957000Y9188000D03*
D13*
X8057000Y40988000D03*
X26057000Y40988000D03*
X14057000Y40988000D03*
D14*
X32957000Y34088000D03*
D13*
X20057000Y40988000D03*
D14*
X1157000Y28088000D03*
X32957000Y22088000D03*
D17*
X32957000Y10838000D03*
D14*
X1157000Y16088000D03*
D18*
X31307000Y9188000D03*
D13*
X20057000Y9188000D03*
D14*
X1157000Y34088000D03*
D13*
X8057000Y9188000D03*
D16*
X1157000Y40988000D03*
X1157000Y9188000D03*
D14*
X32957000Y16088000D03*
D17*
X1157000Y39338000D03*
X1157000Y10838000D03*
D18*
X31307000Y40988000D03*
D14*
X32957000Y28088000D03*
D13*
X14057000Y9188000D03*
D16*
X32957000Y40988000D03*
D17*
X32957000Y39338000D03*
D18*
X2807000Y40988000D03*
X2807000Y9188000D03*
%TD*%
D19*
%TO.P,Y1,1,1*%
%TO.N,Net-(C30-Pad1)*%
X50077000Y34232000D03*
%TO.P,Y1,2,2*%
%TO.N,Net-(C33-Pad1)*%
X54957000Y34232000D03*
%TD*%
D20*
%TO.N,GND*%
X75096000Y14293000D03*
X32805000Y13404000D03*
X32551000Y11880000D03*
X34075000Y11880000D03*
X35599000Y11880000D03*
X37123000Y11880000D03*
X38901000Y11880000D03*
X40425000Y11880000D03*
X28360000Y11118000D03*
X26455000Y12388000D03*
X26455000Y13658000D03*
X27725000Y14928000D03*
X27725000Y16198000D03*
X27090000Y17468000D03*
X25820000Y18103000D03*
X24550000Y18103000D03*
X23280000Y18103000D03*
X22010000Y18103000D03*
X20740000Y17468000D03*
X19470000Y16198000D03*
X18200000Y15563000D03*
X16930000Y15563000D03*
X15025000Y15563000D03*
X13755000Y16833000D03*
X12485000Y16833000D03*
X17565000Y18738000D03*
X17565000Y20008000D03*
X17565000Y21278000D03*
X18835000Y21278000D03*
X18835000Y20008000D03*
X20105000Y21278000D03*
X21375000Y21278000D03*
X22645000Y21278000D03*
X23915000Y21278000D03*
X25185000Y21278000D03*
X26455000Y21278000D03*
X21375000Y22548000D03*
X21375000Y24580000D03*
X22645000Y24580000D03*
X22645000Y22548000D03*
X30900000Y21913000D03*
X29757000Y21532000D03*
X30265000Y20008000D03*
X30265000Y18738000D03*
X31535000Y18738000D03*
X31535000Y20008000D03*
X32170000Y21278000D03*
X34075000Y21913000D03*
X33821000Y16960000D03*
X34075000Y18103000D03*
X33440000Y19373000D03*
X32297000Y16960000D03*
X10580000Y16833000D03*
X8675000Y16833000D03*
X7405000Y17468000D03*
X5500000Y17468000D03*
X4230000Y18103000D03*
X2960000Y19373000D03*
X2325000Y20643000D03*
X2325000Y21913000D03*
X2325000Y23818000D03*
X2325000Y25723000D03*
X2325000Y27628000D03*
X2325000Y29533000D03*
X2325000Y31438000D03*
X2325000Y32708000D03*
X5500000Y32708000D03*
X6770000Y31438000D03*
X7405000Y32708000D03*
X8040000Y33978000D03*
X8040000Y35248000D03*
X9945000Y35883000D03*
X11215000Y35883000D03*
X11850000Y34613000D03*
X10580000Y31438000D03*
X11850000Y32708000D03*
X4865000Y35248000D03*
X13755000Y34613000D03*
X14390000Y35883000D03*
X15660000Y35883000D03*
X16295000Y37153000D03*
X16295000Y38423000D03*
X19470000Y30168000D03*
X20740000Y30168000D03*
X22010000Y30168000D03*
X23153000Y29660000D03*
X24550000Y31692000D03*
X25820000Y30676000D03*
X27090000Y30168000D03*
X27090000Y31438000D03*
X27725000Y32708000D03*
X28360000Y33978000D03*
X25820000Y33343000D03*
X25820000Y35248000D03*
X27090000Y35883000D03*
X28360000Y35883000D03*
X29630000Y35248000D03*
X30900000Y35248000D03*
X32170000Y35248000D03*
X33440000Y35248000D03*
X34710000Y35248000D03*
X35980000Y35883000D03*
X35980000Y37153000D03*
X37250000Y37788000D03*
X39790000Y37153000D03*
X40679000Y33724000D03*
X40679000Y32200000D03*
X40679000Y31184000D03*
X41441000Y30168000D03*
X42711000Y30168000D03*
X43473000Y29152000D03*
X50585000Y38804000D03*
X52109000Y38804000D03*
X53633000Y38804000D03*
X55157000Y38804000D03*
X56681000Y38804000D03*
X58205000Y38804000D03*
X59729000Y38804000D03*
X61253000Y38804000D03*
X62777000Y26612000D03*
X58713000Y20008000D03*
X53633000Y20008000D03*
X57697000Y24580000D03*
X69381000Y24580000D03*
X69889000Y22040000D03*
X75985000Y31184000D03*
X66333000Y31184000D03*
X66968000Y38423000D03*
X68238000Y38423000D03*
X50839000Y32200000D03*
X49823000Y21405000D03*
X49442000Y32200000D03*
X5881000Y36264000D03*
X6897000Y37280000D03*
X8421000Y38296000D03*
X9945000Y38296000D03*
X11469000Y38296000D03*
X12993000Y38296000D03*
X14009000Y37280000D03*
X79033000Y21532000D03*
X79033000Y20008000D03*
X78017000Y18992000D03*
X78017000Y38931000D03*
X76493000Y38931000D03*
X74969000Y38931000D03*
X73445000Y38931000D03*
X71921000Y38931000D03*
X70397000Y38931000D03*
X69381000Y38931000D03*
X87669000Y11880000D03*
X87669000Y13404000D03*
X88177000Y16452000D03*
X79033000Y33216000D03*
X66841000Y33724000D03*
X10105000Y27368000D03*
X33213186Y28389814D03*
X37410000Y21653000D03*
X54014000Y28517000D03*
X38534423Y37253961D03*
X59729000Y26104000D03*
X31695000Y29908000D03*
X51093000Y13404000D03*
X40621307Y34936307D03*
X3849000Y34232000D03*
X10104457Y29888565D03*
X34235000Y29108000D03*
X30425000Y29908000D03*
X29647000Y28511000D03*
X4771000Y26606000D03*
X12010000Y31178000D03*
X51093000Y12134000D03*
X9089000Y21780000D03*
X49823000Y13404000D03*
X52363000Y12134000D03*
X38553000Y25590000D03*
X62486789Y31908000D03*
X14517000Y22040000D03*
X38680000Y21653000D03*
X10453000Y21653000D03*
X37250000Y15563000D03*
X33003000Y27368000D03*
X52363000Y13404000D03*
X12010000Y21653000D03*
X12645000Y23558000D03*
X38680000Y29908000D03*
X39315000Y29273000D03*
X33219000Y24320000D03*
X4771000Y25336000D03*
X10105000Y28638000D03*
X30552000Y28511000D03*
X10105000Y25463000D03*
X49823000Y12134000D03*
X55652109Y24503999D03*
%TO.N,Net-(R1-Pad2)*%
X38900992Y36264000D03*
X34041648Y26053080D03*
%TO.N,/cpu/RST#_P*%
X78525000Y30803000D03*
X59475000Y28898000D03*
%TO.N,/cpu/PC0*%
X65532314Y29075314D03*
X71667000Y24326000D03*
%TO.N,/cpu/PC1*%
X66841000Y28898000D03*
X71159778Y27024070D03*
%TO.N,/cpu/PB6*%
X55157000Y26104000D03*
X51220000Y24453000D03*
%TO.N,/cpu/RX0*%
X61761000Y34359000D03*
X71159000Y34994000D03*
%TO.N,/cpu/TX0*%
X60110000Y34359000D03*
X71851686Y35879990D03*
%TO.N,+3V3*%
X64174000Y20262000D03*
X28647000Y19748000D03*
X58205000Y15055000D03*
X28647000Y32194000D03*
X75985000Y32708000D03*
X58967000Y15055000D03*
X64174000Y19246000D03*
X63539000Y32708000D03*
%TO.N,+5V*%
X65317000Y18865000D03*
X51728000Y21532000D03*
%TO.N,PA1*%
X65190000Y27628000D03*
X31281000Y25215000D03*
%TO.N,PA0*%
X62650000Y30803000D03*
X42965000Y31438000D03*
%TO.N,PB0*%
X61253000Y26612000D03*
X42490000Y22548000D03*
%TD*%
D21*
%TO.N,GND*%
X4771000Y25336000D02*
X4771000Y26606000D01*
D22*
X34235000Y28600000D02*
X33003000Y27368000D01*
D21*
X33219000Y24320000D02*
X33219000Y23050000D01*
X10105000Y28638000D02*
X10105000Y27368000D01*
X13280000Y31178000D02*
X11990565Y29888565D01*
X29647000Y28511000D02*
X30552000Y28511000D01*
D22*
X31695000Y29908000D02*
X30425000Y29908000D01*
X38680000Y21653000D02*
X37410000Y21653000D01*
X34235000Y29108000D02*
X34235000Y28600000D01*
D21*
X33219000Y23050000D02*
X33473000Y22796000D01*
D22*
X33931372Y29108000D02*
X33213186Y28389814D01*
D21*
X11990565Y29888565D02*
X10104457Y29888565D01*
D22*
X39315000Y29273000D02*
X39315000Y26352000D01*
D21*
X12010000Y21653000D02*
X13915000Y21653000D01*
D22*
X34235000Y29108000D02*
X33931372Y29108000D01*
X39315000Y26352000D02*
X38553000Y25590000D01*
%TO.N,Net-(R1-Pad2)*%
X38900992Y36264000D02*
X38900992Y32707992D01*
X35638000Y27649432D02*
X34441647Y26453079D01*
X38900992Y32707992D02*
X37377000Y31184000D01*
X36361000Y31184000D02*
X35638000Y30461000D01*
X35638000Y30461000D02*
X35638000Y27649432D01*
X34441647Y26453079D02*
X34041648Y26053080D01*
X37377000Y31184000D02*
X36361000Y31184000D01*
%TO.N,/cpu/RST#_P*%
X77959315Y30803000D02*
X77070315Y29914000D01*
X78525000Y30803000D02*
X77959315Y30803000D01*
X77070315Y29914000D02*
X60491000Y29914000D01*
X60491000Y29914000D02*
X59475000Y28898000D01*
%TO.N,/cpu/PC0*%
X65532314Y29075314D02*
X69227627Y25380001D01*
X70612999Y25380001D02*
X71667000Y24326000D01*
X69227627Y25380001D02*
X70612999Y25380001D01*
%TO.N,/cpu/PC1*%
X66841000Y28898000D02*
X68714930Y27024070D01*
X68714930Y27024070D02*
X71159778Y27024070D01*
%TO.N,/cpu/PB6*%
X51220000Y24453000D02*
X53506000Y24453000D01*
X54757001Y25704001D02*
X55157000Y26104000D01*
X53506000Y24453000D02*
X54757001Y25704001D01*
%TO.N,/cpu/RX0*%
X62396000Y34994000D02*
X71159000Y34994000D01*
X61761000Y34359000D02*
X62396000Y34994000D01*
%TO.N,/cpu/TX0*%
X60110000Y34359000D02*
X61630990Y35879990D01*
X61630990Y35879990D02*
X71851686Y35879990D01*
%TO.N,+3V3*%
X75985000Y32708000D02*
X63539000Y32708000D01*
D23*
X64174000Y20262000D02*
X64174000Y16071000D01*
X58967000Y15055000D02*
X58205000Y15055000D01*
X28647000Y32194000D02*
X28647000Y19748000D01*
X64174000Y16071000D02*
X63158000Y15055000D01*
X63158000Y15055000D02*
X58967000Y15055000D01*
%TO.N,+5V*%
X64428000Y21532000D02*
X51728000Y21532000D01*
X65317000Y20643000D02*
X64428000Y21532000D01*
X65317000Y18865000D02*
X65317000Y20643000D01*
D22*
%TO.N,PA1*%
X45333999Y24789999D02*
X48108500Y27564500D01*
X31281000Y25215000D02*
X33508002Y25215000D01*
X65190000Y27628000D02*
X48172000Y27628000D01*
X33933003Y24789999D02*
X45333999Y24789999D01*
X33508002Y25215000D02*
X33933003Y24789999D01*
X48172000Y27628000D02*
X48108500Y27564500D01*
%TO.N,PA0*%
X42965000Y31438000D02*
X43600000Y30803000D01*
X43600000Y30803000D02*
X62650000Y30803000D01*
%TO.N,PB0*%
X61253000Y26612000D02*
X60837010Y27027990D01*
X43981000Y22548000D02*
X42490000Y22548000D01*
X48460990Y27027990D02*
X43981000Y22548000D01*
X60837010Y27027990D02*
X48460990Y27027990D01*
%TD*%
%TA.AperFunction,Conductor*%
%TO.N,GND*%
G36*
X90405122Y49705998D02*
G01*
X90451615Y49652342D01*
X90463001Y49600000D01*
X90463000Y576000D01*
X90442998Y507879D01*
X90389342Y461386D01*
X90337000Y450000D01*
X673000Y450000D01*
X604879Y470002D01*
X558386Y523658D01*
X547000Y576000D01*
X547000Y32194000D01*
X27733500Y32194000D01*
X27734190Y32187435D01*
X27737810Y32152993D01*
X27738500Y32139822D01*
X27738501Y19802187D01*
X27737811Y19789017D01*
X27733500Y19748000D01*
X27753462Y19558073D01*
X27812476Y19376446D01*
X27907963Y19211058D01*
X27912381Y19206151D01*
X27912382Y19206150D01*
X27919338Y19198425D01*
X28035749Y19069137D01*
X28041091Y19065256D01*
X28041093Y19065254D01*
X28184908Y18960767D01*
X28190250Y18956886D01*
X28196278Y18954202D01*
X28196280Y18954201D01*
X28304526Y18906007D01*
X28364713Y18879210D01*
X28458113Y18859357D01*
X28545056Y18840876D01*
X28545061Y18840876D01*
X28551513Y18839504D01*
X28742487Y18839504D01*
X28748939Y18840876D01*
X28748944Y18840876D01*
X28835887Y18859357D01*
X28929287Y18879210D01*
X28989474Y18906007D01*
X29097720Y18954201D01*
X29097722Y18954202D01*
X29103750Y18956886D01*
X29109092Y18960767D01*
X29252907Y19065254D01*
X29252909Y19065256D01*
X29258251Y19069137D01*
X29374662Y19198425D01*
X29381618Y19206150D01*
X29381619Y19206151D01*
X29386037Y19211058D01*
X29481524Y19376446D01*
X29540538Y19558073D01*
X29555500Y19700428D01*
X29560500Y19748000D01*
X29556189Y19789017D01*
X29555500Y19802178D01*
X29555500Y21532000D01*
X50814500Y21532000D01*
X50815190Y21525435D01*
X50818814Y21490955D01*
X50819504Y21477784D01*
X50819504Y21436513D01*
X50828086Y21396136D01*
X50830147Y21383128D01*
X50834462Y21342073D01*
X50836501Y21335799D01*
X50836502Y21335792D01*
X50847218Y21302809D01*
X50850630Y21290076D01*
X50859210Y21249713D01*
X50876000Y21212002D01*
X50880721Y21199702D01*
X50893476Y21160446D01*
X50896780Y21154723D01*
X50896781Y21154721D01*
X50914116Y21124695D01*
X50920102Y21112947D01*
X50936886Y21075250D01*
X50961144Y21041862D01*
X50968323Y21030808D01*
X50988963Y20995058D01*
X50993383Y20990149D01*
X50993386Y20990145D01*
X51016577Y20964389D01*
X51024878Y20954140D01*
X51049137Y20920749D01*
X51054045Y20916330D01*
X51079807Y20893134D01*
X51089134Y20883807D01*
X51116749Y20853137D01*
X51122091Y20849256D01*
X51122092Y20849255D01*
X51150138Y20828879D01*
X51160389Y20820577D01*
X51186145Y20797386D01*
X51186149Y20797383D01*
X51191058Y20792963D01*
X51226808Y20772323D01*
X51237860Y20765146D01*
X51271250Y20740886D01*
X51277281Y20738201D01*
X51308947Y20724102D01*
X51320695Y20718116D01*
X51350721Y20700781D01*
X51350723Y20700780D01*
X51356446Y20697476D01*
X51395702Y20684721D01*
X51408002Y20680000D01*
X51445713Y20663210D01*
X51452166Y20661838D01*
X51452167Y20661838D01*
X51486076Y20654630D01*
X51498809Y20651218D01*
X51531792Y20640502D01*
X51531799Y20640501D01*
X51538073Y20638462D01*
X51544634Y20637772D01*
X51544636Y20637772D01*
X51558519Y20636313D01*
X51579128Y20634147D01*
X51592136Y20632086D01*
X51632513Y20623504D01*
X51680352Y20623504D01*
X51680403Y20623503D01*
X51680428Y20623500D01*
X63162785Y20623500D01*
X63230906Y20603498D01*
X63277399Y20549842D01*
X63282253Y20465009D01*
X63283875Y20464664D01*
X63282612Y20458724D01*
X63282621Y20458572D01*
X63280462Y20451927D01*
X63260500Y20262000D01*
X63261190Y20255435D01*
X63264810Y20220993D01*
X63265500Y20207822D01*
X63265500Y19300179D01*
X63264810Y19287009D01*
X63260500Y19246000D01*
X63261190Y19239435D01*
X63264810Y19204990D01*
X63265500Y19191820D01*
X63265501Y17831872D01*
X63265501Y16499504D01*
X63228596Y16410409D01*
X62818592Y16000405D01*
X62729497Y15963500D01*
X58157428Y15963500D01*
X58157403Y15963497D01*
X58157352Y15963496D01*
X58109513Y15963496D01*
X58069136Y15954914D01*
X58056128Y15952853D01*
X58035519Y15950687D01*
X58021636Y15949228D01*
X58021634Y15949228D01*
X58015073Y15948538D01*
X58008799Y15946499D01*
X58008792Y15946498D01*
X57975809Y15935782D01*
X57963076Y15932370D01*
X57942975Y15928097D01*
X57922713Y15923790D01*
X57885002Y15907000D01*
X57872702Y15902279D01*
X57833446Y15889524D01*
X57827723Y15886220D01*
X57827721Y15886219D01*
X57797695Y15868884D01*
X57785947Y15862898D01*
X57748250Y15846114D01*
X57714862Y15821856D01*
X57703808Y15814677D01*
X57668058Y15794037D01*
X57663149Y15789617D01*
X57663145Y15789614D01*
X57637389Y15766423D01*
X57627140Y15758122D01*
X57593749Y15733863D01*
X57589329Y15728955D01*
X57589330Y15728955D01*
X57566134Y15703193D01*
X57556807Y15693866D01*
X57526137Y15666251D01*
X57522256Y15660909D01*
X57522255Y15660908D01*
X57501879Y15632862D01*
X57493577Y15622611D01*
X57470386Y15596855D01*
X57470383Y15596851D01*
X57465963Y15591942D01*
X57445323Y15556192D01*
X57438146Y15545140D01*
X57413886Y15511750D01*
X57411201Y15505719D01*
X57397102Y15474053D01*
X57391116Y15462305D01*
X57373781Y15432279D01*
X57370476Y15426554D01*
X57368434Y15420269D01*
X57357722Y15387301D01*
X57353000Y15374998D01*
X57336210Y15337287D01*
X57334838Y15330834D01*
X57334838Y15330833D01*
X57327630Y15296924D01*
X57324218Y15284191D01*
X57313502Y15251208D01*
X57313501Y15251201D01*
X57311462Y15244927D01*
X57310772Y15238366D01*
X57310772Y15238364D01*
X57307148Y15203878D01*
X57305086Y15190864D01*
X57296504Y15150487D01*
X57296504Y15109216D01*
X57295814Y15096045D01*
X57291500Y15055000D01*
X57292190Y15048435D01*
X57295814Y15013955D01*
X57296504Y15000784D01*
X57296504Y14959513D01*
X57305086Y14919136D01*
X57307147Y14906128D01*
X57311462Y14865073D01*
X57313501Y14858799D01*
X57313502Y14858792D01*
X57324218Y14825809D01*
X57327630Y14813076D01*
X57336210Y14772713D01*
X57353000Y14735002D01*
X57357721Y14722702D01*
X57370476Y14683446D01*
X57373780Y14677723D01*
X57373781Y14677721D01*
X57391116Y14647695D01*
X57397102Y14635947D01*
X57413886Y14598250D01*
X57438144Y14564862D01*
X57445323Y14553808D01*
X57465963Y14518058D01*
X57470383Y14513149D01*
X57470386Y14513145D01*
X57493577Y14487389D01*
X57501878Y14477140D01*
X57526137Y14443749D01*
X57531045Y14439330D01*
X57556807Y14416134D01*
X57566134Y14406807D01*
X57593749Y14376137D01*
X57599091Y14372256D01*
X57599092Y14372255D01*
X57627138Y14351879D01*
X57637389Y14343577D01*
X57663145Y14320386D01*
X57663149Y14320383D01*
X57668058Y14315963D01*
X57703808Y14295323D01*
X57714860Y14288146D01*
X57748250Y14263886D01*
X57785947Y14247102D01*
X57797695Y14241116D01*
X57827721Y14223781D01*
X57827723Y14223780D01*
X57833446Y14220476D01*
X57872702Y14207721D01*
X57885002Y14203000D01*
X57922713Y14186210D01*
X57929166Y14184838D01*
X57929167Y14184838D01*
X57963076Y14177630D01*
X57975809Y14174218D01*
X58008792Y14163502D01*
X58008799Y14163501D01*
X58015073Y14161462D01*
X58021634Y14160772D01*
X58021636Y14160772D01*
X58035519Y14159313D01*
X58056128Y14157147D01*
X58069136Y14155086D01*
X58109513Y14146504D01*
X58157352Y14146504D01*
X58157403Y14146503D01*
X58157428Y14146500D01*
X63076610Y14146500D01*
X63096320Y14144949D01*
X63110192Y14142752D01*
X63116779Y14143097D01*
X63116783Y14143097D01*
X63178405Y14146327D01*
X63185000Y14146500D01*
X63205572Y14146500D01*
X63211727Y14147147D01*
X63226040Y14148651D01*
X63232615Y14149168D01*
X63294307Y14152401D01*
X63294311Y14152402D01*
X63300902Y14152747D01*
X63307283Y14154457D01*
X63307285Y14154457D01*
X63314490Y14156387D01*
X63333924Y14159989D01*
X63341353Y14160770D01*
X63341362Y14160772D01*
X63347927Y14161462D01*
X63393459Y14176256D01*
X63412978Y14182598D01*
X63419302Y14184471D01*
X63478991Y14200465D01*
X63479000Y14200468D01*
X63485369Y14202175D01*
X63492250Y14205681D01*
X63497906Y14208562D01*
X63516168Y14216126D01*
X63523265Y14218432D01*
X63523270Y14218434D01*
X63529554Y14220476D01*
X63535279Y14223781D01*
X63588792Y14254677D01*
X63594589Y14257825D01*
X63614101Y14267767D01*
X63655528Y14288875D01*
X63660659Y14293030D01*
X63660662Y14293032D01*
X63666464Y14297730D01*
X63682750Y14308924D01*
X63694942Y14315963D01*
X63745775Y14361733D01*
X63750790Y14366017D01*
X63758493Y14372255D01*
X63766768Y14378956D01*
X63781294Y14393482D01*
X63786079Y14398023D01*
X63831952Y14439327D01*
X63831955Y14439330D01*
X63836863Y14443749D01*
X63845120Y14455114D01*
X63857962Y14470150D01*
X64758858Y15371044D01*
X64773891Y15383883D01*
X64779904Y15388252D01*
X64779905Y15388253D01*
X64785251Y15392137D01*
X64830959Y15442901D01*
X64835500Y15447686D01*
X64850045Y15462231D01*
X64863001Y15478230D01*
X64867285Y15483245D01*
X64908614Y15529146D01*
X64913037Y15534058D01*
X64920075Y15546248D01*
X64931270Y15562536D01*
X64935969Y15568339D01*
X64940125Y15573471D01*
X64949537Y15591942D01*
X64971170Y15634401D01*
X64974318Y15640199D01*
X65005223Y15693728D01*
X65005224Y15693730D01*
X65008524Y15699446D01*
X65012872Y15712829D01*
X65020439Y15731096D01*
X65023828Y15737747D01*
X65023830Y15737751D01*
X65026825Y15743630D01*
X65032933Y15766423D01*
X65044527Y15809696D01*
X65046396Y15816004D01*
X65067538Y15881073D01*
X65069008Y15895062D01*
X65072613Y15914515D01*
X65074543Y15921716D01*
X65076253Y15928097D01*
X65077324Y15948538D01*
X65079832Y15996385D01*
X65080349Y16002960D01*
X65082156Y16020156D01*
X65082500Y16023428D01*
X65082500Y16044000D01*
X65082673Y16050595D01*
X65085903Y16112217D01*
X65085903Y16112221D01*
X65086248Y16118808D01*
X65084051Y16132680D01*
X65082500Y16152390D01*
X65082500Y17831872D01*
X65102502Y17899993D01*
X65156158Y17946486D01*
X65219781Y17956872D01*
X65221513Y17956504D01*
X65412487Y17956504D01*
X65418939Y17957876D01*
X65418944Y17957876D01*
X65505887Y17976357D01*
X65599287Y17996210D01*
X65605318Y17998895D01*
X65767720Y18071201D01*
X65767722Y18071202D01*
X65773750Y18073886D01*
X65779092Y18077767D01*
X65922907Y18182254D01*
X65922909Y18182256D01*
X65928251Y18186137D01*
X66056037Y18328058D01*
X66151524Y18493446D01*
X66210538Y18675073D01*
X66230500Y18865000D01*
X66226190Y18906007D01*
X66225500Y18919178D01*
X66225500Y20561609D01*
X66227051Y20581320D01*
X66228216Y20588675D01*
X66229248Y20595191D01*
X66227765Y20623500D01*
X66225673Y20663405D01*
X66225500Y20669999D01*
X66225500Y20690572D01*
X66223349Y20711040D01*
X66222832Y20717615D01*
X66219599Y20779303D01*
X66219599Y20779304D01*
X66219253Y20785903D01*
X66215612Y20799491D01*
X66212008Y20818938D01*
X66211229Y20826355D01*
X66211228Y20826359D01*
X66210538Y20832927D01*
X66189403Y20897974D01*
X66187531Y20904293D01*
X66171535Y20963993D01*
X66171534Y20963996D01*
X66169826Y20970370D01*
X66163433Y20982918D01*
X66155871Y21001175D01*
X66153564Y21008277D01*
X66153563Y21008280D01*
X66151524Y21014554D01*
X66148226Y21020267D01*
X66148223Y21020273D01*
X66117323Y21073793D01*
X66114176Y21079589D01*
X66086121Y21134649D01*
X66083125Y21140529D01*
X66078971Y21145658D01*
X66078969Y21145662D01*
X66074271Y21151464D01*
X66063072Y21167758D01*
X66059341Y21174221D01*
X66059337Y21174227D01*
X66056037Y21179942D01*
X66010276Y21230765D01*
X66005992Y21235780D01*
X65999588Y21243688D01*
X65993045Y21251768D01*
X65978509Y21266304D01*
X65973968Y21271089D01*
X65932673Y21316952D01*
X65932672Y21316953D01*
X65928251Y21321863D01*
X65922909Y21325744D01*
X65922907Y21325746D01*
X65916889Y21330118D01*
X65901855Y21342958D01*
X65127962Y22116850D01*
X65115120Y22131886D01*
X65106863Y22143251D01*
X65056079Y22188977D01*
X65051294Y22193518D01*
X65036768Y22208044D01*
X65020790Y22220983D01*
X65015775Y22225267D01*
X64969850Y22266618D01*
X64969849Y22266619D01*
X64964942Y22271037D01*
X64952750Y22278076D01*
X64936464Y22289270D01*
X64930662Y22293968D01*
X64930659Y22293970D01*
X64925528Y22298125D01*
X64864587Y22329176D01*
X64858792Y22332323D01*
X64805277Y22363220D01*
X64805276Y22363221D01*
X64799554Y22366524D01*
X64793270Y22368566D01*
X64793265Y22368568D01*
X64786168Y22370874D01*
X64767906Y22378438D01*
X64761251Y22381828D01*
X64755369Y22384825D01*
X64749000Y22386532D01*
X64748991Y22386535D01*
X64689302Y22402529D01*
X64682978Y22404402D01*
X64654309Y22413717D01*
X64617927Y22425538D01*
X64611362Y22426228D01*
X64611353Y22426230D01*
X64603924Y22427011D01*
X64584490Y22430613D01*
X64577285Y22432543D01*
X64577283Y22432543D01*
X64570902Y22434253D01*
X64564311Y22434598D01*
X64564307Y22434599D01*
X64502615Y22437832D01*
X64496040Y22438349D01*
X64481727Y22439853D01*
X64475572Y22440500D01*
X64455000Y22440500D01*
X64448405Y22440673D01*
X64386783Y22443903D01*
X64386779Y22443903D01*
X64380192Y22444248D01*
X64373676Y22443216D01*
X64366321Y22442051D01*
X64346610Y22440500D01*
X51680428Y22440500D01*
X51680403Y22440497D01*
X51680352Y22440496D01*
X51632513Y22440496D01*
X51592136Y22431914D01*
X51579128Y22429853D01*
X51561936Y22428046D01*
X51544636Y22426228D01*
X51544634Y22426228D01*
X51538073Y22425538D01*
X51531799Y22423499D01*
X51531792Y22423498D01*
X51498809Y22412782D01*
X51486076Y22409370D01*
X51453894Y22402529D01*
X51445713Y22400790D01*
X51408002Y22384000D01*
X51395702Y22379279D01*
X51356446Y22366524D01*
X51350723Y22363220D01*
X51350721Y22363219D01*
X51320695Y22345884D01*
X51308947Y22339898D01*
X51271250Y22323114D01*
X51237862Y22298856D01*
X51226808Y22291677D01*
X51191058Y22271037D01*
X51186149Y22266617D01*
X51186145Y22266614D01*
X51160389Y22243423D01*
X51150140Y22235122D01*
X51116749Y22210863D01*
X51112329Y22205955D01*
X51112330Y22205955D01*
X51089134Y22180193D01*
X51079807Y22170866D01*
X51049137Y22143251D01*
X51045256Y22137909D01*
X51045255Y22137908D01*
X51024879Y22109862D01*
X51016577Y22099611D01*
X50993386Y22073855D01*
X50993383Y22073851D01*
X50988963Y22068942D01*
X50968323Y22033192D01*
X50961146Y22022140D01*
X50936886Y21988750D01*
X50931481Y21976611D01*
X50920102Y21951053D01*
X50914116Y21939305D01*
X50896781Y21909279D01*
X50893476Y21903554D01*
X50881032Y21865254D01*
X50880722Y21864301D01*
X50876000Y21851998D01*
X50859210Y21814287D01*
X50857838Y21807834D01*
X50857838Y21807833D01*
X50850630Y21773924D01*
X50847218Y21761191D01*
X50836502Y21728208D01*
X50836501Y21728201D01*
X50834462Y21721927D01*
X50833772Y21715366D01*
X50833772Y21715364D01*
X50830148Y21680878D01*
X50828086Y21667864D01*
X50819504Y21627487D01*
X50819504Y21586216D01*
X50818814Y21573045D01*
X50814500Y21532000D01*
X29555500Y21532000D01*
X29555500Y25215000D01*
X30367500Y25215000D01*
X30387462Y25025073D01*
X30389502Y25018795D01*
X30389502Y25018794D01*
X30421957Y24918907D01*
X30446476Y24843446D01*
X30449779Y24837724D01*
X30449780Y24837723D01*
X30455743Y24827395D01*
X30541963Y24678058D01*
X30546381Y24673151D01*
X30546382Y24673150D01*
X30651278Y24556651D01*
X30669749Y24536137D01*
X30675091Y24532256D01*
X30675093Y24532254D01*
X30818908Y24427767D01*
X30824250Y24423886D01*
X30830278Y24421202D01*
X30830280Y24421201D01*
X30992682Y24348895D01*
X30998713Y24346210D01*
X31088989Y24327021D01*
X31179056Y24307876D01*
X31179061Y24307876D01*
X31185513Y24306504D01*
X31376487Y24306504D01*
X31382939Y24307876D01*
X31382944Y24307876D01*
X31473011Y24327021D01*
X31563287Y24346210D01*
X31569318Y24348895D01*
X31731720Y24421201D01*
X31731722Y24421202D01*
X31737750Y24423886D01*
X31818339Y24482437D01*
X31892399Y24506500D01*
X33162343Y24506500D01*
X33251438Y24469595D01*
X33413655Y24307378D01*
X33419508Y24301113D01*
X33455578Y24259765D01*
X33461796Y24255395D01*
X33507849Y24223029D01*
X33513125Y24219111D01*
X33563391Y24179697D01*
X33570313Y24176572D01*
X33572619Y24175175D01*
X33587244Y24166833D01*
X33589621Y24165558D01*
X33595838Y24161189D01*
X33602917Y24158429D01*
X33602919Y24158428D01*
X33631368Y24147336D01*
X33655346Y24137988D01*
X33661422Y24135434D01*
X33712711Y24112276D01*
X33712713Y24112275D01*
X33719637Y24109149D01*
X33727103Y24107765D01*
X33729675Y24106959D01*
X33745874Y24102345D01*
X33748482Y24101675D01*
X33755563Y24098915D01*
X33818903Y24090576D01*
X33825407Y24089546D01*
X33888202Y24077908D01*
X33895782Y24078345D01*
X33895783Y24078345D01*
X33946859Y24081290D01*
X33954112Y24081499D01*
X44208340Y24081499D01*
X44276461Y24061497D01*
X44322954Y24007841D01*
X44333058Y23937567D01*
X44297435Y23866404D01*
X43724436Y23293405D01*
X43635341Y23256500D01*
X43101399Y23256500D01*
X43027339Y23280563D01*
X43009663Y23293405D01*
X42946750Y23339114D01*
X42940722Y23341798D01*
X42940720Y23341799D01*
X42778318Y23414105D01*
X42778317Y23414105D01*
X42772287Y23416790D01*
X42678887Y23436643D01*
X42591944Y23455124D01*
X42591939Y23455124D01*
X42585487Y23456496D01*
X42394513Y23456496D01*
X42388061Y23455124D01*
X42388056Y23455124D01*
X42301113Y23436643D01*
X42207713Y23416790D01*
X42201683Y23414105D01*
X42201682Y23414105D01*
X42039280Y23341799D01*
X42039278Y23341798D01*
X42033250Y23339114D01*
X42027909Y23335234D01*
X42027908Y23335233D01*
X41884093Y23230746D01*
X41884091Y23230744D01*
X41878749Y23226863D01*
X41750963Y23084942D01*
X41655476Y22919554D01*
X41596462Y22737927D01*
X41576500Y22548000D01*
X41577190Y22541435D01*
X41595117Y22370874D01*
X41596462Y22358073D01*
X41598502Y22351795D01*
X41598502Y22351794D01*
X41617291Y22293968D01*
X41655476Y22176446D01*
X41658779Y22170724D01*
X41658780Y22170723D01*
X41681203Y22131886D01*
X41750963Y22011058D01*
X41755381Y22006151D01*
X41755382Y22006150D01*
X41816309Y21938484D01*
X41878749Y21869137D01*
X41884091Y21865256D01*
X41884093Y21865254D01*
X42027908Y21760767D01*
X42033250Y21756886D01*
X42039278Y21754202D01*
X42039280Y21754201D01*
X42201682Y21681895D01*
X42207713Y21679210D01*
X42301113Y21659357D01*
X42388056Y21640876D01*
X42388061Y21640876D01*
X42394513Y21639504D01*
X42585487Y21639504D01*
X42591939Y21640876D01*
X42591944Y21640876D01*
X42678887Y21659357D01*
X42772287Y21679210D01*
X42778318Y21681895D01*
X42940720Y21754201D01*
X42940722Y21754202D01*
X42946750Y21756886D01*
X43027339Y21815437D01*
X43101399Y21839500D01*
X43955061Y21839500D01*
X43963632Y21839208D01*
X44018341Y21835478D01*
X44081279Y21846463D01*
X44087791Y21847423D01*
X44151194Y21855096D01*
X44158299Y21857781D01*
X44160906Y21858421D01*
X44177144Y21862863D01*
X44179741Y21863647D01*
X44187224Y21864953D01*
X44194180Y21868006D01*
X44194182Y21868007D01*
X44245705Y21890624D01*
X44251814Y21893117D01*
X44304452Y21913007D01*
X44304454Y21913008D01*
X44311562Y21915694D01*
X44317827Y21920000D01*
X44320218Y21921250D01*
X44334922Y21929434D01*
X44337243Y21930807D01*
X44344201Y21933861D01*
X44394877Y21972747D01*
X44400186Y21976604D01*
X44452846Y22012796D01*
X44461170Y22022138D01*
X44491955Y22056691D01*
X44496936Y22061967D01*
X48717555Y26282585D01*
X48806650Y26319490D01*
X54066328Y26319490D01*
X54134449Y26299488D01*
X54180942Y26245832D01*
X54191046Y26175558D01*
X54155424Y26104395D01*
X53249436Y25198405D01*
X53160340Y25161500D01*
X51831399Y25161500D01*
X51757339Y25185563D01*
X51707786Y25221565D01*
X51676750Y25244114D01*
X51670722Y25246798D01*
X51670720Y25246799D01*
X51508318Y25319105D01*
X51508317Y25319105D01*
X51502287Y25321790D01*
X51408887Y25341643D01*
X51321944Y25360124D01*
X51321939Y25360124D01*
X51315487Y25361496D01*
X51124513Y25361496D01*
X51118061Y25360124D01*
X51118056Y25360124D01*
X51031113Y25341643D01*
X50937713Y25321790D01*
X50931683Y25319105D01*
X50931682Y25319105D01*
X50769280Y25246799D01*
X50769278Y25246798D01*
X50763250Y25244114D01*
X50757909Y25240234D01*
X50757908Y25240233D01*
X50614093Y25135746D01*
X50614091Y25135744D01*
X50608749Y25131863D01*
X50604328Y25126953D01*
X50604327Y25126952D01*
X50591975Y25113233D01*
X50480963Y24989942D01*
X50477662Y24984224D01*
X50390930Y24834000D01*
X50385476Y24824554D01*
X50367653Y24769699D01*
X50338361Y24679547D01*
X50326462Y24642927D01*
X50325772Y24636364D01*
X50325772Y24636363D01*
X50318256Y24564848D01*
X50306500Y24453000D01*
X50307190Y24446435D01*
X50323590Y24290403D01*
X50326462Y24263073D01*
X50328502Y24256795D01*
X50328502Y24256794D01*
X50347317Y24198888D01*
X50385476Y24081446D01*
X50388779Y24075724D01*
X50388780Y24075723D01*
X50409062Y24040594D01*
X50480963Y23916058D01*
X50485381Y23911151D01*
X50485382Y23911150D01*
X50595314Y23789058D01*
X50608749Y23774137D01*
X50614091Y23770256D01*
X50614093Y23770254D01*
X50682661Y23720437D01*
X50763250Y23661886D01*
X50769278Y23659202D01*
X50769280Y23659201D01*
X50805098Y23643254D01*
X50937713Y23584210D01*
X51031113Y23564357D01*
X51118056Y23545876D01*
X51118061Y23545876D01*
X51124513Y23544504D01*
X51315487Y23544504D01*
X51321939Y23545876D01*
X51321944Y23545876D01*
X51408887Y23564357D01*
X51502287Y23584210D01*
X51634902Y23643254D01*
X51670720Y23659201D01*
X51670722Y23659202D01*
X51676750Y23661886D01*
X51757339Y23720437D01*
X51831399Y23744500D01*
X53480061Y23744500D01*
X53488632Y23744208D01*
X53543341Y23740478D01*
X53606279Y23751463D01*
X53612791Y23752423D01*
X53676194Y23760096D01*
X53683299Y23762781D01*
X53685906Y23763421D01*
X53702144Y23767863D01*
X53704741Y23768647D01*
X53712224Y23769953D01*
X53719180Y23773006D01*
X53719182Y23773007D01*
X53770705Y23795624D01*
X53776814Y23798117D01*
X53829452Y23818007D01*
X53829454Y23818008D01*
X53836562Y23820694D01*
X53842827Y23825000D01*
X53845218Y23826250D01*
X53859922Y23834434D01*
X53862243Y23835807D01*
X53869201Y23838861D01*
X53919877Y23877747D01*
X53925186Y23881604D01*
X53977846Y23917796D01*
X53995462Y23937567D01*
X54016955Y23961691D01*
X54021936Y23966967D01*
X55223538Y25168568D01*
X55286436Y25202720D01*
X55344207Y25215000D01*
X55439287Y25235210D01*
X55459286Y25244114D01*
X55607720Y25310201D01*
X55607722Y25310202D01*
X55613750Y25312886D01*
X55622310Y25319105D01*
X55762907Y25421254D01*
X55762909Y25421256D01*
X55768251Y25425137D01*
X55896037Y25567058D01*
X55954311Y25667992D01*
X55988220Y25726723D01*
X55988221Y25726724D01*
X55991524Y25732446D01*
X56042376Y25888952D01*
X56048498Y25907794D01*
X56048498Y25907795D01*
X56050538Y25914073D01*
X56070500Y26104000D01*
X56068451Y26123496D01*
X56062479Y26180320D01*
X56075251Y26250158D01*
X56123754Y26302005D01*
X56187789Y26319490D01*
X60302214Y26319490D01*
X60370335Y26299488D01*
X60416936Y26245186D01*
X60418476Y26240446D01*
X60513963Y26075058D01*
X60518381Y26070151D01*
X60518382Y26070150D01*
X60622765Y25954221D01*
X60641749Y25933137D01*
X60647091Y25929256D01*
X60647093Y25929254D01*
X60790908Y25824767D01*
X60796250Y25820886D01*
X60802278Y25818202D01*
X60802280Y25818201D01*
X60963943Y25746224D01*
X60970713Y25743210D01*
X61064113Y25723357D01*
X61151056Y25704876D01*
X61151061Y25704876D01*
X61157513Y25703504D01*
X61348487Y25703504D01*
X61354939Y25704876D01*
X61354944Y25704876D01*
X61441887Y25723357D01*
X61535287Y25743210D01*
X61542057Y25746224D01*
X61703720Y25818201D01*
X61703722Y25818202D01*
X61709750Y25820886D01*
X61715092Y25824767D01*
X61858907Y25929254D01*
X61858909Y25929256D01*
X61864251Y25933137D01*
X61883235Y25954221D01*
X61987618Y26070150D01*
X61987619Y26070151D01*
X61992037Y26075058D01*
X62065825Y26202862D01*
X62084220Y26234723D01*
X62084223Y26234729D01*
X62087524Y26240446D01*
X62121563Y26345207D01*
X62144498Y26415794D01*
X62144498Y26415795D01*
X62146538Y26422073D01*
X62153977Y26492846D01*
X62165810Y26605435D01*
X62166500Y26612000D01*
X62148808Y26780329D01*
X62161580Y26850168D01*
X62210082Y26902015D01*
X62274118Y26919500D01*
X64578601Y26919500D01*
X64652661Y26895437D01*
X64733250Y26836886D01*
X64739278Y26834202D01*
X64739280Y26834201D01*
X64860279Y26780329D01*
X64907713Y26759210D01*
X65001113Y26739357D01*
X65088056Y26720876D01*
X65088061Y26720876D01*
X65094513Y26719504D01*
X65285487Y26719504D01*
X65291939Y26720876D01*
X65291944Y26720876D01*
X65378887Y26739357D01*
X65472287Y26759210D01*
X65519721Y26780329D01*
X65640720Y26834201D01*
X65640722Y26834202D01*
X65646750Y26836886D01*
X65659951Y26846477D01*
X65795907Y26945254D01*
X65795909Y26945256D01*
X65801251Y26949137D01*
X65929037Y27091058D01*
X66024524Y27256446D01*
X66040612Y27305960D01*
X66080685Y27364566D01*
X66146082Y27392203D01*
X66216039Y27380096D01*
X66249540Y27356119D01*
X67482162Y26123496D01*
X68708286Y24897372D01*
X68714139Y24891107D01*
X68750202Y24849767D01*
X68767339Y24837723D01*
X68802475Y24813029D01*
X68807770Y24809096D01*
X68858015Y24769699D01*
X68864939Y24766573D01*
X68867252Y24765172D01*
X68881868Y24756835D01*
X68884245Y24755560D01*
X68890462Y24751191D01*
X68897541Y24748431D01*
X68897543Y24748430D01*
X68925992Y24737338D01*
X68949970Y24727990D01*
X68956046Y24725436D01*
X69007339Y24702276D01*
X69007342Y24702275D01*
X69014261Y24699151D01*
X69021726Y24697767D01*
X69024245Y24696978D01*
X69040544Y24692335D01*
X69043110Y24691676D01*
X69050187Y24688917D01*
X69085040Y24684328D01*
X69113516Y24680579D01*
X69120030Y24679547D01*
X69175357Y24669293D01*
X69175359Y24669293D01*
X69182826Y24667909D01*
X69190406Y24668346D01*
X69190407Y24668346D01*
X69222317Y24670186D01*
X69241496Y24671292D01*
X69248747Y24671501D01*
X70267339Y24671501D01*
X70356435Y24634596D01*
X70732341Y24258689D01*
X70768555Y24182763D01*
X70773462Y24136073D01*
X70832476Y23954446D01*
X70927963Y23789058D01*
X70932381Y23784151D01*
X70932382Y23784150D01*
X71051327Y23652048D01*
X71055749Y23647137D01*
X71061091Y23643256D01*
X71061093Y23643254D01*
X71138665Y23586895D01*
X71210250Y23534886D01*
X71216278Y23532202D01*
X71216280Y23532201D01*
X71378682Y23459895D01*
X71384713Y23457210D01*
X71478113Y23437357D01*
X71565056Y23418876D01*
X71565061Y23418876D01*
X71571513Y23417504D01*
X71762487Y23417504D01*
X71768939Y23418876D01*
X71768944Y23418876D01*
X71855887Y23437357D01*
X71949287Y23457210D01*
X71955318Y23459895D01*
X72117720Y23532201D01*
X72117722Y23532202D01*
X72123750Y23534886D01*
X72195335Y23586895D01*
X72272907Y23643254D01*
X72272909Y23643256D01*
X72278251Y23647137D01*
X72282673Y23652048D01*
X72401618Y23784150D01*
X72401619Y23784151D01*
X72406037Y23789058D01*
X72501524Y23954446D01*
X72545420Y24089545D01*
X72558498Y24129794D01*
X72558498Y24129795D01*
X72560538Y24136073D01*
X72573539Y24259765D01*
X72579810Y24319435D01*
X72580500Y24326000D01*
X72560538Y24515927D01*
X72553972Y24536137D01*
X72511014Y24668346D01*
X72501524Y24697554D01*
X72406037Y24862942D01*
X72296835Y24984224D01*
X72282673Y24999952D01*
X72282672Y24999953D01*
X72278251Y25004863D01*
X72272909Y25008744D01*
X72272907Y25008746D01*
X72129092Y25113233D01*
X72129091Y25113234D01*
X72123750Y25117114D01*
X72117722Y25119798D01*
X72117720Y25119799D01*
X71955318Y25192105D01*
X71955317Y25192105D01*
X71949287Y25194790D01*
X71942826Y25196163D01*
X71942821Y25196165D01*
X71796437Y25227281D01*
X71733539Y25261431D01*
X71132340Y25862629D01*
X71126499Y25868882D01*
X71093466Y25906747D01*
X71063760Y25971226D01*
X71073629Y26041534D01*
X71119943Y26095344D01*
X71188417Y26115574D01*
X71255265Y26115574D01*
X71261717Y26116946D01*
X71261722Y26116946D01*
X71348665Y26135427D01*
X71442065Y26155280D01*
X71448096Y26157965D01*
X71610498Y26230271D01*
X71610500Y26230272D01*
X71616528Y26232956D01*
X71632743Y26244737D01*
X71765685Y26341324D01*
X71765687Y26341326D01*
X71771029Y26345207D01*
X71782547Y26358000D01*
X83473000Y26358000D01*
X83473000Y24834000D01*
X83519359Y24620892D01*
X83525455Y24611407D01*
X83525455Y24611406D01*
X83592873Y24506500D01*
X83598300Y24498056D01*
X83605111Y24492155D01*
X83605112Y24492153D01*
X83686855Y24421323D01*
X83725239Y24361597D01*
X83725239Y24290600D01*
X83672463Y24220100D01*
X83650056Y24205700D01*
X83644155Y24198889D01*
X83644153Y24198888D01*
X83560338Y24102160D01*
X83560336Y24102157D01*
X83554437Y24095349D01*
X83550695Y24087155D01*
X83550693Y24087152D01*
X83545474Y24075723D01*
X83493780Y23962529D01*
X83492498Y23953612D01*
X83473950Y23824605D01*
X83473000Y23818000D01*
X83473000Y22294000D01*
X83519359Y22080892D01*
X83525455Y22071407D01*
X83525455Y22071406D01*
X83587574Y21974746D01*
X83598300Y21958056D01*
X83605111Y21952155D01*
X83605112Y21952153D01*
X83701840Y21868338D01*
X83701843Y21868336D01*
X83708651Y21862437D01*
X83716845Y21858695D01*
X83716848Y21858693D01*
X83828217Y21807833D01*
X83841471Y21801780D01*
X83850388Y21800498D01*
X83981554Y21781639D01*
X83981557Y21781639D01*
X83986000Y21781000D01*
X85510000Y21781000D01*
X85723108Y21827359D01*
X85737773Y21836783D01*
X85838360Y21901426D01*
X85838361Y21901426D01*
X85845944Y21906300D01*
X85858899Y21921250D01*
X85922677Y21994855D01*
X85982403Y22033239D01*
X86053400Y22033239D01*
X86123900Y21980463D01*
X86126376Y21976611D01*
X86138300Y21958056D01*
X86145111Y21952155D01*
X86145112Y21952153D01*
X86241840Y21868338D01*
X86241843Y21868336D01*
X86248651Y21862437D01*
X86256845Y21858695D01*
X86256848Y21858693D01*
X86368217Y21807833D01*
X86381471Y21801780D01*
X86390388Y21800498D01*
X86521554Y21781639D01*
X86521557Y21781639D01*
X86526000Y21781000D01*
X88050000Y21781000D01*
X88263108Y21827359D01*
X88277773Y21836783D01*
X88378360Y21901426D01*
X88378361Y21901426D01*
X88385944Y21906300D01*
X88394084Y21915694D01*
X88475662Y22009840D01*
X88475664Y22009843D01*
X88481563Y22016651D01*
X88485305Y22024845D01*
X88485307Y22024848D01*
X88538477Y22141275D01*
X88542220Y22149471D01*
X88548553Y22193518D01*
X88562361Y22289554D01*
X88562361Y22289557D01*
X88563000Y22294000D01*
X88563000Y23818000D01*
X88516641Y24031108D01*
X88497112Y24061497D01*
X88442574Y24146360D01*
X88442574Y24146361D01*
X88437700Y24153944D01*
X88422826Y24166833D01*
X88349145Y24230677D01*
X88310761Y24290403D01*
X88310761Y24361400D01*
X88363537Y24431900D01*
X88378360Y24441426D01*
X88378361Y24441426D01*
X88385944Y24446300D01*
X88391847Y24453112D01*
X88475662Y24549840D01*
X88475664Y24549843D01*
X88481563Y24556651D01*
X88485305Y24564845D01*
X88485307Y24564848D01*
X88538477Y24681275D01*
X88542220Y24689471D01*
X88559021Y24806323D01*
X88562361Y24829554D01*
X88562361Y24829557D01*
X88563000Y24834000D01*
X88563000Y26358000D01*
X88516641Y26571108D01*
X88437700Y26693944D01*
X88430888Y26699847D01*
X88334160Y26783662D01*
X88334157Y26783664D01*
X88327349Y26789563D01*
X88319155Y26793305D01*
X88319152Y26793307D01*
X88202725Y26846477D01*
X88194529Y26850220D01*
X88157864Y26855492D01*
X88054446Y26870361D01*
X88054443Y26870361D01*
X88050000Y26871000D01*
X86526000Y26871000D01*
X86312892Y26824641D01*
X86303407Y26818545D01*
X86303406Y26818545D01*
X86243940Y26780329D01*
X86190056Y26745700D01*
X86184155Y26738889D01*
X86184153Y26738888D01*
X86113323Y26657145D01*
X86053597Y26618761D01*
X85982600Y26618761D01*
X85912100Y26671537D01*
X85902574Y26686360D01*
X85902574Y26686361D01*
X85897700Y26693944D01*
X85890888Y26699847D01*
X85794160Y26783662D01*
X85794157Y26783664D01*
X85787349Y26789563D01*
X85779155Y26793305D01*
X85779152Y26793307D01*
X85662725Y26846477D01*
X85654529Y26850220D01*
X85617864Y26855492D01*
X85514446Y26870361D01*
X85514443Y26870361D01*
X85510000Y26871000D01*
X83986000Y26871000D01*
X83772892Y26824641D01*
X83763407Y26818545D01*
X83763406Y26818545D01*
X83703940Y26780329D01*
X83650056Y26745700D01*
X83644155Y26738889D01*
X83644153Y26738888D01*
X83560338Y26642160D01*
X83560336Y26642157D01*
X83554437Y26635349D01*
X83550695Y26627155D01*
X83550693Y26627152D01*
X83531125Y26584304D01*
X83493780Y26502529D01*
X83492498Y26493612D01*
X83473950Y26364605D01*
X83473000Y26358000D01*
X71782547Y26358000D01*
X71898815Y26487128D01*
X71994302Y26652516D01*
X72040048Y26793307D01*
X72051276Y26827864D01*
X72051276Y26827865D01*
X72053316Y26834143D01*
X72055141Y26851502D01*
X72072588Y27017505D01*
X72073278Y27024070D01*
X72053316Y27213997D01*
X72048255Y27229575D01*
X71996344Y27389339D01*
X71994302Y27395624D01*
X71898815Y27561012D01*
X71859541Y27604631D01*
X71775451Y27698022D01*
X71775450Y27698023D01*
X71771029Y27702933D01*
X71765687Y27706814D01*
X71765685Y27706816D01*
X71621870Y27811303D01*
X71621869Y27811304D01*
X71616528Y27815184D01*
X71610500Y27817868D01*
X71610498Y27817869D01*
X71448096Y27890175D01*
X71448095Y27890175D01*
X71442065Y27892860D01*
X71348665Y27912713D01*
X71261722Y27931194D01*
X71261717Y27931194D01*
X71255265Y27932566D01*
X71064291Y27932566D01*
X71057839Y27931194D01*
X71057834Y27931194D01*
X70970891Y27912713D01*
X70877491Y27892860D01*
X70871461Y27890175D01*
X70871460Y27890175D01*
X70709058Y27817869D01*
X70709056Y27817868D01*
X70703028Y27815184D01*
X70640115Y27769475D01*
X70622439Y27756633D01*
X70548379Y27732570D01*
X69060590Y27732570D01*
X68971495Y27769475D01*
X67775660Y28965309D01*
X67739445Y29041237D01*
X67736808Y29066333D01*
X67749582Y29136171D01*
X67798085Y29188016D01*
X67862118Y29205500D01*
X77044376Y29205500D01*
X77052947Y29205208D01*
X77107656Y29201478D01*
X77170594Y29212463D01*
X77177106Y29213423D01*
X77240509Y29221096D01*
X77247614Y29223781D01*
X77250221Y29224421D01*
X77266459Y29228863D01*
X77269056Y29229647D01*
X77276539Y29230953D01*
X77283495Y29234006D01*
X77283497Y29234007D01*
X77335020Y29256624D01*
X77341129Y29259117D01*
X77393767Y29279007D01*
X77393769Y29279008D01*
X77400877Y29281694D01*
X77407142Y29286000D01*
X77409533Y29287250D01*
X77424237Y29295434D01*
X77426558Y29296807D01*
X77433516Y29299861D01*
X77484192Y29338747D01*
X77489501Y29342604D01*
X77542161Y29378796D01*
X77562514Y29401639D01*
X77581262Y29422682D01*
X77586243Y29427959D01*
X78077539Y29919254D01*
X78139851Y29953279D01*
X78217880Y29945266D01*
X78242713Y29934210D01*
X78320534Y29917668D01*
X78423056Y29895876D01*
X78423061Y29895876D01*
X78429513Y29894504D01*
X78620487Y29894504D01*
X78626939Y29895876D01*
X78626944Y29895876D01*
X78713887Y29914357D01*
X78807287Y29934210D01*
X78813320Y29936896D01*
X78975720Y30009201D01*
X78975722Y30009202D01*
X78981750Y30011886D01*
X78994077Y30020842D01*
X79130907Y30120254D01*
X79130909Y30120256D01*
X79136251Y30124137D01*
X79191033Y30184979D01*
X79259618Y30261150D01*
X79259619Y30261151D01*
X79264037Y30266058D01*
X79359524Y30431446D01*
X79391385Y30529504D01*
X79416498Y30606794D01*
X79416498Y30606795D01*
X79418538Y30613073D01*
X79438500Y30803000D01*
X79430317Y30880856D01*
X79419228Y30986363D01*
X79419228Y30986364D01*
X79418538Y30992927D01*
X79359524Y31174554D01*
X79264037Y31339942D01*
X79181830Y31431243D01*
X79140673Y31476952D01*
X79140672Y31476953D01*
X79136251Y31481863D01*
X79130909Y31485744D01*
X79130907Y31485746D01*
X78987092Y31590233D01*
X78987091Y31590234D01*
X78981750Y31594114D01*
X78975722Y31596798D01*
X78975720Y31596799D01*
X78813318Y31669105D01*
X78813317Y31669105D01*
X78807287Y31671790D01*
X78713887Y31691643D01*
X78626944Y31710124D01*
X78626939Y31710124D01*
X78620487Y31711496D01*
X78429513Y31711496D01*
X78423061Y31710124D01*
X78423056Y31710124D01*
X78336113Y31691643D01*
X78242713Y31671790D01*
X78236683Y31669105D01*
X78236682Y31669105D01*
X78074280Y31596799D01*
X78074278Y31596798D01*
X78068250Y31594114D01*
X78062909Y31590234D01*
X78062908Y31590233D01*
X78043536Y31576158D01*
X77991878Y31538627D01*
X77925879Y31515256D01*
X77921973Y31515522D01*
X77859022Y31504536D01*
X77852532Y31503578D01*
X77827113Y31500502D01*
X77796662Y31496817D01*
X77796659Y31496816D01*
X77789121Y31495904D01*
X77782015Y31493219D01*
X77779442Y31492587D01*
X77763118Y31488122D01*
X77760570Y31487353D01*
X77753090Y31486047D01*
X77746140Y31482996D01*
X77746136Y31482995D01*
X77694606Y31460374D01*
X77688497Y31457881D01*
X77635858Y31437991D01*
X77635856Y31437990D01*
X77628753Y31435306D01*
X77622496Y31431006D01*
X77620117Y31429762D01*
X77605384Y31421562D01*
X77603067Y31420191D01*
X77596113Y31417139D01*
X77545422Y31378242D01*
X77540118Y31374389D01*
X77493732Y31342509D01*
X77493729Y31342507D01*
X77487469Y31338204D01*
X77482414Y31332530D01*
X77448375Y31294326D01*
X77443395Y31289050D01*
X76813751Y30659405D01*
X76724655Y30622500D01*
X63684466Y30622500D01*
X63616345Y30642502D01*
X63569852Y30696158D01*
X63559156Y30761671D01*
X63562810Y30796436D01*
X63563500Y30803000D01*
X63555317Y30880856D01*
X63544228Y30986363D01*
X63544228Y30986364D01*
X63543538Y30992927D01*
X63484524Y31174554D01*
X63389037Y31339942D01*
X63306830Y31431243D01*
X63265673Y31476952D01*
X63265672Y31476953D01*
X63261251Y31481863D01*
X63255909Y31485744D01*
X63255907Y31485746D01*
X63112092Y31590233D01*
X63112091Y31590234D01*
X63106750Y31594114D01*
X63100722Y31596798D01*
X63100720Y31596799D01*
X62938318Y31669105D01*
X62938317Y31669105D01*
X62932287Y31671790D01*
X62838887Y31691643D01*
X62751944Y31710124D01*
X62751939Y31710124D01*
X62745487Y31711496D01*
X62554513Y31711496D01*
X62548061Y31710124D01*
X62548056Y31710124D01*
X62461113Y31691643D01*
X62367713Y31671790D01*
X62361683Y31669105D01*
X62361682Y31669105D01*
X62199280Y31596799D01*
X62199278Y31596798D01*
X62193250Y31594114D01*
X62120961Y31541593D01*
X62112661Y31535563D01*
X62038601Y31511500D01*
X43984226Y31511500D01*
X43916105Y31531502D01*
X43869612Y31585158D01*
X43861443Y31615078D01*
X43860602Y31614899D01*
X43859228Y31621363D01*
X43858538Y31627927D01*
X43799524Y31809554D01*
X43704037Y31974942D01*
X43661273Y32022437D01*
X43580673Y32111952D01*
X43580672Y32111953D01*
X43576251Y32116863D01*
X43570909Y32120744D01*
X43570907Y32120746D01*
X43427092Y32225233D01*
X43427091Y32225234D01*
X43421750Y32229114D01*
X43415722Y32231798D01*
X43415720Y32231799D01*
X43253318Y32304105D01*
X43253317Y32304105D01*
X43247287Y32306790D01*
X43153887Y32326643D01*
X43066944Y32345124D01*
X43066939Y32345124D01*
X43060487Y32346496D01*
X42869513Y32346496D01*
X42863061Y32345124D01*
X42863056Y32345124D01*
X42776113Y32326643D01*
X42682713Y32306790D01*
X42676683Y32304105D01*
X42676682Y32304105D01*
X42514280Y32231799D01*
X42514278Y32231798D01*
X42508250Y32229114D01*
X42502909Y32225234D01*
X42502908Y32225233D01*
X42359093Y32120746D01*
X42359091Y32120744D01*
X42353749Y32116863D01*
X42349328Y32111953D01*
X42349327Y32111952D01*
X42268728Y32022437D01*
X42225963Y31974942D01*
X42130476Y31809554D01*
X42114133Y31759256D01*
X42084842Y31669105D01*
X42071462Y31627927D01*
X42070772Y31621364D01*
X42070772Y31621363D01*
X42065753Y31573612D01*
X42051500Y31438000D01*
X42071462Y31248073D01*
X42130476Y31066446D01*
X42225963Y30901058D01*
X42230381Y30896151D01*
X42230382Y30896150D01*
X42310871Y30806758D01*
X42353749Y30759137D01*
X42359091Y30755256D01*
X42359093Y30755254D01*
X42502908Y30650767D01*
X42508250Y30646886D01*
X42514278Y30644202D01*
X42514280Y30644201D01*
X42598298Y30606794D01*
X42682713Y30569210D01*
X42777760Y30549007D01*
X42835564Y30536720D01*
X42898462Y30502568D01*
X43080659Y30320371D01*
X43086512Y30314106D01*
X43122575Y30272766D01*
X43128789Y30268399D01*
X43174848Y30236028D01*
X43180143Y30232095D01*
X43230388Y30192698D01*
X43237312Y30189572D01*
X43239625Y30188171D01*
X43254241Y30179834D01*
X43256618Y30178559D01*
X43262835Y30174190D01*
X43269914Y30171430D01*
X43269916Y30171429D01*
X43298229Y30160391D01*
X43322348Y30150987D01*
X43328423Y30148434D01*
X43379711Y30125276D01*
X43379713Y30125275D01*
X43386635Y30122150D01*
X43394105Y30120766D01*
X43396670Y30119962D01*
X43412902Y30115338D01*
X43415483Y30114675D01*
X43422560Y30111916D01*
X43485896Y30103578D01*
X43492388Y30102550D01*
X43555199Y30090908D01*
X43562779Y30091345D01*
X43562780Y30091345D01*
X43594690Y30093185D01*
X43613869Y30094291D01*
X43621120Y30094500D01*
X59365340Y30094500D01*
X59433461Y30074498D01*
X59479954Y30020842D01*
X59490058Y29950568D01*
X59454435Y29879405D01*
X59408462Y29833432D01*
X59345564Y29799280D01*
X59309403Y29791593D01*
X59192713Y29766790D01*
X59186683Y29764105D01*
X59186682Y29764105D01*
X59024280Y29691799D01*
X59024278Y29691798D01*
X59018250Y29689114D01*
X59012909Y29685234D01*
X59012908Y29685233D01*
X58869093Y29580746D01*
X58869091Y29580744D01*
X58863749Y29576863D01*
X58859328Y29571953D01*
X58859327Y29571952D01*
X58775357Y29478693D01*
X58735963Y29434942D01*
X58716367Y29401000D01*
X58653621Y29292321D01*
X58640476Y29269554D01*
X58581462Y29087927D01*
X58580772Y29081364D01*
X58580772Y29081363D01*
X58568574Y28965309D01*
X58561500Y28898000D01*
X58562190Y28891435D01*
X58571891Y28799140D01*
X58581462Y28708073D01*
X58640476Y28526446D01*
X58643780Y28520723D01*
X58646464Y28514695D01*
X58643921Y28513563D01*
X58657759Y28456487D01*
X58634530Y28389399D01*
X58578716Y28345519D01*
X58531903Y28336500D01*
X48197938Y28336500D01*
X48189368Y28336792D01*
X48142234Y28340006D01*
X48142230Y28340006D01*
X48134658Y28340522D01*
X48127181Y28339217D01*
X48127180Y28339217D01*
X48071729Y28329539D01*
X48065202Y28328576D01*
X48001806Y28320904D01*
X47994707Y28318221D01*
X47992111Y28317584D01*
X47975824Y28313128D01*
X47973253Y28312352D01*
X47965777Y28311047D01*
X47958828Y28307996D01*
X47958826Y28307996D01*
X47907307Y28285381D01*
X47901201Y28282889D01*
X47848542Y28262991D01*
X47848538Y28262989D01*
X47841438Y28260306D01*
X47835179Y28256004D01*
X47832797Y28254759D01*
X47818087Y28246571D01*
X47815756Y28245193D01*
X47808800Y28242139D01*
X47802775Y28237516D01*
X47802770Y28237513D01*
X47758126Y28203257D01*
X47752795Y28199383D01*
X47700154Y28163204D01*
X47695102Y28157534D01*
X47695101Y28157533D01*
X47661050Y28119315D01*
X47656069Y28114039D01*
X47639443Y28097413D01*
X46343958Y26801927D01*
X45077435Y25535404D01*
X44988340Y25498499D01*
X34987950Y25498499D01*
X34919829Y25518501D01*
X34873336Y25572157D01*
X34872844Y25675750D01*
X34872867Y25675801D01*
X34876172Y25681526D01*
X34935186Y25863153D01*
X34940094Y25909848D01*
X34976309Y25985772D01*
X36120629Y27130091D01*
X36126895Y27135945D01*
X36162509Y27167013D01*
X36168234Y27172007D01*
X36204973Y27224281D01*
X36208905Y27229575D01*
X36243615Y27273842D01*
X36243616Y27273844D01*
X36248302Y27279820D01*
X36251428Y27286744D01*
X36252829Y27289057D01*
X36261166Y27303673D01*
X36262441Y27306050D01*
X36266810Y27312267D01*
X36290013Y27371780D01*
X36292566Y27377855D01*
X36315724Y27429143D01*
X36315725Y27429145D01*
X36318850Y27436067D01*
X36320234Y27443537D01*
X36321038Y27446102D01*
X36325662Y27462334D01*
X36326325Y27464915D01*
X36329084Y27471992D01*
X36337422Y27535328D01*
X36338453Y27541836D01*
X36340948Y27555294D01*
X36350092Y27604631D01*
X36346709Y27663301D01*
X36346500Y27670552D01*
X36346500Y30115340D01*
X36383405Y30204436D01*
X36617566Y30438596D01*
X36706661Y30475500D01*
X37351061Y30475500D01*
X37359632Y30475208D01*
X37414341Y30471478D01*
X37477279Y30482463D01*
X37483791Y30483423D01*
X37547194Y30491096D01*
X37554299Y30493781D01*
X37556906Y30494421D01*
X37573144Y30498863D01*
X37575741Y30499647D01*
X37583224Y30500953D01*
X37590180Y30504006D01*
X37590182Y30504007D01*
X37641705Y30526624D01*
X37647814Y30529117D01*
X37700452Y30549007D01*
X37700454Y30549008D01*
X37707562Y30551694D01*
X37713827Y30556000D01*
X37716218Y30557250D01*
X37730922Y30565434D01*
X37733243Y30566807D01*
X37740201Y30569861D01*
X37790877Y30608747D01*
X37796186Y30612604D01*
X37848846Y30648796D01*
X37855194Y30655920D01*
X37887955Y30692691D01*
X37892936Y30697967D01*
X39383621Y32188651D01*
X39389887Y32194505D01*
X39425501Y32225573D01*
X39431226Y32230567D01*
X39467965Y32282841D01*
X39471897Y32288135D01*
X39506607Y32332402D01*
X39506608Y32332404D01*
X39511294Y32338380D01*
X39514420Y32345304D01*
X39515821Y32347617D01*
X39524158Y32362233D01*
X39525433Y32364610D01*
X39529802Y32370827D01*
X39534910Y32383927D01*
X39553000Y32430328D01*
X39555557Y32436411D01*
X39578715Y32487700D01*
X39578716Y32487702D01*
X39581842Y32494626D01*
X39583226Y32502092D01*
X39584032Y32504664D01*
X39588646Y32520863D01*
X39589316Y32523471D01*
X39592076Y32530552D01*
X39600415Y32593892D01*
X39601446Y32600405D01*
X39602935Y32608436D01*
X39613083Y32663191D01*
X39610500Y32708000D01*
X62625500Y32708000D01*
X62626190Y32701435D01*
X62635965Y32608436D01*
X62645462Y32518073D01*
X62647502Y32511795D01*
X62647502Y32511794D01*
X62672970Y32433413D01*
X62704476Y32336446D01*
X62707779Y32330724D01*
X62707780Y32330723D01*
X62741689Y32271992D01*
X62799963Y32171058D01*
X62927749Y32029137D01*
X62933091Y32025256D01*
X62933093Y32025254D01*
X63043583Y31944979D01*
X63082250Y31916886D01*
X63088278Y31914202D01*
X63088280Y31914201D01*
X63250682Y31841895D01*
X63256713Y31839210D01*
X63350113Y31819357D01*
X63437056Y31800876D01*
X63437061Y31800876D01*
X63443513Y31799504D01*
X63634487Y31799504D01*
X63640939Y31800876D01*
X63640944Y31800876D01*
X63727887Y31819357D01*
X63821287Y31839210D01*
X63827318Y31841895D01*
X63989720Y31914201D01*
X63989722Y31914202D01*
X63995750Y31916886D01*
X64076339Y31975437D01*
X64150399Y31999500D01*
X75373601Y31999500D01*
X75447661Y31975437D01*
X75528250Y31916886D01*
X75534278Y31914202D01*
X75534280Y31914201D01*
X75696682Y31841895D01*
X75702713Y31839210D01*
X75796113Y31819357D01*
X75883056Y31800876D01*
X75883061Y31800876D01*
X75889513Y31799504D01*
X76080487Y31799504D01*
X76086939Y31800876D01*
X76086944Y31800876D01*
X76173887Y31819357D01*
X76267287Y31839210D01*
X76273318Y31841895D01*
X76435720Y31914201D01*
X76435722Y31914202D01*
X76441750Y31916886D01*
X76480417Y31944979D01*
X76590907Y32025254D01*
X76590909Y32025256D01*
X76596251Y32029137D01*
X76724037Y32171058D01*
X76782311Y32271992D01*
X76816220Y32330723D01*
X76816221Y32330724D01*
X76819524Y32336446D01*
X76851030Y32433413D01*
X76876498Y32511794D01*
X76876498Y32511795D01*
X76878538Y32518073D01*
X76888036Y32608436D01*
X76897810Y32701435D01*
X76898500Y32708000D01*
X76884378Y32842359D01*
X76879228Y32891363D01*
X76879228Y32891364D01*
X76878538Y32897927D01*
X76853292Y32975628D01*
X76821566Y33073269D01*
X76819524Y33079554D01*
X76806279Y33102496D01*
X76763058Y33177355D01*
X76724037Y33244942D01*
X76609962Y33371636D01*
X76600673Y33381952D01*
X76600672Y33381953D01*
X76596251Y33386863D01*
X76590909Y33390744D01*
X76590907Y33390746D01*
X76447092Y33495233D01*
X76447091Y33495234D01*
X76441750Y33499114D01*
X76435722Y33501798D01*
X76435720Y33501799D01*
X76273318Y33574105D01*
X76273317Y33574105D01*
X76267287Y33576790D01*
X76173887Y33596643D01*
X76086944Y33615124D01*
X76086939Y33615124D01*
X76080487Y33616496D01*
X75889513Y33616496D01*
X75883061Y33615124D01*
X75883056Y33615124D01*
X75796113Y33596643D01*
X75702713Y33576790D01*
X75696683Y33574105D01*
X75696682Y33574105D01*
X75534280Y33501799D01*
X75534278Y33501798D01*
X75528250Y33499114D01*
X75463232Y33451876D01*
X75447661Y33440563D01*
X75373601Y33416500D01*
X64150399Y33416500D01*
X64076339Y33440563D01*
X64060768Y33451876D01*
X63995750Y33499114D01*
X63989722Y33501798D01*
X63989720Y33501799D01*
X63827318Y33574105D01*
X63827317Y33574105D01*
X63821287Y33576790D01*
X63727887Y33596643D01*
X63640944Y33615124D01*
X63640939Y33615124D01*
X63634487Y33616496D01*
X63443513Y33616496D01*
X63437061Y33615124D01*
X63437056Y33615124D01*
X63350113Y33596643D01*
X63256713Y33576790D01*
X63250683Y33574105D01*
X63250682Y33574105D01*
X63088280Y33501799D01*
X63088278Y33501798D01*
X63082250Y33499114D01*
X63076909Y33495234D01*
X63076908Y33495233D01*
X62933093Y33390746D01*
X62933091Y33390744D01*
X62927749Y33386863D01*
X62923328Y33381953D01*
X62923327Y33381952D01*
X62914039Y33371636D01*
X62799963Y33244942D01*
X62760942Y33177355D01*
X62717722Y33102496D01*
X62704476Y33079554D01*
X62702434Y33073269D01*
X62670709Y32975628D01*
X62645462Y32897927D01*
X62644772Y32891364D01*
X62644772Y32891363D01*
X62639622Y32842359D01*
X62625500Y32708000D01*
X39610500Y32708000D01*
X39609701Y32721848D01*
X39609492Y32729101D01*
X39609492Y34152696D01*
X48816492Y34152696D01*
X48850457Y33930732D01*
X48923192Y33718292D01*
X49032397Y33522089D01*
X49035949Y33517749D01*
X49035952Y33517745D01*
X49099125Y33440563D01*
X49174621Y33348325D01*
X49178889Y33344680D01*
X49341103Y33206136D01*
X49341107Y33206133D01*
X49345368Y33202494D01*
X49539241Y33089203D01*
X49544506Y33087276D01*
X49544511Y33087274D01*
X49744848Y33013962D01*
X49744851Y33013961D01*
X49750112Y33012036D01*
X49755628Y33011073D01*
X49755633Y33011072D01*
X49920584Y32982284D01*
X49971315Y32973430D01*
X49976920Y32973459D01*
X49976924Y32973459D01*
X50079017Y32973994D01*
X50195859Y32974605D01*
X50416646Y33015526D01*
X50626697Y33094897D01*
X50631505Y33097775D01*
X50631508Y33097776D01*
X50748924Y33168049D01*
X50819373Y33210212D01*
X50988583Y33357823D01*
X51011849Y33386863D01*
X51125474Y33528689D01*
X51125477Y33528694D01*
X51128980Y33533066D01*
X51174279Y33616496D01*
X51206724Y33676254D01*
X51236124Y33730402D01*
X51302377Y33930732D01*
X51304870Y33938271D01*
X51304870Y33938272D01*
X51306630Y33943593D01*
X51328632Y34098188D01*
X51336389Y34152696D01*
X53696492Y34152696D01*
X53730457Y33930732D01*
X53803192Y33718292D01*
X53912397Y33522089D01*
X53915949Y33517749D01*
X53915952Y33517745D01*
X53979125Y33440563D01*
X54054621Y33348325D01*
X54058889Y33344680D01*
X54221103Y33206136D01*
X54221107Y33206133D01*
X54225368Y33202494D01*
X54419241Y33089203D01*
X54424506Y33087276D01*
X54424511Y33087274D01*
X54624848Y33013962D01*
X54624851Y33013961D01*
X54630112Y33012036D01*
X54635628Y33011073D01*
X54635633Y33011072D01*
X54800584Y32982284D01*
X54851315Y32973430D01*
X54856920Y32973459D01*
X54856924Y32973459D01*
X54959017Y32973994D01*
X55075859Y32974605D01*
X55296646Y33015526D01*
X55506697Y33094897D01*
X55511505Y33097775D01*
X55511508Y33097776D01*
X55628924Y33168049D01*
X55699373Y33210212D01*
X55868583Y33357823D01*
X55891849Y33386863D01*
X56005474Y33528689D01*
X56005477Y33528694D01*
X56008980Y33533066D01*
X56054279Y33616496D01*
X56086724Y33676254D01*
X56116124Y33730402D01*
X56182377Y33930732D01*
X56184870Y33938271D01*
X56184870Y33938272D01*
X56186630Y33943593D01*
X56208632Y34098188D01*
X56217758Y34162308D01*
X56217758Y34162312D01*
X56218269Y34165900D01*
X56220000Y34232000D01*
X56219436Y34238326D01*
X56209251Y34352435D01*
X56208666Y34359000D01*
X59196500Y34359000D01*
X59197190Y34352435D01*
X59209138Y34238761D01*
X59216462Y34169073D01*
X59218502Y34162795D01*
X59218502Y34162794D01*
X59230714Y34125210D01*
X59275476Y33987446D01*
X59278779Y33981724D01*
X59278780Y33981723D01*
X59283525Y33973505D01*
X59370963Y33822058D01*
X59375381Y33817151D01*
X59375382Y33817150D01*
X59494327Y33685048D01*
X59498749Y33680137D01*
X59504091Y33676256D01*
X59504093Y33676254D01*
X59647908Y33571767D01*
X59653250Y33567886D01*
X59659278Y33565202D01*
X59659280Y33565201D01*
X59807714Y33499114D01*
X59827713Y33490210D01*
X59921113Y33470357D01*
X60008056Y33451876D01*
X60008061Y33451876D01*
X60014513Y33450504D01*
X60205487Y33450504D01*
X60211939Y33451876D01*
X60211944Y33451876D01*
X60298887Y33470357D01*
X60392287Y33490210D01*
X60412286Y33499114D01*
X60560720Y33565201D01*
X60560722Y33565202D01*
X60566750Y33567886D01*
X60572092Y33571767D01*
X60715907Y33676254D01*
X60715909Y33676256D01*
X60721251Y33680137D01*
X60841865Y33814093D01*
X60902310Y33851332D01*
X60973293Y33849980D01*
X61029135Y33814093D01*
X61149749Y33680137D01*
X61155091Y33676256D01*
X61155093Y33676254D01*
X61298908Y33571767D01*
X61304250Y33567886D01*
X61310278Y33565202D01*
X61310280Y33565201D01*
X61458714Y33499114D01*
X61478713Y33490210D01*
X61572113Y33470357D01*
X61659056Y33451876D01*
X61659061Y33451876D01*
X61665513Y33450504D01*
X61856487Y33450504D01*
X61862939Y33451876D01*
X61862944Y33451876D01*
X61949887Y33470357D01*
X62043287Y33490210D01*
X62063286Y33499114D01*
X62211720Y33565201D01*
X62211722Y33565202D01*
X62217750Y33567886D01*
X62223092Y33571767D01*
X62366907Y33676254D01*
X62366909Y33676256D01*
X62372251Y33680137D01*
X62376673Y33685048D01*
X62495618Y33817150D01*
X62495619Y33817151D01*
X62500037Y33822058D01*
X62587475Y33973505D01*
X62592220Y33981723D01*
X62592221Y33981724D01*
X62595524Y33987446D01*
X62654538Y34169073D01*
X62655228Y34175637D01*
X62656602Y34182101D01*
X62658620Y34181672D01*
X62681928Y34238326D01*
X62740149Y34278956D01*
X62780226Y34285500D01*
X70547601Y34285500D01*
X70621661Y34261437D01*
X70702250Y34202886D01*
X70708278Y34200202D01*
X70708280Y34200201D01*
X70802387Y34158302D01*
X70876713Y34125210D01*
X70952024Y34109202D01*
X71057056Y34086876D01*
X71057061Y34086876D01*
X71063513Y34085504D01*
X71254487Y34085504D01*
X71260939Y34086876D01*
X71260944Y34086876D01*
X71365976Y34109202D01*
X71441287Y34125210D01*
X71515613Y34158302D01*
X71609720Y34200201D01*
X71609722Y34200202D01*
X71615750Y34202886D01*
X71660806Y34235621D01*
X71764907Y34311254D01*
X71764909Y34311256D01*
X71770251Y34315137D01*
X71809745Y34359000D01*
X71893618Y34452150D01*
X71893619Y34452151D01*
X71898037Y34457058D01*
X71993524Y34622446D01*
X72052538Y34804073D01*
X72056448Y34841275D01*
X72063775Y34910984D01*
X72090788Y34976641D01*
X72137836Y35012920D01*
X72302406Y35086191D01*
X72302408Y35086192D01*
X72308436Y35088876D01*
X72358347Y35125138D01*
X72457593Y35197244D01*
X72457595Y35197246D01*
X72462937Y35201127D01*
X72484527Y35225105D01*
X72586304Y35338140D01*
X72586305Y35338141D01*
X72590723Y35343048D01*
X72686210Y35508436D01*
X72745224Y35690063D01*
X72765186Y35879990D01*
X72745224Y36069917D01*
X72686210Y36251544D01*
X72590723Y36416932D01*
X72503769Y36513505D01*
X72499722Y36518000D01*
X83473000Y36518000D01*
X83473000Y34994000D01*
X83519359Y34780892D01*
X83598300Y34658056D01*
X83605111Y34652155D01*
X83605112Y34652153D01*
X83686855Y34581323D01*
X83725239Y34521597D01*
X83725239Y34450600D01*
X83672463Y34380100D01*
X83650056Y34365700D01*
X83644155Y34358889D01*
X83644153Y34358888D01*
X83560338Y34262160D01*
X83560336Y34262157D01*
X83554437Y34255349D01*
X83550695Y34247155D01*
X83550693Y34247152D01*
X83510117Y34158302D01*
X83493780Y34122529D01*
X83492498Y34113612D01*
X83473950Y33984605D01*
X83473000Y33978000D01*
X83473000Y32454000D01*
X83519359Y32240892D01*
X83525455Y32231407D01*
X83525455Y32231406D01*
X83583900Y32140463D01*
X83598300Y32118056D01*
X83605111Y32112155D01*
X83605112Y32112153D01*
X83686855Y32041323D01*
X83725239Y31981597D01*
X83725239Y31910600D01*
X83672463Y31840100D01*
X83650056Y31825700D01*
X83644155Y31818889D01*
X83644153Y31818888D01*
X83560338Y31722160D01*
X83560336Y31722157D01*
X83554437Y31715349D01*
X83550695Y31707155D01*
X83550693Y31707152D01*
X83511515Y31621363D01*
X83493780Y31582529D01*
X83492498Y31573612D01*
X83473950Y31444605D01*
X83473000Y31438000D01*
X83473000Y29914000D01*
X83519359Y29700892D01*
X83598300Y29578056D01*
X83605111Y29572155D01*
X83605112Y29572153D01*
X83701840Y29488338D01*
X83701843Y29488336D01*
X83708651Y29482437D01*
X83716845Y29478695D01*
X83716848Y29478693D01*
X83801903Y29439850D01*
X83841471Y29421780D01*
X83850388Y29420498D01*
X83981554Y29401639D01*
X83981557Y29401639D01*
X83986000Y29401000D01*
X85510000Y29401000D01*
X85723108Y29447359D01*
X85786874Y29488338D01*
X85838360Y29521426D01*
X85838361Y29521426D01*
X85845944Y29526300D01*
X85885502Y29571952D01*
X85922677Y29614855D01*
X85982403Y29653239D01*
X86053400Y29653239D01*
X86123900Y29600463D01*
X86138300Y29578056D01*
X86145111Y29572155D01*
X86145112Y29572153D01*
X86241840Y29488338D01*
X86241843Y29488336D01*
X86248651Y29482437D01*
X86256845Y29478695D01*
X86256848Y29478693D01*
X86341903Y29439850D01*
X86381471Y29421780D01*
X86390388Y29420498D01*
X86521554Y29401639D01*
X86521557Y29401639D01*
X86526000Y29401000D01*
X88050000Y29401000D01*
X88263108Y29447359D01*
X88326874Y29488338D01*
X88378360Y29521426D01*
X88378361Y29521426D01*
X88385944Y29526300D01*
X88391847Y29533112D01*
X88475662Y29629840D01*
X88475664Y29629843D01*
X88481563Y29636651D01*
X88485305Y29644845D01*
X88485307Y29644848D01*
X88538477Y29761275D01*
X88542220Y29769471D01*
X88560394Y29895876D01*
X88562361Y29909554D01*
X88562361Y29909557D01*
X88563000Y29914000D01*
X88563000Y31438000D01*
X88516641Y31651108D01*
X88477833Y31711496D01*
X88442574Y31766360D01*
X88442574Y31766361D01*
X88437700Y31773944D01*
X88415119Y31793511D01*
X88349145Y31850677D01*
X88310761Y31910403D01*
X88310761Y31981400D01*
X88363537Y32051900D01*
X88378360Y32061426D01*
X88378361Y32061426D01*
X88385944Y32066300D01*
X88391847Y32073112D01*
X88475662Y32169840D01*
X88475664Y32169843D01*
X88481563Y32176651D01*
X88485305Y32184845D01*
X88485307Y32184848D01*
X88538477Y32301275D01*
X88542220Y32309471D01*
X88560471Y32436411D01*
X88562361Y32449554D01*
X88562361Y32449557D01*
X88563000Y32454000D01*
X88563000Y33978000D01*
X88516641Y34191108D01*
X88506579Y34206766D01*
X88442574Y34306360D01*
X88442574Y34306361D01*
X88437700Y34313944D01*
X88422063Y34327494D01*
X88349145Y34390677D01*
X88310761Y34450403D01*
X88310761Y34521400D01*
X88363537Y34591900D01*
X88378360Y34601426D01*
X88378361Y34601426D01*
X88385944Y34606300D01*
X88394976Y34616723D01*
X88475662Y34709840D01*
X88475664Y34709843D01*
X88481563Y34716651D01*
X88485305Y34724845D01*
X88485307Y34724848D01*
X88538477Y34841275D01*
X88542220Y34849471D01*
X88548079Y34890224D01*
X88562361Y34989554D01*
X88562361Y34989557D01*
X88563000Y34994000D01*
X88563000Y36518000D01*
X88516641Y36731108D01*
X88504403Y36750152D01*
X88442574Y36846360D01*
X88442574Y36846361D01*
X88437700Y36853944D01*
X88430888Y36859847D01*
X88334160Y36943662D01*
X88334157Y36943664D01*
X88327349Y36949563D01*
X88319155Y36953305D01*
X88319152Y36953307D01*
X88202725Y37006477D01*
X88194529Y37010220D01*
X88157864Y37015492D01*
X88054446Y37030361D01*
X88054443Y37030361D01*
X88050000Y37031000D01*
X86526000Y37031000D01*
X86312892Y36984641D01*
X86303407Y36978545D01*
X86303406Y36978545D01*
X86197640Y36910574D01*
X86190056Y36905700D01*
X86184155Y36898889D01*
X86184153Y36898888D01*
X86113323Y36817145D01*
X86053597Y36778761D01*
X85982600Y36778761D01*
X85912100Y36831537D01*
X85902574Y36846360D01*
X85902574Y36846361D01*
X85897700Y36853944D01*
X85890888Y36859847D01*
X85794160Y36943662D01*
X85794157Y36943664D01*
X85787349Y36949563D01*
X85779155Y36953305D01*
X85779152Y36953307D01*
X85662725Y37006477D01*
X85654529Y37010220D01*
X85617864Y37015492D01*
X85514446Y37030361D01*
X85514443Y37030361D01*
X85510000Y37031000D01*
X83986000Y37031000D01*
X83772892Y36984641D01*
X83763407Y36978545D01*
X83763406Y36978545D01*
X83657640Y36910574D01*
X83650056Y36905700D01*
X83644155Y36898889D01*
X83644153Y36898888D01*
X83560338Y36802160D01*
X83560336Y36802157D01*
X83554437Y36795349D01*
X83550695Y36787155D01*
X83550693Y36787152D01*
X83531943Y36746095D01*
X83493780Y36662529D01*
X83492498Y36653612D01*
X83473950Y36524605D01*
X83473000Y36518000D01*
X72499722Y36518000D01*
X72467359Y36553942D01*
X72467358Y36553943D01*
X72462937Y36558853D01*
X72457595Y36562734D01*
X72457593Y36562736D01*
X72313778Y36667223D01*
X72313777Y36667224D01*
X72308436Y36671104D01*
X72302408Y36673788D01*
X72302406Y36673789D01*
X72140004Y36746095D01*
X72140003Y36746095D01*
X72133973Y36748780D01*
X72040573Y36768633D01*
X71953630Y36787114D01*
X71953625Y36787114D01*
X71947173Y36788486D01*
X71756199Y36788486D01*
X71749747Y36787114D01*
X71749742Y36787114D01*
X71662799Y36768633D01*
X71569399Y36748780D01*
X71563369Y36746095D01*
X71563368Y36746095D01*
X71400966Y36673789D01*
X71400964Y36673788D01*
X71394936Y36671104D01*
X71337355Y36629269D01*
X71314347Y36612553D01*
X71240287Y36588490D01*
X61656928Y36588490D01*
X61648358Y36588782D01*
X61601224Y36591996D01*
X61601220Y36591996D01*
X61593648Y36592512D01*
X61530698Y36581525D01*
X61524208Y36580568D01*
X61460796Y36572894D01*
X61453687Y36570207D01*
X61451075Y36569566D01*
X61434815Y36565118D01*
X61432245Y36564342D01*
X61424766Y36563037D01*
X61417815Y36559986D01*
X61417809Y36559984D01*
X61366285Y36537366D01*
X61360176Y36534873D01*
X61307538Y36514983D01*
X61307536Y36514982D01*
X61300428Y36512296D01*
X61294163Y36507990D01*
X61291772Y36506740D01*
X61277063Y36498553D01*
X61274746Y36497183D01*
X61267789Y36494129D01*
X61261766Y36489508D01*
X61261760Y36489504D01*
X61217098Y36455235D01*
X61211765Y36451360D01*
X61159144Y36415194D01*
X61154087Y36409518D01*
X61120051Y36371317D01*
X61115070Y36366041D01*
X60043462Y35294432D01*
X59980564Y35260280D01*
X59944403Y35252593D01*
X59827713Y35227790D01*
X59821683Y35225105D01*
X59821682Y35225105D01*
X59659280Y35152799D01*
X59659278Y35152798D01*
X59653250Y35150114D01*
X59647909Y35146234D01*
X59647908Y35146233D01*
X59504093Y35041746D01*
X59504091Y35041744D01*
X59498749Y35037863D01*
X59494328Y35032953D01*
X59494327Y35032952D01*
X59443625Y34976641D01*
X59370963Y34895942D01*
X59275476Y34730554D01*
X59258175Y34677308D01*
X59220852Y34562437D01*
X59216462Y34548927D01*
X59215772Y34542364D01*
X59215772Y34542363D01*
X59213569Y34521400D01*
X59196500Y34359000D01*
X56208666Y34359000D01*
X56200039Y34455658D01*
X56140787Y34672246D01*
X56122250Y34711111D01*
X56077909Y34804073D01*
X56044117Y34874919D01*
X55913085Y35057270D01*
X55821282Y35146233D01*
X55755860Y35209632D01*
X55755857Y35209634D01*
X55751832Y35213535D01*
X55682268Y35260280D01*
X55570108Y35335649D01*
X55570102Y35335652D01*
X55565455Y35338775D01*
X55560323Y35341028D01*
X55560319Y35341030D01*
X55364988Y35426775D01*
X55364986Y35426776D01*
X55359846Y35429032D01*
X55141503Y35481451D01*
X55054611Y35486461D01*
X54922935Y35494054D01*
X54922932Y35494054D01*
X54917328Y35494377D01*
X54694408Y35467400D01*
X54689046Y35465750D01*
X54689044Y35465750D01*
X54607311Y35440606D01*
X54479787Y35401375D01*
X54280251Y35298386D01*
X54102106Y35161691D01*
X53950983Y34995609D01*
X53831659Y34805390D01*
X53829565Y34800181D01*
X53829564Y34800179D01*
X53802654Y34733239D01*
X53747905Y34597047D01*
X53746768Y34591556D01*
X53746767Y34591553D01*
X53717537Y34450403D01*
X53702370Y34377166D01*
X53696492Y34152696D01*
X51336389Y34152696D01*
X51337758Y34162308D01*
X51337758Y34162312D01*
X51338269Y34165900D01*
X51340000Y34232000D01*
X51339436Y34238326D01*
X51329251Y34352435D01*
X51320039Y34455658D01*
X51260787Y34672246D01*
X51242250Y34711111D01*
X51197909Y34804073D01*
X51164117Y34874919D01*
X51033085Y35057270D01*
X50941282Y35146233D01*
X50875860Y35209632D01*
X50875857Y35209634D01*
X50871832Y35213535D01*
X50802268Y35260280D01*
X50690108Y35335649D01*
X50690102Y35335652D01*
X50685455Y35338775D01*
X50680323Y35341028D01*
X50680319Y35341030D01*
X50484988Y35426775D01*
X50484986Y35426776D01*
X50479846Y35429032D01*
X50261503Y35481451D01*
X50174611Y35486461D01*
X50042935Y35494054D01*
X50042932Y35494054D01*
X50037328Y35494377D01*
X49814408Y35467400D01*
X49809046Y35465750D01*
X49809044Y35465750D01*
X49727311Y35440606D01*
X49599787Y35401375D01*
X49400251Y35298386D01*
X49222106Y35161691D01*
X49070983Y34995609D01*
X48951659Y34805390D01*
X48949565Y34800181D01*
X48949564Y34800179D01*
X48922654Y34733239D01*
X48867905Y34597047D01*
X48866768Y34591556D01*
X48866767Y34591553D01*
X48837537Y34450403D01*
X48822370Y34377166D01*
X48816492Y34152696D01*
X39609492Y34152696D01*
X39609492Y35645261D01*
X39633554Y35719319D01*
X39635615Y35722155D01*
X39640029Y35727058D01*
X39735516Y35892446D01*
X39794530Y36074073D01*
X39814492Y36264000D01*
X39798149Y36419497D01*
X39795220Y36447363D01*
X39795220Y36447364D01*
X39794530Y36453927D01*
X39773712Y36518000D01*
X39737558Y36629269D01*
X39735516Y36635554D01*
X39640029Y36800942D01*
X39512243Y36942863D01*
X39506901Y36946744D01*
X39506899Y36946746D01*
X39363084Y37051233D01*
X39363083Y37051234D01*
X39357742Y37055114D01*
X39351714Y37057798D01*
X39351712Y37057799D01*
X39189310Y37130105D01*
X39189309Y37130105D01*
X39183279Y37132790D01*
X39089879Y37152643D01*
X39002936Y37171124D01*
X39002931Y37171124D01*
X38996479Y37172496D01*
X38805505Y37172496D01*
X38799053Y37171124D01*
X38799048Y37171124D01*
X38712105Y37152643D01*
X38618705Y37132790D01*
X38612675Y37130105D01*
X38612674Y37130105D01*
X38450272Y37057799D01*
X38450270Y37057798D01*
X38444242Y37055114D01*
X38438901Y37051234D01*
X38438900Y37051233D01*
X38295085Y36946746D01*
X38295083Y36946744D01*
X38289741Y36942863D01*
X38161955Y36800942D01*
X38066468Y36635554D01*
X38064426Y36629269D01*
X38028273Y36518000D01*
X38007454Y36453927D01*
X38006764Y36447364D01*
X38006764Y36447363D01*
X38003835Y36419497D01*
X37987492Y36264000D01*
X38007454Y36074073D01*
X38066468Y35892446D01*
X38161955Y35727058D01*
X38166369Y35722155D01*
X38168430Y35719319D01*
X38192492Y35645261D01*
X38192493Y33053653D01*
X38155588Y32964558D01*
X37120436Y31929405D01*
X37031341Y31892500D01*
X36386938Y31892500D01*
X36378368Y31892792D01*
X36331234Y31896006D01*
X36331230Y31896006D01*
X36323658Y31896522D01*
X36260707Y31885536D01*
X36254217Y31884578D01*
X36228798Y31881502D01*
X36198347Y31877817D01*
X36198344Y31877816D01*
X36190806Y31876904D01*
X36183700Y31874219D01*
X36181127Y31873587D01*
X36164802Y31869122D01*
X36162253Y31868352D01*
X36154775Y31867047D01*
X36147826Y31863997D01*
X36147824Y31863996D01*
X36096299Y31841378D01*
X36090193Y31838886D01*
X36037542Y31818991D01*
X36037538Y31818989D01*
X36030438Y31816306D01*
X36024181Y31812006D01*
X36021804Y31810763D01*
X36007077Y31802565D01*
X36004756Y31801193D01*
X35997798Y31798138D01*
X35991771Y31793513D01*
X35991767Y31793511D01*
X35947125Y31759256D01*
X35941800Y31755387D01*
X35889154Y31719204D01*
X35884102Y31713534D01*
X35884101Y31713533D01*
X35850060Y31675326D01*
X35845080Y31670050D01*
X35155366Y30980335D01*
X35149100Y30974482D01*
X35107766Y30938424D01*
X35081505Y30901058D01*
X35071028Y30886151D01*
X35067095Y30880856D01*
X35027698Y30830611D01*
X35024572Y30823687D01*
X35023171Y30821374D01*
X35014834Y30806758D01*
X35013559Y30804381D01*
X35009190Y30798164D01*
X35006430Y30791085D01*
X35006429Y30791083D01*
X34985992Y30738663D01*
X34983435Y30732580D01*
X34960277Y30681291D01*
X34957150Y30674365D01*
X34955766Y30666899D01*
X34954960Y30664327D01*
X34950346Y30648128D01*
X34949676Y30645520D01*
X34946916Y30638439D01*
X34942750Y30606794D01*
X34938578Y30575103D01*
X34937547Y30568595D01*
X34925909Y30505800D01*
X34926346Y30498220D01*
X34926346Y30498219D01*
X34929291Y30447143D01*
X34929500Y30439890D01*
X34929501Y29201478D01*
X34929501Y27995095D01*
X34892597Y27906000D01*
X33975111Y26988512D01*
X33912212Y26954360D01*
X33887641Y26949137D01*
X33759361Y26921870D01*
X33753331Y26919185D01*
X33753330Y26919185D01*
X33590928Y26846879D01*
X33590926Y26846878D01*
X33584898Y26844194D01*
X33579557Y26840314D01*
X33579556Y26840313D01*
X33435741Y26735826D01*
X33435739Y26735824D01*
X33430397Y26731943D01*
X33425976Y26727033D01*
X33425975Y26727032D01*
X33328488Y26618761D01*
X33302611Y26590022D01*
X33207124Y26424634D01*
X33205082Y26418349D01*
X33167280Y26302005D01*
X33148110Y26243007D01*
X33128148Y26053080D01*
X33128607Y26048713D01*
X33108836Y25981379D01*
X33055180Y25934886D01*
X33002838Y25923500D01*
X31892399Y25923500D01*
X31818339Y25947563D01*
X31771795Y25981379D01*
X31737750Y26006114D01*
X31731722Y26008798D01*
X31731720Y26008799D01*
X31569318Y26081105D01*
X31569317Y26081105D01*
X31563287Y26083790D01*
X31469887Y26103643D01*
X31382944Y26122124D01*
X31382939Y26122124D01*
X31376487Y26123496D01*
X31185513Y26123496D01*
X31179061Y26122124D01*
X31179056Y26122124D01*
X31092113Y26103643D01*
X30998713Y26083790D01*
X30992683Y26081105D01*
X30992682Y26081105D01*
X30830280Y26008799D01*
X30830278Y26008798D01*
X30824250Y26006114D01*
X30818909Y26002234D01*
X30818908Y26002233D01*
X30675093Y25897746D01*
X30675091Y25897744D01*
X30669749Y25893863D01*
X30541963Y25751942D01*
X30446476Y25586554D01*
X30444434Y25580269D01*
X30394029Y25425137D01*
X30387462Y25404927D01*
X30367500Y25215000D01*
X29555500Y25215000D01*
X29555500Y32139822D01*
X29556190Y32152993D01*
X29559810Y32187435D01*
X29560500Y32194000D01*
X29556657Y32230567D01*
X29541228Y32377363D01*
X29541228Y32377364D01*
X29540538Y32383927D01*
X29525462Y32430328D01*
X29483566Y32559269D01*
X29481524Y32565554D01*
X29386037Y32730942D01*
X29258251Y32872863D01*
X29252909Y32876744D01*
X29252907Y32876746D01*
X29109092Y32981233D01*
X29109091Y32981234D01*
X29103750Y32985114D01*
X29097722Y32987798D01*
X29097720Y32987799D01*
X28935318Y33060105D01*
X28935317Y33060105D01*
X28929287Y33062790D01*
X28823495Y33085277D01*
X28748944Y33101124D01*
X28748939Y33101124D01*
X28742487Y33102496D01*
X28551513Y33102496D01*
X28545061Y33101124D01*
X28545056Y33101124D01*
X28470505Y33085277D01*
X28364713Y33062790D01*
X28358683Y33060105D01*
X28358682Y33060105D01*
X28196280Y32987799D01*
X28196278Y32987798D01*
X28190250Y32985114D01*
X28184909Y32981234D01*
X28184908Y32981233D01*
X28041093Y32876746D01*
X28041091Y32876744D01*
X28035749Y32872863D01*
X27907963Y32730942D01*
X27812476Y32565554D01*
X27810434Y32559269D01*
X27768539Y32430328D01*
X27753462Y32383927D01*
X27752772Y32377364D01*
X27752772Y32377363D01*
X27737343Y32230567D01*
X27733500Y32194000D01*
X547000Y32194000D01*
X547000Y33797942D01*
X8872516Y33797942D01*
X8906804Y33573870D01*
X8980230Y33359411D01*
X9090472Y33161344D01*
X9094025Y33157004D01*
X9094027Y33157000D01*
X9151097Y33087274D01*
X9234047Y32985929D01*
X9406417Y32838712D01*
X9504274Y32781529D01*
X9597284Y32727178D01*
X9597287Y32727177D01*
X9602131Y32724346D01*
X9607401Y32722417D01*
X9607402Y32722417D01*
X9809742Y32648371D01*
X9809746Y32648370D01*
X9815006Y32646445D01*
X9820522Y32645482D01*
X9820527Y32645481D01*
X9999078Y32614319D01*
X10038311Y32607472D01*
X10043916Y32607501D01*
X10043920Y32607501D01*
X10146984Y32608041D01*
X10264988Y32608658D01*
X10487873Y32649968D01*
X10493122Y32651951D01*
X10493124Y32651952D01*
X10641450Y32708000D01*
X10699920Y32730094D01*
X10894426Y32846503D01*
X11065244Y32995517D01*
X11127535Y33073269D01*
X11203469Y33168049D01*
X11203472Y33168054D01*
X11206975Y33172426D01*
X11315137Y33371636D01*
X11386313Y33586853D01*
X11406743Y33730402D01*
X11416355Y33797942D01*
X13872516Y33797942D01*
X13906804Y33573870D01*
X13980230Y33359411D01*
X14090472Y33161344D01*
X14094025Y33157004D01*
X14094027Y33157000D01*
X14151097Y33087274D01*
X14234047Y32985929D01*
X14406417Y32838712D01*
X14504274Y32781529D01*
X14597284Y32727178D01*
X14597287Y32727177D01*
X14602131Y32724346D01*
X14607401Y32722417D01*
X14607402Y32722417D01*
X14809742Y32648371D01*
X14809746Y32648370D01*
X14815006Y32646445D01*
X14820522Y32645482D01*
X14820527Y32645481D01*
X14999078Y32614319D01*
X15038311Y32607472D01*
X15043916Y32607501D01*
X15043920Y32607501D01*
X15146984Y32608041D01*
X15264988Y32608658D01*
X15487873Y32649968D01*
X15493122Y32651951D01*
X15493124Y32651952D01*
X15641450Y32708000D01*
X15699920Y32730094D01*
X15894426Y32846503D01*
X16065244Y32995517D01*
X16127535Y33073269D01*
X16203469Y33168049D01*
X16203472Y33168054D01*
X16206975Y33172426D01*
X16315137Y33371636D01*
X16386313Y33586853D01*
X16406743Y33730402D01*
X16417742Y33807681D01*
X16417742Y33807682D01*
X16418253Y33811272D01*
X16419267Y33849980D01*
X16419905Y33874368D01*
X16419905Y33874370D01*
X16420000Y33878000D01*
X16399849Y34103783D01*
X16351928Y34278956D01*
X16341517Y34317013D01*
X16341516Y34317017D01*
X16340035Y34322429D01*
X16242446Y34527028D01*
X16110169Y34711111D01*
X15947383Y34868861D01*
X15759236Y34995291D01*
X15551673Y35086405D01*
X15331256Y35139322D01*
X15243085Y35144406D01*
X15110558Y35152048D01*
X15110555Y35152048D01*
X15104951Y35152371D01*
X14879913Y35125138D01*
X14663253Y35058485D01*
X14658273Y35055915D01*
X14658269Y35055913D01*
X14529702Y34989554D01*
X14461821Y34954518D01*
X14281983Y34816524D01*
X14278210Y34812378D01*
X14278205Y34812373D01*
X14208964Y34736277D01*
X14129424Y34648864D01*
X14008967Y34456838D01*
X13924418Y34246516D01*
X13923281Y34241025D01*
X13923280Y34241022D01*
X13893701Y34098188D01*
X13878450Y34024545D01*
X13872516Y33797942D01*
X11416355Y33797942D01*
X11417742Y33807681D01*
X11417742Y33807682D01*
X11418253Y33811272D01*
X11419267Y33849980D01*
X11419905Y33874368D01*
X11419905Y33874370D01*
X11420000Y33878000D01*
X11399849Y34103783D01*
X11351928Y34278956D01*
X11341517Y34317013D01*
X11341516Y34317017D01*
X11340035Y34322429D01*
X11242446Y34527028D01*
X11110169Y34711111D01*
X10947383Y34868861D01*
X10759236Y34995291D01*
X10551673Y35086405D01*
X10331256Y35139322D01*
X10243085Y35144406D01*
X10110558Y35152048D01*
X10110555Y35152048D01*
X10104951Y35152371D01*
X9879913Y35125138D01*
X9663253Y35058485D01*
X9658273Y35055915D01*
X9658269Y35055913D01*
X9529702Y34989554D01*
X9461821Y34954518D01*
X9281983Y34816524D01*
X9278210Y34812378D01*
X9278205Y34812373D01*
X9208964Y34736277D01*
X9129424Y34648864D01*
X9008967Y34456838D01*
X8924418Y34246516D01*
X8923281Y34241025D01*
X8923280Y34241022D01*
X8893701Y34098188D01*
X8878450Y34024545D01*
X8872516Y33797942D01*
X547000Y33797942D01*
X547000Y49600000D01*
X567002Y49668121D01*
X620658Y49714614D01*
X673000Y49726000D01*
X90337001Y49726000D01*
X90405122Y49705998D01*
G37*
%TD.AperFunction*%
%TD*%
M02*
