%TF.GenerationSoftware,KiCad,Pcbnew,6.0.4-6f826c9f35~116~ubuntu20.04.1*%
%TF.CreationDate,2022-05-20T11:28:00+00:00*%
%TF.ProjectId,USTSIPIN02A,55535453-4950-4494-9e30-32412e6b6963,REV*%
%TF.SameCoordinates,Original*%
%TF.FileFunction,Legend,Top*%
%TF.FilePolarity,Positive*%
%FSLAX46Y46*%
G04 Gerber Fmt 4.6, Leading zero omitted, Abs format (unit mm)*
G04 Created by KiCad (PCBNEW 6.0.4-6f826c9f35~116~ubuntu20.04.1) date 2022-05-20 11:28:00*
%MOMM*%
%LPD*%
G01*
G04 APERTURE LIST*
%ADD10C,0.300000*%
%ADD11C,0.150000*%
%ADD12C,0.050000*%
%ADD13C,0.100000*%
%ADD14C,0.120000*%
G04 APERTURE END LIST*
D10*
X95342809Y57831904D02*
X94909476Y58450952D01*
X94599952Y57831904D02*
X94599952Y59131904D01*
X95095190Y59131904D01*
X95219000Y59070000D01*
X95280904Y59008095D01*
X95342809Y58884285D01*
X95342809Y58698571D01*
X95280904Y58574761D01*
X95219000Y58512857D01*
X95095190Y58450952D01*
X94599952Y58450952D01*
X95838047Y57893809D02*
X96023761Y57831904D01*
X96333285Y57831904D01*
X96457095Y57893809D01*
X96519000Y57955714D01*
X96580904Y58079523D01*
X96580904Y58203333D01*
X96519000Y58327142D01*
X96457095Y58389047D01*
X96333285Y58450952D01*
X96085666Y58512857D01*
X95961857Y58574761D01*
X95899952Y58636666D01*
X95838047Y58760476D01*
X95838047Y58884285D01*
X95899952Y59008095D01*
X95961857Y59070000D01*
X96085666Y59131904D01*
X96395190Y59131904D01*
X96580904Y59070000D01*
X96952333Y59131904D02*
X97695190Y59131904D01*
X97323761Y57831904D02*
X97323761Y59131904D01*
X98066619Y58698571D02*
X98995190Y58698571D01*
X98438047Y59255714D02*
X98066619Y57584285D01*
X98871380Y58141428D02*
X97942809Y58141428D01*
X98499952Y57584285D02*
X98871380Y59255714D01*
X56760904Y62465809D02*
X56946619Y62403904D01*
X57256142Y62403904D01*
X57379952Y62465809D01*
X57441857Y62527714D01*
X57503761Y62651523D01*
X57503761Y62775333D01*
X57441857Y62899142D01*
X57379952Y62961047D01*
X57256142Y63022952D01*
X57008523Y63084857D01*
X56884714Y63146761D01*
X56822809Y63208666D01*
X56760904Y63332476D01*
X56760904Y63456285D01*
X56822809Y63580095D01*
X56884714Y63642000D01*
X57008523Y63703904D01*
X57318047Y63703904D01*
X57503761Y63642000D01*
X58060904Y62403904D02*
X58060904Y63703904D01*
X58556142Y63703904D01*
X58679952Y63642000D01*
X58741857Y63580095D01*
X58803761Y63456285D01*
X58803761Y63270571D01*
X58741857Y63146761D01*
X58679952Y63084857D01*
X58556142Y63022952D01*
X58060904Y63022952D01*
X59299000Y62775333D02*
X59918047Y62775333D01*
X59175190Y62403904D02*
X59608523Y63703904D01*
X60041857Y62403904D01*
X61218047Y62527714D02*
X61156142Y62465809D01*
X60970428Y62403904D01*
X60846619Y62403904D01*
X60660904Y62465809D01*
X60537095Y62589619D01*
X60475190Y62713428D01*
X60413285Y62961047D01*
X60413285Y63146761D01*
X60475190Y63394380D01*
X60537095Y63518190D01*
X60660904Y63642000D01*
X60846619Y63703904D01*
X60970428Y63703904D01*
X61156142Y63642000D01*
X61218047Y63580095D01*
X61775190Y63084857D02*
X62208523Y63084857D01*
X62394238Y62403904D02*
X61775190Y62403904D01*
X61775190Y63703904D01*
X62394238Y63703904D01*
X62951380Y62403904D02*
X62951380Y63703904D01*
X63260904Y63703904D01*
X63446619Y63642000D01*
X63570428Y63518190D01*
X63632333Y63394380D01*
X63694238Y63146761D01*
X63694238Y62961047D01*
X63632333Y62713428D01*
X63570428Y62589619D01*
X63446619Y62465809D01*
X63260904Y62403904D01*
X62951380Y62403904D01*
X64499000Y63703904D02*
X64746619Y63703904D01*
X64870428Y63642000D01*
X64994238Y63518190D01*
X65056142Y63270571D01*
X65056142Y62837238D01*
X64994238Y62589619D01*
X64870428Y62465809D01*
X64746619Y62403904D01*
X64499000Y62403904D01*
X64375190Y62465809D01*
X64251380Y62589619D01*
X64189476Y62837238D01*
X64189476Y63270571D01*
X64251380Y63518190D01*
X64375190Y63642000D01*
X64499000Y63703904D01*
X65551380Y62465809D02*
X65737095Y62403904D01*
X66046619Y62403904D01*
X66170428Y62465809D01*
X66232333Y62527714D01*
X66294238Y62651523D01*
X66294238Y62775333D01*
X66232333Y62899142D01*
X66170428Y62961047D01*
X66046619Y63022952D01*
X65799000Y63084857D01*
X65675190Y63146761D01*
X65613285Y63208666D01*
X65551380Y63332476D01*
X65551380Y63456285D01*
X65613285Y63580095D01*
X65675190Y63642000D01*
X65799000Y63703904D01*
X66108523Y63703904D01*
X66294238Y63642000D01*
X67099000Y63703904D02*
X67222809Y63703904D01*
X67346619Y63642000D01*
X67408523Y63580095D01*
X67470428Y63456285D01*
X67532333Y63208666D01*
X67532333Y62899142D01*
X67470428Y62651523D01*
X67408523Y62527714D01*
X67346619Y62465809D01*
X67222809Y62403904D01*
X67099000Y62403904D01*
X66975190Y62465809D01*
X66913285Y62527714D01*
X66851380Y62651523D01*
X66789476Y62899142D01*
X66789476Y63208666D01*
X66851380Y63456285D01*
X66913285Y63580095D01*
X66975190Y63642000D01*
X67099000Y63703904D01*
X68770428Y62403904D02*
X68027571Y62403904D01*
X68399000Y62403904D02*
X68399000Y63703904D01*
X68275190Y63518190D01*
X68151380Y63394380D01*
X68027571Y63332476D01*
X69265666Y62775333D02*
X69884714Y62775333D01*
X69141857Y62403904D02*
X69575190Y63703904D01*
X70008523Y62403904D01*
X70132333Y62280095D02*
X71122809Y62280095D01*
X71432333Y62403904D02*
X71432333Y63703904D01*
X71927571Y63703904D01*
X72051380Y63642000D01*
X72113285Y63580095D01*
X72175190Y63456285D01*
X72175190Y63270571D01*
X72113285Y63146761D01*
X72051380Y63084857D01*
X71927571Y63022952D01*
X71432333Y63022952D01*
X73475190Y62527714D02*
X73413285Y62465809D01*
X73227571Y62403904D01*
X73103761Y62403904D01*
X72918047Y62465809D01*
X72794238Y62589619D01*
X72732333Y62713428D01*
X72670428Y62961047D01*
X72670428Y63146761D01*
X72732333Y63394380D01*
X72794238Y63518190D01*
X72918047Y63642000D01*
X73103761Y63703904D01*
X73227571Y63703904D01*
X73413285Y63642000D01*
X73475190Y63580095D01*
X74465666Y63084857D02*
X74651380Y63022952D01*
X74713285Y62961047D01*
X74775190Y62837238D01*
X74775190Y62651523D01*
X74713285Y62527714D01*
X74651380Y62465809D01*
X74527571Y62403904D01*
X74032333Y62403904D01*
X74032333Y63703904D01*
X74465666Y63703904D01*
X74589476Y63642000D01*
X74651380Y63580095D01*
X74713285Y63456285D01*
X74713285Y63332476D01*
X74651380Y63208666D01*
X74589476Y63146761D01*
X74465666Y63084857D01*
X74032333Y63084857D01*
X75579952Y63703904D02*
X75703761Y63703904D01*
X75827571Y63642000D01*
X75889476Y63580095D01*
X75951380Y63456285D01*
X76013285Y63208666D01*
X76013285Y62899142D01*
X75951380Y62651523D01*
X75889476Y62527714D01*
X75827571Y62465809D01*
X75703761Y62403904D01*
X75579952Y62403904D01*
X75456142Y62465809D01*
X75394238Y62527714D01*
X75332333Y62651523D01*
X75270428Y62899142D01*
X75270428Y63208666D01*
X75332333Y63456285D01*
X75394238Y63580095D01*
X75456142Y63642000D01*
X75579952Y63703904D01*
X77251380Y62403904D02*
X76508523Y62403904D01*
X76879952Y62403904D02*
X76879952Y63703904D01*
X76756142Y63518190D01*
X76632333Y63394380D01*
X76508523Y63332476D01*
X78241857Y63084857D02*
X78427571Y63022952D01*
X78489476Y62961047D01*
X78551380Y62837238D01*
X78551380Y62651523D01*
X78489476Y62527714D01*
X78427571Y62465809D01*
X78303761Y62403904D01*
X77808523Y62403904D01*
X77808523Y63703904D01*
X78241857Y63703904D01*
X78365666Y63642000D01*
X78427571Y63580095D01*
X78489476Y63456285D01*
X78489476Y63332476D01*
X78427571Y63208666D01*
X78365666Y63146761D01*
X78241857Y63084857D01*
X77808523Y63084857D01*
X97046142Y63195904D02*
X97789000Y63195904D01*
X97417571Y61895904D02*
X97417571Y63195904D01*
X98098523Y63195904D02*
X98965190Y61895904D01*
X98965190Y63195904D02*
X98098523Y61895904D01*
X99708047Y63195904D02*
X99831857Y63195904D01*
X99955666Y63134000D01*
X100017571Y63072095D01*
X100079476Y62948285D01*
X100141380Y62700666D01*
X100141380Y62391142D01*
X100079476Y62143523D01*
X100017571Y62019714D01*
X99955666Y61957809D01*
X99831857Y61895904D01*
X99708047Y61895904D01*
X99584238Y61957809D01*
X99522333Y62019714D01*
X99460428Y62143523D01*
X99398523Y62391142D01*
X99398523Y62700666D01*
X99460428Y62948285D01*
X99522333Y63072095D01*
X99584238Y63134000D01*
X99708047Y63195904D01*
X96679190Y66497904D02*
X96060142Y66497904D01*
X95998238Y65878857D01*
X96060142Y65940761D01*
X96183952Y66002666D01*
X96493476Y66002666D01*
X96617285Y65940761D01*
X96679190Y65878857D01*
X96741095Y65755047D01*
X96741095Y65445523D01*
X96679190Y65321714D01*
X96617285Y65259809D01*
X96493476Y65197904D01*
X96183952Y65197904D01*
X96060142Y65259809D01*
X95998238Y65321714D01*
X97112523Y66497904D02*
X97545857Y65197904D01*
X97979190Y66497904D01*
X94109190Y62657904D02*
X93675857Y63276952D01*
X93366333Y62657904D02*
X93366333Y63957904D01*
X93861571Y63957904D01*
X93985380Y63896000D01*
X94047285Y63834095D01*
X94109190Y63710285D01*
X94109190Y63524571D01*
X94047285Y63400761D01*
X93985380Y63338857D01*
X93861571Y63276952D01*
X93366333Y63276952D01*
X94542523Y63957904D02*
X95409190Y62657904D01*
X95409190Y63957904D02*
X94542523Y62657904D01*
X96152047Y63957904D02*
X96275857Y63957904D01*
X96399666Y63896000D01*
X96461571Y63834095D01*
X96523476Y63710285D01*
X96585380Y63462666D01*
X96585380Y63153142D01*
X96523476Y62905523D01*
X96461571Y62781714D01*
X96399666Y62719809D01*
X96275857Y62657904D01*
X96152047Y62657904D01*
X96028238Y62719809D01*
X95966333Y62781714D01*
X95904428Y62905523D01*
X95842523Y63153142D01*
X95842523Y63462666D01*
X95904428Y63710285D01*
X95966333Y63834095D01*
X96028238Y63896000D01*
X96152047Y63957904D01*
X96984238Y60655904D02*
X97789000Y60655904D01*
X97355666Y60160666D01*
X97541380Y60160666D01*
X97665190Y60098761D01*
X97727095Y60036857D01*
X97789000Y59913047D01*
X97789000Y59603523D01*
X97727095Y59479714D01*
X97665190Y59417809D01*
X97541380Y59355904D01*
X97169952Y59355904D01*
X97046142Y59417809D01*
X96984238Y59479714D01*
X98160428Y60655904D02*
X98593761Y59355904D01*
X99027095Y60655904D01*
X99336619Y60655904D02*
X100141380Y60655904D01*
X99708047Y60160666D01*
X99893761Y60160666D01*
X100017571Y60098761D01*
X100079476Y60036857D01*
X100141380Y59913047D01*
X100141380Y59603523D01*
X100079476Y59479714D01*
X100017571Y59417809D01*
X99893761Y59355904D01*
X99522333Y59355904D01*
X99398523Y59417809D01*
X99336619Y59479714D01*
X92337571Y59070000D02*
X92213761Y59131904D01*
X92028047Y59131904D01*
X91842333Y59070000D01*
X91718523Y58946190D01*
X91656619Y58822380D01*
X91594714Y58574761D01*
X91594714Y58389047D01*
X91656619Y58141428D01*
X91718523Y58017619D01*
X91842333Y57893809D01*
X92028047Y57831904D01*
X92151857Y57831904D01*
X92337571Y57893809D01*
X92399476Y57955714D01*
X92399476Y58389047D01*
X92151857Y58389047D01*
X92956619Y57831904D02*
X92956619Y59131904D01*
X93699476Y57831904D01*
X93699476Y59131904D01*
X94318523Y57831904D02*
X94318523Y59131904D01*
X94628047Y59131904D01*
X94813761Y59070000D01*
X94937571Y58946190D01*
X94999476Y58822380D01*
X95061380Y58574761D01*
X95061380Y58389047D01*
X94999476Y58141428D01*
X94937571Y58017619D01*
X94813761Y57893809D01*
X94628047Y57831904D01*
X94318523Y57831904D01*
X89748428Y61387904D02*
X89748428Y62687904D01*
X90243666Y62687904D01*
X90367476Y62626000D01*
X90429380Y62564095D01*
X90491285Y62440285D01*
X90491285Y62254571D01*
X90429380Y62130761D01*
X90367476Y62068857D01*
X90243666Y62006952D01*
X89748428Y62006952D01*
X91791285Y61511714D02*
X91729380Y61449809D01*
X91543666Y61387904D01*
X91419857Y61387904D01*
X91234142Y61449809D01*
X91110333Y61573619D01*
X91048428Y61697428D01*
X90986523Y61945047D01*
X90986523Y62130761D01*
X91048428Y62378380D01*
X91110333Y62502190D01*
X91234142Y62626000D01*
X91419857Y62687904D01*
X91543666Y62687904D01*
X91729380Y62626000D01*
X91791285Y62564095D01*
X92224619Y62687904D02*
X93091285Y62687904D01*
X92534142Y61387904D01*
X90256428Y59101904D02*
X90256428Y60401904D01*
X90751666Y60401904D01*
X90875476Y60340000D01*
X90937380Y60278095D01*
X90999285Y60154285D01*
X90999285Y59968571D01*
X90937380Y59844761D01*
X90875476Y59782857D01*
X90751666Y59720952D01*
X90256428Y59720952D01*
X92299285Y59225714D02*
X92237380Y59163809D01*
X92051666Y59101904D01*
X91927857Y59101904D01*
X91742142Y59163809D01*
X91618333Y59287619D01*
X91556428Y59411428D01*
X91494523Y59659047D01*
X91494523Y59844761D01*
X91556428Y60092380D01*
X91618333Y60216190D01*
X91742142Y60340000D01*
X91927857Y60401904D01*
X92051666Y60401904D01*
X92237380Y60340000D01*
X92299285Y60278095D01*
X92732619Y60401904D02*
X93537380Y60401904D01*
X93104047Y59906666D01*
X93289761Y59906666D01*
X93413571Y59844761D01*
X93475476Y59782857D01*
X93537380Y59659047D01*
X93537380Y59349523D01*
X93475476Y59225714D01*
X93413571Y59163809D01*
X93289761Y59101904D01*
X92918333Y59101904D01*
X92794523Y59163809D01*
X92732619Y59225714D01*
X125698571Y48176571D02*
X125770000Y48248000D01*
X125912857Y48319428D01*
X126270000Y48319428D01*
X126412857Y48248000D01*
X126484285Y48176571D01*
X126555714Y48033714D01*
X126555714Y47890857D01*
X126484285Y47676571D01*
X125627142Y46819428D01*
X126555714Y46819428D01*
X127484285Y48319428D02*
X127627142Y48319428D01*
X127770000Y48248000D01*
X127841428Y48176571D01*
X127912857Y48033714D01*
X127984285Y47748000D01*
X127984285Y47390857D01*
X127912857Y47105142D01*
X127841428Y46962285D01*
X127770000Y46890857D01*
X127627142Y46819428D01*
X127484285Y46819428D01*
X127341428Y46890857D01*
X127270000Y46962285D01*
X127198571Y47105142D01*
X127127142Y47390857D01*
X127127142Y47748000D01*
X127198571Y48033714D01*
X127270000Y48176571D01*
X127341428Y48248000D01*
X127484285Y48319428D01*
X128555714Y48176571D02*
X128627142Y48248000D01*
X128770000Y48319428D01*
X129127142Y48319428D01*
X129270000Y48248000D01*
X129341428Y48176571D01*
X129412857Y48033714D01*
X129412857Y47890857D01*
X129341428Y47676571D01*
X128484285Y46819428D01*
X129412857Y46819428D01*
X130341428Y48319428D02*
X130484285Y48319428D01*
X130627142Y48248000D01*
X130698571Y48176571D01*
X130770000Y48033714D01*
X130841428Y47748000D01*
X130841428Y47390857D01*
X130770000Y47105142D01*
X130698571Y46962285D01*
X130627142Y46890857D01*
X130484285Y46819428D01*
X130341428Y46819428D01*
X130198571Y46890857D01*
X130127142Y46962285D01*
X130055714Y47105142D01*
X129984285Y47390857D01*
X129984285Y47748000D01*
X130055714Y48033714D01*
X130127142Y48176571D01*
X130198571Y48248000D01*
X130341428Y48319428D01*
X121964000Y51367428D02*
X121964000Y50296000D01*
X121892571Y50081714D01*
X121749714Y49938857D01*
X121535428Y49867428D01*
X121392571Y49867428D01*
X122606857Y50296000D02*
X123321142Y50296000D01*
X122464000Y49867428D02*
X122964000Y51367428D01*
X123464000Y49867428D01*
X124821142Y50010285D02*
X124749714Y49938857D01*
X124535428Y49867428D01*
X124392571Y49867428D01*
X124178285Y49938857D01*
X124035428Y50081714D01*
X123964000Y50224571D01*
X123892571Y50510285D01*
X123892571Y50724571D01*
X123964000Y51010285D01*
X124035428Y51153142D01*
X124178285Y51296000D01*
X124392571Y51367428D01*
X124535428Y51367428D01*
X124749714Y51296000D01*
X124821142Y51224571D01*
X125464000Y49867428D02*
X125464000Y51367428D01*
X125464000Y50653142D02*
X126321142Y50653142D01*
X126321142Y49867428D02*
X126321142Y51367428D01*
X127321142Y51367428D02*
X127606857Y51367428D01*
X127749714Y51296000D01*
X127892571Y51153142D01*
X127964000Y50867428D01*
X127964000Y50367428D01*
X127892571Y50081714D01*
X127749714Y49938857D01*
X127606857Y49867428D01*
X127321142Y49867428D01*
X127178285Y49938857D01*
X127035428Y50081714D01*
X126964000Y50367428D01*
X126964000Y50867428D01*
X127035428Y51153142D01*
X127178285Y51296000D01*
X127321142Y51367428D01*
D11*
%TO.C,D2*%
X12121904Y28617619D02*
X12121904Y29617619D01*
X12360000Y29617619D01*
X12502857Y29570000D01*
X12598095Y29474761D01*
X12645714Y29379523D01*
X12693333Y29189047D01*
X12693333Y29046190D01*
X12645714Y28855714D01*
X12598095Y28760476D01*
X12502857Y28665238D01*
X12360000Y28617619D01*
X12121904Y28617619D01*
X13074285Y29522380D02*
X13121904Y29570000D01*
X13217142Y29617619D01*
X13455238Y29617619D01*
X13550476Y29570000D01*
X13598095Y29522380D01*
X13645714Y29427142D01*
X13645714Y29331904D01*
X13598095Y29189047D01*
X13026666Y28617619D01*
X13645714Y28617619D01*
X16408095Y32427619D02*
X16408095Y33427619D01*
X16979523Y32427619D02*
X16550952Y32999047D01*
X16979523Y33427619D02*
X16408095Y32856190D01*
D12*
%TO.C,J22*%
X45317857Y17487809D02*
X45032142Y17487809D01*
X45175000Y17487809D02*
X45175000Y17987809D01*
X45127380Y17916380D01*
X45079761Y17868761D01*
X45032142Y17844952D01*
D11*
%TO.C,Y1*%
X39885190Y33205809D02*
X40361380Y33205809D01*
X39361380Y32872476D02*
X39885190Y33205809D01*
X39361380Y33539142D01*
X40361380Y34396285D02*
X40361380Y33824857D01*
X40361380Y34110571D02*
X39361380Y34110571D01*
X39504238Y34015333D01*
X39599476Y33920095D01*
X39647095Y33824857D01*
%TO.C,R17*%
X51109642Y36664619D02*
X50776309Y37140809D01*
X50538214Y36664619D02*
X50538214Y37664619D01*
X50919166Y37664619D01*
X51014404Y37617000D01*
X51062023Y37569380D01*
X51109642Y37474142D01*
X51109642Y37331285D01*
X51062023Y37236047D01*
X51014404Y37188428D01*
X50919166Y37140809D01*
X50538214Y37140809D01*
X52062023Y36664619D02*
X51490595Y36664619D01*
X51776309Y36664619D02*
X51776309Y37664619D01*
X51681071Y37521761D01*
X51585833Y37426523D01*
X51490595Y37378904D01*
X52395357Y37664619D02*
X53062023Y37664619D01*
X52633452Y36664619D01*
%TO.C,R25*%
X51109642Y21932619D02*
X50776309Y22408809D01*
X50538214Y21932619D02*
X50538214Y22932619D01*
X50919166Y22932619D01*
X51014404Y22885000D01*
X51062023Y22837380D01*
X51109642Y22742142D01*
X51109642Y22599285D01*
X51062023Y22504047D01*
X51014404Y22456428D01*
X50919166Y22408809D01*
X50538214Y22408809D01*
X51490595Y22837380D02*
X51538214Y22885000D01*
X51633452Y22932619D01*
X51871547Y22932619D01*
X51966785Y22885000D01*
X52014404Y22837380D01*
X52062023Y22742142D01*
X52062023Y22646904D01*
X52014404Y22504047D01*
X51442976Y21932619D01*
X52062023Y21932619D01*
X52966785Y22932619D02*
X52490595Y22932619D01*
X52442976Y22456428D01*
X52490595Y22504047D01*
X52585833Y22551666D01*
X52823928Y22551666D01*
X52919166Y22504047D01*
X52966785Y22456428D01*
X53014404Y22361190D01*
X53014404Y22123095D01*
X52966785Y22027857D01*
X52919166Y21980238D01*
X52823928Y21932619D01*
X52585833Y21932619D01*
X52490595Y21980238D01*
X52442976Y22027857D01*
%TO.C,D9*%
X56526380Y4341904D02*
X55526380Y4341904D01*
X55526380Y4580000D01*
X55574000Y4722857D01*
X55669238Y4818095D01*
X55764476Y4865714D01*
X55954952Y4913333D01*
X56097809Y4913333D01*
X56288285Y4865714D01*
X56383523Y4818095D01*
X56478761Y4722857D01*
X56526380Y4580000D01*
X56526380Y4341904D01*
X56526380Y5389523D02*
X56526380Y5580000D01*
X56478761Y5675238D01*
X56431142Y5722857D01*
X56288285Y5818095D01*
X56097809Y5865714D01*
X55716857Y5865714D01*
X55621619Y5818095D01*
X55574000Y5770476D01*
X55526380Y5675238D01*
X55526380Y5484761D01*
X55574000Y5389523D01*
X55621619Y5341904D01*
X55716857Y5294285D01*
X55954952Y5294285D01*
X56050190Y5341904D01*
X56097809Y5389523D01*
X56145428Y5484761D01*
X56145428Y5675238D01*
X56097809Y5770476D01*
X56050190Y5818095D01*
X55954952Y5865714D01*
%TO.C,R24*%
X51109642Y26758619D02*
X50776309Y27234809D01*
X50538214Y26758619D02*
X50538214Y27758619D01*
X50919166Y27758619D01*
X51014404Y27711000D01*
X51062023Y27663380D01*
X51109642Y27568142D01*
X51109642Y27425285D01*
X51062023Y27330047D01*
X51014404Y27282428D01*
X50919166Y27234809D01*
X50538214Y27234809D01*
X51490595Y27663380D02*
X51538214Y27711000D01*
X51633452Y27758619D01*
X51871547Y27758619D01*
X51966785Y27711000D01*
X52014404Y27663380D01*
X52062023Y27568142D01*
X52062023Y27472904D01*
X52014404Y27330047D01*
X51442976Y26758619D01*
X52062023Y26758619D01*
X52919166Y27425285D02*
X52919166Y26758619D01*
X52681071Y27806238D02*
X52442976Y27091952D01*
X53062023Y27091952D01*
%TO.C,D7*%
X51526380Y4341904D02*
X50526380Y4341904D01*
X50526380Y4580000D01*
X50574000Y4722857D01*
X50669238Y4818095D01*
X50764476Y4865714D01*
X50954952Y4913333D01*
X51097809Y4913333D01*
X51288285Y4865714D01*
X51383523Y4818095D01*
X51478761Y4722857D01*
X51526380Y4580000D01*
X51526380Y4341904D01*
X50526380Y5246666D02*
X50526380Y5913333D01*
X51526380Y5484761D01*
%TO.C,C25*%
X50868642Y26025857D02*
X50821023Y25978238D01*
X50678166Y25930619D01*
X50582928Y25930619D01*
X50440071Y25978238D01*
X50344833Y26073476D01*
X50297214Y26168714D01*
X50249595Y26359190D01*
X50249595Y26502047D01*
X50297214Y26692523D01*
X50344833Y26787761D01*
X50440071Y26883000D01*
X50582928Y26930619D01*
X50678166Y26930619D01*
X50821023Y26883000D01*
X50868642Y26835380D01*
X51249595Y26835380D02*
X51297214Y26883000D01*
X51392452Y26930619D01*
X51630547Y26930619D01*
X51725785Y26883000D01*
X51773404Y26835380D01*
X51821023Y26740142D01*
X51821023Y26644904D01*
X51773404Y26502047D01*
X51201976Y25930619D01*
X51821023Y25930619D01*
X52725785Y26930619D02*
X52249595Y26930619D01*
X52201976Y26454428D01*
X52249595Y26502047D01*
X52344833Y26549666D01*
X52582928Y26549666D01*
X52678166Y26502047D01*
X52725785Y26454428D01*
X52773404Y26359190D01*
X52773404Y26121095D01*
X52725785Y26025857D01*
X52678166Y25978238D01*
X52582928Y25930619D01*
X52344833Y25930619D01*
X52249595Y25978238D01*
X52201976Y26025857D01*
%TO.C,D4*%
X66526380Y4341904D02*
X65526380Y4341904D01*
X65526380Y4580000D01*
X65574000Y4722857D01*
X65669238Y4818095D01*
X65764476Y4865714D01*
X65954952Y4913333D01*
X66097809Y4913333D01*
X66288285Y4865714D01*
X66383523Y4818095D01*
X66478761Y4722857D01*
X66526380Y4580000D01*
X66526380Y4341904D01*
X65859714Y5770476D02*
X66526380Y5770476D01*
X65478761Y5532380D02*
X66193047Y5294285D01*
X66193047Y5913333D01*
%TO.C,C22*%
X50868642Y27803857D02*
X50821023Y27756238D01*
X50678166Y27708619D01*
X50582928Y27708619D01*
X50440071Y27756238D01*
X50344833Y27851476D01*
X50297214Y27946714D01*
X50249595Y28137190D01*
X50249595Y28280047D01*
X50297214Y28470523D01*
X50344833Y28565761D01*
X50440071Y28661000D01*
X50582928Y28708619D01*
X50678166Y28708619D01*
X50821023Y28661000D01*
X50868642Y28613380D01*
X51249595Y28613380D02*
X51297214Y28661000D01*
X51392452Y28708619D01*
X51630547Y28708619D01*
X51725785Y28661000D01*
X51773404Y28613380D01*
X51821023Y28518142D01*
X51821023Y28422904D01*
X51773404Y28280047D01*
X51201976Y27708619D01*
X51821023Y27708619D01*
X52201976Y28613380D02*
X52249595Y28661000D01*
X52344833Y28708619D01*
X52582928Y28708619D01*
X52678166Y28661000D01*
X52725785Y28613380D01*
X52773404Y28518142D01*
X52773404Y28422904D01*
X52725785Y28280047D01*
X52154357Y27708619D01*
X52773404Y27708619D01*
%TO.C,D3*%
X71526380Y4341904D02*
X70526380Y4341904D01*
X70526380Y4580000D01*
X70574000Y4722857D01*
X70669238Y4818095D01*
X70764476Y4865714D01*
X70954952Y4913333D01*
X71097809Y4913333D01*
X71288285Y4865714D01*
X71383523Y4818095D01*
X71478761Y4722857D01*
X71526380Y4580000D01*
X71526380Y4341904D01*
X70526380Y5246666D02*
X70526380Y5865714D01*
X70907333Y5532380D01*
X70907333Y5675238D01*
X70954952Y5770476D01*
X71002571Y5818095D01*
X71097809Y5865714D01*
X71335904Y5865714D01*
X71431142Y5818095D01*
X71478761Y5770476D01*
X71526380Y5675238D01*
X71526380Y5389523D01*
X71478761Y5294285D01*
X71431142Y5246666D01*
%TO.C,D10*%
X71526380Y44505714D02*
X70526380Y44505714D01*
X70526380Y44743809D01*
X70574000Y44886666D01*
X70669238Y44981904D01*
X70764476Y45029523D01*
X70954952Y45077142D01*
X71097809Y45077142D01*
X71288285Y45029523D01*
X71383523Y44981904D01*
X71478761Y44886666D01*
X71526380Y44743809D01*
X71526380Y44505714D01*
X71526380Y46029523D02*
X71526380Y45458095D01*
X71526380Y45743809D02*
X70526380Y45743809D01*
X70669238Y45648571D01*
X70764476Y45553333D01*
X70812095Y45458095D01*
X70526380Y46648571D02*
X70526380Y46743809D01*
X70574000Y46839047D01*
X70621619Y46886666D01*
X70716857Y46934285D01*
X70907333Y46981904D01*
X71145428Y46981904D01*
X71335904Y46934285D01*
X71431142Y46886666D01*
X71478761Y46839047D01*
X71526380Y46743809D01*
X71526380Y46648571D01*
X71478761Y46553333D01*
X71431142Y46505714D01*
X71335904Y46458095D01*
X71145428Y46410476D01*
X70907333Y46410476D01*
X70716857Y46458095D01*
X70621619Y46505714D01*
X70574000Y46553333D01*
X70526380Y46648571D01*
%TO.C,R18*%
X50981642Y34378619D02*
X50648309Y34854809D01*
X50410214Y34378619D02*
X50410214Y35378619D01*
X50791166Y35378619D01*
X50886404Y35331000D01*
X50934023Y35283380D01*
X50981642Y35188142D01*
X50981642Y35045285D01*
X50934023Y34950047D01*
X50886404Y34902428D01*
X50791166Y34854809D01*
X50410214Y34854809D01*
X51934023Y34378619D02*
X51362595Y34378619D01*
X51648309Y34378619D02*
X51648309Y35378619D01*
X51553071Y35235761D01*
X51457833Y35140523D01*
X51362595Y35092904D01*
X52505452Y34950047D02*
X52410214Y34997666D01*
X52362595Y35045285D01*
X52314976Y35140523D01*
X52314976Y35188142D01*
X52362595Y35283380D01*
X52410214Y35331000D01*
X52505452Y35378619D01*
X52695928Y35378619D01*
X52791166Y35331000D01*
X52838785Y35283380D01*
X52886404Y35188142D01*
X52886404Y35140523D01*
X52838785Y35045285D01*
X52791166Y34997666D01*
X52695928Y34950047D01*
X52505452Y34950047D01*
X52410214Y34902428D01*
X52362595Y34854809D01*
X52314976Y34759571D01*
X52314976Y34569095D01*
X52362595Y34473857D01*
X52410214Y34426238D01*
X52505452Y34378619D01*
X52695928Y34378619D01*
X52791166Y34426238D01*
X52838785Y34473857D01*
X52886404Y34569095D01*
X52886404Y34759571D01*
X52838785Y34854809D01*
X52791166Y34902428D01*
X52695928Y34950047D01*
%TO.C,BT1*%
X43156285Y49737428D02*
X43299142Y49689809D01*
X43346761Y49642190D01*
X43394380Y49546952D01*
X43394380Y49404095D01*
X43346761Y49308857D01*
X43299142Y49261238D01*
X43203904Y49213619D01*
X42822952Y49213619D01*
X42822952Y50213619D01*
X43156285Y50213619D01*
X43251523Y50166000D01*
X43299142Y50118380D01*
X43346761Y50023142D01*
X43346761Y49927904D01*
X43299142Y49832666D01*
X43251523Y49785047D01*
X43156285Y49737428D01*
X42822952Y49737428D01*
X43680095Y50213619D02*
X44251523Y50213619D01*
X43965809Y49213619D02*
X43965809Y50213619D01*
X45108666Y49213619D02*
X44537238Y49213619D01*
X44822952Y49213619D02*
X44822952Y50213619D01*
X44727714Y50070761D01*
X44632476Y49975523D01*
X44537238Y49927904D01*
%TO.C,J2*%
X76936780Y25587366D02*
X77651066Y25587366D01*
X77793923Y25539747D01*
X77889161Y25444509D01*
X77936780Y25301652D01*
X77936780Y25206414D01*
X77032019Y26015938D02*
X76984400Y26063557D01*
X76936780Y26158795D01*
X76936780Y26396890D01*
X76984400Y26492128D01*
X77032019Y26539747D01*
X77127257Y26587366D01*
X77222495Y26587366D01*
X77365352Y26539747D01*
X77936780Y25968319D01*
X77936780Y26587366D01*
%TO.C,D8*%
X61526380Y4341904D02*
X60526380Y4341904D01*
X60526380Y4580000D01*
X60574000Y4722857D01*
X60669238Y4818095D01*
X60764476Y4865714D01*
X60954952Y4913333D01*
X61097809Y4913333D01*
X61288285Y4865714D01*
X61383523Y4818095D01*
X61478761Y4722857D01*
X61526380Y4580000D01*
X61526380Y4341904D01*
X60954952Y5484761D02*
X60907333Y5389523D01*
X60859714Y5341904D01*
X60764476Y5294285D01*
X60716857Y5294285D01*
X60621619Y5341904D01*
X60574000Y5389523D01*
X60526380Y5484761D01*
X60526380Y5675238D01*
X60574000Y5770476D01*
X60621619Y5818095D01*
X60716857Y5865714D01*
X60764476Y5865714D01*
X60859714Y5818095D01*
X60907333Y5770476D01*
X60954952Y5675238D01*
X60954952Y5484761D01*
X61002571Y5389523D01*
X61050190Y5341904D01*
X61145428Y5294285D01*
X61335904Y5294285D01*
X61431142Y5341904D01*
X61478761Y5389523D01*
X61526380Y5484761D01*
X61526380Y5675238D01*
X61478761Y5770476D01*
X61431142Y5818095D01*
X61335904Y5865714D01*
X61145428Y5865714D01*
X61050190Y5818095D01*
X61002571Y5770476D01*
X60954952Y5675238D01*
D13*
%TO.C,D2*%
X19960000Y9690000D02*
X19960000Y36690000D01*
X19960000Y9690000D02*
X5760000Y9690000D01*
X5760000Y9690000D02*
X5760000Y36690000D01*
X19960000Y36690000D02*
X5760000Y36690000D01*
D11*
%TO.C,J22*%
X44794000Y24064000D02*
X44794000Y16444000D01*
X44794000Y16444000D02*
X39714000Y16444000D01*
X39714000Y16444000D02*
X39714000Y24064000D01*
X39714000Y24064000D02*
X44794000Y24064000D01*
D14*
%TO.C,Y1*%
X45959000Y30482000D02*
X45959000Y36882000D01*
X40909000Y30482000D02*
X40909000Y36882000D01*
X45959000Y36882000D02*
G75*
G03*
X40909000Y36882000I-2525000J0D01*
G01*
X40909000Y30482000D02*
G75*
G03*
X45959000Y30482000I2525000J0D01*
G01*
%TO.C,R17*%
X51515242Y36209500D02*
X51989758Y36209500D01*
X51515242Y35164500D02*
X51989758Y35164500D01*
%TO.C,R25*%
X51515242Y21477500D02*
X51989758Y21477500D01*
X51515242Y20432500D02*
X51989758Y20432500D01*
%TO.C,D9*%
X55389000Y3480000D02*
X55389000Y7365000D01*
X53119000Y7365000D02*
X53119000Y3480000D01*
X55389000Y7365000D02*
X53119000Y7365000D01*
%TO.C,R24*%
X51515242Y26303500D02*
X51989758Y26303500D01*
X51515242Y25258500D02*
X51989758Y25258500D01*
%TO.C,D7*%
X50389000Y7365000D02*
X48119000Y7365000D01*
X50389000Y3480000D02*
X50389000Y7365000D01*
X48119000Y7365000D02*
X48119000Y3480000D01*
D11*
%TO.C,J6*%
X58039000Y46990000D02*
X60325000Y46990000D01*
X57912000Y44577000D02*
X57912000Y46863000D01*
D14*
%TO.C,C25*%
X51652080Y27303000D02*
X51370920Y27303000D01*
X51652080Y28323000D02*
X51370920Y28323000D01*
%TO.C,D4*%
X63119000Y7365000D02*
X63119000Y3480000D01*
X65389000Y7365000D02*
X63119000Y7365000D01*
X65389000Y3480000D02*
X65389000Y7365000D01*
%TO.C,C22*%
X51652080Y29081000D02*
X51370920Y29081000D01*
X51652080Y30101000D02*
X51370920Y30101000D01*
D11*
%TO.C,J5*%
X60452000Y44577000D02*
X60452000Y46863000D01*
X60579000Y46990000D02*
X62865000Y46990000D01*
D14*
%TO.C,D3*%
X68119000Y7365000D02*
X68119000Y3480000D01*
X70389000Y7365000D02*
X68119000Y7365000D01*
X70389000Y3480000D02*
X70389000Y7365000D01*
%TO.C,D10*%
X70389000Y48005000D02*
X68119000Y48005000D01*
X70389000Y44120000D02*
X70389000Y48005000D01*
X68119000Y48005000D02*
X68119000Y44120000D01*
%TO.C,R18*%
X51387242Y33923500D02*
X51861758Y33923500D01*
X51387242Y32878500D02*
X51861758Y32878500D01*
%TO.C,BT1*%
X41942000Y40966000D02*
X45942000Y40966000D01*
X47642000Y48966000D02*
X47642000Y42966000D01*
X40242000Y48966000D02*
X40242000Y42966000D01*
X45942000Y40966000D02*
X47642000Y42966000D01*
X41942000Y40966000D02*
X40242000Y42966000D01*
X41542000Y48966000D02*
G75*
G03*
X46333383Y48961415I2400000J4499997D01*
G01*
X47645723Y48966000D02*
G75*
G03*
X46334627Y48959972I-653723J-400000D01*
G01*
X41542000Y48966000D02*
G75*
G03*
X40236352Y48956673I-650000J-400001D01*
G01*
D11*
%TO.C,J2*%
X55753000Y31102300D02*
X55753000Y30480000D01*
X55753000Y23596600D02*
X55753000Y22885400D01*
X55753000Y33655000D02*
X55753000Y33032700D01*
X55727600Y35534600D02*
X55727600Y40894000D01*
X55765700Y26149300D02*
X55765700Y25438100D01*
X86156800Y41145000D02*
X86156800Y46620000D01*
X85331300Y41145000D02*
X86156800Y41145000D01*
X55753000Y23749000D02*
X55753000Y23596600D01*
X86156800Y46620000D02*
X91186000Y46620000D01*
X61201300Y41145000D02*
X79756000Y41145000D01*
X55753000Y18656300D02*
X55753000Y17919700D01*
X61163200Y12195000D02*
X86004400Y12195000D01*
X55753000Y21082000D02*
X55753000Y20421600D01*
X55753000Y28587700D02*
X55753000Y27940000D01*
X91186000Y46620000D02*
X91186000Y13670000D01*
X55765700Y14351000D02*
X55765700Y12966700D01*
D14*
%TO.C,D8*%
X60389000Y7365000D02*
X58119000Y7365000D01*
X60389000Y3480000D02*
X60389000Y7365000D01*
X58119000Y7365000D02*
X58119000Y3480000D01*
%TD*%
M02*
