%TF.GenerationSoftware,KiCad,Pcbnew,6.0.4-6f826c9f35~116~ubuntu20.04.1*%
%TF.CreationDate,2022-04-14T19:41:17+00:00*%
%TF.ProjectId,USTSIPIN01,55535453-4950-4494-9e30-312e6b696361,rev?*%
%TF.SameCoordinates,PX6384130PY6d19b00*%
%TF.FileFunction,Paste,Bot*%
%TF.FilePolarity,Positive*%
%FSLAX46Y46*%
G04 Gerber Fmt 4.6, Leading zero omitted, Abs format (unit mm)*
G04 Created by KiCad (PCBNEW 6.0.4-6f826c9f35~116~ubuntu20.04.1) date 2022-04-14 19:41:17*
%MOMM*%
%LPD*%
G01*
G04 APERTURE LIST*
G04 Aperture macros list*
%AMRoundRect*
0 Rectangle with rounded corners*
0 $1 Rounding radius*
0 $2 $3 $4 $5 $6 $7 $8 $9 X,Y pos of 4 corners*
0 Add a 4 corners polygon primitive as box body*
4,1,4,$2,$3,$4,$5,$6,$7,$8,$9,$2,$3,0*
0 Add four circle primitives for the rounded corners*
1,1,$1+$1,$2,$3*
1,1,$1+$1,$4,$5*
1,1,$1+$1,$6,$7*
1,1,$1+$1,$8,$9*
0 Add four rect primitives between the rounded corners*
20,1,$1+$1,$2,$3,$4,$5,0*
20,1,$1+$1,$4,$5,$6,$7,0*
20,1,$1+$1,$6,$7,$8,$9,0*
20,1,$1+$1,$8,$9,$2,$3,0*%
G04 Aperture macros list end*
%ADD10R,1.397000X0.889000*%
%ADD11R,2.550160X2.499360*%
%ADD12R,0.889000X1.397000*%
%ADD13R,1.550000X0.600000*%
%ADD14R,0.650000X1.560000*%
%ADD15R,1.560000X0.650000*%
%ADD16R,0.900000X0.800000*%
%ADD17R,1.300000X1.700000*%
%ADD18RoundRect,0.250000X0.325000X0.450000X-0.325000X0.450000X-0.325000X-0.450000X0.325000X-0.450000X0*%
%ADD19R,1.060000X0.650000*%
%ADD20R,1.500000X1.300000*%
%ADD21R,3.000000X0.700000*%
%ADD22R,1.500000X0.550000*%
%ADD23R,0.550000X1.500000*%
%ADD24R,3.800000X1.000000*%
%ADD25R,1.000000X3.800000*%
%ADD26R,3.300000X2.550000*%
%ADD27R,1.300000X1.500000*%
%ADD28R,0.700000X3.000000*%
%ADD29R,1.524000X1.524000*%
%ADD30R,1.270000X2.540000*%
%ADD31R,0.250000X1.100000*%
%ADD32R,1.000000X1.800000*%
G04 APERTURE END LIST*
D10*
%TO.C,C20*%
X9851000Y20192500D03*
X9851000Y18287500D03*
%TD*%
D11*
%TO.C,C1*%
X29774760Y15938000D03*
X24725240Y15938000D03*
%TD*%
D10*
%TO.C,C3*%
X5025000Y28638000D03*
X5025000Y30543000D03*
%TD*%
D12*
%TO.C,C4*%
X29790000Y12763000D03*
X27885000Y12763000D03*
%TD*%
%TO.C,C5*%
X7565000Y23558000D03*
X5660000Y23558000D03*
%TD*%
D10*
%TO.C,C6*%
X19503000Y24447000D03*
X19503000Y22542000D03*
%TD*%
%TO.C,C7*%
X39823000Y23621500D03*
X39823000Y25526500D03*
%TD*%
%TO.C,C8*%
X32965000Y31749500D03*
X32965000Y33654500D03*
%TD*%
%TO.C,C9*%
X39950000Y17525500D03*
X39950000Y15620500D03*
%TD*%
D12*
%TO.C,C10*%
X11057500Y23558000D03*
X9152500Y23558000D03*
%TD*%
D10*
%TO.C,C11*%
X17471000Y24447000D03*
X17471000Y22542000D03*
%TD*%
%TO.C,C12*%
X37537000Y23621500D03*
X37537000Y25526500D03*
%TD*%
%TO.C,C13*%
X35251000Y31749500D03*
X35251000Y33654500D03*
%TD*%
%TO.C,C14*%
X42490000Y17525500D03*
X42490000Y15620500D03*
%TD*%
%TO.C,C15*%
X20011000Y26098000D03*
X20011000Y28003000D03*
%TD*%
%TO.C,C16*%
X22551000Y28130000D03*
X22551000Y26225000D03*
%TD*%
%TO.C,C17*%
X27123000Y27050500D03*
X27123000Y28955500D03*
%TD*%
%TO.C,C18*%
X26869000Y22542000D03*
X26869000Y24447000D03*
%TD*%
%TO.C,C19*%
X37537000Y27431500D03*
X37537000Y29336500D03*
%TD*%
%TO.C,R3*%
X35505000Y21335500D03*
X35505000Y19430500D03*
%TD*%
%TO.C,R4*%
X30679000Y31749500D03*
X30679000Y33654500D03*
%TD*%
D12*
%TO.C,R5*%
X37727500Y17208000D03*
X35822500Y17208000D03*
%TD*%
%TO.C,R6*%
X7565000Y21018000D03*
X5660000Y21018000D03*
%TD*%
D10*
%TO.C,R7*%
X15185000Y31495500D03*
X15185000Y29590500D03*
%TD*%
%TO.C,R8*%
X17725000Y29654000D03*
X17725000Y31559000D03*
%TD*%
%TO.C,R9*%
X17725000Y26098000D03*
X17725000Y28003000D03*
%TD*%
%TO.C,R10*%
X24583000Y26225000D03*
X24583000Y28130000D03*
%TD*%
%TO.C,R11*%
X24583000Y22542000D03*
X24583000Y24447000D03*
%TD*%
%TO.C,R12*%
X42490000Y23240500D03*
X42490000Y25145500D03*
%TD*%
D12*
%TO.C,R13*%
X39378500Y27622000D03*
X41283500Y27622000D03*
%TD*%
D13*
%TO.C,U1*%
X7405000Y25463000D03*
X7405000Y26733000D03*
X7405000Y28003000D03*
X7405000Y29273000D03*
X12805000Y29273000D03*
X12805000Y28003000D03*
X12805000Y26733000D03*
X12805000Y25463000D03*
%TD*%
D14*
%TO.C,U4*%
X39503000Y31860000D03*
X38553000Y31860000D03*
X37603000Y31860000D03*
X37603000Y34560000D03*
X39503000Y34560000D03*
%TD*%
D15*
%TO.C,U5*%
X39870000Y19433000D03*
X39870000Y20383000D03*
X39870000Y21333000D03*
X42570000Y21333000D03*
X42570000Y19433000D03*
%TD*%
D10*
%TO.C,R2*%
X15185000Y25463000D03*
X15185000Y23558000D03*
%TD*%
D13*
%TO.C,U2*%
X29757000Y23431000D03*
X29757000Y24701000D03*
X29757000Y25971000D03*
X29757000Y27241000D03*
X35157000Y27241000D03*
X35157000Y25971000D03*
X35157000Y24701000D03*
X35157000Y23431000D03*
%TD*%
D10*
%TO.C,R1*%
X42109000Y33273500D03*
X42109000Y35178500D03*
%TD*%
%TO.C,C2*%
X20105000Y35184500D03*
X20105000Y33279500D03*
%TD*%
D16*
%TO.C,U3*%
X14201000Y18290000D03*
X14201000Y20190000D03*
X16201000Y19240000D03*
%TD*%
D17*
%TO.C,D1*%
X81192000Y12261000D03*
X84692000Y12261000D03*
%TD*%
D10*
%TO.C,C55*%
X71794000Y17785500D03*
X71794000Y19690500D03*
%TD*%
D12*
%TO.C,R25*%
X66460000Y18738000D03*
X68365000Y18738000D03*
%TD*%
%TO.C,R27*%
X66460000Y20770000D03*
X68365000Y20770000D03*
%TD*%
%TO.C,R28*%
X69571500Y15944000D03*
X71476500Y15944000D03*
%TD*%
D10*
%TO.C,C21*%
X24169000Y35184500D03*
X24169000Y33279500D03*
%TD*%
%TO.C,C22*%
X78652000Y13721500D03*
X78652000Y11816500D03*
%TD*%
D12*
%TO.C,C36*%
X84113000Y17341000D03*
X86018000Y17341000D03*
%TD*%
D10*
%TO.C,F1*%
X78652000Y15182000D03*
X78652000Y17087000D03*
%TD*%
D12*
%TO.C,F2*%
X84113000Y19627000D03*
X86018000Y19627000D03*
%TD*%
D17*
%TO.C,D3*%
X82970000Y14801000D03*
X86470000Y14801000D03*
%TD*%
D18*
%TO.C,L2*%
X67730000Y15944000D03*
X65680000Y15944000D03*
%TD*%
%TO.C,L3*%
X62532000Y19754000D03*
X60482000Y19754000D03*
%TD*%
D19*
%TO.C,U6*%
X66968000Y13785000D03*
X66968000Y12835000D03*
X66968000Y11885000D03*
X64768000Y11885000D03*
X64768000Y13785000D03*
%TD*%
D10*
%TO.C,C50*%
X54776000Y17595000D03*
X54776000Y19500000D03*
%TD*%
%TO.C,C49*%
X62142000Y12070500D03*
X62142000Y13975500D03*
%TD*%
%TO.C,C42*%
X56935000Y17595000D03*
X56935000Y19500000D03*
%TD*%
D20*
%TO.C,C52*%
X51728000Y17261000D03*
D21*
X51728000Y18611000D03*
D20*
X51728000Y19961000D03*
%TD*%
D10*
%TO.C,C38*%
X59856000Y12134000D03*
X59856000Y14039000D03*
%TD*%
D20*
%TO.C,C51*%
X56808000Y12562000D03*
D21*
X56808000Y13912000D03*
D20*
X56808000Y15262000D03*
%TD*%
D10*
%TO.C,C25*%
X63539000Y17785500D03*
X63539000Y15880500D03*
%TD*%
%TO.C,C44*%
X71667000Y28199500D03*
X71667000Y30104500D03*
%TD*%
%TO.C,C40*%
X73953000Y28199500D03*
X73953000Y30104500D03*
%TD*%
D12*
%TO.C,R24*%
X80366500Y23056000D03*
X82271500Y23056000D03*
%TD*%
D10*
%TO.C,C31*%
X72175000Y33470000D03*
X72175000Y31565000D03*
%TD*%
D12*
%TO.C,C27*%
X79985500Y27501000D03*
X81890500Y27501000D03*
%TD*%
D10*
%TO.C,C53*%
X53633000Y15245500D03*
X53633000Y13340500D03*
%TD*%
D19*
%TO.C,U8*%
X61464000Y17910000D03*
X61464000Y16960000D03*
X61464000Y16010000D03*
X59264000Y16010000D03*
X59264000Y17910000D03*
%TD*%
D22*
%TO.C,U10*%
X57335000Y26328000D03*
X57335000Y27128000D03*
X57335000Y27928000D03*
X57335000Y28728000D03*
X57335000Y29528000D03*
X57335000Y30328000D03*
X57335000Y31128000D03*
X57335000Y31928000D03*
X57335000Y32728000D03*
X57335000Y33528000D03*
X57335000Y34328000D03*
D23*
X59035000Y36028000D03*
X59835000Y36028000D03*
X60635000Y36028000D03*
X61435000Y36028000D03*
X62235000Y36028000D03*
X63035000Y36028000D03*
X63835000Y36028000D03*
X64635000Y36028000D03*
X65435000Y36028000D03*
X66235000Y36028000D03*
X67035000Y36028000D03*
D22*
X68735000Y34328000D03*
X68735000Y33528000D03*
X68735000Y32728000D03*
X68735000Y31928000D03*
X68735000Y31128000D03*
X68735000Y30328000D03*
X68735000Y29528000D03*
X68735000Y28728000D03*
X68735000Y27928000D03*
X68735000Y27128000D03*
X68735000Y26328000D03*
D23*
X67035000Y24628000D03*
X66235000Y24628000D03*
X65435000Y24628000D03*
X64635000Y24628000D03*
X63835000Y24628000D03*
X63035000Y24628000D03*
X62235000Y24628000D03*
X61435000Y24628000D03*
X60635000Y24628000D03*
X59835000Y24628000D03*
X59035000Y24628000D03*
%TD*%
D12*
%TO.C,R20*%
X75985000Y28009000D03*
X77890000Y28009000D03*
%TD*%
D24*
%TO.C,M7*%
X77286000Y9967000D03*
X71286000Y40267000D03*
X65286000Y40267000D03*
D25*
X46386000Y34117000D03*
D24*
X53286000Y40267000D03*
X53286000Y9967000D03*
X77286000Y40267000D03*
X83286000Y40267000D03*
D25*
X90186000Y34117000D03*
D26*
X89036000Y39492000D03*
D24*
X83286000Y9967000D03*
X59286000Y40267000D03*
D25*
X46386000Y28117000D03*
D24*
X65286000Y9967000D03*
D25*
X90186000Y28117000D03*
X46386000Y22117000D03*
X90186000Y22117000D03*
X90186000Y16117000D03*
X46386000Y16117000D03*
D24*
X59286000Y9967000D03*
D26*
X47536000Y10742000D03*
X89036000Y10742000D03*
D24*
X71286000Y9967000D03*
D26*
X47536000Y39492000D03*
%TD*%
D27*
%TO.C,C29*%
X76446000Y16071000D03*
D28*
X75096000Y16071000D03*
D27*
X73746000Y16071000D03*
%TD*%
D29*
%TO.C,J22*%
X49950000Y23310000D03*
X52490000Y23310000D03*
X49950000Y25850000D03*
X52490000Y25850000D03*
X49950000Y28390000D03*
X52490000Y28390000D03*
%TD*%
D12*
%TO.C,R23*%
X49442000Y30676000D03*
X51347000Y30676000D03*
%TD*%
%TO.C,C26*%
X78715500Y25342000D03*
X80620500Y25342000D03*
%TD*%
%TO.C,C28*%
X79985500Y29533000D03*
X81890500Y29533000D03*
%TD*%
%TO.C,C30*%
X49632500Y36645000D03*
X51537500Y36645000D03*
%TD*%
%TO.C,C33*%
X55220500Y36645000D03*
X53315500Y36645000D03*
%TD*%
D10*
%TO.C,C34*%
X52998000Y30549000D03*
X52998000Y32454000D03*
%TD*%
D12*
%TO.C,C35*%
X64237500Y21913000D03*
X62332500Y21913000D03*
%TD*%
%TO.C,C39*%
X62967500Y38169000D03*
X64872500Y38169000D03*
%TD*%
%TO.C,C43*%
X79985500Y31692000D03*
X81890500Y31692000D03*
%TD*%
D10*
%TO.C,C47*%
X76747000Y23119500D03*
X76747000Y21214500D03*
%TD*%
D30*
%TO.C,L1*%
X77382000Y32581000D03*
X74334000Y32581000D03*
%TD*%
D12*
%TO.C,R21*%
X75032500Y25596000D03*
X76937500Y25596000D03*
%TD*%
D31*
%TO.C,U11*%
X73175000Y21414000D03*
X72675000Y21414000D03*
X72175000Y21414000D03*
X71675000Y21414000D03*
X71175000Y21414000D03*
X71175000Y25714000D03*
X71675000Y25714000D03*
X72175000Y25714000D03*
X72675000Y25714000D03*
X73175000Y25714000D03*
%TD*%
D32*
%TO.C,Y2*%
X73953000Y19246000D03*
X76453000Y19246000D03*
%TD*%
D10*
%TO.C,C23*%
X22137000Y35184500D03*
X22137000Y33279500D03*
%TD*%
%TO.C,C24*%
X17819000Y35248000D03*
X17819000Y33343000D03*
%TD*%
%TO.C,C32*%
X69254000Y13785000D03*
X69254000Y11880000D03*
%TD*%
D27*
%TO.C,C45*%
X76446000Y12515000D03*
D28*
X75096000Y12515000D03*
D27*
X73746000Y12515000D03*
%TD*%
D10*
%TO.C,C48*%
X71667000Y13848500D03*
X71667000Y11943500D03*
%TD*%
%TO.C,C54*%
X48680000Y19436500D03*
X48680000Y17531500D03*
%TD*%
D12*
%TO.C,R15*%
X25820000Y37788000D03*
X27725000Y37788000D03*
%TD*%
%TO.C,R19*%
X22010000Y37788000D03*
X23915000Y37788000D03*
%TD*%
%TO.C,R22*%
X18200000Y37788000D03*
X20105000Y37788000D03*
%TD*%
D24*
%TO.C,M6*%
X25659000Y10028000D03*
X7659000Y10028000D03*
X37659000Y40328000D03*
D26*
X43409000Y10803000D03*
D25*
X759000Y16178000D03*
X44559000Y22178000D03*
D24*
X19659000Y10028000D03*
X7659000Y40328000D03*
D25*
X44559000Y16178000D03*
D24*
X31659000Y10028000D03*
D25*
X44559000Y34178000D03*
D24*
X19659000Y40328000D03*
X13659000Y10028000D03*
D26*
X1909000Y39553000D03*
D25*
X759000Y22178000D03*
X759000Y28178000D03*
D24*
X13659000Y40328000D03*
D25*
X44559000Y28178000D03*
D26*
X43409000Y39553000D03*
D24*
X37659000Y10028000D03*
X31659000Y40328000D03*
D25*
X759000Y34178000D03*
D26*
X1909000Y10803000D03*
D24*
X25659000Y40328000D03*
%TD*%
M02*
