M48
; DRILL file {KiCad 6.0.4-6f826c9f35~116~ubuntu20.04.1} date Sat May 21 20:21:02 2022
; FORMAT={-:-/ absolute / metric / decimal}
; #@! TF.CreationDate,2022-05-21T20:21:02+00:00
; #@! TF.GenerationSoftware,Kicad,Pcbnew,6.0.4-6f826c9f35~116~ubuntu20.04.1
; #@! TF.FileFunction,Plated,1,4,PTH
FMAT,2
METRIC
; #@! TA.AperFunction,Plated,PTH,ViaDrill
T1C0.400
; #@! TA.AperFunction,Plated,PTH,ComponentDrill
T2C0.600
; #@! TA.AperFunction,Plated,PTH,ComponentDrill
T3C0.762
; #@! TA.AperFunction,Plated,PTH,ComponentDrill
T4C0.800
; #@! TA.AperFunction,Plated,PTH,ComponentDrill
T5C0.889
; #@! TA.AperFunction,Plated,PTH,ComponentDrill
T6C3.000
%
G90
G05
T1
X2.54Y33.02
X2.54Y29.845
X2.54Y27.94
X2.54Y26.035
X2.54Y24.13
X2.54Y22.225
X2.54Y20.955
X3.175Y19.685
X3.302Y31.648
X4.064Y34.544
X4.445Y18.415
X4.623Y16.256
X4.986Y26.918
X4.986Y25.648
X5.08Y35.56
X5.537Y34.29
X5.715Y33.02
X6.096Y36.576
X6.985Y31.75
X7.62Y33.02
X9.304Y22.092
X9.957Y14.224
X10.319Y30.201
X10.32Y28.95
X10.32Y27.68
X10.32Y25.775
X10.668Y21.965
X12.225Y21.965
X12.86Y23.87
X13.462Y21.59
X14.732Y12.344
X15.138Y25.552
X16.612Y25.502
X18.186Y25.502
X18.288Y29.921
X18.999Y38.71
X19.101Y19.253
X19.152Y17.374
X19.253Y15.545
X19.456Y29.972
X19.914Y25.552
X19.914Y24.13
X20.625Y29.972
X22.352Y39.065
X23.368Y16.053
X23.368Y14.275
X23.622Y21.996
X23.724Y17.475
X24.339Y18.391
X24.587Y21.996
X24.74Y17.475
X26.365Y30.429
X26.365Y23.216
X27.686Y10.922
X27.94Y26.924
X28.969Y13.018
X29.21Y36.068
X30.226Y18.339
X30.25Y15.603
X30.328Y16.967
X30.48Y14.63
X31.191Y35.255
X32.512Y36.83
X36.83Y38.608
X42.672Y24.13
X44.196Y42.672
X44.196Y23.114
X45.72Y37.865
X45.974Y38.862
X46.482Y39.878
X46.99Y24.13
X46.99Y22.606
X47.244Y28.956
X48.006Y25.146
X48.26Y29.718
X48.26Y8.382
X48.768Y41.402
X48.768Y16.51
X48.805Y24.391
X50.038Y11.684
X50.292Y44.45
X50.546Y42.926
X50.8Y18.542
X51.308Y38.354
X51.308Y33.782
X52.049Y43.186
X52.324Y33.02
X52.832Y38.354
X53.014Y42.926
X53.314Y8.154
X53.34Y25.654
X54.61Y11.43
X55.118Y47.752
X56.439Y44.201
X56.535Y35.646
X57.15Y32.004
X57.15Y27.686
X57.404Y43.942
X57.441Y36.068
X58.166Y8.382
X58.441Y36.068
X59.436Y14.732
X60.198Y17.272
X60.96Y18.415
X62.23Y42.164
X63.5Y42.164
X64.262Y46.228
X64.262Y7.874
X64.457Y35.052
X65.278Y11.43
X66.04Y40.894
X66.053Y29.985
X67.056Y34.29
X67.31Y46.99
X67.31Y37.338
X68.326Y19.304
X68.58Y34.29
X69.088Y18.542
X69.088Y16.51
X69.342Y11.684
X69.342Y7.62
X69.596Y35.052
X70.866Y43.434
X70.866Y20.066
X71.628Y18.288
X71.628Y14.986
X72.07Y23.302
X73.152Y12.7
X74.93Y33.02
X75.4Y14.299
X76.661Y20.621
X77.47Y19.209
X77.724Y38.1
X77.978Y17.526
X78.486Y40.769
X78.815Y23.801
X79.836Y23.796
X81.026Y12.7
X81.745Y37.295
X81.788Y7.112
X81.797Y34.027
X82.042Y17.526
X82.042Y4.318
X82.084Y13.504
X82.804Y27.178
X84.358Y35.814
X84.369Y38.427
X84.582Y37.084
X88.355Y41.91
X89.154Y43.18
T3
X10.36Y34.19
X15.36Y34.19
T4
X41.91Y36.63
X41.91Y31.75
T5
X59.182Y45.72
X61.722Y45.72
T6
X5.08Y45.72
X5.08Y5.08
X76.2Y45.72
X76.2Y5.08
T2
G00X84.762Y11.062
M15
G01X83.662Y11.062
M16
G05
G00X84.762Y2.422
M15
G01X83.662Y2.422
M16
G05
G00X88.792Y11.062
M15
G01X87.992Y11.062
M16
G05
G00X88.792Y2.422
M15
G01X87.992Y2.422
M16
G05
T0
M30
