M48
; DRILL file {KiCad 6.0.4-6f826c9f35~116~ubuntu20.04.1} date Wed May  4 08:24:15 2022
; FORMAT={-:-/ absolute / metric / decimal}
; #@! TF.CreationDate,2022-05-04T08:24:15+00:00
; #@! TF.GenerationSoftware,Kicad,Pcbnew,6.0.4-6f826c9f35~116~ubuntu20.04.1
; #@! TF.FileFunction,Plated,1,2,PTH
FMAT,2
METRIC
; #@! TA.AperFunction,Plated,PTH,ViaDrill
T1C0.400
; #@! TA.AperFunction,Plated,PTH,ComponentDrill
T2C0.600
; #@! TA.AperFunction,Plated,PTH,ComponentDrill
T3C0.762
; #@! TA.AperFunction,Plated,PTH,ComponentDrill
T4C0.800
; #@! TA.AperFunction,Plated,PTH,ComponentDrill
T5C3.000
%
G90
G05
T1
X2.54Y33.02
X2.54Y31.75
X2.54Y29.845
X2.54Y27.94
X2.54Y26.035
X2.54Y24.13
X2.54Y22.225
X2.54Y20.955
X3.175Y19.685
X4.064Y34.544
X4.445Y18.415
X4.986Y26.918
X4.986Y25.648
X5.08Y35.56
X5.715Y33.02
X5.715Y17.78
X6.096Y36.576
X6.985Y31.75
X7.112Y37.592
X7.62Y33.02
X7.62Y17.78
X8.255Y35.56
X8.255Y34.29
X8.636Y38.608
X8.89Y17.145
X9.304Y22.092
X10.16Y38.608
X10.16Y36.195
X10.319Y30.201
X10.32Y28.95
X10.32Y27.68
X10.32Y25.775
X10.668Y21.965
X10.795Y17.145
X11.43Y36.195
X11.684Y38.608
X12.065Y34.925
X12.225Y21.965
X12.7Y17.145
X12.86Y23.87
X13.208Y38.608
X13.97Y34.925
X13.97Y17.145
X14.224Y37.592
X14.605Y36.195
X14.732Y22.352
X15.24Y38.1
X15.24Y15.875
X16.51Y38.735
X16.51Y37.465
X17.145Y15.875
X17.78Y21.59
X17.78Y20.32
X17.78Y19.05
X18.415Y15.875
X19.05Y21.59
X19.05Y20.32
X19.685Y30.48
X19.685Y16.51
X20.32Y21.59
X20.955Y30.48
X20.955Y17.78
X21.336Y24.892
X21.336Y22.86
X21.59Y21.59
X22.225Y30.48
X22.225Y18.415
X22.86Y21.59
X23.368Y29.972
X23.495Y18.415
X24.13Y21.59
X24.765Y32.004
X24.765Y18.415
X25.4Y21.59
X26.035Y35.56
X26.035Y33.655
X26.035Y30.988
X26.035Y18.415
X26.67Y21.59
X26.67Y13.97
X26.67Y12.7
X27.305Y36.195
X27.305Y31.75
X27.305Y30.48
X27.305Y17.78
X27.94Y33.02
X27.94Y16.51
X27.94Y15.24
X28.575Y36.195
X28.575Y34.29
X28.575Y11.43
X28.862Y32.506
X28.862Y20.06
X29.845Y35.56
X29.862Y28.823
X29.972Y21.844
X30.48Y20.32
X30.48Y19.05
X30.64Y30.22
X30.767Y28.823
X31.115Y35.56
X31.115Y22.225
X31.496Y25.527
X31.75Y20.32
X31.75Y19.05
X31.91Y30.22
X32.385Y35.56
X32.385Y21.59
X32.512Y17.272
X32.766Y12.192
X33.02Y13.716
X33.218Y27.68
X33.428Y28.702
X33.434Y24.632
X33.655Y35.56
X33.655Y19.685
X34.036Y17.272
X34.257Y26.365
X34.29Y22.225
X34.29Y18.415
X34.29Y12.192
X34.45Y29.42
X34.925Y35.56
X35.814Y12.192
X36.195Y37.465
X36.195Y36.195
X37.338Y12.192
X37.465Y38.1
X37.465Y15.875
X37.625Y21.965
X38.749Y37.566
X38.768Y25.902
X38.895Y30.22
X38.895Y21.965
X39.116Y36.576
X39.116Y12.192
X39.53Y29.585
X40.005Y37.465
X40.64Y12.192
X40.836Y35.248
X40.894Y34.036
X40.894Y32.512
X40.894Y31.496
X41.656Y30.48
X42.705Y22.86
X42.926Y30.48
X43.18Y31.75
X43.688Y29.464
X49.657Y32.512
X50.038Y21.717
X50.038Y13.716
X50.038Y12.446
X50.8Y39.116
X51.054Y32.512
X51.308Y13.716
X51.308Y12.446
X51.435Y24.765
X52.324Y39.116
X52.578Y13.716
X52.578Y12.446
X53.848Y39.116
X53.848Y20.32
X54.229Y28.829
X55.372Y39.116
X55.372Y26.416
X55.867Y24.816
X56.896Y39.116
X57.912Y24.892
X58.42Y39.116
X58.42Y15.367
X58.928Y20.32
X59.182Y15.367
X59.69Y29.21
X59.944Y39.116
X59.944Y26.416
X60.325Y34.671
X61.468Y39.116
X61.468Y26.924
X61.976Y34.671
X62.702Y32.22
X62.865Y31.115
X62.992Y26.924
X63.754Y33.02
X64.389Y20.574
X64.389Y19.558
X65.405Y27.94
X65.747Y29.387
X66.548Y31.496
X67.056Y34.036
X67.056Y29.21
X67.183Y38.735
X68.453Y38.735
X69.596Y39.243
X69.596Y24.892
X70.104Y22.352
X70.612Y39.243
X71.374Y35.306
X71.375Y27.336
X71.882Y24.638
X72.067Y36.192
X72.136Y39.243
X73.66Y39.243
X75.184Y39.243
X75.311Y14.605
X76.2Y33.02
X76.2Y31.496
X76.708Y39.243
X78.232Y39.243
X78.232Y19.304
X78.74Y31.115
X79.248Y33.528
X79.248Y21.844
X79.248Y20.32
X87.884Y13.716
X87.884Y12.192
X88.392Y16.764
T3
X10.36Y34.19
X15.36Y34.19
T4
X50.292Y34.544
X55.172Y34.544
T5
X5.08Y45.72
X5.08Y5.08
X63.5Y5.08
X71.12Y45.72
T2
G00X85.27Y44.96
M15
G01X84.17Y44.96
M16
G05
G00X85.27Y36.32
M15
G01X84.17Y36.32
M16
G05
G00X89.3Y44.96
M15
G01X88.5Y44.96
M16
G05
G00X89.3Y36.32
M15
G01X88.5Y36.32
M16
G05
T0
M30
