%TF.GenerationSoftware,KiCad,Pcbnew,6.0.4-6f826c9f35~116~ubuntu20.04.1*%
%TF.CreationDate,2022-05-21T18:43:43+00:00*%
%TF.ProjectId,USTSIPIN02A,55535453-4950-4494-9e30-32412e6b6963,REV*%
%TF.SameCoordinates,Original*%
%TF.FileFunction,Copper,L2,Inr*%
%TF.FilePolarity,Positive*%
%FSLAX46Y46*%
G04 Gerber Fmt 4.6, Leading zero omitted, Abs format (unit mm)*
G04 Created by KiCad (PCBNEW 6.0.4-6f826c9f35~116~ubuntu20.04.1) date 2022-05-21 18:43:43*
%MOMM*%
%LPD*%
G01*
G04 APERTURE LIST*
%TA.AperFunction,ComponentPad*%
%ADD10C,6.000000*%
%TD*%
%TA.AperFunction,ComponentPad*%
%ADD11C,1.524000*%
%TD*%
%TA.AperFunction,ComponentPad*%
%ADD12C,1.500000*%
%TD*%
%TA.AperFunction,ComponentPad*%
%ADD13R,1.524000X1.524000*%
%TD*%
%TA.AperFunction,ComponentPad*%
%ADD14O,2.000000X1.000000*%
%TD*%
%TA.AperFunction,ComponentPad*%
%ADD15O,2.100000X1.050000*%
%TD*%
%TA.AperFunction,ViaPad*%
%ADD16C,0.800000*%
%TD*%
%TA.AperFunction,Conductor*%
%ADD17C,0.400000*%
%TD*%
G04 APERTURE END LIST*
D10*
%TO.N,GND*%
%TO.C,M2*%
X76200000Y45720000D03*
%TD*%
%TO.N,GND*%
%TO.C,M3*%
X5080000Y45720000D03*
%TD*%
%TO.N,GND*%
%TO.C,M4*%
X5080000Y5080000D03*
%TD*%
D11*
%TO.N,/K*%
%TO.C,D2*%
X15360000Y34190000D03*
%TO.N,/A*%
X10360000Y34190000D03*
%TD*%
D10*
%TO.N,GND*%
%TO.C,M1*%
X76200000Y5080000D03*
%TD*%
D12*
%TO.N,Net-(C30-Pad1)*%
%TO.C,Y1*%
X41910000Y31750000D03*
%TO.N,Net-(C33-Pad1)*%
X41910000Y36630000D03*
%TD*%
D13*
%TO.N,/cpu/PC4*%
%TO.C,J6*%
X61722000Y45720000D03*
%TD*%
%TO.N,/cpu/PC3*%
%TO.C,J5*%
X59182000Y45720000D03*
%TD*%
D14*
%TO.N,GND*%
%TO.C,J4*%
X88392000Y11062500D03*
X88392000Y2422500D03*
D15*
X84212000Y11062500D03*
X84212000Y2422500D03*
%TD*%
D16*
%TO.N,GND*%
X14732000Y12344400D03*
X19913600Y24130000D03*
X19913600Y25552400D03*
X9956800Y14224000D03*
X4622800Y16256000D03*
X4445000Y18415000D03*
X3175000Y19685000D03*
X2540000Y20955000D03*
X2540000Y22225000D03*
X2540000Y24130000D03*
X2540000Y26035000D03*
X2540000Y27940000D03*
X2540000Y29845000D03*
X3302000Y31648400D03*
X2540000Y33020000D03*
X5715000Y33020000D03*
X6985000Y31750000D03*
X7620000Y33020000D03*
X5537200Y34290000D03*
X5080000Y35560000D03*
X18288000Y29921200D03*
X19456400Y29972000D03*
X20624800Y29972000D03*
X6096000Y36576000D03*
X10320000Y27680000D03*
X15138400Y25552400D03*
X24587200Y21996400D03*
X22352000Y39065200D03*
X4064000Y34544000D03*
X10319457Y30200565D03*
X29870400Y18338800D03*
X30480000Y14630400D03*
X23368000Y16052800D03*
X4986000Y26918000D03*
X9304000Y22092000D03*
X13462000Y21590000D03*
X10668000Y21965000D03*
X19253200Y15544800D03*
X12225000Y21965000D03*
X18186400Y25501600D03*
X19151600Y17373600D03*
X30327600Y16967200D03*
X12860000Y23870000D03*
X19100800Y19253200D03*
X16611600Y25501600D03*
X4986000Y25648000D03*
X24739600Y17475200D03*
X10320000Y28950000D03*
X23622000Y21996400D03*
X10320000Y25775000D03*
X23368000Y14274800D03*
X23723600Y17475200D03*
X18999200Y38709600D03*
%TO.N,Net-(R13-Pad2)*%
X26365200Y30429200D03*
X26365200Y23215600D03*
%TO.N,PA1*%
X28143200Y11176000D03*
X28651200Y26924000D03*
%TO.N,POWER_ANALOG_3V3*%
X31191200Y35255200D03*
X28969000Y13017800D03*
%TO.N,Net-(D3-Pad1)*%
X69342000Y7620000D03*
%TO.N,Net-(D4-Pad1)*%
X64262000Y7874000D03*
%TO.N,Net-(D7-Pad1)*%
X48260000Y8382000D03*
%TO.N,Net-(D8-Pad1)*%
X58166000Y8382000D03*
%TO.N,/power/D+*%
X81788000Y7112000D03*
X81026000Y12700000D03*
%TO.N,Net-(D9-Pad1)*%
X53314168Y8153832D03*
%TO.N,/power/VBUS*%
X73152000Y12700000D03*
X82083519Y13503519D03*
X82042000Y17526000D03*
X82804000Y27178000D03*
%TD*%
D17*
%TO.N,Net-(R13-Pad2)*%
X26365200Y23215600D02*
X26365200Y30429200D01*
%TO.N,PA1*%
X28651200Y26924000D02*
X28143200Y26416000D01*
X28143200Y26416000D02*
X28143200Y11176000D01*
%TO.N,POWER_ANALOG_3V3*%
X29450711Y33514711D02*
X31191200Y35255200D01*
X29450711Y13499511D02*
X29450711Y33514711D01*
X28969000Y13017800D02*
X29450711Y13499511D01*
%TD*%
M02*
