%TF.GenerationSoftware,KiCad,Pcbnew,6.0.4-6f826c9f35~116~ubuntu20.04.1*%
%TF.CreationDate,2022-05-04T09:33:00+00:00*%
%TF.ProjectId,USTSIPIN02A,55535453-4950-4494-9e30-32412e6b6963,REV*%
%TF.SameCoordinates,Original*%
%TF.FileFunction,Copper,L1,Top*%
%TF.FilePolarity,Positive*%
%FSLAX46Y46*%
G04 Gerber Fmt 4.6, Leading zero omitted, Abs format (unit mm)*
G04 Created by KiCad (PCBNEW 6.0.4-6f826c9f35~116~ubuntu20.04.1) date 2022-05-04 09:33:00*
%MOMM*%
%LPD*%
G01*
G04 APERTURE LIST*
G04 Aperture macros list*
%AMRoundRect*
0 Rectangle with rounded corners*
0 $1 Rounding radius*
0 $2 $3 $4 $5 $6 $7 $8 $9 X,Y pos of 4 corners*
0 Add a 4 corners polygon primitive as box body*
4,1,4,$2,$3,$4,$5,$6,$7,$8,$9,$2,$3,0*
0 Add four circle primitives for the rounded corners*
1,1,$1+$1,$2,$3*
1,1,$1+$1,$4,$5*
1,1,$1+$1,$6,$7*
1,1,$1+$1,$8,$9*
0 Add four rect primitives between the rounded corners*
20,1,$1+$1,$2,$3,$4,$5,0*
20,1,$1+$1,$4,$5,$6,$7,0*
20,1,$1+$1,$6,$7,$8,$9,0*
20,1,$1+$1,$8,$9,$2,$3,0*%
%AMFreePoly0*
4,1,22,0.500000,-0.750000,0.000000,-0.750000,0.000000,-0.745033,-0.079941,-0.743568,-0.215256,-0.701293,-0.333266,-0.622738,-0.424486,-0.514219,-0.481581,-0.384460,-0.499164,-0.250000,-0.500000,-0.250000,-0.500000,0.250000,-0.499164,0.250000,-0.499963,0.256109,-0.478152,0.396186,-0.417904,0.524511,-0.324060,0.630769,-0.204165,0.706417,-0.067858,0.745374,0.000000,0.744959,0.000000,0.750000,
0.500000,0.750000,0.500000,-0.750000,0.500000,-0.750000,$1*%
%AMFreePoly1*
4,1,20,0.000000,0.744959,0.073905,0.744508,0.209726,0.703889,0.328688,0.626782,0.421226,0.519385,0.479903,0.390333,0.500000,0.250000,0.500000,-0.250000,0.499851,-0.262216,0.476331,-0.402017,0.414519,-0.529596,0.319384,-0.634700,0.198574,-0.708877,0.061801,-0.746166,0.000000,-0.745033,0.000000,-0.750000,-0.500000,-0.750000,-0.500000,0.750000,0.000000,0.750000,0.000000,0.744959,
0.000000,0.744959,$1*%
G04 Aperture macros list end*
%TA.AperFunction,ComponentPad*%
%ADD10C,6.000000*%
%TD*%
%TA.AperFunction,ComponentPad*%
%ADD11C,1.524000*%
%TD*%
%TA.AperFunction,ComponentPad*%
%ADD12C,1.500000*%
%TD*%
%TA.AperFunction,SMDPad,CuDef*%
%ADD13RoundRect,0.150000X-0.587500X-0.150000X0.587500X-0.150000X0.587500X0.150000X-0.587500X0.150000X0*%
%TD*%
%TA.AperFunction,SMDPad,CuDef*%
%ADD14R,1.000000X3.800000*%
%TD*%
%TA.AperFunction,SMDPad,CuDef*%
%ADD15R,3.800000X1.000000*%
%TD*%
%TA.AperFunction,SMDPad,CuDef*%
%ADD16R,3.300000X2.550000*%
%TD*%
%TA.AperFunction,SMDPad,CuDef*%
%ADD17RoundRect,0.200000X-0.200000X-0.275000X0.200000X-0.275000X0.200000X0.275000X-0.200000X0.275000X0*%
%TD*%
%TA.AperFunction,SMDPad,CuDef*%
%ADD18R,0.950000X1.500000*%
%TD*%
%TA.AperFunction,ComponentPad*%
%ADD19R,1.524000X1.524000*%
%TD*%
%TA.AperFunction,SMDPad,CuDef*%
%ADD20FreePoly0,0.000000*%
%TD*%
%TA.AperFunction,SMDPad,CuDef*%
%ADD21FreePoly1,0.000000*%
%TD*%
%TA.AperFunction,SMDPad,CuDef*%
%ADD22R,1.600000X1.200000*%
%TD*%
%TA.AperFunction,SMDPad,CuDef*%
%ADD23R,5.000000X2.500000*%
%TD*%
%TA.AperFunction,ComponentPad*%
%ADD24O,2.000000X1.000000*%
%TD*%
%TA.AperFunction,ComponentPad*%
%ADD25O,2.100000X1.050000*%
%TD*%
%TA.AperFunction,ViaPad*%
%ADD26C,0.800000*%
%TD*%
%TA.AperFunction,Conductor*%
%ADD27C,0.250000*%
%TD*%
%TA.AperFunction,Conductor*%
%ADD28C,0.400000*%
%TD*%
%TA.AperFunction,Conductor*%
%ADD29C,0.800000*%
%TD*%
G04 APERTURE END LIST*
D10*
%TO.P,M2,1*%
%TO.N,GND*%
X71120000Y45720000D03*
%TD*%
%TO.P,M3,1*%
%TO.N,GND*%
X5080000Y45720000D03*
%TD*%
%TO.P,M4,1*%
%TO.N,GND*%
X5080000Y5080000D03*
%TD*%
D11*
%TO.P,D2,1,K*%
%TO.N,/K*%
X15360000Y34190000D03*
%TO.P,D2,2,A*%
%TO.N,/A*%
X10360000Y34190000D03*
%TD*%
D10*
%TO.P,M1,1*%
%TO.N,GND*%
X63500000Y5080000D03*
%TD*%
D12*
%TO.P,Y1,1,1*%
%TO.N,Net-(C30-Pad1)*%
X50292000Y34544000D03*
%TO.P,Y1,2,2*%
%TO.N,Net-(C33-Pad1)*%
X55172000Y34544000D03*
%TD*%
D13*
%TO.P,Q2,1,B*%
%TO.N,Net-(Q2-Pad1)*%
X116105700Y8874800D03*
%TO.P,Q2,2,E*%
%TO.N,GND*%
X116105700Y6974800D03*
%TO.P,Q2,3,C*%
%TO.N,Net-(Q2-Pad3)*%
X117980700Y7924800D03*
%TD*%
D14*
%TO.P,M5,1*%
%TO.N,GND*%
X73212000Y129979400D03*
X29412000Y129979400D03*
D15*
X36312000Y136129400D03*
D16*
X72062000Y106604400D03*
D15*
X60312000Y136129400D03*
D14*
X73212000Y123979400D03*
D15*
X54312000Y136129400D03*
D14*
X29412000Y117979400D03*
X73212000Y117979400D03*
D15*
X36312000Y105829400D03*
X60312000Y105829400D03*
D16*
X72062000Y135354400D03*
D15*
X48312000Y136129400D03*
D16*
X30562000Y106604400D03*
X30562000Y135354400D03*
D15*
X48312000Y105829400D03*
X42312000Y136129400D03*
D14*
X73212000Y111979400D03*
D15*
X66312000Y136129400D03*
X42312000Y105829400D03*
D14*
X29412000Y111979400D03*
D15*
X54312000Y105829400D03*
X66312000Y105829400D03*
D14*
X29412000Y123979400D03*
%TD*%
D17*
%TO.P,R37,1*%
%TO.N,/cpu/PC7_D3*%
X115032000Y125634400D03*
%TO.P,R37,2*%
%TO.N,Net-(Q3-Pad1)*%
X116682000Y125634400D03*
%TD*%
D18*
%TO.P,D9,1,K*%
%TO.N,Net-(D9-Pad1)*%
X119016600Y131392000D03*
%TO.P,D9,2,A*%
%TO.N,Vin*%
X114866600Y131392000D03*
%TD*%
D17*
%TO.P,R42,1*%
%TO.N,/cpu/PC6_D2*%
X110888200Y4444800D03*
%TO.P,R42,2*%
%TO.N,Net-(Q4-Pad1)*%
X112538200Y4444800D03*
%TD*%
%TO.P,R44,1*%
%TO.N,Net-(Q4-Pad3)*%
X118908200Y4444800D03*
%TO.P,R44,2*%
%TO.N,Net-(D9-Pad1)*%
X120558200Y4444800D03*
%TD*%
D18*
%TO.P,D7,1,K*%
%TO.N,Net-(D7-Pad1)*%
X119016600Y135382000D03*
%TO.P,D7,2,A*%
%TO.N,Vin*%
X114866600Y135382000D03*
%TD*%
D19*
%TO.P,J6,1*%
%TO.N,/cpu/PC4*%
X45941600Y45720000D03*
%TD*%
D17*
%TO.P,R34,1*%
%TO.N,TX0*%
X115032000Y128144400D03*
%TO.P,R34,2*%
%TO.N,Net-(J3-Pad3)*%
X116682000Y128144400D03*
%TD*%
D15*
%TO.P,M6,1*%
%TO.N,GND*%
X2262000Y105829400D03*
D14*
X-16638000Y117979400D03*
D15*
X-3738000Y105829400D03*
X8262000Y105829400D03*
X-3738000Y136129400D03*
X20262000Y105829400D03*
D14*
X27162000Y111979400D03*
X-16638000Y123979400D03*
X27162000Y129979400D03*
D16*
X-15488000Y135354400D03*
D15*
X14262000Y136129400D03*
X8262000Y136129400D03*
D14*
X27162000Y117979400D03*
X-16638000Y129979400D03*
D16*
X26012000Y106604400D03*
D15*
X-9738000Y105829400D03*
D16*
X26012000Y135354400D03*
X-15488000Y106604400D03*
D15*
X20262000Y136129400D03*
X2262000Y136129400D03*
D14*
X27162000Y123979400D03*
X-16638000Y111979400D03*
D15*
X14262000Y105829400D03*
X-9738000Y136129400D03*
%TD*%
D17*
%TO.P,R43,1*%
%TO.N,Net-(Q3-Pad3)*%
X114898200Y4444800D03*
%TO.P,R43,2*%
%TO.N,Net-(D8-Pad1)*%
X116548200Y4444800D03*
%TD*%
D20*
%TO.P,JP1,1,A*%
%TO.N,Net-(JP1-Pad1)*%
X125384800Y123748800D03*
D21*
%TO.P,JP1,2,B*%
%TO.N,Net-(J3-Pad5)*%
X126684800Y123748800D03*
%TD*%
D19*
%TO.P,J5,1*%
%TO.N,/cpu/PC3*%
X49631600Y45720000D03*
%TD*%
D13*
%TO.P,Q3,1,B*%
%TO.N,Net-(Q3-Pad1)*%
X111215700Y8874800D03*
%TO.P,Q3,2,E*%
%TO.N,GND*%
X111215700Y6974800D03*
%TO.P,Q3,3,C*%
%TO.N,Net-(Q3-Pad3)*%
X113090700Y7924800D03*
%TD*%
D18*
%TO.P,D10,1,K*%
%TO.N,Net-(D10-Pad1)*%
X119016600Y100832000D03*
%TO.P,D10,2,A*%
%TO.N,+3V3*%
X114866600Y100832000D03*
%TD*%
D17*
%TO.P,R36,1*%
%TO.N,Net-(Q2-Pad3)*%
X125212000Y132134400D03*
%TO.P,R36,2*%
%TO.N,Net-(D7-Pad1)*%
X126862000Y132134400D03*
%TD*%
D13*
%TO.P,Q4,1,B*%
%TO.N,Net-(Q4-Pad1)*%
X120995700Y8874800D03*
%TO.P,Q4,2,E*%
%TO.N,GND*%
X120995700Y6974800D03*
%TO.P,Q4,3,C*%
%TO.N,Net-(Q4-Pad3)*%
X122870700Y7924800D03*
%TD*%
D17*
%TO.P,R32,1*%
%TO.N,RST#*%
X119042000Y128144400D03*
%TO.P,R32,2*%
%TO.N,Net-(JP1-Pad1)*%
X120692000Y128144400D03*
%TD*%
D22*
%TO.P,J2,1,CD/DAT3*%
%TO.N,Net-(J2-Pad1)*%
X52700000Y30790000D03*
%TO.P,J2,2,CMD*%
%TO.N,Net-(J2-Pad2)*%
X52700000Y28290000D03*
%TO.P,J2,3,VSS*%
%TO.N,GND*%
X52700000Y25790000D03*
%TO.P,J2,4,VDD*%
%TO.N,/cpu/SD_VDD*%
X52700000Y23290000D03*
%TO.P,J2,5,CLK*%
%TO.N,Net-(J2-Pad5)*%
X52700000Y20790000D03*
%TO.P,J2,6,VSS*%
%TO.N,GND*%
X52700000Y18290000D03*
%TO.P,J2,7,DAT0*%
%TO.N,Net-(J2-Pad7)*%
X52700000Y15860000D03*
%TO.P,J2,8,DAT1*%
%TO.N,unconnected-(J2-Pad8)*%
X52700000Y14060000D03*
%TO.P,J2,9,DAT2*%
%TO.N,unconnected-(J2-Pad9)*%
X52700000Y33290000D03*
D23*
%TO.P,J2,12,SHELL1*%
%TO.N,GND*%
X56200000Y40625000D03*
X56200000Y10175000D03*
X80400000Y40625000D03*
X86400000Y10175000D03*
%TD*%
D14*
%TO.P,M7,1*%
%TO.N,GND*%
X-16638000Y91429400D03*
X-16638000Y85429400D03*
X27162000Y91429400D03*
D15*
X14262000Y103579400D03*
X-3738000Y103579400D03*
X-9738000Y73279400D03*
D14*
X27162000Y97429400D03*
D15*
X20262000Y73279400D03*
D16*
X-15488000Y102804400D03*
D14*
X27162000Y79429400D03*
D15*
X20262000Y103579400D03*
X-3738000Y73279400D03*
X8262000Y103579400D03*
D14*
X-16638000Y79429400D03*
D16*
X26012000Y74054400D03*
D14*
X27162000Y85429400D03*
X-16638000Y97429400D03*
D15*
X-9738000Y103579400D03*
X2262000Y103579400D03*
X8262000Y73279400D03*
X14262000Y73279400D03*
X2262000Y73279400D03*
D16*
X26012000Y102804400D03*
X-15488000Y74054400D03*
%TD*%
D18*
%TO.P,D8,1,K*%
%TO.N,Net-(D8-Pad1)*%
X125186600Y135382000D03*
%TO.P,D8,2,A*%
%TO.N,Vin*%
X121036600Y135382000D03*
%TD*%
D17*
%TO.P,R38,1*%
%TO.N,Net-(D10-Pad1)*%
X115032000Y97584400D03*
%TO.P,R38,2*%
%TO.N,GND*%
X116682000Y97584400D03*
%TD*%
%TO.P,R35,1*%
%TO.N,/cpu/PC5_D1*%
X121202000Y132134400D03*
%TO.P,R35,2*%
%TO.N,Net-(Q2-Pad1)*%
X122852000Y132134400D03*
%TD*%
%TO.P,R33,1*%
%TO.N,RX0*%
X127372000Y136124400D03*
%TO.P,R33,2*%
%TO.N,Net-(J3-Pad2)*%
X129022000Y136124400D03*
%TD*%
D24*
%TO.P,J4,G1,SHIELD*%
%TO.N,GND*%
X88900000Y44960000D03*
%TO.P,J4,G2,SHIELD*%
X88900000Y36320000D03*
D25*
%TO.P,J4,G3,SHIELD*%
X84720000Y44960000D03*
%TO.P,J4,G4,SHIELD*%
X84720000Y36320000D03*
%TD*%
D26*
%TO.N,GND*%
X75311000Y14605000D03*
X14732000Y12344400D03*
X19913600Y24130000D03*
X19913600Y25552400D03*
X9956800Y14224000D03*
X4622800Y16256000D03*
X4445000Y18415000D03*
X3175000Y19685000D03*
X2540000Y20955000D03*
X2540000Y22225000D03*
X2540000Y24130000D03*
X2540000Y26035000D03*
X2540000Y27940000D03*
X2540000Y29845000D03*
X3302000Y31648400D03*
X2540000Y33020000D03*
X5715000Y33020000D03*
X6985000Y31750000D03*
X7620000Y33020000D03*
X5537200Y34290000D03*
X5080000Y35560000D03*
X18288000Y29921200D03*
X19456400Y29972000D03*
X20624800Y29972000D03*
X50800000Y39116000D03*
X52324000Y39116000D03*
X53848000Y39116000D03*
X55372000Y39116000D03*
X56896000Y39116000D03*
X58420000Y39116000D03*
X61468000Y39116000D03*
X62992000Y26924000D03*
X58928000Y20320000D03*
X57912000Y24892000D03*
X69596000Y24892000D03*
X70104000Y22352000D03*
X76200000Y31496000D03*
X66548000Y31496000D03*
X67183000Y38735000D03*
X68453000Y38735000D03*
X51054000Y32512000D03*
X50038000Y21717000D03*
X49657000Y32512000D03*
X6096000Y36576000D03*
X79248000Y21844000D03*
X79248000Y20320000D03*
X78232000Y19304000D03*
X78232000Y39243000D03*
X76708000Y39243000D03*
X75184000Y39243000D03*
X73660000Y39243000D03*
X72136000Y39243000D03*
X70612000Y39243000D03*
X69596000Y39243000D03*
X87884000Y12192000D03*
X87884000Y13716000D03*
X88392000Y16764000D03*
X79248000Y33528000D03*
X67056000Y34036000D03*
X10320000Y27680000D03*
X54229000Y28829000D03*
X15138400Y25552400D03*
X24587200Y21996400D03*
X22352000Y39065200D03*
X59944000Y26416000D03*
X51308000Y13716000D03*
X4064000Y34544000D03*
X10319457Y30200565D03*
X29870400Y18338800D03*
X30480000Y14630400D03*
X23368000Y16052800D03*
X4986000Y26918000D03*
X51308000Y12446000D03*
X9304000Y22092000D03*
X50038000Y13716000D03*
X52578000Y12446000D03*
X62701789Y32220000D03*
X13462000Y21590000D03*
X10668000Y21965000D03*
X19253200Y15544800D03*
X12225000Y21965000D03*
X18186400Y25501600D03*
X19151600Y17373600D03*
X30327600Y16967200D03*
X12860000Y23870000D03*
X19100800Y19253200D03*
X16611600Y25501600D03*
X4986000Y25648000D03*
X24739600Y17475200D03*
X10320000Y28950000D03*
X23622000Y21996400D03*
X10320000Y25775000D03*
X23368000Y14274800D03*
X23723600Y17475200D03*
X50038000Y12446000D03*
X18999200Y38709600D03*
X55867109Y24815999D03*
%TO.N,Net-(R13-Pad2)*%
X26365200Y30429200D03*
X26365200Y23215600D03*
%TO.N,/cpu/RST#_P*%
X78740000Y31115000D03*
X59690000Y29210000D03*
%TO.N,/cpu/PC0*%
X65747314Y29387314D03*
X71882000Y24638000D03*
%TO.N,/cpu/PC1*%
X67056000Y29210000D03*
X71374778Y27336070D03*
%TO.N,/cpu/PB6*%
X55372000Y26416000D03*
X51435000Y24765000D03*
%TO.N,+3V3*%
X64389000Y20574000D03*
X58420000Y15367000D03*
X76200000Y33020000D03*
X59182000Y15367000D03*
X64389000Y19558000D03*
X63754000Y33020000D03*
%TO.N,PA1*%
X65405000Y27940000D03*
X28143200Y11176000D03*
X28651200Y26924000D03*
%TO.N,PA0*%
X62865000Y31115000D03*
%TO.N,PB0*%
X61468000Y26924000D03*
%TO.N,POWER_ANALOG_3V3*%
X31191200Y35255200D03*
X28969000Y13017800D03*
%TO.N,Net-(J2-Pad1)*%
X59944000Y39116000D03*
%TO.N,Net-(J2-Pad5)*%
X53848000Y20320000D03*
%TO.N,unconnected-(J2-Pad8)*%
X52578000Y13716000D03*
%TO.N,RX0*%
X61976000Y34671000D03*
X71374000Y35306000D03*
%TO.N,TX0*%
X60325000Y34671000D03*
X72066686Y36191990D03*
%TD*%
D27*
%TO.N,GND*%
X4986000Y25648000D02*
X4986000Y26918000D01*
X10320000Y28950000D02*
X10320000Y27680000D01*
X13495000Y31490000D02*
X12205565Y30200565D01*
X12205565Y30200565D02*
X10319457Y30200565D01*
X12225000Y21965000D02*
X14130000Y21965000D01*
D28*
%TO.N,/cpu/RST#_P*%
X78174315Y31115000D02*
X77285315Y30226000D01*
X78740000Y31115000D02*
X78174315Y31115000D01*
X77285315Y30226000D02*
X60706000Y30226000D01*
X60706000Y30226000D02*
X59690000Y29210000D01*
%TO.N,/cpu/PC0*%
X65747314Y29387314D02*
X69442627Y25692001D01*
X70827999Y25692001D02*
X71882000Y24638000D01*
X69442627Y25692001D02*
X70827999Y25692001D01*
%TO.N,/cpu/PC1*%
X67056000Y29210000D02*
X68929930Y27336070D01*
X68929930Y27336070D02*
X71374778Y27336070D01*
%TO.N,/cpu/PB6*%
X51435000Y24765000D02*
X53721000Y24765000D01*
X54972001Y26016001D02*
X55372000Y26416000D01*
X53721000Y24765000D02*
X54972001Y26016001D01*
%TO.N,+3V3*%
X76200000Y33020000D02*
X63754000Y33020000D01*
D29*
X64389000Y20574000D02*
X64389000Y16383000D01*
X59182000Y15367000D02*
X58420000Y15367000D01*
X64389000Y16383000D02*
X63373000Y15367000D01*
X63373000Y15367000D02*
X59182000Y15367000D01*
D28*
%TO.N,PA1*%
X65405000Y27940000D02*
X48387000Y27940000D01*
X48387000Y27940000D02*
X48323500Y27876500D01*
%TO.N,PB0*%
X61468000Y26924000D02*
X61052010Y27339990D01*
X61052010Y27339990D02*
X48675990Y27339990D01*
%TO.N,RX0*%
X62611000Y35306000D02*
X71374000Y35306000D01*
X61976000Y34671000D02*
X62611000Y35306000D01*
%TO.N,TX0*%
X60325000Y34671000D02*
X61845990Y36191990D01*
X61845990Y36191990D02*
X72066686Y36191990D01*
%TD*%
%TA.AperFunction,Conductor*%
%TO.N,GND*%
G36*
X90620121Y50017998D02*
G01*
X90666614Y49964342D01*
X90678000Y49912000D01*
X90678000Y888000D01*
X90657998Y819879D01*
X90604342Y773386D01*
X90552000Y762000D01*
X888000Y762000D01*
X819879Y782002D01*
X773386Y835658D01*
X762000Y888000D01*
X762000Y11176000D01*
X27229696Y11176000D01*
X27249658Y10986072D01*
X27308673Y10804444D01*
X27404160Y10639056D01*
X27531947Y10497134D01*
X27686448Y10384882D01*
X27692476Y10382198D01*
X27692478Y10382197D01*
X27854881Y10309891D01*
X27860912Y10307206D01*
X27954313Y10287353D01*
X28041256Y10268872D01*
X28041261Y10268872D01*
X28047713Y10267500D01*
X28238687Y10267500D01*
X28245139Y10268872D01*
X28245144Y10268872D01*
X28332087Y10287353D01*
X28425488Y10307206D01*
X28431519Y10309891D01*
X28593922Y10382197D01*
X28593924Y10382198D01*
X28599952Y10384882D01*
X28754453Y10497134D01*
X28882240Y10639056D01*
X28977727Y10804444D01*
X29036742Y10986072D01*
X29056704Y11176000D01*
X29036742Y11365928D01*
X28977727Y11547556D01*
X28882240Y11712944D01*
X28754453Y11854866D01*
X28689766Y11901864D01*
X28646414Y11958086D01*
X28640339Y12028822D01*
X28673471Y12091614D01*
X28735291Y12126525D01*
X28790025Y12127046D01*
X28811798Y12122418D01*
X28867056Y12110672D01*
X28867061Y12110672D01*
X28873513Y12109300D01*
X29064487Y12109300D01*
X29070939Y12110672D01*
X29070944Y12110672D01*
X29157888Y12129153D01*
X29251288Y12149006D01*
X29287162Y12164978D01*
X29419722Y12223997D01*
X29419724Y12223998D01*
X29425752Y12226682D01*
X29438184Y12235714D01*
X29515567Y12291937D01*
X29580253Y12338934D01*
X29708040Y12480856D01*
X29803527Y12646244D01*
X29862542Y12827872D01*
X29873191Y12929186D01*
X29881814Y13011235D01*
X29882504Y13017800D01*
X29862542Y13207728D01*
X29803527Y13389356D01*
X29790531Y13411866D01*
X51391500Y13411866D01*
X51398255Y13349684D01*
X51449385Y13213295D01*
X51536739Y13096739D01*
X51653295Y13009385D01*
X51789684Y12958255D01*
X51851866Y12951500D01*
X52043671Y12951500D01*
X52110139Y12931983D01*
X52110186Y12932065D01*
X52110522Y12931871D01*
X52111792Y12931498D01*
X52115173Y12929186D01*
X52115909Y12928761D01*
X52121248Y12924882D01*
X52295712Y12847206D01*
X52386671Y12827872D01*
X52476056Y12808872D01*
X52476061Y12808872D01*
X52482513Y12807500D01*
X52673487Y12807500D01*
X52679939Y12808872D01*
X52679944Y12808872D01*
X52769329Y12827872D01*
X52860288Y12847206D01*
X53034752Y12924882D01*
X53040089Y12928760D01*
X53045814Y12932065D01*
X53046742Y12930458D01*
X53105131Y12951294D01*
X53112329Y12951500D01*
X53548134Y12951500D01*
X53610316Y12958255D01*
X53746705Y13009385D01*
X53863261Y13096739D01*
X53950615Y13213295D01*
X54001745Y13349684D01*
X54008500Y13411866D01*
X54008500Y14708134D01*
X54001745Y14770316D01*
X53981191Y14825143D01*
X53953766Y14898301D01*
X53953764Y14898304D01*
X53950615Y14906705D01*
X53951466Y14907024D01*
X53937945Y14968849D01*
X53950958Y15013166D01*
X53950615Y15013295D01*
X53952372Y15017981D01*
X53952373Y15017985D01*
X53960992Y15040974D01*
X53998971Y15142285D01*
X54001745Y15149684D01*
X54008500Y15211866D01*
X54008500Y15367000D01*
X57506496Y15367000D01*
X57507186Y15360435D01*
X57510810Y15325955D01*
X57511500Y15312784D01*
X57511500Y15271513D01*
X57520082Y15231136D01*
X57522143Y15218128D01*
X57526458Y15177072D01*
X57528497Y15170798D01*
X57528498Y15170791D01*
X57539212Y15137817D01*
X57542625Y15125080D01*
X57551206Y15084712D01*
X57567999Y15046994D01*
X57572718Y15034698D01*
X57585473Y14995444D01*
X57605937Y14960000D01*
X57606104Y14959710D01*
X57612091Y14947961D01*
X57628882Y14910248D01*
X57632761Y14904909D01*
X57632764Y14904904D01*
X57653146Y14876851D01*
X57660325Y14865798D01*
X57680960Y14830056D01*
X57685380Y14825147D01*
X57685383Y14825143D01*
X57708575Y14799386D01*
X57716871Y14789143D01*
X57741134Y14755747D01*
X57746036Y14751333D01*
X57746038Y14751331D01*
X57771806Y14728129D01*
X57781129Y14718806D01*
X57793815Y14704717D01*
X57808747Y14688134D01*
X57842143Y14663871D01*
X57852386Y14655575D01*
X57878143Y14632383D01*
X57878146Y14632381D01*
X57883056Y14627960D01*
X57918798Y14607325D01*
X57929851Y14600146D01*
X57957904Y14579764D01*
X57957909Y14579761D01*
X57963248Y14575882D01*
X57969275Y14573199D01*
X57969276Y14573198D01*
X58000959Y14559092D01*
X58012708Y14553105D01*
X58048444Y14532473D01*
X58054727Y14530432D01*
X58054728Y14530431D01*
X58087696Y14519719D01*
X58099994Y14514999D01*
X58137712Y14498206D01*
X58144165Y14496834D01*
X58144169Y14496833D01*
X58178080Y14489625D01*
X58190817Y14486212D01*
X58223791Y14475498D01*
X58223798Y14475497D01*
X58230072Y14473458D01*
X58236633Y14472768D01*
X58236635Y14472768D01*
X58250690Y14471291D01*
X58271128Y14469143D01*
X58284136Y14467082D01*
X58324513Y14458500D01*
X63291583Y14458500D01*
X63311292Y14456949D01*
X63325190Y14454748D01*
X63331777Y14455093D01*
X63331782Y14455093D01*
X63393480Y14458327D01*
X63400074Y14458500D01*
X63420610Y14458500D01*
X63423882Y14458844D01*
X63423884Y14458844D01*
X63441042Y14460647D01*
X63447616Y14461164D01*
X63509308Y14464397D01*
X63509312Y14464398D01*
X63515903Y14464743D01*
X63522284Y14466453D01*
X63522286Y14466453D01*
X63529491Y14468383D01*
X63548925Y14471985D01*
X63556354Y14472766D01*
X63556363Y14472768D01*
X63562928Y14473458D01*
X63627997Y14494600D01*
X63634299Y14496467D01*
X63700370Y14514171D01*
X63712908Y14520560D01*
X63731174Y14528125D01*
X63738272Y14530431D01*
X63738274Y14530432D01*
X63744556Y14532473D01*
X63803785Y14566669D01*
X63809579Y14569815D01*
X63870530Y14600871D01*
X63881467Y14609727D01*
X63897763Y14620927D01*
X63904224Y14624657D01*
X63904228Y14624660D01*
X63909944Y14627960D01*
X63914850Y14632377D01*
X63914855Y14632381D01*
X63960769Y14673722D01*
X63965784Y14678006D01*
X63974282Y14684888D01*
X63981741Y14690928D01*
X63996256Y14705443D01*
X64001041Y14709984D01*
X64010839Y14718806D01*
X64051866Y14755747D01*
X64056744Y14762460D01*
X64060140Y14767135D01*
X64072981Y14782168D01*
X64973832Y15683019D01*
X64988865Y15695860D01*
X64994913Y15700254D01*
X64994914Y15700255D01*
X65000253Y15704134D01*
X65046016Y15754959D01*
X65050557Y15759744D01*
X65065072Y15774259D01*
X65077994Y15790216D01*
X65082278Y15795231D01*
X65123619Y15841145D01*
X65123623Y15841150D01*
X65128040Y15846056D01*
X65131340Y15851772D01*
X65131343Y15851776D01*
X65135073Y15858237D01*
X65146273Y15874534D01*
X65150975Y15880340D01*
X65150976Y15880342D01*
X65155129Y15885470D01*
X65186186Y15946423D01*
X65189333Y15952218D01*
X65220223Y16005721D01*
X65220224Y16005722D01*
X65223527Y16011444D01*
X65227875Y16024827D01*
X65235441Y16043093D01*
X65238829Y16049743D01*
X65241829Y16055630D01*
X65259533Y16121701D01*
X65261400Y16128003D01*
X65282542Y16193072D01*
X65283232Y16199637D01*
X65283234Y16199646D01*
X65284015Y16207075D01*
X65287617Y16226509D01*
X65289547Y16233714D01*
X65289547Y16233716D01*
X65291257Y16240097D01*
X65292329Y16260542D01*
X65294836Y16308384D01*
X65295353Y16314958D01*
X65297156Y16332116D01*
X65297156Y16332118D01*
X65297500Y16335390D01*
X65297500Y16355926D01*
X65297673Y16362520D01*
X65300907Y16424218D01*
X65300907Y16424223D01*
X65301252Y16430810D01*
X65299051Y16444708D01*
X65297500Y16464417D01*
X65297500Y19503784D01*
X65298190Y19516955D01*
X65301814Y19551435D01*
X65302504Y19558000D01*
X65298190Y19599045D01*
X65297500Y19612216D01*
X65297500Y20519784D01*
X65298190Y20532955D01*
X65301814Y20567435D01*
X65302504Y20574000D01*
X65282542Y20763928D01*
X65223527Y20945556D01*
X65128040Y21110944D01*
X65000253Y21252866D01*
X64845752Y21365118D01*
X64839724Y21367802D01*
X64839722Y21367803D01*
X64677319Y21440109D01*
X64677318Y21440109D01*
X64671288Y21442794D01*
X64577887Y21462647D01*
X64490944Y21481128D01*
X64490939Y21481128D01*
X64484487Y21482500D01*
X64293513Y21482500D01*
X64287061Y21481128D01*
X64287056Y21481128D01*
X64200113Y21462647D01*
X64106712Y21442794D01*
X64100682Y21440109D01*
X64100681Y21440109D01*
X63938278Y21367803D01*
X63938276Y21367802D01*
X63932248Y21365118D01*
X63777747Y21252866D01*
X63649960Y21110944D01*
X63554473Y20945556D01*
X63495458Y20763928D01*
X63475496Y20574000D01*
X63476186Y20567435D01*
X63479810Y20532955D01*
X63480500Y20519784D01*
X63480500Y19612216D01*
X63479810Y19599045D01*
X63475496Y19558000D01*
X63476186Y19551435D01*
X63479810Y19516955D01*
X63480500Y19503784D01*
X63480500Y16811503D01*
X63460498Y16743382D01*
X63443595Y16722408D01*
X63033592Y16312405D01*
X62971280Y16278379D01*
X62944497Y16275500D01*
X58324513Y16275500D01*
X58284136Y16266918D01*
X58271128Y16264857D01*
X58250690Y16262709D01*
X58236635Y16261232D01*
X58236633Y16261232D01*
X58230072Y16260542D01*
X58223798Y16258503D01*
X58223791Y16258502D01*
X58190817Y16247788D01*
X58178080Y16244375D01*
X58144169Y16237167D01*
X58144165Y16237166D01*
X58137712Y16235794D01*
X58099994Y16219001D01*
X58087696Y16214281D01*
X58065519Y16207075D01*
X58048444Y16201527D01*
X58042723Y16198224D01*
X58012710Y16180896D01*
X58000961Y16174909D01*
X57963248Y16158118D01*
X57957909Y16154239D01*
X57957904Y16154236D01*
X57929851Y16133854D01*
X57918798Y16126675D01*
X57883056Y16106040D01*
X57878147Y16101620D01*
X57878143Y16101617D01*
X57852386Y16078425D01*
X57842143Y16070129D01*
X57808747Y16045866D01*
X57804333Y16040964D01*
X57804331Y16040962D01*
X57781129Y16015194D01*
X57771806Y16005871D01*
X57746038Y15982669D01*
X57741134Y15978253D01*
X57716871Y15944857D01*
X57708575Y15934614D01*
X57685383Y15908857D01*
X57685380Y15908853D01*
X57680960Y15903944D01*
X57660325Y15868202D01*
X57653146Y15857149D01*
X57632764Y15829096D01*
X57632761Y15829091D01*
X57628882Y15823752D01*
X57626199Y15817725D01*
X57626198Y15817724D01*
X57612092Y15786041D01*
X57606105Y15774292D01*
X57585473Y15738556D01*
X57583432Y15732273D01*
X57583431Y15732272D01*
X57572719Y15699304D01*
X57567999Y15687006D01*
X57551206Y15649288D01*
X57549834Y15642835D01*
X57549833Y15642831D01*
X57542625Y15608920D01*
X57539212Y15596183D01*
X57528498Y15563209D01*
X57528497Y15563202D01*
X57526458Y15556928D01*
X57525768Y15550367D01*
X57525768Y15550365D01*
X57522144Y15515878D01*
X57520082Y15502864D01*
X57511500Y15462487D01*
X57511500Y15421216D01*
X57510810Y15408045D01*
X57506496Y15367000D01*
X54008500Y15367000D01*
X54008500Y16508134D01*
X54001745Y16570316D01*
X53950615Y16706705D01*
X53863261Y16823261D01*
X53746705Y16910615D01*
X53610316Y16961745D01*
X53548134Y16968500D01*
X51851866Y16968500D01*
X51789684Y16961745D01*
X51653295Y16910615D01*
X51536739Y16823261D01*
X51449385Y16706705D01*
X51398255Y16570316D01*
X51391500Y16508134D01*
X51391500Y15211866D01*
X51398255Y15149684D01*
X51401029Y15142285D01*
X51439009Y15040974D01*
X51449385Y15013295D01*
X51448534Y15012976D01*
X51462055Y14951151D01*
X51449042Y14906834D01*
X51449385Y14906705D01*
X51446236Y14898304D01*
X51446234Y14898301D01*
X51418809Y14825143D01*
X51398255Y14770316D01*
X51391500Y14708134D01*
X51391500Y13411866D01*
X29790531Y13411866D01*
X29708040Y13554744D01*
X29580253Y13696666D01*
X29425752Y13808918D01*
X29419724Y13811602D01*
X29419722Y13811603D01*
X29257319Y13883909D01*
X29257318Y13883909D01*
X29251288Y13886594D01*
X29157887Y13906447D01*
X29070944Y13924928D01*
X29070939Y13924928D01*
X29064487Y13926300D01*
X28873513Y13926300D01*
X28867061Y13924928D01*
X28867056Y13924928D01*
X28780113Y13906447D01*
X28686712Y13886594D01*
X28680682Y13883909D01*
X28680681Y13883909D01*
X28518278Y13811603D01*
X28518276Y13811602D01*
X28512248Y13808918D01*
X28357747Y13696666D01*
X28229960Y13554744D01*
X28134473Y13389356D01*
X28075458Y13207728D01*
X28055496Y13017800D01*
X28056186Y13011235D01*
X28064810Y12929186D01*
X28075458Y12827872D01*
X28134473Y12646244D01*
X28229960Y12480856D01*
X28357747Y12338934D01*
X28422433Y12291937D01*
X28465786Y12235714D01*
X28471861Y12164978D01*
X28438729Y12102186D01*
X28376909Y12067275D01*
X28322175Y12066754D01*
X28300402Y12071382D01*
X28245144Y12083128D01*
X28245139Y12083128D01*
X28238687Y12084500D01*
X28047713Y12084500D01*
X28041261Y12083128D01*
X28041256Y12083128D01*
X27966676Y12067275D01*
X27860912Y12044794D01*
X27854882Y12042109D01*
X27854881Y12042109D01*
X27692478Y11969803D01*
X27692476Y11969802D01*
X27686448Y11967118D01*
X27681107Y11963238D01*
X27681106Y11963237D01*
X27631043Y11926864D01*
X27531947Y11854866D01*
X27404160Y11712944D01*
X27308673Y11547556D01*
X27249658Y11365928D01*
X27229696Y11176000D01*
X762000Y11176000D01*
X762000Y20141866D01*
X51391500Y20141866D01*
X51398255Y20079684D01*
X51449385Y19943295D01*
X51536739Y19826739D01*
X51653295Y19739385D01*
X51789684Y19688255D01*
X51851866Y19681500D01*
X53144580Y19681500D01*
X53212701Y19661498D01*
X53228888Y19649138D01*
X53232333Y19646036D01*
X53236747Y19641134D01*
X53258329Y19625454D01*
X53360207Y19551435D01*
X53391248Y19528882D01*
X53397276Y19526198D01*
X53397278Y19526197D01*
X53447619Y19503784D01*
X53565712Y19451206D01*
X53659113Y19431353D01*
X53746056Y19412872D01*
X53746061Y19412872D01*
X53752513Y19411500D01*
X53943487Y19411500D01*
X53949939Y19412872D01*
X53949944Y19412872D01*
X54036888Y19431353D01*
X54130288Y19451206D01*
X54248381Y19503784D01*
X54298722Y19526197D01*
X54298724Y19526198D01*
X54304752Y19528882D01*
X54335794Y19551435D01*
X54360157Y19569136D01*
X54459253Y19641134D01*
X54504179Y19691029D01*
X54582621Y19778148D01*
X54582622Y19778149D01*
X54587040Y19783056D01*
X54645314Y19883990D01*
X54679223Y19942721D01*
X54679224Y19942722D01*
X54682527Y19948444D01*
X54741542Y20130072D01*
X54761504Y20320000D01*
X54741542Y20509928D01*
X54682527Y20691556D01*
X54587040Y20856944D01*
X54507254Y20945556D01*
X54463675Y20993955D01*
X54463674Y20993956D01*
X54459253Y20998866D01*
X54304752Y21111118D01*
X54298724Y21113802D01*
X54298722Y21113803D01*
X54136319Y21186109D01*
X54136318Y21186109D01*
X54130288Y21188794D01*
X54108303Y21193467D01*
X54045830Y21227195D01*
X54011508Y21289345D01*
X54008500Y21316714D01*
X54008500Y21438134D01*
X54001745Y21500316D01*
X53950615Y21636705D01*
X53863261Y21753261D01*
X53746705Y21840615D01*
X53610316Y21891745D01*
X53548134Y21898500D01*
X51851866Y21898500D01*
X51789684Y21891745D01*
X51653295Y21840615D01*
X51536739Y21753261D01*
X51449385Y21636705D01*
X51398255Y21500316D01*
X51391500Y21438134D01*
X51391500Y20141866D01*
X762000Y20141866D01*
X762000Y23215600D01*
X25451696Y23215600D01*
X25471658Y23025672D01*
X25530673Y22844044D01*
X25626160Y22678656D01*
X25753947Y22536734D01*
X25908448Y22424482D01*
X25914476Y22421798D01*
X25914478Y22421797D01*
X26076881Y22349491D01*
X26082912Y22346806D01*
X26176313Y22326953D01*
X26263256Y22308472D01*
X26263261Y22308472D01*
X26269713Y22307100D01*
X26460687Y22307100D01*
X26467139Y22308472D01*
X26467144Y22308472D01*
X26554087Y22326953D01*
X26647488Y22346806D01*
X26653519Y22349491D01*
X26815922Y22421797D01*
X26815924Y22421798D01*
X26821952Y22424482D01*
X26976453Y22536734D01*
X27104240Y22678656D01*
X27199727Y22844044D01*
X27258742Y23025672D01*
X27278704Y23215600D01*
X27258742Y23405528D01*
X27199727Y23587156D01*
X27104240Y23752544D01*
X27089238Y23769206D01*
X26980875Y23889555D01*
X26980874Y23889556D01*
X26976453Y23894466D01*
X26821952Y24006718D01*
X26815924Y24009402D01*
X26815922Y24009403D01*
X26653519Y24081709D01*
X26653518Y24081709D01*
X26647488Y24084394D01*
X26542199Y24106774D01*
X26467144Y24122728D01*
X26467139Y24122728D01*
X26460687Y24124100D01*
X26269713Y24124100D01*
X26263261Y24122728D01*
X26263256Y24122728D01*
X26188201Y24106774D01*
X26082912Y24084394D01*
X26076882Y24081709D01*
X26076881Y24081709D01*
X25914478Y24009403D01*
X25914476Y24009402D01*
X25908448Y24006718D01*
X25753947Y23894466D01*
X25749526Y23889556D01*
X25749525Y23889555D01*
X25641163Y23769206D01*
X25626160Y23752544D01*
X25530673Y23587156D01*
X25471658Y23405528D01*
X25451696Y23215600D01*
X762000Y23215600D01*
X762000Y26924000D01*
X27737696Y26924000D01*
X27738386Y26917435D01*
X27750821Y26799126D01*
X27757658Y26734072D01*
X27816673Y26552444D01*
X27819976Y26546722D01*
X27819977Y26546721D01*
X27822549Y26542267D01*
X27912160Y26387056D01*
X27916578Y26382149D01*
X27916579Y26382148D01*
X28025642Y26261021D01*
X28039947Y26245134D01*
X28194448Y26132882D01*
X28200476Y26130198D01*
X28200478Y26130197D01*
X28362881Y26057891D01*
X28368912Y26055206D01*
X28462312Y26035353D01*
X28549256Y26016872D01*
X28549261Y26016872D01*
X28555713Y26015500D01*
X28746687Y26015500D01*
X28753139Y26016872D01*
X28753144Y26016872D01*
X28840088Y26035353D01*
X28933488Y26055206D01*
X28939519Y26057891D01*
X29101922Y26130197D01*
X29101924Y26130198D01*
X29107952Y26132882D01*
X29262453Y26245134D01*
X29276758Y26261021D01*
X29385821Y26382148D01*
X29385822Y26382149D01*
X29390240Y26387056D01*
X29479851Y26542267D01*
X29482423Y26546721D01*
X29482424Y26546722D01*
X29485727Y26552444D01*
X29544742Y26734072D01*
X29551580Y26799126D01*
X29564014Y26917435D01*
X29564704Y26924000D01*
X29559785Y26970799D01*
X29545432Y27107365D01*
X29545432Y27107367D01*
X29544742Y27113928D01*
X29485727Y27295556D01*
X29475539Y27313203D01*
X29402871Y27439066D01*
X29390240Y27460944D01*
X29326013Y27532276D01*
X29266875Y27597955D01*
X29266874Y27597956D01*
X29262453Y27602866D01*
X29161018Y27676563D01*
X29113294Y27711237D01*
X29113293Y27711238D01*
X29107952Y27715118D01*
X29101924Y27717802D01*
X29101922Y27717803D01*
X28939519Y27790109D01*
X28939518Y27790109D01*
X28933488Y27792794D01*
X28840087Y27812647D01*
X28753144Y27831128D01*
X28753139Y27831128D01*
X28746687Y27832500D01*
X28555713Y27832500D01*
X28549261Y27831128D01*
X28549256Y27831128D01*
X28462313Y27812647D01*
X28368912Y27792794D01*
X28362882Y27790109D01*
X28362881Y27790109D01*
X28200478Y27717803D01*
X28200476Y27717802D01*
X28194448Y27715118D01*
X28189107Y27711238D01*
X28189106Y27711237D01*
X28141382Y27676563D01*
X28039947Y27602866D01*
X28035526Y27597956D01*
X28035525Y27597955D01*
X27976388Y27532276D01*
X27912160Y27460944D01*
X27899529Y27439066D01*
X27826862Y27313203D01*
X27816673Y27295556D01*
X27757658Y27113928D01*
X27756968Y27107367D01*
X27756968Y27107365D01*
X27742615Y26970799D01*
X27737696Y26924000D01*
X762000Y26924000D01*
X762000Y27921314D01*
X47611204Y27921314D01*
X47621076Y27750115D01*
X47623309Y27742855D01*
X47623310Y27742852D01*
X47638926Y27692092D01*
X47671499Y27586211D01*
X47759563Y27439066D01*
X47764900Y27433673D01*
X47764903Y27433669D01*
X47819874Y27378120D01*
X47880184Y27317175D01*
X47886654Y27313210D01*
X47886663Y27313203D01*
X47920825Y27292269D01*
X47968456Y27239622D01*
X47977509Y27214251D01*
X48003170Y27107365D01*
X48007048Y27091213D01*
X48085699Y26938829D01*
X48198429Y26809605D01*
X48338729Y26711000D01*
X48418614Y26679854D01*
X48491419Y26651468D01*
X48491422Y26651467D01*
X48498499Y26648708D01*
X48506032Y26647716D01*
X48506033Y26647716D01*
X48625197Y26632028D01*
X48629284Y26631490D01*
X54281329Y26631490D01*
X54349450Y26611488D01*
X54395943Y26557832D01*
X54406047Y26487558D01*
X54376553Y26422978D01*
X54370437Y26416408D01*
X53464434Y25510404D01*
X53402123Y25476380D01*
X53375340Y25473500D01*
X52046405Y25473500D01*
X51978284Y25493502D01*
X51972344Y25497564D01*
X51897094Y25552237D01*
X51897093Y25552238D01*
X51891752Y25556118D01*
X51885724Y25558802D01*
X51885722Y25558803D01*
X51723319Y25631109D01*
X51723318Y25631109D01*
X51717288Y25633794D01*
X51623888Y25653647D01*
X51536944Y25672128D01*
X51536939Y25672128D01*
X51530487Y25673500D01*
X51339513Y25673500D01*
X51333061Y25672128D01*
X51333056Y25672128D01*
X51246112Y25653647D01*
X51152712Y25633794D01*
X51146682Y25631109D01*
X51146681Y25631109D01*
X50984278Y25558803D01*
X50984276Y25558802D01*
X50978248Y25556118D01*
X50972907Y25552238D01*
X50972906Y25552237D01*
X50965010Y25546500D01*
X50823747Y25443866D01*
X50695960Y25301944D01*
X50600473Y25136556D01*
X50541458Y24954928D01*
X50521496Y24765000D01*
X50541458Y24575072D01*
X50600473Y24393444D01*
X50695960Y24228056D01*
X50823747Y24086134D01*
X50978248Y23973882D01*
X50984276Y23971198D01*
X50984278Y23971197D01*
X51066214Y23934717D01*
X51152712Y23896206D01*
X51291698Y23866663D01*
X51354170Y23832936D01*
X51388492Y23770786D01*
X51391500Y23743417D01*
X51391500Y22641866D01*
X51398255Y22579684D01*
X51449385Y22443295D01*
X51536739Y22326739D01*
X51653295Y22239385D01*
X51789684Y22188255D01*
X51851866Y22181500D01*
X53548134Y22181500D01*
X53610316Y22188255D01*
X53746705Y22239385D01*
X53863261Y22326739D01*
X53950615Y22443295D01*
X54001745Y22579684D01*
X54008500Y22641866D01*
X54008500Y23938134D01*
X54001745Y24000316D01*
X54000984Y24002345D01*
X54004553Y24070708D01*
X54045998Y24128352D01*
X54052061Y24132791D01*
X54057297Y24136390D01*
X54075095Y24146297D01*
X54077356Y24147634D01*
X54084305Y24150685D01*
X54135002Y24189587D01*
X54140332Y24193459D01*
X54186720Y24225339D01*
X54186725Y24225344D01*
X54192981Y24229643D01*
X54220671Y24260721D01*
X54234435Y24276170D01*
X54239416Y24281446D01*
X55438533Y25480563D01*
X55501431Y25514715D01*
X55517589Y25518150D01*
X55654288Y25547206D01*
X55674305Y25556118D01*
X55822722Y25622197D01*
X55822724Y25622198D01*
X55828752Y25624882D01*
X55841019Y25633794D01*
X55895669Y25673500D01*
X55983253Y25737134D01*
X56111040Y25879056D01*
X56206527Y26044444D01*
X56265542Y26226072D01*
X56267138Y26241251D01*
X56284814Y26409435D01*
X56285504Y26416000D01*
X56277483Y26492320D01*
X56290256Y26562159D01*
X56338758Y26614005D01*
X56402793Y26631490D01*
X60517210Y26631490D01*
X60585331Y26611488D01*
X60631932Y26557187D01*
X60633473Y26552444D01*
X60636773Y26546727D01*
X60636775Y26546724D01*
X60670935Y26487558D01*
X60728960Y26387056D01*
X60733378Y26382149D01*
X60733379Y26382148D01*
X60842442Y26261021D01*
X60856747Y26245134D01*
X61011248Y26132882D01*
X61017276Y26130198D01*
X61017278Y26130197D01*
X61179681Y26057891D01*
X61185712Y26055206D01*
X61279112Y26035353D01*
X61366056Y26016872D01*
X61366061Y26016872D01*
X61372513Y26015500D01*
X61563487Y26015500D01*
X61569939Y26016872D01*
X61569944Y26016872D01*
X61656888Y26035353D01*
X61750288Y26055206D01*
X61756319Y26057891D01*
X61918722Y26130197D01*
X61918724Y26130198D01*
X61924752Y26132882D01*
X62079253Y26245134D01*
X62093558Y26261021D01*
X62202621Y26382148D01*
X62202622Y26382149D01*
X62207040Y26387056D01*
X62296651Y26542267D01*
X62299223Y26546721D01*
X62299224Y26546722D01*
X62302527Y26552444D01*
X62361542Y26734072D01*
X62368380Y26799126D01*
X62380814Y26917435D01*
X62381504Y26924000D01*
X62363812Y27092330D01*
X62376584Y27162168D01*
X62425086Y27214015D01*
X62489122Y27231500D01*
X64793595Y27231500D01*
X64861716Y27211498D01*
X64867656Y27207436D01*
X64929962Y27162168D01*
X64948248Y27148882D01*
X64954276Y27146198D01*
X64954278Y27146197D01*
X65116681Y27073891D01*
X65122712Y27071206D01*
X65216112Y27051353D01*
X65303056Y27032872D01*
X65303061Y27032872D01*
X65309513Y27031500D01*
X65500487Y27031500D01*
X65506939Y27032872D01*
X65506944Y27032872D01*
X65593887Y27051353D01*
X65687288Y27071206D01*
X65693319Y27073891D01*
X65855722Y27146197D01*
X65855724Y27146198D01*
X65861752Y27148882D01*
X66016253Y27261134D01*
X66063136Y27313203D01*
X66139621Y27398148D01*
X66139622Y27398149D01*
X66144040Y27403056D01*
X66239527Y27568444D01*
X66255615Y27617957D01*
X66295689Y27676563D01*
X66361086Y27704199D01*
X66431043Y27692092D01*
X66464543Y27668115D01*
X68921177Y25211481D01*
X68927031Y25205216D01*
X68965066Y25161616D01*
X68971284Y25157246D01*
X69017324Y25124889D01*
X69022620Y25120956D01*
X69072909Y25081524D01*
X69079831Y25078399D01*
X69082079Y25077037D01*
X69096812Y25068633D01*
X69099151Y25067379D01*
X69105366Y25063011D01*
X69112442Y25060252D01*
X69112446Y25060250D01*
X69164896Y25039801D01*
X69170961Y25037252D01*
X69229200Y25010956D01*
X69236665Y25009572D01*
X69239209Y25008775D01*
X69255475Y25004142D01*
X69258055Y25003480D01*
X69265136Y25000719D01*
X69272669Y24999727D01*
X69272670Y24999727D01*
X69305326Y24995428D01*
X69328484Y24992379D01*
X69334982Y24991351D01*
X69397814Y24979705D01*
X69405394Y24980142D01*
X69405395Y24980142D01*
X69460020Y24983292D01*
X69467274Y24983501D01*
X70482339Y24983501D01*
X70550460Y24963499D01*
X70571434Y24946596D01*
X70947335Y24570695D01*
X70981361Y24508383D01*
X70983550Y24494772D01*
X70988458Y24448072D01*
X71047473Y24266444D01*
X71142960Y24101056D01*
X71147378Y24096149D01*
X71147379Y24096148D01*
X71234124Y23999808D01*
X71270747Y23959134D01*
X71299651Y23938134D01*
X71398021Y23866664D01*
X71425248Y23846882D01*
X71431276Y23844198D01*
X71431278Y23844197D01*
X71456571Y23832936D01*
X71599712Y23769206D01*
X71693113Y23749353D01*
X71780056Y23730872D01*
X71780061Y23730872D01*
X71786513Y23729500D01*
X71977487Y23729500D01*
X71983939Y23730872D01*
X71983944Y23730872D01*
X72070887Y23749353D01*
X72164288Y23769206D01*
X72307429Y23832936D01*
X72332722Y23844197D01*
X72332724Y23844198D01*
X72338752Y23846882D01*
X72365980Y23866664D01*
X72464349Y23938134D01*
X72493253Y23959134D01*
X72529876Y23999808D01*
X72616621Y24096148D01*
X72616622Y24096149D01*
X72621040Y24101056D01*
X72716527Y24266444D01*
X72775542Y24448072D01*
X72795504Y24638000D01*
X72775542Y24827928D01*
X72716527Y25009556D01*
X72621040Y25174944D01*
X72493253Y25316866D01*
X72338752Y25429118D01*
X72332724Y25431802D01*
X72332722Y25431803D01*
X72170319Y25504109D01*
X72170318Y25504109D01*
X72164288Y25506794D01*
X72011433Y25539284D01*
X71948536Y25573435D01*
X71349434Y26172536D01*
X71343580Y26178803D01*
X71308740Y26218741D01*
X71279032Y26283223D01*
X71288902Y26353530D01*
X71335216Y26407341D01*
X71403689Y26427570D01*
X71470265Y26427570D01*
X71476717Y26428942D01*
X71476722Y26428942D01*
X71563666Y26447423D01*
X71657066Y26467276D01*
X71663097Y26469961D01*
X71825500Y26542267D01*
X71825502Y26542268D01*
X71831530Y26544952D01*
X71850493Y26558729D01*
X71915456Y26605928D01*
X71986031Y26657204D01*
X72038403Y26715369D01*
X72109399Y26794218D01*
X72109400Y26794219D01*
X72113818Y26799126D01*
X72185914Y26924000D01*
X72206001Y26958791D01*
X72206002Y26958792D01*
X72209305Y26964514D01*
X72268320Y27146142D01*
X72270005Y27162168D01*
X72287592Y27329505D01*
X72288282Y27336070D01*
X72275758Y27455226D01*
X72269010Y27519435D01*
X72269010Y27519437D01*
X72268320Y27525998D01*
X72209305Y27707626D01*
X72204980Y27715118D01*
X72159341Y27794166D01*
X72113818Y27873014D01*
X72077155Y27913733D01*
X71990453Y28010025D01*
X71990452Y28010026D01*
X71986031Y28014936D01*
X71831530Y28127188D01*
X71825502Y28129872D01*
X71825500Y28129873D01*
X71663097Y28202179D01*
X71663096Y28202179D01*
X71657066Y28204864D01*
X71563666Y28224717D01*
X71476722Y28243198D01*
X71476717Y28243198D01*
X71470265Y28244570D01*
X71279291Y28244570D01*
X71272839Y28243198D01*
X71272834Y28243198D01*
X71185891Y28224717D01*
X71092490Y28204864D01*
X71086460Y28202179D01*
X71086459Y28202179D01*
X70924056Y28129873D01*
X70924054Y28129872D01*
X70918026Y28127188D01*
X70912685Y28123308D01*
X70912684Y28123307D01*
X70837434Y28068634D01*
X70770567Y28044776D01*
X70763373Y28044570D01*
X69275590Y28044570D01*
X69207469Y28064572D01*
X69186495Y28081475D01*
X67990665Y29277305D01*
X67956639Y29339617D01*
X67954450Y29353230D01*
X67951812Y29378330D01*
X67964584Y29448168D01*
X68013087Y29500015D01*
X68077122Y29517500D01*
X77256403Y29517500D01*
X77264973Y29517208D01*
X77315091Y29513791D01*
X77315095Y29513791D01*
X77322667Y29513275D01*
X77330144Y29514580D01*
X77330145Y29514580D01*
X77373072Y29522072D01*
X77385618Y29524262D01*
X77392136Y29525223D01*
X77455557Y29532898D01*
X77462658Y29535581D01*
X77465267Y29536222D01*
X77481577Y29540685D01*
X77484113Y29541450D01*
X77491599Y29542757D01*
X77550115Y29568444D01*
X77556219Y29570935D01*
X77608863Y29590827D01*
X77608864Y29590828D01*
X77615971Y29593513D01*
X77622234Y29597817D01*
X77624600Y29599054D01*
X77639412Y29607299D01*
X77641666Y29608632D01*
X77648620Y29611685D01*
X77699317Y29650587D01*
X77704647Y29654459D01*
X77751035Y29686339D01*
X77751040Y29686344D01*
X77757296Y29690643D01*
X77798751Y29737171D01*
X77803731Y29742446D01*
X78292535Y30231250D01*
X78354847Y30265276D01*
X78425662Y30260211D01*
X78432876Y30257263D01*
X78451676Y30248893D01*
X78451679Y30248892D01*
X78457712Y30246206D01*
X78490334Y30239272D01*
X78638056Y30207872D01*
X78638061Y30207872D01*
X78644513Y30206500D01*
X78835487Y30206500D01*
X78841939Y30207872D01*
X78841944Y30207872D01*
X78928887Y30226353D01*
X79022288Y30246206D01*
X79053744Y30260211D01*
X79190722Y30321197D01*
X79190724Y30321198D01*
X79196752Y30323882D01*
X79351253Y30436134D01*
X79479040Y30578056D01*
X79574527Y30743444D01*
X79633542Y30925072D01*
X79653504Y31115000D01*
X79633542Y31304928D01*
X79574527Y31486556D01*
X79479040Y31651944D01*
X79413538Y31724692D01*
X79355675Y31788955D01*
X79355674Y31788956D01*
X79351253Y31793866D01*
X79196752Y31906118D01*
X79190724Y31908802D01*
X79190722Y31908803D01*
X79028319Y31981109D01*
X79028318Y31981109D01*
X79022288Y31983794D01*
X78928888Y32003647D01*
X78841944Y32022128D01*
X78841939Y32022128D01*
X78835487Y32023500D01*
X78644513Y32023500D01*
X78638061Y32022128D01*
X78638056Y32022128D01*
X78551112Y32003647D01*
X78457712Y31983794D01*
X78451682Y31981109D01*
X78451681Y31981109D01*
X78289278Y31908803D01*
X78289276Y31908802D01*
X78283248Y31906118D01*
X78277907Y31902238D01*
X78277906Y31902237D01*
X78207174Y31850847D01*
X78141087Y31827445D01*
X78136963Y31827726D01*
X78073996Y31816736D01*
X78067484Y31815776D01*
X78004073Y31808102D01*
X77996972Y31805419D01*
X77994363Y31804778D01*
X77978030Y31800309D01*
X77975510Y31799548D01*
X77968032Y31798243D01*
X77961080Y31795191D01*
X77961079Y31795191D01*
X77909519Y31772559D01*
X77903414Y31770068D01*
X77850771Y31750175D01*
X77850767Y31750173D01*
X77843659Y31747487D01*
X77837398Y31743184D01*
X77835032Y31741947D01*
X77820252Y31733720D01*
X77817967Y31732369D01*
X77811010Y31729315D01*
X77804990Y31724695D01*
X77804984Y31724692D01*
X77773857Y31700806D01*
X77760313Y31690413D01*
X77754983Y31686541D01*
X77708595Y31654661D01*
X77708590Y31654656D01*
X77702334Y31650357D01*
X77697283Y31644687D01*
X77697281Y31644686D01*
X77660880Y31603830D01*
X77655899Y31598554D01*
X77028750Y30971405D01*
X76966438Y30937379D01*
X76939655Y30934500D01*
X63899470Y30934500D01*
X63831349Y30954502D01*
X63784856Y31008158D01*
X63774160Y31073671D01*
X63777814Y31108436D01*
X63778504Y31115000D01*
X63758542Y31304928D01*
X63699527Y31486556D01*
X63604040Y31651944D01*
X63538538Y31724692D01*
X63480675Y31788955D01*
X63480674Y31788956D01*
X63476253Y31793866D01*
X63321752Y31906118D01*
X63315724Y31908802D01*
X63315722Y31908803D01*
X63153319Y31981109D01*
X63153318Y31981109D01*
X63147288Y31983794D01*
X63053888Y32003647D01*
X62966944Y32022128D01*
X62966939Y32022128D01*
X62960487Y32023500D01*
X62769513Y32023500D01*
X62763061Y32022128D01*
X62763056Y32022128D01*
X62676112Y32003647D01*
X62582712Y31983794D01*
X62576682Y31981109D01*
X62576681Y31981109D01*
X62414278Y31908803D01*
X62414276Y31908802D01*
X62408248Y31906118D01*
X62253747Y31793866D01*
X62249326Y31788956D01*
X62249325Y31788955D01*
X62191463Y31724692D01*
X62125960Y31651944D01*
X62030473Y31486556D01*
X61971458Y31304928D01*
X61951496Y31115000D01*
X61952186Y31108436D01*
X61955840Y31073671D01*
X61943068Y31003832D01*
X61894566Y30951986D01*
X61830530Y30934500D01*
X60734912Y30934500D01*
X60726342Y30934792D01*
X60676224Y30938209D01*
X60676220Y30938209D01*
X60668648Y30938725D01*
X60661171Y30937420D01*
X60661170Y30937420D01*
X60634692Y30932799D01*
X60605697Y30927738D01*
X60599179Y30926777D01*
X60535758Y30919102D01*
X60528657Y30916419D01*
X60526048Y30915778D01*
X60509738Y30911315D01*
X60507202Y30910550D01*
X60499716Y30909243D01*
X60492759Y30906189D01*
X60441205Y30883558D01*
X60435101Y30881067D01*
X60375344Y30858487D01*
X60369081Y30854183D01*
X60366715Y30852946D01*
X60351903Y30844701D01*
X60349649Y30843368D01*
X60342695Y30840315D01*
X60291998Y30801413D01*
X60286668Y30797541D01*
X60240280Y30765661D01*
X60240275Y30765656D01*
X60234019Y30761357D01*
X60228968Y30755687D01*
X60228966Y30755686D01*
X60192565Y30714830D01*
X60187584Y30709554D01*
X59623467Y30145437D01*
X59560569Y30111285D01*
X59407712Y30078794D01*
X59401682Y30076109D01*
X59401681Y30076109D01*
X59239278Y30003803D01*
X59239276Y30003802D01*
X59233248Y30001118D01*
X59078747Y29888866D01*
X59074326Y29883956D01*
X59074325Y29883955D01*
X59017963Y29821358D01*
X58950960Y29746944D01*
X58918455Y29690643D01*
X58860826Y29590827D01*
X58855473Y29581556D01*
X58796458Y29399928D01*
X58795768Y29393367D01*
X58795768Y29393365D01*
X58795598Y29391745D01*
X58776496Y29210000D01*
X58777186Y29203435D01*
X58784200Y29136705D01*
X58796458Y29020072D01*
X58855473Y28838444D01*
X58858777Y28832721D01*
X58861461Y28826693D01*
X58858915Y28825559D01*
X58872756Y28768503D01*
X58849534Y28701411D01*
X58793727Y28657525D01*
X58746899Y28648500D01*
X54134500Y28648500D01*
X54066379Y28668502D01*
X54019886Y28722158D01*
X54008500Y28774500D01*
X54008500Y28938134D01*
X54001745Y29000316D01*
X53950615Y29136705D01*
X53863261Y29253261D01*
X53746705Y29340615D01*
X53610316Y29391745D01*
X53548134Y29398500D01*
X51851866Y29398500D01*
X51789684Y29391745D01*
X51653295Y29340615D01*
X51536739Y29253261D01*
X51449385Y29136705D01*
X51398255Y29000316D01*
X51391500Y28938134D01*
X51391500Y28774500D01*
X51371498Y28706379D01*
X51317842Y28659886D01*
X51265500Y28648500D01*
X48415927Y28648500D01*
X48407358Y28648792D01*
X48357225Y28652210D01*
X48357221Y28652210D01*
X48349648Y28652726D01*
X48286681Y28641736D01*
X48280169Y28640776D01*
X48216758Y28633102D01*
X48209657Y28630419D01*
X48207048Y28629778D01*
X48190728Y28625313D01*
X48188195Y28624548D01*
X48180717Y28623243D01*
X48122190Y28597552D01*
X48116108Y28595070D01*
X48095753Y28587378D01*
X48063449Y28575172D01*
X48063447Y28575171D01*
X48056344Y28572487D01*
X48050085Y28568186D01*
X48047720Y28566949D01*
X48032948Y28558727D01*
X48030656Y28557372D01*
X48023695Y28554316D01*
X48017668Y28549691D01*
X48017664Y28549689D01*
X47972987Y28515407D01*
X47967662Y28511538D01*
X47915019Y28475357D01*
X47909968Y28469688D01*
X47909966Y28469686D01*
X47873569Y28428834D01*
X47868587Y28423557D01*
X47792107Y28347077D01*
X47713024Y28246218D01*
X47709898Y28239296D01*
X47709898Y28239295D01*
X47660492Y28129873D01*
X47642455Y28089927D01*
X47641070Y28082456D01*
X47641070Y28082455D01*
X47637756Y28064572D01*
X47611204Y27921314D01*
X762000Y27921314D01*
X762000Y30429200D01*
X25451696Y30429200D01*
X25471658Y30239272D01*
X25530673Y30057644D01*
X25626160Y29892256D01*
X25753947Y29750334D01*
X25908448Y29638082D01*
X25914476Y29635398D01*
X25914478Y29635397D01*
X26076881Y29563091D01*
X26082912Y29560406D01*
X26176312Y29540553D01*
X26263256Y29522072D01*
X26263261Y29522072D01*
X26269713Y29520700D01*
X26460687Y29520700D01*
X26467139Y29522072D01*
X26467144Y29522072D01*
X26554088Y29540553D01*
X26647488Y29560406D01*
X26653519Y29563091D01*
X26815922Y29635397D01*
X26815924Y29635398D01*
X26821952Y29638082D01*
X26976453Y29750334D01*
X27104240Y29892256D01*
X27199727Y30057644D01*
X27227093Y30141866D01*
X51391500Y30141866D01*
X51398255Y30079684D01*
X51449385Y29943295D01*
X51536739Y29826739D01*
X51653295Y29739385D01*
X51789684Y29688255D01*
X51851866Y29681500D01*
X53548134Y29681500D01*
X53610316Y29688255D01*
X53746705Y29739385D01*
X53863261Y29826739D01*
X53950615Y29943295D01*
X54001745Y30079684D01*
X54008500Y30141866D01*
X54008500Y31438134D01*
X54001745Y31500316D01*
X53950615Y31636705D01*
X53863261Y31753261D01*
X53746705Y31840615D01*
X53610316Y31891745D01*
X53548134Y31898500D01*
X51851866Y31898500D01*
X51789684Y31891745D01*
X51653295Y31840615D01*
X51536739Y31753261D01*
X51449385Y31636705D01*
X51398255Y31500316D01*
X51391500Y31438134D01*
X51391500Y30141866D01*
X27227093Y30141866D01*
X27258742Y30239272D01*
X27278704Y30429200D01*
X27258742Y30619128D01*
X27199727Y30800756D01*
X27104240Y30966144D01*
X27066411Y31008158D01*
X26980875Y31103155D01*
X26980874Y31103156D01*
X26976453Y31108066D01*
X26821952Y31220318D01*
X26815924Y31223002D01*
X26815922Y31223003D01*
X26653519Y31295309D01*
X26653518Y31295309D01*
X26647488Y31297994D01*
X26554088Y31317847D01*
X26467144Y31336328D01*
X26467139Y31336328D01*
X26460687Y31337700D01*
X26269713Y31337700D01*
X26263261Y31336328D01*
X26263256Y31336328D01*
X26176312Y31317847D01*
X26082912Y31297994D01*
X26076882Y31295309D01*
X26076881Y31295309D01*
X25914478Y31223003D01*
X25914476Y31223002D01*
X25908448Y31220318D01*
X25753947Y31108066D01*
X25749526Y31103156D01*
X25749525Y31103155D01*
X25663990Y31008158D01*
X25626160Y30966144D01*
X25530673Y30800756D01*
X25471658Y30619128D01*
X25451696Y30429200D01*
X762000Y30429200D01*
X762000Y34190000D01*
X9084647Y34190000D01*
X9104022Y33968537D01*
X9161560Y33753804D01*
X9163882Y33748823D01*
X9163883Y33748822D01*
X9253186Y33557311D01*
X9253189Y33557306D01*
X9255512Y33552324D01*
X9258668Y33547817D01*
X9258669Y33547815D01*
X9372484Y33385271D01*
X9383023Y33370219D01*
X9540219Y33213023D01*
X9544727Y33209866D01*
X9544730Y33209864D01*
X9554012Y33203365D01*
X9722323Y33085512D01*
X9727305Y33083189D01*
X9727310Y33083186D01*
X9918822Y32993883D01*
X9923804Y32991560D01*
X9929112Y32990138D01*
X9929114Y32990137D01*
X9994949Y32972497D01*
X10138537Y32934022D01*
X10360000Y32914647D01*
X10581463Y32934022D01*
X10725051Y32972497D01*
X10790886Y32990137D01*
X10790888Y32990138D01*
X10796196Y32991560D01*
X10801178Y32993883D01*
X10992690Y33083186D01*
X10992695Y33083189D01*
X10997677Y33085512D01*
X11165988Y33203365D01*
X11175270Y33209864D01*
X11175273Y33209866D01*
X11179781Y33213023D01*
X11336977Y33370219D01*
X11347517Y33385271D01*
X11461331Y33547815D01*
X11461332Y33547817D01*
X11464488Y33552324D01*
X11466811Y33557306D01*
X11466814Y33557311D01*
X11556117Y33748822D01*
X11556118Y33748823D01*
X11558440Y33753804D01*
X11615978Y33968537D01*
X11635353Y34190000D01*
X14084647Y34190000D01*
X14104022Y33968537D01*
X14161560Y33753804D01*
X14163882Y33748823D01*
X14163883Y33748822D01*
X14253186Y33557311D01*
X14253189Y33557306D01*
X14255512Y33552324D01*
X14258668Y33547817D01*
X14258669Y33547815D01*
X14372484Y33385271D01*
X14383023Y33370219D01*
X14540219Y33213023D01*
X14544727Y33209866D01*
X14544730Y33209864D01*
X14554012Y33203365D01*
X14722323Y33085512D01*
X14727305Y33083189D01*
X14727310Y33083186D01*
X14918822Y32993883D01*
X14923804Y32991560D01*
X14929112Y32990138D01*
X14929114Y32990137D01*
X14994949Y32972497D01*
X15138537Y32934022D01*
X15360000Y32914647D01*
X15581463Y32934022D01*
X15725051Y32972497D01*
X15790886Y32990137D01*
X15790888Y32990138D01*
X15796196Y32991560D01*
X15801178Y32993883D01*
X15992690Y33083186D01*
X15992695Y33083189D01*
X15997677Y33085512D01*
X16165988Y33203365D01*
X16175270Y33209864D01*
X16175273Y33209866D01*
X16179781Y33213023D01*
X16336977Y33370219D01*
X16347517Y33385271D01*
X16461331Y33547815D01*
X16461332Y33547817D01*
X16464488Y33552324D01*
X16466811Y33557306D01*
X16466814Y33557311D01*
X16556117Y33748822D01*
X16556118Y33748823D01*
X16558440Y33753804D01*
X16615978Y33968537D01*
X16635353Y34190000D01*
X16615978Y34411463D01*
X16558440Y34626196D01*
X16540609Y34664435D01*
X16466814Y34822689D01*
X16466811Y34822694D01*
X16464488Y34827676D01*
X16393736Y34928721D01*
X16340136Y35005270D01*
X16340134Y35005273D01*
X16336977Y35009781D01*
X16179781Y35166977D01*
X16175273Y35170134D01*
X16175270Y35170136D01*
X16099505Y35223187D01*
X16053786Y35255200D01*
X30277696Y35255200D01*
X30278386Y35248635D01*
X30292979Y35109794D01*
X30297658Y35065272D01*
X30356673Y34883644D01*
X30359976Y34877922D01*
X30359977Y34877921D01*
X30369788Y34860928D01*
X30452160Y34718256D01*
X30456578Y34713349D01*
X30456579Y34713348D01*
X30535051Y34626196D01*
X30579947Y34576334D01*
X30631988Y34538524D01*
X30719706Y34474793D01*
X30734448Y34464082D01*
X30740476Y34461398D01*
X30740478Y34461397D01*
X30881748Y34398500D01*
X30908912Y34386406D01*
X31002312Y34366553D01*
X31089256Y34348072D01*
X31089261Y34348072D01*
X31095713Y34346700D01*
X31286687Y34346700D01*
X31293139Y34348072D01*
X31293144Y34348072D01*
X31380088Y34366553D01*
X31473488Y34386406D01*
X31500652Y34398500D01*
X31641922Y34461397D01*
X31641924Y34461398D01*
X31647952Y34464082D01*
X31662695Y34474793D01*
X31750412Y34538524D01*
X31757949Y34544000D01*
X49028693Y34544000D01*
X49047885Y34324629D01*
X49104880Y34111924D01*
X49107205Y34106939D01*
X49195618Y33917334D01*
X49195621Y33917329D01*
X49197944Y33912347D01*
X49201100Y33907840D01*
X49201101Y33907838D01*
X49312670Y33748502D01*
X49324251Y33731962D01*
X49479962Y33576251D01*
X49484471Y33573094D01*
X49484473Y33573092D01*
X49559241Y33520739D01*
X49660346Y33449944D01*
X49859924Y33356880D01*
X50072629Y33299885D01*
X50292000Y33280693D01*
X50511371Y33299885D01*
X50724076Y33356880D01*
X50923654Y33449944D01*
X51024759Y33520739D01*
X51099527Y33573092D01*
X51099529Y33573094D01*
X51104038Y33576251D01*
X51176405Y33648618D01*
X51238717Y33682644D01*
X51309532Y33677579D01*
X51366368Y33635032D01*
X51391179Y33568512D01*
X51391500Y33559523D01*
X51391500Y32641866D01*
X51398255Y32579684D01*
X51449385Y32443295D01*
X51536739Y32326739D01*
X51653295Y32239385D01*
X51789684Y32188255D01*
X51851866Y32181500D01*
X53548134Y32181500D01*
X53610316Y32188255D01*
X53746705Y32239385D01*
X53863261Y32326739D01*
X53950615Y32443295D01*
X54001745Y32579684D01*
X54008500Y32641866D01*
X54008500Y33020000D01*
X62840496Y33020000D01*
X62841186Y33013435D01*
X62851519Y32915126D01*
X62860458Y32830072D01*
X62919473Y32648444D01*
X63014960Y32483056D01*
X63142747Y32341134D01*
X63297248Y32228882D01*
X63303276Y32226198D01*
X63303278Y32226197D01*
X63388498Y32188255D01*
X63471712Y32151206D01*
X63565113Y32131353D01*
X63652056Y32112872D01*
X63652061Y32112872D01*
X63658513Y32111500D01*
X63849487Y32111500D01*
X63855939Y32112872D01*
X63855944Y32112872D01*
X63942887Y32131353D01*
X64036288Y32151206D01*
X64119502Y32188255D01*
X64204722Y32226197D01*
X64204724Y32226198D01*
X64210752Y32228882D01*
X64291344Y32287436D01*
X64358211Y32311294D01*
X64365405Y32311500D01*
X75588595Y32311500D01*
X75656716Y32291498D01*
X75662656Y32287436D01*
X75743248Y32228882D01*
X75749276Y32226198D01*
X75749278Y32226197D01*
X75834498Y32188255D01*
X75917712Y32151206D01*
X76011113Y32131353D01*
X76098056Y32112872D01*
X76098061Y32112872D01*
X76104513Y32111500D01*
X76295487Y32111500D01*
X76301939Y32112872D01*
X76301944Y32112872D01*
X76388887Y32131353D01*
X76482288Y32151206D01*
X76565502Y32188255D01*
X76650722Y32226197D01*
X76650724Y32226198D01*
X76656752Y32228882D01*
X76811253Y32341134D01*
X76939040Y32483056D01*
X77034527Y32648444D01*
X77093542Y32830072D01*
X77102482Y32915126D01*
X77112814Y33013435D01*
X77113504Y33020000D01*
X77106863Y33083186D01*
X77094232Y33203365D01*
X77094232Y33203367D01*
X77093542Y33209928D01*
X77034527Y33391556D01*
X76939040Y33556944D01*
X76856497Y33648618D01*
X76815675Y33693955D01*
X76815674Y33693956D01*
X76811253Y33698866D01*
X76670907Y33800834D01*
X76662094Y33807237D01*
X76662093Y33807238D01*
X76656752Y33811118D01*
X76650724Y33813802D01*
X76650722Y33813803D01*
X76488319Y33886109D01*
X76488318Y33886109D01*
X76482288Y33888794D01*
X76388888Y33908647D01*
X76301944Y33927128D01*
X76301939Y33927128D01*
X76295487Y33928500D01*
X76104513Y33928500D01*
X76098061Y33927128D01*
X76098056Y33927128D01*
X76011112Y33908647D01*
X75917712Y33888794D01*
X75911682Y33886109D01*
X75911681Y33886109D01*
X75749278Y33813803D01*
X75749276Y33813802D01*
X75743248Y33811118D01*
X75737907Y33807238D01*
X75737906Y33807237D01*
X75662656Y33752564D01*
X75595789Y33728706D01*
X75588595Y33728500D01*
X64365405Y33728500D01*
X64297284Y33748502D01*
X64291344Y33752564D01*
X64216094Y33807237D01*
X64216093Y33807238D01*
X64210752Y33811118D01*
X64204724Y33813802D01*
X64204722Y33813803D01*
X64042319Y33886109D01*
X64042318Y33886109D01*
X64036288Y33888794D01*
X63942888Y33908647D01*
X63855944Y33927128D01*
X63855939Y33927128D01*
X63849487Y33928500D01*
X63658513Y33928500D01*
X63652061Y33927128D01*
X63652056Y33927128D01*
X63565112Y33908647D01*
X63471712Y33888794D01*
X63465682Y33886109D01*
X63465681Y33886109D01*
X63303278Y33813803D01*
X63303276Y33813802D01*
X63297248Y33811118D01*
X63291907Y33807238D01*
X63291906Y33807237D01*
X63283093Y33800834D01*
X63142747Y33698866D01*
X63138326Y33693956D01*
X63138325Y33693955D01*
X63097504Y33648618D01*
X63014960Y33556944D01*
X62919473Y33391556D01*
X62860458Y33209928D01*
X62859768Y33203367D01*
X62859768Y33203365D01*
X62847137Y33083186D01*
X62840496Y33020000D01*
X54008500Y33020000D01*
X54008500Y33623523D01*
X54028502Y33691644D01*
X54082158Y33738137D01*
X54152432Y33748241D01*
X54217012Y33718747D01*
X54223595Y33712618D01*
X54359962Y33576251D01*
X54364471Y33573094D01*
X54364473Y33573092D01*
X54439241Y33520739D01*
X54540346Y33449944D01*
X54739924Y33356880D01*
X54952629Y33299885D01*
X55172000Y33280693D01*
X55391371Y33299885D01*
X55604076Y33356880D01*
X55803654Y33449944D01*
X55904759Y33520739D01*
X55979527Y33573092D01*
X55979529Y33573094D01*
X55984038Y33576251D01*
X56139749Y33731962D01*
X56151331Y33748502D01*
X56262899Y33907838D01*
X56262900Y33907840D01*
X56266056Y33912347D01*
X56268379Y33917329D01*
X56268382Y33917334D01*
X56356795Y34106939D01*
X56359120Y34111924D01*
X56416115Y34324629D01*
X56435307Y34544000D01*
X56424196Y34671000D01*
X59411496Y34671000D01*
X59412186Y34664435D01*
X59428187Y34512197D01*
X59431458Y34481072D01*
X59490473Y34299444D01*
X59585960Y34134056D01*
X59713747Y33992134D01*
X59753538Y33963224D01*
X59855982Y33888794D01*
X59868248Y33879882D01*
X59874276Y33877198D01*
X59874278Y33877197D01*
X60022695Y33811118D01*
X60042712Y33802206D01*
X60136112Y33782353D01*
X60223056Y33763872D01*
X60223061Y33763872D01*
X60229513Y33762500D01*
X60420487Y33762500D01*
X60426939Y33763872D01*
X60426944Y33763872D01*
X60513888Y33782353D01*
X60607288Y33802206D01*
X60627305Y33811118D01*
X60775722Y33877197D01*
X60775724Y33877198D01*
X60781752Y33879882D01*
X60794019Y33888794D01*
X60896462Y33963224D01*
X60936253Y33992134D01*
X61044112Y34111924D01*
X61056864Y34126086D01*
X61117310Y34163326D01*
X61188294Y34161974D01*
X61244136Y34126086D01*
X61256888Y34111924D01*
X61364747Y33992134D01*
X61404538Y33963224D01*
X61506982Y33888794D01*
X61519248Y33879882D01*
X61525276Y33877198D01*
X61525278Y33877197D01*
X61673695Y33811118D01*
X61693712Y33802206D01*
X61787112Y33782353D01*
X61874056Y33763872D01*
X61874061Y33763872D01*
X61880513Y33762500D01*
X62071487Y33762500D01*
X62077939Y33763872D01*
X62077944Y33763872D01*
X62164888Y33782353D01*
X62258288Y33802206D01*
X62278305Y33811118D01*
X62426722Y33877197D01*
X62426724Y33877198D01*
X62432752Y33879882D01*
X62445019Y33888794D01*
X62547462Y33963224D01*
X62587253Y33992134D01*
X62715040Y34134056D01*
X62810527Y34299444D01*
X62845144Y34405984D01*
X62867502Y34474793D01*
X62867502Y34474795D01*
X62869542Y34481072D01*
X62870232Y34487635D01*
X62871606Y34494100D01*
X62873625Y34493671D01*
X62896927Y34550320D01*
X62955146Y34590954D01*
X62995230Y34597500D01*
X70762595Y34597500D01*
X70830716Y34577498D01*
X70836656Y34573436D01*
X70917248Y34514882D01*
X70923276Y34512198D01*
X70923278Y34512197D01*
X71085681Y34439891D01*
X71091712Y34437206D01*
X71185112Y34417353D01*
X71272056Y34398872D01*
X71272061Y34398872D01*
X71278513Y34397500D01*
X71469487Y34397500D01*
X71475939Y34398872D01*
X71475944Y34398872D01*
X71562888Y34417353D01*
X71656288Y34437206D01*
X71662319Y34439891D01*
X71824722Y34512197D01*
X71824724Y34512198D01*
X71830752Y34514882D01*
X71985253Y34627134D01*
X72030661Y34677565D01*
X72108621Y34764148D01*
X72108622Y34764149D01*
X72113040Y34769056D01*
X72208527Y34934444D01*
X72267542Y35116072D01*
X72278778Y35222981D01*
X72305791Y35288637D01*
X72352840Y35324917D01*
X72517405Y35398185D01*
X72517412Y35398189D01*
X72523438Y35400872D01*
X72677939Y35513124D01*
X72792522Y35640381D01*
X72801307Y35650138D01*
X72801308Y35650139D01*
X72805726Y35655046D01*
X72864000Y35755980D01*
X72897909Y35814711D01*
X72897910Y35814712D01*
X72901213Y35820434D01*
X72960228Y36002062D01*
X72964880Y36046318D01*
X72979500Y36185425D01*
X72980190Y36191990D01*
X72960228Y36381918D01*
X72901213Y36563546D01*
X72805726Y36728934D01*
X72729267Y36813851D01*
X72682361Y36865945D01*
X72682360Y36865946D01*
X72677939Y36870856D01*
X72523438Y36983108D01*
X72517410Y36985792D01*
X72517408Y36985793D01*
X72355005Y37058099D01*
X72355004Y37058099D01*
X72348974Y37060784D01*
X72255574Y37080637D01*
X72168630Y37099118D01*
X72168625Y37099118D01*
X72162173Y37100490D01*
X71971199Y37100490D01*
X71964747Y37099118D01*
X71964742Y37099118D01*
X71877798Y37080637D01*
X71784398Y37060784D01*
X71778368Y37058099D01*
X71778367Y37058099D01*
X71615964Y36985793D01*
X71615962Y36985792D01*
X71609934Y36983108D01*
X71604593Y36979228D01*
X71604592Y36979227D01*
X71529342Y36924554D01*
X71462475Y36900696D01*
X71455281Y36900490D01*
X61874917Y36900490D01*
X61866348Y36900782D01*
X61816215Y36904200D01*
X61816211Y36904200D01*
X61808638Y36904716D01*
X61745671Y36893726D01*
X61739159Y36892766D01*
X61675748Y36885092D01*
X61668647Y36882409D01*
X61666038Y36881768D01*
X61649718Y36877303D01*
X61647185Y36876538D01*
X61639707Y36875233D01*
X61581180Y36849542D01*
X61575098Y36847060D01*
X61554743Y36839368D01*
X61522439Y36827162D01*
X61522437Y36827161D01*
X61515334Y36824477D01*
X61509075Y36820176D01*
X61506710Y36818939D01*
X61491938Y36810717D01*
X61489646Y36809362D01*
X61482685Y36806306D01*
X61476658Y36801681D01*
X61476654Y36801679D01*
X61431977Y36767397D01*
X61426652Y36763528D01*
X61374009Y36727347D01*
X61368957Y36721677D01*
X61368956Y36721676D01*
X61332563Y36680829D01*
X61327582Y36675553D01*
X60258467Y35606437D01*
X60195569Y35572285D01*
X60042712Y35539794D01*
X60036682Y35537109D01*
X60036681Y35537109D01*
X59874278Y35464803D01*
X59874276Y35464802D01*
X59868248Y35462118D01*
X59862907Y35458238D01*
X59862906Y35458237D01*
X59846033Y35445978D01*
X59713747Y35349866D01*
X59709326Y35344956D01*
X59709325Y35344955D01*
X59634421Y35261765D01*
X59585960Y35207944D01*
X59562308Y35166977D01*
X59499964Y35058994D01*
X59490473Y35042556D01*
X59431458Y34860928D01*
X59430768Y34854367D01*
X59430768Y34854365D01*
X59421286Y34764148D01*
X59411496Y34671000D01*
X56424196Y34671000D01*
X56416115Y34763371D01*
X56359120Y34976076D01*
X56314467Y35071835D01*
X56268382Y35170666D01*
X56268379Y35170671D01*
X56266056Y35175653D01*
X56262899Y35180162D01*
X56142908Y35351527D01*
X56142906Y35351530D01*
X56139749Y35356038D01*
X55984038Y35511749D01*
X55947821Y35537109D01*
X55848810Y35606437D01*
X55803654Y35638056D01*
X55604076Y35731120D01*
X55391371Y35788115D01*
X55172000Y35807307D01*
X54952629Y35788115D01*
X54739924Y35731120D01*
X54646562Y35687585D01*
X54545334Y35640382D01*
X54545329Y35640379D01*
X54540347Y35638056D01*
X54535840Y35634900D01*
X54535838Y35634899D01*
X54364473Y35514908D01*
X54364470Y35514906D01*
X54359962Y35511749D01*
X54204251Y35356038D01*
X54201094Y35351530D01*
X54201092Y35351527D01*
X54081101Y35180162D01*
X54077944Y35175653D01*
X54075621Y35170671D01*
X54075618Y35170666D01*
X54029533Y35071835D01*
X53984880Y34976076D01*
X53927885Y34763371D01*
X53908693Y34544000D01*
X53909172Y34538525D01*
X53909172Y34538524D01*
X53915161Y34470063D01*
X53901171Y34400458D01*
X53851771Y34349466D01*
X53782645Y34333276D01*
X53745413Y34341099D01*
X53610316Y34391745D01*
X53548134Y34398500D01*
X51851866Y34398500D01*
X51789684Y34391745D01*
X51720758Y34365906D01*
X51649953Y34360723D01*
X51587584Y34394643D01*
X51553455Y34456898D01*
X51551009Y34494869D01*
X51554828Y34538524D01*
X51554828Y34538525D01*
X51555307Y34544000D01*
X51536115Y34763371D01*
X51479120Y34976076D01*
X51434467Y35071835D01*
X51388382Y35170666D01*
X51388379Y35170671D01*
X51386056Y35175653D01*
X51382899Y35180162D01*
X51262908Y35351527D01*
X51262906Y35351530D01*
X51259749Y35356038D01*
X51104038Y35511749D01*
X51067821Y35537109D01*
X50968810Y35606437D01*
X50923654Y35638056D01*
X50724076Y35731120D01*
X50511371Y35788115D01*
X50292000Y35807307D01*
X50072629Y35788115D01*
X49859924Y35731120D01*
X49766562Y35687585D01*
X49665334Y35640382D01*
X49665329Y35640379D01*
X49660347Y35638056D01*
X49655840Y35634900D01*
X49655838Y35634899D01*
X49484473Y35514908D01*
X49484470Y35514906D01*
X49479962Y35511749D01*
X49324251Y35356038D01*
X49321094Y35351530D01*
X49321092Y35351527D01*
X49201101Y35180162D01*
X49197944Y35175653D01*
X49195621Y35170671D01*
X49195618Y35170666D01*
X49149533Y35071835D01*
X49104880Y34976076D01*
X49047885Y34763371D01*
X49028693Y34544000D01*
X31757949Y34544000D01*
X31802453Y34576334D01*
X31847349Y34626196D01*
X31925821Y34713348D01*
X31925822Y34713349D01*
X31930240Y34718256D01*
X32012612Y34860928D01*
X32022423Y34877921D01*
X32022424Y34877922D01*
X32025727Y34883644D01*
X32084742Y35065272D01*
X32089422Y35109794D01*
X32104014Y35248635D01*
X32104704Y35255200D01*
X32097377Y35324917D01*
X32085432Y35438565D01*
X32085432Y35438567D01*
X32084742Y35445128D01*
X32025727Y35626756D01*
X32006093Y35660764D01*
X31933541Y35786426D01*
X31930240Y35792144D01*
X31917019Y35806828D01*
X31806875Y35929155D01*
X31806874Y35929156D01*
X31802453Y35934066D01*
X31647952Y36046318D01*
X31641924Y36049002D01*
X31641922Y36049003D01*
X31479519Y36121309D01*
X31479518Y36121309D01*
X31473488Y36123994D01*
X31380088Y36143847D01*
X31293144Y36162328D01*
X31293139Y36162328D01*
X31286687Y36163700D01*
X31095713Y36163700D01*
X31089261Y36162328D01*
X31089256Y36162328D01*
X31002312Y36143847D01*
X30908912Y36123994D01*
X30902882Y36121309D01*
X30902881Y36121309D01*
X30740478Y36049003D01*
X30740476Y36049002D01*
X30734448Y36046318D01*
X30579947Y35934066D01*
X30575526Y35929156D01*
X30575525Y35929155D01*
X30465382Y35806828D01*
X30452160Y35792144D01*
X30448859Y35786426D01*
X30376308Y35660764D01*
X30356673Y35626756D01*
X30297658Y35445128D01*
X30296968Y35438567D01*
X30296968Y35438565D01*
X30285023Y35324917D01*
X30277696Y35255200D01*
X16053786Y35255200D01*
X15997677Y35294488D01*
X15992695Y35296811D01*
X15992690Y35296814D01*
X15801178Y35386117D01*
X15801177Y35386118D01*
X15796196Y35388440D01*
X15790888Y35389862D01*
X15790886Y35389863D01*
X15725051Y35407503D01*
X15581463Y35445978D01*
X15360000Y35465353D01*
X15138537Y35445978D01*
X14994949Y35407503D01*
X14929114Y35389863D01*
X14929112Y35389862D01*
X14923804Y35388440D01*
X14918823Y35386118D01*
X14918822Y35386117D01*
X14727311Y35296814D01*
X14727306Y35296811D01*
X14722324Y35294488D01*
X14717817Y35291332D01*
X14717815Y35291331D01*
X14544730Y35170136D01*
X14544727Y35170134D01*
X14540219Y35166977D01*
X14383023Y35009781D01*
X14379866Y35005273D01*
X14379864Y35005270D01*
X14326264Y34928721D01*
X14255512Y34827676D01*
X14253189Y34822694D01*
X14253186Y34822689D01*
X14179391Y34664435D01*
X14161560Y34626196D01*
X14104022Y34411463D01*
X14084647Y34190000D01*
X11635353Y34190000D01*
X11615978Y34411463D01*
X11558440Y34626196D01*
X11540609Y34664435D01*
X11466814Y34822689D01*
X11466811Y34822694D01*
X11464488Y34827676D01*
X11393736Y34928721D01*
X11340136Y35005270D01*
X11340134Y35005273D01*
X11336977Y35009781D01*
X11179781Y35166977D01*
X11175273Y35170134D01*
X11175270Y35170136D01*
X11099505Y35223187D01*
X10997677Y35294488D01*
X10992695Y35296811D01*
X10992690Y35296814D01*
X10801178Y35386117D01*
X10801177Y35386118D01*
X10796196Y35388440D01*
X10790888Y35389862D01*
X10790886Y35389863D01*
X10725051Y35407503D01*
X10581463Y35445978D01*
X10360000Y35465353D01*
X10138537Y35445978D01*
X9994949Y35407503D01*
X9929114Y35389863D01*
X9929112Y35389862D01*
X9923804Y35388440D01*
X9918823Y35386118D01*
X9918822Y35386117D01*
X9727311Y35296814D01*
X9727306Y35296811D01*
X9722324Y35294488D01*
X9717817Y35291332D01*
X9717815Y35291331D01*
X9544730Y35170136D01*
X9544727Y35170134D01*
X9540219Y35166977D01*
X9383023Y35009781D01*
X9379866Y35005273D01*
X9379864Y35005270D01*
X9326264Y34928721D01*
X9255512Y34827676D01*
X9253189Y34822694D01*
X9253186Y34822689D01*
X9179391Y34664435D01*
X9161560Y34626196D01*
X9104022Y34411463D01*
X9084647Y34190000D01*
X762000Y34190000D01*
X762000Y37796802D01*
X84382892Y37796802D01*
X84383249Y37789985D01*
X84383249Y37789981D01*
X84388151Y37696461D01*
X84392370Y37615953D01*
X84394181Y37609380D01*
X84394181Y37609377D01*
X84417551Y37524534D01*
X84440461Y37441359D01*
X84524922Y37281164D01*
X84529327Y37275951D01*
X84529330Y37275947D01*
X84637406Y37148057D01*
X84637410Y37148053D01*
X84641813Y37142843D01*
X84647237Y37138696D01*
X84647238Y37138695D01*
X84780257Y37036994D01*
X84780261Y37036991D01*
X84785678Y37032850D01*
X84872372Y36992424D01*
X84943631Y36959195D01*
X84943634Y36959194D01*
X84949808Y36956315D01*
X84956456Y36954829D01*
X84956459Y36954828D01*
X85062421Y36931143D01*
X85126543Y36916810D01*
X85132088Y36916500D01*
X85265244Y36916500D01*
X85400037Y36931143D01*
X85554447Y36983108D01*
X85565204Y36986728D01*
X85565206Y36986729D01*
X85571675Y36988906D01*
X85726905Y37082177D01*
X85731862Y37086865D01*
X85731865Y37086867D01*
X85853527Y37201918D01*
X85853529Y37201920D01*
X85858485Y37206607D01*
X85862317Y37212245D01*
X85862320Y37212249D01*
X85956442Y37350745D01*
X85960277Y37356388D01*
X86027530Y37524534D01*
X86028644Y37531262D01*
X86028645Y37531266D01*
X86055993Y37696461D01*
X86055993Y37696464D01*
X86057108Y37703198D01*
X86052203Y37796802D01*
X86047987Y37877234D01*
X86047630Y37884047D01*
X86024304Y37968734D01*
X86001352Y38052059D01*
X85999539Y38058641D01*
X85915078Y38218836D01*
X85910673Y38224049D01*
X85910670Y38224053D01*
X85802594Y38351943D01*
X85802590Y38351947D01*
X85798187Y38357157D01*
X85792762Y38361305D01*
X85659743Y38463006D01*
X85659739Y38463009D01*
X85654322Y38467150D01*
X85549186Y38516175D01*
X85496369Y38540805D01*
X85496366Y38540806D01*
X85490192Y38543685D01*
X85483544Y38545171D01*
X85483541Y38545172D01*
X85318494Y38582064D01*
X85318495Y38582064D01*
X85313457Y38583190D01*
X85307912Y38583500D01*
X85174756Y38583500D01*
X85039963Y38568857D01*
X84956609Y38540805D01*
X84874796Y38513272D01*
X84874794Y38513271D01*
X84868325Y38511094D01*
X84713095Y38417823D01*
X84708138Y38413135D01*
X84708135Y38413133D01*
X84653329Y38361305D01*
X84581515Y38293393D01*
X84577683Y38287755D01*
X84577680Y38287751D01*
X84483558Y38149255D01*
X84479723Y38143612D01*
X84412470Y37975466D01*
X84411356Y37968738D01*
X84411355Y37968734D01*
X84384007Y37803539D01*
X84382892Y37796802D01*
X762000Y37796802D01*
X762000Y39116000D01*
X59030496Y39116000D01*
X59050458Y38926072D01*
X59109473Y38744444D01*
X59204960Y38579056D01*
X59209378Y38574149D01*
X59209379Y38574148D01*
X59309452Y38463006D01*
X59332747Y38437134D01*
X59487248Y38324882D01*
X59493276Y38322198D01*
X59493278Y38322197D01*
X59655681Y38249891D01*
X59661712Y38247206D01*
X59755113Y38227353D01*
X59842056Y38208872D01*
X59842061Y38208872D01*
X59848513Y38207500D01*
X60039487Y38207500D01*
X60045939Y38208872D01*
X60045944Y38208872D01*
X60132887Y38227353D01*
X60226288Y38247206D01*
X60232319Y38249891D01*
X60394722Y38322197D01*
X60394724Y38322198D01*
X60400752Y38324882D01*
X60555253Y38437134D01*
X60578548Y38463006D01*
X60678621Y38574148D01*
X60678622Y38574149D01*
X60683040Y38579056D01*
X60778527Y38744444D01*
X60837542Y38926072D01*
X60857504Y39116000D01*
X60837542Y39305928D01*
X60778527Y39487556D01*
X60683040Y39652944D01*
X60555253Y39794866D01*
X60400752Y39907118D01*
X60394724Y39909802D01*
X60394722Y39909803D01*
X60232319Y39982109D01*
X60232318Y39982109D01*
X60226288Y39984794D01*
X60132888Y40004647D01*
X60045944Y40023128D01*
X60045939Y40023128D01*
X60039487Y40024500D01*
X59848513Y40024500D01*
X59842061Y40023128D01*
X59842056Y40023128D01*
X59755112Y40004647D01*
X59661712Y39984794D01*
X59655682Y39982109D01*
X59655681Y39982109D01*
X59493278Y39909803D01*
X59493276Y39909802D01*
X59487248Y39907118D01*
X59332747Y39794866D01*
X59204960Y39652944D01*
X59109473Y39487556D01*
X59050458Y39305928D01*
X59030496Y39116000D01*
X762000Y39116000D01*
X762000Y43576802D01*
X84382892Y43576802D01*
X84383249Y43569985D01*
X84383249Y43569981D01*
X84388151Y43476461D01*
X84392370Y43395953D01*
X84394181Y43389380D01*
X84394181Y43389377D01*
X84417551Y43304534D01*
X84440461Y43221359D01*
X84524922Y43061164D01*
X84529327Y43055951D01*
X84529330Y43055947D01*
X84637406Y42928057D01*
X84637410Y42928053D01*
X84641813Y42922843D01*
X84647237Y42918696D01*
X84647238Y42918695D01*
X84780257Y42816994D01*
X84780261Y42816991D01*
X84785678Y42812850D01*
X84872372Y42772424D01*
X84943631Y42739195D01*
X84943634Y42739194D01*
X84949808Y42736315D01*
X84956456Y42734829D01*
X84956459Y42734828D01*
X85062421Y42711143D01*
X85126543Y42696810D01*
X85132088Y42696500D01*
X85265244Y42696500D01*
X85400037Y42711143D01*
X85518190Y42750906D01*
X85565204Y42766728D01*
X85565206Y42766729D01*
X85571675Y42768906D01*
X85726905Y42862177D01*
X85731862Y42866865D01*
X85731865Y42866867D01*
X85853527Y42981918D01*
X85853529Y42981920D01*
X85858485Y42986607D01*
X85862317Y42992245D01*
X85862320Y42992249D01*
X85956442Y43130745D01*
X85960277Y43136388D01*
X86027530Y43304534D01*
X86028644Y43311262D01*
X86028645Y43311266D01*
X86055993Y43476461D01*
X86055993Y43476464D01*
X86057108Y43483198D01*
X86052203Y43576802D01*
X86047987Y43657234D01*
X86047630Y43664047D01*
X86024304Y43748734D01*
X86001352Y43832059D01*
X85999539Y43838641D01*
X85915078Y43998836D01*
X85910673Y44004049D01*
X85910670Y44004053D01*
X85802594Y44131943D01*
X85802590Y44131947D01*
X85798187Y44137157D01*
X85792762Y44141305D01*
X85659743Y44243006D01*
X85659739Y44243009D01*
X85654322Y44247150D01*
X85549186Y44296175D01*
X85496369Y44320805D01*
X85496366Y44320806D01*
X85490192Y44323685D01*
X85483544Y44325171D01*
X85483541Y44325172D01*
X85318494Y44362064D01*
X85318495Y44362064D01*
X85313457Y44363190D01*
X85307912Y44363500D01*
X85174756Y44363500D01*
X85039963Y44348857D01*
X84956609Y44320805D01*
X84874796Y44293272D01*
X84874794Y44293271D01*
X84868325Y44291094D01*
X84713095Y44197823D01*
X84708138Y44193135D01*
X84708135Y44193133D01*
X84653329Y44141305D01*
X84581515Y44073393D01*
X84577683Y44067755D01*
X84577680Y44067751D01*
X84526740Y43992795D01*
X84479723Y43923612D01*
X84412470Y43755466D01*
X84411356Y43748738D01*
X84411355Y43748734D01*
X84384007Y43583539D01*
X84382892Y43576802D01*
X762000Y43576802D01*
X762000Y44909866D01*
X44671100Y44909866D01*
X44677855Y44847684D01*
X44728985Y44711295D01*
X44816339Y44594739D01*
X44932895Y44507385D01*
X45069284Y44456255D01*
X45131466Y44449500D01*
X46751734Y44449500D01*
X46813916Y44456255D01*
X46950305Y44507385D01*
X47066861Y44594739D01*
X47154215Y44711295D01*
X47205345Y44847684D01*
X47212100Y44909866D01*
X48361100Y44909866D01*
X48367855Y44847684D01*
X48418985Y44711295D01*
X48506339Y44594739D01*
X48622895Y44507385D01*
X48759284Y44456255D01*
X48821466Y44449500D01*
X50441734Y44449500D01*
X50503916Y44456255D01*
X50640305Y44507385D01*
X50756861Y44594739D01*
X50844215Y44711295D01*
X50895345Y44847684D01*
X50902100Y44909866D01*
X50902100Y46530134D01*
X50895345Y46592316D01*
X50844215Y46728705D01*
X50756861Y46845261D01*
X50640305Y46932615D01*
X50503916Y46983745D01*
X50441734Y46990500D01*
X48821466Y46990500D01*
X48759284Y46983745D01*
X48622895Y46932615D01*
X48506339Y46845261D01*
X48418985Y46728705D01*
X48367855Y46592316D01*
X48361100Y46530134D01*
X48361100Y44909866D01*
X47212100Y44909866D01*
X47212100Y46530134D01*
X47205345Y46592316D01*
X47154215Y46728705D01*
X47066861Y46845261D01*
X46950305Y46932615D01*
X46813916Y46983745D01*
X46751734Y46990500D01*
X45131466Y46990500D01*
X45069284Y46983745D01*
X44932895Y46932615D01*
X44816339Y46845261D01*
X44728985Y46728705D01*
X44677855Y46592316D01*
X44671100Y46530134D01*
X44671100Y44909866D01*
X762000Y44909866D01*
X762000Y49912000D01*
X782002Y49980121D01*
X835658Y50026614D01*
X888000Y50038000D01*
X90552000Y50038000D01*
X90620121Y50017998D01*
G37*
%TD.AperFunction*%
%TD*%
M02*
