%TF.GenerationSoftware,KiCad,Pcbnew,6.0.4-6f826c9f35~116~ubuntu20.04.1*%
%TF.CreationDate,2022-05-21T18:43:43+00:00*%
%TF.ProjectId,USTSIPIN02A,55535453-4950-4494-9e30-32412e6b6963,REV*%
%TF.SameCoordinates,Original*%
%TF.FileFunction,Copper,L1,Top*%
%TF.FilePolarity,Positive*%
%FSLAX46Y46*%
G04 Gerber Fmt 4.6, Leading zero omitted, Abs format (unit mm)*
G04 Created by KiCad (PCBNEW 6.0.4-6f826c9f35~116~ubuntu20.04.1) date 2022-05-21 18:43:43*
%MOMM*%
%LPD*%
G01*
G04 APERTURE LIST*
G04 Aperture macros list*
%AMRoundRect*
0 Rectangle with rounded corners*
0 $1 Rounding radius*
0 $2 $3 $4 $5 $6 $7 $8 $9 X,Y pos of 4 corners*
0 Add a 4 corners polygon primitive as box body*
4,1,4,$2,$3,$4,$5,$6,$7,$8,$9,$2,$3,0*
0 Add four circle primitives for the rounded corners*
1,1,$1+$1,$2,$3*
1,1,$1+$1,$4,$5*
1,1,$1+$1,$6,$7*
1,1,$1+$1,$8,$9*
0 Add four rect primitives between the rounded corners*
20,1,$1+$1,$2,$3,$4,$5,0*
20,1,$1+$1,$4,$5,$6,$7,0*
20,1,$1+$1,$6,$7,$8,$9,0*
20,1,$1+$1,$8,$9,$2,$3,0*%
G04 Aperture macros list end*
%TA.AperFunction,ComponentPad*%
%ADD10C,6.000000*%
%TD*%
%TA.AperFunction,ComponentPad*%
%ADD11C,1.524000*%
%TD*%
%TA.AperFunction,SMDPad,CuDef*%
%ADD12R,1.524000X1.524000*%
%TD*%
%TA.AperFunction,ComponentPad*%
%ADD13C,1.500000*%
%TD*%
%TA.AperFunction,SMDPad,CuDef*%
%ADD14RoundRect,0.200000X-0.200000X-0.275000X0.200000X-0.275000X0.200000X0.275000X-0.200000X0.275000X0*%
%TD*%
%TA.AperFunction,SMDPad,CuDef*%
%ADD15RoundRect,0.250000X-0.625000X0.375000X-0.625000X-0.375000X0.625000X-0.375000X0.625000X0.375000X0*%
%TD*%
%TA.AperFunction,ComponentPad*%
%ADD16R,1.524000X1.524000*%
%TD*%
%TA.AperFunction,SMDPad,CuDef*%
%ADD17RoundRect,0.225000X0.225000X0.250000X-0.225000X0.250000X-0.225000X-0.250000X0.225000X-0.250000X0*%
%TD*%
%TA.AperFunction,SMDPad,CuDef*%
%ADD18R,1.780000X5.080000*%
%TD*%
%TA.AperFunction,SMDPad,CuDef*%
%ADD19R,3.960000X3.960000*%
%TD*%
%TA.AperFunction,SMDPad,CuDef*%
%ADD20R,1.600000X1.200000*%
%TD*%
%TA.AperFunction,SMDPad,CuDef*%
%ADD21R,5.000000X2.500000*%
%TD*%
%TA.AperFunction,ComponentPad*%
%ADD22O,2.000000X1.000000*%
%TD*%
%TA.AperFunction,ComponentPad*%
%ADD23O,2.100000X1.050000*%
%TD*%
%TA.AperFunction,ViaPad*%
%ADD24C,0.800000*%
%TD*%
%TA.AperFunction,Conductor*%
%ADD25C,0.250000*%
%TD*%
%TA.AperFunction,Conductor*%
%ADD26C,0.400000*%
%TD*%
%TA.AperFunction,Conductor*%
%ADD27C,0.300000*%
%TD*%
G04 APERTURE END LIST*
D10*
%TO.P,M2,1*%
%TO.N,GND*%
X76200000Y45720000D03*
%TD*%
%TO.P,M3,1*%
%TO.N,GND*%
X5080000Y45720000D03*
%TD*%
%TO.P,M4,1*%
%TO.N,GND*%
X5080000Y5080000D03*
%TD*%
D11*
%TO.P,D2,1,K*%
%TO.N,/K*%
X15360000Y34190000D03*
%TO.P,D2,2,A*%
%TO.N,/A*%
X10360000Y34190000D03*
%TD*%
D12*
%TO.P,J22,1*%
%TO.N,/cpu/PB6*%
X41524000Y17714000D03*
%TO.P,J22,2*%
%TO.N,+3V3*%
X38984000Y17714000D03*
%TO.P,J22,3*%
%TO.N,/cpu/PB7*%
X41524000Y20254000D03*
%TO.P,J22,4*%
%TO.N,/cpu/PB5*%
X38984000Y20254000D03*
%TO.P,J22,5*%
%TO.N,/cpu/RST#_P*%
X41524000Y22794000D03*
%TO.P,J22,6*%
%TO.N,GND*%
X38984000Y22794000D03*
%TD*%
D10*
%TO.P,M1,1*%
%TO.N,GND*%
X76200000Y5080000D03*
%TD*%
D13*
%TO.P,Y1,1,1*%
%TO.N,Net-(C30-Pad1)*%
X41910000Y31750000D03*
%TO.P,Y1,2,2*%
%TO.N,Net-(C33-Pad1)*%
X41910000Y36630000D03*
%TD*%
D14*
%TO.P,R17,1*%
%TO.N,/cpu/PB4*%
X49975000Y32004000D03*
%TO.P,R17,2*%
%TO.N,Net-(J2-Pad1)*%
X51625000Y32004000D03*
%TD*%
%TO.P,R25,1*%
%TO.N,/cpu/PB6*%
X49975000Y17018000D03*
%TO.P,R25,2*%
%TO.N,Net-(J2-Pad7)*%
X51625000Y17018000D03*
%TD*%
D15*
%TO.P,D9,1,K*%
%TO.N,Net-(D9-Pad1)*%
X54254000Y6480000D03*
%TO.P,D9,2,A*%
%TO.N,Vin*%
X54254000Y3680000D03*
%TD*%
D14*
%TO.P,R24,1*%
%TO.N,/cpu/PB7*%
X49975000Y21336000D03*
%TO.P,R24,2*%
%TO.N,Net-(J2-Pad5)*%
X51625000Y21336000D03*
%TD*%
D15*
%TO.P,D7,1,K*%
%TO.N,Net-(D7-Pad1)*%
X49254000Y6480000D03*
%TO.P,D7,2,A*%
%TO.N,Vin*%
X49254000Y3680000D03*
%TD*%
D16*
%TO.P,J6,1*%
%TO.N,/cpu/PC4*%
X61722000Y45720000D03*
%TD*%
D17*
%TO.P,C25,1*%
%TO.N,/cpu/SD_VDD*%
X51575000Y25146000D03*
%TO.P,C25,2*%
%TO.N,GND*%
X50025000Y25146000D03*
%TD*%
D15*
%TO.P,D4,1,K*%
%TO.N,Net-(D4-Pad1)*%
X64254000Y6480000D03*
%TO.P,D4,2,A*%
%TO.N,+3V3*%
X64254000Y3680000D03*
%TD*%
D17*
%TO.P,C22,1*%
%TO.N,/cpu/SD_VDD*%
X51575000Y23368000D03*
%TO.P,C22,2*%
%TO.N,GND*%
X50025000Y23368000D03*
%TD*%
D16*
%TO.P,J5,1*%
%TO.N,/cpu/PC3*%
X59182000Y45720000D03*
%TD*%
D15*
%TO.P,D3,1,K*%
%TO.N,Net-(D3-Pad1)*%
X69254000Y6480000D03*
%TO.P,D3,2,A*%
%TO.N,+3V3*%
X69254000Y3680000D03*
%TD*%
%TO.P,D10,1,K*%
%TO.N,Net-(D10-Pad1)*%
X69254000Y47120000D03*
%TO.P,D10,2,A*%
%TO.N,+3V3*%
X69254000Y44320000D03*
%TD*%
D14*
%TO.P,R18,1*%
%TO.N,/cpu/PB5*%
X49975000Y29464000D03*
%TO.P,R18,2*%
%TO.N,Net-(J2-Pad2)*%
X51625000Y29464000D03*
%TD*%
D18*
%TO.P,BT1,1,+*%
%TO.N,Net-(BT1-Pad1)*%
X39242000Y45466000D03*
X48642000Y45466000D03*
D19*
%TO.P,BT1,2,-*%
%TO.N,GND*%
X43942000Y45466000D03*
%TD*%
D20*
%TO.P,J2,1,CD/DAT3*%
%TO.N,Net-(J2-Pad1)*%
X54986000Y32060000D03*
%TO.P,J2,2,CMD*%
%TO.N,Net-(J2-Pad2)*%
X54986000Y29560000D03*
%TO.P,J2,3,VSS*%
%TO.N,GND*%
X54986000Y27060000D03*
%TO.P,J2,4,VDD*%
%TO.N,/cpu/SD_VDD*%
X54986000Y24560000D03*
%TO.P,J2,5,CLK*%
%TO.N,Net-(J2-Pad5)*%
X54986000Y22060000D03*
%TO.P,J2,6,VSS*%
%TO.N,GND*%
X54986000Y19560000D03*
%TO.P,J2,7,DAT0*%
%TO.N,Net-(J2-Pad7)*%
X54986000Y17130000D03*
%TO.P,J2,8,DAT1*%
%TO.N,unconnected-(J2-Pad8)*%
X54986000Y15330000D03*
%TO.P,J2,9,DAT2*%
%TO.N,unconnected-(J2-Pad9)*%
X54986000Y34560000D03*
D21*
%TO.P,J2,12,SHELL1*%
%TO.N,GND*%
X58486000Y41895000D03*
X58486000Y11445000D03*
X82686000Y41895000D03*
X88686000Y11445000D03*
%TD*%
D15*
%TO.P,D8,1,K*%
%TO.N,Net-(D8-Pad1)*%
X59254000Y6480000D03*
%TO.P,D8,2,A*%
%TO.N,Vin*%
X59254000Y3680000D03*
%TD*%
D22*
%TO.P,J4,G1,SHIELD*%
%TO.N,GND*%
X88392000Y11062500D03*
%TO.P,J4,G2,SHIELD*%
X88392000Y2422500D03*
D23*
%TO.P,J4,G3,SHIELD*%
X84212000Y11062500D03*
%TO.P,J4,G4,SHIELD*%
X84212000Y2422500D03*
%TD*%
D24*
%TO.N,GND*%
X14732000Y12344400D03*
X19913600Y24130000D03*
X19913600Y25552400D03*
X9956800Y14224000D03*
X4622800Y16256000D03*
X4445000Y18415000D03*
X3175000Y19685000D03*
X2540000Y20955000D03*
X2540000Y22225000D03*
X2540000Y24130000D03*
X2540000Y26035000D03*
X2540000Y27940000D03*
X2540000Y29845000D03*
X3302000Y31648400D03*
X2540000Y33020000D03*
X5715000Y33020000D03*
X6985000Y31750000D03*
X7620000Y33020000D03*
X5537200Y34290000D03*
X5080000Y35560000D03*
X18288000Y29921200D03*
X19456400Y29972000D03*
X20624800Y29972000D03*
X6096000Y36576000D03*
X10320000Y27680000D03*
X15138400Y25552400D03*
X24587200Y21996400D03*
X22352000Y39065200D03*
X4064000Y34544000D03*
X10319457Y30200565D03*
X29870400Y18338800D03*
X30480000Y14630400D03*
X23368000Y16052800D03*
X4986000Y26918000D03*
X9304000Y22092000D03*
X13462000Y21590000D03*
X10668000Y21965000D03*
X19253200Y15544800D03*
X12225000Y21965000D03*
X18186400Y25501600D03*
X19151600Y17373600D03*
X30327600Y16967200D03*
X12860000Y23870000D03*
X19100800Y19253200D03*
X16611600Y25501600D03*
X4986000Y25648000D03*
X24739600Y17475200D03*
X10320000Y28950000D03*
X23622000Y21996400D03*
X10320000Y25775000D03*
X23368000Y14274800D03*
X23723600Y17475200D03*
X18999200Y38709600D03*
%TO.N,Net-(R13-Pad2)*%
X26365200Y30429200D03*
X26365200Y23215600D03*
%TO.N,PA1*%
X28143200Y11176000D03*
X28651200Y26924000D03*
%TO.N,POWER_ANALOG_3V3*%
X31191200Y35255200D03*
X28969000Y13017800D03*
%TO.N,Net-(D3-Pad1)*%
X69342000Y7620000D03*
%TO.N,Net-(D4-Pad1)*%
X64262000Y7874000D03*
%TO.N,Net-(D7-Pad1)*%
X48260000Y8382000D03*
%TO.N,Net-(D8-Pad1)*%
X58166000Y8382000D03*
%TO.N,/power/D+*%
X81788000Y7112000D03*
X81026000Y12700000D03*
%TO.N,Net-(D9-Pad1)*%
X53314168Y8153832D03*
%TO.N,/power/VBUS*%
X73152000Y12700000D03*
X82083519Y13503519D03*
X82042000Y17526000D03*
X82804000Y27178000D03*
%TD*%
D25*
%TO.N,*%
X44958000Y38354000D02*
X44196000Y39116000D01*
%TO.N,GND*%
X4986000Y25648000D02*
X4986000Y26918000D01*
X10320000Y28950000D02*
X10320000Y27680000D01*
X13495000Y31490000D02*
X12205565Y30200565D01*
X12205565Y30200565D02*
X10319457Y30200565D01*
X12225000Y21965000D02*
X14130000Y21965000D01*
D26*
%TO.N,/cpu/SD_VDD*%
X51575000Y24397000D02*
X51575000Y23368000D01*
X51738000Y24560000D02*
X51575000Y24397000D01*
X54986000Y24560000D02*
X51738000Y24560000D01*
X51575000Y25146000D02*
X51575000Y24397000D01*
%TO.N,Net-(D3-Pad1)*%
X69254000Y6480000D02*
X69254000Y7532000D01*
X69254000Y7532000D02*
X69342000Y7620000D01*
%TO.N,Net-(D4-Pad1)*%
X64254000Y7866000D02*
X64262000Y7874000D01*
X64254000Y6480000D02*
X64254000Y7866000D01*
%TO.N,Net-(D7-Pad1)*%
X48260000Y7474000D02*
X49254000Y6480000D01*
X48260000Y8382000D02*
X48260000Y7474000D01*
%TO.N,Net-(J2-Pad1)*%
X54986000Y32060000D02*
X51681000Y32060000D01*
X51681000Y32060000D02*
X51625000Y32004000D01*
%TO.N,Net-(J2-Pad2)*%
X54986000Y29560000D02*
X51721000Y29560000D01*
X51721000Y29560000D02*
X51625000Y29464000D01*
%TO.N,Net-(J2-Pad5)*%
X54986000Y22060000D02*
X52349000Y22060000D01*
X52349000Y22060000D02*
X51625000Y21336000D01*
%TO.N,Net-(J2-Pad7)*%
X54986000Y17130000D02*
X51737000Y17130000D01*
X51737000Y17130000D02*
X51625000Y17018000D01*
%TO.N,Net-(D8-Pad1)*%
X58166000Y7568000D02*
X59254000Y6480000D01*
X58166000Y8382000D02*
X58166000Y7568000D01*
D27*
%TO.N,/power/D+*%
X81026000Y7874000D02*
X81026000Y12192000D01*
X81788000Y7112000D02*
X81026000Y7874000D01*
X81026000Y12192000D02*
X81026000Y12700000D01*
D26*
%TO.N,Net-(D9-Pad1)*%
X53314168Y8153832D02*
X53314168Y7419832D01*
X53314168Y7419832D02*
X54254000Y6480000D01*
%TO.N,/power/VBUS*%
X82042000Y17526000D02*
X82804000Y18288000D01*
X82804000Y18288000D02*
X82804000Y27178000D01*
X82079511Y13499511D02*
X82083519Y13503519D01*
X73152000Y12700000D02*
X73951511Y13499511D01*
X73951511Y13499511D02*
X82079511Y13499511D01*
%TD*%
%TA.AperFunction,Conductor*%
%TO.N,GND*%
G36*
X90619621Y50017498D02*
G01*
X90666114Y49963842D01*
X90677500Y49911500D01*
X90677500Y888500D01*
X90657498Y820379D01*
X90603842Y773886D01*
X90551500Y762500D01*
X888500Y762500D01*
X820379Y782502D01*
X773886Y836158D01*
X762500Y888500D01*
X762500Y3254600D01*
X47870500Y3254600D01*
X47870837Y3251354D01*
X47870837Y3251350D01*
X47878120Y3181161D01*
X47881474Y3148834D01*
X47883655Y3142298D01*
X47883655Y3142296D01*
X47901360Y3089228D01*
X47937450Y2981054D01*
X48030522Y2830652D01*
X48155697Y2705695D01*
X48161927Y2701855D01*
X48161928Y2701854D01*
X48299090Y2617306D01*
X48306262Y2612885D01*
X48386005Y2586436D01*
X48467611Y2559368D01*
X48467613Y2559368D01*
X48474139Y2557203D01*
X48480975Y2556503D01*
X48480978Y2556502D01*
X48524031Y2552091D01*
X48578600Y2546500D01*
X49929400Y2546500D01*
X49932646Y2546837D01*
X49932650Y2546837D01*
X50028308Y2556762D01*
X50028312Y2556763D01*
X50035166Y2557474D01*
X50041702Y2559655D01*
X50041704Y2559655D01*
X50173806Y2603728D01*
X50202946Y2613450D01*
X50353348Y2706522D01*
X50478305Y2831697D01*
X50571115Y2982262D01*
X50626797Y3150139D01*
X50629976Y3181161D01*
X50631909Y3200031D01*
X50637500Y3254600D01*
X52870500Y3254600D01*
X52870837Y3251354D01*
X52870837Y3251350D01*
X52878120Y3181161D01*
X52881474Y3148834D01*
X52883655Y3142298D01*
X52883655Y3142296D01*
X52901360Y3089228D01*
X52937450Y2981054D01*
X53030522Y2830652D01*
X53155697Y2705695D01*
X53161927Y2701855D01*
X53161928Y2701854D01*
X53299090Y2617306D01*
X53306262Y2612885D01*
X53386005Y2586436D01*
X53467611Y2559368D01*
X53467613Y2559368D01*
X53474139Y2557203D01*
X53480975Y2556503D01*
X53480978Y2556502D01*
X53524031Y2552091D01*
X53578600Y2546500D01*
X54929400Y2546500D01*
X54932646Y2546837D01*
X54932650Y2546837D01*
X55028308Y2556762D01*
X55028312Y2556763D01*
X55035166Y2557474D01*
X55041702Y2559655D01*
X55041704Y2559655D01*
X55173806Y2603728D01*
X55202946Y2613450D01*
X55353348Y2706522D01*
X55478305Y2831697D01*
X55571115Y2982262D01*
X55626797Y3150139D01*
X55629976Y3181161D01*
X55631909Y3200031D01*
X55637500Y3254600D01*
X57870500Y3254600D01*
X57870837Y3251354D01*
X57870837Y3251350D01*
X57878120Y3181161D01*
X57881474Y3148834D01*
X57883655Y3142298D01*
X57883655Y3142296D01*
X57901360Y3089228D01*
X57937450Y2981054D01*
X58030522Y2830652D01*
X58155697Y2705695D01*
X58161927Y2701855D01*
X58161928Y2701854D01*
X58299090Y2617306D01*
X58306262Y2612885D01*
X58386005Y2586436D01*
X58467611Y2559368D01*
X58467613Y2559368D01*
X58474139Y2557203D01*
X58480975Y2556503D01*
X58480978Y2556502D01*
X58524031Y2552091D01*
X58578600Y2546500D01*
X59929400Y2546500D01*
X59932646Y2546837D01*
X59932650Y2546837D01*
X60028308Y2556762D01*
X60028312Y2556763D01*
X60035166Y2557474D01*
X60041702Y2559655D01*
X60041704Y2559655D01*
X60173806Y2603728D01*
X60202946Y2613450D01*
X60353348Y2706522D01*
X60478305Y2831697D01*
X60571115Y2982262D01*
X60626797Y3150139D01*
X60629976Y3181161D01*
X60631909Y3200031D01*
X60637500Y3254600D01*
X62870500Y3254600D01*
X62870837Y3251354D01*
X62870837Y3251350D01*
X62878120Y3181161D01*
X62881474Y3148834D01*
X62883655Y3142298D01*
X62883655Y3142296D01*
X62901360Y3089228D01*
X62937450Y2981054D01*
X63030522Y2830652D01*
X63155697Y2705695D01*
X63161927Y2701855D01*
X63161928Y2701854D01*
X63299090Y2617306D01*
X63306262Y2612885D01*
X63386005Y2586436D01*
X63467611Y2559368D01*
X63467613Y2559368D01*
X63474139Y2557203D01*
X63480975Y2556503D01*
X63480978Y2556502D01*
X63524031Y2552091D01*
X63578600Y2546500D01*
X64929400Y2546500D01*
X64932646Y2546837D01*
X64932650Y2546837D01*
X65028308Y2556762D01*
X65028312Y2556763D01*
X65035166Y2557474D01*
X65041702Y2559655D01*
X65041704Y2559655D01*
X65173806Y2603728D01*
X65202946Y2613450D01*
X65353348Y2706522D01*
X65478305Y2831697D01*
X65571115Y2982262D01*
X65626797Y3150139D01*
X65629976Y3181161D01*
X65631909Y3200031D01*
X65637500Y3254600D01*
X67870500Y3254600D01*
X67870837Y3251354D01*
X67870837Y3251350D01*
X67878120Y3181161D01*
X67881474Y3148834D01*
X67883655Y3142298D01*
X67883655Y3142296D01*
X67901360Y3089228D01*
X67937450Y2981054D01*
X68030522Y2830652D01*
X68155697Y2705695D01*
X68161927Y2701855D01*
X68161928Y2701854D01*
X68299090Y2617306D01*
X68306262Y2612885D01*
X68386005Y2586436D01*
X68467611Y2559368D01*
X68467613Y2559368D01*
X68474139Y2557203D01*
X68480975Y2556503D01*
X68480978Y2556502D01*
X68524031Y2552091D01*
X68578600Y2546500D01*
X69929400Y2546500D01*
X69932646Y2546837D01*
X69932650Y2546837D01*
X70028308Y2556762D01*
X70028312Y2556763D01*
X70035166Y2557474D01*
X70041702Y2559655D01*
X70041704Y2559655D01*
X70173806Y2603728D01*
X70202946Y2613450D01*
X70353348Y2706522D01*
X70478305Y2831697D01*
X70571115Y2982262D01*
X70626797Y3150139D01*
X70629976Y3181161D01*
X70631909Y3200031D01*
X70637500Y3254600D01*
X70637500Y3899302D01*
X83874892Y3899302D01*
X83875249Y3892485D01*
X83875249Y3892481D01*
X83880151Y3798961D01*
X83884370Y3718453D01*
X83886181Y3711880D01*
X83886181Y3711877D01*
X83909551Y3627034D01*
X83932461Y3543859D01*
X84016922Y3383664D01*
X84021327Y3378451D01*
X84021330Y3378447D01*
X84129406Y3250557D01*
X84129410Y3250553D01*
X84133813Y3245343D01*
X84139237Y3241196D01*
X84139238Y3241195D01*
X84272257Y3139494D01*
X84272261Y3139491D01*
X84277678Y3135350D01*
X84364372Y3094924D01*
X84435631Y3061695D01*
X84435634Y3061694D01*
X84441808Y3058815D01*
X84448456Y3057329D01*
X84448459Y3057328D01*
X84554421Y3033643D01*
X84618543Y3019310D01*
X84624088Y3019000D01*
X84757244Y3019000D01*
X84892037Y3033643D01*
X85010190Y3073406D01*
X85057204Y3089228D01*
X85057206Y3089229D01*
X85063675Y3091406D01*
X85218905Y3184677D01*
X85223862Y3189365D01*
X85223865Y3189367D01*
X85345527Y3304418D01*
X85345529Y3304420D01*
X85350485Y3309107D01*
X85354317Y3314745D01*
X85354320Y3314749D01*
X85448442Y3453245D01*
X85452277Y3458888D01*
X85519530Y3627034D01*
X85520644Y3633762D01*
X85520645Y3633766D01*
X85547993Y3798961D01*
X85547993Y3798964D01*
X85549108Y3805698D01*
X85544203Y3899302D01*
X85539987Y3979734D01*
X85539630Y3986547D01*
X85516304Y4071234D01*
X85493352Y4154559D01*
X85491539Y4161141D01*
X85407078Y4321336D01*
X85402673Y4326549D01*
X85402670Y4326553D01*
X85294594Y4454443D01*
X85294590Y4454447D01*
X85290187Y4459657D01*
X85284762Y4463805D01*
X85151743Y4565506D01*
X85151739Y4565509D01*
X85146322Y4569650D01*
X85041186Y4618675D01*
X84988369Y4643305D01*
X84988366Y4643306D01*
X84982192Y4646185D01*
X84975544Y4647671D01*
X84975541Y4647672D01*
X84810494Y4684564D01*
X84810495Y4684564D01*
X84805457Y4685690D01*
X84799912Y4686000D01*
X84666756Y4686000D01*
X84531963Y4671357D01*
X84448609Y4643305D01*
X84366796Y4615772D01*
X84366794Y4615771D01*
X84360325Y4613594D01*
X84205095Y4520323D01*
X84200138Y4515635D01*
X84200135Y4515633D01*
X84145329Y4463805D01*
X84073515Y4395893D01*
X84069683Y4390255D01*
X84069680Y4390251D01*
X84018740Y4315295D01*
X83971723Y4246112D01*
X83904470Y4077966D01*
X83903356Y4071238D01*
X83903355Y4071234D01*
X83876007Y3906039D01*
X83874892Y3899302D01*
X70637500Y3899302D01*
X70637500Y4105400D01*
X70637163Y4108650D01*
X70627238Y4204308D01*
X70627237Y4204312D01*
X70626526Y4211166D01*
X70612985Y4251755D01*
X70572868Y4371998D01*
X70570550Y4378946D01*
X70477478Y4529348D01*
X70352303Y4654305D01*
X70346072Y4658146D01*
X70207968Y4743275D01*
X70207966Y4743276D01*
X70201738Y4747115D01*
X70041254Y4800345D01*
X70040389Y4800632D01*
X70040387Y4800632D01*
X70033861Y4802797D01*
X70027025Y4803497D01*
X70027022Y4803498D01*
X69983969Y4807909D01*
X69929400Y4813500D01*
X68578600Y4813500D01*
X68575354Y4813163D01*
X68575350Y4813163D01*
X68479692Y4803238D01*
X68479688Y4803237D01*
X68472834Y4802526D01*
X68466298Y4800345D01*
X68466296Y4800345D01*
X68334194Y4756272D01*
X68305054Y4746550D01*
X68154652Y4653478D01*
X68029695Y4528303D01*
X67936885Y4377738D01*
X67934581Y4370791D01*
X67895099Y4251755D01*
X67881203Y4209861D01*
X67870500Y4105400D01*
X67870500Y3254600D01*
X65637500Y3254600D01*
X65637500Y4105400D01*
X65637163Y4108650D01*
X65627238Y4204308D01*
X65627237Y4204312D01*
X65626526Y4211166D01*
X65612985Y4251755D01*
X65572868Y4371998D01*
X65570550Y4378946D01*
X65477478Y4529348D01*
X65352303Y4654305D01*
X65346072Y4658146D01*
X65207968Y4743275D01*
X65207966Y4743276D01*
X65201738Y4747115D01*
X65041254Y4800345D01*
X65040389Y4800632D01*
X65040387Y4800632D01*
X65033861Y4802797D01*
X65027025Y4803497D01*
X65027022Y4803498D01*
X64983969Y4807909D01*
X64929400Y4813500D01*
X63578600Y4813500D01*
X63575354Y4813163D01*
X63575350Y4813163D01*
X63479692Y4803238D01*
X63479688Y4803237D01*
X63472834Y4802526D01*
X63466298Y4800345D01*
X63466296Y4800345D01*
X63334194Y4756272D01*
X63305054Y4746550D01*
X63154652Y4653478D01*
X63029695Y4528303D01*
X62936885Y4377738D01*
X62934581Y4370791D01*
X62895099Y4251755D01*
X62881203Y4209861D01*
X62870500Y4105400D01*
X62870500Y3254600D01*
X60637500Y3254600D01*
X60637500Y4105400D01*
X60637163Y4108650D01*
X60627238Y4204308D01*
X60627237Y4204312D01*
X60626526Y4211166D01*
X60612985Y4251755D01*
X60572868Y4371998D01*
X60570550Y4378946D01*
X60477478Y4529348D01*
X60352303Y4654305D01*
X60346072Y4658146D01*
X60207968Y4743275D01*
X60207966Y4743276D01*
X60201738Y4747115D01*
X60041254Y4800345D01*
X60040389Y4800632D01*
X60040387Y4800632D01*
X60033861Y4802797D01*
X60027025Y4803497D01*
X60027022Y4803498D01*
X59983969Y4807909D01*
X59929400Y4813500D01*
X58578600Y4813500D01*
X58575354Y4813163D01*
X58575350Y4813163D01*
X58479692Y4803238D01*
X58479688Y4803237D01*
X58472834Y4802526D01*
X58466298Y4800345D01*
X58466296Y4800345D01*
X58334194Y4756272D01*
X58305054Y4746550D01*
X58154652Y4653478D01*
X58029695Y4528303D01*
X57936885Y4377738D01*
X57934581Y4370791D01*
X57895099Y4251755D01*
X57881203Y4209861D01*
X57870500Y4105400D01*
X57870500Y3254600D01*
X55637500Y3254600D01*
X55637500Y4105400D01*
X55637163Y4108650D01*
X55627238Y4204308D01*
X55627237Y4204312D01*
X55626526Y4211166D01*
X55612985Y4251755D01*
X55572868Y4371998D01*
X55570550Y4378946D01*
X55477478Y4529348D01*
X55352303Y4654305D01*
X55346072Y4658146D01*
X55207968Y4743275D01*
X55207966Y4743276D01*
X55201738Y4747115D01*
X55041254Y4800345D01*
X55040389Y4800632D01*
X55040387Y4800632D01*
X55033861Y4802797D01*
X55027025Y4803497D01*
X55027022Y4803498D01*
X54983969Y4807909D01*
X54929400Y4813500D01*
X53578600Y4813500D01*
X53575354Y4813163D01*
X53575350Y4813163D01*
X53479692Y4803238D01*
X53479688Y4803237D01*
X53472834Y4802526D01*
X53466298Y4800345D01*
X53466296Y4800345D01*
X53334194Y4756272D01*
X53305054Y4746550D01*
X53154652Y4653478D01*
X53029695Y4528303D01*
X52936885Y4377738D01*
X52934581Y4370791D01*
X52895099Y4251755D01*
X52881203Y4209861D01*
X52870500Y4105400D01*
X52870500Y3254600D01*
X50637500Y3254600D01*
X50637500Y4105400D01*
X50637163Y4108650D01*
X50627238Y4204308D01*
X50627237Y4204312D01*
X50626526Y4211166D01*
X50612985Y4251755D01*
X50572868Y4371998D01*
X50570550Y4378946D01*
X50477478Y4529348D01*
X50352303Y4654305D01*
X50346072Y4658146D01*
X50207968Y4743275D01*
X50207966Y4743276D01*
X50201738Y4747115D01*
X50041254Y4800345D01*
X50040389Y4800632D01*
X50040387Y4800632D01*
X50033861Y4802797D01*
X50027025Y4803497D01*
X50027022Y4803498D01*
X49983969Y4807909D01*
X49929400Y4813500D01*
X48578600Y4813500D01*
X48575354Y4813163D01*
X48575350Y4813163D01*
X48479692Y4803238D01*
X48479688Y4803237D01*
X48472834Y4802526D01*
X48466298Y4800345D01*
X48466296Y4800345D01*
X48334194Y4756272D01*
X48305054Y4746550D01*
X48154652Y4653478D01*
X48029695Y4528303D01*
X47936885Y4377738D01*
X47934581Y4370791D01*
X47895099Y4251755D01*
X47881203Y4209861D01*
X47870500Y4105400D01*
X47870500Y3254600D01*
X762500Y3254600D01*
X762500Y6054600D01*
X47870500Y6054600D01*
X47881474Y5948834D01*
X47937450Y5781054D01*
X48030522Y5630652D01*
X48155697Y5505695D01*
X48161927Y5501855D01*
X48161928Y5501854D01*
X48299090Y5417306D01*
X48306262Y5412885D01*
X48386005Y5386436D01*
X48467611Y5359368D01*
X48467613Y5359368D01*
X48474139Y5357203D01*
X48480975Y5356503D01*
X48480978Y5356502D01*
X48524031Y5352091D01*
X48578600Y5346500D01*
X49929400Y5346500D01*
X49932646Y5346837D01*
X49932650Y5346837D01*
X50028308Y5356762D01*
X50028312Y5356763D01*
X50035166Y5357474D01*
X50041702Y5359655D01*
X50041704Y5359655D01*
X50173806Y5403728D01*
X50202946Y5413450D01*
X50353348Y5506522D01*
X50478305Y5631697D01*
X50571115Y5782262D01*
X50626797Y5950139D01*
X50637500Y6054600D01*
X52870500Y6054600D01*
X52881474Y5948834D01*
X52937450Y5781054D01*
X53030522Y5630652D01*
X53155697Y5505695D01*
X53161927Y5501855D01*
X53161928Y5501854D01*
X53299090Y5417306D01*
X53306262Y5412885D01*
X53386005Y5386436D01*
X53467611Y5359368D01*
X53467613Y5359368D01*
X53474139Y5357203D01*
X53480975Y5356503D01*
X53480978Y5356502D01*
X53524031Y5352091D01*
X53578600Y5346500D01*
X54929400Y5346500D01*
X54932646Y5346837D01*
X54932650Y5346837D01*
X55028308Y5356762D01*
X55028312Y5356763D01*
X55035166Y5357474D01*
X55041702Y5359655D01*
X55041704Y5359655D01*
X55173806Y5403728D01*
X55202946Y5413450D01*
X55353348Y5506522D01*
X55478305Y5631697D01*
X55571115Y5782262D01*
X55626797Y5950139D01*
X55637500Y6054600D01*
X57870500Y6054600D01*
X57881474Y5948834D01*
X57937450Y5781054D01*
X58030522Y5630652D01*
X58155697Y5505695D01*
X58161927Y5501855D01*
X58161928Y5501854D01*
X58299090Y5417306D01*
X58306262Y5412885D01*
X58386005Y5386436D01*
X58467611Y5359368D01*
X58467613Y5359368D01*
X58474139Y5357203D01*
X58480975Y5356503D01*
X58480978Y5356502D01*
X58524031Y5352091D01*
X58578600Y5346500D01*
X59929400Y5346500D01*
X59932646Y5346837D01*
X59932650Y5346837D01*
X60028308Y5356762D01*
X60028312Y5356763D01*
X60035166Y5357474D01*
X60041702Y5359655D01*
X60041704Y5359655D01*
X60173806Y5403728D01*
X60202946Y5413450D01*
X60353348Y5506522D01*
X60478305Y5631697D01*
X60571115Y5782262D01*
X60626797Y5950139D01*
X60637500Y6054600D01*
X62870500Y6054600D01*
X62881474Y5948834D01*
X62937450Y5781054D01*
X63030522Y5630652D01*
X63155697Y5505695D01*
X63161927Y5501855D01*
X63161928Y5501854D01*
X63299090Y5417306D01*
X63306262Y5412885D01*
X63386005Y5386436D01*
X63467611Y5359368D01*
X63467613Y5359368D01*
X63474139Y5357203D01*
X63480975Y5356503D01*
X63480978Y5356502D01*
X63524031Y5352091D01*
X63578600Y5346500D01*
X64929400Y5346500D01*
X64932646Y5346837D01*
X64932650Y5346837D01*
X65028308Y5356762D01*
X65028312Y5356763D01*
X65035166Y5357474D01*
X65041702Y5359655D01*
X65041704Y5359655D01*
X65173806Y5403728D01*
X65202946Y5413450D01*
X65353348Y5506522D01*
X65478305Y5631697D01*
X65571115Y5782262D01*
X65626797Y5950139D01*
X65637500Y6054600D01*
X67870500Y6054600D01*
X67881474Y5948834D01*
X67937450Y5781054D01*
X68030522Y5630652D01*
X68155697Y5505695D01*
X68161927Y5501855D01*
X68161928Y5501854D01*
X68299090Y5417306D01*
X68306262Y5412885D01*
X68386005Y5386436D01*
X68467611Y5359368D01*
X68467613Y5359368D01*
X68474139Y5357203D01*
X68480975Y5356503D01*
X68480978Y5356502D01*
X68524031Y5352091D01*
X68578600Y5346500D01*
X69929400Y5346500D01*
X69932646Y5346837D01*
X69932650Y5346837D01*
X70028308Y5356762D01*
X70028312Y5356763D01*
X70035166Y5357474D01*
X70041702Y5359655D01*
X70041704Y5359655D01*
X70173806Y5403728D01*
X70202946Y5413450D01*
X70353348Y5506522D01*
X70478305Y5631697D01*
X70571115Y5782262D01*
X70626797Y5950139D01*
X70637500Y6054600D01*
X70637500Y6905400D01*
X70626526Y7011166D01*
X70592885Y7112000D01*
X80874496Y7112000D01*
X80894458Y6922072D01*
X80953473Y6740444D01*
X81048960Y6575056D01*
X81176747Y6433134D01*
X81331248Y6320882D01*
X81337276Y6318198D01*
X81337278Y6318197D01*
X81499681Y6245891D01*
X81505712Y6243206D01*
X81599112Y6223353D01*
X81686056Y6204872D01*
X81686061Y6204872D01*
X81692513Y6203500D01*
X81883487Y6203500D01*
X81889939Y6204872D01*
X81889944Y6204872D01*
X81976888Y6223353D01*
X82070288Y6243206D01*
X82076319Y6245891D01*
X82238722Y6318197D01*
X82238724Y6318198D01*
X82244752Y6320882D01*
X82399253Y6433134D01*
X82527040Y6575056D01*
X82622527Y6740444D01*
X82681542Y6922072D01*
X82701504Y7112000D01*
X82681542Y7301928D01*
X82622527Y7483556D01*
X82527040Y7648944D01*
X82399253Y7790866D01*
X82244752Y7903118D01*
X82238724Y7905802D01*
X82238722Y7905803D01*
X82076319Y7978109D01*
X82076318Y7978109D01*
X82070288Y7980794D01*
X81976888Y8000647D01*
X81889944Y8019128D01*
X81889939Y8019128D01*
X81883487Y8020500D01*
X81692513Y8020500D01*
X81686061Y8019128D01*
X81686056Y8019128D01*
X81599112Y8000647D01*
X81505712Y7980794D01*
X81499682Y7978109D01*
X81499681Y7978109D01*
X81337278Y7905803D01*
X81337276Y7905802D01*
X81331248Y7903118D01*
X81176747Y7790866D01*
X81048960Y7648944D01*
X80953473Y7483556D01*
X80894458Y7301928D01*
X80874496Y7112000D01*
X70592885Y7112000D01*
X70570550Y7178946D01*
X70477478Y7329348D01*
X70352303Y7454305D01*
X70346072Y7458146D01*
X70207968Y7543275D01*
X70207966Y7543276D01*
X70201738Y7547115D01*
X70041254Y7600345D01*
X70040389Y7600632D01*
X70040387Y7600632D01*
X70033861Y7602797D01*
X70027025Y7603497D01*
X70027022Y7603498D01*
X69983969Y7607909D01*
X69929400Y7613500D01*
X68578600Y7613500D01*
X68575354Y7613163D01*
X68575350Y7613163D01*
X68479692Y7603238D01*
X68479688Y7603237D01*
X68472834Y7602526D01*
X68466298Y7600345D01*
X68466296Y7600345D01*
X68334194Y7556272D01*
X68305054Y7546550D01*
X68154652Y7453478D01*
X68029695Y7328303D01*
X68025855Y7322073D01*
X68025854Y7322072D01*
X68009392Y7295365D01*
X67936885Y7177738D01*
X67881203Y7009861D01*
X67870500Y6905400D01*
X67870500Y6054600D01*
X65637500Y6054600D01*
X65637500Y6905400D01*
X65626526Y7011166D01*
X65570550Y7178946D01*
X65477478Y7329348D01*
X65352303Y7454305D01*
X65346072Y7458146D01*
X65207968Y7543275D01*
X65207966Y7543276D01*
X65201738Y7547115D01*
X65041254Y7600345D01*
X65040389Y7600632D01*
X65040387Y7600632D01*
X65033861Y7602797D01*
X65027025Y7603497D01*
X65027022Y7603498D01*
X64983969Y7607909D01*
X64929400Y7613500D01*
X63578600Y7613500D01*
X63575354Y7613163D01*
X63575350Y7613163D01*
X63479692Y7603238D01*
X63479688Y7603237D01*
X63472834Y7602526D01*
X63466298Y7600345D01*
X63466296Y7600345D01*
X63334194Y7556272D01*
X63305054Y7546550D01*
X63154652Y7453478D01*
X63029695Y7328303D01*
X63025855Y7322073D01*
X63025854Y7322072D01*
X63009392Y7295365D01*
X62936885Y7177738D01*
X62881203Y7009861D01*
X62870500Y6905400D01*
X62870500Y6054600D01*
X60637500Y6054600D01*
X60637500Y6905400D01*
X60626526Y7011166D01*
X60570550Y7178946D01*
X60477478Y7329348D01*
X60352303Y7454305D01*
X60346072Y7458146D01*
X60207968Y7543275D01*
X60207966Y7543276D01*
X60201738Y7547115D01*
X60041254Y7600345D01*
X60040389Y7600632D01*
X60040387Y7600632D01*
X60033861Y7602797D01*
X60027025Y7603497D01*
X60027022Y7603498D01*
X59983969Y7607909D01*
X59929400Y7613500D01*
X58578600Y7613500D01*
X58575354Y7613163D01*
X58575350Y7613163D01*
X58479692Y7603238D01*
X58479688Y7603237D01*
X58472834Y7602526D01*
X58466298Y7600345D01*
X58466296Y7600345D01*
X58334194Y7556272D01*
X58305054Y7546550D01*
X58154652Y7453478D01*
X58029695Y7328303D01*
X58025855Y7322073D01*
X58025854Y7322072D01*
X58009392Y7295365D01*
X57936885Y7177738D01*
X57881203Y7009861D01*
X57870500Y6905400D01*
X57870500Y6054600D01*
X55637500Y6054600D01*
X55637500Y6905400D01*
X55626526Y7011166D01*
X55570550Y7178946D01*
X55477478Y7329348D01*
X55352303Y7454305D01*
X55346072Y7458146D01*
X55207968Y7543275D01*
X55207966Y7543276D01*
X55201738Y7547115D01*
X55041254Y7600345D01*
X55040389Y7600632D01*
X55040387Y7600632D01*
X55033861Y7602797D01*
X55027025Y7603497D01*
X55027022Y7603498D01*
X54983969Y7607909D01*
X54929400Y7613500D01*
X53578600Y7613500D01*
X53575354Y7613163D01*
X53575350Y7613163D01*
X53479692Y7603238D01*
X53479688Y7603237D01*
X53472834Y7602526D01*
X53466298Y7600345D01*
X53466296Y7600345D01*
X53334194Y7556272D01*
X53305054Y7546550D01*
X53154652Y7453478D01*
X53029695Y7328303D01*
X53025855Y7322073D01*
X53025854Y7322072D01*
X53009392Y7295365D01*
X52936885Y7177738D01*
X52881203Y7009861D01*
X52870500Y6905400D01*
X52870500Y6054600D01*
X50637500Y6054600D01*
X50637500Y6905400D01*
X50626526Y7011166D01*
X50570550Y7178946D01*
X50477478Y7329348D01*
X50352303Y7454305D01*
X50346072Y7458146D01*
X50207968Y7543275D01*
X50207966Y7543276D01*
X50201738Y7547115D01*
X50041254Y7600345D01*
X50040389Y7600632D01*
X50040387Y7600632D01*
X50033861Y7602797D01*
X50027025Y7603497D01*
X50027022Y7603498D01*
X49983969Y7607909D01*
X49929400Y7613500D01*
X48578600Y7613500D01*
X48575354Y7613163D01*
X48575350Y7613163D01*
X48479692Y7603238D01*
X48479688Y7603237D01*
X48472834Y7602526D01*
X48466298Y7600345D01*
X48466296Y7600345D01*
X48334194Y7556272D01*
X48305054Y7546550D01*
X48154652Y7453478D01*
X48029695Y7328303D01*
X48025855Y7322073D01*
X48025854Y7322072D01*
X48009392Y7295365D01*
X47936885Y7177738D01*
X47881203Y7009861D01*
X47870500Y6905400D01*
X47870500Y6054600D01*
X762500Y6054600D01*
X762500Y9679302D01*
X83874892Y9679302D01*
X83875249Y9672485D01*
X83875249Y9672481D01*
X83880151Y9578961D01*
X83884370Y9498453D01*
X83886181Y9491880D01*
X83886181Y9491877D01*
X83909551Y9407034D01*
X83932461Y9323859D01*
X84016922Y9163664D01*
X84021327Y9158451D01*
X84021330Y9158447D01*
X84129406Y9030557D01*
X84129410Y9030553D01*
X84133813Y9025343D01*
X84139237Y9021196D01*
X84139238Y9021195D01*
X84272257Y8919494D01*
X84272261Y8919491D01*
X84277678Y8915350D01*
X84364372Y8874924D01*
X84435631Y8841695D01*
X84435634Y8841694D01*
X84441808Y8838815D01*
X84448456Y8837329D01*
X84448459Y8837328D01*
X84554421Y8813643D01*
X84618543Y8799310D01*
X84624088Y8799000D01*
X84757244Y8799000D01*
X84892037Y8813643D01*
X85010190Y8853406D01*
X85057204Y8869228D01*
X85057206Y8869229D01*
X85063675Y8871406D01*
X85218905Y8964677D01*
X85223862Y8969365D01*
X85223865Y8969367D01*
X85345527Y9084418D01*
X85345529Y9084420D01*
X85350485Y9089107D01*
X85354317Y9094745D01*
X85354320Y9094749D01*
X85448442Y9233245D01*
X85452277Y9238888D01*
X85519530Y9407034D01*
X85520644Y9413762D01*
X85520645Y9413766D01*
X85547993Y9578961D01*
X85547993Y9578964D01*
X85549108Y9585698D01*
X85544203Y9679302D01*
X85539987Y9759734D01*
X85539630Y9766547D01*
X85516304Y9851234D01*
X85493352Y9934559D01*
X85491539Y9941141D01*
X85407078Y10101336D01*
X85402673Y10106549D01*
X85402670Y10106553D01*
X85294594Y10234443D01*
X85294590Y10234447D01*
X85290187Y10239657D01*
X85253770Y10267500D01*
X85151743Y10345506D01*
X85151739Y10345509D01*
X85146322Y10349650D01*
X85041186Y10398675D01*
X84988369Y10423305D01*
X84988366Y10423306D01*
X84982192Y10426185D01*
X84975544Y10427671D01*
X84975541Y10427672D01*
X84810494Y10464564D01*
X84810495Y10464564D01*
X84805457Y10465690D01*
X84799912Y10466000D01*
X84666756Y10466000D01*
X84531963Y10451357D01*
X84448609Y10423305D01*
X84366796Y10395772D01*
X84366794Y10395771D01*
X84360325Y10393594D01*
X84205095Y10300323D01*
X84200138Y10295635D01*
X84200135Y10295633D01*
X84145329Y10243805D01*
X84073515Y10175893D01*
X84069683Y10170255D01*
X84069680Y10170251D01*
X84018740Y10095295D01*
X83971723Y10026112D01*
X83904470Y9857966D01*
X83903356Y9851238D01*
X83903355Y9851234D01*
X83876007Y9686039D01*
X83874892Y9679302D01*
X762500Y9679302D01*
X762500Y11176000D01*
X27229696Y11176000D01*
X27249658Y10986072D01*
X27308673Y10804444D01*
X27404160Y10639056D01*
X27531947Y10497134D01*
X27686448Y10384882D01*
X27692476Y10382198D01*
X27692478Y10382197D01*
X27774888Y10345506D01*
X27860912Y10307206D01*
X27954313Y10287353D01*
X28041256Y10268872D01*
X28041261Y10268872D01*
X28047713Y10267500D01*
X28238687Y10267500D01*
X28245139Y10268872D01*
X28245144Y10268872D01*
X28332087Y10287353D01*
X28425488Y10307206D01*
X28511512Y10345506D01*
X28593922Y10382197D01*
X28593924Y10382198D01*
X28599952Y10384882D01*
X28754453Y10497134D01*
X28882240Y10639056D01*
X28977727Y10804444D01*
X29036742Y10986072D01*
X29056704Y11176000D01*
X29036742Y11365928D01*
X28977727Y11547556D01*
X28882240Y11712944D01*
X28754453Y11854866D01*
X28689766Y11901864D01*
X28646414Y11958086D01*
X28640339Y12028822D01*
X28673471Y12091614D01*
X28735291Y12126525D01*
X28790025Y12127046D01*
X28811798Y12122418D01*
X28867056Y12110672D01*
X28867061Y12110672D01*
X28873513Y12109300D01*
X29064487Y12109300D01*
X29070939Y12110672D01*
X29070944Y12110672D01*
X29157888Y12129153D01*
X29251288Y12149006D01*
X29287162Y12164978D01*
X29419722Y12223997D01*
X29419724Y12223998D01*
X29425752Y12226682D01*
X29438184Y12235714D01*
X29515567Y12291937D01*
X29580253Y12338934D01*
X29708040Y12480856D01*
X29803527Y12646244D01*
X29862542Y12827872D01*
X29882504Y13017800D01*
X29862542Y13207728D01*
X29803527Y13389356D01*
X29708040Y13554744D01*
X29580253Y13696666D01*
X29425752Y13808918D01*
X29419724Y13811602D01*
X29419722Y13811603D01*
X29257319Y13883909D01*
X29257318Y13883909D01*
X29251288Y13886594D01*
X29157887Y13906447D01*
X29070944Y13924928D01*
X29070939Y13924928D01*
X29064487Y13926300D01*
X28873513Y13926300D01*
X28867061Y13924928D01*
X28867056Y13924928D01*
X28780113Y13906447D01*
X28686712Y13886594D01*
X28680682Y13883909D01*
X28680681Y13883909D01*
X28518278Y13811603D01*
X28518276Y13811602D01*
X28512248Y13808918D01*
X28357747Y13696666D01*
X28229960Y13554744D01*
X28134473Y13389356D01*
X28075458Y13207728D01*
X28055496Y13017800D01*
X28075458Y12827872D01*
X28134473Y12646244D01*
X28229960Y12480856D01*
X28357747Y12338934D01*
X28422433Y12291937D01*
X28465786Y12235714D01*
X28471861Y12164978D01*
X28438729Y12102186D01*
X28376909Y12067275D01*
X28322175Y12066754D01*
X28300402Y12071382D01*
X28245144Y12083128D01*
X28245139Y12083128D01*
X28238687Y12084500D01*
X28047713Y12084500D01*
X28041261Y12083128D01*
X28041256Y12083128D01*
X27966676Y12067275D01*
X27860912Y12044794D01*
X27854882Y12042109D01*
X27854881Y12042109D01*
X27692478Y11969803D01*
X27692476Y11969802D01*
X27686448Y11967118D01*
X27681107Y11963238D01*
X27681106Y11963237D01*
X27631043Y11926864D01*
X27531947Y11854866D01*
X27404160Y11712944D01*
X27308673Y11547556D01*
X27249658Y11365928D01*
X27229696Y11176000D01*
X762500Y11176000D01*
X762500Y14681866D01*
X53677500Y14681866D01*
X53684255Y14619684D01*
X53735385Y14483295D01*
X53822739Y14366739D01*
X53939295Y14279385D01*
X54075684Y14228255D01*
X54137866Y14221500D01*
X55834134Y14221500D01*
X55896316Y14228255D01*
X56032705Y14279385D01*
X56149261Y14366739D01*
X56236615Y14483295D01*
X56287745Y14619684D01*
X56294500Y14681866D01*
X56294500Y15978134D01*
X56287745Y16040316D01*
X56236615Y16176705D01*
X56237466Y16177024D01*
X56223945Y16238849D01*
X56236958Y16283166D01*
X56236615Y16283295D01*
X56238372Y16287981D01*
X56238373Y16287985D01*
X56243860Y16302619D01*
X56284971Y16412285D01*
X56287745Y16419684D01*
X56294500Y16481866D01*
X56294500Y17778134D01*
X56287745Y17840316D01*
X56236615Y17976705D01*
X56149261Y18093261D01*
X56032705Y18180615D01*
X55896316Y18231745D01*
X55834134Y18238500D01*
X54137866Y18238500D01*
X54075684Y18231745D01*
X53939295Y18180615D01*
X53822739Y18093261D01*
X53735385Y17976705D01*
X53684255Y17840316D01*
X53677500Y17778134D01*
X53677500Y16481866D01*
X53684255Y16419684D01*
X53687029Y16412285D01*
X53728141Y16302619D01*
X53735385Y16283295D01*
X53734534Y16282976D01*
X53748055Y16221151D01*
X53735042Y16176834D01*
X53735385Y16176705D01*
X53684255Y16040316D01*
X53677500Y15978134D01*
X53677500Y14681866D01*
X762500Y14681866D01*
X762500Y16903866D01*
X37713500Y16903866D01*
X37720255Y16841684D01*
X37771385Y16705295D01*
X37858739Y16588739D01*
X37975295Y16501385D01*
X38111684Y16450255D01*
X38173866Y16443500D01*
X39794134Y16443500D01*
X39856316Y16450255D01*
X39992705Y16501385D01*
X40109261Y16588739D01*
X40153174Y16647332D01*
X40210033Y16689847D01*
X40280852Y16694873D01*
X40343145Y16660813D01*
X40354825Y16647333D01*
X40398739Y16588739D01*
X40515295Y16501385D01*
X40651684Y16450255D01*
X40713866Y16443500D01*
X42334134Y16443500D01*
X42396316Y16450255D01*
X42532705Y16501385D01*
X42649261Y16588739D01*
X42736615Y16705295D01*
X42787745Y16841684D01*
X42794500Y16903866D01*
X42794500Y17349635D01*
X49066500Y17349635D01*
X49066501Y16686366D01*
X49066764Y16683508D01*
X49066764Y16683499D01*
X49070026Y16647996D01*
X49073247Y16612938D01*
X49075246Y16606560D01*
X49075246Y16606559D01*
X49114323Y16481866D01*
X49124528Y16449301D01*
X49213361Y16302619D01*
X49334619Y16181361D01*
X49481301Y16092528D01*
X49488548Y16090257D01*
X49488550Y16090256D01*
X49554836Y16069483D01*
X49644938Y16041247D01*
X49718365Y16034500D01*
X49721263Y16034500D01*
X49975665Y16034501D01*
X50231634Y16034501D01*
X50234492Y16034764D01*
X50234501Y16034764D01*
X50270004Y16038026D01*
X50305062Y16041247D01*
X50311447Y16043248D01*
X50461450Y16090256D01*
X50461452Y16090257D01*
X50468699Y16092528D01*
X50615381Y16181361D01*
X50710905Y16276885D01*
X50773217Y16310911D01*
X50844032Y16305846D01*
X50889095Y16276885D01*
X50984619Y16181361D01*
X51131301Y16092528D01*
X51138548Y16090257D01*
X51138550Y16090256D01*
X51204836Y16069483D01*
X51294938Y16041247D01*
X51368365Y16034500D01*
X51371263Y16034500D01*
X51625665Y16034501D01*
X51881634Y16034501D01*
X51884492Y16034764D01*
X51884501Y16034764D01*
X51920004Y16038026D01*
X51955062Y16041247D01*
X51961447Y16043248D01*
X52111450Y16090256D01*
X52111452Y16090257D01*
X52118699Y16092528D01*
X52265381Y16181361D01*
X52386639Y16302619D01*
X52475472Y16449301D01*
X52490807Y16498233D01*
X52519169Y16588739D01*
X52526753Y16612938D01*
X52533500Y16686365D01*
X52533499Y17349634D01*
X52533234Y17352526D01*
X52527364Y17416408D01*
X52526753Y17423062D01*
X52475472Y17586699D01*
X52386639Y17733381D01*
X52265381Y17854639D01*
X52118699Y17943472D01*
X52111452Y17945743D01*
X52111450Y17945744D01*
X52039483Y17968297D01*
X51955062Y17994753D01*
X51881635Y18001500D01*
X51878737Y18001500D01*
X51624335Y18001499D01*
X51368366Y18001499D01*
X51365508Y18001236D01*
X51365499Y18001236D01*
X51329996Y17997974D01*
X51294938Y17994753D01*
X51288560Y17992754D01*
X51288559Y17992754D01*
X51138550Y17945744D01*
X51138548Y17945743D01*
X51131301Y17943472D01*
X50984619Y17854639D01*
X50889095Y17759115D01*
X50826783Y17725089D01*
X50755968Y17730154D01*
X50710905Y17759115D01*
X50615381Y17854639D01*
X50468699Y17943472D01*
X50461452Y17945743D01*
X50461450Y17945744D01*
X50389483Y17968297D01*
X50305062Y17994753D01*
X50231635Y18001500D01*
X50228737Y18001500D01*
X49974335Y18001499D01*
X49718366Y18001499D01*
X49715508Y18001236D01*
X49715499Y18001236D01*
X49679996Y17997974D01*
X49644938Y17994753D01*
X49638560Y17992754D01*
X49638559Y17992754D01*
X49488550Y17945744D01*
X49488548Y17945743D01*
X49481301Y17943472D01*
X49334619Y17854639D01*
X49213361Y17733381D01*
X49124528Y17586699D01*
X49073247Y17423062D01*
X49066500Y17349635D01*
X42794500Y17349635D01*
X42794500Y18524134D01*
X42787745Y18586316D01*
X42736615Y18722705D01*
X42649261Y18839261D01*
X42590668Y18883174D01*
X42548153Y18940033D01*
X42543127Y19010852D01*
X42577187Y19073145D01*
X42590668Y19084826D01*
X42642081Y19123358D01*
X42649261Y19128739D01*
X42736615Y19245295D01*
X42787745Y19381684D01*
X42794500Y19443866D01*
X42794500Y21064134D01*
X42787745Y21126316D01*
X42736615Y21262705D01*
X42649261Y21379261D01*
X42590668Y21423174D01*
X42548153Y21480033D01*
X42543127Y21550852D01*
X42577187Y21613145D01*
X42590668Y21624826D01*
X42642081Y21663358D01*
X42647788Y21667635D01*
X49066500Y21667635D01*
X49066501Y21004366D01*
X49066764Y21001508D01*
X49066764Y21001499D01*
X49070026Y20965996D01*
X49073247Y20930938D01*
X49124528Y20767301D01*
X49213361Y20620619D01*
X49334619Y20499361D01*
X49481301Y20410528D01*
X49488548Y20408257D01*
X49488550Y20408256D01*
X49554836Y20387483D01*
X49644938Y20359247D01*
X49718365Y20352500D01*
X49721263Y20352500D01*
X49975665Y20352501D01*
X50231634Y20352501D01*
X50234492Y20352764D01*
X50234501Y20352764D01*
X50270004Y20356026D01*
X50305062Y20359247D01*
X50311447Y20361248D01*
X50461450Y20408256D01*
X50461452Y20408257D01*
X50468699Y20410528D01*
X50615381Y20499361D01*
X50710905Y20594885D01*
X50773217Y20628911D01*
X50844032Y20623846D01*
X50889095Y20594885D01*
X50984619Y20499361D01*
X51131301Y20410528D01*
X51138548Y20408257D01*
X51138550Y20408256D01*
X51204836Y20387483D01*
X51294938Y20359247D01*
X51368365Y20352500D01*
X51371263Y20352500D01*
X51625665Y20352501D01*
X51881634Y20352501D01*
X51884492Y20352764D01*
X51884501Y20352764D01*
X51920004Y20356026D01*
X51955062Y20359247D01*
X51961447Y20361248D01*
X52111450Y20408256D01*
X52111452Y20408257D01*
X52118699Y20410528D01*
X52265381Y20499361D01*
X52386639Y20620619D01*
X52475472Y20767301D01*
X52526753Y20930938D01*
X52533500Y21004365D01*
X52533499Y21411866D01*
X53677500Y21411866D01*
X53684255Y21349684D01*
X53735385Y21213295D01*
X53822739Y21096739D01*
X53939295Y21009385D01*
X54075684Y20958255D01*
X54137866Y20951500D01*
X55834134Y20951500D01*
X55896316Y20958255D01*
X56032705Y21009385D01*
X56149261Y21096739D01*
X56236615Y21213295D01*
X56287745Y21349684D01*
X56294500Y21411866D01*
X56294500Y22708134D01*
X56287745Y22770316D01*
X56236615Y22906705D01*
X56149261Y23023261D01*
X56032705Y23110615D01*
X55896316Y23161745D01*
X55834134Y23168500D01*
X54137866Y23168500D01*
X54075684Y23161745D01*
X53939295Y23110615D01*
X53822739Y23023261D01*
X53735385Y22906705D01*
X53684255Y22770316D01*
X53677500Y22708134D01*
X53677500Y21411866D01*
X52533499Y21411866D01*
X52533499Y21667634D01*
X52533234Y21670526D01*
X52527364Y21734408D01*
X52526753Y21741062D01*
X52475472Y21904699D01*
X52386639Y22051381D01*
X52265381Y22172639D01*
X52185519Y22221005D01*
X52138648Y22249391D01*
X52090741Y22301788D01*
X52078768Y22371768D01*
X52106529Y22437112D01*
X52137616Y22464311D01*
X52252485Y22535394D01*
X52258713Y22539248D01*
X52379552Y22660298D01*
X52394393Y22684374D01*
X52465462Y22799669D01*
X52465463Y22799671D01*
X52469302Y22805899D01*
X52523149Y22968243D01*
X52533500Y23069268D01*
X52533500Y23666732D01*
X52532776Y23673715D01*
X52527796Y23721703D01*
X52522887Y23769019D01*
X52479739Y23898349D01*
X52475229Y23911866D01*
X53677500Y23911866D01*
X53684255Y23849684D01*
X53735385Y23713295D01*
X53822739Y23596739D01*
X53939295Y23509385D01*
X54075684Y23458255D01*
X54137866Y23451500D01*
X55834134Y23451500D01*
X55896316Y23458255D01*
X56032705Y23509385D01*
X56149261Y23596739D01*
X56236615Y23713295D01*
X56287745Y23849684D01*
X56294500Y23911866D01*
X56294500Y25208134D01*
X56287745Y25270316D01*
X56236615Y25406705D01*
X56149261Y25523261D01*
X56032705Y25610615D01*
X55896316Y25661745D01*
X55834134Y25668500D01*
X54137866Y25668500D01*
X54075684Y25661745D01*
X53939295Y25610615D01*
X53822739Y25523261D01*
X53735385Y25406705D01*
X53684255Y25270316D01*
X53677500Y25208134D01*
X53677500Y23911866D01*
X52475229Y23911866D01*
X52471073Y23924324D01*
X52471072Y23924326D01*
X52468756Y23931268D01*
X52378752Y24076713D01*
X52287533Y24167773D01*
X52253454Y24230055D01*
X52258457Y24300875D01*
X52287376Y24345961D01*
X52379552Y24438298D01*
X52383393Y24444529D01*
X52465462Y24577669D01*
X52465463Y24577671D01*
X52469302Y24583899D01*
X52523149Y24746243D01*
X52533500Y24847268D01*
X52533500Y25444732D01*
X52522887Y25547019D01*
X52511304Y25581737D01*
X52471073Y25702324D01*
X52471072Y25702326D01*
X52468756Y25709268D01*
X52378752Y25854713D01*
X52257702Y25975552D01*
X52190669Y26016872D01*
X52118331Y26061462D01*
X52118329Y26061463D01*
X52112101Y26065302D01*
X51949757Y26119149D01*
X51942920Y26119849D01*
X51942918Y26119850D01*
X51901599Y26124083D01*
X51848732Y26129500D01*
X51301268Y26129500D01*
X51298022Y26129163D01*
X51298018Y26129163D01*
X51263917Y26125625D01*
X51198981Y26118887D01*
X51192440Y26116705D01*
X51192441Y26116705D01*
X51043676Y26067073D01*
X51043674Y26067072D01*
X51036732Y26064756D01*
X50891287Y25974752D01*
X50770448Y25853702D01*
X50766608Y25847472D01*
X50766607Y25847471D01*
X50685255Y25715493D01*
X50680698Y25708101D01*
X50626851Y25545757D01*
X50616500Y25444732D01*
X50616500Y24847268D01*
X50627113Y24744981D01*
X50629295Y24738441D01*
X50678537Y24590847D01*
X50681244Y24582732D01*
X50771248Y24437287D01*
X50776430Y24432114D01*
X50862467Y24346227D01*
X50896546Y24283945D01*
X50891543Y24213125D01*
X50862624Y24168039D01*
X50770448Y24075702D01*
X50766608Y24069472D01*
X50766607Y24069471D01*
X50685255Y23937493D01*
X50680698Y23930101D01*
X50626851Y23767757D01*
X50616500Y23666732D01*
X50616500Y23069268D01*
X50627113Y22966981D01*
X50629295Y22960441D01*
X50678537Y22812847D01*
X50681244Y22804732D01*
X50685096Y22798508D01*
X50685096Y22798507D01*
X50702541Y22770316D01*
X50771248Y22659287D01*
X50892298Y22538448D01*
X51037899Y22448698D01*
X51044846Y22446394D01*
X51051481Y22443300D01*
X51050188Y22440528D01*
X51097209Y22407978D01*
X51124469Y22342424D01*
X51111961Y22272538D01*
X51064481Y22221005D01*
X50984619Y22172639D01*
X50889095Y22077115D01*
X50826783Y22043089D01*
X50755968Y22048154D01*
X50710905Y22077115D01*
X50615381Y22172639D01*
X50468699Y22261472D01*
X50461452Y22263743D01*
X50461450Y22263744D01*
X50395164Y22284517D01*
X50305062Y22312753D01*
X50231635Y22319500D01*
X50228737Y22319500D01*
X49974335Y22319499D01*
X49718366Y22319499D01*
X49715508Y22319236D01*
X49715499Y22319236D01*
X49679996Y22315974D01*
X49644938Y22312753D01*
X49638560Y22310754D01*
X49638559Y22310754D01*
X49488550Y22263744D01*
X49488548Y22263743D01*
X49481301Y22261472D01*
X49334619Y22172639D01*
X49213361Y22051381D01*
X49124528Y21904699D01*
X49073247Y21741062D01*
X49066500Y21667635D01*
X42647788Y21667635D01*
X42649261Y21668739D01*
X42736615Y21785295D01*
X42787745Y21921684D01*
X42794500Y21983866D01*
X42794500Y23604134D01*
X42787745Y23666316D01*
X42736615Y23802705D01*
X42649261Y23919261D01*
X42532705Y24006615D01*
X42396316Y24057745D01*
X42334134Y24064500D01*
X40713866Y24064500D01*
X40651684Y24057745D01*
X40515295Y24006615D01*
X40398739Y23919261D01*
X40311385Y23802705D01*
X40260255Y23666316D01*
X40253500Y23604134D01*
X40253500Y21983866D01*
X40260255Y21921684D01*
X40311385Y21785295D01*
X40398739Y21668739D01*
X40405919Y21663358D01*
X40457332Y21624826D01*
X40499847Y21567967D01*
X40504873Y21497148D01*
X40470813Y21434855D01*
X40457333Y21423175D01*
X40398739Y21379261D01*
X40393358Y21372081D01*
X40354826Y21320668D01*
X40297967Y21278153D01*
X40227148Y21273127D01*
X40164855Y21307187D01*
X40153174Y21320668D01*
X40114642Y21372081D01*
X40109261Y21379261D01*
X39992705Y21466615D01*
X39856316Y21517745D01*
X39794134Y21524500D01*
X38173866Y21524500D01*
X38111684Y21517745D01*
X37975295Y21466615D01*
X37858739Y21379261D01*
X37771385Y21262705D01*
X37720255Y21126316D01*
X37713500Y21064134D01*
X37713500Y19443866D01*
X37720255Y19381684D01*
X37771385Y19245295D01*
X37858739Y19128739D01*
X37865919Y19123358D01*
X37917332Y19084826D01*
X37959847Y19027967D01*
X37964873Y18957148D01*
X37930813Y18894855D01*
X37917333Y18883175D01*
X37858739Y18839261D01*
X37771385Y18722705D01*
X37720255Y18586316D01*
X37713500Y18524134D01*
X37713500Y16903866D01*
X762500Y16903866D01*
X762500Y23215600D01*
X25451696Y23215600D01*
X25452386Y23209035D01*
X25467418Y23066018D01*
X25471658Y23025672D01*
X25530673Y22844044D01*
X25626160Y22678656D01*
X25630578Y22673749D01*
X25630579Y22673748D01*
X25643600Y22659287D01*
X25753947Y22536734D01*
X25853043Y22464736D01*
X25886363Y22440528D01*
X25908448Y22424482D01*
X25914476Y22421798D01*
X25914478Y22421797D01*
X25998249Y22384500D01*
X26082912Y22346806D01*
X26176313Y22326953D01*
X26263256Y22308472D01*
X26263261Y22308472D01*
X26269713Y22307100D01*
X26460687Y22307100D01*
X26467139Y22308472D01*
X26467144Y22308472D01*
X26554087Y22326953D01*
X26647488Y22346806D01*
X26732151Y22384500D01*
X26815922Y22421797D01*
X26815924Y22421798D01*
X26821952Y22424482D01*
X26844038Y22440528D01*
X26877357Y22464736D01*
X26976453Y22536734D01*
X27086800Y22659287D01*
X27099821Y22673748D01*
X27099822Y22673749D01*
X27104240Y22678656D01*
X27199727Y22844044D01*
X27258742Y23025672D01*
X27262983Y23066018D01*
X27278014Y23209035D01*
X27278704Y23215600D01*
X27258742Y23405528D01*
X27199727Y23587156D01*
X27187964Y23607531D01*
X27107541Y23746826D01*
X27104240Y23752544D01*
X27066646Y23794297D01*
X26980875Y23889555D01*
X26980874Y23889556D01*
X26976453Y23894466D01*
X26821952Y24006718D01*
X26815924Y24009402D01*
X26815922Y24009403D01*
X26653519Y24081709D01*
X26653518Y24081709D01*
X26647488Y24084394D01*
X26554087Y24104247D01*
X26467144Y24122728D01*
X26467139Y24122728D01*
X26460687Y24124100D01*
X26269713Y24124100D01*
X26263261Y24122728D01*
X26263256Y24122728D01*
X26176312Y24104247D01*
X26082912Y24084394D01*
X26076882Y24081709D01*
X26076881Y24081709D01*
X25914478Y24009403D01*
X25914476Y24009402D01*
X25908448Y24006718D01*
X25753947Y23894466D01*
X25749526Y23889556D01*
X25749525Y23889555D01*
X25663755Y23794297D01*
X25626160Y23752544D01*
X25622859Y23746826D01*
X25542437Y23607531D01*
X25530673Y23587156D01*
X25471658Y23405528D01*
X25451696Y23215600D01*
X762500Y23215600D01*
X762500Y26924000D01*
X27737696Y26924000D01*
X27757658Y26734072D01*
X27816673Y26552444D01*
X27912160Y26387056D01*
X28039947Y26245134D01*
X28194448Y26132882D01*
X28200476Y26130198D01*
X28200478Y26130197D01*
X28356114Y26060904D01*
X28368912Y26055206D01*
X28462312Y26035353D01*
X28549256Y26016872D01*
X28549261Y26016872D01*
X28555713Y26015500D01*
X28746687Y26015500D01*
X28753139Y26016872D01*
X28753144Y26016872D01*
X28840088Y26035353D01*
X28933488Y26055206D01*
X28946286Y26060904D01*
X29101922Y26130197D01*
X29101924Y26130198D01*
X29107952Y26132882D01*
X29262453Y26245134D01*
X29390240Y26387056D01*
X29485727Y26552444D01*
X29544742Y26734072D01*
X29564704Y26924000D01*
X29544742Y27113928D01*
X29485727Y27295556D01*
X29390240Y27460944D01*
X29262453Y27602866D01*
X29107952Y27715118D01*
X29101924Y27717802D01*
X29101922Y27717803D01*
X28939519Y27790109D01*
X28939518Y27790109D01*
X28933488Y27792794D01*
X28840087Y27812647D01*
X28753144Y27831128D01*
X28753139Y27831128D01*
X28746687Y27832500D01*
X28555713Y27832500D01*
X28549261Y27831128D01*
X28549256Y27831128D01*
X28462313Y27812647D01*
X28368912Y27792794D01*
X28362882Y27790109D01*
X28362881Y27790109D01*
X28200478Y27717803D01*
X28200476Y27717802D01*
X28194448Y27715118D01*
X28039947Y27602866D01*
X27912160Y27460944D01*
X27816673Y27295556D01*
X27757658Y27113928D01*
X27737696Y26924000D01*
X762500Y26924000D01*
X762500Y30429200D01*
X25451696Y30429200D01*
X25452386Y30422635D01*
X25468314Y30271092D01*
X25471658Y30239272D01*
X25530673Y30057644D01*
X25626160Y29892256D01*
X25630578Y29887349D01*
X25630579Y29887348D01*
X25715767Y29792737D01*
X25753947Y29750334D01*
X25908448Y29638082D01*
X25914476Y29635398D01*
X25914478Y29635397D01*
X26076881Y29563091D01*
X26082912Y29560406D01*
X26176312Y29540553D01*
X26263256Y29522072D01*
X26263261Y29522072D01*
X26269713Y29520700D01*
X26460687Y29520700D01*
X26467139Y29522072D01*
X26467144Y29522072D01*
X26554088Y29540553D01*
X26647488Y29560406D01*
X26653519Y29563091D01*
X26815922Y29635397D01*
X26815924Y29635398D01*
X26821952Y29638082D01*
X26976453Y29750334D01*
X27014633Y29792737D01*
X27017242Y29795635D01*
X49066500Y29795635D01*
X49066501Y29132366D01*
X49066764Y29129508D01*
X49066764Y29129499D01*
X49070026Y29093996D01*
X49073247Y29058938D01*
X49124528Y28895301D01*
X49213361Y28748619D01*
X49334619Y28627361D01*
X49481301Y28538528D01*
X49488548Y28536257D01*
X49488550Y28536256D01*
X49554836Y28515483D01*
X49644938Y28487247D01*
X49718365Y28480500D01*
X49721263Y28480500D01*
X49975665Y28480501D01*
X50231634Y28480501D01*
X50234492Y28480764D01*
X50234501Y28480764D01*
X50270004Y28484026D01*
X50305062Y28487247D01*
X50311447Y28489248D01*
X50461450Y28536256D01*
X50461452Y28536257D01*
X50468699Y28538528D01*
X50615381Y28627361D01*
X50710905Y28722885D01*
X50773217Y28756911D01*
X50844032Y28751846D01*
X50889095Y28722885D01*
X50984619Y28627361D01*
X51131301Y28538528D01*
X51138548Y28536257D01*
X51138550Y28536256D01*
X51204836Y28515483D01*
X51294938Y28487247D01*
X51368365Y28480500D01*
X51371263Y28480500D01*
X51625665Y28480501D01*
X51881634Y28480501D01*
X51884492Y28480764D01*
X51884501Y28480764D01*
X51920004Y28484026D01*
X51955062Y28487247D01*
X51961447Y28489248D01*
X52111450Y28536256D01*
X52111452Y28536257D01*
X52118699Y28538528D01*
X52265381Y28627361D01*
X52386639Y28748619D01*
X52475472Y28895301D01*
X52480663Y28911866D01*
X53677500Y28911866D01*
X53684255Y28849684D01*
X53735385Y28713295D01*
X53822739Y28596739D01*
X53939295Y28509385D01*
X54075684Y28458255D01*
X54137866Y28451500D01*
X55834134Y28451500D01*
X55896316Y28458255D01*
X56032705Y28509385D01*
X56149261Y28596739D01*
X56236615Y28713295D01*
X56287745Y28849684D01*
X56294500Y28911866D01*
X56294500Y30208134D01*
X56287745Y30270316D01*
X56236615Y30406705D01*
X56149261Y30523261D01*
X56032705Y30610615D01*
X55896316Y30661745D01*
X55834134Y30668500D01*
X54137866Y30668500D01*
X54075684Y30661745D01*
X53939295Y30610615D01*
X53822739Y30523261D01*
X53735385Y30406705D01*
X53684255Y30270316D01*
X53677500Y30208134D01*
X53677500Y28911866D01*
X52480663Y28911866D01*
X52526753Y29058938D01*
X52533500Y29132365D01*
X52533499Y29795634D01*
X52533234Y29798526D01*
X52527364Y29862408D01*
X52526753Y29869062D01*
X52524752Y29875446D01*
X52477744Y30025450D01*
X52477743Y30025452D01*
X52475472Y30032699D01*
X52386639Y30179381D01*
X52265381Y30300639D01*
X52118699Y30389472D01*
X52111452Y30391743D01*
X52111450Y30391744D01*
X51991927Y30429200D01*
X51955062Y30440753D01*
X51881635Y30447500D01*
X51878737Y30447500D01*
X51624335Y30447499D01*
X51368366Y30447499D01*
X51365508Y30447236D01*
X51365499Y30447236D01*
X51329996Y30443974D01*
X51294938Y30440753D01*
X51288560Y30438754D01*
X51288559Y30438754D01*
X51138550Y30391744D01*
X51138548Y30391743D01*
X51131301Y30389472D01*
X50984619Y30300639D01*
X50889095Y30205115D01*
X50826783Y30171089D01*
X50755968Y30176154D01*
X50710905Y30205115D01*
X50615381Y30300639D01*
X50468699Y30389472D01*
X50461452Y30391743D01*
X50461450Y30391744D01*
X50341927Y30429200D01*
X50305062Y30440753D01*
X50231635Y30447500D01*
X50228737Y30447500D01*
X49974335Y30447499D01*
X49718366Y30447499D01*
X49715508Y30447236D01*
X49715499Y30447236D01*
X49679996Y30443974D01*
X49644938Y30440753D01*
X49638560Y30438754D01*
X49638559Y30438754D01*
X49488550Y30391744D01*
X49488548Y30391743D01*
X49481301Y30389472D01*
X49334619Y30300639D01*
X49213361Y30179381D01*
X49124528Y30032699D01*
X49122257Y30025452D01*
X49122256Y30025450D01*
X49107603Y29978693D01*
X49073247Y29869062D01*
X49066500Y29795635D01*
X27017242Y29795635D01*
X27099821Y29887348D01*
X27099822Y29887349D01*
X27104240Y29892256D01*
X27199727Y30057644D01*
X27258742Y30239272D01*
X27262087Y30271092D01*
X27278014Y30422635D01*
X27278704Y30429200D01*
X27258742Y30619128D01*
X27199727Y30800756D01*
X27104240Y30966144D01*
X26976453Y31108066D01*
X26841509Y31206109D01*
X26827294Y31216437D01*
X26827293Y31216438D01*
X26821952Y31220318D01*
X26815924Y31223002D01*
X26815922Y31223003D01*
X26773254Y31242000D01*
X42170693Y31242000D01*
X42189885Y31022629D01*
X42246880Y30809924D01*
X42254086Y30794471D01*
X42337618Y30615334D01*
X42337621Y30615329D01*
X42339944Y30610347D01*
X42343100Y30605840D01*
X42343101Y30605838D01*
X42462188Y30435765D01*
X42466251Y30429962D01*
X42621962Y30274251D01*
X42626471Y30271094D01*
X42626473Y30271092D01*
X42638801Y30262460D01*
X42802346Y30147944D01*
X43001924Y30054880D01*
X43214629Y29997885D01*
X43434000Y29978693D01*
X43653371Y29997885D01*
X43866076Y30054880D01*
X44065654Y30147944D01*
X44229199Y30262460D01*
X44241527Y30271092D01*
X44241529Y30271094D01*
X44246038Y30274251D01*
X44401749Y30429962D01*
X44405813Y30435765D01*
X44524899Y30605838D01*
X44524900Y30605840D01*
X44528056Y30610347D01*
X44530379Y30615329D01*
X44530382Y30615334D01*
X44613914Y30794471D01*
X44621120Y30809924D01*
X44678115Y31022629D01*
X44697307Y31242000D01*
X44678115Y31461371D01*
X44621120Y31674076D01*
X44577585Y31767438D01*
X44530382Y31868666D01*
X44530379Y31868671D01*
X44528056Y31873653D01*
X44401749Y32054038D01*
X44246038Y32209749D01*
X44066255Y32335635D01*
X49066500Y32335635D01*
X49066501Y31672366D01*
X49066764Y31669508D01*
X49066764Y31669499D01*
X49070026Y31633996D01*
X49073247Y31598938D01*
X49075246Y31592560D01*
X49075246Y31592559D01*
X49118075Y31455894D01*
X49124528Y31435301D01*
X49213361Y31288619D01*
X49334619Y31167361D01*
X49481301Y31078528D01*
X49488548Y31076257D01*
X49488550Y31076256D01*
X49554836Y31055483D01*
X49644938Y31027247D01*
X49718365Y31020500D01*
X49721263Y31020500D01*
X49975665Y31020501D01*
X50231634Y31020501D01*
X50234492Y31020764D01*
X50234501Y31020764D01*
X50270004Y31024026D01*
X50305062Y31027247D01*
X50311447Y31029248D01*
X50461450Y31076256D01*
X50461452Y31076257D01*
X50468699Y31078528D01*
X50615381Y31167361D01*
X50710905Y31262885D01*
X50773217Y31296911D01*
X50844032Y31291846D01*
X50889095Y31262885D01*
X50984619Y31167361D01*
X51131301Y31078528D01*
X51138548Y31076257D01*
X51138550Y31076256D01*
X51204836Y31055483D01*
X51294938Y31027247D01*
X51368365Y31020500D01*
X51371263Y31020500D01*
X51625665Y31020501D01*
X51881634Y31020501D01*
X51884492Y31020764D01*
X51884501Y31020764D01*
X51920004Y31024026D01*
X51955062Y31027247D01*
X51961447Y31029248D01*
X52111450Y31076256D01*
X52111452Y31076257D01*
X52118699Y31078528D01*
X52265381Y31167361D01*
X52386639Y31288619D01*
X52461279Y31411866D01*
X53677500Y31411866D01*
X53684255Y31349684D01*
X53735385Y31213295D01*
X53822739Y31096739D01*
X53939295Y31009385D01*
X54075684Y30958255D01*
X54137866Y30951500D01*
X55834134Y30951500D01*
X55896316Y30958255D01*
X56032705Y31009385D01*
X56149261Y31096739D01*
X56236615Y31213295D01*
X56287745Y31349684D01*
X56294500Y31411866D01*
X56294500Y32708134D01*
X56287745Y32770316D01*
X56236615Y32906705D01*
X56149261Y33023261D01*
X56032705Y33110615D01*
X55896316Y33161745D01*
X55834134Y33168500D01*
X54137866Y33168500D01*
X54075684Y33161745D01*
X53939295Y33110615D01*
X53822739Y33023261D01*
X53735385Y32906705D01*
X53684255Y32770316D01*
X53677500Y32708134D01*
X53677500Y31411866D01*
X52461279Y31411866D01*
X52475472Y31435301D01*
X52481926Y31455894D01*
X52524752Y31592554D01*
X52526753Y31598938D01*
X52533500Y31672365D01*
X52533499Y32335634D01*
X52533234Y32338526D01*
X52527364Y32402408D01*
X52526753Y32409062D01*
X52496742Y32504828D01*
X52477744Y32565450D01*
X52477743Y32565452D01*
X52475472Y32572699D01*
X52386639Y32719381D01*
X52265381Y32840639D01*
X52118699Y32929472D01*
X52111452Y32931743D01*
X52111450Y32931744D01*
X52045164Y32952517D01*
X51955062Y32980753D01*
X51881635Y32987500D01*
X51878737Y32987500D01*
X51624335Y32987499D01*
X51368366Y32987499D01*
X51365508Y32987236D01*
X51365499Y32987236D01*
X51329996Y32983974D01*
X51294938Y32980753D01*
X51288560Y32978754D01*
X51288559Y32978754D01*
X51138550Y32931744D01*
X51138548Y32931743D01*
X51131301Y32929472D01*
X50984619Y32840639D01*
X50889095Y32745115D01*
X50826783Y32711089D01*
X50755968Y32716154D01*
X50710905Y32745115D01*
X50615381Y32840639D01*
X50468699Y32929472D01*
X50461452Y32931743D01*
X50461450Y32931744D01*
X50395164Y32952517D01*
X50305062Y32980753D01*
X50231635Y32987500D01*
X50228737Y32987500D01*
X49974335Y32987499D01*
X49718366Y32987499D01*
X49715508Y32987236D01*
X49715499Y32987236D01*
X49679996Y32983974D01*
X49644938Y32980753D01*
X49638560Y32978754D01*
X49638559Y32978754D01*
X49488550Y32931744D01*
X49488548Y32931743D01*
X49481301Y32929472D01*
X49334619Y32840639D01*
X49213361Y32719381D01*
X49124528Y32572699D01*
X49122257Y32565452D01*
X49122256Y32565450D01*
X49103258Y32504828D01*
X49073247Y32409062D01*
X49066500Y32335635D01*
X44066255Y32335635D01*
X44065654Y32336056D01*
X43866076Y32429120D01*
X43653371Y32486115D01*
X43434000Y32505307D01*
X43214629Y32486115D01*
X43001924Y32429120D01*
X42908562Y32385585D01*
X42807334Y32338382D01*
X42807329Y32338379D01*
X42802347Y32336056D01*
X42797840Y32332900D01*
X42797838Y32332899D01*
X42626473Y32212908D01*
X42626470Y32212906D01*
X42621962Y32209749D01*
X42466251Y32054038D01*
X42339944Y31873653D01*
X42337621Y31868671D01*
X42337618Y31868666D01*
X42290415Y31767438D01*
X42246880Y31674076D01*
X42189885Y31461371D01*
X42170693Y31242000D01*
X26773254Y31242000D01*
X26653519Y31295309D01*
X26653518Y31295309D01*
X26647488Y31297994D01*
X26554088Y31317847D01*
X26467144Y31336328D01*
X26467139Y31336328D01*
X26460687Y31337700D01*
X26269713Y31337700D01*
X26263261Y31336328D01*
X26263256Y31336328D01*
X26176312Y31317847D01*
X26082912Y31297994D01*
X26076882Y31295309D01*
X26076881Y31295309D01*
X25914478Y31223003D01*
X25914476Y31223002D01*
X25908448Y31220318D01*
X25903107Y31216438D01*
X25903106Y31216437D01*
X25888891Y31206109D01*
X25753947Y31108066D01*
X25626160Y30966144D01*
X25530673Y30800756D01*
X25471658Y30619128D01*
X25451696Y30429200D01*
X762500Y30429200D01*
X762500Y34190000D01*
X9084647Y34190000D01*
X9104022Y33968537D01*
X9161560Y33753804D01*
X9163882Y33748823D01*
X9163883Y33748822D01*
X9253186Y33557311D01*
X9253189Y33557306D01*
X9255512Y33552324D01*
X9258668Y33547817D01*
X9258669Y33547815D01*
X9326110Y33451500D01*
X9383023Y33370219D01*
X9540219Y33213023D01*
X9544727Y33209866D01*
X9544730Y33209864D01*
X9603804Y33168500D01*
X9722323Y33085512D01*
X9727305Y33083189D01*
X9727310Y33083186D01*
X9871218Y33016081D01*
X9923804Y32991560D01*
X9929112Y32990138D01*
X9929114Y32990137D01*
X9994949Y32972497D01*
X10138537Y32934022D01*
X10360000Y32914647D01*
X10581463Y32934022D01*
X10725051Y32972497D01*
X10790886Y32990137D01*
X10790888Y32990138D01*
X10796196Y32991560D01*
X10848782Y33016081D01*
X10992690Y33083186D01*
X10992695Y33083189D01*
X10997677Y33085512D01*
X11116196Y33168500D01*
X11175270Y33209864D01*
X11175273Y33209866D01*
X11179781Y33213023D01*
X11336977Y33370219D01*
X11393891Y33451500D01*
X11461331Y33547815D01*
X11461332Y33547817D01*
X11464488Y33552324D01*
X11466811Y33557306D01*
X11466814Y33557311D01*
X11556117Y33748822D01*
X11556118Y33748823D01*
X11558440Y33753804D01*
X11615978Y33968537D01*
X11635353Y34190000D01*
X14084647Y34190000D01*
X14104022Y33968537D01*
X14161560Y33753804D01*
X14163882Y33748823D01*
X14163883Y33748822D01*
X14253186Y33557311D01*
X14253189Y33557306D01*
X14255512Y33552324D01*
X14258668Y33547817D01*
X14258669Y33547815D01*
X14326110Y33451500D01*
X14383023Y33370219D01*
X14540219Y33213023D01*
X14544727Y33209866D01*
X14544730Y33209864D01*
X14603804Y33168500D01*
X14722323Y33085512D01*
X14727305Y33083189D01*
X14727310Y33083186D01*
X14871218Y33016081D01*
X14923804Y32991560D01*
X14929112Y32990138D01*
X14929114Y32990137D01*
X14994949Y32972497D01*
X15138537Y32934022D01*
X15360000Y32914647D01*
X15581463Y32934022D01*
X15725051Y32972497D01*
X15790886Y32990137D01*
X15790888Y32990138D01*
X15796196Y32991560D01*
X15848782Y33016081D01*
X15992690Y33083186D01*
X15992695Y33083189D01*
X15997677Y33085512D01*
X16116196Y33168500D01*
X16175270Y33209864D01*
X16175273Y33209866D01*
X16179781Y33213023D01*
X16336977Y33370219D01*
X16393891Y33451500D01*
X16461331Y33547815D01*
X16461332Y33547817D01*
X16464488Y33552324D01*
X16466811Y33557306D01*
X16466814Y33557311D01*
X16556117Y33748822D01*
X16556118Y33748823D01*
X16558440Y33753804D01*
X16600793Y33911866D01*
X53677500Y33911866D01*
X53684255Y33849684D01*
X53735385Y33713295D01*
X53822739Y33596739D01*
X53939295Y33509385D01*
X54075684Y33458255D01*
X54137866Y33451500D01*
X55834134Y33451500D01*
X55896316Y33458255D01*
X56032705Y33509385D01*
X56149261Y33596739D01*
X56236615Y33713295D01*
X56287745Y33849684D01*
X56294500Y33911866D01*
X56294500Y35208134D01*
X56287745Y35270316D01*
X56236615Y35406705D01*
X56149261Y35523261D01*
X56032705Y35610615D01*
X55896316Y35661745D01*
X55834134Y35668500D01*
X54137866Y35668500D01*
X54075684Y35661745D01*
X53939295Y35610615D01*
X53822739Y35523261D01*
X53735385Y35406705D01*
X53684255Y35270316D01*
X53677500Y35208134D01*
X53677500Y33911866D01*
X16600793Y33911866D01*
X16615978Y33968537D01*
X16635353Y34190000D01*
X16615978Y34411463D01*
X16558440Y34626196D01*
X16556117Y34631178D01*
X16466814Y34822689D01*
X16466811Y34822694D01*
X16464488Y34827676D01*
X16442770Y34858693D01*
X16340136Y35005270D01*
X16340134Y35005273D01*
X16336977Y35009781D01*
X16179781Y35166977D01*
X16175273Y35170134D01*
X16175270Y35170136D01*
X16099505Y35223187D01*
X16053786Y35255200D01*
X30277696Y35255200D01*
X30278386Y35248635D01*
X30286969Y35166977D01*
X30297658Y35065272D01*
X30356673Y34883644D01*
X30359976Y34877922D01*
X30359977Y34877921D01*
X30370802Y34859172D01*
X30452160Y34718256D01*
X30579947Y34576334D01*
X30734448Y34464082D01*
X30740476Y34461398D01*
X30740478Y34461397D01*
X30902881Y34389091D01*
X30908912Y34386406D01*
X31002312Y34366553D01*
X31089256Y34348072D01*
X31089261Y34348072D01*
X31095713Y34346700D01*
X31286687Y34346700D01*
X31293139Y34348072D01*
X31293144Y34348072D01*
X31380088Y34366553D01*
X31473488Y34386406D01*
X31479519Y34389091D01*
X31641922Y34461397D01*
X31641924Y34461398D01*
X31647952Y34464082D01*
X31802453Y34576334D01*
X31930240Y34718256D01*
X32011598Y34859172D01*
X32022423Y34877921D01*
X32022424Y34877922D01*
X32025727Y34883644D01*
X32084742Y35065272D01*
X32095432Y35166977D01*
X32104014Y35248635D01*
X32104704Y35255200D01*
X32089664Y35398297D01*
X32085432Y35438565D01*
X32085432Y35438567D01*
X32084742Y35445128D01*
X32025727Y35626756D01*
X31930240Y35792144D01*
X31825828Y35908106D01*
X31806875Y35929155D01*
X31806874Y35929156D01*
X31802453Y35934066D01*
X31647952Y36046318D01*
X31641924Y36049002D01*
X31641922Y36049003D01*
X31479519Y36121309D01*
X31479518Y36121309D01*
X31477966Y36122000D01*
X42170693Y36122000D01*
X42189885Y35902629D01*
X42246880Y35689924D01*
X42283862Y35610615D01*
X42337618Y35495334D01*
X42337621Y35495329D01*
X42339944Y35490347D01*
X42343100Y35485840D01*
X42343101Y35485838D01*
X42412927Y35386117D01*
X42466251Y35309962D01*
X42621962Y35154251D01*
X42802346Y35027944D01*
X43001924Y34934880D01*
X43214629Y34877885D01*
X43434000Y34858693D01*
X43653371Y34877885D01*
X43866076Y34934880D01*
X44065654Y35027944D01*
X44246038Y35154251D01*
X44401749Y35309962D01*
X44455074Y35386117D01*
X44524899Y35485838D01*
X44524900Y35485840D01*
X44528056Y35490347D01*
X44530379Y35495329D01*
X44530382Y35495334D01*
X44584138Y35610615D01*
X44621120Y35689924D01*
X44678115Y35902629D01*
X44697307Y36122000D01*
X44678115Y36341371D01*
X44621120Y36554076D01*
X44577585Y36647438D01*
X44530382Y36748666D01*
X44530379Y36748671D01*
X44528056Y36753653D01*
X44401749Y36934038D01*
X44246038Y37089749D01*
X44065654Y37216056D01*
X43866076Y37309120D01*
X43653371Y37366115D01*
X43434000Y37385307D01*
X43214629Y37366115D01*
X43001924Y37309120D01*
X42908562Y37265585D01*
X42807334Y37218382D01*
X42807329Y37218379D01*
X42802347Y37216056D01*
X42797840Y37212900D01*
X42797838Y37212899D01*
X42626473Y37092908D01*
X42626470Y37092906D01*
X42621962Y37089749D01*
X42466251Y36934038D01*
X42339944Y36753653D01*
X42337621Y36748671D01*
X42337618Y36748666D01*
X42290415Y36647438D01*
X42246880Y36554076D01*
X42189885Y36341371D01*
X42170693Y36122000D01*
X31477966Y36122000D01*
X31473488Y36123994D01*
X31380088Y36143847D01*
X31293144Y36162328D01*
X31293139Y36162328D01*
X31286687Y36163700D01*
X31095713Y36163700D01*
X31089261Y36162328D01*
X31089256Y36162328D01*
X31002312Y36143847D01*
X30908912Y36123994D01*
X30902882Y36121309D01*
X30902881Y36121309D01*
X30740478Y36049003D01*
X30740476Y36049002D01*
X30734448Y36046318D01*
X30579947Y35934066D01*
X30575526Y35929156D01*
X30575525Y35929155D01*
X30556573Y35908106D01*
X30452160Y35792144D01*
X30356673Y35626756D01*
X30297658Y35445128D01*
X30296968Y35438567D01*
X30296968Y35438565D01*
X30292736Y35398297D01*
X30277696Y35255200D01*
X16053786Y35255200D01*
X15997677Y35294488D01*
X15992695Y35296811D01*
X15992690Y35296814D01*
X15801178Y35386117D01*
X15801177Y35386118D01*
X15796196Y35388440D01*
X15790888Y35389862D01*
X15790886Y35389863D01*
X15701212Y35413891D01*
X15581463Y35445978D01*
X15360000Y35465353D01*
X15138537Y35445978D01*
X15018788Y35413891D01*
X14929114Y35389863D01*
X14929112Y35389862D01*
X14923804Y35388440D01*
X14918823Y35386118D01*
X14918822Y35386117D01*
X14727311Y35296814D01*
X14727306Y35296811D01*
X14722324Y35294488D01*
X14717817Y35291332D01*
X14717815Y35291331D01*
X14544730Y35170136D01*
X14544727Y35170134D01*
X14540219Y35166977D01*
X14383023Y35009781D01*
X14379866Y35005273D01*
X14379864Y35005270D01*
X14277230Y34858693D01*
X14255512Y34827676D01*
X14253189Y34822694D01*
X14253186Y34822689D01*
X14163883Y34631178D01*
X14161560Y34626196D01*
X14104022Y34411463D01*
X14084647Y34190000D01*
X11635353Y34190000D01*
X11615978Y34411463D01*
X11558440Y34626196D01*
X11556117Y34631178D01*
X11466814Y34822689D01*
X11466811Y34822694D01*
X11464488Y34827676D01*
X11442770Y34858693D01*
X11340136Y35005270D01*
X11340134Y35005273D01*
X11336977Y35009781D01*
X11179781Y35166977D01*
X11175273Y35170134D01*
X11175270Y35170136D01*
X11099505Y35223187D01*
X10997677Y35294488D01*
X10992695Y35296811D01*
X10992690Y35296814D01*
X10801178Y35386117D01*
X10801177Y35386118D01*
X10796196Y35388440D01*
X10790888Y35389862D01*
X10790886Y35389863D01*
X10701212Y35413891D01*
X10581463Y35445978D01*
X10360000Y35465353D01*
X10138537Y35445978D01*
X10018788Y35413891D01*
X9929114Y35389863D01*
X9929112Y35389862D01*
X9923804Y35388440D01*
X9918823Y35386118D01*
X9918822Y35386117D01*
X9727311Y35296814D01*
X9727306Y35296811D01*
X9722324Y35294488D01*
X9717817Y35291332D01*
X9717815Y35291331D01*
X9544730Y35170136D01*
X9544727Y35170134D01*
X9540219Y35166977D01*
X9383023Y35009781D01*
X9379866Y35005273D01*
X9379864Y35005270D01*
X9277230Y34858693D01*
X9255512Y34827676D01*
X9253189Y34822694D01*
X9253186Y34822689D01*
X9163883Y34631178D01*
X9161560Y34626196D01*
X9104022Y34411463D01*
X9084647Y34190000D01*
X762500Y34190000D01*
X762500Y39176091D01*
X43560298Y39176091D01*
X43565327Y39016111D01*
X43609982Y38862407D01*
X43691458Y38724638D01*
X44538230Y37877865D01*
X44632959Y37804386D01*
X44779855Y37740819D01*
X44937943Y37715780D01*
X44945835Y37716526D01*
X45089404Y37730097D01*
X45089407Y37730098D01*
X45097292Y37730843D01*
X45104746Y37733526D01*
X45104748Y37733527D01*
X45240429Y37782375D01*
X45240431Y37782376D01*
X45247889Y37785061D01*
X45380271Y37875028D01*
X45486121Y37995090D01*
X45558786Y38137704D01*
X45593702Y38293908D01*
X45588674Y38453889D01*
X45544018Y38607593D01*
X45462542Y38745362D01*
X44615770Y39592135D01*
X44521041Y39665614D01*
X44374145Y39729181D01*
X44216057Y39754220D01*
X44208165Y39753474D01*
X44064596Y39739903D01*
X44064593Y39739902D01*
X44056708Y39739157D01*
X44049254Y39736474D01*
X44049252Y39736473D01*
X43913571Y39687625D01*
X43913569Y39687624D01*
X43906111Y39684939D01*
X43773729Y39594972D01*
X43667880Y39474910D01*
X43595215Y39332296D01*
X43560298Y39176091D01*
X762500Y39176091D01*
X762500Y42877866D01*
X37843500Y42877866D01*
X37850255Y42815684D01*
X37901385Y42679295D01*
X37988739Y42562739D01*
X38105295Y42475385D01*
X38241684Y42424255D01*
X38303866Y42417500D01*
X40180134Y42417500D01*
X40242316Y42424255D01*
X40378705Y42475385D01*
X40495261Y42562739D01*
X40582615Y42679295D01*
X40633745Y42815684D01*
X40640500Y42877866D01*
X47243500Y42877866D01*
X47250255Y42815684D01*
X47301385Y42679295D01*
X47388739Y42562739D01*
X47505295Y42475385D01*
X47641684Y42424255D01*
X47703866Y42417500D01*
X49580134Y42417500D01*
X49642316Y42424255D01*
X49778705Y42475385D01*
X49895261Y42562739D01*
X49982615Y42679295D01*
X50033745Y42815684D01*
X50040500Y42877866D01*
X50040500Y43894600D01*
X67870500Y43894600D01*
X67881474Y43788834D01*
X67937450Y43621054D01*
X68030522Y43470652D01*
X68155697Y43345695D01*
X68161927Y43341855D01*
X68161928Y43341854D01*
X68299090Y43257306D01*
X68306262Y43252885D01*
X68386005Y43226436D01*
X68467611Y43199368D01*
X68467613Y43199368D01*
X68474139Y43197203D01*
X68480975Y43196503D01*
X68480978Y43196502D01*
X68524031Y43192091D01*
X68578600Y43186500D01*
X69929400Y43186500D01*
X69932646Y43186837D01*
X69932650Y43186837D01*
X70028308Y43196762D01*
X70028312Y43196763D01*
X70035166Y43197474D01*
X70041702Y43199655D01*
X70041704Y43199655D01*
X70173806Y43243728D01*
X70202946Y43253450D01*
X70353348Y43346522D01*
X70478305Y43471697D01*
X70571115Y43622262D01*
X70626797Y43790139D01*
X70637500Y43894600D01*
X70637500Y44745400D01*
X70626526Y44851166D01*
X70570550Y45018946D01*
X70477478Y45169348D01*
X70352303Y45294305D01*
X70346072Y45298146D01*
X70207968Y45383275D01*
X70207966Y45383276D01*
X70201738Y45387115D01*
X70041254Y45440345D01*
X70040389Y45440632D01*
X70040387Y45440632D01*
X70033861Y45442797D01*
X70027025Y45443497D01*
X70027022Y45443498D01*
X69983969Y45447909D01*
X69929400Y45453500D01*
X68578600Y45453500D01*
X68575354Y45453163D01*
X68575350Y45453163D01*
X68479692Y45443238D01*
X68479688Y45443237D01*
X68472834Y45442526D01*
X68466298Y45440345D01*
X68466296Y45440345D01*
X68431731Y45428813D01*
X68305054Y45386550D01*
X68154652Y45293478D01*
X68029695Y45168303D01*
X67936885Y45017738D01*
X67881203Y44849861D01*
X67870500Y44745400D01*
X67870500Y43894600D01*
X50040500Y43894600D01*
X50040500Y45671866D01*
X57911500Y45671866D01*
X57918255Y45609684D01*
X57969385Y45473295D01*
X58056739Y45356739D01*
X58173295Y45269385D01*
X58309684Y45218255D01*
X58371866Y45211500D01*
X59992134Y45211500D01*
X60054316Y45218255D01*
X60190705Y45269385D01*
X60307261Y45356739D01*
X60351174Y45415332D01*
X60408033Y45457847D01*
X60478852Y45462873D01*
X60541145Y45428813D01*
X60552825Y45415333D01*
X60596739Y45356739D01*
X60713295Y45269385D01*
X60849684Y45218255D01*
X60911866Y45211500D01*
X62532134Y45211500D01*
X62594316Y45218255D01*
X62730705Y45269385D01*
X62847261Y45356739D01*
X62934615Y45473295D01*
X62985745Y45609684D01*
X62992500Y45671866D01*
X62992500Y46694600D01*
X67870500Y46694600D01*
X67881474Y46588834D01*
X67937450Y46421054D01*
X68030522Y46270652D01*
X68155697Y46145695D01*
X68161927Y46141855D01*
X68161928Y46141854D01*
X68299090Y46057306D01*
X68306262Y46052885D01*
X68386005Y46026436D01*
X68467611Y45999368D01*
X68467613Y45999368D01*
X68474139Y45997203D01*
X68480975Y45996503D01*
X68480978Y45996502D01*
X68524031Y45992091D01*
X68578600Y45986500D01*
X69929400Y45986500D01*
X69932646Y45986837D01*
X69932650Y45986837D01*
X70028308Y45996762D01*
X70028312Y45996763D01*
X70035166Y45997474D01*
X70041702Y45999655D01*
X70041704Y45999655D01*
X70173806Y46043728D01*
X70202946Y46053450D01*
X70353348Y46146522D01*
X70478305Y46271697D01*
X70571115Y46422262D01*
X70626797Y46590139D01*
X70637500Y46694600D01*
X70637500Y47545400D01*
X70637161Y47548668D01*
X70627238Y47644308D01*
X70627237Y47644312D01*
X70626526Y47651166D01*
X70570550Y47818946D01*
X70477478Y47969348D01*
X70352303Y48094305D01*
X70346072Y48098146D01*
X70207968Y48183275D01*
X70207966Y48183276D01*
X70201738Y48187115D01*
X70041254Y48240345D01*
X70040389Y48240632D01*
X70040387Y48240632D01*
X70033861Y48242797D01*
X70027025Y48243497D01*
X70027022Y48243498D01*
X69983969Y48247909D01*
X69929400Y48253500D01*
X68578600Y48253500D01*
X68575354Y48253163D01*
X68575350Y48253163D01*
X68479692Y48243238D01*
X68479688Y48243237D01*
X68472834Y48242526D01*
X68466298Y48240345D01*
X68466296Y48240345D01*
X68334194Y48196272D01*
X68305054Y48186550D01*
X68154652Y48093478D01*
X68029695Y47968303D01*
X67936885Y47817738D01*
X67881203Y47649861D01*
X67880503Y47643025D01*
X67880502Y47643022D01*
X67876838Y47607261D01*
X67870500Y47545400D01*
X67870500Y46694600D01*
X62992500Y46694600D01*
X62992500Y47292134D01*
X62985745Y47354316D01*
X62934615Y47490705D01*
X62847261Y47607261D01*
X62730705Y47694615D01*
X62594316Y47745745D01*
X62532134Y47752500D01*
X60911866Y47752500D01*
X60849684Y47745745D01*
X60713295Y47694615D01*
X60596739Y47607261D01*
X60591358Y47600081D01*
X60552826Y47548668D01*
X60495967Y47506153D01*
X60425148Y47501127D01*
X60362855Y47535187D01*
X60351174Y47548668D01*
X60312642Y47600081D01*
X60307261Y47607261D01*
X60190705Y47694615D01*
X60054316Y47745745D01*
X59992134Y47752500D01*
X58371866Y47752500D01*
X58309684Y47745745D01*
X58173295Y47694615D01*
X58056739Y47607261D01*
X57969385Y47490705D01*
X57918255Y47354316D01*
X57911500Y47292134D01*
X57911500Y45671866D01*
X50040500Y45671866D01*
X50040500Y48054134D01*
X50033745Y48116316D01*
X49982615Y48252705D01*
X49895261Y48369261D01*
X49778705Y48456615D01*
X49642316Y48507745D01*
X49580134Y48514500D01*
X47703866Y48514500D01*
X47641684Y48507745D01*
X47505295Y48456615D01*
X47388739Y48369261D01*
X47301385Y48252705D01*
X47250255Y48116316D01*
X47243500Y48054134D01*
X47243500Y42877866D01*
X40640500Y42877866D01*
X40640500Y48054134D01*
X40633745Y48116316D01*
X40582615Y48252705D01*
X40495261Y48369261D01*
X40378705Y48456615D01*
X40242316Y48507745D01*
X40180134Y48514500D01*
X38303866Y48514500D01*
X38241684Y48507745D01*
X38105295Y48456615D01*
X37988739Y48369261D01*
X37901385Y48252705D01*
X37850255Y48116316D01*
X37843500Y48054134D01*
X37843500Y42877866D01*
X762500Y42877866D01*
X762500Y49911500D01*
X782502Y49979621D01*
X836158Y50026114D01*
X888500Y50037500D01*
X90551500Y50037500D01*
X90619621Y50017498D01*
G37*
%TD.AperFunction*%
%TD*%
M02*
