M48
; DRILL file {KiCad 6.0.4-6f826c9f35~116~ubuntu20.04.1} date Tue May 17 20:48:04 2022
; FORMAT={-:-/ absolute / metric / decimal}
; #@! TF.CreationDate,2022-05-17T20:48:04+00:00
; #@! TF.GenerationSoftware,Kicad,Pcbnew,6.0.4-6f826c9f35~116~ubuntu20.04.1
; #@! TF.FileFunction,Plated,1,4,PTH
FMAT,2
METRIC
; #@! TA.AperFunction,Plated,PTH,ViaDrill
T1C0.400
; #@! TA.AperFunction,Plated,PTH,ComponentDrill
T2C0.600
; #@! TA.AperFunction,Plated,PTH,ComponentDrill
T3C0.762
; #@! TA.AperFunction,Plated,PTH,ComponentDrill
T4C0.800
; #@! TA.AperFunction,Plated,PTH,ComponentDrill
T5C0.889
; #@! TA.AperFunction,Plated,PTH,ComponentDrill
T6C3.000
%
G90
G05
T1
X2.54Y33.02
X2.54Y29.845
X2.54Y27.94
X2.54Y26.035
X2.54Y24.13
X2.54Y22.225
X2.54Y20.955
X3.175Y19.685
X3.302Y31.648
X4.064Y34.544
X4.445Y18.415
X4.623Y16.256
X4.986Y26.918
X4.986Y25.648
X5.08Y35.56
X5.537Y34.29
X5.715Y33.02
X6.096Y36.576
X6.985Y31.75
X7.62Y33.02
X9.304Y22.092
X9.957Y14.224
X10.319Y30.201
X10.32Y28.95
X10.32Y27.68
X10.32Y25.775
X10.668Y21.965
X12.225Y21.965
X12.86Y23.87
X13.462Y21.59
X14.732Y12.344
X15.138Y25.552
X16.612Y25.502
X18.186Y25.502
X18.288Y29.921
X18.999Y38.71
X19.101Y19.253
X19.152Y17.374
X19.253Y15.545
X19.456Y29.972
X19.914Y25.552
X19.914Y24.13
X20.625Y29.972
X22.352Y39.065
X23.368Y16.053
X23.368Y14.275
X23.622Y21.996
X23.724Y17.475
X24.587Y21.996
X24.74Y17.475
X26.365Y30.429
X26.365Y23.216
X28.143Y11.176
X28.651Y26.924
X28.969Y13.018
X29.87Y18.339
X30.328Y16.967
X30.48Y14.63
X31.191Y35.255
T3
X10.36Y34.19
X15.36Y34.19
T4
X43.434Y36.122
X43.434Y31.242
T5
X59.182Y46.482
X61.722Y46.482
T6
X5.08Y45.72
X5.08Y5.08
X76.2Y45.72
X76.2Y5.08
T2
G00X84.762Y11.062
M15
G01X83.662Y11.062
M16
G05
G00X84.762Y2.422
M15
G01X83.662Y2.422
M16
G05
G00X88.792Y11.062
M15
G01X87.992Y11.062
M16
G05
G00X88.792Y2.422
M15
G01X87.992Y2.422
M16
G05
T0
M30
