%TF.GenerationSoftware,KiCad,Pcbnew,7.0.8-7.0.8~ubuntu23.04.1*%
%TF.CreationDate,2023-11-16T08:02:11+00:00*%
%TF.ProjectId,USTSIPIN02,55535453-4950-4494-9e30-322e6b696361,02A*%
%TF.SameCoordinates,Original*%
%TF.FileFunction,Soldermask,Bot*%
%TF.FilePolarity,Negative*%
%FSLAX46Y46*%
G04 Gerber Fmt 4.6, Leading zero omitted, Abs format (unit mm)*
G04 Created by KiCad (PCBNEW 7.0.8-7.0.8~ubuntu23.04.1) date 2023-11-16 08:02:11*
%MOMM*%
%LPD*%
G01*
G04 APERTURE LIST*
G04 Aperture macros list*
%AMRoundRect*
0 Rectangle with rounded corners*
0 $1 Rounding radius*
0 $2 $3 $4 $5 $6 $7 $8 $9 X,Y pos of 4 corners*
0 Add a 4 corners polygon primitive as box body*
4,1,4,$2,$3,$4,$5,$6,$7,$8,$9,$2,$3,0*
0 Add four circle primitives for the rounded corners*
1,1,$1+$1,$2,$3*
1,1,$1+$1,$4,$5*
1,1,$1+$1,$6,$7*
1,1,$1+$1,$8,$9*
0 Add four rect primitives between the rounded corners*
20,1,$1+$1,$2,$3,$4,$5,0*
20,1,$1+$1,$4,$5,$6,$7,0*
20,1,$1+$1,$6,$7,$8,$9,0*
20,1,$1+$1,$8,$9,$2,$3,0*%
%AMFreePoly0*
4,1,38,0.551423,0.811284,0.578785,0.763892,0.580000,0.750000,0.580000,-0.750000,0.561284,-0.801423,0.513892,-0.828785,0.500000,-0.830000,0.000000,-0.830000,-0.013982,-0.824911,-0.071157,-0.824911,-0.093696,-0.821670,-0.230247,-0.781575,-0.250959,-0.772116,-0.370681,-0.695175,-0.387890,-0.680264,-0.481087,-0.572709,-0.493398,-0.553553,-0.552517,-0.424099,-0.558932,-0.402251,-0.579186,-0.261385,
-0.580000,-0.250000,-0.580000,0.250000,-0.579186,0.261385,-0.558932,0.402251,-0.552517,0.424099,-0.493398,0.553553,-0.481087,0.572709,-0.387890,0.680264,-0.370681,0.695175,-0.250959,0.772116,-0.230247,0.781575,-0.093696,0.821670,-0.071157,0.824911,-0.020602,0.824911,-0.013892,0.828785,0.000000,0.830000,0.500000,0.830000,0.551423,0.811284,0.551423,0.811284,$1*%
%AMFreePoly1*
4,1,38,0.013982,0.824911,0.071157,0.824911,0.093696,0.821670,0.230247,0.781575,0.250959,0.772116,0.370681,0.695175,0.387890,0.680264,0.481087,0.572709,0.493398,0.553553,0.552517,0.424099,0.558932,0.402251,0.579186,0.261385,0.580000,0.250000,0.580000,-0.250000,0.579186,-0.261385,0.558932,-0.402251,0.552517,-0.424099,0.493398,-0.553553,0.481087,-0.572709,0.387890,-0.680264,
0.370681,-0.695175,0.250959,-0.772116,0.230247,-0.781575,0.093696,-0.821670,0.071157,-0.824911,0.020602,-0.824911,0.013892,-0.828785,0.000000,-0.830000,-0.500000,-0.830000,-0.551423,-0.811284,-0.578785,-0.763892,-0.580000,-0.750000,-0.580000,0.750000,-0.561284,0.801423,-0.513892,0.828785,-0.500000,0.830000,0.000000,0.830000,0.013982,0.824911,0.013982,0.824911,$1*%
G04 Aperture macros list end*
%ADD10C,6.160000*%
%ADD11C,1.684000*%
%ADD12C,1.660000*%
%ADD13RoundRect,0.330000X0.250000X0.475000X-0.250000X0.475000X-0.250000X-0.475000X0.250000X-0.475000X0*%
%ADD14RoundRect,0.330000X1.100000X-0.325000X1.100000X0.325000X-1.100000X0.325000X-1.100000X-0.325000X0*%
%ADD15RoundRect,0.330000X-0.250000X-0.475000X0.250000X-0.475000X0.250000X0.475000X-0.250000X0.475000X0*%
%ADD16RoundRect,0.330000X0.450000X0.425000X-0.450000X0.425000X-0.450000X-0.425000X0.450000X-0.425000X0*%
%ADD17RoundRect,0.330000X0.475000X-0.250000X0.475000X0.250000X-0.475000X0.250000X-0.475000X-0.250000X0*%
%ADD18RoundRect,0.330000X-0.450000X0.262500X-0.450000X-0.262500X0.450000X-0.262500X0.450000X0.262500X0*%
%ADD19RoundRect,0.330000X0.262500X0.450000X-0.262500X0.450000X-0.262500X-0.450000X0.262500X-0.450000X0*%
%ADD20RoundRect,0.330000X0.450000X-0.262500X0.450000X0.262500X-0.450000X0.262500X-0.450000X-0.262500X0*%
%ADD21RoundRect,0.230000X-0.825000X-0.150000X0.825000X-0.150000X0.825000X0.150000X-0.825000X0.150000X0*%
%ADD22RoundRect,0.230000X-0.150000X0.512500X-0.150000X-0.512500X0.150000X-0.512500X0.150000X0.512500X0*%
%ADD23RoundRect,0.330000X-0.475000X0.250000X-0.475000X-0.250000X0.475000X-0.250000X0.475000X0.250000X0*%
%ADD24RoundRect,0.230000X-0.512500X-0.150000X0.512500X-0.150000X0.512500X0.150000X-0.512500X0.150000X0*%
%ADD25RoundRect,0.330000X-0.425000X0.450000X-0.425000X-0.450000X0.425000X-0.450000X0.425000X0.450000X0*%
%ADD26RoundRect,0.323750X-0.243750X-0.456250X0.243750X-0.456250X0.243750X0.456250X-0.243750X0.456250X0*%
%ADD27RoundRect,0.330000X-0.850000X0.375000X-0.850000X-0.375000X0.850000X-0.375000X0.850000X0.375000X0*%
%ADD28RoundRect,0.330000X0.425000X-0.450000X0.425000X0.450000X-0.425000X0.450000X-0.425000X-0.450000X0*%
%ADD29RoundRect,0.330000X-0.450000X-0.425000X0.450000X-0.425000X0.450000X0.425000X-0.450000X0.425000X0*%
%ADD30RoundRect,0.080000X0.650000X0.750000X-0.650000X0.750000X-0.650000X-0.750000X0.650000X-0.750000X0*%
%ADD31RoundRect,0.080000X0.350000X1.500000X-0.350000X1.500000X-0.350000X-1.500000X0.350000X-1.500000X0*%
%ADD32RoundRect,0.230000X0.150000X-0.512500X0.150000X0.512500X-0.150000X0.512500X-0.150000X-0.512500X0*%
%ADD33RoundRect,0.080000X-0.275000X0.750000X-0.275000X-0.750000X0.275000X-0.750000X0.275000X0.750000X0*%
%ADD34RoundRect,0.080000X0.750000X0.275000X-0.750000X0.275000X-0.750000X-0.275000X0.750000X-0.275000X0*%
%ADD35RoundRect,0.317500X0.237500X-0.287500X0.237500X0.287500X-0.237500X0.287500X-0.237500X-0.287500X0*%
%ADD36RoundRect,0.080000X-0.125000X0.550000X-0.125000X-0.550000X0.125000X-0.550000X0.125000X0.550000X0*%
%ADD37RoundRect,0.080000X-0.500000X-0.900000X0.500000X-0.900000X0.500000X0.900000X-0.500000X0.900000X0*%
%ADD38RoundRect,0.330000X-1.100000X0.325000X-1.100000X-0.325000X1.100000X-0.325000X1.100000X0.325000X0*%
%ADD39RoundRect,0.330000X-0.262500X-0.450000X0.262500X-0.450000X0.262500X0.450000X-0.262500X0.450000X0*%
%ADD40RoundRect,0.080000X-0.500000X-0.500000X0.500000X-0.500000X0.500000X0.500000X-0.500000X0.500000X0*%
%ADD41RoundRect,0.080000X-0.500000X-1.150000X0.500000X-1.150000X0.500000X1.150000X-0.500000X1.150000X0*%
%ADD42RoundRect,0.080000X-0.500000X-1.900000X0.500000X-1.900000X0.500000X1.900000X-0.500000X1.900000X0*%
%ADD43RoundRect,0.080000X-1.150000X-0.500000X1.150000X-0.500000X1.150000X0.500000X-1.150000X0.500000X0*%
%ADD44RoundRect,0.080000X-1.900000X-0.500000X1.900000X-0.500000X1.900000X0.500000X-1.900000X0.500000X0*%
%ADD45RoundRect,0.230000X-0.700000X0.150000X-0.700000X-0.150000X0.700000X-0.150000X0.700000X0.150000X0*%
%ADD46RoundRect,0.330000X-1.100000X0.250000X-1.100000X-0.250000X1.100000X-0.250000X1.100000X0.250000X0*%
%ADD47RoundRect,0.230000X0.587500X0.150000X-0.587500X0.150000X-0.587500X-0.150000X0.587500X-0.150000X0*%
%ADD48C,2.000000*%
%ADD49RoundRect,0.317500X-0.237500X0.287500X-0.237500X-0.287500X0.237500X-0.287500X0.237500X0.287500X0*%
%ADD50RoundRect,0.330000X-0.325000X-1.100000X0.325000X-1.100000X0.325000X1.100000X-0.325000X1.100000X0*%
%ADD51RoundRect,0.230000X-0.150000X0.587500X-0.150000X-0.587500X0.150000X-0.587500X0.150000X0.587500X0*%
%ADD52RoundRect,0.230000X0.150000X0.200000X-0.150000X0.200000X-0.150000X-0.200000X0.150000X-0.200000X0*%
%ADD53C,1.160000*%
%ADD54C,0.810000*%
%ADD55RoundRect,0.080000X-0.575000X0.300000X-0.575000X-0.300000X0.575000X-0.300000X0.575000X0.300000X0*%
%ADD56RoundRect,0.080000X-0.575000X0.150000X-0.575000X-0.150000X0.575000X-0.150000X0.575000X0.150000X0*%
%ADD57O,2.160000X1.160000*%
%ADD58O,2.260000X1.210000*%
%ADD59RoundRect,0.230000X-0.468458X0.256326X0.256326X-0.468458X0.468458X-0.256326X-0.256326X0.468458X0*%
%ADD60FreePoly0,0.000000*%
%ADD61FreePoly1,0.000000*%
%ADD62RoundRect,0.080000X-0.250000X-0.150000X0.250000X-0.150000X0.250000X0.150000X-0.250000X0.150000X0*%
%ADD63RoundRect,0.142500X0.203293X0.291682X-0.291682X-0.203293X-0.203293X-0.291682X0.291682X0.203293X0*%
%ADD64RoundRect,0.142500X-0.203293X0.291682X-0.291682X0.203293X0.203293X-0.291682X0.291682X-0.203293X0*%
%ADD65RoundRect,0.080000X0.000000X1.767767X-1.767767X0.000000X0.000000X-1.767767X1.767767X0.000000X0*%
%ADD66RoundRect,0.317500X0.287500X0.237500X-0.287500X0.237500X-0.287500X-0.237500X0.287500X-0.237500X0*%
%ADD67RoundRect,0.317500X-0.287500X-0.237500X0.287500X-0.237500X0.287500X0.237500X-0.287500X0.237500X0*%
%ADD68RoundRect,0.230000X-0.200000X0.150000X-0.200000X-0.150000X0.200000X-0.150000X0.200000X0.150000X0*%
%ADD69RoundRect,0.230000X0.512500X0.150000X-0.512500X0.150000X-0.512500X-0.150000X0.512500X-0.150000X0*%
%ADD70RoundRect,0.330000X-0.512652X-0.159099X-0.159099X-0.512652X0.512652X0.159099X0.159099X0.512652X0*%
%ADD71RoundRect,0.080000X0.325000X0.200000X-0.325000X0.200000X-0.325000X-0.200000X0.325000X-0.200000X0*%
%ADD72RoundRect,0.230000X0.825000X0.150000X-0.825000X0.150000X-0.825000X-0.150000X0.825000X-0.150000X0*%
G04 APERTURE END LIST*
D10*
%TO.C,M2*%
X174972341Y-78676927D03*
%TD*%
%TO.C,M3*%
X103852341Y-78676927D03*
%TD*%
%TO.C,M4*%
X103852341Y-119316927D03*
%TD*%
D11*
%TO.C,D2*%
X114132341Y-87996927D03*
X109132341Y-87996927D03*
%TD*%
D10*
%TO.C,M1*%
X174972341Y-119316927D03*
%TD*%
D12*
%TO.C,Y1*%
X155580541Y-77965727D03*
X160460541Y-77965727D03*
%TD*%
D13*
%TO.C,C1*%
X142851541Y-84518927D03*
X140951541Y-84518927D03*
%TD*%
D14*
%TO.C,C3*%
X103852341Y-95493527D03*
X103852341Y-92543527D03*
%TD*%
D13*
%TO.C,C4*%
X107012140Y-108623527D03*
X105112140Y-108623527D03*
%TD*%
%TO.C,C5*%
X106605741Y-100012927D03*
X104705741Y-100012927D03*
%TD*%
D15*
%TO.C,C6*%
X111843141Y-100012927D03*
X113743141Y-100012927D03*
%TD*%
D16*
%TO.C,C7*%
X130780141Y-104457927D03*
X128080141Y-104457927D03*
%TD*%
%TO.C,C8*%
X123769741Y-110426927D03*
X121069741Y-110426927D03*
%TD*%
D15*
%TO.C,C9*%
X117278741Y-110096727D03*
X119178741Y-110096727D03*
%TD*%
D13*
%TO.C,C10*%
X110187141Y-100012927D03*
X108287141Y-100012927D03*
%TD*%
D16*
%TO.C,C11*%
X111171341Y-102146527D03*
X108471341Y-102146527D03*
%TD*%
D13*
%TO.C,C12*%
X130659541Y-102044927D03*
X128759541Y-102044927D03*
%TD*%
%TO.C,C13*%
X123217341Y-108217127D03*
X121317341Y-108217127D03*
%TD*%
D15*
%TO.C,C14*%
X117278741Y-108064727D03*
X119178741Y-108064727D03*
%TD*%
D17*
%TO.C,C15*%
X116222141Y-97864127D03*
X116222141Y-95964127D03*
%TD*%
%TO.C,C16*%
X116222141Y-101496327D03*
X116222141Y-99596327D03*
%TD*%
D14*
%TO.C,C17*%
X122140341Y-96280927D03*
X122140341Y-93330927D03*
%TD*%
D17*
%TO.C,C18*%
X122495941Y-100759727D03*
X122495941Y-98859727D03*
%TD*%
%TO.C,C19*%
X130623941Y-94435127D03*
X130623941Y-92535127D03*
%TD*%
D18*
%TO.C,R3*%
X130369941Y-106415627D03*
X130369941Y-108240627D03*
%TD*%
D19*
%TO.C,R4*%
X123891041Y-112560527D03*
X122066041Y-112560527D03*
%TD*%
%TO.C,R5*%
X116956841Y-112154127D03*
X115131841Y-112154127D03*
%TD*%
%TO.C,R6*%
X106568241Y-102095727D03*
X104743241Y-102095727D03*
%TD*%
D18*
%TO.C,R7*%
X114190141Y-92496427D03*
X114190141Y-94321427D03*
%TD*%
D20*
%TO.C,R8*%
X116196741Y-94321427D03*
X116196741Y-92496427D03*
%TD*%
%TO.C,R9*%
X114190141Y-97801227D03*
X114190141Y-95976227D03*
%TD*%
D18*
%TO.C,R10*%
X118457341Y-99659227D03*
X118457341Y-101484227D03*
%TD*%
D20*
%TO.C,R11*%
X120438541Y-101458827D03*
X120438541Y-99633827D03*
%TD*%
%TO.C,R12*%
X122064141Y-105980027D03*
X122064141Y-104155027D03*
%TD*%
D19*
%TO.C,R13*%
X126227841Y-101867127D03*
X124402841Y-101867127D03*
%TD*%
D21*
%TO.C,U1*%
X106812941Y-97853927D03*
X106812941Y-96583927D03*
X106812941Y-95313927D03*
X106812941Y-94043927D03*
X111762941Y-94043927D03*
X111762941Y-95313927D03*
X111762941Y-96583927D03*
X111762941Y-97853927D03*
%TD*%
D22*
%TO.C,U4*%
X124187541Y-103955427D03*
X125137541Y-103955427D03*
X126087541Y-103955427D03*
X126087541Y-106230427D03*
X124187541Y-106230427D03*
%TD*%
%TO.C,U5*%
X118116941Y-103803027D03*
X119066941Y-103803027D03*
X120016941Y-103803027D03*
X120016941Y-106078027D03*
X118116941Y-106078027D03*
%TD*%
D18*
%TO.C,R2*%
X109922941Y-104155027D03*
X109922941Y-105980027D03*
%TD*%
D21*
%TO.C,U2*%
X125050141Y-99987527D03*
X125050141Y-98717527D03*
X125050141Y-97447527D03*
X125050141Y-96177527D03*
X130000141Y-96177527D03*
X130000141Y-97447527D03*
X130000141Y-98717527D03*
X130000141Y-99987527D03*
%TD*%
D19*
%TO.C,R1*%
X127828041Y-109537927D03*
X126003041Y-109537927D03*
%TD*%
D23*
%TO.C,C2*%
X121733941Y-88572727D03*
X121733941Y-90472727D03*
%TD*%
D24*
%TO.C,U3*%
X112011241Y-106017527D03*
X112011241Y-105067527D03*
X112011241Y-104117527D03*
X114286241Y-104117527D03*
X114286241Y-106017527D03*
%TD*%
D25*
%TO.C,C21*%
X126204341Y-88553727D03*
X126204341Y-91253727D03*
%TD*%
D26*
%TO.C,F2*%
X176016041Y-93358127D03*
X177891041Y-93358127D03*
%TD*%
D27*
%TO.C,L3*%
X140377541Y-86568127D03*
X140377541Y-88718127D03*
%TD*%
D28*
%TO.C,C50*%
X135500741Y-81195327D03*
X135500741Y-78495327D03*
%TD*%
D29*
%TO.C,C42*%
X136182741Y-84112527D03*
X138882741Y-84112527D03*
%TD*%
D30*
%TO.C,C52*%
X131999341Y-79692927D03*
D31*
X130649341Y-79692927D03*
D30*
X129299341Y-79692927D03*
%TD*%
D15*
%TO.C,C44*%
X154413541Y-98535727D03*
X156313541Y-98535727D03*
%TD*%
D29*
%TO.C,C40*%
X153828141Y-100821727D03*
X156528141Y-100821727D03*
%TD*%
D13*
%TO.C,C31*%
X160065141Y-98535727D03*
X158165141Y-98535727D03*
%TD*%
D23*
%TO.C,C27*%
X157903541Y-104549327D03*
X157903541Y-106449327D03*
%TD*%
D32*
%TO.C,U8*%
X138025541Y-88780627D03*
X137075541Y-88780627D03*
X136125541Y-88780627D03*
X136125541Y-86505627D03*
X138025541Y-86505627D03*
%TD*%
D33*
%TO.C,U10*%
X152989141Y-84203727D03*
X153789141Y-84203727D03*
X154589141Y-84203727D03*
X155389141Y-84203727D03*
X156189141Y-84203727D03*
X156989141Y-84203727D03*
X157789141Y-84203727D03*
X158589141Y-84203727D03*
X159389141Y-84203727D03*
X160189141Y-84203727D03*
X160989141Y-84203727D03*
D34*
X162689141Y-85903727D03*
X162689141Y-86703727D03*
X162689141Y-87503727D03*
X162689141Y-88303727D03*
X162689141Y-89103727D03*
X162689141Y-89903727D03*
X162689141Y-90703727D03*
X162689141Y-91503727D03*
X162689141Y-92303727D03*
X162689141Y-93103727D03*
X162689141Y-93903727D03*
D33*
X160989141Y-95603727D03*
X160189141Y-95603727D03*
X159389141Y-95603727D03*
X158589141Y-95603727D03*
X157789141Y-95603727D03*
X156989141Y-95603727D03*
X156189141Y-95603727D03*
X155389141Y-95603727D03*
X154589141Y-95603727D03*
X153789141Y-95603727D03*
X152989141Y-95603727D03*
D34*
X151289141Y-93903727D03*
X151289141Y-93103727D03*
X151289141Y-92303727D03*
X151289141Y-91503727D03*
X151289141Y-90703727D03*
X151289141Y-89903727D03*
X151289141Y-89103727D03*
X151289141Y-88303727D03*
X151289141Y-87503727D03*
X151289141Y-86703727D03*
X151289141Y-85903727D03*
%TD*%
D20*
%TO.C,R20*%
X165218741Y-93407027D03*
X165218741Y-91582027D03*
%TD*%
D19*
%TO.C,R23*%
X169638841Y-102932927D03*
X167813841Y-102932927D03*
%TD*%
D23*
%TO.C,C26*%
X155617541Y-104549327D03*
X155617541Y-106449327D03*
%TD*%
%TO.C,C28*%
X160138741Y-104549327D03*
X160138741Y-106449327D03*
%TD*%
D13*
%TO.C,C30*%
X153671941Y-77965727D03*
X151771941Y-77965727D03*
%TD*%
D15*
%TO.C,C33*%
X162338341Y-77965727D03*
X164238341Y-77965727D03*
%TD*%
%TO.C,C34*%
X154609141Y-81263727D03*
X156509141Y-81263727D03*
%TD*%
D17*
%TO.C,C35*%
X148556341Y-90853727D03*
X148556341Y-88953727D03*
%TD*%
%TO.C,C39*%
X166481142Y-89732127D03*
X166481142Y-87832127D03*
%TD*%
D15*
%TO.C,C43*%
X171456341Y-102952927D03*
X173356341Y-102952927D03*
%TD*%
D17*
%TO.C,C47*%
X136307141Y-117128927D03*
X136307141Y-115228927D03*
%TD*%
D35*
%TO.C,L1*%
X158462341Y-102665927D03*
X158462341Y-100915927D03*
%TD*%
D20*
%TO.C,R21*%
X167250741Y-93407027D03*
X167250741Y-91582027D03*
%TD*%
D36*
%TO.C,U11*%
X138304341Y-112758927D03*
X138804341Y-112758927D03*
X139304341Y-112758927D03*
X139804341Y-112758927D03*
X140304341Y-112758927D03*
X140304341Y-117058927D03*
X139804341Y-117058927D03*
X139304341Y-117058927D03*
X138804341Y-117058927D03*
X138304341Y-117058927D03*
%TD*%
D37*
%TO.C,Y2*%
X140554341Y-110336927D03*
X138054341Y-110336927D03*
%TD*%
D25*
%TO.C,C23*%
X123892941Y-88579127D03*
X123892941Y-91279127D03*
%TD*%
D38*
%TO.C,C24*%
X118838341Y-90155927D03*
X118838341Y-93105927D03*
%TD*%
D23*
%TO.C,C32*%
X142866741Y-86972527D03*
X142866741Y-88872527D03*
%TD*%
%TO.C,C54*%
X128490341Y-88192927D03*
X128490341Y-90092927D03*
%TD*%
D20*
%TO.C,R15*%
X125518541Y-86650627D03*
X125518541Y-84825627D03*
%TD*%
D39*
%TO.C,R19*%
X121888241Y-86169927D03*
X123713241Y-86169927D03*
%TD*%
%TO.C,R22*%
X118027441Y-88201927D03*
X119852441Y-88201927D03*
%TD*%
D40*
%TO.C,M8*%
X101144341Y-83096927D03*
D41*
X101144341Y-84746927D03*
D42*
X101144341Y-89996927D03*
X101144341Y-95996927D03*
X101144341Y-101996927D03*
X101144341Y-107996927D03*
D41*
X101144341Y-113246927D03*
D40*
X101144341Y-114896927D03*
D43*
X102794341Y-83096927D03*
X102794341Y-114896927D03*
D44*
X108044341Y-83096927D03*
X108044341Y-114896927D03*
X114044341Y-83096927D03*
X114044341Y-114896927D03*
X120044341Y-83096927D03*
X120044341Y-114896927D03*
X126044341Y-83096927D03*
X126044341Y-114896927D03*
D43*
X131294341Y-83096927D03*
X131294341Y-114896927D03*
D40*
X132944341Y-83096927D03*
D41*
X132944341Y-84746927D03*
D42*
X132944341Y-89996927D03*
X132944341Y-95996927D03*
X132944341Y-101996927D03*
X132944341Y-107996927D03*
D41*
X132944341Y-113246927D03*
D40*
X132944341Y-114896927D03*
%TD*%
D45*
%TO.C,J3*%
X184806341Y-93077927D03*
X184806341Y-94327927D03*
X184806341Y-95577927D03*
X184806341Y-96827927D03*
X184806341Y-98077927D03*
X184806341Y-99327927D03*
D46*
X188006341Y-91227927D03*
X188006341Y-101177927D03*
%TD*%
D47*
%TO.C,Q2*%
X147461841Y-118874927D03*
X147461841Y-120774927D03*
X145586841Y-119824927D03*
%TD*%
D48*
%TO.C,FID3*%
X110405541Y-77432327D03*
%TD*%
D18*
%TO.C,R37*%
X158208341Y-114340427D03*
X158208341Y-116165427D03*
%TD*%
D49*
%TO.C,L2*%
X173905541Y-95023127D03*
X173905541Y-96773127D03*
%TD*%
D39*
%TO.C,R39*%
X113607841Y-110122127D03*
X115432841Y-110122127D03*
%TD*%
D19*
%TO.C,R49*%
X153228041Y-105194527D03*
X151403041Y-105194527D03*
%TD*%
D17*
%TO.C,C59*%
X111650141Y-86840527D03*
X111650141Y-84940527D03*
%TD*%
D45*
%TO.C,J1*%
X184806341Y-78111927D03*
X184806341Y-79361927D03*
X184806341Y-80611927D03*
X184806341Y-81861927D03*
X184806341Y-83111927D03*
X184806341Y-84361927D03*
X184806341Y-85611927D03*
X184806341Y-86861927D03*
D46*
X188006341Y-76261927D03*
X188006341Y-88711927D03*
%TD*%
D18*
%TO.C,R42*%
X153382341Y-114340427D03*
X153382341Y-116165427D03*
%TD*%
D23*
%TO.C,C29*%
X148906341Y-93552927D03*
X148906341Y-95452927D03*
%TD*%
D20*
%TO.C,R44*%
X150842341Y-117181427D03*
X150842341Y-115356427D03*
%TD*%
%TO.C,R28*%
X168114341Y-115657427D03*
X168114341Y-113832427D03*
%TD*%
D39*
%TO.C,R47*%
X180714641Y-87058927D03*
X182539641Y-87058927D03*
%TD*%
D50*
%TO.C,C37*%
X107711341Y-91249927D03*
X110661341Y-91249927D03*
%TD*%
D51*
%TO.C,U16*%
X149993941Y-98923027D03*
X151893941Y-98923027D03*
X150943941Y-100798027D03*
%TD*%
D45*
%TO.C,J7*%
X184806341Y-105620927D03*
X184806341Y-106870927D03*
X184806341Y-108120927D03*
D46*
X188006341Y-103770927D03*
X188006341Y-109970927D03*
%TD*%
D52*
%TO.C,D6*%
X179911141Y-93053327D03*
X181311141Y-93053327D03*
%TD*%
D53*
%TO.C,TP3*%
X126636141Y-79692927D03*
%TD*%
%TO.C,TP4*%
X116018941Y-105118327D03*
%TD*%
D13*
%TO.C,C48*%
X170696341Y-105362927D03*
X168796341Y-105362927D03*
%TD*%
D51*
%TO.C,Q1*%
X105721741Y-85765827D03*
X107621741Y-85765827D03*
X106671741Y-87640827D03*
%TD*%
D54*
%TO.C,J4*%
X183484341Y-114764427D03*
X183484341Y-120544427D03*
D55*
X182409341Y-114454427D03*
X182409341Y-115254427D03*
D56*
X182409341Y-116404427D03*
X182409341Y-117404427D03*
X182409341Y-117904427D03*
X182409341Y-118904427D03*
D55*
X182409341Y-120854427D03*
X182409341Y-120054427D03*
D56*
X182409341Y-119404427D03*
X182409341Y-118404427D03*
X182409341Y-116904427D03*
X182409341Y-115904427D03*
D57*
X187164341Y-113334427D03*
X187164341Y-121974427D03*
D58*
X182984341Y-113334427D03*
X182984341Y-121974427D03*
%TD*%
D39*
%TO.C,R46*%
X180714641Y-84976127D03*
X182539641Y-84976127D03*
%TD*%
D19*
%TO.C,R27*%
X169992041Y-110934927D03*
X168167041Y-110934927D03*
%TD*%
D39*
%TO.C,R34*%
X179495441Y-98742927D03*
X181320441Y-98742927D03*
%TD*%
D25*
%TO.C,C55*%
X131004941Y-85531127D03*
X131004941Y-88231127D03*
%TD*%
D39*
%TO.C,R41*%
X180714641Y-79743727D03*
X182539641Y-79743727D03*
%TD*%
D20*
%TO.C,R43*%
X155922341Y-117181427D03*
X155922341Y-115356427D03*
%TD*%
D19*
%TO.C,R30*%
X182539641Y-111341327D03*
X180714641Y-111341327D03*
%TD*%
D48*
%TO.C,FID5*%
X172381541Y-83604527D03*
%TD*%
D53*
%TO.C,TP7*%
X162297741Y-98184127D03*
%TD*%
D39*
%TO.C,R45*%
X180714641Y-82385327D03*
X182539641Y-82385327D03*
%TD*%
D53*
%TO.C,TP6*%
X164101141Y-96304527D03*
%TD*%
%TO.C,TP1*%
X111599341Y-108115527D03*
%TD*%
D59*
%TO.C,U7*%
X176094156Y-112326344D03*
X176765907Y-111654593D03*
X177437658Y-110982842D03*
X179046326Y-112591510D03*
X178374575Y-113263261D03*
X177702824Y-113935012D03*
%TD*%
D19*
%TO.C,R14*%
X105907841Y-90614927D03*
X104082841Y-90614927D03*
%TD*%
D60*
%TO.C,JP1*%
X180418341Y-101079727D03*
D61*
X181718341Y-101079727D03*
%TD*%
D39*
%TO.C,R40*%
X118433841Y-86169927D03*
X120258841Y-86169927D03*
%TD*%
D62*
%TO.C,U15*%
X105463741Y-111131727D03*
X105463741Y-110331727D03*
X106863741Y-110331727D03*
X106863741Y-111131727D03*
%TD*%
D20*
%TO.C,R29*%
X163034341Y-115657427D03*
X163034341Y-113832427D03*
%TD*%
D52*
%TO.C,D11*%
X181333541Y-103772127D03*
X182733541Y-103772127D03*
%TD*%
D17*
%TO.C,C49*%
X169384341Y-97152927D03*
X169384341Y-95252927D03*
%TD*%
D19*
%TO.C,R31*%
X182539641Y-108344127D03*
X180714641Y-108344127D03*
%TD*%
D17*
%TO.C,C60*%
X142606341Y-114842927D03*
X142606341Y-112942927D03*
%TD*%
%TO.C,C38*%
X172096341Y-93452927D03*
X172096341Y-91552927D03*
%TD*%
D47*
%TO.C,Q3*%
X157367841Y-118874927D03*
X157367841Y-120774927D03*
X155492841Y-119824927D03*
%TD*%
D63*
%TO.C,U9*%
X174746254Y-106571801D03*
X175099807Y-106925354D03*
X175453360Y-107278908D03*
X175806914Y-107632461D03*
X176160467Y-107986014D03*
D64*
X176160467Y-109311840D03*
X175806914Y-109665393D03*
X175453360Y-110018946D03*
X175099807Y-110372500D03*
X174746254Y-110726053D03*
D63*
X173420428Y-110726053D03*
X173066875Y-110372500D03*
X172713322Y-110018946D03*
X172359768Y-109665393D03*
X172006215Y-109311840D03*
D64*
X172006215Y-107986014D03*
X172359768Y-107632461D03*
X172713322Y-107278908D03*
X173066875Y-106925354D03*
X173420428Y-106571801D03*
D65*
X174083341Y-108648927D03*
%TD*%
D39*
%TO.C,R16*%
X114115841Y-90132327D03*
X115940841Y-90132327D03*
%TD*%
D23*
%TO.C,C46*%
X171670341Y-99113727D03*
X171670341Y-101013727D03*
%TD*%
D29*
%TO.C,C53*%
X113932341Y-85280927D03*
X116632341Y-85280927D03*
%TD*%
D66*
%TO.C,L4*%
X146688141Y-87058927D03*
X144938141Y-87058927D03*
%TD*%
D23*
%TO.C,C41*%
X173854741Y-99113727D03*
X173854741Y-101013727D03*
%TD*%
D48*
%TO.C,FID4*%
X117156341Y-121832927D03*
%TD*%
D67*
%TO.C,L5*%
X127335941Y-86246127D03*
X129085941Y-86246127D03*
%TD*%
D20*
%TO.C,R36*%
X145762341Y-117181427D03*
X145762341Y-115356427D03*
%TD*%
D68*
%TO.C,D1*%
X173905541Y-93397727D03*
X173905541Y-91997727D03*
%TD*%
D15*
%TO.C,C56*%
X149790741Y-102908527D03*
X151690741Y-102908527D03*
%TD*%
D20*
%TO.C,R26*%
X170349541Y-114590627D03*
X170349541Y-112765627D03*
%TD*%
D69*
%TO.C,U12*%
X169505841Y-99113727D03*
X169505841Y-100063727D03*
X169505841Y-101013727D03*
X167230841Y-101013727D03*
X167230841Y-99113727D03*
%TD*%
D70*
%TO.C,C45*%
X172725790Y-112599976D03*
X174069292Y-113943478D03*
%TD*%
D47*
%TO.C,Q4*%
X152541841Y-118874927D03*
X152541841Y-120774927D03*
X150666841Y-119824927D03*
%TD*%
D39*
%TO.C,R32*%
X180714641Y-77254527D03*
X182539641Y-77254527D03*
%TD*%
D52*
%TO.C,D5*%
X179911141Y-94577327D03*
X181311141Y-94577327D03*
%TD*%
D17*
%TO.C,C51*%
X167250741Y-97152927D03*
X167250741Y-95252927D03*
%TD*%
D71*
%TO.C,U14*%
X149277741Y-104925527D03*
X149277741Y-105575527D03*
X149277741Y-106225527D03*
X147377741Y-106225527D03*
X147377741Y-105575527D03*
X147377741Y-104925527D03*
%TD*%
D18*
%TO.C,R50*%
X128464941Y-92625327D03*
X128464941Y-94450327D03*
%TD*%
D72*
%TO.C,U6*%
X144376541Y-103594327D03*
X144376541Y-104864327D03*
X144376541Y-106134327D03*
X144376541Y-107404327D03*
X139426541Y-107404327D03*
X139426541Y-106134327D03*
X139426541Y-104864327D03*
X139426541Y-103594327D03*
%TD*%
D20*
%TO.C,R48*%
X176750341Y-104430627D03*
X176750341Y-102605627D03*
%TD*%
D53*
%TO.C,TP5*%
X150943941Y-96863327D03*
%TD*%
D23*
%TO.C,C36*%
X136770741Y-103279327D03*
X136770741Y-105179327D03*
%TD*%
D13*
%TO.C,C20*%
X115495741Y-108064727D03*
X113595741Y-108064727D03*
%TD*%
D18*
%TO.C,R38*%
X168063541Y-77256427D03*
X168063541Y-79081427D03*
%TD*%
%TO.C,R35*%
X148302341Y-114340427D03*
X148302341Y-116165427D03*
%TD*%
D53*
%TO.C,TP2*%
X113504341Y-102248127D03*
%TD*%
D39*
%TO.C,R33*%
X179495441Y-96660127D03*
X181320441Y-96660127D03*
%TD*%
M02*
