%TF.GenerationSoftware,KiCad,Pcbnew,6.0.4-6f826c9f35~116~ubuntu20.04.1*%
%TF.CreationDate,2022-05-24T14:40:17+00:00*%
%TF.ProjectId,USTSIPIN02A,55535453-4950-4494-9e30-32412e6b6963,02A*%
%TF.SameCoordinates,Original*%
%TF.FileFunction,Paste,Bot*%
%TF.FilePolarity,Positive*%
%FSLAX46Y46*%
G04 Gerber Fmt 4.6, Leading zero omitted, Abs format (unit mm)*
G04 Created by KiCad (PCBNEW 6.0.4-6f826c9f35~116~ubuntu20.04.1) date 2022-05-24 14:40:17*
%MOMM*%
%LPD*%
G01*
G04 APERTURE LIST*
G04 Aperture macros list*
%AMRoundRect*
0 Rectangle with rounded corners*
0 $1 Rounding radius*
0 $2 $3 $4 $5 $6 $7 $8 $9 X,Y pos of 4 corners*
0 Add a 4 corners polygon primitive as box body*
4,1,4,$2,$3,$4,$5,$6,$7,$8,$9,$2,$3,0*
0 Add four circle primitives for the rounded corners*
1,1,$1+$1,$2,$3*
1,1,$1+$1,$4,$5*
1,1,$1+$1,$6,$7*
1,1,$1+$1,$8,$9*
0 Add four rect primitives between the rounded corners*
20,1,$1+$1,$2,$3,$4,$5,0*
20,1,$1+$1,$4,$5,$6,$7,0*
20,1,$1+$1,$6,$7,$8,$9,0*
20,1,$1+$1,$8,$9,$2,$3,0*%
G04 Aperture macros list end*
%ADD10RoundRect,0.225000X-0.250000X0.225000X-0.250000X-0.225000X0.250000X-0.225000X0.250000X0.225000X0*%
%ADD11RoundRect,0.225000X-0.225000X-0.250000X0.225000X-0.250000X0.225000X0.250000X-0.225000X0.250000X0*%
%ADD12RoundRect,0.225000X0.250000X-0.225000X0.250000X0.225000X-0.250000X0.225000X-0.250000X-0.225000X0*%
%ADD13RoundRect,0.250000X0.250000X0.475000X-0.250000X0.475000X-0.250000X-0.475000X0.250000X-0.475000X0*%
%ADD14RoundRect,0.225000X0.225000X0.250000X-0.225000X0.250000X-0.225000X-0.250000X0.225000X-0.250000X0*%
%ADD15RoundRect,0.250000X0.475000X-0.250000X0.475000X0.250000X-0.475000X0.250000X-0.475000X-0.250000X0*%
%ADD16RoundRect,0.200000X-0.275000X0.200000X-0.275000X-0.200000X0.275000X-0.200000X0.275000X0.200000X0*%
%ADD17RoundRect,0.200000X0.200000X0.275000X-0.200000X0.275000X-0.200000X-0.275000X0.200000X-0.275000X0*%
%ADD18RoundRect,0.200000X0.275000X-0.200000X0.275000X0.200000X-0.275000X0.200000X-0.275000X-0.200000X0*%
%ADD19RoundRect,0.150000X-0.825000X-0.150000X0.825000X-0.150000X0.825000X0.150000X-0.825000X0.150000X0*%
%ADD20R,0.650000X1.560000*%
%ADD21RoundRect,0.150000X0.150000X-0.587500X0.150000X0.587500X-0.150000X0.587500X-0.150000X-0.587500X0*%
%ADD22RoundRect,0.243750X0.456250X-0.243750X0.456250X0.243750X-0.456250X0.243750X-0.456250X-0.243750X0*%
%ADD23RoundRect,0.250000X0.450000X-0.325000X0.450000X0.325000X-0.450000X0.325000X-0.450000X-0.325000X0*%
%ADD24R,1.500000X1.300000*%
%ADD25R,3.000000X0.700000*%
%ADD26RoundRect,0.150000X0.150000X-0.512500X0.150000X0.512500X-0.150000X0.512500X-0.150000X-0.512500X0*%
%ADD27R,1.500000X0.550000*%
%ADD28R,0.550000X1.500000*%
%ADD29RoundRect,0.250001X0.462499X1.074999X-0.462499X1.074999X-0.462499X-1.074999X0.462499X-1.074999X0*%
%ADD30R,0.250000X1.100000*%
%ADD31R,1.000000X1.800000*%
%ADD32RoundRect,0.200000X-0.200000X-0.275000X0.200000X-0.275000X0.200000X0.275000X-0.200000X0.275000X0*%
%ADD33R,3.800000X1.000000*%
%ADD34R,1.000000X3.800000*%
%ADD35R,1.000000X1.000000*%
%ADD36R,1.000000X2.300000*%
%ADD37R,2.300000X1.000000*%
%ADD38RoundRect,0.150000X-0.700000X0.150000X-0.700000X-0.150000X0.700000X-0.150000X0.700000X0.150000X0*%
%ADD39RoundRect,0.250000X-1.100000X0.250000X-1.100000X-0.250000X1.100000X-0.250000X1.100000X0.250000X0*%
%ADD40RoundRect,0.150000X-0.587500X-0.150000X0.587500X-0.150000X0.587500X0.150000X-0.587500X0.150000X0*%
%ADD41R,0.600000X0.700000*%
%ADD42RoundRect,0.150000X-0.150000X0.587500X-0.150000X-0.587500X0.150000X-0.587500X0.150000X0.587500X0*%
%ADD43R,1.150000X0.600000*%
%ADD44R,1.150000X0.300000*%
%ADD45RoundRect,0.250000X-0.450000X0.325000X-0.450000X-0.325000X0.450000X-0.325000X0.450000X0.325000X0*%
%ADD46RoundRect,0.150000X-0.512500X-0.150000X0.512500X-0.150000X0.512500X0.150000X-0.512500X0.150000X0*%
%ADD47R,0.700000X0.600000*%
%ADD48RoundRect,0.250000X0.255000X0.255000X-0.255000X0.255000X-0.255000X-0.255000X0.255000X-0.255000X0*%
%ADD49RoundRect,0.062500X0.350000X0.062500X-0.350000X0.062500X-0.350000X-0.062500X0.350000X-0.062500X0*%
%ADD50RoundRect,0.062500X0.062500X0.350000X-0.062500X0.350000X-0.062500X-0.350000X0.062500X-0.350000X0*%
%ADD51RoundRect,0.150000X0.512500X0.150000X-0.512500X0.150000X-0.512500X-0.150000X0.512500X-0.150000X0*%
%ADD52RoundRect,0.150000X0.825000X0.150000X-0.825000X0.150000X-0.825000X-0.150000X0.825000X-0.150000X0*%
G04 APERTURE END LIST*
D10*
%TO.C,C20*%
X107916341Y-106654727D03*
X107916341Y-108204727D03*
%TD*%
D11*
%TO.C,C1*%
X115421741Y-106058127D03*
X116971741Y-106058127D03*
%TD*%
D12*
%TO.C,C3*%
X104012341Y-95269427D03*
X104012341Y-93719427D03*
%TD*%
D11*
%TO.C,C4*%
X115421741Y-104178527D03*
X116971741Y-104178527D03*
%TD*%
D13*
%TO.C,C5*%
X106549841Y-100526927D03*
X104649841Y-100526927D03*
%TD*%
D10*
%TO.C,C6*%
X113453541Y-100304727D03*
X113453541Y-101854727D03*
%TD*%
D14*
%TO.C,C7*%
X130484541Y-104584927D03*
X128934541Y-104584927D03*
%TD*%
%TO.C,C8*%
X124998141Y-110020527D03*
X123448141Y-110020527D03*
%TD*%
D11*
%TO.C,C9*%
X119282541Y-110274527D03*
X120832541Y-110274527D03*
%TD*%
D14*
%TO.C,C10*%
X109867341Y-100526927D03*
X108317341Y-100526927D03*
%TD*%
D10*
%TO.C,C11*%
X115282341Y-100304727D03*
X115282341Y-101854727D03*
%TD*%
D14*
%TO.C,C12*%
X130484541Y-102603727D03*
X128934541Y-102603727D03*
%TD*%
%TO.C,C13*%
X124998141Y-108242527D03*
X123448141Y-108242527D03*
%TD*%
D11*
%TO.C,C14*%
X119282541Y-108496527D03*
X120832541Y-108496527D03*
%TD*%
D12*
%TO.C,C15*%
X115536341Y-97485927D03*
X115536341Y-95935927D03*
%TD*%
D10*
%TO.C,C16*%
X117314341Y-95935927D03*
X117314341Y-97485927D03*
%TD*%
D14*
%TO.C,C17*%
X122508941Y-96101327D03*
X120958941Y-96101327D03*
%TD*%
D12*
%TO.C,C18*%
X122546741Y-99632527D03*
X122546741Y-98082527D03*
%TD*%
D15*
%TO.C,C19*%
X129963541Y-93952527D03*
X129963541Y-92052527D03*
%TD*%
D16*
%TO.C,R3*%
X130369941Y-106503127D03*
X130369941Y-108153127D03*
%TD*%
D17*
%TO.C,R4*%
X125048141Y-111849327D03*
X123398141Y-111849327D03*
%TD*%
%TO.C,R5*%
X117021741Y-109817327D03*
X115371741Y-109817327D03*
%TD*%
%TO.C,R6*%
X106424841Y-103066927D03*
X104774841Y-103066927D03*
%TD*%
D16*
%TO.C,R7*%
X114172341Y-92716927D03*
X114172341Y-94366927D03*
%TD*%
D18*
%TO.C,R8*%
X115790341Y-94303427D03*
X115790341Y-92653427D03*
%TD*%
%TO.C,R9*%
X113758341Y-97535927D03*
X113758341Y-95885927D03*
%TD*%
%TO.C,R10*%
X119092341Y-97535927D03*
X119092341Y-95885927D03*
%TD*%
%TO.C,R11*%
X120768741Y-99681727D03*
X120768741Y-98031727D03*
%TD*%
%TO.C,R12*%
X123156341Y-105121927D03*
X123156341Y-103471927D03*
%TD*%
D17*
%TO.C,R13*%
X128033141Y-93967727D03*
X126383141Y-93967727D03*
%TD*%
D19*
%TO.C,U1*%
X106617341Y-98621927D03*
X106617341Y-97351927D03*
X106617341Y-96081927D03*
X106617341Y-94811927D03*
X111567341Y-94811927D03*
X111567341Y-96081927D03*
X111567341Y-97351927D03*
X111567341Y-98621927D03*
%TD*%
D20*
%TO.C,U4*%
X125051141Y-102930127D03*
X126001141Y-102930127D03*
X126951141Y-102930127D03*
X126951141Y-105630127D03*
X125051141Y-105630127D03*
%TD*%
%TO.C,U5*%
X119107541Y-102980927D03*
X120057541Y-102980927D03*
X121007541Y-102980927D03*
X121007541Y-105680927D03*
X119107541Y-105680927D03*
%TD*%
D16*
%TO.C,R2*%
X117060341Y-100356327D03*
X117060341Y-102006327D03*
%TD*%
D19*
%TO.C,U2*%
X125050141Y-99987527D03*
X125050141Y-98717527D03*
X125050141Y-97447527D03*
X125050141Y-96177527D03*
X130000141Y-96177527D03*
X130000141Y-97447527D03*
X130000141Y-98717527D03*
X130000141Y-99987527D03*
%TD*%
D18*
%TO.C,R1*%
X127829941Y-109473927D03*
X127829941Y-107823927D03*
%TD*%
D10*
%TO.C,C2*%
X121784741Y-89128727D03*
X121784741Y-90678727D03*
%TD*%
D21*
%TO.C,U3*%
X111914341Y-106538427D03*
X110014341Y-106538427D03*
X110964341Y-104663427D03*
%TD*%
D10*
%TO.C,C21*%
X125950341Y-89128727D03*
X125950341Y-90678727D03*
%TD*%
D22*
%TO.C,F2*%
X176399341Y-94424927D03*
X178274341Y-94424927D03*
%TD*%
D23*
%TO.C,L3*%
X181830341Y-90369927D03*
X181830341Y-88319927D03*
%TD*%
D12*
%TO.C,C50*%
X175734341Y-85026927D03*
X175734341Y-83476927D03*
%TD*%
%TO.C,C42*%
X173702341Y-85026927D03*
X173702341Y-83476927D03*
%TD*%
D24*
%TO.C,C52*%
X174718341Y-86898927D03*
D25*
X174718341Y-88248927D03*
D24*
X174718341Y-89598927D03*
%TD*%
D12*
%TO.C,C44*%
X162018341Y-90881927D03*
X162018341Y-89331927D03*
%TD*%
%TO.C,C40*%
X164304341Y-90881927D03*
X164304341Y-89331927D03*
%TD*%
%TO.C,C31*%
X162018341Y-87325927D03*
X162018341Y-85775927D03*
%TD*%
D11*
%TO.C,C27*%
X170387341Y-87820927D03*
X171937341Y-87820927D03*
%TD*%
D26*
%TO.C,U8*%
X179478341Y-88196427D03*
X178528341Y-88196427D03*
X177578341Y-88196427D03*
X177578341Y-85921427D03*
X179478341Y-85921427D03*
%TD*%
D27*
%TO.C,U10*%
X147686341Y-92930927D03*
X147686341Y-92130927D03*
X147686341Y-91330927D03*
X147686341Y-90530927D03*
X147686341Y-89730927D03*
X147686341Y-88930927D03*
X147686341Y-88130927D03*
X147686341Y-87330927D03*
X147686341Y-86530927D03*
X147686341Y-85730927D03*
X147686341Y-84930927D03*
D28*
X149386341Y-83230927D03*
X150186341Y-83230927D03*
X150986341Y-83230927D03*
X151786341Y-83230927D03*
X152586341Y-83230927D03*
X153386341Y-83230927D03*
X154186341Y-83230927D03*
X154986341Y-83230927D03*
X155786341Y-83230927D03*
X156586341Y-83230927D03*
X157386341Y-83230927D03*
D27*
X159086341Y-84930927D03*
X159086341Y-85730927D03*
X159086341Y-86530927D03*
X159086341Y-87330927D03*
X159086341Y-88130927D03*
X159086341Y-88930927D03*
X159086341Y-89730927D03*
X159086341Y-90530927D03*
X159086341Y-91330927D03*
X159086341Y-92130927D03*
X159086341Y-92930927D03*
D28*
X157386341Y-94630927D03*
X156586341Y-94630927D03*
X155786341Y-94630927D03*
X154986341Y-94630927D03*
X154186341Y-94630927D03*
X153386341Y-94630927D03*
X152586341Y-94630927D03*
X151786341Y-94630927D03*
X150986341Y-94630927D03*
X150186341Y-94630927D03*
X149386341Y-94630927D03*
%TD*%
D17*
%TO.C,R20*%
X153445341Y-107886927D03*
X151795341Y-107886927D03*
%TD*%
D24*
%TO.C,C29*%
X173956341Y-96376927D03*
D25*
X173956341Y-97726927D03*
D24*
X173956341Y-99076927D03*
%TD*%
D18*
%TO.C,R23*%
X144238341Y-94995927D03*
X144238341Y-93345927D03*
%TD*%
D11*
%TO.C,C26*%
X170387341Y-90106927D03*
X171937341Y-90106927D03*
%TD*%
%TO.C,C28*%
X170387341Y-85788927D03*
X171937341Y-85788927D03*
%TD*%
D12*
%TO.C,C30*%
X138650341Y-92659927D03*
X138650341Y-91109927D03*
%TD*%
D10*
%TO.C,C33*%
X138650341Y-87807927D03*
X138650341Y-89357927D03*
%TD*%
D12*
%TO.C,C34*%
X144746341Y-91135927D03*
X144746341Y-89585927D03*
%TD*%
D10*
%TO.C,C35*%
X154144341Y-96951927D03*
X154144341Y-98501927D03*
%TD*%
D12*
%TO.C,C39*%
X153382341Y-79705927D03*
X153382341Y-78155927D03*
%TD*%
D11*
%TO.C,C43*%
X145241341Y-97980927D03*
X146791341Y-97980927D03*
%TD*%
%TO.C,C47*%
X170387341Y-92392927D03*
X171937341Y-92392927D03*
%TD*%
D29*
%TO.C,L1*%
X167696841Y-86677927D03*
X164721841Y-86677927D03*
%TD*%
D17*
%TO.C,R21*%
X153445341Y-106108927D03*
X151795341Y-106108927D03*
%TD*%
D30*
%TO.C,U11*%
X168098341Y-96320927D03*
X167598341Y-96320927D03*
X167098341Y-96320927D03*
X166598341Y-96320927D03*
X166098341Y-96320927D03*
X166098341Y-92020927D03*
X166598341Y-92020927D03*
X167098341Y-92020927D03*
X167598341Y-92020927D03*
X168098341Y-92020927D03*
%TD*%
D31*
%TO.C,Y2*%
X165848341Y-98742927D03*
X168348341Y-98742927D03*
%TD*%
D10*
%TO.C,C23*%
X123816741Y-89128727D03*
X123816741Y-90678727D03*
%TD*%
%TO.C,C24*%
X119600341Y-89128727D03*
X119600341Y-90678727D03*
%TD*%
D14*
%TO.C,C32*%
X179997341Y-90596927D03*
X178447341Y-90596927D03*
%TD*%
D11*
%TO.C,C54*%
X176483341Y-92138927D03*
X178033341Y-92138927D03*
%TD*%
D32*
%TO.C,R15*%
X126395341Y-87109727D03*
X128045341Y-87109727D03*
%TD*%
%TO.C,R19*%
X122839341Y-87109727D03*
X124489341Y-87109727D03*
%TD*%
%TO.C,R22*%
X119181741Y-87109727D03*
X120831741Y-87109727D03*
%TD*%
D33*
%TO.C,M8*%
X126044341Y-83096927D03*
D34*
X101144341Y-95996927D03*
D35*
X132944341Y-83096927D03*
D33*
X108044341Y-114896927D03*
X126044341Y-114896927D03*
X114044341Y-114896927D03*
D34*
X132944341Y-107996927D03*
D33*
X120044341Y-114896927D03*
D34*
X101144341Y-101996927D03*
X132944341Y-95996927D03*
D36*
X132944341Y-84746927D03*
D34*
X101144341Y-89996927D03*
D37*
X131294341Y-83096927D03*
D33*
X120044341Y-83096927D03*
D34*
X101144341Y-107996927D03*
D33*
X108044341Y-83096927D03*
D35*
X101144341Y-114896927D03*
X101144341Y-83096927D03*
D34*
X132944341Y-89996927D03*
D36*
X101144341Y-113246927D03*
X101144341Y-84746927D03*
D37*
X131294341Y-114896927D03*
D34*
X132944341Y-101996927D03*
D33*
X114044341Y-83096927D03*
D35*
X132944341Y-114896927D03*
D36*
X132944341Y-113246927D03*
D37*
X102794341Y-114896927D03*
X102794341Y-83096927D03*
%TD*%
D38*
%TO.C,J3*%
X184806341Y-93077927D03*
X184806341Y-94327927D03*
X184806341Y-95577927D03*
X184806341Y-96827927D03*
X184806341Y-98077927D03*
X184806341Y-99327927D03*
D39*
X188006341Y-91227927D03*
X188006341Y-101177927D03*
%TD*%
D40*
%TO.C,Q2*%
X147461841Y-118874927D03*
X147461841Y-120774927D03*
X145586841Y-119824927D03*
%TD*%
D14*
%TO.C,C58*%
X113669741Y-109817327D03*
X112119741Y-109817327D03*
%TD*%
D17*
%TO.C,R39*%
X106048941Y-106667727D03*
X104398941Y-106667727D03*
%TD*%
D16*
%TO.C,R37*%
X158208341Y-114427927D03*
X158208341Y-116077927D03*
%TD*%
D10*
%TO.C,C59*%
X110253141Y-86233127D03*
X110253141Y-87783127D03*
%TD*%
D38*
%TO.C,J1*%
X184806341Y-78111927D03*
X184806341Y-79361927D03*
X184806341Y-80611927D03*
X184806341Y-81861927D03*
X184806341Y-83111927D03*
X184806341Y-84361927D03*
X184806341Y-85611927D03*
X184806341Y-86861927D03*
D39*
X188006341Y-76261927D03*
X188006341Y-88711927D03*
%TD*%
D16*
%TO.C,R42*%
X153382341Y-114427927D03*
X153382341Y-116077927D03*
%TD*%
%TO.C,R44*%
X150842341Y-117093927D03*
X150842341Y-115443927D03*
%TD*%
D18*
%TO.C,R28*%
X168114341Y-115569927D03*
X168114341Y-113919927D03*
%TD*%
D10*
%TO.C,C37*%
X115922341Y-87121927D03*
X115922341Y-88671927D03*
%TD*%
D11*
%TO.C,C55*%
X115421741Y-107937727D03*
X116971741Y-107937727D03*
%TD*%
D38*
%TO.C,J7*%
X184806341Y-105620927D03*
X184806341Y-106870927D03*
X184806341Y-108120927D03*
D39*
X188006341Y-103770927D03*
X188006341Y-109970927D03*
%TD*%
D41*
%TO.C,D6*%
X180114341Y-93916927D03*
X181514341Y-93916927D03*
%TD*%
D10*
%TO.C,C48*%
X178020341Y-105079927D03*
X178020341Y-106629927D03*
%TD*%
D42*
%TO.C,Q1*%
X106509141Y-85816627D03*
X108409141Y-85816627D03*
X107459141Y-87691627D03*
%TD*%
D18*
%TO.C,R41*%
X111972341Y-86721927D03*
X111972341Y-85071927D03*
%TD*%
D43*
%TO.C,J4*%
X182409341Y-114454427D03*
X182409341Y-115254427D03*
D44*
X182409341Y-116404427D03*
X182409341Y-117404427D03*
X182409341Y-117904427D03*
X182409341Y-118904427D03*
D43*
X182409341Y-120854427D03*
X182409341Y-120054427D03*
D44*
X182409341Y-119404427D03*
X182409341Y-118404427D03*
X182409341Y-116904427D03*
X182409341Y-115904427D03*
%TD*%
D17*
%TO.C,R27*%
X168939341Y-109664927D03*
X167289341Y-109664927D03*
%TD*%
D32*
%TO.C,R34*%
X179735341Y-100520927D03*
X181385341Y-100520927D03*
%TD*%
D45*
%TO.C,L2*%
X150588341Y-98225927D03*
X150588341Y-100275927D03*
%TD*%
D18*
%TO.C,R43*%
X155922341Y-117093927D03*
X155922341Y-115443927D03*
%TD*%
D17*
%TO.C,R30*%
X179607341Y-110172927D03*
X177957341Y-110172927D03*
%TD*%
D10*
%TO.C,C57*%
X130776341Y-111379127D03*
X130776341Y-112929127D03*
%TD*%
D46*
%TO.C,U7*%
X175866841Y-113662927D03*
X175866841Y-112712927D03*
X175866841Y-111762927D03*
X178141841Y-111762927D03*
X178141841Y-112712927D03*
X178141841Y-113662927D03*
%TD*%
D16*
%TO.C,R14*%
X112122341Y-88621927D03*
X112122341Y-90271927D03*
%TD*%
%TO.C,R40*%
X129963541Y-86335527D03*
X129963541Y-87985527D03*
%TD*%
D18*
%TO.C,R29*%
X163034341Y-115569927D03*
X163034341Y-113919927D03*
%TD*%
D10*
%TO.C,C56*%
X128947541Y-111379127D03*
X128947541Y-112929127D03*
%TD*%
D47*
%TO.C,D11*%
X182084341Y-106678927D03*
X182084341Y-108078927D03*
%TD*%
D14*
%TO.C,C49*%
X164063341Y-100774927D03*
X162513341Y-100774927D03*
%TD*%
D17*
%TO.C,R31*%
X179607341Y-108394927D03*
X177957341Y-108394927D03*
%TD*%
D10*
%TO.C,C60*%
X163796341Y-94411927D03*
X163796341Y-95961927D03*
%TD*%
%TO.C,C38*%
X177004341Y-96697927D03*
X177004341Y-98247927D03*
%TD*%
D40*
%TO.C,Q3*%
X157367841Y-118874927D03*
X157367841Y-120774927D03*
X155492841Y-119824927D03*
%TD*%
D48*
%TO.C,U9*%
X174073341Y-106499927D03*
X172823341Y-106499927D03*
X174073341Y-107749927D03*
X172823341Y-107749927D03*
D49*
X175385841Y-106124927D03*
X175385841Y-106624927D03*
X175385841Y-107124927D03*
X175385841Y-107624927D03*
X175385841Y-108124927D03*
D50*
X174448341Y-109062427D03*
X173948341Y-109062427D03*
X173448341Y-109062427D03*
X172948341Y-109062427D03*
X172448341Y-109062427D03*
D49*
X171510841Y-108124927D03*
X171510841Y-107624927D03*
X171510841Y-107124927D03*
X171510841Y-106624927D03*
X171510841Y-106124927D03*
D50*
X172448341Y-105187427D03*
X172948341Y-105187427D03*
X173448341Y-105187427D03*
X173948341Y-105187427D03*
X174448341Y-105187427D03*
%TD*%
D18*
%TO.C,R16*%
X117517541Y-89611127D03*
X117517541Y-87961127D03*
%TD*%
D10*
%TO.C,C46*%
X171670341Y-101015927D03*
X171670341Y-102565927D03*
%TD*%
D16*
%TO.C,C53*%
X113910741Y-85230927D03*
X113910741Y-86880927D03*
%TD*%
D10*
%TO.C,C41*%
X173956341Y-101015927D03*
X173956341Y-102565927D03*
%TD*%
D17*
%TO.C,R45*%
X151667341Y-79946927D03*
X150017341Y-79946927D03*
%TD*%
D18*
%TO.C,R36*%
X145762341Y-117093927D03*
X145762341Y-115443927D03*
%TD*%
D47*
%TO.C,D1*%
X173956341Y-94362927D03*
X173956341Y-92962927D03*
%TD*%
D17*
%TO.C,R26*%
X170717341Y-111696927D03*
X169067341Y-111696927D03*
%TD*%
D51*
%TO.C,U12*%
X169505841Y-101094927D03*
X169505841Y-102044927D03*
X169505841Y-102994927D03*
X167230841Y-102994927D03*
X167230841Y-101094927D03*
%TD*%
D12*
%TO.C,C45*%
X169130341Y-107886927D03*
X169130341Y-106336927D03*
%TD*%
D40*
%TO.C,Q4*%
X152541841Y-118874927D03*
X152541841Y-120774927D03*
X150666841Y-119824927D03*
%TD*%
D32*
%TO.C,R32*%
X176941341Y-103314927D03*
X178591341Y-103314927D03*
%TD*%
D41*
%TO.C,D5*%
X180114341Y-95948927D03*
X181514341Y-95948927D03*
%TD*%
D10*
%TO.C,C51*%
X164558341Y-102793927D03*
X164558341Y-104343927D03*
%TD*%
D52*
%TO.C,U6*%
X161699341Y-103441927D03*
X161699341Y-104711927D03*
X161699341Y-105981927D03*
X161699341Y-107251927D03*
X156749341Y-107251927D03*
X156749341Y-105981927D03*
X156749341Y-104711927D03*
X156749341Y-103441927D03*
%TD*%
D11*
%TO.C,C36*%
X156671341Y-101282927D03*
X158221341Y-101282927D03*
%TD*%
D16*
%TO.C,R38*%
X164812341Y-77597927D03*
X164812341Y-79247927D03*
%TD*%
%TO.C,R35*%
X148302341Y-114427927D03*
X148302341Y-116077927D03*
%TD*%
D32*
%TO.C,R33*%
X179735341Y-98742927D03*
X181385341Y-98742927D03*
%TD*%
M02*
