M48
; DRILL file {KiCad 6.0.4-6f826c9f35~116~ubuntu20.04.1} date Sat May 21 20:39:34 2022
; FORMAT={-:-/ absolute / metric / decimal}
; #@! TF.CreationDate,2022-05-21T20:39:34+00:00
; #@! TF.GenerationSoftware,Kicad,Pcbnew,6.0.4-6f826c9f35~116~ubuntu20.04.1
; #@! TF.FileFunction,Plated,1,4,PTH
FMAT,2
METRIC
; #@! TA.AperFunction,Plated,PTH,ViaDrill
T1C0.400
; #@! TA.AperFunction,Plated,PTH,ComponentDrill
T2C0.600
; #@! TA.AperFunction,Plated,PTH,ComponentDrill
T3C0.762
; #@! TA.AperFunction,Plated,PTH,ComponentDrill
T4C0.800
; #@! TA.AperFunction,Plated,PTH,ComponentDrill
T5C0.889
; #@! TA.AperFunction,Plated,PTH,ComponentDrill
T6C3.000
%
G90
G05
T1
X2.54Y27.94
X2.54Y26.035
X2.54Y24.13
X2.54Y22.225
X2.54Y20.955
X3.175Y19.685
X3.81Y30.48
X4.064Y39.624
X4.064Y38.354
X4.064Y36.576
X4.064Y34.544
X4.064Y32.766
X4.445Y18.415
X4.623Y16.256
X4.986Y26.918
X4.986Y25.648
X5.08Y12.7
X5.334Y39.624
X5.334Y38.354
X5.334Y36.576
X5.334Y34.544
X5.334Y32.766
X6.604Y34.544
X6.858Y32.766
X6.858Y12.7
X7.366Y31.242
X7.366Y19.304
X7.62Y35.052
X7.874Y32.766
X8.382Y34.036
X8.382Y12.7
X8.89Y19.304
X9.304Y22.092
X10.16Y48.26
X10.16Y45.72
X10.16Y14.478
X10.319Y30.201
X10.32Y28.95
X10.32Y27.68
X10.32Y25.775
X10.668Y31.75
X10.668Y21.965
X11.176Y15.748
X11.43Y13.716
X11.684Y35.306
X11.938Y34.036
X12.225Y21.965
X12.446Y31.75
X12.7Y48.26
X12.7Y45.72
X12.7Y7.62
X12.86Y23.87
X12.954Y16.256
X12.954Y12.7
X13.208Y32.766
X13.462Y21.59
X13.716Y31.242
X14.478Y16.256
X14.732Y19.558
X14.732Y12.344
X14.986Y36.068
X14.986Y21.082
X15.138Y25.552
X15.24Y48.26
X15.24Y45.72
X15.24Y7.62
X16.612Y25.502
X17.272Y33.782
X17.526Y39.116
X17.526Y39.116
X17.78Y48.26
X17.78Y45.72
X17.78Y7.62
X18.186Y25.502
X18.288Y29.921
X19.05Y38.862
X19.101Y19.253
X19.152Y17.374
X19.253Y15.545
X19.456Y29.972
X19.558Y32.766
X19.914Y25.552
X19.914Y24.13
X20.32Y48.26
X20.32Y45.72
X20.32Y7.62
X20.625Y29.972
X20.828Y38.862
X21.844Y29.718
X21.844Y17.272
X22.352Y38.862
X22.352Y32.512
X22.86Y48.26
X22.86Y45.72
X22.86Y7.62
X22.86Y5.08
X23.368Y32.004
X23.368Y16.053
X23.368Y14.275
X23.622Y21.996
X23.724Y17.475
X24.13Y38.862
X24.339Y18.391
X24.587Y21.996
X24.638Y30.734
X24.74Y17.475
X24.892Y32.004
X24.892Y29.464
X25.4Y48.26
X25.4Y45.72
X25.4Y7.62
X25.4Y5.08
X25.908Y38.862
X26.365Y30.429
X26.365Y23.216
X26.416Y32.004
X27.686Y38.862
X27.686Y10.922
X27.94Y48.26
X27.94Y45.72
X27.94Y32.004
X27.94Y26.924
X27.94Y7.62
X27.94Y5.08
X28.448Y28.448
X28.702Y34.544
X28.702Y11.684
X28.956Y38.862
X28.969Y13.018
X29.21Y36.068
X30.226Y18.339
X30.25Y15.603
X30.328Y16.967
X30.48Y48.26
X30.48Y45.72
X30.48Y14.63
X30.48Y5.08
X31.191Y35.255
X31.75Y34.036
X32.512Y39.624
X32.512Y36.83
X32.766Y33.528
X32.766Y31.496
X32.766Y29.464
X32.766Y23.114
X32.766Y20.828
X32.766Y17.272
X32.766Y14.478
X33.02Y48.26
X33.02Y45.72
X33.02Y5.08
X35.56Y48.26
X35.56Y45.72
X35.56Y43.434
X35.56Y5.08
X36.576Y25.4
X36.576Y23.622
X36.576Y21.59
X36.576Y17.526
X36.576Y13.97
X36.83Y38.608
X36.83Y34.29
X36.83Y33.02
X36.83Y31.75
X36.83Y30.48
X36.83Y29.21
X38.1Y12.7
X38.1Y10.16
X38.1Y5.08
X38.608Y40.386
X38.862Y25.4
X39.116Y28.702
X40.64Y40.132
X40.64Y12.7
X40.64Y10.16
X40.64Y5.08
X42.672Y40.132
X42.672Y24.13
X43.18Y12.7
X43.18Y10.16
X43.18Y5.08
X43.942Y20.32
X44.196Y42.672
X44.196Y23.114
X44.45Y24.638
X45.212Y40.132
X45.72Y37.865
X45.72Y12.7
X45.974Y38.862
X45.974Y20.32
X46.482Y39.878
X46.99Y24.13
X46.99Y22.606
X47.244Y28.956
X48.006Y25.146
X48.26Y29.718
X48.26Y13.97
X48.26Y8.382
X48.514Y27.94
X48.768Y41.402
X48.768Y16.51
X48.805Y24.391
X49.53Y1.778
X50.038Y27.94
X50.038Y11.684
X50.292Y44.45
X50.546Y48.26
X50.546Y46.482
X50.546Y42.926
X50.546Y14.732
X50.8Y18.542
X51.308Y38.354
X51.308Y33.782
X52.049Y43.186
X52.07Y35.814
X52.07Y11.43
X52.324Y33.02
X52.578Y1.778
X52.832Y48.768
X52.832Y38.354
X53.014Y42.926
X53.086Y12.7
X53.314Y8.154
X53.34Y25.654
X54.61Y48.768
X54.61Y11.43
X55.626Y1.778
X56.388Y48.768
X56.388Y23.368
X56.439Y44.201
X56.535Y35.646
X56.896Y33.782
X57.15Y32.004
X57.15Y27.686
X57.15Y15.24
X57.15Y13.97
X57.404Y43.942
X57.441Y36.068
X57.912Y48.768
X58.166Y8.382
X58.42Y32.004
X58.441Y36.068
X58.674Y26.924
X58.674Y1.778
X59.436Y24.13
X59.436Y14.732
X59.69Y48.768
X59.944Y29.21
X59.944Y26.924
X60.198Y17.272
X60.96Y18.415
X61.214Y15.494
X61.722Y48.768
X61.976Y1.778
X62.23Y42.164
X63.5Y42.164
X63.5Y28.956
X63.5Y27.94
X63.754Y48.768
X63.754Y13.97
X63.754Y12.192
X64.008Y32.004
X64.008Y26.67
X64.262Y46.228
X64.262Y7.874
X64.457Y35.052
X65.024Y18.542
X65.278Y26.67
X65.278Y11.43
X65.532Y32.004
X65.532Y1.778
X65.786Y48.768
X65.786Y9.144
X66.04Y40.894
X66.053Y29.985
X67.056Y34.29
X67.31Y46.99
X67.31Y45.212
X67.31Y37.338
X68.072Y48.768
X68.326Y19.304
X68.58Y34.29
X68.58Y13.208
X69.088Y18.542
X69.088Y16.51
X69.342Y22.352
X69.342Y11.684
X69.342Y7.62
X69.342Y1.778
X69.596Y35.052
X70.104Y48.768
X70.358Y42.164
X70.612Y30.734
X70.612Y29.464
X70.612Y27.94
X70.866Y43.434
X70.866Y20.066
X71.374Y47.244
X71.374Y45.212
X71.628Y18.288
X71.628Y14.986
X71.882Y8.001
X72.07Y23.302
X72.39Y10.16
X72.644Y20.574
X72.898Y41.91
X72.898Y27.686
X72.898Y25.146
X73.152Y30.226
X73.152Y12.7
X73.914Y9.652
X74.93Y33.02
X75.4Y14.299
X76.661Y20.621
X76.962Y25.146
X76.962Y23.622
X77.47Y19.209
X77.724Y38.1
X77.724Y33.782
X77.978Y17.526
X78.359Y15.24
X78.486Y40.769
X78.815Y23.801
X79.502Y8.89
X79.836Y23.796
X80.01Y28.448
X80.137Y15.24
X80.772Y32.258
X80.899Y18.669
X81.026Y12.7
X81.153Y45.339
X81.153Y2.413
X81.28Y27.178
X81.407Y48.006
X81.745Y37.295
X81.788Y7.112
X81.797Y34.027
X82.042Y32.258
X82.042Y17.526
X82.042Y4.318
X82.084Y13.504
X82.804Y27.178
X83.058Y48.006
X83.185Y45.339
X83.439Y16.51
X83.439Y14.478
X83.566Y32.258
X83.947Y18.796
X84.358Y35.814
X84.369Y38.427
X84.582Y37.084
X85.344Y47.498
X85.471Y30.607
X87.122Y30.607
X87.503Y47.498
X88.355Y41.91
X88.392Y9.271
X88.392Y7.874
X88.392Y6.35
X88.392Y4.572
X88.9Y30.607
X89.154Y43.18
X89.154Y35.052
X89.408Y47.498
X89.535Y16.256
X89.535Y14.351
X89.662Y25.908
X89.662Y23.368
X89.662Y20.828
T3
X10.36Y34.19
X15.36Y34.19
T4
X41.91Y36.63
X41.91Y31.75
T5
X59.182Y45.72
X61.722Y45.72
T6
X5.08Y45.72
X5.08Y5.08
X76.2Y45.72
X76.2Y5.08
T2
G00X84.762Y11.062
M15
G01X83.662Y11.062
M16
G05
G00X84.762Y2.422
M15
G01X83.662Y2.422
M16
G05
G00X88.792Y11.062
M15
G01X87.992Y11.062
M16
G05
G00X88.792Y2.422
M15
G01X87.992Y2.422
M16
G05
T0
M30
