%TF.GenerationSoftware,KiCad,Pcbnew,6.0.4-6f826c9f35~116~ubuntu20.04.1*%
%TF.CreationDate,2022-06-12T17:28:46+00:00*%
%TF.ProjectId,USTSIPIN02A,55535453-4950-4494-9e30-32412e6b6963,02A*%
%TF.SameCoordinates,Original*%
%TF.FileFunction,Legend,Bot*%
%TF.FilePolarity,Positive*%
%FSLAX46Y46*%
G04 Gerber Fmt 4.6, Leading zero omitted, Abs format (unit mm)*
G04 Created by KiCad (PCBNEW 6.0.4-6f826c9f35~116~ubuntu20.04.1) date 2022-06-12 17:28:46*
%MOMM*%
%LPD*%
G01*
G04 APERTURE LIST*
%ADD10C,0.150000*%
%ADD11C,0.100000*%
%ADD12C,0.015000*%
%ADD13C,0.120000*%
%ADD14C,0.200000*%
G04 APERTURE END LIST*
D10*
%TO.C,C20*%
X108515198Y-110154069D02*
X108562817Y-110201688D01*
X108705674Y-110249307D01*
X108800912Y-110249307D01*
X108943769Y-110201688D01*
X109039007Y-110106450D01*
X109086626Y-110011212D01*
X109134245Y-109820736D01*
X109134245Y-109677879D01*
X109086626Y-109487403D01*
X109039007Y-109392165D01*
X108943769Y-109296927D01*
X108800912Y-109249307D01*
X108705674Y-109249307D01*
X108562817Y-109296927D01*
X108515198Y-109344546D01*
X108134245Y-109344546D02*
X108086626Y-109296927D01*
X107991388Y-109249307D01*
X107753293Y-109249307D01*
X107658055Y-109296927D01*
X107610436Y-109344546D01*
X107562817Y-109439784D01*
X107562817Y-109535022D01*
X107610436Y-109677879D01*
X108181864Y-110249307D01*
X107562817Y-110249307D01*
X106943769Y-109249307D02*
X106848531Y-109249307D01*
X106753293Y-109296927D01*
X106705674Y-109344546D01*
X106658055Y-109439784D01*
X106610436Y-109630260D01*
X106610436Y-109868355D01*
X106658055Y-110058831D01*
X106705674Y-110154069D01*
X106753293Y-110201688D01*
X106848531Y-110249307D01*
X106943769Y-110249307D01*
X107039007Y-110201688D01*
X107086626Y-110154069D01*
X107134245Y-110058831D01*
X107181864Y-109868355D01*
X107181864Y-109630260D01*
X107134245Y-109439784D01*
X107086626Y-109344546D01*
X107039007Y-109296927D01*
X106943769Y-109249307D01*
%TO.C,C1*%
X113939007Y-106354069D02*
X113986626Y-106401688D01*
X114129483Y-106449307D01*
X114224721Y-106449307D01*
X114367579Y-106401688D01*
X114462817Y-106306450D01*
X114510436Y-106211212D01*
X114558055Y-106020736D01*
X114558055Y-105877879D01*
X114510436Y-105687403D01*
X114462817Y-105592165D01*
X114367579Y-105496927D01*
X114224721Y-105449307D01*
X114129483Y-105449307D01*
X113986626Y-105496927D01*
X113939007Y-105544546D01*
X112986626Y-106449307D02*
X113558055Y-106449307D01*
X113272341Y-106449307D02*
X113272341Y-105449307D01*
X113367579Y-105592165D01*
X113462817Y-105687403D01*
X113558055Y-105735022D01*
%TO.C,C3*%
X103079483Y-93730260D02*
X103127102Y-93682641D01*
X103174721Y-93539784D01*
X103174721Y-93444546D01*
X103127102Y-93301688D01*
X103031864Y-93206450D01*
X102936626Y-93158831D01*
X102746150Y-93111212D01*
X102603293Y-93111212D01*
X102412817Y-93158831D01*
X102317579Y-93206450D01*
X102222341Y-93301688D01*
X102174721Y-93444546D01*
X102174721Y-93539784D01*
X102222341Y-93682641D01*
X102269960Y-93730260D01*
X102174721Y-94063593D02*
X102174721Y-94682641D01*
X102555674Y-94349307D01*
X102555674Y-94492165D01*
X102603293Y-94587403D01*
X102650912Y-94635022D01*
X102746150Y-94682641D01*
X102984245Y-94682641D01*
X103079483Y-94635022D01*
X103127102Y-94587403D01*
X103174721Y-94492165D01*
X103174721Y-94206450D01*
X103127102Y-94111212D01*
X103079483Y-94063593D01*
%TO.C,C4*%
X114039007Y-104504069D02*
X114086626Y-104551688D01*
X114229483Y-104599307D01*
X114324721Y-104599307D01*
X114467579Y-104551688D01*
X114562817Y-104456450D01*
X114610436Y-104361212D01*
X114658055Y-104170736D01*
X114658055Y-104027879D01*
X114610436Y-103837403D01*
X114562817Y-103742165D01*
X114467579Y-103646927D01*
X114324721Y-103599307D01*
X114229483Y-103599307D01*
X114086626Y-103646927D01*
X114039007Y-103694546D01*
X113181864Y-103932641D02*
X113181864Y-104599307D01*
X113419960Y-103551688D02*
X113658055Y-104265974D01*
X113039007Y-104265974D01*
%TO.C,C5*%
X103529483Y-100280260D02*
X103577102Y-100232641D01*
X103624721Y-100089784D01*
X103624721Y-99994546D01*
X103577102Y-99851688D01*
X103481864Y-99756450D01*
X103386626Y-99708831D01*
X103196150Y-99661212D01*
X103053293Y-99661212D01*
X102862817Y-99708831D01*
X102767579Y-99756450D01*
X102672341Y-99851688D01*
X102624721Y-99994546D01*
X102624721Y-100089784D01*
X102672341Y-100232641D01*
X102719960Y-100280260D01*
X102624721Y-101185022D02*
X102624721Y-100708831D01*
X103100912Y-100661212D01*
X103053293Y-100708831D01*
X103005674Y-100804069D01*
X103005674Y-101042165D01*
X103053293Y-101137403D01*
X103100912Y-101185022D01*
X103196150Y-101232641D01*
X103434245Y-101232641D01*
X103529483Y-101185022D01*
X103577102Y-101137403D01*
X103624721Y-101042165D01*
X103624721Y-100804069D01*
X103577102Y-100708831D01*
X103529483Y-100661212D01*
%TO.C,C6*%
X112380683Y-100913060D02*
X112428302Y-100865441D01*
X112475921Y-100722584D01*
X112475921Y-100627346D01*
X112428302Y-100484488D01*
X112333064Y-100389250D01*
X112237826Y-100341631D01*
X112047350Y-100294012D01*
X111904493Y-100294012D01*
X111714017Y-100341631D01*
X111618779Y-100389250D01*
X111523541Y-100484488D01*
X111475921Y-100627346D01*
X111475921Y-100722584D01*
X111523541Y-100865441D01*
X111571160Y-100913060D01*
X111475921Y-101770203D02*
X111475921Y-101579727D01*
X111523541Y-101484488D01*
X111571160Y-101436869D01*
X111714017Y-101341631D01*
X111904493Y-101294012D01*
X112285445Y-101294012D01*
X112380683Y-101341631D01*
X112428302Y-101389250D01*
X112475921Y-101484488D01*
X112475921Y-101674965D01*
X112428302Y-101770203D01*
X112380683Y-101817822D01*
X112285445Y-101865441D01*
X112047350Y-101865441D01*
X111952112Y-101817822D01*
X111904493Y-101770203D01*
X111856874Y-101674965D01*
X111856874Y-101484488D01*
X111904493Y-101389250D01*
X111952112Y-101341631D01*
X112047350Y-101294012D01*
%TO.C,C7*%
X132179483Y-104580260D02*
X132227102Y-104532641D01*
X132274721Y-104389784D01*
X132274721Y-104294546D01*
X132227102Y-104151688D01*
X132131864Y-104056450D01*
X132036626Y-104008831D01*
X131846150Y-103961212D01*
X131703293Y-103961212D01*
X131512817Y-104008831D01*
X131417579Y-104056450D01*
X131322341Y-104151688D01*
X131274721Y-104294546D01*
X131274721Y-104389784D01*
X131322341Y-104532641D01*
X131369960Y-104580260D01*
X131274721Y-104913593D02*
X131274721Y-105580260D01*
X132274721Y-105151688D01*
D11*
%TO.C,C8*%
X126458055Y-109863593D02*
X126496150Y-109825498D01*
X126534245Y-109711212D01*
X126534245Y-109635022D01*
X126496150Y-109520736D01*
X126419960Y-109444546D01*
X126343769Y-109406450D01*
X126191388Y-109368355D01*
X126077102Y-109368355D01*
X125924721Y-109406450D01*
X125848531Y-109444546D01*
X125772341Y-109520736D01*
X125734245Y-109635022D01*
X125734245Y-109711212D01*
X125772341Y-109825498D01*
X125810436Y-109863593D01*
X126077102Y-110320736D02*
X126039007Y-110244546D01*
X126000912Y-110206450D01*
X125924721Y-110168355D01*
X125886626Y-110168355D01*
X125810436Y-110206450D01*
X125772341Y-110244546D01*
X125734245Y-110320736D01*
X125734245Y-110473117D01*
X125772341Y-110549307D01*
X125810436Y-110587403D01*
X125886626Y-110625498D01*
X125924721Y-110625498D01*
X126000912Y-110587403D01*
X126039007Y-110549307D01*
X126077102Y-110473117D01*
X126077102Y-110320736D01*
X126115198Y-110244546D01*
X126153293Y-110206450D01*
X126229483Y-110168355D01*
X126381864Y-110168355D01*
X126458055Y-110206450D01*
X126496150Y-110244546D01*
X126534245Y-110320736D01*
X126534245Y-110473117D01*
X126496150Y-110549307D01*
X126458055Y-110587403D01*
X126381864Y-110625498D01*
X126229483Y-110625498D01*
X126153293Y-110587403D01*
X126115198Y-110549307D01*
X126077102Y-110473117D01*
D10*
%TO.C,C9*%
X120224207Y-112061669D02*
X120271826Y-112109288D01*
X120414683Y-112156907D01*
X120509921Y-112156907D01*
X120652779Y-112109288D01*
X120748017Y-112014050D01*
X120795636Y-111918812D01*
X120843255Y-111728336D01*
X120843255Y-111585479D01*
X120795636Y-111395003D01*
X120748017Y-111299765D01*
X120652779Y-111204527D01*
X120509921Y-111156907D01*
X120414683Y-111156907D01*
X120271826Y-111204527D01*
X120224207Y-111252146D01*
X119748017Y-112156907D02*
X119557541Y-112156907D01*
X119462302Y-112109288D01*
X119414683Y-112061669D01*
X119319445Y-111918812D01*
X119271826Y-111728336D01*
X119271826Y-111347384D01*
X119319445Y-111252146D01*
X119367064Y-111204527D01*
X119462302Y-111156907D01*
X119652779Y-111156907D01*
X119748017Y-111204527D01*
X119795636Y-111252146D01*
X119843255Y-111347384D01*
X119843255Y-111585479D01*
X119795636Y-111680717D01*
X119748017Y-111728336D01*
X119652779Y-111775955D01*
X119462302Y-111775955D01*
X119367064Y-111728336D01*
X119319445Y-111680717D01*
X119271826Y-111585479D01*
%TO.C,C10*%
X109735198Y-102304069D02*
X109782817Y-102351688D01*
X109925674Y-102399307D01*
X110020912Y-102399307D01*
X110163769Y-102351688D01*
X110259007Y-102256450D01*
X110306626Y-102161212D01*
X110354245Y-101970736D01*
X110354245Y-101827879D01*
X110306626Y-101637403D01*
X110259007Y-101542165D01*
X110163769Y-101446927D01*
X110020912Y-101399307D01*
X109925674Y-101399307D01*
X109782817Y-101446927D01*
X109735198Y-101494546D01*
X108782817Y-102399307D02*
X109354245Y-102399307D01*
X109068531Y-102399307D02*
X109068531Y-101399307D01*
X109163769Y-101542165D01*
X109259007Y-101637403D01*
X109354245Y-101685022D01*
X108163769Y-101399307D02*
X108068531Y-101399307D01*
X107973293Y-101446927D01*
X107925674Y-101494546D01*
X107878055Y-101589784D01*
X107830436Y-101780260D01*
X107830436Y-102018355D01*
X107878055Y-102208831D01*
X107925674Y-102304069D01*
X107973293Y-102351688D01*
X108068531Y-102399307D01*
X108163769Y-102399307D01*
X108259007Y-102351688D01*
X108306626Y-102304069D01*
X108354245Y-102208831D01*
X108401864Y-102018355D01*
X108401864Y-101780260D01*
X108354245Y-101589784D01*
X108306626Y-101494546D01*
X108259007Y-101446927D01*
X108163769Y-101399307D01*
D11*
%TO.C,C12*%
X130286626Y-101682641D02*
X130324721Y-101720736D01*
X130439007Y-101758831D01*
X130515198Y-101758831D01*
X130629483Y-101720736D01*
X130705674Y-101644546D01*
X130743769Y-101568355D01*
X130781864Y-101415974D01*
X130781864Y-101301688D01*
X130743769Y-101149307D01*
X130705674Y-101073117D01*
X130629483Y-100996927D01*
X130515198Y-100958831D01*
X130439007Y-100958831D01*
X130324721Y-100996927D01*
X130286626Y-101035022D01*
X129524721Y-101758831D02*
X129981864Y-101758831D01*
X129753293Y-101758831D02*
X129753293Y-100958831D01*
X129829483Y-101073117D01*
X129905674Y-101149307D01*
X129981864Y-101187403D01*
X129219960Y-101035022D02*
X129181864Y-100996927D01*
X129105674Y-100958831D01*
X128915198Y-100958831D01*
X128839007Y-100996927D01*
X128800912Y-101035022D01*
X128762817Y-101111212D01*
X128762817Y-101187403D01*
X128800912Y-101301688D01*
X129258055Y-101758831D01*
X128762817Y-101758831D01*
%TO.C,C13*%
X123886626Y-107432641D02*
X123924721Y-107470736D01*
X124039007Y-107508831D01*
X124115198Y-107508831D01*
X124229483Y-107470736D01*
X124305674Y-107394546D01*
X124343769Y-107318355D01*
X124381864Y-107165974D01*
X124381864Y-107051688D01*
X124343769Y-106899307D01*
X124305674Y-106823117D01*
X124229483Y-106746927D01*
X124115198Y-106708831D01*
X124039007Y-106708831D01*
X123924721Y-106746927D01*
X123886626Y-106785022D01*
X123124721Y-107508831D02*
X123581864Y-107508831D01*
X123353293Y-107508831D02*
X123353293Y-106708831D01*
X123429483Y-106823117D01*
X123505674Y-106899307D01*
X123581864Y-106937403D01*
X122858055Y-106708831D02*
X122362817Y-106708831D01*
X122629483Y-107013593D01*
X122515198Y-107013593D01*
X122439007Y-107051688D01*
X122400912Y-107089784D01*
X122362817Y-107165974D01*
X122362817Y-107356450D01*
X122400912Y-107432641D01*
X122439007Y-107470736D01*
X122515198Y-107508831D01*
X122743769Y-107508831D01*
X122819960Y-107470736D01*
X122858055Y-107432641D01*
%TO.C,C14*%
X120636626Y-107632641D02*
X120674721Y-107670736D01*
X120789007Y-107708831D01*
X120865198Y-107708831D01*
X120979483Y-107670736D01*
X121055674Y-107594546D01*
X121093769Y-107518355D01*
X121131864Y-107365974D01*
X121131864Y-107251688D01*
X121093769Y-107099307D01*
X121055674Y-107023117D01*
X120979483Y-106946927D01*
X120865198Y-106908831D01*
X120789007Y-106908831D01*
X120674721Y-106946927D01*
X120636626Y-106985022D01*
X119874721Y-107708831D02*
X120331864Y-107708831D01*
X120103293Y-107708831D02*
X120103293Y-106908831D01*
X120179483Y-107023117D01*
X120255674Y-107099307D01*
X120331864Y-107137403D01*
X119189007Y-107175498D02*
X119189007Y-107708831D01*
X119379483Y-106870736D02*
X119569960Y-107442165D01*
X119074721Y-107442165D01*
D10*
%TO.C,C16*%
X117779483Y-93054069D02*
X117827102Y-93006450D01*
X117874721Y-92863593D01*
X117874721Y-92768355D01*
X117827102Y-92625498D01*
X117731864Y-92530260D01*
X117636626Y-92482641D01*
X117446150Y-92435022D01*
X117303293Y-92435022D01*
X117112817Y-92482641D01*
X117017579Y-92530260D01*
X116922341Y-92625498D01*
X116874721Y-92768355D01*
X116874721Y-92863593D01*
X116922341Y-93006450D01*
X116969960Y-93054069D01*
X117874721Y-94006450D02*
X117874721Y-93435022D01*
X117874721Y-93720736D02*
X116874721Y-93720736D01*
X117017579Y-93625498D01*
X117112817Y-93530260D01*
X117160436Y-93435022D01*
X116874721Y-94863593D02*
X116874721Y-94673117D01*
X116922341Y-94577879D01*
X116969960Y-94530260D01*
X117112817Y-94435022D01*
X117303293Y-94387403D01*
X117684245Y-94387403D01*
X117779483Y-94435022D01*
X117827102Y-94482641D01*
X117874721Y-94577879D01*
X117874721Y-94768355D01*
X117827102Y-94863593D01*
X117779483Y-94911212D01*
X117684245Y-94958831D01*
X117446150Y-94958831D01*
X117350912Y-94911212D01*
X117303293Y-94863593D01*
X117255674Y-94768355D01*
X117255674Y-94577879D01*
X117303293Y-94482641D01*
X117350912Y-94435022D01*
X117446150Y-94387403D01*
%TO.C,C17*%
X122376798Y-95028469D02*
X122424417Y-95076088D01*
X122567274Y-95123707D01*
X122662512Y-95123707D01*
X122805369Y-95076088D01*
X122900607Y-94980850D01*
X122948226Y-94885612D01*
X122995845Y-94695136D01*
X122995845Y-94552279D01*
X122948226Y-94361803D01*
X122900607Y-94266565D01*
X122805369Y-94171327D01*
X122662512Y-94123707D01*
X122567274Y-94123707D01*
X122424417Y-94171327D01*
X122376798Y-94218946D01*
X121424417Y-95123707D02*
X121995845Y-95123707D01*
X121710131Y-95123707D02*
X121710131Y-94123707D01*
X121805369Y-94266565D01*
X121900607Y-94361803D01*
X121995845Y-94409422D01*
X121091083Y-94123707D02*
X120424417Y-94123707D01*
X120852988Y-95123707D01*
%TO.C,C19*%
X132000683Y-92359669D02*
X132048302Y-92312050D01*
X132095921Y-92169193D01*
X132095921Y-92073955D01*
X132048302Y-91931098D01*
X131953064Y-91835860D01*
X131857826Y-91788241D01*
X131667350Y-91740622D01*
X131524493Y-91740622D01*
X131334017Y-91788241D01*
X131238779Y-91835860D01*
X131143541Y-91931098D01*
X131095921Y-92073955D01*
X131095921Y-92169193D01*
X131143541Y-92312050D01*
X131191160Y-92359669D01*
X132095921Y-93312050D02*
X132095921Y-92740622D01*
X132095921Y-93026336D02*
X131095921Y-93026336D01*
X131238779Y-92931098D01*
X131334017Y-92835860D01*
X131381636Y-92740622D01*
X132095921Y-93788241D02*
X132095921Y-93978717D01*
X132048302Y-94073955D01*
X132000683Y-94121574D01*
X131857826Y-94216812D01*
X131667350Y-94264431D01*
X131286398Y-94264431D01*
X131191160Y-94216812D01*
X131143541Y-94169193D01*
X131095921Y-94073955D01*
X131095921Y-93883479D01*
X131143541Y-93788241D01*
X131191160Y-93740622D01*
X131286398Y-93693003D01*
X131524493Y-93693003D01*
X131619731Y-93740622D01*
X131667350Y-93788241D01*
X131714969Y-93883479D01*
X131714969Y-94073955D01*
X131667350Y-94169193D01*
X131619731Y-94216812D01*
X131524493Y-94264431D01*
%TO.C,R3*%
X132224721Y-107030260D02*
X131748531Y-106696927D01*
X132224721Y-106458831D02*
X131224721Y-106458831D01*
X131224721Y-106839784D01*
X131272341Y-106935022D01*
X131319960Y-106982641D01*
X131415198Y-107030260D01*
X131558055Y-107030260D01*
X131653293Y-106982641D01*
X131700912Y-106935022D01*
X131748531Y-106839784D01*
X131748531Y-106458831D01*
X131224721Y-107363593D02*
X131224721Y-107982641D01*
X131605674Y-107649307D01*
X131605674Y-107792165D01*
X131653293Y-107887403D01*
X131700912Y-107935022D01*
X131796150Y-107982641D01*
X132034245Y-107982641D01*
X132129483Y-107935022D01*
X132177102Y-107887403D01*
X132224721Y-107792165D01*
X132224721Y-107506450D01*
X132177102Y-107411212D01*
X132129483Y-107363593D01*
D11*
%TO.C,R4*%
X126634245Y-111663593D02*
X126253293Y-111396927D01*
X126634245Y-111206450D02*
X125834245Y-111206450D01*
X125834245Y-111511212D01*
X125872341Y-111587403D01*
X125910436Y-111625498D01*
X125986626Y-111663593D01*
X126100912Y-111663593D01*
X126177102Y-111625498D01*
X126215198Y-111587403D01*
X126253293Y-111511212D01*
X126253293Y-111206450D01*
X126100912Y-112349307D02*
X126634245Y-112349307D01*
X125796150Y-112158831D02*
X126367579Y-111968355D01*
X126367579Y-112463593D01*
D10*
%TO.C,R5*%
X116389007Y-111699307D02*
X116722341Y-111223117D01*
X116960436Y-111699307D02*
X116960436Y-110699307D01*
X116579483Y-110699307D01*
X116484245Y-110746927D01*
X116436626Y-110794546D01*
X116389007Y-110889784D01*
X116389007Y-111032641D01*
X116436626Y-111127879D01*
X116484245Y-111175498D01*
X116579483Y-111223117D01*
X116960436Y-111223117D01*
X115484245Y-110699307D02*
X115960436Y-110699307D01*
X116008055Y-111175498D01*
X115960436Y-111127879D01*
X115865198Y-111080260D01*
X115627102Y-111080260D01*
X115531864Y-111127879D01*
X115484245Y-111175498D01*
X115436626Y-111270736D01*
X115436626Y-111508831D01*
X115484245Y-111604069D01*
X115531864Y-111651688D01*
X115627102Y-111699307D01*
X115865198Y-111699307D01*
X115960436Y-111651688D01*
X116008055Y-111604069D01*
%TO.C,R6*%
X103289007Y-103499307D02*
X103622341Y-103023117D01*
X103860436Y-103499307D02*
X103860436Y-102499307D01*
X103479483Y-102499307D01*
X103384245Y-102546927D01*
X103336626Y-102594546D01*
X103289007Y-102689784D01*
X103289007Y-102832641D01*
X103336626Y-102927879D01*
X103384245Y-102975498D01*
X103479483Y-103023117D01*
X103860436Y-103023117D01*
X102431864Y-102499307D02*
X102622341Y-102499307D01*
X102717579Y-102546927D01*
X102765198Y-102594546D01*
X102860436Y-102737403D01*
X102908055Y-102927879D01*
X102908055Y-103308831D01*
X102860436Y-103404069D01*
X102812817Y-103451688D01*
X102717579Y-103499307D01*
X102527102Y-103499307D01*
X102431864Y-103451688D01*
X102384245Y-103404069D01*
X102336626Y-103308831D01*
X102336626Y-103070736D01*
X102384245Y-102975498D01*
X102431864Y-102927879D01*
X102527102Y-102880260D01*
X102717579Y-102880260D01*
X102812817Y-102927879D01*
X102860436Y-102975498D01*
X102908055Y-103070736D01*
%TO.C,R7*%
X113324721Y-93080260D02*
X112848531Y-92746927D01*
X113324721Y-92508831D02*
X112324721Y-92508831D01*
X112324721Y-92889784D01*
X112372341Y-92985022D01*
X112419960Y-93032641D01*
X112515198Y-93080260D01*
X112658055Y-93080260D01*
X112753293Y-93032641D01*
X112800912Y-92985022D01*
X112848531Y-92889784D01*
X112848531Y-92508831D01*
X112324721Y-93413593D02*
X112324721Y-94080260D01*
X113324721Y-93651688D01*
%TO.C,R8*%
X116189007Y-91899307D02*
X116522341Y-91423117D01*
X116760436Y-91899307D02*
X116760436Y-90899307D01*
X116379483Y-90899307D01*
X116284245Y-90946927D01*
X116236626Y-90994546D01*
X116189007Y-91089784D01*
X116189007Y-91232641D01*
X116236626Y-91327879D01*
X116284245Y-91375498D01*
X116379483Y-91423117D01*
X116760436Y-91423117D01*
X115617579Y-91327879D02*
X115712817Y-91280260D01*
X115760436Y-91232641D01*
X115808055Y-91137403D01*
X115808055Y-91089784D01*
X115760436Y-90994546D01*
X115712817Y-90946927D01*
X115617579Y-90899307D01*
X115427102Y-90899307D01*
X115331864Y-90946927D01*
X115284245Y-90994546D01*
X115236626Y-91089784D01*
X115236626Y-91137403D01*
X115284245Y-91232641D01*
X115331864Y-91280260D01*
X115427102Y-91327879D01*
X115617579Y-91327879D01*
X115712817Y-91375498D01*
X115760436Y-91423117D01*
X115808055Y-91518355D01*
X115808055Y-91708831D01*
X115760436Y-91804069D01*
X115712817Y-91851688D01*
X115617579Y-91899307D01*
X115427102Y-91899307D01*
X115331864Y-91851688D01*
X115284245Y-91804069D01*
X115236626Y-91708831D01*
X115236626Y-91518355D01*
X115284245Y-91423117D01*
X115331864Y-91375498D01*
X115427102Y-91327879D01*
%TO.C,R10*%
X119524721Y-93104069D02*
X119048531Y-92770736D01*
X119524721Y-92532641D02*
X118524721Y-92532641D01*
X118524721Y-92913593D01*
X118572341Y-93008831D01*
X118619960Y-93056450D01*
X118715198Y-93104069D01*
X118858055Y-93104069D01*
X118953293Y-93056450D01*
X119000912Y-93008831D01*
X119048531Y-92913593D01*
X119048531Y-92532641D01*
X119524721Y-94056450D02*
X119524721Y-93485022D01*
X119524721Y-93770736D02*
X118524721Y-93770736D01*
X118667579Y-93675498D01*
X118762817Y-93580260D01*
X118810436Y-93485022D01*
X118524721Y-94675498D02*
X118524721Y-94770736D01*
X118572341Y-94865974D01*
X118619960Y-94913593D01*
X118715198Y-94961212D01*
X118905674Y-95008831D01*
X119143769Y-95008831D01*
X119334245Y-94961212D01*
X119429483Y-94913593D01*
X119477102Y-94865974D01*
X119524721Y-94770736D01*
X119524721Y-94675498D01*
X119477102Y-94580260D01*
X119429483Y-94532641D01*
X119334245Y-94485022D01*
X119143769Y-94437403D01*
X118905674Y-94437403D01*
X118715198Y-94485022D01*
X118619960Y-94532641D01*
X118572341Y-94580260D01*
X118524721Y-94675498D01*
D11*
%TO.C,R12*%
X122457007Y-104134927D02*
X122123674Y-103901593D01*
X122457007Y-103734927D02*
X121757007Y-103734927D01*
X121757007Y-104001593D01*
X121790341Y-104068260D01*
X121823674Y-104101593D01*
X121890341Y-104134927D01*
X121990341Y-104134927D01*
X122057007Y-104101593D01*
X122090341Y-104068260D01*
X122123674Y-104001593D01*
X122123674Y-103734927D01*
X122457007Y-104801593D02*
X122457007Y-104401593D01*
X122457007Y-104601593D02*
X121757007Y-104601593D01*
X121857007Y-104534927D01*
X121923674Y-104468260D01*
X121957007Y-104401593D01*
X121823674Y-105068260D02*
X121790341Y-105101593D01*
X121757007Y-105168260D01*
X121757007Y-105334927D01*
X121790341Y-105401593D01*
X121823674Y-105434927D01*
X121890341Y-105468260D01*
X121957007Y-105468260D01*
X122057007Y-105434927D01*
X122457007Y-105034927D01*
X122457007Y-105468260D01*
D10*
%TO.C,R13*%
X128015198Y-93049307D02*
X128348531Y-92573117D01*
X128586626Y-93049307D02*
X128586626Y-92049307D01*
X128205674Y-92049307D01*
X128110436Y-92096927D01*
X128062817Y-92144546D01*
X128015198Y-92239784D01*
X128015198Y-92382641D01*
X128062817Y-92477879D01*
X128110436Y-92525498D01*
X128205674Y-92573117D01*
X128586626Y-92573117D01*
X127062817Y-93049307D02*
X127634245Y-93049307D01*
X127348531Y-93049307D02*
X127348531Y-92049307D01*
X127443769Y-92192165D01*
X127539007Y-92287403D01*
X127634245Y-92335022D01*
X126729483Y-92049307D02*
X126110436Y-92049307D01*
X126443769Y-92430260D01*
X126300912Y-92430260D01*
X126205674Y-92477879D01*
X126158055Y-92525498D01*
X126110436Y-92620736D01*
X126110436Y-92858831D01*
X126158055Y-92954069D01*
X126205674Y-93001688D01*
X126300912Y-93049307D01*
X126586626Y-93049307D01*
X126681864Y-93001688D01*
X126729483Y-92954069D01*
%TO.C,U1*%
X108634245Y-92799307D02*
X108634245Y-93608831D01*
X108586626Y-93704069D01*
X108539007Y-93751688D01*
X108443769Y-93799307D01*
X108253293Y-93799307D01*
X108158055Y-93751688D01*
X108110436Y-93704069D01*
X108062817Y-93608831D01*
X108062817Y-92799307D01*
X107062817Y-93799307D02*
X107634245Y-93799307D01*
X107348531Y-93799307D02*
X107348531Y-92799307D01*
X107443769Y-92942165D01*
X107539007Y-93037403D01*
X107634245Y-93085022D01*
%TO.C,U4*%
X124384245Y-101299307D02*
X124384245Y-102108831D01*
X124336626Y-102204069D01*
X124289007Y-102251688D01*
X124193769Y-102299307D01*
X124003293Y-102299307D01*
X123908055Y-102251688D01*
X123860436Y-102204069D01*
X123812817Y-102108831D01*
X123812817Y-101299307D01*
X122908055Y-101632641D02*
X122908055Y-102299307D01*
X123146150Y-101251688D02*
X123384245Y-101965974D01*
X122765198Y-101965974D01*
%TO.C,U5*%
X121884245Y-100749307D02*
X121884245Y-101558831D01*
X121836626Y-101654069D01*
X121789007Y-101701688D01*
X121693769Y-101749307D01*
X121503293Y-101749307D01*
X121408055Y-101701688D01*
X121360436Y-101654069D01*
X121312817Y-101558831D01*
X121312817Y-100749307D01*
X120360436Y-100749307D02*
X120836626Y-100749307D01*
X120884245Y-101225498D01*
X120836626Y-101177879D01*
X120741388Y-101130260D01*
X120503293Y-101130260D01*
X120408055Y-101177879D01*
X120360436Y-101225498D01*
X120312817Y-101320736D01*
X120312817Y-101558831D01*
X120360436Y-101654069D01*
X120408055Y-101701688D01*
X120503293Y-101749307D01*
X120741388Y-101749307D01*
X120836626Y-101701688D01*
X120884245Y-101654069D01*
%TO.C,U2*%
X125534245Y-94399307D02*
X125534245Y-95208831D01*
X125486626Y-95304069D01*
X125439007Y-95351688D01*
X125343769Y-95399307D01*
X125153293Y-95399307D01*
X125058055Y-95351688D01*
X125010436Y-95304069D01*
X124962817Y-95208831D01*
X124962817Y-94399307D01*
X124534245Y-94494546D02*
X124486626Y-94446927D01*
X124391388Y-94399307D01*
X124153293Y-94399307D01*
X124058055Y-94446927D01*
X124010436Y-94494546D01*
X123962817Y-94589784D01*
X123962817Y-94685022D01*
X124010436Y-94827879D01*
X124581864Y-95399307D01*
X123962817Y-95399307D01*
%TO.C,R1*%
X129524721Y-108480260D02*
X129048531Y-108146927D01*
X129524721Y-107908831D02*
X128524721Y-107908831D01*
X128524721Y-108289784D01*
X128572341Y-108385022D01*
X128619960Y-108432641D01*
X128715198Y-108480260D01*
X128858055Y-108480260D01*
X128953293Y-108432641D01*
X129000912Y-108385022D01*
X129048531Y-108289784D01*
X129048531Y-107908831D01*
X129524721Y-109432641D02*
X129524721Y-108861212D01*
X129524721Y-109146927D02*
X128524721Y-109146927D01*
X128667579Y-109051688D01*
X128762817Y-108956450D01*
X128810436Y-108861212D01*
%TO.C,C2*%
X122379483Y-92180260D02*
X122427102Y-92132641D01*
X122474721Y-91989784D01*
X122474721Y-91894546D01*
X122427102Y-91751688D01*
X122331864Y-91656450D01*
X122236626Y-91608831D01*
X122046150Y-91561212D01*
X121903293Y-91561212D01*
X121712817Y-91608831D01*
X121617579Y-91656450D01*
X121522341Y-91751688D01*
X121474721Y-91894546D01*
X121474721Y-91989784D01*
X121522341Y-92132641D01*
X121569960Y-92180260D01*
X121569960Y-92561212D02*
X121522341Y-92608831D01*
X121474721Y-92704069D01*
X121474721Y-92942165D01*
X121522341Y-93037403D01*
X121569960Y-93085022D01*
X121665198Y-93132641D01*
X121760436Y-93132641D01*
X121903293Y-93085022D01*
X122474721Y-92513593D01*
X122474721Y-93132641D01*
%TO.C,U3*%
X109984245Y-103749307D02*
X109984245Y-104558831D01*
X109936626Y-104654069D01*
X109889007Y-104701688D01*
X109793769Y-104749307D01*
X109603293Y-104749307D01*
X109508055Y-104701688D01*
X109460436Y-104654069D01*
X109412817Y-104558831D01*
X109412817Y-103749307D01*
X109031864Y-103749307D02*
X108412817Y-103749307D01*
X108746150Y-104130260D01*
X108603293Y-104130260D01*
X108508055Y-104177879D01*
X108460436Y-104225498D01*
X108412817Y-104320736D01*
X108412817Y-104558831D01*
X108460436Y-104654069D01*
X108508055Y-104701688D01*
X108603293Y-104749307D01*
X108889007Y-104749307D01*
X108984245Y-104701688D01*
X109031864Y-104654069D01*
%TO.C,C21*%
X127779483Y-89254069D02*
X127827102Y-89206450D01*
X127874721Y-89063593D01*
X127874721Y-88968355D01*
X127827102Y-88825498D01*
X127731864Y-88730260D01*
X127636626Y-88682641D01*
X127446150Y-88635022D01*
X127303293Y-88635022D01*
X127112817Y-88682641D01*
X127017579Y-88730260D01*
X126922341Y-88825498D01*
X126874721Y-88968355D01*
X126874721Y-89063593D01*
X126922341Y-89206450D01*
X126969960Y-89254069D01*
X126969960Y-89635022D02*
X126922341Y-89682641D01*
X126874721Y-89777879D01*
X126874721Y-90015974D01*
X126922341Y-90111212D01*
X126969960Y-90158831D01*
X127065198Y-90206450D01*
X127160436Y-90206450D01*
X127303293Y-90158831D01*
X127874721Y-89587403D01*
X127874721Y-90206450D01*
X127874721Y-91158831D02*
X127874721Y-90587403D01*
X127874721Y-90873117D02*
X126874721Y-90873117D01*
X127017579Y-90777879D01*
X127112817Y-90682641D01*
X127160436Y-90587403D01*
D11*
%TO.C,F2*%
X178639007Y-93339784D02*
X178905674Y-93339784D01*
X178905674Y-93758831D02*
X178905674Y-92958831D01*
X178524721Y-92958831D01*
X178258055Y-93035022D02*
X178219960Y-92996927D01*
X178143769Y-92958831D01*
X177953293Y-92958831D01*
X177877102Y-92996927D01*
X177839007Y-93035022D01*
X177800912Y-93111212D01*
X177800912Y-93187403D01*
X177839007Y-93301688D01*
X178296150Y-93758831D01*
X177800912Y-93758831D01*
D10*
%TO.C,L3*%
X182724721Y-86380260D02*
X182724721Y-85904069D01*
X181724721Y-85904069D01*
X181724721Y-86618355D02*
X181724721Y-87237403D01*
X182105674Y-86904069D01*
X182105674Y-87046927D01*
X182153293Y-87142165D01*
X182200912Y-87189784D01*
X182296150Y-87237403D01*
X182534245Y-87237403D01*
X182629483Y-87189784D01*
X182677102Y-87142165D01*
X182724721Y-87046927D01*
X182724721Y-86761212D01*
X182677102Y-86665974D01*
X182629483Y-86618355D01*
%TO.C,C50*%
X177579483Y-82504069D02*
X177627102Y-82456450D01*
X177674721Y-82313593D01*
X177674721Y-82218355D01*
X177627102Y-82075498D01*
X177531864Y-81980260D01*
X177436626Y-81932641D01*
X177246150Y-81885022D01*
X177103293Y-81885022D01*
X176912817Y-81932641D01*
X176817579Y-81980260D01*
X176722341Y-82075498D01*
X176674721Y-82218355D01*
X176674721Y-82313593D01*
X176722341Y-82456450D01*
X176769960Y-82504069D01*
X176674721Y-83408831D02*
X176674721Y-82932641D01*
X177150912Y-82885022D01*
X177103293Y-82932641D01*
X177055674Y-83027879D01*
X177055674Y-83265974D01*
X177103293Y-83361212D01*
X177150912Y-83408831D01*
X177246150Y-83456450D01*
X177484245Y-83456450D01*
X177579483Y-83408831D01*
X177627102Y-83361212D01*
X177674721Y-83265974D01*
X177674721Y-83027879D01*
X177627102Y-82932641D01*
X177579483Y-82885022D01*
X176674721Y-84075498D02*
X176674721Y-84170736D01*
X176722341Y-84265974D01*
X176769960Y-84313593D01*
X176865198Y-84361212D01*
X177055674Y-84408831D01*
X177293769Y-84408831D01*
X177484245Y-84361212D01*
X177579483Y-84313593D01*
X177627102Y-84265974D01*
X177674721Y-84170736D01*
X177674721Y-84075498D01*
X177627102Y-83980260D01*
X177579483Y-83932641D01*
X177484245Y-83885022D01*
X177293769Y-83837403D01*
X177055674Y-83837403D01*
X176865198Y-83885022D01*
X176769960Y-83932641D01*
X176722341Y-83980260D01*
X176674721Y-84075498D01*
%TO.C,C42*%
X172579483Y-81804069D02*
X172627102Y-81756450D01*
X172674721Y-81613593D01*
X172674721Y-81518355D01*
X172627102Y-81375498D01*
X172531864Y-81280260D01*
X172436626Y-81232641D01*
X172246150Y-81185022D01*
X172103293Y-81185022D01*
X171912817Y-81232641D01*
X171817579Y-81280260D01*
X171722341Y-81375498D01*
X171674721Y-81518355D01*
X171674721Y-81613593D01*
X171722341Y-81756450D01*
X171769960Y-81804069D01*
X172008055Y-82661212D02*
X172674721Y-82661212D01*
X171627102Y-82423117D02*
X172341388Y-82185022D01*
X172341388Y-82804069D01*
X171769960Y-83137403D02*
X171722341Y-83185022D01*
X171674721Y-83280260D01*
X171674721Y-83518355D01*
X171722341Y-83613593D01*
X171769960Y-83661212D01*
X171865198Y-83708831D01*
X171960436Y-83708831D01*
X172103293Y-83661212D01*
X172674721Y-83089784D01*
X172674721Y-83708831D01*
D11*
%TO.C,C52*%
X173708055Y-89532641D02*
X173746150Y-89494546D01*
X173784245Y-89380260D01*
X173784245Y-89304069D01*
X173746150Y-89189784D01*
X173669960Y-89113593D01*
X173593769Y-89075498D01*
X173441388Y-89037403D01*
X173327102Y-89037403D01*
X173174721Y-89075498D01*
X173098531Y-89113593D01*
X173022341Y-89189784D01*
X172984245Y-89304069D01*
X172984245Y-89380260D01*
X173022341Y-89494546D01*
X173060436Y-89532641D01*
X172984245Y-90256450D02*
X172984245Y-89875498D01*
X173365198Y-89837403D01*
X173327102Y-89875498D01*
X173289007Y-89951688D01*
X173289007Y-90142165D01*
X173327102Y-90218355D01*
X173365198Y-90256450D01*
X173441388Y-90294546D01*
X173631864Y-90294546D01*
X173708055Y-90256450D01*
X173746150Y-90218355D01*
X173784245Y-90142165D01*
X173784245Y-89951688D01*
X173746150Y-89875498D01*
X173708055Y-89837403D01*
X173060436Y-90599307D02*
X173022341Y-90637403D01*
X172984245Y-90713593D01*
X172984245Y-90904069D01*
X173022341Y-90980260D01*
X173060436Y-91018355D01*
X173136626Y-91056450D01*
X173212817Y-91056450D01*
X173327102Y-91018355D01*
X173784245Y-90561212D01*
X173784245Y-91056450D01*
%TO.C,C44*%
X163458055Y-89582641D02*
X163496150Y-89544546D01*
X163534245Y-89430260D01*
X163534245Y-89354069D01*
X163496150Y-89239784D01*
X163419960Y-89163593D01*
X163343769Y-89125498D01*
X163191388Y-89087403D01*
X163077102Y-89087403D01*
X162924721Y-89125498D01*
X162848531Y-89163593D01*
X162772341Y-89239784D01*
X162734245Y-89354069D01*
X162734245Y-89430260D01*
X162772341Y-89544546D01*
X162810436Y-89582641D01*
X163000912Y-90268355D02*
X163534245Y-90268355D01*
X162696150Y-90077879D02*
X163267579Y-89887403D01*
X163267579Y-90382641D01*
X163000912Y-91030260D02*
X163534245Y-91030260D01*
X162696150Y-90839784D02*
X163267579Y-90649307D01*
X163267579Y-91144546D01*
%TO.C,C40*%
X166020055Y-89592641D02*
X166058150Y-89554546D01*
X166096245Y-89440260D01*
X166096245Y-89364069D01*
X166058150Y-89249784D01*
X165981960Y-89173593D01*
X165905769Y-89135498D01*
X165753388Y-89097403D01*
X165639102Y-89097403D01*
X165486721Y-89135498D01*
X165410531Y-89173593D01*
X165334341Y-89249784D01*
X165296245Y-89364069D01*
X165296245Y-89440260D01*
X165334341Y-89554546D01*
X165372436Y-89592641D01*
X165562912Y-90278355D02*
X166096245Y-90278355D01*
X165258150Y-90087879D02*
X165829579Y-89897403D01*
X165829579Y-90392641D01*
X165296245Y-90849784D02*
X165296245Y-90925974D01*
X165334341Y-91002165D01*
X165372436Y-91040260D01*
X165448626Y-91078355D01*
X165601007Y-91116450D01*
X165791483Y-91116450D01*
X165943864Y-91078355D01*
X166020055Y-91040260D01*
X166058150Y-91002165D01*
X166096245Y-90925974D01*
X166096245Y-90849784D01*
X166058150Y-90773593D01*
X166020055Y-90735498D01*
X165943864Y-90697403D01*
X165791483Y-90659307D01*
X165601007Y-90659307D01*
X165448626Y-90697403D01*
X165372436Y-90735498D01*
X165334341Y-90773593D01*
X165296245Y-90849784D01*
D10*
%TO.C,C31*%
X162479483Y-83004069D02*
X162527102Y-82956450D01*
X162574721Y-82813593D01*
X162574721Y-82718355D01*
X162527102Y-82575498D01*
X162431864Y-82480260D01*
X162336626Y-82432641D01*
X162146150Y-82385022D01*
X162003293Y-82385022D01*
X161812817Y-82432641D01*
X161717579Y-82480260D01*
X161622341Y-82575498D01*
X161574721Y-82718355D01*
X161574721Y-82813593D01*
X161622341Y-82956450D01*
X161669960Y-83004069D01*
X161574721Y-83337403D02*
X161574721Y-83956450D01*
X161955674Y-83623117D01*
X161955674Y-83765974D01*
X162003293Y-83861212D01*
X162050912Y-83908831D01*
X162146150Y-83956450D01*
X162384245Y-83956450D01*
X162479483Y-83908831D01*
X162527102Y-83861212D01*
X162574721Y-83765974D01*
X162574721Y-83480260D01*
X162527102Y-83385022D01*
X162479483Y-83337403D01*
X162574721Y-84908831D02*
X162574721Y-84337403D01*
X162574721Y-84623117D02*
X161574721Y-84623117D01*
X161717579Y-84527879D01*
X161812817Y-84432641D01*
X161860436Y-84337403D01*
D11*
%TO.C,C27*%
X169608055Y-87332641D02*
X169646150Y-87294546D01*
X169684245Y-87180260D01*
X169684245Y-87104069D01*
X169646150Y-86989784D01*
X169569960Y-86913593D01*
X169493769Y-86875498D01*
X169341388Y-86837403D01*
X169227102Y-86837403D01*
X169074721Y-86875498D01*
X168998531Y-86913593D01*
X168922341Y-86989784D01*
X168884245Y-87104069D01*
X168884245Y-87180260D01*
X168922341Y-87294546D01*
X168960436Y-87332641D01*
X168960436Y-87637403D02*
X168922341Y-87675498D01*
X168884245Y-87751688D01*
X168884245Y-87942165D01*
X168922341Y-88018355D01*
X168960436Y-88056450D01*
X169036626Y-88094546D01*
X169112817Y-88094546D01*
X169227102Y-88056450D01*
X169684245Y-87599307D01*
X169684245Y-88094546D01*
X168884245Y-88361212D02*
X168884245Y-88894546D01*
X169684245Y-88551688D01*
D10*
%TO.C,U8*%
X180184245Y-83899307D02*
X180184245Y-84708831D01*
X180136626Y-84804069D01*
X180089007Y-84851688D01*
X179993769Y-84899307D01*
X179803293Y-84899307D01*
X179708055Y-84851688D01*
X179660436Y-84804069D01*
X179612817Y-84708831D01*
X179612817Y-83899307D01*
X178993769Y-84327879D02*
X179089007Y-84280260D01*
X179136626Y-84232641D01*
X179184245Y-84137403D01*
X179184245Y-84089784D01*
X179136626Y-83994546D01*
X179089007Y-83946927D01*
X178993769Y-83899307D01*
X178803293Y-83899307D01*
X178708055Y-83946927D01*
X178660436Y-83994546D01*
X178612817Y-84089784D01*
X178612817Y-84137403D01*
X178660436Y-84232641D01*
X178708055Y-84280260D01*
X178803293Y-84327879D01*
X178993769Y-84327879D01*
X179089007Y-84375498D01*
X179136626Y-84423117D01*
X179184245Y-84518355D01*
X179184245Y-84708831D01*
X179136626Y-84804069D01*
X179089007Y-84851688D01*
X178993769Y-84899307D01*
X178803293Y-84899307D01*
X178708055Y-84851688D01*
X178660436Y-84804069D01*
X178612817Y-84708831D01*
X178612817Y-84518355D01*
X178660436Y-84423117D01*
X178708055Y-84375498D01*
X178803293Y-84327879D01*
%TO.C,U10*%
X154620436Y-88416307D02*
X154620436Y-89225831D01*
X154572817Y-89321069D01*
X154525198Y-89368688D01*
X154429960Y-89416307D01*
X154239483Y-89416307D01*
X154144245Y-89368688D01*
X154096626Y-89321069D01*
X154049007Y-89225831D01*
X154049007Y-88416307D01*
X153049007Y-89416307D02*
X153620436Y-89416307D01*
X153334721Y-89416307D02*
X153334721Y-88416307D01*
X153429960Y-88559165D01*
X153525198Y-88654403D01*
X153620436Y-88702022D01*
X152429960Y-88416307D02*
X152334721Y-88416307D01*
X152239483Y-88463927D01*
X152191864Y-88511546D01*
X152144245Y-88606784D01*
X152096626Y-88797260D01*
X152096626Y-89035355D01*
X152144245Y-89225831D01*
X152191864Y-89321069D01*
X152239483Y-89368688D01*
X152334721Y-89416307D01*
X152429960Y-89416307D01*
X152525198Y-89368688D01*
X152572817Y-89321069D01*
X152620436Y-89225831D01*
X152668055Y-89035355D01*
X152668055Y-88797260D01*
X152620436Y-88606784D01*
X152572817Y-88511546D01*
X152525198Y-88463927D01*
X152429960Y-88416307D01*
%TO.C,R20*%
X150215198Y-108399307D02*
X150548531Y-107923117D01*
X150786626Y-108399307D02*
X150786626Y-107399307D01*
X150405674Y-107399307D01*
X150310436Y-107446927D01*
X150262817Y-107494546D01*
X150215198Y-107589784D01*
X150215198Y-107732641D01*
X150262817Y-107827879D01*
X150310436Y-107875498D01*
X150405674Y-107923117D01*
X150786626Y-107923117D01*
X149834245Y-107494546D02*
X149786626Y-107446927D01*
X149691388Y-107399307D01*
X149453293Y-107399307D01*
X149358055Y-107446927D01*
X149310436Y-107494546D01*
X149262817Y-107589784D01*
X149262817Y-107685022D01*
X149310436Y-107827879D01*
X149881864Y-108399307D01*
X149262817Y-108399307D01*
X148643769Y-107399307D02*
X148548531Y-107399307D01*
X148453293Y-107446927D01*
X148405674Y-107494546D01*
X148358055Y-107589784D01*
X148310436Y-107780260D01*
X148310436Y-108018355D01*
X148358055Y-108208831D01*
X148405674Y-108304069D01*
X148453293Y-108351688D01*
X148548531Y-108399307D01*
X148643769Y-108399307D01*
X148739007Y-108351688D01*
X148786626Y-108304069D01*
X148834245Y-108208831D01*
X148881864Y-108018355D01*
X148881864Y-107780260D01*
X148834245Y-107589784D01*
X148786626Y-107494546D01*
X148739007Y-107446927D01*
X148643769Y-107399307D01*
%TO.C,C29*%
X172729483Y-95354069D02*
X172777102Y-95306450D01*
X172824721Y-95163593D01*
X172824721Y-95068355D01*
X172777102Y-94925498D01*
X172681864Y-94830260D01*
X172586626Y-94782641D01*
X172396150Y-94735022D01*
X172253293Y-94735022D01*
X172062817Y-94782641D01*
X171967579Y-94830260D01*
X171872341Y-94925498D01*
X171824721Y-95068355D01*
X171824721Y-95163593D01*
X171872341Y-95306450D01*
X171919960Y-95354069D01*
X171919960Y-95735022D02*
X171872341Y-95782641D01*
X171824721Y-95877879D01*
X171824721Y-96115974D01*
X171872341Y-96211212D01*
X171919960Y-96258831D01*
X172015198Y-96306450D01*
X172110436Y-96306450D01*
X172253293Y-96258831D01*
X172824721Y-95687403D01*
X172824721Y-96306450D01*
X172824721Y-96782641D02*
X172824721Y-96973117D01*
X172777102Y-97068355D01*
X172729483Y-97115974D01*
X172586626Y-97211212D01*
X172396150Y-97258831D01*
X172015198Y-97258831D01*
X171919960Y-97211212D01*
X171872341Y-97163593D01*
X171824721Y-97068355D01*
X171824721Y-96877879D01*
X171872341Y-96782641D01*
X171919960Y-96735022D01*
X172015198Y-96687403D01*
X172253293Y-96687403D01*
X172348531Y-96735022D01*
X172396150Y-96782641D01*
X172443769Y-96877879D01*
X172443769Y-97068355D01*
X172396150Y-97163593D01*
X172348531Y-97211212D01*
X172253293Y-97258831D01*
%TO.C,R23*%
X143874721Y-96404069D02*
X143398531Y-96070736D01*
X143874721Y-95832641D02*
X142874721Y-95832641D01*
X142874721Y-96213593D01*
X142922341Y-96308831D01*
X142969960Y-96356450D01*
X143065198Y-96404069D01*
X143208055Y-96404069D01*
X143303293Y-96356450D01*
X143350912Y-96308831D01*
X143398531Y-96213593D01*
X143398531Y-95832641D01*
X142969960Y-96785022D02*
X142922341Y-96832641D01*
X142874721Y-96927879D01*
X142874721Y-97165974D01*
X142922341Y-97261212D01*
X142969960Y-97308831D01*
X143065198Y-97356450D01*
X143160436Y-97356450D01*
X143303293Y-97308831D01*
X143874721Y-96737403D01*
X143874721Y-97356450D01*
X142874721Y-97689784D02*
X142874721Y-98308831D01*
X143255674Y-97975498D01*
X143255674Y-98118355D01*
X143303293Y-98213593D01*
X143350912Y-98261212D01*
X143446150Y-98308831D01*
X143684245Y-98308831D01*
X143779483Y-98261212D01*
X143827102Y-98213593D01*
X143874721Y-98118355D01*
X143874721Y-97832641D01*
X143827102Y-97737403D01*
X143779483Y-97689784D01*
D11*
%TO.C,C26*%
X169458055Y-89732641D02*
X169496150Y-89694546D01*
X169534245Y-89580260D01*
X169534245Y-89504069D01*
X169496150Y-89389784D01*
X169419960Y-89313593D01*
X169343769Y-89275498D01*
X169191388Y-89237403D01*
X169077102Y-89237403D01*
X168924721Y-89275498D01*
X168848531Y-89313593D01*
X168772341Y-89389784D01*
X168734245Y-89504069D01*
X168734245Y-89580260D01*
X168772341Y-89694546D01*
X168810436Y-89732641D01*
X168810436Y-90037403D02*
X168772341Y-90075498D01*
X168734245Y-90151688D01*
X168734245Y-90342165D01*
X168772341Y-90418355D01*
X168810436Y-90456450D01*
X168886626Y-90494546D01*
X168962817Y-90494546D01*
X169077102Y-90456450D01*
X169534245Y-89999307D01*
X169534245Y-90494546D01*
X168734245Y-91180260D02*
X168734245Y-91027879D01*
X168772341Y-90951688D01*
X168810436Y-90913593D01*
X168924721Y-90837403D01*
X169077102Y-90799307D01*
X169381864Y-90799307D01*
X169458055Y-90837403D01*
X169496150Y-90875498D01*
X169534245Y-90951688D01*
X169534245Y-91104069D01*
X169496150Y-91180260D01*
X169458055Y-91218355D01*
X169381864Y-91256450D01*
X169191388Y-91256450D01*
X169115198Y-91218355D01*
X169077102Y-91180260D01*
X169039007Y-91104069D01*
X169039007Y-90951688D01*
X169077102Y-90875498D01*
X169115198Y-90837403D01*
X169191388Y-90799307D01*
D10*
%TO.C,C28*%
X171865198Y-84904069D02*
X171912817Y-84951688D01*
X172055674Y-84999307D01*
X172150912Y-84999307D01*
X172293769Y-84951688D01*
X172389007Y-84856450D01*
X172436626Y-84761212D01*
X172484245Y-84570736D01*
X172484245Y-84427879D01*
X172436626Y-84237403D01*
X172389007Y-84142165D01*
X172293769Y-84046927D01*
X172150912Y-83999307D01*
X172055674Y-83999307D01*
X171912817Y-84046927D01*
X171865198Y-84094546D01*
X171484245Y-84094546D02*
X171436626Y-84046927D01*
X171341388Y-83999307D01*
X171103293Y-83999307D01*
X171008055Y-84046927D01*
X170960436Y-84094546D01*
X170912817Y-84189784D01*
X170912817Y-84285022D01*
X170960436Y-84427879D01*
X171531864Y-84999307D01*
X170912817Y-84999307D01*
X170341388Y-84427879D02*
X170436626Y-84380260D01*
X170484245Y-84332641D01*
X170531864Y-84237403D01*
X170531864Y-84189784D01*
X170484245Y-84094546D01*
X170436626Y-84046927D01*
X170341388Y-83999307D01*
X170150912Y-83999307D01*
X170055674Y-84046927D01*
X170008055Y-84094546D01*
X169960436Y-84189784D01*
X169960436Y-84237403D01*
X170008055Y-84332641D01*
X170055674Y-84380260D01*
X170150912Y-84427879D01*
X170341388Y-84427879D01*
X170436626Y-84475498D01*
X170484245Y-84523117D01*
X170531864Y-84618355D01*
X170531864Y-84808831D01*
X170484245Y-84904069D01*
X170436626Y-84951688D01*
X170341388Y-84999307D01*
X170150912Y-84999307D01*
X170055674Y-84951688D01*
X170008055Y-84904069D01*
X169960436Y-84808831D01*
X169960436Y-84618355D01*
X170008055Y-84523117D01*
X170055674Y-84475498D01*
X170150912Y-84427879D01*
%TO.C,C30*%
X137579483Y-91204069D02*
X137627102Y-91156450D01*
X137674721Y-91013593D01*
X137674721Y-90918355D01*
X137627102Y-90775498D01*
X137531864Y-90680260D01*
X137436626Y-90632641D01*
X137246150Y-90585022D01*
X137103293Y-90585022D01*
X136912817Y-90632641D01*
X136817579Y-90680260D01*
X136722341Y-90775498D01*
X136674721Y-90918355D01*
X136674721Y-91013593D01*
X136722341Y-91156450D01*
X136769960Y-91204069D01*
X136674721Y-91537403D02*
X136674721Y-92156450D01*
X137055674Y-91823117D01*
X137055674Y-91965974D01*
X137103293Y-92061212D01*
X137150912Y-92108831D01*
X137246150Y-92156450D01*
X137484245Y-92156450D01*
X137579483Y-92108831D01*
X137627102Y-92061212D01*
X137674721Y-91965974D01*
X137674721Y-91680260D01*
X137627102Y-91585022D01*
X137579483Y-91537403D01*
X136674721Y-92775498D02*
X136674721Y-92870736D01*
X136722341Y-92965974D01*
X136769960Y-93013593D01*
X136865198Y-93061212D01*
X137055674Y-93108831D01*
X137293769Y-93108831D01*
X137484245Y-93061212D01*
X137579483Y-93013593D01*
X137627102Y-92965974D01*
X137674721Y-92870736D01*
X137674721Y-92775498D01*
X137627102Y-92680260D01*
X137579483Y-92632641D01*
X137484245Y-92585022D01*
X137293769Y-92537403D01*
X137055674Y-92537403D01*
X136865198Y-92585022D01*
X136769960Y-92632641D01*
X136722341Y-92680260D01*
X136674721Y-92775498D01*
%TO.C,C33*%
X137577483Y-87940069D02*
X137625102Y-87892450D01*
X137672721Y-87749593D01*
X137672721Y-87654355D01*
X137625102Y-87511498D01*
X137529864Y-87416260D01*
X137434626Y-87368641D01*
X137244150Y-87321022D01*
X137101293Y-87321022D01*
X136910817Y-87368641D01*
X136815579Y-87416260D01*
X136720341Y-87511498D01*
X136672721Y-87654355D01*
X136672721Y-87749593D01*
X136720341Y-87892450D01*
X136767960Y-87940069D01*
X136672721Y-88273403D02*
X136672721Y-88892450D01*
X137053674Y-88559117D01*
X137053674Y-88701974D01*
X137101293Y-88797212D01*
X137148912Y-88844831D01*
X137244150Y-88892450D01*
X137482245Y-88892450D01*
X137577483Y-88844831D01*
X137625102Y-88797212D01*
X137672721Y-88701974D01*
X137672721Y-88416260D01*
X137625102Y-88321022D01*
X137577483Y-88273403D01*
X136672721Y-89225784D02*
X136672721Y-89844831D01*
X137053674Y-89511498D01*
X137053674Y-89654355D01*
X137101293Y-89749593D01*
X137148912Y-89797212D01*
X137244150Y-89844831D01*
X137482245Y-89844831D01*
X137577483Y-89797212D01*
X137625102Y-89749593D01*
X137672721Y-89654355D01*
X137672721Y-89368641D01*
X137625102Y-89273403D01*
X137577483Y-89225784D01*
%TO.C,C34*%
X145129483Y-86604069D02*
X145177102Y-86556450D01*
X145224721Y-86413593D01*
X145224721Y-86318355D01*
X145177102Y-86175498D01*
X145081864Y-86080260D01*
X144986626Y-86032641D01*
X144796150Y-85985022D01*
X144653293Y-85985022D01*
X144462817Y-86032641D01*
X144367579Y-86080260D01*
X144272341Y-86175498D01*
X144224721Y-86318355D01*
X144224721Y-86413593D01*
X144272341Y-86556450D01*
X144319960Y-86604069D01*
X144224721Y-86937403D02*
X144224721Y-87556450D01*
X144605674Y-87223117D01*
X144605674Y-87365974D01*
X144653293Y-87461212D01*
X144700912Y-87508831D01*
X144796150Y-87556450D01*
X145034245Y-87556450D01*
X145129483Y-87508831D01*
X145177102Y-87461212D01*
X145224721Y-87365974D01*
X145224721Y-87080260D01*
X145177102Y-86985022D01*
X145129483Y-86937403D01*
X144558055Y-88413593D02*
X145224721Y-88413593D01*
X144177102Y-88175498D02*
X144891388Y-87937403D01*
X144891388Y-88556450D01*
%TO.C,C35*%
X153071483Y-97084069D02*
X153119102Y-97036450D01*
X153166721Y-96893593D01*
X153166721Y-96798355D01*
X153119102Y-96655498D01*
X153023864Y-96560260D01*
X152928626Y-96512641D01*
X152738150Y-96465022D01*
X152595293Y-96465022D01*
X152404817Y-96512641D01*
X152309579Y-96560260D01*
X152214341Y-96655498D01*
X152166721Y-96798355D01*
X152166721Y-96893593D01*
X152214341Y-97036450D01*
X152261960Y-97084069D01*
X152166721Y-97417403D02*
X152166721Y-98036450D01*
X152547674Y-97703117D01*
X152547674Y-97845974D01*
X152595293Y-97941212D01*
X152642912Y-97988831D01*
X152738150Y-98036450D01*
X152976245Y-98036450D01*
X153071483Y-97988831D01*
X153119102Y-97941212D01*
X153166721Y-97845974D01*
X153166721Y-97560260D01*
X153119102Y-97465022D01*
X153071483Y-97417403D01*
X152166721Y-98941212D02*
X152166721Y-98465022D01*
X152642912Y-98417403D01*
X152595293Y-98465022D01*
X152547674Y-98560260D01*
X152547674Y-98798355D01*
X152595293Y-98893593D01*
X152642912Y-98941212D01*
X152738150Y-98988831D01*
X152976245Y-98988831D01*
X153071483Y-98941212D01*
X153119102Y-98893593D01*
X153166721Y-98798355D01*
X153166721Y-98560260D01*
X153119102Y-98465022D01*
X153071483Y-98417403D01*
%TO.C,C39*%
X155229483Y-78304069D02*
X155277102Y-78256450D01*
X155324721Y-78113593D01*
X155324721Y-78018355D01*
X155277102Y-77875498D01*
X155181864Y-77780260D01*
X155086626Y-77732641D01*
X154896150Y-77685022D01*
X154753293Y-77685022D01*
X154562817Y-77732641D01*
X154467579Y-77780260D01*
X154372341Y-77875498D01*
X154324721Y-78018355D01*
X154324721Y-78113593D01*
X154372341Y-78256450D01*
X154419960Y-78304069D01*
X154324721Y-78637403D02*
X154324721Y-79256450D01*
X154705674Y-78923117D01*
X154705674Y-79065974D01*
X154753293Y-79161212D01*
X154800912Y-79208831D01*
X154896150Y-79256450D01*
X155134245Y-79256450D01*
X155229483Y-79208831D01*
X155277102Y-79161212D01*
X155324721Y-79065974D01*
X155324721Y-78780260D01*
X155277102Y-78685022D01*
X155229483Y-78637403D01*
X155324721Y-79732641D02*
X155324721Y-79923117D01*
X155277102Y-80018355D01*
X155229483Y-80065974D01*
X155086626Y-80161212D01*
X154896150Y-80208831D01*
X154515198Y-80208831D01*
X154419960Y-80161212D01*
X154372341Y-80113593D01*
X154324721Y-80018355D01*
X154324721Y-79827879D01*
X154372341Y-79732641D01*
X154419960Y-79685022D01*
X154515198Y-79637403D01*
X154753293Y-79637403D01*
X154848531Y-79685022D01*
X154896150Y-79732641D01*
X154943769Y-79827879D01*
X154943769Y-80018355D01*
X154896150Y-80113593D01*
X154848531Y-80161212D01*
X154753293Y-80208831D01*
%TO.C,C43*%
X146715198Y-100004069D02*
X146762817Y-100051688D01*
X146905674Y-100099307D01*
X147000912Y-100099307D01*
X147143769Y-100051688D01*
X147239007Y-99956450D01*
X147286626Y-99861212D01*
X147334245Y-99670736D01*
X147334245Y-99527879D01*
X147286626Y-99337403D01*
X147239007Y-99242165D01*
X147143769Y-99146927D01*
X147000912Y-99099307D01*
X146905674Y-99099307D01*
X146762817Y-99146927D01*
X146715198Y-99194546D01*
X145858055Y-99432641D02*
X145858055Y-100099307D01*
X146096150Y-99051688D02*
X146334245Y-99765974D01*
X145715198Y-99765974D01*
X145429483Y-99099307D02*
X144810436Y-99099307D01*
X145143769Y-99480260D01*
X145000912Y-99480260D01*
X144905674Y-99527879D01*
X144858055Y-99575498D01*
X144810436Y-99670736D01*
X144810436Y-99908831D01*
X144858055Y-100004069D01*
X144905674Y-100051688D01*
X145000912Y-100099307D01*
X145286626Y-100099307D01*
X145381864Y-100051688D01*
X145429483Y-100004069D01*
D11*
%TO.C,C47*%
X171676626Y-93932641D02*
X171714721Y-93970736D01*
X171829007Y-94008831D01*
X171905198Y-94008831D01*
X172019483Y-93970736D01*
X172095674Y-93894546D01*
X172133769Y-93818355D01*
X172171864Y-93665974D01*
X172171864Y-93551688D01*
X172133769Y-93399307D01*
X172095674Y-93323117D01*
X172019483Y-93246927D01*
X171905198Y-93208831D01*
X171829007Y-93208831D01*
X171714721Y-93246927D01*
X171676626Y-93285022D01*
X170990912Y-93475498D02*
X170990912Y-94008831D01*
X171181388Y-93170736D02*
X171371864Y-93742165D01*
X170876626Y-93742165D01*
X170648055Y-93208831D02*
X170114721Y-93208831D01*
X170457579Y-94008831D01*
D10*
%TO.C,L1*%
X166376007Y-84850307D02*
X166852198Y-84850307D01*
X166852198Y-83850307D01*
X165518864Y-84850307D02*
X166090293Y-84850307D01*
X165804579Y-84850307D02*
X165804579Y-83850307D01*
X165899817Y-83993165D01*
X165995055Y-84088403D01*
X166090293Y-84136022D01*
%TO.C,R21*%
X150215198Y-106549307D02*
X150548531Y-106073117D01*
X150786626Y-106549307D02*
X150786626Y-105549307D01*
X150405674Y-105549307D01*
X150310436Y-105596927D01*
X150262817Y-105644546D01*
X150215198Y-105739784D01*
X150215198Y-105882641D01*
X150262817Y-105977879D01*
X150310436Y-106025498D01*
X150405674Y-106073117D01*
X150786626Y-106073117D01*
X149834245Y-105644546D02*
X149786626Y-105596927D01*
X149691388Y-105549307D01*
X149453293Y-105549307D01*
X149358055Y-105596927D01*
X149310436Y-105644546D01*
X149262817Y-105739784D01*
X149262817Y-105835022D01*
X149310436Y-105977879D01*
X149881864Y-106549307D01*
X149262817Y-106549307D01*
X148310436Y-106549307D02*
X148881864Y-106549307D01*
X148596150Y-106549307D02*
X148596150Y-105549307D01*
X148691388Y-105692165D01*
X148786626Y-105787403D01*
X148881864Y-105835022D01*
%TO.C,U11*%
X168924721Y-92958831D02*
X169734245Y-92958831D01*
X169829483Y-93006450D01*
X169877102Y-93054069D01*
X169924721Y-93149307D01*
X169924721Y-93339784D01*
X169877102Y-93435022D01*
X169829483Y-93482641D01*
X169734245Y-93530260D01*
X168924721Y-93530260D01*
X169924721Y-94530260D02*
X169924721Y-93958831D01*
X169924721Y-94244546D02*
X168924721Y-94244546D01*
X169067579Y-94149307D01*
X169162817Y-94054069D01*
X169210436Y-93958831D01*
X169924721Y-95482641D02*
X169924721Y-94911212D01*
X169924721Y-95196927D02*
X168924721Y-95196927D01*
X169067579Y-95101688D01*
X169162817Y-95006450D01*
X169210436Y-94911212D01*
%TO.C,C23*%
X124279483Y-92204069D02*
X124327102Y-92156450D01*
X124374721Y-92013593D01*
X124374721Y-91918355D01*
X124327102Y-91775498D01*
X124231864Y-91680260D01*
X124136626Y-91632641D01*
X123946150Y-91585022D01*
X123803293Y-91585022D01*
X123612817Y-91632641D01*
X123517579Y-91680260D01*
X123422341Y-91775498D01*
X123374721Y-91918355D01*
X123374721Y-92013593D01*
X123422341Y-92156450D01*
X123469960Y-92204069D01*
X123469960Y-92585022D02*
X123422341Y-92632641D01*
X123374721Y-92727879D01*
X123374721Y-92965974D01*
X123422341Y-93061212D01*
X123469960Y-93108831D01*
X123565198Y-93156450D01*
X123660436Y-93156450D01*
X123803293Y-93108831D01*
X124374721Y-92537403D01*
X124374721Y-93156450D01*
X123374721Y-93489784D02*
X123374721Y-94108831D01*
X123755674Y-93775498D01*
X123755674Y-93918355D01*
X123803293Y-94013593D01*
X123850912Y-94061212D01*
X123946150Y-94108831D01*
X124184245Y-94108831D01*
X124279483Y-94061212D01*
X124327102Y-94013593D01*
X124374721Y-93918355D01*
X124374721Y-93632641D01*
X124327102Y-93537403D01*
X124279483Y-93489784D01*
D11*
%TO.C,C32*%
X177736626Y-89882641D02*
X177774721Y-89920736D01*
X177889007Y-89958831D01*
X177965198Y-89958831D01*
X178079483Y-89920736D01*
X178155674Y-89844546D01*
X178193769Y-89768355D01*
X178231864Y-89615974D01*
X178231864Y-89501688D01*
X178193769Y-89349307D01*
X178155674Y-89273117D01*
X178079483Y-89196927D01*
X177965198Y-89158831D01*
X177889007Y-89158831D01*
X177774721Y-89196927D01*
X177736626Y-89235022D01*
X177469960Y-89158831D02*
X176974721Y-89158831D01*
X177241388Y-89463593D01*
X177127102Y-89463593D01*
X177050912Y-89501688D01*
X177012817Y-89539784D01*
X176974721Y-89615974D01*
X176974721Y-89806450D01*
X177012817Y-89882641D01*
X177050912Y-89920736D01*
X177127102Y-89958831D01*
X177355674Y-89958831D01*
X177431864Y-89920736D01*
X177469960Y-89882641D01*
X176669960Y-89235022D02*
X176631864Y-89196927D01*
X176555674Y-89158831D01*
X176365198Y-89158831D01*
X176289007Y-89196927D01*
X176250912Y-89235022D01*
X176212817Y-89311212D01*
X176212817Y-89387403D01*
X176250912Y-89501688D01*
X176708055Y-89958831D01*
X176212817Y-89958831D01*
%TO.C,C54*%
X177086626Y-91282641D02*
X177124721Y-91320736D01*
X177239007Y-91358831D01*
X177315198Y-91358831D01*
X177429483Y-91320736D01*
X177505674Y-91244546D01*
X177543769Y-91168355D01*
X177581864Y-91015974D01*
X177581864Y-90901688D01*
X177543769Y-90749307D01*
X177505674Y-90673117D01*
X177429483Y-90596927D01*
X177315198Y-90558831D01*
X177239007Y-90558831D01*
X177124721Y-90596927D01*
X177086626Y-90635022D01*
X176362817Y-90558831D02*
X176743769Y-90558831D01*
X176781864Y-90939784D01*
X176743769Y-90901688D01*
X176667579Y-90863593D01*
X176477102Y-90863593D01*
X176400912Y-90901688D01*
X176362817Y-90939784D01*
X176324721Y-91015974D01*
X176324721Y-91206450D01*
X176362817Y-91282641D01*
X176400912Y-91320736D01*
X176477102Y-91358831D01*
X176667579Y-91358831D01*
X176743769Y-91320736D01*
X176781864Y-91282641D01*
X175639007Y-90825498D02*
X175639007Y-91358831D01*
X175829483Y-90520736D02*
X176019960Y-91092165D01*
X175524721Y-91092165D01*
D10*
%TO.C,R15*%
X127765198Y-85999307D02*
X128098531Y-85523117D01*
X128336626Y-85999307D02*
X128336626Y-84999307D01*
X127955674Y-84999307D01*
X127860436Y-85046927D01*
X127812817Y-85094546D01*
X127765198Y-85189784D01*
X127765198Y-85332641D01*
X127812817Y-85427879D01*
X127860436Y-85475498D01*
X127955674Y-85523117D01*
X128336626Y-85523117D01*
X126812817Y-85999307D02*
X127384245Y-85999307D01*
X127098531Y-85999307D02*
X127098531Y-84999307D01*
X127193769Y-85142165D01*
X127289007Y-85237403D01*
X127384245Y-85285022D01*
X125908055Y-84999307D02*
X126384245Y-84999307D01*
X126431864Y-85475498D01*
X126384245Y-85427879D01*
X126289007Y-85380260D01*
X126050912Y-85380260D01*
X125955674Y-85427879D01*
X125908055Y-85475498D01*
X125860436Y-85570736D01*
X125860436Y-85808831D01*
X125908055Y-85904069D01*
X125955674Y-85951688D01*
X126050912Y-85999307D01*
X126289007Y-85999307D01*
X126384245Y-85951688D01*
X126431864Y-85904069D01*
%TO.C,R19*%
X124365198Y-86149307D02*
X124698531Y-85673117D01*
X124936626Y-86149307D02*
X124936626Y-85149307D01*
X124555674Y-85149307D01*
X124460436Y-85196927D01*
X124412817Y-85244546D01*
X124365198Y-85339784D01*
X124365198Y-85482641D01*
X124412817Y-85577879D01*
X124460436Y-85625498D01*
X124555674Y-85673117D01*
X124936626Y-85673117D01*
X123412817Y-86149307D02*
X123984245Y-86149307D01*
X123698531Y-86149307D02*
X123698531Y-85149307D01*
X123793769Y-85292165D01*
X123889007Y-85387403D01*
X123984245Y-85435022D01*
X122936626Y-86149307D02*
X122746150Y-86149307D01*
X122650912Y-86101688D01*
X122603293Y-86054069D01*
X122508055Y-85911212D01*
X122460436Y-85720736D01*
X122460436Y-85339784D01*
X122508055Y-85244546D01*
X122555674Y-85196927D01*
X122650912Y-85149307D01*
X122841388Y-85149307D01*
X122936626Y-85196927D01*
X122984245Y-85244546D01*
X123031864Y-85339784D01*
X123031864Y-85577879D01*
X122984245Y-85673117D01*
X122936626Y-85720736D01*
X122841388Y-85768355D01*
X122650912Y-85768355D01*
X122555674Y-85720736D01*
X122508055Y-85673117D01*
X122460436Y-85577879D01*
%TO.C,R22*%
X120765198Y-86099307D02*
X121098531Y-85623117D01*
X121336626Y-86099307D02*
X121336626Y-85099307D01*
X120955674Y-85099307D01*
X120860436Y-85146927D01*
X120812817Y-85194546D01*
X120765198Y-85289784D01*
X120765198Y-85432641D01*
X120812817Y-85527879D01*
X120860436Y-85575498D01*
X120955674Y-85623117D01*
X121336626Y-85623117D01*
X120384245Y-85194546D02*
X120336626Y-85146927D01*
X120241388Y-85099307D01*
X120003293Y-85099307D01*
X119908055Y-85146927D01*
X119860436Y-85194546D01*
X119812817Y-85289784D01*
X119812817Y-85385022D01*
X119860436Y-85527879D01*
X120431864Y-86099307D01*
X119812817Y-86099307D01*
X119431864Y-85194546D02*
X119384245Y-85146927D01*
X119289007Y-85099307D01*
X119050912Y-85099307D01*
X118955674Y-85146927D01*
X118908055Y-85194546D01*
X118860436Y-85289784D01*
X118860436Y-85385022D01*
X118908055Y-85527879D01*
X119479483Y-86099307D01*
X118860436Y-86099307D01*
%TO.C,M8*%
X117853864Y-116849307D02*
X117853864Y-115849307D01*
X117520531Y-116563593D01*
X117187198Y-115849307D01*
X117187198Y-116849307D01*
X116568150Y-116277879D02*
X116663388Y-116230260D01*
X116711007Y-116182641D01*
X116758626Y-116087403D01*
X116758626Y-116039784D01*
X116711007Y-115944546D01*
X116663388Y-115896927D01*
X116568150Y-115849307D01*
X116377674Y-115849307D01*
X116282436Y-115896927D01*
X116234817Y-115944546D01*
X116187198Y-116039784D01*
X116187198Y-116087403D01*
X116234817Y-116182641D01*
X116282436Y-116230260D01*
X116377674Y-116277879D01*
X116568150Y-116277879D01*
X116663388Y-116325498D01*
X116711007Y-116373117D01*
X116758626Y-116468355D01*
X116758626Y-116658831D01*
X116711007Y-116754069D01*
X116663388Y-116801688D01*
X116568150Y-116849307D01*
X116377674Y-116849307D01*
X116282436Y-116801688D01*
X116234817Y-116754069D01*
X116187198Y-116658831D01*
X116187198Y-116468355D01*
X116234817Y-116373117D01*
X116282436Y-116325498D01*
X116377674Y-116277879D01*
%TO.C,J3*%
X183624721Y-90991593D02*
X184339007Y-90991593D01*
X184481864Y-90943974D01*
X184577102Y-90848736D01*
X184624721Y-90705879D01*
X184624721Y-90610641D01*
X183624721Y-91372546D02*
X183624721Y-91991593D01*
X184005674Y-91658260D01*
X184005674Y-91801117D01*
X184053293Y-91896355D01*
X184100912Y-91943974D01*
X184196150Y-91991593D01*
X184434245Y-91991593D01*
X184529483Y-91943974D01*
X184577102Y-91896355D01*
X184624721Y-91801117D01*
X184624721Y-91515403D01*
X184577102Y-91420165D01*
X184529483Y-91372546D01*
%TO.C,Q2*%
X146667579Y-122894546D02*
X146762817Y-122846927D01*
X146858055Y-122751688D01*
X147000912Y-122608831D01*
X147096150Y-122561212D01*
X147191388Y-122561212D01*
X147143769Y-122799307D02*
X147239007Y-122751688D01*
X147334245Y-122656450D01*
X147381864Y-122465974D01*
X147381864Y-122132641D01*
X147334245Y-121942165D01*
X147239007Y-121846927D01*
X147143769Y-121799307D01*
X146953293Y-121799307D01*
X146858055Y-121846927D01*
X146762817Y-121942165D01*
X146715198Y-122132641D01*
X146715198Y-122465974D01*
X146762817Y-122656450D01*
X146858055Y-122751688D01*
X146953293Y-122799307D01*
X147143769Y-122799307D01*
X146334245Y-121894546D02*
X146286626Y-121846927D01*
X146191388Y-121799307D01*
X145953293Y-121799307D01*
X145858055Y-121846927D01*
X145810436Y-121894546D01*
X145762817Y-121989784D01*
X145762817Y-122085022D01*
X145810436Y-122227879D01*
X146381864Y-122799307D01*
X145762817Y-122799307D01*
%TO.C,C58*%
X113565198Y-111604069D02*
X113612817Y-111651688D01*
X113755674Y-111699307D01*
X113850912Y-111699307D01*
X113993769Y-111651688D01*
X114089007Y-111556450D01*
X114136626Y-111461212D01*
X114184245Y-111270736D01*
X114184245Y-111127879D01*
X114136626Y-110937403D01*
X114089007Y-110842165D01*
X113993769Y-110746927D01*
X113850912Y-110699307D01*
X113755674Y-110699307D01*
X113612817Y-110746927D01*
X113565198Y-110794546D01*
X112660436Y-110699307D02*
X113136626Y-110699307D01*
X113184245Y-111175498D01*
X113136626Y-111127879D01*
X113041388Y-111080260D01*
X112803293Y-111080260D01*
X112708055Y-111127879D01*
X112660436Y-111175498D01*
X112612817Y-111270736D01*
X112612817Y-111508831D01*
X112660436Y-111604069D01*
X112708055Y-111651688D01*
X112803293Y-111699307D01*
X113041388Y-111699307D01*
X113136626Y-111651688D01*
X113184245Y-111604069D01*
X112041388Y-111127879D02*
X112136626Y-111080260D01*
X112184245Y-111032641D01*
X112231864Y-110937403D01*
X112231864Y-110889784D01*
X112184245Y-110794546D01*
X112136626Y-110746927D01*
X112041388Y-110699307D01*
X111850912Y-110699307D01*
X111755674Y-110746927D01*
X111708055Y-110794546D01*
X111660436Y-110889784D01*
X111660436Y-110937403D01*
X111708055Y-111032641D01*
X111755674Y-111080260D01*
X111850912Y-111127879D01*
X112041388Y-111127879D01*
X112136626Y-111175498D01*
X112184245Y-111223117D01*
X112231864Y-111318355D01*
X112231864Y-111508831D01*
X112184245Y-111604069D01*
X112136626Y-111651688D01*
X112041388Y-111699307D01*
X111850912Y-111699307D01*
X111755674Y-111651688D01*
X111708055Y-111604069D01*
X111660436Y-111508831D01*
X111660436Y-111318355D01*
X111708055Y-111223117D01*
X111755674Y-111175498D01*
X111850912Y-111127879D01*
%TO.C,R39*%
X104165198Y-108599307D02*
X104498531Y-108123117D01*
X104736626Y-108599307D02*
X104736626Y-107599307D01*
X104355674Y-107599307D01*
X104260436Y-107646927D01*
X104212817Y-107694546D01*
X104165198Y-107789784D01*
X104165198Y-107932641D01*
X104212817Y-108027879D01*
X104260436Y-108075498D01*
X104355674Y-108123117D01*
X104736626Y-108123117D01*
X103831864Y-107599307D02*
X103212817Y-107599307D01*
X103546150Y-107980260D01*
X103403293Y-107980260D01*
X103308055Y-108027879D01*
X103260436Y-108075498D01*
X103212817Y-108170736D01*
X103212817Y-108408831D01*
X103260436Y-108504069D01*
X103308055Y-108551688D01*
X103403293Y-108599307D01*
X103689007Y-108599307D01*
X103784245Y-108551688D01*
X103831864Y-108504069D01*
X102736626Y-108599307D02*
X102546150Y-108599307D01*
X102450912Y-108551688D01*
X102403293Y-108504069D01*
X102308055Y-108361212D01*
X102260436Y-108170736D01*
X102260436Y-107789784D01*
X102308055Y-107694546D01*
X102355674Y-107646927D01*
X102450912Y-107599307D01*
X102641388Y-107599307D01*
X102736626Y-107646927D01*
X102784245Y-107694546D01*
X102831864Y-107789784D01*
X102831864Y-108027879D01*
X102784245Y-108123117D01*
X102736626Y-108170736D01*
X102641388Y-108218355D01*
X102450912Y-108218355D01*
X102355674Y-108170736D01*
X102308055Y-108123117D01*
X102260436Y-108027879D01*
%TO.C,R37*%
X158774721Y-111404069D02*
X158298531Y-111070736D01*
X158774721Y-110832641D02*
X157774721Y-110832641D01*
X157774721Y-111213593D01*
X157822341Y-111308831D01*
X157869960Y-111356450D01*
X157965198Y-111404069D01*
X158108055Y-111404069D01*
X158203293Y-111356450D01*
X158250912Y-111308831D01*
X158298531Y-111213593D01*
X158298531Y-110832641D01*
X157774721Y-111737403D02*
X157774721Y-112356450D01*
X158155674Y-112023117D01*
X158155674Y-112165974D01*
X158203293Y-112261212D01*
X158250912Y-112308831D01*
X158346150Y-112356450D01*
X158584245Y-112356450D01*
X158679483Y-112308831D01*
X158727102Y-112261212D01*
X158774721Y-112165974D01*
X158774721Y-111880260D01*
X158727102Y-111785022D01*
X158679483Y-111737403D01*
X157774721Y-112689784D02*
X157774721Y-113356450D01*
X158774721Y-112927879D01*
%TO.C,C59*%
X110858055Y-89132641D02*
X110896150Y-89094546D01*
X110934245Y-88980260D01*
X110934245Y-88904069D01*
X110896150Y-88789784D01*
X110819960Y-88713593D01*
X110743769Y-88675498D01*
X110591388Y-88637403D01*
X110477102Y-88637403D01*
X110324721Y-88675498D01*
X110248531Y-88713593D01*
X110172341Y-88789784D01*
X110134245Y-88904069D01*
X110134245Y-88980260D01*
X110172341Y-89094546D01*
X110210436Y-89132641D01*
X110134245Y-89856450D02*
X110134245Y-89475498D01*
X110515198Y-89437403D01*
X110477102Y-89475498D01*
X110439007Y-89551688D01*
X110439007Y-89742165D01*
X110477102Y-89818355D01*
X110515198Y-89856450D01*
X110591388Y-89894546D01*
X110781864Y-89894546D01*
X110858055Y-89856450D01*
X110896150Y-89818355D01*
X110934245Y-89742165D01*
X110934245Y-89551688D01*
X110896150Y-89475498D01*
X110858055Y-89437403D01*
X110934245Y-90275498D02*
X110934245Y-90427879D01*
X110896150Y-90504069D01*
X110858055Y-90542165D01*
X110743769Y-90618355D01*
X110591388Y-90656450D01*
X110286626Y-90656450D01*
X110210436Y-90618355D01*
X110172341Y-90580260D01*
X110134245Y-90504069D01*
X110134245Y-90351688D01*
X110172341Y-90275498D01*
X110210436Y-90237403D01*
X110286626Y-90199307D01*
X110477102Y-90199307D01*
X110553293Y-90237403D01*
X110591388Y-90275498D01*
X110629483Y-90351688D01*
X110629483Y-90504069D01*
X110591388Y-90580260D01*
X110553293Y-90618355D01*
X110477102Y-90656450D01*
%TO.C,J1*%
X183474721Y-76015593D02*
X184189007Y-76015593D01*
X184331864Y-75967974D01*
X184427102Y-75872736D01*
X184474721Y-75729879D01*
X184474721Y-75634641D01*
X184474721Y-77015593D02*
X184474721Y-76444165D01*
X184474721Y-76729879D02*
X183474721Y-76729879D01*
X183617579Y-76634641D01*
X183712817Y-76539403D01*
X183760436Y-76444165D01*
%TO.C,R42*%
X153974721Y-111404069D02*
X153498531Y-111070736D01*
X153974721Y-110832641D02*
X152974721Y-110832641D01*
X152974721Y-111213593D01*
X153022341Y-111308831D01*
X153069960Y-111356450D01*
X153165198Y-111404069D01*
X153308055Y-111404069D01*
X153403293Y-111356450D01*
X153450912Y-111308831D01*
X153498531Y-111213593D01*
X153498531Y-110832641D01*
X153308055Y-112261212D02*
X153974721Y-112261212D01*
X152927102Y-112023117D02*
X153641388Y-111785022D01*
X153641388Y-112404069D01*
X153069960Y-112737403D02*
X153022341Y-112785022D01*
X152974721Y-112880260D01*
X152974721Y-113118355D01*
X153022341Y-113213593D01*
X153069960Y-113261212D01*
X153165198Y-113308831D01*
X153260436Y-113308831D01*
X153403293Y-113261212D01*
X153974721Y-112689784D01*
X153974721Y-113308831D01*
%TO.C,R44*%
X151424721Y-112454069D02*
X150948531Y-112120736D01*
X151424721Y-111882641D02*
X150424721Y-111882641D01*
X150424721Y-112263593D01*
X150472341Y-112358831D01*
X150519960Y-112406450D01*
X150615198Y-112454069D01*
X150758055Y-112454069D01*
X150853293Y-112406450D01*
X150900912Y-112358831D01*
X150948531Y-112263593D01*
X150948531Y-111882641D01*
X150758055Y-113311212D02*
X151424721Y-113311212D01*
X150377102Y-113073117D02*
X151091388Y-112835022D01*
X151091388Y-113454069D01*
X150758055Y-114263593D02*
X151424721Y-114263593D01*
X150377102Y-114025498D02*
X151091388Y-113787403D01*
X151091388Y-114406450D01*
%TO.C,R28*%
X169996721Y-114102069D02*
X169520531Y-113768736D01*
X169996721Y-113530641D02*
X168996721Y-113530641D01*
X168996721Y-113911593D01*
X169044341Y-114006831D01*
X169091960Y-114054450D01*
X169187198Y-114102069D01*
X169330055Y-114102069D01*
X169425293Y-114054450D01*
X169472912Y-114006831D01*
X169520531Y-113911593D01*
X169520531Y-113530641D01*
X169091960Y-114483022D02*
X169044341Y-114530641D01*
X168996721Y-114625879D01*
X168996721Y-114863974D01*
X169044341Y-114959212D01*
X169091960Y-115006831D01*
X169187198Y-115054450D01*
X169282436Y-115054450D01*
X169425293Y-115006831D01*
X169996721Y-114435403D01*
X169996721Y-115054450D01*
X169425293Y-115625879D02*
X169377674Y-115530641D01*
X169330055Y-115483022D01*
X169234817Y-115435403D01*
X169187198Y-115435403D01*
X169091960Y-115483022D01*
X169044341Y-115530641D01*
X168996721Y-115625879D01*
X168996721Y-115816355D01*
X169044341Y-115911593D01*
X169091960Y-115959212D01*
X169187198Y-116006831D01*
X169234817Y-116006831D01*
X169330055Y-115959212D01*
X169377674Y-115911593D01*
X169425293Y-115816355D01*
X169425293Y-115625879D01*
X169472912Y-115530641D01*
X169520531Y-115483022D01*
X169615769Y-115435403D01*
X169806245Y-115435403D01*
X169901483Y-115483022D01*
X169949102Y-115530641D01*
X169996721Y-115625879D01*
X169996721Y-115816355D01*
X169949102Y-115911593D01*
X169901483Y-115959212D01*
X169806245Y-116006831D01*
X169615769Y-116006831D01*
X169520531Y-115959212D01*
X169472912Y-115911593D01*
X169425293Y-115816355D01*
%TO.C,C55*%
X114015198Y-108504069D02*
X114062817Y-108551688D01*
X114205674Y-108599307D01*
X114300912Y-108599307D01*
X114443769Y-108551688D01*
X114539007Y-108456450D01*
X114586626Y-108361212D01*
X114634245Y-108170736D01*
X114634245Y-108027879D01*
X114586626Y-107837403D01*
X114539007Y-107742165D01*
X114443769Y-107646927D01*
X114300912Y-107599307D01*
X114205674Y-107599307D01*
X114062817Y-107646927D01*
X114015198Y-107694546D01*
X113110436Y-107599307D02*
X113586626Y-107599307D01*
X113634245Y-108075498D01*
X113586626Y-108027879D01*
X113491388Y-107980260D01*
X113253293Y-107980260D01*
X113158055Y-108027879D01*
X113110436Y-108075498D01*
X113062817Y-108170736D01*
X113062817Y-108408831D01*
X113110436Y-108504069D01*
X113158055Y-108551688D01*
X113253293Y-108599307D01*
X113491388Y-108599307D01*
X113586626Y-108551688D01*
X113634245Y-108504069D01*
X112158055Y-107599307D02*
X112634245Y-107599307D01*
X112681864Y-108075498D01*
X112634245Y-108027879D01*
X112539007Y-107980260D01*
X112300912Y-107980260D01*
X112205674Y-108027879D01*
X112158055Y-108075498D01*
X112110436Y-108170736D01*
X112110436Y-108408831D01*
X112158055Y-108504069D01*
X112205674Y-108551688D01*
X112300912Y-108599307D01*
X112539007Y-108599307D01*
X112634245Y-108551688D01*
X112681864Y-108504069D01*
%TO.C,J7*%
X182552721Y-110093593D02*
X183267007Y-110093593D01*
X183409864Y-110045974D01*
X183505102Y-109950736D01*
X183552721Y-109807879D01*
X183552721Y-109712641D01*
X182552721Y-110474546D02*
X182552721Y-111141212D01*
X183552721Y-110712641D01*
D11*
%TO.C,D6*%
X181162817Y-93058831D02*
X181162817Y-92258831D01*
X180972341Y-92258831D01*
X180858055Y-92296927D01*
X180781864Y-92373117D01*
X180743769Y-92449307D01*
X180705674Y-92601688D01*
X180705674Y-92715974D01*
X180743769Y-92868355D01*
X180781864Y-92944546D01*
X180858055Y-93020736D01*
X180972341Y-93058831D01*
X181162817Y-93058831D01*
X180019960Y-92258831D02*
X180172341Y-92258831D01*
X180248531Y-92296927D01*
X180286626Y-92335022D01*
X180362817Y-92449307D01*
X180400912Y-92601688D01*
X180400912Y-92906450D01*
X180362817Y-92982641D01*
X180324721Y-93020736D01*
X180248531Y-93058831D01*
X180096150Y-93058831D01*
X180019960Y-93020736D01*
X179981864Y-92982641D01*
X179943769Y-92906450D01*
X179943769Y-92715974D01*
X179981864Y-92639784D01*
X180019960Y-92601688D01*
X180096150Y-92563593D01*
X180248531Y-92563593D01*
X180324721Y-92601688D01*
X180362817Y-92639784D01*
X180400912Y-92715974D01*
D10*
%TO.C,Q1*%
X105606760Y-86658888D02*
X105559141Y-86563650D01*
X105463902Y-86468412D01*
X105321045Y-86325555D01*
X105273426Y-86230317D01*
X105273426Y-86135079D01*
X105511521Y-86182698D02*
X105463902Y-86087460D01*
X105368664Y-85992222D01*
X105178188Y-85944603D01*
X104844855Y-85944603D01*
X104654379Y-85992222D01*
X104559141Y-86087460D01*
X104511521Y-86182698D01*
X104511521Y-86373174D01*
X104559141Y-86468412D01*
X104654379Y-86563650D01*
X104844855Y-86611269D01*
X105178188Y-86611269D01*
X105368664Y-86563650D01*
X105463902Y-86468412D01*
X105511521Y-86373174D01*
X105511521Y-86182698D01*
X105511521Y-87563650D02*
X105511521Y-86992222D01*
X105511521Y-87277936D02*
X104511521Y-87277936D01*
X104654379Y-87182698D01*
X104749617Y-87087460D01*
X104797236Y-86992222D01*
%TO.C,R41*%
X110636626Y-84808831D02*
X110903293Y-84427879D01*
X111093769Y-84808831D02*
X111093769Y-84008831D01*
X110789007Y-84008831D01*
X110712817Y-84046927D01*
X110674721Y-84085022D01*
X110636626Y-84161212D01*
X110636626Y-84275498D01*
X110674721Y-84351688D01*
X110712817Y-84389784D01*
X110789007Y-84427879D01*
X111093769Y-84427879D01*
X109950912Y-84275498D02*
X109950912Y-84808831D01*
X110141388Y-83970736D02*
X110331864Y-84542165D01*
X109836626Y-84542165D01*
X109112817Y-84808831D02*
X109569960Y-84808831D01*
X109341388Y-84808831D02*
X109341388Y-84008831D01*
X109417579Y-84123117D01*
X109493769Y-84199307D01*
X109569960Y-84237403D01*
D12*
%TO.C,J4*%
X187974721Y-116963593D02*
X188689007Y-116963593D01*
X188831864Y-116915974D01*
X188927102Y-116820736D01*
X188974721Y-116677879D01*
X188974721Y-116582641D01*
X188308055Y-117868355D02*
X188974721Y-117868355D01*
X187927102Y-117630260D02*
X188641388Y-117392165D01*
X188641388Y-118011212D01*
D10*
%TO.C,R27*%
X165665198Y-110249307D02*
X165998531Y-109773117D01*
X166236626Y-110249307D02*
X166236626Y-109249307D01*
X165855674Y-109249307D01*
X165760436Y-109296927D01*
X165712817Y-109344546D01*
X165665198Y-109439784D01*
X165665198Y-109582641D01*
X165712817Y-109677879D01*
X165760436Y-109725498D01*
X165855674Y-109773117D01*
X166236626Y-109773117D01*
X165284245Y-109344546D02*
X165236626Y-109296927D01*
X165141388Y-109249307D01*
X164903293Y-109249307D01*
X164808055Y-109296927D01*
X164760436Y-109344546D01*
X164712817Y-109439784D01*
X164712817Y-109535022D01*
X164760436Y-109677879D01*
X165331864Y-110249307D01*
X164712817Y-110249307D01*
X164379483Y-109249307D02*
X163712817Y-109249307D01*
X164141388Y-110249307D01*
%TO.C,L2*%
X149390721Y-99084260D02*
X149390721Y-98608069D01*
X148390721Y-98608069D01*
X148485960Y-99369974D02*
X148438341Y-99417593D01*
X148390721Y-99512831D01*
X148390721Y-99750927D01*
X148438341Y-99846165D01*
X148485960Y-99893784D01*
X148581198Y-99941403D01*
X148676436Y-99941403D01*
X148819293Y-99893784D01*
X149390721Y-99322355D01*
X149390721Y-99941403D01*
%TO.C,R43*%
X156424721Y-112304069D02*
X155948531Y-111970736D01*
X156424721Y-111732641D02*
X155424721Y-111732641D01*
X155424721Y-112113593D01*
X155472341Y-112208831D01*
X155519960Y-112256450D01*
X155615198Y-112304069D01*
X155758055Y-112304069D01*
X155853293Y-112256450D01*
X155900912Y-112208831D01*
X155948531Y-112113593D01*
X155948531Y-111732641D01*
X155758055Y-113161212D02*
X156424721Y-113161212D01*
X155377102Y-112923117D02*
X156091388Y-112685022D01*
X156091388Y-113304069D01*
X155424721Y-113589784D02*
X155424721Y-114208831D01*
X155805674Y-113875498D01*
X155805674Y-114018355D01*
X155853293Y-114113593D01*
X155900912Y-114161212D01*
X155996150Y-114208831D01*
X156234245Y-114208831D01*
X156329483Y-114161212D01*
X156377102Y-114113593D01*
X156424721Y-114018355D01*
X156424721Y-113732641D01*
X156377102Y-113637403D01*
X156329483Y-113589784D01*
D11*
%TO.C,C57*%
X132408055Y-110582641D02*
X132446150Y-110544546D01*
X132484245Y-110430260D01*
X132484245Y-110354069D01*
X132446150Y-110239784D01*
X132369960Y-110163593D01*
X132293769Y-110125498D01*
X132141388Y-110087403D01*
X132027102Y-110087403D01*
X131874721Y-110125498D01*
X131798531Y-110163593D01*
X131722341Y-110239784D01*
X131684245Y-110354069D01*
X131684245Y-110430260D01*
X131722341Y-110544546D01*
X131760436Y-110582641D01*
X131684245Y-111306450D02*
X131684245Y-110925498D01*
X132065198Y-110887403D01*
X132027102Y-110925498D01*
X131989007Y-111001688D01*
X131989007Y-111192165D01*
X132027102Y-111268355D01*
X132065198Y-111306450D01*
X132141388Y-111344546D01*
X132331864Y-111344546D01*
X132408055Y-111306450D01*
X132446150Y-111268355D01*
X132484245Y-111192165D01*
X132484245Y-111001688D01*
X132446150Y-110925498D01*
X132408055Y-110887403D01*
X131684245Y-111611212D02*
X131684245Y-112144546D01*
X132484245Y-111801688D01*
D10*
%TO.C,U7*%
X177766245Y-114565307D02*
X177766245Y-115374831D01*
X177718626Y-115470069D01*
X177671007Y-115517688D01*
X177575769Y-115565307D01*
X177385293Y-115565307D01*
X177290055Y-115517688D01*
X177242436Y-115470069D01*
X177194817Y-115374831D01*
X177194817Y-114565307D01*
X176813864Y-114565307D02*
X176147198Y-114565307D01*
X176575769Y-115565307D01*
%TO.C,R14*%
X111824721Y-91604069D02*
X111348531Y-91270736D01*
X111824721Y-91032641D02*
X110824721Y-91032641D01*
X110824721Y-91413593D01*
X110872341Y-91508831D01*
X110919960Y-91556450D01*
X111015198Y-91604069D01*
X111158055Y-91604069D01*
X111253293Y-91556450D01*
X111300912Y-91508831D01*
X111348531Y-91413593D01*
X111348531Y-91032641D01*
X111824721Y-92556450D02*
X111824721Y-91985022D01*
X111824721Y-92270736D02*
X110824721Y-92270736D01*
X110967579Y-92175498D01*
X111062817Y-92080260D01*
X111110436Y-91985022D01*
X111158055Y-93413593D02*
X111824721Y-93413593D01*
X110777102Y-93175498D02*
X111491388Y-92937403D01*
X111491388Y-93556450D01*
%TO.C,JP1*%
X181901674Y-104567307D02*
X181901674Y-105281593D01*
X181949293Y-105424450D01*
X182044531Y-105519688D01*
X182187388Y-105567307D01*
X182282626Y-105567307D01*
X181425483Y-105567307D02*
X181425483Y-104567307D01*
X181044531Y-104567307D01*
X180949293Y-104614927D01*
X180901674Y-104662546D01*
X180854055Y-104757784D01*
X180854055Y-104900641D01*
X180901674Y-104995879D01*
X180949293Y-105043498D01*
X181044531Y-105091117D01*
X181425483Y-105091117D01*
X179901674Y-105567307D02*
X180473102Y-105567307D01*
X180187388Y-105567307D02*
X180187388Y-104567307D01*
X180282626Y-104710165D01*
X180377864Y-104805403D01*
X180473102Y-104853022D01*
%TO.C,R40*%
X131924721Y-86604069D02*
X131448531Y-86270736D01*
X131924721Y-86032641D02*
X130924721Y-86032641D01*
X130924721Y-86413593D01*
X130972341Y-86508831D01*
X131019960Y-86556450D01*
X131115198Y-86604069D01*
X131258055Y-86604069D01*
X131353293Y-86556450D01*
X131400912Y-86508831D01*
X131448531Y-86413593D01*
X131448531Y-86032641D01*
X131258055Y-87461212D02*
X131924721Y-87461212D01*
X130877102Y-87223117D02*
X131591388Y-86985022D01*
X131591388Y-87604069D01*
X130924721Y-88175498D02*
X130924721Y-88270736D01*
X130972341Y-88365974D01*
X131019960Y-88413593D01*
X131115198Y-88461212D01*
X131305674Y-88508831D01*
X131543769Y-88508831D01*
X131734245Y-88461212D01*
X131829483Y-88413593D01*
X131877102Y-88365974D01*
X131924721Y-88270736D01*
X131924721Y-88175498D01*
X131877102Y-88080260D01*
X131829483Y-88032641D01*
X131734245Y-87985022D01*
X131543769Y-87937403D01*
X131305674Y-87937403D01*
X131115198Y-87985022D01*
X131019960Y-88032641D01*
X130972341Y-88080260D01*
X130924721Y-88175498D01*
%TO.C,R29*%
X164916721Y-114102069D02*
X164440531Y-113768736D01*
X164916721Y-113530641D02*
X163916721Y-113530641D01*
X163916721Y-113911593D01*
X163964341Y-114006831D01*
X164011960Y-114054450D01*
X164107198Y-114102069D01*
X164250055Y-114102069D01*
X164345293Y-114054450D01*
X164392912Y-114006831D01*
X164440531Y-113911593D01*
X164440531Y-113530641D01*
X164011960Y-114483022D02*
X163964341Y-114530641D01*
X163916721Y-114625879D01*
X163916721Y-114863974D01*
X163964341Y-114959212D01*
X164011960Y-115006831D01*
X164107198Y-115054450D01*
X164202436Y-115054450D01*
X164345293Y-115006831D01*
X164916721Y-114435403D01*
X164916721Y-115054450D01*
X164916721Y-115530641D02*
X164916721Y-115721117D01*
X164869102Y-115816355D01*
X164821483Y-115863974D01*
X164678626Y-115959212D01*
X164488150Y-116006831D01*
X164107198Y-116006831D01*
X164011960Y-115959212D01*
X163964341Y-115911593D01*
X163916721Y-115816355D01*
X163916721Y-115625879D01*
X163964341Y-115530641D01*
X164011960Y-115483022D01*
X164107198Y-115435403D01*
X164345293Y-115435403D01*
X164440531Y-115483022D01*
X164488150Y-115530641D01*
X164535769Y-115625879D01*
X164535769Y-115816355D01*
X164488150Y-115911593D01*
X164440531Y-115959212D01*
X164345293Y-116006831D01*
%TO.C,C56*%
X128079483Y-111604069D02*
X128127102Y-111556450D01*
X128174721Y-111413593D01*
X128174721Y-111318355D01*
X128127102Y-111175498D01*
X128031864Y-111080260D01*
X127936626Y-111032641D01*
X127746150Y-110985022D01*
X127603293Y-110985022D01*
X127412817Y-111032641D01*
X127317579Y-111080260D01*
X127222341Y-111175498D01*
X127174721Y-111318355D01*
X127174721Y-111413593D01*
X127222341Y-111556450D01*
X127269960Y-111604069D01*
X127174721Y-112508831D02*
X127174721Y-112032641D01*
X127650912Y-111985022D01*
X127603293Y-112032641D01*
X127555674Y-112127879D01*
X127555674Y-112365974D01*
X127603293Y-112461212D01*
X127650912Y-112508831D01*
X127746150Y-112556450D01*
X127984245Y-112556450D01*
X128079483Y-112508831D01*
X128127102Y-112461212D01*
X128174721Y-112365974D01*
X128174721Y-112127879D01*
X128127102Y-112032641D01*
X128079483Y-111985022D01*
X127174721Y-113413593D02*
X127174721Y-113223117D01*
X127222341Y-113127879D01*
X127269960Y-113080260D01*
X127412817Y-112985022D01*
X127603293Y-112937403D01*
X127984245Y-112937403D01*
X128079483Y-112985022D01*
X128127102Y-113032641D01*
X128174721Y-113127879D01*
X128174721Y-113318355D01*
X128127102Y-113413593D01*
X128079483Y-113461212D01*
X127984245Y-113508831D01*
X127746150Y-113508831D01*
X127650912Y-113461212D01*
X127603293Y-113413593D01*
X127555674Y-113318355D01*
X127555674Y-113127879D01*
X127603293Y-113032641D01*
X127650912Y-112985022D01*
X127746150Y-112937403D01*
%TO.C,D11*%
X181236721Y-106164641D02*
X180236721Y-106164641D01*
X180236721Y-106402736D01*
X180284341Y-106545593D01*
X180379579Y-106640831D01*
X180474817Y-106688450D01*
X180665293Y-106736069D01*
X180808150Y-106736069D01*
X180998626Y-106688450D01*
X181093864Y-106640831D01*
X181189102Y-106545593D01*
X181236721Y-106402736D01*
X181236721Y-106164641D01*
X181236721Y-107688450D02*
X181236721Y-107117022D01*
X181236721Y-107402736D02*
X180236721Y-107402736D01*
X180379579Y-107307498D01*
X180474817Y-107212260D01*
X180522436Y-107117022D01*
X181236721Y-108640831D02*
X181236721Y-108069403D01*
X181236721Y-108355117D02*
X180236721Y-108355117D01*
X180379579Y-108259879D01*
X180474817Y-108164641D01*
X180522436Y-108069403D01*
%TO.C,C49*%
X163931198Y-99702069D02*
X163978817Y-99749688D01*
X164121674Y-99797307D01*
X164216912Y-99797307D01*
X164359769Y-99749688D01*
X164455007Y-99654450D01*
X164502626Y-99559212D01*
X164550245Y-99368736D01*
X164550245Y-99225879D01*
X164502626Y-99035403D01*
X164455007Y-98940165D01*
X164359769Y-98844927D01*
X164216912Y-98797307D01*
X164121674Y-98797307D01*
X163978817Y-98844927D01*
X163931198Y-98892546D01*
X163074055Y-99130641D02*
X163074055Y-99797307D01*
X163312150Y-98749688D02*
X163550245Y-99463974D01*
X162931198Y-99463974D01*
X162502626Y-99797307D02*
X162312150Y-99797307D01*
X162216912Y-99749688D01*
X162169293Y-99702069D01*
X162074055Y-99559212D01*
X162026436Y-99368736D01*
X162026436Y-98987784D01*
X162074055Y-98892546D01*
X162121674Y-98844927D01*
X162216912Y-98797307D01*
X162407388Y-98797307D01*
X162502626Y-98844927D01*
X162550245Y-98892546D01*
X162597864Y-98987784D01*
X162597864Y-99225879D01*
X162550245Y-99321117D01*
X162502626Y-99368736D01*
X162407388Y-99416355D01*
X162216912Y-99416355D01*
X162121674Y-99368736D01*
X162074055Y-99321117D01*
X162026436Y-99225879D01*
%TO.C,C60*%
X162723483Y-94544069D02*
X162771102Y-94496450D01*
X162818721Y-94353593D01*
X162818721Y-94258355D01*
X162771102Y-94115498D01*
X162675864Y-94020260D01*
X162580626Y-93972641D01*
X162390150Y-93925022D01*
X162247293Y-93925022D01*
X162056817Y-93972641D01*
X161961579Y-94020260D01*
X161866341Y-94115498D01*
X161818721Y-94258355D01*
X161818721Y-94353593D01*
X161866341Y-94496450D01*
X161913960Y-94544069D01*
X161818721Y-95401212D02*
X161818721Y-95210736D01*
X161866341Y-95115498D01*
X161913960Y-95067879D01*
X162056817Y-94972641D01*
X162247293Y-94925022D01*
X162628245Y-94925022D01*
X162723483Y-94972641D01*
X162771102Y-95020260D01*
X162818721Y-95115498D01*
X162818721Y-95305974D01*
X162771102Y-95401212D01*
X162723483Y-95448831D01*
X162628245Y-95496450D01*
X162390150Y-95496450D01*
X162294912Y-95448831D01*
X162247293Y-95401212D01*
X162199674Y-95305974D01*
X162199674Y-95115498D01*
X162247293Y-95020260D01*
X162294912Y-94972641D01*
X162390150Y-94925022D01*
X161818721Y-96115498D02*
X161818721Y-96210736D01*
X161866341Y-96305974D01*
X161913960Y-96353593D01*
X162009198Y-96401212D01*
X162199674Y-96448831D01*
X162437769Y-96448831D01*
X162628245Y-96401212D01*
X162723483Y-96353593D01*
X162771102Y-96305974D01*
X162818721Y-96210736D01*
X162818721Y-96115498D01*
X162771102Y-96020260D01*
X162723483Y-95972641D01*
X162628245Y-95925022D01*
X162437769Y-95877403D01*
X162199674Y-95877403D01*
X162009198Y-95925022D01*
X161913960Y-95972641D01*
X161866341Y-96020260D01*
X161818721Y-96115498D01*
D11*
%TO.C,C38*%
X178558055Y-96682641D02*
X178596150Y-96644546D01*
X178634245Y-96530260D01*
X178634245Y-96454069D01*
X178596150Y-96339784D01*
X178519960Y-96263593D01*
X178443769Y-96225498D01*
X178291388Y-96187403D01*
X178177102Y-96187403D01*
X178024721Y-96225498D01*
X177948531Y-96263593D01*
X177872341Y-96339784D01*
X177834245Y-96454069D01*
X177834245Y-96530260D01*
X177872341Y-96644546D01*
X177910436Y-96682641D01*
X177834245Y-96949307D02*
X177834245Y-97444546D01*
X178139007Y-97177879D01*
X178139007Y-97292165D01*
X178177102Y-97368355D01*
X178215198Y-97406450D01*
X178291388Y-97444546D01*
X178481864Y-97444546D01*
X178558055Y-97406450D01*
X178596150Y-97368355D01*
X178634245Y-97292165D01*
X178634245Y-97063593D01*
X178596150Y-96987403D01*
X178558055Y-96949307D01*
X178177102Y-97901688D02*
X178139007Y-97825498D01*
X178100912Y-97787403D01*
X178024721Y-97749307D01*
X177986626Y-97749307D01*
X177910436Y-97787403D01*
X177872341Y-97825498D01*
X177834245Y-97901688D01*
X177834245Y-98054069D01*
X177872341Y-98130260D01*
X177910436Y-98168355D01*
X177986626Y-98206450D01*
X178024721Y-98206450D01*
X178100912Y-98168355D01*
X178139007Y-98130260D01*
X178177102Y-98054069D01*
X178177102Y-97901688D01*
X178215198Y-97825498D01*
X178253293Y-97787403D01*
X178329483Y-97749307D01*
X178481864Y-97749307D01*
X178558055Y-97787403D01*
X178596150Y-97825498D01*
X178634245Y-97901688D01*
X178634245Y-98054069D01*
X178596150Y-98130260D01*
X178558055Y-98168355D01*
X178481864Y-98206450D01*
X178329483Y-98206450D01*
X178253293Y-98168355D01*
X178215198Y-98130260D01*
X178177102Y-98054069D01*
D10*
%TO.C,Q3*%
X156525579Y-122844546D02*
X156620817Y-122796927D01*
X156716055Y-122701688D01*
X156858912Y-122558831D01*
X156954150Y-122511212D01*
X157049388Y-122511212D01*
X157001769Y-122749307D02*
X157097007Y-122701688D01*
X157192245Y-122606450D01*
X157239864Y-122415974D01*
X157239864Y-122082641D01*
X157192245Y-121892165D01*
X157097007Y-121796927D01*
X157001769Y-121749307D01*
X156811293Y-121749307D01*
X156716055Y-121796927D01*
X156620817Y-121892165D01*
X156573198Y-122082641D01*
X156573198Y-122415974D01*
X156620817Y-122606450D01*
X156716055Y-122701688D01*
X156811293Y-122749307D01*
X157001769Y-122749307D01*
X156239864Y-121749307D02*
X155620817Y-121749307D01*
X155954150Y-122130260D01*
X155811293Y-122130260D01*
X155716055Y-122177879D01*
X155668436Y-122225498D01*
X155620817Y-122320736D01*
X155620817Y-122558831D01*
X155668436Y-122654069D01*
X155716055Y-122701688D01*
X155811293Y-122749307D01*
X156097007Y-122749307D01*
X156192245Y-122701688D01*
X156239864Y-122654069D01*
D11*
%TO.C,U9*%
X172031864Y-103958831D02*
X172031864Y-104606450D01*
X171993769Y-104682641D01*
X171955674Y-104720736D01*
X171879483Y-104758831D01*
X171727102Y-104758831D01*
X171650912Y-104720736D01*
X171612817Y-104682641D01*
X171574721Y-104606450D01*
X171574721Y-103958831D01*
X171155674Y-104758831D02*
X171003293Y-104758831D01*
X170927102Y-104720736D01*
X170889007Y-104682641D01*
X170812817Y-104568355D01*
X170774721Y-104415974D01*
X170774721Y-104111212D01*
X170812817Y-104035022D01*
X170850912Y-103996927D01*
X170927102Y-103958831D01*
X171079483Y-103958831D01*
X171155674Y-103996927D01*
X171193769Y-104035022D01*
X171231864Y-104111212D01*
X171231864Y-104301688D01*
X171193769Y-104377879D01*
X171155674Y-104415974D01*
X171079483Y-104454069D01*
X170927102Y-104454069D01*
X170850912Y-104415974D01*
X170812817Y-104377879D01*
X170774721Y-104301688D01*
%TO.C,C46*%
X172158055Y-98782641D02*
X172196150Y-98744546D01*
X172234245Y-98630260D01*
X172234245Y-98554069D01*
X172196150Y-98439784D01*
X172119960Y-98363593D01*
X172043769Y-98325498D01*
X171891388Y-98287403D01*
X171777102Y-98287403D01*
X171624721Y-98325498D01*
X171548531Y-98363593D01*
X171472341Y-98439784D01*
X171434245Y-98554069D01*
X171434245Y-98630260D01*
X171472341Y-98744546D01*
X171510436Y-98782641D01*
X171700912Y-99468355D02*
X172234245Y-99468355D01*
X171396150Y-99277879D02*
X171967579Y-99087403D01*
X171967579Y-99582641D01*
X171434245Y-100230260D02*
X171434245Y-100077879D01*
X171472341Y-100001688D01*
X171510436Y-99963593D01*
X171624721Y-99887403D01*
X171777102Y-99849307D01*
X172081864Y-99849307D01*
X172158055Y-99887403D01*
X172196150Y-99925498D01*
X172234245Y-100001688D01*
X172234245Y-100154069D01*
X172196150Y-100230260D01*
X172158055Y-100268355D01*
X172081864Y-100306450D01*
X171891388Y-100306450D01*
X171815198Y-100268355D01*
X171777102Y-100230260D01*
X171739007Y-100154069D01*
X171739007Y-100001688D01*
X171777102Y-99925498D01*
X171815198Y-99887403D01*
X171891388Y-99849307D01*
D10*
%TO.C,C53*%
X112837883Y-85413069D02*
X112885502Y-85365450D01*
X112933121Y-85222593D01*
X112933121Y-85127355D01*
X112885502Y-84984498D01*
X112790264Y-84889260D01*
X112695026Y-84841641D01*
X112504550Y-84794022D01*
X112361693Y-84794022D01*
X112171217Y-84841641D01*
X112075979Y-84889260D01*
X111980741Y-84984498D01*
X111933121Y-85127355D01*
X111933121Y-85222593D01*
X111980741Y-85365450D01*
X112028360Y-85413069D01*
X111933121Y-86317831D02*
X111933121Y-85841641D01*
X112409312Y-85794022D01*
X112361693Y-85841641D01*
X112314074Y-85936879D01*
X112314074Y-86174974D01*
X112361693Y-86270212D01*
X112409312Y-86317831D01*
X112504550Y-86365450D01*
X112742645Y-86365450D01*
X112837883Y-86317831D01*
X112885502Y-86270212D01*
X112933121Y-86174974D01*
X112933121Y-85936879D01*
X112885502Y-85841641D01*
X112837883Y-85794022D01*
X111933121Y-86698784D02*
X111933121Y-87317831D01*
X112314074Y-86984498D01*
X112314074Y-87127355D01*
X112361693Y-87222593D01*
X112409312Y-87270212D01*
X112504550Y-87317831D01*
X112742645Y-87317831D01*
X112837883Y-87270212D01*
X112885502Y-87222593D01*
X112933121Y-87127355D01*
X112933121Y-86841641D01*
X112885502Y-86746403D01*
X112837883Y-86698784D01*
%TO.C,C41*%
X175829483Y-101154069D02*
X175877102Y-101106450D01*
X175924721Y-100963593D01*
X175924721Y-100868355D01*
X175877102Y-100725498D01*
X175781864Y-100630260D01*
X175686626Y-100582641D01*
X175496150Y-100535022D01*
X175353293Y-100535022D01*
X175162817Y-100582641D01*
X175067579Y-100630260D01*
X174972341Y-100725498D01*
X174924721Y-100868355D01*
X174924721Y-100963593D01*
X174972341Y-101106450D01*
X175019960Y-101154069D01*
X175258055Y-102011212D02*
X175924721Y-102011212D01*
X174877102Y-101773117D02*
X175591388Y-101535022D01*
X175591388Y-102154069D01*
X175924721Y-103058831D02*
X175924721Y-102487403D01*
X175924721Y-102773117D02*
X174924721Y-102773117D01*
X175067579Y-102677879D01*
X175162817Y-102582641D01*
X175210436Y-102487403D01*
%TO.C,R45*%
X151485198Y-78969307D02*
X151818531Y-78493117D01*
X152056626Y-78969307D02*
X152056626Y-77969307D01*
X151675674Y-77969307D01*
X151580436Y-78016927D01*
X151532817Y-78064546D01*
X151485198Y-78159784D01*
X151485198Y-78302641D01*
X151532817Y-78397879D01*
X151580436Y-78445498D01*
X151675674Y-78493117D01*
X152056626Y-78493117D01*
X150628055Y-78302641D02*
X150628055Y-78969307D01*
X150866150Y-77921688D02*
X151104245Y-78635974D01*
X150485198Y-78635974D01*
X149628055Y-77969307D02*
X150104245Y-77969307D01*
X150151864Y-78445498D01*
X150104245Y-78397879D01*
X150009007Y-78350260D01*
X149770912Y-78350260D01*
X149675674Y-78397879D01*
X149628055Y-78445498D01*
X149580436Y-78540736D01*
X149580436Y-78778831D01*
X149628055Y-78874069D01*
X149675674Y-78921688D01*
X149770912Y-78969307D01*
X150009007Y-78969307D01*
X150104245Y-78921688D01*
X150151864Y-78874069D01*
%TO.C,R36*%
X146374721Y-112454069D02*
X145898531Y-112120736D01*
X146374721Y-111882641D02*
X145374721Y-111882641D01*
X145374721Y-112263593D01*
X145422341Y-112358831D01*
X145469960Y-112406450D01*
X145565198Y-112454069D01*
X145708055Y-112454069D01*
X145803293Y-112406450D01*
X145850912Y-112358831D01*
X145898531Y-112263593D01*
X145898531Y-111882641D01*
X145374721Y-112787403D02*
X145374721Y-113406450D01*
X145755674Y-113073117D01*
X145755674Y-113215974D01*
X145803293Y-113311212D01*
X145850912Y-113358831D01*
X145946150Y-113406450D01*
X146184245Y-113406450D01*
X146279483Y-113358831D01*
X146327102Y-113311212D01*
X146374721Y-113215974D01*
X146374721Y-112930260D01*
X146327102Y-112835022D01*
X146279483Y-112787403D01*
X145374721Y-114263593D02*
X145374721Y-114073117D01*
X145422341Y-113977879D01*
X145469960Y-113930260D01*
X145612817Y-113835022D01*
X145803293Y-113787403D01*
X146184245Y-113787403D01*
X146279483Y-113835022D01*
X146327102Y-113882641D01*
X146374721Y-113977879D01*
X146374721Y-114168355D01*
X146327102Y-114263593D01*
X146279483Y-114311212D01*
X146184245Y-114358831D01*
X145946150Y-114358831D01*
X145850912Y-114311212D01*
X145803293Y-114263593D01*
X145755674Y-114168355D01*
X145755674Y-113977879D01*
X145803293Y-113882641D01*
X145850912Y-113835022D01*
X145946150Y-113787403D01*
D11*
%TO.C,D1*%
X173234245Y-93506450D02*
X172434245Y-93506450D01*
X172434245Y-93696927D01*
X172472341Y-93811212D01*
X172548531Y-93887403D01*
X172624721Y-93925498D01*
X172777102Y-93963593D01*
X172891388Y-93963593D01*
X173043769Y-93925498D01*
X173119960Y-93887403D01*
X173196150Y-93811212D01*
X173234245Y-93696927D01*
X173234245Y-93506450D01*
X173234245Y-94725498D02*
X173234245Y-94268355D01*
X173234245Y-94496927D02*
X172434245Y-94496927D01*
X172548531Y-94420736D01*
X172624721Y-94344546D01*
X172662817Y-94268355D01*
D10*
%TO.C,R26*%
X167665198Y-111999307D02*
X167998531Y-111523117D01*
X168236626Y-111999307D02*
X168236626Y-110999307D01*
X167855674Y-110999307D01*
X167760436Y-111046927D01*
X167712817Y-111094546D01*
X167665198Y-111189784D01*
X167665198Y-111332641D01*
X167712817Y-111427879D01*
X167760436Y-111475498D01*
X167855674Y-111523117D01*
X168236626Y-111523117D01*
X167284245Y-111094546D02*
X167236626Y-111046927D01*
X167141388Y-110999307D01*
X166903293Y-110999307D01*
X166808055Y-111046927D01*
X166760436Y-111094546D01*
X166712817Y-111189784D01*
X166712817Y-111285022D01*
X166760436Y-111427879D01*
X167331864Y-111999307D01*
X166712817Y-111999307D01*
X165855674Y-110999307D02*
X166046150Y-110999307D01*
X166141388Y-111046927D01*
X166189007Y-111094546D01*
X166284245Y-111237403D01*
X166331864Y-111427879D01*
X166331864Y-111808831D01*
X166284245Y-111904069D01*
X166236626Y-111951688D01*
X166141388Y-111999307D01*
X165950912Y-111999307D01*
X165855674Y-111951688D01*
X165808055Y-111904069D01*
X165760436Y-111808831D01*
X165760436Y-111570736D01*
X165808055Y-111475498D01*
X165855674Y-111427879D01*
X165950912Y-111380260D01*
X166141388Y-111380260D01*
X166236626Y-111427879D01*
X166284245Y-111475498D01*
X166331864Y-111570736D01*
D11*
%TO.C,U12*%
X171112817Y-99508831D02*
X171112817Y-100156450D01*
X171074721Y-100232641D01*
X171036626Y-100270736D01*
X170960436Y-100308831D01*
X170808055Y-100308831D01*
X170731864Y-100270736D01*
X170693769Y-100232641D01*
X170655674Y-100156450D01*
X170655674Y-99508831D01*
X169855674Y-100308831D02*
X170312817Y-100308831D01*
X170084245Y-100308831D02*
X170084245Y-99508831D01*
X170160436Y-99623117D01*
X170236626Y-99699307D01*
X170312817Y-99737403D01*
X169550912Y-99585022D02*
X169512817Y-99546927D01*
X169436626Y-99508831D01*
X169246150Y-99508831D01*
X169169960Y-99546927D01*
X169131864Y-99585022D01*
X169093769Y-99661212D01*
X169093769Y-99737403D01*
X169131864Y-99851688D01*
X169589007Y-100308831D01*
X169093769Y-100308831D01*
D10*
%TO.C,C45*%
X168079483Y-106354069D02*
X168127102Y-106306450D01*
X168174721Y-106163593D01*
X168174721Y-106068355D01*
X168127102Y-105925498D01*
X168031864Y-105830260D01*
X167936626Y-105782641D01*
X167746150Y-105735022D01*
X167603293Y-105735022D01*
X167412817Y-105782641D01*
X167317579Y-105830260D01*
X167222341Y-105925498D01*
X167174721Y-106068355D01*
X167174721Y-106163593D01*
X167222341Y-106306450D01*
X167269960Y-106354069D01*
X167508055Y-107211212D02*
X168174721Y-107211212D01*
X167127102Y-106973117D02*
X167841388Y-106735022D01*
X167841388Y-107354069D01*
X167174721Y-108211212D02*
X167174721Y-107735022D01*
X167650912Y-107687403D01*
X167603293Y-107735022D01*
X167555674Y-107830260D01*
X167555674Y-108068355D01*
X167603293Y-108163593D01*
X167650912Y-108211212D01*
X167746150Y-108258831D01*
X167984245Y-108258831D01*
X168079483Y-108211212D01*
X168127102Y-108163593D01*
X168174721Y-108068355D01*
X168174721Y-107830260D01*
X168127102Y-107735022D01*
X168079483Y-107687403D01*
%TO.C,Q4*%
X151617579Y-122844546D02*
X151712817Y-122796927D01*
X151808055Y-122701688D01*
X151950912Y-122558831D01*
X152046150Y-122511212D01*
X152141388Y-122511212D01*
X152093769Y-122749307D02*
X152189007Y-122701688D01*
X152284245Y-122606450D01*
X152331864Y-122415974D01*
X152331864Y-122082641D01*
X152284245Y-121892165D01*
X152189007Y-121796927D01*
X152093769Y-121749307D01*
X151903293Y-121749307D01*
X151808055Y-121796927D01*
X151712817Y-121892165D01*
X151665198Y-122082641D01*
X151665198Y-122415974D01*
X151712817Y-122606450D01*
X151808055Y-122701688D01*
X151903293Y-122749307D01*
X152093769Y-122749307D01*
X150808055Y-122082641D02*
X150808055Y-122749307D01*
X151046150Y-121701688D02*
X151284245Y-122415974D01*
X150665198Y-122415974D01*
%TO.C,R32*%
X178515198Y-102449307D02*
X178848531Y-101973117D01*
X179086626Y-102449307D02*
X179086626Y-101449307D01*
X178705674Y-101449307D01*
X178610436Y-101496927D01*
X178562817Y-101544546D01*
X178515198Y-101639784D01*
X178515198Y-101782641D01*
X178562817Y-101877879D01*
X178610436Y-101925498D01*
X178705674Y-101973117D01*
X179086626Y-101973117D01*
X178181864Y-101449307D02*
X177562817Y-101449307D01*
X177896150Y-101830260D01*
X177753293Y-101830260D01*
X177658055Y-101877879D01*
X177610436Y-101925498D01*
X177562817Y-102020736D01*
X177562817Y-102258831D01*
X177610436Y-102354069D01*
X177658055Y-102401688D01*
X177753293Y-102449307D01*
X178039007Y-102449307D01*
X178134245Y-102401688D01*
X178181864Y-102354069D01*
X177181864Y-101544546D02*
X177134245Y-101496927D01*
X177039007Y-101449307D01*
X176800912Y-101449307D01*
X176705674Y-101496927D01*
X176658055Y-101544546D01*
X176610436Y-101639784D01*
X176610436Y-101735022D01*
X176658055Y-101877879D01*
X177229483Y-102449307D01*
X176610436Y-102449307D01*
D11*
%TO.C,D5*%
X181262817Y-97658831D02*
X181262817Y-96858831D01*
X181072341Y-96858831D01*
X180958055Y-96896927D01*
X180881864Y-96973117D01*
X180843769Y-97049307D01*
X180805674Y-97201688D01*
X180805674Y-97315974D01*
X180843769Y-97468355D01*
X180881864Y-97544546D01*
X180958055Y-97620736D01*
X181072341Y-97658831D01*
X181262817Y-97658831D01*
X180081864Y-96858831D02*
X180462817Y-96858831D01*
X180500912Y-97239784D01*
X180462817Y-97201688D01*
X180386626Y-97163593D01*
X180196150Y-97163593D01*
X180119960Y-97201688D01*
X180081864Y-97239784D01*
X180043769Y-97315974D01*
X180043769Y-97506450D01*
X180081864Y-97582641D01*
X180119960Y-97620736D01*
X180196150Y-97658831D01*
X180386626Y-97658831D01*
X180462817Y-97620736D01*
X180500912Y-97582641D01*
%TO.C,C51*%
X163808055Y-103082641D02*
X163846150Y-103044546D01*
X163884245Y-102930260D01*
X163884245Y-102854069D01*
X163846150Y-102739784D01*
X163769960Y-102663593D01*
X163693769Y-102625498D01*
X163541388Y-102587403D01*
X163427102Y-102587403D01*
X163274721Y-102625498D01*
X163198531Y-102663593D01*
X163122341Y-102739784D01*
X163084245Y-102854069D01*
X163084245Y-102930260D01*
X163122341Y-103044546D01*
X163160436Y-103082641D01*
X163084245Y-103806450D02*
X163084245Y-103425498D01*
X163465198Y-103387403D01*
X163427102Y-103425498D01*
X163389007Y-103501688D01*
X163389007Y-103692165D01*
X163427102Y-103768355D01*
X163465198Y-103806450D01*
X163541388Y-103844546D01*
X163731864Y-103844546D01*
X163808055Y-103806450D01*
X163846150Y-103768355D01*
X163884245Y-103692165D01*
X163884245Y-103501688D01*
X163846150Y-103425498D01*
X163808055Y-103387403D01*
X163884245Y-104606450D02*
X163884245Y-104149307D01*
X163884245Y-104377879D02*
X163084245Y-104377879D01*
X163198531Y-104301688D01*
X163274721Y-104225498D01*
X163312817Y-104149307D01*
D10*
%TO.C,U6*%
X161134245Y-101399307D02*
X161134245Y-102208831D01*
X161086626Y-102304069D01*
X161039007Y-102351688D01*
X160943769Y-102399307D01*
X160753293Y-102399307D01*
X160658055Y-102351688D01*
X160610436Y-102304069D01*
X160562817Y-102208831D01*
X160562817Y-101399307D01*
X159658055Y-101399307D02*
X159848531Y-101399307D01*
X159943769Y-101446927D01*
X159991388Y-101494546D01*
X160086626Y-101637403D01*
X160134245Y-101827879D01*
X160134245Y-102208831D01*
X160086626Y-102304069D01*
X160039007Y-102351688D01*
X159943769Y-102399307D01*
X159753293Y-102399307D01*
X159658055Y-102351688D01*
X159610436Y-102304069D01*
X159562817Y-102208831D01*
X159562817Y-101970736D01*
X159610436Y-101875498D01*
X159658055Y-101827879D01*
X159753293Y-101780260D01*
X159943769Y-101780260D01*
X160039007Y-101827879D01*
X160086626Y-101875498D01*
X160134245Y-101970736D01*
%TO.C,C36*%
X155065198Y-100854069D02*
X155112817Y-100901688D01*
X155255674Y-100949307D01*
X155350912Y-100949307D01*
X155493769Y-100901688D01*
X155589007Y-100806450D01*
X155636626Y-100711212D01*
X155684245Y-100520736D01*
X155684245Y-100377879D01*
X155636626Y-100187403D01*
X155589007Y-100092165D01*
X155493769Y-99996927D01*
X155350912Y-99949307D01*
X155255674Y-99949307D01*
X155112817Y-99996927D01*
X155065198Y-100044546D01*
X154731864Y-99949307D02*
X154112817Y-99949307D01*
X154446150Y-100330260D01*
X154303293Y-100330260D01*
X154208055Y-100377879D01*
X154160436Y-100425498D01*
X154112817Y-100520736D01*
X154112817Y-100758831D01*
X154160436Y-100854069D01*
X154208055Y-100901688D01*
X154303293Y-100949307D01*
X154589007Y-100949307D01*
X154684245Y-100901688D01*
X154731864Y-100854069D01*
X153255674Y-99949307D02*
X153446150Y-99949307D01*
X153541388Y-99996927D01*
X153589007Y-100044546D01*
X153684245Y-100187403D01*
X153731864Y-100377879D01*
X153731864Y-100758831D01*
X153684245Y-100854069D01*
X153636626Y-100901688D01*
X153541388Y-100949307D01*
X153350912Y-100949307D01*
X153255674Y-100901688D01*
X153208055Y-100854069D01*
X153160436Y-100758831D01*
X153160436Y-100520736D01*
X153208055Y-100425498D01*
X153255674Y-100377879D01*
X153350912Y-100330260D01*
X153541388Y-100330260D01*
X153636626Y-100377879D01*
X153684245Y-100425498D01*
X153731864Y-100520736D01*
%TO.C,R38*%
X163834721Y-77780069D02*
X163358531Y-77446736D01*
X163834721Y-77208641D02*
X162834721Y-77208641D01*
X162834721Y-77589593D01*
X162882341Y-77684831D01*
X162929960Y-77732450D01*
X163025198Y-77780069D01*
X163168055Y-77780069D01*
X163263293Y-77732450D01*
X163310912Y-77684831D01*
X163358531Y-77589593D01*
X163358531Y-77208641D01*
X162834721Y-78113403D02*
X162834721Y-78732450D01*
X163215674Y-78399117D01*
X163215674Y-78541974D01*
X163263293Y-78637212D01*
X163310912Y-78684831D01*
X163406150Y-78732450D01*
X163644245Y-78732450D01*
X163739483Y-78684831D01*
X163787102Y-78637212D01*
X163834721Y-78541974D01*
X163834721Y-78256260D01*
X163787102Y-78161022D01*
X163739483Y-78113403D01*
X163263293Y-79303879D02*
X163215674Y-79208641D01*
X163168055Y-79161022D01*
X163072817Y-79113403D01*
X163025198Y-79113403D01*
X162929960Y-79161022D01*
X162882341Y-79208641D01*
X162834721Y-79303879D01*
X162834721Y-79494355D01*
X162882341Y-79589593D01*
X162929960Y-79637212D01*
X163025198Y-79684831D01*
X163072817Y-79684831D01*
X163168055Y-79637212D01*
X163215674Y-79589593D01*
X163263293Y-79494355D01*
X163263293Y-79303879D01*
X163310912Y-79208641D01*
X163358531Y-79161022D01*
X163453769Y-79113403D01*
X163644245Y-79113403D01*
X163739483Y-79161022D01*
X163787102Y-79208641D01*
X163834721Y-79303879D01*
X163834721Y-79494355D01*
X163787102Y-79589593D01*
X163739483Y-79637212D01*
X163644245Y-79684831D01*
X163453769Y-79684831D01*
X163358531Y-79637212D01*
X163310912Y-79589593D01*
X163263293Y-79494355D01*
%TO.C,R35*%
X148824721Y-111504069D02*
X148348531Y-111170736D01*
X148824721Y-110932641D02*
X147824721Y-110932641D01*
X147824721Y-111313593D01*
X147872341Y-111408831D01*
X147919960Y-111456450D01*
X148015198Y-111504069D01*
X148158055Y-111504069D01*
X148253293Y-111456450D01*
X148300912Y-111408831D01*
X148348531Y-111313593D01*
X148348531Y-110932641D01*
X147824721Y-111837403D02*
X147824721Y-112456450D01*
X148205674Y-112123117D01*
X148205674Y-112265974D01*
X148253293Y-112361212D01*
X148300912Y-112408831D01*
X148396150Y-112456450D01*
X148634245Y-112456450D01*
X148729483Y-112408831D01*
X148777102Y-112361212D01*
X148824721Y-112265974D01*
X148824721Y-111980260D01*
X148777102Y-111885022D01*
X148729483Y-111837403D01*
X147824721Y-113361212D02*
X147824721Y-112885022D01*
X148300912Y-112837403D01*
X148253293Y-112885022D01*
X148205674Y-112980260D01*
X148205674Y-113218355D01*
X148253293Y-113313593D01*
X148300912Y-113361212D01*
X148396150Y-113408831D01*
X148634245Y-113408831D01*
X148729483Y-113361212D01*
X148777102Y-113313593D01*
X148824721Y-113218355D01*
X148824721Y-112980260D01*
X148777102Y-112885022D01*
X148729483Y-112837403D01*
D13*
%TO.C,C20*%
X107406341Y-107289147D02*
X107406341Y-107570307D01*
X108426341Y-107289147D02*
X108426341Y-107570307D01*
%TO.C,C1*%
X116056161Y-105548127D02*
X116337321Y-105548127D01*
X116056161Y-106568127D02*
X116337321Y-106568127D01*
%TO.C,C3*%
X103502341Y-94635007D02*
X103502341Y-94353847D01*
X104522341Y-94635007D02*
X104522341Y-94353847D01*
%TO.C,C4*%
X116056161Y-104688527D02*
X116337321Y-104688527D01*
X116056161Y-103668527D02*
X116337321Y-103668527D01*
%TO.C,C5*%
X105861093Y-101261927D02*
X105338589Y-101261927D01*
X105861093Y-99791927D02*
X105338589Y-99791927D01*
%TO.C,C6*%
X112943541Y-100939147D02*
X112943541Y-101220307D01*
X113963541Y-100939147D02*
X113963541Y-101220307D01*
%TO.C,C7*%
X129850121Y-104074927D02*
X129568961Y-104074927D01*
X129850121Y-105094927D02*
X129568961Y-105094927D01*
%TO.C,C8*%
X124363721Y-109510527D02*
X124082561Y-109510527D01*
X124363721Y-110530527D02*
X124082561Y-110530527D01*
%TO.C,C9*%
X119916961Y-109764527D02*
X120198121Y-109764527D01*
X119916961Y-110784527D02*
X120198121Y-110784527D01*
%TO.C,C10*%
X109232921Y-100016927D02*
X108951761Y-100016927D01*
X109232921Y-101036927D02*
X108951761Y-101036927D01*
%TO.C,C11*%
X115792341Y-100939147D02*
X115792341Y-101220307D01*
X114772341Y-100939147D02*
X114772341Y-101220307D01*
%TO.C,C12*%
X129850121Y-103113727D02*
X129568961Y-103113727D01*
X129850121Y-102093727D02*
X129568961Y-102093727D01*
%TO.C,C13*%
X124363721Y-107732527D02*
X124082561Y-107732527D01*
X124363721Y-108752527D02*
X124082561Y-108752527D01*
%TO.C,C14*%
X119916961Y-107986527D02*
X120198121Y-107986527D01*
X119916961Y-109006527D02*
X120198121Y-109006527D01*
%TO.C,C15*%
X115026341Y-96851507D02*
X115026341Y-96570347D01*
X116046341Y-96851507D02*
X116046341Y-96570347D01*
%TO.C,C16*%
X116804341Y-96570347D02*
X116804341Y-96851507D01*
X117824341Y-96570347D02*
X117824341Y-96851507D01*
%TO.C,C17*%
X121874521Y-95591327D02*
X121593361Y-95591327D01*
X121874521Y-96611327D02*
X121593361Y-96611327D01*
%TO.C,C18*%
X122036741Y-98998107D02*
X122036741Y-98716947D01*
X123056741Y-98998107D02*
X123056741Y-98716947D01*
%TO.C,C19*%
X129228541Y-93263779D02*
X129228541Y-92741275D01*
X130698541Y-93263779D02*
X130698541Y-92741275D01*
%TO.C,R3*%
X129847441Y-107090869D02*
X129847441Y-107565385D01*
X130892441Y-107090869D02*
X130892441Y-107565385D01*
%TO.C,R4*%
X124460399Y-112371827D02*
X123985883Y-112371827D01*
X124460399Y-111326827D02*
X123985883Y-111326827D01*
%TO.C,R5*%
X116433999Y-110339827D02*
X115959483Y-110339827D01*
X116433999Y-109294827D02*
X115959483Y-109294827D01*
%TO.C,R6*%
X105837099Y-103589427D02*
X105362583Y-103589427D01*
X105837099Y-102544427D02*
X105362583Y-102544427D01*
%TO.C,R7*%
X114694841Y-93304669D02*
X114694841Y-93779185D01*
X113649841Y-93304669D02*
X113649841Y-93779185D01*
%TO.C,R8*%
X116312841Y-93715685D02*
X116312841Y-93241169D01*
X115267841Y-93715685D02*
X115267841Y-93241169D01*
%TO.C,R9*%
X113235841Y-96948185D02*
X113235841Y-96473669D01*
X114280841Y-96948185D02*
X114280841Y-96473669D01*
%TO.C,R10*%
X118569841Y-96948185D02*
X118569841Y-96473669D01*
X119614841Y-96948185D02*
X119614841Y-96473669D01*
%TO.C,R11*%
X120246241Y-99093985D02*
X120246241Y-98619469D01*
X121291241Y-99093985D02*
X121291241Y-98619469D01*
%TO.C,R12*%
X122633841Y-104534185D02*
X122633841Y-104059669D01*
X123678841Y-104534185D02*
X123678841Y-104059669D01*
%TO.C,R13*%
X127445399Y-93445227D02*
X126970883Y-93445227D01*
X127445399Y-94490227D02*
X126970883Y-94490227D01*
%TO.C,U1*%
X109092341Y-94156927D02*
X111042341Y-94156927D01*
X109092341Y-94156927D02*
X107142341Y-94156927D01*
X109092341Y-99276927D02*
X105642341Y-99276927D01*
X109092341Y-99276927D02*
X111042341Y-99276927D01*
%TO.C,U4*%
X124391141Y-105180127D02*
X124391141Y-102730127D01*
X127611141Y-103380127D02*
X127611141Y-105180127D01*
%TO.C,U5*%
X121667541Y-103430927D02*
X121667541Y-105230927D01*
X118447541Y-105230927D02*
X118447541Y-102780927D01*
%TO.C,R2*%
X116537841Y-100944069D02*
X116537841Y-101418585D01*
X117582841Y-100944069D02*
X117582841Y-101418585D01*
%TO.C,U2*%
X127525141Y-95522527D02*
X129475141Y-95522527D01*
X127525141Y-100642527D02*
X129475141Y-100642527D01*
X127525141Y-95522527D02*
X125575141Y-95522527D01*
X127525141Y-100642527D02*
X124075141Y-100642527D01*
%TO.C,R1*%
X128352441Y-108886185D02*
X128352441Y-108411669D01*
X127307441Y-108886185D02*
X127307441Y-108411669D01*
%TO.C,C2*%
X122294741Y-89763147D02*
X122294741Y-90044307D01*
X121274741Y-89763147D02*
X121274741Y-90044307D01*
%TO.C,U3*%
X112524341Y-105600927D02*
X112524341Y-107275927D01*
X109404341Y-105600927D02*
X109404341Y-104950927D01*
X109404341Y-105600927D02*
X109404341Y-106250927D01*
X112524341Y-105600927D02*
X112524341Y-104950927D01*
%TO.C,C21*%
X126460341Y-89763147D02*
X126460341Y-90044307D01*
X125440341Y-89763147D02*
X125440341Y-90044307D01*
%TO.C,F2*%
X177078263Y-93714927D02*
X177595419Y-93714927D01*
X177078263Y-95134927D02*
X177595419Y-95134927D01*
%TO.C,L3*%
X182540341Y-89606179D02*
X182540341Y-89083675D01*
X181120341Y-89606179D02*
X181120341Y-89083675D01*
%TO.C,C50*%
X176244341Y-84392507D02*
X176244341Y-84111347D01*
X175224341Y-84392507D02*
X175224341Y-84111347D01*
%TO.C,C42*%
X174212341Y-84392507D02*
X174212341Y-84111347D01*
X173192341Y-84392507D02*
X173192341Y-84111347D01*
%TO.C,C44*%
X162528341Y-90247507D02*
X162528341Y-89966347D01*
X161508341Y-90247507D02*
X161508341Y-89966347D01*
%TO.C,C40*%
X164814341Y-90247507D02*
X164814341Y-89966347D01*
X163794341Y-90247507D02*
X163794341Y-89966347D01*
%TO.C,C31*%
X162528341Y-86691507D02*
X162528341Y-86410347D01*
X161508341Y-86691507D02*
X161508341Y-86410347D01*
%TO.C,C27*%
X171021761Y-88330927D02*
X171302921Y-88330927D01*
X171021761Y-87310927D02*
X171302921Y-87310927D01*
%TO.C,U8*%
X180088341Y-87058927D02*
X180088341Y-86258927D01*
X176968341Y-87058927D02*
X176968341Y-87858927D01*
X176968341Y-87058927D02*
X176968341Y-86258927D01*
X180088341Y-87058927D02*
X180088341Y-88858927D01*
D10*
%TO.C,U10*%
X158561341Y-94105927D02*
X158561341Y-93430927D01*
X158561341Y-94105927D02*
X157886341Y-94105927D01*
X148211341Y-94105927D02*
X148886341Y-94105927D01*
X148211341Y-94105927D02*
X148211341Y-93530927D01*
X148211341Y-93530927D02*
X146936341Y-93530927D01*
X158561341Y-83755927D02*
X158561341Y-84430927D01*
X148211341Y-83755927D02*
X148886341Y-83755927D01*
X158561341Y-83755927D02*
X157886341Y-83755927D01*
X148211341Y-83755927D02*
X148211341Y-84430927D01*
D13*
%TO.C,R20*%
X152857599Y-108409427D02*
X152383083Y-108409427D01*
X152857599Y-107364427D02*
X152383083Y-107364427D01*
%TO.C,R23*%
X143715841Y-94408185D02*
X143715841Y-93933669D01*
X144760841Y-94408185D02*
X144760841Y-93933669D01*
%TO.C,C26*%
X171021761Y-90616927D02*
X171302921Y-90616927D01*
X171021761Y-89596927D02*
X171302921Y-89596927D01*
%TO.C,C28*%
X171021761Y-85278927D02*
X171302921Y-85278927D01*
X171021761Y-86298927D02*
X171302921Y-86298927D01*
%TO.C,C30*%
X139160341Y-92025507D02*
X139160341Y-91744347D01*
X138140341Y-92025507D02*
X138140341Y-91744347D01*
%TO.C,C33*%
X138140341Y-88442347D02*
X138140341Y-88723507D01*
X139160341Y-88442347D02*
X139160341Y-88723507D01*
%TO.C,C34*%
X144236341Y-90501507D02*
X144236341Y-90220347D01*
X145256341Y-90501507D02*
X145256341Y-90220347D01*
%TO.C,C35*%
X153634341Y-97586347D02*
X153634341Y-97867507D01*
X154654341Y-97586347D02*
X154654341Y-97867507D01*
%TO.C,C39*%
X152872341Y-79071507D02*
X152872341Y-78790347D01*
X153892341Y-79071507D02*
X153892341Y-78790347D01*
%TO.C,C43*%
X145875761Y-97470927D02*
X146156921Y-97470927D01*
X145875761Y-98490927D02*
X146156921Y-98490927D01*
%TO.C,C47*%
X171021761Y-92902927D02*
X171302921Y-92902927D01*
X171021761Y-91882927D02*
X171302921Y-91882927D01*
%TO.C,L1*%
X166811405Y-85317927D02*
X165607277Y-85317927D01*
X166811405Y-88037927D02*
X165607277Y-88037927D01*
%TO.C,R21*%
X152857599Y-106631427D02*
X152383083Y-106631427D01*
X152857599Y-105586427D02*
X152383083Y-105586427D01*
D10*
%TO.C,U11*%
X168723341Y-92545927D02*
X168448341Y-92545927D01*
X165473341Y-95795927D02*
X165748341Y-95795927D01*
X168723341Y-95795927D02*
X168723341Y-92545927D01*
X168723341Y-95795927D02*
X168548341Y-95795927D01*
X165473341Y-92545927D02*
X165748341Y-92545927D01*
X165473341Y-95795927D02*
X165473341Y-92545927D01*
X168548341Y-95795927D02*
X168548341Y-96870927D01*
D13*
%TO.C,C23*%
X124326741Y-89763147D02*
X124326741Y-90044307D01*
X123306741Y-89763147D02*
X123306741Y-90044307D01*
%TO.C,C24*%
X120110341Y-89763147D02*
X120110341Y-90044307D01*
X119090341Y-89763147D02*
X119090341Y-90044307D01*
%TO.C,C32*%
X179362921Y-91106927D02*
X179081761Y-91106927D01*
X179362921Y-90086927D02*
X179081761Y-90086927D01*
%TO.C,C54*%
X177117761Y-91628927D02*
X177398921Y-91628927D01*
X177117761Y-92648927D02*
X177398921Y-92648927D01*
%TO.C,R15*%
X126983083Y-87632227D02*
X127457599Y-87632227D01*
X126983083Y-86587227D02*
X127457599Y-86587227D01*
%TO.C,R19*%
X123427083Y-86587227D02*
X123901599Y-86587227D01*
X123427083Y-87632227D02*
X123901599Y-87632227D01*
%TO.C,R22*%
X119769483Y-87632227D02*
X120243999Y-87632227D01*
X119769483Y-86587227D02*
X120243999Y-86587227D01*
%TO.C,M8*%
X122244341Y-115146927D02*
X123844341Y-115146927D01*
X133194341Y-87796927D02*
X133194341Y-86196927D01*
X100894341Y-93796927D02*
X100894341Y-92196927D01*
X110244341Y-115146927D02*
X111844341Y-115146927D01*
X116244341Y-82846927D02*
X117844341Y-82846927D01*
X100894341Y-87796927D02*
X100894341Y-86196927D01*
X133194341Y-111796927D02*
X133194341Y-110196927D01*
X133194341Y-99796927D02*
X133194341Y-98196927D01*
X100894341Y-105796927D02*
X100894341Y-104196927D01*
X122244341Y-82846927D02*
X123844341Y-82846927D01*
X128244341Y-115146927D02*
X129844341Y-115146927D01*
X104244341Y-115146927D02*
X105844341Y-115146927D01*
X116244341Y-115146927D02*
X117844341Y-115146927D01*
X133194341Y-105796927D02*
X133194341Y-104196927D01*
X128244341Y-82846927D02*
X129844341Y-82846927D01*
X104244341Y-82846927D02*
X105844341Y-82846927D01*
X100894341Y-111796927D02*
X100894341Y-110196927D01*
X100894341Y-99796927D02*
X100894341Y-98196927D01*
X133194341Y-93796927D02*
X133194341Y-92196927D01*
X110244341Y-82846927D02*
X111844341Y-82846927D01*
%TO.C,J3*%
X184946341Y-90717927D02*
X184946341Y-92517927D01*
X184946341Y-92517927D02*
X183956341Y-92517927D01*
X186396341Y-101687927D02*
X184946341Y-101687927D01*
X186396341Y-90717927D02*
X184946341Y-90717927D01*
X189216341Y-91987927D02*
X189216341Y-100417927D01*
X184946341Y-101687927D02*
X184946341Y-99887927D01*
%TO.C,Q2*%
X146524341Y-118264927D02*
X148199341Y-118264927D01*
X146524341Y-121384927D02*
X147174341Y-121384927D01*
X146524341Y-118264927D02*
X145874341Y-118264927D01*
X146524341Y-121384927D02*
X145874341Y-121384927D01*
%TO.C,C58*%
X113035321Y-109307327D02*
X112754161Y-109307327D01*
X113035321Y-110327327D02*
X112754161Y-110327327D01*
%TO.C,R39*%
X105461199Y-107190227D02*
X104986683Y-107190227D01*
X105461199Y-106145227D02*
X104986683Y-106145227D01*
%TO.C,R37*%
X158730841Y-115015669D02*
X158730841Y-115490185D01*
X157685841Y-115015669D02*
X157685841Y-115490185D01*
%TO.C,C59*%
X109743141Y-86867547D02*
X109743141Y-87148707D01*
X110763141Y-86867547D02*
X110763141Y-87148707D01*
%TO.C,J1*%
X184946341Y-75751927D02*
X184946341Y-77551927D01*
X189216341Y-77021927D02*
X189216341Y-87951927D01*
X184946341Y-89221927D02*
X184946341Y-87421927D01*
X186396341Y-89221927D02*
X184946341Y-89221927D01*
X184946341Y-77551927D02*
X183956341Y-77551927D01*
X186396341Y-75751927D02*
X184946341Y-75751927D01*
%TO.C,R42*%
X153904841Y-115015669D02*
X153904841Y-115490185D01*
X152859841Y-115015669D02*
X152859841Y-115490185D01*
%TO.C,R44*%
X150319841Y-116506185D02*
X150319841Y-116031669D01*
X151364841Y-116506185D02*
X151364841Y-116031669D01*
%TO.C,R28*%
X167591841Y-114982185D02*
X167591841Y-114507669D01*
X168636841Y-114982185D02*
X168636841Y-114507669D01*
%TO.C,C37*%
X116432341Y-87756347D02*
X116432341Y-88037507D01*
X115412341Y-87756347D02*
X115412341Y-88037507D01*
%TO.C,C55*%
X116056161Y-107427727D02*
X116337321Y-107427727D01*
X116056161Y-108447727D02*
X116337321Y-108447727D01*
%TO.C,J7*%
X189216341Y-104530927D02*
X189216341Y-109210927D01*
X186396341Y-110480927D02*
X184946341Y-110480927D01*
X186396341Y-103260927D02*
X184946341Y-103260927D01*
X184946341Y-110480927D02*
X184946341Y-108680927D01*
X184946341Y-105060927D02*
X183956341Y-105060927D01*
X184946341Y-103260927D02*
X184946341Y-105060927D01*
%TO.C,D6*%
X181514341Y-93316927D02*
X179664341Y-93316927D01*
X179664341Y-94516927D02*
X179664341Y-93316927D01*
X181514341Y-94516927D02*
X179664341Y-94516927D01*
%TO.C,C48*%
X178530341Y-105714347D02*
X178530341Y-105995507D01*
X177510341Y-105714347D02*
X177510341Y-105995507D01*
%TO.C,Q1*%
X109019141Y-86754127D02*
X109019141Y-86104127D01*
X109019141Y-86754127D02*
X109019141Y-87404127D01*
X105899141Y-86754127D02*
X105899141Y-85079127D01*
X105899141Y-86754127D02*
X105899141Y-87404127D01*
%TO.C,R41*%
X111449841Y-86134185D02*
X111449841Y-85659669D01*
X112494841Y-86134185D02*
X112494841Y-85659669D01*
D14*
%TO.C,J4*%
X184514341Y-122444427D02*
X185764341Y-122444427D01*
X189764341Y-112864427D02*
X189764341Y-122444427D01*
X184514341Y-112864427D02*
X185764341Y-112864427D01*
X189764341Y-122444427D02*
X188484341Y-122444427D01*
X188484341Y-112864427D02*
X189764341Y-112864427D01*
D13*
%TO.C,R27*%
X168351599Y-110187427D02*
X167877083Y-110187427D01*
X168351599Y-109142427D02*
X167877083Y-109142427D01*
%TO.C,R34*%
X180323083Y-101043427D02*
X180797599Y-101043427D01*
X180323083Y-99998427D02*
X180797599Y-99998427D01*
%TO.C,L2*%
X149878341Y-98989675D02*
X149878341Y-99512179D01*
X151298341Y-98989675D02*
X151298341Y-99512179D01*
%TO.C,R43*%
X155399841Y-116506185D02*
X155399841Y-116031669D01*
X156444841Y-116506185D02*
X156444841Y-116031669D01*
%TO.C,R30*%
X179019599Y-110695427D02*
X178545083Y-110695427D01*
X179019599Y-109650427D02*
X178545083Y-109650427D01*
%TO.C,C57*%
X130266341Y-112013547D02*
X130266341Y-112294707D01*
X131286341Y-112013547D02*
X131286341Y-112294707D01*
%TO.C,U7*%
X177004341Y-114272927D02*
X177804341Y-114272927D01*
X177004341Y-111152927D02*
X177804341Y-111152927D01*
X177004341Y-111152927D02*
X176204341Y-111152927D01*
X177004341Y-114272927D02*
X175204341Y-114272927D01*
%TO.C,R14*%
X112644841Y-89209669D02*
X112644841Y-89684185D01*
X111599841Y-89209669D02*
X111599841Y-89684185D01*
%TO.C,JP1*%
X182468341Y-103614927D02*
X182468341Y-103014927D01*
X180368341Y-104314927D02*
X181768341Y-104314927D01*
X179668341Y-103014927D02*
X179668341Y-103614927D01*
X181768341Y-102314927D02*
X180368341Y-102314927D01*
X179668341Y-103614927D02*
G75*
G03*
X180368341Y-104314927I699999J-1D01*
G01*
X181768341Y-104314927D02*
G75*
G03*
X182468341Y-103614927I0J700000D01*
G01*
X182468341Y-103014927D02*
G75*
G03*
X181768341Y-102314927I-700000J0D01*
G01*
X180368341Y-102314927D02*
G75*
G03*
X179668341Y-103014927I-1J-699999D01*
G01*
%TO.C,R40*%
X129441041Y-86923269D02*
X129441041Y-87397785D01*
X130486041Y-86923269D02*
X130486041Y-87397785D01*
%TO.C,R29*%
X162511841Y-114982185D02*
X162511841Y-114507669D01*
X163556841Y-114982185D02*
X163556841Y-114507669D01*
%TO.C,C56*%
X129457541Y-112013547D02*
X129457541Y-112294707D01*
X128437541Y-112013547D02*
X128437541Y-112294707D01*
%TO.C,D11*%
X181484341Y-106228927D02*
X182684341Y-106228927D01*
X181484341Y-108078927D02*
X181484341Y-106228927D01*
X182684341Y-108078927D02*
X182684341Y-106228927D01*
%TO.C,C49*%
X163428921Y-100264927D02*
X163147761Y-100264927D01*
X163428921Y-101284927D02*
X163147761Y-101284927D01*
%TO.C,R31*%
X179019599Y-107872427D02*
X178545083Y-107872427D01*
X179019599Y-108917427D02*
X178545083Y-108917427D01*
%TO.C,C60*%
X164306341Y-95046347D02*
X164306341Y-95327507D01*
X163286341Y-95046347D02*
X163286341Y-95327507D01*
%TO.C,C38*%
X176494341Y-97332347D02*
X176494341Y-97613507D01*
X177514341Y-97332347D02*
X177514341Y-97613507D01*
%TO.C,Q3*%
X156430341Y-121384927D02*
X155780341Y-121384927D01*
X156430341Y-121384927D02*
X157080341Y-121384927D01*
X156430341Y-118264927D02*
X155780341Y-118264927D01*
X156430341Y-118264927D02*
X158105341Y-118264927D01*
%TO.C,U9*%
X171338341Y-109234927D02*
X171338341Y-108509927D01*
X174833341Y-109234927D02*
X175558341Y-109234927D01*
X172063341Y-105014927D02*
X171338341Y-105014927D01*
X172063341Y-109234927D02*
X171338341Y-109234927D01*
X174833341Y-105014927D02*
X175558341Y-105014927D01*
X175558341Y-109234927D02*
X175558341Y-108509927D01*
X171338341Y-105014927D02*
X171338341Y-105739927D01*
%TO.C,R16*%
X116995041Y-89023385D02*
X116995041Y-88548869D01*
X118040041Y-89023385D02*
X118040041Y-88548869D01*
%TO.C,C46*%
X172180341Y-101650347D02*
X172180341Y-101931507D01*
X171160341Y-101650347D02*
X171160341Y-101931507D01*
%TO.C,C53*%
X114420741Y-85915347D02*
X114420741Y-86196507D01*
X113400741Y-85915347D02*
X113400741Y-86196507D01*
%TO.C,C41*%
X174466341Y-101650347D02*
X174466341Y-101931507D01*
X173446341Y-101650347D02*
X173446341Y-101931507D01*
%TO.C,R45*%
X151079599Y-79424427D02*
X150605083Y-79424427D01*
X151079599Y-80469427D02*
X150605083Y-80469427D01*
%TO.C,R36*%
X146284841Y-116506185D02*
X146284841Y-116031669D01*
X145239841Y-116506185D02*
X145239841Y-116031669D01*
%TO.C,D1*%
X174556341Y-94812927D02*
X173356341Y-94812927D01*
X173356341Y-92962927D02*
X173356341Y-94812927D01*
X174556341Y-92962927D02*
X174556341Y-94812927D01*
%TO.C,R26*%
X170129599Y-111174427D02*
X169655083Y-111174427D01*
X170129599Y-112219427D02*
X169655083Y-112219427D01*
%TO.C,U12*%
X168368341Y-103604927D02*
X167568341Y-103604927D01*
X168368341Y-100484927D02*
X170168341Y-100484927D01*
X168368341Y-100484927D02*
X167568341Y-100484927D01*
X168368341Y-103604927D02*
X169168341Y-103604927D01*
%TO.C,C45*%
X168620341Y-107252507D02*
X168620341Y-106971347D01*
X169640341Y-107252507D02*
X169640341Y-106971347D01*
%TO.C,Q4*%
X151604341Y-121384927D02*
X150954341Y-121384927D01*
X151604341Y-121384927D02*
X152254341Y-121384927D01*
X151604341Y-118264927D02*
X150954341Y-118264927D01*
X151604341Y-118264927D02*
X153279341Y-118264927D01*
%TO.C,R32*%
X177529083Y-103837427D02*
X178003599Y-103837427D01*
X177529083Y-102792427D02*
X178003599Y-102792427D01*
%TO.C,D5*%
X179664341Y-96548927D02*
X179664341Y-95348927D01*
X181514341Y-96548927D02*
X179664341Y-96548927D01*
X181514341Y-95348927D02*
X179664341Y-95348927D01*
%TO.C,C51*%
X165068341Y-103428347D02*
X165068341Y-103709507D01*
X164048341Y-103428347D02*
X164048341Y-103709507D01*
%TO.C,U6*%
X159224341Y-107906927D02*
X161174341Y-107906927D01*
X159224341Y-102786927D02*
X157274341Y-102786927D01*
X159224341Y-102786927D02*
X162674341Y-102786927D01*
X159224341Y-107906927D02*
X157274341Y-107906927D01*
%TO.C,C36*%
X157305761Y-101792927D02*
X157586921Y-101792927D01*
X157305761Y-100772927D02*
X157586921Y-100772927D01*
%TO.C,R38*%
X165334841Y-78185669D02*
X165334841Y-78660185D01*
X164289841Y-78185669D02*
X164289841Y-78660185D01*
%TO.C,R35*%
X147779841Y-115015669D02*
X147779841Y-115490185D01*
X148824841Y-115015669D02*
X148824841Y-115490185D01*
%TO.C,R33*%
X180323083Y-99265427D02*
X180797599Y-99265427D01*
X180323083Y-98220427D02*
X180797599Y-98220427D01*
%TD*%
M02*
