%TF.GenerationSoftware,KiCad,Pcbnew,6.0.4-6f826c9f35~116~ubuntu20.04.1*%
%TF.CreationDate,2022-06-14T09:48:26+00:00*%
%TF.ProjectId,USTSIPIN02A,55535453-4950-4494-9e30-32412e6b6963,02A*%
%TF.SameCoordinates,Original*%
%TF.FileFunction,Copper,L2,Inr*%
%TF.FilePolarity,Positive*%
%FSLAX46Y46*%
G04 Gerber Fmt 4.6, Leading zero omitted, Abs format (unit mm)*
G04 Created by KiCad (PCBNEW 6.0.4-6f826c9f35~116~ubuntu20.04.1) date 2022-06-14 09:48:26*
%MOMM*%
%LPD*%
G01*
G04 APERTURE LIST*
%TA.AperFunction,ComponentPad*%
%ADD10C,6.000000*%
%TD*%
%TA.AperFunction,ComponentPad*%
%ADD11C,1.524000*%
%TD*%
%TA.AperFunction,ComponentPad*%
%ADD12C,1.500000*%
%TD*%
%TA.AperFunction,ComponentPad*%
%ADD13R,1.524000X1.524000*%
%TD*%
%TA.AperFunction,ComponentPad*%
%ADD14O,2.000000X1.000000*%
%TD*%
%TA.AperFunction,ComponentPad*%
%ADD15O,2.100000X1.050000*%
%TD*%
%TA.AperFunction,ViaPad*%
%ADD16C,0.800000*%
%TD*%
%TA.AperFunction,Conductor*%
%ADD17C,0.400000*%
%TD*%
G04 APERTURE END LIST*
D10*
%TO.N,GND*%
%TO.C,M2*%
X174972341Y-78676927D03*
%TD*%
%TO.N,GND*%
%TO.C,M3*%
X103852341Y-78676927D03*
%TD*%
%TO.N,GND*%
%TO.C,M4*%
X103852341Y-119316927D03*
%TD*%
D11*
%TO.N,/K*%
%TO.C,D2*%
X114132341Y-90206927D03*
%TO.N,/A*%
X109132341Y-90206927D03*
%TD*%
D10*
%TO.N,GND*%
%TO.C,M1*%
X174972341Y-119316927D03*
%TD*%
D12*
%TO.N,Net-(C30-Pad1)*%
%TO.C,Y1*%
X140682341Y-92646927D03*
%TO.N,Net-(C33-Pad1)*%
X140682341Y-87766927D03*
%TD*%
D13*
%TO.N,/cpu/PC4*%
%TO.C,J6*%
X160494341Y-78676927D03*
%TD*%
%TO.N,/cpu/PC3*%
%TO.C,J5*%
X157954341Y-78676927D03*
%TD*%
D14*
%TO.N,GND*%
%TO.C,J4*%
X187164341Y-113334427D03*
X187164341Y-121974427D03*
D15*
X182984341Y-113334427D03*
X182984341Y-121974427D03*
%TD*%
D16*
%TO.N,GND*%
X113504341Y-112052527D03*
X118685941Y-100266927D03*
X118685941Y-98844527D03*
X108932341Y-109918927D03*
X103395141Y-108140927D03*
X103217341Y-105981927D03*
X101947341Y-104711927D03*
X101312341Y-103441927D03*
X101312341Y-102171927D03*
X101312341Y-100266927D03*
X101312341Y-98361927D03*
X101312341Y-96456927D03*
X117060341Y-94475727D03*
X118228741Y-94424927D03*
X119397141Y-94424927D03*
X102836341Y-86042927D03*
X129252341Y-119316927D03*
X125188341Y-92392927D03*
X116044341Y-90614927D03*
X157192341Y-92392927D03*
X111472341Y-78676927D03*
X161002341Y-82232927D03*
X109092341Y-96716927D03*
X178274341Y-115506927D03*
X187926341Y-102552927D03*
X187164341Y-108394927D03*
X147872341Y-98446927D03*
X162780341Y-92392927D03*
X117572341Y-86646927D03*
X147540341Y-82994927D03*
X113910741Y-98844527D03*
X170146341Y-77152927D03*
X123472341Y-102096927D03*
X160494341Y-75628927D03*
X126712341Y-116776927D03*
X155160341Y-101028927D03*
X116298341Y-85280927D03*
X171670341Y-99250927D03*
X111726341Y-108140927D03*
X131538341Y-90868927D03*
X119092341Y-78676927D03*
X121124341Y-85534927D03*
X131792341Y-76136927D03*
X134000000Y-106800000D03*
X150842341Y-88582927D03*
X131792341Y-78676927D03*
X168114341Y-122618927D03*
X141952341Y-114236927D03*
X185640341Y-102552927D03*
X160748341Y-122618927D03*
X122902341Y-85534927D03*
X139412341Y-114236927D03*
X135602341Y-90106927D03*
X184116341Y-109410927D03*
X169384341Y-93662927D03*
X169130341Y-82232927D03*
X151350341Y-122618927D03*
X162272341Y-82232927D03*
X123664341Y-92392927D03*
X185640341Y-110045927D03*
X147032341Y-110426927D03*
X124172341Y-76136927D03*
X104106341Y-91630927D03*
X144746341Y-104076927D03*
X110202341Y-110680927D03*
X102836341Y-89852927D03*
X135348341Y-100774927D03*
X129252341Y-78676927D03*
X121632341Y-78676927D03*
X145762341Y-101790927D03*
X109091798Y-94196362D03*
X149318341Y-76136927D03*
X182719341Y-105600927D03*
X178782341Y-95948927D03*
X164826341Y-116142927D03*
X111472341Y-76136927D03*
X111472341Y-116776927D03*
X106138341Y-105092927D03*
X134332341Y-78676927D03*
X120616341Y-94678927D03*
X129026341Y-116042927D03*
X141444341Y-84264927D03*
X185640341Y-74612927D03*
X176496341Y-90614927D03*
X164050341Y-97726927D03*
X127728341Y-85534927D03*
X155922341Y-110426927D03*
X139412341Y-84264927D03*
X134332341Y-119316927D03*
X131538341Y-107124927D03*
X131792341Y-119316927D03*
X129122341Y-106096927D03*
X107154341Y-111696927D03*
X187164341Y-116522927D03*
X121632341Y-119316927D03*
X133326341Y-104342927D03*
X188434341Y-98488927D03*
X187418341Y-92646927D03*
X168876341Y-75628927D03*
X126712341Y-92392927D03*
X144026341Y-109742927D03*
X102836341Y-87820927D03*
X171924341Y-94170927D03*
X158208341Y-100266927D03*
X137888341Y-95694927D03*
X122140341Y-92392927D03*
X186910341Y-74612927D03*
X151604341Y-75628927D03*
X163796341Y-105854927D03*
X135602341Y-92646927D03*
X171416341Y-103822927D03*
X158462341Y-75628927D03*
X102836341Y-91630927D03*
X119092341Y-116776927D03*
X127474341Y-89852927D03*
X111980341Y-91630927D03*
X121632341Y-116776927D03*
X159986341Y-108902927D03*
X122140341Y-108344127D03*
X121124341Y-91884927D03*
X103758341Y-97478927D03*
X157446341Y-122618927D03*
X135602341Y-85788927D03*
X187164341Y-118046927D03*
X150842341Y-112966927D03*
X113504341Y-104838927D03*
X108932341Y-78676927D03*
X187164341Y-119824927D03*
X113758341Y-103314927D03*
X108076341Y-102304927D03*
X103852341Y-111696927D03*
X135602341Y-91376927D03*
X137226341Y-109942927D03*
X168114341Y-102044927D03*
X109440341Y-92646927D03*
X155922341Y-109156927D03*
X126458341Y-85534927D03*
X179544341Y-92138927D03*
X104106341Y-87820927D03*
X107662341Y-105092927D03*
X105630341Y-91630927D03*
X179544341Y-106870927D03*
X111218341Y-92646927D03*
X127220341Y-95948927D03*
X147286341Y-96456927D03*
X109272341Y-88496927D03*
X131538341Y-94932927D03*
X170146341Y-79184927D03*
X171670341Y-96710927D03*
X135026341Y-115642927D03*
X162272341Y-96456927D03*
X124172341Y-78676927D03*
X131538341Y-103568927D03*
X135602341Y-93916927D03*
X182338341Y-92138927D03*
X126712341Y-78676927D03*
X179925341Y-79057927D03*
X180052341Y-97218927D03*
X187164341Y-115125927D03*
X162526341Y-75628927D03*
X143222341Y-99758927D03*
X162526341Y-110426927D03*
X153382341Y-75628927D03*
X112234341Y-102806927D03*
X124172341Y-116776927D03*
X131538341Y-92900927D03*
X116552341Y-76136927D03*
X120972341Y-107146927D03*
X109440341Y-102431927D03*
X188688341Y-89852927D03*
X114012341Y-116776927D03*
X142968341Y-81724927D03*
X110272341Y-91596927D03*
X156684341Y-75628927D03*
X148302341Y-122618927D03*
X184370341Y-74612927D03*
X114012341Y-78676927D03*
X136872341Y-119316927D03*
X142968341Y-101282927D03*
X141952341Y-119316927D03*
X169384341Y-94932927D03*
X181830341Y-76390927D03*
X118025541Y-108852127D03*
X110997341Y-102431927D03*
X106392341Y-89344927D03*
X126712341Y-119316927D03*
X164326341Y-79042927D03*
X119600341Y-85534927D03*
X140626341Y-109942927D03*
X170654341Y-116395927D03*
X135602341Y-95186927D03*
X114072341Y-88696927D03*
X111726341Y-111696927D03*
X116958741Y-98895327D03*
X104106341Y-86042927D03*
X137380341Y-84010927D03*
X124680341Y-85534927D03*
X155160341Y-75628927D03*
X106646341Y-91630927D03*
X118330341Y-91630927D03*
X171162341Y-114236927D03*
X129252341Y-76136927D03*
X117923941Y-107023327D03*
X148810341Y-96456927D03*
X129172341Y-107146927D03*
X123664341Y-94932927D03*
X111632341Y-100526927D03*
X187164341Y-89852927D03*
X179925341Y-121983927D03*
X105630341Y-111696927D03*
X164304341Y-92392927D03*
X169384341Y-96456927D03*
X108932341Y-76136927D03*
X142714341Y-104076927D03*
X185894341Y-89852927D03*
X130522341Y-90360927D03*
X162780341Y-97726927D03*
X107154341Y-90360927D03*
X179544341Y-104838927D03*
X151858341Y-111696927D03*
X154398341Y-122618927D03*
X181957341Y-79057927D03*
X158716341Y-95186927D03*
X117873141Y-105143727D03*
X189196341Y-74612927D03*
X131284341Y-84772927D03*
X188180341Y-74612927D03*
X115383941Y-98895327D03*
X126712341Y-76136927D03*
X102836341Y-84772927D03*
X112488341Y-93154927D03*
X149318341Y-109664927D03*
X167860341Y-105854927D03*
X121632341Y-76136927D03*
X171672341Y-82246927D03*
X143984341Y-84264927D03*
X164558341Y-75628927D03*
X131538341Y-101282927D03*
X123410341Y-93662927D03*
X103758341Y-98748927D03*
X176750341Y-109156927D03*
X119092341Y-76136927D03*
X155668341Y-90614927D03*
X135348341Y-98996927D03*
X166844341Y-75628927D03*
X109948341Y-108648927D03*
X134332341Y-80962927D03*
X172686341Y-114744927D03*
X124172341Y-119316927D03*
X124172341Y-104330927D03*
X105376341Y-89852927D03*
X109092341Y-95446927D03*
X135348341Y-102806927D03*
X136872341Y-114236927D03*
X139412341Y-119316927D03*
X158716341Y-97472927D03*
X114012341Y-76136927D03*
X122394341Y-102096927D03*
X149318341Y-77914927D03*
X188434341Y-108394927D03*
X144492341Y-111696927D03*
X104106341Y-84772927D03*
X180814341Y-92138927D03*
X137634341Y-98996927D03*
X116552341Y-78676927D03*
X106138341Y-93154927D03*
X109092341Y-98621927D03*
X122140341Y-110122127D03*
X134332341Y-76136927D03*
X162272341Y-95440927D03*
X102582341Y-93916927D03*
X122172341Y-106846927D03*
X175734341Y-99250927D03*
X167352341Y-111188927D03*
X116552341Y-116776927D03*
X180179341Y-76390927D03*
X189196341Y-102552927D03*
X117822341Y-85534927D03*
X175734341Y-100774927D03*
X104106341Y-89852927D03*
X157446341Y-97472927D03*
X162526341Y-112204927D03*
X115022341Y-85996927D03*
X113250341Y-108140927D03*
X127026341Y-110542927D03*
X164304341Y-122618927D03*
%TO.N,Net-(R13-Pad2)*%
X125137541Y-93967727D03*
X125137541Y-101181327D03*
%TO.N,/cpu/RST#_P*%
X141444341Y-100266927D03*
%TO.N,/cpu/PC0*%
X181830341Y-84271429D03*
X155210877Y-80196305D03*
X167352341Y-90106927D03*
X159732341Y-105981927D03*
%TO.N,/cpu/PC1*%
X158970341Y-107124927D03*
X156176341Y-80454927D03*
X166082341Y-87058927D03*
X180517758Y-87101510D03*
X165828341Y-90106927D03*
%TO.N,/cpu/PB5*%
X147032341Y-94678927D03*
%TO.N,/cpu/PB7*%
X146016341Y-95440927D03*
%TO.N,/cpu/PB6*%
X149572341Y-105854927D03*
X150080341Y-90614927D03*
%TO.N,+3V3*%
X169638341Y-80962927D03*
X167860341Y-107886927D03*
X147540341Y-107886927D03*
X176242341Y-105187427D03*
X170622341Y-109096927D03*
%TO.N,+5V*%
X151604341Y-86042938D03*
X173702341Y-91376927D03*
X127982341Y-88328927D03*
%TO.N,PA1*%
X155922341Y-92392927D03*
X126458341Y-113474927D03*
X126712341Y-97472927D03*
%TO.N,PA0*%
X129426341Y-109842927D03*
X155922341Y-96710927D03*
%TO.N,Vin*%
X169472341Y-103796927D03*
X167098341Y-105092927D03*
X170842341Y-101094927D03*
%TO.N,PB0*%
X123918341Y-106870927D03*
X152112341Y-98742927D03*
%TO.N,POWER_ANALOG_3V3*%
X149064341Y-79946927D03*
X176496341Y-86296927D03*
X163034341Y-78168927D03*
X131284341Y-87566927D03*
X180569341Y-90369927D03*
X129963541Y-89141727D03*
X164812341Y-83502927D03*
X127741341Y-111379127D03*
%TO.N,/cpu/SD_VDD*%
X147577841Y-100006197D03*
%TO.N,Net-(D3-Pad1)*%
X169426341Y-117642927D03*
%TO.N,Net-(D4-Pad1)*%
X164426341Y-117542927D03*
%TO.N,/cpu/TIMEPULSE*%
X187926341Y-81216927D03*
X163229841Y-89344927D03*
X150080341Y-86042927D03*
X168368341Y-89344927D03*
%TO.N,Net-(D7-Pad1)*%
X147226341Y-114742927D03*
%TO.N,/cpu/EXTINT*%
X187126841Y-82486927D03*
X150821632Y-81211358D03*
%TO.N,/cpu/GEO_STAT*%
X177222341Y-82746927D03*
X151786841Y-81470927D03*
%TO.N,/cpu/TX1*%
X149318341Y-81470927D03*
X182629841Y-85100862D03*
%TO.N,/cpu/RX1*%
X145254341Y-84518927D03*
X182629841Y-86100365D03*
%TO.N,Net-(D8-Pad1)*%
X157026341Y-114742927D03*
%TO.N,/power/D+*%
X180560341Y-117284927D03*
X179798341Y-111696927D03*
%TO.N,/power/RXLED{slash}CBUS1*%
X164126341Y-112542927D03*
X170222341Y-106396927D03*
%TO.N,/power/TXLED{slash}CBUS2*%
X168026341Y-112242927D03*
X174172841Y-110097916D03*
%TO.N,/cpu/PB4*%
X151826341Y-91242927D03*
%TO.N,Net-(D9-Pad1)*%
X152126341Y-114742927D03*
%TO.N,RST#*%
X145972341Y-99346927D03*
X175432976Y-103775562D03*
%TO.N,Net-(D10-Pad1)*%
X165826341Y-76142927D03*
%TO.N,/power/VBUS*%
X171924341Y-111696927D03*
X180855860Y-110893408D03*
X180814341Y-120078927D03*
X181576341Y-97218927D03*
%TO.N,RX0*%
X144492341Y-86531427D03*
X177587677Y-100596263D03*
%TO.N,TX0*%
X144746341Y-85534927D03*
X178607976Y-100600562D03*
X176750341Y-106870927D03*
%TO.N,/cpu/PC5_D1*%
X148810341Y-112712927D03*
X155172341Y-88296927D03*
%TO.N,/cpu/PC7_D3*%
X158208341Y-109664927D03*
X157213344Y-88328927D03*
%TO.N,/cpu/PC6_D2*%
X153382341Y-112966927D03*
X156213841Y-88328927D03*
%TO.N,Net-(BT1-Pad1)*%
X164825341Y-94411927D03*
%TD*%
D17*
%TO.N,Net-(R13-Pad2)*%
X125137541Y-101181327D02*
X125137541Y-93967727D01*
%TO.N,/cpu/PC1*%
X165873841Y-90061427D02*
X165873841Y-87267427D01*
X165873841Y-87267427D02*
X166082341Y-87058927D01*
X165828341Y-90106927D02*
X165873841Y-90061427D01*
%TO.N,/cpu/PB6*%
X149572341Y-105854927D02*
X150080341Y-105346927D01*
X150080341Y-105346927D02*
X150080341Y-90614927D01*
%TO.N,PA1*%
X126572341Y-97612927D02*
X126572341Y-109296927D01*
X126204341Y-113220927D02*
X126458341Y-113474927D01*
X126712341Y-97472927D02*
X126572341Y-97612927D01*
X126204341Y-109664927D02*
X126204341Y-113220927D01*
X126572341Y-109296927D02*
X126204341Y-109664927D01*
%TO.N,POWER_ANALOG_3V3*%
X180569341Y-90369927D02*
X176496341Y-86296927D01*
X127741341Y-111379127D02*
X128022341Y-111098127D01*
X128022341Y-111098127D02*
X128022341Y-91082927D01*
X128022341Y-91082927D02*
X129963541Y-89141727D01*
%TD*%
%TA.AperFunction,Conductor*%
%TO.N,GND*%
G36*
X189717032Y-74070334D02*
G01*
X189752996Y-74119834D01*
X189757841Y-74150427D01*
X189757841Y-123843427D01*
X189738934Y-123901618D01*
X189689434Y-123937582D01*
X189658841Y-123942427D01*
X99325841Y-123942427D01*
X99267650Y-123923520D01*
X99231686Y-123874020D01*
X99226841Y-123843427D01*
X99226841Y-120078927D01*
X180208659Y-120078927D01*
X180229297Y-120235689D01*
X180289805Y-120381768D01*
X180386059Y-120507209D01*
X180511500Y-120603463D01*
X180657579Y-120663971D01*
X180814341Y-120684609D01*
X180971103Y-120663971D01*
X181117182Y-120603463D01*
X181150713Y-120577734D01*
X182954947Y-120577734D01*
X182956281Y-120584349D01*
X182956281Y-120584351D01*
X182971834Y-120661487D01*
X182983405Y-120718871D01*
X183048770Y-120847157D01*
X183053333Y-120852120D01*
X183053335Y-120852122D01*
X183099237Y-120902040D01*
X183146225Y-120953139D01*
X183268591Y-121029009D01*
X183406853Y-121069178D01*
X183412023Y-121069558D01*
X183412025Y-121069558D01*
X183415252Y-121069795D01*
X183415259Y-121069795D01*
X183417053Y-121069927D01*
X183520411Y-121069927D01*
X183626987Y-121055328D01*
X183633173Y-121052651D01*
X183633177Y-121052650D01*
X183752936Y-121000825D01*
X183752937Y-121000824D01*
X183759124Y-120998147D01*
X183814705Y-120953139D01*
X183865774Y-120911784D01*
X183865775Y-120911783D01*
X183871016Y-120907539D01*
X183954420Y-120790178D01*
X183956704Y-120783833D01*
X183956706Y-120783830D01*
X183992732Y-120683762D01*
X184003191Y-120654712D01*
X184006772Y-120605946D01*
X184013241Y-120517854D01*
X184013241Y-120517850D01*
X184013735Y-120511120D01*
X184011908Y-120502056D01*
X183986610Y-120376594D01*
X183985277Y-120369983D01*
X183919912Y-120241697D01*
X183915349Y-120236734D01*
X183915347Y-120236732D01*
X183827025Y-120140683D01*
X183822457Y-120135715D01*
X183700091Y-120059845D01*
X183561829Y-120019676D01*
X183556659Y-120019296D01*
X183556657Y-120019296D01*
X183553430Y-120019059D01*
X183553423Y-120019059D01*
X183551629Y-120018927D01*
X183448271Y-120018927D01*
X183341695Y-120033526D01*
X183335509Y-120036203D01*
X183335505Y-120036204D01*
X183215746Y-120088029D01*
X183209558Y-120090707D01*
X183204319Y-120094949D01*
X183204318Y-120094950D01*
X183102908Y-120177070D01*
X183097666Y-120181315D01*
X183093758Y-120186814D01*
X183054763Y-120241686D01*
X183014262Y-120298676D01*
X183011978Y-120305021D01*
X183011976Y-120305024D01*
X182990753Y-120363975D01*
X182965491Y-120434142D01*
X182964997Y-120440874D01*
X182964996Y-120440877D01*
X182960126Y-120507209D01*
X182954947Y-120577734D01*
X181150713Y-120577734D01*
X181242623Y-120507209D01*
X181338877Y-120381768D01*
X181399385Y-120235689D01*
X181420023Y-120078927D01*
X181399385Y-119922165D01*
X181338877Y-119776086D01*
X181242623Y-119650645D01*
X181117182Y-119554391D01*
X180971103Y-119493883D01*
X180814341Y-119473245D01*
X180657579Y-119493883D01*
X180511500Y-119554391D01*
X180386059Y-119650645D01*
X180289805Y-119776086D01*
X180229297Y-119922165D01*
X180208659Y-120078927D01*
X99226841Y-120078927D01*
X99226841Y-117542927D01*
X163820659Y-117542927D01*
X163841297Y-117699689D01*
X163901805Y-117845768D01*
X163998059Y-117971209D01*
X164123500Y-118067463D01*
X164269579Y-118127971D01*
X164426341Y-118148609D01*
X164583103Y-118127971D01*
X164729182Y-118067463D01*
X164854623Y-117971209D01*
X164950877Y-117845768D01*
X165011385Y-117699689D01*
X165018858Y-117642927D01*
X168820659Y-117642927D01*
X168841297Y-117799689D01*
X168843781Y-117805686D01*
X168846374Y-117811946D01*
X168901805Y-117945768D01*
X168998059Y-118071209D01*
X169123500Y-118167463D01*
X169269579Y-118227971D01*
X169426341Y-118248609D01*
X169583103Y-118227971D01*
X169729182Y-118167463D01*
X169854623Y-118071209D01*
X169950877Y-117945768D01*
X170006308Y-117811946D01*
X170008901Y-117805686D01*
X170011385Y-117799689D01*
X170032023Y-117642927D01*
X170011385Y-117486165D01*
X169950877Y-117340086D01*
X169908552Y-117284927D01*
X179954659Y-117284927D01*
X179975297Y-117441689D01*
X180035805Y-117587768D01*
X180132059Y-117713209D01*
X180257500Y-117809463D01*
X180403579Y-117869971D01*
X180560341Y-117890609D01*
X180717103Y-117869971D01*
X180863182Y-117809463D01*
X180988623Y-117713209D01*
X181084877Y-117587768D01*
X181145385Y-117441689D01*
X181166023Y-117284927D01*
X181145385Y-117128165D01*
X181141337Y-117118391D01*
X181107725Y-117037245D01*
X181084877Y-116982086D01*
X180988623Y-116856645D01*
X180863182Y-116760391D01*
X180717103Y-116699883D01*
X180560341Y-116679245D01*
X180403579Y-116699883D01*
X180257500Y-116760391D01*
X180132059Y-116856645D01*
X180035805Y-116982086D01*
X180012957Y-117037245D01*
X179979346Y-117118391D01*
X179975297Y-117128165D01*
X179954659Y-117284927D01*
X169908552Y-117284927D01*
X169854623Y-117214645D01*
X169729182Y-117118391D01*
X169583103Y-117057883D01*
X169426341Y-117037245D01*
X169269579Y-117057883D01*
X169123500Y-117118391D01*
X168998059Y-117214645D01*
X168901805Y-117340086D01*
X168841297Y-117486165D01*
X168820659Y-117642927D01*
X165018858Y-117642927D01*
X165032023Y-117542927D01*
X165011385Y-117386165D01*
X164950877Y-117240086D01*
X164854623Y-117114645D01*
X164729182Y-117018391D01*
X164583103Y-116957883D01*
X164426341Y-116937245D01*
X164269579Y-116957883D01*
X164123500Y-117018391D01*
X163998059Y-117114645D01*
X163901805Y-117240086D01*
X163841297Y-117386165D01*
X163820659Y-117542927D01*
X99226841Y-117542927D01*
X99226841Y-114742927D01*
X146620659Y-114742927D01*
X146641297Y-114899689D01*
X146701805Y-115045768D01*
X146798059Y-115171209D01*
X146923500Y-115267463D01*
X147069579Y-115327971D01*
X147226341Y-115348609D01*
X147383103Y-115327971D01*
X147529182Y-115267463D01*
X147654623Y-115171209D01*
X147750877Y-115045768D01*
X147811385Y-114899689D01*
X147832023Y-114742927D01*
X151520659Y-114742927D01*
X151541297Y-114899689D01*
X151601805Y-115045768D01*
X151698059Y-115171209D01*
X151823500Y-115267463D01*
X151969579Y-115327971D01*
X152126341Y-115348609D01*
X152283103Y-115327971D01*
X152429182Y-115267463D01*
X152554623Y-115171209D01*
X152650877Y-115045768D01*
X152711385Y-114899689D01*
X152732023Y-114742927D01*
X156420659Y-114742927D01*
X156441297Y-114899689D01*
X156501805Y-115045768D01*
X156598059Y-115171209D01*
X156723500Y-115267463D01*
X156869579Y-115327971D01*
X157026341Y-115348609D01*
X157183103Y-115327971D01*
X157329182Y-115267463D01*
X157454623Y-115171209D01*
X157550877Y-115045768D01*
X157611385Y-114899689D01*
X157624808Y-114797734D01*
X182954947Y-114797734D01*
X182956281Y-114804349D01*
X182956281Y-114804351D01*
X182974207Y-114893253D01*
X182983405Y-114938871D01*
X183048770Y-115067157D01*
X183053333Y-115072120D01*
X183053335Y-115072122D01*
X183099237Y-115122040D01*
X183146225Y-115173139D01*
X183268591Y-115249009D01*
X183406853Y-115289178D01*
X183412023Y-115289558D01*
X183412025Y-115289558D01*
X183415252Y-115289795D01*
X183415259Y-115289795D01*
X183417053Y-115289927D01*
X183520411Y-115289927D01*
X183626987Y-115275328D01*
X183633173Y-115272651D01*
X183633177Y-115272650D01*
X183752936Y-115220825D01*
X183752937Y-115220824D01*
X183759124Y-115218147D01*
X183814705Y-115173139D01*
X183865774Y-115131784D01*
X183865775Y-115131783D01*
X183871016Y-115127539D01*
X183918198Y-115061147D01*
X183950513Y-115015676D01*
X183950514Y-115015675D01*
X183954420Y-115010178D01*
X183956704Y-115003833D01*
X183956706Y-115003830D01*
X183982472Y-114932260D01*
X184003191Y-114874712D01*
X184013735Y-114731120D01*
X183996933Y-114647788D01*
X183986610Y-114596594D01*
X183985277Y-114589983D01*
X183919912Y-114461697D01*
X183915349Y-114456734D01*
X183915347Y-114456732D01*
X183827025Y-114360683D01*
X183822457Y-114355715D01*
X183700091Y-114279845D01*
X183561829Y-114239676D01*
X183556659Y-114239296D01*
X183556657Y-114239296D01*
X183553430Y-114239059D01*
X183553423Y-114239059D01*
X183551629Y-114238927D01*
X183448271Y-114238927D01*
X183341695Y-114253526D01*
X183335509Y-114256203D01*
X183335505Y-114256204D01*
X183215746Y-114308029D01*
X183209558Y-114310707D01*
X183204319Y-114314949D01*
X183204318Y-114314950D01*
X183102908Y-114397070D01*
X183097666Y-114401315D01*
X183093758Y-114406814D01*
X183065853Y-114446081D01*
X183014262Y-114518676D01*
X183011978Y-114525021D01*
X183011976Y-114525024D01*
X182992123Y-114580168D01*
X182965491Y-114654142D01*
X182964997Y-114660874D01*
X182964996Y-114660877D01*
X182959444Y-114736493D01*
X182954947Y-114797734D01*
X157624808Y-114797734D01*
X157632023Y-114742927D01*
X157611385Y-114586165D01*
X157550877Y-114440086D01*
X157454623Y-114314645D01*
X157329182Y-114218391D01*
X157183103Y-114157883D01*
X157026341Y-114137245D01*
X156869579Y-114157883D01*
X156723500Y-114218391D01*
X156598059Y-114314645D01*
X156501805Y-114440086D01*
X156441297Y-114586165D01*
X156420659Y-114742927D01*
X152732023Y-114742927D01*
X152711385Y-114586165D01*
X152650877Y-114440086D01*
X152554623Y-114314645D01*
X152429182Y-114218391D01*
X152283103Y-114157883D01*
X152126341Y-114137245D01*
X151969579Y-114157883D01*
X151823500Y-114218391D01*
X151698059Y-114314645D01*
X151601805Y-114440086D01*
X151541297Y-114586165D01*
X151520659Y-114742927D01*
X147832023Y-114742927D01*
X147811385Y-114586165D01*
X147750877Y-114440086D01*
X147654623Y-114314645D01*
X147529182Y-114218391D01*
X147383103Y-114157883D01*
X147226341Y-114137245D01*
X147069579Y-114157883D01*
X146923500Y-114218391D01*
X146798059Y-114314645D01*
X146701805Y-114440086D01*
X146641297Y-114586165D01*
X146620659Y-114742927D01*
X99226841Y-114742927D01*
X99226841Y-113284360D01*
X125803841Y-113284360D01*
X125811296Y-113307302D01*
X125814922Y-113322408D01*
X125818695Y-113346231D01*
X125829646Y-113367724D01*
X125835589Y-113382070D01*
X125843045Y-113405017D01*
X125844759Y-113407377D01*
X125854267Y-113462707D01*
X125853506Y-113468489D01*
X125853506Y-113468493D01*
X125852659Y-113474927D01*
X125873297Y-113631689D01*
X125933805Y-113777768D01*
X126030059Y-113903209D01*
X126155500Y-113999463D01*
X126301579Y-114059971D01*
X126458341Y-114080609D01*
X126615103Y-114059971D01*
X126761182Y-113999463D01*
X126886623Y-113903209D01*
X126982877Y-113777768D01*
X127043385Y-113631689D01*
X127064023Y-113474927D01*
X127043385Y-113318165D01*
X126982877Y-113172086D01*
X126886623Y-113046645D01*
X126761182Y-112950391D01*
X126755191Y-112947909D01*
X126755185Y-112947906D01*
X126665956Y-112910947D01*
X126619430Y-112871211D01*
X126604841Y-112819483D01*
X126604841Y-112712927D01*
X148204659Y-112712927D01*
X148225297Y-112869689D01*
X148285805Y-113015768D01*
X148382059Y-113141209D01*
X148507500Y-113237463D01*
X148653579Y-113297971D01*
X148810341Y-113318609D01*
X148967103Y-113297971D01*
X149113182Y-113237463D01*
X149238623Y-113141209D01*
X149334877Y-113015768D01*
X149355108Y-112966927D01*
X152776659Y-112966927D01*
X152797297Y-113123689D01*
X152857805Y-113269768D01*
X152954059Y-113395209D01*
X153079500Y-113491463D01*
X153225579Y-113551971D01*
X153382341Y-113572609D01*
X153539103Y-113551971D01*
X153685182Y-113491463D01*
X153810623Y-113395209D01*
X153906877Y-113269768D01*
X153967385Y-113123689D01*
X153988023Y-112966927D01*
X153967385Y-112810165D01*
X153906877Y-112664086D01*
X153813909Y-112542927D01*
X163520659Y-112542927D01*
X163541297Y-112699689D01*
X163601805Y-112845768D01*
X163698059Y-112971209D01*
X163823500Y-113067463D01*
X163941295Y-113116256D01*
X163943704Y-113117253D01*
X163969579Y-113127971D01*
X164126341Y-113148609D01*
X164283103Y-113127971D01*
X164308979Y-113117253D01*
X164311387Y-113116256D01*
X164429182Y-113067463D01*
X164554623Y-112971209D01*
X164650877Y-112845768D01*
X164711385Y-112699689D01*
X164732023Y-112542927D01*
X164711385Y-112386165D01*
X164652054Y-112242927D01*
X167420659Y-112242927D01*
X167441297Y-112399689D01*
X167501805Y-112545768D01*
X167598059Y-112671209D01*
X167723500Y-112767463D01*
X167869579Y-112827971D01*
X168026341Y-112848609D01*
X168183103Y-112827971D01*
X168329182Y-112767463D01*
X168454623Y-112671209D01*
X168550877Y-112545768D01*
X168611385Y-112399689D01*
X168632023Y-112242927D01*
X168611385Y-112086165D01*
X168550877Y-111940086D01*
X168454623Y-111814645D01*
X168329182Y-111718391D01*
X168277363Y-111696927D01*
X171318659Y-111696927D01*
X171339297Y-111853689D01*
X171399805Y-111999768D01*
X171496059Y-112125209D01*
X171621500Y-112221463D01*
X171767579Y-112281971D01*
X171924341Y-112302609D01*
X172081103Y-112281971D01*
X172227182Y-112221463D01*
X172352623Y-112125209D01*
X172448877Y-111999768D01*
X172509385Y-111853689D01*
X172530023Y-111696927D01*
X179192659Y-111696927D01*
X179213297Y-111853689D01*
X179273805Y-111999768D01*
X179370059Y-112125209D01*
X179495500Y-112221463D01*
X179641579Y-112281971D01*
X179798341Y-112302609D01*
X179955103Y-112281971D01*
X180101182Y-112221463D01*
X180226623Y-112125209D01*
X180322877Y-111999768D01*
X180383385Y-111853689D01*
X180404023Y-111696927D01*
X180402732Y-111687117D01*
X180384232Y-111546601D01*
X180383385Y-111540165D01*
X180371526Y-111511535D01*
X180366725Y-111450538D01*
X180398694Y-111398369D01*
X180455222Y-111374954D01*
X180514717Y-111389238D01*
X180523257Y-111395107D01*
X180553019Y-111417944D01*
X180699098Y-111478452D01*
X180855860Y-111499090D01*
X181012622Y-111478452D01*
X181158701Y-111417944D01*
X181284142Y-111321690D01*
X181380396Y-111196249D01*
X181440904Y-111050170D01*
X181461542Y-110893408D01*
X181440904Y-110736646D01*
X181380396Y-110590567D01*
X181284142Y-110465126D01*
X181158701Y-110368872D01*
X181012622Y-110308364D01*
X180855860Y-110287726D01*
X180699098Y-110308364D01*
X180553019Y-110368872D01*
X180427578Y-110465126D01*
X180331324Y-110590567D01*
X180270816Y-110736646D01*
X180250178Y-110893408D01*
X180270816Y-111050170D01*
X180273300Y-111056167D01*
X180282675Y-111078800D01*
X180287476Y-111139797D01*
X180255507Y-111191966D01*
X180198979Y-111215381D01*
X180139484Y-111201097D01*
X180130944Y-111195228D01*
X180106331Y-111176342D01*
X180101182Y-111172391D01*
X179955103Y-111111883D01*
X179798341Y-111091245D01*
X179641579Y-111111883D01*
X179495500Y-111172391D01*
X179370059Y-111268645D01*
X179273805Y-111394086D01*
X179213297Y-111540165D01*
X179212450Y-111546601D01*
X179193951Y-111687117D01*
X179192659Y-111696927D01*
X172530023Y-111696927D01*
X172528732Y-111687117D01*
X172510232Y-111546601D01*
X172509385Y-111540165D01*
X172448877Y-111394086D01*
X172352623Y-111268645D01*
X172227182Y-111172391D01*
X172081103Y-111111883D01*
X171924341Y-111091245D01*
X171767579Y-111111883D01*
X171621500Y-111172391D01*
X171496059Y-111268645D01*
X171399805Y-111394086D01*
X171339297Y-111540165D01*
X171338450Y-111546601D01*
X171319951Y-111687117D01*
X171318659Y-111696927D01*
X168277363Y-111696927D01*
X168183103Y-111657883D01*
X168026341Y-111637245D01*
X167869579Y-111657883D01*
X167723500Y-111718391D01*
X167598059Y-111814645D01*
X167501805Y-111940086D01*
X167441297Y-112086165D01*
X167420659Y-112242927D01*
X164652054Y-112242927D01*
X164650877Y-112240086D01*
X164554623Y-112114645D01*
X164429182Y-112018391D01*
X164283103Y-111957883D01*
X164126341Y-111937245D01*
X163969579Y-111957883D01*
X163823500Y-112018391D01*
X163698059Y-112114645D01*
X163601805Y-112240086D01*
X163541297Y-112386165D01*
X163520659Y-112542927D01*
X153813909Y-112542927D01*
X153810623Y-112538645D01*
X153685182Y-112442391D01*
X153566553Y-112393253D01*
X153545100Y-112384367D01*
X153539103Y-112381883D01*
X153382341Y-112361245D01*
X153225579Y-112381883D01*
X153219582Y-112384367D01*
X153198129Y-112393253D01*
X153079500Y-112442391D01*
X152954059Y-112538645D01*
X152857805Y-112664086D01*
X152797297Y-112810165D01*
X152776659Y-112966927D01*
X149355108Y-112966927D01*
X149395385Y-112869689D01*
X149416023Y-112712927D01*
X149395385Y-112556165D01*
X149334877Y-112410086D01*
X149238623Y-112284645D01*
X149113182Y-112188391D01*
X148967103Y-112127883D01*
X148810341Y-112107245D01*
X148653579Y-112127883D01*
X148507500Y-112188391D01*
X148382059Y-112284645D01*
X148285805Y-112410086D01*
X148225297Y-112556165D01*
X148204659Y-112712927D01*
X126604841Y-112712927D01*
X126604841Y-111379127D01*
X127135659Y-111379127D01*
X127136506Y-111385561D01*
X127136990Y-111389238D01*
X127156297Y-111535889D01*
X127216805Y-111681968D01*
X127313059Y-111807409D01*
X127438500Y-111903663D01*
X127584579Y-111964171D01*
X127741341Y-111984809D01*
X127898103Y-111964171D01*
X128044182Y-111903663D01*
X128169623Y-111807409D01*
X128265877Y-111681968D01*
X128326385Y-111535889D01*
X128345692Y-111389238D01*
X128346176Y-111385561D01*
X128347023Y-111379127D01*
X128346176Y-111372693D01*
X128346176Y-111368509D01*
X128356963Y-111323570D01*
X128357921Y-111321690D01*
X128361341Y-111314977D01*
X128369458Y-111301732D01*
X128379056Y-111288522D01*
X128383637Y-111282217D01*
X128391093Y-111259270D01*
X128397036Y-111244924D01*
X128407987Y-111223431D01*
X128411477Y-111201398D01*
X128411760Y-111199608D01*
X128415386Y-111184502D01*
X128422841Y-111161560D01*
X128422841Y-109842927D01*
X128820659Y-109842927D01*
X128841297Y-109999689D01*
X128901805Y-110145768D01*
X128998059Y-110271209D01*
X129123500Y-110367463D01*
X129269579Y-110427971D01*
X129426341Y-110448609D01*
X129583103Y-110427971D01*
X129729182Y-110367463D01*
X129854623Y-110271209D01*
X129950877Y-110145768D01*
X130011385Y-109999689D01*
X130032023Y-109842927D01*
X130030017Y-109827686D01*
X130012232Y-109692601D01*
X130011385Y-109686165D01*
X130002588Y-109664927D01*
X157602659Y-109664927D01*
X157603506Y-109671361D01*
X157604903Y-109681971D01*
X157623297Y-109821689D01*
X157683805Y-109967768D01*
X157780059Y-110093209D01*
X157905500Y-110189463D01*
X158051579Y-110249971D01*
X158208341Y-110270609D01*
X158365103Y-110249971D01*
X158511182Y-110189463D01*
X158630489Y-110097916D01*
X173567159Y-110097916D01*
X173587797Y-110254678D01*
X173648305Y-110400757D01*
X173744559Y-110526198D01*
X173870000Y-110622452D01*
X174016079Y-110682960D01*
X174172841Y-110703598D01*
X174329603Y-110682960D01*
X174475682Y-110622452D01*
X174601123Y-110526198D01*
X174697377Y-110400757D01*
X174757885Y-110254678D01*
X174778523Y-110097916D01*
X174757885Y-109941154D01*
X174697377Y-109795075D01*
X174601123Y-109669634D01*
X174475682Y-109573380D01*
X174329603Y-109512872D01*
X174172841Y-109492234D01*
X174016079Y-109512872D01*
X173870000Y-109573380D01*
X173744559Y-109669634D01*
X173648305Y-109795075D01*
X173587797Y-109941154D01*
X173567159Y-110097916D01*
X158630489Y-110097916D01*
X158636623Y-110093209D01*
X158732877Y-109967768D01*
X158793385Y-109821689D01*
X158811779Y-109681971D01*
X158813176Y-109671361D01*
X158814023Y-109664927D01*
X158793385Y-109508165D01*
X158782140Y-109481016D01*
X158771371Y-109455018D01*
X158732877Y-109362086D01*
X158636623Y-109236645D01*
X158511182Y-109140391D01*
X158406251Y-109096927D01*
X170016659Y-109096927D01*
X170037297Y-109253689D01*
X170097805Y-109399768D01*
X170194059Y-109525209D01*
X170319500Y-109621463D01*
X170465579Y-109681971D01*
X170622341Y-109702609D01*
X170779103Y-109681971D01*
X170925182Y-109621463D01*
X171050623Y-109525209D01*
X171146877Y-109399768D01*
X171207385Y-109253689D01*
X171228023Y-109096927D01*
X171227115Y-109090026D01*
X171208232Y-108946601D01*
X171207385Y-108940165D01*
X171146877Y-108794086D01*
X171050623Y-108668645D01*
X170925182Y-108572391D01*
X170779103Y-108511883D01*
X170622341Y-108491245D01*
X170465579Y-108511883D01*
X170319500Y-108572391D01*
X170194059Y-108668645D01*
X170097805Y-108794086D01*
X170037297Y-108940165D01*
X170036450Y-108946601D01*
X170017568Y-109090026D01*
X170016659Y-109096927D01*
X158406251Y-109096927D01*
X158365103Y-109079883D01*
X158208341Y-109059245D01*
X158051579Y-109079883D01*
X157905500Y-109140391D01*
X157780059Y-109236645D01*
X157683805Y-109362086D01*
X157645311Y-109455018D01*
X157634543Y-109481016D01*
X157623297Y-109508165D01*
X157602659Y-109664927D01*
X130002588Y-109664927D01*
X129950877Y-109540086D01*
X129854623Y-109414645D01*
X129729182Y-109318391D01*
X129583103Y-109257883D01*
X129426341Y-109237245D01*
X129269579Y-109257883D01*
X129123500Y-109318391D01*
X128998059Y-109414645D01*
X128901805Y-109540086D01*
X128841297Y-109686165D01*
X128840450Y-109692601D01*
X128822666Y-109827686D01*
X128820659Y-109842927D01*
X128422841Y-109842927D01*
X128422841Y-107886927D01*
X146934659Y-107886927D01*
X146955297Y-108043689D01*
X147015805Y-108189768D01*
X147112059Y-108315209D01*
X147237500Y-108411463D01*
X147383579Y-108471971D01*
X147540341Y-108492609D01*
X147697103Y-108471971D01*
X147843182Y-108411463D01*
X147968623Y-108315209D01*
X148064877Y-108189768D01*
X148125385Y-108043689D01*
X148146023Y-107886927D01*
X167254659Y-107886927D01*
X167275297Y-108043689D01*
X167335805Y-108189768D01*
X167432059Y-108315209D01*
X167557500Y-108411463D01*
X167703579Y-108471971D01*
X167860341Y-108492609D01*
X168017103Y-108471971D01*
X168163182Y-108411463D01*
X168288623Y-108315209D01*
X168384877Y-108189768D01*
X168445385Y-108043689D01*
X168466023Y-107886927D01*
X168445385Y-107730165D01*
X168384877Y-107584086D01*
X168288623Y-107458645D01*
X168163182Y-107362391D01*
X168017103Y-107301883D01*
X167860341Y-107281245D01*
X167703579Y-107301883D01*
X167557500Y-107362391D01*
X167432059Y-107458645D01*
X167335805Y-107584086D01*
X167275297Y-107730165D01*
X167254659Y-107886927D01*
X148146023Y-107886927D01*
X148125385Y-107730165D01*
X148064877Y-107584086D01*
X147968623Y-107458645D01*
X147843182Y-107362391D01*
X147697103Y-107301883D01*
X147540341Y-107281245D01*
X147383579Y-107301883D01*
X147237500Y-107362391D01*
X147112059Y-107458645D01*
X147015805Y-107584086D01*
X146955297Y-107730165D01*
X146934659Y-107886927D01*
X128422841Y-107886927D01*
X128422841Y-107124927D01*
X158364659Y-107124927D01*
X158385297Y-107281689D01*
X158445805Y-107427768D01*
X158542059Y-107553209D01*
X158667500Y-107649463D01*
X158813579Y-107709971D01*
X158970341Y-107730609D01*
X159127103Y-107709971D01*
X159273182Y-107649463D01*
X159398623Y-107553209D01*
X159494877Y-107427768D01*
X159555385Y-107281689D01*
X159576023Y-107124927D01*
X159555385Y-106968165D01*
X159494877Y-106822086D01*
X159401020Y-106699768D01*
X159398623Y-106696645D01*
X159399380Y-106696064D01*
X159374238Y-106646719D01*
X159383809Y-106586287D01*
X159427074Y-106543022D01*
X159487506Y-106533451D01*
X159509905Y-106539768D01*
X159543513Y-106553689D01*
X159575579Y-106566971D01*
X159732341Y-106587609D01*
X159889103Y-106566971D01*
X160035182Y-106506463D01*
X160160623Y-106410209D01*
X160170815Y-106396927D01*
X169616659Y-106396927D01*
X169637297Y-106553689D01*
X169697805Y-106699768D01*
X169794059Y-106825209D01*
X169919500Y-106921463D01*
X170065579Y-106981971D01*
X170222341Y-107002609D01*
X170379103Y-106981971D01*
X170525182Y-106921463D01*
X170591042Y-106870927D01*
X176144659Y-106870927D01*
X176165297Y-107027689D01*
X176225805Y-107173768D01*
X176322059Y-107299209D01*
X176447500Y-107395463D01*
X176593579Y-107455971D01*
X176750341Y-107476609D01*
X176907103Y-107455971D01*
X177053182Y-107395463D01*
X177178623Y-107299209D01*
X177274877Y-107173768D01*
X177335385Y-107027689D01*
X177356023Y-106870927D01*
X177335385Y-106714165D01*
X177274877Y-106568086D01*
X177178623Y-106442645D01*
X177053182Y-106346391D01*
X176907103Y-106285883D01*
X176750341Y-106265245D01*
X176593579Y-106285883D01*
X176447500Y-106346391D01*
X176322059Y-106442645D01*
X176225805Y-106568086D01*
X176165297Y-106714165D01*
X176144659Y-106870927D01*
X170591042Y-106870927D01*
X170650623Y-106825209D01*
X170746877Y-106699768D01*
X170807385Y-106553689D01*
X170828023Y-106396927D01*
X170807385Y-106240165D01*
X170746877Y-106094086D01*
X170650623Y-105968645D01*
X170525182Y-105872391D01*
X170379103Y-105811883D01*
X170222341Y-105791245D01*
X170065579Y-105811883D01*
X169919500Y-105872391D01*
X169794059Y-105968645D01*
X169697805Y-106094086D01*
X169637297Y-106240165D01*
X169616659Y-106396927D01*
X160170815Y-106396927D01*
X160256877Y-106284768D01*
X160317385Y-106138689D01*
X160338023Y-105981927D01*
X160317385Y-105825165D01*
X160256877Y-105679086D01*
X160160623Y-105553645D01*
X160035182Y-105457391D01*
X159889103Y-105396883D01*
X159757910Y-105379611D01*
X159738775Y-105377092D01*
X159732341Y-105376245D01*
X159725907Y-105377092D01*
X159706772Y-105379611D01*
X159575579Y-105396883D01*
X159429500Y-105457391D01*
X159304059Y-105553645D01*
X159207805Y-105679086D01*
X159147297Y-105825165D01*
X159126659Y-105981927D01*
X159147297Y-106138689D01*
X159207805Y-106284768D01*
X159300925Y-106406124D01*
X159300925Y-106406125D01*
X159304059Y-106410209D01*
X159303302Y-106410790D01*
X159328444Y-106460135D01*
X159318873Y-106520567D01*
X159275608Y-106563832D01*
X159215176Y-106573403D01*
X159192777Y-106567086D01*
X159133100Y-106542367D01*
X159127103Y-106539883D01*
X158970341Y-106519245D01*
X158813579Y-106539883D01*
X158667500Y-106600391D01*
X158542059Y-106696645D01*
X158445805Y-106822086D01*
X158385297Y-106968165D01*
X158364659Y-107124927D01*
X128422841Y-107124927D01*
X128422841Y-105854927D01*
X148966659Y-105854927D01*
X148987297Y-106011689D01*
X149047805Y-106157768D01*
X149144059Y-106283209D01*
X149269500Y-106379463D01*
X149415579Y-106439971D01*
X149572341Y-106460609D01*
X149729103Y-106439971D01*
X149875182Y-106379463D01*
X150000623Y-106283209D01*
X150096877Y-106157768D01*
X150157385Y-106011689D01*
X150178023Y-105854927D01*
X150178019Y-105854897D01*
X150196083Y-105799301D01*
X150206172Y-105787488D01*
X150408391Y-105585269D01*
X150419345Y-105563771D01*
X150427452Y-105550541D01*
X150441637Y-105531017D01*
X150449092Y-105508071D01*
X150455037Y-105493721D01*
X150465987Y-105472231D01*
X150469761Y-105448402D01*
X150473387Y-105433300D01*
X150478433Y-105417770D01*
X150478434Y-105417767D01*
X150480840Y-105410360D01*
X150480840Y-105378452D01*
X150480841Y-105378446D01*
X150480841Y-105092927D01*
X166492659Y-105092927D01*
X166513297Y-105249689D01*
X166573805Y-105395768D01*
X166670059Y-105521209D01*
X166795500Y-105617463D01*
X166941579Y-105677971D01*
X167098341Y-105698609D01*
X167255103Y-105677971D01*
X167401182Y-105617463D01*
X167526623Y-105521209D01*
X167622877Y-105395768D01*
X167683385Y-105249689D01*
X167691582Y-105187427D01*
X175636659Y-105187427D01*
X175657297Y-105344189D01*
X175717805Y-105490268D01*
X175814059Y-105615709D01*
X175939500Y-105711963D01*
X176085579Y-105772471D01*
X176242341Y-105793109D01*
X176399103Y-105772471D01*
X176545182Y-105711963D01*
X176670623Y-105615709D01*
X176766877Y-105490268D01*
X176827385Y-105344189D01*
X176848023Y-105187427D01*
X176827385Y-105030665D01*
X176766877Y-104884586D01*
X176670623Y-104759145D01*
X176545182Y-104662891D01*
X176399103Y-104602383D01*
X176242341Y-104581745D01*
X176085579Y-104602383D01*
X175939500Y-104662891D01*
X175814059Y-104759145D01*
X175717805Y-104884586D01*
X175657297Y-105030665D01*
X175636659Y-105187427D01*
X167691582Y-105187427D01*
X167704023Y-105092927D01*
X167683385Y-104936165D01*
X167622877Y-104790086D01*
X167526623Y-104664645D01*
X167401182Y-104568391D01*
X167255103Y-104507883D01*
X167098341Y-104487245D01*
X166941579Y-104507883D01*
X166795500Y-104568391D01*
X166670059Y-104664645D01*
X166573805Y-104790086D01*
X166513297Y-104936165D01*
X166492659Y-105092927D01*
X150480841Y-105092927D01*
X150480841Y-103796927D01*
X168866659Y-103796927D01*
X168887297Y-103953689D01*
X168947805Y-104099768D01*
X169044059Y-104225209D01*
X169169500Y-104321463D01*
X169315579Y-104381971D01*
X169472341Y-104402609D01*
X169629103Y-104381971D01*
X169775182Y-104321463D01*
X169900623Y-104225209D01*
X169996877Y-104099768D01*
X170057385Y-103953689D01*
X170078023Y-103796927D01*
X170075210Y-103775562D01*
X174827294Y-103775562D01*
X174847932Y-103932324D01*
X174908440Y-104078403D01*
X175004694Y-104203844D01*
X175130135Y-104300098D01*
X175276214Y-104360606D01*
X175432976Y-104381244D01*
X175589738Y-104360606D01*
X175735817Y-104300098D01*
X175861258Y-104203844D01*
X175957512Y-104078403D01*
X176018020Y-103932324D01*
X176038658Y-103775562D01*
X176018020Y-103618800D01*
X175957512Y-103472721D01*
X175861258Y-103347280D01*
X175735817Y-103251026D01*
X175589738Y-103190518D01*
X175432976Y-103169880D01*
X175276214Y-103190518D01*
X175130135Y-103251026D01*
X175004694Y-103347280D01*
X174908440Y-103472721D01*
X174847932Y-103618800D01*
X174827294Y-103775562D01*
X170075210Y-103775562D01*
X170057385Y-103640165D01*
X169996877Y-103494086D01*
X169900623Y-103368645D01*
X169775182Y-103272391D01*
X169629103Y-103211883D01*
X169472341Y-103191245D01*
X169315579Y-103211883D01*
X169169500Y-103272391D01*
X169044059Y-103368645D01*
X168947805Y-103494086D01*
X168887297Y-103640165D01*
X168866659Y-103796927D01*
X150480841Y-103796927D01*
X150480841Y-101094927D01*
X170236659Y-101094927D01*
X170257297Y-101251689D01*
X170317805Y-101397768D01*
X170414059Y-101523209D01*
X170539500Y-101619463D01*
X170685579Y-101679971D01*
X170842341Y-101700609D01*
X170999103Y-101679971D01*
X171145182Y-101619463D01*
X171270623Y-101523209D01*
X171366877Y-101397768D01*
X171427385Y-101251689D01*
X171448023Y-101094927D01*
X171427385Y-100938165D01*
X171366877Y-100792086D01*
X171270623Y-100666645D01*
X171178899Y-100596263D01*
X176981995Y-100596263D01*
X177002633Y-100753025D01*
X177063141Y-100899104D01*
X177159395Y-101024545D01*
X177284836Y-101120799D01*
X177430915Y-101181307D01*
X177587677Y-101201945D01*
X177744439Y-101181307D01*
X177890518Y-101120799D01*
X178015959Y-101024545D01*
X178019913Y-101019392D01*
X178024497Y-101014808D01*
X178026178Y-101016489D01*
X178068064Y-100987704D01*
X178129228Y-100989308D01*
X178170772Y-101019491D01*
X178171156Y-101019107D01*
X178173580Y-101021531D01*
X178174716Y-101022356D01*
X178179694Y-101028844D01*
X178305135Y-101125098D01*
X178451214Y-101185606D01*
X178607976Y-101206244D01*
X178764738Y-101185606D01*
X178910817Y-101125098D01*
X179036258Y-101028844D01*
X179132512Y-100903403D01*
X179193020Y-100757324D01*
X179213658Y-100600562D01*
X179193020Y-100443800D01*
X179132512Y-100297721D01*
X179036258Y-100172280D01*
X178910817Y-100076026D01*
X178764738Y-100015518D01*
X178607976Y-99994880D01*
X178451214Y-100015518D01*
X178305135Y-100076026D01*
X178179694Y-100172280D01*
X178175740Y-100177433D01*
X178171156Y-100182017D01*
X178169475Y-100180336D01*
X178127589Y-100209121D01*
X178066425Y-100207517D01*
X178024881Y-100177334D01*
X178024497Y-100177718D01*
X178022073Y-100175294D01*
X178020937Y-100174469D01*
X178015959Y-100167981D01*
X177890518Y-100071727D01*
X177744439Y-100011219D01*
X177587677Y-99990581D01*
X177430915Y-100011219D01*
X177284836Y-100071727D01*
X177159395Y-100167981D01*
X177063141Y-100293422D01*
X177060658Y-100299417D01*
X177006699Y-100429686D01*
X177002633Y-100439501D01*
X176981995Y-100596263D01*
X171178899Y-100596263D01*
X171145182Y-100570391D01*
X170999103Y-100509883D01*
X170842341Y-100489245D01*
X170685579Y-100509883D01*
X170539500Y-100570391D01*
X170414059Y-100666645D01*
X170317805Y-100792086D01*
X170257297Y-100938165D01*
X170236659Y-101094927D01*
X150480841Y-101094927D01*
X150480841Y-98742927D01*
X151506659Y-98742927D01*
X151527297Y-98899689D01*
X151587805Y-99045768D01*
X151684059Y-99171209D01*
X151809500Y-99267463D01*
X151955579Y-99327971D01*
X152112341Y-99348609D01*
X152269103Y-99327971D01*
X152415182Y-99267463D01*
X152540623Y-99171209D01*
X152636877Y-99045768D01*
X152697385Y-98899689D01*
X152718023Y-98742927D01*
X152697385Y-98586165D01*
X152636877Y-98440086D01*
X152540623Y-98314645D01*
X152415182Y-98218391D01*
X152269103Y-98157883D01*
X152112341Y-98137245D01*
X151955579Y-98157883D01*
X151809500Y-98218391D01*
X151684059Y-98314645D01*
X151587805Y-98440086D01*
X151527297Y-98586165D01*
X151506659Y-98742927D01*
X150480841Y-98742927D01*
X150480841Y-96710927D01*
X155316659Y-96710927D01*
X155337297Y-96867689D01*
X155397805Y-97013768D01*
X155494059Y-97139209D01*
X155619500Y-97235463D01*
X155765579Y-97295971D01*
X155922341Y-97316609D01*
X156079103Y-97295971D01*
X156225182Y-97235463D01*
X156246732Y-97218927D01*
X180970659Y-97218927D01*
X180991297Y-97375689D01*
X181051805Y-97521768D01*
X181148059Y-97647209D01*
X181273500Y-97743463D01*
X181419579Y-97803971D01*
X181576341Y-97824609D01*
X181733103Y-97803971D01*
X181879182Y-97743463D01*
X182004623Y-97647209D01*
X182100877Y-97521768D01*
X182161385Y-97375689D01*
X182182023Y-97218927D01*
X182161385Y-97062165D01*
X182100877Y-96916086D01*
X182004623Y-96790645D01*
X181879182Y-96694391D01*
X181733103Y-96633883D01*
X181576341Y-96613245D01*
X181419579Y-96633883D01*
X181273500Y-96694391D01*
X181148059Y-96790645D01*
X181051805Y-96916086D01*
X180991297Y-97062165D01*
X180970659Y-97218927D01*
X156246732Y-97218927D01*
X156350623Y-97139209D01*
X156446877Y-97013768D01*
X156507385Y-96867689D01*
X156528023Y-96710927D01*
X156507385Y-96554165D01*
X156446877Y-96408086D01*
X156350623Y-96282645D01*
X156225182Y-96186391D01*
X156079103Y-96125883D01*
X155922341Y-96105245D01*
X155765579Y-96125883D01*
X155619500Y-96186391D01*
X155494059Y-96282645D01*
X155397805Y-96408086D01*
X155337297Y-96554165D01*
X155316659Y-96710927D01*
X150480841Y-96710927D01*
X150480841Y-94411927D01*
X164219659Y-94411927D01*
X164240297Y-94568689D01*
X164300805Y-94714768D01*
X164397059Y-94840209D01*
X164522500Y-94936463D01*
X164668579Y-94996971D01*
X164825341Y-95017609D01*
X164982103Y-94996971D01*
X165128182Y-94936463D01*
X165253623Y-94840209D01*
X165349877Y-94714768D01*
X165410385Y-94568689D01*
X165431023Y-94411927D01*
X165410385Y-94255165D01*
X165349877Y-94109086D01*
X165253623Y-93983645D01*
X165128182Y-93887391D01*
X164982103Y-93826883D01*
X164825341Y-93806245D01*
X164668579Y-93826883D01*
X164522500Y-93887391D01*
X164397059Y-93983645D01*
X164300805Y-94109086D01*
X164240297Y-94255165D01*
X164219659Y-94411927D01*
X150480841Y-94411927D01*
X150480841Y-92392927D01*
X155316659Y-92392927D01*
X155337297Y-92549689D01*
X155397805Y-92695768D01*
X155494059Y-92821209D01*
X155619500Y-92917463D01*
X155765579Y-92977971D01*
X155922341Y-92998609D01*
X156079103Y-92977971D01*
X156225182Y-92917463D01*
X156350623Y-92821209D01*
X156446877Y-92695768D01*
X156507385Y-92549689D01*
X156528023Y-92392927D01*
X156507385Y-92236165D01*
X156446877Y-92090086D01*
X156350623Y-91964645D01*
X156225182Y-91868391D01*
X156079103Y-91807883D01*
X155922341Y-91787245D01*
X155765579Y-91807883D01*
X155619500Y-91868391D01*
X155494059Y-91964645D01*
X155397805Y-92090086D01*
X155337297Y-92236165D01*
X155316659Y-92392927D01*
X150480841Y-92392927D01*
X150480841Y-91242927D01*
X151220659Y-91242927D01*
X151241297Y-91399689D01*
X151301805Y-91545768D01*
X151398059Y-91671209D01*
X151523500Y-91767463D01*
X151669579Y-91827971D01*
X151800772Y-91845243D01*
X151819695Y-91847734D01*
X151826341Y-91848609D01*
X151832988Y-91847734D01*
X151851910Y-91845243D01*
X151983103Y-91827971D01*
X152129182Y-91767463D01*
X152254623Y-91671209D01*
X152350877Y-91545768D01*
X152411385Y-91399689D01*
X152414382Y-91376927D01*
X173096659Y-91376927D01*
X173117297Y-91533689D01*
X173177805Y-91679768D01*
X173274059Y-91805209D01*
X173399500Y-91901463D01*
X173545579Y-91961971D01*
X173702341Y-91982609D01*
X173859103Y-91961971D01*
X174005182Y-91901463D01*
X174130623Y-91805209D01*
X174226877Y-91679768D01*
X174287385Y-91533689D01*
X174308023Y-91376927D01*
X174287385Y-91220165D01*
X174226877Y-91074086D01*
X174130623Y-90948645D01*
X174005182Y-90852391D01*
X173859103Y-90791883D01*
X173702341Y-90771245D01*
X173545579Y-90791883D01*
X173399500Y-90852391D01*
X173274059Y-90948645D01*
X173177805Y-91074086D01*
X173117297Y-91220165D01*
X173096659Y-91376927D01*
X152414382Y-91376927D01*
X152432023Y-91242927D01*
X152411385Y-91086165D01*
X152350877Y-90940086D01*
X152254623Y-90814645D01*
X152129182Y-90718391D01*
X151983103Y-90657883D01*
X151826341Y-90637245D01*
X151669579Y-90657883D01*
X151523500Y-90718391D01*
X151398059Y-90814645D01*
X151301805Y-90940086D01*
X151241297Y-91086165D01*
X151220659Y-91242927D01*
X150480841Y-91242927D01*
X150480841Y-91110800D01*
X150499748Y-91052609D01*
X150506166Y-91045094D01*
X150508623Y-91043209D01*
X150604877Y-90917768D01*
X150665385Y-90771689D01*
X150686023Y-90614927D01*
X150665385Y-90458165D01*
X150604877Y-90312086D01*
X150508623Y-90186645D01*
X150404732Y-90106927D01*
X165222659Y-90106927D01*
X165243297Y-90263689D01*
X165303805Y-90409768D01*
X165400059Y-90535209D01*
X165525500Y-90631463D01*
X165671579Y-90691971D01*
X165828341Y-90712609D01*
X165985103Y-90691971D01*
X166131182Y-90631463D01*
X166256623Y-90535209D01*
X166352877Y-90409768D01*
X166413385Y-90263689D01*
X166434023Y-90106927D01*
X166746659Y-90106927D01*
X166767297Y-90263689D01*
X166827805Y-90409768D01*
X166924059Y-90535209D01*
X167049500Y-90631463D01*
X167195579Y-90691971D01*
X167352341Y-90712609D01*
X167509103Y-90691971D01*
X167655182Y-90631463D01*
X167780623Y-90535209D01*
X167876877Y-90409768D01*
X167937385Y-90263689D01*
X167958023Y-90106927D01*
X167945275Y-90010092D01*
X167941140Y-89978687D01*
X167952290Y-89918526D01*
X167996672Y-89876409D01*
X168057334Y-89868423D01*
X168077178Y-89874301D01*
X168205579Y-89927486D01*
X168205581Y-89927487D01*
X168211579Y-89929971D01*
X168368341Y-89950609D01*
X168525103Y-89929971D01*
X168671182Y-89869463D01*
X168796623Y-89773209D01*
X168892877Y-89647768D01*
X168953385Y-89501689D01*
X168974023Y-89344927D01*
X168953385Y-89188165D01*
X168892877Y-89042086D01*
X168796623Y-88916645D01*
X168671182Y-88820391D01*
X168525103Y-88759883D01*
X168368341Y-88739245D01*
X168211579Y-88759883D01*
X168065500Y-88820391D01*
X167940059Y-88916645D01*
X167843805Y-89042086D01*
X167783297Y-89188165D01*
X167762659Y-89344927D01*
X167763506Y-89351361D01*
X167779542Y-89473167D01*
X167768392Y-89533328D01*
X167724010Y-89575445D01*
X167663348Y-89583431D01*
X167643504Y-89577553D01*
X167515103Y-89524368D01*
X167515101Y-89524367D01*
X167509103Y-89521883D01*
X167352341Y-89501245D01*
X167195579Y-89521883D01*
X167049500Y-89582391D01*
X166924059Y-89678645D01*
X166827805Y-89804086D01*
X166767297Y-89950165D01*
X166746659Y-90106927D01*
X166434023Y-90106927D01*
X166413385Y-89950165D01*
X166352877Y-89804086D01*
X166305880Y-89742838D01*
X166294799Y-89728397D01*
X166274341Y-89668130D01*
X166274341Y-87695525D01*
X166293248Y-87637334D01*
X166335455Y-87604061D01*
X166378497Y-87586232D01*
X166385182Y-87583463D01*
X166510623Y-87487209D01*
X166606877Y-87361768D01*
X166667385Y-87215689D01*
X166688023Y-87058927D01*
X166667385Y-86902165D01*
X166658774Y-86881375D01*
X166636973Y-86828745D01*
X166606877Y-86756086D01*
X166510623Y-86630645D01*
X166385182Y-86534391D01*
X166239103Y-86473883D01*
X166082341Y-86453245D01*
X165925579Y-86473883D01*
X165779500Y-86534391D01*
X165654059Y-86630645D01*
X165557805Y-86756086D01*
X165527709Y-86828745D01*
X165505909Y-86881375D01*
X165497297Y-86902165D01*
X165476659Y-87058927D01*
X165477506Y-87065360D01*
X165477506Y-87065362D01*
X165486003Y-87129902D01*
X165485632Y-87158306D01*
X165484423Y-87165942D01*
X165480795Y-87181053D01*
X165473341Y-87203994D01*
X165473341Y-89573593D01*
X165454434Y-89631784D01*
X165434609Y-89652134D01*
X165400059Y-89678645D01*
X165303805Y-89804086D01*
X165243297Y-89950165D01*
X165222659Y-90106927D01*
X150404732Y-90106927D01*
X150383182Y-90090391D01*
X150237103Y-90029883D01*
X150080341Y-90009245D01*
X149923579Y-90029883D01*
X149777500Y-90090391D01*
X149652059Y-90186645D01*
X149555805Y-90312086D01*
X149495297Y-90458165D01*
X149474659Y-90614927D01*
X149495297Y-90771689D01*
X149555805Y-90917768D01*
X149652059Y-91043209D01*
X149652084Y-91043228D01*
X149678622Y-91095313D01*
X149679841Y-91110800D01*
X149679841Y-105140027D01*
X149660934Y-105198218D01*
X149650845Y-105210031D01*
X149639780Y-105221096D01*
X149585263Y-105248873D01*
X149575408Y-105249649D01*
X149572341Y-105249245D01*
X149415579Y-105269883D01*
X149269500Y-105330391D01*
X149144059Y-105426645D01*
X149047805Y-105552086D01*
X148987297Y-105698165D01*
X148966659Y-105854927D01*
X128422841Y-105854927D01*
X128422841Y-100266927D01*
X140838659Y-100266927D01*
X140859297Y-100423689D01*
X140861781Y-100429686D01*
X140863766Y-100434479D01*
X140919805Y-100569768D01*
X141016059Y-100695209D01*
X141141500Y-100791463D01*
X141287579Y-100851971D01*
X141444341Y-100872609D01*
X141601103Y-100851971D01*
X141747182Y-100791463D01*
X141872623Y-100695209D01*
X141968877Y-100569768D01*
X142024916Y-100434479D01*
X142026901Y-100429686D01*
X142029385Y-100423689D01*
X142050023Y-100266927D01*
X142029385Y-100110165D01*
X141986320Y-100006197D01*
X146972159Y-100006197D01*
X146992797Y-100162959D01*
X147053305Y-100309038D01*
X147149559Y-100434479D01*
X147275000Y-100530733D01*
X147421079Y-100591241D01*
X147577841Y-100611879D01*
X147734603Y-100591241D01*
X147880682Y-100530733D01*
X148006123Y-100434479D01*
X148102377Y-100309038D01*
X148162885Y-100162959D01*
X148183523Y-100006197D01*
X148162885Y-99849435D01*
X148102377Y-99703356D01*
X148006123Y-99577915D01*
X147880682Y-99481661D01*
X147734603Y-99421153D01*
X147577841Y-99400515D01*
X147421079Y-99421153D01*
X147275000Y-99481661D01*
X147149559Y-99577915D01*
X147053305Y-99703356D01*
X146992797Y-99849435D01*
X146972159Y-100006197D01*
X141986320Y-100006197D01*
X141968877Y-99964086D01*
X141872623Y-99838645D01*
X141747182Y-99742391D01*
X141601103Y-99681883D01*
X141444341Y-99661245D01*
X141287579Y-99681883D01*
X141141500Y-99742391D01*
X141016059Y-99838645D01*
X140919805Y-99964086D01*
X140859297Y-100110165D01*
X140838659Y-100266927D01*
X128422841Y-100266927D01*
X128422841Y-99346927D01*
X145366659Y-99346927D01*
X145387297Y-99503689D01*
X145447805Y-99649768D01*
X145544059Y-99775209D01*
X145669500Y-99871463D01*
X145815579Y-99931971D01*
X145972341Y-99952609D01*
X146129103Y-99931971D01*
X146275182Y-99871463D01*
X146400623Y-99775209D01*
X146496877Y-99649768D01*
X146557385Y-99503689D01*
X146578023Y-99346927D01*
X146557385Y-99190165D01*
X146496877Y-99044086D01*
X146400623Y-98918645D01*
X146275182Y-98822391D01*
X146129103Y-98761883D01*
X145972341Y-98741245D01*
X145815579Y-98761883D01*
X145669500Y-98822391D01*
X145544059Y-98918645D01*
X145447805Y-99044086D01*
X145387297Y-99190165D01*
X145366659Y-99346927D01*
X128422841Y-99346927D01*
X128422841Y-95440927D01*
X145410659Y-95440927D01*
X145431297Y-95597689D01*
X145491805Y-95743768D01*
X145588059Y-95869209D01*
X145713500Y-95965463D01*
X145859579Y-96025971D01*
X146016341Y-96046609D01*
X146173103Y-96025971D01*
X146319182Y-95965463D01*
X146444623Y-95869209D01*
X146540877Y-95743768D01*
X146601385Y-95597689D01*
X146622023Y-95440927D01*
X146605140Y-95312687D01*
X146616290Y-95252526D01*
X146660672Y-95210409D01*
X146721334Y-95202423D01*
X146741178Y-95208301D01*
X146869579Y-95261486D01*
X146869581Y-95261487D01*
X146875579Y-95263971D01*
X147032341Y-95284609D01*
X147189103Y-95263971D01*
X147335182Y-95203463D01*
X147460623Y-95107209D01*
X147556877Y-94981768D01*
X147617385Y-94835689D01*
X147638023Y-94678927D01*
X147617385Y-94522165D01*
X147556877Y-94376086D01*
X147460623Y-94250645D01*
X147335182Y-94154391D01*
X147189103Y-94093883D01*
X147032341Y-94073245D01*
X146875579Y-94093883D01*
X146729500Y-94154391D01*
X146604059Y-94250645D01*
X146507805Y-94376086D01*
X146447297Y-94522165D01*
X146426659Y-94678927D01*
X146427506Y-94685361D01*
X146443542Y-94807167D01*
X146432392Y-94867328D01*
X146388010Y-94909445D01*
X146327348Y-94917431D01*
X146307504Y-94911553D01*
X146179103Y-94858368D01*
X146179101Y-94858367D01*
X146173103Y-94855883D01*
X146016341Y-94835245D01*
X145859579Y-94855883D01*
X145713500Y-94916391D01*
X145588059Y-95012645D01*
X145491805Y-95138086D01*
X145431297Y-95284165D01*
X145410659Y-95440927D01*
X128422841Y-95440927D01*
X128422841Y-92633592D01*
X139727335Y-92633592D01*
X139742933Y-92819341D01*
X139744266Y-92823989D01*
X139744266Y-92823990D01*
X139754170Y-92858528D01*
X139794312Y-92998522D01*
X139879517Y-93164312D01*
X139995300Y-93310395D01*
X139998987Y-93313533D01*
X139998989Y-93313535D01*
X140133565Y-93428068D01*
X140133570Y-93428071D01*
X140137253Y-93431206D01*
X140141475Y-93433566D01*
X140141480Y-93433569D01*
X140171532Y-93450364D01*
X140299968Y-93522144D01*
X140304566Y-93523638D01*
X140472643Y-93578250D01*
X140472645Y-93578251D01*
X140477248Y-93579746D01*
X140662339Y-93601817D01*
X140667161Y-93601446D01*
X140667164Y-93601446D01*
X140843364Y-93587888D01*
X140843369Y-93587887D01*
X140848192Y-93587516D01*
X141027728Y-93537389D01*
X141032041Y-93535210D01*
X141032047Y-93535208D01*
X141189788Y-93455527D01*
X141189790Y-93455525D01*
X141194109Y-93453344D01*
X141340996Y-93338583D01*
X141462795Y-93197477D01*
X141554867Y-93035401D01*
X141565702Y-93002832D01*
X141612178Y-92863119D01*
X141612178Y-92863117D01*
X141613705Y-92858528D01*
X141637068Y-92673595D01*
X141637440Y-92646927D01*
X141619250Y-92461414D01*
X141565374Y-92282967D01*
X141477863Y-92118383D01*
X141360051Y-91973932D01*
X141355054Y-91969798D01*
X141220153Y-91858197D01*
X141220151Y-91858196D01*
X141216426Y-91855114D01*
X141052457Y-91766456D01*
X140874390Y-91711336D01*
X140869580Y-91710830D01*
X140869578Y-91710830D01*
X140693825Y-91692357D01*
X140693823Y-91692357D01*
X140689009Y-91691851D01*
X140627014Y-91697493D01*
X140508193Y-91708306D01*
X140508189Y-91708307D01*
X140503373Y-91708745D01*
X140498731Y-91710111D01*
X140498727Y-91710112D01*
X140329202Y-91760007D01*
X140329199Y-91760008D01*
X140324555Y-91761375D01*
X140159364Y-91847734D01*
X140155588Y-91850770D01*
X140155585Y-91850772D01*
X140089450Y-91903946D01*
X140014093Y-91964535D01*
X140010985Y-91968239D01*
X139897385Y-92103622D01*
X139897382Y-92103626D01*
X139894276Y-92107328D01*
X139804476Y-92270673D01*
X139803013Y-92275286D01*
X139803011Y-92275290D01*
X139763654Y-92399361D01*
X139748113Y-92448351D01*
X139747573Y-92453163D01*
X139747573Y-92453164D01*
X139736074Y-92555686D01*
X139727335Y-92633592D01*
X128422841Y-92633592D01*
X128422841Y-91289828D01*
X128441748Y-91231637D01*
X128451837Y-91219824D01*
X129896102Y-89775558D01*
X129950619Y-89747781D01*
X129960474Y-89747005D01*
X129963541Y-89747409D01*
X129972839Y-89746185D01*
X129998261Y-89742838D01*
X130120303Y-89726771D01*
X130266382Y-89666263D01*
X130391823Y-89570009D01*
X130488077Y-89444568D01*
X130529350Y-89344927D01*
X162624159Y-89344927D01*
X162644797Y-89501689D01*
X162705305Y-89647768D01*
X162801559Y-89773209D01*
X162927000Y-89869463D01*
X163073079Y-89929971D01*
X163229841Y-89950609D01*
X163386603Y-89929971D01*
X163532682Y-89869463D01*
X163658123Y-89773209D01*
X163754377Y-89647768D01*
X163814885Y-89501689D01*
X163835523Y-89344927D01*
X163814885Y-89188165D01*
X163754377Y-89042086D01*
X163658123Y-88916645D01*
X163532682Y-88820391D01*
X163386603Y-88759883D01*
X163229841Y-88739245D01*
X163073079Y-88759883D01*
X162927000Y-88820391D01*
X162801559Y-88916645D01*
X162705305Y-89042086D01*
X162644797Y-89188165D01*
X162624159Y-89344927D01*
X130529350Y-89344927D01*
X130548585Y-89298489D01*
X130569223Y-89141727D01*
X130548585Y-88984965D01*
X130488077Y-88838886D01*
X130391823Y-88713445D01*
X130266382Y-88617191D01*
X130120303Y-88556683D01*
X129963541Y-88536045D01*
X129806779Y-88556683D01*
X129660700Y-88617191D01*
X129535259Y-88713445D01*
X129439005Y-88838886D01*
X129378497Y-88984965D01*
X129357859Y-89141727D01*
X129357863Y-89141757D01*
X129339799Y-89197353D01*
X129329710Y-89209166D01*
X127716857Y-90822018D01*
X127716854Y-90822022D01*
X127694291Y-90844585D01*
X127683339Y-90866081D01*
X127675225Y-90879320D01*
X127661045Y-90898837D01*
X127658637Y-90906248D01*
X127653589Y-90921784D01*
X127647646Y-90936130D01*
X127636695Y-90957623D01*
X127635477Y-90965316D01*
X127635476Y-90965318D01*
X127632922Y-90981446D01*
X127629297Y-90996547D01*
X127621841Y-91019494D01*
X127621841Y-110712499D01*
X127602934Y-110770690D01*
X127560727Y-110803963D01*
X127438500Y-110854591D01*
X127313059Y-110950845D01*
X127216805Y-111076286D01*
X127214322Y-111082281D01*
X127165107Y-111201097D01*
X127156297Y-111222365D01*
X127135659Y-111379127D01*
X126604841Y-111379127D01*
X126604841Y-109871828D01*
X126623748Y-109813637D01*
X126633837Y-109801824D01*
X126877825Y-109557836D01*
X126877828Y-109557832D01*
X126900391Y-109535269D01*
X126909120Y-109518138D01*
X126911342Y-109513776D01*
X126919454Y-109500537D01*
X126933637Y-109481016D01*
X126936043Y-109473611D01*
X126936045Y-109473607D01*
X126941092Y-109458072D01*
X126947035Y-109443726D01*
X126957987Y-109422231D01*
X126960872Y-109404018D01*
X126961760Y-109398408D01*
X126965386Y-109383302D01*
X126972841Y-109360360D01*
X126972841Y-98078088D01*
X126991748Y-98019897D01*
X127015788Y-97998252D01*
X127015182Y-97997463D01*
X127135470Y-97905163D01*
X127140623Y-97901209D01*
X127236877Y-97775768D01*
X127297385Y-97629689D01*
X127318023Y-97472927D01*
X127297385Y-97316165D01*
X127236877Y-97170086D01*
X127140623Y-97044645D01*
X127015182Y-96948391D01*
X126869103Y-96887883D01*
X126712341Y-96867245D01*
X126555579Y-96887883D01*
X126409500Y-96948391D01*
X126284059Y-97044645D01*
X126187805Y-97170086D01*
X126127297Y-97316165D01*
X126106659Y-97472927D01*
X126127297Y-97629689D01*
X126129781Y-97635686D01*
X126164305Y-97719034D01*
X126171841Y-97756920D01*
X126171841Y-109090026D01*
X126152934Y-109148217D01*
X126142845Y-109160030D01*
X125898857Y-109404018D01*
X125898854Y-109404022D01*
X125876291Y-109426585D01*
X125865339Y-109448081D01*
X125857225Y-109461320D01*
X125843045Y-109480837D01*
X125840637Y-109488248D01*
X125835589Y-109503784D01*
X125829646Y-109518130D01*
X125818695Y-109539623D01*
X125817477Y-109547316D01*
X125817476Y-109547318D01*
X125814922Y-109563446D01*
X125811297Y-109578547D01*
X125803841Y-109601494D01*
X125803841Y-113284360D01*
X99226841Y-113284360D01*
X99226841Y-106870927D01*
X123312659Y-106870927D01*
X123333297Y-107027689D01*
X123393805Y-107173768D01*
X123490059Y-107299209D01*
X123615500Y-107395463D01*
X123761579Y-107455971D01*
X123918341Y-107476609D01*
X124075103Y-107455971D01*
X124221182Y-107395463D01*
X124346623Y-107299209D01*
X124442877Y-107173768D01*
X124503385Y-107027689D01*
X124524023Y-106870927D01*
X124503385Y-106714165D01*
X124442877Y-106568086D01*
X124346623Y-106442645D01*
X124221182Y-106346391D01*
X124075103Y-106285883D01*
X123918341Y-106265245D01*
X123761579Y-106285883D01*
X123615500Y-106346391D01*
X123490059Y-106442645D01*
X123393805Y-106568086D01*
X123333297Y-106714165D01*
X123312659Y-106870927D01*
X99226841Y-106870927D01*
X99226841Y-101181327D01*
X124531859Y-101181327D01*
X124552497Y-101338089D01*
X124613005Y-101484168D01*
X124709259Y-101609609D01*
X124834700Y-101705863D01*
X124980779Y-101766371D01*
X125137541Y-101787009D01*
X125294303Y-101766371D01*
X125440382Y-101705863D01*
X125565823Y-101609609D01*
X125662077Y-101484168D01*
X125722585Y-101338089D01*
X125743223Y-101181327D01*
X125722585Y-101024565D01*
X125662077Y-100878486D01*
X125565823Y-100753045D01*
X125565797Y-100753025D01*
X125539260Y-100700941D01*
X125538041Y-100685454D01*
X125538041Y-94463600D01*
X125556948Y-94405409D01*
X125563366Y-94397894D01*
X125565823Y-94396009D01*
X125662077Y-94270568D01*
X125722585Y-94124489D01*
X125743223Y-93967727D01*
X125722585Y-93810965D01*
X125662077Y-93664886D01*
X125565823Y-93539445D01*
X125440382Y-93443191D01*
X125294303Y-93382683D01*
X125137541Y-93362045D01*
X124980779Y-93382683D01*
X124834700Y-93443191D01*
X124709259Y-93539445D01*
X124613005Y-93664886D01*
X124552497Y-93810965D01*
X124531859Y-93967727D01*
X124552497Y-94124489D01*
X124613005Y-94270568D01*
X124709259Y-94396009D01*
X124709284Y-94396028D01*
X124735822Y-94448113D01*
X124737041Y-94463600D01*
X124737041Y-100685454D01*
X124718134Y-100743645D01*
X124711716Y-100751160D01*
X124709259Y-100753045D01*
X124613005Y-100878486D01*
X124552497Y-101024565D01*
X124531859Y-101181327D01*
X99226841Y-101181327D01*
X99226841Y-90193423D01*
X108165278Y-90193423D01*
X108165683Y-90198243D01*
X108180100Y-90369927D01*
X108181073Y-90381517D01*
X108182406Y-90386165D01*
X108182406Y-90386166D01*
X108223666Y-90530056D01*
X108233101Y-90562961D01*
X108235316Y-90567271D01*
X108317168Y-90726539D01*
X108317171Y-90726543D01*
X108319381Y-90730844D01*
X108436626Y-90878771D01*
X108440313Y-90881909D01*
X108440315Y-90881911D01*
X108576683Y-90997969D01*
X108576688Y-90997972D01*
X108580371Y-91001107D01*
X108584594Y-91003467D01*
X108584598Y-91003470D01*
X108701738Y-91068937D01*
X108745141Y-91093194D01*
X108831026Y-91121099D01*
X108920059Y-91150028D01*
X108920062Y-91150029D01*
X108924658Y-91151522D01*
X108929454Y-91152094D01*
X108929459Y-91152095D01*
X109018372Y-91162697D01*
X109112086Y-91173872D01*
X109116908Y-91173501D01*
X109116911Y-91173501D01*
X109178619Y-91168753D01*
X109300286Y-91159391D01*
X109482089Y-91108630D01*
X109650570Y-91023525D01*
X109799311Y-90907315D01*
X109802473Y-90903652D01*
X109802478Y-90903647D01*
X109898949Y-90791883D01*
X109922648Y-90764428D01*
X109941727Y-90730844D01*
X110013494Y-90604511D01*
X110013495Y-90604508D01*
X110015883Y-90600305D01*
X110029856Y-90558303D01*
X110073937Y-90425790D01*
X110073937Y-90425788D01*
X110075464Y-90421199D01*
X110077666Y-90403773D01*
X110098773Y-90236685D01*
X110099121Y-90233932D01*
X110099498Y-90206927D01*
X110098174Y-90193423D01*
X113165278Y-90193423D01*
X113165683Y-90198243D01*
X113180100Y-90369927D01*
X113181073Y-90381517D01*
X113182406Y-90386165D01*
X113182406Y-90386166D01*
X113223666Y-90530056D01*
X113233101Y-90562961D01*
X113235316Y-90567271D01*
X113317168Y-90726539D01*
X113317171Y-90726543D01*
X113319381Y-90730844D01*
X113436626Y-90878771D01*
X113440313Y-90881909D01*
X113440315Y-90881911D01*
X113576683Y-90997969D01*
X113576688Y-90997972D01*
X113580371Y-91001107D01*
X113584594Y-91003467D01*
X113584598Y-91003470D01*
X113701738Y-91068937D01*
X113745141Y-91093194D01*
X113831026Y-91121099D01*
X113920059Y-91150028D01*
X113920062Y-91150029D01*
X113924658Y-91151522D01*
X113929454Y-91152094D01*
X113929459Y-91152095D01*
X114018372Y-91162697D01*
X114112086Y-91173872D01*
X114116908Y-91173501D01*
X114116911Y-91173501D01*
X114178619Y-91168753D01*
X114300286Y-91159391D01*
X114482089Y-91108630D01*
X114650570Y-91023525D01*
X114799311Y-90907315D01*
X114802473Y-90903652D01*
X114802478Y-90903647D01*
X114898949Y-90791883D01*
X114922648Y-90764428D01*
X114941727Y-90730844D01*
X115013494Y-90604511D01*
X115013495Y-90604508D01*
X115015883Y-90600305D01*
X115029856Y-90558303D01*
X115073937Y-90425790D01*
X115073937Y-90425788D01*
X115075464Y-90421199D01*
X115077666Y-90403773D01*
X115098773Y-90236685D01*
X115099121Y-90233932D01*
X115099498Y-90206927D01*
X115081079Y-90019072D01*
X115026522Y-89838372D01*
X114937907Y-89671710D01*
X114818607Y-89525435D01*
X114814313Y-89521883D01*
X114676895Y-89408201D01*
X114676894Y-89408200D01*
X114673168Y-89405118D01*
X114507129Y-89315341D01*
X114326815Y-89259524D01*
X114314865Y-89258268D01*
X114143909Y-89240300D01*
X114143907Y-89240300D01*
X114139093Y-89239794D01*
X114084224Y-89244787D01*
X113955933Y-89256462D01*
X113955929Y-89256463D01*
X113951114Y-89256901D01*
X113881192Y-89277480D01*
X113774685Y-89308827D01*
X113774682Y-89308828D01*
X113770038Y-89310195D01*
X113732110Y-89330023D01*
X113607058Y-89395398D01*
X113607054Y-89395401D01*
X113602761Y-89397645D01*
X113598985Y-89400681D01*
X113598982Y-89400683D01*
X113465898Y-89507686D01*
X113455657Y-89515920D01*
X113452548Y-89519625D01*
X113452545Y-89519628D01*
X113340702Y-89652917D01*
X113334327Y-89660515D01*
X113331991Y-89664763D01*
X113331991Y-89664764D01*
X113299268Y-89724287D01*
X113243393Y-89825923D01*
X113186319Y-90005844D01*
X113165278Y-90193423D01*
X110098174Y-90193423D01*
X110081079Y-90019072D01*
X110026522Y-89838372D01*
X109937907Y-89671710D01*
X109818607Y-89525435D01*
X109814313Y-89521883D01*
X109676895Y-89408201D01*
X109676894Y-89408200D01*
X109673168Y-89405118D01*
X109507129Y-89315341D01*
X109326815Y-89259524D01*
X109314865Y-89258268D01*
X109143909Y-89240300D01*
X109143907Y-89240300D01*
X109139093Y-89239794D01*
X109084224Y-89244787D01*
X108955933Y-89256462D01*
X108955929Y-89256463D01*
X108951114Y-89256901D01*
X108881192Y-89277480D01*
X108774685Y-89308827D01*
X108774682Y-89308828D01*
X108770038Y-89310195D01*
X108732110Y-89330023D01*
X108607058Y-89395398D01*
X108607054Y-89395401D01*
X108602761Y-89397645D01*
X108598985Y-89400681D01*
X108598982Y-89400683D01*
X108465898Y-89507686D01*
X108455657Y-89515920D01*
X108452548Y-89519625D01*
X108452545Y-89519628D01*
X108340702Y-89652917D01*
X108334327Y-89660515D01*
X108331991Y-89664763D01*
X108331991Y-89664764D01*
X108299268Y-89724287D01*
X108243393Y-89825923D01*
X108186319Y-90005844D01*
X108165278Y-90193423D01*
X99226841Y-90193423D01*
X99226841Y-88328927D01*
X127376659Y-88328927D01*
X127397297Y-88485689D01*
X127457805Y-88631768D01*
X127554059Y-88757209D01*
X127679500Y-88853463D01*
X127825579Y-88913971D01*
X127982341Y-88934609D01*
X128139103Y-88913971D01*
X128285182Y-88853463D01*
X128410623Y-88757209D01*
X128506877Y-88631768D01*
X128567385Y-88485689D01*
X128588023Y-88328927D01*
X128567385Y-88172165D01*
X128506877Y-88026086D01*
X128410623Y-87900645D01*
X128285182Y-87804391D01*
X128139103Y-87743883D01*
X127982341Y-87723245D01*
X127825579Y-87743883D01*
X127679500Y-87804391D01*
X127554059Y-87900645D01*
X127457805Y-88026086D01*
X127397297Y-88172165D01*
X127376659Y-88328927D01*
X99226841Y-88328927D01*
X99226841Y-87566927D01*
X130678659Y-87566927D01*
X130699297Y-87723689D01*
X130759805Y-87869768D01*
X130856059Y-87995209D01*
X130981500Y-88091463D01*
X131127579Y-88151971D01*
X131284341Y-88172609D01*
X131441103Y-88151971D01*
X131587182Y-88091463D01*
X131712623Y-87995209D01*
X131808877Y-87869768D01*
X131856999Y-87753592D01*
X139727335Y-87753592D01*
X139730461Y-87790821D01*
X139742240Y-87931086D01*
X139742933Y-87939341D01*
X139744266Y-87943989D01*
X139744266Y-87943990D01*
X139769526Y-88032081D01*
X139794312Y-88118522D01*
X139879517Y-88284312D01*
X139995300Y-88430395D01*
X139998987Y-88433533D01*
X139998989Y-88433535D01*
X140133565Y-88548068D01*
X140133570Y-88548071D01*
X140137253Y-88551206D01*
X140141475Y-88553566D01*
X140141480Y-88553569D01*
X140171532Y-88570364D01*
X140299968Y-88642144D01*
X140304566Y-88643638D01*
X140472643Y-88698250D01*
X140472645Y-88698251D01*
X140477248Y-88699746D01*
X140662339Y-88721817D01*
X140667161Y-88721446D01*
X140667164Y-88721446D01*
X140843364Y-88707888D01*
X140843369Y-88707887D01*
X140848192Y-88707516D01*
X141027728Y-88657389D01*
X141032041Y-88655210D01*
X141032047Y-88655208D01*
X141189788Y-88575527D01*
X141189790Y-88575525D01*
X141194109Y-88573344D01*
X141340996Y-88458583D01*
X141462795Y-88317477D01*
X141474469Y-88296927D01*
X154566659Y-88296927D01*
X154587297Y-88453689D01*
X154647805Y-88599768D01*
X154744059Y-88725209D01*
X154869500Y-88821463D01*
X155015579Y-88881971D01*
X155172341Y-88902609D01*
X155329103Y-88881971D01*
X155475182Y-88821463D01*
X155600623Y-88725209D01*
X155604577Y-88720056D01*
X155609161Y-88715472D01*
X155610852Y-88717163D01*
X155652697Y-88688404D01*
X155713861Y-88690006D01*
X155759355Y-88723059D01*
X155785559Y-88757209D01*
X155911000Y-88853463D01*
X156057079Y-88913971D01*
X156213841Y-88934609D01*
X156370603Y-88913971D01*
X156516682Y-88853463D01*
X156642123Y-88757209D01*
X156644539Y-88754060D01*
X156698110Y-88726767D01*
X156758542Y-88736341D01*
X156782288Y-88753594D01*
X156785062Y-88757209D01*
X156910503Y-88853463D01*
X157056582Y-88913971D01*
X157213344Y-88934609D01*
X157370106Y-88913971D01*
X157516185Y-88853463D01*
X157641626Y-88757209D01*
X157737880Y-88631768D01*
X157798388Y-88485689D01*
X157819026Y-88328927D01*
X157798388Y-88172165D01*
X157737880Y-88026086D01*
X157641626Y-87900645D01*
X157516185Y-87804391D01*
X157370106Y-87743883D01*
X157213344Y-87723245D01*
X157056582Y-87743883D01*
X156910503Y-87804391D01*
X156785062Y-87900645D01*
X156782646Y-87903793D01*
X156729080Y-87931086D01*
X156668648Y-87921515D01*
X156644896Y-87904258D01*
X156642123Y-87900645D01*
X156516682Y-87804391D01*
X156370603Y-87743883D01*
X156213841Y-87723245D01*
X156057079Y-87743883D01*
X155911000Y-87804391D01*
X155785559Y-87900645D01*
X155781605Y-87905798D01*
X155777021Y-87910382D01*
X155775330Y-87908691D01*
X155733485Y-87937450D01*
X155672321Y-87935848D01*
X155626826Y-87902794D01*
X155604577Y-87873798D01*
X155600623Y-87868645D01*
X155475182Y-87772391D01*
X155329103Y-87711883D01*
X155172341Y-87691245D01*
X155015579Y-87711883D01*
X154869500Y-87772391D01*
X154744059Y-87868645D01*
X154647805Y-87994086D01*
X154587297Y-88140165D01*
X154566659Y-88296927D01*
X141474469Y-88296927D01*
X141541688Y-88178601D01*
X141552478Y-88159607D01*
X141552479Y-88159604D01*
X141554867Y-88155401D01*
X141556835Y-88149487D01*
X141612178Y-87983119D01*
X141612178Y-87983117D01*
X141613705Y-87978528D01*
X141618895Y-87937450D01*
X141635704Y-87804391D01*
X141637068Y-87793595D01*
X141637440Y-87766927D01*
X141619250Y-87581414D01*
X141565374Y-87402967D01*
X141477863Y-87238383D01*
X141360051Y-87093932D01*
X141356322Y-87090847D01*
X141220153Y-86978197D01*
X141220151Y-86978196D01*
X141216426Y-86975114D01*
X141080765Y-86901762D01*
X141056711Y-86888756D01*
X141056710Y-86888756D01*
X141052457Y-86886456D01*
X140874390Y-86831336D01*
X140869580Y-86830830D01*
X140869578Y-86830830D01*
X140693825Y-86812357D01*
X140693823Y-86812357D01*
X140689009Y-86811851D01*
X140627014Y-86817493D01*
X140508193Y-86828306D01*
X140508189Y-86828307D01*
X140503373Y-86828745D01*
X140498731Y-86830111D01*
X140498727Y-86830112D01*
X140329202Y-86880007D01*
X140329199Y-86880008D01*
X140324555Y-86881375D01*
X140159364Y-86967734D01*
X140155588Y-86970770D01*
X140155585Y-86970772D01*
X140061595Y-87046342D01*
X140014093Y-87084535D01*
X140010985Y-87088239D01*
X139897385Y-87223622D01*
X139897382Y-87223626D01*
X139894276Y-87227328D01*
X139804476Y-87390673D01*
X139803013Y-87395286D01*
X139803011Y-87395290D01*
X139761979Y-87524639D01*
X139748113Y-87568351D01*
X139747573Y-87573163D01*
X139747573Y-87573164D01*
X139731735Y-87714367D01*
X139727335Y-87753592D01*
X131856999Y-87753592D01*
X131869385Y-87723689D01*
X131890023Y-87566927D01*
X131869385Y-87410165D01*
X131866404Y-87402967D01*
X131811360Y-87270081D01*
X131808877Y-87264086D01*
X131712623Y-87138645D01*
X131587182Y-87042391D01*
X131441103Y-86981883D01*
X131284341Y-86961245D01*
X131127579Y-86981883D01*
X130981500Y-87042391D01*
X130856059Y-87138645D01*
X130759805Y-87264086D01*
X130757322Y-87270081D01*
X130702279Y-87402967D01*
X130699297Y-87410165D01*
X130678659Y-87566927D01*
X99226841Y-87566927D01*
X99226841Y-86531427D01*
X143886659Y-86531427D01*
X143907297Y-86688189D01*
X143967805Y-86834268D01*
X144064059Y-86959709D01*
X144189500Y-87055963D01*
X144335579Y-87116471D01*
X144492341Y-87137109D01*
X144649103Y-87116471D01*
X144795182Y-87055963D01*
X144920623Y-86959709D01*
X145016877Y-86834268D01*
X145077385Y-86688189D01*
X145098023Y-86531427D01*
X145077385Y-86374665D01*
X145016877Y-86228586D01*
X145004737Y-86212764D01*
X144984312Y-86155090D01*
X145001689Y-86096424D01*
X145038424Y-86066675D01*
X145037567Y-86065191D01*
X145043187Y-86061946D01*
X145049182Y-86059463D01*
X145070732Y-86042927D01*
X149474659Y-86042927D01*
X149495297Y-86199689D01*
X149555805Y-86345768D01*
X149652059Y-86471209D01*
X149777500Y-86567463D01*
X149923579Y-86627971D01*
X150080341Y-86648609D01*
X150237103Y-86627971D01*
X150383182Y-86567463D01*
X150508623Y-86471209D01*
X150604877Y-86345768D01*
X150665385Y-86199689D01*
X150686022Y-86042938D01*
X150998659Y-86042938D01*
X151019297Y-86199700D01*
X151079805Y-86345779D01*
X151176059Y-86471220D01*
X151301500Y-86567474D01*
X151391895Y-86604917D01*
X151441556Y-86625487D01*
X151447579Y-86627982D01*
X151578772Y-86645254D01*
X151597824Y-86647762D01*
X151604341Y-86648620D01*
X151610859Y-86647762D01*
X151629910Y-86645254D01*
X151761103Y-86627982D01*
X151767127Y-86625487D01*
X151816787Y-86604917D01*
X151907182Y-86567474D01*
X152032623Y-86471220D01*
X152128877Y-86345779D01*
X152149112Y-86296927D01*
X175890659Y-86296927D01*
X175911297Y-86453689D01*
X175971805Y-86599768D01*
X176068059Y-86725209D01*
X176193500Y-86821463D01*
X176339579Y-86881971D01*
X176461621Y-86898038D01*
X176489907Y-86901762D01*
X176496341Y-86902609D01*
X176496370Y-86902605D01*
X176551966Y-86920669D01*
X176563779Y-86930758D01*
X179935510Y-90302489D01*
X179963287Y-90357006D01*
X179964063Y-90366861D01*
X179963659Y-90369927D01*
X179984297Y-90526689D01*
X180044805Y-90672768D01*
X180141059Y-90798209D01*
X180266500Y-90894463D01*
X180412579Y-90954971D01*
X180569341Y-90975609D01*
X180726103Y-90954971D01*
X180872182Y-90894463D01*
X180997623Y-90798209D01*
X181093877Y-90672768D01*
X181154385Y-90526689D01*
X181175023Y-90369927D01*
X181154385Y-90213165D01*
X181093877Y-90067086D01*
X180997623Y-89941645D01*
X180872182Y-89845391D01*
X180726103Y-89784883D01*
X180569341Y-89764245D01*
X180569312Y-89764249D01*
X180513716Y-89746185D01*
X180501903Y-89736096D01*
X177867317Y-87101510D01*
X179912076Y-87101510D01*
X179932714Y-87258272D01*
X179993222Y-87404351D01*
X180089476Y-87529792D01*
X180214917Y-87626046D01*
X180360996Y-87686554D01*
X180517758Y-87707192D01*
X180674520Y-87686554D01*
X180820599Y-87626046D01*
X180946040Y-87529792D01*
X181042294Y-87404351D01*
X181102802Y-87258272D01*
X181123440Y-87101510D01*
X181102802Y-86944748D01*
X181042294Y-86798669D01*
X180946040Y-86673228D01*
X180820599Y-86576974D01*
X180674520Y-86516466D01*
X180517758Y-86495828D01*
X180360996Y-86516466D01*
X180214917Y-86576974D01*
X180089476Y-86673228D01*
X179993222Y-86798669D01*
X179932714Y-86944748D01*
X179912076Y-87101510D01*
X177867317Y-87101510D01*
X177130172Y-86364365D01*
X177102395Y-86309848D01*
X177101619Y-86299993D01*
X177102023Y-86296927D01*
X177081385Y-86140165D01*
X177020877Y-85994086D01*
X176924623Y-85868645D01*
X176799182Y-85772391D01*
X176653103Y-85711883D01*
X176496341Y-85691245D01*
X176339579Y-85711883D01*
X176193500Y-85772391D01*
X176068059Y-85868645D01*
X175971805Y-85994086D01*
X175911297Y-86140165D01*
X175890659Y-86296927D01*
X152149112Y-86296927D01*
X152189385Y-86199700D01*
X152210023Y-86042938D01*
X152189385Y-85886176D01*
X152128877Y-85740097D01*
X152032623Y-85614656D01*
X151907182Y-85518402D01*
X151761103Y-85457894D01*
X151604341Y-85437256D01*
X151447579Y-85457894D01*
X151301500Y-85518402D01*
X151176059Y-85614656D01*
X151079805Y-85740097D01*
X151019297Y-85886176D01*
X150998659Y-86042938D01*
X150686022Y-86042938D01*
X150686023Y-86042927D01*
X150665385Y-85886165D01*
X150604877Y-85740086D01*
X150508623Y-85614645D01*
X150383182Y-85518391D01*
X150265387Y-85469598D01*
X150243100Y-85460367D01*
X150237103Y-85457883D01*
X150105910Y-85440611D01*
X150086775Y-85438092D01*
X150080341Y-85437245D01*
X150073907Y-85438092D01*
X150054772Y-85440611D01*
X149923579Y-85457883D01*
X149917582Y-85460367D01*
X149895295Y-85469598D01*
X149777500Y-85518391D01*
X149652059Y-85614645D01*
X149555805Y-85740086D01*
X149495297Y-85886165D01*
X149474659Y-86042927D01*
X145070732Y-86042927D01*
X145174623Y-85963209D01*
X145270877Y-85837768D01*
X145331385Y-85691689D01*
X145352023Y-85534927D01*
X145331385Y-85378165D01*
X145277179Y-85247300D01*
X145272378Y-85186304D01*
X145304347Y-85134135D01*
X145355721Y-85111262D01*
X145411103Y-85103971D01*
X145557182Y-85043463D01*
X145682623Y-84947209D01*
X145778877Y-84821768D01*
X145839385Y-84675689D01*
X145860023Y-84518927D01*
X145839385Y-84362165D01*
X145801801Y-84271429D01*
X181224659Y-84271429D01*
X181245297Y-84428191D01*
X181305805Y-84574270D01*
X181402059Y-84699711D01*
X181527500Y-84795965D01*
X181673579Y-84856473D01*
X181830341Y-84877111D01*
X181929640Y-84864038D01*
X181989800Y-84875188D01*
X182031917Y-84919570D01*
X182040714Y-84975113D01*
X182032236Y-85039512D01*
X182024159Y-85100862D01*
X182044797Y-85257624D01*
X182105305Y-85403703D01*
X182201559Y-85529144D01*
X182204708Y-85531560D01*
X182232001Y-85585131D01*
X182222427Y-85645563D01*
X182205174Y-85669309D01*
X182201559Y-85672083D01*
X182105305Y-85797524D01*
X182044797Y-85943603D01*
X182024159Y-86100365D01*
X182044797Y-86257127D01*
X182105305Y-86403206D01*
X182201559Y-86528647D01*
X182327000Y-86624901D01*
X182473079Y-86685409D01*
X182629841Y-86706047D01*
X182786603Y-86685409D01*
X182932682Y-86624901D01*
X183058123Y-86528647D01*
X183154377Y-86403206D01*
X183214885Y-86257127D01*
X183235523Y-86100365D01*
X183214885Y-85943603D01*
X183154377Y-85797524D01*
X183058123Y-85672083D01*
X183054975Y-85669667D01*
X183027682Y-85616101D01*
X183037253Y-85555669D01*
X183054510Y-85531917D01*
X183058123Y-85529144D01*
X183154377Y-85403703D01*
X183214885Y-85257624D01*
X183235523Y-85100862D01*
X183214885Y-84944100D01*
X183154377Y-84798021D01*
X183058123Y-84672580D01*
X182932682Y-84576326D01*
X182786603Y-84515818D01*
X182629841Y-84495180D01*
X182530542Y-84508253D01*
X182470382Y-84497103D01*
X182428265Y-84452721D01*
X182419468Y-84397178D01*
X182435176Y-84277863D01*
X182436023Y-84271429D01*
X182415385Y-84114667D01*
X182354877Y-83968588D01*
X182258623Y-83843147D01*
X182133182Y-83746893D01*
X181987103Y-83686385D01*
X181830341Y-83665747D01*
X181673579Y-83686385D01*
X181527500Y-83746893D01*
X181402059Y-83843147D01*
X181305805Y-83968588D01*
X181245297Y-84114667D01*
X181224659Y-84271429D01*
X145801801Y-84271429D01*
X145778877Y-84216086D01*
X145682623Y-84090645D01*
X145557182Y-83994391D01*
X145411103Y-83933883D01*
X145254341Y-83913245D01*
X145097579Y-83933883D01*
X144951500Y-83994391D01*
X144826059Y-84090645D01*
X144729805Y-84216086D01*
X144669297Y-84362165D01*
X144648659Y-84518927D01*
X144669297Y-84675689D01*
X144717481Y-84792014D01*
X144723503Y-84806553D01*
X144728304Y-84867550D01*
X144696335Y-84919719D01*
X144644961Y-84942592D01*
X144589579Y-84949883D01*
X144443500Y-85010391D01*
X144318059Y-85106645D01*
X144221805Y-85232086D01*
X144161297Y-85378165D01*
X144140659Y-85534927D01*
X144161297Y-85691689D01*
X144221805Y-85837768D01*
X144225756Y-85842917D01*
X144233945Y-85853589D01*
X144254370Y-85911264D01*
X144236993Y-85969930D01*
X144200258Y-85999679D01*
X144201115Y-86001163D01*
X144195495Y-86004408D01*
X144189500Y-86006891D01*
X144064059Y-86103145D01*
X143967805Y-86228586D01*
X143907297Y-86374665D01*
X143886659Y-86531427D01*
X99226841Y-86531427D01*
X99226841Y-83502927D01*
X164206659Y-83502927D01*
X164227297Y-83659689D01*
X164287805Y-83805768D01*
X164384059Y-83931209D01*
X164509500Y-84027463D01*
X164655579Y-84087971D01*
X164812341Y-84108609D01*
X164969103Y-84087971D01*
X165115182Y-84027463D01*
X165240623Y-83931209D01*
X165336877Y-83805768D01*
X165397385Y-83659689D01*
X165418023Y-83502927D01*
X165397385Y-83346165D01*
X165391857Y-83332818D01*
X165339360Y-83206081D01*
X165336877Y-83200086D01*
X165240623Y-83074645D01*
X165115182Y-82978391D01*
X164969103Y-82917883D01*
X164812341Y-82897245D01*
X164655579Y-82917883D01*
X164509500Y-82978391D01*
X164384059Y-83074645D01*
X164287805Y-83200086D01*
X164285322Y-83206081D01*
X164232826Y-83332818D01*
X164227297Y-83346165D01*
X164206659Y-83502927D01*
X99226841Y-83502927D01*
X99226841Y-82746927D01*
X176616659Y-82746927D01*
X176637297Y-82903689D01*
X176639781Y-82909686D01*
X176643176Y-82917883D01*
X176697805Y-83049768D01*
X176794059Y-83175209D01*
X176919500Y-83271463D01*
X177065579Y-83331971D01*
X177222341Y-83352609D01*
X177379103Y-83331971D01*
X177525182Y-83271463D01*
X177650623Y-83175209D01*
X177746877Y-83049768D01*
X177801506Y-82917883D01*
X177804901Y-82909686D01*
X177807385Y-82903689D01*
X177828023Y-82746927D01*
X177807385Y-82590165D01*
X177764622Y-82486927D01*
X186521159Y-82486927D01*
X186541797Y-82643689D01*
X186602305Y-82789768D01*
X186698559Y-82915209D01*
X186824000Y-83011463D01*
X186970079Y-83071971D01*
X187126841Y-83092609D01*
X187283603Y-83071971D01*
X187429682Y-83011463D01*
X187555123Y-82915209D01*
X187651377Y-82789768D01*
X187711885Y-82643689D01*
X187732523Y-82486927D01*
X187711885Y-82330165D01*
X187651377Y-82184086D01*
X187555123Y-82058645D01*
X187429682Y-81962391D01*
X187283603Y-81901883D01*
X187126841Y-81881245D01*
X186970079Y-81901883D01*
X186824000Y-81962391D01*
X186698559Y-82058645D01*
X186602305Y-82184086D01*
X186541797Y-82330165D01*
X186521159Y-82486927D01*
X177764622Y-82486927D01*
X177746877Y-82444086D01*
X177650623Y-82318645D01*
X177525182Y-82222391D01*
X177379103Y-82161883D01*
X177222341Y-82141245D01*
X177065579Y-82161883D01*
X176919500Y-82222391D01*
X176794059Y-82318645D01*
X176697805Y-82444086D01*
X176637297Y-82590165D01*
X176616659Y-82746927D01*
X99226841Y-82746927D01*
X99226841Y-81470927D01*
X148712659Y-81470927D01*
X148733297Y-81627689D01*
X148793805Y-81773768D01*
X148890059Y-81899209D01*
X149015500Y-81995463D01*
X149161579Y-82055971D01*
X149318341Y-82076609D01*
X149475103Y-82055971D01*
X149621182Y-81995463D01*
X149746623Y-81899209D01*
X149842877Y-81773768D01*
X149903385Y-81627689D01*
X149924023Y-81470927D01*
X149903385Y-81314165D01*
X149860801Y-81211358D01*
X150215950Y-81211358D01*
X150236588Y-81368120D01*
X150297096Y-81514199D01*
X150393350Y-81639640D01*
X150518791Y-81735894D01*
X150664870Y-81796402D01*
X150821632Y-81817040D01*
X150978394Y-81796402D01*
X151020607Y-81778917D01*
X151118476Y-81738378D01*
X151124473Y-81735894D01*
X151127254Y-81733760D01*
X151185870Y-81721301D01*
X151241765Y-81746188D01*
X151260427Y-81769233D01*
X151262305Y-81773768D01*
X151358559Y-81899209D01*
X151484000Y-81995463D01*
X151630079Y-82055971D01*
X151786841Y-82076609D01*
X151943603Y-82055971D01*
X152089682Y-81995463D01*
X152215123Y-81899209D01*
X152311377Y-81773768D01*
X152371885Y-81627689D01*
X152392523Y-81470927D01*
X152371885Y-81314165D01*
X152311377Y-81168086D01*
X152215123Y-81042645D01*
X152089682Y-80946391D01*
X151943603Y-80885883D01*
X151786841Y-80865245D01*
X151630079Y-80885883D01*
X151624082Y-80888367D01*
X151575436Y-80908517D01*
X151484000Y-80946391D01*
X151481219Y-80948525D01*
X151422603Y-80960984D01*
X151366708Y-80936097D01*
X151348046Y-80913052D01*
X151346168Y-80908517D01*
X151249914Y-80783076D01*
X151124473Y-80686822D01*
X150978394Y-80626314D01*
X150821632Y-80605676D01*
X150664870Y-80626314D01*
X150518791Y-80686822D01*
X150393350Y-80783076D01*
X150297096Y-80908517D01*
X150236588Y-81054596D01*
X150215950Y-81211358D01*
X149860801Y-81211358D01*
X149842877Y-81168086D01*
X149746623Y-81042645D01*
X149621182Y-80946391D01*
X149475103Y-80885883D01*
X149318341Y-80865245D01*
X149161579Y-80885883D01*
X149015500Y-80946391D01*
X148890059Y-81042645D01*
X148793805Y-81168086D01*
X148733297Y-81314165D01*
X148712659Y-81470927D01*
X99226841Y-81470927D01*
X99226841Y-79946927D01*
X148458659Y-79946927D01*
X148479297Y-80103689D01*
X148539805Y-80249768D01*
X148636059Y-80375209D01*
X148761500Y-80471463D01*
X148907579Y-80531971D01*
X149064341Y-80552609D01*
X149221103Y-80531971D01*
X149367182Y-80471463D01*
X149492623Y-80375209D01*
X149588877Y-80249768D01*
X149611022Y-80196305D01*
X154605195Y-80196305D01*
X154625833Y-80353067D01*
X154686341Y-80499146D01*
X154782595Y-80624587D01*
X154908036Y-80720841D01*
X155054115Y-80781349D01*
X155210877Y-80801987D01*
X155367639Y-80781349D01*
X155424569Y-80757768D01*
X155507721Y-80723325D01*
X155513718Y-80720841D01*
X155516894Y-80718404D01*
X155575716Y-80705901D01*
X155631611Y-80730788D01*
X155650073Y-80753586D01*
X155651805Y-80757768D01*
X155748059Y-80883209D01*
X155873500Y-80979463D01*
X156019579Y-81039971D01*
X156176341Y-81060609D01*
X156333103Y-81039971D01*
X156479182Y-80979463D01*
X156500732Y-80962927D01*
X169032659Y-80962927D01*
X169053297Y-81119689D01*
X169113805Y-81265768D01*
X169210059Y-81391209D01*
X169335500Y-81487463D01*
X169481579Y-81547971D01*
X169638341Y-81568609D01*
X169795103Y-81547971D01*
X169941182Y-81487463D01*
X170066623Y-81391209D01*
X170162877Y-81265768D01*
X170183108Y-81216927D01*
X187320659Y-81216927D01*
X187341297Y-81373689D01*
X187401805Y-81519768D01*
X187498059Y-81645209D01*
X187623500Y-81741463D01*
X187769579Y-81801971D01*
X187926341Y-81822609D01*
X188083103Y-81801971D01*
X188229182Y-81741463D01*
X188354623Y-81645209D01*
X188450877Y-81519768D01*
X188511385Y-81373689D01*
X188532023Y-81216927D01*
X188511385Y-81060165D01*
X188450877Y-80914086D01*
X188354623Y-80788645D01*
X188229182Y-80692391D01*
X188083103Y-80631883D01*
X187926341Y-80611245D01*
X187769579Y-80631883D01*
X187623500Y-80692391D01*
X187498059Y-80788645D01*
X187401805Y-80914086D01*
X187341297Y-81060165D01*
X187320659Y-81216927D01*
X170183108Y-81216927D01*
X170223385Y-81119689D01*
X170244023Y-80962927D01*
X170223385Y-80806165D01*
X170162877Y-80660086D01*
X170066623Y-80534645D01*
X169941182Y-80438391D01*
X169795103Y-80377883D01*
X169638341Y-80357245D01*
X169481579Y-80377883D01*
X169335500Y-80438391D01*
X169210059Y-80534645D01*
X169113805Y-80660086D01*
X169053297Y-80806165D01*
X169032659Y-80962927D01*
X156500732Y-80962927D01*
X156604623Y-80883209D01*
X156700877Y-80757768D01*
X156761385Y-80611689D01*
X156782023Y-80454927D01*
X156761385Y-80298165D01*
X156700877Y-80152086D01*
X156604623Y-80026645D01*
X156479182Y-79930391D01*
X156333103Y-79869883D01*
X156176341Y-79849245D01*
X156019579Y-79869883D01*
X156013582Y-79872367D01*
X155955624Y-79896374D01*
X155873500Y-79930391D01*
X155870324Y-79932828D01*
X155811502Y-79945331D01*
X155755607Y-79920444D01*
X155737145Y-79897646D01*
X155735413Y-79893464D01*
X155639159Y-79768023D01*
X155513718Y-79671769D01*
X155367639Y-79611261D01*
X155210877Y-79590623D01*
X155054115Y-79611261D01*
X154908036Y-79671769D01*
X154782595Y-79768023D01*
X154686341Y-79893464D01*
X154625833Y-80039543D01*
X154605195Y-80196305D01*
X149611022Y-80196305D01*
X149649385Y-80103689D01*
X149670023Y-79946927D01*
X149649385Y-79790165D01*
X149588877Y-79644086D01*
X149492623Y-79518645D01*
X149414468Y-79458675D01*
X156991841Y-79458675D01*
X157003474Y-79517158D01*
X157047789Y-79583479D01*
X157114110Y-79627794D01*
X157123673Y-79629696D01*
X157123675Y-79629697D01*
X157146346Y-79634206D01*
X157172593Y-79639427D01*
X158736089Y-79639427D01*
X158762336Y-79634206D01*
X158785007Y-79629697D01*
X158785009Y-79629696D01*
X158794572Y-79627794D01*
X158860893Y-79583479D01*
X158905208Y-79517158D01*
X158916841Y-79458675D01*
X159531841Y-79458675D01*
X159543474Y-79517158D01*
X159587789Y-79583479D01*
X159654110Y-79627794D01*
X159663673Y-79629696D01*
X159663675Y-79629697D01*
X159686346Y-79634206D01*
X159712593Y-79639427D01*
X161276089Y-79639427D01*
X161302336Y-79634206D01*
X161325007Y-79629697D01*
X161325009Y-79629696D01*
X161334572Y-79627794D01*
X161400893Y-79583479D01*
X161445208Y-79517158D01*
X161456841Y-79458675D01*
X161456841Y-78168927D01*
X162428659Y-78168927D01*
X162449297Y-78325689D01*
X162509805Y-78471768D01*
X162606059Y-78597209D01*
X162731500Y-78693463D01*
X162877579Y-78753971D01*
X163034341Y-78774609D01*
X163191103Y-78753971D01*
X163337182Y-78693463D01*
X163462623Y-78597209D01*
X163558877Y-78471768D01*
X163619385Y-78325689D01*
X163640023Y-78168927D01*
X163619385Y-78012165D01*
X163558877Y-77866086D01*
X163462623Y-77740645D01*
X163337182Y-77644391D01*
X163191103Y-77583883D01*
X163034341Y-77563245D01*
X162877579Y-77583883D01*
X162731500Y-77644391D01*
X162606059Y-77740645D01*
X162509805Y-77866086D01*
X162449297Y-78012165D01*
X162428659Y-78168927D01*
X161456841Y-78168927D01*
X161456841Y-77895179D01*
X161445208Y-77836696D01*
X161400893Y-77770375D01*
X161334572Y-77726060D01*
X161325009Y-77724158D01*
X161325007Y-77724157D01*
X161302336Y-77719648D01*
X161276089Y-77714427D01*
X159712593Y-77714427D01*
X159686346Y-77719648D01*
X159663675Y-77724157D01*
X159663673Y-77724158D01*
X159654110Y-77726060D01*
X159587789Y-77770375D01*
X159543474Y-77836696D01*
X159531841Y-77895179D01*
X159531841Y-79458675D01*
X158916841Y-79458675D01*
X158916841Y-77895179D01*
X158905208Y-77836696D01*
X158860893Y-77770375D01*
X158794572Y-77726060D01*
X158785009Y-77724158D01*
X158785007Y-77724157D01*
X158762336Y-77719648D01*
X158736089Y-77714427D01*
X157172593Y-77714427D01*
X157146346Y-77719648D01*
X157123675Y-77724157D01*
X157123673Y-77724158D01*
X157114110Y-77726060D01*
X157047789Y-77770375D01*
X157003474Y-77836696D01*
X156991841Y-77895179D01*
X156991841Y-79458675D01*
X149414468Y-79458675D01*
X149367182Y-79422391D01*
X149221103Y-79361883D01*
X149064341Y-79341245D01*
X148907579Y-79361883D01*
X148761500Y-79422391D01*
X148636059Y-79518645D01*
X148539805Y-79644086D01*
X148479297Y-79790165D01*
X148458659Y-79946927D01*
X99226841Y-79946927D01*
X99226841Y-76142927D01*
X165220659Y-76142927D01*
X165241297Y-76299689D01*
X165301805Y-76445768D01*
X165398059Y-76571209D01*
X165523500Y-76667463D01*
X165669579Y-76727971D01*
X165826341Y-76748609D01*
X165983103Y-76727971D01*
X166129182Y-76667463D01*
X166254623Y-76571209D01*
X166350877Y-76445768D01*
X166411385Y-76299689D01*
X166432023Y-76142927D01*
X166411385Y-75986165D01*
X166350877Y-75840086D01*
X166254623Y-75714645D01*
X166129182Y-75618391D01*
X165983103Y-75557883D01*
X165826341Y-75537245D01*
X165669579Y-75557883D01*
X165523500Y-75618391D01*
X165398059Y-75714645D01*
X165301805Y-75840086D01*
X165241297Y-75986165D01*
X165220659Y-76142927D01*
X99226841Y-76142927D01*
X99226841Y-74150427D01*
X99245748Y-74092236D01*
X99295248Y-74056272D01*
X99325841Y-74051427D01*
X189658841Y-74051427D01*
X189717032Y-74070334D01*
G37*
%TD.AperFunction*%
%TD*%
M02*
