  0
SECTION
  2
HEADER
  9
$ANGBASE
  50
0.0
  9
$ANGDIR
  70
1
  9
$MEASUREMENT
  70
0
  0
ENDSEC
  0
SECTION
  2
TABLES
  0
TABLE
  2
LTYPE
  70
4
  0
LTYPE
  5
40F
  2
CONTINUOUS
  70
0
  3
Solid line
  72
65
  73
0
  40
0.0
  0
LTYPE
  5
410
  2
DASHDOT
 70
0
  3
Dash Dot ____ _ ____ _
 72
65
 73
4
 40
2.0
 49
1.25
 49
-0.25
 49
0.25
 49
-0.25
  0
LTYPE
  5
411
  2
DASHED
 70
0
  3
Dashed __ __ __ __ __
 72
65
 73
2
 40
0.75
 49
0.5
 49
-0.25
  0
LTYPE
  5
43B
  2
DOTTED
 70
0
  3
Dotted .  .  .  .
 72
65
 73
2
 40
0.2
 49
0.0
 49
-0.2
  0
ENDTAB
  0
TABLE
  2
STYLE
  70
4
  0
STYLE
  2
KICAD
  70
0
  40
0
  41
1
  42
1
  50
0
  71
0
  3
isocp.shx
  0
STYLE
  2
KICADB
  70
0
  40
0
  41
1
  42
1
  50
0
  71
0
  3
isocp.shx
  0
STYLE
  2
KICADI
  70
0
  40
0
  41
1
  42
1
  50
15
  71
0
  3
isocp.shx
  0
STYLE
  2
KICADBI
  70
0
  40
0
  41
1
  42
1
  50
15
  71
0
  3
isocp.shx
  0
ENDTAB
  0
TABLE
  2
LAYER
  70
1
  0
LAYER
  2
BLACK
  70
0
  62
7
  6
CONTINUOUS
  0
ENDTAB
  0
ENDSEC
  0
SECTION
  2
ENTITIES
0
LINE
8
BLACK
6
CONTINUOUS
10
6.17672
20
-4.78798
11
6.17643
21
-4.78728
0
LINE
8
BLACK
6
CONTINUOUS
10
6.17643
20
-4.78728
11
6.17643
21
-4.60775
0
LINE
8
BLACK
6
CONTINUOUS
10
6.17643
20
-4.60775
11
6.17672
21
-4.60706
0
LINE
8
BLACK
6
CONTINUOUS
10
6.17672
20
-4.60706
11
6.17741
21
-4.60677
0
LINE
8
BLACK
6
CONTINUOUS
10
6.17741
20
-4.60677
11
6.2656
21
-4.60677
0
LINE
8
BLACK
6
CONTINUOUS
10
6.2656
20
-4.60677
11
6.2663
21
-4.60706
0
LINE
8
BLACK
6
CONTINUOUS
10
6.2663
20
-4.60706
11
6.26659
21
-4.60775
0
LINE
8
BLACK
6
CONTINUOUS
10
6.26659
20
-4.60775
11
6.26659
21
-4.78728
0
LINE
8
BLACK
6
CONTINUOUS
10
6.26659
20
-4.78728
11
6.2663
21
-4.78798
0
LINE
8
BLACK
6
CONTINUOUS
10
6.2663
20
-4.78798
11
6.2656
21
-4.78826
0
LINE
8
BLACK
6
CONTINUOUS
10
6.2656
20
-4.78826
11
6.17741
21
-4.78826
0
LINE
8
BLACK
6
CONTINUOUS
10
6.17741
20
-4.78826
11
6.17672
21
-4.78798
0
LINE
8
BLACK
6
CONTINUOUS
10
6.1784
20
-4.60874
11
6.1784
21
-4.7863
0
LINE
8
BLACK
6
CONTINUOUS
10
6.1784
20
-4.7863
11
6.26462
21
-4.7863
0
LINE
8
BLACK
6
CONTINUOUS
10
6.26462
20
-4.7863
11
6.26462
21
-4.60874
0
LINE
8
BLACK
6
CONTINUOUS
10
6.26462
20
-4.60874
11
6.1784
21
-4.60874
0
LINE
8
BLACK
6
CONTINUOUS
10
5.78302
20
-4.78798
11
5.78273
21
-4.78728
0
LINE
8
BLACK
6
CONTINUOUS
10
5.78273
20
-4.78728
11
5.78273
21
-4.60775
0
LINE
8
BLACK
6
CONTINUOUS
10
5.78273
20
-4.60775
11
5.78302
21
-4.60706
0
LINE
8
BLACK
6
CONTINUOUS
10
5.78302
20
-4.60706
11
5.78371
21
-4.60677
0
LINE
8
BLACK
6
CONTINUOUS
10
5.78371
20
-4.60677
11
5.8719
21
-4.60677
0
LINE
8
BLACK
6
CONTINUOUS
10
5.8719
20
-4.60677
11
5.8726
21
-4.60706
0
LINE
8
BLACK
6
CONTINUOUS
10
5.8726
20
-4.60706
11
5.87289
21
-4.60775
0
LINE
8
BLACK
6
CONTINUOUS
10
5.87289
20
-4.60775
11
5.87289
21
-4.78728
0
LINE
8
BLACK
6
CONTINUOUS
10
5.87289
20
-4.78728
11
5.8726
21
-4.78798
0
LINE
8
BLACK
6
CONTINUOUS
10
5.8726
20
-4.78798
11
5.8719
21
-4.78826
0
LINE
8
BLACK
6
CONTINUOUS
10
5.8719
20
-4.78826
11
5.78371
21
-4.78826
0
LINE
8
BLACK
6
CONTINUOUS
10
5.78371
20
-4.78826
11
5.78302
21
-4.78798
0
LINE
8
BLACK
6
CONTINUOUS
10
5.7847
20
-4.60874
11
5.7847
21
-4.7863
0
LINE
8
BLACK
6
CONTINUOUS
10
5.7847
20
-4.7863
11
5.87092
21
-4.7863
0
LINE
8
BLACK
6
CONTINUOUS
10
5.87092
20
-4.7863
11
5.87092
21
-4.60874
0
LINE
8
BLACK
6
CONTINUOUS
10
5.87092
20
-4.60874
11
5.7847
21
-4.60874
0
LINE
8
BLACK
6
CONTINUOUS
10
5.97987
20
-4.78798
11
5.97958
21
-4.78728
0
LINE
8
BLACK
6
CONTINUOUS
10
5.97958
20
-4.78728
11
5.97958
21
-4.60775
0
LINE
8
BLACK
6
CONTINUOUS
10
5.97958
20
-4.60775
11
5.97987
21
-4.60706
0
LINE
8
BLACK
6
CONTINUOUS
10
5.97987
20
-4.60706
11
5.98056
21
-4.60677
0
LINE
8
BLACK
6
CONTINUOUS
10
5.98056
20
-4.60677
11
6.06875
21
-4.60677
0
LINE
8
BLACK
6
CONTINUOUS
10
6.06875
20
-4.60677
11
6.06945
21
-4.60706
0
LINE
8
BLACK
6
CONTINUOUS
10
6.06945
20
-4.60706
11
6.06974
21
-4.60775
0
LINE
8
BLACK
6
CONTINUOUS
10
6.06974
20
-4.60775
11
6.06974
21
-4.78728
0
LINE
8
BLACK
6
CONTINUOUS
10
6.06974
20
-4.78728
11
6.06945
21
-4.78798
0
LINE
8
BLACK
6
CONTINUOUS
10
6.06945
20
-4.78798
11
6.06875
21
-4.78826
0
LINE
8
BLACK
6
CONTINUOUS
10
6.06875
20
-4.78826
11
5.98056
21
-4.78826
0
LINE
8
BLACK
6
CONTINUOUS
10
5.98056
20
-4.78826
11
5.97987
21
-4.78798
0
LINE
8
BLACK
6
CONTINUOUS
10
5.98155
20
-4.60874
11
5.98155
21
-4.7863
0
LINE
8
BLACK
6
CONTINUOUS
10
5.98155
20
-4.7863
11
6.06777
21
-4.7863
0
LINE
8
BLACK
6
CONTINUOUS
10
6.06777
20
-4.7863
11
6.06777
21
-4.60874
0
LINE
8
BLACK
6
CONTINUOUS
10
6.06777
20
-4.60874
11
5.98155
21
-4.60874
0
LINE
8
BLACK
6
CONTINUOUS
10
6.37357
20
-4.78798
11
6.37328
21
-4.78728
0
LINE
8
BLACK
6
CONTINUOUS
10
6.37328
20
-4.78728
11
6.37328
21
-4.60775
0
LINE
8
BLACK
6
CONTINUOUS
10
6.37328
20
-4.60775
11
6.37357
21
-4.60706
0
LINE
8
BLACK
6
CONTINUOUS
10
6.37357
20
-4.60706
11
6.37427
21
-4.60677
0
LINE
8
BLACK
6
CONTINUOUS
10
6.37427
20
-4.60677
11
6.46245
21
-4.60677
0
LINE
8
BLACK
6
CONTINUOUS
10
6.46245
20
-4.60677
11
6.46315
21
-4.60706
0
LINE
8
BLACK
6
CONTINUOUS
10
6.46315
20
-4.60706
11
6.46344
21
-4.60775
0
LINE
8
BLACK
6
CONTINUOUS
10
6.46344
20
-4.60775
11
6.46344
21
-4.78728
0
LINE
8
BLACK
6
CONTINUOUS
10
6.46344
20
-4.78728
11
6.46315
21
-4.78798
0
LINE
8
BLACK
6
CONTINUOUS
10
6.46315
20
-4.78798
11
6.46245
21
-4.78826
0
LINE
8
BLACK
6
CONTINUOUS
10
6.46245
20
-4.78826
11
6.37427
21
-4.78826
0
LINE
8
BLACK
6
CONTINUOUS
10
6.37427
20
-4.78826
11
6.37357
21
-4.78798
0
LINE
8
BLACK
6
CONTINUOUS
10
6.37525
20
-4.60874
11
6.37525
21
-4.7863
0
LINE
8
BLACK
6
CONTINUOUS
10
6.37525
20
-4.7863
11
6.46147
21
-4.7863
0
LINE
8
BLACK
6
CONTINUOUS
10
6.46147
20
-4.7863
11
6.46147
21
-4.60874
0
LINE
8
BLACK
6
CONTINUOUS
10
6.46147
20
-4.60874
11
6.37525
21
-4.60874
0
LINE
8
BLACK
6
CONTINUOUS
10
6.57042
20
-4.78798
11
6.57013
21
-4.78728
0
LINE
8
BLACK
6
CONTINUOUS
10
6.57013
20
-4.78728
11
6.57013
21
-4.60775
0
LINE
8
BLACK
6
CONTINUOUS
10
6.57013
20
-4.60775
11
6.57042
21
-4.60706
0
LINE
8
BLACK
6
CONTINUOUS
10
6.57042
20
-4.60706
11
6.57112
21
-4.60677
0
LINE
8
BLACK
6
CONTINUOUS
10
6.57112
20
-4.60677
11
6.6593
21
-4.60677
0
LINE
8
BLACK
6
CONTINUOUS
10
6.6593
20
-4.60677
11
6.66
21
-4.60706
0
LINE
8
BLACK
6
CONTINUOUS
10
6.66
20
-4.60706
11
6.66029
21
-4.60775
0
LINE
8
BLACK
6
CONTINUOUS
10
6.66029
20
-4.60775
11
6.66029
21
-4.78728
0
LINE
8
BLACK
6
CONTINUOUS
10
6.66029
20
-4.78728
11
6.66
21
-4.78798
0
LINE
8
BLACK
6
CONTINUOUS
10
6.66
20
-4.78798
11
6.6593
21
-4.78826
0
LINE
8
BLACK
6
CONTINUOUS
10
6.6593
20
-4.78826
11
6.57112
21
-4.78826
0
LINE
8
BLACK
6
CONTINUOUS
10
6.57112
20
-4.78826
11
6.57042
21
-4.78798
0
LINE
8
BLACK
6
CONTINUOUS
10
6.5721
20
-4.60874
11
6.5721
21
-4.7863
0
LINE
8
BLACK
6
CONTINUOUS
10
6.5721
20
-4.7863
11
6.65832
21
-4.7863
0
LINE
8
BLACK
6
CONTINUOUS
10
6.65832
20
-4.7863
11
6.65832
21
-4.60874
0
LINE
8
BLACK
6
CONTINUOUS
10
6.65832
20
-4.60874
11
6.5721
21
-4.60874
0
LINE
8
BLACK
6
CONTINUOUS
10
5.82971
20
-4.25695
11
5.82942
21
-4.25626
0
LINE
8
BLACK
6
CONTINUOUS
10
5.82942
20
-4.25626
11
5.82942
21
-4.19878
0
LINE
8
BLACK
6
CONTINUOUS
10
5.82942
20
-4.19878
11
5.82971
21
-4.19808
0
LINE
8
BLACK
6
CONTINUOUS
10
5.82971
20
-4.19808
11
5.83041
21
-4.19779
0
LINE
8
BLACK
6
CONTINUOUS
10
5.83041
20
-4.19779
11
5.94694
21
-4.19779
0
LINE
8
BLACK
6
CONTINUOUS
10
5.94694
20
-4.19779
11
5.94764
21
-4.19808
0
LINE
8
BLACK
6
CONTINUOUS
10
5.94764
20
-4.19808
11
5.94793
21
-4.19878
0
LINE
8
BLACK
6
CONTINUOUS
10
5.94793
20
-4.19878
11
5.94793
21
-4.25626
0
LINE
8
BLACK
6
CONTINUOUS
10
5.94793
20
-4.25626
11
5.94764
21
-4.25695
0
LINE
8
BLACK
6
CONTINUOUS
10
5.94764
20
-4.25695
11
5.94694
21
-4.25724
0
LINE
8
BLACK
6
CONTINUOUS
10
5.94694
20
-4.25724
11
5.83041
21
-4.25724
0
LINE
8
BLACK
6
CONTINUOUS
10
5.83041
20
-4.25724
11
5.82971
21
-4.25695
0
LINE
8
BLACK
6
CONTINUOUS
10
5.83139
20
-4.19976
11
5.83139
21
-4.25527
0
LINE
8
BLACK
6
CONTINUOUS
10
5.83139
20
-4.25527
11
5.94596
21
-4.25527
0
LINE
8
BLACK
6
CONTINUOUS
10
5.94596
20
-4.25527
11
5.94596
21
-4.19976
0
LINE
8
BLACK
6
CONTINUOUS
10
5.94596
20
-4.19976
11
5.83139
21
-4.19976
0
LINE
8
BLACK
6
CONTINUOUS
10
5.82971
20
-4.08695
11
5.82942
21
-4.08626
0
LINE
8
BLACK
6
CONTINUOUS
10
5.82942
20
-4.08626
11
5.82942
21
-4.02878
0
LINE
8
BLACK
6
CONTINUOUS
10
5.82942
20
-4.02878
11
5.82971
21
-4.02808
0
LINE
8
BLACK
6
CONTINUOUS
10
5.82971
20
-4.02808
11
5.83041
21
-4.02779
0
LINE
8
BLACK
6
CONTINUOUS
10
5.83041
20
-4.02779
11
5.94694
21
-4.02779
0
LINE
8
BLACK
6
CONTINUOUS
10
5.94694
20
-4.02779
11
5.94764
21
-4.02808
0
LINE
8
BLACK
6
CONTINUOUS
10
5.94764
20
-4.02808
11
5.94793
21
-4.02878
0
LINE
8
BLACK
6
CONTINUOUS
10
5.94793
20
-4.02878
11
5.94793
21
-4.08626
0
LINE
8
BLACK
6
CONTINUOUS
10
5.94793
20
-4.08626
11
5.94764
21
-4.08695
0
LINE
8
BLACK
6
CONTINUOUS
10
5.94764
20
-4.08695
11
5.94694
21
-4.08724
0
LINE
8
BLACK
6
CONTINUOUS
10
5.94694
20
-4.08724
11
5.83041
21
-4.08724
0
LINE
8
BLACK
6
CONTINUOUS
10
5.83041
20
-4.08724
11
5.82971
21
-4.08695
0
LINE
8
BLACK
6
CONTINUOUS
10
5.83139
20
-4.02976
11
5.83139
21
-4.08527
0
LINE
8
BLACK
6
CONTINUOUS
10
5.83139
20
-4.08527
11
5.94596
21
-4.08527
0
LINE
8
BLACK
6
CONTINUOUS
10
5.94596
20
-4.08527
11
5.94596
21
-4.02976
0
LINE
8
BLACK
6
CONTINUOUS
10
5.94596
20
-4.02976
11
5.83139
21
-4.02976
0
LINE
8
BLACK
6
CONTINUOUS
10
5.82971
20
-4.00695
11
5.82942
21
-4.00626
0
LINE
8
BLACK
6
CONTINUOUS
10
5.82942
20
-4.00626
11
5.82942
21
-3.94878
0
LINE
8
BLACK
6
CONTINUOUS
10
5.82942
20
-3.94878
11
5.82971
21
-3.94808
0
LINE
8
BLACK
6
CONTINUOUS
10
5.82971
20
-3.94808
11
5.83041
21
-3.94779
0
LINE
8
BLACK
6
CONTINUOUS
10
5.83041
20
-3.94779
11
5.94694
21
-3.94779
0
LINE
8
BLACK
6
CONTINUOUS
10
5.94694
20
-3.94779
11
5.94764
21
-3.94808
0
LINE
8
BLACK
6
CONTINUOUS
10
5.94764
20
-3.94808
11
5.94793
21
-3.94878
0
LINE
8
BLACK
6
CONTINUOUS
10
5.94793
20
-3.94878
11
5.94793
21
-4.00626
0
LINE
8
BLACK
6
CONTINUOUS
10
5.94793
20
-4.00626
11
5.94764
21
-4.00695
0
LINE
8
BLACK
6
CONTINUOUS
10
5.94764
20
-4.00695
11
5.94694
21
-4.00724
0
LINE
8
BLACK
6
CONTINUOUS
10
5.94694
20
-4.00724
11
5.83041
21
-4.00724
0
LINE
8
BLACK
6
CONTINUOUS
10
5.83041
20
-4.00724
11
5.82971
21
-4.00695
0
LINE
8
BLACK
6
CONTINUOUS
10
5.83139
20
-3.94976
11
5.83139
21
-4.00527
0
LINE
8
BLACK
6
CONTINUOUS
10
5.83139
20
-4.00527
11
5.94596
21
-4.00527
0
LINE
8
BLACK
6
CONTINUOUS
10
5.94596
20
-4.00527
11
5.94596
21
-3.94976
0
LINE
8
BLACK
6
CONTINUOUS
10
5.94596
20
-3.94976
11
5.83139
21
-3.94976
0
LINE
8
BLACK
6
CONTINUOUS
10
5.82971
20
-3.92695
11
5.82942
21
-3.92626
0
LINE
8
BLACK
6
CONTINUOUS
10
5.82942
20
-3.92626
11
5.82942
21
-3.86878
0
LINE
8
BLACK
6
CONTINUOUS
10
5.82942
20
-3.86878
11
5.82971
21
-3.86808
0
LINE
8
BLACK
6
CONTINUOUS
10
5.82971
20
-3.86808
11
5.83041
21
-3.86779
0
LINE
8
BLACK
6
CONTINUOUS
10
5.83041
20
-3.86779
11
5.94694
21
-3.86779
0
LINE
8
BLACK
6
CONTINUOUS
10
5.94694
20
-3.86779
11
5.94764
21
-3.86808
0
LINE
8
BLACK
6
CONTINUOUS
10
5.94764
20
-3.86808
11
5.94793
21
-3.86878
0
LINE
8
BLACK
6
CONTINUOUS
10
5.94793
20
-3.86878
11
5.94793
21
-3.92626
0
LINE
8
BLACK
6
CONTINUOUS
10
5.94793
20
-3.92626
11
5.94764
21
-3.92695
0
LINE
8
BLACK
6
CONTINUOUS
10
5.94764
20
-3.92695
11
5.94694
21
-3.92724
0
LINE
8
BLACK
6
CONTINUOUS
10
5.94694
20
-3.92724
11
5.83041
21
-3.92724
0
LINE
8
BLACK
6
CONTINUOUS
10
5.83041
20
-3.92724
11
5.82971
21
-3.92695
0
LINE
8
BLACK
6
CONTINUOUS
10
5.83139
20
-3.86976
11
5.83139
21
-3.92527
0
LINE
8
BLACK
6
CONTINUOUS
10
5.83139
20
-3.92527
11
5.94596
21
-3.92527
0
LINE
8
BLACK
6
CONTINUOUS
10
5.94596
20
-3.92527
11
5.94596
21
-3.86976
0
LINE
8
BLACK
6
CONTINUOUS
10
5.94596
20
-3.86976
11
5.83139
21
-3.86976
0
LINE
8
BLACK
6
CONTINUOUS
10
5.42774
20
-3.78995
11
5.42745
21
-3.78925
0
LINE
8
BLACK
6
CONTINUOUS
10
5.42745
20
-3.78925
11
5.42745
21
-3.31287
0
LINE
8
BLACK
6
CONTINUOUS
10
5.42745
20
-3.31287
11
5.42774
21
-3.31218
0
LINE
8
BLACK
6
CONTINUOUS
10
5.42774
20
-3.31218
11
5.42844
21
-3.31189
0
LINE
8
BLACK
6
CONTINUOUS
10
5.42844
20
-3.31189
11
5.64891
21
-3.31189
0
LINE
8
BLACK
6
CONTINUOUS
10
5.64891
20
-3.31189
11
5.64961
21
-3.31218
0
LINE
8
BLACK
6
CONTINUOUS
10
5.64961
20
-3.31218
11
5.6499
21
-3.31287
0
LINE
8
BLACK
6
CONTINUOUS
10
5.6499
20
-3.31287
11
5.6499
21
-3.78925
0
LINE
8
BLACK
6
CONTINUOUS
10
5.6499
20
-3.78925
11
5.64961
21
-3.78995
0
LINE
8
BLACK
6
CONTINUOUS
10
5.64961
20
-3.78995
11
5.64891
21
-3.79023
0
LINE
8
BLACK
6
CONTINUOUS
10
5.64891
20
-3.79023
11
5.42844
21
-3.79023
0
LINE
8
BLACK
6
CONTINUOUS
10
5.42844
20
-3.79023
11
5.42774
21
-3.78995
0
LINE
8
BLACK
6
CONTINUOUS
10
5.42942
20
-3.31386
11
5.42942
21
-3.78826
0
LINE
8
BLACK
6
CONTINUOUS
10
5.42942
20
-3.78826
11
5.64793
21
-3.78826
0
LINE
8
BLACK
6
CONTINUOUS
10
5.64793
20
-3.78826
11
5.64793
21
-3.31386
0
LINE
8
BLACK
6
CONTINUOUS
10
5.64793
20
-3.31386
11
5.42942
21
-3.31386
0
LINE
8
BLACK
6
CONTINUOUS
10
5.82971
20
-3.76695
11
5.82942
21
-3.76626
0
LINE
8
BLACK
6
CONTINUOUS
10
5.82942
20
-3.76626
11
5.82942
21
-3.70878
0
LINE
8
BLACK
6
CONTINUOUS
10
5.82942
20
-3.70878
11
5.82971
21
-3.70808
0
LINE
8
BLACK
6
CONTINUOUS
10
5.82971
20
-3.70808
11
5.83041
21
-3.70779
0
LINE
8
BLACK
6
CONTINUOUS
10
5.83041
20
-3.70779
11
5.94694
21
-3.70779
0
LINE
8
BLACK
6
CONTINUOUS
10
5.94694
20
-3.70779
11
5.94764
21
-3.70808
0
LINE
8
BLACK
6
CONTINUOUS
10
5.94764
20
-3.70808
11
5.94793
21
-3.70878
0
LINE
8
BLACK
6
CONTINUOUS
10
5.94793
20
-3.70878
11
5.94793
21
-3.76626
0
LINE
8
BLACK
6
CONTINUOUS
10
5.94793
20
-3.76626
11
5.94764
21
-3.76695
0
LINE
8
BLACK
6
CONTINUOUS
10
5.94764
20
-3.76695
11
5.94694
21
-3.76724
0
LINE
8
BLACK
6
CONTINUOUS
10
5.94694
20
-3.76724
11
5.83041
21
-3.76724
0
LINE
8
BLACK
6
CONTINUOUS
10
5.83041
20
-3.76724
11
5.82971
21
-3.76695
0
LINE
8
BLACK
6
CONTINUOUS
10
5.83139
20
-3.70976
11
5.83139
21
-3.76527
0
LINE
8
BLACK
6
CONTINUOUS
10
5.83139
20
-3.76527
11
5.94596
21
-3.76527
0
LINE
8
BLACK
6
CONTINUOUS
10
5.94596
20
-3.76527
11
5.94596
21
-3.70976
0
LINE
8
BLACK
6
CONTINUOUS
10
5.94596
20
-3.70976
11
5.83139
21
-3.70976
0
LINE
8
BLACK
6
CONTINUOUS
10
5.82971
20
-3.67286
11
5.82942
21
-3.67216
0
LINE
8
BLACK
6
CONTINUOUS
10
5.82942
20
-3.67216
11
5.82942
21
-3.61468
0
LINE
8
BLACK
6
CONTINUOUS
10
5.82942
20
-3.61468
11
5.82971
21
-3.61399
0
LINE
8
BLACK
6
CONTINUOUS
10
5.82971
20
-3.61399
11
5.83041
21
-3.6137
0
LINE
8
BLACK
6
CONTINUOUS
10
5.83041
20
-3.6137
11
5.94694
21
-3.6137
0
LINE
8
BLACK
6
CONTINUOUS
10
5.94694
20
-3.6137
11
5.94764
21
-3.61399
0
LINE
8
BLACK
6
CONTINUOUS
10
5.94764
20
-3.61399
11
5.94793
21
-3.61468
0
LINE
8
BLACK
6
CONTINUOUS
10
5.94793
20
-3.61468
11
5.94793
21
-3.67216
0
LINE
8
BLACK
6
CONTINUOUS
10
5.94793
20
-3.67216
11
5.94764
21
-3.67286
0
LINE
8
BLACK
6
CONTINUOUS
10
5.94764
20
-3.67286
11
5.94694
21
-3.67315
0
LINE
8
BLACK
6
CONTINUOUS
10
5.94694
20
-3.67315
11
5.83041
21
-3.67315
0
LINE
8
BLACK
6
CONTINUOUS
10
5.83041
20
-3.67315
11
5.82971
21
-3.67286
0
LINE
8
BLACK
6
CONTINUOUS
10
5.83139
20
-3.61567
11
5.83139
21
-3.67118
0
LINE
8
BLACK
6
CONTINUOUS
10
5.83139
20
-3.67118
11
5.94596
21
-3.67118
0
LINE
8
BLACK
6
CONTINUOUS
10
5.94596
20
-3.67118
11
5.94596
21
-3.61567
0
LINE
8
BLACK
6
CONTINUOUS
10
5.94596
20
-3.61567
11
5.83139
21
-3.61567
0
LINE
8
BLACK
6
CONTINUOUS
10
5.3857
20
-3.29719
11
5.38541
21
-3.29649
0
LINE
8
BLACK
6
CONTINUOUS
10
5.38541
20
-3.29649
11
5.38541
21
-2.90673
0
LINE
8
BLACK
6
CONTINUOUS
10
5.38541
20
-2.90673
11
5.3857
21
-2.90603
0
LINE
8
BLACK
6
CONTINUOUS
10
5.3857
20
-2.90603
11
5.38639
21
-2.90575
0
LINE
8
BLACK
6
CONTINUOUS
10
5.38639
20
-2.90575
11
5.85096
21
-2.90575
0
LINE
8
BLACK
6
CONTINUOUS
10
5.85096
20
-2.90575
11
5.85165
21
-2.90603
0
LINE
8
BLACK
6
CONTINUOUS
10
5.85165
20
-2.90603
11
5.85194
21
-2.90673
0
LINE
8
BLACK
6
CONTINUOUS
10
5.85194
20
-2.90673
11
5.85194
21
-3.29649
0
LINE
8
BLACK
6
CONTINUOUS
10
5.85194
20
-3.29649
11
5.85165
21
-3.29719
0
LINE
8
BLACK
6
CONTINUOUS
10
5.85165
20
-3.29719
11
5.85096
21
-3.29748
0
LINE
8
BLACK
6
CONTINUOUS
10
5.85096
20
-3.29748
11
5.38639
21
-3.29748
0
LINE
8
BLACK
6
CONTINUOUS
10
5.38639
20
-3.29748
11
5.3857
21
-3.29719
0
LINE
8
BLACK
6
CONTINUOUS
10
5.38738
20
-2.90771
11
5.38738
21
-3.29551
0
LINE
8
BLACK
6
CONTINUOUS
10
5.38738
20
-3.29551
11
5.84997
21
-3.29551
0
LINE
8
BLACK
6
CONTINUOUS
10
5.84997
20
-3.29551
11
5.84997
21
-2.90771
0
LINE
8
BLACK
6
CONTINUOUS
10
5.84997
20
-2.90771
11
5.38738
21
-2.90771
0
LINE
8
BLACK
6
CONTINUOUS
10
6.57042
20
-3.18798
11
6.57013
21
-3.18728
0
LINE
8
BLACK
6
CONTINUOUS
10
6.57013
20
-3.18728
11
6.57013
21
-3.00775
0
LINE
8
BLACK
6
CONTINUOUS
10
6.57013
20
-3.00775
11
6.57042
21
-3.00706
0
LINE
8
BLACK
6
CONTINUOUS
10
6.57042
20
-3.00706
11
6.57112
21
-3.00677
0
LINE
8
BLACK
6
CONTINUOUS
10
6.57112
20
-3.00677
11
6.6593
21
-3.00677
0
LINE
8
BLACK
6
CONTINUOUS
10
6.6593
20
-3.00677
11
6.66
21
-3.00706
0
LINE
8
BLACK
6
CONTINUOUS
10
6.66
20
-3.00706
11
6.66029
21
-3.00775
0
LINE
8
BLACK
6
CONTINUOUS
10
6.66029
20
-3.00775
11
6.66029
21
-3.18728
0
LINE
8
BLACK
6
CONTINUOUS
10
6.66029
20
-3.18728
11
6.66
21
-3.18798
0
LINE
8
BLACK
6
CONTINUOUS
10
6.66
20
-3.18798
11
6.6593
21
-3.18826
0
LINE
8
BLACK
6
CONTINUOUS
10
6.6593
20
-3.18826
11
6.57112
21
-3.18826
0
LINE
8
BLACK
6
CONTINUOUS
10
6.57112
20
-3.18826
11
6.57042
21
-3.18798
0
LINE
8
BLACK
6
CONTINUOUS
10
6.5721
20
-3.00874
11
6.5721
21
-3.1863
0
LINE
8
BLACK
6
CONTINUOUS
10
6.5721
20
-3.1863
11
6.65832
21
-3.1863
0
LINE
8
BLACK
6
CONTINUOUS
10
6.65832
20
-3.1863
11
6.65832
21
-3.00874
0
LINE
8
BLACK
6
CONTINUOUS
10
6.65832
20
-3.00874
11
6.5721
21
-3.00874
  0
ENDSEC
  0
EOF
