  0
SECTION
  2
HEADER
  9
$ANGBASE
  50
0.0
  9
$ANGDIR
  70
1
  9
$MEASUREMENT
  70
0
  0
ENDSEC
  0
SECTION
  2
TABLES
  0
TABLE
  2
LTYPE
  70
4
  0
LTYPE
  5
40F
  2
CONTINUOUS
  70
0
  3
Solid line
  72
65
  73
0
  40
0.0
  0
LTYPE
  5
410
  2
DASHDOT
 70
0
  3
Dash Dot ____ _ ____ _
 72
65
 73
4
 40
2.0
 49
1.25
 49
-0.25
 49
0.25
 49
-0.25
  0
LTYPE
  5
411
  2
DASHED
 70
0
  3
Dashed __ __ __ __ __
 72
65
 73
2
 40
0.75
 49
0.5
 49
-0.25
  0
LTYPE
  5
43B
  2
DOTTED
 70
0
  3
Dotted .  .  .  .
 72
65
 73
2
 40
0.2
 49
0.0
 49
-0.2
  0
ENDTAB
  0
TABLE
  2
STYLE
  70
4
  0
STYLE
  2
KICAD
  70
0
  40
0
  41
1
  42
1
  50
0
  71
0
  3
isocp.shx
  0
STYLE
  2
KICADB
  70
0
  40
0
  41
1
  42
1
  50
0
  71
0
  3
isocp.shx
  0
STYLE
  2
KICADI
  70
0
  40
0
  41
1
  42
1
  50
15
  71
0
  3
isocp.shx
  0
STYLE
  2
KICADBI
  70
0
  40
0
  41
1
  42
1
  50
15
  71
0
  3
isocp.shx
  0
ENDTAB
  0
TABLE
  2
LAYER
  70
1
  0
LAYER
  2
BLACK
  70
0
  62
7
  6
CONTINUOUS
  0
ENDTAB
  0
ENDSEC
  0
SECTION
  2
ENTITIES
0
LINE
8
BLACK
6
CONTINUOUS
10
4.8921
20
-2.90809
11
4.89267
21
-2.90947
0
LINE
8
BLACK
6
CONTINUOUS
10
4.89267
20
-2.90947
11
4.89267
21
-4.88557
0
LINE
8
BLACK
6
CONTINUOUS
10
4.89267
20
-4.88557
11
4.8921
21
-4.88695
0
LINE
8
BLACK
6
CONTINUOUS
10
4.8921
20
-4.88695
11
4.89073
21
-4.88752
0
LINE
8
BLACK
6
CONTINUOUS
10
4.89073
20
-4.88752
11
3.90062
21
-4.88752
0
LINE
8
BLACK
6
CONTINUOUS
10
3.90062
20
-4.88752
11
3.89925
21
-4.88695
0
LINE
8
BLACK
6
CONTINUOUS
10
3.89925
20
-4.88695
11
3.89867
21
-4.88557
0
LINE
8
BLACK
6
CONTINUOUS
10
3.89867
20
-4.88557
11
3.89867
21
-2.90947
0
LINE
8
BLACK
6
CONTINUOUS
10
3.89867
20
-2.90947
11
3.89925
21
-2.90809
0
LINE
8
BLACK
6
CONTINUOUS
10
3.89925
20
-2.90809
11
3.90062
21
-2.90752
0
LINE
8
BLACK
6
CONTINUOUS
10
3.90062
20
-2.90752
11
4.89073
21
-2.90752
0
LINE
8
BLACK
6
CONTINUOUS
10
4.89073
20
-2.90752
11
4.8921
21
-2.90809
0
LINE
8
BLACK
6
CONTINUOUS
10
7.23094
20
-4.77914
11
7.23669
21
-4.78152
0
LINE
8
BLACK
6
CONTINUOUS
10
7.23669
20
-4.78152
11
7.24162
21
-4.7853
0
LINE
8
BLACK
6
CONTINUOUS
10
7.24162
20
-4.7853
11
7.2454
21
-4.79023
0
LINE
8
BLACK
6
CONTINUOUS
10
7.2454
20
-4.79023
11
7.24778
21
-4.79598
0
LINE
8
BLACK
6
CONTINUOUS
10
7.24778
20
-4.79598
11
7.2486
21
-4.80214
0
LINE
8
BLACK
6
CONTINUOUS
10
7.2486
20
-4.80214
11
7.24778
21
-4.80831
0
LINE
8
BLACK
6
CONTINUOUS
10
7.24778
20
-4.80831
11
7.2454
21
-4.81405
0
LINE
8
BLACK
6
CONTINUOUS
10
7.2454
20
-4.81405
11
7.24162
21
-4.81899
0
LINE
8
BLACK
6
CONTINUOUS
10
7.24162
20
-4.81899
11
7.23669
21
-4.82277
0
LINE
8
BLACK
6
CONTINUOUS
10
7.23669
20
-4.82277
11
7.23094
21
-4.82515
0
LINE
8
BLACK
6
CONTINUOUS
10
7.23094
20
-4.82515
11
7.22478
21
-4.82596
0
LINE
8
BLACK
6
CONTINUOUS
10
7.22478
20
-4.82596
11
7.18344
21
-4.82596
0
LINE
8
BLACK
6
CONTINUOUS
10
7.18344
20
-4.82596
11
7.17727
21
-4.82515
0
LINE
8
BLACK
6
CONTINUOUS
10
7.17727
20
-4.82515
11
7.17153
21
-4.82277
0
LINE
8
BLACK
6
CONTINUOUS
10
7.17153
20
-4.82277
11
7.1666
21
-4.81899
0
LINE
8
BLACK
6
CONTINUOUS
10
7.1666
20
-4.81899
11
7.16281
21
-4.81405
0
LINE
8
BLACK
6
CONTINUOUS
10
7.16281
20
-4.81405
11
7.16043
21
-4.80831
0
LINE
8
BLACK
6
CONTINUOUS
10
7.16043
20
-4.80831
11
7.15962
21
-4.80214
0
LINE
8
BLACK
6
CONTINUOUS
10
7.15962
20
-4.80214
11
7.16043
21
-4.79598
0
LINE
8
BLACK
6
CONTINUOUS
10
7.16043
20
-4.79598
11
7.16281
21
-4.79023
0
LINE
8
BLACK
6
CONTINUOUS
10
7.16281
20
-4.79023
11
7.1666
21
-4.7853
0
LINE
8
BLACK
6
CONTINUOUS
10
7.1666
20
-4.7853
11
7.17153
21
-4.78152
0
LINE
8
BLACK
6
CONTINUOUS
10
7.17153
20
-4.78152
11
7.17727
21
-4.77914
0
LINE
8
BLACK
6
CONTINUOUS
10
7.17727
20
-4.77914
11
7.18344
21
-4.77832
0
LINE
8
BLACK
6
CONTINUOUS
10
7.18344
20
-4.77832
11
7.22478
21
-4.77832
0
LINE
8
BLACK
6
CONTINUOUS
10
7.22478
20
-4.77832
11
7.23094
21
-4.77914
0
LINE
8
BLACK
6
CONTINUOUS
10
7.39427
20
-4.78009
11
7.39978
21
-4.78237
0
LINE
8
BLACK
6
CONTINUOUS
10
7.39978
20
-4.78237
11
7.40451
21
-4.786
0
LINE
8
BLACK
6
CONTINUOUS
10
7.40451
20
-4.786
11
7.40814
21
-4.79073
0
LINE
8
BLACK
6
CONTINUOUS
10
7.40814
20
-4.79073
11
7.41042
21
-4.79623
0
LINE
8
BLACK
6
CONTINUOUS
10
7.41042
20
-4.79623
11
7.41119
21
-4.80214
0
LINE
8
BLACK
6
CONTINUOUS
10
7.41119
20
-4.80214
11
7.41042
21
-4.80805
0
LINE
8
BLACK
6
CONTINUOUS
10
7.41042
20
-4.80805
11
7.40814
21
-4.81356
0
LINE
8
BLACK
6
CONTINUOUS
10
7.40814
20
-4.81356
11
7.40451
21
-4.81829
0
LINE
8
BLACK
6
CONTINUOUS
10
7.40451
20
-4.81829
11
7.39978
21
-4.82192
0
LINE
8
BLACK
6
CONTINUOUS
10
7.39978
20
-4.82192
11
7.39427
21
-4.8242
0
LINE
8
BLACK
6
CONTINUOUS
10
7.39427
20
-4.8242
11
7.38836
21
-4.82498
0
LINE
8
BLACK
6
CONTINUOUS
10
7.38836
20
-4.82498
11
7.34899
21
-4.82498
0
LINE
8
BLACK
6
CONTINUOUS
10
7.34899
20
-4.82498
11
7.34308
21
-4.8242
0
LINE
8
BLACK
6
CONTINUOUS
10
7.34308
20
-4.8242
11
7.33757
21
-4.82192
0
LINE
8
BLACK
6
CONTINUOUS
10
7.33757
20
-4.82192
11
7.33284
21
-4.81829
0
LINE
8
BLACK
6
CONTINUOUS
10
7.33284
20
-4.81829
11
7.32921
21
-4.81356
0
LINE
8
BLACK
6
CONTINUOUS
10
7.32921
20
-4.81356
11
7.32693
21
-4.80805
0
LINE
8
BLACK
6
CONTINUOUS
10
7.32693
20
-4.80805
11
7.32616
21
-4.80214
0
LINE
8
BLACK
6
CONTINUOUS
10
7.32616
20
-4.80214
11
7.32693
21
-4.79623
0
LINE
8
BLACK
6
CONTINUOUS
10
7.32693
20
-4.79623
11
7.32921
21
-4.79073
0
LINE
8
BLACK
6
CONTINUOUS
10
7.32921
20
-4.79073
11
7.33284
21
-4.786
0
LINE
8
BLACK
6
CONTINUOUS
10
7.33284
20
-4.786
11
7.33757
21
-4.78237
0
LINE
8
BLACK
6
CONTINUOUS
10
7.33757
20
-4.78237
11
7.34308
21
-4.78009
0
LINE
8
BLACK
6
CONTINUOUS
10
7.34308
20
-4.78009
11
7.34899
21
-4.77931
0
LINE
8
BLACK
6
CONTINUOUS
10
7.34899
20
-4.77931
11
7.38836
21
-4.77931
0
LINE
8
BLACK
6
CONTINUOUS
10
7.38836
20
-4.77931
11
7.39427
21
-4.78009
0
LINE
8
BLACK
6
CONTINUOUS
10
4.99636
20
-4.7449
11
5.00374
21
-4.74714
0
LINE
8
BLACK
6
CONTINUOUS
10
5.00374
20
-4.74714
11
5.01055
21
-4.75078
0
LINE
8
BLACK
6
CONTINUOUS
10
5.01055
20
-4.75078
11
5.01651
21
-4.75568
0
LINE
8
BLACK
6
CONTINUOUS
10
5.01651
20
-4.75568
11
5.02141
21
-4.76164
0
LINE
8
BLACK
6
CONTINUOUS
10
5.02141
20
-4.76164
11
5.02505
21
-4.76845
0
LINE
8
BLACK
6
CONTINUOUS
10
5.02505
20
-4.76845
11
5.02729
21
-4.77584
0
LINE
8
BLACK
6
CONTINUOUS
10
5.02729
20
-4.77584
11
5.02804
21
-4.78352
0
LINE
8
BLACK
6
CONTINUOUS
10
5.02804
20
-4.78352
11
5.02729
21
-4.7912
0
LINE
8
BLACK
6
CONTINUOUS
10
5.02729
20
-4.7912
11
5.02505
21
-4.79858
0
LINE
8
BLACK
6
CONTINUOUS
10
5.02505
20
-4.79858
11
5.02141
21
-4.80539
0
LINE
8
BLACK
6
CONTINUOUS
10
5.02141
20
-4.80539
11
5.01651
21
-4.81136
0
LINE
8
BLACK
6
CONTINUOUS
10
5.01651
20
-4.81136
11
5.01055
21
-4.81625
0
LINE
8
BLACK
6
CONTINUOUS
10
5.01055
20
-4.81625
11
5.00374
21
-4.81989
0
LINE
8
BLACK
6
CONTINUOUS
10
5.00374
20
-4.81989
11
4.99636
21
-4.82213
0
LINE
8
BLACK
6
CONTINUOUS
10
4.99636
20
-4.82213
11
4.98867
21
-4.82289
0
LINE
8
BLACK
6
CONTINUOUS
10
4.98867
20
-4.82289
11
4.98099
21
-4.82213
0
LINE
8
BLACK
6
CONTINUOUS
10
4.98099
20
-4.82213
11
4.97361
21
-4.81989
0
LINE
8
BLACK
6
CONTINUOUS
10
4.97361
20
-4.81989
11
4.9668
21
-4.81625
0
LINE
8
BLACK
6
CONTINUOUS
10
4.9668
20
-4.81625
11
4.96084
21
-4.81136
0
LINE
8
BLACK
6
CONTINUOUS
10
4.96084
20
-4.81136
11
4.95594
21
-4.80539
0
LINE
8
BLACK
6
CONTINUOUS
10
4.95594
20
-4.80539
11
4.9523
21
-4.79858
0
LINE
8
BLACK
6
CONTINUOUS
10
4.9523
20
-4.79858
11
4.95006
21
-4.7912
0
LINE
8
BLACK
6
CONTINUOUS
10
4.95006
20
-4.7912
11
4.9493
21
-4.78352
0
LINE
8
BLACK
6
CONTINUOUS
10
4.9493
20
-4.78352
11
4.95006
21
-4.77584
0
LINE
8
BLACK
6
CONTINUOUS
10
4.95006
20
-4.77584
11
4.9523
21
-4.76845
0
LINE
8
BLACK
6
CONTINUOUS
10
4.9523
20
-4.76845
11
4.95594
21
-4.76164
0
LINE
8
BLACK
6
CONTINUOUS
10
4.95594
20
-4.76164
11
4.96084
21
-4.75568
0
LINE
8
BLACK
6
CONTINUOUS
10
4.96084
20
-4.75568
11
4.9668
21
-4.75078
0
LINE
8
BLACK
6
CONTINUOUS
10
4.9668
20
-4.75078
11
4.97361
21
-4.74714
0
LINE
8
BLACK
6
CONTINUOUS
10
4.97361
20
-4.74714
11
4.98099
21
-4.7449
0
LINE
8
BLACK
6
CONTINUOUS
10
4.98099
20
-4.7449
11
4.98867
21
-4.74415
0
LINE
8
BLACK
6
CONTINUOUS
10
4.98867
20
-4.74415
11
4.99636
21
-4.7449
0
LINE
8
BLACK
6
CONTINUOUS
10
6.90225
20
-4.57702
11
6.91566
21
-4.5793
0
LINE
8
BLACK
6
CONTINUOUS
10
6.91566
20
-4.5793
11
6.92872
21
-4.58306
0
LINE
8
BLACK
6
CONTINUOUS
10
6.92872
20
-4.58306
11
6.94129
21
-4.58827
0
LINE
8
BLACK
6
CONTINUOUS
10
6.94129
20
-4.58827
11
6.95319
21
-4.59484
0
LINE
8
BLACK
6
CONTINUOUS
10
6.95319
20
-4.59484
11
6.96428
21
-4.60271
0
LINE
8
BLACK
6
CONTINUOUS
10
6.96428
20
-4.60271
11
6.97442
21
-4.61177
0
LINE
8
BLACK
6
CONTINUOUS
10
6.97442
20
-4.61177
11
6.98348
21
-4.62191
0
LINE
8
BLACK
6
CONTINUOUS
10
6.98348
20
-4.62191
11
6.99135
21
-4.633
0
LINE
8
BLACK
6
CONTINUOUS
10
6.99135
20
-4.633
11
6.99793
21
-4.6449
0
LINE
8
BLACK
6
CONTINUOUS
10
6.99793
20
-4.6449
11
7.00313
21
-4.65747
0
LINE
8
BLACK
6
CONTINUOUS
10
7.00313
20
-4.65747
11
7.00689
21
-4.67053
0
LINE
8
BLACK
6
CONTINUOUS
10
7.00689
20
-4.67053
11
7.00917
21
-4.68394
0
LINE
8
BLACK
6
CONTINUOUS
10
7.00917
20
-4.68394
11
7.00993
21
-4.69752
0
LINE
8
BLACK
6
CONTINUOUS
10
7.00993
20
-4.69752
11
7.00917
21
-4.71109
0
LINE
8
BLACK
6
CONTINUOUS
10
7.00917
20
-4.71109
11
7.00689
21
-4.7245
0
LINE
8
BLACK
6
CONTINUOUS
10
7.00689
20
-4.7245
11
7.00313
21
-4.73757
0
LINE
8
BLACK
6
CONTINUOUS
10
7.00313
20
-4.73757
11
6.99793
21
-4.75013
0
LINE
8
BLACK
6
CONTINUOUS
10
6.99793
20
-4.75013
11
6.99135
21
-4.76203
0
LINE
8
BLACK
6
CONTINUOUS
10
6.99135
20
-4.76203
11
6.98348
21
-4.77312
0
LINE
8
BLACK
6
CONTINUOUS
10
6.98348
20
-4.77312
11
6.97442
21
-4.78326
0
LINE
8
BLACK
6
CONTINUOUS
10
6.97442
20
-4.78326
11
6.96428
21
-4.79232
0
LINE
8
BLACK
6
CONTINUOUS
10
6.96428
20
-4.79232
11
6.95319
21
-4.80019
0
LINE
8
BLACK
6
CONTINUOUS
10
6.95319
20
-4.80019
11
6.94129
21
-4.80677
0
LINE
8
BLACK
6
CONTINUOUS
10
6.94129
20
-4.80677
11
6.92872
21
-4.81197
0
LINE
8
BLACK
6
CONTINUOUS
10
6.92872
20
-4.81197
11
6.91566
21
-4.81574
0
LINE
8
BLACK
6
CONTINUOUS
10
6.91566
20
-4.81574
11
6.90225
21
-4.81801
0
LINE
8
BLACK
6
CONTINUOUS
10
6.90225
20
-4.81801
11
6.88867
21
-4.81878
0
LINE
8
BLACK
6
CONTINUOUS
10
6.88867
20
-4.81878
11
6.8751
21
-4.81801
0
LINE
8
BLACK
6
CONTINUOUS
10
6.8751
20
-4.81801
11
6.86169
21
-4.81574
0
LINE
8
BLACK
6
CONTINUOUS
10
6.86169
20
-4.81574
11
6.84863
21
-4.81197
0
LINE
8
BLACK
6
CONTINUOUS
10
6.84863
20
-4.81197
11
6.83606
21
-4.80677
0
LINE
8
BLACK
6
CONTINUOUS
10
6.83606
20
-4.80677
11
6.82416
21
-4.80019
0
LINE
8
BLACK
6
CONTINUOUS
10
6.82416
20
-4.80019
11
6.81307
21
-4.79232
0
LINE
8
BLACK
6
CONTINUOUS
10
6.81307
20
-4.79232
11
6.80293
21
-4.78326
0
LINE
8
BLACK
6
CONTINUOUS
10
6.80293
20
-4.78326
11
6.79387
21
-4.77312
0
LINE
8
BLACK
6
CONTINUOUS
10
6.79387
20
-4.77312
11
6.786
21
-4.76203
0
LINE
8
BLACK
6
CONTINUOUS
10
6.786
20
-4.76203
11
6.77942
21
-4.75013
0
LINE
8
BLACK
6
CONTINUOUS
10
6.77942
20
-4.75013
11
6.77422
21
-4.73757
0
LINE
8
BLACK
6
CONTINUOUS
10
6.77422
20
-4.73757
11
6.77046
21
-4.7245
0
LINE
8
BLACK
6
CONTINUOUS
10
6.77046
20
-4.7245
11
6.76818
21
-4.71109
0
LINE
8
BLACK
6
CONTINUOUS
10
6.76818
20
-4.71109
11
6.76741
21
-4.69752
0
LINE
8
BLACK
6
CONTINUOUS
10
6.76741
20
-4.69752
11
6.76818
21
-4.68394
0
LINE
8
BLACK
6
CONTINUOUS
10
6.76818
20
-4.68394
11
6.77046
21
-4.67053
0
LINE
8
BLACK
6
CONTINUOUS
10
6.77046
20
-4.67053
11
6.77422
21
-4.65747
0
LINE
8
BLACK
6
CONTINUOUS
10
6.77422
20
-4.65747
11
6.77942
21
-4.6449
0
LINE
8
BLACK
6
CONTINUOUS
10
6.77942
20
-4.6449
11
6.786
21
-4.633
0
LINE
8
BLACK
6
CONTINUOUS
10
6.786
20
-4.633
11
6.79387
21
-4.62191
0
LINE
8
BLACK
6
CONTINUOUS
10
6.79387
20
-4.62191
11
6.80293
21
-4.61177
0
LINE
8
BLACK
6
CONTINUOUS
10
6.80293
20
-4.61177
11
6.81307
21
-4.60271
0
LINE
8
BLACK
6
CONTINUOUS
10
6.81307
20
-4.60271
11
6.82416
21
-4.59484
0
LINE
8
BLACK
6
CONTINUOUS
10
6.82416
20
-4.59484
11
6.83606
21
-4.58827
0
LINE
8
BLACK
6
CONTINUOUS
10
6.83606
20
-4.58827
11
6.84863
21
-4.58306
0
LINE
8
BLACK
6
CONTINUOUS
10
6.84863
20
-4.58306
11
6.86169
21
-4.5793
0
LINE
8
BLACK
6
CONTINUOUS
10
6.86169
20
-4.5793
11
6.8751
21
-4.57702
0
LINE
8
BLACK
6
CONTINUOUS
10
6.8751
20
-4.57702
11
6.88867
21
-4.57626
0
LINE
8
BLACK
6
CONTINUOUS
10
6.88867
20
-4.57626
11
6.90225
21
-4.57702
0
LINE
8
BLACK
6
CONTINUOUS
10
5.85578
20
-4.72532
11
5.85987
21
-4.72723
0
LINE
8
BLACK
6
CONTINUOUS
10
5.85987
20
-4.72723
11
5.86306
21
-4.73042
0
LINE
8
BLACK
6
CONTINUOUS
10
5.86306
20
-4.73042
11
5.86496
21
-4.73451
0
LINE
8
BLACK
6
CONTINUOUS
10
5.86496
20
-4.73451
11
5.86541
21
-4.73787
0
LINE
8
BLACK
6
CONTINUOUS
10
5.86541
20
-4.73787
11
5.86541
21
-4.7674
0
LINE
8
BLACK
6
CONTINUOUS
10
5.86541
20
-4.7674
11
5.86496
21
-4.77076
0
LINE
8
BLACK
6
CONTINUOUS
10
5.86496
20
-4.77076
11
5.86306
21
-4.77485
0
LINE
8
BLACK
6
CONTINUOUS
10
5.86306
20
-4.77485
11
5.85987
21
-4.77804
0
LINE
8
BLACK
6
CONTINUOUS
10
5.85987
20
-4.77804
11
5.85578
21
-4.77995
0
LINE
8
BLACK
6
CONTINUOUS
10
5.85578
20
-4.77995
11
5.85241
21
-4.78039
0
LINE
8
BLACK
6
CONTINUOUS
10
5.85241
20
-4.78039
11
5.8032
21
-4.78039
0
LINE
8
BLACK
6
CONTINUOUS
10
5.8032
20
-4.78039
11
5.79984
21
-4.77995
0
LINE
8
BLACK
6
CONTINUOUS
10
5.79984
20
-4.77995
11
5.79575
21
-4.77804
0
LINE
8
BLACK
6
CONTINUOUS
10
5.79575
20
-4.77804
11
5.79256
21
-4.77485
0
LINE
8
BLACK
6
CONTINUOUS
10
5.79256
20
-4.77485
11
5.79065
21
-4.77076
0
LINE
8
BLACK
6
CONTINUOUS
10
5.79065
20
-4.77076
11
5.79021
21
-4.7674
0
LINE
8
BLACK
6
CONTINUOUS
10
5.79021
20
-4.7674
11
5.79021
21
-4.73787
0
LINE
8
BLACK
6
CONTINUOUS
10
5.79021
20
-4.73787
11
5.79065
21
-4.73451
0
LINE
8
BLACK
6
CONTINUOUS
10
5.79065
20
-4.73451
11
5.79256
21
-4.73042
0
LINE
8
BLACK
6
CONTINUOUS
10
5.79256
20
-4.73042
11
5.79575
21
-4.72723
0
LINE
8
BLACK
6
CONTINUOUS
10
5.79575
20
-4.72723
11
5.79984
21
-4.72532
0
LINE
8
BLACK
6
CONTINUOUS
10
5.79984
20
-4.72532
11
5.8032
21
-4.72488
0
LINE
8
BLACK
6
CONTINUOUS
10
5.8032
20
-4.72488
11
5.85241
21
-4.72488
0
LINE
8
BLACK
6
CONTINUOUS
10
5.85241
20
-4.72488
11
5.85578
21
-4.72532
0
LINE
8
BLACK
6
CONTINUOUS
10
6.05263
20
-4.72532
11
6.05672
21
-4.72723
0
LINE
8
BLACK
6
CONTINUOUS
10
6.05672
20
-4.72723
11
6.05991
21
-4.73042
0
LINE
8
BLACK
6
CONTINUOUS
10
6.05991
20
-4.73042
11
6.06181
21
-4.73451
0
LINE
8
BLACK
6
CONTINUOUS
10
6.06181
20
-4.73451
11
6.06226
21
-4.73787
0
LINE
8
BLACK
6
CONTINUOUS
10
6.06226
20
-4.73787
11
6.06226
21
-4.7674
0
LINE
8
BLACK
6
CONTINUOUS
10
6.06226
20
-4.7674
11
6.06181
21
-4.77076
0
LINE
8
BLACK
6
CONTINUOUS
10
6.06181
20
-4.77076
11
6.05991
21
-4.77485
0
LINE
8
BLACK
6
CONTINUOUS
10
6.05991
20
-4.77485
11
6.05672
21
-4.77804
0
LINE
8
BLACK
6
CONTINUOUS
10
6.05672
20
-4.77804
11
6.05263
21
-4.77995
0
LINE
8
BLACK
6
CONTINUOUS
10
6.05263
20
-4.77995
11
6.04927
21
-4.78039
0
LINE
8
BLACK
6
CONTINUOUS
10
6.04927
20
-4.78039
11
6.00005
21
-4.78039
0
LINE
8
BLACK
6
CONTINUOUS
10
6.00005
20
-4.78039
11
5.99669
21
-4.77995
0
LINE
8
BLACK
6
CONTINUOUS
10
5.99669
20
-4.77995
11
5.9926
21
-4.77804
0
LINE
8
BLACK
6
CONTINUOUS
10
5.9926
20
-4.77804
11
5.98941
21
-4.77485
0
LINE
8
BLACK
6
CONTINUOUS
10
5.98941
20
-4.77485
11
5.9875
21
-4.77076
0
LINE
8
BLACK
6
CONTINUOUS
10
5.9875
20
-4.77076
11
5.98706
21
-4.7674
0
LINE
8
BLACK
6
CONTINUOUS
10
5.98706
20
-4.7674
11
5.98706
21
-4.73787
0
LINE
8
BLACK
6
CONTINUOUS
10
5.98706
20
-4.73787
11
5.9875
21
-4.73451
0
LINE
8
BLACK
6
CONTINUOUS
10
5.9875
20
-4.73451
11
5.98941
21
-4.73042
0
LINE
8
BLACK
6
CONTINUOUS
10
5.98941
20
-4.73042
11
5.9926
21
-4.72723
0
LINE
8
BLACK
6
CONTINUOUS
10
5.9926
20
-4.72723
11
5.99669
21
-4.72532
0
LINE
8
BLACK
6
CONTINUOUS
10
5.99669
20
-4.72532
11
6.00005
21
-4.72488
0
LINE
8
BLACK
6
CONTINUOUS
10
6.00005
20
-4.72488
11
6.04927
21
-4.72488
0
LINE
8
BLACK
6
CONTINUOUS
10
6.04927
20
-4.72488
11
6.05263
21
-4.72532
0
LINE
8
BLACK
6
CONTINUOUS
10
6.24948
20
-4.72532
11
6.25357
21
-4.72723
0
LINE
8
BLACK
6
CONTINUOUS
10
6.25357
20
-4.72723
11
6.25676
21
-4.73042
0
LINE
8
BLACK
6
CONTINUOUS
10
6.25676
20
-4.73042
11
6.25867
21
-4.73451
0
LINE
8
BLACK
6
CONTINUOUS
10
6.25867
20
-4.73451
11
6.25911
21
-4.73787
0
LINE
8
BLACK
6
CONTINUOUS
10
6.25911
20
-4.73787
11
6.25911
21
-4.7674
0
LINE
8
BLACK
6
CONTINUOUS
10
6.25911
20
-4.7674
11
6.25867
21
-4.77076
0
LINE
8
BLACK
6
CONTINUOUS
10
6.25867
20
-4.77076
11
6.25676
21
-4.77485
0
LINE
8
BLACK
6
CONTINUOUS
10
6.25676
20
-4.77485
11
6.25357
21
-4.77804
0
LINE
8
BLACK
6
CONTINUOUS
10
6.25357
20
-4.77804
11
6.24948
21
-4.77995
0
LINE
8
BLACK
6
CONTINUOUS
10
6.24948
20
-4.77995
11
6.24612
21
-4.78039
0
LINE
8
BLACK
6
CONTINUOUS
10
6.24612
20
-4.78039
11
6.1969
21
-4.78039
0
LINE
8
BLACK
6
CONTINUOUS
10
6.1969
20
-4.78039
11
6.19354
21
-4.77995
0
LINE
8
BLACK
6
CONTINUOUS
10
6.19354
20
-4.77995
11
6.18945
21
-4.77804
0
LINE
8
BLACK
6
CONTINUOUS
10
6.18945
20
-4.77804
11
6.18626
21
-4.77485
0
LINE
8
BLACK
6
CONTINUOUS
10
6.18626
20
-4.77485
11
6.18435
21
-4.77076
0
LINE
8
BLACK
6
CONTINUOUS
10
6.18435
20
-4.77076
11
6.18391
21
-4.7674
0
LINE
8
BLACK
6
CONTINUOUS
10
6.18391
20
-4.7674
11
6.18391
21
-4.73787
0
LINE
8
BLACK
6
CONTINUOUS
10
6.18391
20
-4.73787
11
6.18435
21
-4.73451
0
LINE
8
BLACK
6
CONTINUOUS
10
6.18435
20
-4.73451
11
6.18626
21
-4.73042
0
LINE
8
BLACK
6
CONTINUOUS
10
6.18626
20
-4.73042
11
6.18945
21
-4.72723
0
LINE
8
BLACK
6
CONTINUOUS
10
6.18945
20
-4.72723
11
6.19354
21
-4.72532
0
LINE
8
BLACK
6
CONTINUOUS
10
6.19354
20
-4.72532
11
6.1969
21
-4.72488
0
LINE
8
BLACK
6
CONTINUOUS
10
6.1969
20
-4.72488
11
6.24612
21
-4.72488
0
LINE
8
BLACK
6
CONTINUOUS
10
6.24612
20
-4.72488
11
6.24948
21
-4.72532
0
LINE
8
BLACK
6
CONTINUOUS
10
6.44633
20
-4.72532
11
6.45042
21
-4.72723
0
LINE
8
BLACK
6
CONTINUOUS
10
6.45042
20
-4.72723
11
6.45361
21
-4.73042
0
LINE
8
BLACK
6
CONTINUOUS
10
6.45361
20
-4.73042
11
6.45552
21
-4.73451
0
LINE
8
BLACK
6
CONTINUOUS
10
6.45552
20
-4.73451
11
6.45596
21
-4.73787
0
LINE
8
BLACK
6
CONTINUOUS
10
6.45596
20
-4.73787
11
6.45596
21
-4.7674
0
LINE
8
BLACK
6
CONTINUOUS
10
6.45596
20
-4.7674
11
6.45552
21
-4.77076
0
LINE
8
BLACK
6
CONTINUOUS
10
6.45552
20
-4.77076
11
6.45361
21
-4.77485
0
LINE
8
BLACK
6
CONTINUOUS
10
6.45361
20
-4.77485
11
6.45042
21
-4.77804
0
LINE
8
BLACK
6
CONTINUOUS
10
6.45042
20
-4.77804
11
6.44633
21
-4.77995
0
LINE
8
BLACK
6
CONTINUOUS
10
6.44633
20
-4.77995
11
6.44297
21
-4.78039
0
LINE
8
BLACK
6
CONTINUOUS
10
6.44297
20
-4.78039
11
6.39375
21
-4.78039
0
LINE
8
BLACK
6
CONTINUOUS
10
6.39375
20
-4.78039
11
6.39039
21
-4.77995
0
LINE
8
BLACK
6
CONTINUOUS
10
6.39039
20
-4.77995
11
6.3863
21
-4.77804
0
LINE
8
BLACK
6
CONTINUOUS
10
6.3863
20
-4.77804
11
6.38311
21
-4.77485
0
LINE
8
BLACK
6
CONTINUOUS
10
6.38311
20
-4.77485
11
6.3812
21
-4.77076
0
LINE
8
BLACK
6
CONTINUOUS
10
6.3812
20
-4.77076
11
6.38076
21
-4.7674
0
LINE
8
BLACK
6
CONTINUOUS
10
6.38076
20
-4.7674
11
6.38076
21
-4.73787
0
LINE
8
BLACK
6
CONTINUOUS
10
6.38076
20
-4.73787
11
6.3812
21
-4.73451
0
LINE
8
BLACK
6
CONTINUOUS
10
6.3812
20
-4.73451
11
6.38311
21
-4.73042
0
LINE
8
BLACK
6
CONTINUOUS
10
6.38311
20
-4.73042
11
6.3863
21
-4.72723
0
LINE
8
BLACK
6
CONTINUOUS
10
6.3863
20
-4.72723
11
6.39039
21
-4.72532
0
LINE
8
BLACK
6
CONTINUOUS
10
6.39039
20
-4.72532
11
6.39375
21
-4.72488
0
LINE
8
BLACK
6
CONTINUOUS
10
6.39375
20
-4.72488
11
6.44297
21
-4.72488
0
LINE
8
BLACK
6
CONTINUOUS
10
6.44297
20
-4.72488
11
6.44633
21
-4.72532
0
LINE
8
BLACK
6
CONTINUOUS
10
6.64318
20
-4.72532
11
6.64727
21
-4.72723
0
LINE
8
BLACK
6
CONTINUOUS
10
6.64727
20
-4.72723
11
6.65046
21
-4.73042
0
LINE
8
BLACK
6
CONTINUOUS
10
6.65046
20
-4.73042
11
6.65237
21
-4.73451
0
LINE
8
BLACK
6
CONTINUOUS
10
6.65237
20
-4.73451
11
6.65281
21
-4.73787
0
LINE
8
BLACK
6
CONTINUOUS
10
6.65281
20
-4.73787
11
6.65281
21
-4.7674
0
LINE
8
BLACK
6
CONTINUOUS
10
6.65281
20
-4.7674
11
6.65237
21
-4.77076
0
LINE
8
BLACK
6
CONTINUOUS
10
6.65237
20
-4.77076
11
6.65046
21
-4.77485
0
LINE
8
BLACK
6
CONTINUOUS
10
6.65046
20
-4.77485
11
6.64727
21
-4.77804
0
LINE
8
BLACK
6
CONTINUOUS
10
6.64727
20
-4.77804
11
6.64318
21
-4.77995
0
LINE
8
BLACK
6
CONTINUOUS
10
6.64318
20
-4.77995
11
6.63982
21
-4.78039
0
LINE
8
BLACK
6
CONTINUOUS
10
6.63982
20
-4.78039
11
6.5906
21
-4.78039
0
LINE
8
BLACK
6
CONTINUOUS
10
6.5906
20
-4.78039
11
6.58724
21
-4.77995
0
LINE
8
BLACK
6
CONTINUOUS
10
6.58724
20
-4.77995
11
6.58315
21
-4.77804
0
LINE
8
BLACK
6
CONTINUOUS
10
6.58315
20
-4.77804
11
6.57996
21
-4.77485
0
LINE
8
BLACK
6
CONTINUOUS
10
6.57996
20
-4.77485
11
6.57805
21
-4.77076
0
LINE
8
BLACK
6
CONTINUOUS
10
6.57805
20
-4.77076
11
6.57761
21
-4.7674
0
LINE
8
BLACK
6
CONTINUOUS
10
6.57761
20
-4.7674
11
6.57761
21
-4.73787
0
LINE
8
BLACK
6
CONTINUOUS
10
6.57761
20
-4.73787
11
6.57805
21
-4.73451
0
LINE
8
BLACK
6
CONTINUOUS
10
6.57805
20
-4.73451
11
6.57996
21
-4.73042
0
LINE
8
BLACK
6
CONTINUOUS
10
6.57996
20
-4.73042
11
6.58315
21
-4.72723
0
LINE
8
BLACK
6
CONTINUOUS
10
6.58315
20
-4.72723
11
6.58724
21
-4.72532
0
LINE
8
BLACK
6
CONTINUOUS
10
6.58724
20
-4.72532
11
6.5906
21
-4.72488
0
LINE
8
BLACK
6
CONTINUOUS
10
6.5906
20
-4.72488
11
6.63982
21
-4.72488
0
LINE
8
BLACK
6
CONTINUOUS
10
6.63982
20
-4.72488
11
6.64318
21
-4.72532
0
LINE
8
BLACK
6
CONTINUOUS
10
7.22872
20
-4.73068
11
7.23317
21
-4.73294
0
LINE
8
BLACK
6
CONTINUOUS
10
7.23317
20
-4.73294
11
7.23669
21
-4.73647
0
LINE
8
BLACK
6
CONTINUOUS
10
7.23669
20
-4.73647
11
7.23896
21
-4.74092
0
LINE
8
BLACK
6
CONTINUOUS
10
7.23896
20
-4.74092
11
7.23974
21
-4.74584
0
LINE
8
BLACK
6
CONTINUOUS
10
7.23974
20
-4.74584
11
7.23896
21
-4.75077
0
LINE
8
BLACK
6
CONTINUOUS
10
7.23896
20
-4.75077
11
7.23669
21
-4.75522
0
LINE
8
BLACK
6
CONTINUOUS
10
7.23669
20
-4.75522
11
7.23317
21
-4.75874
0
LINE
8
BLACK
6
CONTINUOUS
10
7.23317
20
-4.75874
11
7.22872
21
-4.76101
0
LINE
8
BLACK
6
CONTINUOUS
10
7.22872
20
-4.76101
11
7.22379
21
-4.76179
0
LINE
8
BLACK
6
CONTINUOUS
10
7.22379
20
-4.76179
11
7.21887
21
-4.76101
0
LINE
8
BLACK
6
CONTINUOUS
10
7.21887
20
-4.76101
11
7.21442
21
-4.75874
0
LINE
8
BLACK
6
CONTINUOUS
10
7.21442
20
-4.75874
11
7.21089
21
-4.75522
0
LINE
8
BLACK
6
CONTINUOUS
10
7.21089
20
-4.75522
11
7.20863
21
-4.75077
0
LINE
8
BLACK
6
CONTINUOUS
10
7.20863
20
-4.75077
11
7.20785
21
-4.74584
0
LINE
8
BLACK
6
CONTINUOUS
10
7.20785
20
-4.74584
11
7.20863
21
-4.74092
0
LINE
8
BLACK
6
CONTINUOUS
10
7.20863
20
-4.74092
11
7.21089
21
-4.73647
0
LINE
8
BLACK
6
CONTINUOUS
10
7.21089
20
-4.73647
11
7.21442
21
-4.73294
0
LINE
8
BLACK
6
CONTINUOUS
10
7.21442
20
-4.73294
11
7.21887
21
-4.73068
0
LINE
8
BLACK
6
CONTINUOUS
10
7.21887
20
-4.73068
11
7.22379
21
-4.7299
0
LINE
8
BLACK
6
CONTINUOUS
10
7.22379
20
-4.7299
11
7.22872
21
-4.73068
0
LINE
8
BLACK
6
CONTINUOUS
10
5.85578
20
-4.61509
11
5.85987
21
-4.61699
0
LINE
8
BLACK
6
CONTINUOUS
10
5.85987
20
-4.61699
11
5.86306
21
-4.62018
0
LINE
8
BLACK
6
CONTINUOUS
10
5.86306
20
-4.62018
11
5.86496
21
-4.62427
0
LINE
8
BLACK
6
CONTINUOUS
10
5.86496
20
-4.62427
11
5.86541
21
-4.62763
0
LINE
8
BLACK
6
CONTINUOUS
10
5.86541
20
-4.62763
11
5.86541
21
-4.65716
0
LINE
8
BLACK
6
CONTINUOUS
10
5.86541
20
-4.65716
11
5.86496
21
-4.66053
0
LINE
8
BLACK
6
CONTINUOUS
10
5.86496
20
-4.66053
11
5.86306
21
-4.66461
0
LINE
8
BLACK
6
CONTINUOUS
10
5.86306
20
-4.66461
11
5.85987
21
-4.6678
0
LINE
8
BLACK
6
CONTINUOUS
10
5.85987
20
-4.6678
11
5.85578
21
-4.66971
0
LINE
8
BLACK
6
CONTINUOUS
10
5.85578
20
-4.66971
11
5.85241
21
-4.67015
0
LINE
8
BLACK
6
CONTINUOUS
10
5.85241
20
-4.67015
11
5.8032
21
-4.67015
0
LINE
8
BLACK
6
CONTINUOUS
10
5.8032
20
-4.67015
11
5.79984
21
-4.66971
0
LINE
8
BLACK
6
CONTINUOUS
10
5.79984
20
-4.66971
11
5.79575
21
-4.6678
0
LINE
8
BLACK
6
CONTINUOUS
10
5.79575
20
-4.6678
11
5.79256
21
-4.66461
0
LINE
8
BLACK
6
CONTINUOUS
10
5.79256
20
-4.66461
11
5.79065
21
-4.66053
0
LINE
8
BLACK
6
CONTINUOUS
10
5.79065
20
-4.66053
11
5.79021
21
-4.65716
0
LINE
8
BLACK
6
CONTINUOUS
10
5.79021
20
-4.65716
11
5.79021
21
-4.62763
0
LINE
8
BLACK
6
CONTINUOUS
10
5.79021
20
-4.62763
11
5.79065
21
-4.62427
0
LINE
8
BLACK
6
CONTINUOUS
10
5.79065
20
-4.62427
11
5.79256
21
-4.62018
0
LINE
8
BLACK
6
CONTINUOUS
10
5.79256
20
-4.62018
11
5.79575
21
-4.61699
0
LINE
8
BLACK
6
CONTINUOUS
10
5.79575
20
-4.61699
11
5.79984
21
-4.61509
0
LINE
8
BLACK
6
CONTINUOUS
10
5.79984
20
-4.61509
11
5.8032
21
-4.61464
0
LINE
8
BLACK
6
CONTINUOUS
10
5.8032
20
-4.61464
11
5.85241
21
-4.61464
0
LINE
8
BLACK
6
CONTINUOUS
10
5.85241
20
-4.61464
11
5.85578
21
-4.61509
0
LINE
8
BLACK
6
CONTINUOUS
10
6.05263
20
-4.61509
11
6.05672
21
-4.61699
0
LINE
8
BLACK
6
CONTINUOUS
10
6.05672
20
-4.61699
11
6.05991
21
-4.62018
0
LINE
8
BLACK
6
CONTINUOUS
10
6.05991
20
-4.62018
11
6.06181
21
-4.62427
0
LINE
8
BLACK
6
CONTINUOUS
10
6.06181
20
-4.62427
11
6.06226
21
-4.62763
0
LINE
8
BLACK
6
CONTINUOUS
10
6.06226
20
-4.62763
11
6.06226
21
-4.65716
0
LINE
8
BLACK
6
CONTINUOUS
10
6.06226
20
-4.65716
11
6.06181
21
-4.66053
0
LINE
8
BLACK
6
CONTINUOUS
10
6.06181
20
-4.66053
11
6.05991
21
-4.66461
0
LINE
8
BLACK
6
CONTINUOUS
10
6.05991
20
-4.66461
11
6.05672
21
-4.6678
0
LINE
8
BLACK
6
CONTINUOUS
10
6.05672
20
-4.6678
11
6.05263
21
-4.66971
0
LINE
8
BLACK
6
CONTINUOUS
10
6.05263
20
-4.66971
11
6.04927
21
-4.67015
0
LINE
8
BLACK
6
CONTINUOUS
10
6.04927
20
-4.67015
11
6.00005
21
-4.67015
0
LINE
8
BLACK
6
CONTINUOUS
10
6.00005
20
-4.67015
11
5.99669
21
-4.66971
0
LINE
8
BLACK
6
CONTINUOUS
10
5.99669
20
-4.66971
11
5.9926
21
-4.6678
0
LINE
8
BLACK
6
CONTINUOUS
10
5.9926
20
-4.6678
11
5.98941
21
-4.66461
0
LINE
8
BLACK
6
CONTINUOUS
10
5.98941
20
-4.66461
11
5.9875
21
-4.66053
0
LINE
8
BLACK
6
CONTINUOUS
10
5.9875
20
-4.66053
11
5.98706
21
-4.65716
0
LINE
8
BLACK
6
CONTINUOUS
10
5.98706
20
-4.65716
11
5.98706
21
-4.62763
0
LINE
8
BLACK
6
CONTINUOUS
10
5.98706
20
-4.62763
11
5.9875
21
-4.62427
0
LINE
8
BLACK
6
CONTINUOUS
10
5.9875
20
-4.62427
11
5.98941
21
-4.62018
0
LINE
8
BLACK
6
CONTINUOUS
10
5.98941
20
-4.62018
11
5.9926
21
-4.61699
0
LINE
8
BLACK
6
CONTINUOUS
10
5.9926
20
-4.61699
11
5.99669
21
-4.61509
0
LINE
8
BLACK
6
CONTINUOUS
10
5.99669
20
-4.61509
11
6.00005
21
-4.61464
0
LINE
8
BLACK
6
CONTINUOUS
10
6.00005
20
-4.61464
11
6.04927
21
-4.61464
0
LINE
8
BLACK
6
CONTINUOUS
10
6.04927
20
-4.61464
11
6.05263
21
-4.61509
0
LINE
8
BLACK
6
CONTINUOUS
10
6.24948
20
-4.61509
11
6.25357
21
-4.61699
0
LINE
8
BLACK
6
CONTINUOUS
10
6.25357
20
-4.61699
11
6.25676
21
-4.62018
0
LINE
8
BLACK
6
CONTINUOUS
10
6.25676
20
-4.62018
11
6.25867
21
-4.62427
0
LINE
8
BLACK
6
CONTINUOUS
10
6.25867
20
-4.62427
11
6.25911
21
-4.62763
0
LINE
8
BLACK
6
CONTINUOUS
10
6.25911
20
-4.62763
11
6.25911
21
-4.65716
0
LINE
8
BLACK
6
CONTINUOUS
10
6.25911
20
-4.65716
11
6.25867
21
-4.66053
0
LINE
8
BLACK
6
CONTINUOUS
10
6.25867
20
-4.66053
11
6.25676
21
-4.66461
0
LINE
8
BLACK
6
CONTINUOUS
10
6.25676
20
-4.66461
11
6.25357
21
-4.6678
0
LINE
8
BLACK
6
CONTINUOUS
10
6.25357
20
-4.6678
11
6.24948
21
-4.66971
0
LINE
8
BLACK
6
CONTINUOUS
10
6.24948
20
-4.66971
11
6.24612
21
-4.67015
0
LINE
8
BLACK
6
CONTINUOUS
10
6.24612
20
-4.67015
11
6.1969
21
-4.67015
0
LINE
8
BLACK
6
CONTINUOUS
10
6.1969
20
-4.67015
11
6.19354
21
-4.66971
0
LINE
8
BLACK
6
CONTINUOUS
10
6.19354
20
-4.66971
11
6.18945
21
-4.6678
0
LINE
8
BLACK
6
CONTINUOUS
10
6.18945
20
-4.6678
11
6.18626
21
-4.66461
0
LINE
8
BLACK
6
CONTINUOUS
10
6.18626
20
-4.66461
11
6.18435
21
-4.66053
0
LINE
8
BLACK
6
CONTINUOUS
10
6.18435
20
-4.66053
11
6.18391
21
-4.65716
0
LINE
8
BLACK
6
CONTINUOUS
10
6.18391
20
-4.65716
11
6.18391
21
-4.62763
0
LINE
8
BLACK
6
CONTINUOUS
10
6.18391
20
-4.62763
11
6.18435
21
-4.62427
0
LINE
8
BLACK
6
CONTINUOUS
10
6.18435
20
-4.62427
11
6.18626
21
-4.62018
0
LINE
8
BLACK
6
CONTINUOUS
10
6.18626
20
-4.62018
11
6.18945
21
-4.61699
0
LINE
8
BLACK
6
CONTINUOUS
10
6.18945
20
-4.61699
11
6.19354
21
-4.61509
0
LINE
8
BLACK
6
CONTINUOUS
10
6.19354
20
-4.61509
11
6.1969
21
-4.61464
0
LINE
8
BLACK
6
CONTINUOUS
10
6.1969
20
-4.61464
11
6.24612
21
-4.61464
0
LINE
8
BLACK
6
CONTINUOUS
10
6.24612
20
-4.61464
11
6.24948
21
-4.61509
0
LINE
8
BLACK
6
CONTINUOUS
10
6.44633
20
-4.61509
11
6.45042
21
-4.61699
0
LINE
8
BLACK
6
CONTINUOUS
10
6.45042
20
-4.61699
11
6.45361
21
-4.62018
0
LINE
8
BLACK
6
CONTINUOUS
10
6.45361
20
-4.62018
11
6.45552
21
-4.62427
0
LINE
8
BLACK
6
CONTINUOUS
10
6.45552
20
-4.62427
11
6.45596
21
-4.62763
0
LINE
8
BLACK
6
CONTINUOUS
10
6.45596
20
-4.62763
11
6.45596
21
-4.65716
0
LINE
8
BLACK
6
CONTINUOUS
10
6.45596
20
-4.65716
11
6.45552
21
-4.66053
0
LINE
8
BLACK
6
CONTINUOUS
10
6.45552
20
-4.66053
11
6.45361
21
-4.66461
0
LINE
8
BLACK
6
CONTINUOUS
10
6.45361
20
-4.66461
11
6.45042
21
-4.6678
0
LINE
8
BLACK
6
CONTINUOUS
10
6.45042
20
-4.6678
11
6.44633
21
-4.66971
0
LINE
8
BLACK
6
CONTINUOUS
10
6.44633
20
-4.66971
11
6.44297
21
-4.67015
0
LINE
8
BLACK
6
CONTINUOUS
10
6.44297
20
-4.67015
11
6.39375
21
-4.67015
0
LINE
8
BLACK
6
CONTINUOUS
10
6.39375
20
-4.67015
11
6.39039
21
-4.66971
0
LINE
8
BLACK
6
CONTINUOUS
10
6.39039
20
-4.66971
11
6.3863
21
-4.6678
0
LINE
8
BLACK
6
CONTINUOUS
10
6.3863
20
-4.6678
11
6.38311
21
-4.66461
0
LINE
8
BLACK
6
CONTINUOUS
10
6.38311
20
-4.66461
11
6.3812
21
-4.66053
0
LINE
8
BLACK
6
CONTINUOUS
10
6.3812
20
-4.66053
11
6.38076
21
-4.65716
0
LINE
8
BLACK
6
CONTINUOUS
10
6.38076
20
-4.65716
11
6.38076
21
-4.62763
0
LINE
8
BLACK
6
CONTINUOUS
10
6.38076
20
-4.62763
11
6.3812
21
-4.62427
0
LINE
8
BLACK
6
CONTINUOUS
10
6.3812
20
-4.62427
11
6.38311
21
-4.62018
0
LINE
8
BLACK
6
CONTINUOUS
10
6.38311
20
-4.62018
11
6.3863
21
-4.61699
0
LINE
8
BLACK
6
CONTINUOUS
10
6.3863
20
-4.61699
11
6.39039
21
-4.61509
0
LINE
8
BLACK
6
CONTINUOUS
10
6.39039
20
-4.61509
11
6.39375
21
-4.61464
0
LINE
8
BLACK
6
CONTINUOUS
10
6.39375
20
-4.61464
11
6.44297
21
-4.61464
0
LINE
8
BLACK
6
CONTINUOUS
10
6.44297
20
-4.61464
11
6.44633
21
-4.61509
0
LINE
8
BLACK
6
CONTINUOUS
10
6.64318
20
-4.61509
11
6.64727
21
-4.61699
0
LINE
8
BLACK
6
CONTINUOUS
10
6.64727
20
-4.61699
11
6.65046
21
-4.62018
0
LINE
8
BLACK
6
CONTINUOUS
10
6.65046
20
-4.62018
11
6.65237
21
-4.62427
0
LINE
8
BLACK
6
CONTINUOUS
10
6.65237
20
-4.62427
11
6.65281
21
-4.62763
0
LINE
8
BLACK
6
CONTINUOUS
10
6.65281
20
-4.62763
11
6.65281
21
-4.65716
0
LINE
8
BLACK
6
CONTINUOUS
10
6.65281
20
-4.65716
11
6.65237
21
-4.66053
0
LINE
8
BLACK
6
CONTINUOUS
10
6.65237
20
-4.66053
11
6.65046
21
-4.66461
0
LINE
8
BLACK
6
CONTINUOUS
10
6.65046
20
-4.66461
11
6.64727
21
-4.6678
0
LINE
8
BLACK
6
CONTINUOUS
10
6.64727
20
-4.6678
11
6.64318
21
-4.66971
0
LINE
8
BLACK
6
CONTINUOUS
10
6.64318
20
-4.66971
11
6.63982
21
-4.67015
0
LINE
8
BLACK
6
CONTINUOUS
10
6.63982
20
-4.67015
11
6.5906
21
-4.67015
0
LINE
8
BLACK
6
CONTINUOUS
10
6.5906
20
-4.67015
11
6.58724
21
-4.66971
0
LINE
8
BLACK
6
CONTINUOUS
10
6.58724
20
-4.66971
11
6.58315
21
-4.6678
0
LINE
8
BLACK
6
CONTINUOUS
10
6.58315
20
-4.6678
11
6.57996
21
-4.66461
0
LINE
8
BLACK
6
CONTINUOUS
10
6.57996
20
-4.66461
11
6.57805
21
-4.66053
0
LINE
8
BLACK
6
CONTINUOUS
10
6.57805
20
-4.66053
11
6.57761
21
-4.65716
0
LINE
8
BLACK
6
CONTINUOUS
10
6.57761
20
-4.65716
11
6.57761
21
-4.62763
0
LINE
8
BLACK
6
CONTINUOUS
10
6.57761
20
-4.62763
11
6.57805
21
-4.62427
0
LINE
8
BLACK
6
CONTINUOUS
10
6.57805
20
-4.62427
11
6.57996
21
-4.62018
0
LINE
8
BLACK
6
CONTINUOUS
10
6.57996
20
-4.62018
11
6.58315
21
-4.61699
0
LINE
8
BLACK
6
CONTINUOUS
10
6.58315
20
-4.61699
11
6.58724
21
-4.61509
0
LINE
8
BLACK
6
CONTINUOUS
10
6.58724
20
-4.61509
11
6.5906
21
-4.61464
0
LINE
8
BLACK
6
CONTINUOUS
10
6.5906
20
-4.61464
11
6.63982
21
-4.61464
0
LINE
8
BLACK
6
CONTINUOUS
10
6.63982
20
-4.61464
11
6.64318
21
-4.61509
0
LINE
8
BLACK
6
CONTINUOUS
10
7.22872
20
-4.50312
11
7.23317
21
-4.50538
0
LINE
8
BLACK
6
CONTINUOUS
10
7.23317
20
-4.50538
11
7.23669
21
-4.50891
0
LINE
8
BLACK
6
CONTINUOUS
10
7.23669
20
-4.50891
11
7.23896
21
-4.51336
0
LINE
8
BLACK
6
CONTINUOUS
10
7.23896
20
-4.51336
11
7.23974
21
-4.51828
0
LINE
8
BLACK
6
CONTINUOUS
10
7.23974
20
-4.51828
11
7.23896
21
-4.52321
0
LINE
8
BLACK
6
CONTINUOUS
10
7.23896
20
-4.52321
11
7.23669
21
-4.52766
0
LINE
8
BLACK
6
CONTINUOUS
10
7.23669
20
-4.52766
11
7.23317
21
-4.53118
0
LINE
8
BLACK
6
CONTINUOUS
10
7.23317
20
-4.53118
11
7.22872
21
-4.53345
0
LINE
8
BLACK
6
CONTINUOUS
10
7.22872
20
-4.53345
11
7.22379
21
-4.53423
0
LINE
8
BLACK
6
CONTINUOUS
10
7.22379
20
-4.53423
11
7.21887
21
-4.53345
0
LINE
8
BLACK
6
CONTINUOUS
10
7.21887
20
-4.53345
11
7.21442
21
-4.53118
0
LINE
8
BLACK
6
CONTINUOUS
10
7.21442
20
-4.53118
11
7.21089
21
-4.52766
0
LINE
8
BLACK
6
CONTINUOUS
10
7.21089
20
-4.52766
11
7.20863
21
-4.52321
0
LINE
8
BLACK
6
CONTINUOUS
10
7.20863
20
-4.52321
11
7.20785
21
-4.51828
0
LINE
8
BLACK
6
CONTINUOUS
10
7.20785
20
-4.51828
11
7.20863
21
-4.51336
0
LINE
8
BLACK
6
CONTINUOUS
10
7.20863
20
-4.51336
11
7.21089
21
-4.50891
0
LINE
8
BLACK
6
CONTINUOUS
10
7.21089
20
-4.50891
11
7.21442
21
-4.50538
0
LINE
8
BLACK
6
CONTINUOUS
10
7.21442
20
-4.50538
11
7.21887
21
-4.50312
0
LINE
8
BLACK
6
CONTINUOUS
10
7.21887
20
-4.50312
11
7.22379
21
-4.50234
0
LINE
8
BLACK
6
CONTINUOUS
10
7.22379
20
-4.50234
11
7.22872
21
-4.50312
0
LINE
8
BLACK
6
CONTINUOUS
10
6.28555
20
-4.39165
11
6.28657
21
-4.39234
0
LINE
8
BLACK
6
CONTINUOUS
10
6.28657
20
-4.39234
11
6.28725
21
-4.39336
0
LINE
8
BLACK
6
CONTINUOUS
10
6.28725
20
-4.39336
11
6.28749
21
-4.39456
0
LINE
8
BLACK
6
CONTINUOUS
10
6.28749
20
-4.39456
11
6.28749
21
-4.49299
0
LINE
8
BLACK
6
CONTINUOUS
10
6.28749
20
-4.49299
11
6.28725
21
-4.49419
0
LINE
8
BLACK
6
CONTINUOUS
10
6.28725
20
-4.49419
11
6.28657
21
-4.49522
0
LINE
8
BLACK
6
CONTINUOUS
10
6.28657
20
-4.49522
11
6.28555
21
-4.4959
0
LINE
8
BLACK
6
CONTINUOUS
10
6.28555
20
-4.4959
11
6.28434
21
-4.49614
0
LINE
8
BLACK
6
CONTINUOUS
10
6.28434
20
-4.49614
11
6.08749
21
-4.49614
0
LINE
8
BLACK
6
CONTINUOUS
10
6.08749
20
-4.49614
11
6.08629
21
-4.4959
0
LINE
8
BLACK
6
CONTINUOUS
10
6.08629
20
-4.4959
11
6.08527
21
-4.49522
0
LINE
8
BLACK
6
CONTINUOUS
10
6.08527
20
-4.49522
11
6.08458
21
-4.49419
0
LINE
8
BLACK
6
CONTINUOUS
10
6.08458
20
-4.49419
11
6.08434
21
-4.49299
0
LINE
8
BLACK
6
CONTINUOUS
10
6.08434
20
-4.49299
11
6.08434
21
-4.39456
0
LINE
8
BLACK
6
CONTINUOUS
10
6.08434
20
-4.39456
11
6.08458
21
-4.39336
0
LINE
8
BLACK
6
CONTINUOUS
10
6.08458
20
-4.39336
11
6.08527
21
-4.39234
0
LINE
8
BLACK
6
CONTINUOUS
10
6.08527
20
-4.39234
11
6.08629
21
-4.39165
0
LINE
8
BLACK
6
CONTINUOUS
10
6.08629
20
-4.39165
11
6.08749
21
-4.39141
0
LINE
8
BLACK
6
CONTINUOUS
10
6.08749
20
-4.39141
11
6.28434
21
-4.39141
0
LINE
8
BLACK
6
CONTINUOUS
10
6.28434
20
-4.39141
11
6.28555
21
-4.39165
0
LINE
8
BLACK
6
CONTINUOUS
10
7.47453
20
-4.39165
11
7.47555
21
-4.39234
0
LINE
8
BLACK
6
CONTINUOUS
10
7.47555
20
-4.39234
11
7.47623
21
-4.39336
0
LINE
8
BLACK
6
CONTINUOUS
10
7.47623
20
-4.39336
11
7.47647
21
-4.39456
0
LINE
8
BLACK
6
CONTINUOUS
10
7.47647
20
-4.39456
11
7.47647
21
-4.49299
0
LINE
8
BLACK
6
CONTINUOUS
10
7.47647
20
-4.49299
11
7.47623
21
-4.49419
0
LINE
8
BLACK
6
CONTINUOUS
10
7.47623
20
-4.49419
11
7.47555
21
-4.49522
0
LINE
8
BLACK
6
CONTINUOUS
10
7.47555
20
-4.49522
11
7.47453
21
-4.4959
0
LINE
8
BLACK
6
CONTINUOUS
10
7.47453
20
-4.4959
11
7.47332
21
-4.49614
0
LINE
8
BLACK
6
CONTINUOUS
10
7.47332
20
-4.49614
11
7.27647
21
-4.49614
0
LINE
8
BLACK
6
CONTINUOUS
10
7.27647
20
-4.49614
11
7.27526
21
-4.4959
0
LINE
8
BLACK
6
CONTINUOUS
10
7.27526
20
-4.4959
11
7.27424
21
-4.49522
0
LINE
8
BLACK
6
CONTINUOUS
10
7.27424
20
-4.49522
11
7.27356
21
-4.49419
0
LINE
8
BLACK
6
CONTINUOUS
10
7.27356
20
-4.49419
11
7.27332
21
-4.49299
0
LINE
8
BLACK
6
CONTINUOUS
10
7.27332
20
-4.49299
11
7.27332
21
-4.39456
0
LINE
8
BLACK
6
CONTINUOUS
10
7.27332
20
-4.39456
11
7.27356
21
-4.39336
0
LINE
8
BLACK
6
CONTINUOUS
10
7.27356
20
-4.39336
11
7.27424
21
-4.39234
0
LINE
8
BLACK
6
CONTINUOUS
10
7.27424
20
-4.39234
11
7.27526
21
-4.39165
0
LINE
8
BLACK
6
CONTINUOUS
10
7.27526
20
-4.39165
11
7.27647
21
-4.39141
0
LINE
8
BLACK
6
CONTINUOUS
10
7.27647
20
-4.39141
11
7.47332
21
-4.39141
0
LINE
8
BLACK
6
CONTINUOUS
10
7.47332
20
-4.39141
11
7.47453
21
-4.39165
0
LINE
8
BLACK
6
CONTINUOUS
10
7.23094
20
-4.43898
11
7.23669
21
-4.44136
0
LINE
8
BLACK
6
CONTINUOUS
10
7.23669
20
-4.44136
11
7.24162
21
-4.44514
0
LINE
8
BLACK
6
CONTINUOUS
10
7.24162
20
-4.44514
11
7.2454
21
-4.45008
0
LINE
8
BLACK
6
CONTINUOUS
10
7.2454
20
-4.45008
11
7.24778
21
-4.45582
0
LINE
8
BLACK
6
CONTINUOUS
10
7.24778
20
-4.45582
11
7.2486
21
-4.46199
0
LINE
8
BLACK
6
CONTINUOUS
10
7.2486
20
-4.46199
11
7.24778
21
-4.46815
0
LINE
8
BLACK
6
CONTINUOUS
10
7.24778
20
-4.46815
11
7.2454
21
-4.47389
0
LINE
8
BLACK
6
CONTINUOUS
10
7.2454
20
-4.47389
11
7.24162
21
-4.47883
0
LINE
8
BLACK
6
CONTINUOUS
10
7.24162
20
-4.47883
11
7.23669
21
-4.48261
0
LINE
8
BLACK
6
CONTINUOUS
10
7.23669
20
-4.48261
11
7.23094
21
-4.48499
0
LINE
8
BLACK
6
CONTINUOUS
10
7.23094
20
-4.48499
11
7.22478
21
-4.4858
0
LINE
8
BLACK
6
CONTINUOUS
10
7.22478
20
-4.4858
11
7.18344
21
-4.4858
0
LINE
8
BLACK
6
CONTINUOUS
10
7.18344
20
-4.4858
11
7.17727
21
-4.48499
0
LINE
8
BLACK
6
CONTINUOUS
10
7.17727
20
-4.48499
11
7.17153
21
-4.48261
0
LINE
8
BLACK
6
CONTINUOUS
10
7.17153
20
-4.48261
11
7.1666
21
-4.47883
0
LINE
8
BLACK
6
CONTINUOUS
10
7.1666
20
-4.47883
11
7.16281
21
-4.47389
0
LINE
8
BLACK
6
CONTINUOUS
10
7.16281
20
-4.47389
11
7.16043
21
-4.46815
0
LINE
8
BLACK
6
CONTINUOUS
10
7.16043
20
-4.46815
11
7.15962
21
-4.46199
0
LINE
8
BLACK
6
CONTINUOUS
10
7.15962
20
-4.46199
11
7.16043
21
-4.45582
0
LINE
8
BLACK
6
CONTINUOUS
10
7.16043
20
-4.45582
11
7.16281
21
-4.45008
0
LINE
8
BLACK
6
CONTINUOUS
10
7.16281
20
-4.45008
11
7.1666
21
-4.44514
0
LINE
8
BLACK
6
CONTINUOUS
10
7.1666
20
-4.44514
11
7.17153
21
-4.44136
0
LINE
8
BLACK
6
CONTINUOUS
10
7.17153
20
-4.44136
11
7.17727
21
-4.43898
0
LINE
8
BLACK
6
CONTINUOUS
10
7.17727
20
-4.43898
11
7.18344
21
-4.43817
0
LINE
8
BLACK
6
CONTINUOUS
10
7.18344
20
-4.43817
11
7.22478
21
-4.43817
0
LINE
8
BLACK
6
CONTINUOUS
10
7.22478
20
-4.43817
11
7.23094
21
-4.43898
0
LINE
8
BLACK
6
CONTINUOUS
10
6.08083
20
-4.26429
11
6.08185
21
-4.26497
0
LINE
8
BLACK
6
CONTINUOUS
10
6.08185
20
-4.26497
11
6.08253
21
-4.266
0
LINE
8
BLACK
6
CONTINUOUS
10
6.08253
20
-4.266
11
6.08277
21
-4.2672
0
LINE
8
BLACK
6
CONTINUOUS
10
6.08277
20
-4.2672
11
6.08277
21
-4.31445
0
LINE
8
BLACK
6
CONTINUOUS
10
6.08277
20
-4.31445
11
6.08253
21
-4.31565
0
LINE
8
BLACK
6
CONTINUOUS
10
6.08253
20
-4.31565
11
6.08185
21
-4.31667
0
LINE
8
BLACK
6
CONTINUOUS
10
6.08185
20
-4.31667
11
6.08083
21
-4.31736
0
LINE
8
BLACK
6
CONTINUOUS
10
6.08083
20
-4.31736
11
6.07962
21
-4.3176
0
LINE
8
BLACK
6
CONTINUOUS
10
6.07962
20
-4.3176
11
6.01663
21
-4.3176
0
LINE
8
BLACK
6
CONTINUOUS
10
6.01663
20
-4.3176
11
6.01542
21
-4.31736
0
LINE
8
BLACK
6
CONTINUOUS
10
6.01542
20
-4.31736
11
6.0144
21
-4.31667
0
LINE
8
BLACK
6
CONTINUOUS
10
6.0144
20
-4.31667
11
6.01372
21
-4.31565
0
LINE
8
BLACK
6
CONTINUOUS
10
6.01372
20
-4.31565
11
6.01348
21
-4.31445
0
LINE
8
BLACK
6
CONTINUOUS
10
6.01348
20
-4.31445
11
6.01348
21
-4.2672
0
LINE
8
BLACK
6
CONTINUOUS
10
6.01348
20
-4.2672
11
6.01372
21
-4.266
0
LINE
8
BLACK
6
CONTINUOUS
10
6.01372
20
-4.266
11
6.0144
21
-4.26497
0
LINE
8
BLACK
6
CONTINUOUS
10
6.0144
20
-4.26497
11
6.01542
21
-4.26429
0
LINE
8
BLACK
6
CONTINUOUS
10
6.01542
20
-4.26429
11
6.01663
21
-4.26405
0
LINE
8
BLACK
6
CONTINUOUS
10
6.01663
20
-4.26405
11
6.07962
21
-4.26405
0
LINE
8
BLACK
6
CONTINUOUS
10
6.07962
20
-4.26405
11
6.08083
21
-4.26429
0
LINE
8
BLACK
6
CONTINUOUS
10
5.89645
20
-4.18925
11
5.90054
21
-4.19116
0
LINE
8
BLACK
6
CONTINUOUS
10
5.90054
20
-4.19116
11
5.90373
21
-4.19435
0
LINE
8
BLACK
6
CONTINUOUS
10
5.90373
20
-4.19435
11
5.90563
21
-4.19844
0
LINE
8
BLACK
6
CONTINUOUS
10
5.90563
20
-4.19844
11
5.90608
21
-4.2018
0
LINE
8
BLACK
6
CONTINUOUS
10
5.90608
20
-4.2018
11
5.90608
21
-4.23723
0
LINE
8
BLACK
6
CONTINUOUS
10
5.90608
20
-4.23723
11
5.90563
21
-4.2406
0
LINE
8
BLACK
6
CONTINUOUS
10
5.90563
20
-4.2406
11
5.90373
21
-4.24469
0
LINE
8
BLACK
6
CONTINUOUS
10
5.90373
20
-4.24469
11
5.90054
21
-4.24788
0
LINE
8
BLACK
6
CONTINUOUS
10
5.90054
20
-4.24788
11
5.89645
21
-4.24978
0
LINE
8
BLACK
6
CONTINUOUS
10
5.89645
20
-4.24978
11
5.89308
21
-4.25023
0
LINE
8
BLACK
6
CONTINUOUS
10
5.89308
20
-4.25023
11
5.87242
21
-4.25023
0
LINE
8
BLACK
6
CONTINUOUS
10
5.87242
20
-4.25023
11
5.86905
21
-4.24978
0
LINE
8
BLACK
6
CONTINUOUS
10
5.86905
20
-4.24978
11
5.86496
21
-4.24788
0
LINE
8
BLACK
6
CONTINUOUS
10
5.86496
20
-4.24788
11
5.86177
21
-4.24469
0
LINE
8
BLACK
6
CONTINUOUS
10
5.86177
20
-4.24469
11
5.85987
21
-4.2406
0
LINE
8
BLACK
6
CONTINUOUS
10
5.85987
20
-4.2406
11
5.85942
21
-4.23723
0
LINE
8
BLACK
6
CONTINUOUS
10
5.85942
20
-4.23723
11
5.85942
21
-4.2018
0
LINE
8
BLACK
6
CONTINUOUS
10
5.85942
20
-4.2018
11
5.85987
21
-4.19844
0
LINE
8
BLACK
6
CONTINUOUS
10
5.85987
20
-4.19844
11
5.86177
21
-4.19435
0
LINE
8
BLACK
6
CONTINUOUS
10
5.86177
20
-4.19435
11
5.86496
21
-4.19116
0
LINE
8
BLACK
6
CONTINUOUS
10
5.86496
20
-4.19116
11
5.86905
21
-4.18925
0
LINE
8
BLACK
6
CONTINUOUS
10
5.86905
20
-4.18925
11
5.87242
21
-4.18881
0
LINE
8
BLACK
6
CONTINUOUS
10
5.87242
20
-4.18881
11
5.89308
21
-4.18881
0
LINE
8
BLACK
6
CONTINUOUS
10
5.89308
20
-4.18881
11
5.89645
21
-4.18925
0
LINE
8
BLACK
6
CONTINUOUS
10
5.9683
20
-4.18925
11
5.97239
21
-4.19116
0
LINE
8
BLACK
6
CONTINUOUS
10
5.97239
20
-4.19116
11
5.97558
21
-4.19435
0
LINE
8
BLACK
6
CONTINUOUS
10
5.97558
20
-4.19435
11
5.97748
21
-4.19844
0
LINE
8
BLACK
6
CONTINUOUS
10
5.97748
20
-4.19844
11
5.97793
21
-4.2018
0
LINE
8
BLACK
6
CONTINUOUS
10
5.97793
20
-4.2018
11
5.97793
21
-4.23723
0
LINE
8
BLACK
6
CONTINUOUS
10
5.97793
20
-4.23723
11
5.97748
21
-4.2406
0
LINE
8
BLACK
6
CONTINUOUS
10
5.97748
20
-4.2406
11
5.97558
21
-4.24469
0
LINE
8
BLACK
6
CONTINUOUS
10
5.97558
20
-4.24469
11
5.97239
21
-4.24788
0
LINE
8
BLACK
6
CONTINUOUS
10
5.97239
20
-4.24788
11
5.9683
21
-4.24978
0
LINE
8
BLACK
6
CONTINUOUS
10
5.9683
20
-4.24978
11
5.96493
21
-4.25023
0
LINE
8
BLACK
6
CONTINUOUS
10
5.96493
20
-4.25023
11
5.94427
21
-4.25023
0
LINE
8
BLACK
6
CONTINUOUS
10
5.94427
20
-4.25023
11
5.9409
21
-4.24978
0
LINE
8
BLACK
6
CONTINUOUS
10
5.9409
20
-4.24978
11
5.93681
21
-4.24788
0
LINE
8
BLACK
6
CONTINUOUS
10
5.93681
20
-4.24788
11
5.93362
21
-4.24469
0
LINE
8
BLACK
6
CONTINUOUS
10
5.93362
20
-4.24469
11
5.93172
21
-4.2406
0
LINE
8
BLACK
6
CONTINUOUS
10
5.93172
20
-4.2406
11
5.93127
21
-4.23723
0
LINE
8
BLACK
6
CONTINUOUS
10
5.93127
20
-4.23723
11
5.93127
21
-4.2018
0
LINE
8
BLACK
6
CONTINUOUS
10
5.93127
20
-4.2018
11
5.93172
21
-4.19844
0
LINE
8
BLACK
6
CONTINUOUS
10
5.93172
20
-4.19844
11
5.93362
21
-4.19435
0
LINE
8
BLACK
6
CONTINUOUS
10
5.93362
20
-4.19435
11
5.93681
21
-4.19116
0
LINE
8
BLACK
6
CONTINUOUS
10
5.93681
20
-4.19116
11
5.9409
21
-4.18925
0
LINE
8
BLACK
6
CONTINUOUS
10
5.9409
20
-4.18925
11
5.94427
21
-4.18881
0
LINE
8
BLACK
6
CONTINUOUS
10
5.94427
20
-4.18881
11
5.96493
21
-4.18881
0
LINE
8
BLACK
6
CONTINUOUS
10
5.96493
20
-4.18881
11
5.9683
21
-4.18925
0
LINE
8
BLACK
6
CONTINUOUS
10
6.08083
20
-4.19343
11
6.08185
21
-4.19411
0
LINE
8
BLACK
6
CONTINUOUS
10
6.08185
20
-4.19411
11
6.08253
21
-4.19513
0
LINE
8
BLACK
6
CONTINUOUS
10
6.08253
20
-4.19513
11
6.08277
21
-4.19634
0
LINE
8
BLACK
6
CONTINUOUS
10
6.08277
20
-4.19634
11
6.08277
21
-4.24358
0
LINE
8
BLACK
6
CONTINUOUS
10
6.08277
20
-4.24358
11
6.08253
21
-4.24479
0
LINE
8
BLACK
6
CONTINUOUS
10
6.08253
20
-4.24479
11
6.08185
21
-4.24581
0
LINE
8
BLACK
6
CONTINUOUS
10
6.08185
20
-4.24581
11
6.08083
21
-4.24649
0
LINE
8
BLACK
6
CONTINUOUS
10
6.08083
20
-4.24649
11
6.07962
21
-4.24673
0
LINE
8
BLACK
6
CONTINUOUS
10
6.07962
20
-4.24673
11
6.01663
21
-4.24673
0
LINE
8
BLACK
6
CONTINUOUS
10
6.01663
20
-4.24673
11
6.01542
21
-4.24649
0
LINE
8
BLACK
6
CONTINUOUS
10
6.01542
20
-4.24649
11
6.0144
21
-4.24581
0
LINE
8
BLACK
6
CONTINUOUS
10
6.0144
20
-4.24581
11
6.01372
21
-4.24479
0
LINE
8
BLACK
6
CONTINUOUS
10
6.01372
20
-4.24479
11
6.01348
21
-4.24358
0
LINE
8
BLACK
6
CONTINUOUS
10
6.01348
20
-4.24358
11
6.01348
21
-4.19634
0
LINE
8
BLACK
6
CONTINUOUS
10
6.01348
20
-4.19634
11
6.01372
21
-4.19513
0
LINE
8
BLACK
6
CONTINUOUS
10
6.01372
20
-4.19513
11
6.0144
21
-4.19411
0
LINE
8
BLACK
6
CONTINUOUS
10
6.0144
20
-4.19411
11
6.01542
21
-4.19343
0
LINE
8
BLACK
6
CONTINUOUS
10
6.01542
20
-4.19343
11
6.01663
21
-4.19319
0
LINE
8
BLACK
6
CONTINUOUS
10
6.01663
20
-4.19319
11
6.07962
21
-4.19319
0
LINE
8
BLACK
6
CONTINUOUS
10
6.07962
20
-4.19319
11
6.08083
21
-4.19343
0
LINE
8
BLACK
6
CONTINUOUS
10
6.08083
20
-4.09776
11
6.08185
21
-4.09844
0
LINE
8
BLACK
6
CONTINUOUS
10
6.08185
20
-4.09844
11
6.08253
21
-4.09946
0
LINE
8
BLACK
6
CONTINUOUS
10
6.08253
20
-4.09946
11
6.08277
21
-4.10067
0
LINE
8
BLACK
6
CONTINUOUS
10
6.08277
20
-4.10067
11
6.08277
21
-4.14791
0
LINE
8
BLACK
6
CONTINUOUS
10
6.08277
20
-4.14791
11
6.08253
21
-4.14912
0
LINE
8
BLACK
6
CONTINUOUS
10
6.08253
20
-4.14912
11
6.08185
21
-4.15014
0
LINE
8
BLACK
6
CONTINUOUS
10
6.08185
20
-4.15014
11
6.08083
21
-4.15082
0
LINE
8
BLACK
6
CONTINUOUS
10
6.08083
20
-4.15082
11
6.07962
21
-4.15106
0
LINE
8
BLACK
6
CONTINUOUS
10
6.07962
20
-4.15106
11
6.01663
21
-4.15106
0
LINE
8
BLACK
6
CONTINUOUS
10
6.01663
20
-4.15106
11
6.01542
21
-4.15082
0
LINE
8
BLACK
6
CONTINUOUS
10
6.01542
20
-4.15082
11
6.0144
21
-4.15014
0
LINE
8
BLACK
6
CONTINUOUS
10
6.0144
20
-4.15014
11
6.01372
21
-4.14912
0
LINE
8
BLACK
6
CONTINUOUS
10
6.01372
20
-4.14912
11
6.01348
21
-4.14791
0
LINE
8
BLACK
6
CONTINUOUS
10
6.01348
20
-4.14791
11
6.01348
21
-4.10067
0
LINE
8
BLACK
6
CONTINUOUS
10
6.01348
20
-4.10067
11
6.01372
21
-4.09946
0
LINE
8
BLACK
6
CONTINUOUS
10
6.01372
20
-4.09946
11
6.0144
21
-4.09844
0
LINE
8
BLACK
6
CONTINUOUS
10
6.0144
20
-4.09844
11
6.01542
21
-4.09776
0
LINE
8
BLACK
6
CONTINUOUS
10
6.01542
20
-4.09776
11
6.01663
21
-4.09752
0
LINE
8
BLACK
6
CONTINUOUS
10
6.01663
20
-4.09752
11
6.07962
21
-4.09752
0
LINE
8
BLACK
6
CONTINUOUS
10
6.07962
20
-4.09752
11
6.08083
21
-4.09776
0
LINE
8
BLACK
6
CONTINUOUS
10
5.89645
20
-3.99525
11
5.90054
21
-3.99716
0
LINE
8
BLACK
6
CONTINUOUS
10
5.90054
20
-3.99716
11
5.90373
21
-4.00035
0
LINE
8
BLACK
6
CONTINUOUS
10
5.90373
20
-4.00035
11
5.90563
21
-4.00444
0
LINE
8
BLACK
6
CONTINUOUS
10
5.90563
20
-4.00444
11
5.90608
21
-4.0078
0
LINE
8
BLACK
6
CONTINUOUS
10
5.90608
20
-4.0078
11
5.90608
21
-4.04323
0
LINE
8
BLACK
6
CONTINUOUS
10
5.90608
20
-4.04323
11
5.90563
21
-4.0466
0
LINE
8
BLACK
6
CONTINUOUS
10
5.90563
20
-4.0466
11
5.90373
21
-4.05069
0
LINE
8
BLACK
6
CONTINUOUS
10
5.90373
20
-4.05069
11
5.90054
21
-4.05388
0
LINE
8
BLACK
6
CONTINUOUS
10
5.90054
20
-4.05388
11
5.89645
21
-4.05578
0
LINE
8
BLACK
6
CONTINUOUS
10
5.89645
20
-4.05578
11
5.89308
21
-4.05623
0
LINE
8
BLACK
6
CONTINUOUS
10
5.89308
20
-4.05623
11
5.87242
21
-4.05623
0
LINE
8
BLACK
6
CONTINUOUS
10
5.87242
20
-4.05623
11
5.86905
21
-4.05578
0
LINE
8
BLACK
6
CONTINUOUS
10
5.86905
20
-4.05578
11
5.86496
21
-4.05388
0
LINE
8
BLACK
6
CONTINUOUS
10
5.86496
20
-4.05388
11
5.86177
21
-4.05069
0
LINE
8
BLACK
6
CONTINUOUS
10
5.86177
20
-4.05069
11
5.85987
21
-4.0466
0
LINE
8
BLACK
6
CONTINUOUS
10
5.85987
20
-4.0466
11
5.85942
21
-4.04323
0
LINE
8
BLACK
6
CONTINUOUS
10
5.85942
20
-4.04323
11
5.85942
21
-4.0078
0
LINE
8
BLACK
6
CONTINUOUS
10
5.85942
20
-4.0078
11
5.85987
21
-4.00444
0
LINE
8
BLACK
6
CONTINUOUS
10
5.85987
20
-4.00444
11
5.86177
21
-4.00035
0
LINE
8
BLACK
6
CONTINUOUS
10
5.86177
20
-4.00035
11
5.86496
21
-3.99716
0
LINE
8
BLACK
6
CONTINUOUS
10
5.86496
20
-3.99716
11
5.86905
21
-3.99525
0
LINE
8
BLACK
6
CONTINUOUS
10
5.86905
20
-3.99525
11
5.87242
21
-3.99481
0
LINE
8
BLACK
6
CONTINUOUS
10
5.87242
20
-3.99481
11
5.89308
21
-3.99481
0
LINE
8
BLACK
6
CONTINUOUS
10
5.89308
20
-3.99481
11
5.89645
21
-3.99525
0
LINE
8
BLACK
6
CONTINUOUS
10
5.9683
20
-3.99525
11
5.97239
21
-3.99716
0
LINE
8
BLACK
6
CONTINUOUS
10
5.97239
20
-3.99716
11
5.97558
21
-4.00035
0
LINE
8
BLACK
6
CONTINUOUS
10
5.97558
20
-4.00035
11
5.97748
21
-4.00444
0
LINE
8
BLACK
6
CONTINUOUS
10
5.97748
20
-4.00444
11
5.97793
21
-4.0078
0
LINE
8
BLACK
6
CONTINUOUS
10
5.97793
20
-4.0078
11
5.97793
21
-4.04323
0
LINE
8
BLACK
6
CONTINUOUS
10
5.97793
20
-4.04323
11
5.97748
21
-4.0466
0
LINE
8
BLACK
6
CONTINUOUS
10
5.97748
20
-4.0466
11
5.97558
21
-4.05069
0
LINE
8
BLACK
6
CONTINUOUS
10
5.97558
20
-4.05069
11
5.97239
21
-4.05388
0
LINE
8
BLACK
6
CONTINUOUS
10
5.97239
20
-4.05388
11
5.9683
21
-4.05578
0
LINE
8
BLACK
6
CONTINUOUS
10
5.9683
20
-4.05578
11
5.96493
21
-4.05623
0
LINE
8
BLACK
6
CONTINUOUS
10
5.96493
20
-4.05623
11
5.94427
21
-4.05623
0
LINE
8
BLACK
6
CONTINUOUS
10
5.94427
20
-4.05623
11
5.9409
21
-4.05578
0
LINE
8
BLACK
6
CONTINUOUS
10
5.9409
20
-4.05578
11
5.93681
21
-4.05388
0
LINE
8
BLACK
6
CONTINUOUS
10
5.93681
20
-4.05388
11
5.93362
21
-4.05069
0
LINE
8
BLACK
6
CONTINUOUS
10
5.93362
20
-4.05069
11
5.93172
21
-4.0466
0
LINE
8
BLACK
6
CONTINUOUS
10
5.93172
20
-4.0466
11
5.93127
21
-4.04323
0
LINE
8
BLACK
6
CONTINUOUS
10
5.93127
20
-4.04323
11
5.93127
21
-4.0078
0
LINE
8
BLACK
6
CONTINUOUS
10
5.93127
20
-4.0078
11
5.93172
21
-4.00444
0
LINE
8
BLACK
6
CONTINUOUS
10
5.93172
20
-4.00444
11
5.93362
21
-4.00035
0
LINE
8
BLACK
6
CONTINUOUS
10
5.93362
20
-4.00035
11
5.93681
21
-3.99716
0
LINE
8
BLACK
6
CONTINUOUS
10
5.93681
20
-3.99716
11
5.9409
21
-3.99525
0
LINE
8
BLACK
6
CONTINUOUS
10
5.9409
20
-3.99525
11
5.94427
21
-3.99481
0
LINE
8
BLACK
6
CONTINUOUS
10
5.94427
20
-3.99481
11
5.96493
21
-3.99481
0
LINE
8
BLACK
6
CONTINUOUS
10
5.96493
20
-3.99481
11
5.9683
21
-3.99525
0
LINE
8
BLACK
6
CONTINUOUS
10
6.08083
20
-3.99933
11
6.08185
21
-4.00001
0
LINE
8
BLACK
6
CONTINUOUS
10
6.08185
20
-4.00001
11
6.08253
21
-4.00104
0
LINE
8
BLACK
6
CONTINUOUS
10
6.08253
20
-4.00104
11
6.08277
21
-4.00224
0
LINE
8
BLACK
6
CONTINUOUS
10
6.08277
20
-4.00224
11
6.08277
21
-4.04949
0
LINE
8
BLACK
6
CONTINUOUS
10
6.08277
20
-4.04949
11
6.08253
21
-4.05069
0
LINE
8
BLACK
6
CONTINUOUS
10
6.08253
20
-4.05069
11
6.08185
21
-4.05171
0
LINE
8
BLACK
6
CONTINUOUS
10
6.08185
20
-4.05171
11
6.08083
21
-4.0524
0
LINE
8
BLACK
6
CONTINUOUS
10
6.08083
20
-4.0524
11
6.07962
21
-4.05263
0
LINE
8
BLACK
6
CONTINUOUS
10
6.07962
20
-4.05263
11
6.01663
21
-4.05263
0
LINE
8
BLACK
6
CONTINUOUS
10
6.01663
20
-4.05263
11
6.01542
21
-4.0524
0
LINE
8
BLACK
6
CONTINUOUS
10
6.01542
20
-4.0524
11
6.0144
21
-4.05171
0
LINE
8
BLACK
6
CONTINUOUS
10
6.0144
20
-4.05171
11
6.01372
21
-4.05069
0
LINE
8
BLACK
6
CONTINUOUS
10
6.01372
20
-4.05069
11
6.01348
21
-4.04949
0
LINE
8
BLACK
6
CONTINUOUS
10
6.01348
20
-4.04949
11
6.01348
21
-4.00224
0
LINE
8
BLACK
6
CONTINUOUS
10
6.01348
20
-4.00224
11
6.01372
21
-4.00104
0
LINE
8
BLACK
6
CONTINUOUS
10
6.01372
20
-4.00104
11
6.0144
21
-4.00001
0
LINE
8
BLACK
6
CONTINUOUS
10
6.0144
20
-4.00001
11
6.01542
21
-3.99933
0
LINE
8
BLACK
6
CONTINUOUS
10
6.01542
20
-3.99933
11
6.01663
21
-3.99909
0
LINE
8
BLACK
6
CONTINUOUS
10
6.01663
20
-3.99909
11
6.07962
21
-3.99909
0
LINE
8
BLACK
6
CONTINUOUS
10
6.07962
20
-3.99909
11
6.08083
21
-3.99933
0
LINE
8
BLACK
6
CONTINUOUS
10
5.47388
20
-3.91061
11
5.4749
21
-3.91129
0
LINE
8
BLACK
6
CONTINUOUS
10
5.4749
20
-3.91129
11
5.47558
21
-3.91231
0
LINE
8
BLACK
6
CONTINUOUS
10
5.47558
20
-3.91231
11
5.47582
21
-3.91352
0
LINE
8
BLACK
6
CONTINUOUS
10
5.47582
20
-3.91352
11
5.47582
21
-3.97352
0
LINE
8
BLACK
6
CONTINUOUS
10
5.47582
20
-3.97352
11
5.47558
21
-3.97472
0
LINE
8
BLACK
6
CONTINUOUS
10
5.47558
20
-3.97472
11
5.4749
21
-3.97574
0
LINE
8
BLACK
6
CONTINUOUS
10
5.4749
20
-3.97574
11
5.47388
21
-3.97643
0
LINE
8
BLACK
6
CONTINUOUS
10
5.47388
20
-3.97643
11
5.47267
21
-3.97667
0
LINE
8
BLACK
6
CONTINUOUS
10
5.47267
20
-3.97667
11
5.41267
21
-3.97667
0
LINE
8
BLACK
6
CONTINUOUS
10
5.41267
20
-3.97667
11
5.41147
21
-3.97643
0
LINE
8
BLACK
6
CONTINUOUS
10
5.41147
20
-3.97643
11
5.41045
21
-3.97574
0
LINE
8
BLACK
6
CONTINUOUS
10
5.41045
20
-3.97574
11
5.40977
21
-3.97472
0
LINE
8
BLACK
6
CONTINUOUS
10
5.40977
20
-3.97472
11
5.40953
21
-3.97352
0
LINE
8
BLACK
6
CONTINUOUS
10
5.40953
20
-3.97352
11
5.40953
21
-3.91352
0
LINE
8
BLACK
6
CONTINUOUS
10
5.40953
20
-3.91352
11
5.40977
21
-3.91231
0
LINE
8
BLACK
6
CONTINUOUS
10
5.40977
20
-3.91231
11
5.41045
21
-3.91129
0
LINE
8
BLACK
6
CONTINUOUS
10
5.41045
20
-3.91129
11
5.41147
21
-3.91061
0
LINE
8
BLACK
6
CONTINUOUS
10
5.41147
20
-3.91061
11
5.41267
21
-3.91037
0
LINE
8
BLACK
6
CONTINUOUS
10
5.41267
20
-3.91037
11
5.47267
21
-3.91037
0
LINE
8
BLACK
6
CONTINUOUS
10
5.47267
20
-3.91037
11
5.47388
21
-3.91061
0
LINE
8
BLACK
6
CONTINUOUS
10
5.57388
20
-3.91061
11
5.5749
21
-3.91129
0
LINE
8
BLACK
6
CONTINUOUS
10
5.5749
20
-3.91129
11
5.57558
21
-3.91231
0
LINE
8
BLACK
6
CONTINUOUS
10
5.57558
20
-3.91231
11
5.57582
21
-3.91352
0
LINE
8
BLACK
6
CONTINUOUS
10
5.57582
20
-3.91352
11
5.57582
21
-3.97352
0
LINE
8
BLACK
6
CONTINUOUS
10
5.57582
20
-3.97352
11
5.57558
21
-3.97472
0
LINE
8
BLACK
6
CONTINUOUS
10
5.57558
20
-3.97472
11
5.5749
21
-3.97574
0
LINE
8
BLACK
6
CONTINUOUS
10
5.5749
20
-3.97574
11
5.57388
21
-3.97643
0
LINE
8
BLACK
6
CONTINUOUS
10
5.57388
20
-3.97643
11
5.57267
21
-3.97667
0
LINE
8
BLACK
6
CONTINUOUS
10
5.57267
20
-3.97667
11
5.51267
21
-3.97667
0
LINE
8
BLACK
6
CONTINUOUS
10
5.51267
20
-3.97667
11
5.51147
21
-3.97643
0
LINE
8
BLACK
6
CONTINUOUS
10
5.51147
20
-3.97643
11
5.51045
21
-3.97574
0
LINE
8
BLACK
6
CONTINUOUS
10
5.51045
20
-3.97574
11
5.50976
21
-3.97472
0
LINE
8
BLACK
6
CONTINUOUS
10
5.50976
20
-3.97472
11
5.50953
21
-3.97352
0
LINE
8
BLACK
6
CONTINUOUS
10
5.50953
20
-3.97352
11
5.50953
21
-3.91352
0
LINE
8
BLACK
6
CONTINUOUS
10
5.50953
20
-3.91352
11
5.50976
21
-3.91231
0
LINE
8
BLACK
6
CONTINUOUS
10
5.50976
20
-3.91231
11
5.51045
21
-3.91129
0
LINE
8
BLACK
6
CONTINUOUS
10
5.51045
20
-3.91129
11
5.51147
21
-3.91061
0
LINE
8
BLACK
6
CONTINUOUS
10
5.51147
20
-3.91061
11
5.51267
21
-3.91037
0
LINE
8
BLACK
6
CONTINUOUS
10
5.51267
20
-3.91037
11
5.57267
21
-3.91037
0
LINE
8
BLACK
6
CONTINUOUS
10
5.57267
20
-3.91037
11
5.57388
21
-3.91061
0
LINE
8
BLACK
6
CONTINUOUS
10
6.08083
20
-3.90091
11
6.08185
21
-3.90159
0
LINE
8
BLACK
6
CONTINUOUS
10
6.08185
20
-3.90159
11
6.08253
21
-3.90261
0
LINE
8
BLACK
6
CONTINUOUS
10
6.08253
20
-3.90261
11
6.08277
21
-3.90382
0
LINE
8
BLACK
6
CONTINUOUS
10
6.08277
20
-3.90382
11
6.08277
21
-3.95106
0
LINE
8
BLACK
6
CONTINUOUS
10
6.08277
20
-3.95106
11
6.08253
21
-3.95227
0
LINE
8
BLACK
6
CONTINUOUS
10
6.08253
20
-3.95227
11
6.08185
21
-3.95329
0
LINE
8
BLACK
6
CONTINUOUS
10
6.08185
20
-3.95329
11
6.08083
21
-3.95397
0
LINE
8
BLACK
6
CONTINUOUS
10
6.08083
20
-3.95397
11
6.07962
21
-3.95421
0
LINE
8
BLACK
6
CONTINUOUS
10
6.07962
20
-3.95421
11
6.01663
21
-3.95421
0
LINE
8
BLACK
6
CONTINUOUS
10
6.01663
20
-3.95421
11
6.01542
21
-3.95397
0
LINE
8
BLACK
6
CONTINUOUS
10
6.01542
20
-3.95397
11
6.0144
21
-3.95329
0
LINE
8
BLACK
6
CONTINUOUS
10
6.0144
20
-3.95329
11
6.01372
21
-3.95227
0
LINE
8
BLACK
6
CONTINUOUS
10
6.01372
20
-3.95227
11
6.01348
21
-3.95106
0
LINE
8
BLACK
6
CONTINUOUS
10
6.01348
20
-3.95106
11
6.01348
21
-3.90382
0
LINE
8
BLACK
6
CONTINUOUS
10
6.01348
20
-3.90382
11
6.01372
21
-3.90261
0
LINE
8
BLACK
6
CONTINUOUS
10
6.01372
20
-3.90261
11
6.0144
21
-3.90159
0
LINE
8
BLACK
6
CONTINUOUS
10
6.0144
20
-3.90159
11
6.01542
21
-3.90091
0
LINE
8
BLACK
6
CONTINUOUS
10
6.01542
20
-3.90091
11
6.01663
21
-3.90067
0
LINE
8
BLACK
6
CONTINUOUS
10
6.01663
20
-3.90067
11
6.07962
21
-3.90067
0
LINE
8
BLACK
6
CONTINUOUS
10
6.07962
20
-3.90067
11
6.08083
21
-3.90091
0
LINE
8
BLACK
6
CONTINUOUS
10
5.89874
20
-3.89453
11
5.90283
21
-3.89643
0
LINE
8
BLACK
6
CONTINUOUS
10
5.90283
20
-3.89643
11
5.90602
21
-3.89962
0
LINE
8
BLACK
6
CONTINUOUS
10
5.90602
20
-3.89962
11
5.90793
21
-3.90371
0
LINE
8
BLACK
6
CONTINUOUS
10
5.90793
20
-3.90371
11
5.90837
21
-3.90708
0
LINE
8
BLACK
6
CONTINUOUS
10
5.90837
20
-3.90708
11
5.90837
21
-3.92676
0
LINE
8
BLACK
6
CONTINUOUS
10
5.90837
20
-3.92676
11
5.90793
21
-3.93012
0
LINE
8
BLACK
6
CONTINUOUS
10
5.90793
20
-3.93012
11
5.90602
21
-3.93421
0
LINE
8
BLACK
6
CONTINUOUS
10
5.90602
20
-3.93421
11
5.90283
21
-3.9374
0
LINE
8
BLACK
6
CONTINUOUS
10
5.90283
20
-3.9374
11
5.89874
21
-3.93931
0
LINE
8
BLACK
6
CONTINUOUS
10
5.89874
20
-3.93931
11
5.89538
21
-3.93975
0
LINE
8
BLACK
6
CONTINUOUS
10
5.89538
20
-3.93975
11
5.85797
21
-3.93975
0
LINE
8
BLACK
6
CONTINUOUS
10
5.85797
20
-3.93975
11
5.85461
21
-3.93931
0
LINE
8
BLACK
6
CONTINUOUS
10
5.85461
20
-3.93931
11
5.85052
21
-3.9374
0
LINE
8
BLACK
6
CONTINUOUS
10
5.85052
20
-3.9374
11
5.84733
21
-3.93421
0
LINE
8
BLACK
6
CONTINUOUS
10
5.84733
20
-3.93421
11
5.84542
21
-3.93012
0
LINE
8
BLACK
6
CONTINUOUS
10
5.84542
20
-3.93012
11
5.84498
21
-3.92676
0
LINE
8
BLACK
6
CONTINUOUS
10
5.84498
20
-3.92676
11
5.84498
21
-3.90708
0
LINE
8
BLACK
6
CONTINUOUS
10
5.84498
20
-3.90708
11
5.84542
21
-3.90371
0
LINE
8
BLACK
6
CONTINUOUS
10
5.84542
20
-3.90371
11
5.84733
21
-3.89962
0
LINE
8
BLACK
6
CONTINUOUS
10
5.84733
20
-3.89962
11
5.85052
21
-3.89643
0
LINE
8
BLACK
6
CONTINUOUS
10
5.85052
20
-3.89643
11
5.85461
21
-3.89453
0
LINE
8
BLACK
6
CONTINUOUS
10
5.85461
20
-3.89453
11
5.85797
21
-3.89408
0
LINE
8
BLACK
6
CONTINUOUS
10
5.85797
20
-3.89408
11
5.89538
21
-3.89408
0
LINE
8
BLACK
6
CONTINUOUS
10
5.89538
20
-3.89408
11
5.89874
21
-3.89453
0
LINE
8
BLACK
6
CONTINUOUS
10
5.98274
20
-3.89453
11
5.98683
21
-3.89643
0
LINE
8
BLACK
6
CONTINUOUS
10
5.98683
20
-3.89643
11
5.99002
21
-3.89962
0
LINE
8
BLACK
6
CONTINUOUS
10
5.99002
20
-3.89962
11
5.99193
21
-3.90371
0
LINE
8
BLACK
6
CONTINUOUS
10
5.99193
20
-3.90371
11
5.99237
21
-3.90708
0
LINE
8
BLACK
6
CONTINUOUS
10
5.99237
20
-3.90708
11
5.99237
21
-3.92676
0
LINE
8
BLACK
6
CONTINUOUS
10
5.99237
20
-3.92676
11
5.99193
21
-3.93012
0
LINE
8
BLACK
6
CONTINUOUS
10
5.99193
20
-3.93012
11
5.99002
21
-3.93421
0
LINE
8
BLACK
6
CONTINUOUS
10
5.99002
20
-3.93421
11
5.98683
21
-3.9374
0
LINE
8
BLACK
6
CONTINUOUS
10
5.98683
20
-3.9374
11
5.98274
21
-3.93931
0
LINE
8
BLACK
6
CONTINUOUS
10
5.98274
20
-3.93931
11
5.97938
21
-3.93975
0
LINE
8
BLACK
6
CONTINUOUS
10
5.97938
20
-3.93975
11
5.94197
21
-3.93975
0
LINE
8
BLACK
6
CONTINUOUS
10
5.94197
20
-3.93975
11
5.93861
21
-3.93931
0
LINE
8
BLACK
6
CONTINUOUS
10
5.93861
20
-3.93931
11
5.93452
21
-3.9374
0
LINE
8
BLACK
6
CONTINUOUS
10
5.93452
20
-3.9374
11
5.93133
21
-3.93421
0
LINE
8
BLACK
6
CONTINUOUS
10
5.93133
20
-3.93421
11
5.92942
21
-3.93012
0
LINE
8
BLACK
6
CONTINUOUS
10
5.92942
20
-3.93012
11
5.92898
21
-3.92676
0
LINE
8
BLACK
6
CONTINUOUS
10
5.92898
20
-3.92676
11
5.92898
21
-3.90708
0
LINE
8
BLACK
6
CONTINUOUS
10
5.92898
20
-3.90708
11
5.92942
21
-3.90371
0
LINE
8
BLACK
6
CONTINUOUS
10
5.92942
20
-3.90371
11
5.93133
21
-3.89962
0
LINE
8
BLACK
6
CONTINUOUS
10
5.93133
20
-3.89962
11
5.93452
21
-3.89643
0
LINE
8
BLACK
6
CONTINUOUS
10
5.93452
20
-3.89643
11
5.93861
21
-3.89453
0
LINE
8
BLACK
6
CONTINUOUS
10
5.93861
20
-3.89453
11
5.94197
21
-3.89408
0
LINE
8
BLACK
6
CONTINUOUS
10
5.94197
20
-3.89408
11
5.97938
21
-3.89408
0
LINE
8
BLACK
6
CONTINUOUS
10
5.97938
20
-3.89408
11
5.98274
21
-3.89453
0
LINE
8
BLACK
6
CONTINUOUS
10
5.47388
20
-3.81061
11
5.4749
21
-3.81129
0
LINE
8
BLACK
6
CONTINUOUS
10
5.4749
20
-3.81129
11
5.47558
21
-3.81231
0
LINE
8
BLACK
6
CONTINUOUS
10
5.47558
20
-3.81231
11
5.47582
21
-3.81352
0
LINE
8
BLACK
6
CONTINUOUS
10
5.47582
20
-3.81352
11
5.47582
21
-3.87352
0
LINE
8
BLACK
6
CONTINUOUS
10
5.47582
20
-3.87352
11
5.47558
21
-3.87472
0
LINE
8
BLACK
6
CONTINUOUS
10
5.47558
20
-3.87472
11
5.4749
21
-3.87574
0
LINE
8
BLACK
6
CONTINUOUS
10
5.4749
20
-3.87574
11
5.47388
21
-3.87643
0
LINE
8
BLACK
6
CONTINUOUS
10
5.47388
20
-3.87643
11
5.47267
21
-3.87667
0
LINE
8
BLACK
6
CONTINUOUS
10
5.47267
20
-3.87667
11
5.41267
21
-3.87667
0
LINE
8
BLACK
6
CONTINUOUS
10
5.41267
20
-3.87667
11
5.41147
21
-3.87643
0
LINE
8
BLACK
6
CONTINUOUS
10
5.41147
20
-3.87643
11
5.41045
21
-3.87574
0
LINE
8
BLACK
6
CONTINUOUS
10
5.41045
20
-3.87574
11
5.40977
21
-3.87472
0
LINE
8
BLACK
6
CONTINUOUS
10
5.40977
20
-3.87472
11
5.40953
21
-3.87352
0
LINE
8
BLACK
6
CONTINUOUS
10
5.40953
20
-3.87352
11
5.40953
21
-3.81352
0
LINE
8
BLACK
6
CONTINUOUS
10
5.40953
20
-3.81352
11
5.40977
21
-3.81231
0
LINE
8
BLACK
6
CONTINUOUS
10
5.40977
20
-3.81231
11
5.41045
21
-3.81129
0
LINE
8
BLACK
6
CONTINUOUS
10
5.41045
20
-3.81129
11
5.41147
21
-3.81061
0
LINE
8
BLACK
6
CONTINUOUS
10
5.41147
20
-3.81061
11
5.41267
21
-3.81037
0
LINE
8
BLACK
6
CONTINUOUS
10
5.41267
20
-3.81037
11
5.47267
21
-3.81037
0
LINE
8
BLACK
6
CONTINUOUS
10
5.47267
20
-3.81037
11
5.47388
21
-3.81061
0
LINE
8
BLACK
6
CONTINUOUS
10
5.57388
20
-3.81061
11
5.5749
21
-3.81129
0
LINE
8
BLACK
6
CONTINUOUS
10
5.5749
20
-3.81129
11
5.57558
21
-3.81231
0
LINE
8
BLACK
6
CONTINUOUS
10
5.57558
20
-3.81231
11
5.57582
21
-3.81352
0
LINE
8
BLACK
6
CONTINUOUS
10
5.57582
20
-3.81352
11
5.57582
21
-3.87352
0
LINE
8
BLACK
6
CONTINUOUS
10
5.57582
20
-3.87352
11
5.57558
21
-3.87472
0
LINE
8
BLACK
6
CONTINUOUS
10
5.57558
20
-3.87472
11
5.5749
21
-3.87574
0
LINE
8
BLACK
6
CONTINUOUS
10
5.5749
20
-3.87574
11
5.57388
21
-3.87643
0
LINE
8
BLACK
6
CONTINUOUS
10
5.57388
20
-3.87643
11
5.57267
21
-3.87667
0
LINE
8
BLACK
6
CONTINUOUS
10
5.57267
20
-3.87667
11
5.51267
21
-3.87667
0
LINE
8
BLACK
6
CONTINUOUS
10
5.51267
20
-3.87667
11
5.51147
21
-3.87643
0
LINE
8
BLACK
6
CONTINUOUS
10
5.51147
20
-3.87643
11
5.51045
21
-3.87574
0
LINE
8
BLACK
6
CONTINUOUS
10
5.51045
20
-3.87574
11
5.50976
21
-3.87472
0
LINE
8
BLACK
6
CONTINUOUS
10
5.50976
20
-3.87472
11
5.50953
21
-3.87352
0
LINE
8
BLACK
6
CONTINUOUS
10
5.50953
20
-3.87352
11
5.50953
21
-3.81352
0
LINE
8
BLACK
6
CONTINUOUS
10
5.50953
20
-3.81352
11
5.50976
21
-3.81231
0
LINE
8
BLACK
6
CONTINUOUS
10
5.50976
20
-3.81231
11
5.51045
21
-3.81129
0
LINE
8
BLACK
6
CONTINUOUS
10
5.51045
20
-3.81129
11
5.51147
21
-3.81061
0
LINE
8
BLACK
6
CONTINUOUS
10
5.51147
20
-3.81061
11
5.51267
21
-3.81037
0
LINE
8
BLACK
6
CONTINUOUS
10
5.51267
20
-3.81037
11
5.57267
21
-3.81037
0
LINE
8
BLACK
6
CONTINUOUS
10
5.57267
20
-3.81037
11
5.57388
21
-3.81061
0
LINE
8
BLACK
6
CONTINUOUS
10
5.89874
20
-3.81972
11
5.90283
21
-3.82163
0
LINE
8
BLACK
6
CONTINUOUS
10
5.90283
20
-3.82163
11
5.90602
21
-3.82482
0
LINE
8
BLACK
6
CONTINUOUS
10
5.90602
20
-3.82482
11
5.90793
21
-3.82891
0
LINE
8
BLACK
6
CONTINUOUS
10
5.90793
20
-3.82891
11
5.90837
21
-3.83227
0
LINE
8
BLACK
6
CONTINUOUS
10
5.90837
20
-3.83227
11
5.90837
21
-3.85196
0
LINE
8
BLACK
6
CONTINUOUS
10
5.90837
20
-3.85196
11
5.90793
21
-3.85532
0
LINE
8
BLACK
6
CONTINUOUS
10
5.90793
20
-3.85532
11
5.90602
21
-3.85941
0
LINE
8
BLACK
6
CONTINUOUS
10
5.90602
20
-3.85941
11
5.90283
21
-3.8626
0
LINE
8
BLACK
6
CONTINUOUS
10
5.90283
20
-3.8626
11
5.89874
21
-3.86451
0
LINE
8
BLACK
6
CONTINUOUS
10
5.89874
20
-3.86451
11
5.89538
21
-3.86495
0
LINE
8
BLACK
6
CONTINUOUS
10
5.89538
20
-3.86495
11
5.85797
21
-3.86495
0
LINE
8
BLACK
6
CONTINUOUS
10
5.85797
20
-3.86495
11
5.85461
21
-3.86451
0
LINE
8
BLACK
6
CONTINUOUS
10
5.85461
20
-3.86451
11
5.85052
21
-3.8626
0
LINE
8
BLACK
6
CONTINUOUS
10
5.85052
20
-3.8626
11
5.84733
21
-3.85941
0
LINE
8
BLACK
6
CONTINUOUS
10
5.84733
20
-3.85941
11
5.84542
21
-3.85532
0
LINE
8
BLACK
6
CONTINUOUS
10
5.84542
20
-3.85532
11
5.84498
21
-3.85196
0
LINE
8
BLACK
6
CONTINUOUS
10
5.84498
20
-3.85196
11
5.84498
21
-3.83227
0
LINE
8
BLACK
6
CONTINUOUS
10
5.84498
20
-3.83227
11
5.84542
21
-3.82891
0
LINE
8
BLACK
6
CONTINUOUS
10
5.84542
20
-3.82891
11
5.84733
21
-3.82482
0
LINE
8
BLACK
6
CONTINUOUS
10
5.84733
20
-3.82482
11
5.85052
21
-3.82163
0
LINE
8
BLACK
6
CONTINUOUS
10
5.85052
20
-3.82163
11
5.85461
21
-3.81972
0
LINE
8
BLACK
6
CONTINUOUS
10
5.85461
20
-3.81972
11
5.85797
21
-3.81928
0
LINE
8
BLACK
6
CONTINUOUS
10
5.85797
20
-3.81928
11
5.89538
21
-3.81928
0
LINE
8
BLACK
6
CONTINUOUS
10
5.89538
20
-3.81928
11
5.89874
21
-3.81972
0
LINE
8
BLACK
6
CONTINUOUS
10
5.98274
20
-3.81972
11
5.98683
21
-3.82163
0
LINE
8
BLACK
6
CONTINUOUS
10
5.98683
20
-3.82163
11
5.99002
21
-3.82482
0
LINE
8
BLACK
6
CONTINUOUS
10
5.99002
20
-3.82482
11
5.99193
21
-3.82891
0
LINE
8
BLACK
6
CONTINUOUS
10
5.99193
20
-3.82891
11
5.99237
21
-3.83227
0
LINE
8
BLACK
6
CONTINUOUS
10
5.99237
20
-3.83227
11
5.99237
21
-3.85196
0
LINE
8
BLACK
6
CONTINUOUS
10
5.99237
20
-3.85196
11
5.99193
21
-3.85532
0
LINE
8
BLACK
6
CONTINUOUS
10
5.99193
20
-3.85532
11
5.99002
21
-3.85941
0
LINE
8
BLACK
6
CONTINUOUS
10
5.99002
20
-3.85941
11
5.98683
21
-3.8626
0
LINE
8
BLACK
6
CONTINUOUS
10
5.98683
20
-3.8626
11
5.98274
21
-3.86451
0
LINE
8
BLACK
6
CONTINUOUS
10
5.98274
20
-3.86451
11
5.97938
21
-3.86495
0
LINE
8
BLACK
6
CONTINUOUS
10
5.97938
20
-3.86495
11
5.94197
21
-3.86495
0
LINE
8
BLACK
6
CONTINUOUS
10
5.94197
20
-3.86495
11
5.93861
21
-3.86451
0
LINE
8
BLACK
6
CONTINUOUS
10
5.93861
20
-3.86451
11
5.93452
21
-3.8626
0
LINE
8
BLACK
6
CONTINUOUS
10
5.93452
20
-3.8626
11
5.93133
21
-3.85941
0
LINE
8
BLACK
6
CONTINUOUS
10
5.93133
20
-3.85941
11
5.92942
21
-3.85532
0
LINE
8
BLACK
6
CONTINUOUS
10
5.92942
20
-3.85532
11
5.92898
21
-3.85196
0
LINE
8
BLACK
6
CONTINUOUS
10
5.92898
20
-3.85196
11
5.92898
21
-3.83227
0
LINE
8
BLACK
6
CONTINUOUS
10
5.92898
20
-3.83227
11
5.92942
21
-3.82891
0
LINE
8
BLACK
6
CONTINUOUS
10
5.92942
20
-3.82891
11
5.93133
21
-3.82482
0
LINE
8
BLACK
6
CONTINUOUS
10
5.93133
20
-3.82482
11
5.93452
21
-3.82163
0
LINE
8
BLACK
6
CONTINUOUS
10
5.93452
20
-3.82163
11
5.93861
21
-3.81972
0
LINE
8
BLACK
6
CONTINUOUS
10
5.93861
20
-3.81972
11
5.94197
21
-3.81928
0
LINE
8
BLACK
6
CONTINUOUS
10
5.94197
20
-3.81928
11
5.97938
21
-3.81928
0
LINE
8
BLACK
6
CONTINUOUS
10
5.97938
20
-3.81928
11
5.98274
21
-3.81972
0
LINE
8
BLACK
6
CONTINUOUS
10
6.08083
20
-3.80248
11
6.08185
21
-3.80316
0
LINE
8
BLACK
6
CONTINUOUS
10
6.08185
20
-3.80316
11
6.08253
21
-3.80419
0
LINE
8
BLACK
6
CONTINUOUS
10
6.08253
20
-3.80419
11
6.08277
21
-3.80539
0
LINE
8
BLACK
6
CONTINUOUS
10
6.08277
20
-3.80539
11
6.08277
21
-3.85263
0
LINE
8
BLACK
6
CONTINUOUS
10
6.08277
20
-3.85263
11
6.08253
21
-3.85384
0
LINE
8
BLACK
6
CONTINUOUS
10
6.08253
20
-3.85384
11
6.08185
21
-3.85486
0
LINE
8
BLACK
6
CONTINUOUS
10
6.08185
20
-3.85486
11
6.08083
21
-3.85554
0
LINE
8
BLACK
6
CONTINUOUS
10
6.08083
20
-3.85554
11
6.07962
21
-3.85578
0
LINE
8
BLACK
6
CONTINUOUS
10
6.07962
20
-3.85578
11
6.01663
21
-3.85578
0
LINE
8
BLACK
6
CONTINUOUS
10
6.01663
20
-3.85578
11
6.01542
21
-3.85554
0
LINE
8
BLACK
6
CONTINUOUS
10
6.01542
20
-3.85554
11
6.0144
21
-3.85486
0
LINE
8
BLACK
6
CONTINUOUS
10
6.0144
20
-3.85486
11
6.01372
21
-3.85384
0
LINE
8
BLACK
6
CONTINUOUS
10
6.01372
20
-3.85384
11
6.01348
21
-3.85263
0
LINE
8
BLACK
6
CONTINUOUS
10
6.01348
20
-3.85263
11
6.01348
21
-3.80539
0
LINE
8
BLACK
6
CONTINUOUS
10
6.01348
20
-3.80539
11
6.01372
21
-3.80419
0
LINE
8
BLACK
6
CONTINUOUS
10
6.01372
20
-3.80419
11
6.0144
21
-3.80316
0
LINE
8
BLACK
6
CONTINUOUS
10
6.0144
20
-3.80316
11
6.01542
21
-3.80248
0
LINE
8
BLACK
6
CONTINUOUS
10
6.01542
20
-3.80248
11
6.01663
21
-3.80224
0
LINE
8
BLACK
6
CONTINUOUS
10
6.01663
20
-3.80224
11
6.07962
21
-3.80224
0
LINE
8
BLACK
6
CONTINUOUS
10
6.07962
20
-3.80224
11
6.08083
21
-3.80248
0
LINE
8
BLACK
6
CONTINUOUS
10
5.47388
20
-3.71061
11
5.4749
21
-3.71129
0
LINE
8
BLACK
6
CONTINUOUS
10
5.4749
20
-3.71129
11
5.47558
21
-3.71231
0
LINE
8
BLACK
6
CONTINUOUS
10
5.47558
20
-3.71231
11
5.47582
21
-3.71352
0
LINE
8
BLACK
6
CONTINUOUS
10
5.47582
20
-3.71352
11
5.47582
21
-3.77352
0
LINE
8
BLACK
6
CONTINUOUS
10
5.47582
20
-3.77352
11
5.47558
21
-3.77472
0
LINE
8
BLACK
6
CONTINUOUS
10
5.47558
20
-3.77472
11
5.4749
21
-3.77574
0
LINE
8
BLACK
6
CONTINUOUS
10
5.4749
20
-3.77574
11
5.47388
21
-3.77643
0
LINE
8
BLACK
6
CONTINUOUS
10
5.47388
20
-3.77643
11
5.47267
21
-3.77667
0
LINE
8
BLACK
6
CONTINUOUS
10
5.47267
20
-3.77667
11
5.41267
21
-3.77667
0
LINE
8
BLACK
6
CONTINUOUS
10
5.41267
20
-3.77667
11
5.41147
21
-3.77643
0
LINE
8
BLACK
6
CONTINUOUS
10
5.41147
20
-3.77643
11
5.41045
21
-3.77574
0
LINE
8
BLACK
6
CONTINUOUS
10
5.41045
20
-3.77574
11
5.40977
21
-3.77472
0
LINE
8
BLACK
6
CONTINUOUS
10
5.40977
20
-3.77472
11
5.40953
21
-3.77352
0
LINE
8
BLACK
6
CONTINUOUS
10
5.40953
20
-3.77352
11
5.40953
21
-3.71352
0
LINE
8
BLACK
6
CONTINUOUS
10
5.40953
20
-3.71352
11
5.40977
21
-3.71231
0
LINE
8
BLACK
6
CONTINUOUS
10
5.40977
20
-3.71231
11
5.41045
21
-3.71129
0
LINE
8
BLACK
6
CONTINUOUS
10
5.41045
20
-3.71129
11
5.41147
21
-3.71061
0
LINE
8
BLACK
6
CONTINUOUS
10
5.41147
20
-3.71061
11
5.41267
21
-3.71037
0
LINE
8
BLACK
6
CONTINUOUS
10
5.41267
20
-3.71037
11
5.47267
21
-3.71037
0
LINE
8
BLACK
6
CONTINUOUS
10
5.47267
20
-3.71037
11
5.47388
21
-3.71061
0
LINE
8
BLACK
6
CONTINUOUS
10
5.57388
20
-3.71061
11
5.5749
21
-3.71129
0
LINE
8
BLACK
6
CONTINUOUS
10
5.5749
20
-3.71129
11
5.57558
21
-3.71231
0
LINE
8
BLACK
6
CONTINUOUS
10
5.57558
20
-3.71231
11
5.57582
21
-3.71352
0
LINE
8
BLACK
6
CONTINUOUS
10
5.57582
20
-3.71352
11
5.57582
21
-3.77352
0
LINE
8
BLACK
6
CONTINUOUS
10
5.57582
20
-3.77352
11
5.57558
21
-3.77472
0
LINE
8
BLACK
6
CONTINUOUS
10
5.57558
20
-3.77472
11
5.5749
21
-3.77574
0
LINE
8
BLACK
6
CONTINUOUS
10
5.5749
20
-3.77574
11
5.57388
21
-3.77643
0
LINE
8
BLACK
6
CONTINUOUS
10
5.57388
20
-3.77643
11
5.57267
21
-3.77667
0
LINE
8
BLACK
6
CONTINUOUS
10
5.57267
20
-3.77667
11
5.51267
21
-3.77667
0
LINE
8
BLACK
6
CONTINUOUS
10
5.51267
20
-3.77667
11
5.51147
21
-3.77643
0
LINE
8
BLACK
6
CONTINUOUS
10
5.51147
20
-3.77643
11
5.51045
21
-3.77574
0
LINE
8
BLACK
6
CONTINUOUS
10
5.51045
20
-3.77574
11
5.50976
21
-3.77472
0
LINE
8
BLACK
6
CONTINUOUS
10
5.50976
20
-3.77472
11
5.50953
21
-3.77352
0
LINE
8
BLACK
6
CONTINUOUS
10
5.50953
20
-3.77352
11
5.50953
21
-3.71352
0
LINE
8
BLACK
6
CONTINUOUS
10
5.50953
20
-3.71352
11
5.50976
21
-3.71231
0
LINE
8
BLACK
6
CONTINUOUS
10
5.50976
20
-3.71231
11
5.51045
21
-3.71129
0
LINE
8
BLACK
6
CONTINUOUS
10
5.51045
20
-3.71129
11
5.51147
21
-3.71061
0
LINE
8
BLACK
6
CONTINUOUS
10
5.51147
20
-3.71061
11
5.51267
21
-3.71037
0
LINE
8
BLACK
6
CONTINUOUS
10
5.51267
20
-3.71037
11
5.57267
21
-3.71037
0
LINE
8
BLACK
6
CONTINUOUS
10
5.57267
20
-3.71037
11
5.57388
21
-3.71061
0
LINE
8
BLACK
6
CONTINUOUS
10
5.89645
20
-3.70325
11
5.90054
21
-3.70516
0
LINE
8
BLACK
6
CONTINUOUS
10
5.90054
20
-3.70516
11
5.90373
21
-3.70835
0
LINE
8
BLACK
6
CONTINUOUS
10
5.90373
20
-3.70835
11
5.90563
21
-3.71244
0
LINE
8
BLACK
6
CONTINUOUS
10
5.90563
20
-3.71244
11
5.90608
21
-3.7158
0
LINE
8
BLACK
6
CONTINUOUS
10
5.90608
20
-3.7158
11
5.90608
21
-3.75123
0
LINE
8
BLACK
6
CONTINUOUS
10
5.90608
20
-3.75123
11
5.90563
21
-3.7546
0
LINE
8
BLACK
6
CONTINUOUS
10
5.90563
20
-3.7546
11
5.90373
21
-3.75869
0
LINE
8
BLACK
6
CONTINUOUS
10
5.90373
20
-3.75869
11
5.90054
21
-3.76188
0
LINE
8
BLACK
6
CONTINUOUS
10
5.90054
20
-3.76188
11
5.89645
21
-3.76378
0
LINE
8
BLACK
6
CONTINUOUS
10
5.89645
20
-3.76378
11
5.89308
21
-3.76423
0
LINE
8
BLACK
6
CONTINUOUS
10
5.89308
20
-3.76423
11
5.87242
21
-3.76423
0
LINE
8
BLACK
6
CONTINUOUS
10
5.87242
20
-3.76423
11
5.86905
21
-3.76378
0
LINE
8
BLACK
6
CONTINUOUS
10
5.86905
20
-3.76378
11
5.86496
21
-3.76188
0
LINE
8
BLACK
6
CONTINUOUS
10
5.86496
20
-3.76188
11
5.86177
21
-3.75869
0
LINE
8
BLACK
6
CONTINUOUS
10
5.86177
20
-3.75869
11
5.85987
21
-3.7546
0
LINE
8
BLACK
6
CONTINUOUS
10
5.85987
20
-3.7546
11
5.85942
21
-3.75123
0
LINE
8
BLACK
6
CONTINUOUS
10
5.85942
20
-3.75123
11
5.85942
21
-3.7158
0
LINE
8
BLACK
6
CONTINUOUS
10
5.85942
20
-3.7158
11
5.85987
21
-3.71244
0
LINE
8
BLACK
6
CONTINUOUS
10
5.85987
20
-3.71244
11
5.86177
21
-3.70835
0
LINE
8
BLACK
6
CONTINUOUS
10
5.86177
20
-3.70835
11
5.86496
21
-3.70516
0
LINE
8
BLACK
6
CONTINUOUS
10
5.86496
20
-3.70516
11
5.86905
21
-3.70325
0
LINE
8
BLACK
6
CONTINUOUS
10
5.86905
20
-3.70325
11
5.87242
21
-3.70281
0
LINE
8
BLACK
6
CONTINUOUS
10
5.87242
20
-3.70281
11
5.89308
21
-3.70281
0
LINE
8
BLACK
6
CONTINUOUS
10
5.89308
20
-3.70281
11
5.89645
21
-3.70325
0
LINE
8
BLACK
6
CONTINUOUS
10
5.9683
20
-3.70325
11
5.97239
21
-3.70516
0
LINE
8
BLACK
6
CONTINUOUS
10
5.97239
20
-3.70516
11
5.97558
21
-3.70835
0
LINE
8
BLACK
6
CONTINUOUS
10
5.97558
20
-3.70835
11
5.97748
21
-3.71244
0
LINE
8
BLACK
6
CONTINUOUS
10
5.97748
20
-3.71244
11
5.97793
21
-3.7158
0
LINE
8
BLACK
6
CONTINUOUS
10
5.97793
20
-3.7158
11
5.97793
21
-3.75123
0
LINE
8
BLACK
6
CONTINUOUS
10
5.97793
20
-3.75123
11
5.97748
21
-3.7546
0
LINE
8
BLACK
6
CONTINUOUS
10
5.97748
20
-3.7546
11
5.97558
21
-3.75869
0
LINE
8
BLACK
6
CONTINUOUS
10
5.97558
20
-3.75869
11
5.97239
21
-3.76188
0
LINE
8
BLACK
6
CONTINUOUS
10
5.97239
20
-3.76188
11
5.9683
21
-3.76378
0
LINE
8
BLACK
6
CONTINUOUS
10
5.9683
20
-3.76378
11
5.96493
21
-3.76423
0
LINE
8
BLACK
6
CONTINUOUS
10
5.96493
20
-3.76423
11
5.94427
21
-3.76423
0
LINE
8
BLACK
6
CONTINUOUS
10
5.94427
20
-3.76423
11
5.9409
21
-3.76378
0
LINE
8
BLACK
6
CONTINUOUS
10
5.9409
20
-3.76378
11
5.93681
21
-3.76188
0
LINE
8
BLACK
6
CONTINUOUS
10
5.93681
20
-3.76188
11
5.93362
21
-3.75869
0
LINE
8
BLACK
6
CONTINUOUS
10
5.93362
20
-3.75869
11
5.93172
21
-3.7546
0
LINE
8
BLACK
6
CONTINUOUS
10
5.93172
20
-3.7546
11
5.93127
21
-3.75123
0
LINE
8
BLACK
6
CONTINUOUS
10
5.93127
20
-3.75123
11
5.93127
21
-3.7158
0
LINE
8
BLACK
6
CONTINUOUS
10
5.93127
20
-3.7158
11
5.93172
21
-3.71244
0
LINE
8
BLACK
6
CONTINUOUS
10
5.93172
20
-3.71244
11
5.93362
21
-3.70835
0
LINE
8
BLACK
6
CONTINUOUS
10
5.93362
20
-3.70835
11
5.93681
21
-3.70516
0
LINE
8
BLACK
6
CONTINUOUS
10
5.93681
20
-3.70516
11
5.9409
21
-3.70325
0
LINE
8
BLACK
6
CONTINUOUS
10
5.9409
20
-3.70325
11
5.94427
21
-3.70281
0
LINE
8
BLACK
6
CONTINUOUS
10
5.94427
20
-3.70281
11
5.96493
21
-3.70281
0
LINE
8
BLACK
6
CONTINUOUS
10
5.96493
20
-3.70281
11
5.9683
21
-3.70325
0
LINE
8
BLACK
6
CONTINUOUS
10
6.08083
20
-3.70406
11
6.08185
21
-3.70474
0
LINE
8
BLACK
6
CONTINUOUS
10
6.08185
20
-3.70474
11
6.08253
21
-3.70576
0
LINE
8
BLACK
6
CONTINUOUS
10
6.08253
20
-3.70576
11
6.08277
21
-3.70697
0
LINE
8
BLACK
6
CONTINUOUS
10
6.08277
20
-3.70697
11
6.08277
21
-3.75421
0
LINE
8
BLACK
6
CONTINUOUS
10
6.08277
20
-3.75421
11
6.08253
21
-3.75542
0
LINE
8
BLACK
6
CONTINUOUS
10
6.08253
20
-3.75542
11
6.08185
21
-3.75644
0
LINE
8
BLACK
6
CONTINUOUS
10
6.08185
20
-3.75644
11
6.08083
21
-3.75712
0
LINE
8
BLACK
6
CONTINUOUS
10
6.08083
20
-3.75712
11
6.07962
21
-3.75736
0
LINE
8
BLACK
6
CONTINUOUS
10
6.07962
20
-3.75736
11
6.01663
21
-3.75736
0
LINE
8
BLACK
6
CONTINUOUS
10
6.01663
20
-3.75736
11
6.01542
21
-3.75712
0
LINE
8
BLACK
6
CONTINUOUS
10
6.01542
20
-3.75712
11
6.0144
21
-3.75644
0
LINE
8
BLACK
6
CONTINUOUS
10
6.0144
20
-3.75644
11
6.01372
21
-3.75542
0
LINE
8
BLACK
6
CONTINUOUS
10
6.01372
20
-3.75542
11
6.01348
21
-3.75421
0
LINE
8
BLACK
6
CONTINUOUS
10
6.01348
20
-3.75421
11
6.01348
21
-3.70697
0
LINE
8
BLACK
6
CONTINUOUS
10
6.01348
20
-3.70697
11
6.01372
21
-3.70576
0
LINE
8
BLACK
6
CONTINUOUS
10
6.01372
20
-3.70576
11
6.0144
21
-3.70474
0
LINE
8
BLACK
6
CONTINUOUS
10
6.0144
20
-3.70474
11
6.01542
21
-3.70406
0
LINE
8
BLACK
6
CONTINUOUS
10
6.01542
20
-3.70406
11
6.01663
21
-3.70382
0
LINE
8
BLACK
6
CONTINUOUS
10
6.01663
20
-3.70382
11
6.07962
21
-3.70382
0
LINE
8
BLACK
6
CONTINUOUS
10
6.07962
20
-3.70382
11
6.08083
21
-3.70406
0
LINE
8
BLACK
6
CONTINUOUS
10
5.89645
20
-3.60125
11
5.90054
21
-3.60316
0
LINE
8
BLACK
6
CONTINUOUS
10
5.90054
20
-3.60316
11
5.90373
21
-3.60635
0
LINE
8
BLACK
6
CONTINUOUS
10
5.90373
20
-3.60635
11
5.90563
21
-3.61044
0
LINE
8
BLACK
6
CONTINUOUS
10
5.90563
20
-3.61044
11
5.90608
21
-3.6138
0
LINE
8
BLACK
6
CONTINUOUS
10
5.90608
20
-3.6138
11
5.90608
21
-3.64923
0
LINE
8
BLACK
6
CONTINUOUS
10
5.90608
20
-3.64923
11
5.90563
21
-3.6526
0
LINE
8
BLACK
6
CONTINUOUS
10
5.90563
20
-3.6526
11
5.90373
21
-3.65669
0
LINE
8
BLACK
6
CONTINUOUS
10
5.90373
20
-3.65669
11
5.90054
21
-3.65988
0
LINE
8
BLACK
6
CONTINUOUS
10
5.90054
20
-3.65988
11
5.89645
21
-3.66178
0
LINE
8
BLACK
6
CONTINUOUS
10
5.89645
20
-3.66178
11
5.89308
21
-3.66223
0
LINE
8
BLACK
6
CONTINUOUS
10
5.89308
20
-3.66223
11
5.87242
21
-3.66223
0
LINE
8
BLACK
6
CONTINUOUS
10
5.87242
20
-3.66223
11
5.86905
21
-3.66178
0
LINE
8
BLACK
6
CONTINUOUS
10
5.86905
20
-3.66178
11
5.86496
21
-3.65988
0
LINE
8
BLACK
6
CONTINUOUS
10
5.86496
20
-3.65988
11
5.86177
21
-3.65669
0
LINE
8
BLACK
6
CONTINUOUS
10
5.86177
20
-3.65669
11
5.85987
21
-3.6526
0
LINE
8
BLACK
6
CONTINUOUS
10
5.85987
20
-3.6526
11
5.85942
21
-3.64923
0
LINE
8
BLACK
6
CONTINUOUS
10
5.85942
20
-3.64923
11
5.85942
21
-3.6138
0
LINE
8
BLACK
6
CONTINUOUS
10
5.85942
20
-3.6138
11
5.85987
21
-3.61044
0
LINE
8
BLACK
6
CONTINUOUS
10
5.85987
20
-3.61044
11
5.86177
21
-3.60635
0
LINE
8
BLACK
6
CONTINUOUS
10
5.86177
20
-3.60635
11
5.86496
21
-3.60316
0
LINE
8
BLACK
6
CONTINUOUS
10
5.86496
20
-3.60316
11
5.86905
21
-3.60125
0
LINE
8
BLACK
6
CONTINUOUS
10
5.86905
20
-3.60125
11
5.87242
21
-3.60081
0
LINE
8
BLACK
6
CONTINUOUS
10
5.87242
20
-3.60081
11
5.89308
21
-3.60081
0
LINE
8
BLACK
6
CONTINUOUS
10
5.89308
20
-3.60081
11
5.89645
21
-3.60125
0
LINE
8
BLACK
6
CONTINUOUS
10
5.9683
20
-3.60125
11
5.97239
21
-3.60316
0
LINE
8
BLACK
6
CONTINUOUS
10
5.97239
20
-3.60316
11
5.97558
21
-3.60635
0
LINE
8
BLACK
6
CONTINUOUS
10
5.97558
20
-3.60635
11
5.97748
21
-3.61044
0
LINE
8
BLACK
6
CONTINUOUS
10
5.97748
20
-3.61044
11
5.97793
21
-3.6138
0
LINE
8
BLACK
6
CONTINUOUS
10
5.97793
20
-3.6138
11
5.97793
21
-3.64923
0
LINE
8
BLACK
6
CONTINUOUS
10
5.97793
20
-3.64923
11
5.97748
21
-3.6526
0
LINE
8
BLACK
6
CONTINUOUS
10
5.97748
20
-3.6526
11
5.97558
21
-3.65669
0
LINE
8
BLACK
6
CONTINUOUS
10
5.97558
20
-3.65669
11
5.97239
21
-3.65988
0
LINE
8
BLACK
6
CONTINUOUS
10
5.97239
20
-3.65988
11
5.9683
21
-3.66178
0
LINE
8
BLACK
6
CONTINUOUS
10
5.9683
20
-3.66178
11
5.96493
21
-3.66223
0
LINE
8
BLACK
6
CONTINUOUS
10
5.96493
20
-3.66223
11
5.94427
21
-3.66223
0
LINE
8
BLACK
6
CONTINUOUS
10
5.94427
20
-3.66223
11
5.9409
21
-3.66178
0
LINE
8
BLACK
6
CONTINUOUS
10
5.9409
20
-3.66178
11
5.93681
21
-3.65988
0
LINE
8
BLACK
6
CONTINUOUS
10
5.93681
20
-3.65988
11
5.93362
21
-3.65669
0
LINE
8
BLACK
6
CONTINUOUS
10
5.93362
20
-3.65669
11
5.93172
21
-3.6526
0
LINE
8
BLACK
6
CONTINUOUS
10
5.93172
20
-3.6526
11
5.93127
21
-3.64923
0
LINE
8
BLACK
6
CONTINUOUS
10
5.93127
20
-3.64923
11
5.93127
21
-3.6138
0
LINE
8
BLACK
6
CONTINUOUS
10
5.93127
20
-3.6138
11
5.93172
21
-3.61044
0
LINE
8
BLACK
6
CONTINUOUS
10
5.93172
20
-3.61044
11
5.93362
21
-3.60635
0
LINE
8
BLACK
6
CONTINUOUS
10
5.93362
20
-3.60635
11
5.93681
21
-3.60316
0
LINE
8
BLACK
6
CONTINUOUS
10
5.93681
20
-3.60316
11
5.9409
21
-3.60125
0
LINE
8
BLACK
6
CONTINUOUS
10
5.9409
20
-3.60125
11
5.94427
21
-3.60081
0
LINE
8
BLACK
6
CONTINUOUS
10
5.94427
20
-3.60081
11
5.96493
21
-3.60081
0
LINE
8
BLACK
6
CONTINUOUS
10
5.96493
20
-3.60081
11
5.9683
21
-3.60125
0
LINE
8
BLACK
6
CONTINUOUS
10
6.08083
20
-3.60563
11
6.08185
21
-3.60631
0
LINE
8
BLACK
6
CONTINUOUS
10
6.08185
20
-3.60631
11
6.08253
21
-3.60734
0
LINE
8
BLACK
6
CONTINUOUS
10
6.08253
20
-3.60734
11
6.08277
21
-3.60854
0
LINE
8
BLACK
6
CONTINUOUS
10
6.08277
20
-3.60854
11
6.08277
21
-3.65578
0
LINE
8
BLACK
6
CONTINUOUS
10
6.08277
20
-3.65578
11
6.08253
21
-3.65699
0
LINE
8
BLACK
6
CONTINUOUS
10
6.08253
20
-3.65699
11
6.08185
21
-3.65801
0
LINE
8
BLACK
6
CONTINUOUS
10
6.08185
20
-3.65801
11
6.08083
21
-3.65869
0
LINE
8
BLACK
6
CONTINUOUS
10
6.08083
20
-3.65869
11
6.07962
21
-3.65893
0
LINE
8
BLACK
6
CONTINUOUS
10
6.07962
20
-3.65893
11
6.01663
21
-3.65893
0
LINE
8
BLACK
6
CONTINUOUS
10
6.01663
20
-3.65893
11
6.01542
21
-3.65869
0
LINE
8
BLACK
6
CONTINUOUS
10
6.01542
20
-3.65869
11
6.0144
21
-3.65801
0
LINE
8
BLACK
6
CONTINUOUS
10
6.0144
20
-3.65801
11
6.01372
21
-3.65699
0
LINE
8
BLACK
6
CONTINUOUS
10
6.01372
20
-3.65699
11
6.01348
21
-3.65578
0
LINE
8
BLACK
6
CONTINUOUS
10
6.01348
20
-3.65578
11
6.01348
21
-3.60854
0
LINE
8
BLACK
6
CONTINUOUS
10
6.01348
20
-3.60854
11
6.01372
21
-3.60734
0
LINE
8
BLACK
6
CONTINUOUS
10
6.01372
20
-3.60734
11
6.0144
21
-3.60631
0
LINE
8
BLACK
6
CONTINUOUS
10
6.0144
20
-3.60631
11
6.01542
21
-3.60563
0
LINE
8
BLACK
6
CONTINUOUS
10
6.01542
20
-3.60563
11
6.01663
21
-3.60539
0
LINE
8
BLACK
6
CONTINUOUS
10
6.01663
20
-3.60539
11
6.07962
21
-3.60539
0
LINE
8
BLACK
6
CONTINUOUS
10
6.07962
20
-3.60539
11
6.08083
21
-3.60563
0
LINE
8
BLACK
6
CONTINUOUS
10
6.08083
20
-3.50721
11
6.08185
21
-3.50789
0
LINE
8
BLACK
6
CONTINUOUS
10
6.08185
20
-3.50789
11
6.08253
21
-3.50891
0
LINE
8
BLACK
6
CONTINUOUS
10
6.08253
20
-3.50891
11
6.08277
21
-3.51012
0
LINE
8
BLACK
6
CONTINUOUS
10
6.08277
20
-3.51012
11
6.08277
21
-3.55736
0
LINE
8
BLACK
6
CONTINUOUS
10
6.08277
20
-3.55736
11
6.08253
21
-3.55856
0
LINE
8
BLACK
6
CONTINUOUS
10
6.08253
20
-3.55856
11
6.08185
21
-3.55959
0
LINE
8
BLACK
6
CONTINUOUS
10
6.08185
20
-3.55959
11
6.08083
21
-3.56027
0
LINE
8
BLACK
6
CONTINUOUS
10
6.08083
20
-3.56027
11
6.07962
21
-3.56051
0
LINE
8
BLACK
6
CONTINUOUS
10
6.07962
20
-3.56051
11
6.01663
21
-3.56051
0
LINE
8
BLACK
6
CONTINUOUS
10
6.01663
20
-3.56051
11
6.01542
21
-3.56027
0
LINE
8
BLACK
6
CONTINUOUS
10
6.01542
20
-3.56027
11
6.0144
21
-3.55959
0
LINE
8
BLACK
6
CONTINUOUS
10
6.0144
20
-3.55959
11
6.01372
21
-3.55856
0
LINE
8
BLACK
6
CONTINUOUS
10
6.01372
20
-3.55856
11
6.01348
21
-3.55736
0
LINE
8
BLACK
6
CONTINUOUS
10
6.01348
20
-3.55736
11
6.01348
21
-3.51012
0
LINE
8
BLACK
6
CONTINUOUS
10
6.01348
20
-3.51012
11
6.01372
21
-3.50891
0
LINE
8
BLACK
6
CONTINUOUS
10
6.01372
20
-3.50891
11
6.0144
21
-3.50789
0
LINE
8
BLACK
6
CONTINUOUS
10
6.0144
20
-3.50789
11
6.01542
21
-3.50721
0
LINE
8
BLACK
6
CONTINUOUS
10
6.01542
20
-3.50721
11
6.01663
21
-3.50697
0
LINE
8
BLACK
6
CONTINUOUS
10
6.01663
20
-3.50697
11
6.07962
21
-3.50697
0
LINE
8
BLACK
6
CONTINUOUS
10
6.07962
20
-3.50697
11
6.08083
21
-3.50721
0
LINE
8
BLACK
6
CONTINUOUS
10
6.28555
20
-3.19284
11
6.28657
21
-3.19352
0
LINE
8
BLACK
6
CONTINUOUS
10
6.28657
20
-3.19352
11
6.28725
21
-3.19454
0
LINE
8
BLACK
6
CONTINUOUS
10
6.28725
20
-3.19454
11
6.28749
21
-3.19575
0
LINE
8
BLACK
6
CONTINUOUS
10
6.28749
20
-3.19575
11
6.28749
21
-3.29417
0
LINE
8
BLACK
6
CONTINUOUS
10
6.28749
20
-3.29417
11
6.28725
21
-3.29538
0
LINE
8
BLACK
6
CONTINUOUS
10
6.28725
20
-3.29538
11
6.28657
21
-3.2964
0
LINE
8
BLACK
6
CONTINUOUS
10
6.28657
20
-3.2964
11
6.28555
21
-3.29708
0
LINE
8
BLACK
6
CONTINUOUS
10
6.28555
20
-3.29708
11
6.28434
21
-3.29732
0
LINE
8
BLACK
6
CONTINUOUS
10
6.28434
20
-3.29732
11
6.08749
21
-3.29732
0
LINE
8
BLACK
6
CONTINUOUS
10
6.08749
20
-3.29732
11
6.08629
21
-3.29708
0
LINE
8
BLACK
6
CONTINUOUS
10
6.08629
20
-3.29708
11
6.08527
21
-3.2964
0
LINE
8
BLACK
6
CONTINUOUS
10
6.08527
20
-3.2964
11
6.08458
21
-3.29538
0
LINE
8
BLACK
6
CONTINUOUS
10
6.08458
20
-3.29538
11
6.08434
21
-3.29417
0
LINE
8
BLACK
6
CONTINUOUS
10
6.08434
20
-3.29417
11
6.08434
21
-3.19575
0
LINE
8
BLACK
6
CONTINUOUS
10
6.08434
20
-3.19575
11
6.08458
21
-3.19454
0
LINE
8
BLACK
6
CONTINUOUS
10
6.08458
20
-3.19454
11
6.08527
21
-3.19352
0
LINE
8
BLACK
6
CONTINUOUS
10
6.08527
20
-3.19352
11
6.08629
21
-3.19284
0
LINE
8
BLACK
6
CONTINUOUS
10
6.08629
20
-3.19284
11
6.08749
21
-3.1926
0
LINE
8
BLACK
6
CONTINUOUS
10
6.08749
20
-3.1926
11
6.28434
21
-3.1926
0
LINE
8
BLACK
6
CONTINUOUS
10
6.28434
20
-3.1926
11
6.28555
21
-3.19284
0
LINE
8
BLACK
6
CONTINUOUS
10
7.23831
20
-3.19284
11
7.23933
21
-3.19352
0
LINE
8
BLACK
6
CONTINUOUS
10
7.23933
20
-3.19352
11
7.24001
21
-3.19454
0
LINE
8
BLACK
6
CONTINUOUS
10
7.24001
20
-3.19454
11
7.24025
21
-3.19575
0
LINE
8
BLACK
6
CONTINUOUS
10
7.24025
20
-3.19575
11
7.24025
21
-3.29417
0
LINE
8
BLACK
6
CONTINUOUS
10
7.24025
20
-3.29417
11
7.24001
21
-3.29538
0
LINE
8
BLACK
6
CONTINUOUS
10
7.24001
20
-3.29538
11
7.23933
21
-3.2964
0
LINE
8
BLACK
6
CONTINUOUS
10
7.23933
20
-3.2964
11
7.23831
21
-3.29708
0
LINE
8
BLACK
6
CONTINUOUS
10
7.23831
20
-3.29708
11
7.2371
21
-3.29732
0
LINE
8
BLACK
6
CONTINUOUS
10
7.2371
20
-3.29732
11
7.04025
21
-3.29732
0
LINE
8
BLACK
6
CONTINUOUS
10
7.04025
20
-3.29732
11
7.03904
21
-3.29708
0
LINE
8
BLACK
6
CONTINUOUS
10
7.03904
20
-3.29708
11
7.03802
21
-3.2964
0
LINE
8
BLACK
6
CONTINUOUS
10
7.03802
20
-3.2964
11
7.03734
21
-3.29538
0
LINE
8
BLACK
6
CONTINUOUS
10
7.03734
20
-3.29538
11
7.0371
21
-3.29417
0
LINE
8
BLACK
6
CONTINUOUS
10
7.0371
20
-3.29417
11
7.0371
21
-3.19575
0
LINE
8
BLACK
6
CONTINUOUS
10
7.0371
20
-3.19575
11
7.03734
21
-3.19454
0
LINE
8
BLACK
6
CONTINUOUS
10
7.03734
20
-3.19454
11
7.03802
21
-3.19352
0
LINE
8
BLACK
6
CONTINUOUS
10
7.03802
20
-3.19352
11
7.03904
21
-3.19284
0
LINE
8
BLACK
6
CONTINUOUS
10
7.03904
20
-3.19284
11
7.04025
21
-3.1926
0
LINE
8
BLACK
6
CONTINUOUS
10
7.04025
20
-3.1926
11
7.2371
21
-3.1926
0
LINE
8
BLACK
6
CONTINUOUS
10
7.2371
20
-3.1926
11
7.23831
21
-3.19284
0
LINE
8
BLACK
6
CONTINUOUS
10
6.90225
20
-2.97702
11
6.91566
21
-2.9793
0
LINE
8
BLACK
6
CONTINUOUS
10
6.91566
20
-2.9793
11
6.92872
21
-2.98306
0
LINE
8
BLACK
6
CONTINUOUS
10
6.92872
20
-2.98306
11
6.94129
21
-2.98827
0
LINE
8
BLACK
6
CONTINUOUS
10
6.94129
20
-2.98827
11
6.95319
21
-2.99484
0
LINE
8
BLACK
6
CONTINUOUS
10
6.95319
20
-2.99484
11
6.96428
21
-3.00271
0
LINE
8
BLACK
6
CONTINUOUS
10
6.96428
20
-3.00271
11
6.97442
21
-3.01177
0
LINE
8
BLACK
6
CONTINUOUS
10
6.97442
20
-3.01177
11
6.98348
21
-3.02191
0
LINE
8
BLACK
6
CONTINUOUS
10
6.98348
20
-3.02191
11
6.99135
21
-3.033
0
LINE
8
BLACK
6
CONTINUOUS
10
6.99135
20
-3.033
11
6.99793
21
-3.0449
0
LINE
8
BLACK
6
CONTINUOUS
10
6.99793
20
-3.0449
11
7.00313
21
-3.05747
0
LINE
8
BLACK
6
CONTINUOUS
10
7.00313
20
-3.05747
11
7.00689
21
-3.07053
0
LINE
8
BLACK
6
CONTINUOUS
10
7.00689
20
-3.07053
11
7.00917
21
-3.08394
0
LINE
8
BLACK
6
CONTINUOUS
10
7.00917
20
-3.08394
11
7.00993
21
-3.09752
0
LINE
8
BLACK
6
CONTINUOUS
10
7.00993
20
-3.09752
11
7.00917
21
-3.11109
0
LINE
8
BLACK
6
CONTINUOUS
10
7.00917
20
-3.11109
11
7.00689
21
-3.1245
0
LINE
8
BLACK
6
CONTINUOUS
10
7.00689
20
-3.1245
11
7.00313
21
-3.13757
0
LINE
8
BLACK
6
CONTINUOUS
10
7.00313
20
-3.13757
11
6.99793
21
-3.15013
0
LINE
8
BLACK
6
CONTINUOUS
10
6.99793
20
-3.15013
11
6.99135
21
-3.16203
0
LINE
8
BLACK
6
CONTINUOUS
10
6.99135
20
-3.16203
11
6.98348
21
-3.17312
0
LINE
8
BLACK
6
CONTINUOUS
10
6.98348
20
-3.17312
11
6.97442
21
-3.18326
0
LINE
8
BLACK
6
CONTINUOUS
10
6.97442
20
-3.18326
11
6.96428
21
-3.19232
0
LINE
8
BLACK
6
CONTINUOUS
10
6.96428
20
-3.19232
11
6.95319
21
-3.20019
0
LINE
8
BLACK
6
CONTINUOUS
10
6.95319
20
-3.20019
11
6.94129
21
-3.20677
0
LINE
8
BLACK
6
CONTINUOUS
10
6.94129
20
-3.20677
11
6.92872
21
-3.21197
0
LINE
8
BLACK
6
CONTINUOUS
10
6.92872
20
-3.21197
11
6.91566
21
-3.21574
0
LINE
8
BLACK
6
CONTINUOUS
10
6.91566
20
-3.21574
11
6.90225
21
-3.21801
0
LINE
8
BLACK
6
CONTINUOUS
10
6.90225
20
-3.21801
11
6.88867
21
-3.21878
0
LINE
8
BLACK
6
CONTINUOUS
10
6.88867
20
-3.21878
11
6.8751
21
-3.21801
0
LINE
8
BLACK
6
CONTINUOUS
10
6.8751
20
-3.21801
11
6.86169
21
-3.21574
0
LINE
8
BLACK
6
CONTINUOUS
10
6.86169
20
-3.21574
11
6.84863
21
-3.21197
0
LINE
8
BLACK
6
CONTINUOUS
10
6.84863
20
-3.21197
11
6.83606
21
-3.20677
0
LINE
8
BLACK
6
CONTINUOUS
10
6.83606
20
-3.20677
11
6.82416
21
-3.20019
0
LINE
8
BLACK
6
CONTINUOUS
10
6.82416
20
-3.20019
11
6.81307
21
-3.19232
0
LINE
8
BLACK
6
CONTINUOUS
10
6.81307
20
-3.19232
11
6.80293
21
-3.18326
0
LINE
8
BLACK
6
CONTINUOUS
10
6.80293
20
-3.18326
11
6.79387
21
-3.17312
0
LINE
8
BLACK
6
CONTINUOUS
10
6.79387
20
-3.17312
11
6.786
21
-3.16203
0
LINE
8
BLACK
6
CONTINUOUS
10
6.786
20
-3.16203
11
6.77942
21
-3.15013
0
LINE
8
BLACK
6
CONTINUOUS
10
6.77942
20
-3.15013
11
6.77422
21
-3.13757
0
LINE
8
BLACK
6
CONTINUOUS
10
6.77422
20
-3.13757
11
6.77046
21
-3.1245
0
LINE
8
BLACK
6
CONTINUOUS
10
6.77046
20
-3.1245
11
6.76818
21
-3.11109
0
LINE
8
BLACK
6
CONTINUOUS
10
6.76818
20
-3.11109
11
6.76741
21
-3.09752
0
LINE
8
BLACK
6
CONTINUOUS
10
6.76741
20
-3.09752
11
6.76818
21
-3.08394
0
LINE
8
BLACK
6
CONTINUOUS
10
6.76818
20
-3.08394
11
6.77046
21
-3.07053
0
LINE
8
BLACK
6
CONTINUOUS
10
6.77046
20
-3.07053
11
6.77422
21
-3.05747
0
LINE
8
BLACK
6
CONTINUOUS
10
6.77422
20
-3.05747
11
6.77942
21
-3.0449
0
LINE
8
BLACK
6
CONTINUOUS
10
6.77942
20
-3.0449
11
6.786
21
-3.033
0
LINE
8
BLACK
6
CONTINUOUS
10
6.786
20
-3.033
11
6.79387
21
-3.02191
0
LINE
8
BLACK
6
CONTINUOUS
10
6.79387
20
-3.02191
11
6.80293
21
-3.01177
0
LINE
8
BLACK
6
CONTINUOUS
10
6.80293
20
-3.01177
11
6.81307
21
-3.00271
0
LINE
8
BLACK
6
CONTINUOUS
10
6.81307
20
-3.00271
11
6.82416
21
-2.99484
0
LINE
8
BLACK
6
CONTINUOUS
10
6.82416
20
-2.99484
11
6.83606
21
-2.98827
0
LINE
8
BLACK
6
CONTINUOUS
10
6.83606
20
-2.98827
11
6.84863
21
-2.98306
0
LINE
8
BLACK
6
CONTINUOUS
10
6.84863
20
-2.98306
11
6.86169
21
-2.9793
0
LINE
8
BLACK
6
CONTINUOUS
10
6.86169
20
-2.9793
11
6.8751
21
-2.97702
0
LINE
8
BLACK
6
CONTINUOUS
10
6.8751
20
-2.97702
11
6.88867
21
-2.97626
0
LINE
8
BLACK
6
CONTINUOUS
10
6.88867
20
-2.97626
11
6.90225
21
-2.97702
0
LINE
8
BLACK
6
CONTINUOUS
10
5.46988
20
-3.00461
11
5.4709
21
-3.00529
0
LINE
8
BLACK
6
CONTINUOUS
10
5.4709
20
-3.00529
11
5.47158
21
-3.00631
0
LINE
8
BLACK
6
CONTINUOUS
10
5.47158
20
-3.00631
11
5.47182
21
-3.00752
0
LINE
8
BLACK
6
CONTINUOUS
10
5.47182
20
-3.00752
11
5.47182
21
-3.20752
0
LINE
8
BLACK
6
CONTINUOUS
10
5.47182
20
-3.20752
11
5.47158
21
-3.20872
0
LINE
8
BLACK
6
CONTINUOUS
10
5.47158
20
-3.20872
11
5.4709
21
-3.20974
0
LINE
8
BLACK
6
CONTINUOUS
10
5.4709
20
-3.20974
11
5.46988
21
-3.21043
0
LINE
8
BLACK
6
CONTINUOUS
10
5.46988
20
-3.21043
11
5.46867
21
-3.21067
0
LINE
8
BLACK
6
CONTINUOUS
10
5.46867
20
-3.21067
11
5.3986
21
-3.21067
0
LINE
8
BLACK
6
CONTINUOUS
10
5.3986
20
-3.21067
11
5.39739
21
-3.21043
0
LINE
8
BLACK
6
CONTINUOUS
10
5.39739
20
-3.21043
11
5.39637
21
-3.20974
0
LINE
8
BLACK
6
CONTINUOUS
10
5.39637
20
-3.20974
11
5.39569
21
-3.20872
0
LINE
8
BLACK
6
CONTINUOUS
10
5.39569
20
-3.20872
11
5.39545
21
-3.20752
0
LINE
8
BLACK
6
CONTINUOUS
10
5.39545
20
-3.20752
11
5.39545
21
-3.00752
0
LINE
8
BLACK
6
CONTINUOUS
10
5.39545
20
-3.00752
11
5.39569
21
-3.00631
0
LINE
8
BLACK
6
CONTINUOUS
10
5.39569
20
-3.00631
11
5.39637
21
-3.00529
0
LINE
8
BLACK
6
CONTINUOUS
10
5.39637
20
-3.00529
11
5.39739
21
-3.00461
0
LINE
8
BLACK
6
CONTINUOUS
10
5.39739
20
-3.00461
11
5.3986
21
-3.00437
0
LINE
8
BLACK
6
CONTINUOUS
10
5.3986
20
-3.00437
11
5.46867
21
-3.00437
0
LINE
8
BLACK
6
CONTINUOUS
10
5.46867
20
-3.00437
11
5.46988
21
-3.00461
0
LINE
8
BLACK
6
CONTINUOUS
10
5.83996
20
-3.00461
11
5.84098
21
-3.00529
0
LINE
8
BLACK
6
CONTINUOUS
10
5.84098
20
-3.00529
11
5.84166
21
-3.00631
0
LINE
8
BLACK
6
CONTINUOUS
10
5.84166
20
-3.00631
11
5.8419
21
-3.00752
0
LINE
8
BLACK
6
CONTINUOUS
10
5.8419
20
-3.00752
11
5.8419
21
-3.20752
0
LINE
8
BLACK
6
CONTINUOUS
10
5.8419
20
-3.20752
11
5.84166
21
-3.20872
0
LINE
8
BLACK
6
CONTINUOUS
10
5.84166
20
-3.20872
11
5.84098
21
-3.20974
0
LINE
8
BLACK
6
CONTINUOUS
10
5.84098
20
-3.20974
11
5.83996
21
-3.21043
0
LINE
8
BLACK
6
CONTINUOUS
10
5.83996
20
-3.21043
11
5.83875
21
-3.21067
0
LINE
8
BLACK
6
CONTINUOUS
10
5.83875
20
-3.21067
11
5.76867
21
-3.21067
0
LINE
8
BLACK
6
CONTINUOUS
10
5.76867
20
-3.21067
11
5.76747
21
-3.21043
0
LINE
8
BLACK
6
CONTINUOUS
10
5.76747
20
-3.21043
11
5.76645
21
-3.20974
0
LINE
8
BLACK
6
CONTINUOUS
10
5.76645
20
-3.20974
11
5.76577
21
-3.20872
0
LINE
8
BLACK
6
CONTINUOUS
10
5.76577
20
-3.20872
11
5.76553
21
-3.20752
0
LINE
8
BLACK
6
CONTINUOUS
10
5.76553
20
-3.20752
11
5.76553
21
-3.00752
0
LINE
8
BLACK
6
CONTINUOUS
10
5.76553
20
-3.00752
11
5.76577
21
-3.00631
0
LINE
8
BLACK
6
CONTINUOUS
10
5.76577
20
-3.00631
11
5.76645
21
-3.00529
0
LINE
8
BLACK
6
CONTINUOUS
10
5.76645
20
-3.00529
11
5.76747
21
-3.00461
0
LINE
8
BLACK
6
CONTINUOUS
10
5.76747
20
-3.00461
11
5.76867
21
-3.00437
0
LINE
8
BLACK
6
CONTINUOUS
10
5.76867
20
-3.00437
11
5.83875
21
-3.00437
0
LINE
8
BLACK
6
CONTINUOUS
10
5.83875
20
-3.00437
11
5.83996
21
-3.00461
0
LINE
8
BLACK
6
CONTINUOUS
10
5.69783
20
-3.02665
11
5.69885
21
-3.02734
0
LINE
8
BLACK
6
CONTINUOUS
10
5.69885
20
-3.02734
11
5.69954
21
-3.02836
0
LINE
8
BLACK
6
CONTINUOUS
10
5.69954
20
-3.02836
11
5.69978
21
-3.02956
0
LINE
8
BLACK
6
CONTINUOUS
10
5.69978
20
-3.02956
11
5.69978
21
-3.18547
0
LINE
8
BLACK
6
CONTINUOUS
10
5.69978
20
-3.18547
11
5.69954
21
-3.18667
0
LINE
8
BLACK
6
CONTINUOUS
10
5.69954
20
-3.18667
11
5.69885
21
-3.1877
0
LINE
8
BLACK
6
CONTINUOUS
10
5.69885
20
-3.1877
11
5.69783
21
-3.18838
0
LINE
8
BLACK
6
CONTINUOUS
10
5.69783
20
-3.18838
11
5.69663
21
-3.18862
0
LINE
8
BLACK
6
CONTINUOUS
10
5.69663
20
-3.18862
11
5.54072
21
-3.18862
0
LINE
8
BLACK
6
CONTINUOUS
10
5.54072
20
-3.18862
11
5.53952
21
-3.18838
0
LINE
8
BLACK
6
CONTINUOUS
10
5.53952
20
-3.18838
11
5.53849
21
-3.1877
0
LINE
8
BLACK
6
CONTINUOUS
10
5.53849
20
-3.1877
11
5.53781
21
-3.18667
0
LINE
8
BLACK
6
CONTINUOUS
10
5.53781
20
-3.18667
11
5.53757
21
-3.18547
0
LINE
8
BLACK
6
CONTINUOUS
10
5.53757
20
-3.18547
11
5.53757
21
-3.02956
0
LINE
8
BLACK
6
CONTINUOUS
10
5.53757
20
-3.02956
11
5.53781
21
-3.02836
0
LINE
8
BLACK
6
CONTINUOUS
10
5.53781
20
-3.02836
11
5.53849
21
-3.02734
0
LINE
8
BLACK
6
CONTINUOUS
10
5.53849
20
-3.02734
11
5.53952
21
-3.02665
0
LINE
8
BLACK
6
CONTINUOUS
10
5.53952
20
-3.02665
11
5.54072
21
-3.02641
0
LINE
8
BLACK
6
CONTINUOUS
10
5.54072
20
-3.02641
11
5.69663
21
-3.02641
0
LINE
8
BLACK
6
CONTINUOUS
10
5.69663
20
-3.02641
11
5.69783
21
-3.02665
0
LINE
8
BLACK
6
CONTINUOUS
10
6.64318
20
-3.12532
11
6.64727
21
-3.12723
0
LINE
8
BLACK
6
CONTINUOUS
10
6.64727
20
-3.12723
11
6.65046
21
-3.13042
0
LINE
8
BLACK
6
CONTINUOUS
10
6.65046
20
-3.13042
11
6.65237
21
-3.13451
0
LINE
8
BLACK
6
CONTINUOUS
10
6.65237
20
-3.13451
11
6.65281
21
-3.13787
0
LINE
8
BLACK
6
CONTINUOUS
10
6.65281
20
-3.13787
11
6.65281
21
-3.1674
0
LINE
8
BLACK
6
CONTINUOUS
10
6.65281
20
-3.1674
11
6.65237
21
-3.17076
0
LINE
8
BLACK
6
CONTINUOUS
10
6.65237
20
-3.17076
11
6.65046
21
-3.17485
0
LINE
8
BLACK
6
CONTINUOUS
10
6.65046
20
-3.17485
11
6.64727
21
-3.17804
0
LINE
8
BLACK
6
CONTINUOUS
10
6.64727
20
-3.17804
11
6.64318
21
-3.17995
0
LINE
8
BLACK
6
CONTINUOUS
10
6.64318
20
-3.17995
11
6.63982
21
-3.18039
0
LINE
8
BLACK
6
CONTINUOUS
10
6.63982
20
-3.18039
11
6.5906
21
-3.18039
0
LINE
8
BLACK
6
CONTINUOUS
10
6.5906
20
-3.18039
11
6.58724
21
-3.17995
0
LINE
8
BLACK
6
CONTINUOUS
10
6.58724
20
-3.17995
11
6.58315
21
-3.17804
0
LINE
8
BLACK
6
CONTINUOUS
10
6.58315
20
-3.17804
11
6.57996
21
-3.17485
0
LINE
8
BLACK
6
CONTINUOUS
10
6.57996
20
-3.17485
11
6.57805
21
-3.17076
0
LINE
8
BLACK
6
CONTINUOUS
10
6.57805
20
-3.17076
11
6.57761
21
-3.1674
0
LINE
8
BLACK
6
CONTINUOUS
10
6.57761
20
-3.1674
11
6.57761
21
-3.13787
0
LINE
8
BLACK
6
CONTINUOUS
10
6.57761
20
-3.13787
11
6.57805
21
-3.13451
0
LINE
8
BLACK
6
CONTINUOUS
10
6.57805
20
-3.13451
11
6.57996
21
-3.13042
0
LINE
8
BLACK
6
CONTINUOUS
10
6.57996
20
-3.13042
11
6.58315
21
-3.12723
0
LINE
8
BLACK
6
CONTINUOUS
10
6.58315
20
-3.12723
11
6.58724
21
-3.12532
0
LINE
8
BLACK
6
CONTINUOUS
10
6.58724
20
-3.12532
11
6.5906
21
-3.12488
0
LINE
8
BLACK
6
CONTINUOUS
10
6.5906
20
-3.12488
11
6.63982
21
-3.12488
0
LINE
8
BLACK
6
CONTINUOUS
10
6.63982
20
-3.12488
11
6.64318
21
-3.12532
0
LINE
8
BLACK
6
CONTINUOUS
10
7.16636
20
-3.0429
11
7.17374
21
-3.04514
0
LINE
8
BLACK
6
CONTINUOUS
10
7.17374
20
-3.04514
11
7.18055
21
-3.04878
0
LINE
8
BLACK
6
CONTINUOUS
10
7.18055
20
-3.04878
11
7.18651
21
-3.05368
0
LINE
8
BLACK
6
CONTINUOUS
10
7.18651
20
-3.05368
11
7.19141
21
-3.05964
0
LINE
8
BLACK
6
CONTINUOUS
10
7.19141
20
-3.05964
11
7.19505
21
-3.06645
0
LINE
8
BLACK
6
CONTINUOUS
10
7.19505
20
-3.06645
11
7.19729
21
-3.07384
0
LINE
8
BLACK
6
CONTINUOUS
10
7.19729
20
-3.07384
11
7.19804
21
-3.08152
0
LINE
8
BLACK
6
CONTINUOUS
10
7.19804
20
-3.08152
11
7.19729
21
-3.0892
0
LINE
8
BLACK
6
CONTINUOUS
10
7.19729
20
-3.0892
11
7.19505
21
-3.09658
0
LINE
8
BLACK
6
CONTINUOUS
10
7.19505
20
-3.09658
11
7.19141
21
-3.10339
0
LINE
8
BLACK
6
CONTINUOUS
10
7.19141
20
-3.10339
11
7.18651
21
-3.10936
0
LINE
8
BLACK
6
CONTINUOUS
10
7.18651
20
-3.10936
11
7.18055
21
-3.11425
0
LINE
8
BLACK
6
CONTINUOUS
10
7.18055
20
-3.11425
11
7.17374
21
-3.11789
0
LINE
8
BLACK
6
CONTINUOUS
10
7.17374
20
-3.11789
11
7.16636
21
-3.12013
0
LINE
8
BLACK
6
CONTINUOUS
10
7.16636
20
-3.12013
11
7.15867
21
-3.12089
0
LINE
8
BLACK
6
CONTINUOUS
10
7.15867
20
-3.12089
11
7.15099
21
-3.12013
0
LINE
8
BLACK
6
CONTINUOUS
10
7.15099
20
-3.12013
11
7.14361
21
-3.11789
0
LINE
8
BLACK
6
CONTINUOUS
10
7.14361
20
-3.11789
11
7.1368
21
-3.11425
0
LINE
8
BLACK
6
CONTINUOUS
10
7.1368
20
-3.11425
11
7.13084
21
-3.10936
0
LINE
8
BLACK
6
CONTINUOUS
10
7.13084
20
-3.10936
11
7.12594
21
-3.10339
0
LINE
8
BLACK
6
CONTINUOUS
10
7.12594
20
-3.10339
11
7.1223
21
-3.09658
0
LINE
8
BLACK
6
CONTINUOUS
10
7.1223
20
-3.09658
11
7.12006
21
-3.0892
0
LINE
8
BLACK
6
CONTINUOUS
10
7.12006
20
-3.0892
11
7.1193
21
-3.08152
0
LINE
8
BLACK
6
CONTINUOUS
10
7.1193
20
-3.08152
11
7.12006
21
-3.07384
0
LINE
8
BLACK
6
CONTINUOUS
10
7.12006
20
-3.07384
11
7.1223
21
-3.06645
0
LINE
8
BLACK
6
CONTINUOUS
10
7.1223
20
-3.06645
11
7.12594
21
-3.05964
0
LINE
8
BLACK
6
CONTINUOUS
10
7.12594
20
-3.05964
11
7.13084
21
-3.05368
0
LINE
8
BLACK
6
CONTINUOUS
10
7.13084
20
-3.05368
11
7.1368
21
-3.04878
0
LINE
8
BLACK
6
CONTINUOUS
10
7.1368
20
-3.04878
11
7.14361
21
-3.04514
0
LINE
8
BLACK
6
CONTINUOUS
10
7.14361
20
-3.04514
11
7.15099
21
-3.0429
0
LINE
8
BLACK
6
CONTINUOUS
10
7.15099
20
-3.0429
11
7.15867
21
-3.04215
0
LINE
8
BLACK
6
CONTINUOUS
10
7.15867
20
-3.04215
11
7.16636
21
-3.0429
0
LINE
8
BLACK
6
CONTINUOUS
10
6.13532
20
-3.03844
11
6.14156
21
-3.04122
0
LINE
8
BLACK
6
CONTINUOUS
10
6.14156
20
-3.04122
11
6.14708
21
-3.04523
0
LINE
8
BLACK
6
CONTINUOUS
10
6.14708
20
-3.04523
11
6.15165
21
-3.05031
0
LINE
8
BLACK
6
CONTINUOUS
10
6.15165
20
-3.05031
11
6.15507
21
-3.05623
0
LINE
8
BLACK
6
CONTINUOUS
10
6.15507
20
-3.05623
11
6.15718
21
-3.06272
0
LINE
8
BLACK
6
CONTINUOUS
10
6.15718
20
-3.06272
11
6.1579
21
-3.06952
0
LINE
8
BLACK
6
CONTINUOUS
10
6.1579
20
-3.06952
11
6.15718
21
-3.07631
0
LINE
8
BLACK
6
CONTINUOUS
10
6.15718
20
-3.07631
11
6.15507
21
-3.08281
0
LINE
8
BLACK
6
CONTINUOUS
10
6.15507
20
-3.08281
11
6.15165
21
-3.08872
0
LINE
8
BLACK
6
CONTINUOUS
10
6.15165
20
-3.08872
11
6.14708
21
-3.0938
0
LINE
8
BLACK
6
CONTINUOUS
10
6.14708
20
-3.0938
11
6.14156
21
-3.09782
0
LINE
8
BLACK
6
CONTINUOUS
10
6.14156
20
-3.09782
11
6.13532
21
-3.10059
0
LINE
8
BLACK
6
CONTINUOUS
10
6.13532
20
-3.10059
11
6.12863
21
-3.10201
0
LINE
8
BLACK
6
CONTINUOUS
10
6.12863
20
-3.10201
11
6.1218
21
-3.10201
0
LINE
8
BLACK
6
CONTINUOUS
10
6.1218
20
-3.10201
11
6.11512
21
-3.10059
0
LINE
8
BLACK
6
CONTINUOUS
10
6.11512
20
-3.10059
11
6.10888
21
-3.09782
0
LINE
8
BLACK
6
CONTINUOUS
10
6.10888
20
-3.09782
11
6.10335
21
-3.0938
0
LINE
8
BLACK
6
CONTINUOUS
10
6.10335
20
-3.0938
11
6.09878
21
-3.08872
0
LINE
8
BLACK
6
CONTINUOUS
10
6.09878
20
-3.08872
11
6.09537
21
-3.08281
0
LINE
8
BLACK
6
CONTINUOUS
10
6.09537
20
-3.08281
11
6.09326
21
-3.07631
0
LINE
8
BLACK
6
CONTINUOUS
10
6.09326
20
-3.07631
11
6.09254
21
-3.06952
0
LINE
8
BLACK
6
CONTINUOUS
10
6.09254
20
-3.06952
11
6.09326
21
-3.06272
0
LINE
8
BLACK
6
CONTINUOUS
10
6.09326
20
-3.06272
11
6.09537
21
-3.05623
0
LINE
8
BLACK
6
CONTINUOUS
10
6.09537
20
-3.05623
11
6.09878
21
-3.05031
0
LINE
8
BLACK
6
CONTINUOUS
10
6.09878
20
-3.05031
11
6.10335
21
-3.04523
0
LINE
8
BLACK
6
CONTINUOUS
10
6.10335
20
-3.04523
11
6.10888
21
-3.04122
0
LINE
8
BLACK
6
CONTINUOUS
10
6.10888
20
-3.04122
11
6.11512
21
-3.03844
0
LINE
8
BLACK
6
CONTINUOUS
10
6.11512
20
-3.03844
11
6.1218
21
-3.03702
0
LINE
8
BLACK
6
CONTINUOUS
10
6.1218
20
-3.03702
11
6.12863
21
-3.03702
0
LINE
8
BLACK
6
CONTINUOUS
10
6.12863
20
-3.03702
11
6.13532
21
-3.03844
0
LINE
8
BLACK
6
CONTINUOUS
10
6.32744
20
-3.03844
11
6.33368
21
-3.04122
0
LINE
8
BLACK
6
CONTINUOUS
10
6.33368
20
-3.04122
11
6.33921
21
-3.04523
0
LINE
8
BLACK
6
CONTINUOUS
10
6.33921
20
-3.04523
11
6.34378
21
-3.05031
0
LINE
8
BLACK
6
CONTINUOUS
10
6.34378
20
-3.05031
11
6.3472
21
-3.05623
0
LINE
8
BLACK
6
CONTINUOUS
10
6.3472
20
-3.05623
11
6.34931
21
-3.06272
0
LINE
8
BLACK
6
CONTINUOUS
10
6.34931
20
-3.06272
11
6.35002
21
-3.06952
0
LINE
8
BLACK
6
CONTINUOUS
10
6.35002
20
-3.06952
11
6.34931
21
-3.07631
0
LINE
8
BLACK
6
CONTINUOUS
10
6.34931
20
-3.07631
11
6.3472
21
-3.08281
0
LINE
8
BLACK
6
CONTINUOUS
10
6.3472
20
-3.08281
11
6.34378
21
-3.08872
0
LINE
8
BLACK
6
CONTINUOUS
10
6.34378
20
-3.08872
11
6.33921
21
-3.0938
0
LINE
8
BLACK
6
CONTINUOUS
10
6.33921
20
-3.0938
11
6.33368
21
-3.09782
0
LINE
8
BLACK
6
CONTINUOUS
10
6.33368
20
-3.09782
11
6.32744
21
-3.10059
0
LINE
8
BLACK
6
CONTINUOUS
10
6.32744
20
-3.10059
11
6.32076
21
-3.10201
0
LINE
8
BLACK
6
CONTINUOUS
10
6.32076
20
-3.10201
11
6.31393
21
-3.10201
0
LINE
8
BLACK
6
CONTINUOUS
10
6.31393
20
-3.10201
11
6.30725
21
-3.10059
0
LINE
8
BLACK
6
CONTINUOUS
10
6.30725
20
-3.10059
11
6.30101
21
-3.09782
0
LINE
8
BLACK
6
CONTINUOUS
10
6.30101
20
-3.09782
11
6.29548
21
-3.0938
0
LINE
8
BLACK
6
CONTINUOUS
10
6.29548
20
-3.0938
11
6.29091
21
-3.08872
0
LINE
8
BLACK
6
CONTINUOUS
10
6.29091
20
-3.08872
11
6.28749
21
-3.08281
0
LINE
8
BLACK
6
CONTINUOUS
10
6.28749
20
-3.08281
11
6.28538
21
-3.07631
0
LINE
8
BLACK
6
CONTINUOUS
10
6.28538
20
-3.07631
11
6.28467
21
-3.06952
0
LINE
8
BLACK
6
CONTINUOUS
10
6.28467
20
-3.06952
11
6.28538
21
-3.06272
0
LINE
8
BLACK
6
CONTINUOUS
10
6.28538
20
-3.06272
11
6.28749
21
-3.05623
0
LINE
8
BLACK
6
CONTINUOUS
10
6.28749
20
-3.05623
11
6.29091
21
-3.05031
0
LINE
8
BLACK
6
CONTINUOUS
10
6.29091
20
-3.05031
11
6.29548
21
-3.04523
0
LINE
8
BLACK
6
CONTINUOUS
10
6.29548
20
-3.04523
11
6.30101
21
-3.04122
0
LINE
8
BLACK
6
CONTINUOUS
10
6.30101
20
-3.04122
11
6.30725
21
-3.03844
0
LINE
8
BLACK
6
CONTINUOUS
10
6.30725
20
-3.03844
11
6.31393
21
-3.03702
0
LINE
8
BLACK
6
CONTINUOUS
10
6.31393
20
-3.03702
11
6.32076
21
-3.03702
0
LINE
8
BLACK
6
CONTINUOUS
10
6.32076
20
-3.03702
11
6.32744
21
-3.03844
0
LINE
8
BLACK
6
CONTINUOUS
10
6.64318
20
-3.01509
11
6.64727
21
-3.01699
0
LINE
8
BLACK
6
CONTINUOUS
10
6.64727
20
-3.01699
11
6.65046
21
-3.02018
0
LINE
8
BLACK
6
CONTINUOUS
10
6.65046
20
-3.02018
11
6.65237
21
-3.02427
0
LINE
8
BLACK
6
CONTINUOUS
10
6.65237
20
-3.02427
11
6.65281
21
-3.02763
0
LINE
8
BLACK
6
CONTINUOUS
10
6.65281
20
-3.02763
11
6.65281
21
-3.05716
0
LINE
8
BLACK
6
CONTINUOUS
10
6.65281
20
-3.05716
11
6.65237
21
-3.06053
0
LINE
8
BLACK
6
CONTINUOUS
10
6.65237
20
-3.06053
11
6.65046
21
-3.06461
0
LINE
8
BLACK
6
CONTINUOUS
10
6.65046
20
-3.06461
11
6.64727
21
-3.0678
0
LINE
8
BLACK
6
CONTINUOUS
10
6.64727
20
-3.0678
11
6.64318
21
-3.06971
0
LINE
8
BLACK
6
CONTINUOUS
10
6.64318
20
-3.06971
11
6.63982
21
-3.07015
0
LINE
8
BLACK
6
CONTINUOUS
10
6.63982
20
-3.07015
11
6.5906
21
-3.07015
0
LINE
8
BLACK
6
CONTINUOUS
10
6.5906
20
-3.07015
11
6.58724
21
-3.06971
0
LINE
8
BLACK
6
CONTINUOUS
10
6.58724
20
-3.06971
11
6.58315
21
-3.0678
0
LINE
8
BLACK
6
CONTINUOUS
10
6.58315
20
-3.0678
11
6.57996
21
-3.06461
0
LINE
8
BLACK
6
CONTINUOUS
10
6.57996
20
-3.06461
11
6.57805
21
-3.06053
0
LINE
8
BLACK
6
CONTINUOUS
10
6.57805
20
-3.06053
11
6.57761
21
-3.05716
0
LINE
8
BLACK
6
CONTINUOUS
10
6.57761
20
-3.05716
11
6.57761
21
-3.02763
0
LINE
8
BLACK
6
CONTINUOUS
10
6.57761
20
-3.02763
11
6.57805
21
-3.02427
0
LINE
8
BLACK
6
CONTINUOUS
10
6.57805
20
-3.02427
11
6.57996
21
-3.02018
0
LINE
8
BLACK
6
CONTINUOUS
10
6.57996
20
-3.02018
11
6.58315
21
-3.01699
0
LINE
8
BLACK
6
CONTINUOUS
10
6.58315
20
-3.01699
11
6.58724
21
-3.01509
0
LINE
8
BLACK
6
CONTINUOUS
10
6.58724
20
-3.01509
11
6.5906
21
-3.01464
0
LINE
8
BLACK
6
CONTINUOUS
10
6.5906
20
-3.01464
11
6.63982
21
-3.01464
0
LINE
8
BLACK
6
CONTINUOUS
10
6.63982
20
-3.01464
11
6.64318
21
-3.01509
0
LINE
8
BLACK
6
CONTINUOUS
10
4.99836
20
-2.9869
11
5.00574
21
-2.98914
0
LINE
8
BLACK
6
CONTINUOUS
10
5.00574
20
-2.98914
11
5.01255
21
-2.99278
0
LINE
8
BLACK
6
CONTINUOUS
10
5.01255
20
-2.99278
11
5.01851
21
-2.99768
0
LINE
8
BLACK
6
CONTINUOUS
10
5.01851
20
-2.99768
11
5.02341
21
-3.00364
0
LINE
8
BLACK
6
CONTINUOUS
10
5.02341
20
-3.00364
11
5.02705
21
-3.01045
0
LINE
8
BLACK
6
CONTINUOUS
10
5.02705
20
-3.01045
11
5.02929
21
-3.01784
0
LINE
8
BLACK
6
CONTINUOUS
10
5.02929
20
-3.01784
11
5.03004
21
-3.02552
0
LINE
8
BLACK
6
CONTINUOUS
10
5.03004
20
-3.02552
11
5.02929
21
-3.0332
0
LINE
8
BLACK
6
CONTINUOUS
10
5.02929
20
-3.0332
11
5.02705
21
-3.04058
0
LINE
8
BLACK
6
CONTINUOUS
10
5.02705
20
-3.04058
11
5.02341
21
-3.04739
0
LINE
8
BLACK
6
CONTINUOUS
10
5.02341
20
-3.04739
11
5.01851
21
-3.05336
0
LINE
8
BLACK
6
CONTINUOUS
10
5.01851
20
-3.05336
11
5.01255
21
-3.05825
0
LINE
8
BLACK
6
CONTINUOUS
10
5.01255
20
-3.05825
11
5.00574
21
-3.06189
0
LINE
8
BLACK
6
CONTINUOUS
10
5.00574
20
-3.06189
11
4.99836
21
-3.06413
0
LINE
8
BLACK
6
CONTINUOUS
10
4.99836
20
-3.06413
11
4.99067
21
-3.06489
0
LINE
8
BLACK
6
CONTINUOUS
10
4.99067
20
-3.06489
11
4.98299
21
-3.06413
0
LINE
8
BLACK
6
CONTINUOUS
10
4.98299
20
-3.06413
11
4.97561
21
-3.06189
0
LINE
8
BLACK
6
CONTINUOUS
10
4.97561
20
-3.06189
11
4.9688
21
-3.05825
0
LINE
8
BLACK
6
CONTINUOUS
10
4.9688
20
-3.05825
11
4.96284
21
-3.05336
0
LINE
8
BLACK
6
CONTINUOUS
10
4.96284
20
-3.05336
11
4.95794
21
-3.04739
0
LINE
8
BLACK
6
CONTINUOUS
10
4.95794
20
-3.04739
11
4.9543
21
-3.04058
0
LINE
8
BLACK
6
CONTINUOUS
10
4.9543
20
-3.04058
11
4.95206
21
-3.0332
0
LINE
8
BLACK
6
CONTINUOUS
10
4.95206
20
-3.0332
11
4.9513
21
-3.02552
0
LINE
8
BLACK
6
CONTINUOUS
10
4.9513
20
-3.02552
11
4.95206
21
-3.01784
0
LINE
8
BLACK
6
CONTINUOUS
10
4.95206
20
-3.01784
11
4.9543
21
-3.01045
0
LINE
8
BLACK
6
CONTINUOUS
10
4.9543
20
-3.01045
11
4.95794
21
-3.00364
0
LINE
8
BLACK
6
CONTINUOUS
10
4.95794
20
-3.00364
11
4.96284
21
-2.99768
0
LINE
8
BLACK
6
CONTINUOUS
10
4.96284
20
-2.99768
11
4.9688
21
-2.99278
0
LINE
8
BLACK
6
CONTINUOUS
10
4.9688
20
-2.99278
11
4.97561
21
-2.98914
0
LINE
8
BLACK
6
CONTINUOUS
10
4.97561
20
-2.98914
11
4.98299
21
-2.9869
0
LINE
8
BLACK
6
CONTINUOUS
10
4.98299
20
-2.9869
11
4.99067
21
-2.98615
0
LINE
8
BLACK
6
CONTINUOUS
10
4.99067
20
-2.98615
11
4.99836
21
-2.9869
  0
ENDSEC
  0
EOF
