  0
SECTION
  2
HEADER
  9
$ANGBASE
  50
0.0
  9
$ANGDIR
  70
1
  9
$MEASUREMENT
  70
0
  0
ENDSEC
  0
SECTION
  2
TABLES
  0
TABLE
  2
LTYPE
  70
4
  0
LTYPE
  5
40F
  2
CONTINUOUS
  70
0
  3
Solid line
  72
65
  73
0
  40
0.0
  0
LTYPE
  5
410
  2
DASHDOT
 70
0
  3
Dash Dot ____ _ ____ _
 72
65
 73
4
 40
2.0
 49
1.25
 49
-0.25
 49
0.25
 49
-0.25
  0
LTYPE
  5
411
  2
DASHED
 70
0
  3
Dashed __ __ __ __ __
 72
65
 73
2
 40
0.75
 49
0.5
 49
-0.25
  0
LTYPE
  5
43B
  2
DOTTED
 70
0
  3
Dotted .  .  .  .
 72
65
 73
2
 40
0.2
 49
0.0
 49
-0.2
  0
ENDTAB
  0
TABLE
  2
STYLE
  70
4
  0
STYLE
  2
KICAD
  70
0
  40
0
  41
1
  42
1
  50
0
  71
0
  3
isocp.shx
  0
STYLE
  2
KICADB
  70
0
  40
0
  41
1
  42
1
  50
0
  71
0
  3
isocp.shx
  0
STYLE
  2
KICADI
  70
0
  40
0
  41
1
  42
1
  50
15
  71
0
  3
isocp.shx
  0
STYLE
  2
KICADBI
  70
0
  40
0
  41
1
  42
1
  50
15
  71
0
  3
isocp.shx
  0
ENDTAB
  0
TABLE
  2
LAYER
  70
1
  0
LAYER
  2
BLACK
  70
0
  62
7
  6
CONTINUOUS
  0
ENDTAB
  0
ENDSEC
  0
SECTION
  2
ENTITIES
0
LINE
8
BLACK
6
CONTINUOUS
10
2.04025
20
-0.879563
11
2.0492
21
-0.881961
0
LINE
8
BLACK
6
CONTINUOUS
10
2.0492
20
-0.881961
11
2.0576
21
-0.885877
0
LINE
8
BLACK
6
CONTINUOUS
10
2.0576
20
-0.885877
11
2.06518
21
-0.891191
0
LINE
8
BLACK
6
CONTINUOUS
10
2.06518
20
-0.891191
11
2.07174
21
-0.897742
0
LINE
8
BLACK
6
CONTINUOUS
10
2.07174
20
-0.897742
11
2.07705
21
-0.905331
0
LINE
8
BLACK
6
CONTINUOUS
10
2.07705
20
-0.905331
11
2.08096
21
-0.913727
0
LINE
8
BLACK
6
CONTINUOUS
10
2.08096
20
-0.913727
11
2.08336
21
-0.922676
0
LINE
8
BLACK
6
CONTINUOUS
10
2.08336
20
-0.922676
11
2.08417
21
-0.931906
0
LINE
8
BLACK
6
CONTINUOUS
10
2.08417
20
-0.931906
11
2.08336
21
-0.941135
0
LINE
8
BLACK
6
CONTINUOUS
10
2.08336
20
-0.941135
11
2.08096
21
-0.950084
0
LINE
8
BLACK
6
CONTINUOUS
10
2.08096
20
-0.950084
11
2.07705
21
-0.95848
0
LINE
8
BLACK
6
CONTINUOUS
10
2.07705
20
-0.95848
11
2.07174
21
-0.966069
0
LINE
8
BLACK
6
CONTINUOUS
10
2.07174
20
-0.966069
11
2.06518
21
-0.97262
0
LINE
8
BLACK
6
CONTINUOUS
10
2.06518
20
-0.97262
11
2.0576
21
-0.977934
0
LINE
8
BLACK
6
CONTINUOUS
10
2.0576
20
-0.977934
11
2.0492
21
-0.98185
0
LINE
8
BLACK
6
CONTINUOUS
10
2.0492
20
-0.98185
11
2.04025
21
-0.984248
0
LINE
8
BLACK
6
CONTINUOUS
10
2.04025
20
-0.984248
11
2.03102
21
-0.985055
0
LINE
8
BLACK
6
CONTINUOUS
10
2.03102
20
-0.985055
11
2.02179
21
-0.984248
0
LINE
8
BLACK
6
CONTINUOUS
10
2.02179
20
-0.984248
11
2.01284
21
-0.98185
0
LINE
8
BLACK
6
CONTINUOUS
10
2.01284
20
-0.98185
11
2.00445
21
-0.977934
0
LINE
8
BLACK
6
CONTINUOUS
10
2.00445
20
-0.977934
11
1.99686
21
-0.97262
0
LINE
8
BLACK
6
CONTINUOUS
10
1.99686
20
-0.97262
11
1.99031
21
-0.966069
0
LINE
8
BLACK
6
CONTINUOUS
10
1.99031
20
-0.966069
11
1.98499
21
-0.95848
0
LINE
8
BLACK
6
CONTINUOUS
10
1.98499
20
-0.95848
11
1.98108
21
-0.950084
0
LINE
8
BLACK
6
CONTINUOUS
10
1.98108
20
-0.950084
11
1.97868
21
-0.941135
0
LINE
8
BLACK
6
CONTINUOUS
10
1.97868
20
-0.941135
11
1.97787
21
-0.931906
0
LINE
8
BLACK
6
CONTINUOUS
10
1.97787
20
-0.931906
11
1.97868
21
-0.922676
0
LINE
8
BLACK
6
CONTINUOUS
10
1.97868
20
-0.922676
11
1.98108
21
-0.913727
0
LINE
8
BLACK
6
CONTINUOUS
10
1.98108
20
-0.913727
11
1.98499
21
-0.905331
0
LINE
8
BLACK
6
CONTINUOUS
10
1.98499
20
-0.905331
11
1.99031
21
-0.897742
0
LINE
8
BLACK
6
CONTINUOUS
10
1.99031
20
-0.897742
11
1.99686
21
-0.891191
0
LINE
8
BLACK
6
CONTINUOUS
10
1.99686
20
-0.891191
11
2.00445
21
-0.885877
0
LINE
8
BLACK
6
CONTINUOUS
10
2.00445
20
-0.885877
11
2.01284
21
-0.881961
0
LINE
8
BLACK
6
CONTINUOUS
10
2.01284
20
-0.881961
11
2.02179
21
-0.879563
0
LINE
8
BLACK
6
CONTINUOUS
10
2.02179
20
-0.879563
11
2.03102
21
-0.878756
0
LINE
8
BLACK
6
CONTINUOUS
10
2.03102
20
-0.878756
11
2.04025
21
-0.879563
0
LINE
8
BLACK
6
CONTINUOUS
10
1.54182
20
-0.332319
11
1.55077
21
-0.334717
0
LINE
8
BLACK
6
CONTINUOUS
10
1.55077
20
-0.334717
11
1.55917
21
-0.338633
0
LINE
8
BLACK
6
CONTINUOUS
10
1.55917
20
-0.338633
11
1.56676
21
-0.343946
0
LINE
8
BLACK
6
CONTINUOUS
10
1.56676
20
-0.343946
11
1.57331
21
-0.350498
0
LINE
8
BLACK
6
CONTINUOUS
10
1.57331
20
-0.350498
11
1.57862
21
-0.358087
0
LINE
8
BLACK
6
CONTINUOUS
10
1.57862
20
-0.358087
11
1.58254
21
-0.366483
0
LINE
8
BLACK
6
CONTINUOUS
10
1.58254
20
-0.366483
11
1.58494
21
-0.375432
0
LINE
8
BLACK
6
CONTINUOUS
10
1.58494
20
-0.375432
11
1.58574
21
-0.384661
0
LINE
8
BLACK
6
CONTINUOUS
10
1.58574
20
-0.384661
11
1.58494
21
-0.393891
0
LINE
8
BLACK
6
CONTINUOUS
10
1.58494
20
-0.393891
11
1.58254
21
-0.40284
0
LINE
8
BLACK
6
CONTINUOUS
10
1.58254
20
-0.40284
11
1.57862
21
-0.411236
0
LINE
8
BLACK
6
CONTINUOUS
10
1.57862
20
-0.411236
11
1.57331
21
-0.418825
0
LINE
8
BLACK
6
CONTINUOUS
10
1.57331
20
-0.418825
11
1.56676
21
-0.425376
0
LINE
8
BLACK
6
CONTINUOUS
10
1.56676
20
-0.425376
11
1.55917
21
-0.43069
0
LINE
8
BLACK
6
CONTINUOUS
10
1.55917
20
-0.43069
11
1.55077
21
-0.434606
0
LINE
8
BLACK
6
CONTINUOUS
10
1.55077
20
-0.434606
11
1.54182
21
-0.437004
0
LINE
8
BLACK
6
CONTINUOUS
10
1.54182
20
-0.437004
11
1.5326
21
-0.437811
0
LINE
8
BLACK
6
CONTINUOUS
10
1.5326
20
-0.437811
11
1.52337
21
-0.437004
0
LINE
8
BLACK
6
CONTINUOUS
10
1.52337
20
-0.437004
11
1.51442
21
-0.434606
0
LINE
8
BLACK
6
CONTINUOUS
10
1.51442
20
-0.434606
11
1.50602
21
-0.43069
0
LINE
8
BLACK
6
CONTINUOUS
10
1.50602
20
-0.43069
11
1.49843
21
-0.425376
0
LINE
8
BLACK
6
CONTINUOUS
10
1.49843
20
-0.425376
11
1.49188
21
-0.418825
0
LINE
8
BLACK
6
CONTINUOUS
10
1.49188
20
-0.418825
11
1.48657
21
-0.411236
0
LINE
8
BLACK
6
CONTINUOUS
10
1.48657
20
-0.411236
11
1.48265
21
-0.40284
0
LINE
8
BLACK
6
CONTINUOUS
10
1.48265
20
-0.40284
11
1.48025
21
-0.393891
0
LINE
8
BLACK
6
CONTINUOUS
10
1.48025
20
-0.393891
11
1.47945
21
-0.384661
0
LINE
8
BLACK
6
CONTINUOUS
10
1.47945
20
-0.384661
11
1.48025
21
-0.375432
0
LINE
8
BLACK
6
CONTINUOUS
10
1.48025
20
-0.375432
11
1.48265
21
-0.366483
0
LINE
8
BLACK
6
CONTINUOUS
10
1.48265
20
-0.366483
11
1.48657
21
-0.358087
0
LINE
8
BLACK
6
CONTINUOUS
10
1.48657
20
-0.358087
11
1.49188
21
-0.350498
0
LINE
8
BLACK
6
CONTINUOUS
10
1.49188
20
-0.350498
11
1.49843
21
-0.343946
0
LINE
8
BLACK
6
CONTINUOUS
10
1.49843
20
-0.343946
11
1.50602
21
-0.338633
0
LINE
8
BLACK
6
CONTINUOUS
10
1.50602
20
-0.338633
11
1.51442
21
-0.334717
0
LINE
8
BLACK
6
CONTINUOUS
10
1.51442
20
-0.334717
11
1.52337
21
-0.332319
0
LINE
8
BLACK
6
CONTINUOUS
10
1.52337
20
-0.332319
11
1.5326
21
-0.331512
0
LINE
8
BLACK
6
CONTINUOUS
10
1.5326
20
-0.331512
11
1.54182
21
-0.332319
0
LINE
8
BLACK
6
CONTINUOUS
10
0.980384
20
1.98289
11
0.980513
21
1.98291
0
LINE
8
BLACK
6
CONTINUOUS
10
0.980513
20
1.98291
11
0.980626
21
1.98284
0
LINE
8
BLACK
6
CONTINUOUS
10
0.980626
20
1.98284
11
0.98101
21
1.98277
0
LINE
8
BLACK
6
CONTINUOUS
10
0.98101
20
1.98277
11
0.981598
21
1.98228
0
LINE
8
BLACK
6
CONTINUOUS
10
0.981598
20
1.98228
11
0.982262
21
1.9819
0
LINE
8
BLACK
6
CONTINUOUS
10
0.982262
20
1.9819
11
0.982353
21
1.98165
0
LINE
8
BLACK
6
CONTINUOUS
10
0.982353
20
1.98165
11
0.982557
21
1.98148
0
LINE
8
BLACK
6
CONTINUOUS
10
0.982557
20
1.98148
11
0.98269
21
1.98072
0
LINE
8
BLACK
6
CONTINUOUS
10
0.98269
20
1.98072
11
0.982953
21
1.98
0
LINE
8
BLACK
6
CONTINUOUS
10
0.982953
20
1.98
11
0.982953
21
1.64567
0
LINE
8
BLACK
6
CONTINUOUS
10
0.982953
20
1.64567
11
1.10913
21
1.64567
0
LINE
8
BLACK
6
CONTINUOUS
10
1.10913
20
1.64567
11
1.10913
21
1.6063
0
LINE
8
BLACK
6
CONTINUOUS
10
1.10913
20
1.6063
11
0.982953
21
1.6063
0
LINE
8
BLACK
6
CONTINUOUS
10
0.982953
20
1.6063
11
0.982953
21
0.393701
0
LINE
8
BLACK
6
CONTINUOUS
10
0.982953
20
0.393701
11
1.10913
21
0.393701
0
LINE
8
BLACK
6
CONTINUOUS
10
1.10913
20
0.393701
11
1.10913
21
0.354331
0
LINE
8
BLACK
6
CONTINUOUS
10
1.10913
20
0.354331
11
0.982953
21
0.354331
0
LINE
8
BLACK
6
CONTINUOUS
10
0.982953
20
0.354331
11
0.982953
21
0.02
0
LINE
8
BLACK
6
CONTINUOUS
10
0.982953
20
0.02
11
0.982885
21
0.0196165
0
LINE
8
BLACK
6
CONTINUOUS
10
0.982885
20
0.0196165
11
0.982908
21
0.0194872
0
LINE
8
BLACK
6
CONTINUOUS
10
0.982908
20
0.0194872
11
0.982842
21
0.0193736
0
LINE
8
BLACK
6
CONTINUOUS
10
0.982842
20
0.0193736
11
0.982775
21
0.0189901
0
LINE
8
BLACK
6
CONTINUOUS
10
0.982775
20
0.0189901
11
0.982282
21
0.0184024
0
LINE
8
BLACK
6
CONTINUOUS
10
0.982282
20
0.0184024
11
0.981898
21
0.0177381
0
LINE
8
BLACK
6
CONTINUOUS
10
0.981898
20
0.0177381
11
0.981648
21
0.017647
0
LINE
8
BLACK
6
CONTINUOUS
10
0.981648
20
0.017647
11
0.981476
21
0.0174428
0
LINE
8
BLACK
6
CONTINUOUS
10
0.981476
20
0.0174428
11
0.980721
21
0.0173096
0
LINE
8
BLACK
6
CONTINUOUS
10
0.980721
20
0.0173096
11
0.98
21
0.0170472
0
LINE
8
BLACK
6
CONTINUOUS
10
0.98
20
0.0170472
11
0.02
21
0.0170472
0
LINE
8
BLACK
6
CONTINUOUS
10
0.02
20
0.0170472
11
0.0196165
21
0.0171149
0
LINE
8
BLACK
6
CONTINUOUS
10
0.0196165
20
0.0171149
11
0.0194872
21
0.0170921
0
LINE
8
BLACK
6
CONTINUOUS
10
0.0194872
20
0.0170921
11
0.0193736
21
0.0171577
0
LINE
8
BLACK
6
CONTINUOUS
10
0.0193736
20
0.0171577
11
0.0189901
21
0.0172253
0
LINE
8
BLACK
6
CONTINUOUS
10
0.0189901
20
0.0172253
11
0.0184024
21
0.0177185
0
LINE
8
BLACK
6
CONTINUOUS
10
0.0184024
20
0.0177185
11
0.0177381
21
0.018102
0
LINE
8
BLACK
6
CONTINUOUS
10
0.0177381
20
0.018102
11
0.017647
21
0.0183524
0
LINE
8
BLACK
6
CONTINUOUS
10
0.017647
20
0.0183524
11
0.0174428
21
0.0185236
0
LINE
8
BLACK
6
CONTINUOUS
10
0.0174428
20
0.0185236
11
0.0173096
21
0.0192792
0
LINE
8
BLACK
6
CONTINUOUS
10
0.0173096
20
0.0192792
11
0.0170472
21
0.02
0
LINE
8
BLACK
6
CONTINUOUS
10
0.0170472
20
0.02
11
0.0170472
21
1.98
0
LINE
8
BLACK
6
CONTINUOUS
10
0.0170472
20
1.98
11
0.0171149
21
1.98038
0
LINE
8
BLACK
6
CONTINUOUS
10
0.0171149
20
1.98038
11
0.0170921
21
1.98051
0
LINE
8
BLACK
6
CONTINUOUS
10
0.0170921
20
1.98051
11
0.0171577
21
1.98063
0
LINE
8
BLACK
6
CONTINUOUS
10
0.0171577
20
1.98063
11
0.0172253
21
1.98101
0
LINE
8
BLACK
6
CONTINUOUS
10
0.0172253
20
1.98101
11
0.0177185
21
1.9816
0
LINE
8
BLACK
6
CONTINUOUS
10
0.0177185
20
1.9816
11
0.018102
21
1.98226
0
LINE
8
BLACK
6
CONTINUOUS
10
0.018102
20
1.98226
11
0.0183524
21
1.98235
0
LINE
8
BLACK
6
CONTINUOUS
10
0.0183524
20
1.98235
11
0.0185236
21
1.98256
0
LINE
8
BLACK
6
CONTINUOUS
10
0.0185236
20
1.98256
11
0.0192792
21
1.98269
0
LINE
8
BLACK
6
CONTINUOUS
10
0.0192792
20
1.98269
11
0.02
21
1.98295
0
LINE
8
BLACK
6
CONTINUOUS
10
0.02
20
1.98295
11
0.98
21
1.98295
0
LINE
8
BLACK
6
CONTINUOUS
10
0.98
20
1.98295
11
0.980384
21
1.98289
0
LINE
8
BLACK
6
CONTINUOUS
10
2.50865
20
0.317793
11
2.52213
21
0.316018
0
LINE
8
BLACK
6
CONTINUOUS
10
2.52213
20
0.316018
11
2.53532
21
0.312706
0
LINE
8
BLACK
6
CONTINUOUS
10
2.53532
20
0.312706
11
2.54804
21
0.307899
0
LINE
8
BLACK
6
CONTINUOUS
10
2.54804
20
0.307899
11
2.56012
21
0.301662
0
LINE
8
BLACK
6
CONTINUOUS
10
2.56012
20
0.301662
11
2.57141
21
0.294078
0
LINE
8
BLACK
6
CONTINUOUS
10
2.57141
20
0.294078
11
2.58175
21
0.285247
0
LINE
8
BLACK
6
CONTINUOUS
10
2.58175
20
0.285247
11
2.59101
21
0.275286
0
LINE
8
BLACK
6
CONTINUOUS
10
2.59101
20
0.275286
11
2.59906
21
0.264327
0
LINE
8
BLACK
6
CONTINUOUS
10
2.59906
20
0.264327
11
2.60579
21
0.252516
0
LINE
8
BLACK
6
CONTINUOUS
10
2.60579
20
0.252516
11
2.61113
21
0.240008
0
LINE
8
BLACK
6
CONTINUOUS
10
2.61113
20
0.240008
11
2.61499
21
0.226971
0
LINE
8
BLACK
6
CONTINUOUS
10
2.61499
20
0.226971
11
2.61733
21
0.213575
0
LINE
8
BLACK
6
CONTINUOUS
10
2.61733
20
0.213575
11
2.61811
21
0.2
0
LINE
8
BLACK
6
CONTINUOUS
10
2.61811
20
0.2
11
2.61788
21
0.192584
0
LINE
8
BLACK
6
CONTINUOUS
10
2.61788
20
0.192584
11
2.61624
21
0.179084
0
LINE
8
BLACK
6
CONTINUOUS
10
2.61624
20
0.179084
11
2.61307
21
0.165862
0
LINE
8
BLACK
6
CONTINUOUS
10
2.61307
20
0.165862
11
2.6084
21
0.153093
0
LINE
8
BLACK
6
CONTINUOUS
10
2.6084
20
0.153093
11
2.60229
21
0.140945
0
LINE
8
BLACK
6
CONTINUOUS
10
2.60229
20
0.140945
11
2.59482
21
0.12958
0
LINE
8
BLACK
6
CONTINUOUS
10
2.59482
20
0.12958
11
2.5861
21
0.119148
0
LINE
8
BLACK
6
CONTINUOUS
10
2.5861
20
0.119148
11
2.57624
21
0.109788
0
LINE
8
BLACK
6
CONTINUOUS
10
2.57624
20
0.109788
11
2.56536
21
0.101623
0
LINE
8
BLACK
6
CONTINUOUS
10
2.56536
20
0.101623
11
2.55362
21
0.094763
0
LINE
8
BLACK
6
CONTINUOUS
10
2.55362
20
0.094763
11
2.54117
21
0.0892974
0
LINE
8
BLACK
6
CONTINUOUS
10
2.54117
20
0.0892974
11
2.52817
21
0.0852991
0
LINE
8
BLACK
6
CONTINUOUS
10
2.52817
20
0.0852991
11
2.5148
21
0.0828211
0
LINE
8
BLACK
6
CONTINUOUS
10
2.5148
20
0.0828211
11
2.50124
21
0.0818962
0
LINE
8
BLACK
6
CONTINUOUS
10
2.50124
20
0.0818962
11
2.48765
21
0.0825368
0
LINE
8
BLACK
6
CONTINUOUS
10
2.48765
20
0.0825368
11
2.47424
21
0.0847343
0
LINE
8
BLACK
6
CONTINUOUS
10
2.47424
20
0.0847343
11
2.46116
21
0.0884595
0
LINE
8
BLACK
6
CONTINUOUS
10
2.46116
20
0.0884595
11
2.44859
21
0.0936631
0
LINE
8
BLACK
6
CONTINUOUS
10
2.44859
20
0.0936631
11
2.43671
21
0.100276
0
LINE
8
BLACK
6
CONTINUOUS
10
2.43671
20
0.100276
11
2.42567
21
0.108211
0
LINE
8
BLACK
6
CONTINUOUS
10
2.42567
20
0.108211
11
2.41561
21
0.117363
0
LINE
8
BLACK
6
CONTINUOUS
10
2.41561
20
0.117363
11
2.40667
21
0.127609
0
LINE
8
BLACK
6
CONTINUOUS
10
2.40667
20
0.127609
11
2.39897
21
0.138816
0
LINE
8
BLACK
6
CONTINUOUS
10
2.39897
20
0.138816
11
2.39261
21
0.150833
0
LINE
8
BLACK
6
CONTINUOUS
10
2.39261
20
0.150833
11
2.38767
21
0.163502
0
LINE
8
BLACK
6
CONTINUOUS
10
2.38767
20
0.163502
11
2.38422
21
0.176655
0
LINE
8
BLACK
6
CONTINUOUS
10
2.38422
20
0.176655
11
2.3823
21
0.190117
0
LINE
8
BLACK
6
CONTINUOUS
10
2.3823
20
0.190117
11
2.38195
21
0.20371
0
LINE
8
BLACK
6
CONTINUOUS
10
2.38195
20
0.20371
11
2.38316
21
0.217254
0
LINE
8
BLACK
6
CONTINUOUS
10
2.38316
20
0.217254
11
2.38591
21
0.230569
0
LINE
8
BLACK
6
CONTINUOUS
10
2.38591
20
0.230569
11
2.39018
21
0.243479
0
LINE
8
BLACK
6
CONTINUOUS
10
2.39018
20
0.243479
11
2.39591
21
0.255813
0
LINE
8
BLACK
6
CONTINUOUS
10
2.39591
20
0.255813
11
2.40301
21
0.267407
0
LINE
8
BLACK
6
CONTINUOUS
10
2.40301
20
0.267407
11
2.4114
21
0.278108
0
LINE
8
BLACK
6
CONTINUOUS
10
2.4114
20
0.278108
11
2.42097
21
0.287773
0
LINE
8
BLACK
6
CONTINUOUS
10
2.42097
20
0.287773
11
2.43158
21
0.296275
0
LINE
8
BLACK
6
CONTINUOUS
10
2.43158
20
0.296275
11
2.4431
21
0.303501
0
LINE
8
BLACK
6
CONTINUOUS
10
2.4431
20
0.303501
11
2.45537
21
0.309355
0
LINE
8
BLACK
6
CONTINUOUS
10
2.45537
20
0.309355
11
2.46824
21
0.313759
0
LINE
8
BLACK
6
CONTINUOUS
10
2.46824
20
0.313759
11
2.48152
21
0.316656
0
LINE
8
BLACK
6
CONTINUOUS
10
2.48152
20
0.316656
11
2.49505
21
0.318007
0
LINE
8
BLACK
6
CONTINUOUS
10
2.49505
20
0.318007
11
2.50865
21
0.317793
0
LINE
8
BLACK
6
CONTINUOUS
10
2.31102
20
0.351378
11
2.11417
21
0.351378
0
LINE
8
BLACK
6
CONTINUOUS
10
2.11417
20
0.351378
11
2.11417
21
0.449803
0
LINE
8
BLACK
6
CONTINUOUS
10
2.11417
20
0.449803
11
2.31102
21
0.449803
0
LINE
8
BLACK
6
CONTINUOUS
10
2.31102
20
0.449803
11
2.31102
21
0.351378
0
LINE
8
BLACK
6
CONTINUOUS
10
3.5
20
0.351378
11
3.30315
21
0.351378
0
LINE
8
BLACK
6
CONTINUOUS
10
3.30315
20
0.351378
11
3.30315
21
0.449803
0
LINE
8
BLACK
6
CONTINUOUS
10
3.30315
20
0.449803
11
3.5
21
0.449803
0
LINE
8
BLACK
6
CONTINUOUS
10
3.5
20
0.449803
11
3.5
21
0.351378
0
LINE
8
BLACK
6
CONTINUOUS
10
1.19575
20
0.354331
11
1.19575
21
0.393701
0
LINE
8
BLACK
6
CONTINUOUS
10
1.19575
20
0.393701
11
1.2863
21
0.393701
0
LINE
8
BLACK
6
CONTINUOUS
10
1.2863
20
0.393701
11
1.2863
21
0.484252
0
LINE
8
BLACK
6
CONTINUOUS
10
1.2863
20
0.484252
11
1.32567
21
0.484252
0
LINE
8
BLACK
6
CONTINUOUS
10
1.32567
20
0.484252
11
1.32567
21
0.354331
0
LINE
8
BLACK
6
CONTINUOUS
10
1.32567
20
0.354331
11
1.19575
21
0.354331
0
LINE
8
BLACK
6
CONTINUOUS
10
2.1063
20
0.529921
11
2.04331
21
0.529921
0
LINE
8
BLACK
6
CONTINUOUS
10
2.04331
20
0.529921
11
2.04331
21
0.577165
0
LINE
8
BLACK
6
CONTINUOUS
10
2.04331
20
0.577165
11
2.1063
21
0.577165
0
LINE
8
BLACK
6
CONTINUOUS
10
2.1063
20
0.577165
11
2.1063
21
0.529921
0
LINE
8
BLACK
6
CONTINUOUS
10
1.32567
20
0.570866
11
1.2863
21
0.570866
0
LINE
8
BLACK
6
CONTINUOUS
10
1.2863
20
0.570866
11
1.2863
21
0.720472
0
LINE
8
BLACK
6
CONTINUOUS
10
1.2863
20
0.720472
11
1.32567
21
0.720472
0
LINE
8
BLACK
6
CONTINUOUS
10
1.32567
20
0.720472
11
1.32567
21
0.570866
0
LINE
8
BLACK
6
CONTINUOUS
10
2.1063
20
0.600787
11
2.04331
21
0.600787
0
LINE
8
BLACK
6
CONTINUOUS
10
2.04331
20
0.600787
11
2.04331
21
0.648031
0
LINE
8
BLACK
6
CONTINUOUS
10
2.04331
20
0.648031
11
2.1063
21
0.648031
0
LINE
8
BLACK
6
CONTINUOUS
10
2.1063
20
0.648031
11
2.1063
21
0.600787
0
LINE
8
BLACK
6
CONTINUOUS
10
2.1063
20
0.696457
11
2.04331
21
0.696457
0
LINE
8
BLACK
6
CONTINUOUS
10
2.04331
20
0.696457
11
2.04331
21
0.743701
0
LINE
8
BLACK
6
CONTINUOUS
10
2.04331
20
0.743701
11
2.1063
21
0.743701
0
LINE
8
BLACK
6
CONTINUOUS
10
2.1063
20
0.743701
11
2.1063
21
0.696457
0
LINE
8
BLACK
6
CONTINUOUS
10
3.26378
20
1.61
11
3.57004
21
1.61
0
LINE
8
BLACK
6
CONTINUOUS
10
3.57004
20
1.61
11
3.57272
21
1.60921
0
LINE
8
BLACK
6
CONTINUOUS
10
3.57272
20
1.60921
11
3.57455
21
1.6071
0
LINE
8
BLACK
6
CONTINUOUS
10
3.57455
20
1.6071
11
3.575
21
1.60504
0
LINE
8
BLACK
6
CONTINUOUS
10
3.575
20
1.60504
11
3.575
21
0.739961
0
LINE
8
BLACK
6
CONTINUOUS
10
3.575
20
0.739961
11
3.57421
21
0.737279
0
LINE
8
BLACK
6
CONTINUOUS
10
3.57421
20
0.737279
11
3.5721
21
0.735448
0
LINE
8
BLACK
6
CONTINUOUS
10
3.5721
20
0.735448
11
3.57004
21
0.735
0
LINE
8
BLACK
6
CONTINUOUS
10
3.57004
20
0.735
11
3.16496
21
0.735
0
LINE
8
BLACK
6
CONTINUOUS
10
3.16496
20
0.735
11
3.16228
21
0.735787
0
LINE
8
BLACK
6
CONTINUOUS
10
3.16228
20
0.735787
11
3.16045
21
0.7379
0
LINE
8
BLACK
6
CONTINUOUS
10
3.16045
20
0.7379
11
3.16
21
0.739961
0
LINE
8
BLACK
6
CONTINUOUS
10
3.16
20
0.739961
11
3.16
21
1.5502
0
LINE
8
BLACK
6
CONTINUOUS
10
3.16
20
1.5502
11
3.06693
21
1.5502
0
LINE
8
BLACK
6
CONTINUOUS
10
3.06693
20
1.5502
11
3.06693
21
1.64862
0
LINE
8
BLACK
6
CONTINUOUS
10
3.06693
20
1.64862
11
3.26378
21
1.64862
0
LINE
8
BLACK
6
CONTINUOUS
10
3.26378
20
1.64862
11
3.26378
21
1.61
0
LINE
8
BLACK
6
CONTINUOUS
10
2.1063
20
0.794882
11
2.04331
21
0.794882
0
LINE
8
BLACK
6
CONTINUOUS
10
2.04331
20
0.794882
11
2.04331
21
0.842126
0
LINE
8
BLACK
6
CONTINUOUS
10
2.04331
20
0.842126
11
2.1063
21
0.842126
0
LINE
8
BLACK
6
CONTINUOUS
10
2.1063
20
0.842126
11
2.1063
21
0.794882
0
LINE
8
BLACK
6
CONTINUOUS
10
1.32567
20
0.807087
11
1.2863
21
0.807087
0
LINE
8
BLACK
6
CONTINUOUS
10
1.2863
20
0.807087
11
1.2863
21
0.956693
0
LINE
8
BLACK
6
CONTINUOUS
10
1.2863
20
0.956693
11
1.32567
21
0.956693
0
LINE
8
BLACK
6
CONTINUOUS
10
1.32567
20
0.956693
11
1.32567
21
0.807087
0
LINE
8
BLACK
6
CONTINUOUS
10
2.1063
20
0.893307
11
2.04331
21
0.893307
0
LINE
8
BLACK
6
CONTINUOUS
10
2.04331
20
0.893307
11
2.04331
21
0.940551
0
LINE
8
BLACK
6
CONTINUOUS
10
2.04331
20
0.940551
11
2.1063
21
0.940551
0
LINE
8
BLACK
6
CONTINUOUS
10
2.1063
20
0.940551
11
2.1063
21
0.893307
0
LINE
8
BLACK
6
CONTINUOUS
10
2.1063
20
0.991732
11
2.04331
21
0.991732
0
LINE
8
BLACK
6
CONTINUOUS
10
2.04331
20
0.991732
11
2.04331
21
1.03898
0
LINE
8
BLACK
6
CONTINUOUS
10
2.04331
20
1.03898
11
2.1063
21
1.03898
0
LINE
8
BLACK
6
CONTINUOUS
10
2.1063
20
1.03898
11
2.1063
21
0.991732
0
LINE
8
BLACK
6
CONTINUOUS
10
1.32567
20
1.04331
11
1.2863
21
1.04331
0
LINE
8
BLACK
6
CONTINUOUS
10
1.2863
20
1.04331
11
1.2863
21
1.19291
0
LINE
8
BLACK
6
CONTINUOUS
10
1.2863
20
1.19291
11
1.32567
21
1.19291
0
LINE
8
BLACK
6
CONTINUOUS
10
1.32567
20
1.19291
11
1.32567
21
1.04331
0
LINE
8
BLACK
6
CONTINUOUS
10
2.1063
20
1.09016
11
2.04331
21
1.09016
0
LINE
8
BLACK
6
CONTINUOUS
10
2.04331
20
1.09016
11
2.04331
21
1.1374
0
LINE
8
BLACK
6
CONTINUOUS
10
2.04331
20
1.1374
11
2.1063
21
1.1374
0
LINE
8
BLACK
6
CONTINUOUS
10
2.1063
20
1.1374
11
2.1063
21
1.09016
0
LINE
8
BLACK
6
CONTINUOUS
10
2.1063
20
1.18858
11
2.04331
21
1.18858
0
LINE
8
BLACK
6
CONTINUOUS
10
2.04331
20
1.18858
11
2.04331
21
1.23583
0
LINE
8
BLACK
6
CONTINUOUS
10
2.04331
20
1.23583
11
2.1063
21
1.23583
0
LINE
8
BLACK
6
CONTINUOUS
10
2.1063
20
1.23583
11
2.1063
21
1.18858
0
LINE
8
BLACK
6
CONTINUOUS
10
1.32567
20
1.27953
11
1.2863
21
1.27953
0
LINE
8
BLACK
6
CONTINUOUS
10
1.2863
20
1.27953
11
1.2863
21
1.42913
0
LINE
8
BLACK
6
CONTINUOUS
10
1.2863
20
1.42913
11
1.32567
21
1.42913
0
LINE
8
BLACK
6
CONTINUOUS
10
1.32567
20
1.42913
11
1.32567
21
1.27953
0
LINE
8
BLACK
6
CONTINUOUS
10
2.1063
20
1.28701
11
2.04331
21
1.28701
0
LINE
8
BLACK
6
CONTINUOUS
10
2.04331
20
1.28701
11
2.04331
21
1.33425
0
LINE
8
BLACK
6
CONTINUOUS
10
2.04331
20
1.33425
11
2.1063
21
1.33425
0
LINE
8
BLACK
6
CONTINUOUS
10
2.1063
20
1.33425
11
2.1063
21
1.28701
0
LINE
8
BLACK
6
CONTINUOUS
10
1.98674
20
1.38875
11
1.99294
21
1.38654
0
LINE
8
BLACK
6
CONTINUOUS
10
1.99294
20
1.38654
11
1.9985
21
1.38301
0
LINE
8
BLACK
6
CONTINUOUS
10
1.9985
20
1.38301
11
2.00314
21
1.37834
0
LINE
8
BLACK
6
CONTINUOUS
10
2.00314
20
1.37834
11
2.00663
21
1.37276
0
LINE
8
BLACK
6
CONTINUOUS
10
2.00663
20
1.37276
11
2.00879
21
1.36654
0
LINE
8
BLACK
6
CONTINUOUS
10
2.00879
20
1.36654
11
2.00953
21
1.36
0
LINE
8
BLACK
6
CONTINUOUS
10
2.00953
20
1.36
11
2.00952
21
1.35918
0
LINE
8
BLACK
6
CONTINUOUS
10
2.00952
20
1.35918
11
2.0086
21
1.35266
0
LINE
8
BLACK
6
CONTINUOUS
10
2.0086
20
1.35266
11
2.00626
21
1.3465
0
LINE
8
BLACK
6
CONTINUOUS
10
2.00626
20
1.3465
11
2.00262
21
1.34102
0
LINE
8
BLACK
6
CONTINUOUS
10
2.00262
20
1.34102
11
1.99785
21
1.33648
0
LINE
8
BLACK
6
CONTINUOUS
10
1.99785
20
1.33648
11
1.9922
21
1.33311
0
LINE
8
BLACK
6
CONTINUOUS
10
1.9922
20
1.33311
11
1.98594
21
1.33108
0
LINE
8
BLACK
6
CONTINUOUS
10
1.98594
20
1.33108
11
1.97938
21
1.33048
0
LINE
8
BLACK
6
CONTINUOUS
10
1.97938
20
1.33048
11
1.97286
21
1.33135
0
LINE
8
BLACK
6
CONTINUOUS
10
1.97286
20
1.33135
11
1.96669
21
1.33364
0
LINE
8
BLACK
6
CONTINUOUS
10
1.96669
20
1.33364
11
1.96118
21
1.33725
0
LINE
8
BLACK
6
CONTINUOUS
10
1.96118
20
1.33725
11
1.95661
21
1.34198
0
LINE
8
BLACK
6
CONTINUOUS
10
1.95661
20
1.34198
11
1.9532
21
1.34761
0
LINE
8
BLACK
6
CONTINUOUS
10
1.9532
20
1.34761
11
1.95112
21
1.35386
0
LINE
8
BLACK
6
CONTINUOUS
10
1.95112
20
1.35386
11
1.95048
21
1.36041
0
LINE
8
BLACK
6
CONTINUOUS
10
1.95048
20
1.36041
11
1.9513
21
1.36694
0
LINE
8
BLACK
6
CONTINUOUS
10
1.9513
20
1.36694
11
1.95355
21
1.37313
0
LINE
8
BLACK
6
CONTINUOUS
10
1.95355
20
1.37313
11
1.95712
21
1.37866
0
LINE
8
BLACK
6
CONTINUOUS
10
1.95712
20
1.37866
11
1.96182
21
1.38327
0
LINE
8
BLACK
6
CONTINUOUS
10
1.96182
20
1.38327
11
1.96743
21
1.38672
0
LINE
8
BLACK
6
CONTINUOUS
10
1.96743
20
1.38672
11
1.97366
21
1.38884
0
LINE
8
BLACK
6
CONTINUOUS
10
1.97366
20
1.38884
11
1.98021
21
1.38953
0
LINE
8
BLACK
6
CONTINUOUS
10
1.98021
20
1.38953
11
1.98674
21
1.38875
0
LINE
8
BLACK
6
CONTINUOUS
10
2.17887
20
1.38875
11
2.18507
21
1.38654
0
LINE
8
BLACK
6
CONTINUOUS
10
2.18507
20
1.38654
11
2.19063
21
1.38301
0
LINE
8
BLACK
6
CONTINUOUS
10
2.19063
20
1.38301
11
2.19527
21
1.37834
0
LINE
8
BLACK
6
CONTINUOUS
10
2.19527
20
1.37834
11
2.19875
21
1.37276
0
LINE
8
BLACK
6
CONTINUOUS
10
2.19875
20
1.37276
11
2.20092
21
1.36654
0
LINE
8
BLACK
6
CONTINUOUS
10
2.20092
20
1.36654
11
2.20165
21
1.36
0
LINE
8
BLACK
6
CONTINUOUS
10
2.20165
20
1.36
11
2.20164
21
1.35918
0
LINE
8
BLACK
6
CONTINUOUS
10
2.20164
20
1.35918
11
2.20073
21
1.35266
0
LINE
8
BLACK
6
CONTINUOUS
10
2.20073
20
1.35266
11
2.19839
21
1.3465
0
LINE
8
BLACK
6
CONTINUOUS
10
2.19839
20
1.3465
11
2.19475
21
1.34102
0
LINE
8
BLACK
6
CONTINUOUS
10
2.19475
20
1.34102
11
2.18998
21
1.33648
0
LINE
8
BLACK
6
CONTINUOUS
10
2.18998
20
1.33648
11
2.18432
21
1.33311
0
LINE
8
BLACK
6
CONTINUOUS
10
2.18432
20
1.33311
11
2.17806
21
1.33108
0
LINE
8
BLACK
6
CONTINUOUS
10
2.17806
20
1.33108
11
2.17151
21
1.33048
0
LINE
8
BLACK
6
CONTINUOUS
10
2.17151
20
1.33048
11
2.16498
21
1.33135
0
LINE
8
BLACK
6
CONTINUOUS
10
2.16498
20
1.33135
11
2.15881
21
1.33364
0
LINE
8
BLACK
6
CONTINUOUS
10
2.15881
20
1.33364
11
2.1533
21
1.33725
0
LINE
8
BLACK
6
CONTINUOUS
10
2.1533
20
1.33725
11
2.14873
21
1.34198
0
LINE
8
BLACK
6
CONTINUOUS
10
2.14873
20
1.34198
11
2.14532
21
1.34761
0
LINE
8
BLACK
6
CONTINUOUS
10
2.14532
20
1.34761
11
2.14324
21
1.35386
0
LINE
8
BLACK
6
CONTINUOUS
10
2.14324
20
1.35386
11
2.1426
21
1.36041
0
LINE
8
BLACK
6
CONTINUOUS
10
2.1426
20
1.36041
11
2.14343
21
1.36694
0
LINE
8
BLACK
6
CONTINUOUS
10
2.14343
20
1.36694
11
2.14568
21
1.37313
0
LINE
8
BLACK
6
CONTINUOUS
10
2.14568
20
1.37313
11
2.14924
21
1.37866
0
LINE
8
BLACK
6
CONTINUOUS
10
2.14924
20
1.37866
11
2.15395
21
1.38327
0
LINE
8
BLACK
6
CONTINUOUS
10
2.15395
20
1.38327
11
2.15955
21
1.38672
0
LINE
8
BLACK
6
CONTINUOUS
10
2.15955
20
1.38672
11
2.16579
21
1.38884
0
LINE
8
BLACK
6
CONTINUOUS
10
2.16579
20
1.38884
11
2.17233
21
1.38953
0
LINE
8
BLACK
6
CONTINUOUS
10
2.17233
20
1.38953
11
2.17887
21
1.38875
0
LINE
8
BLACK
6
CONTINUOUS
10
1.19575
20
1.64567
11
1.32567
21
1.64567
0
LINE
8
BLACK
6
CONTINUOUS
10
1.32567
20
1.64567
11
1.32567
21
1.51575
0
LINE
8
BLACK
6
CONTINUOUS
10
1.32567
20
1.51575
11
1.2863
21
1.51575
0
LINE
8
BLACK
6
CONTINUOUS
10
1.2863
20
1.51575
11
1.2863
21
1.6063
0
LINE
8
BLACK
6
CONTINUOUS
10
1.2863
20
1.6063
11
1.19575
21
1.6063
0
LINE
8
BLACK
6
CONTINUOUS
10
1.19575
20
1.6063
11
1.19575
21
1.64567
0
LINE
8
BLACK
6
CONTINUOUS
10
2.31102
20
1.5502
11
2.11417
21
1.5502
0
LINE
8
BLACK
6
CONTINUOUS
10
2.11417
20
1.5502
11
2.11417
21
1.64862
0
LINE
8
BLACK
6
CONTINUOUS
10
2.11417
20
1.64862
11
2.31102
21
1.64862
0
LINE
8
BLACK
6
CONTINUOUS
10
2.31102
20
1.64862
11
2.31102
21
1.5502
0
LINE
8
BLACK
6
CONTINUOUS
10
2.80865
20
1.91779
11
2.82213
21
1.91602
0
LINE
8
BLACK
6
CONTINUOUS
10
2.82213
20
1.91602
11
2.83532
21
1.91271
0
LINE
8
BLACK
6
CONTINUOUS
10
2.83532
20
1.91271
11
2.84804
21
1.9079
0
LINE
8
BLACK
6
CONTINUOUS
10
2.84804
20
1.9079
11
2.86012
21
1.90166
0
LINE
8
BLACK
6
CONTINUOUS
10
2.86012
20
1.90166
11
2.87141
21
1.89408
0
LINE
8
BLACK
6
CONTINUOUS
10
2.87141
20
1.89408
11
2.88175
21
1.88525
0
LINE
8
BLACK
6
CONTINUOUS
10
2.88175
20
1.88525
11
2.89101
21
1.87529
0
LINE
8
BLACK
6
CONTINUOUS
10
2.89101
20
1.87529
11
2.89906
21
1.86433
0
LINE
8
BLACK
6
CONTINUOUS
10
2.89906
20
1.86433
11
2.90579
21
1.85252
0
LINE
8
BLACK
6
CONTINUOUS
10
2.90579
20
1.85252
11
2.91113
21
1.84001
0
LINE
8
BLACK
6
CONTINUOUS
10
2.91113
20
1.84001
11
2.91499
21
1.82697
0
LINE
8
BLACK
6
CONTINUOUS
10
2.91499
20
1.82697
11
2.91733
21
1.81358
0
LINE
8
BLACK
6
CONTINUOUS
10
2.91733
20
1.81358
11
2.91811
21
1.8
0
LINE
8
BLACK
6
CONTINUOUS
10
2.91811
20
1.8
11
2.91788
21
1.79258
0
LINE
8
BLACK
6
CONTINUOUS
10
2.91788
20
1.79258
11
2.91624
21
1.77908
0
LINE
8
BLACK
6
CONTINUOUS
10
2.91624
20
1.77908
11
2.91307
21
1.76586
0
LINE
8
BLACK
6
CONTINUOUS
10
2.91307
20
1.76586
11
2.9084
21
1.75309
0
LINE
8
BLACK
6
CONTINUOUS
10
2.9084
20
1.75309
11
2.90229
21
1.74094
0
LINE
8
BLACK
6
CONTINUOUS
10
2.90229
20
1.74094
11
2.89482
21
1.72958
0
LINE
8
BLACK
6
CONTINUOUS
10
2.89482
20
1.72958
11
2.8861
21
1.71915
0
LINE
8
BLACK
6
CONTINUOUS
10
2.8861
20
1.71915
11
2.87624
21
1.70979
0
LINE
8
BLACK
6
CONTINUOUS
10
2.87624
20
1.70979
11
2.86536
21
1.70162
0
LINE
8
BLACK
6
CONTINUOUS
10
2.86536
20
1.70162
11
2.85362
21
1.69476
0
LINE
8
BLACK
6
CONTINUOUS
10
2.85362
20
1.69476
11
2.84117
21
1.6893
0
LINE
8
BLACK
6
CONTINUOUS
10
2.84117
20
1.6893
11
2.82817
21
1.6853
0
LINE
8
BLACK
6
CONTINUOUS
10
2.82817
20
1.6853
11
2.8148
21
1.68282
0
LINE
8
BLACK
6
CONTINUOUS
10
2.8148
20
1.68282
11
2.80124
21
1.6819
0
LINE
8
BLACK
6
CONTINUOUS
10
2.80124
20
1.6819
11
2.78765
21
1.68254
0
LINE
8
BLACK
6
CONTINUOUS
10
2.78765
20
1.68254
11
2.77424
21
1.68473
0
LINE
8
BLACK
6
CONTINUOUS
10
2.77424
20
1.68473
11
2.76116
21
1.68846
0
LINE
8
BLACK
6
CONTINUOUS
10
2.76116
20
1.68846
11
2.74859
21
1.69366
0
LINE
8
BLACK
6
CONTINUOUS
10
2.74859
20
1.69366
11
2.73671
21
1.70028
0
LINE
8
BLACK
6
CONTINUOUS
10
2.73671
20
1.70028
11
2.72567
21
1.70821
0
LINE
8
BLACK
6
CONTINUOUS
10
2.72567
20
1.70821
11
2.71561
21
1.71736
0
LINE
8
BLACK
6
CONTINUOUS
10
2.71561
20
1.71736
11
2.70667
21
1.72761
0
LINE
8
BLACK
6
CONTINUOUS
10
2.70667
20
1.72761
11
2.69897
21
1.73882
0
LINE
8
BLACK
6
CONTINUOUS
10
2.69897
20
1.73882
11
2.69261
21
1.75083
0
LINE
8
BLACK
6
CONTINUOUS
10
2.69261
20
1.75083
11
2.68767
21
1.7635
0
LINE
8
BLACK
6
CONTINUOUS
10
2.68767
20
1.7635
11
2.68422
21
1.77665
0
LINE
8
BLACK
6
CONTINUOUS
10
2.68422
20
1.77665
11
2.6823
21
1.79012
0
LINE
8
BLACK
6
CONTINUOUS
10
2.6823
20
1.79012
11
2.68195
21
1.80371
0
LINE
8
BLACK
6
CONTINUOUS
10
2.68195
20
1.80371
11
2.68316
21
1.81725
0
LINE
8
BLACK
6
CONTINUOUS
10
2.68316
20
1.81725
11
2.68591
21
1.83057
0
LINE
8
BLACK
6
CONTINUOUS
10
2.68591
20
1.83057
11
2.69018
21
1.84348
0
LINE
8
BLACK
6
CONTINUOUS
10
2.69018
20
1.84348
11
2.69591
21
1.85581
0
LINE
8
BLACK
6
CONTINUOUS
10
2.69591
20
1.85581
11
2.70301
21
1.86741
0
LINE
8
BLACK
6
CONTINUOUS
10
2.70301
20
1.86741
11
2.7114
21
1.87811
0
LINE
8
BLACK
6
CONTINUOUS
10
2.7114
20
1.87811
11
2.72097
21
1.88777
0
LINE
8
BLACK
6
CONTINUOUS
10
2.72097
20
1.88777
11
2.73158
21
1.89627
0
LINE
8
BLACK
6
CONTINUOUS
10
2.73158
20
1.89627
11
2.7431
21
1.9035
0
LINE
8
BLACK
6
CONTINUOUS
10
2.7431
20
1.9035
11
2.75537
21
1.90935
0
LINE
8
BLACK
6
CONTINUOUS
10
2.75537
20
1.90935
11
2.76824
21
1.91376
0
LINE
8
BLACK
6
CONTINUOUS
10
2.76824
20
1.91376
11
2.78152
21
1.91666
0
LINE
8
BLACK
6
CONTINUOUS
10
2.78152
20
1.91666
11
2.79505
21
1.91801
0
LINE
8
BLACK
6
CONTINUOUS
10
2.79505
20
1.91801
11
2.80865
21
1.91779
0
LINE
8
BLACK
6
CONTINUOUS
10
3.36152
20
1.72486
11
3.36492
21
1.722
0
LINE
8
BLACK
6
CONTINUOUS
10
3.36492
20
1.722
11
3.36714
21
1.71816
0
LINE
8
BLACK
6
CONTINUOUS
10
3.36714
20
1.71816
11
3.36791
21
1.71378
0
LINE
8
BLACK
6
CONTINUOUS
10
3.36791
20
1.71378
11
3.36714
21
1.7094
0
LINE
8
BLACK
6
CONTINUOUS
10
3.36714
20
1.7094
11
3.36492
21
1.70555
0
LINE
8
BLACK
6
CONTINUOUS
10
3.36492
20
1.70555
11
3.36152
21
1.7027
0
LINE
8
BLACK
6
CONTINUOUS
10
3.36152
20
1.7027
11
3.35734
21
1.70118
0
LINE
8
BLACK
6
CONTINUOUS
10
3.35734
20
1.70118
11
3.3529
21
1.70118
0
LINE
8
BLACK
6
CONTINUOUS
10
3.3529
20
1.70118
11
3.34872
21
1.7027
0
LINE
8
BLACK
6
CONTINUOUS
10
3.34872
20
1.7027
11
3.34532
21
1.70555
0
LINE
8
BLACK
6
CONTINUOUS
10
3.34532
20
1.70555
11
3.34309
21
1.7094
0
LINE
8
BLACK
6
CONTINUOUS
10
3.34309
20
1.7094
11
3.34232
21
1.71378
0
LINE
8
BLACK
6
CONTINUOUS
10
3.34232
20
1.71378
11
3.34309
21
1.71816
0
LINE
8
BLACK
6
CONTINUOUS
10
3.34309
20
1.71816
11
3.34532
21
1.722
0
LINE
8
BLACK
6
CONTINUOUS
10
3.34532
20
1.722
11
3.34872
21
1.72486
0
LINE
8
BLACK
6
CONTINUOUS
10
3.34872
20
1.72486
11
3.3529
21
1.72638
0
LINE
8
BLACK
6
CONTINUOUS
10
3.3529
20
1.72638
11
3.35734
21
1.72638
0
LINE
8
BLACK
6
CONTINUOUS
10
3.35734
20
1.72638
11
3.36152
21
1.72486
0
LINE
8
BLACK
6
CONTINUOUS
10
3.35912
20
1.79053
11
3.36451
21
1.78896
0
LINE
8
BLACK
6
CONTINUOUS
10
3.36451
20
1.78896
11
3.36928
21
1.786
0
LINE
8
BLACK
6
CONTINUOUS
10
3.36928
20
1.786
11
3.37307
21
1.78187
0
LINE
8
BLACK
6
CONTINUOUS
10
3.37307
20
1.78187
11
3.37562
21
1.77688
0
LINE
8
BLACK
6
CONTINUOUS
10
3.37562
20
1.77688
11
3.37673
21
1.77138
0
LINE
8
BLACK
6
CONTINUOUS
10
3.37673
20
1.77138
11
3.37632
21
1.76578
0
LINE
8
BLACK
6
CONTINUOUS
10
3.37632
20
1.76578
11
3.37442
21
1.7605
0
LINE
8
BLACK
6
CONTINUOUS
10
3.37442
20
1.7605
11
3.37117
21
1.75593
0
LINE
8
BLACK
6
CONTINUOUS
10
3.37117
20
1.75593
11
3.36681
21
1.7524
0
LINE
8
BLACK
6
CONTINUOUS
10
3.36681
20
1.7524
11
3.36166
21
1.75017
0
LINE
8
BLACK
6
CONTINUOUS
10
3.36166
20
1.75017
11
3.3561
21
1.74941
0
LINE
8
BLACK
6
CONTINUOUS
10
3.3561
20
1.74941
11
3.31476
21
1.74941
0
LINE
8
BLACK
6
CONTINUOUS
10
3.31476
20
1.74941
11
3.31174
21
1.74963
0
LINE
8
BLACK
6
CONTINUOUS
10
3.31174
20
1.74963
11
3.30636
21
1.7512
0
LINE
8
BLACK
6
CONTINUOUS
10
3.30636
20
1.7512
11
3.30159
21
1.75415
0
LINE
8
BLACK
6
CONTINUOUS
10
3.30159
20
1.75415
11
3.29779
21
1.75828
0
LINE
8
BLACK
6
CONTINUOUS
10
3.29779
20
1.75828
11
3.29524
21
1.76328
0
LINE
8
BLACK
6
CONTINUOUS
10
3.29524
20
1.76328
11
3.29414
21
1.76878
0
LINE
8
BLACK
6
CONTINUOUS
10
3.29414
20
1.76878
11
3.29455
21
1.77438
0
LINE
8
BLACK
6
CONTINUOUS
10
3.29455
20
1.77438
11
3.29645
21
1.77965
0
LINE
8
BLACK
6
CONTINUOUS
10
3.29645
20
1.77965
11
3.2997
21
1.78423
0
LINE
8
BLACK
6
CONTINUOUS
10
3.2997
20
1.78423
11
3.30406
21
1.78776
0
LINE
8
BLACK
6
CONTINUOUS
10
3.30406
20
1.78776
11
3.30921
21
1.78999
0
LINE
8
BLACK
6
CONTINUOUS
10
3.30921
20
1.78999
11
3.31476
21
1.79075
0
LINE
8
BLACK
6
CONTINUOUS
10
3.31476
20
1.79075
11
3.3561
21
1.79075
0
LINE
8
BLACK
6
CONTINUOUS
10
3.3561
20
1.79075
11
3.35912
21
1.79053
0
LINE
8
BLACK
6
CONTINUOUS
10
3.51993
20
1.78976
11
3.52544
21
1.7889
0
LINE
8
BLACK
6
CONTINUOUS
10
3.52544
20
1.7889
11
3.53049
21
1.78653
0
LINE
8
BLACK
6
CONTINUOUS
10
3.53049
20
1.78653
11
3.53468
21
1.78284
0
LINE
8
BLACK
6
CONTINUOUS
10
3.53468
20
1.78284
11
3.53765
21
1.77812
0
LINE
8
BLACK
6
CONTINUOUS
10
3.53765
20
1.77812
11
3.53919
21
1.77275
0
LINE
8
BLACK
6
CONTINUOUS
10
3.53919
20
1.77275
11
3.53915
21
1.76717
0
LINE
8
BLACK
6
CONTINUOUS
10
3.53915
20
1.76717
11
3.53755
21
1.76182
0
LINE
8
BLACK
6
CONTINUOUS
10
3.53755
20
1.76182
11
3.53452
21
1.75714
0
LINE
8
BLACK
6
CONTINUOUS
10
3.53452
20
1.75714
11
3.53029
21
1.7535
0
LINE
8
BLACK
6
CONTINUOUS
10
3.53029
20
1.7535
11
3.52521
21
1.75118
0
LINE
8
BLACK
6
CONTINUOUS
10
3.52521
20
1.75118
11
3.51969
21
1.75039
0
LINE
8
BLACK
6
CONTINUOUS
10
3.51969
20
1.75039
11
3.48031
21
1.75039
0
LINE
8
BLACK
6
CONTINUOUS
10
3.48031
20
1.75039
11
3.48007
21
1.7504
0
LINE
8
BLACK
6
CONTINUOUS
10
3.48007
20
1.7504
11
3.47456
21
1.75125
0
LINE
8
BLACK
6
CONTINUOUS
10
3.47456
20
1.75125
11
3.46951
21
1.75363
0
LINE
8
BLACK
6
CONTINUOUS
10
3.46951
20
1.75363
11
3.46532
21
1.75732
0
LINE
8
BLACK
6
CONTINUOUS
10
3.46532
20
1.75732
11
3.46235
21
1.76204
0
LINE
8
BLACK
6
CONTINUOUS
10
3.46235
20
1.76204
11
3.46081
21
1.76741
0
LINE
8
BLACK
6
CONTINUOUS
10
3.46081
20
1.76741
11
3.46085
21
1.77299
0
LINE
8
BLACK
6
CONTINUOUS
10
3.46085
20
1.77299
11
3.46245
21
1.77834
0
LINE
8
BLACK
6
CONTINUOUS
10
3.46245
20
1.77834
11
3.46548
21
1.78302
0
LINE
8
BLACK
6
CONTINUOUS
10
3.46548
20
1.78302
11
3.46971
21
1.78666
0
LINE
8
BLACK
6
CONTINUOUS
10
3.46971
20
1.78666
11
3.47479
21
1.78897
0
LINE
8
BLACK
6
CONTINUOUS
10
3.47479
20
1.78897
11
3.48031
21
1.78976
0
LINE
8
BLACK
6
CONTINUOUS
10
3.48031
20
1.78976
11
3.51969
21
1.78976
0
LINE
8
BLACK
6
CONTINUOUS
10
3.51969
20
1.78976
11
3.51993
21
1.78976
  0
ENDSEC
  0
EOF
