  0
SECTION
  2
HEADER
  9
$ANGBASE
  50
0.0
  9
$ANGDIR
  70
1
  9
$MEASUREMENT
  70
0
  0
ENDSEC
  0
SECTION
  2
TABLES
  0
TABLE
  2
LTYPE
  70
4
  0
LTYPE
  5
40F
  2
CONTINUOUS
  70
0
  3
Solid line
  72
65
  73
0
  40
0.0
  0
LTYPE
  5
410
  2
DASHDOT
 70
0
  3
Dash Dot ____ _ ____ _
 72
65
 73
4
 40
2.0
 49
1.25
 49
-0.25
 49
0.25
 49
-0.25
  0
LTYPE
  5
411
  2
DASHED
 70
0
  3
Dashed __ __ __ __ __
 72
65
 73
2
 40
0.75
 49
0.5
 49
-0.25
  0
LTYPE
  5
43B
  2
DOTTED
 70
0
  3
Dotted .  .  .  .
 72
65
 73
2
 40
0.2
 49
0.0
 49
-0.2
  0
ENDTAB
  0
TABLE
  2
STYLE
  70
4
  0
STYLE
  2
KICAD
  70
0
  40
0
  41
1
  42
1
  50
0
  71
0
  3
isocp.shx
  0
STYLE
  2
KICADB
  70
0
  40
0
  41
1
  42
1
  50
0
  71
0
  3
isocp.shx
  0
STYLE
  2
KICADI
  70
0
  40
0
  41
1
  42
1
  50
15
  71
0
  3
isocp.shx
  0
STYLE
  2
KICADBI
  70
0
  40
0
  41
1
  42
1
  50
15
  71
0
  3
isocp.shx
  0
ENDTAB
  0
TABLE
  2
LAYER
  70
1
  0
LAYER
  2
BLACK
  70
0
  62
7
  6
CONTINUOUS
  0
ENDTAB
  0
ENDSEC
  0
SECTION
  2
ENTITIES
0
LINE
8
BLACK
6
CONTINUOUS
10
7.22831
20
-4.77382
11
7.23473
21
-4.77539
0
LINE
8
BLACK
6
CONTINUOUS
10
7.23473
20
-4.77539
11
7.24061
21
-4.7784
0
LINE
8
BLACK
6
CONTINUOUS
10
7.24061
20
-4.7784
11
7.24565
21
-4.78268
0
LINE
8
BLACK
6
CONTINUOUS
10
7.24565
20
-4.78268
11
7.24957
21
-4.788
0
LINE
8
BLACK
6
CONTINUOUS
10
7.24957
20
-4.788
11
7.25216
21
-4.79408
0
LINE
8
BLACK
6
CONTINUOUS
10
7.25216
20
-4.79408
11
7.25328
21
-4.8006
0
LINE
8
BLACK
6
CONTINUOUS
10
7.25328
20
-4.8006
11
7.25287
21
-4.8072
0
LINE
8
BLACK
6
CONTINUOUS
10
7.25287
20
-4.8072
11
7.25095
21
-4.81352
0
LINE
8
BLACK
6
CONTINUOUS
10
7.25095
20
-4.81352
11
7.24763
21
-4.81924
0
LINE
8
BLACK
6
CONTINUOUS
10
7.24763
20
-4.81924
11
7.24309
21
-4.82404
0
LINE
8
BLACK
6
CONTINUOUS
10
7.24309
20
-4.82404
11
7.23756
21
-4.82766
0
LINE
8
BLACK
6
CONTINUOUS
10
7.23756
20
-4.82766
11
7.23134
21
-4.82992
0
LINE
8
BLACK
6
CONTINUOUS
10
7.23134
20
-4.82992
11
7.22478
21
-4.83069
0
LINE
8
BLACK
6
CONTINUOUS
10
7.22478
20
-4.83069
11
7.18344
21
-4.83069
0
LINE
8
BLACK
6
CONTINUOUS
10
7.18344
20
-4.83069
11
7.17991
21
-4.83047
0
LINE
8
BLACK
6
CONTINUOUS
10
7.17991
20
-4.83047
11
7.17349
21
-4.8289
0
LINE
8
BLACK
6
CONTINUOUS
10
7.17349
20
-4.8289
11
7.1676
21
-4.82589
0
LINE
8
BLACK
6
CONTINUOUS
10
7.1676
20
-4.82589
11
7.16256
21
-4.82161
0
LINE
8
BLACK
6
CONTINUOUS
10
7.16256
20
-4.82161
11
7.15864
21
-4.81628
0
LINE
8
BLACK
6
CONTINUOUS
10
7.15864
20
-4.81628
11
7.15606
21
-4.8102
0
LINE
8
BLACK
6
CONTINUOUS
10
7.15606
20
-4.8102
11
7.15494
21
-4.80369
0
LINE
8
BLACK
6
CONTINUOUS
10
7.15494
20
-4.80369
11
7.15535
21
-4.79709
0
LINE
8
BLACK
6
CONTINUOUS
10
7.15535
20
-4.79709
11
7.15726
21
-4.79076
0
LINE
8
BLACK
6
CONTINUOUS
10
7.15726
20
-4.79076
11
7.16058
21
-4.78504
0
LINE
8
BLACK
6
CONTINUOUS
10
7.16058
20
-4.78504
11
7.16513
21
-4.78025
0
LINE
8
BLACK
6
CONTINUOUS
10
7.16513
20
-4.78025
11
7.17066
21
-4.77662
0
LINE
8
BLACK
6
CONTINUOUS
10
7.17066
20
-4.77662
11
7.17687
21
-4.77437
0
LINE
8
BLACK
6
CONTINUOUS
10
7.17687
20
-4.77437
11
7.18344
21
-4.7736
0
LINE
8
BLACK
6
CONTINUOUS
10
7.18344
20
-4.7736
11
7.22478
21
-4.7736
0
LINE
8
BLACK
6
CONTINUOUS
10
7.22478
20
-4.7736
11
7.22831
21
-4.77382
0
LINE
8
BLACK
6
CONTINUOUS
10
7.38865
20
-4.77459
11
7.39521
21
-4.77545
0
LINE
8
BLACK
6
CONTINUOUS
10
7.39521
20
-4.77545
11
7.40138
21
-4.77785
0
LINE
8
BLACK
6
CONTINUOUS
10
7.40138
20
-4.77785
11
7.4068
21
-4.78166
0
LINE
8
BLACK
6
CONTINUOUS
10
7.4068
20
-4.78166
11
7.41115
21
-4.78665
0
LINE
8
BLACK
6
CONTINUOUS
10
7.41115
20
-4.78665
11
7.41419
21
-4.79254
0
LINE
8
BLACK
6
CONTINUOUS
10
7.41419
20
-4.79254
11
7.41574
21
-4.79898
0
LINE
8
BLACK
6
CONTINUOUS
10
7.41574
20
-4.79898
11
7.4157
21
-4.8056
0
LINE
8
BLACK
6
CONTINUOUS
10
7.4157
20
-4.8056
11
7.41409
21
-4.81202
0
LINE
8
BLACK
6
CONTINUOUS
10
7.41409
20
-4.81202
11
7.41099
21
-4.81787
0
LINE
8
BLACK
6
CONTINUOUS
10
7.41099
20
-4.81787
11
7.40658
21
-4.82282
0
LINE
8
BLACK
6
CONTINUOUS
10
7.40658
20
-4.82282
11
7.40113
21
-4.82657
0
LINE
8
BLACK
6
CONTINUOUS
10
7.40113
20
-4.82657
11
7.39493
21
-4.82891
0
LINE
8
BLACK
6
CONTINUOUS
10
7.39493
20
-4.82891
11
7.38836
21
-4.8297
0
LINE
8
BLACK
6
CONTINUOUS
10
7.38836
20
-4.8297
11
7.34899
21
-4.8297
0
LINE
8
BLACK
6
CONTINUOUS
10
7.34899
20
-4.8297
11
7.3487
21
-4.8297
0
LINE
8
BLACK
6
CONTINUOUS
10
7.3487
20
-4.8297
11
7.34214
21
-4.82884
0
LINE
8
BLACK
6
CONTINUOUS
10
7.34214
20
-4.82884
11
7.33597
21
-4.82643
0
LINE
8
BLACK
6
CONTINUOUS
10
7.33597
20
-4.82643
11
7.33055
21
-4.82262
0
LINE
8
BLACK
6
CONTINUOUS
10
7.33055
20
-4.82262
11
7.3262
21
-4.81763
0
LINE
8
BLACK
6
CONTINUOUS
10
7.3262
20
-4.81763
11
7.32316
21
-4.81175
0
LINE
8
BLACK
6
CONTINUOUS
10
7.32316
20
-4.81175
11
7.32161
21
-4.80531
0
LINE
8
BLACK
6
CONTINUOUS
10
7.32161
20
-4.80531
11
7.32165
21
-4.79869
0
LINE
8
BLACK
6
CONTINUOUS
10
7.32165
20
-4.79869
11
7.32326
21
-4.79227
0
LINE
8
BLACK
6
CONTINUOUS
10
7.32326
20
-4.79227
11
7.32636
21
-4.78641
0
LINE
8
BLACK
6
CONTINUOUS
10
7.32636
20
-4.78641
11
7.33076
21
-4.78147
0
LINE
8
BLACK
6
CONTINUOUS
10
7.33076
20
-4.78147
11
7.33622
21
-4.77772
0
LINE
8
BLACK
6
CONTINUOUS
10
7.33622
20
-4.77772
11
7.34242
21
-4.77538
0
LINE
8
BLACK
6
CONTINUOUS
10
7.34242
20
-4.77538
11
7.34899
21
-4.77458
0
LINE
8
BLACK
6
CONTINUOUS
10
7.34899
20
-4.77458
11
7.38836
21
-4.77458
0
LINE
8
BLACK
6
CONTINUOUS
10
7.38836
20
-4.77458
11
7.38865
21
-4.77459
0
LINE
8
BLACK
6
CONTINUOUS
10
4.10359
20
-4.57242
11
4.11744
21
-4.57486
0
LINE
8
BLACK
6
CONTINUOUS
10
4.11744
20
-4.57486
11
4.13094
21
-4.57883
0
LINE
8
BLACK
6
CONTINUOUS
10
4.13094
20
-4.57883
11
4.1439
21
-4.58428
0
LINE
8
BLACK
6
CONTINUOUS
10
4.1439
20
-4.58428
11
4.15618
21
-4.59114
0
LINE
8
BLACK
6
CONTINUOUS
10
4.15618
20
-4.59114
11
4.16762
21
-4.59933
0
LINE
8
BLACK
6
CONTINUOUS
10
4.16762
20
-4.59933
11
4.17807
21
-4.60874
0
LINE
8
BLACK
6
CONTINUOUS
10
4.17807
20
-4.60874
11
4.18741
21
-4.61926
0
LINE
8
BLACK
6
CONTINUOUS
10
4.18741
20
-4.61926
11
4.19552
21
-4.63076
0
LINE
8
BLACK
6
CONTINUOUS
10
4.19552
20
-4.63076
11
4.20229
21
-4.64308
0
LINE
8
BLACK
6
CONTINUOUS
10
4.20229
20
-4.64308
11
4.20765
21
-4.65608
0
LINE
8
BLACK
6
CONTINUOUS
10
4.20765
20
-4.65608
11
4.21153
21
-4.66961
0
LINE
8
BLACK
6
CONTINUOUS
10
4.21153
20
-4.66961
11
4.21387
21
-4.68347
0
LINE
8
BLACK
6
CONTINUOUS
10
4.21387
20
-4.68347
11
4.21466
21
-4.69752
0
LINE
8
BLACK
6
CONTINUOUS
10
4.21466
20
-4.69752
11
4.21461
21
-4.70103
0
LINE
8
BLACK
6
CONTINUOUS
10
4.21461
20
-4.70103
11
4.21343
21
-4.71505
0
LINE
8
BLACK
6
CONTINUOUS
10
4.21343
20
-4.71505
11
4.2107
21
-4.72885
0
LINE
8
BLACK
6
CONTINUOUS
10
4.2107
20
-4.72885
11
4.20645
21
-4.74225
0
LINE
8
BLACK
6
CONTINUOUS
10
4.20645
20
-4.74225
11
4.20073
21
-4.7551
0
LINE
8
BLACK
6
CONTINUOUS
10
4.20073
20
-4.7551
11
4.19361
21
-4.76724
0
LINE
8
BLACK
6
CONTINUOUS
10
4.19361
20
-4.76724
11
4.18518
21
-4.7785
0
LINE
8
BLACK
6
CONTINUOUS
10
4.18518
20
-4.7785
11
4.17556
21
-4.78875
0
LINE
8
BLACK
6
CONTINUOUS
10
4.17556
20
-4.78875
11
4.16484
21
-4.79787
0
LINE
8
BLACK
6
CONTINUOUS
10
4.16484
20
-4.79787
11
4.15318
21
-4.80573
0
LINE
8
BLACK
6
CONTINUOUS
10
4.15318
20
-4.80573
11
4.14072
21
-4.81225
0
LINE
8
BLACK
6
CONTINUOUS
10
4.14072
20
-4.81225
11
4.12761
21
-4.81733
0
LINE
8
BLACK
6
CONTINUOUS
10
4.12761
20
-4.81733
11
4.11401
21
-4.82093
0
LINE
8
BLACK
6
CONTINUOUS
10
4.11401
20
-4.82093
11
4.10009
21
-4.82298
0
LINE
8
BLACK
6
CONTINUOUS
10
4.10009
20
-4.82298
11
4.08604
21
-4.82347
0
LINE
8
BLACK
6
CONTINUOUS
10
4.08604
20
-4.82347
11
4.07201
21
-4.82239
0
LINE
8
BLACK
6
CONTINUOUS
10
4.07201
20
-4.82239
11
4.0582
21
-4.81976
0
LINE
8
BLACK
6
CONTINUOUS
10
4.0582
20
-4.81976
11
4.04476
21
-4.8156
0
LINE
8
BLACK
6
CONTINUOUS
10
4.04476
20
-4.8156
11
4.03187
21
-4.80997
0
LINE
8
BLACK
6
CONTINUOUS
10
4.03187
20
-4.80997
11
4.01969
21
-4.80294
0
LINE
8
BLACK
6
CONTINUOUS
10
4.01969
20
-4.80294
11
4.00837
21
-4.79459
0
LINE
8
BLACK
6
CONTINUOUS
10
4.00837
20
-4.79459
11
3.99805
21
-4.78503
0
LINE
8
BLACK
6
CONTINUOUS
10
3.99805
20
-4.78503
11
3.98886
21
-4.77439
0
LINE
8
BLACK
6
CONTINUOUS
10
3.98886
20
-4.77439
11
3.98091
21
-4.76278
0
LINE
8
BLACK
6
CONTINUOUS
10
3.98091
20
-4.76278
11
3.97431
21
-4.75036
0
LINE
8
BLACK
6
CONTINUOUS
10
3.97431
20
-4.75036
11
3.96913
21
-4.73728
0
LINE
8
BLACK
6
CONTINUOUS
10
3.96913
20
-4.73728
11
3.96544
21
-4.72371
0
LINE
8
BLACK
6
CONTINUOUS
10
3.96544
20
-4.72371
11
3.96329
21
-4.70981
0
LINE
8
BLACK
6
CONTINUOUS
10
3.96329
20
-4.70981
11
3.9627
21
-4.69576
0
LINE
8
BLACK
6
CONTINUOUS
10
3.9627
20
-4.69576
11
3.96368
21
-4.68173
0
LINE
8
BLACK
6
CONTINUOUS
10
3.96368
20
-4.68173
11
3.96622
21
-4.66789
0
LINE
8
BLACK
6
CONTINUOUS
10
3.96622
20
-4.66789
11
3.97029
21
-4.65443
0
LINE
8
BLACK
6
CONTINUOUS
10
3.97029
20
-4.65443
11
3.97583
21
-4.6415
0
LINE
8
BLACK
6
CONTINUOUS
10
3.97583
20
-4.6415
11
3.98278
21
-4.62927
0
LINE
8
BLACK
6
CONTINUOUS
10
3.98278
20
-4.62927
11
3.99104
21
-4.61789
0
LINE
8
BLACK
6
CONTINUOUS
10
3.99104
20
-4.61789
11
4.00053
21
-4.6075
0
LINE
8
BLACK
6
CONTINUOUS
10
4.00053
20
-4.6075
11
4.01111
21
-4.59824
0
LINE
8
BLACK
6
CONTINUOUS
10
4.01111
20
-4.59824
11
4.02266
21
-4.59021
0
LINE
8
BLACK
6
CONTINUOUS
10
4.02266
20
-4.59021
11
4.03503
21
-4.58352
0
LINE
8
BLACK
6
CONTINUOUS
10
4.03503
20
-4.58352
11
4.04807
21
-4.57825
0
LINE
8
BLACK
6
CONTINUOUS
10
4.04807
20
-4.57825
11
4.06162
21
-4.57447
0
LINE
8
BLACK
6
CONTINUOUS
10
4.06162
20
-4.57447
11
4.07551
21
-4.57222
0
LINE
8
BLACK
6
CONTINUOUS
10
4.07551
20
-4.57222
11
4.08955
21
-4.57154
0
LINE
8
BLACK
6
CONTINUOUS
10
4.08955
20
-4.57154
11
4.10359
21
-4.57242
0
LINE
8
BLACK
6
CONTINUOUS
10
6.90359
20
-4.57242
11
6.91744
21
-4.57486
0
LINE
8
BLACK
6
CONTINUOUS
10
6.91744
20
-4.57486
11
6.93094
21
-4.57883
0
LINE
8
BLACK
6
CONTINUOUS
10
6.93094
20
-4.57883
11
6.9439
21
-4.58428
0
LINE
8
BLACK
6
CONTINUOUS
10
6.9439
20
-4.58428
11
6.95618
21
-4.59114
0
LINE
8
BLACK
6
CONTINUOUS
10
6.95618
20
-4.59114
11
6.96762
21
-4.59933
0
LINE
8
BLACK
6
CONTINUOUS
10
6.96762
20
-4.59933
11
6.97807
21
-4.60874
0
LINE
8
BLACK
6
CONTINUOUS
10
6.97807
20
-4.60874
11
6.98741
21
-4.61926
0
LINE
8
BLACK
6
CONTINUOUS
10
6.98741
20
-4.61926
11
6.99552
21
-4.63076
0
LINE
8
BLACK
6
CONTINUOUS
10
6.99552
20
-4.63076
11
7.00229
21
-4.64308
0
LINE
8
BLACK
6
CONTINUOUS
10
7.00229
20
-4.64308
11
7.00765
21
-4.65608
0
LINE
8
BLACK
6
CONTINUOUS
10
7.00765
20
-4.65608
11
7.01153
21
-4.66961
0
LINE
8
BLACK
6
CONTINUOUS
10
7.01153
20
-4.66961
11
7.01387
21
-4.68347
0
LINE
8
BLACK
6
CONTINUOUS
10
7.01387
20
-4.68347
11
7.01466
21
-4.69752
0
LINE
8
BLACK
6
CONTINUOUS
10
7.01466
20
-4.69752
11
7.01461
21
-4.70103
0
LINE
8
BLACK
6
CONTINUOUS
10
7.01461
20
-4.70103
11
7.01343
21
-4.71505
0
LINE
8
BLACK
6
CONTINUOUS
10
7.01343
20
-4.71505
11
7.0107
21
-4.72885
0
LINE
8
BLACK
6
CONTINUOUS
10
7.0107
20
-4.72885
11
7.00645
21
-4.74225
0
LINE
8
BLACK
6
CONTINUOUS
10
7.00645
20
-4.74225
11
7.00073
21
-4.7551
0
LINE
8
BLACK
6
CONTINUOUS
10
7.00073
20
-4.7551
11
6.99361
21
-4.76724
0
LINE
8
BLACK
6
CONTINUOUS
10
6.99361
20
-4.76724
11
6.98518
21
-4.7785
0
LINE
8
BLACK
6
CONTINUOUS
10
6.98518
20
-4.7785
11
6.97556
21
-4.78875
0
LINE
8
BLACK
6
CONTINUOUS
10
6.97556
20
-4.78875
11
6.96484
21
-4.79787
0
LINE
8
BLACK
6
CONTINUOUS
10
6.96484
20
-4.79787
11
6.95318
21
-4.80573
0
LINE
8
BLACK
6
CONTINUOUS
10
6.95318
20
-4.80573
11
6.94072
21
-4.81225
0
LINE
8
BLACK
6
CONTINUOUS
10
6.94072
20
-4.81225
11
6.92761
21
-4.81733
0
LINE
8
BLACK
6
CONTINUOUS
10
6.92761
20
-4.81733
11
6.91401
21
-4.82093
0
LINE
8
BLACK
6
CONTINUOUS
10
6.91401
20
-4.82093
11
6.90009
21
-4.82298
0
LINE
8
BLACK
6
CONTINUOUS
10
6.90009
20
-4.82298
11
6.88604
21
-4.82347
0
LINE
8
BLACK
6
CONTINUOUS
10
6.88604
20
-4.82347
11
6.87201
21
-4.82239
0
LINE
8
BLACK
6
CONTINUOUS
10
6.87201
20
-4.82239
11
6.8582
21
-4.81976
0
LINE
8
BLACK
6
CONTINUOUS
10
6.8582
20
-4.81976
11
6.84476
21
-4.8156
0
LINE
8
BLACK
6
CONTINUOUS
10
6.84476
20
-4.8156
11
6.83187
21
-4.80997
0
LINE
8
BLACK
6
CONTINUOUS
10
6.83187
20
-4.80997
11
6.81969
21
-4.80294
0
LINE
8
BLACK
6
CONTINUOUS
10
6.81969
20
-4.80294
11
6.80837
21
-4.79459
0
LINE
8
BLACK
6
CONTINUOUS
10
6.80837
20
-4.79459
11
6.79805
21
-4.78503
0
LINE
8
BLACK
6
CONTINUOUS
10
6.79805
20
-4.78503
11
6.78886
21
-4.77439
0
LINE
8
BLACK
6
CONTINUOUS
10
6.78886
20
-4.77439
11
6.78091
21
-4.76278
0
LINE
8
BLACK
6
CONTINUOUS
10
6.78091
20
-4.76278
11
6.77431
21
-4.75036
0
LINE
8
BLACK
6
CONTINUOUS
10
6.77431
20
-4.75036
11
6.76913
21
-4.73728
0
LINE
8
BLACK
6
CONTINUOUS
10
6.76913
20
-4.73728
11
6.76544
21
-4.72371
0
LINE
8
BLACK
6
CONTINUOUS
10
6.76544
20
-4.72371
11
6.76329
21
-4.70981
0
LINE
8
BLACK
6
CONTINUOUS
10
6.76329
20
-4.70981
11
6.7627
21
-4.69576
0
LINE
8
BLACK
6
CONTINUOUS
10
6.7627
20
-4.69576
11
6.76368
21
-4.68173
0
LINE
8
BLACK
6
CONTINUOUS
10
6.76368
20
-4.68173
11
6.76622
21
-4.66789
0
LINE
8
BLACK
6
CONTINUOUS
10
6.76622
20
-4.66789
11
6.77029
21
-4.65443
0
LINE
8
BLACK
6
CONTINUOUS
10
6.77029
20
-4.65443
11
6.77583
21
-4.6415
0
LINE
8
BLACK
6
CONTINUOUS
10
6.77583
20
-4.6415
11
6.78278
21
-4.62927
0
LINE
8
BLACK
6
CONTINUOUS
10
6.78278
20
-4.62927
11
6.79104
21
-4.61789
0
LINE
8
BLACK
6
CONTINUOUS
10
6.79104
20
-4.61789
11
6.80053
21
-4.6075
0
LINE
8
BLACK
6
CONTINUOUS
10
6.80053
20
-4.6075
11
6.81111
21
-4.59824
0
LINE
8
BLACK
6
CONTINUOUS
10
6.81111
20
-4.59824
11
6.82266
21
-4.59021
0
LINE
8
BLACK
6
CONTINUOUS
10
6.82266
20
-4.59021
11
6.83503
21
-4.58352
0
LINE
8
BLACK
6
CONTINUOUS
10
6.83503
20
-4.58352
11
6.84807
21
-4.57825
0
LINE
8
BLACK
6
CONTINUOUS
10
6.84807
20
-4.57825
11
6.86162
21
-4.57447
0
LINE
8
BLACK
6
CONTINUOUS
10
6.86162
20
-4.57447
11
6.87551
21
-4.57222
0
LINE
8
BLACK
6
CONTINUOUS
10
6.87551
20
-4.57222
11
6.88955
21
-4.57154
0
LINE
8
BLACK
6
CONTINUOUS
10
6.88955
20
-4.57154
11
6.90359
21
-4.57242
0
LINE
8
BLACK
6
CONTINUOUS
10
6.24944
20
-4.72047
11
6.25441
21
-4.72221
0
LINE
8
BLACK
6
CONTINUOUS
10
6.25441
20
-4.72221
11
6.25864
21
-4.72534
0
LINE
8
BLACK
6
CONTINUOUS
10
6.25864
20
-4.72534
11
6.26177
21
-4.72958
0
LINE
8
BLACK
6
CONTINUOUS
10
6.26177
20
-4.72958
11
6.26352
21
-4.73455
0
LINE
8
BLACK
6
CONTINUOUS
10
6.26352
20
-4.73455
11
6.26383
21
-4.73787
0
LINE
8
BLACK
6
CONTINUOUS
10
6.26383
20
-4.73787
11
6.26383
21
-4.7674
0
LINE
8
BLACK
6
CONTINUOUS
10
6.26383
20
-4.7674
11
6.26352
21
-4.77072
0
LINE
8
BLACK
6
CONTINUOUS
10
6.26352
20
-4.77072
11
6.26177
21
-4.77569
0
LINE
8
BLACK
6
CONTINUOUS
10
6.26177
20
-4.77569
11
6.25864
21
-4.77993
0
LINE
8
BLACK
6
CONTINUOUS
10
6.25864
20
-4.77993
11
6.25441
21
-4.78306
0
LINE
8
BLACK
6
CONTINUOUS
10
6.25441
20
-4.78306
11
6.24944
21
-4.7848
0
LINE
8
BLACK
6
CONTINUOUS
10
6.24944
20
-4.7848
11
6.24612
21
-4.78512
0
LINE
8
BLACK
6
CONTINUOUS
10
6.24612
20
-4.78512
11
6.1969
21
-4.78512
0
LINE
8
BLACK
6
CONTINUOUS
10
6.1969
20
-4.78512
11
6.19358
21
-4.7848
0
LINE
8
BLACK
6
CONTINUOUS
10
6.19358
20
-4.7848
11
6.18861
21
-4.78306
0
LINE
8
BLACK
6
CONTINUOUS
10
6.18861
20
-4.78306
11
6.18438
21
-4.77993
0
LINE
8
BLACK
6
CONTINUOUS
10
6.18438
20
-4.77993
11
6.18125
21
-4.77569
0
LINE
8
BLACK
6
CONTINUOUS
10
6.18125
20
-4.77569
11
6.1795
21
-4.77072
0
LINE
8
BLACK
6
CONTINUOUS
10
6.1795
20
-4.77072
11
6.17919
21
-4.7674
0
LINE
8
BLACK
6
CONTINUOUS
10
6.17919
20
-4.7674
11
6.17919
21
-4.73787
0
LINE
8
BLACK
6
CONTINUOUS
10
6.17919
20
-4.73787
11
6.1795
21
-4.73455
0
LINE
8
BLACK
6
CONTINUOUS
10
6.1795
20
-4.73455
11
6.18125
21
-4.72958
0
LINE
8
BLACK
6
CONTINUOUS
10
6.18125
20
-4.72958
11
6.18438
21
-4.72534
0
LINE
8
BLACK
6
CONTINUOUS
10
6.18438
20
-4.72534
11
6.18861
21
-4.72221
0
LINE
8
BLACK
6
CONTINUOUS
10
6.18861
20
-4.72221
11
6.19358
21
-4.72047
0
LINE
8
BLACK
6
CONTINUOUS
10
6.19358
20
-4.72047
11
6.1969
21
-4.72015
0
LINE
8
BLACK
6
CONTINUOUS
10
6.1969
20
-4.72015
11
6.24612
21
-4.72015
0
LINE
8
BLACK
6
CONTINUOUS
10
6.24612
20
-4.72015
11
6.24944
21
-4.72047
0
LINE
8
BLACK
6
CONTINUOUS
10
6.64314
20
-4.72047
11
6.64811
21
-4.72221
0
LINE
8
BLACK
6
CONTINUOUS
10
6.64811
20
-4.72221
11
6.65234
21
-4.72534
0
LINE
8
BLACK
6
CONTINUOUS
10
6.65234
20
-4.72534
11
6.65547
21
-4.72958
0
LINE
8
BLACK
6
CONTINUOUS
10
6.65547
20
-4.72958
11
6.65722
21
-4.73455
0
LINE
8
BLACK
6
CONTINUOUS
10
6.65722
20
-4.73455
11
6.65753
21
-4.73787
0
LINE
8
BLACK
6
CONTINUOUS
10
6.65753
20
-4.73787
11
6.65753
21
-4.7674
0
LINE
8
BLACK
6
CONTINUOUS
10
6.65753
20
-4.7674
11
6.65722
21
-4.77072
0
LINE
8
BLACK
6
CONTINUOUS
10
6.65722
20
-4.77072
11
6.65547
21
-4.77569
0
LINE
8
BLACK
6
CONTINUOUS
10
6.65547
20
-4.77569
11
6.65234
21
-4.77993
0
LINE
8
BLACK
6
CONTINUOUS
10
6.65234
20
-4.77993
11
6.64811
21
-4.78306
0
LINE
8
BLACK
6
CONTINUOUS
10
6.64811
20
-4.78306
11
6.64314
21
-4.7848
0
LINE
8
BLACK
6
CONTINUOUS
10
6.64314
20
-4.7848
11
6.63982
21
-4.78512
0
LINE
8
BLACK
6
CONTINUOUS
10
6.63982
20
-4.78512
11
6.5906
21
-4.78512
0
LINE
8
BLACK
6
CONTINUOUS
10
6.5906
20
-4.78512
11
6.58728
21
-4.7848
0
LINE
8
BLACK
6
CONTINUOUS
10
6.58728
20
-4.7848
11
6.58231
21
-4.78306
0
LINE
8
BLACK
6
CONTINUOUS
10
6.58231
20
-4.78306
11
6.57808
21
-4.77993
0
LINE
8
BLACK
6
CONTINUOUS
10
6.57808
20
-4.77993
11
6.57495
21
-4.77569
0
LINE
8
BLACK
6
CONTINUOUS
10
6.57495
20
-4.77569
11
6.5732
21
-4.77072
0
LINE
8
BLACK
6
CONTINUOUS
10
6.5732
20
-4.77072
11
6.57289
21
-4.7674
0
LINE
8
BLACK
6
CONTINUOUS
10
6.57289
20
-4.7674
11
6.57289
21
-4.73787
0
LINE
8
BLACK
6
CONTINUOUS
10
6.57289
20
-4.73787
11
6.5732
21
-4.73455
0
LINE
8
BLACK
6
CONTINUOUS
10
6.5732
20
-4.73455
11
6.57495
21
-4.72958
0
LINE
8
BLACK
6
CONTINUOUS
10
6.57495
20
-4.72958
11
6.57808
21
-4.72534
0
LINE
8
BLACK
6
CONTINUOUS
10
6.57808
20
-4.72534
11
6.58231
21
-4.72221
0
LINE
8
BLACK
6
CONTINUOUS
10
6.58231
20
-4.72221
11
6.58728
21
-4.72047
0
LINE
8
BLACK
6
CONTINUOUS
10
6.58728
20
-4.72047
11
6.5906
21
-4.72015
0
LINE
8
BLACK
6
CONTINUOUS
10
6.5906
20
-4.72015
11
6.63982
21
-4.72015
0
LINE
8
BLACK
6
CONTINUOUS
10
6.63982
20
-4.72015
11
6.64314
21
-4.72047
0
LINE
8
BLACK
6
CONTINUOUS
10
6.44629
20
-4.72047
11
6.45126
21
-4.72221
0
LINE
8
BLACK
6
CONTINUOUS
10
6.45126
20
-4.72221
11
6.45549
21
-4.72534
0
LINE
8
BLACK
6
CONTINUOUS
10
6.45549
20
-4.72534
11
6.45862
21
-4.72958
0
LINE
8
BLACK
6
CONTINUOUS
10
6.45862
20
-4.72958
11
6.46037
21
-4.73455
0
LINE
8
BLACK
6
CONTINUOUS
10
6.46037
20
-4.73455
11
6.46068
21
-4.73787
0
LINE
8
BLACK
6
CONTINUOUS
10
6.46068
20
-4.73787
11
6.46068
21
-4.7674
0
LINE
8
BLACK
6
CONTINUOUS
10
6.46068
20
-4.7674
11
6.46037
21
-4.77072
0
LINE
8
BLACK
6
CONTINUOUS
10
6.46037
20
-4.77072
11
6.45862
21
-4.77569
0
LINE
8
BLACK
6
CONTINUOUS
10
6.45862
20
-4.77569
11
6.45549
21
-4.77993
0
LINE
8
BLACK
6
CONTINUOUS
10
6.45549
20
-4.77993
11
6.45126
21
-4.78306
0
LINE
8
BLACK
6
CONTINUOUS
10
6.45126
20
-4.78306
11
6.44629
21
-4.7848
0
LINE
8
BLACK
6
CONTINUOUS
10
6.44629
20
-4.7848
11
6.44297
21
-4.78512
0
LINE
8
BLACK
6
CONTINUOUS
10
6.44297
20
-4.78512
11
6.39375
21
-4.78512
0
LINE
8
BLACK
6
CONTINUOUS
10
6.39375
20
-4.78512
11
6.39043
21
-4.7848
0
LINE
8
BLACK
6
CONTINUOUS
10
6.39043
20
-4.7848
11
6.38546
21
-4.78306
0
LINE
8
BLACK
6
CONTINUOUS
10
6.38546
20
-4.78306
11
6.38123
21
-4.77993
0
LINE
8
BLACK
6
CONTINUOUS
10
6.38123
20
-4.77993
11
6.3781
21
-4.77569
0
LINE
8
BLACK
6
CONTINUOUS
10
6.3781
20
-4.77569
11
6.37635
21
-4.77072
0
LINE
8
BLACK
6
CONTINUOUS
10
6.37635
20
-4.77072
11
6.37604
21
-4.7674
0
LINE
8
BLACK
6
CONTINUOUS
10
6.37604
20
-4.7674
11
6.37604
21
-4.73787
0
LINE
8
BLACK
6
CONTINUOUS
10
6.37604
20
-4.73787
11
6.37635
21
-4.73455
0
LINE
8
BLACK
6
CONTINUOUS
10
6.37635
20
-4.73455
11
6.3781
21
-4.72958
0
LINE
8
BLACK
6
CONTINUOUS
10
6.3781
20
-4.72958
11
6.38123
21
-4.72534
0
LINE
8
BLACK
6
CONTINUOUS
10
6.38123
20
-4.72534
11
6.38546
21
-4.72221
0
LINE
8
BLACK
6
CONTINUOUS
10
6.38546
20
-4.72221
11
6.39043
21
-4.72047
0
LINE
8
BLACK
6
CONTINUOUS
10
6.39043
20
-4.72047
11
6.39375
21
-4.72015
0
LINE
8
BLACK
6
CONTINUOUS
10
6.39375
20
-4.72015
11
6.44297
21
-4.72015
0
LINE
8
BLACK
6
CONTINUOUS
10
6.44297
20
-4.72015
11
6.44629
21
-4.72047
0
LINE
8
BLACK
6
CONTINUOUS
10
5.85573
20
-4.72047
11
5.86071
21
-4.72221
0
LINE
8
BLACK
6
CONTINUOUS
10
5.86071
20
-4.72221
11
5.86494
21
-4.72534
0
LINE
8
BLACK
6
CONTINUOUS
10
5.86494
20
-4.72534
11
5.86807
21
-4.72958
0
LINE
8
BLACK
6
CONTINUOUS
10
5.86807
20
-4.72958
11
5.86982
21
-4.73455
0
LINE
8
BLACK
6
CONTINUOUS
10
5.86982
20
-4.73455
11
5.87013
21
-4.73787
0
LINE
8
BLACK
6
CONTINUOUS
10
5.87013
20
-4.73787
11
5.87013
21
-4.7674
0
LINE
8
BLACK
6
CONTINUOUS
10
5.87013
20
-4.7674
11
5.86982
21
-4.77072
0
LINE
8
BLACK
6
CONTINUOUS
10
5.86982
20
-4.77072
11
5.86807
21
-4.77569
0
LINE
8
BLACK
6
CONTINUOUS
10
5.86807
20
-4.77569
11
5.86494
21
-4.77993
0
LINE
8
BLACK
6
CONTINUOUS
10
5.86494
20
-4.77993
11
5.86071
21
-4.78306
0
LINE
8
BLACK
6
CONTINUOUS
10
5.86071
20
-4.78306
11
5.85573
21
-4.7848
0
LINE
8
BLACK
6
CONTINUOUS
10
5.85573
20
-4.7848
11
5.85241
21
-4.78512
0
LINE
8
BLACK
6
CONTINUOUS
10
5.85241
20
-4.78512
11
5.8032
21
-4.78512
0
LINE
8
BLACK
6
CONTINUOUS
10
5.8032
20
-4.78512
11
5.79988
21
-4.7848
0
LINE
8
BLACK
6
CONTINUOUS
10
5.79988
20
-4.7848
11
5.79491
21
-4.78306
0
LINE
8
BLACK
6
CONTINUOUS
10
5.79491
20
-4.78306
11
5.79067
21
-4.77993
0
LINE
8
BLACK
6
CONTINUOUS
10
5.79067
20
-4.77993
11
5.78755
21
-4.77569
0
LINE
8
BLACK
6
CONTINUOUS
10
5.78755
20
-4.77569
11
5.7858
21
-4.77072
0
LINE
8
BLACK
6
CONTINUOUS
10
5.7858
20
-4.77072
11
5.78549
21
-4.7674
0
LINE
8
BLACK
6
CONTINUOUS
10
5.78549
20
-4.7674
11
5.78549
21
-4.73787
0
LINE
8
BLACK
6
CONTINUOUS
10
5.78549
20
-4.73787
11
5.7858
21
-4.73455
0
LINE
8
BLACK
6
CONTINUOUS
10
5.7858
20
-4.73455
11
5.78755
21
-4.72958
0
LINE
8
BLACK
6
CONTINUOUS
10
5.78755
20
-4.72958
11
5.79067
21
-4.72534
0
LINE
8
BLACK
6
CONTINUOUS
10
5.79067
20
-4.72534
11
5.79491
21
-4.72221
0
LINE
8
BLACK
6
CONTINUOUS
10
5.79491
20
-4.72221
11
5.79988
21
-4.72047
0
LINE
8
BLACK
6
CONTINUOUS
10
5.79988
20
-4.72047
11
5.8032
21
-4.72015
0
LINE
8
BLACK
6
CONTINUOUS
10
5.8032
20
-4.72015
11
5.85241
21
-4.72015
0
LINE
8
BLACK
6
CONTINUOUS
10
5.85241
20
-4.72015
11
5.85573
21
-4.72047
0
LINE
8
BLACK
6
CONTINUOUS
10
6.05259
20
-4.72047
11
6.05756
21
-4.72221
0
LINE
8
BLACK
6
CONTINUOUS
10
6.05756
20
-4.72221
11
6.06179
21
-4.72534
0
LINE
8
BLACK
6
CONTINUOUS
10
6.06179
20
-4.72534
11
6.06492
21
-4.72958
0
LINE
8
BLACK
6
CONTINUOUS
10
6.06492
20
-4.72958
11
6.06667
21
-4.73455
0
LINE
8
BLACK
6
CONTINUOUS
10
6.06667
20
-4.73455
11
6.06698
21
-4.73787
0
LINE
8
BLACK
6
CONTINUOUS
10
6.06698
20
-4.73787
11
6.06698
21
-4.7674
0
LINE
8
BLACK
6
CONTINUOUS
10
6.06698
20
-4.7674
11
6.06667
21
-4.77072
0
LINE
8
BLACK
6
CONTINUOUS
10
6.06667
20
-4.77072
11
6.06492
21
-4.77569
0
LINE
8
BLACK
6
CONTINUOUS
10
6.06492
20
-4.77569
11
6.06179
21
-4.77993
0
LINE
8
BLACK
6
CONTINUOUS
10
6.06179
20
-4.77993
11
6.05756
21
-4.78306
0
LINE
8
BLACK
6
CONTINUOUS
10
6.05756
20
-4.78306
11
6.05259
21
-4.7848
0
LINE
8
BLACK
6
CONTINUOUS
10
6.05259
20
-4.7848
11
6.04927
21
-4.78512
0
LINE
8
BLACK
6
CONTINUOUS
10
6.04927
20
-4.78512
11
6.00005
21
-4.78512
0
LINE
8
BLACK
6
CONTINUOUS
10
6.00005
20
-4.78512
11
5.99673
21
-4.7848
0
LINE
8
BLACK
6
CONTINUOUS
10
5.99673
20
-4.7848
11
5.99176
21
-4.78306
0
LINE
8
BLACK
6
CONTINUOUS
10
5.99176
20
-4.78306
11
5.98753
21
-4.77993
0
LINE
8
BLACK
6
CONTINUOUS
10
5.98753
20
-4.77993
11
5.9844
21
-4.77569
0
LINE
8
BLACK
6
CONTINUOUS
10
5.9844
20
-4.77569
11
5.98265
21
-4.77072
0
LINE
8
BLACK
6
CONTINUOUS
10
5.98265
20
-4.77072
11
5.98234
21
-4.7674
0
LINE
8
BLACK
6
CONTINUOUS
10
5.98234
20
-4.7674
11
5.98234
21
-4.73787
0
LINE
8
BLACK
6
CONTINUOUS
10
5.98234
20
-4.73787
11
5.98265
21
-4.73455
0
LINE
8
BLACK
6
CONTINUOUS
10
5.98265
20
-4.73455
11
5.9844
21
-4.72958
0
LINE
8
BLACK
6
CONTINUOUS
10
5.9844
20
-4.72958
11
5.98753
21
-4.72534
0
LINE
8
BLACK
6
CONTINUOUS
10
5.98753
20
-4.72534
11
5.99176
21
-4.72221
0
LINE
8
BLACK
6
CONTINUOUS
10
5.99176
20
-4.72221
11
5.99673
21
-4.72047
0
LINE
8
BLACK
6
CONTINUOUS
10
5.99673
20
-4.72047
11
6.00005
21
-4.72015
0
LINE
8
BLACK
6
CONTINUOUS
10
6.00005
20
-4.72015
11
6.04927
21
-4.72015
0
LINE
8
BLACK
6
CONTINUOUS
10
6.04927
20
-4.72015
11
6.05259
21
-4.72047
0
LINE
8
BLACK
6
CONTINUOUS
10
7.22914
20
-4.72588
11
7.23413
21
-4.72794
0
LINE
8
BLACK
6
CONTINUOUS
10
7.23413
20
-4.72794
11
7.23841
21
-4.73123
0
LINE
8
BLACK
6
CONTINUOUS
10
7.23841
20
-4.73123
11
7.24169
21
-4.73551
0
LINE
8
BLACK
6
CONTINUOUS
10
7.24169
20
-4.73551
11
7.24376
21
-4.74049
0
LINE
8
BLACK
6
CONTINUOUS
10
7.24376
20
-4.74049
11
7.24446
21
-4.74584
0
LINE
8
BLACK
6
CONTINUOUS
10
7.24446
20
-4.74584
11
7.24376
21
-4.75119
0
LINE
8
BLACK
6
CONTINUOUS
10
7.24376
20
-4.75119
11
7.24169
21
-4.75618
0
LINE
8
BLACK
6
CONTINUOUS
10
7.24169
20
-4.75618
11
7.23841
21
-4.76046
0
LINE
8
BLACK
6
CONTINUOUS
10
7.23841
20
-4.76046
11
7.23413
21
-4.76374
0
LINE
8
BLACK
6
CONTINUOUS
10
7.23413
20
-4.76374
11
7.22914
21
-4.76581
0
LINE
8
BLACK
6
CONTINUOUS
10
7.22914
20
-4.76581
11
7.22379
21
-4.76651
0
LINE
8
BLACK
6
CONTINUOUS
10
7.22379
20
-4.76651
11
7.21844
21
-4.76581
0
LINE
8
BLACK
6
CONTINUOUS
10
7.21844
20
-4.76581
11
7.21346
21
-4.76374
0
LINE
8
BLACK
6
CONTINUOUS
10
7.21346
20
-4.76374
11
7.20918
21
-4.76046
0
LINE
8
BLACK
6
CONTINUOUS
10
7.20918
20
-4.76046
11
7.20589
21
-4.75618
0
LINE
8
BLACK
6
CONTINUOUS
10
7.20589
20
-4.75618
11
7.20383
21
-4.75119
0
LINE
8
BLACK
6
CONTINUOUS
10
7.20383
20
-4.75119
11
7.20312
21
-4.74584
0
LINE
8
BLACK
6
CONTINUOUS
10
7.20312
20
-4.74584
11
7.20383
21
-4.74049
0
LINE
8
BLACK
6
CONTINUOUS
10
7.20383
20
-4.74049
11
7.20589
21
-4.73551
0
LINE
8
BLACK
6
CONTINUOUS
10
7.20589
20
-4.73551
11
7.20918
21
-4.73123
0
LINE
8
BLACK
6
CONTINUOUS
10
7.20918
20
-4.73123
11
7.21346
21
-4.72794
0
LINE
8
BLACK
6
CONTINUOUS
10
7.21346
20
-4.72794
11
7.21844
21
-4.72588
0
LINE
8
BLACK
6
CONTINUOUS
10
7.21844
20
-4.72588
11
7.22379
21
-4.72517
0
LINE
8
BLACK
6
CONTINUOUS
10
7.22379
20
-4.72517
11
7.22914
21
-4.72588
0
LINE
8
BLACK
6
CONTINUOUS
10
6.44629
20
-4.61023
11
6.45126
21
-4.61198
0
LINE
8
BLACK
6
CONTINUOUS
10
6.45126
20
-4.61198
11
6.45549
21
-4.61511
0
LINE
8
BLACK
6
CONTINUOUS
10
6.45549
20
-4.61511
11
6.45862
21
-4.61934
0
LINE
8
BLACK
6
CONTINUOUS
10
6.45862
20
-4.61934
11
6.46037
21
-4.62432
0
LINE
8
BLACK
6
CONTINUOUS
10
6.46037
20
-4.62432
11
6.46068
21
-4.62763
0
LINE
8
BLACK
6
CONTINUOUS
10
6.46068
20
-4.62763
11
6.46068
21
-4.65716
0
LINE
8
BLACK
6
CONTINUOUS
10
6.46068
20
-4.65716
11
6.46037
21
-4.66048
0
LINE
8
BLACK
6
CONTINUOUS
10
6.46037
20
-4.66048
11
6.45862
21
-4.66545
0
LINE
8
BLACK
6
CONTINUOUS
10
6.45862
20
-4.66545
11
6.45549
21
-4.66969
0
LINE
8
BLACK
6
CONTINUOUS
10
6.45549
20
-4.66969
11
6.45126
21
-4.67282
0
LINE
8
BLACK
6
CONTINUOUS
10
6.45126
20
-4.67282
11
6.44629
21
-4.67457
0
LINE
8
BLACK
6
CONTINUOUS
10
6.44629
20
-4.67457
11
6.44297
21
-4.67488
0
LINE
8
BLACK
6
CONTINUOUS
10
6.44297
20
-4.67488
11
6.39375
21
-4.67488
0
LINE
8
BLACK
6
CONTINUOUS
10
6.39375
20
-4.67488
11
6.39043
21
-4.67457
0
LINE
8
BLACK
6
CONTINUOUS
10
6.39043
20
-4.67457
11
6.38546
21
-4.67282
0
LINE
8
BLACK
6
CONTINUOUS
10
6.38546
20
-4.67282
11
6.38123
21
-4.66969
0
LINE
8
BLACK
6
CONTINUOUS
10
6.38123
20
-4.66969
11
6.3781
21
-4.66545
0
LINE
8
BLACK
6
CONTINUOUS
10
6.3781
20
-4.66545
11
6.37635
21
-4.66048
0
LINE
8
BLACK
6
CONTINUOUS
10
6.37635
20
-4.66048
11
6.37604
21
-4.65716
0
LINE
8
BLACK
6
CONTINUOUS
10
6.37604
20
-4.65716
11
6.37604
21
-4.62763
0
LINE
8
BLACK
6
CONTINUOUS
10
6.37604
20
-4.62763
11
6.37635
21
-4.62432
0
LINE
8
BLACK
6
CONTINUOUS
10
6.37635
20
-4.62432
11
6.3781
21
-4.61934
0
LINE
8
BLACK
6
CONTINUOUS
10
6.3781
20
-4.61934
11
6.38123
21
-4.61511
0
LINE
8
BLACK
6
CONTINUOUS
10
6.38123
20
-4.61511
11
6.38546
21
-4.61198
0
LINE
8
BLACK
6
CONTINUOUS
10
6.38546
20
-4.61198
11
6.39043
21
-4.61023
0
LINE
8
BLACK
6
CONTINUOUS
10
6.39043
20
-4.61023
11
6.39375
21
-4.60992
0
LINE
8
BLACK
6
CONTINUOUS
10
6.39375
20
-4.60992
11
6.44297
21
-4.60992
0
LINE
8
BLACK
6
CONTINUOUS
10
6.44297
20
-4.60992
11
6.44629
21
-4.61023
0
LINE
8
BLACK
6
CONTINUOUS
10
6.24944
20
-4.61023
11
6.25441
21
-4.61198
0
LINE
8
BLACK
6
CONTINUOUS
10
6.25441
20
-4.61198
11
6.25864
21
-4.61511
0
LINE
8
BLACK
6
CONTINUOUS
10
6.25864
20
-4.61511
11
6.26177
21
-4.61934
0
LINE
8
BLACK
6
CONTINUOUS
10
6.26177
20
-4.61934
11
6.26352
21
-4.62432
0
LINE
8
BLACK
6
CONTINUOUS
10
6.26352
20
-4.62432
11
6.26383
21
-4.62763
0
LINE
8
BLACK
6
CONTINUOUS
10
6.26383
20
-4.62763
11
6.26383
21
-4.65716
0
LINE
8
BLACK
6
CONTINUOUS
10
6.26383
20
-4.65716
11
6.26352
21
-4.66048
0
LINE
8
BLACK
6
CONTINUOUS
10
6.26352
20
-4.66048
11
6.26177
21
-4.66545
0
LINE
8
BLACK
6
CONTINUOUS
10
6.26177
20
-4.66545
11
6.25864
21
-4.66969
0
LINE
8
BLACK
6
CONTINUOUS
10
6.25864
20
-4.66969
11
6.25441
21
-4.67282
0
LINE
8
BLACK
6
CONTINUOUS
10
6.25441
20
-4.67282
11
6.24944
21
-4.67457
0
LINE
8
BLACK
6
CONTINUOUS
10
6.24944
20
-4.67457
11
6.24612
21
-4.67488
0
LINE
8
BLACK
6
CONTINUOUS
10
6.24612
20
-4.67488
11
6.1969
21
-4.67488
0
LINE
8
BLACK
6
CONTINUOUS
10
6.1969
20
-4.67488
11
6.19358
21
-4.67457
0
LINE
8
BLACK
6
CONTINUOUS
10
6.19358
20
-4.67457
11
6.18861
21
-4.67282
0
LINE
8
BLACK
6
CONTINUOUS
10
6.18861
20
-4.67282
11
6.18438
21
-4.66969
0
LINE
8
BLACK
6
CONTINUOUS
10
6.18438
20
-4.66969
11
6.18125
21
-4.66545
0
LINE
8
BLACK
6
CONTINUOUS
10
6.18125
20
-4.66545
11
6.1795
21
-4.66048
0
LINE
8
BLACK
6
CONTINUOUS
10
6.1795
20
-4.66048
11
6.17919
21
-4.65716
0
LINE
8
BLACK
6
CONTINUOUS
10
6.17919
20
-4.65716
11
6.17919
21
-4.62763
0
LINE
8
BLACK
6
CONTINUOUS
10
6.17919
20
-4.62763
11
6.1795
21
-4.62432
0
LINE
8
BLACK
6
CONTINUOUS
10
6.1795
20
-4.62432
11
6.18125
21
-4.61934
0
LINE
8
BLACK
6
CONTINUOUS
10
6.18125
20
-4.61934
11
6.18438
21
-4.61511
0
LINE
8
BLACK
6
CONTINUOUS
10
6.18438
20
-4.61511
11
6.18861
21
-4.61198
0
LINE
8
BLACK
6
CONTINUOUS
10
6.18861
20
-4.61198
11
6.19358
21
-4.61023
0
LINE
8
BLACK
6
CONTINUOUS
10
6.19358
20
-4.61023
11
6.1969
21
-4.60992
0
LINE
8
BLACK
6
CONTINUOUS
10
6.1969
20
-4.60992
11
6.24612
21
-4.60992
0
LINE
8
BLACK
6
CONTINUOUS
10
6.24612
20
-4.60992
11
6.24944
21
-4.61023
0
LINE
8
BLACK
6
CONTINUOUS
10
6.64314
20
-4.61023
11
6.64811
21
-4.61198
0
LINE
8
BLACK
6
CONTINUOUS
10
6.64811
20
-4.61198
11
6.65234
21
-4.61511
0
LINE
8
BLACK
6
CONTINUOUS
10
6.65234
20
-4.61511
11
6.65547
21
-4.61934
0
LINE
8
BLACK
6
CONTINUOUS
10
6.65547
20
-4.61934
11
6.65722
21
-4.62432
0
LINE
8
BLACK
6
CONTINUOUS
10
6.65722
20
-4.62432
11
6.65753
21
-4.62763
0
LINE
8
BLACK
6
CONTINUOUS
10
6.65753
20
-4.62763
11
6.65753
21
-4.65716
0
LINE
8
BLACK
6
CONTINUOUS
10
6.65753
20
-4.65716
11
6.65722
21
-4.66048
0
LINE
8
BLACK
6
CONTINUOUS
10
6.65722
20
-4.66048
11
6.65547
21
-4.66545
0
LINE
8
BLACK
6
CONTINUOUS
10
6.65547
20
-4.66545
11
6.65234
21
-4.66969
0
LINE
8
BLACK
6
CONTINUOUS
10
6.65234
20
-4.66969
11
6.64811
21
-4.67282
0
LINE
8
BLACK
6
CONTINUOUS
10
6.64811
20
-4.67282
11
6.64314
21
-4.67457
0
LINE
8
BLACK
6
CONTINUOUS
10
6.64314
20
-4.67457
11
6.63982
21
-4.67488
0
LINE
8
BLACK
6
CONTINUOUS
10
6.63982
20
-4.67488
11
6.5906
21
-4.67488
0
LINE
8
BLACK
6
CONTINUOUS
10
6.5906
20
-4.67488
11
6.58728
21
-4.67457
0
LINE
8
BLACK
6
CONTINUOUS
10
6.58728
20
-4.67457
11
6.58231
21
-4.67282
0
LINE
8
BLACK
6
CONTINUOUS
10
6.58231
20
-4.67282
11
6.57808
21
-4.66969
0
LINE
8
BLACK
6
CONTINUOUS
10
6.57808
20
-4.66969
11
6.57495
21
-4.66545
0
LINE
8
BLACK
6
CONTINUOUS
10
6.57495
20
-4.66545
11
6.5732
21
-4.66048
0
LINE
8
BLACK
6
CONTINUOUS
10
6.5732
20
-4.66048
11
6.57289
21
-4.65716
0
LINE
8
BLACK
6
CONTINUOUS
10
6.57289
20
-4.65716
11
6.57289
21
-4.62763
0
LINE
8
BLACK
6
CONTINUOUS
10
6.57289
20
-4.62763
11
6.5732
21
-4.62432
0
LINE
8
BLACK
6
CONTINUOUS
10
6.5732
20
-4.62432
11
6.57495
21
-4.61934
0
LINE
8
BLACK
6
CONTINUOUS
10
6.57495
20
-4.61934
11
6.57808
21
-4.61511
0
LINE
8
BLACK
6
CONTINUOUS
10
6.57808
20
-4.61511
11
6.58231
21
-4.61198
0
LINE
8
BLACK
6
CONTINUOUS
10
6.58231
20
-4.61198
11
6.58728
21
-4.61023
0
LINE
8
BLACK
6
CONTINUOUS
10
6.58728
20
-4.61023
11
6.5906
21
-4.60992
0
LINE
8
BLACK
6
CONTINUOUS
10
6.5906
20
-4.60992
11
6.63982
21
-4.60992
0
LINE
8
BLACK
6
CONTINUOUS
10
6.63982
20
-4.60992
11
6.64314
21
-4.61023
0
LINE
8
BLACK
6
CONTINUOUS
10
5.85573
20
-4.61023
11
5.86071
21
-4.61198
0
LINE
8
BLACK
6
CONTINUOUS
10
5.86071
20
-4.61198
11
5.86494
21
-4.61511
0
LINE
8
BLACK
6
CONTINUOUS
10
5.86494
20
-4.61511
11
5.86807
21
-4.61934
0
LINE
8
BLACK
6
CONTINUOUS
10
5.86807
20
-4.61934
11
5.86982
21
-4.62432
0
LINE
8
BLACK
6
CONTINUOUS
10
5.86982
20
-4.62432
11
5.87013
21
-4.62763
0
LINE
8
BLACK
6
CONTINUOUS
10
5.87013
20
-4.62763
11
5.87013
21
-4.65716
0
LINE
8
BLACK
6
CONTINUOUS
10
5.87013
20
-4.65716
11
5.86982
21
-4.66048
0
LINE
8
BLACK
6
CONTINUOUS
10
5.86982
20
-4.66048
11
5.86807
21
-4.66545
0
LINE
8
BLACK
6
CONTINUOUS
10
5.86807
20
-4.66545
11
5.86494
21
-4.66969
0
LINE
8
BLACK
6
CONTINUOUS
10
5.86494
20
-4.66969
11
5.86071
21
-4.67282
0
LINE
8
BLACK
6
CONTINUOUS
10
5.86071
20
-4.67282
11
5.85573
21
-4.67457
0
LINE
8
BLACK
6
CONTINUOUS
10
5.85573
20
-4.67457
11
5.85241
21
-4.67488
0
LINE
8
BLACK
6
CONTINUOUS
10
5.85241
20
-4.67488
11
5.8032
21
-4.67488
0
LINE
8
BLACK
6
CONTINUOUS
10
5.8032
20
-4.67488
11
5.79988
21
-4.67457
0
LINE
8
BLACK
6
CONTINUOUS
10
5.79988
20
-4.67457
11
5.79491
21
-4.67282
0
LINE
8
BLACK
6
CONTINUOUS
10
5.79491
20
-4.67282
11
5.79067
21
-4.66969
0
LINE
8
BLACK
6
CONTINUOUS
10
5.79067
20
-4.66969
11
5.78755
21
-4.66545
0
LINE
8
BLACK
6
CONTINUOUS
10
5.78755
20
-4.66545
11
5.7858
21
-4.66048
0
LINE
8
BLACK
6
CONTINUOUS
10
5.7858
20
-4.66048
11
5.78549
21
-4.65716
0
LINE
8
BLACK
6
CONTINUOUS
10
5.78549
20
-4.65716
11
5.78549
21
-4.62763
0
LINE
8
BLACK
6
CONTINUOUS
10
5.78549
20
-4.62763
11
5.7858
21
-4.62432
0
LINE
8
BLACK
6
CONTINUOUS
10
5.7858
20
-4.62432
11
5.78755
21
-4.61934
0
LINE
8
BLACK
6
CONTINUOUS
10
5.78755
20
-4.61934
11
5.79067
21
-4.61511
0
LINE
8
BLACK
6
CONTINUOUS
10
5.79067
20
-4.61511
11
5.79491
21
-4.61198
0
LINE
8
BLACK
6
CONTINUOUS
10
5.79491
20
-4.61198
11
5.79988
21
-4.61023
0
LINE
8
BLACK
6
CONTINUOUS
10
5.79988
20
-4.61023
11
5.8032
21
-4.60992
0
LINE
8
BLACK
6
CONTINUOUS
10
5.8032
20
-4.60992
11
5.85241
21
-4.60992
0
LINE
8
BLACK
6
CONTINUOUS
10
5.85241
20
-4.60992
11
5.85573
21
-4.61023
0
LINE
8
BLACK
6
CONTINUOUS
10
6.05259
20
-4.61023
11
6.05756
21
-4.61198
0
LINE
8
BLACK
6
CONTINUOUS
10
6.05756
20
-4.61198
11
6.06179
21
-4.61511
0
LINE
8
BLACK
6
CONTINUOUS
10
6.06179
20
-4.61511
11
6.06492
21
-4.61934
0
LINE
8
BLACK
6
CONTINUOUS
10
6.06492
20
-4.61934
11
6.06667
21
-4.62432
0
LINE
8
BLACK
6
CONTINUOUS
10
6.06667
20
-4.62432
11
6.06698
21
-4.62763
0
LINE
8
BLACK
6
CONTINUOUS
10
6.06698
20
-4.62763
11
6.06698
21
-4.65716
0
LINE
8
BLACK
6
CONTINUOUS
10
6.06698
20
-4.65716
11
6.06667
21
-4.66048
0
LINE
8
BLACK
6
CONTINUOUS
10
6.06667
20
-4.66048
11
6.06492
21
-4.66545
0
LINE
8
BLACK
6
CONTINUOUS
10
6.06492
20
-4.66545
11
6.06179
21
-4.66969
0
LINE
8
BLACK
6
CONTINUOUS
10
6.06179
20
-4.66969
11
6.05756
21
-4.67282
0
LINE
8
BLACK
6
CONTINUOUS
10
6.05756
20
-4.67282
11
6.05259
21
-4.67457
0
LINE
8
BLACK
6
CONTINUOUS
10
6.05259
20
-4.67457
11
6.04927
21
-4.67488
0
LINE
8
BLACK
6
CONTINUOUS
10
6.04927
20
-4.67488
11
6.00005
21
-4.67488
0
LINE
8
BLACK
6
CONTINUOUS
10
6.00005
20
-4.67488
11
5.99673
21
-4.67457
0
LINE
8
BLACK
6
CONTINUOUS
10
5.99673
20
-4.67457
11
5.99176
21
-4.67282
0
LINE
8
BLACK
6
CONTINUOUS
10
5.99176
20
-4.67282
11
5.98753
21
-4.66969
0
LINE
8
BLACK
6
CONTINUOUS
10
5.98753
20
-4.66969
11
5.9844
21
-4.66545
0
LINE
8
BLACK
6
CONTINUOUS
10
5.9844
20
-4.66545
11
5.98265
21
-4.66048
0
LINE
8
BLACK
6
CONTINUOUS
10
5.98265
20
-4.66048
11
5.98234
21
-4.65716
0
LINE
8
BLACK
6
CONTINUOUS
10
5.98234
20
-4.65716
11
5.98234
21
-4.62763
0
LINE
8
BLACK
6
CONTINUOUS
10
5.98234
20
-4.62763
11
5.98265
21
-4.62432
0
LINE
8
BLACK
6
CONTINUOUS
10
5.98265
20
-4.62432
11
5.9844
21
-4.61934
0
LINE
8
BLACK
6
CONTINUOUS
10
5.9844
20
-4.61934
11
5.98753
21
-4.61511
0
LINE
8
BLACK
6
CONTINUOUS
10
5.98753
20
-4.61511
11
5.99176
21
-4.61198
0
LINE
8
BLACK
6
CONTINUOUS
10
5.99176
20
-4.61198
11
5.99673
21
-4.61023
0
LINE
8
BLACK
6
CONTINUOUS
10
5.99673
20
-4.61023
11
6.00005
21
-4.60992
0
LINE
8
BLACK
6
CONTINUOUS
10
6.00005
20
-4.60992
11
6.04927
21
-4.60992
0
LINE
8
BLACK
6
CONTINUOUS
10
6.04927
20
-4.60992
11
6.05259
21
-4.61023
0
LINE
8
BLACK
6
CONTINUOUS
10
7.22914
20
-4.49832
11
7.23413
21
-4.50038
0
LINE
8
BLACK
6
CONTINUOUS
10
7.23413
20
-4.50038
11
7.23841
21
-4.50367
0
LINE
8
BLACK
6
CONTINUOUS
10
7.23841
20
-4.50367
11
7.24169
21
-4.50795
0
LINE
8
BLACK
6
CONTINUOUS
10
7.24169
20
-4.50795
11
7.24376
21
-4.51293
0
LINE
8
BLACK
6
CONTINUOUS
10
7.24376
20
-4.51293
11
7.24446
21
-4.51828
0
LINE
8
BLACK
6
CONTINUOUS
10
7.24446
20
-4.51828
11
7.24376
21
-4.52363
0
LINE
8
BLACK
6
CONTINUOUS
10
7.24376
20
-4.52363
11
7.24169
21
-4.52862
0
LINE
8
BLACK
6
CONTINUOUS
10
7.24169
20
-4.52862
11
7.23841
21
-4.5329
0
LINE
8
BLACK
6
CONTINUOUS
10
7.23841
20
-4.5329
11
7.23413
21
-4.53618
0
LINE
8
BLACK
6
CONTINUOUS
10
7.23413
20
-4.53618
11
7.22914
21
-4.53825
0
LINE
8
BLACK
6
CONTINUOUS
10
7.22914
20
-4.53825
11
7.22379
21
-4.53895
0
LINE
8
BLACK
6
CONTINUOUS
10
7.22379
20
-4.53895
11
7.21844
21
-4.53825
0
LINE
8
BLACK
6
CONTINUOUS
10
7.21844
20
-4.53825
11
7.21346
21
-4.53618
0
LINE
8
BLACK
6
CONTINUOUS
10
7.21346
20
-4.53618
11
7.20918
21
-4.5329
0
LINE
8
BLACK
6
CONTINUOUS
10
7.20918
20
-4.5329
11
7.20589
21
-4.52862
0
LINE
8
BLACK
6
CONTINUOUS
10
7.20589
20
-4.52862
11
7.20383
21
-4.52363
0
LINE
8
BLACK
6
CONTINUOUS
10
7.20383
20
-4.52363
11
7.20312
21
-4.51828
0
LINE
8
BLACK
6
CONTINUOUS
10
7.20312
20
-4.51828
11
7.20383
21
-4.51293
0
LINE
8
BLACK
6
CONTINUOUS
10
7.20383
20
-4.51293
11
7.20589
21
-4.50795
0
LINE
8
BLACK
6
CONTINUOUS
10
7.20589
20
-4.50795
11
7.20918
21
-4.50367
0
LINE
8
BLACK
6
CONTINUOUS
10
7.20918
20
-4.50367
11
7.21346
21
-4.50038
0
LINE
8
BLACK
6
CONTINUOUS
10
7.21346
20
-4.50038
11
7.21844
21
-4.49832
0
LINE
8
BLACK
6
CONTINUOUS
10
7.21844
20
-4.49832
11
7.22379
21
-4.49762
0
LINE
8
BLACK
6
CONTINUOUS
10
7.22379
20
-4.49762
11
7.22914
21
-4.49832
0
LINE
8
BLACK
6
CONTINUOUS
10
7.47633
20
-4.38729
11
7.47889
21
-4.389
0
LINE
8
BLACK
6
CONTINUOUS
10
7.47889
20
-4.389
11
7.4806
21
-4.39155
0
LINE
8
BLACK
6
CONTINUOUS
10
7.4806
20
-4.39155
11
7.48119
21
-4.39456
0
LINE
8
BLACK
6
CONTINUOUS
10
7.48119
20
-4.39456
11
7.48119
21
-4.49299
0
LINE
8
BLACK
6
CONTINUOUS
10
7.48119
20
-4.49299
11
7.4806
21
-4.496
0
LINE
8
BLACK
6
CONTINUOUS
10
7.4806
20
-4.496
11
7.47889
21
-4.49856
0
LINE
8
BLACK
6
CONTINUOUS
10
7.47889
20
-4.49856
11
7.47633
21
-4.50026
0
LINE
8
BLACK
6
CONTINUOUS
10
7.47633
20
-4.50026
11
7.47332
21
-4.50086
0
LINE
8
BLACK
6
CONTINUOUS
10
7.47332
20
-4.50086
11
7.27647
21
-4.50086
0
LINE
8
BLACK
6
CONTINUOUS
10
7.27647
20
-4.50086
11
7.27346
21
-4.50026
0
LINE
8
BLACK
6
CONTINUOUS
10
7.27346
20
-4.50026
11
7.2709
21
-4.49856
0
LINE
8
BLACK
6
CONTINUOUS
10
7.2709
20
-4.49856
11
7.2692
21
-4.496
0
LINE
8
BLACK
6
CONTINUOUS
10
7.2692
20
-4.496
11
7.2686
21
-4.49299
0
LINE
8
BLACK
6
CONTINUOUS
10
7.2686
20
-4.49299
11
7.2686
21
-4.39456
0
LINE
8
BLACK
6
CONTINUOUS
10
7.2686
20
-4.39456
11
7.2692
21
-4.39155
0
LINE
8
BLACK
6
CONTINUOUS
10
7.2692
20
-4.39155
11
7.2709
21
-4.389
0
LINE
8
BLACK
6
CONTINUOUS
10
7.2709
20
-4.389
11
7.27346
21
-4.38729
0
LINE
8
BLACK
6
CONTINUOUS
10
7.27346
20
-4.38729
11
7.27647
21
-4.38669
0
LINE
8
BLACK
6
CONTINUOUS
10
7.27647
20
-4.38669
11
7.47332
21
-4.38669
0
LINE
8
BLACK
6
CONTINUOUS
10
7.47332
20
-4.38669
11
7.47633
21
-4.38729
0
LINE
8
BLACK
6
CONTINUOUS
10
6.28736
20
-4.38729
11
6.28991
21
-4.389
0
LINE
8
BLACK
6
CONTINUOUS
10
6.28991
20
-4.389
11
6.29162
21
-4.39155
0
LINE
8
BLACK
6
CONTINUOUS
10
6.29162
20
-4.39155
11
6.29222
21
-4.39456
0
LINE
8
BLACK
6
CONTINUOUS
10
6.29222
20
-4.39456
11
6.29222
21
-4.49299
0
LINE
8
BLACK
6
CONTINUOUS
10
6.29222
20
-4.49299
11
6.29162
21
-4.496
0
LINE
8
BLACK
6
CONTINUOUS
10
6.29162
20
-4.496
11
6.28991
21
-4.49856
0
LINE
8
BLACK
6
CONTINUOUS
10
6.28991
20
-4.49856
11
6.28736
21
-4.50026
0
LINE
8
BLACK
6
CONTINUOUS
10
6.28736
20
-4.50026
11
6.28434
21
-4.50086
0
LINE
8
BLACK
6
CONTINUOUS
10
6.28434
20
-4.50086
11
6.08749
21
-4.50086
0
LINE
8
BLACK
6
CONTINUOUS
10
6.08749
20
-4.50086
11
6.08448
21
-4.50026
0
LINE
8
BLACK
6
CONTINUOUS
10
6.08448
20
-4.50026
11
6.08193
21
-4.49856
0
LINE
8
BLACK
6
CONTINUOUS
10
6.08193
20
-4.49856
11
6.08022
21
-4.496
0
LINE
8
BLACK
6
CONTINUOUS
10
6.08022
20
-4.496
11
6.07962
21
-4.49299
0
LINE
8
BLACK
6
CONTINUOUS
10
6.07962
20
-4.49299
11
6.07962
21
-4.39456
0
LINE
8
BLACK
6
CONTINUOUS
10
6.07962
20
-4.39456
11
6.08022
21
-4.39155
0
LINE
8
BLACK
6
CONTINUOUS
10
6.08022
20
-4.39155
11
6.08193
21
-4.389
0
LINE
8
BLACK
6
CONTINUOUS
10
6.08193
20
-4.389
11
6.08448
21
-4.38729
0
LINE
8
BLACK
6
CONTINUOUS
10
6.08448
20
-4.38729
11
6.08749
21
-4.38669
0
LINE
8
BLACK
6
CONTINUOUS
10
6.08749
20
-4.38669
11
6.28434
21
-4.38669
0
LINE
8
BLACK
6
CONTINUOUS
10
6.28434
20
-4.38669
11
6.28736
21
-4.38729
0
LINE
8
BLACK
6
CONTINUOUS
10
7.22831
20
-4.43366
11
7.23473
21
-4.43523
0
LINE
8
BLACK
6
CONTINUOUS
10
7.23473
20
-4.43523
11
7.24061
21
-4.43824
0
LINE
8
BLACK
6
CONTINUOUS
10
7.24061
20
-4.43824
11
7.24565
21
-4.44252
0
LINE
8
BLACK
6
CONTINUOUS
10
7.24565
20
-4.44252
11
7.24957
21
-4.44784
0
LINE
8
BLACK
6
CONTINUOUS
10
7.24957
20
-4.44784
11
7.25216
21
-4.45393
0
LINE
8
BLACK
6
CONTINUOUS
10
7.25216
20
-4.45393
11
7.25328
21
-4.46044
0
LINE
8
BLACK
6
CONTINUOUS
10
7.25328
20
-4.46044
11
7.25287
21
-4.46704
0
LINE
8
BLACK
6
CONTINUOUS
10
7.25287
20
-4.46704
11
7.25095
21
-4.47337
0
LINE
8
BLACK
6
CONTINUOUS
10
7.25095
20
-4.47337
11
7.24763
21
-4.47908
0
LINE
8
BLACK
6
CONTINUOUS
10
7.24763
20
-4.47908
11
7.24309
21
-4.48388
0
LINE
8
BLACK
6
CONTINUOUS
10
7.24309
20
-4.48388
11
7.23756
21
-4.48751
0
LINE
8
BLACK
6
CONTINUOUS
10
7.23756
20
-4.48751
11
7.23134
21
-4.48976
0
LINE
8
BLACK
6
CONTINUOUS
10
7.23134
20
-4.48976
11
7.22478
21
-4.49053
0
LINE
8
BLACK
6
CONTINUOUS
10
7.22478
20
-4.49053
11
7.18344
21
-4.49053
0
LINE
8
BLACK
6
CONTINUOUS
10
7.18344
20
-4.49053
11
7.17991
21
-4.49031
0
LINE
8
BLACK
6
CONTINUOUS
10
7.17991
20
-4.49031
11
7.17349
21
-4.48874
0
LINE
8
BLACK
6
CONTINUOUS
10
7.17349
20
-4.48874
11
7.1676
21
-4.48573
0
LINE
8
BLACK
6
CONTINUOUS
10
7.1676
20
-4.48573
11
7.16256
21
-4.48145
0
LINE
8
BLACK
6
CONTINUOUS
10
7.16256
20
-4.48145
11
7.15864
21
-4.47613
0
LINE
8
BLACK
6
CONTINUOUS
10
7.15864
20
-4.47613
11
7.15606
21
-4.47004
0
LINE
8
BLACK
6
CONTINUOUS
10
7.15606
20
-4.47004
11
7.15494
21
-4.46353
0
LINE
8
BLACK
6
CONTINUOUS
10
7.15494
20
-4.46353
11
7.15535
21
-4.45693
0
LINE
8
BLACK
6
CONTINUOUS
10
7.15535
20
-4.45693
11
7.15726
21
-4.4506
0
LINE
8
BLACK
6
CONTINUOUS
10
7.15726
20
-4.4506
11
7.16058
21
-4.44489
0
LINE
8
BLACK
6
CONTINUOUS
10
7.16058
20
-4.44489
11
7.16513
21
-4.44009
0
LINE
8
BLACK
6
CONTINUOUS
10
7.16513
20
-4.44009
11
7.17066
21
-4.43646
0
LINE
8
BLACK
6
CONTINUOUS
10
7.17066
20
-4.43646
11
7.17687
21
-4.43421
0
LINE
8
BLACK
6
CONTINUOUS
10
7.17687
20
-4.43421
11
7.18344
21
-4.43344
0
LINE
8
BLACK
6
CONTINUOUS
10
7.18344
20
-4.43344
11
7.22478
21
-4.43344
0
LINE
8
BLACK
6
CONTINUOUS
10
7.22478
20
-4.43344
11
7.22831
21
-4.43366
0
LINE
8
BLACK
6
CONTINUOUS
10
6.08263
20
-4.25993
11
6.08519
21
-4.26163
0
LINE
8
BLACK
6
CONTINUOUS
10
6.08519
20
-4.26163
11
6.08689
21
-4.26419
0
LINE
8
BLACK
6
CONTINUOUS
10
6.08689
20
-4.26419
11
6.08749
21
-4.2672
0
LINE
8
BLACK
6
CONTINUOUS
10
6.08749
20
-4.2672
11
6.08749
21
-4.31445
0
LINE
8
BLACK
6
CONTINUOUS
10
6.08749
20
-4.31445
11
6.08689
21
-4.31746
0
LINE
8
BLACK
6
CONTINUOUS
10
6.08689
20
-4.31746
11
6.08519
21
-4.32001
0
LINE
8
BLACK
6
CONTINUOUS
10
6.08519
20
-4.32001
11
6.08263
21
-4.32172
0
LINE
8
BLACK
6
CONTINUOUS
10
6.08263
20
-4.32172
11
6.07962
21
-4.32232
0
LINE
8
BLACK
6
CONTINUOUS
10
6.07962
20
-4.32232
11
6.01663
21
-4.32232
0
LINE
8
BLACK
6
CONTINUOUS
10
6.01663
20
-4.32232
11
6.01361
21
-4.32172
0
LINE
8
BLACK
6
CONTINUOUS
10
6.01361
20
-4.32172
11
6.01106
21
-4.32001
0
LINE
8
BLACK
6
CONTINUOUS
10
6.01106
20
-4.32001
11
6.00935
21
-4.31746
0
LINE
8
BLACK
6
CONTINUOUS
10
6.00935
20
-4.31746
11
6.00875
21
-4.31445
0
LINE
8
BLACK
6
CONTINUOUS
10
6.00875
20
-4.31445
11
6.00875
21
-4.2672
0
LINE
8
BLACK
6
CONTINUOUS
10
6.00875
20
-4.2672
11
6.00935
21
-4.26419
0
LINE
8
BLACK
6
CONTINUOUS
10
6.00935
20
-4.26419
11
6.01106
21
-4.26163
0
LINE
8
BLACK
6
CONTINUOUS
10
6.01106
20
-4.26163
11
6.01361
21
-4.25993
0
LINE
8
BLACK
6
CONTINUOUS
10
6.01361
20
-4.25993
11
6.01663
21
-4.25933
0
LINE
8
BLACK
6
CONTINUOUS
10
6.01663
20
-4.25933
11
6.07962
21
-4.25933
0
LINE
8
BLACK
6
CONTINUOUS
10
6.07962
20
-4.25933
11
6.08263
21
-4.25993
0
LINE
8
BLACK
6
CONTINUOUS
10
5.86893
20
-4.20171
11
5.87332
21
-4.20395
0
LINE
8
BLACK
6
CONTINUOUS
10
5.87332
20
-4.20395
11
5.87681
21
-4.20743
0
LINE
8
BLACK
6
CONTINUOUS
10
5.87681
20
-4.20743
11
5.87905
21
-4.21182
0
LINE
8
BLACK
6
CONTINUOUS
10
5.87905
20
-4.21182
11
5.87982
21
-4.21669
0
LINE
8
BLACK
6
CONTINUOUS
10
5.87982
20
-4.21669
11
5.87982
21
-4.23834
0
LINE
8
BLACK
6
CONTINUOUS
10
5.87982
20
-4.23834
11
5.87905
21
-4.24321
0
LINE
8
BLACK
6
CONTINUOUS
10
5.87905
20
-4.24321
11
5.87681
21
-4.2476
0
LINE
8
BLACK
6
CONTINUOUS
10
5.87681
20
-4.2476
11
5.87332
21
-4.25108
0
LINE
8
BLACK
6
CONTINUOUS
10
5.87332
20
-4.25108
11
5.86893
21
-4.25332
0
LINE
8
BLACK
6
CONTINUOUS
10
5.86893
20
-4.25332
11
5.86407
21
-4.25409
0
LINE
8
BLACK
6
CONTINUOUS
10
5.86407
20
-4.25409
11
5.84832
21
-4.25409
0
LINE
8
BLACK
6
CONTINUOUS
10
5.84832
20
-4.25409
11
5.84345
21
-4.25332
0
LINE
8
BLACK
6
CONTINUOUS
10
5.84345
20
-4.25332
11
5.83906
21
-4.25108
0
LINE
8
BLACK
6
CONTINUOUS
10
5.83906
20
-4.25108
11
5.83558
21
-4.2476
0
LINE
8
BLACK
6
CONTINUOUS
10
5.83558
20
-4.2476
11
5.83334
21
-4.24321
0
LINE
8
BLACK
6
CONTINUOUS
10
5.83334
20
-4.24321
11
5.83257
21
-4.23834
0
LINE
8
BLACK
6
CONTINUOUS
10
5.83257
20
-4.23834
11
5.83257
21
-4.21669
0
LINE
8
BLACK
6
CONTINUOUS
10
5.83257
20
-4.21669
11
5.83334
21
-4.21182
0
LINE
8
BLACK
6
CONTINUOUS
10
5.83334
20
-4.21182
11
5.83558
21
-4.20743
0
LINE
8
BLACK
6
CONTINUOUS
10
5.83558
20
-4.20743
11
5.83906
21
-4.20395
0
LINE
8
BLACK
6
CONTINUOUS
10
5.83906
20
-4.20395
11
5.84345
21
-4.20171
0
LINE
8
BLACK
6
CONTINUOUS
10
5.84345
20
-4.20171
11
5.84832
21
-4.20094
0
LINE
8
BLACK
6
CONTINUOUS
10
5.84832
20
-4.20094
11
5.86407
21
-4.20094
0
LINE
8
BLACK
6
CONTINUOUS
10
5.86407
20
-4.20094
11
5.86893
21
-4.20171
0
LINE
8
BLACK
6
CONTINUOUS
10
5.9339
20
-4.20171
11
5.93829
21
-4.20395
0
LINE
8
BLACK
6
CONTINUOUS
10
5.93829
20
-4.20395
11
5.94177
21
-4.20743
0
LINE
8
BLACK
6
CONTINUOUS
10
5.94177
20
-4.20743
11
5.94401
21
-4.21182
0
LINE
8
BLACK
6
CONTINUOUS
10
5.94401
20
-4.21182
11
5.94478
21
-4.21669
0
LINE
8
BLACK
6
CONTINUOUS
10
5.94478
20
-4.21669
11
5.94478
21
-4.23834
0
LINE
8
BLACK
6
CONTINUOUS
10
5.94478
20
-4.23834
11
5.94401
21
-4.24321
0
LINE
8
BLACK
6
CONTINUOUS
10
5.94401
20
-4.24321
11
5.94177
21
-4.2476
0
LINE
8
BLACK
6
CONTINUOUS
10
5.94177
20
-4.2476
11
5.93829
21
-4.25108
0
LINE
8
BLACK
6
CONTINUOUS
10
5.93829
20
-4.25108
11
5.9339
21
-4.25332
0
LINE
8
BLACK
6
CONTINUOUS
10
5.9339
20
-4.25332
11
5.92903
21
-4.25409
0
LINE
8
BLACK
6
CONTINUOUS
10
5.92903
20
-4.25409
11
5.91328
21
-4.25409
0
LINE
8
BLACK
6
CONTINUOUS
10
5.91328
20
-4.25409
11
5.90841
21
-4.25332
0
LINE
8
BLACK
6
CONTINUOUS
10
5.90841
20
-4.25332
11
5.90402
21
-4.25108
0
LINE
8
BLACK
6
CONTINUOUS
10
5.90402
20
-4.25108
11
5.90054
21
-4.2476
0
LINE
8
BLACK
6
CONTINUOUS
10
5.90054
20
-4.2476
11
5.8983
21
-4.24321
0
LINE
8
BLACK
6
CONTINUOUS
10
5.8983
20
-4.24321
11
5.89753
21
-4.23834
0
LINE
8
BLACK
6
CONTINUOUS
10
5.89753
20
-4.23834
11
5.89753
21
-4.21669
0
LINE
8
BLACK
6
CONTINUOUS
10
5.89753
20
-4.21669
11
5.8983
21
-4.21182
0
LINE
8
BLACK
6
CONTINUOUS
10
5.8983
20
-4.21182
11
5.90054
21
-4.20743
0
LINE
8
BLACK
6
CONTINUOUS
10
5.90054
20
-4.20743
11
5.90402
21
-4.20395
0
LINE
8
BLACK
6
CONTINUOUS
10
5.90402
20
-4.20395
11
5.90841
21
-4.20171
0
LINE
8
BLACK
6
CONTINUOUS
10
5.90841
20
-4.20171
11
5.91328
21
-4.20094
0
LINE
8
BLACK
6
CONTINUOUS
10
5.91328
20
-4.20094
11
5.92903
21
-4.20094
0
LINE
8
BLACK
6
CONTINUOUS
10
5.92903
20
-4.20094
11
5.9339
21
-4.20171
0
LINE
8
BLACK
6
CONTINUOUS
10
6.08263
20
-4.18906
11
6.08519
21
-4.19077
0
LINE
8
BLACK
6
CONTINUOUS
10
6.08519
20
-4.19077
11
6.08689
21
-4.19332
0
LINE
8
BLACK
6
CONTINUOUS
10
6.08689
20
-4.19332
11
6.08749
21
-4.19634
0
LINE
8
BLACK
6
CONTINUOUS
10
6.08749
20
-4.19634
11
6.08749
21
-4.24358
0
LINE
8
BLACK
6
CONTINUOUS
10
6.08749
20
-4.24358
11
6.08689
21
-4.24659
0
LINE
8
BLACK
6
CONTINUOUS
10
6.08689
20
-4.24659
11
6.08519
21
-4.24915
0
LINE
8
BLACK
6
CONTINUOUS
10
6.08519
20
-4.24915
11
6.08263
21
-4.25085
0
LINE
8
BLACK
6
CONTINUOUS
10
6.08263
20
-4.25085
11
6.07962
21
-4.25145
0
LINE
8
BLACK
6
CONTINUOUS
10
6.07962
20
-4.25145
11
6.01663
21
-4.25145
0
LINE
8
BLACK
6
CONTINUOUS
10
6.01663
20
-4.25145
11
6.01361
21
-4.25085
0
LINE
8
BLACK
6
CONTINUOUS
10
6.01361
20
-4.25085
11
6.01106
21
-4.24915
0
LINE
8
BLACK
6
CONTINUOUS
10
6.01106
20
-4.24915
11
6.00935
21
-4.24659
0
LINE
8
BLACK
6
CONTINUOUS
10
6.00935
20
-4.24659
11
6.00875
21
-4.24358
0
LINE
8
BLACK
6
CONTINUOUS
10
6.00875
20
-4.24358
11
6.00875
21
-4.19634
0
LINE
8
BLACK
6
CONTINUOUS
10
6.00875
20
-4.19634
11
6.00935
21
-4.19332
0
LINE
8
BLACK
6
CONTINUOUS
10
6.00935
20
-4.19332
11
6.01106
21
-4.19077
0
LINE
8
BLACK
6
CONTINUOUS
10
6.01106
20
-4.19077
11
6.01361
21
-4.18906
0
LINE
8
BLACK
6
CONTINUOUS
10
6.01361
20
-4.18906
11
6.01663
21
-4.18846
0
LINE
8
BLACK
6
CONTINUOUS
10
6.01663
20
-4.18846
11
6.07962
21
-4.18846
0
LINE
8
BLACK
6
CONTINUOUS
10
6.07962
20
-4.18846
11
6.08263
21
-4.18906
0
LINE
8
BLACK
6
CONTINUOUS
10
5.55649
20
-4.16284
11
5.55905
21
-4.16455
0
LINE
8
BLACK
6
CONTINUOUS
10
5.55905
20
-4.16455
11
5.56075
21
-4.1671
0
LINE
8
BLACK
6
CONTINUOUS
10
5.56075
20
-4.1671
11
5.56135
21
-4.17012
0
LINE
8
BLACK
6
CONTINUOUS
10
5.56135
20
-4.17012
11
5.56135
21
-4.23012
0
LINE
8
BLACK
6
CONTINUOUS
10
5.56135
20
-4.23012
11
5.56075
21
-4.23313
0
LINE
8
BLACK
6
CONTINUOUS
10
5.56075
20
-4.23313
11
5.55905
21
-4.23568
0
LINE
8
BLACK
6
CONTINUOUS
10
5.55905
20
-4.23568
11
5.55649
21
-4.23739
0
LINE
8
BLACK
6
CONTINUOUS
10
5.55649
20
-4.23739
11
5.55348
21
-4.23799
0
LINE
8
BLACK
6
CONTINUOUS
10
5.55348
20
-4.23799
11
5.49348
21
-4.23799
0
LINE
8
BLACK
6
CONTINUOUS
10
5.49348
20
-4.23799
11
5.49046
21
-4.23739
0
LINE
8
BLACK
6
CONTINUOUS
10
5.49046
20
-4.23739
11
5.48791
21
-4.23568
0
LINE
8
BLACK
6
CONTINUOUS
10
5.48791
20
-4.23568
11
5.4862
21
-4.23313
0
LINE
8
BLACK
6
CONTINUOUS
10
5.4862
20
-4.23313
11
5.4856
21
-4.23012
0
LINE
8
BLACK
6
CONTINUOUS
10
5.4856
20
-4.23012
11
5.4856
21
-4.17012
0
LINE
8
BLACK
6
CONTINUOUS
10
5.4856
20
-4.17012
11
5.4862
21
-4.1671
0
LINE
8
BLACK
6
CONTINUOUS
10
5.4862
20
-4.1671
11
5.48791
21
-4.16455
0
LINE
8
BLACK
6
CONTINUOUS
10
5.48791
20
-4.16455
11
5.49046
21
-4.16284
0
LINE
8
BLACK
6
CONTINUOUS
10
5.49046
20
-4.16284
11
5.49348
21
-4.16224
0
LINE
8
BLACK
6
CONTINUOUS
10
5.49348
20
-4.16224
11
5.55348
21
-4.16224
0
LINE
8
BLACK
6
CONTINUOUS
10
5.55348
20
-4.16224
11
5.55649
21
-4.16284
0
LINE
8
BLACK
6
CONTINUOUS
10
5.45649
20
-4.16284
11
5.45905
21
-4.16455
0
LINE
8
BLACK
6
CONTINUOUS
10
5.45905
20
-4.16455
11
5.46075
21
-4.1671
0
LINE
8
BLACK
6
CONTINUOUS
10
5.46075
20
-4.1671
11
5.46135
21
-4.17012
0
LINE
8
BLACK
6
CONTINUOUS
10
5.46135
20
-4.17012
11
5.46135
21
-4.23012
0
LINE
8
BLACK
6
CONTINUOUS
10
5.46135
20
-4.23012
11
5.46075
21
-4.23313
0
LINE
8
BLACK
6
CONTINUOUS
10
5.46075
20
-4.23313
11
5.45905
21
-4.23568
0
LINE
8
BLACK
6
CONTINUOUS
10
5.45905
20
-4.23568
11
5.45649
21
-4.23739
0
LINE
8
BLACK
6
CONTINUOUS
10
5.45649
20
-4.23739
11
5.45348
21
-4.23799
0
LINE
8
BLACK
6
CONTINUOUS
10
5.45348
20
-4.23799
11
5.39348
21
-4.23799
0
LINE
8
BLACK
6
CONTINUOUS
10
5.39348
20
-4.23799
11
5.39046
21
-4.23739
0
LINE
8
BLACK
6
CONTINUOUS
10
5.39046
20
-4.23739
11
5.38791
21
-4.23568
0
LINE
8
BLACK
6
CONTINUOUS
10
5.38791
20
-4.23568
11
5.3862
21
-4.23313
0
LINE
8
BLACK
6
CONTINUOUS
10
5.3862
20
-4.23313
11
5.3856
21
-4.23012
0
LINE
8
BLACK
6
CONTINUOUS
10
5.3856
20
-4.23012
11
5.3856
21
-4.17012
0
LINE
8
BLACK
6
CONTINUOUS
10
5.3856
20
-4.17012
11
5.3862
21
-4.1671
0
LINE
8
BLACK
6
CONTINUOUS
10
5.3862
20
-4.1671
11
5.38791
21
-4.16455
0
LINE
8
BLACK
6
CONTINUOUS
10
5.38791
20
-4.16455
11
5.39046
21
-4.16284
0
LINE
8
BLACK
6
CONTINUOUS
10
5.39046
20
-4.16284
11
5.39348
21
-4.16224
0
LINE
8
BLACK
6
CONTINUOUS
10
5.39348
20
-4.16224
11
5.45348
21
-4.16224
0
LINE
8
BLACK
6
CONTINUOUS
10
5.45348
20
-4.16224
11
5.45649
21
-4.16284
0
LINE
8
BLACK
6
CONTINUOUS
10
6.08263
20
-4.09339
11
6.08519
21
-4.0951
0
LINE
8
BLACK
6
CONTINUOUS
10
6.08519
20
-4.0951
11
6.08689
21
-4.09765
0
LINE
8
BLACK
6
CONTINUOUS
10
6.08689
20
-4.09765
11
6.08749
21
-4.10067
0
LINE
8
BLACK
6
CONTINUOUS
10
6.08749
20
-4.10067
11
6.08749
21
-4.14791
0
LINE
8
BLACK
6
CONTINUOUS
10
6.08749
20
-4.14791
11
6.08689
21
-4.15092
0
LINE
8
BLACK
6
CONTINUOUS
10
6.08689
20
-4.15092
11
6.08519
21
-4.15348
0
LINE
8
BLACK
6
CONTINUOUS
10
6.08519
20
-4.15348
11
6.08263
21
-4.15519
0
LINE
8
BLACK
6
CONTINUOUS
10
6.08263
20
-4.15519
11
6.07962
21
-4.15578
0
LINE
8
BLACK
6
CONTINUOUS
10
6.07962
20
-4.15578
11
6.01663
21
-4.15578
0
LINE
8
BLACK
6
CONTINUOUS
10
6.01663
20
-4.15578
11
6.01361
21
-4.15519
0
LINE
8
BLACK
6
CONTINUOUS
10
6.01361
20
-4.15519
11
6.01106
21
-4.15348
0
LINE
8
BLACK
6
CONTINUOUS
10
6.01106
20
-4.15348
11
6.00935
21
-4.15092
0
LINE
8
BLACK
6
CONTINUOUS
10
6.00935
20
-4.15092
11
6.00875
21
-4.14791
0
LINE
8
BLACK
6
CONTINUOUS
10
6.00875
20
-4.14791
11
6.00875
21
-4.10067
0
LINE
8
BLACK
6
CONTINUOUS
10
6.00875
20
-4.10067
11
6.00935
21
-4.09765
0
LINE
8
BLACK
6
CONTINUOUS
10
6.00935
20
-4.09765
11
6.01106
21
-4.0951
0
LINE
8
BLACK
6
CONTINUOUS
10
6.01106
20
-4.0951
11
6.01361
21
-4.09339
0
LINE
8
BLACK
6
CONTINUOUS
10
6.01361
20
-4.09339
11
6.01663
21
-4.09279
0
LINE
8
BLACK
6
CONTINUOUS
10
6.01663
20
-4.09279
11
6.07962
21
-4.09279
0
LINE
8
BLACK
6
CONTINUOUS
10
6.07962
20
-4.09279
11
6.08263
21
-4.09339
0
LINE
8
BLACK
6
CONTINUOUS
10
5.55649
20
-4.06284
11
5.55905
21
-4.06455
0
LINE
8
BLACK
6
CONTINUOUS
10
5.55905
20
-4.06455
11
5.56075
21
-4.0671
0
LINE
8
BLACK
6
CONTINUOUS
10
5.56075
20
-4.0671
11
5.56135
21
-4.07012
0
LINE
8
BLACK
6
CONTINUOUS
10
5.56135
20
-4.07012
11
5.56135
21
-4.13012
0
LINE
8
BLACK
6
CONTINUOUS
10
5.56135
20
-4.13012
11
5.56075
21
-4.13313
0
LINE
8
BLACK
6
CONTINUOUS
10
5.56075
20
-4.13313
11
5.55905
21
-4.13568
0
LINE
8
BLACK
6
CONTINUOUS
10
5.55905
20
-4.13568
11
5.55649
21
-4.13739
0
LINE
8
BLACK
6
CONTINUOUS
10
5.55649
20
-4.13739
11
5.55348
21
-4.13799
0
LINE
8
BLACK
6
CONTINUOUS
10
5.55348
20
-4.13799
11
5.49348
21
-4.13799
0
LINE
8
BLACK
6
CONTINUOUS
10
5.49348
20
-4.13799
11
5.49046
21
-4.13739
0
LINE
8
BLACK
6
CONTINUOUS
10
5.49046
20
-4.13739
11
5.48791
21
-4.13568
0
LINE
8
BLACK
6
CONTINUOUS
10
5.48791
20
-4.13568
11
5.4862
21
-4.13313
0
LINE
8
BLACK
6
CONTINUOUS
10
5.4862
20
-4.13313
11
5.4856
21
-4.13012
0
LINE
8
BLACK
6
CONTINUOUS
10
5.4856
20
-4.13012
11
5.4856
21
-4.07012
0
LINE
8
BLACK
6
CONTINUOUS
10
5.4856
20
-4.07012
11
5.4862
21
-4.0671
0
LINE
8
BLACK
6
CONTINUOUS
10
5.4862
20
-4.0671
11
5.48791
21
-4.06455
0
LINE
8
BLACK
6
CONTINUOUS
10
5.48791
20
-4.06455
11
5.49046
21
-4.06284
0
LINE
8
BLACK
6
CONTINUOUS
10
5.49046
20
-4.06284
11
5.49348
21
-4.06224
0
LINE
8
BLACK
6
CONTINUOUS
10
5.49348
20
-4.06224
11
5.55348
21
-4.06224
0
LINE
8
BLACK
6
CONTINUOUS
10
5.55348
20
-4.06224
11
5.55649
21
-4.06284
0
LINE
8
BLACK
6
CONTINUOUS
10
5.45649
20
-4.06284
11
5.45905
21
-4.06455
0
LINE
8
BLACK
6
CONTINUOUS
10
5.45905
20
-4.06455
11
5.46075
21
-4.0671
0
LINE
8
BLACK
6
CONTINUOUS
10
5.46075
20
-4.0671
11
5.46135
21
-4.07012
0
LINE
8
BLACK
6
CONTINUOUS
10
5.46135
20
-4.07012
11
5.46135
21
-4.13012
0
LINE
8
BLACK
6
CONTINUOUS
10
5.46135
20
-4.13012
11
5.46075
21
-4.13313
0
LINE
8
BLACK
6
CONTINUOUS
10
5.46075
20
-4.13313
11
5.45905
21
-4.13568
0
LINE
8
BLACK
6
CONTINUOUS
10
5.45905
20
-4.13568
11
5.45649
21
-4.13739
0
LINE
8
BLACK
6
CONTINUOUS
10
5.45649
20
-4.13739
11
5.45348
21
-4.13799
0
LINE
8
BLACK
6
CONTINUOUS
10
5.45348
20
-4.13799
11
5.39348
21
-4.13799
0
LINE
8
BLACK
6
CONTINUOUS
10
5.39348
20
-4.13799
11
5.39046
21
-4.13739
0
LINE
8
BLACK
6
CONTINUOUS
10
5.39046
20
-4.13739
11
5.38791
21
-4.13568
0
LINE
8
BLACK
6
CONTINUOUS
10
5.38791
20
-4.13568
11
5.3862
21
-4.13313
0
LINE
8
BLACK
6
CONTINUOUS
10
5.3862
20
-4.13313
11
5.3856
21
-4.13012
0
LINE
8
BLACK
6
CONTINUOUS
10
5.3856
20
-4.13012
11
5.3856
21
-4.07012
0
LINE
8
BLACK
6
CONTINUOUS
10
5.3856
20
-4.07012
11
5.3862
21
-4.0671
0
LINE
8
BLACK
6
CONTINUOUS
10
5.3862
20
-4.0671
11
5.38791
21
-4.06455
0
LINE
8
BLACK
6
CONTINUOUS
10
5.38791
20
-4.06455
11
5.39046
21
-4.06284
0
LINE
8
BLACK
6
CONTINUOUS
10
5.39046
20
-4.06284
11
5.39348
21
-4.06224
0
LINE
8
BLACK
6
CONTINUOUS
10
5.39348
20
-4.06224
11
5.45348
21
-4.06224
0
LINE
8
BLACK
6
CONTINUOUS
10
5.45348
20
-4.06224
11
5.45649
21
-4.06284
0
LINE
8
BLACK
6
CONTINUOUS
10
5.9339
20
-4.03171
11
5.93829
21
-4.03395
0
LINE
8
BLACK
6
CONTINUOUS
10
5.93829
20
-4.03395
11
5.94177
21
-4.03743
0
LINE
8
BLACK
6
CONTINUOUS
10
5.94177
20
-4.03743
11
5.94401
21
-4.04182
0
LINE
8
BLACK
6
CONTINUOUS
10
5.94401
20
-4.04182
11
5.94478
21
-4.04669
0
LINE
8
BLACK
6
CONTINUOUS
10
5.94478
20
-4.04669
11
5.94478
21
-4.06834
0
LINE
8
BLACK
6
CONTINUOUS
10
5.94478
20
-4.06834
11
5.94401
21
-4.07321
0
LINE
8
BLACK
6
CONTINUOUS
10
5.94401
20
-4.07321
11
5.94177
21
-4.0776
0
LINE
8
BLACK
6
CONTINUOUS
10
5.94177
20
-4.0776
11
5.93829
21
-4.08108
0
LINE
8
BLACK
6
CONTINUOUS
10
5.93829
20
-4.08108
11
5.9339
21
-4.08332
0
LINE
8
BLACK
6
CONTINUOUS
10
5.9339
20
-4.08332
11
5.92903
21
-4.08409
0
LINE
8
BLACK
6
CONTINUOUS
10
5.92903
20
-4.08409
11
5.91328
21
-4.08409
0
LINE
8
BLACK
6
CONTINUOUS
10
5.91328
20
-4.08409
11
5.90841
21
-4.08332
0
LINE
8
BLACK
6
CONTINUOUS
10
5.90841
20
-4.08332
11
5.90402
21
-4.08108
0
LINE
8
BLACK
6
CONTINUOUS
10
5.90402
20
-4.08108
11
5.90054
21
-4.0776
0
LINE
8
BLACK
6
CONTINUOUS
10
5.90054
20
-4.0776
11
5.8983
21
-4.07321
0
LINE
8
BLACK
6
CONTINUOUS
10
5.8983
20
-4.07321
11
5.89753
21
-4.06834
0
LINE
8
BLACK
6
CONTINUOUS
10
5.89753
20
-4.06834
11
5.89753
21
-4.04669
0
LINE
8
BLACK
6
CONTINUOUS
10
5.89753
20
-4.04669
11
5.8983
21
-4.04182
0
LINE
8
BLACK
6
CONTINUOUS
10
5.8983
20
-4.04182
11
5.90054
21
-4.03743
0
LINE
8
BLACK
6
CONTINUOUS
10
5.90054
20
-4.03743
11
5.90402
21
-4.03395
0
LINE
8
BLACK
6
CONTINUOUS
10
5.90402
20
-4.03395
11
5.90841
21
-4.03171
0
LINE
8
BLACK
6
CONTINUOUS
10
5.90841
20
-4.03171
11
5.91328
21
-4.03094
0
LINE
8
BLACK
6
CONTINUOUS
10
5.91328
20
-4.03094
11
5.92903
21
-4.03094
0
LINE
8
BLACK
6
CONTINUOUS
10
5.92903
20
-4.03094
11
5.9339
21
-4.03171
0
LINE
8
BLACK
6
CONTINUOUS
10
5.86893
20
-4.03171
11
5.87332
21
-4.03395
0
LINE
8
BLACK
6
CONTINUOUS
10
5.87332
20
-4.03395
11
5.87681
21
-4.03743
0
LINE
8
BLACK
6
CONTINUOUS
10
5.87681
20
-4.03743
11
5.87905
21
-4.04182
0
LINE
8
BLACK
6
CONTINUOUS
10
5.87905
20
-4.04182
11
5.87982
21
-4.04669
0
LINE
8
BLACK
6
CONTINUOUS
10
5.87982
20
-4.04669
11
5.87982
21
-4.06834
0
LINE
8
BLACK
6
CONTINUOUS
10
5.87982
20
-4.06834
11
5.87905
21
-4.07321
0
LINE
8
BLACK
6
CONTINUOUS
10
5.87905
20
-4.07321
11
5.87681
21
-4.0776
0
LINE
8
BLACK
6
CONTINUOUS
10
5.87681
20
-4.0776
11
5.87332
21
-4.08108
0
LINE
8
BLACK
6
CONTINUOUS
10
5.87332
20
-4.08108
11
5.86893
21
-4.08332
0
LINE
8
BLACK
6
CONTINUOUS
10
5.86893
20
-4.08332
11
5.86407
21
-4.08409
0
LINE
8
BLACK
6
CONTINUOUS
10
5.86407
20
-4.08409
11
5.84832
21
-4.08409
0
LINE
8
BLACK
6
CONTINUOUS
10
5.84832
20
-4.08409
11
5.84345
21
-4.08332
0
LINE
8
BLACK
6
CONTINUOUS
10
5.84345
20
-4.08332
11
5.83906
21
-4.08108
0
LINE
8
BLACK
6
CONTINUOUS
10
5.83906
20
-4.08108
11
5.83558
21
-4.0776
0
LINE
8
BLACK
6
CONTINUOUS
10
5.83558
20
-4.0776
11
5.83334
21
-4.07321
0
LINE
8
BLACK
6
CONTINUOUS
10
5.83334
20
-4.07321
11
5.83257
21
-4.06834
0
LINE
8
BLACK
6
CONTINUOUS
10
5.83257
20
-4.06834
11
5.83257
21
-4.04669
0
LINE
8
BLACK
6
CONTINUOUS
10
5.83257
20
-4.04669
11
5.83334
21
-4.04182
0
LINE
8
BLACK
6
CONTINUOUS
10
5.83334
20
-4.04182
11
5.83558
21
-4.03743
0
LINE
8
BLACK
6
CONTINUOUS
10
5.83558
20
-4.03743
11
5.83906
21
-4.03395
0
LINE
8
BLACK
6
CONTINUOUS
10
5.83906
20
-4.03395
11
5.84345
21
-4.03171
0
LINE
8
BLACK
6
CONTINUOUS
10
5.84345
20
-4.03171
11
5.84832
21
-4.03094
0
LINE
8
BLACK
6
CONTINUOUS
10
5.84832
20
-4.03094
11
5.86407
21
-4.03094
0
LINE
8
BLACK
6
CONTINUOUS
10
5.86407
20
-4.03094
11
5.86893
21
-4.03171
0
LINE
8
BLACK
6
CONTINUOUS
10
6.08263
20
-3.99497
11
6.08519
21
-3.99667
0
LINE
8
BLACK
6
CONTINUOUS
10
6.08519
20
-3.99667
11
6.08689
21
-3.99923
0
LINE
8
BLACK
6
CONTINUOUS
10
6.08689
20
-3.99923
11
6.08749
21
-4.00224
0
LINE
8
BLACK
6
CONTINUOUS
10
6.08749
20
-4.00224
11
6.08749
21
-4.04949
0
LINE
8
BLACK
6
CONTINUOUS
10
6.08749
20
-4.04949
11
6.08689
21
-4.0525
0
LINE
8
BLACK
6
CONTINUOUS
10
6.08689
20
-4.0525
11
6.08519
21
-4.05505
0
LINE
8
BLACK
6
CONTINUOUS
10
6.08519
20
-4.05505
11
6.08263
21
-4.05676
0
LINE
8
BLACK
6
CONTINUOUS
10
6.08263
20
-4.05676
11
6.07962
21
-4.05736
0
LINE
8
BLACK
6
CONTINUOUS
10
6.07962
20
-4.05736
11
6.01663
21
-4.05736
0
LINE
8
BLACK
6
CONTINUOUS
10
6.01663
20
-4.05736
11
6.01361
21
-4.05676
0
LINE
8
BLACK
6
CONTINUOUS
10
6.01361
20
-4.05676
11
6.01106
21
-4.05505
0
LINE
8
BLACK
6
CONTINUOUS
10
6.01106
20
-4.05505
11
6.00935
21
-4.0525
0
LINE
8
BLACK
6
CONTINUOUS
10
6.00935
20
-4.0525
11
6.00875
21
-4.04949
0
LINE
8
BLACK
6
CONTINUOUS
10
6.00875
20
-4.04949
11
6.00875
21
-4.00224
0
LINE
8
BLACK
6
CONTINUOUS
10
6.00875
20
-4.00224
11
6.00935
21
-3.99923
0
LINE
8
BLACK
6
CONTINUOUS
10
6.00935
20
-3.99923
11
6.01106
21
-3.99667
0
LINE
8
BLACK
6
CONTINUOUS
10
6.01106
20
-3.99667
11
6.01361
21
-3.99497
0
LINE
8
BLACK
6
CONTINUOUS
10
6.01361
20
-3.99497
11
6.01663
21
-3.99437
0
LINE
8
BLACK
6
CONTINUOUS
10
6.01663
20
-3.99437
11
6.07962
21
-3.99437
0
LINE
8
BLACK
6
CONTINUOUS
10
6.07962
20
-3.99437
11
6.08263
21
-3.99497
0
LINE
8
BLACK
6
CONTINUOUS
10
5.55649
20
-3.96284
11
5.55905
21
-3.96455
0
LINE
8
BLACK
6
CONTINUOUS
10
5.55905
20
-3.96455
11
5.56075
21
-3.9671
0
LINE
8
BLACK
6
CONTINUOUS
10
5.56075
20
-3.9671
11
5.56135
21
-3.97012
0
LINE
8
BLACK
6
CONTINUOUS
10
5.56135
20
-3.97012
11
5.56135
21
-4.03012
0
LINE
8
BLACK
6
CONTINUOUS
10
5.56135
20
-4.03012
11
5.56075
21
-4.03313
0
LINE
8
BLACK
6
CONTINUOUS
10
5.56075
20
-4.03313
11
5.55905
21
-4.03568
0
LINE
8
BLACK
6
CONTINUOUS
10
5.55905
20
-4.03568
11
5.55649
21
-4.03739
0
LINE
8
BLACK
6
CONTINUOUS
10
5.55649
20
-4.03739
11
5.55348
21
-4.03799
0
LINE
8
BLACK
6
CONTINUOUS
10
5.55348
20
-4.03799
11
5.49348
21
-4.03799
0
LINE
8
BLACK
6
CONTINUOUS
10
5.49348
20
-4.03799
11
5.49046
21
-4.03739
0
LINE
8
BLACK
6
CONTINUOUS
10
5.49046
20
-4.03739
11
5.48791
21
-4.03568
0
LINE
8
BLACK
6
CONTINUOUS
10
5.48791
20
-4.03568
11
5.4862
21
-4.03313
0
LINE
8
BLACK
6
CONTINUOUS
10
5.4862
20
-4.03313
11
5.4856
21
-4.03012
0
LINE
8
BLACK
6
CONTINUOUS
10
5.4856
20
-4.03012
11
5.4856
21
-3.97012
0
LINE
8
BLACK
6
CONTINUOUS
10
5.4856
20
-3.97012
11
5.4862
21
-3.9671
0
LINE
8
BLACK
6
CONTINUOUS
10
5.4862
20
-3.9671
11
5.48791
21
-3.96455
0
LINE
8
BLACK
6
CONTINUOUS
10
5.48791
20
-3.96455
11
5.49046
21
-3.96284
0
LINE
8
BLACK
6
CONTINUOUS
10
5.49046
20
-3.96284
11
5.49348
21
-3.96224
0
LINE
8
BLACK
6
CONTINUOUS
10
5.49348
20
-3.96224
11
5.55348
21
-3.96224
0
LINE
8
BLACK
6
CONTINUOUS
10
5.55348
20
-3.96224
11
5.55649
21
-3.96284
0
LINE
8
BLACK
6
CONTINUOUS
10
5.45649
20
-3.96284
11
5.45905
21
-3.96455
0
LINE
8
BLACK
6
CONTINUOUS
10
5.45905
20
-3.96455
11
5.46075
21
-3.9671
0
LINE
8
BLACK
6
CONTINUOUS
10
5.46075
20
-3.9671
11
5.46135
21
-3.97012
0
LINE
8
BLACK
6
CONTINUOUS
10
5.46135
20
-3.97012
11
5.46135
21
-4.03012
0
LINE
8
BLACK
6
CONTINUOUS
10
5.46135
20
-4.03012
11
5.46075
21
-4.03313
0
LINE
8
BLACK
6
CONTINUOUS
10
5.46075
20
-4.03313
11
5.45905
21
-4.03568
0
LINE
8
BLACK
6
CONTINUOUS
10
5.45905
20
-4.03568
11
5.45649
21
-4.03739
0
LINE
8
BLACK
6
CONTINUOUS
10
5.45649
20
-4.03739
11
5.45348
21
-4.03799
0
LINE
8
BLACK
6
CONTINUOUS
10
5.45348
20
-4.03799
11
5.39348
21
-4.03799
0
LINE
8
BLACK
6
CONTINUOUS
10
5.39348
20
-4.03799
11
5.39046
21
-4.03739
0
LINE
8
BLACK
6
CONTINUOUS
10
5.39046
20
-4.03739
11
5.38791
21
-4.03568
0
LINE
8
BLACK
6
CONTINUOUS
10
5.38791
20
-4.03568
11
5.3862
21
-4.03313
0
LINE
8
BLACK
6
CONTINUOUS
10
5.3862
20
-4.03313
11
5.3856
21
-4.03012
0
LINE
8
BLACK
6
CONTINUOUS
10
5.3856
20
-4.03012
11
5.3856
21
-3.97012
0
LINE
8
BLACK
6
CONTINUOUS
10
5.3856
20
-3.97012
11
5.3862
21
-3.9671
0
LINE
8
BLACK
6
CONTINUOUS
10
5.3862
20
-3.9671
11
5.38791
21
-3.96455
0
LINE
8
BLACK
6
CONTINUOUS
10
5.38791
20
-3.96455
11
5.39046
21
-3.96284
0
LINE
8
BLACK
6
CONTINUOUS
10
5.39046
20
-3.96284
11
5.39348
21
-3.96224
0
LINE
8
BLACK
6
CONTINUOUS
10
5.39348
20
-3.96224
11
5.45348
21
-3.96224
0
LINE
8
BLACK
6
CONTINUOUS
10
5.45348
20
-3.96224
11
5.45649
21
-3.96284
0
LINE
8
BLACK
6
CONTINUOUS
10
5.93322
20
-3.95176
11
5.93788
21
-3.95414
0
LINE
8
BLACK
6
CONTINUOUS
10
5.93788
20
-3.95414
11
5.94158
21
-3.95784
0
LINE
8
BLACK
6
CONTINUOUS
10
5.94158
20
-3.95784
11
5.94396
21
-3.9625
0
LINE
8
BLACK
6
CONTINUOUS
10
5.94396
20
-3.9625
11
5.94478
21
-3.96767
0
LINE
8
BLACK
6
CONTINUOUS
10
5.94478
20
-3.96767
11
5.94478
21
-3.98736
0
LINE
8
BLACK
6
CONTINUOUS
10
5.94478
20
-3.98736
11
5.94396
21
-3.99253
0
LINE
8
BLACK
6
CONTINUOUS
10
5.94396
20
-3.99253
11
5.94158
21
-3.99719
0
LINE
8
BLACK
6
CONTINUOUS
10
5.94158
20
-3.99719
11
5.93788
21
-4.0009
0
LINE
8
BLACK
6
CONTINUOUS
10
5.93788
20
-4.0009
11
5.93322
21
-4.00327
0
LINE
8
BLACK
6
CONTINUOUS
10
5.93322
20
-4.00327
11
5.92804
21
-4.00409
0
LINE
8
BLACK
6
CONTINUOUS
10
5.92804
20
-4.00409
11
5.91033
21
-4.00409
0
LINE
8
BLACK
6
CONTINUOUS
10
5.91033
20
-4.00409
11
5.90516
21
-4.00327
0
LINE
8
BLACK
6
CONTINUOUS
10
5.90516
20
-4.00327
11
5.90049
21
-4.0009
0
LINE
8
BLACK
6
CONTINUOUS
10
5.90049
20
-4.0009
11
5.89679
21
-3.99719
0
LINE
8
BLACK
6
CONTINUOUS
10
5.89679
20
-3.99719
11
5.89442
21
-3.99253
0
LINE
8
BLACK
6
CONTINUOUS
10
5.89442
20
-3.99253
11
5.8936
21
-3.98736
0
LINE
8
BLACK
6
CONTINUOUS
10
5.8936
20
-3.98736
11
5.8936
21
-3.96767
0
LINE
8
BLACK
6
CONTINUOUS
10
5.8936
20
-3.96767
11
5.89442
21
-3.9625
0
LINE
8
BLACK
6
CONTINUOUS
10
5.89442
20
-3.9625
11
5.89679
21
-3.95784
0
LINE
8
BLACK
6
CONTINUOUS
10
5.89679
20
-3.95784
11
5.90049
21
-3.95414
0
LINE
8
BLACK
6
CONTINUOUS
10
5.90049
20
-3.95414
11
5.90516
21
-3.95176
0
LINE
8
BLACK
6
CONTINUOUS
10
5.90516
20
-3.95176
11
5.91033
21
-3.95094
0
LINE
8
BLACK
6
CONTINUOUS
10
5.91033
20
-3.95094
11
5.92804
21
-3.95094
0
LINE
8
BLACK
6
CONTINUOUS
10
5.92804
20
-3.95094
11
5.93322
21
-3.95176
0
LINE
8
BLACK
6
CONTINUOUS
10
5.87219
20
-3.95176
11
5.87686
21
-3.95414
0
LINE
8
BLACK
6
CONTINUOUS
10
5.87686
20
-3.95414
11
5.88056
21
-3.95784
0
LINE
8
BLACK
6
CONTINUOUS
10
5.88056
20
-3.95784
11
5.88293
21
-3.9625
0
LINE
8
BLACK
6
CONTINUOUS
10
5.88293
20
-3.9625
11
5.88375
21
-3.96767
0
LINE
8
BLACK
6
CONTINUOUS
10
5.88375
20
-3.96767
11
5.88375
21
-3.98736
0
LINE
8
BLACK
6
CONTINUOUS
10
5.88375
20
-3.98736
11
5.88293
21
-3.99253
0
LINE
8
BLACK
6
CONTINUOUS
10
5.88293
20
-3.99253
11
5.88056
21
-3.99719
0
LINE
8
BLACK
6
CONTINUOUS
10
5.88056
20
-3.99719
11
5.87686
21
-4.0009
0
LINE
8
BLACK
6
CONTINUOUS
10
5.87686
20
-4.0009
11
5.87219
21
-4.00327
0
LINE
8
BLACK
6
CONTINUOUS
10
5.87219
20
-4.00327
11
5.86702
21
-4.00409
0
LINE
8
BLACK
6
CONTINUOUS
10
5.86702
20
-4.00409
11
5.8493
21
-4.00409
0
LINE
8
BLACK
6
CONTINUOUS
10
5.8493
20
-4.00409
11
5.84413
21
-4.00327
0
LINE
8
BLACK
6
CONTINUOUS
10
5.84413
20
-4.00327
11
5.83947
21
-4.0009
0
LINE
8
BLACK
6
CONTINUOUS
10
5.83947
20
-4.0009
11
5.83577
21
-3.99719
0
LINE
8
BLACK
6
CONTINUOUS
10
5.83577
20
-3.99719
11
5.83339
21
-3.99253
0
LINE
8
BLACK
6
CONTINUOUS
10
5.83339
20
-3.99253
11
5.83257
21
-3.98736
0
LINE
8
BLACK
6
CONTINUOUS
10
5.83257
20
-3.98736
11
5.83257
21
-3.96767
0
LINE
8
BLACK
6
CONTINUOUS
10
5.83257
20
-3.96767
11
5.83339
21
-3.9625
0
LINE
8
BLACK
6
CONTINUOUS
10
5.83339
20
-3.9625
11
5.83577
21
-3.95784
0
LINE
8
BLACK
6
CONTINUOUS
10
5.83577
20
-3.95784
11
5.83947
21
-3.95414
0
LINE
8
BLACK
6
CONTINUOUS
10
5.83947
20
-3.95414
11
5.84413
21
-3.95176
0
LINE
8
BLACK
6
CONTINUOUS
10
5.84413
20
-3.95176
11
5.8493
21
-3.95094
0
LINE
8
BLACK
6
CONTINUOUS
10
5.8493
20
-3.95094
11
5.86702
21
-3.95094
0
LINE
8
BLACK
6
CONTINUOUS
10
5.86702
20
-3.95094
11
5.87219
21
-3.95176
0
LINE
8
BLACK
6
CONTINUOUS
10
6.08263
20
-3.89654
11
6.08519
21
-3.89825
0
LINE
8
BLACK
6
CONTINUOUS
10
6.08519
20
-3.89825
11
6.08689
21
-3.9008
0
LINE
8
BLACK
6
CONTINUOUS
10
6.08689
20
-3.9008
11
6.08749
21
-3.90382
0
LINE
8
BLACK
6
CONTINUOUS
10
6.08749
20
-3.90382
11
6.08749
21
-3.95106
0
LINE
8
BLACK
6
CONTINUOUS
10
6.08749
20
-3.95106
11
6.08689
21
-3.95407
0
LINE
8
BLACK
6
CONTINUOUS
10
6.08689
20
-3.95407
11
6.08519
21
-3.95663
0
LINE
8
BLACK
6
CONTINUOUS
10
6.08519
20
-3.95663
11
6.08263
21
-3.95833
0
LINE
8
BLACK
6
CONTINUOUS
10
6.08263
20
-3.95833
11
6.07962
21
-3.95893
0
LINE
8
BLACK
6
CONTINUOUS
10
6.07962
20
-3.95893
11
6.01663
21
-3.95893
0
LINE
8
BLACK
6
CONTINUOUS
10
6.01663
20
-3.95893
11
6.01361
21
-3.95833
0
LINE
8
BLACK
6
CONTINUOUS
10
6.01361
20
-3.95833
11
6.01106
21
-3.95663
0
LINE
8
BLACK
6
CONTINUOUS
10
6.01106
20
-3.95663
11
6.00935
21
-3.95407
0
LINE
8
BLACK
6
CONTINUOUS
10
6.00935
20
-3.95407
11
6.00875
21
-3.95106
0
LINE
8
BLACK
6
CONTINUOUS
10
6.00875
20
-3.95106
11
6.00875
21
-3.90382
0
LINE
8
BLACK
6
CONTINUOUS
10
6.00875
20
-3.90382
11
6.00935
21
-3.9008
0
LINE
8
BLACK
6
CONTINUOUS
10
6.00935
20
-3.9008
11
6.01106
21
-3.89825
0
LINE
8
BLACK
6
CONTINUOUS
10
6.01106
20
-3.89825
11
6.01361
21
-3.89654
0
LINE
8
BLACK
6
CONTINUOUS
10
6.01361
20
-3.89654
11
6.01663
21
-3.89594
0
LINE
8
BLACK
6
CONTINUOUS
10
6.01663
20
-3.89594
11
6.07962
21
-3.89594
0
LINE
8
BLACK
6
CONTINUOUS
10
6.07962
20
-3.89594
11
6.08263
21
-3.89654
0
LINE
8
BLACK
6
CONTINUOUS
10
5.87219
20
-3.87176
11
5.87686
21
-3.87414
0
LINE
8
BLACK
6
CONTINUOUS
10
5.87686
20
-3.87414
11
5.88056
21
-3.87784
0
LINE
8
BLACK
6
CONTINUOUS
10
5.88056
20
-3.87784
11
5.88293
21
-3.8825
0
LINE
8
BLACK
6
CONTINUOUS
10
5.88293
20
-3.8825
11
5.88375
21
-3.88767
0
LINE
8
BLACK
6
CONTINUOUS
10
5.88375
20
-3.88767
11
5.88375
21
-3.90736
0
LINE
8
BLACK
6
CONTINUOUS
10
5.88375
20
-3.90736
11
5.88293
21
-3.91253
0
LINE
8
BLACK
6
CONTINUOUS
10
5.88293
20
-3.91253
11
5.88056
21
-3.91719
0
LINE
8
BLACK
6
CONTINUOUS
10
5.88056
20
-3.91719
11
5.87686
21
-3.9209
0
LINE
8
BLACK
6
CONTINUOUS
10
5.87686
20
-3.9209
11
5.87219
21
-3.92327
0
LINE
8
BLACK
6
CONTINUOUS
10
5.87219
20
-3.92327
11
5.86702
21
-3.92409
0
LINE
8
BLACK
6
CONTINUOUS
10
5.86702
20
-3.92409
11
5.8493
21
-3.92409
0
LINE
8
BLACK
6
CONTINUOUS
10
5.8493
20
-3.92409
11
5.84413
21
-3.92327
0
LINE
8
BLACK
6
CONTINUOUS
10
5.84413
20
-3.92327
11
5.83947
21
-3.9209
0
LINE
8
BLACK
6
CONTINUOUS
10
5.83947
20
-3.9209
11
5.83577
21
-3.91719
0
LINE
8
BLACK
6
CONTINUOUS
10
5.83577
20
-3.91719
11
5.83339
21
-3.91253
0
LINE
8
BLACK
6
CONTINUOUS
10
5.83339
20
-3.91253
11
5.83257
21
-3.90736
0
LINE
8
BLACK
6
CONTINUOUS
10
5.83257
20
-3.90736
11
5.83257
21
-3.88767
0
LINE
8
BLACK
6
CONTINUOUS
10
5.83257
20
-3.88767
11
5.83339
21
-3.8825
0
LINE
8
BLACK
6
CONTINUOUS
10
5.83339
20
-3.8825
11
5.83577
21
-3.87784
0
LINE
8
BLACK
6
CONTINUOUS
10
5.83577
20
-3.87784
11
5.83947
21
-3.87414
0
LINE
8
BLACK
6
CONTINUOUS
10
5.83947
20
-3.87414
11
5.84413
21
-3.87176
0
LINE
8
BLACK
6
CONTINUOUS
10
5.84413
20
-3.87176
11
5.8493
21
-3.87094
0
LINE
8
BLACK
6
CONTINUOUS
10
5.8493
20
-3.87094
11
5.86702
21
-3.87094
0
LINE
8
BLACK
6
CONTINUOUS
10
5.86702
20
-3.87094
11
5.87219
21
-3.87176
0
LINE
8
BLACK
6
CONTINUOUS
10
5.93322
20
-3.87176
11
5.93788
21
-3.87414
0
LINE
8
BLACK
6
CONTINUOUS
10
5.93788
20
-3.87414
11
5.94158
21
-3.87784
0
LINE
8
BLACK
6
CONTINUOUS
10
5.94158
20
-3.87784
11
5.94396
21
-3.8825
0
LINE
8
BLACK
6
CONTINUOUS
10
5.94396
20
-3.8825
11
5.94478
21
-3.88767
0
LINE
8
BLACK
6
CONTINUOUS
10
5.94478
20
-3.88767
11
5.94478
21
-3.90736
0
LINE
8
BLACK
6
CONTINUOUS
10
5.94478
20
-3.90736
11
5.94396
21
-3.91253
0
LINE
8
BLACK
6
CONTINUOUS
10
5.94396
20
-3.91253
11
5.94158
21
-3.91719
0
LINE
8
BLACK
6
CONTINUOUS
10
5.94158
20
-3.91719
11
5.93788
21
-3.9209
0
LINE
8
BLACK
6
CONTINUOUS
10
5.93788
20
-3.9209
11
5.93322
21
-3.92327
0
LINE
8
BLACK
6
CONTINUOUS
10
5.93322
20
-3.92327
11
5.92804
21
-3.92409
0
LINE
8
BLACK
6
CONTINUOUS
10
5.92804
20
-3.92409
11
5.91033
21
-3.92409
0
LINE
8
BLACK
6
CONTINUOUS
10
5.91033
20
-3.92409
11
5.90516
21
-3.92327
0
LINE
8
BLACK
6
CONTINUOUS
10
5.90516
20
-3.92327
11
5.90049
21
-3.9209
0
LINE
8
BLACK
6
CONTINUOUS
10
5.90049
20
-3.9209
11
5.89679
21
-3.91719
0
LINE
8
BLACK
6
CONTINUOUS
10
5.89679
20
-3.91719
11
5.89442
21
-3.91253
0
LINE
8
BLACK
6
CONTINUOUS
10
5.89442
20
-3.91253
11
5.8936
21
-3.90736
0
LINE
8
BLACK
6
CONTINUOUS
10
5.8936
20
-3.90736
11
5.8936
21
-3.88767
0
LINE
8
BLACK
6
CONTINUOUS
10
5.8936
20
-3.88767
11
5.89442
21
-3.8825
0
LINE
8
BLACK
6
CONTINUOUS
10
5.89442
20
-3.8825
11
5.89679
21
-3.87784
0
LINE
8
BLACK
6
CONTINUOUS
10
5.89679
20
-3.87784
11
5.90049
21
-3.87414
0
LINE
8
BLACK
6
CONTINUOUS
10
5.90049
20
-3.87414
11
5.90516
21
-3.87176
0
LINE
8
BLACK
6
CONTINUOUS
10
5.90516
20
-3.87176
11
5.91033
21
-3.87094
0
LINE
8
BLACK
6
CONTINUOUS
10
5.91033
20
-3.87094
11
5.92804
21
-3.87094
0
LINE
8
BLACK
6
CONTINUOUS
10
5.92804
20
-3.87094
11
5.93322
21
-3.87176
0
LINE
8
BLACK
6
CONTINUOUS
10
6.08263
20
-3.79812
11
6.08519
21
-3.79982
0
LINE
8
BLACK
6
CONTINUOUS
10
6.08519
20
-3.79982
11
6.08689
21
-3.80238
0
LINE
8
BLACK
6
CONTINUOUS
10
6.08689
20
-3.80238
11
6.08749
21
-3.80539
0
LINE
8
BLACK
6
CONTINUOUS
10
6.08749
20
-3.80539
11
6.08749
21
-3.85263
0
LINE
8
BLACK
6
CONTINUOUS
10
6.08749
20
-3.85263
11
6.08689
21
-3.85565
0
LINE
8
BLACK
6
CONTINUOUS
10
6.08689
20
-3.85565
11
6.08519
21
-3.8582
0
LINE
8
BLACK
6
CONTINUOUS
10
6.08519
20
-3.8582
11
6.08263
21
-3.85991
0
LINE
8
BLACK
6
CONTINUOUS
10
6.08263
20
-3.85991
11
6.07962
21
-3.86051
0
LINE
8
BLACK
6
CONTINUOUS
10
6.07962
20
-3.86051
11
6.01663
21
-3.86051
0
LINE
8
BLACK
6
CONTINUOUS
10
6.01663
20
-3.86051
11
6.01361
21
-3.85991
0
LINE
8
BLACK
6
CONTINUOUS
10
6.01361
20
-3.85991
11
6.01106
21
-3.8582
0
LINE
8
BLACK
6
CONTINUOUS
10
6.01106
20
-3.8582
11
6.00935
21
-3.85565
0
LINE
8
BLACK
6
CONTINUOUS
10
6.00935
20
-3.85565
11
6.00875
21
-3.85263
0
LINE
8
BLACK
6
CONTINUOUS
10
6.00875
20
-3.85263
11
6.00875
21
-3.80539
0
LINE
8
BLACK
6
CONTINUOUS
10
6.00875
20
-3.80539
11
6.00935
21
-3.80238
0
LINE
8
BLACK
6
CONTINUOUS
10
6.00935
20
-3.80238
11
6.01106
21
-3.79982
0
LINE
8
BLACK
6
CONTINUOUS
10
6.01106
20
-3.79982
11
6.01361
21
-3.79812
0
LINE
8
BLACK
6
CONTINUOUS
10
6.01361
20
-3.79812
11
6.01663
21
-3.79752
0
LINE
8
BLACK
6
CONTINUOUS
10
6.01663
20
-3.79752
11
6.07962
21
-3.79752
0
LINE
8
BLACK
6
CONTINUOUS
10
6.07962
20
-3.79752
11
6.08263
21
-3.79812
0
LINE
8
BLACK
6
CONTINUOUS
10
5.86893
20
-3.71171
11
5.87332
21
-3.71395
0
LINE
8
BLACK
6
CONTINUOUS
10
5.87332
20
-3.71395
11
5.87681
21
-3.71743
0
LINE
8
BLACK
6
CONTINUOUS
10
5.87681
20
-3.71743
11
5.87905
21
-3.72182
0
LINE
8
BLACK
6
CONTINUOUS
10
5.87905
20
-3.72182
11
5.87982
21
-3.72669
0
LINE
8
BLACK
6
CONTINUOUS
10
5.87982
20
-3.72669
11
5.87982
21
-3.74834
0
LINE
8
BLACK
6
CONTINUOUS
10
5.87982
20
-3.74834
11
5.87905
21
-3.75321
0
LINE
8
BLACK
6
CONTINUOUS
10
5.87905
20
-3.75321
11
5.87681
21
-3.7576
0
LINE
8
BLACK
6
CONTINUOUS
10
5.87681
20
-3.7576
11
5.87332
21
-3.76108
0
LINE
8
BLACK
6
CONTINUOUS
10
5.87332
20
-3.76108
11
5.86893
21
-3.76332
0
LINE
8
BLACK
6
CONTINUOUS
10
5.86893
20
-3.76332
11
5.86407
21
-3.76409
0
LINE
8
BLACK
6
CONTINUOUS
10
5.86407
20
-3.76409
11
5.84832
21
-3.76409
0
LINE
8
BLACK
6
CONTINUOUS
10
5.84832
20
-3.76409
11
5.84345
21
-3.76332
0
LINE
8
BLACK
6
CONTINUOUS
10
5.84345
20
-3.76332
11
5.83906
21
-3.76108
0
LINE
8
BLACK
6
CONTINUOUS
10
5.83906
20
-3.76108
11
5.83558
21
-3.7576
0
LINE
8
BLACK
6
CONTINUOUS
10
5.83558
20
-3.7576
11
5.83334
21
-3.75321
0
LINE
8
BLACK
6
CONTINUOUS
10
5.83334
20
-3.75321
11
5.83257
21
-3.74834
0
LINE
8
BLACK
6
CONTINUOUS
10
5.83257
20
-3.74834
11
5.83257
21
-3.72669
0
LINE
8
BLACK
6
CONTINUOUS
10
5.83257
20
-3.72669
11
5.83334
21
-3.72182
0
LINE
8
BLACK
6
CONTINUOUS
10
5.83334
20
-3.72182
11
5.83558
21
-3.71743
0
LINE
8
BLACK
6
CONTINUOUS
10
5.83558
20
-3.71743
11
5.83906
21
-3.71395
0
LINE
8
BLACK
6
CONTINUOUS
10
5.83906
20
-3.71395
11
5.84345
21
-3.71171
0
LINE
8
BLACK
6
CONTINUOUS
10
5.84345
20
-3.71171
11
5.84832
21
-3.71094
0
LINE
8
BLACK
6
CONTINUOUS
10
5.84832
20
-3.71094
11
5.86407
21
-3.71094
0
LINE
8
BLACK
6
CONTINUOUS
10
5.86407
20
-3.71094
11
5.86893
21
-3.71171
0
LINE
8
BLACK
6
CONTINUOUS
10
5.9339
20
-3.71171
11
5.93829
21
-3.71395
0
LINE
8
BLACK
6
CONTINUOUS
10
5.93829
20
-3.71395
11
5.94177
21
-3.71743
0
LINE
8
BLACK
6
CONTINUOUS
10
5.94177
20
-3.71743
11
5.94401
21
-3.72182
0
LINE
8
BLACK
6
CONTINUOUS
10
5.94401
20
-3.72182
11
5.94478
21
-3.72669
0
LINE
8
BLACK
6
CONTINUOUS
10
5.94478
20
-3.72669
11
5.94478
21
-3.74834
0
LINE
8
BLACK
6
CONTINUOUS
10
5.94478
20
-3.74834
11
5.94401
21
-3.75321
0
LINE
8
BLACK
6
CONTINUOUS
10
5.94401
20
-3.75321
11
5.94177
21
-3.7576
0
LINE
8
BLACK
6
CONTINUOUS
10
5.94177
20
-3.7576
11
5.93829
21
-3.76108
0
LINE
8
BLACK
6
CONTINUOUS
10
5.93829
20
-3.76108
11
5.9339
21
-3.76332
0
LINE
8
BLACK
6
CONTINUOUS
10
5.9339
20
-3.76332
11
5.92903
21
-3.76409
0
LINE
8
BLACK
6
CONTINUOUS
10
5.92903
20
-3.76409
11
5.91328
21
-3.76409
0
LINE
8
BLACK
6
CONTINUOUS
10
5.91328
20
-3.76409
11
5.90841
21
-3.76332
0
LINE
8
BLACK
6
CONTINUOUS
10
5.90841
20
-3.76332
11
5.90402
21
-3.76108
0
LINE
8
BLACK
6
CONTINUOUS
10
5.90402
20
-3.76108
11
5.90054
21
-3.7576
0
LINE
8
BLACK
6
CONTINUOUS
10
5.90054
20
-3.7576
11
5.8983
21
-3.75321
0
LINE
8
BLACK
6
CONTINUOUS
10
5.8983
20
-3.75321
11
5.89753
21
-3.74834
0
LINE
8
BLACK
6
CONTINUOUS
10
5.89753
20
-3.74834
11
5.89753
21
-3.72669
0
LINE
8
BLACK
6
CONTINUOUS
10
5.89753
20
-3.72669
11
5.8983
21
-3.72182
0
LINE
8
BLACK
6
CONTINUOUS
10
5.8983
20
-3.72182
11
5.90054
21
-3.71743
0
LINE
8
BLACK
6
CONTINUOUS
10
5.90054
20
-3.71743
11
5.90402
21
-3.71395
0
LINE
8
BLACK
6
CONTINUOUS
10
5.90402
20
-3.71395
11
5.90841
21
-3.71171
0
LINE
8
BLACK
6
CONTINUOUS
10
5.90841
20
-3.71171
11
5.91328
21
-3.71094
0
LINE
8
BLACK
6
CONTINUOUS
10
5.91328
20
-3.71094
11
5.92903
21
-3.71094
0
LINE
8
BLACK
6
CONTINUOUS
10
5.92903
20
-3.71094
11
5.9339
21
-3.71171
0
LINE
8
BLACK
6
CONTINUOUS
10
6.08263
20
-3.69969
11
6.08519
21
-3.7014
0
LINE
8
BLACK
6
CONTINUOUS
10
6.08519
20
-3.7014
11
6.08689
21
-3.70395
0
LINE
8
BLACK
6
CONTINUOUS
10
6.08689
20
-3.70395
11
6.08749
21
-3.70697
0
LINE
8
BLACK
6
CONTINUOUS
10
6.08749
20
-3.70697
11
6.08749
21
-3.75421
0
LINE
8
BLACK
6
CONTINUOUS
10
6.08749
20
-3.75421
11
6.08689
21
-3.75722
0
LINE
8
BLACK
6
CONTINUOUS
10
6.08689
20
-3.75722
11
6.08519
21
-3.75978
0
LINE
8
BLACK
6
CONTINUOUS
10
6.08519
20
-3.75978
11
6.08263
21
-3.76148
0
LINE
8
BLACK
6
CONTINUOUS
10
6.08263
20
-3.76148
11
6.07962
21
-3.76208
0
LINE
8
BLACK
6
CONTINUOUS
10
6.07962
20
-3.76208
11
6.01663
21
-3.76208
0
LINE
8
BLACK
6
CONTINUOUS
10
6.01663
20
-3.76208
11
6.01361
21
-3.76148
0
LINE
8
BLACK
6
CONTINUOUS
10
6.01361
20
-3.76148
11
6.01106
21
-3.75978
0
LINE
8
BLACK
6
CONTINUOUS
10
6.01106
20
-3.75978
11
6.00935
21
-3.75722
0
LINE
8
BLACK
6
CONTINUOUS
10
6.00935
20
-3.75722
11
6.00875
21
-3.75421
0
LINE
8
BLACK
6
CONTINUOUS
10
6.00875
20
-3.75421
11
6.00875
21
-3.70697
0
LINE
8
BLACK
6
CONTINUOUS
10
6.00875
20
-3.70697
11
6.00935
21
-3.70395
0
LINE
8
BLACK
6
CONTINUOUS
10
6.00935
20
-3.70395
11
6.01106
21
-3.7014
0
LINE
8
BLACK
6
CONTINUOUS
10
6.01106
20
-3.7014
11
6.01361
21
-3.69969
0
LINE
8
BLACK
6
CONTINUOUS
10
6.01361
20
-3.69969
11
6.01663
21
-3.69909
0
LINE
8
BLACK
6
CONTINUOUS
10
6.01663
20
-3.69909
11
6.07962
21
-3.69909
0
LINE
8
BLACK
6
CONTINUOUS
10
6.07962
20
-3.69909
11
6.08263
21
-3.69969
0
LINE
8
BLACK
6
CONTINUOUS
10
5.5462
20
-3.61088
11
5.55317
21
-3.61304
0
LINE
8
BLACK
6
CONTINUOUS
10
5.55317
20
-3.61304
11
5.55959
21
-3.61651
0
LINE
8
BLACK
6
CONTINUOUS
10
5.55959
20
-3.61651
11
5.56521
21
-3.62116
0
LINE
8
BLACK
6
CONTINUOUS
10
5.56521
20
-3.62116
11
5.56983
21
-3.62682
0
LINE
8
BLACK
6
CONTINUOUS
10
5.56983
20
-3.62682
11
5.57325
21
-3.63326
0
LINE
8
BLACK
6
CONTINUOUS
10
5.57325
20
-3.63326
11
5.57536
21
-3.64025
0
LINE
8
BLACK
6
CONTINUOUS
10
5.57536
20
-3.64025
11
5.57608
21
-3.64752
0
LINE
8
BLACK
6
CONTINUOUS
10
5.57608
20
-3.64752
11
5.57606
21
-3.64856
0
LINE
8
BLACK
6
CONTINUOUS
10
5.57606
20
-3.64856
11
5.57515
21
-3.6558
0
LINE
8
BLACK
6
CONTINUOUS
10
5.57515
20
-3.6558
11
5.57284
21
-3.66273
0
LINE
8
BLACK
6
CONTINUOUS
10
5.57284
20
-3.66273
11
5.56924
21
-3.66908
0
LINE
8
BLACK
6
CONTINUOUS
10
5.56924
20
-3.66908
11
5.56447
21
-3.6746
0
LINE
8
BLACK
6
CONTINUOUS
10
5.56447
20
-3.6746
11
5.55872
21
-3.6791
0
LINE
8
BLACK
6
CONTINUOUS
10
5.55872
20
-3.6791
11
5.5522
21
-3.68239
0
LINE
8
BLACK
6
CONTINUOUS
10
5.5522
20
-3.68239
11
5.54517
21
-3.68435
0
LINE
8
BLACK
6
CONTINUOUS
10
5.54517
20
-3.68435
11
5.53789
21
-3.68491
0
LINE
8
BLACK
6
CONTINUOUS
10
5.53789
20
-3.68491
11
5.53064
21
-3.68405
0
LINE
8
BLACK
6
CONTINUOUS
10
5.53064
20
-3.68405
11
5.5237
21
-3.68179
0
LINE
8
BLACK
6
CONTINUOUS
10
5.5237
20
-3.68179
11
5.51733
21
-3.67823
0
LINE
8
BLACK
6
CONTINUOUS
10
5.51733
20
-3.67823
11
5.51177
21
-3.6735
0
LINE
8
BLACK
6
CONTINUOUS
10
5.51177
20
-3.6735
11
5.50724
21
-3.66778
0
LINE
8
BLACK
6
CONTINUOUS
10
5.50724
20
-3.66778
11
5.5039
21
-3.66129
0
LINE
8
BLACK
6
CONTINUOUS
10
5.5039
20
-3.66129
11
5.50189
21
-3.65427
0
LINE
8
BLACK
6
CONTINUOUS
10
5.50189
20
-3.65427
11
5.50128
21
-3.64699
0
LINE
8
BLACK
6
CONTINUOUS
10
5.50128
20
-3.64699
11
5.50209
21
-3.63974
0
LINE
8
BLACK
6
CONTINUOUS
10
5.50209
20
-3.63974
11
5.5043
21
-3.63278
0
LINE
8
BLACK
6
CONTINUOUS
10
5.5043
20
-3.63278
11
5.50781
21
-3.62639
0
LINE
8
BLACK
6
CONTINUOUS
10
5.50781
20
-3.62639
11
5.51251
21
-3.62079
0
LINE
8
BLACK
6
CONTINUOUS
10
5.51251
20
-3.62079
11
5.5182
21
-3.61622
0
LINE
8
BLACK
6
CONTINUOUS
10
5.5182
20
-3.61622
11
5.52466
21
-3.61284
0
LINE
8
BLACK
6
CONTINUOUS
10
5.52466
20
-3.61284
11
5.53167
21
-3.61078
0
LINE
8
BLACK
6
CONTINUOUS
10
5.53167
20
-3.61078
11
5.53894
21
-3.61012
0
LINE
8
BLACK
6
CONTINUOUS
10
5.53894
20
-3.61012
11
5.5462
21
-3.61088
0
LINE
8
BLACK
6
CONTINUOUS
10
5.92893
20
-3.61171
11
5.93332
21
-3.61395
0
LINE
8
BLACK
6
CONTINUOUS
10
5.93332
20
-3.61395
11
5.93681
21
-3.61743
0
LINE
8
BLACK
6
CONTINUOUS
10
5.93681
20
-3.61743
11
5.93905
21
-3.62182
0
LINE
8
BLACK
6
CONTINUOUS
10
5.93905
20
-3.62182
11
5.93982
21
-3.62669
0
LINE
8
BLACK
6
CONTINUOUS
10
5.93982
20
-3.62669
11
5.93982
21
-3.64834
0
LINE
8
BLACK
6
CONTINUOUS
10
5.93982
20
-3.64834
11
5.93905
21
-3.65321
0
LINE
8
BLACK
6
CONTINUOUS
10
5.93905
20
-3.65321
11
5.93681
21
-3.6576
0
LINE
8
BLACK
6
CONTINUOUS
10
5.93681
20
-3.6576
11
5.93332
21
-3.66108
0
LINE
8
BLACK
6
CONTINUOUS
10
5.93332
20
-3.66108
11
5.92893
21
-3.66332
0
LINE
8
BLACK
6
CONTINUOUS
10
5.92893
20
-3.66332
11
5.92407
21
-3.66409
0
LINE
8
BLACK
6
CONTINUOUS
10
5.92407
20
-3.66409
11
5.90832
21
-3.66409
0
LINE
8
BLACK
6
CONTINUOUS
10
5.90832
20
-3.66409
11
5.90345
21
-3.66332
0
LINE
8
BLACK
6
CONTINUOUS
10
5.90345
20
-3.66332
11
5.89906
21
-3.66108
0
LINE
8
BLACK
6
CONTINUOUS
10
5.89906
20
-3.66108
11
5.89558
21
-3.6576
0
LINE
8
BLACK
6
CONTINUOUS
10
5.89558
20
-3.6576
11
5.89334
21
-3.65321
0
LINE
8
BLACK
6
CONTINUOUS
10
5.89334
20
-3.65321
11
5.89257
21
-3.64834
0
LINE
8
BLACK
6
CONTINUOUS
10
5.89257
20
-3.64834
11
5.89257
21
-3.62669
0
LINE
8
BLACK
6
CONTINUOUS
10
5.89257
20
-3.62669
11
5.89334
21
-3.62182
0
LINE
8
BLACK
6
CONTINUOUS
10
5.89334
20
-3.62182
11
5.89558
21
-3.61743
0
LINE
8
BLACK
6
CONTINUOUS
10
5.89558
20
-3.61743
11
5.89906
21
-3.61395
0
LINE
8
BLACK
6
CONTINUOUS
10
5.89906
20
-3.61395
11
5.90345
21
-3.61171
0
LINE
8
BLACK
6
CONTINUOUS
10
5.90345
20
-3.61171
11
5.90832
21
-3.61094
0
LINE
8
BLACK
6
CONTINUOUS
10
5.90832
20
-3.61094
11
5.92407
21
-3.61094
0
LINE
8
BLACK
6
CONTINUOUS
10
5.92407
20
-3.61094
11
5.92893
21
-3.61171
0
LINE
8
BLACK
6
CONTINUOUS
10
5.9939
20
-3.61171
11
5.99829
21
-3.61395
0
LINE
8
BLACK
6
CONTINUOUS
10
5.99829
20
-3.61395
11
6.00177
21
-3.61743
0
LINE
8
BLACK
6
CONTINUOUS
10
6.00177
20
-3.61743
11
6.00401
21
-3.62182
0
LINE
8
BLACK
6
CONTINUOUS
10
6.00401
20
-3.62182
11
6.00478
21
-3.62669
0
LINE
8
BLACK
6
CONTINUOUS
10
6.00478
20
-3.62669
11
6.00478
21
-3.64834
0
LINE
8
BLACK
6
CONTINUOUS
10
6.00478
20
-3.64834
11
6.00401
21
-3.65321
0
LINE
8
BLACK
6
CONTINUOUS
10
6.00401
20
-3.65321
11
6.00177
21
-3.6576
0
LINE
8
BLACK
6
CONTINUOUS
10
6.00177
20
-3.6576
11
5.99829
21
-3.66108
0
LINE
8
BLACK
6
CONTINUOUS
10
5.99829
20
-3.66108
11
5.9939
21
-3.66332
0
LINE
8
BLACK
6
CONTINUOUS
10
5.9939
20
-3.66332
11
5.98903
21
-3.66409
0
LINE
8
BLACK
6
CONTINUOUS
10
5.98903
20
-3.66409
11
5.97328
21
-3.66409
0
LINE
8
BLACK
6
CONTINUOUS
10
5.97328
20
-3.66409
11
5.96841
21
-3.66332
0
LINE
8
BLACK
6
CONTINUOUS
10
5.96841
20
-3.66332
11
5.96402
21
-3.66108
0
LINE
8
BLACK
6
CONTINUOUS
10
5.96402
20
-3.66108
11
5.96054
21
-3.6576
0
LINE
8
BLACK
6
CONTINUOUS
10
5.96054
20
-3.6576
11
5.9583
21
-3.65321
0
LINE
8
BLACK
6
CONTINUOUS
10
5.9583
20
-3.65321
11
5.95753
21
-3.64834
0
LINE
8
BLACK
6
CONTINUOUS
10
5.95753
20
-3.64834
11
5.95753
21
-3.62669
0
LINE
8
BLACK
6
CONTINUOUS
10
5.95753
20
-3.62669
11
5.9583
21
-3.62182
0
LINE
8
BLACK
6
CONTINUOUS
10
5.9583
20
-3.62182
11
5.96054
21
-3.61743
0
LINE
8
BLACK
6
CONTINUOUS
10
5.96054
20
-3.61743
11
5.96402
21
-3.61395
0
LINE
8
BLACK
6
CONTINUOUS
10
5.96402
20
-3.61395
11
5.96841
21
-3.61171
0
LINE
8
BLACK
6
CONTINUOUS
10
5.96841
20
-3.61171
11
5.97328
21
-3.61094
0
LINE
8
BLACK
6
CONTINUOUS
10
5.97328
20
-3.61094
11
5.98903
21
-3.61094
0
LINE
8
BLACK
6
CONTINUOUS
10
5.98903
20
-3.61094
11
5.9939
21
-3.61171
0
LINE
8
BLACK
6
CONTINUOUS
10
6.08263
20
-3.60127
11
6.08519
21
-3.60297
0
LINE
8
BLACK
6
CONTINUOUS
10
6.08519
20
-3.60297
11
6.08689
21
-3.60553
0
LINE
8
BLACK
6
CONTINUOUS
10
6.08689
20
-3.60553
11
6.08749
21
-3.60854
0
LINE
8
BLACK
6
CONTINUOUS
10
6.08749
20
-3.60854
11
6.08749
21
-3.65578
0
LINE
8
BLACK
6
CONTINUOUS
10
6.08749
20
-3.65578
11
6.08689
21
-3.6588
0
LINE
8
BLACK
6
CONTINUOUS
10
6.08689
20
-3.6588
11
6.08519
21
-3.66135
0
LINE
8
BLACK
6
CONTINUOUS
10
6.08519
20
-3.66135
11
6.08263
21
-3.66306
0
LINE
8
BLACK
6
CONTINUOUS
10
6.08263
20
-3.66306
11
6.07962
21
-3.66366
0
LINE
8
BLACK
6
CONTINUOUS
10
6.07962
20
-3.66366
11
6.01663
21
-3.66366
0
LINE
8
BLACK
6
CONTINUOUS
10
6.01663
20
-3.66366
11
6.01361
21
-3.66306
0
LINE
8
BLACK
6
CONTINUOUS
10
6.01361
20
-3.66306
11
6.01106
21
-3.66135
0
LINE
8
BLACK
6
CONTINUOUS
10
6.01106
20
-3.66135
11
6.00935
21
-3.6588
0
LINE
8
BLACK
6
CONTINUOUS
10
6.00935
20
-3.6588
11
6.00875
21
-3.65578
0
LINE
8
BLACK
6
CONTINUOUS
10
6.00875
20
-3.65578
11
6.00875
21
-3.60854
0
LINE
8
BLACK
6
CONTINUOUS
10
6.00875
20
-3.60854
11
6.00935
21
-3.60553
0
LINE
8
BLACK
6
CONTINUOUS
10
6.00935
20
-3.60553
11
6.01106
21
-3.60297
0
LINE
8
BLACK
6
CONTINUOUS
10
6.01106
20
-3.60297
11
6.01361
21
-3.60127
0
LINE
8
BLACK
6
CONTINUOUS
10
6.01361
20
-3.60127
11
6.01663
21
-3.60067
0
LINE
8
BLACK
6
CONTINUOUS
10
6.01663
20
-3.60067
11
6.07962
21
-3.60067
0
LINE
8
BLACK
6
CONTINUOUS
10
6.07962
20
-3.60067
11
6.08263
21
-3.60127
0
LINE
8
BLACK
6
CONTINUOUS
10
4.50101
20
-3.51435
11
4.50808
21
-3.51654
0
LINE
8
BLACK
6
CONTINUOUS
10
4.50808
20
-3.51654
11
4.51458
21
-3.52005
0
LINE
8
BLACK
6
CONTINUOUS
10
4.51458
20
-3.52005
11
4.52027
21
-3.52477
0
LINE
8
BLACK
6
CONTINUOUS
10
4.52027
20
-3.52477
11
4.52495
21
-3.53049
0
LINE
8
BLACK
6
CONTINUOUS
10
4.52495
20
-3.53049
11
4.52842
21
-3.53702
0
LINE
8
BLACK
6
CONTINUOUS
10
4.52842
20
-3.53702
11
4.53055
21
-3.5441
0
LINE
8
BLACK
6
CONTINUOUS
10
4.53055
20
-3.5441
11
4.53127
21
-3.55145
0
LINE
8
BLACK
6
CONTINUOUS
10
4.53127
20
-3.55145
11
4.53126
21
-3.55251
0
LINE
8
BLACK
6
CONTINUOUS
10
4.53126
20
-3.55251
11
4.53033
21
-3.55984
0
LINE
8
BLACK
6
CONTINUOUS
10
4.53033
20
-3.55984
11
4.528
21
-3.56686
0
LINE
8
BLACK
6
CONTINUOUS
10
4.528
20
-3.56686
11
4.52435
21
-3.57329
0
LINE
8
BLACK
6
CONTINUOUS
10
4.52435
20
-3.57329
11
4.51952
21
-3.57888
0
LINE
8
BLACK
6
CONTINUOUS
10
4.51952
20
-3.57888
11
4.51369
21
-3.58343
0
LINE
8
BLACK
6
CONTINUOUS
10
4.51369
20
-3.58343
11
4.5071
21
-3.58676
0
LINE
8
BLACK
6
CONTINUOUS
10
4.5071
20
-3.58676
11
4.49998
21
-3.58875
0
LINE
8
BLACK
6
CONTINUOUS
10
4.49998
20
-3.58875
11
4.49261
21
-3.58932
0
LINE
8
BLACK
6
CONTINUOUS
10
4.49261
20
-3.58932
11
4.48527
21
-3.58844
0
LINE
8
BLACK
6
CONTINUOUS
10
4.48527
20
-3.58844
11
4.47824
21
-3.58616
0
LINE
8
BLACK
6
CONTINUOUS
10
4.47824
20
-3.58616
11
4.47178
21
-3.58255
0
LINE
8
BLACK
6
CONTINUOUS
10
4.47178
20
-3.58255
11
4.46615
21
-3.57776
0
LINE
8
BLACK
6
CONTINUOUS
10
4.46615
20
-3.57776
11
4.46156
21
-3.57197
0
LINE
8
BLACK
6
CONTINUOUS
10
4.46156
20
-3.57197
11
4.45818
21
-3.5654
0
LINE
8
BLACK
6
CONTINUOUS
10
4.45818
20
-3.5654
11
4.45615
21
-3.55829
0
LINE
8
BLACK
6
CONTINUOUS
10
4.45615
20
-3.55829
11
4.45553
21
-3.55092
0
LINE
8
BLACK
6
CONTINUOUS
10
4.45553
20
-3.55092
11
4.45635
21
-3.54358
0
LINE
8
BLACK
6
CONTINUOUS
10
4.45635
20
-3.54358
11
4.45859
21
-3.53653
0
LINE
8
BLACK
6
CONTINUOUS
10
4.45859
20
-3.53653
11
4.46215
21
-3.53006
0
LINE
8
BLACK
6
CONTINUOUS
10
4.46215
20
-3.53006
11
4.4669
21
-3.52439
0
LINE
8
BLACK
6
CONTINUOUS
10
4.4669
20
-3.52439
11
4.47266
21
-3.51976
0
LINE
8
BLACK
6
CONTINUOUS
10
4.47266
20
-3.51976
11
4.47921
21
-3.51634
0
LINE
8
BLACK
6
CONTINUOUS
10
4.47921
20
-3.51634
11
4.4863
21
-3.51425
0
LINE
8
BLACK
6
CONTINUOUS
10
4.4863
20
-3.51425
11
4.49366
21
-3.51358
0
LINE
8
BLACK
6
CONTINUOUS
10
4.49366
20
-3.51358
11
4.50101
21
-3.51435
0
LINE
8
BLACK
6
CONTINUOUS
10
4.30416
20
-3.51435
11
4.31123
21
-3.51654
0
LINE
8
BLACK
6
CONTINUOUS
10
4.31123
20
-3.51654
11
4.31773
21
-3.52005
0
LINE
8
BLACK
6
CONTINUOUS
10
4.31773
20
-3.52005
11
4.32342
21
-3.52477
0
LINE
8
BLACK
6
CONTINUOUS
10
4.32342
20
-3.52477
11
4.32809
21
-3.53049
0
LINE
8
BLACK
6
CONTINUOUS
10
4.32809
20
-3.53049
11
4.33157
21
-3.53702
0
LINE
8
BLACK
6
CONTINUOUS
10
4.33157
20
-3.53702
11
4.3337
21
-3.5441
0
LINE
8
BLACK
6
CONTINUOUS
10
4.3337
20
-3.5441
11
4.33442
21
-3.55145
0
LINE
8
BLACK
6
CONTINUOUS
10
4.33442
20
-3.55145
11
4.33441
21
-3.55251
0
LINE
8
BLACK
6
CONTINUOUS
10
4.33441
20
-3.55251
11
4.33348
21
-3.55984
0
LINE
8
BLACK
6
CONTINUOUS
10
4.33348
20
-3.55984
11
4.33115
21
-3.56686
0
LINE
8
BLACK
6
CONTINUOUS
10
4.33115
20
-3.56686
11
4.3275
21
-3.57329
0
LINE
8
BLACK
6
CONTINUOUS
10
4.3275
20
-3.57329
11
4.32267
21
-3.57888
0
LINE
8
BLACK
6
CONTINUOUS
10
4.32267
20
-3.57888
11
4.31684
21
-3.58343
0
LINE
8
BLACK
6
CONTINUOUS
10
4.31684
20
-3.58343
11
4.31025
21
-3.58676
0
LINE
8
BLACK
6
CONTINUOUS
10
4.31025
20
-3.58676
11
4.30313
21
-3.58875
0
LINE
8
BLACK
6
CONTINUOUS
10
4.30313
20
-3.58875
11
4.29576
21
-3.58932
0
LINE
8
BLACK
6
CONTINUOUS
10
4.29576
20
-3.58932
11
4.28842
21
-3.58844
0
LINE
8
BLACK
6
CONTINUOUS
10
4.28842
20
-3.58844
11
4.28139
21
-3.58616
0
LINE
8
BLACK
6
CONTINUOUS
10
4.28139
20
-3.58616
11
4.27493
21
-3.58255
0
LINE
8
BLACK
6
CONTINUOUS
10
4.27493
20
-3.58255
11
4.2693
21
-3.57776
0
LINE
8
BLACK
6
CONTINUOUS
10
4.2693
20
-3.57776
11
4.26471
21
-3.57197
0
LINE
8
BLACK
6
CONTINUOUS
10
4.26471
20
-3.57197
11
4.26133
21
-3.5654
0
LINE
8
BLACK
6
CONTINUOUS
10
4.26133
20
-3.5654
11
4.2593
21
-3.55829
0
LINE
8
BLACK
6
CONTINUOUS
10
4.2593
20
-3.55829
11
4.25868
21
-3.55092
0
LINE
8
BLACK
6
CONTINUOUS
10
4.25868
20
-3.55092
11
4.2595
21
-3.54358
0
LINE
8
BLACK
6
CONTINUOUS
10
4.2595
20
-3.54358
11
4.26174
21
-3.53653
0
LINE
8
BLACK
6
CONTINUOUS
10
4.26174
20
-3.53653
11
4.2653
21
-3.53006
0
LINE
8
BLACK
6
CONTINUOUS
10
4.2653
20
-3.53006
11
4.27005
21
-3.52439
0
LINE
8
BLACK
6
CONTINUOUS
10
4.27005
20
-3.52439
11
4.27581
21
-3.51976
0
LINE
8
BLACK
6
CONTINUOUS
10
4.27581
20
-3.51976
11
4.28236
21
-3.51634
0
LINE
8
BLACK
6
CONTINUOUS
10
4.28236
20
-3.51634
11
4.28945
21
-3.51425
0
LINE
8
BLACK
6
CONTINUOUS
10
4.28945
20
-3.51425
11
4.29681
21
-3.51358
0
LINE
8
BLACK
6
CONTINUOUS
10
4.29681
20
-3.51358
11
4.30416
21
-3.51435
0
LINE
8
BLACK
6
CONTINUOUS
10
6.08263
20
-3.50284
11
6.08519
21
-3.50455
0
LINE
8
BLACK
6
CONTINUOUS
10
6.08519
20
-3.50455
11
6.08689
21
-3.5071
0
LINE
8
BLACK
6
CONTINUOUS
10
6.08689
20
-3.5071
11
6.08749
21
-3.51012
0
LINE
8
BLACK
6
CONTINUOUS
10
6.08749
20
-3.51012
11
6.08749
21
-3.55736
0
LINE
8
BLACK
6
CONTINUOUS
10
6.08749
20
-3.55736
11
6.08689
21
-3.56037
0
LINE
8
BLACK
6
CONTINUOUS
10
6.08689
20
-3.56037
11
6.08519
21
-3.56293
0
LINE
8
BLACK
6
CONTINUOUS
10
6.08519
20
-3.56293
11
6.08263
21
-3.56463
0
LINE
8
BLACK
6
CONTINUOUS
10
6.08263
20
-3.56463
11
6.07962
21
-3.56523
0
LINE
8
BLACK
6
CONTINUOUS
10
6.07962
20
-3.56523
11
6.01663
21
-3.56523
0
LINE
8
BLACK
6
CONTINUOUS
10
6.01663
20
-3.56523
11
6.01361
21
-3.56463
0
LINE
8
BLACK
6
CONTINUOUS
10
6.01361
20
-3.56463
11
6.01106
21
-3.56293
0
LINE
8
BLACK
6
CONTINUOUS
10
6.01106
20
-3.56293
11
6.00935
21
-3.56037
0
LINE
8
BLACK
6
CONTINUOUS
10
6.00935
20
-3.56037
11
6.00875
21
-3.55736
0
LINE
8
BLACK
6
CONTINUOUS
10
6.00875
20
-3.55736
11
6.00875
21
-3.51012
0
LINE
8
BLACK
6
CONTINUOUS
10
6.00875
20
-3.51012
11
6.00935
21
-3.5071
0
LINE
8
BLACK
6
CONTINUOUS
10
6.00935
20
-3.5071
11
6.01106
21
-3.50455
0
LINE
8
BLACK
6
CONTINUOUS
10
6.01106
20
-3.50455
11
6.01361
21
-3.50284
0
LINE
8
BLACK
6
CONTINUOUS
10
6.01361
20
-3.50284
11
6.01663
21
-3.50224
0
LINE
8
BLACK
6
CONTINUOUS
10
6.01663
20
-3.50224
11
6.07962
21
-3.50224
0
LINE
8
BLACK
6
CONTINUOUS
10
6.07962
20
-3.50224
11
6.08263
21
-3.50284
0
LINE
8
BLACK
6
CONTINUOUS
10
5.5462
20
-3.41875
11
5.55317
21
-3.42091
0
LINE
8
BLACK
6
CONTINUOUS
10
5.55317
20
-3.42091
11
5.55959
21
-3.42438
0
LINE
8
BLACK
6
CONTINUOUS
10
5.55959
20
-3.42438
11
5.56521
21
-3.42904
0
LINE
8
BLACK
6
CONTINUOUS
10
5.56521
20
-3.42904
11
5.56983
21
-3.43469
0
LINE
8
BLACK
6
CONTINUOUS
10
5.56983
20
-3.43469
11
5.57325
21
-3.44114
0
LINE
8
BLACK
6
CONTINUOUS
10
5.57325
20
-3.44114
11
5.57536
21
-3.44813
0
LINE
8
BLACK
6
CONTINUOUS
10
5.57536
20
-3.44813
11
5.57608
21
-3.45539
0
LINE
8
BLACK
6
CONTINUOUS
10
5.57608
20
-3.45539
11
5.57606
21
-3.45644
0
LINE
8
BLACK
6
CONTINUOUS
10
5.57606
20
-3.45644
11
5.57515
21
-3.46368
0
LINE
8
BLACK
6
CONTINUOUS
10
5.57515
20
-3.46368
11
5.57284
21
-3.4706
0
LINE
8
BLACK
6
CONTINUOUS
10
5.57284
20
-3.4706
11
5.56924
21
-3.47695
0
LINE
8
BLACK
6
CONTINUOUS
10
5.56924
20
-3.47695
11
5.56447
21
-3.48248
0
LINE
8
BLACK
6
CONTINUOUS
10
5.56447
20
-3.48248
11
5.55872
21
-3.48697
0
LINE
8
BLACK
6
CONTINUOUS
10
5.55872
20
-3.48697
11
5.5522
21
-3.49026
0
LINE
8
BLACK
6
CONTINUOUS
10
5.5522
20
-3.49026
11
5.54517
21
-3.49222
0
LINE
8
BLACK
6
CONTINUOUS
10
5.54517
20
-3.49222
11
5.53789
21
-3.49278
0
LINE
8
BLACK
6
CONTINUOUS
10
5.53789
20
-3.49278
11
5.53064
21
-3.49192
0
LINE
8
BLACK
6
CONTINUOUS
10
5.53064
20
-3.49192
11
5.5237
21
-3.48966
0
LINE
8
BLACK
6
CONTINUOUS
10
5.5237
20
-3.48966
11
5.51733
21
-3.4861
0
LINE
8
BLACK
6
CONTINUOUS
10
5.51733
20
-3.4861
11
5.51177
21
-3.48137
0
LINE
8
BLACK
6
CONTINUOUS
10
5.51177
20
-3.48137
11
5.50724
21
-3.47565
0
LINE
8
BLACK
6
CONTINUOUS
10
5.50724
20
-3.47565
11
5.5039
21
-3.46916
0
LINE
8
BLACK
6
CONTINUOUS
10
5.5039
20
-3.46916
11
5.50189
21
-3.46214
0
LINE
8
BLACK
6
CONTINUOUS
10
5.50189
20
-3.46214
11
5.50128
21
-3.45487
0
LINE
8
BLACK
6
CONTINUOUS
10
5.50128
20
-3.45487
11
5.50209
21
-3.44761
0
LINE
8
BLACK
6
CONTINUOUS
10
5.50209
20
-3.44761
11
5.5043
21
-3.44066
0
LINE
8
BLACK
6
CONTINUOUS
10
5.5043
20
-3.44066
11
5.50781
21
-3.43426
0
LINE
8
BLACK
6
CONTINUOUS
10
5.50781
20
-3.43426
11
5.51251
21
-3.42867
0
LINE
8
BLACK
6
CONTINUOUS
10
5.51251
20
-3.42867
11
5.5182
21
-3.42409
0
LINE
8
BLACK
6
CONTINUOUS
10
5.5182
20
-3.42409
11
5.52466
21
-3.42071
0
LINE
8
BLACK
6
CONTINUOUS
10
5.52466
20
-3.42071
11
5.53167
21
-3.41865
0
LINE
8
BLACK
6
CONTINUOUS
10
5.53167
20
-3.41865
11
5.53894
21
-3.41799
0
LINE
8
BLACK
6
CONTINUOUS
10
5.53894
20
-3.41799
11
5.5462
21
-3.41875
0
LINE
8
BLACK
6
CONTINUOUS
10
6.28736
20
-3.18847
11
6.28991
21
-3.19018
0
LINE
8
BLACK
6
CONTINUOUS
10
6.28991
20
-3.19018
11
6.29162
21
-3.19273
0
LINE
8
BLACK
6
CONTINUOUS
10
6.29162
20
-3.19273
11
6.29222
21
-3.19575
0
LINE
8
BLACK
6
CONTINUOUS
10
6.29222
20
-3.19575
11
6.29222
21
-3.29417
0
LINE
8
BLACK
6
CONTINUOUS
10
6.29222
20
-3.29417
11
6.29162
21
-3.29718
0
LINE
8
BLACK
6
CONTINUOUS
10
6.29162
20
-3.29718
11
6.28991
21
-3.29974
0
LINE
8
BLACK
6
CONTINUOUS
10
6.28991
20
-3.29974
11
6.28736
21
-3.30144
0
LINE
8
BLACK
6
CONTINUOUS
10
6.28736
20
-3.30144
11
6.28434
21
-3.30204
0
LINE
8
BLACK
6
CONTINUOUS
10
6.28434
20
-3.30204
11
6.08749
21
-3.30204
0
LINE
8
BLACK
6
CONTINUOUS
10
6.08749
20
-3.30204
11
6.08448
21
-3.30144
0
LINE
8
BLACK
6
CONTINUOUS
10
6.08448
20
-3.30144
11
6.08193
21
-3.29974
0
LINE
8
BLACK
6
CONTINUOUS
10
6.08193
20
-3.29974
11
6.08022
21
-3.29718
0
LINE
8
BLACK
6
CONTINUOUS
10
6.08022
20
-3.29718
11
6.07962
21
-3.29417
0
LINE
8
BLACK
6
CONTINUOUS
10
6.07962
20
-3.29417
11
6.07962
21
-3.19575
0
LINE
8
BLACK
6
CONTINUOUS
10
6.07962
20
-3.19575
11
6.08022
21
-3.19273
0
LINE
8
BLACK
6
CONTINUOUS
10
6.08022
20
-3.19273
11
6.08193
21
-3.19018
0
LINE
8
BLACK
6
CONTINUOUS
10
6.08193
20
-3.19018
11
6.08448
21
-3.18847
0
LINE
8
BLACK
6
CONTINUOUS
10
6.08448
20
-3.18847
11
6.08749
21
-3.18787
0
LINE
8
BLACK
6
CONTINUOUS
10
6.08749
20
-3.18787
11
6.28434
21
-3.18787
0
LINE
8
BLACK
6
CONTINUOUS
10
6.28434
20
-3.18787
11
6.28736
21
-3.18847
0
LINE
8
BLACK
6
CONTINUOUS
10
7.24011
20
-3.18847
11
7.24267
21
-3.19018
0
LINE
8
BLACK
6
CONTINUOUS
10
7.24267
20
-3.19018
11
7.24437
21
-3.19273
0
LINE
8
BLACK
6
CONTINUOUS
10
7.24437
20
-3.19273
11
7.24497
21
-3.19575
0
LINE
8
BLACK
6
CONTINUOUS
10
7.24497
20
-3.19575
11
7.24497
21
-3.29417
0
LINE
8
BLACK
6
CONTINUOUS
10
7.24497
20
-3.29417
11
7.24437
21
-3.29718
0
LINE
8
BLACK
6
CONTINUOUS
10
7.24437
20
-3.29718
11
7.24267
21
-3.29974
0
LINE
8
BLACK
6
CONTINUOUS
10
7.24267
20
-3.29974
11
7.24011
21
-3.30144
0
LINE
8
BLACK
6
CONTINUOUS
10
7.24011
20
-3.30144
11
7.2371
21
-3.30204
0
LINE
8
BLACK
6
CONTINUOUS
10
7.2371
20
-3.30204
11
7.04025
21
-3.30204
0
LINE
8
BLACK
6
CONTINUOUS
10
7.04025
20
-3.30204
11
7.03724
21
-3.30144
0
LINE
8
BLACK
6
CONTINUOUS
10
7.03724
20
-3.30144
11
7.03468
21
-3.29974
0
LINE
8
BLACK
6
CONTINUOUS
10
7.03468
20
-3.29974
11
7.03297
21
-3.29718
0
LINE
8
BLACK
6
CONTINUOUS
10
7.03297
20
-3.29718
11
7.03238
21
-3.29417
0
LINE
8
BLACK
6
CONTINUOUS
10
7.03238
20
-3.29417
11
7.03238
21
-3.19575
0
LINE
8
BLACK
6
CONTINUOUS
10
7.03238
20
-3.19575
11
7.03297
21
-3.19273
0
LINE
8
BLACK
6
CONTINUOUS
10
7.03297
20
-3.19273
11
7.03468
21
-3.19018
0
LINE
8
BLACK
6
CONTINUOUS
10
7.03468
20
-3.19018
11
7.03724
21
-3.18847
0
LINE
8
BLACK
6
CONTINUOUS
10
7.03724
20
-3.18847
11
7.04025
21
-3.18787
0
LINE
8
BLACK
6
CONTINUOUS
10
7.04025
20
-3.18787
11
7.2371
21
-3.18787
0
LINE
8
BLACK
6
CONTINUOUS
10
7.2371
20
-3.18787
11
7.24011
21
-3.18847
0
LINE
8
BLACK
6
CONTINUOUS
10
4.10359
20
-2.97242
11
4.11744
21
-2.97486
0
LINE
8
BLACK
6
CONTINUOUS
10
4.11744
20
-2.97486
11
4.13094
21
-2.97883
0
LINE
8
BLACK
6
CONTINUOUS
10
4.13094
20
-2.97883
11
4.1439
21
-2.98428
0
LINE
8
BLACK
6
CONTINUOUS
10
4.1439
20
-2.98428
11
4.15618
21
-2.99114
0
LINE
8
BLACK
6
CONTINUOUS
10
4.15618
20
-2.99114
11
4.16762
21
-2.99933
0
LINE
8
BLACK
6
CONTINUOUS
10
4.16762
20
-2.99933
11
4.17807
21
-3.00874
0
LINE
8
BLACK
6
CONTINUOUS
10
4.17807
20
-3.00874
11
4.18741
21
-3.01926
0
LINE
8
BLACK
6
CONTINUOUS
10
4.18741
20
-3.01926
11
4.19552
21
-3.03076
0
LINE
8
BLACK
6
CONTINUOUS
10
4.19552
20
-3.03076
11
4.20229
21
-3.04308
0
LINE
8
BLACK
6
CONTINUOUS
10
4.20229
20
-3.04308
11
4.20765
21
-3.05608
0
LINE
8
BLACK
6
CONTINUOUS
10
4.20765
20
-3.05608
11
4.21153
21
-3.06961
0
LINE
8
BLACK
6
CONTINUOUS
10
4.21153
20
-3.06961
11
4.21387
21
-3.08347
0
LINE
8
BLACK
6
CONTINUOUS
10
4.21387
20
-3.08347
11
4.21466
21
-3.09752
0
LINE
8
BLACK
6
CONTINUOUS
10
4.21466
20
-3.09752
11
4.21461
21
-3.10103
0
LINE
8
BLACK
6
CONTINUOUS
10
4.21461
20
-3.10103
11
4.21343
21
-3.11505
0
LINE
8
BLACK
6
CONTINUOUS
10
4.21343
20
-3.11505
11
4.2107
21
-3.12885
0
LINE
8
BLACK
6
CONTINUOUS
10
4.2107
20
-3.12885
11
4.20645
21
-3.14225
0
LINE
8
BLACK
6
CONTINUOUS
10
4.20645
20
-3.14225
11
4.20073
21
-3.1551
0
LINE
8
BLACK
6
CONTINUOUS
10
4.20073
20
-3.1551
11
4.19361
21
-3.16724
0
LINE
8
BLACK
6
CONTINUOUS
10
4.19361
20
-3.16724
11
4.18518
21
-3.1785
0
LINE
8
BLACK
6
CONTINUOUS
10
4.18518
20
-3.1785
11
4.17556
21
-3.18875
0
LINE
8
BLACK
6
CONTINUOUS
10
4.17556
20
-3.18875
11
4.16484
21
-3.19787
0
LINE
8
BLACK
6
CONTINUOUS
10
4.16484
20
-3.19787
11
4.15318
21
-3.20573
0
LINE
8
BLACK
6
CONTINUOUS
10
4.15318
20
-3.20573
11
4.14072
21
-3.21225
0
LINE
8
BLACK
6
CONTINUOUS
10
4.14072
20
-3.21225
11
4.12761
21
-3.21733
0
LINE
8
BLACK
6
CONTINUOUS
10
4.12761
20
-3.21733
11
4.11401
21
-3.22093
0
LINE
8
BLACK
6
CONTINUOUS
10
4.11401
20
-3.22093
11
4.10009
21
-3.22298
0
LINE
8
BLACK
6
CONTINUOUS
10
4.10009
20
-3.22298
11
4.08604
21
-3.22347
0
LINE
8
BLACK
6
CONTINUOUS
10
4.08604
20
-3.22347
11
4.07201
21
-3.22239
0
LINE
8
BLACK
6
CONTINUOUS
10
4.07201
20
-3.22239
11
4.0582
21
-3.21976
0
LINE
8
BLACK
6
CONTINUOUS
10
4.0582
20
-3.21976
11
4.04476
21
-3.2156
0
LINE
8
BLACK
6
CONTINUOUS
10
4.04476
20
-3.2156
11
4.03187
21
-3.20997
0
LINE
8
BLACK
6
CONTINUOUS
10
4.03187
20
-3.20997
11
4.01969
21
-3.20294
0
LINE
8
BLACK
6
CONTINUOUS
10
4.01969
20
-3.20294
11
4.00837
21
-3.19459
0
LINE
8
BLACK
6
CONTINUOUS
10
4.00837
20
-3.19459
11
3.99805
21
-3.18503
0
LINE
8
BLACK
6
CONTINUOUS
10
3.99805
20
-3.18503
11
3.98886
21
-3.17439
0
LINE
8
BLACK
6
CONTINUOUS
10
3.98886
20
-3.17439
11
3.98091
21
-3.16278
0
LINE
8
BLACK
6
CONTINUOUS
10
3.98091
20
-3.16278
11
3.97431
21
-3.15036
0
LINE
8
BLACK
6
CONTINUOUS
10
3.97431
20
-3.15036
11
3.96913
21
-3.13728
0
LINE
8
BLACK
6
CONTINUOUS
10
3.96913
20
-3.13728
11
3.96544
21
-3.12371
0
LINE
8
BLACK
6
CONTINUOUS
10
3.96544
20
-3.12371
11
3.96329
21
-3.10981
0
LINE
8
BLACK
6
CONTINUOUS
10
3.96329
20
-3.10981
11
3.9627
21
-3.09576
0
LINE
8
BLACK
6
CONTINUOUS
10
3.9627
20
-3.09576
11
3.96368
21
-3.08173
0
LINE
8
BLACK
6
CONTINUOUS
10
3.96368
20
-3.08173
11
3.96622
21
-3.06789
0
LINE
8
BLACK
6
CONTINUOUS
10
3.96622
20
-3.06789
11
3.97029
21
-3.05443
0
LINE
8
BLACK
6
CONTINUOUS
10
3.97029
20
-3.05443
11
3.97583
21
-3.0415
0
LINE
8
BLACK
6
CONTINUOUS
10
3.97583
20
-3.0415
11
3.98278
21
-3.02927
0
LINE
8
BLACK
6
CONTINUOUS
10
3.98278
20
-3.02927
11
3.99104
21
-3.01789
0
LINE
8
BLACK
6
CONTINUOUS
10
3.99104
20
-3.01789
11
4.00053
21
-3.0075
0
LINE
8
BLACK
6
CONTINUOUS
10
4.00053
20
-3.0075
11
4.01111
21
-2.99824
0
LINE
8
BLACK
6
CONTINUOUS
10
4.01111
20
-2.99824
11
4.02266
21
-2.99021
0
LINE
8
BLACK
6
CONTINUOUS
10
4.02266
20
-2.99021
11
4.03503
21
-2.98352
0
LINE
8
BLACK
6
CONTINUOUS
10
4.03503
20
-2.98352
11
4.04807
21
-2.97825
0
LINE
8
BLACK
6
CONTINUOUS
10
4.04807
20
-2.97825
11
4.06162
21
-2.97447
0
LINE
8
BLACK
6
CONTINUOUS
10
4.06162
20
-2.97447
11
4.07551
21
-2.97222
0
LINE
8
BLACK
6
CONTINUOUS
10
4.07551
20
-2.97222
11
4.08955
21
-2.97154
0
LINE
8
BLACK
6
CONTINUOUS
10
4.08955
20
-2.97154
11
4.10359
21
-2.97242
0
LINE
8
BLACK
6
CONTINUOUS
10
6.90359
20
-2.97242
11
6.91744
21
-2.97486
0
LINE
8
BLACK
6
CONTINUOUS
10
6.91744
20
-2.97486
11
6.93094
21
-2.97883
0
LINE
8
BLACK
6
CONTINUOUS
10
6.93094
20
-2.97883
11
6.9439
21
-2.98428
0
LINE
8
BLACK
6
CONTINUOUS
10
6.9439
20
-2.98428
11
6.95618
21
-2.99114
0
LINE
8
BLACK
6
CONTINUOUS
10
6.95618
20
-2.99114
11
6.96762
21
-2.99933
0
LINE
8
BLACK
6
CONTINUOUS
10
6.96762
20
-2.99933
11
6.97807
21
-3.00874
0
LINE
8
BLACK
6
CONTINUOUS
10
6.97807
20
-3.00874
11
6.98741
21
-3.01926
0
LINE
8
BLACK
6
CONTINUOUS
10
6.98741
20
-3.01926
11
6.99552
21
-3.03076
0
LINE
8
BLACK
6
CONTINUOUS
10
6.99552
20
-3.03076
11
7.00229
21
-3.04308
0
LINE
8
BLACK
6
CONTINUOUS
10
7.00229
20
-3.04308
11
7.00765
21
-3.05608
0
LINE
8
BLACK
6
CONTINUOUS
10
7.00765
20
-3.05608
11
7.01153
21
-3.06961
0
LINE
8
BLACK
6
CONTINUOUS
10
7.01153
20
-3.06961
11
7.01387
21
-3.08347
0
LINE
8
BLACK
6
CONTINUOUS
10
7.01387
20
-3.08347
11
7.01466
21
-3.09752
0
LINE
8
BLACK
6
CONTINUOUS
10
7.01466
20
-3.09752
11
7.01461
21
-3.10103
0
LINE
8
BLACK
6
CONTINUOUS
10
7.01461
20
-3.10103
11
7.01343
21
-3.11505
0
LINE
8
BLACK
6
CONTINUOUS
10
7.01343
20
-3.11505
11
7.0107
21
-3.12885
0
LINE
8
BLACK
6
CONTINUOUS
10
7.0107
20
-3.12885
11
7.00645
21
-3.14225
0
LINE
8
BLACK
6
CONTINUOUS
10
7.00645
20
-3.14225
11
7.00073
21
-3.1551
0
LINE
8
BLACK
6
CONTINUOUS
10
7.00073
20
-3.1551
11
6.99361
21
-3.16724
0
LINE
8
BLACK
6
CONTINUOUS
10
6.99361
20
-3.16724
11
6.98518
21
-3.1785
0
LINE
8
BLACK
6
CONTINUOUS
10
6.98518
20
-3.1785
11
6.97556
21
-3.18875
0
LINE
8
BLACK
6
CONTINUOUS
10
6.97556
20
-3.18875
11
6.96484
21
-3.19787
0
LINE
8
BLACK
6
CONTINUOUS
10
6.96484
20
-3.19787
11
6.95318
21
-3.20573
0
LINE
8
BLACK
6
CONTINUOUS
10
6.95318
20
-3.20573
11
6.94072
21
-3.21225
0
LINE
8
BLACK
6
CONTINUOUS
10
6.94072
20
-3.21225
11
6.92761
21
-3.21733
0
LINE
8
BLACK
6
CONTINUOUS
10
6.92761
20
-3.21733
11
6.91401
21
-3.22093
0
LINE
8
BLACK
6
CONTINUOUS
10
6.91401
20
-3.22093
11
6.90009
21
-3.22298
0
LINE
8
BLACK
6
CONTINUOUS
10
6.90009
20
-3.22298
11
6.88604
21
-3.22347
0
LINE
8
BLACK
6
CONTINUOUS
10
6.88604
20
-3.22347
11
6.87201
21
-3.22239
0
LINE
8
BLACK
6
CONTINUOUS
10
6.87201
20
-3.22239
11
6.8582
21
-3.21976
0
LINE
8
BLACK
6
CONTINUOUS
10
6.8582
20
-3.21976
11
6.84476
21
-3.2156
0
LINE
8
BLACK
6
CONTINUOUS
10
6.84476
20
-3.2156
11
6.83187
21
-3.20997
0
LINE
8
BLACK
6
CONTINUOUS
10
6.83187
20
-3.20997
11
6.81969
21
-3.20294
0
LINE
8
BLACK
6
CONTINUOUS
10
6.81969
20
-3.20294
11
6.80837
21
-3.19459
0
LINE
8
BLACK
6
CONTINUOUS
10
6.80837
20
-3.19459
11
6.79805
21
-3.18503
0
LINE
8
BLACK
6
CONTINUOUS
10
6.79805
20
-3.18503
11
6.78886
21
-3.17439
0
LINE
8
BLACK
6
CONTINUOUS
10
6.78886
20
-3.17439
11
6.78091
21
-3.16278
0
LINE
8
BLACK
6
CONTINUOUS
10
6.78091
20
-3.16278
11
6.77431
21
-3.15036
0
LINE
8
BLACK
6
CONTINUOUS
10
6.77431
20
-3.15036
11
6.76913
21
-3.13728
0
LINE
8
BLACK
6
CONTINUOUS
10
6.76913
20
-3.13728
11
6.76544
21
-3.12371
0
LINE
8
BLACK
6
CONTINUOUS
10
6.76544
20
-3.12371
11
6.76329
21
-3.10981
0
LINE
8
BLACK
6
CONTINUOUS
10
6.76329
20
-3.10981
11
6.7627
21
-3.09576
0
LINE
8
BLACK
6
CONTINUOUS
10
6.7627
20
-3.09576
11
6.76368
21
-3.08173
0
LINE
8
BLACK
6
CONTINUOUS
10
6.76368
20
-3.08173
11
6.76622
21
-3.06789
0
LINE
8
BLACK
6
CONTINUOUS
10
6.76622
20
-3.06789
11
6.77029
21
-3.05443
0
LINE
8
BLACK
6
CONTINUOUS
10
6.77029
20
-3.05443
11
6.77583
21
-3.0415
0
LINE
8
BLACK
6
CONTINUOUS
10
6.77583
20
-3.0415
11
6.78278
21
-3.02927
0
LINE
8
BLACK
6
CONTINUOUS
10
6.78278
20
-3.02927
11
6.79104
21
-3.01789
0
LINE
8
BLACK
6
CONTINUOUS
10
6.79104
20
-3.01789
11
6.80053
21
-3.0075
0
LINE
8
BLACK
6
CONTINUOUS
10
6.80053
20
-3.0075
11
6.81111
21
-2.99824
0
LINE
8
BLACK
6
CONTINUOUS
10
6.81111
20
-2.99824
11
6.82266
21
-2.99021
0
LINE
8
BLACK
6
CONTINUOUS
10
6.82266
20
-2.99021
11
6.83503
21
-2.98352
0
LINE
8
BLACK
6
CONTINUOUS
10
6.83503
20
-2.98352
11
6.84807
21
-2.97825
0
LINE
8
BLACK
6
CONTINUOUS
10
6.84807
20
-2.97825
11
6.86162
21
-2.97447
0
LINE
8
BLACK
6
CONTINUOUS
10
6.86162
20
-2.97447
11
6.87551
21
-2.97222
0
LINE
8
BLACK
6
CONTINUOUS
10
6.87551
20
-2.97222
11
6.88955
21
-2.97154
0
LINE
8
BLACK
6
CONTINUOUS
10
6.88955
20
-2.97154
11
6.90359
21
-2.97242
0
LINE
8
BLACK
6
CONTINUOUS
10
5.84177
20
-3.00024
11
5.84432
21
-3.00195
0
LINE
8
BLACK
6
CONTINUOUS
10
5.84432
20
-3.00195
11
5.84603
21
-3.0045
0
LINE
8
BLACK
6
CONTINUOUS
10
5.84603
20
-3.0045
11
5.84663
21
-3.00752
0
LINE
8
BLACK
6
CONTINUOUS
10
5.84663
20
-3.00752
11
5.84663
21
-3.20752
0
LINE
8
BLACK
6
CONTINUOUS
10
5.84663
20
-3.20752
11
5.84603
21
-3.21053
0
LINE
8
BLACK
6
CONTINUOUS
10
5.84603
20
-3.21053
11
5.84432
21
-3.21308
0
LINE
8
BLACK
6
CONTINUOUS
10
5.84432
20
-3.21308
11
5.84177
21
-3.21479
0
LINE
8
BLACK
6
CONTINUOUS
10
5.84177
20
-3.21479
11
5.83875
21
-3.21539
0
LINE
8
BLACK
6
CONTINUOUS
10
5.83875
20
-3.21539
11
5.76867
21
-3.21539
0
LINE
8
BLACK
6
CONTINUOUS
10
5.76867
20
-3.21539
11
5.76566
21
-3.21479
0
LINE
8
BLACK
6
CONTINUOUS
10
5.76566
20
-3.21479
11
5.76311
21
-3.21308
0
LINE
8
BLACK
6
CONTINUOUS
10
5.76311
20
-3.21308
11
5.7614
21
-3.21053
0
LINE
8
BLACK
6
CONTINUOUS
10
5.7614
20
-3.21053
11
5.7608
21
-3.20752
0
LINE
8
BLACK
6
CONTINUOUS
10
5.7608
20
-3.20752
11
5.7608
21
-3.00752
0
LINE
8
BLACK
6
CONTINUOUS
10
5.7608
20
-3.00752
11
5.7614
21
-3.0045
0
LINE
8
BLACK
6
CONTINUOUS
10
5.7614
20
-3.0045
11
5.76311
21
-3.00195
0
LINE
8
BLACK
6
CONTINUOUS
10
5.76311
20
-3.00195
11
5.76566
21
-3.00024
0
LINE
8
BLACK
6
CONTINUOUS
10
5.76566
20
-3.00024
11
5.76867
21
-2.99964
0
LINE
8
BLACK
6
CONTINUOUS
10
5.76867
20
-2.99964
11
5.83875
21
-2.99964
0
LINE
8
BLACK
6
CONTINUOUS
10
5.83875
20
-2.99964
11
5.84177
21
-3.00024
0
LINE
8
BLACK
6
CONTINUOUS
10
5.47169
20
-3.00024
11
5.47424
21
-3.00195
0
LINE
8
BLACK
6
CONTINUOUS
10
5.47424
20
-3.00195
11
5.47595
21
-3.0045
0
LINE
8
BLACK
6
CONTINUOUS
10
5.47595
20
-3.0045
11
5.47655
21
-3.00752
0
LINE
8
BLACK
6
CONTINUOUS
10
5.47655
20
-3.00752
11
5.47655
21
-3.20752
0
LINE
8
BLACK
6
CONTINUOUS
10
5.47655
20
-3.20752
11
5.47595
21
-3.21053
0
LINE
8
BLACK
6
CONTINUOUS
10
5.47595
20
-3.21053
11
5.47424
21
-3.21308
0
LINE
8
BLACK
6
CONTINUOUS
10
5.47424
20
-3.21308
11
5.47169
21
-3.21479
0
LINE
8
BLACK
6
CONTINUOUS
10
5.47169
20
-3.21479
11
5.46867
21
-3.21539
0
LINE
8
BLACK
6
CONTINUOUS
10
5.46867
20
-3.21539
11
5.3986
21
-3.21539
0
LINE
8
BLACK
6
CONTINUOUS
10
5.3986
20
-3.21539
11
5.39558
21
-3.21479
0
LINE
8
BLACK
6
CONTINUOUS
10
5.39558
20
-3.21479
11
5.39303
21
-3.21308
0
LINE
8
BLACK
6
CONTINUOUS
10
5.39303
20
-3.21308
11
5.39132
21
-3.21053
0
LINE
8
BLACK
6
CONTINUOUS
10
5.39132
20
-3.21053
11
5.39072
21
-3.20752
0
LINE
8
BLACK
6
CONTINUOUS
10
5.39072
20
-3.20752
11
5.39072
21
-3.00752
0
LINE
8
BLACK
6
CONTINUOUS
10
5.39072
20
-3.00752
11
5.39132
21
-3.0045
0
LINE
8
BLACK
6
CONTINUOUS
10
5.39132
20
-3.0045
11
5.39303
21
-3.00195
0
LINE
8
BLACK
6
CONTINUOUS
10
5.39303
20
-3.00195
11
5.39558
21
-3.00024
0
LINE
8
BLACK
6
CONTINUOUS
10
5.39558
20
-3.00024
11
5.3986
21
-2.99964
0
LINE
8
BLACK
6
CONTINUOUS
10
5.3986
20
-2.99964
11
5.46867
21
-2.99964
0
LINE
8
BLACK
6
CONTINUOUS
10
5.46867
20
-2.99964
11
5.47169
21
-3.00024
0
LINE
8
BLACK
6
CONTINUOUS
10
5.69964
20
-3.02229
11
5.7022
21
-3.024
0
LINE
8
BLACK
6
CONTINUOUS
10
5.7022
20
-3.024
11
5.7039
21
-3.02655
0
LINE
8
BLACK
6
CONTINUOUS
10
5.7039
20
-3.02655
11
5.7045
21
-3.02956
0
LINE
8
BLACK
6
CONTINUOUS
10
5.7045
20
-3.02956
11
5.7045
21
-3.18547
0
LINE
8
BLACK
6
CONTINUOUS
10
5.7045
20
-3.18547
11
5.7039
21
-3.18848
0
LINE
8
BLACK
6
CONTINUOUS
10
5.7039
20
-3.18848
11
5.7022
21
-3.19104
0
LINE
8
BLACK
6
CONTINUOUS
10
5.7022
20
-3.19104
11
5.69964
21
-3.19274
0
LINE
8
BLACK
6
CONTINUOUS
10
5.69964
20
-3.19274
11
5.69663
21
-3.19334
0
LINE
8
BLACK
6
CONTINUOUS
10
5.69663
20
-3.19334
11
5.54072
21
-3.19334
0
LINE
8
BLACK
6
CONTINUOUS
10
5.54072
20
-3.19334
11
5.53771
21
-3.19274
0
LINE
8
BLACK
6
CONTINUOUS
10
5.53771
20
-3.19274
11
5.53515
21
-3.19104
0
LINE
8
BLACK
6
CONTINUOUS
10
5.53515
20
-3.19104
11
5.53345
21
-3.18848
0
LINE
8
BLACK
6
CONTINUOUS
10
5.53345
20
-3.18848
11
5.53285
21
-3.18547
0
LINE
8
BLACK
6
CONTINUOUS
10
5.53285
20
-3.18547
11
5.53285
21
-3.02956
0
LINE
8
BLACK
6
CONTINUOUS
10
5.53285
20
-3.02956
11
5.53345
21
-3.02655
0
LINE
8
BLACK
6
CONTINUOUS
10
5.53345
20
-3.02655
11
5.53515
21
-3.024
0
LINE
8
BLACK
6
CONTINUOUS
10
5.53515
20
-3.024
11
5.53771
21
-3.02229
0
LINE
8
BLACK
6
CONTINUOUS
10
5.53771
20
-3.02229
11
5.54072
21
-3.02169
0
LINE
8
BLACK
6
CONTINUOUS
10
5.54072
20
-3.02169
11
5.69663
21
-3.02169
0
LINE
8
BLACK
6
CONTINUOUS
10
5.69663
20
-3.02169
11
5.69964
21
-3.02229
0
LINE
8
BLACK
6
CONTINUOUS
10
6.64314
20
-3.12047
11
6.64811
21
-3.12221
0
LINE
8
BLACK
6
CONTINUOUS
10
6.64811
20
-3.12221
11
6.65234
21
-3.12534
0
LINE
8
BLACK
6
CONTINUOUS
10
6.65234
20
-3.12534
11
6.65547
21
-3.12958
0
LINE
8
BLACK
6
CONTINUOUS
10
6.65547
20
-3.12958
11
6.65722
21
-3.13455
0
LINE
8
BLACK
6
CONTINUOUS
10
6.65722
20
-3.13455
11
6.65753
21
-3.13787
0
LINE
8
BLACK
6
CONTINUOUS
10
6.65753
20
-3.13787
11
6.65753
21
-3.1674
0
LINE
8
BLACK
6
CONTINUOUS
10
6.65753
20
-3.1674
11
6.65722
21
-3.17072
0
LINE
8
BLACK
6
CONTINUOUS
10
6.65722
20
-3.17072
11
6.65547
21
-3.17569
0
LINE
8
BLACK
6
CONTINUOUS
10
6.65547
20
-3.17569
11
6.65234
21
-3.17993
0
LINE
8
BLACK
6
CONTINUOUS
10
6.65234
20
-3.17993
11
6.64811
21
-3.18306
0
LINE
8
BLACK
6
CONTINUOUS
10
6.64811
20
-3.18306
11
6.64314
21
-3.1848
0
LINE
8
BLACK
6
CONTINUOUS
10
6.64314
20
-3.1848
11
6.63982
21
-3.18512
0
LINE
8
BLACK
6
CONTINUOUS
10
6.63982
20
-3.18512
11
6.5906
21
-3.18512
0
LINE
8
BLACK
6
CONTINUOUS
10
6.5906
20
-3.18512
11
6.58728
21
-3.1848
0
LINE
8
BLACK
6
CONTINUOUS
10
6.58728
20
-3.1848
11
6.58231
21
-3.18306
0
LINE
8
BLACK
6
CONTINUOUS
10
6.58231
20
-3.18306
11
6.57808
21
-3.17993
0
LINE
8
BLACK
6
CONTINUOUS
10
6.57808
20
-3.17993
11
6.57495
21
-3.17569
0
LINE
8
BLACK
6
CONTINUOUS
10
6.57495
20
-3.17569
11
6.5732
21
-3.17072
0
LINE
8
BLACK
6
CONTINUOUS
10
6.5732
20
-3.17072
11
6.57289
21
-3.1674
0
LINE
8
BLACK
6
CONTINUOUS
10
6.57289
20
-3.1674
11
6.57289
21
-3.13787
0
LINE
8
BLACK
6
CONTINUOUS
10
6.57289
20
-3.13787
11
6.5732
21
-3.13455
0
LINE
8
BLACK
6
CONTINUOUS
10
6.5732
20
-3.13455
11
6.57495
21
-3.12958
0
LINE
8
BLACK
6
CONTINUOUS
10
6.57495
20
-3.12958
11
6.57808
21
-3.12534
0
LINE
8
BLACK
6
CONTINUOUS
10
6.57808
20
-3.12534
11
6.58231
21
-3.12221
0
LINE
8
BLACK
6
CONTINUOUS
10
6.58231
20
-3.12221
11
6.58728
21
-3.12047
0
LINE
8
BLACK
6
CONTINUOUS
10
6.58728
20
-3.12047
11
6.5906
21
-3.12015
0
LINE
8
BLACK
6
CONTINUOUS
10
6.5906
20
-3.12015
11
6.63982
21
-3.12015
0
LINE
8
BLACK
6
CONTINUOUS
10
6.63982
20
-3.12015
11
6.64314
21
-3.12047
0
LINE
8
BLACK
6
CONTINUOUS
10
6.25169
20
-3.06024
11
6.25424
21
-3.06195
0
LINE
8
BLACK
6
CONTINUOUS
10
6.25424
20
-3.06195
11
6.25595
21
-3.0645
0
LINE
8
BLACK
6
CONTINUOUS
10
6.25595
20
-3.0645
11
6.25655
21
-3.06752
0
LINE
8
BLACK
6
CONTINUOUS
10
6.25655
20
-3.06752
11
6.25655
21
-3.12752
0
LINE
8
BLACK
6
CONTINUOUS
10
6.25655
20
-3.12752
11
6.25595
21
-3.13053
0
LINE
8
BLACK
6
CONTINUOUS
10
6.25595
20
-3.13053
11
6.25424
21
-3.13308
0
LINE
8
BLACK
6
CONTINUOUS
10
6.25424
20
-3.13308
11
6.25169
21
-3.13479
0
LINE
8
BLACK
6
CONTINUOUS
10
6.25169
20
-3.13479
11
6.24867
21
-3.13539
0
LINE
8
BLACK
6
CONTINUOUS
10
6.24867
20
-3.13539
11
6.18867
21
-3.13539
0
LINE
8
BLACK
6
CONTINUOUS
10
6.18867
20
-3.13539
11
6.18566
21
-3.13479
0
LINE
8
BLACK
6
CONTINUOUS
10
6.18566
20
-3.13479
11
6.18311
21
-3.13308
0
LINE
8
BLACK
6
CONTINUOUS
10
6.18311
20
-3.13308
11
6.1814
21
-3.13053
0
LINE
8
BLACK
6
CONTINUOUS
10
6.1814
20
-3.13053
11
6.1808
21
-3.12752
0
LINE
8
BLACK
6
CONTINUOUS
10
6.1808
20
-3.12752
11
6.1808
21
-3.06752
0
LINE
8
BLACK
6
CONTINUOUS
10
6.1808
20
-3.06752
11
6.1814
21
-3.0645
0
LINE
8
BLACK
6
CONTINUOUS
10
6.1814
20
-3.0645
11
6.18311
21
-3.06195
0
LINE
8
BLACK
6
CONTINUOUS
10
6.18311
20
-3.06195
11
6.18566
21
-3.06024
0
LINE
8
BLACK
6
CONTINUOUS
10
6.18566
20
-3.06024
11
6.18867
21
-3.05964
0
LINE
8
BLACK
6
CONTINUOUS
10
6.18867
20
-3.05964
11
6.24867
21
-3.05964
0
LINE
8
BLACK
6
CONTINUOUS
10
6.24867
20
-3.05964
11
6.25169
21
-3.06024
0
LINE
8
BLACK
6
CONTINUOUS
10
6.35169
20
-3.06024
11
6.35424
21
-3.06195
0
LINE
8
BLACK
6
CONTINUOUS
10
6.35424
20
-3.06195
11
6.35595
21
-3.0645
0
LINE
8
BLACK
6
CONTINUOUS
10
6.35595
20
-3.0645
11
6.35655
21
-3.06752
0
LINE
8
BLACK
6
CONTINUOUS
10
6.35655
20
-3.06752
11
6.35655
21
-3.12752
0
LINE
8
BLACK
6
CONTINUOUS
10
6.35655
20
-3.12752
11
6.35595
21
-3.13053
0
LINE
8
BLACK
6
CONTINUOUS
10
6.35595
20
-3.13053
11
6.35424
21
-3.13308
0
LINE
8
BLACK
6
CONTINUOUS
10
6.35424
20
-3.13308
11
6.35169
21
-3.13479
0
LINE
8
BLACK
6
CONTINUOUS
10
6.35169
20
-3.13479
11
6.34867
21
-3.13539
0
LINE
8
BLACK
6
CONTINUOUS
10
6.34867
20
-3.13539
11
6.28867
21
-3.13539
0
LINE
8
BLACK
6
CONTINUOUS
10
6.28867
20
-3.13539
11
6.28566
21
-3.13479
0
LINE
8
BLACK
6
CONTINUOUS
10
6.28566
20
-3.13479
11
6.28311
21
-3.13308
0
LINE
8
BLACK
6
CONTINUOUS
10
6.28311
20
-3.13308
11
6.2814
21
-3.13053
0
LINE
8
BLACK
6
CONTINUOUS
10
6.2814
20
-3.13053
11
6.2808
21
-3.12752
0
LINE
8
BLACK
6
CONTINUOUS
10
6.2808
20
-3.12752
11
6.2808
21
-3.06752
0
LINE
8
BLACK
6
CONTINUOUS
10
6.2808
20
-3.06752
11
6.2814
21
-3.0645
0
LINE
8
BLACK
6
CONTINUOUS
10
6.2814
20
-3.0645
11
6.28311
21
-3.06195
0
LINE
8
BLACK
6
CONTINUOUS
10
6.28311
20
-3.06195
11
6.28566
21
-3.06024
0
LINE
8
BLACK
6
CONTINUOUS
10
6.28566
20
-3.06024
11
6.28867
21
-3.05964
0
LINE
8
BLACK
6
CONTINUOUS
10
6.28867
20
-3.05964
11
6.34867
21
-3.05964
0
LINE
8
BLACK
6
CONTINUOUS
10
6.34867
20
-3.05964
11
6.35169
21
-3.06024
0
LINE
8
BLACK
6
CONTINUOUS
10
6.64314
20
-3.01023
11
6.64811
21
-3.01198
0
LINE
8
BLACK
6
CONTINUOUS
10
6.64811
20
-3.01198
11
6.65234
21
-3.01511
0
LINE
8
BLACK
6
CONTINUOUS
10
6.65234
20
-3.01511
11
6.65547
21
-3.01934
0
LINE
8
BLACK
6
CONTINUOUS
10
6.65547
20
-3.01934
11
6.65722
21
-3.02432
0
LINE
8
BLACK
6
CONTINUOUS
10
6.65722
20
-3.02432
11
6.65753
21
-3.02763
0
LINE
8
BLACK
6
CONTINUOUS
10
6.65753
20
-3.02763
11
6.65753
21
-3.05716
0
LINE
8
BLACK
6
CONTINUOUS
10
6.65753
20
-3.05716
11
6.65722
21
-3.06048
0
LINE
8
BLACK
6
CONTINUOUS
10
6.65722
20
-3.06048
11
6.65547
21
-3.06545
0
LINE
8
BLACK
6
CONTINUOUS
10
6.65547
20
-3.06545
11
6.65234
21
-3.06969
0
LINE
8
BLACK
6
CONTINUOUS
10
6.65234
20
-3.06969
11
6.64811
21
-3.07282
0
LINE
8
BLACK
6
CONTINUOUS
10
6.64811
20
-3.07282
11
6.64314
21
-3.07457
0
LINE
8
BLACK
6
CONTINUOUS
10
6.64314
20
-3.07457
11
6.63982
21
-3.07488
0
LINE
8
BLACK
6
CONTINUOUS
10
6.63982
20
-3.07488
11
6.5906
21
-3.07488
0
LINE
8
BLACK
6
CONTINUOUS
10
6.5906
20
-3.07488
11
6.58728
21
-3.07457
0
LINE
8
BLACK
6
CONTINUOUS
10
6.58728
20
-3.07457
11
6.58231
21
-3.07282
0
LINE
8
BLACK
6
CONTINUOUS
10
6.58231
20
-3.07282
11
6.57808
21
-3.06969
0
LINE
8
BLACK
6
CONTINUOUS
10
6.57808
20
-3.06969
11
6.57495
21
-3.06545
0
LINE
8
BLACK
6
CONTINUOUS
10
6.57495
20
-3.06545
11
6.5732
21
-3.06048
0
LINE
8
BLACK
6
CONTINUOUS
10
6.5732
20
-3.06048
11
6.57289
21
-3.05716
0
LINE
8
BLACK
6
CONTINUOUS
10
6.57289
20
-3.05716
11
6.57289
21
-3.02763
0
LINE
8
BLACK
6
CONTINUOUS
10
6.57289
20
-3.02763
11
6.5732
21
-3.02432
0
LINE
8
BLACK
6
CONTINUOUS
10
6.5732
20
-3.02432
11
6.57495
21
-3.01934
0
LINE
8
BLACK
6
CONTINUOUS
10
6.57495
20
-3.01934
11
6.57808
21
-3.01511
0
LINE
8
BLACK
6
CONTINUOUS
10
6.57808
20
-3.01511
11
6.58231
21
-3.01198
0
LINE
8
BLACK
6
CONTINUOUS
10
6.58231
20
-3.01198
11
6.58728
21
-3.01023
0
LINE
8
BLACK
6
CONTINUOUS
10
6.58728
20
-3.01023
11
6.5906
21
-3.00992
0
LINE
8
BLACK
6
CONTINUOUS
10
6.5906
20
-3.00992
11
6.63982
21
-3.00992
0
LINE
8
BLACK
6
CONTINUOUS
10
6.63982
20
-3.00992
11
6.64314
21
-3.01023
  0
ENDSEC
  0
EOF
