  0
SECTION
  2
HEADER
  9
$ANGBASE
  50
0.0
  9
$ANGDIR
  70
1
  9
$MEASUREMENT
  70
0
  0
ENDSEC
  0
SECTION
  2
TABLES
  0
TABLE
  2
LTYPE
  70
4
  0
LTYPE
  5
40F
  2
CONTINUOUS
  70
0
  3
Solid line
  72
65
  73
0
  40
0.0
  0
LTYPE
  5
410
  2
DASHDOT
 70
0
  3
Dash Dot ____ _ ____ _
 72
65
 73
4
 40
2.0
 49
1.25
 49
-0.25
 49
0.25
 49
-0.25
  0
LTYPE
  5
411
  2
DASHED
 70
0
  3
Dashed __ __ __ __ __
 72
65
 73
2
 40
0.75
 49
0.5
 49
-0.25
  0
LTYPE
  5
43B
  2
DOTTED
 70
0
  3
Dotted .  .  .  .
 72
65
 73
2
 40
0.2
 49
0.0
 49
-0.2
  0
ENDTAB
  0
TABLE
  2
STYLE
  70
4
  0
STYLE
  2
KICAD
  70
0
  40
0
  41
1
  42
1
  50
0
  71
0
  3
isocp.shx
  0
STYLE
  2
KICADB
  70
0
  40
0
  41
1
  42
1
  50
0
  71
0
  3
isocp.shx
  0
STYLE
  2
KICADI
  70
0
  40
0
  41
1
  42
1
  50
15
  71
0
  3
isocp.shx
  0
STYLE
  2
KICADBI
  70
0
  40
0
  41
1
  42
1
  50
15
  71
0
  3
isocp.shx
  0
ENDTAB
  0
TABLE
  2
LAYER
  70
1
  0
LAYER
  2
BLACK
  70
0
  62
7
  6
CONTINUOUS
  0
ENDTAB
  0
ENDSEC
  0
SECTION
  2
ENTITIES
0
LINE
8
BLACK
6
CONTINUOUS
10
0.20865
20
0.317793
11
0.222132
21
0.316018
0
LINE
8
BLACK
6
CONTINUOUS
10
0.222132
20
0.316018
11
0.23532
21
0.312706
0
LINE
8
BLACK
6
CONTINUOUS
10
0.23532
20
0.312706
11
0.24804
21
0.307899
0
LINE
8
BLACK
6
CONTINUOUS
10
0.24804
20
0.307899
11
0.260123
21
0.301662
0
LINE
8
BLACK
6
CONTINUOUS
10
0.260123
20
0.301662
11
0.271409
21
0.294078
0
LINE
8
BLACK
6
CONTINUOUS
10
0.271409
20
0.294078
11
0.281749
21
0.285247
0
LINE
8
BLACK
6
CONTINUOUS
10
0.281749
20
0.285247
11
0.291006
21
0.275286
0
LINE
8
BLACK
6
CONTINUOUS
10
0.291006
20
0.275286
11
0.299056
21
0.264327
0
LINE
8
BLACK
6
CONTINUOUS
10
0.299056
20
0.264327
11
0.305793
21
0.252516
0
LINE
8
BLACK
6
CONTINUOUS
10
0.305793
20
0.252516
11
0.311128
21
0.240008
0
LINE
8
BLACK
6
CONTINUOUS
10
0.311128
20
0.240008
11
0.31499
21
0.226971
0
LINE
8
BLACK
6
CONTINUOUS
10
0.31499
20
0.226971
11
0.317327
21
0.213575
0
LINE
8
BLACK
6
CONTINUOUS
10
0.317327
20
0.213575
11
0.31811
21
0.2
0
LINE
8
BLACK
6
CONTINUOUS
10
0.31811
20
0.2
11
0.317877
21
0.192584
0
LINE
8
BLACK
6
CONTINUOUS
10
0.317877
20
0.192584
11
0.316244
21
0.179084
0
LINE
8
BLACK
6
CONTINUOUS
10
0.316244
20
0.179084
11
0.313069
21
0.165862
0
LINE
8
BLACK
6
CONTINUOUS
10
0.313069
20
0.165862
11
0.308396
21
0.153093
0
LINE
8
BLACK
6
CONTINUOUS
10
0.308396
20
0.153093
11
0.302286
21
0.140945
0
LINE
8
BLACK
6
CONTINUOUS
10
0.302286
20
0.140945
11
0.294821
21
0.12958
0
LINE
8
BLACK
6
CONTINUOUS
10
0.294821
20
0.12958
11
0.286099
21
0.119148
0
LINE
8
BLACK
6
CONTINUOUS
10
0.286099
20
0.119148
11
0.276235
21
0.109788
0
LINE
8
BLACK
6
CONTINUOUS
10
0.276235
20
0.109788
11
0.265361
21
0.101623
0
LINE
8
BLACK
6
CONTINUOUS
10
0.265361
20
0.101623
11
0.253621
21
0.094763
0
LINE
8
BLACK
6
CONTINUOUS
10
0.253621
20
0.094763
11
0.24117
21
0.0892974
0
LINE
8
BLACK
6
CONTINUOUS
10
0.24117
20
0.0892974
11
0.228173
21
0.0852991
0
LINE
8
BLACK
6
CONTINUOUS
10
0.228173
20
0.0852991
11
0.214803
21
0.0828211
0
LINE
8
BLACK
6
CONTINUOUS
10
0.214803
20
0.0828211
11
0.201237
21
0.0818962
0
LINE
8
BLACK
6
CONTINUOUS
10
0.201237
20
0.0818962
11
0.187654
21
0.0825368
0
LINE
8
BLACK
6
CONTINUOUS
10
0.187654
20
0.0825368
11
0.174235
21
0.0847343
0
LINE
8
BLACK
6
CONTINUOUS
10
0.174235
20
0.0847343
11
0.161157
21
0.0884595
0
LINE
8
BLACK
6
CONTINUOUS
10
0.161157
20
0.0884595
11
0.148595
21
0.0936631
0
LINE
8
BLACK
6
CONTINUOUS
10
0.148595
20
0.0936631
11
0.136713
21
0.100276
0
LINE
8
BLACK
6
CONTINUOUS
10
0.136713
20
0.100276
11
0.125671
21
0.108211
0
LINE
8
BLACK
6
CONTINUOUS
10
0.125671
20
0.108211
11
0.115613
21
0.117363
0
LINE
8
BLACK
6
CONTINUOUS
10
0.115613
20
0.117363
11
0.106675
21
0.127609
0
LINE
8
BLACK
6
CONTINUOUS
10
0.106675
20
0.127609
11
0.0989727
21
0.138816
0
LINE
8
BLACK
6
CONTINUOUS
10
0.0989727
20
0.138816
11
0.0926099
21
0.150833
0
LINE
8
BLACK
6
CONTINUOUS
10
0.0926099
20
0.150833
11
0.0876705
21
0.163502
0
LINE
8
BLACK
6
CONTINUOUS
10
0.0876705
20
0.163502
11
0.0842199
21
0.176655
0
LINE
8
BLACK
6
CONTINUOUS
10
0.0842199
20
0.176655
11
0.082304
21
0.190117
0
LINE
8
BLACK
6
CONTINUOUS
10
0.082304
20
0.190117
11
0.081948
21
0.20371
0
LINE
8
BLACK
6
CONTINUOUS
10
0.081948
20
0.20371
11
0.0831568
21
0.217254
0
LINE
8
BLACK
6
CONTINUOUS
10
0.0831568
20
0.217254
11
0.0859143
21
0.230569
0
LINE
8
BLACK
6
CONTINUOUS
10
0.0859143
20
0.230569
11
0.0901839
21
0.243479
0
LINE
8
BLACK
6
CONTINUOUS
10
0.0901839
20
0.243479
11
0.0959091
21
0.255813
0
LINE
8
BLACK
6
CONTINUOUS
10
0.0959091
20
0.255813
11
0.103014
21
0.267407
0
LINE
8
BLACK
6
CONTINUOUS
10
0.103014
20
0.267407
11
0.111404
21
0.278108
0
LINE
8
BLACK
6
CONTINUOUS
10
0.111404
20
0.278108
11
0.120969
21
0.287773
0
LINE
8
BLACK
6
CONTINUOUS
10
0.120969
20
0.287773
11
0.131581
21
0.296275
0
LINE
8
BLACK
6
CONTINUOUS
10
0.131581
20
0.296275
11
0.1431
21
0.303501
0
LINE
8
BLACK
6
CONTINUOUS
10
0.1431
20
0.303501
11
0.155373
21
0.309355
0
LINE
8
BLACK
6
CONTINUOUS
10
0.155373
20
0.309355
11
0.168238
21
0.313759
0
LINE
8
BLACK
6
CONTINUOUS
10
0.168238
20
0.313759
11
0.181524
21
0.316656
0
LINE
8
BLACK
6
CONTINUOUS
10
0.181524
20
0.316656
11
0.195054
21
0.318007
0
LINE
8
BLACK
6
CONTINUOUS
10
0.195054
20
0.318007
11
0.20865
21
0.317793
0
LINE
8
BLACK
6
CONTINUOUS
10
3.40865
20
0.317793
11
3.42213
21
0.316018
0
LINE
8
BLACK
6
CONTINUOUS
10
3.42213
20
0.316018
11
3.43532
21
0.312706
0
LINE
8
BLACK
6
CONTINUOUS
10
3.43532
20
0.312706
11
3.44804
21
0.307899
0
LINE
8
BLACK
6
CONTINUOUS
10
3.44804
20
0.307899
11
3.46012
21
0.301662
0
LINE
8
BLACK
6
CONTINUOUS
10
3.46012
20
0.301662
11
3.47141
21
0.294078
0
LINE
8
BLACK
6
CONTINUOUS
10
3.47141
20
0.294078
11
3.48175
21
0.285247
0
LINE
8
BLACK
6
CONTINUOUS
10
3.48175
20
0.285247
11
3.49101
21
0.275286
0
LINE
8
BLACK
6
CONTINUOUS
10
3.49101
20
0.275286
11
3.49906
21
0.264327
0
LINE
8
BLACK
6
CONTINUOUS
10
3.49906
20
0.264327
11
3.50579
21
0.252516
0
LINE
8
BLACK
6
CONTINUOUS
10
3.50579
20
0.252516
11
3.51113
21
0.240008
0
LINE
8
BLACK
6
CONTINUOUS
10
3.51113
20
0.240008
11
3.51499
21
0.226971
0
LINE
8
BLACK
6
CONTINUOUS
10
3.51499
20
0.226971
11
3.51733
21
0.213575
0
LINE
8
BLACK
6
CONTINUOUS
10
3.51733
20
0.213575
11
3.51811
21
0.2
0
LINE
8
BLACK
6
CONTINUOUS
10
3.51811
20
0.2
11
3.51788
21
0.192584
0
LINE
8
BLACK
6
CONTINUOUS
10
3.51788
20
0.192584
11
3.51624
21
0.179084
0
LINE
8
BLACK
6
CONTINUOUS
10
3.51624
20
0.179084
11
3.51307
21
0.165862
0
LINE
8
BLACK
6
CONTINUOUS
10
3.51307
20
0.165862
11
3.5084
21
0.153093
0
LINE
8
BLACK
6
CONTINUOUS
10
3.5084
20
0.153093
11
3.50229
21
0.140945
0
LINE
8
BLACK
6
CONTINUOUS
10
3.50229
20
0.140945
11
3.49482
21
0.12958
0
LINE
8
BLACK
6
CONTINUOUS
10
3.49482
20
0.12958
11
3.4861
21
0.119148
0
LINE
8
BLACK
6
CONTINUOUS
10
3.4861
20
0.119148
11
3.47624
21
0.109788
0
LINE
8
BLACK
6
CONTINUOUS
10
3.47624
20
0.109788
11
3.46536
21
0.101623
0
LINE
8
BLACK
6
CONTINUOUS
10
3.46536
20
0.101623
11
3.45362
21
0.094763
0
LINE
8
BLACK
6
CONTINUOUS
10
3.45362
20
0.094763
11
3.44117
21
0.0892974
0
LINE
8
BLACK
6
CONTINUOUS
10
3.44117
20
0.0892974
11
3.42817
21
0.0852991
0
LINE
8
BLACK
6
CONTINUOUS
10
3.42817
20
0.0852991
11
3.4148
21
0.0828211
0
LINE
8
BLACK
6
CONTINUOUS
10
3.4148
20
0.0828211
11
3.40124
21
0.0818962
0
LINE
8
BLACK
6
CONTINUOUS
10
3.40124
20
0.0818962
11
3.38765
21
0.0825368
0
LINE
8
BLACK
6
CONTINUOUS
10
3.38765
20
0.0825368
11
3.37424
21
0.0847343
0
LINE
8
BLACK
6
CONTINUOUS
10
3.37424
20
0.0847343
11
3.36116
21
0.0884595
0
LINE
8
BLACK
6
CONTINUOUS
10
3.36116
20
0.0884595
11
3.34859
21
0.0936631
0
LINE
8
BLACK
6
CONTINUOUS
10
3.34859
20
0.0936631
11
3.33671
21
0.100276
0
LINE
8
BLACK
6
CONTINUOUS
10
3.33671
20
0.100276
11
3.32567
21
0.108211
0
LINE
8
BLACK
6
CONTINUOUS
10
3.32567
20
0.108211
11
3.31561
21
0.117363
0
LINE
8
BLACK
6
CONTINUOUS
10
3.31561
20
0.117363
11
3.30667
21
0.127609
0
LINE
8
BLACK
6
CONTINUOUS
10
3.30667
20
0.127609
11
3.29897
21
0.138816
0
LINE
8
BLACK
6
CONTINUOUS
10
3.29897
20
0.138816
11
3.29261
21
0.150833
0
LINE
8
BLACK
6
CONTINUOUS
10
3.29261
20
0.150833
11
3.28767
21
0.163502
0
LINE
8
BLACK
6
CONTINUOUS
10
3.28767
20
0.163502
11
3.28422
21
0.176655
0
LINE
8
BLACK
6
CONTINUOUS
10
3.28422
20
0.176655
11
3.2823
21
0.190117
0
LINE
8
BLACK
6
CONTINUOUS
10
3.2823
20
0.190117
11
3.28195
21
0.20371
0
LINE
8
BLACK
6
CONTINUOUS
10
3.28195
20
0.20371
11
3.28316
21
0.217254
0
LINE
8
BLACK
6
CONTINUOUS
10
3.28316
20
0.217254
11
3.28591
21
0.230569
0
LINE
8
BLACK
6
CONTINUOUS
10
3.28591
20
0.230569
11
3.29018
21
0.243479
0
LINE
8
BLACK
6
CONTINUOUS
10
3.29018
20
0.243479
11
3.29591
21
0.255813
0
LINE
8
BLACK
6
CONTINUOUS
10
3.29591
20
0.255813
11
3.30301
21
0.267407
0
LINE
8
BLACK
6
CONTINUOUS
10
3.30301
20
0.267407
11
3.3114
21
0.278108
0
LINE
8
BLACK
6
CONTINUOUS
10
3.3114
20
0.278108
11
3.32097
21
0.287773
0
LINE
8
BLACK
6
CONTINUOUS
10
3.32097
20
0.287773
11
3.33158
21
0.296275
0
LINE
8
BLACK
6
CONTINUOUS
10
3.33158
20
0.296275
11
3.3431
21
0.303501
0
LINE
8
BLACK
6
CONTINUOUS
10
3.3431
20
0.303501
11
3.35537
21
0.309355
0
LINE
8
BLACK
6
CONTINUOUS
10
3.35537
20
0.309355
11
3.36824
21
0.313759
0
LINE
8
BLACK
6
CONTINUOUS
10
3.36824
20
0.313759
11
3.38152
21
0.316656
0
LINE
8
BLACK
6
CONTINUOUS
10
3.38152
20
0.316656
11
3.39505
21
0.318007
0
LINE
8
BLACK
6
CONTINUOUS
10
3.39505
20
0.318007
11
3.40865
21
0.317793
0
LINE
8
BLACK
6
CONTINUOUS
10
3.12602
20
0.385
11
2.97642
21
0.385
0
LINE
8
BLACK
6
CONTINUOUS
10
2.97642
20
0.385
11
2.97642
21
0.42437
0
LINE
8
BLACK
6
CONTINUOUS
10
2.97642
20
0.42437
11
3.12602
21
0.42437
0
LINE
8
BLACK
6
CONTINUOUS
10
3.12602
20
0.42437
11
3.12602
21
0.385
0
LINE
8
BLACK
6
CONTINUOUS
10
3.57878
20
0.385
11
3.44886
21
0.385
0
LINE
8
BLACK
6
CONTINUOUS
10
3.44886
20
0.385
11
3.44886
21
0.485394
0
LINE
8
BLACK
6
CONTINUOUS
10
3.44886
20
0.485394
11
3.57878
21
0.485394
0
LINE
8
BLACK
6
CONTINUOUS
10
3.57878
20
0.485394
11
3.57878
21
0.385
0
LINE
8
BLACK
6
CONTINUOUS
10
1.94492
20
0.385
11
1.815
21
0.385
0
LINE
8
BLACK
6
CONTINUOUS
10
1.815
20
0.385
11
1.815
21
0.485394
0
LINE
8
BLACK
6
CONTINUOUS
10
1.815
20
0.485394
11
1.94492
21
0.485394
0
LINE
8
BLACK
6
CONTINUOUS
10
1.94492
20
0.485394
11
1.94492
21
0.385
0
LINE
8
BLACK
6
CONTINUOUS
10
2.8898
20
0.385
11
2.7402
21
0.385
0
LINE
8
BLACK
6
CONTINUOUS
10
2.7402
20
0.385
11
2.7402
21
0.42437
0
LINE
8
BLACK
6
CONTINUOUS
10
2.7402
20
0.42437
11
2.8898
21
0.42437
0
LINE
8
BLACK
6
CONTINUOUS
10
2.8898
20
0.42437
11
2.8898
21
0.385
0
LINE
8
BLACK
6
CONTINUOUS
10
2.41736
20
0.385
11
2.26776
21
0.385
0
LINE
8
BLACK
6
CONTINUOUS
10
2.26776
20
0.385
11
2.26776
21
0.42437
0
LINE
8
BLACK
6
CONTINUOUS
10
2.26776
20
0.42437
11
2.41736
21
0.42437
0
LINE
8
BLACK
6
CONTINUOUS
10
2.41736
20
0.42437
11
2.41736
21
0.385
0
LINE
8
BLACK
6
CONTINUOUS
10
2.18114
20
0.385
11
2.03154
21
0.385
0
LINE
8
BLACK
6
CONTINUOUS
10
2.03154
20
0.385
11
2.03154
21
0.42437
0
LINE
8
BLACK
6
CONTINUOUS
10
2.03154
20
0.42437
11
2.18114
21
0.42437
0
LINE
8
BLACK
6
CONTINUOUS
10
2.18114
20
0.42437
11
2.18114
21
0.385
0
LINE
8
BLACK
6
CONTINUOUS
10
2.65358
20
0.385
11
2.50398
21
0.385
0
LINE
8
BLACK
6
CONTINUOUS
10
2.50398
20
0.385
11
2.50398
21
0.42437
0
LINE
8
BLACK
6
CONTINUOUS
10
2.50398
20
0.42437
11
2.65358
21
0.42437
0
LINE
8
BLACK
6
CONTINUOUS
10
2.65358
20
0.42437
11
2.65358
21
0.385
0
LINE
8
BLACK
6
CONTINUOUS
10
3.36224
20
0.385
11
3.21264
21
0.385
0
LINE
8
BLACK
6
CONTINUOUS
10
3.21264
20
0.385
11
3.21264
21
0.42437
0
LINE
8
BLACK
6
CONTINUOUS
10
3.21264
20
0.42437
11
3.36224
21
0.42437
0
LINE
8
BLACK
6
CONTINUOUS
10
3.36224
20
0.42437
11
3.36224
21
0.385
0
LINE
8
BLACK
6
CONTINUOUS
10
0.148583
20
0.387402
11
0.0186614
21
0.387402
0
LINE
8
BLACK
6
CONTINUOUS
10
0.0186614
20
0.387402
11
0.0186614
21
0.487795
0
LINE
8
BLACK
6
CONTINUOUS
10
0.0186614
20
0.487795
11
0.148583
21
0.487795
0
LINE
8
BLACK
6
CONTINUOUS
10
0.148583
20
0.487795
11
0.148583
21
0.387402
0
LINE
8
BLACK
6
CONTINUOUS
10
1.09346
20
0.387402
11
0.943858
21
0.387402
0
LINE
8
BLACK
6
CONTINUOUS
10
0.943858
20
0.387402
11
0.943858
21
0.426772
0
LINE
8
BLACK
6
CONTINUOUS
10
0.943858
20
0.426772
11
1.09346
21
0.426772
0
LINE
8
BLACK
6
CONTINUOUS
10
1.09346
20
0.426772
11
1.09346
21
0.387402
0
LINE
8
BLACK
6
CONTINUOUS
10
0.384803
20
0.387402
11
0.235197
21
0.387402
0
LINE
8
BLACK
6
CONTINUOUS
10
0.235197
20
0.387402
11
0.235197
21
0.426772
0
LINE
8
BLACK
6
CONTINUOUS
10
0.235197
20
0.426772
11
0.384803
21
0.426772
0
LINE
8
BLACK
6
CONTINUOUS
10
0.384803
20
0.426772
11
0.384803
21
0.387402
0
LINE
8
BLACK
6
CONTINUOUS
10
1.78244
20
0.387402
11
1.65252
21
0.387402
0
LINE
8
BLACK
6
CONTINUOUS
10
1.65252
20
0.387402
11
1.65252
21
0.487795
0
LINE
8
BLACK
6
CONTINUOUS
10
1.65252
20
0.487795
11
1.78244
21
0.487795
0
LINE
8
BLACK
6
CONTINUOUS
10
1.78244
20
0.487795
11
1.78244
21
0.387402
0
LINE
8
BLACK
6
CONTINUOUS
10
0.857244
20
0.387402
11
0.707638
21
0.387402
0
LINE
8
BLACK
6
CONTINUOUS
10
0.707638
20
0.387402
11
0.707638
21
0.426772
0
LINE
8
BLACK
6
CONTINUOUS
10
0.707638
20
0.426772
11
0.857244
21
0.426772
0
LINE
8
BLACK
6
CONTINUOUS
10
0.857244
20
0.426772
11
0.857244
21
0.387402
0
LINE
8
BLACK
6
CONTINUOUS
10
1.32969
20
0.387402
11
1.18008
21
0.387402
0
LINE
8
BLACK
6
CONTINUOUS
10
1.18008
20
0.387402
11
1.18008
21
0.426772
0
LINE
8
BLACK
6
CONTINUOUS
10
1.18008
20
0.426772
11
1.32969
21
0.426772
0
LINE
8
BLACK
6
CONTINUOUS
10
1.32969
20
0.426772
11
1.32969
21
0.387402
0
LINE
8
BLACK
6
CONTINUOUS
10
1.56591
20
0.387402
11
1.4163
21
0.387402
0
LINE
8
BLACK
6
CONTINUOUS
10
1.4163
20
0.387402
11
1.4163
21
0.426772
0
LINE
8
BLACK
6
CONTINUOUS
10
1.4163
20
0.426772
11
1.56591
21
0.426772
0
LINE
8
BLACK
6
CONTINUOUS
10
1.56591
20
0.426772
11
1.56591
21
0.387402
0
LINE
8
BLACK
6
CONTINUOUS
10
0.621024
20
0.387402
11
0.471417
21
0.387402
0
LINE
8
BLACK
6
CONTINUOUS
10
0.471417
20
0.387402
11
0.471417
21
0.426772
0
LINE
8
BLACK
6
CONTINUOUS
10
0.471417
20
0.426772
11
0.621024
21
0.426772
0
LINE
8
BLACK
6
CONTINUOUS
10
0.621024
20
0.426772
11
0.621024
21
0.387402
0
LINE
8
BLACK
6
CONTINUOUS
10
2.97878
20
0.445945
11
2.95122
21
0.445945
0
LINE
8
BLACK
6
CONTINUOUS
10
2.95122
20
0.445945
11
2.95122
21
0.564055
0
LINE
8
BLACK
6
CONTINUOUS
10
2.95122
20
0.564055
11
2.97878
21
0.564055
0
LINE
8
BLACK
6
CONTINUOUS
10
2.97878
20
0.564055
11
2.97878
21
0.445945
0
LINE
8
BLACK
6
CONTINUOUS
10
3.1325
20
0.46
11
3.0775
21
0.46
0
LINE
8
BLACK
6
CONTINUOUS
10
3.0775
20
0.46
11
3.0775
21
0.495
0
LINE
8
BLACK
6
CONTINUOUS
10
3.0775
20
0.495
11
3.1325
21
0.495
0
LINE
8
BLACK
6
CONTINUOUS
10
3.1325
20
0.495
11
3.1325
21
0.46
0
LINE
8
BLACK
6
CONTINUOUS
10
3.23059
20
0.461535
11
3.17941
21
0.461535
0
LINE
8
BLACK
6
CONTINUOUS
10
3.17941
20
0.461535
11
3.17941
21
0.528465
0
LINE
8
BLACK
6
CONTINUOUS
10
3.17941
20
0.528465
11
3.23059
21
0.528465
0
LINE
8
BLACK
6
CONTINUOUS
10
3.23059
20
0.528465
11
3.23059
21
0.461535
0
LINE
8
BLACK
6
CONTINUOUS
10
3.36839
20
0.461535
11
3.3172
21
0.461535
0
LINE
8
BLACK
6
CONTINUOUS
10
3.3172
20
0.461535
11
3.3172
21
0.528465
0
LINE
8
BLACK
6
CONTINUOUS
10
3.3172
20
0.528465
11
3.36839
21
0.528465
0
LINE
8
BLACK
6
CONTINUOUS
10
3.36839
20
0.528465
11
3.36839
21
0.461535
0
LINE
8
BLACK
6
CONTINUOUS
10
2.7625
20
0.4625
11
2.7075
21
0.4625
0
LINE
8
BLACK
6
CONTINUOUS
10
2.7075
20
0.4625
11
2.7075
21
0.4975
0
LINE
8
BLACK
6
CONTINUOUS
10
2.7075
20
0.4975
11
2.7625
21
0.4975
0
LINE
8
BLACK
6
CONTINUOUS
10
2.7625
20
0.4975
11
2.7625
21
0.4625
0
LINE
8
BLACK
6
CONTINUOUS
10
2.8575
20
0.465
11
2.8025
21
0.465
0
LINE
8
BLACK
6
CONTINUOUS
10
2.8025
20
0.465
11
2.8025
21
0.5
0
LINE
8
BLACK
6
CONTINUOUS
10
2.8025
20
0.5
11
2.8575
21
0.5
0
LINE
8
BLACK
6
CONTINUOUS
10
2.8575
20
0.5
11
2.8575
21
0.465
0
LINE
8
BLACK
6
CONTINUOUS
10
2.66587
20
0.467402
11
2.62413
21
0.467402
0
LINE
8
BLACK
6
CONTINUOUS
10
2.62413
20
0.467402
11
2.62413
21
0.492992
0
LINE
8
BLACK
6
CONTINUOUS
10
2.62413
20
0.492992
11
2.66587
21
0.492992
0
LINE
8
BLACK
6
CONTINUOUS
10
2.66587
20
0.492992
11
2.66587
21
0.467402
0
LINE
8
BLACK
6
CONTINUOUS
10
2.57925
20
0.467402
11
2.53752
21
0.467402
0
LINE
8
BLACK
6
CONTINUOUS
10
2.53752
20
0.467402
11
2.53752
21
0.492992
0
LINE
8
BLACK
6
CONTINUOUS
10
2.53752
20
0.492992
11
2.57925
21
0.492992
0
LINE
8
BLACK
6
CONTINUOUS
10
2.57925
20
0.492992
11
2.57925
21
0.467402
0
LINE
8
BLACK
6
CONTINUOUS
10
2.4825
20
0.47
11
2.4275
21
0.47
0
LINE
8
BLACK
6
CONTINUOUS
10
2.4275
20
0.47
11
2.4275
21
0.505
0
LINE
8
BLACK
6
CONTINUOUS
10
2.4275
20
0.505
11
2.4825
21
0.505
0
LINE
8
BLACK
6
CONTINUOUS
10
2.4825
20
0.505
11
2.4825
21
0.47
0
LINE
8
BLACK
6
CONTINUOUS
10
2.3925
20
0.4725
11
2.3375
21
0.4725
0
LINE
8
BLACK
6
CONTINUOUS
10
2.3375
20
0.4725
11
2.3375
21
0.5075
0
LINE
8
BLACK
6
CONTINUOUS
10
2.3375
20
0.5075
11
2.3925
21
0.5075
0
LINE
8
BLACK
6
CONTINUOUS
10
2.3925
20
0.5075
11
2.3925
21
0.4725
0
LINE
8
BLACK
6
CONTINUOUS
10
3.04374
20
0.475472
11
2.99256
21
0.475472
0
LINE
8
BLACK
6
CONTINUOUS
10
2.99256
20
0.475472
11
2.99256
21
0.534528
0
LINE
8
BLACK
6
CONTINUOUS
10
2.99256
20
0.534528
11
3.04374
21
0.534528
0
LINE
8
BLACK
6
CONTINUOUS
10
3.04374
20
0.534528
11
3.04374
21
0.475472
0
LINE
8
BLACK
6
CONTINUOUS
10
2.93744
20
0.475472
11
2.88626
21
0.475472
0
LINE
8
BLACK
6
CONTINUOUS
10
2.88626
20
0.475472
11
2.88626
21
0.534528
0
LINE
8
BLACK
6
CONTINUOUS
10
2.88626
20
0.534528
11
2.93744
21
0.534528
0
LINE
8
BLACK
6
CONTINUOUS
10
2.93744
20
0.534528
11
2.93744
21
0.475472
0
LINE
8
BLACK
6
CONTINUOUS
10
2.27453
20
0.48126
11
2.21547
21
0.48126
0
LINE
8
BLACK
6
CONTINUOUS
10
2.21547
20
0.48126
11
2.21547
21
0.532441
0
LINE
8
BLACK
6
CONTINUOUS
10
2.21547
20
0.532441
11
2.27453
21
0.532441
0
LINE
8
BLACK
6
CONTINUOUS
10
2.27453
20
0.532441
11
2.27453
21
0.48126
0
LINE
8
BLACK
6
CONTINUOUS
10
1.1238
20
0.487264
11
1.0888
21
0.487264
0
LINE
8
BLACK
6
CONTINUOUS
10
1.0888
20
0.487264
11
1.0888
21
0.542264
0
LINE
8
BLACK
6
CONTINUOUS
10
1.0888
20
0.542264
11
1.1238
21
0.542264
0
LINE
8
BLACK
6
CONTINUOUS
10
1.1238
20
0.542264
11
1.1238
21
0.487264
0
LINE
8
BLACK
6
CONTINUOUS
10
1.1988
20
0.487264
11
1.1638
21
0.487264
0
LINE
8
BLACK
6
CONTINUOUS
10
1.1638
20
0.487264
11
1.1638
21
0.542264
0
LINE
8
BLACK
6
CONTINUOUS
10
1.1638
20
0.542264
11
1.1988
21
0.542264
0
LINE
8
BLACK
6
CONTINUOUS
10
1.1988
20
0.542264
11
1.1988
21
0.487264
0
LINE
8
BLACK
6
CONTINUOUS
10
2.66587
20
0.504803
11
2.62413
21
0.504803
0
LINE
8
BLACK
6
CONTINUOUS
10
2.62413
20
0.504803
11
2.62413
21
0.530394
0
LINE
8
BLACK
6
CONTINUOUS
10
2.62413
20
0.530394
11
2.66587
21
0.530394
0
LINE
8
BLACK
6
CONTINUOUS
10
2.66587
20
0.530394
11
2.66587
21
0.504803
0
LINE
8
BLACK
6
CONTINUOUS
10
2.1475
20
0.52
11
2.0925
21
0.52
0
LINE
8
BLACK
6
CONTINUOUS
10
2.0925
20
0.52
11
2.0925
21
0.555
0
LINE
8
BLACK
6
CONTINUOUS
10
2.0925
20
0.555
11
2.1475
21
0.555
0
LINE
8
BLACK
6
CONTINUOUS
10
2.1475
20
0.555
11
2.1475
21
0.52
0
LINE
8
BLACK
6
CONTINUOUS
10
3.1325
20
0.535
11
3.0775
21
0.535
0
LINE
8
BLACK
6
CONTINUOUS
10
3.0775
20
0.535
11
3.0775
21
0.57
0
LINE
8
BLACK
6
CONTINUOUS
10
3.0775
20
0.57
11
3.1325
21
0.57
0
LINE
8
BLACK
6
CONTINUOUS
10
3.1325
20
0.57
11
3.1325
21
0.535
0
LINE
8
BLACK
6
CONTINUOUS
10
2.7625
20
0.5375
11
2.7075
21
0.5375
0
LINE
8
BLACK
6
CONTINUOUS
10
2.7075
20
0.5375
11
2.7075
21
0.5725
0
LINE
8
BLACK
6
CONTINUOUS
10
2.7075
20
0.5725
11
2.7625
21
0.5725
0
LINE
8
BLACK
6
CONTINUOUS
10
2.7625
20
0.5725
11
2.7625
21
0.5375
0
LINE
8
BLACK
6
CONTINUOUS
10
2.8575
20
0.54
11
2.8025
21
0.54
0
LINE
8
BLACK
6
CONTINUOUS
10
2.8025
20
0.54
11
2.8025
21
0.575
0
LINE
8
BLACK
6
CONTINUOUS
10
2.8025
20
0.575
11
2.8575
21
0.575
0
LINE
8
BLACK
6
CONTINUOUS
10
2.8575
20
0.575
11
2.8575
21
0.54
0
LINE
8
BLACK
6
CONTINUOUS
10
2.57925
20
0.542205
11
2.53752
21
0.542205
0
LINE
8
BLACK
6
CONTINUOUS
10
2.53752
20
0.542205
11
2.53752
21
0.567795
0
LINE
8
BLACK
6
CONTINUOUS
10
2.53752
20
0.567795
11
2.57925
21
0.567795
0
LINE
8
BLACK
6
CONTINUOUS
10
2.57925
20
0.567795
11
2.57925
21
0.542205
0
LINE
8
BLACK
6
CONTINUOUS
10
2.66587
20
0.542205
11
2.62413
21
0.542205
0
LINE
8
BLACK
6
CONTINUOUS
10
2.62413
20
0.542205
11
2.62413
21
0.567795
0
LINE
8
BLACK
6
CONTINUOUS
10
2.62413
20
0.567795
11
2.66587
21
0.567795
0
LINE
8
BLACK
6
CONTINUOUS
10
2.66587
20
0.567795
11
2.66587
21
0.542205
0
LINE
8
BLACK
6
CONTINUOUS
10
2.4825
20
0.545
11
2.4275
21
0.545
0
LINE
8
BLACK
6
CONTINUOUS
10
2.4275
20
0.545
11
2.4275
21
0.58
0
LINE
8
BLACK
6
CONTINUOUS
10
2.4275
20
0.58
11
2.4825
21
0.58
0
LINE
8
BLACK
6
CONTINUOUS
10
2.4825
20
0.58
11
2.4825
21
0.545
0
LINE
8
BLACK
6
CONTINUOUS
10
2.30406
20
0.54622
11
2.18594
21
0.54622
0
LINE
8
BLACK
6
CONTINUOUS
10
2.18594
20
0.54622
11
2.18594
21
0.57378
0
LINE
8
BLACK
6
CONTINUOUS
10
2.18594
20
0.57378
11
2.30406
21
0.57378
0
LINE
8
BLACK
6
CONTINUOUS
10
2.30406
20
0.57378
11
2.30406
21
0.54622
0
LINE
8
BLACK
6
CONTINUOUS
10
2.3925
20
0.5475
11
2.3375
21
0.5475
0
LINE
8
BLACK
6
CONTINUOUS
10
2.3375
20
0.5475
11
2.3375
21
0.5825
0
LINE
8
BLACK
6
CONTINUOUS
10
2.3375
20
0.5825
11
2.3925
21
0.5825
0
LINE
8
BLACK
6
CONTINUOUS
10
2.3925
20
0.5825
11
2.3925
21
0.5475
0
LINE
8
BLACK
6
CONTINUOUS
10
3.30059
20
0.561535
11
3.24941
21
0.561535
0
LINE
8
BLACK
6
CONTINUOUS
10
3.24941
20
0.561535
11
3.24941
21
0.628465
0
LINE
8
BLACK
6
CONTINUOUS
10
3.24941
20
0.628465
11
3.30059
21
0.628465
0
LINE
8
BLACK
6
CONTINUOUS
10
3.30059
20
0.628465
11
3.30059
21
0.561535
0
LINE
8
BLACK
6
CONTINUOUS
10
3.43839
20
0.561535
11
3.3872
21
0.561535
0
LINE
8
BLACK
6
CONTINUOUS
10
3.3872
20
0.561535
11
3.3872
21
0.628465
0
LINE
8
BLACK
6
CONTINUOUS
10
3.3872
20
0.628465
11
3.43839
21
0.628465
0
LINE
8
BLACK
6
CONTINUOUS
10
3.43839
20
0.628465
11
3.43839
21
0.561535
0
LINE
8
BLACK
6
CONTINUOUS
10
3.57878
20
0.572008
11
3.53941
21
0.572008
0
LINE
8
BLACK
6
CONTINUOUS
10
3.53941
20
0.572008
11
3.53941
21
0.721614
0
LINE
8
BLACK
6
CONTINUOUS
10
3.53941
20
0.721614
11
3.57878
21
0.721614
0
LINE
8
BLACK
6
CONTINUOUS
10
3.57878
20
0.721614
11
3.57878
21
0.572008
0
LINE
8
BLACK
6
CONTINUOUS
10
1.85437
20
0.572008
11
1.815
21
0.572008
0
LINE
8
BLACK
6
CONTINUOUS
10
1.815
20
0.572008
11
1.815
21
0.721614
0
LINE
8
BLACK
6
CONTINUOUS
10
1.815
20
0.721614
11
1.85437
21
0.721614
0
LINE
8
BLACK
6
CONTINUOUS
10
1.85437
20
0.721614
11
1.85437
21
0.572008
0
LINE
8
BLACK
6
CONTINUOUS
10
0.0580315
20
0.574409
11
0.0186614
21
0.574409
0
LINE
8
BLACK
6
CONTINUOUS
10
0.0186614
20
0.574409
11
0.0186614
21
0.724016
0
LINE
8
BLACK
6
CONTINUOUS
10
0.0186614
20
0.724016
11
0.0580315
21
0.724016
0
LINE
8
BLACK
6
CONTINUOUS
10
0.0580315
20
0.724016
11
0.0580315
21
0.574409
0
LINE
8
BLACK
6
CONTINUOUS
10
1.78244
20
0.574409
11
1.74307
21
0.574409
0
LINE
8
BLACK
6
CONTINUOUS
10
1.74307
20
0.574409
11
1.74307
21
0.724016
0
LINE
8
BLACK
6
CONTINUOUS
10
1.74307
20
0.724016
11
1.78244
21
0.724016
0
LINE
8
BLACK
6
CONTINUOUS
10
1.78244
20
0.724016
11
1.78244
21
0.574409
0
LINE
8
BLACK
6
CONTINUOUS
10
2.97878
20
0.585945
11
2.95122
21
0.585945
0
LINE
8
BLACK
6
CONTINUOUS
10
2.95122
20
0.585945
11
2.95122
21
0.704055
0
LINE
8
BLACK
6
CONTINUOUS
10
2.95122
20
0.704055
11
2.97878
21
0.704055
0
LINE
8
BLACK
6
CONTINUOUS
10
2.97878
20
0.704055
11
2.97878
21
0.585945
0
LINE
8
BLACK
6
CONTINUOUS
10
2.27453
20
0.587559
11
2.21547
21
0.587559
0
LINE
8
BLACK
6
CONTINUOUS
10
2.21547
20
0.587559
11
2.21547
21
0.63874
0
LINE
8
BLACK
6
CONTINUOUS
10
2.21547
20
0.63874
11
2.27453
21
0.63874
0
LINE
8
BLACK
6
CONTINUOUS
10
2.27453
20
0.63874
11
2.27453
21
0.587559
0
LINE
8
BLACK
6
CONTINUOUS
10
1.2309
20
0.590564
11
1.1305
21
0.590564
0
LINE
8
BLACK
6
CONTINUOUS
10
1.1305
20
0.590564
11
1.1305
21
0.688964
0
LINE
8
BLACK
6
CONTINUOUS
10
1.1305
20
0.688964
11
1.2309
21
0.688964
0
LINE
8
BLACK
6
CONTINUOUS
10
1.2309
20
0.688964
11
1.2309
21
0.590564
0
LINE
8
BLACK
6
CONTINUOUS
10
1.0321
20
0.590564
11
0.931699
21
0.590564
0
LINE
8
BLACK
6
CONTINUOUS
10
0.931699
20
0.590564
11
0.931699
21
0.688964
0
LINE
8
BLACK
6
CONTINUOUS
10
0.931699
20
0.688964
11
1.0321
21
0.688964
0
LINE
8
BLACK
6
CONTINUOUS
10
1.0321
20
0.688964
11
1.0321
21
0.590564
0
LINE
8
BLACK
6
CONTINUOUS
10
3.1325
20
0.5925
11
3.0775
21
0.5925
0
LINE
8
BLACK
6
CONTINUOUS
10
3.0775
20
0.5925
11
3.0775
21
0.6275
0
LINE
8
BLACK
6
CONTINUOUS
10
3.0775
20
0.6275
11
3.1325
21
0.6275
0
LINE
8
BLACK
6
CONTINUOUS
10
3.1325
20
0.6275
11
3.1325
21
0.5925
0
LINE
8
BLACK
6
CONTINUOUS
10
2.1475
20
0.595
11
2.0925
21
0.595
0
LINE
8
BLACK
6
CONTINUOUS
10
2.0925
20
0.595
11
2.0925
21
0.63
0
LINE
8
BLACK
6
CONTINUOUS
10
2.0925
20
0.63
11
2.1475
21
0.63
0
LINE
8
BLACK
6
CONTINUOUS
10
2.1475
20
0.63
11
2.1475
21
0.595
0
LINE
8
BLACK
6
CONTINUOUS
10
1.7088
20
0.609764
11
1.6538
21
0.609764
0
LINE
8
BLACK
6
CONTINUOUS
10
1.6538
20
0.609764
11
1.6538
21
0.644764
0
LINE
8
BLACK
6
CONTINUOUS
10
1.6538
20
0.644764
11
1.7088
21
0.644764
0
LINE
8
BLACK
6
CONTINUOUS
10
1.7088
20
0.644764
11
1.7088
21
0.609764
0
LINE
8
BLACK
6
CONTINUOUS
10
1.6088
20
0.609764
11
1.5538
21
0.609764
0
LINE
8
BLACK
6
CONTINUOUS
10
1.5538
20
0.609764
11
1.5538
21
0.644764
0
LINE
8
BLACK
6
CONTINUOUS
10
1.5538
20
0.644764
11
1.6088
21
0.644764
0
LINE
8
BLACK
6
CONTINUOUS
10
1.6088
20
0.644764
11
1.6088
21
0.609764
0
LINE
8
BLACK
6
CONTINUOUS
10
2.61085
20
0.66681
11
2.61405
21
0.664676
0
LINE
8
BLACK
6
CONTINUOUS
10
2.61405
20
0.664676
11
2.61618
21
0.661483
0
LINE
8
BLACK
6
CONTINUOUS
10
2.61618
20
0.661483
11
2.61693
21
0.657717
0
LINE
8
BLACK
6
CONTINUOUS
10
2.61693
20
0.657717
11
2.61693
21
0.622283
0
LINE
8
BLACK
6
CONTINUOUS
10
2.61693
20
0.622283
11
2.61618
21
0.618517
0
LINE
8
BLACK
6
CONTINUOUS
10
2.61618
20
0.618517
11
2.61405
21
0.615324
0
LINE
8
BLACK
6
CONTINUOUS
10
2.61405
20
0.615324
11
2.61085
21
0.61319
0
LINE
8
BLACK
6
CONTINUOUS
10
2.61085
20
0.61319
11
2.60709
21
0.612441
0
LINE
8
BLACK
6
CONTINUOUS
10
2.60709
20
0.612441
11
2.5815
21
0.612441
0
LINE
8
BLACK
6
CONTINUOUS
10
2.5815
20
0.612441
11
2.57773
21
0.61319
0
LINE
8
BLACK
6
CONTINUOUS
10
2.57773
20
0.61319
11
2.57454
21
0.615324
0
LINE
8
BLACK
6
CONTINUOUS
10
2.57454
20
0.615324
11
2.5724
21
0.618517
0
LINE
8
BLACK
6
CONTINUOUS
10
2.5724
20
0.618517
11
2.57165
21
0.622283
0
LINE
8
BLACK
6
CONTINUOUS
10
2.57165
20
0.622283
11
2.57165
21
0.657717
0
LINE
8
BLACK
6
CONTINUOUS
10
2.57165
20
0.657717
11
2.5724
21
0.661483
0
LINE
8
BLACK
6
CONTINUOUS
10
2.5724
20
0.661483
11
2.57454
21
0.664676
0
LINE
8
BLACK
6
CONTINUOUS
10
2.57454
20
0.664676
11
2.57773
21
0.66681
0
LINE
8
BLACK
6
CONTINUOUS
10
2.57773
20
0.66681
11
2.5815
21
0.667559
0
LINE
8
BLACK
6
CONTINUOUS
10
2.5815
20
0.667559
11
2.60709
21
0.667559
0
LINE
8
BLACK
6
CONTINUOUS
10
2.60709
20
0.667559
11
2.61085
21
0.66681
0
LINE
8
BLACK
6
CONTINUOUS
10
2.69156
20
0.66681
11
2.69475
21
0.664676
0
LINE
8
BLACK
6
CONTINUOUS
10
2.69475
20
0.664676
11
2.69689
21
0.661483
0
LINE
8
BLACK
6
CONTINUOUS
10
2.69689
20
0.661483
11
2.69764
21
0.657717
0
LINE
8
BLACK
6
CONTINUOUS
10
2.69764
20
0.657717
11
2.69764
21
0.622283
0
LINE
8
BLACK
6
CONTINUOUS
10
2.69764
20
0.622283
11
2.69689
21
0.618517
0
LINE
8
BLACK
6
CONTINUOUS
10
2.69689
20
0.618517
11
2.69475
21
0.615324
0
LINE
8
BLACK
6
CONTINUOUS
10
2.69475
20
0.615324
11
2.69156
21
0.61319
0
LINE
8
BLACK
6
CONTINUOUS
10
2.69156
20
0.61319
11
2.6878
21
0.612441
0
LINE
8
BLACK
6
CONTINUOUS
10
2.6878
20
0.612441
11
2.6622
21
0.612441
0
LINE
8
BLACK
6
CONTINUOUS
10
2.6622
20
0.612441
11
2.65844
21
0.61319
0
LINE
8
BLACK
6
CONTINUOUS
10
2.65844
20
0.61319
11
2.65524
21
0.615324
0
LINE
8
BLACK
6
CONTINUOUS
10
2.65524
20
0.615324
11
2.65311
21
0.618517
0
LINE
8
BLACK
6
CONTINUOUS
10
2.65311
20
0.618517
11
2.65236
21
0.622283
0
LINE
8
BLACK
6
CONTINUOUS
10
2.65236
20
0.622283
11
2.65236
21
0.657717
0
LINE
8
BLACK
6
CONTINUOUS
10
2.65236
20
0.657717
11
2.65311
21
0.661483
0
LINE
8
BLACK
6
CONTINUOUS
10
2.65311
20
0.661483
11
2.65524
21
0.664676
0
LINE
8
BLACK
6
CONTINUOUS
10
2.65524
20
0.664676
11
2.65844
21
0.66681
0
LINE
8
BLACK
6
CONTINUOUS
10
2.65844
20
0.66681
11
2.6622
21
0.667559
0
LINE
8
BLACK
6
CONTINUOUS
10
2.6622
20
0.667559
11
2.6878
21
0.667559
0
LINE
8
BLACK
6
CONTINUOUS
10
2.6878
20
0.667559
11
2.69156
21
0.66681
0
LINE
8
BLACK
6
CONTINUOUS
10
2.765
20
0.6125
11
2.73
21
0.6125
0
LINE
8
BLACK
6
CONTINUOUS
10
2.73
20
0.6125
11
2.73
21
0.6675
0
LINE
8
BLACK
6
CONTINUOUS
10
2.73
20
0.6675
11
2.765
21
0.6675
0
LINE
8
BLACK
6
CONTINUOUS
10
2.765
20
0.6675
11
2.765
21
0.6125
0
LINE
8
BLACK
6
CONTINUOUS
10
2.84
20
0.6125
11
2.805
21
0.6125
0
LINE
8
BLACK
6
CONTINUOUS
10
2.805
20
0.6125
11
2.805
21
0.6675
0
LINE
8
BLACK
6
CONTINUOUS
10
2.805
20
0.6675
11
2.84
21
0.6675
0
LINE
8
BLACK
6
CONTINUOUS
10
2.84
20
0.6675
11
2.84
21
0.6125
0
LINE
8
BLACK
6
CONTINUOUS
10
3.04374
20
0.615472
11
2.99256
21
0.615472
0
LINE
8
BLACK
6
CONTINUOUS
10
2.99256
20
0.615472
11
2.99256
21
0.674528
0
LINE
8
BLACK
6
CONTINUOUS
10
2.99256
20
0.674528
11
3.04374
21
0.674528
0
LINE
8
BLACK
6
CONTINUOUS
10
3.04374
20
0.674528
11
3.04374
21
0.615472
0
LINE
8
BLACK
6
CONTINUOUS
10
2.93744
20
0.615472
11
2.88626
21
0.615472
0
LINE
8
BLACK
6
CONTINUOUS
10
2.88626
20
0.615472
11
2.88626
21
0.674528
0
LINE
8
BLACK
6
CONTINUOUS
10
2.88626
20
0.674528
11
2.93744
21
0.674528
0
LINE
8
BLACK
6
CONTINUOUS
10
2.93744
20
0.674528
11
2.93744
21
0.615472
0
LINE
8
BLACK
6
CONTINUOUS
10
2.5375
20
0.62
11
2.4825
21
0.62
0
LINE
8
BLACK
6
CONTINUOUS
10
2.4825
20
0.62
11
2.4825
21
0.655
0
LINE
8
BLACK
6
CONTINUOUS
10
2.4825
20
0.655
11
2.5375
21
0.655
0
LINE
8
BLACK
6
CONTINUOUS
10
2.5375
20
0.655
11
2.5375
21
0.62
0
LINE
8
BLACK
6
CONTINUOUS
10
2.36256
20
0.629803
11
2.32083
21
0.629803
0
LINE
8
BLACK
6
CONTINUOUS
10
2.32083
20
0.629803
11
2.32083
21
0.655394
0
LINE
8
BLACK
6
CONTINUOUS
10
2.32083
20
0.655394
11
2.36256
21
0.655394
0
LINE
8
BLACK
6
CONTINUOUS
10
2.36256
20
0.655394
11
2.36256
21
0.629803
0
LINE
8
BLACK
6
CONTINUOUS
10
2.44917
20
0.629803
11
2.40744
21
0.629803
0
LINE
8
BLACK
6
CONTINUOUS
10
2.40744
20
0.629803
11
2.40744
21
0.655394
0
LINE
8
BLACK
6
CONTINUOUS
10
2.40744
20
0.655394
11
2.44917
21
0.655394
0
LINE
8
BLACK
6
CONTINUOUS
10
2.44917
20
0.655394
11
2.44917
21
0.629803
0
LINE
8
BLACK
6
CONTINUOUS
10
1.5113
20
0.662264
11
1.4763
21
0.662264
0
LINE
8
BLACK
6
CONTINUOUS
10
1.4763
20
0.662264
11
1.4763
21
0.717264
0
LINE
8
BLACK
6
CONTINUOUS
10
1.4763
20
0.717264
11
1.5113
21
0.717264
0
LINE
8
BLACK
6
CONTINUOUS
10
1.5113
20
0.717264
11
1.5113
21
0.662264
0
LINE
8
BLACK
6
CONTINUOUS
10
1.4363
20
0.662264
11
1.4013
21
0.662264
0
LINE
8
BLACK
6
CONTINUOUS
10
1.4013
20
0.662264
11
1.4013
21
0.717264
0
LINE
8
BLACK
6
CONTINUOUS
10
1.4013
20
0.717264
11
1.4363
21
0.717264
0
LINE
8
BLACK
6
CONTINUOUS
10
1.4363
20
0.717264
11
1.4363
21
0.662264
0
LINE
8
BLACK
6
CONTINUOUS
10
2.07453
20
0.66626
11
2.01547
21
0.66626
0
LINE
8
BLACK
6
CONTINUOUS
10
2.01547
20
0.66626
11
2.01547
21
0.717441
0
LINE
8
BLACK
6
CONTINUOUS
10
2.01547
20
0.717441
11
2.07453
21
0.717441
0
LINE
8
BLACK
6
CONTINUOUS
10
2.07453
20
0.717441
11
2.07453
21
0.66626
0
LINE
8
BLACK
6
CONTINUOUS
10
2.44917
20
0.667205
11
2.40744
21
0.667205
0
LINE
8
BLACK
6
CONTINUOUS
10
2.40744
20
0.667205
11
2.40744
21
0.692795
0
LINE
8
BLACK
6
CONTINUOUS
10
2.40744
20
0.692795
11
2.44917
21
0.692795
0
LINE
8
BLACK
6
CONTINUOUS
10
2.44917
20
0.692795
11
2.44917
21
0.667205
0
LINE
8
BLACK
6
CONTINUOUS
10
3.1325
20
0.6675
11
3.0775
21
0.6675
0
LINE
8
BLACK
6
CONTINUOUS
10
3.0775
20
0.6675
11
3.0775
21
0.7025
0
LINE
8
BLACK
6
CONTINUOUS
10
3.0775
20
0.7025
11
3.1325
21
0.7025
0
LINE
8
BLACK
6
CONTINUOUS
10
3.1325
20
0.7025
11
3.1325
21
0.6675
0
LINE
8
BLACK
6
CONTINUOUS
10
3.3375
20
0.6675
11
3.3025
21
0.6675
0
LINE
8
BLACK
6
CONTINUOUS
10
3.3025
20
0.6675
11
3.3025
21
0.7225
0
LINE
8
BLACK
6
CONTINUOUS
10
3.3025
20
0.7225
11
3.3375
21
0.7225
0
LINE
8
BLACK
6
CONTINUOUS
10
3.3375
20
0.7225
11
3.3375
21
0.6675
0
LINE
8
BLACK
6
CONTINUOUS
10
3.4125
20
0.6675
11
3.3775
21
0.6675
0
LINE
8
BLACK
6
CONTINUOUS
10
3.3775
20
0.6675
11
3.3775
21
0.7225
0
LINE
8
BLACK
6
CONTINUOUS
10
3.3775
20
0.7225
11
3.4125
21
0.7225
0
LINE
8
BLACK
6
CONTINUOUS
10
3.4125
20
0.7225
11
3.4125
21
0.6675
0
LINE
8
BLACK
6
CONTINUOUS
10
1.7088
20
0.684764
11
1.6538
21
0.684764
0
LINE
8
BLACK
6
CONTINUOUS
10
1.6538
20
0.684764
11
1.6538
21
0.719764
0
LINE
8
BLACK
6
CONTINUOUS
10
1.6538
20
0.719764
11
1.7088
21
0.719764
0
LINE
8
BLACK
6
CONTINUOUS
10
1.7088
20
0.719764
11
1.7088
21
0.684764
0
LINE
8
BLACK
6
CONTINUOUS
10
1.6088
20
0.684764
11
1.5538
21
0.684764
0
LINE
8
BLACK
6
CONTINUOUS
10
1.5538
20
0.684764
11
1.5538
21
0.719764
0
LINE
8
BLACK
6
CONTINUOUS
10
1.5538
20
0.719764
11
1.6088
21
0.719764
0
LINE
8
BLACK
6
CONTINUOUS
10
1.6088
20
0.719764
11
1.6088
21
0.684764
0
LINE
8
BLACK
6
CONTINUOUS
10
1.9525
20
0.685
11
1.8975
21
0.685
0
LINE
8
BLACK
6
CONTINUOUS
10
1.8975
20
0.685
11
1.8975
21
0.72
0
LINE
8
BLACK
6
CONTINUOUS
10
1.8975
20
0.72
11
1.9525
21
0.72
0
LINE
8
BLACK
6
CONTINUOUS
10
1.9525
20
0.72
11
1.9525
21
0.685
0
LINE
8
BLACK
6
CONTINUOUS
10
2.1925
20
0.6875
11
2.1375
21
0.6875
0
LINE
8
BLACK
6
CONTINUOUS
10
2.1375
20
0.6875
11
2.1375
21
0.7225
0
LINE
8
BLACK
6
CONTINUOUS
10
2.1375
20
0.7225
11
2.1925
21
0.7225
0
LINE
8
BLACK
6
CONTINUOUS
10
2.1925
20
0.7225
11
2.1925
21
0.6875
0
LINE
8
BLACK
6
CONTINUOUS
10
2.2775
20
0.6875
11
2.2225
21
0.6875
0
LINE
8
BLACK
6
CONTINUOUS
10
2.2225
20
0.6875
11
2.2225
21
0.7225
0
LINE
8
BLACK
6
CONTINUOUS
10
2.2225
20
0.7225
11
2.2775
21
0.7225
0
LINE
8
BLACK
6
CONTINUOUS
10
2.2775
20
0.7225
11
2.2775
21
0.6875
0
LINE
8
BLACK
6
CONTINUOUS
10
2.8625
20
0.695
11
2.8075
21
0.695
0
LINE
8
BLACK
6
CONTINUOUS
10
2.8075
20
0.695
11
2.8075
21
0.73
0
LINE
8
BLACK
6
CONTINUOUS
10
2.8075
20
0.73
11
2.8625
21
0.73
0
LINE
8
BLACK
6
CONTINUOUS
10
2.8625
20
0.73
11
2.8625
21
0.695
0
LINE
8
BLACK
6
CONTINUOUS
10
2.5375
20
0.695
11
2.4825
21
0.695
0
LINE
8
BLACK
6
CONTINUOUS
10
2.4825
20
0.695
11
2.4825
21
0.73
0
LINE
8
BLACK
6
CONTINUOUS
10
2.4825
20
0.73
11
2.5375
21
0.73
0
LINE
8
BLACK
6
CONTINUOUS
10
2.5375
20
0.73
11
2.5375
21
0.695
0
LINE
8
BLACK
6
CONTINUOUS
10
2.44917
20
0.704606
11
2.40744
21
0.704606
0
LINE
8
BLACK
6
CONTINUOUS
10
2.40744
20
0.704606
11
2.40744
21
0.730197
0
LINE
8
BLACK
6
CONTINUOUS
10
2.40744
20
0.730197
11
2.44917
21
0.730197
0
LINE
8
BLACK
6
CONTINUOUS
10
2.44917
20
0.730197
11
2.44917
21
0.704606
0
LINE
8
BLACK
6
CONTINUOUS
10
2.36256
20
0.704606
11
2.32083
21
0.704606
0
LINE
8
BLACK
6
CONTINUOUS
10
2.32083
20
0.704606
11
2.32083
21
0.730197
0
LINE
8
BLACK
6
CONTINUOUS
10
2.32083
20
0.730197
11
2.36256
21
0.730197
0
LINE
8
BLACK
6
CONTINUOUS
10
2.36256
20
0.730197
11
2.36256
21
0.704606
0
LINE
8
BLACK
6
CONTINUOUS
10
0.423799
20
0.714764
11
0.368799
21
0.714764
0
LINE
8
BLACK
6
CONTINUOUS
10
0.368799
20
0.714764
11
0.368799
21
0.749764
0
LINE
8
BLACK
6
CONTINUOUS
10
0.368799
20
0.749764
11
0.423799
21
0.749764
0
LINE
8
BLACK
6
CONTINUOUS
10
0.423799
20
0.749764
11
0.423799
21
0.714764
0
LINE
8
BLACK
6
CONTINUOUS
10
0.585276
20
0.716614
11
0.549843
21
0.716614
0
LINE
8
BLACK
6
CONTINUOUS
10
0.549843
20
0.716614
11
0.549843
21
0.74811
0
LINE
8
BLACK
6
CONTINUOUS
10
0.549843
20
0.74811
11
0.585276
21
0.74811
0
LINE
8
BLACK
6
CONTINUOUS
10
0.585276
20
0.74811
11
0.585276
21
0.716614
0
LINE
8
BLACK
6
CONTINUOUS
10
2.6425
20
0.7225
11
2.6075
21
0.7225
0
LINE
8
BLACK
6
CONTINUOUS
10
2.6075
20
0.7225
11
2.6075
21
0.7775
0
LINE
8
BLACK
6
CONTINUOUS
10
2.6075
20
0.7775
11
2.6425
21
0.7775
0
LINE
8
BLACK
6
CONTINUOUS
10
2.6425
20
0.7775
11
2.6425
21
0.7225
0
LINE
8
BLACK
6
CONTINUOUS
10
2.7175
20
0.7225
11
2.6825
21
0.7225
0
LINE
8
BLACK
6
CONTINUOUS
10
2.6825
20
0.7225
11
2.6825
21
0.7775
0
LINE
8
BLACK
6
CONTINUOUS
10
2.6825
20
0.7775
11
2.7175
21
0.7775
0
LINE
8
BLACK
6
CONTINUOUS
10
2.7175
20
0.7775
11
2.7175
21
0.7225
0
LINE
8
BLACK
6
CONTINUOUS
10
2.10406
20
0.73122
11
1.98594
21
0.73122
0
LINE
8
BLACK
6
CONTINUOUS
10
1.98594
20
0.73122
11
1.98594
21
0.75878
0
LINE
8
BLACK
6
CONTINUOUS
10
1.98594
20
0.75878
11
2.10406
21
0.75878
0
LINE
8
BLACK
6
CONTINUOUS
10
2.10406
20
0.75878
11
2.10406
21
0.73122
0
LINE
8
BLACK
6
CONTINUOUS
10
3.03811
20
0.734567
11
2.99874
21
0.734567
0
LINE
8
BLACK
6
CONTINUOUS
10
2.99874
20
0.734567
11
2.99874
21
0.805433
0
LINE
8
BLACK
6
CONTINUOUS
10
2.99874
20
0.805433
11
3.03811
21
0.805433
0
LINE
8
BLACK
6
CONTINUOUS
10
3.03811
20
0.805433
11
3.03811
21
0.734567
0
LINE
8
BLACK
6
CONTINUOUS
10
2.93969
20
0.734567
11
2.90031
21
0.734567
0
LINE
8
BLACK
6
CONTINUOUS
10
2.90031
20
0.734567
11
2.90031
21
0.805433
0
LINE
8
BLACK
6
CONTINUOUS
10
2.90031
20
0.805433
11
2.93969
21
0.805433
0
LINE
8
BLACK
6
CONTINUOUS
10
2.93969
20
0.805433
11
2.93969
21
0.734567
0
LINE
8
BLACK
6
CONTINUOUS
10
0.664016
20
0.754016
11
0.628583
21
0.754016
0
LINE
8
BLACK
6
CONTINUOUS
10
0.628583
20
0.754016
11
0.628583
21
0.785512
0
LINE
8
BLACK
6
CONTINUOUS
10
0.628583
20
0.785512
11
0.664016
21
0.785512
0
LINE
8
BLACK
6
CONTINUOUS
10
0.664016
20
0.785512
11
0.664016
21
0.754016
0
LINE
8
BLACK
6
CONTINUOUS
10
3.4125
20
0.7575
11
3.3775
21
0.7575
0
LINE
8
BLACK
6
CONTINUOUS
10
3.3775
20
0.7575
11
3.3775
21
0.8125
0
LINE
8
BLACK
6
CONTINUOUS
10
3.3775
20
0.8125
11
3.4125
21
0.8125
0
LINE
8
BLACK
6
CONTINUOUS
10
3.4125
20
0.8125
11
3.4125
21
0.7575
0
LINE
8
BLACK
6
CONTINUOUS
10
3.3375
20
0.7575
11
3.3025
21
0.7575
0
LINE
8
BLACK
6
CONTINUOUS
10
3.3025
20
0.7575
11
3.3025
21
0.8125
0
LINE
8
BLACK
6
CONTINUOUS
10
3.3025
20
0.8125
11
3.3375
21
0.8125
0
LINE
8
BLACK
6
CONTINUOUS
10
3.3375
20
0.8125
11
3.3375
21
0.7575
0
LINE
8
BLACK
6
CONTINUOUS
10
1.4338
20
0.759764
11
1.3788
21
0.759764
0
LINE
8
BLACK
6
CONTINUOUS
10
1.3788
20
0.759764
11
1.3788
21
0.794764
0
LINE
8
BLACK
6
CONTINUOUS
10
1.3788
20
0.794764
11
1.4338
21
0.794764
0
LINE
8
BLACK
6
CONTINUOUS
10
1.4338
20
0.794764
11
1.4338
21
0.759764
0
LINE
8
BLACK
6
CONTINUOUS
10
1.9525
20
0.76
11
1.8975
21
0.76
0
LINE
8
BLACK
6
CONTINUOUS
10
1.8975
20
0.76
11
1.8975
21
0.795
0
LINE
8
BLACK
6
CONTINUOUS
10
1.8975
20
0.795
11
1.9525
21
0.795
0
LINE
8
BLACK
6
CONTINUOUS
10
1.9525
20
0.795
11
1.9525
21
0.76
0
LINE
8
BLACK
6
CONTINUOUS
10
2.40621
20
0.81681
11
2.4094
21
0.814676
0
LINE
8
BLACK
6
CONTINUOUS
10
2.4094
20
0.814676
11
2.41153
21
0.811483
0
LINE
8
BLACK
6
CONTINUOUS
10
2.41153
20
0.811483
11
2.41228
21
0.807717
0
LINE
8
BLACK
6
CONTINUOUS
10
2.41228
20
0.807717
11
2.41228
21
0.772283
0
LINE
8
BLACK
6
CONTINUOUS
10
2.41228
20
0.772283
11
2.41153
21
0.768517
0
LINE
8
BLACK
6
CONTINUOUS
10
2.41153
20
0.768517
11
2.4094
21
0.765324
0
LINE
8
BLACK
6
CONTINUOUS
10
2.4094
20
0.765324
11
2.40621
21
0.76319
0
LINE
8
BLACK
6
CONTINUOUS
10
2.40621
20
0.76319
11
2.40244
21
0.762441
0
LINE
8
BLACK
6
CONTINUOUS
10
2.40244
20
0.762441
11
2.37685
21
0.762441
0
LINE
8
BLACK
6
CONTINUOUS
10
2.37685
20
0.762441
11
2.37308
21
0.76319
0
LINE
8
BLACK
6
CONTINUOUS
10
2.37308
20
0.76319
11
2.36989
21
0.765324
0
LINE
8
BLACK
6
CONTINUOUS
10
2.36989
20
0.765324
11
2.36776
21
0.768517
0
LINE
8
BLACK
6
CONTINUOUS
10
2.36776
20
0.768517
11
2.36701
21
0.772283
0
LINE
8
BLACK
6
CONTINUOUS
10
2.36701
20
0.772283
11
2.36701
21
0.807717
0
LINE
8
BLACK
6
CONTINUOUS
10
2.36701
20
0.807717
11
2.36776
21
0.811483
0
LINE
8
BLACK
6
CONTINUOUS
10
2.36776
20
0.811483
11
2.36989
21
0.814676
0
LINE
8
BLACK
6
CONTINUOUS
10
2.36989
20
0.814676
11
2.37308
21
0.81681
0
LINE
8
BLACK
6
CONTINUOUS
10
2.37308
20
0.81681
11
2.37685
21
0.817559
0
LINE
8
BLACK
6
CONTINUOUS
10
2.37685
20
0.817559
11
2.40244
21
0.817559
0
LINE
8
BLACK
6
CONTINUOUS
10
2.40244
20
0.817559
11
2.40621
21
0.81681
0
LINE
8
BLACK
6
CONTINUOUS
10
2.48692
20
0.81681
11
2.49011
21
0.814676
0
LINE
8
BLACK
6
CONTINUOUS
10
2.49011
20
0.814676
11
2.49224
21
0.811483
0
LINE
8
BLACK
6
CONTINUOUS
10
2.49224
20
0.811483
11
2.49299
21
0.807717
0
LINE
8
BLACK
6
CONTINUOUS
10
2.49299
20
0.807717
11
2.49299
21
0.772283
0
LINE
8
BLACK
6
CONTINUOUS
10
2.49299
20
0.772283
11
2.49224
21
0.768517
0
LINE
8
BLACK
6
CONTINUOUS
10
2.49224
20
0.768517
11
2.49011
21
0.765324
0
LINE
8
BLACK
6
CONTINUOUS
10
2.49011
20
0.765324
11
2.48692
21
0.76319
0
LINE
8
BLACK
6
CONTINUOUS
10
2.48692
20
0.76319
11
2.48315
21
0.762441
0
LINE
8
BLACK
6
CONTINUOUS
10
2.48315
20
0.762441
11
2.45756
21
0.762441
0
LINE
8
BLACK
6
CONTINUOUS
10
2.45756
20
0.762441
11
2.45379
21
0.76319
0
LINE
8
BLACK
6
CONTINUOUS
10
2.45379
20
0.76319
11
2.4506
21
0.765324
0
LINE
8
BLACK
6
CONTINUOUS
10
2.4506
20
0.765324
11
2.44847
21
0.768517
0
LINE
8
BLACK
6
CONTINUOUS
10
2.44847
20
0.768517
11
2.44772
21
0.772283
0
LINE
8
BLACK
6
CONTINUOUS
10
2.44772
20
0.772283
11
2.44772
21
0.807717
0
LINE
8
BLACK
6
CONTINUOUS
10
2.44772
20
0.807717
11
2.44847
21
0.811483
0
LINE
8
BLACK
6
CONTINUOUS
10
2.44847
20
0.811483
11
2.4506
21
0.814676
0
LINE
8
BLACK
6
CONTINUOUS
10
2.4506
20
0.814676
11
2.45379
21
0.81681
0
LINE
8
BLACK
6
CONTINUOUS
10
2.45379
20
0.81681
11
2.45756
21
0.817559
0
LINE
8
BLACK
6
CONTINUOUS
10
2.45756
20
0.817559
11
2.48315
21
0.817559
0
LINE
8
BLACK
6
CONTINUOUS
10
2.48315
20
0.817559
11
2.48692
21
0.81681
0
LINE
8
BLACK
6
CONTINUOUS
10
2.2775
20
0.7625
11
2.2225
21
0.7625
0
LINE
8
BLACK
6
CONTINUOUS
10
2.2225
20
0.7625
11
2.2225
21
0.7975
0
LINE
8
BLACK
6
CONTINUOUS
10
2.2225
20
0.7975
11
2.2775
21
0.7975
0
LINE
8
BLACK
6
CONTINUOUS
10
2.2775
20
0.7975
11
2.2775
21
0.7625
0
LINE
8
BLACK
6
CONTINUOUS
10
2.1925
20
0.7625
11
2.1375
21
0.7625
0
LINE
8
BLACK
6
CONTINUOUS
10
2.1375
20
0.7625
11
2.1375
21
0.7975
0
LINE
8
BLACK
6
CONTINUOUS
10
2.1375
20
0.7975
11
2.1925
21
0.7975
0
LINE
8
BLACK
6
CONTINUOUS
10
2.1925
20
0.7975
11
2.1925
21
0.7625
0
LINE
8
BLACK
6
CONTINUOUS
10
1.71516
20
0.764567
11
1.65374
21
0.764567
0
LINE
8
BLACK
6
CONTINUOUS
10
1.65374
20
0.764567
11
1.65374
21
0.790157
0
LINE
8
BLACK
6
CONTINUOUS
10
1.65374
20
0.790157
11
1.71516
21
0.790157
0
LINE
8
BLACK
6
CONTINUOUS
10
1.71516
20
0.790157
11
1.71516
21
0.764567
0
LINE
8
BLACK
6
CONTINUOUS
10
1.60886
20
0.764567
11
1.54744
21
0.764567
0
LINE
8
BLACK
6
CONTINUOUS
10
1.54744
20
0.764567
11
1.54744
21
0.790157
0
LINE
8
BLACK
6
CONTINUOUS
10
1.54744
20
0.790157
11
1.60886
21
0.790157
0
LINE
8
BLACK
6
CONTINUOUS
10
1.60886
20
0.790157
11
1.60886
21
0.764567
0
LINE
8
BLACK
6
CONTINUOUS
10
2.8625
20
0.77
11
2.8075
21
0.77
0
LINE
8
BLACK
6
CONTINUOUS
10
2.8075
20
0.77
11
2.8075
21
0.805
0
LINE
8
BLACK
6
CONTINUOUS
10
2.8075
20
0.805
11
2.8625
21
0.805
0
LINE
8
BLACK
6
CONTINUOUS
10
2.8625
20
0.805
11
2.8625
21
0.77
0
LINE
8
BLACK
6
CONTINUOUS
10
2.07453
20
0.772559
11
2.01547
21
0.772559
0
LINE
8
BLACK
6
CONTINUOUS
10
2.01547
20
0.772559
11
2.01547
21
0.82374
0
LINE
8
BLACK
6
CONTINUOUS
10
2.01547
20
0.82374
11
2.07453
21
0.82374
0
LINE
8
BLACK
6
CONTINUOUS
10
2.07453
20
0.82374
11
2.07453
21
0.772559
0
LINE
8
BLACK
6
CONTINUOUS
10
0.423799
20
0.789764
11
0.368799
21
0.789764
0
LINE
8
BLACK
6
CONTINUOUS
10
0.368799
20
0.789764
11
0.368799
21
0.824764
0
LINE
8
BLACK
6
CONTINUOUS
10
0.368799
20
0.824764
11
0.423799
21
0.824764
0
LINE
8
BLACK
6
CONTINUOUS
10
0.423799
20
0.824764
11
0.423799
21
0.789764
0
LINE
8
BLACK
6
CONTINUOUS
10
0.585276
20
0.791417
11
0.549843
21
0.791417
0
LINE
8
BLACK
6
CONTINUOUS
10
0.549843
20
0.791417
11
0.549843
21
0.822913
0
LINE
8
BLACK
6
CONTINUOUS
10
0.549843
20
0.822913
11
0.585276
21
0.822913
0
LINE
8
BLACK
6
CONTINUOUS
10
0.585276
20
0.822913
11
0.585276
21
0.791417
0
LINE
8
BLACK
6
CONTINUOUS
10
1.60886
20
0.801969
11
1.54744
21
0.801969
0
LINE
8
BLACK
6
CONTINUOUS
10
1.54744
20
0.801969
11
1.54744
21
0.827559
0
LINE
8
BLACK
6
CONTINUOUS
10
1.54744
20
0.827559
11
1.60886
21
0.827559
0
LINE
8
BLACK
6
CONTINUOUS
10
1.60886
20
0.827559
11
1.60886
21
0.801969
0
LINE
8
BLACK
6
CONTINUOUS
10
2.7175
20
0.8025
11
2.6825
21
0.8025
0
LINE
8
BLACK
6
CONTINUOUS
10
2.6825
20
0.8025
11
2.6825
21
0.8575
0
LINE
8
BLACK
6
CONTINUOUS
10
2.6825
20
0.8575
11
2.7175
21
0.8575
0
LINE
8
BLACK
6
CONTINUOUS
10
2.7175
20
0.8575
11
2.7175
21
0.8025
0
LINE
8
BLACK
6
CONTINUOUS
10
2.6425
20
0.8025
11
2.6075
21
0.8025
0
LINE
8
BLACK
6
CONTINUOUS
10
2.6075
20
0.8025
11
2.6075
21
0.8575
0
LINE
8
BLACK
6
CONTINUOUS
10
2.6075
20
0.8575
11
2.6425
21
0.8575
0
LINE
8
BLACK
6
CONTINUOUS
10
2.6425
20
0.8575
11
2.6425
21
0.8025
0
LINE
8
BLACK
6
CONTINUOUS
10
1.85437
20
0.808228
11
1.815
21
0.808228
0
LINE
8
BLACK
6
CONTINUOUS
10
1.815
20
0.808228
11
1.815
21
0.957835
0
LINE
8
BLACK
6
CONTINUOUS
10
1.815
20
0.957835
11
1.85437
21
0.957835
0
LINE
8
BLACK
6
CONTINUOUS
10
1.85437
20
0.957835
11
1.85437
21
0.808228
0
LINE
8
BLACK
6
CONTINUOUS
10
3.57878
20
0.808228
11
3.53941
21
0.808228
0
LINE
8
BLACK
6
CONTINUOUS
10
3.53941
20
0.808228
11
3.53941
21
0.957835
0
LINE
8
BLACK
6
CONTINUOUS
10
3.53941
20
0.957835
11
3.57878
21
0.957835
0
LINE
8
BLACK
6
CONTINUOUS
10
3.57878
20
0.957835
11
3.57878
21
0.808228
0
LINE
8
BLACK
6
CONTINUOUS
10
0.0580315
20
0.81063
11
0.0186614
21
0.81063
0
LINE
8
BLACK
6
CONTINUOUS
10
0.0186614
20
0.81063
11
0.0186614
21
0.960236
0
LINE
8
BLACK
6
CONTINUOUS
10
0.0186614
20
0.960236
11
0.0580315
21
0.960236
0
LINE
8
BLACK
6
CONTINUOUS
10
0.0580315
20
0.960236
11
0.0580315
21
0.81063
0
LINE
8
BLACK
6
CONTINUOUS
10
1.78244
20
0.81063
11
1.74307
21
0.81063
0
LINE
8
BLACK
6
CONTINUOUS
10
1.74307
20
0.81063
11
1.74307
21
0.960236
0
LINE
8
BLACK
6
CONTINUOUS
10
1.74307
20
0.960236
11
1.78244
21
0.960236
0
LINE
8
BLACK
6
CONTINUOUS
10
1.78244
20
0.960236
11
1.78244
21
0.81063
0
LINE
8
BLACK
6
CONTINUOUS
10
0.323799
20
0.812264
11
0.288799
21
0.812264
0
LINE
8
BLACK
6
CONTINUOUS
10
0.288799
20
0.812264
11
0.288799
21
0.867264
0
LINE
8
BLACK
6
CONTINUOUS
10
0.288799
20
0.867264
11
0.323799
21
0.867264
0
LINE
8
BLACK
6
CONTINUOUS
10
0.323799
20
0.867264
11
0.323799
21
0.812264
0
LINE
8
BLACK
6
CONTINUOUS
10
0.248799
20
0.812264
11
0.213799
21
0.812264
0
LINE
8
BLACK
6
CONTINUOUS
10
0.213799
20
0.812264
11
0.213799
21
0.867264
0
LINE
8
BLACK
6
CONTINUOUS
10
0.213799
20
0.867264
11
0.248799
21
0.867264
0
LINE
8
BLACK
6
CONTINUOUS
10
0.248799
20
0.867264
11
0.248799
21
0.812264
0
LINE
8
BLACK
6
CONTINUOUS
10
3.0575
20
0.83
11
3.0025
21
0.83
0
LINE
8
BLACK
6
CONTINUOUS
10
3.0025
20
0.83
11
3.0025
21
0.865
0
LINE
8
BLACK
6
CONTINUOUS
10
3.0025
20
0.865
11
3.0575
21
0.865
0
LINE
8
BLACK
6
CONTINUOUS
10
3.0575
20
0.865
11
3.0575
21
0.83
0
LINE
8
BLACK
6
CONTINUOUS
10
2.85492
20
0.833701
11
2.84508
21
0.833701
0
LINE
8
BLACK
6
CONTINUOUS
10
2.84508
20
0.833701
11
2.84508
21
0.877008
0
LINE
8
BLACK
6
CONTINUOUS
10
2.84508
20
0.877008
11
2.85492
21
0.877008
0
LINE
8
BLACK
6
CONTINUOUS
10
2.85492
20
0.877008
11
2.85492
21
0.833701
0
LINE
8
BLACK
6
CONTINUOUS
10
2.89429
20
0.833701
11
2.88445
21
0.833701
0
LINE
8
BLACK
6
CONTINUOUS
10
2.88445
20
0.833701
11
2.88445
21
0.877008
0
LINE
8
BLACK
6
CONTINUOUS
10
2.88445
20
0.877008
11
2.89429
21
0.877008
0
LINE
8
BLACK
6
CONTINUOUS
10
2.89429
20
0.877008
11
2.89429
21
0.833701
0
LINE
8
BLACK
6
CONTINUOUS
10
2.81555
20
0.833701
11
2.80571
21
0.833701
0
LINE
8
BLACK
6
CONTINUOUS
10
2.80571
20
0.833701
11
2.80571
21
0.877008
0
LINE
8
BLACK
6
CONTINUOUS
10
2.80571
20
0.877008
11
2.81555
21
0.877008
0
LINE
8
BLACK
6
CONTINUOUS
10
2.81555
20
0.877008
11
2.81555
21
0.833701
0
LINE
8
BLACK
6
CONTINUOUS
10
2.83524
20
0.833701
11
2.82539
21
0.833701
0
LINE
8
BLACK
6
CONTINUOUS
10
2.82539
20
0.833701
11
2.82539
21
0.877008
0
LINE
8
BLACK
6
CONTINUOUS
10
2.82539
20
0.877008
11
2.83524
21
0.877008
0
LINE
8
BLACK
6
CONTINUOUS
10
2.83524
20
0.877008
11
2.83524
21
0.833701
0
LINE
8
BLACK
6
CONTINUOUS
10
2.87461
20
0.833701
11
2.86476
21
0.833701
0
LINE
8
BLACK
6
CONTINUOUS
10
2.86476
20
0.833701
11
2.86476
21
0.877008
0
LINE
8
BLACK
6
CONTINUOUS
10
2.86476
20
0.877008
11
2.87461
21
0.877008
0
LINE
8
BLACK
6
CONTINUOUS
10
2.87461
20
0.877008
11
2.87461
21
0.833701
0
LINE
8
BLACK
6
CONTINUOUS
10
1.4338
20
0.834764
11
1.3788
21
0.834764
0
LINE
8
BLACK
6
CONTINUOUS
10
1.3788
20
0.834764
11
1.3788
21
0.869764
0
LINE
8
BLACK
6
CONTINUOUS
10
1.3788
20
0.869764
11
1.4338
21
0.869764
0
LINE
8
BLACK
6
CONTINUOUS
10
1.4338
20
0.869764
11
1.4338
21
0.834764
0
LINE
8
BLACK
6
CONTINUOUS
10
1.71516
20
0.83937
11
1.65374
21
0.83937
0
LINE
8
BLACK
6
CONTINUOUS
10
1.65374
20
0.83937
11
1.65374
21
0.864961
0
LINE
8
BLACK
6
CONTINUOUS
10
1.65374
20
0.864961
11
1.71516
21
0.864961
0
LINE
8
BLACK
6
CONTINUOUS
10
1.71516
20
0.864961
11
1.71516
21
0.83937
0
LINE
8
BLACK
6
CONTINUOUS
10
1.60886
20
0.83937
11
1.54744
21
0.83937
0
LINE
8
BLACK
6
CONTINUOUS
10
1.54744
20
0.83937
11
1.54744
21
0.864961
0
LINE
8
BLACK
6
CONTINUOUS
10
1.54744
20
0.864961
11
1.60886
21
0.864961
0
LINE
8
BLACK
6
CONTINUOUS
10
1.60886
20
0.864961
11
1.60886
21
0.83937
0
LINE
8
BLACK
6
CONTINUOUS
10
2.48
20
0.8475
11
2.445
21
0.8475
0
LINE
8
BLACK
6
CONTINUOUS
10
2.445
20
0.8475
11
2.445
21
0.9025
0
LINE
8
BLACK
6
CONTINUOUS
10
2.445
20
0.9025
11
2.48
21
0.9025
0
LINE
8
BLACK
6
CONTINUOUS
10
2.48
20
0.9025
11
2.48
21
0.8475
0
LINE
8
BLACK
6
CONTINUOUS
10
2.555
20
0.8475
11
2.52
21
0.8475
0
LINE
8
BLACK
6
CONTINUOUS
10
2.52
20
0.8475
11
2.52
21
0.9025
0
LINE
8
BLACK
6
CONTINUOUS
10
2.52
20
0.9025
11
2.555
21
0.9025
0
LINE
8
BLACK
6
CONTINUOUS
10
2.555
20
0.9025
11
2.555
21
0.8475
0
LINE
8
BLACK
6
CONTINUOUS
10
0.723799
20
0.882264
11
0.668799
21
0.882264
0
LINE
8
BLACK
6
CONTINUOUS
10
0.668799
20
0.882264
11
0.668799
21
0.917264
0
LINE
8
BLACK
6
CONTINUOUS
10
0.668799
20
0.917264
11
0.723799
21
0.917264
0
LINE
8
BLACK
6
CONTINUOUS
10
0.723799
20
0.917264
11
0.723799
21
0.882264
0
LINE
8
BLACK
6
CONTINUOUS
10
0.803799
20
0.882264
11
0.748799
21
0.882264
0
LINE
8
BLACK
6
CONTINUOUS
10
0.748799
20
0.882264
11
0.748799
21
0.917264
0
LINE
8
BLACK
6
CONTINUOUS
10
0.748799
20
0.917264
11
0.803799
21
0.917264
0
LINE
8
BLACK
6
CONTINUOUS
10
0.803799
20
0.917264
11
0.803799
21
0.882264
0
LINE
8
BLACK
6
CONTINUOUS
10
1.0038
20
0.882264
11
0.948799
21
0.882264
0
LINE
8
BLACK
6
CONTINUOUS
10
0.948799
20
0.882264
11
0.948799
21
0.917264
0
LINE
8
BLACK
6
CONTINUOUS
10
0.948799
20
0.917264
11
1.0038
21
0.917264
0
LINE
8
BLACK
6
CONTINUOUS
10
1.0038
20
0.917264
11
1.0038
21
0.882264
0
LINE
8
BLACK
6
CONTINUOUS
10
1.0938
20
0.882264
11
1.0388
21
0.882264
0
LINE
8
BLACK
6
CONTINUOUS
10
1.0388
20
0.882264
11
1.0388
21
0.917264
0
LINE
8
BLACK
6
CONTINUOUS
10
1.0388
20
0.917264
11
1.0938
21
0.917264
0
LINE
8
BLACK
6
CONTINUOUS
10
1.0938
20
0.917264
11
1.0938
21
0.882264
0
LINE
8
BLACK
6
CONTINUOUS
10
3.375
20
0.89
11
3.315
21
0.89
0
LINE
8
BLACK
6
CONTINUOUS
10
3.315
20
0.89
11
3.315
21
0.95
0
LINE
8
BLACK
6
CONTINUOUS
10
3.315
20
0.95
11
3.375
21
0.95
0
LINE
8
BLACK
6
CONTINUOUS
10
3.375
20
0.95
11
3.375
21
0.89
0
LINE
8
BLACK
6
CONTINUOUS
10
3.475
20
0.89
11
3.415
21
0.89
0
LINE
8
BLACK
6
CONTINUOUS
10
3.415
20
0.89
11
3.415
21
0.95
0
LINE
8
BLACK
6
CONTINUOUS
10
3.415
20
0.95
11
3.475
21
0.95
0
LINE
8
BLACK
6
CONTINUOUS
10
3.475
20
0.95
11
3.475
21
0.89
0
LINE
8
BLACK
6
CONTINUOUS
10
3.19
20
0.8925
11
3.155
21
0.8925
0
LINE
8
BLACK
6
CONTINUOUS
10
3.155
20
0.8925
11
3.155
21
0.9475
0
LINE
8
BLACK
6
CONTINUOUS
10
3.155
20
0.9475
11
3.19
21
0.9475
0
LINE
8
BLACK
6
CONTINUOUS
10
3.19
20
0.9475
11
3.19
21
0.8925
0
LINE
8
BLACK
6
CONTINUOUS
10
3.265
20
0.8925
11
3.23
21
0.8925
0
LINE
8
BLACK
6
CONTINUOUS
10
3.23
20
0.8925
11
3.23
21
0.9475
0
LINE
8
BLACK
6
CONTINUOUS
10
3.23
20
0.9475
11
3.265
21
0.9475
0
LINE
8
BLACK
6
CONTINUOUS
10
3.265
20
0.9475
11
3.265
21
0.8925
0
LINE
8
BLACK
6
CONTINUOUS
10
2.005
20
0.9
11
1.945
21
0.9
0
LINE
8
BLACK
6
CONTINUOUS
10
1.945
20
0.9
11
1.945
21
0.96
0
LINE
8
BLACK
6
CONTINUOUS
10
1.945
20
0.96
11
2.005
21
0.96
0
LINE
8
BLACK
6
CONTINUOUS
10
2.005
20
0.96
11
2.005
21
0.9
0
LINE
8
BLACK
6
CONTINUOUS
10
2.105
20
0.9
11
2.045
21
0.9
0
LINE
8
BLACK
6
CONTINUOUS
10
2.045
20
0.9
11
2.045
21
0.96
0
LINE
8
BLACK
6
CONTINUOUS
10
2.045
20
0.96
11
2.105
21
0.96
0
LINE
8
BLACK
6
CONTINUOUS
10
2.105
20
0.96
11
2.105
21
0.9
0
LINE
8
BLACK
6
CONTINUOUS
10
3.0575
20
0.905
11
3.0025
21
0.905
0
LINE
8
BLACK
6
CONTINUOUS
10
3.0025
20
0.905
11
3.0025
21
0.94
0
LINE
8
BLACK
6
CONTINUOUS
10
3.0025
20
0.94
11
3.0575
21
0.94
0
LINE
8
BLACK
6
CONTINUOUS
10
3.0575
20
0.94
11
3.0575
21
0.905
0
LINE
8
BLACK
6
CONTINUOUS
10
1.7088
20
0.909764
11
1.6538
21
0.909764
0
LINE
8
BLACK
6
CONTINUOUS
10
1.6538
20
0.909764
11
1.6538
21
0.944764
0
LINE
8
BLACK
6
CONTINUOUS
10
1.6538
20
0.944764
11
1.7088
21
0.944764
0
LINE
8
BLACK
6
CONTINUOUS
10
1.7088
20
0.944764
11
1.7088
21
0.909764
0
LINE
8
BLACK
6
CONTINUOUS
10
0.461299
20
0.912264
11
0.426299
21
0.912264
0
LINE
8
BLACK
6
CONTINUOUS
10
0.426299
20
0.912264
11
0.426299
21
0.967264
0
LINE
8
BLACK
6
CONTINUOUS
10
0.426299
20
0.967264
11
0.461299
21
0.967264
0
LINE
8
BLACK
6
CONTINUOUS
10
0.461299
20
0.967264
11
0.461299
21
0.912264
0
LINE
8
BLACK
6
CONTINUOUS
10
0.248799
20
0.912264
11
0.213799
21
0.912264
0
LINE
8
BLACK
6
CONTINUOUS
10
0.213799
20
0.912264
11
0.213799
21
0.967264
0
LINE
8
BLACK
6
CONTINUOUS
10
0.213799
20
0.967264
11
0.248799
21
0.967264
0
LINE
8
BLACK
6
CONTINUOUS
10
0.248799
20
0.967264
11
0.248799
21
0.912264
0
LINE
8
BLACK
6
CONTINUOUS
10
0.323799
20
0.912264
11
0.288799
21
0.912264
0
LINE
8
BLACK
6
CONTINUOUS
10
0.288799
20
0.912264
11
0.288799
21
0.967264
0
LINE
8
BLACK
6
CONTINUOUS
10
0.288799
20
0.967264
11
0.323799
21
0.967264
0
LINE
8
BLACK
6
CONTINUOUS
10
0.323799
20
0.967264
11
0.323799
21
0.912264
0
LINE
8
BLACK
6
CONTINUOUS
10
0.386299
20
0.912264
11
0.351299
21
0.912264
0
LINE
8
BLACK
6
CONTINUOUS
10
0.351299
20
0.912264
11
0.351299
21
0.967264
0
LINE
8
BLACK
6
CONTINUOUS
10
0.351299
20
0.967264
11
0.386299
21
0.967264
0
LINE
8
BLACK
6
CONTINUOUS
10
0.386299
20
0.967264
11
0.386299
21
0.912264
0
LINE
8
BLACK
6
CONTINUOUS
10
0.633799
20
0.922264
11
0.578799
21
0.922264
0
LINE
8
BLACK
6
CONTINUOUS
10
0.578799
20
0.922264
11
0.578799
21
0.957264
0
LINE
8
BLACK
6
CONTINUOUS
10
0.578799
20
0.957264
11
0.633799
21
0.957264
0
LINE
8
BLACK
6
CONTINUOUS
10
0.633799
20
0.957264
11
0.633799
21
0.922264
0
LINE
8
BLACK
6
CONTINUOUS
10
1.42311
20
0.922953
11
1.36209
21
0.922953
0
LINE
8
BLACK
6
CONTINUOUS
10
1.36209
20
0.922953
11
1.36209
21
0.946575
0
LINE
8
BLACK
6
CONTINUOUS
10
1.36209
20
0.946575
11
1.42311
21
0.946575
0
LINE
8
BLACK
6
CONTINUOUS
10
1.42311
20
0.946575
11
1.42311
21
0.922953
0
LINE
8
BLACK
6
CONTINUOUS
10
1.21051
20
0.922953
11
1.14949
21
0.922953
0
LINE
8
BLACK
6
CONTINUOUS
10
1.14949
20
0.922953
11
1.14949
21
0.946575
0
LINE
8
BLACK
6
CONTINUOUS
10
1.14949
20
0.946575
11
1.21051
21
0.946575
0
LINE
8
BLACK
6
CONTINUOUS
10
1.21051
20
0.946575
11
1.21051
21
0.922953
0
LINE
8
BLACK
6
CONTINUOUS
10
1.5138
20
0.924764
11
1.4588
21
0.924764
0
LINE
8
BLACK
6
CONTINUOUS
10
1.4588
20
0.924764
11
1.4588
21
0.959764
0
LINE
8
BLACK
6
CONTINUOUS
10
1.4588
20
0.959764
11
1.5138
21
0.959764
0
LINE
8
BLACK
6
CONTINUOUS
10
1.5138
20
0.959764
11
1.5138
21
0.924764
0
LINE
8
BLACK
6
CONTINUOUS
10
1.6038
20
0.924764
11
1.5488
21
0.924764
0
LINE
8
BLACK
6
CONTINUOUS
10
1.5488
20
0.924764
11
1.5488
21
0.959764
0
LINE
8
BLACK
6
CONTINUOUS
10
1.5488
20
0.959764
11
1.6038
21
0.959764
0
LINE
8
BLACK
6
CONTINUOUS
10
1.6038
20
0.959764
11
1.6038
21
0.924764
0
LINE
8
BLACK
6
CONTINUOUS
10
2.46949
20
0.952362
11
2.44783
21
0.952362
0
LINE
8
BLACK
6
CONTINUOUS
10
2.44783
20
0.952362
11
2.44783
21
1.01142
0
LINE
8
BLACK
6
CONTINUOUS
10
2.44783
20
1.01142
11
2.46949
21
1.01142
0
LINE
8
BLACK
6
CONTINUOUS
10
2.46949
20
1.01142
11
2.46949
21
0.952362
0
LINE
8
BLACK
6
CONTINUOUS
10
2.53248
20
0.952362
11
2.51083
21
0.952362
0
LINE
8
BLACK
6
CONTINUOUS
10
2.51083
20
0.952362
11
2.51083
21
1.01142
0
LINE
8
BLACK
6
CONTINUOUS
10
2.51083
20
1.01142
11
2.53248
21
1.01142
0
LINE
8
BLACK
6
CONTINUOUS
10
2.53248
20
1.01142
11
2.53248
21
0.952362
0
LINE
8
BLACK
6
CONTINUOUS
10
2.62697
20
0.952362
11
2.60531
21
0.952362
0
LINE
8
BLACK
6
CONTINUOUS
10
2.60531
20
0.952362
11
2.60531
21
1.01142
0
LINE
8
BLACK
6
CONTINUOUS
10
2.60531
20
1.01142
11
2.62697
21
1.01142
0
LINE
8
BLACK
6
CONTINUOUS
10
2.62697
20
1.01142
11
2.62697
21
0.952362
0
LINE
8
BLACK
6
CONTINUOUS
10
2.56398
20
0.952362
11
2.54232
21
0.952362
0
LINE
8
BLACK
6
CONTINUOUS
10
2.54232
20
0.952362
11
2.54232
21
1.01142
0
LINE
8
BLACK
6
CONTINUOUS
10
2.54232
20
1.01142
11
2.56398
21
1.01142
0
LINE
8
BLACK
6
CONTINUOUS
10
2.56398
20
1.01142
11
2.56398
21
0.952362
0
LINE
8
BLACK
6
CONTINUOUS
10
2.50098
20
0.952362
11
2.47933
21
0.952362
0
LINE
8
BLACK
6
CONTINUOUS
10
2.47933
20
0.952362
11
2.47933
21
1.01142
0
LINE
8
BLACK
6
CONTINUOUS
10
2.47933
20
1.01142
11
2.50098
21
1.01142
0
LINE
8
BLACK
6
CONTINUOUS
10
2.50098
20
1.01142
11
2.50098
21
0.952362
0
LINE
8
BLACK
6
CONTINUOUS
10
2.65846
20
0.952362
11
2.63681
21
0.952362
0
LINE
8
BLACK
6
CONTINUOUS
10
2.63681
20
0.952362
11
2.63681
21
1.01142
0
LINE
8
BLACK
6
CONTINUOUS
10
2.63681
20
1.01142
11
2.65846
21
1.01142
0
LINE
8
BLACK
6
CONTINUOUS
10
2.65846
20
1.01142
11
2.65846
21
0.952362
0
LINE
8
BLACK
6
CONTINUOUS
10
2.59547
20
0.952362
11
2.57382
21
0.952362
0
LINE
8
BLACK
6
CONTINUOUS
10
2.57382
20
0.952362
11
2.57382
21
1.01142
0
LINE
8
BLACK
6
CONTINUOUS
10
2.57382
20
1.01142
11
2.59547
21
1.01142
0
LINE
8
BLACK
6
CONTINUOUS
10
2.59547
20
1.01142
11
2.59547
21
0.952362
0
LINE
8
BLACK
6
CONTINUOUS
10
2.3435
20
0.952362
11
2.32185
21
0.952362
0
LINE
8
BLACK
6
CONTINUOUS
10
2.32185
20
0.952362
11
2.32185
21
1.01142
0
LINE
8
BLACK
6
CONTINUOUS
10
2.32185
20
1.01142
11
2.3435
21
1.01142
0
LINE
8
BLACK
6
CONTINUOUS
10
2.3435
20
1.01142
11
2.3435
21
0.952362
0
LINE
8
BLACK
6
CONTINUOUS
10
2.375
20
0.952362
11
2.35335
21
0.952362
0
LINE
8
BLACK
6
CONTINUOUS
10
2.35335
20
0.952362
11
2.35335
21
1.01142
0
LINE
8
BLACK
6
CONTINUOUS
10
2.35335
20
1.01142
11
2.375
21
1.01142
0
LINE
8
BLACK
6
CONTINUOUS
10
2.375
20
1.01142
11
2.375
21
0.952362
0
LINE
8
BLACK
6
CONTINUOUS
10
2.4065
20
0.952362
11
2.38484
21
0.952362
0
LINE
8
BLACK
6
CONTINUOUS
10
2.38484
20
0.952362
11
2.38484
21
1.01142
0
LINE
8
BLACK
6
CONTINUOUS
10
2.38484
20
1.01142
11
2.4065
21
1.01142
0
LINE
8
BLACK
6
CONTINUOUS
10
2.4065
20
1.01142
11
2.4065
21
0.952362
0
LINE
8
BLACK
6
CONTINUOUS
10
2.43799
20
0.952362
11
2.41634
21
0.952362
0
LINE
8
BLACK
6
CONTINUOUS
10
2.41634
20
0.952362
11
2.41634
21
1.01142
0
LINE
8
BLACK
6
CONTINUOUS
10
2.41634
20
1.01142
11
2.43799
21
1.01142
0
LINE
8
BLACK
6
CONTINUOUS
10
2.43799
20
1.01142
11
2.43799
21
0.952362
0
LINE
8
BLACK
6
CONTINUOUS
10
0.803799
20
0.957264
11
0.748799
21
0.957264
0
LINE
8
BLACK
6
CONTINUOUS
10
0.748799
20
0.957264
11
0.748799
21
0.992264
0
LINE
8
BLACK
6
CONTINUOUS
10
0.748799
20
0.992264
11
0.803799
21
0.992264
0
LINE
8
BLACK
6
CONTINUOUS
10
0.803799
20
0.992264
11
0.803799
21
0.957264
0
LINE
8
BLACK
6
CONTINUOUS
10
0.723799
20
0.957264
11
0.668799
21
0.957264
0
LINE
8
BLACK
6
CONTINUOUS
10
0.668799
20
0.957264
11
0.668799
21
0.992264
0
LINE
8
BLACK
6
CONTINUOUS
10
0.668799
20
0.992264
11
0.723799
21
0.992264
0
LINE
8
BLACK
6
CONTINUOUS
10
0.723799
20
0.992264
11
0.723799
21
0.957264
0
LINE
8
BLACK
6
CONTINUOUS
10
1.0938
20
0.957264
11
1.0388
21
0.957264
0
LINE
8
BLACK
6
CONTINUOUS
10
1.0388
20
0.957264
11
1.0388
21
0.992264
0
LINE
8
BLACK
6
CONTINUOUS
10
1.0388
20
0.992264
11
1.0938
21
0.992264
0
LINE
8
BLACK
6
CONTINUOUS
10
1.0938
20
0.992264
11
1.0938
21
0.957264
0
LINE
8
BLACK
6
CONTINUOUS
10
1.0038
20
0.957264
11
0.948799
21
0.957264
0
LINE
8
BLACK
6
CONTINUOUS
10
0.948799
20
0.957264
11
0.948799
21
0.992264
0
LINE
8
BLACK
6
CONTINUOUS
10
0.948799
20
0.992264
11
1.0038
21
0.992264
0
LINE
8
BLACK
6
CONTINUOUS
10
1.0038
20
0.992264
11
1.0038
21
0.957264
0
LINE
8
BLACK
6
CONTINUOUS
10
1.42311
20
0.972953
11
1.36209
21
0.972953
0
LINE
8
BLACK
6
CONTINUOUS
10
1.36209
20
0.972953
11
1.36209
21
0.996575
0
LINE
8
BLACK
6
CONTINUOUS
10
1.36209
20
0.996575
11
1.42311
21
0.996575
0
LINE
8
BLACK
6
CONTINUOUS
10
1.42311
20
0.996575
11
1.42311
21
0.972953
0
LINE
8
BLACK
6
CONTINUOUS
10
1.21051
20
0.972953
11
1.14949
21
0.972953
0
LINE
8
BLACK
6
CONTINUOUS
10
1.14949
20
0.972953
11
1.14949
21
0.996575
0
LINE
8
BLACK
6
CONTINUOUS
10
1.14949
20
0.996575
11
1.21051
21
0.996575
0
LINE
8
BLACK
6
CONTINUOUS
10
1.21051
20
0.996575
11
1.21051
21
0.972953
0
LINE
8
BLACK
6
CONTINUOUS
10
3.125
20
0.9825
11
3.09
21
0.9825
0
LINE
8
BLACK
6
CONTINUOUS
10
3.09
20
0.9825
11
3.09
21
1.0375
0
LINE
8
BLACK
6
CONTINUOUS
10
3.09
20
1.0375
11
3.125
21
1.0375
0
LINE
8
BLACK
6
CONTINUOUS
10
3.125
20
1.0375
11
3.125
21
0.9825
0
LINE
8
BLACK
6
CONTINUOUS
10
3.2
20
0.9825
11
3.165
21
0.9825
0
LINE
8
BLACK
6
CONTINUOUS
10
3.165
20
0.9825
11
3.165
21
1.0375
0
LINE
8
BLACK
6
CONTINUOUS
10
3.165
20
1.0375
11
3.2
21
1.0375
0
LINE
8
BLACK
6
CONTINUOUS
10
3.2
20
1.0375
11
3.2
21
0.9825
0
LINE
8
BLACK
6
CONTINUOUS
10
1.7088
20
0.984764
11
1.6538
21
0.984764
0
LINE
8
BLACK
6
CONTINUOUS
10
1.6538
20
0.984764
11
1.6538
21
1.01976
0
LINE
8
BLACK
6
CONTINUOUS
10
1.6538
20
1.01976
11
1.7088
21
1.01976
0
LINE
8
BLACK
6
CONTINUOUS
10
1.7088
20
1.01976
11
1.7088
21
0.984764
0
LINE
8
BLACK
6
CONTINUOUS
10
3.375
20
0.99
11
3.315
21
0.99
0
LINE
8
BLACK
6
CONTINUOUS
10
3.315
20
0.99
11
3.315
21
1.05
0
LINE
8
BLACK
6
CONTINUOUS
10
3.315
20
1.05
11
3.375
21
1.05
0
LINE
8
BLACK
6
CONTINUOUS
10
3.375
20
1.05
11
3.375
21
0.99
0
LINE
8
BLACK
6
CONTINUOUS
10
3.475
20
0.99
11
3.415
21
0.99
0
LINE
8
BLACK
6
CONTINUOUS
10
3.415
20
0.99
11
3.415
21
1.05
0
LINE
8
BLACK
6
CONTINUOUS
10
3.415
20
1.05
11
3.475
21
1.05
0
LINE
8
BLACK
6
CONTINUOUS
10
3.475
20
1.05
11
3.475
21
0.99
0
LINE
8
BLACK
6
CONTINUOUS
10
2.98
20
0.9925
11
2.945
21
0.9925
0
LINE
8
BLACK
6
CONTINUOUS
10
2.945
20
0.9925
11
2.945
21
1.0475
0
LINE
8
BLACK
6
CONTINUOUS
10
2.945
20
1.0475
11
2.98
21
1.0475
0
LINE
8
BLACK
6
CONTINUOUS
10
2.98
20
1.0475
11
2.98
21
0.9925
0
LINE
8
BLACK
6
CONTINUOUS
10
3.055
20
0.9925
11
3.02
21
0.9925
0
LINE
8
BLACK
6
CONTINUOUS
10
3.02
20
0.9925
11
3.02
21
1.0475
0
LINE
8
BLACK
6
CONTINUOUS
10
3.02
20
1.0475
11
3.055
21
1.0475
0
LINE
8
BLACK
6
CONTINUOUS
10
3.055
20
1.0475
11
3.055
21
0.9925
0
LINE
8
BLACK
6
CONTINUOUS
10
0.633799
20
0.997264
11
0.578799
21
0.997264
0
LINE
8
BLACK
6
CONTINUOUS
10
0.578799
20
0.997264
11
0.578799
21
1.03226
0
LINE
8
BLACK
6
CONTINUOUS
10
0.578799
20
1.03226
11
0.633799
21
1.03226
0
LINE
8
BLACK
6
CONTINUOUS
10
0.633799
20
1.03226
11
0.633799
21
0.997264
0
LINE
8
BLACK
6
CONTINUOUS
10
1.6038
20
0.999764
11
1.5488
21
0.999764
0
LINE
8
BLACK
6
CONTINUOUS
10
1.5488
20
0.999764
11
1.5488
21
1.03476
0
LINE
8
BLACK
6
CONTINUOUS
10
1.5488
20
1.03476
11
1.6038
21
1.03476
0
LINE
8
BLACK
6
CONTINUOUS
10
1.6038
20
1.03476
11
1.6038
21
0.999764
0
LINE
8
BLACK
6
CONTINUOUS
10
1.5138
20
0.999764
11
1.4588
21
0.999764
0
LINE
8
BLACK
6
CONTINUOUS
10
1.4588
20
0.999764
11
1.4588
21
1.03476
0
LINE
8
BLACK
6
CONTINUOUS
10
1.4588
20
1.03476
11
1.5138
21
1.03476
0
LINE
8
BLACK
6
CONTINUOUS
10
1.5138
20
1.03476
11
1.5138
21
0.999764
0
LINE
8
BLACK
6
CONTINUOUS
10
2.105
20
1
11
2.045
21
1
0
LINE
8
BLACK
6
CONTINUOUS
10
2.045
20
1
11
2.045
21
1.06
0
LINE
8
BLACK
6
CONTINUOUS
10
2.045
20
1.06
11
2.105
21
1.06
0
LINE
8
BLACK
6
CONTINUOUS
10
2.105
20
1.06
11
2.105
21
1
0
LINE
8
BLACK
6
CONTINUOUS
10
2.005
20
1
11
1.945
21
1
0
LINE
8
BLACK
6
CONTINUOUS
10
1.945
20
1
11
1.945
21
1.06
0
LINE
8
BLACK
6
CONTINUOUS
10
1.945
20
1.06
11
2.005
21
1.06
0
LINE
8
BLACK
6
CONTINUOUS
10
2.005
20
1.06
11
2.005
21
1
0
LINE
8
BLACK
6
CONTINUOUS
10
0.330512
20
1.00295
11
0.269488
21
1.00295
0
LINE
8
BLACK
6
CONTINUOUS
10
0.269488
20
1.00295
11
0.269488
21
1.02657
0
LINE
8
BLACK
6
CONTINUOUS
10
0.269488
20
1.02657
11
0.330512
21
1.02657
0
LINE
8
BLACK
6
CONTINUOUS
10
0.330512
20
1.02657
11
0.330512
21
1.00295
0
LINE
8
BLACK
6
CONTINUOUS
10
0.54311
20
1.00295
11
0.482087
21
1.00295
0
LINE
8
BLACK
6
CONTINUOUS
10
0.482087
20
1.00295
11
0.482087
21
1.02657
0
LINE
8
BLACK
6
CONTINUOUS
10
0.482087
20
1.02657
11
0.54311
21
1.02657
0
LINE
8
BLACK
6
CONTINUOUS
10
0.54311
20
1.02657
11
0.54311
21
1.00295
0
LINE
8
BLACK
6
CONTINUOUS
10
2.81555
20
1.00299
11
2.80571
21
1.00299
0
LINE
8
BLACK
6
CONTINUOUS
10
2.80571
20
1.00299
11
2.80571
21
1.0463
0
LINE
8
BLACK
6
CONTINUOUS
10
2.80571
20
1.0463
11
2.81555
21
1.0463
0
LINE
8
BLACK
6
CONTINUOUS
10
2.81555
20
1.0463
11
2.81555
21
1.00299
0
LINE
8
BLACK
6
CONTINUOUS
10
2.83524
20
1.00299
11
2.82539
21
1.00299
0
LINE
8
BLACK
6
CONTINUOUS
10
2.82539
20
1.00299
11
2.82539
21
1.0463
0
LINE
8
BLACK
6
CONTINUOUS
10
2.82539
20
1.0463
11
2.83524
21
1.0463
0
LINE
8
BLACK
6
CONTINUOUS
10
2.83524
20
1.0463
11
2.83524
21
1.00299
0
LINE
8
BLACK
6
CONTINUOUS
10
2.85492
20
1.00299
11
2.84508
21
1.00299
0
LINE
8
BLACK
6
CONTINUOUS
10
2.84508
20
1.00299
11
2.84508
21
1.0463
0
LINE
8
BLACK
6
CONTINUOUS
10
2.84508
20
1.0463
11
2.85492
21
1.0463
0
LINE
8
BLACK
6
CONTINUOUS
10
2.85492
20
1.0463
11
2.85492
21
1.00299
0
LINE
8
BLACK
6
CONTINUOUS
10
2.87461
20
1.00299
11
2.86476
21
1.00299
0
LINE
8
BLACK
6
CONTINUOUS
10
2.86476
20
1.00299
11
2.86476
21
1.0463
0
LINE
8
BLACK
6
CONTINUOUS
10
2.86476
20
1.0463
11
2.87461
21
1.0463
0
LINE
8
BLACK
6
CONTINUOUS
10
2.87461
20
1.0463
11
2.87461
21
1.00299
0
LINE
8
BLACK
6
CONTINUOUS
10
2.89429
20
1.00299
11
2.88445
21
1.00299
0
LINE
8
BLACK
6
CONTINUOUS
10
2.88445
20
1.00299
11
2.88445
21
1.0463
0
LINE
8
BLACK
6
CONTINUOUS
10
2.88445
20
1.0463
11
2.89429
21
1.0463
0
LINE
8
BLACK
6
CONTINUOUS
10
2.89429
20
1.0463
11
2.89429
21
1.00299
0
LINE
8
BLACK
6
CONTINUOUS
10
0.823799
20
1.02226
11
0.768799
21
1.02226
0
LINE
8
BLACK
6
CONTINUOUS
10
0.768799
20
1.02226
11
0.768799
21
1.05726
0
LINE
8
BLACK
6
CONTINUOUS
10
0.768799
20
1.05726
11
0.823799
21
1.05726
0
LINE
8
BLACK
6
CONTINUOUS
10
0.823799
20
1.05726
11
0.823799
21
1.02226
0
LINE
8
BLACK
6
CONTINUOUS
10
0.733799
20
1.02226
11
0.678799
21
1.02226
0
LINE
8
BLACK
6
CONTINUOUS
10
0.678799
20
1.02226
11
0.678799
21
1.05726
0
LINE
8
BLACK
6
CONTINUOUS
10
0.678799
20
1.05726
11
0.733799
21
1.05726
0
LINE
8
BLACK
6
CONTINUOUS
10
0.733799
20
1.05726
11
0.733799
21
1.02226
0
LINE
8
BLACK
6
CONTINUOUS
10
1.21051
20
1.02295
11
1.14949
21
1.02295
0
LINE
8
BLACK
6
CONTINUOUS
10
1.14949
20
1.02295
11
1.14949
21
1.04657
0
LINE
8
BLACK
6
CONTINUOUS
10
1.14949
20
1.04657
11
1.21051
21
1.04657
0
LINE
8
BLACK
6
CONTINUOUS
10
1.21051
20
1.04657
11
1.21051
21
1.02295
0
LINE
8
BLACK
6
CONTINUOUS
10
1.42311
20
1.02295
11
1.36209
21
1.02295
0
LINE
8
BLACK
6
CONTINUOUS
10
1.36209
20
1.02295
11
1.36209
21
1.04657
0
LINE
8
BLACK
6
CONTINUOUS
10
1.36209
20
1.04657
11
1.42311
21
1.04657
0
LINE
8
BLACK
6
CONTINUOUS
10
1.42311
20
1.04657
11
1.42311
21
1.02295
0
LINE
8
BLACK
6
CONTINUOUS
10
0.923799
20
1.02726
11
0.868799
21
1.02726
0
LINE
8
BLACK
6
CONTINUOUS
10
0.868799
20
1.02726
11
0.868799
21
1.06226
0
LINE
8
BLACK
6
CONTINUOUS
10
0.868799
20
1.06226
11
0.923799
21
1.06226
0
LINE
8
BLACK
6
CONTINUOUS
10
0.923799
20
1.06226
11
0.923799
21
1.02726
0
LINE
8
BLACK
6
CONTINUOUS
10
1.0038
20
1.02726
11
0.948799
21
1.02726
0
LINE
8
BLACK
6
CONTINUOUS
10
0.948799
20
1.02726
11
0.948799
21
1.06226
0
LINE
8
BLACK
6
CONTINUOUS
10
0.948799
20
1.06226
11
1.0038
21
1.06226
0
LINE
8
BLACK
6
CONTINUOUS
10
1.0038
20
1.06226
11
1.0038
21
1.02726
0
LINE
8
BLACK
6
CONTINUOUS
10
2.29528
20
1.03799
11
2.23622
21
1.03799
0
LINE
8
BLACK
6
CONTINUOUS
10
2.23622
20
1.03799
11
2.23622
21
1.05965
0
LINE
8
BLACK
6
CONTINUOUS
10
2.23622
20
1.05965
11
2.29528
21
1.05965
0
LINE
8
BLACK
6
CONTINUOUS
10
2.29528
20
1.05965
11
2.29528
21
1.03799
0
LINE
8
BLACK
6
CONTINUOUS
10
2.74409
20
1.03799
11
2.68504
21
1.03799
0
LINE
8
BLACK
6
CONTINUOUS
10
2.68504
20
1.03799
11
2.68504
21
1.05965
0
LINE
8
BLACK
6
CONTINUOUS
10
2.68504
20
1.05965
11
2.74409
21
1.05965
0
LINE
8
BLACK
6
CONTINUOUS
10
2.74409
20
1.05965
11
2.74409
21
1.03799
0
LINE
8
BLACK
6
CONTINUOUS
10
1.85437
20
1.04445
11
1.815
21
1.04445
0
LINE
8
BLACK
6
CONTINUOUS
10
1.815
20
1.04445
11
1.815
21
1.19406
0
LINE
8
BLACK
6
CONTINUOUS
10
1.815
20
1.19406
11
1.85437
21
1.19406
0
LINE
8
BLACK
6
CONTINUOUS
10
1.85437
20
1.19406
11
1.85437
21
1.04445
0
LINE
8
BLACK
6
CONTINUOUS
10
3.57878
20
1.04445
11
3.53941
21
1.04445
0
LINE
8
BLACK
6
CONTINUOUS
10
3.53941
20
1.04445
11
3.53941
21
1.19406
0
LINE
8
BLACK
6
CONTINUOUS
10
3.53941
20
1.19406
11
3.57878
21
1.19406
0
LINE
8
BLACK
6
CONTINUOUS
10
3.57878
20
1.19406
11
3.57878
21
1.04445
0
LINE
8
BLACK
6
CONTINUOUS
10
0.0580315
20
1.04685
11
0.0186614
21
1.04685
0
LINE
8
BLACK
6
CONTINUOUS
10
0.0186614
20
1.04685
11
0.0186614
21
1.19646
0
LINE
8
BLACK
6
CONTINUOUS
10
0.0186614
20
1.19646
11
0.0580315
21
1.19646
0
LINE
8
BLACK
6
CONTINUOUS
10
0.0580315
20
1.19646
11
0.0580315
21
1.04685
0
LINE
8
BLACK
6
CONTINUOUS
10
1.78244
20
1.04685
11
1.74307
21
1.04685
0
LINE
8
BLACK
6
CONTINUOUS
10
1.74307
20
1.04685
11
1.74307
21
1.19646
0
LINE
8
BLACK
6
CONTINUOUS
10
1.74307
20
1.19646
11
1.78244
21
1.19646
0
LINE
8
BLACK
6
CONTINUOUS
10
1.78244
20
1.19646
11
1.78244
21
1.04685
0
LINE
8
BLACK
6
CONTINUOUS
10
0.54311
20
1.05295
11
0.482087
21
1.05295
0
LINE
8
BLACK
6
CONTINUOUS
10
0.482087
20
1.05295
11
0.482087
21
1.07657
0
LINE
8
BLACK
6
CONTINUOUS
10
0.482087
20
1.07657
11
0.54311
21
1.07657
0
LINE
8
BLACK
6
CONTINUOUS
10
0.54311
20
1.07657
11
0.54311
21
1.05295
0
LINE
8
BLACK
6
CONTINUOUS
10
0.330512
20
1.05295
11
0.269488
21
1.05295
0
LINE
8
BLACK
6
CONTINUOUS
10
0.269488
20
1.05295
11
0.269488
21
1.07657
0
LINE
8
BLACK
6
CONTINUOUS
10
0.269488
20
1.07657
11
0.330512
21
1.07657
0
LINE
8
BLACK
6
CONTINUOUS
10
0.330512
20
1.07657
11
0.330512
21
1.05295
0
LINE
8
BLACK
6
CONTINUOUS
10
1.1038
20
1.05976
11
1.0488
21
1.05976
0
LINE
8
BLACK
6
CONTINUOUS
10
1.0488
20
1.05976
11
1.0488
21
1.09476
0
LINE
8
BLACK
6
CONTINUOUS
10
1.0488
20
1.09476
11
1.1038
21
1.09476
0
LINE
8
BLACK
6
CONTINUOUS
10
1.1038
20
1.09476
11
1.1038
21
1.05976
0
LINE
8
BLACK
6
CONTINUOUS
10
3.175
20
1.0675
11
3.14
21
1.0675
0
LINE
8
BLACK
6
CONTINUOUS
10
3.14
20
1.0675
11
3.14
21
1.1225
0
LINE
8
BLACK
6
CONTINUOUS
10
3.14
20
1.1225
11
3.175
21
1.1225
0
LINE
8
BLACK
6
CONTINUOUS
10
3.175
20
1.1225
11
3.175
21
1.0675
0
LINE
8
BLACK
6
CONTINUOUS
10
3.25
20
1.0675
11
3.215
21
1.0675
0
LINE
8
BLACK
6
CONTINUOUS
10
3.215
20
1.0675
11
3.215
21
1.1225
0
LINE
8
BLACK
6
CONTINUOUS
10
3.215
20
1.1225
11
3.25
21
1.1225
0
LINE
8
BLACK
6
CONTINUOUS
10
3.25
20
1.1225
11
3.25
21
1.0675
0
LINE
8
BLACK
6
CONTINUOUS
10
2.29528
20
1.06949
11
2.23622
21
1.06949
0
LINE
8
BLACK
6
CONTINUOUS
10
2.23622
20
1.06949
11
2.23622
21
1.09114
0
LINE
8
BLACK
6
CONTINUOUS
10
2.23622
20
1.09114
11
2.29528
21
1.09114
0
LINE
8
BLACK
6
CONTINUOUS
10
2.29528
20
1.09114
11
2.29528
21
1.06949
0
LINE
8
BLACK
6
CONTINUOUS
10
2.74409
20
1.06949
11
2.68504
21
1.06949
0
LINE
8
BLACK
6
CONTINUOUS
10
2.68504
20
1.06949
11
2.68504
21
1.09114
0
LINE
8
BLACK
6
CONTINUOUS
10
2.68504
20
1.09114
11
2.74409
21
1.09114
0
LINE
8
BLACK
6
CONTINUOUS
10
2.74409
20
1.09114
11
2.74409
21
1.06949
0
LINE
8
BLACK
6
CONTINUOUS
10
1.6513
20
1.07226
11
1.6163
21
1.07226
0
LINE
8
BLACK
6
CONTINUOUS
10
1.6163
20
1.07226
11
1.6163
21
1.12726
0
LINE
8
BLACK
6
CONTINUOUS
10
1.6163
20
1.12726
11
1.6513
21
1.12726
0
LINE
8
BLACK
6
CONTINUOUS
10
1.6513
20
1.12726
11
1.6513
21
1.07226
0
LINE
8
BLACK
6
CONTINUOUS
10
1.5763
20
1.07226
11
1.5413
21
1.07226
0
LINE
8
BLACK
6
CONTINUOUS
10
1.5413
20
1.07226
11
1.5413
21
1.12726
0
LINE
8
BLACK
6
CONTINUOUS
10
1.5413
20
1.12726
11
1.5763
21
1.12726
0
LINE
8
BLACK
6
CONTINUOUS
10
1.5763
20
1.12726
11
1.5763
21
1.07226
0
LINE
8
BLACK
6
CONTINUOUS
10
1.21051
20
1.07295
11
1.14949
21
1.07295
0
LINE
8
BLACK
6
CONTINUOUS
10
1.14949
20
1.07295
11
1.14949
21
1.09657
0
LINE
8
BLACK
6
CONTINUOUS
10
1.14949
20
1.09657
11
1.21051
21
1.09657
0
LINE
8
BLACK
6
CONTINUOUS
10
1.21051
20
1.09657
11
1.21051
21
1.07295
0
LINE
8
BLACK
6
CONTINUOUS
10
1.42311
20
1.07295
11
1.36209
21
1.07295
0
LINE
8
BLACK
6
CONTINUOUS
10
1.36209
20
1.07295
11
1.36209
21
1.09657
0
LINE
8
BLACK
6
CONTINUOUS
10
1.36209
20
1.09657
11
1.42311
21
1.09657
0
LINE
8
BLACK
6
CONTINUOUS
10
1.42311
20
1.09657
11
1.42311
21
1.07295
0
LINE
8
BLACK
6
CONTINUOUS
10
1.5138
20
1.07476
11
1.4588
21
1.07476
0
LINE
8
BLACK
6
CONTINUOUS
10
1.4588
20
1.07476
11
1.4588
21
1.10976
0
LINE
8
BLACK
6
CONTINUOUS
10
1.4588
20
1.10976
11
1.5138
21
1.10976
0
LINE
8
BLACK
6
CONTINUOUS
10
1.5138
20
1.10976
11
1.5138
21
1.07476
0
LINE
8
BLACK
6
CONTINUOUS
10
3.0925
20
1.0875
11
3.0575
21
1.0875
0
LINE
8
BLACK
6
CONTINUOUS
10
3.0575
20
1.0875
11
3.0575
21
1.1425
0
LINE
8
BLACK
6
CONTINUOUS
10
3.0575
20
1.1425
11
3.0925
21
1.1425
0
LINE
8
BLACK
6
CONTINUOUS
10
3.0925
20
1.1425
11
3.0925
21
1.0875
0
LINE
8
BLACK
6
CONTINUOUS
10
3.0175
20
1.0875
11
2.9825
21
1.0875
0
LINE
8
BLACK
6
CONTINUOUS
10
2.9825
20
1.0875
11
2.9825
21
1.1425
0
LINE
8
BLACK
6
CONTINUOUS
10
2.9825
20
1.1425
11
3.0175
21
1.1425
0
LINE
8
BLACK
6
CONTINUOUS
10
3.0175
20
1.1425
11
3.0175
21
1.0875
0
LINE
8
BLACK
6
CONTINUOUS
10
3.375
20
1.09
11
3.315
21
1.09
0
LINE
8
BLACK
6
CONTINUOUS
10
3.315
20
1.09
11
3.315
21
1.15
0
LINE
8
BLACK
6
CONTINUOUS
10
3.315
20
1.15
11
3.375
21
1.15
0
LINE
8
BLACK
6
CONTINUOUS
10
3.375
20
1.15
11
3.375
21
1.09
0
LINE
8
BLACK
6
CONTINUOUS
10
3.475
20
1.09
11
3.415
21
1.09
0
LINE
8
BLACK
6
CONTINUOUS
10
3.415
20
1.09
11
3.415
21
1.15
0
LINE
8
BLACK
6
CONTINUOUS
10
3.415
20
1.15
11
3.475
21
1.15
0
LINE
8
BLACK
6
CONTINUOUS
10
3.475
20
1.15
11
3.475
21
1.09
0
LINE
8
BLACK
6
CONTINUOUS
10
0.823799
20
1.09726
11
0.768799
21
1.09726
0
LINE
8
BLACK
6
CONTINUOUS
10
0.768799
20
1.09726
11
0.768799
21
1.13226
0
LINE
8
BLACK
6
CONTINUOUS
10
0.768799
20
1.13226
11
0.823799
21
1.13226
0
LINE
8
BLACK
6
CONTINUOUS
10
0.823799
20
1.13226
11
0.823799
21
1.09726
0
LINE
8
BLACK
6
CONTINUOUS
10
0.733799
20
1.09726
11
0.678799
21
1.09726
0
LINE
8
BLACK
6
CONTINUOUS
10
0.678799
20
1.09726
11
0.678799
21
1.13226
0
LINE
8
BLACK
6
CONTINUOUS
10
0.678799
20
1.13226
11
0.733799
21
1.13226
0
LINE
8
BLACK
6
CONTINUOUS
10
0.733799
20
1.13226
11
0.733799
21
1.09726
0
LINE
8
BLACK
6
CONTINUOUS
10
2.105
20
1.1
11
2.045
21
1.1
0
LINE
8
BLACK
6
CONTINUOUS
10
2.045
20
1.1
11
2.045
21
1.16
0
LINE
8
BLACK
6
CONTINUOUS
10
2.045
20
1.16
11
2.105
21
1.16
0
LINE
8
BLACK
6
CONTINUOUS
10
2.105
20
1.16
11
2.105
21
1.1
0
LINE
8
BLACK
6
CONTINUOUS
10
2.005
20
1.1
11
1.945
21
1.1
0
LINE
8
BLACK
6
CONTINUOUS
10
1.945
20
1.1
11
1.945
21
1.16
0
LINE
8
BLACK
6
CONTINUOUS
10
1.945
20
1.16
11
2.005
21
1.16
0
LINE
8
BLACK
6
CONTINUOUS
10
2.005
20
1.16
11
2.005
21
1.1
0
LINE
8
BLACK
6
CONTINUOUS
10
2.74409
20
1.10098
11
2.68504
21
1.10098
0
LINE
8
BLACK
6
CONTINUOUS
10
2.68504
20
1.10098
11
2.68504
21
1.12264
0
LINE
8
BLACK
6
CONTINUOUS
10
2.68504
20
1.12264
11
2.74409
21
1.12264
0
LINE
8
BLACK
6
CONTINUOUS
10
2.74409
20
1.12264
11
2.74409
21
1.10098
0
LINE
8
BLACK
6
CONTINUOUS
10
2.29528
20
1.10098
11
2.23622
21
1.10098
0
LINE
8
BLACK
6
CONTINUOUS
10
2.23622
20
1.10098
11
2.23622
21
1.12264
0
LINE
8
BLACK
6
CONTINUOUS
10
2.23622
20
1.12264
11
2.29528
21
1.12264
0
LINE
8
BLACK
6
CONTINUOUS
10
2.29528
20
1.12264
11
2.29528
21
1.10098
0
LINE
8
BLACK
6
CONTINUOUS
10
0.923799
20
1.10226
11
0.868799
21
1.10226
0
LINE
8
BLACK
6
CONTINUOUS
10
0.868799
20
1.10226
11
0.868799
21
1.13726
0
LINE
8
BLACK
6
CONTINUOUS
10
0.868799
20
1.13726
11
0.923799
21
1.13726
0
LINE
8
BLACK
6
CONTINUOUS
10
0.923799
20
1.13726
11
0.923799
21
1.10226
0
LINE
8
BLACK
6
CONTINUOUS
10
1.0038
20
1.10226
11
0.948799
21
1.10226
0
LINE
8
BLACK
6
CONTINUOUS
10
0.948799
20
1.10226
11
0.948799
21
1.13726
0
LINE
8
BLACK
6
CONTINUOUS
10
0.948799
20
1.13726
11
1.0038
21
1.13726
0
LINE
8
BLACK
6
CONTINUOUS
10
1.0038
20
1.13726
11
1.0038
21
1.10226
0
LINE
8
BLACK
6
CONTINUOUS
10
0.54311
20
1.10295
11
0.482087
21
1.10295
0
LINE
8
BLACK
6
CONTINUOUS
10
0.482087
20
1.10295
11
0.482087
21
1.12657
0
LINE
8
BLACK
6
CONTINUOUS
10
0.482087
20
1.12657
11
0.54311
21
1.12657
0
LINE
8
BLACK
6
CONTINUOUS
10
0.54311
20
1.12657
11
0.54311
21
1.10295
0
LINE
8
BLACK
6
CONTINUOUS
10
0.330512
20
1.10295
11
0.269488
21
1.10295
0
LINE
8
BLACK
6
CONTINUOUS
10
0.269488
20
1.10295
11
0.269488
21
1.12657
0
LINE
8
BLACK
6
CONTINUOUS
10
0.269488
20
1.12657
11
0.330512
21
1.12657
0
LINE
8
BLACK
6
CONTINUOUS
10
0.330512
20
1.12657
11
0.330512
21
1.10295
0
LINE
8
BLACK
6
CONTINUOUS
10
2.9475
20
1.105
11
2.8925
21
1.105
0
LINE
8
BLACK
6
CONTINUOUS
10
2.8925
20
1.105
11
2.8925
21
1.14
0
LINE
8
BLACK
6
CONTINUOUS
10
2.8925
20
1.14
11
2.9475
21
1.14
0
LINE
8
BLACK
6
CONTINUOUS
10
2.9475
20
1.14
11
2.9475
21
1.105
0
LINE
8
BLACK
6
CONTINUOUS
10
2.8575
20
1.105
11
2.8025
21
1.105
0
LINE
8
BLACK
6
CONTINUOUS
10
2.8025
20
1.105
11
2.8025
21
1.14
0
LINE
8
BLACK
6
CONTINUOUS
10
2.8025
20
1.14
11
2.8575
21
1.14
0
LINE
8
BLACK
6
CONTINUOUS
10
2.8575
20
1.14
11
2.8575
21
1.105
0
LINE
8
BLACK
6
CONTINUOUS
10
0.233799
20
1.12226
11
0.178799
21
1.12226
0
LINE
8
BLACK
6
CONTINUOUS
10
0.178799
20
1.12226
11
0.178799
21
1.15726
0
LINE
8
BLACK
6
CONTINUOUS
10
0.178799
20
1.15726
11
0.233799
21
1.15726
0
LINE
8
BLACK
6
CONTINUOUS
10
0.233799
20
1.15726
11
0.233799
21
1.12226
0
LINE
8
BLACK
6
CONTINUOUS
10
2.29528
20
1.13248
11
2.23622
21
1.13248
0
LINE
8
BLACK
6
CONTINUOUS
10
2.23622
20
1.13248
11
2.23622
21
1.15413
0
LINE
8
BLACK
6
CONTINUOUS
10
2.23622
20
1.15413
11
2.29528
21
1.15413
0
LINE
8
BLACK
6
CONTINUOUS
10
2.29528
20
1.15413
11
2.29528
21
1.13248
0
LINE
8
BLACK
6
CONTINUOUS
10
2.74409
20
1.13248
11
2.68504
21
1.13248
0
LINE
8
BLACK
6
CONTINUOUS
10
2.68504
20
1.13248
11
2.68504
21
1.15413
0
LINE
8
BLACK
6
CONTINUOUS
10
2.68504
20
1.15413
11
2.74409
21
1.15413
0
LINE
8
BLACK
6
CONTINUOUS
10
2.74409
20
1.15413
11
2.74409
21
1.13248
0
LINE
8
BLACK
6
CONTINUOUS
10
1.1038
20
1.13476
11
1.0488
21
1.13476
0
LINE
8
BLACK
6
CONTINUOUS
10
1.0488
20
1.13476
11
1.0488
21
1.16976
0
LINE
8
BLACK
6
CONTINUOUS
10
1.0488
20
1.16976
11
1.1038
21
1.16976
0
LINE
8
BLACK
6
CONTINUOUS
10
1.1038
20
1.16976
11
1.1038
21
1.13476
0
LINE
8
BLACK
6
CONTINUOUS
10
3.175
20
1.1475
11
3.14
21
1.1475
0
LINE
8
BLACK
6
CONTINUOUS
10
3.14
20
1.1475
11
3.14
21
1.2025
0
LINE
8
BLACK
6
CONTINUOUS
10
3.14
20
1.2025
11
3.175
21
1.2025
0
LINE
8
BLACK
6
CONTINUOUS
10
3.175
20
1.2025
11
3.175
21
1.1475
0
LINE
8
BLACK
6
CONTINUOUS
10
3.25
20
1.1475
11
3.215
21
1.1475
0
LINE
8
BLACK
6
CONTINUOUS
10
3.215
20
1.1475
11
3.215
21
1.2025
0
LINE
8
BLACK
6
CONTINUOUS
10
3.215
20
1.2025
11
3.25
21
1.2025
0
LINE
8
BLACK
6
CONTINUOUS
10
3.25
20
1.2025
11
3.25
21
1.1475
0
LINE
8
BLACK
6
CONTINUOUS
10
1.5138
20
1.14976
11
1.4588
21
1.14976
0
LINE
8
BLACK
6
CONTINUOUS
10
1.4588
20
1.14976
11
1.4588
21
1.18476
0
LINE
8
BLACK
6
CONTINUOUS
10
1.4588
20
1.18476
11
1.5138
21
1.18476
0
LINE
8
BLACK
6
CONTINUOUS
10
1.5138
20
1.18476
11
1.5138
21
1.14976
0
LINE
8
BLACK
6
CONTINUOUS
10
0.330512
20
1.15295
11
0.269488
21
1.15295
0
LINE
8
BLACK
6
CONTINUOUS
10
0.269488
20
1.15295
11
0.269488
21
1.17657
0
LINE
8
BLACK
6
CONTINUOUS
10
0.269488
20
1.17657
11
0.330512
21
1.17657
0
LINE
8
BLACK
6
CONTINUOUS
10
0.330512
20
1.17657
11
0.330512
21
1.15295
0
LINE
8
BLACK
6
CONTINUOUS
10
0.54311
20
1.15295
11
0.482087
21
1.15295
0
LINE
8
BLACK
6
CONTINUOUS
10
0.482087
20
1.15295
11
0.482087
21
1.17657
0
LINE
8
BLACK
6
CONTINUOUS
10
0.482087
20
1.17657
11
0.54311
21
1.17657
0
LINE
8
BLACK
6
CONTINUOUS
10
0.54311
20
1.17657
11
0.54311
21
1.15295
0
LINE
8
BLACK
6
CONTINUOUS
10
0.633799
20
1.15976
11
0.578799
21
1.15976
0
LINE
8
BLACK
6
CONTINUOUS
10
0.578799
20
1.15976
11
0.578799
21
1.19476
0
LINE
8
BLACK
6
CONTINUOUS
10
0.578799
20
1.19476
11
0.633799
21
1.19476
0
LINE
8
BLACK
6
CONTINUOUS
10
0.633799
20
1.19476
11
0.633799
21
1.15976
0
LINE
8
BLACK
6
CONTINUOUS
10
0.733799
20
1.16226
11
0.678799
21
1.16226
0
LINE
8
BLACK
6
CONTINUOUS
10
0.678799
20
1.16226
11
0.678799
21
1.19726
0
LINE
8
BLACK
6
CONTINUOUS
10
0.678799
20
1.19726
11
0.733799
21
1.19726
0
LINE
8
BLACK
6
CONTINUOUS
10
0.733799
20
1.19726
11
0.733799
21
1.16226
0
LINE
8
BLACK
6
CONTINUOUS
10
2.29528
20
1.16398
11
2.23622
21
1.16398
0
LINE
8
BLACK
6
CONTINUOUS
10
2.23622
20
1.16398
11
2.23622
21
1.18563
0
LINE
8
BLACK
6
CONTINUOUS
10
2.23622
20
1.18563
11
2.29528
21
1.18563
0
LINE
8
BLACK
6
CONTINUOUS
10
2.29528
20
1.18563
11
2.29528
21
1.16398
0
LINE
8
BLACK
6
CONTINUOUS
10
2.74409
20
1.16398
11
2.68504
21
1.16398
0
LINE
8
BLACK
6
CONTINUOUS
10
2.68504
20
1.16398
11
2.68504
21
1.18563
0
LINE
8
BLACK
6
CONTINUOUS
10
2.68504
20
1.18563
11
2.74409
21
1.18563
0
LINE
8
BLACK
6
CONTINUOUS
10
2.74409
20
1.18563
11
2.74409
21
1.16398
0
LINE
8
BLACK
6
CONTINUOUS
10
2.9475
20
1.18
11
2.8925
21
1.18
0
LINE
8
BLACK
6
CONTINUOUS
10
2.8925
20
1.18
11
2.8925
21
1.215
0
LINE
8
BLACK
6
CONTINUOUS
10
2.8925
20
1.215
11
2.9475
21
1.215
0
LINE
8
BLACK
6
CONTINUOUS
10
2.9475
20
1.215
11
2.9475
21
1.18
0
LINE
8
BLACK
6
CONTINUOUS
10
2.8575
20
1.18
11
2.8025
21
1.18
0
LINE
8
BLACK
6
CONTINUOUS
10
2.8025
20
1.18
11
2.8025
21
1.215
0
LINE
8
BLACK
6
CONTINUOUS
10
2.8025
20
1.215
11
2.8575
21
1.215
0
LINE
8
BLACK
6
CONTINUOUS
10
2.8575
20
1.215
11
2.8575
21
1.18
0
LINE
8
BLACK
6
CONTINUOUS
10
3.475
20
1.19
11
3.415
21
1.19
0
LINE
8
BLACK
6
CONTINUOUS
10
3.415
20
1.19
11
3.415
21
1.25
0
LINE
8
BLACK
6
CONTINUOUS
10
3.415
20
1.25
11
3.475
21
1.25
0
LINE
8
BLACK
6
CONTINUOUS
10
3.475
20
1.25
11
3.475
21
1.19
0
LINE
8
BLACK
6
CONTINUOUS
10
3.375
20
1.19
11
3.315
21
1.19
0
LINE
8
BLACK
6
CONTINUOUS
10
3.315
20
1.19
11
3.315
21
1.25
0
LINE
8
BLACK
6
CONTINUOUS
10
3.315
20
1.25
11
3.375
21
1.25
0
LINE
8
BLACK
6
CONTINUOUS
10
3.375
20
1.25
11
3.375
21
1.19
0
LINE
8
BLACK
6
CONTINUOUS
10
1.9725
20
1.1925
11
1.9375
21
1.1925
0
LINE
8
BLACK
6
CONTINUOUS
10
1.9375
20
1.1925
11
1.9375
21
1.2475
0
LINE
8
BLACK
6
CONTINUOUS
10
1.9375
20
1.2475
11
1.9725
21
1.2475
0
LINE
8
BLACK
6
CONTINUOUS
10
1.9725
20
1.2475
11
1.9725
21
1.1925
0
LINE
8
BLACK
6
CONTINUOUS
10
2.0475
20
1.1925
11
2.0125
21
1.1925
0
LINE
8
BLACK
6
CONTINUOUS
10
2.0125
20
1.1925
11
2.0125
21
1.2475
0
LINE
8
BLACK
6
CONTINUOUS
10
2.0125
20
1.2475
11
2.0475
21
1.2475
0
LINE
8
BLACK
6
CONTINUOUS
10
2.0475
20
1.2475
11
2.0475
21
1.1925
0
LINE
8
BLACK
6
CONTINUOUS
10
2.74409
20
1.19547
11
2.68504
21
1.19547
0
LINE
8
BLACK
6
CONTINUOUS
10
2.68504
20
1.19547
11
2.68504
21
1.21713
0
LINE
8
BLACK
6
CONTINUOUS
10
2.68504
20
1.21713
11
2.74409
21
1.21713
0
LINE
8
BLACK
6
CONTINUOUS
10
2.74409
20
1.21713
11
2.74409
21
1.19547
0
LINE
8
BLACK
6
CONTINUOUS
10
2.29528
20
1.19547
11
2.23622
21
1.19547
0
LINE
8
BLACK
6
CONTINUOUS
10
2.23622
20
1.19547
11
2.23622
21
1.21713
0
LINE
8
BLACK
6
CONTINUOUS
10
2.23622
20
1.21713
11
2.29528
21
1.21713
0
LINE
8
BLACK
6
CONTINUOUS
10
2.29528
20
1.21713
11
2.29528
21
1.19547
0
LINE
8
BLACK
6
CONTINUOUS
10
0.233799
20
1.19726
11
0.178799
21
1.19726
0
LINE
8
BLACK
6
CONTINUOUS
10
0.178799
20
1.19726
11
0.178799
21
1.23226
0
LINE
8
BLACK
6
CONTINUOUS
10
0.178799
20
1.23226
11
0.233799
21
1.23226
0
LINE
8
BLACK
6
CONTINUOUS
10
0.233799
20
1.23226
11
0.233799
21
1.19726
0
LINE
8
BLACK
6
CONTINUOUS
10
2.1225
20
1.1975
11
2.0675
21
1.1975
0
LINE
8
BLACK
6
CONTINUOUS
10
2.0675
20
1.1975
11
2.0675
21
1.2325
0
LINE
8
BLACK
6
CONTINUOUS
10
2.0675
20
1.2325
11
2.1225
21
1.2325
0
LINE
8
BLACK
6
CONTINUOUS
10
2.1225
20
1.2325
11
2.1225
21
1.1975
0
LINE
8
BLACK
6
CONTINUOUS
10
2.29528
20
1.22697
11
2.23622
21
1.22697
0
LINE
8
BLACK
6
CONTINUOUS
10
2.23622
20
1.22697
11
2.23622
21
1.24862
0
LINE
8
BLACK
6
CONTINUOUS
10
2.23622
20
1.24862
11
2.29528
21
1.24862
0
LINE
8
BLACK
6
CONTINUOUS
10
2.29528
20
1.24862
11
2.29528
21
1.22697
0
LINE
8
BLACK
6
CONTINUOUS
10
2.74409
20
1.22697
11
2.68504
21
1.22697
0
LINE
8
BLACK
6
CONTINUOUS
10
2.68504
20
1.22697
11
2.68504
21
1.24862
0
LINE
8
BLACK
6
CONTINUOUS
10
2.68504
20
1.24862
11
2.74409
21
1.24862
0
LINE
8
BLACK
6
CONTINUOUS
10
2.74409
20
1.24862
11
2.74409
21
1.22697
0
LINE
8
BLACK
6
CONTINUOUS
10
3.175
20
1.2325
11
3.14
21
1.2325
0
LINE
8
BLACK
6
CONTINUOUS
10
3.14
20
1.2325
11
3.14
21
1.2875
0
LINE
8
BLACK
6
CONTINUOUS
10
3.14
20
1.2875
11
3.175
21
1.2875
0
LINE
8
BLACK
6
CONTINUOUS
10
3.175
20
1.2875
11
3.175
21
1.2325
0
LINE
8
BLACK
6
CONTINUOUS
10
3.25
20
1.2325
11
3.215
21
1.2325
0
LINE
8
BLACK
6
CONTINUOUS
10
3.215
20
1.2325
11
3.215
21
1.2875
0
LINE
8
BLACK
6
CONTINUOUS
10
3.215
20
1.2875
11
3.25
21
1.2875
0
LINE
8
BLACK
6
CONTINUOUS
10
3.25
20
1.2875
11
3.25
21
1.2325
0
LINE
8
BLACK
6
CONTINUOUS
10
0.633799
20
1.23476
11
0.578799
21
1.23476
0
LINE
8
BLACK
6
CONTINUOUS
10
0.578799
20
1.23476
11
0.578799
21
1.26976
0
LINE
8
BLACK
6
CONTINUOUS
10
0.578799
20
1.26976
11
0.633799
21
1.26976
0
LINE
8
BLACK
6
CONTINUOUS
10
0.633799
20
1.26976
11
0.633799
21
1.23476
0
LINE
8
BLACK
6
CONTINUOUS
10
1.5765
20
1.23591
11
1.55091
21
1.23591
0
LINE
8
BLACK
6
CONTINUOUS
10
1.55091
20
1.23591
11
1.55091
21
1.29732
0
LINE
8
BLACK
6
CONTINUOUS
10
1.55091
20
1.29732
11
1.5765
21
1.29732
0
LINE
8
BLACK
6
CONTINUOUS
10
1.5765
20
1.29732
11
1.5765
21
1.23591
0
LINE
8
BLACK
6
CONTINUOUS
10
1.50169
20
1.23591
11
1.4761
21
1.23591
0
LINE
8
BLACK
6
CONTINUOUS
10
1.4761
20
1.23591
11
1.4761
21
1.29732
0
LINE
8
BLACK
6
CONTINUOUS
10
1.4761
20
1.29732
11
1.50169
21
1.29732
0
LINE
8
BLACK
6
CONTINUOUS
10
1.50169
20
1.29732
11
1.50169
21
1.23591
0
LINE
8
BLACK
6
CONTINUOUS
10
1.53909
20
1.23591
11
1.5135
21
1.23591
0
LINE
8
BLACK
6
CONTINUOUS
10
1.5135
20
1.23591
11
1.5135
21
1.29732
0
LINE
8
BLACK
6
CONTINUOUS
10
1.5135
20
1.29732
11
1.53909
21
1.29732
0
LINE
8
BLACK
6
CONTINUOUS
10
1.53909
20
1.29732
11
1.53909
21
1.23591
0
LINE
8
BLACK
6
CONTINUOUS
10
0.733799
20
1.23726
11
0.678799
21
1.23726
0
LINE
8
BLACK
6
CONTINUOUS
10
0.678799
20
1.23726
11
0.678799
21
1.27226
0
LINE
8
BLACK
6
CONTINUOUS
10
0.678799
20
1.27226
11
0.733799
21
1.27226
0
LINE
8
BLACK
6
CONTINUOUS
10
0.733799
20
1.27226
11
0.733799
21
1.23726
0
LINE
8
BLACK
6
CONTINUOUS
10
2.8775
20
1.2375
11
2.8225
21
1.2375
0
LINE
8
BLACK
6
CONTINUOUS
10
2.8225
20
1.2375
11
2.8225
21
1.2725
0
LINE
8
BLACK
6
CONTINUOUS
10
2.8225
20
1.2725
11
2.8775
21
1.2725
0
LINE
8
BLACK
6
CONTINUOUS
10
2.8775
20
1.2725
11
2.8775
21
1.2375
0
LINE
8
BLACK
6
CONTINUOUS
10
1.4238
20
1.24476
11
1.3688
21
1.24476
0
LINE
8
BLACK
6
CONTINUOUS
10
1.3688
20
1.24476
11
1.3688
21
1.27976
0
LINE
8
BLACK
6
CONTINUOUS
10
1.3688
20
1.27976
11
1.4238
21
1.27976
0
LINE
8
BLACK
6
CONTINUOUS
10
1.4238
20
1.27976
11
1.4238
21
1.24476
0
LINE
8
BLACK
6
CONTINUOUS
10
1.2438
20
1.24476
11
1.1888
21
1.24476
0
LINE
8
BLACK
6
CONTINUOUS
10
1.1888
20
1.24476
11
1.1888
21
1.27976
0
LINE
8
BLACK
6
CONTINUOUS
10
1.1888
20
1.27976
11
1.2438
21
1.27976
0
LINE
8
BLACK
6
CONTINUOUS
10
1.2438
20
1.27976
11
1.2438
21
1.24476
0
LINE
8
BLACK
6
CONTINUOUS
10
1.3338
20
1.24476
11
1.2788
21
1.24476
0
LINE
8
BLACK
6
CONTINUOUS
10
1.2788
20
1.24476
11
1.2788
21
1.27976
0
LINE
8
BLACK
6
CONTINUOUS
10
1.2788
20
1.27976
11
1.3338
21
1.27976
0
LINE
8
BLACK
6
CONTINUOUS
10
1.3338
20
1.27976
11
1.3338
21
1.24476
0
LINE
8
BLACK
6
CONTINUOUS
10
3.08
20
1.245
11
3.03
21
1.245
0
LINE
8
BLACK
6
CONTINUOUS
10
3.03
20
1.245
11
3.03
21
1.345
0
LINE
8
BLACK
6
CONTINUOUS
10
3.03
20
1.345
11
3.08
21
1.345
0
LINE
8
BLACK
6
CONTINUOUS
10
3.08
20
1.345
11
3.08
21
1.245
0
LINE
8
BLACK
6
CONTINUOUS
10
2.96
20
1.245
11
2.91
21
1.245
0
LINE
8
BLACK
6
CONTINUOUS
10
2.91
20
1.245
11
2.91
21
1.345
0
LINE
8
BLACK
6
CONTINUOUS
10
2.91
20
1.345
11
2.96
21
1.345
0
LINE
8
BLACK
6
CONTINUOUS
10
2.96
20
1.345
11
2.96
21
1.245
0
LINE
8
BLACK
6
CONTINUOUS
10
2.29528
20
1.25846
11
2.23622
21
1.25846
0
LINE
8
BLACK
6
CONTINUOUS
10
2.23622
20
1.25846
11
2.23622
21
1.28012
0
LINE
8
BLACK
6
CONTINUOUS
10
2.23622
20
1.28012
11
2.29528
21
1.28012
0
LINE
8
BLACK
6
CONTINUOUS
10
2.29528
20
1.28012
11
2.29528
21
1.25846
0
LINE
8
BLACK
6
CONTINUOUS
10
2.74409
20
1.25846
11
2.68504
21
1.25846
0
LINE
8
BLACK
6
CONTINUOUS
10
2.68504
20
1.25846
11
2.68504
21
1.28012
0
LINE
8
BLACK
6
CONTINUOUS
10
2.68504
20
1.28012
11
2.74409
21
1.28012
0
LINE
8
BLACK
6
CONTINUOUS
10
2.74409
20
1.28012
11
2.74409
21
1.25846
0
LINE
8
BLACK
6
CONTINUOUS
10
2.1225
20
1.2725
11
2.0675
21
1.2725
0
LINE
8
BLACK
6
CONTINUOUS
10
2.0675
20
1.2725
11
2.0675
21
1.3075
0
LINE
8
BLACK
6
CONTINUOUS
10
2.0675
20
1.3075
11
2.1225
21
1.3075
0
LINE
8
BLACK
6
CONTINUOUS
10
2.1225
20
1.3075
11
2.1225
21
1.2725
0
LINE
8
BLACK
6
CONTINUOUS
10
3.57878
20
1.28067
11
3.53941
21
1.28067
0
LINE
8
BLACK
6
CONTINUOUS
10
3.53941
20
1.28067
11
3.53941
21
1.43028
0
LINE
8
BLACK
6
CONTINUOUS
10
3.53941
20
1.43028
11
3.57878
21
1.43028
0
LINE
8
BLACK
6
CONTINUOUS
10
3.57878
20
1.43028
11
3.57878
21
1.28067
0
LINE
8
BLACK
6
CONTINUOUS
10
1.85437
20
1.28067
11
1.815
21
1.28067
0
LINE
8
BLACK
6
CONTINUOUS
10
1.815
20
1.28067
11
1.815
21
1.43028
0
LINE
8
BLACK
6
CONTINUOUS
10
1.815
20
1.43028
11
1.85437
21
1.43028
0
LINE
8
BLACK
6
CONTINUOUS
10
1.85437
20
1.43028
11
1.85437
21
1.28067
0
LINE
8
BLACK
6
CONTINUOUS
10
1.78244
20
1.28307
11
1.74307
21
1.28307
0
LINE
8
BLACK
6
CONTINUOUS
10
1.74307
20
1.28307
11
1.74307
21
1.43268
0
LINE
8
BLACK
6
CONTINUOUS
10
1.74307
20
1.43268
11
1.78244
21
1.43268
0
LINE
8
BLACK
6
CONTINUOUS
10
1.78244
20
1.43268
11
1.78244
21
1.28307
0
LINE
8
BLACK
6
CONTINUOUS
10
0.0580315
20
1.28307
11
0.0186614
21
1.28307
0
LINE
8
BLACK
6
CONTINUOUS
10
0.0186614
20
1.28307
11
0.0186614
21
1.43268
0
LINE
8
BLACK
6
CONTINUOUS
10
0.0186614
20
1.43268
11
0.0580315
21
1.43268
0
LINE
8
BLACK
6
CONTINUOUS
10
0.0580315
20
1.43268
11
0.0580315
21
1.28307
0
LINE
8
BLACK
6
CONTINUOUS
10
2.29528
20
1.28996
11
2.23622
21
1.28996
0
LINE
8
BLACK
6
CONTINUOUS
10
2.23622
20
1.28996
11
2.23622
21
1.31161
0
LINE
8
BLACK
6
CONTINUOUS
10
2.23622
20
1.31161
11
2.29528
21
1.31161
0
LINE
8
BLACK
6
CONTINUOUS
10
2.29528
20
1.31161
11
2.29528
21
1.28996
0
LINE
8
BLACK
6
CONTINUOUS
10
2.74409
20
1.28996
11
2.68504
21
1.28996
0
LINE
8
BLACK
6
CONTINUOUS
10
2.68504
20
1.28996
11
2.68504
21
1.31161
0
LINE
8
BLACK
6
CONTINUOUS
10
2.68504
20
1.31161
11
2.74409
21
1.31161
0
LINE
8
BLACK
6
CONTINUOUS
10
2.74409
20
1.31161
11
2.74409
21
1.28996
0
LINE
8
BLACK
6
CONTINUOUS
10
3.475
20
1.29
11
3.415
21
1.29
0
LINE
8
BLACK
6
CONTINUOUS
10
3.415
20
1.29
11
3.415
21
1.35
0
LINE
8
BLACK
6
CONTINUOUS
10
3.415
20
1.35
11
3.475
21
1.35
0
LINE
8
BLACK
6
CONTINUOUS
10
3.475
20
1.35
11
3.475
21
1.29
0
LINE
8
BLACK
6
CONTINUOUS
10
3.375
20
1.29
11
3.315
21
1.29
0
LINE
8
BLACK
6
CONTINUOUS
10
3.315
20
1.29
11
3.315
21
1.35
0
LINE
8
BLACK
6
CONTINUOUS
10
3.315
20
1.35
11
3.375
21
1.35
0
LINE
8
BLACK
6
CONTINUOUS
10
3.375
20
1.35
11
3.375
21
1.29
0
LINE
8
BLACK
6
CONTINUOUS
10
1.6938
20
1.30476
11
1.6388
21
1.30476
0
LINE
8
BLACK
6
CONTINUOUS
10
1.6388
20
1.30476
11
1.6388
21
1.33976
0
LINE
8
BLACK
6
CONTINUOUS
10
1.6388
20
1.33976
11
1.6938
21
1.33976
0
LINE
8
BLACK
6
CONTINUOUS
10
1.6938
20
1.33976
11
1.6938
21
1.30476
0
LINE
8
BLACK
6
CONTINUOUS
10
0.9075
20
1.305
11
0.8525
21
1.305
0
LINE
8
BLACK
6
CONTINUOUS
10
0.8525
20
1.305
11
0.8525
21
1.34
0
LINE
8
BLACK
6
CONTINUOUS
10
0.8525
20
1.34
11
0.9075
21
1.34
0
LINE
8
BLACK
6
CONTINUOUS
10
0.9075
20
1.34
11
0.9075
21
1.305
0
LINE
8
BLACK
6
CONTINUOUS
10
0.8275
20
1.305
11
0.7725
21
1.305
0
LINE
8
BLACK
6
CONTINUOUS
10
0.7725
20
1.305
11
0.7725
21
1.34
0
LINE
8
BLACK
6
CONTINUOUS
10
0.7725
20
1.34
11
0.8275
21
1.34
0
LINE
8
BLACK
6
CONTINUOUS
10
0.8275
20
1.34
11
0.8275
21
1.305
0
LINE
8
BLACK
6
CONTINUOUS
10
0.9875
20
1.305
11
0.9325
21
1.305
0
LINE
8
BLACK
6
CONTINUOUS
10
0.9325
20
1.305
11
0.9325
21
1.34
0
LINE
8
BLACK
6
CONTINUOUS
10
0.9325
20
1.34
11
0.9875
21
1.34
0
LINE
8
BLACK
6
CONTINUOUS
10
0.9875
20
1.34
11
0.9875
21
1.305
0
LINE
8
BLACK
6
CONTINUOUS
10
0.7375
20
1.3075
11
0.6825
21
1.3075
0
LINE
8
BLACK
6
CONTINUOUS
10
0.6825
20
1.3075
11
0.6825
21
1.3425
0
LINE
8
BLACK
6
CONTINUOUS
10
0.6825
20
1.3425
11
0.7375
21
1.3425
0
LINE
8
BLACK
6
CONTINUOUS
10
0.7375
20
1.3425
11
0.7375
21
1.3075
0
LINE
8
BLACK
6
CONTINUOUS
10
2.8775
20
1.3125
11
2.8225
21
1.3125
0
LINE
8
BLACK
6
CONTINUOUS
10
2.8225
20
1.3125
11
2.8225
21
1.3475
0
LINE
8
BLACK
6
CONTINUOUS
10
2.8225
20
1.3475
11
2.8775
21
1.3475
0
LINE
8
BLACK
6
CONTINUOUS
10
2.8775
20
1.3475
11
2.8775
21
1.3125
0
LINE
8
BLACK
6
CONTINUOUS
10
0.611575
20
1.37527
11
0.617876
21
1.37303
0
LINE
8
BLACK
6
CONTINUOUS
10
0.617876
20
1.37303
11
0.623523
21
1.36944
0
LINE
8
BLACK
6
CONTINUOUS
10
0.623523
20
1.36944
11
0.628235
21
1.3647
0
LINE
8
BLACK
6
CONTINUOUS
10
0.628235
20
1.3647
11
0.631779
21
1.35903
0
LINE
8
BLACK
6
CONTINUOUS
10
0.631779
20
1.35903
11
0.633979
21
1.35271
0
LINE
8
BLACK
6
CONTINUOUS
10
0.633979
20
1.35271
11
0.634724
21
1.34606
0
LINE
8
BLACK
6
CONTINUOUS
10
0.634724
20
1.34606
11
0.634713
21
1.34523
0
LINE
8
BLACK
6
CONTINUOUS
10
0.634713
20
1.34523
11
0.633782
21
1.3386
0
LINE
8
BLACK
6
CONTINUOUS
10
0.633782
20
1.3386
11
0.631407
21
1.33235
0
LINE
8
BLACK
6
CONTINUOUS
10
0.631407
20
1.33235
11
0.627706
21
1.32678
0
LINE
8
BLACK
6
CONTINUOUS
10
0.627706
20
1.32678
11
0.622862
21
1.32217
0
LINE
8
BLACK
6
CONTINUOUS
10
0.622862
20
1.32217
11
0.617118
21
1.31874
0
LINE
8
BLACK
6
CONTINUOUS
10
0.617118
20
1.31874
11
0.610757
21
1.31668
0
LINE
8
BLACK
6
CONTINUOUS
10
0.610757
20
1.31668
11
0.604096
21
1.31607
0
LINE
8
BLACK
6
CONTINUOUS
10
0.604096
20
1.31607
11
0.597467
21
1.31695
0
LINE
8
BLACK
6
CONTINUOUS
10
0.597467
20
1.31695
11
0.591198
21
1.31929
0
LINE
8
BLACK
6
CONTINUOUS
10
0.591198
20
1.31929
11
0.585602
21
1.32295
0
LINE
8
BLACK
6
CONTINUOUS
10
0.585602
20
1.32295
11
0.580956
21
1.32776
0
LINE
8
BLACK
6
CONTINUOUS
10
0.580956
20
1.32776
11
0.577491
21
1.33348
0
LINE
8
BLACK
6
CONTINUOUS
10
0.577491
20
1.33348
11
0.57538
21
1.33983
0
LINE
8
BLACK
6
CONTINUOUS
10
0.57538
20
1.33983
11
0.574727
21
1.34648
0
LINE
8
BLACK
6
CONTINUOUS
10
0.574727
20
1.34648
11
0.575566
21
1.35312
0
LINE
8
BLACK
6
CONTINUOUS
10
0.575566
20
1.35312
11
0.577853
21
1.3594
0
LINE
8
BLACK
6
CONTINUOUS
10
0.577853
20
1.3594
11
0.581476
21
1.36502
0
LINE
8
BLACK
6
CONTINUOUS
10
0.581476
20
1.36502
11
0.586255
21
1.3697
0
LINE
8
BLACK
6
CONTINUOUS
10
0.586255
20
1.3697
11
0.591951
21
1.37321
0
LINE
8
BLACK
6
CONTINUOUS
10
0.591951
20
1.37321
11
0.598282
21
1.37536
0
LINE
8
BLACK
6
CONTINUOUS
10
0.598282
20
1.37536
11
0.604934
21
1.37606
0
LINE
8
BLACK
6
CONTINUOUS
10
0.604934
20
1.37606
11
0.611575
21
1.37527
0
LINE
8
BLACK
6
CONTINUOUS
10
0.414725
20
1.37527
11
0.421025
21
1.37303
0
LINE
8
BLACK
6
CONTINUOUS
10
0.421025
20
1.37303
11
0.426672
21
1.36944
0
LINE
8
BLACK
6
CONTINUOUS
10
0.426672
20
1.36944
11
0.431385
21
1.3647
0
LINE
8
BLACK
6
CONTINUOUS
10
0.431385
20
1.3647
11
0.434929
21
1.35903
0
LINE
8
BLACK
6
CONTINUOUS
10
0.434929
20
1.35903
11
0.437129
21
1.35271
0
LINE
8
BLACK
6
CONTINUOUS
10
0.437129
20
1.35271
11
0.437874
21
1.34606
0
LINE
8
BLACK
6
CONTINUOUS
10
0.437874
20
1.34606
11
0.437862
21
1.34523
0
LINE
8
BLACK
6
CONTINUOUS
10
0.437862
20
1.34523
11
0.436931
21
1.3386
0
LINE
8
BLACK
6
CONTINUOUS
10
0.436931
20
1.3386
11
0.434556
21
1.33235
0
LINE
8
BLACK
6
CONTINUOUS
10
0.434556
20
1.33235
11
0.430855
21
1.32678
0
LINE
8
BLACK
6
CONTINUOUS
10
0.430855
20
1.32678
11
0.426012
21
1.32217
0
LINE
8
BLACK
6
CONTINUOUS
10
0.426012
20
1.32217
11
0.420267
21
1.31874
0
LINE
8
BLACK
6
CONTINUOUS
10
0.420267
20
1.31874
11
0.413906
21
1.31668
0
LINE
8
BLACK
6
CONTINUOUS
10
0.413906
20
1.31668
11
0.407246
21
1.31607
0
LINE
8
BLACK
6
CONTINUOUS
10
0.407246
20
1.31607
11
0.400616
21
1.31695
0
LINE
8
BLACK
6
CONTINUOUS
10
0.400616
20
1.31695
11
0.394348
21
1.31929
0
LINE
8
BLACK
6
CONTINUOUS
10
0.394348
20
1.31929
11
0.388751
21
1.32295
0
LINE
8
BLACK
6
CONTINUOUS
10
0.388751
20
1.32295
11
0.384105
21
1.32776
0
LINE
8
BLACK
6
CONTINUOUS
10
0.384105
20
1.32776
11
0.380641
21
1.33348
0
LINE
8
BLACK
6
CONTINUOUS
10
0.380641
20
1.33348
11
0.37853
21
1.33983
0
LINE
8
BLACK
6
CONTINUOUS
10
0.37853
20
1.33983
11
0.377877
21
1.34648
0
LINE
8
BLACK
6
CONTINUOUS
10
0.377877
20
1.34648
11
0.378715
21
1.35312
0
LINE
8
BLACK
6
CONTINUOUS
10
0.378715
20
1.35312
11
0.381003
21
1.3594
0
LINE
8
BLACK
6
CONTINUOUS
10
0.381003
20
1.3594
11
0.384626
21
1.36502
0
LINE
8
BLACK
6
CONTINUOUS
10
0.384626
20
1.36502
11
0.389404
21
1.3697
0
LINE
8
BLACK
6
CONTINUOUS
10
0.389404
20
1.3697
11
0.395101
21
1.37321
0
LINE
8
BLACK
6
CONTINUOUS
10
0.395101
20
1.37321
11
0.401432
21
1.37536
0
LINE
8
BLACK
6
CONTINUOUS
10
0.401432
20
1.37536
11
0.408083
21
1.37606
0
LINE
8
BLACK
6
CONTINUOUS
10
0.408083
20
1.37606
11
0.414725
21
1.37527
0
LINE
8
BLACK
6
CONTINUOUS
10
1.4238
20
1.31976
11
1.3688
21
1.31976
0
LINE
8
BLACK
6
CONTINUOUS
10
1.3688
20
1.31976
11
1.3688
21
1.35476
0
LINE
8
BLACK
6
CONTINUOUS
10
1.3688
20
1.35476
11
1.4238
21
1.35476
0
LINE
8
BLACK
6
CONTINUOUS
10
1.4238
20
1.35476
11
1.4238
21
1.31976
0
LINE
8
BLACK
6
CONTINUOUS
10
1.3338
20
1.31976
11
1.2788
21
1.31976
0
LINE
8
BLACK
6
CONTINUOUS
10
1.2788
20
1.31976
11
1.2788
21
1.35476
0
LINE
8
BLACK
6
CONTINUOUS
10
1.2788
20
1.35476
11
1.3338
21
1.35476
0
LINE
8
BLACK
6
CONTINUOUS
10
1.3338
20
1.35476
11
1.3338
21
1.31976
0
LINE
8
BLACK
6
CONTINUOUS
10
1.2438
20
1.31976
11
1.1888
21
1.31976
0
LINE
8
BLACK
6
CONTINUOUS
10
1.1888
20
1.31976
11
1.1888
21
1.35476
0
LINE
8
BLACK
6
CONTINUOUS
10
1.1888
20
1.35476
11
1.2438
21
1.35476
0
LINE
8
BLACK
6
CONTINUOUS
10
1.2438
20
1.35476
11
1.2438
21
1.31976
0
LINE
8
BLACK
6
CONTINUOUS
10
2.74409
20
1.32146
11
2.68504
21
1.32146
0
LINE
8
BLACK
6
CONTINUOUS
10
2.68504
20
1.32146
11
2.68504
21
1.34311
0
LINE
8
BLACK
6
CONTINUOUS
10
2.68504
20
1.34311
11
2.74409
21
1.34311
0
LINE
8
BLACK
6
CONTINUOUS
10
2.74409
20
1.34311
11
2.74409
21
1.32146
0
LINE
8
BLACK
6
CONTINUOUS
10
2.29528
20
1.32146
11
2.23622
21
1.32146
0
LINE
8
BLACK
6
CONTINUOUS
10
2.23622
20
1.32146
11
2.23622
21
1.34311
0
LINE
8
BLACK
6
CONTINUOUS
10
2.23622
20
1.34311
11
2.29528
21
1.34311
0
LINE
8
BLACK
6
CONTINUOUS
10
2.29528
20
1.34311
11
2.29528
21
1.32146
0
LINE
8
BLACK
6
CONTINUOUS
10
1.98674
20
1.38875
11
1.99294
21
1.38654
0
LINE
8
BLACK
6
CONTINUOUS
10
1.99294
20
1.38654
11
1.9985
21
1.38301
0
LINE
8
BLACK
6
CONTINUOUS
10
1.9985
20
1.38301
11
2.00314
21
1.37834
0
LINE
8
BLACK
6
CONTINUOUS
10
2.00314
20
1.37834
11
2.00663
21
1.37276
0
LINE
8
BLACK
6
CONTINUOUS
10
2.00663
20
1.37276
11
2.00879
21
1.36654
0
LINE
8
BLACK
6
CONTINUOUS
10
2.00879
20
1.36654
11
2.00953
21
1.36
0
LINE
8
BLACK
6
CONTINUOUS
10
2.00953
20
1.36
11
2.00952
21
1.35918
0
LINE
8
BLACK
6
CONTINUOUS
10
2.00952
20
1.35918
11
2.0086
21
1.35266
0
LINE
8
BLACK
6
CONTINUOUS
10
2.0086
20
1.35266
11
2.00626
21
1.3465
0
LINE
8
BLACK
6
CONTINUOUS
10
2.00626
20
1.3465
11
2.00262
21
1.34102
0
LINE
8
BLACK
6
CONTINUOUS
10
2.00262
20
1.34102
11
1.99785
21
1.33648
0
LINE
8
BLACK
6
CONTINUOUS
10
1.99785
20
1.33648
11
1.9922
21
1.33311
0
LINE
8
BLACK
6
CONTINUOUS
10
1.9922
20
1.33311
11
1.98594
21
1.33108
0
LINE
8
BLACK
6
CONTINUOUS
10
1.98594
20
1.33108
11
1.97938
21
1.33048
0
LINE
8
BLACK
6
CONTINUOUS
10
1.97938
20
1.33048
11
1.97286
21
1.33135
0
LINE
8
BLACK
6
CONTINUOUS
10
1.97286
20
1.33135
11
1.96669
21
1.33364
0
LINE
8
BLACK
6
CONTINUOUS
10
1.96669
20
1.33364
11
1.96118
21
1.33725
0
LINE
8
BLACK
6
CONTINUOUS
10
1.96118
20
1.33725
11
1.95661
21
1.34198
0
LINE
8
BLACK
6
CONTINUOUS
10
1.95661
20
1.34198
11
1.9532
21
1.34761
0
LINE
8
BLACK
6
CONTINUOUS
10
1.9532
20
1.34761
11
1.95112
21
1.35386
0
LINE
8
BLACK
6
CONTINUOUS
10
1.95112
20
1.35386
11
1.95048
21
1.36041
0
LINE
8
BLACK
6
CONTINUOUS
10
1.95048
20
1.36041
11
1.9513
21
1.36694
0
LINE
8
BLACK
6
CONTINUOUS
10
1.9513
20
1.36694
11
1.95355
21
1.37313
0
LINE
8
BLACK
6
CONTINUOUS
10
1.95355
20
1.37313
11
1.95712
21
1.37866
0
LINE
8
BLACK
6
CONTINUOUS
10
1.95712
20
1.37866
11
1.96182
21
1.38327
0
LINE
8
BLACK
6
CONTINUOUS
10
1.96182
20
1.38327
11
1.96743
21
1.38672
0
LINE
8
BLACK
6
CONTINUOUS
10
1.96743
20
1.38672
11
1.97366
21
1.38884
0
LINE
8
BLACK
6
CONTINUOUS
10
1.97366
20
1.38884
11
1.98021
21
1.38953
0
LINE
8
BLACK
6
CONTINUOUS
10
1.98021
20
1.38953
11
1.98674
21
1.38875
0
LINE
8
BLACK
6
CONTINUOUS
10
2.17887
20
1.38875
11
2.18507
21
1.38654
0
LINE
8
BLACK
6
CONTINUOUS
10
2.18507
20
1.38654
11
2.19063
21
1.38301
0
LINE
8
BLACK
6
CONTINUOUS
10
2.19063
20
1.38301
11
2.19527
21
1.37834
0
LINE
8
BLACK
6
CONTINUOUS
10
2.19527
20
1.37834
11
2.19875
21
1.37276
0
LINE
8
BLACK
6
CONTINUOUS
10
2.19875
20
1.37276
11
2.20092
21
1.36654
0
LINE
8
BLACK
6
CONTINUOUS
10
2.20092
20
1.36654
11
2.20165
21
1.36
0
LINE
8
BLACK
6
CONTINUOUS
10
2.20165
20
1.36
11
2.20164
21
1.35918
0
LINE
8
BLACK
6
CONTINUOUS
10
2.20164
20
1.35918
11
2.20073
21
1.35266
0
LINE
8
BLACK
6
CONTINUOUS
10
2.20073
20
1.35266
11
2.19839
21
1.3465
0
LINE
8
BLACK
6
CONTINUOUS
10
2.19839
20
1.3465
11
2.19475
21
1.34102
0
LINE
8
BLACK
6
CONTINUOUS
10
2.19475
20
1.34102
11
2.18998
21
1.33648
0
LINE
8
BLACK
6
CONTINUOUS
10
2.18998
20
1.33648
11
2.18432
21
1.33311
0
LINE
8
BLACK
6
CONTINUOUS
10
2.18432
20
1.33311
11
2.17806
21
1.33108
0
LINE
8
BLACK
6
CONTINUOUS
10
2.17806
20
1.33108
11
2.17151
21
1.33048
0
LINE
8
BLACK
6
CONTINUOUS
10
2.17151
20
1.33048
11
2.16498
21
1.33135
0
LINE
8
BLACK
6
CONTINUOUS
10
2.16498
20
1.33135
11
2.15881
21
1.33364
0
LINE
8
BLACK
6
CONTINUOUS
10
2.15881
20
1.33364
11
2.1533
21
1.33725
0
LINE
8
BLACK
6
CONTINUOUS
10
2.1533
20
1.33725
11
2.14873
21
1.34198
0
LINE
8
BLACK
6
CONTINUOUS
10
2.14873
20
1.34198
11
2.14532
21
1.34761
0
LINE
8
BLACK
6
CONTINUOUS
10
2.14532
20
1.34761
11
2.14324
21
1.35386
0
LINE
8
BLACK
6
CONTINUOUS
10
2.14324
20
1.35386
11
2.1426
21
1.36041
0
LINE
8
BLACK
6
CONTINUOUS
10
2.1426
20
1.36041
11
2.14343
21
1.36694
0
LINE
8
BLACK
6
CONTINUOUS
10
2.14343
20
1.36694
11
2.14568
21
1.37313
0
LINE
8
BLACK
6
CONTINUOUS
10
2.14568
20
1.37313
11
2.14924
21
1.37866
0
LINE
8
BLACK
6
CONTINUOUS
10
2.14924
20
1.37866
11
2.15395
21
1.38327
0
LINE
8
BLACK
6
CONTINUOUS
10
2.15395
20
1.38327
11
2.15955
21
1.38672
0
LINE
8
BLACK
6
CONTINUOUS
10
2.15955
20
1.38672
11
2.16579
21
1.38884
0
LINE
8
BLACK
6
CONTINUOUS
10
2.16579
20
1.38884
11
2.17233
21
1.38953
0
LINE
8
BLACK
6
CONTINUOUS
10
2.17233
20
1.38953
11
2.17887
21
1.38875
0
LINE
8
BLACK
6
CONTINUOUS
10
1.5765
20
1.3422
11
1.55091
21
1.3422
0
LINE
8
BLACK
6
CONTINUOUS
10
1.55091
20
1.3422
11
1.55091
21
1.40362
0
LINE
8
BLACK
6
CONTINUOUS
10
1.55091
20
1.40362
11
1.5765
21
1.40362
0
LINE
8
BLACK
6
CONTINUOUS
10
1.5765
20
1.40362
11
1.5765
21
1.3422
0
LINE
8
BLACK
6
CONTINUOUS
10
1.50169
20
1.3422
11
1.4761
21
1.3422
0
LINE
8
BLACK
6
CONTINUOUS
10
1.4761
20
1.3422
11
1.4761
21
1.40362
0
LINE
8
BLACK
6
CONTINUOUS
10
1.4761
20
1.40362
11
1.50169
21
1.40362
0
LINE
8
BLACK
6
CONTINUOUS
10
1.50169
20
1.40362
11
1.50169
21
1.3422
0
LINE
8
BLACK
6
CONTINUOUS
10
2.29528
20
1.35295
11
2.23622
21
1.35295
0
LINE
8
BLACK
6
CONTINUOUS
10
2.23622
20
1.35295
11
2.23622
21
1.37461
0
LINE
8
BLACK
6
CONTINUOUS
10
2.23622
20
1.37461
11
2.29528
21
1.37461
0
LINE
8
BLACK
6
CONTINUOUS
10
2.29528
20
1.37461
11
2.29528
21
1.35295
0
LINE
8
BLACK
6
CONTINUOUS
10
2.74409
20
1.35295
11
2.68504
21
1.35295
0
LINE
8
BLACK
6
CONTINUOUS
10
2.68504
20
1.35295
11
2.68504
21
1.37461
0
LINE
8
BLACK
6
CONTINUOUS
10
2.68504
20
1.37461
11
2.74409
21
1.37461
0
LINE
8
BLACK
6
CONTINUOUS
10
2.74409
20
1.37461
11
2.74409
21
1.35295
0
LINE
8
BLACK
6
CONTINUOUS
10
1.6938
20
1.37976
11
1.6388
21
1.37976
0
LINE
8
BLACK
6
CONTINUOUS
10
1.6388
20
1.37976
11
1.6388
21
1.41476
0
LINE
8
BLACK
6
CONTINUOUS
10
1.6388
20
1.41476
11
1.6938
21
1.41476
0
LINE
8
BLACK
6
CONTINUOUS
10
1.6938
20
1.41476
11
1.6938
21
1.37976
0
LINE
8
BLACK
6
CONTINUOUS
10
0.9875
20
1.38
11
0.9325
21
1.38
0
LINE
8
BLACK
6
CONTINUOUS
10
0.9325
20
1.38
11
0.9325
21
1.415
0
LINE
8
BLACK
6
CONTINUOUS
10
0.9325
20
1.415
11
0.9875
21
1.415
0
LINE
8
BLACK
6
CONTINUOUS
10
0.9875
20
1.415
11
0.9875
21
1.38
0
LINE
8
BLACK
6
CONTINUOUS
10
0.8275
20
1.38
11
0.7725
21
1.38
0
LINE
8
BLACK
6
CONTINUOUS
10
0.7725
20
1.38
11
0.7725
21
1.415
0
LINE
8
BLACK
6
CONTINUOUS
10
0.7725
20
1.415
11
0.8275
21
1.415
0
LINE
8
BLACK
6
CONTINUOUS
10
0.8275
20
1.415
11
0.8275
21
1.38
0
LINE
8
BLACK
6
CONTINUOUS
10
0.9075
20
1.38
11
0.8525
21
1.38
0
LINE
8
BLACK
6
CONTINUOUS
10
0.8525
20
1.38
11
0.8525
21
1.415
0
LINE
8
BLACK
6
CONTINUOUS
10
0.8525
20
1.415
11
0.9075
21
1.415
0
LINE
8
BLACK
6
CONTINUOUS
10
0.9075
20
1.415
11
0.9075
21
1.38
0
LINE
8
BLACK
6
CONTINUOUS
10
0.7375
20
1.3825
11
0.6825
21
1.3825
0
LINE
8
BLACK
6
CONTINUOUS
10
0.6825
20
1.3825
11
0.6825
21
1.4175
0
LINE
8
BLACK
6
CONTINUOUS
10
0.6825
20
1.4175
11
0.7375
21
1.4175
0
LINE
8
BLACK
6
CONTINUOUS
10
0.7375
20
1.4175
11
0.7375
21
1.3825
0
LINE
8
BLACK
6
CONTINUOUS
10
3.475
20
1.39
11
3.415
21
1.39
0
LINE
8
BLACK
6
CONTINUOUS
10
3.415
20
1.39
11
3.415
21
1.45
0
LINE
8
BLACK
6
CONTINUOUS
10
3.415
20
1.45
11
3.475
21
1.45
0
LINE
8
BLACK
6
CONTINUOUS
10
3.475
20
1.45
11
3.475
21
1.39
0
LINE
8
BLACK
6
CONTINUOUS
10
3.375
20
1.39
11
3.315
21
1.39
0
LINE
8
BLACK
6
CONTINUOUS
10
3.315
20
1.39
11
3.315
21
1.45
0
LINE
8
BLACK
6
CONTINUOUS
10
3.315
20
1.45
11
3.375
21
1.45
0
LINE
8
BLACK
6
CONTINUOUS
10
3.375
20
1.45
11
3.375
21
1.39
0
LINE
8
BLACK
6
CONTINUOUS
10
2.46949
20
1.40118
11
2.44783
21
1.40118
0
LINE
8
BLACK
6
CONTINUOUS
10
2.44783
20
1.40118
11
2.44783
21
1.46024
0
LINE
8
BLACK
6
CONTINUOUS
10
2.44783
20
1.46024
11
2.46949
21
1.46024
0
LINE
8
BLACK
6
CONTINUOUS
10
2.46949
20
1.46024
11
2.46949
21
1.40118
0
LINE
8
BLACK
6
CONTINUOUS
10
2.59547
20
1.40118
11
2.57382
21
1.40118
0
LINE
8
BLACK
6
CONTINUOUS
10
2.57382
20
1.40118
11
2.57382
21
1.46024
0
LINE
8
BLACK
6
CONTINUOUS
10
2.57382
20
1.46024
11
2.59547
21
1.46024
0
LINE
8
BLACK
6
CONTINUOUS
10
2.59547
20
1.46024
11
2.59547
21
1.40118
0
LINE
8
BLACK
6
CONTINUOUS
10
2.62697
20
1.40118
11
2.60531
21
1.40118
0
LINE
8
BLACK
6
CONTINUOUS
10
2.60531
20
1.40118
11
2.60531
21
1.46024
0
LINE
8
BLACK
6
CONTINUOUS
10
2.60531
20
1.46024
11
2.62697
21
1.46024
0
LINE
8
BLACK
6
CONTINUOUS
10
2.62697
20
1.46024
11
2.62697
21
1.40118
0
LINE
8
BLACK
6
CONTINUOUS
10
2.65846
20
1.40118
11
2.63681
21
1.40118
0
LINE
8
BLACK
6
CONTINUOUS
10
2.63681
20
1.40118
11
2.63681
21
1.46024
0
LINE
8
BLACK
6
CONTINUOUS
10
2.63681
20
1.46024
11
2.65846
21
1.46024
0
LINE
8
BLACK
6
CONTINUOUS
10
2.65846
20
1.46024
11
2.65846
21
1.40118
0
LINE
8
BLACK
6
CONTINUOUS
10
2.56398
20
1.40118
11
2.54232
21
1.40118
0
LINE
8
BLACK
6
CONTINUOUS
10
2.54232
20
1.40118
11
2.54232
21
1.46024
0
LINE
8
BLACK
6
CONTINUOUS
10
2.54232
20
1.46024
11
2.56398
21
1.46024
0
LINE
8
BLACK
6
CONTINUOUS
10
2.56398
20
1.46024
11
2.56398
21
1.40118
0
LINE
8
BLACK
6
CONTINUOUS
10
2.43799
20
1.40118
11
2.41634
21
1.40118
0
LINE
8
BLACK
6
CONTINUOUS
10
2.41634
20
1.40118
11
2.41634
21
1.46024
0
LINE
8
BLACK
6
CONTINUOUS
10
2.41634
20
1.46024
11
2.43799
21
1.46024
0
LINE
8
BLACK
6
CONTINUOUS
10
2.43799
20
1.46024
11
2.43799
21
1.40118
0
LINE
8
BLACK
6
CONTINUOUS
10
2.4065
20
1.40118
11
2.38484
21
1.40118
0
LINE
8
BLACK
6
CONTINUOUS
10
2.38484
20
1.40118
11
2.38484
21
1.46024
0
LINE
8
BLACK
6
CONTINUOUS
10
2.38484
20
1.46024
11
2.4065
21
1.46024
0
LINE
8
BLACK
6
CONTINUOUS
10
2.4065
20
1.46024
11
2.4065
21
1.40118
0
LINE
8
BLACK
6
CONTINUOUS
10
2.375
20
1.40118
11
2.35335
21
1.40118
0
LINE
8
BLACK
6
CONTINUOUS
10
2.35335
20
1.40118
11
2.35335
21
1.46024
0
LINE
8
BLACK
6
CONTINUOUS
10
2.35335
20
1.46024
11
2.375
21
1.46024
0
LINE
8
BLACK
6
CONTINUOUS
10
2.375
20
1.46024
11
2.375
21
1.40118
0
LINE
8
BLACK
6
CONTINUOUS
10
2.3435
20
1.40118
11
2.32185
21
1.40118
0
LINE
8
BLACK
6
CONTINUOUS
10
2.32185
20
1.40118
11
2.32185
21
1.46024
0
LINE
8
BLACK
6
CONTINUOUS
10
2.32185
20
1.46024
11
2.3435
21
1.46024
0
LINE
8
BLACK
6
CONTINUOUS
10
2.3435
20
1.46024
11
2.3435
21
1.40118
0
LINE
8
BLACK
6
CONTINUOUS
10
2.53248
20
1.40118
11
2.51083
21
1.40118
0
LINE
8
BLACK
6
CONTINUOUS
10
2.51083
20
1.40118
11
2.51083
21
1.46024
0
LINE
8
BLACK
6
CONTINUOUS
10
2.51083
20
1.46024
11
2.53248
21
1.46024
0
LINE
8
BLACK
6
CONTINUOUS
10
2.53248
20
1.46024
11
2.53248
21
1.40118
0
LINE
8
BLACK
6
CONTINUOUS
10
2.50098
20
1.40118
11
2.47933
21
1.40118
0
LINE
8
BLACK
6
CONTINUOUS
10
2.47933
20
1.40118
11
2.47933
21
1.46024
0
LINE
8
BLACK
6
CONTINUOUS
10
2.47933
20
1.46024
11
2.50098
21
1.46024
0
LINE
8
BLACK
6
CONTINUOUS
10
2.50098
20
1.46024
11
2.50098
21
1.40118
0
LINE
8
BLACK
6
CONTINUOUS
10
2.125
20
1.4275
11
2.09
21
1.4275
0
LINE
8
BLACK
6
CONTINUOUS
10
2.09
20
1.4275
11
2.09
21
1.4825
0
LINE
8
BLACK
6
CONTINUOUS
10
2.09
20
1.4825
11
2.125
21
1.4825
0
LINE
8
BLACK
6
CONTINUOUS
10
2.125
20
1.4825
11
2.125
21
1.4275
0
LINE
8
BLACK
6
CONTINUOUS
10
2.2
20
1.4275
11
2.165
21
1.4275
0
LINE
8
BLACK
6
CONTINUOUS
10
2.165
20
1.4275
11
2.165
21
1.4825
0
LINE
8
BLACK
6
CONTINUOUS
10
2.165
20
1.4825
11
2.2
21
1.4825
0
LINE
8
BLACK
6
CONTINUOUS
10
2.2
20
1.4825
11
2.2
21
1.4275
0
LINE
8
BLACK
6
CONTINUOUS
10
2.055
20
1.4275
11
2.02
21
1.4275
0
LINE
8
BLACK
6
CONTINUOUS
10
2.02
20
1.4275
11
2.02
21
1.4825
0
LINE
8
BLACK
6
CONTINUOUS
10
2.02
20
1.4825
11
2.055
21
1.4825
0
LINE
8
BLACK
6
CONTINUOUS
10
2.055
20
1.4825
11
2.055
21
1.4275
0
LINE
8
BLACK
6
CONTINUOUS
10
1.98
20
1.4275
11
1.945
21
1.4275
0
LINE
8
BLACK
6
CONTINUOUS
10
1.945
20
1.4275
11
1.945
21
1.4825
0
LINE
8
BLACK
6
CONTINUOUS
10
1.945
20
1.4825
11
1.98
21
1.4825
0
LINE
8
BLACK
6
CONTINUOUS
10
1.98
20
1.4825
11
1.98
21
1.4275
0
LINE
8
BLACK
6
CONTINUOUS
10
0.9675
20
1.4725
11
0.9325
21
1.4725
0
LINE
8
BLACK
6
CONTINUOUS
10
0.9325
20
1.4725
11
0.9325
21
1.5275
0
LINE
8
BLACK
6
CONTINUOUS
10
0.9325
20
1.5275
11
0.9675
21
1.5275
0
LINE
8
BLACK
6
CONTINUOUS
10
0.9675
20
1.5275
11
0.9675
21
1.4725
0
LINE
8
BLACK
6
CONTINUOUS
10
0.8175
20
1.4725
11
0.7825
21
1.4725
0
LINE
8
BLACK
6
CONTINUOUS
10
0.7825
20
1.4725
11
0.7825
21
1.5275
0
LINE
8
BLACK
6
CONTINUOUS
10
0.7825
20
1.5275
11
0.8175
21
1.5275
0
LINE
8
BLACK
6
CONTINUOUS
10
0.8175
20
1.5275
11
0.8175
21
1.4725
0
LINE
8
BLACK
6
CONTINUOUS
10
0.7425
20
1.4725
11
0.7075
21
1.4725
0
LINE
8
BLACK
6
CONTINUOUS
10
0.7075
20
1.4725
11
0.7075
21
1.5275
0
LINE
8
BLACK
6
CONTINUOUS
10
0.7075
20
1.5275
11
0.7425
21
1.5275
0
LINE
8
BLACK
6
CONTINUOUS
10
0.7425
20
1.5275
11
0.7425
21
1.4725
0
LINE
8
BLACK
6
CONTINUOUS
10
0.8925
20
1.4725
11
0.8575
21
1.4725
0
LINE
8
BLACK
6
CONTINUOUS
10
0.8575
20
1.4725
11
0.8575
21
1.5275
0
LINE
8
BLACK
6
CONTINUOUS
10
0.8575
20
1.5275
11
0.8925
21
1.5275
0
LINE
8
BLACK
6
CONTINUOUS
10
0.8925
20
1.5275
11
0.8925
21
1.4725
0
LINE
8
BLACK
6
CONTINUOUS
10
1.1175
20
1.4725
11
1.0825
21
1.4725
0
LINE
8
BLACK
6
CONTINUOUS
10
1.0825
20
1.4725
11
1.0825
21
1.5275
0
LINE
8
BLACK
6
CONTINUOUS
10
1.0825
20
1.5275
11
1.1175
21
1.5275
0
LINE
8
BLACK
6
CONTINUOUS
10
1.1175
20
1.5275
11
1.1175
21
1.4725
0
LINE
8
BLACK
6
CONTINUOUS
10
1.0425
20
1.4725
11
1.0075
21
1.4725
0
LINE
8
BLACK
6
CONTINUOUS
10
1.0075
20
1.4725
11
1.0075
21
1.5275
0
LINE
8
BLACK
6
CONTINUOUS
10
1.0075
20
1.5275
11
1.0425
21
1.5275
0
LINE
8
BLACK
6
CONTINUOUS
10
1.0425
20
1.5275
11
1.0425
21
1.4725
0
LINE
8
BLACK
6
CONTINUOUS
10
2.58
20
1.4875
11
2.545
21
1.4875
0
LINE
8
BLACK
6
CONTINUOUS
10
2.545
20
1.4875
11
2.545
21
1.5425
0
LINE
8
BLACK
6
CONTINUOUS
10
2.545
20
1.5425
11
2.58
21
1.5425
0
LINE
8
BLACK
6
CONTINUOUS
10
2.58
20
1.5425
11
2.58
21
1.4875
0
LINE
8
BLACK
6
CONTINUOUS
10
2.505
20
1.4875
11
2.47
21
1.4875
0
LINE
8
BLACK
6
CONTINUOUS
10
2.47
20
1.4875
11
2.47
21
1.5425
0
LINE
8
BLACK
6
CONTINUOUS
10
2.47
20
1.5425
11
2.505
21
1.5425
0
LINE
8
BLACK
6
CONTINUOUS
10
2.505
20
1.5425
11
2.505
21
1.4875
0
LINE
8
BLACK
6
CONTINUOUS
10
3.57878
20
1.51689
11
3.44886
21
1.51689
0
LINE
8
BLACK
6
CONTINUOUS
10
3.44886
20
1.51689
11
3.44886
21
1.61728
0
LINE
8
BLACK
6
CONTINUOUS
10
3.44886
20
1.61728
11
3.57878
21
1.61728
0
LINE
8
BLACK
6
CONTINUOUS
10
3.57878
20
1.61728
11
3.57878
21
1.51689
0
LINE
8
BLACK
6
CONTINUOUS
10
1.94492
20
1.51689
11
1.815
21
1.51689
0
LINE
8
BLACK
6
CONTINUOUS
10
1.815
20
1.51689
11
1.815
21
1.61728
0
LINE
8
BLACK
6
CONTINUOUS
10
1.815
20
1.61728
11
1.94492
21
1.61728
0
LINE
8
BLACK
6
CONTINUOUS
10
1.94492
20
1.61728
11
1.94492
21
1.51689
0
LINE
8
BLACK
6
CONTINUOUS
10
0.148583
20
1.51929
11
0.0186614
21
1.51929
0
LINE
8
BLACK
6
CONTINUOUS
10
0.0186614
20
1.51929
11
0.0186614
21
1.61969
0
LINE
8
BLACK
6
CONTINUOUS
10
0.0186614
20
1.61969
11
0.148583
21
1.61969
0
LINE
8
BLACK
6
CONTINUOUS
10
0.148583
20
1.61969
11
0.148583
21
1.51929
0
LINE
8
BLACK
6
CONTINUOUS
10
1.78244
20
1.51929
11
1.65252
21
1.51929
0
LINE
8
BLACK
6
CONTINUOUS
10
1.65252
20
1.51929
11
1.65252
21
1.61969
0
LINE
8
BLACK
6
CONTINUOUS
10
1.65252
20
1.61969
11
1.78244
21
1.61969
0
LINE
8
BLACK
6
CONTINUOUS
10
1.78244
20
1.61969
11
1.78244
21
1.51929
0
LINE
8
BLACK
6
CONTINUOUS
10
2.18114
20
1.57791
11
2.03154
21
1.57791
0
LINE
8
BLACK
6
CONTINUOUS
10
2.03154
20
1.57791
11
2.03154
21
1.61728
0
LINE
8
BLACK
6
CONTINUOUS
10
2.03154
20
1.61728
11
2.18114
21
1.61728
0
LINE
8
BLACK
6
CONTINUOUS
10
2.18114
20
1.61728
11
2.18114
21
1.57791
0
LINE
8
BLACK
6
CONTINUOUS
10
2.8898
20
1.57791
11
2.7402
21
1.57791
0
LINE
8
BLACK
6
CONTINUOUS
10
2.7402
20
1.57791
11
2.7402
21
1.61728
0
LINE
8
BLACK
6
CONTINUOUS
10
2.7402
20
1.61728
11
2.8898
21
1.61728
0
LINE
8
BLACK
6
CONTINUOUS
10
2.8898
20
1.61728
11
2.8898
21
1.57791
0
LINE
8
BLACK
6
CONTINUOUS
10
2.65358
20
1.57791
11
2.50398
21
1.57791
0
LINE
8
BLACK
6
CONTINUOUS
10
2.50398
20
1.57791
11
2.50398
21
1.61728
0
LINE
8
BLACK
6
CONTINUOUS
10
2.50398
20
1.61728
11
2.65358
21
1.61728
0
LINE
8
BLACK
6
CONTINUOUS
10
2.65358
20
1.61728
11
2.65358
21
1.57791
0
LINE
8
BLACK
6
CONTINUOUS
10
3.12602
20
1.57791
11
2.97642
21
1.57791
0
LINE
8
BLACK
6
CONTINUOUS
10
2.97642
20
1.57791
11
2.97642
21
1.61728
0
LINE
8
BLACK
6
CONTINUOUS
10
2.97642
20
1.61728
11
3.12602
21
1.61728
0
LINE
8
BLACK
6
CONTINUOUS
10
3.12602
20
1.61728
11
3.12602
21
1.57791
0
LINE
8
BLACK
6
CONTINUOUS
10
3.36224
20
1.57791
11
3.21264
21
1.57791
0
LINE
8
BLACK
6
CONTINUOUS
10
3.21264
20
1.57791
11
3.21264
21
1.61728
0
LINE
8
BLACK
6
CONTINUOUS
10
3.21264
20
1.61728
11
3.36224
21
1.61728
0
LINE
8
BLACK
6
CONTINUOUS
10
3.36224
20
1.61728
11
3.36224
21
1.57791
0
LINE
8
BLACK
6
CONTINUOUS
10
2.41736
20
1.57791
11
2.26776
21
1.57791
0
LINE
8
BLACK
6
CONTINUOUS
10
2.26776
20
1.57791
11
2.26776
21
1.61728
0
LINE
8
BLACK
6
CONTINUOUS
10
2.26776
20
1.61728
11
2.41736
21
1.61728
0
LINE
8
BLACK
6
CONTINUOUS
10
2.41736
20
1.61728
11
2.41736
21
1.57791
0
LINE
8
BLACK
6
CONTINUOUS
10
1.32969
20
1.58031
11
1.18008
21
1.58031
0
LINE
8
BLACK
6
CONTINUOUS
10
1.18008
20
1.58031
11
1.18008
21
1.61969
0
LINE
8
BLACK
6
CONTINUOUS
10
1.18008
20
1.61969
11
1.32969
21
1.61969
0
LINE
8
BLACK
6
CONTINUOUS
10
1.32969
20
1.61969
11
1.32969
21
1.58031
0
LINE
8
BLACK
6
CONTINUOUS
10
1.09346
20
1.58031
11
0.943858
21
1.58031
0
LINE
8
BLACK
6
CONTINUOUS
10
0.943858
20
1.58031
11
0.943858
21
1.61969
0
LINE
8
BLACK
6
CONTINUOUS
10
0.943858
20
1.61969
11
1.09346
21
1.61969
0
LINE
8
BLACK
6
CONTINUOUS
10
1.09346
20
1.61969
11
1.09346
21
1.58031
0
LINE
8
BLACK
6
CONTINUOUS
10
0.621024
20
1.58031
11
0.471417
21
1.58031
0
LINE
8
BLACK
6
CONTINUOUS
10
0.471417
20
1.58031
11
0.471417
21
1.61969
0
LINE
8
BLACK
6
CONTINUOUS
10
0.471417
20
1.61969
11
0.621024
21
1.61969
0
LINE
8
BLACK
6
CONTINUOUS
10
0.621024
20
1.61969
11
0.621024
21
1.58031
0
LINE
8
BLACK
6
CONTINUOUS
10
0.857244
20
1.58031
11
0.707638
21
1.58031
0
LINE
8
BLACK
6
CONTINUOUS
10
0.707638
20
1.58031
11
0.707638
21
1.61969
0
LINE
8
BLACK
6
CONTINUOUS
10
0.707638
20
1.61969
11
0.857244
21
1.61969
0
LINE
8
BLACK
6
CONTINUOUS
10
0.857244
20
1.61969
11
0.857244
21
1.58031
0
LINE
8
BLACK
6
CONTINUOUS
10
0.384803
20
1.58031
11
0.235197
21
1.58031
0
LINE
8
BLACK
6
CONTINUOUS
10
0.235197
20
1.58031
11
0.235197
21
1.61969
0
LINE
8
BLACK
6
CONTINUOUS
10
0.235197
20
1.61969
11
0.384803
21
1.61969
0
LINE
8
BLACK
6
CONTINUOUS
10
0.384803
20
1.61969
11
0.384803
21
1.58031
0
LINE
8
BLACK
6
CONTINUOUS
10
1.56591
20
1.58031
11
1.4163
21
1.58031
0
LINE
8
BLACK
6
CONTINUOUS
10
1.4163
20
1.58031
11
1.4163
21
1.61969
0
LINE
8
BLACK
6
CONTINUOUS
10
1.4163
20
1.61969
11
1.56591
21
1.61969
0
LINE
8
BLACK
6
CONTINUOUS
10
1.56591
20
1.61969
11
1.56591
21
1.58031
0
LINE
8
BLACK
6
CONTINUOUS
10
0.20865
20
1.91779
11
0.222132
21
1.91602
0
LINE
8
BLACK
6
CONTINUOUS
10
0.222132
20
1.91602
11
0.23532
21
1.91271
0
LINE
8
BLACK
6
CONTINUOUS
10
0.23532
20
1.91271
11
0.24804
21
1.9079
0
LINE
8
BLACK
6
CONTINUOUS
10
0.24804
20
1.9079
11
0.260123
21
1.90166
0
LINE
8
BLACK
6
CONTINUOUS
10
0.260123
20
1.90166
11
0.271409
21
1.89408
0
LINE
8
BLACK
6
CONTINUOUS
10
0.271409
20
1.89408
11
0.281749
21
1.88525
0
LINE
8
BLACK
6
CONTINUOUS
10
0.281749
20
1.88525
11
0.291006
21
1.87529
0
LINE
8
BLACK
6
CONTINUOUS
10
0.291006
20
1.87529
11
0.299056
21
1.86433
0
LINE
8
BLACK
6
CONTINUOUS
10
0.299056
20
1.86433
11
0.305793
21
1.85252
0
LINE
8
BLACK
6
CONTINUOUS
10
0.305793
20
1.85252
11
0.311128
21
1.84001
0
LINE
8
BLACK
6
CONTINUOUS
10
0.311128
20
1.84001
11
0.31499
21
1.82697
0
LINE
8
BLACK
6
CONTINUOUS
10
0.31499
20
1.82697
11
0.317327
21
1.81358
0
LINE
8
BLACK
6
CONTINUOUS
10
0.317327
20
1.81358
11
0.31811
21
1.8
0
LINE
8
BLACK
6
CONTINUOUS
10
0.31811
20
1.8
11
0.317877
21
1.79258
0
LINE
8
BLACK
6
CONTINUOUS
10
0.317877
20
1.79258
11
0.316244
21
1.77908
0
LINE
8
BLACK
6
CONTINUOUS
10
0.316244
20
1.77908
11
0.313069
21
1.76586
0
LINE
8
BLACK
6
CONTINUOUS
10
0.313069
20
1.76586
11
0.308396
21
1.75309
0
LINE
8
BLACK
6
CONTINUOUS
10
0.308396
20
1.75309
11
0.302286
21
1.74094
0
LINE
8
BLACK
6
CONTINUOUS
10
0.302286
20
1.74094
11
0.294821
21
1.72958
0
LINE
8
BLACK
6
CONTINUOUS
10
0.294821
20
1.72958
11
0.286099
21
1.71915
0
LINE
8
BLACK
6
CONTINUOUS
10
0.286099
20
1.71915
11
0.276235
21
1.70979
0
LINE
8
BLACK
6
CONTINUOUS
10
0.276235
20
1.70979
11
0.265361
21
1.70162
0
LINE
8
BLACK
6
CONTINUOUS
10
0.265361
20
1.70162
11
0.253621
21
1.69476
0
LINE
8
BLACK
6
CONTINUOUS
10
0.253621
20
1.69476
11
0.24117
21
1.6893
0
LINE
8
BLACK
6
CONTINUOUS
10
0.24117
20
1.6893
11
0.228173
21
1.6853
0
LINE
8
BLACK
6
CONTINUOUS
10
0.228173
20
1.6853
11
0.214803
21
1.68282
0
LINE
8
BLACK
6
CONTINUOUS
10
0.214803
20
1.68282
11
0.201237
21
1.6819
0
LINE
8
BLACK
6
CONTINUOUS
10
0.201237
20
1.6819
11
0.187654
21
1.68254
0
LINE
8
BLACK
6
CONTINUOUS
10
0.187654
20
1.68254
11
0.174235
21
1.68473
0
LINE
8
BLACK
6
CONTINUOUS
10
0.174235
20
1.68473
11
0.161157
21
1.68846
0
LINE
8
BLACK
6
CONTINUOUS
10
0.161157
20
1.68846
11
0.148595
21
1.69366
0
LINE
8
BLACK
6
CONTINUOUS
10
0.148595
20
1.69366
11
0.136713
21
1.70028
0
LINE
8
BLACK
6
CONTINUOUS
10
0.136713
20
1.70028
11
0.125671
21
1.70821
0
LINE
8
BLACK
6
CONTINUOUS
10
0.125671
20
1.70821
11
0.115613
21
1.71736
0
LINE
8
BLACK
6
CONTINUOUS
10
0.115613
20
1.71736
11
0.106675
21
1.72761
0
LINE
8
BLACK
6
CONTINUOUS
10
0.106675
20
1.72761
11
0.0989727
21
1.73882
0
LINE
8
BLACK
6
CONTINUOUS
10
0.0989727
20
1.73882
11
0.0926099
21
1.75083
0
LINE
8
BLACK
6
CONTINUOUS
10
0.0926099
20
1.75083
11
0.0876705
21
1.7635
0
LINE
8
BLACK
6
CONTINUOUS
10
0.0876705
20
1.7635
11
0.0842199
21
1.77665
0
LINE
8
BLACK
6
CONTINUOUS
10
0.0842199
20
1.77665
11
0.082304
21
1.79012
0
LINE
8
BLACK
6
CONTINUOUS
10
0.082304
20
1.79012
11
0.081948
21
1.80371
0
LINE
8
BLACK
6
CONTINUOUS
10
0.081948
20
1.80371
11
0.0831568
21
1.81725
0
LINE
8
BLACK
6
CONTINUOUS
10
0.0831568
20
1.81725
11
0.0859143
21
1.83057
0
LINE
8
BLACK
6
CONTINUOUS
10
0.0859143
20
1.83057
11
0.0901839
21
1.84348
0
LINE
8
BLACK
6
CONTINUOUS
10
0.0901839
20
1.84348
11
0.0959091
21
1.85581
0
LINE
8
BLACK
6
CONTINUOUS
10
0.0959091
20
1.85581
11
0.103014
21
1.86741
0
LINE
8
BLACK
6
CONTINUOUS
10
0.103014
20
1.86741
11
0.111404
21
1.87811
0
LINE
8
BLACK
6
CONTINUOUS
10
0.111404
20
1.87811
11
0.120969
21
1.88777
0
LINE
8
BLACK
6
CONTINUOUS
10
0.120969
20
1.88777
11
0.131581
21
1.89627
0
LINE
8
BLACK
6
CONTINUOUS
10
0.131581
20
1.89627
11
0.1431
21
1.9035
0
LINE
8
BLACK
6
CONTINUOUS
10
0.1431
20
1.9035
11
0.155373
21
1.90935
0
LINE
8
BLACK
6
CONTINUOUS
10
0.155373
20
1.90935
11
0.168238
21
1.91376
0
LINE
8
BLACK
6
CONTINUOUS
10
0.168238
20
1.91376
11
0.181524
21
1.91666
0
LINE
8
BLACK
6
CONTINUOUS
10
0.181524
20
1.91666
11
0.195054
21
1.91801
0
LINE
8
BLACK
6
CONTINUOUS
10
0.195054
20
1.91801
11
0.20865
21
1.91779
0
LINE
8
BLACK
6
CONTINUOUS
10
3.40865
20
1.91779
11
3.42213
21
1.91602
0
LINE
8
BLACK
6
CONTINUOUS
10
3.42213
20
1.91602
11
3.43532
21
1.91271
0
LINE
8
BLACK
6
CONTINUOUS
10
3.43532
20
1.91271
11
3.44804
21
1.9079
0
LINE
8
BLACK
6
CONTINUOUS
10
3.44804
20
1.9079
11
3.46012
21
1.90166
0
LINE
8
BLACK
6
CONTINUOUS
10
3.46012
20
1.90166
11
3.47141
21
1.89408
0
LINE
8
BLACK
6
CONTINUOUS
10
3.47141
20
1.89408
11
3.48175
21
1.88525
0
LINE
8
BLACK
6
CONTINUOUS
10
3.48175
20
1.88525
11
3.49101
21
1.87529
0
LINE
8
BLACK
6
CONTINUOUS
10
3.49101
20
1.87529
11
3.49906
21
1.86433
0
LINE
8
BLACK
6
CONTINUOUS
10
3.49906
20
1.86433
11
3.50579
21
1.85252
0
LINE
8
BLACK
6
CONTINUOUS
10
3.50579
20
1.85252
11
3.51113
21
1.84001
0
LINE
8
BLACK
6
CONTINUOUS
10
3.51113
20
1.84001
11
3.51499
21
1.82697
0
LINE
8
BLACK
6
CONTINUOUS
10
3.51499
20
1.82697
11
3.51733
21
1.81358
0
LINE
8
BLACK
6
CONTINUOUS
10
3.51733
20
1.81358
11
3.51811
21
1.8
0
LINE
8
BLACK
6
CONTINUOUS
10
3.51811
20
1.8
11
3.51788
21
1.79258
0
LINE
8
BLACK
6
CONTINUOUS
10
3.51788
20
1.79258
11
3.51624
21
1.77908
0
LINE
8
BLACK
6
CONTINUOUS
10
3.51624
20
1.77908
11
3.51307
21
1.76586
0
LINE
8
BLACK
6
CONTINUOUS
10
3.51307
20
1.76586
11
3.5084
21
1.75309
0
LINE
8
BLACK
6
CONTINUOUS
10
3.5084
20
1.75309
11
3.50229
21
1.74094
0
LINE
8
BLACK
6
CONTINUOUS
10
3.50229
20
1.74094
11
3.49482
21
1.72958
0
LINE
8
BLACK
6
CONTINUOUS
10
3.49482
20
1.72958
11
3.4861
21
1.71915
0
LINE
8
BLACK
6
CONTINUOUS
10
3.4861
20
1.71915
11
3.47624
21
1.70979
0
LINE
8
BLACK
6
CONTINUOUS
10
3.47624
20
1.70979
11
3.46536
21
1.70162
0
LINE
8
BLACK
6
CONTINUOUS
10
3.46536
20
1.70162
11
3.45362
21
1.69476
0
LINE
8
BLACK
6
CONTINUOUS
10
3.45362
20
1.69476
11
3.44117
21
1.6893
0
LINE
8
BLACK
6
CONTINUOUS
10
3.44117
20
1.6893
11
3.42817
21
1.6853
0
LINE
8
BLACK
6
CONTINUOUS
10
3.42817
20
1.6853
11
3.4148
21
1.68282
0
LINE
8
BLACK
6
CONTINUOUS
10
3.4148
20
1.68282
11
3.40124
21
1.6819
0
LINE
8
BLACK
6
CONTINUOUS
10
3.40124
20
1.6819
11
3.38765
21
1.68254
0
LINE
8
BLACK
6
CONTINUOUS
10
3.38765
20
1.68254
11
3.37424
21
1.68473
0
LINE
8
BLACK
6
CONTINUOUS
10
3.37424
20
1.68473
11
3.36116
21
1.68846
0
LINE
8
BLACK
6
CONTINUOUS
10
3.36116
20
1.68846
11
3.34859
21
1.69366
0
LINE
8
BLACK
6
CONTINUOUS
10
3.34859
20
1.69366
11
3.33671
21
1.70028
0
LINE
8
BLACK
6
CONTINUOUS
10
3.33671
20
1.70028
11
3.32567
21
1.70821
0
LINE
8
BLACK
6
CONTINUOUS
10
3.32567
20
1.70821
11
3.31561
21
1.71736
0
LINE
8
BLACK
6
CONTINUOUS
10
3.31561
20
1.71736
11
3.30667
21
1.72761
0
LINE
8
BLACK
6
CONTINUOUS
10
3.30667
20
1.72761
11
3.29897
21
1.73882
0
LINE
8
BLACK
6
CONTINUOUS
10
3.29897
20
1.73882
11
3.29261
21
1.75083
0
LINE
8
BLACK
6
CONTINUOUS
10
3.29261
20
1.75083
11
3.28767
21
1.7635
0
LINE
8
BLACK
6
CONTINUOUS
10
3.28767
20
1.7635
11
3.28422
21
1.77665
0
LINE
8
BLACK
6
CONTINUOUS
10
3.28422
20
1.77665
11
3.2823
21
1.79012
0
LINE
8
BLACK
6
CONTINUOUS
10
3.2823
20
1.79012
11
3.28195
21
1.80371
0
LINE
8
BLACK
6
CONTINUOUS
10
3.28195
20
1.80371
11
3.28316
21
1.81725
0
LINE
8
BLACK
6
CONTINUOUS
10
3.28316
20
1.81725
11
3.28591
21
1.83057
0
LINE
8
BLACK
6
CONTINUOUS
10
3.28591
20
1.83057
11
3.29018
21
1.84348
0
LINE
8
BLACK
6
CONTINUOUS
10
3.29018
20
1.84348
11
3.29591
21
1.85581
0
LINE
8
BLACK
6
CONTINUOUS
10
3.29591
20
1.85581
11
3.30301
21
1.86741
0
LINE
8
BLACK
6
CONTINUOUS
10
3.30301
20
1.86741
11
3.3114
21
1.87811
0
LINE
8
BLACK
6
CONTINUOUS
10
3.3114
20
1.87811
11
3.32097
21
1.88777
0
LINE
8
BLACK
6
CONTINUOUS
10
3.32097
20
1.88777
11
3.33158
21
1.89627
0
LINE
8
BLACK
6
CONTINUOUS
10
3.33158
20
1.89627
11
3.3431
21
1.9035
0
LINE
8
BLACK
6
CONTINUOUS
10
3.3431
20
1.9035
11
3.35537
21
1.90935
0
LINE
8
BLACK
6
CONTINUOUS
10
3.35537
20
1.90935
11
3.36824
21
1.91376
0
LINE
8
BLACK
6
CONTINUOUS
10
3.36824
20
1.91376
11
3.38152
21
1.91666
0
LINE
8
BLACK
6
CONTINUOUS
10
3.38152
20
1.91666
11
3.39505
21
1.91801
0
LINE
8
BLACK
6
CONTINUOUS
10
3.39505
20
1.91801
11
3.40865
21
1.91779
  0
ENDSEC
  0
EOF
