  0
SECTION
  2
HEADER
  9
$ANGBASE
  50
0.0
  9
$ANGDIR
  70
1
  9
$MEASUREMENT
  70
0
  0
ENDSEC
  0
SECTION
  2
TABLES
  0
TABLE
  2
LTYPE
  70
4
  0
LTYPE
  5
40F
  2
CONTINUOUS
  70
0
  3
Solid line
  72
65
  73
0
  40
0.0
  0
LTYPE
  5
410
  2
DASHDOT
 70
0
  3
Dash Dot ____ _ ____ _
 72
65
 73
4
 40
2.0
 49
1.25
 49
-0.25
 49
0.25
 49
-0.25
  0
LTYPE
  5
411
  2
DASHED
 70
0
  3
Dashed __ __ __ __ __
 72
65
 73
2
 40
0.75
 49
0.5
 49
-0.25
  0
LTYPE
  5
43B
  2
DOTTED
 70
0
  3
Dotted .  .  .  .
 72
65
 73
2
 40
0.2
 49
0.0
 49
-0.2
  0
ENDTAB
  0
TABLE
  2
STYLE
  70
4
  0
STYLE
  2
KICAD
  70
0
  40
0
  41
1
  42
1
  50
0
  71
0
  3
isocp.shx
  0
STYLE
  2
KICADB
  70
0
  40
0
  41
1
  42
1
  50
0
  71
0
  3
isocp.shx
  0
STYLE
  2
KICADI
  70
0
  40
0
  41
1
  42
1
  50
15
  71
0
  3
isocp.shx
  0
STYLE
  2
KICADBI
  70
0
  40
0
  41
1
  42
1
  50
15
  71
0
  3
isocp.shx
  0
ENDTAB
  0
TABLE
  2
LAYER
  70
1
  0
LAYER
  2
BLACK
  70
0
  62
7
  6
CONTINUOUS
  0
ENDTAB
  0
ENDSEC
  0
SECTION
  2
ENTITIES
0
LINE
8
BLACK
6
CONTINUOUS
10
6.64358
20
-4.72878
11
6.64678
21
-4.73091
0
LINE
8
BLACK
6
CONTINUOUS
10
6.64678
20
-4.73091
11
6.64891
21
-4.7341
0
LINE
8
BLACK
6
CONTINUOUS
10
6.64891
20
-4.7341
11
6.64966
21
-4.73787
0
LINE
8
BLACK
6
CONTINUOUS
10
6.64966
20
-4.73787
11
6.64966
21
-4.7674
0
LINE
8
BLACK
6
CONTINUOUS
10
6.64966
20
-4.7674
11
6.64891
21
-4.77117
0
LINE
8
BLACK
6
CONTINUOUS
10
6.64891
20
-4.77117
11
6.64678
21
-4.77436
0
LINE
8
BLACK
6
CONTINUOUS
10
6.64678
20
-4.77436
11
6.64358
21
-4.77649
0
LINE
8
BLACK
6
CONTINUOUS
10
6.64358
20
-4.77649
11
6.63982
21
-4.77724
0
LINE
8
BLACK
6
CONTINUOUS
10
6.63982
20
-4.77724
11
6.5906
21
-4.77724
0
LINE
8
BLACK
6
CONTINUOUS
10
6.5906
20
-4.77724
11
6.58684
21
-4.77649
0
LINE
8
BLACK
6
CONTINUOUS
10
6.58684
20
-4.77649
11
6.58364
21
-4.77436
0
LINE
8
BLACK
6
CONTINUOUS
10
6.58364
20
-4.77436
11
6.58151
21
-4.77117
0
LINE
8
BLACK
6
CONTINUOUS
10
6.58151
20
-4.77117
11
6.58076
21
-4.7674
0
LINE
8
BLACK
6
CONTINUOUS
10
6.58076
20
-4.7674
11
6.58076
21
-4.73787
0
LINE
8
BLACK
6
CONTINUOUS
10
6.58076
20
-4.73787
11
6.58151
21
-4.7341
0
LINE
8
BLACK
6
CONTINUOUS
10
6.58151
20
-4.7341
11
6.58364
21
-4.73091
0
LINE
8
BLACK
6
CONTINUOUS
10
6.58364
20
-4.73091
11
6.58684
21
-4.72878
0
LINE
8
BLACK
6
CONTINUOUS
10
6.58684
20
-4.72878
11
6.5906
21
-4.72803
0
LINE
8
BLACK
6
CONTINUOUS
10
6.5906
20
-4.72803
11
6.63982
21
-4.72803
0
LINE
8
BLACK
6
CONTINUOUS
10
6.63982
20
-4.72803
11
6.64358
21
-4.72878
0
LINE
8
BLACK
6
CONTINUOUS
10
6.24988
20
-4.72878
11
6.25308
21
-4.73091
0
LINE
8
BLACK
6
CONTINUOUS
10
6.25308
20
-4.73091
11
6.25521
21
-4.7341
0
LINE
8
BLACK
6
CONTINUOUS
10
6.25521
20
-4.7341
11
6.25596
21
-4.73787
0
LINE
8
BLACK
6
CONTINUOUS
10
6.25596
20
-4.73787
11
6.25596
21
-4.7674
0
LINE
8
BLACK
6
CONTINUOUS
10
6.25596
20
-4.7674
11
6.25521
21
-4.77117
0
LINE
8
BLACK
6
CONTINUOUS
10
6.25521
20
-4.77117
11
6.25308
21
-4.77436
0
LINE
8
BLACK
6
CONTINUOUS
10
6.25308
20
-4.77436
11
6.24988
21
-4.77649
0
LINE
8
BLACK
6
CONTINUOUS
10
6.24988
20
-4.77649
11
6.24612
21
-4.77724
0
LINE
8
BLACK
6
CONTINUOUS
10
6.24612
20
-4.77724
11
6.1969
21
-4.77724
0
LINE
8
BLACK
6
CONTINUOUS
10
6.1969
20
-4.77724
11
6.19314
21
-4.77649
0
LINE
8
BLACK
6
CONTINUOUS
10
6.19314
20
-4.77649
11
6.18994
21
-4.77436
0
LINE
8
BLACK
6
CONTINUOUS
10
6.18994
20
-4.77436
11
6.18781
21
-4.77117
0
LINE
8
BLACK
6
CONTINUOUS
10
6.18781
20
-4.77117
11
6.18706
21
-4.7674
0
LINE
8
BLACK
6
CONTINUOUS
10
6.18706
20
-4.7674
11
6.18706
21
-4.73787
0
LINE
8
BLACK
6
CONTINUOUS
10
6.18706
20
-4.73787
11
6.18781
21
-4.7341
0
LINE
8
BLACK
6
CONTINUOUS
10
6.18781
20
-4.7341
11
6.18994
21
-4.73091
0
LINE
8
BLACK
6
CONTINUOUS
10
6.18994
20
-4.73091
11
6.19314
21
-4.72878
0
LINE
8
BLACK
6
CONTINUOUS
10
6.19314
20
-4.72878
11
6.1969
21
-4.72803
0
LINE
8
BLACK
6
CONTINUOUS
10
6.1969
20
-4.72803
11
6.24612
21
-4.72803
0
LINE
8
BLACK
6
CONTINUOUS
10
6.24612
20
-4.72803
11
6.24988
21
-4.72878
0
LINE
8
BLACK
6
CONTINUOUS
10
6.44673
20
-4.72878
11
6.44993
21
-4.73091
0
LINE
8
BLACK
6
CONTINUOUS
10
6.44993
20
-4.73091
11
6.45206
21
-4.7341
0
LINE
8
BLACK
6
CONTINUOUS
10
6.45206
20
-4.7341
11
6.45281
21
-4.73787
0
LINE
8
BLACK
6
CONTINUOUS
10
6.45281
20
-4.73787
11
6.45281
21
-4.7674
0
LINE
8
BLACK
6
CONTINUOUS
10
6.45281
20
-4.7674
11
6.45206
21
-4.77117
0
LINE
8
BLACK
6
CONTINUOUS
10
6.45206
20
-4.77117
11
6.44993
21
-4.77436
0
LINE
8
BLACK
6
CONTINUOUS
10
6.44993
20
-4.77436
11
6.44673
21
-4.77649
0
LINE
8
BLACK
6
CONTINUOUS
10
6.44673
20
-4.77649
11
6.44297
21
-4.77724
0
LINE
8
BLACK
6
CONTINUOUS
10
6.44297
20
-4.77724
11
6.39375
21
-4.77724
0
LINE
8
BLACK
6
CONTINUOUS
10
6.39375
20
-4.77724
11
6.38999
21
-4.77649
0
LINE
8
BLACK
6
CONTINUOUS
10
6.38999
20
-4.77649
11
6.38679
21
-4.77436
0
LINE
8
BLACK
6
CONTINUOUS
10
6.38679
20
-4.77436
11
6.38466
21
-4.77117
0
LINE
8
BLACK
6
CONTINUOUS
10
6.38466
20
-4.77117
11
6.38391
21
-4.7674
0
LINE
8
BLACK
6
CONTINUOUS
10
6.38391
20
-4.7674
11
6.38391
21
-4.73787
0
LINE
8
BLACK
6
CONTINUOUS
10
6.38391
20
-4.73787
11
6.38466
21
-4.7341
0
LINE
8
BLACK
6
CONTINUOUS
10
6.38466
20
-4.7341
11
6.38679
21
-4.73091
0
LINE
8
BLACK
6
CONTINUOUS
10
6.38679
20
-4.73091
11
6.38999
21
-4.72878
0
LINE
8
BLACK
6
CONTINUOUS
10
6.38999
20
-4.72878
11
6.39375
21
-4.72803
0
LINE
8
BLACK
6
CONTINUOUS
10
6.39375
20
-4.72803
11
6.44297
21
-4.72803
0
LINE
8
BLACK
6
CONTINUOUS
10
6.44297
20
-4.72803
11
6.44673
21
-4.72878
0
LINE
8
BLACK
6
CONTINUOUS
10
5.85618
20
-4.72878
11
5.85937
21
-4.73091
0
LINE
8
BLACK
6
CONTINUOUS
10
5.85937
20
-4.73091
11
5.86151
21
-4.7341
0
LINE
8
BLACK
6
CONTINUOUS
10
5.86151
20
-4.7341
11
5.86226
21
-4.73787
0
LINE
8
BLACK
6
CONTINUOUS
10
5.86226
20
-4.73787
11
5.86226
21
-4.7674
0
LINE
8
BLACK
6
CONTINUOUS
10
5.86226
20
-4.7674
11
5.86151
21
-4.77117
0
LINE
8
BLACK
6
CONTINUOUS
10
5.86151
20
-4.77117
11
5.85937
21
-4.77436
0
LINE
8
BLACK
6
CONTINUOUS
10
5.85937
20
-4.77436
11
5.85618
21
-4.77649
0
LINE
8
BLACK
6
CONTINUOUS
10
5.85618
20
-4.77649
11
5.85241
21
-4.77724
0
LINE
8
BLACK
6
CONTINUOUS
10
5.85241
20
-4.77724
11
5.8032
21
-4.77724
0
LINE
8
BLACK
6
CONTINUOUS
10
5.8032
20
-4.77724
11
5.79944
21
-4.77649
0
LINE
8
BLACK
6
CONTINUOUS
10
5.79944
20
-4.77649
11
5.79624
21
-4.77436
0
LINE
8
BLACK
6
CONTINUOUS
10
5.79624
20
-4.77436
11
5.79411
21
-4.77117
0
LINE
8
BLACK
6
CONTINUOUS
10
5.79411
20
-4.77117
11
5.79336
21
-4.7674
0
LINE
8
BLACK
6
CONTINUOUS
10
5.79336
20
-4.7674
11
5.79336
21
-4.73787
0
LINE
8
BLACK
6
CONTINUOUS
10
5.79336
20
-4.73787
11
5.79411
21
-4.7341
0
LINE
8
BLACK
6
CONTINUOUS
10
5.79411
20
-4.7341
11
5.79624
21
-4.73091
0
LINE
8
BLACK
6
CONTINUOUS
10
5.79624
20
-4.73091
11
5.79944
21
-4.72878
0
LINE
8
BLACK
6
CONTINUOUS
10
5.79944
20
-4.72878
11
5.8032
21
-4.72803
0
LINE
8
BLACK
6
CONTINUOUS
10
5.8032
20
-4.72803
11
5.85241
21
-4.72803
0
LINE
8
BLACK
6
CONTINUOUS
10
5.85241
20
-4.72803
11
5.85618
21
-4.72878
0
LINE
8
BLACK
6
CONTINUOUS
10
6.05303
20
-4.72878
11
6.05623
21
-4.73091
0
LINE
8
BLACK
6
CONTINUOUS
10
6.05623
20
-4.73091
11
6.05836
21
-4.7341
0
LINE
8
BLACK
6
CONTINUOUS
10
6.05836
20
-4.7341
11
6.05911
21
-4.73787
0
LINE
8
BLACK
6
CONTINUOUS
10
6.05911
20
-4.73787
11
6.05911
21
-4.7674
0
LINE
8
BLACK
6
CONTINUOUS
10
6.05911
20
-4.7674
11
6.05836
21
-4.77117
0
LINE
8
BLACK
6
CONTINUOUS
10
6.05836
20
-4.77117
11
6.05623
21
-4.77436
0
LINE
8
BLACK
6
CONTINUOUS
10
6.05623
20
-4.77436
11
6.05303
21
-4.77649
0
LINE
8
BLACK
6
CONTINUOUS
10
6.05303
20
-4.77649
11
6.04927
21
-4.77724
0
LINE
8
BLACK
6
CONTINUOUS
10
6.04927
20
-4.77724
11
6.00005
21
-4.77724
0
LINE
8
BLACK
6
CONTINUOUS
10
6.00005
20
-4.77724
11
5.99629
21
-4.77649
0
LINE
8
BLACK
6
CONTINUOUS
10
5.99629
20
-4.77649
11
5.99309
21
-4.77436
0
LINE
8
BLACK
6
CONTINUOUS
10
5.99309
20
-4.77436
11
5.99096
21
-4.77117
0
LINE
8
BLACK
6
CONTINUOUS
10
5.99096
20
-4.77117
11
5.99021
21
-4.7674
0
LINE
8
BLACK
6
CONTINUOUS
10
5.99021
20
-4.7674
11
5.99021
21
-4.73787
0
LINE
8
BLACK
6
CONTINUOUS
10
5.99021
20
-4.73787
11
5.99096
21
-4.7341
0
LINE
8
BLACK
6
CONTINUOUS
10
5.99096
20
-4.7341
11
5.99309
21
-4.73091
0
LINE
8
BLACK
6
CONTINUOUS
10
5.99309
20
-4.73091
11
5.99629
21
-4.72878
0
LINE
8
BLACK
6
CONTINUOUS
10
5.99629
20
-4.72878
11
6.00005
21
-4.72803
0
LINE
8
BLACK
6
CONTINUOUS
10
6.00005
20
-4.72803
11
6.04927
21
-4.72803
0
LINE
8
BLACK
6
CONTINUOUS
10
6.04927
20
-4.72803
11
6.05303
21
-4.72878
0
LINE
8
BLACK
6
CONTINUOUS
10
6.24988
20
-4.61854
11
6.25308
21
-4.62068
0
LINE
8
BLACK
6
CONTINUOUS
10
6.25308
20
-4.62068
11
6.25521
21
-4.62387
0
LINE
8
BLACK
6
CONTINUOUS
10
6.25521
20
-4.62387
11
6.25596
21
-4.62763
0
LINE
8
BLACK
6
CONTINUOUS
10
6.25596
20
-4.62763
11
6.25596
21
-4.65716
0
LINE
8
BLACK
6
CONTINUOUS
10
6.25596
20
-4.65716
11
6.25521
21
-4.66093
0
LINE
8
BLACK
6
CONTINUOUS
10
6.25521
20
-4.66093
11
6.25308
21
-4.66412
0
LINE
8
BLACK
6
CONTINUOUS
10
6.25308
20
-4.66412
11
6.24988
21
-4.66626
0
LINE
8
BLACK
6
CONTINUOUS
10
6.24988
20
-4.66626
11
6.24612
21
-4.667
0
LINE
8
BLACK
6
CONTINUOUS
10
6.24612
20
-4.667
11
6.1969
21
-4.667
0
LINE
8
BLACK
6
CONTINUOUS
10
6.1969
20
-4.667
11
6.19314
21
-4.66626
0
LINE
8
BLACK
6
CONTINUOUS
10
6.19314
20
-4.66626
11
6.18994
21
-4.66412
0
LINE
8
BLACK
6
CONTINUOUS
10
6.18994
20
-4.66412
11
6.18781
21
-4.66093
0
LINE
8
BLACK
6
CONTINUOUS
10
6.18781
20
-4.66093
11
6.18706
21
-4.65716
0
LINE
8
BLACK
6
CONTINUOUS
10
6.18706
20
-4.65716
11
6.18706
21
-4.62763
0
LINE
8
BLACK
6
CONTINUOUS
10
6.18706
20
-4.62763
11
6.18781
21
-4.62387
0
LINE
8
BLACK
6
CONTINUOUS
10
6.18781
20
-4.62387
11
6.18994
21
-4.62068
0
LINE
8
BLACK
6
CONTINUOUS
10
6.18994
20
-4.62068
11
6.19314
21
-4.61854
0
LINE
8
BLACK
6
CONTINUOUS
10
6.19314
20
-4.61854
11
6.1969
21
-4.61779
0
LINE
8
BLACK
6
CONTINUOUS
10
6.1969
20
-4.61779
11
6.24612
21
-4.61779
0
LINE
8
BLACK
6
CONTINUOUS
10
6.24612
20
-4.61779
11
6.24988
21
-4.61854
0
LINE
8
BLACK
6
CONTINUOUS
10
6.05303
20
-4.61854
11
6.05623
21
-4.62068
0
LINE
8
BLACK
6
CONTINUOUS
10
6.05623
20
-4.62068
11
6.05836
21
-4.62387
0
LINE
8
BLACK
6
CONTINUOUS
10
6.05836
20
-4.62387
11
6.05911
21
-4.62763
0
LINE
8
BLACK
6
CONTINUOUS
10
6.05911
20
-4.62763
11
6.05911
21
-4.65716
0
LINE
8
BLACK
6
CONTINUOUS
10
6.05911
20
-4.65716
11
6.05836
21
-4.66093
0
LINE
8
BLACK
6
CONTINUOUS
10
6.05836
20
-4.66093
11
6.05623
21
-4.66412
0
LINE
8
BLACK
6
CONTINUOUS
10
6.05623
20
-4.66412
11
6.05303
21
-4.66626
0
LINE
8
BLACK
6
CONTINUOUS
10
6.05303
20
-4.66626
11
6.04927
21
-4.667
0
LINE
8
BLACK
6
CONTINUOUS
10
6.04927
20
-4.667
11
6.00005
21
-4.667
0
LINE
8
BLACK
6
CONTINUOUS
10
6.00005
20
-4.667
11
5.99629
21
-4.66626
0
LINE
8
BLACK
6
CONTINUOUS
10
5.99629
20
-4.66626
11
5.99309
21
-4.66412
0
LINE
8
BLACK
6
CONTINUOUS
10
5.99309
20
-4.66412
11
5.99096
21
-4.66093
0
LINE
8
BLACK
6
CONTINUOUS
10
5.99096
20
-4.66093
11
5.99021
21
-4.65716
0
LINE
8
BLACK
6
CONTINUOUS
10
5.99021
20
-4.65716
11
5.99021
21
-4.62763
0
LINE
8
BLACK
6
CONTINUOUS
10
5.99021
20
-4.62763
11
5.99096
21
-4.62387
0
LINE
8
BLACK
6
CONTINUOUS
10
5.99096
20
-4.62387
11
5.99309
21
-4.62068
0
LINE
8
BLACK
6
CONTINUOUS
10
5.99309
20
-4.62068
11
5.99629
21
-4.61854
0
LINE
8
BLACK
6
CONTINUOUS
10
5.99629
20
-4.61854
11
6.00005
21
-4.61779
0
LINE
8
BLACK
6
CONTINUOUS
10
6.00005
20
-4.61779
11
6.04927
21
-4.61779
0
LINE
8
BLACK
6
CONTINUOUS
10
6.04927
20
-4.61779
11
6.05303
21
-4.61854
0
LINE
8
BLACK
6
CONTINUOUS
10
6.64358
20
-4.61854
11
6.64678
21
-4.62068
0
LINE
8
BLACK
6
CONTINUOUS
10
6.64678
20
-4.62068
11
6.64891
21
-4.62387
0
LINE
8
BLACK
6
CONTINUOUS
10
6.64891
20
-4.62387
11
6.64966
21
-4.62763
0
LINE
8
BLACK
6
CONTINUOUS
10
6.64966
20
-4.62763
11
6.64966
21
-4.65716
0
LINE
8
BLACK
6
CONTINUOUS
10
6.64966
20
-4.65716
11
6.64891
21
-4.66093
0
LINE
8
BLACK
6
CONTINUOUS
10
6.64891
20
-4.66093
11
6.64678
21
-4.66412
0
LINE
8
BLACK
6
CONTINUOUS
10
6.64678
20
-4.66412
11
6.64358
21
-4.66626
0
LINE
8
BLACK
6
CONTINUOUS
10
6.64358
20
-4.66626
11
6.63982
21
-4.667
0
LINE
8
BLACK
6
CONTINUOUS
10
6.63982
20
-4.667
11
6.5906
21
-4.667
0
LINE
8
BLACK
6
CONTINUOUS
10
6.5906
20
-4.667
11
6.58684
21
-4.66626
0
LINE
8
BLACK
6
CONTINUOUS
10
6.58684
20
-4.66626
11
6.58364
21
-4.66412
0
LINE
8
BLACK
6
CONTINUOUS
10
6.58364
20
-4.66412
11
6.58151
21
-4.66093
0
LINE
8
BLACK
6
CONTINUOUS
10
6.58151
20
-4.66093
11
6.58076
21
-4.65716
0
LINE
8
BLACK
6
CONTINUOUS
10
6.58076
20
-4.65716
11
6.58076
21
-4.62763
0
LINE
8
BLACK
6
CONTINUOUS
10
6.58076
20
-4.62763
11
6.58151
21
-4.62387
0
LINE
8
BLACK
6
CONTINUOUS
10
6.58151
20
-4.62387
11
6.58364
21
-4.62068
0
LINE
8
BLACK
6
CONTINUOUS
10
6.58364
20
-4.62068
11
6.58684
21
-4.61854
0
LINE
8
BLACK
6
CONTINUOUS
10
6.58684
20
-4.61854
11
6.5906
21
-4.61779
0
LINE
8
BLACK
6
CONTINUOUS
10
6.5906
20
-4.61779
11
6.63982
21
-4.61779
0
LINE
8
BLACK
6
CONTINUOUS
10
6.63982
20
-4.61779
11
6.64358
21
-4.61854
0
LINE
8
BLACK
6
CONTINUOUS
10
5.85618
20
-4.61854
11
5.85937
21
-4.62068
0
LINE
8
BLACK
6
CONTINUOUS
10
5.85937
20
-4.62068
11
5.86151
21
-4.62387
0
LINE
8
BLACK
6
CONTINUOUS
10
5.86151
20
-4.62387
11
5.86226
21
-4.62763
0
LINE
8
BLACK
6
CONTINUOUS
10
5.86226
20
-4.62763
11
5.86226
21
-4.65716
0
LINE
8
BLACK
6
CONTINUOUS
10
5.86226
20
-4.65716
11
5.86151
21
-4.66093
0
LINE
8
BLACK
6
CONTINUOUS
10
5.86151
20
-4.66093
11
5.85937
21
-4.66412
0
LINE
8
BLACK
6
CONTINUOUS
10
5.85937
20
-4.66412
11
5.85618
21
-4.66626
0
LINE
8
BLACK
6
CONTINUOUS
10
5.85618
20
-4.66626
11
5.85241
21
-4.667
0
LINE
8
BLACK
6
CONTINUOUS
10
5.85241
20
-4.667
11
5.8032
21
-4.667
0
LINE
8
BLACK
6
CONTINUOUS
10
5.8032
20
-4.667
11
5.79944
21
-4.66626
0
LINE
8
BLACK
6
CONTINUOUS
10
5.79944
20
-4.66626
11
5.79624
21
-4.66412
0
LINE
8
BLACK
6
CONTINUOUS
10
5.79624
20
-4.66412
11
5.79411
21
-4.66093
0
LINE
8
BLACK
6
CONTINUOUS
10
5.79411
20
-4.66093
11
5.79336
21
-4.65716
0
LINE
8
BLACK
6
CONTINUOUS
10
5.79336
20
-4.65716
11
5.79336
21
-4.62763
0
LINE
8
BLACK
6
CONTINUOUS
10
5.79336
20
-4.62763
11
5.79411
21
-4.62387
0
LINE
8
BLACK
6
CONTINUOUS
10
5.79411
20
-4.62387
11
5.79624
21
-4.62068
0
LINE
8
BLACK
6
CONTINUOUS
10
5.79624
20
-4.62068
11
5.79944
21
-4.61854
0
LINE
8
BLACK
6
CONTINUOUS
10
5.79944
20
-4.61854
11
5.8032
21
-4.61779
0
LINE
8
BLACK
6
CONTINUOUS
10
5.8032
20
-4.61779
11
5.85241
21
-4.61779
0
LINE
8
BLACK
6
CONTINUOUS
10
5.85241
20
-4.61779
11
5.85618
21
-4.61854
0
LINE
8
BLACK
6
CONTINUOUS
10
6.44673
20
-4.61854
11
6.44993
21
-4.62068
0
LINE
8
BLACK
6
CONTINUOUS
10
6.44993
20
-4.62068
11
6.45206
21
-4.62387
0
LINE
8
BLACK
6
CONTINUOUS
10
6.45206
20
-4.62387
11
6.45281
21
-4.62763
0
LINE
8
BLACK
6
CONTINUOUS
10
6.45281
20
-4.62763
11
6.45281
21
-4.65716
0
LINE
8
BLACK
6
CONTINUOUS
10
6.45281
20
-4.65716
11
6.45206
21
-4.66093
0
LINE
8
BLACK
6
CONTINUOUS
10
6.45206
20
-4.66093
11
6.44993
21
-4.66412
0
LINE
8
BLACK
6
CONTINUOUS
10
6.44993
20
-4.66412
11
6.44673
21
-4.66626
0
LINE
8
BLACK
6
CONTINUOUS
10
6.44673
20
-4.66626
11
6.44297
21
-4.667
0
LINE
8
BLACK
6
CONTINUOUS
10
6.44297
20
-4.667
11
6.39375
21
-4.667
0
LINE
8
BLACK
6
CONTINUOUS
10
6.39375
20
-4.667
11
6.38999
21
-4.66626
0
LINE
8
BLACK
6
CONTINUOUS
10
6.38999
20
-4.66626
11
6.38679
21
-4.66412
0
LINE
8
BLACK
6
CONTINUOUS
10
6.38679
20
-4.66412
11
6.38466
21
-4.66093
0
LINE
8
BLACK
6
CONTINUOUS
10
6.38466
20
-4.66093
11
6.38391
21
-4.65716
0
LINE
8
BLACK
6
CONTINUOUS
10
6.38391
20
-4.65716
11
6.38391
21
-4.62763
0
LINE
8
BLACK
6
CONTINUOUS
10
6.38391
20
-4.62763
11
6.38466
21
-4.62387
0
LINE
8
BLACK
6
CONTINUOUS
10
6.38466
20
-4.62387
11
6.38679
21
-4.62068
0
LINE
8
BLACK
6
CONTINUOUS
10
6.38679
20
-4.62068
11
6.38999
21
-4.61854
0
LINE
8
BLACK
6
CONTINUOUS
10
6.38999
20
-4.61854
11
6.39375
21
-4.61779
0
LINE
8
BLACK
6
CONTINUOUS
10
6.39375
20
-4.61779
11
6.44297
21
-4.61779
0
LINE
8
BLACK
6
CONTINUOUS
10
6.44297
20
-4.61779
11
6.44673
21
-4.61854
0
LINE
8
BLACK
6
CONTINUOUS
10
7.47332
20
-4.49299
11
7.27647
21
-4.49299
0
LINE
8
BLACK
6
CONTINUOUS
10
7.27647
20
-4.49299
11
7.27647
21
-4.39456
0
LINE
8
BLACK
6
CONTINUOUS
10
7.27647
20
-4.39456
11
7.47332
21
-4.39456
0
LINE
8
BLACK
6
CONTINUOUS
10
7.47332
20
-4.39456
11
7.47332
21
-4.49299
0
LINE
8
BLACK
6
CONTINUOUS
10
6.28434
20
-4.49299
11
6.08749
21
-4.49299
0
LINE
8
BLACK
6
CONTINUOUS
10
6.08749
20
-4.49299
11
6.08749
21
-4.39456
0
LINE
8
BLACK
6
CONTINUOUS
10
6.08749
20
-4.39456
11
6.28434
21
-4.39456
0
LINE
8
BLACK
6
CONTINUOUS
10
6.28434
20
-4.39456
11
6.28434
21
-4.49299
0
LINE
8
BLACK
6
CONTINUOUS
10
6.07962
20
-4.31445
11
6.01663
21
-4.31445
0
LINE
8
BLACK
6
CONTINUOUS
10
6.01663
20
-4.31445
11
6.01663
21
-4.2672
0
LINE
8
BLACK
6
CONTINUOUS
10
6.01663
20
-4.2672
11
6.07962
21
-4.2672
0
LINE
8
BLACK
6
CONTINUOUS
10
6.07962
20
-4.2672
11
6.07962
21
-4.31445
0
LINE
8
BLACK
6
CONTINUOUS
10
5.86708
20
-4.20942
11
5.86964
21
-4.21112
0
LINE
8
BLACK
6
CONTINUOUS
10
5.86964
20
-4.21112
11
5.87134
21
-4.21368
0
LINE
8
BLACK
6
CONTINUOUS
10
5.87134
20
-4.21368
11
5.87194
21
-4.21669
0
LINE
8
BLACK
6
CONTINUOUS
10
5.87194
20
-4.21669
11
5.87194
21
-4.23834
0
LINE
8
BLACK
6
CONTINUOUS
10
5.87194
20
-4.23834
11
5.87134
21
-4.24136
0
LINE
8
BLACK
6
CONTINUOUS
10
5.87134
20
-4.24136
11
5.86964
21
-4.24391
0
LINE
8
BLACK
6
CONTINUOUS
10
5.86964
20
-4.24391
11
5.86708
21
-4.24562
0
LINE
8
BLACK
6
CONTINUOUS
10
5.86708
20
-4.24562
11
5.86407
21
-4.24622
0
LINE
8
BLACK
6
CONTINUOUS
10
5.86407
20
-4.24622
11
5.84832
21
-4.24622
0
LINE
8
BLACK
6
CONTINUOUS
10
5.84832
20
-4.24622
11
5.84531
21
-4.24562
0
LINE
8
BLACK
6
CONTINUOUS
10
5.84531
20
-4.24562
11
5.84275
21
-4.24391
0
LINE
8
BLACK
6
CONTINUOUS
10
5.84275
20
-4.24391
11
5.84105
21
-4.24136
0
LINE
8
BLACK
6
CONTINUOUS
10
5.84105
20
-4.24136
11
5.84045
21
-4.23834
0
LINE
8
BLACK
6
CONTINUOUS
10
5.84045
20
-4.23834
11
5.84045
21
-4.21669
0
LINE
8
BLACK
6
CONTINUOUS
10
5.84045
20
-4.21669
11
5.84105
21
-4.21368
0
LINE
8
BLACK
6
CONTINUOUS
10
5.84105
20
-4.21368
11
5.84275
21
-4.21112
0
LINE
8
BLACK
6
CONTINUOUS
10
5.84275
20
-4.21112
11
5.84531
21
-4.20942
0
LINE
8
BLACK
6
CONTINUOUS
10
5.84531
20
-4.20942
11
5.84832
21
-4.20882
0
LINE
8
BLACK
6
CONTINUOUS
10
5.84832
20
-4.20882
11
5.86407
21
-4.20882
0
LINE
8
BLACK
6
CONTINUOUS
10
5.86407
20
-4.20882
11
5.86708
21
-4.20942
0
LINE
8
BLACK
6
CONTINUOUS
10
5.93204
20
-4.20942
11
5.9346
21
-4.21112
0
LINE
8
BLACK
6
CONTINUOUS
10
5.9346
20
-4.21112
11
5.9363
21
-4.21368
0
LINE
8
BLACK
6
CONTINUOUS
10
5.9363
20
-4.21368
11
5.9369
21
-4.21669
0
LINE
8
BLACK
6
CONTINUOUS
10
5.9369
20
-4.21669
11
5.9369
21
-4.23834
0
LINE
8
BLACK
6
CONTINUOUS
10
5.9369
20
-4.23834
11
5.9363
21
-4.24136
0
LINE
8
BLACK
6
CONTINUOUS
10
5.9363
20
-4.24136
11
5.9346
21
-4.24391
0
LINE
8
BLACK
6
CONTINUOUS
10
5.9346
20
-4.24391
11
5.93204
21
-4.24562
0
LINE
8
BLACK
6
CONTINUOUS
10
5.93204
20
-4.24562
11
5.92903
21
-4.24622
0
LINE
8
BLACK
6
CONTINUOUS
10
5.92903
20
-4.24622
11
5.91328
21
-4.24622
0
LINE
8
BLACK
6
CONTINUOUS
10
5.91328
20
-4.24622
11
5.91027
21
-4.24562
0
LINE
8
BLACK
6
CONTINUOUS
10
5.91027
20
-4.24562
11
5.90771
21
-4.24391
0
LINE
8
BLACK
6
CONTINUOUS
10
5.90771
20
-4.24391
11
5.90601
21
-4.24136
0
LINE
8
BLACK
6
CONTINUOUS
10
5.90601
20
-4.24136
11
5.90541
21
-4.23834
0
LINE
8
BLACK
6
CONTINUOUS
10
5.90541
20
-4.23834
11
5.90541
21
-4.21669
0
LINE
8
BLACK
6
CONTINUOUS
10
5.90541
20
-4.21669
11
5.90601
21
-4.21368
0
LINE
8
BLACK
6
CONTINUOUS
10
5.90601
20
-4.21368
11
5.90771
21
-4.21112
0
LINE
8
BLACK
6
CONTINUOUS
10
5.90771
20
-4.21112
11
5.91027
21
-4.20942
0
LINE
8
BLACK
6
CONTINUOUS
10
5.91027
20
-4.20942
11
5.91328
21
-4.20882
0
LINE
8
BLACK
6
CONTINUOUS
10
5.91328
20
-4.20882
11
5.92903
21
-4.20882
0
LINE
8
BLACK
6
CONTINUOUS
10
5.92903
20
-4.20882
11
5.93204
21
-4.20942
0
LINE
8
BLACK
6
CONTINUOUS
10
6.07962
20
-4.24358
11
6.01663
21
-4.24358
0
LINE
8
BLACK
6
CONTINUOUS
10
6.01663
20
-4.24358
11
6.01663
21
-4.19634
0
LINE
8
BLACK
6
CONTINUOUS
10
6.01663
20
-4.19634
11
6.07962
21
-4.19634
0
LINE
8
BLACK
6
CONTINUOUS
10
6.07962
20
-4.19634
11
6.07962
21
-4.24358
0
LINE
8
BLACK
6
CONTINUOUS
10
5.45348
20
-4.23012
11
5.39348
21
-4.23012
0
LINE
8
BLACK
6
CONTINUOUS
10
5.39348
20
-4.23012
11
5.39348
21
-4.17012
0
LINE
8
BLACK
6
CONTINUOUS
10
5.39348
20
-4.17012
11
5.45348
21
-4.17012
0
LINE
8
BLACK
6
CONTINUOUS
10
5.45348
20
-4.17012
11
5.45348
21
-4.23012
0
LINE
8
BLACK
6
CONTINUOUS
10
5.55348
20
-4.23012
11
5.49348
21
-4.23012
0
LINE
8
BLACK
6
CONTINUOUS
10
5.49348
20
-4.23012
11
5.49348
21
-4.17012
0
LINE
8
BLACK
6
CONTINUOUS
10
5.49348
20
-4.17012
11
5.55348
21
-4.17012
0
LINE
8
BLACK
6
CONTINUOUS
10
5.55348
20
-4.17012
11
5.55348
21
-4.23012
0
LINE
8
BLACK
6
CONTINUOUS
10
6.07962
20
-4.14791
11
6.01663
21
-4.14791
0
LINE
8
BLACK
6
CONTINUOUS
10
6.01663
20
-4.14791
11
6.01663
21
-4.10067
0
LINE
8
BLACK
6
CONTINUOUS
10
6.01663
20
-4.10067
11
6.07962
21
-4.10067
0
LINE
8
BLACK
6
CONTINUOUS
10
6.07962
20
-4.10067
11
6.07962
21
-4.14791
0
LINE
8
BLACK
6
CONTINUOUS
10
5.45348
20
-4.13012
11
5.39348
21
-4.13012
0
LINE
8
BLACK
6
CONTINUOUS
10
5.39348
20
-4.13012
11
5.39348
21
-4.07012
0
LINE
8
BLACK
6
CONTINUOUS
10
5.39348
20
-4.07012
11
5.45348
21
-4.07012
0
LINE
8
BLACK
6
CONTINUOUS
10
5.45348
20
-4.07012
11
5.45348
21
-4.13012
0
LINE
8
BLACK
6
CONTINUOUS
10
5.55348
20
-4.13012
11
5.49348
21
-4.13012
0
LINE
8
BLACK
6
CONTINUOUS
10
5.49348
20
-4.13012
11
5.49348
21
-4.07012
0
LINE
8
BLACK
6
CONTINUOUS
10
5.49348
20
-4.07012
11
5.55348
21
-4.07012
0
LINE
8
BLACK
6
CONTINUOUS
10
5.55348
20
-4.07012
11
5.55348
21
-4.13012
0
LINE
8
BLACK
6
CONTINUOUS
10
5.93204
20
-4.03942
11
5.9346
21
-4.04112
0
LINE
8
BLACK
6
CONTINUOUS
10
5.9346
20
-4.04112
11
5.9363
21
-4.04368
0
LINE
8
BLACK
6
CONTINUOUS
10
5.9363
20
-4.04368
11
5.9369
21
-4.04669
0
LINE
8
BLACK
6
CONTINUOUS
10
5.9369
20
-4.04669
11
5.9369
21
-4.06834
0
LINE
8
BLACK
6
CONTINUOUS
10
5.9369
20
-4.06834
11
5.9363
21
-4.07136
0
LINE
8
BLACK
6
CONTINUOUS
10
5.9363
20
-4.07136
11
5.9346
21
-4.07391
0
LINE
8
BLACK
6
CONTINUOUS
10
5.9346
20
-4.07391
11
5.93204
21
-4.07562
0
LINE
8
BLACK
6
CONTINUOUS
10
5.93204
20
-4.07562
11
5.92903
21
-4.07622
0
LINE
8
BLACK
6
CONTINUOUS
10
5.92903
20
-4.07622
11
5.91328
21
-4.07622
0
LINE
8
BLACK
6
CONTINUOUS
10
5.91328
20
-4.07622
11
5.91027
21
-4.07562
0
LINE
8
BLACK
6
CONTINUOUS
10
5.91027
20
-4.07562
11
5.90771
21
-4.07391
0
LINE
8
BLACK
6
CONTINUOUS
10
5.90771
20
-4.07391
11
5.90601
21
-4.07136
0
LINE
8
BLACK
6
CONTINUOUS
10
5.90601
20
-4.07136
11
5.90541
21
-4.06834
0
LINE
8
BLACK
6
CONTINUOUS
10
5.90541
20
-4.06834
11
5.90541
21
-4.04669
0
LINE
8
BLACK
6
CONTINUOUS
10
5.90541
20
-4.04669
11
5.90601
21
-4.04368
0
LINE
8
BLACK
6
CONTINUOUS
10
5.90601
20
-4.04368
11
5.90771
21
-4.04112
0
LINE
8
BLACK
6
CONTINUOUS
10
5.90771
20
-4.04112
11
5.91027
21
-4.03942
0
LINE
8
BLACK
6
CONTINUOUS
10
5.91027
20
-4.03942
11
5.91328
21
-4.03882
0
LINE
8
BLACK
6
CONTINUOUS
10
5.91328
20
-4.03882
11
5.92903
21
-4.03882
0
LINE
8
BLACK
6
CONTINUOUS
10
5.92903
20
-4.03882
11
5.93204
21
-4.03942
0
LINE
8
BLACK
6
CONTINUOUS
10
5.86708
20
-4.03942
11
5.86964
21
-4.04112
0
LINE
8
BLACK
6
CONTINUOUS
10
5.86964
20
-4.04112
11
5.87134
21
-4.04368
0
LINE
8
BLACK
6
CONTINUOUS
10
5.87134
20
-4.04368
11
5.87194
21
-4.04669
0
LINE
8
BLACK
6
CONTINUOUS
10
5.87194
20
-4.04669
11
5.87194
21
-4.06834
0
LINE
8
BLACK
6
CONTINUOUS
10
5.87194
20
-4.06834
11
5.87134
21
-4.07136
0
LINE
8
BLACK
6
CONTINUOUS
10
5.87134
20
-4.07136
11
5.86964
21
-4.07391
0
LINE
8
BLACK
6
CONTINUOUS
10
5.86964
20
-4.07391
11
5.86708
21
-4.07562
0
LINE
8
BLACK
6
CONTINUOUS
10
5.86708
20
-4.07562
11
5.86407
21
-4.07622
0
LINE
8
BLACK
6
CONTINUOUS
10
5.86407
20
-4.07622
11
5.84832
21
-4.07622
0
LINE
8
BLACK
6
CONTINUOUS
10
5.84832
20
-4.07622
11
5.84531
21
-4.07562
0
LINE
8
BLACK
6
CONTINUOUS
10
5.84531
20
-4.07562
11
5.84275
21
-4.07391
0
LINE
8
BLACK
6
CONTINUOUS
10
5.84275
20
-4.07391
11
5.84105
21
-4.07136
0
LINE
8
BLACK
6
CONTINUOUS
10
5.84105
20
-4.07136
11
5.84045
21
-4.06834
0
LINE
8
BLACK
6
CONTINUOUS
10
5.84045
20
-4.06834
11
5.84045
21
-4.04669
0
LINE
8
BLACK
6
CONTINUOUS
10
5.84045
20
-4.04669
11
5.84105
21
-4.04368
0
LINE
8
BLACK
6
CONTINUOUS
10
5.84105
20
-4.04368
11
5.84275
21
-4.04112
0
LINE
8
BLACK
6
CONTINUOUS
10
5.84275
20
-4.04112
11
5.84531
21
-4.03942
0
LINE
8
BLACK
6
CONTINUOUS
10
5.84531
20
-4.03942
11
5.84832
21
-4.03882
0
LINE
8
BLACK
6
CONTINUOUS
10
5.84832
20
-4.03882
11
5.86407
21
-4.03882
0
LINE
8
BLACK
6
CONTINUOUS
10
5.86407
20
-4.03882
11
5.86708
21
-4.03942
0
LINE
8
BLACK
6
CONTINUOUS
10
6.07962
20
-4.04949
11
6.01663
21
-4.04949
0
LINE
8
BLACK
6
CONTINUOUS
10
6.01663
20
-4.04949
11
6.01663
21
-4.00224
0
LINE
8
BLACK
6
CONTINUOUS
10
6.01663
20
-4.00224
11
6.07962
21
-4.00224
0
LINE
8
BLACK
6
CONTINUOUS
10
6.07962
20
-4.00224
11
6.07962
21
-4.04949
0
LINE
8
BLACK
6
CONTINUOUS
10
5.45348
20
-4.03012
11
5.39348
21
-4.03012
0
LINE
8
BLACK
6
CONTINUOUS
10
5.39348
20
-4.03012
11
5.39348
21
-3.97012
0
LINE
8
BLACK
6
CONTINUOUS
10
5.39348
20
-3.97012
11
5.45348
21
-3.97012
0
LINE
8
BLACK
6
CONTINUOUS
10
5.45348
20
-3.97012
11
5.45348
21
-4.03012
0
LINE
8
BLACK
6
CONTINUOUS
10
5.55348
20
-4.03012
11
5.49348
21
-4.03012
0
LINE
8
BLACK
6
CONTINUOUS
10
5.49348
20
-4.03012
11
5.49348
21
-3.97012
0
LINE
8
BLACK
6
CONTINUOUS
10
5.49348
20
-3.97012
11
5.55348
21
-3.97012
0
LINE
8
BLACK
6
CONTINUOUS
10
5.55348
20
-3.97012
11
5.55348
21
-4.03012
0
LINE
8
BLACK
6
CONTINUOUS
10
5.87041
20
-3.95949
11
5.87329
21
-3.96141
0
LINE
8
BLACK
6
CONTINUOUS
10
5.87329
20
-3.96141
11
5.87521
21
-3.96428
0
LINE
8
BLACK
6
CONTINUOUS
10
5.87521
20
-3.96428
11
5.87588
21
-3.96767
0
LINE
8
BLACK
6
CONTINUOUS
10
5.87588
20
-3.96767
11
5.87588
21
-3.98736
0
LINE
8
BLACK
6
CONTINUOUS
10
5.87588
20
-3.98736
11
5.87521
21
-3.99075
0
LINE
8
BLACK
6
CONTINUOUS
10
5.87521
20
-3.99075
11
5.87329
21
-3.99362
0
LINE
8
BLACK
6
CONTINUOUS
10
5.87329
20
-3.99362
11
5.87041
21
-3.99554
0
LINE
8
BLACK
6
CONTINUOUS
10
5.87041
20
-3.99554
11
5.86702
21
-3.99622
0
LINE
8
BLACK
6
CONTINUOUS
10
5.86702
20
-3.99622
11
5.8493
21
-3.99622
0
LINE
8
BLACK
6
CONTINUOUS
10
5.8493
20
-3.99622
11
5.84591
21
-3.99554
0
LINE
8
BLACK
6
CONTINUOUS
10
5.84591
20
-3.99554
11
5.84304
21
-3.99362
0
LINE
8
BLACK
6
CONTINUOUS
10
5.84304
20
-3.99362
11
5.84112
21
-3.99075
0
LINE
8
BLACK
6
CONTINUOUS
10
5.84112
20
-3.99075
11
5.84045
21
-3.98736
0
LINE
8
BLACK
6
CONTINUOUS
10
5.84045
20
-3.98736
11
5.84045
21
-3.96767
0
LINE
8
BLACK
6
CONTINUOUS
10
5.84045
20
-3.96767
11
5.84112
21
-3.96428
0
LINE
8
BLACK
6
CONTINUOUS
10
5.84112
20
-3.96428
11
5.84304
21
-3.96141
0
LINE
8
BLACK
6
CONTINUOUS
10
5.84304
20
-3.96141
11
5.84591
21
-3.95949
0
LINE
8
BLACK
6
CONTINUOUS
10
5.84591
20
-3.95949
11
5.8493
21
-3.95882
0
LINE
8
BLACK
6
CONTINUOUS
10
5.8493
20
-3.95882
11
5.86702
21
-3.95882
0
LINE
8
BLACK
6
CONTINUOUS
10
5.86702
20
-3.95882
11
5.87041
21
-3.95949
0
LINE
8
BLACK
6
CONTINUOUS
10
5.93143
20
-3.95949
11
5.93431
21
-3.96141
0
LINE
8
BLACK
6
CONTINUOUS
10
5.93431
20
-3.96141
11
5.93623
21
-3.96428
0
LINE
8
BLACK
6
CONTINUOUS
10
5.93623
20
-3.96428
11
5.9369
21
-3.96767
0
LINE
8
BLACK
6
CONTINUOUS
10
5.9369
20
-3.96767
11
5.9369
21
-3.98736
0
LINE
8
BLACK
6
CONTINUOUS
10
5.9369
20
-3.98736
11
5.93623
21
-3.99075
0
LINE
8
BLACK
6
CONTINUOUS
10
5.93623
20
-3.99075
11
5.93431
21
-3.99362
0
LINE
8
BLACK
6
CONTINUOUS
10
5.93431
20
-3.99362
11
5.93143
21
-3.99554
0
LINE
8
BLACK
6
CONTINUOUS
10
5.93143
20
-3.99554
11
5.92804
21
-3.99622
0
LINE
8
BLACK
6
CONTINUOUS
10
5.92804
20
-3.99622
11
5.91033
21
-3.99622
0
LINE
8
BLACK
6
CONTINUOUS
10
5.91033
20
-3.99622
11
5.90694
21
-3.99554
0
LINE
8
BLACK
6
CONTINUOUS
10
5.90694
20
-3.99554
11
5.90406
21
-3.99362
0
LINE
8
BLACK
6
CONTINUOUS
10
5.90406
20
-3.99362
11
5.90214
21
-3.99075
0
LINE
8
BLACK
6
CONTINUOUS
10
5.90214
20
-3.99075
11
5.90147
21
-3.98736
0
LINE
8
BLACK
6
CONTINUOUS
10
5.90147
20
-3.98736
11
5.90147
21
-3.96767
0
LINE
8
BLACK
6
CONTINUOUS
10
5.90147
20
-3.96767
11
5.90214
21
-3.96428
0
LINE
8
BLACK
6
CONTINUOUS
10
5.90214
20
-3.96428
11
5.90406
21
-3.96141
0
LINE
8
BLACK
6
CONTINUOUS
10
5.90406
20
-3.96141
11
5.90694
21
-3.95949
0
LINE
8
BLACK
6
CONTINUOUS
10
5.90694
20
-3.95949
11
5.91033
21
-3.95882
0
LINE
8
BLACK
6
CONTINUOUS
10
5.91033
20
-3.95882
11
5.92804
21
-3.95882
0
LINE
8
BLACK
6
CONTINUOUS
10
5.92804
20
-3.95882
11
5.93143
21
-3.95949
0
LINE
8
BLACK
6
CONTINUOUS
10
6.07962
20
-3.95106
11
6.01663
21
-3.95106
0
LINE
8
BLACK
6
CONTINUOUS
10
6.01663
20
-3.95106
11
6.01663
21
-3.90382
0
LINE
8
BLACK
6
CONTINUOUS
10
6.01663
20
-3.90382
11
6.07962
21
-3.90382
0
LINE
8
BLACK
6
CONTINUOUS
10
6.07962
20
-3.90382
11
6.07962
21
-3.95106
0
LINE
8
BLACK
6
CONTINUOUS
10
5.87041
20
-3.87949
11
5.87329
21
-3.88141
0
LINE
8
BLACK
6
CONTINUOUS
10
5.87329
20
-3.88141
11
5.87521
21
-3.88428
0
LINE
8
BLACK
6
CONTINUOUS
10
5.87521
20
-3.88428
11
5.87588
21
-3.88767
0
LINE
8
BLACK
6
CONTINUOUS
10
5.87588
20
-3.88767
11
5.87588
21
-3.90736
0
LINE
8
BLACK
6
CONTINUOUS
10
5.87588
20
-3.90736
11
5.87521
21
-3.91075
0
LINE
8
BLACK
6
CONTINUOUS
10
5.87521
20
-3.91075
11
5.87329
21
-3.91362
0
LINE
8
BLACK
6
CONTINUOUS
10
5.87329
20
-3.91362
11
5.87041
21
-3.91554
0
LINE
8
BLACK
6
CONTINUOUS
10
5.87041
20
-3.91554
11
5.86702
21
-3.91622
0
LINE
8
BLACK
6
CONTINUOUS
10
5.86702
20
-3.91622
11
5.8493
21
-3.91622
0
LINE
8
BLACK
6
CONTINUOUS
10
5.8493
20
-3.91622
11
5.84591
21
-3.91554
0
LINE
8
BLACK
6
CONTINUOUS
10
5.84591
20
-3.91554
11
5.84304
21
-3.91362
0
LINE
8
BLACK
6
CONTINUOUS
10
5.84304
20
-3.91362
11
5.84112
21
-3.91075
0
LINE
8
BLACK
6
CONTINUOUS
10
5.84112
20
-3.91075
11
5.84045
21
-3.90736
0
LINE
8
BLACK
6
CONTINUOUS
10
5.84045
20
-3.90736
11
5.84045
21
-3.88767
0
LINE
8
BLACK
6
CONTINUOUS
10
5.84045
20
-3.88767
11
5.84112
21
-3.88428
0
LINE
8
BLACK
6
CONTINUOUS
10
5.84112
20
-3.88428
11
5.84304
21
-3.88141
0
LINE
8
BLACK
6
CONTINUOUS
10
5.84304
20
-3.88141
11
5.84591
21
-3.87949
0
LINE
8
BLACK
6
CONTINUOUS
10
5.84591
20
-3.87949
11
5.8493
21
-3.87882
0
LINE
8
BLACK
6
CONTINUOUS
10
5.8493
20
-3.87882
11
5.86702
21
-3.87882
0
LINE
8
BLACK
6
CONTINUOUS
10
5.86702
20
-3.87882
11
5.87041
21
-3.87949
0
LINE
8
BLACK
6
CONTINUOUS
10
5.93143
20
-3.87949
11
5.93431
21
-3.88141
0
LINE
8
BLACK
6
CONTINUOUS
10
5.93431
20
-3.88141
11
5.93623
21
-3.88428
0
LINE
8
BLACK
6
CONTINUOUS
10
5.93623
20
-3.88428
11
5.9369
21
-3.88767
0
LINE
8
BLACK
6
CONTINUOUS
10
5.9369
20
-3.88767
11
5.9369
21
-3.90736
0
LINE
8
BLACK
6
CONTINUOUS
10
5.9369
20
-3.90736
11
5.93623
21
-3.91075
0
LINE
8
BLACK
6
CONTINUOUS
10
5.93623
20
-3.91075
11
5.93431
21
-3.91362
0
LINE
8
BLACK
6
CONTINUOUS
10
5.93431
20
-3.91362
11
5.93143
21
-3.91554
0
LINE
8
BLACK
6
CONTINUOUS
10
5.93143
20
-3.91554
11
5.92804
21
-3.91622
0
LINE
8
BLACK
6
CONTINUOUS
10
5.92804
20
-3.91622
11
5.91033
21
-3.91622
0
LINE
8
BLACK
6
CONTINUOUS
10
5.91033
20
-3.91622
11
5.90694
21
-3.91554
0
LINE
8
BLACK
6
CONTINUOUS
10
5.90694
20
-3.91554
11
5.90406
21
-3.91362
0
LINE
8
BLACK
6
CONTINUOUS
10
5.90406
20
-3.91362
11
5.90214
21
-3.91075
0
LINE
8
BLACK
6
CONTINUOUS
10
5.90214
20
-3.91075
11
5.90147
21
-3.90736
0
LINE
8
BLACK
6
CONTINUOUS
10
5.90147
20
-3.90736
11
5.90147
21
-3.88767
0
LINE
8
BLACK
6
CONTINUOUS
10
5.90147
20
-3.88767
11
5.90214
21
-3.88428
0
LINE
8
BLACK
6
CONTINUOUS
10
5.90214
20
-3.88428
11
5.90406
21
-3.88141
0
LINE
8
BLACK
6
CONTINUOUS
10
5.90406
20
-3.88141
11
5.90694
21
-3.87949
0
LINE
8
BLACK
6
CONTINUOUS
10
5.90694
20
-3.87949
11
5.91033
21
-3.87882
0
LINE
8
BLACK
6
CONTINUOUS
10
5.91033
20
-3.87882
11
5.92804
21
-3.87882
0
LINE
8
BLACK
6
CONTINUOUS
10
5.92804
20
-3.87882
11
5.93143
21
-3.87949
0
LINE
8
BLACK
6
CONTINUOUS
10
6.07962
20
-3.85263
11
6.01663
21
-3.85263
0
LINE
8
BLACK
6
CONTINUOUS
10
6.01663
20
-3.85263
11
6.01663
21
-3.80539
0
LINE
8
BLACK
6
CONTINUOUS
10
6.01663
20
-3.80539
11
6.07962
21
-3.80539
0
LINE
8
BLACK
6
CONTINUOUS
10
6.07962
20
-3.80539
11
6.07962
21
-3.85263
0
LINE
8
BLACK
6
CONTINUOUS
10
5.86708
20
-3.71942
11
5.86964
21
-3.72112
0
LINE
8
BLACK
6
CONTINUOUS
10
5.86964
20
-3.72112
11
5.87134
21
-3.72368
0
LINE
8
BLACK
6
CONTINUOUS
10
5.87134
20
-3.72368
11
5.87194
21
-3.72669
0
LINE
8
BLACK
6
CONTINUOUS
10
5.87194
20
-3.72669
11
5.87194
21
-3.74834
0
LINE
8
BLACK
6
CONTINUOUS
10
5.87194
20
-3.74834
11
5.87134
21
-3.75136
0
LINE
8
BLACK
6
CONTINUOUS
10
5.87134
20
-3.75136
11
5.86964
21
-3.75391
0
LINE
8
BLACK
6
CONTINUOUS
10
5.86964
20
-3.75391
11
5.86708
21
-3.75562
0
LINE
8
BLACK
6
CONTINUOUS
10
5.86708
20
-3.75562
11
5.86407
21
-3.75622
0
LINE
8
BLACK
6
CONTINUOUS
10
5.86407
20
-3.75622
11
5.84832
21
-3.75622
0
LINE
8
BLACK
6
CONTINUOUS
10
5.84832
20
-3.75622
11
5.84531
21
-3.75562
0
LINE
8
BLACK
6
CONTINUOUS
10
5.84531
20
-3.75562
11
5.84275
21
-3.75391
0
LINE
8
BLACK
6
CONTINUOUS
10
5.84275
20
-3.75391
11
5.84105
21
-3.75136
0
LINE
8
BLACK
6
CONTINUOUS
10
5.84105
20
-3.75136
11
5.84045
21
-3.74834
0
LINE
8
BLACK
6
CONTINUOUS
10
5.84045
20
-3.74834
11
5.84045
21
-3.72669
0
LINE
8
BLACK
6
CONTINUOUS
10
5.84045
20
-3.72669
11
5.84105
21
-3.72368
0
LINE
8
BLACK
6
CONTINUOUS
10
5.84105
20
-3.72368
11
5.84275
21
-3.72112
0
LINE
8
BLACK
6
CONTINUOUS
10
5.84275
20
-3.72112
11
5.84531
21
-3.71942
0
LINE
8
BLACK
6
CONTINUOUS
10
5.84531
20
-3.71942
11
5.84832
21
-3.71882
0
LINE
8
BLACK
6
CONTINUOUS
10
5.84832
20
-3.71882
11
5.86407
21
-3.71882
0
LINE
8
BLACK
6
CONTINUOUS
10
5.86407
20
-3.71882
11
5.86708
21
-3.71942
0
LINE
8
BLACK
6
CONTINUOUS
10
5.93204
20
-3.71942
11
5.9346
21
-3.72112
0
LINE
8
BLACK
6
CONTINUOUS
10
5.9346
20
-3.72112
11
5.9363
21
-3.72368
0
LINE
8
BLACK
6
CONTINUOUS
10
5.9363
20
-3.72368
11
5.9369
21
-3.72669
0
LINE
8
BLACK
6
CONTINUOUS
10
5.9369
20
-3.72669
11
5.9369
21
-3.74834
0
LINE
8
BLACK
6
CONTINUOUS
10
5.9369
20
-3.74834
11
5.9363
21
-3.75136
0
LINE
8
BLACK
6
CONTINUOUS
10
5.9363
20
-3.75136
11
5.9346
21
-3.75391
0
LINE
8
BLACK
6
CONTINUOUS
10
5.9346
20
-3.75391
11
5.93204
21
-3.75562
0
LINE
8
BLACK
6
CONTINUOUS
10
5.93204
20
-3.75562
11
5.92903
21
-3.75622
0
LINE
8
BLACK
6
CONTINUOUS
10
5.92903
20
-3.75622
11
5.91328
21
-3.75622
0
LINE
8
BLACK
6
CONTINUOUS
10
5.91328
20
-3.75622
11
5.91027
21
-3.75562
0
LINE
8
BLACK
6
CONTINUOUS
10
5.91027
20
-3.75562
11
5.90771
21
-3.75391
0
LINE
8
BLACK
6
CONTINUOUS
10
5.90771
20
-3.75391
11
5.90601
21
-3.75136
0
LINE
8
BLACK
6
CONTINUOUS
10
5.90601
20
-3.75136
11
5.90541
21
-3.74834
0
LINE
8
BLACK
6
CONTINUOUS
10
5.90541
20
-3.74834
11
5.90541
21
-3.72669
0
LINE
8
BLACK
6
CONTINUOUS
10
5.90541
20
-3.72669
11
5.90601
21
-3.72368
0
LINE
8
BLACK
6
CONTINUOUS
10
5.90601
20
-3.72368
11
5.90771
21
-3.72112
0
LINE
8
BLACK
6
CONTINUOUS
10
5.90771
20
-3.72112
11
5.91027
21
-3.71942
0
LINE
8
BLACK
6
CONTINUOUS
10
5.91027
20
-3.71942
11
5.91328
21
-3.71882
0
LINE
8
BLACK
6
CONTINUOUS
10
5.91328
20
-3.71882
11
5.92903
21
-3.71882
0
LINE
8
BLACK
6
CONTINUOUS
10
5.92903
20
-3.71882
11
5.93204
21
-3.71942
0
LINE
8
BLACK
6
CONTINUOUS
10
6.07962
20
-3.75421
11
6.01663
21
-3.75421
0
LINE
8
BLACK
6
CONTINUOUS
10
6.01663
20
-3.75421
11
6.01663
21
-3.70697
0
LINE
8
BLACK
6
CONTINUOUS
10
6.01663
20
-3.70697
11
6.07962
21
-3.70697
0
LINE
8
BLACK
6
CONTINUOUS
10
6.07962
20
-3.70697
11
6.07962
21
-3.75421
0
LINE
8
BLACK
6
CONTINUOUS
10
5.92708
20
-3.61942
11
5.92964
21
-3.62112
0
LINE
8
BLACK
6
CONTINUOUS
10
5.92964
20
-3.62112
11
5.93134
21
-3.62368
0
LINE
8
BLACK
6
CONTINUOUS
10
5.93134
20
-3.62368
11
5.93194
21
-3.62669
0
LINE
8
BLACK
6
CONTINUOUS
10
5.93194
20
-3.62669
11
5.93194
21
-3.64834
0
LINE
8
BLACK
6
CONTINUOUS
10
5.93194
20
-3.64834
11
5.93134
21
-3.65136
0
LINE
8
BLACK
6
CONTINUOUS
10
5.93134
20
-3.65136
11
5.92964
21
-3.65391
0
LINE
8
BLACK
6
CONTINUOUS
10
5.92964
20
-3.65391
11
5.92708
21
-3.65562
0
LINE
8
BLACK
6
CONTINUOUS
10
5.92708
20
-3.65562
11
5.92407
21
-3.65622
0
LINE
8
BLACK
6
CONTINUOUS
10
5.92407
20
-3.65622
11
5.90832
21
-3.65622
0
LINE
8
BLACK
6
CONTINUOUS
10
5.90832
20
-3.65622
11
5.90531
21
-3.65562
0
LINE
8
BLACK
6
CONTINUOUS
10
5.90531
20
-3.65562
11
5.90275
21
-3.65391
0
LINE
8
BLACK
6
CONTINUOUS
10
5.90275
20
-3.65391
11
5.90105
21
-3.65136
0
LINE
8
BLACK
6
CONTINUOUS
10
5.90105
20
-3.65136
11
5.90045
21
-3.64834
0
LINE
8
BLACK
6
CONTINUOUS
10
5.90045
20
-3.64834
11
5.90045
21
-3.62669
0
LINE
8
BLACK
6
CONTINUOUS
10
5.90045
20
-3.62669
11
5.90105
21
-3.62368
0
LINE
8
BLACK
6
CONTINUOUS
10
5.90105
20
-3.62368
11
5.90275
21
-3.62112
0
LINE
8
BLACK
6
CONTINUOUS
10
5.90275
20
-3.62112
11
5.90531
21
-3.61942
0
LINE
8
BLACK
6
CONTINUOUS
10
5.90531
20
-3.61942
11
5.90832
21
-3.61882
0
LINE
8
BLACK
6
CONTINUOUS
10
5.90832
20
-3.61882
11
5.92407
21
-3.61882
0
LINE
8
BLACK
6
CONTINUOUS
10
5.92407
20
-3.61882
11
5.92708
21
-3.61942
0
LINE
8
BLACK
6
CONTINUOUS
10
5.99204
20
-3.61942
11
5.9946
21
-3.62112
0
LINE
8
BLACK
6
CONTINUOUS
10
5.9946
20
-3.62112
11
5.9963
21
-3.62368
0
LINE
8
BLACK
6
CONTINUOUS
10
5.9963
20
-3.62368
11
5.9969
21
-3.62669
0
LINE
8
BLACK
6
CONTINUOUS
10
5.9969
20
-3.62669
11
5.9969
21
-3.64834
0
LINE
8
BLACK
6
CONTINUOUS
10
5.9969
20
-3.64834
11
5.9963
21
-3.65136
0
LINE
8
BLACK
6
CONTINUOUS
10
5.9963
20
-3.65136
11
5.9946
21
-3.65391
0
LINE
8
BLACK
6
CONTINUOUS
10
5.9946
20
-3.65391
11
5.99204
21
-3.65562
0
LINE
8
BLACK
6
CONTINUOUS
10
5.99204
20
-3.65562
11
5.98903
21
-3.65622
0
LINE
8
BLACK
6
CONTINUOUS
10
5.98903
20
-3.65622
11
5.97328
21
-3.65622
0
LINE
8
BLACK
6
CONTINUOUS
10
5.97328
20
-3.65622
11
5.97027
21
-3.65562
0
LINE
8
BLACK
6
CONTINUOUS
10
5.97027
20
-3.65562
11
5.96771
21
-3.65391
0
LINE
8
BLACK
6
CONTINUOUS
10
5.96771
20
-3.65391
11
5.96601
21
-3.65136
0
LINE
8
BLACK
6
CONTINUOUS
10
5.96601
20
-3.65136
11
5.96541
21
-3.64834
0
LINE
8
BLACK
6
CONTINUOUS
10
5.96541
20
-3.64834
11
5.96541
21
-3.62669
0
LINE
8
BLACK
6
CONTINUOUS
10
5.96541
20
-3.62669
11
5.96601
21
-3.62368
0
LINE
8
BLACK
6
CONTINUOUS
10
5.96601
20
-3.62368
11
5.96771
21
-3.62112
0
LINE
8
BLACK
6
CONTINUOUS
10
5.96771
20
-3.62112
11
5.97027
21
-3.61942
0
LINE
8
BLACK
6
CONTINUOUS
10
5.97027
20
-3.61942
11
5.97328
21
-3.61882
0
LINE
8
BLACK
6
CONTINUOUS
10
5.97328
20
-3.61882
11
5.98903
21
-3.61882
0
LINE
8
BLACK
6
CONTINUOUS
10
5.98903
20
-3.61882
11
5.99204
21
-3.61942
0
LINE
8
BLACK
6
CONTINUOUS
10
6.07962
20
-3.65578
11
6.01663
21
-3.65578
0
LINE
8
BLACK
6
CONTINUOUS
10
6.01663
20
-3.65578
11
6.01663
21
-3.60854
0
LINE
8
BLACK
6
CONTINUOUS
10
6.01663
20
-3.60854
11
6.07962
21
-3.60854
0
LINE
8
BLACK
6
CONTINUOUS
10
6.07962
20
-3.60854
11
6.07962
21
-3.65578
0
LINE
8
BLACK
6
CONTINUOUS
10
6.07962
20
-3.55736
11
6.01663
21
-3.55736
0
LINE
8
BLACK
6
CONTINUOUS
10
6.01663
20
-3.55736
11
6.01663
21
-3.51012
0
LINE
8
BLACK
6
CONTINUOUS
10
6.01663
20
-3.51012
11
6.07962
21
-3.51012
0
LINE
8
BLACK
6
CONTINUOUS
10
6.07962
20
-3.51012
11
6.07962
21
-3.55736
0
LINE
8
BLACK
6
CONTINUOUS
10
6.28434
20
-3.29417
11
6.08749
21
-3.29417
0
LINE
8
BLACK
6
CONTINUOUS
10
6.08749
20
-3.29417
11
6.08749
21
-3.19575
0
LINE
8
BLACK
6
CONTINUOUS
10
6.08749
20
-3.19575
11
6.28434
21
-3.19575
0
LINE
8
BLACK
6
CONTINUOUS
10
6.28434
20
-3.19575
11
6.28434
21
-3.29417
0
LINE
8
BLACK
6
CONTINUOUS
10
7.2371
20
-3.29417
11
7.04025
21
-3.29417
0
LINE
8
BLACK
6
CONTINUOUS
10
7.04025
20
-3.29417
11
7.04025
21
-3.19575
0
LINE
8
BLACK
6
CONTINUOUS
10
7.04025
20
-3.19575
11
7.2371
21
-3.19575
0
LINE
8
BLACK
6
CONTINUOUS
10
7.2371
20
-3.19575
11
7.2371
21
-3.29417
0
LINE
8
BLACK
6
CONTINUOUS
10
5.83875
20
-3.20752
11
5.76867
21
-3.20752
0
LINE
8
BLACK
6
CONTINUOUS
10
5.76867
20
-3.20752
11
5.76867
21
-3.00752
0
LINE
8
BLACK
6
CONTINUOUS
10
5.76867
20
-3.00752
11
5.83875
21
-3.00752
0
LINE
8
BLACK
6
CONTINUOUS
10
5.83875
20
-3.00752
11
5.83875
21
-3.20752
0
LINE
8
BLACK
6
CONTINUOUS
10
5.46867
20
-3.20752
11
5.3986
21
-3.20752
0
LINE
8
BLACK
6
CONTINUOUS
10
5.3986
20
-3.20752
11
5.3986
21
-3.00752
0
LINE
8
BLACK
6
CONTINUOUS
10
5.3986
20
-3.00752
11
5.46867
21
-3.00752
0
LINE
8
BLACK
6
CONTINUOUS
10
5.46867
20
-3.00752
11
5.46867
21
-3.20752
0
LINE
8
BLACK
6
CONTINUOUS
10
5.69663
20
-3.18547
11
5.54072
21
-3.18547
0
LINE
8
BLACK
6
CONTINUOUS
10
5.54072
20
-3.18547
11
5.54072
21
-3.02956
0
LINE
8
BLACK
6
CONTINUOUS
10
5.54072
20
-3.02956
11
5.69663
21
-3.02956
0
LINE
8
BLACK
6
CONTINUOUS
10
5.69663
20
-3.02956
11
5.69663
21
-3.18547
0
LINE
8
BLACK
6
CONTINUOUS
10
6.64358
20
-3.12878
11
6.64678
21
-3.13091
0
LINE
8
BLACK
6
CONTINUOUS
10
6.64678
20
-3.13091
11
6.64891
21
-3.1341
0
LINE
8
BLACK
6
CONTINUOUS
10
6.64891
20
-3.1341
11
6.64966
21
-3.13787
0
LINE
8
BLACK
6
CONTINUOUS
10
6.64966
20
-3.13787
11
6.64966
21
-3.1674
0
LINE
8
BLACK
6
CONTINUOUS
10
6.64966
20
-3.1674
11
6.64891
21
-3.17117
0
LINE
8
BLACK
6
CONTINUOUS
10
6.64891
20
-3.17117
11
6.64678
21
-3.17436
0
LINE
8
BLACK
6
CONTINUOUS
10
6.64678
20
-3.17436
11
6.64358
21
-3.17649
0
LINE
8
BLACK
6
CONTINUOUS
10
6.64358
20
-3.17649
11
6.63982
21
-3.17724
0
LINE
8
BLACK
6
CONTINUOUS
10
6.63982
20
-3.17724
11
6.5906
21
-3.17724
0
LINE
8
BLACK
6
CONTINUOUS
10
6.5906
20
-3.17724
11
6.58684
21
-3.17649
0
LINE
8
BLACK
6
CONTINUOUS
10
6.58684
20
-3.17649
11
6.58364
21
-3.17436
0
LINE
8
BLACK
6
CONTINUOUS
10
6.58364
20
-3.17436
11
6.58151
21
-3.17117
0
LINE
8
BLACK
6
CONTINUOUS
10
6.58151
20
-3.17117
11
6.58076
21
-3.1674
0
LINE
8
BLACK
6
CONTINUOUS
10
6.58076
20
-3.1674
11
6.58076
21
-3.13787
0
LINE
8
BLACK
6
CONTINUOUS
10
6.58076
20
-3.13787
11
6.58151
21
-3.1341
0
LINE
8
BLACK
6
CONTINUOUS
10
6.58151
20
-3.1341
11
6.58364
21
-3.13091
0
LINE
8
BLACK
6
CONTINUOUS
10
6.58364
20
-3.13091
11
6.58684
21
-3.12878
0
LINE
8
BLACK
6
CONTINUOUS
10
6.58684
20
-3.12878
11
6.5906
21
-3.12803
0
LINE
8
BLACK
6
CONTINUOUS
10
6.5906
20
-3.12803
11
6.63982
21
-3.12803
0
LINE
8
BLACK
6
CONTINUOUS
10
6.63982
20
-3.12803
11
6.64358
21
-3.12878
0
LINE
8
BLACK
6
CONTINUOUS
10
6.64358
20
-3.01854
11
6.64678
21
-3.02068
0
LINE
8
BLACK
6
CONTINUOUS
10
6.64678
20
-3.02068
11
6.64891
21
-3.02387
0
LINE
8
BLACK
6
CONTINUOUS
10
6.64891
20
-3.02387
11
6.64966
21
-3.02763
0
LINE
8
BLACK
6
CONTINUOUS
10
6.64966
20
-3.02763
11
6.64966
21
-3.05716
0
LINE
8
BLACK
6
CONTINUOUS
10
6.64966
20
-3.05716
11
6.64891
21
-3.06093
0
LINE
8
BLACK
6
CONTINUOUS
10
6.64891
20
-3.06093
11
6.64678
21
-3.06412
0
LINE
8
BLACK
6
CONTINUOUS
10
6.64678
20
-3.06412
11
6.64358
21
-3.06626
0
LINE
8
BLACK
6
CONTINUOUS
10
6.64358
20
-3.06626
11
6.63982
21
-3.067
0
LINE
8
BLACK
6
CONTINUOUS
10
6.63982
20
-3.067
11
6.5906
21
-3.067
0
LINE
8
BLACK
6
CONTINUOUS
10
6.5906
20
-3.067
11
6.58684
21
-3.06626
0
LINE
8
BLACK
6
CONTINUOUS
10
6.58684
20
-3.06626
11
6.58364
21
-3.06412
0
LINE
8
BLACK
6
CONTINUOUS
10
6.58364
20
-3.06412
11
6.58151
21
-3.06093
0
LINE
8
BLACK
6
CONTINUOUS
10
6.58151
20
-3.06093
11
6.58076
21
-3.05716
0
LINE
8
BLACK
6
CONTINUOUS
10
6.58076
20
-3.05716
11
6.58076
21
-3.02763
0
LINE
8
BLACK
6
CONTINUOUS
10
6.58076
20
-3.02763
11
6.58151
21
-3.02387
0
LINE
8
BLACK
6
CONTINUOUS
10
6.58151
20
-3.02387
11
6.58364
21
-3.02068
0
LINE
8
BLACK
6
CONTINUOUS
10
6.58364
20
-3.02068
11
6.58684
21
-3.01854
0
LINE
8
BLACK
6
CONTINUOUS
10
6.58684
20
-3.01854
11
6.5906
21
-3.01779
0
LINE
8
BLACK
6
CONTINUOUS
10
6.5906
20
-3.01779
11
6.63982
21
-3.01779
0
LINE
8
BLACK
6
CONTINUOUS
10
6.63982
20
-3.01779
11
6.64358
21
-3.01854
  0
ENDSEC
  0
EOF
