  0
SECTION
  2
HEADER
  9
$ANGBASE
  50
0.0
  9
$ANGDIR
  70
1
  9
$MEASUREMENT
  70
0
  0
ENDSEC
  0
SECTION
  2
TABLES
  0
TABLE
  2
LTYPE
  70
4
  0
LTYPE
  5
40F
  2
CONTINUOUS
  70
0
  3
Solid line
  72
65
  73
0
  40
0.0
  0
LTYPE
  5
410
  2
DASHDOT
 70
0
  3
Dash Dot ____ _ ____ _
 72
65
 73
4
 40
2.0
 49
1.25
 49
-0.25
 49
0.25
 49
-0.25
  0
LTYPE
  5
411
  2
DASHED
 70
0
  3
Dashed __ __ __ __ __
 72
65
 73
2
 40
0.75
 49
0.5
 49
-0.25
  0
LTYPE
  5
43B
  2
DOTTED
 70
0
  3
Dotted .  .  .  .
 72
65
 73
2
 40
0.2
 49
0.0
 49
-0.2
  0
ENDTAB
  0
TABLE
  2
STYLE
  70
4
  0
STYLE
  2
KICAD
  70
0
  40
0
  41
1
  42
1
  50
0
  71
0
  3
isocp.shx
  0
STYLE
  2
KICADB
  70
0
  40
0
  41
1
  42
1
  50
0
  71
0
  3
isocp.shx
  0
STYLE
  2
KICADI
  70
0
  40
0
  41
1
  42
1
  50
15
  71
0
  3
isocp.shx
  0
STYLE
  2
KICADBI
  70
0
  40
0
  41
1
  42
1
  50
15
  71
0
  3
isocp.shx
  0
ENDTAB
  0
TABLE
  2
LAYER
  70
1
  0
LAYER
  2
BLACK
  70
0
  62
7
  6
CONTINUOUS
  0
ENDTAB
  0
ENDSEC
  0
SECTION
  2
ENTITIES
0
LINE
8
BLACK
6
CONTINUOUS
10
7.47927
20
-2.90377
11
7.47989
21
-2.90377
0
LINE
8
BLACK
6
CONTINUOUS
10
7.47989
20
-2.90377
11
7.4804
21
-2.90414
0
LINE
8
BLACK
6
CONTINUOUS
10
7.4804
20
-2.90414
11
7.48099
21
-2.90433
0
LINE
8
BLACK
6
CONTINUOUS
10
7.48099
20
-2.90433
11
7.48136
21
-2.90484
0
LINE
8
BLACK
6
CONTINUOUS
10
7.48136
20
-2.90484
11
7.48186
21
-2.9052
0
LINE
8
BLACK
6
CONTINUOUS
10
7.48186
20
-2.9052
11
7.48205
21
-2.9058
0
LINE
8
BLACK
6
CONTINUOUS
10
7.48205
20
-2.9058
11
7.48242
21
-2.9063
0
LINE
8
BLACK
6
CONTINUOUS
10
7.48242
20
-2.9063
11
7.48242
21
-2.90692
0
LINE
8
BLACK
6
CONTINUOUS
10
7.48242
20
-2.90692
11
7.48261
21
-2.90752
0
LINE
8
BLACK
6
CONTINUOUS
10
7.48261
20
-2.90752
11
7.48261
21
-4.88752
0
LINE
8
BLACK
6
CONTINUOUS
10
7.48261
20
-4.88752
11
7.48242
21
-4.88811
0
LINE
8
BLACK
6
CONTINUOUS
10
7.48242
20
-4.88811
11
7.48242
21
-4.88873
0
LINE
8
BLACK
6
CONTINUOUS
10
7.48242
20
-4.88873
11
7.48205
21
-4.88924
0
LINE
8
BLACK
6
CONTINUOUS
10
7.48205
20
-4.88924
11
7.48186
21
-4.88983
0
LINE
8
BLACK
6
CONTINUOUS
10
7.48186
20
-4.88983
11
7.48136
21
-4.8902
0
LINE
8
BLACK
6
CONTINUOUS
10
7.48136
20
-4.8902
11
7.48099
21
-4.8907
0
LINE
8
BLACK
6
CONTINUOUS
10
7.48099
20
-4.8907
11
7.4804
21
-4.89089
0
LINE
8
BLACK
6
CONTINUOUS
10
7.4804
20
-4.89089
11
7.47989
21
-4.89126
0
LINE
8
BLACK
6
CONTINUOUS
10
7.47989
20
-4.89126
11
7.47927
21
-4.89126
0
LINE
8
BLACK
6
CONTINUOUS
10
7.47927
20
-4.89126
11
7.47867
21
-4.89145
0
LINE
8
BLACK
6
CONTINUOUS
10
7.47867
20
-4.89145
11
3.89867
21
-4.89145
0
LINE
8
BLACK
6
CONTINUOUS
10
3.89867
20
-4.89145
11
3.89808
21
-4.89126
0
LINE
8
BLACK
6
CONTINUOUS
10
3.89808
20
-4.89126
11
3.89746
21
-4.89126
0
LINE
8
BLACK
6
CONTINUOUS
10
3.89746
20
-4.89126
11
3.89695
21
-4.89089
0
LINE
8
BLACK
6
CONTINUOUS
10
3.89695
20
-4.89089
11
3.89636
21
-4.8907
0
LINE
8
BLACK
6
CONTINUOUS
10
3.89636
20
-4.8907
11
3.89599
21
-4.8902
0
LINE
8
BLACK
6
CONTINUOUS
10
3.89599
20
-4.8902
11
3.89549
21
-4.88983
0
LINE
8
BLACK
6
CONTINUOUS
10
3.89549
20
-4.88983
11
3.8953
21
-4.88924
0
LINE
8
BLACK
6
CONTINUOUS
10
3.8953
20
-4.88924
11
3.89493
21
-4.88873
0
LINE
8
BLACK
6
CONTINUOUS
10
3.89493
20
-4.88873
11
3.89493
21
-4.88811
0
LINE
8
BLACK
6
CONTINUOUS
10
3.89493
20
-4.88811
11
3.89474
21
-4.88752
0
LINE
8
BLACK
6
CONTINUOUS
10
3.89474
20
-4.88752
11
3.89474
21
-2.90752
0
LINE
8
BLACK
6
CONTINUOUS
10
3.89474
20
-2.90752
11
3.89493
21
-2.90692
0
LINE
8
BLACK
6
CONTINUOUS
10
3.89493
20
-2.90692
11
3.89493
21
-2.9063
0
LINE
8
BLACK
6
CONTINUOUS
10
3.89493
20
-2.9063
11
3.8953
21
-2.9058
0
LINE
8
BLACK
6
CONTINUOUS
10
3.8953
20
-2.9058
11
3.89549
21
-2.9052
0
LINE
8
BLACK
6
CONTINUOUS
10
3.89549
20
-2.9052
11
3.89599
21
-2.90484
0
LINE
8
BLACK
6
CONTINUOUS
10
3.89599
20
-2.90484
11
3.89636
21
-2.90433
0
LINE
8
BLACK
6
CONTINUOUS
10
3.89636
20
-2.90433
11
3.89695
21
-2.90414
0
LINE
8
BLACK
6
CONTINUOUS
10
3.89695
20
-2.90414
11
3.89746
21
-2.90377
0
LINE
8
BLACK
6
CONTINUOUS
10
3.89746
20
-2.90377
11
3.89808
21
-2.90377
0
LINE
8
BLACK
6
CONTINUOUS
10
3.89808
20
-2.90377
11
3.89867
21
-2.90358
0
LINE
8
BLACK
6
CONTINUOUS
10
3.89867
20
-2.90358
11
7.47867
21
-2.90358
0
LINE
8
BLACK
6
CONTINUOUS
10
7.47867
20
-2.90358
11
7.47927
21
-2.90377
0
LINE
8
BLACK
6
CONTINUOUS
10
3.90261
20
-2.91145
11
3.90261
21
-4.88358
0
LINE
8
BLACK
6
CONTINUOUS
10
3.90261
20
-4.88358
11
7.47474
21
-4.88358
0
LINE
8
BLACK
6
CONTINUOUS
10
7.47474
20
-4.88358
11
7.47474
21
-2.91145
0
LINE
8
BLACK
6
CONTINUOUS
10
7.47474
20
-2.91145
11
3.90261
21
-2.91145
  0
ENDSEC
  0
EOF
