  0
SECTION
  2
HEADER
  9
$ANGBASE
  50
0.0
  9
$ANGDIR
  70
1
  9
$MEASUREMENT
  70
0
  0
ENDSEC
  0
SECTION
  2
TABLES
  0
TABLE
  2
LTYPE
  70
4
  0
LTYPE
  5
40F
  2
CONTINUOUS
  70
0
  3
Solid line
  72
65
  73
0
  40
0.0
  0
LTYPE
  5
410
  2
DASHDOT
 70
0
  3
Dash Dot ____ _ ____ _
 72
65
 73
4
 40
2.0
 49
1.25
 49
-0.25
 49
0.25
 49
-0.25
  0
LTYPE
  5
411
  2
DASHED
 70
0
  3
Dashed __ __ __ __ __
 72
65
 73
2
 40
0.75
 49
0.5
 49
-0.25
  0
LTYPE
  5
43B
  2
DOTTED
 70
0
  3
Dotted .  .  .  .
 72
65
 73
2
 40
0.2
 49
0.0
 49
-0.2
  0
ENDTAB
  0
TABLE
  2
STYLE
  70
4
  0
STYLE
  2
KICAD
  70
0
  40
0
  41
1
  42
1
  50
0
  71
0
  3
isocp.shx
  0
STYLE
  2
KICADB
  70
0
  40
0
  41
1
  42
1
  50
0
  71
0
  3
isocp.shx
  0
STYLE
  2
KICADI
  70
0
  40
0
  41
1
  42
1
  50
15
  71
0
  3
isocp.shx
  0
STYLE
  2
KICADBI
  70
0
  40
0
  41
1
  42
1
  50
15
  71
0
  3
isocp.shx
  0
ENDTAB
  0
TABLE
  2
LAYER
  70
1
  0
LAYER
  2
BLACK
  70
0
  62
7
  6
CONTINUOUS
  0
ENDTAB
  0
ENDSEC
  0
SECTION
  2
ENTITIES
0
LINE
8
BLACK
6
CONTINUOUS
10
0.980384
20
1.98289
11
0.980513
21
1.98291
0
LINE
8
BLACK
6
CONTINUOUS
10
0.980513
20
1.98291
11
0.980626
21
1.98284
0
LINE
8
BLACK
6
CONTINUOUS
10
0.980626
20
1.98284
11
0.98101
21
1.98277
0
LINE
8
BLACK
6
CONTINUOUS
10
0.98101
20
1.98277
11
0.981598
21
1.98228
0
LINE
8
BLACK
6
CONTINUOUS
10
0.981598
20
1.98228
11
0.982262
21
1.9819
0
LINE
8
BLACK
6
CONTINUOUS
10
0.982262
20
1.9819
11
0.982353
21
1.98165
0
LINE
8
BLACK
6
CONTINUOUS
10
0.982353
20
1.98165
11
0.982557
21
1.98148
0
LINE
8
BLACK
6
CONTINUOUS
10
0.982557
20
1.98148
11
0.98269
21
1.98072
0
LINE
8
BLACK
6
CONTINUOUS
10
0.98269
20
1.98072
11
0.982953
21
1.98
0
LINE
8
BLACK
6
CONTINUOUS
10
0.982953
20
1.98
11
0.982953
21
0.02
0
LINE
8
BLACK
6
CONTINUOUS
10
0.982953
20
0.02
11
0.982885
21
0.0196165
0
LINE
8
BLACK
6
CONTINUOUS
10
0.982885
20
0.0196165
11
0.982908
21
0.0194872
0
LINE
8
BLACK
6
CONTINUOUS
10
0.982908
20
0.0194872
11
0.982842
21
0.0193736
0
LINE
8
BLACK
6
CONTINUOUS
10
0.982842
20
0.0193736
11
0.982775
21
0.0189901
0
LINE
8
BLACK
6
CONTINUOUS
10
0.982775
20
0.0189901
11
0.982282
21
0.0184024
0
LINE
8
BLACK
6
CONTINUOUS
10
0.982282
20
0.0184024
11
0.981898
21
0.0177381
0
LINE
8
BLACK
6
CONTINUOUS
10
0.981898
20
0.0177381
11
0.981648
21
0.017647
0
LINE
8
BLACK
6
CONTINUOUS
10
0.981648
20
0.017647
11
0.981476
21
0.0174428
0
LINE
8
BLACK
6
CONTINUOUS
10
0.981476
20
0.0174428
11
0.980721
21
0.0173096
0
LINE
8
BLACK
6
CONTINUOUS
10
0.980721
20
0.0173096
11
0.98
21
0.0170472
0
LINE
8
BLACK
6
CONTINUOUS
10
0.98
20
0.0170472
11
0.02
21
0.0170472
0
LINE
8
BLACK
6
CONTINUOUS
10
0.02
20
0.0170472
11
0.0196165
21
0.0171149
0
LINE
8
BLACK
6
CONTINUOUS
10
0.0196165
20
0.0171149
11
0.0194872
21
0.0170921
0
LINE
8
BLACK
6
CONTINUOUS
10
0.0194872
20
0.0170921
11
0.0193736
21
0.0171577
0
LINE
8
BLACK
6
CONTINUOUS
10
0.0193736
20
0.0171577
11
0.0189901
21
0.0172253
0
LINE
8
BLACK
6
CONTINUOUS
10
0.0189901
20
0.0172253
11
0.0184024
21
0.0177185
0
LINE
8
BLACK
6
CONTINUOUS
10
0.0184024
20
0.0177185
11
0.0177381
21
0.018102
0
LINE
8
BLACK
6
CONTINUOUS
10
0.0177381
20
0.018102
11
0.017647
21
0.0183524
0
LINE
8
BLACK
6
CONTINUOUS
10
0.017647
20
0.0183524
11
0.0174428
21
0.0185236
0
LINE
8
BLACK
6
CONTINUOUS
10
0.0174428
20
0.0185236
11
0.0173096
21
0.0192792
0
LINE
8
BLACK
6
CONTINUOUS
10
0.0173096
20
0.0192792
11
0.0170472
21
0.02
0
LINE
8
BLACK
6
CONTINUOUS
10
0.0170472
20
0.02
11
0.0170472
21
1.98
0
LINE
8
BLACK
6
CONTINUOUS
10
0.0170472
20
1.98
11
0.0171149
21
1.98038
0
LINE
8
BLACK
6
CONTINUOUS
10
0.0171149
20
1.98038
11
0.0170921
21
1.98051
0
LINE
8
BLACK
6
CONTINUOUS
10
0.0170921
20
1.98051
11
0.0171577
21
1.98063
0
LINE
8
BLACK
6
CONTINUOUS
10
0.0171577
20
1.98063
11
0.0172253
21
1.98101
0
LINE
8
BLACK
6
CONTINUOUS
10
0.0172253
20
1.98101
11
0.0177185
21
1.9816
0
LINE
8
BLACK
6
CONTINUOUS
10
0.0177185
20
1.9816
11
0.018102
21
1.98226
0
LINE
8
BLACK
6
CONTINUOUS
10
0.018102
20
1.98226
11
0.0183524
21
1.98235
0
LINE
8
BLACK
6
CONTINUOUS
10
0.0183524
20
1.98235
11
0.0185236
21
1.98256
0
LINE
8
BLACK
6
CONTINUOUS
10
0.0185236
20
1.98256
11
0.0192792
21
1.98269
0
LINE
8
BLACK
6
CONTINUOUS
10
0.0192792
20
1.98269
11
0.02
21
1.98295
0
LINE
8
BLACK
6
CONTINUOUS
10
0.02
20
1.98295
11
0.98
21
1.98295
0
LINE
8
BLACK
6
CONTINUOUS
10
0.98
20
1.98295
11
0.980384
21
1.98289
0
LINE
8
BLACK
6
CONTINUOUS
10
3.33963
20
0.123698
11
3.34605
21
0.122127
0
LINE
8
BLACK
6
CONTINUOUS
10
3.34605
20
0.122127
11
3.35194
21
0.119121
0
LINE
8
BLACK
6
CONTINUOUS
10
3.35194
20
0.119121
11
3.35698
21
0.114841
0
LINE
8
BLACK
6
CONTINUOUS
10
3.35698
20
0.114841
11
3.3609
21
0.109516
0
LINE
8
BLACK
6
CONTINUOUS
10
3.3609
20
0.109516
11
3.36348
21
0.103433
0
LINE
8
BLACK
6
CONTINUOUS
10
3.36348
20
0.103433
11
3.3646
21
0.0969176
0
LINE
8
BLACK
6
CONTINUOUS
10
3.3646
20
0.0969176
11
3.36419
21
0.0903194
0
LINE
8
BLACK
6
CONTINUOUS
10
3.36419
20
0.0903194
11
3.36228
21
0.0839924
0
LINE
8
BLACK
6
CONTINUOUS
10
3.36228
20
0.0839924
11
3.35896
21
0.0782759
0
LINE
8
BLACK
6
CONTINUOUS
10
3.35896
20
0.0782759
11
3.35441
21
0.0734766
0
LINE
8
BLACK
6
CONTINUOUS
10
3.35441
20
0.0734766
11
3.34888
21
0.0698519
0
LINE
8
BLACK
6
CONTINUOUS
10
3.34888
20
0.0698519
11
3.34267
21
0.0675963
0
LINE
8
BLACK
6
CONTINUOUS
10
3.34267
20
0.0675963
11
3.3361
21
0.0668307
0
LINE
8
BLACK
6
CONTINUOUS
10
3.3361
20
0.0668307
11
3.29476
21
0.0668307
0
LINE
8
BLACK
6
CONTINUOUS
10
3.29476
20
0.0668307
11
3.29124
21
0.0670496
0
LINE
8
BLACK
6
CONTINUOUS
10
3.29124
20
0.0670496
11
3.28481
21
0.0686209
0
LINE
8
BLACK
6
CONTINUOUS
10
3.28481
20
0.0686209
11
3.27893
21
0.0716273
0
LINE
8
BLACK
6
CONTINUOUS
10
3.27893
20
0.0716273
11
3.27389
21
0.0759075
0
LINE
8
BLACK
6
CONTINUOUS
10
3.27389
20
0.0759075
11
3.26997
21
0.081232
0
LINE
8
BLACK
6
CONTINUOUS
10
3.26997
20
0.081232
11
3.26738
21
0.087315
0
LINE
8
BLACK
6
CONTINUOUS
10
3.26738
20
0.087315
11
3.26626
21
0.0938304
0
LINE
8
BLACK
6
CONTINUOUS
10
3.26626
20
0.0938304
11
3.26667
21
0.100429
0
LINE
8
BLACK
6
CONTINUOUS
10
3.26667
20
0.100429
11
3.26859
21
0.106756
0
LINE
8
BLACK
6
CONTINUOUS
10
3.26859
20
0.106756
11
3.27191
21
0.112472
0
LINE
8
BLACK
6
CONTINUOUS
10
3.27191
20
0.112472
11
3.27645
21
0.117271
0
LINE
8
BLACK
6
CONTINUOUS
10
3.27645
20
0.117271
11
3.28198
21
0.120896
0
LINE
8
BLACK
6
CONTINUOUS
10
3.28198
20
0.120896
11
3.2882
21
0.123152
0
LINE
8
BLACK
6
CONTINUOUS
10
3.2882
20
0.123152
11
3.29476
21
0.123917
0
LINE
8
BLACK
6
CONTINUOUS
10
3.29476
20
0.123917
11
3.3361
21
0.123917
0
LINE
8
BLACK
6
CONTINUOUS
10
3.3361
20
0.123917
11
3.33963
21
0.123698
0
LINE
8
BLACK
6
CONTINUOUS
10
3.49997
20
0.122932
11
3.50654
21
0.122067
0
LINE
8
BLACK
6
CONTINUOUS
10
3.50654
20
0.122067
11
3.51271
21
0.119662
0
LINE
8
BLACK
6
CONTINUOUS
10
3.51271
20
0.119662
11
3.51813
21
0.115854
0
LINE
8
BLACK
6
CONTINUOUS
10
3.51813
20
0.115854
11
3.52248
21
0.110864
0
LINE
8
BLACK
6
CONTINUOUS
10
3.52248
20
0.110864
11
3.52552
21
0.10498
0
LINE
8
BLACK
6
CONTINUOUS
10
3.52552
20
0.10498
11
3.52706
21
0.0985416
0
LINE
8
BLACK
6
CONTINUOUS
10
3.52706
20
0.0985416
11
3.52703
21
0.09192
0
LINE
8
BLACK
6
CONTINUOUS
10
3.52703
20
0.09192
11
3.52541
21
0.0854977
0
LINE
8
BLACK
6
CONTINUOUS
10
3.52541
20
0.0854977
11
3.52232
21
0.0796457
0
LINE
8
BLACK
6
CONTINUOUS
10
3.52232
20
0.0796457
11
3.51791
21
0.0747017
0
LINE
8
BLACK
6
CONTINUOUS
10
3.51791
20
0.0747017
11
3.51245
21
0.0709511
0
LINE
8
BLACK
6
CONTINUOUS
10
3.51245
20
0.0709511
11
3.50626
21
0.0686105
0
LINE
8
BLACK
6
CONTINUOUS
10
3.50626
20
0.0686105
11
3.49969
21
0.067815
0
LINE
8
BLACK
6
CONTINUOUS
10
3.49969
20
0.067815
11
3.46031
21
0.067815
0
LINE
8
BLACK
6
CONTINUOUS
10
3.46031
20
0.067815
11
3.46003
21
0.0678165
0
LINE
8
BLACK
6
CONTINUOUS
10
3.46003
20
0.0678165
11
3.45346
21
0.0686808
0
LINE
8
BLACK
6
CONTINUOUS
10
3.45346
20
0.0686808
11
3.44729
21
0.0710861
0
LINE
8
BLACK
6
CONTINUOUS
10
3.44729
20
0.0710861
11
3.44187
21
0.0748937
0
LINE
8
BLACK
6
CONTINUOUS
10
3.44187
20
0.0748937
11
3.43752
21
0.0798835
0
LINE
8
BLACK
6
CONTINUOUS
10
3.43752
20
0.0798835
11
3.43448
21
0.0857677
0
LINE
8
BLACK
6
CONTINUOUS
10
3.43448
20
0.0857677
11
3.43294
21
0.0922065
0
LINE
8
BLACK
6
CONTINUOUS
10
3.43294
20
0.0922065
11
3.43297
21
0.0988281
0
LINE
8
BLACK
6
CONTINUOUS
10
3.43297
20
0.0988281
11
3.43459
21
0.10525
0
LINE
8
BLACK
6
CONTINUOUS
10
3.43459
20
0.10525
11
3.43768
21
0.111102
0
LINE
8
BLACK
6
CONTINUOUS
10
3.43768
20
0.111102
11
3.44209
21
0.116046
0
LINE
8
BLACK
6
CONTINUOUS
10
3.44209
20
0.116046
11
3.44755
21
0.119797
0
LINE
8
BLACK
6
CONTINUOUS
10
3.44755
20
0.119797
11
3.45374
21
0.122138
0
LINE
8
BLACK
6
CONTINUOUS
10
3.45374
20
0.122138
11
3.46031
21
0.122933
0
LINE
8
BLACK
6
CONTINUOUS
10
3.46031
20
0.122933
11
3.49969
21
0.122933
0
LINE
8
BLACK
6
CONTINUOUS
10
3.49969
20
0.122933
11
3.49997
21
0.122932
0
LINE
8
BLACK
6
CONTINUOUS
10
3.01492
20
0.325098
11
3.02877
21
0.322656
0
LINE
8
BLACK
6
CONTINUOUS
10
3.02877
20
0.322656
11
3.04226
21
0.318684
0
LINE
8
BLACK
6
CONTINUOUS
10
3.04226
20
0.318684
11
3.05523
21
0.313234
0
LINE
8
BLACK
6
CONTINUOUS
10
3.05523
20
0.313234
11
3.06751
21
0.306372
0
LINE
8
BLACK
6
CONTINUOUS
10
3.06751
20
0.306372
11
3.07894
21
0.298184
0
LINE
8
BLACK
6
CONTINUOUS
10
3.07894
20
0.298184
11
3.08939
21
0.288773
0
LINE
8
BLACK
6
CONTINUOUS
10
3.08939
20
0.288773
11
3.09873
21
0.278255
0
LINE
8
BLACK
6
CONTINUOUS
10
3.09873
20
0.278255
11
3.10684
21
0.266761
0
LINE
8
BLACK
6
CONTINUOUS
10
3.10684
20
0.266761
11
3.11362
21
0.254436
0
LINE
8
BLACK
6
CONTINUOUS
10
3.11362
20
0.254436
11
3.11898
21
0.241432
0
LINE
8
BLACK
6
CONTINUOUS
10
3.11898
20
0.241432
11
3.12285
21
0.227912
0
LINE
8
BLACK
6
CONTINUOUS
10
3.12285
20
0.227912
11
3.1252
21
0.214043
0
LINE
8
BLACK
6
CONTINUOUS
10
3.1252
20
0.214043
11
3.12598
21
0.2
0
LINE
8
BLACK
6
CONTINUOUS
10
3.12598
20
0.2
11
3.12594
21
0.196482
0
LINE
8
BLACK
6
CONTINUOUS
10
3.12594
20
0.196482
11
3.12476
21
0.182466
0
LINE
8
BLACK
6
CONTINUOUS
10
3.12476
20
0.182466
11
3.12203
21
0.168669
0
LINE
8
BLACK
6
CONTINUOUS
10
3.12203
20
0.168669
11
3.11777
21
0.155262
0
LINE
8
BLACK
6
CONTINUOUS
10
3.11777
20
0.155262
11
3.11205
21
0.142413
0
LINE
8
BLACK
6
CONTINUOUS
10
3.11205
20
0.142413
11
3.10493
21
0.130281
0
LINE
8
BLACK
6
CONTINUOUS
10
3.10493
20
0.130281
11
3.09651
21
0.119019
0
LINE
8
BLACK
6
CONTINUOUS
10
3.09651
20
0.119019
11
3.08688
21
0.108766
0
LINE
8
BLACK
6
CONTINUOUS
10
3.08688
20
0.108766
11
3.07617
21
0.0996498
0
LINE
8
BLACK
6
CONTINUOUS
10
3.07617
20
0.0996498
11
3.06451
21
0.0917846
0
LINE
8
BLACK
6
CONTINUOUS
10
3.06451
20
0.0917846
11
3.05204
21
0.0852682
0
LINE
8
BLACK
6
CONTINUOUS
10
3.05204
20
0.0852682
11
3.03893
21
0.0801819
0
LINE
8
BLACK
6
CONTINUOUS
10
3.03893
20
0.0801819
11
3.02533
21
0.0765889
0
LINE
8
BLACK
6
CONTINUOUS
10
3.02533
20
0.0765889
11
3.01142
21
0.0745343
0
LINE
8
BLACK
6
CONTINUOUS
10
3.01142
20
0.0745343
11
2.99736
21
0.0740434
0
LINE
8
BLACK
6
CONTINUOUS
10
2.99736
20
0.0740434
11
2.98334
21
0.0751224
0
LINE
8
BLACK
6
CONTINUOUS
10
2.98334
20
0.0751224
11
2.96952
21
0.077758
0
LINE
8
BLACK
6
CONTINUOUS
10
2.96952
20
0.077758
11
2.95609
21
0.0819172
0
LINE
8
BLACK
6
CONTINUOUS
10
2.95609
20
0.0819172
11
2.9432
21
0.0875482
0
LINE
8
BLACK
6
CONTINUOUS
10
2.9432
20
0.0875482
11
2.93102
21
0.0945809
0
LINE
8
BLACK
6
CONTINUOUS
10
2.93102
20
0.0945809
11
2.91969
21
0.102927
0
LINE
8
BLACK
6
CONTINUOUS
10
2.91969
20
0.102927
11
2.90937
21
0.112484
0
LINE
8
BLACK
6
CONTINUOUS
10
2.90937
20
0.112484
11
2.90018
21
0.123131
0
LINE
8
BLACK
6
CONTINUOUS
10
2.90018
20
0.123131
11
2.89224
21
0.134737
0
LINE
8
BLACK
6
CONTINUOUS
10
2.89224
20
0.134737
11
2.88563
21
0.147156
0
LINE
8
BLACK
6
CONTINUOUS
10
2.88563
20
0.147156
11
2.88046
21
0.160233
0
LINE
8
BLACK
6
CONTINUOUS
10
2.88046
20
0.160233
11
2.87677
21
0.173806
0
LINE
8
BLACK
6
CONTINUOUS
10
2.87677
20
0.173806
11
2.87462
21
0.187706
0
LINE
8
BLACK
6
CONTINUOUS
10
2.87462
20
0.187706
11
2.87403
21
0.201759
0
LINE
8
BLACK
6
CONTINUOUS
10
2.87403
20
0.201759
11
2.87501
21
0.21579
0
LINE
8
BLACK
6
CONTINUOUS
10
2.87501
20
0.21579
11
2.87755
21
0.229624
0
LINE
8
BLACK
6
CONTINUOUS
10
2.87755
20
0.229624
11
2.88161
21
0.243089
0
LINE
8
BLACK
6
CONTINUOUS
10
2.88161
20
0.243089
11
2.88715
21
0.256017
0
LINE
8
BLACK
6
CONTINUOUS
10
2.88715
20
0.256017
11
2.8941
21
0.268247
0
LINE
8
BLACK
6
CONTINUOUS
10
2.8941
20
0.268247
11
2.90237
21
0.279626
0
LINE
8
BLACK
6
CONTINUOUS
10
2.90237
20
0.279626
11
2.91185
21
0.290012
0
LINE
8
BLACK
6
CONTINUOUS
10
2.91185
20
0.290012
11
2.92244
21
0.299277
0
LINE
8
BLACK
6
CONTINUOUS
10
2.92244
20
0.299277
11
2.93399
21
0.307304
0
LINE
8
BLACK
6
CONTINUOUS
10
2.93399
20
0.307304
11
2.94636
21
0.313994
0
LINE
8
BLACK
6
CONTINUOUS
10
2.94636
20
0.313994
11
2.9594
21
0.319263
0
LINE
8
BLACK
6
CONTINUOUS
10
2.9594
20
0.319263
11
2.97295
21
0.323045
0
LINE
8
BLACK
6
CONTINUOUS
10
2.97295
20
0.323045
11
2.98683
21
0.325294
0
LINE
8
BLACK
6
CONTINUOUS
10
2.98683
20
0.325294
11
3.00088
21
0.325981
0
LINE
8
BLACK
6
CONTINUOUS
10
3.00088
20
0.325981
11
3.01492
21
0.325098
0
LINE
8
BLACK
6
CONTINUOUS
10
2.12793
20
0.167048
11
2.1329
21
0.165303
0
LINE
8
BLACK
6
CONTINUOUS
10
2.1329
20
0.165303
11
2.13713
21
0.162173
0
LINE
8
BLACK
6
CONTINUOUS
10
2.13713
20
0.162173
11
2.14026
21
0.157936
0
LINE
8
BLACK
6
CONTINUOUS
10
2.14026
20
0.157936
11
2.14201
21
0.152965
0
LINE
8
BLACK
6
CONTINUOUS
10
2.14201
20
0.152965
11
2.14232
21
0.149646
0
LINE
8
BLACK
6
CONTINUOUS
10
2.14232
20
0.149646
11
2.14232
21
0.120118
0
LINE
8
BLACK
6
CONTINUOUS
10
2.14232
20
0.120118
11
2.14201
21
0.116798
0
LINE
8
BLACK
6
CONTINUOUS
10
2.14201
20
0.116798
11
2.14026
21
0.111828
0
LINE
8
BLACK
6
CONTINUOUS
10
2.14026
20
0.111828
11
2.13713
21
0.107591
0
LINE
8
BLACK
6
CONTINUOUS
10
2.13713
20
0.107591
11
2.1329
21
0.104461
0
LINE
8
BLACK
6
CONTINUOUS
10
2.1329
20
0.104461
11
2.12793
21
0.102715
0
LINE
8
BLACK
6
CONTINUOUS
10
2.12793
20
0.102715
11
2.12461
21
0.102402
0
LINE
8
BLACK
6
CONTINUOUS
10
2.12461
20
0.102402
11
2.07539
21
0.102402
0
LINE
8
BLACK
6
CONTINUOUS
10
2.07539
20
0.102402
11
2.07207
21
0.102715
0
LINE
8
BLACK
6
CONTINUOUS
10
2.07207
20
0.102715
11
2.0671
21
0.104461
0
LINE
8
BLACK
6
CONTINUOUS
10
2.0671
20
0.104461
11
2.06287
21
0.107591
0
LINE
8
BLACK
6
CONTINUOUS
10
2.06287
20
0.107591
11
2.05974
21
0.111828
0
LINE
8
BLACK
6
CONTINUOUS
10
2.05974
20
0.111828
11
2.05799
21
0.116798
0
LINE
8
BLACK
6
CONTINUOUS
10
2.05799
20
0.116798
11
2.05768
21
0.120118
0
LINE
8
BLACK
6
CONTINUOUS
10
2.05768
20
0.120118
11
2.05768
21
0.149646
0
LINE
8
BLACK
6
CONTINUOUS
10
2.05768
20
0.149646
11
2.05799
21
0.152965
0
LINE
8
BLACK
6
CONTINUOUS
10
2.05799
20
0.152965
11
2.05974
21
0.157936
0
LINE
8
BLACK
6
CONTINUOUS
10
2.05974
20
0.157936
11
2.06287
21
0.162173
0
LINE
8
BLACK
6
CONTINUOUS
10
2.06287
20
0.162173
11
2.0671
21
0.165303
0
LINE
8
BLACK
6
CONTINUOUS
10
2.0671
20
0.165303
11
2.07207
21
0.167048
0
LINE
8
BLACK
6
CONTINUOUS
10
2.07207
20
0.167048
11
2.07539
21
0.167362
0
LINE
8
BLACK
6
CONTINUOUS
10
2.07539
20
0.167362
11
2.12461
21
0.167362
0
LINE
8
BLACK
6
CONTINUOUS
10
2.12461
20
0.167362
11
2.12793
21
0.167048
0
LINE
8
BLACK
6
CONTINUOUS
10
1.87793
20
0.167048
11
1.8829
21
0.165303
0
LINE
8
BLACK
6
CONTINUOUS
10
1.8829
20
0.165303
11
1.88713
21
0.162173
0
LINE
8
BLACK
6
CONTINUOUS
10
1.88713
20
0.162173
11
1.89026
21
0.157936
0
LINE
8
BLACK
6
CONTINUOUS
10
1.89026
20
0.157936
11
1.89201
21
0.152965
0
LINE
8
BLACK
6
CONTINUOUS
10
1.89201
20
0.152965
11
1.89232
21
0.149646
0
LINE
8
BLACK
6
CONTINUOUS
10
1.89232
20
0.149646
11
1.89232
21
0.120118
0
LINE
8
BLACK
6
CONTINUOUS
10
1.89232
20
0.120118
11
1.89201
21
0.116798
0
LINE
8
BLACK
6
CONTINUOUS
10
1.89201
20
0.116798
11
1.89026
21
0.111828
0
LINE
8
BLACK
6
CONTINUOUS
10
1.89026
20
0.111828
11
1.88713
21
0.107591
0
LINE
8
BLACK
6
CONTINUOUS
10
1.88713
20
0.107591
11
1.8829
21
0.104461
0
LINE
8
BLACK
6
CONTINUOUS
10
1.8829
20
0.104461
11
1.87793
21
0.102715
0
LINE
8
BLACK
6
CONTINUOUS
10
1.87793
20
0.102715
11
1.87461
21
0.102402
0
LINE
8
BLACK
6
CONTINUOUS
10
1.87461
20
0.102402
11
1.82539
21
0.102402
0
LINE
8
BLACK
6
CONTINUOUS
10
1.82539
20
0.102402
11
1.82207
21
0.102715
0
LINE
8
BLACK
6
CONTINUOUS
10
1.82207
20
0.102715
11
1.8171
21
0.104461
0
LINE
8
BLACK
6
CONTINUOUS
10
1.8171
20
0.104461
11
1.81287
21
0.107591
0
LINE
8
BLACK
6
CONTINUOUS
10
1.81287
20
0.107591
11
1.80974
21
0.111828
0
LINE
8
BLACK
6
CONTINUOUS
10
1.80974
20
0.111828
11
1.80799
21
0.116798
0
LINE
8
BLACK
6
CONTINUOUS
10
1.80799
20
0.116798
11
1.80768
21
0.120118
0
LINE
8
BLACK
6
CONTINUOUS
10
1.80768
20
0.120118
11
1.80768
21
0.149646
0
LINE
8
BLACK
6
CONTINUOUS
10
1.80768
20
0.149646
11
1.80799
21
0.152965
0
LINE
8
BLACK
6
CONTINUOUS
10
1.80799
20
0.152965
11
1.80974
21
0.157936
0
LINE
8
BLACK
6
CONTINUOUS
10
1.80974
20
0.157936
11
1.81287
21
0.162173
0
LINE
8
BLACK
6
CONTINUOUS
10
1.81287
20
0.162173
11
1.8171
21
0.165303
0
LINE
8
BLACK
6
CONTINUOUS
10
1.8171
20
0.165303
11
1.82207
21
0.167048
0
LINE
8
BLACK
6
CONTINUOUS
10
1.82207
20
0.167048
11
1.82539
21
0.167362
0
LINE
8
BLACK
6
CONTINUOUS
10
1.82539
20
0.167362
11
1.87461
21
0.167362
0
LINE
8
BLACK
6
CONTINUOUS
10
1.87461
20
0.167362
11
1.87793
21
0.167048
0
LINE
8
BLACK
6
CONTINUOUS
10
2.55793
20
0.167048
11
2.5629
21
0.165303
0
LINE
8
BLACK
6
CONTINUOUS
10
2.5629
20
0.165303
11
2.56713
21
0.162173
0
LINE
8
BLACK
6
CONTINUOUS
10
2.56713
20
0.162173
11
2.57026
21
0.157936
0
LINE
8
BLACK
6
CONTINUOUS
10
2.57026
20
0.157936
11
2.57201
21
0.152965
0
LINE
8
BLACK
6
CONTINUOUS
10
2.57201
20
0.152965
11
2.57232
21
0.149646
0
LINE
8
BLACK
6
CONTINUOUS
10
2.57232
20
0.149646
11
2.57232
21
0.120118
0
LINE
8
BLACK
6
CONTINUOUS
10
2.57232
20
0.120118
11
2.57201
21
0.116798
0
LINE
8
BLACK
6
CONTINUOUS
10
2.57201
20
0.116798
11
2.57026
21
0.111828
0
LINE
8
BLACK
6
CONTINUOUS
10
2.57026
20
0.111828
11
2.56713
21
0.107591
0
LINE
8
BLACK
6
CONTINUOUS
10
2.56713
20
0.107591
11
2.5629
21
0.104461
0
LINE
8
BLACK
6
CONTINUOUS
10
2.5629
20
0.104461
11
2.55793
21
0.102715
0
LINE
8
BLACK
6
CONTINUOUS
10
2.55793
20
0.102715
11
2.55461
21
0.102402
0
LINE
8
BLACK
6
CONTINUOUS
10
2.55461
20
0.102402
11
2.50539
21
0.102402
0
LINE
8
BLACK
6
CONTINUOUS
10
2.50539
20
0.102402
11
2.50207
21
0.102715
0
LINE
8
BLACK
6
CONTINUOUS
10
2.50207
20
0.102715
11
2.4971
21
0.104461
0
LINE
8
BLACK
6
CONTINUOUS
10
2.4971
20
0.104461
11
2.49287
21
0.107591
0
LINE
8
BLACK
6
CONTINUOUS
10
2.49287
20
0.107591
11
2.48974
21
0.111828
0
LINE
8
BLACK
6
CONTINUOUS
10
2.48974
20
0.111828
11
2.48799
21
0.116798
0
LINE
8
BLACK
6
CONTINUOUS
10
2.48799
20
0.116798
11
2.48768
21
0.120118
0
LINE
8
BLACK
6
CONTINUOUS
10
2.48768
20
0.120118
11
2.48768
21
0.149646
0
LINE
8
BLACK
6
CONTINUOUS
10
2.48768
20
0.149646
11
2.48799
21
0.152965
0
LINE
8
BLACK
6
CONTINUOUS
10
2.48799
20
0.152965
11
2.48974
21
0.157936
0
LINE
8
BLACK
6
CONTINUOUS
10
2.48974
20
0.157936
11
2.49287
21
0.162173
0
LINE
8
BLACK
6
CONTINUOUS
10
2.49287
20
0.162173
11
2.4971
21
0.165303
0
LINE
8
BLACK
6
CONTINUOUS
10
2.4971
20
0.165303
11
2.50207
21
0.167048
0
LINE
8
BLACK
6
CONTINUOUS
10
2.50207
20
0.167048
11
2.50539
21
0.167362
0
LINE
8
BLACK
6
CONTINUOUS
10
2.50539
20
0.167362
11
2.55461
21
0.167362
0
LINE
8
BLACK
6
CONTINUOUS
10
2.55461
20
0.167362
11
2.55793
21
0.167048
0
LINE
8
BLACK
6
CONTINUOUS
10
2.38793
20
0.177048
11
2.3929
21
0.175303
0
LINE
8
BLACK
6
CONTINUOUS
10
2.3929
20
0.175303
11
2.39713
21
0.172173
0
LINE
8
BLACK
6
CONTINUOUS
10
2.39713
20
0.172173
11
2.40026
21
0.167936
0
LINE
8
BLACK
6
CONTINUOUS
10
2.40026
20
0.167936
11
2.40201
21
0.162965
0
LINE
8
BLACK
6
CONTINUOUS
10
2.40201
20
0.162965
11
2.40232
21
0.159646
0
LINE
8
BLACK
6
CONTINUOUS
10
2.40232
20
0.159646
11
2.40232
21
0.130118
0
LINE
8
BLACK
6
CONTINUOUS
10
2.40232
20
0.130118
11
2.40201
21
0.126798
0
LINE
8
BLACK
6
CONTINUOUS
10
2.40201
20
0.126798
11
2.40026
21
0.121828
0
LINE
8
BLACK
6
CONTINUOUS
10
2.40026
20
0.121828
11
2.39713
21
0.117591
0
LINE
8
BLACK
6
CONTINUOUS
10
2.39713
20
0.117591
11
2.3929
21
0.114461
0
LINE
8
BLACK
6
CONTINUOUS
10
2.3929
20
0.114461
11
2.38793
21
0.112715
0
LINE
8
BLACK
6
CONTINUOUS
10
2.38793
20
0.112715
11
2.38461
21
0.112402
0
LINE
8
BLACK
6
CONTINUOUS
10
2.38461
20
0.112402
11
2.33539
21
0.112402
0
LINE
8
BLACK
6
CONTINUOUS
10
2.33539
20
0.112402
11
2.33207
21
0.112715
0
LINE
8
BLACK
6
CONTINUOUS
10
2.33207
20
0.112715
11
2.3271
21
0.114461
0
LINE
8
BLACK
6
CONTINUOUS
10
2.3271
20
0.114461
11
2.32287
21
0.117591
0
LINE
8
BLACK
6
CONTINUOUS
10
2.32287
20
0.117591
11
2.31974
21
0.121828
0
LINE
8
BLACK
6
CONTINUOUS
10
2.31974
20
0.121828
11
2.31799
21
0.126798
0
LINE
8
BLACK
6
CONTINUOUS
10
2.31799
20
0.126798
11
2.31768
21
0.130118
0
LINE
8
BLACK
6
CONTINUOUS
10
2.31768
20
0.130118
11
2.31768
21
0.159646
0
LINE
8
BLACK
6
CONTINUOUS
10
2.31768
20
0.159646
11
2.31799
21
0.162965
0
LINE
8
BLACK
6
CONTINUOUS
10
2.31799
20
0.162965
11
2.31974
21
0.167936
0
LINE
8
BLACK
6
CONTINUOUS
10
2.31974
20
0.167936
11
2.32287
21
0.172173
0
LINE
8
BLACK
6
CONTINUOUS
10
2.32287
20
0.172173
11
2.3271
21
0.175303
0
LINE
8
BLACK
6
CONTINUOUS
10
2.3271
20
0.175303
11
2.33207
21
0.177048
0
LINE
8
BLACK
6
CONTINUOUS
10
2.33207
20
0.177048
11
2.33539
21
0.177362
0
LINE
8
BLACK
6
CONTINUOUS
10
2.33539
20
0.177362
11
2.38461
21
0.177362
0
LINE
8
BLACK
6
CONTINUOUS
10
2.38461
20
0.177362
11
2.38793
21
0.177048
0
LINE
8
BLACK
6
CONTINUOUS
10
2.73793
20
0.187048
11
2.7429
21
0.185303
0
LINE
8
BLACK
6
CONTINUOUS
10
2.7429
20
0.185303
11
2.74713
21
0.182173
0
LINE
8
BLACK
6
CONTINUOUS
10
2.74713
20
0.182173
11
2.75026
21
0.177936
0
LINE
8
BLACK
6
CONTINUOUS
10
2.75026
20
0.177936
11
2.75201
21
0.172965
0
LINE
8
BLACK
6
CONTINUOUS
10
2.75201
20
0.172965
11
2.75232
21
0.169646
0
LINE
8
BLACK
6
CONTINUOUS
10
2.75232
20
0.169646
11
2.75232
21
0.140118
0
LINE
8
BLACK
6
CONTINUOUS
10
2.75232
20
0.140118
11
2.75201
21
0.136798
0
LINE
8
BLACK
6
CONTINUOUS
10
2.75201
20
0.136798
11
2.75026
21
0.131828
0
LINE
8
BLACK
6
CONTINUOUS
10
2.75026
20
0.131828
11
2.74713
21
0.127591
0
LINE
8
BLACK
6
CONTINUOUS
10
2.74713
20
0.127591
11
2.7429
21
0.124461
0
LINE
8
BLACK
6
CONTINUOUS
10
2.7429
20
0.124461
11
2.73793
21
0.122715
0
LINE
8
BLACK
6
CONTINUOUS
10
2.73793
20
0.122715
11
2.73461
21
0.122402
0
LINE
8
BLACK
6
CONTINUOUS
10
2.73461
20
0.122402
11
2.68539
21
0.122402
0
LINE
8
BLACK
6
CONTINUOUS
10
2.68539
20
0.122402
11
2.68207
21
0.122715
0
LINE
8
BLACK
6
CONTINUOUS
10
2.68207
20
0.122715
11
2.6771
21
0.124461
0
LINE
8
BLACK
6
CONTINUOUS
10
2.6771
20
0.124461
11
2.67287
21
0.127591
0
LINE
8
BLACK
6
CONTINUOUS
10
2.67287
20
0.127591
11
2.66974
21
0.131828
0
LINE
8
BLACK
6
CONTINUOUS
10
2.66974
20
0.131828
11
2.66799
21
0.136798
0
LINE
8
BLACK
6
CONTINUOUS
10
2.66799
20
0.136798
11
2.66768
21
0.140118
0
LINE
8
BLACK
6
CONTINUOUS
10
2.66768
20
0.140118
11
2.66768
21
0.169646
0
LINE
8
BLACK
6
CONTINUOUS
10
2.66768
20
0.169646
11
2.66799
21
0.172965
0
LINE
8
BLACK
6
CONTINUOUS
10
2.66799
20
0.172965
11
2.66974
21
0.177936
0
LINE
8
BLACK
6
CONTINUOUS
10
2.66974
20
0.177936
11
2.67287
21
0.182173
0
LINE
8
BLACK
6
CONTINUOUS
10
2.67287
20
0.182173
11
2.6771
21
0.185303
0
LINE
8
BLACK
6
CONTINUOUS
10
2.6771
20
0.185303
11
2.68207
21
0.187048
0
LINE
8
BLACK
6
CONTINUOUS
10
2.68207
20
0.187048
11
2.68539
21
0.187362
0
LINE
8
BLACK
6
CONTINUOUS
10
2.68539
20
0.187362
11
2.73461
21
0.187362
0
LINE
8
BLACK
6
CONTINUOUS
10
2.73461
20
0.187362
11
2.73793
21
0.187048
0
LINE
8
BLACK
6
CONTINUOUS
10
3.34047
20
0.171638
11
3.34545
21
0.169573
0
LINE
8
BLACK
6
CONTINUOUS
10
3.34545
20
0.169573
11
3.34973
21
0.166289
0
LINE
8
BLACK
6
CONTINUOUS
10
3.34973
20
0.166289
11
3.35302
21
0.162008
0
LINE
8
BLACK
6
CONTINUOUS
10
3.35302
20
0.162008
11
3.35508
21
0.157023
0
LINE
8
BLACK
6
CONTINUOUS
10
3.35508
20
0.157023
11
3.35579
21
0.151673
0
LINE
8
BLACK
6
CONTINUOUS
10
3.35579
20
0.151673
11
3.35508
21
0.146324
0
LINE
8
BLACK
6
CONTINUOUS
10
3.35508
20
0.146324
11
3.35302
21
0.141339
0
LINE
8
BLACK
6
CONTINUOUS
10
3.35302
20
0.141339
11
3.34973
21
0.137058
0
LINE
8
BLACK
6
CONTINUOUS
10
3.34973
20
0.137058
11
3.34545
21
0.133773
0
LINE
8
BLACK
6
CONTINUOUS
10
3.34545
20
0.133773
11
3.34047
21
0.131708
0
LINE
8
BLACK
6
CONTINUOUS
10
3.34047
20
0.131708
11
3.33512
21
0.131004
0
LINE
8
BLACK
6
CONTINUOUS
10
3.33512
20
0.131004
11
3.32977
21
0.131708
0
LINE
8
BLACK
6
CONTINUOUS
10
3.32977
20
0.131708
11
3.32478
21
0.133773
0
LINE
8
BLACK
6
CONTINUOUS
10
3.32478
20
0.133773
11
3.3205
21
0.137058
0
LINE
8
BLACK
6
CONTINUOUS
10
3.3205
20
0.137058
11
3.31722
21
0.141339
0
LINE
8
BLACK
6
CONTINUOUS
10
3.31722
20
0.141339
11
3.31515
21
0.146324
0
LINE
8
BLACK
6
CONTINUOUS
10
3.31515
20
0.146324
11
3.31445
21
0.151673
0
LINE
8
BLACK
6
CONTINUOUS
10
3.31445
20
0.151673
11
3.31515
21
0.157023
0
LINE
8
BLACK
6
CONTINUOUS
10
3.31515
20
0.157023
11
3.31722
21
0.162008
0
LINE
8
BLACK
6
CONTINUOUS
10
3.31722
20
0.162008
11
3.3205
21
0.166289
0
LINE
8
BLACK
6
CONTINUOUS
10
3.3205
20
0.166289
11
3.32478
21
0.169573
0
LINE
8
BLACK
6
CONTINUOUS
10
3.32478
20
0.169573
11
3.32977
21
0.171638
0
LINE
8
BLACK
6
CONTINUOUS
10
3.32977
20
0.171638
11
3.33512
21
0.172343
0
LINE
8
BLACK
6
CONTINUOUS
10
3.33512
20
0.172343
11
3.34047
21
0.171638
0
LINE
8
BLACK
6
CONTINUOUS
10
2.12793
20
0.277285
11
2.1329
21
0.275539
0
LINE
8
BLACK
6
CONTINUOUS
10
2.1329
20
0.275539
11
2.13713
21
0.272409
0
LINE
8
BLACK
6
CONTINUOUS
10
2.13713
20
0.272409
11
2.14026
21
0.268172
0
LINE
8
BLACK
6
CONTINUOUS
10
2.14026
20
0.268172
11
2.14201
21
0.263202
0
LINE
8
BLACK
6
CONTINUOUS
10
2.14201
20
0.263202
11
2.14232
21
0.259882
0
LINE
8
BLACK
6
CONTINUOUS
10
2.14232
20
0.259882
11
2.14232
21
0.230354
0
LINE
8
BLACK
6
CONTINUOUS
10
2.14232
20
0.230354
11
2.14201
21
0.227035
0
LINE
8
BLACK
6
CONTINUOUS
10
2.14201
20
0.227035
11
2.14026
21
0.222064
0
LINE
8
BLACK
6
CONTINUOUS
10
2.14026
20
0.222064
11
2.13713
21
0.217827
0
LINE
8
BLACK
6
CONTINUOUS
10
2.13713
20
0.217827
11
2.1329
21
0.214697
0
LINE
8
BLACK
6
CONTINUOUS
10
2.1329
20
0.214697
11
2.12793
21
0.212952
0
LINE
8
BLACK
6
CONTINUOUS
10
2.12793
20
0.212952
11
2.12461
21
0.212638
0
LINE
8
BLACK
6
CONTINUOUS
10
2.12461
20
0.212638
11
2.07539
21
0.212638
0
LINE
8
BLACK
6
CONTINUOUS
10
2.07539
20
0.212638
11
2.07207
21
0.212952
0
LINE
8
BLACK
6
CONTINUOUS
10
2.07207
20
0.212952
11
2.0671
21
0.214697
0
LINE
8
BLACK
6
CONTINUOUS
10
2.0671
20
0.214697
11
2.06287
21
0.217827
0
LINE
8
BLACK
6
CONTINUOUS
10
2.06287
20
0.217827
11
2.05974
21
0.222064
0
LINE
8
BLACK
6
CONTINUOUS
10
2.05974
20
0.222064
11
2.05799
21
0.227035
0
LINE
8
BLACK
6
CONTINUOUS
10
2.05799
20
0.227035
11
2.05768
21
0.230354
0
LINE
8
BLACK
6
CONTINUOUS
10
2.05768
20
0.230354
11
2.05768
21
0.259882
0
LINE
8
BLACK
6
CONTINUOUS
10
2.05768
20
0.259882
11
2.05799
21
0.263202
0
LINE
8
BLACK
6
CONTINUOUS
10
2.05799
20
0.263202
11
2.05974
21
0.268172
0
LINE
8
BLACK
6
CONTINUOUS
10
2.05974
20
0.268172
11
2.06287
21
0.272409
0
LINE
8
BLACK
6
CONTINUOUS
10
2.06287
20
0.272409
11
2.0671
21
0.275539
0
LINE
8
BLACK
6
CONTINUOUS
10
2.0671
20
0.275539
11
2.07207
21
0.277285
0
LINE
8
BLACK
6
CONTINUOUS
10
2.07207
20
0.277285
11
2.07539
21
0.277598
0
LINE
8
BLACK
6
CONTINUOUS
10
2.07539
20
0.277598
11
2.12461
21
0.277598
0
LINE
8
BLACK
6
CONTINUOUS
10
2.12461
20
0.277598
11
2.12793
21
0.277285
0
LINE
8
BLACK
6
CONTINUOUS
10
2.55793
20
0.277285
11
2.5629
21
0.275539
0
LINE
8
BLACK
6
CONTINUOUS
10
2.5629
20
0.275539
11
2.56713
21
0.272409
0
LINE
8
BLACK
6
CONTINUOUS
10
2.56713
20
0.272409
11
2.57026
21
0.268172
0
LINE
8
BLACK
6
CONTINUOUS
10
2.57026
20
0.268172
11
2.57201
21
0.263202
0
LINE
8
BLACK
6
CONTINUOUS
10
2.57201
20
0.263202
11
2.57232
21
0.259882
0
LINE
8
BLACK
6
CONTINUOUS
10
2.57232
20
0.259882
11
2.57232
21
0.230354
0
LINE
8
BLACK
6
CONTINUOUS
10
2.57232
20
0.230354
11
2.57201
21
0.227035
0
LINE
8
BLACK
6
CONTINUOUS
10
2.57201
20
0.227035
11
2.57026
21
0.222064
0
LINE
8
BLACK
6
CONTINUOUS
10
2.57026
20
0.222064
11
2.56713
21
0.217827
0
LINE
8
BLACK
6
CONTINUOUS
10
2.56713
20
0.217827
11
2.5629
21
0.214697
0
LINE
8
BLACK
6
CONTINUOUS
10
2.5629
20
0.214697
11
2.55793
21
0.212952
0
LINE
8
BLACK
6
CONTINUOUS
10
2.55793
20
0.212952
11
2.55461
21
0.212638
0
LINE
8
BLACK
6
CONTINUOUS
10
2.55461
20
0.212638
11
2.50539
21
0.212638
0
LINE
8
BLACK
6
CONTINUOUS
10
2.50539
20
0.212638
11
2.50207
21
0.212952
0
LINE
8
BLACK
6
CONTINUOUS
10
2.50207
20
0.212952
11
2.4971
21
0.214697
0
LINE
8
BLACK
6
CONTINUOUS
10
2.4971
20
0.214697
11
2.49287
21
0.217827
0
LINE
8
BLACK
6
CONTINUOUS
10
2.49287
20
0.217827
11
2.48974
21
0.222064
0
LINE
8
BLACK
6
CONTINUOUS
10
2.48974
20
0.222064
11
2.48799
21
0.227035
0
LINE
8
BLACK
6
CONTINUOUS
10
2.48799
20
0.227035
11
2.48768
21
0.230354
0
LINE
8
BLACK
6
CONTINUOUS
10
2.48768
20
0.230354
11
2.48768
21
0.259882
0
LINE
8
BLACK
6
CONTINUOUS
10
2.48768
20
0.259882
11
2.48799
21
0.263202
0
LINE
8
BLACK
6
CONTINUOUS
10
2.48799
20
0.263202
11
2.48974
21
0.268172
0
LINE
8
BLACK
6
CONTINUOUS
10
2.48974
20
0.268172
11
2.49287
21
0.272409
0
LINE
8
BLACK
6
CONTINUOUS
10
2.49287
20
0.272409
11
2.4971
21
0.275539
0
LINE
8
BLACK
6
CONTINUOUS
10
2.4971
20
0.275539
11
2.50207
21
0.277285
0
LINE
8
BLACK
6
CONTINUOUS
10
2.50207
20
0.277285
11
2.50539
21
0.277598
0
LINE
8
BLACK
6
CONTINUOUS
10
2.50539
20
0.277598
11
2.55461
21
0.277598
0
LINE
8
BLACK
6
CONTINUOUS
10
2.55461
20
0.277598
11
2.55793
21
0.277285
0
LINE
8
BLACK
6
CONTINUOUS
10
1.87793
20
0.277285
11
1.8829
21
0.275539
0
LINE
8
BLACK
6
CONTINUOUS
10
1.8829
20
0.275539
11
1.88713
21
0.272409
0
LINE
8
BLACK
6
CONTINUOUS
10
1.88713
20
0.272409
11
1.89026
21
0.268172
0
LINE
8
BLACK
6
CONTINUOUS
10
1.89026
20
0.268172
11
1.89201
21
0.263202
0
LINE
8
BLACK
6
CONTINUOUS
10
1.89201
20
0.263202
11
1.89232
21
0.259882
0
LINE
8
BLACK
6
CONTINUOUS
10
1.89232
20
0.259882
11
1.89232
21
0.230354
0
LINE
8
BLACK
6
CONTINUOUS
10
1.89232
20
0.230354
11
1.89201
21
0.227035
0
LINE
8
BLACK
6
CONTINUOUS
10
1.89201
20
0.227035
11
1.89026
21
0.222064
0
LINE
8
BLACK
6
CONTINUOUS
10
1.89026
20
0.222064
11
1.88713
21
0.217827
0
LINE
8
BLACK
6
CONTINUOUS
10
1.88713
20
0.217827
11
1.8829
21
0.214697
0
LINE
8
BLACK
6
CONTINUOUS
10
1.8829
20
0.214697
11
1.87793
21
0.212952
0
LINE
8
BLACK
6
CONTINUOUS
10
1.87793
20
0.212952
11
1.87461
21
0.212638
0
LINE
8
BLACK
6
CONTINUOUS
10
1.87461
20
0.212638
11
1.82539
21
0.212638
0
LINE
8
BLACK
6
CONTINUOUS
10
1.82539
20
0.212638
11
1.82207
21
0.212952
0
LINE
8
BLACK
6
CONTINUOUS
10
1.82207
20
0.212952
11
1.8171
21
0.214697
0
LINE
8
BLACK
6
CONTINUOUS
10
1.8171
20
0.214697
11
1.81287
21
0.217827
0
LINE
8
BLACK
6
CONTINUOUS
10
1.81287
20
0.217827
11
1.80974
21
0.222064
0
LINE
8
BLACK
6
CONTINUOUS
10
1.80974
20
0.222064
11
1.80799
21
0.227035
0
LINE
8
BLACK
6
CONTINUOUS
10
1.80799
20
0.227035
11
1.80768
21
0.230354
0
LINE
8
BLACK
6
CONTINUOUS
10
1.80768
20
0.230354
11
1.80768
21
0.259882
0
LINE
8
BLACK
6
CONTINUOUS
10
1.80768
20
0.259882
11
1.80799
21
0.263202
0
LINE
8
BLACK
6
CONTINUOUS
10
1.80799
20
0.263202
11
1.80974
21
0.268172
0
LINE
8
BLACK
6
CONTINUOUS
10
1.80974
20
0.268172
11
1.81287
21
0.272409
0
LINE
8
BLACK
6
CONTINUOUS
10
1.81287
20
0.272409
11
1.8171
21
0.275539
0
LINE
8
BLACK
6
CONTINUOUS
10
1.8171
20
0.275539
11
1.82207
21
0.277285
0
LINE
8
BLACK
6
CONTINUOUS
10
1.82207
20
0.277285
11
1.82539
21
0.277598
0
LINE
8
BLACK
6
CONTINUOUS
10
1.82539
20
0.277598
11
1.87461
21
0.277598
0
LINE
8
BLACK
6
CONTINUOUS
10
1.87461
20
0.277598
11
1.87793
21
0.277285
0
LINE
8
BLACK
6
CONTINUOUS
10
2.38793
20
0.287285
11
2.3929
21
0.285539
0
LINE
8
BLACK
6
CONTINUOUS
10
2.3929
20
0.285539
11
2.39713
21
0.282409
0
LINE
8
BLACK
6
CONTINUOUS
10
2.39713
20
0.282409
11
2.40026
21
0.278172
0
LINE
8
BLACK
6
CONTINUOUS
10
2.40026
20
0.278172
11
2.40201
21
0.273202
0
LINE
8
BLACK
6
CONTINUOUS
10
2.40201
20
0.273202
11
2.40232
21
0.269882
0
LINE
8
BLACK
6
CONTINUOUS
10
2.40232
20
0.269882
11
2.40232
21
0.240354
0
LINE
8
BLACK
6
CONTINUOUS
10
2.40232
20
0.240354
11
2.40201
21
0.237035
0
LINE
8
BLACK
6
CONTINUOUS
10
2.40201
20
0.237035
11
2.40026
21
0.232064
0
LINE
8
BLACK
6
CONTINUOUS
10
2.40026
20
0.232064
11
2.39713
21
0.227827
0
LINE
8
BLACK
6
CONTINUOUS
10
2.39713
20
0.227827
11
2.3929
21
0.224697
0
LINE
8
BLACK
6
CONTINUOUS
10
2.3929
20
0.224697
11
2.38793
21
0.222952
0
LINE
8
BLACK
6
CONTINUOUS
10
2.38793
20
0.222952
11
2.38461
21
0.222638
0
LINE
8
BLACK
6
CONTINUOUS
10
2.38461
20
0.222638
11
2.33539
21
0.222638
0
LINE
8
BLACK
6
CONTINUOUS
10
2.33539
20
0.222638
11
2.33207
21
0.222952
0
LINE
8
BLACK
6
CONTINUOUS
10
2.33207
20
0.222952
11
2.3271
21
0.224697
0
LINE
8
BLACK
6
CONTINUOUS
10
2.3271
20
0.224697
11
2.32287
21
0.227827
0
LINE
8
BLACK
6
CONTINUOUS
10
2.32287
20
0.227827
11
2.31974
21
0.232064
0
LINE
8
BLACK
6
CONTINUOUS
10
2.31974
20
0.232064
11
2.31799
21
0.237035
0
LINE
8
BLACK
6
CONTINUOUS
10
2.31799
20
0.237035
11
2.31768
21
0.240354
0
LINE
8
BLACK
6
CONTINUOUS
10
2.31768
20
0.240354
11
2.31768
21
0.269882
0
LINE
8
BLACK
6
CONTINUOUS
10
2.31768
20
0.269882
11
2.31799
21
0.273202
0
LINE
8
BLACK
6
CONTINUOUS
10
2.31799
20
0.273202
11
2.31974
21
0.278172
0
LINE
8
BLACK
6
CONTINUOUS
10
2.31974
20
0.278172
11
2.32287
21
0.282409
0
LINE
8
BLACK
6
CONTINUOUS
10
2.32287
20
0.282409
11
2.3271
21
0.285539
0
LINE
8
BLACK
6
CONTINUOUS
10
2.3271
20
0.285539
11
2.33207
21
0.287285
0
LINE
8
BLACK
6
CONTINUOUS
10
2.33207
20
0.287285
11
2.33539
21
0.287598
0
LINE
8
BLACK
6
CONTINUOUS
10
2.33539
20
0.287598
11
2.38461
21
0.287598
0
LINE
8
BLACK
6
CONTINUOUS
10
2.38461
20
0.287598
11
2.38793
21
0.287285
0
LINE
8
BLACK
6
CONTINUOUS
10
2.73793
20
0.297285
11
2.7429
21
0.295539
0
LINE
8
BLACK
6
CONTINUOUS
10
2.7429
20
0.295539
11
2.74713
21
0.292409
0
LINE
8
BLACK
6
CONTINUOUS
10
2.74713
20
0.292409
11
2.75026
21
0.288172
0
LINE
8
BLACK
6
CONTINUOUS
10
2.75026
20
0.288172
11
2.75201
21
0.283202
0
LINE
8
BLACK
6
CONTINUOUS
10
2.75201
20
0.283202
11
2.75232
21
0.279882
0
LINE
8
BLACK
6
CONTINUOUS
10
2.75232
20
0.279882
11
2.75232
21
0.250354
0
LINE
8
BLACK
6
CONTINUOUS
10
2.75232
20
0.250354
11
2.75201
21
0.247035
0
LINE
8
BLACK
6
CONTINUOUS
10
2.75201
20
0.247035
11
2.75026
21
0.242064
0
LINE
8
BLACK
6
CONTINUOUS
10
2.75026
20
0.242064
11
2.74713
21
0.237827
0
LINE
8
BLACK
6
CONTINUOUS
10
2.74713
20
0.237827
11
2.7429
21
0.234697
0
LINE
8
BLACK
6
CONTINUOUS
10
2.7429
20
0.234697
11
2.73793
21
0.232952
0
LINE
8
BLACK
6
CONTINUOUS
10
2.73793
20
0.232952
11
2.73461
21
0.232638
0
LINE
8
BLACK
6
CONTINUOUS
10
2.73461
20
0.232638
11
2.68539
21
0.232638
0
LINE
8
BLACK
6
CONTINUOUS
10
2.68539
20
0.232638
11
2.68207
21
0.232952
0
LINE
8
BLACK
6
CONTINUOUS
10
2.68207
20
0.232952
11
2.6771
21
0.234697
0
LINE
8
BLACK
6
CONTINUOUS
10
2.6771
20
0.234697
11
2.67287
21
0.237827
0
LINE
8
BLACK
6
CONTINUOUS
10
2.67287
20
0.237827
11
2.66974
21
0.242064
0
LINE
8
BLACK
6
CONTINUOUS
10
2.66974
20
0.242064
11
2.66799
21
0.247035
0
LINE
8
BLACK
6
CONTINUOUS
10
2.66799
20
0.247035
11
2.66768
21
0.250354
0
LINE
8
BLACK
6
CONTINUOUS
10
2.66768
20
0.250354
11
2.66768
21
0.279882
0
LINE
8
BLACK
6
CONTINUOUS
10
2.66768
20
0.279882
11
2.66799
21
0.283202
0
LINE
8
BLACK
6
CONTINUOUS
10
2.66799
20
0.283202
11
2.66974
21
0.288172
0
LINE
8
BLACK
6
CONTINUOUS
10
2.66974
20
0.288172
11
2.67287
21
0.292409
0
LINE
8
BLACK
6
CONTINUOUS
10
2.67287
20
0.292409
11
2.6771
21
0.295539
0
LINE
8
BLACK
6
CONTINUOUS
10
2.6771
20
0.295539
11
2.68207
21
0.297285
0
LINE
8
BLACK
6
CONTINUOUS
10
2.68207
20
0.297285
11
2.68539
21
0.297598
0
LINE
8
BLACK
6
CONTINUOUS
10
2.68539
20
0.297598
11
2.73461
21
0.297598
0
LINE
8
BLACK
6
CONTINUOUS
10
2.73461
20
0.297598
11
2.73793
21
0.297285
0
LINE
8
BLACK
6
CONTINUOUS
10
3.34047
20
0.399197
11
3.34545
21
0.397132
0
LINE
8
BLACK
6
CONTINUOUS
10
3.34545
20
0.397132
11
3.34973
21
0.393848
0
LINE
8
BLACK
6
CONTINUOUS
10
3.34973
20
0.393848
11
3.35302
21
0.389567
0
LINE
8
BLACK
6
CONTINUOUS
10
3.35302
20
0.389567
11
3.35508
21
0.384582
0
LINE
8
BLACK
6
CONTINUOUS
10
3.35508
20
0.384582
11
3.35579
21
0.379232
0
LINE
8
BLACK
6
CONTINUOUS
10
3.35579
20
0.379232
11
3.35508
21
0.373883
0
LINE
8
BLACK
6
CONTINUOUS
10
3.35508
20
0.373883
11
3.35302
21
0.368898
0
LINE
8
BLACK
6
CONTINUOUS
10
3.35302
20
0.368898
11
3.34973
21
0.364617
0
LINE
8
BLACK
6
CONTINUOUS
10
3.34973
20
0.364617
11
3.34545
21
0.361332
0
LINE
8
BLACK
6
CONTINUOUS
10
3.34545
20
0.361332
11
3.34047
21
0.359267
0
LINE
8
BLACK
6
CONTINUOUS
10
3.34047
20
0.359267
11
3.33512
21
0.358563
0
LINE
8
BLACK
6
CONTINUOUS
10
3.33512
20
0.358563
11
3.32977
21
0.359267
0
LINE
8
BLACK
6
CONTINUOUS
10
3.32977
20
0.359267
11
3.32478
21
0.361332
0
LINE
8
BLACK
6
CONTINUOUS
10
3.32478
20
0.361332
11
3.3205
21
0.364617
0
LINE
8
BLACK
6
CONTINUOUS
10
3.3205
20
0.364617
11
3.31722
21
0.368898
0
LINE
8
BLACK
6
CONTINUOUS
10
3.31722
20
0.368898
11
3.31515
21
0.373883
0
LINE
8
BLACK
6
CONTINUOUS
10
3.31515
20
0.373883
11
3.31445
21
0.379232
0
LINE
8
BLACK
6
CONTINUOUS
10
3.31445
20
0.379232
11
3.31515
21
0.384582
0
LINE
8
BLACK
6
CONTINUOUS
10
3.31515
20
0.384582
11
3.31722
21
0.389567
0
LINE
8
BLACK
6
CONTINUOUS
10
3.31722
20
0.389567
11
3.3205
21
0.393848
0
LINE
8
BLACK
6
CONTINUOUS
10
3.3205
20
0.393848
11
3.32478
21
0.397132
0
LINE
8
BLACK
6
CONTINUOUS
10
3.32478
20
0.397132
11
3.32977
21
0.399197
0
LINE
8
BLACK
6
CONTINUOUS
10
3.32977
20
0.399197
11
3.33512
21
0.399902
0
LINE
8
BLACK
6
CONTINUOUS
10
3.33512
20
0.399902
11
3.34047
21
0.399197
0
LINE
8
BLACK
6
CONTINUOUS
10
2.40404
20
0.507078
11
2.40659
21
0.505371
0
LINE
8
BLACK
6
CONTINUOUS
10
2.40659
20
0.505371
11
2.4083
21
0.502816
0
LINE
8
BLACK
6
CONTINUOUS
10
2.4083
20
0.502816
11
2.4089
21
0.499803
0
LINE
8
BLACK
6
CONTINUOUS
10
2.4089
20
0.499803
11
2.4089
21
0.401378
0
LINE
8
BLACK
6
CONTINUOUS
10
2.4089
20
0.401378
11
2.4083
21
0.398365
0
LINE
8
BLACK
6
CONTINUOUS
10
2.4083
20
0.398365
11
2.40659
21
0.39581
0
LINE
8
BLACK
6
CONTINUOUS
10
2.40659
20
0.39581
11
2.40404
21
0.394103
0
LINE
8
BLACK
6
CONTINUOUS
10
2.40404
20
0.394103
11
2.40102
21
0.393504
0
LINE
8
BLACK
6
CONTINUOUS
10
2.40102
20
0.393504
11
2.20417
21
0.393504
0
LINE
8
BLACK
6
CONTINUOUS
10
2.20417
20
0.393504
11
2.20116
21
0.394103
0
LINE
8
BLACK
6
CONTINUOUS
10
2.20116
20
0.394103
11
2.19861
21
0.39581
0
LINE
8
BLACK
6
CONTINUOUS
10
2.19861
20
0.39581
11
2.1969
21
0.398365
0
LINE
8
BLACK
6
CONTINUOUS
10
2.1969
20
0.398365
11
2.1963
21
0.401378
0
LINE
8
BLACK
6
CONTINUOUS
10
2.1963
20
0.401378
11
2.1963
21
0.499803
0
LINE
8
BLACK
6
CONTINUOUS
10
2.1963
20
0.499803
11
2.1969
21
0.502816
0
LINE
8
BLACK
6
CONTINUOUS
10
2.1969
20
0.502816
11
2.19861
21
0.505371
0
LINE
8
BLACK
6
CONTINUOUS
10
2.19861
20
0.505371
11
2.20116
21
0.507078
0
LINE
8
BLACK
6
CONTINUOUS
10
2.20116
20
0.507078
11
2.20417
21
0.507677
0
LINE
8
BLACK
6
CONTINUOUS
10
2.20417
20
0.507677
11
2.40102
21
0.507677
0
LINE
8
BLACK
6
CONTINUOUS
10
2.40102
20
0.507677
11
2.40404
21
0.507078
0
LINE
8
BLACK
6
CONTINUOUS
10
3.59301
20
0.507078
11
3.59557
21
0.505371
0
LINE
8
BLACK
6
CONTINUOUS
10
3.59557
20
0.505371
11
3.59727
21
0.502816
0
LINE
8
BLACK
6
CONTINUOUS
10
3.59727
20
0.502816
11
3.59787
21
0.499803
0
LINE
8
BLACK
6
CONTINUOUS
10
3.59787
20
0.499803
11
3.59787
21
0.401378
0
LINE
8
BLACK
6
CONTINUOUS
10
3.59787
20
0.401378
11
3.59727
21
0.398365
0
LINE
8
BLACK
6
CONTINUOUS
10
3.59727
20
0.398365
11
3.59557
21
0.39581
0
LINE
8
BLACK
6
CONTINUOUS
10
3.59557
20
0.39581
11
3.59301
21
0.394103
0
LINE
8
BLACK
6
CONTINUOUS
10
3.59301
20
0.394103
11
3.59
21
0.393504
0
LINE
8
BLACK
6
CONTINUOUS
10
3.59
20
0.393504
11
3.39315
21
0.393504
0
LINE
8
BLACK
6
CONTINUOUS
10
3.39315
20
0.393504
11
3.39014
21
0.394103
0
LINE
8
BLACK
6
CONTINUOUS
10
3.39014
20
0.394103
11
3.38758
21
0.39581
0
LINE
8
BLACK
6
CONTINUOUS
10
3.38758
20
0.39581
11
3.38587
21
0.398365
0
LINE
8
BLACK
6
CONTINUOUS
10
3.38587
20
0.398365
11
3.38528
21
0.401378
0
LINE
8
BLACK
6
CONTINUOUS
10
3.38528
20
0.401378
11
3.38528
21
0.499803
0
LINE
8
BLACK
6
CONTINUOUS
10
3.38528
20
0.499803
11
3.38587
21
0.502816
0
LINE
8
BLACK
6
CONTINUOUS
10
3.38587
20
0.502816
11
3.38758
21
0.505371
0
LINE
8
BLACK
6
CONTINUOUS
10
3.38758
20
0.505371
11
3.39014
21
0.507078
0
LINE
8
BLACK
6
CONTINUOUS
10
3.39014
20
0.507078
11
3.39315
21
0.507677
0
LINE
8
BLACK
6
CONTINUOUS
10
3.39315
20
0.507677
11
3.59
21
0.507677
0
LINE
8
BLACK
6
CONTINUOUS
10
3.59
20
0.507677
11
3.59301
21
0.507078
0
LINE
8
BLACK
6
CONTINUOUS
10
3.33963
20
0.463856
11
3.34605
21
0.462285
0
LINE
8
BLACK
6
CONTINUOUS
10
3.34605
20
0.462285
11
3.35194
21
0.459278
0
LINE
8
BLACK
6
CONTINUOUS
10
3.35194
20
0.459278
11
3.35698
21
0.454998
0
LINE
8
BLACK
6
CONTINUOUS
10
3.35698
20
0.454998
11
3.3609
21
0.449674
0
LINE
8
BLACK
6
CONTINUOUS
10
3.3609
20
0.449674
11
3.36348
21
0.44359
0
LINE
8
BLACK
6
CONTINUOUS
10
3.36348
20
0.44359
11
3.3646
21
0.437075
0
LINE
8
BLACK
6
CONTINUOUS
10
3.3646
20
0.437075
11
3.36419
21
0.430477
0
LINE
8
BLACK
6
CONTINUOUS
10
3.36419
20
0.430477
11
3.36228
21
0.42415
0
LINE
8
BLACK
6
CONTINUOUS
10
3.36228
20
0.42415
11
3.35896
21
0.418433
0
LINE
8
BLACK
6
CONTINUOUS
10
3.35896
20
0.418433
11
3.35441
21
0.413634
0
LINE
8
BLACK
6
CONTINUOUS
10
3.35441
20
0.413634
11
3.34888
21
0.410009
0
LINE
8
BLACK
6
CONTINUOUS
10
3.34888
20
0.410009
11
3.34267
21
0.407754
0
LINE
8
BLACK
6
CONTINUOUS
10
3.34267
20
0.407754
11
3.3361
21
0.406988
0
LINE
8
BLACK
6
CONTINUOUS
10
3.3361
20
0.406988
11
3.29476
21
0.406988
0
LINE
8
BLACK
6
CONTINUOUS
10
3.29476
20
0.406988
11
3.29124
21
0.407207
0
LINE
8
BLACK
6
CONTINUOUS
10
3.29124
20
0.407207
11
3.28481
21
0.408778
0
LINE
8
BLACK
6
CONTINUOUS
10
3.28481
20
0.408778
11
3.27893
21
0.411785
0
LINE
8
BLACK
6
CONTINUOUS
10
3.27893
20
0.411785
11
3.27389
21
0.416065
0
LINE
8
BLACK
6
CONTINUOUS
10
3.27389
20
0.416065
11
3.26997
21
0.421389
0
LINE
8
BLACK
6
CONTINUOUS
10
3.26997
20
0.421389
11
3.26738
21
0.427473
0
LINE
8
BLACK
6
CONTINUOUS
10
3.26738
20
0.427473
11
3.26626
21
0.433988
0
LINE
8
BLACK
6
CONTINUOUS
10
3.26626
20
0.433988
11
3.26667
21
0.440586
0
LINE
8
BLACK
6
CONTINUOUS
10
3.26667
20
0.440586
11
3.26859
21
0.446913
0
LINE
8
BLACK
6
CONTINUOUS
10
3.26859
20
0.446913
11
3.27191
21
0.45263
0
LINE
8
BLACK
6
CONTINUOUS
10
3.27191
20
0.45263
11
3.27645
21
0.457429
0
LINE
8
BLACK
6
CONTINUOUS
10
3.27645
20
0.457429
11
3.28198
21
0.461054
0
LINE
8
BLACK
6
CONTINUOUS
10
3.28198
20
0.461054
11
3.2882
21
0.463309
0
LINE
8
BLACK
6
CONTINUOUS
10
3.2882
20
0.463309
11
3.29476
21
0.464075
0
LINE
8
BLACK
6
CONTINUOUS
10
3.29476
20
0.464075
11
3.3361
21
0.464075
0
LINE
8
BLACK
6
CONTINUOUS
10
3.3361
20
0.464075
11
3.33963
21
0.463856
0
LINE
8
BLACK
6
CONTINUOUS
10
2.19931
20
0.63444
11
2.20187
21
0.632733
0
LINE
8
BLACK
6
CONTINUOUS
10
2.20187
20
0.632733
11
2.20357
21
0.630179
0
LINE
8
BLACK
6
CONTINUOUS
10
2.20357
20
0.630179
11
2.20417
21
0.627165
0
LINE
8
BLACK
6
CONTINUOUS
10
2.20417
20
0.627165
11
2.20417
21
0.579921
0
LINE
8
BLACK
6
CONTINUOUS
10
2.20417
20
0.579921
11
2.20357
21
0.576908
0
LINE
8
BLACK
6
CONTINUOUS
10
2.20357
20
0.576908
11
2.20187
21
0.574354
0
LINE
8
BLACK
6
CONTINUOUS
10
2.20187
20
0.574354
11
2.19931
21
0.572647
0
LINE
8
BLACK
6
CONTINUOUS
10
2.19931
20
0.572647
11
2.1963
21
0.572047
0
LINE
8
BLACK
6
CONTINUOUS
10
2.1963
20
0.572047
11
2.13331
21
0.572047
0
LINE
8
BLACK
6
CONTINUOUS
10
2.13331
20
0.572047
11
2.13029
21
0.572647
0
LINE
8
BLACK
6
CONTINUOUS
10
2.13029
20
0.572647
11
2.12774
21
0.574354
0
LINE
8
BLACK
6
CONTINUOUS
10
2.12774
20
0.574354
11
2.12603
21
0.576908
0
LINE
8
BLACK
6
CONTINUOUS
10
2.12603
20
0.576908
11
2.12543
21
0.579921
0
LINE
8
BLACK
6
CONTINUOUS
10
2.12543
20
0.579921
11
2.12543
21
0.627165
0
LINE
8
BLACK
6
CONTINUOUS
10
2.12543
20
0.627165
11
2.12603
21
0.630179
0
LINE
8
BLACK
6
CONTINUOUS
10
2.12603
20
0.630179
11
2.12774
21
0.632733
0
LINE
8
BLACK
6
CONTINUOUS
10
2.12774
20
0.632733
11
2.13029
21
0.63444
0
LINE
8
BLACK
6
CONTINUOUS
10
2.13029
20
0.63444
11
2.13331
21
0.635039
0
LINE
8
BLACK
6
CONTINUOUS
10
2.13331
20
0.635039
11
2.1963
21
0.635039
0
LINE
8
BLACK
6
CONTINUOUS
10
2.1963
20
0.635039
11
2.19931
21
0.63444
0
LINE
8
BLACK
6
CONTINUOUS
10
2.19931
20
0.705306
11
2.20187
21
0.703599
0
LINE
8
BLACK
6
CONTINUOUS
10
2.20187
20
0.703599
11
2.20357
21
0.701045
0
LINE
8
BLACK
6
CONTINUOUS
10
2.20357
20
0.701045
11
2.20417
21
0.698031
0
LINE
8
BLACK
6
CONTINUOUS
10
2.20417
20
0.698031
11
2.20417
21
0.650787
0
LINE
8
BLACK
6
CONTINUOUS
10
2.20417
20
0.650787
11
2.20357
21
0.647774
0
LINE
8
BLACK
6
CONTINUOUS
10
2.20357
20
0.647774
11
2.20187
21
0.64522
0
LINE
8
BLACK
6
CONTINUOUS
10
2.20187
20
0.64522
11
2.19931
21
0.643513
0
LINE
8
BLACK
6
CONTINUOUS
10
2.19931
20
0.643513
11
2.1963
21
0.642913
0
LINE
8
BLACK
6
CONTINUOUS
10
2.1963
20
0.642913
11
2.13331
21
0.642913
0
LINE
8
BLACK
6
CONTINUOUS
10
2.13331
20
0.642913
11
2.13029
21
0.643513
0
LINE
8
BLACK
6
CONTINUOUS
10
2.13029
20
0.643513
11
2.12774
21
0.64522
0
LINE
8
BLACK
6
CONTINUOUS
10
2.12774
20
0.64522
11
2.12603
21
0.647774
0
LINE
8
BLACK
6
CONTINUOUS
10
2.12603
20
0.647774
11
2.12543
21
0.650787
0
LINE
8
BLACK
6
CONTINUOUS
10
2.12543
20
0.650787
11
2.12543
21
0.698031
0
LINE
8
BLACK
6
CONTINUOUS
10
2.12543
20
0.698031
11
2.12603
21
0.701045
0
LINE
8
BLACK
6
CONTINUOUS
10
2.12603
20
0.701045
11
2.12774
21
0.703599
0
LINE
8
BLACK
6
CONTINUOUS
10
2.12774
20
0.703599
11
2.13029
21
0.705306
0
LINE
8
BLACK
6
CONTINUOUS
10
2.13029
20
0.705306
11
2.13331
21
0.705906
0
LINE
8
BLACK
6
CONTINUOUS
10
2.13331
20
0.705906
11
2.1963
21
0.705906
0
LINE
8
BLACK
6
CONTINUOUS
10
2.1963
20
0.705906
11
2.19931
21
0.705306
0
LINE
8
BLACK
6
CONTINUOUS
10
1.75301
20
0.777275
11
1.75557
21
0.775568
0
LINE
8
BLACK
6
CONTINUOUS
10
1.75557
20
0.775568
11
1.75727
21
0.773013
0
LINE
8
BLACK
6
CONTINUOUS
10
1.75727
20
0.773013
11
1.75787
21
0.77
0
LINE
8
BLACK
6
CONTINUOUS
10
1.75787
20
0.77
11
1.75787
21
0.71
0
LINE
8
BLACK
6
CONTINUOUS
10
1.75787
20
0.71
11
1.75727
21
0.706987
0
LINE
8
BLACK
6
CONTINUOUS
10
1.75727
20
0.706987
11
1.75557
21
0.704432
0
LINE
8
BLACK
6
CONTINUOUS
10
1.75557
20
0.704432
11
1.75301
21
0.702725
0
LINE
8
BLACK
6
CONTINUOUS
10
1.75301
20
0.702725
11
1.75
21
0.702126
0
LINE
8
BLACK
6
CONTINUOUS
10
1.75
20
0.702126
11
1.69
21
0.702126
0
LINE
8
BLACK
6
CONTINUOUS
10
1.69
20
0.702126
11
1.68699
21
0.702725
0
LINE
8
BLACK
6
CONTINUOUS
10
1.68699
20
0.702725
11
1.68443
21
0.704432
0
LINE
8
BLACK
6
CONTINUOUS
10
1.68443
20
0.704432
11
1.68273
21
0.706987
0
LINE
8
BLACK
6
CONTINUOUS
10
1.68273
20
0.706987
11
1.68213
21
0.71
0
LINE
8
BLACK
6
CONTINUOUS
10
1.68213
20
0.71
11
1.68213
21
0.77
0
LINE
8
BLACK
6
CONTINUOUS
10
1.68213
20
0.77
11
1.68273
21
0.773013
0
LINE
8
BLACK
6
CONTINUOUS
10
1.68273
20
0.773013
11
1.68443
21
0.775568
0
LINE
8
BLACK
6
CONTINUOUS
10
1.68443
20
0.775568
11
1.68699
21
0.777275
0
LINE
8
BLACK
6
CONTINUOUS
10
1.68699
20
0.777275
11
1.69
21
0.777874
0
LINE
8
BLACK
6
CONTINUOUS
10
1.69
20
0.777874
11
1.75
21
0.777874
0
LINE
8
BLACK
6
CONTINUOUS
10
1.75
20
0.777874
11
1.75301
21
0.777275
0
LINE
8
BLACK
6
CONTINUOUS
10
1.65301
20
0.777275
11
1.65557
21
0.775568
0
LINE
8
BLACK
6
CONTINUOUS
10
1.65557
20
0.775568
11
1.65727
21
0.773013
0
LINE
8
BLACK
6
CONTINUOUS
10
1.65727
20
0.773013
11
1.65787
21
0.77
0
LINE
8
BLACK
6
CONTINUOUS
10
1.65787
20
0.77
11
1.65787
21
0.71
0
LINE
8
BLACK
6
CONTINUOUS
10
1.65787
20
0.71
11
1.65727
21
0.706987
0
LINE
8
BLACK
6
CONTINUOUS
10
1.65727
20
0.706987
11
1.65557
21
0.704432
0
LINE
8
BLACK
6
CONTINUOUS
10
1.65557
20
0.704432
11
1.65301
21
0.702725
0
LINE
8
BLACK
6
CONTINUOUS
10
1.65301
20
0.702725
11
1.65
21
0.702126
0
LINE
8
BLACK
6
CONTINUOUS
10
1.65
20
0.702126
11
1.59
21
0.702126
0
LINE
8
BLACK
6
CONTINUOUS
10
1.59
20
0.702126
11
1.58699
21
0.702725
0
LINE
8
BLACK
6
CONTINUOUS
10
1.58699
20
0.702725
11
1.58443
21
0.704432
0
LINE
8
BLACK
6
CONTINUOUS
10
1.58443
20
0.704432
11
1.58273
21
0.706987
0
LINE
8
BLACK
6
CONTINUOUS
10
1.58273
20
0.706987
11
1.58213
21
0.71
0
LINE
8
BLACK
6
CONTINUOUS
10
1.58213
20
0.71
11
1.58213
21
0.77
0
LINE
8
BLACK
6
CONTINUOUS
10
1.58213
20
0.77
11
1.58273
21
0.773013
0
LINE
8
BLACK
6
CONTINUOUS
10
1.58273
20
0.773013
11
1.58443
21
0.775568
0
LINE
8
BLACK
6
CONTINUOUS
10
1.58443
20
0.775568
11
1.58699
21
0.777275
0
LINE
8
BLACK
6
CONTINUOUS
10
1.58699
20
0.777275
11
1.59
21
0.777874
0
LINE
8
BLACK
6
CONTINUOUS
10
1.59
20
0.777874
11
1.65
21
0.777874
0
LINE
8
BLACK
6
CONTINUOUS
10
1.65
20
0.777874
11
1.65301
21
0.777275
0
LINE
8
BLACK
6
CONTINUOUS
10
2.19931
20
0.800975
11
2.20187
21
0.799269
0
LINE
8
BLACK
6
CONTINUOUS
10
2.20187
20
0.799269
11
2.20357
21
0.796714
0
LINE
8
BLACK
6
CONTINUOUS
10
2.20357
20
0.796714
11
2.20417
21
0.793701
0
LINE
8
BLACK
6
CONTINUOUS
10
2.20417
20
0.793701
11
2.20417
21
0.746457
0
LINE
8
BLACK
6
CONTINUOUS
10
2.20417
20
0.746457
11
2.20357
21
0.743443
0
LINE
8
BLACK
6
CONTINUOUS
10
2.20357
20
0.743443
11
2.20187
21
0.740889
0
LINE
8
BLACK
6
CONTINUOUS
10
2.20187
20
0.740889
11
2.19931
21
0.739182
0
LINE
8
BLACK
6
CONTINUOUS
10
2.19931
20
0.739182
11
2.1963
21
0.738583
0
LINE
8
BLACK
6
CONTINUOUS
10
2.1963
20
0.738583
11
2.13331
21
0.738583
0
LINE
8
BLACK
6
CONTINUOUS
10
2.13331
20
0.738583
11
2.13029
21
0.739182
0
LINE
8
BLACK
6
CONTINUOUS
10
2.13029
20
0.739182
11
2.12774
21
0.740889
0
LINE
8
BLACK
6
CONTINUOUS
10
2.12774
20
0.740889
11
2.12603
21
0.743443
0
LINE
8
BLACK
6
CONTINUOUS
10
2.12603
20
0.743443
11
2.12543
21
0.746457
0
LINE
8
BLACK
6
CONTINUOUS
10
2.12543
20
0.746457
11
2.12543
21
0.793701
0
LINE
8
BLACK
6
CONTINUOUS
10
2.12543
20
0.793701
11
2.12603
21
0.796714
0
LINE
8
BLACK
6
CONTINUOUS
10
2.12603
20
0.796714
11
2.12774
21
0.799269
0
LINE
8
BLACK
6
CONTINUOUS
10
2.12774
20
0.799269
11
2.13029
21
0.800975
0
LINE
8
BLACK
6
CONTINUOUS
10
2.13029
20
0.800975
11
2.13331
21
0.801575
0
LINE
8
BLACK
6
CONTINUOUS
10
2.13331
20
0.801575
11
2.1963
21
0.801575
0
LINE
8
BLACK
6
CONTINUOUS
10
2.1963
20
0.801575
11
2.19931
21
0.800975
0
LINE
8
BLACK
6
CONTINUOUS
10
2.08272
20
0.850804
11
2.08711
21
0.848567
0
LINE
8
BLACK
6
CONTINUOUS
10
2.08711
20
0.848567
11
2.09059
21
0.845083
0
LINE
8
BLACK
6
CONTINUOUS
10
2.09059
20
0.845083
11
2.09283
21
0.840693
0
LINE
8
BLACK
6
CONTINUOUS
10
2.09283
20
0.840693
11
2.0936
21
0.835827
0
LINE
8
BLACK
6
CONTINUOUS
10
2.0936
20
0.835827
11
2.0936
21
0.814173
0
LINE
8
BLACK
6
CONTINUOUS
10
2.0936
20
0.814173
11
2.09283
21
0.809307
0
LINE
8
BLACK
6
CONTINUOUS
10
2.09283
20
0.809307
11
2.09059
21
0.804917
0
LINE
8
BLACK
6
CONTINUOUS
10
2.09059
20
0.804917
11
2.08711
21
0.801433
0
LINE
8
BLACK
6
CONTINUOUS
10
2.08711
20
0.801433
11
2.08272
21
0.799196
0
LINE
8
BLACK
6
CONTINUOUS
10
2.08272
20
0.799196
11
2.07785
21
0.798425
0
LINE
8
BLACK
6
CONTINUOUS
10
2.07785
20
0.798425
11
2.06211
21
0.798425
0
LINE
8
BLACK
6
CONTINUOUS
10
2.06211
20
0.798425
11
2.05724
21
0.799196
0
LINE
8
BLACK
6
CONTINUOUS
10
2.05724
20
0.799196
11
2.05285
21
0.801433
0
LINE
8
BLACK
6
CONTINUOUS
10
2.05285
20
0.801433
11
2.04937
21
0.804917
0
LINE
8
BLACK
6
CONTINUOUS
10
2.04937
20
0.804917
11
2.04713
21
0.809307
0
LINE
8
BLACK
6
CONTINUOUS
10
2.04713
20
0.809307
11
2.04636
21
0.814173
0
LINE
8
BLACK
6
CONTINUOUS
10
2.04636
20
0.814173
11
2.04636
21
0.835827
0
LINE
8
BLACK
6
CONTINUOUS
10
2.04636
20
0.835827
11
2.04713
21
0.840693
0
LINE
8
BLACK
6
CONTINUOUS
10
2.04713
20
0.840693
11
2.04937
21
0.845083
0
LINE
8
BLACK
6
CONTINUOUS
10
2.04937
20
0.845083
11
2.05285
21
0.848567
0
LINE
8
BLACK
6
CONTINUOUS
10
2.05285
20
0.848567
11
2.05724
21
0.850804
0
LINE
8
BLACK
6
CONTINUOUS
10
2.05724
20
0.850804
11
2.06211
21
0.851575
0
LINE
8
BLACK
6
CONTINUOUS
10
2.06211
20
0.851575
11
2.07785
21
0.851575
0
LINE
8
BLACK
6
CONTINUOUS
10
2.07785
20
0.851575
11
2.08272
21
0.850804
0
LINE
8
BLACK
6
CONTINUOUS
10
2.01776
20
0.850804
11
2.02215
21
0.848567
0
LINE
8
BLACK
6
CONTINUOUS
10
2.02215
20
0.848567
11
2.02563
21
0.845083
0
LINE
8
BLACK
6
CONTINUOUS
10
2.02563
20
0.845083
11
2.02787
21
0.840693
0
LINE
8
BLACK
6
CONTINUOUS
10
2.02787
20
0.840693
11
2.02864
21
0.835827
0
LINE
8
BLACK
6
CONTINUOUS
10
2.02864
20
0.835827
11
2.02864
21
0.814173
0
LINE
8
BLACK
6
CONTINUOUS
10
2.02864
20
0.814173
11
2.02787
21
0.809307
0
LINE
8
BLACK
6
CONTINUOUS
10
2.02787
20
0.809307
11
2.02563
21
0.804917
0
LINE
8
BLACK
6
CONTINUOUS
10
2.02563
20
0.804917
11
2.02215
21
0.801433
0
LINE
8
BLACK
6
CONTINUOUS
10
2.02215
20
0.801433
11
2.01776
21
0.799196
0
LINE
8
BLACK
6
CONTINUOUS
10
2.01776
20
0.799196
11
2.01289
21
0.798425
0
LINE
8
BLACK
6
CONTINUOUS
10
2.01289
20
0.798425
11
1.99715
21
0.798425
0
LINE
8
BLACK
6
CONTINUOUS
10
1.99715
20
0.798425
11
1.99228
21
0.799196
0
LINE
8
BLACK
6
CONTINUOUS
10
1.99228
20
0.799196
11
1.98789
21
0.801433
0
LINE
8
BLACK
6
CONTINUOUS
10
1.98789
20
0.801433
11
1.98441
21
0.804917
0
LINE
8
BLACK
6
CONTINUOUS
10
1.98441
20
0.804917
11
1.98217
21
0.809307
0
LINE
8
BLACK
6
CONTINUOUS
10
1.98217
20
0.809307
11
1.9814
21
0.814173
0
LINE
8
BLACK
6
CONTINUOUS
10
1.9814
20
0.814173
11
1.9814
21
0.835827
0
LINE
8
BLACK
6
CONTINUOUS
10
1.9814
20
0.835827
11
1.98217
21
0.840693
0
LINE
8
BLACK
6
CONTINUOUS
10
1.98217
20
0.840693
11
1.98441
21
0.845083
0
LINE
8
BLACK
6
CONTINUOUS
10
1.98441
20
0.845083
11
1.98789
21
0.848567
0
LINE
8
BLACK
6
CONTINUOUS
10
1.98789
20
0.848567
11
1.99228
21
0.850804
0
LINE
8
BLACK
6
CONTINUOUS
10
1.99228
20
0.850804
11
1.99715
21
0.851575
0
LINE
8
BLACK
6
CONTINUOUS
10
1.99715
20
0.851575
11
2.01289
21
0.851575
0
LINE
8
BLACK
6
CONTINUOUS
10
2.01289
20
0.851575
11
2.01776
21
0.850804
0
LINE
8
BLACK
6
CONTINUOUS
10
1.65301
20
0.877275
11
1.65557
21
0.875568
0
LINE
8
BLACK
6
CONTINUOUS
10
1.65557
20
0.875568
11
1.65727
21
0.873013
0
LINE
8
BLACK
6
CONTINUOUS
10
1.65727
20
0.873013
11
1.65787
21
0.87
0
LINE
8
BLACK
6
CONTINUOUS
10
1.65787
20
0.87
11
1.65787
21
0.81
0
LINE
8
BLACK
6
CONTINUOUS
10
1.65787
20
0.81
11
1.65727
21
0.806987
0
LINE
8
BLACK
6
CONTINUOUS
10
1.65727
20
0.806987
11
1.65557
21
0.804432
0
LINE
8
BLACK
6
CONTINUOUS
10
1.65557
20
0.804432
11
1.65301
21
0.802725
0
LINE
8
BLACK
6
CONTINUOUS
10
1.65301
20
0.802725
11
1.65
21
0.802126
0
LINE
8
BLACK
6
CONTINUOUS
10
1.65
20
0.802126
11
1.59
21
0.802126
0
LINE
8
BLACK
6
CONTINUOUS
10
1.59
20
0.802126
11
1.58699
21
0.802725
0
LINE
8
BLACK
6
CONTINUOUS
10
1.58699
20
0.802725
11
1.58443
21
0.804432
0
LINE
8
BLACK
6
CONTINUOUS
10
1.58443
20
0.804432
11
1.58273
21
0.806987
0
LINE
8
BLACK
6
CONTINUOUS
10
1.58273
20
0.806987
11
1.58213
21
0.81
0
LINE
8
BLACK
6
CONTINUOUS
10
1.58213
20
0.81
11
1.58213
21
0.87
0
LINE
8
BLACK
6
CONTINUOUS
10
1.58213
20
0.87
11
1.58273
21
0.873013
0
LINE
8
BLACK
6
CONTINUOUS
10
1.58273
20
0.873013
11
1.58443
21
0.875568
0
LINE
8
BLACK
6
CONTINUOUS
10
1.58443
20
0.875568
11
1.58699
21
0.877275
0
LINE
8
BLACK
6
CONTINUOUS
10
1.58699
20
0.877275
11
1.59
21
0.877874
0
LINE
8
BLACK
6
CONTINUOUS
10
1.59
20
0.877874
11
1.65
21
0.877874
0
LINE
8
BLACK
6
CONTINUOUS
10
1.65
20
0.877874
11
1.65301
21
0.877275
0
LINE
8
BLACK
6
CONTINUOUS
10
1.75301
20
0.877275
11
1.75557
21
0.875568
0
LINE
8
BLACK
6
CONTINUOUS
10
1.75557
20
0.875568
11
1.75727
21
0.873013
0
LINE
8
BLACK
6
CONTINUOUS
10
1.75727
20
0.873013
11
1.75787
21
0.87
0
LINE
8
BLACK
6
CONTINUOUS
10
1.75787
20
0.87
11
1.75787
21
0.81
0
LINE
8
BLACK
6
CONTINUOUS
10
1.75787
20
0.81
11
1.75727
21
0.806987
0
LINE
8
BLACK
6
CONTINUOUS
10
1.75727
20
0.806987
11
1.75557
21
0.804432
0
LINE
8
BLACK
6
CONTINUOUS
10
1.75557
20
0.804432
11
1.75301
21
0.802725
0
LINE
8
BLACK
6
CONTINUOUS
10
1.75301
20
0.802725
11
1.75
21
0.802126
0
LINE
8
BLACK
6
CONTINUOUS
10
1.75
20
0.802126
11
1.69
21
0.802126
0
LINE
8
BLACK
6
CONTINUOUS
10
1.69
20
0.802126
11
1.68699
21
0.802725
0
LINE
8
BLACK
6
CONTINUOUS
10
1.68699
20
0.802725
11
1.68443
21
0.804432
0
LINE
8
BLACK
6
CONTINUOUS
10
1.68443
20
0.804432
11
1.68273
21
0.806987
0
LINE
8
BLACK
6
CONTINUOUS
10
1.68273
20
0.806987
11
1.68213
21
0.81
0
LINE
8
BLACK
6
CONTINUOUS
10
1.68213
20
0.81
11
1.68213
21
0.87
0
LINE
8
BLACK
6
CONTINUOUS
10
1.68213
20
0.87
11
1.68273
21
0.873013
0
LINE
8
BLACK
6
CONTINUOUS
10
1.68273
20
0.873013
11
1.68443
21
0.875568
0
LINE
8
BLACK
6
CONTINUOUS
10
1.68443
20
0.875568
11
1.68699
21
0.877275
0
LINE
8
BLACK
6
CONTINUOUS
10
1.68699
20
0.877275
11
1.69
21
0.877874
0
LINE
8
BLACK
6
CONTINUOUS
10
1.69
20
0.877874
11
1.75
21
0.877874
0
LINE
8
BLACK
6
CONTINUOUS
10
1.75
20
0.877874
11
1.75301
21
0.877275
0
LINE
8
BLACK
6
CONTINUOUS
10
2.19931
20
0.899401
11
2.20187
21
0.897694
0
LINE
8
BLACK
6
CONTINUOUS
10
2.20187
20
0.897694
11
2.20357
21
0.895139
0
LINE
8
BLACK
6
CONTINUOUS
10
2.20357
20
0.895139
11
2.20417
21
0.892126
0
LINE
8
BLACK
6
CONTINUOUS
10
2.20417
20
0.892126
11
2.20417
21
0.844882
0
LINE
8
BLACK
6
CONTINUOUS
10
2.20417
20
0.844882
11
2.20357
21
0.841869
0
LINE
8
BLACK
6
CONTINUOUS
10
2.20357
20
0.841869
11
2.20187
21
0.839314
0
LINE
8
BLACK
6
CONTINUOUS
10
2.20187
20
0.839314
11
2.19931
21
0.837607
0
LINE
8
BLACK
6
CONTINUOUS
10
2.19931
20
0.837607
11
2.1963
21
0.837008
0
LINE
8
BLACK
6
CONTINUOUS
10
2.1963
20
0.837008
11
2.13331
21
0.837008
0
LINE
8
BLACK
6
CONTINUOUS
10
2.13331
20
0.837008
11
2.13029
21
0.837607
0
LINE
8
BLACK
6
CONTINUOUS
10
2.13029
20
0.837607
11
2.12774
21
0.839314
0
LINE
8
BLACK
6
CONTINUOUS
10
2.12774
20
0.839314
11
2.12603
21
0.841869
0
LINE
8
BLACK
6
CONTINUOUS
10
2.12603
20
0.841869
11
2.12543
21
0.844882
0
LINE
8
BLACK
6
CONTINUOUS
10
2.12543
20
0.844882
11
2.12543
21
0.892126
0
LINE
8
BLACK
6
CONTINUOUS
10
2.12543
20
0.892126
11
2.12603
21
0.895139
0
LINE
8
BLACK
6
CONTINUOUS
10
2.12603
20
0.895139
11
2.12774
21
0.897694
0
LINE
8
BLACK
6
CONTINUOUS
10
2.12774
20
0.897694
11
2.13029
21
0.899401
0
LINE
8
BLACK
6
CONTINUOUS
10
2.13029
20
0.899401
11
2.13331
21
0.9
0
LINE
8
BLACK
6
CONTINUOUS
10
2.13331
20
0.9
11
2.1963
21
0.9
0
LINE
8
BLACK
6
CONTINUOUS
10
2.1963
20
0.9
11
2.19931
21
0.899401
0
LINE
8
BLACK
6
CONTINUOUS
10
1.65301
20
0.977275
11
1.65557
21
0.975568
0
LINE
8
BLACK
6
CONTINUOUS
10
1.65557
20
0.975568
11
1.65727
21
0.973013
0
LINE
8
BLACK
6
CONTINUOUS
10
1.65727
20
0.973013
11
1.65787
21
0.97
0
LINE
8
BLACK
6
CONTINUOUS
10
1.65787
20
0.97
11
1.65787
21
0.91
0
LINE
8
BLACK
6
CONTINUOUS
10
1.65787
20
0.91
11
1.65727
21
0.906987
0
LINE
8
BLACK
6
CONTINUOUS
10
1.65727
20
0.906987
11
1.65557
21
0.904432
0
LINE
8
BLACK
6
CONTINUOUS
10
1.65557
20
0.904432
11
1.65301
21
0.902725
0
LINE
8
BLACK
6
CONTINUOUS
10
1.65301
20
0.902725
11
1.65
21
0.902126
0
LINE
8
BLACK
6
CONTINUOUS
10
1.65
20
0.902126
11
1.59
21
0.902126
0
LINE
8
BLACK
6
CONTINUOUS
10
1.59
20
0.902126
11
1.58699
21
0.902725
0
LINE
8
BLACK
6
CONTINUOUS
10
1.58699
20
0.902725
11
1.58443
21
0.904432
0
LINE
8
BLACK
6
CONTINUOUS
10
1.58443
20
0.904432
11
1.58273
21
0.906987
0
LINE
8
BLACK
6
CONTINUOUS
10
1.58273
20
0.906987
11
1.58213
21
0.91
0
LINE
8
BLACK
6
CONTINUOUS
10
1.58213
20
0.91
11
1.58213
21
0.97
0
LINE
8
BLACK
6
CONTINUOUS
10
1.58213
20
0.97
11
1.58273
21
0.973013
0
LINE
8
BLACK
6
CONTINUOUS
10
1.58273
20
0.973013
11
1.58443
21
0.975568
0
LINE
8
BLACK
6
CONTINUOUS
10
1.58443
20
0.975568
11
1.58699
21
0.977275
0
LINE
8
BLACK
6
CONTINUOUS
10
1.58699
20
0.977275
11
1.59
21
0.977874
0
LINE
8
BLACK
6
CONTINUOUS
10
1.59
20
0.977874
11
1.65
21
0.977874
0
LINE
8
BLACK
6
CONTINUOUS
10
1.65
20
0.977874
11
1.65301
21
0.977275
0
LINE
8
BLACK
6
CONTINUOUS
10
1.75301
20
0.977275
11
1.75557
21
0.975568
0
LINE
8
BLACK
6
CONTINUOUS
10
1.75557
20
0.975568
11
1.75727
21
0.973013
0
LINE
8
BLACK
6
CONTINUOUS
10
1.75727
20
0.973013
11
1.75787
21
0.97
0
LINE
8
BLACK
6
CONTINUOUS
10
1.75787
20
0.97
11
1.75787
21
0.91
0
LINE
8
BLACK
6
CONTINUOUS
10
1.75787
20
0.91
11
1.75727
21
0.906987
0
LINE
8
BLACK
6
CONTINUOUS
10
1.75727
20
0.906987
11
1.75557
21
0.904432
0
LINE
8
BLACK
6
CONTINUOUS
10
1.75557
20
0.904432
11
1.75301
21
0.902725
0
LINE
8
BLACK
6
CONTINUOUS
10
1.75301
20
0.902725
11
1.75
21
0.902126
0
LINE
8
BLACK
6
CONTINUOUS
10
1.75
20
0.902126
11
1.69
21
0.902126
0
LINE
8
BLACK
6
CONTINUOUS
10
1.69
20
0.902126
11
1.68699
21
0.902725
0
LINE
8
BLACK
6
CONTINUOUS
10
1.68699
20
0.902725
11
1.68443
21
0.904432
0
LINE
8
BLACK
6
CONTINUOUS
10
1.68443
20
0.904432
11
1.68273
21
0.906987
0
LINE
8
BLACK
6
CONTINUOUS
10
1.68273
20
0.906987
11
1.68213
21
0.91
0
LINE
8
BLACK
6
CONTINUOUS
10
1.68213
20
0.91
11
1.68213
21
0.97
0
LINE
8
BLACK
6
CONTINUOUS
10
1.68213
20
0.97
11
1.68273
21
0.973013
0
LINE
8
BLACK
6
CONTINUOUS
10
1.68273
20
0.973013
11
1.68443
21
0.975568
0
LINE
8
BLACK
6
CONTINUOUS
10
1.68443
20
0.975568
11
1.68699
21
0.977275
0
LINE
8
BLACK
6
CONTINUOUS
10
1.68699
20
0.977275
11
1.69
21
0.977874
0
LINE
8
BLACK
6
CONTINUOUS
10
1.69
20
0.977874
11
1.75
21
0.977874
0
LINE
8
BLACK
6
CONTINUOUS
10
1.75
20
0.977874
11
1.75301
21
0.977275
0
LINE
8
BLACK
6
CONTINUOUS
10
2.19931
20
0.997826
11
2.20187
21
0.996119
0
LINE
8
BLACK
6
CONTINUOUS
10
2.20187
20
0.996119
11
2.20357
21
0.993564
0
LINE
8
BLACK
6
CONTINUOUS
10
2.20357
20
0.993564
11
2.20417
21
0.990551
0
LINE
8
BLACK
6
CONTINUOUS
10
2.20417
20
0.990551
11
2.20417
21
0.943307
0
LINE
8
BLACK
6
CONTINUOUS
10
2.20417
20
0.943307
11
2.20357
21
0.940294
0
LINE
8
BLACK
6
CONTINUOUS
10
2.20357
20
0.940294
11
2.20187
21
0.937739
0
LINE
8
BLACK
6
CONTINUOUS
10
2.20187
20
0.937739
11
2.19931
21
0.936032
0
LINE
8
BLACK
6
CONTINUOUS
10
2.19931
20
0.936032
11
2.1963
21
0.935433
0
LINE
8
BLACK
6
CONTINUOUS
10
2.1963
20
0.935433
11
2.13331
21
0.935433
0
LINE
8
BLACK
6
CONTINUOUS
10
2.13331
20
0.935433
11
2.13029
21
0.936032
0
LINE
8
BLACK
6
CONTINUOUS
10
2.13029
20
0.936032
11
2.12774
21
0.937739
0
LINE
8
BLACK
6
CONTINUOUS
10
2.12774
20
0.937739
11
2.12603
21
0.940294
0
LINE
8
BLACK
6
CONTINUOUS
10
2.12603
20
0.940294
11
2.12543
21
0.943307
0
LINE
8
BLACK
6
CONTINUOUS
10
2.12543
20
0.943307
11
2.12543
21
0.990551
0
LINE
8
BLACK
6
CONTINUOUS
10
2.12543
20
0.990551
11
2.12603
21
0.993564
0
LINE
8
BLACK
6
CONTINUOUS
10
2.12603
20
0.993564
11
2.12774
21
0.996119
0
LINE
8
BLACK
6
CONTINUOUS
10
2.12774
20
0.996119
11
2.13029
21
0.997826
0
LINE
8
BLACK
6
CONTINUOUS
10
2.13029
20
0.997826
11
2.13331
21
0.998425
0
LINE
8
BLACK
6
CONTINUOUS
10
2.13331
20
0.998425
11
2.1963
21
0.998425
0
LINE
8
BLACK
6
CONTINUOUS
10
2.1963
20
0.998425
11
2.19931
21
0.997826
0
LINE
8
BLACK
6
CONTINUOUS
10
2.08272
20
1.0408
11
2.08711
21
1.03857
0
LINE
8
BLACK
6
CONTINUOUS
10
2.08711
20
1.03857
11
2.09059
21
1.03508
0
LINE
8
BLACK
6
CONTINUOUS
10
2.09059
20
1.03508
11
2.09283
21
1.03069
0
LINE
8
BLACK
6
CONTINUOUS
10
2.09283
20
1.03069
11
2.0936
21
1.02583
0
LINE
8
BLACK
6
CONTINUOUS
10
2.0936
20
1.02583
11
2.0936
21
1.00417
0
LINE
8
BLACK
6
CONTINUOUS
10
2.0936
20
1.00417
11
2.09283
21
0.999307
0
LINE
8
BLACK
6
CONTINUOUS
10
2.09283
20
0.999307
11
2.09059
21
0.994917
0
LINE
8
BLACK
6
CONTINUOUS
10
2.09059
20
0.994917
11
2.08711
21
0.991433
0
LINE
8
BLACK
6
CONTINUOUS
10
2.08711
20
0.991433
11
2.08272
21
0.989196
0
LINE
8
BLACK
6
CONTINUOUS
10
2.08272
20
0.989196
11
2.07785
21
0.988425
0
LINE
8
BLACK
6
CONTINUOUS
10
2.07785
20
0.988425
11
2.06211
21
0.988425
0
LINE
8
BLACK
6
CONTINUOUS
10
2.06211
20
0.988425
11
2.05724
21
0.989196
0
LINE
8
BLACK
6
CONTINUOUS
10
2.05724
20
0.989196
11
2.05285
21
0.991433
0
LINE
8
BLACK
6
CONTINUOUS
10
2.05285
20
0.991433
11
2.04937
21
0.994917
0
LINE
8
BLACK
6
CONTINUOUS
10
2.04937
20
0.994917
11
2.04713
21
0.999307
0
LINE
8
BLACK
6
CONTINUOUS
10
2.04713
20
0.999307
11
2.04636
21
1.00417
0
LINE
8
BLACK
6
CONTINUOUS
10
2.04636
20
1.00417
11
2.04636
21
1.02583
0
LINE
8
BLACK
6
CONTINUOUS
10
2.04636
20
1.02583
11
2.04713
21
1.03069
0
LINE
8
BLACK
6
CONTINUOUS
10
2.04713
20
1.03069
11
2.04937
21
1.03508
0
LINE
8
BLACK
6
CONTINUOUS
10
2.04937
20
1.03508
11
2.05285
21
1.03857
0
LINE
8
BLACK
6
CONTINUOUS
10
2.05285
20
1.03857
11
2.05724
21
1.0408
0
LINE
8
BLACK
6
CONTINUOUS
10
2.05724
20
1.0408
11
2.06211
21
1.04157
0
LINE
8
BLACK
6
CONTINUOUS
10
2.06211
20
1.04157
11
2.07785
21
1.04157
0
LINE
8
BLACK
6
CONTINUOUS
10
2.07785
20
1.04157
11
2.08272
21
1.0408
0
LINE
8
BLACK
6
CONTINUOUS
10
2.01776
20
1.0408
11
2.02215
21
1.03857
0
LINE
8
BLACK
6
CONTINUOUS
10
2.02215
20
1.03857
11
2.02563
21
1.03508
0
LINE
8
BLACK
6
CONTINUOUS
10
2.02563
20
1.03508
11
2.02787
21
1.03069
0
LINE
8
BLACK
6
CONTINUOUS
10
2.02787
20
1.03069
11
2.02864
21
1.02583
0
LINE
8
BLACK
6
CONTINUOUS
10
2.02864
20
1.02583
11
2.02864
21
1.00417
0
LINE
8
BLACK
6
CONTINUOUS
10
2.02864
20
1.00417
11
2.02787
21
0.999307
0
LINE
8
BLACK
6
CONTINUOUS
10
2.02787
20
0.999307
11
2.02563
21
0.994917
0
LINE
8
BLACK
6
CONTINUOUS
10
2.02563
20
0.994917
11
2.02215
21
0.991433
0
LINE
8
BLACK
6
CONTINUOUS
10
2.02215
20
0.991433
11
2.01776
21
0.989196
0
LINE
8
BLACK
6
CONTINUOUS
10
2.01776
20
0.989196
11
2.01289
21
0.988425
0
LINE
8
BLACK
6
CONTINUOUS
10
2.01289
20
0.988425
11
1.99715
21
0.988425
0
LINE
8
BLACK
6
CONTINUOUS
10
1.99715
20
0.988425
11
1.99228
21
0.989196
0
LINE
8
BLACK
6
CONTINUOUS
10
1.99228
20
0.989196
11
1.98789
21
0.991433
0
LINE
8
BLACK
6
CONTINUOUS
10
1.98789
20
0.991433
11
1.98441
21
0.994917
0
LINE
8
BLACK
6
CONTINUOUS
10
1.98441
20
0.994917
11
1.98217
21
0.999307
0
LINE
8
BLACK
6
CONTINUOUS
10
1.98217
20
0.999307
11
1.9814
21
1.00417
0
LINE
8
BLACK
6
CONTINUOUS
10
1.9814
20
1.00417
11
1.9814
21
1.02583
0
LINE
8
BLACK
6
CONTINUOUS
10
1.9814
20
1.02583
11
1.98217
21
1.03069
0
LINE
8
BLACK
6
CONTINUOUS
10
1.98217
20
1.03069
11
1.98441
21
1.03508
0
LINE
8
BLACK
6
CONTINUOUS
10
1.98441
20
1.03508
11
1.98789
21
1.03857
0
LINE
8
BLACK
6
CONTINUOUS
10
1.98789
20
1.03857
11
1.99228
21
1.0408
0
LINE
8
BLACK
6
CONTINUOUS
10
1.99228
20
1.0408
11
1.99715
21
1.04157
0
LINE
8
BLACK
6
CONTINUOUS
10
1.99715
20
1.04157
11
2.01289
21
1.04157
0
LINE
8
BLACK
6
CONTINUOUS
10
2.01289
20
1.04157
11
2.01776
21
1.0408
0
LINE
8
BLACK
6
CONTINUOUS
10
2.19931
20
1.09625
11
2.20187
21
1.09454
0
LINE
8
BLACK
6
CONTINUOUS
10
2.20187
20
1.09454
11
2.20357
21
1.09199
0
LINE
8
BLACK
6
CONTINUOUS
10
2.20357
20
1.09199
11
2.20417
21
1.08898
0
LINE
8
BLACK
6
CONTINUOUS
10
2.20417
20
1.08898
11
2.20417
21
1.04173
0
LINE
8
BLACK
6
CONTINUOUS
10
2.20417
20
1.04173
11
2.20357
21
1.03872
0
LINE
8
BLACK
6
CONTINUOUS
10
2.20357
20
1.03872
11
2.20187
21
1.03616
0
LINE
8
BLACK
6
CONTINUOUS
10
2.20187
20
1.03616
11
2.19931
21
1.03446
0
LINE
8
BLACK
6
CONTINUOUS
10
2.19931
20
1.03446
11
2.1963
21
1.03386
0
LINE
8
BLACK
6
CONTINUOUS
10
2.1963
20
1.03386
11
2.13331
21
1.03386
0
LINE
8
BLACK
6
CONTINUOUS
10
2.13331
20
1.03386
11
2.13029
21
1.03446
0
LINE
8
BLACK
6
CONTINUOUS
10
2.13029
20
1.03446
11
2.12774
21
1.03616
0
LINE
8
BLACK
6
CONTINUOUS
10
2.12774
20
1.03616
11
2.12603
21
1.03872
0
LINE
8
BLACK
6
CONTINUOUS
10
2.12603
20
1.03872
11
2.12543
21
1.04173
0
LINE
8
BLACK
6
CONTINUOUS
10
2.12543
20
1.04173
11
2.12543
21
1.08898
0
LINE
8
BLACK
6
CONTINUOUS
10
2.12543
20
1.08898
11
2.12603
21
1.09199
0
LINE
8
BLACK
6
CONTINUOUS
10
2.12603
20
1.09199
11
2.12774
21
1.09454
0
LINE
8
BLACK
6
CONTINUOUS
10
2.12774
20
1.09454
11
2.13029
21
1.09625
0
LINE
8
BLACK
6
CONTINUOUS
10
2.13029
20
1.09625
11
2.13331
21
1.09685
0
LINE
8
BLACK
6
CONTINUOUS
10
2.13331
20
1.09685
11
2.1963
21
1.09685
0
LINE
8
BLACK
6
CONTINUOUS
10
2.1963
20
1.09685
11
2.19931
21
1.09625
0
LINE
8
BLACK
6
CONTINUOUS
10
2.07255
20
1.12076
11
2.07722
21
1.11838
0
LINE
8
BLACK
6
CONTINUOUS
10
2.07722
20
1.11838
11
2.08092
21
1.11468
0
LINE
8
BLACK
6
CONTINUOUS
10
2.08092
20
1.11468
11
2.0833
21
1.11001
0
LINE
8
BLACK
6
CONTINUOUS
10
2.0833
20
1.11001
11
2.08411
21
1.10484
0
LINE
8
BLACK
6
CONTINUOUS
10
2.08411
20
1.10484
11
2.08411
21
1.08516
0
LINE
8
BLACK
6
CONTINUOUS
10
2.08411
20
1.08516
11
2.0833
21
1.07999
0
LINE
8
BLACK
6
CONTINUOUS
10
2.0833
20
1.07999
11
2.08092
21
1.07532
0
LINE
8
BLACK
6
CONTINUOUS
10
2.08092
20
1.07532
11
2.07722
21
1.07162
0
LINE
8
BLACK
6
CONTINUOUS
10
2.07722
20
1.07162
11
2.07255
21
1.06924
0
LINE
8
BLACK
6
CONTINUOUS
10
2.07255
20
1.06924
11
2.06738
21
1.06843
0
LINE
8
BLACK
6
CONTINUOUS
10
2.06738
20
1.06843
11
2.04967
21
1.06843
0
LINE
8
BLACK
6
CONTINUOUS
10
2.04967
20
1.06843
11
2.04449
21
1.06924
0
LINE
8
BLACK
6
CONTINUOUS
10
2.04449
20
1.06924
11
2.03983
21
1.07162
0
LINE
8
BLACK
6
CONTINUOUS
10
2.03983
20
1.07162
11
2.03613
21
1.07532
0
LINE
8
BLACK
6
CONTINUOUS
10
2.03613
20
1.07532
11
2.03375
21
1.07999
0
LINE
8
BLACK
6
CONTINUOUS
10
2.03375
20
1.07999
11
2.03293
21
1.08516
0
LINE
8
BLACK
6
CONTINUOUS
10
2.03293
20
1.08516
11
2.03293
21
1.10484
0
LINE
8
BLACK
6
CONTINUOUS
10
2.03293
20
1.10484
11
2.03375
21
1.11001
0
LINE
8
BLACK
6
CONTINUOUS
10
2.03375
20
1.11001
11
2.03613
21
1.11468
0
LINE
8
BLACK
6
CONTINUOUS
10
2.03613
20
1.11468
11
2.03983
21
1.11838
0
LINE
8
BLACK
6
CONTINUOUS
10
2.03983
20
1.11838
11
2.04449
21
1.12076
0
LINE
8
BLACK
6
CONTINUOUS
10
2.04449
20
1.12076
11
2.04967
21
1.12157
0
LINE
8
BLACK
6
CONTINUOUS
10
2.04967
20
1.12157
11
2.06738
21
1.12157
0
LINE
8
BLACK
6
CONTINUOUS
10
2.06738
20
1.12157
11
2.07255
21
1.12076
0
LINE
8
BLACK
6
CONTINUOUS
10
2.01153
20
1.12076
11
2.01619
21
1.11838
0
LINE
8
BLACK
6
CONTINUOUS
10
2.01619
20
1.11838
11
2.01989
21
1.11468
0
LINE
8
BLACK
6
CONTINUOUS
10
2.01989
20
1.11468
11
2.02227
21
1.11001
0
LINE
8
BLACK
6
CONTINUOUS
10
2.02227
20
1.11001
11
2.02309
21
1.10484
0
LINE
8
BLACK
6
CONTINUOUS
10
2.02309
20
1.10484
11
2.02309
21
1.08516
0
LINE
8
BLACK
6
CONTINUOUS
10
2.02309
20
1.08516
11
2.02227
21
1.07999
0
LINE
8
BLACK
6
CONTINUOUS
10
2.02227
20
1.07999
11
2.01989
21
1.07532
0
LINE
8
BLACK
6
CONTINUOUS
10
2.01989
20
1.07532
11
2.01619
21
1.07162
0
LINE
8
BLACK
6
CONTINUOUS
10
2.01619
20
1.07162
11
2.01153
21
1.06924
0
LINE
8
BLACK
6
CONTINUOUS
10
2.01153
20
1.06924
11
2.00636
21
1.06843
0
LINE
8
BLACK
6
CONTINUOUS
10
2.00636
20
1.06843
11
1.98864
21
1.06843
0
LINE
8
BLACK
6
CONTINUOUS
10
1.98864
20
1.06843
11
1.98347
21
1.06924
0
LINE
8
BLACK
6
CONTINUOUS
10
1.98347
20
1.06924
11
1.97881
21
1.07162
0
LINE
8
BLACK
6
CONTINUOUS
10
1.97881
20
1.07162
11
1.97511
21
1.07532
0
LINE
8
BLACK
6
CONTINUOUS
10
1.97511
20
1.07532
11
1.97273
21
1.07999
0
LINE
8
BLACK
6
CONTINUOUS
10
1.97273
20
1.07999
11
1.97191
21
1.08516
0
LINE
8
BLACK
6
CONTINUOUS
10
1.97191
20
1.08516
11
1.97191
21
1.10484
0
LINE
8
BLACK
6
CONTINUOUS
10
1.97191
20
1.10484
11
1.97273
21
1.11001
0
LINE
8
BLACK
6
CONTINUOUS
10
1.97273
20
1.11001
11
1.97511
21
1.11468
0
LINE
8
BLACK
6
CONTINUOUS
10
1.97511
20
1.11468
11
1.97881
21
1.11838
0
LINE
8
BLACK
6
CONTINUOUS
10
1.97881
20
1.11838
11
1.98347
21
1.12076
0
LINE
8
BLACK
6
CONTINUOUS
10
1.98347
20
1.12076
11
1.98864
21
1.12157
0
LINE
8
BLACK
6
CONTINUOUS
10
1.98864
20
1.12157
11
2.00636
21
1.12157
0
LINE
8
BLACK
6
CONTINUOUS
10
2.00636
20
1.12157
11
2.01153
21
1.12076
0
LINE
8
BLACK
6
CONTINUOUS
10
2.19931
20
1.19468
11
2.20187
21
1.19297
0
LINE
8
BLACK
6
CONTINUOUS
10
2.20187
20
1.19297
11
2.20357
21
1.19041
0
LINE
8
BLACK
6
CONTINUOUS
10
2.20357
20
1.19041
11
2.20417
21
1.1874
0
LINE
8
BLACK
6
CONTINUOUS
10
2.20417
20
1.1874
11
2.20417
21
1.14016
0
LINE
8
BLACK
6
CONTINUOUS
10
2.20417
20
1.14016
11
2.20357
21
1.13714
0
LINE
8
BLACK
6
CONTINUOUS
10
2.20357
20
1.13714
11
2.20187
21
1.13459
0
LINE
8
BLACK
6
CONTINUOUS
10
2.20187
20
1.13459
11
2.19931
21
1.13288
0
LINE
8
BLACK
6
CONTINUOUS
10
2.19931
20
1.13288
11
2.1963
21
1.13228
0
LINE
8
BLACK
6
CONTINUOUS
10
2.1963
20
1.13228
11
2.13331
21
1.13228
0
LINE
8
BLACK
6
CONTINUOUS
10
2.13331
20
1.13228
11
2.13029
21
1.13288
0
LINE
8
BLACK
6
CONTINUOUS
10
2.13029
20
1.13288
11
2.12774
21
1.13459
0
LINE
8
BLACK
6
CONTINUOUS
10
2.12774
20
1.13459
11
2.12603
21
1.13714
0
LINE
8
BLACK
6
CONTINUOUS
10
2.12603
20
1.13714
11
2.12543
21
1.14016
0
LINE
8
BLACK
6
CONTINUOUS
10
2.12543
20
1.14016
11
2.12543
21
1.1874
0
LINE
8
BLACK
6
CONTINUOUS
10
2.12543
20
1.1874
11
2.12603
21
1.19041
0
LINE
8
BLACK
6
CONTINUOUS
10
2.12603
20
1.19041
11
2.12774
21
1.19297
0
LINE
8
BLACK
6
CONTINUOUS
10
2.12774
20
1.19297
11
2.13029
21
1.19468
0
LINE
8
BLACK
6
CONTINUOUS
10
2.13029
20
1.19468
11
2.13331
21
1.19528
0
LINE
8
BLACK
6
CONTINUOUS
10
2.13331
20
1.19528
11
2.1963
21
1.19528
0
LINE
8
BLACK
6
CONTINUOUS
10
2.1963
20
1.19528
11
2.19931
21
1.19468
0
LINE
8
BLACK
6
CONTINUOUS
10
2.07255
20
1.19076
11
2.07722
21
1.18838
0
LINE
8
BLACK
6
CONTINUOUS
10
2.07722
20
1.18838
11
2.08092
21
1.18468
0
LINE
8
BLACK
6
CONTINUOUS
10
2.08092
20
1.18468
11
2.0833
21
1.18001
0
LINE
8
BLACK
6
CONTINUOUS
10
2.0833
20
1.18001
11
2.08411
21
1.17484
0
LINE
8
BLACK
6
CONTINUOUS
10
2.08411
20
1.17484
11
2.08411
21
1.15516
0
LINE
8
BLACK
6
CONTINUOUS
10
2.08411
20
1.15516
11
2.0833
21
1.14999
0
LINE
8
BLACK
6
CONTINUOUS
10
2.0833
20
1.14999
11
2.08092
21
1.14532
0
LINE
8
BLACK
6
CONTINUOUS
10
2.08092
20
1.14532
11
2.07722
21
1.14162
0
LINE
8
BLACK
6
CONTINUOUS
10
2.07722
20
1.14162
11
2.07255
21
1.13924
0
LINE
8
BLACK
6
CONTINUOUS
10
2.07255
20
1.13924
11
2.06738
21
1.13843
0
LINE
8
BLACK
6
CONTINUOUS
10
2.06738
20
1.13843
11
2.04967
21
1.13843
0
LINE
8
BLACK
6
CONTINUOUS
10
2.04967
20
1.13843
11
2.04449
21
1.13924
0
LINE
8
BLACK
6
CONTINUOUS
10
2.04449
20
1.13924
11
2.03983
21
1.14162
0
LINE
8
BLACK
6
CONTINUOUS
10
2.03983
20
1.14162
11
2.03613
21
1.14532
0
LINE
8
BLACK
6
CONTINUOUS
10
2.03613
20
1.14532
11
2.03375
21
1.14999
0
LINE
8
BLACK
6
CONTINUOUS
10
2.03375
20
1.14999
11
2.03293
21
1.15516
0
LINE
8
BLACK
6
CONTINUOUS
10
2.03293
20
1.15516
11
2.03293
21
1.17484
0
LINE
8
BLACK
6
CONTINUOUS
10
2.03293
20
1.17484
11
2.03375
21
1.18001
0
LINE
8
BLACK
6
CONTINUOUS
10
2.03375
20
1.18001
11
2.03613
21
1.18468
0
LINE
8
BLACK
6
CONTINUOUS
10
2.03613
20
1.18468
11
2.03983
21
1.18838
0
LINE
8
BLACK
6
CONTINUOUS
10
2.03983
20
1.18838
11
2.04449
21
1.19076
0
LINE
8
BLACK
6
CONTINUOUS
10
2.04449
20
1.19076
11
2.04967
21
1.19157
0
LINE
8
BLACK
6
CONTINUOUS
10
2.04967
20
1.19157
11
2.06738
21
1.19157
0
LINE
8
BLACK
6
CONTINUOUS
10
2.06738
20
1.19157
11
2.07255
21
1.19076
0
LINE
8
BLACK
6
CONTINUOUS
10
2.01153
20
1.19076
11
2.01619
21
1.18838
0
LINE
8
BLACK
6
CONTINUOUS
10
2.01619
20
1.18838
11
2.01989
21
1.18468
0
LINE
8
BLACK
6
CONTINUOUS
10
2.01989
20
1.18468
11
2.02227
21
1.18001
0
LINE
8
BLACK
6
CONTINUOUS
10
2.02227
20
1.18001
11
2.02309
21
1.17484
0
LINE
8
BLACK
6
CONTINUOUS
10
2.02309
20
1.17484
11
2.02309
21
1.15516
0
LINE
8
BLACK
6
CONTINUOUS
10
2.02309
20
1.15516
11
2.02227
21
1.14999
0
LINE
8
BLACK
6
CONTINUOUS
10
2.02227
20
1.14999
11
2.01989
21
1.14532
0
LINE
8
BLACK
6
CONTINUOUS
10
2.01989
20
1.14532
11
2.01619
21
1.14162
0
LINE
8
BLACK
6
CONTINUOUS
10
2.01619
20
1.14162
11
2.01153
21
1.13924
0
LINE
8
BLACK
6
CONTINUOUS
10
2.01153
20
1.13924
11
2.00636
21
1.13843
0
LINE
8
BLACK
6
CONTINUOUS
10
2.00636
20
1.13843
11
1.98864
21
1.13843
0
LINE
8
BLACK
6
CONTINUOUS
10
1.98864
20
1.13843
11
1.98347
21
1.13924
0
LINE
8
BLACK
6
CONTINUOUS
10
1.98347
20
1.13924
11
1.97881
21
1.14162
0
LINE
8
BLACK
6
CONTINUOUS
10
1.97881
20
1.14162
11
1.97511
21
1.14532
0
LINE
8
BLACK
6
CONTINUOUS
10
1.97511
20
1.14532
11
1.97273
21
1.14999
0
LINE
8
BLACK
6
CONTINUOUS
10
1.97273
20
1.14999
11
1.97191
21
1.15516
0
LINE
8
BLACK
6
CONTINUOUS
10
1.97191
20
1.15516
11
1.97191
21
1.17484
0
LINE
8
BLACK
6
CONTINUOUS
10
1.97191
20
1.17484
11
1.97273
21
1.18001
0
LINE
8
BLACK
6
CONTINUOUS
10
1.97273
20
1.18001
11
1.97511
21
1.18468
0
LINE
8
BLACK
6
CONTINUOUS
10
1.97511
20
1.18468
11
1.97881
21
1.18838
0
LINE
8
BLACK
6
CONTINUOUS
10
1.97881
20
1.18838
11
1.98347
21
1.19076
0
LINE
8
BLACK
6
CONTINUOUS
10
1.98347
20
1.19076
11
1.98864
21
1.19157
0
LINE
8
BLACK
6
CONTINUOUS
10
1.98864
20
1.19157
11
2.00636
21
1.19157
0
LINE
8
BLACK
6
CONTINUOUS
10
2.00636
20
1.19157
11
2.01153
21
1.19076
0
LINE
8
BLACK
6
CONTINUOUS
10
1.71752
20
1.26664
11
1.72449
21
1.26448
0
LINE
8
BLACK
6
CONTINUOUS
10
1.72449
20
1.26448
11
1.73091
21
1.26101
0
LINE
8
BLACK
6
CONTINUOUS
10
1.73091
20
1.26101
11
1.73654
21
1.25635
0
LINE
8
BLACK
6
CONTINUOUS
10
1.73654
20
1.25635
11
1.74115
21
1.2507
0
LINE
8
BLACK
6
CONTINUOUS
10
1.74115
20
1.2507
11
1.74458
21
1.24425
0
LINE
8
BLACK
6
CONTINUOUS
10
1.74458
20
1.24425
11
1.74669
21
1.23726
0
LINE
8
BLACK
6
CONTINUOUS
10
1.74669
20
1.23726
11
1.7474
21
1.23
0
LINE
8
BLACK
6
CONTINUOUS
10
1.7474
20
1.23
11
1.74739
21
1.22896
0
LINE
8
BLACK
6
CONTINUOUS
10
1.74739
20
1.22896
11
1.74647
21
1.22171
0
LINE
8
BLACK
6
CONTINUOUS
10
1.74647
20
1.22171
11
1.74417
21
1.21479
0
LINE
8
BLACK
6
CONTINUOUS
10
1.74417
20
1.21479
11
1.74056
21
1.20844
0
LINE
8
BLACK
6
CONTINUOUS
10
1.74056
20
1.20844
11
1.73579
21
1.20291
0
LINE
8
BLACK
6
CONTINUOUS
10
1.73579
20
1.20291
11
1.73004
21
1.19842
0
LINE
8
BLACK
6
CONTINUOUS
10
1.73004
20
1.19842
11
1.72353
21
1.19513
0
LINE
8
BLACK
6
CONTINUOUS
10
1.72353
20
1.19513
11
1.71649
21
1.19317
0
LINE
8
BLACK
6
CONTINUOUS
10
1.71649
20
1.19317
11
1.70922
21
1.19261
0
LINE
8
BLACK
6
CONTINUOUS
10
1.70922
20
1.19261
11
1.70197
21
1.19347
0
LINE
8
BLACK
6
CONTINUOUS
10
1.70197
20
1.19347
11
1.69503
21
1.19573
0
LINE
8
BLACK
6
CONTINUOUS
10
1.69503
20
1.19573
11
1.68865
21
1.19929
0
LINE
8
BLACK
6
CONTINUOUS
10
1.68865
20
1.19929
11
1.6831
21
1.20402
0
LINE
8
BLACK
6
CONTINUOUS
10
1.6831
20
1.20402
11
1.67856
21
1.20974
0
LINE
8
BLACK
6
CONTINUOUS
10
1.67856
20
1.20974
11
1.67522
21
1.21623
0
LINE
8
BLACK
6
CONTINUOUS
10
1.67522
20
1.21623
11
1.67321
21
1.22325
0
LINE
8
BLACK
6
CONTINUOUS
10
1.67321
20
1.22325
11
1.6726
21
1.23052
0
LINE
8
BLACK
6
CONTINUOUS
10
1.6726
20
1.23052
11
1.67342
21
1.23778
0
LINE
8
BLACK
6
CONTINUOUS
10
1.67342
20
1.23778
11
1.67562
21
1.24473
0
LINE
8
BLACK
6
CONTINUOUS
10
1.67562
20
1.24473
11
1.67914
21
1.25113
0
LINE
8
BLACK
6
CONTINUOUS
10
1.67914
20
1.25113
11
1.68383
21
1.25672
0
LINE
8
BLACK
6
CONTINUOUS
10
1.68383
20
1.25672
11
1.68952
21
1.2613
0
LINE
8
BLACK
6
CONTINUOUS
10
1.68952
20
1.2613
11
1.69599
21
1.26468
0
LINE
8
BLACK
6
CONTINUOUS
10
1.69599
20
1.26468
11
1.70299
21
1.26674
0
LINE
8
BLACK
6
CONTINUOUS
10
1.70299
20
1.26674
11
1.71026
21
1.2674
0
LINE
8
BLACK
6
CONTINUOUS
10
1.71026
20
1.2674
11
1.71752
21
1.26664
0
LINE
8
BLACK
6
CONTINUOUS
10
2.19931
20
1.2931
11
2.20187
21
1.29139
0
LINE
8
BLACK
6
CONTINUOUS
10
2.20187
20
1.29139
11
2.20357
21
1.28884
0
LINE
8
BLACK
6
CONTINUOUS
10
2.20357
20
1.28884
11
2.20417
21
1.28583
0
LINE
8
BLACK
6
CONTINUOUS
10
2.20417
20
1.28583
11
2.20417
21
1.23858
0
LINE
8
BLACK
6
CONTINUOUS
10
2.20417
20
1.23858
11
2.20357
21
1.23557
0
LINE
8
BLACK
6
CONTINUOUS
10
2.20357
20
1.23557
11
2.20187
21
1.23301
0
LINE
8
BLACK
6
CONTINUOUS
10
2.20187
20
1.23301
11
2.19931
21
1.23131
0
LINE
8
BLACK
6
CONTINUOUS
10
2.19931
20
1.23131
11
2.1963
21
1.23071
0
LINE
8
BLACK
6
CONTINUOUS
10
2.1963
20
1.23071
11
2.13331
21
1.23071
0
LINE
8
BLACK
6
CONTINUOUS
10
2.13331
20
1.23071
11
2.13029
21
1.23131
0
LINE
8
BLACK
6
CONTINUOUS
10
2.13029
20
1.23131
11
2.12774
21
1.23301
0
LINE
8
BLACK
6
CONTINUOUS
10
2.12774
20
1.23301
11
2.12603
21
1.23557
0
LINE
8
BLACK
6
CONTINUOUS
10
2.12603
20
1.23557
11
2.12543
21
1.23858
0
LINE
8
BLACK
6
CONTINUOUS
10
2.12543
20
1.23858
11
2.12543
21
1.28583
0
LINE
8
BLACK
6
CONTINUOUS
10
2.12543
20
1.28583
11
2.12603
21
1.28884
0
LINE
8
BLACK
6
CONTINUOUS
10
2.12603
20
1.28884
11
2.12774
21
1.29139
0
LINE
8
BLACK
6
CONTINUOUS
10
2.12774
20
1.29139
11
2.13029
21
1.2931
0
LINE
8
BLACK
6
CONTINUOUS
10
2.13029
20
1.2931
11
2.13331
21
1.2937
0
LINE
8
BLACK
6
CONTINUOUS
10
2.13331
20
1.2937
11
2.1963
21
1.2937
0
LINE
8
BLACK
6
CONTINUOUS
10
2.1963
20
1.2937
11
2.19931
21
1.2931
0
LINE
8
BLACK
6
CONTINUOUS
10
2.01272
20
1.3408
11
2.01711
21
1.33857
0
LINE
8
BLACK
6
CONTINUOUS
10
2.01711
20
1.33857
11
2.02059
21
1.33508
0
LINE
8
BLACK
6
CONTINUOUS
10
2.02059
20
1.33508
11
2.02283
21
1.33069
0
LINE
8
BLACK
6
CONTINUOUS
10
2.02283
20
1.33069
11
2.0236
21
1.32583
0
LINE
8
BLACK
6
CONTINUOUS
10
2.0236
20
1.32583
11
2.0236
21
1.30417
0
LINE
8
BLACK
6
CONTINUOUS
10
2.0236
20
1.30417
11
2.02283
21
1.29931
0
LINE
8
BLACK
6
CONTINUOUS
10
2.02283
20
1.29931
11
2.02059
21
1.29492
0
LINE
8
BLACK
6
CONTINUOUS
10
2.02059
20
1.29492
11
2.01711
21
1.29143
0
LINE
8
BLACK
6
CONTINUOUS
10
2.01711
20
1.29143
11
2.01272
21
1.2892
0
LINE
8
BLACK
6
CONTINUOUS
10
2.01272
20
1.2892
11
2.00785
21
1.28843
0
LINE
8
BLACK
6
CONTINUOUS
10
2.00785
20
1.28843
11
1.99211
21
1.28843
0
LINE
8
BLACK
6
CONTINUOUS
10
1.99211
20
1.28843
11
1.98724
21
1.2892
0
LINE
8
BLACK
6
CONTINUOUS
10
1.98724
20
1.2892
11
1.98285
21
1.29143
0
LINE
8
BLACK
6
CONTINUOUS
10
1.98285
20
1.29143
11
1.97937
21
1.29492
0
LINE
8
BLACK
6
CONTINUOUS
10
1.97937
20
1.29492
11
1.97713
21
1.29931
0
LINE
8
BLACK
6
CONTINUOUS
10
1.97713
20
1.29931
11
1.97636
21
1.30417
0
LINE
8
BLACK
6
CONTINUOUS
10
1.97636
20
1.30417
11
1.97636
21
1.32583
0
LINE
8
BLACK
6
CONTINUOUS
10
1.97636
20
1.32583
11
1.97713
21
1.33069
0
LINE
8
BLACK
6
CONTINUOUS
10
1.97713
20
1.33069
11
1.97937
21
1.33508
0
LINE
8
BLACK
6
CONTINUOUS
10
1.97937
20
1.33508
11
1.98285
21
1.33857
0
LINE
8
BLACK
6
CONTINUOUS
10
1.98285
20
1.33857
11
1.98724
21
1.3408
0
LINE
8
BLACK
6
CONTINUOUS
10
1.98724
20
1.3408
11
1.99211
21
1.34157
0
LINE
8
BLACK
6
CONTINUOUS
10
1.99211
20
1.34157
11
2.00785
21
1.34157
0
LINE
8
BLACK
6
CONTINUOUS
10
2.00785
20
1.34157
11
2.01272
21
1.3408
0
LINE
8
BLACK
6
CONTINUOUS
10
2.07768
20
1.3408
11
2.08207
21
1.33857
0
LINE
8
BLACK
6
CONTINUOUS
10
2.08207
20
1.33857
11
2.08556
21
1.33508
0
LINE
8
BLACK
6
CONTINUOUS
10
2.08556
20
1.33508
11
2.08779
21
1.33069
0
LINE
8
BLACK
6
CONTINUOUS
10
2.08779
20
1.33069
11
2.08856
21
1.32583
0
LINE
8
BLACK
6
CONTINUOUS
10
2.08856
20
1.32583
11
2.08856
21
1.30417
0
LINE
8
BLACK
6
CONTINUOUS
10
2.08856
20
1.30417
11
2.08779
21
1.29931
0
LINE
8
BLACK
6
CONTINUOUS
10
2.08779
20
1.29931
11
2.08556
21
1.29492
0
LINE
8
BLACK
6
CONTINUOUS
10
2.08556
20
1.29492
11
2.08207
21
1.29143
0
LINE
8
BLACK
6
CONTINUOUS
10
2.08207
20
1.29143
11
2.07768
21
1.2892
0
LINE
8
BLACK
6
CONTINUOUS
10
2.07768
20
1.2892
11
2.07281
21
1.28843
0
LINE
8
BLACK
6
CONTINUOUS
10
2.07281
20
1.28843
11
2.05707
21
1.28843
0
LINE
8
BLACK
6
CONTINUOUS
10
2.05707
20
1.28843
11
2.0522
21
1.2892
0
LINE
8
BLACK
6
CONTINUOUS
10
2.0522
20
1.2892
11
2.04781
21
1.29143
0
LINE
8
BLACK
6
CONTINUOUS
10
2.04781
20
1.29143
11
2.04433
21
1.29492
0
LINE
8
BLACK
6
CONTINUOUS
10
2.04433
20
1.29492
11
2.04209
21
1.29931
0
LINE
8
BLACK
6
CONTINUOUS
10
2.04209
20
1.29931
11
2.04132
21
1.30417
0
LINE
8
BLACK
6
CONTINUOUS
10
2.04132
20
1.30417
11
2.04132
21
1.32583
0
LINE
8
BLACK
6
CONTINUOUS
10
2.04132
20
1.32583
11
2.04209
21
1.33069
0
LINE
8
BLACK
6
CONTINUOUS
10
2.04209
20
1.33069
11
2.04433
21
1.33508
0
LINE
8
BLACK
6
CONTINUOUS
10
2.04433
20
1.33508
11
2.04781
21
1.33857
0
LINE
8
BLACK
6
CONTINUOUS
10
2.04781
20
1.33857
11
2.0522
21
1.3408
0
LINE
8
BLACK
6
CONTINUOUS
10
2.0522
20
1.3408
11
2.05707
21
1.34157
0
LINE
8
BLACK
6
CONTINUOUS
10
2.05707
20
1.34157
11
2.07281
21
1.34157
0
LINE
8
BLACK
6
CONTINUOUS
10
2.07281
20
1.34157
11
2.07768
21
1.3408
0
LINE
8
BLACK
6
CONTINUOUS
10
2.19931
20
1.39153
11
2.20187
21
1.38982
0
LINE
8
BLACK
6
CONTINUOUS
10
2.20187
20
1.38982
11
2.20357
21
1.38727
0
LINE
8
BLACK
6
CONTINUOUS
10
2.20357
20
1.38727
11
2.20417
21
1.38425
0
LINE
8
BLACK
6
CONTINUOUS
10
2.20417
20
1.38425
11
2.20417
21
1.33701
0
LINE
8
BLACK
6
CONTINUOUS
10
2.20417
20
1.33701
11
2.20357
21
1.33399
0
LINE
8
BLACK
6
CONTINUOUS
10
2.20357
20
1.33399
11
2.20187
21
1.33144
0
LINE
8
BLACK
6
CONTINUOUS
10
2.20187
20
1.33144
11
2.19931
21
1.32973
0
LINE
8
BLACK
6
CONTINUOUS
10
2.19931
20
1.32973
11
2.1963
21
1.32913
0
LINE
8
BLACK
6
CONTINUOUS
10
2.1963
20
1.32913
11
2.13331
21
1.32913
0
LINE
8
BLACK
6
CONTINUOUS
10
2.13331
20
1.32913
11
2.13029
21
1.32973
0
LINE
8
BLACK
6
CONTINUOUS
10
2.13029
20
1.32973
11
2.12774
21
1.33144
0
LINE
8
BLACK
6
CONTINUOUS
10
2.12774
20
1.33144
11
2.12603
21
1.33399
0
LINE
8
BLACK
6
CONTINUOUS
10
2.12603
20
1.33399
11
2.12543
21
1.33701
0
LINE
8
BLACK
6
CONTINUOUS
10
2.12543
20
1.33701
11
2.12543
21
1.38425
0
LINE
8
BLACK
6
CONTINUOUS
10
2.12543
20
1.38425
11
2.12603
21
1.38727
0
LINE
8
BLACK
6
CONTINUOUS
10
2.12603
20
1.38727
11
2.12774
21
1.38982
0
LINE
8
BLACK
6
CONTINUOUS
10
2.12774
20
1.38982
11
2.13029
21
1.39153
0
LINE
8
BLACK
6
CONTINUOUS
10
2.13029
20
1.39153
11
2.13331
21
1.39213
0
LINE
8
BLACK
6
CONTINUOUS
10
2.13331
20
1.39213
11
2.1963
21
1.39213
0
LINE
8
BLACK
6
CONTINUOUS
10
2.1963
20
1.39213
11
2.19931
21
1.39153
0
LINE
8
BLACK
6
CONTINUOUS
10
2.08272
20
1.4308
11
2.08711
21
1.42857
0
LINE
8
BLACK
6
CONTINUOUS
10
2.08711
20
1.42857
11
2.09059
21
1.42508
0
LINE
8
BLACK
6
CONTINUOUS
10
2.09059
20
1.42508
11
2.09283
21
1.42069
0
LINE
8
BLACK
6
CONTINUOUS
10
2.09283
20
1.42069
11
2.0936
21
1.41583
0
LINE
8
BLACK
6
CONTINUOUS
10
2.0936
20
1.41583
11
2.0936
21
1.39417
0
LINE
8
BLACK
6
CONTINUOUS
10
2.0936
20
1.39417
11
2.09283
21
1.38931
0
LINE
8
BLACK
6
CONTINUOUS
10
2.09283
20
1.38931
11
2.09059
21
1.38492
0
LINE
8
BLACK
6
CONTINUOUS
10
2.09059
20
1.38492
11
2.08711
21
1.38143
0
LINE
8
BLACK
6
CONTINUOUS
10
2.08711
20
1.38143
11
2.08272
21
1.3792
0
LINE
8
BLACK
6
CONTINUOUS
10
2.08272
20
1.3792
11
2.07785
21
1.37843
0
LINE
8
BLACK
6
CONTINUOUS
10
2.07785
20
1.37843
11
2.06211
21
1.37843
0
LINE
8
BLACK
6
CONTINUOUS
10
2.06211
20
1.37843
11
2.05724
21
1.3792
0
LINE
8
BLACK
6
CONTINUOUS
10
2.05724
20
1.3792
11
2.05285
21
1.38143
0
LINE
8
BLACK
6
CONTINUOUS
10
2.05285
20
1.38143
11
2.04937
21
1.38492
0
LINE
8
BLACK
6
CONTINUOUS
10
2.04937
20
1.38492
11
2.04713
21
1.38931
0
LINE
8
BLACK
6
CONTINUOUS
10
2.04713
20
1.38931
11
2.04636
21
1.39417
0
LINE
8
BLACK
6
CONTINUOUS
10
2.04636
20
1.39417
11
2.04636
21
1.41583
0
LINE
8
BLACK
6
CONTINUOUS
10
2.04636
20
1.41583
11
2.04713
21
1.42069
0
LINE
8
BLACK
6
CONTINUOUS
10
2.04713
20
1.42069
11
2.04937
21
1.42508
0
LINE
8
BLACK
6
CONTINUOUS
10
2.04937
20
1.42508
11
2.05285
21
1.42857
0
LINE
8
BLACK
6
CONTINUOUS
10
2.05285
20
1.42857
11
2.05724
21
1.4308
0
LINE
8
BLACK
6
CONTINUOUS
10
2.05724
20
1.4308
11
2.06211
21
1.43157
0
LINE
8
BLACK
6
CONTINUOUS
10
2.06211
20
1.43157
11
2.07785
21
1.43157
0
LINE
8
BLACK
6
CONTINUOUS
10
2.07785
20
1.43157
11
2.08272
21
1.4308
0
LINE
8
BLACK
6
CONTINUOUS
10
2.01776
20
1.4308
11
2.02215
21
1.42857
0
LINE
8
BLACK
6
CONTINUOUS
10
2.02215
20
1.42857
11
2.02563
21
1.42508
0
LINE
8
BLACK
6
CONTINUOUS
10
2.02563
20
1.42508
11
2.02787
21
1.42069
0
LINE
8
BLACK
6
CONTINUOUS
10
2.02787
20
1.42069
11
2.02864
21
1.41583
0
LINE
8
BLACK
6
CONTINUOUS
10
2.02864
20
1.41583
11
2.02864
21
1.39417
0
LINE
8
BLACK
6
CONTINUOUS
10
2.02864
20
1.39417
11
2.02787
21
1.38931
0
LINE
8
BLACK
6
CONTINUOUS
10
2.02787
20
1.38931
11
2.02563
21
1.38492
0
LINE
8
BLACK
6
CONTINUOUS
10
2.02563
20
1.38492
11
2.02215
21
1.38143
0
LINE
8
BLACK
6
CONTINUOUS
10
2.02215
20
1.38143
11
2.01776
21
1.3792
0
LINE
8
BLACK
6
CONTINUOUS
10
2.01776
20
1.3792
11
2.01289
21
1.37843
0
LINE
8
BLACK
6
CONTINUOUS
10
2.01289
20
1.37843
11
1.99715
21
1.37843
0
LINE
8
BLACK
6
CONTINUOUS
10
1.99715
20
1.37843
11
1.99228
21
1.3792
0
LINE
8
BLACK
6
CONTINUOUS
10
1.99228
20
1.3792
11
1.98789
21
1.38143
0
LINE
8
BLACK
6
CONTINUOUS
10
1.98789
20
1.38143
11
1.98441
21
1.38492
0
LINE
8
BLACK
6
CONTINUOUS
10
1.98441
20
1.38492
11
1.98217
21
1.38931
0
LINE
8
BLACK
6
CONTINUOUS
10
1.98217
20
1.38931
11
1.9814
21
1.39417
0
LINE
8
BLACK
6
CONTINUOUS
10
1.9814
20
1.39417
11
1.9814
21
1.41583
0
LINE
8
BLACK
6
CONTINUOUS
10
1.9814
20
1.41583
11
1.98217
21
1.42069
0
LINE
8
BLACK
6
CONTINUOUS
10
1.98217
20
1.42069
11
1.98441
21
1.42508
0
LINE
8
BLACK
6
CONTINUOUS
10
1.98441
20
1.42508
11
1.98789
21
1.42857
0
LINE
8
BLACK
6
CONTINUOUS
10
1.98789
20
1.42857
11
1.99228
21
1.4308
0
LINE
8
BLACK
6
CONTINUOUS
10
1.99228
20
1.4308
11
1.99715
21
1.43157
0
LINE
8
BLACK
6
CONTINUOUS
10
1.99715
20
1.43157
11
2.01289
21
1.43157
0
LINE
8
BLACK
6
CONTINUOUS
10
2.01289
20
1.43157
11
2.01776
21
1.4308
0
LINE
8
BLACK
6
CONTINUOUS
10
1.71752
20
1.45876
11
1.72449
21
1.45661
0
LINE
8
BLACK
6
CONTINUOUS
10
1.72449
20
1.45661
11
1.73091
21
1.45313
0
LINE
8
BLACK
6
CONTINUOUS
10
1.73091
20
1.45313
11
1.73654
21
1.44848
0
LINE
8
BLACK
6
CONTINUOUS
10
1.73654
20
1.44848
11
1.74115
21
1.44282
0
LINE
8
BLACK
6
CONTINUOUS
10
1.74115
20
1.44282
11
1.74458
21
1.43638
0
LINE
8
BLACK
6
CONTINUOUS
10
1.74458
20
1.43638
11
1.74669
21
1.42939
0
LINE
8
BLACK
6
CONTINUOUS
10
1.74669
20
1.42939
11
1.7474
21
1.42213
0
LINE
8
BLACK
6
CONTINUOUS
10
1.7474
20
1.42213
11
1.74739
21
1.42108
0
LINE
8
BLACK
6
CONTINUOUS
10
1.74739
20
1.42108
11
1.74647
21
1.41384
0
LINE
8
BLACK
6
CONTINUOUS
10
1.74647
20
1.41384
11
1.74417
21
1.40691
0
LINE
8
BLACK
6
CONTINUOUS
10
1.74417
20
1.40691
11
1.74056
21
1.40057
0
LINE
8
BLACK
6
CONTINUOUS
10
1.74056
20
1.40057
11
1.73579
21
1.39504
0
LINE
8
BLACK
6
CONTINUOUS
10
1.73579
20
1.39504
11
1.73004
21
1.39055
0
LINE
8
BLACK
6
CONTINUOUS
10
1.73004
20
1.39055
11
1.72353
21
1.38726
0
LINE
8
BLACK
6
CONTINUOUS
10
1.72353
20
1.38726
11
1.71649
21
1.38529
0
LINE
8
BLACK
6
CONTINUOUS
10
1.71649
20
1.38529
11
1.70922
21
1.38473
0
LINE
8
BLACK
6
CONTINUOUS
10
1.70922
20
1.38473
11
1.70197
21
1.3856
0
LINE
8
BLACK
6
CONTINUOUS
10
1.70197
20
1.3856
11
1.69503
21
1.38785
0
LINE
8
BLACK
6
CONTINUOUS
10
1.69503
20
1.38785
11
1.68865
21
1.39141
0
LINE
8
BLACK
6
CONTINUOUS
10
1.68865
20
1.39141
11
1.6831
21
1.39614
0
LINE
8
BLACK
6
CONTINUOUS
10
1.6831
20
1.39614
11
1.67856
21
1.40187
0
LINE
8
BLACK
6
CONTINUOUS
10
1.67856
20
1.40187
11
1.67522
21
1.40836
0
LINE
8
BLACK
6
CONTINUOUS
10
1.67522
20
1.40836
11
1.67321
21
1.41537
0
LINE
8
BLACK
6
CONTINUOUS
10
1.67321
20
1.41537
11
1.6726
21
1.42265
0
LINE
8
BLACK
6
CONTINUOUS
10
1.6726
20
1.42265
11
1.67342
21
1.4299
0
LINE
8
BLACK
6
CONTINUOUS
10
1.67342
20
1.4299
11
1.67562
21
1.43686
0
LINE
8
BLACK
6
CONTINUOUS
10
1.67562
20
1.43686
11
1.67914
21
1.44326
0
LINE
8
BLACK
6
CONTINUOUS
10
1.67914
20
1.44326
11
1.68383
21
1.44885
0
LINE
8
BLACK
6
CONTINUOUS
10
1.68383
20
1.44885
11
1.68952
21
1.45342
0
LINE
8
BLACK
6
CONTINUOUS
10
1.68952
20
1.45342
11
1.69599
21
1.4568
0
LINE
8
BLACK
6
CONTINUOUS
10
1.69599
20
1.4568
11
1.70299
21
1.45887
0
LINE
8
BLACK
6
CONTINUOUS
10
1.70299
20
1.45887
11
1.71026
21
1.45953
0
LINE
8
BLACK
6
CONTINUOUS
10
1.71026
20
1.45953
11
1.71752
21
1.45876
0
LINE
8
BLACK
6
CONTINUOUS
10
2.40404
20
1.7059
11
2.40659
21
1.70419
0
LINE
8
BLACK
6
CONTINUOUS
10
2.40659
20
1.70419
11
2.4083
21
1.70164
0
LINE
8
BLACK
6
CONTINUOUS
10
2.4083
20
1.70164
11
2.4089
21
1.69862
0
LINE
8
BLACK
6
CONTINUOUS
10
2.4089
20
1.69862
11
2.4089
21
1.6002
0
LINE
8
BLACK
6
CONTINUOUS
10
2.4089
20
1.6002
11
2.4083
21
1.59718
0
LINE
8
BLACK
6
CONTINUOUS
10
2.4083
20
1.59718
11
2.40659
21
1.59463
0
LINE
8
BLACK
6
CONTINUOUS
10
2.40659
20
1.59463
11
2.40404
21
1.59292
0
LINE
8
BLACK
6
CONTINUOUS
10
2.40404
20
1.59292
11
2.40102
21
1.59232
0
LINE
8
BLACK
6
CONTINUOUS
10
2.40102
20
1.59232
11
2.20417
21
1.59232
0
LINE
8
BLACK
6
CONTINUOUS
10
2.20417
20
1.59232
11
2.20116
21
1.59292
0
LINE
8
BLACK
6
CONTINUOUS
10
2.20116
20
1.59292
11
2.19861
21
1.59463
0
LINE
8
BLACK
6
CONTINUOUS
10
2.19861
20
1.59463
11
2.1969
21
1.59718
0
LINE
8
BLACK
6
CONTINUOUS
10
2.1969
20
1.59718
11
2.1963
21
1.6002
0
LINE
8
BLACK
6
CONTINUOUS
10
2.1963
20
1.6002
11
2.1963
21
1.69862
0
LINE
8
BLACK
6
CONTINUOUS
10
2.1963
20
1.69862
11
2.1969
21
1.70164
0
LINE
8
BLACK
6
CONTINUOUS
10
2.1969
20
1.70164
11
2.19861
21
1.70419
0
LINE
8
BLACK
6
CONTINUOUS
10
2.19861
20
1.70419
11
2.20116
21
1.7059
0
LINE
8
BLACK
6
CONTINUOUS
10
2.20116
20
1.7059
11
2.20417
21
1.7065
0
LINE
8
BLACK
6
CONTINUOUS
10
2.20417
20
1.7065
11
2.40102
21
1.7065
0
LINE
8
BLACK
6
CONTINUOUS
10
2.40102
20
1.7065
11
2.40404
21
1.7059
0
LINE
8
BLACK
6
CONTINUOUS
10
3.35679
20
1.7059
11
3.35935
21
1.70419
0
LINE
8
BLACK
6
CONTINUOUS
10
3.35935
20
1.70419
11
3.36105
21
1.70164
0
LINE
8
BLACK
6
CONTINUOUS
10
3.36105
20
1.70164
11
3.36165
21
1.69862
0
LINE
8
BLACK
6
CONTINUOUS
10
3.36165
20
1.69862
11
3.36165
21
1.6002
0
LINE
8
BLACK
6
CONTINUOUS
10
3.36165
20
1.6002
11
3.36105
21
1.59718
0
LINE
8
BLACK
6
CONTINUOUS
10
3.36105
20
1.59718
11
3.35935
21
1.59463
0
LINE
8
BLACK
6
CONTINUOUS
10
3.35935
20
1.59463
11
3.35679
21
1.59292
0
LINE
8
BLACK
6
CONTINUOUS
10
3.35679
20
1.59292
11
3.35378
21
1.59232
0
LINE
8
BLACK
6
CONTINUOUS
10
3.35378
20
1.59232
11
3.15693
21
1.59232
0
LINE
8
BLACK
6
CONTINUOUS
10
3.15693
20
1.59232
11
3.15392
21
1.59292
0
LINE
8
BLACK
6
CONTINUOUS
10
3.15392
20
1.59292
11
3.15136
21
1.59463
0
LINE
8
BLACK
6
CONTINUOUS
10
3.15136
20
1.59463
11
3.14965
21
1.59718
0
LINE
8
BLACK
6
CONTINUOUS
10
3.14965
20
1.59718
11
3.14906
21
1.6002
0
LINE
8
BLACK
6
CONTINUOUS
10
3.14906
20
1.6002
11
3.14906
21
1.69862
0
LINE
8
BLACK
6
CONTINUOUS
10
3.14906
20
1.69862
11
3.14965
21
1.70164
0
LINE
8
BLACK
6
CONTINUOUS
10
3.14965
20
1.70164
11
3.15136
21
1.70419
0
LINE
8
BLACK
6
CONTINUOUS
10
3.15136
20
1.70419
11
3.15392
21
1.7059
0
LINE
8
BLACK
6
CONTINUOUS
10
3.15392
20
1.7059
11
3.15693
21
1.7065
0
LINE
8
BLACK
6
CONTINUOUS
10
3.15693
20
1.7065
11
3.35378
21
1.7065
0
LINE
8
BLACK
6
CONTINUOUS
10
3.35378
20
1.7065
11
3.35679
21
1.7059
0
LINE
8
BLACK
6
CONTINUOUS
10
3.01492
20
1.9251
11
3.02877
21
1.92266
0
LINE
8
BLACK
6
CONTINUOUS
10
3.02877
20
1.92266
11
3.04226
21
1.91868
0
LINE
8
BLACK
6
CONTINUOUS
10
3.04226
20
1.91868
11
3.05523
21
1.91323
0
LINE
8
BLACK
6
CONTINUOUS
10
3.05523
20
1.91323
11
3.06751
21
1.90637
0
LINE
8
BLACK
6
CONTINUOUS
10
3.06751
20
1.90637
11
3.07894
21
1.89818
0
LINE
8
BLACK
6
CONTINUOUS
10
3.07894
20
1.89818
11
3.08939
21
1.88877
0
LINE
8
BLACK
6
CONTINUOUS
10
3.08939
20
1.88877
11
3.09873
21
1.87825
0
LINE
8
BLACK
6
CONTINUOUS
10
3.09873
20
1.87825
11
3.10684
21
1.86676
0
LINE
8
BLACK
6
CONTINUOUS
10
3.10684
20
1.86676
11
3.11362
21
1.85444
0
LINE
8
BLACK
6
CONTINUOUS
10
3.11362
20
1.85444
11
3.11898
21
1.84143
0
LINE
8
BLACK
6
CONTINUOUS
10
3.11898
20
1.84143
11
3.12285
21
1.82791
0
LINE
8
BLACK
6
CONTINUOUS
10
3.12285
20
1.82791
11
3.1252
21
1.81404
0
LINE
8
BLACK
6
CONTINUOUS
10
3.1252
20
1.81404
11
3.12598
21
1.8
0
LINE
8
BLACK
6
CONTINUOUS
10
3.12598
20
1.8
11
3.12594
21
1.79648
0
LINE
8
BLACK
6
CONTINUOUS
10
3.12594
20
1.79648
11
3.12476
21
1.78247
0
LINE
8
BLACK
6
CONTINUOUS
10
3.12476
20
1.78247
11
3.12203
21
1.76867
0
LINE
8
BLACK
6
CONTINUOUS
10
3.12203
20
1.76867
11
3.11777
21
1.75526
0
LINE
8
BLACK
6
CONTINUOUS
10
3.11777
20
1.75526
11
3.11205
21
1.74241
0
LINE
8
BLACK
6
CONTINUOUS
10
3.11205
20
1.74241
11
3.10493
21
1.73028
0
LINE
8
BLACK
6
CONTINUOUS
10
3.10493
20
1.73028
11
3.09651
21
1.71902
0
LINE
8
BLACK
6
CONTINUOUS
10
3.09651
20
1.71902
11
3.08688
21
1.70877
0
LINE
8
BLACK
6
CONTINUOUS
10
3.08688
20
1.70877
11
3.07617
21
1.69965
0
LINE
8
BLACK
6
CONTINUOUS
10
3.07617
20
1.69965
11
3.06451
21
1.69178
0
LINE
8
BLACK
6
CONTINUOUS
10
3.06451
20
1.69178
11
3.05204
21
1.68527
0
LINE
8
BLACK
6
CONTINUOUS
10
3.05204
20
1.68527
11
3.03893
21
1.68018
0
LINE
8
BLACK
6
CONTINUOUS
10
3.03893
20
1.68018
11
3.02533
21
1.67659
0
LINE
8
BLACK
6
CONTINUOUS
10
3.02533
20
1.67659
11
3.01142
21
1.67453
0
LINE
8
BLACK
6
CONTINUOUS
10
3.01142
20
1.67453
11
2.99736
21
1.67404
0
LINE
8
BLACK
6
CONTINUOUS
10
2.99736
20
1.67404
11
2.98334
21
1.67512
0
LINE
8
BLACK
6
CONTINUOUS
10
2.98334
20
1.67512
11
2.96952
21
1.67776
0
LINE
8
BLACK
6
CONTINUOUS
10
2.96952
20
1.67776
11
2.95609
21
1.68192
0
LINE
8
BLACK
6
CONTINUOUS
10
2.95609
20
1.68192
11
2.9432
21
1.68755
0
LINE
8
BLACK
6
CONTINUOUS
10
2.9432
20
1.68755
11
2.93102
21
1.69458
0
LINE
8
BLACK
6
CONTINUOUS
10
2.93102
20
1.69458
11
2.91969
21
1.70293
0
LINE
8
BLACK
6
CONTINUOUS
10
2.91969
20
1.70293
11
2.90937
21
1.71248
0
LINE
8
BLACK
6
CONTINUOUS
10
2.90937
20
1.71248
11
2.90018
21
1.72313
0
LINE
8
BLACK
6
CONTINUOUS
10
2.90018
20
1.72313
11
2.89224
21
1.73474
0
LINE
8
BLACK
6
CONTINUOUS
10
2.89224
20
1.73474
11
2.88563
21
1.74716
0
LINE
8
BLACK
6
CONTINUOUS
10
2.88563
20
1.74716
11
2.88046
21
1.76023
0
LINE
8
BLACK
6
CONTINUOUS
10
2.88046
20
1.76023
11
2.87677
21
1.77381
0
LINE
8
BLACK
6
CONTINUOUS
10
2.87677
20
1.77381
11
2.87462
21
1.78771
0
LINE
8
BLACK
6
CONTINUOUS
10
2.87462
20
1.78771
11
2.87403
21
1.80176
0
LINE
8
BLACK
6
CONTINUOUS
10
2.87403
20
1.80176
11
2.87501
21
1.81579
0
LINE
8
BLACK
6
CONTINUOUS
10
2.87501
20
1.81579
11
2.87755
21
1.82962
0
LINE
8
BLACK
6
CONTINUOUS
10
2.87755
20
1.82962
11
2.88161
21
1.84309
0
LINE
8
BLACK
6
CONTINUOUS
10
2.88161
20
1.84309
11
2.88715
21
1.85602
0
LINE
8
BLACK
6
CONTINUOUS
10
2.88715
20
1.85602
11
2.8941
21
1.86825
0
LINE
8
BLACK
6
CONTINUOUS
10
2.8941
20
1.86825
11
2.90237
21
1.87963
0
LINE
8
BLACK
6
CONTINUOUS
10
2.90237
20
1.87963
11
2.91185
21
1.89001
0
LINE
8
BLACK
6
CONTINUOUS
10
2.91185
20
1.89001
11
2.92244
21
1.89928
0
LINE
8
BLACK
6
CONTINUOUS
10
2.92244
20
1.89928
11
2.93399
21
1.9073
0
LINE
8
BLACK
6
CONTINUOUS
10
2.93399
20
1.9073
11
2.94636
21
1.91399
0
LINE
8
BLACK
6
CONTINUOUS
10
2.94636
20
1.91399
11
2.9594
21
1.91926
0
LINE
8
BLACK
6
CONTINUOUS
10
2.9594
20
1.91926
11
2.97295
21
1.92305
0
LINE
8
BLACK
6
CONTINUOUS
10
2.97295
20
1.92305
11
2.98683
21
1.92529
0
LINE
8
BLACK
6
CONTINUOUS
10
2.98683
20
1.92529
11
3.00088
21
1.92598
0
LINE
8
BLACK
6
CONTINUOUS
10
3.00088
20
1.92598
11
3.01492
21
1.9251
0
LINE
8
BLACK
6
CONTINUOUS
10
1.58301
20
1.89727
11
1.58557
21
1.89557
0
LINE
8
BLACK
6
CONTINUOUS
10
1.58557
20
1.89557
11
1.58727
21
1.89301
0
LINE
8
BLACK
6
CONTINUOUS
10
1.58727
20
1.89301
11
1.58787
21
1.89
0
LINE
8
BLACK
6
CONTINUOUS
10
1.58787
20
1.89
11
1.58787
21
1.69
0
LINE
8
BLACK
6
CONTINUOUS
10
1.58787
20
1.69
11
1.58727
21
1.68699
0
LINE
8
BLACK
6
CONTINUOUS
10
1.58727
20
1.68699
11
1.58557
21
1.68443
0
LINE
8
BLACK
6
CONTINUOUS
10
1.58557
20
1.68443
11
1.58301
21
1.68273
0
LINE
8
BLACK
6
CONTINUOUS
10
1.58301
20
1.68273
11
1.58
21
1.68213
0
LINE
8
BLACK
6
CONTINUOUS
10
1.58
20
1.68213
11
1.50992
21
1.68213
0
LINE
8
BLACK
6
CONTINUOUS
10
1.50992
20
1.68213
11
1.50691
21
1.68273
0
LINE
8
BLACK
6
CONTINUOUS
10
1.50691
20
1.68273
11
1.50435
21
1.68443
0
LINE
8
BLACK
6
CONTINUOUS
10
1.50435
20
1.68443
11
1.50265
21
1.68699
0
LINE
8
BLACK
6
CONTINUOUS
10
1.50265
20
1.68699
11
1.50205
21
1.69
0
LINE
8
BLACK
6
CONTINUOUS
10
1.50205
20
1.69
11
1.50205
21
1.89
0
LINE
8
BLACK
6
CONTINUOUS
10
1.50205
20
1.89
11
1.50265
21
1.89301
0
LINE
8
BLACK
6
CONTINUOUS
10
1.50265
20
1.89301
11
1.50435
21
1.89557
0
LINE
8
BLACK
6
CONTINUOUS
10
1.50435
20
1.89557
11
1.50691
21
1.89727
0
LINE
8
BLACK
6
CONTINUOUS
10
1.50691
20
1.89727
11
1.50992
21
1.89787
0
LINE
8
BLACK
6
CONTINUOUS
10
1.50992
20
1.89787
11
1.58
21
1.89787
0
LINE
8
BLACK
6
CONTINUOUS
10
1.58
20
1.89787
11
1.58301
21
1.89727
0
LINE
8
BLACK
6
CONTINUOUS
10
1.95309
20
1.89727
11
1.95565
21
1.89557
0
LINE
8
BLACK
6
CONTINUOUS
10
1.95565
20
1.89557
11
1.95735
21
1.89301
0
LINE
8
BLACK
6
CONTINUOUS
10
1.95735
20
1.89301
11
1.95795
21
1.89
0
LINE
8
BLACK
6
CONTINUOUS
10
1.95795
20
1.89
11
1.95795
21
1.69
0
LINE
8
BLACK
6
CONTINUOUS
10
1.95795
20
1.69
11
1.95735
21
1.68699
0
LINE
8
BLACK
6
CONTINUOUS
10
1.95735
20
1.68699
11
1.95565
21
1.68443
0
LINE
8
BLACK
6
CONTINUOUS
10
1.95565
20
1.68443
11
1.95309
21
1.68273
0
LINE
8
BLACK
6
CONTINUOUS
10
1.95309
20
1.68273
11
1.95008
21
1.68213
0
LINE
8
BLACK
6
CONTINUOUS
10
1.95008
20
1.68213
11
1.88
21
1.68213
0
LINE
8
BLACK
6
CONTINUOUS
10
1.88
20
1.68213
11
1.87699
21
1.68273
0
LINE
8
BLACK
6
CONTINUOUS
10
1.87699
20
1.68273
11
1.87443
21
1.68443
0
LINE
8
BLACK
6
CONTINUOUS
10
1.87443
20
1.68443
11
1.87273
21
1.68699
0
LINE
8
BLACK
6
CONTINUOUS
10
1.87273
20
1.68699
11
1.87213
21
1.69
0
LINE
8
BLACK
6
CONTINUOUS
10
1.87213
20
1.69
11
1.87213
21
1.89
0
LINE
8
BLACK
6
CONTINUOUS
10
1.87213
20
1.89
11
1.87273
21
1.89301
0
LINE
8
BLACK
6
CONTINUOUS
10
1.87273
20
1.89301
11
1.87443
21
1.89557
0
LINE
8
BLACK
6
CONTINUOUS
10
1.87443
20
1.89557
11
1.87699
21
1.89727
0
LINE
8
BLACK
6
CONTINUOUS
10
1.87699
20
1.89727
11
1.88
21
1.89787
0
LINE
8
BLACK
6
CONTINUOUS
10
1.88
20
1.89787
11
1.95008
21
1.89787
0
LINE
8
BLACK
6
CONTINUOUS
10
1.95008
20
1.89787
11
1.95309
21
1.89727
0
LINE
8
BLACK
6
CONTINUOUS
10
1.81097
20
1.87523
11
1.81352
21
1.87352
0
LINE
8
BLACK
6
CONTINUOUS
10
1.81352
20
1.87352
11
1.81523
21
1.87097
0
LINE
8
BLACK
6
CONTINUOUS
10
1.81523
20
1.87097
11
1.81583
21
1.86795
0
LINE
8
BLACK
6
CONTINUOUS
10
1.81583
20
1.86795
11
1.81583
21
1.71205
0
LINE
8
BLACK
6
CONTINUOUS
10
1.81583
20
1.71205
11
1.81523
21
1.70903
0
LINE
8
BLACK
6
CONTINUOUS
10
1.81523
20
1.70903
11
1.81352
21
1.70648
0
LINE
8
BLACK
6
CONTINUOUS
10
1.81352
20
1.70648
11
1.81097
21
1.70477
0
LINE
8
BLACK
6
CONTINUOUS
10
1.81097
20
1.70477
11
1.80795
21
1.70417
0
LINE
8
BLACK
6
CONTINUOUS
10
1.80795
20
1.70417
11
1.65205
21
1.70417
0
LINE
8
BLACK
6
CONTINUOUS
10
1.65205
20
1.70417
11
1.64903
21
1.70477
0
LINE
8
BLACK
6
CONTINUOUS
10
1.64903
20
1.70477
11
1.64648
21
1.70648
0
LINE
8
BLACK
6
CONTINUOUS
10
1.64648
20
1.70648
11
1.64477
21
1.70903
0
LINE
8
BLACK
6
CONTINUOUS
10
1.64477
20
1.70903
11
1.64417
21
1.71205
0
LINE
8
BLACK
6
CONTINUOUS
10
1.64417
20
1.71205
11
1.64417
21
1.86795
0
LINE
8
BLACK
6
CONTINUOUS
10
1.64417
20
1.86795
11
1.64477
21
1.87097
0
LINE
8
BLACK
6
CONTINUOUS
10
1.64477
20
1.87097
11
1.64648
21
1.87352
0
LINE
8
BLACK
6
CONTINUOUS
10
1.64648
20
1.87352
11
1.64903
21
1.87523
0
LINE
8
BLACK
6
CONTINUOUS
10
1.64903
20
1.87523
11
1.65205
21
1.87583
0
LINE
8
BLACK
6
CONTINUOUS
10
1.65205
20
1.87583
11
1.80795
21
1.87583
0
LINE
8
BLACK
6
CONTINUOUS
10
1.80795
20
1.87583
11
1.81097
21
1.87523
0
LINE
8
BLACK
6
CONTINUOUS
10
2.75793
20
1.78705
11
2.7629
21
1.7853
0
LINE
8
BLACK
6
CONTINUOUS
10
2.7629
20
1.7853
11
2.76713
21
1.78217
0
LINE
8
BLACK
6
CONTINUOUS
10
2.76713
20
1.78217
11
2.77026
21
1.77794
0
LINE
8
BLACK
6
CONTINUOUS
10
2.77026
20
1.77794
11
2.77201
21
1.77297
0
LINE
8
BLACK
6
CONTINUOUS
10
2.77201
20
1.77297
11
2.77232
21
1.76965
0
LINE
8
BLACK
6
CONTINUOUS
10
2.77232
20
1.76965
11
2.77232
21
1.74012
0
LINE
8
BLACK
6
CONTINUOUS
10
2.77232
20
1.74012
11
2.77201
21
1.7368
0
LINE
8
BLACK
6
CONTINUOUS
10
2.77201
20
1.7368
11
2.77026
21
1.73183
0
LINE
8
BLACK
6
CONTINUOUS
10
2.77026
20
1.73183
11
2.76713
21
1.72759
0
LINE
8
BLACK
6
CONTINUOUS
10
2.76713
20
1.72759
11
2.7629
21
1.72446
0
LINE
8
BLACK
6
CONTINUOUS
10
2.7629
20
1.72446
11
2.75793
21
1.72272
0
LINE
8
BLACK
6
CONTINUOUS
10
2.75793
20
1.72272
11
2.75461
21
1.7224
0
LINE
8
BLACK
6
CONTINUOUS
10
2.75461
20
1.7224
11
2.70539
21
1.7224
0
LINE
8
BLACK
6
CONTINUOUS
10
2.70539
20
1.7224
11
2.70207
21
1.72272
0
LINE
8
BLACK
6
CONTINUOUS
10
2.70207
20
1.72272
11
2.6971
21
1.72446
0
LINE
8
BLACK
6
CONTINUOUS
10
2.6971
20
1.72446
11
2.69287
21
1.72759
0
LINE
8
BLACK
6
CONTINUOUS
10
2.69287
20
1.72759
11
2.68974
21
1.73183
0
LINE
8
BLACK
6
CONTINUOUS
10
2.68974
20
1.73183
11
2.68799
21
1.7368
0
LINE
8
BLACK
6
CONTINUOUS
10
2.68799
20
1.7368
11
2.68768
21
1.74012
0
LINE
8
BLACK
6
CONTINUOUS
10
2.68768
20
1.74012
11
2.68768
21
1.76965
0
LINE
8
BLACK
6
CONTINUOUS
10
2.68768
20
1.76965
11
2.68799
21
1.77297
0
LINE
8
BLACK
6
CONTINUOUS
10
2.68799
20
1.77297
11
2.68974
21
1.77794
0
LINE
8
BLACK
6
CONTINUOUS
10
2.68974
20
1.77794
11
2.69287
21
1.78217
0
LINE
8
BLACK
6
CONTINUOUS
10
2.69287
20
1.78217
11
2.6971
21
1.7853
0
LINE
8
BLACK
6
CONTINUOUS
10
2.6971
20
1.7853
11
2.70207
21
1.78705
0
LINE
8
BLACK
6
CONTINUOUS
10
2.70207
20
1.78705
11
2.70539
21
1.78736
0
LINE
8
BLACK
6
CONTINUOUS
10
2.70539
20
1.78736
11
2.75461
21
1.78736
0
LINE
8
BLACK
6
CONTINUOUS
10
2.75461
20
1.78736
11
2.75793
21
1.78705
0
LINE
8
BLACK
6
CONTINUOUS
10
2.36301
20
1.86727
11
2.36557
21
1.86557
0
LINE
8
BLACK
6
CONTINUOUS
10
2.36557
20
1.86557
11
2.36727
21
1.86301
0
LINE
8
BLACK
6
CONTINUOUS
10
2.36727
20
1.86301
11
2.36787
21
1.86
0
LINE
8
BLACK
6
CONTINUOUS
10
2.36787
20
1.86
11
2.36787
21
1.8
0
LINE
8
BLACK
6
CONTINUOUS
10
2.36787
20
1.8
11
2.36727
21
1.79699
0
LINE
8
BLACK
6
CONTINUOUS
10
2.36727
20
1.79699
11
2.36557
21
1.79443
0
LINE
8
BLACK
6
CONTINUOUS
10
2.36557
20
1.79443
11
2.36301
21
1.79273
0
LINE
8
BLACK
6
CONTINUOUS
10
2.36301
20
1.79273
11
2.36
21
1.79213
0
LINE
8
BLACK
6
CONTINUOUS
10
2.36
20
1.79213
11
2.3
21
1.79213
0
LINE
8
BLACK
6
CONTINUOUS
10
2.3
20
1.79213
11
2.29699
21
1.79273
0
LINE
8
BLACK
6
CONTINUOUS
10
2.29699
20
1.79273
11
2.29443
21
1.79443
0
LINE
8
BLACK
6
CONTINUOUS
10
2.29443
20
1.79443
11
2.29273
21
1.79699
0
LINE
8
BLACK
6
CONTINUOUS
10
2.29273
20
1.79699
11
2.29213
21
1.8
0
LINE
8
BLACK
6
CONTINUOUS
10
2.29213
20
1.8
11
2.29213
21
1.86
0
LINE
8
BLACK
6
CONTINUOUS
10
2.29213
20
1.86
11
2.29273
21
1.86301
0
LINE
8
BLACK
6
CONTINUOUS
10
2.29273
20
1.86301
11
2.29443
21
1.86557
0
LINE
8
BLACK
6
CONTINUOUS
10
2.29443
20
1.86557
11
2.29699
21
1.86727
0
LINE
8
BLACK
6
CONTINUOUS
10
2.29699
20
1.86727
11
2.3
21
1.86787
0
LINE
8
BLACK
6
CONTINUOUS
10
2.3
20
1.86787
11
2.36
21
1.86787
0
LINE
8
BLACK
6
CONTINUOUS
10
2.36
20
1.86787
11
2.36301
21
1.86727
0
LINE
8
BLACK
6
CONTINUOUS
10
2.46301
20
1.86727
11
2.46557
21
1.86557
0
LINE
8
BLACK
6
CONTINUOUS
10
2.46557
20
1.86557
11
2.46727
21
1.86301
0
LINE
8
BLACK
6
CONTINUOUS
10
2.46727
20
1.86301
11
2.46787
21
1.86
0
LINE
8
BLACK
6
CONTINUOUS
10
2.46787
20
1.86
11
2.46787
21
1.8
0
LINE
8
BLACK
6
CONTINUOUS
10
2.46787
20
1.8
11
2.46727
21
1.79699
0
LINE
8
BLACK
6
CONTINUOUS
10
2.46727
20
1.79699
11
2.46557
21
1.79443
0
LINE
8
BLACK
6
CONTINUOUS
10
2.46557
20
1.79443
11
2.46301
21
1.79273
0
LINE
8
BLACK
6
CONTINUOUS
10
2.46301
20
1.79273
11
2.46
21
1.79213
0
LINE
8
BLACK
6
CONTINUOUS
10
2.46
20
1.79213
11
2.4
21
1.79213
0
LINE
8
BLACK
6
CONTINUOUS
10
2.4
20
1.79213
11
2.39699
21
1.79273
0
LINE
8
BLACK
6
CONTINUOUS
10
2.39699
20
1.79273
11
2.39443
21
1.79443
0
LINE
8
BLACK
6
CONTINUOUS
10
2.39443
20
1.79443
11
2.39273
21
1.79699
0
LINE
8
BLACK
6
CONTINUOUS
10
2.39273
20
1.79699
11
2.39213
21
1.8
0
LINE
8
BLACK
6
CONTINUOUS
10
2.39213
20
1.8
11
2.39213
21
1.86
0
LINE
8
BLACK
6
CONTINUOUS
10
2.39213
20
1.86
11
2.39273
21
1.86301
0
LINE
8
BLACK
6
CONTINUOUS
10
2.39273
20
1.86301
11
2.39443
21
1.86557
0
LINE
8
BLACK
6
CONTINUOUS
10
2.39443
20
1.86557
11
2.39699
21
1.86727
0
LINE
8
BLACK
6
CONTINUOUS
10
2.39699
20
1.86727
11
2.4
21
1.86787
0
LINE
8
BLACK
6
CONTINUOUS
10
2.4
20
1.86787
11
2.46
21
1.86787
0
LINE
8
BLACK
6
CONTINUOUS
10
2.46
20
1.86787
11
2.46301
21
1.86727
0
LINE
8
BLACK
6
CONTINUOUS
10
2.75793
20
1.89728
11
2.7629
21
1.89554
0
LINE
8
BLACK
6
CONTINUOUS
10
2.7629
20
1.89554
11
2.76713
21
1.89241
0
LINE
8
BLACK
6
CONTINUOUS
10
2.76713
20
1.89241
11
2.77026
21
1.88817
0
LINE
8
BLACK
6
CONTINUOUS
10
2.77026
20
1.88817
11
2.77201
21
1.8832
0
LINE
8
BLACK
6
CONTINUOUS
10
2.77201
20
1.8832
11
2.77232
21
1.87988
0
LINE
8
BLACK
6
CONTINUOUS
10
2.77232
20
1.87988
11
2.77232
21
1.85035
0
LINE
8
BLACK
6
CONTINUOUS
10
2.77232
20
1.85035
11
2.77201
21
1.84703
0
LINE
8
BLACK
6
CONTINUOUS
10
2.77201
20
1.84703
11
2.77026
21
1.84206
0
LINE
8
BLACK
6
CONTINUOUS
10
2.77026
20
1.84206
11
2.76713
21
1.83783
0
LINE
8
BLACK
6
CONTINUOUS
10
2.76713
20
1.83783
11
2.7629
21
1.8347
0
LINE
8
BLACK
6
CONTINUOUS
10
2.7629
20
1.8347
11
2.75793
21
1.83295
0
LINE
8
BLACK
6
CONTINUOUS
10
2.75793
20
1.83295
11
2.75461
21
1.83264
0
LINE
8
BLACK
6
CONTINUOUS
10
2.75461
20
1.83264
11
2.70539
21
1.83264
0
LINE
8
BLACK
6
CONTINUOUS
10
2.70539
20
1.83264
11
2.70207
21
1.83295
0
LINE
8
BLACK
6
CONTINUOUS
10
2.70207
20
1.83295
11
2.6971
21
1.8347
0
LINE
8
BLACK
6
CONTINUOUS
10
2.6971
20
1.8347
11
2.69287
21
1.83783
0
LINE
8
BLACK
6
CONTINUOUS
10
2.69287
20
1.83783
11
2.68974
21
1.84206
0
LINE
8
BLACK
6
CONTINUOUS
10
2.68974
20
1.84206
11
2.68799
21
1.84703
0
LINE
8
BLACK
6
CONTINUOUS
10
2.68799
20
1.84703
11
2.68768
21
1.85035
0
LINE
8
BLACK
6
CONTINUOUS
10
2.68768
20
1.85035
11
2.68768
21
1.87988
0
LINE
8
BLACK
6
CONTINUOUS
10
2.68768
20
1.87988
11
2.68799
21
1.8832
0
LINE
8
BLACK
6
CONTINUOUS
10
2.68799
20
1.8832
11
2.68974
21
1.88817
0
LINE
8
BLACK
6
CONTINUOUS
10
2.68974
20
1.88817
11
2.69287
21
1.89241
0
LINE
8
BLACK
6
CONTINUOUS
10
2.69287
20
1.89241
11
2.6971
21
1.89554
0
LINE
8
BLACK
6
CONTINUOUS
10
2.6971
20
1.89554
11
2.70207
21
1.89728
0
LINE
8
BLACK
6
CONTINUOUS
10
2.70207
20
1.89728
11
2.70539
21
1.8976
0
LINE
8
BLACK
6
CONTINUOUS
10
2.70539
20
1.8976
11
2.75461
21
1.8976
0
LINE
8
BLACK
6
CONTINUOUS
10
2.75461
20
1.8976
11
2.75793
21
1.89728
  0
ENDSEC
  0
EOF
