  0
SECTION
  2
HEADER
  9
$ANGBASE
  50
0.0
  9
$ANGDIR
  70
1
  9
$MEASUREMENT
  70
0
  0
ENDSEC
  0
SECTION
  2
TABLES
  0
TABLE
  2
LTYPE
  70
4
  0
LTYPE
  5
40F
  2
CONTINUOUS
  70
0
  3
Solid line
  72
65
  73
0
  40
0.0
  0
LTYPE
  5
410
  2
DASHDOT
 70
0
  3
Dash Dot ____ _ ____ _
 72
65
 73
4
 40
2.0
 49
1.25
 49
-0.25
 49
0.25
 49
-0.25
  0
LTYPE
  5
411
  2
DASHED
 70
0
  3
Dashed __ __ __ __ __
 72
65
 73
2
 40
0.75
 49
0.5
 49
-0.25
  0
LTYPE
  5
43B
  2
DOTTED
 70
0
  3
Dotted .  .  .  .
 72
65
 73
2
 40
0.2
 49
0.0
 49
-0.2
  0
ENDTAB
  0
TABLE
  2
STYLE
  70
4
  0
STYLE
  2
KICAD
  70
0
  40
0
  41
1
  42
1
  50
0
  71
0
  3
isocp.shx
  0
STYLE
  2
KICADB
  70
0
  40
0
  41
1
  42
1
  50
0
  71
0
  3
isocp.shx
  0
STYLE
  2
KICADI
  70
0
  40
0
  41
1
  42
1
  50
15
  71
0
  3
isocp.shx
  0
STYLE
  2
KICADBI
  70
0
  40
0
  41
1
  42
1
  50
15
  71
0
  3
isocp.shx
  0
ENDTAB
  0
TABLE
  2
LAYER
  70
1
  0
LAYER
  2
BLACK
  70
0
  62
7
  6
CONTINUOUS
  0
ENDTAB
  0
ENDSEC
  0
SECTION
  2
ENTITIES
0
LINE
8
BLACK
6
CONTINUOUS
10
5.6386047637795276
20
-2.973160157480315
11
5.6516780708661418
21
-2.975760590551181
0
LINE
8
BLACK
6
CONTINUOUS
10
5.6516780708661418
20
-2.975760590551181
11
5.6644335039370075
21
-2.9796299212598423
0
LINE
8
BLACK
6
CONTINUOUS
10
5.6644335039370075
20
-2.9796299212598423
11
5.6767482677165351
21
-2.984730866141732
0
LINE
8
BLACK
6
CONTINUOUS
10
5.6767482677165351
20
-2.984730866141732
11
5.6885037401574801
21
-2.9910142913385824
0
LINE
8
BLACK
6
CONTINUOUS
10
5.6885037401574801
20
-2.9910142913385824
11
5.6995867716535429
21
-2.9984197244094486
0
LINE
8
BLACK
6
CONTINUOUS
10
5.6995867716535429
20
-2.9984197244094486
11
5.7098905118110235
21
-3.0068758267716533
0
LINE
8
BLACK
6
CONTINUOUS
10
5.7098905118110235
20
-3.0068758267716533
11
5.7193158267716537
21
-3.0163011417322836
0
LINE
8
BLACK
6
CONTINUOUS
10
5.7193158267716537
20
-3.0163011417322836
11
5.7277719291338585
21
-3.0266048818897637
0
LINE
8
BLACK
6
CONTINUOUS
10
5.7277719291338585
20
-3.0266048818897637
11
5.7351773622047242
21
-3.0376879133858266
0
LINE
8
BLACK
6
CONTINUOUS
10
5.7351773622047242
20
-3.0376879133858266
11
5.7414607874015751
21
-3.0494433858267715
0
LINE
8
BLACK
6
CONTINUOUS
10
5.7414607874015751
20
-3.0494433858267715
11
5.7465617322834648
21
-3.0617581496062991
0
LINE
8
BLACK
6
CONTINUOUS
10
5.7465617322834648
20
-3.0617581496062991
11
5.750431062992126
21
-3.0745135826771652
0
LINE
8
BLACK
6
CONTINUOUS
10
5.750431062992126
20
-3.0745135826771652
11
5.7530314960629916
21
-3.0875868897637795
0
LINE
8
BLACK
6
CONTINUOUS
10
5.7530314960629916
20
-3.0875868897637795
11
5.7543379921259845
21
-3.1008521259842521
0
LINE
8
BLACK
6
CONTINUOUS
10
5.7543379921259845
20
-3.1008521259842521
11
5.7543379921259845
21
-3.1141814960629919
0
LINE
8
BLACK
6
CONTINUOUS
10
5.7543379921259845
20
-3.1141814960629919
11
5.7530314960629916
21
-3.1274467322834645
0
LINE
8
BLACK
6
CONTINUOUS
10
5.7530314960629916
20
-3.1274467322834645
11
5.750431062992126
21
-3.1405200393700787
0
LINE
8
BLACK
6
CONTINUOUS
10
5.750431062992126
20
-3.1405200393700787
11
5.7465617322834648
21
-3.1532754724409449
0
LINE
8
BLACK
6
CONTINUOUS
10
5.7465617322834648
20
-3.1532754724409449
11
5.7414607874015751
21
-3.1655902362204724
0
LINE
8
BLACK
6
CONTINUOUS
10
5.7414607874015751
20
-3.1655902362204724
11
5.7351773622047242
21
-3.1773457086614174
0
LINE
8
BLACK
6
CONTINUOUS
10
5.7351773622047242
20
-3.1773457086614174
11
5.7277719291338585
21
-3.1884287401574802
0
LINE
8
BLACK
6
CONTINUOUS
10
5.7277719291338585
20
-3.1884287401574802
11
5.7193158267716537
21
-3.1987324803149604
0
LINE
8
BLACK
6
CONTINUOUS
10
5.7193158267716537
20
-3.1987324803149604
11
5.7098905118110235
21
-3.2081577952755906
0
LINE
8
BLACK
6
CONTINUOUS
10
5.7098905118110235
20
-3.2081577952755906
11
5.6995867716535429
21
-3.2166138976377954
0
LINE
8
BLACK
6
CONTINUOUS
10
5.6995867716535429
20
-3.2166138976377954
11
5.6885037401574801
21
-3.2240193307086615
0
LINE
8
BLACK
6
CONTINUOUS
10
5.6885037401574801
20
-3.2240193307086615
11
5.6767482677165351
21
-3.2303027559055115
0
LINE
8
BLACK
6
CONTINUOUS
10
5.6767482677165351
20
-3.2303027559055115
11
5.6644335039370075
21
-3.2354037007874017
0
LINE
8
BLACK
6
CONTINUOUS
10
5.6644335039370075
20
-3.2354037007874017
11
5.6516780708661418
21
-3.2392730314960629
0
LINE
8
BLACK
6
CONTINUOUS
10
5.6516780708661418
20
-3.2392730314960629
11
5.6386047637795276
21
-3.2418734645669289
0
LINE
8
BLACK
6
CONTINUOUS
10
5.6386047637795276
20
-3.2418734645669289
11
5.6253395275590554
21
-3.243179960629921
0
LINE
8
BLACK
6
CONTINUOUS
10
5.6253395275590554
20
-3.243179960629921
11
5.6120101574803147
21
-3.243179960629921
0
LINE
8
BLACK
6
CONTINUOUS
10
5.6120101574803147
20
-3.243179960629921
11
5.5987449212598426
21
-3.2418734645669289
0
LINE
8
BLACK
6
CONTINUOUS
10
5.5987449212598426
20
-3.2418734645669289
11
5.5856716141732283
21
-3.2392730314960629
0
LINE
8
BLACK
6
CONTINUOUS
10
5.5856716141732283
20
-3.2392730314960629
11
5.5729161811023618
21
-3.2354037007874017
0
LINE
8
BLACK
6
CONTINUOUS
10
5.5729161811023618
20
-3.2354037007874017
11
5.5606014173228342
21
-3.2303027559055115
0
LINE
8
BLACK
6
CONTINUOUS
10
5.5606014173228342
20
-3.2303027559055115
11
5.5488459448818892
21
-3.2240193307086615
0
LINE
8
BLACK
6
CONTINUOUS
10
5.5488459448818892
20
-3.2240193307086615
11
5.5377629133858264
21
-3.2166138976377954
0
LINE
8
BLACK
6
CONTINUOUS
10
5.5377629133858264
20
-3.2166138976377954
11
5.5274591732283467
21
-3.2081577952755906
0
LINE
8
BLACK
6
CONTINUOUS
10
5.5274591732283467
20
-3.2081577952755906
11
5.5180338582677164
21
-3.1987324803149604
0
LINE
8
BLACK
6
CONTINUOUS
10
5.5180338582677164
20
-3.1987324803149604
11
5.5095777559055117
21
-3.1884287401574802
0
LINE
8
BLACK
6
CONTINUOUS
10
5.5095777559055117
20
-3.1884287401574802
11
5.502172322834646
21
-3.1773457086614174
0
LINE
8
BLACK
6
CONTINUOUS
10
5.502172322834646
20
-3.1773457086614174
11
5.4958888976377951
21
-3.1655902362204724
0
LINE
8
BLACK
6
CONTINUOUS
10
5.4958888976377951
20
-3.1655902362204724
11
5.4907879527559054
21
-3.1532754724409449
0
LINE
8
BLACK
6
CONTINUOUS
10
5.4907879527559054
20
-3.1532754724409449
11
5.4869186220472441
21
-3.1405200393700787
0
LINE
8
BLACK
6
CONTINUOUS
10
5.4869186220472441
20
-3.1405200393700787
11
5.4843181889763777
21
-3.1274467322834645
0
LINE
8
BLACK
6
CONTINUOUS
10
5.4843181889763777
20
-3.1274467322834645
11
5.4830116929133856
21
-3.1141814960629919
0
LINE
8
BLACK
6
CONTINUOUS
10
5.4830116929133856
20
-3.1141814960629919
11
5.4830116929133856
21
-3.1010374803149605
0
LINE
8
BLACK
6
CONTINUOUS
10
5.4830116929133856
20
-3.1010374803149605
11
5.4830116929133856
21
-3.1008521259842521
0
LINE
8
BLACK
6
CONTINUOUS
10
5.4830116929133856
20
-3.1008521259842521
11
5.4843181889763777
21
-3.0875868897637795
0
LINE
8
BLACK
6
CONTINUOUS
10
5.4843181889763777
20
-3.0875868897637795
11
5.4869186220472441
21
-3.0745135826771652
0
LINE
8
BLACK
6
CONTINUOUS
10
5.4869186220472441
20
-3.0745135826771652
11
5.4907879527559054
21
-3.0617581496062991
0
LINE
8
BLACK
6
CONTINUOUS
10
5.4907879527559054
20
-3.0617581496062991
11
5.4958888976377951
21
-3.0494433858267715
0
LINE
8
BLACK
6
CONTINUOUS
10
5.4958888976377951
20
-3.0494433858267715
11
5.502172322834646
21
-3.0376879133858266
0
LINE
8
BLACK
6
CONTINUOUS
10
5.502172322834646
20
-3.0376879133858266
11
5.5095777559055117
21
-3.0266048818897637
0
LINE
8
BLACK
6
CONTINUOUS
10
5.5095777559055117
20
-3.0266048818897637
11
5.5180338582677164
21
-3.0163011417322836
0
LINE
8
BLACK
6
CONTINUOUS
10
5.5180338582677164
20
-3.0163011417322836
11
5.5274591732283467
21
-3.0068758267716533
0
LINE
8
BLACK
6
CONTINUOUS
10
5.5274591732283467
20
-3.0068758267716533
11
5.5377629133858264
21
-2.9984197244094486
0
LINE
8
BLACK
6
CONTINUOUS
10
5.5377629133858264
20
-2.9984197244094486
11
5.5488459448818892
21
-2.9910142913385824
0
LINE
8
BLACK
6
CONTINUOUS
10
5.5488459448818892
20
-2.9910142913385824
11
5.5606014173228342
21
-2.984730866141732
0
LINE
8
BLACK
6
CONTINUOUS
10
5.5606014173228342
20
-2.984730866141732
11
5.5729161811023618
21
-2.9796299212598423
0
LINE
8
BLACK
6
CONTINUOUS
10
5.5729161811023618
20
-2.9796299212598423
11
5.5856716141732283
21
-2.975760590551181
0
LINE
8
BLACK
6
CONTINUOUS
10
5.5856716141732283
20
-2.975760590551181
11
5.5987449212598426
21
-2.973160157480315
0
LINE
8
BLACK
6
CONTINUOUS
10
5.5987449212598426
20
-2.973160157480315
11
5.6120101574803147
21
-2.9718536614173225
0
LINE
8
BLACK
6
CONTINUOUS
10
5.6120101574803147
20
-2.9718536614173225
11
5.6253395275590554
21
-2.9718536614173225
0
LINE
8
BLACK
6
CONTINUOUS
10
5.6253395275590554
20
-2.9718536614173225
11
5.6386047637795276
21
-2.973160157480315
0
LINE
8
BLACK
6
CONTINUOUS
10
5.4867850787401578
20
-3.1139961417322835
11
5.4880552362204726
21
-3.126892401574803
0
LINE
8
BLACK
6
CONTINUOUS
10
5.4880552362204726
20
-3.126892401574803
11
5.4905833464566927
21
-3.1396020472440944
0
LINE
8
BLACK
6
CONTINUOUS
10
5.4905833464566927
20
-3.1396020472440944
11
5.4943450787401575
21
-3.1520027165354332
0
LINE
8
BLACK
6
CONTINUOUS
10
5.4943450787401575
20
-3.1520027165354332
11
5.499304133858268
21
-3.163974960629921
0
LINE
8
BLACK
6
CONTINUOUS
10
5.499304133858268
20
-3.163974960629921
11
5.50541279527559
21
-3.1754034645669291
0
LINE
8
BLACK
6
CONTINUOUS
10
5.50541279527559
20
-3.1754034645669291
11
5.5126122440944885
21
-3.1861781889763781
0
LINE
8
BLACK
6
CONTINUOUS
10
5.5126122440944885
20
-3.1861781889763781
11
5.5208331102362207
21
-3.1961953937007874
0
LINE
8
BLACK
6
CONTINUOUS
10
5.5208331102362207
20
-3.1961953937007874
11
5.5299962598425196
21
-3.2053585433070864
0
LINE
8
BLACK
6
CONTINUOUS
10
5.5299962598425196
20
-3.2053585433070864
11
5.540013464566929
21
-3.213579409448819
0
LINE
8
BLACK
6
CONTINUOUS
10
5.540013464566929
20
-3.213579409448819
11
5.5507881889763775
21
-3.2207788582677166
0
LINE
8
BLACK
6
CONTINUOUS
10
5.5507881889763775
20
-3.2207788582677166
11
5.5622166929133856
21
-3.2268875196850395
0
LINE
8
BLACK
6
CONTINUOUS
10
5.5622166929133856
20
-3.2268875196850395
11
5.5741889370078743
21
-3.2318465748031495
0
LINE
8
BLACK
6
CONTINUOUS
10
5.5741889370078743
20
-3.2318465748031495
11
5.5865896062992126
21
-3.235608307086614
0
LINE
8
BLACK
6
CONTINUOUS
10
5.5865896062992126
20
-3.235608307086614
11
5.5992992519685041
21
-3.2381364173228344
0
LINE
8
BLACK
6
CONTINUOUS
10
5.5992992519685041
20
-3.2381364173228344
11
5.6121955118110236
21
-3.2394065748031498
0
LINE
8
BLACK
6
CONTINUOUS
10
5.6121955118110236
20
-3.2394065748031498
11
5.6251541732283465
21
-3.2394065748031498
0
LINE
8
BLACK
6
CONTINUOUS
10
5.6251541732283465
20
-3.2394065748031498
11
5.6380504330708661
21
-3.2381364173228344
0
LINE
8
BLACK
6
CONTINUOUS
10
5.6380504330708661
20
-3.2381364173228344
11
5.6507600787401575
21
-3.235608307086614
0
LINE
8
BLACK
6
CONTINUOUS
10
5.6507600787401575
20
-3.235608307086614
11
5.6631607480314958
21
-3.2318465748031495
0
LINE
8
BLACK
6
CONTINUOUS
10
5.6631607480314958
20
-3.2318465748031495
11
5.6751329921259845
21
-3.2268875196850395
0
LINE
8
BLACK
6
CONTINUOUS
10
5.6751329921259845
20
-3.2268875196850395
11
5.6865614960629918
21
-3.2207788582677166
0
LINE
8
BLACK
6
CONTINUOUS
10
5.6865614960629918
20
-3.2207788582677166
11
5.6973362204724411
21
-3.213579409448819
0
LINE
8
BLACK
6
CONTINUOUS
10
5.6973362204724411
20
-3.213579409448819
11
5.7073534251968505
21
-3.2053585433070864
0
LINE
8
BLACK
6
CONTINUOUS
10
5.7073534251968505
20
-3.2053585433070864
11
5.7165165748031495
21
-3.1961953937007874
0
LINE
8
BLACK
6
CONTINUOUS
10
5.7165165748031495
20
-3.1961953937007874
11
5.7247374409448817
21
-3.1861781889763781
0
LINE
8
BLACK
6
CONTINUOUS
10
5.7247374409448817
20
-3.1861781889763781
11
5.7319368897637792
21
-3.1754034645669291
0
LINE
8
BLACK
6
CONTINUOUS
10
5.7319368897637792
20
-3.1754034645669291
11
5.7380455511811022
21
-3.163974960629921
0
LINE
8
BLACK
6
CONTINUOUS
10
5.7380455511811022
20
-3.163974960629921
11
5.7430046062992126
21
-3.1520027165354332
0
LINE
8
BLACK
6
CONTINUOUS
10
5.7430046062992126
20
-3.1520027165354332
11
5.7467663385826766
21
-3.1396020472440944
0
LINE
8
BLACK
6
CONTINUOUS
10
5.7467663385826766
20
-3.1396020472440944
11
5.7492944488188975
21
-3.126892401574803
0
LINE
8
BLACK
6
CONTINUOUS
10
5.7492944488188975
20
-3.126892401574803
11
5.7505646062992124
21
-3.1139961417322835
0
LINE
8
BLACK
6
CONTINUOUS
10
5.7505646062992124
20
-3.1139961417322835
11
5.7505646062992124
21
-3.1010374803149605
0
LINE
8
BLACK
6
CONTINUOUS
10
5.7505646062992124
20
-3.1010374803149605
11
5.7492944488188975
21
-3.088141220472441
0
LINE
8
BLACK
6
CONTINUOUS
10
5.7492944488188975
20
-3.088141220472441
11
5.7467663385826766
21
-3.0754315748031495
0
LINE
8
BLACK
6
CONTINUOUS
10
5.7467663385826766
20
-3.0754315748031495
11
5.7430046062992126
21
-3.0630309055118108
0
LINE
8
BLACK
6
CONTINUOUS
10
5.7430046062992126
20
-3.0630309055118108
11
5.7380455511811022
21
-3.051058661417323
0
LINE
8
BLACK
6
CONTINUOUS
10
5.7380455511811022
20
-3.051058661417323
11
5.7319368897637792
21
-3.0396301574803148
0
LINE
8
BLACK
6
CONTINUOUS
10
5.7319368897637792
20
-3.0396301574803148
11
5.7247374409448817
21
-3.0288554330708659
0
LINE
8
BLACK
6
CONTINUOUS
10
5.7247374409448817
20
-3.0288554330708659
11
5.7165165748031495
21
-3.0188382283464565
0
LINE
8
BLACK
6
CONTINUOUS
10
5.7165165748031495
20
-3.0188382283464565
11
5.7073534251968505
21
-3.0096750787401576
0
LINE
8
BLACK
6
CONTINUOUS
10
5.7073534251968505
20
-3.0096750787401576
11
5.6973362204724411
21
-3.0014542125984249
0
LINE
8
BLACK
6
CONTINUOUS
10
5.6973362204724411
20
-3.0014542125984249
11
5.6865614960629918
21
-2.9942547637795274
0
LINE
8
BLACK
6
CONTINUOUS
10
5.6865614960629918
20
-2.9942547637795274
11
5.6751329921259845
21
-2.9881461023622045
0
LINE
8
BLACK
6
CONTINUOUS
10
5.6751329921259845
20
-2.9881461023622045
11
5.6631607480314958
21
-2.9831870472440944
0
LINE
8
BLACK
6
CONTINUOUS
10
5.6631607480314958
20
-2.9831870472440944
11
5.6507600787401575
21
-2.97942531496063
0
LINE
8
BLACK
6
CONTINUOUS
10
5.6507600787401575
20
-2.97942531496063
11
5.6380504330708661
21
-2.9768972047244096
0
LINE
8
BLACK
6
CONTINUOUS
10
5.6380504330708661
20
-2.9768972047244096
11
5.6251541732283465
21
-2.9756270472440942
0
LINE
8
BLACK
6
CONTINUOUS
10
5.6251541732283465
20
-2.9756270472440942
11
5.6121955118110236
21
-2.9756270472440942
0
LINE
8
BLACK
6
CONTINUOUS
10
5.6121955118110236
20
-2.9756270472440942
11
5.5992992519685041
21
-2.9768972047244096
0
LINE
8
BLACK
6
CONTINUOUS
10
5.5992992519685041
20
-2.9768972047244096
11
5.5865896062992126
21
-2.97942531496063
0
LINE
8
BLACK
6
CONTINUOUS
10
5.5865896062992126
20
-2.97942531496063
11
5.5741889370078743
21
-2.9831870472440944
0
LINE
8
BLACK
6
CONTINUOUS
10
5.5741889370078743
20
-2.9831870472440944
11
5.5622166929133856
21
-2.9881461023622045
0
LINE
8
BLACK
6
CONTINUOUS
10
5.5622166929133856
20
-2.9881461023622045
11
5.5507881889763775
21
-2.9942547637795274
0
LINE
8
BLACK
6
CONTINUOUS
10
5.5507881889763775
20
-2.9942547637795274
11
5.540013464566929
21
-3.0014542125984249
0
LINE
8
BLACK
6
CONTINUOUS
10
5.540013464566929
20
-3.0014542125984249
11
5.5299962598425196
21
-3.0096750787401576
0
LINE
8
BLACK
6
CONTINUOUS
10
5.5299962598425196
20
-3.0096750787401576
11
5.5208331102362207
21
-3.0188382283464565
0
LINE
8
BLACK
6
CONTINUOUS
10
5.5208331102362207
20
-3.0188382283464565
11
5.5126122440944885
21
-3.0288554330708659
0
LINE
8
BLACK
6
CONTINUOUS
10
5.5126122440944885
20
-3.0288554330708659
11
5.50541279527559
21
-3.0396301574803148
0
LINE
8
BLACK
6
CONTINUOUS
10
5.50541279527559
20
-3.0396301574803148
11
5.499304133858268
21
-3.051058661417323
0
LINE
8
BLACK
6
CONTINUOUS
10
5.499304133858268
20
-3.051058661417323
11
5.4943450787401575
21
-3.0630309055118108
0
LINE
8
BLACK
6
CONTINUOUS
10
5.4943450787401575
20
-3.0630309055118108
11
5.4905833464566927
21
-3.0754315748031495
0
LINE
8
BLACK
6
CONTINUOUS
10
5.4905833464566927
20
-3.0754315748031495
11
5.4880552362204726
21
-3.088141220472441
0
LINE
8
BLACK
6
CONTINUOUS
10
5.4880552362204726
20
-3.088141220472441
11
5.4867850787401578
21
-3.1010374803149605
0
LINE
8
BLACK
6
CONTINUOUS
10
5.4867850787401578
20
-3.1010374803149605
11
5.4867850787401578
21
-3.1139961417322835
0
CIRCLE
8
BLACK
10
6.8886748425196851
20
-3.0975168110236222
40
0.0068897637795276
0
CIRCLE
8
BLACK
10
4.0886748425196853
20
-3.0975168110236222
40
0.0068897637795276
0
CIRCLE
8
BLACK
10
4.0886748425196853
20
-4.6975168110236218
40
0.0068897637795276
0
CIRCLE
8
BLACK
10
4.493399251968504
20
-3.4644459448818896
40
0.0068897637795276
0
CIRCLE
8
BLACK
10
4.296548858267716
20
-3.4644459448818896
40
0.0068897637795276
0
CIRCLE
8
BLACK
10
6.8886748425196851
20
-4.6975168110236218
40
0.0068897637795276
0
CIRCLE
8
BLACK
10
6.1252181496062992
20
-3.0695168110236222
40
0.0068897637795276
0
CIRCLE
8
BLACK
10
6.3173441338582679
20
-3.0695168110236222
40
0.0068897637795276
0
CIRCLE
8
BLACK
10
7.2237929527559057
20
-4.5182845275590546
40
0.0068897637795276
0
CIRCLE
8
BLACK
10
7.2237929527559057
20
-4.745843582677165
40
0.0068897637795276
0
LINE
8
BLACK
6
CONTINUOUS
10
7.3859645275590546
20
-4.4502753543307083
11
7.3889427559055116
21
-4.4510733464566927
0
LINE
8
BLACK
6
CONTINUOUS
10
7.3889427559055116
20
-4.4510733464566927
11
7.3916129527559056
21
-4.4526149999999998
0
LINE
8
BLACK
6
CONTINUOUS
10
7.3916129527559056
20
-4.4526149999999998
11
7.3937931889763782
21
-4.4547952362204724
0
LINE
8
BLACK
6
CONTINUOUS
10
7.3937931889763782
20
-4.4547952362204724
11
7.3953348425196852
21
-4.4574654330708663
0
LINE
8
BLACK
6
CONTINUOUS
10
7.3953348425196852
20
-4.4574654330708663
11
7.3961328346456687
21
-4.4604436614173224
0
LINE
8
BLACK
6
CONTINUOUS
10
7.3961328346456687
20
-4.4604436614173224
11
7.3961328346456687
21
-4.4635269685039365
0
LINE
8
BLACK
6
CONTINUOUS
10
7.3961328346456687
20
-4.4635269685039365
11
7.3953348425196852
21
-4.4665051968503935
0
LINE
8
BLACK
6
CONTINUOUS
10
7.3953348425196852
20
-4.4665051968503935
11
7.3937931889763782
21
-4.4691753937007874
0
LINE
8
BLACK
6
CONTINUOUS
10
7.3937931889763782
20
-4.4691753937007874
11
7.3916129527559056
21
-4.47135562992126
0
LINE
8
BLACK
6
CONTINUOUS
10
7.3916129527559056
20
-4.47135562992126
11
7.3889427559055116
21
-4.4728972834645671
0
LINE
8
BLACK
6
CONTINUOUS
10
7.3889427559055116
20
-4.4728972834645671
11
7.3859645275590546
21
-4.4736952755905515
0
LINE
8
BLACK
6
CONTINUOUS
10
7.3859645275590546
20
-4.4736952755905515
11
7.3844228740157476
21
-4.4737963385826767
0
LINE
8
BLACK
6
CONTINUOUS
10
7.3844228740157476
20
-4.4737963385826767
11
7.3529268110236217
21
-4.4737963385826767
0
LINE
8
BLACK
6
CONTINUOUS
10
7.3529268110236217
20
-4.4737963385826767
11
7.3513851574803146
21
-4.4736952755905515
0
LINE
8
BLACK
6
CONTINUOUS
10
7.3513851574803146
20
-4.4736952755905515
11
7.3484069291338585
21
-4.4728972834645671
0
LINE
8
BLACK
6
CONTINUOUS
10
7.3484069291338585
20
-4.4728972834645671
11
7.3457367322834646
21
-4.47135562992126
0
LINE
8
BLACK
6
CONTINUOUS
10
7.3457367322834646
20
-4.47135562992126
11
7.343556496062992
21
-4.4691753937007874
0
LINE
8
BLACK
6
CONTINUOUS
10
7.343556496062992
20
-4.4691753937007874
11
7.3420148425196849
21
-4.4665051968503935
0
LINE
8
BLACK
6
CONTINUOUS
10
7.3420148425196849
20
-4.4665051968503935
11
7.3412168503937005
21
-4.4635269685039365
0
LINE
8
BLACK
6
CONTINUOUS
10
7.3412168503937005
20
-4.4635269685039365
11
7.3412168503937005
21
-4.4604436614173224
0
LINE
8
BLACK
6
CONTINUOUS
10
7.3412168503937005
20
-4.4604436614173224
11
7.3420148425196849
21
-4.4574654330708663
0
LINE
8
BLACK
6
CONTINUOUS
10
7.3420148425196849
20
-4.4574654330708663
11
7.343556496062992
21
-4.4547952362204724
0
LINE
8
BLACK
6
CONTINUOUS
10
7.343556496062992
20
-4.4547952362204724
11
7.3457367322834646
21
-4.4526149999999998
0
LINE
8
BLACK
6
CONTINUOUS
10
7.3457367322834646
20
-4.4526149999999998
11
7.3484069291338585
21
-4.4510733464566927
0
LINE
8
BLACK
6
CONTINUOUS
10
7.3484069291338585
20
-4.4510733464566927
11
7.3513851574803146
21
-4.4502753543307083
0
LINE
8
BLACK
6
CONTINUOUS
10
7.3513851574803146
20
-4.4502753543307083
11
7.3529268110236217
21
-4.4501742913385822
0
LINE
8
BLACK
6
CONTINUOUS
10
7.3529268110236217
20
-4.4501742913385822
11
7.3844228740157476
21
-4.4501742913385822
0
LINE
8
BLACK
6
CONTINUOUS
10
7.3844228740157476
20
-4.4501742913385822
11
7.3859645275590546
21
-4.4502753543307083
0
LINE
8
BLACK
6
CONTINUOUS
10
7.3859645275590546
20
-4.790432834645669
11
7.3889427559055116
21
-4.7912308267716535
0
LINE
8
BLACK
6
CONTINUOUS
10
7.3889427559055116
20
-4.7912308267716535
11
7.3916129527559056
21
-4.7927724803149605
0
LINE
8
BLACK
6
CONTINUOUS
10
7.3916129527559056
20
-4.7927724803149605
11
7.3937931889763782
21
-4.7949527165354331
0
LINE
8
BLACK
6
CONTINUOUS
10
7.3937931889763782
20
-4.7949527165354331
11
7.3953348425196852
21
-4.797622913385827
0
LINE
8
BLACK
6
CONTINUOUS
10
7.3953348425196852
20
-4.797622913385827
11
7.3961328346456687
21
-4.8006011417322831
0
LINE
8
BLACK
6
CONTINUOUS
10
7.3961328346456687
20
-4.8006011417322831
11
7.3961328346456687
21
-4.8036844488188972
0
LINE
8
BLACK
6
CONTINUOUS
10
7.3961328346456687
20
-4.8036844488188972
11
7.3953348425196852
21
-4.8066626771653542
0
LINE
8
BLACK
6
CONTINUOUS
10
7.3953348425196852
20
-4.8066626771653542
11
7.3937931889763782
21
-4.8093328740157482
0
LINE
8
BLACK
6
CONTINUOUS
10
7.3937931889763782
20
-4.8093328740157482
11
7.3916129527559056
21
-4.8115131102362207
0
LINE
8
BLACK
6
CONTINUOUS
10
7.3916129527559056
20
-4.8115131102362207
11
7.3889427559055116
21
-4.8130547637795278
0
LINE
8
BLACK
6
CONTINUOUS
10
7.3889427559055116
20
-4.8130547637795278
11
7.3859645275590546
21
-4.8138527559055113
0
LINE
8
BLACK
6
CONTINUOUS
10
7.3859645275590546
20
-4.8138527559055113
11
7.3844228740157476
21
-4.8139538188976374
0
LINE
8
BLACK
6
CONTINUOUS
10
7.3844228740157476
20
-4.8139538188976374
11
7.3529268110236217
21
-4.8139538188976374
0
LINE
8
BLACK
6
CONTINUOUS
10
7.3529268110236217
20
-4.8139538188976374
11
7.3513851574803146
21
-4.8138527559055113
0
LINE
8
BLACK
6
CONTINUOUS
10
7.3513851574803146
20
-4.8138527559055113
11
7.3484069291338585
21
-4.8130547637795278
0
LINE
8
BLACK
6
CONTINUOUS
10
7.3484069291338585
20
-4.8130547637795278
11
7.3457367322834646
21
-4.8115131102362207
0
LINE
8
BLACK
6
CONTINUOUS
10
7.3457367322834646
20
-4.8115131102362207
11
7.343556496062992
21
-4.8093328740157482
0
LINE
8
BLACK
6
CONTINUOUS
10
7.343556496062992
20
-4.8093328740157482
11
7.3420148425196849
21
-4.8066626771653542
0
LINE
8
BLACK
6
CONTINUOUS
10
7.3420148425196849
20
-4.8066626771653542
11
7.3412168503937005
21
-4.8036844488188972
0
LINE
8
BLACK
6
CONTINUOUS
10
7.3412168503937005
20
-4.8036844488188972
11
7.3412168503937005
21
-4.8006011417322831
0
LINE
8
BLACK
6
CONTINUOUS
10
7.3412168503937005
20
-4.8006011417322831
11
7.3420148425196849
21
-4.797622913385827
0
LINE
8
BLACK
6
CONTINUOUS
10
7.3420148425196849
20
-4.797622913385827
11
7.343556496062992
21
-4.7949527165354331
0
LINE
8
BLACK
6
CONTINUOUS
10
7.343556496062992
20
-4.7949527165354331
11
7.3457367322834646
21
-4.7927724803149605
0
LINE
8
BLACK
6
CONTINUOUS
10
7.3457367322834646
20
-4.7927724803149605
11
7.3484069291338585
21
-4.7912308267716535
0
LINE
8
BLACK
6
CONTINUOUS
10
7.3484069291338585
20
-4.7912308267716535
11
7.3513851574803146
21
-4.790432834645669
0
LINE
8
BLACK
6
CONTINUOUS
10
7.3513851574803146
20
-4.790432834645669
11
7.3529268110236217
21
-4.790331771653543
0
LINE
8
BLACK
6
CONTINUOUS
10
7.3529268110236217
20
-4.790331771653543
11
7.3844228740157476
21
-4.790331771653543
0
LINE
8
BLACK
6
CONTINUOUS
10
7.3844228740157476
20
-4.790331771653543
11
7.3859645275590546
21
-4.790432834645669
0
LINE
8
BLACK
6
CONTINUOUS
10
7.2273031102362202
20
-4.4502753543307083
11
7.2302813385826772
21
-4.4510733464566927
0
LINE
8
BLACK
6
CONTINUOUS
10
7.2302813385826772
20
-4.4510733464566927
11
7.2329515354330711
21
-4.4526149999999998
0
LINE
8
BLACK
6
CONTINUOUS
10
7.2329515354330711
20
-4.4526149999999998
11
7.2351317716535428
21
-4.4547952362204724
0
LINE
8
BLACK
6
CONTINUOUS
10
7.2351317716535428
20
-4.4547952362204724
11
7.2366734251968499
21
-4.4574654330708663
0
LINE
8
BLACK
6
CONTINUOUS
10
7.2366734251968499
20
-4.4574654330708663
11
7.2374714173228343
21
-4.4604436614173224
0
LINE
8
BLACK
6
CONTINUOUS
10
7.2374714173228343
20
-4.4604436614173224
11
7.2374714173228343
21
-4.4635269685039365
0
LINE
8
BLACK
6
CONTINUOUS
10
7.2374714173228343
20
-4.4635269685039365
11
7.2366734251968499
21
-4.4665051968503935
0
LINE
8
BLACK
6
CONTINUOUS
10
7.2366734251968499
20
-4.4665051968503935
11
7.2351317716535428
21
-4.4691753937007874
0
LINE
8
BLACK
6
CONTINUOUS
10
7.2351317716535428
20
-4.4691753937007874
11
7.2329515354330711
21
-4.47135562992126
0
LINE
8
BLACK
6
CONTINUOUS
10
7.2329515354330711
20
-4.47135562992126
11
7.2302813385826772
21
-4.4728972834645671
0
LINE
8
BLACK
6
CONTINUOUS
10
7.2302813385826772
20
-4.4728972834645671
11
7.2273031102362202
21
-4.4736952755905515
0
LINE
8
BLACK
6
CONTINUOUS
10
7.2273031102362202
20
-4.4736952755905515
11
7.2257614566929131
21
-4.4737963385826767
0
LINE
8
BLACK
6
CONTINUOUS
10
7.2257614566929131
20
-4.4737963385826767
11
7.18245437007874
21
-4.4737963385826767
0
LINE
8
BLACK
6
CONTINUOUS
10
7.18245437007874
20
-4.4737963385826767
11
7.1809127165354329
21
-4.4736952755905515
0
LINE
8
BLACK
6
CONTINUOUS
10
7.1809127165354329
20
-4.4736952755905515
11
7.1779344881889759
21
-4.4728972834645671
0
LINE
8
BLACK
6
CONTINUOUS
10
7.1779344881889759
20
-4.4728972834645671
11
7.1752642913385829
21
-4.47135562992126
0
LINE
8
BLACK
6
CONTINUOUS
10
7.1752642913385829
20
-4.47135562992126
11
7.1730840551181103
21
-4.4691753937007874
0
LINE
8
BLACK
6
CONTINUOUS
10
7.1730840551181103
20
-4.4691753937007874
11
7.1715424015748033
21
-4.4665051968503935
0
LINE
8
BLACK
6
CONTINUOUS
10
7.1715424015748033
20
-4.4665051968503935
11
7.1707444094488189
21
-4.4635269685039365
0
LINE
8
BLACK
6
CONTINUOUS
10
7.1707444094488189
20
-4.4635269685039365
11
7.1707444094488189
21
-4.4604436614173224
0
LINE
8
BLACK
6
CONTINUOUS
10
7.1707444094488189
20
-4.4604436614173224
11
7.1715424015748033
21
-4.4574654330708663
0
LINE
8
BLACK
6
CONTINUOUS
10
7.1715424015748033
20
-4.4574654330708663
11
7.1730840551181103
21
-4.4547952362204724
0
LINE
8
BLACK
6
CONTINUOUS
10
7.1730840551181103
20
-4.4547952362204724
11
7.1752642913385829
21
-4.4526149999999998
0
LINE
8
BLACK
6
CONTINUOUS
10
7.1752642913385829
20
-4.4526149999999998
11
7.1779344881889759
21
-4.4510733464566927
0
LINE
8
BLACK
6
CONTINUOUS
10
7.1779344881889759
20
-4.4510733464566927
11
7.1809127165354329
21
-4.4502753543307083
0
LINE
8
BLACK
6
CONTINUOUS
10
7.1809127165354329
20
-4.4502753543307083
11
7.18245437007874
21
-4.4501742913385822
0
LINE
8
BLACK
6
CONTINUOUS
10
7.18245437007874
20
-4.4501742913385822
11
7.2257614566929131
21
-4.4501742913385822
0
LINE
8
BLACK
6
CONTINUOUS
10
7.2257614566929131
20
-4.4501742913385822
11
7.2273031102362202
21
-4.4502753543307083
0
LINE
8
BLACK
6
CONTINUOUS
10
7.2273031102362202
20
-4.790432834645669
11
7.2302813385826772
21
-4.7912308267716535
0
LINE
8
BLACK
6
CONTINUOUS
10
7.2302813385826772
20
-4.7912308267716535
11
7.2329515354330711
21
-4.7927724803149605
0
LINE
8
BLACK
6
CONTINUOUS
10
7.2329515354330711
20
-4.7927724803149605
11
7.2351317716535428
21
-4.7949527165354331
0
LINE
8
BLACK
6
CONTINUOUS
10
7.2351317716535428
20
-4.7949527165354331
11
7.2366734251968499
21
-4.797622913385827
0
LINE
8
BLACK
6
CONTINUOUS
10
7.2366734251968499
20
-4.797622913385827
11
7.2374714173228343
21
-4.8006011417322831
0
LINE
8
BLACK
6
CONTINUOUS
10
7.2374714173228343
20
-4.8006011417322831
11
7.2374714173228343
21
-4.8036844488188972
0
LINE
8
BLACK
6
CONTINUOUS
10
7.2374714173228343
20
-4.8036844488188972
11
7.2366734251968499
21
-4.8066626771653542
0
LINE
8
BLACK
6
CONTINUOUS
10
7.2366734251968499
20
-4.8066626771653542
11
7.2351317716535428
21
-4.8093328740157482
0
LINE
8
BLACK
6
CONTINUOUS
10
7.2351317716535428
20
-4.8093328740157482
11
7.2329515354330711
21
-4.8115131102362207
0
LINE
8
BLACK
6
CONTINUOUS
10
7.2329515354330711
20
-4.8115131102362207
11
7.2302813385826772
21
-4.8130547637795278
0
LINE
8
BLACK
6
CONTINUOUS
10
7.2302813385826772
20
-4.8130547637795278
11
7.2273031102362202
21
-4.8138527559055113
0
LINE
8
BLACK
6
CONTINUOUS
10
7.2273031102362202
20
-4.8138527559055113
11
7.2257614566929131
21
-4.8139538188976374
0
LINE
8
BLACK
6
CONTINUOUS
10
7.2257614566929131
20
-4.8139538188976374
11
7.18245437007874
21
-4.8139538188976374
0
LINE
8
BLACK
6
CONTINUOUS
10
7.18245437007874
20
-4.8139538188976374
11
7.1809127165354329
21
-4.8138527559055113
0
LINE
8
BLACK
6
CONTINUOUS
10
7.1809127165354329
20
-4.8138527559055113
11
7.1779344881889759
21
-4.8130547637795278
0
LINE
8
BLACK
6
CONTINUOUS
10
7.1779344881889759
20
-4.8130547637795278
11
7.1752642913385829
21
-4.8115131102362207
0
LINE
8
BLACK
6
CONTINUOUS
10
7.1752642913385829
20
-4.8115131102362207
11
7.1730840551181103
21
-4.8093328740157482
0
LINE
8
BLACK
6
CONTINUOUS
10
7.1730840551181103
20
-4.8093328740157482
11
7.1715424015748033
21
-4.8066626771653542
0
LINE
8
BLACK
6
CONTINUOUS
10
7.1715424015748033
20
-4.8066626771653542
11
7.1707444094488189
21
-4.8036844488188972
0
LINE
8
BLACK
6
CONTINUOUS
10
7.1707444094488189
20
-4.8036844488188972
11
7.1707444094488189
21
-4.8006011417322831
0
LINE
8
BLACK
6
CONTINUOUS
10
7.1707444094488189
20
-4.8006011417322831
11
7.1715424015748033
21
-4.797622913385827
0
LINE
8
BLACK
6
CONTINUOUS
10
7.1715424015748033
20
-4.797622913385827
11
7.1730840551181103
21
-4.7949527165354331
0
LINE
8
BLACK
6
CONTINUOUS
10
7.1730840551181103
20
-4.7949527165354331
11
7.1752642913385829
21
-4.7927724803149605
0
LINE
8
BLACK
6
CONTINUOUS
10
7.1752642913385829
20
-4.7927724803149605
11
7.1779344881889759
21
-4.7912308267716535
0
LINE
8
BLACK
6
CONTINUOUS
10
7.1779344881889759
20
-4.7912308267716535
11
7.1809127165354329
21
-4.790432834645669
0
LINE
8
BLACK
6
CONTINUOUS
10
7.1809127165354329
20
-4.790432834645669
11
7.18245437007874
21
-4.790331771653543
0
LINE
8
BLACK
6
CONTINUOUS
10
7.18245437007874
20
-4.790331771653543
11
7.2257614566929131
21
-4.790331771653543
0
LINE
8
BLACK
6
CONTINUOUS
10
7.2257614566929131
20
-4.790331771653543
11
7.2273031102362202
21
-4.790432834645669
  0
ENDSEC
  0
EOF
