  0
SECTION
  2
HEADER
  9
$ANGBASE
  50
0.0
  9
$ANGDIR
  70
1
  9
$MEASUREMENT
  70
0
  0
ENDSEC
  0
SECTION
  2
TABLES
  0
TABLE
  2
LTYPE
  70
4
  0
LTYPE
  5
40F
  2
CONTINUOUS
  70
0
  3
Solid line
  72
65
  73
0
  40
0.0
  0
LTYPE
  5
410
  2
DASHDOT
 70
0
  3
Dash Dot ____ _ ____ _
 72
65
 73
4
 40
2.0
 49
1.25
 49
-0.25
 49
0.25
 49
-0.25
  0
LTYPE
  5
411
  2
DASHED
 70
0
  3
Dashed __ __ __ __ __
 72
65
 73
2
 40
0.75
 49
0.5
 49
-0.25
  0
LTYPE
  5
43B
  2
DOTTED
 70
0
  3
Dotted .  .  .  .
 72
65
 73
2
 40
0.2
 49
0.0
 49
-0.2
  0
ENDTAB
  0
TABLE
  2
STYLE
  70
4
  0
STYLE
  2
KICAD
  70
0
  40
0
  41
1
  42
1
  50
0
  71
0
  3
isocp.shx
  0
STYLE
  2
KICADB
  70
0
  40
0
  41
1
  42
1
  50
0
  71
0
  3
isocp.shx
  0
STYLE
  2
KICADI
  70
0
  40
0
  41
1
  42
1
  50
15
  71
0
  3
isocp.shx
  0
STYLE
  2
KICADBI
  70
0
  40
0
  41
1
  42
1
  50
15
  71
0
  3
isocp.shx
  0
ENDTAB
  0
TABLE
  2
LAYER
  70
1
  0
LAYER
  2
BLACK
  70
0
  62
7
  6
CONTINUOUS
  0
ENDTAB
  0
ENDSEC
  0
SECTION
  2
ENTITIES
0
LINE
8
BLACK
6
CONTINUOUS
10
0.980384
20
1.98289
11
0.980513
21
1.98291
0
LINE
8
BLACK
6
CONTINUOUS
10
0.980513
20
1.98291
11
0.980626
21
1.98284
0
LINE
8
BLACK
6
CONTINUOUS
10
0.980626
20
1.98284
11
0.98101
21
1.98277
0
LINE
8
BLACK
6
CONTINUOUS
10
0.98101
20
1.98277
11
0.981598
21
1.98228
0
LINE
8
BLACK
6
CONTINUOUS
10
0.981598
20
1.98228
11
0.982262
21
1.9819
0
LINE
8
BLACK
6
CONTINUOUS
10
0.982262
20
1.9819
11
0.982353
21
1.98165
0
LINE
8
BLACK
6
CONTINUOUS
10
0.982353
20
1.98165
11
0.982557
21
1.98148
0
LINE
8
BLACK
6
CONTINUOUS
10
0.982557
20
1.98148
11
0.98269
21
1.98072
0
LINE
8
BLACK
6
CONTINUOUS
10
0.98269
20
1.98072
11
0.982953
21
1.98
0
LINE
8
BLACK
6
CONTINUOUS
10
0.982953
20
1.98
11
0.982953
21
1.64567
0
LINE
8
BLACK
6
CONTINUOUS
10
0.982953
20
1.64567
11
1.10913
21
1.64567
0
LINE
8
BLACK
6
CONTINUOUS
10
1.10913
20
1.64567
11
1.10913
21
1.6063
0
LINE
8
BLACK
6
CONTINUOUS
10
1.10913
20
1.6063
11
0.982953
21
1.6063
0
LINE
8
BLACK
6
CONTINUOUS
10
0.982953
20
1.6063
11
0.982953
21
0.393701
0
LINE
8
BLACK
6
CONTINUOUS
10
0.982953
20
0.393701
11
1.10913
21
0.393701
0
LINE
8
BLACK
6
CONTINUOUS
10
1.10913
20
0.393701
11
1.10913
21
0.354331
0
LINE
8
BLACK
6
CONTINUOUS
10
1.10913
20
0.354331
11
0.982953
21
0.354331
0
LINE
8
BLACK
6
CONTINUOUS
10
0.982953
20
0.354331
11
0.982953
21
0.02
0
LINE
8
BLACK
6
CONTINUOUS
10
0.982953
20
0.02
11
0.982885
21
0.0196165
0
LINE
8
BLACK
6
CONTINUOUS
10
0.982885
20
0.0196165
11
0.982908
21
0.0194872
0
LINE
8
BLACK
6
CONTINUOUS
10
0.982908
20
0.0194872
11
0.982842
21
0.0193736
0
LINE
8
BLACK
6
CONTINUOUS
10
0.982842
20
0.0193736
11
0.982775
21
0.0189901
0
LINE
8
BLACK
6
CONTINUOUS
10
0.982775
20
0.0189901
11
0.982282
21
0.0184024
0
LINE
8
BLACK
6
CONTINUOUS
10
0.982282
20
0.0184024
11
0.981898
21
0.0177381
0
LINE
8
BLACK
6
CONTINUOUS
10
0.981898
20
0.0177381
11
0.981648
21
0.017647
0
LINE
8
BLACK
6
CONTINUOUS
10
0.981648
20
0.017647
11
0.981476
21
0.0174428
0
LINE
8
BLACK
6
CONTINUOUS
10
0.981476
20
0.0174428
11
0.980721
21
0.0173096
0
LINE
8
BLACK
6
CONTINUOUS
10
0.980721
20
0.0173096
11
0.98
21
0.0170472
0
LINE
8
BLACK
6
CONTINUOUS
10
0.98
20
0.0170472
11
0.02
21
0.0170472
0
LINE
8
BLACK
6
CONTINUOUS
10
0.02
20
0.0170472
11
0.0196165
21
0.0171149
0
LINE
8
BLACK
6
CONTINUOUS
10
0.0196165
20
0.0171149
11
0.0194872
21
0.0170921
0
LINE
8
BLACK
6
CONTINUOUS
10
0.0194872
20
0.0170921
11
0.0193736
21
0.0171577
0
LINE
8
BLACK
6
CONTINUOUS
10
0.0193736
20
0.0171577
11
0.0189901
21
0.0172253
0
LINE
8
BLACK
6
CONTINUOUS
10
0.0189901
20
0.0172253
11
0.0184024
21
0.0177185
0
LINE
8
BLACK
6
CONTINUOUS
10
0.0184024
20
0.0177185
11
0.0177381
21
0.018102
0
LINE
8
BLACK
6
CONTINUOUS
10
0.0177381
20
0.018102
11
0.017647
21
0.0183524
0
LINE
8
BLACK
6
CONTINUOUS
10
0.017647
20
0.0183524
11
0.0174428
21
0.0185236
0
LINE
8
BLACK
6
CONTINUOUS
10
0.0174428
20
0.0185236
11
0.0173096
21
0.0192792
0
LINE
8
BLACK
6
CONTINUOUS
10
0.0173096
20
0.0192792
11
0.0170472
21
0.02
0
LINE
8
BLACK
6
CONTINUOUS
10
0.0170472
20
0.02
11
0.0170472
21
1.98
0
LINE
8
BLACK
6
CONTINUOUS
10
0.0170472
20
1.98
11
0.0171149
21
1.98038
0
LINE
8
BLACK
6
CONTINUOUS
10
0.0171149
20
1.98038
11
0.0170921
21
1.98051
0
LINE
8
BLACK
6
CONTINUOUS
10
0.0170921
20
1.98051
11
0.0171577
21
1.98063
0
LINE
8
BLACK
6
CONTINUOUS
10
0.0171577
20
1.98063
11
0.0172253
21
1.98101
0
LINE
8
BLACK
6
CONTINUOUS
10
0.0172253
20
1.98101
11
0.0177185
21
1.9816
0
LINE
8
BLACK
6
CONTINUOUS
10
0.0177185
20
1.9816
11
0.018102
21
1.98226
0
LINE
8
BLACK
6
CONTINUOUS
10
0.018102
20
1.98226
11
0.0183524
21
1.98235
0
LINE
8
BLACK
6
CONTINUOUS
10
0.0183524
20
1.98235
11
0.0185236
21
1.98256
0
LINE
8
BLACK
6
CONTINUOUS
10
0.0185236
20
1.98256
11
0.0192792
21
1.98269
0
LINE
8
BLACK
6
CONTINUOUS
10
0.0192792
20
1.98269
11
0.02
21
1.98295
0
LINE
8
BLACK
6
CONTINUOUS
10
0.02
20
1.98295
11
0.98
21
1.98295
0
LINE
8
BLACK
6
CONTINUOUS
10
0.98
20
1.98295
11
0.980384
21
1.98289
0
LINE
8
BLACK
6
CONTINUOUS
10
3.40865
20
0.317793
11
3.42213
21
0.316018
0
LINE
8
BLACK
6
CONTINUOUS
10
3.42213
20
0.316018
11
3.43532
21
0.312706
0
LINE
8
BLACK
6
CONTINUOUS
10
3.43532
20
0.312706
11
3.44804
21
0.307899
0
LINE
8
BLACK
6
CONTINUOUS
10
3.44804
20
0.307899
11
3.46012
21
0.301662
0
LINE
8
BLACK
6
CONTINUOUS
10
3.46012
20
0.301662
11
3.47141
21
0.294078
0
LINE
8
BLACK
6
CONTINUOUS
10
3.47141
20
0.294078
11
3.48175
21
0.285247
0
LINE
8
BLACK
6
CONTINUOUS
10
3.48175
20
0.285247
11
3.49101
21
0.275286
0
LINE
8
BLACK
6
CONTINUOUS
10
3.49101
20
0.275286
11
3.49906
21
0.264327
0
LINE
8
BLACK
6
CONTINUOUS
10
3.49906
20
0.264327
11
3.50579
21
0.252516
0
LINE
8
BLACK
6
CONTINUOUS
10
3.50579
20
0.252516
11
3.51113
21
0.240008
0
LINE
8
BLACK
6
CONTINUOUS
10
3.51113
20
0.240008
11
3.51499
21
0.226971
0
LINE
8
BLACK
6
CONTINUOUS
10
3.51499
20
0.226971
11
3.51733
21
0.213575
0
LINE
8
BLACK
6
CONTINUOUS
10
3.51733
20
0.213575
11
3.51811
21
0.2
0
LINE
8
BLACK
6
CONTINUOUS
10
3.51811
20
0.2
11
3.51788
21
0.192584
0
LINE
8
BLACK
6
CONTINUOUS
10
3.51788
20
0.192584
11
3.51624
21
0.179084
0
LINE
8
BLACK
6
CONTINUOUS
10
3.51624
20
0.179084
11
3.51307
21
0.165862
0
LINE
8
BLACK
6
CONTINUOUS
10
3.51307
20
0.165862
11
3.5084
21
0.153093
0
LINE
8
BLACK
6
CONTINUOUS
10
3.5084
20
0.153093
11
3.50229
21
0.140945
0
LINE
8
BLACK
6
CONTINUOUS
10
3.50229
20
0.140945
11
3.49482
21
0.12958
0
LINE
8
BLACK
6
CONTINUOUS
10
3.49482
20
0.12958
11
3.4861
21
0.119148
0
LINE
8
BLACK
6
CONTINUOUS
10
3.4861
20
0.119148
11
3.47624
21
0.109788
0
LINE
8
BLACK
6
CONTINUOUS
10
3.47624
20
0.109788
11
3.46536
21
0.101623
0
LINE
8
BLACK
6
CONTINUOUS
10
3.46536
20
0.101623
11
3.45362
21
0.094763
0
LINE
8
BLACK
6
CONTINUOUS
10
3.45362
20
0.094763
11
3.44117
21
0.0892974
0
LINE
8
BLACK
6
CONTINUOUS
10
3.44117
20
0.0892974
11
3.42817
21
0.0852991
0
LINE
8
BLACK
6
CONTINUOUS
10
3.42817
20
0.0852991
11
3.4148
21
0.0828211
0
LINE
8
BLACK
6
CONTINUOUS
10
3.4148
20
0.0828211
11
3.40124
21
0.0818962
0
LINE
8
BLACK
6
CONTINUOUS
10
3.40124
20
0.0818962
11
3.38765
21
0.0825368
0
LINE
8
BLACK
6
CONTINUOUS
10
3.38765
20
0.0825368
11
3.37424
21
0.0847343
0
LINE
8
BLACK
6
CONTINUOUS
10
3.37424
20
0.0847343
11
3.36116
21
0.0884595
0
LINE
8
BLACK
6
CONTINUOUS
10
3.36116
20
0.0884595
11
3.34859
21
0.0936631
0
LINE
8
BLACK
6
CONTINUOUS
10
3.34859
20
0.0936631
11
3.33671
21
0.100276
0
LINE
8
BLACK
6
CONTINUOUS
10
3.33671
20
0.100276
11
3.32567
21
0.108211
0
LINE
8
BLACK
6
CONTINUOUS
10
3.32567
20
0.108211
11
3.31561
21
0.117363
0
LINE
8
BLACK
6
CONTINUOUS
10
3.31561
20
0.117363
11
3.30667
21
0.127609
0
LINE
8
BLACK
6
CONTINUOUS
10
3.30667
20
0.127609
11
3.29897
21
0.138816
0
LINE
8
BLACK
6
CONTINUOUS
10
3.29897
20
0.138816
11
3.29261
21
0.150833
0
LINE
8
BLACK
6
CONTINUOUS
10
3.29261
20
0.150833
11
3.28767
21
0.163502
0
LINE
8
BLACK
6
CONTINUOUS
10
3.28767
20
0.163502
11
3.28422
21
0.176655
0
LINE
8
BLACK
6
CONTINUOUS
10
3.28422
20
0.176655
11
3.2823
21
0.190117
0
LINE
8
BLACK
6
CONTINUOUS
10
3.2823
20
0.190117
11
3.28195
21
0.20371
0
LINE
8
BLACK
6
CONTINUOUS
10
3.28195
20
0.20371
11
3.28316
21
0.217254
0
LINE
8
BLACK
6
CONTINUOUS
10
3.28316
20
0.217254
11
3.28591
21
0.230569
0
LINE
8
BLACK
6
CONTINUOUS
10
3.28591
20
0.230569
11
3.29018
21
0.243479
0
LINE
8
BLACK
6
CONTINUOUS
10
3.29018
20
0.243479
11
3.29591
21
0.255813
0
LINE
8
BLACK
6
CONTINUOUS
10
3.29591
20
0.255813
11
3.30301
21
0.267407
0
LINE
8
BLACK
6
CONTINUOUS
10
3.30301
20
0.267407
11
3.3114
21
0.278108
0
LINE
8
BLACK
6
CONTINUOUS
10
3.3114
20
0.278108
11
3.32097
21
0.287773
0
LINE
8
BLACK
6
CONTINUOUS
10
3.32097
20
0.287773
11
3.33158
21
0.296275
0
LINE
8
BLACK
6
CONTINUOUS
10
3.33158
20
0.296275
11
3.3431
21
0.303501
0
LINE
8
BLACK
6
CONTINUOUS
10
3.3431
20
0.303501
11
3.35537
21
0.309355
0
LINE
8
BLACK
6
CONTINUOUS
10
3.35537
20
0.309355
11
3.36824
21
0.313759
0
LINE
8
BLACK
6
CONTINUOUS
10
3.36824
20
0.313759
11
3.38152
21
0.316656
0
LINE
8
BLACK
6
CONTINUOUS
10
3.38152
20
0.316656
11
3.39505
21
0.318007
0
LINE
8
BLACK
6
CONTINUOUS
10
3.39505
20
0.318007
11
3.40865
21
0.317793
0
LINE
8
BLACK
6
CONTINUOUS
10
1.19575
20
0.354331
11
1.19575
21
0.393701
0
LINE
8
BLACK
6
CONTINUOUS
10
1.19575
20
0.393701
11
1.2863
21
0.393701
0
LINE
8
BLACK
6
CONTINUOUS
10
1.2863
20
0.393701
11
1.2863
21
0.484252
0
LINE
8
BLACK
6
CONTINUOUS
10
1.2863
20
0.484252
11
1.32567
21
0.484252
0
LINE
8
BLACK
6
CONTINUOUS
10
1.32567
20
0.484252
11
1.32567
21
0.354331
0
LINE
8
BLACK
6
CONTINUOUS
10
1.32567
20
0.354331
11
1.19575
21
0.354331
0
LINE
8
BLACK
6
CONTINUOUS
10
2.75102
20
0.387717
11
2.60142
21
0.387717
0
LINE
8
BLACK
6
CONTINUOUS
10
2.60142
20
0.387717
11
2.60142
21
0.427087
0
LINE
8
BLACK
6
CONTINUOUS
10
2.60142
20
0.427087
11
2.75102
21
0.427087
0
LINE
8
BLACK
6
CONTINUOUS
10
2.75102
20
0.427087
11
2.75102
21
0.387717
0
LINE
8
BLACK
6
CONTINUOUS
10
2.27858
20
0.387717
11
2.12898
21
0.387717
0
LINE
8
BLACK
6
CONTINUOUS
10
2.12898
20
0.387717
11
2.12898
21
0.427087
0
LINE
8
BLACK
6
CONTINUOUS
10
2.12898
20
0.427087
11
2.27858
21
0.427087
0
LINE
8
BLACK
6
CONTINUOUS
10
2.27858
20
0.427087
11
2.27858
21
0.387717
0
LINE
8
BLACK
6
CONTINUOUS
10
1.80614
20
0.387717
11
1.65654
21
0.387717
0
LINE
8
BLACK
6
CONTINUOUS
10
1.65654
20
0.387717
11
1.65654
21
0.427087
0
LINE
8
BLACK
6
CONTINUOUS
10
1.65654
20
0.427087
11
1.80614
21
0.427087
0
LINE
8
BLACK
6
CONTINUOUS
10
1.80614
20
0.427087
11
1.80614
21
0.387717
0
LINE
8
BLACK
6
CONTINUOUS
10
2.98724
20
0.387717
11
2.83764
21
0.387717
0
LINE
8
BLACK
6
CONTINUOUS
10
2.83764
20
0.387717
11
2.83764
21
0.427087
0
LINE
8
BLACK
6
CONTINUOUS
10
2.83764
20
0.427087
11
2.98724
21
0.427087
0
LINE
8
BLACK
6
CONTINUOUS
10
2.98724
20
0.427087
11
2.98724
21
0.387717
0
LINE
8
BLACK
6
CONTINUOUS
10
2.5148
20
0.387717
11
2.3652
21
0.387717
0
LINE
8
BLACK
6
CONTINUOUS
10
2.3652
20
0.387717
11
2.3652
21
0.427087
0
LINE
8
BLACK
6
CONTINUOUS
10
2.3652
20
0.427087
11
2.5148
21
0.427087
0
LINE
8
BLACK
6
CONTINUOUS
10
2.5148
20
0.427087
11
2.5148
21
0.387717
0
LINE
8
BLACK
6
CONTINUOUS
10
1.56992
20
0.387717
11
1.44
21
0.387717
0
LINE
8
BLACK
6
CONTINUOUS
10
1.44
20
0.387717
11
1.44
21
0.48811
0
LINE
8
BLACK
6
CONTINUOUS
10
1.44
20
0.48811
11
1.56992
21
0.48811
0
LINE
8
BLACK
6
CONTINUOUS
10
1.56992
20
0.48811
11
1.56992
21
0.387717
0
LINE
8
BLACK
6
CONTINUOUS
10
3.20378
20
0.387717
11
3.07386
21
0.387717
0
LINE
8
BLACK
6
CONTINUOUS
10
3.07386
20
0.387717
11
3.07386
21
0.48811
0
LINE
8
BLACK
6
CONTINUOUS
10
3.07386
20
0.48811
11
3.20378
21
0.48811
0
LINE
8
BLACK
6
CONTINUOUS
10
3.20378
20
0.48811
11
3.20378
21
0.387717
0
LINE
8
BLACK
6
CONTINUOUS
10
2.04236
20
0.387717
11
1.89276
21
0.387717
0
LINE
8
BLACK
6
CONTINUOUS
10
1.89276
20
0.387717
11
1.89276
21
0.427087
0
LINE
8
BLACK
6
CONTINUOUS
10
1.89276
20
0.427087
11
2.04236
21
0.427087
0
LINE
8
BLACK
6
CONTINUOUS
10
2.04236
20
0.427087
11
2.04236
21
0.387717
0
LINE
8
BLACK
6
CONTINUOUS
10
1.32567
20
0.570866
11
1.2863
21
0.570866
0
LINE
8
BLACK
6
CONTINUOUS
10
1.2863
20
0.570866
11
1.2863
21
0.720472
0
LINE
8
BLACK
6
CONTINUOUS
10
1.2863
20
0.720472
11
1.32567
21
0.720472
0
LINE
8
BLACK
6
CONTINUOUS
10
1.32567
20
0.720472
11
1.32567
21
0.570866
0
LINE
8
BLACK
6
CONTINUOUS
10
3.20378
20
0.574724
11
3.16441
21
0.574724
0
LINE
8
BLACK
6
CONTINUOUS
10
3.16441
20
0.574724
11
3.16441
21
0.724331
0
LINE
8
BLACK
6
CONTINUOUS
10
3.16441
20
0.724331
11
3.20378
21
0.724331
0
LINE
8
BLACK
6
CONTINUOUS
10
3.20378
20
0.724331
11
3.20378
21
0.574724
0
LINE
8
BLACK
6
CONTINUOUS
10
1.47937
20
0.574724
11
1.44
21
0.574724
0
LINE
8
BLACK
6
CONTINUOUS
10
1.44
20
0.574724
11
1.44
21
0.724331
0
LINE
8
BLACK
6
CONTINUOUS
10
1.44
20
0.724331
11
1.47937
21
0.724331
0
LINE
8
BLACK
6
CONTINUOUS
10
1.47937
20
0.724331
11
1.47937
21
0.574724
0
LINE
8
BLACK
6
CONTINUOUS
10
3.20378
20
1.61
11
3.57004
21
1.61
0
LINE
8
BLACK
6
CONTINUOUS
10
3.57004
20
1.61
11
3.57272
21
1.60921
0
LINE
8
BLACK
6
CONTINUOUS
10
3.57272
20
1.60921
11
3.57455
21
1.6071
0
LINE
8
BLACK
6
CONTINUOUS
10
3.57455
20
1.6071
11
3.575
21
1.60504
0
LINE
8
BLACK
6
CONTINUOUS
10
3.575
20
1.60504
11
3.575
21
0.739961
0
LINE
8
BLACK
6
CONTINUOUS
10
3.575
20
0.739961
11
3.57421
21
0.737279
0
LINE
8
BLACK
6
CONTINUOUS
10
3.57421
20
0.737279
11
3.5721
21
0.735448
0
LINE
8
BLACK
6
CONTINUOUS
10
3.5721
20
0.735448
11
3.57004
21
0.735
0
LINE
8
BLACK
6
CONTINUOUS
10
3.57004
20
0.735
11
3.16496
21
0.735
0
LINE
8
BLACK
6
CONTINUOUS
10
3.16496
20
0.735
11
3.16228
21
0.735787
0
LINE
8
BLACK
6
CONTINUOUS
10
3.16228
20
0.735787
11
3.16045
21
0.7379
0
LINE
8
BLACK
6
CONTINUOUS
10
3.16045
20
0.7379
11
3.16
21
0.739961
0
LINE
8
BLACK
6
CONTINUOUS
10
3.16
20
0.739961
11
3.16
21
1.51961
0
LINE
8
BLACK
6
CONTINUOUS
10
3.16
20
1.51961
11
3.07386
21
1.51961
0
LINE
8
BLACK
6
CONTINUOUS
10
3.07386
20
1.51961
11
3.07386
21
1.62
0
LINE
8
BLACK
6
CONTINUOUS
10
3.07386
20
1.62
11
3.20378
21
1.62
0
LINE
8
BLACK
6
CONTINUOUS
10
3.20378
20
1.62
11
3.20378
21
1.61
0
LINE
8
BLACK
6
CONTINUOUS
10
1.32567
20
0.807087
11
1.2863
21
0.807087
0
LINE
8
BLACK
6
CONTINUOUS
10
1.2863
20
0.807087
11
1.2863
21
0.956693
0
LINE
8
BLACK
6
CONTINUOUS
10
1.2863
20
0.956693
11
1.32567
21
0.956693
0
LINE
8
BLACK
6
CONTINUOUS
10
1.32567
20
0.956693
11
1.32567
21
0.807087
0
LINE
8
BLACK
6
CONTINUOUS
10
1.47937
20
0.810945
11
1.44
21
0.810945
0
LINE
8
BLACK
6
CONTINUOUS
10
1.44
20
0.810945
11
1.44
21
0.960551
0
LINE
8
BLACK
6
CONTINUOUS
10
1.44
20
0.960551
11
1.47937
21
0.960551
0
LINE
8
BLACK
6
CONTINUOUS
10
1.47937
20
0.960551
11
1.47937
21
0.810945
0
LINE
8
BLACK
6
CONTINUOUS
10
1.32567
20
1.04331
11
1.2863
21
1.04331
0
LINE
8
BLACK
6
CONTINUOUS
10
1.2863
20
1.04331
11
1.2863
21
1.19291
0
LINE
8
BLACK
6
CONTINUOUS
10
1.2863
20
1.19291
11
1.32567
21
1.19291
0
LINE
8
BLACK
6
CONTINUOUS
10
1.32567
20
1.19291
11
1.32567
21
1.04331
0
LINE
8
BLACK
6
CONTINUOUS
10
1.47937
20
1.04717
11
1.44
21
1.04717
0
LINE
8
BLACK
6
CONTINUOUS
10
1.44
20
1.04717
11
1.44
21
1.19677
0
LINE
8
BLACK
6
CONTINUOUS
10
1.44
20
1.19677
11
1.47937
21
1.19677
0
LINE
8
BLACK
6
CONTINUOUS
10
1.47937
20
1.19677
11
1.47937
21
1.04717
0
LINE
8
BLACK
6
CONTINUOUS
10
1.32567
20
1.27953
11
1.2863
21
1.27953
0
LINE
8
BLACK
6
CONTINUOUS
10
1.2863
20
1.27953
11
1.2863
21
1.42913
0
LINE
8
BLACK
6
CONTINUOUS
10
1.2863
20
1.42913
11
1.32567
21
1.42913
0
LINE
8
BLACK
6
CONTINUOUS
10
1.32567
20
1.42913
11
1.32567
21
1.27953
0
LINE
8
BLACK
6
CONTINUOUS
10
1.47937
20
1.28339
11
1.44
21
1.28339
0
LINE
8
BLACK
6
CONTINUOUS
10
1.44
20
1.28339
11
1.44
21
1.43299
0
LINE
8
BLACK
6
CONTINUOUS
10
1.44
20
1.43299
11
1.47937
21
1.43299
0
LINE
8
BLACK
6
CONTINUOUS
10
1.47937
20
1.43299
11
1.47937
21
1.28339
0
LINE
8
BLACK
6
CONTINUOUS
10
2.17887
20
1.38875
11
2.18507
21
1.38654
0
LINE
8
BLACK
6
CONTINUOUS
10
2.18507
20
1.38654
11
2.19063
21
1.38301
0
LINE
8
BLACK
6
CONTINUOUS
10
2.19063
20
1.38301
11
2.19527
21
1.37834
0
LINE
8
BLACK
6
CONTINUOUS
10
2.19527
20
1.37834
11
2.19875
21
1.37276
0
LINE
8
BLACK
6
CONTINUOUS
10
2.19875
20
1.37276
11
2.20092
21
1.36654
0
LINE
8
BLACK
6
CONTINUOUS
10
2.20092
20
1.36654
11
2.20165
21
1.36
0
LINE
8
BLACK
6
CONTINUOUS
10
2.20165
20
1.36
11
2.20164
21
1.35918
0
LINE
8
BLACK
6
CONTINUOUS
10
2.20164
20
1.35918
11
2.20073
21
1.35266
0
LINE
8
BLACK
6
CONTINUOUS
10
2.20073
20
1.35266
11
2.19839
21
1.3465
0
LINE
8
BLACK
6
CONTINUOUS
10
2.19839
20
1.3465
11
2.19475
21
1.34102
0
LINE
8
BLACK
6
CONTINUOUS
10
2.19475
20
1.34102
11
2.18998
21
1.33648
0
LINE
8
BLACK
6
CONTINUOUS
10
2.18998
20
1.33648
11
2.18432
21
1.33311
0
LINE
8
BLACK
6
CONTINUOUS
10
2.18432
20
1.33311
11
2.17806
21
1.33108
0
LINE
8
BLACK
6
CONTINUOUS
10
2.17806
20
1.33108
11
2.17151
21
1.33048
0
LINE
8
BLACK
6
CONTINUOUS
10
2.17151
20
1.33048
11
2.16498
21
1.33135
0
LINE
8
BLACK
6
CONTINUOUS
10
2.16498
20
1.33135
11
2.15881
21
1.33364
0
LINE
8
BLACK
6
CONTINUOUS
10
2.15881
20
1.33364
11
2.1533
21
1.33725
0
LINE
8
BLACK
6
CONTINUOUS
10
2.1533
20
1.33725
11
2.14873
21
1.34198
0
LINE
8
BLACK
6
CONTINUOUS
10
2.14873
20
1.34198
11
2.14532
21
1.34761
0
LINE
8
BLACK
6
CONTINUOUS
10
2.14532
20
1.34761
11
2.14324
21
1.35386
0
LINE
8
BLACK
6
CONTINUOUS
10
2.14324
20
1.35386
11
2.1426
21
1.36041
0
LINE
8
BLACK
6
CONTINUOUS
10
2.1426
20
1.36041
11
2.14343
21
1.36694
0
LINE
8
BLACK
6
CONTINUOUS
10
2.14343
20
1.36694
11
2.14568
21
1.37313
0
LINE
8
BLACK
6
CONTINUOUS
10
2.14568
20
1.37313
11
2.14924
21
1.37866
0
LINE
8
BLACK
6
CONTINUOUS
10
2.14924
20
1.37866
11
2.15395
21
1.38327
0
LINE
8
BLACK
6
CONTINUOUS
10
2.15395
20
1.38327
11
2.15955
21
1.38672
0
LINE
8
BLACK
6
CONTINUOUS
10
2.15955
20
1.38672
11
2.16579
21
1.38884
0
LINE
8
BLACK
6
CONTINUOUS
10
2.16579
20
1.38884
11
2.17233
21
1.38953
0
LINE
8
BLACK
6
CONTINUOUS
10
2.17233
20
1.38953
11
2.17887
21
1.38875
0
LINE
8
BLACK
6
CONTINUOUS
10
1.98674
20
1.38875
11
1.99294
21
1.38654
0
LINE
8
BLACK
6
CONTINUOUS
10
1.99294
20
1.38654
11
1.9985
21
1.38301
0
LINE
8
BLACK
6
CONTINUOUS
10
1.9985
20
1.38301
11
2.00314
21
1.37834
0
LINE
8
BLACK
6
CONTINUOUS
10
2.00314
20
1.37834
11
2.00663
21
1.37276
0
LINE
8
BLACK
6
CONTINUOUS
10
2.00663
20
1.37276
11
2.00879
21
1.36654
0
LINE
8
BLACK
6
CONTINUOUS
10
2.00879
20
1.36654
11
2.00953
21
1.36
0
LINE
8
BLACK
6
CONTINUOUS
10
2.00953
20
1.36
11
2.00952
21
1.35918
0
LINE
8
BLACK
6
CONTINUOUS
10
2.00952
20
1.35918
11
2.0086
21
1.35266
0
LINE
8
BLACK
6
CONTINUOUS
10
2.0086
20
1.35266
11
2.00626
21
1.3465
0
LINE
8
BLACK
6
CONTINUOUS
10
2.00626
20
1.3465
11
2.00262
21
1.34102
0
LINE
8
BLACK
6
CONTINUOUS
10
2.00262
20
1.34102
11
1.99785
21
1.33648
0
LINE
8
BLACK
6
CONTINUOUS
10
1.99785
20
1.33648
11
1.9922
21
1.33311
0
LINE
8
BLACK
6
CONTINUOUS
10
1.9922
20
1.33311
11
1.98594
21
1.33108
0
LINE
8
BLACK
6
CONTINUOUS
10
1.98594
20
1.33108
11
1.97938
21
1.33048
0
LINE
8
BLACK
6
CONTINUOUS
10
1.97938
20
1.33048
11
1.97286
21
1.33135
0
LINE
8
BLACK
6
CONTINUOUS
10
1.97286
20
1.33135
11
1.96669
21
1.33364
0
LINE
8
BLACK
6
CONTINUOUS
10
1.96669
20
1.33364
11
1.96118
21
1.33725
0
LINE
8
BLACK
6
CONTINUOUS
10
1.96118
20
1.33725
11
1.95661
21
1.34198
0
LINE
8
BLACK
6
CONTINUOUS
10
1.95661
20
1.34198
11
1.9532
21
1.34761
0
LINE
8
BLACK
6
CONTINUOUS
10
1.9532
20
1.34761
11
1.95112
21
1.35386
0
LINE
8
BLACK
6
CONTINUOUS
10
1.95112
20
1.35386
11
1.95048
21
1.36041
0
LINE
8
BLACK
6
CONTINUOUS
10
1.95048
20
1.36041
11
1.9513
21
1.36694
0
LINE
8
BLACK
6
CONTINUOUS
10
1.9513
20
1.36694
11
1.95355
21
1.37313
0
LINE
8
BLACK
6
CONTINUOUS
10
1.95355
20
1.37313
11
1.95712
21
1.37866
0
LINE
8
BLACK
6
CONTINUOUS
10
1.95712
20
1.37866
11
1.96182
21
1.38327
0
LINE
8
BLACK
6
CONTINUOUS
10
1.96182
20
1.38327
11
1.96743
21
1.38672
0
LINE
8
BLACK
6
CONTINUOUS
10
1.96743
20
1.38672
11
1.97366
21
1.38884
0
LINE
8
BLACK
6
CONTINUOUS
10
1.97366
20
1.38884
11
1.98021
21
1.38953
0
LINE
8
BLACK
6
CONTINUOUS
10
1.98021
20
1.38953
11
1.98674
21
1.38875
0
LINE
8
BLACK
6
CONTINUOUS
10
1.19575
20
1.64567
11
1.32567
21
1.64567
0
LINE
8
BLACK
6
CONTINUOUS
10
1.32567
20
1.64567
11
1.32567
21
1.51575
0
LINE
8
BLACK
6
CONTINUOUS
10
1.32567
20
1.51575
11
1.2863
21
1.51575
0
LINE
8
BLACK
6
CONTINUOUS
10
1.2863
20
1.51575
11
1.2863
21
1.6063
0
LINE
8
BLACK
6
CONTINUOUS
10
1.2863
20
1.6063
11
1.19575
21
1.6063
0
LINE
8
BLACK
6
CONTINUOUS
10
1.19575
20
1.6063
11
1.19575
21
1.64567
0
LINE
8
BLACK
6
CONTINUOUS
10
1.56992
20
1.51961
11
1.44
21
1.51961
0
LINE
8
BLACK
6
CONTINUOUS
10
1.44
20
1.51961
11
1.44
21
1.62
0
LINE
8
BLACK
6
CONTINUOUS
10
1.44
20
1.62
11
1.56992
21
1.62
0
LINE
8
BLACK
6
CONTINUOUS
10
1.56992
20
1.62
11
1.56992
21
1.51961
0
LINE
8
BLACK
6
CONTINUOUS
10
2.04236
20
1.58063
11
1.89276
21
1.58063
0
LINE
8
BLACK
6
CONTINUOUS
10
1.89276
20
1.58063
11
1.89276
21
1.62
0
LINE
8
BLACK
6
CONTINUOUS
10
1.89276
20
1.62
11
2.04236
21
1.62
0
LINE
8
BLACK
6
CONTINUOUS
10
2.04236
20
1.62
11
2.04236
21
1.58063
0
LINE
8
BLACK
6
CONTINUOUS
10
2.75102
20
1.58063
11
2.60142
21
1.58063
0
LINE
8
BLACK
6
CONTINUOUS
10
2.60142
20
1.58063
11
2.60142
21
1.62
0
LINE
8
BLACK
6
CONTINUOUS
10
2.60142
20
1.62
11
2.75102
21
1.62
0
LINE
8
BLACK
6
CONTINUOUS
10
2.75102
20
1.62
11
2.75102
21
1.58063
0
LINE
8
BLACK
6
CONTINUOUS
10
2.98724
20
1.58063
11
2.83764
21
1.58063
0
LINE
8
BLACK
6
CONTINUOUS
10
2.83764
20
1.58063
11
2.83764
21
1.62
0
LINE
8
BLACK
6
CONTINUOUS
10
2.83764
20
1.62
11
2.98724
21
1.62
0
LINE
8
BLACK
6
CONTINUOUS
10
2.98724
20
1.62
11
2.98724
21
1.58063
0
LINE
8
BLACK
6
CONTINUOUS
10
1.80614
20
1.58063
11
1.65654
21
1.58063
0
LINE
8
BLACK
6
CONTINUOUS
10
1.65654
20
1.58063
11
1.65654
21
1.62
0
LINE
8
BLACK
6
CONTINUOUS
10
1.65654
20
1.62
11
1.80614
21
1.62
0
LINE
8
BLACK
6
CONTINUOUS
10
1.80614
20
1.62
11
1.80614
21
1.58063
0
LINE
8
BLACK
6
CONTINUOUS
10
2.27858
20
1.58063
11
2.12898
21
1.58063
0
LINE
8
BLACK
6
CONTINUOUS
10
2.12898
20
1.58063
11
2.12898
21
1.62
0
LINE
8
BLACK
6
CONTINUOUS
10
2.12898
20
1.62
11
2.27858
21
1.62
0
LINE
8
BLACK
6
CONTINUOUS
10
2.27858
20
1.62
11
2.27858
21
1.58063
0
LINE
8
BLACK
6
CONTINUOUS
10
2.5148
20
1.58063
11
2.3652
21
1.58063
0
LINE
8
BLACK
6
CONTINUOUS
10
2.3652
20
1.58063
11
2.3652
21
1.62
0
LINE
8
BLACK
6
CONTINUOUS
10
2.3652
20
1.62
11
2.5148
21
1.62
0
LINE
8
BLACK
6
CONTINUOUS
10
2.5148
20
1.62
11
2.5148
21
1.58063
0
LINE
8
BLACK
6
CONTINUOUS
10
3.40865
20
1.91779
11
3.42213
21
1.91602
0
LINE
8
BLACK
6
CONTINUOUS
10
3.42213
20
1.91602
11
3.43532
21
1.91271
0
LINE
8
BLACK
6
CONTINUOUS
10
3.43532
20
1.91271
11
3.44804
21
1.9079
0
LINE
8
BLACK
6
CONTINUOUS
10
3.44804
20
1.9079
11
3.46012
21
1.90166
0
LINE
8
BLACK
6
CONTINUOUS
10
3.46012
20
1.90166
11
3.47141
21
1.89408
0
LINE
8
BLACK
6
CONTINUOUS
10
3.47141
20
1.89408
11
3.48175
21
1.88525
0
LINE
8
BLACK
6
CONTINUOUS
10
3.48175
20
1.88525
11
3.49101
21
1.87529
0
LINE
8
BLACK
6
CONTINUOUS
10
3.49101
20
1.87529
11
3.49906
21
1.86433
0
LINE
8
BLACK
6
CONTINUOUS
10
3.49906
20
1.86433
11
3.50579
21
1.85252
0
LINE
8
BLACK
6
CONTINUOUS
10
3.50579
20
1.85252
11
3.51113
21
1.84001
0
LINE
8
BLACK
6
CONTINUOUS
10
3.51113
20
1.84001
11
3.51499
21
1.82697
0
LINE
8
BLACK
6
CONTINUOUS
10
3.51499
20
1.82697
11
3.51733
21
1.81358
0
LINE
8
BLACK
6
CONTINUOUS
10
3.51733
20
1.81358
11
3.51811
21
1.8
0
LINE
8
BLACK
6
CONTINUOUS
10
3.51811
20
1.8
11
3.51788
21
1.79258
0
LINE
8
BLACK
6
CONTINUOUS
10
3.51788
20
1.79258
11
3.51624
21
1.77908
0
LINE
8
BLACK
6
CONTINUOUS
10
3.51624
20
1.77908
11
3.51307
21
1.76586
0
LINE
8
BLACK
6
CONTINUOUS
10
3.51307
20
1.76586
11
3.5084
21
1.75309
0
LINE
8
BLACK
6
CONTINUOUS
10
3.5084
20
1.75309
11
3.50229
21
1.74094
0
LINE
8
BLACK
6
CONTINUOUS
10
3.50229
20
1.74094
11
3.49482
21
1.72958
0
LINE
8
BLACK
6
CONTINUOUS
10
3.49482
20
1.72958
11
3.4861
21
1.71915
0
LINE
8
BLACK
6
CONTINUOUS
10
3.4861
20
1.71915
11
3.47624
21
1.70979
0
LINE
8
BLACK
6
CONTINUOUS
10
3.47624
20
1.70979
11
3.46536
21
1.70162
0
LINE
8
BLACK
6
CONTINUOUS
10
3.46536
20
1.70162
11
3.45362
21
1.69476
0
LINE
8
BLACK
6
CONTINUOUS
10
3.45362
20
1.69476
11
3.44117
21
1.6893
0
LINE
8
BLACK
6
CONTINUOUS
10
3.44117
20
1.6893
11
3.42817
21
1.6853
0
LINE
8
BLACK
6
CONTINUOUS
10
3.42817
20
1.6853
11
3.4148
21
1.68282
0
LINE
8
BLACK
6
CONTINUOUS
10
3.4148
20
1.68282
11
3.40124
21
1.6819
0
LINE
8
BLACK
6
CONTINUOUS
10
3.40124
20
1.6819
11
3.38765
21
1.68254
0
LINE
8
BLACK
6
CONTINUOUS
10
3.38765
20
1.68254
11
3.37424
21
1.68473
0
LINE
8
BLACK
6
CONTINUOUS
10
3.37424
20
1.68473
11
3.36116
21
1.68846
0
LINE
8
BLACK
6
CONTINUOUS
10
3.36116
20
1.68846
11
3.34859
21
1.69366
0
LINE
8
BLACK
6
CONTINUOUS
10
3.34859
20
1.69366
11
3.33671
21
1.70028
0
LINE
8
BLACK
6
CONTINUOUS
10
3.33671
20
1.70028
11
3.32567
21
1.70821
0
LINE
8
BLACK
6
CONTINUOUS
10
3.32567
20
1.70821
11
3.31561
21
1.71736
0
LINE
8
BLACK
6
CONTINUOUS
10
3.31561
20
1.71736
11
3.30667
21
1.72761
0
LINE
8
BLACK
6
CONTINUOUS
10
3.30667
20
1.72761
11
3.29897
21
1.73882
0
LINE
8
BLACK
6
CONTINUOUS
10
3.29897
20
1.73882
11
3.29261
21
1.75083
0
LINE
8
BLACK
6
CONTINUOUS
10
3.29261
20
1.75083
11
3.28767
21
1.7635
0
LINE
8
BLACK
6
CONTINUOUS
10
3.28767
20
1.7635
11
3.28422
21
1.77665
0
LINE
8
BLACK
6
CONTINUOUS
10
3.28422
20
1.77665
11
3.2823
21
1.79012
0
LINE
8
BLACK
6
CONTINUOUS
10
3.2823
20
1.79012
11
3.28195
21
1.80371
0
LINE
8
BLACK
6
CONTINUOUS
10
3.28195
20
1.80371
11
3.28316
21
1.81725
0
LINE
8
BLACK
6
CONTINUOUS
10
3.28316
20
1.81725
11
3.28591
21
1.83057
0
LINE
8
BLACK
6
CONTINUOUS
10
3.28591
20
1.83057
11
3.29018
21
1.84348
0
LINE
8
BLACK
6
CONTINUOUS
10
3.29018
20
1.84348
11
3.29591
21
1.85581
0
LINE
8
BLACK
6
CONTINUOUS
10
3.29591
20
1.85581
11
3.30301
21
1.86741
0
LINE
8
BLACK
6
CONTINUOUS
10
3.30301
20
1.86741
11
3.3114
21
1.87811
0
LINE
8
BLACK
6
CONTINUOUS
10
3.3114
20
1.87811
11
3.32097
21
1.88777
0
LINE
8
BLACK
6
CONTINUOUS
10
3.32097
20
1.88777
11
3.33158
21
1.89627
0
LINE
8
BLACK
6
CONTINUOUS
10
3.33158
20
1.89627
11
3.3431
21
1.9035
0
LINE
8
BLACK
6
CONTINUOUS
10
3.3431
20
1.9035
11
3.35537
21
1.90935
0
LINE
8
BLACK
6
CONTINUOUS
10
3.35537
20
1.90935
11
3.36824
21
1.91376
0
LINE
8
BLACK
6
CONTINUOUS
10
3.36824
20
1.91376
11
3.38152
21
1.91666
0
LINE
8
BLACK
6
CONTINUOUS
10
3.38152
20
1.91666
11
3.39505
21
1.91801
0
LINE
8
BLACK
6
CONTINUOUS
10
3.39505
20
1.91801
11
3.40865
21
1.91779
  0
ENDSEC
  0
EOF
