  0
SECTION
  2
HEADER
  9
$ANGBASE
  50
0.0
  9
$ANGDIR
  70
1
  9
$MEASUREMENT
  70
0
  0
ENDSEC
  0
SECTION
  2
TABLES
  0
TABLE
  2
LTYPE
  70
4
  0
LTYPE
  5
40F
  2
CONTINUOUS
  70
0
  3
Solid line
  72
65
  73
0
  40
0.0
  0
LTYPE
  5
410
  2
DASHDOT
 70
0
  3
Dash Dot ____ _ ____ _
 72
65
 73
4
 40
2.0
 49
1.25
 49
-0.25
 49
0.25
 49
-0.25
  0
LTYPE
  5
411
  2
DASHED
 70
0
  3
Dashed __ __ __ __ __
 72
65
 73
2
 40
0.75
 49
0.5
 49
-0.25
  0
LTYPE
  5
43B
  2
DOTTED
 70
0
  3
Dotted .  .  .  .
 72
65
 73
2
 40
0.2
 49
0.0
 49
-0.2
  0
ENDTAB
  0
TABLE
  2
STYLE
  70
4
  0
STYLE
  2
KICAD
  70
0
  40
0
  41
1
  42
1
  50
0
  71
0
  3
isocp.shx
  0
STYLE
  2
KICADB
  70
0
  40
0
  41
1
  42
1
  50
0
  71
0
  3
isocp.shx
  0
STYLE
  2
KICADI
  70
0
  40
0
  41
1
  42
1
  50
15
  71
0
  3
isocp.shx
  0
STYLE
  2
KICADBI
  70
0
  40
0
  41
1
  42
1
  50
15
  71
0
  3
isocp.shx
  0
ENDTAB
  0
TABLE
  2
LAYER
  70
1
  0
LAYER
  2
BLACK
  70
0
  62
7
  6
CONTINUOUS
  0
ENDTAB
  0
ENDSEC
  0
SECTION
  2
ENTITIES
0
LINE
8
BLACK
6
CONTINUOUS
10
7.4792678740157479
20
-2.9037724803149607
11
7.4798914566929131
21
-2.9037724803149607
0
LINE
8
BLACK
6
CONTINUOUS
10
7.4798914566929131
20
-2.9037724803149607
11
7.480395905511811
21
-2.9041389763779528
0
LINE
8
BLACK
6
CONTINUOUS
10
7.480395905511811
20
-2.9041389763779528
11
7.4809889763779527
21
-2.9043316929133858
0
LINE
8
BLACK
6
CONTINUOUS
10
7.4809889763779527
20
-2.9043316929133858
11
7.4813554724409448
21
-2.9048361417322832
0
LINE
8
BLACK
6
CONTINUOUS
10
7.4813554724409448
20
-2.9048361417322832
11
7.4818599606299214
21
-2.9052026771653541
0
LINE
8
BLACK
6
CONTINUOUS
10
7.4818599606299214
20
-2.9052026771653541
11
7.4820526377952756
21
-2.9057957086614175
0
LINE
8
BLACK
6
CONTINUOUS
10
7.4820526377952756
20
-2.9057957086614175
11
7.4824191732283465
21
-2.9063001968503936
0
LINE
8
BLACK
6
CONTINUOUS
10
7.4824191732283465
20
-2.9063001968503936
11
7.4824191732283465
21
-2.9069237795275589
0
LINE
8
BLACK
6
CONTINUOUS
10
7.4824191732283465
20
-2.9069237795275589
11
7.4826118503937007
21
-2.9075168110236218
0
LINE
8
BLACK
6
CONTINUOUS
10
7.4826118503937007
20
-2.9075168110236218
11
7.4826118503937007
21
-4.8875168110236222
0
LINE
8
BLACK
6
CONTINUOUS
10
7.4826118503937007
20
-4.8875168110236222
11
7.4824191732283465
21
-4.8881098031496064
0
LINE
8
BLACK
6
CONTINUOUS
10
7.4824191732283465
20
-4.8881098031496064
11
7.4824191732283465
21
-4.8887334251968504
0
LINE
8
BLACK
6
CONTINUOUS
10
7.4824191732283465
20
-4.8887334251968504
11
7.4820526377952756
21
-4.8892378740157483
0
LINE
8
BLACK
6
CONTINUOUS
10
7.4820526377952756
20
-4.8892378740157483
11
7.4818599606299214
21
-4.88983094488189
0
LINE
8
BLACK
6
CONTINUOUS
10
7.4818599606299214
20
-4.88983094488189
11
7.4813554724409448
21
-4.8901974409448821
0
LINE
8
BLACK
6
CONTINUOUS
10
7.4813554724409448
20
-4.8901974409448821
11
7.4809889763779527
21
-4.8907019291338578
0
LINE
8
BLACK
6
CONTINUOUS
10
7.4809889763779527
20
-4.8907019291338578
11
7.480395905511811
21
-4.8908946062992129
0
LINE
8
BLACK
6
CONTINUOUS
10
7.480395905511811
20
-4.8908946062992129
11
7.4798914566929131
21
-4.8912611417322838
0
LINE
8
BLACK
6
CONTINUOUS
10
7.4798914566929131
20
-4.8912611417322838
11
7.4792678740157479
21
-4.8912611417322838
0
LINE
8
BLACK
6
CONTINUOUS
10
7.4792678740157479
20
-4.8912611417322838
11
7.478674842519685
21
-4.891453818897638
0
LINE
8
BLACK
6
CONTINUOUS
10
7.478674842519685
20
-4.891453818897638
11
3.8986748425196849
21
-4.891453818897638
0
LINE
8
BLACK
6
CONTINUOUS
10
3.8986748425196849
20
-4.891453818897638
11
3.8980818110236219
21
-4.8912611417322838
0
LINE
8
BLACK
6
CONTINUOUS
10
3.8980818110236219
20
-4.8912611417322838
11
3.8974582283464567
21
-4.8912611417322838
0
LINE
8
BLACK
6
CONTINUOUS
10
3.8974582283464567
20
-4.8912611417322838
11
3.8969537401574801
21
-4.8908946062992129
0
LINE
8
BLACK
6
CONTINUOUS
10
3.8969537401574801
20
-4.8908946062992129
11
3.8963607086614171
21
-4.8907019291338578
0
LINE
8
BLACK
6
CONTINUOUS
10
3.8963607086614171
20
-4.8907019291338578
11
3.8959941732283463
21
-4.8901974409448821
0
LINE
8
BLACK
6
CONTINUOUS
10
3.8959941732283463
20
-4.8901974409448821
11
3.8954897244094489
21
-4.88983094488189
0
LINE
8
BLACK
6
CONTINUOUS
10
3.8954897244094489
20
-4.88983094488189
11
3.8952970078740154
21
-4.8892378740157483
0
LINE
8
BLACK
6
CONTINUOUS
10
3.8952970078740154
20
-4.8892378740157483
11
3.8949305118110233
21
-4.8887334251968504
0
LINE
8
BLACK
6
CONTINUOUS
10
3.8949305118110233
20
-4.8887334251968504
11
3.8949305118110233
21
-4.8881098031496064
0
LINE
8
BLACK
6
CONTINUOUS
10
3.8949305118110233
20
-4.8881098031496064
11
3.8947378346456691
21
-4.8875168110236222
0
LINE
8
BLACK
6
CONTINUOUS
10
3.8947378346456691
20
-4.8875168110236222
11
3.8947378346456691
21
-2.9075168110236218
0
LINE
8
BLACK
6
CONTINUOUS
10
3.8947378346456691
20
-2.9075168110236218
11
3.8949305118110233
21
-2.9069237795275589
0
LINE
8
BLACK
6
CONTINUOUS
10
3.8949305118110233
20
-2.9069237795275589
11
3.8949305118110233
21
-2.9063001968503936
0
LINE
8
BLACK
6
CONTINUOUS
10
3.8949305118110233
20
-2.9063001968503936
11
3.8952970078740154
21
-2.9057957086614175
0
LINE
8
BLACK
6
CONTINUOUS
10
3.8952970078740154
20
-2.9057957086614175
11
3.8954897244094489
21
-2.9052026771653541
0
LINE
8
BLACK
6
CONTINUOUS
10
3.8954897244094489
20
-2.9052026771653541
11
3.8959941732283463
21
-2.9048361417322832
0
LINE
8
BLACK
6
CONTINUOUS
10
3.8959941732283463
20
-2.9048361417322832
11
3.8963607086614171
21
-2.9043316929133858
0
LINE
8
BLACK
6
CONTINUOUS
10
3.8963607086614171
20
-2.9043316929133858
11
3.8969537401574801
21
-2.9041389763779528
0
LINE
8
BLACK
6
CONTINUOUS
10
3.8969537401574801
20
-2.9041389763779528
11
3.8974582283464567
21
-2.9037724803149607
0
LINE
8
BLACK
6
CONTINUOUS
10
3.8974582283464567
20
-2.9037724803149607
11
3.8980818110236219
21
-2.9037724803149607
0
LINE
8
BLACK
6
CONTINUOUS
10
3.8980818110236219
20
-2.9037724803149607
11
3.8986748425196849
21
-2.9035798031496061
0
LINE
8
BLACK
6
CONTINUOUS
10
3.8986748425196849
20
-2.9035798031496061
11
7.478674842519685
21
-2.9035798031496061
0
LINE
8
BLACK
6
CONTINUOUS
10
7.478674842519685
20
-2.9035798031496061
11
7.4792678740157479
21
-2.9037724803149607
0
LINE
8
BLACK
6
CONTINUOUS
10
3.9026118503937006
20
-2.9114538188976375
11
3.9026118503937006
21
-4.8835798031496065
0
LINE
8
BLACK
6
CONTINUOUS
10
3.9026118503937006
20
-4.8835798031496065
11
7.4747378346456692
21
-4.8835798031496065
0
LINE
8
BLACK
6
CONTINUOUS
10
7.4747378346456692
20
-4.8835798031496065
11
7.4747378346456692
21
-2.9114538188976375
0
LINE
8
BLACK
6
CONTINUOUS
10
7.4747378346456692
20
-2.9114538188976375
11
3.9026118503937006
21
-2.9114538188976375
  0
ENDSEC
  0
EOF
