  0
SECTION
  2
HEADER
  9
$ANGBASE
  50
0.0
  9
$ANGDIR
  70
1
  9
$MEASUREMENT
  70
0
  0
ENDSEC
  0
SECTION
  2
TABLES
  0
TABLE
  2
LTYPE
  70
4
  0
LTYPE
  5
40F
  2
CONTINUOUS
  70
0
  3
Solid line
  72
65
  73
0
  40
0.0
  0
LTYPE
  5
410
  2
DASHDOT
 70
0
  3
Dash Dot ____ _ ____ _
 72
65
 73
4
 40
2.0
 49
1.25
 49
-0.25
 49
0.25
 49
-0.25
  0
LTYPE
  5
411
  2
DASHED
 70
0
  3
Dashed __ __ __ __ __
 72
65
 73
2
 40
0.75
 49
0.5
 49
-0.25
  0
LTYPE
  5
43B
  2
DOTTED
 70
0
  3
Dotted .  .  .  .
 72
65
 73
2
 40
0.2
 49
0.0
 49
-0.2
  0
ENDTAB
  0
TABLE
  2
STYLE
  70
4
  0
STYLE
  2
KICAD
  70
0
  40
0
  41
1
  42
1
  50
0
  71
0
  3
isocp.shx
  0
STYLE
  2
KICADB
  70
0
  40
0
  41
1
  42
1
  50
0
  71
0
  3
isocp.shx
  0
STYLE
  2
KICADI
  70
0
  40
0
  41
1
  42
1
  50
15
  71
0
  3
isocp.shx
  0
STYLE
  2
KICADBI
  70
0
  40
0
  41
1
  42
1
  50
15
  71
0
  3
isocp.shx
  0
ENDTAB
  0
TABLE
  2
LAYER
  70
1
  0
LAYER
  2
BLACK
  70
0
  62
7
  6
CONTINUOUS
  0
ENDTAB
  0
ENDSEC
  0
SECTION
  2
ENTITIES
0
LINE
8
BLACK
6
CONTINUOUS
10
4.49707
20
0.145556
11
4.49678
21
0.146252
0
LINE
8
BLACK
6
CONTINUOUS
10
4.49678
20
0.146252
11
4.49678
21
0.203732
0
LINE
8
BLACK
6
CONTINUOUS
10
4.49678
20
0.203732
11
4.49707
21
0.204428
0
LINE
8
BLACK
6
CONTINUOUS
10
4.49707
20
0.204428
11
4.49776
21
0.204717
0
LINE
8
BLACK
6
CONTINUOUS
10
4.49776
20
0.204717
11
4.6143
21
0.204717
0
LINE
8
BLACK
6
CONTINUOUS
10
4.6143
20
0.204717
11
4.615
21
0.204428
0
LINE
8
BLACK
6
CONTINUOUS
10
4.615
20
0.204428
11
4.61528
21
0.203732
0
LINE
8
BLACK
6
CONTINUOUS
10
4.61528
20
0.203732
11
4.61528
21
0.146252
0
LINE
8
BLACK
6
CONTINUOUS
10
4.61528
20
0.146252
11
4.615
21
0.145556
0
LINE
8
BLACK
6
CONTINUOUS
10
4.615
20
0.145556
11
4.6143
21
0.145268
0
LINE
8
BLACK
6
CONTINUOUS
10
4.6143
20
0.145268
11
4.49776
21
0.145268
0
LINE
8
BLACK
6
CONTINUOUS
10
4.49776
20
0.145268
11
4.49707
21
0.145556
0
LINE
8
BLACK
6
CONTINUOUS
10
4.49875
20
0.202748
11
4.49875
21
0.147236
0
LINE
8
BLACK
6
CONTINUOUS
10
4.49875
20
0.147236
11
4.61331
21
0.147236
0
LINE
8
BLACK
6
CONTINUOUS
10
4.61331
20
0.147236
11
4.61331
21
0.202748
0
LINE
8
BLACK
6
CONTINUOUS
10
4.61331
20
0.202748
11
4.49875
21
0.202748
0
LINE
8
BLACK
6
CONTINUOUS
10
4.65494
20
0.145556
11
4.65465
21
0.146252
0
LINE
8
BLACK
6
CONTINUOUS
10
4.65465
20
0.146252
11
4.65465
21
0.203732
0
LINE
8
BLACK
6
CONTINUOUS
10
4.65465
20
0.203732
11
4.65494
21
0.204428
0
LINE
8
BLACK
6
CONTINUOUS
10
4.65494
20
0.204428
11
4.65564
21
0.204717
0
LINE
8
BLACK
6
CONTINUOUS
10
4.65564
20
0.204717
11
4.77217
21
0.204717
0
LINE
8
BLACK
6
CONTINUOUS
10
4.77217
20
0.204717
11
4.77287
21
0.204428
0
LINE
8
BLACK
6
CONTINUOUS
10
4.77287
20
0.204428
11
4.77316
21
0.203732
0
LINE
8
BLACK
6
CONTINUOUS
10
4.77316
20
0.203732
11
4.77316
21
0.146252
0
LINE
8
BLACK
6
CONTINUOUS
10
4.77316
20
0.146252
11
4.77287
21
0.145556
0
LINE
8
BLACK
6
CONTINUOUS
10
4.77287
20
0.145556
11
4.77217
21
0.145268
0
LINE
8
BLACK
6
CONTINUOUS
10
4.77217
20
0.145268
11
4.65564
21
0.145268
0
LINE
8
BLACK
6
CONTINUOUS
10
4.65564
20
0.145268
11
4.65494
21
0.145556
0
LINE
8
BLACK
6
CONTINUOUS
10
4.65662
20
0.202748
11
4.65662
21
0.147236
0
LINE
8
BLACK
6
CONTINUOUS
10
4.65662
20
0.147236
11
4.77119
21
0.147236
0
LINE
8
BLACK
6
CONTINUOUS
10
4.77119
20
0.147236
11
4.77119
21
0.202748
0
LINE
8
BLACK
6
CONTINUOUS
10
4.77119
20
0.202748
11
4.65662
21
0.202748
0
LINE
8
BLACK
6
CONTINUOUS
10
4.33919
20
0.145556
11
4.33891
21
0.146252
0
LINE
8
BLACK
6
CONTINUOUS
10
4.33891
20
0.146252
11
4.33891
21
0.203732
0
LINE
8
BLACK
6
CONTINUOUS
10
4.33891
20
0.203732
11
4.33919
21
0.204428
0
LINE
8
BLACK
6
CONTINUOUS
10
4.33919
20
0.204428
11
4.33989
21
0.204717
0
LINE
8
BLACK
6
CONTINUOUS
10
4.33989
20
0.204717
11
4.45643
21
0.204717
0
LINE
8
BLACK
6
CONTINUOUS
10
4.45643
20
0.204717
11
4.45712
21
0.204428
0
LINE
8
BLACK
6
CONTINUOUS
10
4.45712
20
0.204428
11
4.45741
21
0.203732
0
LINE
8
BLACK
6
CONTINUOUS
10
4.45741
20
0.203732
11
4.45741
21
0.146252
0
LINE
8
BLACK
6
CONTINUOUS
10
4.45741
20
0.146252
11
4.45712
21
0.145556
0
LINE
8
BLACK
6
CONTINUOUS
10
4.45712
20
0.145556
11
4.45643
21
0.145268
0
LINE
8
BLACK
6
CONTINUOUS
10
4.45643
20
0.145268
11
4.33989
21
0.145268
0
LINE
8
BLACK
6
CONTINUOUS
10
4.33989
20
0.145268
11
4.33919
21
0.145556
0
LINE
8
BLACK
6
CONTINUOUS
10
4.34087
20
0.202748
11
4.34087
21
0.147236
0
LINE
8
BLACK
6
CONTINUOUS
10
4.34087
20
0.147236
11
4.45544
21
0.147236
0
LINE
8
BLACK
6
CONTINUOUS
10
4.45544
20
0.147236
11
4.45544
21
0.202748
0
LINE
8
BLACK
6
CONTINUOUS
10
4.45544
20
0.202748
11
4.34087
21
0.202748
0
LINE
8
BLACK
6
CONTINUOUS
10
4.72423
20
0.244375
11
4.72394
21
0.245071
0
LINE
8
BLACK
6
CONTINUOUS
10
4.72394
20
0.245071
11
4.72394
21
0.378929
0
LINE
8
BLACK
6
CONTINUOUS
10
4.72394
20
0.378929
11
4.72423
21
0.379625
0
LINE
8
BLACK
6
CONTINUOUS
10
4.72423
20
0.379625
11
4.72493
21
0.379913
0
LINE
8
BLACK
6
CONTINUOUS
10
4.72493
20
0.379913
11
4.87611
21
0.379913
0
LINE
8
BLACK
6
CONTINUOUS
10
4.87611
20
0.379913
11
4.87681
21
0.379625
0
LINE
8
BLACK
6
CONTINUOUS
10
4.87681
20
0.379625
11
4.87709
21
0.378929
0
LINE
8
BLACK
6
CONTINUOUS
10
4.87709
20
0.378929
11
4.87709
21
0.245071
0
LINE
8
BLACK
6
CONTINUOUS
10
4.87709
20
0.245071
11
4.87681
21
0.244375
0
LINE
8
BLACK
6
CONTINUOUS
10
4.87681
20
0.244375
11
4.87611
21
0.244087
0
LINE
8
BLACK
6
CONTINUOUS
10
4.87611
20
0.244087
11
4.72493
21
0.244087
0
LINE
8
BLACK
6
CONTINUOUS
10
4.72493
20
0.244087
11
4.72423
21
0.244375
0
LINE
8
BLACK
6
CONTINUOUS
10
4.72591
20
0.377945
11
4.72591
21
0.246055
0
LINE
8
BLACK
6
CONTINUOUS
10
4.72591
20
0.246055
11
4.87513
21
0.246055
0
LINE
8
BLACK
6
CONTINUOUS
10
4.87513
20
0.246055
11
4.87513
21
0.377945
0
LINE
8
BLACK
6
CONTINUOUS
10
4.87513
20
0.377945
11
4.72591
21
0.377945
0
LINE
8
BLACK
6
CONTINUOUS
10
4.33919
20
0.244375
11
4.33891
21
0.245071
0
LINE
8
BLACK
6
CONTINUOUS
10
4.33891
20
0.245071
11
4.33891
21
0.378929
0
LINE
8
BLACK
6
CONTINUOUS
10
4.33891
20
0.378929
11
4.33919
21
0.379625
0
LINE
8
BLACK
6
CONTINUOUS
10
4.33919
20
0.379625
11
4.33989
21
0.379913
0
LINE
8
BLACK
6
CONTINUOUS
10
4.33989
20
0.379913
11
4.49107
21
0.379913
0
LINE
8
BLACK
6
CONTINUOUS
10
4.49107
20
0.379913
11
4.49177
21
0.379625
0
LINE
8
BLACK
6
CONTINUOUS
10
4.49177
20
0.379625
11
4.49206
21
0.378929
0
LINE
8
BLACK
6
CONTINUOUS
10
4.49206
20
0.378929
11
4.49206
21
0.245071
0
LINE
8
BLACK
6
CONTINUOUS
10
4.49206
20
0.245071
11
4.49177
21
0.244375
0
LINE
8
BLACK
6
CONTINUOUS
10
4.49177
20
0.244375
11
4.49107
21
0.244087
0
LINE
8
BLACK
6
CONTINUOUS
10
4.49107
20
0.244087
11
4.33989
21
0.244087
0
LINE
8
BLACK
6
CONTINUOUS
10
4.33989
20
0.244087
11
4.33919
21
0.244375
0
LINE
8
BLACK
6
CONTINUOUS
10
4.34087
20
0.377945
11
4.34087
21
0.246055
0
LINE
8
BLACK
6
CONTINUOUS
10
4.34087
20
0.246055
11
4.49009
21
0.246055
0
LINE
8
BLACK
6
CONTINUOUS
10
4.49009
20
0.246055
11
4.49009
21
0.377945
0
LINE
8
BLACK
6
CONTINUOUS
10
4.49009
20
0.377945
11
4.34087
21
0.377945
0
LINE
8
BLACK
6
CONTINUOUS
10
4.53171
20
0.244375
11
4.53143
21
0.245071
0
LINE
8
BLACK
6
CONTINUOUS
10
4.53143
20
0.245071
11
4.53143
21
0.378929
0
LINE
8
BLACK
6
CONTINUOUS
10
4.53143
20
0.378929
11
4.53171
21
0.379625
0
LINE
8
BLACK
6
CONTINUOUS
10
4.53171
20
0.379625
11
4.53241
21
0.379913
0
LINE
8
BLACK
6
CONTINUOUS
10
4.53241
20
0.379913
11
4.68359
21
0.379913
0
LINE
8
BLACK
6
CONTINUOUS
10
4.68359
20
0.379913
11
4.68429
21
0.379625
0
LINE
8
BLACK
6
CONTINUOUS
10
4.68429
20
0.379625
11
4.68457
21
0.378929
0
LINE
8
BLACK
6
CONTINUOUS
10
4.68457
20
0.378929
11
4.68457
21
0.245071
0
LINE
8
BLACK
6
CONTINUOUS
10
4.68457
20
0.245071
11
4.68429
21
0.244375
0
LINE
8
BLACK
6
CONTINUOUS
10
4.68429
20
0.244375
11
4.68359
21
0.244087
0
LINE
8
BLACK
6
CONTINUOUS
10
4.68359
20
0.244087
11
4.53241
21
0.244087
0
LINE
8
BLACK
6
CONTINUOUS
10
4.53241
20
0.244087
11
4.53171
21
0.244375
0
LINE
8
BLACK
6
CONTINUOUS
10
4.53339
20
0.377945
11
4.53339
21
0.246055
0
LINE
8
BLACK
6
CONTINUOUS
10
4.53339
20
0.246055
11
4.68261
21
0.246055
0
LINE
8
BLACK
6
CONTINUOUS
10
4.68261
20
0.246055
11
4.68261
21
0.377945
0
LINE
8
BLACK
6
CONTINUOUS
10
4.68261
20
0.377945
11
4.53339
21
0.377945
0
LINE
8
BLACK
6
CONTINUOUS
10
5.20704
20
0.604564
11
5.20675
21
0.60526
0
LINE
8
BLACK
6
CONTINUOUS
10
5.20675
20
0.60526
11
5.20675
21
0.66274
0
LINE
8
BLACK
6
CONTINUOUS
10
5.20675
20
0.66274
11
5.20704
21
0.663436
0
LINE
8
BLACK
6
CONTINUOUS
10
5.20704
20
0.663436
11
5.20773
21
0.663724
0
LINE
8
BLACK
6
CONTINUOUS
10
5.20773
20
0.663724
11
5.32427
21
0.663724
0
LINE
8
BLACK
6
CONTINUOUS
10
5.32427
20
0.663724
11
5.32496
21
0.663436
0
LINE
8
BLACK
6
CONTINUOUS
10
5.32496
20
0.663436
11
5.32525
21
0.66274
0
LINE
8
BLACK
6
CONTINUOUS
10
5.32525
20
0.66274
11
5.32525
21
0.60526
0
LINE
8
BLACK
6
CONTINUOUS
10
5.32525
20
0.60526
11
5.32496
21
0.604564
0
LINE
8
BLACK
6
CONTINUOUS
10
5.32496
20
0.604564
11
5.32427
21
0.604276
0
LINE
8
BLACK
6
CONTINUOUS
10
5.32427
20
0.604276
11
5.20773
21
0.604276
0
LINE
8
BLACK
6
CONTINUOUS
10
5.20773
20
0.604276
11
5.20704
21
0.604564
0
LINE
8
BLACK
6
CONTINUOUS
10
5.20872
20
0.661756
11
5.20872
21
0.606244
0
LINE
8
BLACK
6
CONTINUOUS
10
5.20872
20
0.606244
11
5.32328
21
0.606244
0
LINE
8
BLACK
6
CONTINUOUS
10
5.32328
20
0.606244
11
5.32328
21
0.661756
0
LINE
8
BLACK
6
CONTINUOUS
10
5.32328
20
0.661756
11
5.20872
21
0.661756
0
LINE
8
BLACK
6
CONTINUOUS
10
5.36491
20
0.604564
11
5.36462
21
0.60526
0
LINE
8
BLACK
6
CONTINUOUS
10
5.36462
20
0.60526
11
5.36462
21
0.66274
0
LINE
8
BLACK
6
CONTINUOUS
10
5.36462
20
0.66274
11
5.36491
21
0.663436
0
LINE
8
BLACK
6
CONTINUOUS
10
5.36491
20
0.663436
11
5.36561
21
0.663724
0
LINE
8
BLACK
6
CONTINUOUS
10
5.36561
20
0.663724
11
5.48214
21
0.663724
0
LINE
8
BLACK
6
CONTINUOUS
10
5.48214
20
0.663724
11
5.48284
21
0.663436
0
LINE
8
BLACK
6
CONTINUOUS
10
5.48284
20
0.663436
11
5.48313
21
0.66274
0
LINE
8
BLACK
6
CONTINUOUS
10
5.48313
20
0.66274
11
5.48313
21
0.60526
0
LINE
8
BLACK
6
CONTINUOUS
10
5.48313
20
0.60526
11
5.48284
21
0.604564
0
LINE
8
BLACK
6
CONTINUOUS
10
5.48284
20
0.604564
11
5.48214
21
0.604276
0
LINE
8
BLACK
6
CONTINUOUS
10
5.48214
20
0.604276
11
5.36561
21
0.604276
0
LINE
8
BLACK
6
CONTINUOUS
10
5.36561
20
0.604276
11
5.36491
21
0.604564
0
LINE
8
BLACK
6
CONTINUOUS
10
5.36659
20
0.661756
11
5.36659
21
0.606244
0
LINE
8
BLACK
6
CONTINUOUS
10
5.36659
20
0.606244
11
5.48116
21
0.606244
0
LINE
8
BLACK
6
CONTINUOUS
10
5.48116
20
0.606244
11
5.48116
21
0.661756
0
LINE
8
BLACK
6
CONTINUOUS
10
5.48116
20
0.661756
11
5.36659
21
0.661756
0
LINE
8
BLACK
6
CONTINUOUS
10
1.83757
20
1.24907
11
1.83728
21
1.24976
0
LINE
8
BLACK
6
CONTINUOUS
10
1.83728
20
1.24976
11
1.83728
21
1.47024
0
LINE
8
BLACK
6
CONTINUOUS
10
1.83728
20
1.47024
11
1.83757
21
1.47093
0
LINE
8
BLACK
6
CONTINUOUS
10
1.83757
20
1.47093
11
1.83827
21
1.47122
0
LINE
8
BLACK
6
CONTINUOUS
10
1.83827
20
1.47122
11
2.31465
21
1.47122
0
LINE
8
BLACK
6
CONTINUOUS
10
2.31465
20
1.47122
11
2.31534
21
1.47093
0
LINE
8
BLACK
6
CONTINUOUS
10
2.31534
20
1.47093
11
2.31563
21
1.47024
0
LINE
8
BLACK
6
CONTINUOUS
10
2.31563
20
1.47024
11
2.31563
21
1.24976
0
LINE
8
BLACK
6
CONTINUOUS
10
2.31563
20
1.24976
11
2.31534
21
1.24907
0
LINE
8
BLACK
6
CONTINUOUS
10
2.31534
20
1.24907
11
2.31465
21
1.24878
0
LINE
8
BLACK
6
CONTINUOUS
10
2.31465
20
1.24878
11
1.83827
21
1.24878
0
LINE
8
BLACK
6
CONTINUOUS
10
1.83827
20
1.24878
11
1.83757
21
1.24907
0
LINE
8
BLACK
6
CONTINUOUS
10
1.83925
20
1.46925
11
1.83925
21
1.25075
0
LINE
8
BLACK
6
CONTINUOUS
10
1.83925
20
1.25075
11
2.31366
21
1.25075
0
LINE
8
BLACK
6
CONTINUOUS
10
2.31366
20
1.25075
11
2.31366
21
1.46925
0
LINE
8
BLACK
6
CONTINUOUS
10
2.31366
20
1.46925
11
1.83925
21
1.46925
0
LINE
8
BLACK
6
CONTINUOUS
10
4.50234
20
3.81247
11
4.50205
21
3.81317
0
LINE
8
BLACK
6
CONTINUOUS
10
4.50205
20
3.81317
11
4.50205
21
3.87065
0
LINE
8
BLACK
6
CONTINUOUS
10
4.50205
20
3.87065
11
4.50234
21
3.87134
0
LINE
8
BLACK
6
CONTINUOUS
10
4.50234
20
3.87134
11
4.50303
21
3.87163
0
LINE
8
BLACK
6
CONTINUOUS
10
4.50303
20
3.87163
11
4.61957
21
3.87163
0
LINE
8
BLACK
6
CONTINUOUS
10
4.61957
20
3.87163
11
4.62026
21
3.87134
0
LINE
8
BLACK
6
CONTINUOUS
10
4.62026
20
3.87134
11
4.62055
21
3.87065
0
LINE
8
BLACK
6
CONTINUOUS
10
4.62055
20
3.87065
11
4.62055
21
3.81317
0
LINE
8
BLACK
6
CONTINUOUS
10
4.62055
20
3.81317
11
4.62026
21
3.81247
0
LINE
8
BLACK
6
CONTINUOUS
10
4.62026
20
3.81247
11
4.61957
21
3.81218
0
LINE
8
BLACK
6
CONTINUOUS
10
4.61957
20
3.81218
11
4.50303
21
3.81218
0
LINE
8
BLACK
6
CONTINUOUS
10
4.50303
20
3.81218
11
4.50234
21
3.81247
0
LINE
8
BLACK
6
CONTINUOUS
10
4.50402
20
3.86966
11
4.50402
21
3.81415
0
LINE
8
BLACK
6
CONTINUOUS
10
4.50402
20
3.81415
11
4.61858
21
3.81415
0
LINE
8
BLACK
6
CONTINUOUS
10
4.61858
20
3.81415
11
4.61858
21
3.86966
0
LINE
8
BLACK
6
CONTINUOUS
10
4.61858
20
3.86966
11
4.50402
21
3.86966
0
LINE
8
BLACK
6
CONTINUOUS
10
4.89634
20
4.82209
11
4.89606
21
4.82279
0
LINE
8
BLACK
6
CONTINUOUS
10
4.89606
20
4.82279
11
4.89606
21
4.92121
0
LINE
8
BLACK
6
CONTINUOUS
10
4.89606
20
4.92121
11
4.89634
21
4.92191
0
LINE
8
BLACK
6
CONTINUOUS
10
4.89634
20
4.92191
11
4.89704
21
4.9222
0
LINE
8
BLACK
6
CONTINUOUS
10
4.89704
20
4.9222
11
5.02696
21
4.9222
0
LINE
8
BLACK
6
CONTINUOUS
10
5.02696
20
4.9222
11
5.02766
21
4.92191
0
LINE
8
BLACK
6
CONTINUOUS
10
5.02766
20
4.92191
11
5.02794
21
4.92121
0
LINE
8
BLACK
6
CONTINUOUS
10
5.02794
20
4.92121
11
5.02794
21
4.82279
0
LINE
8
BLACK
6
CONTINUOUS
10
5.02794
20
4.82279
11
5.02766
21
4.82209
0
LINE
8
BLACK
6
CONTINUOUS
10
5.02766
20
4.82209
11
5.02696
21
4.8218
0
LINE
8
BLACK
6
CONTINUOUS
10
5.02696
20
4.8218
11
4.89704
21
4.8218
0
LINE
8
BLACK
6
CONTINUOUS
10
4.89704
20
4.8218
11
4.89634
21
4.82209
0
LINE
8
BLACK
6
CONTINUOUS
10
4.89802
20
4.92023
11
4.89802
21
4.82377
0
LINE
8
BLACK
6
CONTINUOUS
10
4.89802
20
4.82377
11
5.02598
21
4.82377
0
LINE
8
BLACK
6
CONTINUOUS
10
5.02598
20
4.82377
11
5.02598
21
4.92023
0
LINE
8
BLACK
6
CONTINUOUS
10
5.02598
20
4.92023
11
4.89802
21
4.92023
0
LINE
8
BLACK
6
CONTINUOUS
10
4.50234
20
4.9168
11
4.50205
21
4.9175
0
LINE
8
BLACK
6
CONTINUOUS
10
4.50205
20
4.9175
11
4.50205
21
4.97498
0
LINE
8
BLACK
6
CONTINUOUS
10
4.50205
20
4.97498
11
4.50234
21
4.97567
0
LINE
8
BLACK
6
CONTINUOUS
10
4.50234
20
4.97567
11
4.50303
21
4.97596
0
LINE
8
BLACK
6
CONTINUOUS
10
4.50303
20
4.97596
11
4.61957
21
4.97596
0
LINE
8
BLACK
6
CONTINUOUS
10
4.61957
20
4.97596
11
4.62026
21
4.97567
0
LINE
8
BLACK
6
CONTINUOUS
10
4.62026
20
4.97567
11
4.62055
21
4.97498
0
LINE
8
BLACK
6
CONTINUOUS
10
4.62055
20
4.97498
11
4.62055
21
4.9175
0
LINE
8
BLACK
6
CONTINUOUS
10
4.62055
20
4.9175
11
4.62026
21
4.9168
0
LINE
8
BLACK
6
CONTINUOUS
10
4.62026
20
4.9168
11
4.61957
21
4.91651
0
LINE
8
BLACK
6
CONTINUOUS
10
4.61957
20
4.91651
11
4.50303
21
4.91651
0
LINE
8
BLACK
6
CONTINUOUS
10
4.50303
20
4.91651
11
4.50234
21
4.9168
0
LINE
8
BLACK
6
CONTINUOUS
10
4.50402
20
4.97399
11
4.50402
21
4.91848
0
LINE
8
BLACK
6
CONTINUOUS
10
4.50402
20
4.91848
11
4.61858
21
4.91848
0
LINE
8
BLACK
6
CONTINUOUS
10
4.61858
20
4.91848
11
4.61858
21
4.97399
0
LINE
8
BLACK
6
CONTINUOUS
10
4.61858
20
4.97399
11
4.50402
21
4.97399
0
LINE
8
BLACK
6
CONTINUOUS
10
4.66021
20
5.01562
11
4.65992
21
5.01631
0
LINE
8
BLACK
6
CONTINUOUS
10
4.65992
20
5.01631
11
4.65992
21
5.0738
0
LINE
8
BLACK
6
CONTINUOUS
10
4.65992
20
5.0738
11
4.66021
21
5.07449
0
LINE
8
BLACK
6
CONTINUOUS
10
4.66021
20
5.07449
11
4.66091
21
5.07478
0
LINE
8
BLACK
6
CONTINUOUS
10
4.66091
20
5.07478
11
4.77744
21
5.07478
0
LINE
8
BLACK
6
CONTINUOUS
10
4.77744
20
5.07478
11
4.77814
21
5.07449
0
LINE
8
BLACK
6
CONTINUOUS
10
4.77814
20
5.07449
11
4.77843
21
5.0738
0
LINE
8
BLACK
6
CONTINUOUS
10
4.77843
20
5.0738
11
4.77843
21
5.01631
0
LINE
8
BLACK
6
CONTINUOUS
10
4.77843
20
5.01631
11
4.77814
21
5.01562
0
LINE
8
BLACK
6
CONTINUOUS
10
4.77814
20
5.01562
11
4.77744
21
5.01533
0
LINE
8
BLACK
6
CONTINUOUS
10
4.77744
20
5.01533
11
4.66091
21
5.01533
0
LINE
8
BLACK
6
CONTINUOUS
10
4.66091
20
5.01533
11
4.66021
21
5.01562
0
LINE
8
BLACK
6
CONTINUOUS
10
4.66189
20
5.07281
11
4.66189
21
5.0173
0
LINE
8
BLACK
6
CONTINUOUS
10
4.66189
20
5.0173
11
4.77646
21
5.0173
0
LINE
8
BLACK
6
CONTINUOUS
10
4.77646
20
5.0173
11
4.77646
21
5.07281
0
LINE
8
BLACK
6
CONTINUOUS
10
4.77646
20
5.07281
11
4.66189
21
5.07281
0
LINE
8
BLACK
6
CONTINUOUS
10
4.50234
20
5.01562
11
4.50205
21
5.01631
0
LINE
8
BLACK
6
CONTINUOUS
10
4.50205
20
5.01631
11
4.50205
21
5.0738
0
LINE
8
BLACK
6
CONTINUOUS
10
4.50205
20
5.0738
11
4.50234
21
5.07449
0
LINE
8
BLACK
6
CONTINUOUS
10
4.50234
20
5.07449
11
4.50303
21
5.07478
0
LINE
8
BLACK
6
CONTINUOUS
10
4.50303
20
5.07478
11
4.61957
21
5.07478
0
LINE
8
BLACK
6
CONTINUOUS
10
4.61957
20
5.07478
11
4.62026
21
5.07449
0
LINE
8
BLACK
6
CONTINUOUS
10
4.62026
20
5.07449
11
4.62055
21
5.0738
0
LINE
8
BLACK
6
CONTINUOUS
10
4.62055
20
5.0738
11
4.62055
21
5.01631
0
LINE
8
BLACK
6
CONTINUOUS
10
4.62055
20
5.01631
11
4.62026
21
5.01562
0
LINE
8
BLACK
6
CONTINUOUS
10
4.62026
20
5.01562
11
4.61957
21
5.01533
0
LINE
8
BLACK
6
CONTINUOUS
10
4.61957
20
5.01533
11
4.50303
21
5.01533
0
LINE
8
BLACK
6
CONTINUOUS
10
4.50303
20
5.01533
11
4.50234
21
5.01562
0
LINE
8
BLACK
6
CONTINUOUS
10
4.50402
20
5.07281
11
4.50402
21
5.0173
0
LINE
8
BLACK
6
CONTINUOUS
10
4.50402
20
5.0173
11
4.61858
21
5.0173
0
LINE
8
BLACK
6
CONTINUOUS
10
4.61858
20
5.0173
11
4.61858
21
5.07281
0
LINE
8
BLACK
6
CONTINUOUS
10
4.61858
20
5.07281
11
4.50402
21
5.07281
0
LINE
8
BLACK
6
CONTINUOUS
10
4.90312
20
5.17271
11
4.90283
21
5.1734
0
LINE
8
BLACK
6
CONTINUOUS
10
4.90283
20
5.1734
11
4.90283
21
5.23088
0
LINE
8
BLACK
6
CONTINUOUS
10
4.90283
20
5.23088
11
4.90312
21
5.23158
0
LINE
8
BLACK
6
CONTINUOUS
10
4.90312
20
5.23158
11
4.90382
21
5.23187
0
LINE
8
BLACK
6
CONTINUOUS
10
4.90382
20
5.23187
11
5.02035
21
5.23187
0
LINE
8
BLACK
6
CONTINUOUS
10
5.02035
20
5.23187
11
5.02105
21
5.23158
0
LINE
8
BLACK
6
CONTINUOUS
10
5.02105
20
5.23158
11
5.02134
21
5.23088
0
LINE
8
BLACK
6
CONTINUOUS
10
5.02134
20
5.23088
11
5.02134
21
5.1734
0
LINE
8
BLACK
6
CONTINUOUS
10
5.02134
20
5.1734
11
5.02105
21
5.17271
0
LINE
8
BLACK
6
CONTINUOUS
10
5.02105
20
5.17271
11
5.02035
21
5.17242
0
LINE
8
BLACK
6
CONTINUOUS
10
5.02035
20
5.17242
11
4.90382
21
5.17242
0
LINE
8
BLACK
6
CONTINUOUS
10
4.90382
20
5.17242
11
4.90312
21
5.17271
0
LINE
8
BLACK
6
CONTINUOUS
10
4.9048
20
5.2299
11
4.9048
21
5.17439
0
LINE
8
BLACK
6
CONTINUOUS
10
4.9048
20
5.17439
11
5.01937
21
5.17439
0
LINE
8
BLACK
6
CONTINUOUS
10
5.01937
20
5.17439
11
5.01937
21
5.2299
0
LINE
8
BLACK
6
CONTINUOUS
10
5.01937
20
5.2299
11
4.9048
21
5.2299
0
LINE
8
BLACK
6
CONTINUOUS
10
4.74525
20
5.17271
11
4.74496
21
5.1734
0
LINE
8
BLACK
6
CONTINUOUS
10
4.74496
20
5.1734
11
4.74496
21
5.23088
0
LINE
8
BLACK
6
CONTINUOUS
10
4.74496
20
5.23088
11
4.74525
21
5.23158
0
LINE
8
BLACK
6
CONTINUOUS
10
4.74525
20
5.23158
11
4.74594
21
5.23187
0
LINE
8
BLACK
6
CONTINUOUS
10
4.74594
20
5.23187
11
4.86248
21
5.23187
0
LINE
8
BLACK
6
CONTINUOUS
10
4.86248
20
5.23187
11
4.86318
21
5.23158
0
LINE
8
BLACK
6
CONTINUOUS
10
4.86318
20
5.23158
11
4.86346
21
5.23088
0
LINE
8
BLACK
6
CONTINUOUS
10
4.86346
20
5.23088
11
4.86346
21
5.1734
0
LINE
8
BLACK
6
CONTINUOUS
10
4.86346
20
5.1734
11
4.86318
21
5.17271
0
LINE
8
BLACK
6
CONTINUOUS
10
4.86318
20
5.17271
11
4.86248
21
5.17242
0
LINE
8
BLACK
6
CONTINUOUS
10
4.86248
20
5.17242
11
4.74594
21
5.17242
0
LINE
8
BLACK
6
CONTINUOUS
10
4.74594
20
5.17242
11
4.74525
21
5.17271
0
LINE
8
BLACK
6
CONTINUOUS
10
4.74693
20
5.2299
11
4.74693
21
5.17439
0
LINE
8
BLACK
6
CONTINUOUS
10
4.74693
20
5.17439
11
4.8615
21
5.17439
0
LINE
8
BLACK
6
CONTINUOUS
10
4.8615
20
5.17439
11
4.8615
21
5.2299
0
LINE
8
BLACK
6
CONTINUOUS
10
4.8615
20
5.2299
11
4.74693
21
5.2299
0
LINE
8
BLACK
6
CONTINUOUS
10
4.98816
20
5.32979
11
4.98787
21
5.33049
0
LINE
8
BLACK
6
CONTINUOUS
10
4.98787
20
5.33049
11
4.98787
21
5.38797
0
LINE
8
BLACK
6
CONTINUOUS
10
4.98787
20
5.38797
11
4.98816
21
5.38866
0
LINE
8
BLACK
6
CONTINUOUS
10
4.98816
20
5.38866
11
4.98886
21
5.38895
0
LINE
8
BLACK
6
CONTINUOUS
10
4.98886
20
5.38895
11
5.10539
21
5.38895
0
LINE
8
BLACK
6
CONTINUOUS
10
5.10539
20
5.38895
11
5.10609
21
5.38866
0
LINE
8
BLACK
6
CONTINUOUS
10
5.10609
20
5.38866
11
5.10638
21
5.38797
0
LINE
8
BLACK
6
CONTINUOUS
10
5.10638
20
5.38797
11
5.10638
21
5.33049
0
LINE
8
BLACK
6
CONTINUOUS
10
5.10638
20
5.33049
11
5.10609
21
5.32979
0
LINE
8
BLACK
6
CONTINUOUS
10
5.10609
20
5.32979
11
5.10539
21
5.3295
0
LINE
8
BLACK
6
CONTINUOUS
10
5.10539
20
5.3295
11
4.98886
21
5.3295
0
LINE
8
BLACK
6
CONTINUOUS
10
4.98886
20
5.3295
11
4.98816
21
5.32979
0
LINE
8
BLACK
6
CONTINUOUS
10
4.98984
20
5.38698
11
4.98984
21
5.33147
0
LINE
8
BLACK
6
CONTINUOUS
10
4.98984
20
5.33147
11
5.10441
21
5.33147
0
LINE
8
BLACK
6
CONTINUOUS
10
5.10441
20
5.33147
11
5.10441
21
5.38698
0
LINE
8
BLACK
6
CONTINUOUS
10
5.10441
20
5.38698
11
4.98984
21
5.38698
  0
ENDSEC
  0
EOF
