  0
SECTION
  2
HEADER
  9
$ANGBASE
  50
0.0
  9
$ANGDIR
  70
1
  9
$MEASUREMENT
  70
0
  0
ENDSEC
  0
SECTION
  2
TABLES
  0
TABLE
  2
LTYPE
  70
4
  0
LTYPE
  5
40F
  2
CONTINUOUS
  70
0
  3
Solid line
  72
65
  73
0
  40
0.0
  0
LTYPE
  5
410
  2
DASHDOT
 70
0
  3
Dash Dot ____ _ ____ _
 72
65
 73
4
 40
2.0
 49
1.25
 49
-0.25
 49
0.25
 49
-0.25
  0
LTYPE
  5
411
  2
DASHED
 70
0
  3
Dashed __ __ __ __ __
 72
65
 73
2
 40
0.75
 49
0.5
 49
-0.25
  0
LTYPE
  5
43B
  2
DOTTED
 70
0
  3
Dotted .  .  .  .
 72
65
 73
2
 40
0.2
 49
0.0
 49
-0.2
  0
ENDTAB
  0
TABLE
  2
STYLE
  70
4
  0
STYLE
  2
KICAD
  70
0
  40
0
  41
1
  42
1
  50
0
  71
0
  3
isocp.shx
  0
STYLE
  2
KICADB
  70
0
  40
0
  41
1
  42
1
  50
0
  71
0
  3
isocp.shx
  0
STYLE
  2
KICADI
  70
0
  40
0
  41
1
  42
1
  50
15
  71
0
  3
isocp.shx
  0
STYLE
  2
KICADBI
  70
0
  40
0
  41
1
  42
1
  50
15
  71
0
  3
isocp.shx
  0
ENDTAB
  0
TABLE
  2
LAYER
  70
1
  0
LAYER
  2
BLACK
  70
0
  62
7
  6
CONTINUOUS
  0
ENDTAB
  0
ENDSEC
  0
SECTION
  2
ENTITIES
0
LINE
8
BLACK
6
CONTINUOUS
10
3.25962
20
0.0639694
11
3.25933
21
0.0646654
0
LINE
8
BLACK
6
CONTINUOUS
10
3.25933
20
0.0646654
11
3.25933
21
0.46624
0
LINE
8
BLACK
6
CONTINUOUS
10
3.25933
20
0.46624
11
3.25962
21
0.466936
0
LINE
8
BLACK
6
CONTINUOUS
10
3.25962
20
0.466936
11
3.26031
21
0.467224
0
LINE
8
BLACK
6
CONTINUOUS
10
3.26031
20
0.467224
11
3.5922
21
0.467224
0
LINE
8
BLACK
6
CONTINUOUS
10
3.5922
20
0.467224
11
3.5929
21
0.466936
0
LINE
8
BLACK
6
CONTINUOUS
10
3.5929
20
0.466936
11
3.59319
21
0.46624
0
LINE
8
BLACK
6
CONTINUOUS
10
3.59319
20
0.46624
11
3.59319
21
0.0646654
0
LINE
8
BLACK
6
CONTINUOUS
10
3.59319
20
0.0646654
11
3.5929
21
0.0639694
0
LINE
8
BLACK
6
CONTINUOUS
10
3.5929
20
0.0639694
11
3.5922
21
0.0636811
0
LINE
8
BLACK
6
CONTINUOUS
10
3.5922
20
0.0636811
11
3.26031
21
0.0636811
0
LINE
8
BLACK
6
CONTINUOUS
10
3.26031
20
0.0636811
11
3.25962
21
0.0639694
0
LINE
8
BLACK
6
CONTINUOUS
10
3.2613
20
0.465256
11
3.2613
21
0.0656496
0
LINE
8
BLACK
6
CONTINUOUS
10
3.2613
20
0.0656496
11
3.59122
21
0.0656496
0
LINE
8
BLACK
6
CONTINUOUS
10
3.59122
20
0.0656496
11
3.59122
21
0.465256
0
LINE
8
BLACK
6
CONTINUOUS
10
3.59122
20
0.465256
11
3.2613
21
0.465256
0
LINE
8
BLACK
6
CONTINUOUS
10
3.39104
20
0.200564
11
3.39075
21
0.20126
0
LINE
8
BLACK
6
CONTINUOUS
10
3.39075
20
0.20126
11
3.39075
21
0.25874
0
LINE
8
BLACK
6
CONTINUOUS
10
3.39075
20
0.25874
11
3.39104
21
0.259436
0
LINE
8
BLACK
6
CONTINUOUS
10
3.39104
20
0.259436
11
3.39173
21
0.259724
0
LINE
8
BLACK
6
CONTINUOUS
10
3.39173
20
0.259724
11
3.50827
21
0.259724
0
LINE
8
BLACK
6
CONTINUOUS
10
3.50827
20
0.259724
11
3.50896
21
0.259436
0
LINE
8
BLACK
6
CONTINUOUS
10
3.50896
20
0.259436
11
3.50925
21
0.25874
0
LINE
8
BLACK
6
CONTINUOUS
10
3.50925
20
0.25874
11
3.50925
21
0.20126
0
LINE
8
BLACK
6
CONTINUOUS
10
3.50925
20
0.20126
11
3.50896
21
0.200564
0
LINE
8
BLACK
6
CONTINUOUS
10
3.50896
20
0.200564
11
3.50827
21
0.200276
0
LINE
8
BLACK
6
CONTINUOUS
10
3.50827
20
0.200276
11
3.39173
21
0.200276
0
LINE
8
BLACK
6
CONTINUOUS
10
3.39173
20
0.200276
11
3.39104
21
0.200564
0
LINE
8
BLACK
6
CONTINUOUS
10
3.39272
20
0.257756
11
3.39272
21
0.202244
0
LINE
8
BLACK
6
CONTINUOUS
10
3.39272
20
0.202244
11
3.50728
21
0.202244
0
LINE
8
BLACK
6
CONTINUOUS
10
3.50728
20
0.202244
11
3.50728
21
0.257756
0
LINE
8
BLACK
6
CONTINUOUS
10
3.50728
20
0.257756
11
3.39272
21
0.257756
0
LINE
8
BLACK
6
CONTINUOUS
10
3.39104
20
0.280564
11
3.39075
21
0.28126
0
LINE
8
BLACK
6
CONTINUOUS
10
3.39075
20
0.28126
11
3.39075
21
0.33874
0
LINE
8
BLACK
6
CONTINUOUS
10
3.39075
20
0.33874
11
3.39104
21
0.339436
0
LINE
8
BLACK
6
CONTINUOUS
10
3.39104
20
0.339436
11
3.39173
21
0.339724
0
LINE
8
BLACK
6
CONTINUOUS
10
3.39173
20
0.339724
11
3.50827
21
0.339724
0
LINE
8
BLACK
6
CONTINUOUS
10
3.50827
20
0.339724
11
3.50896
21
0.339436
0
LINE
8
BLACK
6
CONTINUOUS
10
3.50896
20
0.339436
11
3.50925
21
0.33874
0
LINE
8
BLACK
6
CONTINUOUS
10
3.50925
20
0.33874
11
3.50925
21
0.28126
0
LINE
8
BLACK
6
CONTINUOUS
10
3.50925
20
0.28126
11
3.50896
21
0.280564
0
LINE
8
BLACK
6
CONTINUOUS
10
3.50896
20
0.280564
11
3.50827
21
0.280276
0
LINE
8
BLACK
6
CONTINUOUS
10
3.50827
20
0.280276
11
3.39173
21
0.280276
0
LINE
8
BLACK
6
CONTINUOUS
10
3.39173
20
0.280276
11
3.39104
21
0.280564
0
LINE
8
BLACK
6
CONTINUOUS
10
3.39272
20
0.337756
11
3.39272
21
0.282244
0
LINE
8
BLACK
6
CONTINUOUS
10
3.39272
20
0.282244
11
3.50728
21
0.282244
0
LINE
8
BLACK
6
CONTINUOUS
10
3.50728
20
0.282244
11
3.50728
21
0.337756
0
LINE
8
BLACK
6
CONTINUOUS
10
3.50728
20
0.337756
11
3.39272
21
0.337756
0
LINE
8
BLACK
6
CONTINUOUS
10
2.19371
20
0.112375
11
2.19343
21
0.113071
0
LINE
8
BLACK
6
CONTINUOUS
10
2.19343
20
0.113071
11
2.19343
21
0.246929
0
LINE
8
BLACK
6
CONTINUOUS
10
2.19343
20
0.246929
11
2.19371
21
0.247625
0
LINE
8
BLACK
6
CONTINUOUS
10
2.19371
20
0.247625
11
2.19441
21
0.247913
0
LINE
8
BLACK
6
CONTINUOUS
10
2.19441
20
0.247913
11
2.34559
21
0.247913
0
LINE
8
BLACK
6
CONTINUOUS
10
2.34559
20
0.247913
11
2.34629
21
0.247625
0
LINE
8
BLACK
6
CONTINUOUS
10
2.34629
20
0.247625
11
2.34657
21
0.246929
0
LINE
8
BLACK
6
CONTINUOUS
10
2.34657
20
0.246929
11
2.34657
21
0.113071
0
LINE
8
BLACK
6
CONTINUOUS
10
2.34657
20
0.113071
11
2.34629
21
0.112375
0
LINE
8
BLACK
6
CONTINUOUS
10
2.34629
20
0.112375
11
2.34559
21
0.112087
0
LINE
8
BLACK
6
CONTINUOUS
10
2.34559
20
0.112087
11
2.19441
21
0.112087
0
LINE
8
BLACK
6
CONTINUOUS
10
2.19441
20
0.112087
11
2.19371
21
0.112375
0
LINE
8
BLACK
6
CONTINUOUS
10
2.19539
20
0.245945
11
2.19539
21
0.114055
0
LINE
8
BLACK
6
CONTINUOUS
10
2.19539
20
0.114055
11
2.34461
21
0.114055
0
LINE
8
BLACK
6
CONTINUOUS
10
2.34461
20
0.114055
11
2.34461
21
0.245945
0
LINE
8
BLACK
6
CONTINUOUS
10
2.34461
20
0.245945
11
2.19539
21
0.245945
0
LINE
8
BLACK
6
CONTINUOUS
10
1.80371
20
0.112375
11
1.80343
21
0.113071
0
LINE
8
BLACK
6
CONTINUOUS
10
1.80343
20
0.113071
11
1.80343
21
0.246929
0
LINE
8
BLACK
6
CONTINUOUS
10
1.80343
20
0.246929
11
1.80371
21
0.247625
0
LINE
8
BLACK
6
CONTINUOUS
10
1.80371
20
0.247625
11
1.80441
21
0.247913
0
LINE
8
BLACK
6
CONTINUOUS
10
1.80441
20
0.247913
11
1.95559
21
0.247913
0
LINE
8
BLACK
6
CONTINUOUS
10
1.95559
20
0.247913
11
1.95629
21
0.247625
0
LINE
8
BLACK
6
CONTINUOUS
10
1.95629
20
0.247625
11
1.95657
21
0.246929
0
LINE
8
BLACK
6
CONTINUOUS
10
1.95657
20
0.246929
11
1.95657
21
0.113071
0
LINE
8
BLACK
6
CONTINUOUS
10
1.95657
20
0.113071
11
1.95629
21
0.112375
0
LINE
8
BLACK
6
CONTINUOUS
10
1.95629
20
0.112375
11
1.95559
21
0.112087
0
LINE
8
BLACK
6
CONTINUOUS
10
1.95559
20
0.112087
11
1.80441
21
0.112087
0
LINE
8
BLACK
6
CONTINUOUS
10
1.80441
20
0.112087
11
1.80371
21
0.112375
0
LINE
8
BLACK
6
CONTINUOUS
10
1.80539
20
0.245945
11
1.80539
21
0.114055
0
LINE
8
BLACK
6
CONTINUOUS
10
1.80539
20
0.114055
11
1.95461
21
0.114055
0
LINE
8
BLACK
6
CONTINUOUS
10
1.95461
20
0.114055
11
1.95461
21
0.245945
0
LINE
8
BLACK
6
CONTINUOUS
10
1.95461
20
0.245945
11
1.80539
21
0.245945
0
LINE
8
BLACK
6
CONTINUOUS
10
2.00371
20
0.112375
11
2.00343
21
0.113071
0
LINE
8
BLACK
6
CONTINUOUS
10
2.00343
20
0.113071
11
2.00343
21
0.246929
0
LINE
8
BLACK
6
CONTINUOUS
10
2.00343
20
0.246929
11
2.00371
21
0.247625
0
LINE
8
BLACK
6
CONTINUOUS
10
2.00371
20
0.247625
11
2.00441
21
0.247913
0
LINE
8
BLACK
6
CONTINUOUS
10
2.00441
20
0.247913
11
2.15559
21
0.247913
0
LINE
8
BLACK
6
CONTINUOUS
10
2.15559
20
0.247913
11
2.15629
21
0.247625
0
LINE
8
BLACK
6
CONTINUOUS
10
2.15629
20
0.247625
11
2.15657
21
0.246929
0
LINE
8
BLACK
6
CONTINUOUS
10
2.15657
20
0.246929
11
2.15657
21
0.113071
0
LINE
8
BLACK
6
CONTINUOUS
10
2.15657
20
0.113071
11
2.15629
21
0.112375
0
LINE
8
BLACK
6
CONTINUOUS
10
2.15629
20
0.112375
11
2.15559
21
0.112087
0
LINE
8
BLACK
6
CONTINUOUS
10
2.15559
20
0.112087
11
2.00441
21
0.112087
0
LINE
8
BLACK
6
CONTINUOUS
10
2.00441
20
0.112087
11
2.00371
21
0.112375
0
LINE
8
BLACK
6
CONTINUOUS
10
2.00539
20
0.245945
11
2.00539
21
0.114055
0
LINE
8
BLACK
6
CONTINUOUS
10
2.00539
20
0.114055
11
2.15461
21
0.114055
0
LINE
8
BLACK
6
CONTINUOUS
10
2.15461
20
0.114055
11
2.15461
21
0.245945
0
LINE
8
BLACK
6
CONTINUOUS
10
2.15461
20
0.245945
11
2.00539
21
0.245945
0
LINE
8
BLACK
6
CONTINUOUS
10
2.22056
20
0.261036
11
2.22028
21
0.261732
0
LINE
8
BLACK
6
CONTINUOUS
10
2.22028
20
0.261732
11
2.22028
21
0.378268
0
LINE
8
BLACK
6
CONTINUOUS
10
2.22028
20
0.378268
11
2.22056
21
0.378964
0
LINE
8
BLACK
6
CONTINUOUS
10
2.22056
20
0.378964
11
2.22126
21
0.379252
0
LINE
8
BLACK
6
CONTINUOUS
10
2.22126
20
0.379252
11
2.27874
21
0.379252
0
LINE
8
BLACK
6
CONTINUOUS
10
2.27874
20
0.379252
11
2.27944
21
0.378964
0
LINE
8
BLACK
6
CONTINUOUS
10
2.27944
20
0.378964
11
2.27972
21
0.378268
0
LINE
8
BLACK
6
CONTINUOUS
10
2.27972
20
0.378268
11
2.27972
21
0.261732
0
LINE
8
BLACK
6
CONTINUOUS
10
2.27972
20
0.261732
11
2.27944
21
0.261036
0
LINE
8
BLACK
6
CONTINUOUS
10
2.27944
20
0.261036
11
2.27874
21
0.260748
0
LINE
8
BLACK
6
CONTINUOUS
10
2.27874
20
0.260748
11
2.22126
21
0.260748
0
LINE
8
BLACK
6
CONTINUOUS
10
2.22126
20
0.260748
11
2.22056
21
0.261036
0
LINE
8
BLACK
6
CONTINUOUS
10
2.22224
20
0.377283
11
2.22224
21
0.262717
0
LINE
8
BLACK
6
CONTINUOUS
10
2.22224
20
0.262717
11
2.27776
21
0.262717
0
LINE
8
BLACK
6
CONTINUOUS
10
2.27776
20
0.262717
11
2.27776
21
0.377283
0
LINE
8
BLACK
6
CONTINUOUS
10
2.27776
20
0.377283
11
2.22224
21
0.377283
0
LINE
8
BLACK
6
CONTINUOUS
10
2.02056
20
0.261036
11
2.02028
21
0.261732
0
LINE
8
BLACK
6
CONTINUOUS
10
2.02028
20
0.261732
11
2.02028
21
0.378268
0
LINE
8
BLACK
6
CONTINUOUS
10
2.02028
20
0.378268
11
2.02056
21
0.378964
0
LINE
8
BLACK
6
CONTINUOUS
10
2.02056
20
0.378964
11
2.02126
21
0.379252
0
LINE
8
BLACK
6
CONTINUOUS
10
2.02126
20
0.379252
11
2.07874
21
0.379252
0
LINE
8
BLACK
6
CONTINUOUS
10
2.07874
20
0.379252
11
2.07944
21
0.378964
0
LINE
8
BLACK
6
CONTINUOUS
10
2.07944
20
0.378964
11
2.07972
21
0.378268
0
LINE
8
BLACK
6
CONTINUOUS
10
2.07972
20
0.378268
11
2.07972
21
0.261732
0
LINE
8
BLACK
6
CONTINUOUS
10
2.07972
20
0.261732
11
2.07944
21
0.261036
0
LINE
8
BLACK
6
CONTINUOUS
10
2.07944
20
0.261036
11
2.07874
21
0.260748
0
LINE
8
BLACK
6
CONTINUOUS
10
2.07874
20
0.260748
11
2.02126
21
0.260748
0
LINE
8
BLACK
6
CONTINUOUS
10
2.02126
20
0.260748
11
2.02056
21
0.261036
0
LINE
8
BLACK
6
CONTINUOUS
10
2.02224
20
0.377283
11
2.02224
21
0.262717
0
LINE
8
BLACK
6
CONTINUOUS
10
2.02224
20
0.262717
11
2.07776
21
0.262717
0
LINE
8
BLACK
6
CONTINUOUS
10
2.07776
20
0.262717
11
2.07776
21
0.377283
0
LINE
8
BLACK
6
CONTINUOUS
10
2.07776
20
0.377283
11
2.02224
21
0.377283
0
LINE
8
BLACK
6
CONTINUOUS
10
1.82056
20
0.261036
11
1.82028
21
0.261732
0
LINE
8
BLACK
6
CONTINUOUS
10
1.82028
20
0.261732
11
1.82028
21
0.378268
0
LINE
8
BLACK
6
CONTINUOUS
10
1.82028
20
0.378268
11
1.82056
21
0.378964
0
LINE
8
BLACK
6
CONTINUOUS
10
1.82056
20
0.378964
11
1.82126
21
0.379252
0
LINE
8
BLACK
6
CONTINUOUS
10
1.82126
20
0.379252
11
1.87874
21
0.379252
0
LINE
8
BLACK
6
CONTINUOUS
10
1.87874
20
0.379252
11
1.87944
21
0.378964
0
LINE
8
BLACK
6
CONTINUOUS
10
1.87944
20
0.378964
11
1.87972
21
0.378268
0
LINE
8
BLACK
6
CONTINUOUS
10
1.87972
20
0.378268
11
1.87972
21
0.261732
0
LINE
8
BLACK
6
CONTINUOUS
10
1.87972
20
0.261732
11
1.87944
21
0.261036
0
LINE
8
BLACK
6
CONTINUOUS
10
1.87944
20
0.261036
11
1.87874
21
0.260748
0
LINE
8
BLACK
6
CONTINUOUS
10
1.87874
20
0.260748
11
1.82126
21
0.260748
0
LINE
8
BLACK
6
CONTINUOUS
10
1.82126
20
0.260748
11
1.82056
21
0.261036
0
LINE
8
BLACK
6
CONTINUOUS
10
1.82224
20
0.377283
11
1.82224
21
0.262717
0
LINE
8
BLACK
6
CONTINUOUS
10
1.82224
20
0.262717
11
1.87776
21
0.262717
0
LINE
8
BLACK
6
CONTINUOUS
10
1.87776
20
0.262717
11
1.87776
21
0.377283
0
LINE
8
BLACK
6
CONTINUOUS
10
1.87776
20
0.377283
11
1.82224
21
0.377283
0
LINE
8
BLACK
6
CONTINUOUS
10
1.92056
20
0.301036
11
1.92028
21
0.301732
0
LINE
8
BLACK
6
CONTINUOUS
10
1.92028
20
0.301732
11
1.92028
21
0.418268
0
LINE
8
BLACK
6
CONTINUOUS
10
1.92028
20
0.418268
11
1.92056
21
0.418964
0
LINE
8
BLACK
6
CONTINUOUS
10
1.92056
20
0.418964
11
1.92126
21
0.419252
0
LINE
8
BLACK
6
CONTINUOUS
10
1.92126
20
0.419252
11
1.97874
21
0.419252
0
LINE
8
BLACK
6
CONTINUOUS
10
1.97874
20
0.419252
11
1.97944
21
0.418964
0
LINE
8
BLACK
6
CONTINUOUS
10
1.97944
20
0.418964
11
1.97972
21
0.418268
0
LINE
8
BLACK
6
CONTINUOUS
10
1.97972
20
0.418268
11
1.97972
21
0.301732
0
LINE
8
BLACK
6
CONTINUOUS
10
1.97972
20
0.301732
11
1.97944
21
0.301036
0
LINE
8
BLACK
6
CONTINUOUS
10
1.97944
20
0.301036
11
1.97874
21
0.300748
0
LINE
8
BLACK
6
CONTINUOUS
10
1.97874
20
0.300748
11
1.92126
21
0.300748
0
LINE
8
BLACK
6
CONTINUOUS
10
1.92126
20
0.300748
11
1.92056
21
0.301036
0
LINE
8
BLACK
6
CONTINUOUS
10
1.92224
20
0.417283
11
1.92224
21
0.302717
0
LINE
8
BLACK
6
CONTINUOUS
10
1.92224
20
0.302717
11
1.97776
21
0.302717
0
LINE
8
BLACK
6
CONTINUOUS
10
1.97776
20
0.302717
11
1.97776
21
0.417283
0
LINE
8
BLACK
6
CONTINUOUS
10
1.97776
20
0.417283
11
1.92224
21
0.417283
0
LINE
8
BLACK
6
CONTINUOUS
10
2.12056
20
0.301036
11
2.12028
21
0.301732
0
LINE
8
BLACK
6
CONTINUOUS
10
2.12028
20
0.301732
11
2.12028
21
0.418268
0
LINE
8
BLACK
6
CONTINUOUS
10
2.12028
20
0.418268
11
2.12056
21
0.418964
0
LINE
8
BLACK
6
CONTINUOUS
10
2.12056
20
0.418964
11
2.12126
21
0.419252
0
LINE
8
BLACK
6
CONTINUOUS
10
2.12126
20
0.419252
11
2.17874
21
0.419252
0
LINE
8
BLACK
6
CONTINUOUS
10
2.17874
20
0.419252
11
2.17944
21
0.418964
0
LINE
8
BLACK
6
CONTINUOUS
10
2.17944
20
0.418964
11
2.17972
21
0.418268
0
LINE
8
BLACK
6
CONTINUOUS
10
2.17972
20
0.418268
11
2.17972
21
0.301732
0
LINE
8
BLACK
6
CONTINUOUS
10
2.17972
20
0.301732
11
2.17944
21
0.301036
0
LINE
8
BLACK
6
CONTINUOUS
10
2.17944
20
0.301036
11
2.17874
21
0.300748
0
LINE
8
BLACK
6
CONTINUOUS
10
2.17874
20
0.300748
11
2.12126
21
0.300748
0
LINE
8
BLACK
6
CONTINUOUS
10
2.12126
20
0.300748
11
2.12056
21
0.301036
0
LINE
8
BLACK
6
CONTINUOUS
10
2.12224
20
0.417283
11
2.12224
21
0.302717
0
LINE
8
BLACK
6
CONTINUOUS
10
2.12224
20
0.302717
11
2.17776
21
0.302717
0
LINE
8
BLACK
6
CONTINUOUS
10
2.17776
20
0.302717
11
2.17776
21
0.417283
0
LINE
8
BLACK
6
CONTINUOUS
10
2.17776
20
0.417283
11
2.12224
21
0.417283
0
LINE
8
BLACK
6
CONTINUOUS
10
2.31056
20
0.301036
11
2.31028
21
0.301732
0
LINE
8
BLACK
6
CONTINUOUS
10
2.31028
20
0.301732
11
2.31028
21
0.418268
0
LINE
8
BLACK
6
CONTINUOUS
10
2.31028
20
0.418268
11
2.31056
21
0.418964
0
LINE
8
BLACK
6
CONTINUOUS
10
2.31056
20
0.418964
11
2.31126
21
0.419252
0
LINE
8
BLACK
6
CONTINUOUS
10
2.31126
20
0.419252
11
2.36874
21
0.419252
0
LINE
8
BLACK
6
CONTINUOUS
10
2.36874
20
0.419252
11
2.36944
21
0.418964
0
LINE
8
BLACK
6
CONTINUOUS
10
2.36944
20
0.418964
11
2.36972
21
0.418268
0
LINE
8
BLACK
6
CONTINUOUS
10
2.36972
20
0.418268
11
2.36972
21
0.301732
0
LINE
8
BLACK
6
CONTINUOUS
10
2.36972
20
0.301732
11
2.36944
21
0.301036
0
LINE
8
BLACK
6
CONTINUOUS
10
2.36944
20
0.301036
11
2.36874
21
0.300748
0
LINE
8
BLACK
6
CONTINUOUS
10
2.36874
20
0.300748
11
2.31126
21
0.300748
0
LINE
8
BLACK
6
CONTINUOUS
10
2.31126
20
0.300748
11
2.31056
21
0.301036
0
LINE
8
BLACK
6
CONTINUOUS
10
2.31224
20
0.417283
11
2.31224
21
0.302717
0
LINE
8
BLACK
6
CONTINUOUS
10
2.31224
20
0.302717
11
2.36776
21
0.302717
0
LINE
8
BLACK
6
CONTINUOUS
10
2.36776
20
0.302717
11
2.36776
21
0.417283
0
LINE
8
BLACK
6
CONTINUOUS
10
2.36776
20
0.417283
11
2.31224
21
0.417283
0
LINE
8
BLACK
6
CONTINUOUS
10
2.70056
20
0.321036
11
2.70028
21
0.321732
0
LINE
8
BLACK
6
CONTINUOUS
10
2.70028
20
0.321732
11
2.70028
21
0.438268
0
LINE
8
BLACK
6
CONTINUOUS
10
2.70028
20
0.438268
11
2.70056
21
0.438964
0
LINE
8
BLACK
6
CONTINUOUS
10
2.70056
20
0.438964
11
2.70126
21
0.439252
0
LINE
8
BLACK
6
CONTINUOUS
10
2.70126
20
0.439252
11
2.75874
21
0.439252
0
LINE
8
BLACK
6
CONTINUOUS
10
2.75874
20
0.439252
11
2.75944
21
0.438964
0
LINE
8
BLACK
6
CONTINUOUS
10
2.75944
20
0.438964
11
2.75972
21
0.438268
0
LINE
8
BLACK
6
CONTINUOUS
10
2.75972
20
0.438268
11
2.75972
21
0.321732
0
LINE
8
BLACK
6
CONTINUOUS
10
2.75972
20
0.321732
11
2.75944
21
0.321036
0
LINE
8
BLACK
6
CONTINUOUS
10
2.75944
20
0.321036
11
2.75874
21
0.320748
0
LINE
8
BLACK
6
CONTINUOUS
10
2.75874
20
0.320748
11
2.70126
21
0.320748
0
LINE
8
BLACK
6
CONTINUOUS
10
2.70126
20
0.320748
11
2.70056
21
0.321036
0
LINE
8
BLACK
6
CONTINUOUS
10
2.70224
20
0.437283
11
2.70224
21
0.322717
0
LINE
8
BLACK
6
CONTINUOUS
10
2.70224
20
0.322717
11
2.75776
21
0.322717
0
LINE
8
BLACK
6
CONTINUOUS
10
2.75776
20
0.322717
11
2.75776
21
0.437283
0
LINE
8
BLACK
6
CONTINUOUS
10
2.75776
20
0.437283
11
2.70224
21
0.437283
0
LINE
8
BLACK
6
CONTINUOUS
10
2.50056
20
0.321036
11
2.50028
21
0.321732
0
LINE
8
BLACK
6
CONTINUOUS
10
2.50028
20
0.321732
11
2.50028
21
0.438268
0
LINE
8
BLACK
6
CONTINUOUS
10
2.50028
20
0.438268
11
2.50056
21
0.438964
0
LINE
8
BLACK
6
CONTINUOUS
10
2.50056
20
0.438964
11
2.50126
21
0.439252
0
LINE
8
BLACK
6
CONTINUOUS
10
2.50126
20
0.439252
11
2.55874
21
0.439252
0
LINE
8
BLACK
6
CONTINUOUS
10
2.55874
20
0.439252
11
2.55944
21
0.438964
0
LINE
8
BLACK
6
CONTINUOUS
10
2.55944
20
0.438964
11
2.55972
21
0.438268
0
LINE
8
BLACK
6
CONTINUOUS
10
2.55972
20
0.438268
11
2.55972
21
0.321732
0
LINE
8
BLACK
6
CONTINUOUS
10
2.55972
20
0.321732
11
2.55944
21
0.321036
0
LINE
8
BLACK
6
CONTINUOUS
10
2.55944
20
0.321036
11
2.55874
21
0.320748
0
LINE
8
BLACK
6
CONTINUOUS
10
2.55874
20
0.320748
11
2.50126
21
0.320748
0
LINE
8
BLACK
6
CONTINUOUS
10
2.50126
20
0.320748
11
2.50056
21
0.321036
0
LINE
8
BLACK
6
CONTINUOUS
10
2.50224
20
0.437283
11
2.50224
21
0.322717
0
LINE
8
BLACK
6
CONTINUOUS
10
2.50224
20
0.322717
11
2.55776
21
0.322717
0
LINE
8
BLACK
6
CONTINUOUS
10
2.55776
20
0.322717
11
2.55776
21
0.437283
0
LINE
8
BLACK
6
CONTINUOUS
10
2.55776
20
0.437283
11
2.50224
21
0.437283
0
LINE
8
BLACK
6
CONTINUOUS
10
0.0631623
20
0.343792
11
0.062874
21
0.344488
0
LINE
8
BLACK
6
CONTINUOUS
10
0.062874
20
0.344488
11
0.062874
21
1.65551
0
LINE
8
BLACK
6
CONTINUOUS
10
0.062874
20
1.65551
11
0.0631623
21
1.65621
0
LINE
8
BLACK
6
CONTINUOUS
10
0.0631623
20
1.65621
11
0.0638583
21
1.6565
0
LINE
8
BLACK
6
CONTINUOUS
10
0.0638583
20
1.6565
11
1.37488
21
1.6565
0
LINE
8
BLACK
6
CONTINUOUS
10
1.37488
20
1.6565
11
1.37558
21
1.65621
0
LINE
8
BLACK
6
CONTINUOUS
10
1.37558
20
1.65621
11
1.37587
21
1.65551
0
LINE
8
BLACK
6
CONTINUOUS
10
1.37587
20
1.65551
11
1.37587
21
0.344488
0
LINE
8
BLACK
6
CONTINUOUS
10
1.37587
20
0.344488
11
1.37558
21
0.343792
0
LINE
8
BLACK
6
CONTINUOUS
10
1.37558
20
0.343792
11
1.37488
21
0.343504
0
LINE
8
BLACK
6
CONTINUOUS
10
1.37488
20
0.343504
11
0.0638583
21
0.343504
0
LINE
8
BLACK
6
CONTINUOUS
10
0.0638583
20
0.343504
11
0.0631623
21
0.343792
0
LINE
8
BLACK
6
CONTINUOUS
10
0.0648425
20
1.65453
11
0.0648425
21
0.345472
0
LINE
8
BLACK
6
CONTINUOUS
10
0.0648425
20
0.345472
11
1.3739
21
0.345472
0
LINE
8
BLACK
6
CONTINUOUS
10
1.3739
20
0.345472
11
1.3739
21
1.65453
0
LINE
8
BLACK
6
CONTINUOUS
10
1.3739
20
1.65453
11
0.0648425
21
1.65453
0
LINE
8
BLACK
6
CONTINUOUS
10
1.31681
20
1.59646
11
1.31681
21
0.403543
0
LINE
8
BLACK
6
CONTINUOUS
10
1.31681
20
0.403543
11
1.31652
21
0.402847
0
LINE
8
BLACK
6
CONTINUOUS
10
1.31652
20
0.402847
11
1.31583
21
0.402559
0
LINE
8
BLACK
6
CONTINUOUS
10
1.31583
20
0.402559
11
0.122913
21
0.402559
0
LINE
8
BLACK
6
CONTINUOUS
10
0.122913
20
0.402559
11
0.122217
21
0.402847
0
LINE
8
BLACK
6
CONTINUOUS
10
0.122217
20
0.402847
11
0.121929
21
0.403543
0
LINE
8
BLACK
6
CONTINUOUS
10
0.121929
20
0.403543
11
0.121929
21
1.59646
0
LINE
8
BLACK
6
CONTINUOUS
10
0.121929
20
1.59646
11
0.122217
21
1.59715
0
LINE
8
BLACK
6
CONTINUOUS
10
0.122217
20
1.59715
11
0.122913
21
1.59744
0
LINE
8
BLACK
6
CONTINUOUS
10
0.122913
20
1.59744
11
0.494276
21
1.59744
0
LINE
8
BLACK
6
CONTINUOUS
10
0.494276
20
1.59744
11
0.494276
21
1.60227
0
LINE
8
BLACK
6
CONTINUOUS
10
0.494276
20
1.60227
11
0.494564
21
1.60296
0
LINE
8
BLACK
6
CONTINUOUS
10
0.494564
20
1.60296
11
0.49526
21
1.60325
0
LINE
8
BLACK
6
CONTINUOUS
10
0.49526
20
1.60325
11
0.55274
21
1.60325
0
LINE
8
BLACK
6
CONTINUOUS
10
0.55274
20
1.60325
11
0.553436
21
1.60296
0
LINE
8
BLACK
6
CONTINUOUS
10
0.553436
20
1.60296
11
0.553724
21
1.60227
0
LINE
8
BLACK
6
CONTINUOUS
10
0.553724
20
1.60227
11
0.553724
21
1.59744
0
LINE
8
BLACK
6
CONTINUOUS
10
0.553724
20
1.59744
11
1.31583
21
1.59744
0
LINE
8
BLACK
6
CONTINUOUS
10
1.31583
20
1.59744
11
1.31652
21
1.59715
0
LINE
8
BLACK
6
CONTINUOUS
10
1.31652
20
1.59715
11
1.31681
21
1.59646
0
LINE
8
BLACK
6
CONTINUOUS
10
0.494564
20
1.48504
11
0.494276
21
1.48573
0
LINE
8
BLACK
6
CONTINUOUS
10
0.494276
20
1.48573
11
0.494276
21
1.59547
0
LINE
8
BLACK
6
CONTINUOUS
10
0.494276
20
1.59547
11
0.123898
21
1.59547
0
LINE
8
BLACK
6
CONTINUOUS
10
0.123898
20
1.59547
11
0.123898
21
0.404528
0
LINE
8
BLACK
6
CONTINUOUS
10
0.123898
20
0.404528
11
1.31484
21
0.404528
0
LINE
8
BLACK
6
CONTINUOUS
10
1.31484
20
0.404528
11
1.31484
21
1.59547
0
LINE
8
BLACK
6
CONTINUOUS
10
1.31484
20
1.59547
11
0.553724
21
1.59547
0
LINE
8
BLACK
6
CONTINUOUS
10
0.553724
20
1.59547
11
0.553724
21
1.48573
0
LINE
8
BLACK
6
CONTINUOUS
10
0.553724
20
1.48573
11
0.553436
21
1.48504
0
LINE
8
BLACK
6
CONTINUOUS
10
0.553436
20
1.48504
11
0.55274
21
1.48475
0
LINE
8
BLACK
6
CONTINUOUS
10
0.55274
20
1.48475
11
0.49526
21
1.48475
0
LINE
8
BLACK
6
CONTINUOUS
10
0.49526
20
1.48475
11
0.494564
21
1.48504
0
LINE
8
BLACK
6
CONTINUOUS
10
0.496244
20
1.59547
11
0.496244
21
1.48672
0
LINE
8
BLACK
6
CONTINUOUS
10
0.496244
20
1.48672
11
0.551756
21
1.48672
0
LINE
8
BLACK
6
CONTINUOUS
10
0.551756
20
1.48672
11
0.551756
21
1.59547
0
LINE
8
BLACK
6
CONTINUOUS
10
0.551756
20
1.59547
11
0.496244
21
1.59547
0
LINE
8
BLACK
6
CONTINUOUS
10
0.496244
20
1.60128
11
0.496244
21
1.59744
0
LINE
8
BLACK
6
CONTINUOUS
10
0.496244
20
1.59744
11
0.551756
21
1.59744
0
LINE
8
BLACK
6
CONTINUOUS
10
0.551756
20
1.59744
11
0.551756
21
1.60128
0
LINE
8
BLACK
6
CONTINUOUS
10
0.551756
20
1.60128
11
0.496244
21
1.60128
0
LINE
8
BLACK
6
CONTINUOUS
10
1.23056
20
0.423036
11
1.23028
21
0.423732
0
LINE
8
BLACK
6
CONTINUOUS
10
1.23028
20
0.423732
11
1.23028
21
0.540268
0
LINE
8
BLACK
6
CONTINUOUS
10
1.23028
20
0.540268
11
1.23056
21
0.540964
0
LINE
8
BLACK
6
CONTINUOUS
10
1.23056
20
0.540964
11
1.23126
21
0.541252
0
LINE
8
BLACK
6
CONTINUOUS
10
1.23126
20
0.541252
11
1.28874
21
0.541252
0
LINE
8
BLACK
6
CONTINUOUS
10
1.28874
20
0.541252
11
1.28944
21
0.540964
0
LINE
8
BLACK
6
CONTINUOUS
10
1.28944
20
0.540964
11
1.28972
21
0.540268
0
LINE
8
BLACK
6
CONTINUOUS
10
1.28972
20
0.540268
11
1.28972
21
0.423732
0
LINE
8
BLACK
6
CONTINUOUS
10
1.28972
20
0.423732
11
1.28944
21
0.423036
0
LINE
8
BLACK
6
CONTINUOUS
10
1.28944
20
0.423036
11
1.28874
21
0.422748
0
LINE
8
BLACK
6
CONTINUOUS
10
1.28874
20
0.422748
11
1.23126
21
0.422748
0
LINE
8
BLACK
6
CONTINUOUS
10
1.23126
20
0.422748
11
1.23056
21
0.423036
0
LINE
8
BLACK
6
CONTINUOUS
10
1.23224
20
0.539283
11
1.23224
21
0.424717
0
LINE
8
BLACK
6
CONTINUOUS
10
1.23224
20
0.424717
11
1.28776
21
0.424717
0
LINE
8
BLACK
6
CONTINUOUS
10
1.28776
20
0.424717
11
1.28776
21
0.539283
0
LINE
8
BLACK
6
CONTINUOUS
10
1.28776
20
0.539283
11
1.23224
21
0.539283
0
LINE
8
BLACK
6
CONTINUOUS
10
1.15856
20
0.423036
11
1.15828
21
0.423732
0
LINE
8
BLACK
6
CONTINUOUS
10
1.15828
20
0.423732
11
1.15828
21
0.540268
0
LINE
8
BLACK
6
CONTINUOUS
10
1.15828
20
0.540268
11
1.15856
21
0.540964
0
LINE
8
BLACK
6
CONTINUOUS
10
1.15856
20
0.540964
11
1.15926
21
0.541252
0
LINE
8
BLACK
6
CONTINUOUS
10
1.15926
20
0.541252
11
1.21674
21
0.541252
0
LINE
8
BLACK
6
CONTINUOUS
10
1.21674
20
0.541252
11
1.21744
21
0.540964
0
LINE
8
BLACK
6
CONTINUOUS
10
1.21744
20
0.540964
11
1.21772
21
0.540268
0
LINE
8
BLACK
6
CONTINUOUS
10
1.21772
20
0.540268
11
1.21772
21
0.423732
0
LINE
8
BLACK
6
CONTINUOUS
10
1.21772
20
0.423732
11
1.21744
21
0.423036
0
LINE
8
BLACK
6
CONTINUOUS
10
1.21744
20
0.423036
11
1.21674
21
0.422748
0
LINE
8
BLACK
6
CONTINUOUS
10
1.21674
20
0.422748
11
1.15926
21
0.422748
0
LINE
8
BLACK
6
CONTINUOUS
10
1.15926
20
0.422748
11
1.15856
21
0.423036
0
LINE
8
BLACK
6
CONTINUOUS
10
1.16024
20
0.539283
11
1.16024
21
0.424717
0
LINE
8
BLACK
6
CONTINUOUS
10
1.16024
20
0.424717
11
1.21576
21
0.424717
0
LINE
8
BLACK
6
CONTINUOUS
10
1.21576
20
0.424717
11
1.21576
21
0.539283
0
LINE
8
BLACK
6
CONTINUOUS
10
1.21576
20
0.539283
11
1.16024
21
0.539283
0
LINE
8
BLACK
6
CONTINUOUS
10
0.943036
20
0.464564
11
0.942748
21
0.46526
0
LINE
8
BLACK
6
CONTINUOUS
10
0.942748
20
0.46526
11
0.942748
21
0.52274
0
LINE
8
BLACK
6
CONTINUOUS
10
0.942748
20
0.52274
11
0.943036
21
0.523436
0
LINE
8
BLACK
6
CONTINUOUS
10
0.943036
20
0.523436
11
0.943732
21
0.523724
0
LINE
8
BLACK
6
CONTINUOUS
10
0.943732
20
0.523724
11
1.06027
21
0.523724
0
LINE
8
BLACK
6
CONTINUOUS
10
1.06027
20
0.523724
11
1.06096
21
0.523436
0
LINE
8
BLACK
6
CONTINUOUS
10
1.06096
20
0.523436
11
1.06125
21
0.52274
0
LINE
8
BLACK
6
CONTINUOUS
10
1.06125
20
0.52274
11
1.06125
21
0.46526
0
LINE
8
BLACK
6
CONTINUOUS
10
1.06125
20
0.46526
11
1.06096
21
0.464564
0
LINE
8
BLACK
6
CONTINUOUS
10
1.06096
20
0.464564
11
1.06027
21
0.464276
0
LINE
8
BLACK
6
CONTINUOUS
10
1.06027
20
0.464276
11
0.943732
21
0.464276
0
LINE
8
BLACK
6
CONTINUOUS
10
0.943732
20
0.464276
11
0.943036
21
0.464564
0
LINE
8
BLACK
6
CONTINUOUS
10
0.944717
20
0.521756
11
0.944717
21
0.466244
0
LINE
8
BLACK
6
CONTINUOUS
10
0.944717
20
0.466244
11
1.05928
21
0.466244
0
LINE
8
BLACK
6
CONTINUOUS
10
1.05928
20
0.466244
11
1.05928
21
0.521756
0
LINE
8
BLACK
6
CONTINUOUS
10
1.05928
20
0.521756
11
0.944717
21
0.521756
0
LINE
8
BLACK
6
CONTINUOUS
10
0.779036
20
0.526564
11
0.778748
21
0.52726
0
LINE
8
BLACK
6
CONTINUOUS
10
0.778748
20
0.52726
11
0.778748
21
0.58474
0
LINE
8
BLACK
6
CONTINUOUS
10
0.778748
20
0.58474
11
0.779036
21
0.585436
0
LINE
8
BLACK
6
CONTINUOUS
10
0.779036
20
0.585436
11
0.779732
21
0.585724
0
LINE
8
BLACK
6
CONTINUOUS
10
0.779732
20
0.585724
11
0.896268
21
0.585724
0
LINE
8
BLACK
6
CONTINUOUS
10
0.896268
20
0.585724
11
0.896964
21
0.585436
0
LINE
8
BLACK
6
CONTINUOUS
10
0.896964
20
0.585436
11
0.897252
21
0.58474
0
LINE
8
BLACK
6
CONTINUOUS
10
0.897252
20
0.58474
11
0.897252
21
0.52726
0
LINE
8
BLACK
6
CONTINUOUS
10
0.897252
20
0.52726
11
0.896964
21
0.526564
0
LINE
8
BLACK
6
CONTINUOUS
10
0.896964
20
0.526564
11
0.896268
21
0.526276
0
LINE
8
BLACK
6
CONTINUOUS
10
0.896268
20
0.526276
11
0.779732
21
0.526276
0
LINE
8
BLACK
6
CONTINUOUS
10
0.779732
20
0.526276
11
0.779036
21
0.526564
0
LINE
8
BLACK
6
CONTINUOUS
10
0.780717
20
0.583756
11
0.780717
21
0.528244
0
LINE
8
BLACK
6
CONTINUOUS
10
0.780717
20
0.528244
11
0.895283
21
0.528244
0
LINE
8
BLACK
6
CONTINUOUS
10
0.895283
20
0.528244
11
0.895283
21
0.583756
0
LINE
8
BLACK
6
CONTINUOUS
10
0.895283
20
0.583756
11
0.780717
21
0.583756
0
LINE
8
BLACK
6
CONTINUOUS
10
0.943036
20
0.536564
11
0.942748
21
0.53726
0
LINE
8
BLACK
6
CONTINUOUS
10
0.942748
20
0.53726
11
0.942748
21
0.59474
0
LINE
8
BLACK
6
CONTINUOUS
10
0.942748
20
0.59474
11
0.943036
21
0.595436
0
LINE
8
BLACK
6
CONTINUOUS
10
0.943036
20
0.595436
11
0.943732
21
0.595724
0
LINE
8
BLACK
6
CONTINUOUS
10
0.943732
20
0.595724
11
1.06027
21
0.595724
0
LINE
8
BLACK
6
CONTINUOUS
10
1.06027
20
0.595724
11
1.06096
21
0.595436
0
LINE
8
BLACK
6
CONTINUOUS
10
1.06096
20
0.595436
11
1.06125
21
0.59474
0
LINE
8
BLACK
6
CONTINUOUS
10
1.06125
20
0.59474
11
1.06125
21
0.53726
0
LINE
8
BLACK
6
CONTINUOUS
10
1.06125
20
0.53726
11
1.06096
21
0.536564
0
LINE
8
BLACK
6
CONTINUOUS
10
1.06096
20
0.536564
11
1.06027
21
0.536276
0
LINE
8
BLACK
6
CONTINUOUS
10
1.06027
20
0.536276
11
0.943732
21
0.536276
0
LINE
8
BLACK
6
CONTINUOUS
10
0.943732
20
0.536276
11
0.943036
21
0.536564
0
LINE
8
BLACK
6
CONTINUOUS
10
0.944717
20
0.593756
11
0.944717
21
0.538244
0
LINE
8
BLACK
6
CONTINUOUS
10
0.944717
20
0.538244
11
1.05928
21
0.538244
0
LINE
8
BLACK
6
CONTINUOUS
10
1.05928
20
0.538244
11
1.05928
21
0.593756
0
LINE
8
BLACK
6
CONTINUOUS
10
1.05928
20
0.593756
11
0.944717
21
0.593756
0
LINE
8
BLACK
6
CONTINUOUS
10
0.497036
20
0.544564
11
0.496748
21
0.54526
0
LINE
8
BLACK
6
CONTINUOUS
10
0.496748
20
0.54526
11
0.496748
21
0.60274
0
LINE
8
BLACK
6
CONTINUOUS
10
0.496748
20
0.60274
11
0.497036
21
0.603436
0
LINE
8
BLACK
6
CONTINUOUS
10
0.497036
20
0.603436
11
0.497732
21
0.603724
0
LINE
8
BLACK
6
CONTINUOUS
10
0.497732
20
0.603724
11
0.614268
21
0.603724
0
LINE
8
BLACK
6
CONTINUOUS
10
0.614268
20
0.603724
11
0.614964
21
0.603436
0
LINE
8
BLACK
6
CONTINUOUS
10
0.614964
20
0.603436
11
0.615252
21
0.60274
0
LINE
8
BLACK
6
CONTINUOUS
10
0.615252
20
0.60274
11
0.615252
21
0.54526
0
LINE
8
BLACK
6
CONTINUOUS
10
0.615252
20
0.54526
11
0.614964
21
0.544564
0
LINE
8
BLACK
6
CONTINUOUS
10
0.614964
20
0.544564
11
0.614268
21
0.544276
0
LINE
8
BLACK
6
CONTINUOUS
10
0.614268
20
0.544276
11
0.497732
21
0.544276
0
LINE
8
BLACK
6
CONTINUOUS
10
0.497732
20
0.544276
11
0.497036
21
0.544564
0
LINE
8
BLACK
6
CONTINUOUS
10
0.498717
20
0.601756
11
0.498717
21
0.546244
0
LINE
8
BLACK
6
CONTINUOUS
10
0.498717
20
0.546244
11
0.613283
21
0.546244
0
LINE
8
BLACK
6
CONTINUOUS
10
0.613283
20
0.546244
11
0.613283
21
0.601756
0
LINE
8
BLACK
6
CONTINUOUS
10
0.613283
20
0.601756
11
0.498717
21
0.601756
0
LINE
8
BLACK
6
CONTINUOUS
10
0.627036
20
0.544564
11
0.626748
21
0.54526
0
LINE
8
BLACK
6
CONTINUOUS
10
0.626748
20
0.54526
11
0.626748
21
0.60274
0
LINE
8
BLACK
6
CONTINUOUS
10
0.626748
20
0.60274
11
0.627036
21
0.603436
0
LINE
8
BLACK
6
CONTINUOUS
10
0.627036
20
0.603436
11
0.627732
21
0.603724
0
LINE
8
BLACK
6
CONTINUOUS
10
0.627732
20
0.603724
11
0.744268
21
0.603724
0
LINE
8
BLACK
6
CONTINUOUS
10
0.744268
20
0.603724
11
0.744964
21
0.603436
0
LINE
8
BLACK
6
CONTINUOUS
10
0.744964
20
0.603436
11
0.745252
21
0.60274
0
LINE
8
BLACK
6
CONTINUOUS
10
0.745252
20
0.60274
11
0.745252
21
0.54526
0
LINE
8
BLACK
6
CONTINUOUS
10
0.745252
20
0.54526
11
0.744964
21
0.544564
0
LINE
8
BLACK
6
CONTINUOUS
10
0.744964
20
0.544564
11
0.744268
21
0.544276
0
LINE
8
BLACK
6
CONTINUOUS
10
0.744268
20
0.544276
11
0.627732
21
0.544276
0
LINE
8
BLACK
6
CONTINUOUS
10
0.627732
20
0.544276
11
0.627036
21
0.544564
0
LINE
8
BLACK
6
CONTINUOUS
10
0.628717
20
0.601756
11
0.628717
21
0.546244
0
LINE
8
BLACK
6
CONTINUOUS
10
0.628717
20
0.546244
11
0.743283
21
0.546244
0
LINE
8
BLACK
6
CONTINUOUS
10
0.743283
20
0.546244
11
0.743283
21
0.601756
0
LINE
8
BLACK
6
CONTINUOUS
10
0.743283
20
0.601756
11
0.628717
21
0.601756
0
LINE
8
BLACK
6
CONTINUOUS
10
1.11456
20
0.561036
11
1.11428
21
0.561732
0
LINE
8
BLACK
6
CONTINUOUS
10
1.11428
20
0.561732
11
1.11428
21
0.678268
0
LINE
8
BLACK
6
CONTINUOUS
10
1.11428
20
0.678268
11
1.11456
21
0.678964
0
LINE
8
BLACK
6
CONTINUOUS
10
1.11456
20
0.678964
11
1.11526
21
0.679252
0
LINE
8
BLACK
6
CONTINUOUS
10
1.11526
20
0.679252
11
1.17274
21
0.679252
0
LINE
8
BLACK
6
CONTINUOUS
10
1.17274
20
0.679252
11
1.17344
21
0.678964
0
LINE
8
BLACK
6
CONTINUOUS
10
1.17344
20
0.678964
11
1.17372
21
0.678268
0
LINE
8
BLACK
6
CONTINUOUS
10
1.17372
20
0.678268
11
1.17372
21
0.561732
0
LINE
8
BLACK
6
CONTINUOUS
10
1.17372
20
0.561732
11
1.17344
21
0.561036
0
LINE
8
BLACK
6
CONTINUOUS
10
1.17344
20
0.561036
11
1.17274
21
0.560748
0
LINE
8
BLACK
6
CONTINUOUS
10
1.17274
20
0.560748
11
1.11526
21
0.560748
0
LINE
8
BLACK
6
CONTINUOUS
10
1.11526
20
0.560748
11
1.11456
21
0.561036
0
LINE
8
BLACK
6
CONTINUOUS
10
1.11624
20
0.677283
11
1.11624
21
0.562717
0
LINE
8
BLACK
6
CONTINUOUS
10
1.11624
20
0.562717
11
1.17176
21
0.562717
0
LINE
8
BLACK
6
CONTINUOUS
10
1.17176
20
0.562717
11
1.17176
21
0.677283
0
LINE
8
BLACK
6
CONTINUOUS
10
1.17176
20
0.677283
11
1.11624
21
0.677283
0
LINE
8
BLACK
6
CONTINUOUS
10
0.779036
20
0.596564
11
0.778748
21
0.59726
0
LINE
8
BLACK
6
CONTINUOUS
10
0.778748
20
0.59726
11
0.778748
21
0.65474
0
LINE
8
BLACK
6
CONTINUOUS
10
0.778748
20
0.65474
11
0.779036
21
0.655436
0
LINE
8
BLACK
6
CONTINUOUS
10
0.779036
20
0.655436
11
0.779732
21
0.655724
0
LINE
8
BLACK
6
CONTINUOUS
10
0.779732
20
0.655724
11
0.896268
21
0.655724
0
LINE
8
BLACK
6
CONTINUOUS
10
0.896268
20
0.655724
11
0.896964
21
0.655436
0
LINE
8
BLACK
6
CONTINUOUS
10
0.896964
20
0.655436
11
0.897252
21
0.65474
0
LINE
8
BLACK
6
CONTINUOUS
10
0.897252
20
0.65474
11
0.897252
21
0.59726
0
LINE
8
BLACK
6
CONTINUOUS
10
0.897252
20
0.59726
11
0.896964
21
0.596564
0
LINE
8
BLACK
6
CONTINUOUS
10
0.896964
20
0.596564
11
0.896268
21
0.596276
0
LINE
8
BLACK
6
CONTINUOUS
10
0.896268
20
0.596276
11
0.779732
21
0.596276
0
LINE
8
BLACK
6
CONTINUOUS
10
0.779732
20
0.596276
11
0.779036
21
0.596564
0
LINE
8
BLACK
6
CONTINUOUS
10
0.780717
20
0.653756
11
0.780717
21
0.598244
0
LINE
8
BLACK
6
CONTINUOUS
10
0.780717
20
0.598244
11
0.895283
21
0.598244
0
LINE
8
BLACK
6
CONTINUOUS
10
0.895283
20
0.598244
11
0.895283
21
0.653756
0
LINE
8
BLACK
6
CONTINUOUS
10
0.895283
20
0.653756
11
0.780717
21
0.653756
0
LINE
8
BLACK
6
CONTINUOUS
10
0.943036
20
0.606564
11
0.942748
21
0.60726
0
LINE
8
BLACK
6
CONTINUOUS
10
0.942748
20
0.60726
11
0.942748
21
0.66474
0
LINE
8
BLACK
6
CONTINUOUS
10
0.942748
20
0.66474
11
0.943036
21
0.665436
0
LINE
8
BLACK
6
CONTINUOUS
10
0.943036
20
0.665436
11
0.943732
21
0.665724
0
LINE
8
BLACK
6
CONTINUOUS
10
0.943732
20
0.665724
11
1.06027
21
0.665724
0
LINE
8
BLACK
6
CONTINUOUS
10
1.06027
20
0.665724
11
1.06096
21
0.665436
0
LINE
8
BLACK
6
CONTINUOUS
10
1.06096
20
0.665436
11
1.06125
21
0.66474
0
LINE
8
BLACK
6
CONTINUOUS
10
1.06125
20
0.66474
11
1.06125
21
0.60726
0
LINE
8
BLACK
6
CONTINUOUS
10
1.06125
20
0.60726
11
1.06096
21
0.606564
0
LINE
8
BLACK
6
CONTINUOUS
10
1.06096
20
0.606564
11
1.06027
21
0.606276
0
LINE
8
BLACK
6
CONTINUOUS
10
1.06027
20
0.606276
11
0.943732
21
0.606276
0
LINE
8
BLACK
6
CONTINUOUS
10
0.943732
20
0.606276
11
0.943036
21
0.606564
0
LINE
8
BLACK
6
CONTINUOUS
10
0.944717
20
0.663756
11
0.944717
21
0.608244
0
LINE
8
BLACK
6
CONTINUOUS
10
0.944717
20
0.608244
11
1.05928
21
0.608244
0
LINE
8
BLACK
6
CONTINUOUS
10
1.05928
20
0.608244
11
1.05928
21
0.663756
0
LINE
8
BLACK
6
CONTINUOUS
10
1.05928
20
0.663756
11
0.944717
21
0.663756
0
LINE
8
BLACK
6
CONTINUOUS
10
0.330564
20
0.609036
11
0.330276
21
0.609732
0
LINE
8
BLACK
6
CONTINUOUS
10
0.330276
20
0.609732
11
0.330276
21
0.726268
0
LINE
8
BLACK
6
CONTINUOUS
10
0.330276
20
0.726268
11
0.330564
21
0.726964
0
LINE
8
BLACK
6
CONTINUOUS
10
0.330564
20
0.726964
11
0.33126
21
0.727252
0
LINE
8
BLACK
6
CONTINUOUS
10
0.33126
20
0.727252
11
0.38874
21
0.727252
0
LINE
8
BLACK
6
CONTINUOUS
10
0.38874
20
0.727252
11
0.389436
21
0.726964
0
LINE
8
BLACK
6
CONTINUOUS
10
0.389436
20
0.726964
11
0.389724
21
0.726268
0
LINE
8
BLACK
6
CONTINUOUS
10
0.389724
20
0.726268
11
0.389724
21
0.609732
0
LINE
8
BLACK
6
CONTINUOUS
10
0.389724
20
0.609732
11
0.389436
21
0.609036
0
LINE
8
BLACK
6
CONTINUOUS
10
0.389436
20
0.609036
11
0.38874
21
0.608748
0
LINE
8
BLACK
6
CONTINUOUS
10
0.38874
20
0.608748
11
0.33126
21
0.608748
0
LINE
8
BLACK
6
CONTINUOUS
10
0.33126
20
0.608748
11
0.330564
21
0.609036
0
LINE
8
BLACK
6
CONTINUOUS
10
0.332244
20
0.725283
11
0.332244
21
0.610717
0
LINE
8
BLACK
6
CONTINUOUS
10
0.332244
20
0.610717
11
0.387756
21
0.610717
0
LINE
8
BLACK
6
CONTINUOUS
10
0.387756
20
0.610717
11
0.387756
21
0.725283
0
LINE
8
BLACK
6
CONTINUOUS
10
0.387756
20
0.725283
11
0.332244
21
0.725283
0
LINE
8
BLACK
6
CONTINUOUS
10
1.21456
20
0.613036
11
1.21428
21
0.613732
0
LINE
8
BLACK
6
CONTINUOUS
10
1.21428
20
0.613732
11
1.21428
21
0.730268
0
LINE
8
BLACK
6
CONTINUOUS
10
1.21428
20
0.730268
11
1.21456
21
0.730964
0
LINE
8
BLACK
6
CONTINUOUS
10
1.21456
20
0.730964
11
1.21526
21
0.731252
0
LINE
8
BLACK
6
CONTINUOUS
10
1.21526
20
0.731252
11
1.27274
21
0.731252
0
LINE
8
BLACK
6
CONTINUOUS
10
1.27274
20
0.731252
11
1.27344
21
0.730964
0
LINE
8
BLACK
6
CONTINUOUS
10
1.27344
20
0.730964
11
1.27372
21
0.730268
0
LINE
8
BLACK
6
CONTINUOUS
10
1.27372
20
0.730268
11
1.27372
21
0.613732
0
LINE
8
BLACK
6
CONTINUOUS
10
1.27372
20
0.613732
11
1.27344
21
0.613036
0
LINE
8
BLACK
6
CONTINUOUS
10
1.27344
20
0.613036
11
1.27274
21
0.612748
0
LINE
8
BLACK
6
CONTINUOUS
10
1.27274
20
0.612748
11
1.21526
21
0.612748
0
LINE
8
BLACK
6
CONTINUOUS
10
1.21526
20
0.612748
11
1.21456
21
0.613036
0
LINE
8
BLACK
6
CONTINUOUS
10
1.21624
20
0.729283
11
1.21624
21
0.614717
0
LINE
8
BLACK
6
CONTINUOUS
10
1.21624
20
0.614717
11
1.27176
21
0.614717
0
LINE
8
BLACK
6
CONTINUOUS
10
1.27176
20
0.614717
11
1.27176
21
0.729283
0
LINE
8
BLACK
6
CONTINUOUS
10
1.27176
20
0.729283
11
1.21624
21
0.729283
0
LINE
8
BLACK
6
CONTINUOUS
10
0.627036
20
0.618564
11
0.626748
21
0.61926
0
LINE
8
BLACK
6
CONTINUOUS
10
0.626748
20
0.61926
11
0.626748
21
0.67674
0
LINE
8
BLACK
6
CONTINUOUS
10
0.626748
20
0.67674
11
0.627036
21
0.677436
0
LINE
8
BLACK
6
CONTINUOUS
10
0.627036
20
0.677436
11
0.627732
21
0.677724
0
LINE
8
BLACK
6
CONTINUOUS
10
0.627732
20
0.677724
11
0.744268
21
0.677724
0
LINE
8
BLACK
6
CONTINUOUS
10
0.744268
20
0.677724
11
0.744964
21
0.677436
0
LINE
8
BLACK
6
CONTINUOUS
10
0.744964
20
0.677436
11
0.745252
21
0.67674
0
LINE
8
BLACK
6
CONTINUOUS
10
0.745252
20
0.67674
11
0.745252
21
0.61926
0
LINE
8
BLACK
6
CONTINUOUS
10
0.745252
20
0.61926
11
0.744964
21
0.618564
0
LINE
8
BLACK
6
CONTINUOUS
10
0.744964
20
0.618564
11
0.744268
21
0.618276
0
LINE
8
BLACK
6
CONTINUOUS
10
0.744268
20
0.618276
11
0.627732
21
0.618276
0
LINE
8
BLACK
6
CONTINUOUS
10
0.627732
20
0.618276
11
0.627036
21
0.618564
0
LINE
8
BLACK
6
CONTINUOUS
10
0.628717
20
0.675756
11
0.628717
21
0.620244
0
LINE
8
BLACK
6
CONTINUOUS
10
0.628717
20
0.620244
11
0.743283
21
0.620244
0
LINE
8
BLACK
6
CONTINUOUS
10
0.743283
20
0.620244
11
0.743283
21
0.675756
0
LINE
8
BLACK
6
CONTINUOUS
10
0.743283
20
0.675756
11
0.628717
21
0.675756
0
LINE
8
BLACK
6
CONTINUOUS
10
0.412375
20
0.663713
11
0.412087
21
0.664409
0
LINE
8
BLACK
6
CONTINUOUS
10
0.412087
20
0.664409
11
0.412087
21
0.815591
0
LINE
8
BLACK
6
CONTINUOUS
10
0.412087
20
0.815591
11
0.412375
21
0.816287
0
LINE
8
BLACK
6
CONTINUOUS
10
0.412375
20
0.816287
11
0.413071
21
0.816575
0
LINE
8
BLACK
6
CONTINUOUS
10
0.413071
20
0.816575
11
0.546929
21
0.816575
0
LINE
8
BLACK
6
CONTINUOUS
10
0.546929
20
0.816575
11
0.547625
21
0.816287
0
LINE
8
BLACK
6
CONTINUOUS
10
0.547625
20
0.816287
11
0.547913
21
0.815591
0
LINE
8
BLACK
6
CONTINUOUS
10
0.547913
20
0.815591
11
0.547913
21
0.664409
0
LINE
8
BLACK
6
CONTINUOUS
10
0.547913
20
0.664409
11
0.547625
21
0.663713
0
LINE
8
BLACK
6
CONTINUOUS
10
0.547625
20
0.663713
11
0.546929
21
0.663425
0
LINE
8
BLACK
6
CONTINUOUS
10
0.546929
20
0.663425
11
0.413071
21
0.663425
0
LINE
8
BLACK
6
CONTINUOUS
10
0.413071
20
0.663425
11
0.412375
21
0.663713
0
LINE
8
BLACK
6
CONTINUOUS
10
0.414055
20
0.814606
11
0.414055
21
0.665394
0
LINE
8
BLACK
6
CONTINUOUS
10
0.414055
20
0.665394
11
0.545945
21
0.665394
0
LINE
8
BLACK
6
CONTINUOUS
10
0.545945
20
0.665394
11
0.545945
21
0.814606
0
LINE
8
BLACK
6
CONTINUOUS
10
0.545945
20
0.814606
11
0.414055
21
0.814606
0
LINE
8
BLACK
6
CONTINUOUS
10
0.195036
20
0.668564
11
0.194748
21
0.66926
0
LINE
8
BLACK
6
CONTINUOUS
10
0.194748
20
0.66926
11
0.194748
21
0.72674
0
LINE
8
BLACK
6
CONTINUOUS
10
0.194748
20
0.72674
11
0.195036
21
0.727436
0
LINE
8
BLACK
6
CONTINUOUS
10
0.195036
20
0.727436
11
0.195732
21
0.727724
0
LINE
8
BLACK
6
CONTINUOUS
10
0.195732
20
0.727724
11
0.312268
21
0.727724
0
LINE
8
BLACK
6
CONTINUOUS
10
0.312268
20
0.727724
11
0.312964
21
0.727436
0
LINE
8
BLACK
6
CONTINUOUS
10
0.312964
20
0.727436
11
0.313252
21
0.72674
0
LINE
8
BLACK
6
CONTINUOUS
10
0.313252
20
0.72674
11
0.313252
21
0.66926
0
LINE
8
BLACK
6
CONTINUOUS
10
0.313252
20
0.66926
11
0.312964
21
0.668564
0
LINE
8
BLACK
6
CONTINUOUS
10
0.312964
20
0.668564
11
0.312268
21
0.668276
0
LINE
8
BLACK
6
CONTINUOUS
10
0.312268
20
0.668276
11
0.195732
21
0.668276
0
LINE
8
BLACK
6
CONTINUOUS
10
0.195732
20
0.668276
11
0.195036
21
0.668564
0
LINE
8
BLACK
6
CONTINUOUS
10
0.196717
20
0.725756
11
0.196717
21
0.670244
0
LINE
8
BLACK
6
CONTINUOUS
10
0.196717
20
0.670244
11
0.311283
21
0.670244
0
LINE
8
BLACK
6
CONTINUOUS
10
0.311283
20
0.670244
11
0.311283
21
0.725756
0
LINE
8
BLACK
6
CONTINUOUS
10
0.311283
20
0.725756
11
0.196717
21
0.725756
0
LINE
8
BLACK
6
CONTINUOUS
10
0.627036
20
0.692564
11
0.626748
21
0.69326
0
LINE
8
BLACK
6
CONTINUOUS
10
0.626748
20
0.69326
11
0.626748
21
0.75074
0
LINE
8
BLACK
6
CONTINUOUS
10
0.626748
20
0.75074
11
0.627036
21
0.751436
0
LINE
8
BLACK
6
CONTINUOUS
10
0.627036
20
0.751436
11
0.627732
21
0.751724
0
LINE
8
BLACK
6
CONTINUOUS
10
0.627732
20
0.751724
11
0.744268
21
0.751724
0
LINE
8
BLACK
6
CONTINUOUS
10
0.744268
20
0.751724
11
0.744964
21
0.751436
0
LINE
8
BLACK
6
CONTINUOUS
10
0.744964
20
0.751436
11
0.745252
21
0.75074
0
LINE
8
BLACK
6
CONTINUOUS
10
0.745252
20
0.75074
11
0.745252
21
0.69326
0
LINE
8
BLACK
6
CONTINUOUS
10
0.745252
20
0.69326
11
0.744964
21
0.692564
0
LINE
8
BLACK
6
CONTINUOUS
10
0.744964
20
0.692564
11
0.744268
21
0.692276
0
LINE
8
BLACK
6
CONTINUOUS
10
0.744268
20
0.692276
11
0.627732
21
0.692276
0
LINE
8
BLACK
6
CONTINUOUS
10
0.627732
20
0.692276
11
0.627036
21
0.692564
0
LINE
8
BLACK
6
CONTINUOUS
10
0.628717
20
0.749756
11
0.628717
21
0.694244
0
LINE
8
BLACK
6
CONTINUOUS
10
0.628717
20
0.694244
11
0.743283
21
0.694244
0
LINE
8
BLACK
6
CONTINUOUS
10
0.743283
20
0.694244
11
0.743283
21
0.749756
0
LINE
8
BLACK
6
CONTINUOUS
10
0.743283
20
0.749756
11
0.628717
21
0.749756
0
LINE
8
BLACK
6
CONTINUOUS
10
0.766438
20
0.695603
11
0.76615
21
0.696299
0
LINE
8
BLACK
6
CONTINUOUS
10
0.76615
20
0.696299
11
0.76615
21
0.883701
0
LINE
8
BLACK
6
CONTINUOUS
10
0.76615
20
0.883701
11
0.766438
21
0.884397
0
LINE
8
BLACK
6
CONTINUOUS
10
0.766438
20
0.884397
11
0.767134
21
0.884685
0
LINE
8
BLACK
6
CONTINUOUS
10
0.767134
20
0.884685
11
0.908866
21
0.884685
0
LINE
8
BLACK
6
CONTINUOUS
10
0.908866
20
0.884685
11
0.909562
21
0.884397
0
LINE
8
BLACK
6
CONTINUOUS
10
0.909562
20
0.884397
11
0.90985
21
0.883701
0
LINE
8
BLACK
6
CONTINUOUS
10
0.90985
20
0.883701
11
0.90985
21
0.696299
0
LINE
8
BLACK
6
CONTINUOUS
10
0.90985
20
0.696299
11
0.909562
21
0.695603
0
LINE
8
BLACK
6
CONTINUOUS
10
0.909562
20
0.695603
11
0.908866
21
0.695315
0
LINE
8
BLACK
6
CONTINUOUS
10
0.908866
20
0.695315
11
0.767134
21
0.695315
0
LINE
8
BLACK
6
CONTINUOUS
10
0.767134
20
0.695315
11
0.766438
21
0.695603
0
LINE
8
BLACK
6
CONTINUOUS
10
0.768118
20
0.882717
11
0.768118
21
0.697283
0
LINE
8
BLACK
6
CONTINUOUS
10
0.768118
20
0.697283
11
0.907882
21
0.697283
0
LINE
8
BLACK
6
CONTINUOUS
10
0.907882
20
0.697283
11
0.907882
21
0.882717
0
LINE
8
BLACK
6
CONTINUOUS
10
0.907882
20
0.882717
11
0.768118
21
0.882717
0
LINE
8
BLACK
6
CONTINUOUS
10
1.00044
20
0.697603
11
1.00015
21
0.698299
0
LINE
8
BLACK
6
CONTINUOUS
10
1.00015
20
0.698299
11
1.00015
21
0.885701
0
LINE
8
BLACK
6
CONTINUOUS
10
1.00015
20
0.885701
11
1.00044
21
0.886397
0
LINE
8
BLACK
6
CONTINUOUS
10
1.00044
20
0.886397
11
1.00113
21
0.886685
0
LINE
8
BLACK
6
CONTINUOUS
10
1.00113
20
0.886685
11
1.14287
21
0.886685
0
LINE
8
BLACK
6
CONTINUOUS
10
1.14287
20
0.886685
11
1.14356
21
0.886397
0
LINE
8
BLACK
6
CONTINUOUS
10
1.14356
20
0.886397
11
1.14385
21
0.885701
0
LINE
8
BLACK
6
CONTINUOUS
10
1.14385
20
0.885701
11
1.14385
21
0.698299
0
LINE
8
BLACK
6
CONTINUOUS
10
1.14385
20
0.698299
11
1.14356
21
0.697603
0
LINE
8
BLACK
6
CONTINUOUS
10
1.14356
20
0.697603
11
1.14287
21
0.697315
0
LINE
8
BLACK
6
CONTINUOUS
10
1.14287
20
0.697315
11
1.00113
21
0.697315
0
LINE
8
BLACK
6
CONTINUOUS
10
1.00113
20
0.697315
11
1.00044
21
0.697603
0
LINE
8
BLACK
6
CONTINUOUS
10
1.00212
20
0.884717
11
1.00212
21
0.699283
0
LINE
8
BLACK
6
CONTINUOUS
10
1.00212
20
0.699283
11
1.14188
21
0.699283
0
LINE
8
BLACK
6
CONTINUOUS
10
1.14188
20
0.699283
11
1.14188
21
0.884717
0
LINE
8
BLACK
6
CONTINUOUS
10
1.14188
20
0.884717
11
1.00212
21
0.884717
0
LINE
8
BLACK
6
CONTINUOUS
10
0.928564
20
0.723036
11
0.928276
21
0.723732
0
LINE
8
BLACK
6
CONTINUOUS
10
0.928276
20
0.723732
11
0.928276
21
0.840268
0
LINE
8
BLACK
6
CONTINUOUS
10
0.928276
20
0.840268
11
0.928564
21
0.840964
0
LINE
8
BLACK
6
CONTINUOUS
10
0.928564
20
0.840964
11
0.92926
21
0.841252
0
LINE
8
BLACK
6
CONTINUOUS
10
0.92926
20
0.841252
11
0.98674
21
0.841252
0
LINE
8
BLACK
6
CONTINUOUS
10
0.98674
20
0.841252
11
0.987436
21
0.840964
0
LINE
8
BLACK
6
CONTINUOUS
10
0.987436
20
0.840964
11
0.987724
21
0.840268
0
LINE
8
BLACK
6
CONTINUOUS
10
0.987724
20
0.840268
11
0.987724
21
0.723732
0
LINE
8
BLACK
6
CONTINUOUS
10
0.987724
20
0.723732
11
0.987436
21
0.723036
0
LINE
8
BLACK
6
CONTINUOUS
10
0.987436
20
0.723036
11
0.98674
21
0.722748
0
LINE
8
BLACK
6
CONTINUOUS
10
0.98674
20
0.722748
11
0.92926
21
0.722748
0
LINE
8
BLACK
6
CONTINUOUS
10
0.92926
20
0.722748
11
0.928564
21
0.723036
0
LINE
8
BLACK
6
CONTINUOUS
10
0.930244
20
0.839283
11
0.930244
21
0.724717
0
LINE
8
BLACK
6
CONTINUOUS
10
0.930244
20
0.724717
11
0.985756
21
0.724717
0
LINE
8
BLACK
6
CONTINUOUS
10
0.985756
20
0.724717
11
0.985756
21
0.839283
0
LINE
8
BLACK
6
CONTINUOUS
10
0.985756
20
0.839283
11
0.930244
21
0.839283
0
LINE
8
BLACK
6
CONTINUOUS
10
1.15904
20
0.750564
11
1.15875
21
0.75126
0
LINE
8
BLACK
6
CONTINUOUS
10
1.15875
20
0.75126
11
1.15875
21
0.80874
0
LINE
8
BLACK
6
CONTINUOUS
10
1.15875
20
0.80874
11
1.15904
21
0.809436
0
LINE
8
BLACK
6
CONTINUOUS
10
1.15904
20
0.809436
11
1.15973
21
0.809724
0
LINE
8
BLACK
6
CONTINUOUS
10
1.15973
20
0.809724
11
1.27627
21
0.809724
0
LINE
8
BLACK
6
CONTINUOUS
10
1.27627
20
0.809724
11
1.27696
21
0.809436
0
LINE
8
BLACK
6
CONTINUOUS
10
1.27696
20
0.809436
11
1.27725
21
0.80874
0
LINE
8
BLACK
6
CONTINUOUS
10
1.27725
20
0.80874
11
1.27725
21
0.75126
0
LINE
8
BLACK
6
CONTINUOUS
10
1.27725
20
0.75126
11
1.27696
21
0.750564
0
LINE
8
BLACK
6
CONTINUOUS
10
1.27696
20
0.750564
11
1.27627
21
0.750276
0
LINE
8
BLACK
6
CONTINUOUS
10
1.27627
20
0.750276
11
1.15973
21
0.750276
0
LINE
8
BLACK
6
CONTINUOUS
10
1.15973
20
0.750276
11
1.15904
21
0.750564
0
LINE
8
BLACK
6
CONTINUOUS
10
1.16072
20
0.807756
11
1.16072
21
0.752244
0
LINE
8
BLACK
6
CONTINUOUS
10
1.16072
20
0.752244
11
1.27528
21
0.752244
0
LINE
8
BLACK
6
CONTINUOUS
10
1.27528
20
0.752244
11
1.27528
21
0.807756
0
LINE
8
BLACK
6
CONTINUOUS
10
1.27528
20
0.807756
11
1.16072
21
0.807756
0
LINE
8
BLACK
6
CONTINUOUS
10
0.627036
20
0.766564
11
0.626748
21
0.76726
0
LINE
8
BLACK
6
CONTINUOUS
10
0.626748
20
0.76726
11
0.626748
21
0.82474
0
LINE
8
BLACK
6
CONTINUOUS
10
0.626748
20
0.82474
11
0.627036
21
0.825436
0
LINE
8
BLACK
6
CONTINUOUS
10
0.627036
20
0.825436
11
0.627732
21
0.825724
0
LINE
8
BLACK
6
CONTINUOUS
10
0.627732
20
0.825724
11
0.744268
21
0.825724
0
LINE
8
BLACK
6
CONTINUOUS
10
0.744268
20
0.825724
11
0.744964
21
0.825436
0
LINE
8
BLACK
6
CONTINUOUS
10
0.744964
20
0.825436
11
0.745252
21
0.82474
0
LINE
8
BLACK
6
CONTINUOUS
10
0.745252
20
0.82474
11
0.745252
21
0.76726
0
LINE
8
BLACK
6
CONTINUOUS
10
0.745252
20
0.76726
11
0.744964
21
0.766564
0
LINE
8
BLACK
6
CONTINUOUS
10
0.744964
20
0.766564
11
0.744268
21
0.766276
0
LINE
8
BLACK
6
CONTINUOUS
10
0.744268
20
0.766276
11
0.627732
21
0.766276
0
LINE
8
BLACK
6
CONTINUOUS
10
0.627732
20
0.766276
11
0.627036
21
0.766564
0
LINE
8
BLACK
6
CONTINUOUS
10
0.628717
20
0.823756
11
0.628717
21
0.768244
0
LINE
8
BLACK
6
CONTINUOUS
10
0.628717
20
0.768244
11
0.743283
21
0.768244
0
LINE
8
BLACK
6
CONTINUOUS
10
0.743283
20
0.768244
11
0.743283
21
0.823756
0
LINE
8
BLACK
6
CONTINUOUS
10
0.743283
20
0.823756
11
0.628717
21
0.823756
0
LINE
8
BLACK
6
CONTINUOUS
10
0.209836
20
0.810328
11
0.209547
21
0.811024
0
LINE
8
BLACK
6
CONTINUOUS
10
0.209547
20
0.811024
11
0.209547
21
0.868504
0
LINE
8
BLACK
6
CONTINUOUS
10
0.209547
20
0.868504
11
0.209836
21
0.8692
0
LINE
8
BLACK
6
CONTINUOUS
10
0.209836
20
0.8692
11
0.210531
21
0.869488
0
LINE
8
BLACK
6
CONTINUOUS
10
0.210531
20
0.869488
11
0.327067
21
0.869488
0
LINE
8
BLACK
6
CONTINUOUS
10
0.327067
20
0.869488
11
0.327763
21
0.8692
0
LINE
8
BLACK
6
CONTINUOUS
10
0.327763
20
0.8692
11
0.328051
21
0.868504
0
LINE
8
BLACK
6
CONTINUOUS
10
0.328051
20
0.868504
11
0.328051
21
0.811024
0
LINE
8
BLACK
6
CONTINUOUS
10
0.328051
20
0.811024
11
0.327763
21
0.810328
0
LINE
8
BLACK
6
CONTINUOUS
10
0.327763
20
0.810328
11
0.327067
21
0.810039
0
LINE
8
BLACK
6
CONTINUOUS
10
0.327067
20
0.810039
11
0.210531
21
0.810039
0
LINE
8
BLACK
6
CONTINUOUS
10
0.210531
20
0.810039
11
0.209836
21
0.810328
0
LINE
8
BLACK
6
CONTINUOUS
10
0.211516
20
0.86752
11
0.211516
21
0.812008
0
LINE
8
BLACK
6
CONTINUOUS
10
0.211516
20
0.812008
11
0.326083
21
0.812008
0
LINE
8
BLACK
6
CONTINUOUS
10
0.326083
20
0.812008
11
0.326083
21
0.86752
0
LINE
8
BLACK
6
CONTINUOUS
10
0.326083
20
0.86752
11
0.211516
21
0.86752
0
LINE
8
BLACK
6
CONTINUOUS
10
1.15904
20
0.828564
11
1.15875
21
0.82926
0
LINE
8
BLACK
6
CONTINUOUS
10
1.15875
20
0.82926
11
1.15875
21
0.88674
0
LINE
8
BLACK
6
CONTINUOUS
10
1.15875
20
0.88674
11
1.15904
21
0.887436
0
LINE
8
BLACK
6
CONTINUOUS
10
1.15904
20
0.887436
11
1.15973
21
0.887724
0
LINE
8
BLACK
6
CONTINUOUS
10
1.15973
20
0.887724
11
1.27627
21
0.887724
0
LINE
8
BLACK
6
CONTINUOUS
10
1.27627
20
0.887724
11
1.27696
21
0.887436
0
LINE
8
BLACK
6
CONTINUOUS
10
1.27696
20
0.887436
11
1.27725
21
0.88674
0
LINE
8
BLACK
6
CONTINUOUS
10
1.27725
20
0.88674
11
1.27725
21
0.82926
0
LINE
8
BLACK
6
CONTINUOUS
10
1.27725
20
0.82926
11
1.27696
21
0.828564
0
LINE
8
BLACK
6
CONTINUOUS
10
1.27696
20
0.828564
11
1.27627
21
0.828276
0
LINE
8
BLACK
6
CONTINUOUS
10
1.27627
20
0.828276
11
1.15973
21
0.828276
0
LINE
8
BLACK
6
CONTINUOUS
10
1.15973
20
0.828276
11
1.15904
21
0.828564
0
LINE
8
BLACK
6
CONTINUOUS
10
1.16072
20
0.885756
11
1.16072
21
0.830244
0
LINE
8
BLACK
6
CONTINUOUS
10
1.16072
20
0.830244
11
1.27528
21
0.830244
0
LINE
8
BLACK
6
CONTINUOUS
10
1.27528
20
0.830244
11
1.27528
21
0.885756
0
LINE
8
BLACK
6
CONTINUOUS
10
1.27528
20
0.885756
11
1.16072
21
0.885756
0
LINE
8
BLACK
6
CONTINUOUS
10
0.690564
20
0.855036
11
0.690276
21
0.855732
0
LINE
8
BLACK
6
CONTINUOUS
10
0.690276
20
0.855732
11
0.690276
21
0.972268
0
LINE
8
BLACK
6
CONTINUOUS
10
0.690276
20
0.972268
11
0.690564
21
0.972964
0
LINE
8
BLACK
6
CONTINUOUS
10
0.690564
20
0.972964
11
0.69126
21
0.973252
0
LINE
8
BLACK
6
CONTINUOUS
10
0.69126
20
0.973252
11
0.74874
21
0.973252
0
LINE
8
BLACK
6
CONTINUOUS
10
0.74874
20
0.973252
11
0.749436
21
0.972964
0
LINE
8
BLACK
6
CONTINUOUS
10
0.749436
20
0.972964
11
0.749724
21
0.972268
0
LINE
8
BLACK
6
CONTINUOUS
10
0.749724
20
0.972268
11
0.749724
21
0.855732
0
LINE
8
BLACK
6
CONTINUOUS
10
0.749724
20
0.855732
11
0.749436
21
0.855036
0
LINE
8
BLACK
6
CONTINUOUS
10
0.749436
20
0.855036
11
0.74874
21
0.854748
0
LINE
8
BLACK
6
CONTINUOUS
10
0.74874
20
0.854748
11
0.69126
21
0.854748
0
LINE
8
BLACK
6
CONTINUOUS
10
0.69126
20
0.854748
11
0.690564
21
0.855036
0
LINE
8
BLACK
6
CONTINUOUS
10
0.692244
20
0.971283
11
0.692244
21
0.856717
0
LINE
8
BLACK
6
CONTINUOUS
10
0.692244
20
0.856717
11
0.747756
21
0.856717
0
LINE
8
BLACK
6
CONTINUOUS
10
0.747756
20
0.856717
11
0.747756
21
0.971283
0
LINE
8
BLACK
6
CONTINUOUS
10
0.747756
20
0.971283
11
0.692244
21
0.971283
0
LINE
8
BLACK
6
CONTINUOUS
10
0.548564
20
0.859036
11
0.548276
21
0.859732
0
LINE
8
BLACK
6
CONTINUOUS
10
0.548276
20
0.859732
11
0.548276
21
0.976268
0
LINE
8
BLACK
6
CONTINUOUS
10
0.548276
20
0.976268
11
0.548564
21
0.976964
0
LINE
8
BLACK
6
CONTINUOUS
10
0.548564
20
0.976964
11
0.54926
21
0.977252
0
LINE
8
BLACK
6
CONTINUOUS
10
0.54926
20
0.977252
11
0.60674
21
0.977252
0
LINE
8
BLACK
6
CONTINUOUS
10
0.60674
20
0.977252
11
0.607436
21
0.976964
0
LINE
8
BLACK
6
CONTINUOUS
10
0.607436
20
0.976964
11
0.607724
21
0.976268
0
LINE
8
BLACK
6
CONTINUOUS
10
0.607724
20
0.976268
11
0.607724
21
0.859732
0
LINE
8
BLACK
6
CONTINUOUS
10
0.607724
20
0.859732
11
0.607436
21
0.859036
0
LINE
8
BLACK
6
CONTINUOUS
10
0.607436
20
0.859036
11
0.60674
21
0.858748
0
LINE
8
BLACK
6
CONTINUOUS
10
0.60674
20
0.858748
11
0.54926
21
0.858748
0
LINE
8
BLACK
6
CONTINUOUS
10
0.54926
20
0.858748
11
0.548564
21
0.859036
0
LINE
8
BLACK
6
CONTINUOUS
10
0.550244
20
0.975283
11
0.550244
21
0.860717
0
LINE
8
BLACK
6
CONTINUOUS
10
0.550244
20
0.860717
11
0.605756
21
0.860717
0
LINE
8
BLACK
6
CONTINUOUS
10
0.605756
20
0.860717
11
0.605756
21
0.975283
0
LINE
8
BLACK
6
CONTINUOUS
10
0.605756
20
0.975283
11
0.550244
21
0.975283
0
LINE
8
BLACK
6
CONTINUOUS
10
0.620564
20
0.859036
11
0.620276
21
0.859732
0
LINE
8
BLACK
6
CONTINUOUS
10
0.620276
20
0.859732
11
0.620276
21
0.976268
0
LINE
8
BLACK
6
CONTINUOUS
10
0.620276
20
0.976268
11
0.620564
21
0.976964
0
LINE
8
BLACK
6
CONTINUOUS
10
0.620564
20
0.976964
11
0.62126
21
0.977252
0
LINE
8
BLACK
6
CONTINUOUS
10
0.62126
20
0.977252
11
0.67874
21
0.977252
0
LINE
8
BLACK
6
CONTINUOUS
10
0.67874
20
0.977252
11
0.679436
21
0.976964
0
LINE
8
BLACK
6
CONTINUOUS
10
0.679436
20
0.976964
11
0.679724
21
0.976268
0
LINE
8
BLACK
6
CONTINUOUS
10
0.679724
20
0.976268
11
0.679724
21
0.859732
0
LINE
8
BLACK
6
CONTINUOUS
10
0.679724
20
0.859732
11
0.679436
21
0.859036
0
LINE
8
BLACK
6
CONTINUOUS
10
0.679436
20
0.859036
11
0.67874
21
0.858748
0
LINE
8
BLACK
6
CONTINUOUS
10
0.67874
20
0.858748
11
0.62126
21
0.858748
0
LINE
8
BLACK
6
CONTINUOUS
10
0.62126
20
0.858748
11
0.620564
21
0.859036
0
LINE
8
BLACK
6
CONTINUOUS
10
0.622244
20
0.975283
11
0.622244
21
0.860717
0
LINE
8
BLACK
6
CONTINUOUS
10
0.622244
20
0.860717
11
0.677756
21
0.860717
0
LINE
8
BLACK
6
CONTINUOUS
10
0.677756
20
0.860717
11
0.677756
21
0.975283
0
LINE
8
BLACK
6
CONTINUOUS
10
0.677756
20
0.975283
11
0.622244
21
0.975283
0
LINE
8
BLACK
6
CONTINUOUS
10
0.201174
20
0.900485
11
0.200886
21
0.901181
0
LINE
8
BLACK
6
CONTINUOUS
10
0.200886
20
0.901181
11
0.200886
21
0.978346
0
LINE
8
BLACK
6
CONTINUOUS
10
0.200886
20
0.978346
11
0.201174
21
0.979042
0
LINE
8
BLACK
6
CONTINUOUS
10
0.201174
20
0.979042
11
0.20187
21
0.979331
0
LINE
8
BLACK
6
CONTINUOUS
10
0.20187
20
0.979331
11
0.335728
21
0.979331
0
LINE
8
BLACK
6
CONTINUOUS
10
0.335728
20
0.979331
11
0.336424
21
0.979042
0
LINE
8
BLACK
6
CONTINUOUS
10
0.336424
20
0.979042
11
0.336713
21
0.978346
0
LINE
8
BLACK
6
CONTINUOUS
10
0.336713
20
0.978346
11
0.336713
21
0.901181
0
LINE
8
BLACK
6
CONTINUOUS
10
0.336713
20
0.901181
11
0.336424
21
0.900485
0
LINE
8
BLACK
6
CONTINUOUS
10
0.336424
20
0.900485
11
0.335728
21
0.900197
0
LINE
8
BLACK
6
CONTINUOUS
10
0.335728
20
0.900197
11
0.20187
21
0.900197
0
LINE
8
BLACK
6
CONTINUOUS
10
0.20187
20
0.900197
11
0.201174
21
0.900485
0
LINE
8
BLACK
6
CONTINUOUS
10
0.202854
20
0.977362
11
0.202854
21
0.902165
0
LINE
8
BLACK
6
CONTINUOUS
10
0.202854
20
0.902165
11
0.334744
21
0.902165
0
LINE
8
BLACK
6
CONTINUOUS
10
0.334744
20
0.902165
11
0.334744
21
0.977362
0
LINE
8
BLACK
6
CONTINUOUS
10
0.334744
20
0.977362
11
0.202854
21
0.977362
0
LINE
8
BLACK
6
CONTINUOUS
10
0.347336
20
0.910328
11
0.347047
21
0.911024
0
LINE
8
BLACK
6
CONTINUOUS
10
0.347047
20
0.911024
11
0.347047
21
0.968504
0
LINE
8
BLACK
6
CONTINUOUS
10
0.347047
20
0.968504
11
0.347336
21
0.9692
0
LINE
8
BLACK
6
CONTINUOUS
10
0.347336
20
0.9692
11
0.348031
21
0.969488
0
LINE
8
BLACK
6
CONTINUOUS
10
0.348031
20
0.969488
11
0.464567
21
0.969488
0
LINE
8
BLACK
6
CONTINUOUS
10
0.464567
20
0.969488
11
0.465263
21
0.9692
0
LINE
8
BLACK
6
CONTINUOUS
10
0.465263
20
0.9692
11
0.465551
21
0.968504
0
LINE
8
BLACK
6
CONTINUOUS
10
0.465551
20
0.968504
11
0.465551
21
0.911024
0
LINE
8
BLACK
6
CONTINUOUS
10
0.465551
20
0.911024
11
0.465263
21
0.910328
0
LINE
8
BLACK
6
CONTINUOUS
10
0.465263
20
0.910328
11
0.464567
21
0.910039
0
LINE
8
BLACK
6
CONTINUOUS
10
0.464567
20
0.910039
11
0.348031
21
0.910039
0
LINE
8
BLACK
6
CONTINUOUS
10
0.348031
20
0.910039
11
0.347336
21
0.910328
0
LINE
8
BLACK
6
CONTINUOUS
10
0.349016
20
0.96752
11
0.349016
21
0.912008
0
LINE
8
BLACK
6
CONTINUOUS
10
0.349016
20
0.912008
11
0.463583
21
0.912008
0
LINE
8
BLACK
6
CONTINUOUS
10
0.463583
20
0.912008
11
0.463583
21
0.96752
0
LINE
8
BLACK
6
CONTINUOUS
10
0.463583
20
0.96752
11
0.349016
21
0.96752
0
LINE
8
BLACK
6
CONTINUOUS
10
0.985635
20
0.929005
11
0.985346
21
0.929701
0
LINE
8
BLACK
6
CONTINUOUS
10
0.985346
20
0.929701
11
0.985346
21
1.1423
0
LINE
8
BLACK
6
CONTINUOUS
10
0.985346
20
1.1423
11
0.985635
21
1.143
0
LINE
8
BLACK
6
CONTINUOUS
10
0.985635
20
1.143
11
0.986331
21
1.14328
0
LINE
8
BLACK
6
CONTINUOUS
10
0.986331
20
1.14328
11
1.27767
21
1.14328
0
LINE
8
BLACK
6
CONTINUOUS
10
1.27767
20
1.14328
11
1.27837
21
1.143
0
LINE
8
BLACK
6
CONTINUOUS
10
1.27837
20
1.143
11
1.27865
21
1.1423
0
LINE
8
BLACK
6
CONTINUOUS
10
1.27865
20
1.1423
11
1.27865
21
0.929701
0
LINE
8
BLACK
6
CONTINUOUS
10
1.27865
20
0.929701
11
1.27837
21
0.929005
0
LINE
8
BLACK
6
CONTINUOUS
10
1.27837
20
0.929005
11
1.27767
21
0.928717
0
LINE
8
BLACK
6
CONTINUOUS
10
1.27767
20
0.928717
11
0.986331
21
0.928717
0
LINE
8
BLACK
6
CONTINUOUS
10
0.986331
20
0.928717
11
0.985635
21
0.929005
0
LINE
8
BLACK
6
CONTINUOUS
10
0.987315
20
1.14131
11
0.987315
21
0.930685
0
LINE
8
BLACK
6
CONTINUOUS
10
0.987315
20
0.930685
11
1.27669
21
0.930685
0
LINE
8
BLACK
6
CONTINUOUS
10
1.27669
20
0.930685
11
1.27669
21
1.14131
0
LINE
8
BLACK
6
CONTINUOUS
10
1.27669
20
1.14131
11
0.987315
21
1.14131
0
LINE
8
BLACK
6
CONTINUOUS
10
0.906564
20
0.946524
11
0.906276
21
0.94722
0
LINE
8
BLACK
6
CONTINUOUS
10
0.906276
20
0.94722
11
0.906276
21
1.06376
0
LINE
8
BLACK
6
CONTINUOUS
10
0.906276
20
1.06376
11
0.906564
21
1.06445
0
LINE
8
BLACK
6
CONTINUOUS
10
0.906564
20
1.06445
11
0.90726
21
1.06474
0
LINE
8
BLACK
6
CONTINUOUS
10
0.90726
20
1.06474
11
0.96474
21
1.06474
0
LINE
8
BLACK
6
CONTINUOUS
10
0.96474
20
1.06474
11
0.965436
21
1.06445
0
LINE
8
BLACK
6
CONTINUOUS
10
0.965436
20
1.06445
11
0.965724
21
1.06376
0
LINE
8
BLACK
6
CONTINUOUS
10
0.965724
20
1.06376
11
0.965724
21
0.94722
0
LINE
8
BLACK
6
CONTINUOUS
10
0.965724
20
0.94722
11
0.965436
21
0.946524
0
LINE
8
BLACK
6
CONTINUOUS
10
0.965436
20
0.946524
11
0.96474
21
0.946236
0
LINE
8
BLACK
6
CONTINUOUS
10
0.96474
20
0.946236
11
0.90726
21
0.946236
0
LINE
8
BLACK
6
CONTINUOUS
10
0.90726
20
0.946236
11
0.906564
21
0.946524
0
LINE
8
BLACK
6
CONTINUOUS
10
0.908244
20
1.06277
11
0.908244
21
0.948205
0
LINE
8
BLACK
6
CONTINUOUS
10
0.908244
20
0.948205
11
0.963756
21
0.948205
0
LINE
8
BLACK
6
CONTINUOUS
10
0.963756
20
0.948205
11
0.963756
21
1.06277
0
LINE
8
BLACK
6
CONTINUOUS
10
0.963756
20
1.06277
11
0.908244
21
1.06277
0
LINE
8
BLACK
6
CONTINUOUS
10
0.836564
20
0.946556
11
0.836276
21
0.947252
0
LINE
8
BLACK
6
CONTINUOUS
10
0.836276
20
0.947252
11
0.836276
21
1.06379
0
LINE
8
BLACK
6
CONTINUOUS
10
0.836276
20
1.06379
11
0.836564
21
1.06448
0
LINE
8
BLACK
6
CONTINUOUS
10
0.836564
20
1.06448
11
0.83726
21
1.06477
0
LINE
8
BLACK
6
CONTINUOUS
10
0.83726
20
1.06477
11
0.89474
21
1.06477
0
LINE
8
BLACK
6
CONTINUOUS
10
0.89474
20
1.06477
11
0.895436
21
1.06448
0
LINE
8
BLACK
6
CONTINUOUS
10
0.895436
20
1.06448
11
0.895724
21
1.06379
0
LINE
8
BLACK
6
CONTINUOUS
10
0.895724
20
1.06379
11
0.895724
21
0.947252
0
LINE
8
BLACK
6
CONTINUOUS
10
0.895724
20
0.947252
11
0.895436
21
0.946556
0
LINE
8
BLACK
6
CONTINUOUS
10
0.895436
20
0.946556
11
0.89474
21
0.946268
0
LINE
8
BLACK
6
CONTINUOUS
10
0.89474
20
0.946268
11
0.83726
21
0.946268
0
LINE
8
BLACK
6
CONTINUOUS
10
0.83726
20
0.946268
11
0.836564
21
0.946556
0
LINE
8
BLACK
6
CONTINUOUS
10
0.838244
20
1.0628
11
0.838244
21
0.948236
0
LINE
8
BLACK
6
CONTINUOUS
10
0.838244
20
0.948236
11
0.893756
21
0.948236
0
LINE
8
BLACK
6
CONTINUOUS
10
0.893756
20
0.948236
11
0.893756
21
1.0628
0
LINE
8
BLACK
6
CONTINUOUS
10
0.893756
20
1.0628
11
0.838244
21
1.0628
0
LINE
8
BLACK
6
CONTINUOUS
10
0.259934
20
0.982769
11
0.259646
21
0.983465
0
LINE
8
BLACK
6
CONTINUOUS
10
0.259646
20
0.983465
11
0.259646
21
1.19606
0
LINE
8
BLACK
6
CONTINUOUS
10
0.259646
20
1.19606
11
0.259934
21
1.19676
0
LINE
8
BLACK
6
CONTINUOUS
10
0.259934
20
1.19676
11
0.26063
21
1.19705
0
LINE
8
BLACK
6
CONTINUOUS
10
0.26063
20
1.19705
11
0.551969
21
1.19705
0
LINE
8
BLACK
6
CONTINUOUS
10
0.551969
20
1.19705
11
0.552664
21
1.19676
0
LINE
8
BLACK
6
CONTINUOUS
10
0.552664
20
1.19676
11
0.552953
21
1.19606
0
LINE
8
BLACK
6
CONTINUOUS
10
0.552953
20
1.19606
11
0.552953
21
0.983465
0
LINE
8
BLACK
6
CONTINUOUS
10
0.552953
20
0.983465
11
0.552664
21
0.982769
0
LINE
8
BLACK
6
CONTINUOUS
10
0.552664
20
0.982769
11
0.551969
21
0.98248
0
LINE
8
BLACK
6
CONTINUOUS
10
0.551969
20
0.98248
11
0.26063
21
0.98248
0
LINE
8
BLACK
6
CONTINUOUS
10
0.26063
20
0.98248
11
0.259934
21
0.982769
0
LINE
8
BLACK
6
CONTINUOUS
10
0.261614
20
1.19508
11
0.261614
21
0.984449
0
LINE
8
BLACK
6
CONTINUOUS
10
0.261614
20
0.984449
11
0.550984
21
0.984449
0
LINE
8
BLACK
6
CONTINUOUS
10
0.550984
20
0.984449
11
0.550984
21
1.19508
0
LINE
8
BLACK
6
CONTINUOUS
10
0.550984
20
1.19508
11
0.261614
21
1.19508
0
LINE
8
BLACK
6
CONTINUOUS
10
0.770564
20
1.03104
11
0.770276
21
1.03173
0
LINE
8
BLACK
6
CONTINUOUS
10
0.770276
20
1.03173
11
0.770276
21
1.14827
0
LINE
8
BLACK
6
CONTINUOUS
10
0.770276
20
1.14827
11
0.770564
21
1.14896
0
LINE
8
BLACK
6
CONTINUOUS
10
0.770564
20
1.14896
11
0.77126
21
1.14925
0
LINE
8
BLACK
6
CONTINUOUS
10
0.77126
20
1.14925
11
0.82874
21
1.14925
0
LINE
8
BLACK
6
CONTINUOUS
10
0.82874
20
1.14925
11
0.829436
21
1.14896
0
LINE
8
BLACK
6
CONTINUOUS
10
0.829436
20
1.14896
11
0.829724
21
1.14827
0
LINE
8
BLACK
6
CONTINUOUS
10
0.829724
20
1.14827
11
0.829724
21
1.03173
0
LINE
8
BLACK
6
CONTINUOUS
10
0.829724
20
1.03173
11
0.829436
21
1.03104
0
LINE
8
BLACK
6
CONTINUOUS
10
0.829436
20
1.03104
11
0.82874
21
1.03075
0
LINE
8
BLACK
6
CONTINUOUS
10
0.82874
20
1.03075
11
0.77126
21
1.03075
0
LINE
8
BLACK
6
CONTINUOUS
10
0.77126
20
1.03075
11
0.770564
21
1.03104
0
LINE
8
BLACK
6
CONTINUOUS
10
0.772244
20
1.14728
11
0.772244
21
1.03272
0
LINE
8
BLACK
6
CONTINUOUS
10
0.772244
20
1.03272
11
0.827756
21
1.03272
0
LINE
8
BLACK
6
CONTINUOUS
10
0.827756
20
1.03272
11
0.827756
21
1.14728
0
LINE
8
BLACK
6
CONTINUOUS
10
0.827756
20
1.14728
11
0.772244
21
1.14728
0
LINE
8
BLACK
6
CONTINUOUS
10
0.560564
20
1.03104
11
0.560276
21
1.03173
0
LINE
8
BLACK
6
CONTINUOUS
10
0.560276
20
1.03173
11
0.560276
21
1.14827
0
LINE
8
BLACK
6
CONTINUOUS
10
0.560276
20
1.14827
11
0.560564
21
1.14896
0
LINE
8
BLACK
6
CONTINUOUS
10
0.560564
20
1.14896
11
0.56126
21
1.14925
0
LINE
8
BLACK
6
CONTINUOUS
10
0.56126
20
1.14925
11
0.61874
21
1.14925
0
LINE
8
BLACK
6
CONTINUOUS
10
0.61874
20
1.14925
11
0.619436
21
1.14896
0
LINE
8
BLACK
6
CONTINUOUS
10
0.619436
20
1.14896
11
0.619724
21
1.14827
0
LINE
8
BLACK
6
CONTINUOUS
10
0.619724
20
1.14827
11
0.619724
21
1.03173
0
LINE
8
BLACK
6
CONTINUOUS
10
0.619724
20
1.03173
11
0.619436
21
1.03104
0
LINE
8
BLACK
6
CONTINUOUS
10
0.619436
20
1.03104
11
0.61874
21
1.03075
0
LINE
8
BLACK
6
CONTINUOUS
10
0.61874
20
1.03075
11
0.56126
21
1.03075
0
LINE
8
BLACK
6
CONTINUOUS
10
0.56126
20
1.03075
11
0.560564
21
1.03104
0
LINE
8
BLACK
6
CONTINUOUS
10
0.562244
20
1.14728
11
0.562244
21
1.03272
0
LINE
8
BLACK
6
CONTINUOUS
10
0.562244
20
1.03272
11
0.617756
21
1.03272
0
LINE
8
BLACK
6
CONTINUOUS
10
0.617756
20
1.03272
11
0.617756
21
1.14728
0
LINE
8
BLACK
6
CONTINUOUS
10
0.617756
20
1.14728
11
0.562244
21
1.14728
0
LINE
8
BLACK
6
CONTINUOUS
10
0.630564
20
1.03104
11
0.630276
21
1.03173
0
LINE
8
BLACK
6
CONTINUOUS
10
0.630276
20
1.03173
11
0.630276
21
1.14827
0
LINE
8
BLACK
6
CONTINUOUS
10
0.630276
20
1.14827
11
0.630564
21
1.14896
0
LINE
8
BLACK
6
CONTINUOUS
10
0.630564
20
1.14896
11
0.63126
21
1.14925
0
LINE
8
BLACK
6
CONTINUOUS
10
0.63126
20
1.14925
11
0.68874
21
1.14925
0
LINE
8
BLACK
6
CONTINUOUS
10
0.68874
20
1.14925
11
0.689436
21
1.14896
0
LINE
8
BLACK
6
CONTINUOUS
10
0.689436
20
1.14896
11
0.689724
21
1.14827
0
LINE
8
BLACK
6
CONTINUOUS
10
0.689724
20
1.14827
11
0.689724
21
1.03173
0
LINE
8
BLACK
6
CONTINUOUS
10
0.689724
20
1.03173
11
0.689436
21
1.03104
0
LINE
8
BLACK
6
CONTINUOUS
10
0.689436
20
1.03104
11
0.68874
21
1.03075
0
LINE
8
BLACK
6
CONTINUOUS
10
0.68874
20
1.03075
11
0.63126
21
1.03075
0
LINE
8
BLACK
6
CONTINUOUS
10
0.63126
20
1.03075
11
0.630564
21
1.03104
0
LINE
8
BLACK
6
CONTINUOUS
10
0.632244
20
1.14728
11
0.632244
21
1.03272
0
LINE
8
BLACK
6
CONTINUOUS
10
0.632244
20
1.03272
11
0.687756
21
1.03272
0
LINE
8
BLACK
6
CONTINUOUS
10
0.687756
20
1.03272
11
0.687756
21
1.14728
0
LINE
8
BLACK
6
CONTINUOUS
10
0.687756
20
1.14728
11
0.632244
21
1.14728
0
LINE
8
BLACK
6
CONTINUOUS
10
0.700564
20
1.03104
11
0.700276
21
1.03173
0
LINE
8
BLACK
6
CONTINUOUS
10
0.700276
20
1.03173
11
0.700276
21
1.14827
0
LINE
8
BLACK
6
CONTINUOUS
10
0.700276
20
1.14827
11
0.700564
21
1.14896
0
LINE
8
BLACK
6
CONTINUOUS
10
0.700564
20
1.14896
11
0.70126
21
1.14925
0
LINE
8
BLACK
6
CONTINUOUS
10
0.70126
20
1.14925
11
0.75874
21
1.14925
0
LINE
8
BLACK
6
CONTINUOUS
10
0.75874
20
1.14925
11
0.759436
21
1.14896
0
LINE
8
BLACK
6
CONTINUOUS
10
0.759436
20
1.14896
11
0.759724
21
1.14827
0
LINE
8
BLACK
6
CONTINUOUS
10
0.759724
20
1.14827
11
0.759724
21
1.03173
0
LINE
8
BLACK
6
CONTINUOUS
10
0.759724
20
1.03173
11
0.759436
21
1.03104
0
LINE
8
BLACK
6
CONTINUOUS
10
0.759436
20
1.03104
11
0.75874
21
1.03075
0
LINE
8
BLACK
6
CONTINUOUS
10
0.75874
20
1.03075
11
0.70126
21
1.03075
0
LINE
8
BLACK
6
CONTINUOUS
10
0.70126
20
1.03075
11
0.700564
21
1.03104
0
LINE
8
BLACK
6
CONTINUOUS
10
0.702244
20
1.14728
11
0.702244
21
1.03272
0
LINE
8
BLACK
6
CONTINUOUS
10
0.702244
20
1.03272
11
0.757756
21
1.03272
0
LINE
8
BLACK
6
CONTINUOUS
10
0.757756
20
1.03272
11
0.757756
21
1.14728
0
LINE
8
BLACK
6
CONTINUOUS
10
0.757756
20
1.14728
11
0.702244
21
1.14728
0
LINE
8
BLACK
6
CONTINUOUS
10
0.845036
20
1.08456
11
0.844748
21
1.08526
0
LINE
8
BLACK
6
CONTINUOUS
10
0.844748
20
1.08526
11
0.844748
21
1.14274
0
LINE
8
BLACK
6
CONTINUOUS
10
0.844748
20
1.14274
11
0.845036
21
1.14344
0
LINE
8
BLACK
6
CONTINUOUS
10
0.845036
20
1.14344
11
0.845732
21
1.14372
0
LINE
8
BLACK
6
CONTINUOUS
10
0.845732
20
1.14372
11
0.962268
21
1.14372
0
LINE
8
BLACK
6
CONTINUOUS
10
0.962268
20
1.14372
11
0.962964
21
1.14344
0
LINE
8
BLACK
6
CONTINUOUS
10
0.962964
20
1.14344
11
0.963252
21
1.14274
0
LINE
8
BLACK
6
CONTINUOUS
10
0.963252
20
1.14274
11
0.963252
21
1.08526
0
LINE
8
BLACK
6
CONTINUOUS
10
0.963252
20
1.08526
11
0.962964
21
1.08456
0
LINE
8
BLACK
6
CONTINUOUS
10
0.962964
20
1.08456
11
0.962268
21
1.08428
0
LINE
8
BLACK
6
CONTINUOUS
10
0.962268
20
1.08428
11
0.845732
21
1.08428
0
LINE
8
BLACK
6
CONTINUOUS
10
0.845732
20
1.08428
11
0.845036
21
1.08456
0
LINE
8
BLACK
6
CONTINUOUS
10
0.846717
20
1.14176
11
0.846717
21
1.08624
0
LINE
8
BLACK
6
CONTINUOUS
10
0.846717
20
1.08624
11
0.961283
21
1.08624
0
LINE
8
BLACK
6
CONTINUOUS
10
0.961283
20
1.08624
11
0.961283
21
1.14176
0
LINE
8
BLACK
6
CONTINUOUS
10
0.961283
20
1.14176
11
0.846717
21
1.14176
0
LINE
8
BLACK
6
CONTINUOUS
10
0.176863
20
1.1183
11
0.176575
21
1.119
0
LINE
8
BLACK
6
CONTINUOUS
10
0.176575
20
1.119
11
0.176575
21
1.23553
0
LINE
8
BLACK
6
CONTINUOUS
10
0.176575
20
1.23553
11
0.176863
21
1.23623
0
LINE
8
BLACK
6
CONTINUOUS
10
0.176863
20
1.23623
11
0.177559
21
1.23652
0
LINE
8
BLACK
6
CONTINUOUS
10
0.177559
20
1.23652
11
0.235039
21
1.23652
0
LINE
8
BLACK
6
CONTINUOUS
10
0.235039
20
1.23652
11
0.235735
21
1.23623
0
LINE
8
BLACK
6
CONTINUOUS
10
0.235735
20
1.23623
11
0.236024
21
1.23553
0
LINE
8
BLACK
6
CONTINUOUS
10
0.236024
20
1.23553
11
0.236024
21
1.119
0
LINE
8
BLACK
6
CONTINUOUS
10
0.236024
20
1.119
11
0.235735
21
1.1183
0
LINE
8
BLACK
6
CONTINUOUS
10
0.235735
20
1.1183
11
0.235039
21
1.11801
0
LINE
8
BLACK
6
CONTINUOUS
10
0.235039
20
1.11801
11
0.177559
21
1.11801
0
LINE
8
BLACK
6
CONTINUOUS
10
0.177559
20
1.11801
11
0.176863
21
1.1183
0
LINE
8
BLACK
6
CONTINUOUS
10
0.178543
20
1.23455
11
0.178543
21
1.11998
0
LINE
8
BLACK
6
CONTINUOUS
10
0.178543
20
1.11998
11
0.234055
21
1.11998
0
LINE
8
BLACK
6
CONTINUOUS
10
0.234055
20
1.11998
11
0.234055
21
1.23455
0
LINE
8
BLACK
6
CONTINUOUS
10
0.234055
20
1.23455
11
0.178543
21
1.23455
0
LINE
8
BLACK
6
CONTINUOUS
10
0.576863
20
1.1558
11
0.576575
21
1.1565
0
LINE
8
BLACK
6
CONTINUOUS
10
0.576575
20
1.1565
11
0.576575
21
1.27303
0
LINE
8
BLACK
6
CONTINUOUS
10
0.576575
20
1.27303
11
0.576863
21
1.27373
0
LINE
8
BLACK
6
CONTINUOUS
10
0.576863
20
1.27373
11
0.577559
21
1.27402
0
LINE
8
BLACK
6
CONTINUOUS
10
0.577559
20
1.27402
11
0.635039
21
1.27402
0
LINE
8
BLACK
6
CONTINUOUS
10
0.635039
20
1.27402
11
0.635735
21
1.27373
0
LINE
8
BLACK
6
CONTINUOUS
10
0.635735
20
1.27373
11
0.636024
21
1.27303
0
LINE
8
BLACK
6
CONTINUOUS
10
0.636024
20
1.27303
11
0.636024
21
1.1565
0
LINE
8
BLACK
6
CONTINUOUS
10
0.636024
20
1.1565
11
0.635735
21
1.1558
0
LINE
8
BLACK
6
CONTINUOUS
10
0.635735
20
1.1558
11
0.635039
21
1.15551
0
LINE
8
BLACK
6
CONTINUOUS
10
0.635039
20
1.15551
11
0.577559
21
1.15551
0
LINE
8
BLACK
6
CONTINUOUS
10
0.577559
20
1.15551
11
0.576863
21
1.1558
0
LINE
8
BLACK
6
CONTINUOUS
10
0.578543
20
1.27205
11
0.578543
21
1.15748
0
LINE
8
BLACK
6
CONTINUOUS
10
0.578543
20
1.15748
11
0.634055
21
1.15748
0
LINE
8
BLACK
6
CONTINUOUS
10
0.634055
20
1.15748
11
0.634055
21
1.27205
0
LINE
8
BLACK
6
CONTINUOUS
10
0.634055
20
1.27205
11
0.578543
21
1.27205
0
LINE
8
BLACK
6
CONTINUOUS
10
0.640564
20
1.1583
11
0.640276
21
1.159
0
LINE
8
BLACK
6
CONTINUOUS
10
0.640276
20
1.159
11
0.640276
21
1.27553
0
LINE
8
BLACK
6
CONTINUOUS
10
0.640276
20
1.27553
11
0.640564
21
1.27623
0
LINE
8
BLACK
6
CONTINUOUS
10
0.640564
20
1.27623
11
0.64126
21
1.27652
0
LINE
8
BLACK
6
CONTINUOUS
10
0.64126
20
1.27652
11
0.69874
21
1.27652
0
LINE
8
BLACK
6
CONTINUOUS
10
0.69874
20
1.27652
11
0.699436
21
1.27623
0
LINE
8
BLACK
6
CONTINUOUS
10
0.699436
20
1.27623
11
0.699724
21
1.27553
0
LINE
8
BLACK
6
CONTINUOUS
10
0.699724
20
1.27553
11
0.699724
21
1.159
0
LINE
8
BLACK
6
CONTINUOUS
10
0.699724
20
1.159
11
0.699436
21
1.1583
0
LINE
8
BLACK
6
CONTINUOUS
10
0.699436
20
1.1583
11
0.69874
21
1.15801
0
LINE
8
BLACK
6
CONTINUOUS
10
0.69874
20
1.15801
11
0.64126
21
1.15801
0
LINE
8
BLACK
6
CONTINUOUS
10
0.64126
20
1.15801
11
0.640564
21
1.1583
0
LINE
8
BLACK
6
CONTINUOUS
10
0.642244
20
1.27455
11
0.642244
21
1.15998
0
LINE
8
BLACK
6
CONTINUOUS
10
0.642244
20
1.15998
11
0.697756
21
1.15998
0
LINE
8
BLACK
6
CONTINUOUS
10
0.697756
20
1.15998
11
0.697756
21
1.27455
0
LINE
8
BLACK
6
CONTINUOUS
10
0.697756
20
1.27455
11
0.642244
21
1.27455
0
LINE
8
BLACK
6
CONTINUOUS
10
1.18872
20
1.16837
11
1.18843
21
1.16907
0
LINE
8
BLACK
6
CONTINUOUS
10
1.18843
20
1.16907
11
1.18843
21
1.30293
0
LINE
8
BLACK
6
CONTINUOUS
10
1.18843
20
1.30293
11
1.18872
21
1.30363
0
LINE
8
BLACK
6
CONTINUOUS
10
1.18872
20
1.30363
11
1.18942
21
1.30391
0
LINE
8
BLACK
6
CONTINUOUS
10
1.18942
20
1.30391
11
1.26658
21
1.30391
0
LINE
8
BLACK
6
CONTINUOUS
10
1.26658
20
1.30391
11
1.26728
21
1.30363
0
LINE
8
BLACK
6
CONTINUOUS
10
1.26728
20
1.30363
11
1.26757
21
1.30293
0
LINE
8
BLACK
6
CONTINUOUS
10
1.26757
20
1.30293
11
1.26757
21
1.16907
0
LINE
8
BLACK
6
CONTINUOUS
10
1.26757
20
1.16907
11
1.26728
21
1.16837
0
LINE
8
BLACK
6
CONTINUOUS
10
1.26728
20
1.16837
11
1.26658
21
1.16809
0
LINE
8
BLACK
6
CONTINUOUS
10
1.26658
20
1.16809
11
1.18942
21
1.16809
0
LINE
8
BLACK
6
CONTINUOUS
10
1.18942
20
1.16809
11
1.18872
21
1.16837
0
LINE
8
BLACK
6
CONTINUOUS
10
1.1904
20
1.30194
11
1.1904
21
1.17006
0
LINE
8
BLACK
6
CONTINUOUS
10
1.1904
20
1.17006
11
1.2656
21
1.17006
0
LINE
8
BLACK
6
CONTINUOUS
10
1.2656
20
1.17006
11
1.2656
21
1.30194
0
LINE
8
BLACK
6
CONTINUOUS
10
1.2656
20
1.30194
11
1.1904
21
1.30194
0
LINE
8
BLACK
6
CONTINUOUS
10
1.06056
20
1.16856
11
1.06027
21
1.16926
0
LINE
8
BLACK
6
CONTINUOUS
10
1.06027
20
1.16926
11
1.06027
21
1.22674
0
LINE
8
BLACK
6
CONTINUOUS
10
1.06027
20
1.22674
11
1.06056
21
1.22744
0
LINE
8
BLACK
6
CONTINUOUS
10
1.06056
20
1.22744
11
1.06125
21
1.22772
0
LINE
8
BLACK
6
CONTINUOUS
10
1.06125
20
1.22772
11
1.17779
21
1.22772
0
LINE
8
BLACK
6
CONTINUOUS
10
1.17779
20
1.22772
11
1.17848
21
1.22744
0
LINE
8
BLACK
6
CONTINUOUS
10
1.17848
20
1.22744
11
1.17877
21
1.22674
0
LINE
8
BLACK
6
CONTINUOUS
10
1.17877
20
1.22674
11
1.17877
21
1.16926
0
LINE
8
BLACK
6
CONTINUOUS
10
1.17877
20
1.16926
11
1.17848
21
1.16856
0
LINE
8
BLACK
6
CONTINUOUS
10
1.17848
20
1.16856
11
1.17779
21
1.16828
0
LINE
8
BLACK
6
CONTINUOUS
10
1.17779
20
1.16828
11
1.06125
21
1.16828
0
LINE
8
BLACK
6
CONTINUOUS
10
1.06125
20
1.16828
11
1.06056
21
1.16856
0
LINE
8
BLACK
6
CONTINUOUS
10
1.06224
20
1.22576
11
1.06224
21
1.17024
0
LINE
8
BLACK
6
CONTINUOUS
10
1.06224
20
1.17024
11
1.1768
21
1.17024
0
LINE
8
BLACK
6
CONTINUOUS
10
1.1768
20
1.17024
11
1.1768
21
1.22576
0
LINE
8
BLACK
6
CONTINUOUS
10
1.1768
20
1.22576
11
1.06224
21
1.22576
0
LINE
8
BLACK
6
CONTINUOUS
10
0.790564
20
1.29904
11
0.790276
21
1.29973
0
LINE
8
BLACK
6
CONTINUOUS
10
0.790276
20
1.29973
11
0.790276
21
1.41627
0
LINE
8
BLACK
6
CONTINUOUS
10
0.790276
20
1.41627
11
0.790564
21
1.41696
0
LINE
8
BLACK
6
CONTINUOUS
10
0.790564
20
1.41696
11
0.79126
21
1.41725
0
LINE
8
BLACK
6
CONTINUOUS
10
0.79126
20
1.41725
11
0.84874
21
1.41725
0
LINE
8
BLACK
6
CONTINUOUS
10
0.84874
20
1.41725
11
0.849436
21
1.41696
0
LINE
8
BLACK
6
CONTINUOUS
10
0.849436
20
1.41696
11
0.849724
21
1.41627
0
LINE
8
BLACK
6
CONTINUOUS
10
0.849724
20
1.41627
11
0.849724
21
1.29973
0
LINE
8
BLACK
6
CONTINUOUS
10
0.849724
20
1.29973
11
0.849436
21
1.29904
0
LINE
8
BLACK
6
CONTINUOUS
10
0.849436
20
1.29904
11
0.84874
21
1.29875
0
LINE
8
BLACK
6
CONTINUOUS
10
0.84874
20
1.29875
11
0.79126
21
1.29875
0
LINE
8
BLACK
6
CONTINUOUS
10
0.79126
20
1.29875
11
0.790564
21
1.29904
0
LINE
8
BLACK
6
CONTINUOUS
10
0.792244
20
1.41528
11
0.792244
21
1.30072
0
LINE
8
BLACK
6
CONTINUOUS
10
0.792244
20
1.30072
11
0.847756
21
1.30072
0
LINE
8
BLACK
6
CONTINUOUS
10
0.847756
20
1.30072
11
0.847756
21
1.41528
0
LINE
8
BLACK
6
CONTINUOUS
10
0.847756
20
1.41528
11
0.792244
21
1.41528
0
LINE
8
BLACK
6
CONTINUOUS
10
1.04056
20
1.29904
11
1.04028
21
1.29973
0
LINE
8
BLACK
6
CONTINUOUS
10
1.04028
20
1.29973
11
1.04028
21
1.41627
0
LINE
8
BLACK
6
CONTINUOUS
10
1.04028
20
1.41627
11
1.04056
21
1.41696
0
LINE
8
BLACK
6
CONTINUOUS
10
1.04056
20
1.41696
11
1.04126
21
1.41725
0
LINE
8
BLACK
6
CONTINUOUS
10
1.04126
20
1.41725
11
1.09874
21
1.41725
0
LINE
8
BLACK
6
CONTINUOUS
10
1.09874
20
1.41725
11
1.09944
21
1.41696
0
LINE
8
BLACK
6
CONTINUOUS
10
1.09944
20
1.41696
11
1.09972
21
1.41627
0
LINE
8
BLACK
6
CONTINUOUS
10
1.09972
20
1.41627
11
1.09972
21
1.29973
0
LINE
8
BLACK
6
CONTINUOUS
10
1.09972
20
1.29973
11
1.09944
21
1.29904
0
LINE
8
BLACK
6
CONTINUOUS
10
1.09944
20
1.29904
11
1.09874
21
1.29875
0
LINE
8
BLACK
6
CONTINUOUS
10
1.09874
20
1.29875
11
1.04126
21
1.29875
0
LINE
8
BLACK
6
CONTINUOUS
10
1.04126
20
1.29875
11
1.04056
21
1.29904
0
LINE
8
BLACK
6
CONTINUOUS
10
1.04224
20
1.41528
11
1.04224
21
1.30072
0
LINE
8
BLACK
6
CONTINUOUS
10
1.04224
20
1.30072
11
1.09776
21
1.30072
0
LINE
8
BLACK
6
CONTINUOUS
10
1.09776
20
1.30072
11
1.09776
21
1.41528
0
LINE
8
BLACK
6
CONTINUOUS
10
1.09776
20
1.41528
11
1.04224
21
1.41528
0
LINE
8
BLACK
6
CONTINUOUS
10
0.876564
20
1.29904
11
0.876276
21
1.29973
0
LINE
8
BLACK
6
CONTINUOUS
10
0.876276
20
1.29973
11
0.876276
21
1.41627
0
LINE
8
BLACK
6
CONTINUOUS
10
0.876276
20
1.41627
11
0.876564
21
1.41696
0
LINE
8
BLACK
6
CONTINUOUS
10
0.876564
20
1.41696
11
0.87726
21
1.41725
0
LINE
8
BLACK
6
CONTINUOUS
10
0.87726
20
1.41725
11
0.93474
21
1.41725
0
LINE
8
BLACK
6
CONTINUOUS
10
0.93474
20
1.41725
11
0.935436
21
1.41696
0
LINE
8
BLACK
6
CONTINUOUS
10
0.935436
20
1.41696
11
0.935724
21
1.41627
0
LINE
8
BLACK
6
CONTINUOUS
10
0.935724
20
1.41627
11
0.935724
21
1.29973
0
LINE
8
BLACK
6
CONTINUOUS
10
0.935724
20
1.29973
11
0.935436
21
1.29904
0
LINE
8
BLACK
6
CONTINUOUS
10
0.935436
20
1.29904
11
0.93474
21
1.29875
0
LINE
8
BLACK
6
CONTINUOUS
10
0.93474
20
1.29875
11
0.87726
21
1.29875
0
LINE
8
BLACK
6
CONTINUOUS
10
0.87726
20
1.29875
11
0.876564
21
1.29904
0
LINE
8
BLACK
6
CONTINUOUS
10
0.878244
20
1.41528
11
0.878244
21
1.30072
0
LINE
8
BLACK
6
CONTINUOUS
10
0.878244
20
1.30072
11
0.933756
21
1.30072
0
LINE
8
BLACK
6
CONTINUOUS
10
0.933756
20
1.30072
11
0.933756
21
1.41528
0
LINE
8
BLACK
6
CONTINUOUS
10
0.933756
20
1.41528
11
0.878244
21
1.41528
0
LINE
8
BLACK
6
CONTINUOUS
10
0.956564
20
1.29904
11
0.956276
21
1.29973
0
LINE
8
BLACK
6
CONTINUOUS
10
0.956276
20
1.29973
11
0.956276
21
1.41627
0
LINE
8
BLACK
6
CONTINUOUS
10
0.956276
20
1.41627
11
0.956564
21
1.41696
0
LINE
8
BLACK
6
CONTINUOUS
10
0.956564
20
1.41696
11
0.95726
21
1.41725
0
LINE
8
BLACK
6
CONTINUOUS
10
0.95726
20
1.41725
11
1.01474
21
1.41725
0
LINE
8
BLACK
6
CONTINUOUS
10
1.01474
20
1.41725
11
1.01544
21
1.41696
0
LINE
8
BLACK
6
CONTINUOUS
10
1.01544
20
1.41696
11
1.01572
21
1.41627
0
LINE
8
BLACK
6
CONTINUOUS
10
1.01572
20
1.41627
11
1.01572
21
1.29973
0
LINE
8
BLACK
6
CONTINUOUS
10
1.01572
20
1.29973
11
1.01544
21
1.29904
0
LINE
8
BLACK
6
CONTINUOUS
10
1.01544
20
1.29904
11
1.01474
21
1.29875
0
LINE
8
BLACK
6
CONTINUOUS
10
1.01474
20
1.29875
11
0.95726
21
1.29875
0
LINE
8
BLACK
6
CONTINUOUS
10
0.95726
20
1.29875
11
0.956564
21
1.29904
0
LINE
8
BLACK
6
CONTINUOUS
10
0.958244
20
1.41528
11
0.958244
21
1.30072
0
LINE
8
BLACK
6
CONTINUOUS
10
0.958244
20
1.30072
11
1.01376
21
1.30072
0
LINE
8
BLACK
6
CONTINUOUS
10
1.01376
20
1.30072
11
1.01376
21
1.41528
0
LINE
8
BLACK
6
CONTINUOUS
10
1.01376
20
1.41528
11
0.958244
21
1.41528
0
LINE
8
BLACK
6
CONTINUOUS
10
0.708564
20
1.34304
11
0.708276
21
1.34373
0
LINE
8
BLACK
6
CONTINUOUS
10
0.708276
20
1.34373
11
0.708276
21
1.46027
0
LINE
8
BLACK
6
CONTINUOUS
10
0.708276
20
1.46027
11
0.708564
21
1.46096
0
LINE
8
BLACK
6
CONTINUOUS
10
0.708564
20
1.46096
11
0.70926
21
1.46125
0
LINE
8
BLACK
6
CONTINUOUS
10
0.70926
20
1.46125
11
0.76674
21
1.46125
0
LINE
8
BLACK
6
CONTINUOUS
10
0.76674
20
1.46125
11
0.767436
21
1.46096
0
LINE
8
BLACK
6
CONTINUOUS
10
0.767436
20
1.46096
11
0.767724
21
1.46027
0
LINE
8
BLACK
6
CONTINUOUS
10
0.767724
20
1.46027
11
0.767724
21
1.34373
0
LINE
8
BLACK
6
CONTINUOUS
10
0.767724
20
1.34373
11
0.767436
21
1.34304
0
LINE
8
BLACK
6
CONTINUOUS
10
0.767436
20
1.34304
11
0.76674
21
1.34275
0
LINE
8
BLACK
6
CONTINUOUS
10
0.76674
20
1.34275
11
0.70926
21
1.34275
0
LINE
8
BLACK
6
CONTINUOUS
10
0.70926
20
1.34275
11
0.708564
21
1.34304
0
LINE
8
BLACK
6
CONTINUOUS
10
0.710244
20
1.45928
11
0.710244
21
1.34472
0
LINE
8
BLACK
6
CONTINUOUS
10
0.710244
20
1.34472
11
0.765756
21
1.34472
0
LINE
8
BLACK
6
CONTINUOUS
10
0.765756
20
1.34472
11
0.765756
21
1.45928
0
LINE
8
BLACK
6
CONTINUOUS
10
0.765756
20
1.45928
11
0.710244
21
1.45928
0
LINE
8
BLACK
6
CONTINUOUS
10
0.494564
20
1.36104
11
0.494276
21
1.36173
0
LINE
8
BLACK
6
CONTINUOUS
10
0.494276
20
1.36173
11
0.494276
21
1.47827
0
LINE
8
BLACK
6
CONTINUOUS
10
0.494276
20
1.47827
11
0.494564
21
1.47896
0
LINE
8
BLACK
6
CONTINUOUS
10
0.494564
20
1.47896
11
0.49526
21
1.47925
0
LINE
8
BLACK
6
CONTINUOUS
10
0.49526
20
1.47925
11
0.55274
21
1.47925
0
LINE
8
BLACK
6
CONTINUOUS
10
0.55274
20
1.47925
11
0.553436
21
1.47896
0
LINE
8
BLACK
6
CONTINUOUS
10
0.553436
20
1.47896
11
0.553724
21
1.47827
0
LINE
8
BLACK
6
CONTINUOUS
10
0.553724
20
1.47827
11
0.553724
21
1.36173
0
LINE
8
BLACK
6
CONTINUOUS
10
0.553724
20
1.36173
11
0.553436
21
1.36104
0
LINE
8
BLACK
6
CONTINUOUS
10
0.553436
20
1.36104
11
0.55274
21
1.36075
0
LINE
8
BLACK
6
CONTINUOUS
10
0.55274
20
1.36075
11
0.49526
21
1.36075
0
LINE
8
BLACK
6
CONTINUOUS
10
0.49526
20
1.36075
11
0.494564
21
1.36104
0
LINE
8
BLACK
6
CONTINUOUS
10
0.496244
20
1.47728
11
0.496244
21
1.36272
0
LINE
8
BLACK
6
CONTINUOUS
10
0.496244
20
1.36272
11
0.551756
21
1.36272
0
LINE
8
BLACK
6
CONTINUOUS
10
0.551756
20
1.36272
11
0.551756
21
1.47728
0
LINE
8
BLACK
6
CONTINUOUS
10
0.551756
20
1.47728
11
0.496244
21
1.47728
0
LINE
8
BLACK
6
CONTINUOUS
10
0.638564
20
1.39504
11
0.638276
21
1.39573
0
LINE
8
BLACK
6
CONTINUOUS
10
0.638276
20
1.39573
11
0.638276
21
1.51227
0
LINE
8
BLACK
6
CONTINUOUS
10
0.638276
20
1.51227
11
0.638564
21
1.51296
0
LINE
8
BLACK
6
CONTINUOUS
10
0.638564
20
1.51296
11
0.63926
21
1.51325
0
LINE
8
BLACK
6
CONTINUOUS
10
0.63926
20
1.51325
11
0.69674
21
1.51325
0
LINE
8
BLACK
6
CONTINUOUS
10
0.69674
20
1.51325
11
0.697436
21
1.51296
0
LINE
8
BLACK
6
CONTINUOUS
10
0.697436
20
1.51296
11
0.697724
21
1.51227
0
LINE
8
BLACK
6
CONTINUOUS
10
0.697724
20
1.51227
11
0.697724
21
1.39573
0
LINE
8
BLACK
6
CONTINUOUS
10
0.697724
20
1.39573
11
0.697436
21
1.39504
0
LINE
8
BLACK
6
CONTINUOUS
10
0.697436
20
1.39504
11
0.69674
21
1.39475
0
LINE
8
BLACK
6
CONTINUOUS
10
0.69674
20
1.39475
11
0.63926
21
1.39475
0
LINE
8
BLACK
6
CONTINUOUS
10
0.63926
20
1.39475
11
0.638564
21
1.39504
0
LINE
8
BLACK
6
CONTINUOUS
10
0.640244
20
1.51128
11
0.640244
21
1.39672
0
LINE
8
BLACK
6
CONTINUOUS
10
0.640244
20
1.39672
11
0.695756
21
1.39672
0
LINE
8
BLACK
6
CONTINUOUS
10
0.695756
20
1.39672
11
0.695756
21
1.51128
0
LINE
8
BLACK
6
CONTINUOUS
10
0.695756
20
1.51128
11
0.640244
21
1.51128
0
LINE
8
BLACK
6
CONTINUOUS
10
0.274375
20
1.40571
11
0.274087
21
1.40641
0
LINE
8
BLACK
6
CONTINUOUS
10
0.274087
20
1.40641
11
0.274087
21
1.55759
0
LINE
8
BLACK
6
CONTINUOUS
10
0.274087
20
1.55759
11
0.274375
21
1.55829
0
LINE
8
BLACK
6
CONTINUOUS
10
0.274375
20
1.55829
11
0.275071
21
1.55857
0
LINE
8
BLACK
6
CONTINUOUS
10
0.275071
20
1.55857
11
0.408929
21
1.55857
0
LINE
8
BLACK
6
CONTINUOUS
10
0.408929
20
1.55857
11
0.409625
21
1.55829
0
LINE
8
BLACK
6
CONTINUOUS
10
0.409625
20
1.55829
11
0.409913
21
1.55759
0
LINE
8
BLACK
6
CONTINUOUS
10
0.409913
20
1.55759
11
0.409913
21
1.40641
0
LINE
8
BLACK
6
CONTINUOUS
10
0.409913
20
1.40641
11
0.409625
21
1.40571
0
LINE
8
BLACK
6
CONTINUOUS
10
0.409625
20
1.40571
11
0.408929
21
1.40543
0
LINE
8
BLACK
6
CONTINUOUS
10
0.408929
20
1.40543
11
0.275071
21
1.40543
0
LINE
8
BLACK
6
CONTINUOUS
10
0.275071
20
1.40543
11
0.274375
21
1.40571
0
LINE
8
BLACK
6
CONTINUOUS
10
0.276055
20
1.55661
11
0.276055
21
1.40739
0
LINE
8
BLACK
6
CONTINUOUS
10
0.276055
20
1.40739
11
0.407945
21
1.40739
0
LINE
8
BLACK
6
CONTINUOUS
10
0.407945
20
1.40739
11
0.407945
21
1.55661
0
LINE
8
BLACK
6
CONTINUOUS
10
0.407945
20
1.55661
11
0.276055
21
1.55661
0
LINE
8
BLACK
6
CONTINUOUS
10
1.19856
20
1.40704
11
1.19828
21
1.40773
0
LINE
8
BLACK
6
CONTINUOUS
10
1.19828
20
1.40773
11
1.19828
21
1.52427
0
LINE
8
BLACK
6
CONTINUOUS
10
1.19828
20
1.52427
11
1.19856
21
1.52496
0
LINE
8
BLACK
6
CONTINUOUS
10
1.19856
20
1.52496
11
1.19926
21
1.52525
0
LINE
8
BLACK
6
CONTINUOUS
10
1.19926
20
1.52525
11
1.25674
21
1.52525
0
LINE
8
BLACK
6
CONTINUOUS
10
1.25674
20
1.52525
11
1.25744
21
1.52496
0
LINE
8
BLACK
6
CONTINUOUS
10
1.25744
20
1.52496
11
1.25772
21
1.52427
0
LINE
8
BLACK
6
CONTINUOUS
10
1.25772
20
1.52427
11
1.25772
21
1.40773
0
LINE
8
BLACK
6
CONTINUOUS
10
1.25772
20
1.40773
11
1.25744
21
1.40704
0
LINE
8
BLACK
6
CONTINUOUS
10
1.25744
20
1.40704
11
1.25674
21
1.40675
0
LINE
8
BLACK
6
CONTINUOUS
10
1.25674
20
1.40675
11
1.19926
21
1.40675
0
LINE
8
BLACK
6
CONTINUOUS
10
1.19926
20
1.40675
11
1.19856
21
1.40704
0
LINE
8
BLACK
6
CONTINUOUS
10
1.20024
20
1.52328
11
1.20024
21
1.40872
0
LINE
8
BLACK
6
CONTINUOUS
10
1.20024
20
1.40872
11
1.25576
21
1.40872
0
LINE
8
BLACK
6
CONTINUOUS
10
1.25576
20
1.40872
11
1.25576
21
1.52328
0
LINE
8
BLACK
6
CONTINUOUS
10
1.25576
20
1.52328
11
1.20024
21
1.52328
0
LINE
8
BLACK
6
CONTINUOUS
10
0.422564
20
1.41304
11
0.422276
21
1.41373
0
LINE
8
BLACK
6
CONTINUOUS
10
0.422276
20
1.41373
11
0.422276
21
1.53027
0
LINE
8
BLACK
6
CONTINUOUS
10
0.422276
20
1.53027
11
0.422564
21
1.53096
0
LINE
8
BLACK
6
CONTINUOUS
10
0.422564
20
1.53096
11
0.42326
21
1.53125
0
LINE
8
BLACK
6
CONTINUOUS
10
0.42326
20
1.53125
11
0.48074
21
1.53125
0
LINE
8
BLACK
6
CONTINUOUS
10
0.48074
20
1.53125
11
0.481436
21
1.53096
0
LINE
8
BLACK
6
CONTINUOUS
10
0.481436
20
1.53096
11
0.481724
21
1.53027
0
LINE
8
BLACK
6
CONTINUOUS
10
0.481724
20
1.53027
11
0.481724
21
1.41373
0
LINE
8
BLACK
6
CONTINUOUS
10
0.481724
20
1.41373
11
0.481436
21
1.41304
0
LINE
8
BLACK
6
CONTINUOUS
10
0.481436
20
1.41304
11
0.48074
21
1.41275
0
LINE
8
BLACK
6
CONTINUOUS
10
0.48074
20
1.41275
11
0.42326
21
1.41275
0
LINE
8
BLACK
6
CONTINUOUS
10
0.42326
20
1.41275
11
0.422564
21
1.41304
0
LINE
8
BLACK
6
CONTINUOUS
10
0.424244
20
1.52928
11
0.424244
21
1.41472
0
LINE
8
BLACK
6
CONTINUOUS
10
0.424244
20
1.41472
11
0.479756
21
1.41472
0
LINE
8
BLACK
6
CONTINUOUS
10
0.479756
20
1.41472
11
0.479756
21
1.52928
0
LINE
8
BLACK
6
CONTINUOUS
10
0.479756
20
1.52928
11
0.424244
21
1.52928
0
LINE
8
BLACK
6
CONTINUOUS
10
0.921036
20
1.43856
11
0.920748
21
1.43926
0
LINE
8
BLACK
6
CONTINUOUS
10
0.920748
20
1.43926
11
0.920748
21
1.49674
0
LINE
8
BLACK
6
CONTINUOUS
10
0.920748
20
1.49674
11
0.921036
21
1.49744
0
LINE
8
BLACK
6
CONTINUOUS
10
0.921036
20
1.49744
11
0.921732
21
1.49772
0
LINE
8
BLACK
6
CONTINUOUS
10
0.921732
20
1.49772
11
1.03827
21
1.49772
0
LINE
8
BLACK
6
CONTINUOUS
10
1.03827
20
1.49772
11
1.03896
21
1.49744
0
LINE
8
BLACK
6
CONTINUOUS
10
1.03896
20
1.49744
11
1.03925
21
1.49674
0
LINE
8
BLACK
6
CONTINUOUS
10
1.03925
20
1.49674
11
1.03925
21
1.43926
0
LINE
8
BLACK
6
CONTINUOUS
10
1.03925
20
1.43926
11
1.03896
21
1.43856
0
LINE
8
BLACK
6
CONTINUOUS
10
1.03896
20
1.43856
11
1.03827
21
1.43828
0
LINE
8
BLACK
6
CONTINUOUS
10
1.03827
20
1.43828
11
0.921732
21
1.43828
0
LINE
8
BLACK
6
CONTINUOUS
10
0.921732
20
1.43828
11
0.921036
21
1.43856
0
LINE
8
BLACK
6
CONTINUOUS
10
0.922717
20
1.49576
11
0.922717
21
1.44024
0
LINE
8
BLACK
6
CONTINUOUS
10
0.922717
20
1.44024
11
1.03728
21
1.44024
0
LINE
8
BLACK
6
CONTINUOUS
10
1.03728
20
1.44024
11
1.03728
21
1.49576
0
LINE
8
BLACK
6
CONTINUOUS
10
1.03728
20
1.49576
11
0.922717
21
1.49576
0
LINE
8
BLACK
6
CONTINUOUS
10
0.777036
20
1.43856
11
0.776748
21
1.43926
0
LINE
8
BLACK
6
CONTINUOUS
10
0.776748
20
1.43926
11
0.776748
21
1.49674
0
LINE
8
BLACK
6
CONTINUOUS
10
0.776748
20
1.49674
11
0.777036
21
1.49744
0
LINE
8
BLACK
6
CONTINUOUS
10
0.777036
20
1.49744
11
0.777732
21
1.49772
0
LINE
8
BLACK
6
CONTINUOUS
10
0.777732
20
1.49772
11
0.894268
21
1.49772
0
LINE
8
BLACK
6
CONTINUOUS
10
0.894268
20
1.49772
11
0.894964
21
1.49744
0
LINE
8
BLACK
6
CONTINUOUS
10
0.894964
20
1.49744
11
0.895252
21
1.49674
0
LINE
8
BLACK
6
CONTINUOUS
10
0.895252
20
1.49674
11
0.895252
21
1.43926
0
LINE
8
BLACK
6
CONTINUOUS
10
0.895252
20
1.43926
11
0.894964
21
1.43856
0
LINE
8
BLACK
6
CONTINUOUS
10
0.894964
20
1.43856
11
0.894268
21
1.43828
0
LINE
8
BLACK
6
CONTINUOUS
10
0.894268
20
1.43828
11
0.777732
21
1.43828
0
LINE
8
BLACK
6
CONTINUOUS
10
0.777732
20
1.43828
11
0.777036
21
1.43856
0
LINE
8
BLACK
6
CONTINUOUS
10
0.778717
20
1.49576
11
0.778717
21
1.44024
0
LINE
8
BLACK
6
CONTINUOUS
10
0.778717
20
1.44024
11
0.893283
21
1.44024
0
LINE
8
BLACK
6
CONTINUOUS
10
0.893283
20
1.44024
11
0.893283
21
1.49576
0
LINE
8
BLACK
6
CONTINUOUS
10
0.893283
20
1.49576
11
0.778717
21
1.49576
0
LINE
8
BLACK
6
CONTINUOUS
10
1.06104
20
1.43856
11
1.06075
21
1.43926
0
LINE
8
BLACK
6
CONTINUOUS
10
1.06075
20
1.43926
11
1.06075
21
1.49674
0
LINE
8
BLACK
6
CONTINUOUS
10
1.06075
20
1.49674
11
1.06104
21
1.49744
0
LINE
8
BLACK
6
CONTINUOUS
10
1.06104
20
1.49744
11
1.06173
21
1.49772
0
LINE
8
BLACK
6
CONTINUOUS
10
1.06173
20
1.49772
11
1.17827
21
1.49772
0
LINE
8
BLACK
6
CONTINUOUS
10
1.17827
20
1.49772
11
1.17896
21
1.49744
0
LINE
8
BLACK
6
CONTINUOUS
10
1.17896
20
1.49744
11
1.17925
21
1.49674
0
LINE
8
BLACK
6
CONTINUOUS
10
1.17925
20
1.49674
11
1.17925
21
1.43926
0
LINE
8
BLACK
6
CONTINUOUS
10
1.17925
20
1.43926
11
1.17896
21
1.43856
0
LINE
8
BLACK
6
CONTINUOUS
10
1.17896
20
1.43856
11
1.17827
21
1.43828
0
LINE
8
BLACK
6
CONTINUOUS
10
1.17827
20
1.43828
11
1.06173
21
1.43828
0
LINE
8
BLACK
6
CONTINUOUS
10
1.06173
20
1.43828
11
1.06104
21
1.43856
0
LINE
8
BLACK
6
CONTINUOUS
10
1.06272
20
1.49576
11
1.06272
21
1.44024
0
LINE
8
BLACK
6
CONTINUOUS
10
1.06272
20
1.44024
11
1.17728
21
1.44024
0
LINE
8
BLACK
6
CONTINUOUS
10
1.17728
20
1.44024
11
1.17728
21
1.49576
0
LINE
8
BLACK
6
CONTINUOUS
10
1.17728
20
1.49576
11
1.06272
21
1.49576
0
LINE
8
BLACK
6
CONTINUOUS
10
0.566564
20
1.45052
11
0.566276
21
1.45122
0
LINE
8
BLACK
6
CONTINUOUS
10
0.566276
20
1.45122
11
0.566276
21
1.56776
0
LINE
8
BLACK
6
CONTINUOUS
10
0.566276
20
1.56776
11
0.566564
21
1.56845
0
LINE
8
BLACK
6
CONTINUOUS
10
0.566564
20
1.56845
11
0.56726
21
1.56874
0
LINE
8
BLACK
6
CONTINUOUS
10
0.56726
20
1.56874
11
0.62474
21
1.56874
0
LINE
8
BLACK
6
CONTINUOUS
10
0.62474
20
1.56874
11
0.625436
21
1.56845
0
LINE
8
BLACK
6
CONTINUOUS
10
0.625436
20
1.56845
11
0.625724
21
1.56776
0
LINE
8
BLACK
6
CONTINUOUS
10
0.625724
20
1.56776
11
0.625724
21
1.45122
0
LINE
8
BLACK
6
CONTINUOUS
10
0.625724
20
1.45122
11
0.625436
21
1.45052
0
LINE
8
BLACK
6
CONTINUOUS
10
0.625436
20
1.45052
11
0.62474
21
1.45024
0
LINE
8
BLACK
6
CONTINUOUS
10
0.62474
20
1.45024
11
0.56726
21
1.45024
0
LINE
8
BLACK
6
CONTINUOUS
10
0.56726
20
1.45024
11
0.566564
21
1.45052
0
LINE
8
BLACK
6
CONTINUOUS
10
0.568244
20
1.56677
11
0.568244
21
1.4522
0
LINE
8
BLACK
6
CONTINUOUS
10
0.568244
20
1.4522
11
0.623756
21
1.4522
0
LINE
8
BLACK
6
CONTINUOUS
10
0.623756
20
1.4522
11
0.623756
21
1.56677
0
LINE
8
BLACK
6
CONTINUOUS
10
0.623756
20
1.56677
11
0.568244
21
1.56677
0
LINE
8
BLACK
6
CONTINUOUS
10
2.9986
20
0.392375
11
2.99831
21
0.393071
0
LINE
8
BLACK
6
CONTINUOUS
10
2.99831
20
0.393071
11
2.99831
21
0.526929
0
LINE
8
BLACK
6
CONTINUOUS
10
2.99831
20
0.526929
11
2.9986
21
0.527625
0
LINE
8
BLACK
6
CONTINUOUS
10
2.9986
20
0.527625
11
2.99929
21
0.527913
0
LINE
8
BLACK
6
CONTINUOUS
10
2.99929
20
0.527913
11
3.16071
21
0.527913
0
LINE
8
BLACK
6
CONTINUOUS
10
3.16071
20
0.527913
11
3.1614
21
0.527625
0
LINE
8
BLACK
6
CONTINUOUS
10
3.1614
20
0.527625
11
3.16169
21
0.526929
0
LINE
8
BLACK
6
CONTINUOUS
10
3.16169
20
0.526929
11
3.16169
21
0.393071
0
LINE
8
BLACK
6
CONTINUOUS
10
3.16169
20
0.393071
11
3.1614
21
0.392375
0
LINE
8
BLACK
6
CONTINUOUS
10
3.1614
20
0.392375
11
3.16071
21
0.392087
0
LINE
8
BLACK
6
CONTINUOUS
10
3.16071
20
0.392087
11
2.99929
21
0.392087
0
LINE
8
BLACK
6
CONTINUOUS
10
2.99929
20
0.392087
11
2.9986
21
0.392375
0
LINE
8
BLACK
6
CONTINUOUS
10
3.00028
20
0.525945
11
3.00028
21
0.394055
0
LINE
8
BLACK
6
CONTINUOUS
10
3.00028
20
0.394055
11
3.15972
21
0.394055
0
LINE
8
BLACK
6
CONTINUOUS
10
3.15972
20
0.394055
11
3.15972
21
0.525945
0
LINE
8
BLACK
6
CONTINUOUS
10
3.15972
20
0.525945
11
3.00028
21
0.525945
0
LINE
8
BLACK
6
CONTINUOUS
10
2.74104
20
0.470564
11
2.74075
21
0.47126
0
LINE
8
BLACK
6
CONTINUOUS
10
2.74075
20
0.47126
11
2.74075
21
0.52874
0
LINE
8
BLACK
6
CONTINUOUS
10
2.74075
20
0.52874
11
2.74104
21
0.529436
0
LINE
8
BLACK
6
CONTINUOUS
10
2.74104
20
0.529436
11
2.74173
21
0.529724
0
LINE
8
BLACK
6
CONTINUOUS
10
2.74173
20
0.529724
11
2.85827
21
0.529724
0
LINE
8
BLACK
6
CONTINUOUS
10
2.85827
20
0.529724
11
2.85896
21
0.529436
0
LINE
8
BLACK
6
CONTINUOUS
10
2.85896
20
0.529436
11
2.85925
21
0.52874
0
LINE
8
BLACK
6
CONTINUOUS
10
2.85925
20
0.52874
11
2.85925
21
0.47126
0
LINE
8
BLACK
6
CONTINUOUS
10
2.85925
20
0.47126
11
2.85896
21
0.470564
0
LINE
8
BLACK
6
CONTINUOUS
10
2.85896
20
0.470564
11
2.85827
21
0.470276
0
LINE
8
BLACK
6
CONTINUOUS
10
2.85827
20
0.470276
11
2.74173
21
0.470276
0
LINE
8
BLACK
6
CONTINUOUS
10
2.74173
20
0.470276
11
2.74104
21
0.470564
0
LINE
8
BLACK
6
CONTINUOUS
10
2.74272
20
0.527756
11
2.74272
21
0.472244
0
LINE
8
BLACK
6
CONTINUOUS
10
2.74272
20
0.472244
11
2.85728
21
0.472244
0
LINE
8
BLACK
6
CONTINUOUS
10
2.85728
20
0.472244
11
2.85728
21
0.527756
0
LINE
8
BLACK
6
CONTINUOUS
10
2.85728
20
0.527756
11
2.74272
21
0.527756
0
LINE
8
BLACK
6
CONTINUOUS
10
2.67104
20
0.550564
11
2.67075
21
0.55126
0
LINE
8
BLACK
6
CONTINUOUS
10
2.67075
20
0.55126
11
2.67075
21
0.60874
0
LINE
8
BLACK
6
CONTINUOUS
10
2.67075
20
0.60874
11
2.67104
21
0.609436
0
LINE
8
BLACK
6
CONTINUOUS
10
2.67104
20
0.609436
11
2.67173
21
0.609724
0
LINE
8
BLACK
6
CONTINUOUS
10
2.67173
20
0.609724
11
2.78827
21
0.609724
0
LINE
8
BLACK
6
CONTINUOUS
10
2.78827
20
0.609724
11
2.78896
21
0.609436
0
LINE
8
BLACK
6
CONTINUOUS
10
2.78896
20
0.609436
11
2.78925
21
0.60874
0
LINE
8
BLACK
6
CONTINUOUS
10
2.78925
20
0.60874
11
2.78925
21
0.55126
0
LINE
8
BLACK
6
CONTINUOUS
10
2.78925
20
0.55126
11
2.78896
21
0.550564
0
LINE
8
BLACK
6
CONTINUOUS
10
2.78896
20
0.550564
11
2.78827
21
0.550276
0
LINE
8
BLACK
6
CONTINUOUS
10
2.78827
20
0.550276
11
2.67173
21
0.550276
0
LINE
8
BLACK
6
CONTINUOUS
10
2.67173
20
0.550276
11
2.67104
21
0.550564
0
LINE
8
BLACK
6
CONTINUOUS
10
2.67272
20
0.607756
11
2.67272
21
0.552244
0
LINE
8
BLACK
6
CONTINUOUS
10
2.67272
20
0.552244
11
2.78728
21
0.552244
0
LINE
8
BLACK
6
CONTINUOUS
10
2.78728
20
0.552244
11
2.78728
21
0.607756
0
LINE
8
BLACK
6
CONTINUOUS
10
2.78728
20
0.607756
11
2.67272
21
0.607756
0
LINE
8
BLACK
6
CONTINUOUS
10
2.83694
20
0.576942
11
2.83665
21
0.577638
0
LINE
8
BLACK
6
CONTINUOUS
10
2.83665
20
0.577638
11
2.83665
21
0.782362
0
LINE
8
BLACK
6
CONTINUOUS
10
2.83665
20
0.782362
11
2.83694
21
0.783058
0
LINE
8
BLACK
6
CONTINUOUS
10
2.83694
20
0.783058
11
2.83764
21
0.783346
0
LINE
8
BLACK
6
CONTINUOUS
10
2.83764
20
0.783346
11
3.04236
21
0.783346
0
LINE
8
BLACK
6
CONTINUOUS
10
3.04236
20
0.783346
11
3.04306
21
0.783058
0
LINE
8
BLACK
6
CONTINUOUS
10
3.04306
20
0.783058
11
3.04335
21
0.782362
0
LINE
8
BLACK
6
CONTINUOUS
10
3.04335
20
0.782362
11
3.04335
21
0.577638
0
LINE
8
BLACK
6
CONTINUOUS
10
3.04335
20
0.577638
11
3.04306
21
0.576942
0
LINE
8
BLACK
6
CONTINUOUS
10
3.04306
20
0.576942
11
3.04236
21
0.576654
0
LINE
8
BLACK
6
CONTINUOUS
10
3.04236
20
0.576654
11
2.83764
21
0.576654
0
LINE
8
BLACK
6
CONTINUOUS
10
2.83764
20
0.576654
11
2.83694
21
0.576942
0
LINE
8
BLACK
6
CONTINUOUS
10
2.83862
20
0.781378
11
2.83862
21
0.578622
0
LINE
8
BLACK
6
CONTINUOUS
10
2.83862
20
0.578622
11
3.04138
21
0.578622
0
LINE
8
BLACK
6
CONTINUOUS
10
3.04138
20
0.578622
11
3.04138
21
0.781378
0
LINE
8
BLACK
6
CONTINUOUS
10
3.04138
20
0.781378
11
2.83862
21
0.781378
0
LINE
8
BLACK
6
CONTINUOUS
10
2.06104
20
0.620564
11
2.06075
21
0.62126
0
LINE
8
BLACK
6
CONTINUOUS
10
2.06075
20
0.62126
11
2.06075
21
0.67874
0
LINE
8
BLACK
6
CONTINUOUS
10
2.06075
20
0.67874
11
2.06104
21
0.679436
0
LINE
8
BLACK
6
CONTINUOUS
10
2.06104
20
0.679436
11
2.06173
21
0.679724
0
LINE
8
BLACK
6
CONTINUOUS
10
2.06173
20
0.679724
11
2.17827
21
0.679724
0
LINE
8
BLACK
6
CONTINUOUS
10
2.17827
20
0.679724
11
2.17896
21
0.679436
0
LINE
8
BLACK
6
CONTINUOUS
10
2.17896
20
0.679436
11
2.17925
21
0.67874
0
LINE
8
BLACK
6
CONTINUOUS
10
2.17925
20
0.67874
11
2.17925
21
0.62126
0
LINE
8
BLACK
6
CONTINUOUS
10
2.17925
20
0.62126
11
2.17896
21
0.620564
0
LINE
8
BLACK
6
CONTINUOUS
10
2.17896
20
0.620564
11
2.17827
21
0.620276
0
LINE
8
BLACK
6
CONTINUOUS
10
2.17827
20
0.620276
11
2.06173
21
0.620276
0
LINE
8
BLACK
6
CONTINUOUS
10
2.06173
20
0.620276
11
2.06104
21
0.620564
0
LINE
8
BLACK
6
CONTINUOUS
10
2.06272
20
0.677756
11
2.06272
21
0.622244
0
LINE
8
BLACK
6
CONTINUOUS
10
2.06272
20
0.622244
11
2.17728
21
0.622244
0
LINE
8
BLACK
6
CONTINUOUS
10
2.17728
20
0.622244
11
2.17728
21
0.677756
0
LINE
8
BLACK
6
CONTINUOUS
10
2.17728
20
0.677756
11
2.06272
21
0.677756
0
LINE
8
BLACK
6
CONTINUOUS
10
2.74056
20
0.621548
11
2.74028
21
0.622244
0
LINE
8
BLACK
6
CONTINUOUS
10
2.74028
20
0.622244
11
2.74028
21
0.73878
0
LINE
8
BLACK
6
CONTINUOUS
10
2.74028
20
0.73878
11
2.74056
21
0.739476
0
LINE
8
BLACK
6
CONTINUOUS
10
2.74056
20
0.739476
11
2.74126
21
0.739764
0
LINE
8
BLACK
6
CONTINUOUS
10
2.74126
20
0.739764
11
2.79874
21
0.739764
0
LINE
8
BLACK
6
CONTINUOUS
10
2.79874
20
0.739764
11
2.79944
21
0.739476
0
LINE
8
BLACK
6
CONTINUOUS
10
2.79944
20
0.739476
11
2.79972
21
0.73878
0
LINE
8
BLACK
6
CONTINUOUS
10
2.79972
20
0.73878
11
2.79972
21
0.622244
0
LINE
8
BLACK
6
CONTINUOUS
10
2.79972
20
0.622244
11
2.79944
21
0.621548
0
LINE
8
BLACK
6
CONTINUOUS
10
2.79944
20
0.621548
11
2.79874
21
0.62126
0
LINE
8
BLACK
6
CONTINUOUS
10
2.79874
20
0.62126
11
2.74126
21
0.62126
0
LINE
8
BLACK
6
CONTINUOUS
10
2.74126
20
0.62126
11
2.74056
21
0.621548
0
LINE
8
BLACK
6
CONTINUOUS
10
2.74224
20
0.737795
11
2.74224
21
0.623228
0
LINE
8
BLACK
6
CONTINUOUS
10
2.74224
20
0.623228
11
2.79776
21
0.623228
0
LINE
8
BLACK
6
CONTINUOUS
10
2.79776
20
0.623228
11
2.79776
21
0.737795
0
LINE
8
BLACK
6
CONTINUOUS
10
2.79776
20
0.737795
11
2.74224
21
0.737795
0
LINE
8
BLACK
6
CONTINUOUS
10
2.23363
20
0.643005
11
2.23335
21
0.643701
0
LINE
8
BLACK
6
CONTINUOUS
10
2.23335
20
0.643701
11
2.23335
21
0.856299
0
LINE
8
BLACK
6
CONTINUOUS
10
2.23335
20
0.856299
11
2.23363
21
0.856995
0
LINE
8
BLACK
6
CONTINUOUS
10
2.23363
20
0.856995
11
2.23433
21
0.857283
0
LINE
8
BLACK
6
CONTINUOUS
10
2.23433
20
0.857283
11
2.52567
21
0.857283
0
LINE
8
BLACK
6
CONTINUOUS
10
2.52567
20
0.857283
11
2.52637
21
0.856995
0
LINE
8
BLACK
6
CONTINUOUS
10
2.52637
20
0.856995
11
2.52665
21
0.856299
0
LINE
8
BLACK
6
CONTINUOUS
10
2.52665
20
0.856299
11
2.52665
21
0.643701
0
LINE
8
BLACK
6
CONTINUOUS
10
2.52665
20
0.643701
11
2.52637
21
0.643005
0
LINE
8
BLACK
6
CONTINUOUS
10
2.52637
20
0.643005
11
2.52567
21
0.642717
0
LINE
8
BLACK
6
CONTINUOUS
10
2.52567
20
0.642717
11
2.23433
21
0.642717
0
LINE
8
BLACK
6
CONTINUOUS
10
2.23433
20
0.642717
11
2.23363
21
0.643005
0
LINE
8
BLACK
6
CONTINUOUS
10
2.23531
20
0.855315
11
2.23531
21
0.644685
0
LINE
8
BLACK
6
CONTINUOUS
10
2.23531
20
0.644685
11
2.52469
21
0.644685
0
LINE
8
BLACK
6
CONTINUOUS
10
2.52469
20
0.644685
11
2.52469
21
0.855315
0
LINE
8
BLACK
6
CONTINUOUS
10
2.52469
20
0.855315
11
2.23531
21
0.855315
0
LINE
8
BLACK
6
CONTINUOUS
10
3.09056
20
0.651036
11
3.09028
21
0.651732
0
LINE
8
BLACK
6
CONTINUOUS
10
3.09028
20
0.651732
11
3.09028
21
0.768268
0
LINE
8
BLACK
6
CONTINUOUS
10
3.09028
20
0.768268
11
3.09056
21
0.768964
0
LINE
8
BLACK
6
CONTINUOUS
10
3.09056
20
0.768964
11
3.09126
21
0.769252
0
LINE
8
BLACK
6
CONTINUOUS
10
3.09126
20
0.769252
11
3.14874
21
0.769252
0
LINE
8
BLACK
6
CONTINUOUS
10
3.14874
20
0.769252
11
3.14944
21
0.768964
0
LINE
8
BLACK
6
CONTINUOUS
10
3.14944
20
0.768964
11
3.14972
21
0.768268
0
LINE
8
BLACK
6
CONTINUOUS
10
3.14972
20
0.768268
11
3.14972
21
0.651732
0
LINE
8
BLACK
6
CONTINUOUS
10
3.14972
20
0.651732
11
3.14944
21
0.651036
0
LINE
8
BLACK
6
CONTINUOUS
10
3.14944
20
0.651036
11
3.14874
21
0.650748
0
LINE
8
BLACK
6
CONTINUOUS
10
3.14874
20
0.650748
11
3.09126
21
0.650748
0
LINE
8
BLACK
6
CONTINUOUS
10
3.09126
20
0.650748
11
3.09056
21
0.651036
0
LINE
8
BLACK
6
CONTINUOUS
10
3.09224
20
0.767283
11
3.09224
21
0.652717
0
LINE
8
BLACK
6
CONTINUOUS
10
3.09224
20
0.652717
11
3.14776
21
0.652717
0
LINE
8
BLACK
6
CONTINUOUS
10
3.14776
20
0.652717
11
3.14776
21
0.767283
0
LINE
8
BLACK
6
CONTINUOUS
10
3.14776
20
0.767283
11
3.09224
21
0.767283
0
LINE
8
BLACK
6
CONTINUOUS
10
2.06104
20
0.690564
11
2.06075
21
0.69126
0
LINE
8
BLACK
6
CONTINUOUS
10
2.06075
20
0.69126
11
2.06075
21
0.74874
0
LINE
8
BLACK
6
CONTINUOUS
10
2.06075
20
0.74874
11
2.06104
21
0.749436
0
LINE
8
BLACK
6
CONTINUOUS
10
2.06104
20
0.749436
11
2.06173
21
0.749724
0
LINE
8
BLACK
6
CONTINUOUS
10
2.06173
20
0.749724
11
2.17827
21
0.749724
0
LINE
8
BLACK
6
CONTINUOUS
10
2.17827
20
0.749724
11
2.17896
21
0.749436
0
LINE
8
BLACK
6
CONTINUOUS
10
2.17896
20
0.749436
11
2.17925
21
0.74874
0
LINE
8
BLACK
6
CONTINUOUS
10
2.17925
20
0.74874
11
2.17925
21
0.69126
0
LINE
8
BLACK
6
CONTINUOUS
10
2.17925
20
0.69126
11
2.17896
21
0.690564
0
LINE
8
BLACK
6
CONTINUOUS
10
2.17896
20
0.690564
11
2.17827
21
0.690276
0
LINE
8
BLACK
6
CONTINUOUS
10
2.17827
20
0.690276
11
2.06173
21
0.690276
0
LINE
8
BLACK
6
CONTINUOUS
10
2.06173
20
0.690276
11
2.06104
21
0.690564
0
LINE
8
BLACK
6
CONTINUOUS
10
2.06272
20
0.747756
11
2.06272
21
0.692244
0
LINE
8
BLACK
6
CONTINUOUS
10
2.06272
20
0.692244
11
2.17728
21
0.692244
0
LINE
8
BLACK
6
CONTINUOUS
10
2.17728
20
0.692244
11
2.17728
21
0.747756
0
LINE
8
BLACK
6
CONTINUOUS
10
2.17728
20
0.747756
11
2.06272
21
0.747756
0
LINE
8
BLACK
6
CONTINUOUS
10
3.33332
20
0.693871
11
3.33303
21
0.694567
0
LINE
8
BLACK
6
CONTINUOUS
10
3.33303
20
0.694567
11
3.33303
21
1.16543
0
LINE
8
BLACK
6
CONTINUOUS
10
3.33303
20
1.16543
11
3.33332
21
1.16613
0
LINE
8
BLACK
6
CONTINUOUS
10
3.33332
20
1.16613
11
3.33402
21
1.16642
0
LINE
8
BLACK
6
CONTINUOUS
10
3.33402
20
1.16642
11
3.58598
21
1.16642
0
LINE
8
BLACK
6
CONTINUOUS
10
3.58598
20
1.16642
11
3.58668
21
1.16613
0
LINE
8
BLACK
6
CONTINUOUS
10
3.58668
20
1.16613
11
3.58697
21
1.16543
0
LINE
8
BLACK
6
CONTINUOUS
10
3.58697
20
1.16543
11
3.58697
21
0.694567
0
LINE
8
BLACK
6
CONTINUOUS
10
3.58697
20
0.694567
11
3.58668
21
0.693871
0
LINE
8
BLACK
6
CONTINUOUS
10
3.58668
20
0.693871
11
3.58598
21
0.693583
0
LINE
8
BLACK
6
CONTINUOUS
10
3.58598
20
0.693583
11
3.33402
21
0.693583
0
LINE
8
BLACK
6
CONTINUOUS
10
3.33402
20
0.693583
11
3.33332
21
0.693871
0
LINE
8
BLACK
6
CONTINUOUS
10
3.335
20
1.16445
11
3.335
21
0.695551
0
LINE
8
BLACK
6
CONTINUOUS
10
3.335
20
0.695551
11
3.585
21
0.695551
0
LINE
8
BLACK
6
CONTINUOUS
10
3.585
20
0.695551
11
3.585
21
1.16445
0
LINE
8
BLACK
6
CONTINUOUS
10
3.585
20
1.16445
11
3.335
21
1.16445
0
LINE
8
BLACK
6
CONTINUOUS
10
2.56056
20
0.761036
11
2.56028
21
0.761732
0
LINE
8
BLACK
6
CONTINUOUS
10
2.56028
20
0.761732
11
2.56028
21
0.878268
0
LINE
8
BLACK
6
CONTINUOUS
10
2.56028
20
0.878268
11
2.56056
21
0.878964
0
LINE
8
BLACK
6
CONTINUOUS
10
2.56056
20
0.878964
11
2.56126
21
0.879252
0
LINE
8
BLACK
6
CONTINUOUS
10
2.56126
20
0.879252
11
2.61874
21
0.879252
0
LINE
8
BLACK
6
CONTINUOUS
10
2.61874
20
0.879252
11
2.61944
21
0.878964
0
LINE
8
BLACK
6
CONTINUOUS
10
2.61944
20
0.878964
11
2.61972
21
0.878268
0
LINE
8
BLACK
6
CONTINUOUS
10
2.61972
20
0.878268
11
2.61972
21
0.761732
0
LINE
8
BLACK
6
CONTINUOUS
10
2.61972
20
0.761732
11
2.61944
21
0.761036
0
LINE
8
BLACK
6
CONTINUOUS
10
2.61944
20
0.761036
11
2.61874
21
0.760748
0
LINE
8
BLACK
6
CONTINUOUS
10
2.61874
20
0.760748
11
2.56126
21
0.760748
0
LINE
8
BLACK
6
CONTINUOUS
10
2.56126
20
0.760748
11
2.56056
21
0.761036
0
LINE
8
BLACK
6
CONTINUOUS
10
2.56224
20
0.877283
11
2.56224
21
0.762717
0
LINE
8
BLACK
6
CONTINUOUS
10
2.56224
20
0.762717
11
2.61776
21
0.762717
0
LINE
8
BLACK
6
CONTINUOUS
10
2.61776
20
0.762717
11
2.61776
21
0.877283
0
LINE
8
BLACK
6
CONTINUOUS
10
2.61776
20
0.877283
11
2.56224
21
0.877283
0
LINE
8
BLACK
6
CONTINUOUS
10
3.17434
20
0.780091
11
3.17406
21
0.780787
0
LINE
8
BLACK
6
CONTINUOUS
10
3.17406
20
0.780787
11
3.17406
21
0.879213
0
LINE
8
BLACK
6
CONTINUOUS
10
3.17406
20
0.879213
11
3.17434
21
0.879909
0
LINE
8
BLACK
6
CONTINUOUS
10
3.17434
20
0.879909
11
3.17504
21
0.880197
0
LINE
8
BLACK
6
CONTINUOUS
10
3.17504
20
0.880197
11
3.30496
21
0.880197
0
LINE
8
BLACK
6
CONTINUOUS
10
3.30496
20
0.880197
11
3.30566
21
0.879909
0
LINE
8
BLACK
6
CONTINUOUS
10
3.30566
20
0.879909
11
3.30594
21
0.879213
0
LINE
8
BLACK
6
CONTINUOUS
10
3.30594
20
0.879213
11
3.30594
21
0.780787
0
LINE
8
BLACK
6
CONTINUOUS
10
3.30594
20
0.780787
11
3.30566
21
0.780091
0
LINE
8
BLACK
6
CONTINUOUS
10
3.30566
20
0.780091
11
3.30496
21
0.779803
0
LINE
8
BLACK
6
CONTINUOUS
10
3.30496
20
0.779803
11
3.17504
21
0.779803
0
LINE
8
BLACK
6
CONTINUOUS
10
3.17504
20
0.779803
11
3.17434
21
0.780091
0
LINE
8
BLACK
6
CONTINUOUS
10
3.17602
20
0.878228
11
3.17602
21
0.781772
0
LINE
8
BLACK
6
CONTINUOUS
10
3.17602
20
0.781772
11
3.30398
21
0.781772
0
LINE
8
BLACK
6
CONTINUOUS
10
3.30398
20
0.781772
11
3.30398
21
0.878228
0
LINE
8
BLACK
6
CONTINUOUS
10
3.30398
20
0.878228
11
3.17602
21
0.878228
0
LINE
8
BLACK
6
CONTINUOUS
10
3.05104
20
0.800564
11
3.05075
21
0.80126
0
LINE
8
BLACK
6
CONTINUOUS
10
3.05075
20
0.80126
11
3.05075
21
0.85874
0
LINE
8
BLACK
6
CONTINUOUS
10
3.05075
20
0.85874
11
3.05104
21
0.859436
0
LINE
8
BLACK
6
CONTINUOUS
10
3.05104
20
0.859436
11
3.05173
21
0.859724
0
LINE
8
BLACK
6
CONTINUOUS
10
3.05173
20
0.859724
11
3.16827
21
0.859724
0
LINE
8
BLACK
6
CONTINUOUS
10
3.16827
20
0.859724
11
3.16896
21
0.859436
0
LINE
8
BLACK
6
CONTINUOUS
10
3.16896
20
0.859436
11
3.16925
21
0.85874
0
LINE
8
BLACK
6
CONTINUOUS
10
3.16925
20
0.85874
11
3.16925
21
0.80126
0
LINE
8
BLACK
6
CONTINUOUS
10
3.16925
20
0.80126
11
3.16896
21
0.800564
0
LINE
8
BLACK
6
CONTINUOUS
10
3.16896
20
0.800564
11
3.16827
21
0.800276
0
LINE
8
BLACK
6
CONTINUOUS
10
3.16827
20
0.800276
11
3.05173
21
0.800276
0
LINE
8
BLACK
6
CONTINUOUS
10
3.05173
20
0.800276
11
3.05104
21
0.800564
0
LINE
8
BLACK
6
CONTINUOUS
10
3.05272
20
0.857756
11
3.05272
21
0.802244
0
LINE
8
BLACK
6
CONTINUOUS
10
3.05272
20
0.802244
11
3.16728
21
0.802244
0
LINE
8
BLACK
6
CONTINUOUS
10
3.16728
20
0.802244
11
3.16728
21
0.857756
0
LINE
8
BLACK
6
CONTINUOUS
10
3.16728
20
0.857756
11
3.05272
21
0.857756
0
LINE
8
BLACK
6
CONTINUOUS
10
2.6586
20
0.812375
11
2.65831
21
0.813071
0
LINE
8
BLACK
6
CONTINUOUS
10
2.65831
20
0.813071
11
2.65831
21
0.946929
0
LINE
8
BLACK
6
CONTINUOUS
10
2.65831
20
0.946929
11
2.6586
21
0.947625
0
LINE
8
BLACK
6
CONTINUOUS
10
2.6586
20
0.947625
11
2.65929
21
0.947913
0
LINE
8
BLACK
6
CONTINUOUS
10
2.65929
20
0.947913
11
2.82071
21
0.947913
0
LINE
8
BLACK
6
CONTINUOUS
10
2.82071
20
0.947913
11
2.8214
21
0.947625
0
LINE
8
BLACK
6
CONTINUOUS
10
2.8214
20
0.947625
11
2.82169
21
0.946929
0
LINE
8
BLACK
6
CONTINUOUS
10
2.82169
20
0.946929
11
2.82169
21
0.813071
0
LINE
8
BLACK
6
CONTINUOUS
10
2.82169
20
0.813071
11
2.8214
21
0.812375
0
LINE
8
BLACK
6
CONTINUOUS
10
2.8214
20
0.812375
11
2.82071
21
0.812087
0
LINE
8
BLACK
6
CONTINUOUS
10
2.82071
20
0.812087
11
2.65929
21
0.812087
0
LINE
8
BLACK
6
CONTINUOUS
10
2.65929
20
0.812087
11
2.6586
21
0.812375
0
LINE
8
BLACK
6
CONTINUOUS
10
2.66028
20
0.945945
11
2.66028
21
0.814055
0
LINE
8
BLACK
6
CONTINUOUS
10
2.66028
20
0.814055
11
2.81972
21
0.814055
0
LINE
8
BLACK
6
CONTINUOUS
10
2.81972
20
0.814055
11
2.81972
21
0.945945
0
LINE
8
BLACK
6
CONTINUOUS
10
2.81972
20
0.945945
11
2.66028
21
0.945945
0
LINE
8
BLACK
6
CONTINUOUS
10
2.84056
20
0.831036
11
2.84028
21
0.831732
0
LINE
8
BLACK
6
CONTINUOUS
10
2.84028
20
0.831732
11
2.84028
21
0.948268
0
LINE
8
BLACK
6
CONTINUOUS
10
2.84028
20
0.948268
11
2.84056
21
0.948964
0
LINE
8
BLACK
6
CONTINUOUS
10
2.84056
20
0.948964
11
2.84126
21
0.949252
0
LINE
8
BLACK
6
CONTINUOUS
10
2.84126
20
0.949252
11
2.89874
21
0.949252
0
LINE
8
BLACK
6
CONTINUOUS
10
2.89874
20
0.949252
11
2.89944
21
0.948964
0
LINE
8
BLACK
6
CONTINUOUS
10
2.89944
20
0.948964
11
2.89972
21
0.948268
0
LINE
8
BLACK
6
CONTINUOUS
10
2.89972
20
0.948268
11
2.89972
21
0.831732
0
LINE
8
BLACK
6
CONTINUOUS
10
2.89972
20
0.831732
11
2.89944
21
0.831036
0
LINE
8
BLACK
6
CONTINUOUS
10
2.89944
20
0.831036
11
2.89874
21
0.830748
0
LINE
8
BLACK
6
CONTINUOUS
10
2.89874
20
0.830748
11
2.84126
21
0.830748
0
LINE
8
BLACK
6
CONTINUOUS
10
2.84126
20
0.830748
11
2.84056
21
0.831036
0
LINE
8
BLACK
6
CONTINUOUS
10
2.84224
20
0.947283
11
2.84224
21
0.832717
0
LINE
8
BLACK
6
CONTINUOUS
10
2.84224
20
0.832717
11
2.89776
21
0.832717
0
LINE
8
BLACK
6
CONTINUOUS
10
2.89776
20
0.832717
11
2.89776
21
0.947283
0
LINE
8
BLACK
6
CONTINUOUS
10
2.89776
20
0.947283
11
2.84224
21
0.947283
0
LINE
8
BLACK
6
CONTINUOUS
10
2.93056
20
0.831036
11
2.93028
21
0.831732
0
LINE
8
BLACK
6
CONTINUOUS
10
2.93028
20
0.831732
11
2.93028
21
0.948268
0
LINE
8
BLACK
6
CONTINUOUS
10
2.93028
20
0.948268
11
2.93056
21
0.948964
0
LINE
8
BLACK
6
CONTINUOUS
10
2.93056
20
0.948964
11
2.93126
21
0.949252
0
LINE
8
BLACK
6
CONTINUOUS
10
2.93126
20
0.949252
11
2.98874
21
0.949252
0
LINE
8
BLACK
6
CONTINUOUS
10
2.98874
20
0.949252
11
2.98944
21
0.948964
0
LINE
8
BLACK
6
CONTINUOUS
10
2.98944
20
0.948964
11
2.98972
21
0.948268
0
LINE
8
BLACK
6
CONTINUOUS
10
2.98972
20
0.948268
11
2.98972
21
0.831732
0
LINE
8
BLACK
6
CONTINUOUS
10
2.98972
20
0.831732
11
2.98944
21
0.831036
0
LINE
8
BLACK
6
CONTINUOUS
10
2.98944
20
0.831036
11
2.98874
21
0.830748
0
LINE
8
BLACK
6
CONTINUOUS
10
2.98874
20
0.830748
11
2.93126
21
0.830748
0
LINE
8
BLACK
6
CONTINUOUS
10
2.93126
20
0.830748
11
2.93056
21
0.831036
0
LINE
8
BLACK
6
CONTINUOUS
10
2.93224
20
0.947283
11
2.93224
21
0.832717
0
LINE
8
BLACK
6
CONTINUOUS
10
2.93224
20
0.832717
11
2.98776
21
0.832717
0
LINE
8
BLACK
6
CONTINUOUS
10
2.98776
20
0.832717
11
2.98776
21
0.947283
0
LINE
8
BLACK
6
CONTINUOUS
10
2.98776
20
0.947283
11
2.93224
21
0.947283
0
LINE
8
BLACK
6
CONTINUOUS
10
2.25104
20
0.880564
11
2.25075
21
0.88126
0
LINE
8
BLACK
6
CONTINUOUS
10
2.25075
20
0.88126
11
2.25075
21
0.93874
0
LINE
8
BLACK
6
CONTINUOUS
10
2.25075
20
0.93874
11
2.25104
21
0.939436
0
LINE
8
BLACK
6
CONTINUOUS
10
2.25104
20
0.939436
11
2.25173
21
0.939724
0
LINE
8
BLACK
6
CONTINUOUS
10
2.25173
20
0.939724
11
2.36827
21
0.939724
0
LINE
8
BLACK
6
CONTINUOUS
10
2.36827
20
0.939724
11
2.36896
21
0.939436
0
LINE
8
BLACK
6
CONTINUOUS
10
2.36896
20
0.939436
11
2.36925
21
0.93874
0
LINE
8
BLACK
6
CONTINUOUS
10
2.36925
20
0.93874
11
2.36925
21
0.88126
0
LINE
8
BLACK
6
CONTINUOUS
10
2.36925
20
0.88126
11
2.36896
21
0.880564
0
LINE
8
BLACK
6
CONTINUOUS
10
2.36896
20
0.880564
11
2.36827
21
0.880276
0
LINE
8
BLACK
6
CONTINUOUS
10
2.36827
20
0.880276
11
2.25173
21
0.880276
0
LINE
8
BLACK
6
CONTINUOUS
10
2.25173
20
0.880276
11
2.25104
21
0.880564
0
LINE
8
BLACK
6
CONTINUOUS
10
2.25272
20
0.937756
11
2.25272
21
0.882244
0
LINE
8
BLACK
6
CONTINUOUS
10
2.25272
20
0.882244
11
2.36728
21
0.882244
0
LINE
8
BLACK
6
CONTINUOUS
10
2.36728
20
0.882244
11
2.36728
21
0.937756
0
LINE
8
BLACK
6
CONTINUOUS
10
2.36728
20
0.937756
11
2.25272
21
0.937756
0
LINE
8
BLACK
6
CONTINUOUS
10
2.48104
20
0.900564
11
2.48075
21
0.90126
0
LINE
8
BLACK
6
CONTINUOUS
10
2.48075
20
0.90126
11
2.48075
21
0.95874
0
LINE
8
BLACK
6
CONTINUOUS
10
2.48075
20
0.95874
11
2.48104
21
0.959436
0
LINE
8
BLACK
6
CONTINUOUS
10
2.48104
20
0.959436
11
2.48173
21
0.959724
0
LINE
8
BLACK
6
CONTINUOUS
10
2.48173
20
0.959724
11
2.59827
21
0.959724
0
LINE
8
BLACK
6
CONTINUOUS
10
2.59827
20
0.959724
11
2.59896
21
0.959436
0
LINE
8
BLACK
6
CONTINUOUS
10
2.59896
20
0.959436
11
2.59925
21
0.95874
0
LINE
8
BLACK
6
CONTINUOUS
10
2.59925
20
0.95874
11
2.59925
21
0.90126
0
LINE
8
BLACK
6
CONTINUOUS
10
2.59925
20
0.90126
11
2.59896
21
0.900564
0
LINE
8
BLACK
6
CONTINUOUS
10
2.59896
20
0.900564
11
2.59827
21
0.900276
0
LINE
8
BLACK
6
CONTINUOUS
10
2.59827
20
0.900276
11
2.48173
21
0.900276
0
LINE
8
BLACK
6
CONTINUOUS
10
2.48173
20
0.900276
11
2.48104
21
0.900564
0
LINE
8
BLACK
6
CONTINUOUS
10
2.48272
20
0.957756
11
2.48272
21
0.902244
0
LINE
8
BLACK
6
CONTINUOUS
10
2.48272
20
0.902244
11
2.59728
21
0.902244
0
LINE
8
BLACK
6
CONTINUOUS
10
2.59728
20
0.902244
11
2.59728
21
0.957756
0
LINE
8
BLACK
6
CONTINUOUS
10
2.59728
20
0.957756
11
2.48272
21
0.957756
0
LINE
8
BLACK
6
CONTINUOUS
10
3.18104
20
0.910564
11
3.18075
21
0.91126
0
LINE
8
BLACK
6
CONTINUOUS
10
3.18075
20
0.91126
11
3.18075
21
0.96874
0
LINE
8
BLACK
6
CONTINUOUS
10
3.18075
20
0.96874
11
3.18104
21
0.969436
0
LINE
8
BLACK
6
CONTINUOUS
10
3.18104
20
0.969436
11
3.18173
21
0.969724
0
LINE
8
BLACK
6
CONTINUOUS
10
3.18173
20
0.969724
11
3.29827
21
0.969724
0
LINE
8
BLACK
6
CONTINUOUS
10
3.29827
20
0.969724
11
3.29896
21
0.969436
0
LINE
8
BLACK
6
CONTINUOUS
10
3.29896
20
0.969436
11
3.29925
21
0.96874
0
LINE
8
BLACK
6
CONTINUOUS
10
3.29925
20
0.96874
11
3.29925
21
0.91126
0
LINE
8
BLACK
6
CONTINUOUS
10
3.29925
20
0.91126
11
3.29896
21
0.910564
0
LINE
8
BLACK
6
CONTINUOUS
10
3.29896
20
0.910564
11
3.29827
21
0.910276
0
LINE
8
BLACK
6
CONTINUOUS
10
3.29827
20
0.910276
11
3.18173
21
0.910276
0
LINE
8
BLACK
6
CONTINUOUS
10
3.18173
20
0.910276
11
3.18104
21
0.910564
0
LINE
8
BLACK
6
CONTINUOUS
10
3.18272
20
0.967756
11
3.18272
21
0.912244
0
LINE
8
BLACK
6
CONTINUOUS
10
3.18272
20
0.912244
11
3.29728
21
0.912244
0
LINE
8
BLACK
6
CONTINUOUS
10
3.29728
20
0.912244
11
3.29728
21
0.967756
0
LINE
8
BLACK
6
CONTINUOUS
10
3.29728
20
0.967756
11
3.18272
21
0.967756
0
LINE
8
BLACK
6
CONTINUOUS
10
2.0019
20
0.916469
11
2.00161
21
0.917165
0
LINE
8
BLACK
6
CONTINUOUS
10
2.00161
20
0.917165
11
2.00161
21
1.06283
0
LINE
8
BLACK
6
CONTINUOUS
10
2.00161
20
1.06283
11
2.0019
21
1.06353
0
LINE
8
BLACK
6
CONTINUOUS
10
2.0019
20
1.06353
11
2.0026
21
1.06382
0
LINE
8
BLACK
6
CONTINUOUS
10
2.0026
20
1.06382
11
2.0774
21
1.06382
0
LINE
8
BLACK
6
CONTINUOUS
10
2.0774
20
1.06382
11
2.0781
21
1.06353
0
LINE
8
BLACK
6
CONTINUOUS
10
2.0781
20
1.06353
11
2.07839
21
1.06283
0
LINE
8
BLACK
6
CONTINUOUS
10
2.07839
20
1.06283
11
2.07839
21
0.917165
0
LINE
8
BLACK
6
CONTINUOUS
10
2.07839
20
0.917165
11
2.0781
21
0.916469
0
LINE
8
BLACK
6
CONTINUOUS
10
2.0781
20
0.916469
11
2.0774
21
0.916181
0
LINE
8
BLACK
6
CONTINUOUS
10
2.0774
20
0.916181
11
2.0026
21
0.916181
0
LINE
8
BLACK
6
CONTINUOUS
10
2.0026
20
0.916181
11
2.0019
21
0.916469
0
LINE
8
BLACK
6
CONTINUOUS
10
2.00358
20
1.06185
11
2.00358
21
0.91815
0
LINE
8
BLACK
6
CONTINUOUS
10
2.00358
20
0.91815
11
2.07642
21
0.91815
0
LINE
8
BLACK
6
CONTINUOUS
10
2.07642
20
0.91815
11
2.07642
21
1.06185
0
LINE
8
BLACK
6
CONTINUOUS
10
2.07642
20
1.06185
11
2.00358
21
1.06185
0
LINE
8
BLACK
6
CONTINUOUS
10
3.18104
20
0.980564
11
3.18075
21
0.98126
0
LINE
8
BLACK
6
CONTINUOUS
10
3.18075
20
0.98126
11
3.18075
21
1.03874
0
LINE
8
BLACK
6
CONTINUOUS
10
3.18075
20
1.03874
11
3.18104
21
1.03944
0
LINE
8
BLACK
6
CONTINUOUS
10
3.18104
20
1.03944
11
3.18173
21
1.03972
0
LINE
8
BLACK
6
CONTINUOUS
10
3.18173
20
1.03972
11
3.29827
21
1.03972
0
LINE
8
BLACK
6
CONTINUOUS
10
3.29827
20
1.03972
11
3.29896
21
1.03944
0
LINE
8
BLACK
6
CONTINUOUS
10
3.29896
20
1.03944
11
3.29925
21
1.03874
0
LINE
8
BLACK
6
CONTINUOUS
10
3.29925
20
1.03874
11
3.29925
21
0.98126
0
LINE
8
BLACK
6
CONTINUOUS
10
3.29925
20
0.98126
11
3.29896
21
0.980564
0
LINE
8
BLACK
6
CONTINUOUS
10
3.29896
20
0.980564
11
3.29827
21
0.980276
0
LINE
8
BLACK
6
CONTINUOUS
10
3.29827
20
0.980276
11
3.18173
21
0.980276
0
LINE
8
BLACK
6
CONTINUOUS
10
3.18173
20
0.980276
11
3.18104
21
0.980564
0
LINE
8
BLACK
6
CONTINUOUS
10
3.18272
20
1.03776
11
3.18272
21
0.982244
0
LINE
8
BLACK
6
CONTINUOUS
10
3.18272
20
0.982244
11
3.29728
21
0.982244
0
LINE
8
BLACK
6
CONTINUOUS
10
3.29728
20
0.982244
11
3.29728
21
1.03776
0
LINE
8
BLACK
6
CONTINUOUS
10
3.29728
20
1.03776
11
3.18272
21
1.03776
0
LINE
8
BLACK
6
CONTINUOUS
10
2.15056
20
0.991036
11
2.15028
21
0.991732
0
LINE
8
BLACK
6
CONTINUOUS
10
2.15028
20
0.991732
11
2.15028
21
1.10827
0
LINE
8
BLACK
6
CONTINUOUS
10
2.15028
20
1.10827
11
2.15056
21
1.10896
0
LINE
8
BLACK
6
CONTINUOUS
10
2.15056
20
1.10896
11
2.15126
21
1.10925
0
LINE
8
BLACK
6
CONTINUOUS
10
2.15126
20
1.10925
11
2.20874
21
1.10925
0
LINE
8
BLACK
6
CONTINUOUS
10
2.20874
20
1.10925
11
2.20944
21
1.10896
0
LINE
8
BLACK
6
CONTINUOUS
10
2.20944
20
1.10896
11
2.20972
21
1.10827
0
LINE
8
BLACK
6
CONTINUOUS
10
2.20972
20
1.10827
11
2.20972
21
0.991732
0
LINE
8
BLACK
6
CONTINUOUS
10
2.20972
20
0.991732
11
2.20944
21
0.991036
0
LINE
8
BLACK
6
CONTINUOUS
10
2.20944
20
0.991036
11
2.20874
21
0.990748
0
LINE
8
BLACK
6
CONTINUOUS
10
2.20874
20
0.990748
11
2.15126
21
0.990748
0
LINE
8
BLACK
6
CONTINUOUS
10
2.15126
20
0.990748
11
2.15056
21
0.991036
0
LINE
8
BLACK
6
CONTINUOUS
10
2.15224
20
1.10728
11
2.15224
21
0.992717
0
LINE
8
BLACK
6
CONTINUOUS
10
2.15224
20
0.992717
11
2.20776
21
0.992717
0
LINE
8
BLACK
6
CONTINUOUS
10
2.20776
20
0.992717
11
2.20776
21
1.10728
0
LINE
8
BLACK
6
CONTINUOUS
10
2.20776
20
1.10728
11
2.15224
21
1.10728
0
LINE
8
BLACK
6
CONTINUOUS
10
3.05056
20
1.00104
11
3.05028
21
1.00173
0
LINE
8
BLACK
6
CONTINUOUS
10
3.05028
20
1.00173
11
3.05028
21
1.11827
0
LINE
8
BLACK
6
CONTINUOUS
10
3.05028
20
1.11827
11
3.05056
21
1.11896
0
LINE
8
BLACK
6
CONTINUOUS
10
3.05056
20
1.11896
11
3.05126
21
1.11925
0
LINE
8
BLACK
6
CONTINUOUS
10
3.05126
20
1.11925
11
3.10874
21
1.11925
0
LINE
8
BLACK
6
CONTINUOUS
10
3.10874
20
1.11925
11
3.10944
21
1.11896
0
LINE
8
BLACK
6
CONTINUOUS
10
3.10944
20
1.11896
11
3.10972
21
1.11827
0
LINE
8
BLACK
6
CONTINUOUS
10
3.10972
20
1.11827
11
3.10972
21
1.00173
0
LINE
8
BLACK
6
CONTINUOUS
10
3.10972
20
1.00173
11
3.10944
21
1.00104
0
LINE
8
BLACK
6
CONTINUOUS
10
3.10944
20
1.00104
11
3.10874
21
1.00075
0
LINE
8
BLACK
6
CONTINUOUS
10
3.10874
20
1.00075
11
3.05126
21
1.00075
0
LINE
8
BLACK
6
CONTINUOUS
10
3.05126
20
1.00075
11
3.05056
21
1.00104
0
LINE
8
BLACK
6
CONTINUOUS
10
3.05224
20
1.11728
11
3.05224
21
1.00272
0
LINE
8
BLACK
6
CONTINUOUS
10
3.05224
20
1.00272
11
3.10776
21
1.00272
0
LINE
8
BLACK
6
CONTINUOUS
10
3.10776
20
1.00272
11
3.10776
21
1.11728
0
LINE
8
BLACK
6
CONTINUOUS
10
3.10776
20
1.11728
11
3.05224
21
1.11728
0
LINE
8
BLACK
6
CONTINUOUS
10
1.80104
20
1.01056
11
1.80075
21
1.01126
0
LINE
8
BLACK
6
CONTINUOUS
10
1.80075
20
1.01126
11
1.80075
21
1.06874
0
LINE
8
BLACK
6
CONTINUOUS
10
1.80075
20
1.06874
11
1.80104
21
1.06944
0
LINE
8
BLACK
6
CONTINUOUS
10
1.80104
20
1.06944
11
1.80173
21
1.06972
0
LINE
8
BLACK
6
CONTINUOUS
10
1.80173
20
1.06972
11
1.91827
21
1.06972
0
LINE
8
BLACK
6
CONTINUOUS
10
1.91827
20
1.06972
11
1.91896
21
1.06944
0
LINE
8
BLACK
6
CONTINUOUS
10
1.91896
20
1.06944
11
1.91925
21
1.06874
0
LINE
8
BLACK
6
CONTINUOUS
10
1.91925
20
1.06874
11
1.91925
21
1.01126
0
LINE
8
BLACK
6
CONTINUOUS
10
1.91925
20
1.01126
11
1.91896
21
1.01056
0
LINE
8
BLACK
6
CONTINUOUS
10
1.91896
20
1.01056
11
1.91827
21
1.01028
0
LINE
8
BLACK
6
CONTINUOUS
10
1.91827
20
1.01028
11
1.80173
21
1.01028
0
LINE
8
BLACK
6
CONTINUOUS
10
1.80173
20
1.01028
11
1.80104
21
1.01056
0
LINE
8
BLACK
6
CONTINUOUS
10
1.80272
20
1.06776
11
1.80272
21
1.01224
0
LINE
8
BLACK
6
CONTINUOUS
10
1.80272
20
1.01224
11
1.91728
21
1.01224
0
LINE
8
BLACK
6
CONTINUOUS
10
1.91728
20
1.01224
11
1.91728
21
1.06776
0
LINE
8
BLACK
6
CONTINUOUS
10
1.91728
20
1.06776
11
1.80272
21
1.06776
0
LINE
8
BLACK
6
CONTINUOUS
10
2.61844
20
1.07316
11
2.61815
21
1.07386
0
LINE
8
BLACK
6
CONTINUOUS
10
2.61815
20
1.07386
11
2.61815
21
1.30614
0
LINE
8
BLACK
6
CONTINUOUS
10
2.61815
20
1.30614
11
2.61844
21
1.30684
0
LINE
8
BLACK
6
CONTINUOUS
10
2.61844
20
1.30684
11
2.61913
21
1.30713
0
LINE
8
BLACK
6
CONTINUOUS
10
2.61913
20
1.30713
11
2.76087
21
1.30713
0
LINE
8
BLACK
6
CONTINUOUS
10
2.76087
20
1.30713
11
2.76156
21
1.30684
0
LINE
8
BLACK
6
CONTINUOUS
10
2.76156
20
1.30684
11
2.76185
21
1.30614
0
LINE
8
BLACK
6
CONTINUOUS
10
2.76185
20
1.30614
11
2.76185
21
1.07386
0
LINE
8
BLACK
6
CONTINUOUS
10
2.76185
20
1.07386
11
2.76156
21
1.07316
0
LINE
8
BLACK
6
CONTINUOUS
10
2.76156
20
1.07316
11
2.76087
21
1.07287
0
LINE
8
BLACK
6
CONTINUOUS
10
2.76087
20
1.07287
11
2.61913
21
1.07287
0
LINE
8
BLACK
6
CONTINUOUS
10
2.61913
20
1.07287
11
2.61844
21
1.07316
0
LINE
8
BLACK
6
CONTINUOUS
10
2.62012
20
1.30516
11
2.62012
21
1.07484
0
LINE
8
BLACK
6
CONTINUOUS
10
2.62012
20
1.07484
11
2.75988
21
1.07484
0
LINE
8
BLACK
6
CONTINUOUS
10
2.75988
20
1.07484
11
2.75988
21
1.30516
0
LINE
8
BLACK
6
CONTINUOUS
10
2.75988
20
1.30516
11
2.62012
21
1.30516
0
LINE
8
BLACK
6
CONTINUOUS
10
2.53056
20
1.09104
11
2.53028
21
1.09173
0
LINE
8
BLACK
6
CONTINUOUS
10
2.53028
20
1.09173
11
2.53028
21
1.20827
0
LINE
8
BLACK
6
CONTINUOUS
10
2.53028
20
1.20827
11
2.53056
21
1.20896
0
LINE
8
BLACK
6
CONTINUOUS
10
2.53056
20
1.20896
11
2.53126
21
1.20925
0
LINE
8
BLACK
6
CONTINUOUS
10
2.53126
20
1.20925
11
2.58874
21
1.20925
0
LINE
8
BLACK
6
CONTINUOUS
10
2.58874
20
1.20925
11
2.58944
21
1.20896
0
LINE
8
BLACK
6
CONTINUOUS
10
2.58944
20
1.20896
11
2.58972
21
1.20827
0
LINE
8
BLACK
6
CONTINUOUS
10
2.58972
20
1.20827
11
2.58972
21
1.09173
0
LINE
8
BLACK
6
CONTINUOUS
10
2.58972
20
1.09173
11
2.58944
21
1.09104
0
LINE
8
BLACK
6
CONTINUOUS
10
2.58944
20
1.09104
11
2.58874
21
1.09075
0
LINE
8
BLACK
6
CONTINUOUS
10
2.58874
20
1.09075
11
2.53126
21
1.09075
0
LINE
8
BLACK
6
CONTINUOUS
10
2.53126
20
1.09075
11
2.53056
21
1.09104
0
LINE
8
BLACK
6
CONTINUOUS
10
2.53224
20
1.20728
11
2.53224
21
1.09272
0
LINE
8
BLACK
6
CONTINUOUS
10
2.53224
20
1.09272
11
2.58776
21
1.09272
0
LINE
8
BLACK
6
CONTINUOUS
10
2.58776
20
1.09272
11
2.58776
21
1.20728
0
LINE
8
BLACK
6
CONTINUOUS
10
2.58776
20
1.20728
11
2.53224
21
1.20728
0
LINE
8
BLACK
6
CONTINUOUS
10
3.18009
20
1.09174
11
3.1798
21
1.09244
0
LINE
8
BLACK
6
CONTINUOUS
10
3.1798
20
1.09244
11
3.1798
21
1.14756
0
LINE
8
BLACK
6
CONTINUOUS
10
3.1798
20
1.14756
11
3.18009
21
1.14826
0
LINE
8
BLACK
6
CONTINUOUS
10
3.18009
20
1.14826
11
3.18079
21
1.14854
0
LINE
8
BLACK
6
CONTINUOUS
10
3.18079
20
1.14854
11
3.27921
21
1.14854
0
LINE
8
BLACK
6
CONTINUOUS
10
3.27921
20
1.14854
11
3.27991
21
1.14826
0
LINE
8
BLACK
6
CONTINUOUS
10
3.27991
20
1.14826
11
3.2802
21
1.14756
0
LINE
8
BLACK
6
CONTINUOUS
10
3.2802
20
1.14756
11
3.2802
21
1.09244
0
LINE
8
BLACK
6
CONTINUOUS
10
3.2802
20
1.09244
11
3.27991
21
1.09174
0
LINE
8
BLACK
6
CONTINUOUS
10
3.27991
20
1.09174
11
3.27921
21
1.09146
0
LINE
8
BLACK
6
CONTINUOUS
10
3.27921
20
1.09146
11
3.18079
21
1.09146
0
LINE
8
BLACK
6
CONTINUOUS
10
3.18079
20
1.09146
11
3.18009
21
1.09174
0
LINE
8
BLACK
6
CONTINUOUS
10
3.18177
20
1.14657
11
3.18177
21
1.09343
0
LINE
8
BLACK
6
CONTINUOUS
10
3.18177
20
1.09343
11
3.27823
21
1.09343
0
LINE
8
BLACK
6
CONTINUOUS
10
3.27823
20
1.09343
11
3.27823
21
1.14657
0
LINE
8
BLACK
6
CONTINUOUS
10
3.27823
20
1.14657
11
3.18177
21
1.14657
0
LINE
8
BLACK
6
CONTINUOUS
10
1.76056
20
1.13104
11
1.76028
21
1.13173
0
LINE
8
BLACK
6
CONTINUOUS
10
1.76028
20
1.13173
11
1.76028
21
1.24827
0
LINE
8
BLACK
6
CONTINUOUS
10
1.76028
20
1.24827
11
1.76056
21
1.24896
0
LINE
8
BLACK
6
CONTINUOUS
10
1.76056
20
1.24896
11
1.76126
21
1.24925
0
LINE
8
BLACK
6
CONTINUOUS
10
1.76126
20
1.24925
11
1.81874
21
1.24925
0
LINE
8
BLACK
6
CONTINUOUS
10
1.81874
20
1.24925
11
1.81944
21
1.24896
0
LINE
8
BLACK
6
CONTINUOUS
10
1.81944
20
1.24896
11
1.81972
21
1.24827
0
LINE
8
BLACK
6
CONTINUOUS
10
1.81972
20
1.24827
11
1.81972
21
1.13173
0
LINE
8
BLACK
6
CONTINUOUS
10
1.81972
20
1.13173
11
1.81944
21
1.13104
0
LINE
8
BLACK
6
CONTINUOUS
10
1.81944
20
1.13104
11
1.81874
21
1.13075
0
LINE
8
BLACK
6
CONTINUOUS
10
1.81874
20
1.13075
11
1.76126
21
1.13075
0
LINE
8
BLACK
6
CONTINUOUS
10
1.76126
20
1.13075
11
1.76056
21
1.13104
0
LINE
8
BLACK
6
CONTINUOUS
10
1.76224
20
1.24728
11
1.76224
21
1.13272
0
LINE
8
BLACK
6
CONTINUOUS
10
1.76224
20
1.13272
11
1.81776
21
1.13272
0
LINE
8
BLACK
6
CONTINUOUS
10
1.81776
20
1.13272
11
1.81776
21
1.24728
0
LINE
8
BLACK
6
CONTINUOUS
10
1.81776
20
1.24728
11
1.76224
21
1.24728
0
LINE
8
BLACK
6
CONTINUOUS
10
1.88568
20
1.13182
11
1.88539
21
1.13252
0
LINE
8
BLACK
6
CONTINUOUS
10
1.88539
20
1.13252
11
1.88539
21
1.66008
0
LINE
8
BLACK
6
CONTINUOUS
10
1.88539
20
1.66008
11
1.88568
21
1.66077
0
LINE
8
BLACK
6
CONTINUOUS
10
1.88568
20
1.66077
11
1.88638
21
1.66106
0
LINE
8
BLACK
6
CONTINUOUS
10
1.88638
20
1.66106
11
2.41394
21
1.66106
0
LINE
8
BLACK
6
CONTINUOUS
10
2.41394
20
1.66106
11
2.41463
21
1.66077
0
LINE
8
BLACK
6
CONTINUOUS
10
2.41463
20
1.66077
11
2.41492
21
1.66008
0
LINE
8
BLACK
6
CONTINUOUS
10
2.41492
20
1.66008
11
2.41492
21
1.13252
0
LINE
8
BLACK
6
CONTINUOUS
10
2.41492
20
1.13252
11
2.41463
21
1.13182
0
LINE
8
BLACK
6
CONTINUOUS
10
2.41463
20
1.13182
11
2.41394
21
1.13154
0
LINE
8
BLACK
6
CONTINUOUS
10
2.41394
20
1.13154
11
1.88638
21
1.13154
0
LINE
8
BLACK
6
CONTINUOUS
10
1.88638
20
1.13154
11
1.88568
21
1.13182
0
LINE
8
BLACK
6
CONTINUOUS
10
1.88736
20
1.65909
11
1.88736
21
1.1335
0
LINE
8
BLACK
6
CONTINUOUS
10
1.88736
20
1.1335
11
2.41295
21
1.1335
0
LINE
8
BLACK
6
CONTINUOUS
10
2.41295
20
1.1335
11
2.41295
21
1.65909
0
LINE
8
BLACK
6
CONTINUOUS
10
2.41295
20
1.65909
11
1.88736
21
1.65909
0
LINE
8
BLACK
6
CONTINUOUS
10
3.02625
20
1.1419
11
3.02596
21
1.1426
0
LINE
8
BLACK
6
CONTINUOUS
10
3.02596
20
1.1426
11
3.02596
21
1.2174
0
LINE
8
BLACK
6
CONTINUOUS
10
3.02596
20
1.2174
11
3.02625
21
1.2181
0
LINE
8
BLACK
6
CONTINUOUS
10
3.02625
20
1.2181
11
3.02695
21
1.21839
0
LINE
8
BLACK
6
CONTINUOUS
10
3.02695
20
1.21839
11
3.15923
21
1.21839
0
LINE
8
BLACK
6
CONTINUOUS
10
3.15923
20
1.21839
11
3.15993
21
1.2181
0
LINE
8
BLACK
6
CONTINUOUS
10
3.15993
20
1.2181
11
3.16022
21
1.2174
0
LINE
8
BLACK
6
CONTINUOUS
10
3.16022
20
1.2174
11
3.16022
21
1.1426
0
LINE
8
BLACK
6
CONTINUOUS
10
3.16022
20
1.1426
11
3.15993
21
1.1419
0
LINE
8
BLACK
6
CONTINUOUS
10
3.15993
20
1.1419
11
3.15923
21
1.14161
0
LINE
8
BLACK
6
CONTINUOUS
10
3.15923
20
1.14161
11
3.02695
21
1.14161
0
LINE
8
BLACK
6
CONTINUOUS
10
3.02695
20
1.14161
11
3.02625
21
1.1419
0
LINE
8
BLACK
6
CONTINUOUS
10
3.02793
20
1.21642
11
3.02793
21
1.14358
0
LINE
8
BLACK
6
CONTINUOUS
10
3.02793
20
1.14358
11
3.15825
21
1.14358
0
LINE
8
BLACK
6
CONTINUOUS
10
3.15825
20
1.14358
11
3.15825
21
1.21642
0
LINE
8
BLACK
6
CONTINUOUS
10
3.15825
20
1.21642
11
3.02793
21
1.21642
0
LINE
8
BLACK
6
CONTINUOUS
10
2.93174
20
1.16009
11
2.93146
21
1.16079
0
LINE
8
BLACK
6
CONTINUOUS
10
2.93146
20
1.16079
11
2.93146
21
1.25921
0
LINE
8
BLACK
6
CONTINUOUS
10
2.93146
20
1.25921
11
2.93174
21
1.25991
0
LINE
8
BLACK
6
CONTINUOUS
10
2.93174
20
1.25991
11
2.93244
21
1.2602
0
LINE
8
BLACK
6
CONTINUOUS
10
2.93244
20
1.2602
11
2.98756
21
1.2602
0
LINE
8
BLACK
6
CONTINUOUS
10
2.98756
20
1.2602
11
2.98826
21
1.25991
0
LINE
8
BLACK
6
CONTINUOUS
10
2.98826
20
1.25991
11
2.98854
21
1.25921
0
LINE
8
BLACK
6
CONTINUOUS
10
2.98854
20
1.25921
11
2.98854
21
1.16079
0
LINE
8
BLACK
6
CONTINUOUS
10
2.98854
20
1.16079
11
2.98826
21
1.16009
0
LINE
8
BLACK
6
CONTINUOUS
10
2.98826
20
1.16009
11
2.98756
21
1.1598
0
LINE
8
BLACK
6
CONTINUOUS
10
2.98756
20
1.1598
11
2.93244
21
1.1598
0
LINE
8
BLACK
6
CONTINUOUS
10
2.93244
20
1.1598
11
2.93174
21
1.16009
0
LINE
8
BLACK
6
CONTINUOUS
10
2.93343
20
1.25823
11
2.93343
21
1.16177
0
LINE
8
BLACK
6
CONTINUOUS
10
2.93343
20
1.16177
11
2.98657
21
1.16177
0
LINE
8
BLACK
6
CONTINUOUS
10
2.98657
20
1.16177
11
2.98657
21
1.25823
0
LINE
8
BLACK
6
CONTINUOUS
10
2.98657
20
1.25823
11
2.93343
21
1.25823
0
LINE
8
BLACK
6
CONTINUOUS
10
3.18009
20
1.17174
11
3.1798
21
1.17244
0
LINE
8
BLACK
6
CONTINUOUS
10
3.1798
20
1.17244
11
3.1798
21
1.22756
0
LINE
8
BLACK
6
CONTINUOUS
10
3.1798
20
1.22756
11
3.18009
21
1.22826
0
LINE
8
BLACK
6
CONTINUOUS
10
3.18009
20
1.22826
11
3.18079
21
1.22854
0
LINE
8
BLACK
6
CONTINUOUS
10
3.18079
20
1.22854
11
3.27921
21
1.22854
0
LINE
8
BLACK
6
CONTINUOUS
10
3.27921
20
1.22854
11
3.27991
21
1.22826
0
LINE
8
BLACK
6
CONTINUOUS
10
3.27991
20
1.22826
11
3.2802
21
1.22756
0
LINE
8
BLACK
6
CONTINUOUS
10
3.2802
20
1.22756
11
3.2802
21
1.17244
0
LINE
8
BLACK
6
CONTINUOUS
10
3.2802
20
1.17244
11
3.27991
21
1.17174
0
LINE
8
BLACK
6
CONTINUOUS
10
3.27991
20
1.17174
11
3.27921
21
1.17146
0
LINE
8
BLACK
6
CONTINUOUS
10
3.27921
20
1.17146
11
3.18079
21
1.17146
0
LINE
8
BLACK
6
CONTINUOUS
10
3.18079
20
1.17146
11
3.18009
21
1.17174
0
LINE
8
BLACK
6
CONTINUOUS
10
3.18177
20
1.22657
11
3.18177
21
1.17343
0
LINE
8
BLACK
6
CONTINUOUS
10
3.18177
20
1.17343
11
3.27823
21
1.17343
0
LINE
8
BLACK
6
CONTINUOUS
10
3.27823
20
1.17343
11
3.27823
21
1.22657
0
LINE
8
BLACK
6
CONTINUOUS
10
3.27823
20
1.22657
11
3.18177
21
1.22657
0
LINE
8
BLACK
6
CONTINUOUS
10
1.54056
20
1.22104
11
1.54028
21
1.22173
0
LINE
8
BLACK
6
CONTINUOUS
10
1.54028
20
1.22173
11
1.54028
21
1.33827
0
LINE
8
BLACK
6
CONTINUOUS
10
1.54028
20
1.33827
11
1.54056
21
1.33896
0
LINE
8
BLACK
6
CONTINUOUS
10
1.54056
20
1.33896
11
1.54126
21
1.33925
0
LINE
8
BLACK
6
CONTINUOUS
10
1.54126
20
1.33925
11
1.59874
21
1.33925
0
LINE
8
BLACK
6
CONTINUOUS
10
1.59874
20
1.33925
11
1.59944
21
1.33896
0
LINE
8
BLACK
6
CONTINUOUS
10
1.59944
20
1.33896
11
1.59972
21
1.33827
0
LINE
8
BLACK
6
CONTINUOUS
10
1.59972
20
1.33827
11
1.59972
21
1.22173
0
LINE
8
BLACK
6
CONTINUOUS
10
1.59972
20
1.22173
11
1.59944
21
1.22104
0
LINE
8
BLACK
6
CONTINUOUS
10
1.59944
20
1.22104
11
1.59874
21
1.22075
0
LINE
8
BLACK
6
CONTINUOUS
10
1.59874
20
1.22075
11
1.54126
21
1.22075
0
LINE
8
BLACK
6
CONTINUOUS
10
1.54126
20
1.22075
11
1.54056
21
1.22104
0
LINE
8
BLACK
6
CONTINUOUS
10
1.54224
20
1.33728
11
1.54224
21
1.22272
0
LINE
8
BLACK
6
CONTINUOUS
10
1.54224
20
1.22272
11
1.59776
21
1.22272
0
LINE
8
BLACK
6
CONTINUOUS
10
1.59776
20
1.22272
11
1.59776
21
1.33728
0
LINE
8
BLACK
6
CONTINUOUS
10
1.59776
20
1.33728
11
1.54224
21
1.33728
0
LINE
8
BLACK
6
CONTINUOUS
10
2.79104
20
1.23056
11
2.79075
21
1.23126
0
LINE
8
BLACK
6
CONTINUOUS
10
2.79075
20
1.23126
11
2.79075
21
1.28874
0
LINE
8
BLACK
6
CONTINUOUS
10
2.79075
20
1.28874
11
2.79104
21
1.28944
0
LINE
8
BLACK
6
CONTINUOUS
10
2.79104
20
1.28944
11
2.79173
21
1.28972
0
LINE
8
BLACK
6
CONTINUOUS
10
2.79173
20
1.28972
11
2.90827
21
1.28972
0
LINE
8
BLACK
6
CONTINUOUS
10
2.90827
20
1.28972
11
2.90896
21
1.28944
0
LINE
8
BLACK
6
CONTINUOUS
10
2.90896
20
1.28944
11
2.90925
21
1.28874
0
LINE
8
BLACK
6
CONTINUOUS
10
2.90925
20
1.28874
11
2.90925
21
1.23126
0
LINE
8
BLACK
6
CONTINUOUS
10
2.90925
20
1.23126
11
2.90896
21
1.23056
0
LINE
8
BLACK
6
CONTINUOUS
10
2.90896
20
1.23056
11
2.90827
21
1.23028
0
LINE
8
BLACK
6
CONTINUOUS
10
2.90827
20
1.23028
11
2.79173
21
1.23028
0
LINE
8
BLACK
6
CONTINUOUS
10
2.79173
20
1.23028
11
2.79104
21
1.23056
0
LINE
8
BLACK
6
CONTINUOUS
10
2.79272
20
1.28776
11
2.79272
21
1.23224
0
LINE
8
BLACK
6
CONTINUOUS
10
2.79272
20
1.23224
11
2.90728
21
1.23224
0
LINE
8
BLACK
6
CONTINUOUS
10
2.90728
20
1.23224
11
2.90728
21
1.28776
0
LINE
8
BLACK
6
CONTINUOUS
10
2.90728
20
1.28776
11
2.79272
21
1.28776
0
LINE
8
BLACK
6
CONTINUOUS
10
3.03104
20
1.24056
11
3.03075
21
1.24126
0
LINE
8
BLACK
6
CONTINUOUS
10
3.03075
20
1.24126
11
3.03075
21
1.29874
0
LINE
8
BLACK
6
CONTINUOUS
10
3.03075
20
1.29874
11
3.03104
21
1.29944
0
LINE
8
BLACK
6
CONTINUOUS
10
3.03104
20
1.29944
11
3.03173
21
1.29972
0
LINE
8
BLACK
6
CONTINUOUS
10
3.03173
20
1.29972
11
3.14827
21
1.29972
0
LINE
8
BLACK
6
CONTINUOUS
10
3.14827
20
1.29972
11
3.14896
21
1.29944
0
LINE
8
BLACK
6
CONTINUOUS
10
3.14896
20
1.29944
11
3.14925
21
1.29874
0
LINE
8
BLACK
6
CONTINUOUS
10
3.14925
20
1.29874
11
3.14925
21
1.24126
0
LINE
8
BLACK
6
CONTINUOUS
10
3.14925
20
1.24126
11
3.14896
21
1.24056
0
LINE
8
BLACK
6
CONTINUOUS
10
3.14896
20
1.24056
11
3.14827
21
1.24028
0
LINE
8
BLACK
6
CONTINUOUS
10
3.14827
20
1.24028
11
3.03173
21
1.24028
0
LINE
8
BLACK
6
CONTINUOUS
10
3.03173
20
1.24028
11
3.03104
21
1.24056
0
LINE
8
BLACK
6
CONTINUOUS
10
3.03272
20
1.29776
11
3.03272
21
1.24224
0
LINE
8
BLACK
6
CONTINUOUS
10
3.03272
20
1.24224
11
3.14728
21
1.24224
0
LINE
8
BLACK
6
CONTINUOUS
10
3.14728
20
1.24224
11
3.14728
21
1.29776
0
LINE
8
BLACK
6
CONTINUOUS
10
3.14728
20
1.29776
11
3.03272
21
1.29776
0
LINE
8
BLACK
6
CONTINUOUS
10
3.33332
20
1.24505
11
3.33303
21
1.24575
0
LINE
8
BLACK
6
CONTINUOUS
10
3.33303
20
1.24575
11
3.33303
21
1.81425
0
LINE
8
BLACK
6
CONTINUOUS
10
3.33303
20
1.81425
11
3.33332
21
1.81495
0
LINE
8
BLACK
6
CONTINUOUS
10
3.33332
20
1.81495
11
3.33402
21
1.81524
0
LINE
8
BLACK
6
CONTINUOUS
10
3.33402
20
1.81524
11
3.58598
21
1.81524
0
LINE
8
BLACK
6
CONTINUOUS
10
3.58598
20
1.81524
11
3.58668
21
1.81495
0
LINE
8
BLACK
6
CONTINUOUS
10
3.58668
20
1.81495
11
3.58697
21
1.81425
0
LINE
8
BLACK
6
CONTINUOUS
10
3.58697
20
1.81425
11
3.58697
21
1.24575
0
LINE
8
BLACK
6
CONTINUOUS
10
3.58697
20
1.24575
11
3.58668
21
1.24505
0
LINE
8
BLACK
6
CONTINUOUS
10
3.58668
20
1.24505
11
3.58598
21
1.24476
0
LINE
8
BLACK
6
CONTINUOUS
10
3.58598
20
1.24476
11
3.33402
21
1.24476
0
LINE
8
BLACK
6
CONTINUOUS
10
3.33402
20
1.24476
11
3.33332
21
1.24505
0
LINE
8
BLACK
6
CONTINUOUS
10
3.335
20
1.81327
11
3.335
21
1.24673
0
LINE
8
BLACK
6
CONTINUOUS
10
3.335
20
1.24673
11
3.585
21
1.24673
0
LINE
8
BLACK
6
CONTINUOUS
10
3.585
20
1.24673
11
3.585
21
1.81327
0
LINE
8
BLACK
6
CONTINUOUS
10
3.585
20
1.81327
11
3.335
21
1.81327
0
LINE
8
BLACK
6
CONTINUOUS
10
1.78056
20
1.28104
11
1.78028
21
1.28173
0
LINE
8
BLACK
6
CONTINUOUS
10
1.78028
20
1.28173
11
1.78028
21
1.39827
0
LINE
8
BLACK
6
CONTINUOUS
10
1.78028
20
1.39827
11
1.78056
21
1.39896
0
LINE
8
BLACK
6
CONTINUOUS
10
1.78056
20
1.39896
11
1.78126
21
1.39925
0
LINE
8
BLACK
6
CONTINUOUS
10
1.78126
20
1.39925
11
1.83874
21
1.39925
0
LINE
8
BLACK
6
CONTINUOUS
10
1.83874
20
1.39925
11
1.83944
21
1.39896
0
LINE
8
BLACK
6
CONTINUOUS
10
1.83944
20
1.39896
11
1.83972
21
1.39827
0
LINE
8
BLACK
6
CONTINUOUS
10
1.83972
20
1.39827
11
1.83972
21
1.28173
0
LINE
8
BLACK
6
CONTINUOUS
10
1.83972
20
1.28173
11
1.83944
21
1.28104
0
LINE
8
BLACK
6
CONTINUOUS
10
1.83944
20
1.28104
11
1.83874
21
1.28075
0
LINE
8
BLACK
6
CONTINUOUS
10
1.83874
20
1.28075
11
1.78126
21
1.28075
0
LINE
8
BLACK
6
CONTINUOUS
10
1.78126
20
1.28075
11
1.78056
21
1.28104
0
LINE
8
BLACK
6
CONTINUOUS
10
1.78224
20
1.39728
11
1.78224
21
1.28272
0
LINE
8
BLACK
6
CONTINUOUS
10
1.78224
20
1.28272
11
1.83776
21
1.28272
0
LINE
8
BLACK
6
CONTINUOUS
10
1.83776
20
1.28272
11
1.83776
21
1.39728
0
LINE
8
BLACK
6
CONTINUOUS
10
1.83776
20
1.39728
11
1.78224
21
1.39728
0
LINE
8
BLACK
6
CONTINUOUS
10
2.46056
20
1.29104
11
2.46028
21
1.29173
0
LINE
8
BLACK
6
CONTINUOUS
10
2.46028
20
1.29173
11
2.46028
21
1.40827
0
LINE
8
BLACK
6
CONTINUOUS
10
2.46028
20
1.40827
11
2.46056
21
1.40896
0
LINE
8
BLACK
6
CONTINUOUS
10
2.46056
20
1.40896
11
2.46126
21
1.40925
0
LINE
8
BLACK
6
CONTINUOUS
10
2.46126
20
1.40925
11
2.51874
21
1.40925
0
LINE
8
BLACK
6
CONTINUOUS
10
2.51874
20
1.40925
11
2.51944
21
1.40896
0
LINE
8
BLACK
6
CONTINUOUS
10
2.51944
20
1.40896
11
2.51972
21
1.40827
0
LINE
8
BLACK
6
CONTINUOUS
10
2.51972
20
1.40827
11
2.51972
21
1.29173
0
LINE
8
BLACK
6
CONTINUOUS
10
2.51972
20
1.29173
11
2.51944
21
1.29104
0
LINE
8
BLACK
6
CONTINUOUS
10
2.51944
20
1.29104
11
2.51874
21
1.29075
0
LINE
8
BLACK
6
CONTINUOUS
10
2.51874
20
1.29075
11
2.46126
21
1.29075
0
LINE
8
BLACK
6
CONTINUOUS
10
2.46126
20
1.29075
11
2.46056
21
1.29104
0
LINE
8
BLACK
6
CONTINUOUS
10
2.46224
20
1.40728
11
2.46224
21
1.29272
0
LINE
8
BLACK
6
CONTINUOUS
10
2.46224
20
1.29272
11
2.51776
21
1.29272
0
LINE
8
BLACK
6
CONTINUOUS
10
2.51776
20
1.29272
11
2.51776
21
1.40728
0
LINE
8
BLACK
6
CONTINUOUS
10
2.51776
20
1.40728
11
2.46224
21
1.40728
0
LINE
8
BLACK
6
CONTINUOUS
10
2.55056
20
1.29104
11
2.55028
21
1.29173
0
LINE
8
BLACK
6
CONTINUOUS
10
2.55028
20
1.29173
11
2.55028
21
1.40827
0
LINE
8
BLACK
6
CONTINUOUS
10
2.55028
20
1.40827
11
2.55056
21
1.40896
0
LINE
8
BLACK
6
CONTINUOUS
10
2.55056
20
1.40896
11
2.55126
21
1.40925
0
LINE
8
BLACK
6
CONTINUOUS
10
2.55126
20
1.40925
11
2.60874
21
1.40925
0
LINE
8
BLACK
6
CONTINUOUS
10
2.60874
20
1.40925
11
2.60944
21
1.40896
0
LINE
8
BLACK
6
CONTINUOUS
10
2.60944
20
1.40896
11
2.60972
21
1.40827
0
LINE
8
BLACK
6
CONTINUOUS
10
2.60972
20
1.40827
11
2.60972
21
1.29173
0
LINE
8
BLACK
6
CONTINUOUS
10
2.60972
20
1.29173
11
2.60944
21
1.29104
0
LINE
8
BLACK
6
CONTINUOUS
10
2.60944
20
1.29104
11
2.60874
21
1.29075
0
LINE
8
BLACK
6
CONTINUOUS
10
2.60874
20
1.29075
11
2.55126
21
1.29075
0
LINE
8
BLACK
6
CONTINUOUS
10
2.55126
20
1.29075
11
2.55056
21
1.29104
0
LINE
8
BLACK
6
CONTINUOUS
10
2.55224
20
1.40728
11
2.55224
21
1.29272
0
LINE
8
BLACK
6
CONTINUOUS
10
2.55224
20
1.29272
11
2.60776
21
1.29272
0
LINE
8
BLACK
6
CONTINUOUS
10
2.60776
20
1.29272
11
2.60776
21
1.40728
0
LINE
8
BLACK
6
CONTINUOUS
10
2.60776
20
1.40728
11
2.55224
21
1.40728
0
LINE
8
BLACK
6
CONTINUOUS
10
3.2319
20
1.30647
11
3.23161
21
1.30717
0
LINE
8
BLACK
6
CONTINUOUS
10
3.23161
20
1.30717
11
3.23161
21
1.45283
0
LINE
8
BLACK
6
CONTINUOUS
10
3.23161
20
1.45283
11
3.2319
21
1.45353
0
LINE
8
BLACK
6
CONTINUOUS
10
3.2319
20
1.45353
11
3.2326
21
1.45382
0
LINE
8
BLACK
6
CONTINUOUS
10
3.2326
20
1.45382
11
3.3074
21
1.45382
0
LINE
8
BLACK
6
CONTINUOUS
10
3.3074
20
1.45382
11
3.3081
21
1.45353
0
LINE
8
BLACK
6
CONTINUOUS
10
3.3081
20
1.45353
11
3.30839
21
1.45283
0
LINE
8
BLACK
6
CONTINUOUS
10
3.30839
20
1.45283
11
3.30839
21
1.30717
0
LINE
8
BLACK
6
CONTINUOUS
10
3.30839
20
1.30717
11
3.3081
21
1.30647
0
LINE
8
BLACK
6
CONTINUOUS
10
3.3081
20
1.30647
11
3.3074
21
1.30618
0
LINE
8
BLACK
6
CONTINUOUS
10
3.3074
20
1.30618
11
3.2326
21
1.30618
0
LINE
8
BLACK
6
CONTINUOUS
10
3.2326
20
1.30618
11
3.2319
21
1.30647
0
LINE
8
BLACK
6
CONTINUOUS
10
3.23358
20
1.45185
11
3.23358
21
1.30815
0
LINE
8
BLACK
6
CONTINUOUS
10
3.23358
20
1.30815
11
3.30642
21
1.30815
0
LINE
8
BLACK
6
CONTINUOUS
10
3.30642
20
1.30815
11
3.30642
21
1.45185
0
LINE
8
BLACK
6
CONTINUOUS
10
3.30642
20
1.45185
11
3.23358
21
1.45185
0
LINE
8
BLACK
6
CONTINUOUS
10
3.09104
20
1.31056
11
3.09075
21
1.31126
0
LINE
8
BLACK
6
CONTINUOUS
10
3.09075
20
1.31126
11
3.09075
21
1.36874
0
LINE
8
BLACK
6
CONTINUOUS
10
3.09075
20
1.36874
11
3.09104
21
1.36944
0
LINE
8
BLACK
6
CONTINUOUS
10
3.09104
20
1.36944
11
3.09173
21
1.36972
0
LINE
8
BLACK
6
CONTINUOUS
10
3.09173
20
1.36972
11
3.20827
21
1.36972
0
LINE
8
BLACK
6
CONTINUOUS
10
3.20827
20
1.36972
11
3.20896
21
1.36944
0
LINE
8
BLACK
6
CONTINUOUS
10
3.20896
20
1.36944
11
3.20925
21
1.36874
0
LINE
8
BLACK
6
CONTINUOUS
10
3.20925
20
1.36874
11
3.20925
21
1.31126
0
LINE
8
BLACK
6
CONTINUOUS
10
3.20925
20
1.31126
11
3.20896
21
1.31056
0
LINE
8
BLACK
6
CONTINUOUS
10
3.20896
20
1.31056
11
3.20827
21
1.31028
0
LINE
8
BLACK
6
CONTINUOUS
10
3.20827
20
1.31028
11
3.09173
21
1.31028
0
LINE
8
BLACK
6
CONTINUOUS
10
3.09173
20
1.31028
11
3.09104
21
1.31056
0
LINE
8
BLACK
6
CONTINUOUS
10
3.09272
20
1.36776
11
3.09272
21
1.31224
0
LINE
8
BLACK
6
CONTINUOUS
10
3.09272
20
1.31224
11
3.20728
21
1.31224
0
LINE
8
BLACK
6
CONTINUOUS
10
3.20728
20
1.31224
11
3.20728
21
1.36776
0
LINE
8
BLACK
6
CONTINUOUS
10
3.20728
20
1.36776
11
3.09272
21
1.36776
0
LINE
8
BLACK
6
CONTINUOUS
10
2.79104
20
1.32056
11
2.79075
21
1.32126
0
LINE
8
BLACK
6
CONTINUOUS
10
2.79075
20
1.32126
11
2.79075
21
1.37874
0
LINE
8
BLACK
6
CONTINUOUS
10
2.79075
20
1.37874
11
2.79104
21
1.37944
0
LINE
8
BLACK
6
CONTINUOUS
10
2.79104
20
1.37944
11
2.79173
21
1.37972
0
LINE
8
BLACK
6
CONTINUOUS
10
2.79173
20
1.37972
11
2.90827
21
1.37972
0
LINE
8
BLACK
6
CONTINUOUS
10
2.90827
20
1.37972
11
2.90896
21
1.37944
0
LINE
8
BLACK
6
CONTINUOUS
10
2.90896
20
1.37944
11
2.90925
21
1.37874
0
LINE
8
BLACK
6
CONTINUOUS
10
2.90925
20
1.37874
11
2.90925
21
1.32126
0
LINE
8
BLACK
6
CONTINUOUS
10
2.90925
20
1.32126
11
2.90896
21
1.32056
0
LINE
8
BLACK
6
CONTINUOUS
10
2.90896
20
1.32056
11
2.90827
21
1.32028
0
LINE
8
BLACK
6
CONTINUOUS
10
2.90827
20
1.32028
11
2.79173
21
1.32028
0
LINE
8
BLACK
6
CONTINUOUS
10
2.79173
20
1.32028
11
2.79104
21
1.32056
0
LINE
8
BLACK
6
CONTINUOUS
10
2.79272
20
1.37776
11
2.79272
21
1.32224
0
LINE
8
BLACK
6
CONTINUOUS
10
2.79272
20
1.32224
11
2.90728
21
1.32224
0
LINE
8
BLACK
6
CONTINUOUS
10
2.90728
20
1.32224
11
2.90728
21
1.37776
0
LINE
8
BLACK
6
CONTINUOUS
10
2.90728
20
1.37776
11
2.79272
21
1.37776
0
LINE
8
BLACK
6
CONTINUOUS
10
1.54056
20
1.35104
11
1.54028
21
1.35173
0
LINE
8
BLACK
6
CONTINUOUS
10
1.54028
20
1.35173
11
1.54028
21
1.46827
0
LINE
8
BLACK
6
CONTINUOUS
10
1.54028
20
1.46827
11
1.54056
21
1.46896
0
LINE
8
BLACK
6
CONTINUOUS
10
1.54056
20
1.46896
11
1.54126
21
1.46925
0
LINE
8
BLACK
6
CONTINUOUS
10
1.54126
20
1.46925
11
1.59874
21
1.46925
0
LINE
8
BLACK
6
CONTINUOUS
10
1.59874
20
1.46925
11
1.59944
21
1.46896
0
LINE
8
BLACK
6
CONTINUOUS
10
1.59944
20
1.46896
11
1.59972
21
1.46827
0
LINE
8
BLACK
6
CONTINUOUS
10
1.59972
20
1.46827
11
1.59972
21
1.35173
0
LINE
8
BLACK
6
CONTINUOUS
10
1.59972
20
1.35173
11
1.59944
21
1.35104
0
LINE
8
BLACK
6
CONTINUOUS
10
1.59944
20
1.35104
11
1.59874
21
1.35075
0
LINE
8
BLACK
6
CONTINUOUS
10
1.59874
20
1.35075
11
1.54126
21
1.35075
0
LINE
8
BLACK
6
CONTINUOUS
10
1.54126
20
1.35075
11
1.54056
21
1.35104
0
LINE
8
BLACK
6
CONTINUOUS
10
1.54224
20
1.46728
11
1.54224
21
1.35272
0
LINE
8
BLACK
6
CONTINUOUS
10
1.54224
20
1.35272
11
1.59776
21
1.35272
0
LINE
8
BLACK
6
CONTINUOUS
10
1.59776
20
1.35272
11
1.59776
21
1.46728
0
LINE
8
BLACK
6
CONTINUOUS
10
1.59776
20
1.46728
11
1.54224
21
1.46728
0
LINE
8
BLACK
6
CONTINUOUS
10
3.07237
20
1.3886
11
3.07209
21
1.38929
0
LINE
8
BLACK
6
CONTINUOUS
10
3.07209
20
1.38929
11
3.07209
21
1.55071
0
LINE
8
BLACK
6
CONTINUOUS
10
3.07209
20
1.55071
11
3.07237
21
1.5514
0
LINE
8
BLACK
6
CONTINUOUS
10
3.07237
20
1.5514
11
3.07307
21
1.55169
0
LINE
8
BLACK
6
CONTINUOUS
10
3.07307
20
1.55169
11
3.20693
21
1.55169
0
LINE
8
BLACK
6
CONTINUOUS
10
3.20693
20
1.55169
11
3.20763
21
1.5514
0
LINE
8
BLACK
6
CONTINUOUS
10
3.20763
20
1.5514
11
3.20791
21
1.55071
0
LINE
8
BLACK
6
CONTINUOUS
10
3.20791
20
1.55071
11
3.20791
21
1.38929
0
LINE
8
BLACK
6
CONTINUOUS
10
3.20791
20
1.38929
11
3.20763
21
1.3886
0
LINE
8
BLACK
6
CONTINUOUS
10
3.20763
20
1.3886
11
3.20693
21
1.38831
0
LINE
8
BLACK
6
CONTINUOUS
10
3.20693
20
1.38831
11
3.07307
21
1.38831
0
LINE
8
BLACK
6
CONTINUOUS
10
3.07307
20
1.38831
11
3.07237
21
1.3886
0
LINE
8
BLACK
6
CONTINUOUS
10
3.07406
20
1.54972
11
3.07406
21
1.39028
0
LINE
8
BLACK
6
CONTINUOUS
10
3.07406
20
1.39028
11
3.20594
21
1.39028
0
LINE
8
BLACK
6
CONTINUOUS
10
3.20594
20
1.39028
11
3.20594
21
1.54972
0
LINE
8
BLACK
6
CONTINUOUS
10
3.20594
20
1.54972
11
3.07406
21
1.54972
0
LINE
8
BLACK
6
CONTINUOUS
10
2.79104
20
1.41056
11
2.79075
21
1.41126
0
LINE
8
BLACK
6
CONTINUOUS
10
2.79075
20
1.41126
11
2.79075
21
1.46874
0
LINE
8
BLACK
6
CONTINUOUS
10
2.79075
20
1.46874
11
2.79104
21
1.46944
0
LINE
8
BLACK
6
CONTINUOUS
10
2.79104
20
1.46944
11
2.79173
21
1.46972
0
LINE
8
BLACK
6
CONTINUOUS
10
2.79173
20
1.46972
11
2.90827
21
1.46972
0
LINE
8
BLACK
6
CONTINUOUS
10
2.90827
20
1.46972
11
2.90896
21
1.46944
0
LINE
8
BLACK
6
CONTINUOUS
10
2.90896
20
1.46944
11
2.90925
21
1.46874
0
LINE
8
BLACK
6
CONTINUOUS
10
2.90925
20
1.46874
11
2.90925
21
1.41126
0
LINE
8
BLACK
6
CONTINUOUS
10
2.90925
20
1.41126
11
2.90896
21
1.41056
0
LINE
8
BLACK
6
CONTINUOUS
10
2.90896
20
1.41056
11
2.90827
21
1.41028
0
LINE
8
BLACK
6
CONTINUOUS
10
2.90827
20
1.41028
11
2.79173
21
1.41028
0
LINE
8
BLACK
6
CONTINUOUS
10
2.79173
20
1.41028
11
2.79104
21
1.41056
0
LINE
8
BLACK
6
CONTINUOUS
10
2.79272
20
1.46776
11
2.79272
21
1.41224
0
LINE
8
BLACK
6
CONTINUOUS
10
2.79272
20
1.41224
11
2.90728
21
1.41224
0
LINE
8
BLACK
6
CONTINUOUS
10
2.90728
20
1.41224
11
2.90728
21
1.46776
0
LINE
8
BLACK
6
CONTINUOUS
10
2.90728
20
1.46776
11
2.79272
21
1.46776
0
LINE
8
BLACK
6
CONTINUOUS
10
2.55785
20
1.4221
11
2.55756
21
1.4228
0
LINE
8
BLACK
6
CONTINUOUS
10
2.55756
20
1.4228
11
2.55756
21
1.5472
0
LINE
8
BLACK
6
CONTINUOUS
10
2.55756
20
1.5472
11
2.55785
21
1.5479
0
LINE
8
BLACK
6
CONTINUOUS
10
2.55785
20
1.5479
11
2.55854
21
1.54819
0
LINE
8
BLACK
6
CONTINUOUS
10
2.55854
20
1.54819
11
2.75146
21
1.54819
0
LINE
8
BLACK
6
CONTINUOUS
10
2.75146
20
1.54819
11
2.75215
21
1.5479
0
LINE
8
BLACK
6
CONTINUOUS
10
2.75215
20
1.5479
11
2.75244
21
1.5472
0
LINE
8
BLACK
6
CONTINUOUS
10
2.75244
20
1.5472
11
2.75244
21
1.4228
0
LINE
8
BLACK
6
CONTINUOUS
10
2.75244
20
1.4228
11
2.75215
21
1.4221
0
LINE
8
BLACK
6
CONTINUOUS
10
2.75215
20
1.4221
11
2.75146
21
1.42181
0
LINE
8
BLACK
6
CONTINUOUS
10
2.75146
20
1.42181
11
2.55854
21
1.42181
0
LINE
8
BLACK
6
CONTINUOUS
10
2.55854
20
1.42181
11
2.55785
21
1.4221
0
LINE
8
BLACK
6
CONTINUOUS
10
2.55953
20
1.54622
11
2.55953
21
1.42378
0
LINE
8
BLACK
6
CONTINUOUS
10
2.55953
20
1.42378
11
2.75047
21
1.42378
0
LINE
8
BLACK
6
CONTINUOUS
10
2.75047
20
1.42378
11
2.75047
21
1.54622
0
LINE
8
BLACK
6
CONTINUOUS
10
2.75047
20
1.54622
11
2.55953
21
1.54622
0
LINE
8
BLACK
6
CONTINUOUS
10
2.46056
20
1.43104
11
2.46028
21
1.43173
0
LINE
8
BLACK
6
CONTINUOUS
10
2.46028
20
1.43173
11
2.46028
21
1.54827
0
LINE
8
BLACK
6
CONTINUOUS
10
2.46028
20
1.54827
11
2.46056
21
1.54896
0
LINE
8
BLACK
6
CONTINUOUS
10
2.46056
20
1.54896
11
2.46126
21
1.54925
0
LINE
8
BLACK
6
CONTINUOUS
10
2.46126
20
1.54925
11
2.51874
21
1.54925
0
LINE
8
BLACK
6
CONTINUOUS
10
2.51874
20
1.54925
11
2.51944
21
1.54896
0
LINE
8
BLACK
6
CONTINUOUS
10
2.51944
20
1.54896
11
2.51972
21
1.54827
0
LINE
8
BLACK
6
CONTINUOUS
10
2.51972
20
1.54827
11
2.51972
21
1.43173
0
LINE
8
BLACK
6
CONTINUOUS
10
2.51972
20
1.43173
11
2.51944
21
1.43104
0
LINE
8
BLACK
6
CONTINUOUS
10
2.51944
20
1.43104
11
2.51874
21
1.43075
0
LINE
8
BLACK
6
CONTINUOUS
10
2.51874
20
1.43075
11
2.46126
21
1.43075
0
LINE
8
BLACK
6
CONTINUOUS
10
2.46126
20
1.43075
11
2.46056
21
1.43104
0
LINE
8
BLACK
6
CONTINUOUS
10
2.46224
20
1.54728
11
2.46224
21
1.43272
0
LINE
8
BLACK
6
CONTINUOUS
10
2.46224
20
1.43272
11
2.51776
21
1.43272
0
LINE
8
BLACK
6
CONTINUOUS
10
2.51776
20
1.43272
11
2.51776
21
1.54728
0
LINE
8
BLACK
6
CONTINUOUS
10
2.51776
20
1.54728
11
2.46224
21
1.54728
0
LINE
8
BLACK
6
CONTINUOUS
10
2.79104
20
1.49056
11
2.79075
21
1.49126
0
LINE
8
BLACK
6
CONTINUOUS
10
2.79075
20
1.49126
11
2.79075
21
1.54874
0
LINE
8
BLACK
6
CONTINUOUS
10
2.79075
20
1.54874
11
2.79104
21
1.54944
0
LINE
8
BLACK
6
CONTINUOUS
10
2.79104
20
1.54944
11
2.79173
21
1.54972
0
LINE
8
BLACK
6
CONTINUOUS
10
2.79173
20
1.54972
11
2.90827
21
1.54972
0
LINE
8
BLACK
6
CONTINUOUS
10
2.90827
20
1.54972
11
2.90896
21
1.54944
0
LINE
8
BLACK
6
CONTINUOUS
10
2.90896
20
1.54944
11
2.90925
21
1.54874
0
LINE
8
BLACK
6
CONTINUOUS
10
2.90925
20
1.54874
11
2.90925
21
1.49126
0
LINE
8
BLACK
6
CONTINUOUS
10
2.90925
20
1.49126
11
2.90896
21
1.49056
0
LINE
8
BLACK
6
CONTINUOUS
10
2.90896
20
1.49056
11
2.90827
21
1.49028
0
LINE
8
BLACK
6
CONTINUOUS
10
2.90827
20
1.49028
11
2.79173
21
1.49028
0
LINE
8
BLACK
6
CONTINUOUS
10
2.79173
20
1.49028
11
2.79104
21
1.49056
0
LINE
8
BLACK
6
CONTINUOUS
10
2.79272
20
1.54776
11
2.79272
21
1.49224
0
LINE
8
BLACK
6
CONTINUOUS
10
2.79272
20
1.49224
11
2.90728
21
1.49224
0
LINE
8
BLACK
6
CONTINUOUS
10
2.90728
20
1.49224
11
2.90728
21
1.54776
0
LINE
8
BLACK
6
CONTINUOUS
10
2.90728
20
1.54776
11
2.79272
21
1.54776
0
LINE
8
BLACK
6
CONTINUOUS
10
2.92056
20
1.52155
11
2.92028
21
1.52224
0
LINE
8
BLACK
6
CONTINUOUS
10
2.92028
20
1.52224
11
2.92028
21
1.63878
0
LINE
8
BLACK
6
CONTINUOUS
10
2.92028
20
1.63878
11
2.92056
21
1.63948
0
LINE
8
BLACK
6
CONTINUOUS
10
2.92056
20
1.63948
11
2.92126
21
1.63976
0
LINE
8
BLACK
6
CONTINUOUS
10
2.92126
20
1.63976
11
2.97874
21
1.63976
0
LINE
8
BLACK
6
CONTINUOUS
10
2.97874
20
1.63976
11
2.97944
21
1.63948
0
LINE
8
BLACK
6
CONTINUOUS
10
2.97944
20
1.63948
11
2.97972
21
1.63878
0
LINE
8
BLACK
6
CONTINUOUS
10
2.97972
20
1.63878
11
2.97972
21
1.52224
0
LINE
8
BLACK
6
CONTINUOUS
10
2.97972
20
1.52224
11
2.97944
21
1.52155
0
LINE
8
BLACK
6
CONTINUOUS
10
2.97944
20
1.52155
11
2.97874
21
1.52126
0
LINE
8
BLACK
6
CONTINUOUS
10
2.97874
20
1.52126
11
2.92126
21
1.52126
0
LINE
8
BLACK
6
CONTINUOUS
10
2.92126
20
1.52126
11
2.92056
21
1.52155
0
LINE
8
BLACK
6
CONTINUOUS
10
2.92224
20
1.6378
11
2.92224
21
1.52323
0
LINE
8
BLACK
6
CONTINUOUS
10
2.92224
20
1.52323
11
2.97776
21
1.52323
0
LINE
8
BLACK
6
CONTINUOUS
10
2.97776
20
1.52323
11
2.97776
21
1.6378
0
LINE
8
BLACK
6
CONTINUOUS
10
2.97776
20
1.6378
11
2.92224
21
1.6378
0
LINE
8
BLACK
6
CONTINUOUS
10
3.00056
20
1.52155
11
3.00028
21
1.52224
0
LINE
8
BLACK
6
CONTINUOUS
10
3.00028
20
1.52224
11
3.00028
21
1.63878
0
LINE
8
BLACK
6
CONTINUOUS
10
3.00028
20
1.63878
11
3.00056
21
1.63948
0
LINE
8
BLACK
6
CONTINUOUS
10
3.00056
20
1.63948
11
3.00126
21
1.63976
0
LINE
8
BLACK
6
CONTINUOUS
10
3.00126
20
1.63976
11
3.05874
21
1.63976
0
LINE
8
BLACK
6
CONTINUOUS
10
3.05874
20
1.63976
11
3.05944
21
1.63948
0
LINE
8
BLACK
6
CONTINUOUS
10
3.05944
20
1.63948
11
3.05972
21
1.63878
0
LINE
8
BLACK
6
CONTINUOUS
10
3.05972
20
1.63878
11
3.05972
21
1.52224
0
LINE
8
BLACK
6
CONTINUOUS
10
3.05972
20
1.52224
11
3.05944
21
1.52155
0
LINE
8
BLACK
6
CONTINUOUS
10
3.05944
20
1.52155
11
3.05874
21
1.52126
0
LINE
8
BLACK
6
CONTINUOUS
10
3.05874
20
1.52126
11
3.00126
21
1.52126
0
LINE
8
BLACK
6
CONTINUOUS
10
3.00126
20
1.52126
11
3.00056
21
1.52155
0
LINE
8
BLACK
6
CONTINUOUS
10
3.00224
20
1.6378
11
3.00224
21
1.52323
0
LINE
8
BLACK
6
CONTINUOUS
10
3.00224
20
1.52323
11
3.05776
21
1.52323
0
LINE
8
BLACK
6
CONTINUOUS
10
3.05776
20
1.52323
11
3.05776
21
1.6378
0
LINE
8
BLACK
6
CONTINUOUS
10
3.05776
20
1.6378
11
3.00224
21
1.6378
0
LINE
8
BLACK
6
CONTINUOUS
10
1.99104
20
1.72056
11
1.99075
21
1.72126
0
LINE
8
BLACK
6
CONTINUOUS
10
1.99075
20
1.72126
11
1.99075
21
1.77874
0
LINE
8
BLACK
6
CONTINUOUS
10
1.99075
20
1.77874
11
1.99104
21
1.77944
0
LINE
8
BLACK
6
CONTINUOUS
10
1.99104
20
1.77944
11
1.99173
21
1.77972
0
LINE
8
BLACK
6
CONTINUOUS
10
1.99173
20
1.77972
11
2.10827
21
1.77972
0
LINE
8
BLACK
6
CONTINUOUS
10
2.10827
20
1.77972
11
2.10896
21
1.77944
0
LINE
8
BLACK
6
CONTINUOUS
10
2.10896
20
1.77944
11
2.10925
21
1.77874
0
LINE
8
BLACK
6
CONTINUOUS
10
2.10925
20
1.77874
11
2.10925
21
1.72126
0
LINE
8
BLACK
6
CONTINUOUS
10
2.10925
20
1.72126
11
2.10896
21
1.72056
0
LINE
8
BLACK
6
CONTINUOUS
10
2.10896
20
1.72056
11
2.10827
21
1.72028
0
LINE
8
BLACK
6
CONTINUOUS
10
2.10827
20
1.72028
11
1.99173
21
1.72028
0
LINE
8
BLACK
6
CONTINUOUS
10
1.99173
20
1.72028
11
1.99104
21
1.72056
0
LINE
8
BLACK
6
CONTINUOUS
10
1.99272
20
1.77776
11
1.99272
21
1.72224
0
LINE
8
BLACK
6
CONTINUOUS
10
1.99272
20
1.72224
11
2.10728
21
1.72224
0
LINE
8
BLACK
6
CONTINUOUS
10
2.10728
20
1.72224
11
2.10728
21
1.77776
0
LINE
8
BLACK
6
CONTINUOUS
10
2.10728
20
1.77776
11
1.99272
21
1.77776
0
LINE
8
BLACK
6
CONTINUOUS
10
2.12056
20
1.73104
11
2.12028
21
1.73173
0
LINE
8
BLACK
6
CONTINUOUS
10
2.12028
20
1.73173
11
2.12028
21
1.84827
0
LINE
8
BLACK
6
CONTINUOUS
10
2.12028
20
1.84827
11
2.12056
21
1.84896
0
LINE
8
BLACK
6
CONTINUOUS
10
2.12056
20
1.84896
11
2.12126
21
1.84925
0
LINE
8
BLACK
6
CONTINUOUS
10
2.12126
20
1.84925
11
2.17874
21
1.84925
0
LINE
8
BLACK
6
CONTINUOUS
10
2.17874
20
1.84925
11
2.17944
21
1.84896
0
LINE
8
BLACK
6
CONTINUOUS
10
2.17944
20
1.84896
11
2.17972
21
1.84827
0
LINE
8
BLACK
6
CONTINUOUS
10
2.17972
20
1.84827
11
2.17972
21
1.73173
0
LINE
8
BLACK
6
CONTINUOUS
10
2.17972
20
1.73173
11
2.17944
21
1.73104
0
LINE
8
BLACK
6
CONTINUOUS
10
2.17944
20
1.73104
11
2.17874
21
1.73075
0
LINE
8
BLACK
6
CONTINUOUS
10
2.17874
20
1.73075
11
2.12126
21
1.73075
0
LINE
8
BLACK
6
CONTINUOUS
10
2.12126
20
1.73075
11
2.12056
21
1.73104
0
LINE
8
BLACK
6
CONTINUOUS
10
2.12224
20
1.84728
11
2.12224
21
1.73272
0
LINE
8
BLACK
6
CONTINUOUS
10
2.12224
20
1.73272
11
2.17776
21
1.73272
0
LINE
8
BLACK
6
CONTINUOUS
10
2.17776
20
1.73272
11
2.17776
21
1.84728
0
LINE
8
BLACK
6
CONTINUOUS
10
2.17776
20
1.84728
11
2.12224
21
1.84728
0
LINE
8
BLACK
6
CONTINUOUS
10
2.57056
20
1.75104
11
2.57028
21
1.75173
0
LINE
8
BLACK
6
CONTINUOUS
10
2.57028
20
1.75173
11
2.57028
21
1.86827
0
LINE
8
BLACK
6
CONTINUOUS
10
2.57028
20
1.86827
11
2.57056
21
1.86896
0
LINE
8
BLACK
6
CONTINUOUS
10
2.57056
20
1.86896
11
2.57126
21
1.86925
0
LINE
8
BLACK
6
CONTINUOUS
10
2.57126
20
1.86925
11
2.62874
21
1.86925
0
LINE
8
BLACK
6
CONTINUOUS
10
2.62874
20
1.86925
11
2.62944
21
1.86896
0
LINE
8
BLACK
6
CONTINUOUS
10
2.62944
20
1.86896
11
2.62972
21
1.86827
0
LINE
8
BLACK
6
CONTINUOUS
10
2.62972
20
1.86827
11
2.62972
21
1.75173
0
LINE
8
BLACK
6
CONTINUOUS
10
2.62972
20
1.75173
11
2.62944
21
1.75104
0
LINE
8
BLACK
6
CONTINUOUS
10
2.62944
20
1.75104
11
2.62874
21
1.75075
0
LINE
8
BLACK
6
CONTINUOUS
10
2.62874
20
1.75075
11
2.57126
21
1.75075
0
LINE
8
BLACK
6
CONTINUOUS
10
2.57126
20
1.75075
11
2.57056
21
1.75104
0
LINE
8
BLACK
6
CONTINUOUS
10
2.57224
20
1.86728
11
2.57224
21
1.75272
0
LINE
8
BLACK
6
CONTINUOUS
10
2.57224
20
1.75272
11
2.62776
21
1.75272
0
LINE
8
BLACK
6
CONTINUOUS
10
2.62776
20
1.75272
11
2.62776
21
1.86728
0
LINE
8
BLACK
6
CONTINUOUS
10
2.62776
20
1.86728
11
2.57224
21
1.86728
  0
ENDSEC
  0
EOF
