  0
SECTION
  2
HEADER
  9
$ANGBASE
  50
0.0
  9
$ANGDIR
  70
1
  9
$MEASUREMENT
  70
0
  0
ENDSEC
  0
SECTION
  2
TABLES
  0
TABLE
  2
LTYPE
  70
4
  0
LTYPE
  5
40F
  2
CONTINUOUS
  70
0
  3
Solid line
  72
65
  73
0
  40
0.0
  0
LTYPE
  5
410
  2
DASHDOT
 70
0
  3
Dash Dot ____ _ ____ _
 72
65
 73
4
 40
2.0
 49
1.25
 49
-0.25
 49
0.25
 49
-0.25
  0
LTYPE
  5
411
  2
DASHED
 70
0
  3
Dashed __ __ __ __ __
 72
65
 73
2
 40
0.75
 49
0.5
 49
-0.25
  0
LTYPE
  5
43B
  2
DOTTED
 70
0
  3
Dotted .  .  .  .
 72
65
 73
2
 40
0.2
 49
0.0
 49
-0.2
  0
ENDTAB
  0
TABLE
  2
STYLE
  70
4
  0
STYLE
  2
KICAD
  70
0
  40
0
  41
1
  42
1
  50
0
  71
0
  3
isocp.shx
  0
STYLE
  2
KICADB
  70
0
  40
0
  41
1
  42
1
  50
0
  71
0
  3
isocp.shx
  0
STYLE
  2
KICADI
  70
0
  40
0
  41
1
  42
1
  50
15
  71
0
  3
isocp.shx
  0
STYLE
  2
KICADBI
  70
0
  40
0
  41
1
  42
1
  50
15
  71
0
  3
isocp.shx
  0
ENDTAB
  0
TABLE
  2
LAYER
  70
1
  0
LAYER
  2
BLACK
  70
0
  62
7
  6
CONTINUOUS
  0
ENDTAB
  0
ENDSEC
  0
SECTION
  2
ENTITIES
0
LINE
8
BLACK
6
CONTINUOUS
10
7.14829
20
-4.83355
11
7.14801
21
-4.83285
0
LINE
8
BLACK
6
CONTINUOUS
10
7.14801
20
-4.83285
11
7.14801
21
-4.43128
0
LINE
8
BLACK
6
CONTINUOUS
10
7.14801
20
-4.43128
11
7.14829
21
-4.43058
0
LINE
8
BLACK
6
CONTINUOUS
10
7.14829
20
-4.43058
11
7.14899
21
-4.43029
0
LINE
8
BLACK
6
CONTINUOUS
10
7.14899
20
-4.43029
11
7.48088
21
-4.43029
0
LINE
8
BLACK
6
CONTINUOUS
10
7.48088
20
-4.43029
11
7.48158
21
-4.43058
0
LINE
8
BLACK
6
CONTINUOUS
10
7.48158
20
-4.43058
11
7.48186
21
-4.43128
0
LINE
8
BLACK
6
CONTINUOUS
10
7.48186
20
-4.43128
11
7.48186
21
-4.83285
0
LINE
8
BLACK
6
CONTINUOUS
10
7.48186
20
-4.83285
11
7.48158
21
-4.83355
0
LINE
8
BLACK
6
CONTINUOUS
10
7.48158
20
-4.83355
11
7.48088
21
-4.83384
0
LINE
8
BLACK
6
CONTINUOUS
10
7.48088
20
-4.83384
11
7.14899
21
-4.83384
0
LINE
8
BLACK
6
CONTINUOUS
10
7.14899
20
-4.83384
11
7.14829
21
-4.83355
0
LINE
8
BLACK
6
CONTINUOUS
10
7.14997
20
-4.43226
11
7.14997
21
-4.83187
0
LINE
8
BLACK
6
CONTINUOUS
10
7.14997
20
-4.83187
11
7.4799
21
-4.83187
0
LINE
8
BLACK
6
CONTINUOUS
10
7.4799
20
-4.83187
11
7.4799
21
-4.43226
0
LINE
8
BLACK
6
CONTINUOUS
10
7.4799
20
-4.43226
11
7.14997
21
-4.43226
0
LINE
8
BLACK
6
CONTINUOUS
10
5.89239
20
-4.78514
11
5.8921
21
-4.78445
0
LINE
8
BLACK
6
CONTINUOUS
10
5.8921
20
-4.78445
11
5.8921
21
-4.65059
0
LINE
8
BLACK
6
CONTINUOUS
10
5.8921
20
-4.65059
11
5.89239
21
-4.64989
0
LINE
8
BLACK
6
CONTINUOUS
10
5.89239
20
-4.64989
11
5.89308
21
-4.6496
0
LINE
8
BLACK
6
CONTINUOUS
10
5.89308
20
-4.6496
11
6.04427
21
-4.6496
0
LINE
8
BLACK
6
CONTINUOUS
10
6.04427
20
-4.6496
11
6.04496
21
-4.64989
0
LINE
8
BLACK
6
CONTINUOUS
10
6.04496
20
-4.64989
11
6.04525
21
-4.65059
0
LINE
8
BLACK
6
CONTINUOUS
10
6.04525
20
-4.65059
11
6.04525
21
-4.78445
0
LINE
8
BLACK
6
CONTINUOUS
10
6.04525
20
-4.78445
11
6.04496
21
-4.78514
0
LINE
8
BLACK
6
CONTINUOUS
10
6.04496
20
-4.78514
11
6.04427
21
-4.78543
0
LINE
8
BLACK
6
CONTINUOUS
10
6.04427
20
-4.78543
11
5.89308
21
-4.78543
0
LINE
8
BLACK
6
CONTINUOUS
10
5.89308
20
-4.78543
11
5.89239
21
-4.78514
0
LINE
8
BLACK
6
CONTINUOUS
10
5.89407
20
-4.65157
11
5.89407
21
-4.78346
0
LINE
8
BLACK
6
CONTINUOUS
10
5.89407
20
-4.78346
11
6.04328
21
-4.78346
0
LINE
8
BLACK
6
CONTINUOUS
10
6.04328
20
-4.78346
11
6.04328
21
-4.65157
0
LINE
8
BLACK
6
CONTINUOUS
10
6.04328
20
-4.65157
11
5.89407
21
-4.65157
0
LINE
8
BLACK
6
CONTINUOUS
10
6.08239
20
-4.78514
11
6.0821
21
-4.78445
0
LINE
8
BLACK
6
CONTINUOUS
10
6.0821
20
-4.78445
11
6.0821
21
-4.65059
0
LINE
8
BLACK
6
CONTINUOUS
10
6.0821
20
-4.65059
11
6.08239
21
-4.64989
0
LINE
8
BLACK
6
CONTINUOUS
10
6.08239
20
-4.64989
11
6.08308
21
-4.6496
0
LINE
8
BLACK
6
CONTINUOUS
10
6.08308
20
-4.6496
11
6.23427
21
-4.6496
0
LINE
8
BLACK
6
CONTINUOUS
10
6.23427
20
-4.6496
11
6.23496
21
-4.64989
0
LINE
8
BLACK
6
CONTINUOUS
10
6.23496
20
-4.64989
11
6.23525
21
-4.65059
0
LINE
8
BLACK
6
CONTINUOUS
10
6.23525
20
-4.65059
11
6.23525
21
-4.78445
0
LINE
8
BLACK
6
CONTINUOUS
10
6.23525
20
-4.78445
11
6.23496
21
-4.78514
0
LINE
8
BLACK
6
CONTINUOUS
10
6.23496
20
-4.78514
11
6.23427
21
-4.78543
0
LINE
8
BLACK
6
CONTINUOUS
10
6.23427
20
-4.78543
11
6.08308
21
-4.78543
0
LINE
8
BLACK
6
CONTINUOUS
10
6.08308
20
-4.78543
11
6.08239
21
-4.78514
0
LINE
8
BLACK
6
CONTINUOUS
10
6.08407
20
-4.65157
11
6.08407
21
-4.78346
0
LINE
8
BLACK
6
CONTINUOUS
10
6.08407
20
-4.78346
11
6.23328
21
-4.78346
0
LINE
8
BLACK
6
CONTINUOUS
10
6.23328
20
-4.78346
11
6.23328
21
-4.65157
0
LINE
8
BLACK
6
CONTINUOUS
10
6.23328
20
-4.65157
11
6.08407
21
-4.65157
0
LINE
8
BLACK
6
CONTINUOUS
10
5.69239
20
-4.78514
11
5.6921
21
-4.78445
0
LINE
8
BLACK
6
CONTINUOUS
10
5.6921
20
-4.78445
11
5.6921
21
-4.65059
0
LINE
8
BLACK
6
CONTINUOUS
10
5.6921
20
-4.65059
11
5.69239
21
-4.64989
0
LINE
8
BLACK
6
CONTINUOUS
10
5.69239
20
-4.64989
11
5.69308
21
-4.6496
0
LINE
8
BLACK
6
CONTINUOUS
10
5.69308
20
-4.6496
11
5.84427
21
-4.6496
0
LINE
8
BLACK
6
CONTINUOUS
10
5.84427
20
-4.6496
11
5.84496
21
-4.64989
0
LINE
8
BLACK
6
CONTINUOUS
10
5.84496
20
-4.64989
11
5.84525
21
-4.65059
0
LINE
8
BLACK
6
CONTINUOUS
10
5.84525
20
-4.65059
11
5.84525
21
-4.78445
0
LINE
8
BLACK
6
CONTINUOUS
10
5.84525
20
-4.78445
11
5.84496
21
-4.78514
0
LINE
8
BLACK
6
CONTINUOUS
10
5.84496
20
-4.78514
11
5.84427
21
-4.78543
0
LINE
8
BLACK
6
CONTINUOUS
10
5.84427
20
-4.78543
11
5.69308
21
-4.78543
0
LINE
8
BLACK
6
CONTINUOUS
10
5.69308
20
-4.78543
11
5.69239
21
-4.78514
0
LINE
8
BLACK
6
CONTINUOUS
10
5.69407
20
-4.65157
11
5.69407
21
-4.78346
0
LINE
8
BLACK
6
CONTINUOUS
10
5.69407
20
-4.78346
11
5.84328
21
-4.78346
0
LINE
8
BLACK
6
CONTINUOUS
10
5.84328
20
-4.78346
11
5.84328
21
-4.65157
0
LINE
8
BLACK
6
CONTINUOUS
10
5.84328
20
-4.65157
11
5.69407
21
-4.65157
0
LINE
8
BLACK
6
CONTINUOUS
10
6.10924
20
-4.63648
11
6.10895
21
-4.63578
0
LINE
8
BLACK
6
CONTINUOUS
10
6.10895
20
-4.63578
11
6.10895
21
-4.51925
0
LINE
8
BLACK
6
CONTINUOUS
10
6.10895
20
-4.51925
11
6.10924
21
-4.51855
0
LINE
8
BLACK
6
CONTINUOUS
10
6.10924
20
-4.51855
11
6.10993
21
-4.51826
0
LINE
8
BLACK
6
CONTINUOUS
10
6.10993
20
-4.51826
11
6.16742
21
-4.51826
0
LINE
8
BLACK
6
CONTINUOUS
10
6.16742
20
-4.51826
11
6.16811
21
-4.51855
0
LINE
8
BLACK
6
CONTINUOUS
10
6.16811
20
-4.51855
11
6.1684
21
-4.51925
0
LINE
8
BLACK
6
CONTINUOUS
10
6.1684
20
-4.51925
11
6.1684
21
-4.63578
0
LINE
8
BLACK
6
CONTINUOUS
10
6.1684
20
-4.63578
11
6.16811
21
-4.63648
0
LINE
8
BLACK
6
CONTINUOUS
10
6.16811
20
-4.63648
11
6.16742
21
-4.63677
0
LINE
8
BLACK
6
CONTINUOUS
10
6.16742
20
-4.63677
11
6.10993
21
-4.63677
0
LINE
8
BLACK
6
CONTINUOUS
10
6.10993
20
-4.63677
11
6.10924
21
-4.63648
0
LINE
8
BLACK
6
CONTINUOUS
10
6.11092
20
-4.52023
11
6.11092
21
-4.6348
0
LINE
8
BLACK
6
CONTINUOUS
10
6.11092
20
-4.6348
11
6.16643
21
-4.6348
0
LINE
8
BLACK
6
CONTINUOUS
10
6.16643
20
-4.6348
11
6.16643
21
-4.52023
0
LINE
8
BLACK
6
CONTINUOUS
10
6.16643
20
-4.52023
11
6.11092
21
-4.52023
0
LINE
8
BLACK
6
CONTINUOUS
10
5.90924
20
-4.63648
11
5.90895
21
-4.63578
0
LINE
8
BLACK
6
CONTINUOUS
10
5.90895
20
-4.63578
11
5.90895
21
-4.51925
0
LINE
8
BLACK
6
CONTINUOUS
10
5.90895
20
-4.51925
11
5.90924
21
-4.51855
0
LINE
8
BLACK
6
CONTINUOUS
10
5.90924
20
-4.51855
11
5.90993
21
-4.51826
0
LINE
8
BLACK
6
CONTINUOUS
10
5.90993
20
-4.51826
11
5.96741
21
-4.51826
0
LINE
8
BLACK
6
CONTINUOUS
10
5.96741
20
-4.51826
11
5.96811
21
-4.51855
0
LINE
8
BLACK
6
CONTINUOUS
10
5.96811
20
-4.51855
11
5.9684
21
-4.51925
0
LINE
8
BLACK
6
CONTINUOUS
10
5.9684
20
-4.51925
11
5.9684
21
-4.63578
0
LINE
8
BLACK
6
CONTINUOUS
10
5.9684
20
-4.63578
11
5.96811
21
-4.63648
0
LINE
8
BLACK
6
CONTINUOUS
10
5.96811
20
-4.63648
11
5.96741
21
-4.63677
0
LINE
8
BLACK
6
CONTINUOUS
10
5.96741
20
-4.63677
11
5.90993
21
-4.63677
0
LINE
8
BLACK
6
CONTINUOUS
10
5.90993
20
-4.63677
11
5.90924
21
-4.63648
0
LINE
8
BLACK
6
CONTINUOUS
10
5.91092
20
-4.52023
11
5.91092
21
-4.6348
0
LINE
8
BLACK
6
CONTINUOUS
10
5.91092
20
-4.6348
11
5.96643
21
-4.6348
0
LINE
8
BLACK
6
CONTINUOUS
10
5.96643
20
-4.6348
11
5.96643
21
-4.52023
0
LINE
8
BLACK
6
CONTINUOUS
10
5.96643
20
-4.52023
11
5.91092
21
-4.52023
0
LINE
8
BLACK
6
CONTINUOUS
10
5.70924
20
-4.63648
11
5.70895
21
-4.63578
0
LINE
8
BLACK
6
CONTINUOUS
10
5.70895
20
-4.63578
11
5.70895
21
-4.51925
0
LINE
8
BLACK
6
CONTINUOUS
10
5.70895
20
-4.51925
11
5.70924
21
-4.51855
0
LINE
8
BLACK
6
CONTINUOUS
10
5.70924
20
-4.51855
11
5.70993
21
-4.51826
0
LINE
8
BLACK
6
CONTINUOUS
10
5.70993
20
-4.51826
11
5.76741
21
-4.51826
0
LINE
8
BLACK
6
CONTINUOUS
10
5.76741
20
-4.51826
11
5.76811
21
-4.51855
0
LINE
8
BLACK
6
CONTINUOUS
10
5.76811
20
-4.51855
11
5.7684
21
-4.51925
0
LINE
8
BLACK
6
CONTINUOUS
10
5.7684
20
-4.51925
11
5.7684
21
-4.63578
0
LINE
8
BLACK
6
CONTINUOUS
10
5.7684
20
-4.63578
11
5.76811
21
-4.63648
0
LINE
8
BLACK
6
CONTINUOUS
10
5.76811
20
-4.63648
11
5.76741
21
-4.63677
0
LINE
8
BLACK
6
CONTINUOUS
10
5.76741
20
-4.63677
11
5.70993
21
-4.63677
0
LINE
8
BLACK
6
CONTINUOUS
10
5.70993
20
-4.63677
11
5.70924
21
-4.63648
0
LINE
8
BLACK
6
CONTINUOUS
10
5.71092
20
-4.52023
11
5.71092
21
-4.6348
0
LINE
8
BLACK
6
CONTINUOUS
10
5.71092
20
-4.6348
11
5.76643
21
-4.6348
0
LINE
8
BLACK
6
CONTINUOUS
10
5.76643
20
-4.6348
11
5.76643
21
-4.52023
0
LINE
8
BLACK
6
CONTINUOUS
10
5.76643
20
-4.52023
11
5.71092
21
-4.52023
0
LINE
8
BLACK
6
CONTINUOUS
10
6.00924
20
-4.59648
11
6.00895
21
-4.59578
0
LINE
8
BLACK
6
CONTINUOUS
10
6.00895
20
-4.59578
11
6.00895
21
-4.47925
0
LINE
8
BLACK
6
CONTINUOUS
10
6.00895
20
-4.47925
11
6.00924
21
-4.47855
0
LINE
8
BLACK
6
CONTINUOUS
10
6.00924
20
-4.47855
11
6.00993
21
-4.47826
0
LINE
8
BLACK
6
CONTINUOUS
10
6.00993
20
-4.47826
11
6.06741
21
-4.47826
0
LINE
8
BLACK
6
CONTINUOUS
10
6.06741
20
-4.47826
11
6.06811
21
-4.47855
0
LINE
8
BLACK
6
CONTINUOUS
10
6.06811
20
-4.47855
11
6.0684
21
-4.47925
0
LINE
8
BLACK
6
CONTINUOUS
10
6.0684
20
-4.47925
11
6.0684
21
-4.59578
0
LINE
8
BLACK
6
CONTINUOUS
10
6.0684
20
-4.59578
11
6.06811
21
-4.59648
0
LINE
8
BLACK
6
CONTINUOUS
10
6.06811
20
-4.59648
11
6.06741
21
-4.59677
0
LINE
8
BLACK
6
CONTINUOUS
10
6.06741
20
-4.59677
11
6.00993
21
-4.59677
0
LINE
8
BLACK
6
CONTINUOUS
10
6.00993
20
-4.59677
11
6.00924
21
-4.59648
0
LINE
8
BLACK
6
CONTINUOUS
10
6.01092
20
-4.48023
11
6.01092
21
-4.5948
0
LINE
8
BLACK
6
CONTINUOUS
10
6.01092
20
-4.5948
11
6.06643
21
-4.5948
0
LINE
8
BLACK
6
CONTINUOUS
10
6.06643
20
-4.5948
11
6.06643
21
-4.48023
0
LINE
8
BLACK
6
CONTINUOUS
10
6.06643
20
-4.48023
11
6.01092
21
-4.48023
0
LINE
8
BLACK
6
CONTINUOUS
10
5.80924
20
-4.59648
11
5.80895
21
-4.59578
0
LINE
8
BLACK
6
CONTINUOUS
10
5.80895
20
-4.59578
11
5.80895
21
-4.47925
0
LINE
8
BLACK
6
CONTINUOUS
10
5.80895
20
-4.47925
11
5.80924
21
-4.47855
0
LINE
8
BLACK
6
CONTINUOUS
10
5.80924
20
-4.47855
11
5.80993
21
-4.47826
0
LINE
8
BLACK
6
CONTINUOUS
10
5.80993
20
-4.47826
11
5.86742
21
-4.47826
0
LINE
8
BLACK
6
CONTINUOUS
10
5.86742
20
-4.47826
11
5.86811
21
-4.47855
0
LINE
8
BLACK
6
CONTINUOUS
10
5.86811
20
-4.47855
11
5.8684
21
-4.47925
0
LINE
8
BLACK
6
CONTINUOUS
10
5.8684
20
-4.47925
11
5.8684
21
-4.59578
0
LINE
8
BLACK
6
CONTINUOUS
10
5.8684
20
-4.59578
11
5.86811
21
-4.59648
0
LINE
8
BLACK
6
CONTINUOUS
10
5.86811
20
-4.59648
11
5.86742
21
-4.59677
0
LINE
8
BLACK
6
CONTINUOUS
10
5.86742
20
-4.59677
11
5.80993
21
-4.59677
0
LINE
8
BLACK
6
CONTINUOUS
10
5.80993
20
-4.59677
11
5.80924
21
-4.59648
0
LINE
8
BLACK
6
CONTINUOUS
10
5.81092
20
-4.48023
11
5.81092
21
-4.5948
0
LINE
8
BLACK
6
CONTINUOUS
10
5.81092
20
-4.5948
11
5.86643
21
-4.5948
0
LINE
8
BLACK
6
CONTINUOUS
10
5.86643
20
-4.5948
11
5.86643
21
-4.48023
0
LINE
8
BLACK
6
CONTINUOUS
10
5.86643
20
-4.48023
11
5.81092
21
-4.48023
0
LINE
8
BLACK
6
CONTINUOUS
10
6.19924
20
-4.59648
11
6.19895
21
-4.59578
0
LINE
8
BLACK
6
CONTINUOUS
10
6.19895
20
-4.59578
11
6.19895
21
-4.47925
0
LINE
8
BLACK
6
CONTINUOUS
10
6.19895
20
-4.47925
11
6.19924
21
-4.47855
0
LINE
8
BLACK
6
CONTINUOUS
10
6.19924
20
-4.47855
11
6.19993
21
-4.47826
0
LINE
8
BLACK
6
CONTINUOUS
10
6.19993
20
-4.47826
11
6.25741
21
-4.47826
0
LINE
8
BLACK
6
CONTINUOUS
10
6.25741
20
-4.47826
11
6.25811
21
-4.47855
0
LINE
8
BLACK
6
CONTINUOUS
10
6.25811
20
-4.47855
11
6.2584
21
-4.47925
0
LINE
8
BLACK
6
CONTINUOUS
10
6.2584
20
-4.47925
11
6.2584
21
-4.59578
0
LINE
8
BLACK
6
CONTINUOUS
10
6.2584
20
-4.59578
11
6.25811
21
-4.59648
0
LINE
8
BLACK
6
CONTINUOUS
10
6.25811
20
-4.59648
11
6.25741
21
-4.59677
0
LINE
8
BLACK
6
CONTINUOUS
10
6.25741
20
-4.59677
11
6.19993
21
-4.59677
0
LINE
8
BLACK
6
CONTINUOUS
10
6.19993
20
-4.59677
11
6.19924
21
-4.59648
0
LINE
8
BLACK
6
CONTINUOUS
10
6.20092
20
-4.48023
11
6.20092
21
-4.5948
0
LINE
8
BLACK
6
CONTINUOUS
10
6.20092
20
-4.5948
11
6.25643
21
-4.5948
0
LINE
8
BLACK
6
CONTINUOUS
10
6.25643
20
-4.5948
11
6.25643
21
-4.48023
0
LINE
8
BLACK
6
CONTINUOUS
10
6.25643
20
-4.48023
11
6.20092
21
-4.48023
0
LINE
8
BLACK
6
CONTINUOUS
10
6.38924
20
-4.57648
11
6.38895
21
-4.57578
0
LINE
8
BLACK
6
CONTINUOUS
10
6.38895
20
-4.57578
11
6.38895
21
-4.45925
0
LINE
8
BLACK
6
CONTINUOUS
10
6.38895
20
-4.45925
11
6.38924
21
-4.45855
0
LINE
8
BLACK
6
CONTINUOUS
10
6.38924
20
-4.45855
11
6.38993
21
-4.45826
0
LINE
8
BLACK
6
CONTINUOUS
10
6.38993
20
-4.45826
11
6.44741
21
-4.45826
0
LINE
8
BLACK
6
CONTINUOUS
10
6.44741
20
-4.45826
11
6.44811
21
-4.45855
0
LINE
8
BLACK
6
CONTINUOUS
10
6.44811
20
-4.45855
11
6.4484
21
-4.45925
0
LINE
8
BLACK
6
CONTINUOUS
10
6.4484
20
-4.45925
11
6.4484
21
-4.57578
0
LINE
8
BLACK
6
CONTINUOUS
10
6.4484
20
-4.57578
11
6.44811
21
-4.57648
0
LINE
8
BLACK
6
CONTINUOUS
10
6.44811
20
-4.57648
11
6.44741
21
-4.57677
0
LINE
8
BLACK
6
CONTINUOUS
10
6.44741
20
-4.57677
11
6.38993
21
-4.57677
0
LINE
8
BLACK
6
CONTINUOUS
10
6.38993
20
-4.57677
11
6.38924
21
-4.57648
0
LINE
8
BLACK
6
CONTINUOUS
10
6.39092
20
-4.46023
11
6.39092
21
-4.5748
0
LINE
8
BLACK
6
CONTINUOUS
10
6.39092
20
-4.5748
11
6.44643
21
-4.5748
0
LINE
8
BLACK
6
CONTINUOUS
10
6.44643
20
-4.5748
11
6.44643
21
-4.46023
0
LINE
8
BLACK
6
CONTINUOUS
10
6.44643
20
-4.46023
11
6.39092
21
-4.46023
0
LINE
8
BLACK
6
CONTINUOUS
10
6.58924
20
-4.57648
11
6.58895
21
-4.57578
0
LINE
8
BLACK
6
CONTINUOUS
10
6.58895
20
-4.57578
11
6.58895
21
-4.45925
0
LINE
8
BLACK
6
CONTINUOUS
10
6.58895
20
-4.45925
11
6.58924
21
-4.45855
0
LINE
8
BLACK
6
CONTINUOUS
10
6.58924
20
-4.45855
11
6.58993
21
-4.45826
0
LINE
8
BLACK
6
CONTINUOUS
10
6.58993
20
-4.45826
11
6.64741
21
-4.45826
0
LINE
8
BLACK
6
CONTINUOUS
10
6.64741
20
-4.45826
11
6.64811
21
-4.45855
0
LINE
8
BLACK
6
CONTINUOUS
10
6.64811
20
-4.45855
11
6.6484
21
-4.45925
0
LINE
8
BLACK
6
CONTINUOUS
10
6.6484
20
-4.45925
11
6.6484
21
-4.57578
0
LINE
8
BLACK
6
CONTINUOUS
10
6.6484
20
-4.57578
11
6.64811
21
-4.57648
0
LINE
8
BLACK
6
CONTINUOUS
10
6.64811
20
-4.57648
11
6.64741
21
-4.57677
0
LINE
8
BLACK
6
CONTINUOUS
10
6.64741
20
-4.57677
11
6.58993
21
-4.57677
0
LINE
8
BLACK
6
CONTINUOUS
10
6.58993
20
-4.57677
11
6.58924
21
-4.57648
0
LINE
8
BLACK
6
CONTINUOUS
10
6.59092
20
-4.46023
11
6.59092
21
-4.5748
0
LINE
8
BLACK
6
CONTINUOUS
10
6.59092
20
-4.5748
11
6.64643
21
-4.5748
0
LINE
8
BLACK
6
CONTINUOUS
10
6.64643
20
-4.5748
11
6.64643
21
-4.46023
0
LINE
8
BLACK
6
CONTINUOUS
10
6.64643
20
-4.46023
11
6.59092
21
-4.46023
0
LINE
8
BLACK
6
CONTINUOUS
10
3.95184
20
-4.55372
11
3.95155
21
-4.55303
0
LINE
8
BLACK
6
CONTINUOUS
10
3.95155
20
-4.55303
11
3.95155
21
-3.242
0
LINE
8
BLACK
6
CONTINUOUS
10
3.95155
20
-3.242
11
3.95184
21
-3.24131
0
LINE
8
BLACK
6
CONTINUOUS
10
3.95184
20
-3.24131
11
3.95253
21
-3.24102
0
LINE
8
BLACK
6
CONTINUOUS
10
3.95253
20
-3.24102
11
5.26356
21
-3.24102
0
LINE
8
BLACK
6
CONTINUOUS
10
5.26356
20
-3.24102
11
5.26425
21
-3.24131
0
LINE
8
BLACK
6
CONTINUOUS
10
5.26425
20
-3.24131
11
5.26454
21
-3.242
0
LINE
8
BLACK
6
CONTINUOUS
10
5.26454
20
-3.242
11
5.26454
21
-4.55303
0
LINE
8
BLACK
6
CONTINUOUS
10
5.26454
20
-4.55303
11
5.26425
21
-4.55372
0
LINE
8
BLACK
6
CONTINUOUS
10
5.26425
20
-4.55372
11
5.26356
21
-4.55401
0
LINE
8
BLACK
6
CONTINUOUS
10
5.26356
20
-4.55401
11
3.95253
21
-4.55401
0
LINE
8
BLACK
6
CONTINUOUS
10
3.95253
20
-4.55401
11
3.95184
21
-4.55372
0
LINE
8
BLACK
6
CONTINUOUS
10
3.95352
20
-3.24299
11
3.95352
21
-4.55204
0
LINE
8
BLACK
6
CONTINUOUS
10
3.95352
20
-4.55204
11
5.26257
21
-4.55204
0
LINE
8
BLACK
6
CONTINUOUS
10
5.26257
20
-4.55204
11
5.26257
21
-3.24299
0
LINE
8
BLACK
6
CONTINUOUS
10
5.26257
20
-3.24299
11
3.95352
21
-3.24299
0
LINE
8
BLACK
6
CONTINUOUS
10
4.01089
20
-4.49467
11
4.0106
21
-4.49397
0
LINE
8
BLACK
6
CONTINUOUS
10
4.0106
20
-4.49397
11
4.0106
21
-3.30106
0
LINE
8
BLACK
6
CONTINUOUS
10
4.0106
20
-3.30106
11
4.01089
21
-3.30036
0
LINE
8
BLACK
6
CONTINUOUS
10
4.01089
20
-3.30036
11
4.01159
21
-3.30008
0
LINE
8
BLACK
6
CONTINUOUS
10
4.01159
20
-3.30008
11
5.2045
21
-3.30008
0
LINE
8
BLACK
6
CONTINUOUS
10
5.2045
20
-3.30008
11
5.2052
21
-3.30036
0
LINE
8
BLACK
6
CONTINUOUS
10
5.2052
20
-3.30036
11
5.20549
21
-3.30106
0
LINE
8
BLACK
6
CONTINUOUS
10
5.20549
20
-3.30106
11
5.20549
21
-4.49397
0
LINE
8
BLACK
6
CONTINUOUS
10
5.20549
20
-4.49397
11
5.2052
21
-4.49467
0
LINE
8
BLACK
6
CONTINUOUS
10
5.2052
20
-4.49467
11
5.2045
21
-4.49496
0
LINE
8
BLACK
6
CONTINUOUS
10
5.2045
20
-4.49496
11
4.01159
21
-4.49496
0
LINE
8
BLACK
6
CONTINUOUS
10
4.01159
20
-4.49496
11
4.01089
21
-4.49467
0
LINE
8
BLACK
6
CONTINUOUS
10
4.01257
20
-3.30204
11
4.01257
21
-4.49299
0
LINE
8
BLACK
6
CONTINUOUS
10
4.01257
20
-4.49299
11
5.20352
21
-4.49299
0
LINE
8
BLACK
6
CONTINUOUS
10
5.20352
20
-4.49299
11
5.20352
21
-3.30204
0
LINE
8
BLACK
6
CONTINUOUS
10
5.20352
20
-3.30204
11
4.01257
21
-3.30204
0
LINE
8
BLACK
6
CONTINUOUS
10
5.11924
20
-4.47448
11
5.11895
21
-4.47378
0
LINE
8
BLACK
6
CONTINUOUS
10
5.11895
20
-4.47378
11
5.11895
21
-4.35725
0
LINE
8
BLACK
6
CONTINUOUS
10
5.11895
20
-4.35725
11
5.11924
21
-4.35655
0
LINE
8
BLACK
6
CONTINUOUS
10
5.11924
20
-4.35655
11
5.11993
21
-4.35626
0
LINE
8
BLACK
6
CONTINUOUS
10
5.11993
20
-4.35626
11
5.17741
21
-4.35626
0
LINE
8
BLACK
6
CONTINUOUS
10
5.17741
20
-4.35626
11
5.17811
21
-4.35655
0
LINE
8
BLACK
6
CONTINUOUS
10
5.17811
20
-4.35655
11
5.1784
21
-4.35725
0
LINE
8
BLACK
6
CONTINUOUS
10
5.1784
20
-4.35725
11
5.1784
21
-4.47378
0
LINE
8
BLACK
6
CONTINUOUS
10
5.1784
20
-4.47378
11
5.17811
21
-4.47448
0
LINE
8
BLACK
6
CONTINUOUS
10
5.17811
20
-4.47448
11
5.17741
21
-4.47477
0
LINE
8
BLACK
6
CONTINUOUS
10
5.17741
20
-4.47477
11
5.11993
21
-4.47477
0
LINE
8
BLACK
6
CONTINUOUS
10
5.11993
20
-4.47477
11
5.11924
21
-4.47448
0
LINE
8
BLACK
6
CONTINUOUS
10
5.12092
20
-4.35823
11
5.12092
21
-4.4728
0
LINE
8
BLACK
6
CONTINUOUS
10
5.12092
20
-4.4728
11
5.17643
21
-4.4728
0
LINE
8
BLACK
6
CONTINUOUS
10
5.17643
20
-4.4728
11
5.17643
21
-4.35823
0
LINE
8
BLACK
6
CONTINUOUS
10
5.17643
20
-4.35823
11
5.12092
21
-4.35823
0
LINE
8
BLACK
6
CONTINUOUS
10
5.04724
20
-4.47448
11
5.04695
21
-4.47378
0
LINE
8
BLACK
6
CONTINUOUS
10
5.04695
20
-4.47378
11
5.04695
21
-4.35725
0
LINE
8
BLACK
6
CONTINUOUS
10
5.04695
20
-4.35725
11
5.04724
21
-4.35655
0
LINE
8
BLACK
6
CONTINUOUS
10
5.04724
20
-4.35655
11
5.04793
21
-4.35626
0
LINE
8
BLACK
6
CONTINUOUS
10
5.04793
20
-4.35626
11
5.10541
21
-4.35626
0
LINE
8
BLACK
6
CONTINUOUS
10
5.10541
20
-4.35626
11
5.10611
21
-4.35655
0
LINE
8
BLACK
6
CONTINUOUS
10
5.10611
20
-4.35655
11
5.1064
21
-4.35725
0
LINE
8
BLACK
6
CONTINUOUS
10
5.1064
20
-4.35725
11
5.1064
21
-4.47378
0
LINE
8
BLACK
6
CONTINUOUS
10
5.1064
20
-4.47378
11
5.10611
21
-4.47448
0
LINE
8
BLACK
6
CONTINUOUS
10
5.10611
20
-4.47448
11
5.10541
21
-4.47477
0
LINE
8
BLACK
6
CONTINUOUS
10
5.10541
20
-4.47477
11
5.04793
21
-4.47477
0
LINE
8
BLACK
6
CONTINUOUS
10
5.04793
20
-4.47477
11
5.04724
21
-4.47448
0
LINE
8
BLACK
6
CONTINUOUS
10
5.04892
20
-4.35823
11
5.04892
21
-4.4728
0
LINE
8
BLACK
6
CONTINUOUS
10
5.04892
20
-4.4728
11
5.10443
21
-4.4728
0
LINE
8
BLACK
6
CONTINUOUS
10
5.10443
20
-4.4728
11
5.10443
21
-4.35823
0
LINE
8
BLACK
6
CONTINUOUS
10
5.10443
20
-4.35823
11
5.04892
21
-4.35823
0
LINE
8
BLACK
6
CONTINUOUS
10
4.83171
20
-4.43295
11
4.83142
21
-4.43226
0
LINE
8
BLACK
6
CONTINUOUS
10
4.83142
20
-4.43226
11
4.83142
21
-4.37478
0
LINE
8
BLACK
6
CONTINUOUS
10
4.83142
20
-4.37478
11
4.83171
21
-4.37408
0
LINE
8
BLACK
6
CONTINUOUS
10
4.83171
20
-4.37408
11
4.83241
21
-4.37379
0
LINE
8
BLACK
6
CONTINUOUS
10
4.83241
20
-4.37379
11
4.94894
21
-4.37379
0
LINE
8
BLACK
6
CONTINUOUS
10
4.94894
20
-4.37379
11
4.94964
21
-4.37408
0
LINE
8
BLACK
6
CONTINUOUS
10
4.94964
20
-4.37408
11
4.94993
21
-4.37478
0
LINE
8
BLACK
6
CONTINUOUS
10
4.94993
20
-4.37478
11
4.94993
21
-4.43226
0
LINE
8
BLACK
6
CONTINUOUS
10
4.94993
20
-4.43226
11
4.94964
21
-4.43295
0
LINE
8
BLACK
6
CONTINUOUS
10
4.94964
20
-4.43295
11
4.94894
21
-4.43324
0
LINE
8
BLACK
6
CONTINUOUS
10
4.94894
20
-4.43324
11
4.83241
21
-4.43324
0
LINE
8
BLACK
6
CONTINUOUS
10
4.83241
20
-4.43324
11
4.83171
21
-4.43295
0
LINE
8
BLACK
6
CONTINUOUS
10
4.83339
20
-4.37576
11
4.83339
21
-4.43127
0
LINE
8
BLACK
6
CONTINUOUS
10
4.83339
20
-4.43127
11
4.94796
21
-4.43127
0
LINE
8
BLACK
6
CONTINUOUS
10
4.94796
20
-4.43127
11
4.94796
21
-4.37576
0
LINE
8
BLACK
6
CONTINUOUS
10
4.94796
20
-4.37576
11
4.83339
21
-4.37576
0
LINE
8
BLACK
6
CONTINUOUS
10
4.66771
20
-4.37095
11
4.66742
21
-4.37026
0
LINE
8
BLACK
6
CONTINUOUS
10
4.66742
20
-4.37026
11
4.66742
21
-4.31278
0
LINE
8
BLACK
6
CONTINUOUS
10
4.66742
20
-4.31278
11
4.66771
21
-4.31208
0
LINE
8
BLACK
6
CONTINUOUS
10
4.66771
20
-4.31208
11
4.66841
21
-4.31179
0
LINE
8
BLACK
6
CONTINUOUS
10
4.66841
20
-4.31179
11
4.78494
21
-4.31179
0
LINE
8
BLACK
6
CONTINUOUS
10
4.78494
20
-4.31179
11
4.78564
21
-4.31208
0
LINE
8
BLACK
6
CONTINUOUS
10
4.78564
20
-4.31208
11
4.78593
21
-4.31278
0
LINE
8
BLACK
6
CONTINUOUS
10
4.78593
20
-4.31278
11
4.78593
21
-4.37026
0
LINE
8
BLACK
6
CONTINUOUS
10
4.78593
20
-4.37026
11
4.78564
21
-4.37095
0
LINE
8
BLACK
6
CONTINUOUS
10
4.78564
20
-4.37095
11
4.78494
21
-4.37124
0
LINE
8
BLACK
6
CONTINUOUS
10
4.78494
20
-4.37124
11
4.66841
21
-4.37124
0
LINE
8
BLACK
6
CONTINUOUS
10
4.66841
20
-4.37124
11
4.66771
21
-4.37095
0
LINE
8
BLACK
6
CONTINUOUS
10
4.66939
20
-4.31376
11
4.66939
21
-4.36927
0
LINE
8
BLACK
6
CONTINUOUS
10
4.66939
20
-4.36927
11
4.78396
21
-4.36927
0
LINE
8
BLACK
6
CONTINUOUS
10
4.78396
20
-4.36927
11
4.78396
21
-4.31376
0
LINE
8
BLACK
6
CONTINUOUS
10
4.78396
20
-4.31376
11
4.66939
21
-4.31376
0
LINE
8
BLACK
6
CONTINUOUS
10
4.83171
20
-4.36095
11
4.83142
21
-4.36026
0
LINE
8
BLACK
6
CONTINUOUS
10
4.83142
20
-4.36026
11
4.83142
21
-4.30278
0
LINE
8
BLACK
6
CONTINUOUS
10
4.83142
20
-4.30278
11
4.83171
21
-4.30208
0
LINE
8
BLACK
6
CONTINUOUS
10
4.83171
20
-4.30208
11
4.83241
21
-4.30179
0
LINE
8
BLACK
6
CONTINUOUS
10
4.83241
20
-4.30179
11
4.94894
21
-4.30179
0
LINE
8
BLACK
6
CONTINUOUS
10
4.94894
20
-4.30179
11
4.94964
21
-4.30208
0
LINE
8
BLACK
6
CONTINUOUS
10
4.94964
20
-4.30208
11
4.94993
21
-4.30278
0
LINE
8
BLACK
6
CONTINUOUS
10
4.94993
20
-4.30278
11
4.94993
21
-4.36026
0
LINE
8
BLACK
6
CONTINUOUS
10
4.94993
20
-4.36026
11
4.94964
21
-4.36095
0
LINE
8
BLACK
6
CONTINUOUS
10
4.94964
20
-4.36095
11
4.94894
21
-4.36124
0
LINE
8
BLACK
6
CONTINUOUS
10
4.94894
20
-4.36124
11
4.83241
21
-4.36124
0
LINE
8
BLACK
6
CONTINUOUS
10
4.83241
20
-4.36124
11
4.83171
21
-4.36095
0
LINE
8
BLACK
6
CONTINUOUS
10
4.83339
20
-4.30376
11
4.83339
21
-4.35927
0
LINE
8
BLACK
6
CONTINUOUS
10
4.83339
20
-4.35927
11
4.94796
21
-4.35927
0
LINE
8
BLACK
6
CONTINUOUS
10
4.94796
20
-4.35927
11
4.94796
21
-4.30376
0
LINE
8
BLACK
6
CONTINUOUS
10
4.94796
20
-4.30376
11
4.83339
21
-4.30376
0
LINE
8
BLACK
6
CONTINUOUS
10
4.38571
20
-4.35295
11
4.38542
21
-4.35226
0
LINE
8
BLACK
6
CONTINUOUS
10
4.38542
20
-4.35226
11
4.38542
21
-4.29478
0
LINE
8
BLACK
6
CONTINUOUS
10
4.38542
20
-4.29478
11
4.38571
21
-4.29408
0
LINE
8
BLACK
6
CONTINUOUS
10
4.38571
20
-4.29408
11
4.38641
21
-4.29379
0
LINE
8
BLACK
6
CONTINUOUS
10
4.38641
20
-4.29379
11
4.50294
21
-4.29379
0
LINE
8
BLACK
6
CONTINUOUS
10
4.50294
20
-4.29379
11
4.50364
21
-4.29408
0
LINE
8
BLACK
6
CONTINUOUS
10
4.50364
20
-4.29408
11
4.50393
21
-4.29478
0
LINE
8
BLACK
6
CONTINUOUS
10
4.50393
20
-4.29478
11
4.50393
21
-4.35226
0
LINE
8
BLACK
6
CONTINUOUS
10
4.50393
20
-4.35226
11
4.50364
21
-4.35295
0
LINE
8
BLACK
6
CONTINUOUS
10
4.50364
20
-4.35295
11
4.50294
21
-4.35324
0
LINE
8
BLACK
6
CONTINUOUS
10
4.50294
20
-4.35324
11
4.38641
21
-4.35324
0
LINE
8
BLACK
6
CONTINUOUS
10
4.38641
20
-4.35324
11
4.38571
21
-4.35295
0
LINE
8
BLACK
6
CONTINUOUS
10
4.38739
20
-4.29576
11
4.38739
21
-4.35127
0
LINE
8
BLACK
6
CONTINUOUS
10
4.38739
20
-4.35127
11
4.50196
21
-4.35127
0
LINE
8
BLACK
6
CONTINUOUS
10
4.50196
20
-4.35127
11
4.50196
21
-4.29576
0
LINE
8
BLACK
6
CONTINUOUS
10
4.50196
20
-4.29576
11
4.38739
21
-4.29576
0
LINE
8
BLACK
6
CONTINUOUS
10
4.51571
20
-4.35295
11
4.51542
21
-4.35226
0
LINE
8
BLACK
6
CONTINUOUS
10
4.51542
20
-4.35226
11
4.51542
21
-4.29478
0
LINE
8
BLACK
6
CONTINUOUS
10
4.51542
20
-4.29478
11
4.51571
21
-4.29408
0
LINE
8
BLACK
6
CONTINUOUS
10
4.51571
20
-4.29408
11
4.51641
21
-4.29379
0
LINE
8
BLACK
6
CONTINUOUS
10
4.51641
20
-4.29379
11
4.63294
21
-4.29379
0
LINE
8
BLACK
6
CONTINUOUS
10
4.63294
20
-4.29379
11
4.63364
21
-4.29408
0
LINE
8
BLACK
6
CONTINUOUS
10
4.63364
20
-4.29408
11
4.63393
21
-4.29478
0
LINE
8
BLACK
6
CONTINUOUS
10
4.63393
20
-4.29478
11
4.63393
21
-4.35226
0
LINE
8
BLACK
6
CONTINUOUS
10
4.63393
20
-4.35226
11
4.63364
21
-4.35295
0
LINE
8
BLACK
6
CONTINUOUS
10
4.63364
20
-4.35295
11
4.63294
21
-4.35324
0
LINE
8
BLACK
6
CONTINUOUS
10
4.63294
20
-4.35324
11
4.51641
21
-4.35324
0
LINE
8
BLACK
6
CONTINUOUS
10
4.51641
20
-4.35324
11
4.51571
21
-4.35295
0
LINE
8
BLACK
6
CONTINUOUS
10
4.51739
20
-4.29576
11
4.51739
21
-4.35127
0
LINE
8
BLACK
6
CONTINUOUS
10
4.51739
20
-4.35127
11
4.63196
21
-4.35127
0
LINE
8
BLACK
6
CONTINUOUS
10
4.63196
20
-4.35127
11
4.63196
21
-4.29576
0
LINE
8
BLACK
6
CONTINUOUS
10
4.63196
20
-4.29576
11
4.51739
21
-4.29576
0
LINE
8
BLACK
6
CONTINUOUS
10
5.00324
20
-4.33648
11
5.00295
21
-4.33578
0
LINE
8
BLACK
6
CONTINUOUS
10
5.00295
20
-4.33578
11
5.00295
21
-4.21925
0
LINE
8
BLACK
6
CONTINUOUS
10
5.00295
20
-4.21925
11
5.00324
21
-4.21855
0
LINE
8
BLACK
6
CONTINUOUS
10
5.00324
20
-4.21855
11
5.00393
21
-4.21826
0
LINE
8
BLACK
6
CONTINUOUS
10
5.00393
20
-4.21826
11
5.06142
21
-4.21826
0
LINE
8
BLACK
6
CONTINUOUS
10
5.06142
20
-4.21826
11
5.06211
21
-4.21855
0
LINE
8
BLACK
6
CONTINUOUS
10
5.06211
20
-4.21855
11
5.0624
21
-4.21925
0
LINE
8
BLACK
6
CONTINUOUS
10
5.0624
20
-4.21925
11
5.0624
21
-4.33578
0
LINE
8
BLACK
6
CONTINUOUS
10
5.0624
20
-4.33578
11
5.06211
21
-4.33648
0
LINE
8
BLACK
6
CONTINUOUS
10
5.06211
20
-4.33648
11
5.06142
21
-4.33677
0
LINE
8
BLACK
6
CONTINUOUS
10
5.06142
20
-4.33677
11
5.00393
21
-4.33677
0
LINE
8
BLACK
6
CONTINUOUS
10
5.00393
20
-4.33677
11
5.00324
21
-4.33648
0
LINE
8
BLACK
6
CONTINUOUS
10
5.00492
20
-4.22023
11
5.00492
21
-4.3348
0
LINE
8
BLACK
6
CONTINUOUS
10
5.00492
20
-4.3348
11
5.06043
21
-4.3348
0
LINE
8
BLACK
6
CONTINUOUS
10
5.06043
20
-4.3348
11
5.06043
21
-4.22023
0
LINE
8
BLACK
6
CONTINUOUS
10
5.06043
20
-4.22023
11
5.00492
21
-4.22023
0
LINE
8
BLACK
6
CONTINUOUS
10
4.66771
20
-4.30095
11
4.66742
21
-4.30026
0
LINE
8
BLACK
6
CONTINUOUS
10
4.66742
20
-4.30026
11
4.66742
21
-4.24278
0
LINE
8
BLACK
6
CONTINUOUS
10
4.66742
20
-4.24278
11
4.66771
21
-4.24208
0
LINE
8
BLACK
6
CONTINUOUS
10
4.66771
20
-4.24208
11
4.66841
21
-4.24179
0
LINE
8
BLACK
6
CONTINUOUS
10
4.66841
20
-4.24179
11
4.78494
21
-4.24179
0
LINE
8
BLACK
6
CONTINUOUS
10
4.78494
20
-4.24179
11
4.78564
21
-4.24208
0
LINE
8
BLACK
6
CONTINUOUS
10
4.78564
20
-4.24208
11
4.78593
21
-4.24278
0
LINE
8
BLACK
6
CONTINUOUS
10
4.78593
20
-4.24278
11
4.78593
21
-4.30026
0
LINE
8
BLACK
6
CONTINUOUS
10
4.78593
20
-4.30026
11
4.78564
21
-4.30095
0
LINE
8
BLACK
6
CONTINUOUS
10
4.78564
20
-4.30095
11
4.78494
21
-4.30124
0
LINE
8
BLACK
6
CONTINUOUS
10
4.78494
20
-4.30124
11
4.66841
21
-4.30124
0
LINE
8
BLACK
6
CONTINUOUS
10
4.66841
20
-4.30124
11
4.66771
21
-4.30095
0
LINE
8
BLACK
6
CONTINUOUS
10
4.66939
20
-4.24376
11
4.66939
21
-4.29927
0
LINE
8
BLACK
6
CONTINUOUS
10
4.66939
20
-4.29927
11
4.78396
21
-4.29927
0
LINE
8
BLACK
6
CONTINUOUS
10
4.78396
20
-4.29927
11
4.78396
21
-4.24376
0
LINE
8
BLACK
6
CONTINUOUS
10
4.78396
20
-4.24376
11
4.66939
21
-4.24376
0
LINE
8
BLACK
6
CONTINUOUS
10
4.83171
20
-4.29095
11
4.83142
21
-4.29026
0
LINE
8
BLACK
6
CONTINUOUS
10
4.83142
20
-4.29026
11
4.83142
21
-4.23278
0
LINE
8
BLACK
6
CONTINUOUS
10
4.83142
20
-4.23278
11
4.83171
21
-4.23208
0
LINE
8
BLACK
6
CONTINUOUS
10
4.83171
20
-4.23208
11
4.83241
21
-4.23179
0
LINE
8
BLACK
6
CONTINUOUS
10
4.83241
20
-4.23179
11
4.94894
21
-4.23179
0
LINE
8
BLACK
6
CONTINUOUS
10
4.94894
20
-4.23179
11
4.94964
21
-4.23208
0
LINE
8
BLACK
6
CONTINUOUS
10
4.94964
20
-4.23208
11
4.94993
21
-4.23278
0
LINE
8
BLACK
6
CONTINUOUS
10
4.94993
20
-4.23278
11
4.94993
21
-4.29026
0
LINE
8
BLACK
6
CONTINUOUS
10
4.94993
20
-4.29026
11
4.94964
21
-4.29095
0
LINE
8
BLACK
6
CONTINUOUS
10
4.94964
20
-4.29095
11
4.94894
21
-4.29124
0
LINE
8
BLACK
6
CONTINUOUS
10
4.94894
20
-4.29124
11
4.83241
21
-4.29124
0
LINE
8
BLACK
6
CONTINUOUS
10
4.83241
20
-4.29124
11
4.83171
21
-4.29095
0
LINE
8
BLACK
6
CONTINUOUS
10
4.83339
20
-4.23376
11
4.83339
21
-4.28927
0
LINE
8
BLACK
6
CONTINUOUS
10
4.83339
20
-4.28927
11
4.94796
21
-4.28927
0
LINE
8
BLACK
6
CONTINUOUS
10
4.94796
20
-4.28927
11
4.94796
21
-4.23376
0
LINE
8
BLACK
6
CONTINUOUS
10
4.94796
20
-4.23376
11
4.83339
21
-4.23376
0
LINE
8
BLACK
6
CONTINUOUS
10
4.21924
20
-4.28848
11
4.21895
21
-4.28778
0
LINE
8
BLACK
6
CONTINUOUS
10
4.21895
20
-4.28778
11
4.21895
21
-4.17125
0
LINE
8
BLACK
6
CONTINUOUS
10
4.21895
20
-4.17125
11
4.21924
21
-4.17055
0
LINE
8
BLACK
6
CONTINUOUS
10
4.21924
20
-4.17055
11
4.21993
21
-4.17026
0
LINE
8
BLACK
6
CONTINUOUS
10
4.21993
20
-4.17026
11
4.27741
21
-4.17026
0
LINE
8
BLACK
6
CONTINUOUS
10
4.27741
20
-4.17026
11
4.27811
21
-4.17055
0
LINE
8
BLACK
6
CONTINUOUS
10
4.27811
20
-4.17055
11
4.2784
21
-4.17125
0
LINE
8
BLACK
6
CONTINUOUS
10
4.2784
20
-4.17125
11
4.2784
21
-4.28778
0
LINE
8
BLACK
6
CONTINUOUS
10
4.2784
20
-4.28778
11
4.27811
21
-4.28848
0
LINE
8
BLACK
6
CONTINUOUS
10
4.27811
20
-4.28848
11
4.27741
21
-4.28877
0
LINE
8
BLACK
6
CONTINUOUS
10
4.27741
20
-4.28877
11
4.21993
21
-4.28877
0
LINE
8
BLACK
6
CONTINUOUS
10
4.21993
20
-4.28877
11
4.21924
21
-4.28848
0
LINE
8
BLACK
6
CONTINUOUS
10
4.22092
20
-4.17223
11
4.22092
21
-4.2868
0
LINE
8
BLACK
6
CONTINUOUS
10
4.22092
20
-4.2868
11
4.27643
21
-4.2868
0
LINE
8
BLACK
6
CONTINUOUS
10
4.27643
20
-4.2868
11
4.27643
21
-4.17223
0
LINE
8
BLACK
6
CONTINUOUS
10
4.27643
20
-4.17223
11
4.22092
21
-4.17223
0
LINE
8
BLACK
6
CONTINUOUS
10
5.10324
20
-4.28448
11
5.10295
21
-4.28378
0
LINE
8
BLACK
6
CONTINUOUS
10
5.10295
20
-4.28378
11
5.10295
21
-4.16725
0
LINE
8
BLACK
6
CONTINUOUS
10
5.10295
20
-4.16725
11
5.10324
21
-4.16655
0
LINE
8
BLACK
6
CONTINUOUS
10
5.10324
20
-4.16655
11
5.10393
21
-4.16626
0
LINE
8
BLACK
6
CONTINUOUS
10
5.10393
20
-4.16626
11
5.16141
21
-4.16626
0
LINE
8
BLACK
6
CONTINUOUS
10
5.16141
20
-4.16626
11
5.16211
21
-4.16655
0
LINE
8
BLACK
6
CONTINUOUS
10
5.16211
20
-4.16655
11
5.1624
21
-4.16725
0
LINE
8
BLACK
6
CONTINUOUS
10
5.1624
20
-4.16725
11
5.1624
21
-4.28378
0
LINE
8
BLACK
6
CONTINUOUS
10
5.1624
20
-4.28378
11
5.16211
21
-4.28448
0
LINE
8
BLACK
6
CONTINUOUS
10
5.16211
20
-4.28448
11
5.16141
21
-4.28477
0
LINE
8
BLACK
6
CONTINUOUS
10
5.16141
20
-4.28477
11
5.10393
21
-4.28477
0
LINE
8
BLACK
6
CONTINUOUS
10
5.10393
20
-4.28477
11
5.10324
21
-4.28448
0
LINE
8
BLACK
6
CONTINUOUS
10
5.10492
20
-4.16823
11
5.10492
21
-4.2828
0
LINE
8
BLACK
6
CONTINUOUS
10
5.10492
20
-4.2828
11
5.16043
21
-4.2828
0
LINE
8
BLACK
6
CONTINUOUS
10
5.16043
20
-4.2828
11
5.16043
21
-4.16823
0
LINE
8
BLACK
6
CONTINUOUS
10
5.16043
20
-4.16823
11
5.10492
21
-4.16823
0
LINE
8
BLACK
6
CONTINUOUS
10
4.51571
20
-4.27895
11
4.51542
21
-4.27826
0
LINE
8
BLACK
6
CONTINUOUS
10
4.51542
20
-4.27826
11
4.51542
21
-4.22078
0
LINE
8
BLACK
6
CONTINUOUS
10
4.51542
20
-4.22078
11
4.51571
21
-4.22008
0
LINE
8
BLACK
6
CONTINUOUS
10
4.51571
20
-4.22008
11
4.51641
21
-4.21979
0
LINE
8
BLACK
6
CONTINUOUS
10
4.51641
20
-4.21979
11
4.63294
21
-4.21979
0
LINE
8
BLACK
6
CONTINUOUS
10
4.63294
20
-4.21979
11
4.63364
21
-4.22008
0
LINE
8
BLACK
6
CONTINUOUS
10
4.63364
20
-4.22008
11
4.63393
21
-4.22078
0
LINE
8
BLACK
6
CONTINUOUS
10
4.63393
20
-4.22078
11
4.63393
21
-4.27826
0
LINE
8
BLACK
6
CONTINUOUS
10
4.63393
20
-4.27826
11
4.63364
21
-4.27895
0
LINE
8
BLACK
6
CONTINUOUS
10
4.63364
20
-4.27895
11
4.63294
21
-4.27924
0
LINE
8
BLACK
6
CONTINUOUS
10
4.63294
20
-4.27924
11
4.51641
21
-4.27924
0
LINE
8
BLACK
6
CONTINUOUS
10
4.51641
20
-4.27924
11
4.51571
21
-4.27895
0
LINE
8
BLACK
6
CONTINUOUS
10
4.51739
20
-4.22176
11
4.51739
21
-4.27727
0
LINE
8
BLACK
6
CONTINUOUS
10
4.51739
20
-4.27727
11
4.63196
21
-4.27727
0
LINE
8
BLACK
6
CONTINUOUS
10
4.63196
20
-4.27727
11
4.63196
21
-4.22176
0
LINE
8
BLACK
6
CONTINUOUS
10
4.63196
20
-4.22176
11
4.51739
21
-4.22176
0
LINE
8
BLACK
6
CONTINUOUS
10
4.30105
20
-4.2338
11
4.30076
21
-4.23311
0
LINE
8
BLACK
6
CONTINUOUS
10
4.30076
20
-4.23311
11
4.30076
21
-4.08193
0
LINE
8
BLACK
6
CONTINUOUS
10
4.30076
20
-4.08193
11
4.30105
21
-4.08123
0
LINE
8
BLACK
6
CONTINUOUS
10
4.30105
20
-4.08123
11
4.30175
21
-4.08094
0
LINE
8
BLACK
6
CONTINUOUS
10
4.30175
20
-4.08094
11
4.4356
21
-4.08094
0
LINE
8
BLACK
6
CONTINUOUS
10
4.4356
20
-4.08094
11
4.4363
21
-4.08123
0
LINE
8
BLACK
6
CONTINUOUS
10
4.4363
20
-4.08123
11
4.43659
21
-4.08193
0
LINE
8
BLACK
6
CONTINUOUS
10
4.43659
20
-4.08193
11
4.43659
21
-4.23311
0
LINE
8
BLACK
6
CONTINUOUS
10
4.43659
20
-4.23311
11
4.4363
21
-4.2338
0
LINE
8
BLACK
6
CONTINUOUS
10
4.4363
20
-4.2338
11
4.4356
21
-4.23409
0
LINE
8
BLACK
6
CONTINUOUS
10
4.4356
20
-4.23409
11
4.30175
21
-4.23409
0
LINE
8
BLACK
6
CONTINUOUS
10
4.30175
20
-4.23409
11
4.30105
21
-4.2338
0
LINE
8
BLACK
6
CONTINUOUS
10
4.30273
20
-4.08291
11
4.30273
21
-4.23212
0
LINE
8
BLACK
6
CONTINUOUS
10
4.30273
20
-4.23212
11
4.43462
21
-4.23212
0
LINE
8
BLACK
6
CONTINUOUS
10
4.43462
20
-4.23212
11
4.43462
21
-4.08291
0
LINE
8
BLACK
6
CONTINUOUS
10
4.43462
20
-4.08291
11
4.30273
21
-4.08291
0
LINE
8
BLACK
6
CONTINUOUS
10
4.08371
20
-4.22895
11
4.08342
21
-4.22826
0
LINE
8
BLACK
6
CONTINUOUS
10
4.08342
20
-4.22826
11
4.08342
21
-4.17078
0
LINE
8
BLACK
6
CONTINUOUS
10
4.08342
20
-4.17078
11
4.08371
21
-4.17008
0
LINE
8
BLACK
6
CONTINUOUS
10
4.08371
20
-4.17008
11
4.08441
21
-4.16979
0
LINE
8
BLACK
6
CONTINUOUS
10
4.08441
20
-4.16979
11
4.20094
21
-4.16979
0
LINE
8
BLACK
6
CONTINUOUS
10
4.20094
20
-4.16979
11
4.20164
21
-4.17008
0
LINE
8
BLACK
6
CONTINUOUS
10
4.20164
20
-4.17008
11
4.20193
21
-4.17078
0
LINE
8
BLACK
6
CONTINUOUS
10
4.20193
20
-4.17078
11
4.20193
21
-4.22826
0
LINE
8
BLACK
6
CONTINUOUS
10
4.20193
20
-4.22826
11
4.20164
21
-4.22895
0
LINE
8
BLACK
6
CONTINUOUS
10
4.20164
20
-4.22895
11
4.20094
21
-4.22924
0
LINE
8
BLACK
6
CONTINUOUS
10
4.20094
20
-4.22924
11
4.08441
21
-4.22924
0
LINE
8
BLACK
6
CONTINUOUS
10
4.08441
20
-4.22924
11
4.08371
21
-4.22895
0
LINE
8
BLACK
6
CONTINUOUS
10
4.08539
20
-4.17176
11
4.08539
21
-4.22727
0
LINE
8
BLACK
6
CONTINUOUS
10
4.08539
20
-4.22727
11
4.19996
21
-4.22727
0
LINE
8
BLACK
6
CONTINUOUS
10
4.19996
20
-4.22727
11
4.19996
21
-4.17176
0
LINE
8
BLACK
6
CONTINUOUS
10
4.19996
20
-4.17176
11
4.08539
21
-4.17176
0
LINE
8
BLACK
6
CONTINUOUS
10
4.51571
20
-4.20495
11
4.51542
21
-4.20426
0
LINE
8
BLACK
6
CONTINUOUS
10
4.51542
20
-4.20426
11
4.51542
21
-4.14678
0
LINE
8
BLACK
6
CONTINUOUS
10
4.51542
20
-4.14678
11
4.51571
21
-4.14608
0
LINE
8
BLACK
6
CONTINUOUS
10
4.51571
20
-4.14608
11
4.51641
21
-4.14579
0
LINE
8
BLACK
6
CONTINUOUS
10
4.51641
20
-4.14579
11
4.63294
21
-4.14579
0
LINE
8
BLACK
6
CONTINUOUS
10
4.63294
20
-4.14579
11
4.63364
21
-4.14608
0
LINE
8
BLACK
6
CONTINUOUS
10
4.63364
20
-4.14608
11
4.63393
21
-4.14678
0
LINE
8
BLACK
6
CONTINUOUS
10
4.63393
20
-4.14678
11
4.63393
21
-4.20426
0
LINE
8
BLACK
6
CONTINUOUS
10
4.63393
20
-4.20426
11
4.63364
21
-4.20495
0
LINE
8
BLACK
6
CONTINUOUS
10
4.63364
20
-4.20495
11
4.63294
21
-4.20524
0
LINE
8
BLACK
6
CONTINUOUS
10
4.63294
20
-4.20524
11
4.51641
21
-4.20524
0
LINE
8
BLACK
6
CONTINUOUS
10
4.51641
20
-4.20524
11
4.51571
21
-4.20495
0
LINE
8
BLACK
6
CONTINUOUS
10
4.51739
20
-4.14776
11
4.51739
21
-4.20327
0
LINE
8
BLACK
6
CONTINUOUS
10
4.51739
20
-4.20327
11
4.63196
21
-4.20327
0
LINE
8
BLACK
6
CONTINUOUS
10
4.63196
20
-4.20327
11
4.63196
21
-4.14776
0
LINE
8
BLACK
6
CONTINUOUS
10
4.63196
20
-4.14776
11
4.51739
21
-4.14776
0
LINE
8
BLACK
6
CONTINUOUS
10
4.65511
20
-4.20191
11
4.65482
21
-4.20122
0
LINE
8
BLACK
6
CONTINUOUS
10
4.65482
20
-4.20122
11
4.65482
21
-4.01382
0
LINE
8
BLACK
6
CONTINUOUS
10
4.65482
20
-4.01382
11
4.65511
21
-4.01312
0
LINE
8
BLACK
6
CONTINUOUS
10
4.65511
20
-4.01312
11
4.65581
21
-4.01283
0
LINE
8
BLACK
6
CONTINUOUS
10
4.65581
20
-4.01283
11
4.79754
21
-4.01283
0
LINE
8
BLACK
6
CONTINUOUS
10
4.79754
20
-4.01283
11
4.79824
21
-4.01312
0
LINE
8
BLACK
6
CONTINUOUS
10
4.79824
20
-4.01312
11
4.79853
21
-4.01382
0
LINE
8
BLACK
6
CONTINUOUS
10
4.79853
20
-4.01382
11
4.79853
21
-4.20122
0
LINE
8
BLACK
6
CONTINUOUS
10
4.79853
20
-4.20122
11
4.79824
21
-4.20191
0
LINE
8
BLACK
6
CONTINUOUS
10
4.79824
20
-4.20191
11
4.79754
21
-4.2022
0
LINE
8
BLACK
6
CONTINUOUS
10
4.79754
20
-4.2022
11
4.65581
21
-4.2022
0
LINE
8
BLACK
6
CONTINUOUS
10
4.65581
20
-4.2022
11
4.65511
21
-4.20191
0
LINE
8
BLACK
6
CONTINUOUS
10
4.65679
20
-4.0148
11
4.65679
21
-4.20023
0
LINE
8
BLACK
6
CONTINUOUS
10
4.65679
20
-4.20023
11
4.79656
21
-4.20023
0
LINE
8
BLACK
6
CONTINUOUS
10
4.79656
20
-4.20023
11
4.79656
21
-4.0148
0
LINE
8
BLACK
6
CONTINUOUS
10
4.79656
20
-4.0148
11
4.65679
21
-4.0148
0
LINE
8
BLACK
6
CONTINUOUS
10
4.88911
20
-4.19991
11
4.88882
21
-4.19922
0
LINE
8
BLACK
6
CONTINUOUS
10
4.88882
20
-4.19922
11
4.88882
21
-4.01182
0
LINE
8
BLACK
6
CONTINUOUS
10
4.88882
20
-4.01182
11
4.88911
21
-4.01112
0
LINE
8
BLACK
6
CONTINUOUS
10
4.88911
20
-4.01112
11
4.88981
21
-4.01083
0
LINE
8
BLACK
6
CONTINUOUS
10
4.88981
20
-4.01083
11
5.03154
21
-4.01083
0
LINE
8
BLACK
6
CONTINUOUS
10
5.03154
20
-4.01083
11
5.03224
21
-4.01112
0
LINE
8
BLACK
6
CONTINUOUS
10
5.03224
20
-4.01112
11
5.03253
21
-4.01182
0
LINE
8
BLACK
6
CONTINUOUS
10
5.03253
20
-4.01182
11
5.03253
21
-4.19922
0
LINE
8
BLACK
6
CONTINUOUS
10
5.03253
20
-4.19922
11
5.03224
21
-4.19991
0
LINE
8
BLACK
6
CONTINUOUS
10
5.03224
20
-4.19991
11
5.03154
21
-4.2002
0
LINE
8
BLACK
6
CONTINUOUS
10
5.03154
20
-4.2002
11
4.88981
21
-4.2002
0
LINE
8
BLACK
6
CONTINUOUS
10
4.88981
20
-4.2002
11
4.88911
21
-4.19991
0
LINE
8
BLACK
6
CONTINUOUS
10
4.89079
20
-4.0128
11
4.89079
21
-4.19823
0
LINE
8
BLACK
6
CONTINUOUS
10
4.89079
20
-4.19823
11
5.03056
21
-4.19823
0
LINE
8
BLACK
6
CONTINUOUS
10
5.03056
20
-4.19823
11
5.03056
21
-4.0128
0
LINE
8
BLACK
6
CONTINUOUS
10
5.03056
20
-4.0128
11
4.89079
21
-4.0128
0
LINE
8
BLACK
6
CONTINUOUS
10
4.81924
20
-4.16514
11
4.81895
21
-4.16445
0
LINE
8
BLACK
6
CONTINUOUS
10
4.81895
20
-4.16445
11
4.81895
21
-4.04791
0
LINE
8
BLACK
6
CONTINUOUS
10
4.81895
20
-4.04791
11
4.81924
21
-4.04721
0
LINE
8
BLACK
6
CONTINUOUS
10
4.81924
20
-4.04721
11
4.81993
21
-4.04693
0
LINE
8
BLACK
6
CONTINUOUS
10
4.81993
20
-4.04693
11
4.87742
21
-4.04693
0
LINE
8
BLACK
6
CONTINUOUS
10
4.87742
20
-4.04693
11
4.87811
21
-4.04721
0
LINE
8
BLACK
6
CONTINUOUS
10
4.87811
20
-4.04721
11
4.8784
21
-4.04791
0
LINE
8
BLACK
6
CONTINUOUS
10
4.8784
20
-4.04791
11
4.8784
21
-4.16445
0
LINE
8
BLACK
6
CONTINUOUS
10
4.8784
20
-4.16445
11
4.87811
21
-4.16514
0
LINE
8
BLACK
6
CONTINUOUS
10
4.87811
20
-4.16514
11
4.87742
21
-4.16543
0
LINE
8
BLACK
6
CONTINUOUS
10
4.87742
20
-4.16543
11
4.81993
21
-4.16543
0
LINE
8
BLACK
6
CONTINUOUS
10
4.81993
20
-4.16543
11
4.81924
21
-4.16514
0
LINE
8
BLACK
6
CONTINUOUS
10
4.82092
20
-4.04889
11
4.82092
21
-4.16346
0
LINE
8
BLACK
6
CONTINUOUS
10
4.82092
20
-4.16346
11
4.87643
21
-4.16346
0
LINE
8
BLACK
6
CONTINUOUS
10
4.87643
20
-4.16346
11
4.87643
21
-4.04889
0
LINE
8
BLACK
6
CONTINUOUS
10
4.87643
20
-4.04889
11
4.82092
21
-4.04889
0
LINE
8
BLACK
6
CONTINUOUS
10
5.04771
20
-4.14695
11
5.04742
21
-4.14626
0
LINE
8
BLACK
6
CONTINUOUS
10
5.04742
20
-4.14626
11
5.04742
21
-4.08878
0
LINE
8
BLACK
6
CONTINUOUS
10
5.04742
20
-4.08878
11
5.04771
21
-4.08808
0
LINE
8
BLACK
6
CONTINUOUS
10
5.04771
20
-4.08808
11
5.04841
21
-4.08779
0
LINE
8
BLACK
6
CONTINUOUS
10
5.04841
20
-4.08779
11
5.16494
21
-4.08779
0
LINE
8
BLACK
6
CONTINUOUS
10
5.16494
20
-4.08779
11
5.16564
21
-4.08808
0
LINE
8
BLACK
6
CONTINUOUS
10
5.16564
20
-4.08808
11
5.16593
21
-4.08878
0
LINE
8
BLACK
6
CONTINUOUS
10
5.16593
20
-4.08878
11
5.16593
21
-4.14626
0
LINE
8
BLACK
6
CONTINUOUS
10
5.16593
20
-4.14626
11
5.16564
21
-4.14695
0
LINE
8
BLACK
6
CONTINUOUS
10
5.16564
20
-4.14695
11
5.16494
21
-4.14724
0
LINE
8
BLACK
6
CONTINUOUS
10
5.16494
20
-4.14724
11
5.04841
21
-4.14724
0
LINE
8
BLACK
6
CONTINUOUS
10
5.04841
20
-4.14724
11
5.04771
21
-4.14695
0
LINE
8
BLACK
6
CONTINUOUS
10
5.04939
20
-4.08976
11
5.04939
21
-4.14527
0
LINE
8
BLACK
6
CONTINUOUS
10
5.04939
20
-4.14527
11
5.16396
21
-4.14527
0
LINE
8
BLACK
6
CONTINUOUS
10
5.16396
20
-4.14527
11
5.16396
21
-4.08976
0
LINE
8
BLACK
6
CONTINUOUS
10
5.16396
20
-4.08976
11
5.04939
21
-4.08976
0
LINE
8
BLACK
6
CONTINUOUS
10
4.51571
20
-4.13095
11
4.51542
21
-4.13026
0
LINE
8
BLACK
6
CONTINUOUS
10
4.51542
20
-4.13026
11
4.51542
21
-4.07278
0
LINE
8
BLACK
6
CONTINUOUS
10
4.51542
20
-4.07278
11
4.51571
21
-4.07208
0
LINE
8
BLACK
6
CONTINUOUS
10
4.51571
20
-4.07208
11
4.51641
21
-4.07179
0
LINE
8
BLACK
6
CONTINUOUS
10
4.51641
20
-4.07179
11
4.63294
21
-4.07179
0
LINE
8
BLACK
6
CONTINUOUS
10
4.63294
20
-4.07179
11
4.63364
21
-4.07208
0
LINE
8
BLACK
6
CONTINUOUS
10
4.63364
20
-4.07208
11
4.63393
21
-4.07278
0
LINE
8
BLACK
6
CONTINUOUS
10
4.63393
20
-4.07278
11
4.63393
21
-4.13026
0
LINE
8
BLACK
6
CONTINUOUS
10
4.63393
20
-4.13026
11
4.63364
21
-4.13095
0
LINE
8
BLACK
6
CONTINUOUS
10
4.63364
20
-4.13095
11
4.63294
21
-4.13124
0
LINE
8
BLACK
6
CONTINUOUS
10
4.63294
20
-4.13124
11
4.51641
21
-4.13124
0
LINE
8
BLACK
6
CONTINUOUS
10
4.51641
20
-4.13124
11
4.51571
21
-4.13095
0
LINE
8
BLACK
6
CONTINUOUS
10
4.51739
20
-4.07376
11
4.51739
21
-4.12927
0
LINE
8
BLACK
6
CONTINUOUS
10
4.51739
20
-4.12927
11
4.63196
21
-4.12927
0
LINE
8
BLACK
6
CONTINUOUS
10
4.63196
20
-4.12927
11
4.63196
21
-4.07376
0
LINE
8
BLACK
6
CONTINUOUS
10
4.63196
20
-4.07376
11
4.51739
21
-4.07376
0
LINE
8
BLACK
6
CONTINUOUS
10
4.09851
20
-4.08719
11
4.09822
21
-4.08649
0
LINE
8
BLACK
6
CONTINUOUS
10
4.09822
20
-4.08649
11
4.09822
21
-4.02901
0
LINE
8
BLACK
6
CONTINUOUS
10
4.09822
20
-4.02901
11
4.09851
21
-4.02832
0
LINE
8
BLACK
6
CONTINUOUS
10
4.09851
20
-4.02832
11
4.09921
21
-4.02803
0
LINE
8
BLACK
6
CONTINUOUS
10
4.09921
20
-4.02803
11
4.21574
21
-4.02803
0
LINE
8
BLACK
6
CONTINUOUS
10
4.21574
20
-4.02803
11
4.21644
21
-4.02832
0
LINE
8
BLACK
6
CONTINUOUS
10
4.21644
20
-4.02832
11
4.21673
21
-4.02901
0
LINE
8
BLACK
6
CONTINUOUS
10
4.21673
20
-4.02901
11
4.21673
21
-4.08649
0
LINE
8
BLACK
6
CONTINUOUS
10
4.21673
20
-4.08649
11
4.21644
21
-4.08719
0
LINE
8
BLACK
6
CONTINUOUS
10
4.21644
20
-4.08719
11
4.21574
21
-4.08748
0
LINE
8
BLACK
6
CONTINUOUS
10
4.21574
20
-4.08748
11
4.09921
21
-4.08748
0
LINE
8
BLACK
6
CONTINUOUS
10
4.09921
20
-4.08748
11
4.09851
21
-4.08719
0
LINE
8
BLACK
6
CONTINUOUS
10
4.10019
20
-4.03
11
4.10019
21
-4.08551
0
LINE
8
BLACK
6
CONTINUOUS
10
4.10019
20
-4.08551
11
4.21476
21
-4.08551
0
LINE
8
BLACK
6
CONTINUOUS
10
4.21476
20
-4.08551
11
4.21476
21
-4.03
0
LINE
8
BLACK
6
CONTINUOUS
10
4.21476
20
-4.03
11
4.10019
21
-4.03
0
LINE
8
BLACK
6
CONTINUOUS
10
5.04771
20
-4.06895
11
5.04742
21
-4.06826
0
LINE
8
BLACK
6
CONTINUOUS
10
5.04742
20
-4.06826
11
5.04742
21
-4.01078
0
LINE
8
BLACK
6
CONTINUOUS
10
5.04742
20
-4.01078
11
5.04771
21
-4.01008
0
LINE
8
BLACK
6
CONTINUOUS
10
5.04771
20
-4.01008
11
5.04841
21
-4.00979
0
LINE
8
BLACK
6
CONTINUOUS
10
5.04841
20
-4.00979
11
5.16494
21
-4.00979
0
LINE
8
BLACK
6
CONTINUOUS
10
5.16494
20
-4.00979
11
5.16564
21
-4.01008
0
LINE
8
BLACK
6
CONTINUOUS
10
5.16564
20
-4.01008
11
5.16593
21
-4.01078
0
LINE
8
BLACK
6
CONTINUOUS
10
5.16593
20
-4.01078
11
5.16593
21
-4.06826
0
LINE
8
BLACK
6
CONTINUOUS
10
5.16593
20
-4.06826
11
5.16564
21
-4.06895
0
LINE
8
BLACK
6
CONTINUOUS
10
5.16564
20
-4.06895
11
5.16494
21
-4.06924
0
LINE
8
BLACK
6
CONTINUOUS
10
5.16494
20
-4.06924
11
5.04841
21
-4.06924
0
LINE
8
BLACK
6
CONTINUOUS
10
5.04841
20
-4.06924
11
5.04771
21
-4.06895
0
LINE
8
BLACK
6
CONTINUOUS
10
5.04939
20
-4.01176
11
5.04939
21
-4.06727
0
LINE
8
BLACK
6
CONTINUOUS
10
5.04939
20
-4.06727
11
5.16396
21
-4.06727
0
LINE
8
BLACK
6
CONTINUOUS
10
5.16396
20
-4.06727
11
5.16396
21
-4.01176
0
LINE
8
BLACK
6
CONTINUOUS
10
5.16396
20
-4.01176
11
5.04939
21
-4.01176
0
LINE
8
BLACK
6
CONTINUOUS
10
4.57924
20
-4.04248
11
4.57895
21
-4.04178
0
LINE
8
BLACK
6
CONTINUOUS
10
4.57895
20
-4.04178
11
4.57895
21
-3.92525
0
LINE
8
BLACK
6
CONTINUOUS
10
4.57895
20
-3.92525
11
4.57924
21
-3.92455
0
LINE
8
BLACK
6
CONTINUOUS
10
4.57924
20
-3.92455
11
4.57993
21
-3.92426
0
LINE
8
BLACK
6
CONTINUOUS
10
4.57993
20
-3.92426
11
4.63741
21
-3.92426
0
LINE
8
BLACK
6
CONTINUOUS
10
4.63741
20
-3.92426
11
4.63811
21
-3.92455
0
LINE
8
BLACK
6
CONTINUOUS
10
4.63811
20
-3.92455
11
4.6384
21
-3.92525
0
LINE
8
BLACK
6
CONTINUOUS
10
4.6384
20
-3.92525
11
4.6384
21
-4.04178
0
LINE
8
BLACK
6
CONTINUOUS
10
4.6384
20
-4.04178
11
4.63811
21
-4.04248
0
LINE
8
BLACK
6
CONTINUOUS
10
4.63811
20
-4.04248
11
4.63741
21
-4.04277
0
LINE
8
BLACK
6
CONTINUOUS
10
4.63741
20
-4.04277
11
4.57993
21
-4.04277
0
LINE
8
BLACK
6
CONTINUOUS
10
4.57993
20
-4.04277
11
4.57924
21
-4.04248
0
LINE
8
BLACK
6
CONTINUOUS
10
4.58092
20
-3.92623
11
4.58092
21
-4.0408
0
LINE
8
BLACK
6
CONTINUOUS
10
4.58092
20
-4.0408
11
4.63643
21
-4.0408
0
LINE
8
BLACK
6
CONTINUOUS
10
4.63643
20
-4.0408
11
4.63643
21
-3.92623
0
LINE
8
BLACK
6
CONTINUOUS
10
4.63643
20
-3.92623
11
4.58092
21
-3.92623
0
LINE
8
BLACK
6
CONTINUOUS
10
4.43724
20
-4.03848
11
4.43695
21
-4.03778
0
LINE
8
BLACK
6
CONTINUOUS
10
4.43695
20
-4.03778
11
4.43695
21
-3.92125
0
LINE
8
BLACK
6
CONTINUOUS
10
4.43695
20
-3.92125
11
4.43724
21
-3.92055
0
LINE
8
BLACK
6
CONTINUOUS
10
4.43724
20
-3.92055
11
4.43793
21
-3.92026
0
LINE
8
BLACK
6
CONTINUOUS
10
4.43793
20
-3.92026
11
4.49541
21
-3.92026
0
LINE
8
BLACK
6
CONTINUOUS
10
4.49541
20
-3.92026
11
4.49611
21
-3.92055
0
LINE
8
BLACK
6
CONTINUOUS
10
4.49611
20
-3.92055
11
4.4964
21
-3.92125
0
LINE
8
BLACK
6
CONTINUOUS
10
4.4964
20
-3.92125
11
4.4964
21
-4.03778
0
LINE
8
BLACK
6
CONTINUOUS
10
4.4964
20
-4.03778
11
4.49611
21
-4.03848
0
LINE
8
BLACK
6
CONTINUOUS
10
4.49611
20
-4.03848
11
4.49541
21
-4.03877
0
LINE
8
BLACK
6
CONTINUOUS
10
4.49541
20
-4.03877
11
4.43793
21
-4.03877
0
LINE
8
BLACK
6
CONTINUOUS
10
4.43793
20
-4.03877
11
4.43724
21
-4.03848
0
LINE
8
BLACK
6
CONTINUOUS
10
4.43892
20
-3.92223
11
4.43892
21
-4.0368
0
LINE
8
BLACK
6
CONTINUOUS
10
4.43892
20
-4.0368
11
4.49443
21
-4.0368
0
LINE
8
BLACK
6
CONTINUOUS
10
4.49443
20
-4.0368
11
4.49443
21
-3.92223
0
LINE
8
BLACK
6
CONTINUOUS
10
4.49443
20
-3.92223
11
4.43892
21
-3.92223
0
LINE
8
BLACK
6
CONTINUOUS
10
4.50924
20
-4.03848
11
4.50895
21
-4.03778
0
LINE
8
BLACK
6
CONTINUOUS
10
4.50895
20
-4.03778
11
4.50895
21
-3.92125
0
LINE
8
BLACK
6
CONTINUOUS
10
4.50895
20
-3.92125
11
4.50924
21
-3.92055
0
LINE
8
BLACK
6
CONTINUOUS
10
4.50924
20
-3.92055
11
4.50993
21
-3.92026
0
LINE
8
BLACK
6
CONTINUOUS
10
4.50993
20
-3.92026
11
4.56741
21
-3.92026
0
LINE
8
BLACK
6
CONTINUOUS
10
4.56741
20
-3.92026
11
4.56811
21
-3.92055
0
LINE
8
BLACK
6
CONTINUOUS
10
4.56811
20
-3.92055
11
4.5684
21
-3.92125
0
LINE
8
BLACK
6
CONTINUOUS
10
4.5684
20
-3.92125
11
4.5684
21
-4.03778
0
LINE
8
BLACK
6
CONTINUOUS
10
4.5684
20
-4.03778
11
4.56811
21
-4.03848
0
LINE
8
BLACK
6
CONTINUOUS
10
4.56811
20
-4.03848
11
4.56741
21
-4.03877
0
LINE
8
BLACK
6
CONTINUOUS
10
4.56741
20
-4.03877
11
4.50993
21
-4.03877
0
LINE
8
BLACK
6
CONTINUOUS
10
4.50993
20
-4.03877
11
4.50924
21
-4.03848
0
LINE
8
BLACK
6
CONTINUOUS
10
4.51092
20
-3.92223
11
4.51092
21
-4.0368
0
LINE
8
BLACK
6
CONTINUOUS
10
4.51092
20
-4.0368
11
4.56643
21
-4.0368
0
LINE
8
BLACK
6
CONTINUOUS
10
4.56643
20
-4.0368
11
4.56643
21
-3.92223
0
LINE
8
BLACK
6
CONTINUOUS
10
4.56643
20
-3.92223
11
4.51092
21
-3.92223
0
LINE
8
BLACK
6
CONTINUOUS
10
4.08985
20
-3.99703
11
4.08956
21
-3.99634
0
LINE
8
BLACK
6
CONTINUOUS
10
4.08956
20
-3.99634
11
4.08956
21
-3.91917
0
LINE
8
BLACK
6
CONTINUOUS
10
4.08956
20
-3.91917
11
4.08985
21
-3.91847
0
LINE
8
BLACK
6
CONTINUOUS
10
4.08985
20
-3.91847
11
4.09054
21
-3.91819
0
LINE
8
BLACK
6
CONTINUOUS
10
4.09054
20
-3.91819
11
4.2244
21
-3.91819
0
LINE
8
BLACK
6
CONTINUOUS
10
4.2244
20
-3.91819
11
4.2251
21
-3.91847
0
LINE
8
BLACK
6
CONTINUOUS
10
4.2251
20
-3.91847
11
4.22539
21
-3.91917
0
LINE
8
BLACK
6
CONTINUOUS
10
4.22539
20
-3.91917
11
4.22539
21
-3.99634
0
LINE
8
BLACK
6
CONTINUOUS
10
4.22539
20
-3.99634
11
4.2251
21
-3.99703
0
LINE
8
BLACK
6
CONTINUOUS
10
4.2251
20
-3.99703
11
4.2244
21
-3.99732
0
LINE
8
BLACK
6
CONTINUOUS
10
4.2244
20
-3.99732
11
4.09054
21
-3.99732
0
LINE
8
BLACK
6
CONTINUOUS
10
4.09054
20
-3.99732
11
4.08985
21
-3.99703
0
LINE
8
BLACK
6
CONTINUOUS
10
4.09153
20
-3.92015
11
4.09153
21
-3.99535
0
LINE
8
BLACK
6
CONTINUOUS
10
4.09153
20
-3.99535
11
4.22342
21
-3.99535
0
LINE
8
BLACK
6
CONTINUOUS
10
4.22342
20
-3.99535
11
4.22342
21
-3.92015
0
LINE
8
BLACK
6
CONTINUOUS
10
4.22342
20
-3.92015
11
4.09153
21
-3.92015
0
LINE
8
BLACK
6
CONTINUOUS
10
4.23601
20
-3.98719
11
4.23572
21
-3.98649
0
LINE
8
BLACK
6
CONTINUOUS
10
4.23572
20
-3.98649
11
4.23572
21
-3.92901
0
LINE
8
BLACK
6
CONTINUOUS
10
4.23572
20
-3.92901
11
4.23601
21
-3.92832
0
LINE
8
BLACK
6
CONTINUOUS
10
4.23601
20
-3.92832
11
4.23671
21
-3.92803
0
LINE
8
BLACK
6
CONTINUOUS
10
4.23671
20
-3.92803
11
4.35324
21
-3.92803
0
LINE
8
BLACK
6
CONTINUOUS
10
4.35324
20
-3.92803
11
4.35394
21
-3.92832
0
LINE
8
BLACK
6
CONTINUOUS
10
4.35394
20
-3.92832
11
4.35423
21
-3.92901
0
LINE
8
BLACK
6
CONTINUOUS
10
4.35423
20
-3.92901
11
4.35423
21
-3.98649
0
LINE
8
BLACK
6
CONTINUOUS
10
4.35423
20
-3.98649
11
4.35394
21
-3.98719
0
LINE
8
BLACK
6
CONTINUOUS
10
4.35394
20
-3.98719
11
4.35324
21
-3.98748
0
LINE
8
BLACK
6
CONTINUOUS
10
4.35324
20
-3.98748
11
4.23671
21
-3.98748
0
LINE
8
BLACK
6
CONTINUOUS
10
4.23671
20
-3.98748
11
4.23601
21
-3.98719
0
LINE
8
BLACK
6
CONTINUOUS
10
4.23769
20
-3.93
11
4.23769
21
-3.98551
0
LINE
8
BLACK
6
CONTINUOUS
10
4.23769
20
-3.98551
11
4.35226
21
-3.98551
0
LINE
8
BLACK
6
CONTINUOUS
10
4.35226
20
-3.98551
11
4.35226
21
-3.93
0
LINE
8
BLACK
6
CONTINUOUS
10
4.35226
20
-3.93
11
4.23769
21
-3.93
0
LINE
8
BLACK
6
CONTINUOUS
10
4.87431
20
-3.96851
11
4.87402
21
-3.96782
0
LINE
8
BLACK
6
CONTINUOUS
10
4.87402
20
-3.96782
11
4.87402
21
-3.75522
0
LINE
8
BLACK
6
CONTINUOUS
10
4.87402
20
-3.75522
11
4.87431
21
-3.75452
0
LINE
8
BLACK
6
CONTINUOUS
10
4.87431
20
-3.75452
11
4.87501
21
-3.75423
0
LINE
8
BLACK
6
CONTINUOUS
10
4.87501
20
-3.75423
11
5.16634
21
-3.75423
0
LINE
8
BLACK
6
CONTINUOUS
10
5.16634
20
-3.75423
11
5.16704
21
-3.75452
0
LINE
8
BLACK
6
CONTINUOUS
10
5.16704
20
-3.75452
11
5.16733
21
-3.75522
0
LINE
8
BLACK
6
CONTINUOUS
10
5.16733
20
-3.75522
11
5.16733
21
-3.96782
0
LINE
8
BLACK
6
CONTINUOUS
10
5.16733
20
-3.96782
11
5.16704
21
-3.96851
0
LINE
8
BLACK
6
CONTINUOUS
10
5.16704
20
-3.96851
11
5.16634
21
-3.9688
0
LINE
8
BLACK
6
CONTINUOUS
10
5.16634
20
-3.9688
11
4.87501
21
-3.9688
0
LINE
8
BLACK
6
CONTINUOUS
10
4.87501
20
-3.9688
11
4.87431
21
-3.96851
0
LINE
8
BLACK
6
CONTINUOUS
10
4.87599
20
-3.7562
11
4.87599
21
-3.96683
0
LINE
8
BLACK
6
CONTINUOUS
10
4.87599
20
-3.96683
11
5.16536
21
-3.96683
0
LINE
8
BLACK
6
CONTINUOUS
10
5.16536
20
-3.96683
11
5.16536
21
-3.7562
0
LINE
8
BLACK
6
CONTINUOUS
10
5.16536
20
-3.7562
11
4.87599
21
-3.7562
0
LINE
8
BLACK
6
CONTINUOUS
10
4.79524
20
-3.95099
11
4.79495
21
-3.9503
0
LINE
8
BLACK
6
CONTINUOUS
10
4.79495
20
-3.9503
11
4.79495
21
-3.83376
0
LINE
8
BLACK
6
CONTINUOUS
10
4.79495
20
-3.83376
11
4.79524
21
-3.83306
0
LINE
8
BLACK
6
CONTINUOUS
10
4.79524
20
-3.83306
11
4.79593
21
-3.83278
0
LINE
8
BLACK
6
CONTINUOUS
10
4.79593
20
-3.83278
11
4.85342
21
-3.83278
0
LINE
8
BLACK
6
CONTINUOUS
10
4.85342
20
-3.83278
11
4.85411
21
-3.83306
0
LINE
8
BLACK
6
CONTINUOUS
10
4.85411
20
-3.83306
11
4.8544
21
-3.83376
0
LINE
8
BLACK
6
CONTINUOUS
10
4.8544
20
-3.83376
11
4.8544
21
-3.9503
0
LINE
8
BLACK
6
CONTINUOUS
10
4.8544
20
-3.9503
11
4.85411
21
-3.95099
0
LINE
8
BLACK
6
CONTINUOUS
10
4.85411
20
-3.95099
11
4.85342
21
-3.95128
0
LINE
8
BLACK
6
CONTINUOUS
10
4.85342
20
-3.95128
11
4.79593
21
-3.95128
0
LINE
8
BLACK
6
CONTINUOUS
10
4.79593
20
-3.95128
11
4.79524
21
-3.95099
0
LINE
8
BLACK
6
CONTINUOUS
10
4.79692
20
-3.83475
11
4.79692
21
-3.94931
0
LINE
8
BLACK
6
CONTINUOUS
10
4.79692
20
-3.94931
11
4.85243
21
-3.94931
0
LINE
8
BLACK
6
CONTINUOUS
10
4.85243
20
-3.94931
11
4.85243
21
-3.83475
0
LINE
8
BLACK
6
CONTINUOUS
10
4.85243
20
-3.83475
11
4.79692
21
-3.83475
0
LINE
8
BLACK
6
CONTINUOUS
10
4.72524
20
-3.95096
11
4.72495
21
-3.95026
0
LINE
8
BLACK
6
CONTINUOUS
10
4.72495
20
-3.95026
11
4.72495
21
-3.83373
0
LINE
8
BLACK
6
CONTINUOUS
10
4.72495
20
-3.83373
11
4.72524
21
-3.83303
0
LINE
8
BLACK
6
CONTINUOUS
10
4.72524
20
-3.83303
11
4.72593
21
-3.83275
0
LINE
8
BLACK
6
CONTINUOUS
10
4.72593
20
-3.83275
11
4.78341
21
-3.83275
0
LINE
8
BLACK
6
CONTINUOUS
10
4.78341
20
-3.83275
11
4.78411
21
-3.83303
0
LINE
8
BLACK
6
CONTINUOUS
10
4.78411
20
-3.83303
11
4.7844
21
-3.83373
0
LINE
8
BLACK
6
CONTINUOUS
10
4.7844
20
-3.83373
11
4.7844
21
-3.95026
0
LINE
8
BLACK
6
CONTINUOUS
10
4.7844
20
-3.95026
11
4.78411
21
-3.95096
0
LINE
8
BLACK
6
CONTINUOUS
10
4.78411
20
-3.95096
11
4.78341
21
-3.95125
0
LINE
8
BLACK
6
CONTINUOUS
10
4.78341
20
-3.95125
11
4.72593
21
-3.95125
0
LINE
8
BLACK
6
CONTINUOUS
10
4.72593
20
-3.95125
11
4.72524
21
-3.95096
0
LINE
8
BLACK
6
CONTINUOUS
10
4.72692
20
-3.83471
11
4.72692
21
-3.94928
0
LINE
8
BLACK
6
CONTINUOUS
10
4.72692
20
-3.94928
11
4.78243
21
-3.94928
0
LINE
8
BLACK
6
CONTINUOUS
10
4.78243
20
-3.94928
11
4.78243
21
-3.83471
0
LINE
8
BLACK
6
CONTINUOUS
10
4.78243
20
-3.83471
11
4.72692
21
-3.83471
0
LINE
8
BLACK
6
CONTINUOUS
10
4.14861
20
-3.91475
11
4.14832
21
-3.91405
0
LINE
8
BLACK
6
CONTINUOUS
10
4.14832
20
-3.91405
11
4.14832
21
-3.70145
0
LINE
8
BLACK
6
CONTINUOUS
10
4.14832
20
-3.70145
11
4.14861
21
-3.70076
0
LINE
8
BLACK
6
CONTINUOUS
10
4.14861
20
-3.70076
11
4.1493
21
-3.70047
0
LINE
8
BLACK
6
CONTINUOUS
10
4.1493
20
-3.70047
11
4.44064
21
-3.70047
0
LINE
8
BLACK
6
CONTINUOUS
10
4.44064
20
-3.70047
11
4.44134
21
-3.70076
0
LINE
8
BLACK
6
CONTINUOUS
10
4.44134
20
-3.70076
11
4.44163
21
-3.70145
0
LINE
8
BLACK
6
CONTINUOUS
10
4.44163
20
-3.70145
11
4.44163
21
-3.91405
0
LINE
8
BLACK
6
CONTINUOUS
10
4.44163
20
-3.91405
11
4.44134
21
-3.91475
0
LINE
8
BLACK
6
CONTINUOUS
10
4.44134
20
-3.91475
11
4.44064
21
-3.91504
0
LINE
8
BLACK
6
CONTINUOUS
10
4.44064
20
-3.91504
11
4.1493
21
-3.91504
0
LINE
8
BLACK
6
CONTINUOUS
10
4.1493
20
-3.91504
11
4.14861
21
-3.91475
0
LINE
8
BLACK
6
CONTINUOUS
10
4.15029
20
-3.70244
11
4.15029
21
-3.91307
0
LINE
8
BLACK
6
CONTINUOUS
10
4.15029
20
-3.91307
11
4.43966
21
-3.91307
0
LINE
8
BLACK
6
CONTINUOUS
10
4.43966
20
-3.91307
11
4.43966
21
-3.70244
0
LINE
8
BLACK
6
CONTINUOUS
10
4.43966
20
-3.70244
11
4.15029
21
-3.70244
0
LINE
8
BLACK
6
CONTINUOUS
10
4.65924
20
-3.86648
11
4.65895
21
-3.86578
0
LINE
8
BLACK
6
CONTINUOUS
10
4.65895
20
-3.86578
11
4.65895
21
-3.74925
0
LINE
8
BLACK
6
CONTINUOUS
10
4.65895
20
-3.74925
11
4.65924
21
-3.74855
0
LINE
8
BLACK
6
CONTINUOUS
10
4.65924
20
-3.74855
11
4.65993
21
-3.74826
0
LINE
8
BLACK
6
CONTINUOUS
10
4.65993
20
-3.74826
11
4.71741
21
-3.74826
0
LINE
8
BLACK
6
CONTINUOUS
10
4.71741
20
-3.74826
11
4.71811
21
-3.74855
0
LINE
8
BLACK
6
CONTINUOUS
10
4.71811
20
-3.74855
11
4.7184
21
-3.74925
0
LINE
8
BLACK
6
CONTINUOUS
10
4.7184
20
-3.74925
11
4.7184
21
-3.86578
0
LINE
8
BLACK
6
CONTINUOUS
10
4.7184
20
-3.86578
11
4.71811
21
-3.86648
0
LINE
8
BLACK
6
CONTINUOUS
10
4.71811
20
-3.86648
11
4.71741
21
-3.86677
0
LINE
8
BLACK
6
CONTINUOUS
10
4.71741
20
-3.86677
11
4.65993
21
-3.86677
0
LINE
8
BLACK
6
CONTINUOUS
10
4.65993
20
-3.86677
11
4.65924
21
-3.86648
0
LINE
8
BLACK
6
CONTINUOUS
10
4.66092
20
-3.75023
11
4.66092
21
-3.8648
0
LINE
8
BLACK
6
CONTINUOUS
10
4.66092
20
-3.8648
11
4.71643
21
-3.8648
0
LINE
8
BLACK
6
CONTINUOUS
10
4.71643
20
-3.8648
11
4.71643
21
-3.75023
0
LINE
8
BLACK
6
CONTINUOUS
10
4.71643
20
-3.75023
11
4.66092
21
-3.75023
0
LINE
8
BLACK
6
CONTINUOUS
10
4.51924
20
-3.86648
11
4.51895
21
-3.86578
0
LINE
8
BLACK
6
CONTINUOUS
10
4.51895
20
-3.86578
11
4.51895
21
-3.74925
0
LINE
8
BLACK
6
CONTINUOUS
10
4.51895
20
-3.74925
11
4.51924
21
-3.74855
0
LINE
8
BLACK
6
CONTINUOUS
10
4.51924
20
-3.74855
11
4.51993
21
-3.74826
0
LINE
8
BLACK
6
CONTINUOUS
10
4.51993
20
-3.74826
11
4.57742
21
-3.74826
0
LINE
8
BLACK
6
CONTINUOUS
10
4.57742
20
-3.74826
11
4.57811
21
-3.74855
0
LINE
8
BLACK
6
CONTINUOUS
10
4.57811
20
-3.74855
11
4.5784
21
-3.74925
0
LINE
8
BLACK
6
CONTINUOUS
10
4.5784
20
-3.74925
11
4.5784
21
-3.86578
0
LINE
8
BLACK
6
CONTINUOUS
10
4.5784
20
-3.86578
11
4.57811
21
-3.86648
0
LINE
8
BLACK
6
CONTINUOUS
10
4.57811
20
-3.86648
11
4.57742
21
-3.86677
0
LINE
8
BLACK
6
CONTINUOUS
10
4.57742
20
-3.86677
11
4.51993
21
-3.86677
0
LINE
8
BLACK
6
CONTINUOUS
10
4.51993
20
-3.86677
11
4.51924
21
-3.86648
0
LINE
8
BLACK
6
CONTINUOUS
10
4.52092
20
-3.75023
11
4.52092
21
-3.8648
0
LINE
8
BLACK
6
CONTINUOUS
10
4.52092
20
-3.8648
11
4.57643
21
-3.8648
0
LINE
8
BLACK
6
CONTINUOUS
10
4.57643
20
-3.8648
11
4.57643
21
-3.75023
0
LINE
8
BLACK
6
CONTINUOUS
10
4.57643
20
-3.75023
11
4.52092
21
-3.75023
0
LINE
8
BLACK
6
CONTINUOUS
10
4.58924
20
-3.86648
11
4.58895
21
-3.86578
0
LINE
8
BLACK
6
CONTINUOUS
10
4.58895
20
-3.86578
11
4.58895
21
-3.74925
0
LINE
8
BLACK
6
CONTINUOUS
10
4.58895
20
-3.74925
11
4.58924
21
-3.74855
0
LINE
8
BLACK
6
CONTINUOUS
10
4.58924
20
-3.74855
11
4.58993
21
-3.74826
0
LINE
8
BLACK
6
CONTINUOUS
10
4.58993
20
-3.74826
11
4.64741
21
-3.74826
0
LINE
8
BLACK
6
CONTINUOUS
10
4.64741
20
-3.74826
11
4.64811
21
-3.74855
0
LINE
8
BLACK
6
CONTINUOUS
10
4.64811
20
-3.74855
11
4.6484
21
-3.74925
0
LINE
8
BLACK
6
CONTINUOUS
10
4.6484
20
-3.74925
11
4.6484
21
-3.86578
0
LINE
8
BLACK
6
CONTINUOUS
10
4.6484
20
-3.86578
11
4.64811
21
-3.86648
0
LINE
8
BLACK
6
CONTINUOUS
10
4.64811
20
-3.86648
11
4.64741
21
-3.86677
0
LINE
8
BLACK
6
CONTINUOUS
10
4.64741
20
-3.86677
11
4.58993
21
-3.86677
0
LINE
8
BLACK
6
CONTINUOUS
10
4.58993
20
-3.86677
11
4.58924
21
-3.86648
0
LINE
8
BLACK
6
CONTINUOUS
10
4.59092
20
-3.75023
11
4.59092
21
-3.8648
0
LINE
8
BLACK
6
CONTINUOUS
10
4.59092
20
-3.8648
11
4.64643
21
-3.8648
0
LINE
8
BLACK
6
CONTINUOUS
10
4.64643
20
-3.8648
11
4.64643
21
-3.75023
0
LINE
8
BLACK
6
CONTINUOUS
10
4.64643
20
-3.75023
11
4.59092
21
-3.75023
0
LINE
8
BLACK
6
CONTINUOUS
10
4.44924
20
-3.86648
11
4.44895
21
-3.86578
0
LINE
8
BLACK
6
CONTINUOUS
10
4.44895
20
-3.86578
11
4.44895
21
-3.74925
0
LINE
8
BLACK
6
CONTINUOUS
10
4.44895
20
-3.74925
11
4.44924
21
-3.74855
0
LINE
8
BLACK
6
CONTINUOUS
10
4.44924
20
-3.74855
11
4.44993
21
-3.74826
0
LINE
8
BLACK
6
CONTINUOUS
10
4.44993
20
-3.74826
11
4.50741
21
-3.74826
0
LINE
8
BLACK
6
CONTINUOUS
10
4.50741
20
-3.74826
11
4.50811
21
-3.74855
0
LINE
8
BLACK
6
CONTINUOUS
10
4.50811
20
-3.74855
11
4.5084
21
-3.74925
0
LINE
8
BLACK
6
CONTINUOUS
10
4.5084
20
-3.74925
11
4.5084
21
-3.86578
0
LINE
8
BLACK
6
CONTINUOUS
10
4.5084
20
-3.86578
11
4.50811
21
-3.86648
0
LINE
8
BLACK
6
CONTINUOUS
10
4.50811
20
-3.86648
11
4.50741
21
-3.86677
0
LINE
8
BLACK
6
CONTINUOUS
10
4.50741
20
-3.86677
11
4.44993
21
-3.86677
0
LINE
8
BLACK
6
CONTINUOUS
10
4.44993
20
-3.86677
11
4.44924
21
-3.86648
0
LINE
8
BLACK
6
CONTINUOUS
10
4.45092
20
-3.75023
11
4.45092
21
-3.8648
0
LINE
8
BLACK
6
CONTINUOUS
10
4.45092
20
-3.8648
11
4.50643
21
-3.8648
0
LINE
8
BLACK
6
CONTINUOUS
10
4.50643
20
-3.8648
11
4.50643
21
-3.75023
0
LINE
8
BLACK
6
CONTINUOUS
10
4.50643
20
-3.75023
11
4.45092
21
-3.75023
0
LINE
8
BLACK
6
CONTINUOUS
10
4.73371
20
-3.81295
11
4.73342
21
-3.81226
0
LINE
8
BLACK
6
CONTINUOUS
10
4.73342
20
-3.81226
11
4.73342
21
-3.75478
0
LINE
8
BLACK
6
CONTINUOUS
10
4.73342
20
-3.75478
11
4.73371
21
-3.75408
0
LINE
8
BLACK
6
CONTINUOUS
10
4.73371
20
-3.75408
11
4.73441
21
-3.75379
0
LINE
8
BLACK
6
CONTINUOUS
10
4.73441
20
-3.75379
11
4.85094
21
-3.75379
0
LINE
8
BLACK
6
CONTINUOUS
10
4.85094
20
-3.75379
11
4.85164
21
-3.75408
0
LINE
8
BLACK
6
CONTINUOUS
10
4.85164
20
-3.75408
11
4.85193
21
-3.75478
0
LINE
8
BLACK
6
CONTINUOUS
10
4.85193
20
-3.75478
11
4.85193
21
-3.81226
0
LINE
8
BLACK
6
CONTINUOUS
10
4.85193
20
-3.81226
11
4.85164
21
-3.81295
0
LINE
8
BLACK
6
CONTINUOUS
10
4.85164
20
-3.81295
11
4.85094
21
-3.81324
0
LINE
8
BLACK
6
CONTINUOUS
10
4.85094
20
-3.81324
11
4.73441
21
-3.81324
0
LINE
8
BLACK
6
CONTINUOUS
10
4.73441
20
-3.81324
11
4.73371
21
-3.81295
0
LINE
8
BLACK
6
CONTINUOUS
10
4.73539
20
-3.75576
11
4.73539
21
-3.81127
0
LINE
8
BLACK
6
CONTINUOUS
10
4.73539
20
-3.81127
11
4.84996
21
-3.81127
0
LINE
8
BLACK
6
CONTINUOUS
10
4.84996
20
-3.81127
11
4.84996
21
-3.75576
0
LINE
8
BLACK
6
CONTINUOUS
10
4.84996
20
-3.75576
11
4.73539
21
-3.75576
0
LINE
8
BLACK
6
CONTINUOUS
10
4.06554
20
-3.77922
11
4.06525
21
-3.77852
0
LINE
8
BLACK
6
CONTINUOUS
10
4.06525
20
-3.77852
11
4.06525
21
-3.66199
0
LINE
8
BLACK
6
CONTINUOUS
10
4.06525
20
-3.66199
11
4.06554
21
-3.66129
0
LINE
8
BLACK
6
CONTINUOUS
10
4.06554
20
-3.66129
11
4.06623
21
-3.661
0
LINE
8
BLACK
6
CONTINUOUS
10
4.06623
20
-3.661
11
4.12371
21
-3.661
0
LINE
8
BLACK
6
CONTINUOUS
10
4.12371
20
-3.661
11
4.12441
21
-3.66129
0
LINE
8
BLACK
6
CONTINUOUS
10
4.12441
20
-3.66129
11
4.1247
21
-3.66199
0
LINE
8
BLACK
6
CONTINUOUS
10
4.1247
20
-3.66199
11
4.1247
21
-3.77852
0
LINE
8
BLACK
6
CONTINUOUS
10
4.1247
20
-3.77852
11
4.12441
21
-3.77922
0
LINE
8
BLACK
6
CONTINUOUS
10
4.12441
20
-3.77922
11
4.12371
21
-3.7795
0
LINE
8
BLACK
6
CONTINUOUS
10
4.12371
20
-3.7795
11
4.06623
21
-3.7795
0
LINE
8
BLACK
6
CONTINUOUS
10
4.06623
20
-3.7795
11
4.06554
21
-3.77922
0
LINE
8
BLACK
6
CONTINUOUS
10
4.06722
20
-3.66297
11
4.06722
21
-3.77754
0
LINE
8
BLACK
6
CONTINUOUS
10
4.06722
20
-3.77754
11
4.12273
21
-3.77754
0
LINE
8
BLACK
6
CONTINUOUS
10
4.12273
20
-3.77754
11
4.12273
21
-3.66297
0
LINE
8
BLACK
6
CONTINUOUS
10
4.12273
20
-3.66297
11
4.06722
21
-3.66297
0
LINE
8
BLACK
6
CONTINUOUS
10
4.46554
20
-3.74172
11
4.46525
21
-3.74102
0
LINE
8
BLACK
6
CONTINUOUS
10
4.46525
20
-3.74102
11
4.46525
21
-3.62449
0
LINE
8
BLACK
6
CONTINUOUS
10
4.46525
20
-3.62449
11
4.46554
21
-3.62379
0
LINE
8
BLACK
6
CONTINUOUS
10
4.46554
20
-3.62379
11
4.46623
21
-3.6235
0
LINE
8
BLACK
6
CONTINUOUS
10
4.46623
20
-3.6235
11
4.52371
21
-3.6235
0
LINE
8
BLACK
6
CONTINUOUS
10
4.52371
20
-3.6235
11
4.52441
21
-3.62379
0
LINE
8
BLACK
6
CONTINUOUS
10
4.52441
20
-3.62379
11
4.5247
21
-3.62449
0
LINE
8
BLACK
6
CONTINUOUS
10
4.5247
20
-3.62449
11
4.5247
21
-3.74102
0
LINE
8
BLACK
6
CONTINUOUS
10
4.5247
20
-3.74102
11
4.52441
21
-3.74172
0
LINE
8
BLACK
6
CONTINUOUS
10
4.52441
20
-3.74172
11
4.52371
21
-3.742
0
LINE
8
BLACK
6
CONTINUOUS
10
4.52371
20
-3.742
11
4.46623
21
-3.742
0
LINE
8
BLACK
6
CONTINUOUS
10
4.46623
20
-3.742
11
4.46554
21
-3.74172
0
LINE
8
BLACK
6
CONTINUOUS
10
4.46722
20
-3.62547
11
4.46722
21
-3.74004
0
LINE
8
BLACK
6
CONTINUOUS
10
4.46722
20
-3.74004
11
4.52273
21
-3.74004
0
LINE
8
BLACK
6
CONTINUOUS
10
4.52273
20
-3.74004
11
4.52273
21
-3.62547
0
LINE
8
BLACK
6
CONTINUOUS
10
4.52273
20
-3.62547
11
4.46722
21
-3.62547
0
LINE
8
BLACK
6
CONTINUOUS
10
4.52924
20
-3.73922
11
4.52895
21
-3.73852
0
LINE
8
BLACK
6
CONTINUOUS
10
4.52895
20
-3.73852
11
4.52895
21
-3.62199
0
LINE
8
BLACK
6
CONTINUOUS
10
4.52895
20
-3.62199
11
4.52924
21
-3.62129
0
LINE
8
BLACK
6
CONTINUOUS
10
4.52924
20
-3.62129
11
4.52993
21
-3.621
0
LINE
8
BLACK
6
CONTINUOUS
10
4.52993
20
-3.621
11
4.58742
21
-3.621
0
LINE
8
BLACK
6
CONTINUOUS
10
4.58742
20
-3.621
11
4.58811
21
-3.62129
0
LINE
8
BLACK
6
CONTINUOUS
10
4.58811
20
-3.62129
11
4.5884
21
-3.62199
0
LINE
8
BLACK
6
CONTINUOUS
10
4.5884
20
-3.62199
11
4.5884
21
-3.73852
0
LINE
8
BLACK
6
CONTINUOUS
10
4.5884
20
-3.73852
11
4.58811
21
-3.73922
0
LINE
8
BLACK
6
CONTINUOUS
10
4.58811
20
-3.73922
11
4.58742
21
-3.7395
0
LINE
8
BLACK
6
CONTINUOUS
10
4.58742
20
-3.7395
11
4.52993
21
-3.7395
0
LINE
8
BLACK
6
CONTINUOUS
10
4.52993
20
-3.7395
11
4.52924
21
-3.73922
0
LINE
8
BLACK
6
CONTINUOUS
10
4.53092
20
-3.62297
11
4.53092
21
-3.73754
0
LINE
8
BLACK
6
CONTINUOUS
10
4.53092
20
-3.73754
11
4.58643
21
-3.73754
0
LINE
8
BLACK
6
CONTINUOUS
10
4.58643
20
-3.73754
11
4.58643
21
-3.62297
0
LINE
8
BLACK
6
CONTINUOUS
10
4.58643
20
-3.62297
11
4.53092
21
-3.62297
0
LINE
8
BLACK
6
CONTINUOUS
10
5.0774
20
-3.72914
11
5.07711
21
-3.72845
0
LINE
8
BLACK
6
CONTINUOUS
10
5.07711
20
-3.72845
11
5.07711
21
-3.59459
0
LINE
8
BLACK
6
CONTINUOUS
10
5.07711
20
-3.59459
11
5.0774
21
-3.59389
0
LINE
8
BLACK
6
CONTINUOUS
10
5.0774
20
-3.59389
11
5.07809
21
-3.5936
0
LINE
8
BLACK
6
CONTINUOUS
10
5.07809
20
-3.5936
11
5.15526
21
-3.5936
0
LINE
8
BLACK
6
CONTINUOUS
10
5.15526
20
-3.5936
11
5.15595
21
-3.59389
0
LINE
8
BLACK
6
CONTINUOUS
10
5.15595
20
-3.59389
11
5.15624
21
-3.59459
0
LINE
8
BLACK
6
CONTINUOUS
10
5.15624
20
-3.59459
11
5.15624
21
-3.72845
0
LINE
8
BLACK
6
CONTINUOUS
10
5.15624
20
-3.72845
11
5.15595
21
-3.72914
0
LINE
8
BLACK
6
CONTINUOUS
10
5.15595
20
-3.72914
11
5.15526
21
-3.72943
0
LINE
8
BLACK
6
CONTINUOUS
10
5.15526
20
-3.72943
11
5.07809
21
-3.72943
0
LINE
8
BLACK
6
CONTINUOUS
10
5.07809
20
-3.72943
11
5.0774
21
-3.72914
0
LINE
8
BLACK
6
CONTINUOUS
10
5.07908
20
-3.59557
11
5.07908
21
-3.72746
0
LINE
8
BLACK
6
CONTINUOUS
10
5.07908
20
-3.72746
11
5.15427
21
-3.72746
0
LINE
8
BLACK
6
CONTINUOUS
10
5.15427
20
-3.72746
11
5.15427
21
-3.59557
0
LINE
8
BLACK
6
CONTINUOUS
10
5.15427
20
-3.59557
11
5.07908
21
-3.59557
0
LINE
8
BLACK
6
CONTINUOUS
10
4.94923
20
-3.72895
11
4.94894
21
-3.72826
0
LINE
8
BLACK
6
CONTINUOUS
10
4.94894
20
-3.72826
11
4.94894
21
-3.67078
0
LINE
8
BLACK
6
CONTINUOUS
10
4.94894
20
-3.67078
11
4.94923
21
-3.67008
0
LINE
8
BLACK
6
CONTINUOUS
10
4.94923
20
-3.67008
11
4.94993
21
-3.66979
0
LINE
8
BLACK
6
CONTINUOUS
10
4.94993
20
-3.66979
11
5.06646
21
-3.66979
0
LINE
8
BLACK
6
CONTINUOUS
10
5.06646
20
-3.66979
11
5.06716
21
-3.67008
0
LINE
8
BLACK
6
CONTINUOUS
10
5.06716
20
-3.67008
11
5.06745
21
-3.67078
0
LINE
8
BLACK
6
CONTINUOUS
10
5.06745
20
-3.67078
11
5.06745
21
-3.72826
0
LINE
8
BLACK
6
CONTINUOUS
10
5.06745
20
-3.72826
11
5.06716
21
-3.72895
0
LINE
8
BLACK
6
CONTINUOUS
10
5.06716
20
-3.72895
11
5.06646
21
-3.72924
0
LINE
8
BLACK
6
CONTINUOUS
10
5.06646
20
-3.72924
11
4.94993
21
-3.72924
0
LINE
8
BLACK
6
CONTINUOUS
10
4.94993
20
-3.72924
11
4.94923
21
-3.72895
0
LINE
8
BLACK
6
CONTINUOUS
10
4.95091
20
-3.67176
11
4.95091
21
-3.72727
0
LINE
8
BLACK
6
CONTINUOUS
10
4.95091
20
-3.72727
11
5.06548
21
-3.72727
0
LINE
8
BLACK
6
CONTINUOUS
10
5.06548
20
-3.72727
11
5.06548
21
-3.67176
0
LINE
8
BLACK
6
CONTINUOUS
10
5.06548
20
-3.67176
11
4.95091
21
-3.67176
0
LINE
8
BLACK
6
CONTINUOUS
10
4.76524
20
-3.59848
11
4.76495
21
-3.59778
0
LINE
8
BLACK
6
CONTINUOUS
10
4.76495
20
-3.59778
11
4.76495
21
-3.48125
0
LINE
8
BLACK
6
CONTINUOUS
10
4.76495
20
-3.48125
11
4.76524
21
-3.48055
0
LINE
8
BLACK
6
CONTINUOUS
10
4.76524
20
-3.48055
11
4.76593
21
-3.48026
0
LINE
8
BLACK
6
CONTINUOUS
10
4.76593
20
-3.48026
11
4.82341
21
-3.48026
0
LINE
8
BLACK
6
CONTINUOUS
10
4.82341
20
-3.48026
11
4.82411
21
-3.48055
0
LINE
8
BLACK
6
CONTINUOUS
10
4.82411
20
-3.48055
11
4.8244
21
-3.48125
0
LINE
8
BLACK
6
CONTINUOUS
10
4.8244
20
-3.48125
11
4.8244
21
-3.59778
0
LINE
8
BLACK
6
CONTINUOUS
10
4.8244
20
-3.59778
11
4.82411
21
-3.59848
0
LINE
8
BLACK
6
CONTINUOUS
10
4.82411
20
-3.59848
11
4.82341
21
-3.59877
0
LINE
8
BLACK
6
CONTINUOUS
10
4.82341
20
-3.59877
11
4.76593
21
-3.59877
0
LINE
8
BLACK
6
CONTINUOUS
10
4.76593
20
-3.59877
11
4.76524
21
-3.59848
0
LINE
8
BLACK
6
CONTINUOUS
10
4.76692
20
-3.48223
11
4.76692
21
-3.5968
0
LINE
8
BLACK
6
CONTINUOUS
10
4.76692
20
-3.5968
11
4.82243
21
-3.5968
0
LINE
8
BLACK
6
CONTINUOUS
10
4.82243
20
-3.5968
11
4.82243
21
-3.48223
0
LINE
8
BLACK
6
CONTINUOUS
10
4.82243
20
-3.48223
11
4.76692
21
-3.48223
0
LINE
8
BLACK
6
CONTINUOUS
10
4.67924
20
-3.59848
11
4.67895
21
-3.59778
0
LINE
8
BLACK
6
CONTINUOUS
10
4.67895
20
-3.59778
11
4.67895
21
-3.48125
0
LINE
8
BLACK
6
CONTINUOUS
10
4.67895
20
-3.48125
11
4.67924
21
-3.48055
0
LINE
8
BLACK
6
CONTINUOUS
10
4.67924
20
-3.48055
11
4.67993
21
-3.48026
0
LINE
8
BLACK
6
CONTINUOUS
10
4.67993
20
-3.48026
11
4.73741
21
-3.48026
0
LINE
8
BLACK
6
CONTINUOUS
10
4.73741
20
-3.48026
11
4.73811
21
-3.48055
0
LINE
8
BLACK
6
CONTINUOUS
10
4.73811
20
-3.48055
11
4.7384
21
-3.48125
0
LINE
8
BLACK
6
CONTINUOUS
10
4.7384
20
-3.48125
11
4.7384
21
-3.59778
0
LINE
8
BLACK
6
CONTINUOUS
10
4.7384
20
-3.59778
11
4.73811
21
-3.59848
0
LINE
8
BLACK
6
CONTINUOUS
10
4.73811
20
-3.59848
11
4.73741
21
-3.59877
0
LINE
8
BLACK
6
CONTINUOUS
10
4.73741
20
-3.59877
11
4.67993
21
-3.59877
0
LINE
8
BLACK
6
CONTINUOUS
10
4.67993
20
-3.59877
11
4.67924
21
-3.59848
0
LINE
8
BLACK
6
CONTINUOUS
10
4.68092
20
-3.48223
11
4.68092
21
-3.5968
0
LINE
8
BLACK
6
CONTINUOUS
10
4.68092
20
-3.5968
11
4.73643
21
-3.5968
0
LINE
8
BLACK
6
CONTINUOUS
10
4.73643
20
-3.5968
11
4.73643
21
-3.48223
0
LINE
8
BLACK
6
CONTINUOUS
10
4.73643
20
-3.48223
11
4.68092
21
-3.48223
0
LINE
8
BLACK
6
CONTINUOUS
10
4.84524
20
-3.59848
11
4.84495
21
-3.59778
0
LINE
8
BLACK
6
CONTINUOUS
10
4.84495
20
-3.59778
11
4.84495
21
-3.48125
0
LINE
8
BLACK
6
CONTINUOUS
10
4.84495
20
-3.48125
11
4.84524
21
-3.48055
0
LINE
8
BLACK
6
CONTINUOUS
10
4.84524
20
-3.48055
11
4.84593
21
-3.48026
0
LINE
8
BLACK
6
CONTINUOUS
10
4.84593
20
-3.48026
11
4.90341
21
-3.48026
0
LINE
8
BLACK
6
CONTINUOUS
10
4.90341
20
-3.48026
11
4.90411
21
-3.48055
0
LINE
8
BLACK
6
CONTINUOUS
10
4.90411
20
-3.48055
11
4.9044
21
-3.48125
0
LINE
8
BLACK
6
CONTINUOUS
10
4.9044
20
-3.48125
11
4.9044
21
-3.59778
0
LINE
8
BLACK
6
CONTINUOUS
10
4.9044
20
-3.59778
11
4.90411
21
-3.59848
0
LINE
8
BLACK
6
CONTINUOUS
10
4.90411
20
-3.59848
11
4.90341
21
-3.59877
0
LINE
8
BLACK
6
CONTINUOUS
10
4.90341
20
-3.59877
11
4.84593
21
-3.59877
0
LINE
8
BLACK
6
CONTINUOUS
10
4.84593
20
-3.59877
11
4.84524
21
-3.59848
0
LINE
8
BLACK
6
CONTINUOUS
10
4.84692
20
-3.48223
11
4.84692
21
-3.5968
0
LINE
8
BLACK
6
CONTINUOUS
10
4.84692
20
-3.5968
11
4.90243
21
-3.5968
0
LINE
8
BLACK
6
CONTINUOUS
10
4.90243
20
-3.5968
11
4.90243
21
-3.48223
0
LINE
8
BLACK
6
CONTINUOUS
10
4.90243
20
-3.48223
11
4.84692
21
-3.48223
0
LINE
8
BLACK
6
CONTINUOUS
10
4.92924
20
-3.59848
11
4.92895
21
-3.59778
0
LINE
8
BLACK
6
CONTINUOUS
10
4.92895
20
-3.59778
11
4.92895
21
-3.48125
0
LINE
8
BLACK
6
CONTINUOUS
10
4.92895
20
-3.48125
11
4.92924
21
-3.48055
0
LINE
8
BLACK
6
CONTINUOUS
10
4.92924
20
-3.48055
11
4.92993
21
-3.48026
0
LINE
8
BLACK
6
CONTINUOUS
10
4.92993
20
-3.48026
11
4.98741
21
-3.48026
0
LINE
8
BLACK
6
CONTINUOUS
10
4.98741
20
-3.48026
11
4.98811
21
-3.48055
0
LINE
8
BLACK
6
CONTINUOUS
10
4.98811
20
-3.48055
11
4.9884
21
-3.48125
0
LINE
8
BLACK
6
CONTINUOUS
10
4.9884
20
-3.48125
11
4.9884
21
-3.59778
0
LINE
8
BLACK
6
CONTINUOUS
10
4.9884
20
-3.59778
11
4.98811
21
-3.59848
0
LINE
8
BLACK
6
CONTINUOUS
10
4.98811
20
-3.59848
11
4.98741
21
-3.59877
0
LINE
8
BLACK
6
CONTINUOUS
10
4.98741
20
-3.59877
11
4.92993
21
-3.59877
0
LINE
8
BLACK
6
CONTINUOUS
10
4.92993
20
-3.59877
11
4.92924
21
-3.59848
0
LINE
8
BLACK
6
CONTINUOUS
10
4.93092
20
-3.48223
11
4.93092
21
-3.5968
0
LINE
8
BLACK
6
CONTINUOUS
10
4.93092
20
-3.5968
11
4.98643
21
-3.5968
0
LINE
8
BLACK
6
CONTINUOUS
10
4.98643
20
-3.5968
11
4.98643
21
-3.48223
0
LINE
8
BLACK
6
CONTINUOUS
10
4.98643
20
-3.48223
11
4.93092
21
-3.48223
0
LINE
8
BLACK
6
CONTINUOUS
10
4.38483
20
-3.5805
11
4.38454
21
-3.5798
0
LINE
8
BLACK
6
CONTINUOUS
10
4.38454
20
-3.5798
11
4.38454
21
-3.46326
0
LINE
8
BLACK
6
CONTINUOUS
10
4.38454
20
-3.46326
11
4.38483
21
-3.46257
0
LINE
8
BLACK
6
CONTINUOUS
10
4.38483
20
-3.46257
11
4.38553
21
-3.46228
0
LINE
8
BLACK
6
CONTINUOUS
10
4.38553
20
-3.46228
11
4.44301
21
-3.46228
0
LINE
8
BLACK
6
CONTINUOUS
10
4.44301
20
-3.46228
11
4.4437
21
-3.46257
0
LINE
8
BLACK
6
CONTINUOUS
10
4.4437
20
-3.46257
11
4.44399
21
-3.46326
0
LINE
8
BLACK
6
CONTINUOUS
10
4.44399
20
-3.46326
11
4.44399
21
-3.5798
0
LINE
8
BLACK
6
CONTINUOUS
10
4.44399
20
-3.5798
11
4.4437
21
-3.5805
0
LINE
8
BLACK
6
CONTINUOUS
10
4.4437
20
-3.5805
11
4.44301
21
-3.58078
0
LINE
8
BLACK
6
CONTINUOUS
10
4.44301
20
-3.58078
11
4.38553
21
-3.58078
0
LINE
8
BLACK
6
CONTINUOUS
10
4.38553
20
-3.58078
11
4.38483
21
-3.5805
0
LINE
8
BLACK
6
CONTINUOUS
10
4.38651
20
-3.46425
11
4.38651
21
-3.57882
0
LINE
8
BLACK
6
CONTINUOUS
10
4.38651
20
-3.57882
11
4.44202
21
-3.57882
0
LINE
8
BLACK
6
CONTINUOUS
10
4.44202
20
-3.57882
11
4.44202
21
-3.46425
0
LINE
8
BLACK
6
CONTINUOUS
10
4.44202
20
-3.46425
11
4.38651
21
-3.46425
0
LINE
8
BLACK
6
CONTINUOUS
10
4.59724
20
-3.55448
11
4.59695
21
-3.55378
0
LINE
8
BLACK
6
CONTINUOUS
10
4.59695
20
-3.55378
11
4.59695
21
-3.43725
0
LINE
8
BLACK
6
CONTINUOUS
10
4.59695
20
-3.43725
11
4.59724
21
-3.43655
0
LINE
8
BLACK
6
CONTINUOUS
10
4.59724
20
-3.43655
11
4.59793
21
-3.43626
0
LINE
8
BLACK
6
CONTINUOUS
10
4.59793
20
-3.43626
11
4.65541
21
-3.43626
0
LINE
8
BLACK
6
CONTINUOUS
10
4.65541
20
-3.43626
11
4.65611
21
-3.43655
0
LINE
8
BLACK
6
CONTINUOUS
10
4.65611
20
-3.43655
11
4.6564
21
-3.43725
0
LINE
8
BLACK
6
CONTINUOUS
10
4.6564
20
-3.43725
11
4.6564
21
-3.55378
0
LINE
8
BLACK
6
CONTINUOUS
10
4.6564
20
-3.55378
11
4.65611
21
-3.55448
0
LINE
8
BLACK
6
CONTINUOUS
10
4.65611
20
-3.55448
11
4.65541
21
-3.55477
0
LINE
8
BLACK
6
CONTINUOUS
10
4.65541
20
-3.55477
11
4.59793
21
-3.55477
0
LINE
8
BLACK
6
CONTINUOUS
10
4.59793
20
-3.55477
11
4.59724
21
-3.55448
0
LINE
8
BLACK
6
CONTINUOUS
10
4.59892
20
-3.43823
11
4.59892
21
-3.5528
0
LINE
8
BLACK
6
CONTINUOUS
10
4.59892
20
-3.5528
11
4.65443
21
-3.5528
0
LINE
8
BLACK
6
CONTINUOUS
10
4.65443
20
-3.5528
11
4.65443
21
-3.43823
0
LINE
8
BLACK
6
CONTINUOUS
10
4.65443
20
-3.43823
11
4.59892
21
-3.43823
0
LINE
8
BLACK
6
CONTINUOUS
10
4.53444
20
-3.51947
11
4.53415
21
-3.51878
0
LINE
8
BLACK
6
CONTINUOUS
10
4.53415
20
-3.51878
11
4.53415
21
-3.40224
0
LINE
8
BLACK
6
CONTINUOUS
10
4.53415
20
-3.40224
11
4.53444
21
-3.40155
0
LINE
8
BLACK
6
CONTINUOUS
10
4.53444
20
-3.40155
11
4.53513
21
-3.40126
0
LINE
8
BLACK
6
CONTINUOUS
10
4.53513
20
-3.40126
11
4.59261
21
-3.40126
0
LINE
8
BLACK
6
CONTINUOUS
10
4.59261
20
-3.40126
11
4.59331
21
-3.40155
0
LINE
8
BLACK
6
CONTINUOUS
10
4.59331
20
-3.40155
11
4.5936
21
-3.40224
0
LINE
8
BLACK
6
CONTINUOUS
10
4.5936
20
-3.40224
11
4.5936
21
-3.51878
0
LINE
8
BLACK
6
CONTINUOUS
10
4.5936
20
-3.51878
11
4.59331
21
-3.51947
0
LINE
8
BLACK
6
CONTINUOUS
10
4.59331
20
-3.51947
11
4.59261
21
-3.51976
0
LINE
8
BLACK
6
CONTINUOUS
10
4.59261
20
-3.51976
11
4.53513
21
-3.51976
0
LINE
8
BLACK
6
CONTINUOUS
10
4.53513
20
-3.51976
11
4.53444
21
-3.51947
0
LINE
8
BLACK
6
CONTINUOUS
10
4.53612
20
-3.40323
11
4.53612
21
-3.51779
0
LINE
8
BLACK
6
CONTINUOUS
10
4.53612
20
-3.51779
11
4.59163
21
-3.51779
0
LINE
8
BLACK
6
CONTINUOUS
10
4.59163
20
-3.51779
11
4.59163
21
-3.40323
0
LINE
8
BLACK
6
CONTINUOUS
10
4.59163
20
-3.40323
11
4.53612
21
-3.40323
0
LINE
8
BLACK
6
CONTINUOUS
10
4.16305
20
-3.4918
11
4.16276
21
-3.49111
0
LINE
8
BLACK
6
CONTINUOUS
10
4.16276
20
-3.49111
11
4.16276
21
-3.33993
0
LINE
8
BLACK
6
CONTINUOUS
10
4.16276
20
-3.33993
11
4.16305
21
-3.33923
0
LINE
8
BLACK
6
CONTINUOUS
10
4.16305
20
-3.33923
11
4.16375
21
-3.33894
0
LINE
8
BLACK
6
CONTINUOUS
10
4.16375
20
-3.33894
11
4.2976
21
-3.33894
0
LINE
8
BLACK
6
CONTINUOUS
10
4.2976
20
-3.33894
11
4.2983
21
-3.33923
0
LINE
8
BLACK
6
CONTINUOUS
10
4.2983
20
-3.33923
11
4.29859
21
-3.33993
0
LINE
8
BLACK
6
CONTINUOUS
10
4.29859
20
-3.33993
11
4.29859
21
-3.49111
0
LINE
8
BLACK
6
CONTINUOUS
10
4.29859
20
-3.49111
11
4.2983
21
-3.4918
0
LINE
8
BLACK
6
CONTINUOUS
10
4.2983
20
-3.4918
11
4.2976
21
-3.49209
0
LINE
8
BLACK
6
CONTINUOUS
10
4.2976
20
-3.49209
11
4.16375
21
-3.49209
0
LINE
8
BLACK
6
CONTINUOUS
10
4.16375
20
-3.49209
11
4.16305
21
-3.4918
0
LINE
8
BLACK
6
CONTINUOUS
10
4.16473
20
-3.34091
11
4.16473
21
-3.49012
0
LINE
8
BLACK
6
CONTINUOUS
10
4.16473
20
-3.49012
11
4.29662
21
-3.49012
0
LINE
8
BLACK
6
CONTINUOUS
10
4.29662
20
-3.49012
11
4.29662
21
-3.34091
0
LINE
8
BLACK
6
CONTINUOUS
10
4.29662
20
-3.34091
11
4.16473
21
-3.34091
0
LINE
8
BLACK
6
CONTINUOUS
10
5.08724
20
-3.49048
11
5.08695
21
-3.48978
0
LINE
8
BLACK
6
CONTINUOUS
10
5.08695
20
-3.48978
11
5.08695
21
-3.37325
0
LINE
8
BLACK
6
CONTINUOUS
10
5.08695
20
-3.37325
11
5.08724
21
-3.37255
0
LINE
8
BLACK
6
CONTINUOUS
10
5.08724
20
-3.37255
11
5.08793
21
-3.37226
0
LINE
8
BLACK
6
CONTINUOUS
10
5.08793
20
-3.37226
11
5.14541
21
-3.37226
0
LINE
8
BLACK
6
CONTINUOUS
10
5.14541
20
-3.37226
11
5.14611
21
-3.37255
0
LINE
8
BLACK
6
CONTINUOUS
10
5.14611
20
-3.37255
11
5.1464
21
-3.37325
0
LINE
8
BLACK
6
CONTINUOUS
10
5.1464
20
-3.37325
11
5.1464
21
-3.48978
0
LINE
8
BLACK
6
CONTINUOUS
10
5.1464
20
-3.48978
11
5.14611
21
-3.49048
0
LINE
8
BLACK
6
CONTINUOUS
10
5.14611
20
-3.49048
11
5.14541
21
-3.49077
0
LINE
8
BLACK
6
CONTINUOUS
10
5.14541
20
-3.49077
11
5.08793
21
-3.49077
0
LINE
8
BLACK
6
CONTINUOUS
10
5.08793
20
-3.49077
11
5.08724
21
-3.49048
0
LINE
8
BLACK
6
CONTINUOUS
10
5.08892
20
-3.37423
11
5.08892
21
-3.4888
0
LINE
8
BLACK
6
CONTINUOUS
10
5.08892
20
-3.4888
11
5.14443
21
-3.4888
0
LINE
8
BLACK
6
CONTINUOUS
10
5.14443
20
-3.4888
11
5.14443
21
-3.37423
0
LINE
8
BLACK
6
CONTINUOUS
10
5.14443
20
-3.37423
11
5.08892
21
-3.37423
0
LINE
8
BLACK
6
CONTINUOUS
10
4.31124
20
-3.48448
11
4.31095
21
-3.48378
0
LINE
8
BLACK
6
CONTINUOUS
10
4.31095
20
-3.48378
11
4.31095
21
-3.36725
0
LINE
8
BLACK
6
CONTINUOUS
10
4.31095
20
-3.36725
11
4.31124
21
-3.36655
0
LINE
8
BLACK
6
CONTINUOUS
10
4.31124
20
-3.36655
11
4.31193
21
-3.36626
0
LINE
8
BLACK
6
CONTINUOUS
10
4.31193
20
-3.36626
11
4.36942
21
-3.36626
0
LINE
8
BLACK
6
CONTINUOUS
10
4.36942
20
-3.36626
11
4.37011
21
-3.36655
0
LINE
8
BLACK
6
CONTINUOUS
10
4.37011
20
-3.36655
11
4.3704
21
-3.36725
0
LINE
8
BLACK
6
CONTINUOUS
10
4.3704
20
-3.36725
11
4.3704
21
-3.48378
0
LINE
8
BLACK
6
CONTINUOUS
10
4.3704
20
-3.48378
11
4.37011
21
-3.48448
0
LINE
8
BLACK
6
CONTINUOUS
10
4.37011
20
-3.48448
11
4.36942
21
-3.48477
0
LINE
8
BLACK
6
CONTINUOUS
10
4.36942
20
-3.48477
11
4.31193
21
-3.48477
0
LINE
8
BLACK
6
CONTINUOUS
10
4.31193
20
-3.48477
11
4.31124
21
-3.48448
0
LINE
8
BLACK
6
CONTINUOUS
10
4.31292
20
-3.36823
11
4.31292
21
-3.4828
0
LINE
8
BLACK
6
CONTINUOUS
10
4.31292
20
-3.4828
11
4.36843
21
-3.4828
0
LINE
8
BLACK
6
CONTINUOUS
10
4.36843
20
-3.4828
11
4.36843
21
-3.36823
0
LINE
8
BLACK
6
CONTINUOUS
10
4.36843
20
-3.36823
11
4.31292
21
-3.36823
0
LINE
8
BLACK
6
CONTINUOUS
10
4.80971
20
-3.45895
11
4.80942
21
-3.45826
0
LINE
8
BLACK
6
CONTINUOUS
10
4.80942
20
-3.45826
11
4.80942
21
-3.40078
0
LINE
8
BLACK
6
CONTINUOUS
10
4.80942
20
-3.40078
11
4.80971
21
-3.40008
0
LINE
8
BLACK
6
CONTINUOUS
10
4.80971
20
-3.40008
11
4.81041
21
-3.39979
0
LINE
8
BLACK
6
CONTINUOUS
10
4.81041
20
-3.39979
11
4.92694
21
-3.39979
0
LINE
8
BLACK
6
CONTINUOUS
10
4.92694
20
-3.39979
11
4.92764
21
-3.40008
0
LINE
8
BLACK
6
CONTINUOUS
10
4.92764
20
-3.40008
11
4.92793
21
-3.40078
0
LINE
8
BLACK
6
CONTINUOUS
10
4.92793
20
-3.40078
11
4.92793
21
-3.45826
0
LINE
8
BLACK
6
CONTINUOUS
10
4.92793
20
-3.45826
11
4.92764
21
-3.45895
0
LINE
8
BLACK
6
CONTINUOUS
10
4.92764
20
-3.45895
11
4.92694
21
-3.45924
0
LINE
8
BLACK
6
CONTINUOUS
10
4.92694
20
-3.45924
11
4.81041
21
-3.45924
0
LINE
8
BLACK
6
CONTINUOUS
10
4.81041
20
-3.45924
11
4.80971
21
-3.45895
0
LINE
8
BLACK
6
CONTINUOUS
10
4.81139
20
-3.40176
11
4.81139
21
-3.45727
0
LINE
8
BLACK
6
CONTINUOUS
10
4.81139
20
-3.45727
11
4.92596
21
-3.45727
0
LINE
8
BLACK
6
CONTINUOUS
10
4.92596
20
-3.45727
11
4.92596
21
-3.40176
0
LINE
8
BLACK
6
CONTINUOUS
10
4.92596
20
-3.40176
11
4.81139
21
-3.40176
0
LINE
8
BLACK
6
CONTINUOUS
10
4.66571
20
-3.45895
11
4.66542
21
-3.45826
0
LINE
8
BLACK
6
CONTINUOUS
10
4.66542
20
-3.45826
11
4.66542
21
-3.40078
0
LINE
8
BLACK
6
CONTINUOUS
10
4.66542
20
-3.40078
11
4.66571
21
-3.40008
0
LINE
8
BLACK
6
CONTINUOUS
10
4.66571
20
-3.40008
11
4.66641
21
-3.39979
0
LINE
8
BLACK
6
CONTINUOUS
10
4.66641
20
-3.39979
11
4.78294
21
-3.39979
0
LINE
8
BLACK
6
CONTINUOUS
10
4.78294
20
-3.39979
11
4.78364
21
-3.40008
0
LINE
8
BLACK
6
CONTINUOUS
10
4.78364
20
-3.40008
11
4.78393
21
-3.40078
0
LINE
8
BLACK
6
CONTINUOUS
10
4.78393
20
-3.40078
11
4.78393
21
-3.45826
0
LINE
8
BLACK
6
CONTINUOUS
10
4.78393
20
-3.45826
11
4.78364
21
-3.45895
0
LINE
8
BLACK
6
CONTINUOUS
10
4.78364
20
-3.45895
11
4.78294
21
-3.45924
0
LINE
8
BLACK
6
CONTINUOUS
10
4.78294
20
-3.45924
11
4.66641
21
-3.45924
0
LINE
8
BLACK
6
CONTINUOUS
10
4.66641
20
-3.45924
11
4.66571
21
-3.45895
0
LINE
8
BLACK
6
CONTINUOUS
10
4.66739
20
-3.40176
11
4.66739
21
-3.45727
0
LINE
8
BLACK
6
CONTINUOUS
10
4.66739
20
-3.45727
11
4.78196
21
-3.45727
0
LINE
8
BLACK
6
CONTINUOUS
10
4.78196
20
-3.45727
11
4.78196
21
-3.40176
0
LINE
8
BLACK
6
CONTINUOUS
10
4.78196
20
-3.40176
11
4.66739
21
-3.40176
0
LINE
8
BLACK
6
CONTINUOUS
10
4.94971
20
-3.45895
11
4.94942
21
-3.45826
0
LINE
8
BLACK
6
CONTINUOUS
10
4.94942
20
-3.45826
11
4.94942
21
-3.40078
0
LINE
8
BLACK
6
CONTINUOUS
10
4.94942
20
-3.40078
11
4.94971
21
-3.40008
0
LINE
8
BLACK
6
CONTINUOUS
10
4.94971
20
-3.40008
11
4.95041
21
-3.39979
0
LINE
8
BLACK
6
CONTINUOUS
10
4.95041
20
-3.39979
11
5.06694
21
-3.39979
0
LINE
8
BLACK
6
CONTINUOUS
10
5.06694
20
-3.39979
11
5.06764
21
-3.40008
0
LINE
8
BLACK
6
CONTINUOUS
10
5.06764
20
-3.40008
11
5.06793
21
-3.40078
0
LINE
8
BLACK
6
CONTINUOUS
10
5.06793
20
-3.40078
11
5.06793
21
-3.45826
0
LINE
8
BLACK
6
CONTINUOUS
10
5.06793
20
-3.45826
11
5.06764
21
-3.45895
0
LINE
8
BLACK
6
CONTINUOUS
10
5.06764
20
-3.45895
11
5.06694
21
-3.45924
0
LINE
8
BLACK
6
CONTINUOUS
10
5.06694
20
-3.45924
11
4.95041
21
-3.45924
0
LINE
8
BLACK
6
CONTINUOUS
10
4.95041
20
-3.45924
11
4.94971
21
-3.45895
0
LINE
8
BLACK
6
CONTINUOUS
10
4.95139
20
-3.40176
11
4.95139
21
-3.45727
0
LINE
8
BLACK
6
CONTINUOUS
10
4.95139
20
-3.45727
11
5.06596
21
-3.45727
0
LINE
8
BLACK
6
CONTINUOUS
10
5.06596
20
-3.45727
11
5.06596
21
-3.40176
0
LINE
8
BLACK
6
CONTINUOUS
10
5.06596
20
-3.40176
11
4.95139
21
-3.40176
0
LINE
8
BLACK
6
CONTINUOUS
10
4.45524
20
-3.44699
11
4.45495
21
-3.4463
0
LINE
8
BLACK
6
CONTINUOUS
10
4.45495
20
-3.4463
11
4.45495
21
-3.32976
0
LINE
8
BLACK
6
CONTINUOUS
10
4.45495
20
-3.32976
11
4.45524
21
-3.32906
0
LINE
8
BLACK
6
CONTINUOUS
10
4.45524
20
-3.32906
11
4.45593
21
-3.32878
0
LINE
8
BLACK
6
CONTINUOUS
10
4.45593
20
-3.32878
11
4.51342
21
-3.32878
0
LINE
8
BLACK
6
CONTINUOUS
10
4.51342
20
-3.32878
11
4.51411
21
-3.32906
0
LINE
8
BLACK
6
CONTINUOUS
10
4.51411
20
-3.32906
11
4.5144
21
-3.32976
0
LINE
8
BLACK
6
CONTINUOUS
10
4.5144
20
-3.32976
11
4.5144
21
-3.4463
0
LINE
8
BLACK
6
CONTINUOUS
10
4.5144
20
-3.4463
11
4.51411
21
-3.44699
0
LINE
8
BLACK
6
CONTINUOUS
10
4.51411
20
-3.44699
11
4.51342
21
-3.44728
0
LINE
8
BLACK
6
CONTINUOUS
10
4.51342
20
-3.44728
11
4.45593
21
-3.44728
0
LINE
8
BLACK
6
CONTINUOUS
10
4.45593
20
-3.44728
11
4.45524
21
-3.44699
0
LINE
8
BLACK
6
CONTINUOUS
10
4.45692
20
-3.33075
11
4.45692
21
-3.44531
0
LINE
8
BLACK
6
CONTINUOUS
10
4.45692
20
-3.44531
11
4.51243
21
-3.44531
0
LINE
8
BLACK
6
CONTINUOUS
10
4.51243
20
-3.44531
11
4.51243
21
-3.33075
0
LINE
8
BLACK
6
CONTINUOUS
10
4.51243
20
-3.33075
11
4.45692
21
-3.33075
0
LINE
8
BLACK
6
CONTINUOUS
10
4.37892
20
-3.44073
11
4.37864
21
-3.44004
0
LINE
8
BLACK
6
CONTINUOUS
10
4.37864
20
-3.44004
11
4.37864
21
-3.3235
0
LINE
8
BLACK
6
CONTINUOUS
10
4.37864
20
-3.3235
11
4.37892
21
-3.32281
0
LINE
8
BLACK
6
CONTINUOUS
10
4.37892
20
-3.32281
11
4.37962
21
-3.32252
0
LINE
8
BLACK
6
CONTINUOUS
10
4.37962
20
-3.32252
11
4.4371
21
-3.32252
0
LINE
8
BLACK
6
CONTINUOUS
10
4.4371
20
-3.32252
11
4.4378
21
-3.32281
0
LINE
8
BLACK
6
CONTINUOUS
10
4.4378
20
-3.32281
11
4.43808
21
-3.3235
0
LINE
8
BLACK
6
CONTINUOUS
10
4.43808
20
-3.3235
11
4.43808
21
-3.44004
0
LINE
8
BLACK
6
CONTINUOUS
10
4.43808
20
-3.44004
11
4.4378
21
-3.44073
0
LINE
8
BLACK
6
CONTINUOUS
10
4.4378
20
-3.44073
11
4.4371
21
-3.44102
0
LINE
8
BLACK
6
CONTINUOUS
10
4.4371
20
-3.44102
11
4.37962
21
-3.44102
0
LINE
8
BLACK
6
CONTINUOUS
10
4.37962
20
-3.44102
11
4.37892
21
-3.44073
0
LINE
8
BLACK
6
CONTINUOUS
10
4.3806
20
-3.32449
11
4.3806
21
-3.43905
0
LINE
8
BLACK
6
CONTINUOUS
10
4.3806
20
-3.43905
11
4.43612
21
-3.43905
0
LINE
8
BLACK
6
CONTINUOUS
10
4.43612
20
-3.43905
11
4.43612
21
-3.32449
0
LINE
8
BLACK
6
CONTINUOUS
10
4.43612
20
-3.32449
11
4.3806
21
-3.32449
0
LINE
8
BLACK
6
CONTINUOUS
10
6.88727
20
-4.50514
11
6.88698
21
-4.50445
0
LINE
8
BLACK
6
CONTINUOUS
10
6.88698
20
-4.50445
11
6.88698
21
-4.37059
0
LINE
8
BLACK
6
CONTINUOUS
10
6.88698
20
-4.37059
11
6.88727
21
-4.36989
0
LINE
8
BLACK
6
CONTINUOUS
10
6.88727
20
-4.36989
11
6.88797
21
-4.3696
0
LINE
8
BLACK
6
CONTINUOUS
10
6.88797
20
-4.3696
11
7.04938
21
-4.3696
0
LINE
8
BLACK
6
CONTINUOUS
10
7.04938
20
-4.3696
11
7.05008
21
-4.36989
0
LINE
8
BLACK
6
CONTINUOUS
10
7.05008
20
-4.36989
11
7.05037
21
-4.37059
0
LINE
8
BLACK
6
CONTINUOUS
10
7.05037
20
-4.37059
11
7.05037
21
-4.50445
0
LINE
8
BLACK
6
CONTINUOUS
10
7.05037
20
-4.50445
11
7.05008
21
-4.50514
0
LINE
8
BLACK
6
CONTINUOUS
10
7.05008
20
-4.50514
11
7.04938
21
-4.50543
0
LINE
8
BLACK
6
CONTINUOUS
10
7.04938
20
-4.50543
11
6.88797
21
-4.50543
0
LINE
8
BLACK
6
CONTINUOUS
10
6.88797
20
-4.50543
11
6.88727
21
-4.50514
0
LINE
8
BLACK
6
CONTINUOUS
10
6.88895
20
-4.37157
11
6.88895
21
-4.50346
0
LINE
8
BLACK
6
CONTINUOUS
10
6.88895
20
-4.50346
11
7.0484
21
-4.50346
0
LINE
8
BLACK
6
CONTINUOUS
10
7.0484
20
-4.50346
11
7.0484
21
-4.37157
0
LINE
8
BLACK
6
CONTINUOUS
10
7.0484
20
-4.37157
11
6.88895
21
-4.37157
0
LINE
8
BLACK
6
CONTINUOUS
10
6.62971
20
-4.42695
11
6.62942
21
-4.42626
0
LINE
8
BLACK
6
CONTINUOUS
10
6.62942
20
-4.42626
11
6.62942
21
-4.36878
0
LINE
8
BLACK
6
CONTINUOUS
10
6.62942
20
-4.36878
11
6.62971
21
-4.36808
0
LINE
8
BLACK
6
CONTINUOUS
10
6.62971
20
-4.36808
11
6.63041
21
-4.36779
0
LINE
8
BLACK
6
CONTINUOUS
10
6.63041
20
-4.36779
11
6.74694
21
-4.36779
0
LINE
8
BLACK
6
CONTINUOUS
10
6.74694
20
-4.36779
11
6.74764
21
-4.36808
0
LINE
8
BLACK
6
CONTINUOUS
10
6.74764
20
-4.36808
11
6.74793
21
-4.36878
0
LINE
8
BLACK
6
CONTINUOUS
10
6.74793
20
-4.36878
11
6.74793
21
-4.42626
0
LINE
8
BLACK
6
CONTINUOUS
10
6.74793
20
-4.42626
11
6.74764
21
-4.42695
0
LINE
8
BLACK
6
CONTINUOUS
10
6.74764
20
-4.42695
11
6.74694
21
-4.42724
0
LINE
8
BLACK
6
CONTINUOUS
10
6.74694
20
-4.42724
11
6.63041
21
-4.42724
0
LINE
8
BLACK
6
CONTINUOUS
10
6.63041
20
-4.42724
11
6.62971
21
-4.42695
0
LINE
8
BLACK
6
CONTINUOUS
10
6.63139
20
-4.36976
11
6.63139
21
-4.42527
0
LINE
8
BLACK
6
CONTINUOUS
10
6.63139
20
-4.42527
11
6.74596
21
-4.42527
0
LINE
8
BLACK
6
CONTINUOUS
10
6.74596
20
-4.42527
11
6.74596
21
-4.36976
0
LINE
8
BLACK
6
CONTINUOUS
10
6.74596
20
-4.36976
11
6.63139
21
-4.36976
0
LINE
8
BLACK
6
CONTINUOUS
10
7.22199
20
-4.36963
11
7.22171
21
-4.36893
0
LINE
8
BLACK
6
CONTINUOUS
10
7.22171
20
-4.36893
11
7.22171
21
-4.0461
0
LINE
8
BLACK
6
CONTINUOUS
10
7.22171
20
-4.0461
11
7.22199
21
-4.0454
0
LINE
8
BLACK
6
CONTINUOUS
10
7.22199
20
-4.0454
11
7.22269
21
-4.04512
0
LINE
8
BLACK
6
CONTINUOUS
10
7.22269
20
-4.04512
11
7.47466
21
-4.04512
0
LINE
8
BLACK
6
CONTINUOUS
10
7.47466
20
-4.04512
11
7.47536
21
-4.0454
0
LINE
8
BLACK
6
CONTINUOUS
10
7.47536
20
-4.0454
11
7.47564
21
-4.0461
0
LINE
8
BLACK
6
CONTINUOUS
10
7.47564
20
-4.0461
11
7.47564
21
-4.36893
0
LINE
8
BLACK
6
CONTINUOUS
10
7.47564
20
-4.36893
11
7.47536
21
-4.36963
0
LINE
8
BLACK
6
CONTINUOUS
10
7.47536
20
-4.36963
11
7.47466
21
-4.36992
0
LINE
8
BLACK
6
CONTINUOUS
10
7.47466
20
-4.36992
11
7.22269
21
-4.36992
0
LINE
8
BLACK
6
CONTINUOUS
10
7.22269
20
-4.36992
11
7.22199
21
-4.36963
0
LINE
8
BLACK
6
CONTINUOUS
10
7.22367
20
-4.04708
11
7.22367
21
-4.36795
0
LINE
8
BLACK
6
CONTINUOUS
10
7.22367
20
-4.36795
11
7.47367
21
-4.36795
0
LINE
8
BLACK
6
CONTINUOUS
10
7.47367
20
-4.36795
11
7.47367
21
-4.04708
0
LINE
8
BLACK
6
CONTINUOUS
10
7.47367
20
-4.04708
11
7.22367
21
-4.04708
0
LINE
8
BLACK
6
CONTINUOUS
10
6.97971
20
-4.36695
11
6.97942
21
-4.36626
0
LINE
8
BLACK
6
CONTINUOUS
10
6.97942
20
-4.36626
11
6.97942
21
-4.30878
0
LINE
8
BLACK
6
CONTINUOUS
10
6.97942
20
-4.30878
11
6.97971
21
-4.30808
0
LINE
8
BLACK
6
CONTINUOUS
10
6.97971
20
-4.30808
11
6.98041
21
-4.30779
0
LINE
8
BLACK
6
CONTINUOUS
10
6.98041
20
-4.30779
11
7.09694
21
-4.30779
0
LINE
8
BLACK
6
CONTINUOUS
10
7.09694
20
-4.30779
11
7.09764
21
-4.30808
0
LINE
8
BLACK
6
CONTINUOUS
10
7.09764
20
-4.30808
11
7.09793
21
-4.30878
0
LINE
8
BLACK
6
CONTINUOUS
10
7.09793
20
-4.30878
11
7.09793
21
-4.36626
0
LINE
8
BLACK
6
CONTINUOUS
10
7.09793
20
-4.36626
11
7.09764
21
-4.36695
0
LINE
8
BLACK
6
CONTINUOUS
10
7.09764
20
-4.36695
11
7.09694
21
-4.36724
0
LINE
8
BLACK
6
CONTINUOUS
10
7.09694
20
-4.36724
11
6.98041
21
-4.36724
0
LINE
8
BLACK
6
CONTINUOUS
10
6.98041
20
-4.36724
11
6.97971
21
-4.36695
0
LINE
8
BLACK
6
CONTINUOUS
10
6.98139
20
-4.30976
11
6.98139
21
-4.36527
0
LINE
8
BLACK
6
CONTINUOUS
10
6.98139
20
-4.36527
11
7.09596
21
-4.36527
0
LINE
8
BLACK
6
CONTINUOUS
10
7.09596
20
-4.36527
11
7.09596
21
-4.30976
0
LINE
8
BLACK
6
CONTINUOUS
10
7.09596
20
-4.30976
11
6.98139
21
-4.30976
0
LINE
8
BLACK
6
CONTINUOUS
10
6.55971
20
-4.34695
11
6.55942
21
-4.34626
0
LINE
8
BLACK
6
CONTINUOUS
10
6.55942
20
-4.34626
11
6.55942
21
-4.28878
0
LINE
8
BLACK
6
CONTINUOUS
10
6.55942
20
-4.28878
11
6.55971
21
-4.28808
0
LINE
8
BLACK
6
CONTINUOUS
10
6.55971
20
-4.28808
11
6.56041
21
-4.28779
0
LINE
8
BLACK
6
CONTINUOUS
10
6.56041
20
-4.28779
11
6.67694
21
-4.28779
0
LINE
8
BLACK
6
CONTINUOUS
10
6.67694
20
-4.28779
11
6.67764
21
-4.28808
0
LINE
8
BLACK
6
CONTINUOUS
10
6.67764
20
-4.28808
11
6.67793
21
-4.28878
0
LINE
8
BLACK
6
CONTINUOUS
10
6.67793
20
-4.28878
11
6.67793
21
-4.34626
0
LINE
8
BLACK
6
CONTINUOUS
10
6.67793
20
-4.34626
11
6.67764
21
-4.34695
0
LINE
8
BLACK
6
CONTINUOUS
10
6.67764
20
-4.34695
11
6.67694
21
-4.34724
0
LINE
8
BLACK
6
CONTINUOUS
10
6.67694
20
-4.34724
11
6.56041
21
-4.34724
0
LINE
8
BLACK
6
CONTINUOUS
10
6.56041
20
-4.34724
11
6.55971
21
-4.34695
0
LINE
8
BLACK
6
CONTINUOUS
10
6.56139
20
-4.28976
11
6.56139
21
-4.34527
0
LINE
8
BLACK
6
CONTINUOUS
10
6.56139
20
-4.34527
11
6.67596
21
-4.34527
0
LINE
8
BLACK
6
CONTINUOUS
10
6.67596
20
-4.34527
11
6.67596
21
-4.28976
0
LINE
8
BLACK
6
CONTINUOUS
10
6.67596
20
-4.28976
11
6.56139
21
-4.28976
0
LINE
8
BLACK
6
CONTINUOUS
10
6.72562
20
-4.32057
11
6.72533
21
-4.31988
0
LINE
8
BLACK
6
CONTINUOUS
10
6.72533
20
-4.31988
11
6.72533
21
-4.11515
0
LINE
8
BLACK
6
CONTINUOUS
10
6.72533
20
-4.11515
11
6.72562
21
-4.11446
0
LINE
8
BLACK
6
CONTINUOUS
10
6.72562
20
-4.11446
11
6.72631
21
-4.11417
0
LINE
8
BLACK
6
CONTINUOUS
10
6.72631
20
-4.11417
11
6.93104
21
-4.11417
0
LINE
8
BLACK
6
CONTINUOUS
10
6.93104
20
-4.11417
11
6.93173
21
-4.11446
0
LINE
8
BLACK
6
CONTINUOUS
10
6.93173
20
-4.11446
11
6.93202
21
-4.11515
0
LINE
8
BLACK
6
CONTINUOUS
10
6.93202
20
-4.11515
11
6.93202
21
-4.31988
0
LINE
8
BLACK
6
CONTINUOUS
10
6.93202
20
-4.31988
11
6.93173
21
-4.32057
0
LINE
8
BLACK
6
CONTINUOUS
10
6.93173
20
-4.32057
11
6.93104
21
-4.32086
0
LINE
8
BLACK
6
CONTINUOUS
10
6.93104
20
-4.32086
11
6.72631
21
-4.32086
0
LINE
8
BLACK
6
CONTINUOUS
10
6.72631
20
-4.32086
11
6.72562
21
-4.32057
0
LINE
8
BLACK
6
CONTINUOUS
10
6.7273
20
-4.11614
11
6.7273
21
-4.31889
0
LINE
8
BLACK
6
CONTINUOUS
10
6.7273
20
-4.31889
11
6.93005
21
-4.31889
0
LINE
8
BLACK
6
CONTINUOUS
10
6.93005
20
-4.31889
11
6.93005
21
-4.11614
0
LINE
8
BLACK
6
CONTINUOUS
10
6.93005
20
-4.11614
11
6.7273
21
-4.11614
0
LINE
8
BLACK
6
CONTINUOUS
10
6.97971
20
-4.29695
11
6.97942
21
-4.29626
0
LINE
8
BLACK
6
CONTINUOUS
10
6.97942
20
-4.29626
11
6.97942
21
-4.23878
0
LINE
8
BLACK
6
CONTINUOUS
10
6.97942
20
-4.23878
11
6.97971
21
-4.23808
0
LINE
8
BLACK
6
CONTINUOUS
10
6.97971
20
-4.23808
11
6.98041
21
-4.23779
0
LINE
8
BLACK
6
CONTINUOUS
10
6.98041
20
-4.23779
11
7.09694
21
-4.23779
0
LINE
8
BLACK
6
CONTINUOUS
10
7.09694
20
-4.23779
11
7.09764
21
-4.23808
0
LINE
8
BLACK
6
CONTINUOUS
10
7.09764
20
-4.23808
11
7.09793
21
-4.23878
0
LINE
8
BLACK
6
CONTINUOUS
10
7.09793
20
-4.23878
11
7.09793
21
-4.29626
0
LINE
8
BLACK
6
CONTINUOUS
10
7.09793
20
-4.29626
11
7.09764
21
-4.29695
0
LINE
8
BLACK
6
CONTINUOUS
10
7.09764
20
-4.29695
11
7.09694
21
-4.29724
0
LINE
8
BLACK
6
CONTINUOUS
10
7.09694
20
-4.29724
11
6.98041
21
-4.29724
0
LINE
8
BLACK
6
CONTINUOUS
10
6.98041
20
-4.29724
11
6.97971
21
-4.29695
0
LINE
8
BLACK
6
CONTINUOUS
10
6.98139
20
-4.23976
11
6.98139
21
-4.29527
0
LINE
8
BLACK
6
CONTINUOUS
10
6.98139
20
-4.29527
11
7.09596
21
-4.29527
0
LINE
8
BLACK
6
CONTINUOUS
10
7.09596
20
-4.29527
11
7.09596
21
-4.23976
0
LINE
8
BLACK
6
CONTINUOUS
10
7.09596
20
-4.23976
11
6.98139
21
-4.23976
0
LINE
8
BLACK
6
CONTINUOUS
10
7.14042
20
-4.27743
11
7.14013
21
-4.27673
0
LINE
8
BLACK
6
CONTINUOUS
10
7.14013
20
-4.27673
11
7.14013
21
-4.1783
0
LINE
8
BLACK
6
CONTINUOUS
10
7.14013
20
-4.1783
11
7.14042
21
-4.17761
0
LINE
8
BLACK
6
CONTINUOUS
10
7.14042
20
-4.17761
11
7.14112
21
-4.17732
0
LINE
8
BLACK
6
CONTINUOUS
10
7.14112
20
-4.17732
11
7.19623
21
-4.17732
0
LINE
8
BLACK
6
CONTINUOUS
10
7.19623
20
-4.17732
11
7.19693
21
-4.17761
0
LINE
8
BLACK
6
CONTINUOUS
10
7.19693
20
-4.17761
11
7.19722
21
-4.1783
0
LINE
8
BLACK
6
CONTINUOUS
10
7.19722
20
-4.1783
11
7.19722
21
-4.27673
0
LINE
8
BLACK
6
CONTINUOUS
10
7.19722
20
-4.27673
11
7.19693
21
-4.27743
0
LINE
8
BLACK
6
CONTINUOUS
10
7.19693
20
-4.27743
11
7.19623
21
-4.27771
0
LINE
8
BLACK
6
CONTINUOUS
10
7.19623
20
-4.27771
11
7.14112
21
-4.27771
0
LINE
8
BLACK
6
CONTINUOUS
10
7.14112
20
-4.27771
11
7.14042
21
-4.27743
0
LINE
8
BLACK
6
CONTINUOUS
10
7.1421
20
-4.17929
11
7.1421
21
-4.27575
0
LINE
8
BLACK
6
CONTINUOUS
10
7.1421
20
-4.27575
11
7.19525
21
-4.27575
0
LINE
8
BLACK
6
CONTINUOUS
10
7.19525
20
-4.27575
11
7.19525
21
-4.17929
0
LINE
8
BLACK
6
CONTINUOUS
10
7.19525
20
-4.17929
11
7.1421
21
-4.17929
0
LINE
8
BLACK
6
CONTINUOUS
10
5.94971
20
-4.27695
11
5.94942
21
-4.27626
0
LINE
8
BLACK
6
CONTINUOUS
10
5.94942
20
-4.27626
11
5.94942
21
-4.21878
0
LINE
8
BLACK
6
CONTINUOUS
10
5.94942
20
-4.21878
11
5.94971
21
-4.21808
0
LINE
8
BLACK
6
CONTINUOUS
10
5.94971
20
-4.21808
11
5.95041
21
-4.21779
0
LINE
8
BLACK
6
CONTINUOUS
10
5.95041
20
-4.21779
11
6.06694
21
-4.21779
0
LINE
8
BLACK
6
CONTINUOUS
10
6.06694
20
-4.21779
11
6.06764
21
-4.21808
0
LINE
8
BLACK
6
CONTINUOUS
10
6.06764
20
-4.21808
11
6.06793
21
-4.21878
0
LINE
8
BLACK
6
CONTINUOUS
10
6.06793
20
-4.21878
11
6.06793
21
-4.27626
0
LINE
8
BLACK
6
CONTINUOUS
10
6.06793
20
-4.27626
11
6.06764
21
-4.27695
0
LINE
8
BLACK
6
CONTINUOUS
10
6.06764
20
-4.27695
11
6.06694
21
-4.27724
0
LINE
8
BLACK
6
CONTINUOUS
10
6.06694
20
-4.27724
11
5.95041
21
-4.27724
0
LINE
8
BLACK
6
CONTINUOUS
10
5.95041
20
-4.27724
11
5.94971
21
-4.27695
0
LINE
8
BLACK
6
CONTINUOUS
10
5.95139
20
-4.21976
11
5.95139
21
-4.27527
0
LINE
8
BLACK
6
CONTINUOUS
10
5.95139
20
-4.27527
11
6.06596
21
-4.27527
0
LINE
8
BLACK
6
CONTINUOUS
10
6.06596
20
-4.27527
11
6.06596
21
-4.21976
0
LINE
8
BLACK
6
CONTINUOUS
10
6.06596
20
-4.21976
11
5.95139
21
-4.21976
0
LINE
8
BLACK
6
CONTINUOUS
10
6.62924
20
-4.27597
11
6.62895
21
-4.27527
0
LINE
8
BLACK
6
CONTINUOUS
10
6.62895
20
-4.27527
11
6.62895
21
-4.15874
0
LINE
8
BLACK
6
CONTINUOUS
10
6.62895
20
-4.15874
11
6.62924
21
-4.15804
0
LINE
8
BLACK
6
CONTINUOUS
10
6.62924
20
-4.15804
11
6.62993
21
-4.15775
0
LINE
8
BLACK
6
CONTINUOUS
10
6.62993
20
-4.15775
11
6.68741
21
-4.15775
0
LINE
8
BLACK
6
CONTINUOUS
10
6.68741
20
-4.15775
11
6.68811
21
-4.15804
0
LINE
8
BLACK
6
CONTINUOUS
10
6.68811
20
-4.15804
11
6.6884
21
-4.15874
0
LINE
8
BLACK
6
CONTINUOUS
10
6.6884
20
-4.15874
11
6.6884
21
-4.27527
0
LINE
8
BLACK
6
CONTINUOUS
10
6.6884
20
-4.27527
11
6.68811
21
-4.27597
0
LINE
8
BLACK
6
CONTINUOUS
10
6.68811
20
-4.27597
11
6.68741
21
-4.27626
0
LINE
8
BLACK
6
CONTINUOUS
10
6.68741
20
-4.27626
11
6.62993
21
-4.27626
0
LINE
8
BLACK
6
CONTINUOUS
10
6.62993
20
-4.27626
11
6.62924
21
-4.27597
0
LINE
8
BLACK
6
CONTINUOUS
10
6.63092
20
-4.15972
11
6.63092
21
-4.27429
0
LINE
8
BLACK
6
CONTINUOUS
10
6.63092
20
-4.27429
11
6.68643
21
-4.27429
0
LINE
8
BLACK
6
CONTINUOUS
10
6.68643
20
-4.27429
11
6.68643
21
-4.15972
0
LINE
8
BLACK
6
CONTINUOUS
10
6.68643
20
-4.15972
11
6.63092
21
-4.15972
0
LINE
8
BLACK
6
CONTINUOUS
10
6.12231
20
-4.25451
11
6.12202
21
-4.25382
0
LINE
8
BLACK
6
CONTINUOUS
10
6.12202
20
-4.25382
11
6.12202
21
-4.04122
0
LINE
8
BLACK
6
CONTINUOUS
10
6.12202
20
-4.04122
11
6.12231
21
-4.04052
0
LINE
8
BLACK
6
CONTINUOUS
10
6.12231
20
-4.04052
11
6.12301
21
-4.04023
0
LINE
8
BLACK
6
CONTINUOUS
10
6.12301
20
-4.04023
11
6.41434
21
-4.04023
0
LINE
8
BLACK
6
CONTINUOUS
10
6.41434
20
-4.04023
11
6.41504
21
-4.04052
0
LINE
8
BLACK
6
CONTINUOUS
10
6.41504
20
-4.04052
11
6.41533
21
-4.04122
0
LINE
8
BLACK
6
CONTINUOUS
10
6.41533
20
-4.04122
11
6.41533
21
-4.25382
0
LINE
8
BLACK
6
CONTINUOUS
10
6.41533
20
-4.25382
11
6.41504
21
-4.25451
0
LINE
8
BLACK
6
CONTINUOUS
10
6.41504
20
-4.25451
11
6.41434
21
-4.2548
0
LINE
8
BLACK
6
CONTINUOUS
10
6.41434
20
-4.2548
11
6.12301
21
-4.2548
0
LINE
8
BLACK
6
CONTINUOUS
10
6.12301
20
-4.2548
11
6.12231
21
-4.25451
0
LINE
8
BLACK
6
CONTINUOUS
10
6.12399
20
-4.0422
11
6.12399
21
-4.25283
0
LINE
8
BLACK
6
CONTINUOUS
10
6.12399
20
-4.25283
11
6.41336
21
-4.25283
0
LINE
8
BLACK
6
CONTINUOUS
10
6.41336
20
-4.25283
11
6.41336
21
-4.0422
0
LINE
8
BLACK
6
CONTINUOUS
10
6.41336
20
-4.0422
11
6.12399
21
-4.0422
0
LINE
8
BLACK
6
CONTINUOUS
10
6.97924
20
-4.22648
11
6.97895
21
-4.22578
0
LINE
8
BLACK
6
CONTINUOUS
10
6.97895
20
-4.22578
11
6.97895
21
-4.10925
0
LINE
8
BLACK
6
CONTINUOUS
10
6.97895
20
-4.10925
11
6.97924
21
-4.10855
0
LINE
8
BLACK
6
CONTINUOUS
10
6.97924
20
-4.10855
11
6.97993
21
-4.10826
0
LINE
8
BLACK
6
CONTINUOUS
10
6.97993
20
-4.10826
11
7.03742
21
-4.10826
0
LINE
8
BLACK
6
CONTINUOUS
10
7.03742
20
-4.10826
11
7.03811
21
-4.10855
0
LINE
8
BLACK
6
CONTINUOUS
10
7.03811
20
-4.10855
11
7.0384
21
-4.10925
0
LINE
8
BLACK
6
CONTINUOUS
10
7.0384
20
-4.10925
11
7.0384
21
-4.22578
0
LINE
8
BLACK
6
CONTINUOUS
10
7.0384
20
-4.22578
11
7.03811
21
-4.22648
0
LINE
8
BLACK
6
CONTINUOUS
10
7.03811
20
-4.22648
11
7.03742
21
-4.22677
0
LINE
8
BLACK
6
CONTINUOUS
10
7.03742
20
-4.22677
11
6.97993
21
-4.22677
0
LINE
8
BLACK
6
CONTINUOUS
10
6.97993
20
-4.22677
11
6.97924
21
-4.22648
0
LINE
8
BLACK
6
CONTINUOUS
10
6.98092
20
-4.11023
11
6.98092
21
-4.2248
0
LINE
8
BLACK
6
CONTINUOUS
10
6.98092
20
-4.2248
11
7.03643
21
-4.2248
0
LINE
8
BLACK
6
CONTINUOUS
10
7.03643
20
-4.2248
11
7.03643
21
-4.11023
0
LINE
8
BLACK
6
CONTINUOUS
10
7.03643
20
-4.11023
11
6.98092
21
-4.11023
0
LINE
8
BLACK
6
CONTINUOUS
10
5.94971
20
-4.20695
11
5.94942
21
-4.20626
0
LINE
8
BLACK
6
CONTINUOUS
10
5.94942
20
-4.20626
11
5.94942
21
-4.14878
0
LINE
8
BLACK
6
CONTINUOUS
10
5.94942
20
-4.14878
11
5.94971
21
-4.14808
0
LINE
8
BLACK
6
CONTINUOUS
10
5.94971
20
-4.14808
11
5.95041
21
-4.14779
0
LINE
8
BLACK
6
CONTINUOUS
10
5.95041
20
-4.14779
11
6.06694
21
-4.14779
0
LINE
8
BLACK
6
CONTINUOUS
10
6.06694
20
-4.14779
11
6.06764
21
-4.14808
0
LINE
8
BLACK
6
CONTINUOUS
10
6.06764
20
-4.14808
11
6.06793
21
-4.14878
0
LINE
8
BLACK
6
CONTINUOUS
10
6.06793
20
-4.14878
11
6.06793
21
-4.20626
0
LINE
8
BLACK
6
CONTINUOUS
10
6.06793
20
-4.20626
11
6.06764
21
-4.20695
0
LINE
8
BLACK
6
CONTINUOUS
10
6.06764
20
-4.20695
11
6.06694
21
-4.20724
0
LINE
8
BLACK
6
CONTINUOUS
10
6.06694
20
-4.20724
11
5.95041
21
-4.20724
0
LINE
8
BLACK
6
CONTINUOUS
10
5.95041
20
-4.20724
11
5.94971
21
-4.20695
0
LINE
8
BLACK
6
CONTINUOUS
10
5.95139
20
-4.14976
11
5.95139
21
-4.20527
0
LINE
8
BLACK
6
CONTINUOUS
10
5.95139
20
-4.20527
11
6.06596
21
-4.20527
0
LINE
8
BLACK
6
CONTINUOUS
10
6.06596
20
-4.20527
11
6.06596
21
-4.14976
0
LINE
8
BLACK
6
CONTINUOUS
10
6.06596
20
-4.14976
11
5.95139
21
-4.14976
0
LINE
8
BLACK
6
CONTINUOUS
10
6.44924
20
-4.13648
11
6.44895
21
-4.13578
0
LINE
8
BLACK
6
CONTINUOUS
10
6.44895
20
-4.13578
11
6.44895
21
-4.01925
0
LINE
8
BLACK
6
CONTINUOUS
10
6.44895
20
-4.01925
11
6.44924
21
-4.01855
0
LINE
8
BLACK
6
CONTINUOUS
10
6.44924
20
-4.01855
11
6.44993
21
-4.01826
0
LINE
8
BLACK
6
CONTINUOUS
10
6.44993
20
-4.01826
11
6.50741
21
-4.01826
0
LINE
8
BLACK
6
CONTINUOUS
10
6.50741
20
-4.01826
11
6.50811
21
-4.01855
0
LINE
8
BLACK
6
CONTINUOUS
10
6.50811
20
-4.01855
11
6.5084
21
-4.01925
0
LINE
8
BLACK
6
CONTINUOUS
10
6.5084
20
-4.01925
11
6.5084
21
-4.13578
0
LINE
8
BLACK
6
CONTINUOUS
10
6.5084
20
-4.13578
11
6.50811
21
-4.13648
0
LINE
8
BLACK
6
CONTINUOUS
10
6.50811
20
-4.13648
11
6.50741
21
-4.13677
0
LINE
8
BLACK
6
CONTINUOUS
10
6.50741
20
-4.13677
11
6.44993
21
-4.13677
0
LINE
8
BLACK
6
CONTINUOUS
10
6.44993
20
-4.13677
11
6.44924
21
-4.13648
0
LINE
8
BLACK
6
CONTINUOUS
10
6.45092
20
-4.02023
11
6.45092
21
-4.1348
0
LINE
8
BLACK
6
CONTINUOUS
10
6.45092
20
-4.1348
11
6.50643
21
-4.1348
0
LINE
8
BLACK
6
CONTINUOUS
10
6.50643
20
-4.1348
11
6.50643
21
-4.02023
0
LINE
8
BLACK
6
CONTINUOUS
10
6.50643
20
-4.02023
11
6.45092
21
-4.02023
0
LINE
8
BLACK
6
CONTINUOUS
10
7.06302
20
-4.11743
11
7.06273
21
-4.11673
0
LINE
8
BLACK
6
CONTINUOUS
10
7.06273
20
-4.11673
11
7.06273
21
-4.0183
0
LINE
8
BLACK
6
CONTINUOUS
10
7.06273
20
-4.0183
11
7.06302
21
-4.01761
0
LINE
8
BLACK
6
CONTINUOUS
10
7.06302
20
-4.01761
11
7.06371
21
-4.01732
0
LINE
8
BLACK
6
CONTINUOUS
10
7.06371
20
-4.01732
11
7.19364
21
-4.01732
0
LINE
8
BLACK
6
CONTINUOUS
10
7.19364
20
-4.01732
11
7.19433
21
-4.01761
0
LINE
8
BLACK
6
CONTINUOUS
10
7.19433
20
-4.01761
11
7.19462
21
-4.0183
0
LINE
8
BLACK
6
CONTINUOUS
10
7.19462
20
-4.0183
11
7.19462
21
-4.11673
0
LINE
8
BLACK
6
CONTINUOUS
10
7.19462
20
-4.11673
11
7.19433
21
-4.11743
0
LINE
8
BLACK
6
CONTINUOUS
10
7.19433
20
-4.11743
11
7.19364
21
-4.11771
0
LINE
8
BLACK
6
CONTINUOUS
10
7.19364
20
-4.11771
11
7.06371
21
-4.11771
0
LINE
8
BLACK
6
CONTINUOUS
10
7.06371
20
-4.11771
11
7.06302
21
-4.11743
0
LINE
8
BLACK
6
CONTINUOUS
10
7.0647
20
-4.01929
11
7.0647
21
-4.11575
0
LINE
8
BLACK
6
CONTINUOUS
10
7.0647
20
-4.11575
11
7.19265
21
-4.11575
0
LINE
8
BLACK
6
CONTINUOUS
10
7.19265
20
-4.11575
11
7.19265
21
-4.01929
0
LINE
8
BLACK
6
CONTINUOUS
10
7.19265
20
-4.01929
11
7.0647
21
-4.01929
0
LINE
8
BLACK
6
CONTINUOUS
10
6.93971
20
-4.09695
11
6.93942
21
-4.09626
0
LINE
8
BLACK
6
CONTINUOUS
10
6.93942
20
-4.09626
11
6.93942
21
-4.03878
0
LINE
8
BLACK
6
CONTINUOUS
10
6.93942
20
-4.03878
11
6.93971
21
-4.03808
0
LINE
8
BLACK
6
CONTINUOUS
10
6.93971
20
-4.03808
11
6.94041
21
-4.03779
0
LINE
8
BLACK
6
CONTINUOUS
10
6.94041
20
-4.03779
11
7.05694
21
-4.03779
0
LINE
8
BLACK
6
CONTINUOUS
10
7.05694
20
-4.03779
11
7.05764
21
-4.03808
0
LINE
8
BLACK
6
CONTINUOUS
10
7.05764
20
-4.03808
11
7.05793
21
-4.03878
0
LINE
8
BLACK
6
CONTINUOUS
10
7.05793
20
-4.03878
11
7.05793
21
-4.09626
0
LINE
8
BLACK
6
CONTINUOUS
10
7.05793
20
-4.09626
11
7.05764
21
-4.09695
0
LINE
8
BLACK
6
CONTINUOUS
10
7.05764
20
-4.09695
11
7.05694
21
-4.09724
0
LINE
8
BLACK
6
CONTINUOUS
10
7.05694
20
-4.09724
11
6.94041
21
-4.09724
0
LINE
8
BLACK
6
CONTINUOUS
10
6.94041
20
-4.09724
11
6.93971
21
-4.09695
0
LINE
8
BLACK
6
CONTINUOUS
10
6.94139
20
-4.03976
11
6.94139
21
-4.09527
0
LINE
8
BLACK
6
CONTINUOUS
10
6.94139
20
-4.09527
11
7.05596
21
-4.09527
0
LINE
8
BLACK
6
CONTINUOUS
10
7.05596
20
-4.09527
11
7.05596
21
-4.03976
0
LINE
8
BLACK
6
CONTINUOUS
10
7.05596
20
-4.03976
11
6.94139
21
-4.03976
0
LINE
8
BLACK
6
CONTINUOUS
10
6.54727
20
-4.08514
11
6.54698
21
-4.08445
0
LINE
8
BLACK
6
CONTINUOUS
10
6.54698
20
-4.08445
11
6.54698
21
-3.95059
0
LINE
8
BLACK
6
CONTINUOUS
10
6.54698
20
-3.95059
11
6.54727
21
-3.94989
0
LINE
8
BLACK
6
CONTINUOUS
10
6.54727
20
-3.94989
11
6.54797
21
-3.9496
0
LINE
8
BLACK
6
CONTINUOUS
10
6.54797
20
-3.9496
11
6.70938
21
-3.9496
0
LINE
8
BLACK
6
CONTINUOUS
10
6.70938
20
-3.9496
11
6.71008
21
-3.94989
0
LINE
8
BLACK
6
CONTINUOUS
10
6.71008
20
-3.94989
11
6.71037
21
-3.95059
0
LINE
8
BLACK
6
CONTINUOUS
10
6.71037
20
-3.95059
11
6.71037
21
-4.08445
0
LINE
8
BLACK
6
CONTINUOUS
10
6.71037
20
-4.08445
11
6.71008
21
-4.08514
0
LINE
8
BLACK
6
CONTINUOUS
10
6.71008
20
-4.08514
11
6.70938
21
-4.08543
0
LINE
8
BLACK
6
CONTINUOUS
10
6.70938
20
-4.08543
11
6.54797
21
-4.08543
0
LINE
8
BLACK
6
CONTINUOUS
10
6.54797
20
-4.08543
11
6.54727
21
-4.08514
0
LINE
8
BLACK
6
CONTINUOUS
10
6.54895
20
-3.95157
11
6.54895
21
-4.08346
0
LINE
8
BLACK
6
CONTINUOUS
10
6.54895
20
-4.08346
11
6.7084
21
-4.08346
0
LINE
8
BLACK
6
CONTINUOUS
10
6.7084
20
-4.08346
11
6.7084
21
-3.95157
0
LINE
8
BLACK
6
CONTINUOUS
10
6.7084
20
-3.95157
11
6.54895
21
-3.95157
0
LINE
8
BLACK
6
CONTINUOUS
10
6.72924
20
-4.06648
11
6.72895
21
-4.06578
0
LINE
8
BLACK
6
CONTINUOUS
10
6.72895
20
-4.06578
11
6.72895
21
-3.94925
0
LINE
8
BLACK
6
CONTINUOUS
10
6.72895
20
-3.94925
11
6.72924
21
-3.94855
0
LINE
8
BLACK
6
CONTINUOUS
10
6.72924
20
-3.94855
11
6.72993
21
-3.94826
0
LINE
8
BLACK
6
CONTINUOUS
10
6.72993
20
-3.94826
11
6.78742
21
-3.94826
0
LINE
8
BLACK
6
CONTINUOUS
10
6.78742
20
-3.94826
11
6.78811
21
-3.94855
0
LINE
8
BLACK
6
CONTINUOUS
10
6.78811
20
-3.94855
11
6.7884
21
-3.94925
0
LINE
8
BLACK
6
CONTINUOUS
10
6.7884
20
-3.94925
11
6.7884
21
-4.06578
0
LINE
8
BLACK
6
CONTINUOUS
10
6.7884
20
-4.06578
11
6.78811
21
-4.06648
0
LINE
8
BLACK
6
CONTINUOUS
10
6.78811
20
-4.06648
11
6.78742
21
-4.06677
0
LINE
8
BLACK
6
CONTINUOUS
10
6.78742
20
-4.06677
11
6.72993
21
-4.06677
0
LINE
8
BLACK
6
CONTINUOUS
10
6.72993
20
-4.06677
11
6.72924
21
-4.06648
0
LINE
8
BLACK
6
CONTINUOUS
10
6.73092
20
-3.95023
11
6.73092
21
-4.0648
0
LINE
8
BLACK
6
CONTINUOUS
10
6.73092
20
-4.0648
11
6.78643
21
-4.0648
0
LINE
8
BLACK
6
CONTINUOUS
10
6.78643
20
-4.0648
11
6.78643
21
-3.95023
0
LINE
8
BLACK
6
CONTINUOUS
10
6.78643
20
-3.95023
11
6.73092
21
-3.95023
0
LINE
8
BLACK
6
CONTINUOUS
10
6.81924
20
-4.06648
11
6.81895
21
-4.06578
0
LINE
8
BLACK
6
CONTINUOUS
10
6.81895
20
-4.06578
11
6.81895
21
-3.94925
0
LINE
8
BLACK
6
CONTINUOUS
10
6.81895
20
-3.94925
11
6.81924
21
-3.94855
0
LINE
8
BLACK
6
CONTINUOUS
10
6.81924
20
-3.94855
11
6.81993
21
-3.94826
0
LINE
8
BLACK
6
CONTINUOUS
10
6.81993
20
-3.94826
11
6.87742
21
-3.94826
0
LINE
8
BLACK
6
CONTINUOUS
10
6.87742
20
-3.94826
11
6.87811
21
-3.94855
0
LINE
8
BLACK
6
CONTINUOUS
10
6.87811
20
-3.94855
11
6.8784
21
-3.94925
0
LINE
8
BLACK
6
CONTINUOUS
10
6.8784
20
-3.94925
11
6.8784
21
-4.06578
0
LINE
8
BLACK
6
CONTINUOUS
10
6.8784
20
-4.06578
11
6.87811
21
-4.06648
0
LINE
8
BLACK
6
CONTINUOUS
10
6.87811
20
-4.06648
11
6.87742
21
-4.06677
0
LINE
8
BLACK
6
CONTINUOUS
10
6.87742
20
-4.06677
11
6.81993
21
-4.06677
0
LINE
8
BLACK
6
CONTINUOUS
10
6.81993
20
-4.06677
11
6.81924
21
-4.06648
0
LINE
8
BLACK
6
CONTINUOUS
10
6.82092
20
-3.95023
11
6.82092
21
-4.0648
0
LINE
8
BLACK
6
CONTINUOUS
10
6.82092
20
-4.0648
11
6.87643
21
-4.0648
0
LINE
8
BLACK
6
CONTINUOUS
10
6.87643
20
-4.0648
11
6.87643
21
-3.95023
0
LINE
8
BLACK
6
CONTINUOUS
10
6.87643
20
-3.95023
11
6.82092
21
-3.95023
0
LINE
8
BLACK
6
CONTINUOUS
10
7.22199
20
-4.02365
11
7.22171
21
-4.02295
0
LINE
8
BLACK
6
CONTINUOUS
10
7.22171
20
-4.02295
11
7.22171
21
-3.55208
0
LINE
8
BLACK
6
CONTINUOUS
10
7.22171
20
-3.55208
11
7.22199
21
-3.55139
0
LINE
8
BLACK
6
CONTINUOUS
10
7.22199
20
-3.55139
11
7.22269
21
-3.5511
0
LINE
8
BLACK
6
CONTINUOUS
10
7.22269
20
-3.5511
11
7.47466
21
-3.5511
0
LINE
8
BLACK
6
CONTINUOUS
10
7.47466
20
-3.5511
11
7.47536
21
-3.55139
0
LINE
8
BLACK
6
CONTINUOUS
10
7.47536
20
-3.55139
11
7.47564
21
-3.55208
0
LINE
8
BLACK
6
CONTINUOUS
10
7.47564
20
-3.55208
11
7.47564
21
-4.02295
0
LINE
8
BLACK
6
CONTINUOUS
10
7.47564
20
-4.02295
11
7.47536
21
-4.02365
0
LINE
8
BLACK
6
CONTINUOUS
10
7.47536
20
-4.02365
11
7.47466
21
-4.02393
0
LINE
8
BLACK
6
CONTINUOUS
10
7.47466
20
-4.02393
11
7.22269
21
-4.02393
0
LINE
8
BLACK
6
CONTINUOUS
10
7.22269
20
-4.02393
11
7.22199
21
-4.02365
0
LINE
8
BLACK
6
CONTINUOUS
10
7.22367
20
-3.55307
11
7.22367
21
-4.02197
0
LINE
8
BLACK
6
CONTINUOUS
10
7.22367
20
-4.02197
11
7.47367
21
-4.02197
0
LINE
8
BLACK
6
CONTINUOUS
10
7.47367
20
-4.02197
11
7.47367
21
-3.55307
0
LINE
8
BLACK
6
CONTINUOUS
10
7.47367
20
-3.55307
11
7.22367
21
-3.55307
0
LINE
8
BLACK
6
CONTINUOUS
10
6.13971
20
-4.01695
11
6.13942
21
-4.01626
0
LINE
8
BLACK
6
CONTINUOUS
10
6.13942
20
-4.01626
11
6.13942
21
-3.95878
0
LINE
8
BLACK
6
CONTINUOUS
10
6.13942
20
-3.95878
11
6.13971
21
-3.95808
0
LINE
8
BLACK
6
CONTINUOUS
10
6.13971
20
-3.95808
11
6.14041
21
-3.95779
0
LINE
8
BLACK
6
CONTINUOUS
10
6.14041
20
-3.95779
11
6.25694
21
-3.95779
0
LINE
8
BLACK
6
CONTINUOUS
10
6.25694
20
-3.95779
11
6.25764
21
-3.95808
0
LINE
8
BLACK
6
CONTINUOUS
10
6.25764
20
-3.95808
11
6.25793
21
-3.95878
0
LINE
8
BLACK
6
CONTINUOUS
10
6.25793
20
-3.95878
11
6.25793
21
-4.01626
0
LINE
8
BLACK
6
CONTINUOUS
10
6.25793
20
-4.01626
11
6.25764
21
-4.01695
0
LINE
8
BLACK
6
CONTINUOUS
10
6.25764
20
-4.01695
11
6.25694
21
-4.01724
0
LINE
8
BLACK
6
CONTINUOUS
10
6.25694
20
-4.01724
11
6.14041
21
-4.01724
0
LINE
8
BLACK
6
CONTINUOUS
10
6.14041
20
-4.01724
11
6.13971
21
-4.01695
0
LINE
8
BLACK
6
CONTINUOUS
10
6.14139
20
-3.95976
11
6.14139
21
-4.01527
0
LINE
8
BLACK
6
CONTINUOUS
10
6.14139
20
-4.01527
11
6.25596
21
-4.01527
0
LINE
8
BLACK
6
CONTINUOUS
10
6.25596
20
-4.01527
11
6.25596
21
-3.95976
0
LINE
8
BLACK
6
CONTINUOUS
10
6.25596
20
-3.95976
11
6.14139
21
-3.95976
0
LINE
8
BLACK
6
CONTINUOUS
10
6.36971
20
-3.99695
11
6.36942
21
-3.99626
0
LINE
8
BLACK
6
CONTINUOUS
10
6.36942
20
-3.99626
11
6.36942
21
-3.93878
0
LINE
8
BLACK
6
CONTINUOUS
10
6.36942
20
-3.93878
11
6.36971
21
-3.93808
0
LINE
8
BLACK
6
CONTINUOUS
10
6.36971
20
-3.93808
11
6.37041
21
-3.93779
0
LINE
8
BLACK
6
CONTINUOUS
10
6.37041
20
-3.93779
11
6.48694
21
-3.93779
0
LINE
8
BLACK
6
CONTINUOUS
10
6.48694
20
-3.93779
11
6.48764
21
-3.93808
0
LINE
8
BLACK
6
CONTINUOUS
10
6.48764
20
-3.93808
11
6.48793
21
-3.93878
0
LINE
8
BLACK
6
CONTINUOUS
10
6.48793
20
-3.93878
11
6.48793
21
-3.99626
0
LINE
8
BLACK
6
CONTINUOUS
10
6.48793
20
-3.99626
11
6.48764
21
-3.99695
0
LINE
8
BLACK
6
CONTINUOUS
10
6.48764
20
-3.99695
11
6.48694
21
-3.99724
0
LINE
8
BLACK
6
CONTINUOUS
10
6.48694
20
-3.99724
11
6.37041
21
-3.99724
0
LINE
8
BLACK
6
CONTINUOUS
10
6.37041
20
-3.99724
11
6.36971
21
-3.99695
0
LINE
8
BLACK
6
CONTINUOUS
10
6.37139
20
-3.93976
11
6.37139
21
-3.99527
0
LINE
8
BLACK
6
CONTINUOUS
10
6.37139
20
-3.99527
11
6.48596
21
-3.99527
0
LINE
8
BLACK
6
CONTINUOUS
10
6.48596
20
-3.99527
11
6.48596
21
-3.93976
0
LINE
8
BLACK
6
CONTINUOUS
10
6.48596
20
-3.93976
11
6.37139
21
-3.93976
0
LINE
8
BLACK
6
CONTINUOUS
10
7.04971
20
-3.98695
11
7.04942
21
-3.98626
0
LINE
8
BLACK
6
CONTINUOUS
10
7.04942
20
-3.98626
11
7.04942
21
-3.92878
0
LINE
8
BLACK
6
CONTINUOUS
10
7.04942
20
-3.92878
11
7.04971
21
-3.92808
0
LINE
8
BLACK
6
CONTINUOUS
10
7.04971
20
-3.92808
11
7.05041
21
-3.92779
0
LINE
8
BLACK
6
CONTINUOUS
10
7.05041
20
-3.92779
11
7.16694
21
-3.92779
0
LINE
8
BLACK
6
CONTINUOUS
10
7.16694
20
-3.92779
11
7.16764
21
-3.92808
0
LINE
8
BLACK
6
CONTINUOUS
10
7.16764
20
-3.92808
11
7.16793
21
-3.92878
0
LINE
8
BLACK
6
CONTINUOUS
10
7.16793
20
-3.92878
11
7.16793
21
-3.98626
0
LINE
8
BLACK
6
CONTINUOUS
10
7.16793
20
-3.98626
11
7.16764
21
-3.98695
0
LINE
8
BLACK
6
CONTINUOUS
10
7.16764
20
-3.98695
11
7.16694
21
-3.98724
0
LINE
8
BLACK
6
CONTINUOUS
10
7.16694
20
-3.98724
11
7.05041
21
-3.98724
0
LINE
8
BLACK
6
CONTINUOUS
10
7.05041
20
-3.98724
11
7.04971
21
-3.98695
0
LINE
8
BLACK
6
CONTINUOUS
10
7.05139
20
-3.92976
11
7.05139
21
-3.98527
0
LINE
8
BLACK
6
CONTINUOUS
10
7.05139
20
-3.98527
11
7.16596
21
-3.98527
0
LINE
8
BLACK
6
CONTINUOUS
10
7.16596
20
-3.98527
11
7.16596
21
-3.92976
0
LINE
8
BLACK
6
CONTINUOUS
10
7.16596
20
-3.92976
11
7.05139
21
-3.92976
0
LINE
8
BLACK
6
CONTINUOUS
10
5.89058
20
-3.98105
11
5.89029
21
-3.98035
0
LINE
8
BLACK
6
CONTINUOUS
10
5.89029
20
-3.98035
11
5.89029
21
-3.83468
0
LINE
8
BLACK
6
CONTINUOUS
10
5.89029
20
-3.83468
11
5.89058
21
-3.83399
0
LINE
8
BLACK
6
CONTINUOUS
10
5.89058
20
-3.83399
11
5.89127
21
-3.8337
0
LINE
8
BLACK
6
CONTINUOUS
10
5.89127
20
-3.8337
11
5.96608
21
-3.8337
0
LINE
8
BLACK
6
CONTINUOUS
10
5.96608
20
-3.8337
11
5.96677
21
-3.83399
0
LINE
8
BLACK
6
CONTINUOUS
10
5.96677
20
-3.83399
11
5.96706
21
-3.83468
0
LINE
8
BLACK
6
CONTINUOUS
10
5.96706
20
-3.83468
11
5.96706
21
-3.98035
0
LINE
8
BLACK
6
CONTINUOUS
10
5.96706
20
-3.98035
11
5.96677
21
-3.98105
0
LINE
8
BLACK
6
CONTINUOUS
10
5.96677
20
-3.98105
11
5.96608
21
-3.98134
0
LINE
8
BLACK
6
CONTINUOUS
10
5.96608
20
-3.98134
11
5.89127
21
-3.98134
0
LINE
8
BLACK
6
CONTINUOUS
10
5.89127
20
-3.98134
11
5.89058
21
-3.98105
0
LINE
8
BLACK
6
CONTINUOUS
10
5.89226
20
-3.83567
11
5.89226
21
-3.97937
0
LINE
8
BLACK
6
CONTINUOUS
10
5.89226
20
-3.97937
11
5.96509
21
-3.97937
0
LINE
8
BLACK
6
CONTINUOUS
10
5.96509
20
-3.97937
11
5.96509
21
-3.83567
0
LINE
8
BLACK
6
CONTINUOUS
10
5.96509
20
-3.83567
11
5.89226
21
-3.83567
0
LINE
8
BLACK
6
CONTINUOUS
10
7.04971
20
-3.91695
11
7.04942
21
-3.91626
0
LINE
8
BLACK
6
CONTINUOUS
10
7.04942
20
-3.91626
11
7.04942
21
-3.85878
0
LINE
8
BLACK
6
CONTINUOUS
10
7.04942
20
-3.85878
11
7.04971
21
-3.85808
0
LINE
8
BLACK
6
CONTINUOUS
10
7.04971
20
-3.85808
11
7.05041
21
-3.85779
0
LINE
8
BLACK
6
CONTINUOUS
10
7.05041
20
-3.85779
11
7.16694
21
-3.85779
0
LINE
8
BLACK
6
CONTINUOUS
10
7.16694
20
-3.85779
11
7.16764
21
-3.85808
0
LINE
8
BLACK
6
CONTINUOUS
10
7.16764
20
-3.85808
11
7.16793
21
-3.85878
0
LINE
8
BLACK
6
CONTINUOUS
10
7.16793
20
-3.85878
11
7.16793
21
-3.91626
0
LINE
8
BLACK
6
CONTINUOUS
10
7.16793
20
-3.91626
11
7.16764
21
-3.91695
0
LINE
8
BLACK
6
CONTINUOUS
10
7.16764
20
-3.91695
11
7.16694
21
-3.91724
0
LINE
8
BLACK
6
CONTINUOUS
10
7.16694
20
-3.91724
11
7.05041
21
-3.91724
0
LINE
8
BLACK
6
CONTINUOUS
10
7.05041
20
-3.91724
11
7.04971
21
-3.91695
0
LINE
8
BLACK
6
CONTINUOUS
10
7.05139
20
-3.85976
11
7.05139
21
-3.91527
0
LINE
8
BLACK
6
CONTINUOUS
10
7.05139
20
-3.91527
11
7.16596
21
-3.91527
0
LINE
8
BLACK
6
CONTINUOUS
10
7.16596
20
-3.91527
11
7.16596
21
-3.85976
0
LINE
8
BLACK
6
CONTINUOUS
10
7.16596
20
-3.85976
11
7.05139
21
-3.85976
0
LINE
8
BLACK
6
CONTINUOUS
10
6.03924
20
-3.90648
11
6.03895
21
-3.90578
0
LINE
8
BLACK
6
CONTINUOUS
10
6.03895
20
-3.90578
11
6.03895
21
-3.78925
0
LINE
8
BLACK
6
CONTINUOUS
10
6.03895
20
-3.78925
11
6.03924
21
-3.78855
0
LINE
8
BLACK
6
CONTINUOUS
10
6.03924
20
-3.78855
11
6.03993
21
-3.78826
0
LINE
8
BLACK
6
CONTINUOUS
10
6.03993
20
-3.78826
11
6.09741
21
-3.78826
0
LINE
8
BLACK
6
CONTINUOUS
10
6.09741
20
-3.78826
11
6.09811
21
-3.78855
0
LINE
8
BLACK
6
CONTINUOUS
10
6.09811
20
-3.78855
11
6.0984
21
-3.78925
0
LINE
8
BLACK
6
CONTINUOUS
10
6.0984
20
-3.78925
11
6.0984
21
-3.90578
0
LINE
8
BLACK
6
CONTINUOUS
10
6.0984
20
-3.90578
11
6.09811
21
-3.90648
0
LINE
8
BLACK
6
CONTINUOUS
10
6.09811
20
-3.90648
11
6.09741
21
-3.90677
0
LINE
8
BLACK
6
CONTINUOUS
10
6.09741
20
-3.90677
11
6.03993
21
-3.90677
0
LINE
8
BLACK
6
CONTINUOUS
10
6.03993
20
-3.90677
11
6.03924
21
-3.90648
0
LINE
8
BLACK
6
CONTINUOUS
10
6.04092
20
-3.79023
11
6.04092
21
-3.9048
0
LINE
8
BLACK
6
CONTINUOUS
10
6.04092
20
-3.9048
11
6.09643
21
-3.9048
0
LINE
8
BLACK
6
CONTINUOUS
10
6.09643
20
-3.9048
11
6.09643
21
-3.79023
0
LINE
8
BLACK
6
CONTINUOUS
10
6.09643
20
-3.79023
11
6.04092
21
-3.79023
0
LINE
8
BLACK
6
CONTINUOUS
10
6.93924
20
-3.89648
11
6.93895
21
-3.89578
0
LINE
8
BLACK
6
CONTINUOUS
10
6.93895
20
-3.89578
11
6.93895
21
-3.77925
0
LINE
8
BLACK
6
CONTINUOUS
10
6.93895
20
-3.77925
11
6.93924
21
-3.77855
0
LINE
8
BLACK
6
CONTINUOUS
10
6.93924
20
-3.77855
11
6.93993
21
-3.77826
0
LINE
8
BLACK
6
CONTINUOUS
10
6.93993
20
-3.77826
11
6.99742
21
-3.77826
0
LINE
8
BLACK
6
CONTINUOUS
10
6.99742
20
-3.77826
11
6.99811
21
-3.77855
0
LINE
8
BLACK
6
CONTINUOUS
10
6.99811
20
-3.77855
11
6.9984
21
-3.77925
0
LINE
8
BLACK
6
CONTINUOUS
10
6.9984
20
-3.77925
11
6.9984
21
-3.89578
0
LINE
8
BLACK
6
CONTINUOUS
10
6.9984
20
-3.89578
11
6.99811
21
-3.89648
0
LINE
8
BLACK
6
CONTINUOUS
10
6.99811
20
-3.89648
11
6.99742
21
-3.89677
0
LINE
8
BLACK
6
CONTINUOUS
10
6.99742
20
-3.89677
11
6.93993
21
-3.89677
0
LINE
8
BLACK
6
CONTINUOUS
10
6.93993
20
-3.89677
11
6.93924
21
-3.89648
0
LINE
8
BLACK
6
CONTINUOUS
10
6.94092
20
-3.78023
11
6.94092
21
-3.8948
0
LINE
8
BLACK
6
CONTINUOUS
10
6.94092
20
-3.8948
11
6.99643
21
-3.8948
0
LINE
8
BLACK
6
CONTINUOUS
10
6.99643
20
-3.8948
11
6.99643
21
-3.78023
0
LINE
8
BLACK
6
CONTINUOUS
10
6.99643
20
-3.78023
11
6.94092
21
-3.78023
0
LINE
8
BLACK
6
CONTINUOUS
10
5.68971
20
-3.88695
11
5.68942
21
-3.88626
0
LINE
8
BLACK
6
CONTINUOUS
10
5.68942
20
-3.88626
11
5.68942
21
-3.82878
0
LINE
8
BLACK
6
CONTINUOUS
10
5.68942
20
-3.82878
11
5.68971
21
-3.82808
0
LINE
8
BLACK
6
CONTINUOUS
10
5.68971
20
-3.82808
11
5.69041
21
-3.82779
0
LINE
8
BLACK
6
CONTINUOUS
10
5.69041
20
-3.82779
11
5.80694
21
-3.82779
0
LINE
8
BLACK
6
CONTINUOUS
10
5.80694
20
-3.82779
11
5.80764
21
-3.82808
0
LINE
8
BLACK
6
CONTINUOUS
10
5.80764
20
-3.82808
11
5.80793
21
-3.82878
0
LINE
8
BLACK
6
CONTINUOUS
10
5.80793
20
-3.82878
11
5.80793
21
-3.88626
0
LINE
8
BLACK
6
CONTINUOUS
10
5.80793
20
-3.88626
11
5.80764
21
-3.88695
0
LINE
8
BLACK
6
CONTINUOUS
10
5.80764
20
-3.88695
11
5.80694
21
-3.88724
0
LINE
8
BLACK
6
CONTINUOUS
10
5.80694
20
-3.88724
11
5.69041
21
-3.88724
0
LINE
8
BLACK
6
CONTINUOUS
10
5.69041
20
-3.88724
11
5.68971
21
-3.88695
0
LINE
8
BLACK
6
CONTINUOUS
10
5.69139
20
-3.82976
11
5.69139
21
-3.88527
0
LINE
8
BLACK
6
CONTINUOUS
10
5.69139
20
-3.88527
11
5.80596
21
-3.88527
0
LINE
8
BLACK
6
CONTINUOUS
10
5.80596
20
-3.88527
11
5.80596
21
-3.82976
0
LINE
8
BLACK
6
CONTINUOUS
10
5.80596
20
-3.82976
11
5.69139
21
-3.82976
0
LINE
8
BLACK
6
CONTINUOUS
10
6.50711
20
-3.82435
11
6.50682
21
-3.82366
0
LINE
8
BLACK
6
CONTINUOUS
10
6.50682
20
-3.82366
11
6.50682
21
-3.59138
0
LINE
8
BLACK
6
CONTINUOUS
10
6.50682
20
-3.59138
11
6.50711
21
-3.59068
0
LINE
8
BLACK
6
CONTINUOUS
10
6.50711
20
-3.59068
11
6.50781
21
-3.59039
0
LINE
8
BLACK
6
CONTINUOUS
10
6.50781
20
-3.59039
11
6.64954
21
-3.59039
0
LINE
8
BLACK
6
CONTINUOUS
10
6.64954
20
-3.59039
11
6.65024
21
-3.59068
0
LINE
8
BLACK
6
CONTINUOUS
10
6.65024
20
-3.59068
11
6.65053
21
-3.59138
0
LINE
8
BLACK
6
CONTINUOUS
10
6.65053
20
-3.59138
11
6.65053
21
-3.82366
0
LINE
8
BLACK
6
CONTINUOUS
10
6.65053
20
-3.82366
11
6.65024
21
-3.82435
0
LINE
8
BLACK
6
CONTINUOUS
10
6.65024
20
-3.82435
11
6.64954
21
-3.82464
0
LINE
8
BLACK
6
CONTINUOUS
10
6.64954
20
-3.82464
11
6.50781
21
-3.82464
0
LINE
8
BLACK
6
CONTINUOUS
10
6.50781
20
-3.82464
11
6.50711
21
-3.82435
0
LINE
8
BLACK
6
CONTINUOUS
10
6.50879
20
-3.59236
11
6.50879
21
-3.82267
0
LINE
8
BLACK
6
CONTINUOUS
10
6.50879
20
-3.82267
11
6.64856
21
-3.82267
0
LINE
8
BLACK
6
CONTINUOUS
10
6.64856
20
-3.82267
11
6.64856
21
-3.59236
0
LINE
8
BLACK
6
CONTINUOUS
10
6.64856
20
-3.59236
11
6.50879
21
-3.59236
0
LINE
8
BLACK
6
CONTINUOUS
10
6.41924
20
-3.80648
11
6.41895
21
-3.80578
0
LINE
8
BLACK
6
CONTINUOUS
10
6.41895
20
-3.80578
11
6.41895
21
-3.68925
0
LINE
8
BLACK
6
CONTINUOUS
10
6.41895
20
-3.68925
11
6.41924
21
-3.68855
0
LINE
8
BLACK
6
CONTINUOUS
10
6.41924
20
-3.68855
11
6.41993
21
-3.68826
0
LINE
8
BLACK
6
CONTINUOUS
10
6.41993
20
-3.68826
11
6.47741
21
-3.68826
0
LINE
8
BLACK
6
CONTINUOUS
10
6.47741
20
-3.68826
11
6.47811
21
-3.68855
0
LINE
8
BLACK
6
CONTINUOUS
10
6.47811
20
-3.68855
11
6.4784
21
-3.68925
0
LINE
8
BLACK
6
CONTINUOUS
10
6.4784
20
-3.68925
11
6.4784
21
-3.80578
0
LINE
8
BLACK
6
CONTINUOUS
10
6.4784
20
-3.80578
11
6.47811
21
-3.80648
0
LINE
8
BLACK
6
CONTINUOUS
10
6.47811
20
-3.80648
11
6.47741
21
-3.80677
0
LINE
8
BLACK
6
CONTINUOUS
10
6.47741
20
-3.80677
11
6.41993
21
-3.80677
0
LINE
8
BLACK
6
CONTINUOUS
10
6.41993
20
-3.80677
11
6.41924
21
-3.80648
0
LINE
8
BLACK
6
CONTINUOUS
10
6.42092
20
-3.69023
11
6.42092
21
-3.8048
0
LINE
8
BLACK
6
CONTINUOUS
10
6.42092
20
-3.8048
11
6.47643
21
-3.8048
0
LINE
8
BLACK
6
CONTINUOUS
10
6.47643
20
-3.8048
11
6.47643
21
-3.69023
0
LINE
8
BLACK
6
CONTINUOUS
10
6.47643
20
-3.69023
11
6.42092
21
-3.69023
0
LINE
8
BLACK
6
CONTINUOUS
10
7.06877
20
-3.80577
11
7.06848
21
-3.80508
0
LINE
8
BLACK
6
CONTINUOUS
10
7.06848
20
-3.80508
11
7.06848
21
-3.74996
0
LINE
8
BLACK
6
CONTINUOUS
10
7.06848
20
-3.74996
11
7.06877
21
-3.74926
0
LINE
8
BLACK
6
CONTINUOUS
10
7.06877
20
-3.74926
11
7.06946
21
-3.74897
0
LINE
8
BLACK
6
CONTINUOUS
10
7.06946
20
-3.74897
11
7.16789
21
-3.74897
0
LINE
8
BLACK
6
CONTINUOUS
10
7.16789
20
-3.74897
11
7.16858
21
-3.74926
0
LINE
8
BLACK
6
CONTINUOUS
10
7.16858
20
-3.74926
11
7.16887
21
-3.74996
0
LINE
8
BLACK
6
CONTINUOUS
10
7.16887
20
-3.74996
11
7.16887
21
-3.80508
0
LINE
8
BLACK
6
CONTINUOUS
10
7.16887
20
-3.80508
11
7.16858
21
-3.80577
0
LINE
8
BLACK
6
CONTINUOUS
10
7.16858
20
-3.80577
11
7.16789
21
-3.80606
0
LINE
8
BLACK
6
CONTINUOUS
10
7.16789
20
-3.80606
11
7.06946
21
-3.80606
0
LINE
8
BLACK
6
CONTINUOUS
10
7.06946
20
-3.80606
11
7.06877
21
-3.80577
0
LINE
8
BLACK
6
CONTINUOUS
10
7.07045
20
-3.75094
11
7.07045
21
-3.80409
0
LINE
8
BLACK
6
CONTINUOUS
10
7.07045
20
-3.80409
11
7.1669
21
-3.80409
0
LINE
8
BLACK
6
CONTINUOUS
10
7.1669
20
-3.80409
11
7.1669
21
-3.75094
0
LINE
8
BLACK
6
CONTINUOUS
10
7.1669
20
-3.75094
11
7.07045
21
-3.75094
0
LINE
8
BLACK
6
CONTINUOUS
10
5.64924
20
-3.76648
11
5.64895
21
-3.76578
0
LINE
8
BLACK
6
CONTINUOUS
10
5.64895
20
-3.76578
11
5.64895
21
-3.64925
0
LINE
8
BLACK
6
CONTINUOUS
10
5.64895
20
-3.64925
11
5.64924
21
-3.64855
0
LINE
8
BLACK
6
CONTINUOUS
10
5.64924
20
-3.64855
11
5.64993
21
-3.64826
0
LINE
8
BLACK
6
CONTINUOUS
10
5.64993
20
-3.64826
11
5.70742
21
-3.64826
0
LINE
8
BLACK
6
CONTINUOUS
10
5.70742
20
-3.64826
11
5.70811
21
-3.64855
0
LINE
8
BLACK
6
CONTINUOUS
10
5.70811
20
-3.64855
11
5.7084
21
-3.64925
0
LINE
8
BLACK
6
CONTINUOUS
10
5.7084
20
-3.64925
11
5.7084
21
-3.76578
0
LINE
8
BLACK
6
CONTINUOUS
10
5.7084
20
-3.76578
11
5.70811
21
-3.76648
0
LINE
8
BLACK
6
CONTINUOUS
10
5.70811
20
-3.76648
11
5.70742
21
-3.76677
0
LINE
8
BLACK
6
CONTINUOUS
10
5.70742
20
-3.76677
11
5.64993
21
-3.76677
0
LINE
8
BLACK
6
CONTINUOUS
10
5.64993
20
-3.76677
11
5.64924
21
-3.76648
0
LINE
8
BLACK
6
CONTINUOUS
10
5.65092
20
-3.65023
11
5.65092
21
-3.7648
0
LINE
8
BLACK
6
CONTINUOUS
10
5.65092
20
-3.7648
11
5.70643
21
-3.7648
0
LINE
8
BLACK
6
CONTINUOUS
10
5.70643
20
-3.7648
11
5.70643
21
-3.65023
0
LINE
8
BLACK
6
CONTINUOUS
10
5.70643
20
-3.65023
11
5.65092
21
-3.65023
0
LINE
8
BLACK
6
CONTINUOUS
10
5.77436
20
-3.76569
11
5.77407
21
-3.765
0
LINE
8
BLACK
6
CONTINUOUS
10
5.77407
20
-3.765
11
5.77407
21
-3.23744
0
LINE
8
BLACK
6
CONTINUOUS
10
5.77407
20
-3.23744
11
5.77436
21
-3.23674
0
LINE
8
BLACK
6
CONTINUOUS
10
5.77436
20
-3.23674
11
5.77505
21
-3.23645
0
LINE
8
BLACK
6
CONTINUOUS
10
5.77505
20
-3.23645
11
6.30261
21
-3.23645
0
LINE
8
BLACK
6
CONTINUOUS
10
6.30261
20
-3.23645
11
6.30331
21
-3.23674
0
LINE
8
BLACK
6
CONTINUOUS
10
6.30331
20
-3.23674
11
6.3036
21
-3.23744
0
LINE
8
BLACK
6
CONTINUOUS
10
6.3036
20
-3.23744
11
6.3036
21
-3.765
0
LINE
8
BLACK
6
CONTINUOUS
10
6.3036
20
-3.765
11
6.30331
21
-3.76569
0
LINE
8
BLACK
6
CONTINUOUS
10
6.30331
20
-3.76569
11
6.30261
21
-3.76598
0
LINE
8
BLACK
6
CONTINUOUS
10
6.30261
20
-3.76598
11
5.77505
21
-3.76598
0
LINE
8
BLACK
6
CONTINUOUS
10
5.77505
20
-3.76598
11
5.77436
21
-3.76569
0
LINE
8
BLACK
6
CONTINUOUS
10
5.77604
20
-3.23842
11
5.77604
21
-3.76401
0
LINE
8
BLACK
6
CONTINUOUS
10
5.77604
20
-3.76401
11
6.30163
21
-3.76401
0
LINE
8
BLACK
6
CONTINUOUS
10
6.30163
20
-3.76401
11
6.30163
21
-3.23842
0
LINE
8
BLACK
6
CONTINUOUS
10
6.30163
20
-3.23842
11
5.77604
21
-3.23842
0
LINE
8
BLACK
6
CONTINUOUS
10
6.91493
20
-3.75561
11
6.91464
21
-3.75492
0
LINE
8
BLACK
6
CONTINUOUS
10
6.91464
20
-3.75492
11
6.91464
21
-3.68012
0
LINE
8
BLACK
6
CONTINUOUS
10
6.91464
20
-3.68012
11
6.91493
21
-3.67942
0
LINE
8
BLACK
6
CONTINUOUS
10
6.91493
20
-3.67942
11
6.91562
21
-3.67913
0
LINE
8
BLACK
6
CONTINUOUS
10
6.91562
20
-3.67913
11
7.04791
21
-3.67913
0
LINE
8
BLACK
6
CONTINUOUS
10
7.04791
20
-3.67913
11
7.0486
21
-3.67942
0
LINE
8
BLACK
6
CONTINUOUS
10
7.0486
20
-3.67942
11
7.04889
21
-3.68012
0
LINE
8
BLACK
6
CONTINUOUS
10
7.04889
20
-3.68012
11
7.04889
21
-3.75492
0
LINE
8
BLACK
6
CONTINUOUS
10
7.04889
20
-3.75492
11
7.0486
21
-3.75561
0
LINE
8
BLACK
6
CONTINUOUS
10
7.0486
20
-3.75561
11
7.04791
21
-3.7559
0
LINE
8
BLACK
6
CONTINUOUS
10
7.04791
20
-3.7559
11
6.91562
21
-3.7559
0
LINE
8
BLACK
6
CONTINUOUS
10
6.91562
20
-3.7559
11
6.91493
21
-3.75561
0
LINE
8
BLACK
6
CONTINUOUS
10
6.91661
20
-3.6811
11
6.91661
21
-3.75393
0
LINE
8
BLACK
6
CONTINUOUS
10
6.91661
20
-3.75393
11
7.04692
21
-3.75393
0
LINE
8
BLACK
6
CONTINUOUS
10
7.04692
20
-3.75393
11
7.04692
21
-3.6811
0
LINE
8
BLACK
6
CONTINUOUS
10
7.04692
20
-3.6811
11
6.91661
21
-3.6811
0
LINE
8
BLACK
6
CONTINUOUS
10
6.82042
20
-3.73743
11
6.82013
21
-3.73673
0
LINE
8
BLACK
6
CONTINUOUS
10
6.82013
20
-3.73673
11
6.82013
21
-3.6383
0
LINE
8
BLACK
6
CONTINUOUS
10
6.82013
20
-3.6383
11
6.82042
21
-3.63761
0
LINE
8
BLACK
6
CONTINUOUS
10
6.82042
20
-3.63761
11
6.82112
21
-3.63732
0
LINE
8
BLACK
6
CONTINUOUS
10
6.82112
20
-3.63732
11
6.87623
21
-3.63732
0
LINE
8
BLACK
6
CONTINUOUS
10
6.87623
20
-3.63732
11
6.87693
21
-3.63761
0
LINE
8
BLACK
6
CONTINUOUS
10
6.87693
20
-3.63761
11
6.87722
21
-3.6383
0
LINE
8
BLACK
6
CONTINUOUS
10
6.87722
20
-3.6383
11
6.87722
21
-3.73673
0
LINE
8
BLACK
6
CONTINUOUS
10
6.87722
20
-3.73673
11
6.87693
21
-3.73743
0
LINE
8
BLACK
6
CONTINUOUS
10
6.87693
20
-3.73743
11
6.87623
21
-3.73771
0
LINE
8
BLACK
6
CONTINUOUS
10
6.87623
20
-3.73771
11
6.82112
21
-3.73771
0
LINE
8
BLACK
6
CONTINUOUS
10
6.82112
20
-3.73771
11
6.82042
21
-3.73743
0
LINE
8
BLACK
6
CONTINUOUS
10
6.8221
20
-3.63929
11
6.8221
21
-3.73575
0
LINE
8
BLACK
6
CONTINUOUS
10
6.8221
20
-3.73575
11
6.87525
21
-3.73575
0
LINE
8
BLACK
6
CONTINUOUS
10
6.87525
20
-3.73575
11
6.87525
21
-3.63929
0
LINE
8
BLACK
6
CONTINUOUS
10
6.87525
20
-3.63929
11
6.8221
21
-3.63929
0
LINE
8
BLACK
6
CONTINUOUS
10
7.06877
20
-3.72577
11
7.06848
21
-3.72508
0
LINE
8
BLACK
6
CONTINUOUS
10
7.06848
20
-3.72508
11
7.06848
21
-3.66996
0
LINE
8
BLACK
6
CONTINUOUS
10
7.06848
20
-3.66996
11
7.06877
21
-3.66926
0
LINE
8
BLACK
6
CONTINUOUS
10
7.06877
20
-3.66926
11
7.06946
21
-3.66897
0
LINE
8
BLACK
6
CONTINUOUS
10
7.06946
20
-3.66897
11
7.16789
21
-3.66897
0
LINE
8
BLACK
6
CONTINUOUS
10
7.16789
20
-3.66897
11
7.16858
21
-3.66926
0
LINE
8
BLACK
6
CONTINUOUS
10
7.16858
20
-3.66926
11
7.16887
21
-3.66996
0
LINE
8
BLACK
6
CONTINUOUS
10
7.16887
20
-3.66996
11
7.16887
21
-3.72508
0
LINE
8
BLACK
6
CONTINUOUS
10
7.16887
20
-3.72508
11
7.16858
21
-3.72577
0
LINE
8
BLACK
6
CONTINUOUS
10
7.16858
20
-3.72577
11
7.16789
21
-3.72606
0
LINE
8
BLACK
6
CONTINUOUS
10
7.16789
20
-3.72606
11
7.06946
21
-3.72606
0
LINE
8
BLACK
6
CONTINUOUS
10
7.06946
20
-3.72606
11
7.06877
21
-3.72577
0
LINE
8
BLACK
6
CONTINUOUS
10
7.07045
20
-3.67094
11
7.07045
21
-3.72409
0
LINE
8
BLACK
6
CONTINUOUS
10
7.07045
20
-3.72409
11
7.1669
21
-3.72409
0
LINE
8
BLACK
6
CONTINUOUS
10
7.1669
20
-3.72409
11
7.1669
21
-3.67094
0
LINE
8
BLACK
6
CONTINUOUS
10
7.1669
20
-3.67094
11
7.07045
21
-3.67094
0
LINE
8
BLACK
6
CONTINUOUS
10
5.42924
20
-3.67648
11
5.42895
21
-3.67578
0
LINE
8
BLACK
6
CONTINUOUS
10
5.42895
20
-3.67578
11
5.42895
21
-3.55925
0
LINE
8
BLACK
6
CONTINUOUS
10
5.42895
20
-3.55925
11
5.42924
21
-3.55855
0
LINE
8
BLACK
6
CONTINUOUS
10
5.42924
20
-3.55855
11
5.42993
21
-3.55826
0
LINE
8
BLACK
6
CONTINUOUS
10
5.42993
20
-3.55826
11
5.48741
21
-3.55826
0
LINE
8
BLACK
6
CONTINUOUS
10
5.48741
20
-3.55826
11
5.48811
21
-3.55855
0
LINE
8
BLACK
6
CONTINUOUS
10
5.48811
20
-3.55855
11
5.4884
21
-3.55925
0
LINE
8
BLACK
6
CONTINUOUS
10
5.4884
20
-3.55925
11
5.4884
21
-3.67578
0
LINE
8
BLACK
6
CONTINUOUS
10
5.4884
20
-3.67578
11
5.48811
21
-3.67648
0
LINE
8
BLACK
6
CONTINUOUS
10
5.48811
20
-3.67648
11
5.48741
21
-3.67677
0
LINE
8
BLACK
6
CONTINUOUS
10
5.48741
20
-3.67677
11
5.42993
21
-3.67677
0
LINE
8
BLACK
6
CONTINUOUS
10
5.42993
20
-3.67677
11
5.42924
21
-3.67648
0
LINE
8
BLACK
6
CONTINUOUS
10
5.43092
20
-3.56023
11
5.43092
21
-3.6748
0
LINE
8
BLACK
6
CONTINUOUS
10
5.43092
20
-3.6748
11
5.48643
21
-3.6748
0
LINE
8
BLACK
6
CONTINUOUS
10
5.48643
20
-3.6748
11
5.48643
21
-3.56023
0
LINE
8
BLACK
6
CONTINUOUS
10
5.48643
20
-3.56023
11
5.43092
21
-3.56023
0
LINE
8
BLACK
6
CONTINUOUS
10
6.67971
20
-3.66695
11
6.67942
21
-3.66626
0
LINE
8
BLACK
6
CONTINUOUS
10
6.67942
20
-3.66626
11
6.67942
21
-3.60878
0
LINE
8
BLACK
6
CONTINUOUS
10
6.67942
20
-3.60878
11
6.67971
21
-3.60808
0
LINE
8
BLACK
6
CONTINUOUS
10
6.67971
20
-3.60808
11
6.68041
21
-3.60779
0
LINE
8
BLACK
6
CONTINUOUS
10
6.68041
20
-3.60779
11
6.79694
21
-3.60779
0
LINE
8
BLACK
6
CONTINUOUS
10
6.79694
20
-3.60779
11
6.79764
21
-3.60808
0
LINE
8
BLACK
6
CONTINUOUS
10
6.79764
20
-3.60808
11
6.79793
21
-3.60878
0
LINE
8
BLACK
6
CONTINUOUS
10
6.79793
20
-3.60878
11
6.79793
21
-3.66626
0
LINE
8
BLACK
6
CONTINUOUS
10
6.79793
20
-3.66626
11
6.79764
21
-3.66695
0
LINE
8
BLACK
6
CONTINUOUS
10
6.79764
20
-3.66695
11
6.79694
21
-3.66724
0
LINE
8
BLACK
6
CONTINUOUS
10
6.79694
20
-3.66724
11
6.68041
21
-3.66724
0
LINE
8
BLACK
6
CONTINUOUS
10
6.68041
20
-3.66724
11
6.67971
21
-3.66695
0
LINE
8
BLACK
6
CONTINUOUS
10
6.68139
20
-3.60976
11
6.68139
21
-3.66527
0
LINE
8
BLACK
6
CONTINUOUS
10
6.68139
20
-3.66527
11
6.79596
21
-3.66527
0
LINE
8
BLACK
6
CONTINUOUS
10
6.79596
20
-3.66527
11
6.79596
21
-3.60976
0
LINE
8
BLACK
6
CONTINUOUS
10
6.79596
20
-3.60976
11
6.68139
21
-3.60976
0
LINE
8
BLACK
6
CONTINUOUS
10
6.91971
20
-3.65695
11
6.91942
21
-3.65626
0
LINE
8
BLACK
6
CONTINUOUS
10
6.91942
20
-3.65626
11
6.91942
21
-3.59878
0
LINE
8
BLACK
6
CONTINUOUS
10
6.91942
20
-3.59878
11
6.91971
21
-3.59808
0
LINE
8
BLACK
6
CONTINUOUS
10
6.91971
20
-3.59808
11
6.92041
21
-3.59779
0
LINE
8
BLACK
6
CONTINUOUS
10
6.92041
20
-3.59779
11
7.03694
21
-3.59779
0
LINE
8
BLACK
6
CONTINUOUS
10
7.03694
20
-3.59779
11
7.03764
21
-3.59808
0
LINE
8
BLACK
6
CONTINUOUS
10
7.03764
20
-3.59808
11
7.03793
21
-3.59878
0
LINE
8
BLACK
6
CONTINUOUS
10
7.03793
20
-3.59878
11
7.03793
21
-3.65626
0
LINE
8
BLACK
6
CONTINUOUS
10
7.03793
20
-3.65626
11
7.03764
21
-3.65695
0
LINE
8
BLACK
6
CONTINUOUS
10
7.03764
20
-3.65695
11
7.03694
21
-3.65724
0
LINE
8
BLACK
6
CONTINUOUS
10
7.03694
20
-3.65724
11
6.92041
21
-3.65724
0
LINE
8
BLACK
6
CONTINUOUS
10
6.92041
20
-3.65724
11
6.91971
21
-3.65695
0
LINE
8
BLACK
6
CONTINUOUS
10
6.92139
20
-3.59976
11
6.92139
21
-3.65527
0
LINE
8
BLACK
6
CONTINUOUS
10
6.92139
20
-3.65527
11
7.03596
21
-3.65527
0
LINE
8
BLACK
6
CONTINUOUS
10
7.03596
20
-3.65527
11
7.03596
21
-3.59976
0
LINE
8
BLACK
6
CONTINUOUS
10
7.03596
20
-3.59976
11
6.92139
21
-3.59976
0
LINE
8
BLACK
6
CONTINUOUS
10
5.66924
20
-3.61648
11
5.66895
21
-3.61578
0
LINE
8
BLACK
6
CONTINUOUS
10
5.66895
20
-3.61578
11
5.66895
21
-3.49925
0
LINE
8
BLACK
6
CONTINUOUS
10
5.66895
20
-3.49925
11
5.66924
21
-3.49855
0
LINE
8
BLACK
6
CONTINUOUS
10
5.66924
20
-3.49855
11
5.66993
21
-3.49826
0
LINE
8
BLACK
6
CONTINUOUS
10
5.66993
20
-3.49826
11
5.72741
21
-3.49826
0
LINE
8
BLACK
6
CONTINUOUS
10
5.72741
20
-3.49826
11
5.72811
21
-3.49855
0
LINE
8
BLACK
6
CONTINUOUS
10
5.72811
20
-3.49855
11
5.7284
21
-3.49925
0
LINE
8
BLACK
6
CONTINUOUS
10
5.7284
20
-3.49925
11
5.7284
21
-3.61578
0
LINE
8
BLACK
6
CONTINUOUS
10
5.7284
20
-3.61578
11
5.72811
21
-3.61648
0
LINE
8
BLACK
6
CONTINUOUS
10
5.72811
20
-3.61648
11
5.72741
21
-3.61677
0
LINE
8
BLACK
6
CONTINUOUS
10
5.72741
20
-3.61677
11
5.66993
21
-3.61677
0
LINE
8
BLACK
6
CONTINUOUS
10
5.66993
20
-3.61677
11
5.66924
21
-3.61648
0
LINE
8
BLACK
6
CONTINUOUS
10
5.67092
20
-3.50023
11
5.67092
21
-3.6148
0
LINE
8
BLACK
6
CONTINUOUS
10
5.67092
20
-3.6148
11
5.72643
21
-3.6148
0
LINE
8
BLACK
6
CONTINUOUS
10
5.72643
20
-3.6148
11
5.72643
21
-3.50023
0
LINE
8
BLACK
6
CONTINUOUS
10
5.72643
20
-3.50023
11
5.67092
21
-3.50023
0
LINE
8
BLACK
6
CONTINUOUS
10
6.43924
20
-3.60648
11
6.43895
21
-3.60578
0
LINE
8
BLACK
6
CONTINUOUS
10
6.43895
20
-3.60578
11
6.43895
21
-3.48925
0
LINE
8
BLACK
6
CONTINUOUS
10
6.43895
20
-3.48925
11
6.43924
21
-3.48855
0
LINE
8
BLACK
6
CONTINUOUS
10
6.43924
20
-3.48855
11
6.43993
21
-3.48826
0
LINE
8
BLACK
6
CONTINUOUS
10
6.43993
20
-3.48826
11
6.49742
21
-3.48826
0
LINE
8
BLACK
6
CONTINUOUS
10
6.49742
20
-3.48826
11
6.49811
21
-3.48855
0
LINE
8
BLACK
6
CONTINUOUS
10
6.49811
20
-3.48855
11
6.4984
21
-3.48925
0
LINE
8
BLACK
6
CONTINUOUS
10
6.4984
20
-3.48925
11
6.4984
21
-3.60578
0
LINE
8
BLACK
6
CONTINUOUS
10
6.4984
20
-3.60578
11
6.49811
21
-3.60648
0
LINE
8
BLACK
6
CONTINUOUS
10
6.49811
20
-3.60648
11
6.49742
21
-3.60677
0
LINE
8
BLACK
6
CONTINUOUS
10
6.49742
20
-3.60677
11
6.43993
21
-3.60677
0
LINE
8
BLACK
6
CONTINUOUS
10
6.43993
20
-3.60677
11
6.43924
21
-3.60648
0
LINE
8
BLACK
6
CONTINUOUS
10
6.44092
20
-3.49023
11
6.44092
21
-3.6048
0
LINE
8
BLACK
6
CONTINUOUS
10
6.44092
20
-3.6048
11
6.49643
21
-3.6048
0
LINE
8
BLACK
6
CONTINUOUS
10
6.49643
20
-3.6048
11
6.49643
21
-3.49023
0
LINE
8
BLACK
6
CONTINUOUS
10
6.49643
20
-3.49023
11
6.44092
21
-3.49023
0
LINE
8
BLACK
6
CONTINUOUS
10
6.34924
20
-3.60648
11
6.34895
21
-3.60578
0
LINE
8
BLACK
6
CONTINUOUS
10
6.34895
20
-3.60578
11
6.34895
21
-3.48925
0
LINE
8
BLACK
6
CONTINUOUS
10
6.34895
20
-3.48925
11
6.34924
21
-3.48855
0
LINE
8
BLACK
6
CONTINUOUS
10
6.34924
20
-3.48855
11
6.34993
21
-3.48826
0
LINE
8
BLACK
6
CONTINUOUS
10
6.34993
20
-3.48826
11
6.40741
21
-3.48826
0
LINE
8
BLACK
6
CONTINUOUS
10
6.40741
20
-3.48826
11
6.40811
21
-3.48855
0
LINE
8
BLACK
6
CONTINUOUS
10
6.40811
20
-3.48855
11
6.4084
21
-3.48925
0
LINE
8
BLACK
6
CONTINUOUS
10
6.4084
20
-3.48925
11
6.4084
21
-3.60578
0
LINE
8
BLACK
6
CONTINUOUS
10
6.4084
20
-3.60578
11
6.40811
21
-3.60648
0
LINE
8
BLACK
6
CONTINUOUS
10
6.40811
20
-3.60648
11
6.40741
21
-3.60677
0
LINE
8
BLACK
6
CONTINUOUS
10
6.40741
20
-3.60677
11
6.34993
21
-3.60677
0
LINE
8
BLACK
6
CONTINUOUS
10
6.34993
20
-3.60677
11
6.34924
21
-3.60648
0
LINE
8
BLACK
6
CONTINUOUS
10
6.35092
20
-3.49023
11
6.35092
21
-3.6048
0
LINE
8
BLACK
6
CONTINUOUS
10
6.35092
20
-3.6048
11
6.40643
21
-3.6048
0
LINE
8
BLACK
6
CONTINUOUS
10
6.40643
20
-3.6048
11
6.40643
21
-3.49023
0
LINE
8
BLACK
6
CONTINUOUS
10
6.40643
20
-3.49023
11
6.35092
21
-3.49023
0
LINE
8
BLACK
6
CONTINUOUS
10
6.99703
20
-3.59624
11
6.99675
21
-3.59555
0
LINE
8
BLACK
6
CONTINUOUS
10
6.99675
20
-3.59555
11
6.99675
21
-3.53807
0
LINE
8
BLACK
6
CONTINUOUS
10
6.99675
20
-3.53807
11
6.99703
21
-3.53737
0
LINE
8
BLACK
6
CONTINUOUS
10
6.99703
20
-3.53737
11
6.99773
21
-3.53708
0
LINE
8
BLACK
6
CONTINUOUS
10
6.99773
20
-3.53708
11
7.11427
21
-3.53708
0
LINE
8
BLACK
6
CONTINUOUS
10
7.11427
20
-3.53708
11
7.11496
21
-3.53737
0
LINE
8
BLACK
6
CONTINUOUS
10
7.11496
20
-3.53737
11
7.11525
21
-3.53807
0
LINE
8
BLACK
6
CONTINUOUS
10
7.11525
20
-3.53807
11
7.11525
21
-3.59555
0
LINE
8
BLACK
6
CONTINUOUS
10
7.11525
20
-3.59555
11
7.11496
21
-3.59624
0
LINE
8
BLACK
6
CONTINUOUS
10
7.11496
20
-3.59624
11
7.11427
21
-3.59653
0
LINE
8
BLACK
6
CONTINUOUS
10
7.11427
20
-3.59653
11
6.99773
21
-3.59653
0
LINE
8
BLACK
6
CONTINUOUS
10
6.99773
20
-3.59653
11
6.99703
21
-3.59624
0
LINE
8
BLACK
6
CONTINUOUS
10
6.99871
20
-3.53905
11
6.99871
21
-3.59456
0
LINE
8
BLACK
6
CONTINUOUS
10
6.99871
20
-3.59456
11
7.11328
21
-3.59456
0
LINE
8
BLACK
6
CONTINUOUS
10
7.11328
20
-3.59456
11
7.11328
21
-3.53905
0
LINE
8
BLACK
6
CONTINUOUS
10
7.11328
20
-3.53905
11
6.99871
21
-3.53905
0
LINE
8
BLACK
6
CONTINUOUS
10
7.12058
20
-3.59105
11
7.12029
21
-3.59035
0
LINE
8
BLACK
6
CONTINUOUS
10
7.12029
20
-3.59035
11
7.12029
21
-3.44468
0
LINE
8
BLACK
6
CONTINUOUS
10
7.12029
20
-3.44468
11
7.12058
21
-3.44399
0
LINE
8
BLACK
6
CONTINUOUS
10
7.12058
20
-3.44399
11
7.12127
21
-3.4437
0
LINE
8
BLACK
6
CONTINUOUS
10
7.12127
20
-3.4437
11
7.19608
21
-3.4437
0
LINE
8
BLACK
6
CONTINUOUS
10
7.19608
20
-3.4437
11
7.19677
21
-3.44399
0
LINE
8
BLACK
6
CONTINUOUS
10
7.19677
20
-3.44399
11
7.19706
21
-3.44468
0
LINE
8
BLACK
6
CONTINUOUS
10
7.19706
20
-3.44468
11
7.19706
21
-3.59035
0
LINE
8
BLACK
6
CONTINUOUS
10
7.19706
20
-3.59035
11
7.19677
21
-3.59105
0
LINE
8
BLACK
6
CONTINUOUS
10
7.19677
20
-3.59105
11
7.19608
21
-3.59134
0
LINE
8
BLACK
6
CONTINUOUS
10
7.19608
20
-3.59134
11
7.12127
21
-3.59134
0
LINE
8
BLACK
6
CONTINUOUS
10
7.12127
20
-3.59134
11
7.12058
21
-3.59105
0
LINE
8
BLACK
6
CONTINUOUS
10
7.12226
20
-3.44567
11
7.12226
21
-3.58937
0
LINE
8
BLACK
6
CONTINUOUS
10
7.12226
20
-3.58937
11
7.19509
21
-3.58937
0
LINE
8
BLACK
6
CONTINUOUS
10
7.19509
20
-3.58937
11
7.19509
21
-3.44567
0
LINE
8
BLACK
6
CONTINUOUS
10
7.19509
20
-3.44567
11
7.12226
21
-3.44567
0
LINE
8
BLACK
6
CONTINUOUS
10
6.67971
20
-3.57695
11
6.67942
21
-3.57626
0
LINE
8
BLACK
6
CONTINUOUS
10
6.67942
20
-3.57626
11
6.67942
21
-3.51878
0
LINE
8
BLACK
6
CONTINUOUS
10
6.67942
20
-3.51878
11
6.67971
21
-3.51808
0
LINE
8
BLACK
6
CONTINUOUS
10
6.67971
20
-3.51808
11
6.68041
21
-3.51779
0
LINE
8
BLACK
6
CONTINUOUS
10
6.68041
20
-3.51779
11
6.79694
21
-3.51779
0
LINE
8
BLACK
6
CONTINUOUS
10
6.79694
20
-3.51779
11
6.79764
21
-3.51808
0
LINE
8
BLACK
6
CONTINUOUS
10
6.79764
20
-3.51808
11
6.79793
21
-3.51878
0
LINE
8
BLACK
6
CONTINUOUS
10
6.79793
20
-3.51878
11
6.79793
21
-3.57626
0
LINE
8
BLACK
6
CONTINUOUS
10
6.79793
20
-3.57626
11
6.79764
21
-3.57695
0
LINE
8
BLACK
6
CONTINUOUS
10
6.79764
20
-3.57695
11
6.79694
21
-3.57724
0
LINE
8
BLACK
6
CONTINUOUS
10
6.79694
20
-3.57724
11
6.68041
21
-3.57724
0
LINE
8
BLACK
6
CONTINUOUS
10
6.68041
20
-3.57724
11
6.67971
21
-3.57695
0
LINE
8
BLACK
6
CONTINUOUS
10
6.68139
20
-3.51976
11
6.68139
21
-3.57527
0
LINE
8
BLACK
6
CONTINUOUS
10
6.68139
20
-3.57527
11
6.79596
21
-3.57527
0
LINE
8
BLACK
6
CONTINUOUS
10
6.79596
20
-3.57527
11
6.79596
21
-3.51976
0
LINE
8
BLACK
6
CONTINUOUS
10
6.79596
20
-3.51976
11
6.68139
21
-3.51976
0
LINE
8
BLACK
6
CONTINUOUS
10
5.42924
20
-3.54648
11
5.42895
21
-3.54578
0
LINE
8
BLACK
6
CONTINUOUS
10
5.42895
20
-3.54578
11
5.42895
21
-3.42925
0
LINE
8
BLACK
6
CONTINUOUS
10
5.42895
20
-3.42925
11
5.42924
21
-3.42855
0
LINE
8
BLACK
6
CONTINUOUS
10
5.42924
20
-3.42855
11
5.42993
21
-3.42826
0
LINE
8
BLACK
6
CONTINUOUS
10
5.42993
20
-3.42826
11
5.48741
21
-3.42826
0
LINE
8
BLACK
6
CONTINUOUS
10
5.48741
20
-3.42826
11
5.48811
21
-3.42855
0
LINE
8
BLACK
6
CONTINUOUS
10
5.48811
20
-3.42855
11
5.4884
21
-3.42925
0
LINE
8
BLACK
6
CONTINUOUS
10
5.4884
20
-3.42925
11
5.4884
21
-3.54578
0
LINE
8
BLACK
6
CONTINUOUS
10
5.4884
20
-3.54578
11
5.48811
21
-3.54648
0
LINE
8
BLACK
6
CONTINUOUS
10
5.48811
20
-3.54648
11
5.48741
21
-3.54677
0
LINE
8
BLACK
6
CONTINUOUS
10
5.48741
20
-3.54677
11
5.42993
21
-3.54677
0
LINE
8
BLACK
6
CONTINUOUS
10
5.42993
20
-3.54677
11
5.42924
21
-3.54648
0
LINE
8
BLACK
6
CONTINUOUS
10
5.43092
20
-3.43023
11
5.43092
21
-3.5448
0
LINE
8
BLACK
6
CONTINUOUS
10
5.43092
20
-3.5448
11
5.48643
21
-3.5448
0
LINE
8
BLACK
6
CONTINUOUS
10
5.48643
20
-3.5448
11
5.48643
21
-3.43023
0
LINE
8
BLACK
6
CONTINUOUS
10
5.48643
20
-3.43023
11
5.43092
21
-3.43023
0
LINE
8
BLACK
6
CONTINUOUS
10
7.22199
20
-3.53246
11
7.22171
21
-3.53177
0
LINE
8
BLACK
6
CONTINUOUS
10
7.22171
20
-3.53177
11
7.22171
21
-2.96326
0
LINE
8
BLACK
6
CONTINUOUS
10
7.22171
20
-2.96326
11
7.22199
21
-2.96257
0
LINE
8
BLACK
6
CONTINUOUS
10
7.22199
20
-2.96257
11
7.22269
21
-2.96228
0
LINE
8
BLACK
6
CONTINUOUS
10
7.22269
20
-2.96228
11
7.47466
21
-2.96228
0
LINE
8
BLACK
6
CONTINUOUS
10
7.47466
20
-2.96228
11
7.47536
21
-2.96257
0
LINE
8
BLACK
6
CONTINUOUS
10
7.47536
20
-2.96257
11
7.47564
21
-2.96326
0
LINE
8
BLACK
6
CONTINUOUS
10
7.47564
20
-2.96326
11
7.47564
21
-3.53177
0
LINE
8
BLACK
6
CONTINUOUS
10
7.47564
20
-3.53177
11
7.47536
21
-3.53246
0
LINE
8
BLACK
6
CONTINUOUS
10
7.47536
20
-3.53246
11
7.47466
21
-3.53275
0
LINE
8
BLACK
6
CONTINUOUS
10
7.47466
20
-3.53275
11
7.22269
21
-3.53275
0
LINE
8
BLACK
6
CONTINUOUS
10
7.22269
20
-3.53275
11
7.22199
21
-3.53246
0
LINE
8
BLACK
6
CONTINUOUS
10
7.22367
20
-2.96425
11
7.22367
21
-3.53078
0
LINE
8
BLACK
6
CONTINUOUS
10
7.22367
20
-3.53078
11
7.47367
21
-3.53078
0
LINE
8
BLACK
6
CONTINUOUS
10
7.47367
20
-3.53078
11
7.47367
21
-2.96425
0
LINE
8
BLACK
6
CONTINUOUS
10
7.47367
20
-2.96425
11
7.22367
21
-2.96425
0
LINE
8
BLACK
6
CONTINUOUS
10
6.96105
20
-3.50892
11
6.96076
21
-3.50823
0
LINE
8
BLACK
6
CONTINUOUS
10
6.96076
20
-3.50823
11
6.96076
21
-3.34681
0
LINE
8
BLACK
6
CONTINUOUS
10
6.96076
20
-3.34681
11
6.96105
21
-3.34611
0
LINE
8
BLACK
6
CONTINUOUS
10
6.96105
20
-3.34611
11
6.96175
21
-3.34582
0
LINE
8
BLACK
6
CONTINUOUS
10
6.96175
20
-3.34582
11
7.0956
21
-3.34582
0
LINE
8
BLACK
6
CONTINUOUS
10
7.0956
20
-3.34582
11
7.0963
21
-3.34611
0
LINE
8
BLACK
6
CONTINUOUS
10
7.0963
20
-3.34611
11
7.09659
21
-3.34681
0
LINE
8
BLACK
6
CONTINUOUS
10
7.09659
20
-3.34681
11
7.09659
21
-3.50823
0
LINE
8
BLACK
6
CONTINUOUS
10
7.09659
20
-3.50823
11
7.0963
21
-3.50892
0
LINE
8
BLACK
6
CONTINUOUS
10
7.0963
20
-3.50892
11
7.0956
21
-3.50921
0
LINE
8
BLACK
6
CONTINUOUS
10
7.0956
20
-3.50921
11
6.96175
21
-3.50921
0
LINE
8
BLACK
6
CONTINUOUS
10
6.96175
20
-3.50921
11
6.96105
21
-3.50892
0
LINE
8
BLACK
6
CONTINUOUS
10
6.96273
20
-3.34779
11
6.96273
21
-3.50724
0
LINE
8
BLACK
6
CONTINUOUS
10
6.96273
20
-3.50724
11
7.09462
21
-3.50724
0
LINE
8
BLACK
6
CONTINUOUS
10
7.09462
20
-3.50724
11
7.09462
21
-3.34779
0
LINE
8
BLACK
6
CONTINUOUS
10
7.09462
20
-3.34779
11
6.96273
21
-3.34779
0
LINE
8
BLACK
6
CONTINUOUS
10
6.67971
20
-3.48695
11
6.67942
21
-3.48626
0
LINE
8
BLACK
6
CONTINUOUS
10
6.67942
20
-3.48626
11
6.67942
21
-3.42878
0
LINE
8
BLACK
6
CONTINUOUS
10
6.67942
20
-3.42878
11
6.67971
21
-3.42808
0
LINE
8
BLACK
6
CONTINUOUS
10
6.67971
20
-3.42808
11
6.68041
21
-3.42779
0
LINE
8
BLACK
6
CONTINUOUS
10
6.68041
20
-3.42779
11
6.79694
21
-3.42779
0
LINE
8
BLACK
6
CONTINUOUS
10
6.79694
20
-3.42779
11
6.79764
21
-3.42808
0
LINE
8
BLACK
6
CONTINUOUS
10
6.79764
20
-3.42808
11
6.79793
21
-3.42878
0
LINE
8
BLACK
6
CONTINUOUS
10
6.79793
20
-3.42878
11
6.79793
21
-3.48626
0
LINE
8
BLACK
6
CONTINUOUS
10
6.79793
20
-3.48626
11
6.79764
21
-3.48695
0
LINE
8
BLACK
6
CONTINUOUS
10
6.79764
20
-3.48695
11
6.79694
21
-3.48724
0
LINE
8
BLACK
6
CONTINUOUS
10
6.79694
20
-3.48724
11
6.68041
21
-3.48724
0
LINE
8
BLACK
6
CONTINUOUS
10
6.68041
20
-3.48724
11
6.67971
21
-3.48695
0
LINE
8
BLACK
6
CONTINUOUS
10
6.68139
20
-3.42976
11
6.68139
21
-3.48527
0
LINE
8
BLACK
6
CONTINUOUS
10
6.68139
20
-3.48527
11
6.79596
21
-3.48527
0
LINE
8
BLACK
6
CONTINUOUS
10
6.79596
20
-3.48527
11
6.79596
21
-3.42976
0
LINE
8
BLACK
6
CONTINUOUS
10
6.79596
20
-3.42976
11
6.68139
21
-3.42976
0
LINE
8
BLACK
6
CONTINUOUS
10
6.44652
20
-3.47542
11
6.44623
21
-3.47472
0
LINE
8
BLACK
6
CONTINUOUS
10
6.44623
20
-3.47472
11
6.44623
21
-3.35031
0
LINE
8
BLACK
6
CONTINUOUS
10
6.44623
20
-3.35031
11
6.44652
21
-3.34962
0
LINE
8
BLACK
6
CONTINUOUS
10
6.44652
20
-3.34962
11
6.44722
21
-3.34933
0
LINE
8
BLACK
6
CONTINUOUS
10
6.44722
20
-3.34933
11
6.64013
21
-3.34933
0
LINE
8
BLACK
6
CONTINUOUS
10
6.64013
20
-3.34933
11
6.64083
21
-3.34962
0
LINE
8
BLACK
6
CONTINUOUS
10
6.64083
20
-3.34962
11
6.64112
21
-3.35031
0
LINE
8
BLACK
6
CONTINUOUS
10
6.64112
20
-3.35031
11
6.64112
21
-3.47472
0
LINE
8
BLACK
6
CONTINUOUS
10
6.64112
20
-3.47472
11
6.64083
21
-3.47542
0
LINE
8
BLACK
6
CONTINUOUS
10
6.64083
20
-3.47542
11
6.64013
21
-3.47571
0
LINE
8
BLACK
6
CONTINUOUS
10
6.64013
20
-3.47571
11
6.44722
21
-3.47571
0
LINE
8
BLACK
6
CONTINUOUS
10
6.44722
20
-3.47571
11
6.44652
21
-3.47542
0
LINE
8
BLACK
6
CONTINUOUS
10
6.4482
20
-3.3513
11
6.4482
21
-3.47374
0
LINE
8
BLACK
6
CONTINUOUS
10
6.4482
20
-3.47374
11
6.63915
21
-3.47374
0
LINE
8
BLACK
6
CONTINUOUS
10
6.63915
20
-3.47374
11
6.63915
21
-3.3513
0
LINE
8
BLACK
6
CONTINUOUS
10
6.63915
20
-3.3513
11
6.4482
21
-3.3513
0
LINE
8
BLACK
6
CONTINUOUS
10
6.34924
20
-3.46648
11
6.34895
21
-3.46578
0
LINE
8
BLACK
6
CONTINUOUS
10
6.34895
20
-3.46578
11
6.34895
21
-3.34925
0
LINE
8
BLACK
6
CONTINUOUS
10
6.34895
20
-3.34925
11
6.34924
21
-3.34855
0
LINE
8
BLACK
6
CONTINUOUS
10
6.34924
20
-3.34855
11
6.34993
21
-3.34826
0
LINE
8
BLACK
6
CONTINUOUS
10
6.34993
20
-3.34826
11
6.40741
21
-3.34826
0
LINE
8
BLACK
6
CONTINUOUS
10
6.40741
20
-3.34826
11
6.40811
21
-3.34855
0
LINE
8
BLACK
6
CONTINUOUS
10
6.40811
20
-3.34855
11
6.4084
21
-3.34925
0
LINE
8
BLACK
6
CONTINUOUS
10
6.4084
20
-3.34925
11
6.4084
21
-3.46578
0
LINE
8
BLACK
6
CONTINUOUS
10
6.4084
20
-3.46578
11
6.40811
21
-3.46648
0
LINE
8
BLACK
6
CONTINUOUS
10
6.40811
20
-3.46648
11
6.40741
21
-3.46677
0
LINE
8
BLACK
6
CONTINUOUS
10
6.40741
20
-3.46677
11
6.34993
21
-3.46677
0
LINE
8
BLACK
6
CONTINUOUS
10
6.34993
20
-3.46677
11
6.34924
21
-3.46648
0
LINE
8
BLACK
6
CONTINUOUS
10
6.35092
20
-3.35023
11
6.35092
21
-3.4648
0
LINE
8
BLACK
6
CONTINUOUS
10
6.35092
20
-3.4648
11
6.40643
21
-3.4648
0
LINE
8
BLACK
6
CONTINUOUS
10
6.40643
20
-3.4648
11
6.40643
21
-3.35023
0
LINE
8
BLACK
6
CONTINUOUS
10
6.40643
20
-3.35023
11
6.35092
21
-3.35023
0
LINE
8
BLACK
6
CONTINUOUS
10
6.67971
20
-3.40695
11
6.67942
21
-3.40626
0
LINE
8
BLACK
6
CONTINUOUS
10
6.67942
20
-3.40626
11
6.67942
21
-3.34878
0
LINE
8
BLACK
6
CONTINUOUS
10
6.67942
20
-3.34878
11
6.67971
21
-3.34808
0
LINE
8
BLACK
6
CONTINUOUS
10
6.67971
20
-3.34808
11
6.68041
21
-3.34779
0
LINE
8
BLACK
6
CONTINUOUS
10
6.68041
20
-3.34779
11
6.79694
21
-3.34779
0
LINE
8
BLACK
6
CONTINUOUS
10
6.79694
20
-3.34779
11
6.79764
21
-3.34808
0
LINE
8
BLACK
6
CONTINUOUS
10
6.79764
20
-3.34808
11
6.79793
21
-3.34878
0
LINE
8
BLACK
6
CONTINUOUS
10
6.79793
20
-3.34878
11
6.79793
21
-3.40626
0
LINE
8
BLACK
6
CONTINUOUS
10
6.79793
20
-3.40626
11
6.79764
21
-3.40695
0
LINE
8
BLACK
6
CONTINUOUS
10
6.79764
20
-3.40695
11
6.79694
21
-3.40724
0
LINE
8
BLACK
6
CONTINUOUS
10
6.79694
20
-3.40724
11
6.68041
21
-3.40724
0
LINE
8
BLACK
6
CONTINUOUS
10
6.68041
20
-3.40724
11
6.67971
21
-3.40695
0
LINE
8
BLACK
6
CONTINUOUS
10
6.68139
20
-3.34976
11
6.68139
21
-3.40527
0
LINE
8
BLACK
6
CONTINUOUS
10
6.68139
20
-3.40527
11
6.79596
21
-3.40527
0
LINE
8
BLACK
6
CONTINUOUS
10
6.79596
20
-3.40527
11
6.79596
21
-3.34976
0
LINE
8
BLACK
6
CONTINUOUS
10
6.79596
20
-3.34976
11
6.68139
21
-3.34976
0
LINE
8
BLACK
6
CONTINUOUS
10
6.88924
20
-3.37597
11
6.88895
21
-3.37527
0
LINE
8
BLACK
6
CONTINUOUS
10
6.88895
20
-3.37527
11
6.88895
21
-3.25874
0
LINE
8
BLACK
6
CONTINUOUS
10
6.88895
20
-3.25874
11
6.88924
21
-3.25804
0
LINE
8
BLACK
6
CONTINUOUS
10
6.88924
20
-3.25804
11
6.88993
21
-3.25775
0
LINE
8
BLACK
6
CONTINUOUS
10
6.88993
20
-3.25775
11
6.94741
21
-3.25775
0
LINE
8
BLACK
6
CONTINUOUS
10
6.94741
20
-3.25775
11
6.94811
21
-3.25804
0
LINE
8
BLACK
6
CONTINUOUS
10
6.94811
20
-3.25804
11
6.9484
21
-3.25874
0
LINE
8
BLACK
6
CONTINUOUS
10
6.9484
20
-3.25874
11
6.9484
21
-3.37527
0
LINE
8
BLACK
6
CONTINUOUS
10
6.9484
20
-3.37527
11
6.94811
21
-3.37597
0
LINE
8
BLACK
6
CONTINUOUS
10
6.94811
20
-3.37597
11
6.94741
21
-3.37626
0
LINE
8
BLACK
6
CONTINUOUS
10
6.94741
20
-3.37626
11
6.88993
21
-3.37626
0
LINE
8
BLACK
6
CONTINUOUS
10
6.88993
20
-3.37626
11
6.88924
21
-3.37597
0
LINE
8
BLACK
6
CONTINUOUS
10
6.89092
20
-3.25972
11
6.89092
21
-3.37429
0
LINE
8
BLACK
6
CONTINUOUS
10
6.89092
20
-3.37429
11
6.94643
21
-3.37429
0
LINE
8
BLACK
6
CONTINUOUS
10
6.94643
20
-3.37429
11
6.94643
21
-3.25972
0
LINE
8
BLACK
6
CONTINUOUS
10
6.94643
20
-3.25972
11
6.89092
21
-3.25972
0
LINE
8
BLACK
6
CONTINUOUS
10
6.80924
20
-3.37597
11
6.80895
21
-3.37527
0
LINE
8
BLACK
6
CONTINUOUS
10
6.80895
20
-3.37527
11
6.80895
21
-3.25874
0
LINE
8
BLACK
6
CONTINUOUS
10
6.80895
20
-3.25874
11
6.80924
21
-3.25804
0
LINE
8
BLACK
6
CONTINUOUS
10
6.80924
20
-3.25804
11
6.80993
21
-3.25775
0
LINE
8
BLACK
6
CONTINUOUS
10
6.80993
20
-3.25775
11
6.86742
21
-3.25775
0
LINE
8
BLACK
6
CONTINUOUS
10
6.86742
20
-3.25775
11
6.86811
21
-3.25804
0
LINE
8
BLACK
6
CONTINUOUS
10
6.86811
20
-3.25804
11
6.8684
21
-3.25874
0
LINE
8
BLACK
6
CONTINUOUS
10
6.8684
20
-3.25874
11
6.8684
21
-3.37527
0
LINE
8
BLACK
6
CONTINUOUS
10
6.8684
20
-3.37527
11
6.86811
21
-3.37597
0
LINE
8
BLACK
6
CONTINUOUS
10
6.86811
20
-3.37597
11
6.86742
21
-3.37626
0
LINE
8
BLACK
6
CONTINUOUS
10
6.86742
20
-3.37626
11
6.80993
21
-3.37626
0
LINE
8
BLACK
6
CONTINUOUS
10
6.80993
20
-3.37626
11
6.80924
21
-3.37597
0
LINE
8
BLACK
6
CONTINUOUS
10
6.81092
20
-3.25972
11
6.81092
21
-3.37429
0
LINE
8
BLACK
6
CONTINUOUS
10
6.81092
20
-3.37429
11
6.86643
21
-3.37429
0
LINE
8
BLACK
6
CONTINUOUS
10
6.86643
20
-3.37429
11
6.86643
21
-3.25972
0
LINE
8
BLACK
6
CONTINUOUS
10
6.86643
20
-3.25972
11
6.81092
21
-3.25972
0
LINE
8
BLACK
6
CONTINUOUS
10
5.87971
20
-3.17695
11
5.87942
21
-3.17626
0
LINE
8
BLACK
6
CONTINUOUS
10
5.87942
20
-3.17626
11
5.87942
21
-3.11878
0
LINE
8
BLACK
6
CONTINUOUS
10
5.87942
20
-3.11878
11
5.87971
21
-3.11808
0
LINE
8
BLACK
6
CONTINUOUS
10
5.87971
20
-3.11808
11
5.88041
21
-3.11779
0
LINE
8
BLACK
6
CONTINUOUS
10
5.88041
20
-3.11779
11
5.99694
21
-3.11779
0
LINE
8
BLACK
6
CONTINUOUS
10
5.99694
20
-3.11779
11
5.99764
21
-3.11808
0
LINE
8
BLACK
6
CONTINUOUS
10
5.99764
20
-3.11808
11
5.99793
21
-3.11878
0
LINE
8
BLACK
6
CONTINUOUS
10
5.99793
20
-3.11878
11
5.99793
21
-3.17626
0
LINE
8
BLACK
6
CONTINUOUS
10
5.99793
20
-3.17626
11
5.99764
21
-3.17695
0
LINE
8
BLACK
6
CONTINUOUS
10
5.99764
20
-3.17695
11
5.99694
21
-3.17724
0
LINE
8
BLACK
6
CONTINUOUS
10
5.99694
20
-3.17724
11
5.88041
21
-3.17724
0
LINE
8
BLACK
6
CONTINUOUS
10
5.88041
20
-3.17724
11
5.87971
21
-3.17695
0
LINE
8
BLACK
6
CONTINUOUS
10
5.88139
20
-3.11976
11
5.88139
21
-3.17527
0
LINE
8
BLACK
6
CONTINUOUS
10
5.88139
20
-3.17527
11
5.99596
21
-3.17527
0
LINE
8
BLACK
6
CONTINUOUS
10
5.99596
20
-3.17527
11
5.99596
21
-3.11976
0
LINE
8
BLACK
6
CONTINUOUS
10
5.99596
20
-3.11976
11
5.88139
21
-3.11976
0
LINE
8
BLACK
6
CONTINUOUS
10
6.00924
20
-3.16648
11
6.00895
21
-3.16578
0
LINE
8
BLACK
6
CONTINUOUS
10
6.00895
20
-3.16578
11
6.00895
21
-3.04925
0
LINE
8
BLACK
6
CONTINUOUS
10
6.00895
20
-3.04925
11
6.00924
21
-3.04855
0
LINE
8
BLACK
6
CONTINUOUS
10
6.00924
20
-3.04855
11
6.00993
21
-3.04826
0
LINE
8
BLACK
6
CONTINUOUS
10
6.00993
20
-3.04826
11
6.06741
21
-3.04826
0
LINE
8
BLACK
6
CONTINUOUS
10
6.06741
20
-3.04826
11
6.06811
21
-3.04855
0
LINE
8
BLACK
6
CONTINUOUS
10
6.06811
20
-3.04855
11
6.0684
21
-3.04925
0
LINE
8
BLACK
6
CONTINUOUS
10
6.0684
20
-3.04925
11
6.0684
21
-3.16578
0
LINE
8
BLACK
6
CONTINUOUS
10
6.0684
20
-3.16578
11
6.06811
21
-3.16648
0
LINE
8
BLACK
6
CONTINUOUS
10
6.06811
20
-3.16648
11
6.06741
21
-3.16677
0
LINE
8
BLACK
6
CONTINUOUS
10
6.06741
20
-3.16677
11
6.00993
21
-3.16677
0
LINE
8
BLACK
6
CONTINUOUS
10
6.00993
20
-3.16677
11
6.00924
21
-3.16648
0
LINE
8
BLACK
6
CONTINUOUS
10
6.01092
20
-3.05023
11
6.01092
21
-3.1648
0
LINE
8
BLACK
6
CONTINUOUS
10
6.01092
20
-3.1648
11
6.06643
21
-3.1648
0
LINE
8
BLACK
6
CONTINUOUS
10
6.06643
20
-3.1648
11
6.06643
21
-3.05023
0
LINE
8
BLACK
6
CONTINUOUS
10
6.06643
20
-3.05023
11
6.01092
21
-3.05023
0
LINE
8
BLACK
6
CONTINUOUS
10
6.45924
20
-3.14648
11
6.45895
21
-3.14578
0
LINE
8
BLACK
6
CONTINUOUS
10
6.45895
20
-3.14578
11
6.45895
21
-3.02925
0
LINE
8
BLACK
6
CONTINUOUS
10
6.45895
20
-3.02925
11
6.45924
21
-3.02855
0
LINE
8
BLACK
6
CONTINUOUS
10
6.45924
20
-3.02855
11
6.45993
21
-3.02826
0
LINE
8
BLACK
6
CONTINUOUS
10
6.45993
20
-3.02826
11
6.51741
21
-3.02826
0
LINE
8
BLACK
6
CONTINUOUS
10
6.51741
20
-3.02826
11
6.51811
21
-3.02855
0
LINE
8
BLACK
6
CONTINUOUS
10
6.51811
20
-3.02855
11
6.5184
21
-3.02925
0
LINE
8
BLACK
6
CONTINUOUS
10
6.5184
20
-3.02925
11
6.5184
21
-3.14578
0
LINE
8
BLACK
6
CONTINUOUS
10
6.5184
20
-3.14578
11
6.51811
21
-3.14648
0
LINE
8
BLACK
6
CONTINUOUS
10
6.51811
20
-3.14648
11
6.51741
21
-3.14677
0
LINE
8
BLACK
6
CONTINUOUS
10
6.51741
20
-3.14677
11
6.45993
21
-3.14677
0
LINE
8
BLACK
6
CONTINUOUS
10
6.45993
20
-3.14677
11
6.45924
21
-3.14648
0
LINE
8
BLACK
6
CONTINUOUS
10
6.46092
20
-3.03023
11
6.46092
21
-3.1448
0
LINE
8
BLACK
6
CONTINUOUS
10
6.46092
20
-3.1448
11
6.51643
21
-3.1448
0
LINE
8
BLACK
6
CONTINUOUS
10
6.51643
20
-3.1448
11
6.51643
21
-3.03023
0
LINE
8
BLACK
6
CONTINUOUS
10
6.51643
20
-3.03023
11
6.46092
21
-3.03023
  0
ENDSEC
  0
EOF
