  0
SECTION
  2
HEADER
  9
$ANGBASE
  50
0.0
  9
$ANGDIR
  70
1
  9
$MEASUREMENT
  70
0
  0
ENDSEC
  0
SECTION
  2
TABLES
  0
TABLE
  2
LTYPE
  70
4
  0
LTYPE
  5
40F
  2
CONTINUOUS
  70
0
  3
Solid line
  72
65
  73
0
  40
0.0
  0
LTYPE
  5
410
  2
DASHDOT
 70
0
  3
Dash Dot ____ _ ____ _
 72
65
 73
4
 40
2.0
 49
1.25
 49
-0.25
 49
0.25
 49
-0.25
  0
LTYPE
  5
411
  2
DASHED
 70
0
  3
Dashed __ __ __ __ __
 72
65
 73
2
 40
0.75
 49
0.5
 49
-0.25
  0
LTYPE
  5
43B
  2
DOTTED
 70
0
  3
Dotted .  .  .  .
 72
65
 73
2
 40
0.2
 49
0.0
 49
-0.2
  0
ENDTAB
  0
TABLE
  2
STYLE
  70
4
  0
STYLE
  2
KICAD
  70
0
  40
0
  41
1
  42
1
  50
0
  71
0
  3
isocp.shx
  0
STYLE
  2
KICADB
  70
0
  40
0
  41
1
  42
1
  50
0
  71
0
  3
isocp.shx
  0
STYLE
  2
KICADI
  70
0
  40
0
  41
1
  42
1
  50
15
  71
0
  3
isocp.shx
  0
STYLE
  2
KICADBI
  70
0
  40
0
  41
1
  42
1
  50
15
  71
0
  3
isocp.shx
  0
ENDTAB
  0
TABLE
  2
LAYER
  70
1
  0
LAYER
  2
BLACK
  70
0
  62
7
  6
CONTINUOUS
  0
ENDTAB
  0
ENDSEC
  0
SECTION
  2
ENTITIES
0
LINE
8
BLACK
6
CONTINUOUS
10
2.28804
20
0.10954
11
2.28776
21
0.110236
0
LINE
8
BLACK
6
CONTINUOUS
10
2.28776
20
0.110236
11
2.28776
21
0.289764
0
LINE
8
BLACK
6
CONTINUOUS
10
2.28776
20
0.289764
11
2.28804
21
0.29046
0
LINE
8
BLACK
6
CONTINUOUS
10
2.28804
20
0.29046
11
2.28874
21
0.290748
0
LINE
8
BLACK
6
CONTINUOUS
10
2.28874
20
0.290748
11
2.37693
21
0.290748
0
LINE
8
BLACK
6
CONTINUOUS
10
2.37693
20
0.290748
11
2.37763
21
0.29046
0
LINE
8
BLACK
6
CONTINUOUS
10
2.37763
20
0.29046
11
2.37791
21
0.289764
0
LINE
8
BLACK
6
CONTINUOUS
10
2.37791
20
0.289764
11
2.37791
21
0.110236
0
LINE
8
BLACK
6
CONTINUOUS
10
2.37791
20
0.110236
11
2.37763
21
0.10954
0
LINE
8
BLACK
6
CONTINUOUS
10
2.37763
20
0.10954
11
2.37693
21
0.109252
0
LINE
8
BLACK
6
CONTINUOUS
10
2.37693
20
0.109252
11
2.28874
21
0.109252
0
LINE
8
BLACK
6
CONTINUOUS
10
2.28874
20
0.109252
11
2.28804
21
0.10954
0
LINE
8
BLACK
6
CONTINUOUS
10
2.28972
20
0.28878
11
2.28972
21
0.11122
0
LINE
8
BLACK
6
CONTINUOUS
10
2.28972
20
0.11122
11
2.37594
21
0.11122
0
LINE
8
BLACK
6
CONTINUOUS
10
2.37594
20
0.11122
11
2.37594
21
0.28878
0
LINE
8
BLACK
6
CONTINUOUS
10
2.37594
20
0.28878
11
2.28972
21
0.28878
0
LINE
8
BLACK
6
CONTINUOUS
10
1.89434
20
0.10954
11
1.89406
21
0.110236
0
LINE
8
BLACK
6
CONTINUOUS
10
1.89406
20
0.110236
11
1.89406
21
0.289764
0
LINE
8
BLACK
6
CONTINUOUS
10
1.89406
20
0.289764
11
1.89434
21
0.29046
0
LINE
8
BLACK
6
CONTINUOUS
10
1.89434
20
0.29046
11
1.89504
21
0.290748
0
LINE
8
BLACK
6
CONTINUOUS
10
1.89504
20
0.290748
11
1.98323
21
0.290748
0
LINE
8
BLACK
6
CONTINUOUS
10
1.98323
20
0.290748
11
1.98392
21
0.29046
0
LINE
8
BLACK
6
CONTINUOUS
10
1.98392
20
0.29046
11
1.98421
21
0.289764
0
LINE
8
BLACK
6
CONTINUOUS
10
1.98421
20
0.289764
11
1.98421
21
0.110236
0
LINE
8
BLACK
6
CONTINUOUS
10
1.98421
20
0.110236
11
1.98392
21
0.10954
0
LINE
8
BLACK
6
CONTINUOUS
10
1.98392
20
0.10954
11
1.98323
21
0.109252
0
LINE
8
BLACK
6
CONTINUOUS
10
1.98323
20
0.109252
11
1.89504
21
0.109252
0
LINE
8
BLACK
6
CONTINUOUS
10
1.89504
20
0.109252
11
1.89434
21
0.10954
0
LINE
8
BLACK
6
CONTINUOUS
10
1.89602
20
0.28878
11
1.89602
21
0.11122
0
LINE
8
BLACK
6
CONTINUOUS
10
1.89602
20
0.11122
11
1.98224
21
0.11122
0
LINE
8
BLACK
6
CONTINUOUS
10
1.98224
20
0.11122
11
1.98224
21
0.28878
0
LINE
8
BLACK
6
CONTINUOUS
10
1.98224
20
0.28878
11
1.89602
21
0.28878
0
LINE
8
BLACK
6
CONTINUOUS
10
2.09119
20
0.10954
11
2.09091
21
0.110236
0
LINE
8
BLACK
6
CONTINUOUS
10
2.09091
20
0.110236
11
2.09091
21
0.289764
0
LINE
8
BLACK
6
CONTINUOUS
10
2.09091
20
0.289764
11
2.09119
21
0.29046
0
LINE
8
BLACK
6
CONTINUOUS
10
2.09119
20
0.29046
11
2.09189
21
0.290748
0
LINE
8
BLACK
6
CONTINUOUS
10
2.09189
20
0.290748
11
2.18008
21
0.290748
0
LINE
8
BLACK
6
CONTINUOUS
10
2.18008
20
0.290748
11
2.18077
21
0.29046
0
LINE
8
BLACK
6
CONTINUOUS
10
2.18077
20
0.29046
11
2.18106
21
0.289764
0
LINE
8
BLACK
6
CONTINUOUS
10
2.18106
20
0.289764
11
2.18106
21
0.110236
0
LINE
8
BLACK
6
CONTINUOUS
10
2.18106
20
0.110236
11
2.18077
21
0.10954
0
LINE
8
BLACK
6
CONTINUOUS
10
2.18077
20
0.10954
11
2.18008
21
0.109252
0
LINE
8
BLACK
6
CONTINUOUS
10
2.18008
20
0.109252
11
2.09189
21
0.109252
0
LINE
8
BLACK
6
CONTINUOUS
10
2.09189
20
0.109252
11
2.09119
21
0.10954
0
LINE
8
BLACK
6
CONTINUOUS
10
2.09287
20
0.28878
11
2.09287
21
0.11122
0
LINE
8
BLACK
6
CONTINUOUS
10
2.09287
20
0.11122
11
2.17909
21
0.11122
0
LINE
8
BLACK
6
CONTINUOUS
10
2.17909
20
0.11122
11
2.17909
21
0.28878
0
LINE
8
BLACK
6
CONTINUOUS
10
2.17909
20
0.28878
11
2.09287
21
0.28878
0
LINE
8
BLACK
6
CONTINUOUS
10
2.48489
20
0.10954
11
2.48461
21
0.110236
0
LINE
8
BLACK
6
CONTINUOUS
10
2.48461
20
0.110236
11
2.48461
21
0.289764
0
LINE
8
BLACK
6
CONTINUOUS
10
2.48461
20
0.289764
11
2.48489
21
0.29046
0
LINE
8
BLACK
6
CONTINUOUS
10
2.48489
20
0.29046
11
2.48559
21
0.290748
0
LINE
8
BLACK
6
CONTINUOUS
10
2.48559
20
0.290748
11
2.57378
21
0.290748
0
LINE
8
BLACK
6
CONTINUOUS
10
2.57378
20
0.290748
11
2.57448
21
0.29046
0
LINE
8
BLACK
6
CONTINUOUS
10
2.57448
20
0.29046
11
2.57476
21
0.289764
0
LINE
8
BLACK
6
CONTINUOUS
10
2.57476
20
0.289764
11
2.57476
21
0.110236
0
LINE
8
BLACK
6
CONTINUOUS
10
2.57476
20
0.110236
11
2.57448
21
0.10954
0
LINE
8
BLACK
6
CONTINUOUS
10
2.57448
20
0.10954
11
2.57378
21
0.109252
0
LINE
8
BLACK
6
CONTINUOUS
10
2.57378
20
0.109252
11
2.48559
21
0.109252
0
LINE
8
BLACK
6
CONTINUOUS
10
2.48559
20
0.109252
11
2.48489
21
0.10954
0
LINE
8
BLACK
6
CONTINUOUS
10
2.48657
20
0.28878
11
2.48657
21
0.11122
0
LINE
8
BLACK
6
CONTINUOUS
10
2.48657
20
0.11122
11
2.5728
21
0.11122
0
LINE
8
BLACK
6
CONTINUOUS
10
2.5728
20
0.11122
11
2.5728
21
0.28878
0
LINE
8
BLACK
6
CONTINUOUS
10
2.5728
20
0.28878
11
2.48657
21
0.28878
0
LINE
8
BLACK
6
CONTINUOUS
10
2.68174
20
0.10954
11
2.68146
21
0.110236
0
LINE
8
BLACK
6
CONTINUOUS
10
2.68146
20
0.110236
11
2.68146
21
0.289764
0
LINE
8
BLACK
6
CONTINUOUS
10
2.68146
20
0.289764
11
2.68174
21
0.29046
0
LINE
8
BLACK
6
CONTINUOUS
10
2.68174
20
0.29046
11
2.68244
21
0.290748
0
LINE
8
BLACK
6
CONTINUOUS
10
2.68244
20
0.290748
11
2.77063
21
0.290748
0
LINE
8
BLACK
6
CONTINUOUS
10
2.77063
20
0.290748
11
2.77133
21
0.29046
0
LINE
8
BLACK
6
CONTINUOUS
10
2.77133
20
0.29046
11
2.77161
21
0.289764
0
LINE
8
BLACK
6
CONTINUOUS
10
2.77161
20
0.289764
11
2.77161
21
0.110236
0
LINE
8
BLACK
6
CONTINUOUS
10
2.77161
20
0.110236
11
2.77133
21
0.10954
0
LINE
8
BLACK
6
CONTINUOUS
10
2.77133
20
0.10954
11
2.77063
21
0.109252
0
LINE
8
BLACK
6
CONTINUOUS
10
2.77063
20
0.109252
11
2.68244
21
0.109252
0
LINE
8
BLACK
6
CONTINUOUS
10
2.68244
20
0.109252
11
2.68174
21
0.10954
0
LINE
8
BLACK
6
CONTINUOUS
10
2.68343
20
0.28878
11
2.68343
21
0.11122
0
LINE
8
BLACK
6
CONTINUOUS
10
2.68343
20
0.11122
11
2.76965
21
0.11122
0
LINE
8
BLACK
6
CONTINUOUS
10
2.76965
20
0.11122
11
2.76965
21
0.28878
0
LINE
8
BLACK
6
CONTINUOUS
10
2.76965
20
0.28878
11
2.68343
21
0.28878
0
LINE
8
BLACK
6
CONTINUOUS
10
1.94104
20
0.640564
11
1.94075
21
0.64126
0
LINE
8
BLACK
6
CONTINUOUS
10
1.94075
20
0.64126
11
1.94075
21
0.69874
0
LINE
8
BLACK
6
CONTINUOUS
10
1.94075
20
0.69874
11
1.94104
21
0.699436
0
LINE
8
BLACK
6
CONTINUOUS
10
1.94104
20
0.699436
11
1.94173
21
0.699724
0
LINE
8
BLACK
6
CONTINUOUS
10
1.94173
20
0.699724
11
2.05827
21
0.699724
0
LINE
8
BLACK
6
CONTINUOUS
10
2.05827
20
0.699724
11
2.05896
21
0.699436
0
LINE
8
BLACK
6
CONTINUOUS
10
2.05896
20
0.699436
11
2.05925
21
0.69874
0
LINE
8
BLACK
6
CONTINUOUS
10
2.05925
20
0.69874
11
2.05925
21
0.64126
0
LINE
8
BLACK
6
CONTINUOUS
10
2.05925
20
0.64126
11
2.05896
21
0.640564
0
LINE
8
BLACK
6
CONTINUOUS
10
2.05896
20
0.640564
11
2.05827
21
0.640276
0
LINE
8
BLACK
6
CONTINUOUS
10
2.05827
20
0.640276
11
1.94173
21
0.640276
0
LINE
8
BLACK
6
CONTINUOUS
10
1.94173
20
0.640276
11
1.94104
21
0.640564
0
LINE
8
BLACK
6
CONTINUOUS
10
1.94272
20
0.697756
11
1.94272
21
0.642244
0
LINE
8
BLACK
6
CONTINUOUS
10
1.94272
20
0.642244
11
2.05728
21
0.642244
0
LINE
8
BLACK
6
CONTINUOUS
10
2.05728
20
0.642244
11
2.05728
21
0.697756
0
LINE
8
BLACK
6
CONTINUOUS
10
2.05728
20
0.697756
11
1.94272
21
0.697756
0
LINE
8
BLACK
6
CONTINUOUS
10
1.94104
20
0.810564
11
1.94075
21
0.81126
0
LINE
8
BLACK
6
CONTINUOUS
10
1.94075
20
0.81126
11
1.94075
21
0.86874
0
LINE
8
BLACK
6
CONTINUOUS
10
1.94075
20
0.86874
11
1.94104
21
0.869436
0
LINE
8
BLACK
6
CONTINUOUS
10
1.94104
20
0.869436
11
1.94173
21
0.869724
0
LINE
8
BLACK
6
CONTINUOUS
10
1.94173
20
0.869724
11
2.05827
21
0.869724
0
LINE
8
BLACK
6
CONTINUOUS
10
2.05827
20
0.869724
11
2.05896
21
0.869436
0
LINE
8
BLACK
6
CONTINUOUS
10
2.05896
20
0.869436
11
2.05925
21
0.86874
0
LINE
8
BLACK
6
CONTINUOUS
10
2.05925
20
0.86874
11
2.05925
21
0.81126
0
LINE
8
BLACK
6
CONTINUOUS
10
2.05925
20
0.81126
11
2.05896
21
0.810564
0
LINE
8
BLACK
6
CONTINUOUS
10
2.05896
20
0.810564
11
2.05827
21
0.810276
0
LINE
8
BLACK
6
CONTINUOUS
10
2.05827
20
0.810276
11
1.94173
21
0.810276
0
LINE
8
BLACK
6
CONTINUOUS
10
1.94173
20
0.810276
11
1.94104
21
0.810564
0
LINE
8
BLACK
6
CONTINUOUS
10
1.94272
20
0.867756
11
1.94272
21
0.812244
0
LINE
8
BLACK
6
CONTINUOUS
10
1.94272
20
0.812244
11
2.05728
21
0.812244
0
LINE
8
BLACK
6
CONTINUOUS
10
2.05728
20
0.812244
11
2.05728
21
0.867756
0
LINE
8
BLACK
6
CONTINUOUS
10
2.05728
20
0.867756
11
1.94272
21
0.867756
0
LINE
8
BLACK
6
CONTINUOUS
10
1.94104
20
0.890564
11
1.94075
21
0.89126
0
LINE
8
BLACK
6
CONTINUOUS
10
1.94075
20
0.89126
11
1.94075
21
0.94874
0
LINE
8
BLACK
6
CONTINUOUS
10
1.94075
20
0.94874
11
1.94104
21
0.949436
0
LINE
8
BLACK
6
CONTINUOUS
10
1.94104
20
0.949436
11
1.94173
21
0.949724
0
LINE
8
BLACK
6
CONTINUOUS
10
1.94173
20
0.949724
11
2.05827
21
0.949724
0
LINE
8
BLACK
6
CONTINUOUS
10
2.05827
20
0.949724
11
2.05896
21
0.949436
0
LINE
8
BLACK
6
CONTINUOUS
10
2.05896
20
0.949436
11
2.05925
21
0.94874
0
LINE
8
BLACK
6
CONTINUOUS
10
2.05925
20
0.94874
11
2.05925
21
0.89126
0
LINE
8
BLACK
6
CONTINUOUS
10
2.05925
20
0.89126
11
2.05896
21
0.890564
0
LINE
8
BLACK
6
CONTINUOUS
10
2.05896
20
0.890564
11
2.05827
21
0.890276
0
LINE
8
BLACK
6
CONTINUOUS
10
2.05827
20
0.890276
11
1.94173
21
0.890276
0
LINE
8
BLACK
6
CONTINUOUS
10
1.94173
20
0.890276
11
1.94104
21
0.890564
0
LINE
8
BLACK
6
CONTINUOUS
10
1.94272
20
0.947756
11
1.94272
21
0.892244
0
LINE
8
BLACK
6
CONTINUOUS
10
1.94272
20
0.892244
11
2.05728
21
0.892244
0
LINE
8
BLACK
6
CONTINUOUS
10
2.05728
20
0.892244
11
2.05728
21
0.947756
0
LINE
8
BLACK
6
CONTINUOUS
10
2.05728
20
0.947756
11
1.94272
21
0.947756
0
LINE
8
BLACK
6
CONTINUOUS
10
1.94104
20
0.970564
11
1.94075
21
0.97126
0
LINE
8
BLACK
6
CONTINUOUS
10
1.94075
20
0.97126
11
1.94075
21
1.02874
0
LINE
8
BLACK
6
CONTINUOUS
10
1.94075
20
1.02874
11
1.94104
21
1.02944
0
LINE
8
BLACK
6
CONTINUOUS
10
1.94104
20
1.02944
11
1.94173
21
1.02972
0
LINE
8
BLACK
6
CONTINUOUS
10
1.94173
20
1.02972
11
2.05827
21
1.02972
0
LINE
8
BLACK
6
CONTINUOUS
10
2.05827
20
1.02972
11
2.05896
21
1.02944
0
LINE
8
BLACK
6
CONTINUOUS
10
2.05896
20
1.02944
11
2.05925
21
1.02874
0
LINE
8
BLACK
6
CONTINUOUS
10
2.05925
20
1.02874
11
2.05925
21
0.97126
0
LINE
8
BLACK
6
CONTINUOUS
10
2.05925
20
0.97126
11
2.05896
21
0.970564
0
LINE
8
BLACK
6
CONTINUOUS
10
2.05896
20
0.970564
11
2.05827
21
0.970276
0
LINE
8
BLACK
6
CONTINUOUS
10
2.05827
20
0.970276
11
1.94173
21
0.970276
0
LINE
8
BLACK
6
CONTINUOUS
10
1.94173
20
0.970276
11
1.94104
21
0.970564
0
LINE
8
BLACK
6
CONTINUOUS
10
1.94272
20
1.02776
11
1.94272
21
0.972244
0
LINE
8
BLACK
6
CONTINUOUS
10
1.94272
20
0.972244
11
2.05728
21
0.972244
0
LINE
8
BLACK
6
CONTINUOUS
10
2.05728
20
0.972244
11
2.05728
21
1.02776
0
LINE
8
BLACK
6
CONTINUOUS
10
2.05728
20
1.02776
11
1.94272
21
1.02776
0
LINE
8
BLACK
6
CONTINUOUS
10
1.53907
20
1.10757
11
1.53878
21
1.10827
0
LINE
8
BLACK
6
CONTINUOUS
10
1.53878
20
1.10827
11
1.53878
21
1.58465
0
LINE
8
BLACK
6
CONTINUOUS
10
1.53878
20
1.58465
11
1.53907
21
1.58534
0
LINE
8
BLACK
6
CONTINUOUS
10
1.53907
20
1.58534
11
1.53976
21
1.58563
0
LINE
8
BLACK
6
CONTINUOUS
10
1.53976
20
1.58563
11
1.76024
21
1.58563
0
LINE
8
BLACK
6
CONTINUOUS
10
1.76024
20
1.58563
11
1.76093
21
1.58534
0
LINE
8
BLACK
6
CONTINUOUS
10
1.76093
20
1.58534
11
1.76122
21
1.58465
0
LINE
8
BLACK
6
CONTINUOUS
10
1.76122
20
1.58465
11
1.76122
21
1.10827
0
LINE
8
BLACK
6
CONTINUOUS
10
1.76122
20
1.10827
11
1.76093
21
1.10757
0
LINE
8
BLACK
6
CONTINUOUS
10
1.76093
20
1.10757
11
1.76024
21
1.10728
0
LINE
8
BLACK
6
CONTINUOUS
10
1.76024
20
1.10728
11
1.53976
21
1.10728
0
LINE
8
BLACK
6
CONTINUOUS
10
1.53976
20
1.10728
11
1.53907
21
1.10757
0
LINE
8
BLACK
6
CONTINUOUS
10
1.54075
20
1.58366
11
1.54075
21
1.10925
0
LINE
8
BLACK
6
CONTINUOUS
10
1.54075
20
1.10925
11
1.75925
21
1.10925
0
LINE
8
BLACK
6
CONTINUOUS
10
1.75925
20
1.10925
11
1.75925
21
1.58366
0
LINE
8
BLACK
6
CONTINUOUS
10
1.75925
20
1.58366
11
1.54075
21
1.58366
0
LINE
8
BLACK
6
CONTINUOUS
10
1.94104
20
1.13056
11
1.94075
21
1.13126
0
LINE
8
BLACK
6
CONTINUOUS
10
1.94075
20
1.13126
11
1.94075
21
1.18874
0
LINE
8
BLACK
6
CONTINUOUS
10
1.94075
20
1.18874
11
1.94104
21
1.18944
0
LINE
8
BLACK
6
CONTINUOUS
10
1.94104
20
1.18944
11
1.94173
21
1.18972
0
LINE
8
BLACK
6
CONTINUOUS
10
1.94173
20
1.18972
11
2.05827
21
1.18972
0
LINE
8
BLACK
6
CONTINUOUS
10
2.05827
20
1.18972
11
2.05896
21
1.18944
0
LINE
8
BLACK
6
CONTINUOUS
10
2.05896
20
1.18944
11
2.05925
21
1.18874
0
LINE
8
BLACK
6
CONTINUOUS
10
2.05925
20
1.18874
11
2.05925
21
1.13126
0
LINE
8
BLACK
6
CONTINUOUS
10
2.05925
20
1.13126
11
2.05896
21
1.13056
0
LINE
8
BLACK
6
CONTINUOUS
10
2.05896
20
1.13056
11
2.05827
21
1.13028
0
LINE
8
BLACK
6
CONTINUOUS
10
2.05827
20
1.13028
11
1.94173
21
1.13028
0
LINE
8
BLACK
6
CONTINUOUS
10
1.94173
20
1.13028
11
1.94104
21
1.13056
0
LINE
8
BLACK
6
CONTINUOUS
10
1.94272
20
1.18776
11
1.94272
21
1.13224
0
LINE
8
BLACK
6
CONTINUOUS
10
1.94272
20
1.13224
11
2.05728
21
1.13224
0
LINE
8
BLACK
6
CONTINUOUS
10
2.05728
20
1.13224
11
2.05728
21
1.18776
0
LINE
8
BLACK
6
CONTINUOUS
10
2.05728
20
1.18776
11
1.94272
21
1.18776
0
LINE
8
BLACK
6
CONTINUOUS
10
2.00104
20
1.23056
11
2.00075
21
1.23126
0
LINE
8
BLACK
6
CONTINUOUS
10
2.00075
20
1.23126
11
2.00075
21
1.28874
0
LINE
8
BLACK
6
CONTINUOUS
10
2.00075
20
1.28874
11
2.00104
21
1.28944
0
LINE
8
BLACK
6
CONTINUOUS
10
2.00104
20
1.28944
11
2.00173
21
1.28972
0
LINE
8
BLACK
6
CONTINUOUS
10
2.00173
20
1.28972
11
2.11827
21
1.28972
0
LINE
8
BLACK
6
CONTINUOUS
10
2.11827
20
1.28972
11
2.11896
21
1.28944
0
LINE
8
BLACK
6
CONTINUOUS
10
2.11896
20
1.28944
11
2.11925
21
1.28874
0
LINE
8
BLACK
6
CONTINUOUS
10
2.11925
20
1.28874
11
2.11925
21
1.23126
0
LINE
8
BLACK
6
CONTINUOUS
10
2.11925
20
1.23126
11
2.11896
21
1.23056
0
LINE
8
BLACK
6
CONTINUOUS
10
2.11896
20
1.23056
11
2.11827
21
1.23028
0
LINE
8
BLACK
6
CONTINUOUS
10
2.11827
20
1.23028
11
2.00173
21
1.23028
0
LINE
8
BLACK
6
CONTINUOUS
10
2.00173
20
1.23028
11
2.00104
21
1.23056
0
LINE
8
BLACK
6
CONTINUOUS
10
2.00272
20
1.28776
11
2.00272
21
1.23224
0
LINE
8
BLACK
6
CONTINUOUS
10
2.00272
20
1.23224
11
2.11728
21
1.23224
0
LINE
8
BLACK
6
CONTINUOUS
10
2.11728
20
1.23224
11
2.11728
21
1.28776
0
LINE
8
BLACK
6
CONTINUOUS
10
2.11728
20
1.28776
11
2.00272
21
1.28776
0
LINE
8
BLACK
6
CONTINUOUS
10
1.49702
20
1.60033
11
1.49673
21
1.60102
0
LINE
8
BLACK
6
CONTINUOUS
10
1.49673
20
1.60102
11
1.49673
21
1.99079
0
LINE
8
BLACK
6
CONTINUOUS
10
1.49673
20
1.99079
11
1.49702
21
1.99148
0
LINE
8
BLACK
6
CONTINUOUS
10
1.49702
20
1.99148
11
1.49772
21
1.99177
0
LINE
8
BLACK
6
CONTINUOUS
10
1.49772
20
1.99177
11
1.96228
21
1.99177
0
LINE
8
BLACK
6
CONTINUOUS
10
1.96228
20
1.99177
11
1.96298
21
1.99148
0
LINE
8
BLACK
6
CONTINUOUS
10
1.96298
20
1.99148
11
1.96327
21
1.99079
0
LINE
8
BLACK
6
CONTINUOUS
10
1.96327
20
1.99079
11
1.96327
21
1.60102
0
LINE
8
BLACK
6
CONTINUOUS
10
1.96327
20
1.60102
11
1.96298
21
1.60033
0
LINE
8
BLACK
6
CONTINUOUS
10
1.96298
20
1.60033
11
1.96228
21
1.60004
0
LINE
8
BLACK
6
CONTINUOUS
10
1.96228
20
1.60004
11
1.49772
21
1.60004
0
LINE
8
BLACK
6
CONTINUOUS
10
1.49772
20
1.60004
11
1.49702
21
1.60033
0
LINE
8
BLACK
6
CONTINUOUS
10
1.4987
20
1.9898
11
1.4987
21
1.60201
0
LINE
8
BLACK
6
CONTINUOUS
10
1.4987
20
1.60201
11
1.9613
21
1.60201
0
LINE
8
BLACK
6
CONTINUOUS
10
1.9613
20
1.60201
11
1.9613
21
1.9898
0
LINE
8
BLACK
6
CONTINUOUS
10
1.9613
20
1.9898
11
1.4987
21
1.9898
0
LINE
8
BLACK
6
CONTINUOUS
10
2.68174
20
1.70954
11
2.68146
21
1.71024
0
LINE
8
BLACK
6
CONTINUOUS
10
2.68146
20
1.71024
11
2.68146
21
1.88976
0
LINE
8
BLACK
6
CONTINUOUS
10
2.68146
20
1.88976
11
2.68174
21
1.89046
0
LINE
8
BLACK
6
CONTINUOUS
10
2.68174
20
1.89046
11
2.68244
21
1.89075
0
LINE
8
BLACK
6
CONTINUOUS
10
2.68244
20
1.89075
11
2.77063
21
1.89075
0
LINE
8
BLACK
6
CONTINUOUS
10
2.77063
20
1.89075
11
2.77133
21
1.89046
0
LINE
8
BLACK
6
CONTINUOUS
10
2.77133
20
1.89046
11
2.77161
21
1.88976
0
LINE
8
BLACK
6
CONTINUOUS
10
2.77161
20
1.88976
11
2.77161
21
1.71024
0
LINE
8
BLACK
6
CONTINUOUS
10
2.77161
20
1.71024
11
2.77133
21
1.70954
0
LINE
8
BLACK
6
CONTINUOUS
10
2.77133
20
1.70954
11
2.77063
21
1.70925
0
LINE
8
BLACK
6
CONTINUOUS
10
2.77063
20
1.70925
11
2.68244
21
1.70925
0
LINE
8
BLACK
6
CONTINUOUS
10
2.68244
20
1.70925
11
2.68174
21
1.70954
0
LINE
8
BLACK
6
CONTINUOUS
10
2.68343
20
1.88878
11
2.68343
21
1.71122
0
LINE
8
BLACK
6
CONTINUOUS
10
2.68343
20
1.71122
11
2.76965
21
1.71122
0
LINE
8
BLACK
6
CONTINUOUS
10
2.76965
20
1.71122
11
2.76965
21
1.88878
0
LINE
8
BLACK
6
CONTINUOUS
10
2.76965
20
1.88878
11
2.68343
21
1.88878
  0
ENDSEC
  0
EOF
