  0
SECTION
  2
HEADER
  9
$ANGBASE
  50
0.0
  9
$ANGDIR
  70
1
  9
$MEASUREMENT
  70
0
  0
ENDSEC
  0
SECTION
  2
TABLES
  0
TABLE
  2
LTYPE
  70
4
  0
LTYPE
  5
40F
  2
CONTINUOUS
  70
0
  3
Solid line
  72
65
  73
0
  40
0.0
  0
LTYPE
  5
410
  2
DASHDOT
 70
0
  3
Dash Dot ____ _ ____ _
 72
65
 73
4
 40
2.0
 49
1.25
 49
-0.25
 49
0.25
 49
-0.25
  0
LTYPE
  5
411
  2
DASHED
 70
0
  3
Dashed __ __ __ __ __
 72
65
 73
2
 40
0.75
 49
0.5
 49
-0.25
  0
LTYPE
  5
43B
  2
DOTTED
 70
0
  3
Dotted .  .  .  .
 72
65
 73
2
 40
0.2
 49
0.0
 49
-0.2
  0
ENDTAB
  0
TABLE
  2
STYLE
  70
4
  0
STYLE
  2
KICAD
  70
0
  40
0
  41
1
  42
1
  50
0
  71
0
  3
isocp.shx
  0
STYLE
  2
KICADB
  70
0
  40
0
  41
1
  42
1
  50
0
  71
0
  3
isocp.shx
  0
STYLE
  2
KICADI
  70
0
  40
0
  41
1
  42
1
  50
15
  71
0
  3
isocp.shx
  0
STYLE
  2
KICADBI
  70
0
  40
0
  41
1
  42
1
  50
15
  71
0
  3
isocp.shx
  0
ENDTAB
  0
TABLE
  2
LAYER
  70
1
  0
LAYER
  2
BLACK
  70
0
  62
7
  6
CONTINUOUS
  0
ENDTAB
  0
ENDSEC
  0
SECTION
  2
ENTITIES
0
LINE
8
BLACK
6
CONTINUOUS
10
5.64065
20
-2.97348
11
5.65501
21
-2.97664
0
LINE
8
BLACK
6
CONTINUOUS
10
5.65501
20
-2.97664
11
5.66895
21
-2.98134
0
LINE
8
BLACK
6
CONTINUOUS
10
5.66895
20
-2.98134
11
5.6823
21
-2.98751
0
LINE
8
BLACK
6
CONTINUOUS
10
5.6823
20
-2.98751
11
5.6949
21
-2.99509
0
LINE
8
BLACK
6
CONTINUOUS
10
5.6949
20
-2.99509
11
5.70661
21
-3.00399
0
LINE
8
BLACK
6
CONTINUOUS
10
5.70661
20
-3.00399
11
5.71728
21
-3.01411
0
LINE
8
BLACK
6
CONTINUOUS
10
5.71728
20
-3.01411
11
5.72681
21
-3.02532
0
LINE
8
BLACK
6
CONTINUOUS
10
5.72681
20
-3.02532
11
5.73506
21
-3.03749
0
LINE
8
BLACK
6
CONTINUOUS
10
5.73506
20
-3.03749
11
5.74195
21
-3.05048
0
LINE
8
BLACK
6
CONTINUOUS
10
5.74195
20
-3.05048
11
5.74739
21
-3.06415
0
LINE
8
BLACK
6
CONTINUOUS
10
5.74739
20
-3.06415
11
5.75133
21
-3.07832
0
LINE
8
BLACK
6
CONTINUOUS
10
5.75133
20
-3.07832
11
5.75371
21
-3.09283
0
LINE
8
BLACK
6
CONTINUOUS
10
5.75371
20
-3.09283
11
5.7545
21
-3.10752
0
LINE
8
BLACK
6
CONTINUOUS
10
5.7545
20
-3.10752
11
5.75371
21
-3.1222
0
LINE
8
BLACK
6
CONTINUOUS
10
5.75371
20
-3.1222
11
5.75133
21
-3.13672
0
LINE
8
BLACK
6
CONTINUOUS
10
5.75133
20
-3.13672
11
5.74739
21
-3.15089
0
LINE
8
BLACK
6
CONTINUOUS
10
5.74739
20
-3.15089
11
5.74195
21
-3.16455
0
LINE
8
BLACK
6
CONTINUOUS
10
5.74195
20
-3.16455
11
5.73506
21
-3.17754
0
LINE
8
BLACK
6
CONTINUOUS
10
5.73506
20
-3.17754
11
5.72681
21
-3.18972
0
LINE
8
BLACK
6
CONTINUOUS
10
5.72681
20
-3.18972
11
5.71728
21
-3.20092
0
LINE
8
BLACK
6
CONTINUOUS
10
5.71728
20
-3.20092
11
5.70661
21
-3.21104
0
LINE
8
BLACK
6
CONTINUOUS
10
5.70661
20
-3.21104
11
5.6949
21
-3.21994
0
LINE
8
BLACK
6
CONTINUOUS
10
5.6949
20
-3.21994
11
5.6823
21
-3.22752
0
LINE
8
BLACK
6
CONTINUOUS
10
5.6823
20
-3.22752
11
5.66895
21
-3.2337
0
LINE
8
BLACK
6
CONTINUOUS
10
5.66895
20
-3.2337
11
5.65501
21
-3.23839
0
LINE
8
BLACK
6
CONTINUOUS
10
5.65501
20
-3.23839
11
5.64065
21
-3.24155
0
LINE
8
BLACK
6
CONTINUOUS
10
5.64065
20
-3.24155
11
5.62603
21
-3.24314
0
LINE
8
BLACK
6
CONTINUOUS
10
5.62603
20
-3.24314
11
5.61132
21
-3.24314
0
LINE
8
BLACK
6
CONTINUOUS
10
5.61132
20
-3.24314
11
5.5967
21
-3.24155
0
LINE
8
BLACK
6
CONTINUOUS
10
5.5967
20
-3.24155
11
5.58234
21
-3.23839
0
LINE
8
BLACK
6
CONTINUOUS
10
5.58234
20
-3.23839
11
5.5684
21
-3.2337
0
LINE
8
BLACK
6
CONTINUOUS
10
5.5684
20
-3.2337
11
5.55505
21
-3.22752
0
LINE
8
BLACK
6
CONTINUOUS
10
5.55505
20
-3.22752
11
5.54245
21
-3.21994
0
LINE
8
BLACK
6
CONTINUOUS
10
5.54245
20
-3.21994
11
5.53074
21
-3.21104
0
LINE
8
BLACK
6
CONTINUOUS
10
5.53074
20
-3.21104
11
5.52007
21
-3.20092
0
LINE
8
BLACK
6
CONTINUOUS
10
5.52007
20
-3.20092
11
5.51054
21
-3.18972
0
LINE
8
BLACK
6
CONTINUOUS
10
5.51054
20
-3.18972
11
5.50229
21
-3.17754
0
LINE
8
BLACK
6
CONTINUOUS
10
5.50229
20
-3.17754
11
5.4954
21
-3.16455
0
LINE
8
BLACK
6
CONTINUOUS
10
5.4954
20
-3.16455
11
5.48996
21
-3.15089
0
LINE
8
BLACK
6
CONTINUOUS
10
5.48996
20
-3.15089
11
5.48602
21
-3.13672
0
LINE
8
BLACK
6
CONTINUOUS
10
5.48602
20
-3.13672
11
5.48364
21
-3.1222
0
LINE
8
BLACK
6
CONTINUOUS
10
5.48364
20
-3.1222
11
5.48285
21
-3.10752
0
LINE
8
BLACK
6
CONTINUOUS
10
5.48285
20
-3.10752
11
5.48364
21
-3.09283
0
LINE
8
BLACK
6
CONTINUOUS
10
5.48364
20
-3.09283
11
5.48602
21
-3.07832
0
LINE
8
BLACK
6
CONTINUOUS
10
5.48602
20
-3.07832
11
5.48996
21
-3.06415
0
LINE
8
BLACK
6
CONTINUOUS
10
5.48996
20
-3.06415
11
5.4954
21
-3.05048
0
LINE
8
BLACK
6
CONTINUOUS
10
5.4954
20
-3.05048
11
5.50229
21
-3.03749
0
LINE
8
BLACK
6
CONTINUOUS
10
5.50229
20
-3.03749
11
5.51054
21
-3.02532
0
LINE
8
BLACK
6
CONTINUOUS
10
5.51054
20
-3.02532
11
5.52007
21
-3.01411
0
LINE
8
BLACK
6
CONTINUOUS
10
5.52007
20
-3.01411
11
5.53074
21
-3.00399
0
LINE
8
BLACK
6
CONTINUOUS
10
5.53074
20
-3.00399
11
5.54245
21
-2.99509
0
LINE
8
BLACK
6
CONTINUOUS
10
5.54245
20
-2.99509
11
5.55505
21
-2.98751
0
LINE
8
BLACK
6
CONTINUOUS
10
5.55505
20
-2.98751
11
5.5684
21
-2.98134
0
LINE
8
BLACK
6
CONTINUOUS
10
5.5684
20
-2.98134
11
5.58234
21
-2.97664
0
LINE
8
BLACK
6
CONTINUOUS
10
5.58234
20
-2.97664
11
5.5967
21
-2.97348
0
LINE
8
BLACK
6
CONTINUOUS
10
5.5967
20
-2.97348
11
5.61132
21
-2.97189
0
LINE
8
BLACK
6
CONTINUOUS
10
5.61132
20
-2.97189
11
5.62603
21
-2.97189
0
LINE
8
BLACK
6
CONTINUOUS
10
5.62603
20
-2.97189
11
5.64065
21
-2.97348
0
LINE
8
BLACK
6
CONTINUOUS
10
5.48737
20
-3.1218
11
5.48968
21
-3.13591
0
LINE
8
BLACK
6
CONTINUOUS
10
5.48968
20
-3.13591
11
5.49351
21
-3.14969
0
LINE
8
BLACK
6
CONTINUOUS
10
5.49351
20
-3.14969
11
5.4988
21
-3.16298
0
LINE
8
BLACK
6
CONTINUOUS
10
5.4988
20
-3.16298
11
5.5055
21
-3.17561
0
LINE
8
BLACK
6
CONTINUOUS
10
5.5055
20
-3.17561
11
5.51352
21
-3.18745
0
LINE
8
BLACK
6
CONTINUOUS
10
5.51352
20
-3.18745
11
5.52278
21
-3.19835
0
LINE
8
BLACK
6
CONTINUOUS
10
5.52278
20
-3.19835
11
5.53317
21
-3.20819
0
LINE
8
BLACK
6
CONTINUOUS
10
5.53317
20
-3.20819
11
5.54455
21
-3.21684
0
LINE
8
BLACK
6
CONTINUOUS
10
5.54455
20
-3.21684
11
5.55681
21
-3.22421
0
LINE
8
BLACK
6
CONTINUOUS
10
5.55681
20
-3.22421
11
5.56979
21
-3.23022
0
LINE
8
BLACK
6
CONTINUOUS
10
5.56979
20
-3.23022
11
5.58334
21
-3.23479
0
LINE
8
BLACK
6
CONTINUOUS
10
5.58334
20
-3.23479
11
5.59731
21
-3.23786
0
LINE
8
BLACK
6
CONTINUOUS
10
5.59731
20
-3.23786
11
5.61152
21
-3.23941
0
LINE
8
BLACK
6
CONTINUOUS
10
5.61152
20
-3.23941
11
5.62583
21
-3.23941
0
LINE
8
BLACK
6
CONTINUOUS
10
5.62583
20
-3.23941
11
5.64004
21
-3.23786
0
LINE
8
BLACK
6
CONTINUOUS
10
5.64004
20
-3.23786
11
5.65401
21
-3.23479
0
LINE
8
BLACK
6
CONTINUOUS
10
5.65401
20
-3.23479
11
5.66756
21
-3.23022
0
LINE
8
BLACK
6
CONTINUOUS
10
5.66756
20
-3.23022
11
5.68054
21
-3.22421
0
LINE
8
BLACK
6
CONTINUOUS
10
5.68054
20
-3.22421
11
5.6928
21
-3.21684
0
LINE
8
BLACK
6
CONTINUOUS
10
5.6928
20
-3.21684
11
5.70418
21
-3.20819
0
LINE
8
BLACK
6
CONTINUOUS
10
5.70418
20
-3.20819
11
5.71457
21
-3.19835
0
LINE
8
BLACK
6
CONTINUOUS
10
5.71457
20
-3.19835
11
5.72383
21
-3.18745
0
LINE
8
BLACK
6
CONTINUOUS
10
5.72383
20
-3.18745
11
5.73185
21
-3.17561
0
LINE
8
BLACK
6
CONTINUOUS
10
5.73185
20
-3.17561
11
5.73855
21
-3.16298
0
LINE
8
BLACK
6
CONTINUOUS
10
5.73855
20
-3.16298
11
5.74384
21
-3.14969
0
LINE
8
BLACK
6
CONTINUOUS
10
5.74384
20
-3.14969
11
5.74767
21
-3.13591
0
LINE
8
BLACK
6
CONTINUOUS
10
5.74767
20
-3.13591
11
5.74998
21
-3.1218
0
LINE
8
BLACK
6
CONTINUOUS
10
5.74998
20
-3.1218
11
5.75076
21
-3.10752
0
LINE
8
BLACK
6
CONTINUOUS
10
5.75076
20
-3.10752
11
5.74998
21
-3.09324
0
LINE
8
BLACK
6
CONTINUOUS
10
5.74998
20
-3.09324
11
5.74767
21
-3.07912
0
LINE
8
BLACK
6
CONTINUOUS
10
5.74767
20
-3.07912
11
5.74384
21
-3.06534
0
LINE
8
BLACK
6
CONTINUOUS
10
5.74384
20
-3.06534
11
5.73855
21
-3.05206
0
LINE
8
BLACK
6
CONTINUOUS
10
5.73855
20
-3.05206
11
5.73185
21
-3.03942
0
LINE
8
BLACK
6
CONTINUOUS
10
5.73185
20
-3.03942
11
5.72383
21
-3.02758
0
LINE
8
BLACK
6
CONTINUOUS
10
5.72383
20
-3.02758
11
5.71457
21
-3.01668
0
LINE
8
BLACK
6
CONTINUOUS
10
5.71457
20
-3.01668
11
5.70418
21
-3.00685
0
LINE
8
BLACK
6
CONTINUOUS
10
5.70418
20
-3.00685
11
5.6928
21
-2.99819
0
LINE
8
BLACK
6
CONTINUOUS
10
5.6928
20
-2.99819
11
5.68054
21
-2.99082
0
LINE
8
BLACK
6
CONTINUOUS
10
5.68054
20
-2.99082
11
5.66756
21
-2.98481
0
LINE
8
BLACK
6
CONTINUOUS
10
5.66756
20
-2.98481
11
5.65401
21
-2.98025
0
LINE
8
BLACK
6
CONTINUOUS
10
5.65401
20
-2.98025
11
5.64004
21
-2.97717
0
LINE
8
BLACK
6
CONTINUOUS
10
5.64004
20
-2.97717
11
5.62583
21
-2.97563
0
LINE
8
BLACK
6
CONTINUOUS
10
5.62583
20
-2.97563
11
5.61152
21
-2.97563
0
LINE
8
BLACK
6
CONTINUOUS
10
5.61152
20
-2.97563
11
5.59731
21
-2.97717
0
LINE
8
BLACK
6
CONTINUOUS
10
5.59731
20
-2.97717
11
5.58334
21
-2.98025
0
LINE
8
BLACK
6
CONTINUOUS
10
5.58334
20
-2.98025
11
5.56979
21
-2.98481
0
LINE
8
BLACK
6
CONTINUOUS
10
5.56979
20
-2.98481
11
5.55681
21
-2.99082
0
LINE
8
BLACK
6
CONTINUOUS
10
5.55681
20
-2.99082
11
5.54455
21
-2.99819
0
LINE
8
BLACK
6
CONTINUOUS
10
5.54455
20
-2.99819
11
5.53317
21
-3.00685
0
LINE
8
BLACK
6
CONTINUOUS
10
5.53317
20
-3.00685
11
5.52278
21
-3.01668
0
LINE
8
BLACK
6
CONTINUOUS
10
5.52278
20
-3.01668
11
5.51352
21
-3.02758
0
LINE
8
BLACK
6
CONTINUOUS
10
5.51352
20
-3.02758
11
5.5055
21
-3.03942
0
LINE
8
BLACK
6
CONTINUOUS
10
5.5055
20
-3.03942
11
5.4988
21
-3.05206
0
LINE
8
BLACK
6
CONTINUOUS
10
5.4988
20
-3.05206
11
5.49351
21
-3.06534
0
LINE
8
BLACK
6
CONTINUOUS
10
5.49351
20
-3.06534
11
5.48968
21
-3.07912
0
LINE
8
BLACK
6
CONTINUOUS
10
5.48968
20
-3.07912
11
5.48737
21
-3.09324
0
LINE
8
BLACK
6
CONTINUOUS
10
5.48737
20
-3.09324
11
5.48659
21
-3.10752
0
LINE
8
BLACK
6
CONTINUOUS
10
5.48659
20
-3.10752
11
5.48737
21
-3.1218
  0
ENDSEC
  0
EOF
