  0
SECTION
  2
HEADER
  9
$ANGBASE
  50
0.0
  9
$ANGDIR
  70
1
  9
$MEASUREMENT
  70
0
  0
ENDSEC
  0
SECTION
  2
TABLES
  0
TABLE
  2
LTYPE
  70
4
  0
LTYPE
  5
40F
  2
CONTINUOUS
  70
0
  3
Solid line
  72
65
  73
0
  40
0.0
  0
LTYPE
  5
410
  2
DASHDOT
 70
0
  3
Dash Dot ____ _ ____ _
 72
65
 73
4
 40
2.0
 49
1.25
 49
-0.25
 49
0.25
 49
-0.25
  0
LTYPE
  5
411
  2
DASHED
 70
0
  3
Dashed __ __ __ __ __
 72
65
 73
2
 40
0.75
 49
0.5
 49
-0.25
  0
LTYPE
  5
43B
  2
DOTTED
 70
0
  3
Dotted .  .  .  .
 72
65
 73
2
 40
0.2
 49
0.0
 49
-0.2
  0
ENDTAB
  0
TABLE
  2
STYLE
  70
4
  0
STYLE
  2
KICAD
  70
0
  40
0
  41
1
  42
1
  50
0
  71
0
  3
isocp.shx
  0
STYLE
  2
KICADB
  70
0
  40
0
  41
1
  42
1
  50
0
  71
0
  3
isocp.shx
  0
STYLE
  2
KICADI
  70
0
  40
0
  41
1
  42
1
  50
15
  71
0
  3
isocp.shx
  0
STYLE
  2
KICADBI
  70
0
  40
0
  41
1
  42
1
  50
15
  71
0
  3
isocp.shx
  0
ENDTAB
  0
TABLE
  2
LAYER
  70
1
  0
LAYER
  2
BLACK
  70
0
  62
7
  6
CONTINUOUS
  0
ENDTAB
  0
ENDSEC
  0
SECTION
  2
ENTITIES
0
LINE
8
BLACK
6
CONTINUOUS
10
4.99739
20
-4.73408
11
5.00584
21
-4.73635
0
LINE
8
BLACK
6
CONTINUOUS
10
5.00584
20
-4.73635
11
5.01377
21
-4.74005
0
LINE
8
BLACK
6
CONTINUOUS
10
5.01377
20
-4.74005
11
5.02094
21
-4.74506
0
LINE
8
BLACK
6
CONTINUOUS
10
5.02094
20
-4.74506
11
5.02713
21
-4.75125
0
LINE
8
BLACK
6
CONTINUOUS
10
5.02713
20
-4.75125
11
5.03215
21
-4.75842
0
LINE
8
BLACK
6
CONTINUOUS
10
5.03215
20
-4.75842
11
5.03584
21
-4.76635
0
LINE
8
BLACK
6
CONTINUOUS
10
5.03584
20
-4.76635
11
5.03811
21
-4.7748
0
LINE
8
BLACK
6
CONTINUOUS
10
5.03811
20
-4.7748
11
5.03887
21
-4.78352
0
LINE
8
BLACK
6
CONTINUOUS
10
5.03887
20
-4.78352
11
5.03811
21
-4.79223
0
LINE
8
BLACK
6
CONTINUOUS
10
5.03811
20
-4.79223
11
5.03584
21
-4.80069
0
LINE
8
BLACK
6
CONTINUOUS
10
5.03584
20
-4.80069
11
5.03215
21
-4.80862
0
LINE
8
BLACK
6
CONTINUOUS
10
5.03215
20
-4.80862
11
5.02713
21
-4.81578
0
LINE
8
BLACK
6
CONTINUOUS
10
5.02713
20
-4.81578
11
5.02094
21
-4.82197
0
LINE
8
BLACK
6
CONTINUOUS
10
5.02094
20
-4.82197
11
5.01377
21
-4.82699
0
LINE
8
BLACK
6
CONTINUOUS
10
5.01377
20
-4.82699
11
5.00584
21
-4.83069
0
LINE
8
BLACK
6
CONTINUOUS
10
5.00584
20
-4.83069
11
4.99739
21
-4.83295
0
LINE
8
BLACK
6
CONTINUOUS
10
4.99739
20
-4.83295
11
4.98867
21
-4.83371
0
LINE
8
BLACK
6
CONTINUOUS
10
4.98867
20
-4.83371
11
4.97996
21
-4.83295
0
LINE
8
BLACK
6
CONTINUOUS
10
4.97996
20
-4.83295
11
4.97151
21
-4.83069
0
LINE
8
BLACK
6
CONTINUOUS
10
4.97151
20
-4.83069
11
4.96358
21
-4.82699
0
LINE
8
BLACK
6
CONTINUOUS
10
4.96358
20
-4.82699
11
4.95641
21
-4.82197
0
LINE
8
BLACK
6
CONTINUOUS
10
4.95641
20
-4.82197
11
4.95022
21
-4.81578
0
LINE
8
BLACK
6
CONTINUOUS
10
4.95022
20
-4.81578
11
4.9452
21
-4.80862
0
LINE
8
BLACK
6
CONTINUOUS
10
4.9452
20
-4.80862
11
4.94151
21
-4.80069
0
LINE
8
BLACK
6
CONTINUOUS
10
4.94151
20
-4.80069
11
4.93924
21
-4.79223
0
LINE
8
BLACK
6
CONTINUOUS
10
4.93924
20
-4.79223
11
4.93848
21
-4.78352
0
LINE
8
BLACK
6
CONTINUOUS
10
4.93848
20
-4.78352
11
4.93924
21
-4.7748
0
LINE
8
BLACK
6
CONTINUOUS
10
4.93924
20
-4.7748
11
4.94151
21
-4.76635
0
LINE
8
BLACK
6
CONTINUOUS
10
4.94151
20
-4.76635
11
4.9452
21
-4.75842
0
LINE
8
BLACK
6
CONTINUOUS
10
4.9452
20
-4.75842
11
4.95022
21
-4.75125
0
LINE
8
BLACK
6
CONTINUOUS
10
4.95022
20
-4.75125
11
4.95641
21
-4.74506
0
LINE
8
BLACK
6
CONTINUOUS
10
4.95641
20
-4.74506
11
4.96358
21
-4.74005
0
LINE
8
BLACK
6
CONTINUOUS
10
4.96358
20
-4.74005
11
4.97151
21
-4.73635
0
LINE
8
BLACK
6
CONTINUOUS
10
4.97151
20
-4.73635
11
4.97996
21
-4.73408
0
LINE
8
BLACK
6
CONTINUOUS
10
4.97996
20
-4.73408
11
4.98867
21
-4.73332
0
LINE
8
BLACK
6
CONTINUOUS
10
4.98867
20
-4.73332
11
4.99739
21
-4.73408
0
LINE
8
BLACK
6
CONTINUOUS
10
4.941
20
-4.79192
11
4.94318
21
-4.80007
0
LINE
8
BLACK
6
CONTINUOUS
10
4.94318
20
-4.80007
11
4.94675
21
-4.80772
0
LINE
8
BLACK
6
CONTINUOUS
10
4.94675
20
-4.80772
11
4.95159
21
-4.81464
0
LINE
8
BLACK
6
CONTINUOUS
10
4.95159
20
-4.81464
11
4.95756
21
-4.8206
0
LINE
8
BLACK
6
CONTINUOUS
10
4.95756
20
-4.8206
11
4.96447
21
-4.82544
0
LINE
8
BLACK
6
CONTINUOUS
10
4.96447
20
-4.82544
11
4.97212
21
-4.82901
0
LINE
8
BLACK
6
CONTINUOUS
10
4.97212
20
-4.82901
11
4.98027
21
-4.83119
0
LINE
8
BLACK
6
CONTINUOUS
10
4.98027
20
-4.83119
11
4.98867
21
-4.83193
0
LINE
8
BLACK
6
CONTINUOUS
10
4.98867
20
-4.83193
11
4.99708
21
-4.83119
0
LINE
8
BLACK
6
CONTINUOUS
10
4.99708
20
-4.83119
11
5.00523
21
-4.82901
0
LINE
8
BLACK
6
CONTINUOUS
10
5.00523
20
-4.82901
11
5.01288
21
-4.82544
0
LINE
8
BLACK
6
CONTINUOUS
10
5.01288
20
-4.82544
11
5.01979
21
-4.8206
0
LINE
8
BLACK
6
CONTINUOUS
10
5.01979
20
-4.8206
11
5.02576
21
-4.81464
0
LINE
8
BLACK
6
CONTINUOUS
10
5.02576
20
-4.81464
11
5.0306
21
-4.80772
0
LINE
8
BLACK
6
CONTINUOUS
10
5.0306
20
-4.80772
11
5.03417
21
-4.80007
0
LINE
8
BLACK
6
CONTINUOUS
10
5.03417
20
-4.80007
11
5.03635
21
-4.79192
0
LINE
8
BLACK
6
CONTINUOUS
10
5.03635
20
-4.79192
11
5.03709
21
-4.78352
0
LINE
8
BLACK
6
CONTINUOUS
10
5.03709
20
-4.78352
11
5.03635
21
-4.77511
0
LINE
8
BLACK
6
CONTINUOUS
10
5.03635
20
-4.77511
11
5.03417
21
-4.76696
0
LINE
8
BLACK
6
CONTINUOUS
10
5.03417
20
-4.76696
11
5.0306
21
-4.75931
0
LINE
8
BLACK
6
CONTINUOUS
10
5.0306
20
-4.75931
11
5.02576
21
-4.7524
0
LINE
8
BLACK
6
CONTINUOUS
10
5.02576
20
-4.7524
11
5.01979
21
-4.74643
0
LINE
8
BLACK
6
CONTINUOUS
10
5.01979
20
-4.74643
11
5.01288
21
-4.74159
0
LINE
8
BLACK
6
CONTINUOUS
10
5.01288
20
-4.74159
11
5.00523
21
-4.73802
0
LINE
8
BLACK
6
CONTINUOUS
10
5.00523
20
-4.73802
11
4.99708
21
-4.73584
0
LINE
8
BLACK
6
CONTINUOUS
10
4.99708
20
-4.73584
11
4.98867
21
-4.7351
0
LINE
8
BLACK
6
CONTINUOUS
10
4.98867
20
-4.7351
11
4.98027
21
-4.73584
0
LINE
8
BLACK
6
CONTINUOUS
10
4.98027
20
-4.73584
11
4.97212
21
-4.73802
0
LINE
8
BLACK
6
CONTINUOUS
10
4.97212
20
-4.73802
11
4.96447
21
-4.74159
0
LINE
8
BLACK
6
CONTINUOUS
10
4.96447
20
-4.74159
11
4.95756
21
-4.74643
0
LINE
8
BLACK
6
CONTINUOUS
10
4.95756
20
-4.74643
11
4.95159
21
-4.7524
0
LINE
8
BLACK
6
CONTINUOUS
10
4.95159
20
-4.7524
11
4.94675
21
-4.75931
0
LINE
8
BLACK
6
CONTINUOUS
10
4.94675
20
-4.75931
11
4.94318
21
-4.76696
0
LINE
8
BLACK
6
CONTINUOUS
10
4.94318
20
-4.76696
11
4.941
21
-4.77511
0
LINE
8
BLACK
6
CONTINUOUS
10
4.941
20
-4.77511
11
4.94026
21
-4.78352
0
LINE
8
BLACK
6
CONTINUOUS
10
4.94026
20
-4.78352
11
4.941
21
-4.79192
0
LINE
8
BLACK
6
CONTINUOUS
10
5.8719
20
-4.60677
11
5.8726
21
-4.60706
0
LINE
8
BLACK
6
CONTINUOUS
10
5.8726
20
-4.60706
11
5.87289
21
-4.60775
0
LINE
8
BLACK
6
CONTINUOUS
10
5.87289
20
-4.60775
11
5.87289
21
-4.78728
0
LINE
8
BLACK
6
CONTINUOUS
10
5.87289
20
-4.78728
11
5.8726
21
-4.78798
0
LINE
8
BLACK
6
CONTINUOUS
10
5.8726
20
-4.78798
11
5.8719
21
-4.78826
0
LINE
8
BLACK
6
CONTINUOUS
10
5.8719
20
-4.78826
11
5.78371
21
-4.78826
0
LINE
8
BLACK
6
CONTINUOUS
10
5.78371
20
-4.78826
11
5.78302
21
-4.78798
0
LINE
8
BLACK
6
CONTINUOUS
10
5.78302
20
-4.78798
11
5.78273
21
-4.78728
0
LINE
8
BLACK
6
CONTINUOUS
10
5.78273
20
-4.78728
11
5.78273
21
-4.60775
0
LINE
8
BLACK
6
CONTINUOUS
10
5.78273
20
-4.60775
11
5.78302
21
-4.60706
0
LINE
8
BLACK
6
CONTINUOUS
10
5.78302
20
-4.60706
11
5.78371
21
-4.60677
0
LINE
8
BLACK
6
CONTINUOUS
10
5.78371
20
-4.60677
11
5.8719
21
-4.60677
0
LINE
8
BLACK
6
CONTINUOUS
10
5.7847
20
-4.60874
11
5.7847
21
-4.7863
0
LINE
8
BLACK
6
CONTINUOUS
10
5.7847
20
-4.7863
11
5.87092
21
-4.7863
0
LINE
8
BLACK
6
CONTINUOUS
10
5.87092
20
-4.7863
11
5.87092
21
-4.60874
0
LINE
8
BLACK
6
CONTINUOUS
10
5.87092
20
-4.60874
11
5.7847
21
-4.60874
0
LINE
8
BLACK
6
CONTINUOUS
10
6.06875
20
-4.60677
11
6.06945
21
-4.60706
0
LINE
8
BLACK
6
CONTINUOUS
10
6.06945
20
-4.60706
11
6.06974
21
-4.60775
0
LINE
8
BLACK
6
CONTINUOUS
10
6.06974
20
-4.60775
11
6.06974
21
-4.78728
0
LINE
8
BLACK
6
CONTINUOUS
10
6.06974
20
-4.78728
11
6.06945
21
-4.78798
0
LINE
8
BLACK
6
CONTINUOUS
10
6.06945
20
-4.78798
11
6.06875
21
-4.78826
0
LINE
8
BLACK
6
CONTINUOUS
10
6.06875
20
-4.78826
11
5.98056
21
-4.78826
0
LINE
8
BLACK
6
CONTINUOUS
10
5.98056
20
-4.78826
11
5.97987
21
-4.78798
0
LINE
8
BLACK
6
CONTINUOUS
10
5.97987
20
-4.78798
11
5.97958
21
-4.78728
0
LINE
8
BLACK
6
CONTINUOUS
10
5.97958
20
-4.78728
11
5.97958
21
-4.60775
0
LINE
8
BLACK
6
CONTINUOUS
10
5.97958
20
-4.60775
11
5.97987
21
-4.60706
0
LINE
8
BLACK
6
CONTINUOUS
10
5.97987
20
-4.60706
11
5.98056
21
-4.60677
0
LINE
8
BLACK
6
CONTINUOUS
10
5.98056
20
-4.60677
11
6.06875
21
-4.60677
0
LINE
8
BLACK
6
CONTINUOUS
10
5.98155
20
-4.60874
11
5.98155
21
-4.7863
0
LINE
8
BLACK
6
CONTINUOUS
10
5.98155
20
-4.7863
11
6.06777
21
-4.7863
0
LINE
8
BLACK
6
CONTINUOUS
10
6.06777
20
-4.7863
11
6.06777
21
-4.60874
0
LINE
8
BLACK
6
CONTINUOUS
10
6.06777
20
-4.60874
11
5.98155
21
-4.60874
0
LINE
8
BLACK
6
CONTINUOUS
10
6.2656
20
-4.60677
11
6.2663
21
-4.60706
0
LINE
8
BLACK
6
CONTINUOUS
10
6.2663
20
-4.60706
11
6.26659
21
-4.60775
0
LINE
8
BLACK
6
CONTINUOUS
10
6.26659
20
-4.60775
11
6.26659
21
-4.78728
0
LINE
8
BLACK
6
CONTINUOUS
10
6.26659
20
-4.78728
11
6.2663
21
-4.78798
0
LINE
8
BLACK
6
CONTINUOUS
10
6.2663
20
-4.78798
11
6.2656
21
-4.78826
0
LINE
8
BLACK
6
CONTINUOUS
10
6.2656
20
-4.78826
11
6.17741
21
-4.78826
0
LINE
8
BLACK
6
CONTINUOUS
10
6.17741
20
-4.78826
11
6.17672
21
-4.78798
0
LINE
8
BLACK
6
CONTINUOUS
10
6.17672
20
-4.78798
11
6.17643
21
-4.78728
0
LINE
8
BLACK
6
CONTINUOUS
10
6.17643
20
-4.78728
11
6.17643
21
-4.60775
0
LINE
8
BLACK
6
CONTINUOUS
10
6.17643
20
-4.60775
11
6.17672
21
-4.60706
0
LINE
8
BLACK
6
CONTINUOUS
10
6.17672
20
-4.60706
11
6.17741
21
-4.60677
0
LINE
8
BLACK
6
CONTINUOUS
10
6.17741
20
-4.60677
11
6.2656
21
-4.60677
0
LINE
8
BLACK
6
CONTINUOUS
10
6.1784
20
-4.60874
11
6.1784
21
-4.7863
0
LINE
8
BLACK
6
CONTINUOUS
10
6.1784
20
-4.7863
11
6.26462
21
-4.7863
0
LINE
8
BLACK
6
CONTINUOUS
10
6.26462
20
-4.7863
11
6.26462
21
-4.60874
0
LINE
8
BLACK
6
CONTINUOUS
10
6.26462
20
-4.60874
11
6.1784
21
-4.60874
0
LINE
8
BLACK
6
CONTINUOUS
10
6.46245
20
-4.60677
11
6.46315
21
-4.60706
0
LINE
8
BLACK
6
CONTINUOUS
10
6.46315
20
-4.60706
11
6.46344
21
-4.60775
0
LINE
8
BLACK
6
CONTINUOUS
10
6.46344
20
-4.60775
11
6.46344
21
-4.78728
0
LINE
8
BLACK
6
CONTINUOUS
10
6.46344
20
-4.78728
11
6.46315
21
-4.78798
0
LINE
8
BLACK
6
CONTINUOUS
10
6.46315
20
-4.78798
11
6.46245
21
-4.78826
0
LINE
8
BLACK
6
CONTINUOUS
10
6.46245
20
-4.78826
11
6.37427
21
-4.78826
0
LINE
8
BLACK
6
CONTINUOUS
10
6.37427
20
-4.78826
11
6.37357
21
-4.78798
0
LINE
8
BLACK
6
CONTINUOUS
10
6.37357
20
-4.78798
11
6.37328
21
-4.78728
0
LINE
8
BLACK
6
CONTINUOUS
10
6.37328
20
-4.78728
11
6.37328
21
-4.60775
0
LINE
8
BLACK
6
CONTINUOUS
10
6.37328
20
-4.60775
11
6.37357
21
-4.60706
0
LINE
8
BLACK
6
CONTINUOUS
10
6.37357
20
-4.60706
11
6.37427
21
-4.60677
0
LINE
8
BLACK
6
CONTINUOUS
10
6.37427
20
-4.60677
11
6.46245
21
-4.60677
0
LINE
8
BLACK
6
CONTINUOUS
10
6.37525
20
-4.60874
11
6.37525
21
-4.7863
0
LINE
8
BLACK
6
CONTINUOUS
10
6.37525
20
-4.7863
11
6.46147
21
-4.7863
0
LINE
8
BLACK
6
CONTINUOUS
10
6.46147
20
-4.7863
11
6.46147
21
-4.60874
0
LINE
8
BLACK
6
CONTINUOUS
10
6.46147
20
-4.60874
11
6.37525
21
-4.60874
0
LINE
8
BLACK
6
CONTINUOUS
10
6.6593
20
-4.60677
11
6.66
21
-4.60706
0
LINE
8
BLACK
6
CONTINUOUS
10
6.66
20
-4.60706
11
6.66029
21
-4.60775
0
LINE
8
BLACK
6
CONTINUOUS
10
6.66029
20
-4.60775
11
6.66029
21
-4.78728
0
LINE
8
BLACK
6
CONTINUOUS
10
6.66029
20
-4.78728
11
6.66
21
-4.78798
0
LINE
8
BLACK
6
CONTINUOUS
10
6.66
20
-4.78798
11
6.6593
21
-4.78826
0
LINE
8
BLACK
6
CONTINUOUS
10
6.6593
20
-4.78826
11
6.57112
21
-4.78826
0
LINE
8
BLACK
6
CONTINUOUS
10
6.57112
20
-4.78826
11
6.57042
21
-4.78798
0
LINE
8
BLACK
6
CONTINUOUS
10
6.57042
20
-4.78798
11
6.57013
21
-4.78728
0
LINE
8
BLACK
6
CONTINUOUS
10
6.57013
20
-4.78728
11
6.57013
21
-4.60775
0
LINE
8
BLACK
6
CONTINUOUS
10
6.57013
20
-4.60775
11
6.57042
21
-4.60706
0
LINE
8
BLACK
6
CONTINUOUS
10
6.57042
20
-4.60706
11
6.57112
21
-4.60677
0
LINE
8
BLACK
6
CONTINUOUS
10
6.57112
20
-4.60677
11
6.6593
21
-4.60677
0
LINE
8
BLACK
6
CONTINUOUS
10
6.5721
20
-4.60874
11
6.5721
21
-4.7863
0
LINE
8
BLACK
6
CONTINUOUS
10
6.5721
20
-4.7863
11
6.65832
21
-4.7863
0
LINE
8
BLACK
6
CONTINUOUS
10
6.65832
20
-4.7863
11
6.65832
21
-4.60874
0
LINE
8
BLACK
6
CONTINUOUS
10
6.65832
20
-4.60874
11
6.5721
21
-4.60874
0
LINE
8
BLACK
6
CONTINUOUS
10
5.98482
20
-4.18113
11
5.98551
21
-4.18142
0
LINE
8
BLACK
6
CONTINUOUS
10
5.98551
20
-4.18142
11
5.9858
21
-4.18212
0
LINE
8
BLACK
6
CONTINUOUS
10
5.9858
20
-4.18212
11
5.9858
21
-4.25692
0
LINE
8
BLACK
6
CONTINUOUS
10
5.9858
20
-4.25692
11
5.98551
21
-4.25761
0
LINE
8
BLACK
6
CONTINUOUS
10
5.98551
20
-4.25761
11
5.98482
21
-4.2579
0
LINE
8
BLACK
6
CONTINUOUS
10
5.98482
20
-4.2579
11
5.85253
21
-4.2579
0
LINE
8
BLACK
6
CONTINUOUS
10
5.85253
20
-4.2579
11
5.85184
21
-4.25761
0
LINE
8
BLACK
6
CONTINUOUS
10
5.85184
20
-4.25761
11
5.85155
21
-4.25692
0
LINE
8
BLACK
6
CONTINUOUS
10
5.85155
20
-4.25692
11
5.85155
21
-4.18212
0
LINE
8
BLACK
6
CONTINUOUS
10
5.85155
20
-4.18212
11
5.85184
21
-4.18142
0
LINE
8
BLACK
6
CONTINUOUS
10
5.85184
20
-4.18142
11
5.85253
21
-4.18113
0
LINE
8
BLACK
6
CONTINUOUS
10
5.85253
20
-4.18113
11
5.98482
21
-4.18113
0
LINE
8
BLACK
6
CONTINUOUS
10
5.85352
20
-4.1831
11
5.85352
21
-4.25593
0
LINE
8
BLACK
6
CONTINUOUS
10
5.85352
20
-4.25593
11
5.98383
21
-4.25593
0
LINE
8
BLACK
6
CONTINUOUS
10
5.98383
20
-4.25593
11
5.98383
21
-4.1831
0
LINE
8
BLACK
6
CONTINUOUS
10
5.98383
20
-4.1831
11
5.85352
21
-4.1831
0
LINE
8
BLACK
6
CONTINUOUS
10
5.98482
20
-3.98713
11
5.98551
21
-3.98742
0
LINE
8
BLACK
6
CONTINUOUS
10
5.98551
20
-3.98742
11
5.9858
21
-3.98812
0
LINE
8
BLACK
6
CONTINUOUS
10
5.9858
20
-3.98812
11
5.9858
21
-4.06292
0
LINE
8
BLACK
6
CONTINUOUS
10
5.9858
20
-4.06292
11
5.98551
21
-4.06361
0
LINE
8
BLACK
6
CONTINUOUS
10
5.98551
20
-4.06361
11
5.98482
21
-4.0639
0
LINE
8
BLACK
6
CONTINUOUS
10
5.98482
20
-4.0639
11
5.85253
21
-4.0639
0
LINE
8
BLACK
6
CONTINUOUS
10
5.85253
20
-4.0639
11
5.85184
21
-4.06361
0
LINE
8
BLACK
6
CONTINUOUS
10
5.85184
20
-4.06361
11
5.85155
21
-4.06292
0
LINE
8
BLACK
6
CONTINUOUS
10
5.85155
20
-4.06292
11
5.85155
21
-3.98812
0
LINE
8
BLACK
6
CONTINUOUS
10
5.85155
20
-3.98812
11
5.85184
21
-3.98742
0
LINE
8
BLACK
6
CONTINUOUS
10
5.85184
20
-3.98742
11
5.85253
21
-3.98713
0
LINE
8
BLACK
6
CONTINUOUS
10
5.85253
20
-3.98713
11
5.98482
21
-3.98713
0
LINE
8
BLACK
6
CONTINUOUS
10
5.85352
20
-3.9891
11
5.85352
21
-4.06193
0
LINE
8
BLACK
6
CONTINUOUS
10
5.85352
20
-4.06193
11
5.98383
21
-4.06193
0
LINE
8
BLACK
6
CONTINUOUS
10
5.98383
20
-4.06193
11
5.98383
21
-3.9891
0
LINE
8
BLACK
6
CONTINUOUS
10
5.98383
20
-3.9891
11
5.85352
21
-3.9891
0
LINE
8
BLACK
6
CONTINUOUS
10
5.91526
20
-3.8116
11
5.91595
21
-3.81189
0
LINE
8
BLACK
6
CONTINUOUS
10
5.91595
20
-3.81189
11
5.91624
21
-3.81259
0
LINE
8
BLACK
6
CONTINUOUS
10
5.91624
20
-3.81259
11
5.91624
21
-3.94645
0
LINE
8
BLACK
6
CONTINUOUS
10
5.91624
20
-3.94645
11
5.91595
21
-3.94714
0
LINE
8
BLACK
6
CONTINUOUS
10
5.91595
20
-3.94714
11
5.91526
21
-3.94743
0
LINE
8
BLACK
6
CONTINUOUS
10
5.91526
20
-3.94743
11
5.83809
21
-3.94743
0
LINE
8
BLACK
6
CONTINUOUS
10
5.83809
20
-3.94743
11
5.8374
21
-3.94714
0
LINE
8
BLACK
6
CONTINUOUS
10
5.8374
20
-3.94714
11
5.83711
21
-3.94645
0
LINE
8
BLACK
6
CONTINUOUS
10
5.83711
20
-3.94645
11
5.83711
21
-3.81259
0
LINE
8
BLACK
6
CONTINUOUS
10
5.83711
20
-3.81259
11
5.8374
21
-3.81189
0
LINE
8
BLACK
6
CONTINUOUS
10
5.8374
20
-3.81189
11
5.83809
21
-3.8116
0
LINE
8
BLACK
6
CONTINUOUS
10
5.83809
20
-3.8116
11
5.91526
21
-3.8116
0
LINE
8
BLACK
6
CONTINUOUS
10
5.83908
20
-3.81357
11
5.83908
21
-3.94546
0
LINE
8
BLACK
6
CONTINUOUS
10
5.83908
20
-3.94546
11
5.91427
21
-3.94546
0
LINE
8
BLACK
6
CONTINUOUS
10
5.91427
20
-3.94546
11
5.91427
21
-3.81357
0
LINE
8
BLACK
6
CONTINUOUS
10
5.91427
20
-3.81357
11
5.83908
21
-3.81357
0
LINE
8
BLACK
6
CONTINUOUS
10
5.99926
20
-3.8116
11
5.99995
21
-3.81189
0
LINE
8
BLACK
6
CONTINUOUS
10
5.99995
20
-3.81189
11
6.00024
21
-3.81259
0
LINE
8
BLACK
6
CONTINUOUS
10
6.00024
20
-3.81259
11
6.00024
21
-3.94645
0
LINE
8
BLACK
6
CONTINUOUS
10
6.00024
20
-3.94645
11
5.99995
21
-3.94714
0
LINE
8
BLACK
6
CONTINUOUS
10
5.99995
20
-3.94714
11
5.99926
21
-3.94743
0
LINE
8
BLACK
6
CONTINUOUS
10
5.99926
20
-3.94743
11
5.92209
21
-3.94743
0
LINE
8
BLACK
6
CONTINUOUS
10
5.92209
20
-3.94743
11
5.9214
21
-3.94714
0
LINE
8
BLACK
6
CONTINUOUS
10
5.9214
20
-3.94714
11
5.92111
21
-3.94645
0
LINE
8
BLACK
6
CONTINUOUS
10
5.92111
20
-3.94645
11
5.92111
21
-3.81259
0
LINE
8
BLACK
6
CONTINUOUS
10
5.92111
20
-3.81259
11
5.9214
21
-3.81189
0
LINE
8
BLACK
6
CONTINUOUS
10
5.9214
20
-3.81189
11
5.92209
21
-3.8116
0
LINE
8
BLACK
6
CONTINUOUS
10
5.92209
20
-3.8116
11
5.99926
21
-3.8116
0
LINE
8
BLACK
6
CONTINUOUS
10
5.92308
20
-3.81357
11
5.92308
21
-3.94546
0
LINE
8
BLACK
6
CONTINUOUS
10
5.92308
20
-3.94546
11
5.99827
21
-3.94546
0
LINE
8
BLACK
6
CONTINUOUS
10
5.99827
20
-3.94546
11
5.99827
21
-3.81357
0
LINE
8
BLACK
6
CONTINUOUS
10
5.99827
20
-3.81357
11
5.92308
21
-3.81357
0
LINE
8
BLACK
6
CONTINUOUS
10
5.98482
20
-3.69513
11
5.98551
21
-3.69542
0
LINE
8
BLACK
6
CONTINUOUS
10
5.98551
20
-3.69542
11
5.9858
21
-3.69612
0
LINE
8
BLACK
6
CONTINUOUS
10
5.9858
20
-3.69612
11
5.9858
21
-3.77092
0
LINE
8
BLACK
6
CONTINUOUS
10
5.9858
20
-3.77092
11
5.98551
21
-3.77161
0
LINE
8
BLACK
6
CONTINUOUS
10
5.98551
20
-3.77161
11
5.98482
21
-3.7719
0
LINE
8
BLACK
6
CONTINUOUS
10
5.98482
20
-3.7719
11
5.85253
21
-3.7719
0
LINE
8
BLACK
6
CONTINUOUS
10
5.85253
20
-3.7719
11
5.85184
21
-3.77161
0
LINE
8
BLACK
6
CONTINUOUS
10
5.85184
20
-3.77161
11
5.85155
21
-3.77092
0
LINE
8
BLACK
6
CONTINUOUS
10
5.85155
20
-3.77092
11
5.85155
21
-3.69612
0
LINE
8
BLACK
6
CONTINUOUS
10
5.85155
20
-3.69612
11
5.85184
21
-3.69542
0
LINE
8
BLACK
6
CONTINUOUS
10
5.85184
20
-3.69542
11
5.85253
21
-3.69513
0
LINE
8
BLACK
6
CONTINUOUS
10
5.85253
20
-3.69513
11
5.98482
21
-3.69513
0
LINE
8
BLACK
6
CONTINUOUS
10
5.85352
20
-3.6971
11
5.85352
21
-3.76993
0
LINE
8
BLACK
6
CONTINUOUS
10
5.85352
20
-3.76993
11
5.98383
21
-3.76993
0
LINE
8
BLACK
6
CONTINUOUS
10
5.98383
20
-3.76993
11
5.98383
21
-3.6971
0
LINE
8
BLACK
6
CONTINUOUS
10
5.98383
20
-3.6971
11
5.85352
21
-3.6971
0
LINE
8
BLACK
6
CONTINUOUS
10
5.98482
20
-3.59313
11
5.98551
21
-3.59342
0
LINE
8
BLACK
6
CONTINUOUS
10
5.98551
20
-3.59342
11
5.9858
21
-3.59412
0
LINE
8
BLACK
6
CONTINUOUS
10
5.9858
20
-3.59412
11
5.9858
21
-3.66892
0
LINE
8
BLACK
6
CONTINUOUS
10
5.9858
20
-3.66892
11
5.98551
21
-3.66961
0
LINE
8
BLACK
6
CONTINUOUS
10
5.98551
20
-3.66961
11
5.98482
21
-3.6699
0
LINE
8
BLACK
6
CONTINUOUS
10
5.98482
20
-3.6699
11
5.85253
21
-3.6699
0
LINE
8
BLACK
6
CONTINUOUS
10
5.85253
20
-3.6699
11
5.85184
21
-3.66961
0
LINE
8
BLACK
6
CONTINUOUS
10
5.85184
20
-3.66961
11
5.85155
21
-3.66892
0
LINE
8
BLACK
6
CONTINUOUS
10
5.85155
20
-3.66892
11
5.85155
21
-3.59412
0
LINE
8
BLACK
6
CONTINUOUS
10
5.85155
20
-3.59412
11
5.85184
21
-3.59342
0
LINE
8
BLACK
6
CONTINUOUS
10
5.85184
20
-3.59342
11
5.85253
21
-3.59313
0
LINE
8
BLACK
6
CONTINUOUS
10
5.85253
20
-3.59313
11
5.98482
21
-3.59313
0
LINE
8
BLACK
6
CONTINUOUS
10
5.85352
20
-3.5951
11
5.85352
21
-3.66793
0
LINE
8
BLACK
6
CONTINUOUS
10
5.85352
20
-3.66793
11
5.98383
21
-3.66793
0
LINE
8
BLACK
6
CONTINUOUS
10
5.98383
20
-3.66793
11
5.98383
21
-3.5951
0
LINE
8
BLACK
6
CONTINUOUS
10
5.98383
20
-3.5951
11
5.85352
21
-3.5951
0
LINE
8
BLACK
6
CONTINUOUS
10
5.85096
20
-2.90575
11
5.85165
21
-2.90603
0
LINE
8
BLACK
6
CONTINUOUS
10
5.85165
20
-2.90603
11
5.85194
21
-2.90673
0
LINE
8
BLACK
6
CONTINUOUS
10
5.85194
20
-2.90673
11
5.85194
21
-3.29649
0
LINE
8
BLACK
6
CONTINUOUS
10
5.85194
20
-3.29649
11
5.85165
21
-3.29719
0
LINE
8
BLACK
6
CONTINUOUS
10
5.85165
20
-3.29719
11
5.85096
21
-3.29748
0
LINE
8
BLACK
6
CONTINUOUS
10
5.85096
20
-3.29748
11
5.38639
21
-3.29748
0
LINE
8
BLACK
6
CONTINUOUS
10
5.38639
20
-3.29748
11
5.3857
21
-3.29719
0
LINE
8
BLACK
6
CONTINUOUS
10
5.3857
20
-3.29719
11
5.38541
21
-3.29649
0
LINE
8
BLACK
6
CONTINUOUS
10
5.38541
20
-3.29649
11
5.38541
21
-2.90673
0
LINE
8
BLACK
6
CONTINUOUS
10
5.38541
20
-2.90673
11
5.3857
21
-2.90603
0
LINE
8
BLACK
6
CONTINUOUS
10
5.3857
20
-2.90603
11
5.38639
21
-2.90575
0
LINE
8
BLACK
6
CONTINUOUS
10
5.38639
20
-2.90575
11
5.85096
21
-2.90575
0
LINE
8
BLACK
6
CONTINUOUS
10
5.38738
20
-2.90771
11
5.38738
21
-3.29551
0
LINE
8
BLACK
6
CONTINUOUS
10
5.38738
20
-3.29551
11
5.84997
21
-3.29551
0
LINE
8
BLACK
6
CONTINUOUS
10
5.84997
20
-3.29551
11
5.84997
21
-2.90771
0
LINE
8
BLACK
6
CONTINUOUS
10
5.84997
20
-2.90771
11
5.38738
21
-2.90771
0
LINE
8
BLACK
6
CONTINUOUS
10
6.6593
20
-3.00677
11
6.66
21
-3.00706
0
LINE
8
BLACK
6
CONTINUOUS
10
6.66
20
-3.00706
11
6.66029
21
-3.00775
0
LINE
8
BLACK
6
CONTINUOUS
10
6.66029
20
-3.00775
11
6.66029
21
-3.18728
0
LINE
8
BLACK
6
CONTINUOUS
10
6.66029
20
-3.18728
11
6.66
21
-3.18798
0
LINE
8
BLACK
6
CONTINUOUS
10
6.66
20
-3.18798
11
6.6593
21
-3.18826
0
LINE
8
BLACK
6
CONTINUOUS
10
6.6593
20
-3.18826
11
6.57112
21
-3.18826
0
LINE
8
BLACK
6
CONTINUOUS
10
6.57112
20
-3.18826
11
6.57042
21
-3.18798
0
LINE
8
BLACK
6
CONTINUOUS
10
6.57042
20
-3.18798
11
6.57013
21
-3.18728
0
LINE
8
BLACK
6
CONTINUOUS
10
6.57013
20
-3.18728
11
6.57013
21
-3.00775
0
LINE
8
BLACK
6
CONTINUOUS
10
6.57013
20
-3.00775
11
6.57042
21
-3.00706
0
LINE
8
BLACK
6
CONTINUOUS
10
6.57042
20
-3.00706
11
6.57112
21
-3.00677
0
LINE
8
BLACK
6
CONTINUOUS
10
6.57112
20
-3.00677
11
6.6593
21
-3.00677
0
LINE
8
BLACK
6
CONTINUOUS
10
6.5721
20
-3.00874
11
6.5721
21
-3.1863
0
LINE
8
BLACK
6
CONTINUOUS
10
6.5721
20
-3.1863
11
6.65832
21
-3.1863
0
LINE
8
BLACK
6
CONTINUOUS
10
6.65832
20
-3.1863
11
6.65832
21
-3.00874
0
LINE
8
BLACK
6
CONTINUOUS
10
6.65832
20
-3.00874
11
6.5721
21
-3.00874
0
LINE
8
BLACK
6
CONTINUOUS
10
6.45986
20
-2.9583
11
6.46056
21
-2.95858
0
LINE
8
BLACK
6
CONTINUOUS
10
6.46056
20
-2.95858
11
6.46085
21
-2.95928
0
LINE
8
BLACK
6
CONTINUOUS
10
6.46085
20
-2.95928
11
6.46085
21
-3.17975
0
LINE
8
BLACK
6
CONTINUOUS
10
6.46085
20
-3.17975
11
6.46056
21
-3.18045
0
LINE
8
BLACK
6
CONTINUOUS
10
6.46056
20
-3.18045
11
6.45986
21
-3.18074
0
LINE
8
BLACK
6
CONTINUOUS
10
6.45986
20
-3.18074
11
5.98349
21
-3.18074
0
LINE
8
BLACK
6
CONTINUOUS
10
5.98349
20
-3.18074
11
5.98279
21
-3.18045
0
LINE
8
BLACK
6
CONTINUOUS
10
5.98279
20
-3.18045
11
5.9825
21
-3.17975
0
LINE
8
BLACK
6
CONTINUOUS
10
5.9825
20
-3.17975
11
5.9825
21
-2.95928
0
LINE
8
BLACK
6
CONTINUOUS
10
5.9825
20
-2.95928
11
5.98279
21
-2.95858
0
LINE
8
BLACK
6
CONTINUOUS
10
5.98279
20
-2.95858
11
5.98349
21
-2.9583
0
LINE
8
BLACK
6
CONTINUOUS
10
5.98349
20
-2.9583
11
6.45986
21
-2.9583
0
LINE
8
BLACK
6
CONTINUOUS
10
5.98447
20
-2.96026
11
5.98447
21
-3.17877
0
LINE
8
BLACK
6
CONTINUOUS
10
5.98447
20
-3.17877
11
6.45888
21
-3.17877
0
LINE
8
BLACK
6
CONTINUOUS
10
6.45888
20
-3.17877
11
6.45888
21
-2.96026
0
LINE
8
BLACK
6
CONTINUOUS
10
6.45888
20
-2.96026
11
5.98447
21
-2.96026
0
LINE
8
BLACK
6
CONTINUOUS
10
7.16739
20
-3.03208
11
7.17584
21
-3.03435
0
LINE
8
BLACK
6
CONTINUOUS
10
7.17584
20
-3.03435
11
7.18377
21
-3.03805
0
LINE
8
BLACK
6
CONTINUOUS
10
7.18377
20
-3.03805
11
7.19094
21
-3.04306
0
LINE
8
BLACK
6
CONTINUOUS
10
7.19094
20
-3.04306
11
7.19713
21
-3.04925
0
LINE
8
BLACK
6
CONTINUOUS
10
7.19713
20
-3.04925
11
7.20215
21
-3.05642
0
LINE
8
BLACK
6
CONTINUOUS
10
7.20215
20
-3.05642
11
7.20584
21
-3.06435
0
LINE
8
BLACK
6
CONTINUOUS
10
7.20584
20
-3.06435
11
7.20811
21
-3.0728
0
LINE
8
BLACK
6
CONTINUOUS
10
7.20811
20
-3.0728
11
7.20887
21
-3.08152
0
LINE
8
BLACK
6
CONTINUOUS
10
7.20887
20
-3.08152
11
7.20811
21
-3.09023
0
LINE
8
BLACK
6
CONTINUOUS
10
7.20811
20
-3.09023
11
7.20584
21
-3.09869
0
LINE
8
BLACK
6
CONTINUOUS
10
7.20584
20
-3.09869
11
7.20215
21
-3.10662
0
LINE
8
BLACK
6
CONTINUOUS
10
7.20215
20
-3.10662
11
7.19713
21
-3.11378
0
LINE
8
BLACK
6
CONTINUOUS
10
7.19713
20
-3.11378
11
7.19094
21
-3.11997
0
LINE
8
BLACK
6
CONTINUOUS
10
7.19094
20
-3.11997
11
7.18377
21
-3.12499
0
LINE
8
BLACK
6
CONTINUOUS
10
7.18377
20
-3.12499
11
7.17584
21
-3.12869
0
LINE
8
BLACK
6
CONTINUOUS
10
7.17584
20
-3.12869
11
7.16739
21
-3.13095
0
LINE
8
BLACK
6
CONTINUOUS
10
7.16739
20
-3.13095
11
7.15867
21
-3.13171
0
LINE
8
BLACK
6
CONTINUOUS
10
7.15867
20
-3.13171
11
7.14996
21
-3.13095
0
LINE
8
BLACK
6
CONTINUOUS
10
7.14996
20
-3.13095
11
7.14151
21
-3.12869
0
LINE
8
BLACK
6
CONTINUOUS
10
7.14151
20
-3.12869
11
7.13358
21
-3.12499
0
LINE
8
BLACK
6
CONTINUOUS
10
7.13358
20
-3.12499
11
7.12641
21
-3.11997
0
LINE
8
BLACK
6
CONTINUOUS
10
7.12641
20
-3.11997
11
7.12022
21
-3.11378
0
LINE
8
BLACK
6
CONTINUOUS
10
7.12022
20
-3.11378
11
7.1152
21
-3.10662
0
LINE
8
BLACK
6
CONTINUOUS
10
7.1152
20
-3.10662
11
7.11151
21
-3.09869
0
LINE
8
BLACK
6
CONTINUOUS
10
7.11151
20
-3.09869
11
7.10924
21
-3.09023
0
LINE
8
BLACK
6
CONTINUOUS
10
7.10924
20
-3.09023
11
7.10848
21
-3.08152
0
LINE
8
BLACK
6
CONTINUOUS
10
7.10848
20
-3.08152
11
7.10924
21
-3.0728
0
LINE
8
BLACK
6
CONTINUOUS
10
7.10924
20
-3.0728
11
7.11151
21
-3.06435
0
LINE
8
BLACK
6
CONTINUOUS
10
7.11151
20
-3.06435
11
7.1152
21
-3.05642
0
LINE
8
BLACK
6
CONTINUOUS
10
7.1152
20
-3.05642
11
7.12022
21
-3.04925
0
LINE
8
BLACK
6
CONTINUOUS
10
7.12022
20
-3.04925
11
7.12641
21
-3.04306
0
LINE
8
BLACK
6
CONTINUOUS
10
7.12641
20
-3.04306
11
7.13358
21
-3.03805
0
LINE
8
BLACK
6
CONTINUOUS
10
7.13358
20
-3.03805
11
7.14151
21
-3.03435
0
LINE
8
BLACK
6
CONTINUOUS
10
7.14151
20
-3.03435
11
7.14996
21
-3.03208
0
LINE
8
BLACK
6
CONTINUOUS
10
7.14996
20
-3.03208
11
7.15867
21
-3.03132
0
LINE
8
BLACK
6
CONTINUOUS
10
7.15867
20
-3.03132
11
7.16739
21
-3.03208
0
LINE
8
BLACK
6
CONTINUOUS
10
7.111
20
-3.08992
11
7.11318
21
-3.09807
0
LINE
8
BLACK
6
CONTINUOUS
10
7.11318
20
-3.09807
11
7.11675
21
-3.10572
0
LINE
8
BLACK
6
CONTINUOUS
10
7.11675
20
-3.10572
11
7.12159
21
-3.11264
0
LINE
8
BLACK
6
CONTINUOUS
10
7.12159
20
-3.11264
11
7.12756
21
-3.1186
0
LINE
8
BLACK
6
CONTINUOUS
10
7.12756
20
-3.1186
11
7.13447
21
-3.12344
0
LINE
8
BLACK
6
CONTINUOUS
10
7.13447
20
-3.12344
11
7.14212
21
-3.12701
0
LINE
8
BLACK
6
CONTINUOUS
10
7.14212
20
-3.12701
11
7.15027
21
-3.12919
0
LINE
8
BLACK
6
CONTINUOUS
10
7.15027
20
-3.12919
11
7.15867
21
-3.12993
0
LINE
8
BLACK
6
CONTINUOUS
10
7.15867
20
-3.12993
11
7.16708
21
-3.12919
0
LINE
8
BLACK
6
CONTINUOUS
10
7.16708
20
-3.12919
11
7.17523
21
-3.12701
0
LINE
8
BLACK
6
CONTINUOUS
10
7.17523
20
-3.12701
11
7.18288
21
-3.12344
0
LINE
8
BLACK
6
CONTINUOUS
10
7.18288
20
-3.12344
11
7.18979
21
-3.1186
0
LINE
8
BLACK
6
CONTINUOUS
10
7.18979
20
-3.1186
11
7.19576
21
-3.11264
0
LINE
8
BLACK
6
CONTINUOUS
10
7.19576
20
-3.11264
11
7.2006
21
-3.10572
0
LINE
8
BLACK
6
CONTINUOUS
10
7.2006
20
-3.10572
11
7.20417
21
-3.09807
0
LINE
8
BLACK
6
CONTINUOUS
10
7.20417
20
-3.09807
11
7.20635
21
-3.08992
0
LINE
8
BLACK
6
CONTINUOUS
10
7.20635
20
-3.08992
11
7.20709
21
-3.08152
0
LINE
8
BLACK
6
CONTINUOUS
10
7.20709
20
-3.08152
11
7.20635
21
-3.07311
0
LINE
8
BLACK
6
CONTINUOUS
10
7.20635
20
-3.07311
11
7.20417
21
-3.06496
0
LINE
8
BLACK
6
CONTINUOUS
10
7.20417
20
-3.06496
11
7.2006
21
-3.05731
0
LINE
8
BLACK
6
CONTINUOUS
10
7.2006
20
-3.05731
11
7.19576
21
-3.0504
0
LINE
8
BLACK
6
CONTINUOUS
10
7.19576
20
-3.0504
11
7.18979
21
-3.04443
0
LINE
8
BLACK
6
CONTINUOUS
10
7.18979
20
-3.04443
11
7.18288
21
-3.03959
0
LINE
8
BLACK
6
CONTINUOUS
10
7.18288
20
-3.03959
11
7.17523
21
-3.03602
0
LINE
8
BLACK
6
CONTINUOUS
10
7.17523
20
-3.03602
11
7.16708
21
-3.03384
0
LINE
8
BLACK
6
CONTINUOUS
10
7.16708
20
-3.03384
11
7.15867
21
-3.0331
0
LINE
8
BLACK
6
CONTINUOUS
10
7.15867
20
-3.0331
11
7.15027
21
-3.03384
0
LINE
8
BLACK
6
CONTINUOUS
10
7.15027
20
-3.03384
11
7.14212
21
-3.03602
0
LINE
8
BLACK
6
CONTINUOUS
10
7.14212
20
-3.03602
11
7.13447
21
-3.03959
0
LINE
8
BLACK
6
CONTINUOUS
10
7.13447
20
-3.03959
11
7.12756
21
-3.04443
0
LINE
8
BLACK
6
CONTINUOUS
10
7.12756
20
-3.04443
11
7.12159
21
-3.0504
0
LINE
8
BLACK
6
CONTINUOUS
10
7.12159
20
-3.0504
11
7.11675
21
-3.05731
0
LINE
8
BLACK
6
CONTINUOUS
10
7.11675
20
-3.05731
11
7.11318
21
-3.06496
0
LINE
8
BLACK
6
CONTINUOUS
10
7.11318
20
-3.06496
11
7.111
21
-3.07311
0
LINE
8
BLACK
6
CONTINUOUS
10
7.111
20
-3.07311
11
7.11026
21
-3.08152
0
LINE
8
BLACK
6
CONTINUOUS
10
7.11026
20
-3.08152
11
7.111
21
-3.08992
  0
ENDSEC
  0
EOF
