  0
SECTION
  2
HEADER
  9
$ANGBASE
  50
0.0
  9
$ANGDIR
  70
1
  9
$MEASUREMENT
  70
0
  0
ENDSEC
  0
SECTION
  2
TABLES
  0
TABLE
  2
LTYPE
  70
4
  0
LTYPE
  5
40F
  2
CONTINUOUS
  70
0
  3
Solid line
  72
65
  73
0
  40
0.0
  0
LTYPE
  5
410
  2
DASHDOT
 70
0
  3
Dash Dot ____ _ ____ _
 72
65
 73
4
 40
2.0
 49
1.25
 49
-0.25
 49
0.25
 49
-0.25
  0
LTYPE
  5
411
  2
DASHED
 70
0
  3
Dashed __ __ __ __ __
 72
65
 73
2
 40
0.75
 49
0.5
 49
-0.25
  0
LTYPE
  5
43B
  2
DOTTED
 70
0
  3
Dotted .  .  .  .
 72
65
 73
2
 40
0.2
 49
0.0
 49
-0.2
  0
ENDTAB
  0
TABLE
  2
STYLE
  70
4
  0
STYLE
  2
KICAD
  70
0
  40
0
  41
1
  42
1
  50
0
  71
0
  3
isocp.shx
  0
STYLE
  2
KICADB
  70
0
  40
0
  41
1
  42
1
  50
0
  71
0
  3
isocp.shx
  0
STYLE
  2
KICADI
  70
0
  40
0
  41
1
  42
1
  50
15
  71
0
  3
isocp.shx
  0
STYLE
  2
KICADBI
  70
0
  40
0
  41
1
  42
1
  50
15
  71
0
  3
isocp.shx
  0
ENDTAB
  0
TABLE
  2
LAYER
  70
1
  0
LAYER
  2
BLACK
  70
0
  62
7
  6
CONTINUOUS
  0
ENDTAB
  0
ENDSEC
  0
SECTION
  2
ENTITIES
0
LINE
8
BLACK
6
CONTINUOUS
10
0.971919
20
1.9706
11
0.972048
21
1.97062
0
LINE
8
BLACK
6
CONTINUOUS
10
0.972048
20
1.97062
11
0.972162
21
1.97056
0
LINE
8
BLACK
6
CONTINUOUS
10
0.972162
20
1.97056
11
0.972545
21
1.97049
0
LINE
8
BLACK
6
CONTINUOUS
10
0.972545
20
1.97049
11
0.973133
21
1.97
0
LINE
8
BLACK
6
CONTINUOUS
10
0.973133
20
1.97
11
0.973797
21
1.96961
0
LINE
8
BLACK
6
CONTINUOUS
10
0.973797
20
1.96961
11
0.973888
21
1.96936
0
LINE
8
BLACK
6
CONTINUOUS
10
0.973888
20
1.96936
11
0.974093
21
1.96919
0
LINE
8
BLACK
6
CONTINUOUS
10
0.974093
20
1.96919
11
0.974226
21
1.96844
0
LINE
8
BLACK
6
CONTINUOUS
10
0.974226
20
1.96844
11
0.974488
21
1.96772
0
LINE
8
BLACK
6
CONTINUOUS
10
0.974488
20
1.96772
11
0.974488
21
1.63339
0
LINE
8
BLACK
6
CONTINUOUS
10
0.974488
20
1.63339
11
1.10067
21
1.63339
0
LINE
8
BLACK
6
CONTINUOUS
10
1.10067
20
1.63339
11
1.10067
21
1.59402
0
LINE
8
BLACK
6
CONTINUOUS
10
1.10067
20
1.59402
11
0.974488
21
1.59402
0
LINE
8
BLACK
6
CONTINUOUS
10
0.974488
20
1.59402
11
0.974488
21
0.381417
0
LINE
8
BLACK
6
CONTINUOUS
10
0.974488
20
0.381417
11
1.10067
21
0.381417
0
LINE
8
BLACK
6
CONTINUOUS
10
1.10067
20
0.381417
11
1.10067
21
0.342047
0
LINE
8
BLACK
6
CONTINUOUS
10
1.10067
20
0.342047
11
0.974488
21
0.342047
0
LINE
8
BLACK
6
CONTINUOUS
10
0.974488
20
0.342047
11
0.974488
21
0.00771654
0
LINE
8
BLACK
6
CONTINUOUS
10
0.974488
20
0.00771654
11
0.974421
21
0.00733299
0
LINE
8
BLACK
6
CONTINUOUS
10
0.974421
20
0.00733299
11
0.974443
21
0.00720378
0
LINE
8
BLACK
6
CONTINUOUS
10
0.974443
20
0.00720378
11
0.974378
21
0.00709016
0
LINE
8
BLACK
6
CONTINUOUS
10
0.974378
20
0.00709016
11
0.97431
21
0.00670661
0
LINE
8
BLACK
6
CONTINUOUS
10
0.97431
20
0.00670661
11
0.973817
21
0.00611894
0
LINE
8
BLACK
6
CONTINUOUS
10
0.973817
20
0.00611894
11
0.973433
21
0.00545461
0
LINE
8
BLACK
6
CONTINUOUS
10
0.973433
20
0.00545461
11
0.973183
21
0.0053635
0
LINE
8
BLACK
6
CONTINUOUS
10
0.973183
20
0.0053635
11
0.973012
21
0.00515937
0
LINE
8
BLACK
6
CONTINUOUS
10
0.973012
20
0.00515937
11
0.972256
21
0.00502614
0
LINE
8
BLACK
6
CONTINUOUS
10
0.972256
20
0.00502614
11
0.971535
21
0.00476378
0
LINE
8
BLACK
6
CONTINUOUS
10
0.971535
20
0.00476378
11
0.0115354
21
0.00476378
0
LINE
8
BLACK
6
CONTINUOUS
10
0.0115354
20
0.00476378
11
0.0111519
21
0.00483142
0
LINE
8
BLACK
6
CONTINUOUS
10
0.0111519
20
0.00483142
11
0.0110227
21
0.00480862
0
LINE
8
BLACK
6
CONTINUOUS
10
0.0110227
20
0.00480862
11
0.0109091
21
0.00487421
0
LINE
8
BLACK
6
CONTINUOUS
10
0.0109091
20
0.00487421
11
0.0105255
21
0.00494185
0
LINE
8
BLACK
6
CONTINUOUS
10
0.0105255
20
0.00494185
11
0.00993783
21
0.005435
0
LINE
8
BLACK
6
CONTINUOUS
10
0.00993783
20
0.005435
11
0.0092735
21
0.00581854
0
LINE
8
BLACK
6
CONTINUOUS
10
0.0092735
20
0.00581854
11
0.0091824
21
0.0060689
0
LINE
8
BLACK
6
CONTINUOUS
10
0.0091824
20
0.0060689
11
0.00897827
21
0.00624016
0
LINE
8
BLACK
6
CONTINUOUS
10
0.00897827
20
0.00624016
11
0.00884504
21
0.00699571
0
LINE
8
BLACK
6
CONTINUOUS
10
0.00884504
20
0.00699571
11
0.00858268
21
0.00771654
0
LINE
8
BLACK
6
CONTINUOUS
10
0.00858268
20
0.00771654
11
0.00858268
21
1.96772
0
LINE
8
BLACK
6
CONTINUOUS
10
0.00858268
20
1.96772
11
0.00865031
21
1.9681
0
LINE
8
BLACK
6
CONTINUOUS
10
0.00865031
20
1.9681
11
0.00862752
21
1.96823
0
LINE
8
BLACK
6
CONTINUOUS
10
0.00862752
20
1.96823
11
0.00869311
21
1.96834
0
LINE
8
BLACK
6
CONTINUOUS
10
0.00869311
20
1.96834
11
0.00876075
21
1.96873
0
LINE
8
BLACK
6
CONTINUOUS
10
0.00876075
20
1.96873
11
0.0092539
21
1.96931
0
LINE
8
BLACK
6
CONTINUOUS
10
0.0092539
20
1.96931
11
0.00963744
21
1.96998
0
LINE
8
BLACK
6
CONTINUOUS
10
0.00963744
20
1.96998
11
0.0098878
21
1.97007
0
LINE
8
BLACK
6
CONTINUOUS
10
0.0098878
20
1.97007
11
0.0100591
21
1.97027
0
LINE
8
BLACK
6
CONTINUOUS
10
0.0100591
20
1.97027
11
0.0108146
21
1.97041
0
LINE
8
BLACK
6
CONTINUOUS
10
0.0108146
20
1.97041
11
0.0115354
21
1.97067
0
LINE
8
BLACK
6
CONTINUOUS
10
0.0115354
20
1.97067
11
0.971535
21
1.97067
0
LINE
8
BLACK
6
CONTINUOUS
10
0.971535
20
1.97067
11
0.971919
21
1.9706
0
LINE
8
BLACK
6
CONTINUOUS
10
3.40019
20
0.30551
11
3.41367
21
0.303735
0
LINE
8
BLACK
6
CONTINUOUS
10
3.41367
20
0.303735
11
3.42686
21
0.300422
0
LINE
8
BLACK
6
CONTINUOUS
10
3.42686
20
0.300422
11
3.43958
21
0.295616
0
LINE
8
BLACK
6
CONTINUOUS
10
3.43958
20
0.295616
11
3.45166
21
0.289379
0
LINE
8
BLACK
6
CONTINUOUS
10
3.45166
20
0.289379
11
3.46294
21
0.281795
0
LINE
8
BLACK
6
CONTINUOUS
10
3.46294
20
0.281795
11
3.47328
21
0.272964
0
LINE
8
BLACK
6
CONTINUOUS
10
3.47328
20
0.272964
11
3.48254
21
0.263003
0
LINE
8
BLACK
6
CONTINUOUS
10
3.48254
20
0.263003
11
3.49059
21
0.252044
0
LINE
8
BLACK
6
CONTINUOUS
10
3.49059
20
0.252044
11
3.49733
21
0.240233
0
LINE
8
BLACK
6
CONTINUOUS
10
3.49733
20
0.240233
11
3.50266
21
0.227725
0
LINE
8
BLACK
6
CONTINUOUS
10
3.50266
20
0.227725
11
3.50653
21
0.214687
0
LINE
8
BLACK
6
CONTINUOUS
10
3.50653
20
0.214687
11
3.50886
21
0.201292
0
LINE
8
BLACK
6
CONTINUOUS
10
3.50886
20
0.201292
11
3.50965
21
0.187717
0
LINE
8
BLACK
6
CONTINUOUS
10
3.50965
20
0.187717
11
3.50941
21
0.1803
0
LINE
8
BLACK
6
CONTINUOUS
10
3.50941
20
0.1803
11
3.50778
21
0.166801
0
LINE
8
BLACK
6
CONTINUOUS
10
3.50778
20
0.166801
11
3.5046
21
0.153579
0
LINE
8
BLACK
6
CONTINUOUS
10
3.5046
20
0.153579
11
3.49993
21
0.140809
0
LINE
8
BLACK
6
CONTINUOUS
10
3.49993
20
0.140809
11
3.49382
21
0.128661
0
LINE
8
BLACK
6
CONTINUOUS
10
3.49382
20
0.128661
11
3.48636
21
0.117296
0
LINE
8
BLACK
6
CONTINUOUS
10
3.48636
20
0.117296
11
3.47763
21
0.106865
0
LINE
8
BLACK
6
CONTINUOUS
10
3.47763
20
0.106865
11
3.46777
21
0.0975044
0
LINE
8
BLACK
6
CONTINUOUS
10
3.46777
20
0.0975044
11
3.4569
21
0.08934
0
LINE
8
BLACK
6
CONTINUOUS
10
3.4569
20
0.08934
11
3.44516
21
0.0824795
0
LINE
8
BLACK
6
CONTINUOUS
10
3.44516
20
0.0824795
11
3.43271
21
0.0770139
0
LINE
8
BLACK
6
CONTINUOUS
10
3.43271
20
0.0770139
11
3.41971
21
0.0730156
0
LINE
8
BLACK
6
CONTINUOUS
10
3.41971
20
0.0730156
11
3.40634
21
0.0705376
0
LINE
8
BLACK
6
CONTINUOUS
10
3.40634
20
0.0705376
11
3.39277
21
0.0696128
0
LINE
8
BLACK
6
CONTINUOUS
10
3.39277
20
0.0696128
11
3.37919
21
0.0702533
0
LINE
8
BLACK
6
CONTINUOUS
10
3.37919
20
0.0702533
11
3.36577
21
0.0724508
0
LINE
8
BLACK
6
CONTINUOUS
10
3.36577
20
0.0724508
11
3.35269
21
0.076176
0
LINE
8
BLACK
6
CONTINUOUS
10
3.35269
20
0.076176
11
3.34013
21
0.0813797
0
LINE
8
BLACK
6
CONTINUOUS
10
3.34013
20
0.0813797
11
3.32825
21
0.0879928
0
LINE
8
BLACK
6
CONTINUOUS
10
3.32825
20
0.0879928
11
3.31721
21
0.0959276
0
LINE
8
BLACK
6
CONTINUOUS
10
3.31721
20
0.0959276
11
3.30715
21
0.105079
0
LINE
8
BLACK
6
CONTINUOUS
10
3.30715
20
0.105079
11
3.29821
21
0.115326
0
LINE
8
BLACK
6
CONTINUOUS
10
3.29821
20
0.115326
11
3.29051
21
0.126532
0
LINE
8
BLACK
6
CONTINUOUS
10
3.29051
20
0.126532
11
3.28415
21
0.13855
0
LINE
8
BLACK
6
CONTINUOUS
10
3.28415
20
0.13855
11
3.27921
21
0.151218
0
LINE
8
BLACK
6
CONTINUOUS
10
3.27921
20
0.151218
11
3.27576
21
0.164371
0
LINE
8
BLACK
6
CONTINUOUS
10
3.27576
20
0.164371
11
3.27384
21
0.177833
0
LINE
8
BLACK
6
CONTINUOUS
10
3.27384
20
0.177833
11
3.27348
21
0.191426
0
LINE
8
BLACK
6
CONTINUOUS
10
3.27348
20
0.191426
11
3.27469
21
0.20497
0
LINE
8
BLACK
6
CONTINUOUS
10
3.27469
20
0.20497
11
3.27745
21
0.218286
0
LINE
8
BLACK
6
CONTINUOUS
10
3.27745
20
0.218286
11
3.28172
21
0.231196
0
LINE
8
BLACK
6
CONTINUOUS
10
3.28172
20
0.231196
11
3.28744
21
0.24353
0
LINE
8
BLACK
6
CONTINUOUS
10
3.28744
20
0.24353
11
3.29455
21
0.255124
0
LINE
8
BLACK
6
CONTINUOUS
10
3.29455
20
0.255124
11
3.30294
21
0.265824
0
LINE
8
BLACK
6
CONTINUOUS
10
3.30294
20
0.265824
11
3.3125
21
0.27549
0
LINE
8
BLACK
6
CONTINUOUS
10
3.3125
20
0.27549
11
3.32312
21
0.283991
0
LINE
8
BLACK
6
CONTINUOUS
10
3.32312
20
0.283991
11
3.33464
21
0.291217
0
LINE
8
BLACK
6
CONTINUOUS
10
3.33464
20
0.291217
11
3.34691
21
0.297071
0
LINE
8
BLACK
6
CONTINUOUS
10
3.34691
20
0.297071
11
3.35977
21
0.301476
0
LINE
8
BLACK
6
CONTINUOUS
10
3.35977
20
0.301476
11
3.37306
21
0.304373
0
LINE
8
BLACK
6
CONTINUOUS
10
3.37306
20
0.304373
11
3.38659
21
0.305723
0
LINE
8
BLACK
6
CONTINUOUS
10
3.38659
20
0.305723
11
3.40019
21
0.30551
0
LINE
8
BLACK
6
CONTINUOUS
10
1.18728
20
0.342047
11
1.18728
21
0.381417
0
LINE
8
BLACK
6
CONTINUOUS
10
1.18728
20
0.381417
11
1.27783
21
0.381417
0
LINE
8
BLACK
6
CONTINUOUS
10
1.27783
20
0.381417
11
1.27783
21
0.471969
0
LINE
8
BLACK
6
CONTINUOUS
10
1.27783
20
0.471969
11
1.3172
21
0.471969
0
LINE
8
BLACK
6
CONTINUOUS
10
1.3172
20
0.471969
11
1.3172
21
0.342047
0
LINE
8
BLACK
6
CONTINUOUS
10
1.3172
20
0.342047
11
1.18728
21
0.342047
0
LINE
8
BLACK
6
CONTINUOUS
10
2.74256
20
0.375433
11
2.59295
21
0.375433
0
LINE
8
BLACK
6
CONTINUOUS
10
2.59295
20
0.375433
11
2.59295
21
0.414803
0
LINE
8
BLACK
6
CONTINUOUS
10
2.59295
20
0.414803
11
2.74256
21
0.414803
0
LINE
8
BLACK
6
CONTINUOUS
10
2.74256
20
0.414803
11
2.74256
21
0.375433
0
LINE
8
BLACK
6
CONTINUOUS
10
2.27012
20
0.375433
11
2.12051
21
0.375433
0
LINE
8
BLACK
6
CONTINUOUS
10
2.12051
20
0.375433
11
2.12051
21
0.414803
0
LINE
8
BLACK
6
CONTINUOUS
10
2.12051
20
0.414803
11
2.27012
21
0.414803
0
LINE
8
BLACK
6
CONTINUOUS
10
2.27012
20
0.414803
11
2.27012
21
0.375433
0
LINE
8
BLACK
6
CONTINUOUS
10
1.79768
20
0.375433
11
1.64807
21
0.375433
0
LINE
8
BLACK
6
CONTINUOUS
10
1.64807
20
0.375433
11
1.64807
21
0.414803
0
LINE
8
BLACK
6
CONTINUOUS
10
1.64807
20
0.414803
11
1.79768
21
0.414803
0
LINE
8
BLACK
6
CONTINUOUS
10
1.79768
20
0.414803
11
1.79768
21
0.375433
0
LINE
8
BLACK
6
CONTINUOUS
10
2.97878
20
0.375433
11
2.82917
21
0.375433
0
LINE
8
BLACK
6
CONTINUOUS
10
2.82917
20
0.375433
11
2.82917
21
0.414803
0
LINE
8
BLACK
6
CONTINUOUS
10
2.82917
20
0.414803
11
2.97878
21
0.414803
0
LINE
8
BLACK
6
CONTINUOUS
10
2.97878
20
0.414803
11
2.97878
21
0.375433
0
LINE
8
BLACK
6
CONTINUOUS
10
2.50634
20
0.375433
11
2.35673
21
0.375433
0
LINE
8
BLACK
6
CONTINUOUS
10
2.35673
20
0.375433
11
2.35673
21
0.414803
0
LINE
8
BLACK
6
CONTINUOUS
10
2.35673
20
0.414803
11
2.50634
21
0.414803
0
LINE
8
BLACK
6
CONTINUOUS
10
2.50634
20
0.414803
11
2.50634
21
0.375433
0
LINE
8
BLACK
6
CONTINUOUS
10
1.56146
20
0.375433
11
1.43154
21
0.375433
0
LINE
8
BLACK
6
CONTINUOUS
10
1.43154
20
0.375433
11
1.43154
21
0.475827
0
LINE
8
BLACK
6
CONTINUOUS
10
1.43154
20
0.475827
11
1.56146
21
0.475827
0
LINE
8
BLACK
6
CONTINUOUS
10
1.56146
20
0.475827
11
1.56146
21
0.375433
0
LINE
8
BLACK
6
CONTINUOUS
10
3.19531
20
0.375433
11
3.06539
21
0.375433
0
LINE
8
BLACK
6
CONTINUOUS
10
3.06539
20
0.375433
11
3.06539
21
0.475827
0
LINE
8
BLACK
6
CONTINUOUS
10
3.06539
20
0.475827
11
3.19531
21
0.475827
0
LINE
8
BLACK
6
CONTINUOUS
10
3.19531
20
0.475827
11
3.19531
21
0.375433
0
LINE
8
BLACK
6
CONTINUOUS
10
2.0339
20
0.375433
11
1.88429
21
0.375433
0
LINE
8
BLACK
6
CONTINUOUS
10
1.88429
20
0.375433
11
1.88429
21
0.414803
0
LINE
8
BLACK
6
CONTINUOUS
10
1.88429
20
0.414803
11
2.0339
21
0.414803
0
LINE
8
BLACK
6
CONTINUOUS
10
2.0339
20
0.414803
11
2.0339
21
0.375433
0
LINE
8
BLACK
6
CONTINUOUS
10
1.3172
20
0.558583
11
1.27783
21
0.558583
0
LINE
8
BLACK
6
CONTINUOUS
10
1.27783
20
0.558583
11
1.27783
21
0.708189
0
LINE
8
BLACK
6
CONTINUOUS
10
1.27783
20
0.708189
11
1.3172
21
0.708189
0
LINE
8
BLACK
6
CONTINUOUS
10
1.3172
20
0.708189
11
1.3172
21
0.558583
0
LINE
8
BLACK
6
CONTINUOUS
10
3.19531
20
0.562441
11
3.15594
21
0.562441
0
LINE
8
BLACK
6
CONTINUOUS
10
3.15594
20
0.562441
11
3.15594
21
0.712047
0
LINE
8
BLACK
6
CONTINUOUS
10
3.15594
20
0.712047
11
3.19531
21
0.712047
0
LINE
8
BLACK
6
CONTINUOUS
10
3.19531
20
0.712047
11
3.19531
21
0.562441
0
LINE
8
BLACK
6
CONTINUOUS
10
1.47091
20
0.562441
11
1.43154
21
0.562441
0
LINE
8
BLACK
6
CONTINUOUS
10
1.43154
20
0.562441
11
1.43154
21
0.712047
0
LINE
8
BLACK
6
CONTINUOUS
10
1.43154
20
0.712047
11
1.47091
21
0.712047
0
LINE
8
BLACK
6
CONTINUOUS
10
1.47091
20
0.712047
11
1.47091
21
0.562441
0
LINE
8
BLACK
6
CONTINUOUS
10
3.19531
20
1.59772
11
3.56157
21
1.59772
0
LINE
8
BLACK
6
CONTINUOUS
10
3.56157
20
1.59772
11
3.56426
21
1.59693
0
LINE
8
BLACK
6
CONTINUOUS
10
3.56426
20
1.59693
11
3.56609
21
1.59482
0
LINE
8
BLACK
6
CONTINUOUS
10
3.56609
20
1.59482
11
3.56654
21
1.59276
0
LINE
8
BLACK
6
CONTINUOUS
10
3.56654
20
1.59276
11
3.56654
21
0.727677
0
LINE
8
BLACK
6
CONTINUOUS
10
3.56654
20
0.727677
11
3.56575
21
0.724995
0
LINE
8
BLACK
6
CONTINUOUS
10
3.56575
20
0.724995
11
3.56364
21
0.723165
0
LINE
8
BLACK
6
CONTINUOUS
10
3.56364
20
0.723165
11
3.56157
21
0.722717
0
LINE
8
BLACK
6
CONTINUOUS
10
3.56157
20
0.722717
11
3.1565
21
0.722717
0
LINE
8
BLACK
6
CONTINUOUS
10
3.1565
20
0.722717
11
3.15381
21
0.723504
0
LINE
8
BLACK
6
CONTINUOUS
10
3.15381
20
0.723504
11
3.15198
21
0.725616
0
LINE
8
BLACK
6
CONTINUOUS
10
3.15198
20
0.725616
11
3.15154
21
0.727677
0
LINE
8
BLACK
6
CONTINUOUS
10
3.15154
20
0.727677
11
3.15154
21
1.50732
0
LINE
8
BLACK
6
CONTINUOUS
10
3.15154
20
1.50732
11
3.06539
21
1.50732
0
LINE
8
BLACK
6
CONTINUOUS
10
3.06539
20
1.50732
11
3.06539
21
1.60772
0
LINE
8
BLACK
6
CONTINUOUS
10
3.06539
20
1.60772
11
3.19531
21
1.60772
0
LINE
8
BLACK
6
CONTINUOUS
10
3.19531
20
1.60772
11
3.19531
21
1.59772
0
LINE
8
BLACK
6
CONTINUOUS
10
1.3172
20
0.794803
11
1.27783
21
0.794803
0
LINE
8
BLACK
6
CONTINUOUS
10
1.27783
20
0.794803
11
1.27783
21
0.944409
0
LINE
8
BLACK
6
CONTINUOUS
10
1.27783
20
0.944409
11
1.3172
21
0.944409
0
LINE
8
BLACK
6
CONTINUOUS
10
1.3172
20
0.944409
11
1.3172
21
0.794803
0
LINE
8
BLACK
6
CONTINUOUS
10
1.47091
20
0.798661
11
1.43154
21
0.798661
0
LINE
8
BLACK
6
CONTINUOUS
10
1.43154
20
0.798661
11
1.43154
21
0.948268
0
LINE
8
BLACK
6
CONTINUOUS
10
1.43154
20
0.948268
11
1.47091
21
0.948268
0
LINE
8
BLACK
6
CONTINUOUS
10
1.47091
20
0.948268
11
1.47091
21
0.798661
0
LINE
8
BLACK
6
CONTINUOUS
10
1.3172
20
1.03102
11
1.27783
21
1.03102
0
LINE
8
BLACK
6
CONTINUOUS
10
1.27783
20
1.03102
11
1.27783
21
1.18063
0
LINE
8
BLACK
6
CONTINUOUS
10
1.27783
20
1.18063
11
1.3172
21
1.18063
0
LINE
8
BLACK
6
CONTINUOUS
10
1.3172
20
1.18063
11
1.3172
21
1.03102
0
LINE
8
BLACK
6
CONTINUOUS
10
1.47091
20
1.03488
11
1.43154
21
1.03488
0
LINE
8
BLACK
6
CONTINUOUS
10
1.43154
20
1.03488
11
1.43154
21
1.18449
0
LINE
8
BLACK
6
CONTINUOUS
10
1.43154
20
1.18449
11
1.47091
21
1.18449
0
LINE
8
BLACK
6
CONTINUOUS
10
1.47091
20
1.18449
11
1.47091
21
1.03488
0
LINE
8
BLACK
6
CONTINUOUS
10
1.3172
20
1.26724
11
1.27783
21
1.26724
0
LINE
8
BLACK
6
CONTINUOUS
10
1.27783
20
1.26724
11
1.27783
21
1.41685
0
LINE
8
BLACK
6
CONTINUOUS
10
1.27783
20
1.41685
11
1.3172
21
1.41685
0
LINE
8
BLACK
6
CONTINUOUS
10
1.3172
20
1.41685
11
1.3172
21
1.26724
0
LINE
8
BLACK
6
CONTINUOUS
10
1.47091
20
1.2711
11
1.43154
21
1.2711
0
LINE
8
BLACK
6
CONTINUOUS
10
1.43154
20
1.2711
11
1.43154
21
1.42071
0
LINE
8
BLACK
6
CONTINUOUS
10
1.43154
20
1.42071
11
1.47091
21
1.42071
0
LINE
8
BLACK
6
CONTINUOUS
10
1.47091
20
1.42071
11
1.47091
21
1.2711
0
LINE
8
BLACK
6
CONTINUOUS
10
2.1704
20
1.37646
11
2.17661
21
1.37426
0
LINE
8
BLACK
6
CONTINUOUS
10
2.17661
20
1.37426
11
2.18216
21
1.37073
0
LINE
8
BLACK
6
CONTINUOUS
10
2.18216
20
1.37073
11
2.1868
21
1.36606
0
LINE
8
BLACK
6
CONTINUOUS
10
2.1868
20
1.36606
11
2.19029
21
1.36047
0
LINE
8
BLACK
6
CONTINUOUS
10
2.19029
20
1.36047
11
2.19246
21
1.35426
0
LINE
8
BLACK
6
CONTINUOUS
10
2.19246
20
1.35426
11
2.19319
21
1.34772
0
LINE
8
BLACK
6
CONTINUOUS
10
2.19319
20
1.34772
11
2.19318
21
1.34689
0
LINE
8
BLACK
6
CONTINUOUS
10
2.19318
20
1.34689
11
2.19226
21
1.34037
0
LINE
8
BLACK
6
CONTINUOUS
10
2.19226
20
1.34037
11
2.18992
21
1.33422
0
LINE
8
BLACK
6
CONTINUOUS
10
2.18992
20
1.33422
11
2.18628
21
1.32874
0
LINE
8
BLACK
6
CONTINUOUS
10
2.18628
20
1.32874
11
2.18151
21
1.3242
0
LINE
8
BLACK
6
CONTINUOUS
10
2.18151
20
1.3242
11
2.17586
21
1.32083
0
LINE
8
BLACK
6
CONTINUOUS
10
2.17586
20
1.32083
11
2.1696
21
1.31879
0
LINE
8
BLACK
6
CONTINUOUS
10
2.1696
20
1.31879
11
2.16304
21
1.3182
0
LINE
8
BLACK
6
CONTINUOUS
10
2.16304
20
1.3182
11
2.15652
21
1.31907
0
LINE
8
BLACK
6
CONTINUOUS
10
2.15652
20
1.31907
11
2.15035
21
1.32136
0
LINE
8
BLACK
6
CONTINUOUS
10
2.15035
20
1.32136
11
2.14484
21
1.32497
0
LINE
8
BLACK
6
CONTINUOUS
10
2.14484
20
1.32497
11
2.14027
21
1.3297
0
LINE
8
BLACK
6
CONTINUOUS
10
2.14027
20
1.3297
11
2.13686
21
1.33533
0
LINE
8
BLACK
6
CONTINUOUS
10
2.13686
20
1.33533
11
2.13478
21
1.34158
0
LINE
8
BLACK
6
CONTINUOUS
10
2.13478
20
1.34158
11
2.13414
21
1.34813
0
LINE
8
BLACK
6
CONTINUOUS
10
2.13414
20
1.34813
11
2.13496
21
1.35466
0
LINE
8
BLACK
6
CONTINUOUS
10
2.13496
20
1.35466
11
2.13721
21
1.36085
0
LINE
8
BLACK
6
CONTINUOUS
10
2.13721
20
1.36085
11
2.14078
21
1.36638
0
LINE
8
BLACK
6
CONTINUOUS
10
2.14078
20
1.36638
11
2.14548
21
1.37098
0
LINE
8
BLACK
6
CONTINUOUS
10
2.14548
20
1.37098
11
2.15109
21
1.37443
0
LINE
8
BLACK
6
CONTINUOUS
10
2.15109
20
1.37443
11
2.15732
21
1.37656
0
LINE
8
BLACK
6
CONTINUOUS
10
2.15732
20
1.37656
11
2.16387
21
1.37724
0
LINE
8
BLACK
6
CONTINUOUS
10
2.16387
20
1.37724
11
2.1704
21
1.37646
0
LINE
8
BLACK
6
CONTINUOUS
10
1.97828
20
1.37646
11
1.98448
21
1.37426
0
LINE
8
BLACK
6
CONTINUOUS
10
1.98448
20
1.37426
11
1.99004
21
1.37073
0
LINE
8
BLACK
6
CONTINUOUS
10
1.99004
20
1.37073
11
1.99468
21
1.36606
0
LINE
8
BLACK
6
CONTINUOUS
10
1.99468
20
1.36606
11
1.99816
21
1.36047
0
LINE
8
BLACK
6
CONTINUOUS
10
1.99816
20
1.36047
11
2.00033
21
1.35426
0
LINE
8
BLACK
6
CONTINUOUS
10
2.00033
20
1.35426
11
2.00106
21
1.34772
0
LINE
8
BLACK
6
CONTINUOUS
10
2.00106
20
1.34772
11
2.00105
21
1.34689
0
LINE
8
BLACK
6
CONTINUOUS
10
2.00105
20
1.34689
11
2.00014
21
1.34037
0
LINE
8
BLACK
6
CONTINUOUS
10
2.00014
20
1.34037
11
1.9978
21
1.33422
0
LINE
8
BLACK
6
CONTINUOUS
10
1.9978
20
1.33422
11
1.99415
21
1.32874
0
LINE
8
BLACK
6
CONTINUOUS
10
1.99415
20
1.32874
11
1.98939
21
1.3242
0
LINE
8
BLACK
6
CONTINUOUS
10
1.98939
20
1.3242
11
1.98373
21
1.32083
0
LINE
8
BLACK
6
CONTINUOUS
10
1.98373
20
1.32083
11
1.97747
21
1.31879
0
LINE
8
BLACK
6
CONTINUOUS
10
1.97747
20
1.31879
11
1.97092
21
1.3182
0
LINE
8
BLACK
6
CONTINUOUS
10
1.97092
20
1.3182
11
1.96439
21
1.31907
0
LINE
8
BLACK
6
CONTINUOUS
10
1.96439
20
1.31907
11
1.95822
21
1.32136
0
LINE
8
BLACK
6
CONTINUOUS
10
1.95822
20
1.32136
11
1.95271
21
1.32497
0
LINE
8
BLACK
6
CONTINUOUS
10
1.95271
20
1.32497
11
1.94814
21
1.3297
0
LINE
8
BLACK
6
CONTINUOUS
10
1.94814
20
1.3297
11
1.94473
21
1.33533
0
LINE
8
BLACK
6
CONTINUOUS
10
1.94473
20
1.33533
11
1.94265
21
1.34158
0
LINE
8
BLACK
6
CONTINUOUS
10
1.94265
20
1.34158
11
1.94201
21
1.34813
0
LINE
8
BLACK
6
CONTINUOUS
10
1.94201
20
1.34813
11
1.94284
21
1.35466
0
LINE
8
BLACK
6
CONTINUOUS
10
1.94284
20
1.35466
11
1.94509
21
1.36085
0
LINE
8
BLACK
6
CONTINUOUS
10
1.94509
20
1.36085
11
1.94865
21
1.36638
0
LINE
8
BLACK
6
CONTINUOUS
10
1.94865
20
1.36638
11
1.95336
21
1.37098
0
LINE
8
BLACK
6
CONTINUOUS
10
1.95336
20
1.37098
11
1.95896
21
1.37443
0
LINE
8
BLACK
6
CONTINUOUS
10
1.95896
20
1.37443
11
1.96519
21
1.37656
0
LINE
8
BLACK
6
CONTINUOUS
10
1.96519
20
1.37656
11
1.97174
21
1.37724
0
LINE
8
BLACK
6
CONTINUOUS
10
1.97174
20
1.37724
11
1.97828
21
1.37646
0
LINE
8
BLACK
6
CONTINUOUS
10
1.18728
20
1.63339
11
1.3172
21
1.63339
0
LINE
8
BLACK
6
CONTINUOUS
10
1.3172
20
1.63339
11
1.3172
21
1.50346
0
LINE
8
BLACK
6
CONTINUOUS
10
1.3172
20
1.50346
11
1.27783
21
1.50346
0
LINE
8
BLACK
6
CONTINUOUS
10
1.27783
20
1.50346
11
1.27783
21
1.59402
0
LINE
8
BLACK
6
CONTINUOUS
10
1.27783
20
1.59402
11
1.18728
21
1.59402
0
LINE
8
BLACK
6
CONTINUOUS
10
1.18728
20
1.59402
11
1.18728
21
1.63339
0
LINE
8
BLACK
6
CONTINUOUS
10
1.56146
20
1.50732
11
1.43154
21
1.50732
0
LINE
8
BLACK
6
CONTINUOUS
10
1.43154
20
1.50732
11
1.43154
21
1.60772
0
LINE
8
BLACK
6
CONTINUOUS
10
1.43154
20
1.60772
11
1.56146
21
1.60772
0
LINE
8
BLACK
6
CONTINUOUS
10
1.56146
20
1.60772
11
1.56146
21
1.50732
0
LINE
8
BLACK
6
CONTINUOUS
10
2.0339
20
1.56835
11
1.88429
21
1.56835
0
LINE
8
BLACK
6
CONTINUOUS
10
1.88429
20
1.56835
11
1.88429
21
1.60772
0
LINE
8
BLACK
6
CONTINUOUS
10
1.88429
20
1.60772
11
2.0339
21
1.60772
0
LINE
8
BLACK
6
CONTINUOUS
10
2.0339
20
1.60772
11
2.0339
21
1.56835
0
LINE
8
BLACK
6
CONTINUOUS
10
2.74256
20
1.56835
11
2.59295
21
1.56835
0
LINE
8
BLACK
6
CONTINUOUS
10
2.59295
20
1.56835
11
2.59295
21
1.60772
0
LINE
8
BLACK
6
CONTINUOUS
10
2.59295
20
1.60772
11
2.74256
21
1.60772
0
LINE
8
BLACK
6
CONTINUOUS
10
2.74256
20
1.60772
11
2.74256
21
1.56835
0
LINE
8
BLACK
6
CONTINUOUS
10
2.97878
20
1.56835
11
2.82917
21
1.56835
0
LINE
8
BLACK
6
CONTINUOUS
10
2.82917
20
1.56835
11
2.82917
21
1.60772
0
LINE
8
BLACK
6
CONTINUOUS
10
2.82917
20
1.60772
11
2.97878
21
1.60772
0
LINE
8
BLACK
6
CONTINUOUS
10
2.97878
20
1.60772
11
2.97878
21
1.56835
0
LINE
8
BLACK
6
CONTINUOUS
10
1.79768
20
1.56835
11
1.64807
21
1.56835
0
LINE
8
BLACK
6
CONTINUOUS
10
1.64807
20
1.56835
11
1.64807
21
1.60772
0
LINE
8
BLACK
6
CONTINUOUS
10
1.64807
20
1.60772
11
1.79768
21
1.60772
0
LINE
8
BLACK
6
CONTINUOUS
10
1.79768
20
1.60772
11
1.79768
21
1.56835
0
LINE
8
BLACK
6
CONTINUOUS
10
2.27012
20
1.56835
11
2.12051
21
1.56835
0
LINE
8
BLACK
6
CONTINUOUS
10
2.12051
20
1.56835
11
2.12051
21
1.60772
0
LINE
8
BLACK
6
CONTINUOUS
10
2.12051
20
1.60772
11
2.27012
21
1.60772
0
LINE
8
BLACK
6
CONTINUOUS
10
2.27012
20
1.60772
11
2.27012
21
1.56835
0
LINE
8
BLACK
6
CONTINUOUS
10
2.50634
20
1.56835
11
2.35673
21
1.56835
0
LINE
8
BLACK
6
CONTINUOUS
10
2.35673
20
1.56835
11
2.35673
21
1.60772
0
LINE
8
BLACK
6
CONTINUOUS
10
2.35673
20
1.60772
11
2.50634
21
1.60772
0
LINE
8
BLACK
6
CONTINUOUS
10
2.50634
20
1.60772
11
2.50634
21
1.56835
0
LINE
8
BLACK
6
CONTINUOUS
10
3.40019
20
1.90551
11
3.41367
21
1.90373
0
LINE
8
BLACK
6
CONTINUOUS
10
3.41367
20
1.90373
11
3.42686
21
1.90042
0
LINE
8
BLACK
6
CONTINUOUS
10
3.42686
20
1.90042
11
3.43958
21
1.89562
0
LINE
8
BLACK
6
CONTINUOUS
10
3.43958
20
1.89562
11
3.45166
21
1.88938
0
LINE
8
BLACK
6
CONTINUOUS
10
3.45166
20
1.88938
11
3.46294
21
1.88179
0
LINE
8
BLACK
6
CONTINUOUS
10
3.46294
20
1.88179
11
3.47328
21
1.87296
0
LINE
8
BLACK
6
CONTINUOUS
10
3.47328
20
1.87296
11
3.48254
21
1.863
0
LINE
8
BLACK
6
CONTINUOUS
10
3.48254
20
1.863
11
3.49059
21
1.85204
0
LINE
8
BLACK
6
CONTINUOUS
10
3.49059
20
1.85204
11
3.49733
21
1.84023
0
LINE
8
BLACK
6
CONTINUOUS
10
3.49733
20
1.84023
11
3.50266
21
1.82772
0
LINE
8
BLACK
6
CONTINUOUS
10
3.50266
20
1.82772
11
3.50653
21
1.81469
0
LINE
8
BLACK
6
CONTINUOUS
10
3.50653
20
1.81469
11
3.50886
21
1.80129
0
LINE
8
BLACK
6
CONTINUOUS
10
3.50886
20
1.80129
11
3.50965
21
1.78772
0
LINE
8
BLACK
6
CONTINUOUS
10
3.50965
20
1.78772
11
3.50941
21
1.7803
0
LINE
8
BLACK
6
CONTINUOUS
10
3.50941
20
1.7803
11
3.50778
21
1.7668
0
LINE
8
BLACK
6
CONTINUOUS
10
3.50778
20
1.7668
11
3.5046
21
1.75358
0
LINE
8
BLACK
6
CONTINUOUS
10
3.5046
20
1.75358
11
3.49993
21
1.74081
0
LINE
8
BLACK
6
CONTINUOUS
10
3.49993
20
1.74081
11
3.49382
21
1.72866
0
LINE
8
BLACK
6
CONTINUOUS
10
3.49382
20
1.72866
11
3.48636
21
1.7173
0
LINE
8
BLACK
6
CONTINUOUS
10
3.48636
20
1.7173
11
3.47763
21
1.70686
0
LINE
8
BLACK
6
CONTINUOUS
10
3.47763
20
1.70686
11
3.46777
21
1.6975
0
LINE
8
BLACK
6
CONTINUOUS
10
3.46777
20
1.6975
11
3.4569
21
1.68934
0
LINE
8
BLACK
6
CONTINUOUS
10
3.4569
20
1.68934
11
3.44516
21
1.68248
0
LINE
8
BLACK
6
CONTINUOUS
10
3.44516
20
1.68248
11
3.43271
21
1.67701
0
LINE
8
BLACK
6
CONTINUOUS
10
3.43271
20
1.67701
11
3.41971
21
1.67302
0
LINE
8
BLACK
6
CONTINUOUS
10
3.41971
20
1.67302
11
3.40634
21
1.67054
0
LINE
8
BLACK
6
CONTINUOUS
10
3.40634
20
1.67054
11
3.39277
21
1.66961
0
LINE
8
BLACK
6
CONTINUOUS
10
3.39277
20
1.66961
11
3.37919
21
1.67025
0
LINE
8
BLACK
6
CONTINUOUS
10
3.37919
20
1.67025
11
3.36577
21
1.67245
0
LINE
8
BLACK
6
CONTINUOUS
10
3.36577
20
1.67245
11
3.35269
21
1.67618
0
LINE
8
BLACK
6
CONTINUOUS
10
3.35269
20
1.67618
11
3.34013
21
1.68138
0
LINE
8
BLACK
6
CONTINUOUS
10
3.34013
20
1.68138
11
3.32825
21
1.68799
0
LINE
8
BLACK
6
CONTINUOUS
10
3.32825
20
1.68799
11
3.31721
21
1.69593
0
LINE
8
BLACK
6
CONTINUOUS
10
3.31721
20
1.69593
11
3.30715
21
1.70508
0
LINE
8
BLACK
6
CONTINUOUS
10
3.30715
20
1.70508
11
3.29821
21
1.71533
0
LINE
8
BLACK
6
CONTINUOUS
10
3.29821
20
1.71533
11
3.29051
21
1.72653
0
LINE
8
BLACK
6
CONTINUOUS
10
3.29051
20
1.72653
11
3.28415
21
1.73855
0
LINE
8
BLACK
6
CONTINUOUS
10
3.28415
20
1.73855
11
3.27921
21
1.75122
0
LINE
8
BLACK
6
CONTINUOUS
10
3.27921
20
1.75122
11
3.27576
21
1.76437
0
LINE
8
BLACK
6
CONTINUOUS
10
3.27576
20
1.76437
11
3.27384
21
1.77783
0
LINE
8
BLACK
6
CONTINUOUS
10
3.27384
20
1.77783
11
3.27348
21
1.79143
0
LINE
8
BLACK
6
CONTINUOUS
10
3.27348
20
1.79143
11
3.27469
21
1.80497
0
LINE
8
BLACK
6
CONTINUOUS
10
3.27469
20
1.80497
11
3.27745
21
1.81829
0
LINE
8
BLACK
6
CONTINUOUS
10
3.27745
20
1.81829
11
3.28172
21
1.8312
0
LINE
8
BLACK
6
CONTINUOUS
10
3.28172
20
1.8312
11
3.28744
21
1.84353
0
LINE
8
BLACK
6
CONTINUOUS
10
3.28744
20
1.84353
11
3.29455
21
1.85512
0
LINE
8
BLACK
6
CONTINUOUS
10
3.29455
20
1.85512
11
3.30294
21
1.86582
0
LINE
8
BLACK
6
CONTINUOUS
10
3.30294
20
1.86582
11
3.3125
21
1.87549
0
LINE
8
BLACK
6
CONTINUOUS
10
3.3125
20
1.87549
11
3.32312
21
1.88399
0
LINE
8
BLACK
6
CONTINUOUS
10
3.32312
20
1.88399
11
3.33464
21
1.89122
0
LINE
8
BLACK
6
CONTINUOUS
10
3.33464
20
1.89122
11
3.34691
21
1.89707
0
LINE
8
BLACK
6
CONTINUOUS
10
3.34691
20
1.89707
11
3.35977
21
1.90148
0
LINE
8
BLACK
6
CONTINUOUS
10
3.35977
20
1.90148
11
3.37306
21
1.90437
0
LINE
8
BLACK
6
CONTINUOUS
10
3.37306
20
1.90437
11
3.38659
21
1.90572
0
LINE
8
BLACK
6
CONTINUOUS
10
3.38659
20
1.90572
11
3.40019
21
1.90551
  0
ENDSEC
  0
EOF
