  0
SECTION
  2
HEADER
  9
$ANGBASE
  50
0.0
  9
$ANGDIR
  70
1
  9
$MEASUREMENT
  70
0
  0
ENDSEC
  0
SECTION
  2
TABLES
  0
TABLE
  2
LTYPE
  70
4
  0
LTYPE
  5
40F
  2
CONTINUOUS
  70
0
  3
Solid line
  72
65
  73
0
  40
0.0
  0
LTYPE
  5
410
  2
DASHDOT
 70
0
  3
Dash Dot ____ _ ____ _
 72
65
 73
4
 40
2.0
 49
1.25
 49
-0.25
 49
0.25
 49
-0.25
  0
LTYPE
  5
411
  2
DASHED
 70
0
  3
Dashed __ __ __ __ __
 72
65
 73
2
 40
0.75
 49
0.5
 49
-0.25
  0
LTYPE
  5
43B
  2
DOTTED
 70
0
  3
Dotted .  .  .  .
 72
65
 73
2
 40
0.2
 49
0.0
 49
-0.2
  0
ENDTAB
  0
TABLE
  2
STYLE
  70
4
  0
STYLE
  2
KICAD
  70
0
  40
0
  41
1
  42
1
  50
0
  71
0
  3
isocp.shx
  0
STYLE
  2
KICADB
  70
0
  40
0
  41
1
  42
1
  50
0
  71
0
  3
isocp.shx
  0
STYLE
  2
KICADI
  70
0
  40
0
  41
1
  42
1
  50
15
  71
0
  3
isocp.shx
  0
STYLE
  2
KICADBI
  70
0
  40
0
  41
1
  42
1
  50
15
  71
0
  3
isocp.shx
  0
ENDTAB
  0
TABLE
  2
LAYER
  70
1
  0
LAYER
  2
BLACK
  70
0
  62
7
  6
CONTINUOUS
  0
ENDTAB
  0
ENDSEC
  0
SECTION
  2
ENTITIES
0
LINE
8
BLACK
6
CONTINUOUS
10
5.6406491732283461
20
-2.9734793307086615
11
5.6550123622047241
21
-2.9766409448818898
0
LINE
8
BLACK
6
CONTINUOUS
10
5.6550123622047241
20
-2.9766409448818898
11
5.6689495275590547
21
-2.9813368897637793
0
LINE
8
BLACK
6
CONTINUOUS
10
5.6689495275590547
20
-2.9813368897637793
11
5.6822972440944879
21
-2.9875122047244096
0
LINE
8
BLACK
6
CONTINUOUS
10
5.6822972440944879
20
-2.9875122047244096
11
5.6948990551181105
21
-2.9950944881889763
0
LINE
8
BLACK
6
CONTINUOUS
10
5.6948990551181105
20
-2.9950944881889763
11
5.7066072440944877
21
-3.0039948031496064
0
LINE
8
BLACK
6
CONTINUOUS
10
5.7066072440944877
20
-3.0039948031496064
11
5.7172844488188979
21
-3.0141088188976379
0
LINE
8
BLACK
6
CONTINUOUS
10
5.7172844488188979
20
-3.0141088188976379
11
5.726805590551181
21
-3.0253179527559055
0
LINE
8
BLACK
6
CONTINUOUS
10
5.726805590551181
20
-3.0253179527559055
11
5.7350589763779523
21
-3.0374907874015746
0
LINE
8
BLACK
6
CONTINUOUS
10
5.7350589763779523
20
-3.0374907874015746
11
5.7419478740157475
21
-3.0504846456692913
0
LINE
8
BLACK
6
CONTINUOUS
10
5.7419478740157475
20
-3.0504846456692913
11
5.7473914960629919
21
-3.0641471259842521
0
LINE
8
BLACK
6
CONTINUOUS
10
5.7473914960629919
20
-3.0641471259842521
11
5.7513260629921259
21
-3.0783180708661417
0
LINE
8
BLACK
6
CONTINUOUS
10
5.7513260629921259
20
-3.0783180708661417
11
5.7537053937007876
21
-3.0928313385826769
0
LINE
8
BLACK
6
CONTINUOUS
10
5.7537053937007876
20
-3.0928313385826769
11
5.7545016141732281
21
-3.107516811023622
0
LINE
8
BLACK
6
CONTINUOUS
10
5.7545016141732281
20
-3.107516811023622
11
5.7537053937007876
21
-3.1222022834645671
0
LINE
8
BLACK
6
CONTINUOUS
10
5.7537053937007876
20
-3.1222022834645671
11
5.7513260629921259
21
-3.1367155511811022
0
LINE
8
BLACK
6
CONTINUOUS
10
5.7513260629921259
20
-3.1367155511811022
11
5.7473914960629919
21
-3.1508864960629919
0
LINE
8
BLACK
6
CONTINUOUS
10
5.7473914960629919
20
-3.1508864960629919
11
5.7419478740157475
21
-3.1645489763779526
0
LINE
8
BLACK
6
CONTINUOUS
10
5.7419478740157475
20
-3.1645489763779526
11
5.7350589763779523
21
-3.1775428346456693
0
LINE
8
BLACK
6
CONTINUOUS
10
5.7350589763779523
20
-3.1775428346456693
11
5.726805590551181
21
-3.1897156692913384
0
LINE
8
BLACK
6
CONTINUOUS
10
5.726805590551181
20
-3.1897156692913384
11
5.7172844488188979
21
-3.200924803149606
0
LINE
8
BLACK
6
CONTINUOUS
10
5.7172844488188979
20
-3.200924803149606
11
5.7066072440944877
21
-3.2110388188976375
0
LINE
8
BLACK
6
CONTINUOUS
10
5.7066072440944877
20
-3.2110388188976375
11
5.6948990551181105
21
-3.2199391338582677
0
LINE
8
BLACK
6
CONTINUOUS
10
5.6948990551181105
20
-3.2199391338582677
11
5.6822972440944879
21
-3.2275214173228344
0
LINE
8
BLACK
6
CONTINUOUS
10
5.6822972440944879
20
-3.2275214173228344
11
5.6689495275590547
21
-3.2336967322834647
0
LINE
8
BLACK
6
CONTINUOUS
10
5.6689495275590547
20
-3.2336967322834647
11
5.6550123622047241
21
-3.2383926771653542
0
LINE
8
BLACK
6
CONTINUOUS
10
5.6550123622047241
20
-3.2383926771653542
11
5.6406491732283461
21
-3.2415542913385824
0
LINE
8
BLACK
6
CONTINUOUS
10
5.6406491732283461
20
-3.2415542913385824
11
5.6260283464566925
21
-3.2431443700787401
0
LINE
8
BLACK
6
CONTINUOUS
10
5.6260283464566925
20
-3.2431443700787401
11
5.6113213385826768
21
-3.2431443700787401
0
LINE
8
BLACK
6
CONTINUOUS
10
5.6113213385826768
20
-3.2431443700787401
11
5.5967005118110231
21
-3.2415542913385824
0
LINE
8
BLACK
6
CONTINUOUS
10
5.5967005118110231
20
-3.2415542913385824
11
5.5823373228346451
21
-3.2383926771653542
0
LINE
8
BLACK
6
CONTINUOUS
10
5.5823373228346451
20
-3.2383926771653542
11
5.5684001574803146
21
-3.2336967322834647
0
LINE
8
BLACK
6
CONTINUOUS
10
5.5684001574803146
20
-3.2336967322834647
11
5.5550524409448814
21
-3.2275214173228344
0
LINE
8
BLACK
6
CONTINUOUS
10
5.5550524409448814
20
-3.2275214173228344
11
5.5424506299212597
21
-3.2199391338582677
0
LINE
8
BLACK
6
CONTINUOUS
10
5.5424506299212597
20
-3.2199391338582677
11
5.5307424409448815
21
-3.2110388188976375
0
LINE
8
BLACK
6
CONTINUOUS
10
5.5307424409448815
20
-3.2110388188976375
11
5.5200652362204723
21
-3.200924803149606
0
LINE
8
BLACK
6
CONTINUOUS
10
5.5200652362204723
20
-3.200924803149606
11
5.5105440944881892
21
-3.1897156692913384
0
LINE
8
BLACK
6
CONTINUOUS
10
5.5105440944881892
20
-3.1897156692913384
11
5.502290708661417
21
-3.1775428346456693
0
LINE
8
BLACK
6
CONTINUOUS
10
5.502290708661417
20
-3.1775428346456693
11
5.4954018110236218
21
-3.1645489763779526
0
LINE
8
BLACK
6
CONTINUOUS
10
5.4954018110236218
20
-3.1645489763779526
11
5.4899581889763782
21
-3.1508864960629919
0
LINE
8
BLACK
6
CONTINUOUS
10
5.4899581889763782
20
-3.1508864960629919
11
5.4860236220472443
21
-3.1367155511811022
0
LINE
8
BLACK
6
CONTINUOUS
10
5.4860236220472443
20
-3.1367155511811022
11
5.4836442913385826
21
-3.1222022834645671
0
LINE
8
BLACK
6
CONTINUOUS
10
5.4836442913385826
20
-3.1222022834645671
11
5.482848070866142
21
-3.107516811023622
0
LINE
8
BLACK
6
CONTINUOUS
10
5.482848070866142
20
-3.107516811023622
11
5.4836442913385826
21
-3.0928313385826769
0
LINE
8
BLACK
6
CONTINUOUS
10
5.4836442913385826
20
-3.0928313385826769
11
5.4860236220472443
21
-3.0783180708661417
0
LINE
8
BLACK
6
CONTINUOUS
10
5.4860236220472443
20
-3.0783180708661417
11
5.4899581889763782
21
-3.0641471259842521
0
LINE
8
BLACK
6
CONTINUOUS
10
5.4899581889763782
20
-3.0641471259842521
11
5.4954018110236218
21
-3.0504846456692913
0
LINE
8
BLACK
6
CONTINUOUS
10
5.4954018110236218
20
-3.0504846456692913
11
5.502290708661417
21
-3.0374907874015746
0
LINE
8
BLACK
6
CONTINUOUS
10
5.502290708661417
20
-3.0374907874015746
11
5.5105440944881892
21
-3.0253179527559055
0
LINE
8
BLACK
6
CONTINUOUS
10
5.5105440944881892
20
-3.0253179527559055
11
5.5200652362204723
21
-3.0141088188976379
0
LINE
8
BLACK
6
CONTINUOUS
10
5.5200652362204723
20
-3.0141088188976379
11
5.5307424409448815
21
-3.0039948031496064
0
LINE
8
BLACK
6
CONTINUOUS
10
5.5307424409448815
20
-3.0039948031496064
11
5.5424506299212597
21
-2.9950944881889763
0
LINE
8
BLACK
6
CONTINUOUS
10
5.5424506299212597
20
-2.9950944881889763
11
5.5550524409448814
21
-2.9875122047244096
0
LINE
8
BLACK
6
CONTINUOUS
10
5.5550524409448814
20
-2.9875122047244096
11
5.5684001574803146
21
-2.9813368897637793
0
LINE
8
BLACK
6
CONTINUOUS
10
5.5684001574803146
20
-2.9813368897637793
11
5.5823373228346451
21
-2.9766409448818898
0
LINE
8
BLACK
6
CONTINUOUS
10
5.5823373228346451
20
-2.9766409448818898
11
5.5967005118110231
21
-2.9734793307086615
0
LINE
8
BLACK
6
CONTINUOUS
10
5.5967005118110231
20
-2.9734793307086615
11
5.6113213385826768
21
-2.9718892519685038
0
LINE
8
BLACK
6
CONTINUOUS
10
5.6113213385826768
20
-2.9718892519685038
11
5.6260283464566925
21
-2.9718892519685038
0
LINE
8
BLACK
6
CONTINUOUS
10
5.6260283464566925
20
-2.9718892519685038
11
5.6406491732283461
21
-2.9734793307086615
0
LINE
8
BLACK
6
CONTINUOUS
10
5.4873656692913384
20
-3.1217975590551181
11
5.4896794094488186
21
-3.1359108661417321
0
LINE
8
BLACK
6
CONTINUOUS
10
5.4896794094488186
20
-3.1359108661417321
11
5.4935055118110236
21
-3.1496912598425197
0
LINE
8
BLACK
6
CONTINUOUS
10
5.4935055118110236
20
-3.1496912598425197
11
5.4987991338582676
21
-3.1629772047244096
0
LINE
8
BLACK
6
CONTINUOUS
10
5.4987991338582676
20
-3.1629772047244096
11
5.5054981889763779
21
-3.1756129527559054
0
LINE
8
BLACK
6
CONTINUOUS
10
5.5054981889763779
20
-3.1756129527559054
11
5.5135240944881891
21
-3.1874503149606297
0
LINE
8
BLACK
6
CONTINUOUS
10
5.5135240944881891
20
-3.1874503149606297
11
5.5227828346456693
21
-3.1983505511811021
0
LINE
8
BLACK
6
CONTINUOUS
10
5.5227828346456693
20
-3.1983505511811021
11
5.5331658267716533
21
-3.2081858267716536
0
LINE
8
BLACK
6
CONTINUOUS
10
5.5331658267716533
20
-3.2081858267716536
11
5.544551299212598
21
-3.2168408267716533
0
LINE
8
BLACK
6
CONTINUOUS
10
5.544551299212598
20
-3.2168408267716533
11
5.5568058267716536
21
-3.2242141338582675
0
LINE
8
BLACK
6
CONTINUOUS
10
5.5568058267716536
20
-3.2242141338582675
11
5.5697857086614171
21
-3.2302192913385825
0
LINE
8
BLACK
6
CONTINUOUS
10
5.5697857086614171
20
-3.2302192913385825
11
5.5833387795275593
21
-3.2347858267716534
0
LINE
8
BLACK
6
CONTINUOUS
10
5.5833387795275593
20
-3.2347858267716534
11
5.5973061023622046
21
-3.2378602755905512
0
LINE
8
BLACK
6
CONTINUOUS
10
5.5973061023622046
20
-3.2378602755905512
11
5.6115239763779527
21
-3.2394065748031498
0
LINE
8
BLACK
6
CONTINUOUS
10
5.6115239763779527
20
-3.2394065748031498
11
5.6258257086614174
21
-3.2394065748031498
0
LINE
8
BLACK
6
CONTINUOUS
10
5.6258257086614174
20
-3.2394065748031498
11
5.6400435826771655
21
-3.2378602755905512
0
LINE
8
BLACK
6
CONTINUOUS
10
5.6400435826771655
20
-3.2378602755905512
11
5.6540109055118108
21
-3.2347858267716534
0
LINE
8
BLACK
6
CONTINUOUS
10
5.6540109055118108
20
-3.2347858267716534
11
5.6675639763779531
21
-3.2302192913385825
0
LINE
8
BLACK
6
CONTINUOUS
10
5.6675639763779531
20
-3.2302192913385825
11
5.6805438582677166
21
-3.2242141338582675
0
LINE
8
BLACK
6
CONTINUOUS
10
5.6805438582677166
20
-3.2242141338582675
11
5.6927983858267712
21
-3.2168408267716533
0
LINE
8
BLACK
6
CONTINUOUS
10
5.6927983858267712
20
-3.2168408267716533
11
5.704183858267716
21
-3.2081858267716536
0
LINE
8
BLACK
6
CONTINUOUS
10
5.704183858267716
20
-3.2081858267716536
11
5.7145668503937008
21
-3.1983505511811021
0
LINE
8
BLACK
6
CONTINUOUS
10
5.7145668503937008
20
-3.1983505511811021
11
5.723825590551181
21
-3.1874503149606297
0
LINE
8
BLACK
6
CONTINUOUS
10
5.723825590551181
20
-3.1874503149606297
11
5.7318514960629923
21
-3.1756129527559054
0
LINE
8
BLACK
6
CONTINUOUS
10
5.7318514960629923
20
-3.1756129527559054
11
5.7385505511811026
21
-3.1629772047244096
0
LINE
8
BLACK
6
CONTINUOUS
10
5.7385505511811026
20
-3.1629772047244096
11
5.7438441732283465
21
-3.1496912598425197
0
LINE
8
BLACK
6
CONTINUOUS
10
5.7438441732283465
20
-3.1496912598425197
11
5.7476702755905507
21
-3.1359108661417321
0
LINE
8
BLACK
6
CONTINUOUS
10
5.7476702755905507
20
-3.1359108661417321
11
5.7499840157480318
21
-3.1217975590551181
0
LINE
8
BLACK
6
CONTINUOUS
10
5.7499840157480318
20
-3.1217975590551181
11
5.7507583070866142
21
-3.107516811023622
0
LINE
8
BLACK
6
CONTINUOUS
10
5.7507583070866142
20
-3.107516811023622
11
5.7499840157480318
21
-3.0932360629921258
0
LINE
8
BLACK
6
CONTINUOUS
10
5.7499840157480318
20
-3.0932360629921258
11
5.7476702755905507
21
-3.0791227559055119
0
LINE
8
BLACK
6
CONTINUOUS
10
5.7476702755905507
20
-3.0791227559055119
11
5.7438441732283465
21
-3.0653423622047242
0
LINE
8
BLACK
6
CONTINUOUS
10
5.7438441732283465
20
-3.0653423622047242
11
5.7385505511811026
21
-3.0520564173228344
0
LINE
8
BLACK
6
CONTINUOUS
10
5.7385505511811026
20
-3.0520564173228344
11
5.7318514960629923
21
-3.0394206692913386
0
LINE
8
BLACK
6
CONTINUOUS
10
5.7318514960629923
20
-3.0394206692913386
11
5.723825590551181
21
-3.0275833070866143
0
LINE
8
BLACK
6
CONTINUOUS
10
5.723825590551181
20
-3.0275833070866143
11
5.7145668503937008
21
-3.0166830708661418
0
LINE
8
BLACK
6
CONTINUOUS
10
5.7145668503937008
20
-3.0166830708661418
11
5.704183858267716
21
-3.0068477952755903
0
LINE
8
BLACK
6
CONTINUOUS
10
5.704183858267716
20
-3.0068477952755903
11
5.6927983858267712
21
-2.9981927952755907
0
LINE
8
BLACK
6
CONTINUOUS
10
5.6927983858267712
20
-2.9981927952755907
11
5.6805438582677166
21
-2.9908194881889765
0
LINE
8
BLACK
6
CONTINUOUS
10
5.6805438582677166
20
-2.9908194881889765
11
5.6675639763779531
21
-2.9848143307086614
0
LINE
8
BLACK
6
CONTINUOUS
10
5.6675639763779531
20
-2.9848143307086614
11
5.6540109055118108
21
-2.9802477952755906
0
LINE
8
BLACK
6
CONTINUOUS
10
5.6540109055118108
20
-2.9802477952755906
11
5.6400435826771655
21
-2.9771733464566927
0
LINE
8
BLACK
6
CONTINUOUS
10
5.6400435826771655
20
-2.9771733464566927
11
5.6258257086614174
21
-2.9756270472440942
0
LINE
8
BLACK
6
CONTINUOUS
10
5.6258257086614174
20
-2.9756270472440942
11
5.6115239763779527
21
-2.9756270472440942
0
LINE
8
BLACK
6
CONTINUOUS
10
5.6115239763779527
20
-2.9756270472440942
11
5.5973061023622046
21
-2.9771733464566927
0
LINE
8
BLACK
6
CONTINUOUS
10
5.5973061023622046
20
-2.9771733464566927
11
5.5833387795275593
21
-2.9802477952755906
0
LINE
8
BLACK
6
CONTINUOUS
10
5.5833387795275593
20
-2.9802477952755906
11
5.5697857086614171
21
-2.9848143307086614
0
LINE
8
BLACK
6
CONTINUOUS
10
5.5697857086614171
20
-2.9848143307086614
11
5.5568058267716536
21
-2.9908194881889765
0
LINE
8
BLACK
6
CONTINUOUS
10
5.5568058267716536
20
-2.9908194881889765
11
5.544551299212598
21
-2.9981927952755907
0
LINE
8
BLACK
6
CONTINUOUS
10
5.544551299212598
20
-2.9981927952755907
11
5.5331658267716533
21
-3.0068477952755903
0
LINE
8
BLACK
6
CONTINUOUS
10
5.5331658267716533
20
-3.0068477952755903
11
5.5227828346456693
21
-3.0166830708661418
0
LINE
8
BLACK
6
CONTINUOUS
10
5.5227828346456693
20
-3.0166830708661418
11
5.5135240944881891
21
-3.0275833070866143
0
LINE
8
BLACK
6
CONTINUOUS
10
5.5135240944881891
20
-3.0275833070866143
11
5.5054981889763779
21
-3.0394206692913386
0
LINE
8
BLACK
6
CONTINUOUS
10
5.5054981889763779
20
-3.0394206692913386
11
5.4987991338582676
21
-3.0520564173228344
0
LINE
8
BLACK
6
CONTINUOUS
10
5.4987991338582676
20
-3.0520564173228344
11
5.4935055118110236
21
-3.0653423622047242
0
LINE
8
BLACK
6
CONTINUOUS
10
5.4935055118110236
20
-3.0653423622047242
11
5.4896794094488186
21
-3.0791227559055119
0
LINE
8
BLACK
6
CONTINUOUS
10
5.4896794094488186
20
-3.0791227559055119
11
5.4873656692913384
21
-3.0932360629921258
0
LINE
8
BLACK
6
CONTINUOUS
10
5.4873656692913384
20
-3.0932360629921258
11
5.486591377952756
21
-3.107516811023622
0
LINE
8
BLACK
6
CONTINUOUS
10
5.486591377952756
20
-3.107516811023622
11
5.4873656692913384
21
-3.1217975590551181
  0
ENDSEC
  0
EOF
