  0
SECTION
  2
HEADER
  9
$ANGBASE
  50
0.0
  9
$ANGDIR
  70
1
  9
$MEASUREMENT
  70
0
  0
ENDSEC
  0
SECTION
  2
TABLES
  0
TABLE
  2
LTYPE
  70
4
  0
LTYPE
  5
40F
  2
CONTINUOUS
  70
0
  3
Solid line
  72
65
  73
0
  40
0.0
  0
LTYPE
  5
410
  2
DASHDOT
 70
0
  3
Dash Dot ____ _ ____ _
 72
65
 73
4
 40
2.0
 49
1.25
 49
-0.25
 49
0.25
 49
-0.25
  0
LTYPE
  5
411
  2
DASHED
 70
0
  3
Dashed __ __ __ __ __
 72
65
 73
2
 40
0.75
 49
0.5
 49
-0.25
  0
LTYPE
  5
43B
  2
DOTTED
 70
0
  3
Dotted .  .  .  .
 72
65
 73
2
 40
0.2
 49
0.0
 49
-0.2
  0
ENDTAB
  0
TABLE
  2
STYLE
  70
4
  0
STYLE
  2
KICAD
  70
0
  40
0
  41
1
  42
1
  50
0
  71
0
  3
isocp.shx
  0
STYLE
  2
KICADB
  70
0
  40
0
  41
1
  42
1
  50
0
  71
0
  3
isocp.shx
  0
STYLE
  2
KICADI
  70
0
  40
0
  41
1
  42
1
  50
15
  71
0
  3
isocp.shx
  0
STYLE
  2
KICADBI
  70
0
  40
0
  41
1
  42
1
  50
15
  71
0
  3
isocp.shx
  0
ENDTAB
  0
TABLE
  2
LAYER
  70
1
  0
LAYER
  2
BLACK
  70
0
  62
7
  6
CONTINUOUS
  0
ENDTAB
  0
ENDSEC
  0
SECTION
  2
ENTITIES
0
LINE
8
BLACK
6
CONTINUOUS
10
3.92877
20
-2.52747
11
3.92848
21
-2.52677
0
LINE
8
BLACK
6
CONTINUOUS
10
3.92848
20
-2.52677
11
3.92848
21
-2.46929
0
LINE
8
BLACK
6
CONTINUOUS
10
3.92848
20
-2.46929
11
3.92877
21
-2.4686
0
LINE
8
BLACK
6
CONTINUOUS
10
3.92877
20
-2.4686
11
3.92947
21
-2.46831
0
LINE
8
BLACK
6
CONTINUOUS
10
3.92947
20
-2.46831
11
4.046
21
-2.46831
0
LINE
8
BLACK
6
CONTINUOUS
10
4.046
20
-2.46831
11
4.0467
21
-2.4686
0
LINE
8
BLACK
6
CONTINUOUS
10
4.0467
20
-2.4686
11
4.04699
21
-2.46929
0
LINE
8
BLACK
6
CONTINUOUS
10
4.04699
20
-2.46929
11
4.04699
21
-2.52677
0
LINE
8
BLACK
6
CONTINUOUS
10
4.04699
20
-2.52677
11
4.0467
21
-2.52747
0
LINE
8
BLACK
6
CONTINUOUS
10
4.0467
20
-2.52747
11
4.046
21
-2.52776
0
LINE
8
BLACK
6
CONTINUOUS
10
4.046
20
-2.52776
11
3.92947
21
-2.52776
0
LINE
8
BLACK
6
CONTINUOUS
10
3.92947
20
-2.52776
11
3.92877
21
-2.52747
0
LINE
8
BLACK
6
CONTINUOUS
10
3.93045
20
-2.47028
11
3.93045
21
-2.52579
0
LINE
8
BLACK
6
CONTINUOUS
10
3.93045
20
-2.52579
11
4.04502
21
-2.52579
0
LINE
8
BLACK
6
CONTINUOUS
10
4.04502
20
-2.52579
11
4.04502
21
-2.47028
0
LINE
8
BLACK
6
CONTINUOUS
10
4.04502
20
-2.47028
11
3.93045
21
-2.47028
0
LINE
8
BLACK
6
CONTINUOUS
10
3.76381
20
-2.52747
11
3.76352
21
-2.52677
0
LINE
8
BLACK
6
CONTINUOUS
10
3.76352
20
-2.52677
11
3.76352
21
-2.46929
0
LINE
8
BLACK
6
CONTINUOUS
10
3.76352
20
-2.46929
11
3.76381
21
-2.4686
0
LINE
8
BLACK
6
CONTINUOUS
10
3.76381
20
-2.4686
11
3.76451
21
-2.46831
0
LINE
8
BLACK
6
CONTINUOUS
10
3.76451
20
-2.46831
11
3.88104
21
-2.46831
0
LINE
8
BLACK
6
CONTINUOUS
10
3.88104
20
-2.46831
11
3.88174
21
-2.4686
0
LINE
8
BLACK
6
CONTINUOUS
10
3.88174
20
-2.4686
11
3.88203
21
-2.46929
0
LINE
8
BLACK
6
CONTINUOUS
10
3.88203
20
-2.46929
11
3.88203
21
-2.52677
0
LINE
8
BLACK
6
CONTINUOUS
10
3.88203
20
-2.52677
11
3.88174
21
-2.52747
0
LINE
8
BLACK
6
CONTINUOUS
10
3.88174
20
-2.52747
11
3.88104
21
-2.52776
0
LINE
8
BLACK
6
CONTINUOUS
10
3.88104
20
-2.52776
11
3.76451
21
-2.52776
0
LINE
8
BLACK
6
CONTINUOUS
10
3.76451
20
-2.52776
11
3.76381
21
-2.52747
0
LINE
8
BLACK
6
CONTINUOUS
10
3.76549
20
-2.47028
11
3.76549
21
-2.52579
0
LINE
8
BLACK
6
CONTINUOUS
10
3.76549
20
-2.52579
11
3.88006
21
-2.52579
0
LINE
8
BLACK
6
CONTINUOUS
10
3.88006
20
-2.52579
11
3.88006
21
-2.47028
0
LINE
8
BLACK
6
CONTINUOUS
10
3.88006
20
-2.47028
11
3.76549
21
-2.47028
0
LINE
8
BLACK
6
CONTINUOUS
10
4.09373
20
-2.52747
11
4.09345
21
-2.52677
0
LINE
8
BLACK
6
CONTINUOUS
10
4.09345
20
-2.52677
11
4.09345
21
-2.46929
0
LINE
8
BLACK
6
CONTINUOUS
10
4.09345
20
-2.46929
11
4.09373
21
-2.4686
0
LINE
8
BLACK
6
CONTINUOUS
10
4.09373
20
-2.4686
11
4.09443
21
-2.46831
0
LINE
8
BLACK
6
CONTINUOUS
10
4.09443
20
-2.46831
11
4.21097
21
-2.46831
0
LINE
8
BLACK
6
CONTINUOUS
10
4.21097
20
-2.46831
11
4.21166
21
-2.4686
0
LINE
8
BLACK
6
CONTINUOUS
10
4.21166
20
-2.4686
11
4.21195
21
-2.46929
0
LINE
8
BLACK
6
CONTINUOUS
10
4.21195
20
-2.46929
11
4.21195
21
-2.52677
0
LINE
8
BLACK
6
CONTINUOUS
10
4.21195
20
-2.52677
11
4.21166
21
-2.52747
0
LINE
8
BLACK
6
CONTINUOUS
10
4.21166
20
-2.52747
11
4.21097
21
-2.52776
0
LINE
8
BLACK
6
CONTINUOUS
10
4.21097
20
-2.52776
11
4.09443
21
-2.52776
0
LINE
8
BLACK
6
CONTINUOUS
10
4.09443
20
-2.52776
11
4.09373
21
-2.52747
0
LINE
8
BLACK
6
CONTINUOUS
10
4.09541
20
-2.47028
11
4.09541
21
-2.52579
0
LINE
8
BLACK
6
CONTINUOUS
10
4.09541
20
-2.52579
11
4.20998
21
-2.52579
0
LINE
8
BLACK
6
CONTINUOUS
10
4.20998
20
-2.52579
11
4.20998
21
-2.47028
0
LINE
8
BLACK
6
CONTINUOUS
10
4.20998
20
-2.47028
11
4.09541
21
-2.47028
0
LINE
8
BLACK
6
CONTINUOUS
10
3.54192
20
-2.42896
11
3.54163
21
-2.42827
0
LINE
8
BLACK
6
CONTINUOUS
10
3.54163
20
-2.42827
11
3.54163
21
-2.37315
0
LINE
8
BLACK
6
CONTINUOUS
10
3.54163
20
-2.37315
11
3.54192
21
-2.37245
0
LINE
8
BLACK
6
CONTINUOUS
10
3.54192
20
-2.37245
11
3.54262
21
-2.37217
0
LINE
8
BLACK
6
CONTINUOUS
10
3.54262
20
-2.37217
11
3.64104
21
-2.37217
0
LINE
8
BLACK
6
CONTINUOUS
10
3.64104
20
-2.37217
11
3.64174
21
-2.37245
0
LINE
8
BLACK
6
CONTINUOUS
10
3.64174
20
-2.37245
11
3.64203
21
-2.37315
0
LINE
8
BLACK
6
CONTINUOUS
10
3.64203
20
-2.37315
11
3.64203
21
-2.42827
0
LINE
8
BLACK
6
CONTINUOUS
10
3.64203
20
-2.42827
11
3.64174
21
-2.42896
0
LINE
8
BLACK
6
CONTINUOUS
10
3.64174
20
-2.42896
11
3.64104
21
-2.42925
0
LINE
8
BLACK
6
CONTINUOUS
10
3.64104
20
-2.42925
11
3.54262
21
-2.42925
0
LINE
8
BLACK
6
CONTINUOUS
10
3.54262
20
-2.42925
11
3.54192
21
-2.42896
0
LINE
8
BLACK
6
CONTINUOUS
10
3.5436
20
-2.37413
11
3.5436
21
-2.42728
0
LINE
8
BLACK
6
CONTINUOUS
10
3.5436
20
-2.42728
11
3.64006
21
-2.42728
0
LINE
8
BLACK
6
CONTINUOUS
10
3.64006
20
-2.42728
11
3.64006
21
-2.37413
0
LINE
8
BLACK
6
CONTINUOUS
10
3.64006
20
-2.37413
11
3.5436
21
-2.37413
0
LINE
8
BLACK
6
CONTINUOUS
10
3.52011
20
-2.32944
11
3.51982
21
-2.32874
0
LINE
8
BLACK
6
CONTINUOUS
10
3.51982
20
-2.32874
11
3.51982
21
-2.27126
0
LINE
8
BLACK
6
CONTINUOUS
10
3.51982
20
-2.27126
11
3.52011
21
-2.27056
0
LINE
8
BLACK
6
CONTINUOUS
10
3.52011
20
-2.27056
11
3.52081
21
-2.27028
0
LINE
8
BLACK
6
CONTINUOUS
10
3.52081
20
-2.27028
11
3.63734
21
-2.27028
0
LINE
8
BLACK
6
CONTINUOUS
10
3.63734
20
-2.27028
11
3.63804
21
-2.27056
0
LINE
8
BLACK
6
CONTINUOUS
10
3.63804
20
-2.27056
11
3.63833
21
-2.27126
0
LINE
8
BLACK
6
CONTINUOUS
10
3.63833
20
-2.27126
11
3.63833
21
-2.32874
0
LINE
8
BLACK
6
CONTINUOUS
10
3.63833
20
-2.32874
11
3.63804
21
-2.32944
0
LINE
8
BLACK
6
CONTINUOUS
10
3.63804
20
-2.32944
11
3.63734
21
-2.32972
0
LINE
8
BLACK
6
CONTINUOUS
10
3.63734
20
-2.32972
11
3.52081
21
-2.32972
0
LINE
8
BLACK
6
CONTINUOUS
10
3.52081
20
-2.32972
11
3.52011
21
-2.32944
0
LINE
8
BLACK
6
CONTINUOUS
10
3.52179
20
-2.27224
11
3.52179
21
-2.32776
0
LINE
8
BLACK
6
CONTINUOUS
10
3.52179
20
-2.32776
11
3.63636
21
-2.32776
0
LINE
8
BLACK
6
CONTINUOUS
10
3.63636
20
-2.32776
11
3.63636
21
-2.27224
0
LINE
8
BLACK
6
CONTINUOUS
10
3.63636
20
-2.27224
11
3.52179
21
-2.27224
0
LINE
8
BLACK
6
CONTINUOUS
10
3.47893
20
-2.22739
11
3.47864
21
-2.22669
0
LINE
8
BLACK
6
CONTINUOUS
10
3.47864
20
-2.22669
11
3.47864
21
-2.09283
0
LINE
8
BLACK
6
CONTINUOUS
10
3.47864
20
-2.09283
11
3.47893
21
-2.09214
0
LINE
8
BLACK
6
CONTINUOUS
10
3.47893
20
-2.09214
11
3.47963
21
-2.09185
0
LINE
8
BLACK
6
CONTINUOUS
10
3.47963
20
-2.09185
11
3.64104
21
-2.09185
0
LINE
8
BLACK
6
CONTINUOUS
10
3.64104
20
-2.09185
11
3.64174
21
-2.09214
0
LINE
8
BLACK
6
CONTINUOUS
10
3.64174
20
-2.09214
11
3.64203
21
-2.09283
0
LINE
8
BLACK
6
CONTINUOUS
10
3.64203
20
-2.09283
11
3.64203
21
-2.22669
0
LINE
8
BLACK
6
CONTINUOUS
10
3.64203
20
-2.22669
11
3.64174
21
-2.22739
0
LINE
8
BLACK
6
CONTINUOUS
10
3.64174
20
-2.22739
11
3.64104
21
-2.22768
0
LINE
8
BLACK
6
CONTINUOUS
10
3.64104
20
-2.22768
11
3.47963
21
-2.22768
0
LINE
8
BLACK
6
CONTINUOUS
10
3.47963
20
-2.22768
11
3.47893
21
-2.22739
0
LINE
8
BLACK
6
CONTINUOUS
10
3.48061
20
-2.09382
11
3.48061
21
-2.22571
0
LINE
8
BLACK
6
CONTINUOUS
10
3.48061
20
-2.22571
11
3.64006
21
-2.22571
0
LINE
8
BLACK
6
CONTINUOUS
10
3.64006
20
-2.22571
11
3.64006
21
-2.09382
0
LINE
8
BLACK
6
CONTINUOUS
10
3.64006
20
-2.09382
11
3.48061
21
-2.09382
0
LINE
8
BLACK
6
CONTINUOUS
10
3.33917
20
-2.14865
11
3.33888
21
-2.14795
0
LINE
8
BLACK
6
CONTINUOUS
10
3.33888
20
-2.14795
11
3.33888
21
-2.09283
0
LINE
8
BLACK
6
CONTINUOUS
10
3.33888
20
-2.09283
11
3.33917
21
-2.09214
0
LINE
8
BLACK
6
CONTINUOUS
10
3.33917
20
-2.09214
11
3.33986
21
-2.09185
0
LINE
8
BLACK
6
CONTINUOUS
10
3.33986
20
-2.09185
11
3.43829
21
-2.09185
0
LINE
8
BLACK
6
CONTINUOUS
10
3.43829
20
-2.09185
11
3.43898
21
-2.09214
0
LINE
8
BLACK
6
CONTINUOUS
10
3.43898
20
-2.09214
11
3.43927
21
-2.09283
0
LINE
8
BLACK
6
CONTINUOUS
10
3.43927
20
-2.09283
11
3.43927
21
-2.14795
0
LINE
8
BLACK
6
CONTINUOUS
10
3.43927
20
-2.14795
11
3.43898
21
-2.14865
0
LINE
8
BLACK
6
CONTINUOUS
10
3.43898
20
-2.14865
11
3.43829
21
-2.14894
0
LINE
8
BLACK
6
CONTINUOUS
10
3.43829
20
-2.14894
11
3.33986
21
-2.14894
0
LINE
8
BLACK
6
CONTINUOUS
10
3.33986
20
-2.14894
11
3.33917
21
-2.14865
0
LINE
8
BLACK
6
CONTINUOUS
10
3.34085
20
-2.09382
11
3.34085
21
-2.14697
0
LINE
8
BLACK
6
CONTINUOUS
10
3.34085
20
-2.14697
11
3.4373
21
-2.14697
0
LINE
8
BLACK
6
CONTINUOUS
10
3.4373
20
-2.14697
11
3.4373
21
-2.09382
0
LINE
8
BLACK
6
CONTINUOUS
10
3.4373
20
-2.09382
11
3.34085
21
-2.09382
0
LINE
8
BLACK
6
CONTINUOUS
10
5.31145
20
-1.83298
11
5.31116
21
-1.83228
0
LINE
8
BLACK
6
CONTINUOUS
10
5.31116
20
-1.83228
11
5.31116
21
-1.75748
0
LINE
8
BLACK
6
CONTINUOUS
10
5.31116
20
-1.75748
11
5.31145
21
-1.75678
0
LINE
8
BLACK
6
CONTINUOUS
10
5.31145
20
-1.75678
11
5.31215
21
-1.7565
0
LINE
8
BLACK
6
CONTINUOUS
10
5.31215
20
-1.7565
11
5.45782
21
-1.7565
0
LINE
8
BLACK
6
CONTINUOUS
10
5.45782
20
-1.7565
11
5.45851
21
-1.75678
0
LINE
8
BLACK
6
CONTINUOUS
10
5.45851
20
-1.75678
11
5.4588
21
-1.75748
0
LINE
8
BLACK
6
CONTINUOUS
10
5.4588
20
-1.75748
11
5.4588
21
-1.83228
0
LINE
8
BLACK
6
CONTINUOUS
10
5.4588
20
-1.83228
11
5.45851
21
-1.83298
0
LINE
8
BLACK
6
CONTINUOUS
10
5.45851
20
-1.83298
11
5.45782
21
-1.83327
0
LINE
8
BLACK
6
CONTINUOUS
10
5.45782
20
-1.83327
11
5.31215
21
-1.83327
0
LINE
8
BLACK
6
CONTINUOUS
10
5.31215
20
-1.83327
11
5.31145
21
-1.83298
0
LINE
8
BLACK
6
CONTINUOUS
10
5.31313
20
-1.75846
11
5.31313
21
-1.8313
0
LINE
8
BLACK
6
CONTINUOUS
10
5.31313
20
-1.8313
11
5.45683
21
-1.8313
0
LINE
8
BLACK
6
CONTINUOUS
10
5.45683
20
-1.8313
11
5.45683
21
-1.75846
0
LINE
8
BLACK
6
CONTINUOUS
10
5.45683
20
-1.75846
11
5.31313
21
-1.75846
0
LINE
8
BLACK
6
CONTINUOUS
10
5.16106
20
-1.82432
11
5.16077
21
-1.82362
0
LINE
8
BLACK
6
CONTINUOUS
10
5.16077
20
-1.82362
11
5.16077
21
-1.76614
0
LINE
8
BLACK
6
CONTINUOUS
10
5.16077
20
-1.76614
11
5.16106
21
-1.76545
0
LINE
8
BLACK
6
CONTINUOUS
10
5.16106
20
-1.76545
11
5.16175
21
-1.76516
0
LINE
8
BLACK
6
CONTINUOUS
10
5.16175
20
-1.76516
11
5.27829
21
-1.76516
0
LINE
8
BLACK
6
CONTINUOUS
10
5.27829
20
-1.76516
11
5.27898
21
-1.76545
0
LINE
8
BLACK
6
CONTINUOUS
10
5.27898
20
-1.76545
11
5.27927
21
-1.76614
0
LINE
8
BLACK
6
CONTINUOUS
10
5.27927
20
-1.76614
11
5.27927
21
-1.82362
0
LINE
8
BLACK
6
CONTINUOUS
10
5.27927
20
-1.82362
11
5.27898
21
-1.82432
0
LINE
8
BLACK
6
CONTINUOUS
10
5.27898
20
-1.82432
11
5.27829
21
-1.82461
0
LINE
8
BLACK
6
CONTINUOUS
10
5.27829
20
-1.82461
11
5.16175
21
-1.82461
0
LINE
8
BLACK
6
CONTINUOUS
10
5.16175
20
-1.82461
11
5.16106
21
-1.82432
0
LINE
8
BLACK
6
CONTINUOUS
10
5.16274
20
-1.76713
11
5.16274
21
-1.82264
0
LINE
8
BLACK
6
CONTINUOUS
10
5.16274
20
-1.82264
11
5.2773
21
-1.82264
0
LINE
8
BLACK
6
CONTINUOUS
10
5.2773
20
-1.82264
11
5.2773
21
-1.76713
0
LINE
8
BLACK
6
CONTINUOUS
10
5.2773
20
-1.76713
11
5.16274
21
-1.76713
0
LINE
8
BLACK
6
CONTINUOUS
10
5.32602
20
-1.7192
11
5.32573
21
-1.7185
0
LINE
8
BLACK
6
CONTINUOUS
10
5.32573
20
-1.7185
11
5.32573
21
-1.66102
0
LINE
8
BLACK
6
CONTINUOUS
10
5.32573
20
-1.66102
11
5.32602
21
-1.66033
0
LINE
8
BLACK
6
CONTINUOUS
10
5.32602
20
-1.66033
11
5.32671
21
-1.66004
0
LINE
8
BLACK
6
CONTINUOUS
10
5.32671
20
-1.66004
11
5.44325
21
-1.66004
0
LINE
8
BLACK
6
CONTINUOUS
10
5.44325
20
-1.66004
11
5.44394
21
-1.66033
0
LINE
8
BLACK
6
CONTINUOUS
10
5.44394
20
-1.66033
11
5.44423
21
-1.66102
0
LINE
8
BLACK
6
CONTINUOUS
10
5.44423
20
-1.66102
11
5.44423
21
-1.7185
0
LINE
8
BLACK
6
CONTINUOUS
10
5.44423
20
-1.7185
11
5.44394
21
-1.7192
0
LINE
8
BLACK
6
CONTINUOUS
10
5.44394
20
-1.7192
11
5.44325
21
-1.71949
0
LINE
8
BLACK
6
CONTINUOUS
10
5.44325
20
-1.71949
11
5.32671
21
-1.71949
0
LINE
8
BLACK
6
CONTINUOUS
10
5.32671
20
-1.71949
11
5.32602
21
-1.7192
0
LINE
8
BLACK
6
CONTINUOUS
10
5.3277
20
-1.66201
11
5.3277
21
-1.71752
0
LINE
8
BLACK
6
CONTINUOUS
10
5.3277
20
-1.71752
11
5.44226
21
-1.71752
0
LINE
8
BLACK
6
CONTINUOUS
10
5.44226
20
-1.71752
11
5.44226
21
-1.66201
0
LINE
8
BLACK
6
CONTINUOUS
10
5.44226
20
-1.66201
11
5.3277
21
-1.66201
0
LINE
8
BLACK
6
CONTINUOUS
10
5.16106
20
-1.7192
11
5.16077
21
-1.7185
0
LINE
8
BLACK
6
CONTINUOUS
10
5.16077
20
-1.7185
11
5.16077
21
-1.66102
0
LINE
8
BLACK
6
CONTINUOUS
10
5.16077
20
-1.66102
11
5.16106
21
-1.66033
0
LINE
8
BLACK
6
CONTINUOUS
10
5.16106
20
-1.66033
11
5.16175
21
-1.66004
0
LINE
8
BLACK
6
CONTINUOUS
10
5.16175
20
-1.66004
11
5.27829
21
-1.66004
0
LINE
8
BLACK
6
CONTINUOUS
10
5.27829
20
-1.66004
11
5.27898
21
-1.66033
0
LINE
8
BLACK
6
CONTINUOUS
10
5.27898
20
-1.66033
11
5.27927
21
-1.66102
0
LINE
8
BLACK
6
CONTINUOUS
10
5.27927
20
-1.66102
11
5.27927
21
-1.7185
0
LINE
8
BLACK
6
CONTINUOUS
10
5.27927
20
-1.7185
11
5.27898
21
-1.7192
0
LINE
8
BLACK
6
CONTINUOUS
10
5.27898
20
-1.7192
11
5.27829
21
-1.71949
0
LINE
8
BLACK
6
CONTINUOUS
10
5.27829
20
-1.71949
11
5.16175
21
-1.71949
0
LINE
8
BLACK
6
CONTINUOUS
10
5.16175
20
-1.71949
11
5.16106
21
-1.7192
0
LINE
8
BLACK
6
CONTINUOUS
10
5.16274
20
-1.66201
11
5.16274
21
-1.71752
0
LINE
8
BLACK
6
CONTINUOUS
10
5.16274
20
-1.71752
11
5.2773
21
-1.71752
0
LINE
8
BLACK
6
CONTINUOUS
10
5.2773
20
-1.71752
11
5.2773
21
-1.66201
0
LINE
8
BLACK
6
CONTINUOUS
10
5.2773
20
-1.66201
11
5.16274
21
-1.66201
0
LINE
8
BLACK
6
CONTINUOUS
10
4.9961
20
-1.7192
11
4.99581
21
-1.7185
0
LINE
8
BLACK
6
CONTINUOUS
10
4.99581
20
-1.7185
11
4.99581
21
-1.66102
0
LINE
8
BLACK
6
CONTINUOUS
10
4.99581
20
-1.66102
11
4.9961
21
-1.66033
0
LINE
8
BLACK
6
CONTINUOUS
10
4.9961
20
-1.66033
11
4.99679
21
-1.66004
0
LINE
8
BLACK
6
CONTINUOUS
10
4.99679
20
-1.66004
11
5.11333
21
-1.66004
0
LINE
8
BLACK
6
CONTINUOUS
10
5.11333
20
-1.66004
11
5.11402
21
-1.66033
0
LINE
8
BLACK
6
CONTINUOUS
10
5.11402
20
-1.66033
11
5.11431
21
-1.66102
0
LINE
8
BLACK
6
CONTINUOUS
10
5.11431
20
-1.66102
11
5.11431
21
-1.7185
0
LINE
8
BLACK
6
CONTINUOUS
10
5.11431
20
-1.7185
11
5.11402
21
-1.7192
0
LINE
8
BLACK
6
CONTINUOUS
10
5.11402
20
-1.7192
11
5.11333
21
-1.71949
0
LINE
8
BLACK
6
CONTINUOUS
10
5.11333
20
-1.71949
11
4.99679
21
-1.71949
0
LINE
8
BLACK
6
CONTINUOUS
10
4.99679
20
-1.71949
11
4.9961
21
-1.7192
0
LINE
8
BLACK
6
CONTINUOUS
10
4.99778
20
-1.66201
11
4.99778
21
-1.71752
0
LINE
8
BLACK
6
CONTINUOUS
10
4.99778
20
-1.71752
11
5.11234
21
-1.71752
0
LINE
8
BLACK
6
CONTINUOUS
10
5.11234
20
-1.71752
11
5.11234
21
-1.66201
0
LINE
8
BLACK
6
CONTINUOUS
10
5.11234
20
-1.66201
11
4.99778
21
-1.66201
0
LINE
8
BLACK
6
CONTINUOUS
10
2.5024
20
-1.47196
11
2.50211
21
-1.47126
0
LINE
8
BLACK
6
CONTINUOUS
10
2.50211
20
-1.47126
11
2.50211
21
-1.41378
0
LINE
8
BLACK
6
CONTINUOUS
10
2.50211
20
-1.41378
11
2.5024
21
-1.41308
0
LINE
8
BLACK
6
CONTINUOUS
10
2.5024
20
-1.41308
11
2.50309
21
-1.4128
0
LINE
8
BLACK
6
CONTINUOUS
10
2.50309
20
-1.4128
11
2.61963
21
-1.4128
0
LINE
8
BLACK
6
CONTINUOUS
10
2.61963
20
-1.4128
11
2.62032
21
-1.41308
0
LINE
8
BLACK
6
CONTINUOUS
10
2.62032
20
-1.41308
11
2.62061
21
-1.41378
0
LINE
8
BLACK
6
CONTINUOUS
10
2.62061
20
-1.41378
11
2.62061
21
-1.47126
0
LINE
8
BLACK
6
CONTINUOUS
10
2.62061
20
-1.47126
11
2.62032
21
-1.47196
0
LINE
8
BLACK
6
CONTINUOUS
10
2.62032
20
-1.47196
11
2.61963
21
-1.47224
0
LINE
8
BLACK
6
CONTINUOUS
10
2.61963
20
-1.47224
11
2.50309
21
-1.47224
0
LINE
8
BLACK
6
CONTINUOUS
10
2.50309
20
-1.47224
11
2.5024
21
-1.47196
0
LINE
8
BLACK
6
CONTINUOUS
10
2.50408
20
-1.41476
11
2.50408
21
-1.47028
0
LINE
8
BLACK
6
CONTINUOUS
10
2.50408
20
-1.47028
11
2.61864
21
-1.47028
0
LINE
8
BLACK
6
CONTINUOUS
10
2.61864
20
-1.47028
11
2.61864
21
-1.41476
0
LINE
8
BLACK
6
CONTINUOUS
10
2.61864
20
-1.41476
11
2.50408
21
-1.41476
0
LINE
8
BLACK
6
CONTINUOUS
10
2.33743
20
-1.47196
11
2.33715
21
-1.47126
0
LINE
8
BLACK
6
CONTINUOUS
10
2.33715
20
-1.47126
11
2.33715
21
-1.41378
0
LINE
8
BLACK
6
CONTINUOUS
10
2.33715
20
-1.41378
11
2.33743
21
-1.41308
0
LINE
8
BLACK
6
CONTINUOUS
10
2.33743
20
-1.41308
11
2.33813
21
-1.4128
0
LINE
8
BLACK
6
CONTINUOUS
10
2.33813
20
-1.4128
11
2.45467
21
-1.4128
0
LINE
8
BLACK
6
CONTINUOUS
10
2.45467
20
-1.4128
11
2.45536
21
-1.41308
0
LINE
8
BLACK
6
CONTINUOUS
10
2.45536
20
-1.41308
11
2.45565
21
-1.41378
0
LINE
8
BLACK
6
CONTINUOUS
10
2.45565
20
-1.41378
11
2.45565
21
-1.47126
0
LINE
8
BLACK
6
CONTINUOUS
10
2.45565
20
-1.47126
11
2.45536
21
-1.47196
0
LINE
8
BLACK
6
CONTINUOUS
10
2.45536
20
-1.47196
11
2.45467
21
-1.47224
0
LINE
8
BLACK
6
CONTINUOUS
10
2.45467
20
-1.47224
11
2.33813
21
-1.47224
0
LINE
8
BLACK
6
CONTINUOUS
10
2.33813
20
-1.47224
11
2.33743
21
-1.47196
0
LINE
8
BLACK
6
CONTINUOUS
10
2.33911
20
-1.41476
11
2.33911
21
-1.47028
0
LINE
8
BLACK
6
CONTINUOUS
10
2.33911
20
-1.47028
11
2.45368
21
-1.47028
0
LINE
8
BLACK
6
CONTINUOUS
10
2.45368
20
-1.47028
11
2.45368
21
-1.41476
0
LINE
8
BLACK
6
CONTINUOUS
10
2.45368
20
-1.41476
11
2.33911
21
-1.41476
0
LINE
8
BLACK
6
CONTINUOUS
10
2.25712
20
-1.32668
11
2.25683
21
-1.32598
0
LINE
8
BLACK
6
CONTINUOUS
10
2.25683
20
-1.32598
11
2.25683
21
-1.2685
0
LINE
8
BLACK
6
CONTINUOUS
10
2.25683
20
-1.2685
11
2.25712
21
-1.26781
0
LINE
8
BLACK
6
CONTINUOUS
10
2.25712
20
-1.26781
11
2.25782
21
-1.26752
0
LINE
8
BLACK
6
CONTINUOUS
10
2.25782
20
-1.26752
11
2.37435
21
-1.26752
0
LINE
8
BLACK
6
CONTINUOUS
10
2.37435
20
-1.26752
11
2.37505
21
-1.26781
0
LINE
8
BLACK
6
CONTINUOUS
10
2.37505
20
-1.26781
11
2.37534
21
-1.2685
0
LINE
8
BLACK
6
CONTINUOUS
10
2.37534
20
-1.2685
11
2.37534
21
-1.32598
0
LINE
8
BLACK
6
CONTINUOUS
10
2.37534
20
-1.32598
11
2.37505
21
-1.32668
0
LINE
8
BLACK
6
CONTINUOUS
10
2.37505
20
-1.32668
11
2.37435
21
-1.32697
0
LINE
8
BLACK
6
CONTINUOUS
10
2.37435
20
-1.32697
11
2.25782
21
-1.32697
0
LINE
8
BLACK
6
CONTINUOUS
10
2.25782
20
-1.32697
11
2.25712
21
-1.32668
0
LINE
8
BLACK
6
CONTINUOUS
10
2.2588
20
-1.26949
11
2.2588
21
-1.325
0
LINE
8
BLACK
6
CONTINUOUS
10
2.2588
20
-1.325
11
2.37337
21
-1.325
0
LINE
8
BLACK
6
CONTINUOUS
10
2.37337
20
-1.325
11
2.37337
21
-1.26949
0
LINE
8
BLACK
6
CONTINUOUS
10
2.37337
20
-1.26949
11
2.2588
21
-1.26949
0
LINE
8
BLACK
6
CONTINUOUS
10
2.01184
20
-1.09243
11
2.01156
21
-1.09173
0
LINE
8
BLACK
6
CONTINUOUS
10
2.01156
20
-1.09173
11
2.01156
21
-1.03425
0
LINE
8
BLACK
6
CONTINUOUS
10
2.01156
20
-1.03425
11
2.01184
21
-1.03356
0
LINE
8
BLACK
6
CONTINUOUS
10
2.01184
20
-1.03356
11
2.01254
21
-1.03327
0
LINE
8
BLACK
6
CONTINUOUS
10
2.01254
20
-1.03327
11
2.12908
21
-1.03327
0
LINE
8
BLACK
6
CONTINUOUS
10
2.12908
20
-1.03327
11
2.12977
21
-1.03356
0
LINE
8
BLACK
6
CONTINUOUS
10
2.12977
20
-1.03356
11
2.13006
21
-1.03425
0
LINE
8
BLACK
6
CONTINUOUS
10
2.13006
20
-1.03425
11
2.13006
21
-1.09173
0
LINE
8
BLACK
6
CONTINUOUS
10
2.13006
20
-1.09173
11
2.12977
21
-1.09243
0
LINE
8
BLACK
6
CONTINUOUS
10
2.12977
20
-1.09243
11
2.12908
21
-1.09272
0
LINE
8
BLACK
6
CONTINUOUS
10
2.12908
20
-1.09272
11
2.01254
21
-1.09272
0
LINE
8
BLACK
6
CONTINUOUS
10
2.01254
20
-1.09272
11
2.01184
21
-1.09243
0
LINE
8
BLACK
6
CONTINUOUS
10
2.01352
20
-1.03524
11
2.01352
21
-1.09075
0
LINE
8
BLACK
6
CONTINUOUS
10
2.01352
20
-1.09075
11
2.12809
21
-1.09075
0
LINE
8
BLACK
6
CONTINUOUS
10
2.12809
20
-1.09075
11
2.12809
21
-1.03524
0
LINE
8
BLACK
6
CONTINUOUS
10
2.12809
20
-1.03524
11
2.01352
21
-1.03524
0
LINE
8
BLACK
6
CONTINUOUS
10
2.41791
20
-1.07936
11
2.41762
21
-1.07866
0
LINE
8
BLACK
6
CONTINUOUS
10
2.41762
20
-1.07866
11
2.41762
21
-0.873937
0
LINE
8
BLACK
6
CONTINUOUS
10
2.41762
20
-0.873937
11
2.41791
21
-0.873241
0
LINE
8
BLACK
6
CONTINUOUS
10
2.41791
20
-0.873241
11
2.4186
21
-0.872953
0
LINE
8
BLACK
6
CONTINUOUS
10
2.4186
20
-0.872953
11
2.62333
21
-0.872953
0
LINE
8
BLACK
6
CONTINUOUS
10
2.62333
20
-0.872953
11
2.62402
21
-0.873241
0
LINE
8
BLACK
6
CONTINUOUS
10
2.62402
20
-0.873241
11
2.62431
21
-0.873937
0
LINE
8
BLACK
6
CONTINUOUS
10
2.62431
20
-0.873937
11
2.62431
21
-1.07866
0
LINE
8
BLACK
6
CONTINUOUS
10
2.62431
20
-1.07866
11
2.62402
21
-1.07936
0
LINE
8
BLACK
6
CONTINUOUS
10
2.62402
20
-1.07936
11
2.62333
21
-1.07965
0
LINE
8
BLACK
6
CONTINUOUS
10
2.62333
20
-1.07965
11
2.4186
21
-1.07965
0
LINE
8
BLACK
6
CONTINUOUS
10
2.4186
20
-1.07965
11
2.41791
21
-1.07936
0
LINE
8
BLACK
6
CONTINUOUS
10
2.41959
20
-0.874921
11
2.41959
21
-1.07768
0
LINE
8
BLACK
6
CONTINUOUS
10
2.41959
20
-1.07768
11
2.62234
21
-1.07768
0
LINE
8
BLACK
6
CONTINUOUS
10
2.62234
20
-1.07768
11
2.62234
21
-0.874921
0
LINE
8
BLACK
6
CONTINUOUS
10
2.62234
20
-0.874921
11
2.41959
21
-0.874921
0
LINE
8
BLACK
6
CONTINUOUS
10
2.27814
20
-1.07503
11
2.27786
21
-1.07433
0
LINE
8
BLACK
6
CONTINUOUS
10
2.27786
20
-1.07433
11
2.27786
21
-1.01921
0
LINE
8
BLACK
6
CONTINUOUS
10
2.27786
20
-1.01921
11
2.27814
21
-1.01852
0
LINE
8
BLACK
6
CONTINUOUS
10
2.27814
20
-1.01852
11
2.27884
21
-1.01823
0
LINE
8
BLACK
6
CONTINUOUS
10
2.27884
20
-1.01823
11
2.37726
21
-1.01823
0
LINE
8
BLACK
6
CONTINUOUS
10
2.37726
20
-1.01823
11
2.37796
21
-1.01852
0
LINE
8
BLACK
6
CONTINUOUS
10
2.37796
20
-1.01852
11
2.37825
21
-1.01921
0
LINE
8
BLACK
6
CONTINUOUS
10
2.37825
20
-1.01921
11
2.37825
21
-1.07433
0
LINE
8
BLACK
6
CONTINUOUS
10
2.37825
20
-1.07433
11
2.37796
21
-1.07503
0
LINE
8
BLACK
6
CONTINUOUS
10
2.37796
20
-1.07503
11
2.37726
21
-1.07531
0
LINE
8
BLACK
6
CONTINUOUS
10
2.37726
20
-1.07531
11
2.27884
21
-1.07531
0
LINE
8
BLACK
6
CONTINUOUS
10
2.27884
20
-1.07531
11
2.27814
21
-1.07503
0
LINE
8
BLACK
6
CONTINUOUS
10
2.27982
20
-1.0202
11
2.27982
21
-1.07335
0
LINE
8
BLACK
6
CONTINUOUS
10
2.27982
20
-1.07335
11
2.37628
21
-1.07335
0
LINE
8
BLACK
6
CONTINUOUS
10
2.37628
20
-1.07335
11
2.37628
21
-1.0202
0
LINE
8
BLACK
6
CONTINUOUS
10
2.37628
20
-1.0202
11
2.27982
21
-1.0202
0
LINE
8
BLACK
6
CONTINUOUS
10
1.76814
20
-0.935342
11
1.76786
21
-0.934646
0
LINE
8
BLACK
6
CONTINUOUS
10
1.76786
20
-0.934646
11
1.76786
21
-0.877165
0
LINE
8
BLACK
6
CONTINUOUS
10
1.76786
20
-0.877165
11
1.76814
21
-0.876469
0
LINE
8
BLACK
6
CONTINUOUS
10
1.76814
20
-0.876469
11
1.76884
21
-0.876181
0
LINE
8
BLACK
6
CONTINUOUS
10
1.76884
20
-0.876181
11
1.88537
21
-0.876181
0
LINE
8
BLACK
6
CONTINUOUS
10
1.88537
20
-0.876181
11
1.88607
21
-0.876469
0
LINE
8
BLACK
6
CONTINUOUS
10
1.88607
20
-0.876469
11
1.88636
21
-0.877165
0
LINE
8
BLACK
6
CONTINUOUS
10
1.88636
20
-0.877165
11
1.88636
21
-0.934646
0
LINE
8
BLACK
6
CONTINUOUS
10
1.88636
20
-0.934646
11
1.88607
21
-0.935342
0
LINE
8
BLACK
6
CONTINUOUS
10
1.88607
20
-0.935342
11
1.88537
21
-0.93563
0
LINE
8
BLACK
6
CONTINUOUS
10
1.88537
20
-0.93563
11
1.76884
21
-0.93563
0
LINE
8
BLACK
6
CONTINUOUS
10
1.76884
20
-0.93563
11
1.76814
21
-0.935342
0
LINE
8
BLACK
6
CONTINUOUS
10
1.76982
20
-0.87815
11
1.76982
21
-0.933661
0
LINE
8
BLACK
6
CONTINUOUS
10
1.76982
20
-0.933661
11
1.88439
21
-0.933661
0
LINE
8
BLACK
6
CONTINUOUS
10
1.88439
20
-0.933661
11
1.88439
21
-0.87815
0
LINE
8
BLACK
6
CONTINUOUS
10
1.88439
20
-0.87815
11
1.76982
21
-0.87815
0
LINE
8
BLACK
6
CONTINUOUS
10
3.82011
20
-0.829436
11
3.81982
21
-0.82874
0
LINE
8
BLACK
6
CONTINUOUS
10
3.81982
20
-0.82874
11
3.81982
21
-0.77126
0
LINE
8
BLACK
6
CONTINUOUS
10
3.81982
20
-0.77126
11
3.82011
21
-0.770564
0
LINE
8
BLACK
6
CONTINUOUS
10
3.82011
20
-0.770564
11
3.82081
21
-0.770276
0
LINE
8
BLACK
6
CONTINUOUS
10
3.82081
20
-0.770276
11
3.93734
21
-0.770276
0
LINE
8
BLACK
6
CONTINUOUS
10
3.93734
20
-0.770276
11
3.93804
21
-0.770564
0
LINE
8
BLACK
6
CONTINUOUS
10
3.93804
20
-0.770564
11
3.93833
21
-0.77126
0
LINE
8
BLACK
6
CONTINUOUS
10
3.93833
20
-0.77126
11
3.93833
21
-0.82874
0
LINE
8
BLACK
6
CONTINUOUS
10
3.93833
20
-0.82874
11
3.93804
21
-0.829436
0
LINE
8
BLACK
6
CONTINUOUS
10
3.93804
20
-0.829436
11
3.93734
21
-0.829724
0
LINE
8
BLACK
6
CONTINUOUS
10
3.93734
20
-0.829724
11
3.82081
21
-0.829724
0
LINE
8
BLACK
6
CONTINUOUS
10
3.82081
20
-0.829724
11
3.82011
21
-0.829436
0
LINE
8
BLACK
6
CONTINUOUS
10
3.82179
20
-0.772244
11
3.82179
21
-0.827756
0
LINE
8
BLACK
6
CONTINUOUS
10
3.82179
20
-0.827756
11
3.93636
21
-0.827756
0
LINE
8
BLACK
6
CONTINUOUS
10
3.93636
20
-0.827756
11
3.93636
21
-0.772244
0
LINE
8
BLACK
6
CONTINUOUS
10
3.93636
20
-0.772244
11
3.82179
21
-0.772244
0
LINE
8
BLACK
6
CONTINUOUS
10
3.65515
20
-0.829436
11
3.65486
21
-0.82874
0
LINE
8
BLACK
6
CONTINUOUS
10
3.65486
20
-0.82874
11
3.65486
21
-0.77126
0
LINE
8
BLACK
6
CONTINUOUS
10
3.65486
20
-0.77126
11
3.65515
21
-0.770564
0
LINE
8
BLACK
6
CONTINUOUS
10
3.65515
20
-0.770564
11
3.65585
21
-0.770276
0
LINE
8
BLACK
6
CONTINUOUS
10
3.65585
20
-0.770276
11
3.77238
21
-0.770276
0
LINE
8
BLACK
6
CONTINUOUS
10
3.77238
20
-0.770276
11
3.77308
21
-0.770564
0
LINE
8
BLACK
6
CONTINUOUS
10
3.77308
20
-0.770564
11
3.77337
21
-0.77126
0
LINE
8
BLACK
6
CONTINUOUS
10
3.77337
20
-0.77126
11
3.77337
21
-0.82874
0
LINE
8
BLACK
6
CONTINUOUS
10
3.77337
20
-0.82874
11
3.77308
21
-0.829436
0
LINE
8
BLACK
6
CONTINUOUS
10
3.77308
20
-0.829436
11
3.77238
21
-0.829724
0
LINE
8
BLACK
6
CONTINUOUS
10
3.77238
20
-0.829724
11
3.65585
21
-0.829724
0
LINE
8
BLACK
6
CONTINUOUS
10
3.65585
20
-0.829724
11
3.65515
21
-0.829436
0
LINE
8
BLACK
6
CONTINUOUS
10
3.65683
20
-0.772244
11
3.65683
21
-0.827756
0
LINE
8
BLACK
6
CONTINUOUS
10
3.65683
20
-0.827756
11
3.7714
21
-0.827756
0
LINE
8
BLACK
6
CONTINUOUS
10
3.7714
20
-0.827756
11
3.7714
21
-0.772244
0
LINE
8
BLACK
6
CONTINUOUS
10
3.7714
20
-0.772244
11
3.65683
21
-0.772244
0
LINE
8
BLACK
6
CONTINUOUS
10
1.75791
20
-0.823924
11
1.75762
21
-0.823228
0
LINE
8
BLACK
6
CONTINUOUS
10
1.75762
20
-0.823228
11
1.75762
21
-0.765748
0
LINE
8
BLACK
6
CONTINUOUS
10
1.75762
20
-0.765748
11
1.75791
21
-0.765052
0
LINE
8
BLACK
6
CONTINUOUS
10
1.75791
20
-0.765052
11
1.7586
21
-0.764764
0
LINE
8
BLACK
6
CONTINUOUS
10
1.7586
20
-0.764764
11
1.87514
21
-0.764764
0
LINE
8
BLACK
6
CONTINUOUS
10
1.87514
20
-0.764764
11
1.87583
21
-0.765052
0
LINE
8
BLACK
6
CONTINUOUS
10
1.87583
20
-0.765052
11
1.87612
21
-0.765748
0
LINE
8
BLACK
6
CONTINUOUS
10
1.87612
20
-0.765748
11
1.87612
21
-0.823228
0
LINE
8
BLACK
6
CONTINUOUS
10
1.87612
20
-0.823228
11
1.87583
21
-0.823924
0
LINE
8
BLACK
6
CONTINUOUS
10
1.87583
20
-0.823924
11
1.87514
21
-0.824213
0
LINE
8
BLACK
6
CONTINUOUS
10
1.87514
20
-0.824213
11
1.7586
21
-0.824213
0
LINE
8
BLACK
6
CONTINUOUS
10
1.7586
20
-0.824213
11
1.75791
21
-0.823924
0
LINE
8
BLACK
6
CONTINUOUS
10
1.75959
20
-0.766732
11
1.75959
21
-0.822244
0
LINE
8
BLACK
6
CONTINUOUS
10
1.75959
20
-0.822244
11
1.87415
21
-0.822244
0
LINE
8
BLACK
6
CONTINUOUS
10
1.87415
20
-0.822244
11
1.87415
21
-0.766732
0
LINE
8
BLACK
6
CONTINUOUS
10
1.87415
20
-0.766732
11
1.75959
21
-0.766732
0
LINE
8
BLACK
6
CONTINUOUS
10
1.51263
20
-0.650302
11
1.51234
21
-0.649606
0
LINE
8
BLACK
6
CONTINUOUS
10
1.51234
20
-0.649606
11
1.51234
21
-0.592126
0
LINE
8
BLACK
6
CONTINUOUS
10
1.51234
20
-0.592126
11
1.51263
21
-0.59143
0
LINE
8
BLACK
6
CONTINUOUS
10
1.51263
20
-0.59143
11
1.51333
21
-0.591142
0
LINE
8
BLACK
6
CONTINUOUS
10
1.51333
20
-0.591142
11
1.62986
21
-0.591142
0
LINE
8
BLACK
6
CONTINUOUS
10
1.62986
20
-0.591142
11
1.63056
21
-0.59143
0
LINE
8
BLACK
6
CONTINUOUS
10
1.63056
20
-0.59143
11
1.63085
21
-0.592126
0
LINE
8
BLACK
6
CONTINUOUS
10
1.63085
20
-0.592126
11
1.63085
21
-0.649606
0
LINE
8
BLACK
6
CONTINUOUS
10
1.63085
20
-0.649606
11
1.63056
21
-0.650302
0
LINE
8
BLACK
6
CONTINUOUS
10
1.63056
20
-0.650302
11
1.62986
21
-0.650591
0
LINE
8
BLACK
6
CONTINUOUS
10
1.62986
20
-0.650591
11
1.51333
21
-0.650591
0
LINE
8
BLACK
6
CONTINUOUS
10
1.51333
20
-0.650591
11
1.51263
21
-0.650302
0
LINE
8
BLACK
6
CONTINUOUS
10
1.51431
20
-0.59311
11
1.51431
21
-0.648622
0
LINE
8
BLACK
6
CONTINUOUS
10
1.51431
20
-0.648622
11
1.62888
21
-0.648622
0
LINE
8
BLACK
6
CONTINUOUS
10
1.62888
20
-0.648622
11
1.62888
21
-0.59311
0
LINE
8
BLACK
6
CONTINUOUS
10
1.62888
20
-0.59311
11
1.51431
21
-0.59311
0
LINE
8
BLACK
6
CONTINUOUS
10
1.51263
20
-0.545184
11
1.51234
21
-0.544488
0
LINE
8
BLACK
6
CONTINUOUS
10
1.51234
20
-0.544488
11
1.51234
21
-0.487008
0
LINE
8
BLACK
6
CONTINUOUS
10
1.51234
20
-0.487008
11
1.51263
21
-0.486312
0
LINE
8
BLACK
6
CONTINUOUS
10
1.51263
20
-0.486312
11
1.51333
21
-0.486024
0
LINE
8
BLACK
6
CONTINUOUS
10
1.51333
20
-0.486024
11
1.62986
21
-0.486024
0
LINE
8
BLACK
6
CONTINUOUS
10
1.62986
20
-0.486024
11
1.63056
21
-0.486312
0
LINE
8
BLACK
6
CONTINUOUS
10
1.63056
20
-0.486312
11
1.63085
21
-0.487008
0
LINE
8
BLACK
6
CONTINUOUS
10
1.63085
20
-0.487008
11
1.63085
21
-0.544488
0
LINE
8
BLACK
6
CONTINUOUS
10
1.63085
20
-0.544488
11
1.63056
21
-0.545184
0
LINE
8
BLACK
6
CONTINUOUS
10
1.63056
20
-0.545184
11
1.62986
21
-0.545472
0
LINE
8
BLACK
6
CONTINUOUS
10
1.62986
20
-0.545472
11
1.51333
21
-0.545472
0
LINE
8
BLACK
6
CONTINUOUS
10
1.51333
20
-0.545472
11
1.51263
21
-0.545184
0
LINE
8
BLACK
6
CONTINUOUS
10
1.51431
20
-0.487992
11
1.51431
21
-0.543504
0
LINE
8
BLACK
6
CONTINUOUS
10
1.51431
20
-0.543504
11
1.62888
21
-0.543504
0
LINE
8
BLACK
6
CONTINUOUS
10
1.62888
20
-0.543504
11
1.62888
21
-0.487992
0
LINE
8
BLACK
6
CONTINUOUS
10
1.62888
20
-0.487992
11
1.51431
21
-0.487992
0
LINE
8
BLACK
6
CONTINUOUS
10
3.30791
20
-0.536129
11
3.30762
21
-0.535433
0
LINE
8
BLACK
6
CONTINUOUS
10
3.30762
20
-0.535433
11
3.30762
21
-0.477953
0
LINE
8
BLACK
6
CONTINUOUS
10
3.30762
20
-0.477953
11
3.30791
21
-0.477257
0
LINE
8
BLACK
6
CONTINUOUS
10
3.30791
20
-0.477257
11
3.3086
21
-0.476969
0
LINE
8
BLACK
6
CONTINUOUS
10
3.3086
20
-0.476969
11
3.42514
21
-0.476969
0
LINE
8
BLACK
6
CONTINUOUS
10
3.42514
20
-0.476969
11
3.42583
21
-0.477257
0
LINE
8
BLACK
6
CONTINUOUS
10
3.42583
20
-0.477257
11
3.42612
21
-0.477953
0
LINE
8
BLACK
6
CONTINUOUS
10
3.42612
20
-0.477953
11
3.42612
21
-0.535433
0
LINE
8
BLACK
6
CONTINUOUS
10
3.42612
20
-0.535433
11
3.42583
21
-0.536129
0
LINE
8
BLACK
6
CONTINUOUS
10
3.42583
20
-0.536129
11
3.42514
21
-0.536417
0
LINE
8
BLACK
6
CONTINUOUS
10
3.42514
20
-0.536417
11
3.3086
21
-0.536417
0
LINE
8
BLACK
6
CONTINUOUS
10
3.3086
20
-0.536417
11
3.30791
21
-0.536129
0
LINE
8
BLACK
6
CONTINUOUS
10
3.30959
20
-0.478937
11
3.30959
21
-0.534449
0
LINE
8
BLACK
6
CONTINUOUS
10
3.30959
20
-0.534449
11
3.42415
21
-0.534449
0
LINE
8
BLACK
6
CONTINUOUS
10
3.42415
20
-0.534449
11
3.42415
21
-0.478937
0
LINE
8
BLACK
6
CONTINUOUS
10
3.42415
20
-0.478937
11
3.30959
21
-0.478937
0
LINE
8
BLACK
6
CONTINUOUS
10
1.26972
20
-0.418019
11
1.26943
21
-0.417323
0
LINE
8
BLACK
6
CONTINUOUS
10
1.26943
20
-0.417323
11
1.26943
21
-0.359843
0
LINE
8
BLACK
6
CONTINUOUS
10
1.26943
20
-0.359843
11
1.26972
21
-0.359147
0
LINE
8
BLACK
6
CONTINUOUS
10
1.26972
20
-0.359147
11
1.27041
21
-0.358858
0
LINE
8
BLACK
6
CONTINUOUS
10
1.27041
20
-0.358858
11
1.38695
21
-0.358858
0
LINE
8
BLACK
6
CONTINUOUS
10
1.38695
20
-0.358858
11
1.38765
21
-0.359147
0
LINE
8
BLACK
6
CONTINUOUS
10
1.38765
20
-0.359147
11
1.38793
21
-0.359843
0
LINE
8
BLACK
6
CONTINUOUS
10
1.38793
20
-0.359843
11
1.38793
21
-0.417323
0
LINE
8
BLACK
6
CONTINUOUS
10
1.38793
20
-0.417323
11
1.38765
21
-0.418019
0
LINE
8
BLACK
6
CONTINUOUS
10
1.38765
20
-0.418019
11
1.38695
21
-0.418307
0
LINE
8
BLACK
6
CONTINUOUS
10
1.38695
20
-0.418307
11
1.27041
21
-0.418307
0
LINE
8
BLACK
6
CONTINUOUS
10
1.27041
20
-0.418307
11
1.26972
21
-0.418019
0
LINE
8
BLACK
6
CONTINUOUS
10
1.2714
20
-0.360827
11
1.2714
21
-0.416339
0
LINE
8
BLACK
6
CONTINUOUS
10
1.2714
20
-0.416339
11
1.38597
21
-0.416339
0
LINE
8
BLACK
6
CONTINUOUS
10
1.38597
20
-0.416339
11
1.38597
21
-0.360827
0
LINE
8
BLACK
6
CONTINUOUS
10
1.38597
20
-0.360827
11
1.2714
21
-0.360827
0
LINE
8
BLACK
6
CONTINUOUS
10
3.03917
20
-0.394712
11
3.03888
21
-0.394016
0
LINE
8
BLACK
6
CONTINUOUS
10
3.03888
20
-0.394016
11
3.03888
21
-0.181417
0
LINE
8
BLACK
6
CONTINUOUS
10
3.03888
20
-0.181417
11
3.03917
21
-0.180721
0
LINE
8
BLACK
6
CONTINUOUS
10
3.03917
20
-0.180721
11
3.03986
21
-0.180433
0
LINE
8
BLACK
6
CONTINUOUS
10
3.03986
20
-0.180433
11
3.3312
21
-0.180433
0
LINE
8
BLACK
6
CONTINUOUS
10
3.3312
20
-0.180433
11
3.3319
21
-0.180721
0
LINE
8
BLACK
6
CONTINUOUS
10
3.3319
20
-0.180721
11
3.33219
21
-0.181417
0
LINE
8
BLACK
6
CONTINUOUS
10
3.33219
20
-0.181417
11
3.33219
21
-0.394016
0
LINE
8
BLACK
6
CONTINUOUS
10
3.33219
20
-0.394016
11
3.3319
21
-0.394712
0
LINE
8
BLACK
6
CONTINUOUS
10
3.3319
20
-0.394712
11
3.3312
21
-0.395
0
LINE
8
BLACK
6
CONTINUOUS
10
3.3312
20
-0.395
11
3.03986
21
-0.395
0
LINE
8
BLACK
6
CONTINUOUS
10
3.03986
20
-0.395
11
3.03917
21
-0.394712
0
LINE
8
BLACK
6
CONTINUOUS
10
3.04085
20
-0.182402
11
3.04085
21
-0.393031
0
LINE
8
BLACK
6
CONTINUOUS
10
3.04085
20
-0.393031
11
3.33022
21
-0.393031
0
LINE
8
BLACK
6
CONTINUOUS
10
3.33022
20
-0.393031
11
3.33022
21
-0.182402
0
LINE
8
BLACK
6
CONTINUOUS
10
3.33022
20
-0.182402
11
3.04085
21
-0.182402
0
LINE
8
BLACK
6
CONTINUOUS
10
1.22617
20
-0.315972
11
1.22589
21
-0.315276
0
LINE
8
BLACK
6
CONTINUOUS
10
1.22589
20
-0.315276
11
1.22589
21
-0.181417
0
LINE
8
BLACK
6
CONTINUOUS
10
1.22589
20
-0.181417
11
1.22617
21
-0.180721
0
LINE
8
BLACK
6
CONTINUOUS
10
1.22617
20
-0.180721
11
1.22687
21
-0.180433
0
LINE
8
BLACK
6
CONTINUOUS
10
1.22687
20
-0.180433
11
1.38829
21
-0.180433
0
LINE
8
BLACK
6
CONTINUOUS
10
1.38829
20
-0.180433
11
1.38898
21
-0.180721
0
LINE
8
BLACK
6
CONTINUOUS
10
1.38898
20
-0.180721
11
1.38927
21
-0.181417
0
LINE
8
BLACK
6
CONTINUOUS
10
1.38927
20
-0.181417
11
1.38927
21
-0.315276
0
LINE
8
BLACK
6
CONTINUOUS
10
1.38927
20
-0.315276
11
1.38898
21
-0.315972
0
LINE
8
BLACK
6
CONTINUOUS
10
1.38898
20
-0.315972
11
1.38829
21
-0.31626
0
LINE
8
BLACK
6
CONTINUOUS
10
1.38829
20
-0.31626
11
1.22687
21
-0.31626
0
LINE
8
BLACK
6
CONTINUOUS
10
1.22687
20
-0.31626
11
1.22617
21
-0.315972
0
LINE
8
BLACK
6
CONTINUOUS
10
1.22786
20
-0.182402
11
1.22786
21
-0.314291
0
LINE
8
BLACK
6
CONTINUOUS
10
1.22786
20
-0.314291
11
1.3873
21
-0.314291
0
LINE
8
BLACK
6
CONTINUOUS
10
1.3873
20
-0.314291
11
1.3873
21
-0.182402
0
LINE
8
BLACK
6
CONTINUOUS
10
1.3873
20
-0.182402
11
1.22786
21
-0.182402
0
LINE
8
BLACK
6
CONTINUOUS
10
3.27332
20
0.263871
11
3.27303
21
0.264567
0
LINE
8
BLACK
6
CONTINUOUS
10
3.27303
20
0.264567
11
3.27303
21
0.735433
0
LINE
8
BLACK
6
CONTINUOUS
10
3.27303
20
0.735433
11
3.27332
21
0.736129
0
LINE
8
BLACK
6
CONTINUOUS
10
3.27332
20
0.736129
11
3.27402
21
0.736417
0
LINE
8
BLACK
6
CONTINUOUS
10
3.27402
20
0.736417
11
3.52598
21
0.736417
0
LINE
8
BLACK
6
CONTINUOUS
10
3.52598
20
0.736417
11
3.52668
21
0.736129
0
LINE
8
BLACK
6
CONTINUOUS
10
3.52668
20
0.736129
11
3.52697
21
0.735433
0
LINE
8
BLACK
6
CONTINUOUS
10
3.52697
20
0.735433
11
3.52697
21
0.264567
0
LINE
8
BLACK
6
CONTINUOUS
10
3.52697
20
0.264567
11
3.52668
21
0.263871
0
LINE
8
BLACK
6
CONTINUOUS
10
3.52668
20
0.263871
11
3.52598
21
0.263583
0
LINE
8
BLACK
6
CONTINUOUS
10
3.52598
20
0.263583
11
3.27402
21
0.263583
0
LINE
8
BLACK
6
CONTINUOUS
10
3.27402
20
0.263583
11
3.27332
21
0.263871
0
LINE
8
BLACK
6
CONTINUOUS
10
3.275
20
0.734449
11
3.275
21
0.265551
0
LINE
8
BLACK
6
CONTINUOUS
10
3.275
20
0.265551
11
3.525
21
0.265551
0
LINE
8
BLACK
6
CONTINUOUS
10
3.525
20
0.265551
11
3.525
21
0.734449
0
LINE
8
BLACK
6
CONTINUOUS
10
3.525
20
0.734449
11
3.275
21
0.734449
0
LINE
8
BLACK
6
CONTINUOUS
10
0.0631623
20
0.343792
11
0.062874
21
0.344488
0
LINE
8
BLACK
6
CONTINUOUS
10
0.062874
20
0.344488
11
0.062874
21
1.65551
0
LINE
8
BLACK
6
CONTINUOUS
10
0.062874
20
1.65551
11
0.0631623
21
1.65621
0
LINE
8
BLACK
6
CONTINUOUS
10
0.0631623
20
1.65621
11
0.0638583
21
1.6565
0
LINE
8
BLACK
6
CONTINUOUS
10
0.0638583
20
1.6565
11
1.37488
21
1.6565
0
LINE
8
BLACK
6
CONTINUOUS
10
1.37488
20
1.6565
11
1.37558
21
1.65621
0
LINE
8
BLACK
6
CONTINUOUS
10
1.37558
20
1.65621
11
1.37587
21
1.65551
0
LINE
8
BLACK
6
CONTINUOUS
10
1.37587
20
1.65551
11
1.37587
21
0.344488
0
LINE
8
BLACK
6
CONTINUOUS
10
1.37587
20
0.344488
11
1.37558
21
0.343792
0
LINE
8
BLACK
6
CONTINUOUS
10
1.37558
20
0.343792
11
1.37488
21
0.343504
0
LINE
8
BLACK
6
CONTINUOUS
10
1.37488
20
0.343504
11
0.0638583
21
0.343504
0
LINE
8
BLACK
6
CONTINUOUS
10
0.0638583
20
0.343504
11
0.0631623
21
0.343792
0
LINE
8
BLACK
6
CONTINUOUS
10
0.0648425
20
1.65453
11
0.0648425
21
0.345472
0
LINE
8
BLACK
6
CONTINUOUS
10
0.0648425
20
0.345472
11
1.3739
21
0.345472
0
LINE
8
BLACK
6
CONTINUOUS
10
1.3739
20
0.345472
11
1.3739
21
1.65453
0
LINE
8
BLACK
6
CONTINUOUS
10
1.3739
20
1.65453
11
0.0648425
21
1.65453
0
LINE
8
BLACK
6
CONTINUOUS
10
1.31681
20
1.59646
11
1.31681
21
0.403543
0
LINE
8
BLACK
6
CONTINUOUS
10
1.31681
20
0.403543
11
1.31652
21
0.402847
0
LINE
8
BLACK
6
CONTINUOUS
10
1.31652
20
0.402847
11
1.31583
21
0.402559
0
LINE
8
BLACK
6
CONTINUOUS
10
1.31583
20
0.402559
11
0.122913
21
0.402559
0
LINE
8
BLACK
6
CONTINUOUS
10
0.122913
20
0.402559
11
0.122217
21
0.402847
0
LINE
8
BLACK
6
CONTINUOUS
10
0.122217
20
0.402847
11
0.121929
21
0.403543
0
LINE
8
BLACK
6
CONTINUOUS
10
0.121929
20
0.403543
11
0.121929
21
1.59646
0
LINE
8
BLACK
6
CONTINUOUS
10
0.121929
20
1.59646
11
0.122217
21
1.59715
0
LINE
8
BLACK
6
CONTINUOUS
10
0.122217
20
1.59715
11
0.122913
21
1.59744
0
LINE
8
BLACK
6
CONTINUOUS
10
0.122913
20
1.59744
11
0.494276
21
1.59744
0
LINE
8
BLACK
6
CONTINUOUS
10
0.494276
20
1.59744
11
0.494276
21
1.60227
0
LINE
8
BLACK
6
CONTINUOUS
10
0.494276
20
1.60227
11
0.494564
21
1.60296
0
LINE
8
BLACK
6
CONTINUOUS
10
0.494564
20
1.60296
11
0.49526
21
1.60325
0
LINE
8
BLACK
6
CONTINUOUS
10
0.49526
20
1.60325
11
0.55274
21
1.60325
0
LINE
8
BLACK
6
CONTINUOUS
10
0.55274
20
1.60325
11
0.553436
21
1.60296
0
LINE
8
BLACK
6
CONTINUOUS
10
0.553436
20
1.60296
11
0.553724
21
1.60227
0
LINE
8
BLACK
6
CONTINUOUS
10
0.553724
20
1.60227
11
0.553724
21
1.59744
0
LINE
8
BLACK
6
CONTINUOUS
10
0.553724
20
1.59744
11
1.31583
21
1.59744
0
LINE
8
BLACK
6
CONTINUOUS
10
1.31583
20
1.59744
11
1.31652
21
1.59715
0
LINE
8
BLACK
6
CONTINUOUS
10
1.31652
20
1.59715
11
1.31681
21
1.59646
0
LINE
8
BLACK
6
CONTINUOUS
10
0.494564
20
1.48504
11
0.494276
21
1.48573
0
LINE
8
BLACK
6
CONTINUOUS
10
0.494276
20
1.48573
11
0.494276
21
1.59547
0
LINE
8
BLACK
6
CONTINUOUS
10
0.494276
20
1.59547
11
0.123898
21
1.59547
0
LINE
8
BLACK
6
CONTINUOUS
10
0.123898
20
1.59547
11
0.123898
21
0.404528
0
LINE
8
BLACK
6
CONTINUOUS
10
0.123898
20
0.404528
11
1.31484
21
0.404528
0
LINE
8
BLACK
6
CONTINUOUS
10
1.31484
20
0.404528
11
1.31484
21
1.59547
0
LINE
8
BLACK
6
CONTINUOUS
10
1.31484
20
1.59547
11
0.553724
21
1.59547
0
LINE
8
BLACK
6
CONTINUOUS
10
0.553724
20
1.59547
11
0.553724
21
1.48573
0
LINE
8
BLACK
6
CONTINUOUS
10
0.553724
20
1.48573
11
0.553436
21
1.48504
0
LINE
8
BLACK
6
CONTINUOUS
10
0.553436
20
1.48504
11
0.55274
21
1.48475
0
LINE
8
BLACK
6
CONTINUOUS
10
0.55274
20
1.48475
11
0.49526
21
1.48475
0
LINE
8
BLACK
6
CONTINUOUS
10
0.49526
20
1.48475
11
0.494564
21
1.48504
0
LINE
8
BLACK
6
CONTINUOUS
10
0.496244
20
1.59547
11
0.496244
21
1.48672
0
LINE
8
BLACK
6
CONTINUOUS
10
0.496244
20
1.48672
11
0.551756
21
1.48672
0
LINE
8
BLACK
6
CONTINUOUS
10
0.551756
20
1.48672
11
0.551756
21
1.59547
0
LINE
8
BLACK
6
CONTINUOUS
10
0.551756
20
1.59547
11
0.496244
21
1.59547
0
LINE
8
BLACK
6
CONTINUOUS
10
0.496244
20
1.60128
11
0.496244
21
1.59744
0
LINE
8
BLACK
6
CONTINUOUS
10
0.496244
20
1.59744
11
0.551756
21
1.59744
0
LINE
8
BLACK
6
CONTINUOUS
10
0.551756
20
1.59744
11
0.551756
21
1.60128
0
LINE
8
BLACK
6
CONTINUOUS
10
0.551756
20
1.60128
11
0.496244
21
1.60128
0
LINE
8
BLACK
6
CONTINUOUS
10
1.23056
20
0.423036
11
1.23028
21
0.423732
0
LINE
8
BLACK
6
CONTINUOUS
10
1.23028
20
0.423732
11
1.23028
21
0.540268
0
LINE
8
BLACK
6
CONTINUOUS
10
1.23028
20
0.540268
11
1.23056
21
0.540964
0
LINE
8
BLACK
6
CONTINUOUS
10
1.23056
20
0.540964
11
1.23126
21
0.541252
0
LINE
8
BLACK
6
CONTINUOUS
10
1.23126
20
0.541252
11
1.28874
21
0.541252
0
LINE
8
BLACK
6
CONTINUOUS
10
1.28874
20
0.541252
11
1.28944
21
0.540964
0
LINE
8
BLACK
6
CONTINUOUS
10
1.28944
20
0.540964
11
1.28972
21
0.540268
0
LINE
8
BLACK
6
CONTINUOUS
10
1.28972
20
0.540268
11
1.28972
21
0.423732
0
LINE
8
BLACK
6
CONTINUOUS
10
1.28972
20
0.423732
11
1.28944
21
0.423036
0
LINE
8
BLACK
6
CONTINUOUS
10
1.28944
20
0.423036
11
1.28874
21
0.422748
0
LINE
8
BLACK
6
CONTINUOUS
10
1.28874
20
0.422748
11
1.23126
21
0.422748
0
LINE
8
BLACK
6
CONTINUOUS
10
1.23126
20
0.422748
11
1.23056
21
0.423036
0
LINE
8
BLACK
6
CONTINUOUS
10
1.23224
20
0.539283
11
1.23224
21
0.424717
0
LINE
8
BLACK
6
CONTINUOUS
10
1.23224
20
0.424717
11
1.28776
21
0.424717
0
LINE
8
BLACK
6
CONTINUOUS
10
1.28776
20
0.424717
11
1.28776
21
0.539283
0
LINE
8
BLACK
6
CONTINUOUS
10
1.28776
20
0.539283
11
1.23224
21
0.539283
0
LINE
8
BLACK
6
CONTINUOUS
10
1.15856
20
0.423036
11
1.15828
21
0.423732
0
LINE
8
BLACK
6
CONTINUOUS
10
1.15828
20
0.423732
11
1.15828
21
0.540268
0
LINE
8
BLACK
6
CONTINUOUS
10
1.15828
20
0.540268
11
1.15856
21
0.540964
0
LINE
8
BLACK
6
CONTINUOUS
10
1.15856
20
0.540964
11
1.15926
21
0.541252
0
LINE
8
BLACK
6
CONTINUOUS
10
1.15926
20
0.541252
11
1.21674
21
0.541252
0
LINE
8
BLACK
6
CONTINUOUS
10
1.21674
20
0.541252
11
1.21744
21
0.540964
0
LINE
8
BLACK
6
CONTINUOUS
10
1.21744
20
0.540964
11
1.21772
21
0.540268
0
LINE
8
BLACK
6
CONTINUOUS
10
1.21772
20
0.540268
11
1.21772
21
0.423732
0
LINE
8
BLACK
6
CONTINUOUS
10
1.21772
20
0.423732
11
1.21744
21
0.423036
0
LINE
8
BLACK
6
CONTINUOUS
10
1.21744
20
0.423036
11
1.21674
21
0.422748
0
LINE
8
BLACK
6
CONTINUOUS
10
1.21674
20
0.422748
11
1.15926
21
0.422748
0
LINE
8
BLACK
6
CONTINUOUS
10
1.15926
20
0.422748
11
1.15856
21
0.423036
0
LINE
8
BLACK
6
CONTINUOUS
10
1.16024
20
0.539283
11
1.16024
21
0.424717
0
LINE
8
BLACK
6
CONTINUOUS
10
1.16024
20
0.424717
11
1.21576
21
0.424717
0
LINE
8
BLACK
6
CONTINUOUS
10
1.21576
20
0.424717
11
1.21576
21
0.539283
0
LINE
8
BLACK
6
CONTINUOUS
10
1.21576
20
0.539283
11
1.16024
21
0.539283
0
LINE
8
BLACK
6
CONTINUOUS
10
0.943036
20
0.464564
11
0.942748
21
0.46526
0
LINE
8
BLACK
6
CONTINUOUS
10
0.942748
20
0.46526
11
0.942748
21
0.52274
0
LINE
8
BLACK
6
CONTINUOUS
10
0.942748
20
0.52274
11
0.943036
21
0.523436
0
LINE
8
BLACK
6
CONTINUOUS
10
0.943036
20
0.523436
11
0.943732
21
0.523724
0
LINE
8
BLACK
6
CONTINUOUS
10
0.943732
20
0.523724
11
1.06027
21
0.523724
0
LINE
8
BLACK
6
CONTINUOUS
10
1.06027
20
0.523724
11
1.06096
21
0.523436
0
LINE
8
BLACK
6
CONTINUOUS
10
1.06096
20
0.523436
11
1.06125
21
0.52274
0
LINE
8
BLACK
6
CONTINUOUS
10
1.06125
20
0.52274
11
1.06125
21
0.46526
0
LINE
8
BLACK
6
CONTINUOUS
10
1.06125
20
0.46526
11
1.06096
21
0.464564
0
LINE
8
BLACK
6
CONTINUOUS
10
1.06096
20
0.464564
11
1.06027
21
0.464276
0
LINE
8
BLACK
6
CONTINUOUS
10
1.06027
20
0.464276
11
0.943732
21
0.464276
0
LINE
8
BLACK
6
CONTINUOUS
10
0.943732
20
0.464276
11
0.943036
21
0.464564
0
LINE
8
BLACK
6
CONTINUOUS
10
0.944717
20
0.521756
11
0.944717
21
0.466244
0
LINE
8
BLACK
6
CONTINUOUS
10
0.944717
20
0.466244
11
1.05928
21
0.466244
0
LINE
8
BLACK
6
CONTINUOUS
10
1.05928
20
0.466244
11
1.05928
21
0.521756
0
LINE
8
BLACK
6
CONTINUOUS
10
1.05928
20
0.521756
11
0.944717
21
0.521756
0
LINE
8
BLACK
6
CONTINUOUS
10
0.779036
20
0.526564
11
0.778748
21
0.52726
0
LINE
8
BLACK
6
CONTINUOUS
10
0.778748
20
0.52726
11
0.778748
21
0.58474
0
LINE
8
BLACK
6
CONTINUOUS
10
0.778748
20
0.58474
11
0.779036
21
0.585436
0
LINE
8
BLACK
6
CONTINUOUS
10
0.779036
20
0.585436
11
0.779732
21
0.585724
0
LINE
8
BLACK
6
CONTINUOUS
10
0.779732
20
0.585724
11
0.896268
21
0.585724
0
LINE
8
BLACK
6
CONTINUOUS
10
0.896268
20
0.585724
11
0.896964
21
0.585436
0
LINE
8
BLACK
6
CONTINUOUS
10
0.896964
20
0.585436
11
0.897252
21
0.58474
0
LINE
8
BLACK
6
CONTINUOUS
10
0.897252
20
0.58474
11
0.897252
21
0.52726
0
LINE
8
BLACK
6
CONTINUOUS
10
0.897252
20
0.52726
11
0.896964
21
0.526564
0
LINE
8
BLACK
6
CONTINUOUS
10
0.896964
20
0.526564
11
0.896268
21
0.526276
0
LINE
8
BLACK
6
CONTINUOUS
10
0.896268
20
0.526276
11
0.779732
21
0.526276
0
LINE
8
BLACK
6
CONTINUOUS
10
0.779732
20
0.526276
11
0.779036
21
0.526564
0
LINE
8
BLACK
6
CONTINUOUS
10
0.780717
20
0.583756
11
0.780717
21
0.528244
0
LINE
8
BLACK
6
CONTINUOUS
10
0.780717
20
0.528244
11
0.895283
21
0.528244
0
LINE
8
BLACK
6
CONTINUOUS
10
0.895283
20
0.528244
11
0.895283
21
0.583756
0
LINE
8
BLACK
6
CONTINUOUS
10
0.895283
20
0.583756
11
0.780717
21
0.583756
0
LINE
8
BLACK
6
CONTINUOUS
10
0.943036
20
0.536564
11
0.942748
21
0.53726
0
LINE
8
BLACK
6
CONTINUOUS
10
0.942748
20
0.53726
11
0.942748
21
0.59474
0
LINE
8
BLACK
6
CONTINUOUS
10
0.942748
20
0.59474
11
0.943036
21
0.595436
0
LINE
8
BLACK
6
CONTINUOUS
10
0.943036
20
0.595436
11
0.943732
21
0.595724
0
LINE
8
BLACK
6
CONTINUOUS
10
0.943732
20
0.595724
11
1.06027
21
0.595724
0
LINE
8
BLACK
6
CONTINUOUS
10
1.06027
20
0.595724
11
1.06096
21
0.595436
0
LINE
8
BLACK
6
CONTINUOUS
10
1.06096
20
0.595436
11
1.06125
21
0.59474
0
LINE
8
BLACK
6
CONTINUOUS
10
1.06125
20
0.59474
11
1.06125
21
0.53726
0
LINE
8
BLACK
6
CONTINUOUS
10
1.06125
20
0.53726
11
1.06096
21
0.536564
0
LINE
8
BLACK
6
CONTINUOUS
10
1.06096
20
0.536564
11
1.06027
21
0.536276
0
LINE
8
BLACK
6
CONTINUOUS
10
1.06027
20
0.536276
11
0.943732
21
0.536276
0
LINE
8
BLACK
6
CONTINUOUS
10
0.943732
20
0.536276
11
0.943036
21
0.536564
0
LINE
8
BLACK
6
CONTINUOUS
10
0.944717
20
0.593756
11
0.944717
21
0.538244
0
LINE
8
BLACK
6
CONTINUOUS
10
0.944717
20
0.538244
11
1.05928
21
0.538244
0
LINE
8
BLACK
6
CONTINUOUS
10
1.05928
20
0.538244
11
1.05928
21
0.593756
0
LINE
8
BLACK
6
CONTINUOUS
10
1.05928
20
0.593756
11
0.944717
21
0.593756
0
LINE
8
BLACK
6
CONTINUOUS
10
0.627036
20
0.544564
11
0.626748
21
0.54526
0
LINE
8
BLACK
6
CONTINUOUS
10
0.626748
20
0.54526
11
0.626748
21
0.60274
0
LINE
8
BLACK
6
CONTINUOUS
10
0.626748
20
0.60274
11
0.627036
21
0.603436
0
LINE
8
BLACK
6
CONTINUOUS
10
0.627036
20
0.603436
11
0.627732
21
0.603724
0
LINE
8
BLACK
6
CONTINUOUS
10
0.627732
20
0.603724
11
0.744268
21
0.603724
0
LINE
8
BLACK
6
CONTINUOUS
10
0.744268
20
0.603724
11
0.744964
21
0.603436
0
LINE
8
BLACK
6
CONTINUOUS
10
0.744964
20
0.603436
11
0.745252
21
0.60274
0
LINE
8
BLACK
6
CONTINUOUS
10
0.745252
20
0.60274
11
0.745252
21
0.54526
0
LINE
8
BLACK
6
CONTINUOUS
10
0.745252
20
0.54526
11
0.744964
21
0.544564
0
LINE
8
BLACK
6
CONTINUOUS
10
0.744964
20
0.544564
11
0.744268
21
0.544276
0
LINE
8
BLACK
6
CONTINUOUS
10
0.744268
20
0.544276
11
0.627732
21
0.544276
0
LINE
8
BLACK
6
CONTINUOUS
10
0.627732
20
0.544276
11
0.627036
21
0.544564
0
LINE
8
BLACK
6
CONTINUOUS
10
0.628717
20
0.601756
11
0.628717
21
0.546244
0
LINE
8
BLACK
6
CONTINUOUS
10
0.628717
20
0.546244
11
0.743283
21
0.546244
0
LINE
8
BLACK
6
CONTINUOUS
10
0.743283
20
0.546244
11
0.743283
21
0.601756
0
LINE
8
BLACK
6
CONTINUOUS
10
0.743283
20
0.601756
11
0.628717
21
0.601756
0
LINE
8
BLACK
6
CONTINUOUS
10
0.497036
20
0.544564
11
0.496748
21
0.54526
0
LINE
8
BLACK
6
CONTINUOUS
10
0.496748
20
0.54526
11
0.496748
21
0.60274
0
LINE
8
BLACK
6
CONTINUOUS
10
0.496748
20
0.60274
11
0.497036
21
0.603436
0
LINE
8
BLACK
6
CONTINUOUS
10
0.497036
20
0.603436
11
0.497732
21
0.603724
0
LINE
8
BLACK
6
CONTINUOUS
10
0.497732
20
0.603724
11
0.614268
21
0.603724
0
LINE
8
BLACK
6
CONTINUOUS
10
0.614268
20
0.603724
11
0.614964
21
0.603436
0
LINE
8
BLACK
6
CONTINUOUS
10
0.614964
20
0.603436
11
0.615252
21
0.60274
0
LINE
8
BLACK
6
CONTINUOUS
10
0.615252
20
0.60274
11
0.615252
21
0.54526
0
LINE
8
BLACK
6
CONTINUOUS
10
0.615252
20
0.54526
11
0.614964
21
0.544564
0
LINE
8
BLACK
6
CONTINUOUS
10
0.614964
20
0.544564
11
0.614268
21
0.544276
0
LINE
8
BLACK
6
CONTINUOUS
10
0.614268
20
0.544276
11
0.497732
21
0.544276
0
LINE
8
BLACK
6
CONTINUOUS
10
0.497732
20
0.544276
11
0.497036
21
0.544564
0
LINE
8
BLACK
6
CONTINUOUS
10
0.498717
20
0.601756
11
0.498717
21
0.546244
0
LINE
8
BLACK
6
CONTINUOUS
10
0.498717
20
0.546244
11
0.613283
21
0.546244
0
LINE
8
BLACK
6
CONTINUOUS
10
0.613283
20
0.546244
11
0.613283
21
0.601756
0
LINE
8
BLACK
6
CONTINUOUS
10
0.613283
20
0.601756
11
0.498717
21
0.601756
0
LINE
8
BLACK
6
CONTINUOUS
10
1.11456
20
0.561036
11
1.11428
21
0.561732
0
LINE
8
BLACK
6
CONTINUOUS
10
1.11428
20
0.561732
11
1.11428
21
0.678268
0
LINE
8
BLACK
6
CONTINUOUS
10
1.11428
20
0.678268
11
1.11456
21
0.678964
0
LINE
8
BLACK
6
CONTINUOUS
10
1.11456
20
0.678964
11
1.11526
21
0.679252
0
LINE
8
BLACK
6
CONTINUOUS
10
1.11526
20
0.679252
11
1.17274
21
0.679252
0
LINE
8
BLACK
6
CONTINUOUS
10
1.17274
20
0.679252
11
1.17344
21
0.678964
0
LINE
8
BLACK
6
CONTINUOUS
10
1.17344
20
0.678964
11
1.17372
21
0.678268
0
LINE
8
BLACK
6
CONTINUOUS
10
1.17372
20
0.678268
11
1.17372
21
0.561732
0
LINE
8
BLACK
6
CONTINUOUS
10
1.17372
20
0.561732
11
1.17344
21
0.561036
0
LINE
8
BLACK
6
CONTINUOUS
10
1.17344
20
0.561036
11
1.17274
21
0.560748
0
LINE
8
BLACK
6
CONTINUOUS
10
1.17274
20
0.560748
11
1.11526
21
0.560748
0
LINE
8
BLACK
6
CONTINUOUS
10
1.11526
20
0.560748
11
1.11456
21
0.561036
0
LINE
8
BLACK
6
CONTINUOUS
10
1.11624
20
0.677283
11
1.11624
21
0.562717
0
LINE
8
BLACK
6
CONTINUOUS
10
1.11624
20
0.562717
11
1.17176
21
0.562717
0
LINE
8
BLACK
6
CONTINUOUS
10
1.17176
20
0.562717
11
1.17176
21
0.677283
0
LINE
8
BLACK
6
CONTINUOUS
10
1.17176
20
0.677283
11
1.11624
21
0.677283
0
LINE
8
BLACK
6
CONTINUOUS
10
0.779036
20
0.596564
11
0.778748
21
0.59726
0
LINE
8
BLACK
6
CONTINUOUS
10
0.778748
20
0.59726
11
0.778748
21
0.65474
0
LINE
8
BLACK
6
CONTINUOUS
10
0.778748
20
0.65474
11
0.779036
21
0.655436
0
LINE
8
BLACK
6
CONTINUOUS
10
0.779036
20
0.655436
11
0.779732
21
0.655724
0
LINE
8
BLACK
6
CONTINUOUS
10
0.779732
20
0.655724
11
0.896268
21
0.655724
0
LINE
8
BLACK
6
CONTINUOUS
10
0.896268
20
0.655724
11
0.896964
21
0.655436
0
LINE
8
BLACK
6
CONTINUOUS
10
0.896964
20
0.655436
11
0.897252
21
0.65474
0
LINE
8
BLACK
6
CONTINUOUS
10
0.897252
20
0.65474
11
0.897252
21
0.59726
0
LINE
8
BLACK
6
CONTINUOUS
10
0.897252
20
0.59726
11
0.896964
21
0.596564
0
LINE
8
BLACK
6
CONTINUOUS
10
0.896964
20
0.596564
11
0.896268
21
0.596276
0
LINE
8
BLACK
6
CONTINUOUS
10
0.896268
20
0.596276
11
0.779732
21
0.596276
0
LINE
8
BLACK
6
CONTINUOUS
10
0.779732
20
0.596276
11
0.779036
21
0.596564
0
LINE
8
BLACK
6
CONTINUOUS
10
0.780717
20
0.653756
11
0.780717
21
0.598244
0
LINE
8
BLACK
6
CONTINUOUS
10
0.780717
20
0.598244
11
0.895283
21
0.598244
0
LINE
8
BLACK
6
CONTINUOUS
10
0.895283
20
0.598244
11
0.895283
21
0.653756
0
LINE
8
BLACK
6
CONTINUOUS
10
0.895283
20
0.653756
11
0.780717
21
0.653756
0
LINE
8
BLACK
6
CONTINUOUS
10
0.943036
20
0.606564
11
0.942748
21
0.60726
0
LINE
8
BLACK
6
CONTINUOUS
10
0.942748
20
0.60726
11
0.942748
21
0.66474
0
LINE
8
BLACK
6
CONTINUOUS
10
0.942748
20
0.66474
11
0.943036
21
0.665436
0
LINE
8
BLACK
6
CONTINUOUS
10
0.943036
20
0.665436
11
0.943732
21
0.665724
0
LINE
8
BLACK
6
CONTINUOUS
10
0.943732
20
0.665724
11
1.06027
21
0.665724
0
LINE
8
BLACK
6
CONTINUOUS
10
1.06027
20
0.665724
11
1.06096
21
0.665436
0
LINE
8
BLACK
6
CONTINUOUS
10
1.06096
20
0.665436
11
1.06125
21
0.66474
0
LINE
8
BLACK
6
CONTINUOUS
10
1.06125
20
0.66474
11
1.06125
21
0.60726
0
LINE
8
BLACK
6
CONTINUOUS
10
1.06125
20
0.60726
11
1.06096
21
0.606564
0
LINE
8
BLACK
6
CONTINUOUS
10
1.06096
20
0.606564
11
1.06027
21
0.606276
0
LINE
8
BLACK
6
CONTINUOUS
10
1.06027
20
0.606276
11
0.943732
21
0.606276
0
LINE
8
BLACK
6
CONTINUOUS
10
0.943732
20
0.606276
11
0.943036
21
0.606564
0
LINE
8
BLACK
6
CONTINUOUS
10
0.944717
20
0.663756
11
0.944717
21
0.608244
0
LINE
8
BLACK
6
CONTINUOUS
10
0.944717
20
0.608244
11
1.05928
21
0.608244
0
LINE
8
BLACK
6
CONTINUOUS
10
1.05928
20
0.608244
11
1.05928
21
0.663756
0
LINE
8
BLACK
6
CONTINUOUS
10
1.05928
20
0.663756
11
0.944717
21
0.663756
0
LINE
8
BLACK
6
CONTINUOUS
10
0.330564
20
0.609036
11
0.330276
21
0.609732
0
LINE
8
BLACK
6
CONTINUOUS
10
0.330276
20
0.609732
11
0.330276
21
0.726268
0
LINE
8
BLACK
6
CONTINUOUS
10
0.330276
20
0.726268
11
0.330564
21
0.726964
0
LINE
8
BLACK
6
CONTINUOUS
10
0.330564
20
0.726964
11
0.33126
21
0.727252
0
LINE
8
BLACK
6
CONTINUOUS
10
0.33126
20
0.727252
11
0.38874
21
0.727252
0
LINE
8
BLACK
6
CONTINUOUS
10
0.38874
20
0.727252
11
0.389436
21
0.726964
0
LINE
8
BLACK
6
CONTINUOUS
10
0.389436
20
0.726964
11
0.389724
21
0.726268
0
LINE
8
BLACK
6
CONTINUOUS
10
0.389724
20
0.726268
11
0.389724
21
0.609732
0
LINE
8
BLACK
6
CONTINUOUS
10
0.389724
20
0.609732
11
0.389436
21
0.609036
0
LINE
8
BLACK
6
CONTINUOUS
10
0.389436
20
0.609036
11
0.38874
21
0.608748
0
LINE
8
BLACK
6
CONTINUOUS
10
0.38874
20
0.608748
11
0.33126
21
0.608748
0
LINE
8
BLACK
6
CONTINUOUS
10
0.33126
20
0.608748
11
0.330564
21
0.609036
0
LINE
8
BLACK
6
CONTINUOUS
10
0.332244
20
0.725283
11
0.332244
21
0.610717
0
LINE
8
BLACK
6
CONTINUOUS
10
0.332244
20
0.610717
11
0.387756
21
0.610717
0
LINE
8
BLACK
6
CONTINUOUS
10
0.387756
20
0.610717
11
0.387756
21
0.725283
0
LINE
8
BLACK
6
CONTINUOUS
10
0.387756
20
0.725283
11
0.332244
21
0.725283
0
LINE
8
BLACK
6
CONTINUOUS
10
1.21456
20
0.613036
11
1.21428
21
0.613732
0
LINE
8
BLACK
6
CONTINUOUS
10
1.21428
20
0.613732
11
1.21428
21
0.730268
0
LINE
8
BLACK
6
CONTINUOUS
10
1.21428
20
0.730268
11
1.21456
21
0.730964
0
LINE
8
BLACK
6
CONTINUOUS
10
1.21456
20
0.730964
11
1.21526
21
0.731252
0
LINE
8
BLACK
6
CONTINUOUS
10
1.21526
20
0.731252
11
1.27274
21
0.731252
0
LINE
8
BLACK
6
CONTINUOUS
10
1.27274
20
0.731252
11
1.27344
21
0.730964
0
LINE
8
BLACK
6
CONTINUOUS
10
1.27344
20
0.730964
11
1.27372
21
0.730268
0
LINE
8
BLACK
6
CONTINUOUS
10
1.27372
20
0.730268
11
1.27372
21
0.613732
0
LINE
8
BLACK
6
CONTINUOUS
10
1.27372
20
0.613732
11
1.27344
21
0.613036
0
LINE
8
BLACK
6
CONTINUOUS
10
1.27344
20
0.613036
11
1.27274
21
0.612748
0
LINE
8
BLACK
6
CONTINUOUS
10
1.27274
20
0.612748
11
1.21526
21
0.612748
0
LINE
8
BLACK
6
CONTINUOUS
10
1.21526
20
0.612748
11
1.21456
21
0.613036
0
LINE
8
BLACK
6
CONTINUOUS
10
1.21624
20
0.729283
11
1.21624
21
0.614717
0
LINE
8
BLACK
6
CONTINUOUS
10
1.21624
20
0.614717
11
1.27176
21
0.614717
0
LINE
8
BLACK
6
CONTINUOUS
10
1.27176
20
0.614717
11
1.27176
21
0.729283
0
LINE
8
BLACK
6
CONTINUOUS
10
1.27176
20
0.729283
11
1.21624
21
0.729283
0
LINE
8
BLACK
6
CONTINUOUS
10
0.627036
20
0.618564
11
0.626748
21
0.61926
0
LINE
8
BLACK
6
CONTINUOUS
10
0.626748
20
0.61926
11
0.626748
21
0.67674
0
LINE
8
BLACK
6
CONTINUOUS
10
0.626748
20
0.67674
11
0.627036
21
0.677436
0
LINE
8
BLACK
6
CONTINUOUS
10
0.627036
20
0.677436
11
0.627732
21
0.677724
0
LINE
8
BLACK
6
CONTINUOUS
10
0.627732
20
0.677724
11
0.744268
21
0.677724
0
LINE
8
BLACK
6
CONTINUOUS
10
0.744268
20
0.677724
11
0.744964
21
0.677436
0
LINE
8
BLACK
6
CONTINUOUS
10
0.744964
20
0.677436
11
0.745252
21
0.67674
0
LINE
8
BLACK
6
CONTINUOUS
10
0.745252
20
0.67674
11
0.745252
21
0.61926
0
LINE
8
BLACK
6
CONTINUOUS
10
0.745252
20
0.61926
11
0.744964
21
0.618564
0
LINE
8
BLACK
6
CONTINUOUS
10
0.744964
20
0.618564
11
0.744268
21
0.618276
0
LINE
8
BLACK
6
CONTINUOUS
10
0.744268
20
0.618276
11
0.627732
21
0.618276
0
LINE
8
BLACK
6
CONTINUOUS
10
0.627732
20
0.618276
11
0.627036
21
0.618564
0
LINE
8
BLACK
6
CONTINUOUS
10
0.628717
20
0.675756
11
0.628717
21
0.620244
0
LINE
8
BLACK
6
CONTINUOUS
10
0.628717
20
0.620244
11
0.743283
21
0.620244
0
LINE
8
BLACK
6
CONTINUOUS
10
0.743283
20
0.620244
11
0.743283
21
0.675756
0
LINE
8
BLACK
6
CONTINUOUS
10
0.743283
20
0.675756
11
0.628717
21
0.675756
0
LINE
8
BLACK
6
CONTINUOUS
10
0.412375
20
0.663713
11
0.412087
21
0.664409
0
LINE
8
BLACK
6
CONTINUOUS
10
0.412087
20
0.664409
11
0.412087
21
0.815591
0
LINE
8
BLACK
6
CONTINUOUS
10
0.412087
20
0.815591
11
0.412375
21
0.816287
0
LINE
8
BLACK
6
CONTINUOUS
10
0.412375
20
0.816287
11
0.413071
21
0.816575
0
LINE
8
BLACK
6
CONTINUOUS
10
0.413071
20
0.816575
11
0.546929
21
0.816575
0
LINE
8
BLACK
6
CONTINUOUS
10
0.546929
20
0.816575
11
0.547625
21
0.816287
0
LINE
8
BLACK
6
CONTINUOUS
10
0.547625
20
0.816287
11
0.547913
21
0.815591
0
LINE
8
BLACK
6
CONTINUOUS
10
0.547913
20
0.815591
11
0.547913
21
0.664409
0
LINE
8
BLACK
6
CONTINUOUS
10
0.547913
20
0.664409
11
0.547625
21
0.663713
0
LINE
8
BLACK
6
CONTINUOUS
10
0.547625
20
0.663713
11
0.546929
21
0.663425
0
LINE
8
BLACK
6
CONTINUOUS
10
0.546929
20
0.663425
11
0.413071
21
0.663425
0
LINE
8
BLACK
6
CONTINUOUS
10
0.413071
20
0.663425
11
0.412375
21
0.663713
0
LINE
8
BLACK
6
CONTINUOUS
10
0.414055
20
0.814606
11
0.414055
21
0.665394
0
LINE
8
BLACK
6
CONTINUOUS
10
0.414055
20
0.665394
11
0.545945
21
0.665394
0
LINE
8
BLACK
6
CONTINUOUS
10
0.545945
20
0.665394
11
0.545945
21
0.814606
0
LINE
8
BLACK
6
CONTINUOUS
10
0.545945
20
0.814606
11
0.414055
21
0.814606
0
LINE
8
BLACK
6
CONTINUOUS
10
0.195036
20
0.668564
11
0.194748
21
0.66926
0
LINE
8
BLACK
6
CONTINUOUS
10
0.194748
20
0.66926
11
0.194748
21
0.72674
0
LINE
8
BLACK
6
CONTINUOUS
10
0.194748
20
0.72674
11
0.195036
21
0.727436
0
LINE
8
BLACK
6
CONTINUOUS
10
0.195036
20
0.727436
11
0.195732
21
0.727724
0
LINE
8
BLACK
6
CONTINUOUS
10
0.195732
20
0.727724
11
0.312268
21
0.727724
0
LINE
8
BLACK
6
CONTINUOUS
10
0.312268
20
0.727724
11
0.312964
21
0.727436
0
LINE
8
BLACK
6
CONTINUOUS
10
0.312964
20
0.727436
11
0.313252
21
0.72674
0
LINE
8
BLACK
6
CONTINUOUS
10
0.313252
20
0.72674
11
0.313252
21
0.66926
0
LINE
8
BLACK
6
CONTINUOUS
10
0.313252
20
0.66926
11
0.312964
21
0.668564
0
LINE
8
BLACK
6
CONTINUOUS
10
0.312964
20
0.668564
11
0.312268
21
0.668276
0
LINE
8
BLACK
6
CONTINUOUS
10
0.312268
20
0.668276
11
0.195732
21
0.668276
0
LINE
8
BLACK
6
CONTINUOUS
10
0.195732
20
0.668276
11
0.195036
21
0.668564
0
LINE
8
BLACK
6
CONTINUOUS
10
0.196717
20
0.725756
11
0.196717
21
0.670244
0
LINE
8
BLACK
6
CONTINUOUS
10
0.196717
20
0.670244
11
0.311283
21
0.670244
0
LINE
8
BLACK
6
CONTINUOUS
10
0.311283
20
0.670244
11
0.311283
21
0.725756
0
LINE
8
BLACK
6
CONTINUOUS
10
0.311283
20
0.725756
11
0.196717
21
0.725756
0
LINE
8
BLACK
6
CONTINUOUS
10
0.627036
20
0.692564
11
0.626748
21
0.69326
0
LINE
8
BLACK
6
CONTINUOUS
10
0.626748
20
0.69326
11
0.626748
21
0.75074
0
LINE
8
BLACK
6
CONTINUOUS
10
0.626748
20
0.75074
11
0.627036
21
0.751436
0
LINE
8
BLACK
6
CONTINUOUS
10
0.627036
20
0.751436
11
0.627732
21
0.751724
0
LINE
8
BLACK
6
CONTINUOUS
10
0.627732
20
0.751724
11
0.744268
21
0.751724
0
LINE
8
BLACK
6
CONTINUOUS
10
0.744268
20
0.751724
11
0.744964
21
0.751436
0
LINE
8
BLACK
6
CONTINUOUS
10
0.744964
20
0.751436
11
0.745252
21
0.75074
0
LINE
8
BLACK
6
CONTINUOUS
10
0.745252
20
0.75074
11
0.745252
21
0.69326
0
LINE
8
BLACK
6
CONTINUOUS
10
0.745252
20
0.69326
11
0.744964
21
0.692564
0
LINE
8
BLACK
6
CONTINUOUS
10
0.744964
20
0.692564
11
0.744268
21
0.692276
0
LINE
8
BLACK
6
CONTINUOUS
10
0.744268
20
0.692276
11
0.627732
21
0.692276
0
LINE
8
BLACK
6
CONTINUOUS
10
0.627732
20
0.692276
11
0.627036
21
0.692564
0
LINE
8
BLACK
6
CONTINUOUS
10
0.628717
20
0.749756
11
0.628717
21
0.694244
0
LINE
8
BLACK
6
CONTINUOUS
10
0.628717
20
0.694244
11
0.743283
21
0.694244
0
LINE
8
BLACK
6
CONTINUOUS
10
0.743283
20
0.694244
11
0.743283
21
0.749756
0
LINE
8
BLACK
6
CONTINUOUS
10
0.743283
20
0.749756
11
0.628717
21
0.749756
0
LINE
8
BLACK
6
CONTINUOUS
10
0.766438
20
0.695603
11
0.76615
21
0.696299
0
LINE
8
BLACK
6
CONTINUOUS
10
0.76615
20
0.696299
11
0.76615
21
0.883701
0
LINE
8
BLACK
6
CONTINUOUS
10
0.76615
20
0.883701
11
0.766438
21
0.884397
0
LINE
8
BLACK
6
CONTINUOUS
10
0.766438
20
0.884397
11
0.767134
21
0.884685
0
LINE
8
BLACK
6
CONTINUOUS
10
0.767134
20
0.884685
11
0.908866
21
0.884685
0
LINE
8
BLACK
6
CONTINUOUS
10
0.908866
20
0.884685
11
0.909562
21
0.884397
0
LINE
8
BLACK
6
CONTINUOUS
10
0.909562
20
0.884397
11
0.90985
21
0.883701
0
LINE
8
BLACK
6
CONTINUOUS
10
0.90985
20
0.883701
11
0.90985
21
0.696299
0
LINE
8
BLACK
6
CONTINUOUS
10
0.90985
20
0.696299
11
0.909562
21
0.695603
0
LINE
8
BLACK
6
CONTINUOUS
10
0.909562
20
0.695603
11
0.908866
21
0.695315
0
LINE
8
BLACK
6
CONTINUOUS
10
0.908866
20
0.695315
11
0.767134
21
0.695315
0
LINE
8
BLACK
6
CONTINUOUS
10
0.767134
20
0.695315
11
0.766438
21
0.695603
0
LINE
8
BLACK
6
CONTINUOUS
10
0.768118
20
0.882717
11
0.768118
21
0.697283
0
LINE
8
BLACK
6
CONTINUOUS
10
0.768118
20
0.697283
11
0.907882
21
0.697283
0
LINE
8
BLACK
6
CONTINUOUS
10
0.907882
20
0.697283
11
0.907882
21
0.882717
0
LINE
8
BLACK
6
CONTINUOUS
10
0.907882
20
0.882717
11
0.768118
21
0.882717
0
LINE
8
BLACK
6
CONTINUOUS
10
1.00044
20
0.697603
11
1.00015
21
0.698299
0
LINE
8
BLACK
6
CONTINUOUS
10
1.00015
20
0.698299
11
1.00015
21
0.885701
0
LINE
8
BLACK
6
CONTINUOUS
10
1.00015
20
0.885701
11
1.00044
21
0.886397
0
LINE
8
BLACK
6
CONTINUOUS
10
1.00044
20
0.886397
11
1.00113
21
0.886685
0
LINE
8
BLACK
6
CONTINUOUS
10
1.00113
20
0.886685
11
1.14287
21
0.886685
0
LINE
8
BLACK
6
CONTINUOUS
10
1.14287
20
0.886685
11
1.14356
21
0.886397
0
LINE
8
BLACK
6
CONTINUOUS
10
1.14356
20
0.886397
11
1.14385
21
0.885701
0
LINE
8
BLACK
6
CONTINUOUS
10
1.14385
20
0.885701
11
1.14385
21
0.698299
0
LINE
8
BLACK
6
CONTINUOUS
10
1.14385
20
0.698299
11
1.14356
21
0.697603
0
LINE
8
BLACK
6
CONTINUOUS
10
1.14356
20
0.697603
11
1.14287
21
0.697315
0
LINE
8
BLACK
6
CONTINUOUS
10
1.14287
20
0.697315
11
1.00113
21
0.697315
0
LINE
8
BLACK
6
CONTINUOUS
10
1.00113
20
0.697315
11
1.00044
21
0.697603
0
LINE
8
BLACK
6
CONTINUOUS
10
1.00212
20
0.884717
11
1.00212
21
0.699283
0
LINE
8
BLACK
6
CONTINUOUS
10
1.00212
20
0.699283
11
1.14188
21
0.699283
0
LINE
8
BLACK
6
CONTINUOUS
10
1.14188
20
0.699283
11
1.14188
21
0.884717
0
LINE
8
BLACK
6
CONTINUOUS
10
1.14188
20
0.884717
11
1.00212
21
0.884717
0
LINE
8
BLACK
6
CONTINUOUS
10
0.928564
20
0.723036
11
0.928276
21
0.723732
0
LINE
8
BLACK
6
CONTINUOUS
10
0.928276
20
0.723732
11
0.928276
21
0.840268
0
LINE
8
BLACK
6
CONTINUOUS
10
0.928276
20
0.840268
11
0.928564
21
0.840964
0
LINE
8
BLACK
6
CONTINUOUS
10
0.928564
20
0.840964
11
0.92926
21
0.841252
0
LINE
8
BLACK
6
CONTINUOUS
10
0.92926
20
0.841252
11
0.98674
21
0.841252
0
LINE
8
BLACK
6
CONTINUOUS
10
0.98674
20
0.841252
11
0.987436
21
0.840964
0
LINE
8
BLACK
6
CONTINUOUS
10
0.987436
20
0.840964
11
0.987724
21
0.840268
0
LINE
8
BLACK
6
CONTINUOUS
10
0.987724
20
0.840268
11
0.987724
21
0.723732
0
LINE
8
BLACK
6
CONTINUOUS
10
0.987724
20
0.723732
11
0.987436
21
0.723036
0
LINE
8
BLACK
6
CONTINUOUS
10
0.987436
20
0.723036
11
0.98674
21
0.722748
0
LINE
8
BLACK
6
CONTINUOUS
10
0.98674
20
0.722748
11
0.92926
21
0.722748
0
LINE
8
BLACK
6
CONTINUOUS
10
0.92926
20
0.722748
11
0.928564
21
0.723036
0
LINE
8
BLACK
6
CONTINUOUS
10
0.930244
20
0.839283
11
0.930244
21
0.724717
0
LINE
8
BLACK
6
CONTINUOUS
10
0.930244
20
0.724717
11
0.985756
21
0.724717
0
LINE
8
BLACK
6
CONTINUOUS
10
0.985756
20
0.724717
11
0.985756
21
0.839283
0
LINE
8
BLACK
6
CONTINUOUS
10
0.985756
20
0.839283
11
0.930244
21
0.839283
0
LINE
8
BLACK
6
CONTINUOUS
10
1.15904
20
0.750564
11
1.15875
21
0.75126
0
LINE
8
BLACK
6
CONTINUOUS
10
1.15875
20
0.75126
11
1.15875
21
0.80874
0
LINE
8
BLACK
6
CONTINUOUS
10
1.15875
20
0.80874
11
1.15904
21
0.809436
0
LINE
8
BLACK
6
CONTINUOUS
10
1.15904
20
0.809436
11
1.15973
21
0.809724
0
LINE
8
BLACK
6
CONTINUOUS
10
1.15973
20
0.809724
11
1.27627
21
0.809724
0
LINE
8
BLACK
6
CONTINUOUS
10
1.27627
20
0.809724
11
1.27696
21
0.809436
0
LINE
8
BLACK
6
CONTINUOUS
10
1.27696
20
0.809436
11
1.27725
21
0.80874
0
LINE
8
BLACK
6
CONTINUOUS
10
1.27725
20
0.80874
11
1.27725
21
0.75126
0
LINE
8
BLACK
6
CONTINUOUS
10
1.27725
20
0.75126
11
1.27696
21
0.750564
0
LINE
8
BLACK
6
CONTINUOUS
10
1.27696
20
0.750564
11
1.27627
21
0.750276
0
LINE
8
BLACK
6
CONTINUOUS
10
1.27627
20
0.750276
11
1.15973
21
0.750276
0
LINE
8
BLACK
6
CONTINUOUS
10
1.15973
20
0.750276
11
1.15904
21
0.750564
0
LINE
8
BLACK
6
CONTINUOUS
10
1.16072
20
0.807756
11
1.16072
21
0.752244
0
LINE
8
BLACK
6
CONTINUOUS
10
1.16072
20
0.752244
11
1.27528
21
0.752244
0
LINE
8
BLACK
6
CONTINUOUS
10
1.27528
20
0.752244
11
1.27528
21
0.807756
0
LINE
8
BLACK
6
CONTINUOUS
10
1.27528
20
0.807756
11
1.16072
21
0.807756
0
LINE
8
BLACK
6
CONTINUOUS
10
0.627036
20
0.766564
11
0.626748
21
0.76726
0
LINE
8
BLACK
6
CONTINUOUS
10
0.626748
20
0.76726
11
0.626748
21
0.82474
0
LINE
8
BLACK
6
CONTINUOUS
10
0.626748
20
0.82474
11
0.627036
21
0.825436
0
LINE
8
BLACK
6
CONTINUOUS
10
0.627036
20
0.825436
11
0.627732
21
0.825724
0
LINE
8
BLACK
6
CONTINUOUS
10
0.627732
20
0.825724
11
0.744268
21
0.825724
0
LINE
8
BLACK
6
CONTINUOUS
10
0.744268
20
0.825724
11
0.744964
21
0.825436
0
LINE
8
BLACK
6
CONTINUOUS
10
0.744964
20
0.825436
11
0.745252
21
0.82474
0
LINE
8
BLACK
6
CONTINUOUS
10
0.745252
20
0.82474
11
0.745252
21
0.76726
0
LINE
8
BLACK
6
CONTINUOUS
10
0.745252
20
0.76726
11
0.744964
21
0.766564
0
LINE
8
BLACK
6
CONTINUOUS
10
0.744964
20
0.766564
11
0.744268
21
0.766276
0
LINE
8
BLACK
6
CONTINUOUS
10
0.744268
20
0.766276
11
0.627732
21
0.766276
0
LINE
8
BLACK
6
CONTINUOUS
10
0.627732
20
0.766276
11
0.627036
21
0.766564
0
LINE
8
BLACK
6
CONTINUOUS
10
0.628717
20
0.823756
11
0.628717
21
0.768244
0
LINE
8
BLACK
6
CONTINUOUS
10
0.628717
20
0.768244
11
0.743283
21
0.768244
0
LINE
8
BLACK
6
CONTINUOUS
10
0.743283
20
0.768244
11
0.743283
21
0.823756
0
LINE
8
BLACK
6
CONTINUOUS
10
0.743283
20
0.823756
11
0.628717
21
0.823756
0
LINE
8
BLACK
6
CONTINUOUS
10
0.209836
20
0.810328
11
0.209547
21
0.811024
0
LINE
8
BLACK
6
CONTINUOUS
10
0.209547
20
0.811024
11
0.209547
21
0.868504
0
LINE
8
BLACK
6
CONTINUOUS
10
0.209547
20
0.868504
11
0.209836
21
0.8692
0
LINE
8
BLACK
6
CONTINUOUS
10
0.209836
20
0.8692
11
0.210531
21
0.869488
0
LINE
8
BLACK
6
CONTINUOUS
10
0.210531
20
0.869488
11
0.327067
21
0.869488
0
LINE
8
BLACK
6
CONTINUOUS
10
0.327067
20
0.869488
11
0.327763
21
0.8692
0
LINE
8
BLACK
6
CONTINUOUS
10
0.327763
20
0.8692
11
0.328051
21
0.868504
0
LINE
8
BLACK
6
CONTINUOUS
10
0.328051
20
0.868504
11
0.328051
21
0.811024
0
LINE
8
BLACK
6
CONTINUOUS
10
0.328051
20
0.811024
11
0.327763
21
0.810328
0
LINE
8
BLACK
6
CONTINUOUS
10
0.327763
20
0.810328
11
0.327067
21
0.810039
0
LINE
8
BLACK
6
CONTINUOUS
10
0.327067
20
0.810039
11
0.210531
21
0.810039
0
LINE
8
BLACK
6
CONTINUOUS
10
0.210531
20
0.810039
11
0.209836
21
0.810328
0
LINE
8
BLACK
6
CONTINUOUS
10
0.211516
20
0.86752
11
0.211516
21
0.812008
0
LINE
8
BLACK
6
CONTINUOUS
10
0.211516
20
0.812008
11
0.326083
21
0.812008
0
LINE
8
BLACK
6
CONTINUOUS
10
0.326083
20
0.812008
11
0.326083
21
0.86752
0
LINE
8
BLACK
6
CONTINUOUS
10
0.326083
20
0.86752
11
0.211516
21
0.86752
0
LINE
8
BLACK
6
CONTINUOUS
10
1.15904
20
0.828564
11
1.15875
21
0.82926
0
LINE
8
BLACK
6
CONTINUOUS
10
1.15875
20
0.82926
11
1.15875
21
0.88674
0
LINE
8
BLACK
6
CONTINUOUS
10
1.15875
20
0.88674
11
1.15904
21
0.887436
0
LINE
8
BLACK
6
CONTINUOUS
10
1.15904
20
0.887436
11
1.15973
21
0.887724
0
LINE
8
BLACK
6
CONTINUOUS
10
1.15973
20
0.887724
11
1.27627
21
0.887724
0
LINE
8
BLACK
6
CONTINUOUS
10
1.27627
20
0.887724
11
1.27696
21
0.887436
0
LINE
8
BLACK
6
CONTINUOUS
10
1.27696
20
0.887436
11
1.27725
21
0.88674
0
LINE
8
BLACK
6
CONTINUOUS
10
1.27725
20
0.88674
11
1.27725
21
0.82926
0
LINE
8
BLACK
6
CONTINUOUS
10
1.27725
20
0.82926
11
1.27696
21
0.828564
0
LINE
8
BLACK
6
CONTINUOUS
10
1.27696
20
0.828564
11
1.27627
21
0.828276
0
LINE
8
BLACK
6
CONTINUOUS
10
1.27627
20
0.828276
11
1.15973
21
0.828276
0
LINE
8
BLACK
6
CONTINUOUS
10
1.15973
20
0.828276
11
1.15904
21
0.828564
0
LINE
8
BLACK
6
CONTINUOUS
10
1.16072
20
0.885756
11
1.16072
21
0.830244
0
LINE
8
BLACK
6
CONTINUOUS
10
1.16072
20
0.830244
11
1.27528
21
0.830244
0
LINE
8
BLACK
6
CONTINUOUS
10
1.27528
20
0.830244
11
1.27528
21
0.885756
0
LINE
8
BLACK
6
CONTINUOUS
10
1.27528
20
0.885756
11
1.16072
21
0.885756
0
LINE
8
BLACK
6
CONTINUOUS
10
0.690564
20
0.855036
11
0.690276
21
0.855732
0
LINE
8
BLACK
6
CONTINUOUS
10
0.690276
20
0.855732
11
0.690276
21
0.972268
0
LINE
8
BLACK
6
CONTINUOUS
10
0.690276
20
0.972268
11
0.690564
21
0.972964
0
LINE
8
BLACK
6
CONTINUOUS
10
0.690564
20
0.972964
11
0.69126
21
0.973252
0
LINE
8
BLACK
6
CONTINUOUS
10
0.69126
20
0.973252
11
0.74874
21
0.973252
0
LINE
8
BLACK
6
CONTINUOUS
10
0.74874
20
0.973252
11
0.749436
21
0.972964
0
LINE
8
BLACK
6
CONTINUOUS
10
0.749436
20
0.972964
11
0.749724
21
0.972268
0
LINE
8
BLACK
6
CONTINUOUS
10
0.749724
20
0.972268
11
0.749724
21
0.855732
0
LINE
8
BLACK
6
CONTINUOUS
10
0.749724
20
0.855732
11
0.749436
21
0.855036
0
LINE
8
BLACK
6
CONTINUOUS
10
0.749436
20
0.855036
11
0.74874
21
0.854748
0
LINE
8
BLACK
6
CONTINUOUS
10
0.74874
20
0.854748
11
0.69126
21
0.854748
0
LINE
8
BLACK
6
CONTINUOUS
10
0.69126
20
0.854748
11
0.690564
21
0.855036
0
LINE
8
BLACK
6
CONTINUOUS
10
0.692244
20
0.971283
11
0.692244
21
0.856717
0
LINE
8
BLACK
6
CONTINUOUS
10
0.692244
20
0.856717
11
0.747756
21
0.856717
0
LINE
8
BLACK
6
CONTINUOUS
10
0.747756
20
0.856717
11
0.747756
21
0.971283
0
LINE
8
BLACK
6
CONTINUOUS
10
0.747756
20
0.971283
11
0.692244
21
0.971283
0
LINE
8
BLACK
6
CONTINUOUS
10
0.548564
20
0.859036
11
0.548276
21
0.859732
0
LINE
8
BLACK
6
CONTINUOUS
10
0.548276
20
0.859732
11
0.548276
21
0.976268
0
LINE
8
BLACK
6
CONTINUOUS
10
0.548276
20
0.976268
11
0.548564
21
0.976964
0
LINE
8
BLACK
6
CONTINUOUS
10
0.548564
20
0.976964
11
0.54926
21
0.977252
0
LINE
8
BLACK
6
CONTINUOUS
10
0.54926
20
0.977252
11
0.60674
21
0.977252
0
LINE
8
BLACK
6
CONTINUOUS
10
0.60674
20
0.977252
11
0.607436
21
0.976964
0
LINE
8
BLACK
6
CONTINUOUS
10
0.607436
20
0.976964
11
0.607724
21
0.976268
0
LINE
8
BLACK
6
CONTINUOUS
10
0.607724
20
0.976268
11
0.607724
21
0.859732
0
LINE
8
BLACK
6
CONTINUOUS
10
0.607724
20
0.859732
11
0.607436
21
0.859036
0
LINE
8
BLACK
6
CONTINUOUS
10
0.607436
20
0.859036
11
0.60674
21
0.858748
0
LINE
8
BLACK
6
CONTINUOUS
10
0.60674
20
0.858748
11
0.54926
21
0.858748
0
LINE
8
BLACK
6
CONTINUOUS
10
0.54926
20
0.858748
11
0.548564
21
0.859036
0
LINE
8
BLACK
6
CONTINUOUS
10
0.550244
20
0.975283
11
0.550244
21
0.860717
0
LINE
8
BLACK
6
CONTINUOUS
10
0.550244
20
0.860717
11
0.605756
21
0.860717
0
LINE
8
BLACK
6
CONTINUOUS
10
0.605756
20
0.860717
11
0.605756
21
0.975283
0
LINE
8
BLACK
6
CONTINUOUS
10
0.605756
20
0.975283
11
0.550244
21
0.975283
0
LINE
8
BLACK
6
CONTINUOUS
10
0.620564
20
0.859036
11
0.620276
21
0.859732
0
LINE
8
BLACK
6
CONTINUOUS
10
0.620276
20
0.859732
11
0.620276
21
0.976268
0
LINE
8
BLACK
6
CONTINUOUS
10
0.620276
20
0.976268
11
0.620564
21
0.976964
0
LINE
8
BLACK
6
CONTINUOUS
10
0.620564
20
0.976964
11
0.62126
21
0.977252
0
LINE
8
BLACK
6
CONTINUOUS
10
0.62126
20
0.977252
11
0.67874
21
0.977252
0
LINE
8
BLACK
6
CONTINUOUS
10
0.67874
20
0.977252
11
0.679436
21
0.976964
0
LINE
8
BLACK
6
CONTINUOUS
10
0.679436
20
0.976964
11
0.679724
21
0.976268
0
LINE
8
BLACK
6
CONTINUOUS
10
0.679724
20
0.976268
11
0.679724
21
0.859732
0
LINE
8
BLACK
6
CONTINUOUS
10
0.679724
20
0.859732
11
0.679436
21
0.859036
0
LINE
8
BLACK
6
CONTINUOUS
10
0.679436
20
0.859036
11
0.67874
21
0.858748
0
LINE
8
BLACK
6
CONTINUOUS
10
0.67874
20
0.858748
11
0.62126
21
0.858748
0
LINE
8
BLACK
6
CONTINUOUS
10
0.62126
20
0.858748
11
0.620564
21
0.859036
0
LINE
8
BLACK
6
CONTINUOUS
10
0.622244
20
0.975283
11
0.622244
21
0.860717
0
LINE
8
BLACK
6
CONTINUOUS
10
0.622244
20
0.860717
11
0.677756
21
0.860717
0
LINE
8
BLACK
6
CONTINUOUS
10
0.677756
20
0.860717
11
0.677756
21
0.975283
0
LINE
8
BLACK
6
CONTINUOUS
10
0.677756
20
0.975283
11
0.622244
21
0.975283
0
LINE
8
BLACK
6
CONTINUOUS
10
0.201174
20
0.900485
11
0.200886
21
0.901181
0
LINE
8
BLACK
6
CONTINUOUS
10
0.200886
20
0.901181
11
0.200886
21
0.978346
0
LINE
8
BLACK
6
CONTINUOUS
10
0.200886
20
0.978346
11
0.201174
21
0.979042
0
LINE
8
BLACK
6
CONTINUOUS
10
0.201174
20
0.979042
11
0.20187
21
0.979331
0
LINE
8
BLACK
6
CONTINUOUS
10
0.20187
20
0.979331
11
0.335728
21
0.979331
0
LINE
8
BLACK
6
CONTINUOUS
10
0.335728
20
0.979331
11
0.336424
21
0.979042
0
LINE
8
BLACK
6
CONTINUOUS
10
0.336424
20
0.979042
11
0.336713
21
0.978346
0
LINE
8
BLACK
6
CONTINUOUS
10
0.336713
20
0.978346
11
0.336713
21
0.901181
0
LINE
8
BLACK
6
CONTINUOUS
10
0.336713
20
0.901181
11
0.336424
21
0.900485
0
LINE
8
BLACK
6
CONTINUOUS
10
0.336424
20
0.900485
11
0.335728
21
0.900197
0
LINE
8
BLACK
6
CONTINUOUS
10
0.335728
20
0.900197
11
0.20187
21
0.900197
0
LINE
8
BLACK
6
CONTINUOUS
10
0.20187
20
0.900197
11
0.201174
21
0.900485
0
LINE
8
BLACK
6
CONTINUOUS
10
0.202854
20
0.977362
11
0.202854
21
0.902165
0
LINE
8
BLACK
6
CONTINUOUS
10
0.202854
20
0.902165
11
0.334744
21
0.902165
0
LINE
8
BLACK
6
CONTINUOUS
10
0.334744
20
0.902165
11
0.334744
21
0.977362
0
LINE
8
BLACK
6
CONTINUOUS
10
0.334744
20
0.977362
11
0.202854
21
0.977362
0
LINE
8
BLACK
6
CONTINUOUS
10
0.347336
20
0.910328
11
0.347047
21
0.911024
0
LINE
8
BLACK
6
CONTINUOUS
10
0.347047
20
0.911024
11
0.347047
21
0.968504
0
LINE
8
BLACK
6
CONTINUOUS
10
0.347047
20
0.968504
11
0.347336
21
0.9692
0
LINE
8
BLACK
6
CONTINUOUS
10
0.347336
20
0.9692
11
0.348031
21
0.969488
0
LINE
8
BLACK
6
CONTINUOUS
10
0.348031
20
0.969488
11
0.464567
21
0.969488
0
LINE
8
BLACK
6
CONTINUOUS
10
0.464567
20
0.969488
11
0.465263
21
0.9692
0
LINE
8
BLACK
6
CONTINUOUS
10
0.465263
20
0.9692
11
0.465551
21
0.968504
0
LINE
8
BLACK
6
CONTINUOUS
10
0.465551
20
0.968504
11
0.465551
21
0.911024
0
LINE
8
BLACK
6
CONTINUOUS
10
0.465551
20
0.911024
11
0.465263
21
0.910328
0
LINE
8
BLACK
6
CONTINUOUS
10
0.465263
20
0.910328
11
0.464567
21
0.910039
0
LINE
8
BLACK
6
CONTINUOUS
10
0.464567
20
0.910039
11
0.348031
21
0.910039
0
LINE
8
BLACK
6
CONTINUOUS
10
0.348031
20
0.910039
11
0.347336
21
0.910328
0
LINE
8
BLACK
6
CONTINUOUS
10
0.349016
20
0.96752
11
0.349016
21
0.912008
0
LINE
8
BLACK
6
CONTINUOUS
10
0.349016
20
0.912008
11
0.463583
21
0.912008
0
LINE
8
BLACK
6
CONTINUOUS
10
0.463583
20
0.912008
11
0.463583
21
0.96752
0
LINE
8
BLACK
6
CONTINUOUS
10
0.463583
20
0.96752
11
0.349016
21
0.96752
0
LINE
8
BLACK
6
CONTINUOUS
10
0.985635
20
0.929005
11
0.985346
21
0.929701
0
LINE
8
BLACK
6
CONTINUOUS
10
0.985346
20
0.929701
11
0.985346
21
1.1423
0
LINE
8
BLACK
6
CONTINUOUS
10
0.985346
20
1.1423
11
0.985635
21
1.143
0
LINE
8
BLACK
6
CONTINUOUS
10
0.985635
20
1.143
11
0.986331
21
1.14328
0
LINE
8
BLACK
6
CONTINUOUS
10
0.986331
20
1.14328
11
1.27767
21
1.14328
0
LINE
8
BLACK
6
CONTINUOUS
10
1.27767
20
1.14328
11
1.27837
21
1.143
0
LINE
8
BLACK
6
CONTINUOUS
10
1.27837
20
1.143
11
1.27865
21
1.1423
0
LINE
8
BLACK
6
CONTINUOUS
10
1.27865
20
1.1423
11
1.27865
21
0.929701
0
LINE
8
BLACK
6
CONTINUOUS
10
1.27865
20
0.929701
11
1.27837
21
0.929005
0
LINE
8
BLACK
6
CONTINUOUS
10
1.27837
20
0.929005
11
1.27767
21
0.928717
0
LINE
8
BLACK
6
CONTINUOUS
10
1.27767
20
0.928717
11
0.986331
21
0.928717
0
LINE
8
BLACK
6
CONTINUOUS
10
0.986331
20
0.928717
11
0.985635
21
0.929005
0
LINE
8
BLACK
6
CONTINUOUS
10
0.987315
20
1.14131
11
0.987315
21
0.930685
0
LINE
8
BLACK
6
CONTINUOUS
10
0.987315
20
0.930685
11
1.27669
21
0.930685
0
LINE
8
BLACK
6
CONTINUOUS
10
1.27669
20
0.930685
11
1.27669
21
1.14131
0
LINE
8
BLACK
6
CONTINUOUS
10
1.27669
20
1.14131
11
0.987315
21
1.14131
0
LINE
8
BLACK
6
CONTINUOUS
10
0.906564
20
0.946524
11
0.906276
21
0.94722
0
LINE
8
BLACK
6
CONTINUOUS
10
0.906276
20
0.94722
11
0.906276
21
1.06376
0
LINE
8
BLACK
6
CONTINUOUS
10
0.906276
20
1.06376
11
0.906564
21
1.06445
0
LINE
8
BLACK
6
CONTINUOUS
10
0.906564
20
1.06445
11
0.90726
21
1.06474
0
LINE
8
BLACK
6
CONTINUOUS
10
0.90726
20
1.06474
11
0.96474
21
1.06474
0
LINE
8
BLACK
6
CONTINUOUS
10
0.96474
20
1.06474
11
0.965436
21
1.06445
0
LINE
8
BLACK
6
CONTINUOUS
10
0.965436
20
1.06445
11
0.965724
21
1.06376
0
LINE
8
BLACK
6
CONTINUOUS
10
0.965724
20
1.06376
11
0.965724
21
0.94722
0
LINE
8
BLACK
6
CONTINUOUS
10
0.965724
20
0.94722
11
0.965436
21
0.946524
0
LINE
8
BLACK
6
CONTINUOUS
10
0.965436
20
0.946524
11
0.96474
21
0.946236
0
LINE
8
BLACK
6
CONTINUOUS
10
0.96474
20
0.946236
11
0.90726
21
0.946236
0
LINE
8
BLACK
6
CONTINUOUS
10
0.90726
20
0.946236
11
0.906564
21
0.946524
0
LINE
8
BLACK
6
CONTINUOUS
10
0.908244
20
1.06277
11
0.908244
21
0.948205
0
LINE
8
BLACK
6
CONTINUOUS
10
0.908244
20
0.948205
11
0.963756
21
0.948205
0
LINE
8
BLACK
6
CONTINUOUS
10
0.963756
20
0.948205
11
0.963756
21
1.06277
0
LINE
8
BLACK
6
CONTINUOUS
10
0.963756
20
1.06277
11
0.908244
21
1.06277
0
LINE
8
BLACK
6
CONTINUOUS
10
0.836564
20
0.946556
11
0.836276
21
0.947252
0
LINE
8
BLACK
6
CONTINUOUS
10
0.836276
20
0.947252
11
0.836276
21
1.06379
0
LINE
8
BLACK
6
CONTINUOUS
10
0.836276
20
1.06379
11
0.836564
21
1.06448
0
LINE
8
BLACK
6
CONTINUOUS
10
0.836564
20
1.06448
11
0.83726
21
1.06477
0
LINE
8
BLACK
6
CONTINUOUS
10
0.83726
20
1.06477
11
0.89474
21
1.06477
0
LINE
8
BLACK
6
CONTINUOUS
10
0.89474
20
1.06477
11
0.895436
21
1.06448
0
LINE
8
BLACK
6
CONTINUOUS
10
0.895436
20
1.06448
11
0.895724
21
1.06379
0
LINE
8
BLACK
6
CONTINUOUS
10
0.895724
20
1.06379
11
0.895724
21
0.947252
0
LINE
8
BLACK
6
CONTINUOUS
10
0.895724
20
0.947252
11
0.895436
21
0.946556
0
LINE
8
BLACK
6
CONTINUOUS
10
0.895436
20
0.946556
11
0.89474
21
0.946268
0
LINE
8
BLACK
6
CONTINUOUS
10
0.89474
20
0.946268
11
0.83726
21
0.946268
0
LINE
8
BLACK
6
CONTINUOUS
10
0.83726
20
0.946268
11
0.836564
21
0.946556
0
LINE
8
BLACK
6
CONTINUOUS
10
0.838244
20
1.0628
11
0.838244
21
0.948236
0
LINE
8
BLACK
6
CONTINUOUS
10
0.838244
20
0.948236
11
0.893756
21
0.948236
0
LINE
8
BLACK
6
CONTINUOUS
10
0.893756
20
0.948236
11
0.893756
21
1.0628
0
LINE
8
BLACK
6
CONTINUOUS
10
0.893756
20
1.0628
11
0.838244
21
1.0628
0
LINE
8
BLACK
6
CONTINUOUS
10
0.259934
20
0.982769
11
0.259646
21
0.983465
0
LINE
8
BLACK
6
CONTINUOUS
10
0.259646
20
0.983465
11
0.259646
21
1.19606
0
LINE
8
BLACK
6
CONTINUOUS
10
0.259646
20
1.19606
11
0.259934
21
1.19676
0
LINE
8
BLACK
6
CONTINUOUS
10
0.259934
20
1.19676
11
0.26063
21
1.19705
0
LINE
8
BLACK
6
CONTINUOUS
10
0.26063
20
1.19705
11
0.551969
21
1.19705
0
LINE
8
BLACK
6
CONTINUOUS
10
0.551969
20
1.19705
11
0.552664
21
1.19676
0
LINE
8
BLACK
6
CONTINUOUS
10
0.552664
20
1.19676
11
0.552953
21
1.19606
0
LINE
8
BLACK
6
CONTINUOUS
10
0.552953
20
1.19606
11
0.552953
21
0.983465
0
LINE
8
BLACK
6
CONTINUOUS
10
0.552953
20
0.983465
11
0.552664
21
0.982769
0
LINE
8
BLACK
6
CONTINUOUS
10
0.552664
20
0.982769
11
0.551969
21
0.98248
0
LINE
8
BLACK
6
CONTINUOUS
10
0.551969
20
0.98248
11
0.26063
21
0.98248
0
LINE
8
BLACK
6
CONTINUOUS
10
0.26063
20
0.98248
11
0.259934
21
0.982769
0
LINE
8
BLACK
6
CONTINUOUS
10
0.261614
20
1.19508
11
0.261614
21
0.984449
0
LINE
8
BLACK
6
CONTINUOUS
10
0.261614
20
0.984449
11
0.550984
21
0.984449
0
LINE
8
BLACK
6
CONTINUOUS
10
0.550984
20
0.984449
11
0.550984
21
1.19508
0
LINE
8
BLACK
6
CONTINUOUS
10
0.550984
20
1.19508
11
0.261614
21
1.19508
0
LINE
8
BLACK
6
CONTINUOUS
10
0.700564
20
1.03104
11
0.700276
21
1.03173
0
LINE
8
BLACK
6
CONTINUOUS
10
0.700276
20
1.03173
11
0.700276
21
1.14827
0
LINE
8
BLACK
6
CONTINUOUS
10
0.700276
20
1.14827
11
0.700564
21
1.14896
0
LINE
8
BLACK
6
CONTINUOUS
10
0.700564
20
1.14896
11
0.70126
21
1.14925
0
LINE
8
BLACK
6
CONTINUOUS
10
0.70126
20
1.14925
11
0.75874
21
1.14925
0
LINE
8
BLACK
6
CONTINUOUS
10
0.75874
20
1.14925
11
0.759436
21
1.14896
0
LINE
8
BLACK
6
CONTINUOUS
10
0.759436
20
1.14896
11
0.759724
21
1.14827
0
LINE
8
BLACK
6
CONTINUOUS
10
0.759724
20
1.14827
11
0.759724
21
1.03173
0
LINE
8
BLACK
6
CONTINUOUS
10
0.759724
20
1.03173
11
0.759436
21
1.03104
0
LINE
8
BLACK
6
CONTINUOUS
10
0.759436
20
1.03104
11
0.75874
21
1.03075
0
LINE
8
BLACK
6
CONTINUOUS
10
0.75874
20
1.03075
11
0.70126
21
1.03075
0
LINE
8
BLACK
6
CONTINUOUS
10
0.70126
20
1.03075
11
0.700564
21
1.03104
0
LINE
8
BLACK
6
CONTINUOUS
10
0.702244
20
1.14728
11
0.702244
21
1.03272
0
LINE
8
BLACK
6
CONTINUOUS
10
0.702244
20
1.03272
11
0.757756
21
1.03272
0
LINE
8
BLACK
6
CONTINUOUS
10
0.757756
20
1.03272
11
0.757756
21
1.14728
0
LINE
8
BLACK
6
CONTINUOUS
10
0.757756
20
1.14728
11
0.702244
21
1.14728
0
LINE
8
BLACK
6
CONTINUOUS
10
0.770564
20
1.03104
11
0.770276
21
1.03173
0
LINE
8
BLACK
6
CONTINUOUS
10
0.770276
20
1.03173
11
0.770276
21
1.14827
0
LINE
8
BLACK
6
CONTINUOUS
10
0.770276
20
1.14827
11
0.770564
21
1.14896
0
LINE
8
BLACK
6
CONTINUOUS
10
0.770564
20
1.14896
11
0.77126
21
1.14925
0
LINE
8
BLACK
6
CONTINUOUS
10
0.77126
20
1.14925
11
0.82874
21
1.14925
0
LINE
8
BLACK
6
CONTINUOUS
10
0.82874
20
1.14925
11
0.829436
21
1.14896
0
LINE
8
BLACK
6
CONTINUOUS
10
0.829436
20
1.14896
11
0.829724
21
1.14827
0
LINE
8
BLACK
6
CONTINUOUS
10
0.829724
20
1.14827
11
0.829724
21
1.03173
0
LINE
8
BLACK
6
CONTINUOUS
10
0.829724
20
1.03173
11
0.829436
21
1.03104
0
LINE
8
BLACK
6
CONTINUOUS
10
0.829436
20
1.03104
11
0.82874
21
1.03075
0
LINE
8
BLACK
6
CONTINUOUS
10
0.82874
20
1.03075
11
0.77126
21
1.03075
0
LINE
8
BLACK
6
CONTINUOUS
10
0.77126
20
1.03075
11
0.770564
21
1.03104
0
LINE
8
BLACK
6
CONTINUOUS
10
0.772244
20
1.14728
11
0.772244
21
1.03272
0
LINE
8
BLACK
6
CONTINUOUS
10
0.772244
20
1.03272
11
0.827756
21
1.03272
0
LINE
8
BLACK
6
CONTINUOUS
10
0.827756
20
1.03272
11
0.827756
21
1.14728
0
LINE
8
BLACK
6
CONTINUOUS
10
0.827756
20
1.14728
11
0.772244
21
1.14728
0
LINE
8
BLACK
6
CONTINUOUS
10
0.560564
20
1.03104
11
0.560276
21
1.03173
0
LINE
8
BLACK
6
CONTINUOUS
10
0.560276
20
1.03173
11
0.560276
21
1.14827
0
LINE
8
BLACK
6
CONTINUOUS
10
0.560276
20
1.14827
11
0.560564
21
1.14896
0
LINE
8
BLACK
6
CONTINUOUS
10
0.560564
20
1.14896
11
0.56126
21
1.14925
0
LINE
8
BLACK
6
CONTINUOUS
10
0.56126
20
1.14925
11
0.61874
21
1.14925
0
LINE
8
BLACK
6
CONTINUOUS
10
0.61874
20
1.14925
11
0.619436
21
1.14896
0
LINE
8
BLACK
6
CONTINUOUS
10
0.619436
20
1.14896
11
0.619724
21
1.14827
0
LINE
8
BLACK
6
CONTINUOUS
10
0.619724
20
1.14827
11
0.619724
21
1.03173
0
LINE
8
BLACK
6
CONTINUOUS
10
0.619724
20
1.03173
11
0.619436
21
1.03104
0
LINE
8
BLACK
6
CONTINUOUS
10
0.619436
20
1.03104
11
0.61874
21
1.03075
0
LINE
8
BLACK
6
CONTINUOUS
10
0.61874
20
1.03075
11
0.56126
21
1.03075
0
LINE
8
BLACK
6
CONTINUOUS
10
0.56126
20
1.03075
11
0.560564
21
1.03104
0
LINE
8
BLACK
6
CONTINUOUS
10
0.562244
20
1.14728
11
0.562244
21
1.03272
0
LINE
8
BLACK
6
CONTINUOUS
10
0.562244
20
1.03272
11
0.617756
21
1.03272
0
LINE
8
BLACK
6
CONTINUOUS
10
0.617756
20
1.03272
11
0.617756
21
1.14728
0
LINE
8
BLACK
6
CONTINUOUS
10
0.617756
20
1.14728
11
0.562244
21
1.14728
0
LINE
8
BLACK
6
CONTINUOUS
10
0.630564
20
1.03104
11
0.630276
21
1.03173
0
LINE
8
BLACK
6
CONTINUOUS
10
0.630276
20
1.03173
11
0.630276
21
1.14827
0
LINE
8
BLACK
6
CONTINUOUS
10
0.630276
20
1.14827
11
0.630564
21
1.14896
0
LINE
8
BLACK
6
CONTINUOUS
10
0.630564
20
1.14896
11
0.63126
21
1.14925
0
LINE
8
BLACK
6
CONTINUOUS
10
0.63126
20
1.14925
11
0.68874
21
1.14925
0
LINE
8
BLACK
6
CONTINUOUS
10
0.68874
20
1.14925
11
0.689436
21
1.14896
0
LINE
8
BLACK
6
CONTINUOUS
10
0.689436
20
1.14896
11
0.689724
21
1.14827
0
LINE
8
BLACK
6
CONTINUOUS
10
0.689724
20
1.14827
11
0.689724
21
1.03173
0
LINE
8
BLACK
6
CONTINUOUS
10
0.689724
20
1.03173
11
0.689436
21
1.03104
0
LINE
8
BLACK
6
CONTINUOUS
10
0.689436
20
1.03104
11
0.68874
21
1.03075
0
LINE
8
BLACK
6
CONTINUOUS
10
0.68874
20
1.03075
11
0.63126
21
1.03075
0
LINE
8
BLACK
6
CONTINUOUS
10
0.63126
20
1.03075
11
0.630564
21
1.03104
0
LINE
8
BLACK
6
CONTINUOUS
10
0.632244
20
1.14728
11
0.632244
21
1.03272
0
LINE
8
BLACK
6
CONTINUOUS
10
0.632244
20
1.03272
11
0.687756
21
1.03272
0
LINE
8
BLACK
6
CONTINUOUS
10
0.687756
20
1.03272
11
0.687756
21
1.14728
0
LINE
8
BLACK
6
CONTINUOUS
10
0.687756
20
1.14728
11
0.632244
21
1.14728
0
LINE
8
BLACK
6
CONTINUOUS
10
0.845036
20
1.08456
11
0.844748
21
1.08526
0
LINE
8
BLACK
6
CONTINUOUS
10
0.844748
20
1.08526
11
0.844748
21
1.14274
0
LINE
8
BLACK
6
CONTINUOUS
10
0.844748
20
1.14274
11
0.845036
21
1.14344
0
LINE
8
BLACK
6
CONTINUOUS
10
0.845036
20
1.14344
11
0.845732
21
1.14372
0
LINE
8
BLACK
6
CONTINUOUS
10
0.845732
20
1.14372
11
0.962268
21
1.14372
0
LINE
8
BLACK
6
CONTINUOUS
10
0.962268
20
1.14372
11
0.962964
21
1.14344
0
LINE
8
BLACK
6
CONTINUOUS
10
0.962964
20
1.14344
11
0.963252
21
1.14274
0
LINE
8
BLACK
6
CONTINUOUS
10
0.963252
20
1.14274
11
0.963252
21
1.08526
0
LINE
8
BLACK
6
CONTINUOUS
10
0.963252
20
1.08526
11
0.962964
21
1.08456
0
LINE
8
BLACK
6
CONTINUOUS
10
0.962964
20
1.08456
11
0.962268
21
1.08428
0
LINE
8
BLACK
6
CONTINUOUS
10
0.962268
20
1.08428
11
0.845732
21
1.08428
0
LINE
8
BLACK
6
CONTINUOUS
10
0.845732
20
1.08428
11
0.845036
21
1.08456
0
LINE
8
BLACK
6
CONTINUOUS
10
0.846717
20
1.14176
11
0.846717
21
1.08624
0
LINE
8
BLACK
6
CONTINUOUS
10
0.846717
20
1.08624
11
0.961283
21
1.08624
0
LINE
8
BLACK
6
CONTINUOUS
10
0.961283
20
1.08624
11
0.961283
21
1.14176
0
LINE
8
BLACK
6
CONTINUOUS
10
0.961283
20
1.14176
11
0.846717
21
1.14176
0
LINE
8
BLACK
6
CONTINUOUS
10
0.176863
20
1.1183
11
0.176575
21
1.119
0
LINE
8
BLACK
6
CONTINUOUS
10
0.176575
20
1.119
11
0.176575
21
1.23553
0
LINE
8
BLACK
6
CONTINUOUS
10
0.176575
20
1.23553
11
0.176863
21
1.23623
0
LINE
8
BLACK
6
CONTINUOUS
10
0.176863
20
1.23623
11
0.177559
21
1.23652
0
LINE
8
BLACK
6
CONTINUOUS
10
0.177559
20
1.23652
11
0.235039
21
1.23652
0
LINE
8
BLACK
6
CONTINUOUS
10
0.235039
20
1.23652
11
0.235735
21
1.23623
0
LINE
8
BLACK
6
CONTINUOUS
10
0.235735
20
1.23623
11
0.236024
21
1.23553
0
LINE
8
BLACK
6
CONTINUOUS
10
0.236024
20
1.23553
11
0.236024
21
1.119
0
LINE
8
BLACK
6
CONTINUOUS
10
0.236024
20
1.119
11
0.235735
21
1.1183
0
LINE
8
BLACK
6
CONTINUOUS
10
0.235735
20
1.1183
11
0.235039
21
1.11801
0
LINE
8
BLACK
6
CONTINUOUS
10
0.235039
20
1.11801
11
0.177559
21
1.11801
0
LINE
8
BLACK
6
CONTINUOUS
10
0.177559
20
1.11801
11
0.176863
21
1.1183
0
LINE
8
BLACK
6
CONTINUOUS
10
0.178543
20
1.23455
11
0.178543
21
1.11998
0
LINE
8
BLACK
6
CONTINUOUS
10
0.178543
20
1.11998
11
0.234055
21
1.11998
0
LINE
8
BLACK
6
CONTINUOUS
10
0.234055
20
1.11998
11
0.234055
21
1.23455
0
LINE
8
BLACK
6
CONTINUOUS
10
0.234055
20
1.23455
11
0.178543
21
1.23455
0
LINE
8
BLACK
6
CONTINUOUS
10
0.576863
20
1.1558
11
0.576575
21
1.1565
0
LINE
8
BLACK
6
CONTINUOUS
10
0.576575
20
1.1565
11
0.576575
21
1.27303
0
LINE
8
BLACK
6
CONTINUOUS
10
0.576575
20
1.27303
11
0.576863
21
1.27373
0
LINE
8
BLACK
6
CONTINUOUS
10
0.576863
20
1.27373
11
0.577559
21
1.27402
0
LINE
8
BLACK
6
CONTINUOUS
10
0.577559
20
1.27402
11
0.635039
21
1.27402
0
LINE
8
BLACK
6
CONTINUOUS
10
0.635039
20
1.27402
11
0.635735
21
1.27373
0
LINE
8
BLACK
6
CONTINUOUS
10
0.635735
20
1.27373
11
0.636024
21
1.27303
0
LINE
8
BLACK
6
CONTINUOUS
10
0.636024
20
1.27303
11
0.636024
21
1.1565
0
LINE
8
BLACK
6
CONTINUOUS
10
0.636024
20
1.1565
11
0.635735
21
1.1558
0
LINE
8
BLACK
6
CONTINUOUS
10
0.635735
20
1.1558
11
0.635039
21
1.15551
0
LINE
8
BLACK
6
CONTINUOUS
10
0.635039
20
1.15551
11
0.577559
21
1.15551
0
LINE
8
BLACK
6
CONTINUOUS
10
0.577559
20
1.15551
11
0.576863
21
1.1558
0
LINE
8
BLACK
6
CONTINUOUS
10
0.578543
20
1.27205
11
0.578543
21
1.15748
0
LINE
8
BLACK
6
CONTINUOUS
10
0.578543
20
1.15748
11
0.634055
21
1.15748
0
LINE
8
BLACK
6
CONTINUOUS
10
0.634055
20
1.15748
11
0.634055
21
1.27205
0
LINE
8
BLACK
6
CONTINUOUS
10
0.634055
20
1.27205
11
0.578543
21
1.27205
0
LINE
8
BLACK
6
CONTINUOUS
10
0.640564
20
1.1583
11
0.640276
21
1.159
0
LINE
8
BLACK
6
CONTINUOUS
10
0.640276
20
1.159
11
0.640276
21
1.27553
0
LINE
8
BLACK
6
CONTINUOUS
10
0.640276
20
1.27553
11
0.640564
21
1.27623
0
LINE
8
BLACK
6
CONTINUOUS
10
0.640564
20
1.27623
11
0.64126
21
1.27652
0
LINE
8
BLACK
6
CONTINUOUS
10
0.64126
20
1.27652
11
0.69874
21
1.27652
0
LINE
8
BLACK
6
CONTINUOUS
10
0.69874
20
1.27652
11
0.699436
21
1.27623
0
LINE
8
BLACK
6
CONTINUOUS
10
0.699436
20
1.27623
11
0.699724
21
1.27553
0
LINE
8
BLACK
6
CONTINUOUS
10
0.699724
20
1.27553
11
0.699724
21
1.159
0
LINE
8
BLACK
6
CONTINUOUS
10
0.699724
20
1.159
11
0.699436
21
1.1583
0
LINE
8
BLACK
6
CONTINUOUS
10
0.699436
20
1.1583
11
0.69874
21
1.15801
0
LINE
8
BLACK
6
CONTINUOUS
10
0.69874
20
1.15801
11
0.64126
21
1.15801
0
LINE
8
BLACK
6
CONTINUOUS
10
0.64126
20
1.15801
11
0.640564
21
1.1583
0
LINE
8
BLACK
6
CONTINUOUS
10
0.642244
20
1.27455
11
0.642244
21
1.15998
0
LINE
8
BLACK
6
CONTINUOUS
10
0.642244
20
1.15998
11
0.697756
21
1.15998
0
LINE
8
BLACK
6
CONTINUOUS
10
0.697756
20
1.15998
11
0.697756
21
1.27455
0
LINE
8
BLACK
6
CONTINUOUS
10
0.697756
20
1.27455
11
0.642244
21
1.27455
0
LINE
8
BLACK
6
CONTINUOUS
10
1.18872
20
1.16837
11
1.18843
21
1.16907
0
LINE
8
BLACK
6
CONTINUOUS
10
1.18843
20
1.16907
11
1.18843
21
1.30293
0
LINE
8
BLACK
6
CONTINUOUS
10
1.18843
20
1.30293
11
1.18872
21
1.30363
0
LINE
8
BLACK
6
CONTINUOUS
10
1.18872
20
1.30363
11
1.18942
21
1.30391
0
LINE
8
BLACK
6
CONTINUOUS
10
1.18942
20
1.30391
11
1.26658
21
1.30391
0
LINE
8
BLACK
6
CONTINUOUS
10
1.26658
20
1.30391
11
1.26728
21
1.30363
0
LINE
8
BLACK
6
CONTINUOUS
10
1.26728
20
1.30363
11
1.26757
21
1.30293
0
LINE
8
BLACK
6
CONTINUOUS
10
1.26757
20
1.30293
11
1.26757
21
1.16907
0
LINE
8
BLACK
6
CONTINUOUS
10
1.26757
20
1.16907
11
1.26728
21
1.16837
0
LINE
8
BLACK
6
CONTINUOUS
10
1.26728
20
1.16837
11
1.26658
21
1.16809
0
LINE
8
BLACK
6
CONTINUOUS
10
1.26658
20
1.16809
11
1.18942
21
1.16809
0
LINE
8
BLACK
6
CONTINUOUS
10
1.18942
20
1.16809
11
1.18872
21
1.16837
0
LINE
8
BLACK
6
CONTINUOUS
10
1.1904
20
1.30194
11
1.1904
21
1.17006
0
LINE
8
BLACK
6
CONTINUOUS
10
1.1904
20
1.17006
11
1.2656
21
1.17006
0
LINE
8
BLACK
6
CONTINUOUS
10
1.2656
20
1.17006
11
1.2656
21
1.30194
0
LINE
8
BLACK
6
CONTINUOUS
10
1.2656
20
1.30194
11
1.1904
21
1.30194
0
LINE
8
BLACK
6
CONTINUOUS
10
1.06056
20
1.16856
11
1.06027
21
1.16926
0
LINE
8
BLACK
6
CONTINUOUS
10
1.06027
20
1.16926
11
1.06027
21
1.22674
0
LINE
8
BLACK
6
CONTINUOUS
10
1.06027
20
1.22674
11
1.06056
21
1.22744
0
LINE
8
BLACK
6
CONTINUOUS
10
1.06056
20
1.22744
11
1.06125
21
1.22772
0
LINE
8
BLACK
6
CONTINUOUS
10
1.06125
20
1.22772
11
1.17779
21
1.22772
0
LINE
8
BLACK
6
CONTINUOUS
10
1.17779
20
1.22772
11
1.17848
21
1.22744
0
LINE
8
BLACK
6
CONTINUOUS
10
1.17848
20
1.22744
11
1.17877
21
1.22674
0
LINE
8
BLACK
6
CONTINUOUS
10
1.17877
20
1.22674
11
1.17877
21
1.16926
0
LINE
8
BLACK
6
CONTINUOUS
10
1.17877
20
1.16926
11
1.17848
21
1.16856
0
LINE
8
BLACK
6
CONTINUOUS
10
1.17848
20
1.16856
11
1.17779
21
1.16828
0
LINE
8
BLACK
6
CONTINUOUS
10
1.17779
20
1.16828
11
1.06125
21
1.16828
0
LINE
8
BLACK
6
CONTINUOUS
10
1.06125
20
1.16828
11
1.06056
21
1.16856
0
LINE
8
BLACK
6
CONTINUOUS
10
1.06224
20
1.22576
11
1.06224
21
1.17024
0
LINE
8
BLACK
6
CONTINUOUS
10
1.06224
20
1.17024
11
1.1768
21
1.17024
0
LINE
8
BLACK
6
CONTINUOUS
10
1.1768
20
1.17024
11
1.1768
21
1.22576
0
LINE
8
BLACK
6
CONTINUOUS
10
1.1768
20
1.22576
11
1.06224
21
1.22576
0
LINE
8
BLACK
6
CONTINUOUS
10
0.876564
20
1.29904
11
0.876276
21
1.29973
0
LINE
8
BLACK
6
CONTINUOUS
10
0.876276
20
1.29973
11
0.876276
21
1.41627
0
LINE
8
BLACK
6
CONTINUOUS
10
0.876276
20
1.41627
11
0.876564
21
1.41696
0
LINE
8
BLACK
6
CONTINUOUS
10
0.876564
20
1.41696
11
0.87726
21
1.41725
0
LINE
8
BLACK
6
CONTINUOUS
10
0.87726
20
1.41725
11
0.93474
21
1.41725
0
LINE
8
BLACK
6
CONTINUOUS
10
0.93474
20
1.41725
11
0.935436
21
1.41696
0
LINE
8
BLACK
6
CONTINUOUS
10
0.935436
20
1.41696
11
0.935724
21
1.41627
0
LINE
8
BLACK
6
CONTINUOUS
10
0.935724
20
1.41627
11
0.935724
21
1.29973
0
LINE
8
BLACK
6
CONTINUOUS
10
0.935724
20
1.29973
11
0.935436
21
1.29904
0
LINE
8
BLACK
6
CONTINUOUS
10
0.935436
20
1.29904
11
0.93474
21
1.29875
0
LINE
8
BLACK
6
CONTINUOUS
10
0.93474
20
1.29875
11
0.87726
21
1.29875
0
LINE
8
BLACK
6
CONTINUOUS
10
0.87726
20
1.29875
11
0.876564
21
1.29904
0
LINE
8
BLACK
6
CONTINUOUS
10
0.878244
20
1.41528
11
0.878244
21
1.30072
0
LINE
8
BLACK
6
CONTINUOUS
10
0.878244
20
1.30072
11
0.933756
21
1.30072
0
LINE
8
BLACK
6
CONTINUOUS
10
0.933756
20
1.30072
11
0.933756
21
1.41528
0
LINE
8
BLACK
6
CONTINUOUS
10
0.933756
20
1.41528
11
0.878244
21
1.41528
0
LINE
8
BLACK
6
CONTINUOUS
10
1.04056
20
1.29904
11
1.04028
21
1.29973
0
LINE
8
BLACK
6
CONTINUOUS
10
1.04028
20
1.29973
11
1.04028
21
1.41627
0
LINE
8
BLACK
6
CONTINUOUS
10
1.04028
20
1.41627
11
1.04056
21
1.41696
0
LINE
8
BLACK
6
CONTINUOUS
10
1.04056
20
1.41696
11
1.04126
21
1.41725
0
LINE
8
BLACK
6
CONTINUOUS
10
1.04126
20
1.41725
11
1.09874
21
1.41725
0
LINE
8
BLACK
6
CONTINUOUS
10
1.09874
20
1.41725
11
1.09944
21
1.41696
0
LINE
8
BLACK
6
CONTINUOUS
10
1.09944
20
1.41696
11
1.09972
21
1.41627
0
LINE
8
BLACK
6
CONTINUOUS
10
1.09972
20
1.41627
11
1.09972
21
1.29973
0
LINE
8
BLACK
6
CONTINUOUS
10
1.09972
20
1.29973
11
1.09944
21
1.29904
0
LINE
8
BLACK
6
CONTINUOUS
10
1.09944
20
1.29904
11
1.09874
21
1.29875
0
LINE
8
BLACK
6
CONTINUOUS
10
1.09874
20
1.29875
11
1.04126
21
1.29875
0
LINE
8
BLACK
6
CONTINUOUS
10
1.04126
20
1.29875
11
1.04056
21
1.29904
0
LINE
8
BLACK
6
CONTINUOUS
10
1.04224
20
1.41528
11
1.04224
21
1.30072
0
LINE
8
BLACK
6
CONTINUOUS
10
1.04224
20
1.30072
11
1.09776
21
1.30072
0
LINE
8
BLACK
6
CONTINUOUS
10
1.09776
20
1.30072
11
1.09776
21
1.41528
0
LINE
8
BLACK
6
CONTINUOUS
10
1.09776
20
1.41528
11
1.04224
21
1.41528
0
LINE
8
BLACK
6
CONTINUOUS
10
0.790564
20
1.29904
11
0.790276
21
1.29973
0
LINE
8
BLACK
6
CONTINUOUS
10
0.790276
20
1.29973
11
0.790276
21
1.41627
0
LINE
8
BLACK
6
CONTINUOUS
10
0.790276
20
1.41627
11
0.790564
21
1.41696
0
LINE
8
BLACK
6
CONTINUOUS
10
0.790564
20
1.41696
11
0.79126
21
1.41725
0
LINE
8
BLACK
6
CONTINUOUS
10
0.79126
20
1.41725
11
0.84874
21
1.41725
0
LINE
8
BLACK
6
CONTINUOUS
10
0.84874
20
1.41725
11
0.849436
21
1.41696
0
LINE
8
BLACK
6
CONTINUOUS
10
0.849436
20
1.41696
11
0.849724
21
1.41627
0
LINE
8
BLACK
6
CONTINUOUS
10
0.849724
20
1.41627
11
0.849724
21
1.29973
0
LINE
8
BLACK
6
CONTINUOUS
10
0.849724
20
1.29973
11
0.849436
21
1.29904
0
LINE
8
BLACK
6
CONTINUOUS
10
0.849436
20
1.29904
11
0.84874
21
1.29875
0
LINE
8
BLACK
6
CONTINUOUS
10
0.84874
20
1.29875
11
0.79126
21
1.29875
0
LINE
8
BLACK
6
CONTINUOUS
10
0.79126
20
1.29875
11
0.790564
21
1.29904
0
LINE
8
BLACK
6
CONTINUOUS
10
0.792244
20
1.41528
11
0.792244
21
1.30072
0
LINE
8
BLACK
6
CONTINUOUS
10
0.792244
20
1.30072
11
0.847756
21
1.30072
0
LINE
8
BLACK
6
CONTINUOUS
10
0.847756
20
1.30072
11
0.847756
21
1.41528
0
LINE
8
BLACK
6
CONTINUOUS
10
0.847756
20
1.41528
11
0.792244
21
1.41528
0
LINE
8
BLACK
6
CONTINUOUS
10
0.956564
20
1.29904
11
0.956276
21
1.29973
0
LINE
8
BLACK
6
CONTINUOUS
10
0.956276
20
1.29973
11
0.956276
21
1.41627
0
LINE
8
BLACK
6
CONTINUOUS
10
0.956276
20
1.41627
11
0.956564
21
1.41696
0
LINE
8
BLACK
6
CONTINUOUS
10
0.956564
20
1.41696
11
0.95726
21
1.41725
0
LINE
8
BLACK
6
CONTINUOUS
10
0.95726
20
1.41725
11
1.01474
21
1.41725
0
LINE
8
BLACK
6
CONTINUOUS
10
1.01474
20
1.41725
11
1.01544
21
1.41696
0
LINE
8
BLACK
6
CONTINUOUS
10
1.01544
20
1.41696
11
1.01572
21
1.41627
0
LINE
8
BLACK
6
CONTINUOUS
10
1.01572
20
1.41627
11
1.01572
21
1.29973
0
LINE
8
BLACK
6
CONTINUOUS
10
1.01572
20
1.29973
11
1.01544
21
1.29904
0
LINE
8
BLACK
6
CONTINUOUS
10
1.01544
20
1.29904
11
1.01474
21
1.29875
0
LINE
8
BLACK
6
CONTINUOUS
10
1.01474
20
1.29875
11
0.95726
21
1.29875
0
LINE
8
BLACK
6
CONTINUOUS
10
0.95726
20
1.29875
11
0.956564
21
1.29904
0
LINE
8
BLACK
6
CONTINUOUS
10
0.958244
20
1.41528
11
0.958244
21
1.30072
0
LINE
8
BLACK
6
CONTINUOUS
10
0.958244
20
1.30072
11
1.01376
21
1.30072
0
LINE
8
BLACK
6
CONTINUOUS
10
1.01376
20
1.30072
11
1.01376
21
1.41528
0
LINE
8
BLACK
6
CONTINUOUS
10
1.01376
20
1.41528
11
0.958244
21
1.41528
0
LINE
8
BLACK
6
CONTINUOUS
10
0.708564
20
1.34304
11
0.708276
21
1.34373
0
LINE
8
BLACK
6
CONTINUOUS
10
0.708276
20
1.34373
11
0.708276
21
1.46027
0
LINE
8
BLACK
6
CONTINUOUS
10
0.708276
20
1.46027
11
0.708564
21
1.46096
0
LINE
8
BLACK
6
CONTINUOUS
10
0.708564
20
1.46096
11
0.70926
21
1.46125
0
LINE
8
BLACK
6
CONTINUOUS
10
0.70926
20
1.46125
11
0.76674
21
1.46125
0
LINE
8
BLACK
6
CONTINUOUS
10
0.76674
20
1.46125
11
0.767436
21
1.46096
0
LINE
8
BLACK
6
CONTINUOUS
10
0.767436
20
1.46096
11
0.767724
21
1.46027
0
LINE
8
BLACK
6
CONTINUOUS
10
0.767724
20
1.46027
11
0.767724
21
1.34373
0
LINE
8
BLACK
6
CONTINUOUS
10
0.767724
20
1.34373
11
0.767436
21
1.34304
0
LINE
8
BLACK
6
CONTINUOUS
10
0.767436
20
1.34304
11
0.76674
21
1.34275
0
LINE
8
BLACK
6
CONTINUOUS
10
0.76674
20
1.34275
11
0.70926
21
1.34275
0
LINE
8
BLACK
6
CONTINUOUS
10
0.70926
20
1.34275
11
0.708564
21
1.34304
0
LINE
8
BLACK
6
CONTINUOUS
10
0.710244
20
1.45928
11
0.710244
21
1.34472
0
LINE
8
BLACK
6
CONTINUOUS
10
0.710244
20
1.34472
11
0.765756
21
1.34472
0
LINE
8
BLACK
6
CONTINUOUS
10
0.765756
20
1.34472
11
0.765756
21
1.45928
0
LINE
8
BLACK
6
CONTINUOUS
10
0.765756
20
1.45928
11
0.710244
21
1.45928
0
LINE
8
BLACK
6
CONTINUOUS
10
0.494564
20
1.36104
11
0.494276
21
1.36173
0
LINE
8
BLACK
6
CONTINUOUS
10
0.494276
20
1.36173
11
0.494276
21
1.47827
0
LINE
8
BLACK
6
CONTINUOUS
10
0.494276
20
1.47827
11
0.494564
21
1.47896
0
LINE
8
BLACK
6
CONTINUOUS
10
0.494564
20
1.47896
11
0.49526
21
1.47925
0
LINE
8
BLACK
6
CONTINUOUS
10
0.49526
20
1.47925
11
0.55274
21
1.47925
0
LINE
8
BLACK
6
CONTINUOUS
10
0.55274
20
1.47925
11
0.553436
21
1.47896
0
LINE
8
BLACK
6
CONTINUOUS
10
0.553436
20
1.47896
11
0.553724
21
1.47827
0
LINE
8
BLACK
6
CONTINUOUS
10
0.553724
20
1.47827
11
0.553724
21
1.36173
0
LINE
8
BLACK
6
CONTINUOUS
10
0.553724
20
1.36173
11
0.553436
21
1.36104
0
LINE
8
BLACK
6
CONTINUOUS
10
0.553436
20
1.36104
11
0.55274
21
1.36075
0
LINE
8
BLACK
6
CONTINUOUS
10
0.55274
20
1.36075
11
0.49526
21
1.36075
0
LINE
8
BLACK
6
CONTINUOUS
10
0.49526
20
1.36075
11
0.494564
21
1.36104
0
LINE
8
BLACK
6
CONTINUOUS
10
0.496244
20
1.47728
11
0.496244
21
1.36272
0
LINE
8
BLACK
6
CONTINUOUS
10
0.496244
20
1.36272
11
0.551756
21
1.36272
0
LINE
8
BLACK
6
CONTINUOUS
10
0.551756
20
1.36272
11
0.551756
21
1.47728
0
LINE
8
BLACK
6
CONTINUOUS
10
0.551756
20
1.47728
11
0.496244
21
1.47728
0
LINE
8
BLACK
6
CONTINUOUS
10
0.638564
20
1.39504
11
0.638276
21
1.39573
0
LINE
8
BLACK
6
CONTINUOUS
10
0.638276
20
1.39573
11
0.638276
21
1.51227
0
LINE
8
BLACK
6
CONTINUOUS
10
0.638276
20
1.51227
11
0.638564
21
1.51296
0
LINE
8
BLACK
6
CONTINUOUS
10
0.638564
20
1.51296
11
0.63926
21
1.51325
0
LINE
8
BLACK
6
CONTINUOUS
10
0.63926
20
1.51325
11
0.69674
21
1.51325
0
LINE
8
BLACK
6
CONTINUOUS
10
0.69674
20
1.51325
11
0.697436
21
1.51296
0
LINE
8
BLACK
6
CONTINUOUS
10
0.697436
20
1.51296
11
0.697724
21
1.51227
0
LINE
8
BLACK
6
CONTINUOUS
10
0.697724
20
1.51227
11
0.697724
21
1.39573
0
LINE
8
BLACK
6
CONTINUOUS
10
0.697724
20
1.39573
11
0.697436
21
1.39504
0
LINE
8
BLACK
6
CONTINUOUS
10
0.697436
20
1.39504
11
0.69674
21
1.39475
0
LINE
8
BLACK
6
CONTINUOUS
10
0.69674
20
1.39475
11
0.63926
21
1.39475
0
LINE
8
BLACK
6
CONTINUOUS
10
0.63926
20
1.39475
11
0.638564
21
1.39504
0
LINE
8
BLACK
6
CONTINUOUS
10
0.640244
20
1.51128
11
0.640244
21
1.39672
0
LINE
8
BLACK
6
CONTINUOUS
10
0.640244
20
1.39672
11
0.695756
21
1.39672
0
LINE
8
BLACK
6
CONTINUOUS
10
0.695756
20
1.39672
11
0.695756
21
1.51128
0
LINE
8
BLACK
6
CONTINUOUS
10
0.695756
20
1.51128
11
0.640244
21
1.51128
0
LINE
8
BLACK
6
CONTINUOUS
10
0.274375
20
1.40571
11
0.274087
21
1.40641
0
LINE
8
BLACK
6
CONTINUOUS
10
0.274087
20
1.40641
11
0.274087
21
1.55759
0
LINE
8
BLACK
6
CONTINUOUS
10
0.274087
20
1.55759
11
0.274375
21
1.55829
0
LINE
8
BLACK
6
CONTINUOUS
10
0.274375
20
1.55829
11
0.275071
21
1.55857
0
LINE
8
BLACK
6
CONTINUOUS
10
0.275071
20
1.55857
11
0.408929
21
1.55857
0
LINE
8
BLACK
6
CONTINUOUS
10
0.408929
20
1.55857
11
0.409625
21
1.55829
0
LINE
8
BLACK
6
CONTINUOUS
10
0.409625
20
1.55829
11
0.409913
21
1.55759
0
LINE
8
BLACK
6
CONTINUOUS
10
0.409913
20
1.55759
11
0.409913
21
1.40641
0
LINE
8
BLACK
6
CONTINUOUS
10
0.409913
20
1.40641
11
0.409625
21
1.40571
0
LINE
8
BLACK
6
CONTINUOUS
10
0.409625
20
1.40571
11
0.408929
21
1.40543
0
LINE
8
BLACK
6
CONTINUOUS
10
0.408929
20
1.40543
11
0.275071
21
1.40543
0
LINE
8
BLACK
6
CONTINUOUS
10
0.275071
20
1.40543
11
0.274375
21
1.40571
0
LINE
8
BLACK
6
CONTINUOUS
10
0.276055
20
1.55661
11
0.276055
21
1.40739
0
LINE
8
BLACK
6
CONTINUOUS
10
0.276055
20
1.40739
11
0.407945
21
1.40739
0
LINE
8
BLACK
6
CONTINUOUS
10
0.407945
20
1.40739
11
0.407945
21
1.55661
0
LINE
8
BLACK
6
CONTINUOUS
10
0.407945
20
1.55661
11
0.276055
21
1.55661
0
LINE
8
BLACK
6
CONTINUOUS
10
1.19856
20
1.40704
11
1.19828
21
1.40773
0
LINE
8
BLACK
6
CONTINUOUS
10
1.19828
20
1.40773
11
1.19828
21
1.52427
0
LINE
8
BLACK
6
CONTINUOUS
10
1.19828
20
1.52427
11
1.19856
21
1.52496
0
LINE
8
BLACK
6
CONTINUOUS
10
1.19856
20
1.52496
11
1.19926
21
1.52525
0
LINE
8
BLACK
6
CONTINUOUS
10
1.19926
20
1.52525
11
1.25674
21
1.52525
0
LINE
8
BLACK
6
CONTINUOUS
10
1.25674
20
1.52525
11
1.25744
21
1.52496
0
LINE
8
BLACK
6
CONTINUOUS
10
1.25744
20
1.52496
11
1.25772
21
1.52427
0
LINE
8
BLACK
6
CONTINUOUS
10
1.25772
20
1.52427
11
1.25772
21
1.40773
0
LINE
8
BLACK
6
CONTINUOUS
10
1.25772
20
1.40773
11
1.25744
21
1.40704
0
LINE
8
BLACK
6
CONTINUOUS
10
1.25744
20
1.40704
11
1.25674
21
1.40675
0
LINE
8
BLACK
6
CONTINUOUS
10
1.25674
20
1.40675
11
1.19926
21
1.40675
0
LINE
8
BLACK
6
CONTINUOUS
10
1.19926
20
1.40675
11
1.19856
21
1.40704
0
LINE
8
BLACK
6
CONTINUOUS
10
1.20024
20
1.52328
11
1.20024
21
1.40872
0
LINE
8
BLACK
6
CONTINUOUS
10
1.20024
20
1.40872
11
1.25576
21
1.40872
0
LINE
8
BLACK
6
CONTINUOUS
10
1.25576
20
1.40872
11
1.25576
21
1.52328
0
LINE
8
BLACK
6
CONTINUOUS
10
1.25576
20
1.52328
11
1.20024
21
1.52328
0
LINE
8
BLACK
6
CONTINUOUS
10
0.422564
20
1.41304
11
0.422276
21
1.41373
0
LINE
8
BLACK
6
CONTINUOUS
10
0.422276
20
1.41373
11
0.422276
21
1.53027
0
LINE
8
BLACK
6
CONTINUOUS
10
0.422276
20
1.53027
11
0.422564
21
1.53096
0
LINE
8
BLACK
6
CONTINUOUS
10
0.422564
20
1.53096
11
0.42326
21
1.53125
0
LINE
8
BLACK
6
CONTINUOUS
10
0.42326
20
1.53125
11
0.48074
21
1.53125
0
LINE
8
BLACK
6
CONTINUOUS
10
0.48074
20
1.53125
11
0.481436
21
1.53096
0
LINE
8
BLACK
6
CONTINUOUS
10
0.481436
20
1.53096
11
0.481724
21
1.53027
0
LINE
8
BLACK
6
CONTINUOUS
10
0.481724
20
1.53027
11
0.481724
21
1.41373
0
LINE
8
BLACK
6
CONTINUOUS
10
0.481724
20
1.41373
11
0.481436
21
1.41304
0
LINE
8
BLACK
6
CONTINUOUS
10
0.481436
20
1.41304
11
0.48074
21
1.41275
0
LINE
8
BLACK
6
CONTINUOUS
10
0.48074
20
1.41275
11
0.42326
21
1.41275
0
LINE
8
BLACK
6
CONTINUOUS
10
0.42326
20
1.41275
11
0.422564
21
1.41304
0
LINE
8
BLACK
6
CONTINUOUS
10
0.424244
20
1.52928
11
0.424244
21
1.41472
0
LINE
8
BLACK
6
CONTINUOUS
10
0.424244
20
1.41472
11
0.479756
21
1.41472
0
LINE
8
BLACK
6
CONTINUOUS
10
0.479756
20
1.41472
11
0.479756
21
1.52928
0
LINE
8
BLACK
6
CONTINUOUS
10
0.479756
20
1.52928
11
0.424244
21
1.52928
0
LINE
8
BLACK
6
CONTINUOUS
10
0.921036
20
1.43856
11
0.920748
21
1.43926
0
LINE
8
BLACK
6
CONTINUOUS
10
0.920748
20
1.43926
11
0.920748
21
1.49674
0
LINE
8
BLACK
6
CONTINUOUS
10
0.920748
20
1.49674
11
0.921036
21
1.49744
0
LINE
8
BLACK
6
CONTINUOUS
10
0.921036
20
1.49744
11
0.921732
21
1.49772
0
LINE
8
BLACK
6
CONTINUOUS
10
0.921732
20
1.49772
11
1.03827
21
1.49772
0
LINE
8
BLACK
6
CONTINUOUS
10
1.03827
20
1.49772
11
1.03896
21
1.49744
0
LINE
8
BLACK
6
CONTINUOUS
10
1.03896
20
1.49744
11
1.03925
21
1.49674
0
LINE
8
BLACK
6
CONTINUOUS
10
1.03925
20
1.49674
11
1.03925
21
1.43926
0
LINE
8
BLACK
6
CONTINUOUS
10
1.03925
20
1.43926
11
1.03896
21
1.43856
0
LINE
8
BLACK
6
CONTINUOUS
10
1.03896
20
1.43856
11
1.03827
21
1.43828
0
LINE
8
BLACK
6
CONTINUOUS
10
1.03827
20
1.43828
11
0.921732
21
1.43828
0
LINE
8
BLACK
6
CONTINUOUS
10
0.921732
20
1.43828
11
0.921036
21
1.43856
0
LINE
8
BLACK
6
CONTINUOUS
10
0.922717
20
1.49576
11
0.922717
21
1.44024
0
LINE
8
BLACK
6
CONTINUOUS
10
0.922717
20
1.44024
11
1.03728
21
1.44024
0
LINE
8
BLACK
6
CONTINUOUS
10
1.03728
20
1.44024
11
1.03728
21
1.49576
0
LINE
8
BLACK
6
CONTINUOUS
10
1.03728
20
1.49576
11
0.922717
21
1.49576
0
LINE
8
BLACK
6
CONTINUOUS
10
1.06104
20
1.43856
11
1.06075
21
1.43926
0
LINE
8
BLACK
6
CONTINUOUS
10
1.06075
20
1.43926
11
1.06075
21
1.49674
0
LINE
8
BLACK
6
CONTINUOUS
10
1.06075
20
1.49674
11
1.06104
21
1.49744
0
LINE
8
BLACK
6
CONTINUOUS
10
1.06104
20
1.49744
11
1.06173
21
1.49772
0
LINE
8
BLACK
6
CONTINUOUS
10
1.06173
20
1.49772
11
1.17827
21
1.49772
0
LINE
8
BLACK
6
CONTINUOUS
10
1.17827
20
1.49772
11
1.17896
21
1.49744
0
LINE
8
BLACK
6
CONTINUOUS
10
1.17896
20
1.49744
11
1.17925
21
1.49674
0
LINE
8
BLACK
6
CONTINUOUS
10
1.17925
20
1.49674
11
1.17925
21
1.43926
0
LINE
8
BLACK
6
CONTINUOUS
10
1.17925
20
1.43926
11
1.17896
21
1.43856
0
LINE
8
BLACK
6
CONTINUOUS
10
1.17896
20
1.43856
11
1.17827
21
1.43828
0
LINE
8
BLACK
6
CONTINUOUS
10
1.17827
20
1.43828
11
1.06173
21
1.43828
0
LINE
8
BLACK
6
CONTINUOUS
10
1.06173
20
1.43828
11
1.06104
21
1.43856
0
LINE
8
BLACK
6
CONTINUOUS
10
1.06272
20
1.49576
11
1.06272
21
1.44024
0
LINE
8
BLACK
6
CONTINUOUS
10
1.06272
20
1.44024
11
1.17728
21
1.44024
0
LINE
8
BLACK
6
CONTINUOUS
10
1.17728
20
1.44024
11
1.17728
21
1.49576
0
LINE
8
BLACK
6
CONTINUOUS
10
1.17728
20
1.49576
11
1.06272
21
1.49576
0
LINE
8
BLACK
6
CONTINUOUS
10
0.777036
20
1.43856
11
0.776748
21
1.43926
0
LINE
8
BLACK
6
CONTINUOUS
10
0.776748
20
1.43926
11
0.776748
21
1.49674
0
LINE
8
BLACK
6
CONTINUOUS
10
0.776748
20
1.49674
11
0.777036
21
1.49744
0
LINE
8
BLACK
6
CONTINUOUS
10
0.777036
20
1.49744
11
0.777732
21
1.49772
0
LINE
8
BLACK
6
CONTINUOUS
10
0.777732
20
1.49772
11
0.894268
21
1.49772
0
LINE
8
BLACK
6
CONTINUOUS
10
0.894268
20
1.49772
11
0.894964
21
1.49744
0
LINE
8
BLACK
6
CONTINUOUS
10
0.894964
20
1.49744
11
0.895252
21
1.49674
0
LINE
8
BLACK
6
CONTINUOUS
10
0.895252
20
1.49674
11
0.895252
21
1.43926
0
LINE
8
BLACK
6
CONTINUOUS
10
0.895252
20
1.43926
11
0.894964
21
1.43856
0
LINE
8
BLACK
6
CONTINUOUS
10
0.894964
20
1.43856
11
0.894268
21
1.43828
0
LINE
8
BLACK
6
CONTINUOUS
10
0.894268
20
1.43828
11
0.777732
21
1.43828
0
LINE
8
BLACK
6
CONTINUOUS
10
0.777732
20
1.43828
11
0.777036
21
1.43856
0
LINE
8
BLACK
6
CONTINUOUS
10
0.778717
20
1.49576
11
0.778717
21
1.44024
0
LINE
8
BLACK
6
CONTINUOUS
10
0.778717
20
1.44024
11
0.893283
21
1.44024
0
LINE
8
BLACK
6
CONTINUOUS
10
0.893283
20
1.44024
11
0.893283
21
1.49576
0
LINE
8
BLACK
6
CONTINUOUS
10
0.893283
20
1.49576
11
0.778717
21
1.49576
0
LINE
8
BLACK
6
CONTINUOUS
10
0.566564
20
1.45052
11
0.566276
21
1.45122
0
LINE
8
BLACK
6
CONTINUOUS
10
0.566276
20
1.45122
11
0.566276
21
1.56776
0
LINE
8
BLACK
6
CONTINUOUS
10
0.566276
20
1.56776
11
0.566564
21
1.56845
0
LINE
8
BLACK
6
CONTINUOUS
10
0.566564
20
1.56845
11
0.56726
21
1.56874
0
LINE
8
BLACK
6
CONTINUOUS
10
0.56726
20
1.56874
11
0.62474
21
1.56874
0
LINE
8
BLACK
6
CONTINUOUS
10
0.62474
20
1.56874
11
0.625436
21
1.56845
0
LINE
8
BLACK
6
CONTINUOUS
10
0.625436
20
1.56845
11
0.625724
21
1.56776
0
LINE
8
BLACK
6
CONTINUOUS
10
0.625724
20
1.56776
11
0.625724
21
1.45122
0
LINE
8
BLACK
6
CONTINUOUS
10
0.625724
20
1.45122
11
0.625436
21
1.45052
0
LINE
8
BLACK
6
CONTINUOUS
10
0.625436
20
1.45052
11
0.62474
21
1.45024
0
LINE
8
BLACK
6
CONTINUOUS
10
0.62474
20
1.45024
11
0.56726
21
1.45024
0
LINE
8
BLACK
6
CONTINUOUS
10
0.56726
20
1.45024
11
0.566564
21
1.45052
0
LINE
8
BLACK
6
CONTINUOUS
10
0.568244
20
1.56677
11
0.568244
21
1.4522
0
LINE
8
BLACK
6
CONTINUOUS
10
0.568244
20
1.4522
11
0.623756
21
1.4522
0
LINE
8
BLACK
6
CONTINUOUS
10
0.623756
20
1.4522
11
0.623756
21
1.56677
0
LINE
8
BLACK
6
CONTINUOUS
10
0.623756
20
1.56677
11
0.568244
21
1.56677
0
LINE
8
BLACK
6
CONTINUOUS
10
2.70556
20
0.458536
11
2.70528
21
0.459232
0
LINE
8
BLACK
6
CONTINUOUS
10
2.70528
20
0.459232
11
2.70528
21
0.575768
0
LINE
8
BLACK
6
CONTINUOUS
10
2.70528
20
0.575768
11
2.70556
21
0.576464
0
LINE
8
BLACK
6
CONTINUOUS
10
2.70556
20
0.576464
11
2.70626
21
0.576752
0
LINE
8
BLACK
6
CONTINUOUS
10
2.70626
20
0.576752
11
2.76374
21
0.576752
0
LINE
8
BLACK
6
CONTINUOUS
10
2.76374
20
0.576752
11
2.76444
21
0.576464
0
LINE
8
BLACK
6
CONTINUOUS
10
2.76444
20
0.576464
11
2.76472
21
0.575768
0
LINE
8
BLACK
6
CONTINUOUS
10
2.76472
20
0.575768
11
2.76472
21
0.459232
0
LINE
8
BLACK
6
CONTINUOUS
10
2.76472
20
0.459232
11
2.76444
21
0.458536
0
LINE
8
BLACK
6
CONTINUOUS
10
2.76444
20
0.458536
11
2.76374
21
0.458248
0
LINE
8
BLACK
6
CONTINUOUS
10
2.76374
20
0.458248
11
2.70626
21
0.458248
0
LINE
8
BLACK
6
CONTINUOUS
10
2.70626
20
0.458248
11
2.70556
21
0.458536
0
LINE
8
BLACK
6
CONTINUOUS
10
2.70724
20
0.574783
11
2.70724
21
0.460217
0
LINE
8
BLACK
6
CONTINUOUS
10
2.70724
20
0.460217
11
2.76276
21
0.460217
0
LINE
8
BLACK
6
CONTINUOUS
10
2.76276
20
0.460217
11
2.76276
21
0.574783
0
LINE
8
BLACK
6
CONTINUOUS
10
2.76276
20
0.574783
11
2.70724
21
0.574783
0
LINE
8
BLACK
6
CONTINUOUS
10
2.3036
20
0.612375
11
2.30331
21
0.613071
0
LINE
8
BLACK
6
CONTINUOUS
10
2.30331
20
0.613071
11
2.30331
21
0.746929
0
LINE
8
BLACK
6
CONTINUOUS
10
2.30331
20
0.746929
11
2.3036
21
0.747625
0
LINE
8
BLACK
6
CONTINUOUS
10
2.3036
20
0.747625
11
2.30429
21
0.747913
0
LINE
8
BLACK
6
CONTINUOUS
10
2.30429
20
0.747913
11
2.46571
21
0.747913
0
LINE
8
BLACK
6
CONTINUOUS
10
2.46571
20
0.747913
11
2.4664
21
0.747625
0
LINE
8
BLACK
6
CONTINUOUS
10
2.4664
20
0.747625
11
2.46669
21
0.746929
0
LINE
8
BLACK
6
CONTINUOUS
10
2.46669
20
0.746929
11
2.46669
21
0.613071
0
LINE
8
BLACK
6
CONTINUOUS
10
2.46669
20
0.613071
11
2.4664
21
0.612375
0
LINE
8
BLACK
6
CONTINUOUS
10
2.4664
20
0.612375
11
2.46571
21
0.612087
0
LINE
8
BLACK
6
CONTINUOUS
10
2.46571
20
0.612087
11
2.30429
21
0.612087
0
LINE
8
BLACK
6
CONTINUOUS
10
2.30429
20
0.612087
11
2.3036
21
0.612375
0
LINE
8
BLACK
6
CONTINUOUS
10
2.30528
20
0.745945
11
2.30528
21
0.614055
0
LINE
8
BLACK
6
CONTINUOUS
10
2.30528
20
0.614055
11
2.46472
21
0.614055
0
LINE
8
BLACK
6
CONTINUOUS
10
2.46472
20
0.614055
11
2.46472
21
0.745945
0
LINE
8
BLACK
6
CONTINUOUS
10
2.46472
20
0.745945
11
2.30528
21
0.745945
0
LINE
8
BLACK
6
CONTINUOUS
10
1.89556
20
0.681036
11
1.89528
21
0.681732
0
LINE
8
BLACK
6
CONTINUOUS
10
1.89528
20
0.681732
11
1.89528
21
0.798268
0
LINE
8
BLACK
6
CONTINUOUS
10
1.89528
20
0.798268
11
1.89556
21
0.798964
0
LINE
8
BLACK
6
CONTINUOUS
10
1.89556
20
0.798964
11
1.89626
21
0.799252
0
LINE
8
BLACK
6
CONTINUOUS
10
1.89626
20
0.799252
11
1.95374
21
0.799252
0
LINE
8
BLACK
6
CONTINUOUS
10
1.95374
20
0.799252
11
1.95444
21
0.798964
0
LINE
8
BLACK
6
CONTINUOUS
10
1.95444
20
0.798964
11
1.95472
21
0.798268
0
LINE
8
BLACK
6
CONTINUOUS
10
1.95472
20
0.798268
11
1.95472
21
0.681732
0
LINE
8
BLACK
6
CONTINUOUS
10
1.95472
20
0.681732
11
1.95444
21
0.681036
0
LINE
8
BLACK
6
CONTINUOUS
10
1.95444
20
0.681036
11
1.95374
21
0.680748
0
LINE
8
BLACK
6
CONTINUOUS
10
1.95374
20
0.680748
11
1.89626
21
0.680748
0
LINE
8
BLACK
6
CONTINUOUS
10
1.89626
20
0.680748
11
1.89556
21
0.681036
0
LINE
8
BLACK
6
CONTINUOUS
10
1.89724
20
0.797283
11
1.89724
21
0.682717
0
LINE
8
BLACK
6
CONTINUOUS
10
1.89724
20
0.682717
11
1.95276
21
0.682717
0
LINE
8
BLACK
6
CONTINUOUS
10
1.95276
20
0.682717
11
1.95276
21
0.797283
0
LINE
8
BLACK
6
CONTINUOUS
10
1.95276
20
0.797283
11
1.89724
21
0.797283
0
LINE
8
BLACK
6
CONTINUOUS
10
2.13556
20
0.683536
11
2.13528
21
0.684232
0
LINE
8
BLACK
6
CONTINUOUS
10
2.13528
20
0.684232
11
2.13528
21
0.800768
0
LINE
8
BLACK
6
CONTINUOUS
10
2.13528
20
0.800768
11
2.13556
21
0.801464
0
LINE
8
BLACK
6
CONTINUOUS
10
2.13556
20
0.801464
11
2.13626
21
0.801752
0
LINE
8
BLACK
6
CONTINUOUS
10
2.13626
20
0.801752
11
2.19374
21
0.801752
0
LINE
8
BLACK
6
CONTINUOUS
10
2.19374
20
0.801752
11
2.19444
21
0.801464
0
LINE
8
BLACK
6
CONTINUOUS
10
2.19444
20
0.801464
11
2.19472
21
0.800768
0
LINE
8
BLACK
6
CONTINUOUS
10
2.19472
20
0.800768
11
2.19472
21
0.684232
0
LINE
8
BLACK
6
CONTINUOUS
10
2.19472
20
0.684232
11
2.19444
21
0.683536
0
LINE
8
BLACK
6
CONTINUOUS
10
2.19444
20
0.683536
11
2.19374
21
0.683248
0
LINE
8
BLACK
6
CONTINUOUS
10
2.19374
20
0.683248
11
2.13626
21
0.683248
0
LINE
8
BLACK
6
CONTINUOUS
10
2.13626
20
0.683248
11
2.13556
21
0.683536
0
LINE
8
BLACK
6
CONTINUOUS
10
2.13724
20
0.799783
11
2.13724
21
0.685217
0
LINE
8
BLACK
6
CONTINUOUS
10
2.13724
20
0.685217
11
2.19276
21
0.685217
0
LINE
8
BLACK
6
CONTINUOUS
10
2.19276
20
0.685217
11
2.19276
21
0.799783
0
LINE
8
BLACK
6
CONTINUOUS
10
2.19276
20
0.799783
11
2.13724
21
0.799783
0
LINE
8
BLACK
6
CONTINUOUS
10
2.22056
20
0.683536
11
2.22028
21
0.684232
0
LINE
8
BLACK
6
CONTINUOUS
10
2.22028
20
0.684232
11
2.22028
21
0.800768
0
LINE
8
BLACK
6
CONTINUOUS
10
2.22028
20
0.800768
11
2.22056
21
0.801464
0
LINE
8
BLACK
6
CONTINUOUS
10
2.22056
20
0.801464
11
2.22126
21
0.801752
0
LINE
8
BLACK
6
CONTINUOUS
10
2.22126
20
0.801752
11
2.27874
21
0.801752
0
LINE
8
BLACK
6
CONTINUOUS
10
2.27874
20
0.801752
11
2.27944
21
0.801464
0
LINE
8
BLACK
6
CONTINUOUS
10
2.27944
20
0.801464
11
2.27972
21
0.800768
0
LINE
8
BLACK
6
CONTINUOUS
10
2.27972
20
0.800768
11
2.27972
21
0.684232
0
LINE
8
BLACK
6
CONTINUOUS
10
2.27972
20
0.684232
11
2.27944
21
0.683536
0
LINE
8
BLACK
6
CONTINUOUS
10
2.27944
20
0.683536
11
2.27874
21
0.683248
0
LINE
8
BLACK
6
CONTINUOUS
10
2.27874
20
0.683248
11
2.22126
21
0.683248
0
LINE
8
BLACK
6
CONTINUOUS
10
2.22126
20
0.683248
11
2.22056
21
0.683536
0
LINE
8
BLACK
6
CONTINUOUS
10
2.22224
20
0.799783
11
2.22224
21
0.685217
0
LINE
8
BLACK
6
CONTINUOUS
10
2.22224
20
0.685217
11
2.27776
21
0.685217
0
LINE
8
BLACK
6
CONTINUOUS
10
2.27776
20
0.685217
11
2.27776
21
0.799783
0
LINE
8
BLACK
6
CONTINUOUS
10
2.27776
20
0.799783
11
2.22224
21
0.799783
0
LINE
8
BLACK
6
CONTINUOUS
10
3.42463
20
0.747598
11
3.42434
21
0.746902
0
LINE
8
BLACK
6
CONTINUOUS
10
3.42434
20
0.746902
11
3.42364
21
0.746614
0
LINE
8
BLACK
6
CONTINUOUS
10
3.42364
20
0.746614
11
3.29136
21
0.746614
0
LINE
8
BLACK
6
CONTINUOUS
10
3.29136
20
0.746614
11
3.29066
21
0.746902
0
LINE
8
BLACK
6
CONTINUOUS
10
3.29066
20
0.746902
11
3.29037
21
0.747598
0
LINE
8
BLACK
6
CONTINUOUS
10
3.29037
20
0.747598
11
3.29037
21
0.814764
0
LINE
8
BLACK
6
CONTINUOUS
10
3.29037
20
0.814764
11
3.27402
21
0.814764
0
LINE
8
BLACK
6
CONTINUOUS
10
3.27402
20
0.814764
11
3.27332
21
0.815052
0
LINE
8
BLACK
6
CONTINUOUS
10
3.27332
20
0.815052
11
3.27303
21
0.815748
0
LINE
8
BLACK
6
CONTINUOUS
10
3.27303
20
0.815748
11
3.27303
21
1.38425
0
LINE
8
BLACK
6
CONTINUOUS
10
3.27303
20
1.38425
11
3.27332
21
1.38495
0
LINE
8
BLACK
6
CONTINUOUS
10
3.27332
20
1.38495
11
3.27402
21
1.38524
0
LINE
8
BLACK
6
CONTINUOUS
10
3.27402
20
1.38524
11
3.52598
21
1.38524
0
LINE
8
BLACK
6
CONTINUOUS
10
3.52598
20
1.38524
11
3.52668
21
1.38495
0
LINE
8
BLACK
6
CONTINUOUS
10
3.52668
20
1.38495
11
3.52697
21
1.38425
0
LINE
8
BLACK
6
CONTINUOUS
10
3.52697
20
1.38425
11
3.52697
21
0.815748
0
LINE
8
BLACK
6
CONTINUOUS
10
3.52697
20
0.815748
11
3.52668
21
0.815052
0
LINE
8
BLACK
6
CONTINUOUS
10
3.52668
20
0.815052
11
3.52598
21
0.814764
0
LINE
8
BLACK
6
CONTINUOUS
10
3.52598
20
0.814764
11
3.42463
21
0.814764
0
LINE
8
BLACK
6
CONTINUOUS
10
3.42463
20
0.814764
11
3.42463
21
0.747598
0
LINE
8
BLACK
6
CONTINUOUS
10
3.29234
20
0.814764
11
3.29234
21
0.748583
0
LINE
8
BLACK
6
CONTINUOUS
10
3.29234
20
0.748583
11
3.42266
21
0.748583
0
LINE
8
BLACK
6
CONTINUOUS
10
3.42266
20
0.748583
11
3.42266
21
0.814764
0
LINE
8
BLACK
6
CONTINUOUS
10
3.42266
20
0.814764
11
3.29234
21
0.814764
0
LINE
8
BLACK
6
CONTINUOUS
10
3.42463
20
0.822402
11
3.42463
21
0.816732
0
LINE
8
BLACK
6
CONTINUOUS
10
3.42463
20
0.816732
11
3.525
21
0.816732
0
LINE
8
BLACK
6
CONTINUOUS
10
3.525
20
0.816732
11
3.525
21
1.38327
0
LINE
8
BLACK
6
CONTINUOUS
10
3.525
20
1.38327
11
3.275
21
1.38327
0
LINE
8
BLACK
6
CONTINUOUS
10
3.275
20
1.38327
11
3.275
21
0.816732
0
LINE
8
BLACK
6
CONTINUOUS
10
3.275
20
0.816732
11
3.29037
21
0.816732
0
LINE
8
BLACK
6
CONTINUOUS
10
3.29037
20
0.816732
11
3.29037
21
0.822402
0
LINE
8
BLACK
6
CONTINUOUS
10
3.29037
20
0.822402
11
3.29066
21
0.823098
0
LINE
8
BLACK
6
CONTINUOUS
10
3.29066
20
0.823098
11
3.29136
21
0.823386
0
LINE
8
BLACK
6
CONTINUOUS
10
3.29136
20
0.823386
11
3.42364
21
0.823386
0
LINE
8
BLACK
6
CONTINUOUS
10
3.42364
20
0.823386
11
3.42434
21
0.823098
0
LINE
8
BLACK
6
CONTINUOUS
10
3.42434
20
0.823098
11
3.42463
21
0.822402
0
LINE
8
BLACK
6
CONTINUOUS
10
3.29234
20
0.821417
11
3.29234
21
0.816732
0
LINE
8
BLACK
6
CONTINUOUS
10
3.29234
20
0.816732
11
3.42266
21
0.816732
0
LINE
8
BLACK
6
CONTINUOUS
10
3.42266
20
0.816732
11
3.42266
21
0.821417
0
LINE
8
BLACK
6
CONTINUOUS
10
3.42266
20
0.821417
11
3.29234
21
0.821417
0
LINE
8
BLACK
6
CONTINUOUS
10
2.35647
20
0.751902
11
2.35618
21
0.752598
0
LINE
8
BLACK
6
CONTINUOUS
10
2.35618
20
0.752598
11
2.35618
21
0.827402
0
LINE
8
BLACK
6
CONTINUOUS
10
2.35618
20
0.827402
11
2.35647
21
0.828098
0
LINE
8
BLACK
6
CONTINUOUS
10
2.35647
20
0.828098
11
2.35717
21
0.828386
0
LINE
8
BLACK
6
CONTINUOUS
10
2.35717
20
0.828386
11
2.50283
21
0.828386
0
LINE
8
BLACK
6
CONTINUOUS
10
2.50283
20
0.828386
11
2.50353
21
0.828098
0
LINE
8
BLACK
6
CONTINUOUS
10
2.50353
20
0.828098
11
2.50382
21
0.827402
0
LINE
8
BLACK
6
CONTINUOUS
10
2.50382
20
0.827402
11
2.50382
21
0.752598
0
LINE
8
BLACK
6
CONTINUOUS
10
2.50382
20
0.752598
11
2.50353
21
0.751902
0
LINE
8
BLACK
6
CONTINUOUS
10
2.50353
20
0.751902
11
2.50283
21
0.751614
0
LINE
8
BLACK
6
CONTINUOUS
10
2.50283
20
0.751614
11
2.35717
21
0.751614
0
LINE
8
BLACK
6
CONTINUOUS
10
2.35717
20
0.751614
11
2.35647
21
0.751902
0
LINE
8
BLACK
6
CONTINUOUS
10
2.35815
20
0.826417
11
2.35815
21
0.753583
0
LINE
8
BLACK
6
CONTINUOUS
10
2.35815
20
0.753583
11
2.50185
21
0.753583
0
LINE
8
BLACK
6
CONTINUOUS
10
2.50185
20
0.753583
11
2.50185
21
0.826417
0
LINE
8
BLACK
6
CONTINUOUS
10
2.50185
20
0.826417
11
2.35815
21
0.826417
0
LINE
8
BLACK
6
CONTINUOUS
10
2.77844
20
0.823162
11
2.77815
21
0.823858
0
LINE
8
BLACK
6
CONTINUOUS
10
2.77815
20
0.823858
11
2.77815
21
1.05614
0
LINE
8
BLACK
6
CONTINUOUS
10
2.77815
20
1.05614
11
2.77844
21
1.05684
0
LINE
8
BLACK
6
CONTINUOUS
10
2.77844
20
1.05684
11
2.77913
21
1.05713
0
LINE
8
BLACK
6
CONTINUOUS
10
2.77913
20
1.05713
11
2.92087
21
1.05713
0
LINE
8
BLACK
6
CONTINUOUS
10
2.92087
20
1.05713
11
2.92156
21
1.05684
0
LINE
8
BLACK
6
CONTINUOUS
10
2.92156
20
1.05684
11
2.92185
21
1.05614
0
LINE
8
BLACK
6
CONTINUOUS
10
2.92185
20
1.05614
11
2.92185
21
0.823858
0
LINE
8
BLACK
6
CONTINUOUS
10
2.92185
20
0.823858
11
2.92156
21
0.823162
0
LINE
8
BLACK
6
CONTINUOUS
10
2.92156
20
0.823162
11
2.92087
21
0.822874
0
LINE
8
BLACK
6
CONTINUOUS
10
2.92087
20
0.822874
11
2.77913
21
0.822874
0
LINE
8
BLACK
6
CONTINUOUS
10
2.77913
20
0.822874
11
2.77844
21
0.823162
0
LINE
8
BLACK
6
CONTINUOUS
10
2.78012
20
1.05516
11
2.78012
21
0.824843
0
LINE
8
BLACK
6
CONTINUOUS
10
2.78012
20
0.824843
11
2.91988
21
0.824843
0
LINE
8
BLACK
6
CONTINUOUS
10
2.91988
20
0.824843
11
2.91988
21
1.05516
0
LINE
8
BLACK
6
CONTINUOUS
10
2.91988
20
1.05516
11
2.78012
21
1.05516
0
LINE
8
BLACK
6
CONTINUOUS
10
3.00056
20
0.826036
11
3.00028
21
0.826732
0
LINE
8
BLACK
6
CONTINUOUS
10
3.00028
20
0.826732
11
3.00028
21
0.943268
0
LINE
8
BLACK
6
CONTINUOUS
10
3.00028
20
0.943268
11
3.00056
21
0.943964
0
LINE
8
BLACK
6
CONTINUOUS
10
3.00056
20
0.943964
11
3.00126
21
0.944252
0
LINE
8
BLACK
6
CONTINUOUS
10
3.00126
20
0.944252
11
3.05874
21
0.944252
0
LINE
8
BLACK
6
CONTINUOUS
10
3.05874
20
0.944252
11
3.05944
21
0.943964
0
LINE
8
BLACK
6
CONTINUOUS
10
3.05944
20
0.943964
11
3.05972
21
0.943268
0
LINE
8
BLACK
6
CONTINUOUS
10
3.05972
20
0.943268
11
3.05972
21
0.826732
0
LINE
8
BLACK
6
CONTINUOUS
10
3.05972
20
0.826732
11
3.05944
21
0.826036
0
LINE
8
BLACK
6
CONTINUOUS
10
3.05944
20
0.826036
11
3.05874
21
0.825748
0
LINE
8
BLACK
6
CONTINUOUS
10
3.05874
20
0.825748
11
3.00126
21
0.825748
0
LINE
8
BLACK
6
CONTINUOUS
10
3.00126
20
0.825748
11
3.00056
21
0.826036
0
LINE
8
BLACK
6
CONTINUOUS
10
3.00224
20
0.942283
11
3.00224
21
0.827717
0
LINE
8
BLACK
6
CONTINUOUS
10
3.00224
20
0.827717
11
3.05776
21
0.827717
0
LINE
8
BLACK
6
CONTINUOUS
10
3.05776
20
0.827717
11
3.05776
21
0.942283
0
LINE
8
BLACK
6
CONTINUOUS
10
3.05776
20
0.942283
11
3.00224
21
0.942283
0
LINE
8
BLACK
6
CONTINUOUS
10
2.44104
20
0.845564
11
2.44075
21
0.84626
0
LINE
8
BLACK
6
CONTINUOUS
10
2.44075
20
0.84626
11
2.44075
21
0.90374
0
LINE
8
BLACK
6
CONTINUOUS
10
2.44075
20
0.90374
11
2.44104
21
0.904436
0
LINE
8
BLACK
6
CONTINUOUS
10
2.44104
20
0.904436
11
2.44173
21
0.904724
0
LINE
8
BLACK
6
CONTINUOUS
10
2.44173
20
0.904724
11
2.55827
21
0.904724
0
LINE
8
BLACK
6
CONTINUOUS
10
2.55827
20
0.904724
11
2.55896
21
0.904436
0
LINE
8
BLACK
6
CONTINUOUS
10
2.55896
20
0.904436
11
2.55925
21
0.90374
0
LINE
8
BLACK
6
CONTINUOUS
10
2.55925
20
0.90374
11
2.55925
21
0.84626
0
LINE
8
BLACK
6
CONTINUOUS
10
2.55925
20
0.84626
11
2.55896
21
0.845564
0
LINE
8
BLACK
6
CONTINUOUS
10
2.55896
20
0.845564
11
2.55827
21
0.845276
0
LINE
8
BLACK
6
CONTINUOUS
10
2.55827
20
0.845276
11
2.44173
21
0.845276
0
LINE
8
BLACK
6
CONTINUOUS
10
2.44173
20
0.845276
11
2.44104
21
0.845564
0
LINE
8
BLACK
6
CONTINUOUS
10
2.44272
20
0.902756
11
2.44272
21
0.847244
0
LINE
8
BLACK
6
CONTINUOUS
10
2.44272
20
0.847244
11
2.55728
21
0.847244
0
LINE
8
BLACK
6
CONTINUOUS
10
2.55728
20
0.847244
11
2.55728
21
0.902756
0
LINE
8
BLACK
6
CONTINUOUS
10
2.55728
20
0.902756
11
2.44272
21
0.902756
0
LINE
8
BLACK
6
CONTINUOUS
10
2.22568
20
0.941824
11
2.22539
21
0.94252
0
LINE
8
BLACK
6
CONTINUOUS
10
2.22539
20
0.94252
11
2.22539
21
1.47008
0
LINE
8
BLACK
6
CONTINUOUS
10
2.22539
20
1.47008
11
2.22568
21
1.47077
0
LINE
8
BLACK
6
CONTINUOUS
10
2.22568
20
1.47077
11
2.22638
21
1.47106
0
LINE
8
BLACK
6
CONTINUOUS
10
2.22638
20
1.47106
11
2.75394
21
1.47106
0
LINE
8
BLACK
6
CONTINUOUS
10
2.75394
20
1.47106
11
2.75463
21
1.47077
0
LINE
8
BLACK
6
CONTINUOUS
10
2.75463
20
1.47077
11
2.75492
21
1.47008
0
LINE
8
BLACK
6
CONTINUOUS
10
2.75492
20
1.47008
11
2.75492
21
0.94252
0
LINE
8
BLACK
6
CONTINUOUS
10
2.75492
20
0.94252
11
2.75463
21
0.941824
0
LINE
8
BLACK
6
CONTINUOUS
10
2.75463
20
0.941824
11
2.75394
21
0.941535
0
LINE
8
BLACK
6
CONTINUOUS
10
2.75394
20
0.941535
11
2.22638
21
0.941535
0
LINE
8
BLACK
6
CONTINUOUS
10
2.22638
20
0.941535
11
2.22568
21
0.941824
0
LINE
8
BLACK
6
CONTINUOUS
10
2.22736
20
1.46909
11
2.22736
21
0.943504
0
LINE
8
BLACK
6
CONTINUOUS
10
2.22736
20
0.943504
11
2.75295
21
0.943504
0
LINE
8
BLACK
6
CONTINUOUS
10
2.75295
20
0.943504
11
2.75295
21
1.46909
0
LINE
8
BLACK
6
CONTINUOUS
10
2.75295
20
1.46909
11
2.22736
21
1.46909
0
LINE
8
BLACK
6
CONTINUOUS
10
3.08604
20
0.980564
11
3.08575
21
0.98126
0
LINE
8
BLACK
6
CONTINUOUS
10
3.08575
20
0.98126
11
3.08575
21
1.03874
0
LINE
8
BLACK
6
CONTINUOUS
10
3.08575
20
1.03874
11
3.08604
21
1.03944
0
LINE
8
BLACK
6
CONTINUOUS
10
3.08604
20
1.03944
11
3.08673
21
1.03972
0
LINE
8
BLACK
6
CONTINUOUS
10
3.08673
20
1.03972
11
3.20327
21
1.03972
0
LINE
8
BLACK
6
CONTINUOUS
10
3.20327
20
1.03972
11
3.20396
21
1.03944
0
LINE
8
BLACK
6
CONTINUOUS
10
3.20396
20
1.03944
11
3.20425
21
1.03874
0
LINE
8
BLACK
6
CONTINUOUS
10
3.20425
20
1.03874
11
3.20425
21
0.98126
0
LINE
8
BLACK
6
CONTINUOUS
10
3.20425
20
0.98126
11
3.20396
21
0.980564
0
LINE
8
BLACK
6
CONTINUOUS
10
3.20396
20
0.980564
11
3.20327
21
0.980276
0
LINE
8
BLACK
6
CONTINUOUS
10
3.20327
20
0.980276
11
3.08673
21
0.980276
0
LINE
8
BLACK
6
CONTINUOUS
10
3.08673
20
0.980276
11
3.08604
21
0.980564
0
LINE
8
BLACK
6
CONTINUOUS
10
3.08772
20
1.03776
11
3.08772
21
0.982244
0
LINE
8
BLACK
6
CONTINUOUS
10
3.08772
20
0.982244
11
3.20228
21
0.982244
0
LINE
8
BLACK
6
CONTINUOUS
10
3.20228
20
0.982244
11
3.20228
21
1.03776
0
LINE
8
BLACK
6
CONTINUOUS
10
3.20228
20
1.03776
11
3.08772
21
1.03776
0
LINE
8
BLACK
6
CONTINUOUS
10
2.94104
20
0.990564
11
2.94075
21
0.99126
0
LINE
8
BLACK
6
CONTINUOUS
10
2.94075
20
0.99126
11
2.94075
21
1.04874
0
LINE
8
BLACK
6
CONTINUOUS
10
2.94075
20
1.04874
11
2.94104
21
1.04944
0
LINE
8
BLACK
6
CONTINUOUS
10
2.94104
20
1.04944
11
2.94173
21
1.04972
0
LINE
8
BLACK
6
CONTINUOUS
10
2.94173
20
1.04972
11
3.05827
21
1.04972
0
LINE
8
BLACK
6
CONTINUOUS
10
3.05827
20
1.04972
11
3.05896
21
1.04944
0
LINE
8
BLACK
6
CONTINUOUS
10
3.05896
20
1.04944
11
3.05925
21
1.04874
0
LINE
8
BLACK
6
CONTINUOUS
10
3.05925
20
1.04874
11
3.05925
21
0.99126
0
LINE
8
BLACK
6
CONTINUOUS
10
3.05925
20
0.99126
11
3.05896
21
0.990564
0
LINE
8
BLACK
6
CONTINUOUS
10
3.05896
20
0.990564
11
3.05827
21
0.990276
0
LINE
8
BLACK
6
CONTINUOUS
10
3.05827
20
0.990276
11
2.94173
21
0.990276
0
LINE
8
BLACK
6
CONTINUOUS
10
2.94173
20
0.990276
11
2.94104
21
0.990564
0
LINE
8
BLACK
6
CONTINUOUS
10
2.94272
20
1.04776
11
2.94272
21
0.992244
0
LINE
8
BLACK
6
CONTINUOUS
10
2.94272
20
0.992244
11
3.05728
21
0.992244
0
LINE
8
BLACK
6
CONTINUOUS
10
3.05728
20
0.992244
11
3.05728
21
1.04776
0
LINE
8
BLACK
6
CONTINUOUS
10
3.05728
20
1.04776
11
2.94272
21
1.04776
0
LINE
8
BLACK
6
CONTINUOUS
10
3.13604
20
1.06556
11
3.13575
21
1.06626
0
LINE
8
BLACK
6
CONTINUOUS
10
3.13575
20
1.06626
11
3.13575
21
1.12374
0
LINE
8
BLACK
6
CONTINUOUS
10
3.13575
20
1.12374
11
3.13604
21
1.12444
0
LINE
8
BLACK
6
CONTINUOUS
10
3.13604
20
1.12444
11
3.13673
21
1.12472
0
LINE
8
BLACK
6
CONTINUOUS
10
3.13673
20
1.12472
11
3.25327
21
1.12472
0
LINE
8
BLACK
6
CONTINUOUS
10
3.25327
20
1.12472
11
3.25396
21
1.12444
0
LINE
8
BLACK
6
CONTINUOUS
10
3.25396
20
1.12444
11
3.25425
21
1.12374
0
LINE
8
BLACK
6
CONTINUOUS
10
3.25425
20
1.12374
11
3.25425
21
1.06626
0
LINE
8
BLACK
6
CONTINUOUS
10
3.25425
20
1.06626
11
3.25396
21
1.06556
0
LINE
8
BLACK
6
CONTINUOUS
10
3.25396
20
1.06556
11
3.25327
21
1.06528
0
LINE
8
BLACK
6
CONTINUOUS
10
3.25327
20
1.06528
11
3.13673
21
1.06528
0
LINE
8
BLACK
6
CONTINUOUS
10
3.13673
20
1.06528
11
3.13604
21
1.06556
0
LINE
8
BLACK
6
CONTINUOUS
10
3.13772
20
1.12276
11
3.13772
21
1.06724
0
LINE
8
BLACK
6
CONTINUOUS
10
3.13772
20
1.06724
11
3.25228
21
1.06724
0
LINE
8
BLACK
6
CONTINUOUS
10
3.25228
20
1.06724
11
3.25228
21
1.12276
0
LINE
8
BLACK
6
CONTINUOUS
10
3.25228
20
1.12276
11
3.13772
21
1.12276
0
LINE
8
BLACK
6
CONTINUOUS
10
2.97854
20
1.08556
11
2.97825
21
1.08626
0
LINE
8
BLACK
6
CONTINUOUS
10
2.97825
20
1.08626
11
2.97825
21
1.14374
0
LINE
8
BLACK
6
CONTINUOUS
10
2.97825
20
1.14374
11
2.97854
21
1.14444
0
LINE
8
BLACK
6
CONTINUOUS
10
2.97854
20
1.14444
11
2.97923
21
1.14472
0
LINE
8
BLACK
6
CONTINUOUS
10
2.97923
20
1.14472
11
3.09577
21
1.14472
0
LINE
8
BLACK
6
CONTINUOUS
10
3.09577
20
1.14472
11
3.09646
21
1.14444
0
LINE
8
BLACK
6
CONTINUOUS
10
3.09646
20
1.14444
11
3.09675
21
1.14374
0
LINE
8
BLACK
6
CONTINUOUS
10
3.09675
20
1.14374
11
3.09675
21
1.08626
0
LINE
8
BLACK
6
CONTINUOUS
10
3.09675
20
1.08626
11
3.09646
21
1.08556
0
LINE
8
BLACK
6
CONTINUOUS
10
3.09646
20
1.08556
11
3.09577
21
1.08528
0
LINE
8
BLACK
6
CONTINUOUS
10
3.09577
20
1.08528
11
2.97923
21
1.08528
0
LINE
8
BLACK
6
CONTINUOUS
10
2.97923
20
1.08528
11
2.97854
21
1.08556
0
LINE
8
BLACK
6
CONTINUOUS
10
2.98022
20
1.14276
11
2.98022
21
1.08724
0
LINE
8
BLACK
6
CONTINUOUS
10
2.98022
20
1.08724
11
3.09478
21
1.08724
0
LINE
8
BLACK
6
CONTINUOUS
10
3.09478
20
1.08724
11
3.09478
21
1.14276
0
LINE
8
BLACK
6
CONTINUOUS
10
3.09478
20
1.14276
11
2.98022
21
1.14276
0
LINE
8
BLACK
6
CONTINUOUS
10
2.80056
20
1.10104
11
2.80028
21
1.10173
0
LINE
8
BLACK
6
CONTINUOUS
10
2.80028
20
1.10173
11
2.80028
21
1.21827
0
LINE
8
BLACK
6
CONTINUOUS
10
2.80028
20
1.21827
11
2.80056
21
1.21896
0
LINE
8
BLACK
6
CONTINUOUS
10
2.80056
20
1.21896
11
2.80126
21
1.21925
0
LINE
8
BLACK
6
CONTINUOUS
10
2.80126
20
1.21925
11
2.85874
21
1.21925
0
LINE
8
BLACK
6
CONTINUOUS
10
2.85874
20
1.21925
11
2.85944
21
1.21896
0
LINE
8
BLACK
6
CONTINUOUS
10
2.85944
20
1.21896
11
2.85972
21
1.21827
0
LINE
8
BLACK
6
CONTINUOUS
10
2.85972
20
1.21827
11
2.85972
21
1.10173
0
LINE
8
BLACK
6
CONTINUOUS
10
2.85972
20
1.10173
11
2.85944
21
1.10104
0
LINE
8
BLACK
6
CONTINUOUS
10
2.85944
20
1.10104
11
2.85874
21
1.10075
0
LINE
8
BLACK
6
CONTINUOUS
10
2.85874
20
1.10075
11
2.80126
21
1.10075
0
LINE
8
BLACK
6
CONTINUOUS
10
2.80126
20
1.10075
11
2.80056
21
1.10104
0
LINE
8
BLACK
6
CONTINUOUS
10
2.80224
20
1.21728
11
2.80224
21
1.10272
0
LINE
8
BLACK
6
CONTINUOUS
10
2.80224
20
1.10272
11
2.85776
21
1.10272
0
LINE
8
BLACK
6
CONTINUOUS
10
2.85776
20
1.10272
11
2.85776
21
1.21728
0
LINE
8
BLACK
6
CONTINUOUS
10
2.85776
20
1.21728
11
2.80224
21
1.21728
0
LINE
8
BLACK
6
CONTINUOUS
10
2.89056
20
1.10104
11
2.89028
21
1.10173
0
LINE
8
BLACK
6
CONTINUOUS
10
2.89028
20
1.10173
11
2.89028
21
1.21827
0
LINE
8
BLACK
6
CONTINUOUS
10
2.89028
20
1.21827
11
2.89056
21
1.21896
0
LINE
8
BLACK
6
CONTINUOUS
10
2.89056
20
1.21896
11
2.89126
21
1.21925
0
LINE
8
BLACK
6
CONTINUOUS
10
2.89126
20
1.21925
11
2.94874
21
1.21925
0
LINE
8
BLACK
6
CONTINUOUS
10
2.94874
20
1.21925
11
2.94944
21
1.21896
0
LINE
8
BLACK
6
CONTINUOUS
10
2.94944
20
1.21896
11
2.94972
21
1.21827
0
LINE
8
BLACK
6
CONTINUOUS
10
2.94972
20
1.21827
11
2.94972
21
1.10173
0
LINE
8
BLACK
6
CONTINUOUS
10
2.94972
20
1.10173
11
2.94944
21
1.10104
0
LINE
8
BLACK
6
CONTINUOUS
10
2.94944
20
1.10104
11
2.94874
21
1.10075
0
LINE
8
BLACK
6
CONTINUOUS
10
2.94874
20
1.10075
11
2.89126
21
1.10075
0
LINE
8
BLACK
6
CONTINUOUS
10
2.89126
20
1.10075
11
2.89056
21
1.10104
0
LINE
8
BLACK
6
CONTINUOUS
10
2.89224
20
1.21728
11
2.89224
21
1.10272
0
LINE
8
BLACK
6
CONTINUOUS
10
2.89224
20
1.10272
11
2.94776
21
1.10272
0
LINE
8
BLACK
6
CONTINUOUS
10
2.94776
20
1.10272
11
2.94776
21
1.21728
0
LINE
8
BLACK
6
CONTINUOUS
10
2.94776
20
1.21728
11
2.89224
21
1.21728
0
LINE
8
BLACK
6
CONTINUOUS
10
3.13604
20
1.14556
11
3.13575
21
1.14626
0
LINE
8
BLACK
6
CONTINUOUS
10
3.13575
20
1.14626
11
3.13575
21
1.20374
0
LINE
8
BLACK
6
CONTINUOUS
10
3.13575
20
1.20374
11
3.13604
21
1.20444
0
LINE
8
BLACK
6
CONTINUOUS
10
3.13604
20
1.20444
11
3.13673
21
1.20472
0
LINE
8
BLACK
6
CONTINUOUS
10
3.13673
20
1.20472
11
3.25327
21
1.20472
0
LINE
8
BLACK
6
CONTINUOUS
10
3.25327
20
1.20472
11
3.25396
21
1.20444
0
LINE
8
BLACK
6
CONTINUOUS
10
3.25396
20
1.20444
11
3.25425
21
1.20374
0
LINE
8
BLACK
6
CONTINUOUS
10
3.25425
20
1.20374
11
3.25425
21
1.14626
0
LINE
8
BLACK
6
CONTINUOUS
10
3.25425
20
1.14626
11
3.25396
21
1.14556
0
LINE
8
BLACK
6
CONTINUOUS
10
3.25396
20
1.14556
11
3.25327
21
1.14528
0
LINE
8
BLACK
6
CONTINUOUS
10
3.25327
20
1.14528
11
3.13673
21
1.14528
0
LINE
8
BLACK
6
CONTINUOUS
10
3.13673
20
1.14528
11
3.13604
21
1.14556
0
LINE
8
BLACK
6
CONTINUOUS
10
3.13772
20
1.20276
11
3.13772
21
1.14724
0
LINE
8
BLACK
6
CONTINUOUS
10
3.13772
20
1.14724
11
3.25228
21
1.14724
0
LINE
8
BLACK
6
CONTINUOUS
10
3.25228
20
1.14724
11
3.25228
21
1.20276
0
LINE
8
BLACK
6
CONTINUOUS
10
3.25228
20
1.20276
11
3.13772
21
1.20276
0
LINE
8
BLACK
6
CONTINUOUS
10
1.93354
20
1.19056
11
1.93325
21
1.19126
0
LINE
8
BLACK
6
CONTINUOUS
10
1.93325
20
1.19126
11
1.93325
21
1.24874
0
LINE
8
BLACK
6
CONTINUOUS
10
1.93325
20
1.24874
11
1.93354
21
1.24944
0
LINE
8
BLACK
6
CONTINUOUS
10
1.93354
20
1.24944
11
1.93423
21
1.24972
0
LINE
8
BLACK
6
CONTINUOUS
10
1.93423
20
1.24972
11
2.05077
21
1.24972
0
LINE
8
BLACK
6
CONTINUOUS
10
2.05077
20
1.24972
11
2.05146
21
1.24944
0
LINE
8
BLACK
6
CONTINUOUS
10
2.05146
20
1.24944
11
2.05175
21
1.24874
0
LINE
8
BLACK
6
CONTINUOUS
10
2.05175
20
1.24874
11
2.05175
21
1.19126
0
LINE
8
BLACK
6
CONTINUOUS
10
2.05175
20
1.19126
11
2.05146
21
1.19056
0
LINE
8
BLACK
6
CONTINUOUS
10
2.05146
20
1.19056
11
2.05077
21
1.19028
0
LINE
8
BLACK
6
CONTINUOUS
10
2.05077
20
1.19028
11
1.93423
21
1.19028
0
LINE
8
BLACK
6
CONTINUOUS
10
1.93423
20
1.19028
11
1.93354
21
1.19056
0
LINE
8
BLACK
6
CONTINUOUS
10
1.93522
20
1.24776
11
1.93522
21
1.19224
0
LINE
8
BLACK
6
CONTINUOUS
10
1.93522
20
1.19224
11
2.04978
21
1.19224
0
LINE
8
BLACK
6
CONTINUOUS
10
2.04978
20
1.19224
11
2.04978
21
1.24776
0
LINE
8
BLACK
6
CONTINUOUS
10
2.04978
20
1.24776
11
1.93522
21
1.24776
0
LINE
8
BLACK
6
CONTINUOUS
10
2.06556
20
1.19354
11
2.06528
21
1.19423
0
LINE
8
BLACK
6
CONTINUOUS
10
2.06528
20
1.19423
11
2.06528
21
1.31077
0
LINE
8
BLACK
6
CONTINUOUS
10
2.06528
20
1.31077
11
2.06556
21
1.31146
0
LINE
8
BLACK
6
CONTINUOUS
10
2.06556
20
1.31146
11
2.06626
21
1.31175
0
LINE
8
BLACK
6
CONTINUOUS
10
2.06626
20
1.31175
11
2.12374
21
1.31175
0
LINE
8
BLACK
6
CONTINUOUS
10
2.12374
20
1.31175
11
2.12444
21
1.31146
0
LINE
8
BLACK
6
CONTINUOUS
10
2.12444
20
1.31146
11
2.12472
21
1.31077
0
LINE
8
BLACK
6
CONTINUOUS
10
2.12472
20
1.31077
11
2.12472
21
1.19423
0
LINE
8
BLACK
6
CONTINUOUS
10
2.12472
20
1.19423
11
2.12444
21
1.19354
0
LINE
8
BLACK
6
CONTINUOUS
10
2.12444
20
1.19354
11
2.12374
21
1.19325
0
LINE
8
BLACK
6
CONTINUOUS
10
2.12374
20
1.19325
11
2.06626
21
1.19325
0
LINE
8
BLACK
6
CONTINUOUS
10
2.06626
20
1.19325
11
2.06556
21
1.19354
0
LINE
8
BLACK
6
CONTINUOUS
10
2.06724
20
1.30978
11
2.06724
21
1.19522
0
LINE
8
BLACK
6
CONTINUOUS
10
2.06724
20
1.19522
11
2.12276
21
1.19522
0
LINE
8
BLACK
6
CONTINUOUS
10
2.12276
20
1.19522
11
2.12276
21
1.30978
0
LINE
8
BLACK
6
CONTINUOUS
10
2.12276
20
1.30978
11
2.06724
21
1.30978
0
LINE
8
BLACK
6
CONTINUOUS
10
3.13604
20
1.23056
11
3.13575
21
1.23126
0
LINE
8
BLACK
6
CONTINUOUS
10
3.13575
20
1.23126
11
3.13575
21
1.28874
0
LINE
8
BLACK
6
CONTINUOUS
10
3.13575
20
1.28874
11
3.13604
21
1.28944
0
LINE
8
BLACK
6
CONTINUOUS
10
3.13604
20
1.28944
11
3.13673
21
1.28972
0
LINE
8
BLACK
6
CONTINUOUS
10
3.13673
20
1.28972
11
3.25327
21
1.28972
0
LINE
8
BLACK
6
CONTINUOUS
10
3.25327
20
1.28972
11
3.25396
21
1.28944
0
LINE
8
BLACK
6
CONTINUOUS
10
3.25396
20
1.28944
11
3.25425
21
1.28874
0
LINE
8
BLACK
6
CONTINUOUS
10
3.25425
20
1.28874
11
3.25425
21
1.23126
0
LINE
8
BLACK
6
CONTINUOUS
10
3.25425
20
1.23126
11
3.25396
21
1.23056
0
LINE
8
BLACK
6
CONTINUOUS
10
3.25396
20
1.23056
11
3.25327
21
1.23028
0
LINE
8
BLACK
6
CONTINUOUS
10
3.25327
20
1.23028
11
3.13673
21
1.23028
0
LINE
8
BLACK
6
CONTINUOUS
10
3.13673
20
1.23028
11
3.13604
21
1.23056
0
LINE
8
BLACK
6
CONTINUOUS
10
3.13772
20
1.28776
11
3.13772
21
1.23224
0
LINE
8
BLACK
6
CONTINUOUS
10
3.13772
20
1.23224
11
3.25228
21
1.23224
0
LINE
8
BLACK
6
CONTINUOUS
10
3.25228
20
1.23224
11
3.25228
21
1.28776
0
LINE
8
BLACK
6
CONTINUOUS
10
3.25228
20
1.28776
11
3.13772
21
1.28776
0
LINE
8
BLACK
6
CONTINUOUS
10
2.89785
20
1.2321
11
2.89756
21
1.2328
0
LINE
8
BLACK
6
CONTINUOUS
10
2.89756
20
1.2328
11
2.89756
21
1.3572
0
LINE
8
BLACK
6
CONTINUOUS
10
2.89756
20
1.3572
11
2.89785
21
1.3579
0
LINE
8
BLACK
6
CONTINUOUS
10
2.89785
20
1.3579
11
2.89854
21
1.35819
0
LINE
8
BLACK
6
CONTINUOUS
10
2.89854
20
1.35819
11
3.09146
21
1.35819
0
LINE
8
BLACK
6
CONTINUOUS
10
3.09146
20
1.35819
11
3.09215
21
1.3579
0
LINE
8
BLACK
6
CONTINUOUS
10
3.09215
20
1.3579
11
3.09244
21
1.3572
0
LINE
8
BLACK
6
CONTINUOUS
10
3.09244
20
1.3572
11
3.09244
21
1.2328
0
LINE
8
BLACK
6
CONTINUOUS
10
3.09244
20
1.2328
11
3.09215
21
1.2321
0
LINE
8
BLACK
6
CONTINUOUS
10
3.09215
20
1.2321
11
3.09146
21
1.23181
0
LINE
8
BLACK
6
CONTINUOUS
10
3.09146
20
1.23181
11
2.89854
21
1.23181
0
LINE
8
BLACK
6
CONTINUOUS
10
2.89854
20
1.23181
11
2.89785
21
1.2321
0
LINE
8
BLACK
6
CONTINUOUS
10
2.89953
20
1.35622
11
2.89953
21
1.23378
0
LINE
8
BLACK
6
CONTINUOUS
10
2.89953
20
1.23378
11
3.09047
21
1.23378
0
LINE
8
BLACK
6
CONTINUOUS
10
3.09047
20
1.23378
11
3.09047
21
1.35622
0
LINE
8
BLACK
6
CONTINUOUS
10
3.09047
20
1.35622
11
2.89953
21
1.35622
0
LINE
8
BLACK
6
CONTINUOUS
10
2.82056
20
1.23354
11
2.82028
21
1.23423
0
LINE
8
BLACK
6
CONTINUOUS
10
2.82028
20
1.23423
11
2.82028
21
1.35077
0
LINE
8
BLACK
6
CONTINUOUS
10
2.82028
20
1.35077
11
2.82056
21
1.35146
0
LINE
8
BLACK
6
CONTINUOUS
10
2.82056
20
1.35146
11
2.82126
21
1.35175
0
LINE
8
BLACK
6
CONTINUOUS
10
2.82126
20
1.35175
11
2.87874
21
1.35175
0
LINE
8
BLACK
6
CONTINUOUS
10
2.87874
20
1.35175
11
2.87944
21
1.35146
0
LINE
8
BLACK
6
CONTINUOUS
10
2.87944
20
1.35146
11
2.87972
21
1.35077
0
LINE
8
BLACK
6
CONTINUOUS
10
2.87972
20
1.35077
11
2.87972
21
1.23423
0
LINE
8
BLACK
6
CONTINUOUS
10
2.87972
20
1.23423
11
2.87944
21
1.23354
0
LINE
8
BLACK
6
CONTINUOUS
10
2.87944
20
1.23354
11
2.87874
21
1.23325
0
LINE
8
BLACK
6
CONTINUOUS
10
2.87874
20
1.23325
11
2.82126
21
1.23325
0
LINE
8
BLACK
6
CONTINUOUS
10
2.82126
20
1.23325
11
2.82056
21
1.23354
0
LINE
8
BLACK
6
CONTINUOUS
10
2.82224
20
1.34978
11
2.82224
21
1.23522
0
LINE
8
BLACK
6
CONTINUOUS
10
2.82224
20
1.23522
11
2.87776
21
1.23522
0
LINE
8
BLACK
6
CONTINUOUS
10
2.87776
20
1.23522
11
2.87776
21
1.34978
0
LINE
8
BLACK
6
CONTINUOUS
10
2.87776
20
1.34978
11
2.82224
21
1.34978
0
LINE
8
BLACK
6
CONTINUOUS
10
3.27962
20
1.39852
11
3.27933
21
1.39921
0
LINE
8
BLACK
6
CONTINUOUS
10
3.27933
20
1.39921
11
3.27933
21
1.80079
0
LINE
8
BLACK
6
CONTINUOUS
10
3.27933
20
1.80079
11
3.27962
21
1.80148
0
LINE
8
BLACK
6
CONTINUOUS
10
3.27962
20
1.80148
11
3.28031
21
1.80177
0
LINE
8
BLACK
6
CONTINUOUS
10
3.28031
20
1.80177
11
3.6122
21
1.80177
0
LINE
8
BLACK
6
CONTINUOUS
10
3.6122
20
1.80177
11
3.6129
21
1.80148
0
LINE
8
BLACK
6
CONTINUOUS
10
3.6129
20
1.80148
11
3.61319
21
1.80079
0
LINE
8
BLACK
6
CONTINUOUS
10
3.61319
20
1.80079
11
3.61319
21
1.39921
0
LINE
8
BLACK
6
CONTINUOUS
10
3.61319
20
1.39921
11
3.6129
21
1.39852
0
LINE
8
BLACK
6
CONTINUOUS
10
3.6129
20
1.39852
11
3.6122
21
1.39823
0
LINE
8
BLACK
6
CONTINUOUS
10
3.6122
20
1.39823
11
3.28031
21
1.39823
0
LINE
8
BLACK
6
CONTINUOUS
10
3.28031
20
1.39823
11
3.27962
21
1.39852
0
LINE
8
BLACK
6
CONTINUOUS
10
3.2813
20
1.7998
11
3.2813
21
1.4002
0
LINE
8
BLACK
6
CONTINUOUS
10
3.2813
20
1.4002
11
3.61122
21
1.4002
0
LINE
8
BLACK
6
CONTINUOUS
10
3.61122
20
1.4002
11
3.61122
21
1.7998
0
LINE
8
BLACK
6
CONTINUOUS
10
3.61122
20
1.7998
11
3.2813
21
1.7998
0
LINE
8
BLACK
6
CONTINUOUS
10
1.94104
20
1.42556
11
1.94075
21
1.42626
0
LINE
8
BLACK
6
CONTINUOUS
10
1.94075
20
1.42626
11
1.94075
21
1.48374
0
LINE
8
BLACK
6
CONTINUOUS
10
1.94075
20
1.48374
11
1.94104
21
1.48444
0
LINE
8
BLACK
6
CONTINUOUS
10
1.94104
20
1.48444
11
1.94173
21
1.48472
0
LINE
8
BLACK
6
CONTINUOUS
10
1.94173
20
1.48472
11
2.05827
21
1.48472
0
LINE
8
BLACK
6
CONTINUOUS
10
2.05827
20
1.48472
11
2.05896
21
1.48444
0
LINE
8
BLACK
6
CONTINUOUS
10
2.05896
20
1.48444
11
2.05925
21
1.48374
0
LINE
8
BLACK
6
CONTINUOUS
10
2.05925
20
1.48374
11
2.05925
21
1.42626
0
LINE
8
BLACK
6
CONTINUOUS
10
2.05925
20
1.42626
11
2.05896
21
1.42556
0
LINE
8
BLACK
6
CONTINUOUS
10
2.05896
20
1.42556
11
2.05827
21
1.42528
0
LINE
8
BLACK
6
CONTINUOUS
10
2.05827
20
1.42528
11
1.94173
21
1.42528
0
LINE
8
BLACK
6
CONTINUOUS
10
1.94173
20
1.42528
11
1.94104
21
1.42556
0
LINE
8
BLACK
6
CONTINUOUS
10
1.94272
20
1.48276
11
1.94272
21
1.42724
0
LINE
8
BLACK
6
CONTINUOUS
10
1.94272
20
1.42724
11
2.05728
21
1.42724
0
LINE
8
BLACK
6
CONTINUOUS
10
2.05728
20
1.42724
11
2.05728
21
1.48276
0
LINE
8
BLACK
6
CONTINUOUS
10
2.05728
20
1.48276
11
1.94272
21
1.48276
0
LINE
8
BLACK
6
CONTINUOUS
10
2.08604
20
1.42556
11
2.08575
21
1.42626
0
LINE
8
BLACK
6
CONTINUOUS
10
2.08575
20
1.42626
11
2.08575
21
1.48374
0
LINE
8
BLACK
6
CONTINUOUS
10
2.08575
20
1.48374
11
2.08604
21
1.48444
0
LINE
8
BLACK
6
CONTINUOUS
10
2.08604
20
1.48444
11
2.08673
21
1.48472
0
LINE
8
BLACK
6
CONTINUOUS
10
2.08673
20
1.48472
11
2.20327
21
1.48472
0
LINE
8
BLACK
6
CONTINUOUS
10
2.20327
20
1.48472
11
2.20396
21
1.48444
0
LINE
8
BLACK
6
CONTINUOUS
10
2.20396
20
1.48444
11
2.20425
21
1.48374
0
LINE
8
BLACK
6
CONTINUOUS
10
2.20425
20
1.48374
11
2.20425
21
1.42626
0
LINE
8
BLACK
6
CONTINUOUS
10
2.20425
20
1.42626
11
2.20396
21
1.42556
0
LINE
8
BLACK
6
CONTINUOUS
10
2.20396
20
1.42556
11
2.20327
21
1.42528
0
LINE
8
BLACK
6
CONTINUOUS
10
2.20327
20
1.42528
11
2.08673
21
1.42528
0
LINE
8
BLACK
6
CONTINUOUS
10
2.08673
20
1.42528
11
2.08604
21
1.42556
0
LINE
8
BLACK
6
CONTINUOUS
10
2.08772
20
1.48276
11
2.08772
21
1.42724
0
LINE
8
BLACK
6
CONTINUOUS
10
2.08772
20
1.42724
11
2.20228
21
1.42724
0
LINE
8
BLACK
6
CONTINUOUS
10
2.20228
20
1.42724
11
2.20228
21
1.48276
0
LINE
8
BLACK
6
CONTINUOUS
10
2.20228
20
1.48276
11
2.08772
21
1.48276
0
LINE
8
BLACK
6
CONTINUOUS
10
2.46604
20
1.48556
11
2.46575
21
1.48626
0
LINE
8
BLACK
6
CONTINUOUS
10
2.46575
20
1.48626
11
2.46575
21
1.54374
0
LINE
8
BLACK
6
CONTINUOUS
10
2.46575
20
1.54374
11
2.46604
21
1.54444
0
LINE
8
BLACK
6
CONTINUOUS
10
2.46604
20
1.54444
11
2.46673
21
1.54472
0
LINE
8
BLACK
6
CONTINUOUS
10
2.46673
20
1.54472
11
2.58327
21
1.54472
0
LINE
8
BLACK
6
CONTINUOUS
10
2.58327
20
1.54472
11
2.58396
21
1.54444
0
LINE
8
BLACK
6
CONTINUOUS
10
2.58396
20
1.54444
11
2.58425
21
1.54374
0
LINE
8
BLACK
6
CONTINUOUS
10
2.58425
20
1.54374
11
2.58425
21
1.48626
0
LINE
8
BLACK
6
CONTINUOUS
10
2.58425
20
1.48626
11
2.58396
21
1.48556
0
LINE
8
BLACK
6
CONTINUOUS
10
2.58396
20
1.48556
11
2.58327
21
1.48528
0
LINE
8
BLACK
6
CONTINUOUS
10
2.58327
20
1.48528
11
2.46673
21
1.48528
0
LINE
8
BLACK
6
CONTINUOUS
10
2.46673
20
1.48528
11
2.46604
21
1.48556
0
LINE
8
BLACK
6
CONTINUOUS
10
2.46772
20
1.54276
11
2.46772
21
1.48724
0
LINE
8
BLACK
6
CONTINUOUS
10
2.46772
20
1.48724
11
2.58228
21
1.48724
0
LINE
8
BLACK
6
CONTINUOUS
10
2.58228
20
1.48724
11
2.58228
21
1.54276
0
LINE
8
BLACK
6
CONTINUOUS
10
2.58228
20
1.54276
11
2.46772
21
1.54276
  0
ENDSEC
  0
EOF
