  0
SECTION
  2
HEADER
  9
$ANGBASE
  50
0.0
  9
$ANGDIR
  70
1
  9
$MEASUREMENT
  70
0
  0
ENDSEC
  0
SECTION
  2
TABLES
  0
TABLE
  2
LTYPE
  70
4
  0
LTYPE
  5
40F
  2
CONTINUOUS
  70
0
  3
Solid line
  72
65
  73
0
  40
0.0
  0
LTYPE
  5
410
  2
DASHDOT
 70
0
  3
Dash Dot ____ _ ____ _
 72
65
 73
4
 40
2.0
 49
1.25
 49
-0.25
 49
0.25
 49
-0.25
  0
LTYPE
  5
411
  2
DASHED
 70
0
  3
Dashed __ __ __ __ __
 72
65
 73
2
 40
0.75
 49
0.5
 49
-0.25
  0
LTYPE
  5
43B
  2
DOTTED
 70
0
  3
Dotted .  .  .  .
 72
65
 73
2
 40
0.2
 49
0.0
 49
-0.2
  0
ENDTAB
  0
TABLE
  2
STYLE
  70
4
  0
STYLE
  2
KICAD
  70
0
  40
0
  41
1
  42
1
  50
0
  71
0
  3
isocp.shx
  0
STYLE
  2
KICADB
  70
0
  40
0
  41
1
  42
1
  50
0
  71
0
  3
isocp.shx
  0
STYLE
  2
KICADI
  70
0
  40
0
  41
1
  42
1
  50
15
  71
0
  3
isocp.shx
  0
STYLE
  2
KICADBI
  70
0
  40
0
  41
1
  42
1
  50
15
  71
0
  3
isocp.shx
  0
ENDTAB
  0
TABLE
  2
LAYER
  70
1
  0
LAYER
  2
BLACK
  70
0
  62
7
  6
CONTINUOUS
  0
ENDTAB
  0
ENDSEC
  0
SECTION
  2
ENTITIES
0
LINE
8
BLACK
6
CONTINUOUS
10
5.8561815748031494
20
-4.728777834645669
11
5.8593747244094487
21
-4.7309114173228348
0
LINE
8
BLACK
6
CONTINUOUS
10
5.8593747244094487
20
-4.7309114173228348
11
5.8615083070866136
21
-4.7341045669291342
0
LINE
8
BLACK
6
CONTINUOUS
10
5.8615083070866136
20
-4.7341045669291342
11
5.8622575196850395
21
-4.737871141732283
0
LINE
8
BLACK
6
CONTINUOUS
10
5.8622575196850395
20
-4.737871141732283
11
5.8622575196850395
21
-4.7673987007874015
0
LINE
8
BLACK
6
CONTINUOUS
10
5.8622575196850395
20
-4.7673987007874015
11
5.8615083070866136
21
-4.7711652755905511
0
LINE
8
BLACK
6
CONTINUOUS
10
5.8615083070866136
20
-4.7711652755905511
11
5.8593747244094487
21
-4.7743584251968505
0
LINE
8
BLACK
6
CONTINUOUS
10
5.8593747244094487
20
-4.7743584251968505
11
5.8561815748031494
21
-4.7764920078740154
0
LINE
8
BLACK
6
CONTINUOUS
10
5.8561815748031494
20
-4.7764920078740154
11
5.8524149999999997
21
-4.7772412204724413
0
LINE
8
BLACK
6
CONTINUOUS
10
5.8524149999999997
20
-4.7772412204724413
11
5.8032024015748034
21
-4.7772412204724413
0
LINE
8
BLACK
6
CONTINUOUS
10
5.8032024015748034
20
-4.7772412204724413
11
5.7994358267716537
21
-4.7764920078740154
0
LINE
8
BLACK
6
CONTINUOUS
10
5.7994358267716537
20
-4.7764920078740154
11
5.7962426771653544
21
-4.7743584251968505
0
LINE
8
BLACK
6
CONTINUOUS
10
5.7962426771653544
20
-4.7743584251968505
11
5.7941090944881886
21
-4.7711652755905511
0
LINE
8
BLACK
6
CONTINUOUS
10
5.7941090944881886
20
-4.7711652755905511
11
5.7933598818897636
21
-4.7673987007874015
0
LINE
8
BLACK
6
CONTINUOUS
10
5.7933598818897636
20
-4.7673987007874015
11
5.7933598818897636
21
-4.737871141732283
0
LINE
8
BLACK
6
CONTINUOUS
10
5.7933598818897636
20
-4.737871141732283
11
5.7941090944881886
21
-4.7341045669291342
0
LINE
8
BLACK
6
CONTINUOUS
10
5.7941090944881886
20
-4.7341045669291342
11
5.7962426771653544
21
-4.7309114173228348
0
LINE
8
BLACK
6
CONTINUOUS
10
5.7962426771653544
20
-4.7309114173228348
11
5.7994358267716537
21
-4.728777834645669
0
LINE
8
BLACK
6
CONTINUOUS
10
5.7994358267716537
20
-4.728777834645669
11
5.8032024015748034
21
-4.7280286220472441
0
LINE
8
BLACK
6
CONTINUOUS
10
5.8032024015748034
20
-4.7280286220472441
11
5.8524149999999997
21
-4.7280286220472441
0
LINE
8
BLACK
6
CONTINUOUS
10
5.8524149999999997
20
-4.7280286220472441
11
5.8561815748031494
21
-4.728777834645669
0
LINE
8
BLACK
6
CONTINUOUS
10
6.0530319685039364
20
-4.728777834645669
11
6.0562251181102358
21
-4.7309114173228348
0
LINE
8
BLACK
6
CONTINUOUS
10
6.0562251181102358
20
-4.7309114173228348
11
6.0583587007874016
21
-4.7341045669291342
0
LINE
8
BLACK
6
CONTINUOUS
10
6.0583587007874016
20
-4.7341045669291342
11
6.0591079133858265
21
-4.737871141732283
0
LINE
8
BLACK
6
CONTINUOUS
10
6.0591079133858265
20
-4.737871141732283
11
6.0591079133858265
21
-4.7673987007874015
0
LINE
8
BLACK
6
CONTINUOUS
10
6.0591079133858265
20
-4.7673987007874015
11
6.0583587007874016
21
-4.7711652755905511
0
LINE
8
BLACK
6
CONTINUOUS
10
6.0583587007874016
20
-4.7711652755905511
11
6.0562251181102358
21
-4.7743584251968505
0
LINE
8
BLACK
6
CONTINUOUS
10
6.0562251181102358
20
-4.7743584251968505
11
6.0530319685039364
21
-4.7764920078740154
0
LINE
8
BLACK
6
CONTINUOUS
10
6.0530319685039364
20
-4.7764920078740154
11
6.0492653937007876
21
-4.7772412204724413
0
LINE
8
BLACK
6
CONTINUOUS
10
6.0492653937007876
20
-4.7772412204724413
11
6.0000527952755904
21
-4.7772412204724413
0
LINE
8
BLACK
6
CONTINUOUS
10
6.0000527952755904
20
-4.7772412204724413
11
5.9962862204724408
21
-4.7764920078740154
0
LINE
8
BLACK
6
CONTINUOUS
10
5.9962862204724408
20
-4.7764920078740154
11
5.9930930708661414
21
-4.7743584251968505
0
LINE
8
BLACK
6
CONTINUOUS
10
5.9930930708661414
20
-4.7743584251968505
11
5.9909594881889765
21
-4.7711652755905511
0
LINE
8
BLACK
6
CONTINUOUS
10
5.9909594881889765
20
-4.7711652755905511
11
5.9902102755905506
21
-4.7673987007874015
0
LINE
8
BLACK
6
CONTINUOUS
10
5.9902102755905506
20
-4.7673987007874015
11
5.9902102755905506
21
-4.737871141732283
0
LINE
8
BLACK
6
CONTINUOUS
10
5.9902102755905506
20
-4.737871141732283
11
5.9909594881889765
21
-4.7341045669291342
0
LINE
8
BLACK
6
CONTINUOUS
10
5.9909594881889765
20
-4.7341045669291342
11
5.9930930708661414
21
-4.7309114173228348
0
LINE
8
BLACK
6
CONTINUOUS
10
5.9930930708661414
20
-4.7309114173228348
11
5.9962862204724408
21
-4.728777834645669
0
LINE
8
BLACK
6
CONTINUOUS
10
5.9962862204724408
20
-4.728777834645669
11
6.0000527952755904
21
-4.7280286220472441
0
LINE
8
BLACK
6
CONTINUOUS
10
6.0000527952755904
20
-4.7280286220472441
11
6.0492653937007876
21
-4.7280286220472441
0
LINE
8
BLACK
6
CONTINUOUS
10
6.0492653937007876
20
-4.7280286220472441
11
6.0530319685039364
21
-4.728777834645669
0
LINE
8
BLACK
6
CONTINUOUS
10
6.2498823622047244
20
-4.728777834645669
11
6.2530755118110237
21
-4.7309114173228348
0
LINE
8
BLACK
6
CONTINUOUS
10
6.2530755118110237
20
-4.7309114173228348
11
6.2552090944881886
21
-4.7341045669291342
0
LINE
8
BLACK
6
CONTINUOUS
10
6.2552090944881886
20
-4.7341045669291342
11
6.2559583070866136
21
-4.737871141732283
0
LINE
8
BLACK
6
CONTINUOUS
10
6.2559583070866136
20
-4.737871141732283
11
6.2559583070866136
21
-4.7673987007874015
0
LINE
8
BLACK
6
CONTINUOUS
10
6.2559583070866136
20
-4.7673987007874015
11
6.2552090944881886
21
-4.7711652755905511
0
LINE
8
BLACK
6
CONTINUOUS
10
6.2552090944881886
20
-4.7711652755905511
11
6.2530755118110237
21
-4.7743584251968505
0
LINE
8
BLACK
6
CONTINUOUS
10
6.2530755118110237
20
-4.7743584251968505
11
6.2498823622047244
21
-4.7764920078740154
0
LINE
8
BLACK
6
CONTINUOUS
10
6.2498823622047244
20
-4.7764920078740154
11
6.2461157874015747
21
-4.7772412204724413
0
LINE
8
BLACK
6
CONTINUOUS
10
6.2461157874015747
20
-4.7772412204724413
11
6.1969031889763775
21
-4.7772412204724413
0
LINE
8
BLACK
6
CONTINUOUS
10
6.1969031889763775
20
-4.7772412204724413
11
6.1931366141732278
21
-4.7764920078740154
0
LINE
8
BLACK
6
CONTINUOUS
10
6.1931366141732278
20
-4.7764920078740154
11
6.1899434645669293
21
-4.7743584251968505
0
LINE
8
BLACK
6
CONTINUOUS
10
6.1899434645669293
20
-4.7743584251968505
11
6.1878098818897636
21
-4.7711652755905511
0
LINE
8
BLACK
6
CONTINUOUS
10
6.1878098818897636
20
-4.7711652755905511
11
6.1870606692913386
21
-4.7673987007874015
0
LINE
8
BLACK
6
CONTINUOUS
10
6.1870606692913386
20
-4.7673987007874015
11
6.1870606692913386
21
-4.737871141732283
0
LINE
8
BLACK
6
CONTINUOUS
10
6.1870606692913386
20
-4.737871141732283
11
6.1878098818897636
21
-4.7341045669291342
0
LINE
8
BLACK
6
CONTINUOUS
10
6.1878098818897636
20
-4.7341045669291342
11
6.1899434645669293
21
-4.7309114173228348
0
LINE
8
BLACK
6
CONTINUOUS
10
6.1899434645669293
20
-4.7309114173228348
11
6.1931366141732278
21
-4.728777834645669
0
LINE
8
BLACK
6
CONTINUOUS
10
6.1931366141732278
20
-4.728777834645669
11
6.1969031889763775
21
-4.7280286220472441
0
LINE
8
BLACK
6
CONTINUOUS
10
6.1969031889763775
20
-4.7280286220472441
11
6.2461157874015747
21
-4.7280286220472441
0
LINE
8
BLACK
6
CONTINUOUS
10
6.2461157874015747
20
-4.7280286220472441
11
6.2498823622047244
21
-4.728777834645669
0
LINE
8
BLACK
6
CONTINUOUS
10
6.4467327559055114
20
-4.728777834645669
11
6.4499259055118108
21
-4.7309114173228348
0
LINE
8
BLACK
6
CONTINUOUS
10
6.4499259055118108
20
-4.7309114173228348
11
6.4520594881889766
21
-4.7341045669291342
0
LINE
8
BLACK
6
CONTINUOUS
10
6.4520594881889766
20
-4.7341045669291342
11
6.4528087007874015
21
-4.737871141732283
0
LINE
8
BLACK
6
CONTINUOUS
10
6.4528087007874015
20
-4.737871141732283
11
6.4528087007874015
21
-4.7673987007874015
0
LINE
8
BLACK
6
CONTINUOUS
10
6.4528087007874015
20
-4.7673987007874015
11
6.4520594881889766
21
-4.7711652755905511
0
LINE
8
BLACK
6
CONTINUOUS
10
6.4520594881889766
20
-4.7711652755905511
11
6.4499259055118108
21
-4.7743584251968505
0
LINE
8
BLACK
6
CONTINUOUS
10
6.4499259055118108
20
-4.7743584251968505
11
6.4467327559055114
21
-4.7764920078740154
0
LINE
8
BLACK
6
CONTINUOUS
10
6.4467327559055114
20
-4.7764920078740154
11
6.4429661811023617
21
-4.7772412204724413
0
LINE
8
BLACK
6
CONTINUOUS
10
6.4429661811023617
20
-4.7772412204724413
11
6.3937535826771654
21
-4.7772412204724413
0
LINE
8
BLACK
6
CONTINUOUS
10
6.3937535826771654
20
-4.7772412204724413
11
6.3899870078740157
21
-4.7764920078740154
0
LINE
8
BLACK
6
CONTINUOUS
10
6.3899870078740157
20
-4.7764920078740154
11
6.3867938582677164
21
-4.7743584251968505
0
LINE
8
BLACK
6
CONTINUOUS
10
6.3867938582677164
20
-4.7743584251968505
11
6.3846602755905506
21
-4.7711652755905511
0
LINE
8
BLACK
6
CONTINUOUS
10
6.3846602755905506
20
-4.7711652755905511
11
6.3839110629921256
21
-4.7673987007874015
0
LINE
8
BLACK
6
CONTINUOUS
10
6.3839110629921256
20
-4.7673987007874015
11
6.3839110629921256
21
-4.737871141732283
0
LINE
8
BLACK
6
CONTINUOUS
10
6.3839110629921256
20
-4.737871141732283
11
6.3846602755905506
21
-4.7341045669291342
0
LINE
8
BLACK
6
CONTINUOUS
10
6.3846602755905506
20
-4.7341045669291342
11
6.3867938582677164
21
-4.7309114173228348
0
LINE
8
BLACK
6
CONTINUOUS
10
6.3867938582677164
20
-4.7309114173228348
11
6.3899870078740157
21
-4.728777834645669
0
LINE
8
BLACK
6
CONTINUOUS
10
6.3899870078740157
20
-4.728777834645669
11
6.3937535826771654
21
-4.7280286220472441
0
LINE
8
BLACK
6
CONTINUOUS
10
6.3937535826771654
20
-4.7280286220472441
11
6.4429661811023617
21
-4.7280286220472441
0
LINE
8
BLACK
6
CONTINUOUS
10
6.4429661811023617
20
-4.7280286220472441
11
6.4467327559055114
21
-4.728777834645669
0
LINE
8
BLACK
6
CONTINUOUS
10
6.6435831496062994
20
-4.728777834645669
11
6.6467762992125987
21
-4.7309114173228348
0
LINE
8
BLACK
6
CONTINUOUS
10
6.6467762992125987
20
-4.7309114173228348
11
6.6489098818897636
21
-4.7341045669291342
0
LINE
8
BLACK
6
CONTINUOUS
10
6.6489098818897636
20
-4.7341045669291342
11
6.6496590944881886
21
-4.737871141732283
0
LINE
8
BLACK
6
CONTINUOUS
10
6.6496590944881886
20
-4.737871141732283
11
6.6496590944881886
21
-4.7673987007874015
0
LINE
8
BLACK
6
CONTINUOUS
10
6.6496590944881886
20
-4.7673987007874015
11
6.6489098818897636
21
-4.7711652755905511
0
LINE
8
BLACK
6
CONTINUOUS
10
6.6489098818897636
20
-4.7711652755905511
11
6.6467762992125987
21
-4.7743584251968505
0
LINE
8
BLACK
6
CONTINUOUS
10
6.6467762992125987
20
-4.7743584251968505
11
6.6435831496062994
21
-4.7764920078740154
0
LINE
8
BLACK
6
CONTINUOUS
10
6.6435831496062994
20
-4.7764920078740154
11
6.6398165748031497
21
-4.7772412204724413
0
LINE
8
BLACK
6
CONTINUOUS
10
6.6398165748031497
20
-4.7772412204724413
11
6.5906039763779525
21
-4.7772412204724413
0
LINE
8
BLACK
6
CONTINUOUS
10
6.5906039763779525
20
-4.7772412204724413
11
6.5868374015748028
21
-4.7764920078740154
0
LINE
8
BLACK
6
CONTINUOUS
10
6.5868374015748028
20
-4.7764920078740154
11
6.5836442519685034
21
-4.7743584251968505
0
LINE
8
BLACK
6
CONTINUOUS
10
6.5836442519685034
20
-4.7743584251968505
11
6.5815106692913385
21
-4.7711652755905511
0
LINE
8
BLACK
6
CONTINUOUS
10
6.5815106692913385
20
-4.7711652755905511
11
6.5807614566929136
21
-4.7673987007874015
0
LINE
8
BLACK
6
CONTINUOUS
10
6.5807614566929136
20
-4.7673987007874015
11
6.5807614566929136
21
-4.737871141732283
0
LINE
8
BLACK
6
CONTINUOUS
10
6.5807614566929136
20
-4.737871141732283
11
6.5815106692913385
21
-4.7341045669291342
0
LINE
8
BLACK
6
CONTINUOUS
10
6.5815106692913385
20
-4.7341045669291342
11
6.5836442519685034
21
-4.7309114173228348
0
LINE
8
BLACK
6
CONTINUOUS
10
6.5836442519685034
20
-4.7309114173228348
11
6.5868374015748028
21
-4.728777834645669
0
LINE
8
BLACK
6
CONTINUOUS
10
6.5868374015748028
20
-4.728777834645669
11
6.5906039763779525
21
-4.7280286220472441
0
LINE
8
BLACK
6
CONTINUOUS
10
6.5906039763779525
20
-4.7280286220472441
11
6.6398165748031497
21
-4.7280286220472441
0
LINE
8
BLACK
6
CONTINUOUS
10
6.6398165748031497
20
-4.7280286220472441
11
6.6435831496062994
21
-4.728777834645669
0
LINE
8
BLACK
6
CONTINUOUS
10
5.8561815748031494
20
-4.6185416141732283
11
5.8593747244094487
21
-4.6206751968503932
0
LINE
8
BLACK
6
CONTINUOUS
10
5.8593747244094487
20
-4.6206751968503932
11
5.8615083070866136
21
-4.6238683464566925
0
LINE
8
BLACK
6
CONTINUOUS
10
5.8615083070866136
20
-4.6238683464566925
11
5.8622575196850395
21
-4.6276349212598422
0
LINE
8
BLACK
6
CONTINUOUS
10
5.8622575196850395
20
-4.6276349212598422
11
5.8622575196850395
21
-4.6571624803149607
0
LINE
8
BLACK
6
CONTINUOUS
10
5.8622575196850395
20
-4.6571624803149607
11
5.8615083070866136
21
-4.6609290551181104
0
LINE
8
BLACK
6
CONTINUOUS
10
5.8615083070866136
20
-4.6609290551181104
11
5.8593747244094487
21
-4.6641222047244097
0
LINE
8
BLACK
6
CONTINUOUS
10
5.8593747244094487
20
-4.6641222047244097
11
5.8561815748031494
21
-4.6662557874015747
0
LINE
8
BLACK
6
CONTINUOUS
10
5.8561815748031494
20
-4.6662557874015747
11
5.8524149999999997
21
-4.6670049999999996
0
LINE
8
BLACK
6
CONTINUOUS
10
5.8524149999999997
20
-4.6670049999999996
11
5.8032024015748034
21
-4.6670049999999996
0
LINE
8
BLACK
6
CONTINUOUS
10
5.8032024015748034
20
-4.6670049999999996
11
5.7994358267716537
21
-4.6662557874015747
0
LINE
8
BLACK
6
CONTINUOUS
10
5.7994358267716537
20
-4.6662557874015747
11
5.7962426771653544
21
-4.6641222047244097
0
LINE
8
BLACK
6
CONTINUOUS
10
5.7962426771653544
20
-4.6641222047244097
11
5.7941090944881886
21
-4.6609290551181104
0
LINE
8
BLACK
6
CONTINUOUS
10
5.7941090944881886
20
-4.6609290551181104
11
5.7933598818897636
21
-4.6571624803149607
0
LINE
8
BLACK
6
CONTINUOUS
10
5.7933598818897636
20
-4.6571624803149607
11
5.7933598818897636
21
-4.6276349212598422
0
LINE
8
BLACK
6
CONTINUOUS
10
5.7933598818897636
20
-4.6276349212598422
11
5.7941090944881886
21
-4.6238683464566925
0
LINE
8
BLACK
6
CONTINUOUS
10
5.7941090944881886
20
-4.6238683464566925
11
5.7962426771653544
21
-4.6206751968503932
0
LINE
8
BLACK
6
CONTINUOUS
10
5.7962426771653544
20
-4.6206751968503932
11
5.7994358267716537
21
-4.6185416141732283
0
LINE
8
BLACK
6
CONTINUOUS
10
5.7994358267716537
20
-4.6185416141732283
11
5.8032024015748034
21
-4.6177924015748033
0
LINE
8
BLACK
6
CONTINUOUS
10
5.8032024015748034
20
-4.6177924015748033
11
5.8524149999999997
21
-4.6177924015748033
0
LINE
8
BLACK
6
CONTINUOUS
10
5.8524149999999997
20
-4.6177924015748033
11
5.8561815748031494
21
-4.6185416141732283
0
LINE
8
BLACK
6
CONTINUOUS
10
6.0530319685039364
20
-4.6185416141732283
11
6.0562251181102358
21
-4.6206751968503932
0
LINE
8
BLACK
6
CONTINUOUS
10
6.0562251181102358
20
-4.6206751968503932
11
6.0583587007874016
21
-4.6238683464566925
0
LINE
8
BLACK
6
CONTINUOUS
10
6.0583587007874016
20
-4.6238683464566925
11
6.0591079133858265
21
-4.6276349212598422
0
LINE
8
BLACK
6
CONTINUOUS
10
6.0591079133858265
20
-4.6276349212598422
11
6.0591079133858265
21
-4.6571624803149607
0
LINE
8
BLACK
6
CONTINUOUS
10
6.0591079133858265
20
-4.6571624803149607
11
6.0583587007874016
21
-4.6609290551181104
0
LINE
8
BLACK
6
CONTINUOUS
10
6.0583587007874016
20
-4.6609290551181104
11
6.0562251181102358
21
-4.6641222047244097
0
LINE
8
BLACK
6
CONTINUOUS
10
6.0562251181102358
20
-4.6641222047244097
11
6.0530319685039364
21
-4.6662557874015747
0
LINE
8
BLACK
6
CONTINUOUS
10
6.0530319685039364
20
-4.6662557874015747
11
6.0492653937007876
21
-4.6670049999999996
0
LINE
8
BLACK
6
CONTINUOUS
10
6.0492653937007876
20
-4.6670049999999996
11
6.0000527952755904
21
-4.6670049999999996
0
LINE
8
BLACK
6
CONTINUOUS
10
6.0000527952755904
20
-4.6670049999999996
11
5.9962862204724408
21
-4.6662557874015747
0
LINE
8
BLACK
6
CONTINUOUS
10
5.9962862204724408
20
-4.6662557874015747
11
5.9930930708661414
21
-4.6641222047244097
0
LINE
8
BLACK
6
CONTINUOUS
10
5.9930930708661414
20
-4.6641222047244097
11
5.9909594881889765
21
-4.6609290551181104
0
LINE
8
BLACK
6
CONTINUOUS
10
5.9909594881889765
20
-4.6609290551181104
11
5.9902102755905506
21
-4.6571624803149607
0
LINE
8
BLACK
6
CONTINUOUS
10
5.9902102755905506
20
-4.6571624803149607
11
5.9902102755905506
21
-4.6276349212598422
0
LINE
8
BLACK
6
CONTINUOUS
10
5.9902102755905506
20
-4.6276349212598422
11
5.9909594881889765
21
-4.6238683464566925
0
LINE
8
BLACK
6
CONTINUOUS
10
5.9909594881889765
20
-4.6238683464566925
11
5.9930930708661414
21
-4.6206751968503932
0
LINE
8
BLACK
6
CONTINUOUS
10
5.9930930708661414
20
-4.6206751968503932
11
5.9962862204724408
21
-4.6185416141732283
0
LINE
8
BLACK
6
CONTINUOUS
10
5.9962862204724408
20
-4.6185416141732283
11
6.0000527952755904
21
-4.6177924015748033
0
LINE
8
BLACK
6
CONTINUOUS
10
6.0000527952755904
20
-4.6177924015748033
11
6.0492653937007876
21
-4.6177924015748033
0
LINE
8
BLACK
6
CONTINUOUS
10
6.0492653937007876
20
-4.6177924015748033
11
6.0530319685039364
21
-4.6185416141732283
0
LINE
8
BLACK
6
CONTINUOUS
10
6.2498823622047244
20
-4.6185416141732283
11
6.2530755118110237
21
-4.6206751968503932
0
LINE
8
BLACK
6
CONTINUOUS
10
6.2530755118110237
20
-4.6206751968503932
11
6.2552090944881886
21
-4.6238683464566925
0
LINE
8
BLACK
6
CONTINUOUS
10
6.2552090944881886
20
-4.6238683464566925
11
6.2559583070866136
21
-4.6276349212598422
0
LINE
8
BLACK
6
CONTINUOUS
10
6.2559583070866136
20
-4.6276349212598422
11
6.2559583070866136
21
-4.6571624803149607
0
LINE
8
BLACK
6
CONTINUOUS
10
6.2559583070866136
20
-4.6571624803149607
11
6.2552090944881886
21
-4.6609290551181104
0
LINE
8
BLACK
6
CONTINUOUS
10
6.2552090944881886
20
-4.6609290551181104
11
6.2530755118110237
21
-4.6641222047244097
0
LINE
8
BLACK
6
CONTINUOUS
10
6.2530755118110237
20
-4.6641222047244097
11
6.2498823622047244
21
-4.6662557874015747
0
LINE
8
BLACK
6
CONTINUOUS
10
6.2498823622047244
20
-4.6662557874015747
11
6.2461157874015747
21
-4.6670049999999996
0
LINE
8
BLACK
6
CONTINUOUS
10
6.2461157874015747
20
-4.6670049999999996
11
6.1969031889763775
21
-4.6670049999999996
0
LINE
8
BLACK
6
CONTINUOUS
10
6.1969031889763775
20
-4.6670049999999996
11
6.1931366141732278
21
-4.6662557874015747
0
LINE
8
BLACK
6
CONTINUOUS
10
6.1931366141732278
20
-4.6662557874015747
11
6.1899434645669293
21
-4.6641222047244097
0
LINE
8
BLACK
6
CONTINUOUS
10
6.1899434645669293
20
-4.6641222047244097
11
6.1878098818897636
21
-4.6609290551181104
0
LINE
8
BLACK
6
CONTINUOUS
10
6.1878098818897636
20
-4.6609290551181104
11
6.1870606692913386
21
-4.6571624803149607
0
LINE
8
BLACK
6
CONTINUOUS
10
6.1870606692913386
20
-4.6571624803149607
11
6.1870606692913386
21
-4.6276349212598422
0
LINE
8
BLACK
6
CONTINUOUS
10
6.1870606692913386
20
-4.6276349212598422
11
6.1878098818897636
21
-4.6238683464566925
0
LINE
8
BLACK
6
CONTINUOUS
10
6.1878098818897636
20
-4.6238683464566925
11
6.1899434645669293
21
-4.6206751968503932
0
LINE
8
BLACK
6
CONTINUOUS
10
6.1899434645669293
20
-4.6206751968503932
11
6.1931366141732278
21
-4.6185416141732283
0
LINE
8
BLACK
6
CONTINUOUS
10
6.1931366141732278
20
-4.6185416141732283
11
6.1969031889763775
21
-4.6177924015748033
0
LINE
8
BLACK
6
CONTINUOUS
10
6.1969031889763775
20
-4.6177924015748033
11
6.2461157874015747
21
-4.6177924015748033
0
LINE
8
BLACK
6
CONTINUOUS
10
6.2461157874015747
20
-4.6177924015748033
11
6.2498823622047244
21
-4.6185416141732283
0
LINE
8
BLACK
6
CONTINUOUS
10
6.4467327559055114
20
-4.6185416141732283
11
6.4499259055118108
21
-4.6206751968503932
0
LINE
8
BLACK
6
CONTINUOUS
10
6.4499259055118108
20
-4.6206751968503932
11
6.4520594881889766
21
-4.6238683464566925
0
LINE
8
BLACK
6
CONTINUOUS
10
6.4520594881889766
20
-4.6238683464566925
11
6.4528087007874015
21
-4.6276349212598422
0
LINE
8
BLACK
6
CONTINUOUS
10
6.4528087007874015
20
-4.6276349212598422
11
6.4528087007874015
21
-4.6571624803149607
0
LINE
8
BLACK
6
CONTINUOUS
10
6.4528087007874015
20
-4.6571624803149607
11
6.4520594881889766
21
-4.6609290551181104
0
LINE
8
BLACK
6
CONTINUOUS
10
6.4520594881889766
20
-4.6609290551181104
11
6.4499259055118108
21
-4.6641222047244097
0
LINE
8
BLACK
6
CONTINUOUS
10
6.4499259055118108
20
-4.6641222047244097
11
6.4467327559055114
21
-4.6662557874015747
0
LINE
8
BLACK
6
CONTINUOUS
10
6.4467327559055114
20
-4.6662557874015747
11
6.4429661811023617
21
-4.6670049999999996
0
LINE
8
BLACK
6
CONTINUOUS
10
6.4429661811023617
20
-4.6670049999999996
11
6.3937535826771654
21
-4.6670049999999996
0
LINE
8
BLACK
6
CONTINUOUS
10
6.3937535826771654
20
-4.6670049999999996
11
6.3899870078740157
21
-4.6662557874015747
0
LINE
8
BLACK
6
CONTINUOUS
10
6.3899870078740157
20
-4.6662557874015747
11
6.3867938582677164
21
-4.6641222047244097
0
LINE
8
BLACK
6
CONTINUOUS
10
6.3867938582677164
20
-4.6641222047244097
11
6.3846602755905506
21
-4.6609290551181104
0
LINE
8
BLACK
6
CONTINUOUS
10
6.3846602755905506
20
-4.6609290551181104
11
6.3839110629921256
21
-4.6571624803149607
0
LINE
8
BLACK
6
CONTINUOUS
10
6.3839110629921256
20
-4.6571624803149607
11
6.3839110629921256
21
-4.6276349212598422
0
LINE
8
BLACK
6
CONTINUOUS
10
6.3839110629921256
20
-4.6276349212598422
11
6.3846602755905506
21
-4.6238683464566925
0
LINE
8
BLACK
6
CONTINUOUS
10
6.3846602755905506
20
-4.6238683464566925
11
6.3867938582677164
21
-4.6206751968503932
0
LINE
8
BLACK
6
CONTINUOUS
10
6.3867938582677164
20
-4.6206751968503932
11
6.3899870078740157
21
-4.6185416141732283
0
LINE
8
BLACK
6
CONTINUOUS
10
6.3899870078740157
20
-4.6185416141732283
11
6.3937535826771654
21
-4.6177924015748033
0
LINE
8
BLACK
6
CONTINUOUS
10
6.3937535826771654
20
-4.6177924015748033
11
6.4429661811023617
21
-4.6177924015748033
0
LINE
8
BLACK
6
CONTINUOUS
10
6.4429661811023617
20
-4.6177924015748033
11
6.4467327559055114
21
-4.6185416141732283
0
LINE
8
BLACK
6
CONTINUOUS
10
6.6435831496062994
20
-4.6185416141732283
11
6.6467762992125987
21
-4.6206751968503932
0
LINE
8
BLACK
6
CONTINUOUS
10
6.6467762992125987
20
-4.6206751968503932
11
6.6489098818897636
21
-4.6238683464566925
0
LINE
8
BLACK
6
CONTINUOUS
10
6.6489098818897636
20
-4.6238683464566925
11
6.6496590944881886
21
-4.6276349212598422
0
LINE
8
BLACK
6
CONTINUOUS
10
6.6496590944881886
20
-4.6276349212598422
11
6.6496590944881886
21
-4.6571624803149607
0
LINE
8
BLACK
6
CONTINUOUS
10
6.6496590944881886
20
-4.6571624803149607
11
6.6489098818897636
21
-4.6609290551181104
0
LINE
8
BLACK
6
CONTINUOUS
10
6.6489098818897636
20
-4.6609290551181104
11
6.6467762992125987
21
-4.6641222047244097
0
LINE
8
BLACK
6
CONTINUOUS
10
6.6467762992125987
20
-4.6641222047244097
11
6.6435831496062994
21
-4.6662557874015747
0
LINE
8
BLACK
6
CONTINUOUS
10
6.6435831496062994
20
-4.6662557874015747
11
6.6398165748031497
21
-4.6670049999999996
0
LINE
8
BLACK
6
CONTINUOUS
10
6.6398165748031497
20
-4.6670049999999996
11
6.5906039763779525
21
-4.6670049999999996
0
LINE
8
BLACK
6
CONTINUOUS
10
6.5906039763779525
20
-4.6670049999999996
11
6.5868374015748028
21
-4.6662557874015747
0
LINE
8
BLACK
6
CONTINUOUS
10
6.5868374015748028
20
-4.6662557874015747
11
6.5836442519685034
21
-4.6641222047244097
0
LINE
8
BLACK
6
CONTINUOUS
10
6.5836442519685034
20
-4.6641222047244097
11
6.5815106692913385
21
-4.6609290551181104
0
LINE
8
BLACK
6
CONTINUOUS
10
6.5815106692913385
20
-4.6609290551181104
11
6.5807614566929136
21
-4.6571624803149607
0
LINE
8
BLACK
6
CONTINUOUS
10
6.5807614566929136
20
-4.6571624803149607
11
6.5807614566929136
21
-4.6276349212598422
0
LINE
8
BLACK
6
CONTINUOUS
10
6.5807614566929136
20
-4.6276349212598422
11
6.5815106692913385
21
-4.6238683464566925
0
LINE
8
BLACK
6
CONTINUOUS
10
6.5815106692913385
20
-4.6238683464566925
11
6.5836442519685034
21
-4.6206751968503932
0
LINE
8
BLACK
6
CONTINUOUS
10
6.5836442519685034
20
-4.6206751968503932
11
6.5868374015748028
21
-4.6185416141732283
0
LINE
8
BLACK
6
CONTINUOUS
10
6.5868374015748028
20
-4.6185416141732283
11
6.5906039763779525
21
-4.6177924015748033
0
LINE
8
BLACK
6
CONTINUOUS
10
6.5906039763779525
20
-4.6177924015748033
11
6.6398165748031497
21
-4.6177924015748033
0
LINE
8
BLACK
6
CONTINUOUS
10
6.6398165748031497
20
-4.6177924015748033
11
6.6435831496062994
21
-4.6185416141732283
0
LINE
8
BLACK
6
CONTINUOUS
10
6.2843441338582675
20
-4.4929892519685035
11
6.0874937401574805
21
-4.4929892519685035
0
LINE
8
BLACK
6
CONTINUOUS
10
6.0874937401574805
20
-4.4929892519685035
11
6.0874937401574805
21
-4.39456405511811
0
LINE
8
BLACK
6
CONTINUOUS
10
6.0874937401574805
20
-4.39456405511811
11
6.2843441338582675
21
-4.39456405511811
0
LINE
8
BLACK
6
CONTINUOUS
10
6.2843441338582675
20
-4.39456405511811
11
6.2843441338582675
21
-4.4929892519685035
0
LINE
8
BLACK
6
CONTINUOUS
10
7.4733205118110231
20
-4.4929892519685035
11
7.276470118110236
21
-4.4929892519685035
0
LINE
8
BLACK
6
CONTINUOUS
10
7.276470118110236
20
-4.4929892519685035
11
7.276470118110236
21
-4.39456405511811
0
LINE
8
BLACK
6
CONTINUOUS
10
7.276470118110236
20
-4.39456405511811
11
7.4733205118110231
21
-4.39456405511811
0
LINE
8
BLACK
6
CONTINUOUS
10
7.4733205118110231
20
-4.39456405511811
11
7.4733205118110231
21
-4.4929892519685035
0
LINE
8
BLACK
6
CONTINUOUS
10
6.079619724409449
20
-4.3144459448818893
11
6.0166275984251971
21
-4.3144459448818893
0
LINE
8
BLACK
6
CONTINUOUS
10
6.0166275984251971
20
-4.3144459448818893
11
6.0166275984251971
21
-4.2672018503937004
0
LINE
8
BLACK
6
CONTINUOUS
10
6.0166275984251971
20
-4.2672018503937004
11
6.079619724409449
21
-4.2672018503937004
0
LINE
8
BLACK
6
CONTINUOUS
10
6.079619724409449
20
-4.2672018503937004
11
6.079619724409449
21
-4.3144459448818893
0
LINE
8
BLACK
6
CONTINUOUS
10
5.8968508661417323
20
-4.1927069685039369
11
5.9000440157480316
21
-4.1948405511811027
0
LINE
8
BLACK
6
CONTINUOUS
10
5.9000440157480316
20
-4.1948405511811027
11
5.9021775984251965
21
-4.1980337007874011
0
LINE
8
BLACK
6
CONTINUOUS
10
5.9021775984251965
20
-4.1980337007874011
11
5.9029268110236215
21
-4.2018002755905508
0
LINE
8
BLACK
6
CONTINUOUS
10
5.9029268110236215
20
-4.2018002755905508
11
5.9029268110236215
21
-4.2372333464566925
0
LINE
8
BLACK
6
CONTINUOUS
10
5.9029268110236215
20
-4.2372333464566925
11
5.9021775984251965
21
-4.2409999212598422
0
LINE
8
BLACK
6
CONTINUOUS
10
5.9021775984251965
20
-4.2409999212598422
11
5.9000440157480316
21
-4.2441930708661415
0
LINE
8
BLACK
6
CONTINUOUS
10
5.9000440157480316
20
-4.2441930708661415
11
5.8968508661417323
21
-4.2463266535433073
0
LINE
8
BLACK
6
CONTINUOUS
10
5.8968508661417323
20
-4.2463266535433073
11
5.8930842913385826
21
-4.2470758661417323
0
LINE
8
BLACK
6
CONTINUOUS
10
5.8930842913385826
20
-4.2470758661417323
11
5.8724150000000002
21
-4.2470758661417323
0
LINE
8
BLACK
6
CONTINUOUS
10
5.8724150000000002
20
-4.2470758661417323
11
5.8686484251968505
21
-4.2463266535433073
0
LINE
8
BLACK
6
CONTINUOUS
10
5.8686484251968505
20
-4.2463266535433073
11
5.8654552755905511
21
-4.2441930708661415
0
LINE
8
BLACK
6
CONTINUOUS
10
5.8654552755905511
20
-4.2441930708661415
11
5.8633216929133853
21
-4.2409999212598422
0
LINE
8
BLACK
6
CONTINUOUS
10
5.8633216929133853
20
-4.2409999212598422
11
5.8625724803149604
21
-4.2372333464566925
0
LINE
8
BLACK
6
CONTINUOUS
10
5.8625724803149604
20
-4.2372333464566925
11
5.8625724803149604
21
-4.2018002755905508
0
LINE
8
BLACK
6
CONTINUOUS
10
5.8625724803149604
20
-4.2018002755905508
11
5.8633216929133853
21
-4.1980337007874011
0
LINE
8
BLACK
6
CONTINUOUS
10
5.8633216929133853
20
-4.1980337007874011
11
5.8654552755905511
21
-4.1948405511811027
0
LINE
8
BLACK
6
CONTINUOUS
10
5.8654552755905511
20
-4.1948405511811027
11
5.8686484251968505
21
-4.1927069685039369
0
LINE
8
BLACK
6
CONTINUOUS
10
5.8686484251968505
20
-4.1927069685039369
11
5.8724150000000002
21
-4.1919577559055119
0
LINE
8
BLACK
6
CONTINUOUS
10
5.8724150000000002
20
-4.1919577559055119
11
5.8930842913385826
21
-4.1919577559055119
0
LINE
8
BLACK
6
CONTINUOUS
10
5.8930842913385826
20
-4.1919577559055119
11
5.8968508661417323
21
-4.1927069685039369
0
LINE
8
BLACK
6
CONTINUOUS
10
5.9687012598425193
20
-4.1927069685039369
11
5.9718944094488187
21
-4.1948405511811027
0
LINE
8
BLACK
6
CONTINUOUS
10
5.9718944094488187
20
-4.1948405511811027
11
5.9740279921259845
21
-4.1980337007874011
0
LINE
8
BLACK
6
CONTINUOUS
10
5.9740279921259845
20
-4.1980337007874011
11
5.9747772047244094
21
-4.2018002755905508
0
LINE
8
BLACK
6
CONTINUOUS
10
5.9747772047244094
20
-4.2018002755905508
11
5.9747772047244094
21
-4.2372333464566925
0
LINE
8
BLACK
6
CONTINUOUS
10
5.9747772047244094
20
-4.2372333464566925
11
5.9740279921259845
21
-4.2409999212598422
0
LINE
8
BLACK
6
CONTINUOUS
10
5.9740279921259845
20
-4.2409999212598422
11
5.9718944094488187
21
-4.2441930708661415
0
LINE
8
BLACK
6
CONTINUOUS
10
5.9718944094488187
20
-4.2441930708661415
11
5.9687012598425193
21
-4.2463266535433073
0
LINE
8
BLACK
6
CONTINUOUS
10
5.9687012598425193
20
-4.2463266535433073
11
5.9649346850393696
21
-4.2470758661417323
0
LINE
8
BLACK
6
CONTINUOUS
10
5.9649346850393696
20
-4.2470758661417323
11
5.9442653937007872
21
-4.2470758661417323
0
LINE
8
BLACK
6
CONTINUOUS
10
5.9442653937007872
20
-4.2470758661417323
11
5.9404988188976375
21
-4.2463266535433073
0
LINE
8
BLACK
6
CONTINUOUS
10
5.9404988188976375
20
-4.2463266535433073
11
5.9373056692913382
21
-4.2441930708661415
0
LINE
8
BLACK
6
CONTINUOUS
10
5.9373056692913382
20
-4.2441930708661415
11
5.9351720866141733
21
-4.2409999212598422
0
LINE
8
BLACK
6
CONTINUOUS
10
5.9351720866141733
20
-4.2409999212598422
11
5.9344228740157483
21
-4.2372333464566925
0
LINE
8
BLACK
6
CONTINUOUS
10
5.9344228740157483
20
-4.2372333464566925
11
5.9344228740157483
21
-4.2018002755905508
0
LINE
8
BLACK
6
CONTINUOUS
10
5.9344228740157483
20
-4.2018002755905508
11
5.9351720866141733
21
-4.1980337007874011
0
LINE
8
BLACK
6
CONTINUOUS
10
5.9351720866141733
20
-4.1980337007874011
11
5.9373056692913382
21
-4.1948405511811027
0
LINE
8
BLACK
6
CONTINUOUS
10
5.9373056692913382
20
-4.1948405511811027
11
5.9404988188976375
21
-4.1927069685039369
0
LINE
8
BLACK
6
CONTINUOUS
10
5.9404988188976375
20
-4.1927069685039369
11
5.9442653937007872
21
-4.1919577559055119
0
LINE
8
BLACK
6
CONTINUOUS
10
5.9442653937007872
20
-4.1919577559055119
11
5.9649346850393696
21
-4.1919577559055119
0
LINE
8
BLACK
6
CONTINUOUS
10
5.9649346850393696
20
-4.1919577559055119
11
5.9687012598425193
21
-4.1927069685039369
0
LINE
8
BLACK
6
CONTINUOUS
10
6.079619724409449
20
-4.2435798031496059
11
6.0166275984251971
21
-4.2435798031496059
0
LINE
8
BLACK
6
CONTINUOUS
10
6.0166275984251971
20
-4.2435798031496059
11
6.0166275984251971
21
-4.196335708661417
0
LINE
8
BLACK
6
CONTINUOUS
10
6.0166275984251971
20
-4.196335708661417
11
6.079619724409449
21
-4.196335708661417
0
LINE
8
BLACK
6
CONTINUOUS
10
6.079619724409449
20
-4.196335708661417
11
6.079619724409449
21
-4.2435798031496059
0
LINE
8
BLACK
6
CONTINUOUS
10
6.079619724409449
20
-4.1479105118110233
11
6.0166275984251971
21
-4.1479105118110233
0
LINE
8
BLACK
6
CONTINUOUS
10
6.0166275984251971
20
-4.1479105118110233
11
6.0166275984251971
21
-4.1006664173228344
0
LINE
8
BLACK
6
CONTINUOUS
10
6.0166275984251971
20
-4.1006664173228344
11
6.079619724409449
21
-4.1006664173228344
0
LINE
8
BLACK
6
CONTINUOUS
10
6.079619724409449
20
-4.1006664173228344
11
6.079619724409449
21
-4.1479105118110233
0
LINE
8
BLACK
6
CONTINUOUS
10
5.8968508661417323
20
-3.9987069685039369
11
5.9000440157480316
21
-4.0008405511811027
0
LINE
8
BLACK
6
CONTINUOUS
10
5.9000440157480316
20
-4.0008405511811027
11
5.9021775984251965
21
-4.0040337007874012
0
LINE
8
BLACK
6
CONTINUOUS
10
5.9021775984251965
20
-4.0040337007874012
11
5.9029268110236215
21
-4.0078002755905509
0
LINE
8
BLACK
6
CONTINUOUS
10
5.9029268110236215
20
-4.0078002755905509
11
5.9029268110236215
21
-4.0432333464566925
0
LINE
8
BLACK
6
CONTINUOUS
10
5.9029268110236215
20
-4.0432333464566925
11
5.9021775984251965
21
-4.0469999212598422
0
LINE
8
BLACK
6
CONTINUOUS
10
5.9021775984251965
20
-4.0469999212598422
11
5.9000440157480316
21
-4.0501930708661416
0
LINE
8
BLACK
6
CONTINUOUS
10
5.9000440157480316
20
-4.0501930708661416
11
5.8968508661417323
21
-4.0523266535433073
0
LINE
8
BLACK
6
CONTINUOUS
10
5.8968508661417323
20
-4.0523266535433073
11
5.8930842913385826
21
-4.0530758661417323
0
LINE
8
BLACK
6
CONTINUOUS
10
5.8930842913385826
20
-4.0530758661417323
11
5.8724150000000002
21
-4.0530758661417323
0
LINE
8
BLACK
6
CONTINUOUS
10
5.8724150000000002
20
-4.0530758661417323
11
5.8686484251968505
21
-4.0523266535433073
0
LINE
8
BLACK
6
CONTINUOUS
10
5.8686484251968505
20
-4.0523266535433073
11
5.8654552755905511
21
-4.0501930708661416
0
LINE
8
BLACK
6
CONTINUOUS
10
5.8654552755905511
20
-4.0501930708661416
11
5.8633216929133853
21
-4.0469999212598422
0
LINE
8
BLACK
6
CONTINUOUS
10
5.8633216929133853
20
-4.0469999212598422
11
5.8625724803149604
21
-4.0432333464566925
0
LINE
8
BLACK
6
CONTINUOUS
10
5.8625724803149604
20
-4.0432333464566925
11
5.8625724803149604
21
-4.0078002755905509
0
LINE
8
BLACK
6
CONTINUOUS
10
5.8625724803149604
20
-4.0078002755905509
11
5.8633216929133853
21
-4.0040337007874012
0
LINE
8
BLACK
6
CONTINUOUS
10
5.8633216929133853
20
-4.0040337007874012
11
5.8654552755905511
21
-4.0008405511811027
0
LINE
8
BLACK
6
CONTINUOUS
10
5.8654552755905511
20
-4.0008405511811027
11
5.8686484251968505
21
-3.9987069685039369
0
LINE
8
BLACK
6
CONTINUOUS
10
5.8686484251968505
20
-3.9987069685039369
11
5.8724150000000002
21
-3.9979577559055115
0
LINE
8
BLACK
6
CONTINUOUS
10
5.8724150000000002
20
-3.9979577559055115
11
5.8930842913385826
21
-3.9979577559055115
0
LINE
8
BLACK
6
CONTINUOUS
10
5.8930842913385826
20
-3.9979577559055115
11
5.8968508661417323
21
-3.9987069685039369
0
LINE
8
BLACK
6
CONTINUOUS
10
5.9687012598425193
20
-3.9987069685039369
11
5.9718944094488187
21
-4.0008405511811027
0
LINE
8
BLACK
6
CONTINUOUS
10
5.9718944094488187
20
-4.0008405511811027
11
5.9740279921259845
21
-4.0040337007874012
0
LINE
8
BLACK
6
CONTINUOUS
10
5.9740279921259845
20
-4.0040337007874012
11
5.9747772047244094
21
-4.0078002755905509
0
LINE
8
BLACK
6
CONTINUOUS
10
5.9747772047244094
20
-4.0078002755905509
11
5.9747772047244094
21
-4.0432333464566925
0
LINE
8
BLACK
6
CONTINUOUS
10
5.9747772047244094
20
-4.0432333464566925
11
5.9740279921259845
21
-4.0469999212598422
0
LINE
8
BLACK
6
CONTINUOUS
10
5.9740279921259845
20
-4.0469999212598422
11
5.9718944094488187
21
-4.0501930708661416
0
LINE
8
BLACK
6
CONTINUOUS
10
5.9718944094488187
20
-4.0501930708661416
11
5.9687012598425193
21
-4.0523266535433073
0
LINE
8
BLACK
6
CONTINUOUS
10
5.9687012598425193
20
-4.0523266535433073
11
5.9649346850393696
21
-4.0530758661417323
0
LINE
8
BLACK
6
CONTINUOUS
10
5.9649346850393696
20
-4.0530758661417323
11
5.9442653937007872
21
-4.0530758661417323
0
LINE
8
BLACK
6
CONTINUOUS
10
5.9442653937007872
20
-4.0530758661417323
11
5.9404988188976375
21
-4.0523266535433073
0
LINE
8
BLACK
6
CONTINUOUS
10
5.9404988188976375
20
-4.0523266535433073
11
5.9373056692913382
21
-4.0501930708661416
0
LINE
8
BLACK
6
CONTINUOUS
10
5.9373056692913382
20
-4.0501930708661416
11
5.9351720866141733
21
-4.0469999212598422
0
LINE
8
BLACK
6
CONTINUOUS
10
5.9351720866141733
20
-4.0469999212598422
11
5.9344228740157483
21
-4.0432333464566925
0
LINE
8
BLACK
6
CONTINUOUS
10
5.9344228740157483
20
-4.0432333464566925
11
5.9344228740157483
21
-4.0078002755905509
0
LINE
8
BLACK
6
CONTINUOUS
10
5.9344228740157483
20
-4.0078002755905509
11
5.9351720866141733
21
-4.0040337007874012
0
LINE
8
BLACK
6
CONTINUOUS
10
5.9351720866141733
20
-4.0040337007874012
11
5.9373056692913382
21
-4.0008405511811027
0
LINE
8
BLACK
6
CONTINUOUS
10
5.9373056692913382
20
-4.0008405511811027
11
5.9404988188976375
21
-3.9987069685039369
0
LINE
8
BLACK
6
CONTINUOUS
10
5.9404988188976375
20
-3.9987069685039369
11
5.9442653937007872
21
-3.9979577559055115
0
LINE
8
BLACK
6
CONTINUOUS
10
5.9442653937007872
20
-3.9979577559055115
11
5.9649346850393696
21
-3.9979577559055115
0
LINE
8
BLACK
6
CONTINUOUS
10
5.9649346850393696
20
-3.9979577559055115
11
5.9687012598425193
21
-3.9987069685039369
0
LINE
8
BLACK
6
CONTINUOUS
10
6.079619724409449
20
-4.0494853149606298
11
6.0166275984251971
21
-4.0494853149606298
0
LINE
8
BLACK
6
CONTINUOUS
10
6.0166275984251971
20
-4.0494853149606298
11
6.0166275984251971
21
-4.0022412204724409
0
LINE
8
BLACK
6
CONTINUOUS
10
6.0166275984251971
20
-4.0022412204724409
11
6.079619724409449
21
-4.0022412204724409
0
LINE
8
BLACK
6
CONTINUOUS
10
6.079619724409449
20
-4.0022412204724409
11
6.079619724409449
21
-4.0494853149606298
0
LINE
8
BLACK
6
CONTINUOUS
10
6.079619724409449
20
-3.9510601181102363
11
6.0166275984251971
21
-3.9510601181102363
0
LINE
8
BLACK
6
CONTINUOUS
10
6.0166275984251971
20
-3.9510601181102363
11
6.0166275984251971
21
-3.9038160236220469
0
LINE
8
BLACK
6
CONTINUOUS
10
6.0166275984251971
20
-3.9038160236220469
11
6.079619724409449
21
-3.9038160236220469
0
LINE
8
BLACK
6
CONTINUOUS
10
6.079619724409449
20
-3.9038160236220469
11
6.079619724409449
21
-3.9510601181102363
0
LINE
8
BLACK
6
CONTINUOUS
10
5.8991422047244093
20
-3.897982559055118
11
5.9023353543307087
21
-3.9001161417322834
0
LINE
8
BLACK
6
CONTINUOUS
10
5.9023353543307087
20
-3.9001161417322834
11
5.9044689370078736
21
-3.9033092913385827
0
LINE
8
BLACK
6
CONTINUOUS
10
5.9044689370078736
20
-3.9033092913385827
11
5.9052181496062994
21
-3.9070758661417324
0
LINE
8
BLACK
6
CONTINUOUS
10
5.9052181496062994
20
-3.9070758661417324
11
5.9052181496062994
21
-3.9267609055118111
0
LINE
8
BLACK
6
CONTINUOUS
10
5.9052181496062994
20
-3.9267609055118111
11
5.9044689370078736
21
-3.9305274803149604
0
LINE
8
BLACK
6
CONTINUOUS
10
5.9044689370078736
20
-3.9305274803149604
11
5.9023353543307087
21
-3.9337206299212597
0
LINE
8
BLACK
6
CONTINUOUS
10
5.9023353543307087
20
-3.9337206299212597
11
5.8991422047244093
21
-3.9358542125984251
0
LINE
8
BLACK
6
CONTINUOUS
10
5.8991422047244093
20
-3.9358542125984251
11
5.8953756299212596
21
-3.9366034251968505
0
LINE
8
BLACK
6
CONTINUOUS
10
5.8953756299212596
20
-3.9366034251968505
11
5.8579740551181105
21
-3.9366034251968505
0
LINE
8
BLACK
6
CONTINUOUS
10
5.8579740551181105
20
-3.9366034251968505
11
5.8542074803149609
21
-3.9358542125984251
0
LINE
8
BLACK
6
CONTINUOUS
10
5.8542074803149609
20
-3.9358542125984251
11
5.8510143307086615
21
-3.9337206299212597
0
LINE
8
BLACK
6
CONTINUOUS
10
5.8510143307086615
20
-3.9337206299212597
11
5.8488807480314957
21
-3.9305274803149604
0
LINE
8
BLACK
6
CONTINUOUS
10
5.8488807480314957
20
-3.9305274803149604
11
5.8481315354330707
21
-3.9267609055118111
0
LINE
8
BLACK
6
CONTINUOUS
10
5.8481315354330707
20
-3.9267609055118111
11
5.8481315354330707
21
-3.9070758661417324
0
LINE
8
BLACK
6
CONTINUOUS
10
5.8481315354330707
20
-3.9070758661417324
11
5.8488807480314957
21
-3.9033092913385827
0
LINE
8
BLACK
6
CONTINUOUS
10
5.8488807480314957
20
-3.9033092913385827
11
5.8510143307086615
21
-3.9001161417322834
0
LINE
8
BLACK
6
CONTINUOUS
10
5.8510143307086615
20
-3.9001161417322834
11
5.8542074803149609
21
-3.897982559055118
0
LINE
8
BLACK
6
CONTINUOUS
10
5.8542074803149609
20
-3.897982559055118
11
5.8579740551181105
21
-3.8972333464566926
0
LINE
8
BLACK
6
CONTINUOUS
10
5.8579740551181105
20
-3.8972333464566926
11
5.8953756299212596
21
-3.8972333464566926
0
LINE
8
BLACK
6
CONTINUOUS
10
5.8953756299212596
20
-3.8972333464566926
11
5.8991422047244093
21
-3.897982559055118
0
LINE
8
BLACK
6
CONTINUOUS
10
5.9831422047244089
20
-3.897982559055118
11
5.9863353543307083
21
-3.9001161417322834
0
LINE
8
BLACK
6
CONTINUOUS
10
5.9863353543307083
20
-3.9001161417322834
11
5.9884689370078741
21
-3.9033092913385827
0
LINE
8
BLACK
6
CONTINUOUS
10
5.9884689370078741
20
-3.9033092913385827
11
5.9892181496062991
21
-3.9070758661417324
0
LINE
8
BLACK
6
CONTINUOUS
10
5.9892181496062991
20
-3.9070758661417324
11
5.9892181496062991
21
-3.9267609055118111
0
LINE
8
BLACK
6
CONTINUOUS
10
5.9892181496062991
20
-3.9267609055118111
11
5.9884689370078741
21
-3.9305274803149604
0
LINE
8
BLACK
6
CONTINUOUS
10
5.9884689370078741
20
-3.9305274803149604
11
5.9863353543307083
21
-3.9337206299212597
0
LINE
8
BLACK
6
CONTINUOUS
10
5.9863353543307083
20
-3.9337206299212597
11
5.9831422047244089
21
-3.9358542125984251
0
LINE
8
BLACK
6
CONTINUOUS
10
5.9831422047244089
20
-3.9358542125984251
11
5.9793756299212601
21
-3.9366034251968505
0
LINE
8
BLACK
6
CONTINUOUS
10
5.9793756299212601
20
-3.9366034251968505
11
5.9419740551181102
21
-3.9366034251968505
0
LINE
8
BLACK
6
CONTINUOUS
10
5.9419740551181102
20
-3.9366034251968505
11
5.9382074803149605
21
-3.9358542125984251
0
LINE
8
BLACK
6
CONTINUOUS
10
5.9382074803149605
20
-3.9358542125984251
11
5.9350143307086611
21
-3.9337206299212597
0
LINE
8
BLACK
6
CONTINUOUS
10
5.9350143307086611
20
-3.9337206299212597
11
5.9328807480314962
21
-3.9305274803149604
0
LINE
8
BLACK
6
CONTINUOUS
10
5.9328807480314962
20
-3.9305274803149604
11
5.9321315354330704
21
-3.9267609055118111
0
LINE
8
BLACK
6
CONTINUOUS
10
5.9321315354330704
20
-3.9267609055118111
11
5.9321315354330704
21
-3.9070758661417324
0
LINE
8
BLACK
6
CONTINUOUS
10
5.9321315354330704
20
-3.9070758661417324
11
5.9328807480314962
21
-3.9033092913385827
0
LINE
8
BLACK
6
CONTINUOUS
10
5.9328807480314962
20
-3.9033092913385827
11
5.9350143307086611
21
-3.9001161417322834
0
LINE
8
BLACK
6
CONTINUOUS
10
5.9350143307086611
20
-3.9001161417322834
11
5.9382074803149605
21
-3.897982559055118
0
LINE
8
BLACK
6
CONTINUOUS
10
5.9382074803149605
20
-3.897982559055118
11
5.9419740551181102
21
-3.8972333464566926
0
LINE
8
BLACK
6
CONTINUOUS
10
5.9419740551181102
20
-3.8972333464566926
11
5.9793756299212601
21
-3.8972333464566926
0
LINE
8
BLACK
6
CONTINUOUS
10
5.9793756299212601
20
-3.8972333464566926
11
5.9831422047244089
21
-3.897982559055118
0
LINE
8
BLACK
6
CONTINUOUS
10
5.8991422047244093
20
-3.823179409448819
11
5.9023353543307087
21
-3.8253129921259843
0
LINE
8
BLACK
6
CONTINUOUS
10
5.9023353543307087
20
-3.8253129921259843
11
5.9044689370078736
21
-3.8285061417322832
0
LINE
8
BLACK
6
CONTINUOUS
10
5.9044689370078736
20
-3.8285061417322832
11
5.9052181496062994
21
-3.8322727165354329
0
LINE
8
BLACK
6
CONTINUOUS
10
5.9052181496062994
20
-3.8322727165354329
11
5.9052181496062994
21
-3.8519577559055116
0
LINE
8
BLACK
6
CONTINUOUS
10
5.9052181496062994
20
-3.8519577559055116
11
5.9044689370078736
21
-3.8557243307086613
0
LINE
8
BLACK
6
CONTINUOUS
10
5.9044689370078736
20
-3.8557243307086613
11
5.9023353543307087
21
-3.8589174803149606
0
LINE
8
BLACK
6
CONTINUOUS
10
5.9023353543307087
20
-3.8589174803149606
11
5.8991422047244093
21
-3.861051062992126
0
LINE
8
BLACK
6
CONTINUOUS
10
5.8991422047244093
20
-3.861051062992126
11
5.8953756299212596
21
-3.8618002755905509
0
LINE
8
BLACK
6
CONTINUOUS
10
5.8953756299212596
20
-3.8618002755905509
11
5.8579740551181105
21
-3.8618002755905509
0
LINE
8
BLACK
6
CONTINUOUS
10
5.8579740551181105
20
-3.8618002755905509
11
5.8542074803149609
21
-3.861051062992126
0
LINE
8
BLACK
6
CONTINUOUS
10
5.8542074803149609
20
-3.861051062992126
11
5.8510143307086615
21
-3.8589174803149606
0
LINE
8
BLACK
6
CONTINUOUS
10
5.8510143307086615
20
-3.8589174803149606
11
5.8488807480314957
21
-3.8557243307086613
0
LINE
8
BLACK
6
CONTINUOUS
10
5.8488807480314957
20
-3.8557243307086613
11
5.8481315354330707
21
-3.8519577559055116
0
LINE
8
BLACK
6
CONTINUOUS
10
5.8481315354330707
20
-3.8519577559055116
11
5.8481315354330707
21
-3.8322727165354329
0
LINE
8
BLACK
6
CONTINUOUS
10
5.8481315354330707
20
-3.8322727165354329
11
5.8488807480314957
21
-3.8285061417322832
0
LINE
8
BLACK
6
CONTINUOUS
10
5.8488807480314957
20
-3.8285061417322832
11
5.8510143307086615
21
-3.8253129921259843
0
LINE
8
BLACK
6
CONTINUOUS
10
5.8510143307086615
20
-3.8253129921259843
11
5.8542074803149609
21
-3.823179409448819
0
LINE
8
BLACK
6
CONTINUOUS
10
5.8542074803149609
20
-3.823179409448819
11
5.8579740551181105
21
-3.8224301968503935
0
LINE
8
BLACK
6
CONTINUOUS
10
5.8579740551181105
20
-3.8224301968503935
11
5.8953756299212596
21
-3.8224301968503935
0
LINE
8
BLACK
6
CONTINUOUS
10
5.8953756299212596
20
-3.8224301968503935
11
5.8991422047244093
21
-3.823179409448819
0
LINE
8
BLACK
6
CONTINUOUS
10
5.9831422047244089
20
-3.823179409448819
11
5.9863353543307083
21
-3.8253129921259843
0
LINE
8
BLACK
6
CONTINUOUS
10
5.9863353543307083
20
-3.8253129921259843
11
5.9884689370078741
21
-3.8285061417322832
0
LINE
8
BLACK
6
CONTINUOUS
10
5.9884689370078741
20
-3.8285061417322832
11
5.9892181496062991
21
-3.8322727165354329
0
LINE
8
BLACK
6
CONTINUOUS
10
5.9892181496062991
20
-3.8322727165354329
11
5.9892181496062991
21
-3.8519577559055116
0
LINE
8
BLACK
6
CONTINUOUS
10
5.9892181496062991
20
-3.8519577559055116
11
5.9884689370078741
21
-3.8557243307086613
0
LINE
8
BLACK
6
CONTINUOUS
10
5.9884689370078741
20
-3.8557243307086613
11
5.9863353543307083
21
-3.8589174803149606
0
LINE
8
BLACK
6
CONTINUOUS
10
5.9863353543307083
20
-3.8589174803149606
11
5.9831422047244089
21
-3.861051062992126
0
LINE
8
BLACK
6
CONTINUOUS
10
5.9831422047244089
20
-3.861051062992126
11
5.9793756299212601
21
-3.8618002755905509
0
LINE
8
BLACK
6
CONTINUOUS
10
5.9793756299212601
20
-3.8618002755905509
11
5.9419740551181102
21
-3.8618002755905509
0
LINE
8
BLACK
6
CONTINUOUS
10
5.9419740551181102
20
-3.8618002755905509
11
5.9382074803149605
21
-3.861051062992126
0
LINE
8
BLACK
6
CONTINUOUS
10
5.9382074803149605
20
-3.861051062992126
11
5.9350143307086611
21
-3.8589174803149606
0
LINE
8
BLACK
6
CONTINUOUS
10
5.9350143307086611
20
-3.8589174803149606
11
5.9328807480314962
21
-3.8557243307086613
0
LINE
8
BLACK
6
CONTINUOUS
10
5.9328807480314962
20
-3.8557243307086613
11
5.9321315354330704
21
-3.8519577559055116
0
LINE
8
BLACK
6
CONTINUOUS
10
5.9321315354330704
20
-3.8519577559055116
11
5.9321315354330704
21
-3.8322727165354329
0
LINE
8
BLACK
6
CONTINUOUS
10
5.9321315354330704
20
-3.8322727165354329
11
5.9328807480314962
21
-3.8285061417322832
0
LINE
8
BLACK
6
CONTINUOUS
10
5.9328807480314962
20
-3.8285061417322832
11
5.9350143307086611
21
-3.8253129921259843
0
LINE
8
BLACK
6
CONTINUOUS
10
5.9350143307086611
20
-3.8253129921259843
11
5.9382074803149605
21
-3.823179409448819
0
LINE
8
BLACK
6
CONTINUOUS
10
5.9382074803149605
20
-3.823179409448819
11
5.9419740551181102
21
-3.8224301968503935
0
LINE
8
BLACK
6
CONTINUOUS
10
5.9419740551181102
20
-3.8224301968503935
11
5.9793756299212601
21
-3.8224301968503935
0
LINE
8
BLACK
6
CONTINUOUS
10
5.9793756299212601
20
-3.8224301968503935
11
5.9831422047244089
21
-3.823179409448819
0
LINE
8
BLACK
6
CONTINUOUS
10
6.079619724409449
20
-3.8526349212598423
11
6.0166275984251971
21
-3.8526349212598423
0
LINE
8
BLACK
6
CONTINUOUS
10
6.0166275984251971
20
-3.8526349212598423
11
6.0166275984251971
21
-3.8053908267716534
0
LINE
8
BLACK
6
CONTINUOUS
10
6.0166275984251971
20
-3.8053908267716534
11
6.079619724409449
21
-3.8053908267716534
0
LINE
8
BLACK
6
CONTINUOUS
10
6.079619724409449
20
-3.8053908267716534
11
6.079619724409449
21
-3.8526349212598423
0
LINE
8
BLACK
6
CONTINUOUS
10
5.8968508661417323
20
-3.7067069685039371
11
5.9000440157480316
21
-3.7088405511811025
0
LINE
8
BLACK
6
CONTINUOUS
10
5.9000440157480316
20
-3.7088405511811025
11
5.9021775984251965
21
-3.7120337007874014
0
LINE
8
BLACK
6
CONTINUOUS
10
5.9021775984251965
20
-3.7120337007874014
11
5.9029268110236215
21
-3.715800275590551
0
LINE
8
BLACK
6
CONTINUOUS
10
5.9029268110236215
20
-3.715800275590551
11
5.9029268110236215
21
-3.7512333464566927
0
LINE
8
BLACK
6
CONTINUOUS
10
5.9029268110236215
20
-3.7512333464566927
11
5.9021775984251965
21
-3.7549999212598424
0
LINE
8
BLACK
6
CONTINUOUS
10
5.9021775984251965
20
-3.7549999212598424
11
5.9000440157480316
21
-3.7581930708661417
0
LINE
8
BLACK
6
CONTINUOUS
10
5.9000440157480316
20
-3.7581930708661417
11
5.8968508661417323
21
-3.7603266535433071
0
LINE
8
BLACK
6
CONTINUOUS
10
5.8968508661417323
20
-3.7603266535433071
11
5.8930842913385826
21
-3.7610758661417321
0
LINE
8
BLACK
6
CONTINUOUS
10
5.8930842913385826
20
-3.7610758661417321
11
5.8724150000000002
21
-3.7610758661417321
0
LINE
8
BLACK
6
CONTINUOUS
10
5.8724150000000002
20
-3.7610758661417321
11
5.8686484251968505
21
-3.7603266535433071
0
LINE
8
BLACK
6
CONTINUOUS
10
5.8686484251968505
20
-3.7603266535433071
11
5.8654552755905511
21
-3.7581930708661417
0
LINE
8
BLACK
6
CONTINUOUS
10
5.8654552755905511
20
-3.7581930708661417
11
5.8633216929133853
21
-3.7549999212598424
0
LINE
8
BLACK
6
CONTINUOUS
10
5.8633216929133853
20
-3.7549999212598424
11
5.8625724803149604
21
-3.7512333464566927
0
LINE
8
BLACK
6
CONTINUOUS
10
5.8625724803149604
20
-3.7512333464566927
11
5.8625724803149604
21
-3.715800275590551
0
LINE
8
BLACK
6
CONTINUOUS
10
5.8625724803149604
20
-3.715800275590551
11
5.8633216929133853
21
-3.7120337007874014
0
LINE
8
BLACK
6
CONTINUOUS
10
5.8633216929133853
20
-3.7120337007874014
11
5.8654552755905511
21
-3.7088405511811025
0
LINE
8
BLACK
6
CONTINUOUS
10
5.8654552755905511
20
-3.7088405511811025
11
5.8686484251968505
21
-3.7067069685039371
0
LINE
8
BLACK
6
CONTINUOUS
10
5.8686484251968505
20
-3.7067069685039371
11
5.8724150000000002
21
-3.7059577559055117
0
LINE
8
BLACK
6
CONTINUOUS
10
5.8724150000000002
20
-3.7059577559055117
11
5.8930842913385826
21
-3.7059577559055117
0
LINE
8
BLACK
6
CONTINUOUS
10
5.8930842913385826
20
-3.7059577559055117
11
5.8968508661417323
21
-3.7067069685039371
0
LINE
8
BLACK
6
CONTINUOUS
10
5.9687012598425193
20
-3.7067069685039371
11
5.9718944094488187
21
-3.7088405511811025
0
LINE
8
BLACK
6
CONTINUOUS
10
5.9718944094488187
20
-3.7088405511811025
11
5.9740279921259845
21
-3.7120337007874014
0
LINE
8
BLACK
6
CONTINUOUS
10
5.9740279921259845
20
-3.7120337007874014
11
5.9747772047244094
21
-3.715800275590551
0
LINE
8
BLACK
6
CONTINUOUS
10
5.9747772047244094
20
-3.715800275590551
11
5.9747772047244094
21
-3.7512333464566927
0
LINE
8
BLACK
6
CONTINUOUS
10
5.9747772047244094
20
-3.7512333464566927
11
5.9740279921259845
21
-3.7549999212598424
0
LINE
8
BLACK
6
CONTINUOUS
10
5.9740279921259845
20
-3.7549999212598424
11
5.9718944094488187
21
-3.7581930708661417
0
LINE
8
BLACK
6
CONTINUOUS
10
5.9718944094488187
20
-3.7581930708661417
11
5.9687012598425193
21
-3.7603266535433071
0
LINE
8
BLACK
6
CONTINUOUS
10
5.9687012598425193
20
-3.7603266535433071
11
5.9649346850393696
21
-3.7610758661417321
0
LINE
8
BLACK
6
CONTINUOUS
10
5.9649346850393696
20
-3.7610758661417321
11
5.9442653937007872
21
-3.7610758661417321
0
LINE
8
BLACK
6
CONTINUOUS
10
5.9442653937007872
20
-3.7610758661417321
11
5.9404988188976375
21
-3.7603266535433071
0
LINE
8
BLACK
6
CONTINUOUS
10
5.9404988188976375
20
-3.7603266535433071
11
5.9373056692913382
21
-3.7581930708661417
0
LINE
8
BLACK
6
CONTINUOUS
10
5.9373056692913382
20
-3.7581930708661417
11
5.9351720866141733
21
-3.7549999212598424
0
LINE
8
BLACK
6
CONTINUOUS
10
5.9351720866141733
20
-3.7549999212598424
11
5.9344228740157483
21
-3.7512333464566927
0
LINE
8
BLACK
6
CONTINUOUS
10
5.9344228740157483
20
-3.7512333464566927
11
5.9344228740157483
21
-3.715800275590551
0
LINE
8
BLACK
6
CONTINUOUS
10
5.9344228740157483
20
-3.715800275590551
11
5.9351720866141733
21
-3.7120337007874014
0
LINE
8
BLACK
6
CONTINUOUS
10
5.9351720866141733
20
-3.7120337007874014
11
5.9373056692913382
21
-3.7088405511811025
0
LINE
8
BLACK
6
CONTINUOUS
10
5.9373056692913382
20
-3.7088405511811025
11
5.9404988188976375
21
-3.7067069685039371
0
LINE
8
BLACK
6
CONTINUOUS
10
5.9404988188976375
20
-3.7067069685039371
11
5.9442653937007872
21
-3.7059577559055117
0
LINE
8
BLACK
6
CONTINUOUS
10
5.9442653937007872
20
-3.7059577559055117
11
5.9649346850393696
21
-3.7059577559055117
0
LINE
8
BLACK
6
CONTINUOUS
10
5.9649346850393696
20
-3.7059577559055117
11
5.9687012598425193
21
-3.7067069685039371
0
LINE
8
BLACK
6
CONTINUOUS
10
6.079619724409449
20
-3.7542097244094488
11
6.0166275984251971
21
-3.7542097244094488
0
LINE
8
BLACK
6
CONTINUOUS
10
6.0166275984251971
20
-3.7542097244094488
11
6.0166275984251971
21
-3.7069656299212599
0
LINE
8
BLACK
6
CONTINUOUS
10
6.0166275984251971
20
-3.7069656299212599
11
6.079619724409449
21
-3.7069656299212599
0
LINE
8
BLACK
6
CONTINUOUS
10
6.079619724409449
20
-3.7069656299212599
11
6.079619724409449
21
-3.7542097244094488
0
LINE
8
BLACK
6
CONTINUOUS
10
5.8968508661417323
20
-3.6047069685039368
11
5.9000440157480316
21
-3.6068405511811021
0
LINE
8
BLACK
6
CONTINUOUS
10
5.9000440157480316
20
-3.6068405511811021
11
5.9021775984251965
21
-3.6100337007874015
0
LINE
8
BLACK
6
CONTINUOUS
10
5.9021775984251965
20
-3.6100337007874015
11
5.9029268110236215
21
-3.6138002755905512
0
LINE
8
BLACK
6
CONTINUOUS
10
5.9029268110236215
20
-3.6138002755905512
11
5.9029268110236215
21
-3.6492333464566928
0
LINE
8
BLACK
6
CONTINUOUS
10
5.9029268110236215
20
-3.6492333464566928
11
5.9021775984251965
21
-3.6529999212598425
0
LINE
8
BLACK
6
CONTINUOUS
10
5.9021775984251965
20
-3.6529999212598425
11
5.9000440157480316
21
-3.6561930708661419
0
LINE
8
BLACK
6
CONTINUOUS
10
5.9000440157480316
20
-3.6561930708661419
11
5.8968508661417323
21
-3.6583266535433072
0
LINE
8
BLACK
6
CONTINUOUS
10
5.8968508661417323
20
-3.6583266535433072
11
5.8930842913385826
21
-3.6590758661417322
0
LINE
8
BLACK
6
CONTINUOUS
10
5.8930842913385826
20
-3.6590758661417322
11
5.8724150000000002
21
-3.6590758661417322
0
LINE
8
BLACK
6
CONTINUOUS
10
5.8724150000000002
20
-3.6590758661417322
11
5.8686484251968505
21
-3.6583266535433072
0
LINE
8
BLACK
6
CONTINUOUS
10
5.8686484251968505
20
-3.6583266535433072
11
5.8654552755905511
21
-3.6561930708661419
0
LINE
8
BLACK
6
CONTINUOUS
10
5.8654552755905511
20
-3.6561930708661419
11
5.8633216929133853
21
-3.6529999212598425
0
LINE
8
BLACK
6
CONTINUOUS
10
5.8633216929133853
20
-3.6529999212598425
11
5.8625724803149604
21
-3.6492333464566928
0
LINE
8
BLACK
6
CONTINUOUS
10
5.8625724803149604
20
-3.6492333464566928
11
5.8625724803149604
21
-3.6138002755905512
0
LINE
8
BLACK
6
CONTINUOUS
10
5.8625724803149604
20
-3.6138002755905512
11
5.8633216929133853
21
-3.6100337007874015
0
LINE
8
BLACK
6
CONTINUOUS
10
5.8633216929133853
20
-3.6100337007874015
11
5.8654552755905511
21
-3.6068405511811021
0
LINE
8
BLACK
6
CONTINUOUS
10
5.8654552755905511
20
-3.6068405511811021
11
5.8686484251968505
21
-3.6047069685039368
0
LINE
8
BLACK
6
CONTINUOUS
10
5.8686484251968505
20
-3.6047069685039368
11
5.8724150000000002
21
-3.6039577559055118
0
LINE
8
BLACK
6
CONTINUOUS
10
5.8724150000000002
20
-3.6039577559055118
11
5.8930842913385826
21
-3.6039577559055118
0
LINE
8
BLACK
6
CONTINUOUS
10
5.8930842913385826
20
-3.6039577559055118
11
5.8968508661417323
21
-3.6047069685039368
0
LINE
8
BLACK
6
CONTINUOUS
10
5.9687012598425193
20
-3.6047069685039368
11
5.9718944094488187
21
-3.6068405511811021
0
LINE
8
BLACK
6
CONTINUOUS
10
5.9718944094488187
20
-3.6068405511811021
11
5.9740279921259845
21
-3.6100337007874015
0
LINE
8
BLACK
6
CONTINUOUS
10
5.9740279921259845
20
-3.6100337007874015
11
5.9747772047244094
21
-3.6138002755905512
0
LINE
8
BLACK
6
CONTINUOUS
10
5.9747772047244094
20
-3.6138002755905512
11
5.9747772047244094
21
-3.6492333464566928
0
LINE
8
BLACK
6
CONTINUOUS
10
5.9747772047244094
20
-3.6492333464566928
11
5.9740279921259845
21
-3.6529999212598425
0
LINE
8
BLACK
6
CONTINUOUS
10
5.9740279921259845
20
-3.6529999212598425
11
5.9718944094488187
21
-3.6561930708661419
0
LINE
8
BLACK
6
CONTINUOUS
10
5.9718944094488187
20
-3.6561930708661419
11
5.9687012598425193
21
-3.6583266535433072
0
LINE
8
BLACK
6
CONTINUOUS
10
5.9687012598425193
20
-3.6583266535433072
11
5.9649346850393696
21
-3.6590758661417322
0
LINE
8
BLACK
6
CONTINUOUS
10
5.9649346850393696
20
-3.6590758661417322
11
5.9442653937007872
21
-3.6590758661417322
0
LINE
8
BLACK
6
CONTINUOUS
10
5.9442653937007872
20
-3.6590758661417322
11
5.9404988188976375
21
-3.6583266535433072
0
LINE
8
BLACK
6
CONTINUOUS
10
5.9404988188976375
20
-3.6583266535433072
11
5.9373056692913382
21
-3.6561930708661419
0
LINE
8
BLACK
6
CONTINUOUS
10
5.9373056692913382
20
-3.6561930708661419
11
5.9351720866141733
21
-3.6529999212598425
0
LINE
8
BLACK
6
CONTINUOUS
10
5.9351720866141733
20
-3.6529999212598425
11
5.9344228740157483
21
-3.6492333464566928
0
LINE
8
BLACK
6
CONTINUOUS
10
5.9344228740157483
20
-3.6492333464566928
11
5.9344228740157483
21
-3.6138002755905512
0
LINE
8
BLACK
6
CONTINUOUS
10
5.9344228740157483
20
-3.6138002755905512
11
5.9351720866141733
21
-3.6100337007874015
0
LINE
8
BLACK
6
CONTINUOUS
10
5.9351720866141733
20
-3.6100337007874015
11
5.9373056692913382
21
-3.6068405511811021
0
LINE
8
BLACK
6
CONTINUOUS
10
5.9373056692913382
20
-3.6068405511811021
11
5.9404988188976375
21
-3.6047069685039368
0
LINE
8
BLACK
6
CONTINUOUS
10
5.9404988188976375
20
-3.6047069685039368
11
5.9442653937007872
21
-3.6039577559055118
0
LINE
8
BLACK
6
CONTINUOUS
10
5.9442653937007872
20
-3.6039577559055118
11
5.9649346850393696
21
-3.6039577559055118
0
LINE
8
BLACK
6
CONTINUOUS
10
5.9649346850393696
20
-3.6039577559055118
11
5.9687012598425193
21
-3.6047069685039368
0
LINE
8
BLACK
6
CONTINUOUS
10
6.079619724409449
20
-3.6557845275590553
11
6.0166275984251971
21
-3.6557845275590553
0
LINE
8
BLACK
6
CONTINUOUS
10
6.0166275984251971
20
-3.6557845275590553
11
6.0166275984251971
21
-3.6085404330708659
0
LINE
8
BLACK
6
CONTINUOUS
10
6.0166275984251971
20
-3.6085404330708659
11
6.079619724409449
21
-3.6085404330708659
0
LINE
8
BLACK
6
CONTINUOUS
10
6.079619724409449
20
-3.6085404330708659
11
6.079619724409449
21
-3.6557845275590553
0
LINE
8
BLACK
6
CONTINUOUS
10
6.079619724409449
20
-3.5573593307086613
11
6.0166275984251971
21
-3.5573593307086613
0
LINE
8
BLACK
6
CONTINUOUS
10
6.0166275984251971
20
-3.5573593307086613
11
6.0166275984251971
21
-3.5101152362204724
0
LINE
8
BLACK
6
CONTINUOUS
10
6.0166275984251971
20
-3.5101152362204724
11
6.079619724409449
21
-3.5101152362204724
0
LINE
8
BLACK
6
CONTINUOUS
10
6.079619724409449
20
-3.5101152362204724
11
6.079619724409449
21
-3.5573593307086613
0
LINE
8
BLACK
6
CONTINUOUS
10
6.2843441338582675
20
-3.2941703543307086
11
6.0874937401574805
21
-3.2941703543307086
0
LINE
8
BLACK
6
CONTINUOUS
10
6.0874937401574805
20
-3.2941703543307086
11
6.0874937401574805
21
-3.1957451574803151
0
LINE
8
BLACK
6
CONTINUOUS
10
6.0874937401574805
20
-3.1957451574803151
11
6.2843441338582675
21
-3.1957451574803151
0
LINE
8
BLACK
6
CONTINUOUS
10
6.2843441338582675
20
-3.1957451574803151
11
6.2843441338582675
21
-3.2941703543307086
0
LINE
8
BLACK
6
CONTINUOUS
10
7.2371000393700786
20
-3.2941703543307086
11
7.0402496456692916
21
-3.2941703543307086
0
LINE
8
BLACK
6
CONTINUOUS
10
7.0402496456692916
20
-3.2941703543307086
11
7.0402496456692916
21
-3.1957451574803151
0
LINE
8
BLACK
6
CONTINUOUS
10
7.0402496456692916
20
-3.1957451574803151
11
7.2371000393700786
21
-3.1957451574803151
0
LINE
8
BLACK
6
CONTINUOUS
10
7.2371000393700786
20
-3.1957451574803151
11
7.2371000393700786
21
-3.2941703543307086
0
LINE
8
BLACK
6
CONTINUOUS
10
5.4686748425196852
20
-3.2075168110236221
11
5.3985961023622044
21
-3.2075168110236221
0
LINE
8
BLACK
6
CONTINUOUS
10
5.3985961023622044
20
-3.2075168110236221
11
5.3985961023622044
21
-3.0075168110236219
0
LINE
8
BLACK
6
CONTINUOUS
10
5.3985961023622044
20
-3.0075168110236219
11
5.4686748425196852
21
-3.0075168110236219
0
LINE
8
BLACK
6
CONTINUOUS
10
5.4686748425196852
20
-3.0075168110236219
11
5.4686748425196852
21
-3.2075168110236221
0
LINE
8
BLACK
6
CONTINUOUS
10
5.8387535826771648
20
-3.2075168110236221
11
5.768674842519685
21
-3.2075168110236221
0
LINE
8
BLACK
6
CONTINUOUS
10
5.768674842519685
20
-3.2075168110236221
11
5.768674842519685
21
-3.0075168110236219
0
LINE
8
BLACK
6
CONTINUOUS
10
5.768674842519685
20
-3.0075168110236219
11
5.8387535826771648
21
-3.0075168110236219
0
LINE
8
BLACK
6
CONTINUOUS
10
5.8387535826771648
20
-3.0075168110236219
11
5.8387535826771648
21
-3.2075168110236221
0
LINE
8
BLACK
6
CONTINUOUS
10
5.6966275984251968
20
-3.1854695669291337
11
5.5407220866141733
21
-3.1854695669291337
0
LINE
8
BLACK
6
CONTINUOUS
10
5.5407220866141733
20
-3.1854695669291337
11
5.5407220866141733
21
-3.0295640551181102
0
LINE
8
BLACK
6
CONTINUOUS
10
5.5407220866141733
20
-3.0295640551181102
11
5.6966275984251968
21
-3.0295640551181102
0
LINE
8
BLACK
6
CONTINUOUS
10
5.6966275984251968
20
-3.0295640551181102
11
5.6966275984251968
21
-3.1854695669291337
0
LINE
8
BLACK
6
CONTINUOUS
10
6.6435831496062994
20
-3.1287778346456694
11
6.6467762992125987
21
-3.1309114173228347
0
LINE
8
BLACK
6
CONTINUOUS
10
6.6467762992125987
20
-3.1309114173228347
11
6.6489098818897636
21
-3.1341045669291336
0
LINE
8
BLACK
6
CONTINUOUS
10
6.6489098818897636
20
-3.1341045669291336
11
6.6496590944881886
21
-3.1378711417322833
0
LINE
8
BLACK
6
CONTINUOUS
10
6.6496590944881886
20
-3.1378711417322833
11
6.6496590944881886
21
-3.1673987007874014
0
LINE
8
BLACK
6
CONTINUOUS
10
6.6496590944881886
20
-3.1673987007874014
11
6.6489098818897636
21
-3.1711652755905511
0
LINE
8
BLACK
6
CONTINUOUS
10
6.6489098818897636
20
-3.1711652755905511
11
6.6467762992125987
21
-3.1743584251968504
0
LINE
8
BLACK
6
CONTINUOUS
10
6.6467762992125987
20
-3.1743584251968504
11
6.6435831496062994
21
-3.1764920078740158
0
LINE
8
BLACK
6
CONTINUOUS
10
6.6435831496062994
20
-3.1764920078740158
11
6.6398165748031497
21
-3.1772412204724407
0
LINE
8
BLACK
6
CONTINUOUS
10
6.6398165748031497
20
-3.1772412204724407
11
6.5906039763779525
21
-3.1772412204724407
0
LINE
8
BLACK
6
CONTINUOUS
10
6.5906039763779525
20
-3.1772412204724407
11
6.5868374015748028
21
-3.1764920078740158
0
LINE
8
BLACK
6
CONTINUOUS
10
6.5868374015748028
20
-3.1764920078740158
11
6.5836442519685034
21
-3.1743584251968504
0
LINE
8
BLACK
6
CONTINUOUS
10
6.5836442519685034
20
-3.1743584251968504
11
6.5815106692913385
21
-3.1711652755905511
0
LINE
8
BLACK
6
CONTINUOUS
10
6.5815106692913385
20
-3.1711652755905511
11
6.5807614566929136
21
-3.1673987007874014
0
LINE
8
BLACK
6
CONTINUOUS
10
6.5807614566929136
20
-3.1673987007874014
11
6.5807614566929136
21
-3.1378711417322833
0
LINE
8
BLACK
6
CONTINUOUS
10
6.5807614566929136
20
-3.1378711417322833
11
6.5815106692913385
21
-3.1341045669291336
0
LINE
8
BLACK
6
CONTINUOUS
10
6.5815106692913385
20
-3.1341045669291336
11
6.5836442519685034
21
-3.1309114173228347
0
LINE
8
BLACK
6
CONTINUOUS
10
6.5836442519685034
20
-3.1309114173228347
11
6.5868374015748028
21
-3.1287778346456694
0
LINE
8
BLACK
6
CONTINUOUS
10
6.5868374015748028
20
-3.1287778346456694
11
6.5906039763779525
21
-3.128028622047244
0
LINE
8
BLACK
6
CONTINUOUS
10
6.5906039763779525
20
-3.128028622047244
11
6.6398165748031497
21
-3.128028622047244
0
LINE
8
BLACK
6
CONTINUOUS
10
6.6398165748031497
20
-3.128028622047244
11
6.6435831496062994
21
-3.1287778346456694
0
LINE
8
BLACK
6
CONTINUOUS
10
6.6435831496062994
20
-3.0185416141732282
11
6.6467762992125987
21
-3.0206751968503935
0
LINE
8
BLACK
6
CONTINUOUS
10
6.6467762992125987
20
-3.0206751968503935
11
6.6489098818897636
21
-3.0238683464566929
0
LINE
8
BLACK
6
CONTINUOUS
10
6.6489098818897636
20
-3.0238683464566929
11
6.6496590944881886
21
-3.0276349212598426
0
LINE
8
BLACK
6
CONTINUOUS
10
6.6496590944881886
20
-3.0276349212598426
11
6.6496590944881886
21
-3.0571624803149606
0
LINE
8
BLACK
6
CONTINUOUS
10
6.6496590944881886
20
-3.0571624803149606
11
6.6489098818897636
21
-3.0609290551181103
0
LINE
8
BLACK
6
CONTINUOUS
10
6.6489098818897636
20
-3.0609290551181103
11
6.6467762992125987
21
-3.0641222047244092
0
LINE
8
BLACK
6
CONTINUOUS
10
6.6467762992125987
20
-3.0641222047244092
11
6.6435831496062994
21
-3.0662557874015746
0
LINE
8
BLACK
6
CONTINUOUS
10
6.6435831496062994
20
-3.0662557874015746
11
6.6398165748031497
21
-3.067005
0
LINE
8
BLACK
6
CONTINUOUS
10
6.6398165748031497
20
-3.067005
11
6.5906039763779525
21
-3.067005
0
LINE
8
BLACK
6
CONTINUOUS
10
6.5906039763779525
20
-3.067005
11
6.5868374015748028
21
-3.0662557874015746
0
LINE
8
BLACK
6
CONTINUOUS
10
6.5868374015748028
20
-3.0662557874015746
11
6.5836442519685034
21
-3.0641222047244092
0
LINE
8
BLACK
6
CONTINUOUS
10
6.5836442519685034
20
-3.0641222047244092
11
6.5815106692913385
21
-3.0609290551181103
0
LINE
8
BLACK
6
CONTINUOUS
10
6.5815106692913385
20
-3.0609290551181103
11
6.5807614566929136
21
-3.0571624803149606
0
LINE
8
BLACK
6
CONTINUOUS
10
6.5807614566929136
20
-3.0571624803149606
11
6.5807614566929136
21
-3.0276349212598426
0
LINE
8
BLACK
6
CONTINUOUS
10
6.5807614566929136
20
-3.0276349212598426
11
6.5815106692913385
21
-3.0238683464566929
0
LINE
8
BLACK
6
CONTINUOUS
10
6.5815106692913385
20
-3.0238683464566929
11
6.5836442519685034
21
-3.0206751968503935
0
LINE
8
BLACK
6
CONTINUOUS
10
6.5836442519685034
20
-3.0206751968503935
11
6.5868374015748028
21
-3.0185416141732282
0
LINE
8
BLACK
6
CONTINUOUS
10
6.5868374015748028
20
-3.0185416141732282
11
6.5906039763779525
21
-3.0177924015748032
0
LINE
8
BLACK
6
CONTINUOUS
10
6.5906039763779525
20
-3.0177924015748032
11
6.6398165748031497
21
-3.0177924015748032
0
LINE
8
BLACK
6
CONTINUOUS
10
6.6398165748031497
20
-3.0177924015748032
11
6.6435831496062994
21
-3.0185416141732282
  0
ENDSEC
  0
EOF
