  0
SECTION
  2
HEADER
  9
$ANGBASE
  50
0.0
  9
$ANGDIR
  70
1
  9
$MEASUREMENT
  70
0
  0
ENDSEC
  0
SECTION
  2
TABLES
  0
TABLE
  2
LTYPE
  70
4
  0
LTYPE
  5
40F
  2
CONTINUOUS
  70
0
  3
Solid line
  72
65
  73
0
  40
0.0
  0
LTYPE
  5
410
  2
DASHDOT
 70
0
  3
Dash Dot ____ _ ____ _
 72
65
 73
4
 40
2.0
 49
1.25
 49
-0.25
 49
0.25
 49
-0.25
  0
LTYPE
  5
411
  2
DASHED
 70
0
  3
Dashed __ __ __ __ __
 72
65
 73
2
 40
0.75
 49
0.5
 49
-0.25
  0
LTYPE
  5
43B
  2
DOTTED
 70
0
  3
Dotted .  .  .  .
 72
65
 73
2
 40
0.2
 49
0.0
 49
-0.2
  0
ENDTAB
  0
TABLE
  2
STYLE
  70
4
  0
STYLE
  2
KICAD
  70
0
  40
0
  41
1
  42
1
  50
0
  71
0
  3
isocp.shx
  0
STYLE
  2
KICADB
  70
0
  40
0
  41
1
  42
1
  50
0
  71
0
  3
isocp.shx
  0
STYLE
  2
KICADI
  70
0
  40
0
  41
1
  42
1
  50
15
  71
0
  3
isocp.shx
  0
STYLE
  2
KICADBI
  70
0
  40
0
  41
1
  42
1
  50
15
  71
0
  3
isocp.shx
  0
ENDTAB
  0
TABLE
  2
LAYER
  70
1
  0
LAYER
  2
BLACK
  70
0
  62
7
  6
CONTINUOUS
  0
ENDTAB
  0
ENDSEC
  0
SECTION
  2
ENTITIES
0
LINE
8
BLACK
6
CONTINUOUS
10
3.58213
20
1.98146
11
3.58275
21
1.98146
0
LINE
8
BLACK
6
CONTINUOUS
10
3.58275
20
1.98146
11
3.58326
21
1.98109
0
LINE
8
BLACK
6
CONTINUOUS
10
3.58326
20
1.98109
11
3.58385
21
1.9809
0
LINE
8
BLACK
6
CONTINUOUS
10
3.58385
20
1.9809
11
3.58422
21
1.9804
0
LINE
8
BLACK
6
CONTINUOUS
10
3.58422
20
1.9804
11
3.58472
21
1.98003
0
LINE
8
BLACK
6
CONTINUOUS
10
3.58472
20
1.98003
11
3.58491
21
1.97944
0
LINE
8
BLACK
6
CONTINUOUS
10
3.58491
20
1.97944
11
3.58528
21
1.97893
0
LINE
8
BLACK
6
CONTINUOUS
10
3.58528
20
1.97893
11
3.58528
21
1.97831
0
LINE
8
BLACK
6
CONTINUOUS
10
3.58528
20
1.97831
11
3.58547
21
1.97772
0
LINE
8
BLACK
6
CONTINUOUS
10
3.58547
20
1.97772
11
3.58547
21
-0.00228346
0
LINE
8
BLACK
6
CONTINUOUS
10
3.58547
20
-0.00228346
11
3.58528
21
-0.0028765
0
LINE
8
BLACK
6
CONTINUOUS
10
3.58528
20
-0.0028765
11
3.58528
21
-0.00350008
0
LINE
8
BLACK
6
CONTINUOUS
10
3.58528
20
-0.00350008
11
3.58491
21
-0.00400457
0
LINE
8
BLACK
6
CONTINUOUS
10
3.58491
20
-0.00400457
11
3.58472
21
-0.0045976
0
LINE
8
BLACK
6
CONTINUOUS
10
3.58472
20
-0.0045976
11
3.58422
21
-0.00496413
0
LINE
8
BLACK
6
CONTINUOUS
10
3.58422
20
-0.00496413
11
3.58385
21
-0.00546858
0
LINE
8
BLACK
6
CONTINUOUS
10
3.58385
20
-0.00546858
11
3.58326
21
-0.00566126
0
LINE
8
BLACK
6
CONTINUOUS
10
3.58326
20
-0.00566126
11
3.58275
21
-0.0060278
0
LINE
8
BLACK
6
CONTINUOUS
10
3.58275
20
-0.0060278
11
3.58213
21
-0.0060278
0
LINE
8
BLACK
6
CONTINUOUS
10
3.58213
20
-0.0060278
11
3.58154
21
-0.00622047
0
LINE
8
BLACK
6
CONTINUOUS
10
3.58154
20
-0.00622047
11
0.00153543
21
-0.00622047
0
LINE
8
BLACK
6
CONTINUOUS
10
0.00153543
20
-0.00622047
11
0.000942402
21
-0.0060278
0
LINE
8
BLACK
6
CONTINUOUS
10
0.000942402
20
-0.0060278
11
0.000318819
21
-0.0060278
0
LINE
8
BLACK
6
CONTINUOUS
10
0.000318819
20
-0.0060278
11
-0.000185669
21
-0.00566126
0
LINE
8
BLACK
6
CONTINUOUS
10
-0.000185669
20
-0.00566126
11
-0.000778701
21
-0.00546858
0
LINE
8
BLACK
6
CONTINUOUS
10
-0.000778701
20
-0.00546858
11
-0.00114524
21
-0.00496413
0
LINE
8
BLACK
6
CONTINUOUS
10
-0.00114524
20
-0.00496413
11
-0.00164969
21
-0.0045976
0
LINE
8
BLACK
6
CONTINUOUS
10
-0.00164969
20
-0.0045976
11
-0.00184236
21
-0.00400457
0
LINE
8
BLACK
6
CONTINUOUS
10
-0.00184236
20
-0.00400457
11
-0.0022089
21
-0.00350008
0
LINE
8
BLACK
6
CONTINUOUS
10
-0.0022089
20
-0.00350008
11
-0.0022089
21
-0.0028765
0
LINE
8
BLACK
6
CONTINUOUS
10
-0.0022089
20
-0.0028765
11
-0.00240157
21
-0.00228346
0
LINE
8
BLACK
6
CONTINUOUS
10
-0.00240157
20
-0.00228346
11
-0.00240157
21
1.97772
0
LINE
8
BLACK
6
CONTINUOUS
10
-0.00240157
20
1.97772
11
-0.0022089
21
1.97831
0
LINE
8
BLACK
6
CONTINUOUS
10
-0.0022089
20
1.97831
11
-0.0022089
21
1.97893
0
LINE
8
BLACK
6
CONTINUOUS
10
-0.0022089
20
1.97893
11
-0.00184236
21
1.97944
0
LINE
8
BLACK
6
CONTINUOUS
10
-0.00184236
20
1.97944
11
-0.00164969
21
1.98003
0
LINE
8
BLACK
6
CONTINUOUS
10
-0.00164969
20
1.98003
11
-0.00114524
21
1.9804
0
LINE
8
BLACK
6
CONTINUOUS
10
-0.00114524
20
1.9804
11
-0.000778701
21
1.9809
0
LINE
8
BLACK
6
CONTINUOUS
10
-0.000778701
20
1.9809
11
-0.000185669
21
1.98109
0
LINE
8
BLACK
6
CONTINUOUS
10
-0.000185669
20
1.98109
11
0.000318819
21
1.98146
0
LINE
8
BLACK
6
CONTINUOUS
10
0.000318819
20
1.98146
11
0.000942402
21
1.98146
0
LINE
8
BLACK
6
CONTINUOUS
10
0.000942402
20
1.98146
11
0.00153543
21
1.98165
0
LINE
8
BLACK
6
CONTINUOUS
10
0.00153543
20
1.98165
11
3.58154
21
1.98165
0
LINE
8
BLACK
6
CONTINUOUS
10
3.58154
20
1.98165
11
3.58213
21
1.98146
0
LINE
8
BLACK
6
CONTINUOUS
10
0.00547244
20
1.97378
11
0.00547244
21
0.00165354
0
LINE
8
BLACK
6
CONTINUOUS
10
0.00547244
20
0.00165354
11
3.5776
21
0.00165354
0
LINE
8
BLACK
6
CONTINUOUS
10
3.5776
20
0.00165354
11
3.5776
21
1.97378
0
LINE
8
BLACK
6
CONTINUOUS
10
3.5776
20
1.97378
11
0.00547244
21
1.97378
  0
ENDSEC
  0
EOF
