  0
SECTION
  2
HEADER
  9
$ANGBASE
  50
0.0
  9
$ANGDIR
  70
1
  9
$MEASUREMENT
  70
0
  0
ENDSEC
  0
SECTION
  2
TABLES
  0
TABLE
  2
LTYPE
  70
4
  0
LTYPE
  5
40F
  2
CONTINUOUS
  70
0
  3
Solid line
  72
65
  73
0
  40
0.0
  0
LTYPE
  5
410
  2
DASHDOT
 70
0
  3
Dash Dot ____ _ ____ _
 72
65
 73
4
 40
2.0
 49
1.25
 49
-0.25
 49
0.25
 49
-0.25
  0
LTYPE
  5
411
  2
DASHED
 70
0
  3
Dashed __ __ __ __ __
 72
65
 73
2
 40
0.75
 49
0.5
 49
-0.25
  0
LTYPE
  5
43B
  2
DOTTED
 70
0
  3
Dotted .  .  .  .
 72
65
 73
2
 40
0.2
 49
0.0
 49
-0.2
  0
ENDTAB
  0
TABLE
  2
STYLE
  70
4
  0
STYLE
  2
KICAD
  70
0
  40
0
  41
1
  42
1
  50
0
  71
0
  3
isocp.shx
  0
STYLE
  2
KICADB
  70
0
  40
0
  41
1
  42
1
  50
0
  71
0
  3
isocp.shx
  0
STYLE
  2
KICADI
  70
0
  40
0
  41
1
  42
1
  50
15
  71
0
  3
isocp.shx
  0
STYLE
  2
KICADBI
  70
0
  40
0
  41
1
  42
1
  50
15
  71
0
  3
isocp.shx
  0
ENDTAB
  0
TABLE
  2
LAYER
  70
1
  0
LAYER
  2
BLACK
  70
0
  62
7
  6
CONTINUOUS
  0
ENDTAB
  0
ENDSEC
  0
SECTION
  2
ENTITIES
0
LINE
8
BLACK
6
CONTINUOUS
10
1.24909
20
-2.24876
11
1.21409
21
-2.24876
0
LINE
8
BLACK
6
CONTINUOUS
10
1.21409
20
-2.24876
11
1.21409
21
-2.19376
0
LINE
8
BLACK
6
CONTINUOUS
10
1.21409
20
-2.19376
11
1.24909
21
-2.19376
0
LINE
8
BLACK
6
CONTINUOUS
10
1.24909
20
-2.19376
11
1.24909
21
-2.24876
0
LINE
8
BLACK
6
CONTINUOUS
10
1.17409
20
-2.24876
11
1.13909
21
-2.24876
0
LINE
8
BLACK
6
CONTINUOUS
10
1.13909
20
-2.24876
11
1.13909
21
-2.19376
0
LINE
8
BLACK
6
CONTINUOUS
10
1.13909
20
-2.19376
11
1.17409
21
-2.19376
0
LINE
8
BLACK
6
CONTINUOUS
10
1.17409
20
-2.19376
11
1.17409
21
-2.24876
0
LINE
8
BLACK
6
CONTINUOUS
10
1.33906
20
-2.18852
11
1.30406
21
-2.18852
0
LINE
8
BLACK
6
CONTINUOUS
10
1.30406
20
-2.18852
11
1.30406
21
-2.13352
0
LINE
8
BLACK
6
CONTINUOUS
10
1.30406
20
-2.13352
11
1.33906
21
-2.13352
0
LINE
8
BLACK
6
CONTINUOUS
10
1.33906
20
-2.13352
11
1.33906
21
-2.18852
0
LINE
8
BLACK
6
CONTINUOUS
10
1.41406
20
-2.18852
11
1.37906
21
-2.18852
0
LINE
8
BLACK
6
CONTINUOUS
10
1.37906
20
-2.18852
11
1.37906
21
-2.13352
0
LINE
8
BLACK
6
CONTINUOUS
10
1.37906
20
-2.13352
11
1.41406
21
-2.13352
0
LINE
8
BLACK
6
CONTINUOUS
10
1.41406
20
-2.13352
11
1.41406
21
-2.18852
0
LINE
8
BLACK
6
CONTINUOUS
10
1.16491
20
-2.14895
11
1.13341
21
-2.14895
0
LINE
8
BLACK
6
CONTINUOUS
10
1.13341
20
-2.14895
11
1.13341
21
-2.10955
0
LINE
8
BLACK
6
CONTINUOUS
10
1.13341
20
-2.10955
11
1.16491
21
-2.10955
0
LINE
8
BLACK
6
CONTINUOUS
10
1.16491
20
-2.10955
11
1.16491
21
-2.14895
0
LINE
8
BLACK
6
CONTINUOUS
10
1.23991
20
-2.14895
11
1.20841
21
-2.14895
0
LINE
8
BLACK
6
CONTINUOUS
10
1.20841
20
-2.14895
11
1.20841
21
-2.10955
0
LINE
8
BLACK
6
CONTINUOUS
10
1.20841
20
-2.10955
11
1.23991
21
-2.10955
0
LINE
8
BLACK
6
CONTINUOUS
10
1.23991
20
-2.10955
11
1.23991
21
-2.14895
0
LINE
8
BLACK
6
CONTINUOUS
10
1.39713
20
-2.08341
11
1.36213
21
-2.08341
0
LINE
8
BLACK
6
CONTINUOUS
10
1.36213
20
-2.08341
11
1.36213
21
-2.02841
0
LINE
8
BLACK
6
CONTINUOUS
10
1.36213
20
-2.02841
11
1.39713
21
-2.02841
0
LINE
8
BLACK
6
CONTINUOUS
10
1.39713
20
-2.02841
11
1.39713
21
-2.08341
0
LINE
8
BLACK
6
CONTINUOUS
10
1.32213
20
-2.08341
11
1.28713
21
-2.08341
0
LINE
8
BLACK
6
CONTINUOUS
10
1.28713
20
-2.08341
11
1.28713
21
-2.02841
0
LINE
8
BLACK
6
CONTINUOUS
10
1.28713
20
-2.02841
11
1.32213
21
-2.02841
0
LINE
8
BLACK
6
CONTINUOUS
10
1.32213
20
-2.02841
11
1.32213
21
-2.08341
0
LINE
8
BLACK
6
CONTINUOUS
10
1.20241
20
-2.06235
11
1.17091
21
-2.06235
0
LINE
8
BLACK
6
CONTINUOUS
10
1.17091
20
-2.06235
11
1.17091
21
-2.02295
0
LINE
8
BLACK
6
CONTINUOUS
10
1.17091
20
-2.02295
11
1.20241
21
-2.02295
0
LINE
8
BLACK
6
CONTINUOUS
10
1.20241
20
-2.02295
11
1.20241
21
-2.06235
0
LINE
8
BLACK
6
CONTINUOUS
10
1.24909
20
-1.82238
11
1.21409
21
-1.82238
0
LINE
8
BLACK
6
CONTINUOUS
10
1.21409
20
-1.82238
11
1.21409
21
-1.76738
0
LINE
8
BLACK
6
CONTINUOUS
10
1.21409
20
-1.76738
11
1.24909
21
-1.76738
0
LINE
8
BLACK
6
CONTINUOUS
10
1.24909
20
-1.76738
11
1.24909
21
-1.82238
0
LINE
8
BLACK
6
CONTINUOUS
10
1.41406
20
-1.82238
11
1.37906
21
-1.82238
0
LINE
8
BLACK
6
CONTINUOUS
10
1.37906
20
-1.82238
11
1.37906
21
-1.76738
0
LINE
8
BLACK
6
CONTINUOUS
10
1.37906
20
-1.76738
11
1.41406
21
-1.76738
0
LINE
8
BLACK
6
CONTINUOUS
10
1.41406
20
-1.76738
11
1.41406
21
-1.82238
0
LINE
8
BLACK
6
CONTINUOUS
10
1.33906
20
-1.82238
11
1.30406
21
-1.82238
0
LINE
8
BLACK
6
CONTINUOUS
10
1.30406
20
-1.82238
11
1.30406
21
-1.76738
0
LINE
8
BLACK
6
CONTINUOUS
10
1.30406
20
-1.76738
11
1.33906
21
-1.76738
0
LINE
8
BLACK
6
CONTINUOUS
10
1.33906
20
-1.76738
11
1.33906
21
-1.82238
0
LINE
8
BLACK
6
CONTINUOUS
10
1.17409
20
-1.82238
11
1.13909
21
-1.82238
0
LINE
8
BLACK
6
CONTINUOUS
10
1.13909
20
-1.82238
11
1.13909
21
-1.76738
0
LINE
8
BLACK
6
CONTINUOUS
10
1.13909
20
-1.76738
11
1.17409
21
-1.76738
0
LINE
8
BLACK
6
CONTINUOUS
10
1.17409
20
-1.76738
11
1.17409
21
-1.82238
0
LINE
8
BLACK
6
CONTINUOUS
10
1.70898
20
-1.73976
11
1.64898
21
-1.73976
0
LINE
8
BLACK
6
CONTINUOUS
10
1.64898
20
-1.73976
11
1.64898
21
-1.67976
0
LINE
8
BLACK
6
CONTINUOUS
10
1.64898
20
-1.67976
11
1.70898
21
-1.67976
0
LINE
8
BLACK
6
CONTINUOUS
10
1.70898
20
-1.67976
11
1.70898
21
-1.73976
0
LINE
8
BLACK
6
CONTINUOUS
10
1.99953
20
-1.73976
11
1.93953
21
-1.73976
0
LINE
8
BLACK
6
CONTINUOUS
10
1.93953
20
-1.73976
11
1.93953
21
-1.67976
0
LINE
8
BLACK
6
CONTINUOUS
10
1.93953
20
-1.67976
11
1.99953
21
-1.67976
0
LINE
8
BLACK
6
CONTINUOUS
10
1.99953
20
-1.67976
11
1.99953
21
-1.73976
0
LINE
8
BLACK
6
CONTINUOUS
10
1.85425
20
-1.73976
11
1.79425
21
-1.73976
0
LINE
8
BLACK
6
CONTINUOUS
10
1.79425
20
-1.73976
11
1.79425
21
-1.67976
0
LINE
8
BLACK
6
CONTINUOUS
10
1.79425
20
-1.67976
11
1.85425
21
-1.67976
0
LINE
8
BLACK
6
CONTINUOUS
10
1.85425
20
-1.67976
11
1.85425
21
-1.73976
0
LINE
8
BLACK
6
CONTINUOUS
10
1.17409
20
-1.71726
11
1.13909
21
-1.71726
0
LINE
8
BLACK
6
CONTINUOUS
10
1.13909
20
-1.71726
11
1.13909
21
-1.66226
0
LINE
8
BLACK
6
CONTINUOUS
10
1.13909
20
-1.66226
11
1.17409
21
-1.66226
0
LINE
8
BLACK
6
CONTINUOUS
10
1.17409
20
-1.66226
11
1.17409
21
-1.71726
0
LINE
8
BLACK
6
CONTINUOUS
10
1.24909
20
-1.71726
11
1.21409
21
-1.71726
0
LINE
8
BLACK
6
CONTINUOUS
10
1.21409
20
-1.71726
11
1.21409
21
-1.66226
0
LINE
8
BLACK
6
CONTINUOUS
10
1.21409
20
-1.66226
11
1.24909
21
-1.66226
0
LINE
8
BLACK
6
CONTINUOUS
10
1.24909
20
-1.66226
11
1.24909
21
-1.71726
0
LINE
8
BLACK
6
CONTINUOUS
10
1.41406
20
-1.71726
11
1.37906
21
-1.71726
0
LINE
8
BLACK
6
CONTINUOUS
10
1.37906
20
-1.71726
11
1.37906
21
-1.66226
0
LINE
8
BLACK
6
CONTINUOUS
10
1.37906
20
-1.66226
11
1.41406
21
-1.66226
0
LINE
8
BLACK
6
CONTINUOUS
10
1.41406
20
-1.66226
11
1.41406
21
-1.71726
0
LINE
8
BLACK
6
CONTINUOUS
10
1.50402
20
-1.71726
11
1.46902
21
-1.71726
0
LINE
8
BLACK
6
CONTINUOUS
10
1.46902
20
-1.71726
11
1.46902
21
-1.66226
0
LINE
8
BLACK
6
CONTINUOUS
10
1.46902
20
-1.66226
11
1.50402
21
-1.66226
0
LINE
8
BLACK
6
CONTINUOUS
10
1.50402
20
-1.66226
11
1.50402
21
-1.71726
0
LINE
8
BLACK
6
CONTINUOUS
10
1.57902
20
-1.71726
11
1.54402
21
-1.71726
0
LINE
8
BLACK
6
CONTINUOUS
10
1.54402
20
-1.71726
11
1.54402
21
-1.66226
0
LINE
8
BLACK
6
CONTINUOUS
10
1.54402
20
-1.66226
11
1.57902
21
-1.66226
0
LINE
8
BLACK
6
CONTINUOUS
10
1.57902
20
-1.66226
11
1.57902
21
-1.71726
0
LINE
8
BLACK
6
CONTINUOUS
10
1.33906
20
-1.71726
11
1.30406
21
-1.71726
0
LINE
8
BLACK
6
CONTINUOUS
10
1.30406
20
-1.71726
11
1.30406
21
-1.66226
0
LINE
8
BLACK
6
CONTINUOUS
10
1.30406
20
-1.66226
11
1.33906
21
-1.66226
0
LINE
8
BLACK
6
CONTINUOUS
10
1.33906
20
-1.66226
11
1.33906
21
-1.71726
0
LINE
8
BLACK
6
CONTINUOUS
10
1.39886
20
-1.61751
11
1.20201
21
-1.61751
0
LINE
8
BLACK
6
CONTINUOUS
10
1.20201
20
-1.61751
11
1.20201
21
-1.51908
0
LINE
8
BLACK
6
CONTINUOUS
10
1.20201
20
-1.51908
11
1.39886
21
-1.51908
0
LINE
8
BLACK
6
CONTINUOUS
10
1.39886
20
-1.51908
11
1.39886
21
-1.61751
0
LINE
8
BLACK
6
CONTINUOUS
10
2.58783
20
-1.61751
11
2.39098
21
-1.61751
0
LINE
8
BLACK
6
CONTINUOUS
10
2.39098
20
-1.61751
11
2.39098
21
-1.51908
0
LINE
8
BLACK
6
CONTINUOUS
10
2.39098
20
-1.51908
11
2.58783
21
-1.51908
0
LINE
8
BLACK
6
CONTINUOUS
10
2.58783
20
-1.51908
11
2.58783
21
-1.61751
0
LINE
8
BLACK
6
CONTINUOUS
10
4.16268
20
-1.47002
11
4.12768
21
-1.47002
0
LINE
8
BLACK
6
CONTINUOUS
10
4.12768
20
-1.47002
11
4.12768
21
-1.41502
0
LINE
8
BLACK
6
CONTINUOUS
10
4.12768
20
-1.41502
11
4.16268
21
-1.41502
0
LINE
8
BLACK
6
CONTINUOUS
10
4.16268
20
-1.41502
11
4.16268
21
-1.47002
0
LINE
8
BLACK
6
CONTINUOUS
10
4.23768
20
-1.47002
11
4.20268
21
-1.47002
0
LINE
8
BLACK
6
CONTINUOUS
10
4.20268
20
-1.47002
11
4.20268
21
-1.41502
0
LINE
8
BLACK
6
CONTINUOUS
10
4.20268
20
-1.41502
11
4.23768
21
-1.41502
0
LINE
8
BLACK
6
CONTINUOUS
10
4.23768
20
-1.41502
11
4.23768
21
-1.47002
0
LINE
8
BLACK
6
CONTINUOUS
10
4.07272
20
-1.47002
11
4.03772
21
-1.47002
0
LINE
8
BLACK
6
CONTINUOUS
10
4.03772
20
-1.47002
11
4.03772
21
-1.41502
0
LINE
8
BLACK
6
CONTINUOUS
10
4.03772
20
-1.41502
11
4.07272
21
-1.41502
0
LINE
8
BLACK
6
CONTINUOUS
10
4.07272
20
-1.41502
11
4.07272
21
-1.47002
0
LINE
8
BLACK
6
CONTINUOUS
10
3.99772
20
-1.47002
11
3.96272
21
-1.47002
0
LINE
8
BLACK
6
CONTINUOUS
10
3.96272
20
-1.47002
11
3.96272
21
-1.41502
0
LINE
8
BLACK
6
CONTINUOUS
10
3.96272
20
-1.41502
11
3.99772
21
-1.41502
0
LINE
8
BLACK
6
CONTINUOUS
10
3.99772
20
-1.41502
11
3.99772
21
-1.47002
0
LINE
8
BLACK
6
CONTINUOUS
10
1.19413
20
-1.43896
11
1.13114
21
-1.43896
0
LINE
8
BLACK
6
CONTINUOUS
10
1.13114
20
-1.43896
11
1.13114
21
-1.39172
0
LINE
8
BLACK
6
CONTINUOUS
10
1.13114
20
-1.39172
11
1.19413
21
-1.39172
0
LINE
8
BLACK
6
CONTINUOUS
10
1.19413
20
-1.39172
11
1.19413
21
-1.43896
0
LINE
8
BLACK
6
CONTINUOUS
10
1.19413
20
-1.3681
11
1.13114
21
-1.3681
0
LINE
8
BLACK
6
CONTINUOUS
10
1.13114
20
-1.3681
11
1.13114
21
-1.32085
0
LINE
8
BLACK
6
CONTINUOUS
10
1.13114
20
-1.32085
11
1.19413
21
-1.32085
0
LINE
8
BLACK
6
CONTINUOUS
10
1.19413
20
-1.32085
11
1.19413
21
-1.3681
0
LINE
8
BLACK
6
CONTINUOUS
10
4.13772
20
-1.34724
11
4.07772
21
-1.34724
0
LINE
8
BLACK
6
CONTINUOUS
10
4.07772
20
-1.34724
11
4.07772
21
-1.28724
0
LINE
8
BLACK
6
CONTINUOUS
10
4.07772
20
-1.28724
11
4.13772
21
-1.28724
0
LINE
8
BLACK
6
CONTINUOUS
10
4.13772
20
-1.28724
11
4.13772
21
-1.34724
0
LINE
8
BLACK
6
CONTINUOUS
10
4.03772
20
-1.34724
11
3.97772
21
-1.34724
0
LINE
8
BLACK
6
CONTINUOUS
10
3.97772
20
-1.34724
11
3.97772
21
-1.28724
0
LINE
8
BLACK
6
CONTINUOUS
10
3.97772
20
-1.28724
11
4.03772
21
-1.28724
0
LINE
8
BLACK
6
CONTINUOUS
10
4.03772
20
-1.28724
11
4.03772
21
-1.34724
0
LINE
8
BLACK
6
CONTINUOUS
10
4.44795
20
-1.34724
11
4.38795
21
-1.34724
0
LINE
8
BLACK
6
CONTINUOUS
10
4.38795
20
-1.34724
11
4.38795
21
-1.28724
0
LINE
8
BLACK
6
CONTINUOUS
10
4.38795
20
-1.28724
11
4.44795
21
-1.28724
0
LINE
8
BLACK
6
CONTINUOUS
10
4.44795
20
-1.28724
11
4.44795
21
-1.34724
0
LINE
8
BLACK
6
CONTINUOUS
10
4.31799
20
-1.32474
11
4.28299
21
-1.32474
0
LINE
8
BLACK
6
CONTINUOUS
10
4.28299
20
-1.32474
11
4.28299
21
-1.26974
0
LINE
8
BLACK
6
CONTINUOUS
10
4.28299
20
-1.26974
11
4.31799
21
-1.26974
0
LINE
8
BLACK
6
CONTINUOUS
10
4.31799
20
-1.26974
11
4.31799
21
-1.32474
0
LINE
8
BLACK
6
CONTINUOUS
10
4.24299
20
-1.32474
11
4.20799
21
-1.32474
0
LINE
8
BLACK
6
CONTINUOUS
10
4.20799
20
-1.32474
11
4.20799
21
-1.26974
0
LINE
8
BLACK
6
CONTINUOUS
10
4.20799
20
-1.26974
11
4.24299
21
-1.26974
0
LINE
8
BLACK
6
CONTINUOUS
10
4.24299
20
-1.26974
11
4.24299
21
-1.32474
0
LINE
8
BLACK
6
CONTINUOUS
10
1.19413
20
-1.27243
11
1.13114
21
-1.27243
0
LINE
8
BLACK
6
CONTINUOUS
10
1.13114
20
-1.27243
11
1.13114
21
-1.22519
0
LINE
8
BLACK
6
CONTINUOUS
10
1.13114
20
-1.22519
11
1.19413
21
-1.22519
0
LINE
8
BLACK
6
CONTINUOUS
10
1.19413
20
-1.22519
11
1.19413
21
-1.27243
0
LINE
8
BLACK
6
CONTINUOUS
10
4.13772
20
-1.20197
11
4.07772
21
-1.20197
0
LINE
8
BLACK
6
CONTINUOUS
10
4.07772
20
-1.20197
11
4.07772
21
-1.14197
0
LINE
8
BLACK
6
CONTINUOUS
10
4.07772
20
-1.14197
11
4.13772
21
-1.14197
0
LINE
8
BLACK
6
CONTINUOUS
10
4.13772
20
-1.14197
11
4.13772
21
-1.20197
0
LINE
8
BLACK
6
CONTINUOUS
10
4.03772
20
-1.20197
11
3.97772
21
-1.20197
0
LINE
8
BLACK
6
CONTINUOUS
10
3.97772
20
-1.20197
11
3.97772
21
-1.14197
0
LINE
8
BLACK
6
CONTINUOUS
10
3.97772
20
-1.14197
11
4.03772
21
-1.14197
0
LINE
8
BLACK
6
CONTINUOUS
10
4.03772
20
-1.14197
11
4.03772
21
-1.20197
0
LINE
8
BLACK
6
CONTINUOUS
10
4.38299
20
-1.20197
11
4.32299
21
-1.20197
0
LINE
8
BLACK
6
CONTINUOUS
10
4.32299
20
-1.20197
11
4.32299
21
-1.14197
0
LINE
8
BLACK
6
CONTINUOUS
10
4.32299
20
-1.14197
11
4.38299
21
-1.14197
0
LINE
8
BLACK
6
CONTINUOUS
10
4.38299
20
-1.14197
11
4.38299
21
-1.20197
0
LINE
8
BLACK
6
CONTINUOUS
10
4.28299
20
-1.20197
11
4.22299
21
-1.20197
0
LINE
8
BLACK
6
CONTINUOUS
10
4.22299
20
-1.20197
11
4.22299
21
-1.14197
0
LINE
8
BLACK
6
CONTINUOUS
10
4.22299
20
-1.14197
11
4.28299
21
-1.14197
0
LINE
8
BLACK
6
CONTINUOUS
10
4.28299
20
-1.14197
11
4.28299
21
-1.20197
0
LINE
8
BLACK
6
CONTINUOUS
10
1.19413
20
-1.174
11
1.13114
21
-1.174
0
LINE
8
BLACK
6
CONTINUOUS
10
1.13114
20
-1.174
11
1.13114
21
-1.12676
0
LINE
8
BLACK
6
CONTINUOUS
10
1.13114
20
-1.12676
11
1.19413
21
-1.12676
0
LINE
8
BLACK
6
CONTINUOUS
10
1.19413
20
-1.12676
11
1.19413
21
-1.174
0
LINE
8
BLACK
6
CONTINUOUS
10
4.69323
20
-1.11299
11
4.63323
21
-1.11299
0
LINE
8
BLACK
6
CONTINUOUS
10
4.63323
20
-1.11299
11
4.63323
21
-1.05299
0
LINE
8
BLACK
6
CONTINUOUS
10
4.63323
20
-1.05299
11
4.69323
21
-1.05299
0
LINE
8
BLACK
6
CONTINUOUS
10
4.69323
20
-1.05299
11
4.69323
21
-1.11299
0
LINE
8
BLACK
6
CONTINUOUS
10
4.48827
20
-1.09049
11
4.45327
21
-1.09049
0
LINE
8
BLACK
6
CONTINUOUS
10
4.45327
20
-1.09049
11
4.45327
21
-1.03549
0
LINE
8
BLACK
6
CONTINUOUS
10
4.45327
20
-1.03549
11
4.48827
21
-1.03549
0
LINE
8
BLACK
6
CONTINUOUS
10
4.48827
20
-1.03549
11
4.48827
21
-1.09049
0
LINE
8
BLACK
6
CONTINUOUS
10
4.56327
20
-1.09049
11
4.52827
21
-1.09049
0
LINE
8
BLACK
6
CONTINUOUS
10
4.52827
20
-1.09049
11
4.52827
21
-1.03549
0
LINE
8
BLACK
6
CONTINUOUS
10
4.52827
20
-1.03549
11
4.56327
21
-1.03549
0
LINE
8
BLACK
6
CONTINUOUS
10
4.56327
20
-1.03549
11
4.56327
21
-1.09049
0
LINE
8
BLACK
6
CONTINUOUS
10
1.19413
20
-1.07558
11
1.13114
21
-1.07558
0
LINE
8
BLACK
6
CONTINUOUS
10
1.13114
20
-1.07558
11
1.13114
21
-1.02833
0
LINE
8
BLACK
6
CONTINUOUS
10
1.13114
20
-1.02833
11
1.19413
21
-1.02833
0
LINE
8
BLACK
6
CONTINUOUS
10
1.19413
20
-1.02833
11
1.19413
21
-1.07558
0
LINE
8
BLACK
6
CONTINUOUS
10
4.02214
20
-1.03653
11
4.02294
21
-1.03706
0
LINE
8
BLACK
6
CONTINUOUS
10
4.02294
20
-1.03706
11
4.02347
21
-1.03786
0
LINE
8
BLACK
6
CONTINUOUS
10
4.02347
20
-1.03786
11
4.02366
21
-1.0388
0
LINE
8
BLACK
6
CONTINUOUS
10
4.02366
20
-1.0388
11
4.02366
21
-1.06636
0
LINE
8
BLACK
6
CONTINUOUS
10
4.02366
20
-1.06636
11
4.02347
21
-1.0673
0
LINE
8
BLACK
6
CONTINUOUS
10
4.02347
20
-1.0673
11
4.02294
21
-1.0681
0
LINE
8
BLACK
6
CONTINUOUS
10
4.02294
20
-1.0681
11
4.02214
21
-1.06863
0
LINE
8
BLACK
6
CONTINUOUS
10
4.02214
20
-1.06863
11
4.0212
21
-1.06882
0
LINE
8
BLACK
6
CONTINUOUS
10
4.0212
20
-1.06882
11
4.01628
21
-1.06882
0
LINE
8
BLACK
6
CONTINUOUS
10
4.01628
20
-1.06882
11
4.01534
21
-1.06863
0
LINE
8
BLACK
6
CONTINUOUS
10
4.01534
20
-1.06863
11
4.01454
21
-1.0681
0
LINE
8
BLACK
6
CONTINUOUS
10
4.01454
20
-1.0681
11
4.01401
21
-1.0673
0
LINE
8
BLACK
6
CONTINUOUS
10
4.01401
20
-1.0673
11
4.01382
21
-1.06636
0
LINE
8
BLACK
6
CONTINUOUS
10
4.01382
20
-1.06636
11
4.01382
21
-1.0388
0
LINE
8
BLACK
6
CONTINUOUS
10
4.01382
20
-1.0388
11
4.01401
21
-1.03786
0
LINE
8
BLACK
6
CONTINUOUS
10
4.01401
20
-1.03786
11
4.01454
21
-1.03706
0
LINE
8
BLACK
6
CONTINUOUS
10
4.01454
20
-1.03706
11
4.01534
21
-1.03653
0
LINE
8
BLACK
6
CONTINUOUS
10
4.01534
20
-1.03653
11
4.01628
21
-1.03634
0
LINE
8
BLACK
6
CONTINUOUS
10
4.01628
20
-1.03634
11
4.0212
21
-1.03634
0
LINE
8
BLACK
6
CONTINUOUS
10
4.0212
20
-1.03634
11
4.02214
21
-1.03653
0
LINE
8
BLACK
6
CONTINUOUS
10
4.04183
20
-1.03653
11
4.04263
21
-1.03706
0
LINE
8
BLACK
6
CONTINUOUS
10
4.04263
20
-1.03706
11
4.04316
21
-1.03786
0
LINE
8
BLACK
6
CONTINUOUS
10
4.04316
20
-1.03786
11
4.04335
21
-1.0388
0
LINE
8
BLACK
6
CONTINUOUS
10
4.04335
20
-1.0388
11
4.04335
21
-1.06636
0
LINE
8
BLACK
6
CONTINUOUS
10
4.04335
20
-1.06636
11
4.04316
21
-1.0673
0
LINE
8
BLACK
6
CONTINUOUS
10
4.04316
20
-1.0673
11
4.04263
21
-1.0681
0
LINE
8
BLACK
6
CONTINUOUS
10
4.04263
20
-1.0681
11
4.04183
21
-1.06863
0
LINE
8
BLACK
6
CONTINUOUS
10
4.04183
20
-1.06863
11
4.04089
21
-1.06882
0
LINE
8
BLACK
6
CONTINUOUS
10
4.04089
20
-1.06882
11
4.03596
21
-1.06882
0
LINE
8
BLACK
6
CONTINUOUS
10
4.03596
20
-1.06882
11
4.03502
21
-1.06863
0
LINE
8
BLACK
6
CONTINUOUS
10
4.03502
20
-1.06863
11
4.03422
21
-1.0681
0
LINE
8
BLACK
6
CONTINUOUS
10
4.03422
20
-1.0681
11
4.03369
21
-1.0673
0
LINE
8
BLACK
6
CONTINUOUS
10
4.03369
20
-1.0673
11
4.0335
21
-1.06636
0
LINE
8
BLACK
6
CONTINUOUS
10
4.0335
20
-1.06636
11
4.0335
21
-1.0388
0
LINE
8
BLACK
6
CONTINUOUS
10
4.0335
20
-1.0388
11
4.03369
21
-1.03786
0
LINE
8
BLACK
6
CONTINUOUS
10
4.03369
20
-1.03786
11
4.03422
21
-1.03706
0
LINE
8
BLACK
6
CONTINUOUS
10
4.03422
20
-1.03706
11
4.03502
21
-1.03653
0
LINE
8
BLACK
6
CONTINUOUS
10
4.03502
20
-1.03653
11
4.03596
21
-1.03634
0
LINE
8
BLACK
6
CONTINUOUS
10
4.03596
20
-1.03634
11
4.04089
21
-1.03634
0
LINE
8
BLACK
6
CONTINUOUS
10
4.04089
20
-1.03634
11
4.04183
21
-1.03653
0
LINE
8
BLACK
6
CONTINUOUS
10
4.06151
20
-1.03653
11
4.06231
21
-1.03706
0
LINE
8
BLACK
6
CONTINUOUS
10
4.06231
20
-1.03706
11
4.06284
21
-1.03786
0
LINE
8
BLACK
6
CONTINUOUS
10
4.06284
20
-1.03786
11
4.06303
21
-1.0388
0
LINE
8
BLACK
6
CONTINUOUS
10
4.06303
20
-1.0388
11
4.06303
21
-1.06636
0
LINE
8
BLACK
6
CONTINUOUS
10
4.06303
20
-1.06636
11
4.06284
21
-1.0673
0
LINE
8
BLACK
6
CONTINUOUS
10
4.06284
20
-1.0673
11
4.06231
21
-1.0681
0
LINE
8
BLACK
6
CONTINUOUS
10
4.06231
20
-1.0681
11
4.06151
21
-1.06863
0
LINE
8
BLACK
6
CONTINUOUS
10
4.06151
20
-1.06863
11
4.06057
21
-1.06882
0
LINE
8
BLACK
6
CONTINUOUS
10
4.06057
20
-1.06882
11
4.05565
21
-1.06882
0
LINE
8
BLACK
6
CONTINUOUS
10
4.05565
20
-1.06882
11
4.05471
21
-1.06863
0
LINE
8
BLACK
6
CONTINUOUS
10
4.05471
20
-1.06863
11
4.05391
21
-1.0681
0
LINE
8
BLACK
6
CONTINUOUS
10
4.05391
20
-1.0681
11
4.05338
21
-1.0673
0
LINE
8
BLACK
6
CONTINUOUS
10
4.05338
20
-1.0673
11
4.05319
21
-1.06636
0
LINE
8
BLACK
6
CONTINUOUS
10
4.05319
20
-1.06636
11
4.05319
21
-1.0388
0
LINE
8
BLACK
6
CONTINUOUS
10
4.05319
20
-1.0388
11
4.05338
21
-1.03786
0
LINE
8
BLACK
6
CONTINUOUS
10
4.05338
20
-1.03786
11
4.05391
21
-1.03706
0
LINE
8
BLACK
6
CONTINUOUS
10
4.05391
20
-1.03706
11
4.05471
21
-1.03653
0
LINE
8
BLACK
6
CONTINUOUS
10
4.05471
20
-1.03653
11
4.05565
21
-1.03634
0
LINE
8
BLACK
6
CONTINUOUS
10
4.05565
20
-1.03634
11
4.06057
21
-1.03634
0
LINE
8
BLACK
6
CONTINUOUS
10
4.06057
20
-1.03634
11
4.06151
21
-1.03653
0
LINE
8
BLACK
6
CONTINUOUS
10
4.0812
20
-1.03653
11
4.082
21
-1.03706
0
LINE
8
BLACK
6
CONTINUOUS
10
4.082
20
-1.03706
11
4.08253
21
-1.03786
0
LINE
8
BLACK
6
CONTINUOUS
10
4.08253
20
-1.03786
11
4.08272
21
-1.0388
0
LINE
8
BLACK
6
CONTINUOUS
10
4.08272
20
-1.0388
11
4.08272
21
-1.06636
0
LINE
8
BLACK
6
CONTINUOUS
10
4.08272
20
-1.06636
11
4.08253
21
-1.0673
0
LINE
8
BLACK
6
CONTINUOUS
10
4.08253
20
-1.0673
11
4.082
21
-1.0681
0
LINE
8
BLACK
6
CONTINUOUS
10
4.082
20
-1.0681
11
4.0812
21
-1.06863
0
LINE
8
BLACK
6
CONTINUOUS
10
4.0812
20
-1.06863
11
4.08026
21
-1.06882
0
LINE
8
BLACK
6
CONTINUOUS
10
4.08026
20
-1.06882
11
4.07533
21
-1.06882
0
LINE
8
BLACK
6
CONTINUOUS
10
4.07533
20
-1.06882
11
4.07439
21
-1.06863
0
LINE
8
BLACK
6
CONTINUOUS
10
4.07439
20
-1.06863
11
4.07359
21
-1.0681
0
LINE
8
BLACK
6
CONTINUOUS
10
4.07359
20
-1.0681
11
4.07306
21
-1.0673
0
LINE
8
BLACK
6
CONTINUOUS
10
4.07306
20
-1.0673
11
4.07287
21
-1.06636
0
LINE
8
BLACK
6
CONTINUOUS
10
4.07287
20
-1.06636
11
4.07287
21
-1.0388
0
LINE
8
BLACK
6
CONTINUOUS
10
4.07287
20
-1.0388
11
4.07306
21
-1.03786
0
LINE
8
BLACK
6
CONTINUOUS
10
4.07306
20
-1.03786
11
4.07359
21
-1.03706
0
LINE
8
BLACK
6
CONTINUOUS
10
4.07359
20
-1.03706
11
4.07439
21
-1.03653
0
LINE
8
BLACK
6
CONTINUOUS
10
4.07439
20
-1.03653
11
4.07533
21
-1.03634
0
LINE
8
BLACK
6
CONTINUOUS
10
4.07533
20
-1.03634
11
4.08026
21
-1.03634
0
LINE
8
BLACK
6
CONTINUOUS
10
4.08026
20
-1.03634
11
4.0812
21
-1.03653
0
LINE
8
BLACK
6
CONTINUOUS
10
4.10088
20
-1.03653
11
4.10168
21
-1.03706
0
LINE
8
BLACK
6
CONTINUOUS
10
4.10168
20
-1.03706
11
4.10221
21
-1.03786
0
LINE
8
BLACK
6
CONTINUOUS
10
4.10221
20
-1.03786
11
4.1024
21
-1.0388
0
LINE
8
BLACK
6
CONTINUOUS
10
4.1024
20
-1.0388
11
4.1024
21
-1.06636
0
LINE
8
BLACK
6
CONTINUOUS
10
4.1024
20
-1.06636
11
4.10221
21
-1.0673
0
LINE
8
BLACK
6
CONTINUOUS
10
4.10221
20
-1.0673
11
4.10168
21
-1.0681
0
LINE
8
BLACK
6
CONTINUOUS
10
4.10168
20
-1.0681
11
4.10088
21
-1.06863
0
LINE
8
BLACK
6
CONTINUOUS
10
4.10088
20
-1.06863
11
4.09994
21
-1.06882
0
LINE
8
BLACK
6
CONTINUOUS
10
4.09994
20
-1.06882
11
4.09502
21
-1.06882
0
LINE
8
BLACK
6
CONTINUOUS
10
4.09502
20
-1.06882
11
4.09408
21
-1.06863
0
LINE
8
BLACK
6
CONTINUOUS
10
4.09408
20
-1.06863
11
4.09328
21
-1.0681
0
LINE
8
BLACK
6
CONTINUOUS
10
4.09328
20
-1.0681
11
4.09275
21
-1.0673
0
LINE
8
BLACK
6
CONTINUOUS
10
4.09275
20
-1.0673
11
4.09256
21
-1.06636
0
LINE
8
BLACK
6
CONTINUOUS
10
4.09256
20
-1.06636
11
4.09256
21
-1.0388
0
LINE
8
BLACK
6
CONTINUOUS
10
4.09256
20
-1.0388
11
4.09275
21
-1.03786
0
LINE
8
BLACK
6
CONTINUOUS
10
4.09275
20
-1.03786
11
4.09328
21
-1.03706
0
LINE
8
BLACK
6
CONTINUOUS
10
4.09328
20
-1.03706
11
4.09408
21
-1.03653
0
LINE
8
BLACK
6
CONTINUOUS
10
4.09408
20
-1.03653
11
4.09502
21
-1.03634
0
LINE
8
BLACK
6
CONTINUOUS
10
4.09502
20
-1.03634
11
4.09994
21
-1.03634
0
LINE
8
BLACK
6
CONTINUOUS
10
4.09994
20
-1.03634
11
4.10088
21
-1.03653
0
LINE
8
BLACK
6
CONTINUOUS
10
4.29039
20
-1.06055
11
4.26677
21
-1.06055
0
LINE
8
BLACK
6
CONTINUOUS
10
4.26677
20
-1.06055
11
4.26677
21
-1.03299
0
LINE
8
BLACK
6
CONTINUOUS
10
4.26677
20
-1.03299
11
4.29039
21
-1.03299
0
LINE
8
BLACK
6
CONTINUOUS
10
4.29039
20
-1.03299
11
4.29039
21
-1.06055
0
LINE
8
BLACK
6
CONTINUOUS
10
4.23528
20
-1.06055
11
4.21165
21
-1.06055
0
LINE
8
BLACK
6
CONTINUOUS
10
4.21165
20
-1.06055
11
4.21165
21
-1.03299
0
LINE
8
BLACK
6
CONTINUOUS
10
4.21165
20
-1.03299
11
4.23528
21
-1.03299
0
LINE
8
BLACK
6
CONTINUOUS
10
4.23528
20
-1.03299
11
4.23528
21
-1.06055
0
LINE
8
BLACK
6
CONTINUOUS
10
4.10732
20
-1.02551
11
4.0089
21
-1.02551
0
LINE
8
BLACK
6
CONTINUOUS
10
4.0089
20
-1.02551
11
4.0089
21
-0.927087
0
LINE
8
BLACK
6
CONTINUOUS
10
4.0089
20
-0.927087
11
4.10732
21
-0.927087
0
LINE
8
BLACK
6
CONTINUOUS
10
4.10732
20
-0.927087
11
4.10732
21
-1.02551
0
LINE
8
BLACK
6
CONTINUOUS
10
3.99655
20
-1.01094
11
3.99735
21
-1.01147
0
LINE
8
BLACK
6
CONTINUOUS
10
3.99735
20
-1.01147
11
3.99788
21
-1.01227
0
LINE
8
BLACK
6
CONTINUOUS
10
3.99788
20
-1.01227
11
3.99807
21
-1.01321
0
LINE
8
BLACK
6
CONTINUOUS
10
3.99807
20
-1.01321
11
3.99807
21
-1.01813
0
LINE
8
BLACK
6
CONTINUOUS
10
3.99807
20
-1.01813
11
3.99788
21
-1.01907
0
LINE
8
BLACK
6
CONTINUOUS
10
3.99788
20
-1.01907
11
3.99735
21
-1.01987
0
LINE
8
BLACK
6
CONTINUOUS
10
3.99735
20
-1.01987
11
3.99655
21
-1.0204
0
LINE
8
BLACK
6
CONTINUOUS
10
3.99655
20
-1.0204
11
3.99561
21
-1.02059
0
LINE
8
BLACK
6
CONTINUOUS
10
3.99561
20
-1.02059
11
3.96805
21
-1.02059
0
LINE
8
BLACK
6
CONTINUOUS
10
3.96805
20
-1.02059
11
3.96711
21
-1.0204
0
LINE
8
BLACK
6
CONTINUOUS
10
3.96711
20
-1.0204
11
3.96631
21
-1.01987
0
LINE
8
BLACK
6
CONTINUOUS
10
3.96631
20
-1.01987
11
3.96578
21
-1.01907
0
LINE
8
BLACK
6
CONTINUOUS
10
3.96578
20
-1.01907
11
3.96559
21
-1.01813
0
LINE
8
BLACK
6
CONTINUOUS
10
3.96559
20
-1.01813
11
3.96559
21
-1.01321
0
LINE
8
BLACK
6
CONTINUOUS
10
3.96559
20
-1.01321
11
3.96578
21
-1.01227
0
LINE
8
BLACK
6
CONTINUOUS
10
3.96578
20
-1.01227
11
3.96631
21
-1.01147
0
LINE
8
BLACK
6
CONTINUOUS
10
3.96631
20
-1.01147
11
3.96711
21
-1.01094
0
LINE
8
BLACK
6
CONTINUOUS
10
3.96711
20
-1.01094
11
3.96805
21
-1.01075
0
LINE
8
BLACK
6
CONTINUOUS
10
3.96805
20
-1.01075
11
3.99561
21
-1.01075
0
LINE
8
BLACK
6
CONTINUOUS
10
3.99561
20
-1.01075
11
3.99655
21
-1.01094
0
LINE
8
BLACK
6
CONTINUOUS
10
4.14911
20
-1.01094
11
4.14991
21
-1.01147
0
LINE
8
BLACK
6
CONTINUOUS
10
4.14991
20
-1.01147
11
4.15044
21
-1.01227
0
LINE
8
BLACK
6
CONTINUOUS
10
4.15044
20
-1.01227
11
4.15063
21
-1.01321
0
LINE
8
BLACK
6
CONTINUOUS
10
4.15063
20
-1.01321
11
4.15063
21
-1.01813
0
LINE
8
BLACK
6
CONTINUOUS
10
4.15063
20
-1.01813
11
4.15044
21
-1.01907
0
LINE
8
BLACK
6
CONTINUOUS
10
4.15044
20
-1.01907
11
4.14991
21
-1.01987
0
LINE
8
BLACK
6
CONTINUOUS
10
4.14991
20
-1.01987
11
4.14911
21
-1.0204
0
LINE
8
BLACK
6
CONTINUOUS
10
4.14911
20
-1.0204
11
4.14817
21
-1.02059
0
LINE
8
BLACK
6
CONTINUOUS
10
4.14817
20
-1.02059
11
4.12061
21
-1.02059
0
LINE
8
BLACK
6
CONTINUOUS
10
4.12061
20
-1.02059
11
4.11967
21
-1.0204
0
LINE
8
BLACK
6
CONTINUOUS
10
4.11967
20
-1.0204
11
4.11887
21
-1.01987
0
LINE
8
BLACK
6
CONTINUOUS
10
4.11887
20
-1.01987
11
4.11834
21
-1.01907
0
LINE
8
BLACK
6
CONTINUOUS
10
4.11834
20
-1.01907
11
4.11815
21
-1.01813
0
LINE
8
BLACK
6
CONTINUOUS
10
4.11815
20
-1.01813
11
4.11815
21
-1.01321
0
LINE
8
BLACK
6
CONTINUOUS
10
4.11815
20
-1.01321
11
4.11834
21
-1.01227
0
LINE
8
BLACK
6
CONTINUOUS
10
4.11834
20
-1.01227
11
4.11887
21
-1.01147
0
LINE
8
BLACK
6
CONTINUOUS
10
4.11887
20
-1.01147
11
4.11967
21
-1.01094
0
LINE
8
BLACK
6
CONTINUOUS
10
4.11967
20
-1.01094
11
4.12061
21
-1.01075
0
LINE
8
BLACK
6
CONTINUOUS
10
4.12061
20
-1.01075
11
4.14817
21
-1.01075
0
LINE
8
BLACK
6
CONTINUOUS
10
4.14817
20
-1.01075
11
4.14911
21
-1.01094
0
LINE
8
BLACK
6
CONTINUOUS
10
3.99655
20
-0.99125
11
3.99735
21
-0.991784
0
LINE
8
BLACK
6
CONTINUOUS
10
3.99735
20
-0.991784
11
3.99788
21
-0.992582
0
LINE
8
BLACK
6
CONTINUOUS
10
3.99788
20
-0.992582
11
3.99807
21
-0.993524
0
LINE
8
BLACK
6
CONTINUOUS
10
3.99807
20
-0.993524
11
3.99807
21
-0.998445
0
LINE
8
BLACK
6
CONTINUOUS
10
3.99807
20
-0.998445
11
3.99788
21
-0.999387
0
LINE
8
BLACK
6
CONTINUOUS
10
3.99788
20
-0.999387
11
3.99735
21
-1.00018
0
LINE
8
BLACK
6
CONTINUOUS
10
3.99735
20
-1.00018
11
3.99655
21
-1.00072
0
LINE
8
BLACK
6
CONTINUOUS
10
3.99655
20
-1.00072
11
3.99561
21
-1.00091
0
LINE
8
BLACK
6
CONTINUOUS
10
3.99561
20
-1.00091
11
3.96805
21
-1.00091
0
LINE
8
BLACK
6
CONTINUOUS
10
3.96805
20
-1.00091
11
3.96711
21
-1.00072
0
LINE
8
BLACK
6
CONTINUOUS
10
3.96711
20
-1.00072
11
3.96631
21
-1.00018
0
LINE
8
BLACK
6
CONTINUOUS
10
3.96631
20
-1.00018
11
3.96578
21
-0.999387
0
LINE
8
BLACK
6
CONTINUOUS
10
3.96578
20
-0.999387
11
3.96559
21
-0.998445
0
LINE
8
BLACK
6
CONTINUOUS
10
3.96559
20
-0.998445
11
3.96559
21
-0.993524
0
LINE
8
BLACK
6
CONTINUOUS
10
3.96559
20
-0.993524
11
3.96578
21
-0.992582
0
LINE
8
BLACK
6
CONTINUOUS
10
3.96578
20
-0.992582
11
3.96631
21
-0.991784
0
LINE
8
BLACK
6
CONTINUOUS
10
3.96631
20
-0.991784
11
3.96711
21
-0.99125
0
LINE
8
BLACK
6
CONTINUOUS
10
3.96711
20
-0.99125
11
3.96805
21
-0.991063
0
LINE
8
BLACK
6
CONTINUOUS
10
3.96805
20
-0.991063
11
3.99561
21
-0.991063
0
LINE
8
BLACK
6
CONTINUOUS
10
3.99561
20
-0.991063
11
3.99655
21
-0.99125
0
LINE
8
BLACK
6
CONTINUOUS
10
4.14911
20
-0.99125
11
4.14991
21
-0.991784
0
LINE
8
BLACK
6
CONTINUOUS
10
4.14991
20
-0.991784
11
4.15044
21
-0.992582
0
LINE
8
BLACK
6
CONTINUOUS
10
4.15044
20
-0.992582
11
4.15063
21
-0.993524
0
LINE
8
BLACK
6
CONTINUOUS
10
4.15063
20
-0.993524
11
4.15063
21
-0.998445
0
LINE
8
BLACK
6
CONTINUOUS
10
4.15063
20
-0.998445
11
4.15044
21
-0.999387
0
LINE
8
BLACK
6
CONTINUOUS
10
4.15044
20
-0.999387
11
4.14991
21
-1.00018
0
LINE
8
BLACK
6
CONTINUOUS
10
4.14991
20
-1.00018
11
4.14911
21
-1.00072
0
LINE
8
BLACK
6
CONTINUOUS
10
4.14911
20
-1.00072
11
4.14817
21
-1.00091
0
LINE
8
BLACK
6
CONTINUOUS
10
4.14817
20
-1.00091
11
4.12061
21
-1.00091
0
LINE
8
BLACK
6
CONTINUOUS
10
4.12061
20
-1.00091
11
4.11967
21
-1.00072
0
LINE
8
BLACK
6
CONTINUOUS
10
4.11967
20
-1.00072
11
4.11887
21
-1.00018
0
LINE
8
BLACK
6
CONTINUOUS
10
4.11887
20
-1.00018
11
4.11834
21
-0.999387
0
LINE
8
BLACK
6
CONTINUOUS
10
4.11834
20
-0.999387
11
4.11815
21
-0.998445
0
LINE
8
BLACK
6
CONTINUOUS
10
4.11815
20
-0.998445
11
4.11815
21
-0.993524
0
LINE
8
BLACK
6
CONTINUOUS
10
4.11815
20
-0.993524
11
4.11834
21
-0.992582
0
LINE
8
BLACK
6
CONTINUOUS
10
4.11834
20
-0.992582
11
4.11887
21
-0.991784
0
LINE
8
BLACK
6
CONTINUOUS
10
4.11887
20
-0.991784
11
4.11967
21
-0.99125
0
LINE
8
BLACK
6
CONTINUOUS
10
4.11967
20
-0.99125
11
4.12061
21
-0.991063
0
LINE
8
BLACK
6
CONTINUOUS
10
4.12061
20
-0.991063
11
4.14817
21
-0.991063
0
LINE
8
BLACK
6
CONTINUOUS
10
4.14817
20
-0.991063
11
4.14911
21
-0.99125
0
LINE
8
BLACK
6
CONTINUOUS
10
4.55728
20
-0.879563
11
4.56623
21
-0.881961
0
LINE
8
BLACK
6
CONTINUOUS
10
4.56623
20
-0.881961
11
4.57463
21
-0.885877
0
LINE
8
BLACK
6
CONTINUOUS
10
4.57463
20
-0.885877
11
4.58222
21
-0.891191
0
LINE
8
BLACK
6
CONTINUOUS
10
4.58222
20
-0.891191
11
4.58877
21
-0.897742
0
LINE
8
BLACK
6
CONTINUOUS
10
4.58877
20
-0.897742
11
4.59408
21
-0.905331
0
LINE
8
BLACK
6
CONTINUOUS
10
4.59408
20
-0.905331
11
4.598
21
-0.913727
0
LINE
8
BLACK
6
CONTINUOUS
10
4.598
20
-0.913727
11
4.6004
21
-0.922676
0
LINE
8
BLACK
6
CONTINUOUS
10
4.6004
20
-0.922676
11
4.6012
21
-0.931906
0
LINE
8
BLACK
6
CONTINUOUS
10
4.6012
20
-0.931906
11
4.6004
21
-0.941135
0
LINE
8
BLACK
6
CONTINUOUS
10
4.6004
20
-0.941135
11
4.598
21
-0.950084
0
LINE
8
BLACK
6
CONTINUOUS
10
4.598
20
-0.950084
11
4.59408
21
-0.95848
0
LINE
8
BLACK
6
CONTINUOUS
10
4.59408
20
-0.95848
11
4.58877
21
-0.966069
0
LINE
8
BLACK
6
CONTINUOUS
10
4.58877
20
-0.966069
11
4.58222
21
-0.97262
0
LINE
8
BLACK
6
CONTINUOUS
10
4.58222
20
-0.97262
11
4.57463
21
-0.977934
0
LINE
8
BLACK
6
CONTINUOUS
10
4.57463
20
-0.977934
11
4.56623
21
-0.98185
0
LINE
8
BLACK
6
CONTINUOUS
10
4.56623
20
-0.98185
11
4.55728
21
-0.984248
0
LINE
8
BLACK
6
CONTINUOUS
10
4.55728
20
-0.984248
11
4.54806
21
-0.985055
0
LINE
8
BLACK
6
CONTINUOUS
10
4.54806
20
-0.985055
11
4.53883
21
-0.984248
0
LINE
8
BLACK
6
CONTINUOUS
10
4.53883
20
-0.984248
11
4.52988
21
-0.98185
0
LINE
8
BLACK
6
CONTINUOUS
10
4.52988
20
-0.98185
11
4.52148
21
-0.977934
0
LINE
8
BLACK
6
CONTINUOUS
10
4.52148
20
-0.977934
11
4.51389
21
-0.97262
0
LINE
8
BLACK
6
CONTINUOUS
10
4.51389
20
-0.97262
11
4.50734
21
-0.966069
0
LINE
8
BLACK
6
CONTINUOUS
10
4.50734
20
-0.966069
11
4.50203
21
-0.95848
0
LINE
8
BLACK
6
CONTINUOUS
10
4.50203
20
-0.95848
11
4.49811
21
-0.950084
0
LINE
8
BLACK
6
CONTINUOUS
10
4.49811
20
-0.950084
11
4.49571
21
-0.941135
0
LINE
8
BLACK
6
CONTINUOUS
10
4.49571
20
-0.941135
11
4.49491
21
-0.931906
0
LINE
8
BLACK
6
CONTINUOUS
10
4.49491
20
-0.931906
11
4.49571
21
-0.922676
0
LINE
8
BLACK
6
CONTINUOUS
10
4.49571
20
-0.922676
11
4.49811
21
-0.913727
0
LINE
8
BLACK
6
CONTINUOUS
10
4.49811
20
-0.913727
11
4.50203
21
-0.905331
0
LINE
8
BLACK
6
CONTINUOUS
10
4.50203
20
-0.905331
11
4.50734
21
-0.897742
0
LINE
8
BLACK
6
CONTINUOUS
10
4.50734
20
-0.897742
11
4.51389
21
-0.891191
0
LINE
8
BLACK
6
CONTINUOUS
10
4.51389
20
-0.891191
11
4.52148
21
-0.885877
0
LINE
8
BLACK
6
CONTINUOUS
10
4.52148
20
-0.885877
11
4.52988
21
-0.881961
0
LINE
8
BLACK
6
CONTINUOUS
10
4.52988
20
-0.881961
11
4.53883
21
-0.879563
0
LINE
8
BLACK
6
CONTINUOUS
10
4.53883
20
-0.879563
11
4.54806
21
-0.878756
0
LINE
8
BLACK
6
CONTINUOUS
10
4.54806
20
-0.878756
11
4.55728
21
-0.879563
0
LINE
8
BLACK
6
CONTINUOUS
10
4.14911
20
-0.971565
11
4.14991
21
-0.972099
0
LINE
8
BLACK
6
CONTINUOUS
10
4.14991
20
-0.972099
11
4.15044
21
-0.972897
0
LINE
8
BLACK
6
CONTINUOUS
10
4.15044
20
-0.972897
11
4.15063
21
-0.973839
0
LINE
8
BLACK
6
CONTINUOUS
10
4.15063
20
-0.973839
11
4.15063
21
-0.97876
0
LINE
8
BLACK
6
CONTINUOUS
10
4.15063
20
-0.97876
11
4.15044
21
-0.979701
0
LINE
8
BLACK
6
CONTINUOUS
10
4.15044
20
-0.979701
11
4.14991
21
-0.9805
0
LINE
8
BLACK
6
CONTINUOUS
10
4.14991
20
-0.9805
11
4.14911
21
-0.981033
0
LINE
8
BLACK
6
CONTINUOUS
10
4.14911
20
-0.981033
11
4.14817
21
-0.98122
0
LINE
8
BLACK
6
CONTINUOUS
10
4.14817
20
-0.98122
11
4.12061
21
-0.98122
0
LINE
8
BLACK
6
CONTINUOUS
10
4.12061
20
-0.98122
11
4.11967
21
-0.981033
0
LINE
8
BLACK
6
CONTINUOUS
10
4.11967
20
-0.981033
11
4.11887
21
-0.9805
0
LINE
8
BLACK
6
CONTINUOUS
10
4.11887
20
-0.9805
11
4.11834
21
-0.979701
0
LINE
8
BLACK
6
CONTINUOUS
10
4.11834
20
-0.979701
11
4.11815
21
-0.97876
0
LINE
8
BLACK
6
CONTINUOUS
10
4.11815
20
-0.97876
11
4.11815
21
-0.973839
0
LINE
8
BLACK
6
CONTINUOUS
10
4.11815
20
-0.973839
11
4.11834
21
-0.972897
0
LINE
8
BLACK
6
CONTINUOUS
10
4.11834
20
-0.972897
11
4.11887
21
-0.972099
0
LINE
8
BLACK
6
CONTINUOUS
10
4.11887
20
-0.972099
11
4.11967
21
-0.971565
0
LINE
8
BLACK
6
CONTINUOUS
10
4.11967
20
-0.971565
11
4.12061
21
-0.971378
0
LINE
8
BLACK
6
CONTINUOUS
10
4.12061
20
-0.971378
11
4.14817
21
-0.971378
0
LINE
8
BLACK
6
CONTINUOUS
10
4.14817
20
-0.971378
11
4.14911
21
-0.971565
0
LINE
8
BLACK
6
CONTINUOUS
10
3.99655
20
-0.971565
11
3.99735
21
-0.972099
0
LINE
8
BLACK
6
CONTINUOUS
10
3.99735
20
-0.972099
11
3.99788
21
-0.972897
0
LINE
8
BLACK
6
CONTINUOUS
10
3.99788
20
-0.972897
11
3.99807
21
-0.973839
0
LINE
8
BLACK
6
CONTINUOUS
10
3.99807
20
-0.973839
11
3.99807
21
-0.97876
0
LINE
8
BLACK
6
CONTINUOUS
10
3.99807
20
-0.97876
11
3.99788
21
-0.979701
0
LINE
8
BLACK
6
CONTINUOUS
10
3.99788
20
-0.979701
11
3.99735
21
-0.9805
0
LINE
8
BLACK
6
CONTINUOUS
10
3.99735
20
-0.9805
11
3.99655
21
-0.981033
0
LINE
8
BLACK
6
CONTINUOUS
10
3.99655
20
-0.981033
11
3.99561
21
-0.98122
0
LINE
8
BLACK
6
CONTINUOUS
10
3.99561
20
-0.98122
11
3.96805
21
-0.98122
0
LINE
8
BLACK
6
CONTINUOUS
10
3.96805
20
-0.98122
11
3.96711
21
-0.981033
0
LINE
8
BLACK
6
CONTINUOUS
10
3.96711
20
-0.981033
11
3.96631
21
-0.9805
0
LINE
8
BLACK
6
CONTINUOUS
10
3.96631
20
-0.9805
11
3.96578
21
-0.979701
0
LINE
8
BLACK
6
CONTINUOUS
10
3.96578
20
-0.979701
11
3.96559
21
-0.97876
0
LINE
8
BLACK
6
CONTINUOUS
10
3.96559
20
-0.97876
11
3.96559
21
-0.973839
0
LINE
8
BLACK
6
CONTINUOUS
10
3.96559
20
-0.973839
11
3.96578
21
-0.972897
0
LINE
8
BLACK
6
CONTINUOUS
10
3.96578
20
-0.972897
11
3.96631
21
-0.972099
0
LINE
8
BLACK
6
CONTINUOUS
10
3.96631
20
-0.972099
11
3.96711
21
-0.971565
0
LINE
8
BLACK
6
CONTINUOUS
10
3.96711
20
-0.971565
11
3.96805
21
-0.971378
0
LINE
8
BLACK
6
CONTINUOUS
10
3.96805
20
-0.971378
11
3.99561
21
-0.971378
0
LINE
8
BLACK
6
CONTINUOUS
10
3.99561
20
-0.971378
11
3.99655
21
-0.971565
0
LINE
8
BLACK
6
CONTINUOUS
10
1.19413
20
-0.977154
11
1.13114
21
-0.977154
0
LINE
8
BLACK
6
CONTINUOUS
10
1.13114
20
-0.977154
11
1.13114
21
-0.929909
0
LINE
8
BLACK
6
CONTINUOUS
10
1.13114
20
-0.929909
11
1.19413
21
-0.929909
0
LINE
8
BLACK
6
CONTINUOUS
10
1.19413
20
-0.929909
11
1.19413
21
-0.977154
0
LINE
8
BLACK
6
CONTINUOUS
10
4.14911
20
-0.95188
11
4.14991
21
-0.952414
0
LINE
8
BLACK
6
CONTINUOUS
10
4.14991
20
-0.952414
11
4.15044
21
-0.953212
0
LINE
8
BLACK
6
CONTINUOUS
10
4.15044
20
-0.953212
11
4.15063
21
-0.954154
0
LINE
8
BLACK
6
CONTINUOUS
10
4.15063
20
-0.954154
11
4.15063
21
-0.959075
0
LINE
8
BLACK
6
CONTINUOUS
10
4.15063
20
-0.959075
11
4.15044
21
-0.960016
0
LINE
8
BLACK
6
CONTINUOUS
10
4.15044
20
-0.960016
11
4.14991
21
-0.960815
0
LINE
8
BLACK
6
CONTINUOUS
10
4.14991
20
-0.960815
11
4.14911
21
-0.961348
0
LINE
8
BLACK
6
CONTINUOUS
10
4.14911
20
-0.961348
11
4.14817
21
-0.961535
0
LINE
8
BLACK
6
CONTINUOUS
10
4.14817
20
-0.961535
11
4.12061
21
-0.961535
0
LINE
8
BLACK
6
CONTINUOUS
10
4.12061
20
-0.961535
11
4.11967
21
-0.961348
0
LINE
8
BLACK
6
CONTINUOUS
10
4.11967
20
-0.961348
11
4.11887
21
-0.960815
0
LINE
8
BLACK
6
CONTINUOUS
10
4.11887
20
-0.960815
11
4.11834
21
-0.960016
0
LINE
8
BLACK
6
CONTINUOUS
10
4.11834
20
-0.960016
11
4.11815
21
-0.959075
0
LINE
8
BLACK
6
CONTINUOUS
10
4.11815
20
-0.959075
11
4.11815
21
-0.954154
0
LINE
8
BLACK
6
CONTINUOUS
10
4.11815
20
-0.954154
11
4.11834
21
-0.953212
0
LINE
8
BLACK
6
CONTINUOUS
10
4.11834
20
-0.953212
11
4.11887
21
-0.952414
0
LINE
8
BLACK
6
CONTINUOUS
10
4.11887
20
-0.952414
11
4.11967
21
-0.95188
0
LINE
8
BLACK
6
CONTINUOUS
10
4.11967
20
-0.95188
11
4.12061
21
-0.951693
0
LINE
8
BLACK
6
CONTINUOUS
10
4.12061
20
-0.951693
11
4.14817
21
-0.951693
0
LINE
8
BLACK
6
CONTINUOUS
10
4.14817
20
-0.951693
11
4.14911
21
-0.95188
0
LINE
8
BLACK
6
CONTINUOUS
10
3.99655
20
-0.95188
11
3.99735
21
-0.952414
0
LINE
8
BLACK
6
CONTINUOUS
10
3.99735
20
-0.952414
11
3.99788
21
-0.953212
0
LINE
8
BLACK
6
CONTINUOUS
10
3.99788
20
-0.953212
11
3.99807
21
-0.954154
0
LINE
8
BLACK
6
CONTINUOUS
10
3.99807
20
-0.954154
11
3.99807
21
-0.959075
0
LINE
8
BLACK
6
CONTINUOUS
10
3.99807
20
-0.959075
11
3.99788
21
-0.960016
0
LINE
8
BLACK
6
CONTINUOUS
10
3.99788
20
-0.960016
11
3.99735
21
-0.960815
0
LINE
8
BLACK
6
CONTINUOUS
10
3.99735
20
-0.960815
11
3.99655
21
-0.961348
0
LINE
8
BLACK
6
CONTINUOUS
10
3.99655
20
-0.961348
11
3.99561
21
-0.961535
0
LINE
8
BLACK
6
CONTINUOUS
10
3.99561
20
-0.961535
11
3.96805
21
-0.961535
0
LINE
8
BLACK
6
CONTINUOUS
10
3.96805
20
-0.961535
11
3.96711
21
-0.961348
0
LINE
8
BLACK
6
CONTINUOUS
10
3.96711
20
-0.961348
11
3.96631
21
-0.960815
0
LINE
8
BLACK
6
CONTINUOUS
10
3.96631
20
-0.960815
11
3.96578
21
-0.960016
0
LINE
8
BLACK
6
CONTINUOUS
10
3.96578
20
-0.960016
11
3.96559
21
-0.959075
0
LINE
8
BLACK
6
CONTINUOUS
10
3.96559
20
-0.959075
11
3.96559
21
-0.954154
0
LINE
8
BLACK
6
CONTINUOUS
10
3.96559
20
-0.954154
11
3.96578
21
-0.953212
0
LINE
8
BLACK
6
CONTINUOUS
10
3.96578
20
-0.953212
11
3.96631
21
-0.952414
0
LINE
8
BLACK
6
CONTINUOUS
10
3.96631
20
-0.952414
11
3.96711
21
-0.95188
0
LINE
8
BLACK
6
CONTINUOUS
10
3.96711
20
-0.95188
11
3.96805
21
-0.951693
0
LINE
8
BLACK
6
CONTINUOUS
10
3.96805
20
-0.951693
11
3.99561
21
-0.951693
0
LINE
8
BLACK
6
CONTINUOUS
10
3.99561
20
-0.951693
11
3.99655
21
-0.95188
0
LINE
8
BLACK
6
CONTINUOUS
10
4.64845
20
-0.961433
11
4.61105
21
-0.961433
0
LINE
8
BLACK
6
CONTINUOUS
10
4.61105
20
-0.961433
11
4.61105
21
-0.902378
0
LINE
8
BLACK
6
CONTINUOUS
10
4.61105
20
-0.902378
11
4.64845
21
-0.902378
0
LINE
8
BLACK
6
CONTINUOUS
10
4.64845
20
-0.902378
11
4.64845
21
-0.961433
0
LINE
8
BLACK
6
CONTINUOUS
10
4.48506
20
-0.961433
11
4.44766
21
-0.961433
0
LINE
8
BLACK
6
CONTINUOUS
10
4.44766
20
-0.961433
11
4.44766
21
-0.902378
0
LINE
8
BLACK
6
CONTINUOUS
10
4.44766
20
-0.902378
11
4.48506
21
-0.902378
0
LINE
8
BLACK
6
CONTINUOUS
10
4.48506
20
-0.902378
11
4.48506
21
-0.961433
0
LINE
8
BLACK
6
CONTINUOUS
10
4.28378
20
-0.955906
11
4.22378
21
-0.955906
0
LINE
8
BLACK
6
CONTINUOUS
10
4.22378
20
-0.955906
11
4.22378
21
-0.895906
0
LINE
8
BLACK
6
CONTINUOUS
10
4.22378
20
-0.895906
11
4.28378
21
-0.895906
0
LINE
8
BLACK
6
CONTINUOUS
10
4.28378
20
-0.895906
11
4.28378
21
-0.955906
0
LINE
8
BLACK
6
CONTINUOUS
10
4.38378
20
-0.955906
11
4.32378
21
-0.955906
0
LINE
8
BLACK
6
CONTINUOUS
10
4.32378
20
-0.955906
11
4.32378
21
-0.895906
0
LINE
8
BLACK
6
CONTINUOUS
10
4.32378
20
-0.895906
11
4.38378
21
-0.895906
0
LINE
8
BLACK
6
CONTINUOUS
10
4.38378
20
-0.895906
11
4.38378
21
-0.955906
0
LINE
8
BLACK
6
CONTINUOUS
10
2.72
20
-0.955118
11
2.66
21
-0.955118
0
LINE
8
BLACK
6
CONTINUOUS
10
2.66
20
-0.955118
11
2.66
21
-0.895118
0
LINE
8
BLACK
6
CONTINUOUS
10
2.66
20
-0.895118
11
2.72
21
-0.895118
0
LINE
8
BLACK
6
CONTINUOUS
10
2.72
20
-0.895118
11
2.72
21
-0.955118
0
LINE
8
BLACK
6
CONTINUOUS
10
4.14911
20
-0.932195
11
4.14991
21
-0.932729
0
LINE
8
BLACK
6
CONTINUOUS
10
4.14991
20
-0.932729
11
4.15044
21
-0.933527
0
LINE
8
BLACK
6
CONTINUOUS
10
4.15044
20
-0.933527
11
4.15063
21
-0.934469
0
LINE
8
BLACK
6
CONTINUOUS
10
4.15063
20
-0.934469
11
4.15063
21
-0.93939
0
LINE
8
BLACK
6
CONTINUOUS
10
4.15063
20
-0.93939
11
4.15044
21
-0.940331
0
LINE
8
BLACK
6
CONTINUOUS
10
4.15044
20
-0.940331
11
4.14991
21
-0.94113
0
LINE
8
BLACK
6
CONTINUOUS
10
4.14991
20
-0.94113
11
4.14911
21
-0.941663
0
LINE
8
BLACK
6
CONTINUOUS
10
4.14911
20
-0.941663
11
4.14817
21
-0.94185
0
LINE
8
BLACK
6
CONTINUOUS
10
4.14817
20
-0.94185
11
4.12061
21
-0.94185
0
LINE
8
BLACK
6
CONTINUOUS
10
4.12061
20
-0.94185
11
4.11967
21
-0.941663
0
LINE
8
BLACK
6
CONTINUOUS
10
4.11967
20
-0.941663
11
4.11887
21
-0.94113
0
LINE
8
BLACK
6
CONTINUOUS
10
4.11887
20
-0.94113
11
4.11834
21
-0.940331
0
LINE
8
BLACK
6
CONTINUOUS
10
4.11834
20
-0.940331
11
4.11815
21
-0.93939
0
LINE
8
BLACK
6
CONTINUOUS
10
4.11815
20
-0.93939
11
4.11815
21
-0.934469
0
LINE
8
BLACK
6
CONTINUOUS
10
4.11815
20
-0.934469
11
4.11834
21
-0.933527
0
LINE
8
BLACK
6
CONTINUOUS
10
4.11834
20
-0.933527
11
4.11887
21
-0.932729
0
LINE
8
BLACK
6
CONTINUOUS
10
4.11887
20
-0.932729
11
4.11967
21
-0.932195
0
LINE
8
BLACK
6
CONTINUOUS
10
4.11967
20
-0.932195
11
4.12061
21
-0.932008
0
LINE
8
BLACK
6
CONTINUOUS
10
4.12061
20
-0.932008
11
4.14817
21
-0.932008
0
LINE
8
BLACK
6
CONTINUOUS
10
4.14817
20
-0.932008
11
4.14911
21
-0.932195
0
LINE
8
BLACK
6
CONTINUOUS
10
3.99655
20
-0.932195
11
3.99735
21
-0.932729
0
LINE
8
BLACK
6
CONTINUOUS
10
3.99735
20
-0.932729
11
3.99788
21
-0.933527
0
LINE
8
BLACK
6
CONTINUOUS
10
3.99788
20
-0.933527
11
3.99807
21
-0.934469
0
LINE
8
BLACK
6
CONTINUOUS
10
3.99807
20
-0.934469
11
3.99807
21
-0.93939
0
LINE
8
BLACK
6
CONTINUOUS
10
3.99807
20
-0.93939
11
3.99788
21
-0.940331
0
LINE
8
BLACK
6
CONTINUOUS
10
3.99788
20
-0.940331
11
3.99735
21
-0.94113
0
LINE
8
BLACK
6
CONTINUOUS
10
3.99735
20
-0.94113
11
3.99655
21
-0.941663
0
LINE
8
BLACK
6
CONTINUOUS
10
3.99655
20
-0.941663
11
3.99561
21
-0.94185
0
LINE
8
BLACK
6
CONTINUOUS
10
3.99561
20
-0.94185
11
3.96805
21
-0.94185
0
LINE
8
BLACK
6
CONTINUOUS
10
3.96805
20
-0.94185
11
3.96711
21
-0.941663
0
LINE
8
BLACK
6
CONTINUOUS
10
3.96711
20
-0.941663
11
3.96631
21
-0.94113
0
LINE
8
BLACK
6
CONTINUOUS
10
3.96631
20
-0.94113
11
3.96578
21
-0.940331
0
LINE
8
BLACK
6
CONTINUOUS
10
3.96578
20
-0.940331
11
3.96559
21
-0.93939
0
LINE
8
BLACK
6
CONTINUOUS
10
3.96559
20
-0.93939
11
3.96559
21
-0.934469
0
LINE
8
BLACK
6
CONTINUOUS
10
3.96559
20
-0.934469
11
3.96578
21
-0.933527
0
LINE
8
BLACK
6
CONTINUOUS
10
3.96578
20
-0.933527
11
3.96631
21
-0.932729
0
LINE
8
BLACK
6
CONTINUOUS
10
3.96631
20
-0.932729
11
3.96711
21
-0.932195
0
LINE
8
BLACK
6
CONTINUOUS
10
3.96711
20
-0.932195
11
3.96805
21
-0.932008
0
LINE
8
BLACK
6
CONTINUOUS
10
3.96805
20
-0.932008
11
3.99561
21
-0.932008
0
LINE
8
BLACK
6
CONTINUOUS
10
3.99561
20
-0.932008
11
3.99655
21
-0.932195
0
LINE
8
BLACK
6
CONTINUOUS
10
4.73197
20
-0.933406
11
4.69697
21
-0.933406
0
LINE
8
BLACK
6
CONTINUOUS
10
4.69697
20
-0.933406
11
4.69697
21
-0.878406
0
LINE
8
BLACK
6
CONTINUOUS
10
4.69697
20
-0.878406
11
4.73197
21
-0.878406
0
LINE
8
BLACK
6
CONTINUOUS
10
4.73197
20
-0.878406
11
4.73197
21
-0.933406
0
LINE
8
BLACK
6
CONTINUOUS
10
4.80697
20
-0.933406
11
4.77197
21
-0.933406
0
LINE
8
BLACK
6
CONTINUOUS
10
4.77197
20
-0.933406
11
4.77197
21
-0.878406
0
LINE
8
BLACK
6
CONTINUOUS
10
4.77197
20
-0.878406
11
4.80697
21
-0.878406
0
LINE
8
BLACK
6
CONTINUOUS
10
4.80697
20
-0.878406
11
4.80697
21
-0.933406
0
LINE
8
BLACK
6
CONTINUOUS
10
4.10088
20
-0.883967
11
4.10168
21
-0.8845
0
LINE
8
BLACK
6
CONTINUOUS
10
4.10168
20
-0.8845
11
4.10221
21
-0.885299
0
LINE
8
BLACK
6
CONTINUOUS
10
4.10221
20
-0.885299
11
4.1024
21
-0.88624
0
LINE
8
BLACK
6
CONTINUOUS
10
4.1024
20
-0.88624
11
4.1024
21
-0.913799
0
LINE
8
BLACK
6
CONTINUOUS
10
4.1024
20
-0.913799
11
4.10221
21
-0.914741
0
LINE
8
BLACK
6
CONTINUOUS
10
4.10221
20
-0.914741
11
4.10168
21
-0.915539
0
LINE
8
BLACK
6
CONTINUOUS
10
4.10168
20
-0.915539
11
4.10088
21
-0.916073
0
LINE
8
BLACK
6
CONTINUOUS
10
4.10088
20
-0.916073
11
4.09994
21
-0.91626
0
LINE
8
BLACK
6
CONTINUOUS
10
4.09994
20
-0.91626
11
4.09502
21
-0.91626
0
LINE
8
BLACK
6
CONTINUOUS
10
4.09502
20
-0.91626
11
4.09408
21
-0.916073
0
LINE
8
BLACK
6
CONTINUOUS
10
4.09408
20
-0.916073
11
4.09328
21
-0.915539
0
LINE
8
BLACK
6
CONTINUOUS
10
4.09328
20
-0.915539
11
4.09275
21
-0.914741
0
LINE
8
BLACK
6
CONTINUOUS
10
4.09275
20
-0.914741
11
4.09256
21
-0.913799
0
LINE
8
BLACK
6
CONTINUOUS
10
4.09256
20
-0.913799
11
4.09256
21
-0.88624
0
LINE
8
BLACK
6
CONTINUOUS
10
4.09256
20
-0.88624
11
4.09275
21
-0.885299
0
LINE
8
BLACK
6
CONTINUOUS
10
4.09275
20
-0.885299
11
4.09328
21
-0.8845
0
LINE
8
BLACK
6
CONTINUOUS
10
4.09328
20
-0.8845
11
4.09408
21
-0.883967
0
LINE
8
BLACK
6
CONTINUOUS
10
4.09408
20
-0.883967
11
4.09502
21
-0.88378
0
LINE
8
BLACK
6
CONTINUOUS
10
4.09502
20
-0.88378
11
4.09994
21
-0.88378
0
LINE
8
BLACK
6
CONTINUOUS
10
4.09994
20
-0.88378
11
4.10088
21
-0.883967
0
LINE
8
BLACK
6
CONTINUOUS
10
4.02214
20
-0.883967
11
4.02294
21
-0.8845
0
LINE
8
BLACK
6
CONTINUOUS
10
4.02294
20
-0.8845
11
4.02347
21
-0.885299
0
LINE
8
BLACK
6
CONTINUOUS
10
4.02347
20
-0.885299
11
4.02366
21
-0.88624
0
LINE
8
BLACK
6
CONTINUOUS
10
4.02366
20
-0.88624
11
4.02366
21
-0.913799
0
LINE
8
BLACK
6
CONTINUOUS
10
4.02366
20
-0.913799
11
4.02347
21
-0.914741
0
LINE
8
BLACK
6
CONTINUOUS
10
4.02347
20
-0.914741
11
4.02294
21
-0.915539
0
LINE
8
BLACK
6
CONTINUOUS
10
4.02294
20
-0.915539
11
4.02214
21
-0.916073
0
LINE
8
BLACK
6
CONTINUOUS
10
4.02214
20
-0.916073
11
4.0212
21
-0.91626
0
LINE
8
BLACK
6
CONTINUOUS
10
4.0212
20
-0.91626
11
4.01628
21
-0.91626
0
LINE
8
BLACK
6
CONTINUOUS
10
4.01628
20
-0.91626
11
4.01534
21
-0.916073
0
LINE
8
BLACK
6
CONTINUOUS
10
4.01534
20
-0.916073
11
4.01454
21
-0.915539
0
LINE
8
BLACK
6
CONTINUOUS
10
4.01454
20
-0.915539
11
4.01401
21
-0.914741
0
LINE
8
BLACK
6
CONTINUOUS
10
4.01401
20
-0.914741
11
4.01382
21
-0.913799
0
LINE
8
BLACK
6
CONTINUOUS
10
4.01382
20
-0.913799
11
4.01382
21
-0.88624
0
LINE
8
BLACK
6
CONTINUOUS
10
4.01382
20
-0.88624
11
4.01401
21
-0.885299
0
LINE
8
BLACK
6
CONTINUOUS
10
4.01401
20
-0.885299
11
4.01454
21
-0.8845
0
LINE
8
BLACK
6
CONTINUOUS
10
4.01454
20
-0.8845
11
4.01534
21
-0.883967
0
LINE
8
BLACK
6
CONTINUOUS
10
4.01534
20
-0.883967
11
4.01628
21
-0.88378
0
LINE
8
BLACK
6
CONTINUOUS
10
4.01628
20
-0.88378
11
4.0212
21
-0.88378
0
LINE
8
BLACK
6
CONTINUOUS
10
4.0212
20
-0.88378
11
4.02214
21
-0.883967
0
LINE
8
BLACK
6
CONTINUOUS
10
4.04183
20
-0.883967
11
4.04263
21
-0.8845
0
LINE
8
BLACK
6
CONTINUOUS
10
4.04263
20
-0.8845
11
4.04316
21
-0.885299
0
LINE
8
BLACK
6
CONTINUOUS
10
4.04316
20
-0.885299
11
4.04335
21
-0.88624
0
LINE
8
BLACK
6
CONTINUOUS
10
4.04335
20
-0.88624
11
4.04335
21
-0.913799
0
LINE
8
BLACK
6
CONTINUOUS
10
4.04335
20
-0.913799
11
4.04316
21
-0.914741
0
LINE
8
BLACK
6
CONTINUOUS
10
4.04316
20
-0.914741
11
4.04263
21
-0.915539
0
LINE
8
BLACK
6
CONTINUOUS
10
4.04263
20
-0.915539
11
4.04183
21
-0.916073
0
LINE
8
BLACK
6
CONTINUOUS
10
4.04183
20
-0.916073
11
4.04089
21
-0.91626
0
LINE
8
BLACK
6
CONTINUOUS
10
4.04089
20
-0.91626
11
4.03596
21
-0.91626
0
LINE
8
BLACK
6
CONTINUOUS
10
4.03596
20
-0.91626
11
4.03502
21
-0.916073
0
LINE
8
BLACK
6
CONTINUOUS
10
4.03502
20
-0.916073
11
4.03422
21
-0.915539
0
LINE
8
BLACK
6
CONTINUOUS
10
4.03422
20
-0.915539
11
4.03369
21
-0.914741
0
LINE
8
BLACK
6
CONTINUOUS
10
4.03369
20
-0.914741
11
4.0335
21
-0.913799
0
LINE
8
BLACK
6
CONTINUOUS
10
4.0335
20
-0.913799
11
4.0335
21
-0.88624
0
LINE
8
BLACK
6
CONTINUOUS
10
4.0335
20
-0.88624
11
4.03369
21
-0.885299
0
LINE
8
BLACK
6
CONTINUOUS
10
4.03369
20
-0.885299
11
4.03422
21
-0.8845
0
LINE
8
BLACK
6
CONTINUOUS
10
4.03422
20
-0.8845
11
4.03502
21
-0.883967
0
LINE
8
BLACK
6
CONTINUOUS
10
4.03502
20
-0.883967
11
4.03596
21
-0.88378
0
LINE
8
BLACK
6
CONTINUOUS
10
4.03596
20
-0.88378
11
4.04089
21
-0.88378
0
LINE
8
BLACK
6
CONTINUOUS
10
4.04089
20
-0.88378
11
4.04183
21
-0.883967
0
LINE
8
BLACK
6
CONTINUOUS
10
4.06151
20
-0.883967
11
4.06231
21
-0.8845
0
LINE
8
BLACK
6
CONTINUOUS
10
4.06231
20
-0.8845
11
4.06284
21
-0.885299
0
LINE
8
BLACK
6
CONTINUOUS
10
4.06284
20
-0.885299
11
4.06303
21
-0.88624
0
LINE
8
BLACK
6
CONTINUOUS
10
4.06303
20
-0.88624
11
4.06303
21
-0.913799
0
LINE
8
BLACK
6
CONTINUOUS
10
4.06303
20
-0.913799
11
4.06284
21
-0.914741
0
LINE
8
BLACK
6
CONTINUOUS
10
4.06284
20
-0.914741
11
4.06231
21
-0.915539
0
LINE
8
BLACK
6
CONTINUOUS
10
4.06231
20
-0.915539
11
4.06151
21
-0.916073
0
LINE
8
BLACK
6
CONTINUOUS
10
4.06151
20
-0.916073
11
4.06057
21
-0.91626
0
LINE
8
BLACK
6
CONTINUOUS
10
4.06057
20
-0.91626
11
4.05565
21
-0.91626
0
LINE
8
BLACK
6
CONTINUOUS
10
4.05565
20
-0.91626
11
4.05471
21
-0.916073
0
LINE
8
BLACK
6
CONTINUOUS
10
4.05471
20
-0.916073
11
4.05391
21
-0.915539
0
LINE
8
BLACK
6
CONTINUOUS
10
4.05391
20
-0.915539
11
4.05338
21
-0.914741
0
LINE
8
BLACK
6
CONTINUOUS
10
4.05338
20
-0.914741
11
4.05319
21
-0.913799
0
LINE
8
BLACK
6
CONTINUOUS
10
4.05319
20
-0.913799
11
4.05319
21
-0.88624
0
LINE
8
BLACK
6
CONTINUOUS
10
4.05319
20
-0.88624
11
4.05338
21
-0.885299
0
LINE
8
BLACK
6
CONTINUOUS
10
4.05338
20
-0.885299
11
4.05391
21
-0.8845
0
LINE
8
BLACK
6
CONTINUOUS
10
4.05391
20
-0.8845
11
4.05471
21
-0.883967
0
LINE
8
BLACK
6
CONTINUOUS
10
4.05471
20
-0.883967
11
4.05565
21
-0.88378
0
LINE
8
BLACK
6
CONTINUOUS
10
4.05565
20
-0.88378
11
4.06057
21
-0.88378
0
LINE
8
BLACK
6
CONTINUOUS
10
4.06057
20
-0.88378
11
4.06151
21
-0.883967
0
LINE
8
BLACK
6
CONTINUOUS
10
4.0812
20
-0.883967
11
4.082
21
-0.8845
0
LINE
8
BLACK
6
CONTINUOUS
10
4.082
20
-0.8845
11
4.08253
21
-0.885299
0
LINE
8
BLACK
6
CONTINUOUS
10
4.08253
20
-0.885299
11
4.08272
21
-0.88624
0
LINE
8
BLACK
6
CONTINUOUS
10
4.08272
20
-0.88624
11
4.08272
21
-0.913799
0
LINE
8
BLACK
6
CONTINUOUS
10
4.08272
20
-0.913799
11
4.08253
21
-0.914741
0
LINE
8
BLACK
6
CONTINUOUS
10
4.08253
20
-0.914741
11
4.082
21
-0.915539
0
LINE
8
BLACK
6
CONTINUOUS
10
4.082
20
-0.915539
11
4.0812
21
-0.916073
0
LINE
8
BLACK
6
CONTINUOUS
10
4.0812
20
-0.916073
11
4.08026
21
-0.91626
0
LINE
8
BLACK
6
CONTINUOUS
10
4.08026
20
-0.91626
11
4.07533
21
-0.91626
0
LINE
8
BLACK
6
CONTINUOUS
10
4.07533
20
-0.91626
11
4.07439
21
-0.916073
0
LINE
8
BLACK
6
CONTINUOUS
10
4.07439
20
-0.916073
11
4.07359
21
-0.915539
0
LINE
8
BLACK
6
CONTINUOUS
10
4.07359
20
-0.915539
11
4.07306
21
-0.914741
0
LINE
8
BLACK
6
CONTINUOUS
10
4.07306
20
-0.914741
11
4.07287
21
-0.913799
0
LINE
8
BLACK
6
CONTINUOUS
10
4.07287
20
-0.913799
11
4.07287
21
-0.88624
0
LINE
8
BLACK
6
CONTINUOUS
10
4.07287
20
-0.88624
11
4.07306
21
-0.885299
0
LINE
8
BLACK
6
CONTINUOUS
10
4.07306
20
-0.885299
11
4.07359
21
-0.8845
0
LINE
8
BLACK
6
CONTINUOUS
10
4.07359
20
-0.8845
11
4.07439
21
-0.883967
0
LINE
8
BLACK
6
CONTINUOUS
10
4.07439
20
-0.883967
11
4.07533
21
-0.88378
0
LINE
8
BLACK
6
CONTINUOUS
10
4.07533
20
-0.88378
11
4.08026
21
-0.88378
0
LINE
8
BLACK
6
CONTINUOUS
10
4.08026
20
-0.88378
11
4.0812
21
-0.883967
0
LINE
8
BLACK
6
CONTINUOUS
10
1.19413
20
-0.878728
11
1.13114
21
-0.878728
0
LINE
8
BLACK
6
CONTINUOUS
10
1.13114
20
-0.878728
11
1.13114
21
-0.831484
0
LINE
8
BLACK
6
CONTINUOUS
10
1.13114
20
-0.831484
11
1.19413
21
-0.831484
0
LINE
8
BLACK
6
CONTINUOUS
10
1.19413
20
-0.831484
11
1.19413
21
-0.878728
0
LINE
8
BLACK
6
CONTINUOUS
10
4.94717
20
-0.844488
11
4.88717
21
-0.844488
0
LINE
8
BLACK
6
CONTINUOUS
10
4.88717
20
-0.844488
11
4.88717
21
-0.784488
0
LINE
8
BLACK
6
CONTINUOUS
10
4.88717
20
-0.784488
11
4.94717
21
-0.784488
0
LINE
8
BLACK
6
CONTINUOUS
10
4.94717
20
-0.784488
11
4.94717
21
-0.844488
0
LINE
8
BLACK
6
CONTINUOUS
10
2.84496
20
-0.8275
11
2.80996
21
-0.8275
0
LINE
8
BLACK
6
CONTINUOUS
10
2.80996
20
-0.8275
11
2.80996
21
-0.7725
0
LINE
8
BLACK
6
CONTINUOUS
10
2.80996
20
-0.7725
11
2.84496
21
-0.7725
0
LINE
8
BLACK
6
CONTINUOUS
10
2.84496
20
-0.7725
11
2.84496
21
-0.8275
0
LINE
8
BLACK
6
CONTINUOUS
10
2.68
20
-0.8275
11
2.645
21
-0.8275
0
LINE
8
BLACK
6
CONTINUOUS
10
2.645
20
-0.8275
11
2.645
21
-0.7725
0
LINE
8
BLACK
6
CONTINUOUS
10
2.645
20
-0.7725
11
2.68
21
-0.7725
0
LINE
8
BLACK
6
CONTINUOUS
10
2.68
20
-0.7725
11
2.68
21
-0.8275
0
LINE
8
BLACK
6
CONTINUOUS
10
2.755
20
-0.8275
11
2.72
21
-0.8275
0
LINE
8
BLACK
6
CONTINUOUS
10
2.72
20
-0.8275
11
2.72
21
-0.7725
0
LINE
8
BLACK
6
CONTINUOUS
10
2.72
20
-0.7725
11
2.755
21
-0.7725
0
LINE
8
BLACK
6
CONTINUOUS
10
2.755
20
-0.7725
11
2.755
21
-0.8275
0
LINE
8
BLACK
6
CONTINUOUS
10
2.91996
20
-0.8275
11
2.88496
21
-0.8275
0
LINE
8
BLACK
6
CONTINUOUS
10
2.88496
20
-0.8275
11
2.88496
21
-0.7725
0
LINE
8
BLACK
6
CONTINUOUS
10
2.88496
20
-0.7725
11
2.91996
21
-0.7725
0
LINE
8
BLACK
6
CONTINUOUS
10
2.91996
20
-0.7725
11
2.91996
21
-0.8275
0
LINE
8
BLACK
6
CONTINUOUS
10
4.7422
20
-0.821988
11
4.7072
21
-0.821988
0
LINE
8
BLACK
6
CONTINUOUS
10
4.7072
20
-0.821988
11
4.7072
21
-0.766988
0
LINE
8
BLACK
6
CONTINUOUS
10
4.7072
20
-0.766988
11
4.7422
21
-0.766988
0
LINE
8
BLACK
6
CONTINUOUS
10
4.7422
20
-0.766988
11
4.7422
21
-0.821988
0
LINE
8
BLACK
6
CONTINUOUS
10
4.8172
20
-0.821988
11
4.7822
21
-0.821988
0
LINE
8
BLACK
6
CONTINUOUS
10
4.7822
20
-0.821988
11
4.7822
21
-0.766988
0
LINE
8
BLACK
6
CONTINUOUS
10
4.7822
20
-0.766988
11
4.8172
21
-0.766988
0
LINE
8
BLACK
6
CONTINUOUS
10
4.8172
20
-0.766988
11
4.8172
21
-0.821988
0
LINE
8
BLACK
6
CONTINUOUS
10
4.2399
20
-0.67538
11
4.24998
21
-0.677022
0
LINE
8
BLACK
6
CONTINUOUS
10
4.24998
20
-0.677022
11
4.25971
21
-0.680135
0
LINE
8
BLACK
6
CONTINUOUS
10
4.25971
20
-0.680135
11
4.26887
21
-0.684652
0
LINE
8
BLACK
6
CONTINUOUS
10
4.26887
20
-0.684652
11
4.27726
21
-0.690472
0
LINE
8
BLACK
6
CONTINUOUS
10
4.27726
20
-0.690472
11
4.28469
21
-0.697469
0
LINE
8
BLACK
6
CONTINUOUS
10
4.28469
20
-0.697469
11
4.29102
21
-0.705489
0
LINE
8
BLACK
6
CONTINUOUS
10
4.29102
20
-0.705489
11
4.29608
21
-0.714355
0
LINE
8
BLACK
6
CONTINUOUS
10
4.29608
20
-0.714355
11
4.29978
21
-0.723872
0
LINE
8
BLACK
6
CONTINUOUS
10
4.29978
20
-0.723872
11
4.30204
21
-0.733832
0
LINE
8
BLACK
6
CONTINUOUS
10
4.30204
20
-0.733832
11
4.3028
21
-0.744016
0
LINE
8
BLACK
6
CONTINUOUS
10
4.3028
20
-0.744016
11
4.3027
21
-0.747622
0
LINE
8
BLACK
6
CONTINUOUS
10
4.3027
20
-0.747622
11
4.30141
21
-0.757752
0
LINE
8
BLACK
6
CONTINUOUS
10
4.30141
20
-0.757752
11
4.29864
21
-0.76758
0
LINE
8
BLACK
6
CONTINUOUS
10
4.29864
20
-0.76758
11
4.29445
21
-0.776891
0
LINE
8
BLACK
6
CONTINUOUS
10
4.29445
20
-0.776891
11
4.28892
21
-0.785479
0
LINE
8
BLACK
6
CONTINUOUS
10
4.28892
20
-0.785479
11
4.28219
21
-0.793157
0
LINE
8
BLACK
6
CONTINUOUS
10
4.28219
20
-0.793157
11
4.27439
21
-0.799755
0
LINE
8
BLACK
6
CONTINUOUS
10
4.27439
20
-0.799755
11
4.26571
21
-0.805129
0
LINE
8
BLACK
6
CONTINUOUS
10
4.26571
20
-0.805129
11
4.25633
21
-0.80916
0
LINE
8
BLACK
6
CONTINUOUS
10
4.25633
20
-0.80916
11
4.24645
21
-0.81176
0
LINE
8
BLACK
6
CONTINUOUS
10
4.24645
20
-0.81176
11
4.2363
21
-0.812871
0
LINE
8
BLACK
6
CONTINUOUS
10
4.2363
20
-0.812871
11
4.2261
21
-0.812471
0
LINE
8
BLACK
6
CONTINUOUS
10
4.2261
20
-0.812471
11
4.21607
21
-0.810566
0
LINE
8
BLACK
6
CONTINUOUS
10
4.21607
20
-0.810566
11
4.20642
21
-0.807199
0
LINE
8
BLACK
6
CONTINUOUS
10
4.20642
20
-0.807199
11
4.19739
21
-0.802444
0
LINE
8
BLACK
6
CONTINUOUS
10
4.19739
20
-0.802444
11
4.18915
21
-0.796406
0
LINE
8
BLACK
6
CONTINUOUS
10
4.18915
20
-0.796406
11
4.1819
21
-0.789217
0
LINE
8
BLACK
6
CONTINUOUS
10
4.1819
20
-0.789217
11
4.17579
21
-0.781034
0
LINE
8
BLACK
6
CONTINUOUS
10
4.17579
20
-0.781034
11
4.17096
21
-0.772039
0
LINE
8
BLACK
6
CONTINUOUS
10
4.17096
20
-0.772039
11
4.16751
21
-0.762428
0
LINE
8
BLACK
6
CONTINUOUS
10
4.16751
20
-0.762428
11
4.16551
21
-0.752412
0
LINE
8
BLACK
6
CONTINUOUS
10
4.16551
20
-0.752412
11
4.16502
21
-0.742212
0
LINE
8
BLACK
6
CONTINUOUS
10
4.16502
20
-0.742212
11
4.16605
21
-0.732052
0
LINE
8
BLACK
6
CONTINUOUS
10
4.16605
20
-0.732052
11
4.16856
21
-0.722154
0
LINE
8
BLACK
6
CONTINUOUS
10
4.16856
20
-0.722154
11
4.17251
21
-0.712737
0
LINE
8
BLACK
6
CONTINUOUS
10
4.17251
20
-0.712737
11
4.17781
21
-0.704007
0
LINE
8
BLACK
6
CONTINUOUS
10
4.17781
20
-0.704007
11
4.18434
21
-0.696155
0
LINE
8
BLACK
6
CONTINUOUS
10
4.18434
20
-0.696155
11
4.19196
21
-0.689356
0
LINE
8
BLACK
6
CONTINUOUS
10
4.19196
20
-0.689356
11
4.2005
21
-0.683757
0
LINE
8
BLACK
6
CONTINUOUS
10
4.2005
20
-0.683757
11
4.20977
21
-0.679481
0
LINE
8
BLACK
6
CONTINUOUS
10
4.20977
20
-0.679481
11
4.21957
21
-0.676624
0
LINE
8
BLACK
6
CONTINUOUS
10
4.21957
20
-0.676624
11
4.22969
21
-0.675247
0
LINE
8
BLACK
6
CONTINUOUS
10
4.22969
20
-0.675247
11
4.2399
21
-0.67538
0
LINE
8
BLACK
6
CONTINUOUS
10
1.19413
20
-0.780303
11
1.13114
21
-0.780303
0
LINE
8
BLACK
6
CONTINUOUS
10
1.13114
20
-0.780303
11
1.13114
21
-0.733059
0
LINE
8
BLACK
6
CONTINUOUS
10
1.13114
20
-0.733059
11
1.19413
21
-0.733059
0
LINE
8
BLACK
6
CONTINUOUS
10
1.19413
20
-0.733059
11
1.19413
21
-0.780303
0
LINE
8
BLACK
6
CONTINUOUS
10
3.08294
20
-0.601458
11
3.08613
21
-0.603591
0
LINE
8
BLACK
6
CONTINUOUS
10
3.08613
20
-0.603591
11
3.08827
21
-0.606785
0
LINE
8
BLACK
6
CONTINUOUS
10
3.08827
20
-0.606785
11
3.08902
21
-0.610551
0
LINE
8
BLACK
6
CONTINUOUS
10
3.08902
20
-0.610551
11
3.08902
21
-0.697165
0
LINE
8
BLACK
6
CONTINUOUS
10
3.08902
20
-0.697165
11
3.08827
21
-0.700932
0
LINE
8
BLACK
6
CONTINUOUS
10
3.08827
20
-0.700932
11
3.08613
21
-0.704125
0
LINE
8
BLACK
6
CONTINUOUS
10
3.08613
20
-0.704125
11
3.08294
21
-0.706259
0
LINE
8
BLACK
6
CONTINUOUS
10
3.08294
20
-0.706259
11
3.07917
21
-0.707008
0
LINE
8
BLACK
6
CONTINUOUS
10
3.07917
20
-0.707008
11
3.05949
21
-0.707008
0
LINE
8
BLACK
6
CONTINUOUS
10
3.05949
20
-0.707008
11
3.05572
21
-0.706259
0
LINE
8
BLACK
6
CONTINUOUS
10
3.05572
20
-0.706259
11
3.05253
21
-0.704125
0
LINE
8
BLACK
6
CONTINUOUS
10
3.05253
20
-0.704125
11
3.05039
21
-0.700932
0
LINE
8
BLACK
6
CONTINUOUS
10
3.05039
20
-0.700932
11
3.04965
21
-0.697165
0
LINE
8
BLACK
6
CONTINUOUS
10
3.04965
20
-0.697165
11
3.04965
21
-0.610551
0
LINE
8
BLACK
6
CONTINUOUS
10
3.04965
20
-0.610551
11
3.05039
21
-0.606785
0
LINE
8
BLACK
6
CONTINUOUS
10
3.05039
20
-0.606785
11
3.05253
21
-0.603591
0
LINE
8
BLACK
6
CONTINUOUS
10
3.05253
20
-0.603591
11
3.05572
21
-0.601458
0
LINE
8
BLACK
6
CONTINUOUS
10
3.05572
20
-0.601458
11
3.05949
21
-0.600709
0
LINE
8
BLACK
6
CONTINUOUS
10
3.05949
20
-0.600709
11
3.07917
21
-0.600709
0
LINE
8
BLACK
6
CONTINUOUS
10
3.07917
20
-0.600709
11
3.08294
21
-0.601458
0
LINE
8
BLACK
6
CONTINUOUS
10
2.69121
20
-0.601458
11
2.6944
21
-0.603591
0
LINE
8
BLACK
6
CONTINUOUS
10
2.6944
20
-0.603591
11
2.69653
21
-0.606785
0
LINE
8
BLACK
6
CONTINUOUS
10
2.69653
20
-0.606785
11
2.69728
21
-0.610551
0
LINE
8
BLACK
6
CONTINUOUS
10
2.69728
20
-0.610551
11
2.69728
21
-0.697165
0
LINE
8
BLACK
6
CONTINUOUS
10
2.69728
20
-0.697165
11
2.69653
21
-0.700932
0
LINE
8
BLACK
6
CONTINUOUS
10
2.69653
20
-0.700932
11
2.6944
21
-0.704125
0
LINE
8
BLACK
6
CONTINUOUS
10
2.6944
20
-0.704125
11
2.69121
21
-0.706259
0
LINE
8
BLACK
6
CONTINUOUS
10
2.69121
20
-0.706259
11
2.68744
21
-0.707008
0
LINE
8
BLACK
6
CONTINUOUS
10
2.68744
20
-0.707008
11
2.66776
21
-0.707008
0
LINE
8
BLACK
6
CONTINUOUS
10
2.66776
20
-0.707008
11
2.66399
21
-0.706259
0
LINE
8
BLACK
6
CONTINUOUS
10
2.66399
20
-0.706259
11
2.6608
21
-0.704125
0
LINE
8
BLACK
6
CONTINUOUS
10
2.6608
20
-0.704125
11
2.65866
21
-0.700932
0
LINE
8
BLACK
6
CONTINUOUS
10
2.65866
20
-0.700932
11
2.65791
21
-0.697165
0
LINE
8
BLACK
6
CONTINUOUS
10
2.65791
20
-0.697165
11
2.65791
21
-0.610551
0
LINE
8
BLACK
6
CONTINUOUS
10
2.65791
20
-0.610551
11
2.65866
21
-0.606785
0
LINE
8
BLACK
6
CONTINUOUS
10
2.65866
20
-0.606785
11
2.6608
21
-0.603591
0
LINE
8
BLACK
6
CONTINUOUS
10
2.6608
20
-0.603591
11
2.66399
21
-0.601458
0
LINE
8
BLACK
6
CONTINUOUS
10
2.66399
20
-0.601458
11
2.66776
21
-0.600709
0
LINE
8
BLACK
6
CONTINUOUS
10
2.66776
20
-0.600709
11
2.68744
21
-0.600709
0
LINE
8
BLACK
6
CONTINUOUS
10
2.68744
20
-0.600709
11
2.69121
21
-0.601458
0
LINE
8
BLACK
6
CONTINUOUS
10
4.7822
20
-0.699213
11
4.7222
21
-0.699213
0
LINE
8
BLACK
6
CONTINUOUS
10
4.7222
20
-0.699213
11
4.7222
21
-0.639213
0
LINE
8
BLACK
6
CONTINUOUS
10
4.7222
20
-0.639213
11
4.7822
21
-0.639213
0
LINE
8
BLACK
6
CONTINUOUS
10
4.7822
20
-0.639213
11
4.7822
21
-0.699213
0
LINE
8
BLACK
6
CONTINUOUS
10
4.8822
20
-0.699213
11
4.8222
21
-0.699213
0
LINE
8
BLACK
6
CONTINUOUS
10
4.8222
20
-0.699213
11
4.8222
21
-0.639213
0
LINE
8
BLACK
6
CONTINUOUS
10
4.8222
20
-0.639213
11
4.8822
21
-0.639213
0
LINE
8
BLACK
6
CONTINUOUS
10
4.8822
20
-0.639213
11
4.8822
21
-0.699213
0
LINE
8
BLACK
6
CONTINUOUS
10
1.19413
20
-0.681878
11
1.13114
21
-0.681878
0
LINE
8
BLACK
6
CONTINUOUS
10
1.13114
20
-0.681878
11
1.13114
21
-0.634634
0
LINE
8
BLACK
6
CONTINUOUS
10
1.13114
20
-0.634634
11
1.19413
21
-0.634634
0
LINE
8
BLACK
6
CONTINUOUS
10
1.19413
20
-0.634634
11
1.19413
21
-0.681878
0
LINE
8
BLACK
6
CONTINUOUS
10
4.98748
20
-0.648366
11
4.95248
21
-0.648366
0
LINE
8
BLACK
6
CONTINUOUS
10
4.95248
20
-0.648366
11
4.95248
21
-0.593366
0
LINE
8
BLACK
6
CONTINUOUS
10
4.95248
20
-0.593366
11
4.98748
21
-0.593366
0
LINE
8
BLACK
6
CONTINUOUS
10
4.98748
20
-0.593366
11
4.98748
21
-0.648366
0
LINE
8
BLACK
6
CONTINUOUS
10
5.06248
20
-0.648366
11
5.02748
21
-0.648366
0
LINE
8
BLACK
6
CONTINUOUS
10
5.02748
20
-0.648366
11
5.02748
21
-0.593366
0
LINE
8
BLACK
6
CONTINUOUS
10
5.02748
20
-0.593366
11
5.06248
21
-0.593366
0
LINE
8
BLACK
6
CONTINUOUS
10
5.06248
20
-0.593366
11
5.06248
21
-0.648366
0
LINE
8
BLACK
6
CONTINUOUS
10
4.05881
20
-0.524394
11
4.0652
21
-0.527239
0
LINE
8
BLACK
6
CONTINUOUS
10
4.0652
20
-0.527239
11
4.07086
21
-0.531351
0
LINE
8
BLACK
6
CONTINUOUS
10
4.07086
20
-0.531351
11
4.07554
21
-0.536551
0
LINE
8
BLACK
6
CONTINUOUS
10
4.07554
20
-0.536551
11
4.07904
21
-0.542609
0
LINE
8
BLACK
6
CONTINUOUS
10
4.07904
20
-0.542609
11
4.0812
21
-0.549263
0
LINE
8
BLACK
6
CONTINUOUS
10
4.0812
20
-0.549263
11
4.08193
21
-0.55622
0
LINE
8
BLACK
6
CONTINUOUS
10
4.08193
20
-0.55622
11
4.0812
21
-0.563178
0
LINE
8
BLACK
6
CONTINUOUS
10
4.0812
20
-0.563178
11
4.07904
21
-0.569832
0
LINE
8
BLACK
6
CONTINUOUS
10
4.07904
20
-0.569832
11
4.07554
21
-0.57589
0
LINE
8
BLACK
6
CONTINUOUS
10
4.07554
20
-0.57589
11
4.07086
21
-0.581089
0
LINE
8
BLACK
6
CONTINUOUS
10
4.07086
20
-0.581089
11
4.0652
21
-0.585202
0
LINE
8
BLACK
6
CONTINUOUS
10
4.0652
20
-0.585202
11
4.05881
21
-0.588047
0
LINE
8
BLACK
6
CONTINUOUS
10
4.05881
20
-0.588047
11
4.05196
21
-0.589502
0
LINE
8
BLACK
6
CONTINUOUS
10
4.05196
20
-0.589502
11
4.04497
21
-0.589502
0
LINE
8
BLACK
6
CONTINUOUS
10
4.04497
20
-0.589502
11
4.03812
21
-0.588047
0
LINE
8
BLACK
6
CONTINUOUS
10
4.03812
20
-0.588047
11
4.03173
21
-0.585202
0
LINE
8
BLACK
6
CONTINUOUS
10
4.03173
20
-0.585202
11
4.02607
21
-0.581089
0
LINE
8
BLACK
6
CONTINUOUS
10
4.02607
20
-0.581089
11
4.02139
21
-0.57589
0
LINE
8
BLACK
6
CONTINUOUS
10
4.02139
20
-0.57589
11
4.01789
21
-0.569832
0
LINE
8
BLACK
6
CONTINUOUS
10
4.01789
20
-0.569832
11
4.01573
21
-0.563178
0
LINE
8
BLACK
6
CONTINUOUS
10
4.01573
20
-0.563178
11
4.015
21
-0.55622
0
LINE
8
BLACK
6
CONTINUOUS
10
4.015
20
-0.55622
11
4.01573
21
-0.549263
0
LINE
8
BLACK
6
CONTINUOUS
10
4.01573
20
-0.549263
11
4.01789
21
-0.542609
0
LINE
8
BLACK
6
CONTINUOUS
10
4.01789
20
-0.542609
11
4.02139
21
-0.536551
0
LINE
8
BLACK
6
CONTINUOUS
10
4.02139
20
-0.536551
11
4.02607
21
-0.531351
0
LINE
8
BLACK
6
CONTINUOUS
10
4.02607
20
-0.531351
11
4.03173
21
-0.527239
0
LINE
8
BLACK
6
CONTINUOUS
10
4.03173
20
-0.527239
11
4.03812
21
-0.524394
0
LINE
8
BLACK
6
CONTINUOUS
10
4.03812
20
-0.524394
11
4.04497
21
-0.522939
0
LINE
8
BLACK
6
CONTINUOUS
10
4.04497
20
-0.522939
11
4.05196
21
-0.522939
0
LINE
8
BLACK
6
CONTINUOUS
10
4.05196
20
-0.522939
11
4.05881
21
-0.524394
0
LINE
8
BLACK
6
CONTINUOUS
10
4.13755
20
-0.524394
11
4.14394
21
-0.527239
0
LINE
8
BLACK
6
CONTINUOUS
10
4.14394
20
-0.527239
11
4.1496
21
-0.531351
0
LINE
8
BLACK
6
CONTINUOUS
10
4.1496
20
-0.531351
11
4.15428
21
-0.536551
0
LINE
8
BLACK
6
CONTINUOUS
10
4.15428
20
-0.536551
11
4.15778
21
-0.542609
0
LINE
8
BLACK
6
CONTINUOUS
10
4.15778
20
-0.542609
11
4.15994
21
-0.549263
0
LINE
8
BLACK
6
CONTINUOUS
10
4.15994
20
-0.549263
11
4.16067
21
-0.55622
0
LINE
8
BLACK
6
CONTINUOUS
10
4.16067
20
-0.55622
11
4.15994
21
-0.563178
0
LINE
8
BLACK
6
CONTINUOUS
10
4.15994
20
-0.563178
11
4.15778
21
-0.569832
0
LINE
8
BLACK
6
CONTINUOUS
10
4.15778
20
-0.569832
11
4.15428
21
-0.57589
0
LINE
8
BLACK
6
CONTINUOUS
10
4.15428
20
-0.57589
11
4.1496
21
-0.581089
0
LINE
8
BLACK
6
CONTINUOUS
10
4.1496
20
-0.581089
11
4.14394
21
-0.585202
0
LINE
8
BLACK
6
CONTINUOUS
10
4.14394
20
-0.585202
11
4.13755
21
-0.588047
0
LINE
8
BLACK
6
CONTINUOUS
10
4.13755
20
-0.588047
11
4.1307
21
-0.589502
0
LINE
8
BLACK
6
CONTINUOUS
10
4.1307
20
-0.589502
11
4.12371
21
-0.589502
0
LINE
8
BLACK
6
CONTINUOUS
10
4.12371
20
-0.589502
11
4.11686
21
-0.588047
0
LINE
8
BLACK
6
CONTINUOUS
10
4.11686
20
-0.588047
11
4.11047
21
-0.585202
0
LINE
8
BLACK
6
CONTINUOUS
10
4.11047
20
-0.585202
11
4.10481
21
-0.581089
0
LINE
8
BLACK
6
CONTINUOUS
10
4.10481
20
-0.581089
11
4.10013
21
-0.57589
0
LINE
8
BLACK
6
CONTINUOUS
10
4.10013
20
-0.57589
11
4.09663
21
-0.569832
0
LINE
8
BLACK
6
CONTINUOUS
10
4.09663
20
-0.569832
11
4.09447
21
-0.563178
0
LINE
8
BLACK
6
CONTINUOUS
10
4.09447
20
-0.563178
11
4.09374
21
-0.55622
0
LINE
8
BLACK
6
CONTINUOUS
10
4.09374
20
-0.55622
11
4.09447
21
-0.549263
0
LINE
8
BLACK
6
CONTINUOUS
10
4.09447
20
-0.549263
11
4.09663
21
-0.542609
0
LINE
8
BLACK
6
CONTINUOUS
10
4.09663
20
-0.542609
11
4.10013
21
-0.536551
0
LINE
8
BLACK
6
CONTINUOUS
10
4.10013
20
-0.536551
11
4.10481
21
-0.531351
0
LINE
8
BLACK
6
CONTINUOUS
10
4.10481
20
-0.531351
11
4.11047
21
-0.527239
0
LINE
8
BLACK
6
CONTINUOUS
10
4.11047
20
-0.527239
11
4.11686
21
-0.524394
0
LINE
8
BLACK
6
CONTINUOUS
10
4.11686
20
-0.524394
11
4.12371
21
-0.522939
0
LINE
8
BLACK
6
CONTINUOUS
10
4.12371
20
-0.522939
11
4.1307
21
-0.522939
0
LINE
8
BLACK
6
CONTINUOUS
10
4.1307
20
-0.522939
11
4.13755
21
-0.524394
0
LINE
8
BLACK
6
CONTINUOUS
10
5.19244
20
-0.565748
11
5.13244
21
-0.565748
0
LINE
8
BLACK
6
CONTINUOUS
10
5.13244
20
-0.565748
11
5.13244
21
-0.505748
0
LINE
8
BLACK
6
CONTINUOUS
10
5.13244
20
-0.505748
11
5.19244
21
-0.505748
0
LINE
8
BLACK
6
CONTINUOUS
10
5.19244
20
-0.505748
11
5.19244
21
-0.565748
0
LINE
8
BLACK
6
CONTINUOUS
10
2.95545
20
-0.494859
11
2.95736
21
-0.496139
0
LINE
8
BLACK
6
CONTINUOUS
10
2.95736
20
-0.496139
11
2.95864
21
-0.498055
0
LINE
8
BLACK
6
CONTINUOUS
10
2.95864
20
-0.498055
11
2.95909
21
-0.500315
0
LINE
8
BLACK
6
CONTINUOUS
10
2.95909
20
-0.500315
11
2.95909
21
-0.555433
0
LINE
8
BLACK
6
CONTINUOUS
10
2.95909
20
-0.555433
11
2.95864
21
-0.557693
0
LINE
8
BLACK
6
CONTINUOUS
10
2.95864
20
-0.557693
11
2.95736
21
-0.559609
0
LINE
8
BLACK
6
CONTINUOUS
10
2.95736
20
-0.559609
11
2.95545
21
-0.560889
0
LINE
8
BLACK
6
CONTINUOUS
10
2.95545
20
-0.560889
11
2.95319
21
-0.561339
0
LINE
8
BLACK
6
CONTINUOUS
10
2.95319
20
-0.561339
11
2.94138
21
-0.561339
0
LINE
8
BLACK
6
CONTINUOUS
10
2.94138
20
-0.561339
11
2.93912
21
-0.560889
0
LINE
8
BLACK
6
CONTINUOUS
10
2.93912
20
-0.560889
11
2.9372
21
-0.559609
0
LINE
8
BLACK
6
CONTINUOUS
10
2.9372
20
-0.559609
11
2.93592
21
-0.557693
0
LINE
8
BLACK
6
CONTINUOUS
10
2.93592
20
-0.557693
11
2.93547
21
-0.555433
0
LINE
8
BLACK
6
CONTINUOUS
10
2.93547
20
-0.555433
11
2.93547
21
-0.500315
0
LINE
8
BLACK
6
CONTINUOUS
10
2.93547
20
-0.500315
11
2.93592
21
-0.498055
0
LINE
8
BLACK
6
CONTINUOUS
10
2.93592
20
-0.498055
11
2.9372
21
-0.496139
0
LINE
8
BLACK
6
CONTINUOUS
10
2.9372
20
-0.496139
11
2.93912
21
-0.494859
0
LINE
8
BLACK
6
CONTINUOUS
10
2.93912
20
-0.494859
11
2.94138
21
-0.494409
0
LINE
8
BLACK
6
CONTINUOUS
10
2.94138
20
-0.494409
11
2.95319
21
-0.494409
0
LINE
8
BLACK
6
CONTINUOUS
10
2.95319
20
-0.494409
11
2.95545
21
-0.494859
0
LINE
8
BLACK
6
CONTINUOUS
10
2.7586
20
-0.494859
11
2.76051
21
-0.496139
0
LINE
8
BLACK
6
CONTINUOUS
10
2.76051
20
-0.496139
11
2.76179
21
-0.498055
0
LINE
8
BLACK
6
CONTINUOUS
10
2.76179
20
-0.498055
11
2.76224
21
-0.500315
0
LINE
8
BLACK
6
CONTINUOUS
10
2.76224
20
-0.500315
11
2.76224
21
-0.555433
0
LINE
8
BLACK
6
CONTINUOUS
10
2.76224
20
-0.555433
11
2.76179
21
-0.557693
0
LINE
8
BLACK
6
CONTINUOUS
10
2.76179
20
-0.557693
11
2.76051
21
-0.559609
0
LINE
8
BLACK
6
CONTINUOUS
10
2.76051
20
-0.559609
11
2.7586
21
-0.560889
0
LINE
8
BLACK
6
CONTINUOUS
10
2.7586
20
-0.560889
11
2.75634
21
-0.561339
0
LINE
8
BLACK
6
CONTINUOUS
10
2.75634
20
-0.561339
11
2.74453
21
-0.561339
0
LINE
8
BLACK
6
CONTINUOUS
10
2.74453
20
-0.561339
11
2.74227
21
-0.560889
0
LINE
8
BLACK
6
CONTINUOUS
10
2.74227
20
-0.560889
11
2.74035
21
-0.559609
0
LINE
8
BLACK
6
CONTINUOUS
10
2.74035
20
-0.559609
11
2.73907
21
-0.557693
0
LINE
8
BLACK
6
CONTINUOUS
10
2.73907
20
-0.557693
11
2.73862
21
-0.555433
0
LINE
8
BLACK
6
CONTINUOUS
10
2.73862
20
-0.555433
11
2.73862
21
-0.500315
0
LINE
8
BLACK
6
CONTINUOUS
10
2.73862
20
-0.500315
11
2.73907
21
-0.498055
0
LINE
8
BLACK
6
CONTINUOUS
10
2.73907
20
-0.498055
11
2.74035
21
-0.496139
0
LINE
8
BLACK
6
CONTINUOUS
10
2.74035
20
-0.496139
11
2.74227
21
-0.494859
0
LINE
8
BLACK
6
CONTINUOUS
10
2.74227
20
-0.494859
11
2.74453
21
-0.494409
0
LINE
8
BLACK
6
CONTINUOUS
10
2.74453
20
-0.494409
11
2.75634
21
-0.494409
0
LINE
8
BLACK
6
CONTINUOUS
10
2.75634
20
-0.494409
11
2.7586
21
-0.494859
0
LINE
8
BLACK
6
CONTINUOUS
10
2.80781
20
-0.494859
11
2.80973
21
-0.496139
0
LINE
8
BLACK
6
CONTINUOUS
10
2.80973
20
-0.496139
11
2.81101
21
-0.498055
0
LINE
8
BLACK
6
CONTINUOUS
10
2.81101
20
-0.498055
11
2.81146
21
-0.500315
0
LINE
8
BLACK
6
CONTINUOUS
10
2.81146
20
-0.500315
11
2.81146
21
-0.555433
0
LINE
8
BLACK
6
CONTINUOUS
10
2.81146
20
-0.555433
11
2.81101
21
-0.557693
0
LINE
8
BLACK
6
CONTINUOUS
10
2.81101
20
-0.557693
11
2.80973
21
-0.559609
0
LINE
8
BLACK
6
CONTINUOUS
10
2.80973
20
-0.559609
11
2.80781
21
-0.560889
0
LINE
8
BLACK
6
CONTINUOUS
10
2.80781
20
-0.560889
11
2.80555
21
-0.561339
0
LINE
8
BLACK
6
CONTINUOUS
10
2.80555
20
-0.561339
11
2.79374
21
-0.561339
0
LINE
8
BLACK
6
CONTINUOUS
10
2.79374
20
-0.561339
11
2.79148
21
-0.560889
0
LINE
8
BLACK
6
CONTINUOUS
10
2.79148
20
-0.560889
11
2.78956
21
-0.559609
0
LINE
8
BLACK
6
CONTINUOUS
10
2.78956
20
-0.559609
11
2.78828
21
-0.557693
0
LINE
8
BLACK
6
CONTINUOUS
10
2.78828
20
-0.557693
11
2.78783
21
-0.555433
0
LINE
8
BLACK
6
CONTINUOUS
10
2.78783
20
-0.555433
11
2.78783
21
-0.500315
0
LINE
8
BLACK
6
CONTINUOUS
10
2.78783
20
-0.500315
11
2.78828
21
-0.498055
0
LINE
8
BLACK
6
CONTINUOUS
10
2.78828
20
-0.498055
11
2.78956
21
-0.496139
0
LINE
8
BLACK
6
CONTINUOUS
10
2.78956
20
-0.496139
11
2.79148
21
-0.494859
0
LINE
8
BLACK
6
CONTINUOUS
10
2.79148
20
-0.494859
11
2.79374
21
-0.494409
0
LINE
8
BLACK
6
CONTINUOUS
10
2.79374
20
-0.494409
11
2.80555
21
-0.494409
0
LINE
8
BLACK
6
CONTINUOUS
10
2.80555
20
-0.494409
11
2.80781
21
-0.494859
0
LINE
8
BLACK
6
CONTINUOUS
10
2.85702
20
-0.494859
11
2.85894
21
-0.496139
0
LINE
8
BLACK
6
CONTINUOUS
10
2.85894
20
-0.496139
11
2.86022
21
-0.498055
0
LINE
8
BLACK
6
CONTINUOUS
10
2.86022
20
-0.498055
11
2.86067
21
-0.500315
0
LINE
8
BLACK
6
CONTINUOUS
10
2.86067
20
-0.500315
11
2.86067
21
-0.555433
0
LINE
8
BLACK
6
CONTINUOUS
10
2.86067
20
-0.555433
11
2.86022
21
-0.557693
0
LINE
8
BLACK
6
CONTINUOUS
10
2.86022
20
-0.557693
11
2.85894
21
-0.559609
0
LINE
8
BLACK
6
CONTINUOUS
10
2.85894
20
-0.559609
11
2.85702
21
-0.560889
0
LINE
8
BLACK
6
CONTINUOUS
10
2.85702
20
-0.560889
11
2.85476
21
-0.561339
0
LINE
8
BLACK
6
CONTINUOUS
10
2.85476
20
-0.561339
11
2.84295
21
-0.561339
0
LINE
8
BLACK
6
CONTINUOUS
10
2.84295
20
-0.561339
11
2.84069
21
-0.560889
0
LINE
8
BLACK
6
CONTINUOUS
10
2.84069
20
-0.560889
11
2.83878
21
-0.559609
0
LINE
8
BLACK
6
CONTINUOUS
10
2.83878
20
-0.559609
11
2.8375
21
-0.557693
0
LINE
8
BLACK
6
CONTINUOUS
10
2.8375
20
-0.557693
11
2.83705
21
-0.555433
0
LINE
8
BLACK
6
CONTINUOUS
10
2.83705
20
-0.555433
11
2.83705
21
-0.500315
0
LINE
8
BLACK
6
CONTINUOUS
10
2.83705
20
-0.500315
11
2.8375
21
-0.498055
0
LINE
8
BLACK
6
CONTINUOUS
10
2.8375
20
-0.498055
11
2.83878
21
-0.496139
0
LINE
8
BLACK
6
CONTINUOUS
10
2.83878
20
-0.496139
11
2.84069
21
-0.494859
0
LINE
8
BLACK
6
CONTINUOUS
10
2.84069
20
-0.494859
11
2.84295
21
-0.494409
0
LINE
8
BLACK
6
CONTINUOUS
10
2.84295
20
-0.494409
11
2.85476
21
-0.494409
0
LINE
8
BLACK
6
CONTINUOUS
10
2.85476
20
-0.494409
11
2.85702
21
-0.494859
0
LINE
8
BLACK
6
CONTINUOUS
10
2.90624
20
-0.494859
11
2.90815
21
-0.496139
0
LINE
8
BLACK
6
CONTINUOUS
10
2.90815
20
-0.496139
11
2.90943
21
-0.498055
0
LINE
8
BLACK
6
CONTINUOUS
10
2.90943
20
-0.498055
11
2.90988
21
-0.500315
0
LINE
8
BLACK
6
CONTINUOUS
10
2.90988
20
-0.500315
11
2.90988
21
-0.555433
0
LINE
8
BLACK
6
CONTINUOUS
10
2.90988
20
-0.555433
11
2.90943
21
-0.557693
0
LINE
8
BLACK
6
CONTINUOUS
10
2.90943
20
-0.557693
11
2.90815
21
-0.559609
0
LINE
8
BLACK
6
CONTINUOUS
10
2.90815
20
-0.559609
11
2.90624
21
-0.560889
0
LINE
8
BLACK
6
CONTINUOUS
10
2.90624
20
-0.560889
11
2.90398
21
-0.561339
0
LINE
8
BLACK
6
CONTINUOUS
10
2.90398
20
-0.561339
11
2.89217
21
-0.561339
0
LINE
8
BLACK
6
CONTINUOUS
10
2.89217
20
-0.561339
11
2.88991
21
-0.560889
0
LINE
8
BLACK
6
CONTINUOUS
10
2.88991
20
-0.560889
11
2.88799
21
-0.559609
0
LINE
8
BLACK
6
CONTINUOUS
10
2.88799
20
-0.559609
11
2.88671
21
-0.557693
0
LINE
8
BLACK
6
CONTINUOUS
10
2.88671
20
-0.557693
11
2.88626
21
-0.555433
0
LINE
8
BLACK
6
CONTINUOUS
10
2.88626
20
-0.555433
11
2.88626
21
-0.500315
0
LINE
8
BLACK
6
CONTINUOUS
10
2.88626
20
-0.500315
11
2.88671
21
-0.498055
0
LINE
8
BLACK
6
CONTINUOUS
10
2.88671
20
-0.498055
11
2.88799
21
-0.496139
0
LINE
8
BLACK
6
CONTINUOUS
10
2.88799
20
-0.496139
11
2.88991
21
-0.494859
0
LINE
8
BLACK
6
CONTINUOUS
10
2.88991
20
-0.494859
11
2.89217
21
-0.494409
0
LINE
8
BLACK
6
CONTINUOUS
10
2.89217
20
-0.494409
11
2.90398
21
-0.494409
0
LINE
8
BLACK
6
CONTINUOUS
10
2.90398
20
-0.494409
11
2.90624
21
-0.494859
0
LINE
8
BLACK
6
CONTINUOUS
10
3.00466
20
-0.494859
11
3.00658
21
-0.496139
0
LINE
8
BLACK
6
CONTINUOUS
10
3.00658
20
-0.496139
11
3.00786
21
-0.498055
0
LINE
8
BLACK
6
CONTINUOUS
10
3.00786
20
-0.498055
11
3.00831
21
-0.500315
0
LINE
8
BLACK
6
CONTINUOUS
10
3.00831
20
-0.500315
11
3.00831
21
-0.555433
0
LINE
8
BLACK
6
CONTINUOUS
10
3.00831
20
-0.555433
11
3.00786
21
-0.557693
0
LINE
8
BLACK
6
CONTINUOUS
10
3.00786
20
-0.557693
11
3.00658
21
-0.559609
0
LINE
8
BLACK
6
CONTINUOUS
10
3.00658
20
-0.559609
11
3.00466
21
-0.560889
0
LINE
8
BLACK
6
CONTINUOUS
10
3.00466
20
-0.560889
11
3.0024
21
-0.561339
0
LINE
8
BLACK
6
CONTINUOUS
10
3.0024
20
-0.561339
11
2.99059
21
-0.561339
0
LINE
8
BLACK
6
CONTINUOUS
10
2.99059
20
-0.561339
11
2.98833
21
-0.560889
0
LINE
8
BLACK
6
CONTINUOUS
10
2.98833
20
-0.560889
11
2.98641
21
-0.559609
0
LINE
8
BLACK
6
CONTINUOUS
10
2.98641
20
-0.559609
11
2.98513
21
-0.557693
0
LINE
8
BLACK
6
CONTINUOUS
10
2.98513
20
-0.557693
11
2.98469
21
-0.555433
0
LINE
8
BLACK
6
CONTINUOUS
10
2.98469
20
-0.555433
11
2.98469
21
-0.500315
0
LINE
8
BLACK
6
CONTINUOUS
10
2.98469
20
-0.500315
11
2.98513
21
-0.498055
0
LINE
8
BLACK
6
CONTINUOUS
10
2.98513
20
-0.498055
11
2.98641
21
-0.496139
0
LINE
8
BLACK
6
CONTINUOUS
10
2.98641
20
-0.496139
11
2.98833
21
-0.494859
0
LINE
8
BLACK
6
CONTINUOUS
10
2.98833
20
-0.494859
11
2.99059
21
-0.494409
0
LINE
8
BLACK
6
CONTINUOUS
10
2.99059
20
-0.494409
11
3.0024
21
-0.494409
0
LINE
8
BLACK
6
CONTINUOUS
10
3.0024
20
-0.494409
11
3.00466
21
-0.494859
0
LINE
8
BLACK
6
CONTINUOUS
10
4.7822
20
-0.553937
11
4.7222
21
-0.553937
0
LINE
8
BLACK
6
CONTINUOUS
10
4.7222
20
-0.553937
11
4.7222
21
-0.493937
0
LINE
8
BLACK
6
CONTINUOUS
10
4.7222
20
-0.493937
11
4.7822
21
-0.493937
0
LINE
8
BLACK
6
CONTINUOUS
10
4.7822
20
-0.493937
11
4.7822
21
-0.553937
0
LINE
8
BLACK
6
CONTINUOUS
10
4.8822
20
-0.553937
11
4.8222
21
-0.553937
0
LINE
8
BLACK
6
CONTINUOUS
10
4.8222
20
-0.553937
11
4.8222
21
-0.493937
0
LINE
8
BLACK
6
CONTINUOUS
10
4.8222
20
-0.493937
11
4.8822
21
-0.493937
0
LINE
8
BLACK
6
CONTINUOUS
10
4.8822
20
-0.493937
11
4.8822
21
-0.553937
0
LINE
8
BLACK
6
CONTINUOUS
10
4.98748
20
-0.543248
11
4.95248
21
-0.543248
0
LINE
8
BLACK
6
CONTINUOUS
10
4.95248
20
-0.543248
11
4.95248
21
-0.488248
0
LINE
8
BLACK
6
CONTINUOUS
10
4.95248
20
-0.488248
11
4.98748
21
-0.488248
0
LINE
8
BLACK
6
CONTINUOUS
10
4.98748
20
-0.488248
11
4.98748
21
-0.543248
0
LINE
8
BLACK
6
CONTINUOUS
10
5.06248
20
-0.543248
11
5.02748
21
-0.543248
0
LINE
8
BLACK
6
CONTINUOUS
10
5.02748
20
-0.543248
11
5.02748
21
-0.488248
0
LINE
8
BLACK
6
CONTINUOUS
10
5.02748
20
-0.488248
11
5.06248
21
-0.488248
0
LINE
8
BLACK
6
CONTINUOUS
10
5.06248
20
-0.488248
11
5.06248
21
-0.543248
0
LINE
8
BLACK
6
CONTINUOUS
10
3.2672
20
-0.534193
11
3.2322
21
-0.534193
0
LINE
8
BLACK
6
CONTINUOUS
10
3.2322
20
-0.534193
11
3.2322
21
-0.479193
0
LINE
8
BLACK
6
CONTINUOUS
10
3.2322
20
-0.479193
11
3.2672
21
-0.479193
0
LINE
8
BLACK
6
CONTINUOUS
10
3.2672
20
-0.479193
11
3.2672
21
-0.534193
0
LINE
8
BLACK
6
CONTINUOUS
10
3.1922
20
-0.534193
11
3.1572
21
-0.534193
0
LINE
8
BLACK
6
CONTINUOUS
10
3.1572
20
-0.534193
11
3.1572
21
-0.479193
0
LINE
8
BLACK
6
CONTINUOUS
10
3.1572
20
-0.479193
11
3.1922
21
-0.479193
0
LINE
8
BLACK
6
CONTINUOUS
10
3.1922
20
-0.479193
11
3.1922
21
-0.534193
0
LINE
8
BLACK
6
CONTINUOUS
10
4.08193
20
-0.49126
11
4.015
21
-0.49126
0
LINE
8
BLACK
6
CONTINUOUS
10
4.015
20
-0.49126
11
4.015
21
-0.424331
0
LINE
8
BLACK
6
CONTINUOUS
10
4.015
20
-0.424331
11
4.08193
21
-0.424331
0
LINE
8
BLACK
6
CONTINUOUS
10
4.08193
20
-0.424331
11
4.08193
21
-0.49126
0
LINE
8
BLACK
6
CONTINUOUS
10
4.13755
20
-0.425969
11
4.14394
21
-0.428814
0
LINE
8
BLACK
6
CONTINUOUS
10
4.14394
20
-0.428814
11
4.1496
21
-0.432926
0
LINE
8
BLACK
6
CONTINUOUS
10
4.1496
20
-0.432926
11
4.15428
21
-0.438125
0
LINE
8
BLACK
6
CONTINUOUS
10
4.15428
20
-0.438125
11
4.15778
21
-0.444184
0
LINE
8
BLACK
6
CONTINUOUS
10
4.15778
20
-0.444184
11
4.15994
21
-0.450838
0
LINE
8
BLACK
6
CONTINUOUS
10
4.15994
20
-0.450838
11
4.16067
21
-0.457795
0
LINE
8
BLACK
6
CONTINUOUS
10
4.16067
20
-0.457795
11
4.15994
21
-0.464753
0
LINE
8
BLACK
6
CONTINUOUS
10
4.15994
20
-0.464753
11
4.15778
21
-0.471407
0
LINE
8
BLACK
6
CONTINUOUS
10
4.15778
20
-0.471407
11
4.15428
21
-0.477465
0
LINE
8
BLACK
6
CONTINUOUS
10
4.15428
20
-0.477465
11
4.1496
21
-0.482664
0
LINE
8
BLACK
6
CONTINUOUS
10
4.1496
20
-0.482664
11
4.14394
21
-0.486776
0
LINE
8
BLACK
6
CONTINUOUS
10
4.14394
20
-0.486776
11
4.13755
21
-0.489622
0
LINE
8
BLACK
6
CONTINUOUS
10
4.13755
20
-0.489622
11
4.1307
21
-0.491077
0
LINE
8
BLACK
6
CONTINUOUS
10
4.1307
20
-0.491077
11
4.12371
21
-0.491077
0
LINE
8
BLACK
6
CONTINUOUS
10
4.12371
20
-0.491077
11
4.11686
21
-0.489622
0
LINE
8
BLACK
6
CONTINUOUS
10
4.11686
20
-0.489622
11
4.11047
21
-0.486776
0
LINE
8
BLACK
6
CONTINUOUS
10
4.11047
20
-0.486776
11
4.10481
21
-0.482664
0
LINE
8
BLACK
6
CONTINUOUS
10
4.10481
20
-0.482664
11
4.10013
21
-0.477465
0
LINE
8
BLACK
6
CONTINUOUS
10
4.10013
20
-0.477465
11
4.09663
21
-0.471407
0
LINE
8
BLACK
6
CONTINUOUS
10
4.09663
20
-0.471407
11
4.09447
21
-0.464753
0
LINE
8
BLACK
6
CONTINUOUS
10
4.09447
20
-0.464753
11
4.09374
21
-0.457795
0
LINE
8
BLACK
6
CONTINUOUS
10
4.09374
20
-0.457795
11
4.09447
21
-0.450838
0
LINE
8
BLACK
6
CONTINUOUS
10
4.09447
20
-0.450838
11
4.09663
21
-0.444184
0
LINE
8
BLACK
6
CONTINUOUS
10
4.09663
20
-0.444184
11
4.10013
21
-0.438125
0
LINE
8
BLACK
6
CONTINUOUS
10
4.10013
20
-0.438125
11
4.10481
21
-0.432926
0
LINE
8
BLACK
6
CONTINUOUS
10
4.10481
20
-0.432926
11
4.11047
21
-0.428814
0
LINE
8
BLACK
6
CONTINUOUS
10
4.11047
20
-0.428814
11
4.11686
21
-0.425969
0
LINE
8
BLACK
6
CONTINUOUS
10
4.11686
20
-0.425969
11
4.12371
21
-0.424514
0
LINE
8
BLACK
6
CONTINUOUS
10
4.12371
20
-0.424514
11
4.1307
21
-0.424514
0
LINE
8
BLACK
6
CONTINUOUS
10
4.1307
20
-0.424514
11
4.13755
21
-0.425969
0
LINE
8
BLACK
6
CONTINUOUS
10
5.05571
20
-0.332319
11
5.06466
21
-0.334717
0
LINE
8
BLACK
6
CONTINUOUS
10
5.06466
20
-0.334717
11
5.07306
21
-0.338633
0
LINE
8
BLACK
6
CONTINUOUS
10
5.07306
20
-0.338633
11
5.08064
21
-0.343946
0
LINE
8
BLACK
6
CONTINUOUS
10
5.08064
20
-0.343946
11
5.0872
21
-0.350498
0
LINE
8
BLACK
6
CONTINUOUS
10
5.0872
20
-0.350498
11
5.09251
21
-0.358087
0
LINE
8
BLACK
6
CONTINUOUS
10
5.09251
20
-0.358087
11
5.09642
21
-0.366483
0
LINE
8
BLACK
6
CONTINUOUS
10
5.09642
20
-0.366483
11
5.09882
21
-0.375432
0
LINE
8
BLACK
6
CONTINUOUS
10
5.09882
20
-0.375432
11
5.09963
21
-0.384661
0
LINE
8
BLACK
6
CONTINUOUS
10
5.09963
20
-0.384661
11
5.09882
21
-0.393891
0
LINE
8
BLACK
6
CONTINUOUS
10
5.09882
20
-0.393891
11
5.09642
21
-0.40284
0
LINE
8
BLACK
6
CONTINUOUS
10
5.09642
20
-0.40284
11
5.09251
21
-0.411236
0
LINE
8
BLACK
6
CONTINUOUS
10
5.09251
20
-0.411236
11
5.0872
21
-0.418825
0
LINE
8
BLACK
6
CONTINUOUS
10
5.0872
20
-0.418825
11
5.08064
21
-0.425376
0
LINE
8
BLACK
6
CONTINUOUS
10
5.08064
20
-0.425376
11
5.07306
21
-0.43069
0
LINE
8
BLACK
6
CONTINUOUS
10
5.07306
20
-0.43069
11
5.06466
21
-0.434606
0
LINE
8
BLACK
6
CONTINUOUS
10
5.06466
20
-0.434606
11
5.05571
21
-0.437004
0
LINE
8
BLACK
6
CONTINUOUS
10
5.05571
20
-0.437004
11
5.04648
21
-0.437811
0
LINE
8
BLACK
6
CONTINUOUS
10
5.04648
20
-0.437811
11
5.03725
21
-0.437004
0
LINE
8
BLACK
6
CONTINUOUS
10
5.03725
20
-0.437004
11
5.0283
21
-0.434606
0
LINE
8
BLACK
6
CONTINUOUS
10
5.0283
20
-0.434606
11
5.01991
21
-0.43069
0
LINE
8
BLACK
6
CONTINUOUS
10
5.01991
20
-0.43069
11
5.01232
21
-0.425376
0
LINE
8
BLACK
6
CONTINUOUS
10
5.01232
20
-0.425376
11
5.00577
21
-0.418825
0
LINE
8
BLACK
6
CONTINUOUS
10
5.00577
20
-0.418825
11
5.00045
21
-0.411236
0
LINE
8
BLACK
6
CONTINUOUS
10
5.00045
20
-0.411236
11
4.99654
21
-0.40284
0
LINE
8
BLACK
6
CONTINUOUS
10
4.99654
20
-0.40284
11
4.99414
21
-0.393891
0
LINE
8
BLACK
6
CONTINUOUS
10
4.99414
20
-0.393891
11
4.99333
21
-0.384661
0
LINE
8
BLACK
6
CONTINUOUS
10
4.99333
20
-0.384661
11
4.99414
21
-0.375432
0
LINE
8
BLACK
6
CONTINUOUS
10
4.99414
20
-0.375432
11
4.99654
21
-0.366483
0
LINE
8
BLACK
6
CONTINUOUS
10
4.99654
20
-0.366483
11
5.00045
21
-0.358087
0
LINE
8
BLACK
6
CONTINUOUS
10
5.00045
20
-0.358087
11
5.00577
21
-0.350498
0
LINE
8
BLACK
6
CONTINUOUS
10
5.00577
20
-0.350498
11
5.01232
21
-0.343946
0
LINE
8
BLACK
6
CONTINUOUS
10
5.01232
20
-0.343946
11
5.01991
21
-0.338633
0
LINE
8
BLACK
6
CONTINUOUS
10
5.01991
20
-0.338633
11
5.0283
21
-0.334717
0
LINE
8
BLACK
6
CONTINUOUS
10
5.0283
20
-0.334717
11
5.03725
21
-0.332319
0
LINE
8
BLACK
6
CONTINUOUS
10
5.03725
20
-0.332319
11
5.04648
21
-0.331512
0
LINE
8
BLACK
6
CONTINUOUS
10
5.04648
20
-0.331512
11
5.05571
21
-0.332319
0
LINE
8
BLACK
6
CONTINUOUS
10
2.35161
20
-0.418689
11
2.15476
21
-0.418689
0
LINE
8
BLACK
6
CONTINUOUS
10
2.15476
20
-0.418689
11
2.15476
21
-0.320264
0
LINE
8
BLACK
6
CONTINUOUS
10
2.15476
20
-0.320264
11
2.35161
21
-0.320264
0
LINE
8
BLACK
6
CONTINUOUS
10
2.35161
20
-0.320264
11
2.35161
21
-0.418689
0
LINE
8
BLACK
6
CONTINUOUS
10
1.39886
20
-0.418689
11
1.20201
21
-0.418689
0
LINE
8
BLACK
6
CONTINUOUS
10
1.20201
20
-0.418689
11
1.20201
21
-0.320264
0
LINE
8
BLACK
6
CONTINUOUS
10
1.20201
20
-0.320264
11
1.39886
21
-0.320264
0
LINE
8
BLACK
6
CONTINUOUS
10
1.39886
20
-0.320264
11
1.39886
21
-0.418689
0
LINE
8
BLACK
6
CONTINUOUS
10
5.23039
20
-0.416083
11
5.19539
21
-0.416083
0
LINE
8
BLACK
6
CONTINUOUS
10
5.19539
20
-0.416083
11
5.19539
21
-0.361083
0
LINE
8
BLACK
6
CONTINUOUS
10
5.19539
20
-0.361083
11
5.23039
21
-0.361083
0
LINE
8
BLACK
6
CONTINUOUS
10
5.23039
20
-0.361083
11
5.23039
21
-0.416083
0
LINE
8
BLACK
6
CONTINUOUS
10
5.30539
20
-0.416083
11
5.27039
21
-0.416083
0
LINE
8
BLACK
6
CONTINUOUS
10
5.27039
20
-0.416083
11
5.27039
21
-0.361083
0
LINE
8
BLACK
6
CONTINUOUS
10
5.27039
20
-0.361083
11
5.30539
21
-0.361083
0
LINE
8
BLACK
6
CONTINUOUS
10
5.30539
20
-0.361083
11
5.30539
21
-0.416083
0
LINE
8
BLACK
6
CONTINUOUS
10
5.14687
20
-0.414189
11
5.10947
21
-0.414189
0
LINE
8
BLACK
6
CONTINUOUS
10
5.10947
20
-0.414189
11
5.10947
21
-0.355134
0
LINE
8
BLACK
6
CONTINUOUS
10
5.10947
20
-0.355134
11
5.14687
21
-0.355134
0
LINE
8
BLACK
6
CONTINUOUS
10
5.14687
20
-0.355134
11
5.14687
21
-0.414189
0
LINE
8
BLACK
6
CONTINUOUS
10
4.98349
20
-0.414189
11
4.94609
21
-0.414189
0
LINE
8
BLACK
6
CONTINUOUS
10
4.94609
20
-0.414189
11
4.94609
21
-0.355134
0
LINE
8
BLACK
6
CONTINUOUS
10
4.94609
20
-0.355134
11
4.98349
21
-0.355134
0
LINE
8
BLACK
6
CONTINUOUS
10
4.98349
20
-0.355134
11
4.98349
21
-0.414189
0
LINE
8
BLACK
6
CONTINUOUS
10
3.18097
20
-0.308151
11
3.18416
21
-0.310284
0
LINE
8
BLACK
6
CONTINUOUS
10
3.18416
20
-0.310284
11
3.1863
21
-0.313478
0
LINE
8
BLACK
6
CONTINUOUS
10
3.1863
20
-0.313478
11
3.18705
21
-0.317244
0
LINE
8
BLACK
6
CONTINUOUS
10
3.18705
20
-0.317244
11
3.18705
21
-0.403858
0
LINE
8
BLACK
6
CONTINUOUS
10
3.18705
20
-0.403858
11
3.1863
21
-0.407625
0
LINE
8
BLACK
6
CONTINUOUS
10
3.1863
20
-0.407625
11
3.18416
21
-0.410818
0
LINE
8
BLACK
6
CONTINUOUS
10
3.18416
20
-0.410818
11
3.18097
21
-0.412952
0
LINE
8
BLACK
6
CONTINUOUS
10
3.18097
20
-0.412952
11
3.1772
21
-0.413701
0
LINE
8
BLACK
6
CONTINUOUS
10
3.1772
20
-0.413701
11
3.15752
21
-0.413701
0
LINE
8
BLACK
6
CONTINUOUS
10
3.15752
20
-0.413701
11
3.15375
21
-0.412952
0
LINE
8
BLACK
6
CONTINUOUS
10
3.15375
20
-0.412952
11
3.15056
21
-0.410818
0
LINE
8
BLACK
6
CONTINUOUS
10
3.15056
20
-0.410818
11
3.14843
21
-0.407625
0
LINE
8
BLACK
6
CONTINUOUS
10
3.14843
20
-0.407625
11
3.14768
21
-0.403858
0
LINE
8
BLACK
6
CONTINUOUS
10
3.14768
20
-0.403858
11
3.14768
21
-0.317244
0
LINE
8
BLACK
6
CONTINUOUS
10
3.14768
20
-0.317244
11
3.14843
21
-0.313478
0
LINE
8
BLACK
6
CONTINUOUS
10
3.14843
20
-0.313478
11
3.15056
21
-0.310284
0
LINE
8
BLACK
6
CONTINUOUS
10
3.15056
20
-0.310284
11
3.15375
21
-0.308151
0
LINE
8
BLACK
6
CONTINUOUS
10
3.15375
20
-0.308151
11
3.15752
21
-0.307402
0
LINE
8
BLACK
6
CONTINUOUS
10
3.15752
20
-0.307402
11
3.1772
21
-0.307402
0
LINE
8
BLACK
6
CONTINUOUS
10
3.1772
20
-0.307402
11
3.18097
21
-0.308151
0
LINE
8
BLACK
6
CONTINUOUS
10
2.69081
20
-0.308151
11
2.69401
21
-0.310284
0
LINE
8
BLACK
6
CONTINUOUS
10
2.69401
20
-0.310284
11
2.69614
21
-0.313478
0
LINE
8
BLACK
6
CONTINUOUS
10
2.69614
20
-0.313478
11
2.69689
21
-0.317244
0
LINE
8
BLACK
6
CONTINUOUS
10
2.69689
20
-0.317244
11
2.69689
21
-0.403858
0
LINE
8
BLACK
6
CONTINUOUS
10
2.69689
20
-0.403858
11
2.69614
21
-0.407625
0
LINE
8
BLACK
6
CONTINUOUS
10
2.69614
20
-0.407625
11
2.69401
21
-0.410818
0
LINE
8
BLACK
6
CONTINUOUS
10
2.69401
20
-0.410818
11
2.69081
21
-0.412952
0
LINE
8
BLACK
6
CONTINUOUS
10
2.69081
20
-0.412952
11
2.68705
21
-0.413701
0
LINE
8
BLACK
6
CONTINUOUS
10
2.68705
20
-0.413701
11
2.66736
21
-0.413701
0
LINE
8
BLACK
6
CONTINUOUS
10
2.66736
20
-0.413701
11
2.6636
21
-0.412952
0
LINE
8
BLACK
6
CONTINUOUS
10
2.6636
20
-0.412952
11
2.6604
21
-0.410818
0
LINE
8
BLACK
6
CONTINUOUS
10
2.6604
20
-0.410818
11
2.65827
21
-0.407625
0
LINE
8
BLACK
6
CONTINUOUS
10
2.65827
20
-0.407625
11
2.65752
21
-0.403858
0
LINE
8
BLACK
6
CONTINUOUS
10
2.65752
20
-0.403858
11
2.65752
21
-0.317244
0
LINE
8
BLACK
6
CONTINUOUS
10
2.65752
20
-0.317244
11
2.65827
21
-0.313478
0
LINE
8
BLACK
6
CONTINUOUS
10
2.65827
20
-0.313478
11
2.6604
21
-0.310284
0
LINE
8
BLACK
6
CONTINUOUS
10
2.6604
20
-0.310284
11
2.6636
21
-0.308151
0
LINE
8
BLACK
6
CONTINUOUS
10
2.6636
20
-0.308151
11
2.66736
21
-0.307402
0
LINE
8
BLACK
6
CONTINUOUS
10
2.66736
20
-0.307402
11
2.68705
21
-0.307402
0
LINE
8
BLACK
6
CONTINUOUS
10
2.68705
20
-0.307402
11
2.69081
21
-0.308151
0
LINE
8
BLACK
6
CONTINUOUS
10
4.7822
20
-0.408661
11
4.7222
21
-0.408661
0
LINE
8
BLACK
6
CONTINUOUS
10
4.7222
20
-0.408661
11
4.7222
21
-0.348661
0
LINE
8
BLACK
6
CONTINUOUS
10
4.7222
20
-0.348661
11
4.7822
21
-0.348661
0
LINE
8
BLACK
6
CONTINUOUS
10
4.7822
20
-0.348661
11
4.7822
21
-0.408661
0
LINE
8
BLACK
6
CONTINUOUS
10
4.8822
20
-0.408661
11
4.8222
21
-0.408661
0
LINE
8
BLACK
6
CONTINUOUS
10
4.8222
20
-0.408661
11
4.8222
21
-0.348661
0
LINE
8
BLACK
6
CONTINUOUS
10
4.8222
20
-0.348661
11
4.8822
21
-0.348661
0
LINE
8
BLACK
6
CONTINUOUS
10
4.8822
20
-0.348661
11
4.8822
21
-0.408661
0
LINE
8
BLACK
6
CONTINUOUS
10
3.33084
20
-0.351355
11
3.33276
21
-0.352635
0
LINE
8
BLACK
6
CONTINUOUS
10
3.33276
20
-0.352635
11
3.33404
21
-0.354551
0
LINE
8
BLACK
6
CONTINUOUS
10
3.33404
20
-0.354551
11
3.33449
21
-0.356811
0
LINE
8
BLACK
6
CONTINUOUS
10
3.33449
20
-0.356811
11
3.33449
21
-0.368622
0
LINE
8
BLACK
6
CONTINUOUS
10
3.33449
20
-0.368622
11
3.33404
21
-0.370882
0
LINE
8
BLACK
6
CONTINUOUS
10
3.33404
20
-0.370882
11
3.33276
21
-0.372798
0
LINE
8
BLACK
6
CONTINUOUS
10
3.33276
20
-0.372798
11
3.33084
21
-0.374078
0
LINE
8
BLACK
6
CONTINUOUS
10
3.33084
20
-0.374078
11
3.32858
21
-0.374528
0
LINE
8
BLACK
6
CONTINUOUS
10
3.32858
20
-0.374528
11
3.26362
21
-0.374528
0
LINE
8
BLACK
6
CONTINUOUS
10
3.26362
20
-0.374528
11
3.26136
21
-0.374078
0
LINE
8
BLACK
6
CONTINUOUS
10
3.26136
20
-0.374078
11
3.25945
21
-0.372798
0
LINE
8
BLACK
6
CONTINUOUS
10
3.25945
20
-0.372798
11
3.25817
21
-0.370882
0
LINE
8
BLACK
6
CONTINUOUS
10
3.25817
20
-0.370882
11
3.25772
21
-0.368622
0
LINE
8
BLACK
6
CONTINUOUS
10
3.25772
20
-0.368622
11
3.25772
21
-0.356811
0
LINE
8
BLACK
6
CONTINUOUS
10
3.25772
20
-0.356811
11
3.25817
21
-0.354551
0
LINE
8
BLACK
6
CONTINUOUS
10
3.25817
20
-0.354551
11
3.25945
21
-0.352635
0
LINE
8
BLACK
6
CONTINUOUS
10
3.25945
20
-0.352635
11
3.26136
21
-0.351355
0
LINE
8
BLACK
6
CONTINUOUS
10
3.26136
20
-0.351355
11
3.26362
21
-0.350906
0
LINE
8
BLACK
6
CONTINUOUS
10
3.26362
20
-0.350906
11
3.32858
21
-0.350906
0
LINE
8
BLACK
6
CONTINUOUS
10
3.32858
20
-0.350906
11
3.33084
21
-0.351355
0
LINE
8
BLACK
6
CONTINUOUS
10
3.52572
20
-0.351355
11
3.52764
21
-0.352635
0
LINE
8
BLACK
6
CONTINUOUS
10
3.52764
20
-0.352635
11
3.52892
21
-0.354551
0
LINE
8
BLACK
6
CONTINUOUS
10
3.52892
20
-0.354551
11
3.52937
21
-0.356811
0
LINE
8
BLACK
6
CONTINUOUS
10
3.52937
20
-0.356811
11
3.52937
21
-0.368622
0
LINE
8
BLACK
6
CONTINUOUS
10
3.52937
20
-0.368622
11
3.52892
21
-0.370882
0
LINE
8
BLACK
6
CONTINUOUS
10
3.52892
20
-0.370882
11
3.52764
21
-0.372798
0
LINE
8
BLACK
6
CONTINUOUS
10
3.52764
20
-0.372798
11
3.52572
21
-0.374078
0
LINE
8
BLACK
6
CONTINUOUS
10
3.52572
20
-0.374078
11
3.52346
21
-0.374528
0
LINE
8
BLACK
6
CONTINUOUS
10
3.52346
20
-0.374528
11
3.4585
21
-0.374528
0
LINE
8
BLACK
6
CONTINUOUS
10
3.4585
20
-0.374528
11
3.45624
21
-0.374078
0
LINE
8
BLACK
6
CONTINUOUS
10
3.45624
20
-0.374078
11
3.45433
21
-0.372798
0
LINE
8
BLACK
6
CONTINUOUS
10
3.45433
20
-0.372798
11
3.45305
21
-0.370882
0
LINE
8
BLACK
6
CONTINUOUS
10
3.45305
20
-0.370882
11
3.4526
21
-0.368622
0
LINE
8
BLACK
6
CONTINUOUS
10
3.4526
20
-0.368622
11
3.4526
21
-0.356811
0
LINE
8
BLACK
6
CONTINUOUS
10
3.4526
20
-0.356811
11
3.45305
21
-0.354551
0
LINE
8
BLACK
6
CONTINUOUS
10
3.45305
20
-0.354551
11
3.45433
21
-0.352635
0
LINE
8
BLACK
6
CONTINUOUS
10
3.45433
20
-0.352635
11
3.45624
21
-0.351355
0
LINE
8
BLACK
6
CONTINUOUS
10
3.45624
20
-0.351355
11
3.4585
21
-0.350906
0
LINE
8
BLACK
6
CONTINUOUS
10
3.4585
20
-0.350906
11
3.52346
21
-0.350906
0
LINE
8
BLACK
6
CONTINUOUS
10
3.52346
20
-0.350906
11
3.52572
21
-0.351355
0
LINE
8
BLACK
6
CONTINUOUS
10
4.2399
20
-0.201365
11
4.24998
21
-0.203006
0
LINE
8
BLACK
6
CONTINUOUS
10
4.24998
20
-0.203006
11
4.25971
21
-0.206119
0
LINE
8
BLACK
6
CONTINUOUS
10
4.25971
20
-0.206119
11
4.26887
21
-0.210636
0
LINE
8
BLACK
6
CONTINUOUS
10
4.26887
20
-0.210636
11
4.27726
21
-0.216456
0
LINE
8
BLACK
6
CONTINUOUS
10
4.27726
20
-0.216456
11
4.28469
21
-0.223453
0
LINE
8
BLACK
6
CONTINUOUS
10
4.28469
20
-0.223453
11
4.29102
21
-0.231473
0
LINE
8
BLACK
6
CONTINUOUS
10
4.29102
20
-0.231473
11
4.29608
21
-0.240339
0
LINE
8
BLACK
6
CONTINUOUS
10
4.29608
20
-0.240339
11
4.29978
21
-0.249856
0
LINE
8
BLACK
6
CONTINUOUS
10
4.29978
20
-0.249856
11
4.30204
21
-0.259816
0
LINE
8
BLACK
6
CONTINUOUS
10
4.30204
20
-0.259816
11
4.3028
21
-0.27
0
LINE
8
BLACK
6
CONTINUOUS
10
4.3028
20
-0.27
11
4.3027
21
-0.273606
0
LINE
8
BLACK
6
CONTINUOUS
10
4.3027
20
-0.273606
11
4.30141
21
-0.283736
0
LINE
8
BLACK
6
CONTINUOUS
10
4.30141
20
-0.283736
11
4.29864
21
-0.293564
0
LINE
8
BLACK
6
CONTINUOUS
10
4.29864
20
-0.293564
11
4.29445
21
-0.302875
0
LINE
8
BLACK
6
CONTINUOUS
10
4.29445
20
-0.302875
11
4.28892
21
-0.311464
0
LINE
8
BLACK
6
CONTINUOUS
10
4.28892
20
-0.311464
11
4.28219
21
-0.319141
0
LINE
8
BLACK
6
CONTINUOUS
10
4.28219
20
-0.319141
11
4.27439
21
-0.325739
0
LINE
8
BLACK
6
CONTINUOUS
10
4.27439
20
-0.325739
11
4.26571
21
-0.331113
0
LINE
8
BLACK
6
CONTINUOUS
10
4.26571
20
-0.331113
11
4.25633
21
-0.335144
0
LINE
8
BLACK
6
CONTINUOUS
10
4.25633
20
-0.335144
11
4.24645
21
-0.337744
0
LINE
8
BLACK
6
CONTINUOUS
10
4.24645
20
-0.337744
11
4.2363
21
-0.338856
0
LINE
8
BLACK
6
CONTINUOUS
10
4.2363
20
-0.338856
11
4.2261
21
-0.338455
0
LINE
8
BLACK
6
CONTINUOUS
10
4.2261
20
-0.338455
11
4.21607
21
-0.33655
0
LINE
8
BLACK
6
CONTINUOUS
10
4.21607
20
-0.33655
11
4.20642
21
-0.333183
0
LINE
8
BLACK
6
CONTINUOUS
10
4.20642
20
-0.333183
11
4.19739
21
-0.328429
0
LINE
8
BLACK
6
CONTINUOUS
10
4.19739
20
-0.328429
11
4.18915
21
-0.32239
0
LINE
8
BLACK
6
CONTINUOUS
10
4.18915
20
-0.32239
11
4.1819
21
-0.315201
0
LINE
8
BLACK
6
CONTINUOUS
10
4.1819
20
-0.315201
11
4.17579
21
-0.307019
0
LINE
8
BLACK
6
CONTINUOUS
10
4.17579
20
-0.307019
11
4.17096
21
-0.298023
0
LINE
8
BLACK
6
CONTINUOUS
10
4.17096
20
-0.298023
11
4.16751
21
-0.288412
0
LINE
8
BLACK
6
CONTINUOUS
10
4.16751
20
-0.288412
11
4.16551
21
-0.278396
0
LINE
8
BLACK
6
CONTINUOUS
10
4.16551
20
-0.278396
11
4.16502
21
-0.268196
0
LINE
8
BLACK
6
CONTINUOUS
10
4.16502
20
-0.268196
11
4.16605
21
-0.258036
0
LINE
8
BLACK
6
CONTINUOUS
10
4.16605
20
-0.258036
11
4.16856
21
-0.248138
0
LINE
8
BLACK
6
CONTINUOUS
10
4.16856
20
-0.248138
11
4.17251
21
-0.238721
0
LINE
8
BLACK
6
CONTINUOUS
10
4.17251
20
-0.238721
11
4.17781
21
-0.229991
0
LINE
8
BLACK
6
CONTINUOUS
10
4.17781
20
-0.229991
11
4.18434
21
-0.22214
0
LINE
8
BLACK
6
CONTINUOUS
10
4.18434
20
-0.22214
11
4.19196
21
-0.21534
0
LINE
8
BLACK
6
CONTINUOUS
10
4.19196
20
-0.21534
11
4.2005
21
-0.209741
0
LINE
8
BLACK
6
CONTINUOUS
10
4.2005
20
-0.209741
11
4.20977
21
-0.205466
0
LINE
8
BLACK
6
CONTINUOUS
10
4.20977
20
-0.205466
11
4.21957
21
-0.202608
0
LINE
8
BLACK
6
CONTINUOUS
10
4.21957
20
-0.202608
11
4.22969
21
-0.201231
0
LINE
8
BLACK
6
CONTINUOUS
10
4.22969
20
-0.201231
11
4.2399
21
-0.201365
0
LINE
8
BLACK
6
CONTINUOUS
10
3.33084
20
-0.301355
11
3.33276
21
-0.302635
0
LINE
8
BLACK
6
CONTINUOUS
10
3.33276
20
-0.302635
11
3.33404
21
-0.304551
0
LINE
8
BLACK
6
CONTINUOUS
10
3.33404
20
-0.304551
11
3.33449
21
-0.306811
0
LINE
8
BLACK
6
CONTINUOUS
10
3.33449
20
-0.306811
11
3.33449
21
-0.318622
0
LINE
8
BLACK
6
CONTINUOUS
10
3.33449
20
-0.318622
11
3.33404
21
-0.320882
0
LINE
8
BLACK
6
CONTINUOUS
10
3.33404
20
-0.320882
11
3.33276
21
-0.322798
0
LINE
8
BLACK
6
CONTINUOUS
10
3.33276
20
-0.322798
11
3.33084
21
-0.324078
0
LINE
8
BLACK
6
CONTINUOUS
10
3.33084
20
-0.324078
11
3.32858
21
-0.324528
0
LINE
8
BLACK
6
CONTINUOUS
10
3.32858
20
-0.324528
11
3.26362
21
-0.324528
0
LINE
8
BLACK
6
CONTINUOUS
10
3.26362
20
-0.324528
11
3.26136
21
-0.324078
0
LINE
8
BLACK
6
CONTINUOUS
10
3.26136
20
-0.324078
11
3.25945
21
-0.322798
0
LINE
8
BLACK
6
CONTINUOUS
10
3.25945
20
-0.322798
11
3.25817
21
-0.320882
0
LINE
8
BLACK
6
CONTINUOUS
10
3.25817
20
-0.320882
11
3.25772
21
-0.318622
0
LINE
8
BLACK
6
CONTINUOUS
10
3.25772
20
-0.318622
11
3.25772
21
-0.306811
0
LINE
8
BLACK
6
CONTINUOUS
10
3.25772
20
-0.306811
11
3.25817
21
-0.304551
0
LINE
8
BLACK
6
CONTINUOUS
10
3.25817
20
-0.304551
11
3.25945
21
-0.302635
0
LINE
8
BLACK
6
CONTINUOUS
10
3.25945
20
-0.302635
11
3.26136
21
-0.301355
0
LINE
8
BLACK
6
CONTINUOUS
10
3.26136
20
-0.301355
11
3.26362
21
-0.300906
0
LINE
8
BLACK
6
CONTINUOUS
10
3.26362
20
-0.300906
11
3.32858
21
-0.300906
0
LINE
8
BLACK
6
CONTINUOUS
10
3.32858
20
-0.300906
11
3.33084
21
-0.301355
0
LINE
8
BLACK
6
CONTINUOUS
10
3.52572
20
-0.301355
11
3.52764
21
-0.302635
0
LINE
8
BLACK
6
CONTINUOUS
10
3.52764
20
-0.302635
11
3.52892
21
-0.304551
0
LINE
8
BLACK
6
CONTINUOUS
10
3.52892
20
-0.304551
11
3.52937
21
-0.306811
0
LINE
8
BLACK
6
CONTINUOUS
10
3.52937
20
-0.306811
11
3.52937
21
-0.318622
0
LINE
8
BLACK
6
CONTINUOUS
10
3.52937
20
-0.318622
11
3.52892
21
-0.320882
0
LINE
8
BLACK
6
CONTINUOUS
10
3.52892
20
-0.320882
11
3.52764
21
-0.322798
0
LINE
8
BLACK
6
CONTINUOUS
10
3.52764
20
-0.322798
11
3.52572
21
-0.324078
0
LINE
8
BLACK
6
CONTINUOUS
10
3.52572
20
-0.324078
11
3.52346
21
-0.324528
0
LINE
8
BLACK
6
CONTINUOUS
10
3.52346
20
-0.324528
11
3.4585
21
-0.324528
0
LINE
8
BLACK
6
CONTINUOUS
10
3.4585
20
-0.324528
11
3.45624
21
-0.324078
0
LINE
8
BLACK
6
CONTINUOUS
10
3.45624
20
-0.324078
11
3.45433
21
-0.322798
0
LINE
8
BLACK
6
CONTINUOUS
10
3.45433
20
-0.322798
11
3.45305
21
-0.320882
0
LINE
8
BLACK
6
CONTINUOUS
10
3.45305
20
-0.320882
11
3.4526
21
-0.318622
0
LINE
8
BLACK
6
CONTINUOUS
10
3.4526
20
-0.318622
11
3.4526
21
-0.306811
0
LINE
8
BLACK
6
CONTINUOUS
10
3.4526
20
-0.306811
11
3.45305
21
-0.304551
0
LINE
8
BLACK
6
CONTINUOUS
10
3.45305
20
-0.304551
11
3.45433
21
-0.302635
0
LINE
8
BLACK
6
CONTINUOUS
10
3.45433
20
-0.302635
11
3.45624
21
-0.301355
0
LINE
8
BLACK
6
CONTINUOUS
10
3.45624
20
-0.301355
11
3.4585
21
-0.300906
0
LINE
8
BLACK
6
CONTINUOUS
10
3.4585
20
-0.300906
11
3.52346
21
-0.300906
0
LINE
8
BLACK
6
CONTINUOUS
10
3.52346
20
-0.300906
11
3.52572
21
-0.301355
0
LINE
8
BLACK
6
CONTINUOUS
10
5.33872
20
-0.274387
11
5.34063
21
-0.275667
0
LINE
8
BLACK
6
CONTINUOUS
10
5.34063
20
-0.275667
11
5.34191
21
-0.277583
0
LINE
8
BLACK
6
CONTINUOUS
10
5.34191
20
-0.277583
11
5.34236
21
-0.279843
0
LINE
8
BLACK
6
CONTINUOUS
10
5.34236
20
-0.279843
11
5.34236
21
-0.291654
0
LINE
8
BLACK
6
CONTINUOUS
10
5.34236
20
-0.291654
11
5.34191
21
-0.293914
0
LINE
8
BLACK
6
CONTINUOUS
10
5.34191
20
-0.293914
11
5.34063
21
-0.295829
0
LINE
8
BLACK
6
CONTINUOUS
10
5.34063
20
-0.295829
11
5.33872
21
-0.29711
0
LINE
8
BLACK
6
CONTINUOUS
10
5.33872
20
-0.29711
11
5.33646
21
-0.297559
0
LINE
8
BLACK
6
CONTINUOUS
10
5.33646
20
-0.297559
11
5.2961
21
-0.297559
0
LINE
8
BLACK
6
CONTINUOUS
10
5.2961
20
-0.297559
11
5.29384
21
-0.29711
0
LINE
8
BLACK
6
CONTINUOUS
10
5.29384
20
-0.29711
11
5.29193
21
-0.295829
0
LINE
8
BLACK
6
CONTINUOUS
10
5.29193
20
-0.295829
11
5.29065
21
-0.293914
0
LINE
8
BLACK
6
CONTINUOUS
10
5.29065
20
-0.293914
11
5.2902
21
-0.291654
0
LINE
8
BLACK
6
CONTINUOUS
10
5.2902
20
-0.291654
11
5.2902
21
-0.279843
0
LINE
8
BLACK
6
CONTINUOUS
10
5.2902
20
-0.279843
11
5.29065
21
-0.277583
0
LINE
8
BLACK
6
CONTINUOUS
10
5.29065
20
-0.277583
11
5.29193
21
-0.275667
0
LINE
8
BLACK
6
CONTINUOUS
10
5.29193
20
-0.275667
11
5.29384
21
-0.274387
0
LINE
8
BLACK
6
CONTINUOUS
10
5.29384
20
-0.274387
11
5.2961
21
-0.273937
0
LINE
8
BLACK
6
CONTINUOUS
10
5.2961
20
-0.273937
11
5.33646
21
-0.273937
0
LINE
8
BLACK
6
CONTINUOUS
10
5.33646
20
-0.273937
11
5.33872
21
-0.274387
0
LINE
8
BLACK
6
CONTINUOUS
10
5.24915
20
-0.274387
11
5.25107
21
-0.275667
0
LINE
8
BLACK
6
CONTINUOUS
10
5.25107
20
-0.275667
11
5.25235
21
-0.277583
0
LINE
8
BLACK
6
CONTINUOUS
10
5.25235
20
-0.277583
11
5.2528
21
-0.279843
0
LINE
8
BLACK
6
CONTINUOUS
10
5.2528
20
-0.279843
11
5.2528
21
-0.291654
0
LINE
8
BLACK
6
CONTINUOUS
10
5.2528
20
-0.291654
11
5.25235
21
-0.293914
0
LINE
8
BLACK
6
CONTINUOUS
10
5.25235
20
-0.293914
11
5.25107
21
-0.295829
0
LINE
8
BLACK
6
CONTINUOUS
10
5.25107
20
-0.295829
11
5.24915
21
-0.29711
0
LINE
8
BLACK
6
CONTINUOUS
10
5.24915
20
-0.29711
11
5.24689
21
-0.297559
0
LINE
8
BLACK
6
CONTINUOUS
10
5.24689
20
-0.297559
11
5.20654
21
-0.297559
0
LINE
8
BLACK
6
CONTINUOUS
10
5.20654
20
-0.297559
11
5.20428
21
-0.29711
0
LINE
8
BLACK
6
CONTINUOUS
10
5.20428
20
-0.29711
11
5.20236
21
-0.295829
0
LINE
8
BLACK
6
CONTINUOUS
10
5.20236
20
-0.295829
11
5.20108
21
-0.293914
0
LINE
8
BLACK
6
CONTINUOUS
10
5.20108
20
-0.293914
11
5.20063
21
-0.291654
0
LINE
8
BLACK
6
CONTINUOUS
10
5.20063
20
-0.291654
11
5.20063
21
-0.279843
0
LINE
8
BLACK
6
CONTINUOUS
10
5.20063
20
-0.279843
11
5.20108
21
-0.277583
0
LINE
8
BLACK
6
CONTINUOUS
10
5.20108
20
-0.277583
11
5.20236
21
-0.275667
0
LINE
8
BLACK
6
CONTINUOUS
10
5.20236
20
-0.275667
11
5.20428
21
-0.274387
0
LINE
8
BLACK
6
CONTINUOUS
10
5.20428
20
-0.274387
11
5.20654
21
-0.273937
0
LINE
8
BLACK
6
CONTINUOUS
10
5.20654
20
-0.273937
11
5.24689
21
-0.273937
0
LINE
8
BLACK
6
CONTINUOUS
10
5.24689
20
-0.273937
11
5.24915
21
-0.274387
0
LINE
8
BLACK
6
CONTINUOUS
10
3.52572
20
-0.251355
11
3.52764
21
-0.252635
0
LINE
8
BLACK
6
CONTINUOUS
10
3.52764
20
-0.252635
11
3.52892
21
-0.254551
0
LINE
8
BLACK
6
CONTINUOUS
10
3.52892
20
-0.254551
11
3.52937
21
-0.256811
0
LINE
8
BLACK
6
CONTINUOUS
10
3.52937
20
-0.256811
11
3.52937
21
-0.268622
0
LINE
8
BLACK
6
CONTINUOUS
10
3.52937
20
-0.268622
11
3.52892
21
-0.270882
0
LINE
8
BLACK
6
CONTINUOUS
10
3.52892
20
-0.270882
11
3.52764
21
-0.272798
0
LINE
8
BLACK
6
CONTINUOUS
10
3.52764
20
-0.272798
11
3.52572
21
-0.274078
0
LINE
8
BLACK
6
CONTINUOUS
10
3.52572
20
-0.274078
11
3.52346
21
-0.274528
0
LINE
8
BLACK
6
CONTINUOUS
10
3.52346
20
-0.274528
11
3.4585
21
-0.274528
0
LINE
8
BLACK
6
CONTINUOUS
10
3.4585
20
-0.274528
11
3.45624
21
-0.274078
0
LINE
8
BLACK
6
CONTINUOUS
10
3.45624
20
-0.274078
11
3.45433
21
-0.272798
0
LINE
8
BLACK
6
CONTINUOUS
10
3.45433
20
-0.272798
11
3.45305
21
-0.270882
0
LINE
8
BLACK
6
CONTINUOUS
10
3.45305
20
-0.270882
11
3.4526
21
-0.268622
0
LINE
8
BLACK
6
CONTINUOUS
10
3.4526
20
-0.268622
11
3.4526
21
-0.256811
0
LINE
8
BLACK
6
CONTINUOUS
10
3.4526
20
-0.256811
11
3.45305
21
-0.254551
0
LINE
8
BLACK
6
CONTINUOUS
10
3.45305
20
-0.254551
11
3.45433
21
-0.252635
0
LINE
8
BLACK
6
CONTINUOUS
10
3.45433
20
-0.252635
11
3.45624
21
-0.251355
0
LINE
8
BLACK
6
CONTINUOUS
10
3.45624
20
-0.251355
11
3.4585
21
-0.250906
0
LINE
8
BLACK
6
CONTINUOUS
10
3.4585
20
-0.250906
11
3.52346
21
-0.250906
0
LINE
8
BLACK
6
CONTINUOUS
10
3.52346
20
-0.250906
11
3.52572
21
-0.251355
0
LINE
8
BLACK
6
CONTINUOUS
10
3.33084
20
-0.251355
11
3.33276
21
-0.252635
0
LINE
8
BLACK
6
CONTINUOUS
10
3.33276
20
-0.252635
11
3.33404
21
-0.254551
0
LINE
8
BLACK
6
CONTINUOUS
10
3.33404
20
-0.254551
11
3.33449
21
-0.256811
0
LINE
8
BLACK
6
CONTINUOUS
10
3.33449
20
-0.256811
11
3.33449
21
-0.268622
0
LINE
8
BLACK
6
CONTINUOUS
10
3.33449
20
-0.268622
11
3.33404
21
-0.270882
0
LINE
8
BLACK
6
CONTINUOUS
10
3.33404
20
-0.270882
11
3.33276
21
-0.272798
0
LINE
8
BLACK
6
CONTINUOUS
10
3.33276
20
-0.272798
11
3.33084
21
-0.274078
0
LINE
8
BLACK
6
CONTINUOUS
10
3.33084
20
-0.274078
11
3.32858
21
-0.274528
0
LINE
8
BLACK
6
CONTINUOUS
10
3.32858
20
-0.274528
11
3.26362
21
-0.274528
0
LINE
8
BLACK
6
CONTINUOUS
10
3.26362
20
-0.274528
11
3.26136
21
-0.274078
0
LINE
8
BLACK
6
CONTINUOUS
10
3.26136
20
-0.274078
11
3.25945
21
-0.272798
0
LINE
8
BLACK
6
CONTINUOUS
10
3.25945
20
-0.272798
11
3.25817
21
-0.270882
0
LINE
8
BLACK
6
CONTINUOUS
10
3.25817
20
-0.270882
11
3.25772
21
-0.268622
0
LINE
8
BLACK
6
CONTINUOUS
10
3.25772
20
-0.268622
11
3.25772
21
-0.256811
0
LINE
8
BLACK
6
CONTINUOUS
10
3.25772
20
-0.256811
11
3.25817
21
-0.254551
0
LINE
8
BLACK
6
CONTINUOUS
10
3.25817
20
-0.254551
11
3.25945
21
-0.252635
0
LINE
8
BLACK
6
CONTINUOUS
10
3.25945
20
-0.252635
11
3.26136
21
-0.251355
0
LINE
8
BLACK
6
CONTINUOUS
10
3.26136
20
-0.251355
11
3.26362
21
-0.250906
0
LINE
8
BLACK
6
CONTINUOUS
10
3.26362
20
-0.250906
11
3.32858
21
-0.250906
0
LINE
8
BLACK
6
CONTINUOUS
10
3.32858
20
-0.250906
11
3.33084
21
-0.251355
0
LINE
8
BLACK
6
CONTINUOUS
10
2.80742
20
-0.201552
11
2.80933
21
-0.202832
0
LINE
8
BLACK
6
CONTINUOUS
10
2.80933
20
-0.202832
11
2.81061
21
-0.204748
0
LINE
8
BLACK
6
CONTINUOUS
10
2.81061
20
-0.204748
11
2.81106
21
-0.207008
0
LINE
8
BLACK
6
CONTINUOUS
10
2.81106
20
-0.207008
11
2.81106
21
-0.262126
0
LINE
8
BLACK
6
CONTINUOUS
10
2.81106
20
-0.262126
11
2.81061
21
-0.264386
0
LINE
8
BLACK
6
CONTINUOUS
10
2.81061
20
-0.264386
11
2.80933
21
-0.266302
0
LINE
8
BLACK
6
CONTINUOUS
10
2.80933
20
-0.266302
11
2.80742
21
-0.267582
0
LINE
8
BLACK
6
CONTINUOUS
10
2.80742
20
-0.267582
11
2.80516
21
-0.268031
0
LINE
8
BLACK
6
CONTINUOUS
10
2.80516
20
-0.268031
11
2.79335
21
-0.268031
0
LINE
8
BLACK
6
CONTINUOUS
10
2.79335
20
-0.268031
11
2.79109
21
-0.267582
0
LINE
8
BLACK
6
CONTINUOUS
10
2.79109
20
-0.267582
11
2.78917
21
-0.266302
0
LINE
8
BLACK
6
CONTINUOUS
10
2.78917
20
-0.266302
11
2.78789
21
-0.264386
0
LINE
8
BLACK
6
CONTINUOUS
10
2.78789
20
-0.264386
11
2.78744
21
-0.262126
0
LINE
8
BLACK
6
CONTINUOUS
10
2.78744
20
-0.262126
11
2.78744
21
-0.207008
0
LINE
8
BLACK
6
CONTINUOUS
10
2.78744
20
-0.207008
11
2.78789
21
-0.204748
0
LINE
8
BLACK
6
CONTINUOUS
10
2.78789
20
-0.204748
11
2.78917
21
-0.202832
0
LINE
8
BLACK
6
CONTINUOUS
10
2.78917
20
-0.202832
11
2.79109
21
-0.201552
0
LINE
8
BLACK
6
CONTINUOUS
10
2.79109
20
-0.201552
11
2.79335
21
-0.201102
0
LINE
8
BLACK
6
CONTINUOUS
10
2.79335
20
-0.201102
11
2.80516
21
-0.201102
0
LINE
8
BLACK
6
CONTINUOUS
10
2.80516
20
-0.201102
11
2.80742
21
-0.201552
0
LINE
8
BLACK
6
CONTINUOUS
10
3.10269
20
-0.201552
11
3.10461
21
-0.202832
0
LINE
8
BLACK
6
CONTINUOUS
10
3.10461
20
-0.202832
11
3.10589
21
-0.204748
0
LINE
8
BLACK
6
CONTINUOUS
10
3.10589
20
-0.204748
11
3.10634
21
-0.207008
0
LINE
8
BLACK
6
CONTINUOUS
10
3.10634
20
-0.207008
11
3.10634
21
-0.262126
0
LINE
8
BLACK
6
CONTINUOUS
10
3.10634
20
-0.262126
11
3.10589
21
-0.264386
0
LINE
8
BLACK
6
CONTINUOUS
10
3.10589
20
-0.264386
11
3.10461
21
-0.266302
0
LINE
8
BLACK
6
CONTINUOUS
10
3.10461
20
-0.266302
11
3.10269
21
-0.267582
0
LINE
8
BLACK
6
CONTINUOUS
10
3.10269
20
-0.267582
11
3.10043
21
-0.268031
0
LINE
8
BLACK
6
CONTINUOUS
10
3.10043
20
-0.268031
11
3.08862
21
-0.268031
0
LINE
8
BLACK
6
CONTINUOUS
10
3.08862
20
-0.268031
11
3.08636
21
-0.267582
0
LINE
8
BLACK
6
CONTINUOUS
10
3.08636
20
-0.267582
11
3.08445
21
-0.266302
0
LINE
8
BLACK
6
CONTINUOUS
10
3.08445
20
-0.266302
11
3.08317
21
-0.264386
0
LINE
8
BLACK
6
CONTINUOUS
10
3.08317
20
-0.264386
11
3.08272
21
-0.262126
0
LINE
8
BLACK
6
CONTINUOUS
10
3.08272
20
-0.262126
11
3.08272
21
-0.207008
0
LINE
8
BLACK
6
CONTINUOUS
10
3.08272
20
-0.207008
11
3.08317
21
-0.204748
0
LINE
8
BLACK
6
CONTINUOUS
10
3.08317
20
-0.204748
11
3.08445
21
-0.202832
0
LINE
8
BLACK
6
CONTINUOUS
10
3.08445
20
-0.202832
11
3.08636
21
-0.201552
0
LINE
8
BLACK
6
CONTINUOUS
10
3.08636
20
-0.201552
11
3.08862
21
-0.201102
0
LINE
8
BLACK
6
CONTINUOUS
10
3.08862
20
-0.201102
11
3.10043
21
-0.201102
0
LINE
8
BLACK
6
CONTINUOUS
10
3.10043
20
-0.201102
11
3.10269
21
-0.201552
0
LINE
8
BLACK
6
CONTINUOUS
10
3.05348
20
-0.201552
11
3.0554
21
-0.202832
0
LINE
8
BLACK
6
CONTINUOUS
10
3.0554
20
-0.202832
11
3.05668
21
-0.204748
0
LINE
8
BLACK
6
CONTINUOUS
10
3.05668
20
-0.204748
11
3.05713
21
-0.207008
0
LINE
8
BLACK
6
CONTINUOUS
10
3.05713
20
-0.207008
11
3.05713
21
-0.262126
0
LINE
8
BLACK
6
CONTINUOUS
10
3.05713
20
-0.262126
11
3.05668
21
-0.264386
0
LINE
8
BLACK
6
CONTINUOUS
10
3.05668
20
-0.264386
11
3.0554
21
-0.266302
0
LINE
8
BLACK
6
CONTINUOUS
10
3.0554
20
-0.266302
11
3.05348
21
-0.267582
0
LINE
8
BLACK
6
CONTINUOUS
10
3.05348
20
-0.267582
11
3.05122
21
-0.268031
0
LINE
8
BLACK
6
CONTINUOUS
10
3.05122
20
-0.268031
11
3.03941
21
-0.268031
0
LINE
8
BLACK
6
CONTINUOUS
10
3.03941
20
-0.268031
11
3.03715
21
-0.267582
0
LINE
8
BLACK
6
CONTINUOUS
10
3.03715
20
-0.267582
11
3.03523
21
-0.266302
0
LINE
8
BLACK
6
CONTINUOUS
10
3.03523
20
-0.266302
11
3.03395
21
-0.264386
0
LINE
8
BLACK
6
CONTINUOUS
10
3.03395
20
-0.264386
11
3.0335
21
-0.262126
0
LINE
8
BLACK
6
CONTINUOUS
10
3.0335
20
-0.262126
11
3.0335
21
-0.207008
0
LINE
8
BLACK
6
CONTINUOUS
10
3.0335
20
-0.207008
11
3.03395
21
-0.204748
0
LINE
8
BLACK
6
CONTINUOUS
10
3.03395
20
-0.204748
11
3.03523
21
-0.202832
0
LINE
8
BLACK
6
CONTINUOUS
10
3.03523
20
-0.202832
11
3.03715
21
-0.201552
0
LINE
8
BLACK
6
CONTINUOUS
10
3.03715
20
-0.201552
11
3.03941
21
-0.201102
0
LINE
8
BLACK
6
CONTINUOUS
10
3.03941
20
-0.201102
11
3.05122
21
-0.201102
0
LINE
8
BLACK
6
CONTINUOUS
10
3.05122
20
-0.201102
11
3.05348
21
-0.201552
0
LINE
8
BLACK
6
CONTINUOUS
10
3.00427
20
-0.201552
11
3.00618
21
-0.202832
0
LINE
8
BLACK
6
CONTINUOUS
10
3.00618
20
-0.202832
11
3.00746
21
-0.204748
0
LINE
8
BLACK
6
CONTINUOUS
10
3.00746
20
-0.204748
11
3.00791
21
-0.207008
0
LINE
8
BLACK
6
CONTINUOUS
10
3.00791
20
-0.207008
11
3.00791
21
-0.262126
0
LINE
8
BLACK
6
CONTINUOUS
10
3.00791
20
-0.262126
11
3.00746
21
-0.264386
0
LINE
8
BLACK
6
CONTINUOUS
10
3.00746
20
-0.264386
11
3.00618
21
-0.266302
0
LINE
8
BLACK
6
CONTINUOUS
10
3.00618
20
-0.266302
11
3.00427
21
-0.267582
0
LINE
8
BLACK
6
CONTINUOUS
10
3.00427
20
-0.267582
11
3.00201
21
-0.268031
0
LINE
8
BLACK
6
CONTINUOUS
10
3.00201
20
-0.268031
11
2.9902
21
-0.268031
0
LINE
8
BLACK
6
CONTINUOUS
10
2.9902
20
-0.268031
11
2.98794
21
-0.267582
0
LINE
8
BLACK
6
CONTINUOUS
10
2.98794
20
-0.267582
11
2.98602
21
-0.266302
0
LINE
8
BLACK
6
CONTINUOUS
10
2.98602
20
-0.266302
11
2.98474
21
-0.264386
0
LINE
8
BLACK
6
CONTINUOUS
10
2.98474
20
-0.264386
11
2.98429
21
-0.262126
0
LINE
8
BLACK
6
CONTINUOUS
10
2.98429
20
-0.262126
11
2.98429
21
-0.207008
0
LINE
8
BLACK
6
CONTINUOUS
10
2.98429
20
-0.207008
11
2.98474
21
-0.204748
0
LINE
8
BLACK
6
CONTINUOUS
10
2.98474
20
-0.204748
11
2.98602
21
-0.202832
0
LINE
8
BLACK
6
CONTINUOUS
10
2.98602
20
-0.202832
11
2.98794
21
-0.201552
0
LINE
8
BLACK
6
CONTINUOUS
10
2.98794
20
-0.201552
11
2.9902
21
-0.201102
0
LINE
8
BLACK
6
CONTINUOUS
10
2.9902
20
-0.201102
11
3.00201
21
-0.201102
0
LINE
8
BLACK
6
CONTINUOUS
10
3.00201
20
-0.201102
11
3.00427
21
-0.201552
0
LINE
8
BLACK
6
CONTINUOUS
10
2.95506
20
-0.201552
11
2.95697
21
-0.202832
0
LINE
8
BLACK
6
CONTINUOUS
10
2.95697
20
-0.202832
11
2.95825
21
-0.204748
0
LINE
8
BLACK
6
CONTINUOUS
10
2.95825
20
-0.204748
11
2.9587
21
-0.207008
0
LINE
8
BLACK
6
CONTINUOUS
10
2.9587
20
-0.207008
11
2.9587
21
-0.262126
0
LINE
8
BLACK
6
CONTINUOUS
10
2.9587
20
-0.262126
11
2.95825
21
-0.264386
0
LINE
8
BLACK
6
CONTINUOUS
10
2.95825
20
-0.264386
11
2.95697
21
-0.266302
0
LINE
8
BLACK
6
CONTINUOUS
10
2.95697
20
-0.266302
11
2.95506
21
-0.267582
0
LINE
8
BLACK
6
CONTINUOUS
10
2.95506
20
-0.267582
11
2.9528
21
-0.268031
0
LINE
8
BLACK
6
CONTINUOUS
10
2.9528
20
-0.268031
11
2.94098
21
-0.268031
0
LINE
8
BLACK
6
CONTINUOUS
10
2.94098
20
-0.268031
11
2.93872
21
-0.267582
0
LINE
8
BLACK
6
CONTINUOUS
10
2.93872
20
-0.267582
11
2.93681
21
-0.266302
0
LINE
8
BLACK
6
CONTINUOUS
10
2.93681
20
-0.266302
11
2.93553
21
-0.264386
0
LINE
8
BLACK
6
CONTINUOUS
10
2.93553
20
-0.264386
11
2.93508
21
-0.262126
0
LINE
8
BLACK
6
CONTINUOUS
10
2.93508
20
-0.262126
11
2.93508
21
-0.207008
0
LINE
8
BLACK
6
CONTINUOUS
10
2.93508
20
-0.207008
11
2.93553
21
-0.204748
0
LINE
8
BLACK
6
CONTINUOUS
10
2.93553
20
-0.204748
11
2.93681
21
-0.202832
0
LINE
8
BLACK
6
CONTINUOUS
10
2.93681
20
-0.202832
11
2.93872
21
-0.201552
0
LINE
8
BLACK
6
CONTINUOUS
10
2.93872
20
-0.201552
11
2.94098
21
-0.201102
0
LINE
8
BLACK
6
CONTINUOUS
10
2.94098
20
-0.201102
11
2.9528
21
-0.201102
0
LINE
8
BLACK
6
CONTINUOUS
10
2.9528
20
-0.201102
11
2.95506
21
-0.201552
0
LINE
8
BLACK
6
CONTINUOUS
10
2.90584
20
-0.201552
11
2.90776
21
-0.202832
0
LINE
8
BLACK
6
CONTINUOUS
10
2.90776
20
-0.202832
11
2.90904
21
-0.204748
0
LINE
8
BLACK
6
CONTINUOUS
10
2.90904
20
-0.204748
11
2.90949
21
-0.207008
0
LINE
8
BLACK
6
CONTINUOUS
10
2.90949
20
-0.207008
11
2.90949
21
-0.262126
0
LINE
8
BLACK
6
CONTINUOUS
10
2.90949
20
-0.262126
11
2.90904
21
-0.264386
0
LINE
8
BLACK
6
CONTINUOUS
10
2.90904
20
-0.264386
11
2.90776
21
-0.266302
0
LINE
8
BLACK
6
CONTINUOUS
10
2.90776
20
-0.266302
11
2.90584
21
-0.267582
0
LINE
8
BLACK
6
CONTINUOUS
10
2.90584
20
-0.267582
11
2.90358
21
-0.268031
0
LINE
8
BLACK
6
CONTINUOUS
10
2.90358
20
-0.268031
11
2.89177
21
-0.268031
0
LINE
8
BLACK
6
CONTINUOUS
10
2.89177
20
-0.268031
11
2.88951
21
-0.267582
0
LINE
8
BLACK
6
CONTINUOUS
10
2.88951
20
-0.267582
11
2.8876
21
-0.266302
0
LINE
8
BLACK
6
CONTINUOUS
10
2.8876
20
-0.266302
11
2.88632
21
-0.264386
0
LINE
8
BLACK
6
CONTINUOUS
10
2.88632
20
-0.264386
11
2.88587
21
-0.262126
0
LINE
8
BLACK
6
CONTINUOUS
10
2.88587
20
-0.262126
11
2.88587
21
-0.207008
0
LINE
8
BLACK
6
CONTINUOUS
10
2.88587
20
-0.207008
11
2.88632
21
-0.204748
0
LINE
8
BLACK
6
CONTINUOUS
10
2.88632
20
-0.204748
11
2.8876
21
-0.202832
0
LINE
8
BLACK
6
CONTINUOUS
10
2.8876
20
-0.202832
11
2.88951
21
-0.201552
0
LINE
8
BLACK
6
CONTINUOUS
10
2.88951
20
-0.201552
11
2.89177
21
-0.201102
0
LINE
8
BLACK
6
CONTINUOUS
10
2.89177
20
-0.201102
11
2.90358
21
-0.201102
0
LINE
8
BLACK
6
CONTINUOUS
10
2.90358
20
-0.201102
11
2.90584
21
-0.201552
0
LINE
8
BLACK
6
CONTINUOUS
10
2.85663
20
-0.201552
11
2.85855
21
-0.202832
0
LINE
8
BLACK
6
CONTINUOUS
10
2.85855
20
-0.202832
11
2.85983
21
-0.204748
0
LINE
8
BLACK
6
CONTINUOUS
10
2.85983
20
-0.204748
11
2.86028
21
-0.207008
0
LINE
8
BLACK
6
CONTINUOUS
10
2.86028
20
-0.207008
11
2.86028
21
-0.262126
0
LINE
8
BLACK
6
CONTINUOUS
10
2.86028
20
-0.262126
11
2.85983
21
-0.264386
0
LINE
8
BLACK
6
CONTINUOUS
10
2.85983
20
-0.264386
11
2.85855
21
-0.266302
0
LINE
8
BLACK
6
CONTINUOUS
10
2.85855
20
-0.266302
11
2.85663
21
-0.267582
0
LINE
8
BLACK
6
CONTINUOUS
10
2.85663
20
-0.267582
11
2.85437
21
-0.268031
0
LINE
8
BLACK
6
CONTINUOUS
10
2.85437
20
-0.268031
11
2.84256
21
-0.268031
0
LINE
8
BLACK
6
CONTINUOUS
10
2.84256
20
-0.268031
11
2.8403
21
-0.267582
0
LINE
8
BLACK
6
CONTINUOUS
10
2.8403
20
-0.267582
11
2.83838
21
-0.266302
0
LINE
8
BLACK
6
CONTINUOUS
10
2.83838
20
-0.266302
11
2.8371
21
-0.264386
0
LINE
8
BLACK
6
CONTINUOUS
10
2.8371
20
-0.264386
11
2.83665
21
-0.262126
0
LINE
8
BLACK
6
CONTINUOUS
10
2.83665
20
-0.262126
11
2.83665
21
-0.207008
0
LINE
8
BLACK
6
CONTINUOUS
10
2.83665
20
-0.207008
11
2.8371
21
-0.204748
0
LINE
8
BLACK
6
CONTINUOUS
10
2.8371
20
-0.204748
11
2.83838
21
-0.202832
0
LINE
8
BLACK
6
CONTINUOUS
10
2.83838
20
-0.202832
11
2.8403
21
-0.201552
0
LINE
8
BLACK
6
CONTINUOUS
10
2.8403
20
-0.201552
11
2.84256
21
-0.201102
0
LINE
8
BLACK
6
CONTINUOUS
10
2.84256
20
-0.201102
11
2.85437
21
-0.201102
0
LINE
8
BLACK
6
CONTINUOUS
10
2.85437
20
-0.201102
11
2.85663
21
-0.201552
0
LINE
8
BLACK
6
CONTINUOUS
10
2.7582
20
-0.201552
11
2.76012
21
-0.202832
0
LINE
8
BLACK
6
CONTINUOUS
10
2.76012
20
-0.202832
11
2.7614
21
-0.204748
0
LINE
8
BLACK
6
CONTINUOUS
10
2.7614
20
-0.204748
11
2.76185
21
-0.207008
0
LINE
8
BLACK
6
CONTINUOUS
10
2.76185
20
-0.207008
11
2.76185
21
-0.262126
0
LINE
8
BLACK
6
CONTINUOUS
10
2.76185
20
-0.262126
11
2.7614
21
-0.264386
0
LINE
8
BLACK
6
CONTINUOUS
10
2.7614
20
-0.264386
11
2.76012
21
-0.266302
0
LINE
8
BLACK
6
CONTINUOUS
10
2.76012
20
-0.266302
11
2.7582
21
-0.267582
0
LINE
8
BLACK
6
CONTINUOUS
10
2.7582
20
-0.267582
11
2.75594
21
-0.268031
0
LINE
8
BLACK
6
CONTINUOUS
10
2.75594
20
-0.268031
11
2.74413
21
-0.268031
0
LINE
8
BLACK
6
CONTINUOUS
10
2.74413
20
-0.268031
11
2.74187
21
-0.267582
0
LINE
8
BLACK
6
CONTINUOUS
10
2.74187
20
-0.267582
11
2.73996
21
-0.266302
0
LINE
8
BLACK
6
CONTINUOUS
10
2.73996
20
-0.266302
11
2.73868
21
-0.264386
0
LINE
8
BLACK
6
CONTINUOUS
10
2.73868
20
-0.264386
11
2.73823
21
-0.262126
0
LINE
8
BLACK
6
CONTINUOUS
10
2.73823
20
-0.262126
11
2.73823
21
-0.207008
0
LINE
8
BLACK
6
CONTINUOUS
10
2.73823
20
-0.207008
11
2.73868
21
-0.204748
0
LINE
8
BLACK
6
CONTINUOUS
10
2.73868
20
-0.204748
11
2.73996
21
-0.202832
0
LINE
8
BLACK
6
CONTINUOUS
10
2.73996
20
-0.202832
11
2.74187
21
-0.201552
0
LINE
8
BLACK
6
CONTINUOUS
10
2.74187
20
-0.201552
11
2.74413
21
-0.201102
0
LINE
8
BLACK
6
CONTINUOUS
10
2.74413
20
-0.201102
11
2.75594
21
-0.201102
0
LINE
8
BLACK
6
CONTINUOUS
10
2.75594
20
-0.201102
11
2.7582
21
-0.201552
0
LINE
8
BLACK
6
CONTINUOUS
10
5.12748
20
-0.263386
11
5.06748
21
-0.263386
0
LINE
8
BLACK
6
CONTINUOUS
10
5.06748
20
-0.263386
11
5.06748
21
-0.203386
0
LINE
8
BLACK
6
CONTINUOUS
10
5.06748
20
-0.203386
11
5.12748
21
-0.203386
0
LINE
8
BLACK
6
CONTINUOUS
10
5.12748
20
-0.203386
11
5.12748
21
-0.263386
0
LINE
8
BLACK
6
CONTINUOUS
10
5.02748
20
-0.263386
11
4.96748
21
-0.263386
0
LINE
8
BLACK
6
CONTINUOUS
10
4.96748
20
-0.263386
11
4.96748
21
-0.203386
0
LINE
8
BLACK
6
CONTINUOUS
10
4.96748
20
-0.203386
11
5.02748
21
-0.203386
0
LINE
8
BLACK
6
CONTINUOUS
10
5.02748
20
-0.203386
11
5.02748
21
-0.263386
0
LINE
8
BLACK
6
CONTINUOUS
10
4.8822
20
-0.263386
11
4.8222
21
-0.263386
0
LINE
8
BLACK
6
CONTINUOUS
10
4.8222
20
-0.263386
11
4.8222
21
-0.203386
0
LINE
8
BLACK
6
CONTINUOUS
10
4.8222
20
-0.203386
11
4.8822
21
-0.203386
0
LINE
8
BLACK
6
CONTINUOUS
10
4.8822
20
-0.203386
11
4.8822
21
-0.263386
0
LINE
8
BLACK
6
CONTINUOUS
10
4.7822
20
-0.263386
11
4.7222
21
-0.263386
0
LINE
8
BLACK
6
CONTINUOUS
10
4.7222
20
-0.263386
11
4.7222
21
-0.203386
0
LINE
8
BLACK
6
CONTINUOUS
10
4.7222
20
-0.203386
11
4.7822
21
-0.203386
0
LINE
8
BLACK
6
CONTINUOUS
10
4.7822
20
-0.203386
11
4.7822
21
-0.263386
0
LINE
8
BLACK
6
CONTINUOUS
10
5.24915
20
-0.236985
11
5.25107
21
-0.238265
0
LINE
8
BLACK
6
CONTINUOUS
10
5.25107
20
-0.238265
11
5.25235
21
-0.240181
0
LINE
8
BLACK
6
CONTINUOUS
10
5.25235
20
-0.240181
11
5.2528
21
-0.242441
0
LINE
8
BLACK
6
CONTINUOUS
10
5.2528
20
-0.242441
11
5.2528
21
-0.254252
0
LINE
8
BLACK
6
CONTINUOUS
10
5.2528
20
-0.254252
11
5.25235
21
-0.256512
0
LINE
8
BLACK
6
CONTINUOUS
10
5.25235
20
-0.256512
11
5.25107
21
-0.258428
0
LINE
8
BLACK
6
CONTINUOUS
10
5.25107
20
-0.258428
11
5.24915
21
-0.259708
0
LINE
8
BLACK
6
CONTINUOUS
10
5.24915
20
-0.259708
11
5.24689
21
-0.260157
0
LINE
8
BLACK
6
CONTINUOUS
10
5.24689
20
-0.260157
11
5.20654
21
-0.260157
0
LINE
8
BLACK
6
CONTINUOUS
10
5.20654
20
-0.260157
11
5.20428
21
-0.259708
0
LINE
8
BLACK
6
CONTINUOUS
10
5.20428
20
-0.259708
11
5.20236
21
-0.258428
0
LINE
8
BLACK
6
CONTINUOUS
10
5.20236
20
-0.258428
11
5.20108
21
-0.256512
0
LINE
8
BLACK
6
CONTINUOUS
10
5.20108
20
-0.256512
11
5.20063
21
-0.254252
0
LINE
8
BLACK
6
CONTINUOUS
10
5.20063
20
-0.254252
11
5.20063
21
-0.242441
0
LINE
8
BLACK
6
CONTINUOUS
10
5.20063
20
-0.242441
11
5.20108
21
-0.240181
0
LINE
8
BLACK
6
CONTINUOUS
10
5.20108
20
-0.240181
11
5.20236
21
-0.238265
0
LINE
8
BLACK
6
CONTINUOUS
10
5.20236
20
-0.238265
11
5.20428
21
-0.236985
0
LINE
8
BLACK
6
CONTINUOUS
10
5.20428
20
-0.236985
11
5.20654
21
-0.236535
0
LINE
8
BLACK
6
CONTINUOUS
10
5.20654
20
-0.236535
11
5.24689
21
-0.236535
0
LINE
8
BLACK
6
CONTINUOUS
10
5.24689
20
-0.236535
11
5.24915
21
-0.236985
0
LINE
8
BLACK
6
CONTINUOUS
10
5.33872
20
-0.236985
11
5.34063
21
-0.238265
0
LINE
8
BLACK
6
CONTINUOUS
10
5.34063
20
-0.238265
11
5.34191
21
-0.240181
0
LINE
8
BLACK
6
CONTINUOUS
10
5.34191
20
-0.240181
11
5.34236
21
-0.242441
0
LINE
8
BLACK
6
CONTINUOUS
10
5.34236
20
-0.242441
11
5.34236
21
-0.254252
0
LINE
8
BLACK
6
CONTINUOUS
10
5.34236
20
-0.254252
11
5.34191
21
-0.256512
0
LINE
8
BLACK
6
CONTINUOUS
10
5.34191
20
-0.256512
11
5.34063
21
-0.258428
0
LINE
8
BLACK
6
CONTINUOUS
10
5.34063
20
-0.258428
11
5.33872
21
-0.259708
0
LINE
8
BLACK
6
CONTINUOUS
10
5.33872
20
-0.259708
11
5.33646
21
-0.260157
0
LINE
8
BLACK
6
CONTINUOUS
10
5.33646
20
-0.260157
11
5.2961
21
-0.260157
0
LINE
8
BLACK
6
CONTINUOUS
10
5.2961
20
-0.260157
11
5.29384
21
-0.259708
0
LINE
8
BLACK
6
CONTINUOUS
10
5.29384
20
-0.259708
11
5.29193
21
-0.258428
0
LINE
8
BLACK
6
CONTINUOUS
10
5.29193
20
-0.258428
11
5.29065
21
-0.256512
0
LINE
8
BLACK
6
CONTINUOUS
10
5.29065
20
-0.256512
11
5.2902
21
-0.254252
0
LINE
8
BLACK
6
CONTINUOUS
10
5.2902
20
-0.254252
11
5.2902
21
-0.242441
0
LINE
8
BLACK
6
CONTINUOUS
10
5.2902
20
-0.242441
11
5.29065
21
-0.240181
0
LINE
8
BLACK
6
CONTINUOUS
10
5.29065
20
-0.240181
11
5.29193
21
-0.238265
0
LINE
8
BLACK
6
CONTINUOUS
10
5.29193
20
-0.238265
11
5.29384
21
-0.236985
0
LINE
8
BLACK
6
CONTINUOUS
10
5.29384
20
-0.236985
11
5.2961
21
-0.236535
0
LINE
8
BLACK
6
CONTINUOUS
10
5.2961
20
-0.236535
11
5.33646
21
-0.236535
0
LINE
8
BLACK
6
CONTINUOUS
10
5.33646
20
-0.236535
11
5.33872
21
-0.236985
0
LINE
8
BLACK
6
CONTINUOUS
10
3.52572
20
-0.201355
11
3.52764
21
-0.202635
0
LINE
8
BLACK
6
CONTINUOUS
10
3.52764
20
-0.202635
11
3.52892
21
-0.204551
0
LINE
8
BLACK
6
CONTINUOUS
10
3.52892
20
-0.204551
11
3.52937
21
-0.206811
0
LINE
8
BLACK
6
CONTINUOUS
10
3.52937
20
-0.206811
11
3.52937
21
-0.218622
0
LINE
8
BLACK
6
CONTINUOUS
10
3.52937
20
-0.218622
11
3.52892
21
-0.220882
0
LINE
8
BLACK
6
CONTINUOUS
10
3.52892
20
-0.220882
11
3.52764
21
-0.222798
0
LINE
8
BLACK
6
CONTINUOUS
10
3.52764
20
-0.222798
11
3.52572
21
-0.224078
0
LINE
8
BLACK
6
CONTINUOUS
10
3.52572
20
-0.224078
11
3.52346
21
-0.224528
0
LINE
8
BLACK
6
CONTINUOUS
10
3.52346
20
-0.224528
11
3.4585
21
-0.224528
0
LINE
8
BLACK
6
CONTINUOUS
10
3.4585
20
-0.224528
11
3.45624
21
-0.224078
0
LINE
8
BLACK
6
CONTINUOUS
10
3.45624
20
-0.224078
11
3.45433
21
-0.222798
0
LINE
8
BLACK
6
CONTINUOUS
10
3.45433
20
-0.222798
11
3.45305
21
-0.220882
0
LINE
8
BLACK
6
CONTINUOUS
10
3.45305
20
-0.220882
11
3.4526
21
-0.218622
0
LINE
8
BLACK
6
CONTINUOUS
10
3.4526
20
-0.218622
11
3.4526
21
-0.206811
0
LINE
8
BLACK
6
CONTINUOUS
10
3.4526
20
-0.206811
11
3.45305
21
-0.204551
0
LINE
8
BLACK
6
CONTINUOUS
10
3.45305
20
-0.204551
11
3.45433
21
-0.202635
0
LINE
8
BLACK
6
CONTINUOUS
10
3.45433
20
-0.202635
11
3.45624
21
-0.201355
0
LINE
8
BLACK
6
CONTINUOUS
10
3.45624
20
-0.201355
11
3.4585
21
-0.200906
0
LINE
8
BLACK
6
CONTINUOUS
10
3.4585
20
-0.200906
11
3.52346
21
-0.200906
0
LINE
8
BLACK
6
CONTINUOUS
10
3.52346
20
-0.200906
11
3.52572
21
-0.201355
0
LINE
8
BLACK
6
CONTINUOUS
10
3.33084
20
-0.201355
11
3.33276
21
-0.202635
0
LINE
8
BLACK
6
CONTINUOUS
10
3.33276
20
-0.202635
11
3.33404
21
-0.204551
0
LINE
8
BLACK
6
CONTINUOUS
10
3.33404
20
-0.204551
11
3.33449
21
-0.206811
0
LINE
8
BLACK
6
CONTINUOUS
10
3.33449
20
-0.206811
11
3.33449
21
-0.218622
0
LINE
8
BLACK
6
CONTINUOUS
10
3.33449
20
-0.218622
11
3.33404
21
-0.220882
0
LINE
8
BLACK
6
CONTINUOUS
10
3.33404
20
-0.220882
11
3.33276
21
-0.222798
0
LINE
8
BLACK
6
CONTINUOUS
10
3.33276
20
-0.222798
11
3.33084
21
-0.224078
0
LINE
8
BLACK
6
CONTINUOUS
10
3.33084
20
-0.224078
11
3.32858
21
-0.224528
0
LINE
8
BLACK
6
CONTINUOUS
10
3.32858
20
-0.224528
11
3.26362
21
-0.224528
0
LINE
8
BLACK
6
CONTINUOUS
10
3.26362
20
-0.224528
11
3.26136
21
-0.224078
0
LINE
8
BLACK
6
CONTINUOUS
10
3.26136
20
-0.224078
11
3.25945
21
-0.222798
0
LINE
8
BLACK
6
CONTINUOUS
10
3.25945
20
-0.222798
11
3.25817
21
-0.220882
0
LINE
8
BLACK
6
CONTINUOUS
10
3.25817
20
-0.220882
11
3.25772
21
-0.218622
0
LINE
8
BLACK
6
CONTINUOUS
10
3.25772
20
-0.218622
11
3.25772
21
-0.206811
0
LINE
8
BLACK
6
CONTINUOUS
10
3.25772
20
-0.206811
11
3.25817
21
-0.204551
0
LINE
8
BLACK
6
CONTINUOUS
10
3.25817
20
-0.204551
11
3.25945
21
-0.202635
0
LINE
8
BLACK
6
CONTINUOUS
10
3.25945
20
-0.202635
11
3.26136
21
-0.201355
0
LINE
8
BLACK
6
CONTINUOUS
10
3.26136
20
-0.201355
11
3.26362
21
-0.200906
0
LINE
8
BLACK
6
CONTINUOUS
10
3.26362
20
-0.200906
11
3.32858
21
-0.200906
0
LINE
8
BLACK
6
CONTINUOUS
10
3.32858
20
-0.200906
11
3.33084
21
-0.201355
0
LINE
8
BLACK
6
CONTINUOUS
10
5.33872
20
-0.199583
11
5.34063
21
-0.200864
0
LINE
8
BLACK
6
CONTINUOUS
10
5.34063
20
-0.200864
11
5.34191
21
-0.202779
0
LINE
8
BLACK
6
CONTINUOUS
10
5.34191
20
-0.202779
11
5.34236
21
-0.205039
0
LINE
8
BLACK
6
CONTINUOUS
10
5.34236
20
-0.205039
11
5.34236
21
-0.21685
0
LINE
8
BLACK
6
CONTINUOUS
10
5.34236
20
-0.21685
11
5.34191
21
-0.21911
0
LINE
8
BLACK
6
CONTINUOUS
10
5.34191
20
-0.21911
11
5.34063
21
-0.221026
0
LINE
8
BLACK
6
CONTINUOUS
10
5.34063
20
-0.221026
11
5.33872
21
-0.222306
0
LINE
8
BLACK
6
CONTINUOUS
10
5.33872
20
-0.222306
11
5.33646
21
-0.222756
0
LINE
8
BLACK
6
CONTINUOUS
10
5.33646
20
-0.222756
11
5.2961
21
-0.222756
0
LINE
8
BLACK
6
CONTINUOUS
10
5.2961
20
-0.222756
11
5.29384
21
-0.222306
0
LINE
8
BLACK
6
CONTINUOUS
10
5.29384
20
-0.222306
11
5.29193
21
-0.221026
0
LINE
8
BLACK
6
CONTINUOUS
10
5.29193
20
-0.221026
11
5.29065
21
-0.21911
0
LINE
8
BLACK
6
CONTINUOUS
10
5.29065
20
-0.21911
11
5.2902
21
-0.21685
0
LINE
8
BLACK
6
CONTINUOUS
10
5.2902
20
-0.21685
11
5.2902
21
-0.205039
0
LINE
8
BLACK
6
CONTINUOUS
10
5.2902
20
-0.205039
11
5.29065
21
-0.202779
0
LINE
8
BLACK
6
CONTINUOUS
10
5.29065
20
-0.202779
11
5.29193
21
-0.200864
0
LINE
8
BLACK
6
CONTINUOUS
10
5.29193
20
-0.200864
11
5.29384
21
-0.199583
0
LINE
8
BLACK
6
CONTINUOUS
10
5.29384
20
-0.199583
11
5.2961
21
-0.199134
0
LINE
8
BLACK
6
CONTINUOUS
10
5.2961
20
-0.199134
11
5.33646
21
-0.199134
0
LINE
8
BLACK
6
CONTINUOUS
10
5.33646
20
-0.199134
11
5.33872
21
-0.199583
0
LINE
8
BLACK
6
CONTINUOUS
10
5.24915
20
-0.199583
11
5.25107
21
-0.200864
0
LINE
8
BLACK
6
CONTINUOUS
10
5.25107
20
-0.200864
11
5.25235
21
-0.202779
0
LINE
8
BLACK
6
CONTINUOUS
10
5.25235
20
-0.202779
11
5.2528
21
-0.205039
0
LINE
8
BLACK
6
CONTINUOUS
10
5.2528
20
-0.205039
11
5.2528
21
-0.21685
0
LINE
8
BLACK
6
CONTINUOUS
10
5.2528
20
-0.21685
11
5.25235
21
-0.21911
0
LINE
8
BLACK
6
CONTINUOUS
10
5.25235
20
-0.21911
11
5.25107
21
-0.221026
0
LINE
8
BLACK
6
CONTINUOUS
10
5.25107
20
-0.221026
11
5.24915
21
-0.222306
0
LINE
8
BLACK
6
CONTINUOUS
10
5.24915
20
-0.222306
11
5.24689
21
-0.222756
0
LINE
8
BLACK
6
CONTINUOUS
10
5.24689
20
-0.222756
11
5.20654
21
-0.222756
0
LINE
8
BLACK
6
CONTINUOUS
10
5.20654
20
-0.222756
11
5.20428
21
-0.222306
0
LINE
8
BLACK
6
CONTINUOUS
10
5.20428
20
-0.222306
11
5.20236
21
-0.221026
0
LINE
8
BLACK
6
CONTINUOUS
10
5.20236
20
-0.221026
11
5.20108
21
-0.21911
0
LINE
8
BLACK
6
CONTINUOUS
10
5.20108
20
-0.21911
11
5.20063
21
-0.21685
0
LINE
8
BLACK
6
CONTINUOUS
10
5.20063
20
-0.21685
11
5.20063
21
-0.205039
0
LINE
8
BLACK
6
CONTINUOUS
10
5.20063
20
-0.205039
11
5.20108
21
-0.202779
0
LINE
8
BLACK
6
CONTINUOUS
10
5.20108
20
-0.202779
11
5.20236
21
-0.200864
0
LINE
8
BLACK
6
CONTINUOUS
10
5.20236
20
-0.200864
11
5.20428
21
-0.199583
0
LINE
8
BLACK
6
CONTINUOUS
10
5.20428
20
-0.199583
11
5.20654
21
-0.199134
0
LINE
8
BLACK
6
CONTINUOUS
10
5.20654
20
-0.199134
11
5.24689
21
-0.199134
0
LINE
8
BLACK
6
CONTINUOUS
10
5.24689
20
-0.199134
11
5.24915
21
-0.199583
0
LINE
8
BLACK
6
CONTINUOUS
10
0.980384
20
1.98289
11
0.980513
21
1.98291
0
LINE
8
BLACK
6
CONTINUOUS
10
0.980513
20
1.98291
11
0.980626
21
1.98284
0
LINE
8
BLACK
6
CONTINUOUS
10
0.980626
20
1.98284
11
0.98101
21
1.98277
0
LINE
8
BLACK
6
CONTINUOUS
10
0.98101
20
1.98277
11
0.981598
21
1.98228
0
LINE
8
BLACK
6
CONTINUOUS
10
0.981598
20
1.98228
11
0.982262
21
1.9819
0
LINE
8
BLACK
6
CONTINUOUS
10
0.982262
20
1.9819
11
0.982353
21
1.98165
0
LINE
8
BLACK
6
CONTINUOUS
10
0.982353
20
1.98165
11
0.982557
21
1.98148
0
LINE
8
BLACK
6
CONTINUOUS
10
0.982557
20
1.98148
11
0.98269
21
1.98072
0
LINE
8
BLACK
6
CONTINUOUS
10
0.98269
20
1.98072
11
0.982953
21
1.98
0
LINE
8
BLACK
6
CONTINUOUS
10
0.982953
20
1.98
11
0.982953
21
1.64567
0
LINE
8
BLACK
6
CONTINUOUS
10
0.982953
20
1.64567
11
1.10913
21
1.64567
0
LINE
8
BLACK
6
CONTINUOUS
10
1.10913
20
1.64567
11
1.10913
21
1.6063
0
LINE
8
BLACK
6
CONTINUOUS
10
1.10913
20
1.6063
11
0.982953
21
1.6063
0
LINE
8
BLACK
6
CONTINUOUS
10
0.982953
20
1.6063
11
0.982953
21
0.393701
0
LINE
8
BLACK
6
CONTINUOUS
10
0.982953
20
0.393701
11
1.10913
21
0.393701
0
LINE
8
BLACK
6
CONTINUOUS
10
1.10913
20
0.393701
11
1.10913
21
0.354331
0
LINE
8
BLACK
6
CONTINUOUS
10
1.10913
20
0.354331
11
0.982953
21
0.354331
0
LINE
8
BLACK
6
CONTINUOUS
10
0.982953
20
0.354331
11
0.982953
21
0.02
0
LINE
8
BLACK
6
CONTINUOUS
10
0.982953
20
0.02
11
0.982885
21
0.0196165
0
LINE
8
BLACK
6
CONTINUOUS
10
0.982885
20
0.0196165
11
0.982908
21
0.0194872
0
LINE
8
BLACK
6
CONTINUOUS
10
0.982908
20
0.0194872
11
0.982842
21
0.0193736
0
LINE
8
BLACK
6
CONTINUOUS
10
0.982842
20
0.0193736
11
0.982775
21
0.0189901
0
LINE
8
BLACK
6
CONTINUOUS
10
0.982775
20
0.0189901
11
0.982282
21
0.0184024
0
LINE
8
BLACK
6
CONTINUOUS
10
0.982282
20
0.0184024
11
0.981898
21
0.0177381
0
LINE
8
BLACK
6
CONTINUOUS
10
0.981898
20
0.0177381
11
0.981648
21
0.017647
0
LINE
8
BLACK
6
CONTINUOUS
10
0.981648
20
0.017647
11
0.981476
21
0.0174428
0
LINE
8
BLACK
6
CONTINUOUS
10
0.981476
20
0.0174428
11
0.980721
21
0.0173096
0
LINE
8
BLACK
6
CONTINUOUS
10
0.980721
20
0.0173096
11
0.98
21
0.0170472
0
LINE
8
BLACK
6
CONTINUOUS
10
0.98
20
0.0170472
11
0.02
21
0.0170472
0
LINE
8
BLACK
6
CONTINUOUS
10
0.02
20
0.0170472
11
0.0196165
21
0.0171149
0
LINE
8
BLACK
6
CONTINUOUS
10
0.0196165
20
0.0171149
11
0.0194872
21
0.0170921
0
LINE
8
BLACK
6
CONTINUOUS
10
0.0194872
20
0.0170921
11
0.0193736
21
0.0171577
0
LINE
8
BLACK
6
CONTINUOUS
10
0.0193736
20
0.0171577
11
0.0189901
21
0.0172253
0
LINE
8
BLACK
6
CONTINUOUS
10
0.0189901
20
0.0172253
11
0.0184024
21
0.0177185
0
LINE
8
BLACK
6
CONTINUOUS
10
0.0184024
20
0.0177185
11
0.0177381
21
0.018102
0
LINE
8
BLACK
6
CONTINUOUS
10
0.0177381
20
0.018102
11
0.017647
21
0.0183524
0
LINE
8
BLACK
6
CONTINUOUS
10
0.017647
20
0.0183524
11
0.0174428
21
0.0185236
0
LINE
8
BLACK
6
CONTINUOUS
10
0.0174428
20
0.0185236
11
0.0173096
21
0.0192792
0
LINE
8
BLACK
6
CONTINUOUS
10
0.0173096
20
0.0192792
11
0.0170472
21
0.02
0
LINE
8
BLACK
6
CONTINUOUS
10
0.0170472
20
0.02
11
0.0170472
21
1.98
0
LINE
8
BLACK
6
CONTINUOUS
10
0.0170472
20
1.98
11
0.0171149
21
1.98038
0
LINE
8
BLACK
6
CONTINUOUS
10
0.0171149
20
1.98038
11
0.0170921
21
1.98051
0
LINE
8
BLACK
6
CONTINUOUS
10
0.0170921
20
1.98051
11
0.0171577
21
1.98063
0
LINE
8
BLACK
6
CONTINUOUS
10
0.0171577
20
1.98063
11
0.0172253
21
1.98101
0
LINE
8
BLACK
6
CONTINUOUS
10
0.0172253
20
1.98101
11
0.0177185
21
1.9816
0
LINE
8
BLACK
6
CONTINUOUS
10
0.0177185
20
1.9816
11
0.018102
21
1.98226
0
LINE
8
BLACK
6
CONTINUOUS
10
0.018102
20
1.98226
11
0.0183524
21
1.98235
0
LINE
8
BLACK
6
CONTINUOUS
10
0.0183524
20
1.98235
11
0.0185236
21
1.98256
0
LINE
8
BLACK
6
CONTINUOUS
10
0.0185236
20
1.98256
11
0.0192792
21
1.98269
0
LINE
8
BLACK
6
CONTINUOUS
10
0.0192792
20
1.98269
11
0.02
21
1.98295
0
LINE
8
BLACK
6
CONTINUOUS
10
0.02
20
1.98295
11
0.98
21
1.98295
0
LINE
8
BLACK
6
CONTINUOUS
10
0.98
20
1.98295
11
0.980384
21
1.98289
0
LINE
8
BLACK
6
CONTINUOUS
10
3.40865
20
0.317793
11
3.42213
21
0.316018
0
LINE
8
BLACK
6
CONTINUOUS
10
3.42213
20
0.316018
11
3.43532
21
0.312706
0
LINE
8
BLACK
6
CONTINUOUS
10
3.43532
20
0.312706
11
3.44804
21
0.307899
0
LINE
8
BLACK
6
CONTINUOUS
10
3.44804
20
0.307899
11
3.46012
21
0.301662
0
LINE
8
BLACK
6
CONTINUOUS
10
3.46012
20
0.301662
11
3.47141
21
0.294078
0
LINE
8
BLACK
6
CONTINUOUS
10
3.47141
20
0.294078
11
3.48175
21
0.285247
0
LINE
8
BLACK
6
CONTINUOUS
10
3.48175
20
0.285247
11
3.49101
21
0.275286
0
LINE
8
BLACK
6
CONTINUOUS
10
3.49101
20
0.275286
11
3.49906
21
0.264327
0
LINE
8
BLACK
6
CONTINUOUS
10
3.49906
20
0.264327
11
3.50579
21
0.252516
0
LINE
8
BLACK
6
CONTINUOUS
10
3.50579
20
0.252516
11
3.51113
21
0.240008
0
LINE
8
BLACK
6
CONTINUOUS
10
3.51113
20
0.240008
11
3.51499
21
0.226971
0
LINE
8
BLACK
6
CONTINUOUS
10
3.51499
20
0.226971
11
3.51733
21
0.213575
0
LINE
8
BLACK
6
CONTINUOUS
10
3.51733
20
0.213575
11
3.51811
21
0.2
0
LINE
8
BLACK
6
CONTINUOUS
10
3.51811
20
0.2
11
3.51788
21
0.192584
0
LINE
8
BLACK
6
CONTINUOUS
10
3.51788
20
0.192584
11
3.51624
21
0.179084
0
LINE
8
BLACK
6
CONTINUOUS
10
3.51624
20
0.179084
11
3.51307
21
0.165862
0
LINE
8
BLACK
6
CONTINUOUS
10
3.51307
20
0.165862
11
3.5084
21
0.153093
0
LINE
8
BLACK
6
CONTINUOUS
10
3.5084
20
0.153093
11
3.50229
21
0.140945
0
LINE
8
BLACK
6
CONTINUOUS
10
3.50229
20
0.140945
11
3.49482
21
0.12958
0
LINE
8
BLACK
6
CONTINUOUS
10
3.49482
20
0.12958
11
3.4861
21
0.119148
0
LINE
8
BLACK
6
CONTINUOUS
10
3.4861
20
0.119148
11
3.47624
21
0.109788
0
LINE
8
BLACK
6
CONTINUOUS
10
3.47624
20
0.109788
11
3.46536
21
0.101623
0
LINE
8
BLACK
6
CONTINUOUS
10
3.46536
20
0.101623
11
3.45362
21
0.094763
0
LINE
8
BLACK
6
CONTINUOUS
10
3.45362
20
0.094763
11
3.44117
21
0.0892974
0
LINE
8
BLACK
6
CONTINUOUS
10
3.44117
20
0.0892974
11
3.42817
21
0.0852991
0
LINE
8
BLACK
6
CONTINUOUS
10
3.42817
20
0.0852991
11
3.4148
21
0.0828211
0
LINE
8
BLACK
6
CONTINUOUS
10
3.4148
20
0.0828211
11
3.40124
21
0.0818962
0
LINE
8
BLACK
6
CONTINUOUS
10
3.40124
20
0.0818962
11
3.38765
21
0.0825368
0
LINE
8
BLACK
6
CONTINUOUS
10
3.38765
20
0.0825368
11
3.37424
21
0.0847343
0
LINE
8
BLACK
6
CONTINUOUS
10
3.37424
20
0.0847343
11
3.36116
21
0.0884595
0
LINE
8
BLACK
6
CONTINUOUS
10
3.36116
20
0.0884595
11
3.34859
21
0.0936631
0
LINE
8
BLACK
6
CONTINUOUS
10
3.34859
20
0.0936631
11
3.33671
21
0.100276
0
LINE
8
BLACK
6
CONTINUOUS
10
3.33671
20
0.100276
11
3.32567
21
0.108211
0
LINE
8
BLACK
6
CONTINUOUS
10
3.32567
20
0.108211
11
3.31561
21
0.117363
0
LINE
8
BLACK
6
CONTINUOUS
10
3.31561
20
0.117363
11
3.30667
21
0.127609
0
LINE
8
BLACK
6
CONTINUOUS
10
3.30667
20
0.127609
11
3.29897
21
0.138816
0
LINE
8
BLACK
6
CONTINUOUS
10
3.29897
20
0.138816
11
3.29261
21
0.150833
0
LINE
8
BLACK
6
CONTINUOUS
10
3.29261
20
0.150833
11
3.28767
21
0.163502
0
LINE
8
BLACK
6
CONTINUOUS
10
3.28767
20
0.163502
11
3.28422
21
0.176655
0
LINE
8
BLACK
6
CONTINUOUS
10
3.28422
20
0.176655
11
3.2823
21
0.190117
0
LINE
8
BLACK
6
CONTINUOUS
10
3.2823
20
0.190117
11
3.28195
21
0.20371
0
LINE
8
BLACK
6
CONTINUOUS
10
3.28195
20
0.20371
11
3.28316
21
0.217254
0
LINE
8
BLACK
6
CONTINUOUS
10
3.28316
20
0.217254
11
3.28591
21
0.230569
0
LINE
8
BLACK
6
CONTINUOUS
10
3.28591
20
0.230569
11
3.29018
21
0.243479
0
LINE
8
BLACK
6
CONTINUOUS
10
3.29018
20
0.243479
11
3.29591
21
0.255813
0
LINE
8
BLACK
6
CONTINUOUS
10
3.29591
20
0.255813
11
3.30301
21
0.267407
0
LINE
8
BLACK
6
CONTINUOUS
10
3.30301
20
0.267407
11
3.3114
21
0.278108
0
LINE
8
BLACK
6
CONTINUOUS
10
3.3114
20
0.278108
11
3.32097
21
0.287773
0
LINE
8
BLACK
6
CONTINUOUS
10
3.32097
20
0.287773
11
3.33158
21
0.296275
0
LINE
8
BLACK
6
CONTINUOUS
10
3.33158
20
0.296275
11
3.3431
21
0.303501
0
LINE
8
BLACK
6
CONTINUOUS
10
3.3431
20
0.303501
11
3.35537
21
0.309355
0
LINE
8
BLACK
6
CONTINUOUS
10
3.35537
20
0.309355
11
3.36824
21
0.313759
0
LINE
8
BLACK
6
CONTINUOUS
10
3.36824
20
0.313759
11
3.38152
21
0.316656
0
LINE
8
BLACK
6
CONTINUOUS
10
3.38152
20
0.316656
11
3.39505
21
0.318007
0
LINE
8
BLACK
6
CONTINUOUS
10
3.39505
20
0.318007
11
3.40865
21
0.317793
0
LINE
8
BLACK
6
CONTINUOUS
10
1.19575
20
0.354331
11
1.19575
21
0.393701
0
LINE
8
BLACK
6
CONTINUOUS
10
1.19575
20
0.393701
11
1.2863
21
0.393701
0
LINE
8
BLACK
6
CONTINUOUS
10
1.2863
20
0.393701
11
1.2863
21
0.484252
0
LINE
8
BLACK
6
CONTINUOUS
10
1.2863
20
0.484252
11
1.32567
21
0.484252
0
LINE
8
BLACK
6
CONTINUOUS
10
1.32567
20
0.484252
11
1.32567
21
0.354331
0
LINE
8
BLACK
6
CONTINUOUS
10
1.32567
20
0.354331
11
1.19575
21
0.354331
0
LINE
8
BLACK
6
CONTINUOUS
10
3.20378
20
0.387717
11
3.07386
21
0.387717
0
LINE
8
BLACK
6
CONTINUOUS
10
3.07386
20
0.387717
11
3.07386
21
0.48811
0
LINE
8
BLACK
6
CONTINUOUS
10
3.07386
20
0.48811
11
3.20378
21
0.48811
0
LINE
8
BLACK
6
CONTINUOUS
10
3.20378
20
0.48811
11
3.20378
21
0.387717
0
LINE
8
BLACK
6
CONTINUOUS
10
2.75102
20
0.387717
11
2.60142
21
0.387717
0
LINE
8
BLACK
6
CONTINUOUS
10
2.60142
20
0.387717
11
2.60142
21
0.427087
0
LINE
8
BLACK
6
CONTINUOUS
10
2.60142
20
0.427087
11
2.75102
21
0.427087
0
LINE
8
BLACK
6
CONTINUOUS
10
2.75102
20
0.427087
11
2.75102
21
0.387717
0
LINE
8
BLACK
6
CONTINUOUS
10
1.56992
20
0.387717
11
1.44
21
0.387717
0
LINE
8
BLACK
6
CONTINUOUS
10
1.44
20
0.387717
11
1.44
21
0.48811
0
LINE
8
BLACK
6
CONTINUOUS
10
1.44
20
0.48811
11
1.56992
21
0.48811
0
LINE
8
BLACK
6
CONTINUOUS
10
1.56992
20
0.48811
11
1.56992
21
0.387717
0
LINE
8
BLACK
6
CONTINUOUS
10
2.04236
20
0.387717
11
1.89276
21
0.387717
0
LINE
8
BLACK
6
CONTINUOUS
10
1.89276
20
0.387717
11
1.89276
21
0.427087
0
LINE
8
BLACK
6
CONTINUOUS
10
1.89276
20
0.427087
11
2.04236
21
0.427087
0
LINE
8
BLACK
6
CONTINUOUS
10
2.04236
20
0.427087
11
2.04236
21
0.387717
0
LINE
8
BLACK
6
CONTINUOUS
10
2.5148
20
0.387717
11
2.3652
21
0.387717
0
LINE
8
BLACK
6
CONTINUOUS
10
2.3652
20
0.387717
11
2.3652
21
0.427087
0
LINE
8
BLACK
6
CONTINUOUS
10
2.3652
20
0.427087
11
2.5148
21
0.427087
0
LINE
8
BLACK
6
CONTINUOUS
10
2.5148
20
0.427087
11
2.5148
21
0.387717
0
LINE
8
BLACK
6
CONTINUOUS
10
2.27858
20
0.387717
11
2.12898
21
0.387717
0
LINE
8
BLACK
6
CONTINUOUS
10
2.12898
20
0.387717
11
2.12898
21
0.427087
0
LINE
8
BLACK
6
CONTINUOUS
10
2.12898
20
0.427087
11
2.27858
21
0.427087
0
LINE
8
BLACK
6
CONTINUOUS
10
2.27858
20
0.427087
11
2.27858
21
0.387717
0
LINE
8
BLACK
6
CONTINUOUS
10
1.80614
20
0.387717
11
1.65654
21
0.387717
0
LINE
8
BLACK
6
CONTINUOUS
10
1.65654
20
0.387717
11
1.65654
21
0.427087
0
LINE
8
BLACK
6
CONTINUOUS
10
1.65654
20
0.427087
11
1.80614
21
0.427087
0
LINE
8
BLACK
6
CONTINUOUS
10
1.80614
20
0.427087
11
1.80614
21
0.387717
0
LINE
8
BLACK
6
CONTINUOUS
10
2.98724
20
0.387717
11
2.83764
21
0.387717
0
LINE
8
BLACK
6
CONTINUOUS
10
2.83764
20
0.387717
11
2.83764
21
0.427087
0
LINE
8
BLACK
6
CONTINUOUS
10
2.83764
20
0.427087
11
2.98724
21
0.427087
0
LINE
8
BLACK
6
CONTINUOUS
10
2.98724
20
0.427087
11
2.98724
21
0.387717
0
LINE
8
BLACK
6
CONTINUOUS
10
1.32567
20
0.570866
11
1.2863
21
0.570866
0
LINE
8
BLACK
6
CONTINUOUS
10
1.2863
20
0.570866
11
1.2863
21
0.720472
0
LINE
8
BLACK
6
CONTINUOUS
10
1.2863
20
0.720472
11
1.32567
21
0.720472
0
LINE
8
BLACK
6
CONTINUOUS
10
1.32567
20
0.720472
11
1.32567
21
0.570866
0
LINE
8
BLACK
6
CONTINUOUS
10
1.47937
20
0.574724
11
1.44
21
0.574724
0
LINE
8
BLACK
6
CONTINUOUS
10
1.44
20
0.574724
11
1.44
21
0.724331
0
LINE
8
BLACK
6
CONTINUOUS
10
1.44
20
0.724331
11
1.47937
21
0.724331
0
LINE
8
BLACK
6
CONTINUOUS
10
1.47937
20
0.724331
11
1.47937
21
0.574724
0
LINE
8
BLACK
6
CONTINUOUS
10
3.20378
20
0.574724
11
3.16441
21
0.574724
0
LINE
8
BLACK
6
CONTINUOUS
10
3.16441
20
0.574724
11
3.16441
21
0.724331
0
LINE
8
BLACK
6
CONTINUOUS
10
3.16441
20
0.724331
11
3.20378
21
0.724331
0
LINE
8
BLACK
6
CONTINUOUS
10
3.20378
20
0.724331
11
3.20378
21
0.574724
0
LINE
8
BLACK
6
CONTINUOUS
10
3.20378
20
1.61
11
3.57004
21
1.61
0
LINE
8
BLACK
6
CONTINUOUS
10
3.57004
20
1.61
11
3.57272
21
1.60921
0
LINE
8
BLACK
6
CONTINUOUS
10
3.57272
20
1.60921
11
3.57455
21
1.6071
0
LINE
8
BLACK
6
CONTINUOUS
10
3.57455
20
1.6071
11
3.575
21
1.60504
0
LINE
8
BLACK
6
CONTINUOUS
10
3.575
20
1.60504
11
3.575
21
0.739961
0
LINE
8
BLACK
6
CONTINUOUS
10
3.575
20
0.739961
11
3.57421
21
0.737279
0
LINE
8
BLACK
6
CONTINUOUS
10
3.57421
20
0.737279
11
3.5721
21
0.735448
0
LINE
8
BLACK
6
CONTINUOUS
10
3.5721
20
0.735448
11
3.57004
21
0.735
0
LINE
8
BLACK
6
CONTINUOUS
10
3.57004
20
0.735
11
3.16496
21
0.735
0
LINE
8
BLACK
6
CONTINUOUS
10
3.16496
20
0.735
11
3.16228
21
0.735787
0
LINE
8
BLACK
6
CONTINUOUS
10
3.16228
20
0.735787
11
3.16045
21
0.7379
0
LINE
8
BLACK
6
CONTINUOUS
10
3.16045
20
0.7379
11
3.16
21
0.739961
0
LINE
8
BLACK
6
CONTINUOUS
10
3.16
20
0.739961
11
3.16
21
1.51961
0
LINE
8
BLACK
6
CONTINUOUS
10
3.16
20
1.51961
11
3.07386
21
1.51961
0
LINE
8
BLACK
6
CONTINUOUS
10
3.07386
20
1.51961
11
3.07386
21
1.62
0
LINE
8
BLACK
6
CONTINUOUS
10
3.07386
20
1.62
11
3.20378
21
1.62
0
LINE
8
BLACK
6
CONTINUOUS
10
3.20378
20
1.62
11
3.20378
21
1.61
0
LINE
8
BLACK
6
CONTINUOUS
10
1.32567
20
0.807087
11
1.2863
21
0.807087
0
LINE
8
BLACK
6
CONTINUOUS
10
1.2863
20
0.807087
11
1.2863
21
0.956693
0
LINE
8
BLACK
6
CONTINUOUS
10
1.2863
20
0.956693
11
1.32567
21
0.956693
0
LINE
8
BLACK
6
CONTINUOUS
10
1.32567
20
0.956693
11
1.32567
21
0.807087
0
LINE
8
BLACK
6
CONTINUOUS
10
1.47937
20
0.810945
11
1.44
21
0.810945
0
LINE
8
BLACK
6
CONTINUOUS
10
1.44
20
0.810945
11
1.44
21
0.960551
0
LINE
8
BLACK
6
CONTINUOUS
10
1.44
20
0.960551
11
1.47937
21
0.960551
0
LINE
8
BLACK
6
CONTINUOUS
10
1.47937
20
0.960551
11
1.47937
21
0.810945
0
LINE
8
BLACK
6
CONTINUOUS
10
1.32567
20
1.04331
11
1.2863
21
1.04331
0
LINE
8
BLACK
6
CONTINUOUS
10
1.2863
20
1.04331
11
1.2863
21
1.19291
0
LINE
8
BLACK
6
CONTINUOUS
10
1.2863
20
1.19291
11
1.32567
21
1.19291
0
LINE
8
BLACK
6
CONTINUOUS
10
1.32567
20
1.19291
11
1.32567
21
1.04331
0
LINE
8
BLACK
6
CONTINUOUS
10
1.47937
20
1.04717
11
1.44
21
1.04717
0
LINE
8
BLACK
6
CONTINUOUS
10
1.44
20
1.04717
11
1.44
21
1.19677
0
LINE
8
BLACK
6
CONTINUOUS
10
1.44
20
1.19677
11
1.47937
21
1.19677
0
LINE
8
BLACK
6
CONTINUOUS
10
1.47937
20
1.19677
11
1.47937
21
1.04717
0
LINE
8
BLACK
6
CONTINUOUS
10
1.32567
20
1.27953
11
1.2863
21
1.27953
0
LINE
8
BLACK
6
CONTINUOUS
10
1.2863
20
1.27953
11
1.2863
21
1.42913
0
LINE
8
BLACK
6
CONTINUOUS
10
1.2863
20
1.42913
11
1.32567
21
1.42913
0
LINE
8
BLACK
6
CONTINUOUS
10
1.32567
20
1.42913
11
1.32567
21
1.27953
0
LINE
8
BLACK
6
CONTINUOUS
10
1.47937
20
1.28339
11
1.44
21
1.28339
0
LINE
8
BLACK
6
CONTINUOUS
10
1.44
20
1.28339
11
1.44
21
1.43299
0
LINE
8
BLACK
6
CONTINUOUS
10
1.44
20
1.43299
11
1.47937
21
1.43299
0
LINE
8
BLACK
6
CONTINUOUS
10
1.47937
20
1.43299
11
1.47937
21
1.28339
0
LINE
8
BLACK
6
CONTINUOUS
10
1.98674
20
1.38875
11
1.99294
21
1.38654
0
LINE
8
BLACK
6
CONTINUOUS
10
1.99294
20
1.38654
11
1.9985
21
1.38301
0
LINE
8
BLACK
6
CONTINUOUS
10
1.9985
20
1.38301
11
2.00314
21
1.37834
0
LINE
8
BLACK
6
CONTINUOUS
10
2.00314
20
1.37834
11
2.00663
21
1.37276
0
LINE
8
BLACK
6
CONTINUOUS
10
2.00663
20
1.37276
11
2.00879
21
1.36654
0
LINE
8
BLACK
6
CONTINUOUS
10
2.00879
20
1.36654
11
2.00953
21
1.36
0
LINE
8
BLACK
6
CONTINUOUS
10
2.00953
20
1.36
11
2.00952
21
1.35918
0
LINE
8
BLACK
6
CONTINUOUS
10
2.00952
20
1.35918
11
2.0086
21
1.35266
0
LINE
8
BLACK
6
CONTINUOUS
10
2.0086
20
1.35266
11
2.00626
21
1.3465
0
LINE
8
BLACK
6
CONTINUOUS
10
2.00626
20
1.3465
11
2.00262
21
1.34102
0
LINE
8
BLACK
6
CONTINUOUS
10
2.00262
20
1.34102
11
1.99785
21
1.33648
0
LINE
8
BLACK
6
CONTINUOUS
10
1.99785
20
1.33648
11
1.9922
21
1.33311
0
LINE
8
BLACK
6
CONTINUOUS
10
1.9922
20
1.33311
11
1.98594
21
1.33108
0
LINE
8
BLACK
6
CONTINUOUS
10
1.98594
20
1.33108
11
1.97938
21
1.33048
0
LINE
8
BLACK
6
CONTINUOUS
10
1.97938
20
1.33048
11
1.97286
21
1.33135
0
LINE
8
BLACK
6
CONTINUOUS
10
1.97286
20
1.33135
11
1.96669
21
1.33364
0
LINE
8
BLACK
6
CONTINUOUS
10
1.96669
20
1.33364
11
1.96118
21
1.33725
0
LINE
8
BLACK
6
CONTINUOUS
10
1.96118
20
1.33725
11
1.95661
21
1.34198
0
LINE
8
BLACK
6
CONTINUOUS
10
1.95661
20
1.34198
11
1.9532
21
1.34761
0
LINE
8
BLACK
6
CONTINUOUS
10
1.9532
20
1.34761
11
1.95112
21
1.35386
0
LINE
8
BLACK
6
CONTINUOUS
10
1.95112
20
1.35386
11
1.95048
21
1.36041
0
LINE
8
BLACK
6
CONTINUOUS
10
1.95048
20
1.36041
11
1.9513
21
1.36694
0
LINE
8
BLACK
6
CONTINUOUS
10
1.9513
20
1.36694
11
1.95355
21
1.37313
0
LINE
8
BLACK
6
CONTINUOUS
10
1.95355
20
1.37313
11
1.95712
21
1.37866
0
LINE
8
BLACK
6
CONTINUOUS
10
1.95712
20
1.37866
11
1.96182
21
1.38327
0
LINE
8
BLACK
6
CONTINUOUS
10
1.96182
20
1.38327
11
1.96743
21
1.38672
0
LINE
8
BLACK
6
CONTINUOUS
10
1.96743
20
1.38672
11
1.97366
21
1.38884
0
LINE
8
BLACK
6
CONTINUOUS
10
1.97366
20
1.38884
11
1.98021
21
1.38953
0
LINE
8
BLACK
6
CONTINUOUS
10
1.98021
20
1.38953
11
1.98674
21
1.38875
0
LINE
8
BLACK
6
CONTINUOUS
10
2.17887
20
1.38875
11
2.18507
21
1.38654
0
LINE
8
BLACK
6
CONTINUOUS
10
2.18507
20
1.38654
11
2.19063
21
1.38301
0
LINE
8
BLACK
6
CONTINUOUS
10
2.19063
20
1.38301
11
2.19527
21
1.37834
0
LINE
8
BLACK
6
CONTINUOUS
10
2.19527
20
1.37834
11
2.19875
21
1.37276
0
LINE
8
BLACK
6
CONTINUOUS
10
2.19875
20
1.37276
11
2.20092
21
1.36654
0
LINE
8
BLACK
6
CONTINUOUS
10
2.20092
20
1.36654
11
2.20165
21
1.36
0
LINE
8
BLACK
6
CONTINUOUS
10
2.20165
20
1.36
11
2.20164
21
1.35918
0
LINE
8
BLACK
6
CONTINUOUS
10
2.20164
20
1.35918
11
2.20073
21
1.35266
0
LINE
8
BLACK
6
CONTINUOUS
10
2.20073
20
1.35266
11
2.19839
21
1.3465
0
LINE
8
BLACK
6
CONTINUOUS
10
2.19839
20
1.3465
11
2.19475
21
1.34102
0
LINE
8
BLACK
6
CONTINUOUS
10
2.19475
20
1.34102
11
2.18998
21
1.33648
0
LINE
8
BLACK
6
CONTINUOUS
10
2.18998
20
1.33648
11
2.18432
21
1.33311
0
LINE
8
BLACK
6
CONTINUOUS
10
2.18432
20
1.33311
11
2.17806
21
1.33108
0
LINE
8
BLACK
6
CONTINUOUS
10
2.17806
20
1.33108
11
2.17151
21
1.33048
0
LINE
8
BLACK
6
CONTINUOUS
10
2.17151
20
1.33048
11
2.16498
21
1.33135
0
LINE
8
BLACK
6
CONTINUOUS
10
2.16498
20
1.33135
11
2.15881
21
1.33364
0
LINE
8
BLACK
6
CONTINUOUS
10
2.15881
20
1.33364
11
2.1533
21
1.33725
0
LINE
8
BLACK
6
CONTINUOUS
10
2.1533
20
1.33725
11
2.14873
21
1.34198
0
LINE
8
BLACK
6
CONTINUOUS
10
2.14873
20
1.34198
11
2.14532
21
1.34761
0
LINE
8
BLACK
6
CONTINUOUS
10
2.14532
20
1.34761
11
2.14324
21
1.35386
0
LINE
8
BLACK
6
CONTINUOUS
10
2.14324
20
1.35386
11
2.1426
21
1.36041
0
LINE
8
BLACK
6
CONTINUOUS
10
2.1426
20
1.36041
11
2.14343
21
1.36694
0
LINE
8
BLACK
6
CONTINUOUS
10
2.14343
20
1.36694
11
2.14568
21
1.37313
0
LINE
8
BLACK
6
CONTINUOUS
10
2.14568
20
1.37313
11
2.14924
21
1.37866
0
LINE
8
BLACK
6
CONTINUOUS
10
2.14924
20
1.37866
11
2.15395
21
1.38327
0
LINE
8
BLACK
6
CONTINUOUS
10
2.15395
20
1.38327
11
2.15955
21
1.38672
0
LINE
8
BLACK
6
CONTINUOUS
10
2.15955
20
1.38672
11
2.16579
21
1.38884
0
LINE
8
BLACK
6
CONTINUOUS
10
2.16579
20
1.38884
11
2.17233
21
1.38953
0
LINE
8
BLACK
6
CONTINUOUS
10
2.17233
20
1.38953
11
2.17887
21
1.38875
0
LINE
8
BLACK
6
CONTINUOUS
10
1.19575
20
1.64567
11
1.32567
21
1.64567
0
LINE
8
BLACK
6
CONTINUOUS
10
1.32567
20
1.64567
11
1.32567
21
1.51575
0
LINE
8
BLACK
6
CONTINUOUS
10
1.32567
20
1.51575
11
1.2863
21
1.51575
0
LINE
8
BLACK
6
CONTINUOUS
10
1.2863
20
1.51575
11
1.2863
21
1.6063
0
LINE
8
BLACK
6
CONTINUOUS
10
1.2863
20
1.6063
11
1.19575
21
1.6063
0
LINE
8
BLACK
6
CONTINUOUS
10
1.19575
20
1.6063
11
1.19575
21
1.64567
0
LINE
8
BLACK
6
CONTINUOUS
10
1.56992
20
1.51961
11
1.44
21
1.51961
0
LINE
8
BLACK
6
CONTINUOUS
10
1.44
20
1.51961
11
1.44
21
1.62
0
LINE
8
BLACK
6
CONTINUOUS
10
1.44
20
1.62
11
1.56992
21
1.62
0
LINE
8
BLACK
6
CONTINUOUS
10
1.56992
20
1.62
11
1.56992
21
1.51961
0
LINE
8
BLACK
6
CONTINUOUS
10
2.75102
20
1.58063
11
2.60142
21
1.58063
0
LINE
8
BLACK
6
CONTINUOUS
10
2.60142
20
1.58063
11
2.60142
21
1.62
0
LINE
8
BLACK
6
CONTINUOUS
10
2.60142
20
1.62
11
2.75102
21
1.62
0
LINE
8
BLACK
6
CONTINUOUS
10
2.75102
20
1.62
11
2.75102
21
1.58063
0
LINE
8
BLACK
6
CONTINUOUS
10
2.04236
20
1.58063
11
1.89276
21
1.58063
0
LINE
8
BLACK
6
CONTINUOUS
10
1.89276
20
1.58063
11
1.89276
21
1.62
0
LINE
8
BLACK
6
CONTINUOUS
10
1.89276
20
1.62
11
2.04236
21
1.62
0
LINE
8
BLACK
6
CONTINUOUS
10
2.04236
20
1.62
11
2.04236
21
1.58063
0
LINE
8
BLACK
6
CONTINUOUS
10
2.5148
20
1.58063
11
2.3652
21
1.58063
0
LINE
8
BLACK
6
CONTINUOUS
10
2.3652
20
1.58063
11
2.3652
21
1.62
0
LINE
8
BLACK
6
CONTINUOUS
10
2.3652
20
1.62
11
2.5148
21
1.62
0
LINE
8
BLACK
6
CONTINUOUS
10
2.5148
20
1.62
11
2.5148
21
1.58063
0
LINE
8
BLACK
6
CONTINUOUS
10
2.27858
20
1.58063
11
2.12898
21
1.58063
0
LINE
8
BLACK
6
CONTINUOUS
10
2.12898
20
1.58063
11
2.12898
21
1.62
0
LINE
8
BLACK
6
CONTINUOUS
10
2.12898
20
1.62
11
2.27858
21
1.62
0
LINE
8
BLACK
6
CONTINUOUS
10
2.27858
20
1.62
11
2.27858
21
1.58063
0
LINE
8
BLACK
6
CONTINUOUS
10
2.98724
20
1.58063
11
2.83764
21
1.58063
0
LINE
8
BLACK
6
CONTINUOUS
10
2.83764
20
1.58063
11
2.83764
21
1.62
0
LINE
8
BLACK
6
CONTINUOUS
10
2.83764
20
1.62
11
2.98724
21
1.62
0
LINE
8
BLACK
6
CONTINUOUS
10
2.98724
20
1.62
11
2.98724
21
1.58063
0
LINE
8
BLACK
6
CONTINUOUS
10
1.80614
20
1.58063
11
1.65654
21
1.58063
0
LINE
8
BLACK
6
CONTINUOUS
10
1.65654
20
1.58063
11
1.65654
21
1.62
0
LINE
8
BLACK
6
CONTINUOUS
10
1.65654
20
1.62
11
1.80614
21
1.62
0
LINE
8
BLACK
6
CONTINUOUS
10
1.80614
20
1.62
11
1.80614
21
1.58063
0
LINE
8
BLACK
6
CONTINUOUS
10
3.40865
20
1.91779
11
3.42213
21
1.91602
0
LINE
8
BLACK
6
CONTINUOUS
10
3.42213
20
1.91602
11
3.43532
21
1.91271
0
LINE
8
BLACK
6
CONTINUOUS
10
3.43532
20
1.91271
11
3.44804
21
1.9079
0
LINE
8
BLACK
6
CONTINUOUS
10
3.44804
20
1.9079
11
3.46012
21
1.90166
0
LINE
8
BLACK
6
CONTINUOUS
10
3.46012
20
1.90166
11
3.47141
21
1.89408
0
LINE
8
BLACK
6
CONTINUOUS
10
3.47141
20
1.89408
11
3.48175
21
1.88525
0
LINE
8
BLACK
6
CONTINUOUS
10
3.48175
20
1.88525
11
3.49101
21
1.87529
0
LINE
8
BLACK
6
CONTINUOUS
10
3.49101
20
1.87529
11
3.49906
21
1.86433
0
LINE
8
BLACK
6
CONTINUOUS
10
3.49906
20
1.86433
11
3.50579
21
1.85252
0
LINE
8
BLACK
6
CONTINUOUS
10
3.50579
20
1.85252
11
3.51113
21
1.84001
0
LINE
8
BLACK
6
CONTINUOUS
10
3.51113
20
1.84001
11
3.51499
21
1.82697
0
LINE
8
BLACK
6
CONTINUOUS
10
3.51499
20
1.82697
11
3.51733
21
1.81358
0
LINE
8
BLACK
6
CONTINUOUS
10
3.51733
20
1.81358
11
3.51811
21
1.8
0
LINE
8
BLACK
6
CONTINUOUS
10
3.51811
20
1.8
11
3.51788
21
1.79258
0
LINE
8
BLACK
6
CONTINUOUS
10
3.51788
20
1.79258
11
3.51624
21
1.77908
0
LINE
8
BLACK
6
CONTINUOUS
10
3.51624
20
1.77908
11
3.51307
21
1.76586
0
LINE
8
BLACK
6
CONTINUOUS
10
3.51307
20
1.76586
11
3.5084
21
1.75309
0
LINE
8
BLACK
6
CONTINUOUS
10
3.5084
20
1.75309
11
3.50229
21
1.74094
0
LINE
8
BLACK
6
CONTINUOUS
10
3.50229
20
1.74094
11
3.49482
21
1.72958
0
LINE
8
BLACK
6
CONTINUOUS
10
3.49482
20
1.72958
11
3.4861
21
1.71915
0
LINE
8
BLACK
6
CONTINUOUS
10
3.4861
20
1.71915
11
3.47624
21
1.70979
0
LINE
8
BLACK
6
CONTINUOUS
10
3.47624
20
1.70979
11
3.46536
21
1.70162
0
LINE
8
BLACK
6
CONTINUOUS
10
3.46536
20
1.70162
11
3.45362
21
1.69476
0
LINE
8
BLACK
6
CONTINUOUS
10
3.45362
20
1.69476
11
3.44117
21
1.6893
0
LINE
8
BLACK
6
CONTINUOUS
10
3.44117
20
1.6893
11
3.42817
21
1.6853
0
LINE
8
BLACK
6
CONTINUOUS
10
3.42817
20
1.6853
11
3.4148
21
1.68282
0
LINE
8
BLACK
6
CONTINUOUS
10
3.4148
20
1.68282
11
3.40124
21
1.6819
0
LINE
8
BLACK
6
CONTINUOUS
10
3.40124
20
1.6819
11
3.38765
21
1.68254
0
LINE
8
BLACK
6
CONTINUOUS
10
3.38765
20
1.68254
11
3.37424
21
1.68473
0
LINE
8
BLACK
6
CONTINUOUS
10
3.37424
20
1.68473
11
3.36116
21
1.68846
0
LINE
8
BLACK
6
CONTINUOUS
10
3.36116
20
1.68846
11
3.34859
21
1.69366
0
LINE
8
BLACK
6
CONTINUOUS
10
3.34859
20
1.69366
11
3.33671
21
1.70028
0
LINE
8
BLACK
6
CONTINUOUS
10
3.33671
20
1.70028
11
3.32567
21
1.70821
0
LINE
8
BLACK
6
CONTINUOUS
10
3.32567
20
1.70821
11
3.31561
21
1.71736
0
LINE
8
BLACK
6
CONTINUOUS
10
3.31561
20
1.71736
11
3.30667
21
1.72761
0
LINE
8
BLACK
6
CONTINUOUS
10
3.30667
20
1.72761
11
3.29897
21
1.73882
0
LINE
8
BLACK
6
CONTINUOUS
10
3.29897
20
1.73882
11
3.29261
21
1.75083
0
LINE
8
BLACK
6
CONTINUOUS
10
3.29261
20
1.75083
11
3.28767
21
1.7635
0
LINE
8
BLACK
6
CONTINUOUS
10
3.28767
20
1.7635
11
3.28422
21
1.77665
0
LINE
8
BLACK
6
CONTINUOUS
10
3.28422
20
1.77665
11
3.2823
21
1.79012
0
LINE
8
BLACK
6
CONTINUOUS
10
3.2823
20
1.79012
11
3.28195
21
1.80371
0
LINE
8
BLACK
6
CONTINUOUS
10
3.28195
20
1.80371
11
3.28316
21
1.81725
0
LINE
8
BLACK
6
CONTINUOUS
10
3.28316
20
1.81725
11
3.28591
21
1.83057
0
LINE
8
BLACK
6
CONTINUOUS
10
3.28591
20
1.83057
11
3.29018
21
1.84348
0
LINE
8
BLACK
6
CONTINUOUS
10
3.29018
20
1.84348
11
3.29591
21
1.85581
0
LINE
8
BLACK
6
CONTINUOUS
10
3.29591
20
1.85581
11
3.30301
21
1.86741
0
LINE
8
BLACK
6
CONTINUOUS
10
3.30301
20
1.86741
11
3.3114
21
1.87811
0
LINE
8
BLACK
6
CONTINUOUS
10
3.3114
20
1.87811
11
3.32097
21
1.88777
0
LINE
8
BLACK
6
CONTINUOUS
10
3.32097
20
1.88777
11
3.33158
21
1.89627
0
LINE
8
BLACK
6
CONTINUOUS
10
3.33158
20
1.89627
11
3.3431
21
1.9035
0
LINE
8
BLACK
6
CONTINUOUS
10
3.3431
20
1.9035
11
3.35537
21
1.90935
0
LINE
8
BLACK
6
CONTINUOUS
10
3.35537
20
1.90935
11
3.36824
21
1.91376
0
LINE
8
BLACK
6
CONTINUOUS
10
3.36824
20
1.91376
11
3.38152
21
1.91666
0
LINE
8
BLACK
6
CONTINUOUS
10
3.38152
20
1.91666
11
3.39505
21
1.91801
0
LINE
8
BLACK
6
CONTINUOUS
10
3.39505
20
1.91801
11
3.40865
21
1.91779
  0
ENDSEC
  0
EOF
