  0
SECTION
  2
HEADER
  9
$ANGBASE
  50
0.0
  9
$ANGDIR
  70
1
  9
$MEASUREMENT
  70
0
  0
ENDSEC
  0
SECTION
  2
TABLES
  0
TABLE
  2
LTYPE
  70
4
  0
LTYPE
  5
40F
  2
CONTINUOUS
  70
0
  3
Solid line
  72
65
  73
0
  40
0.0
  0
LTYPE
  5
410
  2
DASHDOT
 70
0
  3
Dash Dot ____ _ ____ _
 72
65
 73
4
 40
2.0
 49
1.25
 49
-0.25
 49
0.25
 49
-0.25
  0
LTYPE
  5
411
  2
DASHED
 70
0
  3
Dashed __ __ __ __ __
 72
65
 73
2
 40
0.75
 49
0.5
 49
-0.25
  0
LTYPE
  5
43B
  2
DOTTED
 70
0
  3
Dotted .  .  .  .
 72
65
 73
2
 40
0.2
 49
0.0
 49
-0.2
  0
ENDTAB
  0
TABLE
  2
STYLE
  70
4
  0
STYLE
  2
KICAD
  70
0
  40
0
  41
1
  42
1
  50
0
  71
0
  3
isocp.shx
  0
STYLE
  2
KICADB
  70
0
  40
0
  41
1
  42
1
  50
0
  71
0
  3
isocp.shx
  0
STYLE
  2
KICADI
  70
0
  40
0
  41
1
  42
1
  50
15
  71
0
  3
isocp.shx
  0
STYLE
  2
KICADBI
  70
0
  40
0
  41
1
  42
1
  50
15
  71
0
  3
isocp.shx
  0
ENDTAB
  0
TABLE
  2
LAYER
  70
1
  0
LAYER
  2
BLACK
  70
0
  62
7
  6
CONTINUOUS
  0
ENDTAB
  0
ENDSEC
  0
SECTION
  2
ENTITIES
0
LINE
8
BLACK
6
CONTINUOUS
10
3.33963
20
0.123698
11
3.34605
21
0.122127
0
LINE
8
BLACK
6
CONTINUOUS
10
3.34605
20
0.122127
11
3.35194
21
0.119121
0
LINE
8
BLACK
6
CONTINUOUS
10
3.35194
20
0.119121
11
3.35698
21
0.114841
0
LINE
8
BLACK
6
CONTINUOUS
10
3.35698
20
0.114841
11
3.3609
21
0.109516
0
LINE
8
BLACK
6
CONTINUOUS
10
3.3609
20
0.109516
11
3.36348
21
0.103433
0
LINE
8
BLACK
6
CONTINUOUS
10
3.36348
20
0.103433
11
3.3646
21
0.0969176
0
LINE
8
BLACK
6
CONTINUOUS
10
3.3646
20
0.0969176
11
3.36419
21
0.0903194
0
LINE
8
BLACK
6
CONTINUOUS
10
3.36419
20
0.0903194
11
3.36228
21
0.0839924
0
LINE
8
BLACK
6
CONTINUOUS
10
3.36228
20
0.0839924
11
3.35896
21
0.0782759
0
LINE
8
BLACK
6
CONTINUOUS
10
3.35896
20
0.0782759
11
3.35441
21
0.0734766
0
LINE
8
BLACK
6
CONTINUOUS
10
3.35441
20
0.0734766
11
3.34888
21
0.0698519
0
LINE
8
BLACK
6
CONTINUOUS
10
3.34888
20
0.0698519
11
3.34267
21
0.0675963
0
LINE
8
BLACK
6
CONTINUOUS
10
3.34267
20
0.0675963
11
3.3361
21
0.0668307
0
LINE
8
BLACK
6
CONTINUOUS
10
3.3361
20
0.0668307
11
3.29476
21
0.0668307
0
LINE
8
BLACK
6
CONTINUOUS
10
3.29476
20
0.0668307
11
3.29124
21
0.0670496
0
LINE
8
BLACK
6
CONTINUOUS
10
3.29124
20
0.0670496
11
3.28481
21
0.0686209
0
LINE
8
BLACK
6
CONTINUOUS
10
3.28481
20
0.0686209
11
3.27893
21
0.0716273
0
LINE
8
BLACK
6
CONTINUOUS
10
3.27893
20
0.0716273
11
3.27389
21
0.0759075
0
LINE
8
BLACK
6
CONTINUOUS
10
3.27389
20
0.0759075
11
3.26997
21
0.081232
0
LINE
8
BLACK
6
CONTINUOUS
10
3.26997
20
0.081232
11
3.26738
21
0.087315
0
LINE
8
BLACK
6
CONTINUOUS
10
3.26738
20
0.087315
11
3.26626
21
0.0938304
0
LINE
8
BLACK
6
CONTINUOUS
10
3.26626
20
0.0938304
11
3.26667
21
0.100429
0
LINE
8
BLACK
6
CONTINUOUS
10
3.26667
20
0.100429
11
3.26859
21
0.106756
0
LINE
8
BLACK
6
CONTINUOUS
10
3.26859
20
0.106756
11
3.27191
21
0.112472
0
LINE
8
BLACK
6
CONTINUOUS
10
3.27191
20
0.112472
11
3.27645
21
0.117271
0
LINE
8
BLACK
6
CONTINUOUS
10
3.27645
20
0.117271
11
3.28198
21
0.120896
0
LINE
8
BLACK
6
CONTINUOUS
10
3.28198
20
0.120896
11
3.2882
21
0.123152
0
LINE
8
BLACK
6
CONTINUOUS
10
3.2882
20
0.123152
11
3.29476
21
0.123917
0
LINE
8
BLACK
6
CONTINUOUS
10
3.29476
20
0.123917
11
3.3361
21
0.123917
0
LINE
8
BLACK
6
CONTINUOUS
10
3.3361
20
0.123917
11
3.33963
21
0.123698
0
LINE
8
BLACK
6
CONTINUOUS
10
3.49997
20
0.122932
11
3.50654
21
0.122067
0
LINE
8
BLACK
6
CONTINUOUS
10
3.50654
20
0.122067
11
3.51271
21
0.119662
0
LINE
8
BLACK
6
CONTINUOUS
10
3.51271
20
0.119662
11
3.51813
21
0.115854
0
LINE
8
BLACK
6
CONTINUOUS
10
3.51813
20
0.115854
11
3.52248
21
0.110864
0
LINE
8
BLACK
6
CONTINUOUS
10
3.52248
20
0.110864
11
3.52552
21
0.10498
0
LINE
8
BLACK
6
CONTINUOUS
10
3.52552
20
0.10498
11
3.52706
21
0.0985416
0
LINE
8
BLACK
6
CONTINUOUS
10
3.52706
20
0.0985416
11
3.52703
21
0.09192
0
LINE
8
BLACK
6
CONTINUOUS
10
3.52703
20
0.09192
11
3.52541
21
0.0854977
0
LINE
8
BLACK
6
CONTINUOUS
10
3.52541
20
0.0854977
11
3.52232
21
0.0796457
0
LINE
8
BLACK
6
CONTINUOUS
10
3.52232
20
0.0796457
11
3.51791
21
0.0747017
0
LINE
8
BLACK
6
CONTINUOUS
10
3.51791
20
0.0747017
11
3.51245
21
0.0709511
0
LINE
8
BLACK
6
CONTINUOUS
10
3.51245
20
0.0709511
11
3.50626
21
0.0686105
0
LINE
8
BLACK
6
CONTINUOUS
10
3.50626
20
0.0686105
11
3.49969
21
0.067815
0
LINE
8
BLACK
6
CONTINUOUS
10
3.49969
20
0.067815
11
3.46031
21
0.067815
0
LINE
8
BLACK
6
CONTINUOUS
10
3.46031
20
0.067815
11
3.46003
21
0.0678165
0
LINE
8
BLACK
6
CONTINUOUS
10
3.46003
20
0.0678165
11
3.45346
21
0.0686808
0
LINE
8
BLACK
6
CONTINUOUS
10
3.45346
20
0.0686808
11
3.44729
21
0.0710861
0
LINE
8
BLACK
6
CONTINUOUS
10
3.44729
20
0.0710861
11
3.44187
21
0.0748937
0
LINE
8
BLACK
6
CONTINUOUS
10
3.44187
20
0.0748937
11
3.43752
21
0.0798835
0
LINE
8
BLACK
6
CONTINUOUS
10
3.43752
20
0.0798835
11
3.43448
21
0.0857677
0
LINE
8
BLACK
6
CONTINUOUS
10
3.43448
20
0.0857677
11
3.43294
21
0.0922065
0
LINE
8
BLACK
6
CONTINUOUS
10
3.43294
20
0.0922065
11
3.43297
21
0.0988281
0
LINE
8
BLACK
6
CONTINUOUS
10
3.43297
20
0.0988281
11
3.43459
21
0.10525
0
LINE
8
BLACK
6
CONTINUOUS
10
3.43459
20
0.10525
11
3.43768
21
0.111102
0
LINE
8
BLACK
6
CONTINUOUS
10
3.43768
20
0.111102
11
3.44209
21
0.116046
0
LINE
8
BLACK
6
CONTINUOUS
10
3.44209
20
0.116046
11
3.44755
21
0.119797
0
LINE
8
BLACK
6
CONTINUOUS
10
3.44755
20
0.119797
11
3.45374
21
0.122138
0
LINE
8
BLACK
6
CONTINUOUS
10
3.45374
20
0.122138
11
3.46031
21
0.122933
0
LINE
8
BLACK
6
CONTINUOUS
10
3.46031
20
0.122933
11
3.49969
21
0.122933
0
LINE
8
BLACK
6
CONTINUOUS
10
3.49969
20
0.122933
11
3.49997
21
0.122932
0
LINE
8
BLACK
6
CONTINUOUS
10
0.214917
20
0.325098
11
0.228769
21
0.322656
0
LINE
8
BLACK
6
CONTINUOUS
10
0.228769
20
0.322656
11
0.242262
21
0.318684
0
LINE
8
BLACK
6
CONTINUOUS
10
0.242262
20
0.318684
11
0.255228
21
0.313234
0
LINE
8
BLACK
6
CONTINUOUS
10
0.255228
20
0.313234
11
0.267506
21
0.306372
0
LINE
8
BLACK
6
CONTINUOUS
10
0.267506
20
0.306372
11
0.278942
21
0.298184
0
LINE
8
BLACK
6
CONTINUOUS
10
0.278942
20
0.298184
11
0.289395
21
0.288773
0
LINE
8
BLACK
6
CONTINUOUS
10
0.289395
20
0.288773
11
0.298733
21
0.278255
0
LINE
8
BLACK
6
CONTINUOUS
10
0.298733
20
0.278255
11
0.306841
21
0.266761
0
LINE
8
BLACK
6
CONTINUOUS
10
0.306841
20
0.266761
11
0.313617
21
0.254436
0
LINE
8
BLACK
6
CONTINUOUS
10
0.313617
20
0.254436
11
0.318977
21
0.241432
0
LINE
8
BLACK
6
CONTINUOUS
10
0.318977
20
0.241432
11
0.322853
21
0.227912
0
LINE
8
BLACK
6
CONTINUOUS
10
0.322853
20
0.227912
11
0.325199
21
0.214043
0
LINE
8
BLACK
6
CONTINUOUS
10
0.325199
20
0.214043
11
0.325984
21
0.2
0
LINE
8
BLACK
6
CONTINUOUS
10
0.325984
20
0.2
11
0.325935
21
0.196482
0
LINE
8
BLACK
6
CONTINUOUS
10
0.325935
20
0.196482
11
0.324758
21
0.182466
0
LINE
8
BLACK
6
CONTINUOUS
10
0.324758
20
0.182466
11
0.322026
21
0.168669
0
LINE
8
BLACK
6
CONTINUOUS
10
0.322026
20
0.168669
11
0.317773
21
0.155262
0
LINE
8
BLACK
6
CONTINUOUS
10
0.317773
20
0.155262
11
0.312052
21
0.142413
0
LINE
8
BLACK
6
CONTINUOUS
10
0.312052
20
0.142413
11
0.304935
21
0.130281
0
LINE
8
BLACK
6
CONTINUOUS
10
0.304935
20
0.130281
11
0.29651
21
0.119019
0
LINE
8
BLACK
6
CONTINUOUS
10
0.29651
20
0.119019
11
0.286881
21
0.108766
0
LINE
8
BLACK
6
CONTINUOUS
10
0.286881
20
0.108766
11
0.27617
21
0.0996498
0
LINE
8
BLACK
6
CONTINUOUS
10
0.27617
20
0.0996498
11
0.264509
21
0.0917846
0
LINE
8
BLACK
6
CONTINUOUS
10
0.264509
20
0.0917846
11
0.252045
21
0.0852682
0
LINE
8
BLACK
6
CONTINUOUS
10
0.252045
20
0.0852682
11
0.238931
21
0.0801819
0
LINE
8
BLACK
6
CONTINUOUS
10
0.238931
20
0.0801819
11
0.225333
21
0.0765889
0
LINE
8
BLACK
6
CONTINUOUS
10
0.225333
20
0.0765889
11
0.211418
21
0.0745343
0
LINE
8
BLACK
6
CONTINUOUS
10
0.211418
20
0.0745343
11
0.197362
21
0.0740434
0
LINE
8
BLACK
6
CONTINUOUS
10
0.197362
20
0.0740434
11
0.183338
21
0.0751224
0
LINE
8
BLACK
6
CONTINUOUS
10
0.183338
20
0.0751224
11
0.169522
21
0.077758
0
LINE
8
BLACK
6
CONTINUOUS
10
0.169522
20
0.077758
11
0.156085
21
0.0819172
0
LINE
8
BLACK
6
CONTINUOUS
10
0.156085
20
0.0819172
11
0.143197
21
0.0875482
0
LINE
8
BLACK
6
CONTINUOUS
10
0.143197
20
0.0875482
11
0.131016
21
0.0945809
0
LINE
8
BLACK
6
CONTINUOUS
10
0.131016
20
0.0945809
11
0.119695
21
0.102927
0
LINE
8
BLACK
6
CONTINUOUS
10
0.119695
20
0.102927
11
0.109375
21
0.112484
0
LINE
8
BLACK
6
CONTINUOUS
10
0.109375
20
0.112484
11
0.100184
21
0.123131
0
LINE
8
BLACK
6
CONTINUOUS
10
0.100184
20
0.123131
11
0.0922376
21
0.134737
0
LINE
8
BLACK
6
CONTINUOUS
10
0.0922376
20
0.134737
11
0.0856343
21
0.147156
0
LINE
8
BLACK
6
CONTINUOUS
10
0.0856343
20
0.147156
11
0.0804566
21
0.160233
0
LINE
8
BLACK
6
CONTINUOUS
10
0.0804566
20
0.160233
11
0.0767688
21
0.173806
0
LINE
8
BLACK
6
CONTINUOUS
10
0.0767688
20
0.173806
11
0.074617
21
0.187706
0
LINE
8
BLACK
6
CONTINUOUS
10
0.074617
20
0.187706
11
0.074028
21
0.201759
0
LINE
8
BLACK
6
CONTINUOUS
10
0.074028
20
0.201759
11
0.0750092
21
0.21579
0
LINE
8
BLACK
6
CONTINUOUS
10
0.0750092
20
0.21579
11
0.0775482
21
0.229624
0
LINE
8
BLACK
6
CONTINUOUS
10
0.0775482
20
0.229624
11
0.0816135
21
0.243089
0
LINE
8
BLACK
6
CONTINUOUS
10
0.0816135
20
0.243089
11
0.0871544
21
0.256017
0
LINE
8
BLACK
6
CONTINUOUS
10
0.0871544
20
0.256017
11
0.0941019
21
0.268247
0
LINE
8
BLACK
6
CONTINUOUS
10
0.0941019
20
0.268247
11
0.102369
21
0.279626
0
LINE
8
BLACK
6
CONTINUOUS
10
0.102369
20
0.279626
11
0.111853
21
0.290012
0
LINE
8
BLACK
6
CONTINUOUS
10
0.111853
20
0.290012
11
0.122436
21
0.299277
0
LINE
8
BLACK
6
CONTINUOUS
10
0.122436
20
0.299277
11
0.133986
21
0.307304
0
LINE
8
BLACK
6
CONTINUOUS
10
0.133986
20
0.307304
11
0.146359
21
0.313994
0
LINE
8
BLACK
6
CONTINUOUS
10
0.146359
20
0.313994
11
0.1594
21
0.319263
0
LINE
8
BLACK
6
CONTINUOUS
10
0.1594
20
0.319263
11
0.172947
21
0.323045
0
LINE
8
BLACK
6
CONTINUOUS
10
0.172947
20
0.323045
11
0.186831
21
0.325294
0
LINE
8
BLACK
6
CONTINUOUS
10
0.186831
20
0.325294
11
0.20088
21
0.325981
0
LINE
8
BLACK
6
CONTINUOUS
10
0.20088
20
0.325981
11
0.214917
21
0.325098
0
LINE
8
BLACK
6
CONTINUOUS
10
3.01492
20
0.325098
11
3.02877
21
0.322656
0
LINE
8
BLACK
6
CONTINUOUS
10
3.02877
20
0.322656
11
3.04226
21
0.318684
0
LINE
8
BLACK
6
CONTINUOUS
10
3.04226
20
0.318684
11
3.05523
21
0.313234
0
LINE
8
BLACK
6
CONTINUOUS
10
3.05523
20
0.313234
11
3.06751
21
0.306372
0
LINE
8
BLACK
6
CONTINUOUS
10
3.06751
20
0.306372
11
3.07894
21
0.298184
0
LINE
8
BLACK
6
CONTINUOUS
10
3.07894
20
0.298184
11
3.08939
21
0.288773
0
LINE
8
BLACK
6
CONTINUOUS
10
3.08939
20
0.288773
11
3.09873
21
0.278255
0
LINE
8
BLACK
6
CONTINUOUS
10
3.09873
20
0.278255
11
3.10684
21
0.266761
0
LINE
8
BLACK
6
CONTINUOUS
10
3.10684
20
0.266761
11
3.11362
21
0.254436
0
LINE
8
BLACK
6
CONTINUOUS
10
3.11362
20
0.254436
11
3.11898
21
0.241432
0
LINE
8
BLACK
6
CONTINUOUS
10
3.11898
20
0.241432
11
3.12285
21
0.227912
0
LINE
8
BLACK
6
CONTINUOUS
10
3.12285
20
0.227912
11
3.1252
21
0.214043
0
LINE
8
BLACK
6
CONTINUOUS
10
3.1252
20
0.214043
11
3.12598
21
0.2
0
LINE
8
BLACK
6
CONTINUOUS
10
3.12598
20
0.2
11
3.12594
21
0.196482
0
LINE
8
BLACK
6
CONTINUOUS
10
3.12594
20
0.196482
11
3.12476
21
0.182466
0
LINE
8
BLACK
6
CONTINUOUS
10
3.12476
20
0.182466
11
3.12203
21
0.168669
0
LINE
8
BLACK
6
CONTINUOUS
10
3.12203
20
0.168669
11
3.11777
21
0.155262
0
LINE
8
BLACK
6
CONTINUOUS
10
3.11777
20
0.155262
11
3.11205
21
0.142413
0
LINE
8
BLACK
6
CONTINUOUS
10
3.11205
20
0.142413
11
3.10493
21
0.130281
0
LINE
8
BLACK
6
CONTINUOUS
10
3.10493
20
0.130281
11
3.09651
21
0.119019
0
LINE
8
BLACK
6
CONTINUOUS
10
3.09651
20
0.119019
11
3.08688
21
0.108766
0
LINE
8
BLACK
6
CONTINUOUS
10
3.08688
20
0.108766
11
3.07617
21
0.0996498
0
LINE
8
BLACK
6
CONTINUOUS
10
3.07617
20
0.0996498
11
3.06451
21
0.0917846
0
LINE
8
BLACK
6
CONTINUOUS
10
3.06451
20
0.0917846
11
3.05204
21
0.0852682
0
LINE
8
BLACK
6
CONTINUOUS
10
3.05204
20
0.0852682
11
3.03893
21
0.0801819
0
LINE
8
BLACK
6
CONTINUOUS
10
3.03893
20
0.0801819
11
3.02533
21
0.0765889
0
LINE
8
BLACK
6
CONTINUOUS
10
3.02533
20
0.0765889
11
3.01142
21
0.0745343
0
LINE
8
BLACK
6
CONTINUOUS
10
3.01142
20
0.0745343
11
2.99736
21
0.0740434
0
LINE
8
BLACK
6
CONTINUOUS
10
2.99736
20
0.0740434
11
2.98334
21
0.0751224
0
LINE
8
BLACK
6
CONTINUOUS
10
2.98334
20
0.0751224
11
2.96952
21
0.077758
0
LINE
8
BLACK
6
CONTINUOUS
10
2.96952
20
0.077758
11
2.95609
21
0.0819172
0
LINE
8
BLACK
6
CONTINUOUS
10
2.95609
20
0.0819172
11
2.9432
21
0.0875482
0
LINE
8
BLACK
6
CONTINUOUS
10
2.9432
20
0.0875482
11
2.93102
21
0.0945809
0
LINE
8
BLACK
6
CONTINUOUS
10
2.93102
20
0.0945809
11
2.91969
21
0.102927
0
LINE
8
BLACK
6
CONTINUOUS
10
2.91969
20
0.102927
11
2.90937
21
0.112484
0
LINE
8
BLACK
6
CONTINUOUS
10
2.90937
20
0.112484
11
2.90018
21
0.123131
0
LINE
8
BLACK
6
CONTINUOUS
10
2.90018
20
0.123131
11
2.89224
21
0.134737
0
LINE
8
BLACK
6
CONTINUOUS
10
2.89224
20
0.134737
11
2.88563
21
0.147156
0
LINE
8
BLACK
6
CONTINUOUS
10
2.88563
20
0.147156
11
2.88046
21
0.160233
0
LINE
8
BLACK
6
CONTINUOUS
10
2.88046
20
0.160233
11
2.87677
21
0.173806
0
LINE
8
BLACK
6
CONTINUOUS
10
2.87677
20
0.173806
11
2.87462
21
0.187706
0
LINE
8
BLACK
6
CONTINUOUS
10
2.87462
20
0.187706
11
2.87403
21
0.201759
0
LINE
8
BLACK
6
CONTINUOUS
10
2.87403
20
0.201759
11
2.87501
21
0.21579
0
LINE
8
BLACK
6
CONTINUOUS
10
2.87501
20
0.21579
11
2.87755
21
0.229624
0
LINE
8
BLACK
6
CONTINUOUS
10
2.87755
20
0.229624
11
2.88161
21
0.243089
0
LINE
8
BLACK
6
CONTINUOUS
10
2.88161
20
0.243089
11
2.88715
21
0.256017
0
LINE
8
BLACK
6
CONTINUOUS
10
2.88715
20
0.256017
11
2.8941
21
0.268247
0
LINE
8
BLACK
6
CONTINUOUS
10
2.8941
20
0.268247
11
2.90237
21
0.279626
0
LINE
8
BLACK
6
CONTINUOUS
10
2.90237
20
0.279626
11
2.91185
21
0.290012
0
LINE
8
BLACK
6
CONTINUOUS
10
2.91185
20
0.290012
11
2.92244
21
0.299277
0
LINE
8
BLACK
6
CONTINUOUS
10
2.92244
20
0.299277
11
2.93399
21
0.307304
0
LINE
8
BLACK
6
CONTINUOUS
10
2.93399
20
0.307304
11
2.94636
21
0.313994
0
LINE
8
BLACK
6
CONTINUOUS
10
2.94636
20
0.313994
11
2.9594
21
0.319263
0
LINE
8
BLACK
6
CONTINUOUS
10
2.9594
20
0.319263
11
2.97295
21
0.323045
0
LINE
8
BLACK
6
CONTINUOUS
10
2.97295
20
0.323045
11
2.98683
21
0.325294
0
LINE
8
BLACK
6
CONTINUOUS
10
2.98683
20
0.325294
11
3.00088
21
0.325981
0
LINE
8
BLACK
6
CONTINUOUS
10
3.00088
20
0.325981
11
3.01492
21
0.325098
0
LINE
8
BLACK
6
CONTINUOUS
10
2.36076
20
0.177048
11
2.36573
21
0.175303
0
LINE
8
BLACK
6
CONTINUOUS
10
2.36573
20
0.175303
11
2.36997
21
0.172173
0
LINE
8
BLACK
6
CONTINUOUS
10
2.36997
20
0.172173
11
2.3731
21
0.167936
0
LINE
8
BLACK
6
CONTINUOUS
10
2.3731
20
0.167936
11
2.37484
21
0.162965
0
LINE
8
BLACK
6
CONTINUOUS
10
2.37484
20
0.162965
11
2.37516
21
0.159646
0
LINE
8
BLACK
6
CONTINUOUS
10
2.37516
20
0.159646
11
2.37516
21
0.130118
0
LINE
8
BLACK
6
CONTINUOUS
10
2.37516
20
0.130118
11
2.37484
21
0.126798
0
LINE
8
BLACK
6
CONTINUOUS
10
2.37484
20
0.126798
11
2.3731
21
0.121828
0
LINE
8
BLACK
6
CONTINUOUS
10
2.3731
20
0.121828
11
2.36997
21
0.117591
0
LINE
8
BLACK
6
CONTINUOUS
10
2.36997
20
0.117591
11
2.36573
21
0.114461
0
LINE
8
BLACK
6
CONTINUOUS
10
2.36573
20
0.114461
11
2.36076
21
0.112715
0
LINE
8
BLACK
6
CONTINUOUS
10
2.36076
20
0.112715
11
2.35744
21
0.112402
0
LINE
8
BLACK
6
CONTINUOUS
10
2.35744
20
0.112402
11
2.30823
21
0.112402
0
LINE
8
BLACK
6
CONTINUOUS
10
2.30823
20
0.112402
11
2.30491
21
0.112715
0
LINE
8
BLACK
6
CONTINUOUS
10
2.30491
20
0.112715
11
2.29994
21
0.114461
0
LINE
8
BLACK
6
CONTINUOUS
10
2.29994
20
0.114461
11
2.2957
21
0.117591
0
LINE
8
BLACK
6
CONTINUOUS
10
2.2957
20
0.117591
11
2.29257
21
0.121828
0
LINE
8
BLACK
6
CONTINUOUS
10
2.29257
20
0.121828
11
2.29083
21
0.126798
0
LINE
8
BLACK
6
CONTINUOUS
10
2.29083
20
0.126798
11
2.29051
21
0.130118
0
LINE
8
BLACK
6
CONTINUOUS
10
2.29051
20
0.130118
11
2.29051
21
0.159646
0
LINE
8
BLACK
6
CONTINUOUS
10
2.29051
20
0.159646
11
2.29083
21
0.162965
0
LINE
8
BLACK
6
CONTINUOUS
10
2.29083
20
0.162965
11
2.29257
21
0.167936
0
LINE
8
BLACK
6
CONTINUOUS
10
2.29257
20
0.167936
11
2.2957
21
0.172173
0
LINE
8
BLACK
6
CONTINUOUS
10
2.2957
20
0.172173
11
2.29994
21
0.175303
0
LINE
8
BLACK
6
CONTINUOUS
10
2.29994
20
0.175303
11
2.30491
21
0.177048
0
LINE
8
BLACK
6
CONTINUOUS
10
2.30491
20
0.177048
11
2.30823
21
0.177362
0
LINE
8
BLACK
6
CONTINUOUS
10
2.30823
20
0.177362
11
2.35744
21
0.177362
0
LINE
8
BLACK
6
CONTINUOUS
10
2.35744
20
0.177362
11
2.36076
21
0.177048
0
LINE
8
BLACK
6
CONTINUOUS
10
2.75446
20
0.177048
11
2.75943
21
0.175303
0
LINE
8
BLACK
6
CONTINUOUS
10
2.75943
20
0.175303
11
2.76367
21
0.172173
0
LINE
8
BLACK
6
CONTINUOUS
10
2.76367
20
0.172173
11
2.7668
21
0.167936
0
LINE
8
BLACK
6
CONTINUOUS
10
2.7668
20
0.167936
11
2.76854
21
0.162965
0
LINE
8
BLACK
6
CONTINUOUS
10
2.76854
20
0.162965
11
2.76886
21
0.159646
0
LINE
8
BLACK
6
CONTINUOUS
10
2.76886
20
0.159646
11
2.76886
21
0.130118
0
LINE
8
BLACK
6
CONTINUOUS
10
2.76886
20
0.130118
11
2.76854
21
0.126798
0
LINE
8
BLACK
6
CONTINUOUS
10
2.76854
20
0.126798
11
2.7668
21
0.121828
0
LINE
8
BLACK
6
CONTINUOUS
10
2.7668
20
0.121828
11
2.76367
21
0.117591
0
LINE
8
BLACK
6
CONTINUOUS
10
2.76367
20
0.117591
11
2.75943
21
0.114461
0
LINE
8
BLACK
6
CONTINUOUS
10
2.75943
20
0.114461
11
2.75446
21
0.112715
0
LINE
8
BLACK
6
CONTINUOUS
10
2.75446
20
0.112715
11
2.75114
21
0.112402
0
LINE
8
BLACK
6
CONTINUOUS
10
2.75114
20
0.112402
11
2.70193
21
0.112402
0
LINE
8
BLACK
6
CONTINUOUS
10
2.70193
20
0.112402
11
2.69861
21
0.112715
0
LINE
8
BLACK
6
CONTINUOUS
10
2.69861
20
0.112715
11
2.69364
21
0.114461
0
LINE
8
BLACK
6
CONTINUOUS
10
2.69364
20
0.114461
11
2.6894
21
0.117591
0
LINE
8
BLACK
6
CONTINUOUS
10
2.6894
20
0.117591
11
2.68627
21
0.121828
0
LINE
8
BLACK
6
CONTINUOUS
10
2.68627
20
0.121828
11
2.68453
21
0.126798
0
LINE
8
BLACK
6
CONTINUOUS
10
2.68453
20
0.126798
11
2.68421
21
0.130118
0
LINE
8
BLACK
6
CONTINUOUS
10
2.68421
20
0.130118
11
2.68421
21
0.159646
0
LINE
8
BLACK
6
CONTINUOUS
10
2.68421
20
0.159646
11
2.68453
21
0.162965
0
LINE
8
BLACK
6
CONTINUOUS
10
2.68453
20
0.162965
11
2.68627
21
0.167936
0
LINE
8
BLACK
6
CONTINUOUS
10
2.68627
20
0.167936
11
2.6894
21
0.172173
0
LINE
8
BLACK
6
CONTINUOUS
10
2.6894
20
0.172173
11
2.69364
21
0.175303
0
LINE
8
BLACK
6
CONTINUOUS
10
2.69364
20
0.175303
11
2.69861
21
0.177048
0
LINE
8
BLACK
6
CONTINUOUS
10
2.69861
20
0.177048
11
2.70193
21
0.177362
0
LINE
8
BLACK
6
CONTINUOUS
10
2.70193
20
0.177362
11
2.75114
21
0.177362
0
LINE
8
BLACK
6
CONTINUOUS
10
2.75114
20
0.177362
11
2.75446
21
0.177048
0
LINE
8
BLACK
6
CONTINUOUS
10
2.55761
20
0.177048
11
2.56258
21
0.175303
0
LINE
8
BLACK
6
CONTINUOUS
10
2.56258
20
0.175303
11
2.56682
21
0.172173
0
LINE
8
BLACK
6
CONTINUOUS
10
2.56682
20
0.172173
11
2.56995
21
0.167936
0
LINE
8
BLACK
6
CONTINUOUS
10
2.56995
20
0.167936
11
2.57169
21
0.162965
0
LINE
8
BLACK
6
CONTINUOUS
10
2.57169
20
0.162965
11
2.57201
21
0.159646
0
LINE
8
BLACK
6
CONTINUOUS
10
2.57201
20
0.159646
11
2.57201
21
0.130118
0
LINE
8
BLACK
6
CONTINUOUS
10
2.57201
20
0.130118
11
2.57169
21
0.126798
0
LINE
8
BLACK
6
CONTINUOUS
10
2.57169
20
0.126798
11
2.56995
21
0.121828
0
LINE
8
BLACK
6
CONTINUOUS
10
2.56995
20
0.121828
11
2.56682
21
0.117591
0
LINE
8
BLACK
6
CONTINUOUS
10
2.56682
20
0.117591
11
2.56258
21
0.114461
0
LINE
8
BLACK
6
CONTINUOUS
10
2.56258
20
0.114461
11
2.55761
21
0.112715
0
LINE
8
BLACK
6
CONTINUOUS
10
2.55761
20
0.112715
11
2.55429
21
0.112402
0
LINE
8
BLACK
6
CONTINUOUS
10
2.55429
20
0.112402
11
2.50508
21
0.112402
0
LINE
8
BLACK
6
CONTINUOUS
10
2.50508
20
0.112402
11
2.50176
21
0.112715
0
LINE
8
BLACK
6
CONTINUOUS
10
2.50176
20
0.112715
11
2.49679
21
0.114461
0
LINE
8
BLACK
6
CONTINUOUS
10
2.49679
20
0.114461
11
2.49255
21
0.117591
0
LINE
8
BLACK
6
CONTINUOUS
10
2.49255
20
0.117591
11
2.48942
21
0.121828
0
LINE
8
BLACK
6
CONTINUOUS
10
2.48942
20
0.121828
11
2.48768
21
0.126798
0
LINE
8
BLACK
6
CONTINUOUS
10
2.48768
20
0.126798
11
2.48736
21
0.130118
0
LINE
8
BLACK
6
CONTINUOUS
10
2.48736
20
0.130118
11
2.48736
21
0.159646
0
LINE
8
BLACK
6
CONTINUOUS
10
2.48736
20
0.159646
11
2.48768
21
0.162965
0
LINE
8
BLACK
6
CONTINUOUS
10
2.48768
20
0.162965
11
2.48942
21
0.167936
0
LINE
8
BLACK
6
CONTINUOUS
10
2.48942
20
0.167936
11
2.49255
21
0.172173
0
LINE
8
BLACK
6
CONTINUOUS
10
2.49255
20
0.172173
11
2.49679
21
0.175303
0
LINE
8
BLACK
6
CONTINUOUS
10
2.49679
20
0.175303
11
2.50176
21
0.177048
0
LINE
8
BLACK
6
CONTINUOUS
10
2.50176
20
0.177048
11
2.50508
21
0.177362
0
LINE
8
BLACK
6
CONTINUOUS
10
2.50508
20
0.177362
11
2.55429
21
0.177362
0
LINE
8
BLACK
6
CONTINUOUS
10
2.55429
20
0.177362
11
2.55761
21
0.177048
0
LINE
8
BLACK
6
CONTINUOUS
10
1.96706
20
0.177048
11
1.97203
21
0.175303
0
LINE
8
BLACK
6
CONTINUOUS
10
1.97203
20
0.175303
11
1.97627
21
0.172173
0
LINE
8
BLACK
6
CONTINUOUS
10
1.97627
20
0.172173
11
1.9794
21
0.167936
0
LINE
8
BLACK
6
CONTINUOUS
10
1.9794
20
0.167936
11
1.98114
21
0.162965
0
LINE
8
BLACK
6
CONTINUOUS
10
1.98114
20
0.162965
11
1.98146
21
0.159646
0
LINE
8
BLACK
6
CONTINUOUS
10
1.98146
20
0.159646
11
1.98146
21
0.130118
0
LINE
8
BLACK
6
CONTINUOUS
10
1.98146
20
0.130118
11
1.98114
21
0.126798
0
LINE
8
BLACK
6
CONTINUOUS
10
1.98114
20
0.126798
11
1.9794
21
0.121828
0
LINE
8
BLACK
6
CONTINUOUS
10
1.9794
20
0.121828
11
1.97627
21
0.117591
0
LINE
8
BLACK
6
CONTINUOUS
10
1.97627
20
0.117591
11
1.97203
21
0.114461
0
LINE
8
BLACK
6
CONTINUOUS
10
1.97203
20
0.114461
11
1.96706
21
0.112715
0
LINE
8
BLACK
6
CONTINUOUS
10
1.96706
20
0.112715
11
1.96374
21
0.112402
0
LINE
8
BLACK
6
CONTINUOUS
10
1.96374
20
0.112402
11
1.91453
21
0.112402
0
LINE
8
BLACK
6
CONTINUOUS
10
1.91453
20
0.112402
11
1.91121
21
0.112715
0
LINE
8
BLACK
6
CONTINUOUS
10
1.91121
20
0.112715
11
1.90624
21
0.114461
0
LINE
8
BLACK
6
CONTINUOUS
10
1.90624
20
0.114461
11
1.902
21
0.117591
0
LINE
8
BLACK
6
CONTINUOUS
10
1.902
20
0.117591
11
1.89887
21
0.121828
0
LINE
8
BLACK
6
CONTINUOUS
10
1.89887
20
0.121828
11
1.89712
21
0.126798
0
LINE
8
BLACK
6
CONTINUOUS
10
1.89712
20
0.126798
11
1.89681
21
0.130118
0
LINE
8
BLACK
6
CONTINUOUS
10
1.89681
20
0.130118
11
1.89681
21
0.159646
0
LINE
8
BLACK
6
CONTINUOUS
10
1.89681
20
0.159646
11
1.89712
21
0.162965
0
LINE
8
BLACK
6
CONTINUOUS
10
1.89712
20
0.162965
11
1.89887
21
0.167936
0
LINE
8
BLACK
6
CONTINUOUS
10
1.89887
20
0.167936
11
1.902
21
0.172173
0
LINE
8
BLACK
6
CONTINUOUS
10
1.902
20
0.172173
11
1.90624
21
0.175303
0
LINE
8
BLACK
6
CONTINUOUS
10
1.90624
20
0.175303
11
1.91121
21
0.177048
0
LINE
8
BLACK
6
CONTINUOUS
10
1.91121
20
0.177048
11
1.91453
21
0.177362
0
LINE
8
BLACK
6
CONTINUOUS
10
1.91453
20
0.177362
11
1.96374
21
0.177362
0
LINE
8
BLACK
6
CONTINUOUS
10
1.96374
20
0.177362
11
1.96706
21
0.177048
0
LINE
8
BLACK
6
CONTINUOUS
10
2.16391
20
0.177048
11
2.16888
21
0.175303
0
LINE
8
BLACK
6
CONTINUOUS
10
2.16888
20
0.175303
11
2.17312
21
0.172173
0
LINE
8
BLACK
6
CONTINUOUS
10
2.17312
20
0.172173
11
2.17625
21
0.167936
0
LINE
8
BLACK
6
CONTINUOUS
10
2.17625
20
0.167936
11
2.17799
21
0.162965
0
LINE
8
BLACK
6
CONTINUOUS
10
2.17799
20
0.162965
11
2.17831
21
0.159646
0
LINE
8
BLACK
6
CONTINUOUS
10
2.17831
20
0.159646
11
2.17831
21
0.130118
0
LINE
8
BLACK
6
CONTINUOUS
10
2.17831
20
0.130118
11
2.17799
21
0.126798
0
LINE
8
BLACK
6
CONTINUOUS
10
2.17799
20
0.126798
11
2.17625
21
0.121828
0
LINE
8
BLACK
6
CONTINUOUS
10
2.17625
20
0.121828
11
2.17312
21
0.117591
0
LINE
8
BLACK
6
CONTINUOUS
10
2.17312
20
0.117591
11
2.16888
21
0.114461
0
LINE
8
BLACK
6
CONTINUOUS
10
2.16888
20
0.114461
11
2.16391
21
0.112715
0
LINE
8
BLACK
6
CONTINUOUS
10
2.16391
20
0.112715
11
2.16059
21
0.112402
0
LINE
8
BLACK
6
CONTINUOUS
10
2.16059
20
0.112402
11
2.11138
21
0.112402
0
LINE
8
BLACK
6
CONTINUOUS
10
2.11138
20
0.112402
11
2.10806
21
0.112715
0
LINE
8
BLACK
6
CONTINUOUS
10
2.10806
20
0.112715
11
2.10309
21
0.114461
0
LINE
8
BLACK
6
CONTINUOUS
10
2.10309
20
0.114461
11
2.09885
21
0.117591
0
LINE
8
BLACK
6
CONTINUOUS
10
2.09885
20
0.117591
11
2.09572
21
0.121828
0
LINE
8
BLACK
6
CONTINUOUS
10
2.09572
20
0.121828
11
2.09398
21
0.126798
0
LINE
8
BLACK
6
CONTINUOUS
10
2.09398
20
0.126798
11
2.09366
21
0.130118
0
LINE
8
BLACK
6
CONTINUOUS
10
2.09366
20
0.130118
11
2.09366
21
0.159646
0
LINE
8
BLACK
6
CONTINUOUS
10
2.09366
20
0.159646
11
2.09398
21
0.162965
0
LINE
8
BLACK
6
CONTINUOUS
10
2.09398
20
0.162965
11
2.09572
21
0.167936
0
LINE
8
BLACK
6
CONTINUOUS
10
2.09572
20
0.167936
11
2.09885
21
0.172173
0
LINE
8
BLACK
6
CONTINUOUS
10
2.09885
20
0.172173
11
2.10309
21
0.175303
0
LINE
8
BLACK
6
CONTINUOUS
10
2.10309
20
0.175303
11
2.10806
21
0.177048
0
LINE
8
BLACK
6
CONTINUOUS
10
2.10806
20
0.177048
11
2.11138
21
0.177362
0
LINE
8
BLACK
6
CONTINUOUS
10
2.11138
20
0.177362
11
2.16059
21
0.177362
0
LINE
8
BLACK
6
CONTINUOUS
10
2.16059
20
0.177362
11
2.16391
21
0.177048
0
LINE
8
BLACK
6
CONTINUOUS
10
3.34047
20
0.171638
11
3.34545
21
0.169573
0
LINE
8
BLACK
6
CONTINUOUS
10
3.34545
20
0.169573
11
3.34973
21
0.166289
0
LINE
8
BLACK
6
CONTINUOUS
10
3.34973
20
0.166289
11
3.35302
21
0.162008
0
LINE
8
BLACK
6
CONTINUOUS
10
3.35302
20
0.162008
11
3.35508
21
0.157023
0
LINE
8
BLACK
6
CONTINUOUS
10
3.35508
20
0.157023
11
3.35579
21
0.151673
0
LINE
8
BLACK
6
CONTINUOUS
10
3.35579
20
0.151673
11
3.35508
21
0.146324
0
LINE
8
BLACK
6
CONTINUOUS
10
3.35508
20
0.146324
11
3.35302
21
0.141339
0
LINE
8
BLACK
6
CONTINUOUS
10
3.35302
20
0.141339
11
3.34973
21
0.137058
0
LINE
8
BLACK
6
CONTINUOUS
10
3.34973
20
0.137058
11
3.34545
21
0.133773
0
LINE
8
BLACK
6
CONTINUOUS
10
3.34545
20
0.133773
11
3.34047
21
0.131708
0
LINE
8
BLACK
6
CONTINUOUS
10
3.34047
20
0.131708
11
3.33512
21
0.131004
0
LINE
8
BLACK
6
CONTINUOUS
10
3.33512
20
0.131004
11
3.32977
21
0.131708
0
LINE
8
BLACK
6
CONTINUOUS
10
3.32977
20
0.131708
11
3.32478
21
0.133773
0
LINE
8
BLACK
6
CONTINUOUS
10
3.32478
20
0.133773
11
3.3205
21
0.137058
0
LINE
8
BLACK
6
CONTINUOUS
10
3.3205
20
0.137058
11
3.31722
21
0.141339
0
LINE
8
BLACK
6
CONTINUOUS
10
3.31722
20
0.141339
11
3.31515
21
0.146324
0
LINE
8
BLACK
6
CONTINUOUS
10
3.31515
20
0.146324
11
3.31445
21
0.151673
0
LINE
8
BLACK
6
CONTINUOUS
10
3.31445
20
0.151673
11
3.31515
21
0.157023
0
LINE
8
BLACK
6
CONTINUOUS
10
3.31515
20
0.157023
11
3.31722
21
0.162008
0
LINE
8
BLACK
6
CONTINUOUS
10
3.31722
20
0.162008
11
3.3205
21
0.166289
0
LINE
8
BLACK
6
CONTINUOUS
10
3.3205
20
0.166289
11
3.32478
21
0.169573
0
LINE
8
BLACK
6
CONTINUOUS
10
3.32478
20
0.169573
11
3.32977
21
0.171638
0
LINE
8
BLACK
6
CONTINUOUS
10
3.32977
20
0.171638
11
3.33512
21
0.172343
0
LINE
8
BLACK
6
CONTINUOUS
10
3.33512
20
0.172343
11
3.34047
21
0.171638
0
LINE
8
BLACK
6
CONTINUOUS
10
2.55761
20
0.287285
11
2.56258
21
0.285539
0
LINE
8
BLACK
6
CONTINUOUS
10
2.56258
20
0.285539
11
2.56682
21
0.282409
0
LINE
8
BLACK
6
CONTINUOUS
10
2.56682
20
0.282409
11
2.56995
21
0.278172
0
LINE
8
BLACK
6
CONTINUOUS
10
2.56995
20
0.278172
11
2.57169
21
0.273202
0
LINE
8
BLACK
6
CONTINUOUS
10
2.57169
20
0.273202
11
2.57201
21
0.269882
0
LINE
8
BLACK
6
CONTINUOUS
10
2.57201
20
0.269882
11
2.57201
21
0.240354
0
LINE
8
BLACK
6
CONTINUOUS
10
2.57201
20
0.240354
11
2.57169
21
0.237035
0
LINE
8
BLACK
6
CONTINUOUS
10
2.57169
20
0.237035
11
2.56995
21
0.232064
0
LINE
8
BLACK
6
CONTINUOUS
10
2.56995
20
0.232064
11
2.56682
21
0.227827
0
LINE
8
BLACK
6
CONTINUOUS
10
2.56682
20
0.227827
11
2.56258
21
0.224697
0
LINE
8
BLACK
6
CONTINUOUS
10
2.56258
20
0.224697
11
2.55761
21
0.222952
0
LINE
8
BLACK
6
CONTINUOUS
10
2.55761
20
0.222952
11
2.55429
21
0.222638
0
LINE
8
BLACK
6
CONTINUOUS
10
2.55429
20
0.222638
11
2.50508
21
0.222638
0
LINE
8
BLACK
6
CONTINUOUS
10
2.50508
20
0.222638
11
2.50176
21
0.222952
0
LINE
8
BLACK
6
CONTINUOUS
10
2.50176
20
0.222952
11
2.49679
21
0.224697
0
LINE
8
BLACK
6
CONTINUOUS
10
2.49679
20
0.224697
11
2.49255
21
0.227827
0
LINE
8
BLACK
6
CONTINUOUS
10
2.49255
20
0.227827
11
2.48942
21
0.232064
0
LINE
8
BLACK
6
CONTINUOUS
10
2.48942
20
0.232064
11
2.48768
21
0.237035
0
LINE
8
BLACK
6
CONTINUOUS
10
2.48768
20
0.237035
11
2.48736
21
0.240354
0
LINE
8
BLACK
6
CONTINUOUS
10
2.48736
20
0.240354
11
2.48736
21
0.269882
0
LINE
8
BLACK
6
CONTINUOUS
10
2.48736
20
0.269882
11
2.48768
21
0.273202
0
LINE
8
BLACK
6
CONTINUOUS
10
2.48768
20
0.273202
11
2.48942
21
0.278172
0
LINE
8
BLACK
6
CONTINUOUS
10
2.48942
20
0.278172
11
2.49255
21
0.282409
0
LINE
8
BLACK
6
CONTINUOUS
10
2.49255
20
0.282409
11
2.49679
21
0.285539
0
LINE
8
BLACK
6
CONTINUOUS
10
2.49679
20
0.285539
11
2.50176
21
0.287285
0
LINE
8
BLACK
6
CONTINUOUS
10
2.50176
20
0.287285
11
2.50508
21
0.287598
0
LINE
8
BLACK
6
CONTINUOUS
10
2.50508
20
0.287598
11
2.55429
21
0.287598
0
LINE
8
BLACK
6
CONTINUOUS
10
2.55429
20
0.287598
11
2.55761
21
0.287285
0
LINE
8
BLACK
6
CONTINUOUS
10
2.36076
20
0.287285
11
2.36573
21
0.285539
0
LINE
8
BLACK
6
CONTINUOUS
10
2.36573
20
0.285539
11
2.36997
21
0.282409
0
LINE
8
BLACK
6
CONTINUOUS
10
2.36997
20
0.282409
11
2.3731
21
0.278172
0
LINE
8
BLACK
6
CONTINUOUS
10
2.3731
20
0.278172
11
2.37484
21
0.273202
0
LINE
8
BLACK
6
CONTINUOUS
10
2.37484
20
0.273202
11
2.37516
21
0.269882
0
LINE
8
BLACK
6
CONTINUOUS
10
2.37516
20
0.269882
11
2.37516
21
0.240354
0
LINE
8
BLACK
6
CONTINUOUS
10
2.37516
20
0.240354
11
2.37484
21
0.237035
0
LINE
8
BLACK
6
CONTINUOUS
10
2.37484
20
0.237035
11
2.3731
21
0.232064
0
LINE
8
BLACK
6
CONTINUOUS
10
2.3731
20
0.232064
11
2.36997
21
0.227827
0
LINE
8
BLACK
6
CONTINUOUS
10
2.36997
20
0.227827
11
2.36573
21
0.224697
0
LINE
8
BLACK
6
CONTINUOUS
10
2.36573
20
0.224697
11
2.36076
21
0.222952
0
LINE
8
BLACK
6
CONTINUOUS
10
2.36076
20
0.222952
11
2.35744
21
0.222638
0
LINE
8
BLACK
6
CONTINUOUS
10
2.35744
20
0.222638
11
2.30823
21
0.222638
0
LINE
8
BLACK
6
CONTINUOUS
10
2.30823
20
0.222638
11
2.30491
21
0.222952
0
LINE
8
BLACK
6
CONTINUOUS
10
2.30491
20
0.222952
11
2.29994
21
0.224697
0
LINE
8
BLACK
6
CONTINUOUS
10
2.29994
20
0.224697
11
2.2957
21
0.227827
0
LINE
8
BLACK
6
CONTINUOUS
10
2.2957
20
0.227827
11
2.29257
21
0.232064
0
LINE
8
BLACK
6
CONTINUOUS
10
2.29257
20
0.232064
11
2.29083
21
0.237035
0
LINE
8
BLACK
6
CONTINUOUS
10
2.29083
20
0.237035
11
2.29051
21
0.240354
0
LINE
8
BLACK
6
CONTINUOUS
10
2.29051
20
0.240354
11
2.29051
21
0.269882
0
LINE
8
BLACK
6
CONTINUOUS
10
2.29051
20
0.269882
11
2.29083
21
0.273202
0
LINE
8
BLACK
6
CONTINUOUS
10
2.29083
20
0.273202
11
2.29257
21
0.278172
0
LINE
8
BLACK
6
CONTINUOUS
10
2.29257
20
0.278172
11
2.2957
21
0.282409
0
LINE
8
BLACK
6
CONTINUOUS
10
2.2957
20
0.282409
11
2.29994
21
0.285539
0
LINE
8
BLACK
6
CONTINUOUS
10
2.29994
20
0.285539
11
2.30491
21
0.287285
0
LINE
8
BLACK
6
CONTINUOUS
10
2.30491
20
0.287285
11
2.30823
21
0.287598
0
LINE
8
BLACK
6
CONTINUOUS
10
2.30823
20
0.287598
11
2.35744
21
0.287598
0
LINE
8
BLACK
6
CONTINUOUS
10
2.35744
20
0.287598
11
2.36076
21
0.287285
0
LINE
8
BLACK
6
CONTINUOUS
10
2.75446
20
0.287285
11
2.75943
21
0.285539
0
LINE
8
BLACK
6
CONTINUOUS
10
2.75943
20
0.285539
11
2.76367
21
0.282409
0
LINE
8
BLACK
6
CONTINUOUS
10
2.76367
20
0.282409
11
2.7668
21
0.278172
0
LINE
8
BLACK
6
CONTINUOUS
10
2.7668
20
0.278172
11
2.76854
21
0.273202
0
LINE
8
BLACK
6
CONTINUOUS
10
2.76854
20
0.273202
11
2.76886
21
0.269882
0
LINE
8
BLACK
6
CONTINUOUS
10
2.76886
20
0.269882
11
2.76886
21
0.240354
0
LINE
8
BLACK
6
CONTINUOUS
10
2.76886
20
0.240354
11
2.76854
21
0.237035
0
LINE
8
BLACK
6
CONTINUOUS
10
2.76854
20
0.237035
11
2.7668
21
0.232064
0
LINE
8
BLACK
6
CONTINUOUS
10
2.7668
20
0.232064
11
2.76367
21
0.227827
0
LINE
8
BLACK
6
CONTINUOUS
10
2.76367
20
0.227827
11
2.75943
21
0.224697
0
LINE
8
BLACK
6
CONTINUOUS
10
2.75943
20
0.224697
11
2.75446
21
0.222952
0
LINE
8
BLACK
6
CONTINUOUS
10
2.75446
20
0.222952
11
2.75114
21
0.222638
0
LINE
8
BLACK
6
CONTINUOUS
10
2.75114
20
0.222638
11
2.70193
21
0.222638
0
LINE
8
BLACK
6
CONTINUOUS
10
2.70193
20
0.222638
11
2.69861
21
0.222952
0
LINE
8
BLACK
6
CONTINUOUS
10
2.69861
20
0.222952
11
2.69364
21
0.224697
0
LINE
8
BLACK
6
CONTINUOUS
10
2.69364
20
0.224697
11
2.6894
21
0.227827
0
LINE
8
BLACK
6
CONTINUOUS
10
2.6894
20
0.227827
11
2.68627
21
0.232064
0
LINE
8
BLACK
6
CONTINUOUS
10
2.68627
20
0.232064
11
2.68453
21
0.237035
0
LINE
8
BLACK
6
CONTINUOUS
10
2.68453
20
0.237035
11
2.68421
21
0.240354
0
LINE
8
BLACK
6
CONTINUOUS
10
2.68421
20
0.240354
11
2.68421
21
0.269882
0
LINE
8
BLACK
6
CONTINUOUS
10
2.68421
20
0.269882
11
2.68453
21
0.273202
0
LINE
8
BLACK
6
CONTINUOUS
10
2.68453
20
0.273202
11
2.68627
21
0.278172
0
LINE
8
BLACK
6
CONTINUOUS
10
2.68627
20
0.278172
11
2.6894
21
0.282409
0
LINE
8
BLACK
6
CONTINUOUS
10
2.6894
20
0.282409
11
2.69364
21
0.285539
0
LINE
8
BLACK
6
CONTINUOUS
10
2.69364
20
0.285539
11
2.69861
21
0.287285
0
LINE
8
BLACK
6
CONTINUOUS
10
2.69861
20
0.287285
11
2.70193
21
0.287598
0
LINE
8
BLACK
6
CONTINUOUS
10
2.70193
20
0.287598
11
2.75114
21
0.287598
0
LINE
8
BLACK
6
CONTINUOUS
10
2.75114
20
0.287598
11
2.75446
21
0.287285
0
LINE
8
BLACK
6
CONTINUOUS
10
1.96706
20
0.287285
11
1.97203
21
0.285539
0
LINE
8
BLACK
6
CONTINUOUS
10
1.97203
20
0.285539
11
1.97627
21
0.282409
0
LINE
8
BLACK
6
CONTINUOUS
10
1.97627
20
0.282409
11
1.9794
21
0.278172
0
LINE
8
BLACK
6
CONTINUOUS
10
1.9794
20
0.278172
11
1.98114
21
0.273202
0
LINE
8
BLACK
6
CONTINUOUS
10
1.98114
20
0.273202
11
1.98146
21
0.269882
0
LINE
8
BLACK
6
CONTINUOUS
10
1.98146
20
0.269882
11
1.98146
21
0.240354
0
LINE
8
BLACK
6
CONTINUOUS
10
1.98146
20
0.240354
11
1.98114
21
0.237035
0
LINE
8
BLACK
6
CONTINUOUS
10
1.98114
20
0.237035
11
1.9794
21
0.232064
0
LINE
8
BLACK
6
CONTINUOUS
10
1.9794
20
0.232064
11
1.97627
21
0.227827
0
LINE
8
BLACK
6
CONTINUOUS
10
1.97627
20
0.227827
11
1.97203
21
0.224697
0
LINE
8
BLACK
6
CONTINUOUS
10
1.97203
20
0.224697
11
1.96706
21
0.222952
0
LINE
8
BLACK
6
CONTINUOUS
10
1.96706
20
0.222952
11
1.96374
21
0.222638
0
LINE
8
BLACK
6
CONTINUOUS
10
1.96374
20
0.222638
11
1.91453
21
0.222638
0
LINE
8
BLACK
6
CONTINUOUS
10
1.91453
20
0.222638
11
1.91121
21
0.222952
0
LINE
8
BLACK
6
CONTINUOUS
10
1.91121
20
0.222952
11
1.90624
21
0.224697
0
LINE
8
BLACK
6
CONTINUOUS
10
1.90624
20
0.224697
11
1.902
21
0.227827
0
LINE
8
BLACK
6
CONTINUOUS
10
1.902
20
0.227827
11
1.89887
21
0.232064
0
LINE
8
BLACK
6
CONTINUOUS
10
1.89887
20
0.232064
11
1.89712
21
0.237035
0
LINE
8
BLACK
6
CONTINUOUS
10
1.89712
20
0.237035
11
1.89681
21
0.240354
0
LINE
8
BLACK
6
CONTINUOUS
10
1.89681
20
0.240354
11
1.89681
21
0.269882
0
LINE
8
BLACK
6
CONTINUOUS
10
1.89681
20
0.269882
11
1.89712
21
0.273202
0
LINE
8
BLACK
6
CONTINUOUS
10
1.89712
20
0.273202
11
1.89887
21
0.278172
0
LINE
8
BLACK
6
CONTINUOUS
10
1.89887
20
0.278172
11
1.902
21
0.282409
0
LINE
8
BLACK
6
CONTINUOUS
10
1.902
20
0.282409
11
1.90624
21
0.285539
0
LINE
8
BLACK
6
CONTINUOUS
10
1.90624
20
0.285539
11
1.91121
21
0.287285
0
LINE
8
BLACK
6
CONTINUOUS
10
1.91121
20
0.287285
11
1.91453
21
0.287598
0
LINE
8
BLACK
6
CONTINUOUS
10
1.91453
20
0.287598
11
1.96374
21
0.287598
0
LINE
8
BLACK
6
CONTINUOUS
10
1.96374
20
0.287598
11
1.96706
21
0.287285
0
LINE
8
BLACK
6
CONTINUOUS
10
2.16391
20
0.287285
11
2.16888
21
0.285539
0
LINE
8
BLACK
6
CONTINUOUS
10
2.16888
20
0.285539
11
2.17312
21
0.282409
0
LINE
8
BLACK
6
CONTINUOUS
10
2.17312
20
0.282409
11
2.17625
21
0.278172
0
LINE
8
BLACK
6
CONTINUOUS
10
2.17625
20
0.278172
11
2.17799
21
0.273202
0
LINE
8
BLACK
6
CONTINUOUS
10
2.17799
20
0.273202
11
2.17831
21
0.269882
0
LINE
8
BLACK
6
CONTINUOUS
10
2.17831
20
0.269882
11
2.17831
21
0.240354
0
LINE
8
BLACK
6
CONTINUOUS
10
2.17831
20
0.240354
11
2.17799
21
0.237035
0
LINE
8
BLACK
6
CONTINUOUS
10
2.17799
20
0.237035
11
2.17625
21
0.232064
0
LINE
8
BLACK
6
CONTINUOUS
10
2.17625
20
0.232064
11
2.17312
21
0.227827
0
LINE
8
BLACK
6
CONTINUOUS
10
2.17312
20
0.227827
11
2.16888
21
0.224697
0
LINE
8
BLACK
6
CONTINUOUS
10
2.16888
20
0.224697
11
2.16391
21
0.222952
0
LINE
8
BLACK
6
CONTINUOUS
10
2.16391
20
0.222952
11
2.16059
21
0.222638
0
LINE
8
BLACK
6
CONTINUOUS
10
2.16059
20
0.222638
11
2.11138
21
0.222638
0
LINE
8
BLACK
6
CONTINUOUS
10
2.11138
20
0.222638
11
2.10806
21
0.222952
0
LINE
8
BLACK
6
CONTINUOUS
10
2.10806
20
0.222952
11
2.10309
21
0.224697
0
LINE
8
BLACK
6
CONTINUOUS
10
2.10309
20
0.224697
11
2.09885
21
0.227827
0
LINE
8
BLACK
6
CONTINUOUS
10
2.09885
20
0.227827
11
2.09572
21
0.232064
0
LINE
8
BLACK
6
CONTINUOUS
10
2.09572
20
0.232064
11
2.09398
21
0.237035
0
LINE
8
BLACK
6
CONTINUOUS
10
2.09398
20
0.237035
11
2.09366
21
0.240354
0
LINE
8
BLACK
6
CONTINUOUS
10
2.09366
20
0.240354
11
2.09366
21
0.269882
0
LINE
8
BLACK
6
CONTINUOUS
10
2.09366
20
0.269882
11
2.09398
21
0.273202
0
LINE
8
BLACK
6
CONTINUOUS
10
2.09398
20
0.273202
11
2.09572
21
0.278172
0
LINE
8
BLACK
6
CONTINUOUS
10
2.09572
20
0.278172
11
2.09885
21
0.282409
0
LINE
8
BLACK
6
CONTINUOUS
10
2.09885
20
0.282409
11
2.10309
21
0.285539
0
LINE
8
BLACK
6
CONTINUOUS
10
2.10309
20
0.285539
11
2.10806
21
0.287285
0
LINE
8
BLACK
6
CONTINUOUS
10
2.10806
20
0.287285
11
2.11138
21
0.287598
0
LINE
8
BLACK
6
CONTINUOUS
10
2.11138
20
0.287598
11
2.16059
21
0.287598
0
LINE
8
BLACK
6
CONTINUOUS
10
2.16059
20
0.287598
11
2.16391
21
0.287285
0
LINE
8
BLACK
6
CONTINUOUS
10
3.34047
20
0.399197
11
3.34545
21
0.397132
0
LINE
8
BLACK
6
CONTINUOUS
10
3.34545
20
0.397132
11
3.34973
21
0.393848
0
LINE
8
BLACK
6
CONTINUOUS
10
3.34973
20
0.393848
11
3.35302
21
0.389567
0
LINE
8
BLACK
6
CONTINUOUS
10
3.35302
20
0.389567
11
3.35508
21
0.384582
0
LINE
8
BLACK
6
CONTINUOUS
10
3.35508
20
0.384582
11
3.35579
21
0.379232
0
LINE
8
BLACK
6
CONTINUOUS
10
3.35579
20
0.379232
11
3.35508
21
0.373883
0
LINE
8
BLACK
6
CONTINUOUS
10
3.35508
20
0.373883
11
3.35302
21
0.368898
0
LINE
8
BLACK
6
CONTINUOUS
10
3.35302
20
0.368898
11
3.34973
21
0.364617
0
LINE
8
BLACK
6
CONTINUOUS
10
3.34973
20
0.364617
11
3.34545
21
0.361332
0
LINE
8
BLACK
6
CONTINUOUS
10
3.34545
20
0.361332
11
3.34047
21
0.359267
0
LINE
8
BLACK
6
CONTINUOUS
10
3.34047
20
0.359267
11
3.33512
21
0.358563
0
LINE
8
BLACK
6
CONTINUOUS
10
3.33512
20
0.358563
11
3.32977
21
0.359267
0
LINE
8
BLACK
6
CONTINUOUS
10
3.32977
20
0.359267
11
3.32478
21
0.361332
0
LINE
8
BLACK
6
CONTINUOUS
10
3.32478
20
0.361332
11
3.3205
21
0.364617
0
LINE
8
BLACK
6
CONTINUOUS
10
3.3205
20
0.364617
11
3.31722
21
0.368898
0
LINE
8
BLACK
6
CONTINUOUS
10
3.31722
20
0.368898
11
3.31515
21
0.373883
0
LINE
8
BLACK
6
CONTINUOUS
10
3.31515
20
0.373883
11
3.31445
21
0.379232
0
LINE
8
BLACK
6
CONTINUOUS
10
3.31445
20
0.379232
11
3.31515
21
0.384582
0
LINE
8
BLACK
6
CONTINUOUS
10
3.31515
20
0.384582
11
3.31722
21
0.389567
0
LINE
8
BLACK
6
CONTINUOUS
10
3.31722
20
0.389567
11
3.3205
21
0.393848
0
LINE
8
BLACK
6
CONTINUOUS
10
3.3205
20
0.393848
11
3.32478
21
0.397132
0
LINE
8
BLACK
6
CONTINUOUS
10
3.32478
20
0.397132
11
3.32977
21
0.399197
0
LINE
8
BLACK
6
CONTINUOUS
10
3.32977
20
0.399197
11
3.33512
21
0.399902
0
LINE
8
BLACK
6
CONTINUOUS
10
3.33512
20
0.399902
11
3.34047
21
0.399197
0
LINE
8
BLACK
6
CONTINUOUS
10
3.58766
20
0.510227
11
3.59021
21
0.508521
0
LINE
8
BLACK
6
CONTINUOUS
10
3.59021
20
0.508521
11
3.59192
21
0.505966
0
LINE
8
BLACK
6
CONTINUOUS
10
3.59192
20
0.505966
11
3.59252
21
0.502953
0
LINE
8
BLACK
6
CONTINUOUS
10
3.59252
20
0.502953
11
3.59252
21
0.404528
0
LINE
8
BLACK
6
CONTINUOUS
10
3.59252
20
0.404528
11
3.59192
21
0.401514
0
LINE
8
BLACK
6
CONTINUOUS
10
3.59192
20
0.401514
11
3.59021
21
0.39896
0
LINE
8
BLACK
6
CONTINUOUS
10
3.59021
20
0.39896
11
3.58766
21
0.397253
0
LINE
8
BLACK
6
CONTINUOUS
10
3.58766
20
0.397253
11
3.58465
21
0.396654
0
LINE
8
BLACK
6
CONTINUOUS
10
3.58465
20
0.396654
11
3.3878
21
0.396654
0
LINE
8
BLACK
6
CONTINUOUS
10
3.3878
20
0.396654
11
3.38478
21
0.397253
0
LINE
8
BLACK
6
CONTINUOUS
10
3.38478
20
0.397253
11
3.38223
21
0.39896
0
LINE
8
BLACK
6
CONTINUOUS
10
3.38223
20
0.39896
11
3.38052
21
0.401514
0
LINE
8
BLACK
6
CONTINUOUS
10
3.38052
20
0.401514
11
3.37992
21
0.404528
0
LINE
8
BLACK
6
CONTINUOUS
10
3.37992
20
0.404528
11
3.37992
21
0.502953
0
LINE
8
BLACK
6
CONTINUOUS
10
3.37992
20
0.502953
11
3.38052
21
0.505966
0
LINE
8
BLACK
6
CONTINUOUS
10
3.38052
20
0.505966
11
3.38223
21
0.508521
0
LINE
8
BLACK
6
CONTINUOUS
10
3.38223
20
0.508521
11
3.38478
21
0.510227
0
LINE
8
BLACK
6
CONTINUOUS
10
3.38478
20
0.510227
11
3.3878
21
0.510827
0
LINE
8
BLACK
6
CONTINUOUS
10
3.3878
20
0.510827
11
3.58465
21
0.510827
0
LINE
8
BLACK
6
CONTINUOUS
10
3.58465
20
0.510827
11
3.58766
21
0.510227
0
LINE
8
BLACK
6
CONTINUOUS
10
2.39868
20
0.510227
11
2.40124
21
0.508521
0
LINE
8
BLACK
6
CONTINUOUS
10
2.40124
20
0.508521
11
2.40294
21
0.505966
0
LINE
8
BLACK
6
CONTINUOUS
10
2.40294
20
0.505966
11
2.40354
21
0.502953
0
LINE
8
BLACK
6
CONTINUOUS
10
2.40354
20
0.502953
11
2.40354
21
0.404528
0
LINE
8
BLACK
6
CONTINUOUS
10
2.40354
20
0.404528
11
2.40294
21
0.401514
0
LINE
8
BLACK
6
CONTINUOUS
10
2.40294
20
0.401514
11
2.40124
21
0.39896
0
LINE
8
BLACK
6
CONTINUOUS
10
2.40124
20
0.39896
11
2.39868
21
0.397253
0
LINE
8
BLACK
6
CONTINUOUS
10
2.39868
20
0.397253
11
2.39567
21
0.396654
0
LINE
8
BLACK
6
CONTINUOUS
10
2.39567
20
0.396654
11
2.19882
21
0.396654
0
LINE
8
BLACK
6
CONTINUOUS
10
2.19882
20
0.396654
11
2.19581
21
0.397253
0
LINE
8
BLACK
6
CONTINUOUS
10
2.19581
20
0.397253
11
2.19325
21
0.39896
0
LINE
8
BLACK
6
CONTINUOUS
10
2.19325
20
0.39896
11
2.19154
21
0.401514
0
LINE
8
BLACK
6
CONTINUOUS
10
2.19154
20
0.401514
11
2.19094
21
0.404528
0
LINE
8
BLACK
6
CONTINUOUS
10
2.19094
20
0.404528
11
2.19094
21
0.502953
0
LINE
8
BLACK
6
CONTINUOUS
10
2.19094
20
0.502953
11
2.19154
21
0.505966
0
LINE
8
BLACK
6
CONTINUOUS
10
2.19154
20
0.505966
11
2.19325
21
0.508521
0
LINE
8
BLACK
6
CONTINUOUS
10
2.19325
20
0.508521
11
2.19581
21
0.510227
0
LINE
8
BLACK
6
CONTINUOUS
10
2.19581
20
0.510227
11
2.19882
21
0.510827
0
LINE
8
BLACK
6
CONTINUOUS
10
2.19882
20
0.510827
11
2.39567
21
0.510827
0
LINE
8
BLACK
6
CONTINUOUS
10
2.39567
20
0.510827
11
2.39868
21
0.510227
0
LINE
8
BLACK
6
CONTINUOUS
10
3.33963
20
0.463856
11
3.34605
21
0.462285
0
LINE
8
BLACK
6
CONTINUOUS
10
3.34605
20
0.462285
11
3.35194
21
0.459278
0
LINE
8
BLACK
6
CONTINUOUS
10
3.35194
20
0.459278
11
3.35698
21
0.454998
0
LINE
8
BLACK
6
CONTINUOUS
10
3.35698
20
0.454998
11
3.3609
21
0.449674
0
LINE
8
BLACK
6
CONTINUOUS
10
3.3609
20
0.449674
11
3.36348
21
0.44359
0
LINE
8
BLACK
6
CONTINUOUS
10
3.36348
20
0.44359
11
3.3646
21
0.437075
0
LINE
8
BLACK
6
CONTINUOUS
10
3.3646
20
0.437075
11
3.36419
21
0.430477
0
LINE
8
BLACK
6
CONTINUOUS
10
3.36419
20
0.430477
11
3.36228
21
0.42415
0
LINE
8
BLACK
6
CONTINUOUS
10
3.36228
20
0.42415
11
3.35896
21
0.418433
0
LINE
8
BLACK
6
CONTINUOUS
10
3.35896
20
0.418433
11
3.35441
21
0.413634
0
LINE
8
BLACK
6
CONTINUOUS
10
3.35441
20
0.413634
11
3.34888
21
0.410009
0
LINE
8
BLACK
6
CONTINUOUS
10
3.34888
20
0.410009
11
3.34267
21
0.407754
0
LINE
8
BLACK
6
CONTINUOUS
10
3.34267
20
0.407754
11
3.3361
21
0.406988
0
LINE
8
BLACK
6
CONTINUOUS
10
3.3361
20
0.406988
11
3.29476
21
0.406988
0
LINE
8
BLACK
6
CONTINUOUS
10
3.29476
20
0.406988
11
3.29124
21
0.407207
0
LINE
8
BLACK
6
CONTINUOUS
10
3.29124
20
0.407207
11
3.28481
21
0.408778
0
LINE
8
BLACK
6
CONTINUOUS
10
3.28481
20
0.408778
11
3.27893
21
0.411785
0
LINE
8
BLACK
6
CONTINUOUS
10
3.27893
20
0.411785
11
3.27389
21
0.416065
0
LINE
8
BLACK
6
CONTINUOUS
10
3.27389
20
0.416065
11
3.26997
21
0.421389
0
LINE
8
BLACK
6
CONTINUOUS
10
3.26997
20
0.421389
11
3.26738
21
0.427473
0
LINE
8
BLACK
6
CONTINUOUS
10
3.26738
20
0.427473
11
3.26626
21
0.433988
0
LINE
8
BLACK
6
CONTINUOUS
10
3.26626
20
0.433988
11
3.26667
21
0.440586
0
LINE
8
BLACK
6
CONTINUOUS
10
3.26667
20
0.440586
11
3.26859
21
0.446913
0
LINE
8
BLACK
6
CONTINUOUS
10
3.26859
20
0.446913
11
3.27191
21
0.45263
0
LINE
8
BLACK
6
CONTINUOUS
10
3.27191
20
0.45263
11
3.27645
21
0.457429
0
LINE
8
BLACK
6
CONTINUOUS
10
3.27645
20
0.457429
11
3.28198
21
0.461054
0
LINE
8
BLACK
6
CONTINUOUS
10
3.28198
20
0.461054
11
3.2882
21
0.463309
0
LINE
8
BLACK
6
CONTINUOUS
10
3.2882
20
0.463309
11
3.29476
21
0.464075
0
LINE
8
BLACK
6
CONTINUOUS
10
3.29476
20
0.464075
11
3.3361
21
0.464075
0
LINE
8
BLACK
6
CONTINUOUS
10
3.3361
20
0.464075
11
3.33963
21
0.463856
0
LINE
8
BLACK
6
CONTINUOUS
10
2.19396
20
0.63759
11
2.19651
21
0.635883
0
LINE
8
BLACK
6
CONTINUOUS
10
2.19651
20
0.635883
11
2.19822
21
0.633328
0
LINE
8
BLACK
6
CONTINUOUS
10
2.19822
20
0.633328
11
2.19882
21
0.630315
0
LINE
8
BLACK
6
CONTINUOUS
10
2.19882
20
0.630315
11
2.19882
21
0.583071
0
LINE
8
BLACK
6
CONTINUOUS
10
2.19882
20
0.583071
11
2.19822
21
0.580058
0
LINE
8
BLACK
6
CONTINUOUS
10
2.19822
20
0.580058
11
2.19651
21
0.577503
0
LINE
8
BLACK
6
CONTINUOUS
10
2.19651
20
0.577503
11
2.19396
21
0.575796
0
LINE
8
BLACK
6
CONTINUOUS
10
2.19396
20
0.575796
11
2.19094
21
0.575197
0
LINE
8
BLACK
6
CONTINUOUS
10
2.19094
20
0.575197
11
2.12795
21
0.575197
0
LINE
8
BLACK
6
CONTINUOUS
10
2.12795
20
0.575197
11
2.12494
21
0.575796
0
LINE
8
BLACK
6
CONTINUOUS
10
2.12494
20
0.575796
11
2.12238
21
0.577503
0
LINE
8
BLACK
6
CONTINUOUS
10
2.12238
20
0.577503
11
2.12068
21
0.580058
0
LINE
8
BLACK
6
CONTINUOUS
10
2.12068
20
0.580058
11
2.12008
21
0.583071
0
LINE
8
BLACK
6
CONTINUOUS
10
2.12008
20
0.583071
11
2.12008
21
0.630315
0
LINE
8
BLACK
6
CONTINUOUS
10
2.12008
20
0.630315
11
2.12068
21
0.633328
0
LINE
8
BLACK
6
CONTINUOUS
10
2.12068
20
0.633328
11
2.12238
21
0.635883
0
LINE
8
BLACK
6
CONTINUOUS
10
2.12238
20
0.635883
11
2.12494
21
0.63759
0
LINE
8
BLACK
6
CONTINUOUS
10
2.12494
20
0.63759
11
2.12795
21
0.638189
0
LINE
8
BLACK
6
CONTINUOUS
10
2.12795
20
0.638189
11
2.19094
21
0.638189
0
LINE
8
BLACK
6
CONTINUOUS
10
2.19094
20
0.638189
11
2.19396
21
0.63759
0
LINE
8
BLACK
6
CONTINUOUS
10
1.98026
20
0.695804
11
1.98465
21
0.693567
0
LINE
8
BLACK
6
CONTINUOUS
10
1.98465
20
0.693567
11
1.98813
21
0.690083
0
LINE
8
BLACK
6
CONTINUOUS
10
1.98813
20
0.690083
11
1.99037
21
0.685693
0
LINE
8
BLACK
6
CONTINUOUS
10
1.99037
20
0.685693
11
1.99114
21
0.680827
0
LINE
8
BLACK
6
CONTINUOUS
10
1.99114
20
0.680827
11
1.99114
21
0.659173
0
LINE
8
BLACK
6
CONTINUOUS
10
1.99114
20
0.659173
11
1.99037
21
0.654307
0
LINE
8
BLACK
6
CONTINUOUS
10
1.99037
20
0.654307
11
1.98813
21
0.649917
0
LINE
8
BLACK
6
CONTINUOUS
10
1.98813
20
0.649917
11
1.98465
21
0.646433
0
LINE
8
BLACK
6
CONTINUOUS
10
1.98465
20
0.646433
11
1.98026
21
0.644196
0
LINE
8
BLACK
6
CONTINUOUS
10
1.98026
20
0.644196
11
1.97539
21
0.643425
0
LINE
8
BLACK
6
CONTINUOUS
10
1.97539
20
0.643425
11
1.95965
21
0.643425
0
LINE
8
BLACK
6
CONTINUOUS
10
1.95965
20
0.643425
11
1.95478
21
0.644196
0
LINE
8
BLACK
6
CONTINUOUS
10
1.95478
20
0.644196
11
1.95039
21
0.646433
0
LINE
8
BLACK
6
CONTINUOUS
10
1.95039
20
0.646433
11
1.94691
21
0.649917
0
LINE
8
BLACK
6
CONTINUOUS
10
1.94691
20
0.649917
11
1.94467
21
0.654307
0
LINE
8
BLACK
6
CONTINUOUS
10
1.94467
20
0.654307
11
1.9439
21
0.659173
0
LINE
8
BLACK
6
CONTINUOUS
10
1.9439
20
0.659173
11
1.9439
21
0.680827
0
LINE
8
BLACK
6
CONTINUOUS
10
1.9439
20
0.680827
11
1.94467
21
0.685693
0
LINE
8
BLACK
6
CONTINUOUS
10
1.94467
20
0.685693
11
1.94691
21
0.690083
0
LINE
8
BLACK
6
CONTINUOUS
10
1.94691
20
0.690083
11
1.95039
21
0.693567
0
LINE
8
BLACK
6
CONTINUOUS
10
1.95039
20
0.693567
11
1.95478
21
0.695804
0
LINE
8
BLACK
6
CONTINUOUS
10
1.95478
20
0.695804
11
1.95965
21
0.696575
0
LINE
8
BLACK
6
CONTINUOUS
10
1.95965
20
0.696575
11
1.97539
21
0.696575
0
LINE
8
BLACK
6
CONTINUOUS
10
1.97539
20
0.696575
11
1.98026
21
0.695804
0
LINE
8
BLACK
6
CONTINUOUS
10
2.04522
20
0.695804
11
2.04961
21
0.693567
0
LINE
8
BLACK
6
CONTINUOUS
10
2.04961
20
0.693567
11
2.05309
21
0.690083
0
LINE
8
BLACK
6
CONTINUOUS
10
2.05309
20
0.690083
11
2.05533
21
0.685693
0
LINE
8
BLACK
6
CONTINUOUS
10
2.05533
20
0.685693
11
2.0561
21
0.680827
0
LINE
8
BLACK
6
CONTINUOUS
10
2.0561
20
0.680827
11
2.0561
21
0.659173
0
LINE
8
BLACK
6
CONTINUOUS
10
2.0561
20
0.659173
11
2.05533
21
0.654307
0
LINE
8
BLACK
6
CONTINUOUS
10
2.05533
20
0.654307
11
2.05309
21
0.649917
0
LINE
8
BLACK
6
CONTINUOUS
10
2.05309
20
0.649917
11
2.04961
21
0.646433
0
LINE
8
BLACK
6
CONTINUOUS
10
2.04961
20
0.646433
11
2.04522
21
0.644196
0
LINE
8
BLACK
6
CONTINUOUS
10
2.04522
20
0.644196
11
2.04035
21
0.643425
0
LINE
8
BLACK
6
CONTINUOUS
10
2.04035
20
0.643425
11
2.02461
21
0.643425
0
LINE
8
BLACK
6
CONTINUOUS
10
2.02461
20
0.643425
11
2.01974
21
0.644196
0
LINE
8
BLACK
6
CONTINUOUS
10
2.01974
20
0.644196
11
2.01535
21
0.646433
0
LINE
8
BLACK
6
CONTINUOUS
10
2.01535
20
0.646433
11
2.01187
21
0.649917
0
LINE
8
BLACK
6
CONTINUOUS
10
2.01187
20
0.649917
11
2.00963
21
0.654307
0
LINE
8
BLACK
6
CONTINUOUS
10
2.00963
20
0.654307
11
2.00886
21
0.659173
0
LINE
8
BLACK
6
CONTINUOUS
10
2.00886
20
0.659173
11
2.00886
21
0.680827
0
LINE
8
BLACK
6
CONTINUOUS
10
2.00886
20
0.680827
11
2.00963
21
0.685693
0
LINE
8
BLACK
6
CONTINUOUS
10
2.00963
20
0.685693
11
2.01187
21
0.690083
0
LINE
8
BLACK
6
CONTINUOUS
10
2.01187
20
0.690083
11
2.01535
21
0.693567
0
LINE
8
BLACK
6
CONTINUOUS
10
2.01535
20
0.693567
11
2.01974
21
0.695804
0
LINE
8
BLACK
6
CONTINUOUS
10
2.01974
20
0.695804
11
2.02461
21
0.696575
0
LINE
8
BLACK
6
CONTINUOUS
10
2.02461
20
0.696575
11
2.04035
21
0.696575
0
LINE
8
BLACK
6
CONTINUOUS
10
2.04035
20
0.696575
11
2.04522
21
0.695804
0
LINE
8
BLACK
6
CONTINUOUS
10
2.19396
20
0.708456
11
2.19651
21
0.706749
0
LINE
8
BLACK
6
CONTINUOUS
10
2.19651
20
0.706749
11
2.19822
21
0.704194
0
LINE
8
BLACK
6
CONTINUOUS
10
2.19822
20
0.704194
11
2.19882
21
0.701181
0
LINE
8
BLACK
6
CONTINUOUS
10
2.19882
20
0.701181
11
2.19882
21
0.653937
0
LINE
8
BLACK
6
CONTINUOUS
10
2.19882
20
0.653937
11
2.19822
21
0.650924
0
LINE
8
BLACK
6
CONTINUOUS
10
2.19822
20
0.650924
11
2.19651
21
0.648369
0
LINE
8
BLACK
6
CONTINUOUS
10
2.19651
20
0.648369
11
2.19396
21
0.646662
0
LINE
8
BLACK
6
CONTINUOUS
10
2.19396
20
0.646662
11
2.19094
21
0.646063
0
LINE
8
BLACK
6
CONTINUOUS
10
2.19094
20
0.646063
11
2.12795
21
0.646063
0
LINE
8
BLACK
6
CONTINUOUS
10
2.12795
20
0.646063
11
2.12494
21
0.646662
0
LINE
8
BLACK
6
CONTINUOUS
10
2.12494
20
0.646662
11
2.12238
21
0.648369
0
LINE
8
BLACK
6
CONTINUOUS
10
2.12238
20
0.648369
11
2.12068
21
0.650924
0
LINE
8
BLACK
6
CONTINUOUS
10
2.12068
20
0.650924
11
2.12008
21
0.653937
0
LINE
8
BLACK
6
CONTINUOUS
10
2.12008
20
0.653937
11
2.12008
21
0.701181
0
LINE
8
BLACK
6
CONTINUOUS
10
2.12008
20
0.701181
11
2.12068
21
0.704194
0
LINE
8
BLACK
6
CONTINUOUS
10
2.12068
20
0.704194
11
2.12238
21
0.706749
0
LINE
8
BLACK
6
CONTINUOUS
10
2.12238
20
0.706749
11
2.12494
21
0.708456
0
LINE
8
BLACK
6
CONTINUOUS
10
2.12494
20
0.708456
11
2.12795
21
0.709055
0
LINE
8
BLACK
6
CONTINUOUS
10
2.12795
20
0.709055
11
2.19094
21
0.709055
0
LINE
8
BLACK
6
CONTINUOUS
10
2.19094
20
0.709055
11
2.19396
21
0.708456
0
LINE
8
BLACK
6
CONTINUOUS
10
1.66782
20
0.734676
11
1.67037
21
0.732969
0
LINE
8
BLACK
6
CONTINUOUS
10
1.67037
20
0.732969
11
1.67208
21
0.730415
0
LINE
8
BLACK
6
CONTINUOUS
10
1.67208
20
0.730415
11
1.67268
21
0.727402
0
LINE
8
BLACK
6
CONTINUOUS
10
1.67268
20
0.727402
11
1.67268
21
0.667402
0
LINE
8
BLACK
6
CONTINUOUS
10
1.67268
20
0.667402
11
1.67208
21
0.664388
0
LINE
8
BLACK
6
CONTINUOUS
10
1.67208
20
0.664388
11
1.67037
21
0.661834
0
LINE
8
BLACK
6
CONTINUOUS
10
1.67037
20
0.661834
11
1.66782
21
0.660127
0
LINE
8
BLACK
6
CONTINUOUS
10
1.66782
20
0.660127
11
1.6648
21
0.659528
0
LINE
8
BLACK
6
CONTINUOUS
10
1.6648
20
0.659528
11
1.6048
21
0.659528
0
LINE
8
BLACK
6
CONTINUOUS
10
1.6048
20
0.659528
11
1.60179
21
0.660127
0
LINE
8
BLACK
6
CONTINUOUS
10
1.60179
20
0.660127
11
1.59924
21
0.661834
0
LINE
8
BLACK
6
CONTINUOUS
10
1.59924
20
0.661834
11
1.59753
21
0.664388
0
LINE
8
BLACK
6
CONTINUOUS
10
1.59753
20
0.664388
11
1.59693
21
0.667402
0
LINE
8
BLACK
6
CONTINUOUS
10
1.59693
20
0.667402
11
1.59693
21
0.727402
0
LINE
8
BLACK
6
CONTINUOUS
10
1.59693
20
0.727402
11
1.59753
21
0.730415
0
LINE
8
BLACK
6
CONTINUOUS
10
1.59753
20
0.730415
11
1.59924
21
0.732969
0
LINE
8
BLACK
6
CONTINUOUS
10
1.59924
20
0.732969
11
1.60179
21
0.734676
0
LINE
8
BLACK
6
CONTINUOUS
10
1.60179
20
0.734676
11
1.6048
21
0.735276
0
LINE
8
BLACK
6
CONTINUOUS
10
1.6048
20
0.735276
11
1.6648
21
0.735276
0
LINE
8
BLACK
6
CONTINUOUS
10
1.6648
20
0.735276
11
1.66782
21
0.734676
0
LINE
8
BLACK
6
CONTINUOUS
10
1.56782
20
0.734676
11
1.57037
21
0.732969
0
LINE
8
BLACK
6
CONTINUOUS
10
1.57037
20
0.732969
11
1.57208
21
0.730415
0
LINE
8
BLACK
6
CONTINUOUS
10
1.57208
20
0.730415
11
1.57268
21
0.727402
0
LINE
8
BLACK
6
CONTINUOUS
10
1.57268
20
0.727402
11
1.57268
21
0.667402
0
LINE
8
BLACK
6
CONTINUOUS
10
1.57268
20
0.667402
11
1.57208
21
0.664388
0
LINE
8
BLACK
6
CONTINUOUS
10
1.57208
20
0.664388
11
1.57037
21
0.661834
0
LINE
8
BLACK
6
CONTINUOUS
10
1.57037
20
0.661834
11
1.56782
21
0.660127
0
LINE
8
BLACK
6
CONTINUOUS
10
1.56782
20
0.660127
11
1.5648
21
0.659528
0
LINE
8
BLACK
6
CONTINUOUS
10
1.5648
20
0.659528
11
1.5048
21
0.659528
0
LINE
8
BLACK
6
CONTINUOUS
10
1.5048
20
0.659528
11
1.50179
21
0.660127
0
LINE
8
BLACK
6
CONTINUOUS
10
1.50179
20
0.660127
11
1.49924
21
0.661834
0
LINE
8
BLACK
6
CONTINUOUS
10
1.49924
20
0.661834
11
1.49753
21
0.664388
0
LINE
8
BLACK
6
CONTINUOUS
10
1.49753
20
0.664388
11
1.49693
21
0.667402
0
LINE
8
BLACK
6
CONTINUOUS
10
1.49693
20
0.667402
11
1.49693
21
0.727402
0
LINE
8
BLACK
6
CONTINUOUS
10
1.49693
20
0.727402
11
1.49753
21
0.730415
0
LINE
8
BLACK
6
CONTINUOUS
10
1.49753
20
0.730415
11
1.49924
21
0.732969
0
LINE
8
BLACK
6
CONTINUOUS
10
1.49924
20
0.732969
11
1.50179
21
0.734676
0
LINE
8
BLACK
6
CONTINUOUS
10
1.50179
20
0.734676
11
1.5048
21
0.735276
0
LINE
8
BLACK
6
CONTINUOUS
10
1.5048
20
0.735276
11
1.5648
21
0.735276
0
LINE
8
BLACK
6
CONTINUOUS
10
1.5648
20
0.735276
11
1.56782
21
0.734676
0
LINE
8
BLACK
6
CONTINUOUS
10
2.19396
20
0.804125
11
2.19651
21
0.802418
0
LINE
8
BLACK
6
CONTINUOUS
10
2.19651
20
0.802418
11
2.19822
21
0.799864
0
LINE
8
BLACK
6
CONTINUOUS
10
2.19822
20
0.799864
11
2.19882
21
0.79685
0
LINE
8
BLACK
6
CONTINUOUS
10
2.19882
20
0.79685
11
2.19882
21
0.749606
0
LINE
8
BLACK
6
CONTINUOUS
10
2.19882
20
0.749606
11
2.19822
21
0.746593
0
LINE
8
BLACK
6
CONTINUOUS
10
2.19822
20
0.746593
11
2.19651
21
0.744039
0
LINE
8
BLACK
6
CONTINUOUS
10
2.19651
20
0.744039
11
2.19396
21
0.742332
0
LINE
8
BLACK
6
CONTINUOUS
10
2.19396
20
0.742332
11
2.19094
21
0.741732
0
LINE
8
BLACK
6
CONTINUOUS
10
2.19094
20
0.741732
11
2.12795
21
0.741732
0
LINE
8
BLACK
6
CONTINUOUS
10
2.12795
20
0.741732
11
2.12494
21
0.742332
0
LINE
8
BLACK
6
CONTINUOUS
10
2.12494
20
0.742332
11
2.12238
21
0.744039
0
LINE
8
BLACK
6
CONTINUOUS
10
2.12238
20
0.744039
11
2.12068
21
0.746593
0
LINE
8
BLACK
6
CONTINUOUS
10
2.12068
20
0.746593
11
2.12008
21
0.749606
0
LINE
8
BLACK
6
CONTINUOUS
10
2.12008
20
0.749606
11
2.12008
21
0.79685
0
LINE
8
BLACK
6
CONTINUOUS
10
2.12008
20
0.79685
11
2.12068
21
0.799864
0
LINE
8
BLACK
6
CONTINUOUS
10
2.12068
20
0.799864
11
2.12238
21
0.802418
0
LINE
8
BLACK
6
CONTINUOUS
10
2.12238
20
0.802418
11
2.12494
21
0.804125
0
LINE
8
BLACK
6
CONTINUOUS
10
2.12494
20
0.804125
11
2.12795
21
0.804724
0
LINE
8
BLACK
6
CONTINUOUS
10
2.12795
20
0.804724
11
2.19094
21
0.804724
0
LINE
8
BLACK
6
CONTINUOUS
10
2.19094
20
0.804724
11
2.19396
21
0.804125
0
LINE
8
BLACK
6
CONTINUOUS
10
1.66782
20
0.834676
11
1.67037
21
0.832969
0
LINE
8
BLACK
6
CONTINUOUS
10
1.67037
20
0.832969
11
1.67208
21
0.830415
0
LINE
8
BLACK
6
CONTINUOUS
10
1.67208
20
0.830415
11
1.67268
21
0.827402
0
LINE
8
BLACK
6
CONTINUOUS
10
1.67268
20
0.827402
11
1.67268
21
0.767402
0
LINE
8
BLACK
6
CONTINUOUS
10
1.67268
20
0.767402
11
1.67208
21
0.764388
0
LINE
8
BLACK
6
CONTINUOUS
10
1.67208
20
0.764388
11
1.67037
21
0.761834
0
LINE
8
BLACK
6
CONTINUOUS
10
1.67037
20
0.761834
11
1.66782
21
0.760127
0
LINE
8
BLACK
6
CONTINUOUS
10
1.66782
20
0.760127
11
1.6648
21
0.759528
0
LINE
8
BLACK
6
CONTINUOUS
10
1.6648
20
0.759528
11
1.6048
21
0.759528
0
LINE
8
BLACK
6
CONTINUOUS
10
1.6048
20
0.759528
11
1.60179
21
0.760127
0
LINE
8
BLACK
6
CONTINUOUS
10
1.60179
20
0.760127
11
1.59924
21
0.761834
0
LINE
8
BLACK
6
CONTINUOUS
10
1.59924
20
0.761834
11
1.59753
21
0.764388
0
LINE
8
BLACK
6
CONTINUOUS
10
1.59753
20
0.764388
11
1.59693
21
0.767402
0
LINE
8
BLACK
6
CONTINUOUS
10
1.59693
20
0.767402
11
1.59693
21
0.827402
0
LINE
8
BLACK
6
CONTINUOUS
10
1.59693
20
0.827402
11
1.59753
21
0.830415
0
LINE
8
BLACK
6
CONTINUOUS
10
1.59753
20
0.830415
11
1.59924
21
0.832969
0
LINE
8
BLACK
6
CONTINUOUS
10
1.59924
20
0.832969
11
1.60179
21
0.834676
0
LINE
8
BLACK
6
CONTINUOUS
10
1.60179
20
0.834676
11
1.6048
21
0.835276
0
LINE
8
BLACK
6
CONTINUOUS
10
1.6048
20
0.835276
11
1.6648
21
0.835276
0
LINE
8
BLACK
6
CONTINUOUS
10
1.6648
20
0.835276
11
1.66782
21
0.834676
0
LINE
8
BLACK
6
CONTINUOUS
10
1.56782
20
0.834676
11
1.57037
21
0.832969
0
LINE
8
BLACK
6
CONTINUOUS
10
1.57037
20
0.832969
11
1.57208
21
0.830415
0
LINE
8
BLACK
6
CONTINUOUS
10
1.57208
20
0.830415
11
1.57268
21
0.827402
0
LINE
8
BLACK
6
CONTINUOUS
10
1.57268
20
0.827402
11
1.57268
21
0.767402
0
LINE
8
BLACK
6
CONTINUOUS
10
1.57268
20
0.767402
11
1.57208
21
0.764388
0
LINE
8
BLACK
6
CONTINUOUS
10
1.57208
20
0.764388
11
1.57037
21
0.761834
0
LINE
8
BLACK
6
CONTINUOUS
10
1.57037
20
0.761834
11
1.56782
21
0.760127
0
LINE
8
BLACK
6
CONTINUOUS
10
1.56782
20
0.760127
11
1.5648
21
0.759528
0
LINE
8
BLACK
6
CONTINUOUS
10
1.5648
20
0.759528
11
1.5048
21
0.759528
0
LINE
8
BLACK
6
CONTINUOUS
10
1.5048
20
0.759528
11
1.50179
21
0.760127
0
LINE
8
BLACK
6
CONTINUOUS
10
1.50179
20
0.760127
11
1.49924
21
0.761834
0
LINE
8
BLACK
6
CONTINUOUS
10
1.49924
20
0.761834
11
1.49753
21
0.764388
0
LINE
8
BLACK
6
CONTINUOUS
10
1.49753
20
0.764388
11
1.49693
21
0.767402
0
LINE
8
BLACK
6
CONTINUOUS
10
1.49693
20
0.767402
11
1.49693
21
0.827402
0
LINE
8
BLACK
6
CONTINUOUS
10
1.49693
20
0.827402
11
1.49753
21
0.830415
0
LINE
8
BLACK
6
CONTINUOUS
10
1.49753
20
0.830415
11
1.49924
21
0.832969
0
LINE
8
BLACK
6
CONTINUOUS
10
1.49924
20
0.832969
11
1.50179
21
0.834676
0
LINE
8
BLACK
6
CONTINUOUS
10
1.50179
20
0.834676
11
1.5048
21
0.835276
0
LINE
8
BLACK
6
CONTINUOUS
10
1.5048
20
0.835276
11
1.5648
21
0.835276
0
LINE
8
BLACK
6
CONTINUOUS
10
1.5648
20
0.835276
11
1.56782
21
0.834676
0
LINE
8
BLACK
6
CONTINUOUS
10
2.04522
20
0.865804
11
2.04961
21
0.863567
0
LINE
8
BLACK
6
CONTINUOUS
10
2.04961
20
0.863567
11
2.05309
21
0.860083
0
LINE
8
BLACK
6
CONTINUOUS
10
2.05309
20
0.860083
11
2.05533
21
0.855693
0
LINE
8
BLACK
6
CONTINUOUS
10
2.05533
20
0.855693
11
2.0561
21
0.850827
0
LINE
8
BLACK
6
CONTINUOUS
10
2.0561
20
0.850827
11
2.0561
21
0.829173
0
LINE
8
BLACK
6
CONTINUOUS
10
2.0561
20
0.829173
11
2.05533
21
0.824307
0
LINE
8
BLACK
6
CONTINUOUS
10
2.05533
20
0.824307
11
2.05309
21
0.819917
0
LINE
8
BLACK
6
CONTINUOUS
10
2.05309
20
0.819917
11
2.04961
21
0.816433
0
LINE
8
BLACK
6
CONTINUOUS
10
2.04961
20
0.816433
11
2.04522
21
0.814196
0
LINE
8
BLACK
6
CONTINUOUS
10
2.04522
20
0.814196
11
2.04035
21
0.813425
0
LINE
8
BLACK
6
CONTINUOUS
10
2.04035
20
0.813425
11
2.02461
21
0.813425
0
LINE
8
BLACK
6
CONTINUOUS
10
2.02461
20
0.813425
11
2.01974
21
0.814196
0
LINE
8
BLACK
6
CONTINUOUS
10
2.01974
20
0.814196
11
2.01535
21
0.816433
0
LINE
8
BLACK
6
CONTINUOUS
10
2.01535
20
0.816433
11
2.01187
21
0.819917
0
LINE
8
BLACK
6
CONTINUOUS
10
2.01187
20
0.819917
11
2.00963
21
0.824307
0
LINE
8
BLACK
6
CONTINUOUS
10
2.00963
20
0.824307
11
2.00886
21
0.829173
0
LINE
8
BLACK
6
CONTINUOUS
10
2.00886
20
0.829173
11
2.00886
21
0.850827
0
LINE
8
BLACK
6
CONTINUOUS
10
2.00886
20
0.850827
11
2.00963
21
0.855693
0
LINE
8
BLACK
6
CONTINUOUS
10
2.00963
20
0.855693
11
2.01187
21
0.860083
0
LINE
8
BLACK
6
CONTINUOUS
10
2.01187
20
0.860083
11
2.01535
21
0.863567
0
LINE
8
BLACK
6
CONTINUOUS
10
2.01535
20
0.863567
11
2.01974
21
0.865804
0
LINE
8
BLACK
6
CONTINUOUS
10
2.01974
20
0.865804
11
2.02461
21
0.866575
0
LINE
8
BLACK
6
CONTINUOUS
10
2.02461
20
0.866575
11
2.04035
21
0.866575
0
LINE
8
BLACK
6
CONTINUOUS
10
2.04035
20
0.866575
11
2.04522
21
0.865804
0
LINE
8
BLACK
6
CONTINUOUS
10
1.98026
20
0.865804
11
1.98465
21
0.863567
0
LINE
8
BLACK
6
CONTINUOUS
10
1.98465
20
0.863567
11
1.98813
21
0.860083
0
LINE
8
BLACK
6
CONTINUOUS
10
1.98813
20
0.860083
11
1.99037
21
0.855693
0
LINE
8
BLACK
6
CONTINUOUS
10
1.99037
20
0.855693
11
1.99114
21
0.850827
0
LINE
8
BLACK
6
CONTINUOUS
10
1.99114
20
0.850827
11
1.99114
21
0.829173
0
LINE
8
BLACK
6
CONTINUOUS
10
1.99114
20
0.829173
11
1.99037
21
0.824307
0
LINE
8
BLACK
6
CONTINUOUS
10
1.99037
20
0.824307
11
1.98813
21
0.819917
0
LINE
8
BLACK
6
CONTINUOUS
10
1.98813
20
0.819917
11
1.98465
21
0.816433
0
LINE
8
BLACK
6
CONTINUOUS
10
1.98465
20
0.816433
11
1.98026
21
0.814196
0
LINE
8
BLACK
6
CONTINUOUS
10
1.98026
20
0.814196
11
1.97539
21
0.813425
0
LINE
8
BLACK
6
CONTINUOUS
10
1.97539
20
0.813425
11
1.95965
21
0.813425
0
LINE
8
BLACK
6
CONTINUOUS
10
1.95965
20
0.813425
11
1.95478
21
0.814196
0
LINE
8
BLACK
6
CONTINUOUS
10
1.95478
20
0.814196
11
1.95039
21
0.816433
0
LINE
8
BLACK
6
CONTINUOUS
10
1.95039
20
0.816433
11
1.94691
21
0.819917
0
LINE
8
BLACK
6
CONTINUOUS
10
1.94691
20
0.819917
11
1.94467
21
0.824307
0
LINE
8
BLACK
6
CONTINUOUS
10
1.94467
20
0.824307
11
1.9439
21
0.829173
0
LINE
8
BLACK
6
CONTINUOUS
10
1.9439
20
0.829173
11
1.9439
21
0.850827
0
LINE
8
BLACK
6
CONTINUOUS
10
1.9439
20
0.850827
11
1.94467
21
0.855693
0
LINE
8
BLACK
6
CONTINUOUS
10
1.94467
20
0.855693
11
1.94691
21
0.860083
0
LINE
8
BLACK
6
CONTINUOUS
10
1.94691
20
0.860083
11
1.95039
21
0.863567
0
LINE
8
BLACK
6
CONTINUOUS
10
1.95039
20
0.863567
11
1.95478
21
0.865804
0
LINE
8
BLACK
6
CONTINUOUS
10
1.95478
20
0.865804
11
1.95965
21
0.866575
0
LINE
8
BLACK
6
CONTINUOUS
10
1.95965
20
0.866575
11
1.97539
21
0.866575
0
LINE
8
BLACK
6
CONTINUOUS
10
1.97539
20
0.866575
11
1.98026
21
0.865804
0
LINE
8
BLACK
6
CONTINUOUS
10
2.19396
20
0.90255
11
2.19651
21
0.900843
0
LINE
8
BLACK
6
CONTINUOUS
10
2.19651
20
0.900843
11
2.19822
21
0.898289
0
LINE
8
BLACK
6
CONTINUOUS
10
2.19822
20
0.898289
11
2.19882
21
0.895276
0
LINE
8
BLACK
6
CONTINUOUS
10
2.19882
20
0.895276
11
2.19882
21
0.848031
0
LINE
8
BLACK
6
CONTINUOUS
10
2.19882
20
0.848031
11
2.19822
21
0.845018
0
LINE
8
BLACK
6
CONTINUOUS
10
2.19822
20
0.845018
11
2.19651
21
0.842464
0
LINE
8
BLACK
6
CONTINUOUS
10
2.19651
20
0.842464
11
2.19396
21
0.840757
0
LINE
8
BLACK
6
CONTINUOUS
10
2.19396
20
0.840757
11
2.19094
21
0.840157
0
LINE
8
BLACK
6
CONTINUOUS
10
2.19094
20
0.840157
11
2.12795
21
0.840157
0
LINE
8
BLACK
6
CONTINUOUS
10
2.12795
20
0.840157
11
2.12494
21
0.840757
0
LINE
8
BLACK
6
CONTINUOUS
10
2.12494
20
0.840757
11
2.12238
21
0.842464
0
LINE
8
BLACK
6
CONTINUOUS
10
2.12238
20
0.842464
11
2.12068
21
0.845018
0
LINE
8
BLACK
6
CONTINUOUS
10
2.12068
20
0.845018
11
2.12008
21
0.848031
0
LINE
8
BLACK
6
CONTINUOUS
10
2.12008
20
0.848031
11
2.12008
21
0.895276
0
LINE
8
BLACK
6
CONTINUOUS
10
2.12008
20
0.895276
11
2.12068
21
0.898289
0
LINE
8
BLACK
6
CONTINUOUS
10
2.12068
20
0.898289
11
2.12238
21
0.900843
0
LINE
8
BLACK
6
CONTINUOUS
10
2.12238
20
0.900843
11
2.12494
21
0.90255
0
LINE
8
BLACK
6
CONTINUOUS
10
2.12494
20
0.90255
11
2.12795
21
0.90315
0
LINE
8
BLACK
6
CONTINUOUS
10
2.12795
20
0.90315
11
2.19094
21
0.90315
0
LINE
8
BLACK
6
CONTINUOUS
10
2.19094
20
0.90315
11
2.19396
21
0.90255
0
LINE
8
BLACK
6
CONTINUOUS
10
1.66782
20
0.934676
11
1.67037
21
0.932969
0
LINE
8
BLACK
6
CONTINUOUS
10
1.67037
20
0.932969
11
1.67208
21
0.930415
0
LINE
8
BLACK
6
CONTINUOUS
10
1.67208
20
0.930415
11
1.67268
21
0.927402
0
LINE
8
BLACK
6
CONTINUOUS
10
1.67268
20
0.927402
11
1.67268
21
0.867402
0
LINE
8
BLACK
6
CONTINUOUS
10
1.67268
20
0.867402
11
1.67208
21
0.864388
0
LINE
8
BLACK
6
CONTINUOUS
10
1.67208
20
0.864388
11
1.67037
21
0.861834
0
LINE
8
BLACK
6
CONTINUOUS
10
1.67037
20
0.861834
11
1.66782
21
0.860127
0
LINE
8
BLACK
6
CONTINUOUS
10
1.66782
20
0.860127
11
1.6648
21
0.859528
0
LINE
8
BLACK
6
CONTINUOUS
10
1.6648
20
0.859528
11
1.6048
21
0.859528
0
LINE
8
BLACK
6
CONTINUOUS
10
1.6048
20
0.859528
11
1.60179
21
0.860127
0
LINE
8
BLACK
6
CONTINUOUS
10
1.60179
20
0.860127
11
1.59924
21
0.861834
0
LINE
8
BLACK
6
CONTINUOUS
10
1.59924
20
0.861834
11
1.59753
21
0.864388
0
LINE
8
BLACK
6
CONTINUOUS
10
1.59753
20
0.864388
11
1.59693
21
0.867402
0
LINE
8
BLACK
6
CONTINUOUS
10
1.59693
20
0.867402
11
1.59693
21
0.927402
0
LINE
8
BLACK
6
CONTINUOUS
10
1.59693
20
0.927402
11
1.59753
21
0.930415
0
LINE
8
BLACK
6
CONTINUOUS
10
1.59753
20
0.930415
11
1.59924
21
0.932969
0
LINE
8
BLACK
6
CONTINUOUS
10
1.59924
20
0.932969
11
1.60179
21
0.934676
0
LINE
8
BLACK
6
CONTINUOUS
10
1.60179
20
0.934676
11
1.6048
21
0.935276
0
LINE
8
BLACK
6
CONTINUOUS
10
1.6048
20
0.935276
11
1.6648
21
0.935276
0
LINE
8
BLACK
6
CONTINUOUS
10
1.6648
20
0.935276
11
1.66782
21
0.934676
0
LINE
8
BLACK
6
CONTINUOUS
10
1.56782
20
0.934676
11
1.57037
21
0.932969
0
LINE
8
BLACK
6
CONTINUOUS
10
1.57037
20
0.932969
11
1.57208
21
0.930415
0
LINE
8
BLACK
6
CONTINUOUS
10
1.57208
20
0.930415
11
1.57268
21
0.927402
0
LINE
8
BLACK
6
CONTINUOUS
10
1.57268
20
0.927402
11
1.57268
21
0.867402
0
LINE
8
BLACK
6
CONTINUOUS
10
1.57268
20
0.867402
11
1.57208
21
0.864388
0
LINE
8
BLACK
6
CONTINUOUS
10
1.57208
20
0.864388
11
1.57037
21
0.861834
0
LINE
8
BLACK
6
CONTINUOUS
10
1.57037
20
0.861834
11
1.56782
21
0.860127
0
LINE
8
BLACK
6
CONTINUOUS
10
1.56782
20
0.860127
11
1.5648
21
0.859528
0
LINE
8
BLACK
6
CONTINUOUS
10
1.5648
20
0.859528
11
1.5048
21
0.859528
0
LINE
8
BLACK
6
CONTINUOUS
10
1.5048
20
0.859528
11
1.50179
21
0.860127
0
LINE
8
BLACK
6
CONTINUOUS
10
1.50179
20
0.860127
11
1.49924
21
0.861834
0
LINE
8
BLACK
6
CONTINUOUS
10
1.49924
20
0.861834
11
1.49753
21
0.864388
0
LINE
8
BLACK
6
CONTINUOUS
10
1.49753
20
0.864388
11
1.49693
21
0.867402
0
LINE
8
BLACK
6
CONTINUOUS
10
1.49693
20
0.867402
11
1.49693
21
0.927402
0
LINE
8
BLACK
6
CONTINUOUS
10
1.49693
20
0.927402
11
1.49753
21
0.930415
0
LINE
8
BLACK
6
CONTINUOUS
10
1.49753
20
0.930415
11
1.49924
21
0.932969
0
LINE
8
BLACK
6
CONTINUOUS
10
1.49924
20
0.932969
11
1.50179
21
0.934676
0
LINE
8
BLACK
6
CONTINUOUS
10
1.50179
20
0.934676
11
1.5048
21
0.935276
0
LINE
8
BLACK
6
CONTINUOUS
10
1.5048
20
0.935276
11
1.5648
21
0.935276
0
LINE
8
BLACK
6
CONTINUOUS
10
1.5648
20
0.935276
11
1.56782
21
0.934676
0
LINE
8
BLACK
6
CONTINUOUS
10
2.04454
20
0.945756
11
2.04921
21
0.943379
0
LINE
8
BLACK
6
CONTINUOUS
10
2.04921
20
0.943379
11
2.05291
21
0.939678
0
LINE
8
BLACK
6
CONTINUOUS
10
2.05291
20
0.939678
11
2.05528
21
0.935013
0
LINE
8
BLACK
6
CONTINUOUS
10
2.05528
20
0.935013
11
2.0561
21
0.929843
0
LINE
8
BLACK
6
CONTINUOUS
10
2.0561
20
0.929843
11
2.0561
21
0.910157
0
LINE
8
BLACK
6
CONTINUOUS
10
2.0561
20
0.910157
11
2.05528
21
0.904987
0
LINE
8
BLACK
6
CONTINUOUS
10
2.05528
20
0.904987
11
2.05291
21
0.900322
0
LINE
8
BLACK
6
CONTINUOUS
10
2.05291
20
0.900322
11
2.04921
21
0.896621
0
LINE
8
BLACK
6
CONTINUOUS
10
2.04921
20
0.896621
11
2.04454
21
0.894244
0
LINE
8
BLACK
6
CONTINUOUS
10
2.04454
20
0.894244
11
2.03937
21
0.893425
0
LINE
8
BLACK
6
CONTINUOUS
10
2.03937
20
0.893425
11
2.02165
21
0.893425
0
LINE
8
BLACK
6
CONTINUOUS
10
2.02165
20
0.893425
11
2.01648
21
0.894244
0
LINE
8
BLACK
6
CONTINUOUS
10
2.01648
20
0.894244
11
2.01182
21
0.896621
0
LINE
8
BLACK
6
CONTINUOUS
10
2.01182
20
0.896621
11
2.00812
21
0.900322
0
LINE
8
BLACK
6
CONTINUOUS
10
2.00812
20
0.900322
11
2.00574
21
0.904987
0
LINE
8
BLACK
6
CONTINUOUS
10
2.00574
20
0.904987
11
2.00492
21
0.910157
0
LINE
8
BLACK
6
CONTINUOUS
10
2.00492
20
0.910157
11
2.00492
21
0.929843
0
LINE
8
BLACK
6
CONTINUOUS
10
2.00492
20
0.929843
11
2.00574
21
0.935013
0
LINE
8
BLACK
6
CONTINUOUS
10
2.00574
20
0.935013
11
2.00812
21
0.939678
0
LINE
8
BLACK
6
CONTINUOUS
10
2.00812
20
0.939678
11
2.01182
21
0.943379
0
LINE
8
BLACK
6
CONTINUOUS
10
2.01182
20
0.943379
11
2.01648
21
0.945756
0
LINE
8
BLACK
6
CONTINUOUS
10
2.01648
20
0.945756
11
2.02165
21
0.946575
0
LINE
8
BLACK
6
CONTINUOUS
10
2.02165
20
0.946575
11
2.03937
21
0.946575
0
LINE
8
BLACK
6
CONTINUOUS
10
2.03937
20
0.946575
11
2.04454
21
0.945756
0
LINE
8
BLACK
6
CONTINUOUS
10
1.98352
20
0.945756
11
1.98818
21
0.943379
0
LINE
8
BLACK
6
CONTINUOUS
10
1.98818
20
0.943379
11
1.99188
21
0.939678
0
LINE
8
BLACK
6
CONTINUOUS
10
1.99188
20
0.939678
11
1.99426
21
0.935013
0
LINE
8
BLACK
6
CONTINUOUS
10
1.99426
20
0.935013
11
1.99508
21
0.929843
0
LINE
8
BLACK
6
CONTINUOUS
10
1.99508
20
0.929843
11
1.99508
21
0.910157
0
LINE
8
BLACK
6
CONTINUOUS
10
1.99508
20
0.910157
11
1.99426
21
0.904987
0
LINE
8
BLACK
6
CONTINUOUS
10
1.99426
20
0.904987
11
1.99188
21
0.900322
0
LINE
8
BLACK
6
CONTINUOUS
10
1.99188
20
0.900322
11
1.98818
21
0.896621
0
LINE
8
BLACK
6
CONTINUOUS
10
1.98818
20
0.896621
11
1.98352
21
0.894244
0
LINE
8
BLACK
6
CONTINUOUS
10
1.98352
20
0.894244
11
1.97835
21
0.893425
0
LINE
8
BLACK
6
CONTINUOUS
10
1.97835
20
0.893425
11
1.96063
21
0.893425
0
LINE
8
BLACK
6
CONTINUOUS
10
1.96063
20
0.893425
11
1.95546
21
0.894244
0
LINE
8
BLACK
6
CONTINUOUS
10
1.95546
20
0.894244
11
1.95079
21
0.896621
0
LINE
8
BLACK
6
CONTINUOUS
10
1.95079
20
0.896621
11
1.94709
21
0.900322
0
LINE
8
BLACK
6
CONTINUOUS
10
1.94709
20
0.900322
11
1.94472
21
0.904987
0
LINE
8
BLACK
6
CONTINUOUS
10
1.94472
20
0.904987
11
1.9439
21
0.910157
0
LINE
8
BLACK
6
CONTINUOUS
10
1.9439
20
0.910157
11
1.9439
21
0.929843
0
LINE
8
BLACK
6
CONTINUOUS
10
1.9439
20
0.929843
11
1.94472
21
0.935013
0
LINE
8
BLACK
6
CONTINUOUS
10
1.94472
20
0.935013
11
1.94709
21
0.939678
0
LINE
8
BLACK
6
CONTINUOUS
10
1.94709
20
0.939678
11
1.95079
21
0.943379
0
LINE
8
BLACK
6
CONTINUOUS
10
1.95079
20
0.943379
11
1.95546
21
0.945756
0
LINE
8
BLACK
6
CONTINUOUS
10
1.95546
20
0.945756
11
1.96063
21
0.946575
0
LINE
8
BLACK
6
CONTINUOUS
10
1.96063
20
0.946575
11
1.97835
21
0.946575
0
LINE
8
BLACK
6
CONTINUOUS
10
1.97835
20
0.946575
11
1.98352
21
0.945756
0
LINE
8
BLACK
6
CONTINUOUS
10
2.19396
20
1.00098
11
2.19651
21
0.999269
0
LINE
8
BLACK
6
CONTINUOUS
10
2.19651
20
0.999269
11
2.19822
21
0.996714
0
LINE
8
BLACK
6
CONTINUOUS
10
2.19822
20
0.996714
11
2.19882
21
0.993701
0
LINE
8
BLACK
6
CONTINUOUS
10
2.19882
20
0.993701
11
2.19882
21
0.946457
0
LINE
8
BLACK
6
CONTINUOUS
10
2.19882
20
0.946457
11
2.19822
21
0.943443
0
LINE
8
BLACK
6
CONTINUOUS
10
2.19822
20
0.943443
11
2.19651
21
0.940889
0
LINE
8
BLACK
6
CONTINUOUS
10
2.19651
20
0.940889
11
2.19396
21
0.939182
0
LINE
8
BLACK
6
CONTINUOUS
10
2.19396
20
0.939182
11
2.19094
21
0.938583
0
LINE
8
BLACK
6
CONTINUOUS
10
2.19094
20
0.938583
11
2.12795
21
0.938583
0
LINE
8
BLACK
6
CONTINUOUS
10
2.12795
20
0.938583
11
2.12494
21
0.939182
0
LINE
8
BLACK
6
CONTINUOUS
10
2.12494
20
0.939182
11
2.12238
21
0.940889
0
LINE
8
BLACK
6
CONTINUOUS
10
2.12238
20
0.940889
11
2.12068
21
0.943443
0
LINE
8
BLACK
6
CONTINUOUS
10
2.12068
20
0.943443
11
2.12008
21
0.946457
0
LINE
8
BLACK
6
CONTINUOUS
10
2.12008
20
0.946457
11
2.12008
21
0.993701
0
LINE
8
BLACK
6
CONTINUOUS
10
2.12008
20
0.993701
11
2.12068
21
0.996714
0
LINE
8
BLACK
6
CONTINUOUS
10
2.12068
20
0.996714
11
2.12238
21
0.999269
0
LINE
8
BLACK
6
CONTINUOUS
10
2.12238
20
0.999269
11
2.12494
21
1.00098
0
LINE
8
BLACK
6
CONTINUOUS
10
2.12494
20
1.00098
11
2.12795
21
1.00157
0
LINE
8
BLACK
6
CONTINUOUS
10
2.12795
20
1.00157
11
2.19094
21
1.00157
0
LINE
8
BLACK
6
CONTINUOUS
10
2.19094
20
1.00157
11
2.19396
21
1.00098
0
LINE
8
BLACK
6
CONTINUOUS
10
1.98352
20
1.02576
11
1.98818
21
1.02338
0
LINE
8
BLACK
6
CONTINUOUS
10
1.98818
20
1.02338
11
1.99188
21
1.01968
0
LINE
8
BLACK
6
CONTINUOUS
10
1.99188
20
1.01968
11
1.99426
21
1.01501
0
LINE
8
BLACK
6
CONTINUOUS
10
1.99426
20
1.01501
11
1.99508
21
1.00984
0
LINE
8
BLACK
6
CONTINUOUS
10
1.99508
20
1.00984
11
1.99508
21
0.990157
0
LINE
8
BLACK
6
CONTINUOUS
10
1.99508
20
0.990157
11
1.99426
21
0.984987
0
LINE
8
BLACK
6
CONTINUOUS
10
1.99426
20
0.984987
11
1.99188
21
0.980322
0
LINE
8
BLACK
6
CONTINUOUS
10
1.99188
20
0.980322
11
1.98818
21
0.976621
0
LINE
8
BLACK
6
CONTINUOUS
10
1.98818
20
0.976621
11
1.98352
21
0.974244
0
LINE
8
BLACK
6
CONTINUOUS
10
1.98352
20
0.974244
11
1.97835
21
0.973425
0
LINE
8
BLACK
6
CONTINUOUS
10
1.97835
20
0.973425
11
1.96063
21
0.973425
0
LINE
8
BLACK
6
CONTINUOUS
10
1.96063
20
0.973425
11
1.95546
21
0.974244
0
LINE
8
BLACK
6
CONTINUOUS
10
1.95546
20
0.974244
11
1.95079
21
0.976621
0
LINE
8
BLACK
6
CONTINUOUS
10
1.95079
20
0.976621
11
1.94709
21
0.980322
0
LINE
8
BLACK
6
CONTINUOUS
10
1.94709
20
0.980322
11
1.94472
21
0.984987
0
LINE
8
BLACK
6
CONTINUOUS
10
1.94472
20
0.984987
11
1.9439
21
0.990157
0
LINE
8
BLACK
6
CONTINUOUS
10
1.9439
20
0.990157
11
1.9439
21
1.00984
0
LINE
8
BLACK
6
CONTINUOUS
10
1.9439
20
1.00984
11
1.94472
21
1.01501
0
LINE
8
BLACK
6
CONTINUOUS
10
1.94472
20
1.01501
11
1.94709
21
1.01968
0
LINE
8
BLACK
6
CONTINUOUS
10
1.94709
20
1.01968
11
1.95079
21
1.02338
0
LINE
8
BLACK
6
CONTINUOUS
10
1.95079
20
1.02338
11
1.95546
21
1.02576
0
LINE
8
BLACK
6
CONTINUOUS
10
1.95546
20
1.02576
11
1.96063
21
1.02657
0
LINE
8
BLACK
6
CONTINUOUS
10
1.96063
20
1.02657
11
1.97835
21
1.02657
0
LINE
8
BLACK
6
CONTINUOUS
10
1.97835
20
1.02657
11
1.98352
21
1.02576
0
LINE
8
BLACK
6
CONTINUOUS
10
2.04454
20
1.02576
11
2.04921
21
1.02338
0
LINE
8
BLACK
6
CONTINUOUS
10
2.04921
20
1.02338
11
2.05291
21
1.01968
0
LINE
8
BLACK
6
CONTINUOUS
10
2.05291
20
1.01968
11
2.05528
21
1.01501
0
LINE
8
BLACK
6
CONTINUOUS
10
2.05528
20
1.01501
11
2.0561
21
1.00984
0
LINE
8
BLACK
6
CONTINUOUS
10
2.0561
20
1.00984
11
2.0561
21
0.990157
0
LINE
8
BLACK
6
CONTINUOUS
10
2.0561
20
0.990157
11
2.05528
21
0.984987
0
LINE
8
BLACK
6
CONTINUOUS
10
2.05528
20
0.984987
11
2.05291
21
0.980322
0
LINE
8
BLACK
6
CONTINUOUS
10
2.05291
20
0.980322
11
2.04921
21
0.976621
0
LINE
8
BLACK
6
CONTINUOUS
10
2.04921
20
0.976621
11
2.04454
21
0.974244
0
LINE
8
BLACK
6
CONTINUOUS
10
2.04454
20
0.974244
11
2.03937
21
0.973425
0
LINE
8
BLACK
6
CONTINUOUS
10
2.03937
20
0.973425
11
2.02165
21
0.973425
0
LINE
8
BLACK
6
CONTINUOUS
10
2.02165
20
0.973425
11
2.01648
21
0.974244
0
LINE
8
BLACK
6
CONTINUOUS
10
2.01648
20
0.974244
11
2.01182
21
0.976621
0
LINE
8
BLACK
6
CONTINUOUS
10
2.01182
20
0.976621
11
2.00812
21
0.980322
0
LINE
8
BLACK
6
CONTINUOUS
10
2.00812
20
0.980322
11
2.00574
21
0.984987
0
LINE
8
BLACK
6
CONTINUOUS
10
2.00574
20
0.984987
11
2.00492
21
0.990157
0
LINE
8
BLACK
6
CONTINUOUS
10
2.00492
20
0.990157
11
2.00492
21
1.00984
0
LINE
8
BLACK
6
CONTINUOUS
10
2.00492
20
1.00984
11
2.00574
21
1.01501
0
LINE
8
BLACK
6
CONTINUOUS
10
2.00574
20
1.01501
11
2.00812
21
1.01968
0
LINE
8
BLACK
6
CONTINUOUS
10
2.00812
20
1.01968
11
2.01182
21
1.02338
0
LINE
8
BLACK
6
CONTINUOUS
10
2.01182
20
1.02338
11
2.01648
21
1.02576
0
LINE
8
BLACK
6
CONTINUOUS
10
2.01648
20
1.02576
11
2.02165
21
1.02657
0
LINE
8
BLACK
6
CONTINUOUS
10
2.02165
20
1.02657
11
2.03937
21
1.02657
0
LINE
8
BLACK
6
CONTINUOUS
10
2.03937
20
1.02657
11
2.04454
21
1.02576
0
LINE
8
BLACK
6
CONTINUOUS
10
2.19396
20
1.0994
11
2.19651
21
1.09769
0
LINE
8
BLACK
6
CONTINUOUS
10
2.19651
20
1.09769
11
2.19822
21
1.09514
0
LINE
8
BLACK
6
CONTINUOUS
10
2.19822
20
1.09514
11
2.19882
21
1.09213
0
LINE
8
BLACK
6
CONTINUOUS
10
2.19882
20
1.09213
11
2.19882
21
1.04488
0
LINE
8
BLACK
6
CONTINUOUS
10
2.19882
20
1.04488
11
2.19822
21
1.04187
0
LINE
8
BLACK
6
CONTINUOUS
10
2.19822
20
1.04187
11
2.19651
21
1.03931
0
LINE
8
BLACK
6
CONTINUOUS
10
2.19651
20
1.03931
11
2.19396
21
1.03761
0
LINE
8
BLACK
6
CONTINUOUS
10
2.19396
20
1.03761
11
2.19094
21
1.03701
0
LINE
8
BLACK
6
CONTINUOUS
10
2.19094
20
1.03701
11
2.12795
21
1.03701
0
LINE
8
BLACK
6
CONTINUOUS
10
2.12795
20
1.03701
11
2.12494
21
1.03761
0
LINE
8
BLACK
6
CONTINUOUS
10
2.12494
20
1.03761
11
2.12238
21
1.03931
0
LINE
8
BLACK
6
CONTINUOUS
10
2.12238
20
1.03931
11
2.12068
21
1.04187
0
LINE
8
BLACK
6
CONTINUOUS
10
2.12068
20
1.04187
11
2.12008
21
1.04488
0
LINE
8
BLACK
6
CONTINUOUS
10
2.12008
20
1.04488
11
2.12008
21
1.09213
0
LINE
8
BLACK
6
CONTINUOUS
10
2.12008
20
1.09213
11
2.12068
21
1.09514
0
LINE
8
BLACK
6
CONTINUOUS
10
2.12068
20
1.09514
11
2.12238
21
1.09769
0
LINE
8
BLACK
6
CONTINUOUS
10
2.12238
20
1.09769
11
2.12494
21
1.0994
0
LINE
8
BLACK
6
CONTINUOUS
10
2.12494
20
1.0994
11
2.12795
21
1.1
0
LINE
8
BLACK
6
CONTINUOUS
10
2.12795
20
1.1
11
2.19094
21
1.1
0
LINE
8
BLACK
6
CONTINUOUS
10
2.19094
20
1.1
11
2.19396
21
1.0994
0
LINE
8
BLACK
6
CONTINUOUS
10
1.98026
20
1.1858
11
1.98465
21
1.18357
0
LINE
8
BLACK
6
CONTINUOUS
10
1.98465
20
1.18357
11
1.98813
21
1.18008
0
LINE
8
BLACK
6
CONTINUOUS
10
1.98813
20
1.18008
11
1.99037
21
1.17569
0
LINE
8
BLACK
6
CONTINUOUS
10
1.99037
20
1.17569
11
1.99114
21
1.17083
0
LINE
8
BLACK
6
CONTINUOUS
10
1.99114
20
1.17083
11
1.99114
21
1.14917
0
LINE
8
BLACK
6
CONTINUOUS
10
1.99114
20
1.14917
11
1.99037
21
1.14431
0
LINE
8
BLACK
6
CONTINUOUS
10
1.99037
20
1.14431
11
1.98813
21
1.13992
0
LINE
8
BLACK
6
CONTINUOUS
10
1.98813
20
1.13992
11
1.98465
21
1.13643
0
LINE
8
BLACK
6
CONTINUOUS
10
1.98465
20
1.13643
11
1.98026
21
1.1342
0
LINE
8
BLACK
6
CONTINUOUS
10
1.98026
20
1.1342
11
1.97539
21
1.13343
0
LINE
8
BLACK
6
CONTINUOUS
10
1.97539
20
1.13343
11
1.95965
21
1.13343
0
LINE
8
BLACK
6
CONTINUOUS
10
1.95965
20
1.13343
11
1.95478
21
1.1342
0
LINE
8
BLACK
6
CONTINUOUS
10
1.95478
20
1.1342
11
1.95039
21
1.13643
0
LINE
8
BLACK
6
CONTINUOUS
10
1.95039
20
1.13643
11
1.94691
21
1.13992
0
LINE
8
BLACK
6
CONTINUOUS
10
1.94691
20
1.13992
11
1.94467
21
1.14431
0
LINE
8
BLACK
6
CONTINUOUS
10
1.94467
20
1.14431
11
1.9439
21
1.14917
0
LINE
8
BLACK
6
CONTINUOUS
10
1.9439
20
1.14917
11
1.9439
21
1.17083
0
LINE
8
BLACK
6
CONTINUOUS
10
1.9439
20
1.17083
11
1.94467
21
1.17569
0
LINE
8
BLACK
6
CONTINUOUS
10
1.94467
20
1.17569
11
1.94691
21
1.18008
0
LINE
8
BLACK
6
CONTINUOUS
10
1.94691
20
1.18008
11
1.95039
21
1.18357
0
LINE
8
BLACK
6
CONTINUOUS
10
1.95039
20
1.18357
11
1.95478
21
1.1858
0
LINE
8
BLACK
6
CONTINUOUS
10
1.95478
20
1.1858
11
1.95965
21
1.18657
0
LINE
8
BLACK
6
CONTINUOUS
10
1.95965
20
1.18657
11
1.97539
21
1.18657
0
LINE
8
BLACK
6
CONTINUOUS
10
1.97539
20
1.18657
11
1.98026
21
1.1858
0
LINE
8
BLACK
6
CONTINUOUS
10
2.04522
20
1.1858
11
2.04961
21
1.18357
0
LINE
8
BLACK
6
CONTINUOUS
10
2.04961
20
1.18357
11
2.05309
21
1.18008
0
LINE
8
BLACK
6
CONTINUOUS
10
2.05309
20
1.18008
11
2.05533
21
1.17569
0
LINE
8
BLACK
6
CONTINUOUS
10
2.05533
20
1.17569
11
2.0561
21
1.17083
0
LINE
8
BLACK
6
CONTINUOUS
10
2.0561
20
1.17083
11
2.0561
21
1.14917
0
LINE
8
BLACK
6
CONTINUOUS
10
2.0561
20
1.14917
11
2.05533
21
1.14431
0
LINE
8
BLACK
6
CONTINUOUS
10
2.05533
20
1.14431
11
2.05309
21
1.13992
0
LINE
8
BLACK
6
CONTINUOUS
10
2.05309
20
1.13992
11
2.04961
21
1.13643
0
LINE
8
BLACK
6
CONTINUOUS
10
2.04961
20
1.13643
11
2.04522
21
1.1342
0
LINE
8
BLACK
6
CONTINUOUS
10
2.04522
20
1.1342
11
2.04035
21
1.13343
0
LINE
8
BLACK
6
CONTINUOUS
10
2.04035
20
1.13343
11
2.02461
21
1.13343
0
LINE
8
BLACK
6
CONTINUOUS
10
2.02461
20
1.13343
11
2.01974
21
1.1342
0
LINE
8
BLACK
6
CONTINUOUS
10
2.01974
20
1.1342
11
2.01535
21
1.13643
0
LINE
8
BLACK
6
CONTINUOUS
10
2.01535
20
1.13643
11
2.01187
21
1.13992
0
LINE
8
BLACK
6
CONTINUOUS
10
2.01187
20
1.13992
11
2.00963
21
1.14431
0
LINE
8
BLACK
6
CONTINUOUS
10
2.00963
20
1.14431
11
2.00886
21
1.14917
0
LINE
8
BLACK
6
CONTINUOUS
10
2.00886
20
1.14917
11
2.00886
21
1.17083
0
LINE
8
BLACK
6
CONTINUOUS
10
2.00886
20
1.17083
11
2.00963
21
1.17569
0
LINE
8
BLACK
6
CONTINUOUS
10
2.00963
20
1.17569
11
2.01187
21
1.18008
0
LINE
8
BLACK
6
CONTINUOUS
10
2.01187
20
1.18008
11
2.01535
21
1.18357
0
LINE
8
BLACK
6
CONTINUOUS
10
2.01535
20
1.18357
11
2.01974
21
1.1858
0
LINE
8
BLACK
6
CONTINUOUS
10
2.01974
20
1.1858
11
2.02461
21
1.18657
0
LINE
8
BLACK
6
CONTINUOUS
10
2.02461
20
1.18657
11
2.04035
21
1.18657
0
LINE
8
BLACK
6
CONTINUOUS
10
2.04035
20
1.18657
11
2.04522
21
1.1858
0
LINE
8
BLACK
6
CONTINUOUS
10
2.19396
20
1.19783
11
2.19651
21
1.19612
0
LINE
8
BLACK
6
CONTINUOUS
10
2.19651
20
1.19612
11
2.19822
21
1.19356
0
LINE
8
BLACK
6
CONTINUOUS
10
2.19822
20
1.19356
11
2.19882
21
1.19055
0
LINE
8
BLACK
6
CONTINUOUS
10
2.19882
20
1.19055
11
2.19882
21
1.14331
0
LINE
8
BLACK
6
CONTINUOUS
10
2.19882
20
1.14331
11
2.19822
21
1.14029
0
LINE
8
BLACK
6
CONTINUOUS
10
2.19822
20
1.14029
11
2.19651
21
1.13774
0
LINE
8
BLACK
6
CONTINUOUS
10
2.19651
20
1.13774
11
2.19396
21
1.13603
0
LINE
8
BLACK
6
CONTINUOUS
10
2.19396
20
1.13603
11
2.19094
21
1.13543
0
LINE
8
BLACK
6
CONTINUOUS
10
2.19094
20
1.13543
11
2.12795
21
1.13543
0
LINE
8
BLACK
6
CONTINUOUS
10
2.12795
20
1.13543
11
2.12494
21
1.13603
0
LINE
8
BLACK
6
CONTINUOUS
10
2.12494
20
1.13603
11
2.12238
21
1.13774
0
LINE
8
BLACK
6
CONTINUOUS
10
2.12238
20
1.13774
11
2.12068
21
1.14029
0
LINE
8
BLACK
6
CONTINUOUS
10
2.12068
20
1.14029
11
2.12008
21
1.14331
0
LINE
8
BLACK
6
CONTINUOUS
10
2.12008
20
1.14331
11
2.12008
21
1.19055
0
LINE
8
BLACK
6
CONTINUOUS
10
2.12008
20
1.19055
11
2.12068
21
1.19356
0
LINE
8
BLACK
6
CONTINUOUS
10
2.12068
20
1.19356
11
2.12238
21
1.19612
0
LINE
8
BLACK
6
CONTINUOUS
10
2.12238
20
1.19612
11
2.12494
21
1.19783
0
LINE
8
BLACK
6
CONTINUOUS
10
2.12494
20
1.19783
11
2.12795
21
1.19843
0
LINE
8
BLACK
6
CONTINUOUS
10
2.12795
20
1.19843
11
2.19094
21
1.19843
0
LINE
8
BLACK
6
CONTINUOUS
10
2.19094
20
1.19843
11
2.19396
21
1.19783
0
LINE
8
BLACK
6
CONTINUOUS
10
1.65752
20
1.28664
11
1.66449
21
1.28448
0
LINE
8
BLACK
6
CONTINUOUS
10
1.66449
20
1.28448
11
1.67091
21
1.28101
0
LINE
8
BLACK
6
CONTINUOUS
10
1.67091
20
1.28101
11
1.67654
21
1.27635
0
LINE
8
BLACK
6
CONTINUOUS
10
1.67654
20
1.27635
11
1.68115
21
1.2707
0
LINE
8
BLACK
6
CONTINUOUS
10
1.68115
20
1.2707
11
1.68458
21
1.26425
0
LINE
8
BLACK
6
CONTINUOUS
10
1.68458
20
1.26425
11
1.68669
21
1.25726
0
LINE
8
BLACK
6
CONTINUOUS
10
1.68669
20
1.25726
11
1.6874
21
1.25
0
LINE
8
BLACK
6
CONTINUOUS
10
1.6874
20
1.25
11
1.68739
21
1.24896
0
LINE
8
BLACK
6
CONTINUOUS
10
1.68739
20
1.24896
11
1.68647
21
1.24171
0
LINE
8
BLACK
6
CONTINUOUS
10
1.68647
20
1.24171
11
1.68417
21
1.23479
0
LINE
8
BLACK
6
CONTINUOUS
10
1.68417
20
1.23479
11
1.68056
21
1.22844
0
LINE
8
BLACK
6
CONTINUOUS
10
1.68056
20
1.22844
11
1.67579
21
1.22291
0
LINE
8
BLACK
6
CONTINUOUS
10
1.67579
20
1.22291
11
1.67004
21
1.21842
0
LINE
8
BLACK
6
CONTINUOUS
10
1.67004
20
1.21842
11
1.66353
21
1.21513
0
LINE
8
BLACK
6
CONTINUOUS
10
1.66353
20
1.21513
11
1.65649
21
1.21317
0
LINE
8
BLACK
6
CONTINUOUS
10
1.65649
20
1.21317
11
1.64922
21
1.21261
0
LINE
8
BLACK
6
CONTINUOUS
10
1.64922
20
1.21261
11
1.64197
21
1.21347
0
LINE
8
BLACK
6
CONTINUOUS
10
1.64197
20
1.21347
11
1.63503
21
1.21573
0
LINE
8
BLACK
6
CONTINUOUS
10
1.63503
20
1.21573
11
1.62865
21
1.21929
0
LINE
8
BLACK
6
CONTINUOUS
10
1.62865
20
1.21929
11
1.6231
21
1.22402
0
LINE
8
BLACK
6
CONTINUOUS
10
1.6231
20
1.22402
11
1.61856
21
1.22974
0
LINE
8
BLACK
6
CONTINUOUS
10
1.61856
20
1.22974
11
1.61522
21
1.23623
0
LINE
8
BLACK
6
CONTINUOUS
10
1.61522
20
1.23623
11
1.61321
21
1.24325
0
LINE
8
BLACK
6
CONTINUOUS
10
1.61321
20
1.24325
11
1.6126
21
1.25052
0
LINE
8
BLACK
6
CONTINUOUS
10
1.6126
20
1.25052
11
1.61342
21
1.25778
0
LINE
8
BLACK
6
CONTINUOUS
10
1.61342
20
1.25778
11
1.61562
21
1.26473
0
LINE
8
BLACK
6
CONTINUOUS
10
1.61562
20
1.26473
11
1.61914
21
1.27113
0
LINE
8
BLACK
6
CONTINUOUS
10
1.61914
20
1.27113
11
1.62383
21
1.27672
0
LINE
8
BLACK
6
CONTINUOUS
10
1.62383
20
1.27672
11
1.62952
21
1.2813
0
LINE
8
BLACK
6
CONTINUOUS
10
1.62952
20
1.2813
11
1.63599
21
1.28468
0
LINE
8
BLACK
6
CONTINUOUS
10
1.63599
20
1.28468
11
1.64299
21
1.28674
0
LINE
8
BLACK
6
CONTINUOUS
10
1.64299
20
1.28674
11
1.65026
21
1.2874
0
LINE
8
BLACK
6
CONTINUOUS
10
1.65026
20
1.2874
11
1.65752
21
1.28664
0
LINE
8
BLACK
6
CONTINUOUS
10
2.04026
20
1.2858
11
2.04465
21
1.28357
0
LINE
8
BLACK
6
CONTINUOUS
10
2.04465
20
1.28357
11
2.04813
21
1.28008
0
LINE
8
BLACK
6
CONTINUOUS
10
2.04813
20
1.28008
11
2.05037
21
1.27569
0
LINE
8
BLACK
6
CONTINUOUS
10
2.05037
20
1.27569
11
2.05114
21
1.27083
0
LINE
8
BLACK
6
CONTINUOUS
10
2.05114
20
1.27083
11
2.05114
21
1.24917
0
LINE
8
BLACK
6
CONTINUOUS
10
2.05114
20
1.24917
11
2.05037
21
1.24431
0
LINE
8
BLACK
6
CONTINUOUS
10
2.05037
20
1.24431
11
2.04813
21
1.23992
0
LINE
8
BLACK
6
CONTINUOUS
10
2.04813
20
1.23992
11
2.04465
21
1.23643
0
LINE
8
BLACK
6
CONTINUOUS
10
2.04465
20
1.23643
11
2.04026
21
1.2342
0
LINE
8
BLACK
6
CONTINUOUS
10
2.04026
20
1.2342
11
2.03539
21
1.23343
0
LINE
8
BLACK
6
CONTINUOUS
10
2.03539
20
1.23343
11
2.01965
21
1.23343
0
LINE
8
BLACK
6
CONTINUOUS
10
2.01965
20
1.23343
11
2.01478
21
1.2342
0
LINE
8
BLACK
6
CONTINUOUS
10
2.01478
20
1.2342
11
2.01039
21
1.23643
0
LINE
8
BLACK
6
CONTINUOUS
10
2.01039
20
1.23643
11
2.00691
21
1.23992
0
LINE
8
BLACK
6
CONTINUOUS
10
2.00691
20
1.23992
11
2.00467
21
1.24431
0
LINE
8
BLACK
6
CONTINUOUS
10
2.00467
20
1.24431
11
2.0039
21
1.24917
0
LINE
8
BLACK
6
CONTINUOUS
10
2.0039
20
1.24917
11
2.0039
21
1.27083
0
LINE
8
BLACK
6
CONTINUOUS
10
2.0039
20
1.27083
11
2.00467
21
1.27569
0
LINE
8
BLACK
6
CONTINUOUS
10
2.00467
20
1.27569
11
2.00691
21
1.28008
0
LINE
8
BLACK
6
CONTINUOUS
10
2.00691
20
1.28008
11
2.01039
21
1.28357
0
LINE
8
BLACK
6
CONTINUOUS
10
2.01039
20
1.28357
11
2.01478
21
1.2858
0
LINE
8
BLACK
6
CONTINUOUS
10
2.01478
20
1.2858
11
2.01965
21
1.28657
0
LINE
8
BLACK
6
CONTINUOUS
10
2.01965
20
1.28657
11
2.03539
21
1.28657
0
LINE
8
BLACK
6
CONTINUOUS
10
2.03539
20
1.28657
11
2.04026
21
1.2858
0
LINE
8
BLACK
6
CONTINUOUS
10
2.10522
20
1.2858
11
2.10961
21
1.28357
0
LINE
8
BLACK
6
CONTINUOUS
10
2.10961
20
1.28357
11
2.11309
21
1.28008
0
LINE
8
BLACK
6
CONTINUOUS
10
2.11309
20
1.28008
11
2.11533
21
1.27569
0
LINE
8
BLACK
6
CONTINUOUS
10
2.11533
20
1.27569
11
2.1161
21
1.27083
0
LINE
8
BLACK
6
CONTINUOUS
10
2.1161
20
1.27083
11
2.1161
21
1.24917
0
LINE
8
BLACK
6
CONTINUOUS
10
2.1161
20
1.24917
11
2.11533
21
1.24431
0
LINE
8
BLACK
6
CONTINUOUS
10
2.11533
20
1.24431
11
2.11309
21
1.23992
0
LINE
8
BLACK
6
CONTINUOUS
10
2.11309
20
1.23992
11
2.10961
21
1.23643
0
LINE
8
BLACK
6
CONTINUOUS
10
2.10961
20
1.23643
11
2.10522
21
1.2342
0
LINE
8
BLACK
6
CONTINUOUS
10
2.10522
20
1.2342
11
2.10035
21
1.23343
0
LINE
8
BLACK
6
CONTINUOUS
10
2.10035
20
1.23343
11
2.08461
21
1.23343
0
LINE
8
BLACK
6
CONTINUOUS
10
2.08461
20
1.23343
11
2.07974
21
1.2342
0
LINE
8
BLACK
6
CONTINUOUS
10
2.07974
20
1.2342
11
2.07535
21
1.23643
0
LINE
8
BLACK
6
CONTINUOUS
10
2.07535
20
1.23643
11
2.07187
21
1.23992
0
LINE
8
BLACK
6
CONTINUOUS
10
2.07187
20
1.23992
11
2.06963
21
1.24431
0
LINE
8
BLACK
6
CONTINUOUS
10
2.06963
20
1.24431
11
2.06886
21
1.24917
0
LINE
8
BLACK
6
CONTINUOUS
10
2.06886
20
1.24917
11
2.06886
21
1.27083
0
LINE
8
BLACK
6
CONTINUOUS
10
2.06886
20
1.27083
11
2.06963
21
1.27569
0
LINE
8
BLACK
6
CONTINUOUS
10
2.06963
20
1.27569
11
2.07187
21
1.28008
0
LINE
8
BLACK
6
CONTINUOUS
10
2.07187
20
1.28008
11
2.07535
21
1.28357
0
LINE
8
BLACK
6
CONTINUOUS
10
2.07535
20
1.28357
11
2.07974
21
1.2858
0
LINE
8
BLACK
6
CONTINUOUS
10
2.07974
20
1.2858
11
2.08461
21
1.28657
0
LINE
8
BLACK
6
CONTINUOUS
10
2.08461
20
1.28657
11
2.10035
21
1.28657
0
LINE
8
BLACK
6
CONTINUOUS
10
2.10035
20
1.28657
11
2.10522
21
1.2858
0
LINE
8
BLACK
6
CONTINUOUS
10
2.19396
20
1.29625
11
2.19651
21
1.29454
0
LINE
8
BLACK
6
CONTINUOUS
10
2.19651
20
1.29454
11
2.19822
21
1.29199
0
LINE
8
BLACK
6
CONTINUOUS
10
2.19822
20
1.29199
11
2.19882
21
1.28898
0
LINE
8
BLACK
6
CONTINUOUS
10
2.19882
20
1.28898
11
2.19882
21
1.24173
0
LINE
8
BLACK
6
CONTINUOUS
10
2.19882
20
1.24173
11
2.19822
21
1.23872
0
LINE
8
BLACK
6
CONTINUOUS
10
2.19822
20
1.23872
11
2.19651
21
1.23616
0
LINE
8
BLACK
6
CONTINUOUS
10
2.19651
20
1.23616
11
2.19396
21
1.23446
0
LINE
8
BLACK
6
CONTINUOUS
10
2.19396
20
1.23446
11
2.19094
21
1.23386
0
LINE
8
BLACK
6
CONTINUOUS
10
2.19094
20
1.23386
11
2.12795
21
1.23386
0
LINE
8
BLACK
6
CONTINUOUS
10
2.12795
20
1.23386
11
2.12494
21
1.23446
0
LINE
8
BLACK
6
CONTINUOUS
10
2.12494
20
1.23446
11
2.12238
21
1.23616
0
LINE
8
BLACK
6
CONTINUOUS
10
2.12238
20
1.23616
11
2.12068
21
1.23872
0
LINE
8
BLACK
6
CONTINUOUS
10
2.12068
20
1.23872
11
2.12008
21
1.24173
0
LINE
8
BLACK
6
CONTINUOUS
10
2.12008
20
1.24173
11
2.12008
21
1.28898
0
LINE
8
BLACK
6
CONTINUOUS
10
2.12008
20
1.28898
11
2.12068
21
1.29199
0
LINE
8
BLACK
6
CONTINUOUS
10
2.12068
20
1.29199
11
2.12238
21
1.29454
0
LINE
8
BLACK
6
CONTINUOUS
10
2.12238
20
1.29454
11
2.12494
21
1.29625
0
LINE
8
BLACK
6
CONTINUOUS
10
2.12494
20
1.29625
11
2.12795
21
1.29685
0
LINE
8
BLACK
6
CONTINUOUS
10
2.12795
20
1.29685
11
2.19094
21
1.29685
0
LINE
8
BLACK
6
CONTINUOUS
10
2.19094
20
1.29685
11
2.19396
21
1.29625
0
LINE
8
BLACK
6
CONTINUOUS
10
0.61234
20
1.38316
11
0.619401
21
1.38098
0
LINE
8
BLACK
6
CONTINUOUS
10
0.619401
20
1.38098
11
0.625903
21
1.37746
0
LINE
8
BLACK
6
CONTINUOUS
10
0.625903
20
1.37746
11
0.631599
21
1.37275
0
LINE
8
BLACK
6
CONTINUOUS
10
0.631599
20
1.37275
11
0.63627
21
1.36702
0
LINE
8
BLACK
6
CONTINUOUS
10
0.63627
20
1.36702
11
0.639741
21
1.3605
0
LINE
8
BLACK
6
CONTINUOUS
10
0.639741
20
1.3605
11
0.641877
21
1.35342
0
LINE
8
BLACK
6
CONTINUOUS
10
0.641877
20
1.35342
11
0.642598
21
1.34606
0
LINE
8
BLACK
6
CONTINUOUS
10
0.642598
20
1.34606
11
0.642584
21
1.34501
0
LINE
8
BLACK
6
CONTINUOUS
10
0.642584
20
1.34501
11
0.641657
21
1.33767
0
LINE
8
BLACK
6
CONTINUOUS
10
0.641657
20
1.33767
11
0.639324
21
1.33066
0
LINE
8
BLACK
6
CONTINUOUS
10
0.639324
20
1.33066
11
0.635673
21
1.32423
0
LINE
8
BLACK
6
CONTINUOUS
10
0.635673
20
1.32423
11
0.630843
21
1.31864
0
LINE
8
BLACK
6
CONTINUOUS
10
0.630843
20
1.31864
11
0.625018
21
1.31408
0
LINE
8
BLACK
6
CONTINUOUS
10
0.625018
20
1.31408
11
0.618421
21
1.31075
0
LINE
8
BLACK
6
CONTINUOUS
10
0.618421
20
1.31075
11
0.611301
21
1.30876
0
LINE
8
BLACK
6
CONTINUOUS
10
0.611301
20
1.30876
11
0.603931
21
1.3082
0
LINE
8
BLACK
6
CONTINUOUS
10
0.603931
20
1.3082
11
0.596592
21
1.30907
0
LINE
8
BLACK
6
CONTINUOUS
10
0.596592
20
1.30907
11
0.589562
21
1.31136
0
LINE
8
BLACK
6
CONTINUOUS
10
0.589562
20
1.31136
11
0.583109
21
1.31496
0
LINE
8
BLACK
6
CONTINUOUS
10
0.583109
20
1.31496
11
0.57748
21
1.31975
0
LINE
8
BLACK
6
CONTINUOUS
10
0.57748
20
1.31975
11
0.572889
21
1.32555
0
LINE
8
BLACK
6
CONTINUOUS
10
0.572889
20
1.32555
11
0.56951
21
1.33212
0
LINE
8
BLACK
6
CONTINUOUS
10
0.56951
20
1.33212
11
0.567473
21
1.33923
0
LINE
8
BLACK
6
CONTINUOUS
10
0.567473
20
1.33923
11
0.566854
21
1.34659
0
LINE
8
BLACK
6
CONTINUOUS
10
0.566854
20
1.34659
11
0.567678
21
1.35394
0
LINE
8
BLACK
6
CONTINUOUS
10
0.567678
20
1.35394
11
0.569913
21
1.36098
0
LINE
8
BLACK
6
CONTINUOUS
10
0.569913
20
1.36098
11
0.573474
21
1.36746
0
LINE
8
BLACK
6
CONTINUOUS
10
0.573474
20
1.36746
11
0.578225
21
1.37312
0
LINE
8
BLACK
6
CONTINUOUS
10
0.578225
20
1.37312
11
0.583986
21
1.37775
0
LINE
8
BLACK
6
CONTINUOUS
10
0.583986
20
1.37775
11
0.590537
21
1.38118
0
LINE
8
BLACK
6
CONTINUOUS
10
0.590537
20
1.38118
11
0.597628
21
1.38327
0
LINE
8
BLACK
6
CONTINUOUS
10
0.597628
20
1.38327
11
0.604989
21
1.38394
0
LINE
8
BLACK
6
CONTINUOUS
10
0.604989
20
1.38394
11
0.61234
21
1.38316
0
LINE
8
BLACK
6
CONTINUOUS
10
0.41549
20
1.38316
11
0.422551
21
1.38098
0
LINE
8
BLACK
6
CONTINUOUS
10
0.422551
20
1.38098
11
0.429053
21
1.37746
0
LINE
8
BLACK
6
CONTINUOUS
10
0.429053
20
1.37746
11
0.434748
21
1.37275
0
LINE
8
BLACK
6
CONTINUOUS
10
0.434748
20
1.37275
11
0.43942
21
1.36702
0
LINE
8
BLACK
6
CONTINUOUS
10
0.43942
20
1.36702
11
0.44289
21
1.3605
0
LINE
8
BLACK
6
CONTINUOUS
10
0.44289
20
1.3605
11
0.445027
21
1.35342
0
LINE
8
BLACK
6
CONTINUOUS
10
0.445027
20
1.35342
11
0.445748
21
1.34606
0
LINE
8
BLACK
6
CONTINUOUS
10
0.445748
20
1.34606
11
0.445733
21
1.34501
0
LINE
8
BLACK
6
CONTINUOUS
10
0.445733
20
1.34501
11
0.444807
21
1.33767
0
LINE
8
BLACK
6
CONTINUOUS
10
0.444807
20
1.33767
11
0.442474
21
1.33066
0
LINE
8
BLACK
6
CONTINUOUS
10
0.442474
20
1.33066
11
0.438823
21
1.32423
0
LINE
8
BLACK
6
CONTINUOUS
10
0.438823
20
1.32423
11
0.433993
21
1.31864
0
LINE
8
BLACK
6
CONTINUOUS
10
0.433993
20
1.31864
11
0.428168
21
1.31408
0
LINE
8
BLACK
6
CONTINUOUS
10
0.428168
20
1.31408
11
0.42157
21
1.31075
0
LINE
8
BLACK
6
CONTINUOUS
10
0.42157
20
1.31075
11
0.414451
21
1.30876
0
LINE
8
BLACK
6
CONTINUOUS
10
0.414451
20
1.30876
11
0.407081
21
1.3082
0
LINE
8
BLACK
6
CONTINUOUS
10
0.407081
20
1.3082
11
0.399741
21
1.30907
0
LINE
8
BLACK
6
CONTINUOUS
10
0.399741
20
1.30907
11
0.392711
21
1.31136
0
LINE
8
BLACK
6
CONTINUOUS
10
0.392711
20
1.31136
11
0.386259
21
1.31496
0
LINE
8
BLACK
6
CONTINUOUS
10
0.386259
20
1.31496
11
0.38063
21
1.31975
0
LINE
8
BLACK
6
CONTINUOUS
10
0.38063
20
1.31975
11
0.376038
21
1.32555
0
LINE
8
BLACK
6
CONTINUOUS
10
0.376038
20
1.32555
11
0.37266
21
1.33212
0
LINE
8
BLACK
6
CONTINUOUS
10
0.37266
20
1.33212
11
0.370622
21
1.33923
0
LINE
8
BLACK
6
CONTINUOUS
10
0.370622
20
1.33923
11
0.370004
21
1.34659
0
LINE
8
BLACK
6
CONTINUOUS
10
0.370004
20
1.34659
11
0.370828
21
1.35394
0
LINE
8
BLACK
6
CONTINUOUS
10
0.370828
20
1.35394
11
0.373063
21
1.36098
0
LINE
8
BLACK
6
CONTINUOUS
10
0.373063
20
1.36098
11
0.376624
21
1.36746
0
LINE
8
BLACK
6
CONTINUOUS
10
0.376624
20
1.36746
11
0.381375
21
1.37312
0
LINE
8
BLACK
6
CONTINUOUS
10
0.381375
20
1.37312
11
0.387136
21
1.37775
0
LINE
8
BLACK
6
CONTINUOUS
10
0.387136
20
1.37775
11
0.393686
21
1.38118
0
LINE
8
BLACK
6
CONTINUOUS
10
0.393686
20
1.38118
11
0.400777
21
1.38327
0
LINE
8
BLACK
6
CONTINUOUS
10
0.400777
20
1.38327
11
0.408138
21
1.38394
0
LINE
8
BLACK
6
CONTINUOUS
10
0.408138
20
1.38394
11
0.41549
21
1.38316
0
LINE
8
BLACK
6
CONTINUOUS
10
2.19396
20
1.39468
11
2.19651
21
1.39297
0
LINE
8
BLACK
6
CONTINUOUS
10
2.19651
20
1.39297
11
2.19822
21
1.39041
0
LINE
8
BLACK
6
CONTINUOUS
10
2.19822
20
1.39041
11
2.19882
21
1.3874
0
LINE
8
BLACK
6
CONTINUOUS
10
2.19882
20
1.3874
11
2.19882
21
1.34016
0
LINE
8
BLACK
6
CONTINUOUS
10
2.19882
20
1.34016
11
2.19822
21
1.33714
0
LINE
8
BLACK
6
CONTINUOUS
10
2.19822
20
1.33714
11
2.19651
21
1.33459
0
LINE
8
BLACK
6
CONTINUOUS
10
2.19651
20
1.33459
11
2.19396
21
1.33288
0
LINE
8
BLACK
6
CONTINUOUS
10
2.19396
20
1.33288
11
2.19094
21
1.33228
0
LINE
8
BLACK
6
CONTINUOUS
10
2.19094
20
1.33228
11
2.12795
21
1.33228
0
LINE
8
BLACK
6
CONTINUOUS
10
2.12795
20
1.33228
11
2.12494
21
1.33288
0
LINE
8
BLACK
6
CONTINUOUS
10
2.12494
20
1.33288
11
2.12238
21
1.33459
0
LINE
8
BLACK
6
CONTINUOUS
10
2.12238
20
1.33459
11
2.12068
21
1.33714
0
LINE
8
BLACK
6
CONTINUOUS
10
2.12068
20
1.33714
11
2.12008
21
1.34016
0
LINE
8
BLACK
6
CONTINUOUS
10
2.12008
20
1.34016
11
2.12008
21
1.3874
0
LINE
8
BLACK
6
CONTINUOUS
10
2.12008
20
1.3874
11
2.12068
21
1.39041
0
LINE
8
BLACK
6
CONTINUOUS
10
2.12068
20
1.39041
11
2.12238
21
1.39297
0
LINE
8
BLACK
6
CONTINUOUS
10
2.12238
20
1.39297
11
2.12494
21
1.39468
0
LINE
8
BLACK
6
CONTINUOUS
10
2.12494
20
1.39468
11
2.12795
21
1.39528
0
LINE
8
BLACK
6
CONTINUOUS
10
2.12795
20
1.39528
11
2.19094
21
1.39528
0
LINE
8
BLACK
6
CONTINUOUS
10
2.19094
20
1.39528
11
2.19396
21
1.39468
0
LINE
8
BLACK
6
CONTINUOUS
10
1.65752
20
1.47876
11
1.66449
21
1.47661
0
LINE
8
BLACK
6
CONTINUOUS
10
1.66449
20
1.47661
11
1.67091
21
1.47313
0
LINE
8
BLACK
6
CONTINUOUS
10
1.67091
20
1.47313
11
1.67654
21
1.46848
0
LINE
8
BLACK
6
CONTINUOUS
10
1.67654
20
1.46848
11
1.68115
21
1.46282
0
LINE
8
BLACK
6
CONTINUOUS
10
1.68115
20
1.46282
11
1.68458
21
1.45638
0
LINE
8
BLACK
6
CONTINUOUS
10
1.68458
20
1.45638
11
1.68669
21
1.44939
0
LINE
8
BLACK
6
CONTINUOUS
10
1.68669
20
1.44939
11
1.6874
21
1.44213
0
LINE
8
BLACK
6
CONTINUOUS
10
1.6874
20
1.44213
11
1.68739
21
1.44108
0
LINE
8
BLACK
6
CONTINUOUS
10
1.68739
20
1.44108
11
1.68647
21
1.43384
0
LINE
8
BLACK
6
CONTINUOUS
10
1.68647
20
1.43384
11
1.68417
21
1.42691
0
LINE
8
BLACK
6
CONTINUOUS
10
1.68417
20
1.42691
11
1.68056
21
1.42057
0
LINE
8
BLACK
6
CONTINUOUS
10
1.68056
20
1.42057
11
1.67579
21
1.41504
0
LINE
8
BLACK
6
CONTINUOUS
10
1.67579
20
1.41504
11
1.67004
21
1.41055
0
LINE
8
BLACK
6
CONTINUOUS
10
1.67004
20
1.41055
11
1.66353
21
1.40726
0
LINE
8
BLACK
6
CONTINUOUS
10
1.66353
20
1.40726
11
1.65649
21
1.40529
0
LINE
8
BLACK
6
CONTINUOUS
10
1.65649
20
1.40529
11
1.64922
21
1.40473
0
LINE
8
BLACK
6
CONTINUOUS
10
1.64922
20
1.40473
11
1.64197
21
1.4056
0
LINE
8
BLACK
6
CONTINUOUS
10
1.64197
20
1.4056
11
1.63503
21
1.40785
0
LINE
8
BLACK
6
CONTINUOUS
10
1.63503
20
1.40785
11
1.62865
21
1.41141
0
LINE
8
BLACK
6
CONTINUOUS
10
1.62865
20
1.41141
11
1.6231
21
1.41614
0
LINE
8
BLACK
6
CONTINUOUS
10
1.6231
20
1.41614
11
1.61856
21
1.42187
0
LINE
8
BLACK
6
CONTINUOUS
10
1.61856
20
1.42187
11
1.61522
21
1.42836
0
LINE
8
BLACK
6
CONTINUOUS
10
1.61522
20
1.42836
11
1.61321
21
1.43537
0
LINE
8
BLACK
6
CONTINUOUS
10
1.61321
20
1.43537
11
1.6126
21
1.44265
0
LINE
8
BLACK
6
CONTINUOUS
10
1.6126
20
1.44265
11
1.61342
21
1.4499
0
LINE
8
BLACK
6
CONTINUOUS
10
1.61342
20
1.4499
11
1.61562
21
1.45686
0
LINE
8
BLACK
6
CONTINUOUS
10
1.61562
20
1.45686
11
1.61914
21
1.46326
0
LINE
8
BLACK
6
CONTINUOUS
10
1.61914
20
1.46326
11
1.62383
21
1.46885
0
LINE
8
BLACK
6
CONTINUOUS
10
1.62383
20
1.46885
11
1.62952
21
1.47342
0
LINE
8
BLACK
6
CONTINUOUS
10
1.62952
20
1.47342
11
1.63599
21
1.4768
0
LINE
8
BLACK
6
CONTINUOUS
10
1.63599
20
1.4768
11
1.64299
21
1.47887
0
LINE
8
BLACK
6
CONTINUOUS
10
1.64299
20
1.47887
11
1.65026
21
1.47953
0
LINE
8
BLACK
6
CONTINUOUS
10
1.65026
20
1.47953
11
1.65752
21
1.47876
0
LINE
8
BLACK
6
CONTINUOUS
10
2.39868
20
1.70905
11
2.40124
21
1.70734
0
LINE
8
BLACK
6
CONTINUOUS
10
2.40124
20
1.70734
11
2.40294
21
1.70478
0
LINE
8
BLACK
6
CONTINUOUS
10
2.40294
20
1.70478
11
2.40354
21
1.70177
0
LINE
8
BLACK
6
CONTINUOUS
10
2.40354
20
1.70177
11
2.40354
21
1.60335
0
LINE
8
BLACK
6
CONTINUOUS
10
2.40354
20
1.60335
11
2.40294
21
1.60033
0
LINE
8
BLACK
6
CONTINUOUS
10
2.40294
20
1.60033
11
2.40124
21
1.59778
0
LINE
8
BLACK
6
CONTINUOUS
10
2.40124
20
1.59778
11
2.39868
21
1.59607
0
LINE
8
BLACK
6
CONTINUOUS
10
2.39868
20
1.59607
11
2.39567
21
1.59547
0
LINE
8
BLACK
6
CONTINUOUS
10
2.39567
20
1.59547
11
2.19882
21
1.59547
0
LINE
8
BLACK
6
CONTINUOUS
10
2.19882
20
1.59547
11
2.19581
21
1.59607
0
LINE
8
BLACK
6
CONTINUOUS
10
2.19581
20
1.59607
11
2.19325
21
1.59778
0
LINE
8
BLACK
6
CONTINUOUS
10
2.19325
20
1.59778
11
2.19154
21
1.60033
0
LINE
8
BLACK
6
CONTINUOUS
10
2.19154
20
1.60033
11
2.19094
21
1.60335
0
LINE
8
BLACK
6
CONTINUOUS
10
2.19094
20
1.60335
11
2.19094
21
1.70177
0
LINE
8
BLACK
6
CONTINUOUS
10
2.19094
20
1.70177
11
2.19154
21
1.70478
0
LINE
8
BLACK
6
CONTINUOUS
10
2.19154
20
1.70478
11
2.19325
21
1.70734
0
LINE
8
BLACK
6
CONTINUOUS
10
2.19325
20
1.70734
11
2.19581
21
1.70905
0
LINE
8
BLACK
6
CONTINUOUS
10
2.19581
20
1.70905
11
2.19882
21
1.70965
0
LINE
8
BLACK
6
CONTINUOUS
10
2.19882
20
1.70965
11
2.39567
21
1.70965
0
LINE
8
BLACK
6
CONTINUOUS
10
2.39567
20
1.70965
11
2.39868
21
1.70905
0
LINE
8
BLACK
6
CONTINUOUS
10
3.35144
20
1.70905
11
3.35399
21
1.70734
0
LINE
8
BLACK
6
CONTINUOUS
10
3.35399
20
1.70734
11
3.3557
21
1.70478
0
LINE
8
BLACK
6
CONTINUOUS
10
3.3557
20
1.70478
11
3.3563
21
1.70177
0
LINE
8
BLACK
6
CONTINUOUS
10
3.3563
20
1.70177
11
3.3563
21
1.60335
0
LINE
8
BLACK
6
CONTINUOUS
10
3.3563
20
1.60335
11
3.3557
21
1.60033
0
LINE
8
BLACK
6
CONTINUOUS
10
3.3557
20
1.60033
11
3.35399
21
1.59778
0
LINE
8
BLACK
6
CONTINUOUS
10
3.35399
20
1.59778
11
3.35144
21
1.59607
0
LINE
8
BLACK
6
CONTINUOUS
10
3.35144
20
1.59607
11
3.34843
21
1.59547
0
LINE
8
BLACK
6
CONTINUOUS
10
3.34843
20
1.59547
11
3.15157
21
1.59547
0
LINE
8
BLACK
6
CONTINUOUS
10
3.15157
20
1.59547
11
3.14856
21
1.59607
0
LINE
8
BLACK
6
CONTINUOUS
10
3.14856
20
1.59607
11
3.14601
21
1.59778
0
LINE
8
BLACK
6
CONTINUOUS
10
3.14601
20
1.59778
11
3.1443
21
1.60033
0
LINE
8
BLACK
6
CONTINUOUS
10
3.1443
20
1.60033
11
3.1437
21
1.60335
0
LINE
8
BLACK
6
CONTINUOUS
10
3.1437
20
1.60335
11
3.1437
21
1.70177
0
LINE
8
BLACK
6
CONTINUOUS
10
3.1437
20
1.70177
11
3.1443
21
1.70478
0
LINE
8
BLACK
6
CONTINUOUS
10
3.1443
20
1.70478
11
3.14601
21
1.70734
0
LINE
8
BLACK
6
CONTINUOUS
10
3.14601
20
1.70734
11
3.14856
21
1.70905
0
LINE
8
BLACK
6
CONTINUOUS
10
3.14856
20
1.70905
11
3.15157
21
1.70965
0
LINE
8
BLACK
6
CONTINUOUS
10
3.15157
20
1.70965
11
3.34843
21
1.70965
0
LINE
8
BLACK
6
CONTINUOUS
10
3.34843
20
1.70965
11
3.35144
21
1.70905
0
LINE
8
BLACK
6
CONTINUOUS
10
0.214917
20
1.9251
11
0.228769
21
1.92266
0
LINE
8
BLACK
6
CONTINUOUS
10
0.228769
20
1.92266
11
0.242262
21
1.91868
0
LINE
8
BLACK
6
CONTINUOUS
10
0.242262
20
1.91868
11
0.255228
21
1.91323
0
LINE
8
BLACK
6
CONTINUOUS
10
0.255228
20
1.91323
11
0.267506
21
1.90637
0
LINE
8
BLACK
6
CONTINUOUS
10
0.267506
20
1.90637
11
0.278942
21
1.89818
0
LINE
8
BLACK
6
CONTINUOUS
10
0.278942
20
1.89818
11
0.289395
21
1.88877
0
LINE
8
BLACK
6
CONTINUOUS
10
0.289395
20
1.88877
11
0.298733
21
1.87825
0
LINE
8
BLACK
6
CONTINUOUS
10
0.298733
20
1.87825
11
0.306841
21
1.86676
0
LINE
8
BLACK
6
CONTINUOUS
10
0.306841
20
1.86676
11
0.313617
21
1.85444
0
LINE
8
BLACK
6
CONTINUOUS
10
0.313617
20
1.85444
11
0.318977
21
1.84143
0
LINE
8
BLACK
6
CONTINUOUS
10
0.318977
20
1.84143
11
0.322853
21
1.82791
0
LINE
8
BLACK
6
CONTINUOUS
10
0.322853
20
1.82791
11
0.325199
21
1.81404
0
LINE
8
BLACK
6
CONTINUOUS
10
0.325199
20
1.81404
11
0.325984
21
1.8
0
LINE
8
BLACK
6
CONTINUOUS
10
0.325984
20
1.8
11
0.325935
21
1.79648
0
LINE
8
BLACK
6
CONTINUOUS
10
0.325935
20
1.79648
11
0.324758
21
1.78247
0
LINE
8
BLACK
6
CONTINUOUS
10
0.324758
20
1.78247
11
0.322026
21
1.76867
0
LINE
8
BLACK
6
CONTINUOUS
10
0.322026
20
1.76867
11
0.317773
21
1.75526
0
LINE
8
BLACK
6
CONTINUOUS
10
0.317773
20
1.75526
11
0.312052
21
1.74241
0
LINE
8
BLACK
6
CONTINUOUS
10
0.312052
20
1.74241
11
0.304935
21
1.73028
0
LINE
8
BLACK
6
CONTINUOUS
10
0.304935
20
1.73028
11
0.29651
21
1.71902
0
LINE
8
BLACK
6
CONTINUOUS
10
0.29651
20
1.71902
11
0.286881
21
1.70877
0
LINE
8
BLACK
6
CONTINUOUS
10
0.286881
20
1.70877
11
0.27617
21
1.69965
0
LINE
8
BLACK
6
CONTINUOUS
10
0.27617
20
1.69965
11
0.264509
21
1.69178
0
LINE
8
BLACK
6
CONTINUOUS
10
0.264509
20
1.69178
11
0.252045
21
1.68527
0
LINE
8
BLACK
6
CONTINUOUS
10
0.252045
20
1.68527
11
0.238931
21
1.68018
0
LINE
8
BLACK
6
CONTINUOUS
10
0.238931
20
1.68018
11
0.225333
21
1.67659
0
LINE
8
BLACK
6
CONTINUOUS
10
0.225333
20
1.67659
11
0.211418
21
1.67453
0
LINE
8
BLACK
6
CONTINUOUS
10
0.211418
20
1.67453
11
0.197362
21
1.67404
0
LINE
8
BLACK
6
CONTINUOUS
10
0.197362
20
1.67404
11
0.183338
21
1.67512
0
LINE
8
BLACK
6
CONTINUOUS
10
0.183338
20
1.67512
11
0.169522
21
1.67776
0
LINE
8
BLACK
6
CONTINUOUS
10
0.169522
20
1.67776
11
0.156085
21
1.68192
0
LINE
8
BLACK
6
CONTINUOUS
10
0.156085
20
1.68192
11
0.143197
21
1.68755
0
LINE
8
BLACK
6
CONTINUOUS
10
0.143197
20
1.68755
11
0.131016
21
1.69458
0
LINE
8
BLACK
6
CONTINUOUS
10
0.131016
20
1.69458
11
0.119695
21
1.70293
0
LINE
8
BLACK
6
CONTINUOUS
10
0.119695
20
1.70293
11
0.109375
21
1.71248
0
LINE
8
BLACK
6
CONTINUOUS
10
0.109375
20
1.71248
11
0.100184
21
1.72313
0
LINE
8
BLACK
6
CONTINUOUS
10
0.100184
20
1.72313
11
0.0922376
21
1.73474
0
LINE
8
BLACK
6
CONTINUOUS
10
0.0922376
20
1.73474
11
0.0856343
21
1.74716
0
LINE
8
BLACK
6
CONTINUOUS
10
0.0856343
20
1.74716
11
0.0804566
21
1.76023
0
LINE
8
BLACK
6
CONTINUOUS
10
0.0804566
20
1.76023
11
0.0767688
21
1.77381
0
LINE
8
BLACK
6
CONTINUOUS
10
0.0767688
20
1.77381
11
0.074617
21
1.78771
0
LINE
8
BLACK
6
CONTINUOUS
10
0.074617
20
1.78771
11
0.074028
21
1.80176
0
LINE
8
BLACK
6
CONTINUOUS
10
0.074028
20
1.80176
11
0.0750092
21
1.81579
0
LINE
8
BLACK
6
CONTINUOUS
10
0.0750092
20
1.81579
11
0.0775482
21
1.82962
0
LINE
8
BLACK
6
CONTINUOUS
10
0.0775482
20
1.82962
11
0.0816135
21
1.84309
0
LINE
8
BLACK
6
CONTINUOUS
10
0.0816135
20
1.84309
11
0.0871544
21
1.85602
0
LINE
8
BLACK
6
CONTINUOUS
10
0.0871544
20
1.85602
11
0.0941019
21
1.86825
0
LINE
8
BLACK
6
CONTINUOUS
10
0.0941019
20
1.86825
11
0.102369
21
1.87963
0
LINE
8
BLACK
6
CONTINUOUS
10
0.102369
20
1.87963
11
0.111853
21
1.89001
0
LINE
8
BLACK
6
CONTINUOUS
10
0.111853
20
1.89001
11
0.122436
21
1.89928
0
LINE
8
BLACK
6
CONTINUOUS
10
0.122436
20
1.89928
11
0.133986
21
1.9073
0
LINE
8
BLACK
6
CONTINUOUS
10
0.133986
20
1.9073
11
0.146359
21
1.91399
0
LINE
8
BLACK
6
CONTINUOUS
10
0.146359
20
1.91399
11
0.1594
21
1.91926
0
LINE
8
BLACK
6
CONTINUOUS
10
0.1594
20
1.91926
11
0.172947
21
1.92305
0
LINE
8
BLACK
6
CONTINUOUS
10
0.172947
20
1.92305
11
0.186831
21
1.92529
0
LINE
8
BLACK
6
CONTINUOUS
10
0.186831
20
1.92529
11
0.20088
21
1.92598
0
LINE
8
BLACK
6
CONTINUOUS
10
0.20088
20
1.92598
11
0.214917
21
1.9251
0
LINE
8
BLACK
6
CONTINUOUS
10
3.01492
20
1.9251
11
3.02877
21
1.92266
0
LINE
8
BLACK
6
CONTINUOUS
10
3.02877
20
1.92266
11
3.04226
21
1.91868
0
LINE
8
BLACK
6
CONTINUOUS
10
3.04226
20
1.91868
11
3.05523
21
1.91323
0
LINE
8
BLACK
6
CONTINUOUS
10
3.05523
20
1.91323
11
3.06751
21
1.90637
0
LINE
8
BLACK
6
CONTINUOUS
10
3.06751
20
1.90637
11
3.07894
21
1.89818
0
LINE
8
BLACK
6
CONTINUOUS
10
3.07894
20
1.89818
11
3.08939
21
1.88877
0
LINE
8
BLACK
6
CONTINUOUS
10
3.08939
20
1.88877
11
3.09873
21
1.87825
0
LINE
8
BLACK
6
CONTINUOUS
10
3.09873
20
1.87825
11
3.10684
21
1.86676
0
LINE
8
BLACK
6
CONTINUOUS
10
3.10684
20
1.86676
11
3.11362
21
1.85444
0
LINE
8
BLACK
6
CONTINUOUS
10
3.11362
20
1.85444
11
3.11898
21
1.84143
0
LINE
8
BLACK
6
CONTINUOUS
10
3.11898
20
1.84143
11
3.12285
21
1.82791
0
LINE
8
BLACK
6
CONTINUOUS
10
3.12285
20
1.82791
11
3.1252
21
1.81404
0
LINE
8
BLACK
6
CONTINUOUS
10
3.1252
20
1.81404
11
3.12598
21
1.8
0
LINE
8
BLACK
6
CONTINUOUS
10
3.12598
20
1.8
11
3.12594
21
1.79648
0
LINE
8
BLACK
6
CONTINUOUS
10
3.12594
20
1.79648
11
3.12476
21
1.78247
0
LINE
8
BLACK
6
CONTINUOUS
10
3.12476
20
1.78247
11
3.12203
21
1.76867
0
LINE
8
BLACK
6
CONTINUOUS
10
3.12203
20
1.76867
11
3.11777
21
1.75526
0
LINE
8
BLACK
6
CONTINUOUS
10
3.11777
20
1.75526
11
3.11205
21
1.74241
0
LINE
8
BLACK
6
CONTINUOUS
10
3.11205
20
1.74241
11
3.10493
21
1.73028
0
LINE
8
BLACK
6
CONTINUOUS
10
3.10493
20
1.73028
11
3.09651
21
1.71902
0
LINE
8
BLACK
6
CONTINUOUS
10
3.09651
20
1.71902
11
3.08688
21
1.70877
0
LINE
8
BLACK
6
CONTINUOUS
10
3.08688
20
1.70877
11
3.07617
21
1.69965
0
LINE
8
BLACK
6
CONTINUOUS
10
3.07617
20
1.69965
11
3.06451
21
1.69178
0
LINE
8
BLACK
6
CONTINUOUS
10
3.06451
20
1.69178
11
3.05204
21
1.68527
0
LINE
8
BLACK
6
CONTINUOUS
10
3.05204
20
1.68527
11
3.03893
21
1.68018
0
LINE
8
BLACK
6
CONTINUOUS
10
3.03893
20
1.68018
11
3.02533
21
1.67659
0
LINE
8
BLACK
6
CONTINUOUS
10
3.02533
20
1.67659
11
3.01142
21
1.67453
0
LINE
8
BLACK
6
CONTINUOUS
10
3.01142
20
1.67453
11
2.99736
21
1.67404
0
LINE
8
BLACK
6
CONTINUOUS
10
2.99736
20
1.67404
11
2.98334
21
1.67512
0
LINE
8
BLACK
6
CONTINUOUS
10
2.98334
20
1.67512
11
2.96952
21
1.67776
0
LINE
8
BLACK
6
CONTINUOUS
10
2.96952
20
1.67776
11
2.95609
21
1.68192
0
LINE
8
BLACK
6
CONTINUOUS
10
2.95609
20
1.68192
11
2.9432
21
1.68755
0
LINE
8
BLACK
6
CONTINUOUS
10
2.9432
20
1.68755
11
2.93102
21
1.69458
0
LINE
8
BLACK
6
CONTINUOUS
10
2.93102
20
1.69458
11
2.91969
21
1.70293
0
LINE
8
BLACK
6
CONTINUOUS
10
2.91969
20
1.70293
11
2.90937
21
1.71248
0
LINE
8
BLACK
6
CONTINUOUS
10
2.90937
20
1.71248
11
2.90018
21
1.72313
0
LINE
8
BLACK
6
CONTINUOUS
10
2.90018
20
1.72313
11
2.89224
21
1.73474
0
LINE
8
BLACK
6
CONTINUOUS
10
2.89224
20
1.73474
11
2.88563
21
1.74716
0
LINE
8
BLACK
6
CONTINUOUS
10
2.88563
20
1.74716
11
2.88046
21
1.76023
0
LINE
8
BLACK
6
CONTINUOUS
10
2.88046
20
1.76023
11
2.87677
21
1.77381
0
LINE
8
BLACK
6
CONTINUOUS
10
2.87677
20
1.77381
11
2.87462
21
1.78771
0
LINE
8
BLACK
6
CONTINUOUS
10
2.87462
20
1.78771
11
2.87403
21
1.80176
0
LINE
8
BLACK
6
CONTINUOUS
10
2.87403
20
1.80176
11
2.87501
21
1.81579
0
LINE
8
BLACK
6
CONTINUOUS
10
2.87501
20
1.81579
11
2.87755
21
1.82962
0
LINE
8
BLACK
6
CONTINUOUS
10
2.87755
20
1.82962
11
2.88161
21
1.84309
0
LINE
8
BLACK
6
CONTINUOUS
10
2.88161
20
1.84309
11
2.88715
21
1.85602
0
LINE
8
BLACK
6
CONTINUOUS
10
2.88715
20
1.85602
11
2.8941
21
1.86825
0
LINE
8
BLACK
6
CONTINUOUS
10
2.8941
20
1.86825
11
2.90237
21
1.87963
0
LINE
8
BLACK
6
CONTINUOUS
10
2.90237
20
1.87963
11
2.91185
21
1.89001
0
LINE
8
BLACK
6
CONTINUOUS
10
2.91185
20
1.89001
11
2.92244
21
1.89928
0
LINE
8
BLACK
6
CONTINUOUS
10
2.92244
20
1.89928
11
2.93399
21
1.9073
0
LINE
8
BLACK
6
CONTINUOUS
10
2.93399
20
1.9073
11
2.94636
21
1.91399
0
LINE
8
BLACK
6
CONTINUOUS
10
2.94636
20
1.91399
11
2.9594
21
1.91926
0
LINE
8
BLACK
6
CONTINUOUS
10
2.9594
20
1.91926
11
2.97295
21
1.92305
0
LINE
8
BLACK
6
CONTINUOUS
10
2.97295
20
1.92305
11
2.98683
21
1.92529
0
LINE
8
BLACK
6
CONTINUOUS
10
2.98683
20
1.92529
11
3.00088
21
1.92598
0
LINE
8
BLACK
6
CONTINUOUS
10
3.00088
20
1.92598
11
3.01492
21
1.9251
0
LINE
8
BLACK
6
CONTINUOUS
10
1.95309
20
1.89727
11
1.95565
21
1.89557
0
LINE
8
BLACK
6
CONTINUOUS
10
1.95565
20
1.89557
11
1.95735
21
1.89301
0
LINE
8
BLACK
6
CONTINUOUS
10
1.95735
20
1.89301
11
1.95795
21
1.89
0
LINE
8
BLACK
6
CONTINUOUS
10
1.95795
20
1.89
11
1.95795
21
1.69
0
LINE
8
BLACK
6
CONTINUOUS
10
1.95795
20
1.69
11
1.95735
21
1.68699
0
LINE
8
BLACK
6
CONTINUOUS
10
1.95735
20
1.68699
11
1.95565
21
1.68443
0
LINE
8
BLACK
6
CONTINUOUS
10
1.95565
20
1.68443
11
1.95309
21
1.68273
0
LINE
8
BLACK
6
CONTINUOUS
10
1.95309
20
1.68273
11
1.95008
21
1.68213
0
LINE
8
BLACK
6
CONTINUOUS
10
1.95008
20
1.68213
11
1.88
21
1.68213
0
LINE
8
BLACK
6
CONTINUOUS
10
1.88
20
1.68213
11
1.87699
21
1.68273
0
LINE
8
BLACK
6
CONTINUOUS
10
1.87699
20
1.68273
11
1.87443
21
1.68443
0
LINE
8
BLACK
6
CONTINUOUS
10
1.87443
20
1.68443
11
1.87273
21
1.68699
0
LINE
8
BLACK
6
CONTINUOUS
10
1.87273
20
1.68699
11
1.87213
21
1.69
0
LINE
8
BLACK
6
CONTINUOUS
10
1.87213
20
1.69
11
1.87213
21
1.89
0
LINE
8
BLACK
6
CONTINUOUS
10
1.87213
20
1.89
11
1.87273
21
1.89301
0
LINE
8
BLACK
6
CONTINUOUS
10
1.87273
20
1.89301
11
1.87443
21
1.89557
0
LINE
8
BLACK
6
CONTINUOUS
10
1.87443
20
1.89557
11
1.87699
21
1.89727
0
LINE
8
BLACK
6
CONTINUOUS
10
1.87699
20
1.89727
11
1.88
21
1.89787
0
LINE
8
BLACK
6
CONTINUOUS
10
1.88
20
1.89787
11
1.95008
21
1.89787
0
LINE
8
BLACK
6
CONTINUOUS
10
1.95008
20
1.89787
11
1.95309
21
1.89727
0
LINE
8
BLACK
6
CONTINUOUS
10
1.58301
20
1.89727
11
1.58557
21
1.89557
0
LINE
8
BLACK
6
CONTINUOUS
10
1.58557
20
1.89557
11
1.58727
21
1.89301
0
LINE
8
BLACK
6
CONTINUOUS
10
1.58727
20
1.89301
11
1.58787
21
1.89
0
LINE
8
BLACK
6
CONTINUOUS
10
1.58787
20
1.89
11
1.58787
21
1.69
0
LINE
8
BLACK
6
CONTINUOUS
10
1.58787
20
1.69
11
1.58727
21
1.68699
0
LINE
8
BLACK
6
CONTINUOUS
10
1.58727
20
1.68699
11
1.58557
21
1.68443
0
LINE
8
BLACK
6
CONTINUOUS
10
1.58557
20
1.68443
11
1.58301
21
1.68273
0
LINE
8
BLACK
6
CONTINUOUS
10
1.58301
20
1.68273
11
1.58
21
1.68213
0
LINE
8
BLACK
6
CONTINUOUS
10
1.58
20
1.68213
11
1.50992
21
1.68213
0
LINE
8
BLACK
6
CONTINUOUS
10
1.50992
20
1.68213
11
1.50691
21
1.68273
0
LINE
8
BLACK
6
CONTINUOUS
10
1.50691
20
1.68273
11
1.50435
21
1.68443
0
LINE
8
BLACK
6
CONTINUOUS
10
1.50435
20
1.68443
11
1.50265
21
1.68699
0
LINE
8
BLACK
6
CONTINUOUS
10
1.50265
20
1.68699
11
1.50205
21
1.69
0
LINE
8
BLACK
6
CONTINUOUS
10
1.50205
20
1.69
11
1.50205
21
1.89
0
LINE
8
BLACK
6
CONTINUOUS
10
1.50205
20
1.89
11
1.50265
21
1.89301
0
LINE
8
BLACK
6
CONTINUOUS
10
1.50265
20
1.89301
11
1.50435
21
1.89557
0
LINE
8
BLACK
6
CONTINUOUS
10
1.50435
20
1.89557
11
1.50691
21
1.89727
0
LINE
8
BLACK
6
CONTINUOUS
10
1.50691
20
1.89727
11
1.50992
21
1.89787
0
LINE
8
BLACK
6
CONTINUOUS
10
1.50992
20
1.89787
11
1.58
21
1.89787
0
LINE
8
BLACK
6
CONTINUOUS
10
1.58
20
1.89787
11
1.58301
21
1.89727
0
LINE
8
BLACK
6
CONTINUOUS
10
1.81097
20
1.87523
11
1.81352
21
1.87352
0
LINE
8
BLACK
6
CONTINUOUS
10
1.81352
20
1.87352
11
1.81523
21
1.87097
0
LINE
8
BLACK
6
CONTINUOUS
10
1.81523
20
1.87097
11
1.81583
21
1.86795
0
LINE
8
BLACK
6
CONTINUOUS
10
1.81583
20
1.86795
11
1.81583
21
1.71205
0
LINE
8
BLACK
6
CONTINUOUS
10
1.81583
20
1.71205
11
1.81523
21
1.70903
0
LINE
8
BLACK
6
CONTINUOUS
10
1.81523
20
1.70903
11
1.81352
21
1.70648
0
LINE
8
BLACK
6
CONTINUOUS
10
1.81352
20
1.70648
11
1.81097
21
1.70477
0
LINE
8
BLACK
6
CONTINUOUS
10
1.81097
20
1.70477
11
1.80795
21
1.70417
0
LINE
8
BLACK
6
CONTINUOUS
10
1.80795
20
1.70417
11
1.65205
21
1.70417
0
LINE
8
BLACK
6
CONTINUOUS
10
1.65205
20
1.70417
11
1.64903
21
1.70477
0
LINE
8
BLACK
6
CONTINUOUS
10
1.64903
20
1.70477
11
1.64648
21
1.70648
0
LINE
8
BLACK
6
CONTINUOUS
10
1.64648
20
1.70648
11
1.64477
21
1.70903
0
LINE
8
BLACK
6
CONTINUOUS
10
1.64477
20
1.70903
11
1.64417
21
1.71205
0
LINE
8
BLACK
6
CONTINUOUS
10
1.64417
20
1.71205
11
1.64417
21
1.86795
0
LINE
8
BLACK
6
CONTINUOUS
10
1.64417
20
1.86795
11
1.64477
21
1.87097
0
LINE
8
BLACK
6
CONTINUOUS
10
1.64477
20
1.87097
11
1.64648
21
1.87352
0
LINE
8
BLACK
6
CONTINUOUS
10
1.64648
20
1.87352
11
1.64903
21
1.87523
0
LINE
8
BLACK
6
CONTINUOUS
10
1.64903
20
1.87523
11
1.65205
21
1.87583
0
LINE
8
BLACK
6
CONTINUOUS
10
1.65205
20
1.87583
11
1.80795
21
1.87583
0
LINE
8
BLACK
6
CONTINUOUS
10
1.80795
20
1.87583
11
1.81097
21
1.87523
0
LINE
8
BLACK
6
CONTINUOUS
10
2.75446
20
1.77705
11
2.75943
21
1.7753
0
LINE
8
BLACK
6
CONTINUOUS
10
2.75943
20
1.7753
11
2.76367
21
1.77217
0
LINE
8
BLACK
6
CONTINUOUS
10
2.76367
20
1.77217
11
2.7668
21
1.76794
0
LINE
8
BLACK
6
CONTINUOUS
10
2.7668
20
1.76794
11
2.76854
21
1.76297
0
LINE
8
BLACK
6
CONTINUOUS
10
2.76854
20
1.76297
11
2.76886
21
1.75965
0
LINE
8
BLACK
6
CONTINUOUS
10
2.76886
20
1.75965
11
2.76886
21
1.73012
0
LINE
8
BLACK
6
CONTINUOUS
10
2.76886
20
1.73012
11
2.76854
21
1.7268
0
LINE
8
BLACK
6
CONTINUOUS
10
2.76854
20
1.7268
11
2.7668
21
1.72183
0
LINE
8
BLACK
6
CONTINUOUS
10
2.7668
20
1.72183
11
2.76367
21
1.71759
0
LINE
8
BLACK
6
CONTINUOUS
10
2.76367
20
1.71759
11
2.75943
21
1.71446
0
LINE
8
BLACK
6
CONTINUOUS
10
2.75943
20
1.71446
11
2.75446
21
1.71272
0
LINE
8
BLACK
6
CONTINUOUS
10
2.75446
20
1.71272
11
2.75114
21
1.7124
0
LINE
8
BLACK
6
CONTINUOUS
10
2.75114
20
1.7124
11
2.70193
21
1.7124
0
LINE
8
BLACK
6
CONTINUOUS
10
2.70193
20
1.7124
11
2.69861
21
1.71272
0
LINE
8
BLACK
6
CONTINUOUS
10
2.69861
20
1.71272
11
2.69364
21
1.71446
0
LINE
8
BLACK
6
CONTINUOUS
10
2.69364
20
1.71446
11
2.6894
21
1.71759
0
LINE
8
BLACK
6
CONTINUOUS
10
2.6894
20
1.71759
11
2.68627
21
1.72183
0
LINE
8
BLACK
6
CONTINUOUS
10
2.68627
20
1.72183
11
2.68453
21
1.7268
0
LINE
8
BLACK
6
CONTINUOUS
10
2.68453
20
1.7268
11
2.68421
21
1.73012
0
LINE
8
BLACK
6
CONTINUOUS
10
2.68421
20
1.73012
11
2.68421
21
1.75965
0
LINE
8
BLACK
6
CONTINUOUS
10
2.68421
20
1.75965
11
2.68453
21
1.76297
0
LINE
8
BLACK
6
CONTINUOUS
10
2.68453
20
1.76297
11
2.68627
21
1.76794
0
LINE
8
BLACK
6
CONTINUOUS
10
2.68627
20
1.76794
11
2.6894
21
1.77217
0
LINE
8
BLACK
6
CONTINUOUS
10
2.6894
20
1.77217
11
2.69364
21
1.7753
0
LINE
8
BLACK
6
CONTINUOUS
10
2.69364
20
1.7753
11
2.69861
21
1.77705
0
LINE
8
BLACK
6
CONTINUOUS
10
2.69861
20
1.77705
11
2.70193
21
1.77736
0
LINE
8
BLACK
6
CONTINUOUS
10
2.70193
20
1.77736
11
2.75114
21
1.77736
0
LINE
8
BLACK
6
CONTINUOUS
10
2.75114
20
1.77736
11
2.75446
21
1.77705
0
LINE
8
BLACK
6
CONTINUOUS
10
2.36301
20
1.83727
11
2.36557
21
1.83557
0
LINE
8
BLACK
6
CONTINUOUS
10
2.36557
20
1.83557
11
2.36727
21
1.83301
0
LINE
8
BLACK
6
CONTINUOUS
10
2.36727
20
1.83301
11
2.36787
21
1.83
0
LINE
8
BLACK
6
CONTINUOUS
10
2.36787
20
1.83
11
2.36787
21
1.77
0
LINE
8
BLACK
6
CONTINUOUS
10
2.36787
20
1.77
11
2.36727
21
1.76699
0
LINE
8
BLACK
6
CONTINUOUS
10
2.36727
20
1.76699
11
2.36557
21
1.76443
0
LINE
8
BLACK
6
CONTINUOUS
10
2.36557
20
1.76443
11
2.36301
21
1.76273
0
LINE
8
BLACK
6
CONTINUOUS
10
2.36301
20
1.76273
11
2.36
21
1.76213
0
LINE
8
BLACK
6
CONTINUOUS
10
2.36
20
1.76213
11
2.3
21
1.76213
0
LINE
8
BLACK
6
CONTINUOUS
10
2.3
20
1.76213
11
2.29699
21
1.76273
0
LINE
8
BLACK
6
CONTINUOUS
10
2.29699
20
1.76273
11
2.29443
21
1.76443
0
LINE
8
BLACK
6
CONTINUOUS
10
2.29443
20
1.76443
11
2.29273
21
1.76699
0
LINE
8
BLACK
6
CONTINUOUS
10
2.29273
20
1.76699
11
2.29213
21
1.77
0
LINE
8
BLACK
6
CONTINUOUS
10
2.29213
20
1.77
11
2.29213
21
1.83
0
LINE
8
BLACK
6
CONTINUOUS
10
2.29213
20
1.83
11
2.29273
21
1.83301
0
LINE
8
BLACK
6
CONTINUOUS
10
2.29273
20
1.83301
11
2.29443
21
1.83557
0
LINE
8
BLACK
6
CONTINUOUS
10
2.29443
20
1.83557
11
2.29699
21
1.83727
0
LINE
8
BLACK
6
CONTINUOUS
10
2.29699
20
1.83727
11
2.3
21
1.83787
0
LINE
8
BLACK
6
CONTINUOUS
10
2.3
20
1.83787
11
2.36
21
1.83787
0
LINE
8
BLACK
6
CONTINUOUS
10
2.36
20
1.83787
11
2.36301
21
1.83727
0
LINE
8
BLACK
6
CONTINUOUS
10
2.46301
20
1.83727
11
2.46557
21
1.83557
0
LINE
8
BLACK
6
CONTINUOUS
10
2.46557
20
1.83557
11
2.46727
21
1.83301
0
LINE
8
BLACK
6
CONTINUOUS
10
2.46727
20
1.83301
11
2.46787
21
1.83
0
LINE
8
BLACK
6
CONTINUOUS
10
2.46787
20
1.83
11
2.46787
21
1.77
0
LINE
8
BLACK
6
CONTINUOUS
10
2.46787
20
1.77
11
2.46727
21
1.76699
0
LINE
8
BLACK
6
CONTINUOUS
10
2.46727
20
1.76699
11
2.46557
21
1.76443
0
LINE
8
BLACK
6
CONTINUOUS
10
2.46557
20
1.76443
11
2.46301
21
1.76273
0
LINE
8
BLACK
6
CONTINUOUS
10
2.46301
20
1.76273
11
2.46
21
1.76213
0
LINE
8
BLACK
6
CONTINUOUS
10
2.46
20
1.76213
11
2.4
21
1.76213
0
LINE
8
BLACK
6
CONTINUOUS
10
2.4
20
1.76213
11
2.39699
21
1.76273
0
LINE
8
BLACK
6
CONTINUOUS
10
2.39699
20
1.76273
11
2.39443
21
1.76443
0
LINE
8
BLACK
6
CONTINUOUS
10
2.39443
20
1.76443
11
2.39273
21
1.76699
0
LINE
8
BLACK
6
CONTINUOUS
10
2.39273
20
1.76699
11
2.39213
21
1.77
0
LINE
8
BLACK
6
CONTINUOUS
10
2.39213
20
1.77
11
2.39213
21
1.83
0
LINE
8
BLACK
6
CONTINUOUS
10
2.39213
20
1.83
11
2.39273
21
1.83301
0
LINE
8
BLACK
6
CONTINUOUS
10
2.39273
20
1.83301
11
2.39443
21
1.83557
0
LINE
8
BLACK
6
CONTINUOUS
10
2.39443
20
1.83557
11
2.39699
21
1.83727
0
LINE
8
BLACK
6
CONTINUOUS
10
2.39699
20
1.83727
11
2.4
21
1.83787
0
LINE
8
BLACK
6
CONTINUOUS
10
2.4
20
1.83787
11
2.46
21
1.83787
0
LINE
8
BLACK
6
CONTINUOUS
10
2.46
20
1.83787
11
2.46301
21
1.83727
0
LINE
8
BLACK
6
CONTINUOUS
10
2.75446
20
1.88728
11
2.75943
21
1.88554
0
LINE
8
BLACK
6
CONTINUOUS
10
2.75943
20
1.88554
11
2.76367
21
1.88241
0
LINE
8
BLACK
6
CONTINUOUS
10
2.76367
20
1.88241
11
2.7668
21
1.87817
0
LINE
8
BLACK
6
CONTINUOUS
10
2.7668
20
1.87817
11
2.76854
21
1.8732
0
LINE
8
BLACK
6
CONTINUOUS
10
2.76854
20
1.8732
11
2.76886
21
1.86988
0
LINE
8
BLACK
6
CONTINUOUS
10
2.76886
20
1.86988
11
2.76886
21
1.84035
0
LINE
8
BLACK
6
CONTINUOUS
10
2.76886
20
1.84035
11
2.76854
21
1.83703
0
LINE
8
BLACK
6
CONTINUOUS
10
2.76854
20
1.83703
11
2.7668
21
1.83206
0
LINE
8
BLACK
6
CONTINUOUS
10
2.7668
20
1.83206
11
2.76367
21
1.82783
0
LINE
8
BLACK
6
CONTINUOUS
10
2.76367
20
1.82783
11
2.75943
21
1.8247
0
LINE
8
BLACK
6
CONTINUOUS
10
2.75943
20
1.8247
11
2.75446
21
1.82295
0
LINE
8
BLACK
6
CONTINUOUS
10
2.75446
20
1.82295
11
2.75114
21
1.82264
0
LINE
8
BLACK
6
CONTINUOUS
10
2.75114
20
1.82264
11
2.70193
21
1.82264
0
LINE
8
BLACK
6
CONTINUOUS
10
2.70193
20
1.82264
11
2.69861
21
1.82295
0
LINE
8
BLACK
6
CONTINUOUS
10
2.69861
20
1.82295
11
2.69364
21
1.8247
0
LINE
8
BLACK
6
CONTINUOUS
10
2.69364
20
1.8247
11
2.6894
21
1.82783
0
LINE
8
BLACK
6
CONTINUOUS
10
2.6894
20
1.82783
11
2.68627
21
1.83206
0
LINE
8
BLACK
6
CONTINUOUS
10
2.68627
20
1.83206
11
2.68453
21
1.83703
0
LINE
8
BLACK
6
CONTINUOUS
10
2.68453
20
1.83703
11
2.68421
21
1.84035
0
LINE
8
BLACK
6
CONTINUOUS
10
2.68421
20
1.84035
11
2.68421
21
1.86988
0
LINE
8
BLACK
6
CONTINUOUS
10
2.68421
20
1.86988
11
2.68453
21
1.8732
0
LINE
8
BLACK
6
CONTINUOUS
10
2.68453
20
1.8732
11
2.68627
21
1.87817
0
LINE
8
BLACK
6
CONTINUOUS
10
2.68627
20
1.87817
11
2.6894
21
1.88241
0
LINE
8
BLACK
6
CONTINUOUS
10
2.6894
20
1.88241
11
2.69364
21
1.88554
0
LINE
8
BLACK
6
CONTINUOUS
10
2.69364
20
1.88554
11
2.69861
21
1.88728
0
LINE
8
BLACK
6
CONTINUOUS
10
2.69861
20
1.88728
11
2.70193
21
1.8876
0
LINE
8
BLACK
6
CONTINUOUS
10
2.70193
20
1.8876
11
2.75114
21
1.8876
0
LINE
8
BLACK
6
CONTINUOUS
10
2.75114
20
1.8876
11
2.75446
21
1.88728
  0
ENDSEC
  0
EOF
