  0
SECTION
  2
HEADER
  9
$ANGBASE
  50
0.0
  9
$ANGDIR
  70
1
  9
$MEASUREMENT
  70
0
  0
ENDSEC
  0
SECTION
  2
TABLES
  0
TABLE
  2
LTYPE
  70
4
  0
LTYPE
  5
40F
  2
CONTINUOUS
  70
0
  3
Solid line
  72
65
  73
0
  40
0.0
  0
LTYPE
  5
410
  2
DASHDOT
 70
0
  3
Dash Dot ____ _ ____ _
 72
65
 73
4
 40
2.0
 49
1.25
 49
-0.25
 49
0.25
 49
-0.25
  0
LTYPE
  5
411
  2
DASHED
 70
0
  3
Dashed __ __ __ __ __
 72
65
 73
2
 40
0.75
 49
0.5
 49
-0.25
  0
LTYPE
  5
43B
  2
DOTTED
 70
0
  3
Dotted .  .  .  .
 72
65
 73
2
 40
0.2
 49
0.0
 49
-0.2
  0
ENDTAB
  0
TABLE
  2
STYLE
  70
4
  0
STYLE
  2
KICAD
  70
0
  40
0
  41
1
  42
1
  50
0
  71
0
  3
isocp.shx
  0
STYLE
  2
KICADB
  70
0
  40
0
  41
1
  42
1
  50
0
  71
0
  3
isocp.shx
  0
STYLE
  2
KICADI
  70
0
  40
0
  41
1
  42
1
  50
15
  71
0
  3
isocp.shx
  0
STYLE
  2
KICADBI
  70
0
  40
0
  41
1
  42
1
  50
15
  71
0
  3
isocp.shx
  0
ENDTAB
  0
TABLE
  2
LAYER
  70
1
  0
LAYER
  2
BLACK
  70
0
  62
7
  6
CONTINUOUS
  0
ENDTAB
  0
ENDSEC
  0
SECTION
  2
ENTITIES
0
LINE
8
BLACK
6
CONTINUOUS
10
2.88134
20
0.372717
11
2.73173
21
0.372717
0
LINE
8
BLACK
6
CONTINUOUS
10
2.73173
20
0.372717
11
2.73173
21
0.412087
0
LINE
8
BLACK
6
CONTINUOUS
10
2.73173
20
0.412087
11
2.88134
21
0.412087
0
LINE
8
BLACK
6
CONTINUOUS
10
2.88134
20
0.412087
11
2.88134
21
0.372717
0
LINE
8
BLACK
6
CONTINUOUS
10
3.57031
20
0.372717
11
3.44039
21
0.372717
0
LINE
8
BLACK
6
CONTINUOUS
10
3.44039
20
0.372717
11
3.44039
21
0.47311
0
LINE
8
BLACK
6
CONTINUOUS
10
3.44039
20
0.47311
11
3.57031
21
0.47311
0
LINE
8
BLACK
6
CONTINUOUS
10
3.57031
20
0.47311
11
3.57031
21
0.372717
0
LINE
8
BLACK
6
CONTINUOUS
10
1.93646
20
0.372717
11
1.80654
21
0.372717
0
LINE
8
BLACK
6
CONTINUOUS
10
1.80654
20
0.372717
11
1.80654
21
0.47311
0
LINE
8
BLACK
6
CONTINUOUS
10
1.80654
20
0.47311
11
1.93646
21
0.47311
0
LINE
8
BLACK
6
CONTINUOUS
10
1.93646
20
0.47311
11
1.93646
21
0.372717
0
LINE
8
BLACK
6
CONTINUOUS
10
2.4089
20
0.372717
11
2.25929
21
0.372717
0
LINE
8
BLACK
6
CONTINUOUS
10
2.25929
20
0.372717
11
2.25929
21
0.412087
0
LINE
8
BLACK
6
CONTINUOUS
10
2.25929
20
0.412087
11
2.4089
21
0.412087
0
LINE
8
BLACK
6
CONTINUOUS
10
2.4089
20
0.412087
11
2.4089
21
0.372717
0
LINE
8
BLACK
6
CONTINUOUS
10
3.11756
20
0.372717
11
2.96795
21
0.372717
0
LINE
8
BLACK
6
CONTINUOUS
10
2.96795
20
0.372717
11
2.96795
21
0.412087
0
LINE
8
BLACK
6
CONTINUOUS
10
2.96795
20
0.412087
11
3.11756
21
0.412087
0
LINE
8
BLACK
6
CONTINUOUS
10
3.11756
20
0.412087
11
3.11756
21
0.372717
0
LINE
8
BLACK
6
CONTINUOUS
10
2.17268
20
0.372717
11
2.02307
21
0.372717
0
LINE
8
BLACK
6
CONTINUOUS
10
2.02307
20
0.372717
11
2.02307
21
0.412087
0
LINE
8
BLACK
6
CONTINUOUS
10
2.02307
20
0.412087
11
2.17268
21
0.412087
0
LINE
8
BLACK
6
CONTINUOUS
10
2.17268
20
0.412087
11
2.17268
21
0.372717
0
LINE
8
BLACK
6
CONTINUOUS
10
3.35378
20
0.372717
11
3.20417
21
0.372717
0
LINE
8
BLACK
6
CONTINUOUS
10
3.20417
20
0.372717
11
3.20417
21
0.412087
0
LINE
8
BLACK
6
CONTINUOUS
10
3.20417
20
0.412087
11
3.35378
21
0.412087
0
LINE
8
BLACK
6
CONTINUOUS
10
3.35378
20
0.412087
11
3.35378
21
0.372717
0
LINE
8
BLACK
6
CONTINUOUS
10
2.64512
20
0.372717
11
2.49551
21
0.372717
0
LINE
8
BLACK
6
CONTINUOUS
10
2.49551
20
0.372717
11
2.49551
21
0.412087
0
LINE
8
BLACK
6
CONTINUOUS
10
2.49551
20
0.412087
11
2.64512
21
0.412087
0
LINE
8
BLACK
6
CONTINUOUS
10
2.64512
20
0.412087
11
2.64512
21
0.372717
0
LINE
8
BLACK
6
CONTINUOUS
10
0.140118
20
0.375118
11
0.0101969
21
0.375118
0
LINE
8
BLACK
6
CONTINUOUS
10
0.0101969
20
0.375118
11
0.0101969
21
0.475512
0
LINE
8
BLACK
6
CONTINUOUS
10
0.0101969
20
0.475512
11
0.140118
21
0.475512
0
LINE
8
BLACK
6
CONTINUOUS
10
0.140118
20
0.475512
11
0.140118
21
0.375118
0
LINE
8
BLACK
6
CONTINUOUS
10
1.085
20
0.375118
11
0.935394
21
0.375118
0
LINE
8
BLACK
6
CONTINUOUS
10
0.935394
20
0.375118
11
0.935394
21
0.414488
0
LINE
8
BLACK
6
CONTINUOUS
10
0.935394
20
0.414488
11
1.085
21
0.414488
0
LINE
8
BLACK
6
CONTINUOUS
10
1.085
20
0.414488
11
1.085
21
0.375118
0
LINE
8
BLACK
6
CONTINUOUS
10
0.376339
20
0.375118
11
0.226732
21
0.375118
0
LINE
8
BLACK
6
CONTINUOUS
10
0.226732
20
0.375118
11
0.226732
21
0.414488
0
LINE
8
BLACK
6
CONTINUOUS
10
0.226732
20
0.414488
11
0.376339
21
0.414488
0
LINE
8
BLACK
6
CONTINUOUS
10
0.376339
20
0.414488
11
0.376339
21
0.375118
0
LINE
8
BLACK
6
CONTINUOUS
10
1.77398
20
0.375118
11
1.64406
21
0.375118
0
LINE
8
BLACK
6
CONTINUOUS
10
1.64406
20
0.375118
11
1.64406
21
0.475512
0
LINE
8
BLACK
6
CONTINUOUS
10
1.64406
20
0.475512
11
1.77398
21
0.475512
0
LINE
8
BLACK
6
CONTINUOUS
10
1.77398
20
0.475512
11
1.77398
21
0.375118
0
LINE
8
BLACK
6
CONTINUOUS
10
0.84878
20
0.375118
11
0.699173
21
0.375118
0
LINE
8
BLACK
6
CONTINUOUS
10
0.699173
20
0.375118
11
0.699173
21
0.414488
0
LINE
8
BLACK
6
CONTINUOUS
10
0.699173
20
0.414488
11
0.84878
21
0.414488
0
LINE
8
BLACK
6
CONTINUOUS
10
0.84878
20
0.414488
11
0.84878
21
0.375118
0
LINE
8
BLACK
6
CONTINUOUS
10
1.32122
20
0.375118
11
1.17161
21
0.375118
0
LINE
8
BLACK
6
CONTINUOUS
10
1.17161
20
0.375118
11
1.17161
21
0.414488
0
LINE
8
BLACK
6
CONTINUOUS
10
1.17161
20
0.414488
11
1.32122
21
0.414488
0
LINE
8
BLACK
6
CONTINUOUS
10
1.32122
20
0.414488
11
1.32122
21
0.375118
0
LINE
8
BLACK
6
CONTINUOUS
10
0.612559
20
0.375118
11
0.462953
21
0.375118
0
LINE
8
BLACK
6
CONTINUOUS
10
0.462953
20
0.375118
11
0.462953
21
0.414488
0
LINE
8
BLACK
6
CONTINUOUS
10
0.462953
20
0.414488
11
0.612559
21
0.414488
0
LINE
8
BLACK
6
CONTINUOUS
10
0.612559
20
0.414488
11
0.612559
21
0.375118
0
LINE
8
BLACK
6
CONTINUOUS
10
1.55744
20
0.375118
11
1.40783
21
0.375118
0
LINE
8
BLACK
6
CONTINUOUS
10
1.40783
20
0.375118
11
1.40783
21
0.414488
0
LINE
8
BLACK
6
CONTINUOUS
10
1.40783
20
0.414488
11
1.55744
21
0.414488
0
LINE
8
BLACK
6
CONTINUOUS
10
1.55744
20
0.414488
11
1.55744
21
0.375118
0
LINE
8
BLACK
6
CONTINUOUS
10
2.97031
20
0.433661
11
2.94276
21
0.433661
0
LINE
8
BLACK
6
CONTINUOUS
10
2.94276
20
0.433661
11
2.94276
21
0.551772
0
LINE
8
BLACK
6
CONTINUOUS
10
2.94276
20
0.551772
11
2.97031
21
0.551772
0
LINE
8
BLACK
6
CONTINUOUS
10
2.97031
20
0.551772
11
2.97031
21
0.433661
0
LINE
8
BLACK
6
CONTINUOUS
10
3.12404
20
0.447717
11
3.06904
21
0.447717
0
LINE
8
BLACK
6
CONTINUOUS
10
3.06904
20
0.447717
11
3.06904
21
0.482717
0
LINE
8
BLACK
6
CONTINUOUS
10
3.06904
20
0.482717
11
3.12404
21
0.482717
0
LINE
8
BLACK
6
CONTINUOUS
10
3.12404
20
0.482717
11
3.12404
21
0.447717
0
LINE
8
BLACK
6
CONTINUOUS
10
3.35992
20
0.449252
11
3.30874
21
0.449252
0
LINE
8
BLACK
6
CONTINUOUS
10
3.30874
20
0.449252
11
3.30874
21
0.516181
0
LINE
8
BLACK
6
CONTINUOUS
10
3.30874
20
0.516181
11
3.35992
21
0.516181
0
LINE
8
BLACK
6
CONTINUOUS
10
3.35992
20
0.516181
11
3.35992
21
0.449252
0
LINE
8
BLACK
6
CONTINUOUS
10
3.22213
20
0.449252
11
3.17094
21
0.449252
0
LINE
8
BLACK
6
CONTINUOUS
10
3.17094
20
0.449252
11
3.17094
21
0.516181
0
LINE
8
BLACK
6
CONTINUOUS
10
3.17094
20
0.516181
11
3.22213
21
0.516181
0
LINE
8
BLACK
6
CONTINUOUS
10
3.22213
20
0.516181
11
3.22213
21
0.449252
0
LINE
8
BLACK
6
CONTINUOUS
10
2.75404
20
0.450217
11
2.69904
21
0.450217
0
LINE
8
BLACK
6
CONTINUOUS
10
2.69904
20
0.450217
11
2.69904
21
0.485217
0
LINE
8
BLACK
6
CONTINUOUS
10
2.69904
20
0.485217
11
2.75404
21
0.485217
0
LINE
8
BLACK
6
CONTINUOUS
10
2.75404
20
0.485217
11
2.75404
21
0.450217
0
LINE
8
BLACK
6
CONTINUOUS
10
2.84904
20
0.452717
11
2.79404
21
0.452717
0
LINE
8
BLACK
6
CONTINUOUS
10
2.79404
20
0.452717
11
2.79404
21
0.487717
0
LINE
8
BLACK
6
CONTINUOUS
10
2.79404
20
0.487717
11
2.84904
21
0.487717
0
LINE
8
BLACK
6
CONTINUOUS
10
2.84904
20
0.487717
11
2.84904
21
0.452717
0
LINE
8
BLACK
6
CONTINUOUS
10
2.57079
20
0.455118
11
2.52906
21
0.455118
0
LINE
8
BLACK
6
CONTINUOUS
10
2.52906
20
0.455118
11
2.52906
21
0.480709
0
LINE
8
BLACK
6
CONTINUOUS
10
2.52906
20
0.480709
11
2.57079
21
0.480709
0
LINE
8
BLACK
6
CONTINUOUS
10
2.57079
20
0.480709
11
2.57079
21
0.455118
0
LINE
8
BLACK
6
CONTINUOUS
10
2.6574
20
0.455118
11
2.61567
21
0.455118
0
LINE
8
BLACK
6
CONTINUOUS
10
2.61567
20
0.455118
11
2.61567
21
0.480709
0
LINE
8
BLACK
6
CONTINUOUS
10
2.61567
20
0.480709
11
2.6574
21
0.480709
0
LINE
8
BLACK
6
CONTINUOUS
10
2.6574
20
0.480709
11
2.6574
21
0.455118
0
LINE
8
BLACK
6
CONTINUOUS
10
2.47404
20
0.457717
11
2.41904
21
0.457717
0
LINE
8
BLACK
6
CONTINUOUS
10
2.41904
20
0.457717
11
2.41904
21
0.492717
0
LINE
8
BLACK
6
CONTINUOUS
10
2.41904
20
0.492717
11
2.47404
21
0.492717
0
LINE
8
BLACK
6
CONTINUOUS
10
2.47404
20
0.492717
11
2.47404
21
0.457717
0
LINE
8
BLACK
6
CONTINUOUS
10
2.38404
20
0.460217
11
2.32904
21
0.460217
0
LINE
8
BLACK
6
CONTINUOUS
10
2.32904
20
0.460217
11
2.32904
21
0.495217
0
LINE
8
BLACK
6
CONTINUOUS
10
2.32904
20
0.495217
11
2.38404
21
0.495217
0
LINE
8
BLACK
6
CONTINUOUS
10
2.38404
20
0.495217
11
2.38404
21
0.460217
0
LINE
8
BLACK
6
CONTINUOUS
10
3.03528
20
0.463189
11
2.98409
21
0.463189
0
LINE
8
BLACK
6
CONTINUOUS
10
2.98409
20
0.463189
11
2.98409
21
0.522244
0
LINE
8
BLACK
6
CONTINUOUS
10
2.98409
20
0.522244
11
3.03528
21
0.522244
0
LINE
8
BLACK
6
CONTINUOUS
10
3.03528
20
0.522244
11
3.03528
21
0.463189
0
LINE
8
BLACK
6
CONTINUOUS
10
2.92898
20
0.463189
11
2.8778
21
0.463189
0
LINE
8
BLACK
6
CONTINUOUS
10
2.8778
20
0.463189
11
2.8778
21
0.522244
0
LINE
8
BLACK
6
CONTINUOUS
10
2.8778
20
0.522244
11
2.92898
21
0.522244
0
LINE
8
BLACK
6
CONTINUOUS
10
2.92898
20
0.522244
11
2.92898
21
0.463189
0
LINE
8
BLACK
6
CONTINUOUS
10
2.26606
20
0.468976
11
2.20701
21
0.468976
0
LINE
8
BLACK
6
CONTINUOUS
10
2.20701
20
0.468976
11
2.20701
21
0.520157
0
LINE
8
BLACK
6
CONTINUOUS
10
2.20701
20
0.520157
11
2.26606
21
0.520157
0
LINE
8
BLACK
6
CONTINUOUS
10
2.26606
20
0.520157
11
2.26606
21
0.468976
0
LINE
8
BLACK
6
CONTINUOUS
10
1.19033
20
0.47498
11
1.15533
21
0.47498
0
LINE
8
BLACK
6
CONTINUOUS
10
1.15533
20
0.47498
11
1.15533
21
0.52998
0
LINE
8
BLACK
6
CONTINUOUS
10
1.15533
20
0.52998
11
1.19033
21
0.52998
0
LINE
8
BLACK
6
CONTINUOUS
10
1.19033
20
0.52998
11
1.19033
21
0.47498
0
LINE
8
BLACK
6
CONTINUOUS
10
1.11533
20
0.47498
11
1.08033
21
0.47498
0
LINE
8
BLACK
6
CONTINUOUS
10
1.08033
20
0.47498
11
1.08033
21
0.52998
0
LINE
8
BLACK
6
CONTINUOUS
10
1.08033
20
0.52998
11
1.11533
21
0.52998
0
LINE
8
BLACK
6
CONTINUOUS
10
1.11533
20
0.52998
11
1.11533
21
0.47498
0
LINE
8
BLACK
6
CONTINUOUS
10
2.6574
20
0.49252
11
2.61567
21
0.49252
0
LINE
8
BLACK
6
CONTINUOUS
10
2.61567
20
0.49252
11
2.61567
21
0.51811
0
LINE
8
BLACK
6
CONTINUOUS
10
2.61567
20
0.51811
11
2.6574
21
0.51811
0
LINE
8
BLACK
6
CONTINUOUS
10
2.6574
20
0.51811
11
2.6574
21
0.49252
0
LINE
8
BLACK
6
CONTINUOUS
10
2.13904
20
0.507717
11
2.08404
21
0.507717
0
LINE
8
BLACK
6
CONTINUOUS
10
2.08404
20
0.507717
11
2.08404
21
0.542717
0
LINE
8
BLACK
6
CONTINUOUS
10
2.08404
20
0.542717
11
2.13904
21
0.542717
0
LINE
8
BLACK
6
CONTINUOUS
10
2.13904
20
0.542717
11
2.13904
21
0.507717
0
LINE
8
BLACK
6
CONTINUOUS
10
3.12404
20
0.522717
11
3.06904
21
0.522717
0
LINE
8
BLACK
6
CONTINUOUS
10
3.06904
20
0.522717
11
3.06904
21
0.557717
0
LINE
8
BLACK
6
CONTINUOUS
10
3.06904
20
0.557717
11
3.12404
21
0.557717
0
LINE
8
BLACK
6
CONTINUOUS
10
3.12404
20
0.557717
11
3.12404
21
0.522717
0
LINE
8
BLACK
6
CONTINUOUS
10
2.75404
20
0.525217
11
2.69904
21
0.525217
0
LINE
8
BLACK
6
CONTINUOUS
10
2.69904
20
0.525217
11
2.69904
21
0.560217
0
LINE
8
BLACK
6
CONTINUOUS
10
2.69904
20
0.560217
11
2.75404
21
0.560217
0
LINE
8
BLACK
6
CONTINUOUS
10
2.75404
20
0.560217
11
2.75404
21
0.525217
0
LINE
8
BLACK
6
CONTINUOUS
10
2.84904
20
0.527717
11
2.79404
21
0.527717
0
LINE
8
BLACK
6
CONTINUOUS
10
2.79404
20
0.527717
11
2.79404
21
0.562717
0
LINE
8
BLACK
6
CONTINUOUS
10
2.79404
20
0.562717
11
2.84904
21
0.562717
0
LINE
8
BLACK
6
CONTINUOUS
10
2.84904
20
0.562717
11
2.84904
21
0.527717
0
LINE
8
BLACK
6
CONTINUOUS
10
2.57079
20
0.529921
11
2.52906
21
0.529921
0
LINE
8
BLACK
6
CONTINUOUS
10
2.52906
20
0.529921
11
2.52906
21
0.555512
0
LINE
8
BLACK
6
CONTINUOUS
10
2.52906
20
0.555512
11
2.57079
21
0.555512
0
LINE
8
BLACK
6
CONTINUOUS
10
2.57079
20
0.555512
11
2.57079
21
0.529921
0
LINE
8
BLACK
6
CONTINUOUS
10
2.6574
20
0.529921
11
2.61567
21
0.529921
0
LINE
8
BLACK
6
CONTINUOUS
10
2.61567
20
0.529921
11
2.61567
21
0.555512
0
LINE
8
BLACK
6
CONTINUOUS
10
2.61567
20
0.555512
11
2.6574
21
0.555512
0
LINE
8
BLACK
6
CONTINUOUS
10
2.6574
20
0.555512
11
2.6574
21
0.529921
0
LINE
8
BLACK
6
CONTINUOUS
10
2.47404
20
0.532717
11
2.41904
21
0.532717
0
LINE
8
BLACK
6
CONTINUOUS
10
2.41904
20
0.532717
11
2.41904
21
0.567717
0
LINE
8
BLACK
6
CONTINUOUS
10
2.41904
20
0.567717
11
2.47404
21
0.567717
0
LINE
8
BLACK
6
CONTINUOUS
10
2.47404
20
0.567717
11
2.47404
21
0.532717
0
LINE
8
BLACK
6
CONTINUOUS
10
2.29559
20
0.533937
11
2.17748
21
0.533937
0
LINE
8
BLACK
6
CONTINUOUS
10
2.17748
20
0.533937
11
2.17748
21
0.561496
0
LINE
8
BLACK
6
CONTINUOUS
10
2.17748
20
0.561496
11
2.29559
21
0.561496
0
LINE
8
BLACK
6
CONTINUOUS
10
2.29559
20
0.561496
11
2.29559
21
0.533937
0
LINE
8
BLACK
6
CONTINUOUS
10
2.38404
20
0.535217
11
2.32904
21
0.535217
0
LINE
8
BLACK
6
CONTINUOUS
10
2.32904
20
0.535217
11
2.32904
21
0.570217
0
LINE
8
BLACK
6
CONTINUOUS
10
2.32904
20
0.570217
11
2.38404
21
0.570217
0
LINE
8
BLACK
6
CONTINUOUS
10
2.38404
20
0.570217
11
2.38404
21
0.535217
0
LINE
8
BLACK
6
CONTINUOUS
10
3.42992
20
0.549252
11
3.37874
21
0.549252
0
LINE
8
BLACK
6
CONTINUOUS
10
3.37874
20
0.549252
11
3.37874
21
0.616181
0
LINE
8
BLACK
6
CONTINUOUS
10
3.37874
20
0.616181
11
3.42992
21
0.616181
0
LINE
8
BLACK
6
CONTINUOUS
10
3.42992
20
0.616181
11
3.42992
21
0.549252
0
LINE
8
BLACK
6
CONTINUOUS
10
3.29213
20
0.549252
11
3.24094
21
0.549252
0
LINE
8
BLACK
6
CONTINUOUS
10
3.24094
20
0.549252
11
3.24094
21
0.616181
0
LINE
8
BLACK
6
CONTINUOUS
10
3.24094
20
0.616181
11
3.29213
21
0.616181
0
LINE
8
BLACK
6
CONTINUOUS
10
3.29213
20
0.616181
11
3.29213
21
0.549252
0
LINE
8
BLACK
6
CONTINUOUS
10
3.57031
20
0.559724
11
3.53094
21
0.559724
0
LINE
8
BLACK
6
CONTINUOUS
10
3.53094
20
0.559724
11
3.53094
21
0.709331
0
LINE
8
BLACK
6
CONTINUOUS
10
3.53094
20
0.709331
11
3.57031
21
0.709331
0
LINE
8
BLACK
6
CONTINUOUS
10
3.57031
20
0.709331
11
3.57031
21
0.559724
0
LINE
8
BLACK
6
CONTINUOUS
10
1.84591
20
0.559724
11
1.80654
21
0.559724
0
LINE
8
BLACK
6
CONTINUOUS
10
1.80654
20
0.559724
11
1.80654
21
0.709331
0
LINE
8
BLACK
6
CONTINUOUS
10
1.80654
20
0.709331
11
1.84591
21
0.709331
0
LINE
8
BLACK
6
CONTINUOUS
10
1.84591
20
0.709331
11
1.84591
21
0.559724
0
LINE
8
BLACK
6
CONTINUOUS
10
1.77398
20
0.562126
11
1.73461
21
0.562126
0
LINE
8
BLACK
6
CONTINUOUS
10
1.73461
20
0.562126
11
1.73461
21
0.711732
0
LINE
8
BLACK
6
CONTINUOUS
10
1.73461
20
0.711732
11
1.77398
21
0.711732
0
LINE
8
BLACK
6
CONTINUOUS
10
1.77398
20
0.711732
11
1.77398
21
0.562126
0
LINE
8
BLACK
6
CONTINUOUS
10
0.0495669
20
0.562126
11
0.0101969
21
0.562126
0
LINE
8
BLACK
6
CONTINUOUS
10
0.0101969
20
0.562126
11
0.0101969
21
0.711732
0
LINE
8
BLACK
6
CONTINUOUS
10
0.0101969
20
0.711732
11
0.0495669
21
0.711732
0
LINE
8
BLACK
6
CONTINUOUS
10
0.0495669
20
0.711732
11
0.0495669
21
0.562126
0
LINE
8
BLACK
6
CONTINUOUS
10
2.97031
20
0.573661
11
2.94276
21
0.573661
0
LINE
8
BLACK
6
CONTINUOUS
10
2.94276
20
0.573661
11
2.94276
21
0.691772
0
LINE
8
BLACK
6
CONTINUOUS
10
2.94276
20
0.691772
11
2.97031
21
0.691772
0
LINE
8
BLACK
6
CONTINUOUS
10
2.97031
20
0.691772
11
2.97031
21
0.573661
0
LINE
8
BLACK
6
CONTINUOUS
10
2.26606
20
0.575276
11
2.20701
21
0.575276
0
LINE
8
BLACK
6
CONTINUOUS
10
2.20701
20
0.575276
11
2.20701
21
0.626457
0
LINE
8
BLACK
6
CONTINUOUS
10
2.20701
20
0.626457
11
2.26606
21
0.626457
0
LINE
8
BLACK
6
CONTINUOUS
10
2.26606
20
0.626457
11
2.26606
21
0.575276
0
LINE
8
BLACK
6
CONTINUOUS
10
1.02363
20
0.57828
11
0.923235
21
0.57828
0
LINE
8
BLACK
6
CONTINUOUS
10
0.923235
20
0.57828
11
0.923235
21
0.67668
0
LINE
8
BLACK
6
CONTINUOUS
10
0.923235
20
0.67668
11
1.02363
21
0.67668
0
LINE
8
BLACK
6
CONTINUOUS
10
1.02363
20
0.67668
11
1.02363
21
0.57828
0
LINE
8
BLACK
6
CONTINUOUS
10
1.22243
20
0.57828
11
1.12203
21
0.57828
0
LINE
8
BLACK
6
CONTINUOUS
10
1.12203
20
0.57828
11
1.12203
21
0.67668
0
LINE
8
BLACK
6
CONTINUOUS
10
1.12203
20
0.67668
11
1.22243
21
0.67668
0
LINE
8
BLACK
6
CONTINUOUS
10
1.22243
20
0.67668
11
1.22243
21
0.57828
0
LINE
8
BLACK
6
CONTINUOUS
10
3.12404
20
0.580217
11
3.06904
21
0.580217
0
LINE
8
BLACK
6
CONTINUOUS
10
3.06904
20
0.580217
11
3.06904
21
0.615217
0
LINE
8
BLACK
6
CONTINUOUS
10
3.06904
20
0.615217
11
3.12404
21
0.615217
0
LINE
8
BLACK
6
CONTINUOUS
10
3.12404
20
0.615217
11
3.12404
21
0.580217
0
LINE
8
BLACK
6
CONTINUOUS
10
2.13904
20
0.582717
11
2.08404
21
0.582717
0
LINE
8
BLACK
6
CONTINUOUS
10
2.08404
20
0.582717
11
2.08404
21
0.617717
0
LINE
8
BLACK
6
CONTINUOUS
10
2.08404
20
0.617717
11
2.13904
21
0.617717
0
LINE
8
BLACK
6
CONTINUOUS
10
2.13904
20
0.617717
11
2.13904
21
0.582717
0
LINE
8
BLACK
6
CONTINUOUS
10
1.60033
20
0.59748
11
1.54533
21
0.59748
0
LINE
8
BLACK
6
CONTINUOUS
10
1.54533
20
0.59748
11
1.54533
21
0.63248
0
LINE
8
BLACK
6
CONTINUOUS
10
1.54533
20
0.63248
11
1.60033
21
0.63248
0
LINE
8
BLACK
6
CONTINUOUS
10
1.60033
20
0.63248
11
1.60033
21
0.59748
0
LINE
8
BLACK
6
CONTINUOUS
10
1.70033
20
0.59748
11
1.64533
21
0.59748
0
LINE
8
BLACK
6
CONTINUOUS
10
1.64533
20
0.59748
11
1.64533
21
0.63248
0
LINE
8
BLACK
6
CONTINUOUS
10
1.64533
20
0.63248
11
1.70033
21
0.63248
0
LINE
8
BLACK
6
CONTINUOUS
10
1.70033
20
0.63248
11
1.70033
21
0.59748
0
LINE
8
BLACK
6
CONTINUOUS
10
2.60239
20
0.654526
11
2.60558
21
0.652393
0
LINE
8
BLACK
6
CONTINUOUS
10
2.60558
20
0.652393
11
2.60772
21
0.6492
0
LINE
8
BLACK
6
CONTINUOUS
10
2.60772
20
0.6492
11
2.60846
21
0.645433
0
LINE
8
BLACK
6
CONTINUOUS
10
2.60846
20
0.645433
11
2.60846
21
0.61
0
LINE
8
BLACK
6
CONTINUOUS
10
2.60846
20
0.61
11
2.60772
21
0.606233
0
LINE
8
BLACK
6
CONTINUOUS
10
2.60772
20
0.606233
11
2.60558
21
0.60304
0
LINE
8
BLACK
6
CONTINUOUS
10
2.60558
20
0.60304
11
2.60239
21
0.600907
0
LINE
8
BLACK
6
CONTINUOUS
10
2.60239
20
0.600907
11
2.59862
21
0.600157
0
LINE
8
BLACK
6
CONTINUOUS
10
2.59862
20
0.600157
11
2.57303
21
0.600157
0
LINE
8
BLACK
6
CONTINUOUS
10
2.57303
20
0.600157
11
2.56926
21
0.600907
0
LINE
8
BLACK
6
CONTINUOUS
10
2.56926
20
0.600907
11
2.56607
21
0.60304
0
LINE
8
BLACK
6
CONTINUOUS
10
2.56607
20
0.60304
11
2.56394
21
0.606233
0
LINE
8
BLACK
6
CONTINUOUS
10
2.56394
20
0.606233
11
2.56319
21
0.61
0
LINE
8
BLACK
6
CONTINUOUS
10
2.56319
20
0.61
11
2.56319
21
0.645433
0
LINE
8
BLACK
6
CONTINUOUS
10
2.56319
20
0.645433
11
2.56394
21
0.6492
0
LINE
8
BLACK
6
CONTINUOUS
10
2.56394
20
0.6492
11
2.56607
21
0.652393
0
LINE
8
BLACK
6
CONTINUOUS
10
2.56607
20
0.652393
11
2.56926
21
0.654526
0
LINE
8
BLACK
6
CONTINUOUS
10
2.56926
20
0.654526
11
2.57303
21
0.655276
0
LINE
8
BLACK
6
CONTINUOUS
10
2.57303
20
0.655276
11
2.59862
21
0.655276
0
LINE
8
BLACK
6
CONTINUOUS
10
2.59862
20
0.655276
11
2.60239
21
0.654526
0
LINE
8
BLACK
6
CONTINUOUS
10
2.6831
20
0.654526
11
2.68629
21
0.652393
0
LINE
8
BLACK
6
CONTINUOUS
10
2.68629
20
0.652393
11
2.68842
21
0.6492
0
LINE
8
BLACK
6
CONTINUOUS
10
2.68842
20
0.6492
11
2.68917
21
0.645433
0
LINE
8
BLACK
6
CONTINUOUS
10
2.68917
20
0.645433
11
2.68917
21
0.61
0
LINE
8
BLACK
6
CONTINUOUS
10
2.68917
20
0.61
11
2.68842
21
0.606233
0
LINE
8
BLACK
6
CONTINUOUS
10
2.68842
20
0.606233
11
2.68629
21
0.60304
0
LINE
8
BLACK
6
CONTINUOUS
10
2.68629
20
0.60304
11
2.6831
21
0.600907
0
LINE
8
BLACK
6
CONTINUOUS
10
2.6831
20
0.600907
11
2.67933
21
0.600157
0
LINE
8
BLACK
6
CONTINUOUS
10
2.67933
20
0.600157
11
2.65374
21
0.600157
0
LINE
8
BLACK
6
CONTINUOUS
10
2.65374
20
0.600157
11
2.64997
21
0.600907
0
LINE
8
BLACK
6
CONTINUOUS
10
2.64997
20
0.600907
11
2.64678
21
0.60304
0
LINE
8
BLACK
6
CONTINUOUS
10
2.64678
20
0.60304
11
2.64465
21
0.606233
0
LINE
8
BLACK
6
CONTINUOUS
10
2.64465
20
0.606233
11
2.6439
21
0.61
0
LINE
8
BLACK
6
CONTINUOUS
10
2.6439
20
0.61
11
2.6439
21
0.645433
0
LINE
8
BLACK
6
CONTINUOUS
10
2.6439
20
0.645433
11
2.64465
21
0.6492
0
LINE
8
BLACK
6
CONTINUOUS
10
2.64465
20
0.6492
11
2.64678
21
0.652393
0
LINE
8
BLACK
6
CONTINUOUS
10
2.64678
20
0.652393
11
2.64997
21
0.654526
0
LINE
8
BLACK
6
CONTINUOUS
10
2.64997
20
0.654526
11
2.65374
21
0.655276
0
LINE
8
BLACK
6
CONTINUOUS
10
2.65374
20
0.655276
11
2.67933
21
0.655276
0
LINE
8
BLACK
6
CONTINUOUS
10
2.67933
20
0.655276
11
2.6831
21
0.654526
0
LINE
8
BLACK
6
CONTINUOUS
10
2.83154
20
0.600217
11
2.79654
21
0.600217
0
LINE
8
BLACK
6
CONTINUOUS
10
2.79654
20
0.600217
11
2.79654
21
0.655217
0
LINE
8
BLACK
6
CONTINUOUS
10
2.79654
20
0.655217
11
2.83154
21
0.655217
0
LINE
8
BLACK
6
CONTINUOUS
10
2.83154
20
0.655217
11
2.83154
21
0.600217
0
LINE
8
BLACK
6
CONTINUOUS
10
2.75654
20
0.600217
11
2.72154
21
0.600217
0
LINE
8
BLACK
6
CONTINUOUS
10
2.72154
20
0.600217
11
2.72154
21
0.655217
0
LINE
8
BLACK
6
CONTINUOUS
10
2.72154
20
0.655217
11
2.75654
21
0.655217
0
LINE
8
BLACK
6
CONTINUOUS
10
2.75654
20
0.655217
11
2.75654
21
0.600217
0
LINE
8
BLACK
6
CONTINUOUS
10
2.92898
20
0.603189
11
2.8778
21
0.603189
0
LINE
8
BLACK
6
CONTINUOUS
10
2.8778
20
0.603189
11
2.8778
21
0.662244
0
LINE
8
BLACK
6
CONTINUOUS
10
2.8778
20
0.662244
11
2.92898
21
0.662244
0
LINE
8
BLACK
6
CONTINUOUS
10
2.92898
20
0.662244
11
2.92898
21
0.603189
0
LINE
8
BLACK
6
CONTINUOUS
10
3.03528
20
0.603189
11
2.98409
21
0.603189
0
LINE
8
BLACK
6
CONTINUOUS
10
2.98409
20
0.603189
11
2.98409
21
0.662244
0
LINE
8
BLACK
6
CONTINUOUS
10
2.98409
20
0.662244
11
3.03528
21
0.662244
0
LINE
8
BLACK
6
CONTINUOUS
10
3.03528
20
0.662244
11
3.03528
21
0.603189
0
LINE
8
BLACK
6
CONTINUOUS
10
2.52904
20
0.607717
11
2.47404
21
0.607717
0
LINE
8
BLACK
6
CONTINUOUS
10
2.47404
20
0.607717
11
2.47404
21
0.642717
0
LINE
8
BLACK
6
CONTINUOUS
10
2.47404
20
0.642717
11
2.52904
21
0.642717
0
LINE
8
BLACK
6
CONTINUOUS
10
2.52904
20
0.642717
11
2.52904
21
0.607717
0
LINE
8
BLACK
6
CONTINUOUS
10
2.44071
20
0.61752
11
2.39898
21
0.61752
0
LINE
8
BLACK
6
CONTINUOUS
10
2.39898
20
0.61752
11
2.39898
21
0.64311
0
LINE
8
BLACK
6
CONTINUOUS
10
2.39898
20
0.64311
11
2.44071
21
0.64311
0
LINE
8
BLACK
6
CONTINUOUS
10
2.44071
20
0.64311
11
2.44071
21
0.61752
0
LINE
8
BLACK
6
CONTINUOUS
10
2.35409
20
0.61752
11
2.31236
21
0.61752
0
LINE
8
BLACK
6
CONTINUOUS
10
2.31236
20
0.61752
11
2.31236
21
0.64311
0
LINE
8
BLACK
6
CONTINUOUS
10
2.31236
20
0.64311
11
2.35409
21
0.64311
0
LINE
8
BLACK
6
CONTINUOUS
10
2.35409
20
0.64311
11
2.35409
21
0.61752
0
LINE
8
BLACK
6
CONTINUOUS
10
1.42783
20
0.64998
11
1.39283
21
0.64998
0
LINE
8
BLACK
6
CONTINUOUS
10
1.39283
20
0.64998
11
1.39283
21
0.70498
0
LINE
8
BLACK
6
CONTINUOUS
10
1.39283
20
0.70498
11
1.42783
21
0.70498
0
LINE
8
BLACK
6
CONTINUOUS
10
1.42783
20
0.70498
11
1.42783
21
0.64998
0
LINE
8
BLACK
6
CONTINUOUS
10
1.50283
20
0.64998
11
1.46783
21
0.64998
0
LINE
8
BLACK
6
CONTINUOUS
10
1.46783
20
0.64998
11
1.46783
21
0.70498
0
LINE
8
BLACK
6
CONTINUOUS
10
1.46783
20
0.70498
11
1.50283
21
0.70498
0
LINE
8
BLACK
6
CONTINUOUS
10
1.50283
20
0.70498
11
1.50283
21
0.64998
0
LINE
8
BLACK
6
CONTINUOUS
10
2.06606
20
0.653976
11
2.00701
21
0.653976
0
LINE
8
BLACK
6
CONTINUOUS
10
2.00701
20
0.653976
11
2.00701
21
0.705157
0
LINE
8
BLACK
6
CONTINUOUS
10
2.00701
20
0.705157
11
2.06606
21
0.705157
0
LINE
8
BLACK
6
CONTINUOUS
10
2.06606
20
0.705157
11
2.06606
21
0.653976
0
LINE
8
BLACK
6
CONTINUOUS
10
2.44071
20
0.654921
11
2.39898
21
0.654921
0
LINE
8
BLACK
6
CONTINUOUS
10
2.39898
20
0.654921
11
2.39898
21
0.680512
0
LINE
8
BLACK
6
CONTINUOUS
10
2.39898
20
0.680512
11
2.44071
21
0.680512
0
LINE
8
BLACK
6
CONTINUOUS
10
2.44071
20
0.680512
11
2.44071
21
0.654921
0
LINE
8
BLACK
6
CONTINUOUS
10
3.12404
20
0.655217
11
3.06904
21
0.655217
0
LINE
8
BLACK
6
CONTINUOUS
10
3.06904
20
0.655217
11
3.06904
21
0.690217
0
LINE
8
BLACK
6
CONTINUOUS
10
3.06904
20
0.690217
11
3.12404
21
0.690217
0
LINE
8
BLACK
6
CONTINUOUS
10
3.12404
20
0.690217
11
3.12404
21
0.655217
0
LINE
8
BLACK
6
CONTINUOUS
10
3.40404
20
0.655217
11
3.36904
21
0.655217
0
LINE
8
BLACK
6
CONTINUOUS
10
3.36904
20
0.655217
11
3.36904
21
0.710217
0
LINE
8
BLACK
6
CONTINUOUS
10
3.36904
20
0.710217
11
3.40404
21
0.710217
0
LINE
8
BLACK
6
CONTINUOUS
10
3.40404
20
0.710217
11
3.40404
21
0.655217
0
LINE
8
BLACK
6
CONTINUOUS
10
3.32904
20
0.655217
11
3.29404
21
0.655217
0
LINE
8
BLACK
6
CONTINUOUS
10
3.29404
20
0.655217
11
3.29404
21
0.710217
0
LINE
8
BLACK
6
CONTINUOUS
10
3.29404
20
0.710217
11
3.32904
21
0.710217
0
LINE
8
BLACK
6
CONTINUOUS
10
3.32904
20
0.710217
11
3.32904
21
0.655217
0
LINE
8
BLACK
6
CONTINUOUS
10
1.70033
20
0.67248
11
1.64533
21
0.67248
0
LINE
8
BLACK
6
CONTINUOUS
10
1.64533
20
0.67248
11
1.64533
21
0.70748
0
LINE
8
BLACK
6
CONTINUOUS
10
1.64533
20
0.70748
11
1.70033
21
0.70748
0
LINE
8
BLACK
6
CONTINUOUS
10
1.70033
20
0.70748
11
1.70033
21
0.67248
0
LINE
8
BLACK
6
CONTINUOUS
10
1.60033
20
0.67248
11
1.54533
21
0.67248
0
LINE
8
BLACK
6
CONTINUOUS
10
1.54533
20
0.67248
11
1.54533
21
0.70748
0
LINE
8
BLACK
6
CONTINUOUS
10
1.54533
20
0.70748
11
1.60033
21
0.70748
0
LINE
8
BLACK
6
CONTINUOUS
10
1.60033
20
0.70748
11
1.60033
21
0.67248
0
LINE
8
BLACK
6
CONTINUOUS
10
1.94404
20
0.672717
11
1.88904
21
0.672717
0
LINE
8
BLACK
6
CONTINUOUS
10
1.88904
20
0.672717
11
1.88904
21
0.707717
0
LINE
8
BLACK
6
CONTINUOUS
10
1.88904
20
0.707717
11
1.94404
21
0.707717
0
LINE
8
BLACK
6
CONTINUOUS
10
1.94404
20
0.707717
11
1.94404
21
0.672717
0
LINE
8
BLACK
6
CONTINUOUS
10
2.18404
20
0.675217
11
2.12904
21
0.675217
0
LINE
8
BLACK
6
CONTINUOUS
10
2.12904
20
0.675217
11
2.12904
21
0.710217
0
LINE
8
BLACK
6
CONTINUOUS
10
2.12904
20
0.710217
11
2.18404
21
0.710217
0
LINE
8
BLACK
6
CONTINUOUS
10
2.18404
20
0.710217
11
2.18404
21
0.675217
0
LINE
8
BLACK
6
CONTINUOUS
10
2.26904
20
0.675217
11
2.21404
21
0.675217
0
LINE
8
BLACK
6
CONTINUOUS
10
2.21404
20
0.675217
11
2.21404
21
0.710217
0
LINE
8
BLACK
6
CONTINUOUS
10
2.21404
20
0.710217
11
2.26904
21
0.710217
0
LINE
8
BLACK
6
CONTINUOUS
10
2.26904
20
0.710217
11
2.26904
21
0.675217
0
LINE
8
BLACK
6
CONTINUOUS
10
2.85404
20
0.682717
11
2.79904
21
0.682717
0
LINE
8
BLACK
6
CONTINUOUS
10
2.79904
20
0.682717
11
2.79904
21
0.717717
0
LINE
8
BLACK
6
CONTINUOUS
10
2.79904
20
0.717717
11
2.85404
21
0.717717
0
LINE
8
BLACK
6
CONTINUOUS
10
2.85404
20
0.717717
11
2.85404
21
0.682717
0
LINE
8
BLACK
6
CONTINUOUS
10
2.52904
20
0.682717
11
2.47404
21
0.682717
0
LINE
8
BLACK
6
CONTINUOUS
10
2.47404
20
0.682717
11
2.47404
21
0.717717
0
LINE
8
BLACK
6
CONTINUOUS
10
2.47404
20
0.717717
11
2.52904
21
0.717717
0
LINE
8
BLACK
6
CONTINUOUS
10
2.52904
20
0.717717
11
2.52904
21
0.682717
0
LINE
8
BLACK
6
CONTINUOUS
10
2.44071
20
0.692323
11
2.39898
21
0.692323
0
LINE
8
BLACK
6
CONTINUOUS
10
2.39898
20
0.692323
11
2.39898
21
0.717913
0
LINE
8
BLACK
6
CONTINUOUS
10
2.39898
20
0.717913
11
2.44071
21
0.717913
0
LINE
8
BLACK
6
CONTINUOUS
10
2.44071
20
0.717913
11
2.44071
21
0.692323
0
LINE
8
BLACK
6
CONTINUOUS
10
2.35409
20
0.692323
11
2.31236
21
0.692323
0
LINE
8
BLACK
6
CONTINUOUS
10
2.31236
20
0.692323
11
2.31236
21
0.717913
0
LINE
8
BLACK
6
CONTINUOUS
10
2.31236
20
0.717913
11
2.35409
21
0.717913
0
LINE
8
BLACK
6
CONTINUOUS
10
2.35409
20
0.717913
11
2.35409
21
0.692323
0
LINE
8
BLACK
6
CONTINUOUS
10
0.415335
20
0.70248
11
0.360335
21
0.70248
0
LINE
8
BLACK
6
CONTINUOUS
10
0.360335
20
0.70248
11
0.360335
21
0.73748
0
LINE
8
BLACK
6
CONTINUOUS
10
0.360335
20
0.73748
11
0.415335
21
0.73748
0
LINE
8
BLACK
6
CONTINUOUS
10
0.415335
20
0.73748
11
0.415335
21
0.70248
0
LINE
8
BLACK
6
CONTINUOUS
10
0.576811
20
0.704331
11
0.541378
21
0.704331
0
LINE
8
BLACK
6
CONTINUOUS
10
0.541378
20
0.704331
11
0.541378
21
0.735827
0
LINE
8
BLACK
6
CONTINUOUS
10
0.541378
20
0.735827
11
0.576811
21
0.735827
0
LINE
8
BLACK
6
CONTINUOUS
10
0.576811
20
0.735827
11
0.576811
21
0.704331
0
LINE
8
BLACK
6
CONTINUOUS
10
2.70904
20
0.710217
11
2.67404
21
0.710217
0
LINE
8
BLACK
6
CONTINUOUS
10
2.67404
20
0.710217
11
2.67404
21
0.765217
0
LINE
8
BLACK
6
CONTINUOUS
10
2.67404
20
0.765217
11
2.70904
21
0.765217
0
LINE
8
BLACK
6
CONTINUOUS
10
2.70904
20
0.765217
11
2.70904
21
0.710217
0
LINE
8
BLACK
6
CONTINUOUS
10
2.63404
20
0.710217
11
2.59904
21
0.710217
0
LINE
8
BLACK
6
CONTINUOUS
10
2.59904
20
0.710217
11
2.59904
21
0.765217
0
LINE
8
BLACK
6
CONTINUOUS
10
2.59904
20
0.765217
11
2.63404
21
0.765217
0
LINE
8
BLACK
6
CONTINUOUS
10
2.63404
20
0.765217
11
2.63404
21
0.710217
0
LINE
8
BLACK
6
CONTINUOUS
10
2.09559
20
0.718937
11
1.97748
21
0.718937
0
LINE
8
BLACK
6
CONTINUOUS
10
1.97748
20
0.718937
11
1.97748
21
0.746496
0
LINE
8
BLACK
6
CONTINUOUS
10
1.97748
20
0.746496
11
2.09559
21
0.746496
0
LINE
8
BLACK
6
CONTINUOUS
10
2.09559
20
0.746496
11
2.09559
21
0.718937
0
LINE
8
BLACK
6
CONTINUOUS
10
3.02965
20
0.722283
11
2.99028
21
0.722283
0
LINE
8
BLACK
6
CONTINUOUS
10
2.99028
20
0.722283
11
2.99028
21
0.79315
0
LINE
8
BLACK
6
CONTINUOUS
10
2.99028
20
0.79315
11
3.02965
21
0.79315
0
LINE
8
BLACK
6
CONTINUOUS
10
3.02965
20
0.79315
11
3.02965
21
0.722283
0
LINE
8
BLACK
6
CONTINUOUS
10
2.93122
20
0.722283
11
2.89185
21
0.722283
0
LINE
8
BLACK
6
CONTINUOUS
10
2.89185
20
0.722283
11
2.89185
21
0.79315
0
LINE
8
BLACK
6
CONTINUOUS
10
2.89185
20
0.79315
11
2.93122
21
0.79315
0
LINE
8
BLACK
6
CONTINUOUS
10
2.93122
20
0.79315
11
2.93122
21
0.722283
0
LINE
8
BLACK
6
CONTINUOUS
10
0.655551
20
0.741732
11
0.620118
21
0.741732
0
LINE
8
BLACK
6
CONTINUOUS
10
0.620118
20
0.741732
11
0.620118
21
0.773228
0
LINE
8
BLACK
6
CONTINUOUS
10
0.620118
20
0.773228
11
0.655551
21
0.773228
0
LINE
8
BLACK
6
CONTINUOUS
10
0.655551
20
0.773228
11
0.655551
21
0.741732
0
LINE
8
BLACK
6
CONTINUOUS
10
3.32904
20
0.745217
11
3.29404
21
0.745217
0
LINE
8
BLACK
6
CONTINUOUS
10
3.29404
20
0.745217
11
3.29404
21
0.800217
0
LINE
8
BLACK
6
CONTINUOUS
10
3.29404
20
0.800217
11
3.32904
21
0.800217
0
LINE
8
BLACK
6
CONTINUOUS
10
3.32904
20
0.800217
11
3.32904
21
0.745217
0
LINE
8
BLACK
6
CONTINUOUS
10
3.40404
20
0.745217
11
3.36904
21
0.745217
0
LINE
8
BLACK
6
CONTINUOUS
10
3.36904
20
0.745217
11
3.36904
21
0.800217
0
LINE
8
BLACK
6
CONTINUOUS
10
3.36904
20
0.800217
11
3.40404
21
0.800217
0
LINE
8
BLACK
6
CONTINUOUS
10
3.40404
20
0.800217
11
3.40404
21
0.745217
0
LINE
8
BLACK
6
CONTINUOUS
10
1.42533
20
0.74748
11
1.37033
21
0.74748
0
LINE
8
BLACK
6
CONTINUOUS
10
1.37033
20
0.74748
11
1.37033
21
0.78248
0
LINE
8
BLACK
6
CONTINUOUS
10
1.37033
20
0.78248
11
1.42533
21
0.78248
0
LINE
8
BLACK
6
CONTINUOUS
10
1.42533
20
0.78248
11
1.42533
21
0.74748
0
LINE
8
BLACK
6
CONTINUOUS
10
1.94404
20
0.747717
11
1.88904
21
0.747717
0
LINE
8
BLACK
6
CONTINUOUS
10
1.88904
20
0.747717
11
1.88904
21
0.782717
0
LINE
8
BLACK
6
CONTINUOUS
10
1.88904
20
0.782717
11
1.94404
21
0.782717
0
LINE
8
BLACK
6
CONTINUOUS
10
1.94404
20
0.782717
11
1.94404
21
0.747717
0
LINE
8
BLACK
6
CONTINUOUS
10
2.47845
20
0.804526
11
2.48164
21
0.802393
0
LINE
8
BLACK
6
CONTINUOUS
10
2.48164
20
0.802393
11
2.48378
21
0.7992
0
LINE
8
BLACK
6
CONTINUOUS
10
2.48378
20
0.7992
11
2.48453
21
0.795433
0
LINE
8
BLACK
6
CONTINUOUS
10
2.48453
20
0.795433
11
2.48453
21
0.76
0
LINE
8
BLACK
6
CONTINUOUS
10
2.48453
20
0.76
11
2.48378
21
0.756233
0
LINE
8
BLACK
6
CONTINUOUS
10
2.48378
20
0.756233
11
2.48164
21
0.75304
0
LINE
8
BLACK
6
CONTINUOUS
10
2.48164
20
0.75304
11
2.47845
21
0.750907
0
LINE
8
BLACK
6
CONTINUOUS
10
2.47845
20
0.750907
11
2.47469
21
0.750157
0
LINE
8
BLACK
6
CONTINUOUS
10
2.47469
20
0.750157
11
2.44909
21
0.750157
0
LINE
8
BLACK
6
CONTINUOUS
10
2.44909
20
0.750157
11
2.44533
21
0.750907
0
LINE
8
BLACK
6
CONTINUOUS
10
2.44533
20
0.750907
11
2.44213
21
0.75304
0
LINE
8
BLACK
6
CONTINUOUS
10
2.44213
20
0.75304
11
2.44
21
0.756233
0
LINE
8
BLACK
6
CONTINUOUS
10
2.44
20
0.756233
11
2.43925
21
0.76
0
LINE
8
BLACK
6
CONTINUOUS
10
2.43925
20
0.76
11
2.43925
21
0.795433
0
LINE
8
BLACK
6
CONTINUOUS
10
2.43925
20
0.795433
11
2.44
21
0.7992
0
LINE
8
BLACK
6
CONTINUOUS
10
2.44
20
0.7992
11
2.44213
21
0.802393
0
LINE
8
BLACK
6
CONTINUOUS
10
2.44213
20
0.802393
11
2.44533
21
0.804526
0
LINE
8
BLACK
6
CONTINUOUS
10
2.44533
20
0.804526
11
2.44909
21
0.805276
0
LINE
8
BLACK
6
CONTINUOUS
10
2.44909
20
0.805276
11
2.47469
21
0.805276
0
LINE
8
BLACK
6
CONTINUOUS
10
2.47469
20
0.805276
11
2.47845
21
0.804526
0
LINE
8
BLACK
6
CONTINUOUS
10
2.39774
20
0.804526
11
2.40094
21
0.802393
0
LINE
8
BLACK
6
CONTINUOUS
10
2.40094
20
0.802393
11
2.40307
21
0.7992
0
LINE
8
BLACK
6
CONTINUOUS
10
2.40307
20
0.7992
11
2.40382
21
0.795433
0
LINE
8
BLACK
6
CONTINUOUS
10
2.40382
20
0.795433
11
2.40382
21
0.76
0
LINE
8
BLACK
6
CONTINUOUS
10
2.40382
20
0.76
11
2.40307
21
0.756233
0
LINE
8
BLACK
6
CONTINUOUS
10
2.40307
20
0.756233
11
2.40094
21
0.75304
0
LINE
8
BLACK
6
CONTINUOUS
10
2.40094
20
0.75304
11
2.39774
21
0.750907
0
LINE
8
BLACK
6
CONTINUOUS
10
2.39774
20
0.750907
11
2.39398
21
0.750157
0
LINE
8
BLACK
6
CONTINUOUS
10
2.39398
20
0.750157
11
2.36839
21
0.750157
0
LINE
8
BLACK
6
CONTINUOUS
10
2.36839
20
0.750157
11
2.36462
21
0.750907
0
LINE
8
BLACK
6
CONTINUOUS
10
2.36462
20
0.750907
11
2.36143
21
0.75304
0
LINE
8
BLACK
6
CONTINUOUS
10
2.36143
20
0.75304
11
2.35929
21
0.756233
0
LINE
8
BLACK
6
CONTINUOUS
10
2.35929
20
0.756233
11
2.35854
21
0.76
0
LINE
8
BLACK
6
CONTINUOUS
10
2.35854
20
0.76
11
2.35854
21
0.795433
0
LINE
8
BLACK
6
CONTINUOUS
10
2.35854
20
0.795433
11
2.35929
21
0.7992
0
LINE
8
BLACK
6
CONTINUOUS
10
2.35929
20
0.7992
11
2.36143
21
0.802393
0
LINE
8
BLACK
6
CONTINUOUS
10
2.36143
20
0.802393
11
2.36462
21
0.804526
0
LINE
8
BLACK
6
CONTINUOUS
10
2.36462
20
0.804526
11
2.36839
21
0.805276
0
LINE
8
BLACK
6
CONTINUOUS
10
2.36839
20
0.805276
11
2.39398
21
0.805276
0
LINE
8
BLACK
6
CONTINUOUS
10
2.39398
20
0.805276
11
2.39774
21
0.804526
0
LINE
8
BLACK
6
CONTINUOUS
10
2.26904
20
0.750217
11
2.21404
21
0.750217
0
LINE
8
BLACK
6
CONTINUOUS
10
2.21404
20
0.750217
11
2.21404
21
0.785217
0
LINE
8
BLACK
6
CONTINUOUS
10
2.21404
20
0.785217
11
2.26904
21
0.785217
0
LINE
8
BLACK
6
CONTINUOUS
10
2.26904
20
0.785217
11
2.26904
21
0.750217
0
LINE
8
BLACK
6
CONTINUOUS
10
2.18404
20
0.750217
11
2.12904
21
0.750217
0
LINE
8
BLACK
6
CONTINUOUS
10
2.12904
20
0.750217
11
2.12904
21
0.785217
0
LINE
8
BLACK
6
CONTINUOUS
10
2.12904
20
0.785217
11
2.18404
21
0.785217
0
LINE
8
BLACK
6
CONTINUOUS
10
2.18404
20
0.785217
11
2.18404
21
0.750217
0
LINE
8
BLACK
6
CONTINUOUS
10
1.60039
20
0.752283
11
1.53898
21
0.752283
0
LINE
8
BLACK
6
CONTINUOUS
10
1.53898
20
0.752283
11
1.53898
21
0.777874
0
LINE
8
BLACK
6
CONTINUOUS
10
1.53898
20
0.777874
11
1.60039
21
0.777874
0
LINE
8
BLACK
6
CONTINUOUS
10
1.60039
20
0.777874
11
1.60039
21
0.752283
0
LINE
8
BLACK
6
CONTINUOUS
10
1.70669
20
0.752283
11
1.64528
21
0.752283
0
LINE
8
BLACK
6
CONTINUOUS
10
1.64528
20
0.752283
11
1.64528
21
0.777874
0
LINE
8
BLACK
6
CONTINUOUS
10
1.64528
20
0.777874
11
1.70669
21
0.777874
0
LINE
8
BLACK
6
CONTINUOUS
10
1.70669
20
0.777874
11
1.70669
21
0.752283
0
LINE
8
BLACK
6
CONTINUOUS
10
2.85404
20
0.757717
11
2.79904
21
0.757717
0
LINE
8
BLACK
6
CONTINUOUS
10
2.79904
20
0.757717
11
2.79904
21
0.792717
0
LINE
8
BLACK
6
CONTINUOUS
10
2.79904
20
0.792717
11
2.85404
21
0.792717
0
LINE
8
BLACK
6
CONTINUOUS
10
2.85404
20
0.792717
11
2.85404
21
0.757717
0
LINE
8
BLACK
6
CONTINUOUS
10
2.06606
20
0.760276
11
2.00701
21
0.760276
0
LINE
8
BLACK
6
CONTINUOUS
10
2.00701
20
0.760276
11
2.00701
21
0.811457
0
LINE
8
BLACK
6
CONTINUOUS
10
2.00701
20
0.811457
11
2.06606
21
0.811457
0
LINE
8
BLACK
6
CONTINUOUS
10
2.06606
20
0.811457
11
2.06606
21
0.760276
0
LINE
8
BLACK
6
CONTINUOUS
10
0.415335
20
0.77748
11
0.360335
21
0.77748
0
LINE
8
BLACK
6
CONTINUOUS
10
0.360335
20
0.77748
11
0.360335
21
0.81248
0
LINE
8
BLACK
6
CONTINUOUS
10
0.360335
20
0.81248
11
0.415335
21
0.81248
0
LINE
8
BLACK
6
CONTINUOUS
10
0.415335
20
0.81248
11
0.415335
21
0.77748
0
LINE
8
BLACK
6
CONTINUOUS
10
0.576811
20
0.779134
11
0.541378
21
0.779134
0
LINE
8
BLACK
6
CONTINUOUS
10
0.541378
20
0.779134
11
0.541378
21
0.81063
0
LINE
8
BLACK
6
CONTINUOUS
10
0.541378
20
0.81063
11
0.576811
21
0.81063
0
LINE
8
BLACK
6
CONTINUOUS
10
0.576811
20
0.81063
11
0.576811
21
0.779134
0
LINE
8
BLACK
6
CONTINUOUS
10
1.60039
20
0.789685
11
1.53898
21
0.789685
0
LINE
8
BLACK
6
CONTINUOUS
10
1.53898
20
0.789685
11
1.53898
21
0.815276
0
LINE
8
BLACK
6
CONTINUOUS
10
1.53898
20
0.815276
11
1.60039
21
0.815276
0
LINE
8
BLACK
6
CONTINUOUS
10
1.60039
20
0.815276
11
1.60039
21
0.789685
0
LINE
8
BLACK
6
CONTINUOUS
10
2.63404
20
0.790217
11
2.59904
21
0.790217
0
LINE
8
BLACK
6
CONTINUOUS
10
2.59904
20
0.790217
11
2.59904
21
0.845217
0
LINE
8
BLACK
6
CONTINUOUS
10
2.59904
20
0.845217
11
2.63404
21
0.845217
0
LINE
8
BLACK
6
CONTINUOUS
10
2.63404
20
0.845217
11
2.63404
21
0.790217
0
LINE
8
BLACK
6
CONTINUOUS
10
2.70904
20
0.790217
11
2.67404
21
0.790217
0
LINE
8
BLACK
6
CONTINUOUS
10
2.67404
20
0.790217
11
2.67404
21
0.845217
0
LINE
8
BLACK
6
CONTINUOUS
10
2.67404
20
0.845217
11
2.70904
21
0.845217
0
LINE
8
BLACK
6
CONTINUOUS
10
2.70904
20
0.845217
11
2.70904
21
0.790217
0
LINE
8
BLACK
6
CONTINUOUS
10
3.57031
20
0.795945
11
3.53094
21
0.795945
0
LINE
8
BLACK
6
CONTINUOUS
10
3.53094
20
0.795945
11
3.53094
21
0.945551
0
LINE
8
BLACK
6
CONTINUOUS
10
3.53094
20
0.945551
11
3.57031
21
0.945551
0
LINE
8
BLACK
6
CONTINUOUS
10
3.57031
20
0.945551
11
3.57031
21
0.795945
0
LINE
8
BLACK
6
CONTINUOUS
10
1.84591
20
0.795945
11
1.80654
21
0.795945
0
LINE
8
BLACK
6
CONTINUOUS
10
1.80654
20
0.795945
11
1.80654
21
0.945551
0
LINE
8
BLACK
6
CONTINUOUS
10
1.80654
20
0.945551
11
1.84591
21
0.945551
0
LINE
8
BLACK
6
CONTINUOUS
10
1.84591
20
0.945551
11
1.84591
21
0.795945
0
LINE
8
BLACK
6
CONTINUOUS
10
1.77398
20
0.798346
11
1.73461
21
0.798346
0
LINE
8
BLACK
6
CONTINUOUS
10
1.73461
20
0.798346
11
1.73461
21
0.947953
0
LINE
8
BLACK
6
CONTINUOUS
10
1.73461
20
0.947953
11
1.77398
21
0.947953
0
LINE
8
BLACK
6
CONTINUOUS
10
1.77398
20
0.947953
11
1.77398
21
0.798346
0
LINE
8
BLACK
6
CONTINUOUS
10
0.0495669
20
0.798346
11
0.0101969
21
0.798346
0
LINE
8
BLACK
6
CONTINUOUS
10
0.0101969
20
0.798346
11
0.0101969
21
0.947953
0
LINE
8
BLACK
6
CONTINUOUS
10
0.0101969
20
0.947953
11
0.0495669
21
0.947953
0
LINE
8
BLACK
6
CONTINUOUS
10
0.0495669
20
0.947953
11
0.0495669
21
0.798346
0
LINE
8
BLACK
6
CONTINUOUS
10
0.240335
20
0.79998
11
0.205335
21
0.79998
0
LINE
8
BLACK
6
CONTINUOUS
10
0.205335
20
0.79998
11
0.205335
21
0.85498
0
LINE
8
BLACK
6
CONTINUOUS
10
0.205335
20
0.85498
11
0.240335
21
0.85498
0
LINE
8
BLACK
6
CONTINUOUS
10
0.240335
20
0.85498
11
0.240335
21
0.79998
0
LINE
8
BLACK
6
CONTINUOUS
10
0.315335
20
0.79998
11
0.280335
21
0.79998
0
LINE
8
BLACK
6
CONTINUOUS
10
0.280335
20
0.79998
11
0.280335
21
0.85498
0
LINE
8
BLACK
6
CONTINUOUS
10
0.280335
20
0.85498
11
0.315335
21
0.85498
0
LINE
8
BLACK
6
CONTINUOUS
10
0.315335
20
0.85498
11
0.315335
21
0.79998
0
LINE
8
BLACK
6
CONTINUOUS
10
3.04904
20
0.817717
11
2.99404
21
0.817717
0
LINE
8
BLACK
6
CONTINUOUS
10
2.99404
20
0.817717
11
2.99404
21
0.852717
0
LINE
8
BLACK
6
CONTINUOUS
10
2.99404
20
0.852717
11
3.04904
21
0.852717
0
LINE
8
BLACK
6
CONTINUOUS
10
3.04904
20
0.852717
11
3.04904
21
0.817717
0
LINE
8
BLACK
6
CONTINUOUS
10
2.80709
20
0.821417
11
2.79724
21
0.821417
0
LINE
8
BLACK
6
CONTINUOUS
10
2.79724
20
0.821417
11
2.79724
21
0.864724
0
LINE
8
BLACK
6
CONTINUOUS
10
2.79724
20
0.864724
11
2.80709
21
0.864724
0
LINE
8
BLACK
6
CONTINUOUS
10
2.80709
20
0.864724
11
2.80709
21
0.821417
0
LINE
8
BLACK
6
CONTINUOUS
10
2.82677
20
0.821417
11
2.81693
21
0.821417
0
LINE
8
BLACK
6
CONTINUOUS
10
2.81693
20
0.821417
11
2.81693
21
0.864724
0
LINE
8
BLACK
6
CONTINUOUS
10
2.81693
20
0.864724
11
2.82677
21
0.864724
0
LINE
8
BLACK
6
CONTINUOUS
10
2.82677
20
0.864724
11
2.82677
21
0.821417
0
LINE
8
BLACK
6
CONTINUOUS
10
2.84646
20
0.821417
11
2.83661
21
0.821417
0
LINE
8
BLACK
6
CONTINUOUS
10
2.83661
20
0.821417
11
2.83661
21
0.864724
0
LINE
8
BLACK
6
CONTINUOUS
10
2.83661
20
0.864724
11
2.84646
21
0.864724
0
LINE
8
BLACK
6
CONTINUOUS
10
2.84646
20
0.864724
11
2.84646
21
0.821417
0
LINE
8
BLACK
6
CONTINUOUS
10
2.86614
20
0.821417
11
2.8563
21
0.821417
0
LINE
8
BLACK
6
CONTINUOUS
10
2.8563
20
0.821417
11
2.8563
21
0.864724
0
LINE
8
BLACK
6
CONTINUOUS
10
2.8563
20
0.864724
11
2.86614
21
0.864724
0
LINE
8
BLACK
6
CONTINUOUS
10
2.86614
20
0.864724
11
2.86614
21
0.821417
0
LINE
8
BLACK
6
CONTINUOUS
10
2.88583
20
0.821417
11
2.87598
21
0.821417
0
LINE
8
BLACK
6
CONTINUOUS
10
2.87598
20
0.821417
11
2.87598
21
0.864724
0
LINE
8
BLACK
6
CONTINUOUS
10
2.87598
20
0.864724
11
2.88583
21
0.864724
0
LINE
8
BLACK
6
CONTINUOUS
10
2.88583
20
0.864724
11
2.88583
21
0.821417
0
LINE
8
BLACK
6
CONTINUOUS
10
1.42533
20
0.82248
11
1.37033
21
0.82248
0
LINE
8
BLACK
6
CONTINUOUS
10
1.37033
20
0.82248
11
1.37033
21
0.85748
0
LINE
8
BLACK
6
CONTINUOUS
10
1.37033
20
0.85748
11
1.42533
21
0.85748
0
LINE
8
BLACK
6
CONTINUOUS
10
1.42533
20
0.85748
11
1.42533
21
0.82248
0
LINE
8
BLACK
6
CONTINUOUS
10
1.60039
20
0.827087
11
1.53898
21
0.827087
0
LINE
8
BLACK
6
CONTINUOUS
10
1.53898
20
0.827087
11
1.53898
21
0.852677
0
LINE
8
BLACK
6
CONTINUOUS
10
1.53898
20
0.852677
11
1.60039
21
0.852677
0
LINE
8
BLACK
6
CONTINUOUS
10
1.60039
20
0.852677
11
1.60039
21
0.827087
0
LINE
8
BLACK
6
CONTINUOUS
10
1.70669
20
0.827087
11
1.64528
21
0.827087
0
LINE
8
BLACK
6
CONTINUOUS
10
1.64528
20
0.827087
11
1.64528
21
0.852677
0
LINE
8
BLACK
6
CONTINUOUS
10
1.64528
20
0.852677
11
1.70669
21
0.852677
0
LINE
8
BLACK
6
CONTINUOUS
10
1.70669
20
0.852677
11
1.70669
21
0.827087
0
LINE
8
BLACK
6
CONTINUOUS
10
2.54654
20
0.835217
11
2.51154
21
0.835217
0
LINE
8
BLACK
6
CONTINUOUS
10
2.51154
20
0.835217
11
2.51154
21
0.890217
0
LINE
8
BLACK
6
CONTINUOUS
10
2.51154
20
0.890217
11
2.54654
21
0.890217
0
LINE
8
BLACK
6
CONTINUOUS
10
2.54654
20
0.890217
11
2.54654
21
0.835217
0
LINE
8
BLACK
6
CONTINUOUS
10
2.47154
20
0.835217
11
2.43654
21
0.835217
0
LINE
8
BLACK
6
CONTINUOUS
10
2.43654
20
0.835217
11
2.43654
21
0.890217
0
LINE
8
BLACK
6
CONTINUOUS
10
2.43654
20
0.890217
11
2.47154
21
0.890217
0
LINE
8
BLACK
6
CONTINUOUS
10
2.47154
20
0.890217
11
2.47154
21
0.835217
0
LINE
8
BLACK
6
CONTINUOUS
10
0.995335
20
0.86998
11
0.940335
21
0.86998
0
LINE
8
BLACK
6
CONTINUOUS
10
0.940335
20
0.86998
11
0.940335
21
0.90498
0
LINE
8
BLACK
6
CONTINUOUS
10
0.940335
20
0.90498
11
0.995335
21
0.90498
0
LINE
8
BLACK
6
CONTINUOUS
10
0.995335
20
0.90498
11
0.995335
21
0.86998
0
LINE
8
BLACK
6
CONTINUOUS
10
0.715335
20
0.86998
11
0.660335
21
0.86998
0
LINE
8
BLACK
6
CONTINUOUS
10
0.660335
20
0.86998
11
0.660335
21
0.90498
0
LINE
8
BLACK
6
CONTINUOUS
10
0.660335
20
0.90498
11
0.715335
21
0.90498
0
LINE
8
BLACK
6
CONTINUOUS
10
0.715335
20
0.90498
11
0.715335
21
0.86998
0
LINE
8
BLACK
6
CONTINUOUS
10
1.08533
20
0.86998
11
1.03033
21
0.86998
0
LINE
8
BLACK
6
CONTINUOUS
10
1.03033
20
0.86998
11
1.03033
21
0.90498
0
LINE
8
BLACK
6
CONTINUOUS
10
1.03033
20
0.90498
11
1.08533
21
0.90498
0
LINE
8
BLACK
6
CONTINUOUS
10
1.08533
20
0.90498
11
1.08533
21
0.86998
0
LINE
8
BLACK
6
CONTINUOUS
10
0.795335
20
0.86998
11
0.740335
21
0.86998
0
LINE
8
BLACK
6
CONTINUOUS
10
0.740335
20
0.86998
11
0.740335
21
0.90498
0
LINE
8
BLACK
6
CONTINUOUS
10
0.740335
20
0.90498
11
0.795335
21
0.90498
0
LINE
8
BLACK
6
CONTINUOUS
10
0.795335
20
0.90498
11
0.795335
21
0.86998
0
LINE
8
BLACK
6
CONTINUOUS
10
3.25654
20
0.880217
11
3.22154
21
0.880217
0
LINE
8
BLACK
6
CONTINUOUS
10
3.22154
20
0.880217
11
3.22154
21
0.935217
0
LINE
8
BLACK
6
CONTINUOUS
10
3.22154
20
0.935217
11
3.25654
21
0.935217
0
LINE
8
BLACK
6
CONTINUOUS
10
3.25654
20
0.935217
11
3.25654
21
0.880217
0
LINE
8
BLACK
6
CONTINUOUS
10
3.18154
20
0.880217
11
3.14654
21
0.880217
0
LINE
8
BLACK
6
CONTINUOUS
10
3.14654
20
0.880217
11
3.14654
21
0.935217
0
LINE
8
BLACK
6
CONTINUOUS
10
3.14654
20
0.935217
11
3.18154
21
0.935217
0
LINE
8
BLACK
6
CONTINUOUS
10
3.18154
20
0.935217
11
3.18154
21
0.880217
0
LINE
8
BLACK
6
CONTINUOUS
10
1.99654
20
0.887717
11
1.93654
21
0.887717
0
LINE
8
BLACK
6
CONTINUOUS
10
1.93654
20
0.887717
11
1.93654
21
0.947717
0
LINE
8
BLACK
6
CONTINUOUS
10
1.93654
20
0.947717
11
1.99654
21
0.947717
0
LINE
8
BLACK
6
CONTINUOUS
10
1.99654
20
0.947717
11
1.99654
21
0.887717
0
LINE
8
BLACK
6
CONTINUOUS
10
2.09654
20
0.887717
11
2.03654
21
0.887717
0
LINE
8
BLACK
6
CONTINUOUS
10
2.03654
20
0.887717
11
2.03654
21
0.947717
0
LINE
8
BLACK
6
CONTINUOUS
10
2.03654
20
0.947717
11
2.09654
21
0.947717
0
LINE
8
BLACK
6
CONTINUOUS
10
2.09654
20
0.947717
11
2.09654
21
0.887717
0
LINE
8
BLACK
6
CONTINUOUS
10
3.04904
20
0.892717
11
2.99404
21
0.892717
0
LINE
8
BLACK
6
CONTINUOUS
10
2.99404
20
0.892717
11
2.99404
21
0.927717
0
LINE
8
BLACK
6
CONTINUOUS
10
2.99404
20
0.927717
11
3.04904
21
0.927717
0
LINE
8
BLACK
6
CONTINUOUS
10
3.04904
20
0.927717
11
3.04904
21
0.892717
0
LINE
8
BLACK
6
CONTINUOUS
10
1.70033
20
0.89748
11
1.64533
21
0.89748
0
LINE
8
BLACK
6
CONTINUOUS
10
1.64533
20
0.89748
11
1.64533
21
0.93248
0
LINE
8
BLACK
6
CONTINUOUS
10
1.64533
20
0.93248
11
1.70033
21
0.93248
0
LINE
8
BLACK
6
CONTINUOUS
10
1.70033
20
0.93248
11
1.70033
21
0.89748
0
LINE
8
BLACK
6
CONTINUOUS
10
0.315335
20
0.89998
11
0.280335
21
0.89998
0
LINE
8
BLACK
6
CONTINUOUS
10
0.280335
20
0.89998
11
0.280335
21
0.95498
0
LINE
8
BLACK
6
CONTINUOUS
10
0.280335
20
0.95498
11
0.315335
21
0.95498
0
LINE
8
BLACK
6
CONTINUOUS
10
0.315335
20
0.95498
11
0.315335
21
0.89998
0
LINE
8
BLACK
6
CONTINUOUS
10
0.240335
20
0.89998
11
0.205335
21
0.89998
0
LINE
8
BLACK
6
CONTINUOUS
10
0.205335
20
0.89998
11
0.205335
21
0.95498
0
LINE
8
BLACK
6
CONTINUOUS
10
0.205335
20
0.95498
11
0.240335
21
0.95498
0
LINE
8
BLACK
6
CONTINUOUS
10
0.240335
20
0.95498
11
0.240335
21
0.89998
0
LINE
8
BLACK
6
CONTINUOUS
10
0.452835
20
0.89998
11
0.417835
21
0.89998
0
LINE
8
BLACK
6
CONTINUOUS
10
0.417835
20
0.89998
11
0.417835
21
0.95498
0
LINE
8
BLACK
6
CONTINUOUS
10
0.417835
20
0.95498
11
0.452835
21
0.95498
0
LINE
8
BLACK
6
CONTINUOUS
10
0.452835
20
0.95498
11
0.452835
21
0.89998
0
LINE
8
BLACK
6
CONTINUOUS
10
0.377835
20
0.89998
11
0.342835
21
0.89998
0
LINE
8
BLACK
6
CONTINUOUS
10
0.342835
20
0.89998
11
0.342835
21
0.95498
0
LINE
8
BLACK
6
CONTINUOUS
10
0.342835
20
0.95498
11
0.377835
21
0.95498
0
LINE
8
BLACK
6
CONTINUOUS
10
0.377835
20
0.95498
11
0.377835
21
0.89998
0
LINE
8
BLACK
6
CONTINUOUS
10
0.625335
20
0.90998
11
0.570335
21
0.90998
0
LINE
8
BLACK
6
CONTINUOUS
10
0.570335
20
0.90998
11
0.570335
21
0.94498
0
LINE
8
BLACK
6
CONTINUOUS
10
0.570335
20
0.94498
11
0.625335
21
0.94498
0
LINE
8
BLACK
6
CONTINUOUS
10
0.625335
20
0.94498
11
0.625335
21
0.90998
0
LINE
8
BLACK
6
CONTINUOUS
10
1.41465
20
0.910669
11
1.35362
21
0.910669
0
LINE
8
BLACK
6
CONTINUOUS
10
1.35362
20
0.910669
11
1.35362
21
0.934291
0
LINE
8
BLACK
6
CONTINUOUS
10
1.35362
20
0.934291
11
1.41465
21
0.934291
0
LINE
8
BLACK
6
CONTINUOUS
10
1.41465
20
0.934291
11
1.41465
21
0.910669
0
LINE
8
BLACK
6
CONTINUOUS
10
1.20205
20
0.910669
11
1.14102
21
0.910669
0
LINE
8
BLACK
6
CONTINUOUS
10
1.14102
20
0.910669
11
1.14102
21
0.934291
0
LINE
8
BLACK
6
CONTINUOUS
10
1.14102
20
0.934291
11
1.20205
21
0.934291
0
LINE
8
BLACK
6
CONTINUOUS
10
1.20205
20
0.934291
11
1.20205
21
0.910669
0
LINE
8
BLACK
6
CONTINUOUS
10
1.59533
20
0.91248
11
1.54033
21
0.91248
0
LINE
8
BLACK
6
CONTINUOUS
10
1.54033
20
0.91248
11
1.54033
21
0.94748
0
LINE
8
BLACK
6
CONTINUOUS
10
1.54033
20
0.94748
11
1.59533
21
0.94748
0
LINE
8
BLACK
6
CONTINUOUS
10
1.59533
20
0.94748
11
1.59533
21
0.91248
0
LINE
8
BLACK
6
CONTINUOUS
10
1.50533
20
0.91248
11
1.45033
21
0.91248
0
LINE
8
BLACK
6
CONTINUOUS
10
1.45033
20
0.91248
11
1.45033
21
0.94748
0
LINE
8
BLACK
6
CONTINUOUS
10
1.45033
20
0.94748
11
1.50533
21
0.94748
0
LINE
8
BLACK
6
CONTINUOUS
10
1.50533
20
0.94748
11
1.50533
21
0.91248
0
LINE
8
BLACK
6
CONTINUOUS
10
2.65
20
0.940079
11
2.62835
21
0.940079
0
LINE
8
BLACK
6
CONTINUOUS
10
2.62835
20
0.940079
11
2.62835
21
0.999134
0
LINE
8
BLACK
6
CONTINUOUS
10
2.62835
20
0.999134
11
2.65
21
0.999134
0
LINE
8
BLACK
6
CONTINUOUS
10
2.65
20
0.999134
11
2.65
21
0.940079
0
LINE
8
BLACK
6
CONTINUOUS
10
2.6185
20
0.940079
11
2.59685
21
0.940079
0
LINE
8
BLACK
6
CONTINUOUS
10
2.59685
20
0.940079
11
2.59685
21
0.999134
0
LINE
8
BLACK
6
CONTINUOUS
10
2.59685
20
0.999134
11
2.6185
21
0.999134
0
LINE
8
BLACK
6
CONTINUOUS
10
2.6185
20
0.999134
11
2.6185
21
0.940079
0
LINE
8
BLACK
6
CONTINUOUS
10
2.33504
20
0.940079
11
2.31339
21
0.940079
0
LINE
8
BLACK
6
CONTINUOUS
10
2.31339
20
0.940079
11
2.31339
21
0.999134
0
LINE
8
BLACK
6
CONTINUOUS
10
2.31339
20
0.999134
11
2.33504
21
0.999134
0
LINE
8
BLACK
6
CONTINUOUS
10
2.33504
20
0.999134
11
2.33504
21
0.940079
0
LINE
8
BLACK
6
CONTINUOUS
10
2.36654
20
0.940079
11
2.34488
21
0.940079
0
LINE
8
BLACK
6
CONTINUOUS
10
2.34488
20
0.940079
11
2.34488
21
0.999134
0
LINE
8
BLACK
6
CONTINUOUS
10
2.34488
20
0.999134
11
2.36654
21
0.999134
0
LINE
8
BLACK
6
CONTINUOUS
10
2.36654
20
0.999134
11
2.36654
21
0.940079
0
LINE
8
BLACK
6
CONTINUOUS
10
2.39803
20
0.940079
11
2.37638
21
0.940079
0
LINE
8
BLACK
6
CONTINUOUS
10
2.37638
20
0.940079
11
2.37638
21
0.999134
0
LINE
8
BLACK
6
CONTINUOUS
10
2.37638
20
0.999134
11
2.39803
21
0.999134
0
LINE
8
BLACK
6
CONTINUOUS
10
2.39803
20
0.999134
11
2.39803
21
0.940079
0
LINE
8
BLACK
6
CONTINUOUS
10
2.55551
20
0.940079
11
2.53386
21
0.940079
0
LINE
8
BLACK
6
CONTINUOUS
10
2.53386
20
0.940079
11
2.53386
21
0.999134
0
LINE
8
BLACK
6
CONTINUOUS
10
2.53386
20
0.999134
11
2.55551
21
0.999134
0
LINE
8
BLACK
6
CONTINUOUS
10
2.55551
20
0.999134
11
2.55551
21
0.940079
0
LINE
8
BLACK
6
CONTINUOUS
10
2.42953
20
0.940079
11
2.40787
21
0.940079
0
LINE
8
BLACK
6
CONTINUOUS
10
2.40787
20
0.940079
11
2.40787
21
0.999134
0
LINE
8
BLACK
6
CONTINUOUS
10
2.40787
20
0.999134
11
2.42953
21
0.999134
0
LINE
8
BLACK
6
CONTINUOUS
10
2.42953
20
0.999134
11
2.42953
21
0.940079
0
LINE
8
BLACK
6
CONTINUOUS
10
2.46102
20
0.940079
11
2.43937
21
0.940079
0
LINE
8
BLACK
6
CONTINUOUS
10
2.43937
20
0.940079
11
2.43937
21
0.999134
0
LINE
8
BLACK
6
CONTINUOUS
10
2.43937
20
0.999134
11
2.46102
21
0.999134
0
LINE
8
BLACK
6
CONTINUOUS
10
2.46102
20
0.999134
11
2.46102
21
0.940079
0
LINE
8
BLACK
6
CONTINUOUS
10
2.58701
20
0.940079
11
2.56535
21
0.940079
0
LINE
8
BLACK
6
CONTINUOUS
10
2.56535
20
0.940079
11
2.56535
21
0.999134
0
LINE
8
BLACK
6
CONTINUOUS
10
2.56535
20
0.999134
11
2.58701
21
0.999134
0
LINE
8
BLACK
6
CONTINUOUS
10
2.58701
20
0.999134
11
2.58701
21
0.940079
0
LINE
8
BLACK
6
CONTINUOUS
10
2.49252
20
0.940079
11
2.47087
21
0.940079
0
LINE
8
BLACK
6
CONTINUOUS
10
2.47087
20
0.940079
11
2.47087
21
0.999134
0
LINE
8
BLACK
6
CONTINUOUS
10
2.47087
20
0.999134
11
2.49252
21
0.999134
0
LINE
8
BLACK
6
CONTINUOUS
10
2.49252
20
0.999134
11
2.49252
21
0.940079
0
LINE
8
BLACK
6
CONTINUOUS
10
2.52402
20
0.940079
11
2.50236
21
0.940079
0
LINE
8
BLACK
6
CONTINUOUS
10
2.50236
20
0.940079
11
2.50236
21
0.999134
0
LINE
8
BLACK
6
CONTINUOUS
10
2.50236
20
0.999134
11
2.52402
21
0.999134
0
LINE
8
BLACK
6
CONTINUOUS
10
2.52402
20
0.999134
11
2.52402
21
0.940079
0
LINE
8
BLACK
6
CONTINUOUS
10
0.795335
20
0.94498
11
0.740335
21
0.94498
0
LINE
8
BLACK
6
CONTINUOUS
10
0.740335
20
0.94498
11
0.740335
21
0.97998
0
LINE
8
BLACK
6
CONTINUOUS
10
0.740335
20
0.97998
11
0.795335
21
0.97998
0
LINE
8
BLACK
6
CONTINUOUS
10
0.795335
20
0.97998
11
0.795335
21
0.94498
0
LINE
8
BLACK
6
CONTINUOUS
10
0.715335
20
0.94498
11
0.660335
21
0.94498
0
LINE
8
BLACK
6
CONTINUOUS
10
0.660335
20
0.94498
11
0.660335
21
0.97998
0
LINE
8
BLACK
6
CONTINUOUS
10
0.660335
20
0.97998
11
0.715335
21
0.97998
0
LINE
8
BLACK
6
CONTINUOUS
10
0.715335
20
0.97998
11
0.715335
21
0.94498
0
LINE
8
BLACK
6
CONTINUOUS
10
1.08533
20
0.94498
11
1.03033
21
0.94498
0
LINE
8
BLACK
6
CONTINUOUS
10
1.03033
20
0.94498
11
1.03033
21
0.97998
0
LINE
8
BLACK
6
CONTINUOUS
10
1.03033
20
0.97998
11
1.08533
21
0.97998
0
LINE
8
BLACK
6
CONTINUOUS
10
1.08533
20
0.97998
11
1.08533
21
0.94498
0
LINE
8
BLACK
6
CONTINUOUS
10
0.995335
20
0.94498
11
0.940335
21
0.94498
0
LINE
8
BLACK
6
CONTINUOUS
10
0.940335
20
0.94498
11
0.940335
21
0.97998
0
LINE
8
BLACK
6
CONTINUOUS
10
0.940335
20
0.97998
11
0.995335
21
0.97998
0
LINE
8
BLACK
6
CONTINUOUS
10
0.995335
20
0.97998
11
0.995335
21
0.94498
0
LINE
8
BLACK
6
CONTINUOUS
10
1.20205
20
0.960669
11
1.14102
21
0.960669
0
LINE
8
BLACK
6
CONTINUOUS
10
1.14102
20
0.960669
11
1.14102
21
0.984291
0
LINE
8
BLACK
6
CONTINUOUS
10
1.14102
20
0.984291
11
1.20205
21
0.984291
0
LINE
8
BLACK
6
CONTINUOUS
10
1.20205
20
0.984291
11
1.20205
21
0.960669
0
LINE
8
BLACK
6
CONTINUOUS
10
1.41465
20
0.960669
11
1.35362
21
0.960669
0
LINE
8
BLACK
6
CONTINUOUS
10
1.35362
20
0.960669
11
1.35362
21
0.984291
0
LINE
8
BLACK
6
CONTINUOUS
10
1.35362
20
0.984291
11
1.41465
21
0.984291
0
LINE
8
BLACK
6
CONTINUOUS
10
1.41465
20
0.984291
11
1.41465
21
0.960669
0
LINE
8
BLACK
6
CONTINUOUS
10
3.11654
20
0.970217
11
3.08154
21
0.970217
0
LINE
8
BLACK
6
CONTINUOUS
10
3.08154
20
0.970217
11
3.08154
21
1.02522
0
LINE
8
BLACK
6
CONTINUOUS
10
3.08154
20
1.02522
11
3.11654
21
1.02522
0
LINE
8
BLACK
6
CONTINUOUS
10
3.11654
20
1.02522
11
3.11654
21
0.970217
0
LINE
8
BLACK
6
CONTINUOUS
10
3.19154
20
0.970217
11
3.15654
21
0.970217
0
LINE
8
BLACK
6
CONTINUOUS
10
3.15654
20
0.970217
11
3.15654
21
1.02522
0
LINE
8
BLACK
6
CONTINUOUS
10
3.15654
20
1.02522
11
3.19154
21
1.02522
0
LINE
8
BLACK
6
CONTINUOUS
10
3.19154
20
1.02522
11
3.19154
21
0.970217
0
LINE
8
BLACK
6
CONTINUOUS
10
1.70033
20
0.97248
11
1.64533
21
0.97248
0
LINE
8
BLACK
6
CONTINUOUS
10
1.64533
20
0.97248
11
1.64533
21
1.00748
0
LINE
8
BLACK
6
CONTINUOUS
10
1.64533
20
1.00748
11
1.70033
21
1.00748
0
LINE
8
BLACK
6
CONTINUOUS
10
1.70033
20
1.00748
11
1.70033
21
0.97248
0
LINE
8
BLACK
6
CONTINUOUS
10
2.97154
20
0.980217
11
2.93654
21
0.980217
0
LINE
8
BLACK
6
CONTINUOUS
10
2.93654
20
0.980217
11
2.93654
21
1.03522
0
LINE
8
BLACK
6
CONTINUOUS
10
2.93654
20
1.03522
11
2.97154
21
1.03522
0
LINE
8
BLACK
6
CONTINUOUS
10
2.97154
20
1.03522
11
2.97154
21
0.980217
0
LINE
8
BLACK
6
CONTINUOUS
10
3.04654
20
0.980217
11
3.01154
21
0.980217
0
LINE
8
BLACK
6
CONTINUOUS
10
3.01154
20
0.980217
11
3.01154
21
1.03522
0
LINE
8
BLACK
6
CONTINUOUS
10
3.01154
20
1.03522
11
3.04654
21
1.03522
0
LINE
8
BLACK
6
CONTINUOUS
10
3.04654
20
1.03522
11
3.04654
21
0.980217
0
LINE
8
BLACK
6
CONTINUOUS
10
0.625335
20
0.98498
11
0.570335
21
0.98498
0
LINE
8
BLACK
6
CONTINUOUS
10
0.570335
20
0.98498
11
0.570335
21
1.01998
0
LINE
8
BLACK
6
CONTINUOUS
10
0.570335
20
1.01998
11
0.625335
21
1.01998
0
LINE
8
BLACK
6
CONTINUOUS
10
0.625335
20
1.01998
11
0.625335
21
0.98498
0
LINE
8
BLACK
6
CONTINUOUS
10
1.59533
20
0.98748
11
1.54033
21
0.98748
0
LINE
8
BLACK
6
CONTINUOUS
10
1.54033
20
0.98748
11
1.54033
21
1.02248
0
LINE
8
BLACK
6
CONTINUOUS
10
1.54033
20
1.02248
11
1.59533
21
1.02248
0
LINE
8
BLACK
6
CONTINUOUS
10
1.59533
20
1.02248
11
1.59533
21
0.98748
0
LINE
8
BLACK
6
CONTINUOUS
10
1.50533
20
0.98748
11
1.45033
21
0.98748
0
LINE
8
BLACK
6
CONTINUOUS
10
1.45033
20
0.98748
11
1.45033
21
1.02248
0
LINE
8
BLACK
6
CONTINUOUS
10
1.45033
20
1.02248
11
1.50533
21
1.02248
0
LINE
8
BLACK
6
CONTINUOUS
10
1.50533
20
1.02248
11
1.50533
21
0.98748
0
LINE
8
BLACK
6
CONTINUOUS
10
2.09654
20
0.987717
11
2.03654
21
0.987717
0
LINE
8
BLACK
6
CONTINUOUS
10
2.03654
20
0.987717
11
2.03654
21
1.04772
0
LINE
8
BLACK
6
CONTINUOUS
10
2.03654
20
1.04772
11
2.09654
21
1.04772
0
LINE
8
BLACK
6
CONTINUOUS
10
2.09654
20
1.04772
11
2.09654
21
0.987717
0
LINE
8
BLACK
6
CONTINUOUS
10
1.99654
20
0.987717
11
1.93654
21
0.987717
0
LINE
8
BLACK
6
CONTINUOUS
10
1.93654
20
0.987717
11
1.93654
21
1.04772
0
LINE
8
BLACK
6
CONTINUOUS
10
1.93654
20
1.04772
11
1.99654
21
1.04772
0
LINE
8
BLACK
6
CONTINUOUS
10
1.99654
20
1.04772
11
1.99654
21
0.987717
0
LINE
8
BLACK
6
CONTINUOUS
10
0.534646
20
0.990669
11
0.473622
21
0.990669
0
LINE
8
BLACK
6
CONTINUOUS
10
0.473622
20
0.990669
11
0.473622
21
1.01429
0
LINE
8
BLACK
6
CONTINUOUS
10
0.473622
20
1.01429
11
0.534646
21
1.01429
0
LINE
8
BLACK
6
CONTINUOUS
10
0.534646
20
1.01429
11
0.534646
21
0.990669
0
LINE
8
BLACK
6
CONTINUOUS
10
0.322047
20
0.990669
11
0.261024
21
0.990669
0
LINE
8
BLACK
6
CONTINUOUS
10
0.261024
20
0.990669
11
0.261024
21
1.01429
0
LINE
8
BLACK
6
CONTINUOUS
10
0.261024
20
1.01429
11
0.322047
21
1.01429
0
LINE
8
BLACK
6
CONTINUOUS
10
0.322047
20
1.01429
11
0.322047
21
0.990669
0
LINE
8
BLACK
6
CONTINUOUS
10
2.82677
20
0.990709
11
2.81693
21
0.990709
0
LINE
8
BLACK
6
CONTINUOUS
10
2.81693
20
0.990709
11
2.81693
21
1.03402
0
LINE
8
BLACK
6
CONTINUOUS
10
2.81693
20
1.03402
11
2.82677
21
1.03402
0
LINE
8
BLACK
6
CONTINUOUS
10
2.82677
20
1.03402
11
2.82677
21
0.990709
0
LINE
8
BLACK
6
CONTINUOUS
10
2.88583
20
0.990709
11
2.87598
21
0.990709
0
LINE
8
BLACK
6
CONTINUOUS
10
2.87598
20
0.990709
11
2.87598
21
1.03402
0
LINE
8
BLACK
6
CONTINUOUS
10
2.87598
20
1.03402
11
2.88583
21
1.03402
0
LINE
8
BLACK
6
CONTINUOUS
10
2.88583
20
1.03402
11
2.88583
21
0.990709
0
LINE
8
BLACK
6
CONTINUOUS
10
2.86614
20
0.990709
11
2.8563
21
0.990709
0
LINE
8
BLACK
6
CONTINUOUS
10
2.8563
20
0.990709
11
2.8563
21
1.03402
0
LINE
8
BLACK
6
CONTINUOUS
10
2.8563
20
1.03402
11
2.86614
21
1.03402
0
LINE
8
BLACK
6
CONTINUOUS
10
2.86614
20
1.03402
11
2.86614
21
0.990709
0
LINE
8
BLACK
6
CONTINUOUS
10
2.84646
20
0.990709
11
2.83661
21
0.990709
0
LINE
8
BLACK
6
CONTINUOUS
10
2.83661
20
0.990709
11
2.83661
21
1.03402
0
LINE
8
BLACK
6
CONTINUOUS
10
2.83661
20
1.03402
11
2.84646
21
1.03402
0
LINE
8
BLACK
6
CONTINUOUS
10
2.84646
20
1.03402
11
2.84646
21
0.990709
0
LINE
8
BLACK
6
CONTINUOUS
10
2.80709
20
0.990709
11
2.79724
21
0.990709
0
LINE
8
BLACK
6
CONTINUOUS
10
2.79724
20
0.990709
11
2.79724
21
1.03402
0
LINE
8
BLACK
6
CONTINUOUS
10
2.79724
20
1.03402
11
2.80709
21
1.03402
0
LINE
8
BLACK
6
CONTINUOUS
10
2.80709
20
1.03402
11
2.80709
21
0.990709
0
LINE
8
BLACK
6
CONTINUOUS
10
0.725335
20
1.00998
11
0.670335
21
1.00998
0
LINE
8
BLACK
6
CONTINUOUS
10
0.670335
20
1.00998
11
0.670335
21
1.04498
0
LINE
8
BLACK
6
CONTINUOUS
10
0.670335
20
1.04498
11
0.725335
21
1.04498
0
LINE
8
BLACK
6
CONTINUOUS
10
0.725335
20
1.04498
11
0.725335
21
1.00998
0
LINE
8
BLACK
6
CONTINUOUS
10
0.815335
20
1.00998
11
0.760335
21
1.00998
0
LINE
8
BLACK
6
CONTINUOUS
10
0.760335
20
1.00998
11
0.760335
21
1.04498
0
LINE
8
BLACK
6
CONTINUOUS
10
0.760335
20
1.04498
11
0.815335
21
1.04498
0
LINE
8
BLACK
6
CONTINUOUS
10
0.815335
20
1.04498
11
0.815335
21
1.00998
0
LINE
8
BLACK
6
CONTINUOUS
10
1.20205
20
1.01067
11
1.14102
21
1.01067
0
LINE
8
BLACK
6
CONTINUOUS
10
1.14102
20
1.01067
11
1.14102
21
1.03429
0
LINE
8
BLACK
6
CONTINUOUS
10
1.14102
20
1.03429
11
1.20205
21
1.03429
0
LINE
8
BLACK
6
CONTINUOUS
10
1.20205
20
1.03429
11
1.20205
21
1.01067
0
LINE
8
BLACK
6
CONTINUOUS
10
1.41465
20
1.01067
11
1.35362
21
1.01067
0
LINE
8
BLACK
6
CONTINUOUS
10
1.35362
20
1.01067
11
1.35362
21
1.03429
0
LINE
8
BLACK
6
CONTINUOUS
10
1.35362
20
1.03429
11
1.41465
21
1.03429
0
LINE
8
BLACK
6
CONTINUOUS
10
1.41465
20
1.03429
11
1.41465
21
1.01067
0
LINE
8
BLACK
6
CONTINUOUS
10
0.995335
20
1.01498
11
0.940335
21
1.01498
0
LINE
8
BLACK
6
CONTINUOUS
10
0.940335
20
1.01498
11
0.940335
21
1.04998
0
LINE
8
BLACK
6
CONTINUOUS
10
0.940335
20
1.04998
11
0.995335
21
1.04998
0
LINE
8
BLACK
6
CONTINUOUS
10
0.995335
20
1.04998
11
0.995335
21
1.01498
0
LINE
8
BLACK
6
CONTINUOUS
10
0.915335
20
1.01498
11
0.860335
21
1.01498
0
LINE
8
BLACK
6
CONTINUOUS
10
0.860335
20
1.01498
11
0.860335
21
1.04998
0
LINE
8
BLACK
6
CONTINUOUS
10
0.860335
20
1.04998
11
0.915335
21
1.04998
0
LINE
8
BLACK
6
CONTINUOUS
10
0.915335
20
1.04998
11
0.915335
21
1.01498
0
LINE
8
BLACK
6
CONTINUOUS
10
2.28681
20
1.02571
11
2.22776
21
1.02571
0
LINE
8
BLACK
6
CONTINUOUS
10
2.22776
20
1.02571
11
2.22776
21
1.04736
0
LINE
8
BLACK
6
CONTINUOUS
10
2.22776
20
1.04736
11
2.28681
21
1.04736
0
LINE
8
BLACK
6
CONTINUOUS
10
2.28681
20
1.04736
11
2.28681
21
1.02571
0
LINE
8
BLACK
6
CONTINUOUS
10
2.73563
20
1.02571
11
2.67657
21
1.02571
0
LINE
8
BLACK
6
CONTINUOUS
10
2.67657
20
1.02571
11
2.67657
21
1.04736
0
LINE
8
BLACK
6
CONTINUOUS
10
2.67657
20
1.04736
11
2.73563
21
1.04736
0
LINE
8
BLACK
6
CONTINUOUS
10
2.73563
20
1.04736
11
2.73563
21
1.02571
0
LINE
8
BLACK
6
CONTINUOUS
10
1.84591
20
1.03217
11
1.80654
21
1.03217
0
LINE
8
BLACK
6
CONTINUOUS
10
1.80654
20
1.03217
11
1.80654
21
1.18177
0
LINE
8
BLACK
6
CONTINUOUS
10
1.80654
20
1.18177
11
1.84591
21
1.18177
0
LINE
8
BLACK
6
CONTINUOUS
10
1.84591
20
1.18177
11
1.84591
21
1.03217
0
LINE
8
BLACK
6
CONTINUOUS
10
3.57031
20
1.03217
11
3.53094
21
1.03217
0
LINE
8
BLACK
6
CONTINUOUS
10
3.53094
20
1.03217
11
3.53094
21
1.18177
0
LINE
8
BLACK
6
CONTINUOUS
10
3.53094
20
1.18177
11
3.57031
21
1.18177
0
LINE
8
BLACK
6
CONTINUOUS
10
3.57031
20
1.18177
11
3.57031
21
1.03217
0
LINE
8
BLACK
6
CONTINUOUS
10
0.0495669
20
1.03457
11
0.0101969
21
1.03457
0
LINE
8
BLACK
6
CONTINUOUS
10
0.0101969
20
1.03457
11
0.0101969
21
1.18417
0
LINE
8
BLACK
6
CONTINUOUS
10
0.0101969
20
1.18417
11
0.0495669
21
1.18417
0
LINE
8
BLACK
6
CONTINUOUS
10
0.0495669
20
1.18417
11
0.0495669
21
1.03457
0
LINE
8
BLACK
6
CONTINUOUS
10
1.77398
20
1.03457
11
1.73461
21
1.03457
0
LINE
8
BLACK
6
CONTINUOUS
10
1.73461
20
1.03457
11
1.73461
21
1.18417
0
LINE
8
BLACK
6
CONTINUOUS
10
1.73461
20
1.18417
11
1.77398
21
1.18417
0
LINE
8
BLACK
6
CONTINUOUS
10
1.77398
20
1.18417
11
1.77398
21
1.03457
0
LINE
8
BLACK
6
CONTINUOUS
10
0.322047
20
1.04067
11
0.261024
21
1.04067
0
LINE
8
BLACK
6
CONTINUOUS
10
0.261024
20
1.04067
11
0.261024
21
1.06429
0
LINE
8
BLACK
6
CONTINUOUS
10
0.261024
20
1.06429
11
0.322047
21
1.06429
0
LINE
8
BLACK
6
CONTINUOUS
10
0.322047
20
1.06429
11
0.322047
21
1.04067
0
LINE
8
BLACK
6
CONTINUOUS
10
0.534646
20
1.04067
11
0.473622
21
1.04067
0
LINE
8
BLACK
6
CONTINUOUS
10
0.473622
20
1.04067
11
0.473622
21
1.06429
0
LINE
8
BLACK
6
CONTINUOUS
10
0.473622
20
1.06429
11
0.534646
21
1.06429
0
LINE
8
BLACK
6
CONTINUOUS
10
0.534646
20
1.06429
11
0.534646
21
1.04067
0
LINE
8
BLACK
6
CONTINUOUS
10
1.09533
20
1.04748
11
1.04033
21
1.04748
0
LINE
8
BLACK
6
CONTINUOUS
10
1.04033
20
1.04748
11
1.04033
21
1.08248
0
LINE
8
BLACK
6
CONTINUOUS
10
1.04033
20
1.08248
11
1.09533
21
1.08248
0
LINE
8
BLACK
6
CONTINUOUS
10
1.09533
20
1.08248
11
1.09533
21
1.04748
0
LINE
8
BLACK
6
CONTINUOUS
10
3.24154
20
1.05522
11
3.20654
21
1.05522
0
LINE
8
BLACK
6
CONTINUOUS
10
3.20654
20
1.05522
11
3.20654
21
1.11022
0
LINE
8
BLACK
6
CONTINUOUS
10
3.20654
20
1.11022
11
3.24154
21
1.11022
0
LINE
8
BLACK
6
CONTINUOUS
10
3.24154
20
1.11022
11
3.24154
21
1.05522
0
LINE
8
BLACK
6
CONTINUOUS
10
3.16654
20
1.05522
11
3.13154
21
1.05522
0
LINE
8
BLACK
6
CONTINUOUS
10
3.13154
20
1.05522
11
3.13154
21
1.11022
0
LINE
8
BLACK
6
CONTINUOUS
10
3.13154
20
1.11022
11
3.16654
21
1.11022
0
LINE
8
BLACK
6
CONTINUOUS
10
3.16654
20
1.11022
11
3.16654
21
1.05522
0
LINE
8
BLACK
6
CONTINUOUS
10
2.73563
20
1.0572
11
2.67657
21
1.0572
0
LINE
8
BLACK
6
CONTINUOUS
10
2.67657
20
1.0572
11
2.67657
21
1.07886
0
LINE
8
BLACK
6
CONTINUOUS
10
2.67657
20
1.07886
11
2.73563
21
1.07886
0
LINE
8
BLACK
6
CONTINUOUS
10
2.73563
20
1.07886
11
2.73563
21
1.0572
0
LINE
8
BLACK
6
CONTINUOUS
10
2.28681
20
1.0572
11
2.22776
21
1.0572
0
LINE
8
BLACK
6
CONTINUOUS
10
2.22776
20
1.0572
11
2.22776
21
1.07886
0
LINE
8
BLACK
6
CONTINUOUS
10
2.22776
20
1.07886
11
2.28681
21
1.07886
0
LINE
8
BLACK
6
CONTINUOUS
10
2.28681
20
1.07886
11
2.28681
21
1.0572
0
LINE
8
BLACK
6
CONTINUOUS
10
1.56783
20
1.05998
11
1.53283
21
1.05998
0
LINE
8
BLACK
6
CONTINUOUS
10
1.53283
20
1.05998
11
1.53283
21
1.11498
0
LINE
8
BLACK
6
CONTINUOUS
10
1.53283
20
1.11498
11
1.56783
21
1.11498
0
LINE
8
BLACK
6
CONTINUOUS
10
1.56783
20
1.11498
11
1.56783
21
1.05998
0
LINE
8
BLACK
6
CONTINUOUS
10
1.64283
20
1.05998
11
1.60783
21
1.05998
0
LINE
8
BLACK
6
CONTINUOUS
10
1.60783
20
1.05998
11
1.60783
21
1.11498
0
LINE
8
BLACK
6
CONTINUOUS
10
1.60783
20
1.11498
11
1.64283
21
1.11498
0
LINE
8
BLACK
6
CONTINUOUS
10
1.64283
20
1.11498
11
1.64283
21
1.05998
0
LINE
8
BLACK
6
CONTINUOUS
10
1.20205
20
1.06067
11
1.14102
21
1.06067
0
LINE
8
BLACK
6
CONTINUOUS
10
1.14102
20
1.06067
11
1.14102
21
1.08429
0
LINE
8
BLACK
6
CONTINUOUS
10
1.14102
20
1.08429
11
1.20205
21
1.08429
0
LINE
8
BLACK
6
CONTINUOUS
10
1.20205
20
1.08429
11
1.20205
21
1.06067
0
LINE
8
BLACK
6
CONTINUOUS
10
1.41465
20
1.06067
11
1.35362
21
1.06067
0
LINE
8
BLACK
6
CONTINUOUS
10
1.35362
20
1.06067
11
1.35362
21
1.08429
0
LINE
8
BLACK
6
CONTINUOUS
10
1.35362
20
1.08429
11
1.41465
21
1.08429
0
LINE
8
BLACK
6
CONTINUOUS
10
1.41465
20
1.08429
11
1.41465
21
1.06067
0
LINE
8
BLACK
6
CONTINUOUS
10
1.50533
20
1.06248
11
1.45033
21
1.06248
0
LINE
8
BLACK
6
CONTINUOUS
10
1.45033
20
1.06248
11
1.45033
21
1.09748
0
LINE
8
BLACK
6
CONTINUOUS
10
1.45033
20
1.09748
11
1.50533
21
1.09748
0
LINE
8
BLACK
6
CONTINUOUS
10
1.50533
20
1.09748
11
1.50533
21
1.06248
0
LINE
8
BLACK
6
CONTINUOUS
10
3.08404
20
1.07522
11
3.04904
21
1.07522
0
LINE
8
BLACK
6
CONTINUOUS
10
3.04904
20
1.07522
11
3.04904
21
1.13022
0
LINE
8
BLACK
6
CONTINUOUS
10
3.04904
20
1.13022
11
3.08404
21
1.13022
0
LINE
8
BLACK
6
CONTINUOUS
10
3.08404
20
1.13022
11
3.08404
21
1.07522
0
LINE
8
BLACK
6
CONTINUOUS
10
3.00904
20
1.07522
11
2.97404
21
1.07522
0
LINE
8
BLACK
6
CONTINUOUS
10
2.97404
20
1.07522
11
2.97404
21
1.13022
0
LINE
8
BLACK
6
CONTINUOUS
10
2.97404
20
1.13022
11
3.00904
21
1.13022
0
LINE
8
BLACK
6
CONTINUOUS
10
3.00904
20
1.13022
11
3.00904
21
1.07522
0
LINE
8
BLACK
6
CONTINUOUS
10
0.815335
20
1.08498
11
0.760335
21
1.08498
0
LINE
8
BLACK
6
CONTINUOUS
10
0.760335
20
1.08498
11
0.760335
21
1.11998
0
LINE
8
BLACK
6
CONTINUOUS
10
0.760335
20
1.11998
11
0.815335
21
1.11998
0
LINE
8
BLACK
6
CONTINUOUS
10
0.815335
20
1.11998
11
0.815335
21
1.08498
0
LINE
8
BLACK
6
CONTINUOUS
10
0.725335
20
1.08498
11
0.670335
21
1.08498
0
LINE
8
BLACK
6
CONTINUOUS
10
0.670335
20
1.08498
11
0.670335
21
1.11998
0
LINE
8
BLACK
6
CONTINUOUS
10
0.670335
20
1.11998
11
0.725335
21
1.11998
0
LINE
8
BLACK
6
CONTINUOUS
10
0.725335
20
1.11998
11
0.725335
21
1.08498
0
LINE
8
BLACK
6
CONTINUOUS
10
2.09654
20
1.08772
11
2.03654
21
1.08772
0
LINE
8
BLACK
6
CONTINUOUS
10
2.03654
20
1.08772
11
2.03654
21
1.14772
0
LINE
8
BLACK
6
CONTINUOUS
10
2.03654
20
1.14772
11
2.09654
21
1.14772
0
LINE
8
BLACK
6
CONTINUOUS
10
2.09654
20
1.14772
11
2.09654
21
1.08772
0
LINE
8
BLACK
6
CONTINUOUS
10
1.99654
20
1.08772
11
1.93654
21
1.08772
0
LINE
8
BLACK
6
CONTINUOUS
10
1.93654
20
1.08772
11
1.93654
21
1.14772
0
LINE
8
BLACK
6
CONTINUOUS
10
1.93654
20
1.14772
11
1.99654
21
1.14772
0
LINE
8
BLACK
6
CONTINUOUS
10
1.99654
20
1.14772
11
1.99654
21
1.08772
0
LINE
8
BLACK
6
CONTINUOUS
10
2.73563
20
1.0887
11
2.67657
21
1.0887
0
LINE
8
BLACK
6
CONTINUOUS
10
2.67657
20
1.0887
11
2.67657
21
1.11035
0
LINE
8
BLACK
6
CONTINUOUS
10
2.67657
20
1.11035
11
2.73563
21
1.11035
0
LINE
8
BLACK
6
CONTINUOUS
10
2.73563
20
1.11035
11
2.73563
21
1.0887
0
LINE
8
BLACK
6
CONTINUOUS
10
2.28681
20
1.0887
11
2.22776
21
1.0887
0
LINE
8
BLACK
6
CONTINUOUS
10
2.22776
20
1.0887
11
2.22776
21
1.11035
0
LINE
8
BLACK
6
CONTINUOUS
10
2.22776
20
1.11035
11
2.28681
21
1.11035
0
LINE
8
BLACK
6
CONTINUOUS
10
2.28681
20
1.11035
11
2.28681
21
1.0887
0
LINE
8
BLACK
6
CONTINUOUS
10
0.995335
20
1.08998
11
0.940335
21
1.08998
0
LINE
8
BLACK
6
CONTINUOUS
10
0.940335
20
1.08998
11
0.940335
21
1.12498
0
LINE
8
BLACK
6
CONTINUOUS
10
0.940335
20
1.12498
11
0.995335
21
1.12498
0
LINE
8
BLACK
6
CONTINUOUS
10
0.995335
20
1.12498
11
0.995335
21
1.08998
0
LINE
8
BLACK
6
CONTINUOUS
10
0.915335
20
1.08998
11
0.860335
21
1.08998
0
LINE
8
BLACK
6
CONTINUOUS
10
0.860335
20
1.08998
11
0.860335
21
1.12498
0
LINE
8
BLACK
6
CONTINUOUS
10
0.860335
20
1.12498
11
0.915335
21
1.12498
0
LINE
8
BLACK
6
CONTINUOUS
10
0.915335
20
1.12498
11
0.915335
21
1.08998
0
LINE
8
BLACK
6
CONTINUOUS
10
0.534646
20
1.09067
11
0.473622
21
1.09067
0
LINE
8
BLACK
6
CONTINUOUS
10
0.473622
20
1.09067
11
0.473622
21
1.11429
0
LINE
8
BLACK
6
CONTINUOUS
10
0.473622
20
1.11429
11
0.534646
21
1.11429
0
LINE
8
BLACK
6
CONTINUOUS
10
0.534646
20
1.11429
11
0.534646
21
1.09067
0
LINE
8
BLACK
6
CONTINUOUS
10
0.322047
20
1.09067
11
0.261024
21
1.09067
0
LINE
8
BLACK
6
CONTINUOUS
10
0.261024
20
1.09067
11
0.261024
21
1.11429
0
LINE
8
BLACK
6
CONTINUOUS
10
0.261024
20
1.11429
11
0.322047
21
1.11429
0
LINE
8
BLACK
6
CONTINUOUS
10
0.322047
20
1.11429
11
0.322047
21
1.09067
0
LINE
8
BLACK
6
CONTINUOUS
10
2.93904
20
1.09272
11
2.88404
21
1.09272
0
LINE
8
BLACK
6
CONTINUOUS
10
2.88404
20
1.09272
11
2.88404
21
1.12772
0
LINE
8
BLACK
6
CONTINUOUS
10
2.88404
20
1.12772
11
2.93904
21
1.12772
0
LINE
8
BLACK
6
CONTINUOUS
10
2.93904
20
1.12772
11
2.93904
21
1.09272
0
LINE
8
BLACK
6
CONTINUOUS
10
2.84904
20
1.09272
11
2.79404
21
1.09272
0
LINE
8
BLACK
6
CONTINUOUS
10
2.79404
20
1.09272
11
2.79404
21
1.12772
0
LINE
8
BLACK
6
CONTINUOUS
10
2.79404
20
1.12772
11
2.84904
21
1.12772
0
LINE
8
BLACK
6
CONTINUOUS
10
2.84904
20
1.12772
11
2.84904
21
1.09272
0
LINE
8
BLACK
6
CONTINUOUS
10
0.225335
20
1.10998
11
0.170335
21
1.10998
0
LINE
8
BLACK
6
CONTINUOUS
10
0.170335
20
1.10998
11
0.170335
21
1.14498
0
LINE
8
BLACK
6
CONTINUOUS
10
0.170335
20
1.14498
11
0.225335
21
1.14498
0
LINE
8
BLACK
6
CONTINUOUS
10
0.225335
20
1.14498
11
0.225335
21
1.10998
0
LINE
8
BLACK
6
CONTINUOUS
10
2.28681
20
1.1202
11
2.22776
21
1.1202
0
LINE
8
BLACK
6
CONTINUOUS
10
2.22776
20
1.1202
11
2.22776
21
1.14185
0
LINE
8
BLACK
6
CONTINUOUS
10
2.22776
20
1.14185
11
2.28681
21
1.14185
0
LINE
8
BLACK
6
CONTINUOUS
10
2.28681
20
1.14185
11
2.28681
21
1.1202
0
LINE
8
BLACK
6
CONTINUOUS
10
2.73563
20
1.1202
11
2.67657
21
1.1202
0
LINE
8
BLACK
6
CONTINUOUS
10
2.67657
20
1.1202
11
2.67657
21
1.14185
0
LINE
8
BLACK
6
CONTINUOUS
10
2.67657
20
1.14185
11
2.73563
21
1.14185
0
LINE
8
BLACK
6
CONTINUOUS
10
2.73563
20
1.14185
11
2.73563
21
1.1202
0
LINE
8
BLACK
6
CONTINUOUS
10
1.09533
20
1.12248
11
1.04033
21
1.12248
0
LINE
8
BLACK
6
CONTINUOUS
10
1.04033
20
1.12248
11
1.04033
21
1.15748
0
LINE
8
BLACK
6
CONTINUOUS
10
1.04033
20
1.15748
11
1.09533
21
1.15748
0
LINE
8
BLACK
6
CONTINUOUS
10
1.09533
20
1.15748
11
1.09533
21
1.12248
0
LINE
8
BLACK
6
CONTINUOUS
10
3.24154
20
1.13522
11
3.20654
21
1.13522
0
LINE
8
BLACK
6
CONTINUOUS
10
3.20654
20
1.13522
11
3.20654
21
1.19022
0
LINE
8
BLACK
6
CONTINUOUS
10
3.20654
20
1.19022
11
3.24154
21
1.19022
0
LINE
8
BLACK
6
CONTINUOUS
10
3.24154
20
1.19022
11
3.24154
21
1.13522
0
LINE
8
BLACK
6
CONTINUOUS
10
3.16654
20
1.13522
11
3.13154
21
1.13522
0
LINE
8
BLACK
6
CONTINUOUS
10
3.13154
20
1.13522
11
3.13154
21
1.19022
0
LINE
8
BLACK
6
CONTINUOUS
10
3.13154
20
1.19022
11
3.16654
21
1.19022
0
LINE
8
BLACK
6
CONTINUOUS
10
3.16654
20
1.19022
11
3.16654
21
1.13522
0
LINE
8
BLACK
6
CONTINUOUS
10
1.50533
20
1.13748
11
1.45033
21
1.13748
0
LINE
8
BLACK
6
CONTINUOUS
10
1.45033
20
1.13748
11
1.45033
21
1.17248
0
LINE
8
BLACK
6
CONTINUOUS
10
1.45033
20
1.17248
11
1.50533
21
1.17248
0
LINE
8
BLACK
6
CONTINUOUS
10
1.50533
20
1.17248
11
1.50533
21
1.13748
0
LINE
8
BLACK
6
CONTINUOUS
10
0.322047
20
1.14067
11
0.261024
21
1.14067
0
LINE
8
BLACK
6
CONTINUOUS
10
0.261024
20
1.14067
11
0.261024
21
1.16429
0
LINE
8
BLACK
6
CONTINUOUS
10
0.261024
20
1.16429
11
0.322047
21
1.16429
0
LINE
8
BLACK
6
CONTINUOUS
10
0.322047
20
1.16429
11
0.322047
21
1.14067
0
LINE
8
BLACK
6
CONTINUOUS
10
0.534646
20
1.14067
11
0.473622
21
1.14067
0
LINE
8
BLACK
6
CONTINUOUS
10
0.473622
20
1.14067
11
0.473622
21
1.16429
0
LINE
8
BLACK
6
CONTINUOUS
10
0.473622
20
1.16429
11
0.534646
21
1.16429
0
LINE
8
BLACK
6
CONTINUOUS
10
0.534646
20
1.16429
11
0.534646
21
1.14067
0
LINE
8
BLACK
6
CONTINUOUS
10
0.625335
20
1.14748
11
0.570335
21
1.14748
0
LINE
8
BLACK
6
CONTINUOUS
10
0.570335
20
1.14748
11
0.570335
21
1.18248
0
LINE
8
BLACK
6
CONTINUOUS
10
0.570335
20
1.18248
11
0.625335
21
1.18248
0
LINE
8
BLACK
6
CONTINUOUS
10
0.625335
20
1.18248
11
0.625335
21
1.14748
0
LINE
8
BLACK
6
CONTINUOUS
10
0.725335
20
1.14998
11
0.670335
21
1.14998
0
LINE
8
BLACK
6
CONTINUOUS
10
0.670335
20
1.14998
11
0.670335
21
1.18498
0
LINE
8
BLACK
6
CONTINUOUS
10
0.670335
20
1.18498
11
0.725335
21
1.18498
0
LINE
8
BLACK
6
CONTINUOUS
10
0.725335
20
1.18498
11
0.725335
21
1.14998
0
LINE
8
BLACK
6
CONTINUOUS
10
2.28681
20
1.15169
11
2.22776
21
1.15169
0
LINE
8
BLACK
6
CONTINUOUS
10
2.22776
20
1.15169
11
2.22776
21
1.17335
0
LINE
8
BLACK
6
CONTINUOUS
10
2.22776
20
1.17335
11
2.28681
21
1.17335
0
LINE
8
BLACK
6
CONTINUOUS
10
2.28681
20
1.17335
11
2.28681
21
1.15169
0
LINE
8
BLACK
6
CONTINUOUS
10
2.73563
20
1.15169
11
2.67657
21
1.15169
0
LINE
8
BLACK
6
CONTINUOUS
10
2.67657
20
1.15169
11
2.67657
21
1.17335
0
LINE
8
BLACK
6
CONTINUOUS
10
2.67657
20
1.17335
11
2.73563
21
1.17335
0
LINE
8
BLACK
6
CONTINUOUS
10
2.73563
20
1.17335
11
2.73563
21
1.15169
0
LINE
8
BLACK
6
CONTINUOUS
10
2.84904
20
1.16772
11
2.79404
21
1.16772
0
LINE
8
BLACK
6
CONTINUOUS
10
2.79404
20
1.16772
11
2.79404
21
1.20272
0
LINE
8
BLACK
6
CONTINUOUS
10
2.79404
20
1.20272
11
2.84904
21
1.20272
0
LINE
8
BLACK
6
CONTINUOUS
10
2.84904
20
1.20272
11
2.84904
21
1.16772
0
LINE
8
BLACK
6
CONTINUOUS
10
2.93904
20
1.16772
11
2.88404
21
1.16772
0
LINE
8
BLACK
6
CONTINUOUS
10
2.88404
20
1.16772
11
2.88404
21
1.20272
0
LINE
8
BLACK
6
CONTINUOUS
10
2.88404
20
1.20272
11
2.93904
21
1.20272
0
LINE
8
BLACK
6
CONTINUOUS
10
2.93904
20
1.20272
11
2.93904
21
1.16772
0
LINE
8
BLACK
6
CONTINUOUS
10
2.03904
20
1.18022
11
2.00404
21
1.18022
0
LINE
8
BLACK
6
CONTINUOUS
10
2.00404
20
1.18022
11
2.00404
21
1.23522
0
LINE
8
BLACK
6
CONTINUOUS
10
2.00404
20
1.23522
11
2.03904
21
1.23522
0
LINE
8
BLACK
6
CONTINUOUS
10
2.03904
20
1.23522
11
2.03904
21
1.18022
0
LINE
8
BLACK
6
CONTINUOUS
10
1.96404
20
1.18022
11
1.92904
21
1.18022
0
LINE
8
BLACK
6
CONTINUOUS
10
1.92904
20
1.18022
11
1.92904
21
1.23522
0
LINE
8
BLACK
6
CONTINUOUS
10
1.92904
20
1.23522
11
1.96404
21
1.23522
0
LINE
8
BLACK
6
CONTINUOUS
10
1.96404
20
1.23522
11
1.96404
21
1.18022
0
LINE
8
BLACK
6
CONTINUOUS
10
2.73563
20
1.18319
11
2.67657
21
1.18319
0
LINE
8
BLACK
6
CONTINUOUS
10
2.67657
20
1.18319
11
2.67657
21
1.20484
0
LINE
8
BLACK
6
CONTINUOUS
10
2.67657
20
1.20484
11
2.73563
21
1.20484
0
LINE
8
BLACK
6
CONTINUOUS
10
2.73563
20
1.20484
11
2.73563
21
1.18319
0
LINE
8
BLACK
6
CONTINUOUS
10
2.28681
20
1.18319
11
2.22776
21
1.18319
0
LINE
8
BLACK
6
CONTINUOUS
10
2.22776
20
1.18319
11
2.22776
21
1.20484
0
LINE
8
BLACK
6
CONTINUOUS
10
2.22776
20
1.20484
11
2.28681
21
1.20484
0
LINE
8
BLACK
6
CONTINUOUS
10
2.28681
20
1.20484
11
2.28681
21
1.18319
0
LINE
8
BLACK
6
CONTINUOUS
10
0.225335
20
1.18498
11
0.170335
21
1.18498
0
LINE
8
BLACK
6
CONTINUOUS
10
0.170335
20
1.18498
11
0.170335
21
1.21998
0
LINE
8
BLACK
6
CONTINUOUS
10
0.170335
20
1.21998
11
0.225335
21
1.21998
0
LINE
8
BLACK
6
CONTINUOUS
10
0.225335
20
1.21998
11
0.225335
21
1.18498
0
LINE
8
BLACK
6
CONTINUOUS
10
2.11404
20
1.18522
11
2.05904
21
1.18522
0
LINE
8
BLACK
6
CONTINUOUS
10
2.05904
20
1.18522
11
2.05904
21
1.22022
0
LINE
8
BLACK
6
CONTINUOUS
10
2.05904
20
1.22022
11
2.11404
21
1.22022
0
LINE
8
BLACK
6
CONTINUOUS
10
2.11404
20
1.22022
11
2.11404
21
1.18522
0
LINE
8
BLACK
6
CONTINUOUS
10
2.28681
20
1.21469
11
2.22776
21
1.21469
0
LINE
8
BLACK
6
CONTINUOUS
10
2.22776
20
1.21469
11
2.22776
21
1.23634
0
LINE
8
BLACK
6
CONTINUOUS
10
2.22776
20
1.23634
11
2.28681
21
1.23634
0
LINE
8
BLACK
6
CONTINUOUS
10
2.28681
20
1.23634
11
2.28681
21
1.21469
0
LINE
8
BLACK
6
CONTINUOUS
10
2.73563
20
1.21469
11
2.67657
21
1.21469
0
LINE
8
BLACK
6
CONTINUOUS
10
2.67657
20
1.21469
11
2.67657
21
1.23634
0
LINE
8
BLACK
6
CONTINUOUS
10
2.67657
20
1.23634
11
2.73563
21
1.23634
0
LINE
8
BLACK
6
CONTINUOUS
10
2.73563
20
1.23634
11
2.73563
21
1.21469
0
LINE
8
BLACK
6
CONTINUOUS
10
3.24154
20
1.22022
11
3.20654
21
1.22022
0
LINE
8
BLACK
6
CONTINUOUS
10
3.20654
20
1.22022
11
3.20654
21
1.27522
0
LINE
8
BLACK
6
CONTINUOUS
10
3.20654
20
1.27522
11
3.24154
21
1.27522
0
LINE
8
BLACK
6
CONTINUOUS
10
3.24154
20
1.27522
11
3.24154
21
1.22022
0
LINE
8
BLACK
6
CONTINUOUS
10
3.16654
20
1.22022
11
3.13154
21
1.22022
0
LINE
8
BLACK
6
CONTINUOUS
10
3.13154
20
1.22022
11
3.13154
21
1.27522
0
LINE
8
BLACK
6
CONTINUOUS
10
3.13154
20
1.27522
11
3.16654
21
1.27522
0
LINE
8
BLACK
6
CONTINUOUS
10
3.16654
20
1.27522
11
3.16654
21
1.22022
0
LINE
8
BLACK
6
CONTINUOUS
10
0.625335
20
1.22248
11
0.570335
21
1.22248
0
LINE
8
BLACK
6
CONTINUOUS
10
0.570335
20
1.22248
11
0.570335
21
1.25748
0
LINE
8
BLACK
6
CONTINUOUS
10
0.570335
20
1.25748
11
0.625335
21
1.25748
0
LINE
8
BLACK
6
CONTINUOUS
10
0.625335
20
1.25748
11
0.625335
21
1.22248
0
LINE
8
BLACK
6
CONTINUOUS
10
1.56803
20
1.22362
11
1.54244
21
1.22362
0
LINE
8
BLACK
6
CONTINUOUS
10
1.54244
20
1.22362
11
1.54244
21
1.28504
0
LINE
8
BLACK
6
CONTINUOUS
10
1.54244
20
1.28504
11
1.56803
21
1.28504
0
LINE
8
BLACK
6
CONTINUOUS
10
1.56803
20
1.28504
11
1.56803
21
1.22362
0
LINE
8
BLACK
6
CONTINUOUS
10
1.53063
20
1.22362
11
1.50504
21
1.22362
0
LINE
8
BLACK
6
CONTINUOUS
10
1.50504
20
1.22362
11
1.50504
21
1.28504
0
LINE
8
BLACK
6
CONTINUOUS
10
1.50504
20
1.28504
11
1.53063
21
1.28504
0
LINE
8
BLACK
6
CONTINUOUS
10
1.53063
20
1.28504
11
1.53063
21
1.22362
0
LINE
8
BLACK
6
CONTINUOUS
10
1.49323
20
1.22362
11
1.46764
21
1.22362
0
LINE
8
BLACK
6
CONTINUOUS
10
1.46764
20
1.22362
11
1.46764
21
1.28504
0
LINE
8
BLACK
6
CONTINUOUS
10
1.46764
20
1.28504
11
1.49323
21
1.28504
0
LINE
8
BLACK
6
CONTINUOUS
10
1.49323
20
1.28504
11
1.49323
21
1.22362
0
LINE
8
BLACK
6
CONTINUOUS
10
0.725335
20
1.22498
11
0.670335
21
1.22498
0
LINE
8
BLACK
6
CONTINUOUS
10
0.670335
20
1.22498
11
0.670335
21
1.25998
0
LINE
8
BLACK
6
CONTINUOUS
10
0.670335
20
1.25998
11
0.725335
21
1.25998
0
LINE
8
BLACK
6
CONTINUOUS
10
0.725335
20
1.25998
11
0.725335
21
1.22498
0
LINE
8
BLACK
6
CONTINUOUS
10
2.86904
20
1.22522
11
2.81404
21
1.22522
0
LINE
8
BLACK
6
CONTINUOUS
10
2.81404
20
1.22522
11
2.81404
21
1.26022
0
LINE
8
BLACK
6
CONTINUOUS
10
2.81404
20
1.26022
11
2.86904
21
1.26022
0
LINE
8
BLACK
6
CONTINUOUS
10
2.86904
20
1.26022
11
2.86904
21
1.22522
0
LINE
8
BLACK
6
CONTINUOUS
10
1.32533
20
1.23248
11
1.27033
21
1.23248
0
LINE
8
BLACK
6
CONTINUOUS
10
1.27033
20
1.23248
11
1.27033
21
1.26748
0
LINE
8
BLACK
6
CONTINUOUS
10
1.27033
20
1.26748
11
1.32533
21
1.26748
0
LINE
8
BLACK
6
CONTINUOUS
10
1.32533
20
1.26748
11
1.32533
21
1.23248
0
LINE
8
BLACK
6
CONTINUOUS
10
1.23533
20
1.23248
11
1.18033
21
1.23248
0
LINE
8
BLACK
6
CONTINUOUS
10
1.18033
20
1.23248
11
1.18033
21
1.26748
0
LINE
8
BLACK
6
CONTINUOUS
10
1.18033
20
1.26748
11
1.23533
21
1.26748
0
LINE
8
BLACK
6
CONTINUOUS
10
1.23533
20
1.26748
11
1.23533
21
1.23248
0
LINE
8
BLACK
6
CONTINUOUS
10
1.41533
20
1.23248
11
1.36033
21
1.23248
0
LINE
8
BLACK
6
CONTINUOUS
10
1.36033
20
1.23248
11
1.36033
21
1.26748
0
LINE
8
BLACK
6
CONTINUOUS
10
1.36033
20
1.26748
11
1.41533
21
1.26748
0
LINE
8
BLACK
6
CONTINUOUS
10
1.41533
20
1.26748
11
1.41533
21
1.23248
0
LINE
8
BLACK
6
CONTINUOUS
10
2.95154
20
1.23272
11
2.90154
21
1.23272
0
LINE
8
BLACK
6
CONTINUOUS
10
2.90154
20
1.23272
11
2.90154
21
1.33272
0
LINE
8
BLACK
6
CONTINUOUS
10
2.90154
20
1.33272
11
2.95154
21
1.33272
0
LINE
8
BLACK
6
CONTINUOUS
10
2.95154
20
1.33272
11
2.95154
21
1.23272
0
LINE
8
BLACK
6
CONTINUOUS
10
3.07154
20
1.23272
11
3.02154
21
1.23272
0
LINE
8
BLACK
6
CONTINUOUS
10
3.02154
20
1.23272
11
3.02154
21
1.33272
0
LINE
8
BLACK
6
CONTINUOUS
10
3.02154
20
1.33272
11
3.07154
21
1.33272
0
LINE
8
BLACK
6
CONTINUOUS
10
3.07154
20
1.33272
11
3.07154
21
1.23272
0
LINE
8
BLACK
6
CONTINUOUS
10
2.73563
20
1.24618
11
2.67657
21
1.24618
0
LINE
8
BLACK
6
CONTINUOUS
10
2.67657
20
1.24618
11
2.67657
21
1.26783
0
LINE
8
BLACK
6
CONTINUOUS
10
2.67657
20
1.26783
11
2.73563
21
1.26783
0
LINE
8
BLACK
6
CONTINUOUS
10
2.73563
20
1.26783
11
2.73563
21
1.24618
0
LINE
8
BLACK
6
CONTINUOUS
10
2.28681
20
1.24618
11
2.22776
21
1.24618
0
LINE
8
BLACK
6
CONTINUOUS
10
2.22776
20
1.24618
11
2.22776
21
1.26783
0
LINE
8
BLACK
6
CONTINUOUS
10
2.22776
20
1.26783
11
2.28681
21
1.26783
0
LINE
8
BLACK
6
CONTINUOUS
10
2.28681
20
1.26783
11
2.28681
21
1.24618
0
LINE
8
BLACK
6
CONTINUOUS
10
2.11404
20
1.26022
11
2.05904
21
1.26022
0
LINE
8
BLACK
6
CONTINUOUS
10
2.05904
20
1.26022
11
2.05904
21
1.29522
0
LINE
8
BLACK
6
CONTINUOUS
10
2.05904
20
1.29522
11
2.11404
21
1.29522
0
LINE
8
BLACK
6
CONTINUOUS
10
2.11404
20
1.29522
11
2.11404
21
1.26022
0
LINE
8
BLACK
6
CONTINUOUS
10
3.57031
20
1.26839
11
3.53094
21
1.26839
0
LINE
8
BLACK
6
CONTINUOUS
10
3.53094
20
1.26839
11
3.53094
21
1.41799
0
LINE
8
BLACK
6
CONTINUOUS
10
3.53094
20
1.41799
11
3.57031
21
1.41799
0
LINE
8
BLACK
6
CONTINUOUS
10
3.57031
20
1.41799
11
3.57031
21
1.26839
0
LINE
8
BLACK
6
CONTINUOUS
10
1.84591
20
1.26839
11
1.80654
21
1.26839
0
LINE
8
BLACK
6
CONTINUOUS
10
1.80654
20
1.26839
11
1.80654
21
1.41799
0
LINE
8
BLACK
6
CONTINUOUS
10
1.80654
20
1.41799
11
1.84591
21
1.41799
0
LINE
8
BLACK
6
CONTINUOUS
10
1.84591
20
1.41799
11
1.84591
21
1.26839
0
LINE
8
BLACK
6
CONTINUOUS
10
1.77398
20
1.27079
11
1.73461
21
1.27079
0
LINE
8
BLACK
6
CONTINUOUS
10
1.73461
20
1.27079
11
1.73461
21
1.42039
0
LINE
8
BLACK
6
CONTINUOUS
10
1.73461
20
1.42039
11
1.77398
21
1.42039
0
LINE
8
BLACK
6
CONTINUOUS
10
1.77398
20
1.42039
11
1.77398
21
1.27079
0
LINE
8
BLACK
6
CONTINUOUS
10
0.0495669
20
1.27079
11
0.0101969
21
1.27079
0
LINE
8
BLACK
6
CONTINUOUS
10
0.0101969
20
1.27079
11
0.0101969
21
1.42039
0
LINE
8
BLACK
6
CONTINUOUS
10
0.0101969
20
1.42039
11
0.0495669
21
1.42039
0
LINE
8
BLACK
6
CONTINUOUS
10
0.0495669
20
1.42039
11
0.0495669
21
1.27079
0
LINE
8
BLACK
6
CONTINUOUS
10
2.28681
20
1.27768
11
2.22776
21
1.27768
0
LINE
8
BLACK
6
CONTINUOUS
10
2.22776
20
1.27768
11
2.22776
21
1.29933
0
LINE
8
BLACK
6
CONTINUOUS
10
2.22776
20
1.29933
11
2.28681
21
1.29933
0
LINE
8
BLACK
6
CONTINUOUS
10
2.28681
20
1.29933
11
2.28681
21
1.27768
0
LINE
8
BLACK
6
CONTINUOUS
10
2.73563
20
1.27768
11
2.67657
21
1.27768
0
LINE
8
BLACK
6
CONTINUOUS
10
2.67657
20
1.27768
11
2.67657
21
1.29933
0
LINE
8
BLACK
6
CONTINUOUS
10
2.67657
20
1.29933
11
2.73563
21
1.29933
0
LINE
8
BLACK
6
CONTINUOUS
10
2.73563
20
1.29933
11
2.73563
21
1.27768
0
LINE
8
BLACK
6
CONTINUOUS
10
1.68533
20
1.29248
11
1.63033
21
1.29248
0
LINE
8
BLACK
6
CONTINUOUS
10
1.63033
20
1.29248
11
1.63033
21
1.32748
0
LINE
8
BLACK
6
CONTINUOUS
10
1.63033
20
1.32748
11
1.68533
21
1.32748
0
LINE
8
BLACK
6
CONTINUOUS
10
1.68533
20
1.32748
11
1.68533
21
1.29248
0
LINE
8
BLACK
6
CONTINUOUS
10
0.819035
20
1.29272
11
0.764035
21
1.29272
0
LINE
8
BLACK
6
CONTINUOUS
10
0.764035
20
1.29272
11
0.764035
21
1.32772
0
LINE
8
BLACK
6
CONTINUOUS
10
0.764035
20
1.32772
11
0.819035
21
1.32772
0
LINE
8
BLACK
6
CONTINUOUS
10
0.819035
20
1.32772
11
0.819035
21
1.29272
0
LINE
8
BLACK
6
CONTINUOUS
10
0.899035
20
1.29272
11
0.844035
21
1.29272
0
LINE
8
BLACK
6
CONTINUOUS
10
0.844035
20
1.29272
11
0.844035
21
1.32772
0
LINE
8
BLACK
6
CONTINUOUS
10
0.844035
20
1.32772
11
0.899035
21
1.32772
0
LINE
8
BLACK
6
CONTINUOUS
10
0.899035
20
1.32772
11
0.899035
21
1.29272
0
LINE
8
BLACK
6
CONTINUOUS
10
0.979035
20
1.29272
11
0.924035
21
1.29272
0
LINE
8
BLACK
6
CONTINUOUS
10
0.924035
20
1.29272
11
0.924035
21
1.32772
0
LINE
8
BLACK
6
CONTINUOUS
10
0.924035
20
1.32772
11
0.979035
21
1.32772
0
LINE
8
BLACK
6
CONTINUOUS
10
0.979035
20
1.32772
11
0.979035
21
1.29272
0
LINE
8
BLACK
6
CONTINUOUS
10
0.729035
20
1.29522
11
0.674035
21
1.29522
0
LINE
8
BLACK
6
CONTINUOUS
10
0.674035
20
1.29522
11
0.674035
21
1.33022
0
LINE
8
BLACK
6
CONTINUOUS
10
0.674035
20
1.33022
11
0.729035
21
1.33022
0
LINE
8
BLACK
6
CONTINUOUS
10
0.729035
20
1.33022
11
0.729035
21
1.29522
0
LINE
8
BLACK
6
CONTINUOUS
10
2.86904
20
1.30022
11
2.81404
21
1.30022
0
LINE
8
BLACK
6
CONTINUOUS
10
2.81404
20
1.30022
11
2.81404
21
1.33522
0
LINE
8
BLACK
6
CONTINUOUS
10
2.81404
20
1.33522
11
2.86904
21
1.33522
0
LINE
8
BLACK
6
CONTINUOUS
10
2.86904
20
1.33522
11
2.86904
21
1.30022
0
LINE
8
BLACK
6
CONTINUOUS
10
1.32533
20
1.30748
11
1.27033
21
1.30748
0
LINE
8
BLACK
6
CONTINUOUS
10
1.27033
20
1.30748
11
1.27033
21
1.34248
0
LINE
8
BLACK
6
CONTINUOUS
10
1.27033
20
1.34248
11
1.32533
21
1.34248
0
LINE
8
BLACK
6
CONTINUOUS
10
1.32533
20
1.34248
11
1.32533
21
1.30748
0
LINE
8
BLACK
6
CONTINUOUS
10
1.23533
20
1.30748
11
1.18033
21
1.30748
0
LINE
8
BLACK
6
CONTINUOUS
10
1.18033
20
1.30748
11
1.18033
21
1.34248
0
LINE
8
BLACK
6
CONTINUOUS
10
1.18033
20
1.34248
11
1.23533
21
1.34248
0
LINE
8
BLACK
6
CONTINUOUS
10
1.23533
20
1.34248
11
1.23533
21
1.30748
0
LINE
8
BLACK
6
CONTINUOUS
10
1.41533
20
1.30748
11
1.36033
21
1.30748
0
LINE
8
BLACK
6
CONTINUOUS
10
1.36033
20
1.30748
11
1.36033
21
1.34248
0
LINE
8
BLACK
6
CONTINUOUS
10
1.36033
20
1.34248
11
1.41533
21
1.34248
0
LINE
8
BLACK
6
CONTINUOUS
10
1.41533
20
1.34248
11
1.41533
21
1.30748
0
LINE
8
BLACK
6
CONTINUOUS
10
2.28681
20
1.30917
11
2.22776
21
1.30917
0
LINE
8
BLACK
6
CONTINUOUS
10
2.22776
20
1.30917
11
2.22776
21
1.33083
0
LINE
8
BLACK
6
CONTINUOUS
10
2.22776
20
1.33083
11
2.28681
21
1.33083
0
LINE
8
BLACK
6
CONTINUOUS
10
2.28681
20
1.33083
11
2.28681
21
1.30917
0
LINE
8
BLACK
6
CONTINUOUS
10
2.73563
20
1.30917
11
2.67657
21
1.30917
0
LINE
8
BLACK
6
CONTINUOUS
10
2.67657
20
1.30917
11
2.67657
21
1.33083
0
LINE
8
BLACK
6
CONTINUOUS
10
2.67657
20
1.33083
11
2.73563
21
1.33083
0
LINE
8
BLACK
6
CONTINUOUS
10
2.73563
20
1.33083
11
2.73563
21
1.30917
0
LINE
8
BLACK
6
CONTINUOUS
10
1.56803
20
1.32992
11
1.54244
21
1.32992
0
LINE
8
BLACK
6
CONTINUOUS
10
1.54244
20
1.32992
11
1.54244
21
1.39134
0
LINE
8
BLACK
6
CONTINUOUS
10
1.54244
20
1.39134
11
1.56803
21
1.39134
0
LINE
8
BLACK
6
CONTINUOUS
10
1.56803
20
1.39134
11
1.56803
21
1.32992
0
LINE
8
BLACK
6
CONTINUOUS
10
1.49323
20
1.32992
11
1.46764
21
1.32992
0
LINE
8
BLACK
6
CONTINUOUS
10
1.46764
20
1.32992
11
1.46764
21
1.39134
0
LINE
8
BLACK
6
CONTINUOUS
10
1.46764
20
1.39134
11
1.49323
21
1.39134
0
LINE
8
BLACK
6
CONTINUOUS
10
1.49323
20
1.39134
11
1.49323
21
1.32992
0
LINE
8
BLACK
6
CONTINUOUS
10
2.28681
20
1.34067
11
2.22776
21
1.34067
0
LINE
8
BLACK
6
CONTINUOUS
10
2.22776
20
1.34067
11
2.22776
21
1.36232
0
LINE
8
BLACK
6
CONTINUOUS
10
2.22776
20
1.36232
11
2.28681
21
1.36232
0
LINE
8
BLACK
6
CONTINUOUS
10
2.28681
20
1.36232
11
2.28681
21
1.34067
0
LINE
8
BLACK
6
CONTINUOUS
10
2.73563
20
1.34067
11
2.67657
21
1.34067
0
LINE
8
BLACK
6
CONTINUOUS
10
2.67657
20
1.34067
11
2.67657
21
1.36232
0
LINE
8
BLACK
6
CONTINUOUS
10
2.67657
20
1.36232
11
2.73563
21
1.36232
0
LINE
8
BLACK
6
CONTINUOUS
10
2.73563
20
1.36232
11
2.73563
21
1.34067
0
LINE
8
BLACK
6
CONTINUOUS
10
1.68533
20
1.36748
11
1.63033
21
1.36748
0
LINE
8
BLACK
6
CONTINUOUS
10
1.63033
20
1.36748
11
1.63033
21
1.40248
0
LINE
8
BLACK
6
CONTINUOUS
10
1.63033
20
1.40248
11
1.68533
21
1.40248
0
LINE
8
BLACK
6
CONTINUOUS
10
1.68533
20
1.40248
11
1.68533
21
1.36748
0
LINE
8
BLACK
6
CONTINUOUS
10
0.979035
20
1.36772
11
0.924035
21
1.36772
0
LINE
8
BLACK
6
CONTINUOUS
10
0.924035
20
1.36772
11
0.924035
21
1.40272
0
LINE
8
BLACK
6
CONTINUOUS
10
0.924035
20
1.40272
11
0.979035
21
1.40272
0
LINE
8
BLACK
6
CONTINUOUS
10
0.979035
20
1.40272
11
0.979035
21
1.36772
0
LINE
8
BLACK
6
CONTINUOUS
10
0.899035
20
1.36772
11
0.844035
21
1.36772
0
LINE
8
BLACK
6
CONTINUOUS
10
0.844035
20
1.36772
11
0.844035
21
1.40272
0
LINE
8
BLACK
6
CONTINUOUS
10
0.844035
20
1.40272
11
0.899035
21
1.40272
0
LINE
8
BLACK
6
CONTINUOUS
10
0.899035
20
1.40272
11
0.899035
21
1.36772
0
LINE
8
BLACK
6
CONTINUOUS
10
0.819035
20
1.36772
11
0.764035
21
1.36772
0
LINE
8
BLACK
6
CONTINUOUS
10
0.764035
20
1.36772
11
0.764035
21
1.40272
0
LINE
8
BLACK
6
CONTINUOUS
10
0.764035
20
1.40272
11
0.819035
21
1.40272
0
LINE
8
BLACK
6
CONTINUOUS
10
0.819035
20
1.40272
11
0.819035
21
1.36772
0
LINE
8
BLACK
6
CONTINUOUS
10
0.729035
20
1.37022
11
0.674035
21
1.37022
0
LINE
8
BLACK
6
CONTINUOUS
10
0.674035
20
1.37022
11
0.674035
21
1.40522
0
LINE
8
BLACK
6
CONTINUOUS
10
0.674035
20
1.40522
11
0.729035
21
1.40522
0
LINE
8
BLACK
6
CONTINUOUS
10
0.729035
20
1.40522
11
0.729035
21
1.37022
0
LINE
8
BLACK
6
CONTINUOUS
10
2.42953
20
1.3889
11
2.40787
21
1.3889
0
LINE
8
BLACK
6
CONTINUOUS
10
2.40787
20
1.3889
11
2.40787
21
1.44795
0
LINE
8
BLACK
6
CONTINUOUS
10
2.40787
20
1.44795
11
2.42953
21
1.44795
0
LINE
8
BLACK
6
CONTINUOUS
10
2.42953
20
1.44795
11
2.42953
21
1.3889
0
LINE
8
BLACK
6
CONTINUOUS
10
2.6185
20
1.3889
11
2.59685
21
1.3889
0
LINE
8
BLACK
6
CONTINUOUS
10
2.59685
20
1.3889
11
2.59685
21
1.44795
0
LINE
8
BLACK
6
CONTINUOUS
10
2.59685
20
1.44795
11
2.6185
21
1.44795
0
LINE
8
BLACK
6
CONTINUOUS
10
2.6185
20
1.44795
11
2.6185
21
1.3889
0
LINE
8
BLACK
6
CONTINUOUS
10
2.65
20
1.3889
11
2.62835
21
1.3889
0
LINE
8
BLACK
6
CONTINUOUS
10
2.62835
20
1.3889
11
2.62835
21
1.44795
0
LINE
8
BLACK
6
CONTINUOUS
10
2.62835
20
1.44795
11
2.65
21
1.44795
0
LINE
8
BLACK
6
CONTINUOUS
10
2.65
20
1.44795
11
2.65
21
1.3889
0
LINE
8
BLACK
6
CONTINUOUS
10
2.55551
20
1.3889
11
2.53386
21
1.3889
0
LINE
8
BLACK
6
CONTINUOUS
10
2.53386
20
1.3889
11
2.53386
21
1.44795
0
LINE
8
BLACK
6
CONTINUOUS
10
2.53386
20
1.44795
11
2.55551
21
1.44795
0
LINE
8
BLACK
6
CONTINUOUS
10
2.55551
20
1.44795
11
2.55551
21
1.3889
0
LINE
8
BLACK
6
CONTINUOUS
10
2.52402
20
1.3889
11
2.50236
21
1.3889
0
LINE
8
BLACK
6
CONTINUOUS
10
2.50236
20
1.3889
11
2.50236
21
1.44795
0
LINE
8
BLACK
6
CONTINUOUS
10
2.50236
20
1.44795
11
2.52402
21
1.44795
0
LINE
8
BLACK
6
CONTINUOUS
10
2.52402
20
1.44795
11
2.52402
21
1.3889
0
LINE
8
BLACK
6
CONTINUOUS
10
2.49252
20
1.3889
11
2.47087
21
1.3889
0
LINE
8
BLACK
6
CONTINUOUS
10
2.47087
20
1.3889
11
2.47087
21
1.44795
0
LINE
8
BLACK
6
CONTINUOUS
10
2.47087
20
1.44795
11
2.49252
21
1.44795
0
LINE
8
BLACK
6
CONTINUOUS
10
2.49252
20
1.44795
11
2.49252
21
1.3889
0
LINE
8
BLACK
6
CONTINUOUS
10
2.46102
20
1.3889
11
2.43937
21
1.3889
0
LINE
8
BLACK
6
CONTINUOUS
10
2.43937
20
1.3889
11
2.43937
21
1.44795
0
LINE
8
BLACK
6
CONTINUOUS
10
2.43937
20
1.44795
11
2.46102
21
1.44795
0
LINE
8
BLACK
6
CONTINUOUS
10
2.46102
20
1.44795
11
2.46102
21
1.3889
0
LINE
8
BLACK
6
CONTINUOUS
10
2.39803
20
1.3889
11
2.37638
21
1.3889
0
LINE
8
BLACK
6
CONTINUOUS
10
2.37638
20
1.3889
11
2.37638
21
1.44795
0
LINE
8
BLACK
6
CONTINUOUS
10
2.37638
20
1.44795
11
2.39803
21
1.44795
0
LINE
8
BLACK
6
CONTINUOUS
10
2.39803
20
1.44795
11
2.39803
21
1.3889
0
LINE
8
BLACK
6
CONTINUOUS
10
2.36654
20
1.3889
11
2.34488
21
1.3889
0
LINE
8
BLACK
6
CONTINUOUS
10
2.34488
20
1.3889
11
2.34488
21
1.44795
0
LINE
8
BLACK
6
CONTINUOUS
10
2.34488
20
1.44795
11
2.36654
21
1.44795
0
LINE
8
BLACK
6
CONTINUOUS
10
2.36654
20
1.44795
11
2.36654
21
1.3889
0
LINE
8
BLACK
6
CONTINUOUS
10
2.33504
20
1.3889
11
2.31339
21
1.3889
0
LINE
8
BLACK
6
CONTINUOUS
10
2.31339
20
1.3889
11
2.31339
21
1.44795
0
LINE
8
BLACK
6
CONTINUOUS
10
2.31339
20
1.44795
11
2.33504
21
1.44795
0
LINE
8
BLACK
6
CONTINUOUS
10
2.33504
20
1.44795
11
2.33504
21
1.3889
0
LINE
8
BLACK
6
CONTINUOUS
10
2.58701
20
1.3889
11
2.56535
21
1.3889
0
LINE
8
BLACK
6
CONTINUOUS
10
2.56535
20
1.3889
11
2.56535
21
1.44795
0
LINE
8
BLACK
6
CONTINUOUS
10
2.56535
20
1.44795
11
2.58701
21
1.44795
0
LINE
8
BLACK
6
CONTINUOUS
10
2.58701
20
1.44795
11
2.58701
21
1.3889
0
LINE
8
BLACK
6
CONTINUOUS
10
2.11654
20
1.41522
11
2.08154
21
1.41522
0
LINE
8
BLACK
6
CONTINUOUS
10
2.08154
20
1.41522
11
2.08154
21
1.47022
0
LINE
8
BLACK
6
CONTINUOUS
10
2.08154
20
1.47022
11
2.11654
21
1.47022
0
LINE
8
BLACK
6
CONTINUOUS
10
2.11654
20
1.47022
11
2.11654
21
1.41522
0
LINE
8
BLACK
6
CONTINUOUS
10
2.19154
20
1.41522
11
2.15654
21
1.41522
0
LINE
8
BLACK
6
CONTINUOUS
10
2.15654
20
1.41522
11
2.15654
21
1.47022
0
LINE
8
BLACK
6
CONTINUOUS
10
2.15654
20
1.47022
11
2.19154
21
1.47022
0
LINE
8
BLACK
6
CONTINUOUS
10
2.19154
20
1.47022
11
2.19154
21
1.41522
0
LINE
8
BLACK
6
CONTINUOUS
10
2.04654
20
1.41522
11
2.01154
21
1.41522
0
LINE
8
BLACK
6
CONTINUOUS
10
2.01154
20
1.41522
11
2.01154
21
1.47022
0
LINE
8
BLACK
6
CONTINUOUS
10
2.01154
20
1.47022
11
2.04654
21
1.47022
0
LINE
8
BLACK
6
CONTINUOUS
10
2.04654
20
1.47022
11
2.04654
21
1.41522
0
LINE
8
BLACK
6
CONTINUOUS
10
1.97154
20
1.41522
11
1.93654
21
1.41522
0
LINE
8
BLACK
6
CONTINUOUS
10
1.93654
20
1.41522
11
1.93654
21
1.47022
0
LINE
8
BLACK
6
CONTINUOUS
10
1.93654
20
1.47022
11
1.97154
21
1.47022
0
LINE
8
BLACK
6
CONTINUOUS
10
1.97154
20
1.47022
11
1.97154
21
1.41522
0
LINE
8
BLACK
6
CONTINUOUS
10
0.734035
20
1.46022
11
0.699035
21
1.46022
0
LINE
8
BLACK
6
CONTINUOUS
10
0.699035
20
1.46022
11
0.699035
21
1.51522
0
LINE
8
BLACK
6
CONTINUOUS
10
0.699035
20
1.51522
11
0.734035
21
1.51522
0
LINE
8
BLACK
6
CONTINUOUS
10
0.734035
20
1.51522
11
0.734035
21
1.46022
0
LINE
8
BLACK
6
CONTINUOUS
10
0.809035
20
1.46022
11
0.774035
21
1.46022
0
LINE
8
BLACK
6
CONTINUOUS
10
0.774035
20
1.46022
11
0.774035
21
1.51522
0
LINE
8
BLACK
6
CONTINUOUS
10
0.774035
20
1.51522
11
0.809035
21
1.51522
0
LINE
8
BLACK
6
CONTINUOUS
10
0.809035
20
1.51522
11
0.809035
21
1.46022
0
LINE
8
BLACK
6
CONTINUOUS
10
0.884035
20
1.46022
11
0.849035
21
1.46022
0
LINE
8
BLACK
6
CONTINUOUS
10
0.849035
20
1.46022
11
0.849035
21
1.51522
0
LINE
8
BLACK
6
CONTINUOUS
10
0.849035
20
1.51522
11
0.884035
21
1.51522
0
LINE
8
BLACK
6
CONTINUOUS
10
0.884035
20
1.51522
11
0.884035
21
1.46022
0
LINE
8
BLACK
6
CONTINUOUS
10
1.10904
20
1.46022
11
1.07404
21
1.46022
0
LINE
8
BLACK
6
CONTINUOUS
10
1.07404
20
1.46022
11
1.07404
21
1.51522
0
LINE
8
BLACK
6
CONTINUOUS
10
1.07404
20
1.51522
11
1.10904
21
1.51522
0
LINE
8
BLACK
6
CONTINUOUS
10
1.10904
20
1.51522
11
1.10904
21
1.46022
0
LINE
8
BLACK
6
CONTINUOUS
10
1.03404
20
1.46022
11
0.999035
21
1.46022
0
LINE
8
BLACK
6
CONTINUOUS
10
0.999035
20
1.46022
11
0.999035
21
1.51522
0
LINE
8
BLACK
6
CONTINUOUS
10
0.999035
20
1.51522
11
1.03404
21
1.51522
0
LINE
8
BLACK
6
CONTINUOUS
10
1.03404
20
1.51522
11
1.03404
21
1.46022
0
LINE
8
BLACK
6
CONTINUOUS
10
0.959035
20
1.46022
11
0.924035
21
1.46022
0
LINE
8
BLACK
6
CONTINUOUS
10
0.924035
20
1.46022
11
0.924035
21
1.51522
0
LINE
8
BLACK
6
CONTINUOUS
10
0.924035
20
1.51522
11
0.959035
21
1.51522
0
LINE
8
BLACK
6
CONTINUOUS
10
0.959035
20
1.51522
11
0.959035
21
1.46022
0
LINE
8
BLACK
6
CONTINUOUS
10
2.57154
20
1.47522
11
2.53654
21
1.47522
0
LINE
8
BLACK
6
CONTINUOUS
10
2.53654
20
1.47522
11
2.53654
21
1.53022
0
LINE
8
BLACK
6
CONTINUOUS
10
2.53654
20
1.53022
11
2.57154
21
1.53022
0
LINE
8
BLACK
6
CONTINUOUS
10
2.57154
20
1.53022
11
2.57154
21
1.47522
0
LINE
8
BLACK
6
CONTINUOUS
10
2.49654
20
1.47522
11
2.46154
21
1.47522
0
LINE
8
BLACK
6
CONTINUOUS
10
2.46154
20
1.47522
11
2.46154
21
1.53022
0
LINE
8
BLACK
6
CONTINUOUS
10
2.46154
20
1.53022
11
2.49654
21
1.53022
0
LINE
8
BLACK
6
CONTINUOUS
10
2.49654
20
1.53022
11
2.49654
21
1.47522
0
LINE
8
BLACK
6
CONTINUOUS
10
1.93646
20
1.50461
11
1.80654
21
1.50461
0
LINE
8
BLACK
6
CONTINUOUS
10
1.80654
20
1.50461
11
1.80654
21
1.605
0
LINE
8
BLACK
6
CONTINUOUS
10
1.80654
20
1.605
11
1.93646
21
1.605
0
LINE
8
BLACK
6
CONTINUOUS
10
1.93646
20
1.605
11
1.93646
21
1.50461
0
LINE
8
BLACK
6
CONTINUOUS
10
3.57031
20
1.50461
11
3.44039
21
1.50461
0
LINE
8
BLACK
6
CONTINUOUS
10
3.44039
20
1.50461
11
3.44039
21
1.605
0
LINE
8
BLACK
6
CONTINUOUS
10
3.44039
20
1.605
11
3.57031
21
1.605
0
LINE
8
BLACK
6
CONTINUOUS
10
3.57031
20
1.605
11
3.57031
21
1.50461
0
LINE
8
BLACK
6
CONTINUOUS
10
0.140118
20
1.50701
11
0.0101969
21
1.50701
0
LINE
8
BLACK
6
CONTINUOUS
10
0.0101969
20
1.50701
11
0.0101969
21
1.6074
0
LINE
8
BLACK
6
CONTINUOUS
10
0.0101969
20
1.6074
11
0.140118
21
1.6074
0
LINE
8
BLACK
6
CONTINUOUS
10
0.140118
20
1.6074
11
0.140118
21
1.50701
0
LINE
8
BLACK
6
CONTINUOUS
10
1.77398
20
1.50701
11
1.64406
21
1.50701
0
LINE
8
BLACK
6
CONTINUOUS
10
1.64406
20
1.50701
11
1.64406
21
1.6074
0
LINE
8
BLACK
6
CONTINUOUS
10
1.64406
20
1.6074
11
1.77398
21
1.6074
0
LINE
8
BLACK
6
CONTINUOUS
10
1.77398
20
1.6074
11
1.77398
21
1.50701
0
LINE
8
BLACK
6
CONTINUOUS
10
2.4089
20
1.56563
11
2.25929
21
1.56563
0
LINE
8
BLACK
6
CONTINUOUS
10
2.25929
20
1.56563
11
2.25929
21
1.605
0
LINE
8
BLACK
6
CONTINUOUS
10
2.25929
20
1.605
11
2.4089
21
1.605
0
LINE
8
BLACK
6
CONTINUOUS
10
2.4089
20
1.605
11
2.4089
21
1.56563
0
LINE
8
BLACK
6
CONTINUOUS
10
3.35378
20
1.56563
11
3.20417
21
1.56563
0
LINE
8
BLACK
6
CONTINUOUS
10
3.20417
20
1.56563
11
3.20417
21
1.605
0
LINE
8
BLACK
6
CONTINUOUS
10
3.20417
20
1.605
11
3.35378
21
1.605
0
LINE
8
BLACK
6
CONTINUOUS
10
3.35378
20
1.605
11
3.35378
21
1.56563
0
LINE
8
BLACK
6
CONTINUOUS
10
3.11756
20
1.56563
11
2.96795
21
1.56563
0
LINE
8
BLACK
6
CONTINUOUS
10
2.96795
20
1.56563
11
2.96795
21
1.605
0
LINE
8
BLACK
6
CONTINUOUS
10
2.96795
20
1.605
11
3.11756
21
1.605
0
LINE
8
BLACK
6
CONTINUOUS
10
3.11756
20
1.605
11
3.11756
21
1.56563
0
LINE
8
BLACK
6
CONTINUOUS
10
2.17268
20
1.56563
11
2.02307
21
1.56563
0
LINE
8
BLACK
6
CONTINUOUS
10
2.02307
20
1.56563
11
2.02307
21
1.605
0
LINE
8
BLACK
6
CONTINUOUS
10
2.02307
20
1.605
11
2.17268
21
1.605
0
LINE
8
BLACK
6
CONTINUOUS
10
2.17268
20
1.605
11
2.17268
21
1.56563
0
LINE
8
BLACK
6
CONTINUOUS
10
2.64512
20
1.56563
11
2.49551
21
1.56563
0
LINE
8
BLACK
6
CONTINUOUS
10
2.49551
20
1.56563
11
2.49551
21
1.605
0
LINE
8
BLACK
6
CONTINUOUS
10
2.49551
20
1.605
11
2.64512
21
1.605
0
LINE
8
BLACK
6
CONTINUOUS
10
2.64512
20
1.605
11
2.64512
21
1.56563
0
LINE
8
BLACK
6
CONTINUOUS
10
2.88134
20
1.56563
11
2.73173
21
1.56563
0
LINE
8
BLACK
6
CONTINUOUS
10
2.73173
20
1.56563
11
2.73173
21
1.605
0
LINE
8
BLACK
6
CONTINUOUS
10
2.73173
20
1.605
11
2.88134
21
1.605
0
LINE
8
BLACK
6
CONTINUOUS
10
2.88134
20
1.605
11
2.88134
21
1.56563
0
LINE
8
BLACK
6
CONTINUOUS
10
0.376339
20
1.56803
11
0.226732
21
1.56803
0
LINE
8
BLACK
6
CONTINUOUS
10
0.226732
20
1.56803
11
0.226732
21
1.6074
0
LINE
8
BLACK
6
CONTINUOUS
10
0.226732
20
1.6074
11
0.376339
21
1.6074
0
LINE
8
BLACK
6
CONTINUOUS
10
0.376339
20
1.6074
11
0.376339
21
1.56803
0
LINE
8
BLACK
6
CONTINUOUS
10
0.84878
20
1.56803
11
0.699173
21
1.56803
0
LINE
8
BLACK
6
CONTINUOUS
10
0.699173
20
1.56803
11
0.699173
21
1.6074
0
LINE
8
BLACK
6
CONTINUOUS
10
0.699173
20
1.6074
11
0.84878
21
1.6074
0
LINE
8
BLACK
6
CONTINUOUS
10
0.84878
20
1.6074
11
0.84878
21
1.56803
0
LINE
8
BLACK
6
CONTINUOUS
10
1.55744
20
1.56803
11
1.40783
21
1.56803
0
LINE
8
BLACK
6
CONTINUOUS
10
1.40783
20
1.56803
11
1.40783
21
1.6074
0
LINE
8
BLACK
6
CONTINUOUS
10
1.40783
20
1.6074
11
1.55744
21
1.6074
0
LINE
8
BLACK
6
CONTINUOUS
10
1.55744
20
1.6074
11
1.55744
21
1.56803
0
LINE
8
BLACK
6
CONTINUOUS
10
0.612559
20
1.56803
11
0.462953
21
1.56803
0
LINE
8
BLACK
6
CONTINUOUS
10
0.462953
20
1.56803
11
0.462953
21
1.6074
0
LINE
8
BLACK
6
CONTINUOUS
10
0.462953
20
1.6074
11
0.612559
21
1.6074
0
LINE
8
BLACK
6
CONTINUOUS
10
0.612559
20
1.6074
11
0.612559
21
1.56803
0
LINE
8
BLACK
6
CONTINUOUS
10
1.32122
20
1.56803
11
1.17161
21
1.56803
0
LINE
8
BLACK
6
CONTINUOUS
10
1.17161
20
1.56803
11
1.17161
21
1.6074
0
LINE
8
BLACK
6
CONTINUOUS
10
1.17161
20
1.6074
11
1.32122
21
1.6074
0
LINE
8
BLACK
6
CONTINUOUS
10
1.32122
20
1.6074
11
1.32122
21
1.56803
0
LINE
8
BLACK
6
CONTINUOUS
10
1.085
20
1.56803
11
0.935394
21
1.56803
0
LINE
8
BLACK
6
CONTINUOUS
10
0.935394
20
1.56803
11
0.935394
21
1.6074
0
LINE
8
BLACK
6
CONTINUOUS
10
0.935394
20
1.6074
11
1.085
21
1.6074
0
LINE
8
BLACK
6
CONTINUOUS
10
1.085
20
1.6074
11
1.085
21
1.56803
  0
ENDSEC
  0
EOF
