  0
SECTION
  2
HEADER
  9
$ANGBASE
  50
0.0
  9
$ANGDIR
  70
1
  9
$MEASUREMENT
  70
0
  0
ENDSEC
  0
SECTION
  2
TABLES
  0
TABLE
  2
LTYPE
  70
4
  0
LTYPE
  5
40F
  2
CONTINUOUS
  70
0
  3
Solid line
  72
65
  73
0
  40
0.0
  0
LTYPE
  5
410
  2
DASHDOT
 70
0
  3
Dash Dot ____ _ ____ _
 72
65
 73
4
 40
2.0
 49
1.25
 49
-0.25
 49
0.25
 49
-0.25
  0
LTYPE
  5
411
  2
DASHED
 70
0
  3
Dashed __ __ __ __ __
 72
65
 73
2
 40
0.75
 49
0.5
 49
-0.25
  0
LTYPE
  5
43B
  2
DOTTED
 70
0
  3
Dotted .  .  .  .
 72
65
 73
2
 40
0.2
 49
0.0
 49
-0.2
  0
ENDTAB
  0
TABLE
  2
STYLE
  70
4
  0
STYLE
  2
KICAD
  70
0
  40
0
  41
1
  42
1
  50
0
  71
0
  3
isocp.shx
  0
STYLE
  2
KICADB
  70
0
  40
0
  41
1
  42
1
  50
0
  71
0
  3
isocp.shx
  0
STYLE
  2
KICADI
  70
0
  40
0
  41
1
  42
1
  50
15
  71
0
  3
isocp.shx
  0
STYLE
  2
KICADBI
  70
0
  40
0
  41
1
  42
1
  50
15
  71
0
  3
isocp.shx
  0
ENDTAB
  0
TABLE
  2
LAYER
  70
1
  0
LAYER
  2
BLACK
  70
0
  62
7
  6
CONTINUOUS
  0
ENDTAB
  0
ENDSEC
  0
SECTION
  2
ENTITIES
0
LINE
8
BLACK
6
CONTINUOUS
10
3.33912
20
0.115822
11
3.34451
21
0.114256
0
LINE
8
BLACK
6
CONTINUOUS
10
3.34451
20
0.114256
11
3.34928
21
0.1113
0
LINE
8
BLACK
6
CONTINUOUS
10
3.34928
20
0.1113
11
3.35307
21
0.10717
0
LINE
8
BLACK
6
CONTINUOUS
10
3.35307
20
0.10717
11
3.35562
21
0.102171
0
LINE
8
BLACK
6
CONTINUOUS
10
3.35562
20
0.102171
11
3.35673
21
0.0966719
0
LINE
8
BLACK
6
CONTINUOUS
10
3.35673
20
0.0966719
11
3.35632
21
0.0910766
0
LINE
8
BLACK
6
CONTINUOUS
10
3.35632
20
0.0910766
11
3.35442
21
0.085798
0
LINE
8
BLACK
6
CONTINUOUS
10
3.35442
20
0.085798
11
3.35117
21
0.0812249
0
LINE
8
BLACK
6
CONTINUOUS
10
3.35117
20
0.0812249
11
3.34681
21
0.0776943
0
LINE
8
BLACK
6
CONTINUOUS
10
3.34681
20
0.0776943
11
3.34166
21
0.0754661
0
LINE
8
BLACK
6
CONTINUOUS
10
3.34166
20
0.0754661
11
3.3361
21
0.0747047
0
LINE
8
BLACK
6
CONTINUOUS
10
3.3361
20
0.0747047
11
3.29476
21
0.0747047
0
LINE
8
BLACK
6
CONTINUOUS
10
3.29476
20
0.0747047
11
3.29174
21
0.0749265
0
LINE
8
BLACK
6
CONTINUOUS
10
3.29174
20
0.0749265
11
3.28636
21
0.0764917
0
LINE
8
BLACK
6
CONTINUOUS
10
3.28636
20
0.0764917
11
3.28159
21
0.0794481
0
LINE
8
BLACK
6
CONTINUOUS
10
3.28159
20
0.0794481
11
3.27779
21
0.0835778
0
LINE
8
BLACK
6
CONTINUOUS
10
3.27779
20
0.0835778
11
3.27524
21
0.0885766
0
LINE
8
BLACK
6
CONTINUOUS
10
3.27524
20
0.0885766
11
3.27414
21
0.0940762
0
LINE
8
BLACK
6
CONTINUOUS
10
3.27414
20
0.0940762
11
3.27455
21
0.0996714
0
LINE
8
BLACK
6
CONTINUOUS
10
3.27455
20
0.0996714
11
3.27645
21
0.10495
0
LINE
8
BLACK
6
CONTINUOUS
10
3.27645
20
0.10495
11
3.2797
21
0.109523
0
LINE
8
BLACK
6
CONTINUOUS
10
3.2797
20
0.109523
11
3.28406
21
0.113054
0
LINE
8
BLACK
6
CONTINUOUS
10
3.28406
20
0.113054
11
3.28921
21
0.115282
0
LINE
8
BLACK
6
CONTINUOUS
10
3.28921
20
0.115282
11
3.29476
21
0.116043
0
LINE
8
BLACK
6
CONTINUOUS
10
3.29476
20
0.116043
11
3.3361
21
0.116043
0
LINE
8
BLACK
6
CONTINUOUS
10
3.3361
20
0.116043
11
3.33912
21
0.115822
0
LINE
8
BLACK
6
CONTINUOUS
10
3.49993
20
0.115058
11
3.50544
21
0.114199
0
LINE
8
BLACK
6
CONTINUOUS
10
3.50544
20
0.114199
11
3.51049
21
0.111827
0
LINE
8
BLACK
6
CONTINUOUS
10
3.51049
20
0.111827
11
3.51468
21
0.108132
0
LINE
8
BLACK
6
CONTINUOUS
10
3.51468
20
0.108132
11
3.51765
21
0.103412
0
LINE
8
BLACK
6
CONTINUOUS
10
3.51765
20
0.103412
11
3.51919
21
0.0980456
0
LINE
8
BLACK
6
CONTINUOUS
10
3.51919
20
0.0980456
11
3.51915
21
0.0924644
0
LINE
8
BLACK
6
CONTINUOUS
10
3.51915
20
0.0924644
11
3.51755
21
0.0871171
0
LINE
8
BLACK
6
CONTINUOUS
10
3.51755
20
0.0871171
11
3.51452
21
0.0824335
0
LINE
8
BLACK
6
CONTINUOUS
10
3.51452
20
0.0824335
11
3.51029
21
0.0787903
0
LINE
8
BLACK
6
CONTINUOUS
10
3.51029
20
0.0787903
11
3.50521
21
0.0764802
0
LINE
8
BLACK
6
CONTINUOUS
10
3.50521
20
0.0764802
11
3.49969
21
0.075689
0
LINE
8
BLACK
6
CONTINUOUS
10
3.49969
20
0.075689
11
3.46031
21
0.075689
0
LINE
8
BLACK
6
CONTINUOUS
10
3.46031
20
0.075689
11
3.46007
21
0.0756904
0
LINE
8
BLACK
6
CONTINUOUS
10
3.46007
20
0.0756904
11
3.45456
21
0.0765491
0
LINE
8
BLACK
6
CONTINUOUS
10
3.45456
20
0.0765491
11
3.44951
21
0.0789211
0
LINE
8
BLACK
6
CONTINUOUS
10
3.44951
20
0.0789211
11
3.44532
21
0.0826157
0
LINE
8
BLACK
6
CONTINUOUS
10
3.44532
20
0.0826157
11
3.44235
21
0.087336
0
LINE
8
BLACK
6
CONTINUOUS
10
3.44235
20
0.087336
11
3.44081
21
0.0927024
0
LINE
8
BLACK
6
CONTINUOUS
10
3.44081
20
0.0927024
11
3.44085
21
0.0982837
0
LINE
8
BLACK
6
CONTINUOUS
10
3.44085
20
0.0982837
11
3.44245
21
0.103631
0
LINE
8
BLACK
6
CONTINUOUS
10
3.44245
20
0.103631
11
3.44548
21
0.108314
0
LINE
8
BLACK
6
CONTINUOUS
10
3.44548
20
0.108314
11
3.44971
21
0.111958
0
LINE
8
BLACK
6
CONTINUOUS
10
3.44971
20
0.111958
11
3.45479
21
0.114268
0
LINE
8
BLACK
6
CONTINUOUS
10
3.45479
20
0.114268
11
3.46031
21
0.115059
0
LINE
8
BLACK
6
CONTINUOUS
10
3.46031
20
0.115059
11
3.49969
21
0.115059
0
LINE
8
BLACK
6
CONTINUOUS
10
3.49969
20
0.115059
11
3.49993
21
0.115058
0
LINE
8
BLACK
6
CONTINUOUS
10
3.00865
20
0.317793
11
3.02213
21
0.316018
0
LINE
8
BLACK
6
CONTINUOUS
10
3.02213
20
0.316018
11
3.03532
21
0.312706
0
LINE
8
BLACK
6
CONTINUOUS
10
3.03532
20
0.312706
11
3.04804
21
0.307899
0
LINE
8
BLACK
6
CONTINUOUS
10
3.04804
20
0.307899
11
3.06012
21
0.301662
0
LINE
8
BLACK
6
CONTINUOUS
10
3.06012
20
0.301662
11
3.07141
21
0.294078
0
LINE
8
BLACK
6
CONTINUOUS
10
3.07141
20
0.294078
11
3.08175
21
0.285247
0
LINE
8
BLACK
6
CONTINUOUS
10
3.08175
20
0.285247
11
3.09101
21
0.275286
0
LINE
8
BLACK
6
CONTINUOUS
10
3.09101
20
0.275286
11
3.09906
21
0.264327
0
LINE
8
BLACK
6
CONTINUOUS
10
3.09906
20
0.264327
11
3.10579
21
0.252516
0
LINE
8
BLACK
6
CONTINUOUS
10
3.10579
20
0.252516
11
3.11113
21
0.240008
0
LINE
8
BLACK
6
CONTINUOUS
10
3.11113
20
0.240008
11
3.11499
21
0.226971
0
LINE
8
BLACK
6
CONTINUOUS
10
3.11499
20
0.226971
11
3.11733
21
0.213575
0
LINE
8
BLACK
6
CONTINUOUS
10
3.11733
20
0.213575
11
3.11811
21
0.2
0
LINE
8
BLACK
6
CONTINUOUS
10
3.11811
20
0.2
11
3.11788
21
0.192584
0
LINE
8
BLACK
6
CONTINUOUS
10
3.11788
20
0.192584
11
3.11624
21
0.179084
0
LINE
8
BLACK
6
CONTINUOUS
10
3.11624
20
0.179084
11
3.11307
21
0.165862
0
LINE
8
BLACK
6
CONTINUOUS
10
3.11307
20
0.165862
11
3.1084
21
0.153093
0
LINE
8
BLACK
6
CONTINUOUS
10
3.1084
20
0.153093
11
3.10229
21
0.140945
0
LINE
8
BLACK
6
CONTINUOUS
10
3.10229
20
0.140945
11
3.09482
21
0.12958
0
LINE
8
BLACK
6
CONTINUOUS
10
3.09482
20
0.12958
11
3.0861
21
0.119148
0
LINE
8
BLACK
6
CONTINUOUS
10
3.0861
20
0.119148
11
3.07624
21
0.109788
0
LINE
8
BLACK
6
CONTINUOUS
10
3.07624
20
0.109788
11
3.06536
21
0.101623
0
LINE
8
BLACK
6
CONTINUOUS
10
3.06536
20
0.101623
11
3.05362
21
0.094763
0
LINE
8
BLACK
6
CONTINUOUS
10
3.05362
20
0.094763
11
3.04117
21
0.0892974
0
LINE
8
BLACK
6
CONTINUOUS
10
3.04117
20
0.0892974
11
3.02817
21
0.0852991
0
LINE
8
BLACK
6
CONTINUOUS
10
3.02817
20
0.0852991
11
3.0148
21
0.0828211
0
LINE
8
BLACK
6
CONTINUOUS
10
3.0148
20
0.0828211
11
3.00124
21
0.0818962
0
LINE
8
BLACK
6
CONTINUOUS
10
3.00124
20
0.0818962
11
2.98765
21
0.0825368
0
LINE
8
BLACK
6
CONTINUOUS
10
2.98765
20
0.0825368
11
2.97424
21
0.0847343
0
LINE
8
BLACK
6
CONTINUOUS
10
2.97424
20
0.0847343
11
2.96116
21
0.0884595
0
LINE
8
BLACK
6
CONTINUOUS
10
2.96116
20
0.0884595
11
2.94859
21
0.0936631
0
LINE
8
BLACK
6
CONTINUOUS
10
2.94859
20
0.0936631
11
2.93671
21
0.100276
0
LINE
8
BLACK
6
CONTINUOUS
10
2.93671
20
0.100276
11
2.92567
21
0.108211
0
LINE
8
BLACK
6
CONTINUOUS
10
2.92567
20
0.108211
11
2.91561
21
0.117363
0
LINE
8
BLACK
6
CONTINUOUS
10
2.91561
20
0.117363
11
2.90667
21
0.127609
0
LINE
8
BLACK
6
CONTINUOUS
10
2.90667
20
0.127609
11
2.89897
21
0.138816
0
LINE
8
BLACK
6
CONTINUOUS
10
2.89897
20
0.138816
11
2.89261
21
0.150833
0
LINE
8
BLACK
6
CONTINUOUS
10
2.89261
20
0.150833
11
2.88767
21
0.163502
0
LINE
8
BLACK
6
CONTINUOUS
10
2.88767
20
0.163502
11
2.88422
21
0.176655
0
LINE
8
BLACK
6
CONTINUOUS
10
2.88422
20
0.176655
11
2.8823
21
0.190117
0
LINE
8
BLACK
6
CONTINUOUS
10
2.8823
20
0.190117
11
2.88195
21
0.20371
0
LINE
8
BLACK
6
CONTINUOUS
10
2.88195
20
0.20371
11
2.88316
21
0.217254
0
LINE
8
BLACK
6
CONTINUOUS
10
2.88316
20
0.217254
11
2.88591
21
0.230569
0
LINE
8
BLACK
6
CONTINUOUS
10
2.88591
20
0.230569
11
2.89018
21
0.243479
0
LINE
8
BLACK
6
CONTINUOUS
10
2.89018
20
0.243479
11
2.89591
21
0.255813
0
LINE
8
BLACK
6
CONTINUOUS
10
2.89591
20
0.255813
11
2.90301
21
0.267407
0
LINE
8
BLACK
6
CONTINUOUS
10
2.90301
20
0.267407
11
2.9114
21
0.278108
0
LINE
8
BLACK
6
CONTINUOUS
10
2.9114
20
0.278108
11
2.92097
21
0.287773
0
LINE
8
BLACK
6
CONTINUOUS
10
2.92097
20
0.287773
11
2.93158
21
0.296275
0
LINE
8
BLACK
6
CONTINUOUS
10
2.93158
20
0.296275
11
2.9431
21
0.303501
0
LINE
8
BLACK
6
CONTINUOUS
10
2.9431
20
0.303501
11
2.95537
21
0.309355
0
LINE
8
BLACK
6
CONTINUOUS
10
2.95537
20
0.309355
11
2.96824
21
0.313759
0
LINE
8
BLACK
6
CONTINUOUS
10
2.96824
20
0.313759
11
2.98152
21
0.316656
0
LINE
8
BLACK
6
CONTINUOUS
10
2.98152
20
0.316656
11
2.99505
21
0.318007
0
LINE
8
BLACK
6
CONTINUOUS
10
2.99505
20
0.318007
11
3.00865
21
0.317793
0
LINE
8
BLACK
6
CONTINUOUS
10
0.20865
20
0.317793
11
0.222132
21
0.316018
0
LINE
8
BLACK
6
CONTINUOUS
10
0.222132
20
0.316018
11
0.23532
21
0.312706
0
LINE
8
BLACK
6
CONTINUOUS
10
0.23532
20
0.312706
11
0.24804
21
0.307899
0
LINE
8
BLACK
6
CONTINUOUS
10
0.24804
20
0.307899
11
0.260123
21
0.301662
0
LINE
8
BLACK
6
CONTINUOUS
10
0.260123
20
0.301662
11
0.271409
21
0.294078
0
LINE
8
BLACK
6
CONTINUOUS
10
0.271409
20
0.294078
11
0.281749
21
0.285247
0
LINE
8
BLACK
6
CONTINUOUS
10
0.281749
20
0.285247
11
0.291006
21
0.275286
0
LINE
8
BLACK
6
CONTINUOUS
10
0.291006
20
0.275286
11
0.299056
21
0.264327
0
LINE
8
BLACK
6
CONTINUOUS
10
0.299056
20
0.264327
11
0.305793
21
0.252516
0
LINE
8
BLACK
6
CONTINUOUS
10
0.305793
20
0.252516
11
0.311128
21
0.240008
0
LINE
8
BLACK
6
CONTINUOUS
10
0.311128
20
0.240008
11
0.31499
21
0.226971
0
LINE
8
BLACK
6
CONTINUOUS
10
0.31499
20
0.226971
11
0.317327
21
0.213575
0
LINE
8
BLACK
6
CONTINUOUS
10
0.317327
20
0.213575
11
0.31811
21
0.2
0
LINE
8
BLACK
6
CONTINUOUS
10
0.31811
20
0.2
11
0.317877
21
0.192584
0
LINE
8
BLACK
6
CONTINUOUS
10
0.317877
20
0.192584
11
0.316244
21
0.179084
0
LINE
8
BLACK
6
CONTINUOUS
10
0.316244
20
0.179084
11
0.313069
21
0.165862
0
LINE
8
BLACK
6
CONTINUOUS
10
0.313069
20
0.165862
11
0.308396
21
0.153093
0
LINE
8
BLACK
6
CONTINUOUS
10
0.308396
20
0.153093
11
0.302286
21
0.140945
0
LINE
8
BLACK
6
CONTINUOUS
10
0.302286
20
0.140945
11
0.294821
21
0.12958
0
LINE
8
BLACK
6
CONTINUOUS
10
0.294821
20
0.12958
11
0.286099
21
0.119148
0
LINE
8
BLACK
6
CONTINUOUS
10
0.286099
20
0.119148
11
0.276235
21
0.109788
0
LINE
8
BLACK
6
CONTINUOUS
10
0.276235
20
0.109788
11
0.265361
21
0.101623
0
LINE
8
BLACK
6
CONTINUOUS
10
0.265361
20
0.101623
11
0.253621
21
0.094763
0
LINE
8
BLACK
6
CONTINUOUS
10
0.253621
20
0.094763
11
0.24117
21
0.0892974
0
LINE
8
BLACK
6
CONTINUOUS
10
0.24117
20
0.0892974
11
0.228173
21
0.0852991
0
LINE
8
BLACK
6
CONTINUOUS
10
0.228173
20
0.0852991
11
0.214803
21
0.0828211
0
LINE
8
BLACK
6
CONTINUOUS
10
0.214803
20
0.0828211
11
0.201237
21
0.0818962
0
LINE
8
BLACK
6
CONTINUOUS
10
0.201237
20
0.0818962
11
0.187654
21
0.0825368
0
LINE
8
BLACK
6
CONTINUOUS
10
0.187654
20
0.0825368
11
0.174235
21
0.0847343
0
LINE
8
BLACK
6
CONTINUOUS
10
0.174235
20
0.0847343
11
0.161157
21
0.0884595
0
LINE
8
BLACK
6
CONTINUOUS
10
0.161157
20
0.0884595
11
0.148595
21
0.0936631
0
LINE
8
BLACK
6
CONTINUOUS
10
0.148595
20
0.0936631
11
0.136713
21
0.100276
0
LINE
8
BLACK
6
CONTINUOUS
10
0.136713
20
0.100276
11
0.125671
21
0.108211
0
LINE
8
BLACK
6
CONTINUOUS
10
0.125671
20
0.108211
11
0.115613
21
0.117363
0
LINE
8
BLACK
6
CONTINUOUS
10
0.115613
20
0.117363
11
0.106675
21
0.127609
0
LINE
8
BLACK
6
CONTINUOUS
10
0.106675
20
0.127609
11
0.0989727
21
0.138816
0
LINE
8
BLACK
6
CONTINUOUS
10
0.0989727
20
0.138816
11
0.0926099
21
0.150833
0
LINE
8
BLACK
6
CONTINUOUS
10
0.0926099
20
0.150833
11
0.0876705
21
0.163502
0
LINE
8
BLACK
6
CONTINUOUS
10
0.0876705
20
0.163502
11
0.0842199
21
0.176655
0
LINE
8
BLACK
6
CONTINUOUS
10
0.0842199
20
0.176655
11
0.082304
21
0.190117
0
LINE
8
BLACK
6
CONTINUOUS
10
0.082304
20
0.190117
11
0.081948
21
0.20371
0
LINE
8
BLACK
6
CONTINUOUS
10
0.081948
20
0.20371
11
0.0831568
21
0.217254
0
LINE
8
BLACK
6
CONTINUOUS
10
0.0831568
20
0.217254
11
0.0859143
21
0.230569
0
LINE
8
BLACK
6
CONTINUOUS
10
0.0859143
20
0.230569
11
0.0901839
21
0.243479
0
LINE
8
BLACK
6
CONTINUOUS
10
0.0901839
20
0.243479
11
0.0959091
21
0.255813
0
LINE
8
BLACK
6
CONTINUOUS
10
0.0959091
20
0.255813
11
0.103014
21
0.267407
0
LINE
8
BLACK
6
CONTINUOUS
10
0.103014
20
0.267407
11
0.111404
21
0.278108
0
LINE
8
BLACK
6
CONTINUOUS
10
0.111404
20
0.278108
11
0.120969
21
0.287773
0
LINE
8
BLACK
6
CONTINUOUS
10
0.120969
20
0.287773
11
0.131581
21
0.296275
0
LINE
8
BLACK
6
CONTINUOUS
10
0.131581
20
0.296275
11
0.1431
21
0.303501
0
LINE
8
BLACK
6
CONTINUOUS
10
0.1431
20
0.303501
11
0.155373
21
0.309355
0
LINE
8
BLACK
6
CONTINUOUS
10
0.155373
20
0.309355
11
0.168238
21
0.313759
0
LINE
8
BLACK
6
CONTINUOUS
10
0.168238
20
0.313759
11
0.181524
21
0.316656
0
LINE
8
BLACK
6
CONTINUOUS
10
0.181524
20
0.316656
11
0.195054
21
0.318007
0
LINE
8
BLACK
6
CONTINUOUS
10
0.195054
20
0.318007
11
0.20865
21
0.317793
0
LINE
8
BLACK
6
CONTINUOUS
10
3.33912
20
0.455979
11
3.34451
21
0.454414
0
LINE
8
BLACK
6
CONTINUOUS
10
3.34451
20
0.454414
11
3.34928
21
0.451457
0
LINE
8
BLACK
6
CONTINUOUS
10
3.34928
20
0.451457
11
3.35307
21
0.447328
0
LINE
8
BLACK
6
CONTINUOUS
10
3.35307
20
0.447328
11
3.35562
21
0.442329
0
LINE
8
BLACK
6
CONTINUOUS
10
3.35562
20
0.442329
11
3.35673
21
0.436829
0
LINE
8
BLACK
6
CONTINUOUS
10
3.35673
20
0.436829
11
3.35632
21
0.431234
0
LINE
8
BLACK
6
CONTINUOUS
10
3.35632
20
0.431234
11
3.35442
21
0.425956
0
LINE
8
BLACK
6
CONTINUOUS
10
3.35442
20
0.425956
11
3.35117
21
0.421382
0
LINE
8
BLACK
6
CONTINUOUS
10
3.35117
20
0.421382
11
3.34681
21
0.417852
0
LINE
8
BLACK
6
CONTINUOUS
10
3.34681
20
0.417852
11
3.34166
21
0.415624
0
LINE
8
BLACK
6
CONTINUOUS
10
3.34166
20
0.415624
11
3.3361
21
0.414862
0
LINE
8
BLACK
6
CONTINUOUS
10
3.3361
20
0.414862
11
3.29476
21
0.414862
0
LINE
8
BLACK
6
CONTINUOUS
10
3.29476
20
0.414862
11
3.29174
21
0.415084
0
LINE
8
BLACK
6
CONTINUOUS
10
3.29174
20
0.415084
11
3.28636
21
0.416649
0
LINE
8
BLACK
6
CONTINUOUS
10
3.28636
20
0.416649
11
3.28159
21
0.419606
0
LINE
8
BLACK
6
CONTINUOUS
10
3.28159
20
0.419606
11
3.27779
21
0.423735
0
LINE
8
BLACK
6
CONTINUOUS
10
3.27779
20
0.423735
11
3.27524
21
0.428734
0
LINE
8
BLACK
6
CONTINUOUS
10
3.27524
20
0.428734
11
3.27414
21
0.434234
0
LINE
8
BLACK
6
CONTINUOUS
10
3.27414
20
0.434234
11
3.27455
21
0.439829
0
LINE
8
BLACK
6
CONTINUOUS
10
3.27455
20
0.439829
11
3.27645
21
0.445107
0
LINE
8
BLACK
6
CONTINUOUS
10
3.27645
20
0.445107
11
3.2797
21
0.449681
0
LINE
8
BLACK
6
CONTINUOUS
10
3.2797
20
0.449681
11
3.28406
21
0.453211
0
LINE
8
BLACK
6
CONTINUOUS
10
3.28406
20
0.453211
11
3.28921
21
0.455439
0
LINE
8
BLACK
6
CONTINUOUS
10
3.28921
20
0.455439
11
3.29476
21
0.456201
0
LINE
8
BLACK
6
CONTINUOUS
10
3.29476
20
0.456201
11
3.3361
21
0.456201
0
LINE
8
BLACK
6
CONTINUOUS
10
3.3361
20
0.456201
11
3.33912
21
0.455979
0
LINE
8
BLACK
6
CONTINUOUS
10
3.49993
20
0.455215
11
3.50544
21
0.454356
0
LINE
8
BLACK
6
CONTINUOUS
10
3.50544
20
0.454356
11
3.51049
21
0.451984
0
LINE
8
BLACK
6
CONTINUOUS
10
3.51049
20
0.451984
11
3.51468
21
0.44829
0
LINE
8
BLACK
6
CONTINUOUS
10
3.51468
20
0.44829
11
3.51765
21
0.443569
0
LINE
8
BLACK
6
CONTINUOUS
10
3.51765
20
0.443569
11
3.51919
21
0.438203
0
LINE
8
BLACK
6
CONTINUOUS
10
3.51919
20
0.438203
11
3.51915
21
0.432622
0
LINE
8
BLACK
6
CONTINUOUS
10
3.51915
20
0.432622
11
3.51755
21
0.427275
0
LINE
8
BLACK
6
CONTINUOUS
10
3.51755
20
0.427275
11
3.51452
21
0.422591
0
LINE
8
BLACK
6
CONTINUOUS
10
3.51452
20
0.422591
11
3.51029
21
0.418948
0
LINE
8
BLACK
6
CONTINUOUS
10
3.51029
20
0.418948
11
3.50521
21
0.416638
0
LINE
8
BLACK
6
CONTINUOUS
10
3.50521
20
0.416638
11
3.49969
21
0.415846
0
LINE
8
BLACK
6
CONTINUOUS
10
3.49969
20
0.415846
11
3.46031
21
0.415846
0
LINE
8
BLACK
6
CONTINUOUS
10
3.46031
20
0.415846
11
3.46007
21
0.415848
0
LINE
8
BLACK
6
CONTINUOUS
10
3.46007
20
0.415848
11
3.45456
21
0.416707
0
LINE
8
BLACK
6
CONTINUOUS
10
3.45456
20
0.416707
11
3.44951
21
0.419079
0
LINE
8
BLACK
6
CONTINUOUS
10
3.44951
20
0.419079
11
3.44532
21
0.422773
0
LINE
8
BLACK
6
CONTINUOUS
10
3.44532
20
0.422773
11
3.44235
21
0.427494
0
LINE
8
BLACK
6
CONTINUOUS
10
3.44235
20
0.427494
11
3.44081
21
0.43286
0
LINE
8
BLACK
6
CONTINUOUS
10
3.44081
20
0.43286
11
3.44085
21
0.438441
0
LINE
8
BLACK
6
CONTINUOUS
10
3.44085
20
0.438441
11
3.44245
21
0.443788
0
LINE
8
BLACK
6
CONTINUOUS
10
3.44245
20
0.443788
11
3.44548
21
0.448472
0
LINE
8
BLACK
6
CONTINUOUS
10
3.44548
20
0.448472
11
3.44971
21
0.452115
0
LINE
8
BLACK
6
CONTINUOUS
10
3.44971
20
0.452115
11
3.45479
21
0.454425
0
LINE
8
BLACK
6
CONTINUOUS
10
3.45479
20
0.454425
11
3.46031
21
0.455217
0
LINE
8
BLACK
6
CONTINUOUS
10
3.46031
20
0.455217
11
3.49969
21
0.455217
0
LINE
8
BLACK
6
CONTINUOUS
10
3.49969
20
0.455217
11
3.49993
21
0.455215
0
LINE
8
BLACK
6
CONTINUOUS
10
1.13287
20
1.07498
11
1.13726
21
1.07274
0
LINE
8
BLACK
6
CONTINUOUS
10
1.13726
20
1.07274
11
1.14074
21
1.06926
0
LINE
8
BLACK
6
CONTINUOUS
10
1.14074
20
1.06926
11
1.14298
21
1.06487
0
LINE
8
BLACK
6
CONTINUOUS
10
1.14298
20
1.06487
11
1.14375
21
1.06
0
LINE
8
BLACK
6
CONTINUOUS
10
1.14375
20
1.06
11
1.14298
21
1.05513
0
LINE
8
BLACK
6
CONTINUOUS
10
1.14298
20
1.05513
11
1.14074
21
1.05074
0
LINE
8
BLACK
6
CONTINUOUS
10
1.14074
20
1.05074
11
1.13726
21
1.04726
0
LINE
8
BLACK
6
CONTINUOUS
10
1.13726
20
1.04726
11
1.13287
21
1.04502
0
LINE
8
BLACK
6
CONTINUOUS
10
1.13287
20
1.04502
11
1.128
21
1.04425
0
LINE
8
BLACK
6
CONTINUOUS
10
1.128
20
1.04425
11
1.12402
21
1.04488
0
LINE
8
BLACK
6
CONTINUOUS
10
1.12402
20
1.04488
11
1.11587
21
1.03674
0
LINE
8
BLACK
6
CONTINUOUS
10
1.11587
20
1.03674
11
1.11587
21
0.453445
0
LINE
8
BLACK
6
CONTINUOUS
10
1.11587
20
0.453445
11
1.11726
21
0.45274
0
LINE
8
BLACK
6
CONTINUOUS
10
1.11726
20
0.45274
11
1.12074
21
0.449256
0
LINE
8
BLACK
6
CONTINUOUS
10
1.12074
20
0.449256
11
1.12298
21
0.444866
0
LINE
8
BLACK
6
CONTINUOUS
10
1.12298
20
0.444866
11
1.12375
21
0.44
0
LINE
8
BLACK
6
CONTINUOUS
10
1.12375
20
0.44
11
1.12298
21
0.435134
0
LINE
8
BLACK
6
CONTINUOUS
10
1.12298
20
0.435134
11
1.12074
21
0.430744
0
LINE
8
BLACK
6
CONTINUOUS
10
1.12074
20
0.430744
11
1.11726
21
0.42726
0
LINE
8
BLACK
6
CONTINUOUS
10
1.11726
20
0.42726
11
1.11287
21
0.425023
0
LINE
8
BLACK
6
CONTINUOUS
10
1.11287
20
0.425023
11
1.108
21
0.424252
0
LINE
8
BLACK
6
CONTINUOUS
10
1.108
20
0.424252
11
1.10313
21
0.425023
0
LINE
8
BLACK
6
CONTINUOUS
10
1.10313
20
0.425023
11
1.09874
21
0.42726
0
LINE
8
BLACK
6
CONTINUOUS
10
1.09874
20
0.42726
11
1.09526
21
0.430744
0
LINE
8
BLACK
6
CONTINUOUS
10
1.09526
20
0.430744
11
1.09302
21
0.435134
0
LINE
8
BLACK
6
CONTINUOUS
10
1.09302
20
0.435134
11
1.09225
21
0.44
0
LINE
8
BLACK
6
CONTINUOUS
10
1.09225
20
0.44
11
1.09302
21
0.444866
0
LINE
8
BLACK
6
CONTINUOUS
10
1.09302
20
0.444866
11
1.09526
21
0.449256
0
LINE
8
BLACK
6
CONTINUOUS
10
1.09526
20
0.449256
11
1.09874
21
0.45274
0
LINE
8
BLACK
6
CONTINUOUS
10
1.09874
20
0.45274
11
1.10013
21
0.453445
0
LINE
8
BLACK
6
CONTINUOUS
10
1.10013
20
0.453445
11
1.10013
21
1.04001
0
LINE
8
BLACK
6
CONTINUOUS
10
1.10013
20
1.04001
11
1.10042
21
1.0413
0
LINE
8
BLACK
6
CONTINUOUS
10
1.10042
20
1.0413
11
1.10057
21
1.0426
0
LINE
8
BLACK
6
CONTINUOUS
10
1.10057
20
1.0426
11
1.10081
21
1.04299
0
LINE
8
BLACK
6
CONTINUOUS
10
1.10081
20
1.04299
11
1.10091
21
1.04343
0
LINE
8
BLACK
6
CONTINUOUS
10
1.10091
20
1.04343
11
1.10173
21
1.04445
0
LINE
8
BLACK
6
CONTINUOUS
10
1.10173
20
1.04445
11
1.10243
21
1.04557
0
LINE
8
BLACK
6
CONTINUOUS
10
1.10243
20
1.04557
11
1.11288
21
1.05602
0
LINE
8
BLACK
6
CONTINUOUS
10
1.11288
20
1.05602
11
1.11225
21
1.06
0
LINE
8
BLACK
6
CONTINUOUS
10
1.11225
20
1.06
11
1.11302
21
1.06487
0
LINE
8
BLACK
6
CONTINUOUS
10
1.11302
20
1.06487
11
1.11526
21
1.06926
0
LINE
8
BLACK
6
CONTINUOUS
10
1.11526
20
1.06926
11
1.11874
21
1.07274
0
LINE
8
BLACK
6
CONTINUOUS
10
1.11874
20
1.07274
11
1.12313
21
1.07498
0
LINE
8
BLACK
6
CONTINUOUS
10
1.12313
20
1.07498
11
1.128
21
1.07575
0
LINE
8
BLACK
6
CONTINUOUS
10
1.128
20
1.07575
11
1.13287
21
1.07498
0
LINE
8
BLACK
6
CONTINUOUS
10
0.584866
20
0.500977
11
0.589256
21
0.49874
0
LINE
8
BLACK
6
CONTINUOUS
10
0.589256
20
0.49874
11
0.59274
21
0.495256
0
LINE
8
BLACK
6
CONTINUOUS
10
0.59274
20
0.495256
11
0.594977
21
0.490866
0
LINE
8
BLACK
6
CONTINUOUS
10
0.594977
20
0.490866
11
0.595748
21
0.486
0
LINE
8
BLACK
6
CONTINUOUS
10
0.595748
20
0.486
11
0.594977
21
0.481134
0
LINE
8
BLACK
6
CONTINUOUS
10
0.594977
20
0.481134
11
0.59274
21
0.476744
0
LINE
8
BLACK
6
CONTINUOUS
10
0.59274
20
0.476744
11
0.589256
21
0.47326
0
LINE
8
BLACK
6
CONTINUOUS
10
0.589256
20
0.47326
11
0.584866
21
0.471023
0
LINE
8
BLACK
6
CONTINUOUS
10
0.584866
20
0.471023
11
0.58
21
0.470252
0
LINE
8
BLACK
6
CONTINUOUS
10
0.58
20
0.470252
11
0.575134
21
0.471023
0
LINE
8
BLACK
6
CONTINUOUS
10
0.575134
20
0.471023
11
0.570744
21
0.47326
0
LINE
8
BLACK
6
CONTINUOUS
10
0.570744
20
0.47326
11
0.56726
21
0.476744
0
LINE
8
BLACK
6
CONTINUOUS
10
0.56726
20
0.476744
11
0.565023
21
0.481134
0
LINE
8
BLACK
6
CONTINUOUS
10
0.565023
20
0.481134
11
0.564252
21
0.486
0
LINE
8
BLACK
6
CONTINUOUS
10
0.564252
20
0.486
11
0.565023
21
0.490866
0
LINE
8
BLACK
6
CONTINUOUS
10
0.565023
20
0.490866
11
0.56726
21
0.495256
0
LINE
8
BLACK
6
CONTINUOUS
10
0.56726
20
0.495256
11
0.570744
21
0.49874
0
LINE
8
BLACK
6
CONTINUOUS
10
0.570744
20
0.49874
11
0.575134
21
0.500977
0
LINE
8
BLACK
6
CONTINUOUS
10
0.575134
20
0.500977
11
0.58
21
0.501748
0
LINE
8
BLACK
6
CONTINUOUS
10
0.58
20
0.501748
11
0.584866
21
0.500977
0
LINE
8
BLACK
6
CONTINUOUS
10
1.23287
20
1.40298
11
1.23726
21
1.40074
0
LINE
8
BLACK
6
CONTINUOUS
10
1.23726
20
1.40074
11
1.24074
21
1.39726
0
LINE
8
BLACK
6
CONTINUOUS
10
1.24074
20
1.39726
11
1.24298
21
1.39287
0
LINE
8
BLACK
6
CONTINUOUS
10
1.24298
20
1.39287
11
1.24375
21
1.388
0
LINE
8
BLACK
6
CONTINUOUS
10
1.24375
20
1.388
11
1.24298
21
1.38313
0
LINE
8
BLACK
6
CONTINUOUS
10
1.24298
20
1.38313
11
1.24074
21
1.37874
0
LINE
8
BLACK
6
CONTINUOUS
10
1.24074
20
1.37874
11
1.23726
21
1.37526
0
LINE
8
BLACK
6
CONTINUOUS
10
1.23726
20
1.37526
11
1.23287
21
1.37302
0
LINE
8
BLACK
6
CONTINUOUS
10
1.23287
20
1.37302
11
1.228
21
1.37225
0
LINE
8
BLACK
6
CONTINUOUS
10
1.228
20
1.37225
11
1.22402
21
1.37288
0
LINE
8
BLACK
6
CONTINUOUS
10
1.22402
20
1.37288
11
1.16735
21
1.31622
0
LINE
8
BLACK
6
CONTINUOUS
10
1.16735
20
1.31622
11
1.16735
21
0.73505
0
LINE
8
BLACK
6
CONTINUOUS
10
1.16735
20
0.73505
11
1.17113
21
0.736977
0
LINE
8
BLACK
6
CONTINUOUS
10
1.17113
20
0.736977
11
1.176
21
0.737748
0
LINE
8
BLACK
6
CONTINUOUS
10
1.176
20
0.737748
11
1.18087
21
0.736977
0
LINE
8
BLACK
6
CONTINUOUS
10
1.18087
20
0.736977
11
1.18526
21
0.73474
0
LINE
8
BLACK
6
CONTINUOUS
10
1.18526
20
0.73474
11
1.18874
21
0.731256
0
LINE
8
BLACK
6
CONTINUOUS
10
1.18874
20
0.731256
11
1.19098
21
0.726866
0
LINE
8
BLACK
6
CONTINUOUS
10
1.19098
20
0.726866
11
1.19175
21
0.722
0
LINE
8
BLACK
6
CONTINUOUS
10
1.19175
20
0.722
11
1.19098
21
0.717134
0
LINE
8
BLACK
6
CONTINUOUS
10
1.19098
20
0.717134
11
1.18874
21
0.712744
0
LINE
8
BLACK
6
CONTINUOUS
10
1.18874
20
0.712744
11
1.18526
21
0.70926
0
LINE
8
BLACK
6
CONTINUOUS
10
1.18526
20
0.70926
11
1.18087
21
0.707023
0
LINE
8
BLACK
6
CONTINUOUS
10
1.18087
20
0.707023
11
1.176
21
0.706252
0
LINE
8
BLACK
6
CONTINUOUS
10
1.176
20
0.706252
11
1.17113
21
0.707023
0
LINE
8
BLACK
6
CONTINUOUS
10
1.17113
20
0.707023
11
1.16735
21
0.70895
0
LINE
8
BLACK
6
CONTINUOUS
10
1.16735
20
0.70895
11
1.16735
21
0.531463
0
LINE
8
BLACK
6
CONTINUOUS
10
1.16735
20
0.531463
11
1.16706
21
0.530181
0
LINE
8
BLACK
6
CONTINUOUS
10
1.16706
20
0.530181
11
1.16691
21
0.528874
0
LINE
8
BLACK
6
CONTINUOUS
10
1.16691
20
0.528874
11
1.16667
21
0.528491
0
LINE
8
BLACK
6
CONTINUOUS
10
1.16667
20
0.528491
11
1.16657
21
0.52805
0
LINE
8
BLACK
6
CONTINUOUS
10
1.16657
20
0.52805
11
1.16574
21
0.527023
0
LINE
8
BLACK
6
CONTINUOUS
10
1.16574
20
0.527023
11
1.16504
21
0.525909
0
LINE
8
BLACK
6
CONTINUOUS
10
1.16504
20
0.525909
11
1.15563
21
0.516494
0
LINE
8
BLACK
6
CONTINUOUS
10
1.15563
20
0.516494
11
1.15626
21
0.512512
0
LINE
8
BLACK
6
CONTINUOUS
10
1.15626
20
0.512512
11
1.15549
21
0.507645
0
LINE
8
BLACK
6
CONTINUOUS
10
1.15549
20
0.507645
11
1.15325
21
0.503255
0
LINE
8
BLACK
6
CONTINUOUS
10
1.15325
20
0.503255
11
1.14977
21
0.499771
0
LINE
8
BLACK
6
CONTINUOUS
10
1.14977
20
0.499771
11
1.14538
21
0.497535
0
LINE
8
BLACK
6
CONTINUOUS
10
1.14538
20
0.497535
11
1.14051
21
0.496764
0
LINE
8
BLACK
6
CONTINUOUS
10
1.14051
20
0.496764
11
1.13565
21
0.497535
0
LINE
8
BLACK
6
CONTINUOUS
10
1.13565
20
0.497535
11
1.13126
21
0.499771
0
LINE
8
BLACK
6
CONTINUOUS
10
1.13126
20
0.499771
11
1.12777
21
0.503255
0
LINE
8
BLACK
6
CONTINUOUS
10
1.12777
20
0.503255
11
1.12553
21
0.507645
0
LINE
8
BLACK
6
CONTINUOUS
10
1.12553
20
0.507645
11
1.12476
21
0.512512
0
LINE
8
BLACK
6
CONTINUOUS
10
1.12476
20
0.512512
11
1.12553
21
0.517378
0
LINE
8
BLACK
6
CONTINUOUS
10
1.12553
20
0.517378
11
1.12777
21
0.521768
0
LINE
8
BLACK
6
CONTINUOUS
10
1.12777
20
0.521768
11
1.13126
21
0.525252
0
LINE
8
BLACK
6
CONTINUOUS
10
1.13126
20
0.525252
11
1.13565
21
0.527489
0
LINE
8
BLACK
6
CONTINUOUS
10
1.13565
20
0.527489
11
1.14051
21
0.52826
0
LINE
8
BLACK
6
CONTINUOUS
10
1.14051
20
0.52826
11
1.14449
21
0.527629
0
LINE
8
BLACK
6
CONTINUOUS
10
1.14449
20
0.527629
11
1.1516
21
0.534738
0
LINE
8
BLACK
6
CONTINUOUS
10
1.1516
20
0.534738
11
1.1516
21
1.31949
0
LINE
8
BLACK
6
CONTINUOUS
10
1.1516
20
1.31949
11
1.1519
21
1.32077
0
LINE
8
BLACK
6
CONTINUOUS
10
1.1519
20
1.32077
11
1.15205
21
1.32208
0
LINE
8
BLACK
6
CONTINUOUS
10
1.15205
20
1.32208
11
1.15229
21
1.32246
0
LINE
8
BLACK
6
CONTINUOUS
10
1.15229
20
1.32246
11
1.15239
21
1.3229
0
LINE
8
BLACK
6
CONTINUOUS
10
1.15239
20
1.3229
11
1.15321
21
1.32393
0
LINE
8
BLACK
6
CONTINUOUS
10
1.15321
20
1.32393
11
1.15391
21
1.32504
0
LINE
8
BLACK
6
CONTINUOUS
10
1.15391
20
1.32504
11
1.21288
21
1.38402
0
LINE
8
BLACK
6
CONTINUOUS
10
1.21288
20
1.38402
11
1.21225
21
1.388
0
LINE
8
BLACK
6
CONTINUOUS
10
1.21225
20
1.388
11
1.21302
21
1.39287
0
LINE
8
BLACK
6
CONTINUOUS
10
1.21302
20
1.39287
11
1.21526
21
1.39726
0
LINE
8
BLACK
6
CONTINUOUS
10
1.21526
20
1.39726
11
1.21874
21
1.40074
0
LINE
8
BLACK
6
CONTINUOUS
10
1.21874
20
1.40074
11
1.22313
21
1.40298
0
LINE
8
BLACK
6
CONTINUOUS
10
1.22313
20
1.40298
11
1.228
21
1.40375
0
LINE
8
BLACK
6
CONTINUOUS
10
1.228
20
1.40375
11
1.23287
21
1.40298
0
LINE
8
BLACK
6
CONTINUOUS
10
0.396866
20
0.574977
11
0.401256
21
0.57274
0
LINE
8
BLACK
6
CONTINUOUS
10
0.401256
20
0.57274
11
0.40474
21
0.569256
0
LINE
8
BLACK
6
CONTINUOUS
10
0.40474
20
0.569256
11
0.406977
21
0.564866
0
LINE
8
BLACK
6
CONTINUOUS
10
0.406977
20
0.564866
11
0.407748
21
0.56
0
LINE
8
BLACK
6
CONTINUOUS
10
0.407748
20
0.56
11
0.406977
21
0.555134
0
LINE
8
BLACK
6
CONTINUOUS
10
0.406977
20
0.555134
11
0.40474
21
0.550744
0
LINE
8
BLACK
6
CONTINUOUS
10
0.40474
20
0.550744
11
0.401256
21
0.54726
0
LINE
8
BLACK
6
CONTINUOUS
10
0.401256
20
0.54726
11
0.396866
21
0.545023
0
LINE
8
BLACK
6
CONTINUOUS
10
0.396866
20
0.545023
11
0.392
21
0.544252
0
LINE
8
BLACK
6
CONTINUOUS
10
0.392
20
0.544252
11
0.387134
21
0.545023
0
LINE
8
BLACK
6
CONTINUOUS
10
0.387134
20
0.545023
11
0.382744
21
0.54726
0
LINE
8
BLACK
6
CONTINUOUS
10
0.382744
20
0.54726
11
0.37926
21
0.550744
0
LINE
8
BLACK
6
CONTINUOUS
10
0.37926
20
0.550744
11
0.377023
21
0.555134
0
LINE
8
BLACK
6
CONTINUOUS
10
0.377023
20
0.555134
11
0.376252
21
0.56
0
LINE
8
BLACK
6
CONTINUOUS
10
0.376252
20
0.56
11
0.377023
21
0.564866
0
LINE
8
BLACK
6
CONTINUOUS
10
0.377023
20
0.564866
11
0.37926
21
0.569256
0
LINE
8
BLACK
6
CONTINUOUS
10
0.37926
20
0.569256
11
0.382744
21
0.57274
0
LINE
8
BLACK
6
CONTINUOUS
10
0.382744
20
0.57274
11
0.387134
21
0.574977
0
LINE
8
BLACK
6
CONTINUOUS
10
0.387134
20
0.574977
11
0.392
21
0.575748
0
LINE
8
BLACK
6
CONTINUOUS
10
0.392
20
0.575748
11
0.396866
21
0.574977
0
LINE
8
BLACK
6
CONTINUOUS
10
0.924866
20
0.576977
11
0.929256
21
0.57474
0
LINE
8
BLACK
6
CONTINUOUS
10
0.929256
20
0.57474
11
0.93274
21
0.571256
0
LINE
8
BLACK
6
CONTINUOUS
10
0.93274
20
0.571256
11
0.934977
21
0.566866
0
LINE
8
BLACK
6
CONTINUOUS
10
0.934977
20
0.566866
11
0.935748
21
0.562
0
LINE
8
BLACK
6
CONTINUOUS
10
0.935748
20
0.562
11
0.934977
21
0.557134
0
LINE
8
BLACK
6
CONTINUOUS
10
0.934977
20
0.557134
11
0.93274
21
0.552744
0
LINE
8
BLACK
6
CONTINUOUS
10
0.93274
20
0.552744
11
0.929256
21
0.54926
0
LINE
8
BLACK
6
CONTINUOUS
10
0.929256
20
0.54926
11
0.924866
21
0.547023
0
LINE
8
BLACK
6
CONTINUOUS
10
0.924866
20
0.547023
11
0.92
21
0.546252
0
LINE
8
BLACK
6
CONTINUOUS
10
0.92
20
0.546252
11
0.915134
21
0.547023
0
LINE
8
BLACK
6
CONTINUOUS
10
0.915134
20
0.547023
11
0.910744
21
0.54926
0
LINE
8
BLACK
6
CONTINUOUS
10
0.910744
20
0.54926
11
0.90726
21
0.552744
0
LINE
8
BLACK
6
CONTINUOUS
10
0.90726
20
0.552744
11
0.905023
21
0.557134
0
LINE
8
BLACK
6
CONTINUOUS
10
0.905023
20
0.557134
11
0.904252
21
0.562
0
LINE
8
BLACK
6
CONTINUOUS
10
0.904252
20
0.562
11
0.905023
21
0.566866
0
LINE
8
BLACK
6
CONTINUOUS
10
0.905023
20
0.566866
11
0.90726
21
0.571256
0
LINE
8
BLACK
6
CONTINUOUS
10
0.90726
20
0.571256
11
0.910744
21
0.57474
0
LINE
8
BLACK
6
CONTINUOUS
10
0.910744
20
0.57474
11
0.915134
21
0.576977
0
LINE
8
BLACK
6
CONTINUOUS
10
0.915134
20
0.576977
11
0.92
21
0.577748
0
LINE
8
BLACK
6
CONTINUOUS
10
0.92
20
0.577748
11
0.924866
21
0.576977
0
LINE
8
BLACK
6
CONTINUOUS
10
1.20487
20
0.590977
11
1.20926
21
0.58874
0
LINE
8
BLACK
6
CONTINUOUS
10
1.20926
20
0.58874
11
1.21274
21
0.585256
0
LINE
8
BLACK
6
CONTINUOUS
10
1.21274
20
0.585256
11
1.21498
21
0.580866
0
LINE
8
BLACK
6
CONTINUOUS
10
1.21498
20
0.580866
11
1.21575
21
0.576
0
LINE
8
BLACK
6
CONTINUOUS
10
1.21575
20
0.576
11
1.21498
21
0.571134
0
LINE
8
BLACK
6
CONTINUOUS
10
1.21498
20
0.571134
11
1.21274
21
0.566744
0
LINE
8
BLACK
6
CONTINUOUS
10
1.21274
20
0.566744
11
1.20926
21
0.56326
0
LINE
8
BLACK
6
CONTINUOUS
10
1.20926
20
0.56326
11
1.20487
21
0.561023
0
LINE
8
BLACK
6
CONTINUOUS
10
1.20487
20
0.561023
11
1.2
21
0.560252
0
LINE
8
BLACK
6
CONTINUOUS
10
1.2
20
0.560252
11
1.19513
21
0.561023
0
LINE
8
BLACK
6
CONTINUOUS
10
1.19513
20
0.561023
11
1.19074
21
0.56326
0
LINE
8
BLACK
6
CONTINUOUS
10
1.19074
20
0.56326
11
1.18726
21
0.566744
0
LINE
8
BLACK
6
CONTINUOUS
10
1.18726
20
0.566744
11
1.18502
21
0.571134
0
LINE
8
BLACK
6
CONTINUOUS
10
1.18502
20
0.571134
11
1.18425
21
0.576
0
LINE
8
BLACK
6
CONTINUOUS
10
1.18425
20
0.576
11
1.18502
21
0.580866
0
LINE
8
BLACK
6
CONTINUOUS
10
1.18502
20
0.580866
11
1.18726
21
0.585256
0
LINE
8
BLACK
6
CONTINUOUS
10
1.18726
20
0.585256
11
1.19074
21
0.58874
0
LINE
8
BLACK
6
CONTINUOUS
10
1.19074
20
0.58874
11
1.19513
21
0.590977
0
LINE
8
BLACK
6
CONTINUOUS
10
1.19513
20
0.590977
11
1.2
21
0.591748
0
LINE
8
BLACK
6
CONTINUOUS
10
1.2
20
0.591748
11
1.20487
21
0.590977
0
LINE
8
BLACK
6
CONTINUOUS
10
0.762866
20
0.626977
11
0.767256
21
0.62474
0
LINE
8
BLACK
6
CONTINUOUS
10
0.767256
20
0.62474
11
0.77074
21
0.621256
0
LINE
8
BLACK
6
CONTINUOUS
10
0.77074
20
0.621256
11
0.772977
21
0.616866
0
LINE
8
BLACK
6
CONTINUOUS
10
0.772977
20
0.616866
11
0.773748
21
0.612
0
LINE
8
BLACK
6
CONTINUOUS
10
0.773748
20
0.612
11
0.772977
21
0.607134
0
LINE
8
BLACK
6
CONTINUOUS
10
0.772977
20
0.607134
11
0.77074
21
0.602744
0
LINE
8
BLACK
6
CONTINUOUS
10
0.77074
20
0.602744
11
0.767256
21
0.59926
0
LINE
8
BLACK
6
CONTINUOUS
10
0.767256
20
0.59926
11
0.762866
21
0.597023
0
LINE
8
BLACK
6
CONTINUOUS
10
0.762866
20
0.597023
11
0.758
21
0.596252
0
LINE
8
BLACK
6
CONTINUOUS
10
0.758
20
0.596252
11
0.753134
21
0.597023
0
LINE
8
BLACK
6
CONTINUOUS
10
0.753134
20
0.597023
11
0.748744
21
0.59926
0
LINE
8
BLACK
6
CONTINUOUS
10
0.748744
20
0.59926
11
0.74526
21
0.602744
0
LINE
8
BLACK
6
CONTINUOUS
10
0.74526
20
0.602744
11
0.743023
21
0.607134
0
LINE
8
BLACK
6
CONTINUOUS
10
0.743023
20
0.607134
11
0.742252
21
0.612
0
LINE
8
BLACK
6
CONTINUOUS
10
0.742252
20
0.612
11
0.743023
21
0.616866
0
LINE
8
BLACK
6
CONTINUOUS
10
0.743023
20
0.616866
11
0.74526
21
0.621256
0
LINE
8
BLACK
6
CONTINUOUS
10
0.74526
20
0.621256
11
0.748744
21
0.62474
0
LINE
8
BLACK
6
CONTINUOUS
10
0.748744
20
0.62474
11
0.753134
21
0.626977
0
LINE
8
BLACK
6
CONTINUOUS
10
0.753134
20
0.626977
11
0.758
21
0.627748
0
LINE
8
BLACK
6
CONTINUOUS
10
0.758
20
0.627748
11
0.762866
21
0.626977
0
LINE
8
BLACK
6
CONTINUOUS
10
0.924866
20
0.646977
11
0.929256
21
0.64474
0
LINE
8
BLACK
6
CONTINUOUS
10
0.929256
20
0.64474
11
0.93274
21
0.641256
0
LINE
8
BLACK
6
CONTINUOUS
10
0.93274
20
0.641256
11
0.934977
21
0.636866
0
LINE
8
BLACK
6
CONTINUOUS
10
0.934977
20
0.636866
11
0.935748
21
0.632
0
LINE
8
BLACK
6
CONTINUOUS
10
0.935748
20
0.632
11
0.934977
21
0.627134
0
LINE
8
BLACK
6
CONTINUOUS
10
0.934977
20
0.627134
11
0.93274
21
0.622744
0
LINE
8
BLACK
6
CONTINUOUS
10
0.93274
20
0.622744
11
0.929256
21
0.61926
0
LINE
8
BLACK
6
CONTINUOUS
10
0.929256
20
0.61926
11
0.924866
21
0.617023
0
LINE
8
BLACK
6
CONTINUOUS
10
0.924866
20
0.617023
11
0.92
21
0.616252
0
LINE
8
BLACK
6
CONTINUOUS
10
0.92
20
0.616252
11
0.915134
21
0.617023
0
LINE
8
BLACK
6
CONTINUOUS
10
0.915134
20
0.617023
11
0.910744
21
0.61926
0
LINE
8
BLACK
6
CONTINUOUS
10
0.910744
20
0.61926
11
0.90726
21
0.622744
0
LINE
8
BLACK
6
CONTINUOUS
10
0.90726
20
0.622744
11
0.905023
21
0.627134
0
LINE
8
BLACK
6
CONTINUOUS
10
0.905023
20
0.627134
11
0.904252
21
0.632
0
LINE
8
BLACK
6
CONTINUOUS
10
0.904252
20
0.632
11
0.905023
21
0.636866
0
LINE
8
BLACK
6
CONTINUOUS
10
0.905023
20
0.636866
11
0.90726
21
0.641256
0
LINE
8
BLACK
6
CONTINUOUS
10
0.90726
20
0.641256
11
0.910744
21
0.64474
0
LINE
8
BLACK
6
CONTINUOUS
10
0.910744
20
0.64474
11
0.915134
21
0.646977
0
LINE
8
BLACK
6
CONTINUOUS
10
0.915134
20
0.646977
11
0.92
21
0.647748
0
LINE
8
BLACK
6
CONTINUOUS
10
0.92
20
0.647748
11
0.924866
21
0.646977
0
LINE
8
BLACK
6
CONTINUOUS
10
0.186866
20
0.654977
11
0.191256
21
0.65274
0
LINE
8
BLACK
6
CONTINUOUS
10
0.191256
20
0.65274
11
0.19474
21
0.649256
0
LINE
8
BLACK
6
CONTINUOUS
10
0.19474
20
0.649256
11
0.196977
21
0.644866
0
LINE
8
BLACK
6
CONTINUOUS
10
0.196977
20
0.644866
11
0.197748
21
0.64
0
LINE
8
BLACK
6
CONTINUOUS
10
0.197748
20
0.64
11
0.196977
21
0.635134
0
LINE
8
BLACK
6
CONTINUOUS
10
0.196977
20
0.635134
11
0.19474
21
0.630744
0
LINE
8
BLACK
6
CONTINUOUS
10
0.19474
20
0.630744
11
0.191256
21
0.62726
0
LINE
8
BLACK
6
CONTINUOUS
10
0.191256
20
0.62726
11
0.186866
21
0.625023
0
LINE
8
BLACK
6
CONTINUOUS
10
0.186866
20
0.625023
11
0.182
21
0.624252
0
LINE
8
BLACK
6
CONTINUOUS
10
0.182
20
0.624252
11
0.177134
21
0.625023
0
LINE
8
BLACK
6
CONTINUOUS
10
0.177134
20
0.625023
11
0.172744
21
0.62726
0
LINE
8
BLACK
6
CONTINUOUS
10
0.172744
20
0.62726
11
0.16926
21
0.630744
0
LINE
8
BLACK
6
CONTINUOUS
10
0.16926
20
0.630744
11
0.167023
21
0.635134
0
LINE
8
BLACK
6
CONTINUOUS
10
0.167023
20
0.635134
11
0.166252
21
0.64
0
LINE
8
BLACK
6
CONTINUOUS
10
0.166252
20
0.64
11
0.167023
21
0.644866
0
LINE
8
BLACK
6
CONTINUOUS
10
0.167023
20
0.644866
11
0.16926
21
0.649256
0
LINE
8
BLACK
6
CONTINUOUS
10
0.16926
20
0.649256
11
0.172744
21
0.65274
0
LINE
8
BLACK
6
CONTINUOUS
10
0.172744
20
0.65274
11
0.177134
21
0.654977
0
LINE
8
BLACK
6
CONTINUOUS
10
0.177134
20
0.654977
11
0.182
21
0.655748
0
LINE
8
BLACK
6
CONTINUOUS
10
0.182
20
0.655748
11
0.186866
21
0.654977
0
LINE
8
BLACK
6
CONTINUOUS
10
1.19887
20
0.682977
11
1.20326
21
0.68074
0
LINE
8
BLACK
6
CONTINUOUS
10
1.20326
20
0.68074
11
1.20674
21
0.677256
0
LINE
8
BLACK
6
CONTINUOUS
10
1.20674
20
0.677256
11
1.20898
21
0.672866
0
LINE
8
BLACK
6
CONTINUOUS
10
1.20898
20
0.672866
11
1.20975
21
0.668
0
LINE
8
BLACK
6
CONTINUOUS
10
1.20975
20
0.668
11
1.20898
21
0.663134
0
LINE
8
BLACK
6
CONTINUOUS
10
1.20898
20
0.663134
11
1.20674
21
0.658744
0
LINE
8
BLACK
6
CONTINUOUS
10
1.20674
20
0.658744
11
1.20326
21
0.65526
0
LINE
8
BLACK
6
CONTINUOUS
10
1.20326
20
0.65526
11
1.19887
21
0.653023
0
LINE
8
BLACK
6
CONTINUOUS
10
1.19887
20
0.653023
11
1.194
21
0.652252
0
LINE
8
BLACK
6
CONTINUOUS
10
1.194
20
0.652252
11
1.18913
21
0.653023
0
LINE
8
BLACK
6
CONTINUOUS
10
1.18913
20
0.653023
11
1.18474
21
0.65526
0
LINE
8
BLACK
6
CONTINUOUS
10
1.18474
20
0.65526
11
1.18126
21
0.658744
0
LINE
8
BLACK
6
CONTINUOUS
10
1.18126
20
0.658744
11
1.17902
21
0.663134
0
LINE
8
BLACK
6
CONTINUOUS
10
1.17902
20
0.663134
11
1.17825
21
0.668
0
LINE
8
BLACK
6
CONTINUOUS
10
1.17825
20
0.668
11
1.17902
21
0.672866
0
LINE
8
BLACK
6
CONTINUOUS
10
1.17902
20
0.672866
11
1.18126
21
0.677256
0
LINE
8
BLACK
6
CONTINUOUS
10
1.18126
20
0.677256
11
1.18474
21
0.68074
0
LINE
8
BLACK
6
CONTINUOUS
10
1.18474
20
0.68074
11
1.18913
21
0.682977
0
LINE
8
BLACK
6
CONTINUOUS
10
1.18913
20
0.682977
11
1.194
21
0.683748
0
LINE
8
BLACK
6
CONTINUOUS
10
1.194
20
0.683748
11
1.19887
21
0.682977
0
LINE
8
BLACK
6
CONTINUOUS
10
0.758866
20
0.698977
11
0.763256
21
0.69674
0
LINE
8
BLACK
6
CONTINUOUS
10
0.763256
20
0.69674
11
0.76674
21
0.693256
0
LINE
8
BLACK
6
CONTINUOUS
10
0.76674
20
0.693256
11
0.768977
21
0.688866
0
LINE
8
BLACK
6
CONTINUOUS
10
0.768977
20
0.688866
11
0.769748
21
0.684
0
LINE
8
BLACK
6
CONTINUOUS
10
0.769748
20
0.684
11
0.768977
21
0.679134
0
LINE
8
BLACK
6
CONTINUOUS
10
0.768977
20
0.679134
11
0.76674
21
0.674744
0
LINE
8
BLACK
6
CONTINUOUS
10
0.76674
20
0.674744
11
0.763256
21
0.67126
0
LINE
8
BLACK
6
CONTINUOUS
10
0.763256
20
0.67126
11
0.758866
21
0.669023
0
LINE
8
BLACK
6
CONTINUOUS
10
0.758866
20
0.669023
11
0.754
21
0.668252
0
LINE
8
BLACK
6
CONTINUOUS
10
0.754
20
0.668252
11
0.749134
21
0.669023
0
LINE
8
BLACK
6
CONTINUOUS
10
0.749134
20
0.669023
11
0.744744
21
0.67126
0
LINE
8
BLACK
6
CONTINUOUS
10
0.744744
20
0.67126
11
0.74126
21
0.674744
0
LINE
8
BLACK
6
CONTINUOUS
10
0.74126
20
0.674744
11
0.739023
21
0.679134
0
LINE
8
BLACK
6
CONTINUOUS
10
0.739023
20
0.679134
11
0.738252
21
0.684
0
LINE
8
BLACK
6
CONTINUOUS
10
0.738252
20
0.684
11
0.739023
21
0.688866
0
LINE
8
BLACK
6
CONTINUOUS
10
0.739023
20
0.688866
11
0.74126
21
0.693256
0
LINE
8
BLACK
6
CONTINUOUS
10
0.74126
20
0.693256
11
0.744744
21
0.69674
0
LINE
8
BLACK
6
CONTINUOUS
10
0.744744
20
0.69674
11
0.749134
21
0.698977
0
LINE
8
BLACK
6
CONTINUOUS
10
0.749134
20
0.698977
11
0.754
21
0.699748
0
LINE
8
BLACK
6
CONTINUOUS
10
0.754
20
0.699748
11
0.758866
21
0.698977
0
LINE
8
BLACK
6
CONTINUOUS
10
0.938866
20
0.702977
11
0.943256
21
0.70074
0
LINE
8
BLACK
6
CONTINUOUS
10
0.943256
20
0.70074
11
0.94674
21
0.697256
0
LINE
8
BLACK
6
CONTINUOUS
10
0.94674
20
0.697256
11
0.948977
21
0.692866
0
LINE
8
BLACK
6
CONTINUOUS
10
0.948977
20
0.692866
11
0.949748
21
0.688
0
LINE
8
BLACK
6
CONTINUOUS
10
0.949748
20
0.688
11
0.948977
21
0.683134
0
LINE
8
BLACK
6
CONTINUOUS
10
0.948977
20
0.683134
11
0.94674
21
0.678744
0
LINE
8
BLACK
6
CONTINUOUS
10
0.94674
20
0.678744
11
0.943256
21
0.67526
0
LINE
8
BLACK
6
CONTINUOUS
10
0.943256
20
0.67526
11
0.938866
21
0.673023
0
LINE
8
BLACK
6
CONTINUOUS
10
0.938866
20
0.673023
11
0.934
21
0.672252
0
LINE
8
BLACK
6
CONTINUOUS
10
0.934
20
0.672252
11
0.929134
21
0.673023
0
LINE
8
BLACK
6
CONTINUOUS
10
0.929134
20
0.673023
11
0.924744
21
0.67526
0
LINE
8
BLACK
6
CONTINUOUS
10
0.924744
20
0.67526
11
0.92126
21
0.678744
0
LINE
8
BLACK
6
CONTINUOUS
10
0.92126
20
0.678744
11
0.919023
21
0.683134
0
LINE
8
BLACK
6
CONTINUOUS
10
0.919023
20
0.683134
11
0.918252
21
0.688
0
LINE
8
BLACK
6
CONTINUOUS
10
0.918252
20
0.688
11
0.919023
21
0.692866
0
LINE
8
BLACK
6
CONTINUOUS
10
0.919023
20
0.692866
11
0.92126
21
0.697256
0
LINE
8
BLACK
6
CONTINUOUS
10
0.92126
20
0.697256
11
0.924744
21
0.70074
0
LINE
8
BLACK
6
CONTINUOUS
10
0.924744
20
0.70074
11
0.929134
21
0.702977
0
LINE
8
BLACK
6
CONTINUOUS
10
0.929134
20
0.702977
11
0.934
21
0.703748
0
LINE
8
BLACK
6
CONTINUOUS
10
0.934
20
0.703748
11
0.938866
21
0.702977
0
LINE
8
BLACK
6
CONTINUOUS
10
0.978866
20
0.702977
11
0.983256
21
0.70074
0
LINE
8
BLACK
6
CONTINUOUS
10
0.983256
20
0.70074
11
0.98674
21
0.697256
0
LINE
8
BLACK
6
CONTINUOUS
10
0.98674
20
0.697256
11
0.988977
21
0.692866
0
LINE
8
BLACK
6
CONTINUOUS
10
0.988977
20
0.692866
11
0.989748
21
0.688
0
LINE
8
BLACK
6
CONTINUOUS
10
0.989748
20
0.688
11
0.988977
21
0.683134
0
LINE
8
BLACK
6
CONTINUOUS
10
0.988977
20
0.683134
11
0.98674
21
0.678744
0
LINE
8
BLACK
6
CONTINUOUS
10
0.98674
20
0.678744
11
0.983256
21
0.67526
0
LINE
8
BLACK
6
CONTINUOUS
10
0.983256
20
0.67526
11
0.978866
21
0.673023
0
LINE
8
BLACK
6
CONTINUOUS
10
0.978866
20
0.673023
11
0.974
21
0.672252
0
LINE
8
BLACK
6
CONTINUOUS
10
0.974
20
0.672252
11
0.969134
21
0.673023
0
LINE
8
BLACK
6
CONTINUOUS
10
0.969134
20
0.673023
11
0.964744
21
0.67526
0
LINE
8
BLACK
6
CONTINUOUS
10
0.964744
20
0.67526
11
0.96126
21
0.678744
0
LINE
8
BLACK
6
CONTINUOUS
10
0.96126
20
0.678744
11
0.959023
21
0.683134
0
LINE
8
BLACK
6
CONTINUOUS
10
0.959023
20
0.683134
11
0.958252
21
0.688
0
LINE
8
BLACK
6
CONTINUOUS
10
0.958252
20
0.688
11
0.959023
21
0.692866
0
LINE
8
BLACK
6
CONTINUOUS
10
0.959023
20
0.692866
11
0.96126
21
0.697256
0
LINE
8
BLACK
6
CONTINUOUS
10
0.96126
20
0.697256
11
0.964744
21
0.70074
0
LINE
8
BLACK
6
CONTINUOUS
10
0.964744
20
0.70074
11
0.969134
21
0.702977
0
LINE
8
BLACK
6
CONTINUOUS
10
0.969134
20
0.702977
11
0.974
21
0.703748
0
LINE
8
BLACK
6
CONTINUOUS
10
0.974
20
0.703748
11
0.978866
21
0.702977
0
LINE
8
BLACK
6
CONTINUOUS
10
0.179866
20
0.739977
11
0.184256
21
0.73774
0
LINE
8
BLACK
6
CONTINUOUS
10
0.184256
20
0.73774
11
0.18774
21
0.734256
0
LINE
8
BLACK
6
CONTINUOUS
10
0.18774
20
0.734256
11
0.189977
21
0.729866
0
LINE
8
BLACK
6
CONTINUOUS
10
0.189977
20
0.729866
11
0.190748
21
0.725
0
LINE
8
BLACK
6
CONTINUOUS
10
0.190748
20
0.725
11
0.189977
21
0.720134
0
LINE
8
BLACK
6
CONTINUOUS
10
0.189977
20
0.720134
11
0.18774
21
0.715744
0
LINE
8
BLACK
6
CONTINUOUS
10
0.18774
20
0.715744
11
0.184256
21
0.71226
0
LINE
8
BLACK
6
CONTINUOUS
10
0.184256
20
0.71226
11
0.179866
21
0.710023
0
LINE
8
BLACK
6
CONTINUOUS
10
0.179866
20
0.710023
11
0.175
21
0.709252
0
LINE
8
BLACK
6
CONTINUOUS
10
0.175
20
0.709252
11
0.170134
21
0.710023
0
LINE
8
BLACK
6
CONTINUOUS
10
0.170134
20
0.710023
11
0.165744
21
0.71226
0
LINE
8
BLACK
6
CONTINUOUS
10
0.165744
20
0.71226
11
0.16226
21
0.715744
0
LINE
8
BLACK
6
CONTINUOUS
10
0.16226
20
0.715744
11
0.160023
21
0.720134
0
LINE
8
BLACK
6
CONTINUOUS
10
0.160023
20
0.720134
11
0.159252
21
0.725
0
LINE
8
BLACK
6
CONTINUOUS
10
0.159252
20
0.725
11
0.160023
21
0.729866
0
LINE
8
BLACK
6
CONTINUOUS
10
0.160023
20
0.729866
11
0.16226
21
0.734256
0
LINE
8
BLACK
6
CONTINUOUS
10
0.16226
20
0.734256
11
0.165744
21
0.73774
0
LINE
8
BLACK
6
CONTINUOUS
10
0.165744
20
0.73774
11
0.170134
21
0.739977
0
LINE
8
BLACK
6
CONTINUOUS
10
0.170134
20
0.739977
11
0.175
21
0.740748
0
LINE
8
BLACK
6
CONTINUOUS
10
0.175
20
0.740748
11
0.179866
21
0.739977
0
LINE
8
BLACK
6
CONTINUOUS
10
0.756866
20
0.772977
11
0.761256
21
0.77074
0
LINE
8
BLACK
6
CONTINUOUS
10
0.761256
20
0.77074
11
0.76474
21
0.767256
0
LINE
8
BLACK
6
CONTINUOUS
10
0.76474
20
0.767256
11
0.766977
21
0.762866
0
LINE
8
BLACK
6
CONTINUOUS
10
0.766977
20
0.762866
11
0.767748
21
0.758
0
LINE
8
BLACK
6
CONTINUOUS
10
0.767748
20
0.758
11
0.766977
21
0.753134
0
LINE
8
BLACK
6
CONTINUOUS
10
0.766977
20
0.753134
11
0.76474
21
0.748744
0
LINE
8
BLACK
6
CONTINUOUS
10
0.76474
20
0.748744
11
0.761256
21
0.74526
0
LINE
8
BLACK
6
CONTINUOUS
10
0.761256
20
0.74526
11
0.756866
21
0.743023
0
LINE
8
BLACK
6
CONTINUOUS
10
0.756866
20
0.743023
11
0.752
21
0.742252
0
LINE
8
BLACK
6
CONTINUOUS
10
0.752
20
0.742252
11
0.747134
21
0.743023
0
LINE
8
BLACK
6
CONTINUOUS
10
0.747134
20
0.743023
11
0.742744
21
0.74526
0
LINE
8
BLACK
6
CONTINUOUS
10
0.742744
20
0.74526
11
0.73926
21
0.748744
0
LINE
8
BLACK
6
CONTINUOUS
10
0.73926
20
0.748744
11
0.737023
21
0.753134
0
LINE
8
BLACK
6
CONTINUOUS
10
0.737023
20
0.753134
11
0.736252
21
0.758
0
LINE
8
BLACK
6
CONTINUOUS
10
0.736252
20
0.758
11
0.737023
21
0.762866
0
LINE
8
BLACK
6
CONTINUOUS
10
0.737023
20
0.762866
11
0.73926
21
0.767256
0
LINE
8
BLACK
6
CONTINUOUS
10
0.73926
20
0.767256
11
0.742744
21
0.77074
0
LINE
8
BLACK
6
CONTINUOUS
10
0.742744
20
0.77074
11
0.747134
21
0.772977
0
LINE
8
BLACK
6
CONTINUOUS
10
0.747134
20
0.772977
11
0.752
21
0.773748
0
LINE
8
BLACK
6
CONTINUOUS
10
0.752
20
0.773748
11
0.756866
21
0.772977
0
LINE
8
BLACK
6
CONTINUOUS
10
0.129866
20
0.789977
11
0.134256
21
0.78774
0
LINE
8
BLACK
6
CONTINUOUS
10
0.134256
20
0.78774
11
0.13774
21
0.784256
0
LINE
8
BLACK
6
CONTINUOUS
10
0.13774
20
0.784256
11
0.139977
21
0.779866
0
LINE
8
BLACK
6
CONTINUOUS
10
0.139977
20
0.779866
11
0.140748
21
0.775
0
LINE
8
BLACK
6
CONTINUOUS
10
0.140748
20
0.775
11
0.139977
21
0.770134
0
LINE
8
BLACK
6
CONTINUOUS
10
0.139977
20
0.770134
11
0.13774
21
0.765744
0
LINE
8
BLACK
6
CONTINUOUS
10
0.13774
20
0.765744
11
0.134256
21
0.76226
0
LINE
8
BLACK
6
CONTINUOUS
10
0.134256
20
0.76226
11
0.129866
21
0.760023
0
LINE
8
BLACK
6
CONTINUOUS
10
0.129866
20
0.760023
11
0.125
21
0.759252
0
LINE
8
BLACK
6
CONTINUOUS
10
0.125
20
0.759252
11
0.120134
21
0.760023
0
LINE
8
BLACK
6
CONTINUOUS
10
0.120134
20
0.760023
11
0.115744
21
0.76226
0
LINE
8
BLACK
6
CONTINUOUS
10
0.115744
20
0.76226
11
0.11226
21
0.765744
0
LINE
8
BLACK
6
CONTINUOUS
10
0.11226
20
0.765744
11
0.110023
21
0.770134
0
LINE
8
BLACK
6
CONTINUOUS
10
0.110023
20
0.770134
11
0.109252
21
0.775
0
LINE
8
BLACK
6
CONTINUOUS
10
0.109252
20
0.775
11
0.110023
21
0.779866
0
LINE
8
BLACK
6
CONTINUOUS
10
0.110023
20
0.779866
11
0.11226
21
0.784256
0
LINE
8
BLACK
6
CONTINUOUS
10
0.11226
20
0.784256
11
0.115744
21
0.78774
0
LINE
8
BLACK
6
CONTINUOUS
10
0.115744
20
0.78774
11
0.120134
21
0.789977
0
LINE
8
BLACK
6
CONTINUOUS
10
0.120134
20
0.789977
11
0.125
21
0.790748
0
LINE
8
BLACK
6
CONTINUOUS
10
0.125
20
0.790748
11
0.129866
21
0.789977
0
LINE
8
BLACK
6
CONTINUOUS
10
0.104866
20
0.839977
11
0.109256
21
0.83774
0
LINE
8
BLACK
6
CONTINUOUS
10
0.109256
20
0.83774
11
0.11274
21
0.834256
0
LINE
8
BLACK
6
CONTINUOUS
10
0.11274
20
0.834256
11
0.114977
21
0.829866
0
LINE
8
BLACK
6
CONTINUOUS
10
0.114977
20
0.829866
11
0.115748
21
0.825
0
LINE
8
BLACK
6
CONTINUOUS
10
0.115748
20
0.825
11
0.114977
21
0.820134
0
LINE
8
BLACK
6
CONTINUOUS
10
0.114977
20
0.820134
11
0.11274
21
0.815744
0
LINE
8
BLACK
6
CONTINUOUS
10
0.11274
20
0.815744
11
0.109256
21
0.81226
0
LINE
8
BLACK
6
CONTINUOUS
10
0.109256
20
0.81226
11
0.104866
21
0.810023
0
LINE
8
BLACK
6
CONTINUOUS
10
0.104866
20
0.810023
11
0.1
21
0.809252
0
LINE
8
BLACK
6
CONTINUOUS
10
0.1
20
0.809252
11
0.0951336
21
0.810023
0
LINE
8
BLACK
6
CONTINUOUS
10
0.0951336
20
0.810023
11
0.0907435
21
0.81226
0
LINE
8
BLACK
6
CONTINUOUS
10
0.0907435
20
0.81226
11
0.0872596
21
0.815744
0
LINE
8
BLACK
6
CONTINUOUS
10
0.0872596
20
0.815744
11
0.0850227
21
0.820134
0
LINE
8
BLACK
6
CONTINUOUS
10
0.0850227
20
0.820134
11
0.084252
21
0.825
0
LINE
8
BLACK
6
CONTINUOUS
10
0.084252
20
0.825
11
0.0850227
21
0.829866
0
LINE
8
BLACK
6
CONTINUOUS
10
0.0850227
20
0.829866
11
0.0872596
21
0.834256
0
LINE
8
BLACK
6
CONTINUOUS
10
0.0872596
20
0.834256
11
0.0907435
21
0.83774
0
LINE
8
BLACK
6
CONTINUOUS
10
0.0907435
20
0.83774
11
0.0951336
21
0.839977
0
LINE
8
BLACK
6
CONTINUOUS
10
0.0951336
20
0.839977
11
0.1
21
0.840748
0
LINE
8
BLACK
6
CONTINUOUS
10
0.1
20
0.840748
11
0.104866
21
0.839977
0
LINE
8
BLACK
6
CONTINUOUS
10
0.534866
20
0.864977
11
0.539256
21
0.86274
0
LINE
8
BLACK
6
CONTINUOUS
10
0.539256
20
0.86274
11
0.54274
21
0.859256
0
LINE
8
BLACK
6
CONTINUOUS
10
0.54274
20
0.859256
11
0.544977
21
0.854866
0
LINE
8
BLACK
6
CONTINUOUS
10
0.544977
20
0.854866
11
0.545748
21
0.85
0
LINE
8
BLACK
6
CONTINUOUS
10
0.545748
20
0.85
11
0.544977
21
0.845134
0
LINE
8
BLACK
6
CONTINUOUS
10
0.544977
20
0.845134
11
0.54274
21
0.840744
0
LINE
8
BLACK
6
CONTINUOUS
10
0.54274
20
0.840744
11
0.539256
21
0.83726
0
LINE
8
BLACK
6
CONTINUOUS
10
0.539256
20
0.83726
11
0.534866
21
0.835023
0
LINE
8
BLACK
6
CONTINUOUS
10
0.534866
20
0.835023
11
0.53
21
0.834252
0
LINE
8
BLACK
6
CONTINUOUS
10
0.53
20
0.834252
11
0.525134
21
0.835023
0
LINE
8
BLACK
6
CONTINUOUS
10
0.525134
20
0.835023
11
0.520744
21
0.83726
0
LINE
8
BLACK
6
CONTINUOUS
10
0.520744
20
0.83726
11
0.51726
21
0.840744
0
LINE
8
BLACK
6
CONTINUOUS
10
0.51726
20
0.840744
11
0.515023
21
0.845134
0
LINE
8
BLACK
6
CONTINUOUS
10
0.515023
20
0.845134
11
0.514252
21
0.85
0
LINE
8
BLACK
6
CONTINUOUS
10
0.514252
20
0.85
11
0.515023
21
0.854866
0
LINE
8
BLACK
6
CONTINUOUS
10
0.515023
20
0.854866
11
0.51726
21
0.859256
0
LINE
8
BLACK
6
CONTINUOUS
10
0.51726
20
0.859256
11
0.520744
21
0.86274
0
LINE
8
BLACK
6
CONTINUOUS
10
0.520744
20
0.86274
11
0.525134
21
0.864977
0
LINE
8
BLACK
6
CONTINUOUS
10
0.525134
20
0.864977
11
0.53
21
0.865748
0
LINE
8
BLACK
6
CONTINUOUS
10
0.53
20
0.865748
11
0.534866
21
0.864977
0
LINE
8
BLACK
6
CONTINUOUS
10
0.424866
20
0.879741
11
0.429256
21
0.877504
0
LINE
8
BLACK
6
CONTINUOUS
10
0.429256
20
0.877504
11
0.43274
21
0.87402
0
LINE
8
BLACK
6
CONTINUOUS
10
0.43274
20
0.87402
11
0.434977
21
0.86963
0
LINE
8
BLACK
6
CONTINUOUS
10
0.434977
20
0.86963
11
0.435748
21
0.864764
0
LINE
8
BLACK
6
CONTINUOUS
10
0.435748
20
0.864764
11
0.434977
21
0.859897
0
LINE
8
BLACK
6
CONTINUOUS
10
0.434977
20
0.859897
11
0.43274
21
0.855507
0
LINE
8
BLACK
6
CONTINUOUS
10
0.43274
20
0.855507
11
0.429256
21
0.852023
0
LINE
8
BLACK
6
CONTINUOUS
10
0.429256
20
0.852023
11
0.424866
21
0.849786
0
LINE
8
BLACK
6
CONTINUOUS
10
0.424866
20
0.849786
11
0.42
21
0.849016
0
LINE
8
BLACK
6
CONTINUOUS
10
0.42
20
0.849016
11
0.415134
21
0.849786
0
LINE
8
BLACK
6
CONTINUOUS
10
0.415134
20
0.849786
11
0.410744
21
0.852023
0
LINE
8
BLACK
6
CONTINUOUS
10
0.410744
20
0.852023
11
0.40726
21
0.855507
0
LINE
8
BLACK
6
CONTINUOUS
10
0.40726
20
0.855507
11
0.405023
21
0.859897
0
LINE
8
BLACK
6
CONTINUOUS
10
0.405023
20
0.859897
11
0.404252
21
0.864764
0
LINE
8
BLACK
6
CONTINUOUS
10
0.404252
20
0.864764
11
0.405023
21
0.86963
0
LINE
8
BLACK
6
CONTINUOUS
10
0.405023
20
0.86963
11
0.40726
21
0.87402
0
LINE
8
BLACK
6
CONTINUOUS
10
0.40726
20
0.87402
11
0.410744
21
0.877504
0
LINE
8
BLACK
6
CONTINUOUS
10
0.410744
20
0.877504
11
0.415134
21
0.879741
0
LINE
8
BLACK
6
CONTINUOUS
10
0.415134
20
0.879741
11
0.42
21
0.880512
0
LINE
8
BLACK
6
CONTINUOUS
10
0.42
20
0.880512
11
0.424866
21
0.879741
0
LINE
8
BLACK
6
CONTINUOUS
10
0.486166
20
0.879741
11
0.490556
21
0.877504
0
LINE
8
BLACK
6
CONTINUOUS
10
0.490556
20
0.877504
11
0.49404
21
0.87402
0
LINE
8
BLACK
6
CONTINUOUS
10
0.49404
20
0.87402
11
0.496276
21
0.86963
0
LINE
8
BLACK
6
CONTINUOUS
10
0.496276
20
0.86963
11
0.497047
21
0.864764
0
LINE
8
BLACK
6
CONTINUOUS
10
0.497047
20
0.864764
11
0.496276
21
0.859897
0
LINE
8
BLACK
6
CONTINUOUS
10
0.496276
20
0.859897
11
0.49404
21
0.855507
0
LINE
8
BLACK
6
CONTINUOUS
10
0.49404
20
0.855507
11
0.490556
21
0.852023
0
LINE
8
BLACK
6
CONTINUOUS
10
0.490556
20
0.852023
11
0.486166
21
0.849786
0
LINE
8
BLACK
6
CONTINUOUS
10
0.486166
20
0.849786
11
0.481299
21
0.849016
0
LINE
8
BLACK
6
CONTINUOUS
10
0.481299
20
0.849016
11
0.476433
21
0.849786
0
LINE
8
BLACK
6
CONTINUOUS
10
0.476433
20
0.849786
11
0.472043
21
0.852023
0
LINE
8
BLACK
6
CONTINUOUS
10
0.472043
20
0.852023
11
0.468559
21
0.855507
0
LINE
8
BLACK
6
CONTINUOUS
10
0.468559
20
0.855507
11
0.466322
21
0.859897
0
LINE
8
BLACK
6
CONTINUOUS
10
0.466322
20
0.859897
11
0.465551
21
0.864764
0
LINE
8
BLACK
6
CONTINUOUS
10
0.465551
20
0.864764
11
0.466322
21
0.86963
0
LINE
8
BLACK
6
CONTINUOUS
10
0.466322
20
0.86963
11
0.468559
21
0.87402
0
LINE
8
BLACK
6
CONTINUOUS
10
0.468559
20
0.87402
11
0.472043
21
0.877504
0
LINE
8
BLACK
6
CONTINUOUS
10
0.472043
20
0.877504
11
0.476433
21
0.879741
0
LINE
8
BLACK
6
CONTINUOUS
10
0.476433
20
0.879741
11
0.481299
21
0.880512
0
LINE
8
BLACK
6
CONTINUOUS
10
0.481299
20
0.880512
11
0.486166
21
0.879741
0
LINE
8
BLACK
6
CONTINUOUS
10
0.972866
20
0.880977
11
0.977256
21
0.87874
0
LINE
8
BLACK
6
CONTINUOUS
10
0.977256
20
0.87874
11
0.98074
21
0.875256
0
LINE
8
BLACK
6
CONTINUOUS
10
0.98074
20
0.875256
11
0.982977
21
0.870866
0
LINE
8
BLACK
6
CONTINUOUS
10
0.982977
20
0.870866
11
0.983748
21
0.866
0
LINE
8
BLACK
6
CONTINUOUS
10
0.983748
20
0.866
11
0.982977
21
0.861134
0
LINE
8
BLACK
6
CONTINUOUS
10
0.982977
20
0.861134
11
0.98074
21
0.856744
0
LINE
8
BLACK
6
CONTINUOUS
10
0.98074
20
0.856744
11
0.977256
21
0.85326
0
LINE
8
BLACK
6
CONTINUOUS
10
0.977256
20
0.85326
11
0.972866
21
0.851023
0
LINE
8
BLACK
6
CONTINUOUS
10
0.972866
20
0.851023
11
0.968
21
0.850252
0
LINE
8
BLACK
6
CONTINUOUS
10
0.968
20
0.850252
11
0.963134
21
0.851023
0
LINE
8
BLACK
6
CONTINUOUS
10
0.963134
20
0.851023
11
0.958744
21
0.85326
0
LINE
8
BLACK
6
CONTINUOUS
10
0.958744
20
0.85326
11
0.95526
21
0.856744
0
LINE
8
BLACK
6
CONTINUOUS
10
0.95526
20
0.856744
11
0.953023
21
0.861134
0
LINE
8
BLACK
6
CONTINUOUS
10
0.953023
20
0.861134
11
0.952252
21
0.866
0
LINE
8
BLACK
6
CONTINUOUS
10
0.952252
20
0.866
11
0.953023
21
0.870866
0
LINE
8
BLACK
6
CONTINUOUS
10
0.953023
20
0.870866
11
0.95526
21
0.875256
0
LINE
8
BLACK
6
CONTINUOUS
10
0.95526
20
0.875256
11
0.958744
21
0.87874
0
LINE
8
BLACK
6
CONTINUOUS
10
0.958744
20
0.87874
11
0.963134
21
0.880977
0
LINE
8
BLACK
6
CONTINUOUS
10
0.963134
20
0.880977
11
0.968
21
0.881748
0
LINE
8
BLACK
6
CONTINUOUS
10
0.968
20
0.881748
11
0.972866
21
0.880977
0
LINE
8
BLACK
6
CONTINUOUS
10
0.934866
20
0.880977
11
0.939256
21
0.87874
0
LINE
8
BLACK
6
CONTINUOUS
10
0.939256
20
0.87874
11
0.94274
21
0.875256
0
LINE
8
BLACK
6
CONTINUOUS
10
0.94274
20
0.875256
11
0.944977
21
0.870866
0
LINE
8
BLACK
6
CONTINUOUS
10
0.944977
20
0.870866
11
0.945748
21
0.866
0
LINE
8
BLACK
6
CONTINUOUS
10
0.945748
20
0.866
11
0.944977
21
0.861134
0
LINE
8
BLACK
6
CONTINUOUS
10
0.944977
20
0.861134
11
0.94274
21
0.856744
0
LINE
8
BLACK
6
CONTINUOUS
10
0.94274
20
0.856744
11
0.939256
21
0.85326
0
LINE
8
BLACK
6
CONTINUOUS
10
0.939256
20
0.85326
11
0.934866
21
0.851023
0
LINE
8
BLACK
6
CONTINUOUS
10
0.934866
20
0.851023
11
0.93
21
0.850252
0
LINE
8
BLACK
6
CONTINUOUS
10
0.93
20
0.850252
11
0.925134
21
0.851023
0
LINE
8
BLACK
6
CONTINUOUS
10
0.925134
20
0.851023
11
0.920744
21
0.85326
0
LINE
8
BLACK
6
CONTINUOUS
10
0.920744
20
0.85326
11
0.91726
21
0.856744
0
LINE
8
BLACK
6
CONTINUOUS
10
0.91726
20
0.856744
11
0.915023
21
0.861134
0
LINE
8
BLACK
6
CONTINUOUS
10
0.915023
20
0.861134
11
0.914252
21
0.866
0
LINE
8
BLACK
6
CONTINUOUS
10
0.914252
20
0.866
11
0.915023
21
0.870866
0
LINE
8
BLACK
6
CONTINUOUS
10
0.915023
20
0.870866
11
0.91726
21
0.875256
0
LINE
8
BLACK
6
CONTINUOUS
10
0.91726
20
0.875256
11
0.920744
21
0.87874
0
LINE
8
BLACK
6
CONTINUOUS
10
0.920744
20
0.87874
11
0.925134
21
0.880977
0
LINE
8
BLACK
6
CONTINUOUS
10
0.925134
20
0.880977
11
0.93
21
0.881748
0
LINE
8
BLACK
6
CONTINUOUS
10
0.93
20
0.881748
11
0.934866
21
0.880977
0
LINE
8
BLACK
6
CONTINUOUS
10
0.371166
20
0.884741
11
0.375556
21
0.882504
0
LINE
8
BLACK
6
CONTINUOUS
10
0.375556
20
0.882504
11
0.37904
21
0.87902
0
LINE
8
BLACK
6
CONTINUOUS
10
0.37904
20
0.87902
11
0.381276
21
0.87463
0
LINE
8
BLACK
6
CONTINUOUS
10
0.381276
20
0.87463
11
0.382047
21
0.869764
0
LINE
8
BLACK
6
CONTINUOUS
10
0.382047
20
0.869764
11
0.381276
21
0.864897
0
LINE
8
BLACK
6
CONTINUOUS
10
0.381276
20
0.864897
11
0.37904
21
0.860507
0
LINE
8
BLACK
6
CONTINUOUS
10
0.37904
20
0.860507
11
0.375556
21
0.857023
0
LINE
8
BLACK
6
CONTINUOUS
10
0.375556
20
0.857023
11
0.371166
21
0.854786
0
LINE
8
BLACK
6
CONTINUOUS
10
0.371166
20
0.854786
11
0.366299
21
0.854016
0
LINE
8
BLACK
6
CONTINUOUS
10
0.366299
20
0.854016
11
0.361433
21
0.854786
0
LINE
8
BLACK
6
CONTINUOUS
10
0.361433
20
0.854786
11
0.357043
21
0.857023
0
LINE
8
BLACK
6
CONTINUOUS
10
0.357043
20
0.857023
11
0.353559
21
0.860507
0
LINE
8
BLACK
6
CONTINUOUS
10
0.353559
20
0.860507
11
0.351322
21
0.864897
0
LINE
8
BLACK
6
CONTINUOUS
10
0.351322
20
0.864897
11
0.350551
21
0.869764
0
LINE
8
BLACK
6
CONTINUOUS
10
0.350551
20
0.869764
11
0.351322
21
0.87463
0
LINE
8
BLACK
6
CONTINUOUS
10
0.351322
20
0.87463
11
0.353559
21
0.87902
0
LINE
8
BLACK
6
CONTINUOUS
10
0.353559
20
0.87902
11
0.357043
21
0.882504
0
LINE
8
BLACK
6
CONTINUOUS
10
0.357043
20
0.882504
11
0.361433
21
0.884741
0
LINE
8
BLACK
6
CONTINUOUS
10
0.361433
20
0.884741
11
0.366299
21
0.885512
0
LINE
8
BLACK
6
CONTINUOUS
10
0.366299
20
0.885512
11
0.371166
21
0.884741
0
LINE
8
BLACK
6
CONTINUOUS
10
0.104866
20
0.889977
11
0.109256
21
0.88774
0
LINE
8
BLACK
6
CONTINUOUS
10
0.109256
20
0.88774
11
0.11274
21
0.884256
0
LINE
8
BLACK
6
CONTINUOUS
10
0.11274
20
0.884256
11
0.114977
21
0.879866
0
LINE
8
BLACK
6
CONTINUOUS
10
0.114977
20
0.879866
11
0.115748
21
0.875
0
LINE
8
BLACK
6
CONTINUOUS
10
0.115748
20
0.875
11
0.114977
21
0.870134
0
LINE
8
BLACK
6
CONTINUOUS
10
0.114977
20
0.870134
11
0.11274
21
0.865744
0
LINE
8
BLACK
6
CONTINUOUS
10
0.11274
20
0.865744
11
0.109256
21
0.86226
0
LINE
8
BLACK
6
CONTINUOUS
10
0.109256
20
0.86226
11
0.104866
21
0.860023
0
LINE
8
BLACK
6
CONTINUOUS
10
0.104866
20
0.860023
11
0.1
21
0.859252
0
LINE
8
BLACK
6
CONTINUOUS
10
0.1
20
0.859252
11
0.0951336
21
0.860023
0
LINE
8
BLACK
6
CONTINUOUS
10
0.0951336
20
0.860023
11
0.0907435
21
0.86226
0
LINE
8
BLACK
6
CONTINUOUS
10
0.0907435
20
0.86226
11
0.0872596
21
0.865744
0
LINE
8
BLACK
6
CONTINUOUS
10
0.0872596
20
0.865744
11
0.0850227
21
0.870134
0
LINE
8
BLACK
6
CONTINUOUS
10
0.0850227
20
0.870134
11
0.084252
21
0.875
0
LINE
8
BLACK
6
CONTINUOUS
10
0.084252
20
0.875
11
0.0850227
21
0.879866
0
LINE
8
BLACK
6
CONTINUOUS
10
0.0850227
20
0.879866
11
0.0872596
21
0.884256
0
LINE
8
BLACK
6
CONTINUOUS
10
0.0872596
20
0.884256
11
0.0907435
21
0.88774
0
LINE
8
BLACK
6
CONTINUOUS
10
0.0907435
20
0.88774
11
0.0951336
21
0.889977
0
LINE
8
BLACK
6
CONTINUOUS
10
0.0951336
20
0.889977
11
0.1
21
0.890748
0
LINE
8
BLACK
6
CONTINUOUS
10
0.1
20
0.890748
11
0.104866
21
0.889977
0
LINE
8
BLACK
6
CONTINUOUS
10
1.04287
20
1.21298
11
1.04726
21
1.21074
0
LINE
8
BLACK
6
CONTINUOUS
10
1.04726
20
1.21074
11
1.05074
21
1.20726
0
LINE
8
BLACK
6
CONTINUOUS
10
1.05074
20
1.20726
11
1.05298
21
1.20287
0
LINE
8
BLACK
6
CONTINUOUS
10
1.05298
20
1.20287
11
1.05375
21
1.198
0
LINE
8
BLACK
6
CONTINUOUS
10
1.05375
20
1.198
11
1.05298
21
1.19313
0
LINE
8
BLACK
6
CONTINUOUS
10
1.05298
20
1.19313
11
1.05074
21
1.18874
0
LINE
8
BLACK
6
CONTINUOUS
10
1.05074
20
1.18874
11
1.04726
21
1.18526
0
LINE
8
BLACK
6
CONTINUOUS
10
1.04726
20
1.18526
11
1.04587
21
1.18456
0
LINE
8
BLACK
6
CONTINUOUS
10
1.04587
20
1.18456
11
1.04587
21
0.927445
0
LINE
8
BLACK
6
CONTINUOUS
10
1.04587
20
0.927445
11
1.04726
21
0.92674
0
LINE
8
BLACK
6
CONTINUOUS
10
1.04726
20
0.92674
11
1.05074
21
0.923256
0
LINE
8
BLACK
6
CONTINUOUS
10
1.05074
20
0.923256
11
1.05298
21
0.918866
0
LINE
8
BLACK
6
CONTINUOUS
10
1.05298
20
0.918866
11
1.05375
21
0.914
0
LINE
8
BLACK
6
CONTINUOUS
10
1.05375
20
0.914
11
1.05298
21
0.909134
0
LINE
8
BLACK
6
CONTINUOUS
10
1.05298
20
0.909134
11
1.05074
21
0.904744
0
LINE
8
BLACK
6
CONTINUOUS
10
1.05074
20
0.904744
11
1.04726
21
0.90126
0
LINE
8
BLACK
6
CONTINUOUS
10
1.04726
20
0.90126
11
1.04287
21
0.899023
0
LINE
8
BLACK
6
CONTINUOUS
10
1.04287
20
0.899023
11
1.038
21
0.898252
0
LINE
8
BLACK
6
CONTINUOUS
10
1.038
20
0.898252
11
1.03313
21
0.899023
0
LINE
8
BLACK
6
CONTINUOUS
10
1.03313
20
0.899023
11
1.02874
21
0.90126
0
LINE
8
BLACK
6
CONTINUOUS
10
1.02874
20
0.90126
11
1.02526
21
0.904744
0
LINE
8
BLACK
6
CONTINUOUS
10
1.02526
20
0.904744
11
1.02302
21
0.909134
0
LINE
8
BLACK
6
CONTINUOUS
10
1.02302
20
0.909134
11
1.02225
21
0.914
0
LINE
8
BLACK
6
CONTINUOUS
10
1.02225
20
0.914
11
1.02302
21
0.918866
0
LINE
8
BLACK
6
CONTINUOUS
10
1.02302
20
0.918866
11
1.02526
21
0.923256
0
LINE
8
BLACK
6
CONTINUOUS
10
1.02526
20
0.923256
11
1.02874
21
0.92674
0
LINE
8
BLACK
6
CONTINUOUS
10
1.02874
20
0.92674
11
1.03013
21
0.927445
0
LINE
8
BLACK
6
CONTINUOUS
10
1.03013
20
0.927445
11
1.03013
21
1.18456
0
LINE
8
BLACK
6
CONTINUOUS
10
1.03013
20
1.18456
11
1.02874
21
1.18526
0
LINE
8
BLACK
6
CONTINUOUS
10
1.02874
20
1.18526
11
1.02526
21
1.18874
0
LINE
8
BLACK
6
CONTINUOUS
10
1.02526
20
1.18874
11
1.02302
21
1.19313
0
LINE
8
BLACK
6
CONTINUOUS
10
1.02302
20
1.19313
11
1.02225
21
1.198
0
LINE
8
BLACK
6
CONTINUOUS
10
1.02225
20
1.198
11
1.02302
21
1.20287
0
LINE
8
BLACK
6
CONTINUOUS
10
1.02302
20
1.20287
11
1.02526
21
1.20726
0
LINE
8
BLACK
6
CONTINUOUS
10
1.02526
20
1.20726
11
1.02874
21
1.21074
0
LINE
8
BLACK
6
CONTINUOUS
10
1.02874
20
1.21074
11
1.03313
21
1.21298
0
LINE
8
BLACK
6
CONTINUOUS
10
1.03313
20
1.21298
11
1.038
21
1.21375
0
LINE
8
BLACK
6
CONTINUOUS
10
1.038
20
1.21375
11
1.04287
21
1.21298
0
LINE
8
BLACK
6
CONTINUOUS
10
0.511166
20
0.954741
11
0.515556
21
0.952504
0
LINE
8
BLACK
6
CONTINUOUS
10
0.515556
20
0.952504
11
0.51904
21
0.94902
0
LINE
8
BLACK
6
CONTINUOUS
10
0.51904
20
0.94902
11
0.521276
21
0.94463
0
LINE
8
BLACK
6
CONTINUOUS
10
0.521276
20
0.94463
11
0.522047
21
0.939764
0
LINE
8
BLACK
6
CONTINUOUS
10
0.522047
20
0.939764
11
0.521276
21
0.934897
0
LINE
8
BLACK
6
CONTINUOUS
10
0.521276
20
0.934897
11
0.51904
21
0.930507
0
LINE
8
BLACK
6
CONTINUOUS
10
0.51904
20
0.930507
11
0.515556
21
0.927023
0
LINE
8
BLACK
6
CONTINUOUS
10
0.515556
20
0.927023
11
0.511166
21
0.924786
0
LINE
8
BLACK
6
CONTINUOUS
10
0.511166
20
0.924786
11
0.506299
21
0.924016
0
LINE
8
BLACK
6
CONTINUOUS
10
0.506299
20
0.924016
11
0.501433
21
0.924786
0
LINE
8
BLACK
6
CONTINUOUS
10
0.501433
20
0.924786
11
0.497043
21
0.927023
0
LINE
8
BLACK
6
CONTINUOUS
10
0.497043
20
0.927023
11
0.493559
21
0.930507
0
LINE
8
BLACK
6
CONTINUOUS
10
0.493559
20
0.930507
11
0.491322
21
0.934897
0
LINE
8
BLACK
6
CONTINUOUS
10
0.491322
20
0.934897
11
0.490551
21
0.939764
0
LINE
8
BLACK
6
CONTINUOUS
10
0.490551
20
0.939764
11
0.491322
21
0.94463
0
LINE
8
BLACK
6
CONTINUOUS
10
0.491322
20
0.94463
11
0.493559
21
0.94902
0
LINE
8
BLACK
6
CONTINUOUS
10
0.493559
20
0.94902
11
0.497043
21
0.952504
0
LINE
8
BLACK
6
CONTINUOUS
10
0.497043
20
0.952504
11
0.501433
21
0.954741
0
LINE
8
BLACK
6
CONTINUOUS
10
0.501433
20
0.954741
11
0.506299
21
0.955512
0
LINE
8
BLACK
6
CONTINUOUS
10
0.506299
20
0.955512
11
0.511166
21
0.954741
0
LINE
8
BLACK
6
CONTINUOUS
10
0.788866
20
0.964977
11
0.793256
21
0.96274
0
LINE
8
BLACK
6
CONTINUOUS
10
0.793256
20
0.96274
11
0.79674
21
0.959256
0
LINE
8
BLACK
6
CONTINUOUS
10
0.79674
20
0.959256
11
0.798977
21
0.954866
0
LINE
8
BLACK
6
CONTINUOUS
10
0.798977
20
0.954866
11
0.799748
21
0.95
0
LINE
8
BLACK
6
CONTINUOUS
10
0.799748
20
0.95
11
0.798977
21
0.945134
0
LINE
8
BLACK
6
CONTINUOUS
10
0.798977
20
0.945134
11
0.79674
21
0.940744
0
LINE
8
BLACK
6
CONTINUOUS
10
0.79674
20
0.940744
11
0.793256
21
0.93726
0
LINE
8
BLACK
6
CONTINUOUS
10
0.793256
20
0.93726
11
0.788866
21
0.935023
0
LINE
8
BLACK
6
CONTINUOUS
10
0.788866
20
0.935023
11
0.784
21
0.934252
0
LINE
8
BLACK
6
CONTINUOUS
10
0.784
20
0.934252
11
0.779134
21
0.935023
0
LINE
8
BLACK
6
CONTINUOUS
10
0.779134
20
0.935023
11
0.774744
21
0.93726
0
LINE
8
BLACK
6
CONTINUOUS
10
0.774744
20
0.93726
11
0.77126
21
0.940744
0
LINE
8
BLACK
6
CONTINUOUS
10
0.77126
20
0.940744
11
0.769023
21
0.945134
0
LINE
8
BLACK
6
CONTINUOUS
10
0.769023
20
0.945134
11
0.768252
21
0.95
0
LINE
8
BLACK
6
CONTINUOUS
10
0.768252
20
0.95
11
0.769023
21
0.954866
0
LINE
8
BLACK
6
CONTINUOUS
10
0.769023
20
0.954866
11
0.77126
21
0.959256
0
LINE
8
BLACK
6
CONTINUOUS
10
0.77126
20
0.959256
11
0.774744
21
0.96274
0
LINE
8
BLACK
6
CONTINUOUS
10
0.774744
20
0.96274
11
0.779134
21
0.964977
0
LINE
8
BLACK
6
CONTINUOUS
10
0.779134
20
0.964977
11
0.784
21
0.965748
0
LINE
8
BLACK
6
CONTINUOUS
10
0.784
20
0.965748
11
0.788866
21
0.964977
0
LINE
8
BLACK
6
CONTINUOUS
10
0.104866
20
0.964977
11
0.109256
21
0.96274
0
LINE
8
BLACK
6
CONTINUOUS
10
0.109256
20
0.96274
11
0.11274
21
0.959256
0
LINE
8
BLACK
6
CONTINUOUS
10
0.11274
20
0.959256
11
0.114977
21
0.954866
0
LINE
8
BLACK
6
CONTINUOUS
10
0.114977
20
0.954866
11
0.115748
21
0.95
0
LINE
8
BLACK
6
CONTINUOUS
10
0.115748
20
0.95
11
0.114977
21
0.945134
0
LINE
8
BLACK
6
CONTINUOUS
10
0.114977
20
0.945134
11
0.11274
21
0.940744
0
LINE
8
BLACK
6
CONTINUOUS
10
0.11274
20
0.940744
11
0.109256
21
0.93726
0
LINE
8
BLACK
6
CONTINUOUS
10
0.109256
20
0.93726
11
0.104866
21
0.935023
0
LINE
8
BLACK
6
CONTINUOUS
10
0.104866
20
0.935023
11
0.1
21
0.934252
0
LINE
8
BLACK
6
CONTINUOUS
10
0.1
20
0.934252
11
0.0951336
21
0.935023
0
LINE
8
BLACK
6
CONTINUOUS
10
0.0951336
20
0.935023
11
0.0907435
21
0.93726
0
LINE
8
BLACK
6
CONTINUOUS
10
0.0907435
20
0.93726
11
0.0872596
21
0.940744
0
LINE
8
BLACK
6
CONTINUOUS
10
0.0872596
20
0.940744
11
0.0850227
21
0.945134
0
LINE
8
BLACK
6
CONTINUOUS
10
0.0850227
20
0.945134
11
0.084252
21
0.95
0
LINE
8
BLACK
6
CONTINUOUS
10
0.084252
20
0.95
11
0.0850227
21
0.954866
0
LINE
8
BLACK
6
CONTINUOUS
10
0.0850227
20
0.954866
11
0.0872596
21
0.959256
0
LINE
8
BLACK
6
CONTINUOUS
10
0.0872596
20
0.959256
11
0.0907435
21
0.96274
0
LINE
8
BLACK
6
CONTINUOUS
10
0.0907435
20
0.96274
11
0.0951336
21
0.964977
0
LINE
8
BLACK
6
CONTINUOUS
10
0.0951336
20
0.964977
11
0.1
21
0.965748
0
LINE
8
BLACK
6
CONTINUOUS
10
0.1
20
0.965748
11
0.104866
21
0.964977
0
LINE
8
BLACK
6
CONTINUOUS
10
0.720866
20
1.01898
11
0.725256
21
1.01674
0
LINE
8
BLACK
6
CONTINUOUS
10
0.725256
20
1.01674
11
0.72874
21
1.01326
0
LINE
8
BLACK
6
CONTINUOUS
10
0.72874
20
1.01326
11
0.730977
21
1.00887
0
LINE
8
BLACK
6
CONTINUOUS
10
0.730977
20
1.00887
11
0.731748
21
1.004
0
LINE
8
BLACK
6
CONTINUOUS
10
0.731748
20
1.004
11
0.730977
21
0.999134
0
LINE
8
BLACK
6
CONTINUOUS
10
0.730977
20
0.999134
11
0.72874
21
0.994744
0
LINE
8
BLACK
6
CONTINUOUS
10
0.72874
20
0.994744
11
0.725256
21
0.99126
0
LINE
8
BLACK
6
CONTINUOUS
10
0.725256
20
0.99126
11
0.720866
21
0.989023
0
LINE
8
BLACK
6
CONTINUOUS
10
0.720866
20
0.989023
11
0.716
21
0.988252
0
LINE
8
BLACK
6
CONTINUOUS
10
0.716
20
0.988252
11
0.711134
21
0.989023
0
LINE
8
BLACK
6
CONTINUOUS
10
0.711134
20
0.989023
11
0.706744
21
0.99126
0
LINE
8
BLACK
6
CONTINUOUS
10
0.706744
20
0.99126
11
0.70326
21
0.994744
0
LINE
8
BLACK
6
CONTINUOUS
10
0.70326
20
0.994744
11
0.701023
21
0.999134
0
LINE
8
BLACK
6
CONTINUOUS
10
0.701023
20
0.999134
11
0.700252
21
1.004
0
LINE
8
BLACK
6
CONTINUOUS
10
0.700252
20
1.004
11
0.701023
21
1.00887
0
LINE
8
BLACK
6
CONTINUOUS
10
0.701023
20
1.00887
11
0.70326
21
1.01326
0
LINE
8
BLACK
6
CONTINUOUS
10
0.70326
20
1.01326
11
0.706744
21
1.01674
0
LINE
8
BLACK
6
CONTINUOUS
10
0.706744
20
1.01674
11
0.711134
21
1.01898
0
LINE
8
BLACK
6
CONTINUOUS
10
0.711134
20
1.01898
11
0.716
21
1.01975
0
LINE
8
BLACK
6
CONTINUOUS
10
0.716
20
1.01975
11
0.720866
21
1.01898
0
LINE
8
BLACK
6
CONTINUOUS
10
0.658866
20
1.01898
11
0.663256
21
1.01674
0
LINE
8
BLACK
6
CONTINUOUS
10
0.663256
20
1.01674
11
0.66674
21
1.01326
0
LINE
8
BLACK
6
CONTINUOUS
10
0.66674
20
1.01326
11
0.668977
21
1.00887
0
LINE
8
BLACK
6
CONTINUOUS
10
0.668977
20
1.00887
11
0.669748
21
1.004
0
LINE
8
BLACK
6
CONTINUOUS
10
0.669748
20
1.004
11
0.668977
21
0.999134
0
LINE
8
BLACK
6
CONTINUOUS
10
0.668977
20
0.999134
11
0.66674
21
0.994744
0
LINE
8
BLACK
6
CONTINUOUS
10
0.66674
20
0.994744
11
0.663256
21
0.99126
0
LINE
8
BLACK
6
CONTINUOUS
10
0.663256
20
0.99126
11
0.658866
21
0.989023
0
LINE
8
BLACK
6
CONTINUOUS
10
0.658866
20
0.989023
11
0.654
21
0.988252
0
LINE
8
BLACK
6
CONTINUOUS
10
0.654
20
0.988252
11
0.649134
21
0.989023
0
LINE
8
BLACK
6
CONTINUOUS
10
0.649134
20
0.989023
11
0.644744
21
0.99126
0
LINE
8
BLACK
6
CONTINUOUS
10
0.644744
20
0.99126
11
0.64126
21
0.994744
0
LINE
8
BLACK
6
CONTINUOUS
10
0.64126
20
0.994744
11
0.639023
21
0.999134
0
LINE
8
BLACK
6
CONTINUOUS
10
0.639023
20
0.999134
11
0.638252
21
1.004
0
LINE
8
BLACK
6
CONTINUOUS
10
0.638252
20
1.004
11
0.639023
21
1.00887
0
LINE
8
BLACK
6
CONTINUOUS
10
0.639023
20
1.00887
11
0.64126
21
1.01326
0
LINE
8
BLACK
6
CONTINUOUS
10
0.64126
20
1.01326
11
0.644744
21
1.01674
0
LINE
8
BLACK
6
CONTINUOUS
10
0.644744
20
1.01674
11
0.649134
21
1.01898
0
LINE
8
BLACK
6
CONTINUOUS
10
0.649134
20
1.01898
11
0.654
21
1.01975
0
LINE
8
BLACK
6
CONTINUOUS
10
0.654
20
1.01975
11
0.658866
21
1.01898
0
LINE
8
BLACK
6
CONTINUOUS
10
0.788866
20
1.02098
11
0.793256
21
1.01874
0
LINE
8
BLACK
6
CONTINUOUS
10
0.793256
20
1.01874
11
0.79674
21
1.01526
0
LINE
8
BLACK
6
CONTINUOUS
10
0.79674
20
1.01526
11
0.798977
21
1.01087
0
LINE
8
BLACK
6
CONTINUOUS
10
0.798977
20
1.01087
11
0.799748
21
1.006
0
LINE
8
BLACK
6
CONTINUOUS
10
0.799748
20
1.006
11
0.798977
21
1.00113
0
LINE
8
BLACK
6
CONTINUOUS
10
0.798977
20
1.00113
11
0.79674
21
0.996744
0
LINE
8
BLACK
6
CONTINUOUS
10
0.79674
20
0.996744
11
0.793256
21
0.99326
0
LINE
8
BLACK
6
CONTINUOUS
10
0.793256
20
0.99326
11
0.788866
21
0.991023
0
LINE
8
BLACK
6
CONTINUOUS
10
0.788866
20
0.991023
11
0.784
21
0.990252
0
LINE
8
BLACK
6
CONTINUOUS
10
0.784
20
0.990252
11
0.779134
21
0.991023
0
LINE
8
BLACK
6
CONTINUOUS
10
0.779134
20
0.991023
11
0.774744
21
0.99326
0
LINE
8
BLACK
6
CONTINUOUS
10
0.774744
20
0.99326
11
0.77126
21
0.996744
0
LINE
8
BLACK
6
CONTINUOUS
10
0.77126
20
0.996744
11
0.769023
21
1.00113
0
LINE
8
BLACK
6
CONTINUOUS
10
0.769023
20
1.00113
11
0.768252
21
1.006
0
LINE
8
BLACK
6
CONTINUOUS
10
0.768252
20
1.006
11
0.769023
21
1.01087
0
LINE
8
BLACK
6
CONTINUOUS
10
0.769023
20
1.01087
11
0.77126
21
1.01526
0
LINE
8
BLACK
6
CONTINUOUS
10
0.77126
20
1.01526
11
0.774744
21
1.01874
0
LINE
8
BLACK
6
CONTINUOUS
10
0.774744
20
1.01874
11
0.779134
21
1.02098
0
LINE
8
BLACK
6
CONTINUOUS
10
0.779134
20
1.02098
11
0.784
21
1.02175
0
LINE
8
BLACK
6
CONTINUOUS
10
0.784
20
1.02175
11
0.788866
21
1.02098
0
LINE
8
BLACK
6
CONTINUOUS
10
0.600866
20
1.02098
11
0.605256
21
1.01874
0
LINE
8
BLACK
6
CONTINUOUS
10
0.605256
20
1.01874
11
0.60874
21
1.01526
0
LINE
8
BLACK
6
CONTINUOUS
10
0.60874
20
1.01526
11
0.610977
21
1.01087
0
LINE
8
BLACK
6
CONTINUOUS
10
0.610977
20
1.01087
11
0.611748
21
1.006
0
LINE
8
BLACK
6
CONTINUOUS
10
0.611748
20
1.006
11
0.610977
21
1.00113
0
LINE
8
BLACK
6
CONTINUOUS
10
0.610977
20
1.00113
11
0.60874
21
0.996744
0
LINE
8
BLACK
6
CONTINUOUS
10
0.60874
20
0.996744
11
0.605256
21
0.99326
0
LINE
8
BLACK
6
CONTINUOUS
10
0.605256
20
0.99326
11
0.600866
21
0.991023
0
LINE
8
BLACK
6
CONTINUOUS
10
0.600866
20
0.991023
11
0.596
21
0.990252
0
LINE
8
BLACK
6
CONTINUOUS
10
0.596
20
0.990252
11
0.591134
21
0.991023
0
LINE
8
BLACK
6
CONTINUOUS
10
0.591134
20
0.991023
11
0.586744
21
0.99326
0
LINE
8
BLACK
6
CONTINUOUS
10
0.586744
20
0.99326
11
0.58326
21
0.996744
0
LINE
8
BLACK
6
CONTINUOUS
10
0.58326
20
0.996744
11
0.581023
21
1.00113
0
LINE
8
BLACK
6
CONTINUOUS
10
0.581023
20
1.00113
11
0.580252
21
1.006
0
LINE
8
BLACK
6
CONTINUOUS
10
0.580252
20
1.006
11
0.581023
21
1.01087
0
LINE
8
BLACK
6
CONTINUOUS
10
0.581023
20
1.01087
11
0.58326
21
1.01526
0
LINE
8
BLACK
6
CONTINUOUS
10
0.58326
20
1.01526
11
0.586744
21
1.01874
0
LINE
8
BLACK
6
CONTINUOUS
10
0.586744
20
1.01874
11
0.591134
21
1.02098
0
LINE
8
BLACK
6
CONTINUOUS
10
0.591134
20
1.02098
11
0.596
21
1.02175
0
LINE
8
BLACK
6
CONTINUOUS
10
0.596
20
1.02175
11
0.600866
21
1.02098
0
LINE
8
BLACK
6
CONTINUOUS
10
0.201166
20
1.02474
11
0.205556
21
1.0225
0
LINE
8
BLACK
6
CONTINUOUS
10
0.205556
20
1.0225
11
0.20904
21
1.01902
0
LINE
8
BLACK
6
CONTINUOUS
10
0.20904
20
1.01902
11
0.211276
21
1.01463
0
LINE
8
BLACK
6
CONTINUOUS
10
0.211276
20
1.01463
11
0.212047
21
1.00976
0
LINE
8
BLACK
6
CONTINUOUS
10
0.212047
20
1.00976
11
0.211276
21
1.0049
0
LINE
8
BLACK
6
CONTINUOUS
10
0.211276
20
1.0049
11
0.20904
21
1.00051
0
LINE
8
BLACK
6
CONTINUOUS
10
0.20904
20
1.00051
11
0.205556
21
0.997023
0
LINE
8
BLACK
6
CONTINUOUS
10
0.205556
20
0.997023
11
0.201166
21
0.994786
0
LINE
8
BLACK
6
CONTINUOUS
10
0.201166
20
0.994786
11
0.196299
21
0.994016
0
LINE
8
BLACK
6
CONTINUOUS
10
0.196299
20
0.994016
11
0.191433
21
0.994786
0
LINE
8
BLACK
6
CONTINUOUS
10
0.191433
20
0.994786
11
0.187043
21
0.997023
0
LINE
8
BLACK
6
CONTINUOUS
10
0.187043
20
0.997023
11
0.183559
21
1.00051
0
LINE
8
BLACK
6
CONTINUOUS
10
0.183559
20
1.00051
11
0.181322
21
1.0049
0
LINE
8
BLACK
6
CONTINUOUS
10
0.181322
20
1.0049
11
0.180551
21
1.00976
0
LINE
8
BLACK
6
CONTINUOUS
10
0.180551
20
1.00976
11
0.181322
21
1.01463
0
LINE
8
BLACK
6
CONTINUOUS
10
0.181322
20
1.01463
11
0.183559
21
1.01902
0
LINE
8
BLACK
6
CONTINUOUS
10
0.183559
20
1.01902
11
0.187043
21
1.0225
0
LINE
8
BLACK
6
CONTINUOUS
10
0.187043
20
1.0225
11
0.191433
21
1.02474
0
LINE
8
BLACK
6
CONTINUOUS
10
0.191433
20
1.02474
11
0.196299
21
1.02551
0
LINE
8
BLACK
6
CONTINUOUS
10
0.196299
20
1.02551
11
0.201166
21
1.02474
0
LINE
8
BLACK
6
CONTINUOUS
10
0.411166
20
1.02974
11
0.415556
21
1.0275
0
LINE
8
BLACK
6
CONTINUOUS
10
0.415556
20
1.0275
11
0.41904
21
1.02402
0
LINE
8
BLACK
6
CONTINUOUS
10
0.41904
20
1.02402
11
0.421276
21
1.01963
0
LINE
8
BLACK
6
CONTINUOUS
10
0.421276
20
1.01963
11
0.422047
21
1.01476
0
LINE
8
BLACK
6
CONTINUOUS
10
0.422047
20
1.01476
11
0.421276
21
1.0099
0
LINE
8
BLACK
6
CONTINUOUS
10
0.421276
20
1.0099
11
0.41904
21
1.00551
0
LINE
8
BLACK
6
CONTINUOUS
10
0.41904
20
1.00551
11
0.415556
21
1.00202
0
LINE
8
BLACK
6
CONTINUOUS
10
0.415556
20
1.00202
11
0.411166
21
0.999786
0
LINE
8
BLACK
6
CONTINUOUS
10
0.411166
20
0.999786
11
0.406299
21
0.999016
0
LINE
8
BLACK
6
CONTINUOUS
10
0.406299
20
0.999016
11
0.401433
21
0.999786
0
LINE
8
BLACK
6
CONTINUOUS
10
0.401433
20
0.999786
11
0.397043
21
1.00202
0
LINE
8
BLACK
6
CONTINUOUS
10
0.397043
20
1.00202
11
0.393559
21
1.00551
0
LINE
8
BLACK
6
CONTINUOUS
10
0.393559
20
1.00551
11
0.391322
21
1.0099
0
LINE
8
BLACK
6
CONTINUOUS
10
0.391322
20
1.0099
11
0.390551
21
1.01476
0
LINE
8
BLACK
6
CONTINUOUS
10
0.390551
20
1.01476
11
0.391322
21
1.01963
0
LINE
8
BLACK
6
CONTINUOUS
10
0.391322
20
1.01963
11
0.393559
21
1.02402
0
LINE
8
BLACK
6
CONTINUOUS
10
0.393559
20
1.02402
11
0.397043
21
1.0275
0
LINE
8
BLACK
6
CONTINUOUS
10
0.397043
20
1.0275
11
0.401433
21
1.02974
0
LINE
8
BLACK
6
CONTINUOUS
10
0.401433
20
1.02974
11
0.406299
21
1.03051
0
LINE
8
BLACK
6
CONTINUOUS
10
0.406299
20
1.03051
11
0.411166
21
1.02974
0
LINE
8
BLACK
6
CONTINUOUS
10
0.104866
20
1.03998
11
0.109256
21
1.03774
0
LINE
8
BLACK
6
CONTINUOUS
10
0.109256
20
1.03774
11
0.11274
21
1.03426
0
LINE
8
BLACK
6
CONTINUOUS
10
0.11274
20
1.03426
11
0.114977
21
1.02987
0
LINE
8
BLACK
6
CONTINUOUS
10
0.114977
20
1.02987
11
0.115748
21
1.025
0
LINE
8
BLACK
6
CONTINUOUS
10
0.115748
20
1.025
11
0.114977
21
1.02013
0
LINE
8
BLACK
6
CONTINUOUS
10
0.114977
20
1.02013
11
0.11274
21
1.01574
0
LINE
8
BLACK
6
CONTINUOUS
10
0.11274
20
1.01574
11
0.109256
21
1.01226
0
LINE
8
BLACK
6
CONTINUOUS
10
0.109256
20
1.01226
11
0.104866
21
1.01002
0
LINE
8
BLACK
6
CONTINUOUS
10
0.104866
20
1.01002
11
0.1
21
1.00925
0
LINE
8
BLACK
6
CONTINUOUS
10
0.1
20
1.00925
11
0.0951336
21
1.01002
0
LINE
8
BLACK
6
CONTINUOUS
10
0.0951336
20
1.01002
11
0.0907435
21
1.01226
0
LINE
8
BLACK
6
CONTINUOUS
10
0.0907435
20
1.01226
11
0.0872596
21
1.01574
0
LINE
8
BLACK
6
CONTINUOUS
10
0.0872596
20
1.01574
11
0.0850227
21
1.02013
0
LINE
8
BLACK
6
CONTINUOUS
10
0.0850227
20
1.02013
11
0.084252
21
1.025
0
LINE
8
BLACK
6
CONTINUOUS
10
0.084252
20
1.025
11
0.0850227
21
1.02987
0
LINE
8
BLACK
6
CONTINUOUS
10
0.0850227
20
1.02987
11
0.0872596
21
1.03426
0
LINE
8
BLACK
6
CONTINUOUS
10
0.0872596
20
1.03426
11
0.0907435
21
1.03774
0
LINE
8
BLACK
6
CONTINUOUS
10
0.0907435
20
1.03774
11
0.0951336
21
1.03998
0
LINE
8
BLACK
6
CONTINUOUS
10
0.0951336
20
1.03998
11
0.1
21
1.04075
0
LINE
8
BLACK
6
CONTINUOUS
10
0.1
20
1.04075
11
0.104866
21
1.03998
0
LINE
8
BLACK
6
CONTINUOUS
10
0.201166
20
1.07474
11
0.205556
21
1.0725
0
LINE
8
BLACK
6
CONTINUOUS
10
0.205556
20
1.0725
11
0.20904
21
1.06902
0
LINE
8
BLACK
6
CONTINUOUS
10
0.20904
20
1.06902
11
0.211276
21
1.06463
0
LINE
8
BLACK
6
CONTINUOUS
10
0.211276
20
1.06463
11
0.212047
21
1.05976
0
LINE
8
BLACK
6
CONTINUOUS
10
0.212047
20
1.05976
11
0.211276
21
1.0549
0
LINE
8
BLACK
6
CONTINUOUS
10
0.211276
20
1.0549
11
0.20904
21
1.05051
0
LINE
8
BLACK
6
CONTINUOUS
10
0.20904
20
1.05051
11
0.205556
21
1.04702
0
LINE
8
BLACK
6
CONTINUOUS
10
0.205556
20
1.04702
11
0.201166
21
1.04479
0
LINE
8
BLACK
6
CONTINUOUS
10
0.201166
20
1.04479
11
0.196299
21
1.04402
0
LINE
8
BLACK
6
CONTINUOUS
10
0.196299
20
1.04402
11
0.191433
21
1.04479
0
LINE
8
BLACK
6
CONTINUOUS
10
0.191433
20
1.04479
11
0.187043
21
1.04702
0
LINE
8
BLACK
6
CONTINUOUS
10
0.187043
20
1.04702
11
0.183559
21
1.05051
0
LINE
8
BLACK
6
CONTINUOUS
10
0.183559
20
1.05051
11
0.181322
21
1.0549
0
LINE
8
BLACK
6
CONTINUOUS
10
0.181322
20
1.0549
11
0.180551
21
1.05976
0
LINE
8
BLACK
6
CONTINUOUS
10
0.180551
20
1.05976
11
0.181322
21
1.06463
0
LINE
8
BLACK
6
CONTINUOUS
10
0.181322
20
1.06463
11
0.183559
21
1.06902
0
LINE
8
BLACK
6
CONTINUOUS
10
0.183559
20
1.06902
11
0.187043
21
1.0725
0
LINE
8
BLACK
6
CONTINUOUS
10
0.187043
20
1.0725
11
0.191433
21
1.07474
0
LINE
8
BLACK
6
CONTINUOUS
10
0.191433
20
1.07474
11
0.196299
21
1.07551
0
LINE
8
BLACK
6
CONTINUOUS
10
0.196299
20
1.07551
11
0.201166
21
1.07474
0
LINE
8
BLACK
6
CONTINUOUS
10
0.411166
20
1.10474
11
0.415556
21
1.1025
0
LINE
8
BLACK
6
CONTINUOUS
10
0.415556
20
1.1025
11
0.41904
21
1.09902
0
LINE
8
BLACK
6
CONTINUOUS
10
0.41904
20
1.09902
11
0.421276
21
1.09463
0
LINE
8
BLACK
6
CONTINUOUS
10
0.421276
20
1.09463
11
0.422047
21
1.08976
0
LINE
8
BLACK
6
CONTINUOUS
10
0.422047
20
1.08976
11
0.421276
21
1.0849
0
LINE
8
BLACK
6
CONTINUOUS
10
0.421276
20
1.0849
11
0.41904
21
1.08051
0
LINE
8
BLACK
6
CONTINUOUS
10
0.41904
20
1.08051
11
0.415556
21
1.07702
0
LINE
8
BLACK
6
CONTINUOUS
10
0.415556
20
1.07702
11
0.411166
21
1.07479
0
LINE
8
BLACK
6
CONTINUOUS
10
0.411166
20
1.07479
11
0.406299
21
1.07402
0
LINE
8
BLACK
6
CONTINUOUS
10
0.406299
20
1.07402
11
0.401433
21
1.07479
0
LINE
8
BLACK
6
CONTINUOUS
10
0.401433
20
1.07479
11
0.397043
21
1.07702
0
LINE
8
BLACK
6
CONTINUOUS
10
0.397043
20
1.07702
11
0.393559
21
1.08051
0
LINE
8
BLACK
6
CONTINUOUS
10
0.393559
20
1.08051
11
0.391322
21
1.0849
0
LINE
8
BLACK
6
CONTINUOUS
10
0.391322
20
1.0849
11
0.390551
21
1.08976
0
LINE
8
BLACK
6
CONTINUOUS
10
0.390551
20
1.08976
11
0.391322
21
1.09463
0
LINE
8
BLACK
6
CONTINUOUS
10
0.391322
20
1.09463
11
0.393559
21
1.09902
0
LINE
8
BLACK
6
CONTINUOUS
10
0.393559
20
1.09902
11
0.397043
21
1.1025
0
LINE
8
BLACK
6
CONTINUOUS
10
0.397043
20
1.1025
11
0.401433
21
1.10474
0
LINE
8
BLACK
6
CONTINUOUS
10
0.401433
20
1.10474
11
0.406299
21
1.10551
0
LINE
8
BLACK
6
CONTINUOUS
10
0.406299
20
1.10551
11
0.411166
21
1.10474
0
LINE
8
BLACK
6
CONTINUOUS
10
0.104866
20
1.11498
11
0.109256
21
1.11274
0
LINE
8
BLACK
6
CONTINUOUS
10
0.109256
20
1.11274
11
0.11274
21
1.10926
0
LINE
8
BLACK
6
CONTINUOUS
10
0.11274
20
1.10926
11
0.114977
21
1.10487
0
LINE
8
BLACK
6
CONTINUOUS
10
0.114977
20
1.10487
11
0.115748
21
1.1
0
LINE
8
BLACK
6
CONTINUOUS
10
0.115748
20
1.1
11
0.114977
21
1.09513
0
LINE
8
BLACK
6
CONTINUOUS
10
0.114977
20
1.09513
11
0.11274
21
1.09074
0
LINE
8
BLACK
6
CONTINUOUS
10
0.11274
20
1.09074
11
0.109256
21
1.08726
0
LINE
8
BLACK
6
CONTINUOUS
10
0.109256
20
1.08726
11
0.104866
21
1.08502
0
LINE
8
BLACK
6
CONTINUOUS
10
0.104866
20
1.08502
11
0.1
21
1.08425
0
LINE
8
BLACK
6
CONTINUOUS
10
0.1
20
1.08425
11
0.0951336
21
1.08502
0
LINE
8
BLACK
6
CONTINUOUS
10
0.0951336
20
1.08502
11
0.0907435
21
1.08726
0
LINE
8
BLACK
6
CONTINUOUS
10
0.0907435
20
1.08726
11
0.0872596
21
1.09074
0
LINE
8
BLACK
6
CONTINUOUS
10
0.0872596
20
1.09074
11
0.0850227
21
1.09513
0
LINE
8
BLACK
6
CONTINUOUS
10
0.0850227
20
1.09513
11
0.084252
21
1.1
0
LINE
8
BLACK
6
CONTINUOUS
10
0.084252
20
1.1
11
0.0850227
21
1.10487
0
LINE
8
BLACK
6
CONTINUOUS
10
0.0850227
20
1.10487
11
0.0872596
21
1.10926
0
LINE
8
BLACK
6
CONTINUOUS
10
0.0872596
20
1.10926
11
0.0907435
21
1.11274
0
LINE
8
BLACK
6
CONTINUOUS
10
0.0907435
20
1.11274
11
0.0951336
21
1.11498
0
LINE
8
BLACK
6
CONTINUOUS
10
0.0951336
20
1.11498
11
0.1
21
1.11575
0
LINE
8
BLACK
6
CONTINUOUS
10
0.1
20
1.11575
11
0.104866
21
1.11498
0
LINE
8
BLACK
6
CONTINUOUS
10
0.411166
20
1.15474
11
0.415556
21
1.1525
0
LINE
8
BLACK
6
CONTINUOUS
10
0.415556
20
1.1525
11
0.41904
21
1.14902
0
LINE
8
BLACK
6
CONTINUOUS
10
0.41904
20
1.14902
11
0.421276
21
1.14463
0
LINE
8
BLACK
6
CONTINUOUS
10
0.421276
20
1.14463
11
0.422047
21
1.13976
0
LINE
8
BLACK
6
CONTINUOUS
10
0.422047
20
1.13976
11
0.421276
21
1.1349
0
LINE
8
BLACK
6
CONTINUOUS
10
0.421276
20
1.1349
11
0.41904
21
1.13051
0
LINE
8
BLACK
6
CONTINUOUS
10
0.41904
20
1.13051
11
0.415556
21
1.12702
0
LINE
8
BLACK
6
CONTINUOUS
10
0.415556
20
1.12702
11
0.411166
21
1.12479
0
LINE
8
BLACK
6
CONTINUOUS
10
0.411166
20
1.12479
11
0.406299
21
1.12402
0
LINE
8
BLACK
6
CONTINUOUS
10
0.406299
20
1.12402
11
0.401433
21
1.12479
0
LINE
8
BLACK
6
CONTINUOUS
10
0.401433
20
1.12479
11
0.397043
21
1.12702
0
LINE
8
BLACK
6
CONTINUOUS
10
0.397043
20
1.12702
11
0.393559
21
1.13051
0
LINE
8
BLACK
6
CONTINUOUS
10
0.393559
20
1.13051
11
0.391322
21
1.1349
0
LINE
8
BLACK
6
CONTINUOUS
10
0.391322
20
1.1349
11
0.390551
21
1.13976
0
LINE
8
BLACK
6
CONTINUOUS
10
0.390551
20
1.13976
11
0.391322
21
1.14463
0
LINE
8
BLACK
6
CONTINUOUS
10
0.391322
20
1.14463
11
0.393559
21
1.14902
0
LINE
8
BLACK
6
CONTINUOUS
10
0.393559
20
1.14902
11
0.397043
21
1.1525
0
LINE
8
BLACK
6
CONTINUOUS
10
0.397043
20
1.1525
11
0.401433
21
1.15474
0
LINE
8
BLACK
6
CONTINUOUS
10
0.401433
20
1.15474
11
0.406299
21
1.15551
0
LINE
8
BLACK
6
CONTINUOUS
10
0.406299
20
1.15551
11
0.411166
21
1.15474
0
LINE
8
BLACK
6
CONTINUOUS
10
0.104866
20
1.18998
11
0.109256
21
1.18774
0
LINE
8
BLACK
6
CONTINUOUS
10
0.109256
20
1.18774
11
0.11274
21
1.18426
0
LINE
8
BLACK
6
CONTINUOUS
10
0.11274
20
1.18426
11
0.114977
21
1.17987
0
LINE
8
BLACK
6
CONTINUOUS
10
0.114977
20
1.17987
11
0.115748
21
1.175
0
LINE
8
BLACK
6
CONTINUOUS
10
0.115748
20
1.175
11
0.114977
21
1.17013
0
LINE
8
BLACK
6
CONTINUOUS
10
0.114977
20
1.17013
11
0.11274
21
1.16574
0
LINE
8
BLACK
6
CONTINUOUS
10
0.11274
20
1.16574
11
0.109256
21
1.16226
0
LINE
8
BLACK
6
CONTINUOUS
10
0.109256
20
1.16226
11
0.104866
21
1.16002
0
LINE
8
BLACK
6
CONTINUOUS
10
0.104866
20
1.16002
11
0.1
21
1.15925
0
LINE
8
BLACK
6
CONTINUOUS
10
0.1
20
1.15925
11
0.0951336
21
1.16002
0
LINE
8
BLACK
6
CONTINUOUS
10
0.0951336
20
1.16002
11
0.0907435
21
1.16226
0
LINE
8
BLACK
6
CONTINUOUS
10
0.0907435
20
1.16226
11
0.0872596
21
1.16574
0
LINE
8
BLACK
6
CONTINUOUS
10
0.0872596
20
1.16574
11
0.0850227
21
1.17013
0
LINE
8
BLACK
6
CONTINUOUS
10
0.0850227
20
1.17013
11
0.084252
21
1.175
0
LINE
8
BLACK
6
CONTINUOUS
10
0.084252
20
1.175
11
0.0850227
21
1.17987
0
LINE
8
BLACK
6
CONTINUOUS
10
0.0850227
20
1.17987
11
0.0872596
21
1.18426
0
LINE
8
BLACK
6
CONTINUOUS
10
0.0872596
20
1.18426
11
0.0907435
21
1.18774
0
LINE
8
BLACK
6
CONTINUOUS
10
0.0907435
20
1.18774
11
0.0951336
21
1.18998
0
LINE
8
BLACK
6
CONTINUOUS
10
0.0951336
20
1.18998
11
0.1
21
1.19075
0
LINE
8
BLACK
6
CONTINUOUS
10
0.1
20
1.19075
11
0.104866
21
1.18998
0
LINE
8
BLACK
6
CONTINUOUS
10
0.724866
20
1.19298
11
0.729256
21
1.19074
0
LINE
8
BLACK
6
CONTINUOUS
10
0.729256
20
1.19074
11
0.73274
21
1.18726
0
LINE
8
BLACK
6
CONTINUOUS
10
0.73274
20
1.18726
11
0.734977
21
1.18287
0
LINE
8
BLACK
6
CONTINUOUS
10
0.734977
20
1.18287
11
0.735748
21
1.178
0
LINE
8
BLACK
6
CONTINUOUS
10
0.735748
20
1.178
11
0.734977
21
1.17313
0
LINE
8
BLACK
6
CONTINUOUS
10
0.734977
20
1.17313
11
0.73274
21
1.16874
0
LINE
8
BLACK
6
CONTINUOUS
10
0.73274
20
1.16874
11
0.729256
21
1.16526
0
LINE
8
BLACK
6
CONTINUOUS
10
0.729256
20
1.16526
11
0.724866
21
1.16302
0
LINE
8
BLACK
6
CONTINUOUS
10
0.724866
20
1.16302
11
0.72
21
1.16225
0
LINE
8
BLACK
6
CONTINUOUS
10
0.72
20
1.16225
11
0.715134
21
1.16302
0
LINE
8
BLACK
6
CONTINUOUS
10
0.715134
20
1.16302
11
0.710744
21
1.16526
0
LINE
8
BLACK
6
CONTINUOUS
10
0.710744
20
1.16526
11
0.70726
21
1.16874
0
LINE
8
BLACK
6
CONTINUOUS
10
0.70726
20
1.16874
11
0.705023
21
1.17313
0
LINE
8
BLACK
6
CONTINUOUS
10
0.705023
20
1.17313
11
0.704252
21
1.178
0
LINE
8
BLACK
6
CONTINUOUS
10
0.704252
20
1.178
11
0.705023
21
1.18287
0
LINE
8
BLACK
6
CONTINUOUS
10
0.705023
20
1.18287
11
0.70726
21
1.18726
0
LINE
8
BLACK
6
CONTINUOUS
10
0.70726
20
1.18726
11
0.710744
21
1.19074
0
LINE
8
BLACK
6
CONTINUOUS
10
0.710744
20
1.19074
11
0.715134
21
1.19298
0
LINE
8
BLACK
6
CONTINUOUS
10
0.715134
20
1.19298
11
0.72
21
1.19375
0
LINE
8
BLACK
6
CONTINUOUS
10
0.72
20
1.19375
11
0.724866
21
1.19298
0
LINE
8
BLACK
6
CONTINUOUS
10
0.816866
20
1.19498
11
0.821256
21
1.19274
0
LINE
8
BLACK
6
CONTINUOUS
10
0.821256
20
1.19274
11
0.82474
21
1.18926
0
LINE
8
BLACK
6
CONTINUOUS
10
0.82474
20
1.18926
11
0.826977
21
1.18487
0
LINE
8
BLACK
6
CONTINUOUS
10
0.826977
20
1.18487
11
0.827748
21
1.18
0
LINE
8
BLACK
6
CONTINUOUS
10
0.827748
20
1.18
11
0.826977
21
1.17513
0
LINE
8
BLACK
6
CONTINUOUS
10
0.826977
20
1.17513
11
0.82474
21
1.17074
0
LINE
8
BLACK
6
CONTINUOUS
10
0.82474
20
1.17074
11
0.821256
21
1.16726
0
LINE
8
BLACK
6
CONTINUOUS
10
0.821256
20
1.16726
11
0.816866
21
1.16502
0
LINE
8
BLACK
6
CONTINUOUS
10
0.816866
20
1.16502
11
0.812
21
1.16425
0
LINE
8
BLACK
6
CONTINUOUS
10
0.812
20
1.16425
11
0.807134
21
1.16502
0
LINE
8
BLACK
6
CONTINUOUS
10
0.807134
20
1.16502
11
0.802744
21
1.16726
0
LINE
8
BLACK
6
CONTINUOUS
10
0.802744
20
1.16726
11
0.79926
21
1.17074
0
LINE
8
BLACK
6
CONTINUOUS
10
0.79926
20
1.17074
11
0.797023
21
1.17513
0
LINE
8
BLACK
6
CONTINUOUS
10
0.797023
20
1.17513
11
0.796252
21
1.18
0
LINE
8
BLACK
6
CONTINUOUS
10
0.796252
20
1.18
11
0.797023
21
1.18487
0
LINE
8
BLACK
6
CONTINUOUS
10
0.797023
20
1.18487
11
0.79926
21
1.18926
0
LINE
8
BLACK
6
CONTINUOUS
10
0.79926
20
1.18926
11
0.802744
21
1.19274
0
LINE
8
BLACK
6
CONTINUOUS
10
0.802744
20
1.19274
11
0.807134
21
1.19498
0
LINE
8
BLACK
6
CONTINUOUS
10
0.807134
20
1.19498
11
0.812
21
1.19575
0
LINE
8
BLACK
6
CONTINUOUS
10
0.812
20
1.19575
11
0.816866
21
1.19498
0
LINE
8
BLACK
6
CONTINUOUS
10
0.770866
20
1.19498
11
0.775256
21
1.19274
0
LINE
8
BLACK
6
CONTINUOUS
10
0.775256
20
1.19274
11
0.77874
21
1.18926
0
LINE
8
BLACK
6
CONTINUOUS
10
0.77874
20
1.18926
11
0.780977
21
1.18487
0
LINE
8
BLACK
6
CONTINUOUS
10
0.780977
20
1.18487
11
0.781748
21
1.18
0
LINE
8
BLACK
6
CONTINUOUS
10
0.781748
20
1.18
11
0.780977
21
1.17513
0
LINE
8
BLACK
6
CONTINUOUS
10
0.780977
20
1.17513
11
0.77874
21
1.17074
0
LINE
8
BLACK
6
CONTINUOUS
10
0.77874
20
1.17074
11
0.775256
21
1.16726
0
LINE
8
BLACK
6
CONTINUOUS
10
0.775256
20
1.16726
11
0.770866
21
1.16502
0
LINE
8
BLACK
6
CONTINUOUS
10
0.770866
20
1.16502
11
0.766
21
1.16425
0
LINE
8
BLACK
6
CONTINUOUS
10
0.766
20
1.16425
11
0.761134
21
1.16502
0
LINE
8
BLACK
6
CONTINUOUS
10
0.761134
20
1.16502
11
0.756744
21
1.16726
0
LINE
8
BLACK
6
CONTINUOUS
10
0.756744
20
1.16726
11
0.75326
21
1.17074
0
LINE
8
BLACK
6
CONTINUOUS
10
0.75326
20
1.17074
11
0.751023
21
1.17513
0
LINE
8
BLACK
6
CONTINUOUS
10
0.751023
20
1.17513
11
0.750252
21
1.18
0
LINE
8
BLACK
6
CONTINUOUS
10
0.750252
20
1.18
11
0.751023
21
1.18487
0
LINE
8
BLACK
6
CONTINUOUS
10
0.751023
20
1.18487
11
0.75326
21
1.18926
0
LINE
8
BLACK
6
CONTINUOUS
10
0.75326
20
1.18926
11
0.756744
21
1.19274
0
LINE
8
BLACK
6
CONTINUOUS
10
0.756744
20
1.19274
11
0.761134
21
1.19498
0
LINE
8
BLACK
6
CONTINUOUS
10
0.761134
20
1.19498
11
0.766
21
1.19575
0
LINE
8
BLACK
6
CONTINUOUS
10
0.766
20
1.19575
11
0.770866
21
1.19498
0
LINE
8
BLACK
6
CONTINUOUS
10
0.411144
20
1.20398
11
0.415534
21
1.20174
0
LINE
8
BLACK
6
CONTINUOUS
10
0.415534
20
1.20174
11
0.419018
21
1.19826
0
LINE
8
BLACK
6
CONTINUOUS
10
0.419018
20
1.19826
11
0.421255
21
1.19387
0
LINE
8
BLACK
6
CONTINUOUS
10
0.421255
20
1.19387
11
0.422026
21
1.189
0
LINE
8
BLACK
6
CONTINUOUS
10
0.422026
20
1.189
11
0.421255
21
1.18413
0
LINE
8
BLACK
6
CONTINUOUS
10
0.421255
20
1.18413
11
0.419018
21
1.17974
0
LINE
8
BLACK
6
CONTINUOUS
10
0.419018
20
1.17974
11
0.415534
21
1.17626
0
LINE
8
BLACK
6
CONTINUOUS
10
0.415534
20
1.17626
11
0.411144
21
1.17402
0
LINE
8
BLACK
6
CONTINUOUS
10
0.411144
20
1.17402
11
0.406278
21
1.17325
0
LINE
8
BLACK
6
CONTINUOUS
10
0.406278
20
1.17325
11
0.401411
21
1.17402
0
LINE
8
BLACK
6
CONTINUOUS
10
0.401411
20
1.17402
11
0.397021
21
1.17626
0
LINE
8
BLACK
6
CONTINUOUS
10
0.397021
20
1.17626
11
0.393537
21
1.17974
0
LINE
8
BLACK
6
CONTINUOUS
10
0.393537
20
1.17974
11
0.391301
21
1.18413
0
LINE
8
BLACK
6
CONTINUOUS
10
0.391301
20
1.18413
11
0.39053
21
1.189
0
LINE
8
BLACK
6
CONTINUOUS
10
0.39053
20
1.189
11
0.391301
21
1.19387
0
LINE
8
BLACK
6
CONTINUOUS
10
0.391301
20
1.19387
11
0.393537
21
1.19826
0
LINE
8
BLACK
6
CONTINUOUS
10
0.393537
20
1.19826
11
0.397021
21
1.20174
0
LINE
8
BLACK
6
CONTINUOUS
10
0.397021
20
1.20174
11
0.401411
21
1.20398
0
LINE
8
BLACK
6
CONTINUOUS
10
0.401411
20
1.20398
11
0.406278
21
1.20475
0
LINE
8
BLACK
6
CONTINUOUS
10
0.406278
20
1.20475
11
0.411144
21
1.20398
0
LINE
8
BLACK
6
CONTINUOUS
10
1.71674
20
1.25875
11
1.72294
21
1.25654
0
LINE
8
BLACK
6
CONTINUOUS
10
1.72294
20
1.25654
11
1.7285
21
1.25301
0
LINE
8
BLACK
6
CONTINUOUS
10
1.7285
20
1.25301
11
1.73314
21
1.24834
0
LINE
8
BLACK
6
CONTINUOUS
10
1.73314
20
1.24834
11
1.73663
21
1.24276
0
LINE
8
BLACK
6
CONTINUOUS
10
1.73663
20
1.24276
11
1.73879
21
1.23654
0
LINE
8
BLACK
6
CONTINUOUS
10
1.73879
20
1.23654
11
1.73953
21
1.23
0
LINE
8
BLACK
6
CONTINUOUS
10
1.73953
20
1.23
11
1.73952
21
1.22918
0
LINE
8
BLACK
6
CONTINUOUS
10
1.73952
20
1.22918
11
1.7386
21
1.22266
0
LINE
8
BLACK
6
CONTINUOUS
10
1.7386
20
1.22266
11
1.73626
21
1.2165
0
LINE
8
BLACK
6
CONTINUOUS
10
1.73626
20
1.2165
11
1.73262
21
1.21102
0
LINE
8
BLACK
6
CONTINUOUS
10
1.73262
20
1.21102
11
1.72785
21
1.20648
0
LINE
8
BLACK
6
CONTINUOUS
10
1.72785
20
1.20648
11
1.7222
21
1.20311
0
LINE
8
BLACK
6
CONTINUOUS
10
1.7222
20
1.20311
11
1.71594
21
1.20108
0
LINE
8
BLACK
6
CONTINUOUS
10
1.71594
20
1.20108
11
1.70938
21
1.20048
0
LINE
8
BLACK
6
CONTINUOUS
10
1.70938
20
1.20048
11
1.70286
21
1.20135
0
LINE
8
BLACK
6
CONTINUOUS
10
1.70286
20
1.20135
11
1.69669
21
1.20364
0
LINE
8
BLACK
6
CONTINUOUS
10
1.69669
20
1.20364
11
1.69118
21
1.20725
0
LINE
8
BLACK
6
CONTINUOUS
10
1.69118
20
1.20725
11
1.68661
21
1.21198
0
LINE
8
BLACK
6
CONTINUOUS
10
1.68661
20
1.21198
11
1.6832
21
1.21761
0
LINE
8
BLACK
6
CONTINUOUS
10
1.6832
20
1.21761
11
1.68112
21
1.22386
0
LINE
8
BLACK
6
CONTINUOUS
10
1.68112
20
1.22386
11
1.68048
21
1.23041
0
LINE
8
BLACK
6
CONTINUOUS
10
1.68048
20
1.23041
11
1.6813
21
1.23694
0
LINE
8
BLACK
6
CONTINUOUS
10
1.6813
20
1.23694
11
1.68355
21
1.24313
0
LINE
8
BLACK
6
CONTINUOUS
10
1.68355
20
1.24313
11
1.68712
21
1.24866
0
LINE
8
BLACK
6
CONTINUOUS
10
1.68712
20
1.24866
11
1.69182
21
1.25327
0
LINE
8
BLACK
6
CONTINUOUS
10
1.69182
20
1.25327
11
1.69743
21
1.25672
0
LINE
8
BLACK
6
CONTINUOUS
10
1.69743
20
1.25672
11
1.70366
21
1.25884
0
LINE
8
BLACK
6
CONTINUOUS
10
1.70366
20
1.25884
11
1.71021
21
1.25953
0
LINE
8
BLACK
6
CONTINUOUS
10
1.71021
20
1.25953
11
1.71674
21
1.25875
0
LINE
8
BLACK
6
CONTINUOUS
10
0.134866
20
1.26098
11
0.139256
21
1.25874
0
LINE
8
BLACK
6
CONTINUOUS
10
0.139256
20
1.25874
11
0.14274
21
1.25526
0
LINE
8
BLACK
6
CONTINUOUS
10
0.14274
20
1.25526
11
0.144977
21
1.25087
0
LINE
8
BLACK
6
CONTINUOUS
10
0.144977
20
1.25087
11
0.145748
21
1.246
0
LINE
8
BLACK
6
CONTINUOUS
10
0.145748
20
1.246
11
0.144977
21
1.24113
0
LINE
8
BLACK
6
CONTINUOUS
10
0.144977
20
1.24113
11
0.14274
21
1.23674
0
LINE
8
BLACK
6
CONTINUOUS
10
0.14274
20
1.23674
11
0.139256
21
1.23326
0
LINE
8
BLACK
6
CONTINUOUS
10
0.139256
20
1.23326
11
0.134866
21
1.23102
0
LINE
8
BLACK
6
CONTINUOUS
10
0.134866
20
1.23102
11
0.13
21
1.23025
0
LINE
8
BLACK
6
CONTINUOUS
10
0.13
20
1.23025
11
0.125134
21
1.23102
0
LINE
8
BLACK
6
CONTINUOUS
10
0.125134
20
1.23102
11
0.120744
21
1.23326
0
LINE
8
BLACK
6
CONTINUOUS
10
0.120744
20
1.23326
11
0.11726
21
1.23674
0
LINE
8
BLACK
6
CONTINUOUS
10
0.11726
20
1.23674
11
0.115023
21
1.24113
0
LINE
8
BLACK
6
CONTINUOUS
10
0.115023
20
1.24113
11
0.114252
21
1.246
0
LINE
8
BLACK
6
CONTINUOUS
10
0.114252
20
1.246
11
0.115023
21
1.25087
0
LINE
8
BLACK
6
CONTINUOUS
10
0.115023
20
1.25087
11
0.11726
21
1.25526
0
LINE
8
BLACK
6
CONTINUOUS
10
0.11726
20
1.25526
11
0.120744
21
1.25874
0
LINE
8
BLACK
6
CONTINUOUS
10
0.120744
20
1.25874
11
0.125134
21
1.26098
0
LINE
8
BLACK
6
CONTINUOUS
10
0.125134
20
1.26098
11
0.13
21
1.26175
0
LINE
8
BLACK
6
CONTINUOUS
10
0.13
20
1.26175
11
0.134866
21
1.26098
0
LINE
8
BLACK
6
CONTINUOUS
10
0.279866
20
1.26498
11
0.284256
21
1.26274
0
LINE
8
BLACK
6
CONTINUOUS
10
0.284256
20
1.26274
11
0.28774
21
1.25926
0
LINE
8
BLACK
6
CONTINUOUS
10
0.28774
20
1.25926
11
0.289977
21
1.25487
0
LINE
8
BLACK
6
CONTINUOUS
10
0.289977
20
1.25487
11
0.290748
21
1.25
0
LINE
8
BLACK
6
CONTINUOUS
10
0.290748
20
1.25
11
0.289977
21
1.24513
0
LINE
8
BLACK
6
CONTINUOUS
10
0.289977
20
1.24513
11
0.28774
21
1.24074
0
LINE
8
BLACK
6
CONTINUOUS
10
0.28774
20
1.24074
11
0.284256
21
1.23726
0
LINE
8
BLACK
6
CONTINUOUS
10
0.284256
20
1.23726
11
0.279866
21
1.23502
0
LINE
8
BLACK
6
CONTINUOUS
10
0.279866
20
1.23502
11
0.275
21
1.23425
0
LINE
8
BLACK
6
CONTINUOUS
10
0.275
20
1.23425
11
0.270134
21
1.23502
0
LINE
8
BLACK
6
CONTINUOUS
10
0.270134
20
1.23502
11
0.265744
21
1.23726
0
LINE
8
BLACK
6
CONTINUOUS
10
0.265744
20
1.23726
11
0.26226
21
1.24074
0
LINE
8
BLACK
6
CONTINUOUS
10
0.26226
20
1.24074
11
0.260023
21
1.24513
0
LINE
8
BLACK
6
CONTINUOUS
10
0.260023
20
1.24513
11
0.259252
21
1.25
0
LINE
8
BLACK
6
CONTINUOUS
10
0.259252
20
1.25
11
0.260023
21
1.25487
0
LINE
8
BLACK
6
CONTINUOUS
10
0.260023
20
1.25487
11
0.26226
21
1.25926
0
LINE
8
BLACK
6
CONTINUOUS
10
0.26226
20
1.25926
11
0.265744
21
1.26274
0
LINE
8
BLACK
6
CONTINUOUS
10
0.265744
20
1.26274
11
0.270134
21
1.26498
0
LINE
8
BLACK
6
CONTINUOUS
10
0.270134
20
1.26498
11
0.275
21
1.26575
0
LINE
8
BLACK
6
CONTINUOUS
10
0.275
20
1.26575
11
0.279866
21
1.26498
0
LINE
8
BLACK
6
CONTINUOUS
10
0.304866
20
1.31498
11
0.309256
21
1.31274
0
LINE
8
BLACK
6
CONTINUOUS
10
0.309256
20
1.31274
11
0.31274
21
1.30926
0
LINE
8
BLACK
6
CONTINUOUS
10
0.31274
20
1.30926
11
0.314977
21
1.30487
0
LINE
8
BLACK
6
CONTINUOUS
10
0.314977
20
1.30487
11
0.315748
21
1.3
0
LINE
8
BLACK
6
CONTINUOUS
10
0.315748
20
1.3
11
0.314977
21
1.29513
0
LINE
8
BLACK
6
CONTINUOUS
10
0.314977
20
1.29513
11
0.31274
21
1.29074
0
LINE
8
BLACK
6
CONTINUOUS
10
0.31274
20
1.29074
11
0.309256
21
1.28726
0
LINE
8
BLACK
6
CONTINUOUS
10
0.309256
20
1.28726
11
0.304866
21
1.28502
0
LINE
8
BLACK
6
CONTINUOUS
10
0.304866
20
1.28502
11
0.3
21
1.28425
0
LINE
8
BLACK
6
CONTINUOUS
10
0.3
20
1.28425
11
0.295134
21
1.28502
0
LINE
8
BLACK
6
CONTINUOUS
10
0.295134
20
1.28502
11
0.290744
21
1.28726
0
LINE
8
BLACK
6
CONTINUOUS
10
0.290744
20
1.28726
11
0.28726
21
1.29074
0
LINE
8
BLACK
6
CONTINUOUS
10
0.28726
20
1.29074
11
0.285023
21
1.29513
0
LINE
8
BLACK
6
CONTINUOUS
10
0.285023
20
1.29513
11
0.284252
21
1.3
0
LINE
8
BLACK
6
CONTINUOUS
10
0.284252
20
1.3
11
0.285023
21
1.30487
0
LINE
8
BLACK
6
CONTINUOUS
10
0.285023
20
1.30487
11
0.28726
21
1.30926
0
LINE
8
BLACK
6
CONTINUOUS
10
0.28726
20
1.30926
11
0.290744
21
1.31274
0
LINE
8
BLACK
6
CONTINUOUS
10
0.290744
20
1.31274
11
0.295134
21
1.31498
0
LINE
8
BLACK
6
CONTINUOUS
10
0.295134
20
1.31498
11
0.3
21
1.31575
0
LINE
8
BLACK
6
CONTINUOUS
10
0.3
20
1.31575
11
0.304866
21
1.31498
0
LINE
8
BLACK
6
CONTINUOUS
10
0.229866
20
1.31498
11
0.234256
21
1.31274
0
LINE
8
BLACK
6
CONTINUOUS
10
0.234256
20
1.31274
11
0.23774
21
1.30926
0
LINE
8
BLACK
6
CONTINUOUS
10
0.23774
20
1.30926
11
0.239977
21
1.30487
0
LINE
8
BLACK
6
CONTINUOUS
10
0.239977
20
1.30487
11
0.240748
21
1.3
0
LINE
8
BLACK
6
CONTINUOUS
10
0.240748
20
1.3
11
0.239977
21
1.29513
0
LINE
8
BLACK
6
CONTINUOUS
10
0.239977
20
1.29513
11
0.23774
21
1.29074
0
LINE
8
BLACK
6
CONTINUOUS
10
0.23774
20
1.29074
11
0.234256
21
1.28726
0
LINE
8
BLACK
6
CONTINUOUS
10
0.234256
20
1.28726
11
0.229866
21
1.28502
0
LINE
8
BLACK
6
CONTINUOUS
10
0.229866
20
1.28502
11
0.225
21
1.28425
0
LINE
8
BLACK
6
CONTINUOUS
10
0.225
20
1.28425
11
0.220134
21
1.28502
0
LINE
8
BLACK
6
CONTINUOUS
10
0.220134
20
1.28502
11
0.215744
21
1.28726
0
LINE
8
BLACK
6
CONTINUOUS
10
0.215744
20
1.28726
11
0.21226
21
1.29074
0
LINE
8
BLACK
6
CONTINUOUS
10
0.21226
20
1.29074
11
0.210023
21
1.29513
0
LINE
8
BLACK
6
CONTINUOUS
10
0.210023
20
1.29513
11
0.209252
21
1.3
0
LINE
8
BLACK
6
CONTINUOUS
10
0.209252
20
1.3
11
0.210023
21
1.30487
0
LINE
8
BLACK
6
CONTINUOUS
10
0.210023
20
1.30487
11
0.21226
21
1.30926
0
LINE
8
BLACK
6
CONTINUOUS
10
0.21226
20
1.30926
11
0.215744
21
1.31274
0
LINE
8
BLACK
6
CONTINUOUS
10
0.215744
20
1.31274
11
0.220134
21
1.31498
0
LINE
8
BLACK
6
CONTINUOUS
10
0.220134
20
1.31498
11
0.225
21
1.31575
0
LINE
8
BLACK
6
CONTINUOUS
10
0.225
20
1.31575
11
0.229866
21
1.31498
0
LINE
8
BLACK
6
CONTINUOUS
10
0.104866
20
1.31498
11
0.109256
21
1.31274
0
LINE
8
BLACK
6
CONTINUOUS
10
0.109256
20
1.31274
11
0.11274
21
1.30926
0
LINE
8
BLACK
6
CONTINUOUS
10
0.11274
20
1.30926
11
0.114977
21
1.30487
0
LINE
8
BLACK
6
CONTINUOUS
10
0.114977
20
1.30487
11
0.115748
21
1.3
0
LINE
8
BLACK
6
CONTINUOUS
10
0.115748
20
1.3
11
0.114977
21
1.29513
0
LINE
8
BLACK
6
CONTINUOUS
10
0.114977
20
1.29513
11
0.11274
21
1.29074
0
LINE
8
BLACK
6
CONTINUOUS
10
0.11274
20
1.29074
11
0.109256
21
1.28726
0
LINE
8
BLACK
6
CONTINUOUS
10
0.109256
20
1.28726
11
0.104866
21
1.28502
0
LINE
8
BLACK
6
CONTINUOUS
10
0.104866
20
1.28502
11
0.1
21
1.28425
0
LINE
8
BLACK
6
CONTINUOUS
10
0.1
20
1.28425
11
0.0951336
21
1.28502
0
LINE
8
BLACK
6
CONTINUOUS
10
0.0951336
20
1.28502
11
0.0907435
21
1.28726
0
LINE
8
BLACK
6
CONTINUOUS
10
0.0907435
20
1.28726
11
0.0872596
21
1.29074
0
LINE
8
BLACK
6
CONTINUOUS
10
0.0872596
20
1.29074
11
0.0850227
21
1.29513
0
LINE
8
BLACK
6
CONTINUOUS
10
0.0850227
20
1.29513
11
0.084252
21
1.3
0
LINE
8
BLACK
6
CONTINUOUS
10
0.084252
20
1.3
11
0.0850227
21
1.30487
0
LINE
8
BLACK
6
CONTINUOUS
10
0.0850227
20
1.30487
11
0.0872596
21
1.30926
0
LINE
8
BLACK
6
CONTINUOUS
10
0.0872596
20
1.30926
11
0.0907435
21
1.31274
0
LINE
8
BLACK
6
CONTINUOUS
10
0.0907435
20
1.31274
11
0.0951336
21
1.31498
0
LINE
8
BLACK
6
CONTINUOUS
10
0.0951336
20
1.31498
11
0.1
21
1.31575
0
LINE
8
BLACK
6
CONTINUOUS
10
0.1
20
1.31575
11
0.104866
21
1.31498
0
LINE
8
BLACK
6
CONTINUOUS
10
0.611575
20
1.37527
11
0.617876
21
1.37303
0
LINE
8
BLACK
6
CONTINUOUS
10
0.617876
20
1.37303
11
0.623523
21
1.36944
0
LINE
8
BLACK
6
CONTINUOUS
10
0.623523
20
1.36944
11
0.628235
21
1.3647
0
LINE
8
BLACK
6
CONTINUOUS
10
0.628235
20
1.3647
11
0.631779
21
1.35903
0
LINE
8
BLACK
6
CONTINUOUS
10
0.631779
20
1.35903
11
0.633979
21
1.35271
0
LINE
8
BLACK
6
CONTINUOUS
10
0.633979
20
1.35271
11
0.634724
21
1.34606
0
LINE
8
BLACK
6
CONTINUOUS
10
0.634724
20
1.34606
11
0.634713
21
1.34523
0
LINE
8
BLACK
6
CONTINUOUS
10
0.634713
20
1.34523
11
0.633782
21
1.3386
0
LINE
8
BLACK
6
CONTINUOUS
10
0.633782
20
1.3386
11
0.631407
21
1.33235
0
LINE
8
BLACK
6
CONTINUOUS
10
0.631407
20
1.33235
11
0.627706
21
1.32678
0
LINE
8
BLACK
6
CONTINUOUS
10
0.627706
20
1.32678
11
0.622862
21
1.32217
0
LINE
8
BLACK
6
CONTINUOUS
10
0.622862
20
1.32217
11
0.617118
21
1.31874
0
LINE
8
BLACK
6
CONTINUOUS
10
0.617118
20
1.31874
11
0.610757
21
1.31668
0
LINE
8
BLACK
6
CONTINUOUS
10
0.610757
20
1.31668
11
0.604096
21
1.31607
0
LINE
8
BLACK
6
CONTINUOUS
10
0.604096
20
1.31607
11
0.597467
21
1.31695
0
LINE
8
BLACK
6
CONTINUOUS
10
0.597467
20
1.31695
11
0.591198
21
1.31929
0
LINE
8
BLACK
6
CONTINUOUS
10
0.591198
20
1.31929
11
0.585602
21
1.32295
0
LINE
8
BLACK
6
CONTINUOUS
10
0.585602
20
1.32295
11
0.580956
21
1.32776
0
LINE
8
BLACK
6
CONTINUOUS
10
0.580956
20
1.32776
11
0.577491
21
1.33348
0
LINE
8
BLACK
6
CONTINUOUS
10
0.577491
20
1.33348
11
0.57538
21
1.33983
0
LINE
8
BLACK
6
CONTINUOUS
10
0.57538
20
1.33983
11
0.574727
21
1.34648
0
LINE
8
BLACK
6
CONTINUOUS
10
0.574727
20
1.34648
11
0.575566
21
1.35312
0
LINE
8
BLACK
6
CONTINUOUS
10
0.575566
20
1.35312
11
0.577853
21
1.3594
0
LINE
8
BLACK
6
CONTINUOUS
10
0.577853
20
1.3594
11
0.581476
21
1.36502
0
LINE
8
BLACK
6
CONTINUOUS
10
0.581476
20
1.36502
11
0.586255
21
1.3697
0
LINE
8
BLACK
6
CONTINUOUS
10
0.586255
20
1.3697
11
0.591951
21
1.37321
0
LINE
8
BLACK
6
CONTINUOUS
10
0.591951
20
1.37321
11
0.598282
21
1.37536
0
LINE
8
BLACK
6
CONTINUOUS
10
0.598282
20
1.37536
11
0.604934
21
1.37606
0
LINE
8
BLACK
6
CONTINUOUS
10
0.604934
20
1.37606
11
0.611575
21
1.37527
0
LINE
8
BLACK
6
CONTINUOUS
10
0.414725
20
1.37527
11
0.421025
21
1.37303
0
LINE
8
BLACK
6
CONTINUOUS
10
0.421025
20
1.37303
11
0.426672
21
1.36944
0
LINE
8
BLACK
6
CONTINUOUS
10
0.426672
20
1.36944
11
0.431385
21
1.3647
0
LINE
8
BLACK
6
CONTINUOUS
10
0.431385
20
1.3647
11
0.434929
21
1.35903
0
LINE
8
BLACK
6
CONTINUOUS
10
0.434929
20
1.35903
11
0.437129
21
1.35271
0
LINE
8
BLACK
6
CONTINUOUS
10
0.437129
20
1.35271
11
0.437874
21
1.34606
0
LINE
8
BLACK
6
CONTINUOUS
10
0.437874
20
1.34606
11
0.437862
21
1.34523
0
LINE
8
BLACK
6
CONTINUOUS
10
0.437862
20
1.34523
11
0.436931
21
1.3386
0
LINE
8
BLACK
6
CONTINUOUS
10
0.436931
20
1.3386
11
0.434556
21
1.33235
0
LINE
8
BLACK
6
CONTINUOUS
10
0.434556
20
1.33235
11
0.430855
21
1.32678
0
LINE
8
BLACK
6
CONTINUOUS
10
0.430855
20
1.32678
11
0.426012
21
1.32217
0
LINE
8
BLACK
6
CONTINUOUS
10
0.426012
20
1.32217
11
0.420267
21
1.31874
0
LINE
8
BLACK
6
CONTINUOUS
10
0.420267
20
1.31874
11
0.413906
21
1.31668
0
LINE
8
BLACK
6
CONTINUOUS
10
0.413906
20
1.31668
11
0.407246
21
1.31607
0
LINE
8
BLACK
6
CONTINUOUS
10
0.407246
20
1.31607
11
0.400616
21
1.31695
0
LINE
8
BLACK
6
CONTINUOUS
10
0.400616
20
1.31695
11
0.394348
21
1.31929
0
LINE
8
BLACK
6
CONTINUOUS
10
0.394348
20
1.31929
11
0.388751
21
1.32295
0
LINE
8
BLACK
6
CONTINUOUS
10
0.388751
20
1.32295
11
0.384105
21
1.32776
0
LINE
8
BLACK
6
CONTINUOUS
10
0.384105
20
1.32776
11
0.380641
21
1.33348
0
LINE
8
BLACK
6
CONTINUOUS
10
0.380641
20
1.33348
11
0.37853
21
1.33983
0
LINE
8
BLACK
6
CONTINUOUS
10
0.37853
20
1.33983
11
0.377877
21
1.34648
0
LINE
8
BLACK
6
CONTINUOUS
10
0.377877
20
1.34648
11
0.378715
21
1.35312
0
LINE
8
BLACK
6
CONTINUOUS
10
0.378715
20
1.35312
11
0.381003
21
1.3594
0
LINE
8
BLACK
6
CONTINUOUS
10
0.381003
20
1.3594
11
0.384626
21
1.36502
0
LINE
8
BLACK
6
CONTINUOUS
10
0.384626
20
1.36502
11
0.389404
21
1.3697
0
LINE
8
BLACK
6
CONTINUOUS
10
0.389404
20
1.3697
11
0.395101
21
1.37321
0
LINE
8
BLACK
6
CONTINUOUS
10
0.395101
20
1.37321
11
0.401432
21
1.37536
0
LINE
8
BLACK
6
CONTINUOUS
10
0.401432
20
1.37536
11
0.408083
21
1.37606
0
LINE
8
BLACK
6
CONTINUOUS
10
0.408083
20
1.37606
11
0.414725
21
1.37527
0
LINE
8
BLACK
6
CONTINUOUS
10
0.222866
20
1.36498
11
0.227256
21
1.36274
0
LINE
8
BLACK
6
CONTINUOUS
10
0.227256
20
1.36274
11
0.23074
21
1.35926
0
LINE
8
BLACK
6
CONTINUOUS
10
0.23074
20
1.35926
11
0.232977
21
1.35487
0
LINE
8
BLACK
6
CONTINUOUS
10
0.232977
20
1.35487
11
0.233748
21
1.35
0
LINE
8
BLACK
6
CONTINUOUS
10
0.233748
20
1.35
11
0.232977
21
1.34513
0
LINE
8
BLACK
6
CONTINUOUS
10
0.232977
20
1.34513
11
0.23074
21
1.34074
0
LINE
8
BLACK
6
CONTINUOUS
10
0.23074
20
1.34074
11
0.227256
21
1.33726
0
LINE
8
BLACK
6
CONTINUOUS
10
0.227256
20
1.33726
11
0.222866
21
1.33502
0
LINE
8
BLACK
6
CONTINUOUS
10
0.222866
20
1.33502
11
0.218
21
1.33425
0
LINE
8
BLACK
6
CONTINUOUS
10
0.218
20
1.33425
11
0.213134
21
1.33502
0
LINE
8
BLACK
6
CONTINUOUS
10
0.213134
20
1.33502
11
0.208744
21
1.33726
0
LINE
8
BLACK
6
CONTINUOUS
10
0.208744
20
1.33726
11
0.20526
21
1.34074
0
LINE
8
BLACK
6
CONTINUOUS
10
0.20526
20
1.34074
11
0.203023
21
1.34513
0
LINE
8
BLACK
6
CONTINUOUS
10
0.203023
20
1.34513
11
0.202252
21
1.35
0
LINE
8
BLACK
6
CONTINUOUS
10
0.202252
20
1.35
11
0.203023
21
1.35487
0
LINE
8
BLACK
6
CONTINUOUS
10
0.203023
20
1.35487
11
0.20526
21
1.35926
0
LINE
8
BLACK
6
CONTINUOUS
10
0.20526
20
1.35926
11
0.208744
21
1.36274
0
LINE
8
BLACK
6
CONTINUOUS
10
0.208744
20
1.36274
11
0.213134
21
1.36498
0
LINE
8
BLACK
6
CONTINUOUS
10
0.213134
20
1.36498
11
0.218
21
1.36575
0
LINE
8
BLACK
6
CONTINUOUS
10
0.218
20
1.36575
11
0.222866
21
1.36498
0
LINE
8
BLACK
6
CONTINUOUS
10
0.164866
20
1.37498
11
0.169256
21
1.37274
0
LINE
8
BLACK
6
CONTINUOUS
10
0.169256
20
1.37274
11
0.17274
21
1.36926
0
LINE
8
BLACK
6
CONTINUOUS
10
0.17274
20
1.36926
11
0.174977
21
1.36487
0
LINE
8
BLACK
6
CONTINUOUS
10
0.174977
20
1.36487
11
0.175748
21
1.36
0
LINE
8
BLACK
6
CONTINUOUS
10
0.175748
20
1.36
11
0.174977
21
1.35513
0
LINE
8
BLACK
6
CONTINUOUS
10
0.174977
20
1.35513
11
0.17274
21
1.35074
0
LINE
8
BLACK
6
CONTINUOUS
10
0.17274
20
1.35074
11
0.169256
21
1.34726
0
LINE
8
BLACK
6
CONTINUOUS
10
0.169256
20
1.34726
11
0.164866
21
1.34502
0
LINE
8
BLACK
6
CONTINUOUS
10
0.164866
20
1.34502
11
0.16
21
1.34425
0
LINE
8
BLACK
6
CONTINUOUS
10
0.16
20
1.34425
11
0.155134
21
1.34502
0
LINE
8
BLACK
6
CONTINUOUS
10
0.155134
20
1.34502
11
0.150744
21
1.34726
0
LINE
8
BLACK
6
CONTINUOUS
10
0.150744
20
1.34726
11
0.14726
21
1.35074
0
LINE
8
BLACK
6
CONTINUOUS
10
0.14726
20
1.35074
11
0.145023
21
1.35513
0
LINE
8
BLACK
6
CONTINUOUS
10
0.145023
20
1.35513
11
0.144252
21
1.36
0
LINE
8
BLACK
6
CONTINUOUS
10
0.144252
20
1.36
11
0.145023
21
1.36487
0
LINE
8
BLACK
6
CONTINUOUS
10
0.145023
20
1.36487
11
0.14726
21
1.36926
0
LINE
8
BLACK
6
CONTINUOUS
10
0.14726
20
1.36926
11
0.150744
21
1.37274
0
LINE
8
BLACK
6
CONTINUOUS
10
0.150744
20
1.37274
11
0.155134
21
1.37498
0
LINE
8
BLACK
6
CONTINUOUS
10
0.155134
20
1.37498
11
0.16
21
1.37575
0
LINE
8
BLACK
6
CONTINUOUS
10
0.16
20
1.37575
11
0.164866
21
1.37498
0
LINE
8
BLACK
6
CONTINUOUS
10
0.204866
20
1.41498
11
0.209256
21
1.41274
0
LINE
8
BLACK
6
CONTINUOUS
10
0.209256
20
1.41274
11
0.21274
21
1.40926
0
LINE
8
BLACK
6
CONTINUOUS
10
0.21274
20
1.40926
11
0.214977
21
1.40487
0
LINE
8
BLACK
6
CONTINUOUS
10
0.214977
20
1.40487
11
0.215748
21
1.4
0
LINE
8
BLACK
6
CONTINUOUS
10
0.215748
20
1.4
11
0.214977
21
1.39513
0
LINE
8
BLACK
6
CONTINUOUS
10
0.214977
20
1.39513
11
0.21274
21
1.39074
0
LINE
8
BLACK
6
CONTINUOUS
10
0.21274
20
1.39074
11
0.209256
21
1.38726
0
LINE
8
BLACK
6
CONTINUOUS
10
0.209256
20
1.38726
11
0.204866
21
1.38502
0
LINE
8
BLACK
6
CONTINUOUS
10
0.204866
20
1.38502
11
0.2
21
1.38425
0
LINE
8
BLACK
6
CONTINUOUS
10
0.2
20
1.38425
11
0.195134
21
1.38502
0
LINE
8
BLACK
6
CONTINUOUS
10
0.195134
20
1.38502
11
0.190744
21
1.38726
0
LINE
8
BLACK
6
CONTINUOUS
10
0.190744
20
1.38726
11
0.18726
21
1.39074
0
LINE
8
BLACK
6
CONTINUOUS
10
0.18726
20
1.39074
11
0.185023
21
1.39513
0
LINE
8
BLACK
6
CONTINUOUS
10
0.185023
20
1.39513
11
0.184252
21
1.4
0
LINE
8
BLACK
6
CONTINUOUS
10
0.184252
20
1.4
11
0.185023
21
1.40487
0
LINE
8
BLACK
6
CONTINUOUS
10
0.185023
20
1.40487
11
0.18726
21
1.40926
0
LINE
8
BLACK
6
CONTINUOUS
10
0.18726
20
1.40926
11
0.190744
21
1.41274
0
LINE
8
BLACK
6
CONTINUOUS
10
0.190744
20
1.41274
11
0.195134
21
1.41498
0
LINE
8
BLACK
6
CONTINUOUS
10
0.195134
20
1.41498
11
0.2
21
1.41575
0
LINE
8
BLACK
6
CONTINUOUS
10
0.2
20
1.41575
11
0.204866
21
1.41498
0
LINE
8
BLACK
6
CONTINUOUS
10
1.71674
20
1.45087
11
1.72294
21
1.44867
0
LINE
8
BLACK
6
CONTINUOUS
10
1.72294
20
1.44867
11
1.7285
21
1.44514
0
LINE
8
BLACK
6
CONTINUOUS
10
1.7285
20
1.44514
11
1.73314
21
1.44047
0
LINE
8
BLACK
6
CONTINUOUS
10
1.73314
20
1.44047
11
1.73663
21
1.43488
0
LINE
8
BLACK
6
CONTINUOUS
10
1.73663
20
1.43488
11
1.73879
21
1.42867
0
LINE
8
BLACK
6
CONTINUOUS
10
1.73879
20
1.42867
11
1.73953
21
1.42213
0
LINE
8
BLACK
6
CONTINUOUS
10
1.73953
20
1.42213
11
1.73952
21
1.4213
0
LINE
8
BLACK
6
CONTINUOUS
10
1.73952
20
1.4213
11
1.7386
21
1.41478
0
LINE
8
BLACK
6
CONTINUOUS
10
1.7386
20
1.41478
11
1.73626
21
1.40863
0
LINE
8
BLACK
6
CONTINUOUS
10
1.73626
20
1.40863
11
1.73262
21
1.40315
0
LINE
8
BLACK
6
CONTINUOUS
10
1.73262
20
1.40315
11
1.72785
21
1.39861
0
LINE
8
BLACK
6
CONTINUOUS
10
1.72785
20
1.39861
11
1.7222
21
1.39524
0
LINE
8
BLACK
6
CONTINUOUS
10
1.7222
20
1.39524
11
1.71594
21
1.3932
0
LINE
8
BLACK
6
CONTINUOUS
10
1.71594
20
1.3932
11
1.70938
21
1.3926
0
LINE
8
BLACK
6
CONTINUOUS
10
1.70938
20
1.3926
11
1.70286
21
1.39348
0
LINE
8
BLACK
6
CONTINUOUS
10
1.70286
20
1.39348
11
1.69669
21
1.39577
0
LINE
8
BLACK
6
CONTINUOUS
10
1.69669
20
1.39577
11
1.69118
21
1.39937
0
LINE
8
BLACK
6
CONTINUOUS
10
1.69118
20
1.39937
11
1.68661
21
1.40411
0
LINE
8
BLACK
6
CONTINUOUS
10
1.68661
20
1.40411
11
1.6832
21
1.40974
0
LINE
8
BLACK
6
CONTINUOUS
10
1.6832
20
1.40974
11
1.68112
21
1.41599
0
LINE
8
BLACK
6
CONTINUOUS
10
1.68112
20
1.41599
11
1.68048
21
1.42254
0
LINE
8
BLACK
6
CONTINUOUS
10
1.68048
20
1.42254
11
1.6813
21
1.42907
0
LINE
8
BLACK
6
CONTINUOUS
10
1.6813
20
1.42907
11
1.68355
21
1.43525
0
LINE
8
BLACK
6
CONTINUOUS
10
1.68355
20
1.43525
11
1.68712
21
1.44079
0
LINE
8
BLACK
6
CONTINUOUS
10
1.68712
20
1.44079
11
1.69182
21
1.44539
0
LINE
8
BLACK
6
CONTINUOUS
10
1.69182
20
1.44539
11
1.69743
21
1.44884
0
LINE
8
BLACK
6
CONTINUOUS
10
1.69743
20
1.44884
11
1.70366
21
1.45096
0
LINE
8
BLACK
6
CONTINUOUS
10
1.70366
20
1.45096
11
1.71021
21
1.45165
0
LINE
8
BLACK
6
CONTINUOUS
10
1.71021
20
1.45165
11
1.71674
21
1.45087
0
LINE
8
BLACK
6
CONTINUOUS
10
0.244866
20
1.45498
11
0.249256
21
1.45274
0
LINE
8
BLACK
6
CONTINUOUS
10
0.249256
20
1.45274
11
0.25274
21
1.44926
0
LINE
8
BLACK
6
CONTINUOUS
10
0.25274
20
1.44926
11
0.254977
21
1.44487
0
LINE
8
BLACK
6
CONTINUOUS
10
0.254977
20
1.44487
11
0.255748
21
1.44
0
LINE
8
BLACK
6
CONTINUOUS
10
0.255748
20
1.44
11
0.254977
21
1.43513
0
LINE
8
BLACK
6
CONTINUOUS
10
0.254977
20
1.43513
11
0.25274
21
1.43074
0
LINE
8
BLACK
6
CONTINUOUS
10
0.25274
20
1.43074
11
0.249256
21
1.42726
0
LINE
8
BLACK
6
CONTINUOUS
10
0.249256
20
1.42726
11
0.244866
21
1.42502
0
LINE
8
BLACK
6
CONTINUOUS
10
0.244866
20
1.42502
11
0.24
21
1.42425
0
LINE
8
BLACK
6
CONTINUOUS
10
0.24
20
1.42425
11
0.235134
21
1.42502
0
LINE
8
BLACK
6
CONTINUOUS
10
0.235134
20
1.42502
11
0.230744
21
1.42726
0
LINE
8
BLACK
6
CONTINUOUS
10
0.230744
20
1.42726
11
0.22726
21
1.43074
0
LINE
8
BLACK
6
CONTINUOUS
10
0.22726
20
1.43074
11
0.225023
21
1.43513
0
LINE
8
BLACK
6
CONTINUOUS
10
0.225023
20
1.43513
11
0.224252
21
1.44
0
LINE
8
BLACK
6
CONTINUOUS
10
0.224252
20
1.44
11
0.225023
21
1.44487
0
LINE
8
BLACK
6
CONTINUOUS
10
0.225023
20
1.44487
11
0.22726
21
1.44926
0
LINE
8
BLACK
6
CONTINUOUS
10
0.22726
20
1.44926
11
0.230744
21
1.45274
0
LINE
8
BLACK
6
CONTINUOUS
10
0.230744
20
1.45274
11
0.235134
21
1.45498
0
LINE
8
BLACK
6
CONTINUOUS
10
0.235134
20
1.45498
11
0.24
21
1.45575
0
LINE
8
BLACK
6
CONTINUOUS
10
0.24
20
1.45575
11
0.244866
21
1.45498
0
LINE
8
BLACK
6
CONTINUOUS
10
0.752866
20
1.53898
11
0.757256
21
1.53674
0
LINE
8
BLACK
6
CONTINUOUS
10
0.757256
20
1.53674
11
0.76074
21
1.53326
0
LINE
8
BLACK
6
CONTINUOUS
10
0.76074
20
1.53326
11
0.762977
21
1.52887
0
LINE
8
BLACK
6
CONTINUOUS
10
0.762977
20
1.52887
11
0.763748
21
1.524
0
LINE
8
BLACK
6
CONTINUOUS
10
0.763748
20
1.524
11
0.762977
21
1.51913
0
LINE
8
BLACK
6
CONTINUOUS
10
0.762977
20
1.51913
11
0.76074
21
1.51474
0
LINE
8
BLACK
6
CONTINUOUS
10
0.76074
20
1.51474
11
0.757256
21
1.51126
0
LINE
8
BLACK
6
CONTINUOUS
10
0.757256
20
1.51126
11
0.752866
21
1.50902
0
LINE
8
BLACK
6
CONTINUOUS
10
0.752866
20
1.50902
11
0.748
21
1.50825
0
LINE
8
BLACK
6
CONTINUOUS
10
0.748
20
1.50825
11
0.743134
21
1.50902
0
LINE
8
BLACK
6
CONTINUOUS
10
0.743134
20
1.50902
11
0.738744
21
1.51126
0
LINE
8
BLACK
6
CONTINUOUS
10
0.738744
20
1.51126
11
0.73526
21
1.51474
0
LINE
8
BLACK
6
CONTINUOUS
10
0.73526
20
1.51474
11
0.733023
21
1.51913
0
LINE
8
BLACK
6
CONTINUOUS
10
0.733023
20
1.51913
11
0.732252
21
1.524
0
LINE
8
BLACK
6
CONTINUOUS
10
0.732252
20
1.524
11
0.733023
21
1.52887
0
LINE
8
BLACK
6
CONTINUOUS
10
0.733023
20
1.52887
11
0.73526
21
1.53326
0
LINE
8
BLACK
6
CONTINUOUS
10
0.73526
20
1.53326
11
0.738744
21
1.53674
0
LINE
8
BLACK
6
CONTINUOUS
10
0.738744
20
1.53674
11
0.743134
21
1.53898
0
LINE
8
BLACK
6
CONTINUOUS
10
0.743134
20
1.53898
11
0.748
21
1.53975
0
LINE
8
BLACK
6
CONTINUOUS
10
0.748
20
1.53975
11
0.752866
21
1.53898
0
LINE
8
BLACK
6
CONTINUOUS
10
0.884866
20
1.55298
11
0.889256
21
1.55074
0
LINE
8
BLACK
6
CONTINUOUS
10
0.889256
20
1.55074
11
0.89274
21
1.54726
0
LINE
8
BLACK
6
CONTINUOUS
10
0.89274
20
1.54726
11
0.894977
21
1.54287
0
LINE
8
BLACK
6
CONTINUOUS
10
0.894977
20
1.54287
11
0.895748
21
1.538
0
LINE
8
BLACK
6
CONTINUOUS
10
0.895748
20
1.538
11
0.894977
21
1.53313
0
LINE
8
BLACK
6
CONTINUOUS
10
0.894977
20
1.53313
11
0.89274
21
1.52874
0
LINE
8
BLACK
6
CONTINUOUS
10
0.89274
20
1.52874
11
0.889256
21
1.52526
0
LINE
8
BLACK
6
CONTINUOUS
10
0.889256
20
1.52526
11
0.884866
21
1.52302
0
LINE
8
BLACK
6
CONTINUOUS
10
0.884866
20
1.52302
11
0.88
21
1.52225
0
LINE
8
BLACK
6
CONTINUOUS
10
0.88
20
1.52225
11
0.875134
21
1.52302
0
LINE
8
BLACK
6
CONTINUOUS
10
0.875134
20
1.52302
11
0.870744
21
1.52526
0
LINE
8
BLACK
6
CONTINUOUS
10
0.870744
20
1.52526
11
0.86726
21
1.52874
0
LINE
8
BLACK
6
CONTINUOUS
10
0.86726
20
1.52874
11
0.865023
21
1.53313
0
LINE
8
BLACK
6
CONTINUOUS
10
0.865023
20
1.53313
11
0.864252
21
1.538
0
LINE
8
BLACK
6
CONTINUOUS
10
0.864252
20
1.538
11
0.865023
21
1.54287
0
LINE
8
BLACK
6
CONTINUOUS
10
0.865023
20
1.54287
11
0.86726
21
1.54726
0
LINE
8
BLACK
6
CONTINUOUS
10
0.86726
20
1.54726
11
0.870744
21
1.55074
0
LINE
8
BLACK
6
CONTINUOUS
10
0.870744
20
1.55074
11
0.875134
21
1.55298
0
LINE
8
BLACK
6
CONTINUOUS
10
0.875134
20
1.55298
11
0.88
21
1.55375
0
LINE
8
BLACK
6
CONTINUOUS
10
0.88
20
1.55375
11
0.884866
21
1.55298
0
LINE
8
BLACK
6
CONTINUOUS
10
3.00865
20
1.91779
11
3.02213
21
1.91602
0
LINE
8
BLACK
6
CONTINUOUS
10
3.02213
20
1.91602
11
3.03532
21
1.91271
0
LINE
8
BLACK
6
CONTINUOUS
10
3.03532
20
1.91271
11
3.04804
21
1.9079
0
LINE
8
BLACK
6
CONTINUOUS
10
3.04804
20
1.9079
11
3.06012
21
1.90166
0
LINE
8
BLACK
6
CONTINUOUS
10
3.06012
20
1.90166
11
3.07141
21
1.89408
0
LINE
8
BLACK
6
CONTINUOUS
10
3.07141
20
1.89408
11
3.08175
21
1.88525
0
LINE
8
BLACK
6
CONTINUOUS
10
3.08175
20
1.88525
11
3.09101
21
1.87529
0
LINE
8
BLACK
6
CONTINUOUS
10
3.09101
20
1.87529
11
3.09906
21
1.86433
0
LINE
8
BLACK
6
CONTINUOUS
10
3.09906
20
1.86433
11
3.10579
21
1.85252
0
LINE
8
BLACK
6
CONTINUOUS
10
3.10579
20
1.85252
11
3.11113
21
1.84001
0
LINE
8
BLACK
6
CONTINUOUS
10
3.11113
20
1.84001
11
3.11499
21
1.82697
0
LINE
8
BLACK
6
CONTINUOUS
10
3.11499
20
1.82697
11
3.11733
21
1.81358
0
LINE
8
BLACK
6
CONTINUOUS
10
3.11733
20
1.81358
11
3.11811
21
1.8
0
LINE
8
BLACK
6
CONTINUOUS
10
3.11811
20
1.8
11
3.11788
21
1.79258
0
LINE
8
BLACK
6
CONTINUOUS
10
3.11788
20
1.79258
11
3.11624
21
1.77908
0
LINE
8
BLACK
6
CONTINUOUS
10
3.11624
20
1.77908
11
3.11307
21
1.76586
0
LINE
8
BLACK
6
CONTINUOUS
10
3.11307
20
1.76586
11
3.1084
21
1.75309
0
LINE
8
BLACK
6
CONTINUOUS
10
3.1084
20
1.75309
11
3.10229
21
1.74094
0
LINE
8
BLACK
6
CONTINUOUS
10
3.10229
20
1.74094
11
3.09482
21
1.72958
0
LINE
8
BLACK
6
CONTINUOUS
10
3.09482
20
1.72958
11
3.0861
21
1.71915
0
LINE
8
BLACK
6
CONTINUOUS
10
3.0861
20
1.71915
11
3.07624
21
1.70979
0
LINE
8
BLACK
6
CONTINUOUS
10
3.07624
20
1.70979
11
3.06536
21
1.70162
0
LINE
8
BLACK
6
CONTINUOUS
10
3.06536
20
1.70162
11
3.05362
21
1.69476
0
LINE
8
BLACK
6
CONTINUOUS
10
3.05362
20
1.69476
11
3.04117
21
1.6893
0
LINE
8
BLACK
6
CONTINUOUS
10
3.04117
20
1.6893
11
3.02817
21
1.6853
0
LINE
8
BLACK
6
CONTINUOUS
10
3.02817
20
1.6853
11
3.0148
21
1.68282
0
LINE
8
BLACK
6
CONTINUOUS
10
3.0148
20
1.68282
11
3.00124
21
1.6819
0
LINE
8
BLACK
6
CONTINUOUS
10
3.00124
20
1.6819
11
2.98765
21
1.68254
0
LINE
8
BLACK
6
CONTINUOUS
10
2.98765
20
1.68254
11
2.97424
21
1.68473
0
LINE
8
BLACK
6
CONTINUOUS
10
2.97424
20
1.68473
11
2.96116
21
1.68846
0
LINE
8
BLACK
6
CONTINUOUS
10
2.96116
20
1.68846
11
2.94859
21
1.69366
0
LINE
8
BLACK
6
CONTINUOUS
10
2.94859
20
1.69366
11
2.93671
21
1.70028
0
LINE
8
BLACK
6
CONTINUOUS
10
2.93671
20
1.70028
11
2.92567
21
1.70821
0
LINE
8
BLACK
6
CONTINUOUS
10
2.92567
20
1.70821
11
2.91561
21
1.71736
0
LINE
8
BLACK
6
CONTINUOUS
10
2.91561
20
1.71736
11
2.90667
21
1.72761
0
LINE
8
BLACK
6
CONTINUOUS
10
2.90667
20
1.72761
11
2.89897
21
1.73882
0
LINE
8
BLACK
6
CONTINUOUS
10
2.89897
20
1.73882
11
2.89261
21
1.75083
0
LINE
8
BLACK
6
CONTINUOUS
10
2.89261
20
1.75083
11
2.88767
21
1.7635
0
LINE
8
BLACK
6
CONTINUOUS
10
2.88767
20
1.7635
11
2.88422
21
1.77665
0
LINE
8
BLACK
6
CONTINUOUS
10
2.88422
20
1.77665
11
2.8823
21
1.79012
0
LINE
8
BLACK
6
CONTINUOUS
10
2.8823
20
1.79012
11
2.88195
21
1.80371
0
LINE
8
BLACK
6
CONTINUOUS
10
2.88195
20
1.80371
11
2.88316
21
1.81725
0
LINE
8
BLACK
6
CONTINUOUS
10
2.88316
20
1.81725
11
2.88591
21
1.83057
0
LINE
8
BLACK
6
CONTINUOUS
10
2.88591
20
1.83057
11
2.89018
21
1.84348
0
LINE
8
BLACK
6
CONTINUOUS
10
2.89018
20
1.84348
11
2.89591
21
1.85581
0
LINE
8
BLACK
6
CONTINUOUS
10
2.89591
20
1.85581
11
2.90301
21
1.86741
0
LINE
8
BLACK
6
CONTINUOUS
10
2.90301
20
1.86741
11
2.9114
21
1.87811
0
LINE
8
BLACK
6
CONTINUOUS
10
2.9114
20
1.87811
11
2.92097
21
1.88777
0
LINE
8
BLACK
6
CONTINUOUS
10
2.92097
20
1.88777
11
2.93158
21
1.89627
0
LINE
8
BLACK
6
CONTINUOUS
10
2.93158
20
1.89627
11
2.9431
21
1.9035
0
LINE
8
BLACK
6
CONTINUOUS
10
2.9431
20
1.9035
11
2.95537
21
1.90935
0
LINE
8
BLACK
6
CONTINUOUS
10
2.95537
20
1.90935
11
2.96824
21
1.91376
0
LINE
8
BLACK
6
CONTINUOUS
10
2.96824
20
1.91376
11
2.98152
21
1.91666
0
LINE
8
BLACK
6
CONTINUOUS
10
2.98152
20
1.91666
11
2.99505
21
1.91801
0
LINE
8
BLACK
6
CONTINUOUS
10
2.99505
20
1.91801
11
3.00865
21
1.91779
0
LINE
8
BLACK
6
CONTINUOUS
10
0.20865
20
1.91779
11
0.222132
21
1.91602
0
LINE
8
BLACK
6
CONTINUOUS
10
0.222132
20
1.91602
11
0.23532
21
1.91271
0
LINE
8
BLACK
6
CONTINUOUS
10
0.23532
20
1.91271
11
0.24804
21
1.9079
0
LINE
8
BLACK
6
CONTINUOUS
10
0.24804
20
1.9079
11
0.260123
21
1.90166
0
LINE
8
BLACK
6
CONTINUOUS
10
0.260123
20
1.90166
11
0.271409
21
1.89408
0
LINE
8
BLACK
6
CONTINUOUS
10
0.271409
20
1.89408
11
0.281749
21
1.88525
0
LINE
8
BLACK
6
CONTINUOUS
10
0.281749
20
1.88525
11
0.291006
21
1.87529
0
LINE
8
BLACK
6
CONTINUOUS
10
0.291006
20
1.87529
11
0.299056
21
1.86433
0
LINE
8
BLACK
6
CONTINUOUS
10
0.299056
20
1.86433
11
0.305793
21
1.85252
0
LINE
8
BLACK
6
CONTINUOUS
10
0.305793
20
1.85252
11
0.311128
21
1.84001
0
LINE
8
BLACK
6
CONTINUOUS
10
0.311128
20
1.84001
11
0.31499
21
1.82697
0
LINE
8
BLACK
6
CONTINUOUS
10
0.31499
20
1.82697
11
0.317327
21
1.81358
0
LINE
8
BLACK
6
CONTINUOUS
10
0.317327
20
1.81358
11
0.31811
21
1.8
0
LINE
8
BLACK
6
CONTINUOUS
10
0.31811
20
1.8
11
0.317877
21
1.79258
0
LINE
8
BLACK
6
CONTINUOUS
10
0.317877
20
1.79258
11
0.316244
21
1.77908
0
LINE
8
BLACK
6
CONTINUOUS
10
0.316244
20
1.77908
11
0.313069
21
1.76586
0
LINE
8
BLACK
6
CONTINUOUS
10
0.313069
20
1.76586
11
0.308396
21
1.75309
0
LINE
8
BLACK
6
CONTINUOUS
10
0.308396
20
1.75309
11
0.302286
21
1.74094
0
LINE
8
BLACK
6
CONTINUOUS
10
0.302286
20
1.74094
11
0.294821
21
1.72958
0
LINE
8
BLACK
6
CONTINUOUS
10
0.294821
20
1.72958
11
0.286099
21
1.71915
0
LINE
8
BLACK
6
CONTINUOUS
10
0.286099
20
1.71915
11
0.276235
21
1.70979
0
LINE
8
BLACK
6
CONTINUOUS
10
0.276235
20
1.70979
11
0.265361
21
1.70162
0
LINE
8
BLACK
6
CONTINUOUS
10
0.265361
20
1.70162
11
0.253621
21
1.69476
0
LINE
8
BLACK
6
CONTINUOUS
10
0.253621
20
1.69476
11
0.24117
21
1.6893
0
LINE
8
BLACK
6
CONTINUOUS
10
0.24117
20
1.6893
11
0.228173
21
1.6853
0
LINE
8
BLACK
6
CONTINUOUS
10
0.228173
20
1.6853
11
0.214803
21
1.68282
0
LINE
8
BLACK
6
CONTINUOUS
10
0.214803
20
1.68282
11
0.201237
21
1.6819
0
LINE
8
BLACK
6
CONTINUOUS
10
0.201237
20
1.6819
11
0.187654
21
1.68254
0
LINE
8
BLACK
6
CONTINUOUS
10
0.187654
20
1.68254
11
0.174235
21
1.68473
0
LINE
8
BLACK
6
CONTINUOUS
10
0.174235
20
1.68473
11
0.161157
21
1.68846
0
LINE
8
BLACK
6
CONTINUOUS
10
0.161157
20
1.68846
11
0.148595
21
1.69366
0
LINE
8
BLACK
6
CONTINUOUS
10
0.148595
20
1.69366
11
0.136713
21
1.70028
0
LINE
8
BLACK
6
CONTINUOUS
10
0.136713
20
1.70028
11
0.125671
21
1.70821
0
LINE
8
BLACK
6
CONTINUOUS
10
0.125671
20
1.70821
11
0.115613
21
1.71736
0
LINE
8
BLACK
6
CONTINUOUS
10
0.115613
20
1.71736
11
0.106675
21
1.72761
0
LINE
8
BLACK
6
CONTINUOUS
10
0.106675
20
1.72761
11
0.0989727
21
1.73882
0
LINE
8
BLACK
6
CONTINUOUS
10
0.0989727
20
1.73882
11
0.0926099
21
1.75083
0
LINE
8
BLACK
6
CONTINUOUS
10
0.0926099
20
1.75083
11
0.0876705
21
1.7635
0
LINE
8
BLACK
6
CONTINUOUS
10
0.0876705
20
1.7635
11
0.0842199
21
1.77665
0
LINE
8
BLACK
6
CONTINUOUS
10
0.0842199
20
1.77665
11
0.082304
21
1.79012
0
LINE
8
BLACK
6
CONTINUOUS
10
0.082304
20
1.79012
11
0.081948
21
1.80371
0
LINE
8
BLACK
6
CONTINUOUS
10
0.081948
20
1.80371
11
0.0831568
21
1.81725
0
LINE
8
BLACK
6
CONTINUOUS
10
0.0831568
20
1.81725
11
0.0859143
21
1.83057
0
LINE
8
BLACK
6
CONTINUOUS
10
0.0859143
20
1.83057
11
0.0901839
21
1.84348
0
LINE
8
BLACK
6
CONTINUOUS
10
0.0901839
20
1.84348
11
0.0959091
21
1.85581
0
LINE
8
BLACK
6
CONTINUOUS
10
0.0959091
20
1.85581
11
0.103014
21
1.86741
0
LINE
8
BLACK
6
CONTINUOUS
10
0.103014
20
1.86741
11
0.111404
21
1.87811
0
LINE
8
BLACK
6
CONTINUOUS
10
0.111404
20
1.87811
11
0.120969
21
1.88777
0
LINE
8
BLACK
6
CONTINUOUS
10
0.120969
20
1.88777
11
0.131581
21
1.89627
0
LINE
8
BLACK
6
CONTINUOUS
10
0.131581
20
1.89627
11
0.1431
21
1.9035
0
LINE
8
BLACK
6
CONTINUOUS
10
0.1431
20
1.9035
11
0.155373
21
1.90935
0
LINE
8
BLACK
6
CONTINUOUS
10
0.155373
20
1.90935
11
0.168238
21
1.91376
0
LINE
8
BLACK
6
CONTINUOUS
10
0.168238
20
1.91376
11
0.181524
21
1.91666
0
LINE
8
BLACK
6
CONTINUOUS
10
0.181524
20
1.91666
11
0.195054
21
1.91801
0
LINE
8
BLACK
6
CONTINUOUS
10
0.195054
20
1.91801
11
0.20865
21
1.91779
0
LINE
8
BLACK
6
CONTINUOUS
10
2.36
20
1.8
11
2.3
21
1.8
0
LINE
8
BLACK
6
CONTINUOUS
10
2.3
20
1.8
11
2.3
21
1.86
0
LINE
8
BLACK
6
CONTINUOUS
10
2.3
20
1.86
11
2.36
21
1.86
0
LINE
8
BLACK
6
CONTINUOUS
10
2.36
20
1.86
11
2.36
21
1.8
0
LINE
8
BLACK
6
CONTINUOUS
10
2.46
20
1.8
11
2.4
21
1.8
0
LINE
8
BLACK
6
CONTINUOUS
10
2.4
20
1.8
11
2.4
21
1.86
0
LINE
8
BLACK
6
CONTINUOUS
10
2.4
20
1.86
11
2.46
21
1.86
0
LINE
8
BLACK
6
CONTINUOUS
10
2.46
20
1.86
11
2.46
21
1.8
0
LINE
8
BLACK
6
CONTINUOUS
10
3.49804
20
0.447118
11
3.50206
21
0.445515
0
LINE
8
BLACK
6
CONTINUOUS
10
3.50206
20
0.445515
11
3.50523
21
0.442574
0
LINE
8
BLACK
6
CONTINUOUS
10
3.50523
20
0.442574
11
3.50713
21
0.438688
0
LINE
8
BLACK
6
CONTINUOUS
10
3.50713
20
0.438688
11
3.5075
21
0.434379
0
LINE
8
BLACK
6
CONTINUOUS
10
3.5075
20
0.434379
11
3.5063
21
0.430225
0
LINE
8
BLACK
6
CONTINUOUS
10
3.5063
20
0.430225
11
3.50368
21
0.426782
0
LINE
8
BLACK
6
CONTINUOUS
10
3.50368
20
0.426782
11
3.5
21
0.424512
0
LINE
8
BLACK
6
CONTINUOUS
10
3.5
20
0.424512
11
3.49575
21
0.42372
0
LINE
8
BLACK
6
CONTINUOUS
10
3.49575
20
0.42372
11
3.46425
21
0.42372
0
LINE
8
BLACK
6
CONTINUOUS
10
3.46425
20
0.42372
11
3.46196
21
0.423945
0
LINE
8
BLACK
6
CONTINUOUS
10
3.46196
20
0.423945
11
3.45794
21
0.425548
0
LINE
8
BLACK
6
CONTINUOUS
10
3.45794
20
0.425548
11
3.45477
21
0.428489
0
LINE
8
BLACK
6
CONTINUOUS
10
3.45477
20
0.428489
11
3.45287
21
0.432375
0
LINE
8
BLACK
6
CONTINUOUS
10
3.45287
20
0.432375
11
3.4525
21
0.436684
0
LINE
8
BLACK
6
CONTINUOUS
10
3.4525
20
0.436684
11
3.4537
21
0.440838
0
LINE
8
BLACK
6
CONTINUOUS
10
3.4537
20
0.440838
11
3.45632
21
0.444281
0
LINE
8
BLACK
6
CONTINUOUS
10
3.45632
20
0.444281
11
3.46
21
0.446551
0
LINE
8
BLACK
6
CONTINUOUS
10
3.46
20
0.446551
11
3.46425
21
0.447343
0
LINE
8
BLACK
6
CONTINUOUS
10
3.46425
20
0.447343
11
3.49575
21
0.447343
0
LINE
8
BLACK
6
CONTINUOUS
10
3.49575
20
0.447343
11
3.49804
21
0.447118
0
LINE
8
BLACK
6
CONTINUOUS
10
3.49804
20
0.10696
11
3.50206
21
0.105357
0
LINE
8
BLACK
6
CONTINUOUS
10
3.50206
20
0.105357
11
3.50523
21
0.102416
0
LINE
8
BLACK
6
CONTINUOUS
10
3.50523
20
0.102416
11
3.50713
21
0.0985304
0
LINE
8
BLACK
6
CONTINUOUS
10
3.50713
20
0.0985304
11
3.5075
21
0.0942215
0
LINE
8
BLACK
6
CONTINUOUS
10
3.5075
20
0.0942215
11
3.5063
21
0.0900671
0
LINE
8
BLACK
6
CONTINUOUS
10
3.5063
20
0.0900671
11
3.50368
21
0.0866244
0
LINE
8
BLACK
6
CONTINUOUS
10
3.50368
20
0.0866244
11
3.5
21
0.0843549
0
LINE
8
BLACK
6
CONTINUOUS
10
3.5
20
0.0843549
11
3.49575
21
0.083563
0
LINE
8
BLACK
6
CONTINUOUS
10
3.49575
20
0.083563
11
3.46425
21
0.083563
0
LINE
8
BLACK
6
CONTINUOUS
10
3.46425
20
0.083563
11
3.46196
21
0.0837879
0
LINE
8
BLACK
6
CONTINUOUS
10
3.46196
20
0.0837879
11
3.45794
21
0.0853906
0
LINE
8
BLACK
6
CONTINUOUS
10
3.45794
20
0.0853906
11
3.45477
21
0.088332
0
LINE
8
BLACK
6
CONTINUOUS
10
3.45477
20
0.088332
11
3.45287
21
0.0922176
0
LINE
8
BLACK
6
CONTINUOUS
10
3.45287
20
0.0922176
11
3.4525
21
0.0965266
0
LINE
8
BLACK
6
CONTINUOUS
10
3.4525
20
0.0965266
11
3.4537
21
0.100681
0
LINE
8
BLACK
6
CONTINUOUS
10
3.4537
20
0.100681
11
3.45632
21
0.104124
0
LINE
8
BLACK
6
CONTINUOUS
10
3.45632
20
0.104124
11
3.46
21
0.106393
0
LINE
8
BLACK
6
CONTINUOUS
10
3.46
20
0.106393
11
3.46425
21
0.107185
0
LINE
8
BLACK
6
CONTINUOUS
10
3.46425
20
0.107185
11
3.49575
21
0.107185
0
LINE
8
BLACK
6
CONTINUOUS
10
3.49575
20
0.107185
11
3.49804
21
0.10696
0
LINE
8
BLACK
6
CONTINUOUS
10
3.33938
20
0.447118
11
3.3434
21
0.445515
0
LINE
8
BLACK
6
CONTINUOUS
10
3.3434
20
0.445515
11
3.34657
21
0.442574
0
LINE
8
BLACK
6
CONTINUOUS
10
3.34657
20
0.442574
11
3.34847
21
0.438688
0
LINE
8
BLACK
6
CONTINUOUS
10
3.34847
20
0.438688
11
3.34884
21
0.434379
0
LINE
8
BLACK
6
CONTINUOUS
10
3.34884
20
0.434379
11
3.34764
21
0.430225
0
LINE
8
BLACK
6
CONTINUOUS
10
3.34764
20
0.430225
11
3.34502
21
0.426782
0
LINE
8
BLACK
6
CONTINUOUS
10
3.34502
20
0.426782
11
3.34134
21
0.424512
0
LINE
8
BLACK
6
CONTINUOUS
10
3.34134
20
0.424512
11
3.33709
21
0.42372
0
LINE
8
BLACK
6
CONTINUOUS
10
3.33709
20
0.42372
11
3.29378
21
0.42372
0
LINE
8
BLACK
6
CONTINUOUS
10
3.29378
20
0.42372
11
3.29149
21
0.423945
0
LINE
8
BLACK
6
CONTINUOUS
10
3.29149
20
0.423945
11
3.28747
21
0.425548
0
LINE
8
BLACK
6
CONTINUOUS
10
3.28747
20
0.425548
11
3.2843
21
0.428489
0
LINE
8
BLACK
6
CONTINUOUS
10
3.2843
20
0.428489
11
3.2824
21
0.432375
0
LINE
8
BLACK
6
CONTINUOUS
10
3.2824
20
0.432375
11
3.28202
21
0.436684
0
LINE
8
BLACK
6
CONTINUOUS
10
3.28202
20
0.436684
11
3.28323
21
0.440838
0
LINE
8
BLACK
6
CONTINUOUS
10
3.28323
20
0.440838
11
3.28585
21
0.444281
0
LINE
8
BLACK
6
CONTINUOUS
10
3.28585
20
0.444281
11
3.28953
21
0.446551
0
LINE
8
BLACK
6
CONTINUOUS
10
3.28953
20
0.446551
11
3.29378
21
0.447343
0
LINE
8
BLACK
6
CONTINUOUS
10
3.29378
20
0.447343
11
3.33709
21
0.447343
0
LINE
8
BLACK
6
CONTINUOUS
10
3.33709
20
0.447343
11
3.33938
21
0.447118
0
LINE
8
BLACK
6
CONTINUOUS
10
3.33938
20
0.10696
11
3.3434
21
0.105357
0
LINE
8
BLACK
6
CONTINUOUS
10
3.3434
20
0.105357
11
3.34657
21
0.102416
0
LINE
8
BLACK
6
CONTINUOUS
10
3.34657
20
0.102416
11
3.34847
21
0.0985304
0
LINE
8
BLACK
6
CONTINUOUS
10
3.34847
20
0.0985304
11
3.34884
21
0.0942215
0
LINE
8
BLACK
6
CONTINUOUS
10
3.34884
20
0.0942215
11
3.34764
21
0.0900671
0
LINE
8
BLACK
6
CONTINUOUS
10
3.34764
20
0.0900671
11
3.34502
21
0.0866244
0
LINE
8
BLACK
6
CONTINUOUS
10
3.34502
20
0.0866244
11
3.34134
21
0.0843549
0
LINE
8
BLACK
6
CONTINUOUS
10
3.34134
20
0.0843549
11
3.33709
21
0.083563
0
LINE
8
BLACK
6
CONTINUOUS
10
3.33709
20
0.083563
11
3.29378
21
0.083563
0
LINE
8
BLACK
6
CONTINUOUS
10
3.29378
20
0.083563
11
3.29149
21
0.0837879
0
LINE
8
BLACK
6
CONTINUOUS
10
3.29149
20
0.0837879
11
3.28747
21
0.0853906
0
LINE
8
BLACK
6
CONTINUOUS
10
3.28747
20
0.0853906
11
3.2843
21
0.088332
0
LINE
8
BLACK
6
CONTINUOUS
10
3.2843
20
0.088332
11
3.2824
21
0.0922176
0
LINE
8
BLACK
6
CONTINUOUS
10
3.2824
20
0.0922176
11
3.28202
21
0.0965266
0
LINE
8
BLACK
6
CONTINUOUS
10
3.28202
20
0.0965266
11
3.28323
21
0.100681
0
LINE
8
BLACK
6
CONTINUOUS
10
3.28323
20
0.100681
11
3.28585
21
0.104124
0
LINE
8
BLACK
6
CONTINUOUS
10
3.28585
20
0.104124
11
3.28953
21
0.106393
0
LINE
8
BLACK
6
CONTINUOUS
10
3.28953
20
0.106393
11
3.29378
21
0.107185
0
LINE
8
BLACK
6
CONTINUOUS
10
3.29378
20
0.107185
11
3.33709
21
0.107185
0
LINE
8
BLACK
6
CONTINUOUS
10
3.33709
20
0.107185
11
3.33938
21
0.10696
0
CIRCLE
8
BLACK
10
0.58
20
0.486
40
0.00787402
0
CIRCLE
8
BLACK
10
0.784
20
0.95
40
0.00787402
0
CIRCLE
8
BLACK
10
0.784
20
1.006
40
0.00787402
0
CIRCLE
8
BLACK
10
0.392
20
0.56
40
0.00787402
0
CIRCLE
8
BLACK
10
0.182
20
0.64
40
0.00787402
0
CIRCLE
8
BLACK
10
0.175
20
0.725
40
0.00787402
0
CIRCLE
8
BLACK
10
0.125
20
0.775
40
0.00787402
0
CIRCLE
8
BLACK
10
0.1
20
0.825
40
0.00787402
0
CIRCLE
8
BLACK
10
0.1
20
0.875
40
0.00787402
0
CIRCLE
8
BLACK
10
0.1
20
0.95
40
0.00787402
0
CIRCLE
8
BLACK
10
0.1
20
1.025
40
0.00787402
0
CIRCLE
8
BLACK
10
0.1
20
1.1
40
0.00787402
0
CIRCLE
8
BLACK
10
0.1
20
1.175
40
0.00787402
0
CIRCLE
8
BLACK
10
0.13
20
1.246
40
0.00787402
0
CIRCLE
8
BLACK
10
0.1
20
1.3
40
0.00787402
0
CIRCLE
8
BLACK
10
0.225
20
1.3
40
0.00787402
0
CIRCLE
8
BLACK
10
0.275
20
1.25
40
0.00787402
0
CIRCLE
8
BLACK
10
0.3
20
1.3
40
0.00787402
0
CIRCLE
8
BLACK
10
0.218
20
1.35
40
0.00787402
0
CIRCLE
8
BLACK
10
0.2
20
1.4
40
0.00787402
0
CIRCLE
8
BLACK
10
0.72
20
1.178
40
0.00787402
0
CIRCLE
8
BLACK
10
0.766
20
1.18
40
0.00787402
0
CIRCLE
8
BLACK
10
0.812
20
1.18
40
0.00787402
0
CIRCLE
8
BLACK
10
0.24
20
1.44
40
0.00787402
0
CIRCLE
8
BLACK
10
0.406299
20
1.08976
40
0.00787402
0
CIRCLE
8
BLACK
10
0.596
20
1.006
40
0.00787402
0
CIRCLE
8
BLACK
10
0.968
20
0.866
40
0.00787402
0
CIRCLE
8
BLACK
10
0.88
20
1.538
40
0.00787402
0
CIRCLE
8
BLACK
10
0.16
20
1.36
40
0.00787402
0
CIRCLE
8
BLACK
10
0.406278
20
1.189
40
0.00787402
0
CIRCLE
8
BLACK
10
1.176
20
0.722
40
0.00787402
0
CIRCLE
8
BLACK
10
1.2
20
0.576
40
0.00787402
0
CIRCLE
8
BLACK
10
0.92
20
0.632
40
0.00787402
0
CIRCLE
8
BLACK
10
0.196299
20
1.05976
40
0.00787402
0
CIRCLE
8
BLACK
10
0.366299
20
0.869764
40
0.00787402
0
CIRCLE
8
BLACK
10
0.53
20
0.85
40
0.00787402
0
CIRCLE
8
BLACK
10
0.42
20
0.864764
40
0.00787402
0
CIRCLE
8
BLACK
10
0.758
20
0.612
40
0.00787402
0
CIRCLE
8
BLACK
10
0.481299
20
0.864764
40
0.00787402
0
CIRCLE
8
BLACK
10
0.716
20
1.004
40
0.00787402
0
CIRCLE
8
BLACK
10
0.754
20
0.684
40
0.00787402
0
CIRCLE
8
BLACK
10
1.194
20
0.668
40
0.00787402
0
CIRCLE
8
BLACK
10
0.506299
20
0.939764
40
0.00787402
0
CIRCLE
8
BLACK
10
0.752
20
0.758
40
0.00787402
0
CIRCLE
8
BLACK
10
0.654
20
1.004
40
0.00787402
0
CIRCLE
8
BLACK
10
0.196299
20
1.00976
40
0.00787402
0
CIRCLE
8
BLACK
10
0.974
20
0.688
40
0.00787402
0
CIRCLE
8
BLACK
10
0.406299
20
1.13976
40
0.00787402
0
CIRCLE
8
BLACK
10
0.93
20
0.866
40
0.00787402
0
CIRCLE
8
BLACK
10
0.406299
20
1.01476
40
0.00787402
0
CIRCLE
8
BLACK
10
0.92
20
0.562
40
0.00787402
0
CIRCLE
8
BLACK
10
0.934
20
0.688
40
0.00787402
0
CIRCLE
8
BLACK
10
0.748
20
1.524
40
0.00787402
0
CIRCLE
8
BLACK
10
1.038
20
1.198
40
0.00787402
0
CIRCLE
8
BLACK
10
1.038
20
0.914
40
0.00787402
0
CIRCLE
8
BLACK
10
1.108
20
0.44
40
0.00787402
0
CIRCLE
8
BLACK
10
1.128
20
1.06
40
0.00787402
0
CIRCLE
8
BLACK
10
1.228
20
1.388
40
0.00787402
0
CIRCLE
8
BLACK
10
1.14051
20
0.512512
40
0.00787402
  0
ENDSEC
  0
EOF
