  0
SECTION
  2
HEADER
  9
$ANGBASE
  50
0.0
  9
$ANGDIR
  70
1
  9
$MEASUREMENT
  70
0
  0
ENDSEC
  0
SECTION
  2
TABLES
  0
TABLE
  2
LTYPE
  70
4
  0
LTYPE
  5
40F
  2
CONTINUOUS
  70
0
  3
Solid line
  72
65
  73
0
  40
0.0
  0
LTYPE
  5
410
  2
DASHDOT
 70
0
  3
Dash Dot ____ _ ____ _
 72
65
 73
4
 40
2.0
 49
1.25
 49
-0.25
 49
0.25
 49
-0.25
  0
LTYPE
  5
411
  2
DASHED
 70
0
  3
Dashed __ __ __ __ __
 72
65
 73
2
 40
0.75
 49
0.5
 49
-0.25
  0
LTYPE
  5
43B
  2
DOTTED
 70
0
  3
Dotted .  .  .  .
 72
65
 73
2
 40
0.2
 49
0.0
 49
-0.2
  0
ENDTAB
  0
TABLE
  2
STYLE
  70
4
  0
STYLE
  2
KICAD
  70
0
  40
0
  41
1
  42
1
  50
0
  71
0
  3
isocp.shx
  0
STYLE
  2
KICADB
  70
0
  40
0
  41
1
  42
1
  50
0
  71
0
  3
isocp.shx
  0
STYLE
  2
KICADI
  70
0
  40
0
  41
1
  42
1
  50
15
  71
0
  3
isocp.shx
  0
STYLE
  2
KICADBI
  70
0
  40
0
  41
1
  42
1
  50
15
  71
0
  3
isocp.shx
  0
ENDTAB
  0
TABLE
  2
LAYER
  70
1
  0
LAYER
  2
BLACK
  70
0
  62
7
  6
CONTINUOUS
  0
ENDTAB
  0
ENDSEC
  0
SECTION
  2
ENTITIES
0
LINE
8
BLACK
6
CONTINUOUS
10
4.8921040551181099
20
-2.9080875984251966
11
4.8926748425196847
21
-2.9094656299212596
0
LINE
8
BLACK
6
CONTINUOUS
10
4.8926748425196847
20
-2.9094656299212596
11
4.8926748425196847
21
-4.885567992125984
0
LINE
8
BLACK
6
CONTINUOUS
10
4.8926748425196847
20
-4.885567992125984
11
4.8921040551181099
21
-4.8869460236220474
0
LINE
8
BLACK
6
CONTINUOUS
10
4.8921040551181099
20
-4.8869460236220474
11
4.8907260236220473
21
-4.8875168110236222
0
LINE
8
BLACK
6
CONTINUOUS
10
4.8907260236220473
20
-4.8875168110236222
11
3.9006236614173226
21
-4.8875168110236222
0
LINE
8
BLACK
6
CONTINUOUS
10
3.9006236614173226
20
-4.8875168110236222
11
3.8992456299212597
21
-4.8869460236220474
0
LINE
8
BLACK
6
CONTINUOUS
10
3.8992456299212597
20
-4.8869460236220474
11
3.8986748425196849
21
-4.885567992125984
0
LINE
8
BLACK
6
CONTINUOUS
10
3.8986748425196849
20
-4.885567992125984
11
3.8986748425196849
21
-2.9094656299212596
0
LINE
8
BLACK
6
CONTINUOUS
10
3.8986748425196849
20
-2.9094656299212596
11
3.8992456299212597
21
-2.9080875984251966
0
LINE
8
BLACK
6
CONTINUOUS
10
3.8992456299212597
20
-2.9080875984251966
11
3.9006236614173226
21
-2.9075168110236218
0
LINE
8
BLACK
6
CONTINUOUS
10
3.9006236614173226
20
-2.9075168110236218
11
4.8907260236220473
21
-2.9075168110236218
0
LINE
8
BLACK
6
CONTINUOUS
10
4.8907260236220473
20
-2.9075168110236218
11
4.8921040551181099
21
-2.9080875984251966
0
LINE
8
BLACK
6
CONTINUOUS
10
7.2309420078740159
20
-4.7791355118110239
11
7.2366866535433072
21
-4.7815150393700785
0
LINE
8
BLACK
6
CONTINUOUS
10
7.2366866535433072
20
-4.7815150393700785
11
7.2416197244094489
21
-4.7853002755905507
0
LINE
8
BLACK
6
CONTINUOUS
10
7.2416197244094489
20
-4.7853002755905507
11
7.2454049606299211
21
-4.7902333464566924
0
LINE
8
BLACK
6
CONTINUOUS
10
7.2454049606299211
20
-4.7902333464566924
11
7.2477844881889766
21
-4.7959779921259837
0
LINE
8
BLACK
6
CONTINUOUS
10
7.2477844881889766
20
-4.7959779921259837
11
7.248596102362205
21
-4.8021427952755902
0
LINE
8
BLACK
6
CONTINUOUS
10
7.248596102362205
20
-4.8021427952755902
11
7.2477844881889766
21
-4.8083075984251966
0
LINE
8
BLACK
6
CONTINUOUS
10
7.2477844881889766
20
-4.8083075984251966
11
7.2454049606299211
21
-4.814052244094488
0
LINE
8
BLACK
6
CONTINUOUS
10
7.2454049606299211
20
-4.814052244094488
11
7.2416197244094489
21
-4.8189853149606297
0
LINE
8
BLACK
6
CONTINUOUS
10
7.2416197244094489
20
-4.8189853149606297
11
7.2366866535433072
21
-4.8227705511811019
0
LINE
8
BLACK
6
CONTINUOUS
10
7.2366866535433072
20
-4.8227705511811019
11
7.2309420078740159
21
-4.8251500787401573
0
LINE
8
BLACK
6
CONTINUOUS
10
7.2309420078740159
20
-4.8251500787401573
11
7.2247772047244094
21
-4.8259616929133857
0
LINE
8
BLACK
6
CONTINUOUS
10
7.2247772047244094
20
-4.8259616929133857
11
7.1834386220472437
21
-4.8259616929133857
0
LINE
8
BLACK
6
CONTINUOUS
10
7.1834386220472437
20
-4.8259616929133857
11
7.1772738188976373
21
-4.8251500787401573
0
LINE
8
BLACK
6
CONTINUOUS
10
7.1772738188976373
20
-4.8251500787401573
11
7.1715291732283459
21
-4.8227705511811019
0
LINE
8
BLACK
6
CONTINUOUS
10
7.1715291732283459
20
-4.8227705511811019
11
7.1665961023622042
21
-4.8189853149606297
0
LINE
8
BLACK
6
CONTINUOUS
10
7.1665961023622042
20
-4.8189853149606297
11
7.162810866141732
21
-4.814052244094488
0
LINE
8
BLACK
6
CONTINUOUS
10
7.162810866141732
20
-4.814052244094488
11
7.1604313385826774
21
-4.8083075984251966
0
LINE
8
BLACK
6
CONTINUOUS
10
7.1604313385826774
20
-4.8083075984251966
11
7.159619724409449
21
-4.8021427952755902
0
LINE
8
BLACK
6
CONTINUOUS
10
7.159619724409449
20
-4.8021427952755902
11
7.1604313385826774
21
-4.7959779921259837
0
LINE
8
BLACK
6
CONTINUOUS
10
7.1604313385826774
20
-4.7959779921259837
11
7.162810866141732
21
-4.7902333464566924
0
LINE
8
BLACK
6
CONTINUOUS
10
7.162810866141732
20
-4.7902333464566924
11
7.1665961023622042
21
-4.7853002755905507
0
LINE
8
BLACK
6
CONTINUOUS
10
7.1665961023622042
20
-4.7853002755905507
11
7.1715291732283459
21
-4.7815150393700785
0
LINE
8
BLACK
6
CONTINUOUS
10
7.1715291732283459
20
-4.7815150393700785
11
7.1772738188976373
21
-4.7791355118110239
0
LINE
8
BLACK
6
CONTINUOUS
10
7.1772738188976373
20
-4.7791355118110239
11
7.1834386220472437
21
-4.7783238976377955
0
LINE
8
BLACK
6
CONTINUOUS
10
7.1834386220472437
20
-4.7783238976377955
11
7.2247772047244094
21
-4.7783238976377955
0
LINE
8
BLACK
6
CONTINUOUS
10
7.2247772047244094
20
-4.7783238976377955
11
7.2309420078740159
21
-4.7791355118110239
0
LINE
8
BLACK
6
CONTINUOUS
10
7.3942699212598422
20
-4.780086220472441
11
7.3997772047244093
21
-4.7823674015748034
0
LINE
8
BLACK
6
CONTINUOUS
10
7.3997772047244093
20
-4.7823674015748034
11
7.4045064173228345
21
-4.7859962598425199
0
LINE
8
BLACK
6
CONTINUOUS
10
7.4045064173228345
20
-4.7859962598425199
11
7.408135275590551
21
-4.7907254724409452
0
LINE
8
BLACK
6
CONTINUOUS
10
7.408135275590551
20
-4.7907254724409452
11
7.4104164566929134
21
-4.7962327559055113
0
LINE
8
BLACK
6
CONTINUOUS
10
7.4104164566929134
20
-4.7962327559055113
11
7.4111945275590552
21
-4.8021427952755902
0
LINE
8
BLACK
6
CONTINUOUS
10
7.4111945275590552
20
-4.8021427952755902
11
7.4104164566929134
21
-4.808052834645669
0
LINE
8
BLACK
6
CONTINUOUS
10
7.4104164566929134
20
-4.808052834645669
11
7.408135275590551
21
-4.8135601181102361
0
LINE
8
BLACK
6
CONTINUOUS
10
7.408135275590551
20
-4.8135601181102361
11
7.4045064173228345
21
-4.8182893307086614
0
LINE
8
BLACK
6
CONTINUOUS
10
7.4045064173228345
20
-4.8182893307086614
11
7.3997772047244093
21
-4.8219181889763778
0
LINE
8
BLACK
6
CONTINUOUS
10
7.3997772047244093
20
-4.8219181889763778
11
7.3942699212598422
21
-4.8241993700787402
0
LINE
8
BLACK
6
CONTINUOUS
10
7.3942699212598422
20
-4.8241993700787402
11
7.3883598818897633
21
-4.824977440944882
0
LINE
8
BLACK
6
CONTINUOUS
10
7.3883598818897633
20
-4.824977440944882
11
7.3489898031496059
21
-4.824977440944882
0
LINE
8
BLACK
6
CONTINUOUS
10
7.3489898031496059
20
-4.824977440944882
11
7.3430797637795271
21
-4.8241993700787402
0
LINE
8
BLACK
6
CONTINUOUS
10
7.3430797637795271
20
-4.8241993700787402
11
7.3375724803149609
21
-4.8219181889763778
0
LINE
8
BLACK
6
CONTINUOUS
10
7.3375724803149609
20
-4.8219181889763778
11
7.3328432677165356
21
-4.8182893307086614
0
LINE
8
BLACK
6
CONTINUOUS
10
7.3328432677165356
20
-4.8182893307086614
11
7.3292144094488183
21
-4.8135601181102361
0
LINE
8
BLACK
6
CONTINUOUS
10
7.3292144094488183
20
-4.8135601181102361
11
7.3269332283464568
21
-4.808052834645669
0
LINE
8
BLACK
6
CONTINUOUS
10
7.3269332283464568
20
-4.808052834645669
11
7.326155157480315
21
-4.8021427952755902
0
LINE
8
BLACK
6
CONTINUOUS
10
7.326155157480315
20
-4.8021427952755902
11
7.3269332283464568
21
-4.7962327559055113
0
LINE
8
BLACK
6
CONTINUOUS
10
7.3269332283464568
20
-4.7962327559055113
11
7.3292144094488183
21
-4.7907254724409452
0
LINE
8
BLACK
6
CONTINUOUS
10
7.3292144094488183
20
-4.7907254724409452
11
7.3328432677165356
21
-4.7859962598425199
0
LINE
8
BLACK
6
CONTINUOUS
10
7.3328432677165356
20
-4.7859962598425199
11
7.3375724803149609
21
-4.7823674015748034
0
LINE
8
BLACK
6
CONTINUOUS
10
7.3375724803149609
20
-4.7823674015748034
11
7.3430797637795271
21
-4.780086220472441
0
LINE
8
BLACK
6
CONTINUOUS
10
7.3430797637795271
20
-4.780086220472441
11
7.3489898031496059
21
-4.7793081496062992
0
LINE
8
BLACK
6
CONTINUOUS
10
7.3489898031496059
20
-4.7793081496062992
11
7.3883598818897633
21
-4.7793081496062992
0
LINE
8
BLACK
6
CONTINUOUS
10
7.3883598818897633
20
-4.7793081496062992
11
7.3942699212598422
21
-4.780086220472441
0
LINE
8
BLACK
6
CONTINUOUS
10
4.996355551181102
20
-4.7449032283464563
11
5.0037411023622047
21
-4.7471435826771655
0
LINE
8
BLACK
6
CONTINUOUS
10
5.0037411023622047
20
-4.7471435826771655
11
5.0105476771653539
21
-4.7507817716535428
0
LINE
8
BLACK
6
CONTINUOUS
10
5.0105476771653539
20
-4.7507817716535428
11
5.0165137007874012
21
-4.7556779527559057
0
LINE
8
BLACK
6
CONTINUOUS
10
5.0165137007874012
20
-4.7556779527559057
11
5.0214098818897632
21
-4.761643976377953
0
LINE
8
BLACK
6
CONTINUOUS
10
5.0214098818897632
20
-4.761643976377953
11
5.0250480708661414
21
-4.7684505511811022
0
LINE
8
BLACK
6
CONTINUOUS
10
5.0250480708661414
20
-4.7684505511811022
11
5.0272884251968506
21
-4.7758361023622049
0
LINE
8
BLACK
6
CONTINUOUS
10
5.0272884251968506
20
-4.7758361023622049
11
5.0280449212598421
21
-4.7835168110236221
0
LINE
8
BLACK
6
CONTINUOUS
10
5.0280449212598421
20
-4.7835168110236221
11
5.0272884251968506
21
-4.7911975196850394
0
LINE
8
BLACK
6
CONTINUOUS
10
5.0272884251968506
20
-4.7911975196850394
11
5.0250480708661414
21
-4.7985830708661412
0
LINE
8
BLACK
6
CONTINUOUS
10
5.0250480708661414
20
-4.7985830708661412
11
5.0214098818897632
21
-4.8053896456692913
0
LINE
8
BLACK
6
CONTINUOUS
10
5.0214098818897632
20
-4.8053896456692913
11
5.0165137007874012
21
-4.8113556692913386
0
LINE
8
BLACK
6
CONTINUOUS
10
5.0165137007874012
20
-4.8113556692913386
11
5.0105476771653539
21
-4.8162518503937006
0
LINE
8
BLACK
6
CONTINUOUS
10
5.0105476771653539
20
-4.8162518503937006
11
5.0037411023622047
21
-4.8198900393700788
0
LINE
8
BLACK
6
CONTINUOUS
10
5.0037411023622047
20
-4.8198900393700788
11
4.996355551181102
21
-4.8221303937007871
0
LINE
8
BLACK
6
CONTINUOUS
10
4.996355551181102
20
-4.8221303937007871
11
4.9886748425196847
21
-4.8228868897637795
0
LINE
8
BLACK
6
CONTINUOUS
10
4.9886748425196847
20
-4.8228868897637795
11
4.9809941338582675
21
-4.8221303937007871
0
LINE
8
BLACK
6
CONTINUOUS
10
4.9809941338582675
20
-4.8221303937007871
11
4.9736085826771657
21
-4.8198900393700788
0
LINE
8
BLACK
6
CONTINUOUS
10
4.9736085826771657
20
-4.8198900393700788
11
4.9668020078740156
21
-4.8162518503937006
0
LINE
8
BLACK
6
CONTINUOUS
10
4.9668020078740156
20
-4.8162518503937006
11
4.9608359842519683
21
-4.8113556692913386
0
LINE
8
BLACK
6
CONTINUOUS
10
4.9608359842519683
20
-4.8113556692913386
11
4.9559398031496062
21
-4.8053896456692913
0
LINE
8
BLACK
6
CONTINUOUS
10
4.9559398031496062
20
-4.8053896456692913
11
4.9523016141732281
21
-4.7985830708661412
0
LINE
8
BLACK
6
CONTINUOUS
10
4.9523016141732281
20
-4.7985830708661412
11
4.9500612598425198
21
-4.7911975196850394
0
LINE
8
BLACK
6
CONTINUOUS
10
4.9500612598425198
20
-4.7911975196850394
11
4.9493047637795273
21
-4.7835168110236221
0
LINE
8
BLACK
6
CONTINUOUS
10
4.9493047637795273
20
-4.7835168110236221
11
4.9500612598425198
21
-4.7758361023622049
0
LINE
8
BLACK
6
CONTINUOUS
10
4.9500612598425198
20
-4.7758361023622049
11
4.9523016141732281
21
-4.7684505511811022
0
LINE
8
BLACK
6
CONTINUOUS
10
4.9523016141732281
20
-4.7684505511811022
11
4.9559398031496062
21
-4.761643976377953
0
LINE
8
BLACK
6
CONTINUOUS
10
4.9559398031496062
20
-4.761643976377953
11
4.9608359842519683
21
-4.7556779527559057
0
LINE
8
BLACK
6
CONTINUOUS
10
4.9608359842519683
20
-4.7556779527559057
11
4.9668020078740156
21
-4.7507817716535428
0
LINE
8
BLACK
6
CONTINUOUS
10
4.9668020078740156
20
-4.7507817716535428
11
4.9736085826771657
21
-4.7471435826771655
0
LINE
8
BLACK
6
CONTINUOUS
10
4.9736085826771657
20
-4.7471435826771655
11
4.9809941338582675
21
-4.7449032283464563
0
LINE
8
BLACK
6
CONTINUOUS
10
4.9809941338582675
20
-4.7449032283464563
11
4.9886748425196847
21
-4.7441467322834647
0
LINE
8
BLACK
6
CONTINUOUS
10
4.9886748425196847
20
-4.7441467322834647
11
4.996355551181102
21
-4.7449032283464563
0
LINE
8
BLACK
6
CONTINUOUS
10
6.9022516535433072
20
-4.5770194094488188
11
6.9156576771653544
21
-4.5792972047244094
0
LINE
8
BLACK
6
CONTINUOUS
10
6.9156576771653544
20
-4.5792972047244094
11
6.9287244488188975
21
-4.5830616535433073
0
LINE
8
BLACK
6
CONTINUOUS
10
6.9287244488188975
20
-4.5830616535433073
11
6.941287519685039
21
-4.5882654724409448
0
LINE
8
BLACK
6
CONTINUOUS
10
6.941287519685039
20
-4.5882654724409448
11
6.9531889763779526
21
-4.5948431496062989
0
LINE
8
BLACK
6
CONTINUOUS
10
6.9531889763779526
20
-4.5948431496062989
11
6.9642791338582679
21
-4.6027120472440943
0
LINE
8
BLACK
6
CONTINUOUS
10
6.9642791338582679
20
-4.6027120472440943
11
6.9744185039370077
21
-4.6117731496062992
0
LINE
8
BLACK
6
CONTINUOUS
10
6.9744185039370077
20
-4.6117731496062992
11
6.9834796062992126
21
-4.621912519685039
0
LINE
8
BLACK
6
CONTINUOUS
10
6.9834796062992126
20
-4.621912519685039
11
6.991348503937008
21
-4.6330026771653543
0
LINE
8
BLACK
6
CONTINUOUS
10
6.991348503937008
20
-4.6330026771653543
11
6.9979261811023621
21
-4.6449041338582679
0
LINE
8
BLACK
6
CONTINUOUS
10
6.9979261811023621
20
-4.6449041338582679
11
7.0031299999999996
21
-4.6574672047244094
0
LINE
8
BLACK
6
CONTINUOUS
10
7.0031299999999996
20
-4.6574672047244094
11
7.0068944488188976
21
-4.6705339763779525
0
LINE
8
BLACK
6
CONTINUOUS
10
7.0068944488188976
20
-4.6705339763779525
11
7.0091722440944881
21
-4.6839399999999998
0
LINE
8
BLACK
6
CONTINUOUS
10
7.0091722440944881
20
-4.6839399999999998
11
7.0099346850393696
21
-4.6975168110236218
0
LINE
8
BLACK
6
CONTINUOUS
10
7.0099346850393696
20
-4.6975168110236218
11
7.0091722440944881
21
-4.7110936220472439
0
LINE
8
BLACK
6
CONTINUOUS
10
7.0091722440944881
20
-4.7110936220472439
11
7.0068944488188976
21
-4.7244996456692911
0
LINE
8
BLACK
6
CONTINUOUS
10
7.0068944488188976
20
-4.7244996456692911
11
7.0031299999999996
21
-4.7375664173228342
0
LINE
8
BLACK
6
CONTINUOUS
10
7.0031299999999996
20
-4.7375664173228342
11
6.9979261811023621
21
-4.7501294881889766
0
LINE
8
BLACK
6
CONTINUOUS
10
6.9979261811023621
20
-4.7501294881889766
11
6.991348503937008
21
-4.7620309448818894
0
LINE
8
BLACK
6
CONTINUOUS
10
6.991348503937008
20
-4.7620309448818894
11
6.9834796062992126
21
-4.7731211023622047
0
LINE
8
BLACK
6
CONTINUOUS
10
6.9834796062992126
20
-4.7731211023622047
11
6.9744185039370077
21
-4.7832604724409444
0
LINE
8
BLACK
6
CONTINUOUS
10
6.9744185039370077
20
-4.7832604724409444
11
6.9642791338582679
21
-4.7923215748031494
0
LINE
8
BLACK
6
CONTINUOUS
10
6.9642791338582679
20
-4.7923215748031494
11
6.9531889763779526
21
-4.8001904724409448
0
LINE
8
BLACK
6
CONTINUOUS
10
6.9531889763779526
20
-4.8001904724409448
11
6.941287519685039
21
-4.8067681496062988
0
LINE
8
BLACK
6
CONTINUOUS
10
6.941287519685039
20
-4.8067681496062988
11
6.9287244488188975
21
-4.8119719685039373
0
LINE
8
BLACK
6
CONTINUOUS
10
6.9287244488188975
20
-4.8119719685039373
11
6.9156576771653544
21
-4.8157364173228343
0
LINE
8
BLACK
6
CONTINUOUS
10
6.9156576771653544
20
-4.8157364173228343
11
6.9022516535433072
21
-4.8180142125984249
0
LINE
8
BLACK
6
CONTINUOUS
10
6.9022516535433072
20
-4.8180142125984249
11
6.8886748425196851
21
-4.8187766535433072
0
LINE
8
BLACK
6
CONTINUOUS
10
6.8886748425196851
20
-4.8187766535433072
11
6.875098031496063
21
-4.8180142125984249
0
LINE
8
BLACK
6
CONTINUOUS
10
6.875098031496063
20
-4.8180142125984249
11
6.8616920078740158
21
-4.8157364173228343
0
LINE
8
BLACK
6
CONTINUOUS
10
6.8616920078740158
20
-4.8157364173228343
11
6.8486252362204727
21
-4.8119719685039373
0
LINE
8
BLACK
6
CONTINUOUS
10
6.8486252362204727
20
-4.8119719685039373
11
6.8360621653543303
21
-4.8067681496062988
0
LINE
8
BLACK
6
CONTINUOUS
10
6.8360621653543303
20
-4.8067681496062988
11
6.8241607086614176
21
-4.8001904724409448
0
LINE
8
BLACK
6
CONTINUOUS
10
6.8241607086614176
20
-4.8001904724409448
11
6.8130705511811023
21
-4.7923215748031494
0
LINE
8
BLACK
6
CONTINUOUS
10
6.8130705511811023
20
-4.7923215748031494
11
6.8029311811023616
21
-4.7832604724409444
0
LINE
8
BLACK
6
CONTINUOUS
10
6.8029311811023616
20
-4.7832604724409444
11
6.7938700787401576
21
-4.7731211023622047
0
LINE
8
BLACK
6
CONTINUOUS
10
6.7938700787401576
20
-4.7731211023622047
11
6.7860011811023622
21
-4.7620309448818894
0
LINE
8
BLACK
6
CONTINUOUS
10
6.7860011811023622
20
-4.7620309448818894
11
6.7794235039370081
21
-4.7501294881889766
0
LINE
8
BLACK
6
CONTINUOUS
10
6.7794235039370081
20
-4.7501294881889766
11
6.7742196850393697
21
-4.7375664173228342
0
LINE
8
BLACK
6
CONTINUOUS
10
6.7742196850393697
20
-4.7375664173228342
11
6.7704552362204726
21
-4.7244996456692911
0
LINE
8
BLACK
6
CONTINUOUS
10
6.7704552362204726
20
-4.7244996456692911
11
6.7681774409448821
21
-4.7110936220472439
0
LINE
8
BLACK
6
CONTINUOUS
10
6.7681774409448821
20
-4.7110936220472439
11
6.7674149999999997
21
-4.6975168110236218
0
LINE
8
BLACK
6
CONTINUOUS
10
6.7674149999999997
20
-4.6975168110236218
11
6.7681774409448821
21
-4.6839399999999998
0
LINE
8
BLACK
6
CONTINUOUS
10
6.7681774409448821
20
-4.6839399999999998
11
6.7704552362204726
21
-4.6705339763779525
0
LINE
8
BLACK
6
CONTINUOUS
10
6.7704552362204726
20
-4.6705339763779525
11
6.7742196850393697
21
-4.6574672047244094
0
LINE
8
BLACK
6
CONTINUOUS
10
6.7742196850393697
20
-4.6574672047244094
11
6.7794235039370081
21
-4.6449041338582679
0
LINE
8
BLACK
6
CONTINUOUS
10
6.7794235039370081
20
-4.6449041338582679
11
6.7860011811023622
21
-4.6330026771653543
0
LINE
8
BLACK
6
CONTINUOUS
10
6.7860011811023622
20
-4.6330026771653543
11
6.7938700787401576
21
-4.621912519685039
0
LINE
8
BLACK
6
CONTINUOUS
10
6.7938700787401576
20
-4.621912519685039
11
6.8029311811023616
21
-4.6117731496062992
0
LINE
8
BLACK
6
CONTINUOUS
10
6.8029311811023616
20
-4.6117731496062992
11
6.8130705511811023
21
-4.6027120472440943
0
LINE
8
BLACK
6
CONTINUOUS
10
6.8130705511811023
20
-4.6027120472440943
11
6.8241607086614176
21
-4.5948431496062989
0
LINE
8
BLACK
6
CONTINUOUS
10
6.8241607086614176
20
-4.5948431496062989
11
6.8360621653543303
21
-4.5882654724409448
0
LINE
8
BLACK
6
CONTINUOUS
10
6.8360621653543303
20
-4.5882654724409448
11
6.8486252362204727
21
-4.5830616535433073
0
LINE
8
BLACK
6
CONTINUOUS
10
6.8486252362204727
20
-4.5830616535433073
11
6.8616920078740158
21
-4.5792972047244094
0
LINE
8
BLACK
6
CONTINUOUS
10
6.8616920078740158
20
-4.5792972047244094
11
6.875098031496063
21
-4.5770194094488188
0
LINE
8
BLACK
6
CONTINUOUS
10
6.875098031496063
20
-4.5770194094488188
11
6.8886748425196851
21
-4.5762569685039365
0
LINE
8
BLACK
6
CONTINUOUS
10
6.8886748425196851
20
-4.5762569685039365
11
6.9022516535433072
21
-4.5770194094488188
0
LINE
8
BLACK
6
CONTINUOUS
10
5.8557775984251963
20
-4.7253216929133854
11
5.8598669685039368
21
-4.7272286220472441
0
LINE
8
BLACK
6
CONTINUOUS
10
5.8598669685039368
20
-4.7272286220472441
11
5.8630575196850394
21
-4.7304191732283467
0
LINE
8
BLACK
6
CONTINUOUS
10
5.8630575196850394
20
-4.7304191732283467
11
5.8649644488188972
21
-4.7345085433070864
0
LINE
8
BLACK
6
CONTINUOUS
10
5.8649644488188972
20
-4.7345085433070864
11
5.8654071259842517
21
-4.737871141732283
0
LINE
8
BLACK
6
CONTINUOUS
10
5.8654071259842517
20
-4.737871141732283
11
5.8654071259842517
21
-4.7673987007874015
0
LINE
8
BLACK
6
CONTINUOUS
10
5.8654071259842517
20
-4.7673987007874015
11
5.8649644488188972
21
-4.7707612992125981
0
LINE
8
BLACK
6
CONTINUOUS
10
5.8649644488188972
20
-4.7707612992125981
11
5.8630575196850394
21
-4.7748506692913386
0
LINE
8
BLACK
6
CONTINUOUS
10
5.8630575196850394
20
-4.7748506692913386
11
5.8598669685039368
21
-4.7780412204724412
0
LINE
8
BLACK
6
CONTINUOUS
10
5.8598669685039368
20
-4.7780412204724412
11
5.8557775984251963
21
-4.779948149606299
0
LINE
8
BLACK
6
CONTINUOUS
10
5.8557775984251963
20
-4.779948149606299
11
5.8524149999999997
21
-4.7803908267716535
0
LINE
8
BLACK
6
CONTINUOUS
10
5.8524149999999997
20
-4.7803908267716535
11
5.8032024015748034
21
-4.7803908267716535
0
LINE
8
BLACK
6
CONTINUOUS
10
5.8032024015748034
20
-4.7803908267716535
11
5.7998398031496059
21
-4.779948149606299
0
LINE
8
BLACK
6
CONTINUOUS
10
5.7998398031496059
20
-4.779948149606299
11
5.7957504330708662
21
-4.7780412204724412
0
LINE
8
BLACK
6
CONTINUOUS
10
5.7957504330708662
20
-4.7780412204724412
11
5.7925598818897637
21
-4.7748506692913386
0
LINE
8
BLACK
6
CONTINUOUS
10
5.7925598818897637
20
-4.7748506692913386
11
5.790652952755905
21
-4.7707612992125981
0
LINE
8
BLACK
6
CONTINUOUS
10
5.790652952755905
20
-4.7707612992125981
11
5.7902102755905513
21
-4.7673987007874015
0
LINE
8
BLACK
6
CONTINUOUS
10
5.7902102755905513
20
-4.7673987007874015
11
5.7902102755905513
21
-4.737871141732283
0
LINE
8
BLACK
6
CONTINUOUS
10
5.7902102755905513
20
-4.737871141732283
11
5.790652952755905
21
-4.7345085433070864
0
LINE
8
BLACK
6
CONTINUOUS
10
5.790652952755905
20
-4.7345085433070864
11
5.7925598818897637
21
-4.7304191732283467
0
LINE
8
BLACK
6
CONTINUOUS
10
5.7925598818897637
20
-4.7304191732283467
11
5.7957504330708662
21
-4.7272286220472441
0
LINE
8
BLACK
6
CONTINUOUS
10
5.7957504330708662
20
-4.7272286220472441
11
5.7998398031496059
21
-4.7253216929133854
0
LINE
8
BLACK
6
CONTINUOUS
10
5.7998398031496059
20
-4.7253216929133854
11
5.8032024015748034
21
-4.7248790157480318
0
LINE
8
BLACK
6
CONTINUOUS
10
5.8032024015748034
20
-4.7248790157480318
11
5.8524149999999997
21
-4.7248790157480318
0
LINE
8
BLACK
6
CONTINUOUS
10
5.8524149999999997
20
-4.7248790157480318
11
5.8557775984251963
21
-4.7253216929133854
0
LINE
8
BLACK
6
CONTINUOUS
10
6.0526279921259842
20
-4.7253216929133854
11
6.0567173622047239
21
-4.7272286220472441
0
LINE
8
BLACK
6
CONTINUOUS
10
6.0567173622047239
20
-4.7272286220472441
11
6.0599079133858265
21
-4.7304191732283467
0
LINE
8
BLACK
6
CONTINUOUS
10
6.0599079133858265
20
-4.7304191732283467
11
6.0618148425196852
21
-4.7345085433070864
0
LINE
8
BLACK
6
CONTINUOUS
10
6.0618148425196852
20
-4.7345085433070864
11
6.0622575196850397
21
-4.737871141732283
0
LINE
8
BLACK
6
CONTINUOUS
10
6.0622575196850397
20
-4.737871141732283
11
6.0622575196850397
21
-4.7673987007874015
0
LINE
8
BLACK
6
CONTINUOUS
10
6.0622575196850397
20
-4.7673987007874015
11
6.0618148425196852
21
-4.7707612992125981
0
LINE
8
BLACK
6
CONTINUOUS
10
6.0618148425196852
20
-4.7707612992125981
11
6.0599079133858265
21
-4.7748506692913386
0
LINE
8
BLACK
6
CONTINUOUS
10
6.0599079133858265
20
-4.7748506692913386
11
6.0567173622047239
21
-4.7780412204724412
0
LINE
8
BLACK
6
CONTINUOUS
10
6.0567173622047239
20
-4.7780412204724412
11
6.0526279921259842
21
-4.779948149606299
0
LINE
8
BLACK
6
CONTINUOUS
10
6.0526279921259842
20
-4.779948149606299
11
6.0492653937007876
21
-4.7803908267716535
0
LINE
8
BLACK
6
CONTINUOUS
10
6.0492653937007876
20
-4.7803908267716535
11
6.0000527952755904
21
-4.7803908267716535
0
LINE
8
BLACK
6
CONTINUOUS
10
6.0000527952755904
20
-4.7803908267716535
11
5.9966901968503938
21
-4.779948149606299
0
LINE
8
BLACK
6
CONTINUOUS
10
5.9966901968503938
20
-4.779948149606299
11
5.9926008267716533
21
-4.7780412204724412
0
LINE
8
BLACK
6
CONTINUOUS
10
5.9926008267716533
20
-4.7780412204724412
11
5.9894102755905507
21
-4.7748506692913386
0
LINE
8
BLACK
6
CONTINUOUS
10
5.9894102755905507
20
-4.7748506692913386
11
5.9875033464566929
21
-4.7707612992125981
0
LINE
8
BLACK
6
CONTINUOUS
10
5.9875033464566929
20
-4.7707612992125981
11
5.9870606692913384
21
-4.7673987007874015
0
LINE
8
BLACK
6
CONTINUOUS
10
5.9870606692913384
20
-4.7673987007874015
11
5.9870606692913384
21
-4.737871141732283
0
LINE
8
BLACK
6
CONTINUOUS
10
5.9870606692913384
20
-4.737871141732283
11
5.9875033464566929
21
-4.7345085433070864
0
LINE
8
BLACK
6
CONTINUOUS
10
5.9875033464566929
20
-4.7345085433070864
11
5.9894102755905507
21
-4.7304191732283467
0
LINE
8
BLACK
6
CONTINUOUS
10
5.9894102755905507
20
-4.7304191732283467
11
5.9926008267716533
21
-4.7272286220472441
0
LINE
8
BLACK
6
CONTINUOUS
10
5.9926008267716533
20
-4.7272286220472441
11
5.9966901968503938
21
-4.7253216929133854
0
LINE
8
BLACK
6
CONTINUOUS
10
5.9966901968503938
20
-4.7253216929133854
11
6.0000527952755904
21
-4.7248790157480318
0
LINE
8
BLACK
6
CONTINUOUS
10
6.0000527952755904
20
-4.7248790157480318
11
6.0492653937007876
21
-4.7248790157480318
0
LINE
8
BLACK
6
CONTINUOUS
10
6.0492653937007876
20
-4.7248790157480318
11
6.0526279921259842
21
-4.7253216929133854
0
LINE
8
BLACK
6
CONTINUOUS
10
6.2494783858267713
20
-4.7253216929133854
11
6.2535677559055118
21
-4.7272286220472441
0
LINE
8
BLACK
6
CONTINUOUS
10
6.2535677559055118
20
-4.7272286220472441
11
6.2567583070866144
21
-4.7304191732283467
0
LINE
8
BLACK
6
CONTINUOUS
10
6.2567583070866144
20
-4.7304191732283467
11
6.2586652362204722
21
-4.7345085433070864
0
LINE
8
BLACK
6
CONTINUOUS
10
6.2586652362204722
20
-4.7345085433070864
11
6.2591079133858267
21
-4.737871141732283
0
LINE
8
BLACK
6
CONTINUOUS
10
6.2591079133858267
20
-4.737871141732283
11
6.2591079133858267
21
-4.7673987007874015
0
LINE
8
BLACK
6
CONTINUOUS
10
6.2591079133858267
20
-4.7673987007874015
11
6.2586652362204722
21
-4.7707612992125981
0
LINE
8
BLACK
6
CONTINUOUS
10
6.2586652362204722
20
-4.7707612992125981
11
6.2567583070866144
21
-4.7748506692913386
0
LINE
8
BLACK
6
CONTINUOUS
10
6.2567583070866144
20
-4.7748506692913386
11
6.2535677559055118
21
-4.7780412204724412
0
LINE
8
BLACK
6
CONTINUOUS
10
6.2535677559055118
20
-4.7780412204724412
11
6.2494783858267713
21
-4.779948149606299
0
LINE
8
BLACK
6
CONTINUOUS
10
6.2494783858267713
20
-4.779948149606299
11
6.2461157874015747
21
-4.7803908267716535
0
LINE
8
BLACK
6
CONTINUOUS
10
6.2461157874015747
20
-4.7803908267716535
11
6.1969031889763775
21
-4.7803908267716535
0
LINE
8
BLACK
6
CONTINUOUS
10
6.1969031889763775
20
-4.7803908267716535
11
6.1935405905511809
21
-4.779948149606299
0
LINE
8
BLACK
6
CONTINUOUS
10
6.1935405905511809
20
-4.779948149606299
11
6.1894512204724412
21
-4.7780412204724412
0
LINE
8
BLACK
6
CONTINUOUS
10
6.1894512204724412
20
-4.7780412204724412
11
6.1862606692913387
21
-4.7748506692913386
0
LINE
8
BLACK
6
CONTINUOUS
10
6.1862606692913387
20
-4.7748506692913386
11
6.18435374015748
21
-4.7707612992125981
0
LINE
8
BLACK
6
CONTINUOUS
10
6.18435374015748
20
-4.7707612992125981
11
6.1839110629921255
21
-4.7673987007874015
0
LINE
8
BLACK
6
CONTINUOUS
10
6.1839110629921255
20
-4.7673987007874015
11
6.1839110629921255
21
-4.737871141732283
0
LINE
8
BLACK
6
CONTINUOUS
10
6.1839110629921255
20
-4.737871141732283
11
6.18435374015748
21
-4.7345085433070864
0
LINE
8
BLACK
6
CONTINUOUS
10
6.18435374015748
20
-4.7345085433070864
11
6.1862606692913387
21
-4.7304191732283467
0
LINE
8
BLACK
6
CONTINUOUS
10
6.1862606692913387
20
-4.7304191732283467
11
6.1894512204724412
21
-4.7272286220472441
0
LINE
8
BLACK
6
CONTINUOUS
10
6.1894512204724412
20
-4.7272286220472441
11
6.1935405905511809
21
-4.7253216929133854
0
LINE
8
BLACK
6
CONTINUOUS
10
6.1935405905511809
20
-4.7253216929133854
11
6.1969031889763775
21
-4.7248790157480318
0
LINE
8
BLACK
6
CONTINUOUS
10
6.1969031889763775
20
-4.7248790157480318
11
6.2461157874015747
21
-4.7248790157480318
0
LINE
8
BLACK
6
CONTINUOUS
10
6.2461157874015747
20
-4.7248790157480318
11
6.2494783858267713
21
-4.7253216929133854
0
LINE
8
BLACK
6
CONTINUOUS
10
6.4463287795275592
20
-4.7253216929133854
11
6.4504181496062989
21
-4.7272286220472441
0
LINE
8
BLACK
6
CONTINUOUS
10
6.4504181496062989
20
-4.7272286220472441
11
6.4536087007874015
21
-4.7304191732283467
0
LINE
8
BLACK
6
CONTINUOUS
10
6.4536087007874015
20
-4.7304191732283467
11
6.4555156299212593
21
-4.7345085433070864
0
LINE
8
BLACK
6
CONTINUOUS
10
6.4555156299212593
20
-4.7345085433070864
11
6.4559583070866138
21
-4.737871141732283
0
LINE
8
BLACK
6
CONTINUOUS
10
6.4559583070866138
20
-4.737871141732283
11
6.4559583070866138
21
-4.7673987007874015
0
LINE
8
BLACK
6
CONTINUOUS
10
6.4559583070866138
20
-4.7673987007874015
11
6.4555156299212593
21
-4.7707612992125981
0
LINE
8
BLACK
6
CONTINUOUS
10
6.4555156299212593
20
-4.7707612992125981
11
6.4536087007874015
21
-4.7748506692913386
0
LINE
8
BLACK
6
CONTINUOUS
10
6.4536087007874015
20
-4.7748506692913386
11
6.4504181496062989
21
-4.7780412204724412
0
LINE
8
BLACK
6
CONTINUOUS
10
6.4504181496062989
20
-4.7780412204724412
11
6.4463287795275592
21
-4.779948149606299
0
LINE
8
BLACK
6
CONTINUOUS
10
6.4463287795275592
20
-4.779948149606299
11
6.4429661811023617
21
-4.7803908267716535
0
LINE
8
BLACK
6
CONTINUOUS
10
6.4429661811023617
20
-4.7803908267716535
11
6.3937535826771654
21
-4.7803908267716535
0
LINE
8
BLACK
6
CONTINUOUS
10
6.3937535826771654
20
-4.7803908267716535
11
6.3903909842519679
21
-4.779948149606299
0
LINE
8
BLACK
6
CONTINUOUS
10
6.3903909842519679
20
-4.779948149606299
11
6.3863016141732283
21
-4.7780412204724412
0
LINE
8
BLACK
6
CONTINUOUS
10
6.3863016141732283
20
-4.7780412204724412
11
6.3831110629921257
21
-4.7748506692913386
0
LINE
8
BLACK
6
CONTINUOUS
10
6.3831110629921257
20
-4.7748506692913386
11
6.3812041338582679
21
-4.7707612992125981
0
LINE
8
BLACK
6
CONTINUOUS
10
6.3812041338582679
20
-4.7707612992125981
11
6.3807614566929134
21
-4.7673987007874015
0
LINE
8
BLACK
6
CONTINUOUS
10
6.3807614566929134
20
-4.7673987007874015
11
6.3807614566929134
21
-4.737871141732283
0
LINE
8
BLACK
6
CONTINUOUS
10
6.3807614566929134
20
-4.737871141732283
11
6.3812041338582679
21
-4.7345085433070864
0
LINE
8
BLACK
6
CONTINUOUS
10
6.3812041338582679
20
-4.7345085433070864
11
6.3831110629921257
21
-4.7304191732283467
0
LINE
8
BLACK
6
CONTINUOUS
10
6.3831110629921257
20
-4.7304191732283467
11
6.3863016141732283
21
-4.7272286220472441
0
LINE
8
BLACK
6
CONTINUOUS
10
6.3863016141732283
20
-4.7272286220472441
11
6.3903909842519679
21
-4.7253216929133854
0
LINE
8
BLACK
6
CONTINUOUS
10
6.3903909842519679
20
-4.7253216929133854
11
6.3937535826771654
21
-4.7248790157480318
0
LINE
8
BLACK
6
CONTINUOUS
10
6.3937535826771654
20
-4.7248790157480318
11
6.4429661811023617
21
-4.7248790157480318
0
LINE
8
BLACK
6
CONTINUOUS
10
6.4429661811023617
20
-4.7248790157480318
11
6.4463287795275592
21
-4.7253216929133854
0
LINE
8
BLACK
6
CONTINUOUS
10
6.6431791732283463
20
-4.7253216929133854
11
6.6472685433070868
21
-4.7272286220472441
0
LINE
8
BLACK
6
CONTINUOUS
10
6.6472685433070868
20
-4.7272286220472441
11
6.6504590944881885
21
-4.7304191732283467
0
LINE
8
BLACK
6
CONTINUOUS
10
6.6504590944881885
20
-4.7304191732283467
11
6.6523660236220472
21
-4.7345085433070864
0
LINE
8
BLACK
6
CONTINUOUS
10
6.6523660236220472
20
-4.7345085433070864
11
6.6528087007874017
21
-4.737871141732283
0
LINE
8
BLACK
6
CONTINUOUS
10
6.6528087007874017
20
-4.737871141732283
11
6.6528087007874017
21
-4.7673987007874015
0
LINE
8
BLACK
6
CONTINUOUS
10
6.6528087007874017
20
-4.7673987007874015
11
6.6523660236220472
21
-4.7707612992125981
0
LINE
8
BLACK
6
CONTINUOUS
10
6.6523660236220472
20
-4.7707612992125981
11
6.6504590944881885
21
-4.7748506692913386
0
LINE
8
BLACK
6
CONTINUOUS
10
6.6504590944881885
20
-4.7748506692913386
11
6.6472685433070868
21
-4.7780412204724412
0
LINE
8
BLACK
6
CONTINUOUS
10
6.6472685433070868
20
-4.7780412204724412
11
6.6431791732283463
21
-4.779948149606299
0
LINE
8
BLACK
6
CONTINUOUS
10
6.6431791732283463
20
-4.779948149606299
11
6.6398165748031497
21
-4.7803908267716535
0
LINE
8
BLACK
6
CONTINUOUS
10
6.6398165748031497
20
-4.7803908267716535
11
6.5906039763779525
21
-4.7803908267716535
0
LINE
8
BLACK
6
CONTINUOUS
10
6.5906039763779525
20
-4.7803908267716535
11
6.5872413779527559
21
-4.779948149606299
0
LINE
8
BLACK
6
CONTINUOUS
10
6.5872413779527559
20
-4.779948149606299
11
6.5831520078740153
21
-4.7780412204724412
0
LINE
8
BLACK
6
CONTINUOUS
10
6.5831520078740153
20
-4.7780412204724412
11
6.5799614566929137
21
-4.7748506692913386
0
LINE
8
BLACK
6
CONTINUOUS
10
6.5799614566929137
20
-4.7748506692913386
11
6.578054527559055
21
-4.7707612992125981
0
LINE
8
BLACK
6
CONTINUOUS
10
6.578054527559055
20
-4.7707612992125981
11
6.5776118503937004
21
-4.7673987007874015
0
LINE
8
BLACK
6
CONTINUOUS
10
6.5776118503937004
20
-4.7673987007874015
11
6.5776118503937004
21
-4.737871141732283
0
LINE
8
BLACK
6
CONTINUOUS
10
6.5776118503937004
20
-4.737871141732283
11
6.578054527559055
21
-4.7345085433070864
0
LINE
8
BLACK
6
CONTINUOUS
10
6.578054527559055
20
-4.7345085433070864
11
6.5799614566929137
21
-4.7304191732283467
0
LINE
8
BLACK
6
CONTINUOUS
10
6.5799614566929137
20
-4.7304191732283467
11
6.5831520078740153
21
-4.7272286220472441
0
LINE
8
BLACK
6
CONTINUOUS
10
6.5831520078740153
20
-4.7272286220472441
11
6.5872413779527559
21
-4.7253216929133854
0
LINE
8
BLACK
6
CONTINUOUS
10
6.5872413779527559
20
-4.7253216929133854
11
6.5906039763779525
21
-4.7248790157480318
0
LINE
8
BLACK
6
CONTINUOUS
10
6.5906039763779525
20
-4.7248790157480318
11
6.6398165748031497
21
-4.7248790157480318
0
LINE
8
BLACK
6
CONTINUOUS
10
6.6398165748031497
20
-4.7248790157480318
11
6.6431791732283463
21
-4.7253216929133854
0
LINE
8
BLACK
6
CONTINUOUS
10
7.2287201968503938
20
-4.7306790944881891
11
7.2331651181102359
21
-4.7329438976377949
0
LINE
8
BLACK
6
CONTINUOUS
10
7.2331651181102359
20
-4.7329438976377949
11
7.2366926377952758
21
-4.7364714173228348
0
LINE
8
BLACK
6
CONTINUOUS
10
7.2366926377952758
20
-4.7364714173228348
11
7.2389574409448816
21
-4.7409163385826769
0
LINE
8
BLACK
6
CONTINUOUS
10
7.2389574409448816
20
-4.7409163385826769
11
7.2397378346456689
21
-4.745843582677165
0
LINE
8
BLACK
6
CONTINUOUS
10
7.2397378346456689
20
-4.745843582677165
11
7.2389574409448816
21
-4.7507708267716531
0
LINE
8
BLACK
6
CONTINUOUS
10
7.2389574409448816
20
-4.7507708267716531
11
7.2366926377952758
21
-4.755215748031496
0
LINE
8
BLACK
6
CONTINUOUS
10
7.2366926377952758
20
-4.755215748031496
11
7.2331651181102359
21
-4.7587432677165351
0
LINE
8
BLACK
6
CONTINUOUS
10
7.2331651181102359
20
-4.7587432677165351
11
7.2287201968503938
21
-4.7610080708661418
0
LINE
8
BLACK
6
CONTINUOUS
10
7.2287201968503938
20
-4.7610080708661418
11
7.2237929527559057
21
-4.7617884645669291
0
LINE
8
BLACK
6
CONTINUOUS
10
7.2237929527559057
20
-4.7617884645669291
11
7.2188657086614167
21
-4.7610080708661418
0
LINE
8
BLACK
6
CONTINUOUS
10
7.2188657086614167
20
-4.7610080708661418
11
7.2144207874015747
21
-4.7587432677165351
0
LINE
8
BLACK
6
CONTINUOUS
10
7.2144207874015747
20
-4.7587432677165351
11
7.2108932677165356
21
-4.755215748031496
0
LINE
8
BLACK
6
CONTINUOUS
10
7.2108932677165356
20
-4.755215748031496
11
7.208628464566929
21
-4.7507708267716531
0
LINE
8
BLACK
6
CONTINUOUS
10
7.208628464566929
20
-4.7507708267716531
11
7.2078480708661417
21
-4.745843582677165
0
LINE
8
BLACK
6
CONTINUOUS
10
7.2078480708661417
20
-4.745843582677165
11
7.208628464566929
21
-4.7409163385826769
0
LINE
8
BLACK
6
CONTINUOUS
10
7.208628464566929
20
-4.7409163385826769
11
7.2108932677165356
21
-4.7364714173228348
0
LINE
8
BLACK
6
CONTINUOUS
10
7.2108932677165356
20
-4.7364714173228348
11
7.2144207874015747
21
-4.7329438976377949
0
LINE
8
BLACK
6
CONTINUOUS
10
7.2144207874015747
20
-4.7329438976377949
11
7.2188657086614167
21
-4.7306790944881891
0
LINE
8
BLACK
6
CONTINUOUS
10
7.2188657086614167
20
-4.7306790944881891
11
7.2237929527559057
21
-4.7298987007874018
0
LINE
8
BLACK
6
CONTINUOUS
10
7.2237929527559057
20
-4.7298987007874018
11
7.2287201968503938
21
-4.7306790944881891
0
LINE
8
BLACK
6
CONTINUOUS
10
5.8557775984251963
20
-4.6150854724409447
11
5.8598669685039368
21
-4.6169924015748034
0
LINE
8
BLACK
6
CONTINUOUS
10
5.8598669685039368
20
-4.6169924015748034
11
5.8630575196850394
21
-4.6201829527559051
0
LINE
8
BLACK
6
CONTINUOUS
10
5.8630575196850394
20
-4.6201829527559051
11
5.8649644488188972
21
-4.6242723228346456
0
LINE
8
BLACK
6
CONTINUOUS
10
5.8649644488188972
20
-4.6242723228346456
11
5.8654071259842517
21
-4.6276349212598422
0
LINE
8
BLACK
6
CONTINUOUS
10
5.8654071259842517
20
-4.6276349212598422
11
5.8654071259842517
21
-4.6571624803149607
0
LINE
8
BLACK
6
CONTINUOUS
10
5.8654071259842517
20
-4.6571624803149607
11
5.8649644488188972
21
-4.6605250787401573
0
LINE
8
BLACK
6
CONTINUOUS
10
5.8649644488188972
20
-4.6605250787401573
11
5.8630575196850394
21
-4.6646144488188979
0
LINE
8
BLACK
6
CONTINUOUS
10
5.8630575196850394
20
-4.6646144488188979
11
5.8598669685039368
21
-4.6678049999999995
0
LINE
8
BLACK
6
CONTINUOUS
10
5.8598669685039368
20
-4.6678049999999995
11
5.8557775984251963
21
-4.6697119291338582
0
LINE
8
BLACK
6
CONTINUOUS
10
5.8557775984251963
20
-4.6697119291338582
11
5.8524149999999997
21
-4.6701546062992128
0
LINE
8
BLACK
6
CONTINUOUS
10
5.8524149999999997
20
-4.6701546062992128
11
5.8032024015748034
21
-4.6701546062992128
0
LINE
8
BLACK
6
CONTINUOUS
10
5.8032024015748034
20
-4.6701546062992128
11
5.7998398031496059
21
-4.6697119291338582
0
LINE
8
BLACK
6
CONTINUOUS
10
5.7998398031496059
20
-4.6697119291338582
11
5.7957504330708662
21
-4.6678049999999995
0
LINE
8
BLACK
6
CONTINUOUS
10
5.7957504330708662
20
-4.6678049999999995
11
5.7925598818897637
21
-4.6646144488188979
0
LINE
8
BLACK
6
CONTINUOUS
10
5.7925598818897637
20
-4.6646144488188979
11
5.790652952755905
21
-4.6605250787401573
0
LINE
8
BLACK
6
CONTINUOUS
10
5.790652952755905
20
-4.6605250787401573
11
5.7902102755905513
21
-4.6571624803149607
0
LINE
8
BLACK
6
CONTINUOUS
10
5.7902102755905513
20
-4.6571624803149607
11
5.7902102755905513
21
-4.6276349212598422
0
LINE
8
BLACK
6
CONTINUOUS
10
5.7902102755905513
20
-4.6276349212598422
11
5.790652952755905
21
-4.6242723228346456
0
LINE
8
BLACK
6
CONTINUOUS
10
5.790652952755905
20
-4.6242723228346456
11
5.7925598818897637
21
-4.6201829527559051
0
LINE
8
BLACK
6
CONTINUOUS
10
5.7925598818897637
20
-4.6201829527559051
11
5.7957504330708662
21
-4.6169924015748034
0
LINE
8
BLACK
6
CONTINUOUS
10
5.7957504330708662
20
-4.6169924015748034
11
5.7998398031496059
21
-4.6150854724409447
0
LINE
8
BLACK
6
CONTINUOUS
10
5.7998398031496059
20
-4.6150854724409447
11
5.8032024015748034
21
-4.6146427952755902
0
LINE
8
BLACK
6
CONTINUOUS
10
5.8032024015748034
20
-4.6146427952755902
11
5.8524149999999997
21
-4.6146427952755902
0
LINE
8
BLACK
6
CONTINUOUS
10
5.8524149999999997
20
-4.6146427952755902
11
5.8557775984251963
21
-4.6150854724409447
0
LINE
8
BLACK
6
CONTINUOUS
10
6.0526279921259842
20
-4.6150854724409447
11
6.0567173622047239
21
-4.6169924015748034
0
LINE
8
BLACK
6
CONTINUOUS
10
6.0567173622047239
20
-4.6169924015748034
11
6.0599079133858265
21
-4.6201829527559051
0
LINE
8
BLACK
6
CONTINUOUS
10
6.0599079133858265
20
-4.6201829527559051
11
6.0618148425196852
21
-4.6242723228346456
0
LINE
8
BLACK
6
CONTINUOUS
10
6.0618148425196852
20
-4.6242723228346456
11
6.0622575196850397
21
-4.6276349212598422
0
LINE
8
BLACK
6
CONTINUOUS
10
6.0622575196850397
20
-4.6276349212598422
11
6.0622575196850397
21
-4.6571624803149607
0
LINE
8
BLACK
6
CONTINUOUS
10
6.0622575196850397
20
-4.6571624803149607
11
6.0618148425196852
21
-4.6605250787401573
0
LINE
8
BLACK
6
CONTINUOUS
10
6.0618148425196852
20
-4.6605250787401573
11
6.0599079133858265
21
-4.6646144488188979
0
LINE
8
BLACK
6
CONTINUOUS
10
6.0599079133858265
20
-4.6646144488188979
11
6.0567173622047239
21
-4.6678049999999995
0
LINE
8
BLACK
6
CONTINUOUS
10
6.0567173622047239
20
-4.6678049999999995
11
6.0526279921259842
21
-4.6697119291338582
0
LINE
8
BLACK
6
CONTINUOUS
10
6.0526279921259842
20
-4.6697119291338582
11
6.0492653937007876
21
-4.6701546062992128
0
LINE
8
BLACK
6
CONTINUOUS
10
6.0492653937007876
20
-4.6701546062992128
11
6.0000527952755904
21
-4.6701546062992128
0
LINE
8
BLACK
6
CONTINUOUS
10
6.0000527952755904
20
-4.6701546062992128
11
5.9966901968503938
21
-4.6697119291338582
0
LINE
8
BLACK
6
CONTINUOUS
10
5.9966901968503938
20
-4.6697119291338582
11
5.9926008267716533
21
-4.6678049999999995
0
LINE
8
BLACK
6
CONTINUOUS
10
5.9926008267716533
20
-4.6678049999999995
11
5.9894102755905507
21
-4.6646144488188979
0
LINE
8
BLACK
6
CONTINUOUS
10
5.9894102755905507
20
-4.6646144488188979
11
5.9875033464566929
21
-4.6605250787401573
0
LINE
8
BLACK
6
CONTINUOUS
10
5.9875033464566929
20
-4.6605250787401573
11
5.9870606692913384
21
-4.6571624803149607
0
LINE
8
BLACK
6
CONTINUOUS
10
5.9870606692913384
20
-4.6571624803149607
11
5.9870606692913384
21
-4.6276349212598422
0
LINE
8
BLACK
6
CONTINUOUS
10
5.9870606692913384
20
-4.6276349212598422
11
5.9875033464566929
21
-4.6242723228346456
0
LINE
8
BLACK
6
CONTINUOUS
10
5.9875033464566929
20
-4.6242723228346456
11
5.9894102755905507
21
-4.6201829527559051
0
LINE
8
BLACK
6
CONTINUOUS
10
5.9894102755905507
20
-4.6201829527559051
11
5.9926008267716533
21
-4.6169924015748034
0
LINE
8
BLACK
6
CONTINUOUS
10
5.9926008267716533
20
-4.6169924015748034
11
5.9966901968503938
21
-4.6150854724409447
0
LINE
8
BLACK
6
CONTINUOUS
10
5.9966901968503938
20
-4.6150854724409447
11
6.0000527952755904
21
-4.6146427952755902
0
LINE
8
BLACK
6
CONTINUOUS
10
6.0000527952755904
20
-4.6146427952755902
11
6.0492653937007876
21
-4.6146427952755902
0
LINE
8
BLACK
6
CONTINUOUS
10
6.0492653937007876
20
-4.6146427952755902
11
6.0526279921259842
21
-4.6150854724409447
0
LINE
8
BLACK
6
CONTINUOUS
10
6.2494783858267713
20
-4.6150854724409447
11
6.2535677559055118
21
-4.6169924015748034
0
LINE
8
BLACK
6
CONTINUOUS
10
6.2535677559055118
20
-4.6169924015748034
11
6.2567583070866144
21
-4.6201829527559051
0
LINE
8
BLACK
6
CONTINUOUS
10
6.2567583070866144
20
-4.6201829527559051
11
6.2586652362204722
21
-4.6242723228346456
0
LINE
8
BLACK
6
CONTINUOUS
10
6.2586652362204722
20
-4.6242723228346456
11
6.2591079133858267
21
-4.6276349212598422
0
LINE
8
BLACK
6
CONTINUOUS
10
6.2591079133858267
20
-4.6276349212598422
11
6.2591079133858267
21
-4.6571624803149607
0
LINE
8
BLACK
6
CONTINUOUS
10
6.2591079133858267
20
-4.6571624803149607
11
6.2586652362204722
21
-4.6605250787401573
0
LINE
8
BLACK
6
CONTINUOUS
10
6.2586652362204722
20
-4.6605250787401573
11
6.2567583070866144
21
-4.6646144488188979
0
LINE
8
BLACK
6
CONTINUOUS
10
6.2567583070866144
20
-4.6646144488188979
11
6.2535677559055118
21
-4.6678049999999995
0
LINE
8
BLACK
6
CONTINUOUS
10
6.2535677559055118
20
-4.6678049999999995
11
6.2494783858267713
21
-4.6697119291338582
0
LINE
8
BLACK
6
CONTINUOUS
10
6.2494783858267713
20
-4.6697119291338582
11
6.2461157874015747
21
-4.6701546062992128
0
LINE
8
BLACK
6
CONTINUOUS
10
6.2461157874015747
20
-4.6701546062992128
11
6.1969031889763775
21
-4.6701546062992128
0
LINE
8
BLACK
6
CONTINUOUS
10
6.1969031889763775
20
-4.6701546062992128
11
6.1935405905511809
21
-4.6697119291338582
0
LINE
8
BLACK
6
CONTINUOUS
10
6.1935405905511809
20
-4.6697119291338582
11
6.1894512204724412
21
-4.6678049999999995
0
LINE
8
BLACK
6
CONTINUOUS
10
6.1894512204724412
20
-4.6678049999999995
11
6.1862606692913387
21
-4.6646144488188979
0
LINE
8
BLACK
6
CONTINUOUS
10
6.1862606692913387
20
-4.6646144488188979
11
6.18435374015748
21
-4.6605250787401573
0
LINE
8
BLACK
6
CONTINUOUS
10
6.18435374015748
20
-4.6605250787401573
11
6.1839110629921255
21
-4.6571624803149607
0
LINE
8
BLACK
6
CONTINUOUS
10
6.1839110629921255
20
-4.6571624803149607
11
6.1839110629921255
21
-4.6276349212598422
0
LINE
8
BLACK
6
CONTINUOUS
10
6.1839110629921255
20
-4.6276349212598422
11
6.18435374015748
21
-4.6242723228346456
0
LINE
8
BLACK
6
CONTINUOUS
10
6.18435374015748
20
-4.6242723228346456
11
6.1862606692913387
21
-4.6201829527559051
0
LINE
8
BLACK
6
CONTINUOUS
10
6.1862606692913387
20
-4.6201829527559051
11
6.1894512204724412
21
-4.6169924015748034
0
LINE
8
BLACK
6
CONTINUOUS
10
6.1894512204724412
20
-4.6169924015748034
11
6.1935405905511809
21
-4.6150854724409447
0
LINE
8
BLACK
6
CONTINUOUS
10
6.1935405905511809
20
-4.6150854724409447
11
6.1969031889763775
21
-4.6146427952755902
0
LINE
8
BLACK
6
CONTINUOUS
10
6.1969031889763775
20
-4.6146427952755902
11
6.2461157874015747
21
-4.6146427952755902
0
LINE
8
BLACK
6
CONTINUOUS
10
6.2461157874015747
20
-4.6146427952755902
11
6.2494783858267713
21
-4.6150854724409447
0
LINE
8
BLACK
6
CONTINUOUS
10
6.4463287795275592
20
-4.6150854724409447
11
6.4504181496062989
21
-4.6169924015748034
0
LINE
8
BLACK
6
CONTINUOUS
10
6.4504181496062989
20
-4.6169924015748034
11
6.4536087007874015
21
-4.6201829527559051
0
LINE
8
BLACK
6
CONTINUOUS
10
6.4536087007874015
20
-4.6201829527559051
11
6.4555156299212593
21
-4.6242723228346456
0
LINE
8
BLACK
6
CONTINUOUS
10
6.4555156299212593
20
-4.6242723228346456
11
6.4559583070866138
21
-4.6276349212598422
0
LINE
8
BLACK
6
CONTINUOUS
10
6.4559583070866138
20
-4.6276349212598422
11
6.4559583070866138
21
-4.6571624803149607
0
LINE
8
BLACK
6
CONTINUOUS
10
6.4559583070866138
20
-4.6571624803149607
11
6.4555156299212593
21
-4.6605250787401573
0
LINE
8
BLACK
6
CONTINUOUS
10
6.4555156299212593
20
-4.6605250787401573
11
6.4536087007874015
21
-4.6646144488188979
0
LINE
8
BLACK
6
CONTINUOUS
10
6.4536087007874015
20
-4.6646144488188979
11
6.4504181496062989
21
-4.6678049999999995
0
LINE
8
BLACK
6
CONTINUOUS
10
6.4504181496062989
20
-4.6678049999999995
11
6.4463287795275592
21
-4.6697119291338582
0
LINE
8
BLACK
6
CONTINUOUS
10
6.4463287795275592
20
-4.6697119291338582
11
6.4429661811023617
21
-4.6701546062992128
0
LINE
8
BLACK
6
CONTINUOUS
10
6.4429661811023617
20
-4.6701546062992128
11
6.3937535826771654
21
-4.6701546062992128
0
LINE
8
BLACK
6
CONTINUOUS
10
6.3937535826771654
20
-4.6701546062992128
11
6.3903909842519679
21
-4.6697119291338582
0
LINE
8
BLACK
6
CONTINUOUS
10
6.3903909842519679
20
-4.6697119291338582
11
6.3863016141732283
21
-4.6678049999999995
0
LINE
8
BLACK
6
CONTINUOUS
10
6.3863016141732283
20
-4.6678049999999995
11
6.3831110629921257
21
-4.6646144488188979
0
LINE
8
BLACK
6
CONTINUOUS
10
6.3831110629921257
20
-4.6646144488188979
11
6.3812041338582679
21
-4.6605250787401573
0
LINE
8
BLACK
6
CONTINUOUS
10
6.3812041338582679
20
-4.6605250787401573
11
6.3807614566929134
21
-4.6571624803149607
0
LINE
8
BLACK
6
CONTINUOUS
10
6.3807614566929134
20
-4.6571624803149607
11
6.3807614566929134
21
-4.6276349212598422
0
LINE
8
BLACK
6
CONTINUOUS
10
6.3807614566929134
20
-4.6276349212598422
11
6.3812041338582679
21
-4.6242723228346456
0
LINE
8
BLACK
6
CONTINUOUS
10
6.3812041338582679
20
-4.6242723228346456
11
6.3831110629921257
21
-4.6201829527559051
0
LINE
8
BLACK
6
CONTINUOUS
10
6.3831110629921257
20
-4.6201829527559051
11
6.3863016141732283
21
-4.6169924015748034
0
LINE
8
BLACK
6
CONTINUOUS
10
6.3863016141732283
20
-4.6169924015748034
11
6.3903909842519679
21
-4.6150854724409447
0
LINE
8
BLACK
6
CONTINUOUS
10
6.3903909842519679
20
-4.6150854724409447
11
6.3937535826771654
21
-4.6146427952755902
0
LINE
8
BLACK
6
CONTINUOUS
10
6.3937535826771654
20
-4.6146427952755902
11
6.4429661811023617
21
-4.6146427952755902
0
LINE
8
BLACK
6
CONTINUOUS
10
6.4429661811023617
20
-4.6146427952755902
11
6.4463287795275592
21
-4.6150854724409447
0
LINE
8
BLACK
6
CONTINUOUS
10
6.6431791732283463
20
-4.6150854724409447
11
6.6472685433070868
21
-4.6169924015748034
0
LINE
8
BLACK
6
CONTINUOUS
10
6.6472685433070868
20
-4.6169924015748034
11
6.6504590944881885
21
-4.6201829527559051
0
LINE
8
BLACK
6
CONTINUOUS
10
6.6504590944881885
20
-4.6201829527559051
11
6.6523660236220472
21
-4.6242723228346456
0
LINE
8
BLACK
6
CONTINUOUS
10
6.6523660236220472
20
-4.6242723228346456
11
6.6528087007874017
21
-4.6276349212598422
0
LINE
8
BLACK
6
CONTINUOUS
10
6.6528087007874017
20
-4.6276349212598422
11
6.6528087007874017
21
-4.6571624803149607
0
LINE
8
BLACK
6
CONTINUOUS
10
6.6528087007874017
20
-4.6571624803149607
11
6.6523660236220472
21
-4.6605250787401573
0
LINE
8
BLACK
6
CONTINUOUS
10
6.6523660236220472
20
-4.6605250787401573
11
6.6504590944881885
21
-4.6646144488188979
0
LINE
8
BLACK
6
CONTINUOUS
10
6.6504590944881885
20
-4.6646144488188979
11
6.6472685433070868
21
-4.6678049999999995
0
LINE
8
BLACK
6
CONTINUOUS
10
6.6472685433070868
20
-4.6678049999999995
11
6.6431791732283463
21
-4.6697119291338582
0
LINE
8
BLACK
6
CONTINUOUS
10
6.6431791732283463
20
-4.6697119291338582
11
6.6398165748031497
21
-4.6701546062992128
0
LINE
8
BLACK
6
CONTINUOUS
10
6.6398165748031497
20
-4.6701546062992128
11
6.5906039763779525
21
-4.6701546062992128
0
LINE
8
BLACK
6
CONTINUOUS
10
6.5906039763779525
20
-4.6701546062992128
11
6.5872413779527559
21
-4.6697119291338582
0
LINE
8
BLACK
6
CONTINUOUS
10
6.5872413779527559
20
-4.6697119291338582
11
6.5831520078740153
21
-4.6678049999999995
0
LINE
8
BLACK
6
CONTINUOUS
10
6.5831520078740153
20
-4.6678049999999995
11
6.5799614566929137
21
-4.6646144488188979
0
LINE
8
BLACK
6
CONTINUOUS
10
6.5799614566929137
20
-4.6646144488188979
11
6.578054527559055
21
-4.6605250787401573
0
LINE
8
BLACK
6
CONTINUOUS
10
6.578054527559055
20
-4.6605250787401573
11
6.5776118503937004
21
-4.6571624803149607
0
LINE
8
BLACK
6
CONTINUOUS
10
6.5776118503937004
20
-4.6571624803149607
11
6.5776118503937004
21
-4.6276349212598422
0
LINE
8
BLACK
6
CONTINUOUS
10
6.5776118503937004
20
-4.6276349212598422
11
6.578054527559055
21
-4.6242723228346456
0
LINE
8
BLACK
6
CONTINUOUS
10
6.578054527559055
20
-4.6242723228346456
11
6.5799614566929137
21
-4.6201829527559051
0
LINE
8
BLACK
6
CONTINUOUS
10
6.5799614566929137
20
-4.6201829527559051
11
6.5831520078740153
21
-4.6169924015748034
0
LINE
8
BLACK
6
CONTINUOUS
10
6.5831520078740153
20
-4.6169924015748034
11
6.5872413779527559
21
-4.6150854724409447
0
LINE
8
BLACK
6
CONTINUOUS
10
6.5872413779527559
20
-4.6150854724409447
11
6.5906039763779525
21
-4.6146427952755902
0
LINE
8
BLACK
6
CONTINUOUS
10
6.5906039763779525
20
-4.6146427952755902
11
6.6398165748031497
21
-4.6146427952755902
0
LINE
8
BLACK
6
CONTINUOUS
10
6.6398165748031497
20
-4.6146427952755902
11
6.6431791732283463
21
-4.6150854724409447
0
LINE
8
BLACK
6
CONTINUOUS
10
7.2287201968503938
20
-4.5031200393700788
11
7.2331651181102359
21
-4.5053848425196845
0
LINE
8
BLACK
6
CONTINUOUS
10
7.2331651181102359
20
-4.5053848425196845
11
7.2366926377952758
21
-4.5089123622047245
0
LINE
8
BLACK
6
CONTINUOUS
10
7.2366926377952758
20
-4.5089123622047245
11
7.2389574409448816
21
-4.5133572834645665
0
LINE
8
BLACK
6
CONTINUOUS
10
7.2389574409448816
20
-4.5133572834645665
11
7.2397378346456689
21
-4.5182845275590546
0
LINE
8
BLACK
6
CONTINUOUS
10
7.2397378346456689
20
-4.5182845275590546
11
7.2389574409448816
21
-4.5232117716535436
0
LINE
8
BLACK
6
CONTINUOUS
10
7.2389574409448816
20
-4.5232117716535436
11
7.2366926377952758
21
-4.5276566929133857
0
LINE
8
BLACK
6
CONTINUOUS
10
7.2366926377952758
20
-4.5276566929133857
11
7.2331651181102359
21
-4.5311842125984247
0
LINE
8
BLACK
6
CONTINUOUS
10
7.2331651181102359
20
-4.5311842125984247
11
7.2287201968503938
21
-4.5334490157480314
0
LINE
8
BLACK
6
CONTINUOUS
10
7.2287201968503938
20
-4.5334490157480314
11
7.2237929527559057
21
-4.5342294094488187
0
LINE
8
BLACK
6
CONTINUOUS
10
7.2237929527559057
20
-4.5342294094488187
11
7.2188657086614167
21
-4.5334490157480314
0
LINE
8
BLACK
6
CONTINUOUS
10
7.2188657086614167
20
-4.5334490157480314
11
7.2144207874015747
21
-4.5311842125984247
0
LINE
8
BLACK
6
CONTINUOUS
10
7.2144207874015747
20
-4.5311842125984247
11
7.2108932677165356
21
-4.5276566929133857
0
LINE
8
BLACK
6
CONTINUOUS
10
7.2108932677165356
20
-4.5276566929133857
11
7.208628464566929
21
-4.5232117716535436
0
LINE
8
BLACK
6
CONTINUOUS
10
7.208628464566929
20
-4.5232117716535436
11
7.2078480708661417
21
-4.5182845275590546
0
LINE
8
BLACK
6
CONTINUOUS
10
7.2078480708661417
20
-4.5182845275590546
11
7.208628464566929
21
-4.5133572834645665
0
LINE
8
BLACK
6
CONTINUOUS
10
7.208628464566929
20
-4.5133572834645665
11
7.2108932677165356
21
-4.5089123622047245
0
LINE
8
BLACK
6
CONTINUOUS
10
7.2108932677165356
20
-4.5089123622047245
11
7.2144207874015747
21
-4.5053848425196845
0
LINE
8
BLACK
6
CONTINUOUS
10
7.2144207874015747
20
-4.5053848425196845
11
7.2188657086614167
21
-4.5031200393700788
0
LINE
8
BLACK
6
CONTINUOUS
10
7.2188657086614167
20
-4.5031200393700788
11
7.2237929527559057
21
-4.5023396456692915
0
LINE
8
BLACK
6
CONTINUOUS
10
7.2237929527559057
20
-4.5023396456692915
11
7.2287201968503938
21
-4.5031200393700788
0
LINE
8
BLACK
6
CONTINUOUS
10
6.2855494488188972
20
-4.391654212598425
11
6.2865712598425194
21
-4.3923369291338581
0
LINE
8
BLACK
6
CONTINUOUS
10
6.2865712598425194
20
-4.3923369291338581
11
6.2872539763779525
21
-4.3933587401574803
0
LINE
8
BLACK
6
CONTINUOUS
10
6.2872539763779525
20
-4.3933587401574803
11
6.2874937401574797
21
-4.39456405511811
0
LINE
8
BLACK
6
CONTINUOUS
10
6.2874937401574797
20
-4.39456405511811
11
6.2874937401574797
21
-4.4929892519685035
0
LINE
8
BLACK
6
CONTINUOUS
10
6.2874937401574797
20
-4.4929892519685035
11
6.2872539763779525
21
-4.4941945669291341
0
LINE
8
BLACK
6
CONTINUOUS
10
6.2872539763779525
20
-4.4941945669291341
11
6.2865712598425194
21
-4.4952163779527554
0
LINE
8
BLACK
6
CONTINUOUS
10
6.2865712598425194
20
-4.4952163779527554
11
6.2855494488188972
21
-4.4958990944881885
0
LINE
8
BLACK
6
CONTINUOUS
10
6.2855494488188972
20
-4.4958990944881885
11
6.2843441338582675
21
-4.4961388582677166
0
LINE
8
BLACK
6
CONTINUOUS
10
6.2843441338582675
20
-4.4961388582677166
11
6.0874937401574805
21
-4.4961388582677166
0
LINE
8
BLACK
6
CONTINUOUS
10
6.0874937401574805
20
-4.4961388582677166
11
6.0862884251968499
21
-4.4958990944881885
0
LINE
8
BLACK
6
CONTINUOUS
10
6.0862884251968499
20
-4.4958990944881885
11
6.0852666141732286
21
-4.4952163779527554
0
LINE
8
BLACK
6
CONTINUOUS
10
6.0852666141732286
20
-4.4952163779527554
11
6.0845838976377955
21
-4.4941945669291341
0
LINE
8
BLACK
6
CONTINUOUS
10
6.0845838976377955
20
-4.4941945669291341
11
6.0843441338582673
21
-4.4929892519685035
0
LINE
8
BLACK
6
CONTINUOUS
10
6.0843441338582673
20
-4.4929892519685035
11
6.0843441338582673
21
-4.39456405511811
0
LINE
8
BLACK
6
CONTINUOUS
10
6.0843441338582673
20
-4.39456405511811
11
6.0845838976377955
21
-4.3933587401574803
0
LINE
8
BLACK
6
CONTINUOUS
10
6.0845838976377955
20
-4.3933587401574803
11
6.0852666141732286
21
-4.3923369291338581
0
LINE
8
BLACK
6
CONTINUOUS
10
6.0852666141732286
20
-4.3923369291338581
11
6.0862884251968499
21
-4.391654212598425
0
LINE
8
BLACK
6
CONTINUOUS
10
6.0862884251968499
20
-4.391654212598425
11
6.0874937401574805
21
-4.3914144488188978
0
LINE
8
BLACK
6
CONTINUOUS
10
6.0874937401574805
20
-4.3914144488188978
11
6.2843441338582675
21
-4.3914144488188978
0
LINE
8
BLACK
6
CONTINUOUS
10
6.2843441338582675
20
-4.3914144488188978
11
6.2855494488188972
21
-4.391654212598425
0
LINE
8
BLACK
6
CONTINUOUS
10
7.4745258267716537
20
-4.391654212598425
11
7.475547637795275
21
-4.3923369291338581
0
LINE
8
BLACK
6
CONTINUOUS
10
7.475547637795275
20
-4.3923369291338581
11
7.4762303543307089
21
-4.3933587401574803
0
LINE
8
BLACK
6
CONTINUOUS
10
7.4762303543307089
20
-4.3933587401574803
11
7.4764701181102362
21
-4.39456405511811
0
LINE
8
BLACK
6
CONTINUOUS
10
7.4764701181102362
20
-4.39456405511811
11
7.4764701181102362
21
-4.4929892519685035
0
LINE
8
BLACK
6
CONTINUOUS
10
7.4764701181102362
20
-4.4929892519685035
11
7.4762303543307089
21
-4.4941945669291341
0
LINE
8
BLACK
6
CONTINUOUS
10
7.4762303543307089
20
-4.4941945669291341
11
7.475547637795275
21
-4.4952163779527554
0
LINE
8
BLACK
6
CONTINUOUS
10
7.475547637795275
20
-4.4952163779527554
11
7.4745258267716537
21
-4.4958990944881885
0
LINE
8
BLACK
6
CONTINUOUS
10
7.4745258267716537
20
-4.4958990944881885
11
7.4733205118110231
21
-4.4961388582677166
0
LINE
8
BLACK
6
CONTINUOUS
10
7.4733205118110231
20
-4.4961388582677166
11
7.276470118110236
21
-4.4961388582677166
0
LINE
8
BLACK
6
CONTINUOUS
10
7.276470118110236
20
-4.4961388582677166
11
7.2752648031496063
21
-4.4958990944881885
0
LINE
8
BLACK
6
CONTINUOUS
10
7.2752648031496063
20
-4.4958990944881885
11
7.2742429921259841
21
-4.4952163779527554
0
LINE
8
BLACK
6
CONTINUOUS
10
7.2742429921259841
20
-4.4952163779527554
11
7.2735602755905511
21
-4.4941945669291341
0
LINE
8
BLACK
6
CONTINUOUS
10
7.2735602755905511
20
-4.4941945669291341
11
7.2733205118110238
21
-4.4929892519685035
0
LINE
8
BLACK
6
CONTINUOUS
10
7.2733205118110238
20
-4.4929892519685035
11
7.2733205118110238
21
-4.39456405511811
0
LINE
8
BLACK
6
CONTINUOUS
10
7.2733205118110238
20
-4.39456405511811
11
7.2735602755905511
21
-4.3933587401574803
0
LINE
8
BLACK
6
CONTINUOUS
10
7.2735602755905511
20
-4.3933587401574803
11
7.2742429921259841
21
-4.3923369291338581
0
LINE
8
BLACK
6
CONTINUOUS
10
7.2742429921259841
20
-4.3923369291338581
11
7.2752648031496063
21
-4.391654212598425
0
LINE
8
BLACK
6
CONTINUOUS
10
7.2752648031496063
20
-4.391654212598425
11
7.276470118110236
21
-4.3914144488188978
0
LINE
8
BLACK
6
CONTINUOUS
10
7.276470118110236
20
-4.3914144488188978
11
7.4733205118110231
21
-4.3914144488188978
0
LINE
8
BLACK
6
CONTINUOUS
10
7.4733205118110231
20
-4.3914144488188978
11
7.4745258267716537
21
-4.391654212598425
0
LINE
8
BLACK
6
CONTINUOUS
10
7.2309420078740159
20
-4.4389780314960632
11
7.2366866535433072
21
-4.4413575590551178
0
LINE
8
BLACK
6
CONTINUOUS
10
7.2366866535433072
20
-4.4413575590551178
11
7.2416197244094489
21
-4.4451427952755909
0
LINE
8
BLACK
6
CONTINUOUS
10
7.2416197244094489
20
-4.4451427952755909
11
7.2454049606299211
21
-4.4500758661417326
0
LINE
8
BLACK
6
CONTINUOUS
10
7.2454049606299211
20
-4.4500758661417326
11
7.2477844881889766
21
-4.4558205118110239
0
LINE
8
BLACK
6
CONTINUOUS
10
7.2477844881889766
20
-4.4558205118110239
11
7.248596102362205
21
-4.4619853149606294
0
LINE
8
BLACK
6
CONTINUOUS
10
7.248596102362205
20
-4.4619853149606294
11
7.2477844881889766
21
-4.4681501181102359
0
LINE
8
BLACK
6
CONTINUOUS
10
7.2477844881889766
20
-4.4681501181102359
11
7.2454049606299211
21
-4.4738947637795272
0
LINE
8
BLACK
6
CONTINUOUS
10
7.2454049606299211
20
-4.4738947637795272
11
7.2416197244094489
21
-4.4788278346456689
0
LINE
8
BLACK
6
CONTINUOUS
10
7.2416197244094489
20
-4.4788278346456689
11
7.2366866535433072
21
-4.482613070866142
0
LINE
8
BLACK
6
CONTINUOUS
10
7.2366866535433072
20
-4.482613070866142
11
7.2309420078740159
21
-4.4849925984251966
0
LINE
8
BLACK
6
CONTINUOUS
10
7.2309420078740159
20
-4.4849925984251966
11
7.2247772047244094
21
-4.485804212598425
0
LINE
8
BLACK
6
CONTINUOUS
10
7.2247772047244094
20
-4.485804212598425
11
7.1834386220472437
21
-4.485804212598425
0
LINE
8
BLACK
6
CONTINUOUS
10
7.1834386220472437
20
-4.485804212598425
11
7.1772738188976373
21
-4.4849925984251966
0
LINE
8
BLACK
6
CONTINUOUS
10
7.1772738188976373
20
-4.4849925984251966
11
7.1715291732283459
21
-4.482613070866142
0
LINE
8
BLACK
6
CONTINUOUS
10
7.1715291732283459
20
-4.482613070866142
11
7.1665961023622042
21
-4.4788278346456689
0
LINE
8
BLACK
6
CONTINUOUS
10
7.1665961023622042
20
-4.4788278346456689
11
7.162810866141732
21
-4.4738947637795272
0
LINE
8
BLACK
6
CONTINUOUS
10
7.162810866141732
20
-4.4738947637795272
11
7.1604313385826774
21
-4.4681501181102359
0
LINE
8
BLACK
6
CONTINUOUS
10
7.1604313385826774
20
-4.4681501181102359
11
7.159619724409449
21
-4.4619853149606294
0
LINE
8
BLACK
6
CONTINUOUS
10
7.159619724409449
20
-4.4619853149606294
11
7.1604313385826774
21
-4.4558205118110239
0
LINE
8
BLACK
6
CONTINUOUS
10
7.1604313385826774
20
-4.4558205118110239
11
7.162810866141732
21
-4.4500758661417326
0
LINE
8
BLACK
6
CONTINUOUS
10
7.162810866141732
20
-4.4500758661417326
11
7.1665961023622042
21
-4.4451427952755909
0
LINE
8
BLACK
6
CONTINUOUS
10
7.1665961023622042
20
-4.4451427952755909
11
7.1715291732283459
21
-4.4413575590551178
0
LINE
8
BLACK
6
CONTINUOUS
10
7.1715291732283459
20
-4.4413575590551178
11
7.1772738188976373
21
-4.4389780314960632
0
LINE
8
BLACK
6
CONTINUOUS
10
7.1772738188976373
20
-4.4389780314960632
11
7.1834386220472437
21
-4.4381664173228348
0
LINE
8
BLACK
6
CONTINUOUS
10
7.1834386220472437
20
-4.4381664173228348
11
7.2247772047244094
21
-4.4381664173228348
0
LINE
8
BLACK
6
CONTINUOUS
10
7.2247772047244094
20
-4.4381664173228348
11
7.2309420078740159
21
-4.4389780314960632
0
LINE
8
BLACK
6
CONTINUOUS
10
6.0808250393700787
20
-4.2642920078740154
11
6.0818468503937009
21
-4.2649747244094485
0
LINE
8
BLACK
6
CONTINUOUS
10
6.0818468503937009
20
-4.2649747244094485
11
6.0825295669291339
21
-4.2659965354330707
0
LINE
8
BLACK
6
CONTINUOUS
10
6.0825295669291339
20
-4.2659965354330707
11
6.0827693307086612
21
-4.2672018503937004
0
LINE
8
BLACK
6
CONTINUOUS
10
6.0827693307086612
20
-4.2672018503937004
11
6.0827693307086612
21
-4.3144459448818893
0
LINE
8
BLACK
6
CONTINUOUS
10
6.0827693307086612
20
-4.3144459448818893
11
6.0825295669291339
21
-4.3156512598425198
0
LINE
8
BLACK
6
CONTINUOUS
10
6.0825295669291339
20
-4.3156512598425198
11
6.0818468503937009
21
-4.316673070866142
0
LINE
8
BLACK
6
CONTINUOUS
10
6.0818468503937009
20
-4.316673070866142
11
6.0808250393700787
21
-4.3173557874015751
0
LINE
8
BLACK
6
CONTINUOUS
10
6.0808250393700787
20
-4.3173557874015751
11
6.079619724409449
21
-4.3175955511811024
0
LINE
8
BLACK
6
CONTINUOUS
10
6.079619724409449
20
-4.3175955511811024
11
6.0166275984251971
21
-4.3175955511811024
0
LINE
8
BLACK
6
CONTINUOUS
10
6.0166275984251971
20
-4.3175955511811024
11
6.0154222834645665
21
-4.3173557874015751
0
LINE
8
BLACK
6
CONTINUOUS
10
6.0154222834645665
20
-4.3173557874015751
11
6.0144004724409443
21
-4.316673070866142
0
LINE
8
BLACK
6
CONTINUOUS
10
6.0144004724409443
20
-4.316673070866142
11
6.0137177559055113
21
-4.3156512598425198
0
LINE
8
BLACK
6
CONTINUOUS
10
6.0137177559055113
20
-4.3156512598425198
11
6.013477992125984
21
-4.3144459448818893
0
LINE
8
BLACK
6
CONTINUOUS
10
6.013477992125984
20
-4.3144459448818893
11
6.013477992125984
21
-4.2672018503937004
0
LINE
8
BLACK
6
CONTINUOUS
10
6.013477992125984
20
-4.2672018503937004
11
6.0137177559055113
21
-4.2659965354330707
0
LINE
8
BLACK
6
CONTINUOUS
10
6.0137177559055113
20
-4.2659965354330707
11
6.0144004724409443
21
-4.2649747244094485
0
LINE
8
BLACK
6
CONTINUOUS
10
6.0144004724409443
20
-4.2649747244094485
11
6.0154222834645665
21
-4.2642920078740154
0
LINE
8
BLACK
6
CONTINUOUS
10
6.0154222834645665
20
-4.2642920078740154
11
6.0166275984251971
21
-4.2640522440944881
0
LINE
8
BLACK
6
CONTINUOUS
10
6.0166275984251971
20
-4.2640522440944881
11
6.079619724409449
21
-4.2640522440944881
0
LINE
8
BLACK
6
CONTINUOUS
10
6.079619724409449
20
-4.2640522440944881
11
6.0808250393700787
21
-4.2642920078740154
0
LINE
8
BLACK
6
CONTINUOUS
10
5.8964468897637792
20
-4.1892508267716533
11
5.9005362598425197
21
-4.191157755905512
0
LINE
8
BLACK
6
CONTINUOUS
10
5.9005362598425197
20
-4.191157755905512
11
5.9037268110236223
21
-4.1943483070866137
0
LINE
8
BLACK
6
CONTINUOUS
10
5.9037268110236223
20
-4.1943483070866137
11
5.9056337401574801
21
-4.1984376771653542
0
LINE
8
BLACK
6
CONTINUOUS
10
5.9056337401574801
20
-4.1984376771653542
11
5.9060764173228346
21
-4.2018002755905508
0
LINE
8
BLACK
6
CONTINUOUS
10
5.9060764173228346
20
-4.2018002755905508
11
5.9060764173228346
21
-4.2372333464566925
0
LINE
8
BLACK
6
CONTINUOUS
10
5.9060764173228346
20
-4.2372333464566925
11
5.9056337401574801
21
-4.24059594488189
0
LINE
8
BLACK
6
CONTINUOUS
10
5.9056337401574801
20
-4.24059594488189
11
5.9037268110236223
21
-4.2446853149606296
0
LINE
8
BLACK
6
CONTINUOUS
10
5.9037268110236223
20
-4.2446853149606296
11
5.9005362598425197
21
-4.2478758661417322
0
LINE
8
BLACK
6
CONTINUOUS
10
5.9005362598425197
20
-4.2478758661417322
11
5.8964468897637792
21
-4.2497827952755909
0
LINE
8
BLACK
6
CONTINUOUS
10
5.8964468897637792
20
-4.2497827952755909
11
5.8930842913385826
21
-4.2502254724409445
0
LINE
8
BLACK
6
CONTINUOUS
10
5.8930842913385826
20
-4.2502254724409445
11
5.8724150000000002
21
-4.2502254724409445
0
LINE
8
BLACK
6
CONTINUOUS
10
5.8724150000000002
20
-4.2502254724409445
11
5.8690524015748027
21
-4.2497827952755909
0
LINE
8
BLACK
6
CONTINUOUS
10
5.8690524015748027
20
-4.2497827952755909
11
5.864963031496063
21
-4.2478758661417322
0
LINE
8
BLACK
6
CONTINUOUS
10
5.864963031496063
20
-4.2478758661417322
11
5.8617724803149605
21
-4.2446853149606296
0
LINE
8
BLACK
6
CONTINUOUS
10
5.8617724803149605
20
-4.2446853149606296
11
5.8598655511811026
21
-4.24059594488189
0
LINE
8
BLACK
6
CONTINUOUS
10
5.8598655511811026
20
-4.24059594488189
11
5.8594228740157481
21
-4.2372333464566925
0
LINE
8
BLACK
6
CONTINUOUS
10
5.8594228740157481
20
-4.2372333464566925
11
5.8594228740157481
21
-4.2018002755905508
0
LINE
8
BLACK
6
CONTINUOUS
10
5.8594228740157481
20
-4.2018002755905508
11
5.8598655511811026
21
-4.1984376771653542
0
LINE
8
BLACK
6
CONTINUOUS
10
5.8598655511811026
20
-4.1984376771653542
11
5.8617724803149605
21
-4.1943483070866137
0
LINE
8
BLACK
6
CONTINUOUS
10
5.8617724803149605
20
-4.1943483070866137
11
5.864963031496063
21
-4.191157755905512
0
LINE
8
BLACK
6
CONTINUOUS
10
5.864963031496063
20
-4.191157755905512
11
5.8690524015748027
21
-4.1892508267716533
0
LINE
8
BLACK
6
CONTINUOUS
10
5.8690524015748027
20
-4.1892508267716533
11
5.8724150000000002
21
-4.1888081496062988
0
LINE
8
BLACK
6
CONTINUOUS
10
5.8724150000000002
20
-4.1888081496062988
11
5.8930842913385826
21
-4.1888081496062988
0
LINE
8
BLACK
6
CONTINUOUS
10
5.8930842913385826
20
-4.1888081496062988
11
5.8964468897637792
21
-4.1892508267716533
0
LINE
8
BLACK
6
CONTINUOUS
10
5.9682972834645671
20
-4.1892508267716533
11
5.9723866535433068
21
-4.191157755905512
0
LINE
8
BLACK
6
CONTINUOUS
10
5.9723866535433068
20
-4.191157755905512
11
5.9755772047244093
21
-4.1943483070866137
0
LINE
8
BLACK
6
CONTINUOUS
10
5.9755772047244093
20
-4.1943483070866137
11
5.9774841338582672
21
-4.1984376771653542
0
LINE
8
BLACK
6
CONTINUOUS
10
5.9774841338582672
20
-4.1984376771653542
11
5.9779268110236217
21
-4.2018002755905508
0
LINE
8
BLACK
6
CONTINUOUS
10
5.9779268110236217
20
-4.2018002755905508
11
5.9779268110236217
21
-4.2372333464566925
0
LINE
8
BLACK
6
CONTINUOUS
10
5.9779268110236217
20
-4.2372333464566925
11
5.9774841338582672
21
-4.24059594488189
0
LINE
8
BLACK
6
CONTINUOUS
10
5.9774841338582672
20
-4.24059594488189
11
5.9755772047244093
21
-4.2446853149606296
0
LINE
8
BLACK
6
CONTINUOUS
10
5.9755772047244093
20
-4.2446853149606296
11
5.9723866535433068
21
-4.2478758661417322
0
LINE
8
BLACK
6
CONTINUOUS
10
5.9723866535433068
20
-4.2478758661417322
11
5.9682972834645671
21
-4.2497827952755909
0
LINE
8
BLACK
6
CONTINUOUS
10
5.9682972834645671
20
-4.2497827952755909
11
5.9649346850393696
21
-4.2502254724409445
0
LINE
8
BLACK
6
CONTINUOUS
10
5.9649346850393696
20
-4.2502254724409445
11
5.9442653937007872
21
-4.2502254724409445
0
LINE
8
BLACK
6
CONTINUOUS
10
5.9442653937007872
20
-4.2502254724409445
11
5.9409027952755906
21
-4.2497827952755909
0
LINE
8
BLACK
6
CONTINUOUS
10
5.9409027952755906
20
-4.2497827952755909
11
5.9368134251968501
21
-4.2478758661417322
0
LINE
8
BLACK
6
CONTINUOUS
10
5.9368134251968501
20
-4.2478758661417322
11
5.9336228740157475
21
-4.2446853149606296
0
LINE
8
BLACK
6
CONTINUOUS
10
5.9336228740157475
20
-4.2446853149606296
11
5.9317159448818897
21
-4.24059594488189
0
LINE
8
BLACK
6
CONTINUOUS
10
5.9317159448818897
20
-4.24059594488189
11
5.9312732677165352
21
-4.2372333464566925
0
LINE
8
BLACK
6
CONTINUOUS
10
5.9312732677165352
20
-4.2372333464566925
11
5.9312732677165352
21
-4.2018002755905508
0
LINE
8
BLACK
6
CONTINUOUS
10
5.9312732677165352
20
-4.2018002755905508
11
5.9317159448818897
21
-4.1984376771653542
0
LINE
8
BLACK
6
CONTINUOUS
10
5.9317159448818897
20
-4.1984376771653542
11
5.9336228740157475
21
-4.1943483070866137
0
LINE
8
BLACK
6
CONTINUOUS
10
5.9336228740157475
20
-4.1943483070866137
11
5.9368134251968501
21
-4.191157755905512
0
LINE
8
BLACK
6
CONTINUOUS
10
5.9368134251968501
20
-4.191157755905512
11
5.9409027952755906
21
-4.1892508267716533
0
LINE
8
BLACK
6
CONTINUOUS
10
5.9409027952755906
20
-4.1892508267716533
11
5.9442653937007872
21
-4.1888081496062988
0
LINE
8
BLACK
6
CONTINUOUS
10
5.9442653937007872
20
-4.1888081496062988
11
5.9649346850393696
21
-4.1888081496062988
0
LINE
8
BLACK
6
CONTINUOUS
10
5.9649346850393696
20
-4.1888081496062988
11
5.9682972834645671
21
-4.1892508267716533
0
LINE
8
BLACK
6
CONTINUOUS
10
6.0808250393700787
20
-4.1934258661417321
11
6.0818468503937009
21
-4.1941085826771651
0
LINE
8
BLACK
6
CONTINUOUS
10
6.0818468503937009
20
-4.1941085826771651
11
6.0825295669291339
21
-4.1951303937007873
0
LINE
8
BLACK
6
CONTINUOUS
10
6.0825295669291339
20
-4.1951303937007873
11
6.0827693307086612
21
-4.196335708661417
0
LINE
8
BLACK
6
CONTINUOUS
10
6.0827693307086612
20
-4.196335708661417
11
6.0827693307086612
21
-4.2435798031496059
0
LINE
8
BLACK
6
CONTINUOUS
10
6.0827693307086612
20
-4.2435798031496059
11
6.0825295669291339
21
-4.2447851181102365
0
LINE
8
BLACK
6
CONTINUOUS
10
6.0825295669291339
20
-4.2447851181102365
11
6.0818468503937009
21
-4.2458069291338578
0
LINE
8
BLACK
6
CONTINUOUS
10
6.0818468503937009
20
-4.2458069291338578
11
6.0808250393700787
21
-4.2464896456692909
0
LINE
8
BLACK
6
CONTINUOUS
10
6.0808250393700787
20
-4.2464896456692909
11
6.079619724409449
21
-4.246729409448819
0
LINE
8
BLACK
6
CONTINUOUS
10
6.079619724409449
20
-4.246729409448819
11
6.0166275984251971
21
-4.246729409448819
0
LINE
8
BLACK
6
CONTINUOUS
10
6.0166275984251971
20
-4.246729409448819
11
6.0154222834645665
21
-4.2464896456692909
0
LINE
8
BLACK
6
CONTINUOUS
10
6.0154222834645665
20
-4.2464896456692909
11
6.0144004724409443
21
-4.2458069291338578
0
LINE
8
BLACK
6
CONTINUOUS
10
6.0144004724409443
20
-4.2458069291338578
11
6.0137177559055113
21
-4.2447851181102365
0
LINE
8
BLACK
6
CONTINUOUS
10
6.0137177559055113
20
-4.2447851181102365
11
6.013477992125984
21
-4.2435798031496059
0
LINE
8
BLACK
6
CONTINUOUS
10
6.013477992125984
20
-4.2435798031496059
11
6.013477992125984
21
-4.196335708661417
0
LINE
8
BLACK
6
CONTINUOUS
10
6.013477992125984
20
-4.196335708661417
11
6.0137177559055113
21
-4.1951303937007873
0
LINE
8
BLACK
6
CONTINUOUS
10
6.0137177559055113
20
-4.1951303937007873
11
6.0144004724409443
21
-4.1941085826771651
0
LINE
8
BLACK
6
CONTINUOUS
10
6.0144004724409443
20
-4.1941085826771651
11
6.0154222834645665
21
-4.1934258661417321
0
LINE
8
BLACK
6
CONTINUOUS
10
6.0154222834645665
20
-4.1934258661417321
11
6.0166275984251971
21
-4.1931861023622048
0
LINE
8
BLACK
6
CONTINUOUS
10
6.0166275984251971
20
-4.1931861023622048
11
6.079619724409449
21
-4.1931861023622048
0
LINE
8
BLACK
6
CONTINUOUS
10
6.079619724409449
20
-4.1931861023622048
11
6.0808250393700787
21
-4.1934258661417321
0
LINE
8
BLACK
6
CONTINUOUS
10
6.0808250393700787
20
-4.0977565748031495
11
6.0818468503937009
21
-4.0984392913385825
0
LINE
8
BLACK
6
CONTINUOUS
10
6.0818468503937009
20
-4.0984392913385825
11
6.0825295669291339
21
-4.0994611023622047
0
LINE
8
BLACK
6
CONTINUOUS
10
6.0825295669291339
20
-4.0994611023622047
11
6.0827693307086612
21
-4.1006664173228344
0
LINE
8
BLACK
6
CONTINUOUS
10
6.0827693307086612
20
-4.1006664173228344
11
6.0827693307086612
21
-4.1479105118110233
0
LINE
8
BLACK
6
CONTINUOUS
10
6.0827693307086612
20
-4.1479105118110233
11
6.0825295669291339
21
-4.149115826771653
0
LINE
8
BLACK
6
CONTINUOUS
10
6.0825295669291339
20
-4.149115826771653
11
6.0818468503937009
21
-4.1501376377952752
0
LINE
8
BLACK
6
CONTINUOUS
10
6.0818468503937009
20
-4.1501376377952752
11
6.0808250393700787
21
-4.1508203543307083
0
LINE
8
BLACK
6
CONTINUOUS
10
6.0808250393700787
20
-4.1508203543307083
11
6.079619724409449
21
-4.1510601181102365
0
LINE
8
BLACK
6
CONTINUOUS
10
6.079619724409449
20
-4.1510601181102365
11
6.0166275984251971
21
-4.1510601181102365
0
LINE
8
BLACK
6
CONTINUOUS
10
6.0166275984251971
20
-4.1510601181102365
11
6.0154222834645665
21
-4.1508203543307083
0
LINE
8
BLACK
6
CONTINUOUS
10
6.0154222834645665
20
-4.1508203543307083
11
6.0144004724409443
21
-4.1501376377952752
0
LINE
8
BLACK
6
CONTINUOUS
10
6.0144004724409443
20
-4.1501376377952752
11
6.0137177559055113
21
-4.149115826771653
0
LINE
8
BLACK
6
CONTINUOUS
10
6.0137177559055113
20
-4.149115826771653
11
6.013477992125984
21
-4.1479105118110233
0
LINE
8
BLACK
6
CONTINUOUS
10
6.013477992125984
20
-4.1479105118110233
11
6.013477992125984
21
-4.1006664173228344
0
LINE
8
BLACK
6
CONTINUOUS
10
6.013477992125984
20
-4.1006664173228344
11
6.0137177559055113
21
-4.0994611023622047
0
LINE
8
BLACK
6
CONTINUOUS
10
6.0137177559055113
20
-4.0994611023622047
11
6.0144004724409443
21
-4.0984392913385825
0
LINE
8
BLACK
6
CONTINUOUS
10
6.0144004724409443
20
-4.0984392913385825
11
6.0154222834645665
21
-4.0977565748031495
0
LINE
8
BLACK
6
CONTINUOUS
10
6.0154222834645665
20
-4.0977565748031495
11
6.0166275984251971
21
-4.0975168110236222
0
LINE
8
BLACK
6
CONTINUOUS
10
6.0166275984251971
20
-4.0975168110236222
11
6.079619724409449
21
-4.0975168110236222
0
LINE
8
BLACK
6
CONTINUOUS
10
6.079619724409449
20
-4.0975168110236222
11
6.0808250393700787
21
-4.0977565748031495
0
LINE
8
BLACK
6
CONTINUOUS
10
5.8964468897637792
20
-3.9952508267716533
11
5.9005362598425197
21
-3.9971577559055116
0
LINE
8
BLACK
6
CONTINUOUS
10
5.9005362598425197
20
-3.9971577559055116
11
5.9037268110236223
21
-4.0003483070866137
0
LINE
8
BLACK
6
CONTINUOUS
10
5.9037268110236223
20
-4.0003483070866137
11
5.9056337401574801
21
-4.0044376771653543
0
LINE
8
BLACK
6
CONTINUOUS
10
5.9056337401574801
20
-4.0044376771653543
11
5.9060764173228346
21
-4.0078002755905509
0
LINE
8
BLACK
6
CONTINUOUS
10
5.9060764173228346
20
-4.0078002755905509
11
5.9060764173228346
21
-4.0432333464566925
0
LINE
8
BLACK
6
CONTINUOUS
10
5.9060764173228346
20
-4.0432333464566925
11
5.9056337401574801
21
-4.04659594488189
0
LINE
8
BLACK
6
CONTINUOUS
10
5.9056337401574801
20
-4.04659594488189
11
5.9037268110236223
21
-4.0506853149606297
0
LINE
8
BLACK
6
CONTINUOUS
10
5.9037268110236223
20
-4.0506853149606297
11
5.9005362598425197
21
-4.0538758661417322
0
LINE
8
BLACK
6
CONTINUOUS
10
5.9005362598425197
20
-4.0538758661417322
11
5.8964468897637792
21
-4.05578279527559
0
LINE
8
BLACK
6
CONTINUOUS
10
5.8964468897637792
20
-4.05578279527559
11
5.8930842913385826
21
-4.0562254724409446
0
LINE
8
BLACK
6
CONTINUOUS
10
5.8930842913385826
20
-4.0562254724409446
11
5.8724150000000002
21
-4.0562254724409446
0
LINE
8
BLACK
6
CONTINUOUS
10
5.8724150000000002
20
-4.0562254724409446
11
5.8690524015748027
21
-4.05578279527559
0
LINE
8
BLACK
6
CONTINUOUS
10
5.8690524015748027
20
-4.05578279527559
11
5.864963031496063
21
-4.0538758661417322
0
LINE
8
BLACK
6
CONTINUOUS
10
5.864963031496063
20
-4.0538758661417322
11
5.8617724803149605
21
-4.0506853149606297
0
LINE
8
BLACK
6
CONTINUOUS
10
5.8617724803149605
20
-4.0506853149606297
11
5.8598655511811026
21
-4.04659594488189
0
LINE
8
BLACK
6
CONTINUOUS
10
5.8598655511811026
20
-4.04659594488189
11
5.8594228740157481
21
-4.0432333464566925
0
LINE
8
BLACK
6
CONTINUOUS
10
5.8594228740157481
20
-4.0432333464566925
11
5.8594228740157481
21
-4.0078002755905509
0
LINE
8
BLACK
6
CONTINUOUS
10
5.8594228740157481
20
-4.0078002755905509
11
5.8598655511811026
21
-4.0044376771653543
0
LINE
8
BLACK
6
CONTINUOUS
10
5.8598655511811026
20
-4.0044376771653543
11
5.8617724803149605
21
-4.0003483070866137
0
LINE
8
BLACK
6
CONTINUOUS
10
5.8617724803149605
20
-4.0003483070866137
11
5.864963031496063
21
-3.9971577559055116
0
LINE
8
BLACK
6
CONTINUOUS
10
5.864963031496063
20
-3.9971577559055116
11
5.8690524015748027
21
-3.9952508267716533
0
LINE
8
BLACK
6
CONTINUOUS
10
5.8690524015748027
20
-3.9952508267716533
11
5.8724150000000002
21
-3.9948081496062993
0
LINE
8
BLACK
6
CONTINUOUS
10
5.8724150000000002
20
-3.9948081496062993
11
5.8930842913385826
21
-3.9948081496062993
0
LINE
8
BLACK
6
CONTINUOUS
10
5.8930842913385826
20
-3.9948081496062993
11
5.8964468897637792
21
-3.9952508267716533
0
LINE
8
BLACK
6
CONTINUOUS
10
5.9682972834645671
20
-3.9952508267716533
11
5.9723866535433068
21
-3.9971577559055116
0
LINE
8
BLACK
6
CONTINUOUS
10
5.9723866535433068
20
-3.9971577559055116
11
5.9755772047244093
21
-4.0003483070866137
0
LINE
8
BLACK
6
CONTINUOUS
10
5.9755772047244093
20
-4.0003483070866137
11
5.9774841338582672
21
-4.0044376771653543
0
LINE
8
BLACK
6
CONTINUOUS
10
5.9774841338582672
20
-4.0044376771653543
11
5.9779268110236217
21
-4.0078002755905509
0
LINE
8
BLACK
6
CONTINUOUS
10
5.9779268110236217
20
-4.0078002755905509
11
5.9779268110236217
21
-4.0432333464566925
0
LINE
8
BLACK
6
CONTINUOUS
10
5.9779268110236217
20
-4.0432333464566925
11
5.9774841338582672
21
-4.04659594488189
0
LINE
8
BLACK
6
CONTINUOUS
10
5.9774841338582672
20
-4.04659594488189
11
5.9755772047244093
21
-4.0506853149606297
0
LINE
8
BLACK
6
CONTINUOUS
10
5.9755772047244093
20
-4.0506853149606297
11
5.9723866535433068
21
-4.0538758661417322
0
LINE
8
BLACK
6
CONTINUOUS
10
5.9723866535433068
20
-4.0538758661417322
11
5.9682972834645671
21
-4.05578279527559
0
LINE
8
BLACK
6
CONTINUOUS
10
5.9682972834645671
20
-4.05578279527559
11
5.9649346850393696
21
-4.0562254724409446
0
LINE
8
BLACK
6
CONTINUOUS
10
5.9649346850393696
20
-4.0562254724409446
11
5.9442653937007872
21
-4.0562254724409446
0
LINE
8
BLACK
6
CONTINUOUS
10
5.9442653937007872
20
-4.0562254724409446
11
5.9409027952755906
21
-4.05578279527559
0
LINE
8
BLACK
6
CONTINUOUS
10
5.9409027952755906
20
-4.05578279527559
11
5.9368134251968501
21
-4.0538758661417322
0
LINE
8
BLACK
6
CONTINUOUS
10
5.9368134251968501
20
-4.0538758661417322
11
5.9336228740157475
21
-4.0506853149606297
0
LINE
8
BLACK
6
CONTINUOUS
10
5.9336228740157475
20
-4.0506853149606297
11
5.9317159448818897
21
-4.04659594488189
0
LINE
8
BLACK
6
CONTINUOUS
10
5.9317159448818897
20
-4.04659594488189
11
5.9312732677165352
21
-4.0432333464566925
0
LINE
8
BLACK
6
CONTINUOUS
10
5.9312732677165352
20
-4.0432333464566925
11
5.9312732677165352
21
-4.0078002755905509
0
LINE
8
BLACK
6
CONTINUOUS
10
5.9312732677165352
20
-4.0078002755905509
11
5.9317159448818897
21
-4.0044376771653543
0
LINE
8
BLACK
6
CONTINUOUS
10
5.9317159448818897
20
-4.0044376771653543
11
5.9336228740157475
21
-4.0003483070866137
0
LINE
8
BLACK
6
CONTINUOUS
10
5.9336228740157475
20
-4.0003483070866137
11
5.9368134251968501
21
-3.9971577559055116
0
LINE
8
BLACK
6
CONTINUOUS
10
5.9368134251968501
20
-3.9971577559055116
11
5.9409027952755906
21
-3.9952508267716533
0
LINE
8
BLACK
6
CONTINUOUS
10
5.9409027952755906
20
-3.9952508267716533
11
5.9442653937007872
21
-3.9948081496062993
0
LINE
8
BLACK
6
CONTINUOUS
10
5.9442653937007872
20
-3.9948081496062993
11
5.9649346850393696
21
-3.9948081496062993
0
LINE
8
BLACK
6
CONTINUOUS
10
5.9649346850393696
20
-3.9948081496062993
11
5.9682972834645671
21
-3.9952508267716533
0
LINE
8
BLACK
6
CONTINUOUS
10
6.0808250393700787
20
-3.999331377952756
11
6.0818468503937009
21
-4.000014094488189
0
LINE
8
BLACK
6
CONTINUOUS
10
6.0818468503937009
20
-4.000014094488189
11
6.0825295669291339
21
-4.0010359055118112
0
LINE
8
BLACK
6
CONTINUOUS
10
6.0825295669291339
20
-4.0010359055118112
11
6.0827693307086612
21
-4.0022412204724409
0
LINE
8
BLACK
6
CONTINUOUS
10
6.0827693307086612
20
-4.0022412204724409
11
6.0827693307086612
21
-4.0494853149606298
0
LINE
8
BLACK
6
CONTINUOUS
10
6.0827693307086612
20
-4.0494853149606298
11
6.0825295669291339
21
-4.0506906299212595
0
LINE
8
BLACK
6
CONTINUOUS
10
6.0825295669291339
20
-4.0506906299212595
11
6.0818468503937009
21
-4.0517124409448817
0
LINE
8
BLACK
6
CONTINUOUS
10
6.0818468503937009
20
-4.0517124409448817
11
6.0808250393700787
21
-4.0523951574803148
0
LINE
8
BLACK
6
CONTINUOUS
10
6.0808250393700787
20
-4.0523951574803148
11
6.079619724409449
21
-4.052634921259842
0
LINE
8
BLACK
6
CONTINUOUS
10
6.079619724409449
20
-4.052634921259842
11
6.0166275984251971
21
-4.052634921259842
0
LINE
8
BLACK
6
CONTINUOUS
10
6.0166275984251971
20
-4.052634921259842
11
6.0154222834645665
21
-4.0523951574803148
0
LINE
8
BLACK
6
CONTINUOUS
10
6.0154222834645665
20
-4.0523951574803148
11
6.0144004724409443
21
-4.0517124409448817
0
LINE
8
BLACK
6
CONTINUOUS
10
6.0144004724409443
20
-4.0517124409448817
11
6.0137177559055113
21
-4.0506906299212595
0
LINE
8
BLACK
6
CONTINUOUS
10
6.0137177559055113
20
-4.0506906299212595
11
6.013477992125984
21
-4.0494853149606298
0
LINE
8
BLACK
6
CONTINUOUS
10
6.013477992125984
20
-4.0494853149606298
11
6.013477992125984
21
-4.0022412204724409
0
LINE
8
BLACK
6
CONTINUOUS
10
6.013477992125984
20
-4.0022412204724409
11
6.0137177559055113
21
-4.0010359055118112
0
LINE
8
BLACK
6
CONTINUOUS
10
6.0137177559055113
20
-4.0010359055118112
11
6.0144004724409443
21
-4.000014094488189
0
LINE
8
BLACK
6
CONTINUOUS
10
6.0144004724409443
20
-4.000014094488189
11
6.0154222834645665
21
-3.999331377952756
0
LINE
8
BLACK
6
CONTINUOUS
10
6.0154222834645665
20
-3.999331377952756
11
6.0166275984251971
21
-3.9990916141732282
0
LINE
8
BLACK
6
CONTINUOUS
10
6.0166275984251971
20
-3.9990916141732282
11
6.079619724409449
21
-3.9990916141732282
0
LINE
8
BLACK
6
CONTINUOUS
10
6.079619724409449
20
-3.9990916141732282
11
6.0808250393700787
21
-3.999331377952756
0
LINE
8
BLACK
6
CONTINUOUS
10
5.4738801574803144
20
-3.9106069685039371
11
5.4749019685039366
21
-3.9112896850393701
0
LINE
8
BLACK
6
CONTINUOUS
10
5.4749019685039366
20
-3.9112896850393701
11
5.4755846850393697
21
-3.9123114960629919
0
LINE
8
BLACK
6
CONTINUOUS
10
5.4755846850393697
20
-3.9123114960629919
11
5.4758244488188978
21
-3.913516811023622
0
LINE
8
BLACK
6
CONTINUOUS
10
5.4758244488188978
20
-3.913516811023622
11
5.4758244488188978
21
-3.9735168110236221
0
LINE
8
BLACK
6
CONTINUOUS
10
5.4758244488188978
20
-3.9735168110236221
11
5.4755846850393697
21
-3.9747221259842518
0
LINE
8
BLACK
6
CONTINUOUS
10
5.4755846850393697
20
-3.9747221259842518
11
5.4749019685039366
21
-3.975743937007874
0
LINE
8
BLACK
6
CONTINUOUS
10
5.4749019685039366
20
-3.975743937007874
11
5.4738801574803144
21
-3.976426653543307
0
LINE
8
BLACK
6
CONTINUOUS
10
5.4738801574803144
20
-3.976426653543307
11
5.4726748425196847
21
-3.9766664173228348
0
LINE
8
BLACK
6
CONTINUOUS
10
5.4726748425196847
20
-3.9766664173228348
11
5.4126748425196851
21
-3.9766664173228348
0
LINE
8
BLACK
6
CONTINUOUS
10
5.4126748425196851
20
-3.9766664173228348
11
5.4114695275590554
21
-3.976426653543307
0
LINE
8
BLACK
6
CONTINUOUS
10
5.4114695275590554
20
-3.976426653543307
11
5.4104477165354332
21
-3.975743937007874
0
LINE
8
BLACK
6
CONTINUOUS
10
5.4104477165354332
20
-3.975743937007874
11
5.4097650000000002
21
-3.9747221259842518
0
LINE
8
BLACK
6
CONTINUOUS
10
5.4097650000000002
20
-3.9747221259842518
11
5.409525236220472
21
-3.9735168110236221
0
LINE
8
BLACK
6
CONTINUOUS
10
5.409525236220472
20
-3.9735168110236221
11
5.409525236220472
21
-3.913516811023622
0
LINE
8
BLACK
6
CONTINUOUS
10
5.409525236220472
20
-3.913516811023622
11
5.4097650000000002
21
-3.9123114960629919
0
LINE
8
BLACK
6
CONTINUOUS
10
5.4097650000000002
20
-3.9123114960629919
11
5.4104477165354332
21
-3.9112896850393701
0
LINE
8
BLACK
6
CONTINUOUS
10
5.4104477165354332
20
-3.9112896850393701
11
5.4114695275590554
21
-3.9106069685039371
0
LINE
8
BLACK
6
CONTINUOUS
10
5.4114695275590554
20
-3.9106069685039371
11
5.4126748425196851
21
-3.9103672047244094
0
LINE
8
BLACK
6
CONTINUOUS
10
5.4126748425196851
20
-3.9103672047244094
11
5.4726748425196847
21
-3.9103672047244094
0
LINE
8
BLACK
6
CONTINUOUS
10
5.4726748425196847
20
-3.9103672047244094
11
5.4738801574803144
21
-3.9106069685039371
0
LINE
8
BLACK
6
CONTINUOUS
10
5.573880157480315
20
-3.9106069685039371
11
5.5749019685039372
21
-3.9112896850393701
0
LINE
8
BLACK
6
CONTINUOUS
10
5.5749019685039372
20
-3.9112896850393701
11
5.5755846850393702
21
-3.9123114960629919
0
LINE
8
BLACK
6
CONTINUOUS
10
5.5755846850393702
20
-3.9123114960629919
11
5.5758244488188975
21
-3.913516811023622
0
LINE
8
BLACK
6
CONTINUOUS
10
5.5758244488188975
20
-3.913516811023622
11
5.5758244488188975
21
-3.9735168110236221
0
LINE
8
BLACK
6
CONTINUOUS
10
5.5758244488188975
20
-3.9735168110236221
11
5.5755846850393702
21
-3.9747221259842518
0
LINE
8
BLACK
6
CONTINUOUS
10
5.5755846850393702
20
-3.9747221259842518
11
5.5749019685039372
21
-3.975743937007874
0
LINE
8
BLACK
6
CONTINUOUS
10
5.5749019685039372
20
-3.975743937007874
11
5.573880157480315
21
-3.976426653543307
0
LINE
8
BLACK
6
CONTINUOUS
10
5.573880157480315
20
-3.976426653543307
11
5.5726748425196853
21
-3.9766664173228348
0
LINE
8
BLACK
6
CONTINUOUS
10
5.5726748425196853
20
-3.9766664173228348
11
5.5126748425196848
21
-3.9766664173228348
0
LINE
8
BLACK
6
CONTINUOUS
10
5.5126748425196848
20
-3.9766664173228348
11
5.5114695275590551
21
-3.976426653543307
0
LINE
8
BLACK
6
CONTINUOUS
10
5.5114695275590551
20
-3.976426653543307
11
5.5104477165354329
21
-3.975743937007874
0
LINE
8
BLACK
6
CONTINUOUS
10
5.5104477165354329
20
-3.975743937007874
11
5.5097649999999998
21
-3.9747221259842518
0
LINE
8
BLACK
6
CONTINUOUS
10
5.5097649999999998
20
-3.9747221259842518
11
5.5095252362204725
21
-3.9735168110236221
0
LINE
8
BLACK
6
CONTINUOUS
10
5.5095252362204725
20
-3.9735168110236221
11
5.5095252362204725
21
-3.913516811023622
0
LINE
8
BLACK
6
CONTINUOUS
10
5.5095252362204725
20
-3.913516811023622
11
5.5097649999999998
21
-3.9123114960629919
0
LINE
8
BLACK
6
CONTINUOUS
10
5.5097649999999998
20
-3.9123114960629919
11
5.5104477165354329
21
-3.9112896850393701
0
LINE
8
BLACK
6
CONTINUOUS
10
5.5104477165354329
20
-3.9112896850393701
11
5.5114695275590551
21
-3.9106069685039371
0
LINE
8
BLACK
6
CONTINUOUS
10
5.5114695275590551
20
-3.9106069685039371
11
5.5126748425196848
21
-3.9103672047244094
0
LINE
8
BLACK
6
CONTINUOUS
10
5.5126748425196848
20
-3.9103672047244094
11
5.5726748425196853
21
-3.9103672047244094
0
LINE
8
BLACK
6
CONTINUOUS
10
5.5726748425196853
20
-3.9103672047244094
11
5.573880157480315
21
-3.9106069685039371
0
LINE
8
BLACK
6
CONTINUOUS
10
6.0808250393700787
20
-3.900906181102362
11
6.0818468503937009
21
-3.901588897637795
0
LINE
8
BLACK
6
CONTINUOUS
10
6.0818468503937009
20
-3.901588897637795
11
6.0825295669291339
21
-3.9026107086614172
0
LINE
8
BLACK
6
CONTINUOUS
10
6.0825295669291339
20
-3.9026107086614172
11
6.0827693307086612
21
-3.9038160236220469
0
LINE
8
BLACK
6
CONTINUOUS
10
6.0827693307086612
20
-3.9038160236220469
11
6.0827693307086612
21
-3.9510601181102363
0
LINE
8
BLACK
6
CONTINUOUS
10
6.0827693307086612
20
-3.9510601181102363
11
6.0825295669291339
21
-3.952265433070866
0
LINE
8
BLACK
6
CONTINUOUS
10
6.0825295669291339
20
-3.952265433070866
11
6.0818468503937009
21
-3.9532872440944882
0
LINE
8
BLACK
6
CONTINUOUS
10
6.0818468503937009
20
-3.9532872440944882
11
6.0808250393700787
21
-3.9539699606299212
0
LINE
8
BLACK
6
CONTINUOUS
10
6.0808250393700787
20
-3.9539699606299212
11
6.079619724409449
21
-3.9542097244094485
0
LINE
8
BLACK
6
CONTINUOUS
10
6.079619724409449
20
-3.9542097244094485
11
6.0166275984251971
21
-3.9542097244094485
0
LINE
8
BLACK
6
CONTINUOUS
10
6.0166275984251971
20
-3.9542097244094485
11
6.0154222834645665
21
-3.9539699606299212
0
LINE
8
BLACK
6
CONTINUOUS
10
6.0154222834645665
20
-3.9539699606299212
11
6.0144004724409443
21
-3.9532872440944882
0
LINE
8
BLACK
6
CONTINUOUS
10
6.0144004724409443
20
-3.9532872440944882
11
6.0137177559055113
21
-3.952265433070866
0
LINE
8
BLACK
6
CONTINUOUS
10
6.0137177559055113
20
-3.952265433070866
11
6.013477992125984
21
-3.9510601181102363
0
LINE
8
BLACK
6
CONTINUOUS
10
6.013477992125984
20
-3.9510601181102363
11
6.013477992125984
21
-3.9038160236220469
0
LINE
8
BLACK
6
CONTINUOUS
10
6.013477992125984
20
-3.9038160236220469
11
6.0137177559055113
21
-3.9026107086614172
0
LINE
8
BLACK
6
CONTINUOUS
10
6.0137177559055113
20
-3.9026107086614172
11
6.0144004724409443
21
-3.901588897637795
0
LINE
8
BLACK
6
CONTINUOUS
10
6.0144004724409443
20
-3.901588897637795
11
6.0154222834645665
21
-3.900906181102362
0
LINE
8
BLACK
6
CONTINUOUS
10
6.0154222834645665
20
-3.900906181102362
11
6.0166275984251971
21
-3.9006664173228347
0
LINE
8
BLACK
6
CONTINUOUS
10
6.0166275984251971
20
-3.9006664173228347
11
6.079619724409449
21
-3.9006664173228347
0
LINE
8
BLACK
6
CONTINUOUS
10
6.079619724409449
20
-3.9006664173228347
11
6.0808250393700787
21
-3.900906181102362
0
LINE
8
BLACK
6
CONTINUOUS
10
5.8987382283464562
20
-3.8945264173228344
11
5.9028275984251968
21
-3.8964333464566927
0
LINE
8
BLACK
6
CONTINUOUS
10
5.9028275984251968
20
-3.8964333464566927
11
5.9060181496062993
21
-3.8996238976377953
0
LINE
8
BLACK
6
CONTINUOUS
10
5.9060181496062993
20
-3.8996238976377953
11
5.9079250787401572
21
-3.9037132677165354
0
LINE
8
BLACK
6
CONTINUOUS
10
5.9079250787401572
20
-3.9037132677165354
11
5.9083677559055117
21
-3.9070758661417324
0
LINE
8
BLACK
6
CONTINUOUS
10
5.9083677559055117
20
-3.9070758661417324
11
5.9083677559055117
21
-3.9267609055118111
0
LINE
8
BLACK
6
CONTINUOUS
10
5.9083677559055117
20
-3.9267609055118111
11
5.9079250787401572
21
-3.9301235039370077
0
LINE
8
BLACK
6
CONTINUOUS
10
5.9079250787401572
20
-3.9301235039370077
11
5.9060181496062993
21
-3.9342128740157478
0
LINE
8
BLACK
6
CONTINUOUS
10
5.9060181496062993
20
-3.9342128740157478
11
5.9028275984251968
21
-3.9374034251968504
0
LINE
8
BLACK
6
CONTINUOUS
10
5.9028275984251968
20
-3.9374034251968504
11
5.8987382283464562
21
-3.9393103543307086
0
LINE
8
BLACK
6
CONTINUOUS
10
5.8987382283464562
20
-3.9393103543307086
11
5.8953756299212596
21
-3.9397530314960627
0
LINE
8
BLACK
6
CONTINUOUS
10
5.8953756299212596
20
-3.9397530314960627
11
5.8579740551181105
21
-3.9397530314960627
0
LINE
8
BLACK
6
CONTINUOUS
10
5.8579740551181105
20
-3.9397530314960627
11
5.8546114566929131
21
-3.9393103543307086
0
LINE
8
BLACK
6
CONTINUOUS
10
5.8546114566929131
20
-3.9393103543307086
11
5.8505220866141734
21
-3.9374034251968504
0
LINE
8
BLACK
6
CONTINUOUS
10
5.8505220866141734
20
-3.9374034251968504
11
5.8473315354330708
21
-3.9342128740157478
0
LINE
8
BLACK
6
CONTINUOUS
10
5.8473315354330708
20
-3.9342128740157478
11
5.8454246062992121
21
-3.9301235039370077
0
LINE
8
BLACK
6
CONTINUOUS
10
5.8454246062992121
20
-3.9301235039370077
11
5.8449819291338585
21
-3.9267609055118111
0
LINE
8
BLACK
6
CONTINUOUS
10
5.8449819291338585
20
-3.9267609055118111
11
5.8449819291338585
21
-3.9070758661417324
0
LINE
8
BLACK
6
CONTINUOUS
10
5.8449819291338585
20
-3.9070758661417324
11
5.8454246062992121
21
-3.9037132677165354
0
LINE
8
BLACK
6
CONTINUOUS
10
5.8454246062992121
20
-3.9037132677165354
11
5.8473315354330708
21
-3.8996238976377953
0
LINE
8
BLACK
6
CONTINUOUS
10
5.8473315354330708
20
-3.8996238976377953
11
5.8505220866141734
21
-3.8964333464566927
0
LINE
8
BLACK
6
CONTINUOUS
10
5.8505220866141734
20
-3.8964333464566927
11
5.8546114566929131
21
-3.8945264173228344
0
LINE
8
BLACK
6
CONTINUOUS
10
5.8546114566929131
20
-3.8945264173228344
11
5.8579740551181105
21
-3.8940837401574804
0
LINE
8
BLACK
6
CONTINUOUS
10
5.8579740551181105
20
-3.8940837401574804
11
5.8953756299212596
21
-3.8940837401574804
0
LINE
8
BLACK
6
CONTINUOUS
10
5.8953756299212596
20
-3.8940837401574804
11
5.8987382283464562
21
-3.8945264173228344
0
LINE
8
BLACK
6
CONTINUOUS
10
5.9827382283464567
20
-3.8945264173228344
11
5.9868275984251964
21
-3.8964333464566927
0
LINE
8
BLACK
6
CONTINUOUS
10
5.9868275984251964
20
-3.8964333464566927
11
5.990018149606299
21
-3.8996238976377953
0
LINE
8
BLACK
6
CONTINUOUS
10
5.990018149606299
20
-3.8996238976377953
11
5.9919250787401577
21
-3.9037132677165354
0
LINE
8
BLACK
6
CONTINUOUS
10
5.9919250787401577
20
-3.9037132677165354
11
5.9923677559055113
21
-3.9070758661417324
0
LINE
8
BLACK
6
CONTINUOUS
10
5.9923677559055113
20
-3.9070758661417324
11
5.9923677559055113
21
-3.9267609055118111
0
LINE
8
BLACK
6
CONTINUOUS
10
5.9923677559055113
20
-3.9267609055118111
11
5.9919250787401577
21
-3.9301235039370077
0
LINE
8
BLACK
6
CONTINUOUS
10
5.9919250787401577
20
-3.9301235039370077
11
5.990018149606299
21
-3.9342128740157478
0
LINE
8
BLACK
6
CONTINUOUS
10
5.990018149606299
20
-3.9342128740157478
11
5.9868275984251964
21
-3.9374034251968504
0
LINE
8
BLACK
6
CONTINUOUS
10
5.9868275984251964
20
-3.9374034251968504
11
5.9827382283464567
21
-3.9393103543307086
0
LINE
8
BLACK
6
CONTINUOUS
10
5.9827382283464567
20
-3.9393103543307086
11
5.9793756299212601
21
-3.9397530314960627
0
LINE
8
BLACK
6
CONTINUOUS
10
5.9793756299212601
20
-3.9397530314960627
11
5.9419740551181102
21
-3.9397530314960627
0
LINE
8
BLACK
6
CONTINUOUS
10
5.9419740551181102
20
-3.9397530314960627
11
5.9386114566929136
21
-3.9393103543307086
0
LINE
8
BLACK
6
CONTINUOUS
10
5.9386114566929136
20
-3.9393103543307086
11
5.934522086614173
21
-3.9374034251968504
0
LINE
8
BLACK
6
CONTINUOUS
10
5.934522086614173
20
-3.9374034251968504
11
5.9313315354330705
21
-3.9342128740157478
0
LINE
8
BLACK
6
CONTINUOUS
10
5.9313315354330705
20
-3.9342128740157478
11
5.9294246062992126
21
-3.9301235039370077
0
LINE
8
BLACK
6
CONTINUOUS
10
5.9294246062992126
20
-3.9301235039370077
11
5.9289819291338581
21
-3.9267609055118111
0
LINE
8
BLACK
6
CONTINUOUS
10
5.9289819291338581
20
-3.9267609055118111
11
5.9289819291338581
21
-3.9070758661417324
0
LINE
8
BLACK
6
CONTINUOUS
10
5.9289819291338581
20
-3.9070758661417324
11
5.9294246062992126
21
-3.9037132677165354
0
LINE
8
BLACK
6
CONTINUOUS
10
5.9294246062992126
20
-3.9037132677165354
11
5.9313315354330705
21
-3.8996238976377953
0
LINE
8
BLACK
6
CONTINUOUS
10
5.9313315354330705
20
-3.8996238976377953
11
5.934522086614173
21
-3.8964333464566927
0
LINE
8
BLACK
6
CONTINUOUS
10
5.934522086614173
20
-3.8964333464566927
11
5.9386114566929136
21
-3.8945264173228344
0
LINE
8
BLACK
6
CONTINUOUS
10
5.9386114566929136
20
-3.8945264173228344
11
5.9419740551181102
21
-3.8940837401574804
0
LINE
8
BLACK
6
CONTINUOUS
10
5.9419740551181102
20
-3.8940837401574804
11
5.9793756299212601
21
-3.8940837401574804
0
LINE
8
BLACK
6
CONTINUOUS
10
5.9793756299212601
20
-3.8940837401574804
11
5.9827382283464567
21
-3.8945264173228344
0
LINE
8
BLACK
6
CONTINUOUS
10
5.4738801574803144
20
-3.810606968503937
11
5.4749019685039366
21
-3.81128968503937
0
LINE
8
BLACK
6
CONTINUOUS
10
5.4749019685039366
20
-3.81128968503937
11
5.4755846850393697
21
-3.8123114960629922
0
LINE
8
BLACK
6
CONTINUOUS
10
5.4755846850393697
20
-3.8123114960629922
11
5.4758244488188978
21
-3.8135168110236219
0
LINE
8
BLACK
6
CONTINUOUS
10
5.4758244488188978
20
-3.8135168110236219
11
5.4758244488188978
21
-3.873516811023622
0
LINE
8
BLACK
6
CONTINUOUS
10
5.4758244488188978
20
-3.873516811023622
11
5.4755846850393697
21
-3.8747221259842517
0
LINE
8
BLACK
6
CONTINUOUS
10
5.4755846850393697
20
-3.8747221259842517
11
5.4749019685039366
21
-3.8757439370078739
0
LINE
8
BLACK
6
CONTINUOUS
10
5.4749019685039366
20
-3.8757439370078739
11
5.4738801574803144
21
-3.876426653543307
0
LINE
8
BLACK
6
CONTINUOUS
10
5.4738801574803144
20
-3.876426653543307
11
5.4726748425196847
21
-3.8766664173228347
0
LINE
8
BLACK
6
CONTINUOUS
10
5.4726748425196847
20
-3.8766664173228347
11
5.4126748425196851
21
-3.8766664173228347
0
LINE
8
BLACK
6
CONTINUOUS
10
5.4126748425196851
20
-3.8766664173228347
11
5.4114695275590554
21
-3.876426653543307
0
LINE
8
BLACK
6
CONTINUOUS
10
5.4114695275590554
20
-3.876426653543307
11
5.4104477165354332
21
-3.8757439370078739
0
LINE
8
BLACK
6
CONTINUOUS
10
5.4104477165354332
20
-3.8757439370078739
11
5.4097650000000002
21
-3.8747221259842517
0
LINE
8
BLACK
6
CONTINUOUS
10
5.4097650000000002
20
-3.8747221259842517
11
5.409525236220472
21
-3.873516811023622
0
LINE
8
BLACK
6
CONTINUOUS
10
5.409525236220472
20
-3.873516811023622
11
5.409525236220472
21
-3.8135168110236219
0
LINE
8
BLACK
6
CONTINUOUS
10
5.409525236220472
20
-3.8135168110236219
11
5.4097650000000002
21
-3.8123114960629922
0
LINE
8
BLACK
6
CONTINUOUS
10
5.4097650000000002
20
-3.8123114960629922
11
5.4104477165354332
21
-3.81128968503937
0
LINE
8
BLACK
6
CONTINUOUS
10
5.4104477165354332
20
-3.81128968503937
11
5.4114695275590554
21
-3.810606968503937
0
LINE
8
BLACK
6
CONTINUOUS
10
5.4114695275590554
20
-3.810606968503937
11
5.4126748425196851
21
-3.8103672047244093
0
LINE
8
BLACK
6
CONTINUOUS
10
5.4126748425196851
20
-3.8103672047244093
11
5.4726748425196847
21
-3.8103672047244093
0
LINE
8
BLACK
6
CONTINUOUS
10
5.4726748425196847
20
-3.8103672047244093
11
5.4738801574803144
21
-3.810606968503937
0
LINE
8
BLACK
6
CONTINUOUS
10
5.573880157480315
20
-3.810606968503937
11
5.5749019685039372
21
-3.81128968503937
0
LINE
8
BLACK
6
CONTINUOUS
10
5.5749019685039372
20
-3.81128968503937
11
5.5755846850393702
21
-3.8123114960629922
0
LINE
8
BLACK
6
CONTINUOUS
10
5.5755846850393702
20
-3.8123114960629922
11
5.5758244488188975
21
-3.8135168110236219
0
LINE
8
BLACK
6
CONTINUOUS
10
5.5758244488188975
20
-3.8135168110236219
11
5.5758244488188975
21
-3.873516811023622
0
LINE
8
BLACK
6
CONTINUOUS
10
5.5758244488188975
20
-3.873516811023622
11
5.5755846850393702
21
-3.8747221259842517
0
LINE
8
BLACK
6
CONTINUOUS
10
5.5755846850393702
20
-3.8747221259842517
11
5.5749019685039372
21
-3.8757439370078739
0
LINE
8
BLACK
6
CONTINUOUS
10
5.5749019685039372
20
-3.8757439370078739
11
5.573880157480315
21
-3.876426653543307
0
LINE
8
BLACK
6
CONTINUOUS
10
5.573880157480315
20
-3.876426653543307
11
5.5726748425196853
21
-3.8766664173228347
0
LINE
8
BLACK
6
CONTINUOUS
10
5.5726748425196853
20
-3.8766664173228347
11
5.5126748425196848
21
-3.8766664173228347
0
LINE
8
BLACK
6
CONTINUOUS
10
5.5126748425196848
20
-3.8766664173228347
11
5.5114695275590551
21
-3.876426653543307
0
LINE
8
BLACK
6
CONTINUOUS
10
5.5114695275590551
20
-3.876426653543307
11
5.5104477165354329
21
-3.8757439370078739
0
LINE
8
BLACK
6
CONTINUOUS
10
5.5104477165354329
20
-3.8757439370078739
11
5.5097649999999998
21
-3.8747221259842517
0
LINE
8
BLACK
6
CONTINUOUS
10
5.5097649999999998
20
-3.8747221259842517
11
5.5095252362204725
21
-3.873516811023622
0
LINE
8
BLACK
6
CONTINUOUS
10
5.5095252362204725
20
-3.873516811023622
11
5.5095252362204725
21
-3.8135168110236219
0
LINE
8
BLACK
6
CONTINUOUS
10
5.5095252362204725
20
-3.8135168110236219
11
5.5097649999999998
21
-3.8123114960629922
0
LINE
8
BLACK
6
CONTINUOUS
10
5.5097649999999998
20
-3.8123114960629922
11
5.5104477165354329
21
-3.81128968503937
0
LINE
8
BLACK
6
CONTINUOUS
10
5.5104477165354329
20
-3.81128968503937
11
5.5114695275590551
21
-3.810606968503937
0
LINE
8
BLACK
6
CONTINUOUS
10
5.5114695275590551
20
-3.810606968503937
11
5.5126748425196848
21
-3.8103672047244093
0
LINE
8
BLACK
6
CONTINUOUS
10
5.5126748425196848
20
-3.8103672047244093
11
5.5726748425196853
21
-3.8103672047244093
0
LINE
8
BLACK
6
CONTINUOUS
10
5.5726748425196853
20
-3.8103672047244093
11
5.573880157480315
21
-3.810606968503937
0
LINE
8
BLACK
6
CONTINUOUS
10
5.8987382283464562
20
-3.8197232677165354
11
5.9028275984251968
21
-3.8216301968503936
0
LINE
8
BLACK
6
CONTINUOUS
10
5.9028275984251968
20
-3.8216301968503936
11
5.9060181496062993
21
-3.8248207480314962
0
LINE
8
BLACK
6
CONTINUOUS
10
5.9060181496062993
20
-3.8248207480314962
11
5.9079250787401572
21
-3.8289101181102363
0
LINE
8
BLACK
6
CONTINUOUS
10
5.9079250787401572
20
-3.8289101181102363
11
5.9083677559055117
21
-3.8322727165354329
0
LINE
8
BLACK
6
CONTINUOUS
10
5.9083677559055117
20
-3.8322727165354329
11
5.9083677559055117
21
-3.8519577559055116
0
LINE
8
BLACK
6
CONTINUOUS
10
5.9083677559055117
20
-3.8519577559055116
11
5.9079250787401572
21
-3.8553203543307086
0
LINE
8
BLACK
6
CONTINUOUS
10
5.9079250787401572
20
-3.8553203543307086
11
5.9060181496062993
21
-3.8594097244094487
0
LINE
8
BLACK
6
CONTINUOUS
10
5.9060181496062993
20
-3.8594097244094487
11
5.9028275984251968
21
-3.8626002755905513
0
LINE
8
BLACK
6
CONTINUOUS
10
5.9028275984251968
20
-3.8626002755905513
11
5.8987382283464562
21
-3.8645072047244096
0
LINE
8
BLACK
6
CONTINUOUS
10
5.8987382283464562
20
-3.8645072047244096
11
5.8953756299212596
21
-3.8649498818897636
0
LINE
8
BLACK
6
CONTINUOUS
10
5.8953756299212596
20
-3.8649498818897636
11
5.8579740551181105
21
-3.8649498818897636
0
LINE
8
BLACK
6
CONTINUOUS
10
5.8579740551181105
20
-3.8649498818897636
11
5.8546114566929131
21
-3.8645072047244096
0
LINE
8
BLACK
6
CONTINUOUS
10
5.8546114566929131
20
-3.8645072047244096
11
5.8505220866141734
21
-3.8626002755905513
0
LINE
8
BLACK
6
CONTINUOUS
10
5.8505220866141734
20
-3.8626002755905513
11
5.8473315354330708
21
-3.8594097244094487
0
LINE
8
BLACK
6
CONTINUOUS
10
5.8473315354330708
20
-3.8594097244094487
11
5.8454246062992121
21
-3.8553203543307086
0
LINE
8
BLACK
6
CONTINUOUS
10
5.8454246062992121
20
-3.8553203543307086
11
5.8449819291338585
21
-3.8519577559055116
0
LINE
8
BLACK
6
CONTINUOUS
10
5.8449819291338585
20
-3.8519577559055116
11
5.8449819291338585
21
-3.8322727165354329
0
LINE
8
BLACK
6
CONTINUOUS
10
5.8449819291338585
20
-3.8322727165354329
11
5.8454246062992121
21
-3.8289101181102363
0
LINE
8
BLACK
6
CONTINUOUS
10
5.8454246062992121
20
-3.8289101181102363
11
5.8473315354330708
21
-3.8248207480314962
0
LINE
8
BLACK
6
CONTINUOUS
10
5.8473315354330708
20
-3.8248207480314962
11
5.8505220866141734
21
-3.8216301968503936
0
LINE
8
BLACK
6
CONTINUOUS
10
5.8505220866141734
20
-3.8216301968503936
11
5.8546114566929131
21
-3.8197232677165354
0
LINE
8
BLACK
6
CONTINUOUS
10
5.8546114566929131
20
-3.8197232677165354
11
5.8579740551181105
21
-3.8192805905511809
0
LINE
8
BLACK
6
CONTINUOUS
10
5.8579740551181105
20
-3.8192805905511809
11
5.8953756299212596
21
-3.8192805905511809
0
LINE
8
BLACK
6
CONTINUOUS
10
5.8953756299212596
20
-3.8192805905511809
11
5.8987382283464562
21
-3.8197232677165354
0
LINE
8
BLACK
6
CONTINUOUS
10
5.9827382283464567
20
-3.8197232677165354
11
5.9868275984251964
21
-3.8216301968503936
0
LINE
8
BLACK
6
CONTINUOUS
10
5.9868275984251964
20
-3.8216301968503936
11
5.990018149606299
21
-3.8248207480314962
0
LINE
8
BLACK
6
CONTINUOUS
10
5.990018149606299
20
-3.8248207480314962
11
5.9919250787401577
21
-3.8289101181102363
0
LINE
8
BLACK
6
CONTINUOUS
10
5.9919250787401577
20
-3.8289101181102363
11
5.9923677559055113
21
-3.8322727165354329
0
LINE
8
BLACK
6
CONTINUOUS
10
5.9923677559055113
20
-3.8322727165354329
11
5.9923677559055113
21
-3.8519577559055116
0
LINE
8
BLACK
6
CONTINUOUS
10
5.9923677559055113
20
-3.8519577559055116
11
5.9919250787401577
21
-3.8553203543307086
0
LINE
8
BLACK
6
CONTINUOUS
10
5.9919250787401577
20
-3.8553203543307086
11
5.990018149606299
21
-3.8594097244094487
0
LINE
8
BLACK
6
CONTINUOUS
10
5.990018149606299
20
-3.8594097244094487
11
5.9868275984251964
21
-3.8626002755905513
0
LINE
8
BLACK
6
CONTINUOUS
10
5.9868275984251964
20
-3.8626002755905513
11
5.9827382283464567
21
-3.8645072047244096
0
LINE
8
BLACK
6
CONTINUOUS
10
5.9827382283464567
20
-3.8645072047244096
11
5.9793756299212601
21
-3.8649498818897636
0
LINE
8
BLACK
6
CONTINUOUS
10
5.9793756299212601
20
-3.8649498818897636
11
5.9419740551181102
21
-3.8649498818897636
0
LINE
8
BLACK
6
CONTINUOUS
10
5.9419740551181102
20
-3.8649498818897636
11
5.9386114566929136
21
-3.8645072047244096
0
LINE
8
BLACK
6
CONTINUOUS
10
5.9386114566929136
20
-3.8645072047244096
11
5.934522086614173
21
-3.8626002755905513
0
LINE
8
BLACK
6
CONTINUOUS
10
5.934522086614173
20
-3.8626002755905513
11
5.9313315354330705
21
-3.8594097244094487
0
LINE
8
BLACK
6
CONTINUOUS
10
5.9313315354330705
20
-3.8594097244094487
11
5.9294246062992126
21
-3.8553203543307086
0
LINE
8
BLACK
6
CONTINUOUS
10
5.9294246062992126
20
-3.8553203543307086
11
5.9289819291338581
21
-3.8519577559055116
0
LINE
8
BLACK
6
CONTINUOUS
10
5.9289819291338581
20
-3.8519577559055116
11
5.9289819291338581
21
-3.8322727165354329
0
LINE
8
BLACK
6
CONTINUOUS
10
5.9289819291338581
20
-3.8322727165354329
11
5.9294246062992126
21
-3.8289101181102363
0
LINE
8
BLACK
6
CONTINUOUS
10
5.9294246062992126
20
-3.8289101181102363
11
5.9313315354330705
21
-3.8248207480314962
0
LINE
8
BLACK
6
CONTINUOUS
10
5.9313315354330705
20
-3.8248207480314962
11
5.934522086614173
21
-3.8216301968503936
0
LINE
8
BLACK
6
CONTINUOUS
10
5.934522086614173
20
-3.8216301968503936
11
5.9386114566929136
21
-3.8197232677165354
0
LINE
8
BLACK
6
CONTINUOUS
10
5.9386114566929136
20
-3.8197232677165354
11
5.9419740551181102
21
-3.8192805905511809
0
LINE
8
BLACK
6
CONTINUOUS
10
5.9419740551181102
20
-3.8192805905511809
11
5.9793756299212601
21
-3.8192805905511809
0
LINE
8
BLACK
6
CONTINUOUS
10
5.9793756299212601
20
-3.8192805905511809
11
5.9827382283464567
21
-3.8197232677165354
0
LINE
8
BLACK
6
CONTINUOUS
10
6.0808250393700787
20
-3.8024809842519685
11
6.0818468503937009
21
-3.8031637007874015
0
LINE
8
BLACK
6
CONTINUOUS
10
6.0818468503937009
20
-3.8031637007874015
11
6.0825295669291339
21
-3.8041855118110237
0
LINE
8
BLACK
6
CONTINUOUS
10
6.0825295669291339
20
-3.8041855118110237
11
6.0827693307086612
21
-3.8053908267716534
0
LINE
8
BLACK
6
CONTINUOUS
10
6.0827693307086612
20
-3.8053908267716534
11
6.0827693307086612
21
-3.8526349212598423
0
LINE
8
BLACK
6
CONTINUOUS
10
6.0827693307086612
20
-3.8526349212598423
11
6.0825295669291339
21
-3.8538402362204724
0
LINE
8
BLACK
6
CONTINUOUS
10
6.0825295669291339
20
-3.8538402362204724
11
6.0818468503937009
21
-3.8548620472440942
0
LINE
8
BLACK
6
CONTINUOUS
10
6.0818468503937009
20
-3.8548620472440942
11
6.0808250393700787
21
-3.8555447637795273
0
LINE
8
BLACK
6
CONTINUOUS
10
6.0808250393700787
20
-3.8555447637795273
11
6.079619724409449
21
-3.855784527559055
0
LINE
8
BLACK
6
CONTINUOUS
10
6.079619724409449
20
-3.855784527559055
11
6.0166275984251971
21
-3.855784527559055
0
LINE
8
BLACK
6
CONTINUOUS
10
6.0166275984251971
20
-3.855784527559055
11
6.0154222834645665
21
-3.8555447637795273
0
LINE
8
BLACK
6
CONTINUOUS
10
6.0154222834645665
20
-3.8555447637795273
11
6.0144004724409443
21
-3.8548620472440942
0
LINE
8
BLACK
6
CONTINUOUS
10
6.0144004724409443
20
-3.8548620472440942
11
6.0137177559055113
21
-3.8538402362204724
0
LINE
8
BLACK
6
CONTINUOUS
10
6.0137177559055113
20
-3.8538402362204724
11
6.013477992125984
21
-3.8526349212598423
0
LINE
8
BLACK
6
CONTINUOUS
10
6.013477992125984
20
-3.8526349212598423
11
6.013477992125984
21
-3.8053908267716534
0
LINE
8
BLACK
6
CONTINUOUS
10
6.013477992125984
20
-3.8053908267716534
11
6.0137177559055113
21
-3.8041855118110237
0
LINE
8
BLACK
6
CONTINUOUS
10
6.0137177559055113
20
-3.8041855118110237
11
6.0144004724409443
21
-3.8031637007874015
0
LINE
8
BLACK
6
CONTINUOUS
10
6.0144004724409443
20
-3.8031637007874015
11
6.0154222834645665
21
-3.8024809842519685
0
LINE
8
BLACK
6
CONTINUOUS
10
6.0154222834645665
20
-3.8024809842519685
11
6.0166275984251971
21
-3.8022412204724407
0
LINE
8
BLACK
6
CONTINUOUS
10
6.0166275984251971
20
-3.8022412204724407
11
6.079619724409449
21
-3.8022412204724407
0
LINE
8
BLACK
6
CONTINUOUS
10
6.079619724409449
20
-3.8022412204724407
11
6.0808250393700787
21
-3.8024809842519685
0
LINE
8
BLACK
6
CONTINUOUS
10
5.4738801574803144
20
-3.7106069685039369
11
5.4749019685039366
21
-3.71128968503937
0
LINE
8
BLACK
6
CONTINUOUS
10
5.4749019685039366
20
-3.71128968503937
11
5.4755846850393697
21
-3.7123114960629922
0
LINE
8
BLACK
6
CONTINUOUS
10
5.4755846850393697
20
-3.7123114960629922
11
5.4758244488188978
21
-3.7135168110236219
0
LINE
8
BLACK
6
CONTINUOUS
10
5.4758244488188978
20
-3.7135168110236219
11
5.4758244488188978
21
-3.7735168110236219
0
LINE
8
BLACK
6
CONTINUOUS
10
5.4758244488188978
20
-3.7735168110236219
11
5.4755846850393697
21
-3.7747221259842521
0
LINE
8
BLACK
6
CONTINUOUS
10
5.4755846850393697
20
-3.7747221259842521
11
5.4749019685039366
21
-3.7757439370078738
0
LINE
8
BLACK
6
CONTINUOUS
10
5.4749019685039366
20
-3.7757439370078738
11
5.4738801574803144
21
-3.7764266535433069
0
LINE
8
BLACK
6
CONTINUOUS
10
5.4738801574803144
20
-3.7764266535433069
11
5.4726748425196847
21
-3.7766664173228346
0
LINE
8
BLACK
6
CONTINUOUS
10
5.4726748425196847
20
-3.7766664173228346
11
5.4126748425196851
21
-3.7766664173228346
0
LINE
8
BLACK
6
CONTINUOUS
10
5.4126748425196851
20
-3.7766664173228346
11
5.4114695275590554
21
-3.7764266535433069
0
LINE
8
BLACK
6
CONTINUOUS
10
5.4114695275590554
20
-3.7764266535433069
11
5.4104477165354332
21
-3.7757439370078738
0
LINE
8
BLACK
6
CONTINUOUS
10
5.4104477165354332
20
-3.7757439370078738
11
5.4097650000000002
21
-3.7747221259842521
0
LINE
8
BLACK
6
CONTINUOUS
10
5.4097650000000002
20
-3.7747221259842521
11
5.409525236220472
21
-3.7735168110236219
0
LINE
8
BLACK
6
CONTINUOUS
10
5.409525236220472
20
-3.7735168110236219
11
5.409525236220472
21
-3.7135168110236219
0
LINE
8
BLACK
6
CONTINUOUS
10
5.409525236220472
20
-3.7135168110236219
11
5.4097650000000002
21
-3.7123114960629922
0
LINE
8
BLACK
6
CONTINUOUS
10
5.4097650000000002
20
-3.7123114960629922
11
5.4104477165354332
21
-3.71128968503937
0
LINE
8
BLACK
6
CONTINUOUS
10
5.4104477165354332
20
-3.71128968503937
11
5.4114695275590554
21
-3.7106069685039369
0
LINE
8
BLACK
6
CONTINUOUS
10
5.4114695275590554
20
-3.7106069685039369
11
5.4126748425196851
21
-3.7103672047244092
0
LINE
8
BLACK
6
CONTINUOUS
10
5.4126748425196851
20
-3.7103672047244092
11
5.4726748425196847
21
-3.7103672047244092
0
LINE
8
BLACK
6
CONTINUOUS
10
5.4726748425196847
20
-3.7103672047244092
11
5.4738801574803144
21
-3.7106069685039369
0
LINE
8
BLACK
6
CONTINUOUS
10
5.573880157480315
20
-3.7106069685039369
11
5.5749019685039372
21
-3.71128968503937
0
LINE
8
BLACK
6
CONTINUOUS
10
5.5749019685039372
20
-3.71128968503937
11
5.5755846850393702
21
-3.7123114960629922
0
LINE
8
BLACK
6
CONTINUOUS
10
5.5755846850393702
20
-3.7123114960629922
11
5.5758244488188975
21
-3.7135168110236219
0
LINE
8
BLACK
6
CONTINUOUS
10
5.5758244488188975
20
-3.7135168110236219
11
5.5758244488188975
21
-3.7735168110236219
0
LINE
8
BLACK
6
CONTINUOUS
10
5.5758244488188975
20
-3.7735168110236219
11
5.5755846850393702
21
-3.7747221259842521
0
LINE
8
BLACK
6
CONTINUOUS
10
5.5755846850393702
20
-3.7747221259842521
11
5.5749019685039372
21
-3.7757439370078738
0
LINE
8
BLACK
6
CONTINUOUS
10
5.5749019685039372
20
-3.7757439370078738
11
5.573880157480315
21
-3.7764266535433069
0
LINE
8
BLACK
6
CONTINUOUS
10
5.573880157480315
20
-3.7764266535433069
11
5.5726748425196853
21
-3.7766664173228346
0
LINE
8
BLACK
6
CONTINUOUS
10
5.5726748425196853
20
-3.7766664173228346
11
5.5126748425196848
21
-3.7766664173228346
0
LINE
8
BLACK
6
CONTINUOUS
10
5.5126748425196848
20
-3.7766664173228346
11
5.5114695275590551
21
-3.7764266535433069
0
LINE
8
BLACK
6
CONTINUOUS
10
5.5114695275590551
20
-3.7764266535433069
11
5.5104477165354329
21
-3.7757439370078738
0
LINE
8
BLACK
6
CONTINUOUS
10
5.5104477165354329
20
-3.7757439370078738
11
5.5097649999999998
21
-3.7747221259842521
0
LINE
8
BLACK
6
CONTINUOUS
10
5.5097649999999998
20
-3.7747221259842521
11
5.5095252362204725
21
-3.7735168110236219
0
LINE
8
BLACK
6
CONTINUOUS
10
5.5095252362204725
20
-3.7735168110236219
11
5.5095252362204725
21
-3.7135168110236219
0
LINE
8
BLACK
6
CONTINUOUS
10
5.5095252362204725
20
-3.7135168110236219
11
5.5097649999999998
21
-3.7123114960629922
0
LINE
8
BLACK
6
CONTINUOUS
10
5.5097649999999998
20
-3.7123114960629922
11
5.5104477165354329
21
-3.71128968503937
0
LINE
8
BLACK
6
CONTINUOUS
10
5.5104477165354329
20
-3.71128968503937
11
5.5114695275590551
21
-3.7106069685039369
0
LINE
8
BLACK
6
CONTINUOUS
10
5.5114695275590551
20
-3.7106069685039369
11
5.5126748425196848
21
-3.7103672047244092
0
LINE
8
BLACK
6
CONTINUOUS
10
5.5126748425196848
20
-3.7103672047244092
11
5.5726748425196853
21
-3.7103672047244092
0
LINE
8
BLACK
6
CONTINUOUS
10
5.5726748425196853
20
-3.7103672047244092
11
5.573880157480315
21
-3.7106069685039369
0
LINE
8
BLACK
6
CONTINUOUS
10
5.8964468897637792
20
-3.7032508267716535
11
5.9005362598425197
21
-3.7051577559055118
0
LINE
8
BLACK
6
CONTINUOUS
10
5.9005362598425197
20
-3.7051577559055118
11
5.9037268110236223
21
-3.7083483070866139
0
LINE
8
BLACK
6
CONTINUOUS
10
5.9037268110236223
20
-3.7083483070866139
11
5.9056337401574801
21
-3.7124376771653544
0
LINE
8
BLACK
6
CONTINUOUS
10
5.9056337401574801
20
-3.7124376771653544
11
5.9060764173228346
21
-3.715800275590551
0
LINE
8
BLACK
6
CONTINUOUS
10
5.9060764173228346
20
-3.715800275590551
11
5.9060764173228346
21
-3.7512333464566927
0
LINE
8
BLACK
6
CONTINUOUS
10
5.9060764173228346
20
-3.7512333464566927
11
5.9056337401574801
21
-3.7545959448818897
0
LINE
8
BLACK
6
CONTINUOUS
10
5.9056337401574801
20
-3.7545959448818897
11
5.9037268110236223
21
-3.7586853149606299
0
LINE
8
BLACK
6
CONTINUOUS
10
5.9037268110236223
20
-3.7586853149606299
11
5.9005362598425197
21
-3.7618758661417324
0
LINE
8
BLACK
6
CONTINUOUS
10
5.9005362598425197
20
-3.7618758661417324
11
5.8964468897637792
21
-3.7637827952755907
0
LINE
8
BLACK
6
CONTINUOUS
10
5.8964468897637792
20
-3.7637827952755907
11
5.8930842913385826
21
-3.7642254724409447
0
LINE
8
BLACK
6
CONTINUOUS
10
5.8930842913385826
20
-3.7642254724409447
11
5.8724150000000002
21
-3.7642254724409447
0
LINE
8
BLACK
6
CONTINUOUS
10
5.8724150000000002
20
-3.7642254724409447
11
5.8690524015748027
21
-3.7637827952755907
0
LINE
8
BLACK
6
CONTINUOUS
10
5.8690524015748027
20
-3.7637827952755907
11
5.864963031496063
21
-3.7618758661417324
0
LINE
8
BLACK
6
CONTINUOUS
10
5.864963031496063
20
-3.7618758661417324
11
5.8617724803149605
21
-3.7586853149606299
0
LINE
8
BLACK
6
CONTINUOUS
10
5.8617724803149605
20
-3.7586853149606299
11
5.8598655511811026
21
-3.7545959448818897
0
LINE
8
BLACK
6
CONTINUOUS
10
5.8598655511811026
20
-3.7545959448818897
11
5.8594228740157481
21
-3.7512333464566927
0
LINE
8
BLACK
6
CONTINUOUS
10
5.8594228740157481
20
-3.7512333464566927
11
5.8594228740157481
21
-3.715800275590551
0
LINE
8
BLACK
6
CONTINUOUS
10
5.8594228740157481
20
-3.715800275590551
11
5.8598655511811026
21
-3.7124376771653544
0
LINE
8
BLACK
6
CONTINUOUS
10
5.8598655511811026
20
-3.7124376771653544
11
5.8617724803149605
21
-3.7083483070866139
0
LINE
8
BLACK
6
CONTINUOUS
10
5.8617724803149605
20
-3.7083483070866139
11
5.864963031496063
21
-3.7051577559055118
0
LINE
8
BLACK
6
CONTINUOUS
10
5.864963031496063
20
-3.7051577559055118
11
5.8690524015748027
21
-3.7032508267716535
0
LINE
8
BLACK
6
CONTINUOUS
10
5.8690524015748027
20
-3.7032508267716535
11
5.8724150000000002
21
-3.702808149606299
0
LINE
8
BLACK
6
CONTINUOUS
10
5.8724150000000002
20
-3.702808149606299
11
5.8930842913385826
21
-3.702808149606299
0
LINE
8
BLACK
6
CONTINUOUS
10
5.8930842913385826
20
-3.702808149606299
11
5.8964468897637792
21
-3.7032508267716535
0
LINE
8
BLACK
6
CONTINUOUS
10
5.9682972834645671
20
-3.7032508267716535
11
5.9723866535433068
21
-3.7051577559055118
0
LINE
8
BLACK
6
CONTINUOUS
10
5.9723866535433068
20
-3.7051577559055118
11
5.9755772047244093
21
-3.7083483070866139
0
LINE
8
BLACK
6
CONTINUOUS
10
5.9755772047244093
20
-3.7083483070866139
11
5.9774841338582672
21
-3.7124376771653544
0
LINE
8
BLACK
6
CONTINUOUS
10
5.9774841338582672
20
-3.7124376771653544
11
5.9779268110236217
21
-3.715800275590551
0
LINE
8
BLACK
6
CONTINUOUS
10
5.9779268110236217
20
-3.715800275590551
11
5.9779268110236217
21
-3.7512333464566927
0
LINE
8
BLACK
6
CONTINUOUS
10
5.9779268110236217
20
-3.7512333464566927
11
5.9774841338582672
21
-3.7545959448818897
0
LINE
8
BLACK
6
CONTINUOUS
10
5.9774841338582672
20
-3.7545959448818897
11
5.9755772047244093
21
-3.7586853149606299
0
LINE
8
BLACK
6
CONTINUOUS
10
5.9755772047244093
20
-3.7586853149606299
11
5.9723866535433068
21
-3.7618758661417324
0
LINE
8
BLACK
6
CONTINUOUS
10
5.9723866535433068
20
-3.7618758661417324
11
5.9682972834645671
21
-3.7637827952755907
0
LINE
8
BLACK
6
CONTINUOUS
10
5.9682972834645671
20
-3.7637827952755907
11
5.9649346850393696
21
-3.7642254724409447
0
LINE
8
BLACK
6
CONTINUOUS
10
5.9649346850393696
20
-3.7642254724409447
11
5.9442653937007872
21
-3.7642254724409447
0
LINE
8
BLACK
6
CONTINUOUS
10
5.9442653937007872
20
-3.7642254724409447
11
5.9409027952755906
21
-3.7637827952755907
0
LINE
8
BLACK
6
CONTINUOUS
10
5.9409027952755906
20
-3.7637827952755907
11
5.9368134251968501
21
-3.7618758661417324
0
LINE
8
BLACK
6
CONTINUOUS
10
5.9368134251968501
20
-3.7618758661417324
11
5.9336228740157475
21
-3.7586853149606299
0
LINE
8
BLACK
6
CONTINUOUS
10
5.9336228740157475
20
-3.7586853149606299
11
5.9317159448818897
21
-3.7545959448818897
0
LINE
8
BLACK
6
CONTINUOUS
10
5.9317159448818897
20
-3.7545959448818897
11
5.9312732677165352
21
-3.7512333464566927
0
LINE
8
BLACK
6
CONTINUOUS
10
5.9312732677165352
20
-3.7512333464566927
11
5.9312732677165352
21
-3.715800275590551
0
LINE
8
BLACK
6
CONTINUOUS
10
5.9312732677165352
20
-3.715800275590551
11
5.9317159448818897
21
-3.7124376771653544
0
LINE
8
BLACK
6
CONTINUOUS
10
5.9317159448818897
20
-3.7124376771653544
11
5.9336228740157475
21
-3.7083483070866139
0
LINE
8
BLACK
6
CONTINUOUS
10
5.9336228740157475
20
-3.7083483070866139
11
5.9368134251968501
21
-3.7051577559055118
0
LINE
8
BLACK
6
CONTINUOUS
10
5.9368134251968501
20
-3.7051577559055118
11
5.9409027952755906
21
-3.7032508267716535
0
LINE
8
BLACK
6
CONTINUOUS
10
5.9409027952755906
20
-3.7032508267716535
11
5.9442653937007872
21
-3.702808149606299
0
LINE
8
BLACK
6
CONTINUOUS
10
5.9442653937007872
20
-3.702808149606299
11
5.9649346850393696
21
-3.702808149606299
0
LINE
8
BLACK
6
CONTINUOUS
10
5.9649346850393696
20
-3.702808149606299
11
5.9682972834645671
21
-3.7032508267716535
0
LINE
8
BLACK
6
CONTINUOUS
10
6.0808250393700787
20
-3.7040557874015749
11
6.0818468503937009
21
-3.704738503937008
0
LINE
8
BLACK
6
CONTINUOUS
10
6.0818468503937009
20
-3.704738503937008
11
6.0825295669291339
21
-3.7057603149606297
0
LINE
8
BLACK
6
CONTINUOUS
10
6.0825295669291339
20
-3.7057603149606297
11
6.0827693307086612
21
-3.7069656299212599
0
LINE
8
BLACK
6
CONTINUOUS
10
6.0827693307086612
20
-3.7069656299212599
11
6.0827693307086612
21
-3.7542097244094488
0
LINE
8
BLACK
6
CONTINUOUS
10
6.0827693307086612
20
-3.7542097244094488
11
6.0825295669291339
21
-3.7554150393700785
0
LINE
8
BLACK
6
CONTINUOUS
10
6.0825295669291339
20
-3.7554150393700785
11
6.0818468503937009
21
-3.7564368503937007
0
LINE
8
BLACK
6
CONTINUOUS
10
6.0818468503937009
20
-3.7564368503937007
11
6.0808250393700787
21
-3.7571195669291337
0
LINE
8
BLACK
6
CONTINUOUS
10
6.0808250393700787
20
-3.7571195669291337
11
6.079619724409449
21
-3.7573593307086615
0
LINE
8
BLACK
6
CONTINUOUS
10
6.079619724409449
20
-3.7573593307086615
11
6.0166275984251971
21
-3.7573593307086615
0
LINE
8
BLACK
6
CONTINUOUS
10
6.0166275984251971
20
-3.7573593307086615
11
6.0154222834645665
21
-3.7571195669291337
0
LINE
8
BLACK
6
CONTINUOUS
10
6.0154222834645665
20
-3.7571195669291337
11
6.0144004724409443
21
-3.7564368503937007
0
LINE
8
BLACK
6
CONTINUOUS
10
6.0144004724409443
20
-3.7564368503937007
11
6.0137177559055113
21
-3.7554150393700785
0
LINE
8
BLACK
6
CONTINUOUS
10
6.0137177559055113
20
-3.7554150393700785
11
6.013477992125984
21
-3.7542097244094488
0
LINE
8
BLACK
6
CONTINUOUS
10
6.013477992125984
20
-3.7542097244094488
11
6.013477992125984
21
-3.7069656299212599
0
LINE
8
BLACK
6
CONTINUOUS
10
6.013477992125984
20
-3.7069656299212599
11
6.0137177559055113
21
-3.7057603149606297
0
LINE
8
BLACK
6
CONTINUOUS
10
6.0137177559055113
20
-3.7057603149606297
11
6.0144004724409443
21
-3.704738503937008
0
LINE
8
BLACK
6
CONTINUOUS
10
6.0144004724409443
20
-3.704738503937008
11
6.0154222834645665
21
-3.7040557874015749
0
LINE
8
BLACK
6
CONTINUOUS
10
6.0154222834645665
20
-3.7040557874015749
11
6.0166275984251971
21
-3.7038160236220472
0
LINE
8
BLACK
6
CONTINUOUS
10
6.0166275984251971
20
-3.7038160236220472
11
6.079619724409449
21
-3.7038160236220472
0
LINE
8
BLACK
6
CONTINUOUS
10
6.079619724409449
20
-3.7038160236220472
11
6.0808250393700787
21
-3.7040557874015749
0
LINE
8
BLACK
6
CONTINUOUS
10
5.8964468897637792
20
-3.6012508267716536
11
5.9005362598425197
21
-3.6031577559055119
0
LINE
8
BLACK
6
CONTINUOUS
10
5.9005362598425197
20
-3.6031577559055119
11
5.9037268110236223
21
-3.606348307086614
0
LINE
8
BLACK
6
CONTINUOUS
10
5.9037268110236223
20
-3.606348307086614
11
5.9056337401574801
21
-3.6104376771653541
0
LINE
8
BLACK
6
CONTINUOUS
10
5.9056337401574801
20
-3.6104376771653541
11
5.9060764173228346
21
-3.6138002755905512
0
LINE
8
BLACK
6
CONTINUOUS
10
5.9060764173228346
20
-3.6138002755905512
11
5.9060764173228346
21
-3.6492333464566928
0
LINE
8
BLACK
6
CONTINUOUS
10
5.9060764173228346
20
-3.6492333464566928
11
5.9056337401574801
21
-3.6525959448818899
0
LINE
8
BLACK
6
CONTINUOUS
10
5.9056337401574801
20
-3.6525959448818899
11
5.9037268110236223
21
-3.65668531496063
0
LINE
8
BLACK
6
CONTINUOUS
10
5.9037268110236223
20
-3.65668531496063
11
5.9005362598425197
21
-3.6598758661417321
0
LINE
8
BLACK
6
CONTINUOUS
10
5.9005362598425197
20
-3.6598758661417321
11
5.8964468897637792
21
-3.6617827952755904
0
LINE
8
BLACK
6
CONTINUOUS
10
5.8964468897637792
20
-3.6617827952755904
11
5.8930842913385826
21
-3.6622254724409449
0
LINE
8
BLACK
6
CONTINUOUS
10
5.8930842913385826
20
-3.6622254724409449
11
5.8724150000000002
21
-3.6622254724409449
0
LINE
8
BLACK
6
CONTINUOUS
10
5.8724150000000002
20
-3.6622254724409449
11
5.8690524015748027
21
-3.6617827952755904
0
LINE
8
BLACK
6
CONTINUOUS
10
5.8690524015748027
20
-3.6617827952755904
11
5.864963031496063
21
-3.6598758661417321
0
LINE
8
BLACK
6
CONTINUOUS
10
5.864963031496063
20
-3.6598758661417321
11
5.8617724803149605
21
-3.65668531496063
0
LINE
8
BLACK
6
CONTINUOUS
10
5.8617724803149605
20
-3.65668531496063
11
5.8598655511811026
21
-3.6525959448818899
0
LINE
8
BLACK
6
CONTINUOUS
10
5.8598655511811026
20
-3.6525959448818899
11
5.8594228740157481
21
-3.6492333464566928
0
LINE
8
BLACK
6
CONTINUOUS
10
5.8594228740157481
20
-3.6492333464566928
11
5.8594228740157481
21
-3.6138002755905512
0
LINE
8
BLACK
6
CONTINUOUS
10
5.8594228740157481
20
-3.6138002755905512
11
5.8598655511811026
21
-3.6104376771653541
0
LINE
8
BLACK
6
CONTINUOUS
10
5.8598655511811026
20
-3.6104376771653541
11
5.8617724803149605
21
-3.606348307086614
0
LINE
8
BLACK
6
CONTINUOUS
10
5.8617724803149605
20
-3.606348307086614
11
5.864963031496063
21
-3.6031577559055119
0
LINE
8
BLACK
6
CONTINUOUS
10
5.864963031496063
20
-3.6031577559055119
11
5.8690524015748027
21
-3.6012508267716536
0
LINE
8
BLACK
6
CONTINUOUS
10
5.8690524015748027
20
-3.6012508267716536
11
5.8724150000000002
21
-3.6008081496062991
0
LINE
8
BLACK
6
CONTINUOUS
10
5.8724150000000002
20
-3.6008081496062991
11
5.8930842913385826
21
-3.6008081496062991
0
LINE
8
BLACK
6
CONTINUOUS
10
5.8930842913385826
20
-3.6008081496062991
11
5.8964468897637792
21
-3.6012508267716536
0
LINE
8
BLACK
6
CONTINUOUS
10
5.9682972834645671
20
-3.6012508267716536
11
5.9723866535433068
21
-3.6031577559055119
0
LINE
8
BLACK
6
CONTINUOUS
10
5.9723866535433068
20
-3.6031577559055119
11
5.9755772047244093
21
-3.606348307086614
0
LINE
8
BLACK
6
CONTINUOUS
10
5.9755772047244093
20
-3.606348307086614
11
5.9774841338582672
21
-3.6104376771653541
0
LINE
8
BLACK
6
CONTINUOUS
10
5.9774841338582672
20
-3.6104376771653541
11
5.9779268110236217
21
-3.6138002755905512
0
LINE
8
BLACK
6
CONTINUOUS
10
5.9779268110236217
20
-3.6138002755905512
11
5.9779268110236217
21
-3.6492333464566928
0
LINE
8
BLACK
6
CONTINUOUS
10
5.9779268110236217
20
-3.6492333464566928
11
5.9774841338582672
21
-3.6525959448818899
0
LINE
8
BLACK
6
CONTINUOUS
10
5.9774841338582672
20
-3.6525959448818899
11
5.9755772047244093
21
-3.65668531496063
0
LINE
8
BLACK
6
CONTINUOUS
10
5.9755772047244093
20
-3.65668531496063
11
5.9723866535433068
21
-3.6598758661417321
0
LINE
8
BLACK
6
CONTINUOUS
10
5.9723866535433068
20
-3.6598758661417321
11
5.9682972834645671
21
-3.6617827952755904
0
LINE
8
BLACK
6
CONTINUOUS
10
5.9682972834645671
20
-3.6617827952755904
11
5.9649346850393696
21
-3.6622254724409449
0
LINE
8
BLACK
6
CONTINUOUS
10
5.9649346850393696
20
-3.6622254724409449
11
5.9442653937007872
21
-3.6622254724409449
0
LINE
8
BLACK
6
CONTINUOUS
10
5.9442653937007872
20
-3.6622254724409449
11
5.9409027952755906
21
-3.6617827952755904
0
LINE
8
BLACK
6
CONTINUOUS
10
5.9409027952755906
20
-3.6617827952755904
11
5.9368134251968501
21
-3.6598758661417321
0
LINE
8
BLACK
6
CONTINUOUS
10
5.9368134251968501
20
-3.6598758661417321
11
5.9336228740157475
21
-3.65668531496063
0
LINE
8
BLACK
6
CONTINUOUS
10
5.9336228740157475
20
-3.65668531496063
11
5.9317159448818897
21
-3.6525959448818899
0
LINE
8
BLACK
6
CONTINUOUS
10
5.9317159448818897
20
-3.6525959448818899
11
5.9312732677165352
21
-3.6492333464566928
0
LINE
8
BLACK
6
CONTINUOUS
10
5.9312732677165352
20
-3.6492333464566928
11
5.9312732677165352
21
-3.6138002755905512
0
LINE
8
BLACK
6
CONTINUOUS
10
5.9312732677165352
20
-3.6138002755905512
11
5.9317159448818897
21
-3.6104376771653541
0
LINE
8
BLACK
6
CONTINUOUS
10
5.9317159448818897
20
-3.6104376771653541
11
5.9336228740157475
21
-3.606348307086614
0
LINE
8
BLACK
6
CONTINUOUS
10
5.9336228740157475
20
-3.606348307086614
11
5.9368134251968501
21
-3.6031577559055119
0
LINE
8
BLACK
6
CONTINUOUS
10
5.9368134251968501
20
-3.6031577559055119
11
5.9409027952755906
21
-3.6012508267716536
0
LINE
8
BLACK
6
CONTINUOUS
10
5.9409027952755906
20
-3.6012508267716536
11
5.9442653937007872
21
-3.6008081496062991
0
LINE
8
BLACK
6
CONTINUOUS
10
5.9442653937007872
20
-3.6008081496062991
11
5.9649346850393696
21
-3.6008081496062991
0
LINE
8
BLACK
6
CONTINUOUS
10
5.9649346850393696
20
-3.6008081496062991
11
5.9682972834645671
21
-3.6012508267716536
0
LINE
8
BLACK
6
CONTINUOUS
10
6.0808250393700787
20
-3.605630590551181
11
6.0818468503937009
21
-3.606313307086614
0
LINE
8
BLACK
6
CONTINUOUS
10
6.0818468503937009
20
-3.606313307086614
11
6.0825295669291339
21
-3.6073351181102362
0
LINE
8
BLACK
6
CONTINUOUS
10
6.0825295669291339
20
-3.6073351181102362
11
6.0827693307086612
21
-3.6085404330708659
0
LINE
8
BLACK
6
CONTINUOUS
10
6.0827693307086612
20
-3.6085404330708659
11
6.0827693307086612
21
-3.6557845275590553
0
LINE
8
BLACK
6
CONTINUOUS
10
6.0827693307086612
20
-3.6557845275590553
11
6.0825295669291339
21
-3.656989842519685
0
LINE
8
BLACK
6
CONTINUOUS
10
6.0825295669291339
20
-3.656989842519685
11
6.0818468503937009
21
-3.6580116535433072
0
LINE
8
BLACK
6
CONTINUOUS
10
6.0818468503937009
20
-3.6580116535433072
11
6.0808250393700787
21
-3.6586943700787402
0
LINE
8
BLACK
6
CONTINUOUS
10
6.0808250393700787
20
-3.6586943700787402
11
6.079619724409449
21
-3.6589341338582675
0
LINE
8
BLACK
6
CONTINUOUS
10
6.079619724409449
20
-3.6589341338582675
11
6.0166275984251971
21
-3.6589341338582675
0
LINE
8
BLACK
6
CONTINUOUS
10
6.0166275984251971
20
-3.6589341338582675
11
6.0154222834645665
21
-3.6586943700787402
0
LINE
8
BLACK
6
CONTINUOUS
10
6.0154222834645665
20
-3.6586943700787402
11
6.0144004724409443
21
-3.6580116535433072
0
LINE
8
BLACK
6
CONTINUOUS
10
6.0144004724409443
20
-3.6580116535433072
11
6.0137177559055113
21
-3.656989842519685
0
LINE
8
BLACK
6
CONTINUOUS
10
6.0137177559055113
20
-3.656989842519685
11
6.013477992125984
21
-3.6557845275590553
0
LINE
8
BLACK
6
CONTINUOUS
10
6.013477992125984
20
-3.6557845275590553
11
6.013477992125984
21
-3.6085404330708659
0
LINE
8
BLACK
6
CONTINUOUS
10
6.013477992125984
20
-3.6085404330708659
11
6.0137177559055113
21
-3.6073351181102362
0
LINE
8
BLACK
6
CONTINUOUS
10
6.0137177559055113
20
-3.6073351181102362
11
6.0144004724409443
21
-3.606313307086614
0
LINE
8
BLACK
6
CONTINUOUS
10
6.0144004724409443
20
-3.606313307086614
11
6.0154222834645665
21
-3.605630590551181
0
LINE
8
BLACK
6
CONTINUOUS
10
6.0154222834645665
20
-3.605630590551181
11
6.0166275984251971
21
-3.6053908267716537
0
LINE
8
BLACK
6
CONTINUOUS
10
6.0166275984251971
20
-3.6053908267716537
11
6.079619724409449
21
-3.6053908267716537
0
LINE
8
BLACK
6
CONTINUOUS
10
6.079619724409449
20
-3.6053908267716537
11
6.0808250393700787
21
-3.605630590551181
0
LINE
8
BLACK
6
CONTINUOUS
10
6.0808250393700787
20
-3.5072053937007874
11
6.0818468503937009
21
-3.5078881102362205
0
LINE
8
BLACK
6
CONTINUOUS
10
6.0818468503937009
20
-3.5078881102362205
11
6.0825295669291339
21
-3.5089099212598422
0
LINE
8
BLACK
6
CONTINUOUS
10
6.0825295669291339
20
-3.5089099212598422
11
6.0827693307086612
21
-3.5101152362204724
0
LINE
8
BLACK
6
CONTINUOUS
10
6.0827693307086612
20
-3.5101152362204724
11
6.0827693307086612
21
-3.5573593307086613
0
LINE
8
BLACK
6
CONTINUOUS
10
6.0827693307086612
20
-3.5573593307086613
11
6.0825295669291339
21
-3.5585646456692914
0
LINE
8
BLACK
6
CONTINUOUS
10
6.0825295669291339
20
-3.5585646456692914
11
6.0818468503937009
21
-3.5595864566929132
0
LINE
8
BLACK
6
CONTINUOUS
10
6.0818468503937009
20
-3.5595864566929132
11
6.0808250393700787
21
-3.5602691732283462
0
LINE
8
BLACK
6
CONTINUOUS
10
6.0808250393700787
20
-3.5602691732283462
11
6.079619724409449
21
-3.560508937007874
0
LINE
8
BLACK
6
CONTINUOUS
10
6.079619724409449
20
-3.560508937007874
11
6.0166275984251971
21
-3.560508937007874
0
LINE
8
BLACK
6
CONTINUOUS
10
6.0166275984251971
20
-3.560508937007874
11
6.0154222834645665
21
-3.5602691732283462
0
LINE
8
BLACK
6
CONTINUOUS
10
6.0154222834645665
20
-3.5602691732283462
11
6.0144004724409443
21
-3.5595864566929132
0
LINE
8
BLACK
6
CONTINUOUS
10
6.0144004724409443
20
-3.5595864566929132
11
6.0137177559055113
21
-3.5585646456692914
0
LINE
8
BLACK
6
CONTINUOUS
10
6.0137177559055113
20
-3.5585646456692914
11
6.013477992125984
21
-3.5573593307086613
0
LINE
8
BLACK
6
CONTINUOUS
10
6.013477992125984
20
-3.5573593307086613
11
6.013477992125984
21
-3.5101152362204724
0
LINE
8
BLACK
6
CONTINUOUS
10
6.013477992125984
20
-3.5101152362204724
11
6.0137177559055113
21
-3.5089099212598422
0
LINE
8
BLACK
6
CONTINUOUS
10
6.0137177559055113
20
-3.5089099212598422
11
6.0144004724409443
21
-3.5078881102362205
0
LINE
8
BLACK
6
CONTINUOUS
10
6.0144004724409443
20
-3.5078881102362205
11
6.0154222834645665
21
-3.5072053937007874
0
LINE
8
BLACK
6
CONTINUOUS
10
6.0154222834645665
20
-3.5072053937007874
11
6.0166275984251971
21
-3.5069656299212597
0
LINE
8
BLACK
6
CONTINUOUS
10
6.0166275984251971
20
-3.5069656299212597
11
6.079619724409449
21
-3.5069656299212597
0
LINE
8
BLACK
6
CONTINUOUS
10
6.079619724409449
20
-3.5069656299212597
11
6.0808250393700787
21
-3.5072053937007874
0
LINE
8
BLACK
6
CONTINUOUS
10
6.2855494488188972
20
-3.1928353149606297
11
6.2865712598425194
21
-3.1935180314960627
0
LINE
8
BLACK
6
CONTINUOUS
10
6.2865712598425194
20
-3.1935180314960627
11
6.2872539763779525
21
-3.1945398425196849
0
LINE
8
BLACK
6
CONTINUOUS
10
6.2872539763779525
20
-3.1945398425196849
11
6.2874937401574797
21
-3.1957451574803151
0
LINE
8
BLACK
6
CONTINUOUS
10
6.2874937401574797
20
-3.1957451574803151
11
6.2874937401574797
21
-3.2941703543307086
0
LINE
8
BLACK
6
CONTINUOUS
10
6.2874937401574797
20
-3.2941703543307086
11
6.2872539763779525
21
-3.2953756692913383
0
LINE
8
BLACK
6
CONTINUOUS
10
6.2872539763779525
20
-3.2953756692913383
11
6.2865712598425194
21
-3.2963974803149605
0
LINE
8
BLACK
6
CONTINUOUS
10
6.2865712598425194
20
-3.2963974803149605
11
6.2855494488188972
21
-3.2970801968503936
0
LINE
8
BLACK
6
CONTINUOUS
10
6.2855494488188972
20
-3.2970801968503936
11
6.2843441338582675
21
-3.2973199606299213
0
LINE
8
BLACK
6
CONTINUOUS
10
6.2843441338582675
20
-3.2973199606299213
11
6.0874937401574805
21
-3.2973199606299213
0
LINE
8
BLACK
6
CONTINUOUS
10
6.0874937401574805
20
-3.2973199606299213
11
6.0862884251968499
21
-3.2970801968503936
0
LINE
8
BLACK
6
CONTINUOUS
10
6.0862884251968499
20
-3.2970801968503936
11
6.0852666141732286
21
-3.2963974803149605
0
LINE
8
BLACK
6
CONTINUOUS
10
6.0852666141732286
20
-3.2963974803149605
11
6.0845838976377955
21
-3.2953756692913383
0
LINE
8
BLACK
6
CONTINUOUS
10
6.0845838976377955
20
-3.2953756692913383
11
6.0843441338582673
21
-3.2941703543307086
0
LINE
8
BLACK
6
CONTINUOUS
10
6.0843441338582673
20
-3.2941703543307086
11
6.0843441338582673
21
-3.1957451574803151
0
LINE
8
BLACK
6
CONTINUOUS
10
6.0843441338582673
20
-3.1957451574803151
11
6.0845838976377955
21
-3.1945398425196849
0
LINE
8
BLACK
6
CONTINUOUS
10
6.0845838976377955
20
-3.1945398425196849
11
6.0852666141732286
21
-3.1935180314960627
0
LINE
8
BLACK
6
CONTINUOUS
10
6.0852666141732286
20
-3.1935180314960627
11
6.0862884251968499
21
-3.1928353149606297
0
LINE
8
BLACK
6
CONTINUOUS
10
6.0862884251968499
20
-3.1928353149606297
11
6.0874937401574805
21
-3.1925955511811024
0
LINE
8
BLACK
6
CONTINUOUS
10
6.0874937401574805
20
-3.1925955511811024
11
6.2843441338582675
21
-3.1925955511811024
0
LINE
8
BLACK
6
CONTINUOUS
10
6.2843441338582675
20
-3.1925955511811024
11
6.2855494488188972
21
-3.1928353149606297
0
LINE
8
BLACK
6
CONTINUOUS
10
7.2383053543307083
20
-3.1928353149606297
11
7.2393271653543305
21
-3.1935180314960627
0
LINE
8
BLACK
6
CONTINUOUS
10
7.2393271653543305
20
-3.1935180314960627
11
7.2400098818897636
21
-3.1945398425196849
0
LINE
8
BLACK
6
CONTINUOUS
10
7.2400098818897636
20
-3.1945398425196849
11
7.2402496456692909
21
-3.1957451574803151
0
LINE
8
BLACK
6
CONTINUOUS
10
7.2402496456692909
20
-3.1957451574803151
11
7.2402496456692909
21
-3.2941703543307086
0
LINE
8
BLACK
6
CONTINUOUS
10
7.2402496456692909
20
-3.2941703543307086
11
7.2400098818897636
21
-3.2953756692913383
0
LINE
8
BLACK
6
CONTINUOUS
10
7.2400098818897636
20
-3.2953756692913383
11
7.2393271653543305
21
-3.2963974803149605
0
LINE
8
BLACK
6
CONTINUOUS
10
7.2393271653543305
20
-3.2963974803149605
11
7.2383053543307083
21
-3.2970801968503936
0
LINE
8
BLACK
6
CONTINUOUS
10
7.2383053543307083
20
-3.2970801968503936
11
7.2371000393700786
21
-3.2973199606299213
0
LINE
8
BLACK
6
CONTINUOUS
10
7.2371000393700786
20
-3.2973199606299213
11
7.0402496456692916
21
-3.2973199606299213
0
LINE
8
BLACK
6
CONTINUOUS
10
7.0402496456692916
20
-3.2973199606299213
11
7.039044330708661
21
-3.2970801968503936
0
LINE
8
BLACK
6
CONTINUOUS
10
7.039044330708661
20
-3.2970801968503936
11
7.0380225196850388
21
-3.2963974803149605
0
LINE
8
BLACK
6
CONTINUOUS
10
7.0380225196850388
20
-3.2963974803149605
11
7.0373398031496057
21
-3.2953756692913383
0
LINE
8
BLACK
6
CONTINUOUS
10
7.0373398031496057
20
-3.2953756692913383
11
7.0371000393700784
21
-3.2941703543307086
0
LINE
8
BLACK
6
CONTINUOUS
10
7.0371000393700784
20
-3.2941703543307086
11
7.0371000393700784
21
-3.1957451574803151
0
LINE
8
BLACK
6
CONTINUOUS
10
7.0371000393700784
20
-3.1957451574803151
11
7.0373398031496057
21
-3.1945398425196849
0
LINE
8
BLACK
6
CONTINUOUS
10
7.0373398031496057
20
-3.1945398425196849
11
7.0380225196850388
21
-3.1935180314960627
0
LINE
8
BLACK
6
CONTINUOUS
10
7.0380225196850388
20
-3.1935180314960627
11
7.039044330708661
21
-3.1928353149606297
0
LINE
8
BLACK
6
CONTINUOUS
10
7.039044330708661
20
-3.1928353149606297
11
7.0402496456692916
21
-3.1925955511811024
0
LINE
8
BLACK
6
CONTINUOUS
10
7.0402496456692916
20
-3.1925955511811024
11
7.2371000393700786
21
-3.1925955511811024
0
LINE
8
BLACK
6
CONTINUOUS
10
7.2371000393700786
20
-3.1925955511811024
11
7.2383053543307083
21
-3.1928353149606297
0
LINE
8
BLACK
6
CONTINUOUS
10
6.9022516535433072
20
-2.9770194094488187
11
6.9156576771653544
21
-2.9792972047244093
0
LINE
8
BLACK
6
CONTINUOUS
10
6.9156576771653544
20
-2.9792972047244093
11
6.9287244488188975
21
-2.9830616535433072
0
LINE
8
BLACK
6
CONTINUOUS
10
6.9287244488188975
20
-2.9830616535433072
11
6.941287519685039
21
-2.9882654724409448
0
LINE
8
BLACK
6
CONTINUOUS
10
6.941287519685039
20
-2.9882654724409448
11
6.9531889763779526
21
-2.9948431496062993
0
LINE
8
BLACK
6
CONTINUOUS
10
6.9531889763779526
20
-2.9948431496062993
11
6.9642791338582679
21
-3.0027120472440942
0
LINE
8
BLACK
6
CONTINUOUS
10
6.9642791338582679
20
-3.0027120472440942
11
6.9744185039370077
21
-3.0117731496062992
0
LINE
8
BLACK
6
CONTINUOUS
10
6.9744185039370077
20
-3.0117731496062992
11
6.9834796062992126
21
-3.0219125196850394
0
LINE
8
BLACK
6
CONTINUOUS
10
6.9834796062992126
20
-3.0219125196850394
11
6.991348503937008
21
-3.0330026771653542
0
LINE
8
BLACK
6
CONTINUOUS
10
6.991348503937008
20
-3.0330026771653542
11
6.9979261811023621
21
-3.0449041338582679
0
LINE
8
BLACK
6
CONTINUOUS
10
6.9979261811023621
20
-3.0449041338582679
11
7.0031299999999996
21
-3.0574672047244094
0
LINE
8
BLACK
6
CONTINUOUS
10
7.0031299999999996
20
-3.0574672047244094
11
7.0068944488188976
21
-3.0705339763779529
0
LINE
8
BLACK
6
CONTINUOUS
10
7.0068944488188976
20
-3.0705339763779529
11
7.0091722440944881
21
-3.0839400000000001
0
LINE
8
BLACK
6
CONTINUOUS
10
7.0091722440944881
20
-3.0839400000000001
11
7.0099346850393696
21
-3.0975168110236222
0
LINE
8
BLACK
6
CONTINUOUS
10
7.0099346850393696
20
-3.0975168110236222
11
7.0091722440944881
21
-3.1110936220472438
0
LINE
8
BLACK
6
CONTINUOUS
10
7.0091722440944881
20
-3.1110936220472438
11
7.0068944488188976
21
-3.1244996456692911
0
LINE
8
BLACK
6
CONTINUOUS
10
7.0068944488188976
20
-3.1244996456692911
11
7.0031299999999996
21
-3.1375664173228346
0
LINE
8
BLACK
6
CONTINUOUS
10
7.0031299999999996
20
-3.1375664173228346
11
6.9979261811023621
21
-3.1501294881889761
0
LINE
8
BLACK
6
CONTINUOUS
10
6.9979261811023621
20
-3.1501294881889761
11
6.991348503937008
21
-3.1620309448818897
0
LINE
8
BLACK
6
CONTINUOUS
10
6.991348503937008
20
-3.1620309448818897
11
6.9834796062992126
21
-3.1731211023622046
0
LINE
8
BLACK
6
CONTINUOUS
10
6.9834796062992126
20
-3.1731211023622046
11
6.9744185039370077
21
-3.1832604724409448
0
LINE
8
BLACK
6
CONTINUOUS
10
6.9744185039370077
20
-3.1832604724409448
11
6.9642791338582679
21
-3.1923215748031497
0
LINE
8
BLACK
6
CONTINUOUS
10
6.9642791338582679
20
-3.1923215748031497
11
6.9531889763779526
21
-3.2001904724409447
0
LINE
8
BLACK
6
CONTINUOUS
10
6.9531889763779526
20
-3.2001904724409447
11
6.941287519685039
21
-3.2067681496062992
0
LINE
8
BLACK
6
CONTINUOUS
10
6.941287519685039
20
-3.2067681496062992
11
6.9287244488188975
21
-3.2119719685039367
0
LINE
8
BLACK
6
CONTINUOUS
10
6.9287244488188975
20
-3.2119719685039367
11
6.9156576771653544
21
-3.2157364173228347
0
LINE
8
BLACK
6
CONTINUOUS
10
6.9156576771653544
20
-3.2157364173228347
11
6.9022516535433072
21
-3.2180142125984252
0
LINE
8
BLACK
6
CONTINUOUS
10
6.9022516535433072
20
-3.2180142125984252
11
6.8886748425196851
21
-3.2187766535433071
0
LINE
8
BLACK
6
CONTINUOUS
10
6.8886748425196851
20
-3.2187766535433071
11
6.875098031496063
21
-3.2180142125984252
0
LINE
8
BLACK
6
CONTINUOUS
10
6.875098031496063
20
-3.2180142125984252
11
6.8616920078740158
21
-3.2157364173228347
0
LINE
8
BLACK
6
CONTINUOUS
10
6.8616920078740158
20
-3.2157364173228347
11
6.8486252362204727
21
-3.2119719685039367
0
LINE
8
BLACK
6
CONTINUOUS
10
6.8486252362204727
20
-3.2119719685039367
11
6.8360621653543303
21
-3.2067681496062992
0
LINE
8
BLACK
6
CONTINUOUS
10
6.8360621653543303
20
-3.2067681496062992
11
6.8241607086614176
21
-3.2001904724409447
0
LINE
8
BLACK
6
CONTINUOUS
10
6.8241607086614176
20
-3.2001904724409447
11
6.8130705511811023
21
-3.1923215748031497
0
LINE
8
BLACK
6
CONTINUOUS
10
6.8130705511811023
20
-3.1923215748031497
11
6.8029311811023616
21
-3.1832604724409448
0
LINE
8
BLACK
6
CONTINUOUS
10
6.8029311811023616
20
-3.1832604724409448
11
6.7938700787401576
21
-3.1731211023622046
0
LINE
8
BLACK
6
CONTINUOUS
10
6.7938700787401576
20
-3.1731211023622046
11
6.7860011811023622
21
-3.1620309448818897
0
LINE
8
BLACK
6
CONTINUOUS
10
6.7860011811023622
20
-3.1620309448818897
11
6.7794235039370081
21
-3.1501294881889761
0
LINE
8
BLACK
6
CONTINUOUS
10
6.7794235039370081
20
-3.1501294881889761
11
6.7742196850393697
21
-3.1375664173228346
0
LINE
8
BLACK
6
CONTINUOUS
10
6.7742196850393697
20
-3.1375664173228346
11
6.7704552362204726
21
-3.1244996456692911
0
LINE
8
BLACK
6
CONTINUOUS
10
6.7704552362204726
20
-3.1244996456692911
11
6.7681774409448821
21
-3.1110936220472438
0
LINE
8
BLACK
6
CONTINUOUS
10
6.7681774409448821
20
-3.1110936220472438
11
6.7674149999999997
21
-3.0975168110236222
0
LINE
8
BLACK
6
CONTINUOUS
10
6.7674149999999997
20
-3.0975168110236222
11
6.7681774409448821
21
-3.0839400000000001
0
LINE
8
BLACK
6
CONTINUOUS
10
6.7681774409448821
20
-3.0839400000000001
11
6.7704552362204726
21
-3.0705339763779529
0
LINE
8
BLACK
6
CONTINUOUS
10
6.7704552362204726
20
-3.0705339763779529
11
6.7742196850393697
21
-3.0574672047244094
0
LINE
8
BLACK
6
CONTINUOUS
10
6.7742196850393697
20
-3.0574672047244094
11
6.7794235039370081
21
-3.0449041338582679
0
LINE
8
BLACK
6
CONTINUOUS
10
6.7794235039370081
20
-3.0449041338582679
11
6.7860011811023622
21
-3.0330026771653542
0
LINE
8
BLACK
6
CONTINUOUS
10
6.7860011811023622
20
-3.0330026771653542
11
6.7938700787401576
21
-3.0219125196850394
0
LINE
8
BLACK
6
CONTINUOUS
10
6.7938700787401576
20
-3.0219125196850394
11
6.8029311811023616
21
-3.0117731496062992
0
LINE
8
BLACK
6
CONTINUOUS
10
6.8029311811023616
20
-3.0117731496062992
11
6.8130705511811023
21
-3.0027120472440942
0
LINE
8
BLACK
6
CONTINUOUS
10
6.8130705511811023
20
-3.0027120472440942
11
6.8241607086614176
21
-2.9948431496062993
0
LINE
8
BLACK
6
CONTINUOUS
10
6.8241607086614176
20
-2.9948431496062993
11
6.8360621653543303
21
-2.9882654724409448
0
LINE
8
BLACK
6
CONTINUOUS
10
6.8360621653543303
20
-2.9882654724409448
11
6.8486252362204727
21
-2.9830616535433072
0
LINE
8
BLACK
6
CONTINUOUS
10
6.8486252362204727
20
-2.9830616535433072
11
6.8616920078740158
21
-2.9792972047244093
0
LINE
8
BLACK
6
CONTINUOUS
10
6.8616920078740158
20
-2.9792972047244093
11
6.875098031496063
21
-2.9770194094488187
0
LINE
8
BLACK
6
CONTINUOUS
10
6.875098031496063
20
-2.9770194094488187
11
6.8886748425196851
21
-2.9762569685039368
0
LINE
8
BLACK
6
CONTINUOUS
10
6.8886748425196851
20
-2.9762569685039368
11
6.9022516535433072
21
-2.9770194094488187
0
LINE
8
BLACK
6
CONTINUOUS
10
5.4698801574803149
20
-3.0046069685039369
11
5.4709019685039371
21
-3.00528968503937
0
LINE
8
BLACK
6
CONTINUOUS
10
5.4709019685039371
20
-3.00528968503937
11
5.4715846850393701
21
-3.0063114960629922
0
LINE
8
BLACK
6
CONTINUOUS
10
5.4715846850393701
20
-3.0063114960629922
11
5.4718244488188974
21
-3.0075168110236219
0
LINE
8
BLACK
6
CONTINUOUS
10
5.4718244488188974
20
-3.0075168110236219
11
5.4718244488188974
21
-3.2075168110236221
0
LINE
8
BLACK
6
CONTINUOUS
10
5.4718244488188974
20
-3.2075168110236221
11
5.4715846850393701
21
-3.2087221259842518
0
LINE
8
BLACK
6
CONTINUOUS
10
5.4715846850393701
20
-3.2087221259842518
11
5.4709019685039371
21
-3.209743937007874
0
LINE
8
BLACK
6
CONTINUOUS
10
5.4709019685039371
20
-3.209743937007874
11
5.4698801574803149
21
-3.210426653543307
0
LINE
8
BLACK
6
CONTINUOUS
10
5.4698801574803149
20
-3.210426653543307
11
5.4686748425196852
21
-3.2106664173228348
0
LINE
8
BLACK
6
CONTINUOUS
10
5.4686748425196852
20
-3.2106664173228348
11
5.3985961023622044
21
-3.2106664173228348
0
LINE
8
BLACK
6
CONTINUOUS
10
5.3985961023622044
20
-3.2106664173228348
11
5.3973907874015747
21
-3.210426653543307
0
LINE
8
BLACK
6
CONTINUOUS
10
5.3973907874015747
20
-3.210426653543307
11
5.3963689763779525
21
-3.209743937007874
0
LINE
8
BLACK
6
CONTINUOUS
10
5.3963689763779525
20
-3.209743937007874
11
5.3956862598425195
21
-3.2087221259842518
0
LINE
8
BLACK
6
CONTINUOUS
10
5.3956862598425195
20
-3.2087221259842518
11
5.3954464960629922
21
-3.2075168110236221
0
LINE
8
BLACK
6
CONTINUOUS
10
5.3954464960629922
20
-3.2075168110236221
11
5.3954464960629922
21
-3.0075168110236219
0
LINE
8
BLACK
6
CONTINUOUS
10
5.3954464960629922
20
-3.0075168110236219
11
5.3956862598425195
21
-3.0063114960629922
0
LINE
8
BLACK
6
CONTINUOUS
10
5.3956862598425195
20
-3.0063114960629922
11
5.3963689763779525
21
-3.00528968503937
0
LINE
8
BLACK
6
CONTINUOUS
10
5.3963689763779525
20
-3.00528968503937
11
5.3973907874015747
21
-3.0046069685039369
0
LINE
8
BLACK
6
CONTINUOUS
10
5.3973907874015747
20
-3.0046069685039369
11
5.3985961023622044
21
-3.0043672047244092
0
LINE
8
BLACK
6
CONTINUOUS
10
5.3985961023622044
20
-3.0043672047244092
11
5.4686748425196852
21
-3.0043672047244092
0
LINE
8
BLACK
6
CONTINUOUS
10
5.4686748425196852
20
-3.0043672047244092
11
5.4698801574803149
21
-3.0046069685039369
0
LINE
8
BLACK
6
CONTINUOUS
10
5.8399588976377954
20
-3.0046069685039369
11
5.8409807086614176
21
-3.00528968503937
0
LINE
8
BLACK
6
CONTINUOUS
10
5.8409807086614176
20
-3.00528968503937
11
5.8416634251968507
21
-3.0063114960629922
0
LINE
8
BLACK
6
CONTINUOUS
10
5.8416634251968507
20
-3.0063114960629922
11
5.8419031889763779
21
-3.0075168110236219
0
LINE
8
BLACK
6
CONTINUOUS
10
5.8419031889763779
20
-3.0075168110236219
11
5.8419031889763779
21
-3.2075168110236221
0
LINE
8
BLACK
6
CONTINUOUS
10
5.8419031889763779
20
-3.2075168110236221
11
5.8416634251968507
21
-3.2087221259842518
0
LINE
8
BLACK
6
CONTINUOUS
10
5.8416634251968507
20
-3.2087221259842518
11
5.8409807086614176
21
-3.209743937007874
0
LINE
8
BLACK
6
CONTINUOUS
10
5.8409807086614176
20
-3.209743937007874
11
5.8399588976377954
21
-3.210426653543307
0
LINE
8
BLACK
6
CONTINUOUS
10
5.8399588976377954
20
-3.210426653543307
11
5.8387535826771648
21
-3.2106664173228348
0
LINE
8
BLACK
6
CONTINUOUS
10
5.8387535826771648
20
-3.2106664173228348
11
5.768674842519685
21
-3.2106664173228348
0
LINE
8
BLACK
6
CONTINUOUS
10
5.768674842519685
20
-3.2106664173228348
11
5.7674695275590553
21
-3.210426653543307
0
LINE
8
BLACK
6
CONTINUOUS
10
5.7674695275590553
20
-3.210426653543307
11
5.7664477165354331
21
-3.209743937007874
0
LINE
8
BLACK
6
CONTINUOUS
10
5.7664477165354331
20
-3.209743937007874
11
5.765765
21
-3.2087221259842518
0
LINE
8
BLACK
6
CONTINUOUS
10
5.765765
20
-3.2087221259842518
11
5.7655252362204727
21
-3.2075168110236221
0
LINE
8
BLACK
6
CONTINUOUS
10
5.7655252362204727
20
-3.2075168110236221
11
5.7655252362204727
21
-3.0075168110236219
0
LINE
8
BLACK
6
CONTINUOUS
10
5.7655252362204727
20
-3.0075168110236219
11
5.765765
21
-3.0063114960629922
0
LINE
8
BLACK
6
CONTINUOUS
10
5.765765
20
-3.0063114960629922
11
5.7664477165354331
21
-3.00528968503937
0
LINE
8
BLACK
6
CONTINUOUS
10
5.7664477165354331
20
-3.00528968503937
11
5.7674695275590553
21
-3.0046069685039369
0
LINE
8
BLACK
6
CONTINUOUS
10
5.7674695275590553
20
-3.0046069685039369
11
5.768674842519685
21
-3.0043672047244092
0
LINE
8
BLACK
6
CONTINUOUS
10
5.768674842519685
20
-3.0043672047244092
11
5.8387535826771648
21
-3.0043672047244092
0
LINE
8
BLACK
6
CONTINUOUS
10
5.8387535826771648
20
-3.0043672047244092
11
5.8399588976377954
21
-3.0046069685039369
0
LINE
8
BLACK
6
CONTINUOUS
10
5.6978329133858265
20
-3.0266542125984253
11
5.6988547244094487
21
-3.0273369291338583
0
LINE
8
BLACK
6
CONTINUOUS
10
5.6988547244094487
20
-3.0273369291338583
11
5.6995374409448818
21
-3.0283587401574801
0
LINE
8
BLACK
6
CONTINUOUS
10
5.6995374409448818
20
-3.0283587401574801
11
5.6997772047244091
21
-3.0295640551181102
0
LINE
8
BLACK
6
CONTINUOUS
10
5.6997772047244091
20
-3.0295640551181102
11
5.6997772047244091
21
-3.1854695669291337
0
LINE
8
BLACK
6
CONTINUOUS
10
5.6997772047244091
20
-3.1854695669291337
11
5.6995374409448818
21
-3.1866748818897639
0
LINE
8
BLACK
6
CONTINUOUS
10
5.6995374409448818
20
-3.1866748818897639
11
5.6988547244094487
21
-3.1876966929133856
0
LINE
8
BLACK
6
CONTINUOUS
10
5.6988547244094487
20
-3.1876966929133856
11
5.6978329133858265
21
-3.1883794094488187
0
LINE
8
BLACK
6
CONTINUOUS
10
5.6978329133858265
20
-3.1883794094488187
11
5.6966275984251968
21
-3.1886191732283464
0
LINE
8
BLACK
6
CONTINUOUS
10
5.6966275984251968
20
-3.1886191732283464
11
5.5407220866141733
21
-3.1886191732283464
0
LINE
8
BLACK
6
CONTINUOUS
10
5.5407220866141733
20
-3.1886191732283464
11
5.5395167716535436
21
-3.1883794094488187
0
LINE
8
BLACK
6
CONTINUOUS
10
5.5395167716535436
20
-3.1883794094488187
11
5.5384949606299214
21
-3.1876966929133856
0
LINE
8
BLACK
6
CONTINUOUS
10
5.5384949606299214
20
-3.1876966929133856
11
5.5378122440944884
21
-3.1866748818897639
0
LINE
8
BLACK
6
CONTINUOUS
10
5.5378122440944884
20
-3.1866748818897639
11
5.5375724803149602
21
-3.1854695669291337
0
LINE
8
BLACK
6
CONTINUOUS
10
5.5375724803149602
20
-3.1854695669291337
11
5.5375724803149602
21
-3.0295640551181102
0
LINE
8
BLACK
6
CONTINUOUS
10
5.5375724803149602
20
-3.0295640551181102
11
5.5378122440944884
21
-3.0283587401574801
0
LINE
8
BLACK
6
CONTINUOUS
10
5.5378122440944884
20
-3.0283587401574801
11
5.5384949606299214
21
-3.0273369291338583
0
LINE
8
BLACK
6
CONTINUOUS
10
5.5384949606299214
20
-3.0273369291338583
11
5.5395167716535436
21
-3.0266542125984253
0
LINE
8
BLACK
6
CONTINUOUS
10
5.5395167716535436
20
-3.0266542125984253
11
5.5407220866141733
21
-3.0264144488188975
0
LINE
8
BLACK
6
CONTINUOUS
10
5.5407220866141733
20
-3.0264144488188975
11
5.6966275984251968
21
-3.0264144488188975
0
LINE
8
BLACK
6
CONTINUOUS
10
5.6966275984251968
20
-3.0264144488188975
11
5.6978329133858265
21
-3.0266542125984253
0
LINE
8
BLACK
6
CONTINUOUS
10
6.6431791732283463
20
-3.1253216929133858
11
6.6472685433070868
21
-3.1272286220472441
0
LINE
8
BLACK
6
CONTINUOUS
10
6.6472685433070868
20
-3.1272286220472441
11
6.6504590944881885
21
-3.1304191732283462
0
LINE
8
BLACK
6
CONTINUOUS
10
6.6504590944881885
20
-3.1304191732283462
11
6.6523660236220472
21
-3.1345085433070867
0
LINE
8
BLACK
6
CONTINUOUS
10
6.6523660236220472
20
-3.1345085433070867
11
6.6528087007874017
21
-3.1378711417322833
0
LINE
8
BLACK
6
CONTINUOUS
10
6.6528087007874017
20
-3.1378711417322833
11
6.6528087007874017
21
-3.1673987007874014
0
LINE
8
BLACK
6
CONTINUOUS
10
6.6528087007874017
20
-3.1673987007874014
11
6.6523660236220472
21
-3.1707612992125984
0
LINE
8
BLACK
6
CONTINUOUS
10
6.6523660236220472
20
-3.1707612992125984
11
6.6504590944881885
21
-3.1748506692913385
0
LINE
8
BLACK
6
CONTINUOUS
10
6.6504590944881885
20
-3.1748506692913385
11
6.6472685433070868
21
-3.1780412204724411
0
LINE
8
BLACK
6
CONTINUOUS
10
6.6472685433070868
20
-3.1780412204724411
11
6.6431791732283463
21
-3.1799481496062993
0
LINE
8
BLACK
6
CONTINUOUS
10
6.6431791732283463
20
-3.1799481496062993
11
6.6398165748031497
21
-3.1803908267716534
0
LINE
8
BLACK
6
CONTINUOUS
10
6.6398165748031497
20
-3.1803908267716534
11
6.5906039763779525
21
-3.1803908267716534
0
LINE
8
BLACK
6
CONTINUOUS
10
6.5906039763779525
20
-3.1803908267716534
11
6.5872413779527559
21
-3.1799481496062993
0
LINE
8
BLACK
6
CONTINUOUS
10
6.5872413779527559
20
-3.1799481496062993
11
6.5831520078740153
21
-3.1780412204724411
0
LINE
8
BLACK
6
CONTINUOUS
10
6.5831520078740153
20
-3.1780412204724411
11
6.5799614566929137
21
-3.1748506692913385
0
LINE
8
BLACK
6
CONTINUOUS
10
6.5799614566929137
20
-3.1748506692913385
11
6.578054527559055
21
-3.1707612992125984
0
LINE
8
BLACK
6
CONTINUOUS
10
6.578054527559055
20
-3.1707612992125984
11
6.5776118503937004
21
-3.1673987007874014
0
LINE
8
BLACK
6
CONTINUOUS
10
6.5776118503937004
20
-3.1673987007874014
11
6.5776118503937004
21
-3.1378711417322833
0
LINE
8
BLACK
6
CONTINUOUS
10
6.5776118503937004
20
-3.1378711417322833
11
6.578054527559055
21
-3.1345085433070867
0
LINE
8
BLACK
6
CONTINUOUS
10
6.578054527559055
20
-3.1345085433070867
11
6.5799614566929137
21
-3.1304191732283462
0
LINE
8
BLACK
6
CONTINUOUS
10
6.5799614566929137
20
-3.1304191732283462
11
6.5831520078740153
21
-3.1272286220472441
0
LINE
8
BLACK
6
CONTINUOUS
10
6.5831520078740153
20
-3.1272286220472441
11
6.5872413779527559
21
-3.1253216929133858
0
LINE
8
BLACK
6
CONTINUOUS
10
6.5872413779527559
20
-3.1253216929133858
11
6.5906039763779525
21
-3.1248790157480313
0
LINE
8
BLACK
6
CONTINUOUS
10
6.5906039763779525
20
-3.1248790157480313
11
6.6398165748031497
21
-3.1248790157480313
0
LINE
8
BLACK
6
CONTINUOUS
10
6.6398165748031497
20
-3.1248790157480313
11
6.6431791732283463
21
-3.1253216929133858
0
LINE
8
BLACK
6
CONTINUOUS
10
7.1663555511811019
20
-3.0429032283464568
11
7.1737411023622046
21
-3.0451435826771651
0
LINE
8
BLACK
6
CONTINUOUS
10
7.1737411023622046
20
-3.0451435826771651
11
7.1805476771653538
21
-3.0487817716535432
0
LINE
8
BLACK
6
CONTINUOUS
10
7.1805476771653538
20
-3.0487817716535432
11
7.1865137007874011
21
-3.0536779527559053
0
LINE
8
BLACK
6
CONTINUOUS
10
7.1865137007874011
20
-3.0536779527559053
11
7.191409881889764
21
-3.0596439763779526
0
LINE
8
BLACK
6
CONTINUOUS
10
7.191409881889764
20
-3.0596439763779526
11
7.1950480708661413
21
-3.0664505511811022
0
LINE
8
BLACK
6
CONTINUOUS
10
7.1950480708661413
20
-3.0664505511811022
11
7.1972884251968505
21
-3.0738361023622045
0
LINE
8
BLACK
6
CONTINUOUS
10
7.1972884251968505
20
-3.0738361023622045
11
7.1980449212598421
21
-3.0815168110236222
0
LINE
8
BLACK
6
CONTINUOUS
10
7.1980449212598421
20
-3.0815168110236222
11
7.1972884251968505
21
-3.0891975196850394
0
LINE
8
BLACK
6
CONTINUOUS
10
7.1972884251968505
20
-3.0891975196850394
11
7.1950480708661413
21
-3.0965830708661417
0
LINE
8
BLACK
6
CONTINUOUS
10
7.1950480708661413
20
-3.0965830708661417
11
7.191409881889764
21
-3.1033896456692913
0
LINE
8
BLACK
6
CONTINUOUS
10
7.191409881889764
20
-3.1033896456692913
11
7.1865137007874011
21
-3.1093556692913387
0
LINE
8
BLACK
6
CONTINUOUS
10
7.1865137007874011
20
-3.1093556692913387
11
7.1805476771653538
21
-3.1142518503937007
0
LINE
8
BLACK
6
CONTINUOUS
10
7.1805476771653538
20
-3.1142518503937007
11
7.1737411023622046
21
-3.1178900393700788
0
LINE
8
BLACK
6
CONTINUOUS
10
7.1737411023622046
20
-3.1178900393700788
11
7.1663555511811019
21
-3.1201303937007872
0
LINE
8
BLACK
6
CONTINUOUS
10
7.1663555511811019
20
-3.1201303937007872
11
7.1586748425196847
21
-3.1208868897637796
0
LINE
8
BLACK
6
CONTINUOUS
10
7.1586748425196847
20
-3.1208868897637796
11
7.1509941338582674
21
-3.1201303937007872
0
LINE
8
BLACK
6
CONTINUOUS
10
7.1509941338582674
20
-3.1201303937007872
11
7.1436085826771656
21
-3.1178900393700788
0
LINE
8
BLACK
6
CONTINUOUS
10
7.1436085826771656
20
-3.1178900393700788
11
7.1368020078740155
21
-3.1142518503937007
0
LINE
8
BLACK
6
CONTINUOUS
10
7.1368020078740155
20
-3.1142518503937007
11
7.1308359842519682
21
-3.1093556692913387
0
LINE
8
BLACK
6
CONTINUOUS
10
7.1308359842519682
20
-3.1093556692913387
11
7.1259398031496062
21
-3.1033896456692913
0
LINE
8
BLACK
6
CONTINUOUS
10
7.1259398031496062
20
-3.1033896456692913
11
7.122301614173228
21
-3.0965830708661417
0
LINE
8
BLACK
6
CONTINUOUS
10
7.122301614173228
20
-3.0965830708661417
11
7.1200612598425197
21
-3.0891975196850394
0
LINE
8
BLACK
6
CONTINUOUS
10
7.1200612598425197
20
-3.0891975196850394
11
7.1193047637795273
21
-3.0815168110236222
0
LINE
8
BLACK
6
CONTINUOUS
10
7.1193047637795273
20
-3.0815168110236222
11
7.1200612598425197
21
-3.0738361023622045
0
LINE
8
BLACK
6
CONTINUOUS
10
7.1200612598425197
20
-3.0738361023622045
11
7.122301614173228
21
-3.0664505511811022
0
LINE
8
BLACK
6
CONTINUOUS
10
7.122301614173228
20
-3.0664505511811022
11
7.1259398031496062
21
-3.0596439763779526
0
LINE
8
BLACK
6
CONTINUOUS
10
7.1259398031496062
20
-3.0596439763779526
11
7.1308359842519682
21
-3.0536779527559053
0
LINE
8
BLACK
6
CONTINUOUS
10
7.1308359842519682
20
-3.0536779527559053
11
7.1368020078740155
21
-3.0487817716535432
0
LINE
8
BLACK
6
CONTINUOUS
10
7.1368020078740155
20
-3.0487817716535432
11
7.1436085826771656
21
-3.0451435826771651
0
LINE
8
BLACK
6
CONTINUOUS
10
7.1436085826771656
20
-3.0451435826771651
11
7.1509941338582674
21
-3.0429032283464568
0
LINE
8
BLACK
6
CONTINUOUS
10
7.1509941338582674
20
-3.0429032283464568
11
7.1586748425196847
21
-3.0421467322834643
0
LINE
8
BLACK
6
CONTINUOUS
10
7.1586748425196847
20
-3.0421467322834643
11
7.1663555511811019
21
-3.0429032283464568
0
LINE
8
BLACK
6
CONTINUOUS
10
6.1353159448818895
20
-3.0384389763779529
11
6.1415567322834645
21
-3.0412175590551183
0
LINE
8
BLACK
6
CONTINUOUS
10
6.1415567322834645
20
-3.0412175590551183
11
6.1470834251968505
21
-3.0452329527559057
0
LINE
8
BLACK
6
CONTINUOUS
10
6.1470834251968505
20
-3.0452329527559057
11
6.1516545275590548
21
-3.0503096456692913
0
LINE
8
BLACK
6
CONTINUOUS
10
6.1516545275590548
20
-3.0503096456692913
11
6.1550702362204719
21
-3.0562258267716533
0
LINE
8
BLACK
6
CONTINUOUS
10
6.1550702362204719
20
-3.0562258267716533
11
6.1571812598425195
21
-3.0627228346456694
0
LINE
8
BLACK
6
CONTINUOUS
10
6.1571812598425195
20
-3.0627228346456694
11
6.1578953149606299
21
-3.0695168110236222
0
LINE
8
BLACK
6
CONTINUOUS
10
6.1578953149606299
20
-3.0695168110236222
11
6.1571812598425195
21
-3.0763107874015749
0
LINE
8
BLACK
6
CONTINUOUS
10
6.1571812598425195
20
-3.0763107874015749
11
6.1550702362204719
21
-3.0828077952755906
0
LINE
8
BLACK
6
CONTINUOUS
10
6.1550702362204719
20
-3.0828077952755906
11
6.1516545275590548
21
-3.0887239763779526
0
LINE
8
BLACK
6
CONTINUOUS
10
6.1516545275590548
20
-3.0887239763779526
11
6.1470834251968505
21
-3.0938006692913387
0
LINE
8
BLACK
6
CONTINUOUS
10
6.1470834251968505
20
-3.0938006692913387
11
6.1415567322834645
21
-3.0978160629921261
0
LINE
8
BLACK
6
CONTINUOUS
10
6.1415567322834645
20
-3.0978160629921261
11
6.1353159448818895
21
-3.1005946456692914
0
LINE
8
BLACK
6
CONTINUOUS
10
6.1353159448818895
20
-3.1005946456692914
11
6.1286338582677162
21
-3.102014960629921
0
LINE
8
BLACK
6
CONTINUOUS
10
6.1286338582677162
20
-3.102014960629921
11
6.1218024409448821
21
-3.102014960629921
0
LINE
8
BLACK
6
CONTINUOUS
10
6.1218024409448821
20
-3.102014960629921
11
6.1151203543307089
21
-3.1005946456692914
0
LINE
8
BLACK
6
CONTINUOUS
10
6.1151203543307089
20
-3.1005946456692914
11
6.1088795669291338
21
-3.0978160629921261
0
LINE
8
BLACK
6
CONTINUOUS
10
6.1088795669291338
20
-3.0978160629921261
11
6.1033528740157479
21
-3.0938006692913387
0
LINE
8
BLACK
6
CONTINUOUS
10
6.1033528740157479
20
-3.0938006692913387
11
6.0987817716535435
21
-3.0887239763779526
0
LINE
8
BLACK
6
CONTINUOUS
10
6.0987817716535435
20
-3.0887239763779526
11
6.0953660629921256
21
-3.0828077952755906
0
LINE
8
BLACK
6
CONTINUOUS
10
6.0953660629921256
20
-3.0828077952755906
11
6.0932550393700788
21
-3.0763107874015749
0
LINE
8
BLACK
6
CONTINUOUS
10
6.0932550393700788
20
-3.0763107874015749
11
6.0925409842519684
21
-3.0695168110236222
0
LINE
8
BLACK
6
CONTINUOUS
10
6.0925409842519684
20
-3.0695168110236222
11
6.0932550393700788
21
-3.0627228346456694
0
LINE
8
BLACK
6
CONTINUOUS
10
6.0932550393700788
20
-3.0627228346456694
11
6.0953660629921256
21
-3.0562258267716533
0
LINE
8
BLACK
6
CONTINUOUS
10
6.0953660629921256
20
-3.0562258267716533
11
6.0987817716535435
21
-3.0503096456692913
0
LINE
8
BLACK
6
CONTINUOUS
10
6.0987817716535435
20
-3.0503096456692913
11
6.1033528740157479
21
-3.0452329527559057
0
LINE
8
BLACK
6
CONTINUOUS
10
6.1033528740157479
20
-3.0452329527559057
11
6.1088795669291338
21
-3.0412175590551183
0
LINE
8
BLACK
6
CONTINUOUS
10
6.1088795669291338
20
-3.0412175590551183
11
6.1151203543307089
21
-3.0384389763779529
0
LINE
8
BLACK
6
CONTINUOUS
10
6.1151203543307089
20
-3.0384389763779529
11
6.1218024409448821
21
-3.0370186614173229
0
LINE
8
BLACK
6
CONTINUOUS
10
6.1218024409448821
20
-3.0370186614173229
11
6.1286338582677162
21
-3.0370186614173229
0
LINE
8
BLACK
6
CONTINUOUS
10
6.1286338582677162
20
-3.0370186614173229
11
6.1353159448818895
21
-3.0384389763779529
0
LINE
8
BLACK
6
CONTINUOUS
10
6.3274419291338582
20
-3.0384389763779529
11
6.3336827165354332
21
-3.0412175590551183
0
LINE
8
BLACK
6
CONTINUOUS
10
6.3336827165354332
20
-3.0412175590551183
11
6.3392094094488192
21
-3.0452329527559057
0
LINE
8
BLACK
6
CONTINUOUS
10
6.3392094094488192
20
-3.0452329527559057
11
6.3437805118110235
21
-3.0503096456692913
0
LINE
8
BLACK
6
CONTINUOUS
10
6.3437805118110235
20
-3.0503096456692913
11
6.3471962204724406
21
-3.0562258267716533
0
LINE
8
BLACK
6
CONTINUOUS
10
6.3471962204724406
20
-3.0562258267716533
11
6.3493072440944882
21
-3.0627228346456694
0
LINE
8
BLACK
6
CONTINUOUS
10
6.3493072440944882
20
-3.0627228346456694
11
6.3500212992125986
21
-3.0695168110236222
0
LINE
8
BLACK
6
CONTINUOUS
10
6.3500212992125986
20
-3.0695168110236222
11
6.3493072440944882
21
-3.0763107874015749
0
LINE
8
BLACK
6
CONTINUOUS
10
6.3493072440944882
20
-3.0763107874015749
11
6.3471962204724406
21
-3.0828077952755906
0
LINE
8
BLACK
6
CONTINUOUS
10
6.3471962204724406
20
-3.0828077952755906
11
6.3437805118110235
21
-3.0887239763779526
0
LINE
8
BLACK
6
CONTINUOUS
10
6.3437805118110235
20
-3.0887239763779526
11
6.3392094094488192
21
-3.0938006692913387
0
LINE
8
BLACK
6
CONTINUOUS
10
6.3392094094488192
20
-3.0938006692913387
11
6.3336827165354332
21
-3.0978160629921261
0
LINE
8
BLACK
6
CONTINUOUS
10
6.3336827165354332
20
-3.0978160629921261
11
6.3274419291338582
21
-3.1005946456692914
0
LINE
8
BLACK
6
CONTINUOUS
10
6.3274419291338582
20
-3.1005946456692914
11
6.3207598425196849
21
-3.102014960629921
0
LINE
8
BLACK
6
CONTINUOUS
10
6.3207598425196849
20
-3.102014960629921
11
6.3139284251968499
21
-3.102014960629921
0
LINE
8
BLACK
6
CONTINUOUS
10
6.3139284251968499
20
-3.102014960629921
11
6.3072463385826767
21
-3.1005946456692914
0
LINE
8
BLACK
6
CONTINUOUS
10
6.3072463385826767
20
-3.1005946456692914
11
6.3010055511811025
21
-3.0978160629921261
0
LINE
8
BLACK
6
CONTINUOUS
10
6.3010055511811025
20
-3.0978160629921261
11
6.2954788582677166
21
-3.0938006692913387
0
LINE
8
BLACK
6
CONTINUOUS
10
6.2954788582677166
20
-3.0938006692913387
11
6.2909077559055113
21
-3.0887239763779526
0
LINE
8
BLACK
6
CONTINUOUS
10
6.2909077559055113
20
-3.0887239763779526
11
6.2874920472440943
21
-3.0828077952755906
0
LINE
8
BLACK
6
CONTINUOUS
10
6.2874920472440943
20
-3.0828077952755906
11
6.2853810236220475
21
-3.0763107874015749
0
LINE
8
BLACK
6
CONTINUOUS
10
6.2853810236220475
20
-3.0763107874015749
11
6.2846669685039371
21
-3.0695168110236222
0
LINE
8
BLACK
6
CONTINUOUS
10
6.2846669685039371
20
-3.0695168110236222
11
6.2853810236220475
21
-3.0627228346456694
0
LINE
8
BLACK
6
CONTINUOUS
10
6.2853810236220475
20
-3.0627228346456694
11
6.2874920472440943
21
-3.0562258267716533
0
LINE
8
BLACK
6
CONTINUOUS
10
6.2874920472440943
20
-3.0562258267716533
11
6.2909077559055113
21
-3.0503096456692913
0
LINE
8
BLACK
6
CONTINUOUS
10
6.2909077559055113
20
-3.0503096456692913
11
6.2954788582677166
21
-3.0452329527559057
0
LINE
8
BLACK
6
CONTINUOUS
10
6.2954788582677166
20
-3.0452329527559057
11
6.3010055511811025
21
-3.0412175590551183
0
LINE
8
BLACK
6
CONTINUOUS
10
6.3010055511811025
20
-3.0412175590551183
11
6.3072463385826767
21
-3.0384389763779529
0
LINE
8
BLACK
6
CONTINUOUS
10
6.3072463385826767
20
-3.0384389763779529
11
6.3139284251968499
21
-3.0370186614173229
0
LINE
8
BLACK
6
CONTINUOUS
10
6.3139284251968499
20
-3.0370186614173229
11
6.3207598425196849
21
-3.0370186614173229
0
LINE
8
BLACK
6
CONTINUOUS
10
6.3207598425196849
20
-3.0370186614173229
11
6.3274419291338582
21
-3.0384389763779529
0
LINE
8
BLACK
6
CONTINUOUS
10
6.6431791732283463
20
-3.0150854724409446
11
6.6472685433070868
21
-3.0169924015748029
0
LINE
8
BLACK
6
CONTINUOUS
10
6.6472685433070868
20
-3.0169924015748029
11
6.6504590944881885
21
-3.0201829527559054
0
LINE
8
BLACK
6
CONTINUOUS
10
6.6504590944881885
20
-3.0201829527559054
11
6.6523660236220472
21
-3.0242723228346455
0
LINE
8
BLACK
6
CONTINUOUS
10
6.6523660236220472
20
-3.0242723228346455
11
6.6528087007874017
21
-3.0276349212598426
0
LINE
8
BLACK
6
CONTINUOUS
10
6.6528087007874017
20
-3.0276349212598426
11
6.6528087007874017
21
-3.0571624803149606
0
LINE
8
BLACK
6
CONTINUOUS
10
6.6528087007874017
20
-3.0571624803149606
11
6.6523660236220472
21
-3.0605250787401572
0
LINE
8
BLACK
6
CONTINUOUS
10
6.6523660236220472
20
-3.0605250787401572
11
6.6504590944881885
21
-3.0646144488188978
0
LINE
8
BLACK
6
CONTINUOUS
10
6.6504590944881885
20
-3.0646144488188978
11
6.6472685433070868
21
-3.0678049999999999
0
LINE
8
BLACK
6
CONTINUOUS
10
6.6472685433070868
20
-3.0678049999999999
11
6.6431791732283463
21
-3.0697119291338582
0
LINE
8
BLACK
6
CONTINUOUS
10
6.6431791732283463
20
-3.0697119291338582
11
6.6398165748031497
21
-3.0701546062992127
0
LINE
8
BLACK
6
CONTINUOUS
10
6.6398165748031497
20
-3.0701546062992127
11
6.5906039763779525
21
-3.0701546062992127
0
LINE
8
BLACK
6
CONTINUOUS
10
6.5906039763779525
20
-3.0701546062992127
11
6.5872413779527559
21
-3.0697119291338582
0
LINE
8
BLACK
6
CONTINUOUS
10
6.5872413779527559
20
-3.0697119291338582
11
6.5831520078740153
21
-3.0678049999999999
0
LINE
8
BLACK
6
CONTINUOUS
10
6.5831520078740153
20
-3.0678049999999999
11
6.5799614566929137
21
-3.0646144488188978
0
LINE
8
BLACK
6
CONTINUOUS
10
6.5799614566929137
20
-3.0646144488188978
11
6.578054527559055
21
-3.0605250787401572
0
LINE
8
BLACK
6
CONTINUOUS
10
6.578054527559055
20
-3.0605250787401572
11
6.5776118503937004
21
-3.0571624803149606
0
LINE
8
BLACK
6
CONTINUOUS
10
6.5776118503937004
20
-3.0571624803149606
11
6.5776118503937004
21
-3.0276349212598426
0
LINE
8
BLACK
6
CONTINUOUS
10
6.5776118503937004
20
-3.0276349212598426
11
6.578054527559055
21
-3.0242723228346455
0
LINE
8
BLACK
6
CONTINUOUS
10
6.578054527559055
20
-3.0242723228346455
11
6.5799614566929137
21
-3.0201829527559054
0
LINE
8
BLACK
6
CONTINUOUS
10
6.5799614566929137
20
-3.0201829527559054
11
6.5831520078740153
21
-3.0169924015748029
0
LINE
8
BLACK
6
CONTINUOUS
10
6.5831520078740153
20
-3.0169924015748029
11
6.5872413779527559
21
-3.0150854724409446
0
LINE
8
BLACK
6
CONTINUOUS
10
6.5872413779527559
20
-3.0150854724409446
11
6.5906039763779525
21
-3.0146427952755905
0
LINE
8
BLACK
6
CONTINUOUS
10
6.5906039763779525
20
-3.0146427952755905
11
6.6398165748031497
21
-3.0146427952755905
0
LINE
8
BLACK
6
CONTINUOUS
10
6.6398165748031497
20
-3.0146427952755905
11
6.6431791732283463
21
-3.0150854724409446
0
LINE
8
BLACK
6
CONTINUOUS
10
4.9983555511811026
20
-2.9869032283464567
11
5.0057411023622045
21
-2.9891435826771651
0
LINE
8
BLACK
6
CONTINUOUS
10
5.0057411023622045
20
-2.9891435826771651
11
5.0125476771653545
21
-2.9927817716535432
0
LINE
8
BLACK
6
CONTINUOUS
10
5.0125476771653545
20
-2.9927817716535432
11
5.0185137007874019
21
-2.9976779527559057
0
LINE
8
BLACK
6
CONTINUOUS
10
5.0185137007874019
20
-2.9976779527559057
11
5.0234098818897639
21
-3.0036439763779526
0
LINE
8
BLACK
6
CONTINUOUS
10
5.0234098818897639
20
-3.0036439763779526
11
5.027048070866142
21
-3.0104505511811022
0
LINE
8
BLACK
6
CONTINUOUS
10
5.027048070866142
20
-3.0104505511811022
11
5.0292884251968504
21
-3.0178361023622045
0
LINE
8
BLACK
6
CONTINUOUS
10
5.0292884251968504
20
-3.0178361023622045
11
5.0300449212598428
21
-3.0255168110236221
0
LINE
8
BLACK
6
CONTINUOUS
10
5.0300449212598428
20
-3.0255168110236221
11
5.0292884251968504
21
-3.0331975196850394
0
LINE
8
BLACK
6
CONTINUOUS
10
5.0292884251968504
20
-3.0331975196850394
11
5.027048070866142
21
-3.0405830708661417
0
LINE
8
BLACK
6
CONTINUOUS
10
5.027048070866142
20
-3.0405830708661417
11
5.0234098818897639
21
-3.0473896456692913
0
LINE
8
BLACK
6
CONTINUOUS
10
5.0234098818897639
20
-3.0473896456692913
11
5.0185137007874019
21
-3.0533556692913386
0
LINE
8
BLACK
6
CONTINUOUS
10
5.0185137007874019
20
-3.0533556692913386
11
5.0125476771653545
21
-3.0582518503937006
0
LINE
8
BLACK
6
CONTINUOUS
10
5.0125476771653545
20
-3.0582518503937006
11
5.0057411023622045
21
-3.0618900393700788
0
LINE
8
BLACK
6
CONTINUOUS
10
5.0057411023622045
20
-3.0618900393700788
11
4.9983555511811026
21
-3.0641303937007875
0
LINE
8
BLACK
6
CONTINUOUS
10
4.9983555511811026
20
-3.0641303937007875
11
4.9906748425196845
21
-3.0648868897637795
0
LINE
8
BLACK
6
CONTINUOUS
10
4.9906748425196845
20
-3.0648868897637795
11
4.9829941338582673
21
-3.0641303937007875
0
LINE
8
BLACK
6
CONTINUOUS
10
4.9829941338582673
20
-3.0641303937007875
11
4.9756085826771654
21
-3.0618900393700788
0
LINE
8
BLACK
6
CONTINUOUS
10
4.9756085826771654
20
-3.0618900393700788
11
4.9688020078740154
21
-3.0582518503937006
0
LINE
8
BLACK
6
CONTINUOUS
10
4.9688020078740154
20
-3.0582518503937006
11
4.962835984251968
21
-3.0533556692913386
0
LINE
8
BLACK
6
CONTINUOUS
10
4.962835984251968
20
-3.0533556692913386
11
4.957939803149606
21
-3.0473896456692913
0
LINE
8
BLACK
6
CONTINUOUS
10
4.957939803149606
20
-3.0473896456692913
11
4.9543016141732279
21
-3.0405830708661417
0
LINE
8
BLACK
6
CONTINUOUS
10
4.9543016141732279
20
-3.0405830708661417
11
4.9520612598425195
21
-3.0331975196850394
0
LINE
8
BLACK
6
CONTINUOUS
10
4.9520612598425195
20
-3.0331975196850394
11
4.9513047637795271
21
-3.0255168110236221
0
LINE
8
BLACK
6
CONTINUOUS
10
4.9513047637795271
20
-3.0255168110236221
11
4.9520612598425195
21
-3.0178361023622045
0
LINE
8
BLACK
6
CONTINUOUS
10
4.9520612598425195
20
-3.0178361023622045
11
4.9543016141732279
21
-3.0104505511811022
0
LINE
8
BLACK
6
CONTINUOUS
10
4.9543016141732279
20
-3.0104505511811022
11
4.957939803149606
21
-3.0036439763779526
0
LINE
8
BLACK
6
CONTINUOUS
10
4.957939803149606
20
-3.0036439763779526
11
4.962835984251968
21
-2.9976779527559057
0
LINE
8
BLACK
6
CONTINUOUS
10
4.962835984251968
20
-2.9976779527559057
11
4.9688020078740154
21
-2.9927817716535432
0
LINE
8
BLACK
6
CONTINUOUS
10
4.9688020078740154
20
-2.9927817716535432
11
4.9756085826771654
21
-2.9891435826771651
0
LINE
8
BLACK
6
CONTINUOUS
10
4.9756085826771654
20
-2.9891435826771651
11
4.9829941338582673
21
-2.9869032283464567
0
LINE
8
BLACK
6
CONTINUOUS
10
4.9829941338582673
20
-2.9869032283464567
11
4.9906748425196845
21
-2.9861467322834643
0
LINE
8
BLACK
6
CONTINUOUS
10
4.9906748425196845
20
-2.9861467322834643
11
4.9983555511811026
21
-2.9869032283464567
  0
ENDSEC
  0
EOF
