  0
SECTION
  2
HEADER
  9
$ANGBASE
  50
0.0
  9
$ANGDIR
  70
1
  9
$MEASUREMENT
  70
0
  0
ENDSEC
  0
SECTION
  2
TABLES
  0
TABLE
  2
LTYPE
  70
4
  0
LTYPE
  5
40F
  2
CONTINUOUS
  70
0
  3
Solid line
  72
65
  73
0
  40
0.0
  0
LTYPE
  5
410
  2
DASHDOT
 70
0
  3
Dash Dot ____ _ ____ _
 72
65
 73
4
 40
2.0
 49
1.25
 49
-0.25
 49
0.25
 49
-0.25
  0
LTYPE
  5
411
  2
DASHED
 70
0
  3
Dashed __ __ __ __ __
 72
65
 73
2
 40
0.75
 49
0.5
 49
-0.25
  0
LTYPE
  5
43B
  2
DOTTED
 70
0
  3
Dotted .  .  .  .
 72
65
 73
2
 40
0.2
 49
0.0
 49
-0.2
  0
ENDTAB
  0
TABLE
  2
STYLE
  70
4
  0
STYLE
  2
KICAD
  70
0
  40
0
  41
1
  42
1
  50
0
  71
0
  3
isocp.shx
  0
STYLE
  2
KICADB
  70
0
  40
0
  41
1
  42
1
  50
0
  71
0
  3
isocp.shx
  0
STYLE
  2
KICADI
  70
0
  40
0
  41
1
  42
1
  50
15
  71
0
  3
isocp.shx
  0
STYLE
  2
KICADBI
  70
0
  40
0
  41
1
  42
1
  50
15
  71
0
  3
isocp.shx
  0
ENDTAB
  0
TABLE
  2
LAYER
  70
1
  0
LAYER
  2
BLACK
  70
0
  62
7
  6
CONTINUOUS
  0
ENDTAB
  0
ENDSEC
  0
SECTION
  2
ENTITIES
0
LINE
8
BLACK
6
CONTINUOUS
10
3.25962
20
0.0639694
11
3.25933
21
0.0646654
0
LINE
8
BLACK
6
CONTINUOUS
10
3.25933
20
0.0646654
11
3.25933
21
0.46624
0
LINE
8
BLACK
6
CONTINUOUS
10
3.25933
20
0.46624
11
3.25962
21
0.466936
0
LINE
8
BLACK
6
CONTINUOUS
10
3.25962
20
0.466936
11
3.26031
21
0.467224
0
LINE
8
BLACK
6
CONTINUOUS
10
3.26031
20
0.467224
11
3.5922
21
0.467224
0
LINE
8
BLACK
6
CONTINUOUS
10
3.5922
20
0.467224
11
3.5929
21
0.466936
0
LINE
8
BLACK
6
CONTINUOUS
10
3.5929
20
0.466936
11
3.59319
21
0.46624
0
LINE
8
BLACK
6
CONTINUOUS
10
3.59319
20
0.46624
11
3.59319
21
0.0646654
0
LINE
8
BLACK
6
CONTINUOUS
10
3.59319
20
0.0646654
11
3.5929
21
0.0639694
0
LINE
8
BLACK
6
CONTINUOUS
10
3.5929
20
0.0639694
11
3.5922
21
0.0636811
0
LINE
8
BLACK
6
CONTINUOUS
10
3.5922
20
0.0636811
11
3.26031
21
0.0636811
0
LINE
8
BLACK
6
CONTINUOUS
10
3.26031
20
0.0636811
11
3.25962
21
0.0639694
0
LINE
8
BLACK
6
CONTINUOUS
10
3.2613
20
0.465256
11
3.2613
21
0.0656496
0
LINE
8
BLACK
6
CONTINUOUS
10
3.2613
20
0.0656496
11
3.59122
21
0.0656496
0
LINE
8
BLACK
6
CONTINUOUS
10
3.59122
20
0.0656496
11
3.59122
21
0.465256
0
LINE
8
BLACK
6
CONTINUOUS
10
3.59122
20
0.465256
11
3.2613
21
0.465256
0
LINE
8
BLACK
6
CONTINUOUS
10
1.44619
20
0.122375
11
1.44591
21
0.123071
0
LINE
8
BLACK
6
CONTINUOUS
10
1.44591
20
0.123071
11
1.44591
21
0.256929
0
LINE
8
BLACK
6
CONTINUOUS
10
1.44591
20
0.256929
11
1.44619
21
0.257625
0
LINE
8
BLACK
6
CONTINUOUS
10
1.44619
20
0.257625
11
1.44689
21
0.257913
0
LINE
8
BLACK
6
CONTINUOUS
10
1.44689
20
0.257913
11
1.59807
21
0.257913
0
LINE
8
BLACK
6
CONTINUOUS
10
1.59807
20
0.257913
11
1.59877
21
0.257625
0
LINE
8
BLACK
6
CONTINUOUS
10
1.59877
20
0.257625
11
1.59906
21
0.256929
0
LINE
8
BLACK
6
CONTINUOUS
10
1.59906
20
0.256929
11
1.59906
21
0.123071
0
LINE
8
BLACK
6
CONTINUOUS
10
1.59906
20
0.123071
11
1.59877
21
0.122375
0
LINE
8
BLACK
6
CONTINUOUS
10
1.59877
20
0.122375
11
1.59807
21
0.122087
0
LINE
8
BLACK
6
CONTINUOUS
10
1.59807
20
0.122087
11
1.44689
21
0.122087
0
LINE
8
BLACK
6
CONTINUOUS
10
1.44689
20
0.122087
11
1.44619
21
0.122375
0
LINE
8
BLACK
6
CONTINUOUS
10
1.44787
20
0.255945
11
1.44787
21
0.124055
0
LINE
8
BLACK
6
CONTINUOUS
10
1.44787
20
0.124055
11
1.59709
21
0.124055
0
LINE
8
BLACK
6
CONTINUOUS
10
1.59709
20
0.124055
11
1.59709
21
0.255945
0
LINE
8
BLACK
6
CONTINUOUS
10
1.59709
20
0.255945
11
1.44787
21
0.255945
0
LINE
8
BLACK
6
CONTINUOUS
10
1.63104
20
0.180564
11
1.63075
21
0.18126
0
LINE
8
BLACK
6
CONTINUOUS
10
1.63075
20
0.18126
11
1.63075
21
0.23874
0
LINE
8
BLACK
6
CONTINUOUS
10
1.63075
20
0.23874
11
1.63104
21
0.239436
0
LINE
8
BLACK
6
CONTINUOUS
10
1.63104
20
0.239436
11
1.63173
21
0.239724
0
LINE
8
BLACK
6
CONTINUOUS
10
1.63173
20
0.239724
11
1.74827
21
0.239724
0
LINE
8
BLACK
6
CONTINUOUS
10
1.74827
20
0.239724
11
1.74896
21
0.239436
0
LINE
8
BLACK
6
CONTINUOUS
10
1.74896
20
0.239436
11
1.74925
21
0.23874
0
LINE
8
BLACK
6
CONTINUOUS
10
1.74925
20
0.23874
11
1.74925
21
0.18126
0
LINE
8
BLACK
6
CONTINUOUS
10
1.74925
20
0.18126
11
1.74896
21
0.180564
0
LINE
8
BLACK
6
CONTINUOUS
10
1.74896
20
0.180564
11
1.74827
21
0.180276
0
LINE
8
BLACK
6
CONTINUOUS
10
1.74827
20
0.180276
11
1.63173
21
0.180276
0
LINE
8
BLACK
6
CONTINUOUS
10
1.63173
20
0.180276
11
1.63104
21
0.180564
0
LINE
8
BLACK
6
CONTINUOUS
10
1.63272
20
0.237756
11
1.63272
21
0.182244
0
LINE
8
BLACK
6
CONTINUOUS
10
1.63272
20
0.182244
11
1.74728
21
0.182244
0
LINE
8
BLACK
6
CONTINUOUS
10
1.74728
20
0.182244
11
1.74728
21
0.237756
0
LINE
8
BLACK
6
CONTINUOUS
10
1.74728
20
0.237756
11
1.63272
21
0.237756
0
LINE
8
BLACK
6
CONTINUOUS
10
1.79371
20
0.262375
11
1.79343
21
0.263071
0
LINE
8
BLACK
6
CONTINUOUS
10
1.79343
20
0.263071
11
1.79343
21
0.396929
0
LINE
8
BLACK
6
CONTINUOUS
10
1.79343
20
0.396929
11
1.79371
21
0.397625
0
LINE
8
BLACK
6
CONTINUOUS
10
1.79371
20
0.397625
11
1.79441
21
0.397913
0
LINE
8
BLACK
6
CONTINUOUS
10
1.79441
20
0.397913
11
1.94559
21
0.397913
0
LINE
8
BLACK
6
CONTINUOUS
10
1.94559
20
0.397913
11
1.94629
21
0.397625
0
LINE
8
BLACK
6
CONTINUOUS
10
1.94629
20
0.397625
11
1.94657
21
0.396929
0
LINE
8
BLACK
6
CONTINUOUS
10
1.94657
20
0.396929
11
1.94657
21
0.263071
0
LINE
8
BLACK
6
CONTINUOUS
10
1.94657
20
0.263071
11
1.94629
21
0.262375
0
LINE
8
BLACK
6
CONTINUOUS
10
1.94629
20
0.262375
11
1.94559
21
0.262087
0
LINE
8
BLACK
6
CONTINUOUS
10
1.94559
20
0.262087
11
1.79441
21
0.262087
0
LINE
8
BLACK
6
CONTINUOUS
10
1.79441
20
0.262087
11
1.79371
21
0.262375
0
LINE
8
BLACK
6
CONTINUOUS
10
1.79539
20
0.395945
11
1.79539
21
0.264055
0
LINE
8
BLACK
6
CONTINUOUS
10
1.79539
20
0.264055
11
1.94461
21
0.264055
0
LINE
8
BLACK
6
CONTINUOUS
10
1.94461
20
0.264055
11
1.94461
21
0.395945
0
LINE
8
BLACK
6
CONTINUOUS
10
1.94461
20
0.395945
11
1.79539
21
0.395945
0
LINE
8
BLACK
6
CONTINUOUS
10
1.74925
20
0.29126
11
1.74896
21
0.290564
0
LINE
8
BLACK
6
CONTINUOUS
10
1.74896
20
0.290564
11
1.74827
21
0.290276
0
LINE
8
BLACK
6
CONTINUOUS
10
1.74827
20
0.290276
11
1.63173
21
0.290276
0
LINE
8
BLACK
6
CONTINUOUS
10
1.63173
20
0.290276
11
1.63104
21
0.290564
0
LINE
8
BLACK
6
CONTINUOUS
10
1.63104
20
0.290564
11
1.63075
21
0.29126
0
LINE
8
BLACK
6
CONTINUOUS
10
1.63075
20
0.29126
11
1.63075
21
0.34874
0
LINE
8
BLACK
6
CONTINUOUS
10
1.63075
20
0.34874
11
1.63104
21
0.349436
0
LINE
8
BLACK
6
CONTINUOUS
10
1.63104
20
0.349436
11
1.63173
21
0.349724
0
LINE
8
BLACK
6
CONTINUOUS
10
1.63173
20
0.349724
11
1.71028
21
0.349724
0
LINE
8
BLACK
6
CONTINUOUS
10
1.71028
20
0.349724
11
1.71028
21
0.418268
0
LINE
8
BLACK
6
CONTINUOUS
10
1.71028
20
0.418268
11
1.71056
21
0.418964
0
LINE
8
BLACK
6
CONTINUOUS
10
1.71056
20
0.418964
11
1.71126
21
0.419252
0
LINE
8
BLACK
6
CONTINUOUS
10
1.71126
20
0.419252
11
1.76874
21
0.419252
0
LINE
8
BLACK
6
CONTINUOUS
10
1.76874
20
0.419252
11
1.76944
21
0.418964
0
LINE
8
BLACK
6
CONTINUOUS
10
1.76944
20
0.418964
11
1.76972
21
0.418268
0
LINE
8
BLACK
6
CONTINUOUS
10
1.76972
20
0.418268
11
1.76972
21
0.301732
0
LINE
8
BLACK
6
CONTINUOUS
10
1.76972
20
0.301732
11
1.76944
21
0.301036
0
LINE
8
BLACK
6
CONTINUOUS
10
1.76944
20
0.301036
11
1.76874
21
0.300748
0
LINE
8
BLACK
6
CONTINUOUS
10
1.76874
20
0.300748
11
1.74925
21
0.300748
0
LINE
8
BLACK
6
CONTINUOUS
10
1.74925
20
0.300748
11
1.74925
21
0.29126
0
LINE
8
BLACK
6
CONTINUOUS
10
1.63272
20
0.347756
11
1.63272
21
0.292244
0
LINE
8
BLACK
6
CONTINUOUS
10
1.63272
20
0.292244
11
1.74728
21
0.292244
0
LINE
8
BLACK
6
CONTINUOUS
10
1.74728
20
0.292244
11
1.74728
21
0.300748
0
LINE
8
BLACK
6
CONTINUOUS
10
1.74728
20
0.300748
11
1.71126
21
0.300748
0
LINE
8
BLACK
6
CONTINUOUS
10
1.71126
20
0.300748
11
1.71056
21
0.301036
0
LINE
8
BLACK
6
CONTINUOUS
10
1.71056
20
0.301036
11
1.71028
21
0.301732
0
LINE
8
BLACK
6
CONTINUOUS
10
1.71028
20
0.301732
11
1.71028
21
0.347756
0
LINE
8
BLACK
6
CONTINUOUS
10
1.71028
20
0.347756
11
1.63272
21
0.347756
0
LINE
8
BLACK
6
CONTINUOUS
10
1.71224
20
0.347756
11
1.71224
21
0.302717
0
LINE
8
BLACK
6
CONTINUOUS
10
1.71224
20
0.302717
11
1.74728
21
0.302717
0
LINE
8
BLACK
6
CONTINUOUS
10
1.74728
20
0.302717
11
1.74728
21
0.347756
0
LINE
8
BLACK
6
CONTINUOUS
10
1.74728
20
0.347756
11
1.71224
21
0.347756
0
LINE
8
BLACK
6
CONTINUOUS
10
1.74925
20
0.34874
11
1.74925
21
0.302717
0
LINE
8
BLACK
6
CONTINUOUS
10
1.74925
20
0.302717
11
1.76776
21
0.302717
0
LINE
8
BLACK
6
CONTINUOUS
10
1.76776
20
0.302717
11
1.76776
21
0.417283
0
LINE
8
BLACK
6
CONTINUOUS
10
1.76776
20
0.417283
11
1.71224
21
0.417283
0
LINE
8
BLACK
6
CONTINUOUS
10
1.71224
20
0.417283
11
1.71224
21
0.349724
0
LINE
8
BLACK
6
CONTINUOUS
10
1.71224
20
0.349724
11
1.74827
21
0.349724
0
LINE
8
BLACK
6
CONTINUOUS
10
1.74827
20
0.349724
11
1.74896
21
0.349436
0
LINE
8
BLACK
6
CONTINUOUS
10
1.74896
20
0.349436
11
1.74925
21
0.34874
0
LINE
8
BLACK
6
CONTINUOUS
10
1.52051
20
0.301036
11
1.52022
21
0.301732
0
LINE
8
BLACK
6
CONTINUOUS
10
1.52022
20
0.301732
11
1.52022
21
0.418268
0
LINE
8
BLACK
6
CONTINUOUS
10
1.52022
20
0.418268
11
1.52051
21
0.418964
0
LINE
8
BLACK
6
CONTINUOUS
10
1.52051
20
0.418964
11
1.52121
21
0.419252
0
LINE
8
BLACK
6
CONTINUOUS
10
1.52121
20
0.419252
11
1.57869
21
0.419252
0
LINE
8
BLACK
6
CONTINUOUS
10
1.57869
20
0.419252
11
1.57938
21
0.418964
0
LINE
8
BLACK
6
CONTINUOUS
10
1.57938
20
0.418964
11
1.57967
21
0.418268
0
LINE
8
BLACK
6
CONTINUOUS
10
1.57967
20
0.418268
11
1.57967
21
0.301732
0
LINE
8
BLACK
6
CONTINUOUS
10
1.57967
20
0.301732
11
1.57938
21
0.301036
0
LINE
8
BLACK
6
CONTINUOUS
10
1.57938
20
0.301036
11
1.57869
21
0.300748
0
LINE
8
BLACK
6
CONTINUOUS
10
1.57869
20
0.300748
11
1.52121
21
0.300748
0
LINE
8
BLACK
6
CONTINUOUS
10
1.52121
20
0.300748
11
1.52051
21
0.301036
0
LINE
8
BLACK
6
CONTINUOUS
10
1.52219
20
0.417283
11
1.52219
21
0.302717
0
LINE
8
BLACK
6
CONTINUOUS
10
1.52219
20
0.302717
11
1.5777
21
0.302717
0
LINE
8
BLACK
6
CONTINUOUS
10
1.5777
20
0.302717
11
1.5777
21
0.417283
0
LINE
8
BLACK
6
CONTINUOUS
10
1.5777
20
0.417283
11
1.52219
21
0.417283
0
LINE
8
BLACK
6
CONTINUOUS
10
0.0631623
20
0.343792
11
0.062874
21
0.344488
0
LINE
8
BLACK
6
CONTINUOUS
10
0.062874
20
0.344488
11
0.062874
21
1.65551
0
LINE
8
BLACK
6
CONTINUOUS
10
0.062874
20
1.65551
11
0.0631623
21
1.65621
0
LINE
8
BLACK
6
CONTINUOUS
10
0.0631623
20
1.65621
11
0.0638583
21
1.6565
0
LINE
8
BLACK
6
CONTINUOUS
10
0.0638583
20
1.6565
11
1.37488
21
1.6565
0
LINE
8
BLACK
6
CONTINUOUS
10
1.37488
20
1.6565
11
1.37558
21
1.65621
0
LINE
8
BLACK
6
CONTINUOUS
10
1.37558
20
1.65621
11
1.37587
21
1.65551
0
LINE
8
BLACK
6
CONTINUOUS
10
1.37587
20
1.65551
11
1.37587
21
0.344488
0
LINE
8
BLACK
6
CONTINUOUS
10
1.37587
20
0.344488
11
1.37558
21
0.343792
0
LINE
8
BLACK
6
CONTINUOUS
10
1.37558
20
0.343792
11
1.37488
21
0.343504
0
LINE
8
BLACK
6
CONTINUOUS
10
1.37488
20
0.343504
11
0.0638583
21
0.343504
0
LINE
8
BLACK
6
CONTINUOUS
10
0.0638583
20
0.343504
11
0.0631623
21
0.343792
0
LINE
8
BLACK
6
CONTINUOUS
10
0.0648425
20
1.65453
11
0.0648425
21
0.345472
0
LINE
8
BLACK
6
CONTINUOUS
10
0.0648425
20
0.345472
11
1.3739
21
0.345472
0
LINE
8
BLACK
6
CONTINUOUS
10
1.3739
20
0.345472
11
1.3739
21
1.65453
0
LINE
8
BLACK
6
CONTINUOUS
10
1.3739
20
1.65453
11
0.0648425
21
1.65453
0
LINE
8
BLACK
6
CONTINUOUS
10
1.31681
20
1.59646
11
1.31681
21
0.403543
0
LINE
8
BLACK
6
CONTINUOUS
10
1.31681
20
0.403543
11
1.31652
21
0.402847
0
LINE
8
BLACK
6
CONTINUOUS
10
1.31652
20
0.402847
11
1.31583
21
0.402559
0
LINE
8
BLACK
6
CONTINUOUS
10
1.31583
20
0.402559
11
0.122913
21
0.402559
0
LINE
8
BLACK
6
CONTINUOUS
10
0.122913
20
0.402559
11
0.122217
21
0.402847
0
LINE
8
BLACK
6
CONTINUOUS
10
0.122217
20
0.402847
11
0.121929
21
0.403543
0
LINE
8
BLACK
6
CONTINUOUS
10
0.121929
20
0.403543
11
0.121929
21
1.59646
0
LINE
8
BLACK
6
CONTINUOUS
10
0.121929
20
1.59646
11
0.122217
21
1.59715
0
LINE
8
BLACK
6
CONTINUOUS
10
0.122217
20
1.59715
11
0.122913
21
1.59744
0
LINE
8
BLACK
6
CONTINUOUS
10
0.122913
20
1.59744
11
0.494276
21
1.59744
0
LINE
8
BLACK
6
CONTINUOUS
10
0.494276
20
1.59744
11
0.494276
21
1.60227
0
LINE
8
BLACK
6
CONTINUOUS
10
0.494276
20
1.60227
11
0.494564
21
1.60296
0
LINE
8
BLACK
6
CONTINUOUS
10
0.494564
20
1.60296
11
0.49526
21
1.60325
0
LINE
8
BLACK
6
CONTINUOUS
10
0.49526
20
1.60325
11
0.55274
21
1.60325
0
LINE
8
BLACK
6
CONTINUOUS
10
0.55274
20
1.60325
11
0.553436
21
1.60296
0
LINE
8
BLACK
6
CONTINUOUS
10
0.553436
20
1.60296
11
0.553724
21
1.60227
0
LINE
8
BLACK
6
CONTINUOUS
10
0.553724
20
1.60227
11
0.553724
21
1.59744
0
LINE
8
BLACK
6
CONTINUOUS
10
0.553724
20
1.59744
11
1.31583
21
1.59744
0
LINE
8
BLACK
6
CONTINUOUS
10
1.31583
20
1.59744
11
1.31652
21
1.59715
0
LINE
8
BLACK
6
CONTINUOUS
10
1.31652
20
1.59715
11
1.31681
21
1.59646
0
LINE
8
BLACK
6
CONTINUOUS
10
0.494564
20
1.48504
11
0.494276
21
1.48573
0
LINE
8
BLACK
6
CONTINUOUS
10
0.494276
20
1.48573
11
0.494276
21
1.59547
0
LINE
8
BLACK
6
CONTINUOUS
10
0.494276
20
1.59547
11
0.123898
21
1.59547
0
LINE
8
BLACK
6
CONTINUOUS
10
0.123898
20
1.59547
11
0.123898
21
0.404528
0
LINE
8
BLACK
6
CONTINUOUS
10
0.123898
20
0.404528
11
1.31484
21
0.404528
0
LINE
8
BLACK
6
CONTINUOUS
10
1.31484
20
0.404528
11
1.31484
21
1.59547
0
LINE
8
BLACK
6
CONTINUOUS
10
1.31484
20
1.59547
11
0.553724
21
1.59547
0
LINE
8
BLACK
6
CONTINUOUS
10
0.553724
20
1.59547
11
0.553724
21
1.48573
0
LINE
8
BLACK
6
CONTINUOUS
10
0.553724
20
1.48573
11
0.553436
21
1.48504
0
LINE
8
BLACK
6
CONTINUOUS
10
0.553436
20
1.48504
11
0.55274
21
1.48475
0
LINE
8
BLACK
6
CONTINUOUS
10
0.55274
20
1.48475
11
0.49526
21
1.48475
0
LINE
8
BLACK
6
CONTINUOUS
10
0.49526
20
1.48475
11
0.494564
21
1.48504
0
LINE
8
BLACK
6
CONTINUOUS
10
0.496244
20
1.59547
11
0.496244
21
1.48672
0
LINE
8
BLACK
6
CONTINUOUS
10
0.496244
20
1.48672
11
0.551756
21
1.48672
0
LINE
8
BLACK
6
CONTINUOUS
10
0.551756
20
1.48672
11
0.551756
21
1.59547
0
LINE
8
BLACK
6
CONTINUOUS
10
0.551756
20
1.59547
11
0.496244
21
1.59547
0
LINE
8
BLACK
6
CONTINUOUS
10
0.496244
20
1.60128
11
0.496244
21
1.59744
0
LINE
8
BLACK
6
CONTINUOUS
10
0.496244
20
1.59744
11
0.551756
21
1.59744
0
LINE
8
BLACK
6
CONTINUOUS
10
0.551756
20
1.59744
11
0.551756
21
1.60128
0
LINE
8
BLACK
6
CONTINUOUS
10
0.551756
20
1.60128
11
0.496244
21
1.60128
0
LINE
8
BLACK
6
CONTINUOUS
10
1.15856
20
0.423036
11
1.15828
21
0.423732
0
LINE
8
BLACK
6
CONTINUOUS
10
1.15828
20
0.423732
11
1.15828
21
0.540268
0
LINE
8
BLACK
6
CONTINUOUS
10
1.15828
20
0.540268
11
1.15856
21
0.540964
0
LINE
8
BLACK
6
CONTINUOUS
10
1.15856
20
0.540964
11
1.15926
21
0.541252
0
LINE
8
BLACK
6
CONTINUOUS
10
1.15926
20
0.541252
11
1.21674
21
0.541252
0
LINE
8
BLACK
6
CONTINUOUS
10
1.21674
20
0.541252
11
1.21744
21
0.540964
0
LINE
8
BLACK
6
CONTINUOUS
10
1.21744
20
0.540964
11
1.21772
21
0.540268
0
LINE
8
BLACK
6
CONTINUOUS
10
1.21772
20
0.540268
11
1.21772
21
0.423732
0
LINE
8
BLACK
6
CONTINUOUS
10
1.21772
20
0.423732
11
1.21744
21
0.423036
0
LINE
8
BLACK
6
CONTINUOUS
10
1.21744
20
0.423036
11
1.21674
21
0.422748
0
LINE
8
BLACK
6
CONTINUOUS
10
1.21674
20
0.422748
11
1.15926
21
0.422748
0
LINE
8
BLACK
6
CONTINUOUS
10
1.15926
20
0.422748
11
1.15856
21
0.423036
0
LINE
8
BLACK
6
CONTINUOUS
10
1.16024
20
0.539283
11
1.16024
21
0.424717
0
LINE
8
BLACK
6
CONTINUOUS
10
1.16024
20
0.424717
11
1.21576
21
0.424717
0
LINE
8
BLACK
6
CONTINUOUS
10
1.21576
20
0.424717
11
1.21576
21
0.539283
0
LINE
8
BLACK
6
CONTINUOUS
10
1.21576
20
0.539283
11
1.16024
21
0.539283
0
LINE
8
BLACK
6
CONTINUOUS
10
1.23056
20
0.423036
11
1.23028
21
0.423732
0
LINE
8
BLACK
6
CONTINUOUS
10
1.23028
20
0.423732
11
1.23028
21
0.540268
0
LINE
8
BLACK
6
CONTINUOUS
10
1.23028
20
0.540268
11
1.23056
21
0.540964
0
LINE
8
BLACK
6
CONTINUOUS
10
1.23056
20
0.540964
11
1.23126
21
0.541252
0
LINE
8
BLACK
6
CONTINUOUS
10
1.23126
20
0.541252
11
1.28874
21
0.541252
0
LINE
8
BLACK
6
CONTINUOUS
10
1.28874
20
0.541252
11
1.28944
21
0.540964
0
LINE
8
BLACK
6
CONTINUOUS
10
1.28944
20
0.540964
11
1.28972
21
0.540268
0
LINE
8
BLACK
6
CONTINUOUS
10
1.28972
20
0.540268
11
1.28972
21
0.423732
0
LINE
8
BLACK
6
CONTINUOUS
10
1.28972
20
0.423732
11
1.28944
21
0.423036
0
LINE
8
BLACK
6
CONTINUOUS
10
1.28944
20
0.423036
11
1.28874
21
0.422748
0
LINE
8
BLACK
6
CONTINUOUS
10
1.28874
20
0.422748
11
1.23126
21
0.422748
0
LINE
8
BLACK
6
CONTINUOUS
10
1.23126
20
0.422748
11
1.23056
21
0.423036
0
LINE
8
BLACK
6
CONTINUOUS
10
1.23224
20
0.539283
11
1.23224
21
0.424717
0
LINE
8
BLACK
6
CONTINUOUS
10
1.23224
20
0.424717
11
1.28776
21
0.424717
0
LINE
8
BLACK
6
CONTINUOUS
10
1.28776
20
0.424717
11
1.28776
21
0.539283
0
LINE
8
BLACK
6
CONTINUOUS
10
1.28776
20
0.539283
11
1.23224
21
0.539283
0
LINE
8
BLACK
6
CONTINUOUS
10
0.943036
20
0.464564
11
0.942748
21
0.46526
0
LINE
8
BLACK
6
CONTINUOUS
10
0.942748
20
0.46526
11
0.942748
21
0.52274
0
LINE
8
BLACK
6
CONTINUOUS
10
0.942748
20
0.52274
11
0.943036
21
0.523436
0
LINE
8
BLACK
6
CONTINUOUS
10
0.943036
20
0.523436
11
0.943732
21
0.523724
0
LINE
8
BLACK
6
CONTINUOUS
10
0.943732
20
0.523724
11
1.06027
21
0.523724
0
LINE
8
BLACK
6
CONTINUOUS
10
1.06027
20
0.523724
11
1.06096
21
0.523436
0
LINE
8
BLACK
6
CONTINUOUS
10
1.06096
20
0.523436
11
1.06125
21
0.52274
0
LINE
8
BLACK
6
CONTINUOUS
10
1.06125
20
0.52274
11
1.06125
21
0.46526
0
LINE
8
BLACK
6
CONTINUOUS
10
1.06125
20
0.46526
11
1.06096
21
0.464564
0
LINE
8
BLACK
6
CONTINUOUS
10
1.06096
20
0.464564
11
1.06027
21
0.464276
0
LINE
8
BLACK
6
CONTINUOUS
10
1.06027
20
0.464276
11
0.943732
21
0.464276
0
LINE
8
BLACK
6
CONTINUOUS
10
0.943732
20
0.464276
11
0.943036
21
0.464564
0
LINE
8
BLACK
6
CONTINUOUS
10
0.944717
20
0.521756
11
0.944717
21
0.466244
0
LINE
8
BLACK
6
CONTINUOUS
10
0.944717
20
0.466244
11
1.05928
21
0.466244
0
LINE
8
BLACK
6
CONTINUOUS
10
1.05928
20
0.466244
11
1.05928
21
0.521756
0
LINE
8
BLACK
6
CONTINUOUS
10
1.05928
20
0.521756
11
0.944717
21
0.521756
0
LINE
8
BLACK
6
CONTINUOUS
10
0.779036
20
0.526564
11
0.778748
21
0.52726
0
LINE
8
BLACK
6
CONTINUOUS
10
0.778748
20
0.52726
11
0.778748
21
0.58474
0
LINE
8
BLACK
6
CONTINUOUS
10
0.778748
20
0.58474
11
0.779036
21
0.585436
0
LINE
8
BLACK
6
CONTINUOUS
10
0.779036
20
0.585436
11
0.779732
21
0.585724
0
LINE
8
BLACK
6
CONTINUOUS
10
0.779732
20
0.585724
11
0.896268
21
0.585724
0
LINE
8
BLACK
6
CONTINUOUS
10
0.896268
20
0.585724
11
0.896964
21
0.585436
0
LINE
8
BLACK
6
CONTINUOUS
10
0.896964
20
0.585436
11
0.897252
21
0.58474
0
LINE
8
BLACK
6
CONTINUOUS
10
0.897252
20
0.58474
11
0.897252
21
0.52726
0
LINE
8
BLACK
6
CONTINUOUS
10
0.897252
20
0.52726
11
0.896964
21
0.526564
0
LINE
8
BLACK
6
CONTINUOUS
10
0.896964
20
0.526564
11
0.896268
21
0.526276
0
LINE
8
BLACK
6
CONTINUOUS
10
0.896268
20
0.526276
11
0.779732
21
0.526276
0
LINE
8
BLACK
6
CONTINUOUS
10
0.779732
20
0.526276
11
0.779036
21
0.526564
0
LINE
8
BLACK
6
CONTINUOUS
10
0.780717
20
0.583756
11
0.780717
21
0.528244
0
LINE
8
BLACK
6
CONTINUOUS
10
0.780717
20
0.528244
11
0.895283
21
0.528244
0
LINE
8
BLACK
6
CONTINUOUS
10
0.895283
20
0.528244
11
0.895283
21
0.583756
0
LINE
8
BLACK
6
CONTINUOUS
10
0.895283
20
0.583756
11
0.780717
21
0.583756
0
LINE
8
BLACK
6
CONTINUOUS
10
0.943036
20
0.536564
11
0.942748
21
0.53726
0
LINE
8
BLACK
6
CONTINUOUS
10
0.942748
20
0.53726
11
0.942748
21
0.59474
0
LINE
8
BLACK
6
CONTINUOUS
10
0.942748
20
0.59474
11
0.943036
21
0.595436
0
LINE
8
BLACK
6
CONTINUOUS
10
0.943036
20
0.595436
11
0.943732
21
0.595724
0
LINE
8
BLACK
6
CONTINUOUS
10
0.943732
20
0.595724
11
1.06027
21
0.595724
0
LINE
8
BLACK
6
CONTINUOUS
10
1.06027
20
0.595724
11
1.06096
21
0.595436
0
LINE
8
BLACK
6
CONTINUOUS
10
1.06096
20
0.595436
11
1.06125
21
0.59474
0
LINE
8
BLACK
6
CONTINUOUS
10
1.06125
20
0.59474
11
1.06125
21
0.53726
0
LINE
8
BLACK
6
CONTINUOUS
10
1.06125
20
0.53726
11
1.06096
21
0.536564
0
LINE
8
BLACK
6
CONTINUOUS
10
1.06096
20
0.536564
11
1.06027
21
0.536276
0
LINE
8
BLACK
6
CONTINUOUS
10
1.06027
20
0.536276
11
0.943732
21
0.536276
0
LINE
8
BLACK
6
CONTINUOUS
10
0.943732
20
0.536276
11
0.943036
21
0.536564
0
LINE
8
BLACK
6
CONTINUOUS
10
0.944717
20
0.593756
11
0.944717
21
0.538244
0
LINE
8
BLACK
6
CONTINUOUS
10
0.944717
20
0.538244
11
1.05928
21
0.538244
0
LINE
8
BLACK
6
CONTINUOUS
10
1.05928
20
0.538244
11
1.05928
21
0.593756
0
LINE
8
BLACK
6
CONTINUOUS
10
1.05928
20
0.593756
11
0.944717
21
0.593756
0
LINE
8
BLACK
6
CONTINUOUS
10
0.627036
20
0.544564
11
0.626748
21
0.54526
0
LINE
8
BLACK
6
CONTINUOUS
10
0.626748
20
0.54526
11
0.626748
21
0.60274
0
LINE
8
BLACK
6
CONTINUOUS
10
0.626748
20
0.60274
11
0.627036
21
0.603436
0
LINE
8
BLACK
6
CONTINUOUS
10
0.627036
20
0.603436
11
0.627732
21
0.603724
0
LINE
8
BLACK
6
CONTINUOUS
10
0.627732
20
0.603724
11
0.744268
21
0.603724
0
LINE
8
BLACK
6
CONTINUOUS
10
0.744268
20
0.603724
11
0.744964
21
0.603436
0
LINE
8
BLACK
6
CONTINUOUS
10
0.744964
20
0.603436
11
0.745252
21
0.60274
0
LINE
8
BLACK
6
CONTINUOUS
10
0.745252
20
0.60274
11
0.745252
21
0.54526
0
LINE
8
BLACK
6
CONTINUOUS
10
0.745252
20
0.54526
11
0.744964
21
0.544564
0
LINE
8
BLACK
6
CONTINUOUS
10
0.744964
20
0.544564
11
0.744268
21
0.544276
0
LINE
8
BLACK
6
CONTINUOUS
10
0.744268
20
0.544276
11
0.627732
21
0.544276
0
LINE
8
BLACK
6
CONTINUOUS
10
0.627732
20
0.544276
11
0.627036
21
0.544564
0
LINE
8
BLACK
6
CONTINUOUS
10
0.628717
20
0.601756
11
0.628717
21
0.546244
0
LINE
8
BLACK
6
CONTINUOUS
10
0.628717
20
0.546244
11
0.743283
21
0.546244
0
LINE
8
BLACK
6
CONTINUOUS
10
0.743283
20
0.546244
11
0.743283
21
0.601756
0
LINE
8
BLACK
6
CONTINUOUS
10
0.743283
20
0.601756
11
0.628717
21
0.601756
0
LINE
8
BLACK
6
CONTINUOUS
10
0.497036
20
0.544564
11
0.496748
21
0.54526
0
LINE
8
BLACK
6
CONTINUOUS
10
0.496748
20
0.54526
11
0.496748
21
0.60274
0
LINE
8
BLACK
6
CONTINUOUS
10
0.496748
20
0.60274
11
0.497036
21
0.603436
0
LINE
8
BLACK
6
CONTINUOUS
10
0.497036
20
0.603436
11
0.497732
21
0.603724
0
LINE
8
BLACK
6
CONTINUOUS
10
0.497732
20
0.603724
11
0.614268
21
0.603724
0
LINE
8
BLACK
6
CONTINUOUS
10
0.614268
20
0.603724
11
0.614964
21
0.603436
0
LINE
8
BLACK
6
CONTINUOUS
10
0.614964
20
0.603436
11
0.615252
21
0.60274
0
LINE
8
BLACK
6
CONTINUOUS
10
0.615252
20
0.60274
11
0.615252
21
0.54526
0
LINE
8
BLACK
6
CONTINUOUS
10
0.615252
20
0.54526
11
0.614964
21
0.544564
0
LINE
8
BLACK
6
CONTINUOUS
10
0.614964
20
0.544564
11
0.614268
21
0.544276
0
LINE
8
BLACK
6
CONTINUOUS
10
0.614268
20
0.544276
11
0.497732
21
0.544276
0
LINE
8
BLACK
6
CONTINUOUS
10
0.497732
20
0.544276
11
0.497036
21
0.544564
0
LINE
8
BLACK
6
CONTINUOUS
10
0.498717
20
0.601756
11
0.498717
21
0.546244
0
LINE
8
BLACK
6
CONTINUOUS
10
0.498717
20
0.546244
11
0.613283
21
0.546244
0
LINE
8
BLACK
6
CONTINUOUS
10
0.613283
20
0.546244
11
0.613283
21
0.601756
0
LINE
8
BLACK
6
CONTINUOUS
10
0.613283
20
0.601756
11
0.498717
21
0.601756
0
LINE
8
BLACK
6
CONTINUOUS
10
1.11456
20
0.561036
11
1.11428
21
0.561732
0
LINE
8
BLACK
6
CONTINUOUS
10
1.11428
20
0.561732
11
1.11428
21
0.678268
0
LINE
8
BLACK
6
CONTINUOUS
10
1.11428
20
0.678268
11
1.11456
21
0.678964
0
LINE
8
BLACK
6
CONTINUOUS
10
1.11456
20
0.678964
11
1.11526
21
0.679252
0
LINE
8
BLACK
6
CONTINUOUS
10
1.11526
20
0.679252
11
1.17274
21
0.679252
0
LINE
8
BLACK
6
CONTINUOUS
10
1.17274
20
0.679252
11
1.17344
21
0.678964
0
LINE
8
BLACK
6
CONTINUOUS
10
1.17344
20
0.678964
11
1.17372
21
0.678268
0
LINE
8
BLACK
6
CONTINUOUS
10
1.17372
20
0.678268
11
1.17372
21
0.561732
0
LINE
8
BLACK
6
CONTINUOUS
10
1.17372
20
0.561732
11
1.17344
21
0.561036
0
LINE
8
BLACK
6
CONTINUOUS
10
1.17344
20
0.561036
11
1.17274
21
0.560748
0
LINE
8
BLACK
6
CONTINUOUS
10
1.17274
20
0.560748
11
1.11526
21
0.560748
0
LINE
8
BLACK
6
CONTINUOUS
10
1.11526
20
0.560748
11
1.11456
21
0.561036
0
LINE
8
BLACK
6
CONTINUOUS
10
1.11624
20
0.677283
11
1.11624
21
0.562717
0
LINE
8
BLACK
6
CONTINUOUS
10
1.11624
20
0.562717
11
1.17176
21
0.562717
0
LINE
8
BLACK
6
CONTINUOUS
10
1.17176
20
0.562717
11
1.17176
21
0.677283
0
LINE
8
BLACK
6
CONTINUOUS
10
1.17176
20
0.677283
11
1.11624
21
0.677283
0
LINE
8
BLACK
6
CONTINUOUS
10
0.779036
20
0.596564
11
0.778748
21
0.59726
0
LINE
8
BLACK
6
CONTINUOUS
10
0.778748
20
0.59726
11
0.778748
21
0.65474
0
LINE
8
BLACK
6
CONTINUOUS
10
0.778748
20
0.65474
11
0.779036
21
0.655436
0
LINE
8
BLACK
6
CONTINUOUS
10
0.779036
20
0.655436
11
0.779732
21
0.655724
0
LINE
8
BLACK
6
CONTINUOUS
10
0.779732
20
0.655724
11
0.896268
21
0.655724
0
LINE
8
BLACK
6
CONTINUOUS
10
0.896268
20
0.655724
11
0.896964
21
0.655436
0
LINE
8
BLACK
6
CONTINUOUS
10
0.896964
20
0.655436
11
0.897252
21
0.65474
0
LINE
8
BLACK
6
CONTINUOUS
10
0.897252
20
0.65474
11
0.897252
21
0.59726
0
LINE
8
BLACK
6
CONTINUOUS
10
0.897252
20
0.59726
11
0.896964
21
0.596564
0
LINE
8
BLACK
6
CONTINUOUS
10
0.896964
20
0.596564
11
0.896268
21
0.596276
0
LINE
8
BLACK
6
CONTINUOUS
10
0.896268
20
0.596276
11
0.779732
21
0.596276
0
LINE
8
BLACK
6
CONTINUOUS
10
0.779732
20
0.596276
11
0.779036
21
0.596564
0
LINE
8
BLACK
6
CONTINUOUS
10
0.780717
20
0.653756
11
0.780717
21
0.598244
0
LINE
8
BLACK
6
CONTINUOUS
10
0.780717
20
0.598244
11
0.895283
21
0.598244
0
LINE
8
BLACK
6
CONTINUOUS
10
0.895283
20
0.598244
11
0.895283
21
0.653756
0
LINE
8
BLACK
6
CONTINUOUS
10
0.895283
20
0.653756
11
0.780717
21
0.653756
0
LINE
8
BLACK
6
CONTINUOUS
10
0.943036
20
0.606564
11
0.942748
21
0.60726
0
LINE
8
BLACK
6
CONTINUOUS
10
0.942748
20
0.60726
11
0.942748
21
0.66474
0
LINE
8
BLACK
6
CONTINUOUS
10
0.942748
20
0.66474
11
0.943036
21
0.665436
0
LINE
8
BLACK
6
CONTINUOUS
10
0.943036
20
0.665436
11
0.943732
21
0.665724
0
LINE
8
BLACK
6
CONTINUOUS
10
0.943732
20
0.665724
11
1.06027
21
0.665724
0
LINE
8
BLACK
6
CONTINUOUS
10
1.06027
20
0.665724
11
1.06096
21
0.665436
0
LINE
8
BLACK
6
CONTINUOUS
10
1.06096
20
0.665436
11
1.06125
21
0.66474
0
LINE
8
BLACK
6
CONTINUOUS
10
1.06125
20
0.66474
11
1.06125
21
0.60726
0
LINE
8
BLACK
6
CONTINUOUS
10
1.06125
20
0.60726
11
1.06096
21
0.606564
0
LINE
8
BLACK
6
CONTINUOUS
10
1.06096
20
0.606564
11
1.06027
21
0.606276
0
LINE
8
BLACK
6
CONTINUOUS
10
1.06027
20
0.606276
11
0.943732
21
0.606276
0
LINE
8
BLACK
6
CONTINUOUS
10
0.943732
20
0.606276
11
0.943036
21
0.606564
0
LINE
8
BLACK
6
CONTINUOUS
10
0.944717
20
0.663756
11
0.944717
21
0.608244
0
LINE
8
BLACK
6
CONTINUOUS
10
0.944717
20
0.608244
11
1.05928
21
0.608244
0
LINE
8
BLACK
6
CONTINUOUS
10
1.05928
20
0.608244
11
1.05928
21
0.663756
0
LINE
8
BLACK
6
CONTINUOUS
10
1.05928
20
0.663756
11
0.944717
21
0.663756
0
LINE
8
BLACK
6
CONTINUOUS
10
0.330564
20
0.609036
11
0.330276
21
0.609732
0
LINE
8
BLACK
6
CONTINUOUS
10
0.330276
20
0.609732
11
0.330276
21
0.726268
0
LINE
8
BLACK
6
CONTINUOUS
10
0.330276
20
0.726268
11
0.330564
21
0.726964
0
LINE
8
BLACK
6
CONTINUOUS
10
0.330564
20
0.726964
11
0.33126
21
0.727252
0
LINE
8
BLACK
6
CONTINUOUS
10
0.33126
20
0.727252
11
0.38874
21
0.727252
0
LINE
8
BLACK
6
CONTINUOUS
10
0.38874
20
0.727252
11
0.389436
21
0.726964
0
LINE
8
BLACK
6
CONTINUOUS
10
0.389436
20
0.726964
11
0.389724
21
0.726268
0
LINE
8
BLACK
6
CONTINUOUS
10
0.389724
20
0.726268
11
0.389724
21
0.609732
0
LINE
8
BLACK
6
CONTINUOUS
10
0.389724
20
0.609732
11
0.389436
21
0.609036
0
LINE
8
BLACK
6
CONTINUOUS
10
0.389436
20
0.609036
11
0.38874
21
0.608748
0
LINE
8
BLACK
6
CONTINUOUS
10
0.38874
20
0.608748
11
0.33126
21
0.608748
0
LINE
8
BLACK
6
CONTINUOUS
10
0.33126
20
0.608748
11
0.330564
21
0.609036
0
LINE
8
BLACK
6
CONTINUOUS
10
0.332244
20
0.725283
11
0.332244
21
0.610717
0
LINE
8
BLACK
6
CONTINUOUS
10
0.332244
20
0.610717
11
0.387756
21
0.610717
0
LINE
8
BLACK
6
CONTINUOUS
10
0.387756
20
0.610717
11
0.387756
21
0.725283
0
LINE
8
BLACK
6
CONTINUOUS
10
0.387756
20
0.725283
11
0.332244
21
0.725283
0
LINE
8
BLACK
6
CONTINUOUS
10
1.21456
20
0.613036
11
1.21428
21
0.613732
0
LINE
8
BLACK
6
CONTINUOUS
10
1.21428
20
0.613732
11
1.21428
21
0.730268
0
LINE
8
BLACK
6
CONTINUOUS
10
1.21428
20
0.730268
11
1.21456
21
0.730964
0
LINE
8
BLACK
6
CONTINUOUS
10
1.21456
20
0.730964
11
1.21526
21
0.731252
0
LINE
8
BLACK
6
CONTINUOUS
10
1.21526
20
0.731252
11
1.27274
21
0.731252
0
LINE
8
BLACK
6
CONTINUOUS
10
1.27274
20
0.731252
11
1.27344
21
0.730964
0
LINE
8
BLACK
6
CONTINUOUS
10
1.27344
20
0.730964
11
1.27372
21
0.730268
0
LINE
8
BLACK
6
CONTINUOUS
10
1.27372
20
0.730268
11
1.27372
21
0.613732
0
LINE
8
BLACK
6
CONTINUOUS
10
1.27372
20
0.613732
11
1.27344
21
0.613036
0
LINE
8
BLACK
6
CONTINUOUS
10
1.27344
20
0.613036
11
1.27274
21
0.612748
0
LINE
8
BLACK
6
CONTINUOUS
10
1.27274
20
0.612748
11
1.21526
21
0.612748
0
LINE
8
BLACK
6
CONTINUOUS
10
1.21526
20
0.612748
11
1.21456
21
0.613036
0
LINE
8
BLACK
6
CONTINUOUS
10
1.21624
20
0.729283
11
1.21624
21
0.614717
0
LINE
8
BLACK
6
CONTINUOUS
10
1.21624
20
0.614717
11
1.27176
21
0.614717
0
LINE
8
BLACK
6
CONTINUOUS
10
1.27176
20
0.614717
11
1.27176
21
0.729283
0
LINE
8
BLACK
6
CONTINUOUS
10
1.27176
20
0.729283
11
1.21624
21
0.729283
0
LINE
8
BLACK
6
CONTINUOUS
10
0.627036
20
0.618564
11
0.626748
21
0.61926
0
LINE
8
BLACK
6
CONTINUOUS
10
0.626748
20
0.61926
11
0.626748
21
0.67674
0
LINE
8
BLACK
6
CONTINUOUS
10
0.626748
20
0.67674
11
0.627036
21
0.677436
0
LINE
8
BLACK
6
CONTINUOUS
10
0.627036
20
0.677436
11
0.627732
21
0.677724
0
LINE
8
BLACK
6
CONTINUOUS
10
0.627732
20
0.677724
11
0.744268
21
0.677724
0
LINE
8
BLACK
6
CONTINUOUS
10
0.744268
20
0.677724
11
0.744964
21
0.677436
0
LINE
8
BLACK
6
CONTINUOUS
10
0.744964
20
0.677436
11
0.745252
21
0.67674
0
LINE
8
BLACK
6
CONTINUOUS
10
0.745252
20
0.67674
11
0.745252
21
0.61926
0
LINE
8
BLACK
6
CONTINUOUS
10
0.745252
20
0.61926
11
0.744964
21
0.618564
0
LINE
8
BLACK
6
CONTINUOUS
10
0.744964
20
0.618564
11
0.744268
21
0.618276
0
LINE
8
BLACK
6
CONTINUOUS
10
0.744268
20
0.618276
11
0.627732
21
0.618276
0
LINE
8
BLACK
6
CONTINUOUS
10
0.627732
20
0.618276
11
0.627036
21
0.618564
0
LINE
8
BLACK
6
CONTINUOUS
10
0.628717
20
0.675756
11
0.628717
21
0.620244
0
LINE
8
BLACK
6
CONTINUOUS
10
0.628717
20
0.620244
11
0.743283
21
0.620244
0
LINE
8
BLACK
6
CONTINUOUS
10
0.743283
20
0.620244
11
0.743283
21
0.675756
0
LINE
8
BLACK
6
CONTINUOUS
10
0.743283
20
0.675756
11
0.628717
21
0.675756
0
LINE
8
BLACK
6
CONTINUOUS
10
0.412375
20
0.663713
11
0.412087
21
0.664409
0
LINE
8
BLACK
6
CONTINUOUS
10
0.412087
20
0.664409
11
0.412087
21
0.815591
0
LINE
8
BLACK
6
CONTINUOUS
10
0.412087
20
0.815591
11
0.412375
21
0.816287
0
LINE
8
BLACK
6
CONTINUOUS
10
0.412375
20
0.816287
11
0.413071
21
0.816575
0
LINE
8
BLACK
6
CONTINUOUS
10
0.413071
20
0.816575
11
0.546929
21
0.816575
0
LINE
8
BLACK
6
CONTINUOUS
10
0.546929
20
0.816575
11
0.547625
21
0.816287
0
LINE
8
BLACK
6
CONTINUOUS
10
0.547625
20
0.816287
11
0.547913
21
0.815591
0
LINE
8
BLACK
6
CONTINUOUS
10
0.547913
20
0.815591
11
0.547913
21
0.664409
0
LINE
8
BLACK
6
CONTINUOUS
10
0.547913
20
0.664409
11
0.547625
21
0.663713
0
LINE
8
BLACK
6
CONTINUOUS
10
0.547625
20
0.663713
11
0.546929
21
0.663425
0
LINE
8
BLACK
6
CONTINUOUS
10
0.546929
20
0.663425
11
0.413071
21
0.663425
0
LINE
8
BLACK
6
CONTINUOUS
10
0.413071
20
0.663425
11
0.412375
21
0.663713
0
LINE
8
BLACK
6
CONTINUOUS
10
0.414055
20
0.814606
11
0.414055
21
0.665394
0
LINE
8
BLACK
6
CONTINUOUS
10
0.414055
20
0.665394
11
0.545945
21
0.665394
0
LINE
8
BLACK
6
CONTINUOUS
10
0.545945
20
0.665394
11
0.545945
21
0.814606
0
LINE
8
BLACK
6
CONTINUOUS
10
0.545945
20
0.814606
11
0.414055
21
0.814606
0
LINE
8
BLACK
6
CONTINUOUS
10
0.195036
20
0.668564
11
0.194748
21
0.66926
0
LINE
8
BLACK
6
CONTINUOUS
10
0.194748
20
0.66926
11
0.194748
21
0.72674
0
LINE
8
BLACK
6
CONTINUOUS
10
0.194748
20
0.72674
11
0.195036
21
0.727436
0
LINE
8
BLACK
6
CONTINUOUS
10
0.195036
20
0.727436
11
0.195732
21
0.727724
0
LINE
8
BLACK
6
CONTINUOUS
10
0.195732
20
0.727724
11
0.312268
21
0.727724
0
LINE
8
BLACK
6
CONTINUOUS
10
0.312268
20
0.727724
11
0.312964
21
0.727436
0
LINE
8
BLACK
6
CONTINUOUS
10
0.312964
20
0.727436
11
0.313252
21
0.72674
0
LINE
8
BLACK
6
CONTINUOUS
10
0.313252
20
0.72674
11
0.313252
21
0.66926
0
LINE
8
BLACK
6
CONTINUOUS
10
0.313252
20
0.66926
11
0.312964
21
0.668564
0
LINE
8
BLACK
6
CONTINUOUS
10
0.312964
20
0.668564
11
0.312268
21
0.668276
0
LINE
8
BLACK
6
CONTINUOUS
10
0.312268
20
0.668276
11
0.195732
21
0.668276
0
LINE
8
BLACK
6
CONTINUOUS
10
0.195732
20
0.668276
11
0.195036
21
0.668564
0
LINE
8
BLACK
6
CONTINUOUS
10
0.196717
20
0.725756
11
0.196717
21
0.670244
0
LINE
8
BLACK
6
CONTINUOUS
10
0.196717
20
0.670244
11
0.311283
21
0.670244
0
LINE
8
BLACK
6
CONTINUOUS
10
0.311283
20
0.670244
11
0.311283
21
0.725756
0
LINE
8
BLACK
6
CONTINUOUS
10
0.311283
20
0.725756
11
0.196717
21
0.725756
0
LINE
8
BLACK
6
CONTINUOUS
10
0.627036
20
0.692564
11
0.626748
21
0.69326
0
LINE
8
BLACK
6
CONTINUOUS
10
0.626748
20
0.69326
11
0.626748
21
0.75074
0
LINE
8
BLACK
6
CONTINUOUS
10
0.626748
20
0.75074
11
0.627036
21
0.751436
0
LINE
8
BLACK
6
CONTINUOUS
10
0.627036
20
0.751436
11
0.627732
21
0.751724
0
LINE
8
BLACK
6
CONTINUOUS
10
0.627732
20
0.751724
11
0.744268
21
0.751724
0
LINE
8
BLACK
6
CONTINUOUS
10
0.744268
20
0.751724
11
0.744964
21
0.751436
0
LINE
8
BLACK
6
CONTINUOUS
10
0.744964
20
0.751436
11
0.745252
21
0.75074
0
LINE
8
BLACK
6
CONTINUOUS
10
0.745252
20
0.75074
11
0.745252
21
0.69326
0
LINE
8
BLACK
6
CONTINUOUS
10
0.745252
20
0.69326
11
0.744964
21
0.692564
0
LINE
8
BLACK
6
CONTINUOUS
10
0.744964
20
0.692564
11
0.744268
21
0.692276
0
LINE
8
BLACK
6
CONTINUOUS
10
0.744268
20
0.692276
11
0.627732
21
0.692276
0
LINE
8
BLACK
6
CONTINUOUS
10
0.627732
20
0.692276
11
0.627036
21
0.692564
0
LINE
8
BLACK
6
CONTINUOUS
10
0.628717
20
0.749756
11
0.628717
21
0.694244
0
LINE
8
BLACK
6
CONTINUOUS
10
0.628717
20
0.694244
11
0.743283
21
0.694244
0
LINE
8
BLACK
6
CONTINUOUS
10
0.743283
20
0.694244
11
0.743283
21
0.749756
0
LINE
8
BLACK
6
CONTINUOUS
10
0.743283
20
0.749756
11
0.628717
21
0.749756
0
LINE
8
BLACK
6
CONTINUOUS
10
0.766438
20
0.695603
11
0.76615
21
0.696299
0
LINE
8
BLACK
6
CONTINUOUS
10
0.76615
20
0.696299
11
0.76615
21
0.883701
0
LINE
8
BLACK
6
CONTINUOUS
10
0.76615
20
0.883701
11
0.766438
21
0.884397
0
LINE
8
BLACK
6
CONTINUOUS
10
0.766438
20
0.884397
11
0.767134
21
0.884685
0
LINE
8
BLACK
6
CONTINUOUS
10
0.767134
20
0.884685
11
0.908866
21
0.884685
0
LINE
8
BLACK
6
CONTINUOUS
10
0.908866
20
0.884685
11
0.909562
21
0.884397
0
LINE
8
BLACK
6
CONTINUOUS
10
0.909562
20
0.884397
11
0.90985
21
0.883701
0
LINE
8
BLACK
6
CONTINUOUS
10
0.90985
20
0.883701
11
0.90985
21
0.696299
0
LINE
8
BLACK
6
CONTINUOUS
10
0.90985
20
0.696299
11
0.909562
21
0.695603
0
LINE
8
BLACK
6
CONTINUOUS
10
0.909562
20
0.695603
11
0.908866
21
0.695315
0
LINE
8
BLACK
6
CONTINUOUS
10
0.908866
20
0.695315
11
0.767134
21
0.695315
0
LINE
8
BLACK
6
CONTINUOUS
10
0.767134
20
0.695315
11
0.766438
21
0.695603
0
LINE
8
BLACK
6
CONTINUOUS
10
0.768118
20
0.882717
11
0.768118
21
0.697283
0
LINE
8
BLACK
6
CONTINUOUS
10
0.768118
20
0.697283
11
0.907882
21
0.697283
0
LINE
8
BLACK
6
CONTINUOUS
10
0.907882
20
0.697283
11
0.907882
21
0.882717
0
LINE
8
BLACK
6
CONTINUOUS
10
0.907882
20
0.882717
11
0.768118
21
0.882717
0
LINE
8
BLACK
6
CONTINUOUS
10
1.00044
20
0.697603
11
1.00015
21
0.698299
0
LINE
8
BLACK
6
CONTINUOUS
10
1.00015
20
0.698299
11
1.00015
21
0.885701
0
LINE
8
BLACK
6
CONTINUOUS
10
1.00015
20
0.885701
11
1.00044
21
0.886397
0
LINE
8
BLACK
6
CONTINUOUS
10
1.00044
20
0.886397
11
1.00113
21
0.886685
0
LINE
8
BLACK
6
CONTINUOUS
10
1.00113
20
0.886685
11
1.14287
21
0.886685
0
LINE
8
BLACK
6
CONTINUOUS
10
1.14287
20
0.886685
11
1.14356
21
0.886397
0
LINE
8
BLACK
6
CONTINUOUS
10
1.14356
20
0.886397
11
1.14385
21
0.885701
0
LINE
8
BLACK
6
CONTINUOUS
10
1.14385
20
0.885701
11
1.14385
21
0.698299
0
LINE
8
BLACK
6
CONTINUOUS
10
1.14385
20
0.698299
11
1.14356
21
0.697603
0
LINE
8
BLACK
6
CONTINUOUS
10
1.14356
20
0.697603
11
1.14287
21
0.697315
0
LINE
8
BLACK
6
CONTINUOUS
10
1.14287
20
0.697315
11
1.00113
21
0.697315
0
LINE
8
BLACK
6
CONTINUOUS
10
1.00113
20
0.697315
11
1.00044
21
0.697603
0
LINE
8
BLACK
6
CONTINUOUS
10
1.00212
20
0.884717
11
1.00212
21
0.699283
0
LINE
8
BLACK
6
CONTINUOUS
10
1.00212
20
0.699283
11
1.14188
21
0.699283
0
LINE
8
BLACK
6
CONTINUOUS
10
1.14188
20
0.699283
11
1.14188
21
0.884717
0
LINE
8
BLACK
6
CONTINUOUS
10
1.14188
20
0.884717
11
1.00212
21
0.884717
0
LINE
8
BLACK
6
CONTINUOUS
10
0.928564
20
0.723036
11
0.928276
21
0.723732
0
LINE
8
BLACK
6
CONTINUOUS
10
0.928276
20
0.723732
11
0.928276
21
0.840268
0
LINE
8
BLACK
6
CONTINUOUS
10
0.928276
20
0.840268
11
0.928564
21
0.840964
0
LINE
8
BLACK
6
CONTINUOUS
10
0.928564
20
0.840964
11
0.92926
21
0.841252
0
LINE
8
BLACK
6
CONTINUOUS
10
0.92926
20
0.841252
11
0.98674
21
0.841252
0
LINE
8
BLACK
6
CONTINUOUS
10
0.98674
20
0.841252
11
0.987436
21
0.840964
0
LINE
8
BLACK
6
CONTINUOUS
10
0.987436
20
0.840964
11
0.987724
21
0.840268
0
LINE
8
BLACK
6
CONTINUOUS
10
0.987724
20
0.840268
11
0.987724
21
0.723732
0
LINE
8
BLACK
6
CONTINUOUS
10
0.987724
20
0.723732
11
0.987436
21
0.723036
0
LINE
8
BLACK
6
CONTINUOUS
10
0.987436
20
0.723036
11
0.98674
21
0.722748
0
LINE
8
BLACK
6
CONTINUOUS
10
0.98674
20
0.722748
11
0.92926
21
0.722748
0
LINE
8
BLACK
6
CONTINUOUS
10
0.92926
20
0.722748
11
0.928564
21
0.723036
0
LINE
8
BLACK
6
CONTINUOUS
10
0.930244
20
0.839283
11
0.930244
21
0.724717
0
LINE
8
BLACK
6
CONTINUOUS
10
0.930244
20
0.724717
11
0.985756
21
0.724717
0
LINE
8
BLACK
6
CONTINUOUS
10
0.985756
20
0.724717
11
0.985756
21
0.839283
0
LINE
8
BLACK
6
CONTINUOUS
10
0.985756
20
0.839283
11
0.930244
21
0.839283
0
LINE
8
BLACK
6
CONTINUOUS
10
1.15904
20
0.750564
11
1.15875
21
0.75126
0
LINE
8
BLACK
6
CONTINUOUS
10
1.15875
20
0.75126
11
1.15875
21
0.80874
0
LINE
8
BLACK
6
CONTINUOUS
10
1.15875
20
0.80874
11
1.15904
21
0.809436
0
LINE
8
BLACK
6
CONTINUOUS
10
1.15904
20
0.809436
11
1.15973
21
0.809724
0
LINE
8
BLACK
6
CONTINUOUS
10
1.15973
20
0.809724
11
1.27627
21
0.809724
0
LINE
8
BLACK
6
CONTINUOUS
10
1.27627
20
0.809724
11
1.27696
21
0.809436
0
LINE
8
BLACK
6
CONTINUOUS
10
1.27696
20
0.809436
11
1.27725
21
0.80874
0
LINE
8
BLACK
6
CONTINUOUS
10
1.27725
20
0.80874
11
1.27725
21
0.75126
0
LINE
8
BLACK
6
CONTINUOUS
10
1.27725
20
0.75126
11
1.27696
21
0.750564
0
LINE
8
BLACK
6
CONTINUOUS
10
1.27696
20
0.750564
11
1.27627
21
0.750276
0
LINE
8
BLACK
6
CONTINUOUS
10
1.27627
20
0.750276
11
1.15973
21
0.750276
0
LINE
8
BLACK
6
CONTINUOUS
10
1.15973
20
0.750276
11
1.15904
21
0.750564
0
LINE
8
BLACK
6
CONTINUOUS
10
1.16072
20
0.807756
11
1.16072
21
0.752244
0
LINE
8
BLACK
6
CONTINUOUS
10
1.16072
20
0.752244
11
1.27528
21
0.752244
0
LINE
8
BLACK
6
CONTINUOUS
10
1.27528
20
0.752244
11
1.27528
21
0.807756
0
LINE
8
BLACK
6
CONTINUOUS
10
1.27528
20
0.807756
11
1.16072
21
0.807756
0
LINE
8
BLACK
6
CONTINUOUS
10
0.627036
20
0.766564
11
0.626748
21
0.76726
0
LINE
8
BLACK
6
CONTINUOUS
10
0.626748
20
0.76726
11
0.626748
21
0.82474
0
LINE
8
BLACK
6
CONTINUOUS
10
0.626748
20
0.82474
11
0.627036
21
0.825436
0
LINE
8
BLACK
6
CONTINUOUS
10
0.627036
20
0.825436
11
0.627732
21
0.825724
0
LINE
8
BLACK
6
CONTINUOUS
10
0.627732
20
0.825724
11
0.744268
21
0.825724
0
LINE
8
BLACK
6
CONTINUOUS
10
0.744268
20
0.825724
11
0.744964
21
0.825436
0
LINE
8
BLACK
6
CONTINUOUS
10
0.744964
20
0.825436
11
0.745252
21
0.82474
0
LINE
8
BLACK
6
CONTINUOUS
10
0.745252
20
0.82474
11
0.745252
21
0.76726
0
LINE
8
BLACK
6
CONTINUOUS
10
0.745252
20
0.76726
11
0.744964
21
0.766564
0
LINE
8
BLACK
6
CONTINUOUS
10
0.744964
20
0.766564
11
0.744268
21
0.766276
0
LINE
8
BLACK
6
CONTINUOUS
10
0.744268
20
0.766276
11
0.627732
21
0.766276
0
LINE
8
BLACK
6
CONTINUOUS
10
0.627732
20
0.766276
11
0.627036
21
0.766564
0
LINE
8
BLACK
6
CONTINUOUS
10
0.628717
20
0.823756
11
0.628717
21
0.768244
0
LINE
8
BLACK
6
CONTINUOUS
10
0.628717
20
0.768244
11
0.743283
21
0.768244
0
LINE
8
BLACK
6
CONTINUOUS
10
0.743283
20
0.768244
11
0.743283
21
0.823756
0
LINE
8
BLACK
6
CONTINUOUS
10
0.743283
20
0.823756
11
0.628717
21
0.823756
0
LINE
8
BLACK
6
CONTINUOUS
10
0.209836
20
0.810328
11
0.209547
21
0.811024
0
LINE
8
BLACK
6
CONTINUOUS
10
0.209547
20
0.811024
11
0.209547
21
0.868504
0
LINE
8
BLACK
6
CONTINUOUS
10
0.209547
20
0.868504
11
0.209836
21
0.8692
0
LINE
8
BLACK
6
CONTINUOUS
10
0.209836
20
0.8692
11
0.210531
21
0.869488
0
LINE
8
BLACK
6
CONTINUOUS
10
0.210531
20
0.869488
11
0.327067
21
0.869488
0
LINE
8
BLACK
6
CONTINUOUS
10
0.327067
20
0.869488
11
0.327763
21
0.8692
0
LINE
8
BLACK
6
CONTINUOUS
10
0.327763
20
0.8692
11
0.328051
21
0.868504
0
LINE
8
BLACK
6
CONTINUOUS
10
0.328051
20
0.868504
11
0.328051
21
0.811024
0
LINE
8
BLACK
6
CONTINUOUS
10
0.328051
20
0.811024
11
0.327763
21
0.810328
0
LINE
8
BLACK
6
CONTINUOUS
10
0.327763
20
0.810328
11
0.327067
21
0.810039
0
LINE
8
BLACK
6
CONTINUOUS
10
0.327067
20
0.810039
11
0.210531
21
0.810039
0
LINE
8
BLACK
6
CONTINUOUS
10
0.210531
20
0.810039
11
0.209836
21
0.810328
0
LINE
8
BLACK
6
CONTINUOUS
10
0.211516
20
0.86752
11
0.211516
21
0.812008
0
LINE
8
BLACK
6
CONTINUOUS
10
0.211516
20
0.812008
11
0.326083
21
0.812008
0
LINE
8
BLACK
6
CONTINUOUS
10
0.326083
20
0.812008
11
0.326083
21
0.86752
0
LINE
8
BLACK
6
CONTINUOUS
10
0.326083
20
0.86752
11
0.211516
21
0.86752
0
LINE
8
BLACK
6
CONTINUOUS
10
1.15904
20
0.828564
11
1.15875
21
0.82926
0
LINE
8
BLACK
6
CONTINUOUS
10
1.15875
20
0.82926
11
1.15875
21
0.88674
0
LINE
8
BLACK
6
CONTINUOUS
10
1.15875
20
0.88674
11
1.15904
21
0.887436
0
LINE
8
BLACK
6
CONTINUOUS
10
1.15904
20
0.887436
11
1.15973
21
0.887724
0
LINE
8
BLACK
6
CONTINUOUS
10
1.15973
20
0.887724
11
1.27627
21
0.887724
0
LINE
8
BLACK
6
CONTINUOUS
10
1.27627
20
0.887724
11
1.27696
21
0.887436
0
LINE
8
BLACK
6
CONTINUOUS
10
1.27696
20
0.887436
11
1.27725
21
0.88674
0
LINE
8
BLACK
6
CONTINUOUS
10
1.27725
20
0.88674
11
1.27725
21
0.82926
0
LINE
8
BLACK
6
CONTINUOUS
10
1.27725
20
0.82926
11
1.27696
21
0.828564
0
LINE
8
BLACK
6
CONTINUOUS
10
1.27696
20
0.828564
11
1.27627
21
0.828276
0
LINE
8
BLACK
6
CONTINUOUS
10
1.27627
20
0.828276
11
1.15973
21
0.828276
0
LINE
8
BLACK
6
CONTINUOUS
10
1.15973
20
0.828276
11
1.15904
21
0.828564
0
LINE
8
BLACK
6
CONTINUOUS
10
1.16072
20
0.885756
11
1.16072
21
0.830244
0
LINE
8
BLACK
6
CONTINUOUS
10
1.16072
20
0.830244
11
1.27528
21
0.830244
0
LINE
8
BLACK
6
CONTINUOUS
10
1.27528
20
0.830244
11
1.27528
21
0.885756
0
LINE
8
BLACK
6
CONTINUOUS
10
1.27528
20
0.885756
11
1.16072
21
0.885756
0
LINE
8
BLACK
6
CONTINUOUS
10
0.690564
20
0.855036
11
0.690276
21
0.855732
0
LINE
8
BLACK
6
CONTINUOUS
10
0.690276
20
0.855732
11
0.690276
21
0.972268
0
LINE
8
BLACK
6
CONTINUOUS
10
0.690276
20
0.972268
11
0.690564
21
0.972964
0
LINE
8
BLACK
6
CONTINUOUS
10
0.690564
20
0.972964
11
0.69126
21
0.973252
0
LINE
8
BLACK
6
CONTINUOUS
10
0.69126
20
0.973252
11
0.74874
21
0.973252
0
LINE
8
BLACK
6
CONTINUOUS
10
0.74874
20
0.973252
11
0.749436
21
0.972964
0
LINE
8
BLACK
6
CONTINUOUS
10
0.749436
20
0.972964
11
0.749724
21
0.972268
0
LINE
8
BLACK
6
CONTINUOUS
10
0.749724
20
0.972268
11
0.749724
21
0.855732
0
LINE
8
BLACK
6
CONTINUOUS
10
0.749724
20
0.855732
11
0.749436
21
0.855036
0
LINE
8
BLACK
6
CONTINUOUS
10
0.749436
20
0.855036
11
0.74874
21
0.854748
0
LINE
8
BLACK
6
CONTINUOUS
10
0.74874
20
0.854748
11
0.69126
21
0.854748
0
LINE
8
BLACK
6
CONTINUOUS
10
0.69126
20
0.854748
11
0.690564
21
0.855036
0
LINE
8
BLACK
6
CONTINUOUS
10
0.692244
20
0.971283
11
0.692244
21
0.856717
0
LINE
8
BLACK
6
CONTINUOUS
10
0.692244
20
0.856717
11
0.747756
21
0.856717
0
LINE
8
BLACK
6
CONTINUOUS
10
0.747756
20
0.856717
11
0.747756
21
0.971283
0
LINE
8
BLACK
6
CONTINUOUS
10
0.747756
20
0.971283
11
0.692244
21
0.971283
0
LINE
8
BLACK
6
CONTINUOUS
10
0.620564
20
0.859036
11
0.620276
21
0.859732
0
LINE
8
BLACK
6
CONTINUOUS
10
0.620276
20
0.859732
11
0.620276
21
0.976268
0
LINE
8
BLACK
6
CONTINUOUS
10
0.620276
20
0.976268
11
0.620564
21
0.976964
0
LINE
8
BLACK
6
CONTINUOUS
10
0.620564
20
0.976964
11
0.62126
21
0.977252
0
LINE
8
BLACK
6
CONTINUOUS
10
0.62126
20
0.977252
11
0.67874
21
0.977252
0
LINE
8
BLACK
6
CONTINUOUS
10
0.67874
20
0.977252
11
0.679436
21
0.976964
0
LINE
8
BLACK
6
CONTINUOUS
10
0.679436
20
0.976964
11
0.679724
21
0.976268
0
LINE
8
BLACK
6
CONTINUOUS
10
0.679724
20
0.976268
11
0.679724
21
0.859732
0
LINE
8
BLACK
6
CONTINUOUS
10
0.679724
20
0.859732
11
0.679436
21
0.859036
0
LINE
8
BLACK
6
CONTINUOUS
10
0.679436
20
0.859036
11
0.67874
21
0.858748
0
LINE
8
BLACK
6
CONTINUOUS
10
0.67874
20
0.858748
11
0.62126
21
0.858748
0
LINE
8
BLACK
6
CONTINUOUS
10
0.62126
20
0.858748
11
0.620564
21
0.859036
0
LINE
8
BLACK
6
CONTINUOUS
10
0.622244
20
0.975283
11
0.622244
21
0.860717
0
LINE
8
BLACK
6
CONTINUOUS
10
0.622244
20
0.860717
11
0.677756
21
0.860717
0
LINE
8
BLACK
6
CONTINUOUS
10
0.677756
20
0.860717
11
0.677756
21
0.975283
0
LINE
8
BLACK
6
CONTINUOUS
10
0.677756
20
0.975283
11
0.622244
21
0.975283
0
LINE
8
BLACK
6
CONTINUOUS
10
0.548564
20
0.859036
11
0.548276
21
0.859732
0
LINE
8
BLACK
6
CONTINUOUS
10
0.548276
20
0.859732
11
0.548276
21
0.976268
0
LINE
8
BLACK
6
CONTINUOUS
10
0.548276
20
0.976268
11
0.548564
21
0.976964
0
LINE
8
BLACK
6
CONTINUOUS
10
0.548564
20
0.976964
11
0.54926
21
0.977252
0
LINE
8
BLACK
6
CONTINUOUS
10
0.54926
20
0.977252
11
0.60674
21
0.977252
0
LINE
8
BLACK
6
CONTINUOUS
10
0.60674
20
0.977252
11
0.607436
21
0.976964
0
LINE
8
BLACK
6
CONTINUOUS
10
0.607436
20
0.976964
11
0.607724
21
0.976268
0
LINE
8
BLACK
6
CONTINUOUS
10
0.607724
20
0.976268
11
0.607724
21
0.859732
0
LINE
8
BLACK
6
CONTINUOUS
10
0.607724
20
0.859732
11
0.607436
21
0.859036
0
LINE
8
BLACK
6
CONTINUOUS
10
0.607436
20
0.859036
11
0.60674
21
0.858748
0
LINE
8
BLACK
6
CONTINUOUS
10
0.60674
20
0.858748
11
0.54926
21
0.858748
0
LINE
8
BLACK
6
CONTINUOUS
10
0.54926
20
0.858748
11
0.548564
21
0.859036
0
LINE
8
BLACK
6
CONTINUOUS
10
0.550244
20
0.975283
11
0.550244
21
0.860717
0
LINE
8
BLACK
6
CONTINUOUS
10
0.550244
20
0.860717
11
0.605756
21
0.860717
0
LINE
8
BLACK
6
CONTINUOUS
10
0.605756
20
0.860717
11
0.605756
21
0.975283
0
LINE
8
BLACK
6
CONTINUOUS
10
0.605756
20
0.975283
11
0.550244
21
0.975283
0
LINE
8
BLACK
6
CONTINUOUS
10
0.201174
20
0.900485
11
0.200886
21
0.901181
0
LINE
8
BLACK
6
CONTINUOUS
10
0.200886
20
0.901181
11
0.200886
21
0.978346
0
LINE
8
BLACK
6
CONTINUOUS
10
0.200886
20
0.978346
11
0.201174
21
0.979042
0
LINE
8
BLACK
6
CONTINUOUS
10
0.201174
20
0.979042
11
0.20187
21
0.979331
0
LINE
8
BLACK
6
CONTINUOUS
10
0.20187
20
0.979331
11
0.335728
21
0.979331
0
LINE
8
BLACK
6
CONTINUOUS
10
0.335728
20
0.979331
11
0.336424
21
0.979042
0
LINE
8
BLACK
6
CONTINUOUS
10
0.336424
20
0.979042
11
0.336713
21
0.978346
0
LINE
8
BLACK
6
CONTINUOUS
10
0.336713
20
0.978346
11
0.336713
21
0.901181
0
LINE
8
BLACK
6
CONTINUOUS
10
0.336713
20
0.901181
11
0.336424
21
0.900485
0
LINE
8
BLACK
6
CONTINUOUS
10
0.336424
20
0.900485
11
0.335728
21
0.900197
0
LINE
8
BLACK
6
CONTINUOUS
10
0.335728
20
0.900197
11
0.20187
21
0.900197
0
LINE
8
BLACK
6
CONTINUOUS
10
0.20187
20
0.900197
11
0.201174
21
0.900485
0
LINE
8
BLACK
6
CONTINUOUS
10
0.202854
20
0.977362
11
0.202854
21
0.902165
0
LINE
8
BLACK
6
CONTINUOUS
10
0.202854
20
0.902165
11
0.334744
21
0.902165
0
LINE
8
BLACK
6
CONTINUOUS
10
0.334744
20
0.902165
11
0.334744
21
0.977362
0
LINE
8
BLACK
6
CONTINUOUS
10
0.334744
20
0.977362
11
0.202854
21
0.977362
0
LINE
8
BLACK
6
CONTINUOUS
10
0.347336
20
0.910328
11
0.347047
21
0.911024
0
LINE
8
BLACK
6
CONTINUOUS
10
0.347047
20
0.911024
11
0.347047
21
0.968504
0
LINE
8
BLACK
6
CONTINUOUS
10
0.347047
20
0.968504
11
0.347336
21
0.9692
0
LINE
8
BLACK
6
CONTINUOUS
10
0.347336
20
0.9692
11
0.348031
21
0.969488
0
LINE
8
BLACK
6
CONTINUOUS
10
0.348031
20
0.969488
11
0.464567
21
0.969488
0
LINE
8
BLACK
6
CONTINUOUS
10
0.464567
20
0.969488
11
0.465263
21
0.9692
0
LINE
8
BLACK
6
CONTINUOUS
10
0.465263
20
0.9692
11
0.465551
21
0.968504
0
LINE
8
BLACK
6
CONTINUOUS
10
0.465551
20
0.968504
11
0.465551
21
0.911024
0
LINE
8
BLACK
6
CONTINUOUS
10
0.465551
20
0.911024
11
0.465263
21
0.910328
0
LINE
8
BLACK
6
CONTINUOUS
10
0.465263
20
0.910328
11
0.464567
21
0.910039
0
LINE
8
BLACK
6
CONTINUOUS
10
0.464567
20
0.910039
11
0.348031
21
0.910039
0
LINE
8
BLACK
6
CONTINUOUS
10
0.348031
20
0.910039
11
0.347336
21
0.910328
0
LINE
8
BLACK
6
CONTINUOUS
10
0.349016
20
0.96752
11
0.349016
21
0.912008
0
LINE
8
BLACK
6
CONTINUOUS
10
0.349016
20
0.912008
11
0.463583
21
0.912008
0
LINE
8
BLACK
6
CONTINUOUS
10
0.463583
20
0.912008
11
0.463583
21
0.96752
0
LINE
8
BLACK
6
CONTINUOUS
10
0.463583
20
0.96752
11
0.349016
21
0.96752
0
LINE
8
BLACK
6
CONTINUOUS
10
0.985635
20
0.929005
11
0.985346
21
0.929701
0
LINE
8
BLACK
6
CONTINUOUS
10
0.985346
20
0.929701
11
0.985346
21
1.1423
0
LINE
8
BLACK
6
CONTINUOUS
10
0.985346
20
1.1423
11
0.985635
21
1.143
0
LINE
8
BLACK
6
CONTINUOUS
10
0.985635
20
1.143
11
0.986331
21
1.14328
0
LINE
8
BLACK
6
CONTINUOUS
10
0.986331
20
1.14328
11
1.27767
21
1.14328
0
LINE
8
BLACK
6
CONTINUOUS
10
1.27767
20
1.14328
11
1.27837
21
1.143
0
LINE
8
BLACK
6
CONTINUOUS
10
1.27837
20
1.143
11
1.27865
21
1.1423
0
LINE
8
BLACK
6
CONTINUOUS
10
1.27865
20
1.1423
11
1.27865
21
0.929701
0
LINE
8
BLACK
6
CONTINUOUS
10
1.27865
20
0.929701
11
1.27837
21
0.929005
0
LINE
8
BLACK
6
CONTINUOUS
10
1.27837
20
0.929005
11
1.27767
21
0.928717
0
LINE
8
BLACK
6
CONTINUOUS
10
1.27767
20
0.928717
11
0.986331
21
0.928717
0
LINE
8
BLACK
6
CONTINUOUS
10
0.986331
20
0.928717
11
0.985635
21
0.929005
0
LINE
8
BLACK
6
CONTINUOUS
10
0.987315
20
1.14131
11
0.987315
21
0.930685
0
LINE
8
BLACK
6
CONTINUOUS
10
0.987315
20
0.930685
11
1.27669
21
0.930685
0
LINE
8
BLACK
6
CONTINUOUS
10
1.27669
20
0.930685
11
1.27669
21
1.14131
0
LINE
8
BLACK
6
CONTINUOUS
10
1.27669
20
1.14131
11
0.987315
21
1.14131
0
LINE
8
BLACK
6
CONTINUOUS
10
0.906564
20
0.946524
11
0.906276
21
0.94722
0
LINE
8
BLACK
6
CONTINUOUS
10
0.906276
20
0.94722
11
0.906276
21
1.06376
0
LINE
8
BLACK
6
CONTINUOUS
10
0.906276
20
1.06376
11
0.906564
21
1.06445
0
LINE
8
BLACK
6
CONTINUOUS
10
0.906564
20
1.06445
11
0.90726
21
1.06474
0
LINE
8
BLACK
6
CONTINUOUS
10
0.90726
20
1.06474
11
0.96474
21
1.06474
0
LINE
8
BLACK
6
CONTINUOUS
10
0.96474
20
1.06474
11
0.965436
21
1.06445
0
LINE
8
BLACK
6
CONTINUOUS
10
0.965436
20
1.06445
11
0.965724
21
1.06376
0
LINE
8
BLACK
6
CONTINUOUS
10
0.965724
20
1.06376
11
0.965724
21
0.94722
0
LINE
8
BLACK
6
CONTINUOUS
10
0.965724
20
0.94722
11
0.965436
21
0.946524
0
LINE
8
BLACK
6
CONTINUOUS
10
0.965436
20
0.946524
11
0.96474
21
0.946236
0
LINE
8
BLACK
6
CONTINUOUS
10
0.96474
20
0.946236
11
0.90726
21
0.946236
0
LINE
8
BLACK
6
CONTINUOUS
10
0.90726
20
0.946236
11
0.906564
21
0.946524
0
LINE
8
BLACK
6
CONTINUOUS
10
0.908244
20
1.06277
11
0.908244
21
0.948205
0
LINE
8
BLACK
6
CONTINUOUS
10
0.908244
20
0.948205
11
0.963756
21
0.948205
0
LINE
8
BLACK
6
CONTINUOUS
10
0.963756
20
0.948205
11
0.963756
21
1.06277
0
LINE
8
BLACK
6
CONTINUOUS
10
0.963756
20
1.06277
11
0.908244
21
1.06277
0
LINE
8
BLACK
6
CONTINUOUS
10
0.836564
20
0.946556
11
0.836276
21
0.947252
0
LINE
8
BLACK
6
CONTINUOUS
10
0.836276
20
0.947252
11
0.836276
21
1.06379
0
LINE
8
BLACK
6
CONTINUOUS
10
0.836276
20
1.06379
11
0.836564
21
1.06448
0
LINE
8
BLACK
6
CONTINUOUS
10
0.836564
20
1.06448
11
0.83726
21
1.06477
0
LINE
8
BLACK
6
CONTINUOUS
10
0.83726
20
1.06477
11
0.89474
21
1.06477
0
LINE
8
BLACK
6
CONTINUOUS
10
0.89474
20
1.06477
11
0.895436
21
1.06448
0
LINE
8
BLACK
6
CONTINUOUS
10
0.895436
20
1.06448
11
0.895724
21
1.06379
0
LINE
8
BLACK
6
CONTINUOUS
10
0.895724
20
1.06379
11
0.895724
21
0.947252
0
LINE
8
BLACK
6
CONTINUOUS
10
0.895724
20
0.947252
11
0.895436
21
0.946556
0
LINE
8
BLACK
6
CONTINUOUS
10
0.895436
20
0.946556
11
0.89474
21
0.946268
0
LINE
8
BLACK
6
CONTINUOUS
10
0.89474
20
0.946268
11
0.83726
21
0.946268
0
LINE
8
BLACK
6
CONTINUOUS
10
0.83726
20
0.946268
11
0.836564
21
0.946556
0
LINE
8
BLACK
6
CONTINUOUS
10
0.838244
20
1.0628
11
0.838244
21
0.948236
0
LINE
8
BLACK
6
CONTINUOUS
10
0.838244
20
0.948236
11
0.893756
21
0.948236
0
LINE
8
BLACK
6
CONTINUOUS
10
0.893756
20
0.948236
11
0.893756
21
1.0628
0
LINE
8
BLACK
6
CONTINUOUS
10
0.893756
20
1.0628
11
0.838244
21
1.0628
0
LINE
8
BLACK
6
CONTINUOUS
10
0.259934
20
0.982769
11
0.259646
21
0.983465
0
LINE
8
BLACK
6
CONTINUOUS
10
0.259646
20
0.983465
11
0.259646
21
1.19606
0
LINE
8
BLACK
6
CONTINUOUS
10
0.259646
20
1.19606
11
0.259934
21
1.19676
0
LINE
8
BLACK
6
CONTINUOUS
10
0.259934
20
1.19676
11
0.26063
21
1.19705
0
LINE
8
BLACK
6
CONTINUOUS
10
0.26063
20
1.19705
11
0.551969
21
1.19705
0
LINE
8
BLACK
6
CONTINUOUS
10
0.551969
20
1.19705
11
0.552664
21
1.19676
0
LINE
8
BLACK
6
CONTINUOUS
10
0.552664
20
1.19676
11
0.552953
21
1.19606
0
LINE
8
BLACK
6
CONTINUOUS
10
0.552953
20
1.19606
11
0.552953
21
0.983465
0
LINE
8
BLACK
6
CONTINUOUS
10
0.552953
20
0.983465
11
0.552664
21
0.982769
0
LINE
8
BLACK
6
CONTINUOUS
10
0.552664
20
0.982769
11
0.551969
21
0.98248
0
LINE
8
BLACK
6
CONTINUOUS
10
0.551969
20
0.98248
11
0.26063
21
0.98248
0
LINE
8
BLACK
6
CONTINUOUS
10
0.26063
20
0.98248
11
0.259934
21
0.982769
0
LINE
8
BLACK
6
CONTINUOUS
10
0.261614
20
1.19508
11
0.261614
21
0.984449
0
LINE
8
BLACK
6
CONTINUOUS
10
0.261614
20
0.984449
11
0.550984
21
0.984449
0
LINE
8
BLACK
6
CONTINUOUS
10
0.550984
20
0.984449
11
0.550984
21
1.19508
0
LINE
8
BLACK
6
CONTINUOUS
10
0.550984
20
1.19508
11
0.261614
21
1.19508
0
LINE
8
BLACK
6
CONTINUOUS
10
0.560564
20
1.03104
11
0.560276
21
1.03173
0
LINE
8
BLACK
6
CONTINUOUS
10
0.560276
20
1.03173
11
0.560276
21
1.14827
0
LINE
8
BLACK
6
CONTINUOUS
10
0.560276
20
1.14827
11
0.560564
21
1.14896
0
LINE
8
BLACK
6
CONTINUOUS
10
0.560564
20
1.14896
11
0.56126
21
1.14925
0
LINE
8
BLACK
6
CONTINUOUS
10
0.56126
20
1.14925
11
0.61874
21
1.14925
0
LINE
8
BLACK
6
CONTINUOUS
10
0.61874
20
1.14925
11
0.619436
21
1.14896
0
LINE
8
BLACK
6
CONTINUOUS
10
0.619436
20
1.14896
11
0.619724
21
1.14827
0
LINE
8
BLACK
6
CONTINUOUS
10
0.619724
20
1.14827
11
0.619724
21
1.03173
0
LINE
8
BLACK
6
CONTINUOUS
10
0.619724
20
1.03173
11
0.619436
21
1.03104
0
LINE
8
BLACK
6
CONTINUOUS
10
0.619436
20
1.03104
11
0.61874
21
1.03075
0
LINE
8
BLACK
6
CONTINUOUS
10
0.61874
20
1.03075
11
0.56126
21
1.03075
0
LINE
8
BLACK
6
CONTINUOUS
10
0.56126
20
1.03075
11
0.560564
21
1.03104
0
LINE
8
BLACK
6
CONTINUOUS
10
0.562244
20
1.14728
11
0.562244
21
1.03272
0
LINE
8
BLACK
6
CONTINUOUS
10
0.562244
20
1.03272
11
0.617756
21
1.03272
0
LINE
8
BLACK
6
CONTINUOUS
10
0.617756
20
1.03272
11
0.617756
21
1.14728
0
LINE
8
BLACK
6
CONTINUOUS
10
0.617756
20
1.14728
11
0.562244
21
1.14728
0
LINE
8
BLACK
6
CONTINUOUS
10
0.630564
20
1.03104
11
0.630276
21
1.03173
0
LINE
8
BLACK
6
CONTINUOUS
10
0.630276
20
1.03173
11
0.630276
21
1.14827
0
LINE
8
BLACK
6
CONTINUOUS
10
0.630276
20
1.14827
11
0.630564
21
1.14896
0
LINE
8
BLACK
6
CONTINUOUS
10
0.630564
20
1.14896
11
0.63126
21
1.14925
0
LINE
8
BLACK
6
CONTINUOUS
10
0.63126
20
1.14925
11
0.68874
21
1.14925
0
LINE
8
BLACK
6
CONTINUOUS
10
0.68874
20
1.14925
11
0.689436
21
1.14896
0
LINE
8
BLACK
6
CONTINUOUS
10
0.689436
20
1.14896
11
0.689724
21
1.14827
0
LINE
8
BLACK
6
CONTINUOUS
10
0.689724
20
1.14827
11
0.689724
21
1.03173
0
LINE
8
BLACK
6
CONTINUOUS
10
0.689724
20
1.03173
11
0.689436
21
1.03104
0
LINE
8
BLACK
6
CONTINUOUS
10
0.689436
20
1.03104
11
0.68874
21
1.03075
0
LINE
8
BLACK
6
CONTINUOUS
10
0.68874
20
1.03075
11
0.63126
21
1.03075
0
LINE
8
BLACK
6
CONTINUOUS
10
0.63126
20
1.03075
11
0.630564
21
1.03104
0
LINE
8
BLACK
6
CONTINUOUS
10
0.632244
20
1.14728
11
0.632244
21
1.03272
0
LINE
8
BLACK
6
CONTINUOUS
10
0.632244
20
1.03272
11
0.687756
21
1.03272
0
LINE
8
BLACK
6
CONTINUOUS
10
0.687756
20
1.03272
11
0.687756
21
1.14728
0
LINE
8
BLACK
6
CONTINUOUS
10
0.687756
20
1.14728
11
0.632244
21
1.14728
0
LINE
8
BLACK
6
CONTINUOUS
10
0.700564
20
1.03104
11
0.700276
21
1.03173
0
LINE
8
BLACK
6
CONTINUOUS
10
0.700276
20
1.03173
11
0.700276
21
1.14827
0
LINE
8
BLACK
6
CONTINUOUS
10
0.700276
20
1.14827
11
0.700564
21
1.14896
0
LINE
8
BLACK
6
CONTINUOUS
10
0.700564
20
1.14896
11
0.70126
21
1.14925
0
LINE
8
BLACK
6
CONTINUOUS
10
0.70126
20
1.14925
11
0.75874
21
1.14925
0
LINE
8
BLACK
6
CONTINUOUS
10
0.75874
20
1.14925
11
0.759436
21
1.14896
0
LINE
8
BLACK
6
CONTINUOUS
10
0.759436
20
1.14896
11
0.759724
21
1.14827
0
LINE
8
BLACK
6
CONTINUOUS
10
0.759724
20
1.14827
11
0.759724
21
1.03173
0
LINE
8
BLACK
6
CONTINUOUS
10
0.759724
20
1.03173
11
0.759436
21
1.03104
0
LINE
8
BLACK
6
CONTINUOUS
10
0.759436
20
1.03104
11
0.75874
21
1.03075
0
LINE
8
BLACK
6
CONTINUOUS
10
0.75874
20
1.03075
11
0.70126
21
1.03075
0
LINE
8
BLACK
6
CONTINUOUS
10
0.70126
20
1.03075
11
0.700564
21
1.03104
0
LINE
8
BLACK
6
CONTINUOUS
10
0.702244
20
1.14728
11
0.702244
21
1.03272
0
LINE
8
BLACK
6
CONTINUOUS
10
0.702244
20
1.03272
11
0.757756
21
1.03272
0
LINE
8
BLACK
6
CONTINUOUS
10
0.757756
20
1.03272
11
0.757756
21
1.14728
0
LINE
8
BLACK
6
CONTINUOUS
10
0.757756
20
1.14728
11
0.702244
21
1.14728
0
LINE
8
BLACK
6
CONTINUOUS
10
0.770564
20
1.03104
11
0.770276
21
1.03173
0
LINE
8
BLACK
6
CONTINUOUS
10
0.770276
20
1.03173
11
0.770276
21
1.14827
0
LINE
8
BLACK
6
CONTINUOUS
10
0.770276
20
1.14827
11
0.770564
21
1.14896
0
LINE
8
BLACK
6
CONTINUOUS
10
0.770564
20
1.14896
11
0.77126
21
1.14925
0
LINE
8
BLACK
6
CONTINUOUS
10
0.77126
20
1.14925
11
0.82874
21
1.14925
0
LINE
8
BLACK
6
CONTINUOUS
10
0.82874
20
1.14925
11
0.829436
21
1.14896
0
LINE
8
BLACK
6
CONTINUOUS
10
0.829436
20
1.14896
11
0.829724
21
1.14827
0
LINE
8
BLACK
6
CONTINUOUS
10
0.829724
20
1.14827
11
0.829724
21
1.03173
0
LINE
8
BLACK
6
CONTINUOUS
10
0.829724
20
1.03173
11
0.829436
21
1.03104
0
LINE
8
BLACK
6
CONTINUOUS
10
0.829436
20
1.03104
11
0.82874
21
1.03075
0
LINE
8
BLACK
6
CONTINUOUS
10
0.82874
20
1.03075
11
0.77126
21
1.03075
0
LINE
8
BLACK
6
CONTINUOUS
10
0.77126
20
1.03075
11
0.770564
21
1.03104
0
LINE
8
BLACK
6
CONTINUOUS
10
0.772244
20
1.14728
11
0.772244
21
1.03272
0
LINE
8
BLACK
6
CONTINUOUS
10
0.772244
20
1.03272
11
0.827756
21
1.03272
0
LINE
8
BLACK
6
CONTINUOUS
10
0.827756
20
1.03272
11
0.827756
21
1.14728
0
LINE
8
BLACK
6
CONTINUOUS
10
0.827756
20
1.14728
11
0.772244
21
1.14728
0
LINE
8
BLACK
6
CONTINUOUS
10
0.845036
20
1.08456
11
0.844748
21
1.08526
0
LINE
8
BLACK
6
CONTINUOUS
10
0.844748
20
1.08526
11
0.844748
21
1.14274
0
LINE
8
BLACK
6
CONTINUOUS
10
0.844748
20
1.14274
11
0.845036
21
1.14344
0
LINE
8
BLACK
6
CONTINUOUS
10
0.845036
20
1.14344
11
0.845732
21
1.14372
0
LINE
8
BLACK
6
CONTINUOUS
10
0.845732
20
1.14372
11
0.962268
21
1.14372
0
LINE
8
BLACK
6
CONTINUOUS
10
0.962268
20
1.14372
11
0.962964
21
1.14344
0
LINE
8
BLACK
6
CONTINUOUS
10
0.962964
20
1.14344
11
0.963252
21
1.14274
0
LINE
8
BLACK
6
CONTINUOUS
10
0.963252
20
1.14274
11
0.963252
21
1.08526
0
LINE
8
BLACK
6
CONTINUOUS
10
0.963252
20
1.08526
11
0.962964
21
1.08456
0
LINE
8
BLACK
6
CONTINUOUS
10
0.962964
20
1.08456
11
0.962268
21
1.08428
0
LINE
8
BLACK
6
CONTINUOUS
10
0.962268
20
1.08428
11
0.845732
21
1.08428
0
LINE
8
BLACK
6
CONTINUOUS
10
0.845732
20
1.08428
11
0.845036
21
1.08456
0
LINE
8
BLACK
6
CONTINUOUS
10
0.846717
20
1.14176
11
0.846717
21
1.08624
0
LINE
8
BLACK
6
CONTINUOUS
10
0.846717
20
1.08624
11
0.961283
21
1.08624
0
LINE
8
BLACK
6
CONTINUOUS
10
0.961283
20
1.08624
11
0.961283
21
1.14176
0
LINE
8
BLACK
6
CONTINUOUS
10
0.961283
20
1.14176
11
0.846717
21
1.14176
0
LINE
8
BLACK
6
CONTINUOUS
10
0.176863
20
1.1183
11
0.176575
21
1.119
0
LINE
8
BLACK
6
CONTINUOUS
10
0.176575
20
1.119
11
0.176575
21
1.23553
0
LINE
8
BLACK
6
CONTINUOUS
10
0.176575
20
1.23553
11
0.176863
21
1.23623
0
LINE
8
BLACK
6
CONTINUOUS
10
0.176863
20
1.23623
11
0.177559
21
1.23652
0
LINE
8
BLACK
6
CONTINUOUS
10
0.177559
20
1.23652
11
0.235039
21
1.23652
0
LINE
8
BLACK
6
CONTINUOUS
10
0.235039
20
1.23652
11
0.235735
21
1.23623
0
LINE
8
BLACK
6
CONTINUOUS
10
0.235735
20
1.23623
11
0.236024
21
1.23553
0
LINE
8
BLACK
6
CONTINUOUS
10
0.236024
20
1.23553
11
0.236024
21
1.119
0
LINE
8
BLACK
6
CONTINUOUS
10
0.236024
20
1.119
11
0.235735
21
1.1183
0
LINE
8
BLACK
6
CONTINUOUS
10
0.235735
20
1.1183
11
0.235039
21
1.11801
0
LINE
8
BLACK
6
CONTINUOUS
10
0.235039
20
1.11801
11
0.177559
21
1.11801
0
LINE
8
BLACK
6
CONTINUOUS
10
0.177559
20
1.11801
11
0.176863
21
1.1183
0
LINE
8
BLACK
6
CONTINUOUS
10
0.178543
20
1.23455
11
0.178543
21
1.11998
0
LINE
8
BLACK
6
CONTINUOUS
10
0.178543
20
1.11998
11
0.234055
21
1.11998
0
LINE
8
BLACK
6
CONTINUOUS
10
0.234055
20
1.11998
11
0.234055
21
1.23455
0
LINE
8
BLACK
6
CONTINUOUS
10
0.234055
20
1.23455
11
0.178543
21
1.23455
0
LINE
8
BLACK
6
CONTINUOUS
10
0.576863
20
1.1558
11
0.576575
21
1.1565
0
LINE
8
BLACK
6
CONTINUOUS
10
0.576575
20
1.1565
11
0.576575
21
1.27303
0
LINE
8
BLACK
6
CONTINUOUS
10
0.576575
20
1.27303
11
0.576863
21
1.27373
0
LINE
8
BLACK
6
CONTINUOUS
10
0.576863
20
1.27373
11
0.577559
21
1.27402
0
LINE
8
BLACK
6
CONTINUOUS
10
0.577559
20
1.27402
11
0.635039
21
1.27402
0
LINE
8
BLACK
6
CONTINUOUS
10
0.635039
20
1.27402
11
0.635735
21
1.27373
0
LINE
8
BLACK
6
CONTINUOUS
10
0.635735
20
1.27373
11
0.636024
21
1.27303
0
LINE
8
BLACK
6
CONTINUOUS
10
0.636024
20
1.27303
11
0.636024
21
1.1565
0
LINE
8
BLACK
6
CONTINUOUS
10
0.636024
20
1.1565
11
0.635735
21
1.1558
0
LINE
8
BLACK
6
CONTINUOUS
10
0.635735
20
1.1558
11
0.635039
21
1.15551
0
LINE
8
BLACK
6
CONTINUOUS
10
0.635039
20
1.15551
11
0.577559
21
1.15551
0
LINE
8
BLACK
6
CONTINUOUS
10
0.577559
20
1.15551
11
0.576863
21
1.1558
0
LINE
8
BLACK
6
CONTINUOUS
10
0.578543
20
1.27205
11
0.578543
21
1.15748
0
LINE
8
BLACK
6
CONTINUOUS
10
0.578543
20
1.15748
11
0.634055
21
1.15748
0
LINE
8
BLACK
6
CONTINUOUS
10
0.634055
20
1.15748
11
0.634055
21
1.27205
0
LINE
8
BLACK
6
CONTINUOUS
10
0.634055
20
1.27205
11
0.578543
21
1.27205
0
LINE
8
BLACK
6
CONTINUOUS
10
0.640564
20
1.1583
11
0.640276
21
1.159
0
LINE
8
BLACK
6
CONTINUOUS
10
0.640276
20
1.159
11
0.640276
21
1.27553
0
LINE
8
BLACK
6
CONTINUOUS
10
0.640276
20
1.27553
11
0.640564
21
1.27623
0
LINE
8
BLACK
6
CONTINUOUS
10
0.640564
20
1.27623
11
0.64126
21
1.27652
0
LINE
8
BLACK
6
CONTINUOUS
10
0.64126
20
1.27652
11
0.69874
21
1.27652
0
LINE
8
BLACK
6
CONTINUOUS
10
0.69874
20
1.27652
11
0.699436
21
1.27623
0
LINE
8
BLACK
6
CONTINUOUS
10
0.699436
20
1.27623
11
0.699724
21
1.27553
0
LINE
8
BLACK
6
CONTINUOUS
10
0.699724
20
1.27553
11
0.699724
21
1.159
0
LINE
8
BLACK
6
CONTINUOUS
10
0.699724
20
1.159
11
0.699436
21
1.1583
0
LINE
8
BLACK
6
CONTINUOUS
10
0.699436
20
1.1583
11
0.69874
21
1.15801
0
LINE
8
BLACK
6
CONTINUOUS
10
0.69874
20
1.15801
11
0.64126
21
1.15801
0
LINE
8
BLACK
6
CONTINUOUS
10
0.64126
20
1.15801
11
0.640564
21
1.1583
0
LINE
8
BLACK
6
CONTINUOUS
10
0.642244
20
1.27455
11
0.642244
21
1.15998
0
LINE
8
BLACK
6
CONTINUOUS
10
0.642244
20
1.15998
11
0.697756
21
1.15998
0
LINE
8
BLACK
6
CONTINUOUS
10
0.697756
20
1.15998
11
0.697756
21
1.27455
0
LINE
8
BLACK
6
CONTINUOUS
10
0.697756
20
1.27455
11
0.642244
21
1.27455
0
LINE
8
BLACK
6
CONTINUOUS
10
1.18872
20
1.16837
11
1.18843
21
1.16907
0
LINE
8
BLACK
6
CONTINUOUS
10
1.18843
20
1.16907
11
1.18843
21
1.30293
0
LINE
8
BLACK
6
CONTINUOUS
10
1.18843
20
1.30293
11
1.18872
21
1.30363
0
LINE
8
BLACK
6
CONTINUOUS
10
1.18872
20
1.30363
11
1.18942
21
1.30391
0
LINE
8
BLACK
6
CONTINUOUS
10
1.18942
20
1.30391
11
1.26658
21
1.30391
0
LINE
8
BLACK
6
CONTINUOUS
10
1.26658
20
1.30391
11
1.26728
21
1.30363
0
LINE
8
BLACK
6
CONTINUOUS
10
1.26728
20
1.30363
11
1.26757
21
1.30293
0
LINE
8
BLACK
6
CONTINUOUS
10
1.26757
20
1.30293
11
1.26757
21
1.16907
0
LINE
8
BLACK
6
CONTINUOUS
10
1.26757
20
1.16907
11
1.26728
21
1.16837
0
LINE
8
BLACK
6
CONTINUOUS
10
1.26728
20
1.16837
11
1.26658
21
1.16809
0
LINE
8
BLACK
6
CONTINUOUS
10
1.26658
20
1.16809
11
1.18942
21
1.16809
0
LINE
8
BLACK
6
CONTINUOUS
10
1.18942
20
1.16809
11
1.18872
21
1.16837
0
LINE
8
BLACK
6
CONTINUOUS
10
1.1904
20
1.30194
11
1.1904
21
1.17006
0
LINE
8
BLACK
6
CONTINUOUS
10
1.1904
20
1.17006
11
1.2656
21
1.17006
0
LINE
8
BLACK
6
CONTINUOUS
10
1.2656
20
1.17006
11
1.2656
21
1.30194
0
LINE
8
BLACK
6
CONTINUOUS
10
1.2656
20
1.30194
11
1.1904
21
1.30194
0
LINE
8
BLACK
6
CONTINUOUS
10
1.06056
20
1.16856
11
1.06027
21
1.16926
0
LINE
8
BLACK
6
CONTINUOUS
10
1.06027
20
1.16926
11
1.06027
21
1.22674
0
LINE
8
BLACK
6
CONTINUOUS
10
1.06027
20
1.22674
11
1.06056
21
1.22744
0
LINE
8
BLACK
6
CONTINUOUS
10
1.06056
20
1.22744
11
1.06125
21
1.22772
0
LINE
8
BLACK
6
CONTINUOUS
10
1.06125
20
1.22772
11
1.17779
21
1.22772
0
LINE
8
BLACK
6
CONTINUOUS
10
1.17779
20
1.22772
11
1.17848
21
1.22744
0
LINE
8
BLACK
6
CONTINUOUS
10
1.17848
20
1.22744
11
1.17877
21
1.22674
0
LINE
8
BLACK
6
CONTINUOUS
10
1.17877
20
1.22674
11
1.17877
21
1.16926
0
LINE
8
BLACK
6
CONTINUOUS
10
1.17877
20
1.16926
11
1.17848
21
1.16856
0
LINE
8
BLACK
6
CONTINUOUS
10
1.17848
20
1.16856
11
1.17779
21
1.16828
0
LINE
8
BLACK
6
CONTINUOUS
10
1.17779
20
1.16828
11
1.06125
21
1.16828
0
LINE
8
BLACK
6
CONTINUOUS
10
1.06125
20
1.16828
11
1.06056
21
1.16856
0
LINE
8
BLACK
6
CONTINUOUS
10
1.06224
20
1.22576
11
1.06224
21
1.17024
0
LINE
8
BLACK
6
CONTINUOUS
10
1.06224
20
1.17024
11
1.1768
21
1.17024
0
LINE
8
BLACK
6
CONTINUOUS
10
1.1768
20
1.17024
11
1.1768
21
1.22576
0
LINE
8
BLACK
6
CONTINUOUS
10
1.1768
20
1.22576
11
1.06224
21
1.22576
0
LINE
8
BLACK
6
CONTINUOUS
10
0.876564
20
1.29904
11
0.876276
21
1.29973
0
LINE
8
BLACK
6
CONTINUOUS
10
0.876276
20
1.29973
11
0.876276
21
1.41627
0
LINE
8
BLACK
6
CONTINUOUS
10
0.876276
20
1.41627
11
0.876564
21
1.41696
0
LINE
8
BLACK
6
CONTINUOUS
10
0.876564
20
1.41696
11
0.87726
21
1.41725
0
LINE
8
BLACK
6
CONTINUOUS
10
0.87726
20
1.41725
11
0.93474
21
1.41725
0
LINE
8
BLACK
6
CONTINUOUS
10
0.93474
20
1.41725
11
0.935436
21
1.41696
0
LINE
8
BLACK
6
CONTINUOUS
10
0.935436
20
1.41696
11
0.935724
21
1.41627
0
LINE
8
BLACK
6
CONTINUOUS
10
0.935724
20
1.41627
11
0.935724
21
1.29973
0
LINE
8
BLACK
6
CONTINUOUS
10
0.935724
20
1.29973
11
0.935436
21
1.29904
0
LINE
8
BLACK
6
CONTINUOUS
10
0.935436
20
1.29904
11
0.93474
21
1.29875
0
LINE
8
BLACK
6
CONTINUOUS
10
0.93474
20
1.29875
11
0.87726
21
1.29875
0
LINE
8
BLACK
6
CONTINUOUS
10
0.87726
20
1.29875
11
0.876564
21
1.29904
0
LINE
8
BLACK
6
CONTINUOUS
10
0.878244
20
1.41528
11
0.878244
21
1.30072
0
LINE
8
BLACK
6
CONTINUOUS
10
0.878244
20
1.30072
11
0.933756
21
1.30072
0
LINE
8
BLACK
6
CONTINUOUS
10
0.933756
20
1.30072
11
0.933756
21
1.41528
0
LINE
8
BLACK
6
CONTINUOUS
10
0.933756
20
1.41528
11
0.878244
21
1.41528
0
LINE
8
BLACK
6
CONTINUOUS
10
0.790564
20
1.29904
11
0.790276
21
1.29973
0
LINE
8
BLACK
6
CONTINUOUS
10
0.790276
20
1.29973
11
0.790276
21
1.41627
0
LINE
8
BLACK
6
CONTINUOUS
10
0.790276
20
1.41627
11
0.790564
21
1.41696
0
LINE
8
BLACK
6
CONTINUOUS
10
0.790564
20
1.41696
11
0.79126
21
1.41725
0
LINE
8
BLACK
6
CONTINUOUS
10
0.79126
20
1.41725
11
0.84874
21
1.41725
0
LINE
8
BLACK
6
CONTINUOUS
10
0.84874
20
1.41725
11
0.849436
21
1.41696
0
LINE
8
BLACK
6
CONTINUOUS
10
0.849436
20
1.41696
11
0.849724
21
1.41627
0
LINE
8
BLACK
6
CONTINUOUS
10
0.849724
20
1.41627
11
0.849724
21
1.29973
0
LINE
8
BLACK
6
CONTINUOUS
10
0.849724
20
1.29973
11
0.849436
21
1.29904
0
LINE
8
BLACK
6
CONTINUOUS
10
0.849436
20
1.29904
11
0.84874
21
1.29875
0
LINE
8
BLACK
6
CONTINUOUS
10
0.84874
20
1.29875
11
0.79126
21
1.29875
0
LINE
8
BLACK
6
CONTINUOUS
10
0.79126
20
1.29875
11
0.790564
21
1.29904
0
LINE
8
BLACK
6
CONTINUOUS
10
0.792244
20
1.41528
11
0.792244
21
1.30072
0
LINE
8
BLACK
6
CONTINUOUS
10
0.792244
20
1.30072
11
0.847756
21
1.30072
0
LINE
8
BLACK
6
CONTINUOUS
10
0.847756
20
1.30072
11
0.847756
21
1.41528
0
LINE
8
BLACK
6
CONTINUOUS
10
0.847756
20
1.41528
11
0.792244
21
1.41528
0
LINE
8
BLACK
6
CONTINUOUS
10
1.04056
20
1.29904
11
1.04028
21
1.29973
0
LINE
8
BLACK
6
CONTINUOUS
10
1.04028
20
1.29973
11
1.04028
21
1.41627
0
LINE
8
BLACK
6
CONTINUOUS
10
1.04028
20
1.41627
11
1.04056
21
1.41696
0
LINE
8
BLACK
6
CONTINUOUS
10
1.04056
20
1.41696
11
1.04126
21
1.41725
0
LINE
8
BLACK
6
CONTINUOUS
10
1.04126
20
1.41725
11
1.09874
21
1.41725
0
LINE
8
BLACK
6
CONTINUOUS
10
1.09874
20
1.41725
11
1.09944
21
1.41696
0
LINE
8
BLACK
6
CONTINUOUS
10
1.09944
20
1.41696
11
1.09972
21
1.41627
0
LINE
8
BLACK
6
CONTINUOUS
10
1.09972
20
1.41627
11
1.09972
21
1.29973
0
LINE
8
BLACK
6
CONTINUOUS
10
1.09972
20
1.29973
11
1.09944
21
1.29904
0
LINE
8
BLACK
6
CONTINUOUS
10
1.09944
20
1.29904
11
1.09874
21
1.29875
0
LINE
8
BLACK
6
CONTINUOUS
10
1.09874
20
1.29875
11
1.04126
21
1.29875
0
LINE
8
BLACK
6
CONTINUOUS
10
1.04126
20
1.29875
11
1.04056
21
1.29904
0
LINE
8
BLACK
6
CONTINUOUS
10
1.04224
20
1.41528
11
1.04224
21
1.30072
0
LINE
8
BLACK
6
CONTINUOUS
10
1.04224
20
1.30072
11
1.09776
21
1.30072
0
LINE
8
BLACK
6
CONTINUOUS
10
1.09776
20
1.30072
11
1.09776
21
1.41528
0
LINE
8
BLACK
6
CONTINUOUS
10
1.09776
20
1.41528
11
1.04224
21
1.41528
0
LINE
8
BLACK
6
CONTINUOUS
10
0.956564
20
1.29904
11
0.956276
21
1.29973
0
LINE
8
BLACK
6
CONTINUOUS
10
0.956276
20
1.29973
11
0.956276
21
1.41627
0
LINE
8
BLACK
6
CONTINUOUS
10
0.956276
20
1.41627
11
0.956564
21
1.41696
0
LINE
8
BLACK
6
CONTINUOUS
10
0.956564
20
1.41696
11
0.95726
21
1.41725
0
LINE
8
BLACK
6
CONTINUOUS
10
0.95726
20
1.41725
11
1.01474
21
1.41725
0
LINE
8
BLACK
6
CONTINUOUS
10
1.01474
20
1.41725
11
1.01544
21
1.41696
0
LINE
8
BLACK
6
CONTINUOUS
10
1.01544
20
1.41696
11
1.01572
21
1.41627
0
LINE
8
BLACK
6
CONTINUOUS
10
1.01572
20
1.41627
11
1.01572
21
1.29973
0
LINE
8
BLACK
6
CONTINUOUS
10
1.01572
20
1.29973
11
1.01544
21
1.29904
0
LINE
8
BLACK
6
CONTINUOUS
10
1.01544
20
1.29904
11
1.01474
21
1.29875
0
LINE
8
BLACK
6
CONTINUOUS
10
1.01474
20
1.29875
11
0.95726
21
1.29875
0
LINE
8
BLACK
6
CONTINUOUS
10
0.95726
20
1.29875
11
0.956564
21
1.29904
0
LINE
8
BLACK
6
CONTINUOUS
10
0.958244
20
1.41528
11
0.958244
21
1.30072
0
LINE
8
BLACK
6
CONTINUOUS
10
0.958244
20
1.30072
11
1.01376
21
1.30072
0
LINE
8
BLACK
6
CONTINUOUS
10
1.01376
20
1.30072
11
1.01376
21
1.41528
0
LINE
8
BLACK
6
CONTINUOUS
10
1.01376
20
1.41528
11
0.958244
21
1.41528
0
LINE
8
BLACK
6
CONTINUOUS
10
0.708564
20
1.34304
11
0.708276
21
1.34373
0
LINE
8
BLACK
6
CONTINUOUS
10
0.708276
20
1.34373
11
0.708276
21
1.46027
0
LINE
8
BLACK
6
CONTINUOUS
10
0.708276
20
1.46027
11
0.708564
21
1.46096
0
LINE
8
BLACK
6
CONTINUOUS
10
0.708564
20
1.46096
11
0.70926
21
1.46125
0
LINE
8
BLACK
6
CONTINUOUS
10
0.70926
20
1.46125
11
0.76674
21
1.46125
0
LINE
8
BLACK
6
CONTINUOUS
10
0.76674
20
1.46125
11
0.767436
21
1.46096
0
LINE
8
BLACK
6
CONTINUOUS
10
0.767436
20
1.46096
11
0.767724
21
1.46027
0
LINE
8
BLACK
6
CONTINUOUS
10
0.767724
20
1.46027
11
0.767724
21
1.34373
0
LINE
8
BLACK
6
CONTINUOUS
10
0.767724
20
1.34373
11
0.767436
21
1.34304
0
LINE
8
BLACK
6
CONTINUOUS
10
0.767436
20
1.34304
11
0.76674
21
1.34275
0
LINE
8
BLACK
6
CONTINUOUS
10
0.76674
20
1.34275
11
0.70926
21
1.34275
0
LINE
8
BLACK
6
CONTINUOUS
10
0.70926
20
1.34275
11
0.708564
21
1.34304
0
LINE
8
BLACK
6
CONTINUOUS
10
0.710244
20
1.45928
11
0.710244
21
1.34472
0
LINE
8
BLACK
6
CONTINUOUS
10
0.710244
20
1.34472
11
0.765756
21
1.34472
0
LINE
8
BLACK
6
CONTINUOUS
10
0.765756
20
1.34472
11
0.765756
21
1.45928
0
LINE
8
BLACK
6
CONTINUOUS
10
0.765756
20
1.45928
11
0.710244
21
1.45928
0
LINE
8
BLACK
6
CONTINUOUS
10
0.494564
20
1.36104
11
0.494276
21
1.36173
0
LINE
8
BLACK
6
CONTINUOUS
10
0.494276
20
1.36173
11
0.494276
21
1.47827
0
LINE
8
BLACK
6
CONTINUOUS
10
0.494276
20
1.47827
11
0.494564
21
1.47896
0
LINE
8
BLACK
6
CONTINUOUS
10
0.494564
20
1.47896
11
0.49526
21
1.47925
0
LINE
8
BLACK
6
CONTINUOUS
10
0.49526
20
1.47925
11
0.55274
21
1.47925
0
LINE
8
BLACK
6
CONTINUOUS
10
0.55274
20
1.47925
11
0.553436
21
1.47896
0
LINE
8
BLACK
6
CONTINUOUS
10
0.553436
20
1.47896
11
0.553724
21
1.47827
0
LINE
8
BLACK
6
CONTINUOUS
10
0.553724
20
1.47827
11
0.553724
21
1.36173
0
LINE
8
BLACK
6
CONTINUOUS
10
0.553724
20
1.36173
11
0.553436
21
1.36104
0
LINE
8
BLACK
6
CONTINUOUS
10
0.553436
20
1.36104
11
0.55274
21
1.36075
0
LINE
8
BLACK
6
CONTINUOUS
10
0.55274
20
1.36075
11
0.49526
21
1.36075
0
LINE
8
BLACK
6
CONTINUOUS
10
0.49526
20
1.36075
11
0.494564
21
1.36104
0
LINE
8
BLACK
6
CONTINUOUS
10
0.496244
20
1.47728
11
0.496244
21
1.36272
0
LINE
8
BLACK
6
CONTINUOUS
10
0.496244
20
1.36272
11
0.551756
21
1.36272
0
LINE
8
BLACK
6
CONTINUOUS
10
0.551756
20
1.36272
11
0.551756
21
1.47728
0
LINE
8
BLACK
6
CONTINUOUS
10
0.551756
20
1.47728
11
0.496244
21
1.47728
0
LINE
8
BLACK
6
CONTINUOUS
10
0.638564
20
1.39504
11
0.638276
21
1.39573
0
LINE
8
BLACK
6
CONTINUOUS
10
0.638276
20
1.39573
11
0.638276
21
1.51227
0
LINE
8
BLACK
6
CONTINUOUS
10
0.638276
20
1.51227
11
0.638564
21
1.51296
0
LINE
8
BLACK
6
CONTINUOUS
10
0.638564
20
1.51296
11
0.63926
21
1.51325
0
LINE
8
BLACK
6
CONTINUOUS
10
0.63926
20
1.51325
11
0.69674
21
1.51325
0
LINE
8
BLACK
6
CONTINUOUS
10
0.69674
20
1.51325
11
0.697436
21
1.51296
0
LINE
8
BLACK
6
CONTINUOUS
10
0.697436
20
1.51296
11
0.697724
21
1.51227
0
LINE
8
BLACK
6
CONTINUOUS
10
0.697724
20
1.51227
11
0.697724
21
1.39573
0
LINE
8
BLACK
6
CONTINUOUS
10
0.697724
20
1.39573
11
0.697436
21
1.39504
0
LINE
8
BLACK
6
CONTINUOUS
10
0.697436
20
1.39504
11
0.69674
21
1.39475
0
LINE
8
BLACK
6
CONTINUOUS
10
0.69674
20
1.39475
11
0.63926
21
1.39475
0
LINE
8
BLACK
6
CONTINUOUS
10
0.63926
20
1.39475
11
0.638564
21
1.39504
0
LINE
8
BLACK
6
CONTINUOUS
10
0.640244
20
1.51128
11
0.640244
21
1.39672
0
LINE
8
BLACK
6
CONTINUOUS
10
0.640244
20
1.39672
11
0.695756
21
1.39672
0
LINE
8
BLACK
6
CONTINUOUS
10
0.695756
20
1.39672
11
0.695756
21
1.51128
0
LINE
8
BLACK
6
CONTINUOUS
10
0.695756
20
1.51128
11
0.640244
21
1.51128
0
LINE
8
BLACK
6
CONTINUOUS
10
0.274375
20
1.40571
11
0.274087
21
1.40641
0
LINE
8
BLACK
6
CONTINUOUS
10
0.274087
20
1.40641
11
0.274087
21
1.55759
0
LINE
8
BLACK
6
CONTINUOUS
10
0.274087
20
1.55759
11
0.274375
21
1.55829
0
LINE
8
BLACK
6
CONTINUOUS
10
0.274375
20
1.55829
11
0.275071
21
1.55857
0
LINE
8
BLACK
6
CONTINUOUS
10
0.275071
20
1.55857
11
0.408929
21
1.55857
0
LINE
8
BLACK
6
CONTINUOUS
10
0.408929
20
1.55857
11
0.409625
21
1.55829
0
LINE
8
BLACK
6
CONTINUOUS
10
0.409625
20
1.55829
11
0.409913
21
1.55759
0
LINE
8
BLACK
6
CONTINUOUS
10
0.409913
20
1.55759
11
0.409913
21
1.40641
0
LINE
8
BLACK
6
CONTINUOUS
10
0.409913
20
1.40641
11
0.409625
21
1.40571
0
LINE
8
BLACK
6
CONTINUOUS
10
0.409625
20
1.40571
11
0.408929
21
1.40543
0
LINE
8
BLACK
6
CONTINUOUS
10
0.408929
20
1.40543
11
0.275071
21
1.40543
0
LINE
8
BLACK
6
CONTINUOUS
10
0.275071
20
1.40543
11
0.274375
21
1.40571
0
LINE
8
BLACK
6
CONTINUOUS
10
0.276055
20
1.55661
11
0.276055
21
1.40739
0
LINE
8
BLACK
6
CONTINUOUS
10
0.276055
20
1.40739
11
0.407945
21
1.40739
0
LINE
8
BLACK
6
CONTINUOUS
10
0.407945
20
1.40739
11
0.407945
21
1.55661
0
LINE
8
BLACK
6
CONTINUOUS
10
0.407945
20
1.55661
11
0.276055
21
1.55661
0
LINE
8
BLACK
6
CONTINUOUS
10
1.19856
20
1.40704
11
1.19828
21
1.40773
0
LINE
8
BLACK
6
CONTINUOUS
10
1.19828
20
1.40773
11
1.19828
21
1.52427
0
LINE
8
BLACK
6
CONTINUOUS
10
1.19828
20
1.52427
11
1.19856
21
1.52496
0
LINE
8
BLACK
6
CONTINUOUS
10
1.19856
20
1.52496
11
1.19926
21
1.52525
0
LINE
8
BLACK
6
CONTINUOUS
10
1.19926
20
1.52525
11
1.25674
21
1.52525
0
LINE
8
BLACK
6
CONTINUOUS
10
1.25674
20
1.52525
11
1.25744
21
1.52496
0
LINE
8
BLACK
6
CONTINUOUS
10
1.25744
20
1.52496
11
1.25772
21
1.52427
0
LINE
8
BLACK
6
CONTINUOUS
10
1.25772
20
1.52427
11
1.25772
21
1.40773
0
LINE
8
BLACK
6
CONTINUOUS
10
1.25772
20
1.40773
11
1.25744
21
1.40704
0
LINE
8
BLACK
6
CONTINUOUS
10
1.25744
20
1.40704
11
1.25674
21
1.40675
0
LINE
8
BLACK
6
CONTINUOUS
10
1.25674
20
1.40675
11
1.19926
21
1.40675
0
LINE
8
BLACK
6
CONTINUOUS
10
1.19926
20
1.40675
11
1.19856
21
1.40704
0
LINE
8
BLACK
6
CONTINUOUS
10
1.20024
20
1.52328
11
1.20024
21
1.40872
0
LINE
8
BLACK
6
CONTINUOUS
10
1.20024
20
1.40872
11
1.25576
21
1.40872
0
LINE
8
BLACK
6
CONTINUOUS
10
1.25576
20
1.40872
11
1.25576
21
1.52328
0
LINE
8
BLACK
6
CONTINUOUS
10
1.25576
20
1.52328
11
1.20024
21
1.52328
0
LINE
8
BLACK
6
CONTINUOUS
10
0.422564
20
1.41304
11
0.422276
21
1.41373
0
LINE
8
BLACK
6
CONTINUOUS
10
0.422276
20
1.41373
11
0.422276
21
1.53027
0
LINE
8
BLACK
6
CONTINUOUS
10
0.422276
20
1.53027
11
0.422564
21
1.53096
0
LINE
8
BLACK
6
CONTINUOUS
10
0.422564
20
1.53096
11
0.42326
21
1.53125
0
LINE
8
BLACK
6
CONTINUOUS
10
0.42326
20
1.53125
11
0.48074
21
1.53125
0
LINE
8
BLACK
6
CONTINUOUS
10
0.48074
20
1.53125
11
0.481436
21
1.53096
0
LINE
8
BLACK
6
CONTINUOUS
10
0.481436
20
1.53096
11
0.481724
21
1.53027
0
LINE
8
BLACK
6
CONTINUOUS
10
0.481724
20
1.53027
11
0.481724
21
1.41373
0
LINE
8
BLACK
6
CONTINUOUS
10
0.481724
20
1.41373
11
0.481436
21
1.41304
0
LINE
8
BLACK
6
CONTINUOUS
10
0.481436
20
1.41304
11
0.48074
21
1.41275
0
LINE
8
BLACK
6
CONTINUOUS
10
0.48074
20
1.41275
11
0.42326
21
1.41275
0
LINE
8
BLACK
6
CONTINUOUS
10
0.42326
20
1.41275
11
0.422564
21
1.41304
0
LINE
8
BLACK
6
CONTINUOUS
10
0.424244
20
1.52928
11
0.424244
21
1.41472
0
LINE
8
BLACK
6
CONTINUOUS
10
0.424244
20
1.41472
11
0.479756
21
1.41472
0
LINE
8
BLACK
6
CONTINUOUS
10
0.479756
20
1.41472
11
0.479756
21
1.52928
0
LINE
8
BLACK
6
CONTINUOUS
10
0.479756
20
1.52928
11
0.424244
21
1.52928
0
LINE
8
BLACK
6
CONTINUOUS
10
0.777036
20
1.43856
11
0.776748
21
1.43926
0
LINE
8
BLACK
6
CONTINUOUS
10
0.776748
20
1.43926
11
0.776748
21
1.49674
0
LINE
8
BLACK
6
CONTINUOUS
10
0.776748
20
1.49674
11
0.777036
21
1.49744
0
LINE
8
BLACK
6
CONTINUOUS
10
0.777036
20
1.49744
11
0.777732
21
1.49772
0
LINE
8
BLACK
6
CONTINUOUS
10
0.777732
20
1.49772
11
0.894268
21
1.49772
0
LINE
8
BLACK
6
CONTINUOUS
10
0.894268
20
1.49772
11
0.894964
21
1.49744
0
LINE
8
BLACK
6
CONTINUOUS
10
0.894964
20
1.49744
11
0.895252
21
1.49674
0
LINE
8
BLACK
6
CONTINUOUS
10
0.895252
20
1.49674
11
0.895252
21
1.43926
0
LINE
8
BLACK
6
CONTINUOUS
10
0.895252
20
1.43926
11
0.894964
21
1.43856
0
LINE
8
BLACK
6
CONTINUOUS
10
0.894964
20
1.43856
11
0.894268
21
1.43828
0
LINE
8
BLACK
6
CONTINUOUS
10
0.894268
20
1.43828
11
0.777732
21
1.43828
0
LINE
8
BLACK
6
CONTINUOUS
10
0.777732
20
1.43828
11
0.777036
21
1.43856
0
LINE
8
BLACK
6
CONTINUOUS
10
0.778717
20
1.49576
11
0.778717
21
1.44024
0
LINE
8
BLACK
6
CONTINUOUS
10
0.778717
20
1.44024
11
0.893283
21
1.44024
0
LINE
8
BLACK
6
CONTINUOUS
10
0.893283
20
1.44024
11
0.893283
21
1.49576
0
LINE
8
BLACK
6
CONTINUOUS
10
0.893283
20
1.49576
11
0.778717
21
1.49576
0
LINE
8
BLACK
6
CONTINUOUS
10
0.921036
20
1.43856
11
0.920748
21
1.43926
0
LINE
8
BLACK
6
CONTINUOUS
10
0.920748
20
1.43926
11
0.920748
21
1.49674
0
LINE
8
BLACK
6
CONTINUOUS
10
0.920748
20
1.49674
11
0.921036
21
1.49744
0
LINE
8
BLACK
6
CONTINUOUS
10
0.921036
20
1.49744
11
0.921732
21
1.49772
0
LINE
8
BLACK
6
CONTINUOUS
10
0.921732
20
1.49772
11
1.03827
21
1.49772
0
LINE
8
BLACK
6
CONTINUOUS
10
1.03827
20
1.49772
11
1.03896
21
1.49744
0
LINE
8
BLACK
6
CONTINUOUS
10
1.03896
20
1.49744
11
1.03925
21
1.49674
0
LINE
8
BLACK
6
CONTINUOUS
10
1.03925
20
1.49674
11
1.03925
21
1.43926
0
LINE
8
BLACK
6
CONTINUOUS
10
1.03925
20
1.43926
11
1.03896
21
1.43856
0
LINE
8
BLACK
6
CONTINUOUS
10
1.03896
20
1.43856
11
1.03827
21
1.43828
0
LINE
8
BLACK
6
CONTINUOUS
10
1.03827
20
1.43828
11
0.921732
21
1.43828
0
LINE
8
BLACK
6
CONTINUOUS
10
0.921732
20
1.43828
11
0.921036
21
1.43856
0
LINE
8
BLACK
6
CONTINUOUS
10
0.922717
20
1.49576
11
0.922717
21
1.44024
0
LINE
8
BLACK
6
CONTINUOUS
10
0.922717
20
1.44024
11
1.03728
21
1.44024
0
LINE
8
BLACK
6
CONTINUOUS
10
1.03728
20
1.44024
11
1.03728
21
1.49576
0
LINE
8
BLACK
6
CONTINUOUS
10
1.03728
20
1.49576
11
0.922717
21
1.49576
0
LINE
8
BLACK
6
CONTINUOUS
10
1.06104
20
1.43856
11
1.06075
21
1.43926
0
LINE
8
BLACK
6
CONTINUOUS
10
1.06075
20
1.43926
11
1.06075
21
1.49674
0
LINE
8
BLACK
6
CONTINUOUS
10
1.06075
20
1.49674
11
1.06104
21
1.49744
0
LINE
8
BLACK
6
CONTINUOUS
10
1.06104
20
1.49744
11
1.06173
21
1.49772
0
LINE
8
BLACK
6
CONTINUOUS
10
1.06173
20
1.49772
11
1.17827
21
1.49772
0
LINE
8
BLACK
6
CONTINUOUS
10
1.17827
20
1.49772
11
1.17896
21
1.49744
0
LINE
8
BLACK
6
CONTINUOUS
10
1.17896
20
1.49744
11
1.17925
21
1.49674
0
LINE
8
BLACK
6
CONTINUOUS
10
1.17925
20
1.49674
11
1.17925
21
1.43926
0
LINE
8
BLACK
6
CONTINUOUS
10
1.17925
20
1.43926
11
1.17896
21
1.43856
0
LINE
8
BLACK
6
CONTINUOUS
10
1.17896
20
1.43856
11
1.17827
21
1.43828
0
LINE
8
BLACK
6
CONTINUOUS
10
1.17827
20
1.43828
11
1.06173
21
1.43828
0
LINE
8
BLACK
6
CONTINUOUS
10
1.06173
20
1.43828
11
1.06104
21
1.43856
0
LINE
8
BLACK
6
CONTINUOUS
10
1.06272
20
1.49576
11
1.06272
21
1.44024
0
LINE
8
BLACK
6
CONTINUOUS
10
1.06272
20
1.44024
11
1.17728
21
1.44024
0
LINE
8
BLACK
6
CONTINUOUS
10
1.17728
20
1.44024
11
1.17728
21
1.49576
0
LINE
8
BLACK
6
CONTINUOUS
10
1.17728
20
1.49576
11
1.06272
21
1.49576
0
LINE
8
BLACK
6
CONTINUOUS
10
0.566564
20
1.45052
11
0.566276
21
1.45122
0
LINE
8
BLACK
6
CONTINUOUS
10
0.566276
20
1.45122
11
0.566276
21
1.56776
0
LINE
8
BLACK
6
CONTINUOUS
10
0.566276
20
1.56776
11
0.566564
21
1.56845
0
LINE
8
BLACK
6
CONTINUOUS
10
0.566564
20
1.56845
11
0.56726
21
1.56874
0
LINE
8
BLACK
6
CONTINUOUS
10
0.56726
20
1.56874
11
0.62474
21
1.56874
0
LINE
8
BLACK
6
CONTINUOUS
10
0.62474
20
1.56874
11
0.625436
21
1.56845
0
LINE
8
BLACK
6
CONTINUOUS
10
0.625436
20
1.56845
11
0.625724
21
1.56776
0
LINE
8
BLACK
6
CONTINUOUS
10
0.625724
20
1.56776
11
0.625724
21
1.45122
0
LINE
8
BLACK
6
CONTINUOUS
10
0.625724
20
1.45122
11
0.625436
21
1.45052
0
LINE
8
BLACK
6
CONTINUOUS
10
0.625436
20
1.45052
11
0.62474
21
1.45024
0
LINE
8
BLACK
6
CONTINUOUS
10
0.62474
20
1.45024
11
0.56726
21
1.45024
0
LINE
8
BLACK
6
CONTINUOUS
10
0.56726
20
1.45024
11
0.566564
21
1.45052
0
LINE
8
BLACK
6
CONTINUOUS
10
0.568244
20
1.56677
11
0.568244
21
1.4522
0
LINE
8
BLACK
6
CONTINUOUS
10
0.568244
20
1.4522
11
0.623756
21
1.4522
0
LINE
8
BLACK
6
CONTINUOUS
10
0.623756
20
1.4522
11
0.623756
21
1.56677
0
LINE
8
BLACK
6
CONTINUOUS
10
0.623756
20
1.56677
11
0.568244
21
1.56677
0
LINE
8
BLACK
6
CONTINUOUS
10
2.97694
20
0.346942
11
2.97665
21
0.347638
0
LINE
8
BLACK
6
CONTINUOUS
10
2.97665
20
0.347638
11
2.97665
21
0.552362
0
LINE
8
BLACK
6
CONTINUOUS
10
2.97665
20
0.552362
11
2.97694
21
0.553058
0
LINE
8
BLACK
6
CONTINUOUS
10
2.97694
20
0.553058
11
2.97764
21
0.553346
0
LINE
8
BLACK
6
CONTINUOUS
10
2.97764
20
0.553346
11
3.18236
21
0.553346
0
LINE
8
BLACK
6
CONTINUOUS
10
3.18236
20
0.553346
11
3.18306
21
0.553058
0
LINE
8
BLACK
6
CONTINUOUS
10
3.18306
20
0.553058
11
3.18335
21
0.552362
0
LINE
8
BLACK
6
CONTINUOUS
10
3.18335
20
0.552362
11
3.18335
21
0.347638
0
LINE
8
BLACK
6
CONTINUOUS
10
3.18335
20
0.347638
11
3.18306
21
0.346942
0
LINE
8
BLACK
6
CONTINUOUS
10
3.18306
20
0.346942
11
3.18236
21
0.346654
0
LINE
8
BLACK
6
CONTINUOUS
10
3.18236
20
0.346654
11
2.97764
21
0.346654
0
LINE
8
BLACK
6
CONTINUOUS
10
2.97764
20
0.346654
11
2.97694
21
0.346942
0
LINE
8
BLACK
6
CONTINUOUS
10
2.97862
20
0.551378
11
2.97862
21
0.348622
0
LINE
8
BLACK
6
CONTINUOUS
10
2.97862
20
0.348622
11
3.18138
21
0.348622
0
LINE
8
BLACK
6
CONTINUOUS
10
3.18138
20
0.348622
11
3.18138
21
0.551378
0
LINE
8
BLACK
6
CONTINUOUS
10
3.18138
20
0.551378
11
2.97862
21
0.551378
0
LINE
8
BLACK
6
CONTINUOUS
10
1.98104
20
0.350564
11
1.98075
21
0.35126
0
LINE
8
BLACK
6
CONTINUOUS
10
1.98075
20
0.35126
11
1.98075
21
0.40874
0
LINE
8
BLACK
6
CONTINUOUS
10
1.98075
20
0.40874
11
1.98104
21
0.409436
0
LINE
8
BLACK
6
CONTINUOUS
10
1.98104
20
0.409436
11
1.98173
21
0.409724
0
LINE
8
BLACK
6
CONTINUOUS
10
1.98173
20
0.409724
11
2.09827
21
0.409724
0
LINE
8
BLACK
6
CONTINUOUS
10
2.09827
20
0.409724
11
2.09896
21
0.409436
0
LINE
8
BLACK
6
CONTINUOUS
10
2.09896
20
0.409436
11
2.09925
21
0.40874
0
LINE
8
BLACK
6
CONTINUOUS
10
2.09925
20
0.40874
11
2.09925
21
0.35126
0
LINE
8
BLACK
6
CONTINUOUS
10
2.09925
20
0.35126
11
2.09896
21
0.350564
0
LINE
8
BLACK
6
CONTINUOUS
10
2.09896
20
0.350564
11
2.09827
21
0.350276
0
LINE
8
BLACK
6
CONTINUOUS
10
2.09827
20
0.350276
11
1.98173
21
0.350276
0
LINE
8
BLACK
6
CONTINUOUS
10
1.98173
20
0.350276
11
1.98104
21
0.350564
0
LINE
8
BLACK
6
CONTINUOUS
10
1.98272
20
0.407756
11
1.98272
21
0.352244
0
LINE
8
BLACK
6
CONTINUOUS
10
1.98272
20
0.352244
11
2.09728
21
0.352244
0
LINE
8
BLACK
6
CONTINUOUS
10
2.09728
20
0.352244
11
2.09728
21
0.407756
0
LINE
8
BLACK
6
CONTINUOUS
10
2.09728
20
0.407756
11
1.98272
21
0.407756
0
LINE
8
BLACK
6
CONTINUOUS
10
2.65425
20
0.37626
11
2.65396
21
0.375564
0
LINE
8
BLACK
6
CONTINUOUS
10
2.65396
20
0.375564
11
2.65327
21
0.375276
0
LINE
8
BLACK
6
CONTINUOUS
10
2.65327
20
0.375276
11
2.53673
21
0.375276
0
LINE
8
BLACK
6
CONTINUOUS
10
2.53673
20
0.375276
11
2.53604
21
0.375564
0
LINE
8
BLACK
6
CONTINUOUS
10
2.53604
20
0.375564
11
2.53575
21
0.37626
0
LINE
8
BLACK
6
CONTINUOUS
10
2.53575
20
0.37626
11
2.53575
21
0.43374
0
LINE
8
BLACK
6
CONTINUOUS
10
2.53575
20
0.43374
11
2.53604
21
0.434436
0
LINE
8
BLACK
6
CONTINUOUS
10
2.53604
20
0.434436
11
2.53673
21
0.434724
0
LINE
8
BLACK
6
CONTINUOUS
10
2.53673
20
0.434724
11
2.62075
21
0.434724
0
LINE
8
BLACK
6
CONTINUOUS
10
2.62075
20
0.434724
11
2.62075
21
0.47874
0
LINE
8
BLACK
6
CONTINUOUS
10
2.62075
20
0.47874
11
2.62104
21
0.479436
0
LINE
8
BLACK
6
CONTINUOUS
10
2.62104
20
0.479436
11
2.62173
21
0.479724
0
LINE
8
BLACK
6
CONTINUOUS
10
2.62173
20
0.479724
11
2.73827
21
0.479724
0
LINE
8
BLACK
6
CONTINUOUS
10
2.73827
20
0.479724
11
2.73896
21
0.479436
0
LINE
8
BLACK
6
CONTINUOUS
10
2.73896
20
0.479436
11
2.73925
21
0.47874
0
LINE
8
BLACK
6
CONTINUOUS
10
2.73925
20
0.47874
11
2.73925
21
0.42126
0
LINE
8
BLACK
6
CONTINUOUS
10
2.73925
20
0.42126
11
2.73896
21
0.420564
0
LINE
8
BLACK
6
CONTINUOUS
10
2.73896
20
0.420564
11
2.73827
21
0.420276
0
LINE
8
BLACK
6
CONTINUOUS
10
2.73827
20
0.420276
11
2.65425
21
0.420276
0
LINE
8
BLACK
6
CONTINUOUS
10
2.65425
20
0.420276
11
2.65425
21
0.37626
0
LINE
8
BLACK
6
CONTINUOUS
10
2.53772
20
0.432756
11
2.53772
21
0.377244
0
LINE
8
BLACK
6
CONTINUOUS
10
2.53772
20
0.377244
11
2.65228
21
0.377244
0
LINE
8
BLACK
6
CONTINUOUS
10
2.65228
20
0.377244
11
2.65228
21
0.420276
0
LINE
8
BLACK
6
CONTINUOUS
10
2.65228
20
0.420276
11
2.62173
21
0.420276
0
LINE
8
BLACK
6
CONTINUOUS
10
2.62173
20
0.420276
11
2.62104
21
0.420564
0
LINE
8
BLACK
6
CONTINUOUS
10
2.62104
20
0.420564
11
2.62075
21
0.42126
0
LINE
8
BLACK
6
CONTINUOUS
10
2.62075
20
0.42126
11
2.62075
21
0.432756
0
LINE
8
BLACK
6
CONTINUOUS
10
2.62075
20
0.432756
11
2.53772
21
0.432756
0
LINE
8
BLACK
6
CONTINUOUS
10
2.62272
20
0.432756
11
2.62272
21
0.422244
0
LINE
8
BLACK
6
CONTINUOUS
10
2.62272
20
0.422244
11
2.65228
21
0.422244
0
LINE
8
BLACK
6
CONTINUOUS
10
2.65228
20
0.422244
11
2.65228
21
0.432756
0
LINE
8
BLACK
6
CONTINUOUS
10
2.65228
20
0.432756
11
2.62272
21
0.432756
0
LINE
8
BLACK
6
CONTINUOUS
10
2.65425
20
0.43374
11
2.65425
21
0.422244
0
LINE
8
BLACK
6
CONTINUOUS
10
2.65425
20
0.422244
11
2.73728
21
0.422244
0
LINE
8
BLACK
6
CONTINUOUS
10
2.73728
20
0.422244
11
2.73728
21
0.477756
0
LINE
8
BLACK
6
CONTINUOUS
10
2.73728
20
0.477756
11
2.62272
21
0.477756
0
LINE
8
BLACK
6
CONTINUOUS
10
2.62272
20
0.477756
11
2.62272
21
0.434724
0
LINE
8
BLACK
6
CONTINUOUS
10
2.62272
20
0.434724
11
2.65327
21
0.434724
0
LINE
8
BLACK
6
CONTINUOUS
10
2.65327
20
0.434724
11
2.65396
21
0.434436
0
LINE
8
BLACK
6
CONTINUOUS
10
2.65396
20
0.434436
11
2.65425
21
0.43374
0
LINE
8
BLACK
6
CONTINUOUS
10
2.83007
20
0.466863
11
2.82978
21
0.467559
0
LINE
8
BLACK
6
CONTINUOUS
10
2.82978
20
0.467559
11
2.82978
21
0.525039
0
LINE
8
BLACK
6
CONTINUOUS
10
2.82978
20
0.525039
11
2.83007
21
0.525735
0
LINE
8
BLACK
6
CONTINUOUS
10
2.83007
20
0.525735
11
2.83077
21
0.526024
0
LINE
8
BLACK
6
CONTINUOUS
10
2.83077
20
0.526024
11
2.9473
21
0.526024
0
LINE
8
BLACK
6
CONTINUOUS
10
2.9473
20
0.526024
11
2.948
21
0.525735
0
LINE
8
BLACK
6
CONTINUOUS
10
2.948
20
0.525735
11
2.94829
21
0.525039
0
LINE
8
BLACK
6
CONTINUOUS
10
2.94829
20
0.525039
11
2.94829
21
0.467559
0
LINE
8
BLACK
6
CONTINUOUS
10
2.94829
20
0.467559
11
2.948
21
0.466863
0
LINE
8
BLACK
6
CONTINUOUS
10
2.948
20
0.466863
11
2.9473
21
0.466575
0
LINE
8
BLACK
6
CONTINUOUS
10
2.9473
20
0.466575
11
2.83077
21
0.466575
0
LINE
8
BLACK
6
CONTINUOUS
10
2.83077
20
0.466575
11
2.83007
21
0.466863
0
LINE
8
BLACK
6
CONTINUOUS
10
2.83175
20
0.524055
11
2.83175
21
0.468543
0
LINE
8
BLACK
6
CONTINUOUS
10
2.83175
20
0.468543
11
2.94632
21
0.468543
0
LINE
8
BLACK
6
CONTINUOUS
10
2.94632
20
0.468543
11
2.94632
21
0.524055
0
LINE
8
BLACK
6
CONTINUOUS
10
2.94632
20
0.524055
11
2.83175
21
0.524055
0
LINE
8
BLACK
6
CONTINUOUS
10
2.82007
20
0.536863
11
2.81978
21
0.537559
0
LINE
8
BLACK
6
CONTINUOUS
10
2.81978
20
0.537559
11
2.81978
21
0.595039
0
LINE
8
BLACK
6
CONTINUOUS
10
2.81978
20
0.595039
11
2.82007
21
0.595735
0
LINE
8
BLACK
6
CONTINUOUS
10
2.82007
20
0.595735
11
2.82077
21
0.596024
0
LINE
8
BLACK
6
CONTINUOUS
10
2.82077
20
0.596024
11
2.9373
21
0.596024
0
LINE
8
BLACK
6
CONTINUOUS
10
2.9373
20
0.596024
11
2.938
21
0.595735
0
LINE
8
BLACK
6
CONTINUOUS
10
2.938
20
0.595735
11
2.93829
21
0.595039
0
LINE
8
BLACK
6
CONTINUOUS
10
2.93829
20
0.595039
11
2.93829
21
0.537559
0
LINE
8
BLACK
6
CONTINUOUS
10
2.93829
20
0.537559
11
2.938
21
0.536863
0
LINE
8
BLACK
6
CONTINUOUS
10
2.938
20
0.536863
11
2.9373
21
0.536575
0
LINE
8
BLACK
6
CONTINUOUS
10
2.9373
20
0.536575
11
2.82077
21
0.536575
0
LINE
8
BLACK
6
CONTINUOUS
10
2.82077
20
0.536575
11
2.82007
21
0.536863
0
LINE
8
BLACK
6
CONTINUOUS
10
2.82175
20
0.594055
11
2.82175
21
0.538543
0
LINE
8
BLACK
6
CONTINUOUS
10
2.82175
20
0.538543
11
2.93632
21
0.538543
0
LINE
8
BLACK
6
CONTINUOUS
10
2.93632
20
0.538543
11
2.93632
21
0.594055
0
LINE
8
BLACK
6
CONTINUOUS
10
2.93632
20
0.594055
11
2.82175
21
0.594055
0
LINE
8
BLACK
6
CONTINUOUS
10
3.02007
20
0.576863
11
3.01978
21
0.577559
0
LINE
8
BLACK
6
CONTINUOUS
10
3.01978
20
0.577559
11
3.01978
21
0.635039
0
LINE
8
BLACK
6
CONTINUOUS
10
3.01978
20
0.635039
11
3.02007
21
0.635735
0
LINE
8
BLACK
6
CONTINUOUS
10
3.02007
20
0.635735
11
3.02077
21
0.636024
0
LINE
8
BLACK
6
CONTINUOUS
10
3.02077
20
0.636024
11
3.1373
21
0.636024
0
LINE
8
BLACK
6
CONTINUOUS
10
3.1373
20
0.636024
11
3.138
21
0.635735
0
LINE
8
BLACK
6
CONTINUOUS
10
3.138
20
0.635735
11
3.13829
21
0.635039
0
LINE
8
BLACK
6
CONTINUOUS
10
3.13829
20
0.635039
11
3.13829
21
0.577559
0
LINE
8
BLACK
6
CONTINUOUS
10
3.13829
20
0.577559
11
3.138
21
0.576863
0
LINE
8
BLACK
6
CONTINUOUS
10
3.138
20
0.576863
11
3.1373
21
0.576575
0
LINE
8
BLACK
6
CONTINUOUS
10
3.1373
20
0.576575
11
3.02077
21
0.576575
0
LINE
8
BLACK
6
CONTINUOUS
10
3.02077
20
0.576575
11
3.02007
21
0.576863
0
LINE
8
BLACK
6
CONTINUOUS
10
3.02175
20
0.634055
11
3.02175
21
0.578543
0
LINE
8
BLACK
6
CONTINUOUS
10
3.02175
20
0.578543
11
3.13632
21
0.578543
0
LINE
8
BLACK
6
CONTINUOUS
10
3.13632
20
0.578543
11
3.13632
21
0.634055
0
LINE
8
BLACK
6
CONTINUOUS
10
3.13632
20
0.634055
11
3.02175
21
0.634055
0
LINE
8
BLACK
6
CONTINUOUS
10
1.65812
20
0.587375
11
1.65783
21
0.588071
0
LINE
8
BLACK
6
CONTINUOUS
10
1.65783
20
0.588071
11
1.65783
21
0.721929
0
LINE
8
BLACK
6
CONTINUOUS
10
1.65783
20
0.721929
11
1.65812
21
0.722625
0
LINE
8
BLACK
6
CONTINUOUS
10
1.65812
20
0.722625
11
1.65882
21
0.722913
0
LINE
8
BLACK
6
CONTINUOUS
10
1.65882
20
0.722913
11
1.81
21
0.722913
0
LINE
8
BLACK
6
CONTINUOUS
10
1.81
20
0.722913
11
1.8107
21
0.722625
0
LINE
8
BLACK
6
CONTINUOUS
10
1.8107
20
0.722625
11
1.81098
21
0.721929
0
LINE
8
BLACK
6
CONTINUOUS
10
1.81098
20
0.721929
11
1.81098
21
0.588071
0
LINE
8
BLACK
6
CONTINUOUS
10
1.81098
20
0.588071
11
1.8107
21
0.587375
0
LINE
8
BLACK
6
CONTINUOUS
10
1.8107
20
0.587375
11
1.81
21
0.587087
0
LINE
8
BLACK
6
CONTINUOUS
10
1.81
20
0.587087
11
1.65882
21
0.587087
0
LINE
8
BLACK
6
CONTINUOUS
10
1.65882
20
0.587087
11
1.65812
21
0.587375
0
LINE
8
BLACK
6
CONTINUOUS
10
1.6598
20
0.720945
11
1.6598
21
0.589055
0
LINE
8
BLACK
6
CONTINUOUS
10
1.6598
20
0.589055
11
1.80902
21
0.589055
0
LINE
8
BLACK
6
CONTINUOUS
10
1.80902
20
0.589055
11
1.80902
21
0.720945
0
LINE
8
BLACK
6
CONTINUOUS
10
1.80902
20
0.720945
11
1.6598
21
0.720945
0
LINE
8
BLACK
6
CONTINUOUS
10
2.86806
20
0.616036
11
2.86778
21
0.616732
0
LINE
8
BLACK
6
CONTINUOUS
10
2.86778
20
0.616732
11
2.86778
21
0.733268
0
LINE
8
BLACK
6
CONTINUOUS
10
2.86778
20
0.733268
11
2.86806
21
0.733964
0
LINE
8
BLACK
6
CONTINUOUS
10
2.86806
20
0.733964
11
2.86876
21
0.734252
0
LINE
8
BLACK
6
CONTINUOUS
10
2.86876
20
0.734252
11
2.92624
21
0.734252
0
LINE
8
BLACK
6
CONTINUOUS
10
2.92624
20
0.734252
11
2.92694
21
0.733964
0
LINE
8
BLACK
6
CONTINUOUS
10
2.92694
20
0.733964
11
2.92722
21
0.733268
0
LINE
8
BLACK
6
CONTINUOUS
10
2.92722
20
0.733268
11
2.92722
21
0.616732
0
LINE
8
BLACK
6
CONTINUOUS
10
2.92722
20
0.616732
11
2.92694
21
0.616036
0
LINE
8
BLACK
6
CONTINUOUS
10
2.92694
20
0.616036
11
2.92624
21
0.615748
0
LINE
8
BLACK
6
CONTINUOUS
10
2.92624
20
0.615748
11
2.86876
21
0.615748
0
LINE
8
BLACK
6
CONTINUOUS
10
2.86876
20
0.615748
11
2.86806
21
0.616036
0
LINE
8
BLACK
6
CONTINUOUS
10
2.86974
20
0.732283
11
2.86974
21
0.617717
0
LINE
8
BLACK
6
CONTINUOUS
10
2.86974
20
0.617717
11
2.92526
21
0.617717
0
LINE
8
BLACK
6
CONTINUOUS
10
2.92526
20
0.617717
11
2.92526
21
0.732283
0
LINE
8
BLACK
6
CONTINUOUS
10
2.92526
20
0.732283
11
2.86974
21
0.732283
0
LINE
8
BLACK
6
CONTINUOUS
10
2.84722
20
0.733268
11
2.84722
21
0.616732
0
LINE
8
BLACK
6
CONTINUOUS
10
2.84722
20
0.616732
11
2.84694
21
0.616036
0
LINE
8
BLACK
6
CONTINUOUS
10
2.84694
20
0.616036
11
2.84624
21
0.615748
0
LINE
8
BLACK
6
CONTINUOUS
10
2.84624
20
0.615748
11
2.78876
21
0.615748
0
LINE
8
BLACK
6
CONTINUOUS
10
2.78876
20
0.615748
11
2.78806
21
0.616036
0
LINE
8
BLACK
6
CONTINUOUS
10
2.78806
20
0.616036
11
2.78778
21
0.616732
0
LINE
8
BLACK
6
CONTINUOUS
10
2.78778
20
0.616732
11
2.78778
21
0.727087
0
LINE
8
BLACK
6
CONTINUOUS
10
2.78778
20
0.727087
11
2.62679
21
0.727087
0
LINE
8
BLACK
6
CONTINUOUS
10
2.62679
20
0.727087
11
2.6261
21
0.727375
0
LINE
8
BLACK
6
CONTINUOUS
10
2.6261
20
0.727375
11
2.62581
21
0.728071
0
LINE
8
BLACK
6
CONTINUOUS
10
2.62581
20
0.728071
11
2.62581
21
0.861929
0
LINE
8
BLACK
6
CONTINUOUS
10
2.62581
20
0.861929
11
2.6261
21
0.862625
0
LINE
8
BLACK
6
CONTINUOUS
10
2.6261
20
0.862625
11
2.62679
21
0.862913
0
LINE
8
BLACK
6
CONTINUOUS
10
2.62679
20
0.862913
11
2.78821
21
0.862913
0
LINE
8
BLACK
6
CONTINUOUS
10
2.78821
20
0.862913
11
2.7889
21
0.862625
0
LINE
8
BLACK
6
CONTINUOUS
10
2.7889
20
0.862625
11
2.78919
21
0.861929
0
LINE
8
BLACK
6
CONTINUOUS
10
2.78919
20
0.861929
11
2.78919
21
0.734252
0
LINE
8
BLACK
6
CONTINUOUS
10
2.78919
20
0.734252
11
2.84624
21
0.734252
0
LINE
8
BLACK
6
CONTINUOUS
10
2.84624
20
0.734252
11
2.84694
21
0.733964
0
LINE
8
BLACK
6
CONTINUOUS
10
2.84694
20
0.733964
11
2.84722
21
0.733268
0
LINE
8
BLACK
6
CONTINUOUS
10
2.78974
20
0.732283
11
2.78974
21
0.617717
0
LINE
8
BLACK
6
CONTINUOUS
10
2.78974
20
0.617717
11
2.84526
21
0.617717
0
LINE
8
BLACK
6
CONTINUOUS
10
2.84526
20
0.617717
11
2.84526
21
0.732283
0
LINE
8
BLACK
6
CONTINUOUS
10
2.84526
20
0.732283
11
2.78974
21
0.732283
0
LINE
8
BLACK
6
CONTINUOUS
10
2.62778
20
0.860945
11
2.62778
21
0.729055
0
LINE
8
BLACK
6
CONTINUOUS
10
2.62778
20
0.729055
11
2.78722
21
0.729055
0
LINE
8
BLACK
6
CONTINUOUS
10
2.78722
20
0.729055
11
2.78722
21
0.860945
0
LINE
8
BLACK
6
CONTINUOUS
10
2.78722
20
0.860945
11
2.62778
21
0.860945
0
LINE
8
BLACK
6
CONTINUOUS
10
2.46122
20
0.643976
11
2.46093
21
0.64328
0
LINE
8
BLACK
6
CONTINUOUS
10
2.46093
20
0.64328
11
2.46024
21
0.642992
0
LINE
8
BLACK
6
CONTINUOUS
10
2.46024
20
0.642992
11
2.3437
21
0.642992
0
LINE
8
BLACK
6
CONTINUOUS
10
2.3437
20
0.642992
11
2.343
21
0.64328
0
LINE
8
BLACK
6
CONTINUOUS
10
2.343
20
0.64328
11
2.34272
21
0.643976
0
LINE
8
BLACK
6
CONTINUOUS
10
2.34272
20
0.643976
11
2.34272
21
0.697717
0
LINE
8
BLACK
6
CONTINUOUS
10
2.34272
20
0.697717
11
2.23183
21
0.697717
0
LINE
8
BLACK
6
CONTINUOUS
10
2.23183
20
0.697717
11
2.23113
21
0.698005
0
LINE
8
BLACK
6
CONTINUOUS
10
2.23113
20
0.698005
11
2.23085
21
0.698701
0
LINE
8
BLACK
6
CONTINUOUS
10
2.23085
20
0.698701
11
2.23085
21
0.911299
0
LINE
8
BLACK
6
CONTINUOUS
10
2.23085
20
0.911299
11
2.23113
21
0.911995
0
LINE
8
BLACK
6
CONTINUOUS
10
2.23113
20
0.911995
11
2.23183
21
0.912283
0
LINE
8
BLACK
6
CONTINUOUS
10
2.23183
20
0.912283
11
2.52317
21
0.912283
0
LINE
8
BLACK
6
CONTINUOUS
10
2.52317
20
0.912283
11
2.52387
21
0.911995
0
LINE
8
BLACK
6
CONTINUOUS
10
2.52387
20
0.911995
11
2.52415
21
0.911299
0
LINE
8
BLACK
6
CONTINUOUS
10
2.52415
20
0.911299
11
2.52415
21
0.698701
0
LINE
8
BLACK
6
CONTINUOUS
10
2.52415
20
0.698701
11
2.52387
21
0.698005
0
LINE
8
BLACK
6
CONTINUOUS
10
2.52387
20
0.698005
11
2.52317
21
0.697717
0
LINE
8
BLACK
6
CONTINUOUS
10
2.52317
20
0.697717
11
2.46122
21
0.697717
0
LINE
8
BLACK
6
CONTINUOUS
10
2.46122
20
0.697717
11
2.46122
21
0.643976
0
LINE
8
BLACK
6
CONTINUOUS
10
2.34468
20
0.697717
11
2.34468
21
0.644961
0
LINE
8
BLACK
6
CONTINUOUS
10
2.34468
20
0.644961
11
2.45925
21
0.644961
0
LINE
8
BLACK
6
CONTINUOUS
10
2.45925
20
0.644961
11
2.45925
21
0.697717
0
LINE
8
BLACK
6
CONTINUOUS
10
2.45925
20
0.697717
11
2.34468
21
0.697717
0
LINE
8
BLACK
6
CONTINUOUS
10
2.46122
20
0.701457
11
2.46122
21
0.699685
0
LINE
8
BLACK
6
CONTINUOUS
10
2.46122
20
0.699685
11
2.52219
21
0.699685
0
LINE
8
BLACK
6
CONTINUOUS
10
2.52219
20
0.699685
11
2.52219
21
0.910315
0
LINE
8
BLACK
6
CONTINUOUS
10
2.52219
20
0.910315
11
2.23281
21
0.910315
0
LINE
8
BLACK
6
CONTINUOUS
10
2.23281
20
0.910315
11
2.23281
21
0.699685
0
LINE
8
BLACK
6
CONTINUOUS
10
2.23281
20
0.699685
11
2.34272
21
0.699685
0
LINE
8
BLACK
6
CONTINUOUS
10
2.34272
20
0.699685
11
2.34272
21
0.701457
0
LINE
8
BLACK
6
CONTINUOUS
10
2.34272
20
0.701457
11
2.343
21
0.702153
0
LINE
8
BLACK
6
CONTINUOUS
10
2.343
20
0.702153
11
2.3437
21
0.702441
0
LINE
8
BLACK
6
CONTINUOUS
10
2.3437
20
0.702441
11
2.46024
21
0.702441
0
LINE
8
BLACK
6
CONTINUOUS
10
2.46024
20
0.702441
11
2.46093
21
0.702153
0
LINE
8
BLACK
6
CONTINUOUS
10
2.46093
20
0.702153
11
2.46122
21
0.701457
0
LINE
8
BLACK
6
CONTINUOUS
10
2.34468
20
0.700472
11
2.34468
21
0.699685
0
LINE
8
BLACK
6
CONTINUOUS
10
2.34468
20
0.699685
11
2.45925
21
0.699685
0
LINE
8
BLACK
6
CONTINUOUS
10
2.45925
20
0.699685
11
2.45925
21
0.700472
0
LINE
8
BLACK
6
CONTINUOUS
10
2.45925
20
0.700472
11
2.34468
21
0.700472
0
LINE
8
BLACK
6
CONTINUOUS
10
3.33332
20
0.693871
11
3.33303
21
0.694567
0
LINE
8
BLACK
6
CONTINUOUS
10
3.33303
20
0.694567
11
3.33303
21
1.16543
0
LINE
8
BLACK
6
CONTINUOUS
10
3.33303
20
1.16543
11
3.33332
21
1.16613
0
LINE
8
BLACK
6
CONTINUOUS
10
3.33332
20
1.16613
11
3.33402
21
1.16642
0
LINE
8
BLACK
6
CONTINUOUS
10
3.33402
20
1.16642
11
3.58598
21
1.16642
0
LINE
8
BLACK
6
CONTINUOUS
10
3.58598
20
1.16642
11
3.58668
21
1.16613
0
LINE
8
BLACK
6
CONTINUOUS
10
3.58668
20
1.16613
11
3.58697
21
1.16543
0
LINE
8
BLACK
6
CONTINUOUS
10
3.58697
20
1.16543
11
3.58697
21
0.694567
0
LINE
8
BLACK
6
CONTINUOUS
10
3.58697
20
0.694567
11
3.58668
21
0.693871
0
LINE
8
BLACK
6
CONTINUOUS
10
3.58668
20
0.693871
11
3.58598
21
0.693583
0
LINE
8
BLACK
6
CONTINUOUS
10
3.58598
20
0.693583
11
3.33402
21
0.693583
0
LINE
8
BLACK
6
CONTINUOUS
10
3.33402
20
0.693583
11
3.33332
21
0.693871
0
LINE
8
BLACK
6
CONTINUOUS
10
3.335
20
1.16445
11
3.335
21
0.695551
0
LINE
8
BLACK
6
CONTINUOUS
10
3.335
20
0.695551
11
3.585
21
0.695551
0
LINE
8
BLACK
6
CONTINUOUS
10
3.585
20
0.695551
11
3.585
21
1.16445
0
LINE
8
BLACK
6
CONTINUOUS
10
3.585
20
1.16445
11
3.335
21
1.16445
0
LINE
8
BLACK
6
CONTINUOUS
10
3.07104
20
0.720564
11
3.07075
21
0.72126
0
LINE
8
BLACK
6
CONTINUOUS
10
3.07075
20
0.72126
11
3.07075
21
0.77874
0
LINE
8
BLACK
6
CONTINUOUS
10
3.07075
20
0.77874
11
3.07104
21
0.779436
0
LINE
8
BLACK
6
CONTINUOUS
10
3.07104
20
0.779436
11
3.07173
21
0.779724
0
LINE
8
BLACK
6
CONTINUOUS
10
3.07173
20
0.779724
11
3.18827
21
0.779724
0
LINE
8
BLACK
6
CONTINUOUS
10
3.18827
20
0.779724
11
3.18896
21
0.779436
0
LINE
8
BLACK
6
CONTINUOUS
10
3.18896
20
0.779436
11
3.18925
21
0.77874
0
LINE
8
BLACK
6
CONTINUOUS
10
3.18925
20
0.77874
11
3.18925
21
0.72126
0
LINE
8
BLACK
6
CONTINUOUS
10
3.18925
20
0.72126
11
3.18896
21
0.720564
0
LINE
8
BLACK
6
CONTINUOUS
10
3.18896
20
0.720564
11
3.18827
21
0.720276
0
LINE
8
BLACK
6
CONTINUOUS
10
3.18827
20
0.720276
11
3.07173
21
0.720276
0
LINE
8
BLACK
6
CONTINUOUS
10
3.07173
20
0.720276
11
3.07104
21
0.720564
0
LINE
8
BLACK
6
CONTINUOUS
10
3.07272
20
0.777756
11
3.07272
21
0.722244
0
LINE
8
BLACK
6
CONTINUOUS
10
3.07272
20
0.722244
11
3.18728
21
0.722244
0
LINE
8
BLACK
6
CONTINUOUS
10
3.18728
20
0.722244
11
3.18728
21
0.777756
0
LINE
8
BLACK
6
CONTINUOUS
10
3.18728
20
0.777756
11
3.07272
21
0.777756
0
LINE
8
BLACK
6
CONTINUOUS
10
1.66854
20
0.755564
11
1.66825
21
0.75626
0
LINE
8
BLACK
6
CONTINUOUS
10
1.66825
20
0.75626
11
1.66825
21
0.81374
0
LINE
8
BLACK
6
CONTINUOUS
10
1.66825
20
0.81374
11
1.66854
21
0.814436
0
LINE
8
BLACK
6
CONTINUOUS
10
1.66854
20
0.814436
11
1.66923
21
0.814724
0
LINE
8
BLACK
6
CONTINUOUS
10
1.66923
20
0.814724
11
1.78577
21
0.814724
0
LINE
8
BLACK
6
CONTINUOUS
10
1.78577
20
0.814724
11
1.78646
21
0.814436
0
LINE
8
BLACK
6
CONTINUOUS
10
1.78646
20
0.814436
11
1.78675
21
0.81374
0
LINE
8
BLACK
6
CONTINUOUS
10
1.78675
20
0.81374
11
1.78675
21
0.75626
0
LINE
8
BLACK
6
CONTINUOUS
10
1.78675
20
0.75626
11
1.78646
21
0.755564
0
LINE
8
BLACK
6
CONTINUOUS
10
1.78646
20
0.755564
11
1.78577
21
0.755276
0
LINE
8
BLACK
6
CONTINUOUS
10
1.78577
20
0.755276
11
1.66923
21
0.755276
0
LINE
8
BLACK
6
CONTINUOUS
10
1.66923
20
0.755276
11
1.66854
21
0.755564
0
LINE
8
BLACK
6
CONTINUOUS
10
1.67022
20
0.812756
11
1.67022
21
0.757244
0
LINE
8
BLACK
6
CONTINUOUS
10
1.67022
20
0.757244
11
1.78478
21
0.757244
0
LINE
8
BLACK
6
CONTINUOUS
10
1.78478
20
0.757244
11
1.78478
21
0.812756
0
LINE
8
BLACK
6
CONTINUOUS
10
1.78478
20
0.812756
11
1.67022
21
0.812756
0
LINE
8
BLACK
6
CONTINUOUS
10
2.79806
20
0.766036
11
2.79778
21
0.766732
0
LINE
8
BLACK
6
CONTINUOUS
10
2.79778
20
0.766732
11
2.79778
21
0.883268
0
LINE
8
BLACK
6
CONTINUOUS
10
2.79778
20
0.883268
11
2.79806
21
0.883964
0
LINE
8
BLACK
6
CONTINUOUS
10
2.79806
20
0.883964
11
2.79876
21
0.884252
0
LINE
8
BLACK
6
CONTINUOUS
10
2.79876
20
0.884252
11
2.85624
21
0.884252
0
LINE
8
BLACK
6
CONTINUOUS
10
2.85624
20
0.884252
11
2.85694
21
0.883964
0
LINE
8
BLACK
6
CONTINUOUS
10
2.85694
20
0.883964
11
2.85722
21
0.883268
0
LINE
8
BLACK
6
CONTINUOUS
10
2.85722
20
0.883268
11
2.85722
21
0.766732
0
LINE
8
BLACK
6
CONTINUOUS
10
2.85722
20
0.766732
11
2.85694
21
0.766036
0
LINE
8
BLACK
6
CONTINUOUS
10
2.85694
20
0.766036
11
2.85624
21
0.765748
0
LINE
8
BLACK
6
CONTINUOUS
10
2.85624
20
0.765748
11
2.79876
21
0.765748
0
LINE
8
BLACK
6
CONTINUOUS
10
2.79876
20
0.765748
11
2.79806
21
0.766036
0
LINE
8
BLACK
6
CONTINUOUS
10
2.79974
20
0.882283
11
2.79974
21
0.767717
0
LINE
8
BLACK
6
CONTINUOUS
10
2.79974
20
0.767717
11
2.85526
21
0.767717
0
LINE
8
BLACK
6
CONTINUOUS
10
2.85526
20
0.767717
11
2.85526
21
0.882283
0
LINE
8
BLACK
6
CONTINUOUS
10
2.85526
20
0.882283
11
2.79974
21
0.882283
0
LINE
8
BLACK
6
CONTINUOUS
10
2.87806
20
0.766036
11
2.87778
21
0.766732
0
LINE
8
BLACK
6
CONTINUOUS
10
2.87778
20
0.766732
11
2.87778
21
0.883268
0
LINE
8
BLACK
6
CONTINUOUS
10
2.87778
20
0.883268
11
2.87806
21
0.883964
0
LINE
8
BLACK
6
CONTINUOUS
10
2.87806
20
0.883964
11
2.87876
21
0.884252
0
LINE
8
BLACK
6
CONTINUOUS
10
2.87876
20
0.884252
11
2.93624
21
0.884252
0
LINE
8
BLACK
6
CONTINUOUS
10
2.93624
20
0.884252
11
2.93694
21
0.883964
0
LINE
8
BLACK
6
CONTINUOUS
10
2.93694
20
0.883964
11
2.93722
21
0.883268
0
LINE
8
BLACK
6
CONTINUOUS
10
2.93722
20
0.883268
11
2.93722
21
0.766732
0
LINE
8
BLACK
6
CONTINUOUS
10
2.93722
20
0.766732
11
2.93694
21
0.766036
0
LINE
8
BLACK
6
CONTINUOUS
10
2.93694
20
0.766036
11
2.93624
21
0.765748
0
LINE
8
BLACK
6
CONTINUOUS
10
2.93624
20
0.765748
11
2.87876
21
0.765748
0
LINE
8
BLACK
6
CONTINUOUS
10
2.87876
20
0.765748
11
2.87806
21
0.766036
0
LINE
8
BLACK
6
CONTINUOUS
10
2.87974
20
0.882283
11
2.87974
21
0.767717
0
LINE
8
BLACK
6
CONTINUOUS
10
2.87974
20
0.767717
11
2.93526
21
0.767717
0
LINE
8
BLACK
6
CONTINUOUS
10
2.93526
20
0.767717
11
2.93526
21
0.882283
0
LINE
8
BLACK
6
CONTINUOUS
10
2.93526
20
0.882283
11
2.87974
21
0.882283
0
LINE
8
BLACK
6
CONTINUOUS
10
3.15174
20
0.800091
11
3.15146
21
0.800787
0
LINE
8
BLACK
6
CONTINUOUS
10
3.15146
20
0.800787
11
3.15146
21
0.899213
0
LINE
8
BLACK
6
CONTINUOUS
10
3.15146
20
0.899213
11
3.15174
21
0.899909
0
LINE
8
BLACK
6
CONTINUOUS
10
3.15174
20
0.899909
11
3.15244
21
0.900197
0
LINE
8
BLACK
6
CONTINUOUS
10
3.15244
20
0.900197
11
3.31937
21
0.900197
0
LINE
8
BLACK
6
CONTINUOUS
10
3.31937
20
0.900197
11
3.32007
21
0.899909
0
LINE
8
BLACK
6
CONTINUOUS
10
3.32007
20
0.899909
11
3.32035
21
0.899213
0
LINE
8
BLACK
6
CONTINUOUS
10
3.32035
20
0.899213
11
3.32035
21
0.800787
0
LINE
8
BLACK
6
CONTINUOUS
10
3.32035
20
0.800787
11
3.32007
21
0.800091
0
LINE
8
BLACK
6
CONTINUOUS
10
3.32007
20
0.800091
11
3.31937
21
0.799803
0
LINE
8
BLACK
6
CONTINUOUS
10
3.31937
20
0.799803
11
3.15244
21
0.799803
0
LINE
8
BLACK
6
CONTINUOUS
10
3.15244
20
0.799803
11
3.15174
21
0.800091
0
LINE
8
BLACK
6
CONTINUOUS
10
3.20854
20
0.898228
11
3.20854
21
0.801772
0
LINE
8
BLACK
6
CONTINUOUS
10
3.20854
20
0.801772
11
3.31839
21
0.801772
0
LINE
8
BLACK
6
CONTINUOUS
10
3.31839
20
0.801772
11
3.31839
21
0.898228
0
LINE
8
BLACK
6
CONTINUOUS
10
3.31839
20
0.898228
11
3.20854
21
0.898228
0
LINE
8
BLACK
6
CONTINUOUS
10
3.15343
20
0.898228
11
3.15343
21
0.801772
0
LINE
8
BLACK
6
CONTINUOUS
10
3.15343
20
0.801772
11
3.18846
21
0.801772
0
LINE
8
BLACK
6
CONTINUOUS
10
3.18846
20
0.801772
11
3.18846
21
0.898228
0
LINE
8
BLACK
6
CONTINUOUS
10
3.18846
20
0.898228
11
3.15343
21
0.898228
0
LINE
8
BLACK
6
CONTINUOUS
10
3.19043
20
0.898228
11
3.19043
21
0.801772
0
LINE
8
BLACK
6
CONTINUOUS
10
3.19043
20
0.801772
11
3.20657
21
0.801772
0
LINE
8
BLACK
6
CONTINUOUS
10
3.20657
20
0.801772
11
3.20657
21
0.898228
0
LINE
8
BLACK
6
CONTINUOUS
10
3.20657
20
0.898228
11
3.19043
21
0.898228
0
LINE
8
BLACK
6
CONTINUOUS
10
1.9636
20
0.802375
11
1.96331
21
0.803071
0
LINE
8
BLACK
6
CONTINUOUS
10
1.96331
20
0.803071
11
1.96331
21
0.936929
0
LINE
8
BLACK
6
CONTINUOUS
10
1.96331
20
0.936929
11
1.9636
21
0.937625
0
LINE
8
BLACK
6
CONTINUOUS
10
1.9636
20
0.937625
11
1.96429
21
0.937913
0
LINE
8
BLACK
6
CONTINUOUS
10
1.96429
20
0.937913
11
2.12571
21
0.937913
0
LINE
8
BLACK
6
CONTINUOUS
10
2.12571
20
0.937913
11
2.1264
21
0.937625
0
LINE
8
BLACK
6
CONTINUOUS
10
2.1264
20
0.937625
11
2.12669
21
0.936929
0
LINE
8
BLACK
6
CONTINUOUS
10
2.12669
20
0.936929
11
2.12669
21
0.803071
0
LINE
8
BLACK
6
CONTINUOUS
10
2.12669
20
0.803071
11
2.1264
21
0.802375
0
LINE
8
BLACK
6
CONTINUOUS
10
2.1264
20
0.802375
11
2.12571
21
0.802087
0
LINE
8
BLACK
6
CONTINUOUS
10
2.12571
20
0.802087
11
1.96429
21
0.802087
0
LINE
8
BLACK
6
CONTINUOUS
10
1.96429
20
0.802087
11
1.9636
21
0.802375
0
LINE
8
BLACK
6
CONTINUOUS
10
1.96528
20
0.935945
11
1.96528
21
0.804055
0
LINE
8
BLACK
6
CONTINUOUS
10
1.96528
20
0.804055
11
2.12472
21
0.804055
0
LINE
8
BLACK
6
CONTINUOUS
10
2.12472
20
0.804055
11
2.12472
21
0.935945
0
LINE
8
BLACK
6
CONTINUOUS
10
2.12472
20
0.935945
11
1.96528
21
0.935945
0
LINE
8
BLACK
6
CONTINUOUS
10
2.14056
20
0.821036
11
2.14028
21
0.821732
0
LINE
8
BLACK
6
CONTINUOUS
10
2.14028
20
0.821732
11
2.14028
21
0.938268
0
LINE
8
BLACK
6
CONTINUOUS
10
2.14028
20
0.938268
11
2.14056
21
0.938964
0
LINE
8
BLACK
6
CONTINUOUS
10
2.14056
20
0.938964
11
2.14126
21
0.939252
0
LINE
8
BLACK
6
CONTINUOUS
10
2.14126
20
0.939252
11
2.19874
21
0.939252
0
LINE
8
BLACK
6
CONTINUOUS
10
2.19874
20
0.939252
11
2.19944
21
0.938964
0
LINE
8
BLACK
6
CONTINUOUS
10
2.19944
20
0.938964
11
2.19972
21
0.938268
0
LINE
8
BLACK
6
CONTINUOUS
10
2.19972
20
0.938268
11
2.19972
21
0.821732
0
LINE
8
BLACK
6
CONTINUOUS
10
2.19972
20
0.821732
11
2.19944
21
0.821036
0
LINE
8
BLACK
6
CONTINUOUS
10
2.19944
20
0.821036
11
2.19874
21
0.820748
0
LINE
8
BLACK
6
CONTINUOUS
10
2.19874
20
0.820748
11
2.14126
21
0.820748
0
LINE
8
BLACK
6
CONTINUOUS
10
2.14126
20
0.820748
11
2.14056
21
0.821036
0
LINE
8
BLACK
6
CONTINUOUS
10
2.14224
20
0.937283
11
2.14224
21
0.822717
0
LINE
8
BLACK
6
CONTINUOUS
10
2.14224
20
0.822717
11
2.19776
21
0.822717
0
LINE
8
BLACK
6
CONTINUOUS
10
2.19776
20
0.822717
11
2.19776
21
0.937283
0
LINE
8
BLACK
6
CONTINUOUS
10
2.19776
20
0.937283
11
2.14224
21
0.937283
0
LINE
8
BLACK
6
CONTINUOUS
10
3.06806
20
0.856036
11
3.06778
21
0.856732
0
LINE
8
BLACK
6
CONTINUOUS
10
3.06778
20
0.856732
11
3.06778
21
0.973268
0
LINE
8
BLACK
6
CONTINUOUS
10
3.06778
20
0.973268
11
3.06806
21
0.973964
0
LINE
8
BLACK
6
CONTINUOUS
10
3.06806
20
0.973964
11
3.06876
21
0.974252
0
LINE
8
BLACK
6
CONTINUOUS
10
3.06876
20
0.974252
11
3.12624
21
0.974252
0
LINE
8
BLACK
6
CONTINUOUS
10
3.12624
20
0.974252
11
3.12694
21
0.973964
0
LINE
8
BLACK
6
CONTINUOUS
10
3.12694
20
0.973964
11
3.12722
21
0.973268
0
LINE
8
BLACK
6
CONTINUOUS
10
3.12722
20
0.973268
11
3.12722
21
0.856732
0
LINE
8
BLACK
6
CONTINUOUS
10
3.12722
20
0.856732
11
3.12694
21
0.856036
0
LINE
8
BLACK
6
CONTINUOUS
10
3.12694
20
0.856036
11
3.12624
21
0.855748
0
LINE
8
BLACK
6
CONTINUOUS
10
3.12624
20
0.855748
11
3.06876
21
0.855748
0
LINE
8
BLACK
6
CONTINUOUS
10
3.06876
20
0.855748
11
3.06806
21
0.856036
0
LINE
8
BLACK
6
CONTINUOUS
10
3.06974
20
0.972283
11
3.06974
21
0.857717
0
LINE
8
BLACK
6
CONTINUOUS
10
3.06974
20
0.857717
11
3.12526
21
0.857717
0
LINE
8
BLACK
6
CONTINUOUS
10
3.12526
20
0.857717
11
3.12526
21
0.972283
0
LINE
8
BLACK
6
CONTINUOUS
10
3.12526
20
0.972283
11
3.06974
21
0.972283
0
LINE
8
BLACK
6
CONTINUOUS
10
1.55556
20
0.871036
11
1.55528
21
0.871732
0
LINE
8
BLACK
6
CONTINUOUS
10
1.55528
20
0.871732
11
1.55528
21
0.988268
0
LINE
8
BLACK
6
CONTINUOUS
10
1.55528
20
0.988268
11
1.55556
21
0.988964
0
LINE
8
BLACK
6
CONTINUOUS
10
1.55556
20
0.988964
11
1.55626
21
0.989252
0
LINE
8
BLACK
6
CONTINUOUS
10
1.55626
20
0.989252
11
1.61374
21
0.989252
0
LINE
8
BLACK
6
CONTINUOUS
10
1.61374
20
0.989252
11
1.61444
21
0.988964
0
LINE
8
BLACK
6
CONTINUOUS
10
1.61444
20
0.988964
11
1.61472
21
0.988268
0
LINE
8
BLACK
6
CONTINUOUS
10
1.61472
20
0.988268
11
1.61472
21
0.871732
0
LINE
8
BLACK
6
CONTINUOUS
10
1.61472
20
0.871732
11
1.61444
21
0.871036
0
LINE
8
BLACK
6
CONTINUOUS
10
1.61444
20
0.871036
11
1.61374
21
0.870748
0
LINE
8
BLACK
6
CONTINUOUS
10
1.61374
20
0.870748
11
1.55626
21
0.870748
0
LINE
8
BLACK
6
CONTINUOUS
10
1.55626
20
0.870748
11
1.55556
21
0.871036
0
LINE
8
BLACK
6
CONTINUOUS
10
1.55724
20
0.987283
11
1.55724
21
0.872717
0
LINE
8
BLACK
6
CONTINUOUS
10
1.55724
20
0.872717
11
1.61276
21
0.872717
0
LINE
8
BLACK
6
CONTINUOUS
10
1.61276
20
0.872717
11
1.61276
21
0.987283
0
LINE
8
BLACK
6
CONTINUOUS
10
1.61276
20
0.987283
11
1.55724
21
0.987283
0
LINE
8
BLACK
6
CONTINUOUS
10
1.88056
20
0.873536
11
1.88028
21
0.874232
0
LINE
8
BLACK
6
CONTINUOUS
10
1.88028
20
0.874232
11
1.88028
21
0.990768
0
LINE
8
BLACK
6
CONTINUOUS
10
1.88028
20
0.990768
11
1.88056
21
0.991464
0
LINE
8
BLACK
6
CONTINUOUS
10
1.88056
20
0.991464
11
1.88126
21
0.991752
0
LINE
8
BLACK
6
CONTINUOUS
10
1.88126
20
0.991752
11
1.93874
21
0.991752
0
LINE
8
BLACK
6
CONTINUOUS
10
1.93874
20
0.991752
11
1.93944
21
0.991464
0
LINE
8
BLACK
6
CONTINUOUS
10
1.93944
20
0.991464
11
1.93972
21
0.990768
0
LINE
8
BLACK
6
CONTINUOUS
10
1.93972
20
0.990768
11
1.93972
21
0.874232
0
LINE
8
BLACK
6
CONTINUOUS
10
1.93972
20
0.874232
11
1.93944
21
0.873536
0
LINE
8
BLACK
6
CONTINUOUS
10
1.93944
20
0.873536
11
1.93874
21
0.873248
0
LINE
8
BLACK
6
CONTINUOUS
10
1.93874
20
0.873248
11
1.88126
21
0.873248
0
LINE
8
BLACK
6
CONTINUOUS
10
1.88126
20
0.873248
11
1.88056
21
0.873536
0
LINE
8
BLACK
6
CONTINUOUS
10
1.88224
20
0.989783
11
1.88224
21
0.875217
0
LINE
8
BLACK
6
CONTINUOUS
10
1.88224
20
0.875217
11
1.93776
21
0.875217
0
LINE
8
BLACK
6
CONTINUOUS
10
1.93776
20
0.875217
11
1.93776
21
0.989783
0
LINE
8
BLACK
6
CONTINUOUS
10
1.93776
20
0.989783
11
1.88224
21
0.989783
0
LINE
8
BLACK
6
CONTINUOUS
10
1.79556
20
0.873536
11
1.79528
21
0.874232
0
LINE
8
BLACK
6
CONTINUOUS
10
1.79528
20
0.874232
11
1.79528
21
0.990768
0
LINE
8
BLACK
6
CONTINUOUS
10
1.79528
20
0.990768
11
1.79556
21
0.991464
0
LINE
8
BLACK
6
CONTINUOUS
10
1.79556
20
0.991464
11
1.79626
21
0.991752
0
LINE
8
BLACK
6
CONTINUOUS
10
1.79626
20
0.991752
11
1.85374
21
0.991752
0
LINE
8
BLACK
6
CONTINUOUS
10
1.85374
20
0.991752
11
1.85444
21
0.991464
0
LINE
8
BLACK
6
CONTINUOUS
10
1.85444
20
0.991464
11
1.85472
21
0.990768
0
LINE
8
BLACK
6
CONTINUOUS
10
1.85472
20
0.990768
11
1.85472
21
0.874232
0
LINE
8
BLACK
6
CONTINUOUS
10
1.85472
20
0.874232
11
1.85444
21
0.873536
0
LINE
8
BLACK
6
CONTINUOUS
10
1.85444
20
0.873536
11
1.85374
21
0.873248
0
LINE
8
BLACK
6
CONTINUOUS
10
1.85374
20
0.873248
11
1.79626
21
0.873248
0
LINE
8
BLACK
6
CONTINUOUS
10
1.79626
20
0.873248
11
1.79556
21
0.873536
0
LINE
8
BLACK
6
CONTINUOUS
10
1.79724
20
0.989783
11
1.79724
21
0.875217
0
LINE
8
BLACK
6
CONTINUOUS
10
1.79724
20
0.875217
11
1.85276
21
0.875217
0
LINE
8
BLACK
6
CONTINUOUS
10
1.85276
20
0.875217
11
1.85276
21
0.989783
0
LINE
8
BLACK
6
CONTINUOUS
10
1.85276
20
0.989783
11
1.79724
21
0.989783
0
LINE
8
BLACK
6
CONTINUOUS
10
3.27713
20
0.969724
11
3.29827
21
0.969724
0
LINE
8
BLACK
6
CONTINUOUS
10
3.29827
20
0.969724
11
3.29896
21
0.969436
0
LINE
8
BLACK
6
CONTINUOUS
10
3.29896
20
0.969436
11
3.29925
21
0.96874
0
LINE
8
BLACK
6
CONTINUOUS
10
3.29925
20
0.96874
11
3.29925
21
0.91126
0
LINE
8
BLACK
6
CONTINUOUS
10
3.29925
20
0.91126
11
3.29896
21
0.910564
0
LINE
8
BLACK
6
CONTINUOUS
10
3.29896
20
0.910564
11
3.29827
21
0.910276
0
LINE
8
BLACK
6
CONTINUOUS
10
3.29827
20
0.910276
11
3.18173
21
0.910276
0
LINE
8
BLACK
6
CONTINUOUS
10
3.18173
20
0.910276
11
3.18104
21
0.910564
0
LINE
8
BLACK
6
CONTINUOUS
10
3.18104
20
0.910564
11
3.18075
21
0.91126
0
LINE
8
BLACK
6
CONTINUOUS
10
3.18075
20
0.91126
11
3.18075
21
0.931614
0
LINE
8
BLACK
6
CONTINUOUS
10
3.18075
20
0.931614
11
3.14386
21
0.931614
0
LINE
8
BLACK
6
CONTINUOUS
10
3.14386
20
0.931614
11
3.14316
21
0.931902
0
LINE
8
BLACK
6
CONTINUOUS
10
3.14316
20
0.931902
11
3.14287
21
0.932598
0
LINE
8
BLACK
6
CONTINUOUS
10
3.14287
20
0.932598
11
3.14287
21
1.0074
0
LINE
8
BLACK
6
CONTINUOUS
10
3.14287
20
1.0074
11
3.14316
21
1.0081
0
LINE
8
BLACK
6
CONTINUOUS
10
3.14316
20
1.0081
11
3.14386
21
1.00839
0
LINE
8
BLACK
6
CONTINUOUS
10
3.14386
20
1.00839
11
3.18075
21
1.00839
0
LINE
8
BLACK
6
CONTINUOUS
10
3.18075
20
1.00839
11
3.18075
21
1.03874
0
LINE
8
BLACK
6
CONTINUOUS
10
3.18075
20
1.03874
11
3.18104
21
1.03944
0
LINE
8
BLACK
6
CONTINUOUS
10
3.18104
20
1.03944
11
3.18173
21
1.03972
0
LINE
8
BLACK
6
CONTINUOUS
10
3.18173
20
1.03972
11
3.29827
21
1.03972
0
LINE
8
BLACK
6
CONTINUOUS
10
3.29827
20
1.03972
11
3.29896
21
1.03944
0
LINE
8
BLACK
6
CONTINUOUS
10
3.29896
20
1.03944
11
3.29925
21
1.03874
0
LINE
8
BLACK
6
CONTINUOUS
10
3.29925
20
1.03874
11
3.29925
21
0.98126
0
LINE
8
BLACK
6
CONTINUOUS
10
3.29925
20
0.98126
11
3.29896
21
0.980564
0
LINE
8
BLACK
6
CONTINUOUS
10
3.29896
20
0.980564
11
3.29827
21
0.980276
0
LINE
8
BLACK
6
CONTINUOUS
10
3.29827
20
0.980276
11
3.27713
21
0.980276
0
LINE
8
BLACK
6
CONTINUOUS
10
3.27713
20
0.980276
11
3.27713
21
0.969724
0
LINE
8
BLACK
6
CONTINUOUS
10
3.18272
20
0.912244
11
3.29728
21
0.912244
0
LINE
8
BLACK
6
CONTINUOUS
10
3.29728
20
0.912244
11
3.29728
21
0.967756
0
LINE
8
BLACK
6
CONTINUOUS
10
3.29728
20
0.967756
11
3.27713
21
0.967756
0
LINE
8
BLACK
6
CONTINUOUS
10
3.27713
20
0.967756
11
3.27713
21
0.932598
0
LINE
8
BLACK
6
CONTINUOUS
10
3.27713
20
0.932598
11
3.27684
21
0.931902
0
LINE
8
BLACK
6
CONTINUOUS
10
3.27684
20
0.931902
11
3.27614
21
0.931614
0
LINE
8
BLACK
6
CONTINUOUS
10
3.27614
20
0.931614
11
3.18272
21
0.931614
0
LINE
8
BLACK
6
CONTINUOUS
10
3.18272
20
0.931614
11
3.18272
21
0.912244
0
LINE
8
BLACK
6
CONTINUOUS
10
3.14484
20
1.00642
11
3.14484
21
0.933583
0
LINE
8
BLACK
6
CONTINUOUS
10
3.14484
20
0.933583
11
3.18075
21
0.933583
0
LINE
8
BLACK
6
CONTINUOUS
10
3.18075
20
0.933583
11
3.18075
21
0.96874
0
LINE
8
BLACK
6
CONTINUOUS
10
3.18075
20
0.96874
11
3.18104
21
0.969436
0
LINE
8
BLACK
6
CONTINUOUS
10
3.18104
20
0.969436
11
3.18173
21
0.969724
0
LINE
8
BLACK
6
CONTINUOUS
10
3.18173
20
0.969724
11
3.27516
21
0.969724
0
LINE
8
BLACK
6
CONTINUOUS
10
3.27516
20
0.969724
11
3.27516
21
0.980276
0
LINE
8
BLACK
6
CONTINUOUS
10
3.27516
20
0.980276
11
3.18173
21
0.980276
0
LINE
8
BLACK
6
CONTINUOUS
10
3.18173
20
0.980276
11
3.18104
21
0.980564
0
LINE
8
BLACK
6
CONTINUOUS
10
3.18104
20
0.980564
11
3.18075
21
0.98126
0
LINE
8
BLACK
6
CONTINUOUS
10
3.18075
20
0.98126
11
3.18075
21
1.00642
0
LINE
8
BLACK
6
CONTINUOUS
10
3.18075
20
1.00642
11
3.14484
21
1.00642
0
LINE
8
BLACK
6
CONTINUOUS
10
3.18272
20
0.967756
11
3.18272
21
0.933583
0
LINE
8
BLACK
6
CONTINUOUS
10
3.18272
20
0.933583
11
3.27516
21
0.933583
0
LINE
8
BLACK
6
CONTINUOUS
10
3.27516
20
0.933583
11
3.27516
21
0.967756
0
LINE
8
BLACK
6
CONTINUOUS
10
3.27516
20
0.967756
11
3.18272
21
0.967756
0
LINE
8
BLACK
6
CONTINUOUS
10
3.18272
20
1.00642
11
3.18272
21
0.982244
0
LINE
8
BLACK
6
CONTINUOUS
10
3.18272
20
0.982244
11
3.27516
21
0.982244
0
LINE
8
BLACK
6
CONTINUOUS
10
3.27516
20
0.982244
11
3.27516
21
1.00642
0
LINE
8
BLACK
6
CONTINUOUS
10
3.27516
20
1.00642
11
3.18272
21
1.00642
0
LINE
8
BLACK
6
CONTINUOUS
10
3.27713
20
1.0074
11
3.27713
21
0.982244
0
LINE
8
BLACK
6
CONTINUOUS
10
3.27713
20
0.982244
11
3.29728
21
0.982244
0
LINE
8
BLACK
6
CONTINUOUS
10
3.29728
20
0.982244
11
3.29728
21
1.03776
0
LINE
8
BLACK
6
CONTINUOUS
10
3.29728
20
1.03776
11
3.18272
21
1.03776
0
LINE
8
BLACK
6
CONTINUOUS
10
3.18272
20
1.03776
11
3.18272
21
1.00839
0
LINE
8
BLACK
6
CONTINUOUS
10
3.18272
20
1.00839
11
3.27614
21
1.00839
0
LINE
8
BLACK
6
CONTINUOUS
10
3.27614
20
1.00839
11
3.27684
21
1.0081
0
LINE
8
BLACK
6
CONTINUOUS
10
3.27684
20
1.0081
11
3.27713
21
1.0074
0
LINE
8
BLACK
6
CONTINUOUS
10
2.01647
20
0.941902
11
2.01618
21
0.942598
0
LINE
8
BLACK
6
CONTINUOUS
10
2.01618
20
0.942598
11
2.01618
21
1.0174
0
LINE
8
BLACK
6
CONTINUOUS
10
2.01618
20
1.0174
11
2.01647
21
1.0181
0
LINE
8
BLACK
6
CONTINUOUS
10
2.01647
20
1.0181
11
2.01717
21
1.01839
0
LINE
8
BLACK
6
CONTINUOUS
10
2.01717
20
1.01839
11
2.16283
21
1.01839
0
LINE
8
BLACK
6
CONTINUOUS
10
2.16283
20
1.01839
11
2.16353
21
1.0181
0
LINE
8
BLACK
6
CONTINUOUS
10
2.16353
20
1.0181
11
2.16382
21
1.0174
0
LINE
8
BLACK
6
CONTINUOUS
10
2.16382
20
1.0174
11
2.16382
21
0.942598
0
LINE
8
BLACK
6
CONTINUOUS
10
2.16382
20
0.942598
11
2.16353
21
0.941902
0
LINE
8
BLACK
6
CONTINUOUS
10
2.16353
20
0.941902
11
2.16283
21
0.941614
0
LINE
8
BLACK
6
CONTINUOUS
10
2.16283
20
0.941614
11
2.01717
21
0.941614
0
LINE
8
BLACK
6
CONTINUOUS
10
2.01717
20
0.941614
11
2.01647
21
0.941902
0
LINE
8
BLACK
6
CONTINUOUS
10
2.01815
20
1.01642
11
2.01815
21
0.943583
0
LINE
8
BLACK
6
CONTINUOUS
10
2.01815
20
0.943583
11
2.16185
21
0.943583
0
LINE
8
BLACK
6
CONTINUOUS
10
2.16185
20
0.943583
11
2.16185
21
1.01642
0
LINE
8
BLACK
6
CONTINUOUS
10
2.16185
20
1.01642
11
2.01815
21
1.01642
0
LINE
8
BLACK
6
CONTINUOUS
10
2.43844
20
1.01316
11
2.43815
21
1.01386
0
LINE
8
BLACK
6
CONTINUOUS
10
2.43815
20
1.01386
11
2.43815
21
1.24614
0
LINE
8
BLACK
6
CONTINUOUS
10
2.43815
20
1.24614
11
2.43844
21
1.24684
0
LINE
8
BLACK
6
CONTINUOUS
10
2.43844
20
1.24684
11
2.43913
21
1.24713
0
LINE
8
BLACK
6
CONTINUOUS
10
2.43913
20
1.24713
11
2.58087
21
1.24713
0
LINE
8
BLACK
6
CONTINUOUS
10
2.58087
20
1.24713
11
2.58156
21
1.24684
0
LINE
8
BLACK
6
CONTINUOUS
10
2.58156
20
1.24684
11
2.58185
21
1.24614
0
LINE
8
BLACK
6
CONTINUOUS
10
2.58185
20
1.24614
11
2.58185
21
1.01386
0
LINE
8
BLACK
6
CONTINUOUS
10
2.58185
20
1.01386
11
2.58156
21
1.01316
0
LINE
8
BLACK
6
CONTINUOUS
10
2.58156
20
1.01316
11
2.58087
21
1.01287
0
LINE
8
BLACK
6
CONTINUOUS
10
2.58087
20
1.01287
11
2.43913
21
1.01287
0
LINE
8
BLACK
6
CONTINUOUS
10
2.43913
20
1.01287
11
2.43844
21
1.01316
0
LINE
8
BLACK
6
CONTINUOUS
10
2.44012
20
1.24516
11
2.44012
21
1.01484
0
LINE
8
BLACK
6
CONTINUOUS
10
2.44012
20
1.01484
11
2.57988
21
1.01484
0
LINE
8
BLACK
6
CONTINUOUS
10
2.57988
20
1.01484
11
2.57988
21
1.24516
0
LINE
8
BLACK
6
CONTINUOUS
10
2.57988
20
1.24516
11
2.44012
21
1.24516
0
LINE
8
BLACK
6
CONTINUOUS
10
2.66056
20
1.01604
11
2.66028
21
1.01673
0
LINE
8
BLACK
6
CONTINUOUS
10
2.66028
20
1.01673
11
2.66028
21
1.13327
0
LINE
8
BLACK
6
CONTINUOUS
10
2.66028
20
1.13327
11
2.66056
21
1.13396
0
LINE
8
BLACK
6
CONTINUOUS
10
2.66056
20
1.13396
11
2.66126
21
1.13425
0
LINE
8
BLACK
6
CONTINUOUS
10
2.66126
20
1.13425
11
2.71874
21
1.13425
0
LINE
8
BLACK
6
CONTINUOUS
10
2.71874
20
1.13425
11
2.71944
21
1.13396
0
LINE
8
BLACK
6
CONTINUOUS
10
2.71944
20
1.13396
11
2.71972
21
1.13327
0
LINE
8
BLACK
6
CONTINUOUS
10
2.71972
20
1.13327
11
2.71972
21
1.01673
0
LINE
8
BLACK
6
CONTINUOUS
10
2.71972
20
1.01673
11
2.71944
21
1.01604
0
LINE
8
BLACK
6
CONTINUOUS
10
2.71944
20
1.01604
11
2.71874
21
1.01575
0
LINE
8
BLACK
6
CONTINUOUS
10
2.71874
20
1.01575
11
2.66126
21
1.01575
0
LINE
8
BLACK
6
CONTINUOUS
10
2.66126
20
1.01575
11
2.66056
21
1.01604
0
LINE
8
BLACK
6
CONTINUOUS
10
2.66224
20
1.13228
11
2.66224
21
1.01772
0
LINE
8
BLACK
6
CONTINUOUS
10
2.66224
20
1.01772
11
2.71776
21
1.01772
0
LINE
8
BLACK
6
CONTINUOUS
10
2.71776
20
1.01772
11
2.71776
21
1.13228
0
LINE
8
BLACK
6
CONTINUOUS
10
2.71776
20
1.13228
11
2.66224
21
1.13228
0
LINE
8
BLACK
6
CONTINUOUS
10
2.19346
20
1.09472
11
2.21827
21
1.09472
0
LINE
8
BLACK
6
CONTINUOUS
10
2.21827
20
1.09472
11
2.21896
21
1.09444
0
LINE
8
BLACK
6
CONTINUOUS
10
2.21896
20
1.09444
11
2.21925
21
1.09374
0
LINE
8
BLACK
6
CONTINUOUS
10
2.21925
20
1.09374
11
2.21925
21
1.03626
0
LINE
8
BLACK
6
CONTINUOUS
10
2.21925
20
1.03626
11
2.21896
21
1.03556
0
LINE
8
BLACK
6
CONTINUOUS
10
2.21896
20
1.03556
11
2.21827
21
1.03528
0
LINE
8
BLACK
6
CONTINUOUS
10
2.21827
20
1.03528
11
2.10173
21
1.03528
0
LINE
8
BLACK
6
CONTINUOUS
10
2.10173
20
1.03528
11
2.10104
21
1.03556
0
LINE
8
BLACK
6
CONTINUOUS
10
2.10104
20
1.03556
11
2.10075
21
1.03626
0
LINE
8
BLACK
6
CONTINUOUS
10
2.10075
20
1.03626
11
2.10075
21
1.08161
0
LINE
8
BLACK
6
CONTINUOUS
10
2.10075
20
1.08161
11
2.04681
21
1.08161
0
LINE
8
BLACK
6
CONTINUOUS
10
2.04681
20
1.08161
11
2.04612
21
1.0819
0
LINE
8
BLACK
6
CONTINUOUS
10
2.04612
20
1.0819
11
2.04583
21
1.0826
0
LINE
8
BLACK
6
CONTINUOUS
10
2.04583
20
1.0826
11
2.04583
21
1.13154
0
LINE
8
BLACK
6
CONTINUOUS
10
2.04583
20
1.13154
11
1.88638
21
1.13154
0
LINE
8
BLACK
6
CONTINUOUS
10
1.88638
20
1.13154
11
1.88568
21
1.13182
0
LINE
8
BLACK
6
CONTINUOUS
10
1.88568
20
1.13182
11
1.88539
21
1.13252
0
LINE
8
BLACK
6
CONTINUOUS
10
1.88539
20
1.13252
11
1.88539
21
1.66008
0
LINE
8
BLACK
6
CONTINUOUS
10
1.88539
20
1.66008
11
1.88568
21
1.66077
0
LINE
8
BLACK
6
CONTINUOUS
10
1.88568
20
1.66077
11
1.88638
21
1.66106
0
LINE
8
BLACK
6
CONTINUOUS
10
1.88638
20
1.66106
11
2.41394
21
1.66106
0
LINE
8
BLACK
6
CONTINUOUS
10
2.41394
20
1.66106
11
2.41463
21
1.66077
0
LINE
8
BLACK
6
CONTINUOUS
10
2.41463
20
1.66077
11
2.41492
21
1.66008
0
LINE
8
BLACK
6
CONTINUOUS
10
2.41492
20
1.66008
11
2.41492
21
1.13252
0
LINE
8
BLACK
6
CONTINUOUS
10
2.41492
20
1.13252
11
2.41463
21
1.13182
0
LINE
8
BLACK
6
CONTINUOUS
10
2.41463
20
1.13182
11
2.41394
21
1.13154
0
LINE
8
BLACK
6
CONTINUOUS
10
2.41394
20
1.13154
11
2.19346
21
1.13154
0
LINE
8
BLACK
6
CONTINUOUS
10
2.19346
20
1.13154
11
2.19346
21
1.09472
0
LINE
8
BLACK
6
CONTINUOUS
10
2.10272
20
1.03724
11
2.21728
21
1.03724
0
LINE
8
BLACK
6
CONTINUOUS
10
2.21728
20
1.03724
11
2.21728
21
1.09276
0
LINE
8
BLACK
6
CONTINUOUS
10
2.21728
20
1.09276
11
2.19346
21
1.09276
0
LINE
8
BLACK
6
CONTINUOUS
10
2.19346
20
1.09276
11
2.19346
21
1.0826
0
LINE
8
BLACK
6
CONTINUOUS
10
2.19346
20
1.0826
11
2.19318
21
1.0819
0
LINE
8
BLACK
6
CONTINUOUS
10
2.19318
20
1.0819
11
2.19248
21
1.08161
0
LINE
8
BLACK
6
CONTINUOUS
10
2.19248
20
1.08161
11
2.10272
21
1.08161
0
LINE
8
BLACK
6
CONTINUOUS
10
2.10272
20
1.08161
11
2.10272
21
1.03724
0
LINE
8
BLACK
6
CONTINUOUS
10
2.0478
20
1.13154
11
2.0478
21
1.08358
0
LINE
8
BLACK
6
CONTINUOUS
10
2.0478
20
1.08358
11
2.10075
21
1.08358
0
LINE
8
BLACK
6
CONTINUOUS
10
2.10075
20
1.08358
11
2.10075
21
1.09374
0
LINE
8
BLACK
6
CONTINUOUS
10
2.10075
20
1.09374
11
2.10104
21
1.09444
0
LINE
8
BLACK
6
CONTINUOUS
10
2.10104
20
1.09444
11
2.10173
21
1.09472
0
LINE
8
BLACK
6
CONTINUOUS
10
2.10173
20
1.09472
11
2.1915
21
1.09472
0
LINE
8
BLACK
6
CONTINUOUS
10
2.1915
20
1.09472
11
2.1915
21
1.13154
0
LINE
8
BLACK
6
CONTINUOUS
10
2.1915
20
1.13154
11
2.0478
21
1.13154
0
LINE
8
BLACK
6
CONTINUOUS
10
2.10272
20
1.09276
11
2.10272
21
1.08358
0
LINE
8
BLACK
6
CONTINUOUS
10
2.10272
20
1.08358
11
2.1915
21
1.08358
0
LINE
8
BLACK
6
CONTINUOUS
10
2.1915
20
1.08358
11
2.1915
21
1.09276
0
LINE
8
BLACK
6
CONTINUOUS
10
2.1915
20
1.09276
11
2.10272
21
1.09276
0
LINE
8
BLACK
6
CONTINUOUS
10
2.19346
20
1.1574
11
2.19346
21
1.1335
0
LINE
8
BLACK
6
CONTINUOUS
10
2.19346
20
1.1335
11
2.41295
21
1.1335
0
LINE
8
BLACK
6
CONTINUOUS
10
2.41295
20
1.1335
11
2.41295
21
1.65909
0
LINE
8
BLACK
6
CONTINUOUS
10
2.41295
20
1.65909
11
1.88736
21
1.65909
0
LINE
8
BLACK
6
CONTINUOUS
10
1.88736
20
1.65909
11
1.88736
21
1.1335
0
LINE
8
BLACK
6
CONTINUOUS
10
1.88736
20
1.1335
11
2.04583
21
1.1335
0
LINE
8
BLACK
6
CONTINUOUS
10
2.04583
20
1.1335
11
2.04583
21
1.1574
0
LINE
8
BLACK
6
CONTINUOUS
10
2.04583
20
1.1574
11
2.04612
21
1.1581
0
LINE
8
BLACK
6
CONTINUOUS
10
2.04612
20
1.1581
11
2.04681
21
1.15839
0
LINE
8
BLACK
6
CONTINUOUS
10
2.04681
20
1.15839
11
2.19248
21
1.15839
0
LINE
8
BLACK
6
CONTINUOUS
10
2.19248
20
1.15839
11
2.19318
21
1.1581
0
LINE
8
BLACK
6
CONTINUOUS
10
2.19318
20
1.1581
11
2.19346
21
1.1574
0
LINE
8
BLACK
6
CONTINUOUS
10
2.0478
20
1.15642
11
2.0478
21
1.1335
0
LINE
8
BLACK
6
CONTINUOUS
10
2.0478
20
1.1335
11
2.1915
21
1.1335
0
LINE
8
BLACK
6
CONTINUOUS
10
2.1915
20
1.1335
11
2.1915
21
1.15642
0
LINE
8
BLACK
6
CONTINUOUS
10
2.1915
20
1.15642
11
2.0478
21
1.15642
0
LINE
8
BLACK
6
CONTINUOUS
10
2.01354
20
1.56556
11
2.01325
21
1.56626
0
LINE
8
BLACK
6
CONTINUOUS
10
2.01325
20
1.56626
11
2.01325
21
1.62374
0
LINE
8
BLACK
6
CONTINUOUS
10
2.01325
20
1.62374
11
2.01354
21
1.62444
0
LINE
8
BLACK
6
CONTINUOUS
10
2.01354
20
1.62444
11
2.01423
21
1.62472
0
LINE
8
BLACK
6
CONTINUOUS
10
2.01423
20
1.62472
11
2.13077
21
1.62472
0
LINE
8
BLACK
6
CONTINUOUS
10
2.13077
20
1.62472
11
2.13146
21
1.62444
0
LINE
8
BLACK
6
CONTINUOUS
10
2.13146
20
1.62444
11
2.13175
21
1.62374
0
LINE
8
BLACK
6
CONTINUOUS
10
2.13175
20
1.62374
11
2.13175
21
1.56626
0
LINE
8
BLACK
6
CONTINUOUS
10
2.13175
20
1.56626
11
2.13146
21
1.56556
0
LINE
8
BLACK
6
CONTINUOUS
10
2.13146
20
1.56556
11
2.13077
21
1.56528
0
LINE
8
BLACK
6
CONTINUOUS
10
2.13077
20
1.56528
11
2.01423
21
1.56528
0
LINE
8
BLACK
6
CONTINUOUS
10
2.01423
20
1.56528
11
2.01354
21
1.56556
0
LINE
8
BLACK
6
CONTINUOUS
10
2.01522
20
1.62276
11
2.01522
21
1.56724
0
LINE
8
BLACK
6
CONTINUOUS
10
2.01522
20
1.56724
11
2.12978
21
1.56724
0
LINE
8
BLACK
6
CONTINUOUS
10
2.12978
20
1.56724
11
2.12978
21
1.62276
0
LINE
8
BLACK
6
CONTINUOUS
10
2.12978
20
1.62276
11
2.01522
21
1.62276
0
LINE
8
BLACK
6
CONTINUOUS
10
3.25174
20
1.07009
11
3.25146
21
1.07079
0
LINE
8
BLACK
6
CONTINUOUS
10
3.25146
20
1.07079
11
3.25146
21
1.16921
0
LINE
8
BLACK
6
CONTINUOUS
10
3.25146
20
1.16921
11
3.25174
21
1.16991
0
LINE
8
BLACK
6
CONTINUOUS
10
3.25174
20
1.16991
11
3.25244
21
1.1702
0
LINE
8
BLACK
6
CONTINUOUS
10
3.25244
20
1.1702
11
3.30756
21
1.1702
0
LINE
8
BLACK
6
CONTINUOUS
10
3.30756
20
1.1702
11
3.30826
21
1.16991
0
LINE
8
BLACK
6
CONTINUOUS
10
3.30826
20
1.16991
11
3.30854
21
1.16921
0
LINE
8
BLACK
6
CONTINUOUS
10
3.30854
20
1.16921
11
3.30854
21
1.07079
0
LINE
8
BLACK
6
CONTINUOUS
10
3.30854
20
1.07079
11
3.30826
21
1.07009
0
LINE
8
BLACK
6
CONTINUOUS
10
3.30826
20
1.07009
11
3.30756
21
1.0698
0
LINE
8
BLACK
6
CONTINUOUS
10
3.30756
20
1.0698
11
3.25244
21
1.0698
0
LINE
8
BLACK
6
CONTINUOUS
10
3.25244
20
1.0698
11
3.25174
21
1.07009
0
LINE
8
BLACK
6
CONTINUOUS
10
3.25343
20
1.16823
11
3.25343
21
1.07177
0
LINE
8
BLACK
6
CONTINUOUS
10
3.25343
20
1.07177
11
3.30657
21
1.07177
0
LINE
8
BLACK
6
CONTINUOUS
10
3.30657
20
1.07177
11
3.30657
21
1.16823
0
LINE
8
BLACK
6
CONTINUOUS
10
3.30657
20
1.16823
11
3.25343
21
1.16823
0
LINE
8
BLACK
6
CONTINUOUS
10
2.74604
20
1.17056
11
2.74575
21
1.17126
0
LINE
8
BLACK
6
CONTINUOUS
10
2.74575
20
1.17126
11
2.74575
21
1.22874
0
LINE
8
BLACK
6
CONTINUOUS
10
2.74575
20
1.22874
11
2.74604
21
1.22944
0
LINE
8
BLACK
6
CONTINUOUS
10
2.74604
20
1.22944
11
2.74673
21
1.22972
0
LINE
8
BLACK
6
CONTINUOUS
10
2.74673
20
1.22972
11
2.86327
21
1.22972
0
LINE
8
BLACK
6
CONTINUOUS
10
2.86327
20
1.22972
11
2.86396
21
1.22944
0
LINE
8
BLACK
6
CONTINUOUS
10
2.86396
20
1.22944
11
2.86425
21
1.22874
0
LINE
8
BLACK
6
CONTINUOUS
10
2.86425
20
1.22874
11
2.86425
21
1.17126
0
LINE
8
BLACK
6
CONTINUOUS
10
2.86425
20
1.17126
11
2.86396
21
1.17056
0
LINE
8
BLACK
6
CONTINUOUS
10
2.86396
20
1.17056
11
2.86327
21
1.17028
0
LINE
8
BLACK
6
CONTINUOUS
10
2.86327
20
1.17028
11
2.74673
21
1.17028
0
LINE
8
BLACK
6
CONTINUOUS
10
2.74673
20
1.17028
11
2.74604
21
1.17056
0
LINE
8
BLACK
6
CONTINUOUS
10
2.74772
20
1.22776
11
2.74772
21
1.17224
0
LINE
8
BLACK
6
CONTINUOUS
10
2.74772
20
1.17224
11
2.86228
21
1.17224
0
LINE
8
BLACK
6
CONTINUOUS
10
2.86228
20
1.17224
11
2.86228
21
1.22776
0
LINE
8
BLACK
6
CONTINUOUS
10
2.86228
20
1.22776
11
2.74772
21
1.22776
0
LINE
8
BLACK
6
CONTINUOUS
10
1.80056
20
1.17354
11
1.80028
21
1.17423
0
LINE
8
BLACK
6
CONTINUOUS
10
1.80028
20
1.17423
11
1.80028
21
1.29077
0
LINE
8
BLACK
6
CONTINUOUS
10
1.80028
20
1.29077
11
1.80056
21
1.29146
0
LINE
8
BLACK
6
CONTINUOUS
10
1.80056
20
1.29146
11
1.80126
21
1.29175
0
LINE
8
BLACK
6
CONTINUOUS
10
1.80126
20
1.29175
11
1.85874
21
1.29175
0
LINE
8
BLACK
6
CONTINUOUS
10
1.85874
20
1.29175
11
1.85944
21
1.29146
0
LINE
8
BLACK
6
CONTINUOUS
10
1.85944
20
1.29146
11
1.85972
21
1.29077
0
LINE
8
BLACK
6
CONTINUOUS
10
1.85972
20
1.29077
11
1.85972
21
1.17423
0
LINE
8
BLACK
6
CONTINUOUS
10
1.85972
20
1.17423
11
1.85944
21
1.17354
0
LINE
8
BLACK
6
CONTINUOUS
10
1.85944
20
1.17354
11
1.85874
21
1.17325
0
LINE
8
BLACK
6
CONTINUOUS
10
1.85874
20
1.17325
11
1.80126
21
1.17325
0
LINE
8
BLACK
6
CONTINUOUS
10
1.80126
20
1.17325
11
1.80056
21
1.17354
0
LINE
8
BLACK
6
CONTINUOUS
10
1.80224
20
1.28978
11
1.80224
21
1.17522
0
LINE
8
BLACK
6
CONTINUOUS
10
1.80224
20
1.17522
11
1.85776
21
1.17522
0
LINE
8
BLACK
6
CONTINUOUS
10
1.85776
20
1.17522
11
1.85776
21
1.28978
0
LINE
8
BLACK
6
CONTINUOUS
10
1.85776
20
1.28978
11
1.80224
21
1.28978
0
LINE
8
BLACK
6
CONTINUOUS
10
2.60104
20
1.18056
11
2.60075
21
1.18126
0
LINE
8
BLACK
6
CONTINUOUS
10
2.60075
20
1.18126
11
2.60075
21
1.23874
0
LINE
8
BLACK
6
CONTINUOUS
10
2.60075
20
1.23874
11
2.60104
21
1.23944
0
LINE
8
BLACK
6
CONTINUOUS
10
2.60104
20
1.23944
11
2.60173
21
1.23972
0
LINE
8
BLACK
6
CONTINUOUS
10
2.60173
20
1.23972
11
2.71827
21
1.23972
0
LINE
8
BLACK
6
CONTINUOUS
10
2.71827
20
1.23972
11
2.71896
21
1.23944
0
LINE
8
BLACK
6
CONTINUOUS
10
2.71896
20
1.23944
11
2.71925
21
1.23874
0
LINE
8
BLACK
6
CONTINUOUS
10
2.71925
20
1.23874
11
2.71925
21
1.18126
0
LINE
8
BLACK
6
CONTINUOUS
10
2.71925
20
1.18126
11
2.71896
21
1.18056
0
LINE
8
BLACK
6
CONTINUOUS
10
2.71896
20
1.18056
11
2.71827
21
1.18028
0
LINE
8
BLACK
6
CONTINUOUS
10
2.71827
20
1.18028
11
2.60173
21
1.18028
0
LINE
8
BLACK
6
CONTINUOUS
10
2.60173
20
1.18028
11
2.60104
21
1.18056
0
LINE
8
BLACK
6
CONTINUOUS
10
2.60272
20
1.23776
11
2.60272
21
1.18224
0
LINE
8
BLACK
6
CONTINUOUS
10
2.60272
20
1.18224
11
2.71728
21
1.18224
0
LINE
8
BLACK
6
CONTINUOUS
10
2.71728
20
1.18224
11
2.71728
21
1.23776
0
LINE
8
BLACK
6
CONTINUOUS
10
2.71728
20
1.23776
11
2.60272
21
1.23776
0
LINE
8
BLACK
6
CONTINUOUS
10
1.67972
20
1.37827
11
1.67972
21
1.26173
0
LINE
8
BLACK
6
CONTINUOUS
10
1.67972
20
1.26173
11
1.67944
21
1.26104
0
LINE
8
BLACK
6
CONTINUOUS
10
1.67944
20
1.26104
11
1.67874
21
1.26075
0
LINE
8
BLACK
6
CONTINUOUS
10
1.67874
20
1.26075
11
1.62472
21
1.26075
0
LINE
8
BLACK
6
CONTINUOUS
10
1.62472
20
1.26075
11
1.62472
21
1.18173
0
LINE
8
BLACK
6
CONTINUOUS
10
1.62472
20
1.18173
11
1.62444
21
1.18104
0
LINE
8
BLACK
6
CONTINUOUS
10
1.62444
20
1.18104
11
1.62374
21
1.18075
0
LINE
8
BLACK
6
CONTINUOUS
10
1.62374
20
1.18075
11
1.56626
21
1.18075
0
LINE
8
BLACK
6
CONTINUOUS
10
1.56626
20
1.18075
11
1.56556
21
1.18104
0
LINE
8
BLACK
6
CONTINUOUS
10
1.56556
20
1.18104
11
1.56528
21
1.18173
0
LINE
8
BLACK
6
CONTINUOUS
10
1.56528
20
1.18173
11
1.56528
21
1.29827
0
LINE
8
BLACK
6
CONTINUOUS
10
1.56528
20
1.29827
11
1.56556
21
1.29896
0
LINE
8
BLACK
6
CONTINUOUS
10
1.56556
20
1.29896
11
1.56626
21
1.29925
0
LINE
8
BLACK
6
CONTINUOUS
10
1.56626
20
1.29925
11
1.62028
21
1.29925
0
LINE
8
BLACK
6
CONTINUOUS
10
1.62028
20
1.29925
11
1.62028
21
1.32575
0
LINE
8
BLACK
6
CONTINUOUS
10
1.62028
20
1.32575
11
1.56626
21
1.32575
0
LINE
8
BLACK
6
CONTINUOUS
10
1.56626
20
1.32575
11
1.56556
21
1.32604
0
LINE
8
BLACK
6
CONTINUOUS
10
1.56556
20
1.32604
11
1.56528
21
1.32673
0
LINE
8
BLACK
6
CONTINUOUS
10
1.56528
20
1.32673
11
1.56528
21
1.44327
0
LINE
8
BLACK
6
CONTINUOUS
10
1.56528
20
1.44327
11
1.56556
21
1.44396
0
LINE
8
BLACK
6
CONTINUOUS
10
1.56556
20
1.44396
11
1.56626
21
1.44425
0
LINE
8
BLACK
6
CONTINUOUS
10
1.56626
20
1.44425
11
1.62374
21
1.44425
0
LINE
8
BLACK
6
CONTINUOUS
10
1.62374
20
1.44425
11
1.62444
21
1.44396
0
LINE
8
BLACK
6
CONTINUOUS
10
1.62444
20
1.44396
11
1.62472
21
1.44327
0
LINE
8
BLACK
6
CONTINUOUS
10
1.62472
20
1.44327
11
1.62472
21
1.37925
0
LINE
8
BLACK
6
CONTINUOUS
10
1.62472
20
1.37925
11
1.67874
21
1.37925
0
LINE
8
BLACK
6
CONTINUOUS
10
1.67874
20
1.37925
11
1.67944
21
1.37896
0
LINE
8
BLACK
6
CONTINUOUS
10
1.67944
20
1.37896
11
1.67972
21
1.37827
0
LINE
8
BLACK
6
CONTINUOUS
10
1.56724
20
1.29728
11
1.56724
21
1.18272
0
LINE
8
BLACK
6
CONTINUOUS
10
1.56724
20
1.18272
11
1.62276
21
1.18272
0
LINE
8
BLACK
6
CONTINUOUS
10
1.62276
20
1.18272
11
1.62276
21
1.26075
0
LINE
8
BLACK
6
CONTINUOUS
10
1.62276
20
1.26075
11
1.62126
21
1.26075
0
LINE
8
BLACK
6
CONTINUOUS
10
1.62126
20
1.26075
11
1.62056
21
1.26104
0
LINE
8
BLACK
6
CONTINUOUS
10
1.62056
20
1.26104
11
1.62028
21
1.26173
0
LINE
8
BLACK
6
CONTINUOUS
10
1.62028
20
1.26173
11
1.62028
21
1.29728
0
LINE
8
BLACK
6
CONTINUOUS
10
1.62028
20
1.29728
11
1.56724
21
1.29728
0
LINE
8
BLACK
6
CONTINUOUS
10
1.62224
20
1.29728
11
1.62224
21
1.26272
0
LINE
8
BLACK
6
CONTINUOUS
10
1.62224
20
1.26272
11
1.62276
21
1.26272
0
LINE
8
BLACK
6
CONTINUOUS
10
1.62276
20
1.26272
11
1.62276
21
1.29728
0
LINE
8
BLACK
6
CONTINUOUS
10
1.62276
20
1.29728
11
1.62224
21
1.29728
0
LINE
8
BLACK
6
CONTINUOUS
10
1.62224
20
1.29925
11
1.62374
21
1.29925
0
LINE
8
BLACK
6
CONTINUOUS
10
1.62374
20
1.29925
11
1.62444
21
1.29896
0
LINE
8
BLACK
6
CONTINUOUS
10
1.62444
20
1.29896
11
1.62472
21
1.29827
0
LINE
8
BLACK
6
CONTINUOUS
10
1.62472
20
1.29827
11
1.62472
21
1.26272
0
LINE
8
BLACK
6
CONTINUOUS
10
1.62472
20
1.26272
11
1.67776
21
1.26272
0
LINE
8
BLACK
6
CONTINUOUS
10
1.67776
20
1.26272
11
1.67776
21
1.37728
0
LINE
8
BLACK
6
CONTINUOUS
10
1.67776
20
1.37728
11
1.62472
21
1.37728
0
LINE
8
BLACK
6
CONTINUOUS
10
1.62472
20
1.37728
11
1.62472
21
1.32673
0
LINE
8
BLACK
6
CONTINUOUS
10
1.62472
20
1.32673
11
1.62444
21
1.32604
0
LINE
8
BLACK
6
CONTINUOUS
10
1.62444
20
1.32604
11
1.62374
21
1.32575
0
LINE
8
BLACK
6
CONTINUOUS
10
1.62374
20
1.32575
11
1.62224
21
1.32575
0
LINE
8
BLACK
6
CONTINUOUS
10
1.62224
20
1.32575
11
1.62224
21
1.29925
0
LINE
8
BLACK
6
CONTINUOUS
10
1.56724
20
1.44228
11
1.56724
21
1.32772
0
LINE
8
BLACK
6
CONTINUOUS
10
1.56724
20
1.32772
11
1.62028
21
1.32772
0
LINE
8
BLACK
6
CONTINUOUS
10
1.62028
20
1.32772
11
1.62028
21
1.37827
0
LINE
8
BLACK
6
CONTINUOUS
10
1.62028
20
1.37827
11
1.62056
21
1.37896
0
LINE
8
BLACK
6
CONTINUOUS
10
1.62056
20
1.37896
11
1.62126
21
1.37925
0
LINE
8
BLACK
6
CONTINUOUS
10
1.62126
20
1.37925
11
1.62276
21
1.37925
0
LINE
8
BLACK
6
CONTINUOUS
10
1.62276
20
1.37925
11
1.62276
21
1.44228
0
LINE
8
BLACK
6
CONTINUOUS
10
1.62276
20
1.44228
11
1.56724
21
1.44228
0
LINE
8
BLACK
6
CONTINUOUS
10
1.62224
20
1.37728
11
1.62224
21
1.32772
0
LINE
8
BLACK
6
CONTINUOUS
10
1.62224
20
1.32772
11
1.62276
21
1.32772
0
LINE
8
BLACK
6
CONTINUOUS
10
1.62276
20
1.32772
11
1.62276
21
1.37728
0
LINE
8
BLACK
6
CONTINUOUS
10
1.62276
20
1.37728
11
1.62224
21
1.37728
0
LINE
8
BLACK
6
CONTINUOUS
10
3.33332
20
1.24505
11
3.33303
21
1.24575
0
LINE
8
BLACK
6
CONTINUOUS
10
3.33303
20
1.24575
11
3.33303
21
1.81425
0
LINE
8
BLACK
6
CONTINUOUS
10
3.33303
20
1.81425
11
3.33332
21
1.81495
0
LINE
8
BLACK
6
CONTINUOUS
10
3.33332
20
1.81495
11
3.33402
21
1.81524
0
LINE
8
BLACK
6
CONTINUOUS
10
3.33402
20
1.81524
11
3.58598
21
1.81524
0
LINE
8
BLACK
6
CONTINUOUS
10
3.58598
20
1.81524
11
3.58668
21
1.81495
0
LINE
8
BLACK
6
CONTINUOUS
10
3.58668
20
1.81495
11
3.58697
21
1.81425
0
LINE
8
BLACK
6
CONTINUOUS
10
3.58697
20
1.81425
11
3.58697
21
1.24575
0
LINE
8
BLACK
6
CONTINUOUS
10
3.58697
20
1.24575
11
3.58668
21
1.24505
0
LINE
8
BLACK
6
CONTINUOUS
10
3.58668
20
1.24505
11
3.58598
21
1.24476
0
LINE
8
BLACK
6
CONTINUOUS
10
3.58598
20
1.24476
11
3.33402
21
1.24476
0
LINE
8
BLACK
6
CONTINUOUS
10
3.33402
20
1.24476
11
3.33332
21
1.24505
0
LINE
8
BLACK
6
CONTINUOUS
10
3.335
20
1.81327
11
3.335
21
1.24673
0
LINE
8
BLACK
6
CONTINUOUS
10
3.335
20
1.24673
11
3.585
21
1.24673
0
LINE
8
BLACK
6
CONTINUOUS
10
3.585
20
1.24673
11
3.585
21
1.81327
0
LINE
8
BLACK
6
CONTINUOUS
10
3.585
20
1.81327
11
3.335
21
1.81327
0
LINE
8
BLACK
6
CONTINUOUS
10
2.79604
20
1.25556
11
2.79575
21
1.25626
0
LINE
8
BLACK
6
CONTINUOUS
10
2.79575
20
1.25626
11
2.79575
21
1.31374
0
LINE
8
BLACK
6
CONTINUOUS
10
2.79575
20
1.31374
11
2.79604
21
1.31444
0
LINE
8
BLACK
6
CONTINUOUS
10
2.79604
20
1.31444
11
2.79673
21
1.31472
0
LINE
8
BLACK
6
CONTINUOUS
10
2.79673
20
1.31472
11
2.91327
21
1.31472
0
LINE
8
BLACK
6
CONTINUOUS
10
2.91327
20
1.31472
11
2.91396
21
1.31444
0
LINE
8
BLACK
6
CONTINUOUS
10
2.91396
20
1.31444
11
2.91425
21
1.31374
0
LINE
8
BLACK
6
CONTINUOUS
10
2.91425
20
1.31374
11
2.91425
21
1.25626
0
LINE
8
BLACK
6
CONTINUOUS
10
2.91425
20
1.25626
11
2.91396
21
1.25556
0
LINE
8
BLACK
6
CONTINUOUS
10
2.91396
20
1.25556
11
2.91327
21
1.25528
0
LINE
8
BLACK
6
CONTINUOUS
10
2.91327
20
1.25528
11
2.79673
21
1.25528
0
LINE
8
BLACK
6
CONTINUOUS
10
2.79673
20
1.25528
11
2.79604
21
1.25556
0
LINE
8
BLACK
6
CONTINUOUS
10
2.79772
20
1.31276
11
2.79772
21
1.25724
0
LINE
8
BLACK
6
CONTINUOUS
10
2.79772
20
1.25724
11
2.91228
21
1.25724
0
LINE
8
BLACK
6
CONTINUOUS
10
2.91228
20
1.25724
11
2.91228
21
1.31276
0
LINE
8
BLACK
6
CONTINUOUS
10
2.91228
20
1.31276
11
2.79772
21
1.31276
0
LINE
8
BLACK
6
CONTINUOUS
10
2.63854
20
1.27556
11
2.63825
21
1.27626
0
LINE
8
BLACK
6
CONTINUOUS
10
2.63825
20
1.27626
11
2.63825
21
1.33374
0
LINE
8
BLACK
6
CONTINUOUS
10
2.63825
20
1.33374
11
2.63854
21
1.33444
0
LINE
8
BLACK
6
CONTINUOUS
10
2.63854
20
1.33444
11
2.63923
21
1.33472
0
LINE
8
BLACK
6
CONTINUOUS
10
2.63923
20
1.33472
11
2.75577
21
1.33472
0
LINE
8
BLACK
6
CONTINUOUS
10
2.75577
20
1.33472
11
2.75646
21
1.33444
0
LINE
8
BLACK
6
CONTINUOUS
10
2.75646
20
1.33444
11
2.75675
21
1.33374
0
LINE
8
BLACK
6
CONTINUOUS
10
2.75675
20
1.33374
11
2.75675
21
1.27626
0
LINE
8
BLACK
6
CONTINUOUS
10
2.75675
20
1.27626
11
2.75646
21
1.27556
0
LINE
8
BLACK
6
CONTINUOUS
10
2.75646
20
1.27556
11
2.75577
21
1.27528
0
LINE
8
BLACK
6
CONTINUOUS
10
2.75577
20
1.27528
11
2.63923
21
1.27528
0
LINE
8
BLACK
6
CONTINUOUS
10
2.63923
20
1.27528
11
2.63854
21
1.27556
0
LINE
8
BLACK
6
CONTINUOUS
10
2.64022
20
1.33276
11
2.64022
21
1.27724
0
LINE
8
BLACK
6
CONTINUOUS
10
2.64022
20
1.27724
11
2.75478
21
1.27724
0
LINE
8
BLACK
6
CONTINUOUS
10
2.75478
20
1.27724
11
2.75478
21
1.33276
0
LINE
8
BLACK
6
CONTINUOUS
10
2.75478
20
1.33276
11
2.64022
21
1.33276
0
LINE
8
BLACK
6
CONTINUOUS
10
2.55056
20
1.29104
11
2.55028
21
1.29173
0
LINE
8
BLACK
6
CONTINUOUS
10
2.55028
20
1.29173
11
2.55028
21
1.40827
0
LINE
8
BLACK
6
CONTINUOUS
10
2.55028
20
1.40827
11
2.55056
21
1.40896
0
LINE
8
BLACK
6
CONTINUOUS
10
2.55056
20
1.40896
11
2.55126
21
1.40925
0
LINE
8
BLACK
6
CONTINUOUS
10
2.55126
20
1.40925
11
2.60874
21
1.40925
0
LINE
8
BLACK
6
CONTINUOUS
10
2.60874
20
1.40925
11
2.60944
21
1.40896
0
LINE
8
BLACK
6
CONTINUOUS
10
2.60944
20
1.40896
11
2.60972
21
1.40827
0
LINE
8
BLACK
6
CONTINUOUS
10
2.60972
20
1.40827
11
2.60972
21
1.29173
0
LINE
8
BLACK
6
CONTINUOUS
10
2.60972
20
1.29173
11
2.60944
21
1.29104
0
LINE
8
BLACK
6
CONTINUOUS
10
2.60944
20
1.29104
11
2.60874
21
1.29075
0
LINE
8
BLACK
6
CONTINUOUS
10
2.60874
20
1.29075
11
2.55126
21
1.29075
0
LINE
8
BLACK
6
CONTINUOUS
10
2.55126
20
1.29075
11
2.55056
21
1.29104
0
LINE
8
BLACK
6
CONTINUOUS
10
2.55224
20
1.40728
11
2.55224
21
1.29272
0
LINE
8
BLACK
6
CONTINUOUS
10
2.55224
20
1.29272
11
2.60776
21
1.29272
0
LINE
8
BLACK
6
CONTINUOUS
10
2.60776
20
1.29272
11
2.60776
21
1.40728
0
LINE
8
BLACK
6
CONTINUOUS
10
2.60776
20
1.40728
11
2.55224
21
1.40728
0
LINE
8
BLACK
6
CONTINUOUS
10
2.46056
20
1.29104
11
2.46028
21
1.29173
0
LINE
8
BLACK
6
CONTINUOUS
10
2.46028
20
1.29173
11
2.46028
21
1.40827
0
LINE
8
BLACK
6
CONTINUOUS
10
2.46028
20
1.40827
11
2.46056
21
1.40896
0
LINE
8
BLACK
6
CONTINUOUS
10
2.46056
20
1.40896
11
2.46126
21
1.40925
0
LINE
8
BLACK
6
CONTINUOUS
10
2.46126
20
1.40925
11
2.51874
21
1.40925
0
LINE
8
BLACK
6
CONTINUOUS
10
2.51874
20
1.40925
11
2.51944
21
1.40896
0
LINE
8
BLACK
6
CONTINUOUS
10
2.51944
20
1.40896
11
2.51972
21
1.40827
0
LINE
8
BLACK
6
CONTINUOUS
10
2.51972
20
1.40827
11
2.51972
21
1.29173
0
LINE
8
BLACK
6
CONTINUOUS
10
2.51972
20
1.29173
11
2.51944
21
1.29104
0
LINE
8
BLACK
6
CONTINUOUS
10
2.51944
20
1.29104
11
2.51874
21
1.29075
0
LINE
8
BLACK
6
CONTINUOUS
10
2.51874
20
1.29075
11
2.46126
21
1.29075
0
LINE
8
BLACK
6
CONTINUOUS
10
2.46126
20
1.29075
11
2.46056
21
1.29104
0
LINE
8
BLACK
6
CONTINUOUS
10
2.46224
20
1.40728
11
2.46224
21
1.29272
0
LINE
8
BLACK
6
CONTINUOUS
10
2.46224
20
1.29272
11
2.51776
21
1.29272
0
LINE
8
BLACK
6
CONTINUOUS
10
2.51776
20
1.29272
11
2.51776
21
1.40728
0
LINE
8
BLACK
6
CONTINUOUS
10
2.51776
20
1.40728
11
2.46224
21
1.40728
0
LINE
8
BLACK
6
CONTINUOUS
10
1.73854
20
1.30556
11
1.73825
21
1.30626
0
LINE
8
BLACK
6
CONTINUOUS
10
1.73825
20
1.30626
11
1.73825
21
1.36374
0
LINE
8
BLACK
6
CONTINUOUS
10
1.73825
20
1.36374
11
1.73854
21
1.36444
0
LINE
8
BLACK
6
CONTINUOUS
10
1.73854
20
1.36444
11
1.73923
21
1.36472
0
LINE
8
BLACK
6
CONTINUOUS
10
1.73923
20
1.36472
11
1.85577
21
1.36472
0
LINE
8
BLACK
6
CONTINUOUS
10
1.85577
20
1.36472
11
1.85646
21
1.36444
0
LINE
8
BLACK
6
CONTINUOUS
10
1.85646
20
1.36444
11
1.85675
21
1.36374
0
LINE
8
BLACK
6
CONTINUOUS
10
1.85675
20
1.36374
11
1.85675
21
1.30626
0
LINE
8
BLACK
6
CONTINUOUS
10
1.85675
20
1.30626
11
1.85646
21
1.30556
0
LINE
8
BLACK
6
CONTINUOUS
10
1.85646
20
1.30556
11
1.85577
21
1.30528
0
LINE
8
BLACK
6
CONTINUOUS
10
1.85577
20
1.30528
11
1.73923
21
1.30528
0
LINE
8
BLACK
6
CONTINUOUS
10
1.73923
20
1.30528
11
1.73854
21
1.30556
0
LINE
8
BLACK
6
CONTINUOUS
10
1.74022
20
1.36276
11
1.74022
21
1.30724
0
LINE
8
BLACK
6
CONTINUOUS
10
1.74022
20
1.30724
11
1.85478
21
1.30724
0
LINE
8
BLACK
6
CONTINUOUS
10
1.85478
20
1.30724
11
1.85478
21
1.36276
0
LINE
8
BLACK
6
CONTINUOUS
10
1.85478
20
1.36276
11
1.74022
21
1.36276
0
LINE
8
BLACK
6
CONTINUOUS
10
2.79604
20
1.33556
11
2.79575
21
1.33626
0
LINE
8
BLACK
6
CONTINUOUS
10
2.79575
20
1.33626
11
2.79575
21
1.39374
0
LINE
8
BLACK
6
CONTINUOUS
10
2.79575
20
1.39374
11
2.79604
21
1.39444
0
LINE
8
BLACK
6
CONTINUOUS
10
2.79604
20
1.39444
11
2.79673
21
1.39472
0
LINE
8
BLACK
6
CONTINUOUS
10
2.79673
20
1.39472
11
2.91327
21
1.39472
0
LINE
8
BLACK
6
CONTINUOUS
10
2.91327
20
1.39472
11
2.91396
21
1.39444
0
LINE
8
BLACK
6
CONTINUOUS
10
2.91396
20
1.39444
11
2.91425
21
1.39374
0
LINE
8
BLACK
6
CONTINUOUS
10
2.91425
20
1.39374
11
2.91425
21
1.33626
0
LINE
8
BLACK
6
CONTINUOUS
10
2.91425
20
1.33626
11
2.91396
21
1.33556
0
LINE
8
BLACK
6
CONTINUOUS
10
2.91396
20
1.33556
11
2.91327
21
1.33528
0
LINE
8
BLACK
6
CONTINUOUS
10
2.91327
20
1.33528
11
2.79673
21
1.33528
0
LINE
8
BLACK
6
CONTINUOUS
10
2.79673
20
1.33528
11
2.79604
21
1.33556
0
LINE
8
BLACK
6
CONTINUOUS
10
2.79772
20
1.39276
11
2.79772
21
1.33724
0
LINE
8
BLACK
6
CONTINUOUS
10
2.79772
20
1.33724
11
2.91228
21
1.33724
0
LINE
8
BLACK
6
CONTINUOUS
10
2.91228
20
1.33724
11
2.91228
21
1.39276
0
LINE
8
BLACK
6
CONTINUOUS
10
2.91228
20
1.39276
11
2.79772
21
1.39276
0
LINE
8
BLACK
6
CONTINUOUS
10
3.18174
20
1.37009
11
3.18146
21
1.37079
0
LINE
8
BLACK
6
CONTINUOUS
10
3.18146
20
1.37079
11
3.18146
21
1.46921
0
LINE
8
BLACK
6
CONTINUOUS
10
3.18146
20
1.46921
11
3.18174
21
1.46991
0
LINE
8
BLACK
6
CONTINUOUS
10
3.18174
20
1.46991
11
3.18244
21
1.4702
0
LINE
8
BLACK
6
CONTINUOUS
10
3.18244
20
1.4702
11
3.23756
21
1.4702
0
LINE
8
BLACK
6
CONTINUOUS
10
3.23756
20
1.4702
11
3.23826
21
1.46991
0
LINE
8
BLACK
6
CONTINUOUS
10
3.23826
20
1.46991
11
3.23854
21
1.46921
0
LINE
8
BLACK
6
CONTINUOUS
10
3.23854
20
1.46921
11
3.23854
21
1.37079
0
LINE
8
BLACK
6
CONTINUOUS
10
3.23854
20
1.37079
11
3.23826
21
1.37009
0
LINE
8
BLACK
6
CONTINUOUS
10
3.23826
20
1.37009
11
3.23756
21
1.3698
0
LINE
8
BLACK
6
CONTINUOUS
10
3.23756
20
1.3698
11
3.18244
21
1.3698
0
LINE
8
BLACK
6
CONTINUOUS
10
3.18244
20
1.3698
11
3.18174
21
1.37009
0
LINE
8
BLACK
6
CONTINUOUS
10
3.18343
20
1.46823
11
3.18343
21
1.37177
0
LINE
8
BLACK
6
CONTINUOUS
10
3.18343
20
1.37177
11
3.23657
21
1.37177
0
LINE
8
BLACK
6
CONTINUOUS
10
3.23657
20
1.37177
11
3.23657
21
1.46823
0
LINE
8
BLACK
6
CONTINUOUS
10
3.23657
20
1.46823
11
3.18343
21
1.46823
0
LINE
8
BLACK
6
CONTINUOUS
10
2.79604
20
1.42056
11
2.79575
21
1.42126
0
LINE
8
BLACK
6
CONTINUOUS
10
2.79575
20
1.42126
11
2.79575
21
1.47874
0
LINE
8
BLACK
6
CONTINUOUS
10
2.79575
20
1.47874
11
2.79604
21
1.47944
0
LINE
8
BLACK
6
CONTINUOUS
10
2.79604
20
1.47944
11
2.79673
21
1.47972
0
LINE
8
BLACK
6
CONTINUOUS
10
2.79673
20
1.47972
11
2.91327
21
1.47972
0
LINE
8
BLACK
6
CONTINUOUS
10
2.91327
20
1.47972
11
2.91396
21
1.47944
0
LINE
8
BLACK
6
CONTINUOUS
10
2.91396
20
1.47944
11
2.91425
21
1.47874
0
LINE
8
BLACK
6
CONTINUOUS
10
2.91425
20
1.47874
11
2.91425
21
1.42126
0
LINE
8
BLACK
6
CONTINUOUS
10
2.91425
20
1.42126
11
2.91396
21
1.42056
0
LINE
8
BLACK
6
CONTINUOUS
10
2.91396
20
1.42056
11
2.91327
21
1.42028
0
LINE
8
BLACK
6
CONTINUOUS
10
2.91327
20
1.42028
11
2.79673
21
1.42028
0
LINE
8
BLACK
6
CONTINUOUS
10
2.79673
20
1.42028
11
2.79604
21
1.42056
0
LINE
8
BLACK
6
CONTINUOUS
10
2.79772
20
1.47776
11
2.79772
21
1.42224
0
LINE
8
BLACK
6
CONTINUOUS
10
2.79772
20
1.42224
11
2.91228
21
1.42224
0
LINE
8
BLACK
6
CONTINUOUS
10
2.91228
20
1.42224
11
2.91228
21
1.47776
0
LINE
8
BLACK
6
CONTINUOUS
10
2.91228
20
1.47776
11
2.79772
21
1.47776
0
LINE
8
BLACK
6
CONTINUOUS
10
2.55785
20
1.4221
11
2.55756
21
1.4228
0
LINE
8
BLACK
6
CONTINUOUS
10
2.55756
20
1.4228
11
2.55756
21
1.5472
0
LINE
8
BLACK
6
CONTINUOUS
10
2.55756
20
1.5472
11
2.55785
21
1.5479
0
LINE
8
BLACK
6
CONTINUOUS
10
2.55785
20
1.5479
11
2.55854
21
1.54819
0
LINE
8
BLACK
6
CONTINUOUS
10
2.55854
20
1.54819
11
2.75146
21
1.54819
0
LINE
8
BLACK
6
CONTINUOUS
10
2.75146
20
1.54819
11
2.75215
21
1.5479
0
LINE
8
BLACK
6
CONTINUOUS
10
2.75215
20
1.5479
11
2.75244
21
1.5472
0
LINE
8
BLACK
6
CONTINUOUS
10
2.75244
20
1.5472
11
2.75244
21
1.4228
0
LINE
8
BLACK
6
CONTINUOUS
10
2.75244
20
1.4228
11
2.75215
21
1.4221
0
LINE
8
BLACK
6
CONTINUOUS
10
2.75215
20
1.4221
11
2.75146
21
1.42181
0
LINE
8
BLACK
6
CONTINUOUS
10
2.75146
20
1.42181
11
2.55854
21
1.42181
0
LINE
8
BLACK
6
CONTINUOUS
10
2.55854
20
1.42181
11
2.55785
21
1.4221
0
LINE
8
BLACK
6
CONTINUOUS
10
2.55953
20
1.54622
11
2.55953
21
1.42378
0
LINE
8
BLACK
6
CONTINUOUS
10
2.55953
20
1.42378
11
2.75047
21
1.42378
0
LINE
8
BLACK
6
CONTINUOUS
10
2.75047
20
1.42378
11
2.75047
21
1.54622
0
LINE
8
BLACK
6
CONTINUOUS
10
2.75047
20
1.54622
11
2.55953
21
1.54622
0
LINE
8
BLACK
6
CONTINUOUS
10
2.48056
20
1.42354
11
2.48028
21
1.42423
0
LINE
8
BLACK
6
CONTINUOUS
10
2.48028
20
1.42423
11
2.48028
21
1.54077
0
LINE
8
BLACK
6
CONTINUOUS
10
2.48028
20
1.54077
11
2.48056
21
1.54146
0
LINE
8
BLACK
6
CONTINUOUS
10
2.48056
20
1.54146
11
2.48126
21
1.54175
0
LINE
8
BLACK
6
CONTINUOUS
10
2.48126
20
1.54175
11
2.53874
21
1.54175
0
LINE
8
BLACK
6
CONTINUOUS
10
2.53874
20
1.54175
11
2.53944
21
1.54146
0
LINE
8
BLACK
6
CONTINUOUS
10
2.53944
20
1.54146
11
2.53972
21
1.54077
0
LINE
8
BLACK
6
CONTINUOUS
10
2.53972
20
1.54077
11
2.53972
21
1.42423
0
LINE
8
BLACK
6
CONTINUOUS
10
2.53972
20
1.42423
11
2.53944
21
1.42354
0
LINE
8
BLACK
6
CONTINUOUS
10
2.53944
20
1.42354
11
2.53874
21
1.42325
0
LINE
8
BLACK
6
CONTINUOUS
10
2.53874
20
1.42325
11
2.48126
21
1.42325
0
LINE
8
BLACK
6
CONTINUOUS
10
2.48126
20
1.42325
11
2.48056
21
1.42354
0
LINE
8
BLACK
6
CONTINUOUS
10
2.48224
20
1.53978
11
2.48224
21
1.42522
0
LINE
8
BLACK
6
CONTINUOUS
10
2.48224
20
1.42522
11
2.53776
21
1.42522
0
LINE
8
BLACK
6
CONTINUOUS
10
2.53776
20
1.42522
11
2.53776
21
1.53978
0
LINE
8
BLACK
6
CONTINUOUS
10
2.53776
20
1.53978
11
2.48224
21
1.53978
0
LINE
8
BLACK
6
CONTINUOUS
10
3.18056
20
1.49104
11
3.18028
21
1.49173
0
LINE
8
BLACK
6
CONTINUOUS
10
3.18028
20
1.49173
11
3.18028
21
1.60827
0
LINE
8
BLACK
6
CONTINUOUS
10
3.18028
20
1.60827
11
3.18056
21
1.60896
0
LINE
8
BLACK
6
CONTINUOUS
10
3.18056
20
1.60896
11
3.18126
21
1.60925
0
LINE
8
BLACK
6
CONTINUOUS
10
3.18126
20
1.60925
11
3.23874
21
1.60925
0
LINE
8
BLACK
6
CONTINUOUS
10
3.23874
20
1.60925
11
3.23944
21
1.60896
0
LINE
8
BLACK
6
CONTINUOUS
10
3.23944
20
1.60896
11
3.23972
21
1.60827
0
LINE
8
BLACK
6
CONTINUOUS
10
3.23972
20
1.60827
11
3.23972
21
1.49173
0
LINE
8
BLACK
6
CONTINUOUS
10
3.23972
20
1.49173
11
3.23944
21
1.49104
0
LINE
8
BLACK
6
CONTINUOUS
10
3.23944
20
1.49104
11
3.23874
21
1.49075
0
LINE
8
BLACK
6
CONTINUOUS
10
3.23874
20
1.49075
11
3.18126
21
1.49075
0
LINE
8
BLACK
6
CONTINUOUS
10
3.18126
20
1.49075
11
3.18056
21
1.49104
0
LINE
8
BLACK
6
CONTINUOUS
10
3.18224
20
1.60728
11
3.18224
21
1.49272
0
LINE
8
BLACK
6
CONTINUOUS
10
3.18224
20
1.49272
11
3.23776
21
1.49272
0
LINE
8
BLACK
6
CONTINUOUS
10
3.23776
20
1.49272
11
3.23776
21
1.60728
0
LINE
8
BLACK
6
CONTINUOUS
10
3.23776
20
1.60728
11
3.18224
21
1.60728
0
LINE
8
BLACK
6
CONTINUOUS
10
2.9686
20
1.49237
11
2.96831
21
1.49307
0
LINE
8
BLACK
6
CONTINUOUS
10
2.96831
20
1.49307
11
2.96831
21
1.62693
0
LINE
8
BLACK
6
CONTINUOUS
10
2.96831
20
1.62693
11
2.9686
21
1.62763
0
LINE
8
BLACK
6
CONTINUOUS
10
2.9686
20
1.62763
11
2.96929
21
1.62791
0
LINE
8
BLACK
6
CONTINUOUS
10
2.96929
20
1.62791
11
3.13071
21
1.62791
0
LINE
8
BLACK
6
CONTINUOUS
10
3.13071
20
1.62791
11
3.1314
21
1.62763
0
LINE
8
BLACK
6
CONTINUOUS
10
3.1314
20
1.62763
11
3.13169
21
1.62693
0
LINE
8
BLACK
6
CONTINUOUS
10
3.13169
20
1.62693
11
3.13169
21
1.49307
0
LINE
8
BLACK
6
CONTINUOUS
10
3.13169
20
1.49307
11
3.1314
21
1.49237
0
LINE
8
BLACK
6
CONTINUOUS
10
3.1314
20
1.49237
11
3.13071
21
1.49209
0
LINE
8
BLACK
6
CONTINUOUS
10
3.13071
20
1.49209
11
2.96929
21
1.49209
0
LINE
8
BLACK
6
CONTINUOUS
10
2.96929
20
1.49209
11
2.9686
21
1.49237
0
LINE
8
BLACK
6
CONTINUOUS
10
2.97028
20
1.62594
11
2.97028
21
1.49406
0
LINE
8
BLACK
6
CONTINUOUS
10
2.97028
20
1.49406
11
3.12972
21
1.49406
0
LINE
8
BLACK
6
CONTINUOUS
10
3.12972
20
1.49406
11
3.12972
21
1.62594
0
LINE
8
BLACK
6
CONTINUOUS
10
3.12972
20
1.62594
11
2.97028
21
1.62594
0
LINE
8
BLACK
6
CONTINUOUS
10
2.53007
20
1.57686
11
2.52978
21
1.57756
0
LINE
8
BLACK
6
CONTINUOUS
10
2.52978
20
1.57756
11
2.52978
21
1.63504
0
LINE
8
BLACK
6
CONTINUOUS
10
2.52978
20
1.63504
11
2.53007
21
1.63574
0
LINE
8
BLACK
6
CONTINUOUS
10
2.53007
20
1.63574
11
2.53077
21
1.63602
0
LINE
8
BLACK
6
CONTINUOUS
10
2.53077
20
1.63602
11
2.6473
21
1.63602
0
LINE
8
BLACK
6
CONTINUOUS
10
2.6473
20
1.63602
11
2.648
21
1.63574
0
LINE
8
BLACK
6
CONTINUOUS
10
2.648
20
1.63574
11
2.64829
21
1.63504
0
LINE
8
BLACK
6
CONTINUOUS
10
2.64829
20
1.63504
11
2.64829
21
1.57756
0
LINE
8
BLACK
6
CONTINUOUS
10
2.64829
20
1.57756
11
2.648
21
1.57686
0
LINE
8
BLACK
6
CONTINUOUS
10
2.648
20
1.57686
11
2.6473
21
1.57657
0
LINE
8
BLACK
6
CONTINUOUS
10
2.6473
20
1.57657
11
2.53077
21
1.57657
0
LINE
8
BLACK
6
CONTINUOUS
10
2.53077
20
1.57657
11
2.53007
21
1.57686
0
LINE
8
BLACK
6
CONTINUOUS
10
2.53175
20
1.63406
11
2.53175
21
1.57854
0
LINE
8
BLACK
6
CONTINUOUS
10
2.53175
20
1.57854
11
2.64632
21
1.57854
0
LINE
8
BLACK
6
CONTINUOUS
10
2.64632
20
1.57854
11
2.64632
21
1.63406
0
LINE
8
BLACK
6
CONTINUOUS
10
2.64632
20
1.63406
11
2.53175
21
1.63406
0
LINE
8
BLACK
6
CONTINUOUS
10
3.18056
20
1.71104
11
3.18028
21
1.71173
0
LINE
8
BLACK
6
CONTINUOUS
10
3.18028
20
1.71173
11
3.18028
21
1.82827
0
LINE
8
BLACK
6
CONTINUOUS
10
3.18028
20
1.82827
11
3.18056
21
1.82896
0
LINE
8
BLACK
6
CONTINUOUS
10
3.18056
20
1.82896
11
3.18126
21
1.82925
0
LINE
8
BLACK
6
CONTINUOUS
10
3.18126
20
1.82925
11
3.23874
21
1.82925
0
LINE
8
BLACK
6
CONTINUOUS
10
3.23874
20
1.82925
11
3.23944
21
1.82896
0
LINE
8
BLACK
6
CONTINUOUS
10
3.23944
20
1.82896
11
3.23972
21
1.82827
0
LINE
8
BLACK
6
CONTINUOUS
10
3.23972
20
1.82827
11
3.23972
21
1.71173
0
LINE
8
BLACK
6
CONTINUOUS
10
3.23972
20
1.71173
11
3.23944
21
1.71104
0
LINE
8
BLACK
6
CONTINUOUS
10
3.23944
20
1.71104
11
3.23874
21
1.71075
0
LINE
8
BLACK
6
CONTINUOUS
10
3.23874
20
1.71075
11
3.18126
21
1.71075
0
LINE
8
BLACK
6
CONTINUOUS
10
3.18126
20
1.71075
11
3.18056
21
1.71104
0
LINE
8
BLACK
6
CONTINUOUS
10
3.18224
20
1.82728
11
3.18224
21
1.71272
0
LINE
8
BLACK
6
CONTINUOUS
10
3.18224
20
1.71272
11
3.23776
21
1.71272
0
LINE
8
BLACK
6
CONTINUOUS
10
3.23776
20
1.71272
11
3.23776
21
1.82728
0
LINE
8
BLACK
6
CONTINUOUS
10
3.23776
20
1.82728
11
3.18224
21
1.82728
0
LINE
8
BLACK
6
CONTINUOUS
10
2.59056
20
1.71104
11
2.59028
21
1.71173
0
LINE
8
BLACK
6
CONTINUOUS
10
2.59028
20
1.71173
11
2.59028
21
1.82827
0
LINE
8
BLACK
6
CONTINUOUS
10
2.59028
20
1.82827
11
2.59056
21
1.82896
0
LINE
8
BLACK
6
CONTINUOUS
10
2.59056
20
1.82896
11
2.59126
21
1.82925
0
LINE
8
BLACK
6
CONTINUOUS
10
2.59126
20
1.82925
11
2.64874
21
1.82925
0
LINE
8
BLACK
6
CONTINUOUS
10
2.64874
20
1.82925
11
2.64944
21
1.82896
0
LINE
8
BLACK
6
CONTINUOUS
10
2.64944
20
1.82896
11
2.64972
21
1.82827
0
LINE
8
BLACK
6
CONTINUOUS
10
2.64972
20
1.82827
11
2.64972
21
1.71173
0
LINE
8
BLACK
6
CONTINUOUS
10
2.64972
20
1.71173
11
2.64944
21
1.71104
0
LINE
8
BLACK
6
CONTINUOUS
10
2.64944
20
1.71104
11
2.64874
21
1.71075
0
LINE
8
BLACK
6
CONTINUOUS
10
2.64874
20
1.71075
11
2.59126
21
1.71075
0
LINE
8
BLACK
6
CONTINUOUS
10
2.59126
20
1.71075
11
2.59056
21
1.71104
0
LINE
8
BLACK
6
CONTINUOUS
10
2.59224
20
1.82728
11
2.59224
21
1.71272
0
LINE
8
BLACK
6
CONTINUOUS
10
2.59224
20
1.71272
11
2.64776
21
1.71272
0
LINE
8
BLACK
6
CONTINUOUS
10
2.64776
20
1.71272
11
2.64776
21
1.82728
0
LINE
8
BLACK
6
CONTINUOUS
10
2.64776
20
1.82728
11
2.59224
21
1.82728
0
LINE
8
BLACK
6
CONTINUOUS
10
1.95002
20
1.88247
11
1.94973
21
1.88317
0
LINE
8
BLACK
6
CONTINUOUS
10
1.94973
20
1.88317
11
1.94973
21
1.94065
0
LINE
8
BLACK
6
CONTINUOUS
10
1.94973
20
1.94065
11
1.95002
21
1.94134
0
LINE
8
BLACK
6
CONTINUOUS
10
1.95002
20
1.94134
11
1.95071
21
1.94163
0
LINE
8
BLACK
6
CONTINUOUS
10
1.95071
20
1.94163
11
2.06725
21
1.94163
0
LINE
8
BLACK
6
CONTINUOUS
10
2.06725
20
1.94163
11
2.06794
21
1.94134
0
LINE
8
BLACK
6
CONTINUOUS
10
2.06794
20
1.94134
11
2.06823
21
1.94065
0
LINE
8
BLACK
6
CONTINUOUS
10
2.06823
20
1.94065
11
2.06823
21
1.88317
0
LINE
8
BLACK
6
CONTINUOUS
10
2.06823
20
1.88317
11
2.06794
21
1.88247
0
LINE
8
BLACK
6
CONTINUOUS
10
2.06794
20
1.88247
11
2.06725
21
1.88218
0
LINE
8
BLACK
6
CONTINUOUS
10
2.06725
20
1.88218
11
1.95071
21
1.88218
0
LINE
8
BLACK
6
CONTINUOUS
10
1.95071
20
1.88218
11
1.95002
21
1.88247
0
LINE
8
BLACK
6
CONTINUOUS
10
1.9517
20
1.93966
11
1.9517
21
1.88415
0
LINE
8
BLACK
6
CONTINUOUS
10
1.9517
20
1.88415
11
2.06626
21
1.88415
0
LINE
8
BLACK
6
CONTINUOUS
10
2.06626
20
1.88415
11
2.06626
21
1.93966
0
LINE
8
BLACK
6
CONTINUOUS
10
2.06626
20
1.93966
11
1.9517
21
1.93966
  0
ENDSEC
  0
EOF
