  0
SECTION
  2
HEADER
  9
$ANGBASE
  50
0.0
  9
$ANGDIR
  70
1
  9
$MEASUREMENT
  70
0
  0
ENDSEC
  0
SECTION
  2
TABLES
  0
TABLE
  2
LTYPE
  70
4
  0
LTYPE
  5
40F
  2
CONTINUOUS
  70
0
  3
Solid line
  72
65
  73
0
  40
0.0
  0
LTYPE
  5
410
  2
DASHDOT
 70
0
  3
Dash Dot ____ _ ____ _
 72
65
 73
4
 40
2.0
 49
1.25
 49
-0.25
 49
0.25
 49
-0.25
  0
LTYPE
  5
411
  2
DASHED
 70
0
  3
Dashed __ __ __ __ __
 72
65
 73
2
 40
0.75
 49
0.5
 49
-0.25
  0
LTYPE
  5
43B
  2
DOTTED
 70
0
  3
Dotted .  .  .  .
 72
65
 73
2
 40
0.2
 49
0.0
 49
-0.2
  0
ENDTAB
  0
TABLE
  2
STYLE
  70
4
  0
STYLE
  2
KICAD
  70
0
  40
0
  41
1
  42
1
  50
0
  71
0
  3
isocp.shx
  0
STYLE
  2
KICADB
  70
0
  40
0
  41
1
  42
1
  50
0
  71
0
  3
isocp.shx
  0
STYLE
  2
KICADI
  70
0
  40
0
  41
1
  42
1
  50
15
  71
0
  3
isocp.shx
  0
STYLE
  2
KICADBI
  70
0
  40
0
  41
1
  42
1
  50
15
  71
0
  3
isocp.shx
  0
ENDTAB
  0
TABLE
  2
LAYER
  70
1
  0
LAYER
  2
BLACK
  70
0
  62
7
  6
CONTINUOUS
  0
ENDTAB
  0
ENDSEC
  0
SECTION
  2
ENTITIES
0
LINE
8
BLACK
6
CONTINUOUS
10
5.0003930708661413
20
-4.7347068897637792
11
5.0078843307086611
21
-4.7371409842519681
0
LINE
8
BLACK
6
CONTINUOUS
10
5.0078843307086611
20
-4.7371409842519681
11
5.0149026377952755
21
-4.7407169685039365
0
LINE
8
BLACK
6
CONTINUOUS
10
5.0149026377952755
20
-4.7407169685039365
11
5.0212750787401577
21
-4.7453468110236221
0
LINE
8
BLACK
6
CONTINUOUS
10
5.0212750787401577
20
-4.7453468110236221
11
5.0268448425196848
21
-4.7509165748031492
0
LINE
8
BLACK
6
CONTINUOUS
10
5.0268448425196848
20
-4.7509165748031492
11
5.0314746850393703
21
-4.7572890157480314
0
LINE
8
BLACK
6
CONTINUOUS
10
5.0314746850393703
20
-4.7572890157480314
11
5.0350506692913388
21
-4.7643073228346458
0
LINE
8
BLACK
6
CONTINUOUS
10
5.0350506692913388
20
-4.7643073228346458
11
5.0374847637795277
21
-4.7717985826771656
0
LINE
8
BLACK
6
CONTINUOUS
10
5.0374847637795277
20
-4.7717985826771656
11
5.0387169685039366
21
-4.7795784251968501
0
LINE
8
BLACK
6
CONTINUOUS
10
5.0387169685039366
20
-4.7795784251968501
11
5.0387169685039366
21
-4.7874551968503933
0
LINE
8
BLACK
6
CONTINUOUS
10
5.0387169685039366
20
-4.7874551968503933
11
5.0374847637795277
21
-4.7952350393700787
0
LINE
8
BLACK
6
CONTINUOUS
10
5.0374847637795277
20
-4.7952350393700787
11
5.0350506692913388
21
-4.8027262992125985
0
LINE
8
BLACK
6
CONTINUOUS
10
5.0350506692913388
20
-4.8027262992125985
11
5.0314746850393703
21
-4.8097446062992129
0
LINE
8
BLACK
6
CONTINUOUS
10
5.0314746850393703
20
-4.8097446062992129
11
5.0268448425196848
21
-4.8161170472440942
0
LINE
8
BLACK
6
CONTINUOUS
10
5.0268448425196848
20
-4.8161170472440942
11
5.0212750787401577
21
-4.8216868110236222
0
LINE
8
BLACK
6
CONTINUOUS
10
5.0212750787401577
20
-4.8216868110236222
11
5.0149026377952755
21
-4.8263166535433069
0
LINE
8
BLACK
6
CONTINUOUS
10
5.0149026377952755
20
-4.8263166535433069
11
5.0078843307086611
21
-4.8298926377952753
0
LINE
8
BLACK
6
CONTINUOUS
10
5.0078843307086611
20
-4.8298926377952753
11
5.0003930708661413
21
-4.8323267322834642
0
LINE
8
BLACK
6
CONTINUOUS
10
5.0003930708661413
20
-4.8323267322834642
11
4.9926132283464568
21
-4.833558937007874
0
LINE
8
BLACK
6
CONTINUOUS
10
4.9926132283464568
20
-4.833558937007874
11
4.9847364566929135
21
-4.833558937007874
0
LINE
8
BLACK
6
CONTINUOUS
10
4.9847364566929135
20
-4.833558937007874
11
4.9769566141732282
21
-4.8323267322834642
0
LINE
8
BLACK
6
CONTINUOUS
10
4.9769566141732282
20
-4.8323267322834642
11
4.9694653543307084
21
-4.8298926377952753
0
LINE
8
BLACK
6
CONTINUOUS
10
4.9694653543307084
20
-4.8298926377952753
11
4.962447047244094
21
-4.8263166535433069
0
LINE
8
BLACK
6
CONTINUOUS
10
4.962447047244094
20
-4.8263166535433069
11
4.9560746062992127
21
-4.8216868110236222
0
LINE
8
BLACK
6
CONTINUOUS
10
4.9560746062992127
20
-4.8216868110236222
11
4.9505048425196847
21
-4.8161170472440942
0
LINE
8
BLACK
6
CONTINUOUS
10
4.9505048425196847
20
-4.8161170472440942
11
4.945875
21
-4.8097446062992129
0
LINE
8
BLACK
6
CONTINUOUS
10
4.945875
20
-4.8097446062992129
11
4.9422990157480315
21
-4.8027262992125985
0
LINE
8
BLACK
6
CONTINUOUS
10
4.9422990157480315
20
-4.8027262992125985
11
4.9398649212598427
21
-4.7952350393700787
0
LINE
8
BLACK
6
CONTINUOUS
10
4.9398649212598427
20
-4.7952350393700787
11
4.9386327165354329
21
-4.7874551968503933
0
LINE
8
BLACK
6
CONTINUOUS
10
4.9386327165354329
20
-4.7874551968503933
11
4.9386327165354329
21
-4.7797211417322831
0
LINE
8
BLACK
6
CONTINUOUS
10
4.9386327165354329
20
-4.7797211417322831
11
4.9386327165354329
21
-4.7795784251968501
0
LINE
8
BLACK
6
CONTINUOUS
10
4.9386327165354329
20
-4.7795784251968501
11
4.9398649212598427
21
-4.7717985826771656
0
LINE
8
BLACK
6
CONTINUOUS
10
4.9398649212598427
20
-4.7717985826771656
11
4.9422990157480315
21
-4.7643073228346458
0
LINE
8
BLACK
6
CONTINUOUS
10
4.9422990157480315
20
-4.7643073228346458
11
4.945875
21
-4.7572890157480314
0
LINE
8
BLACK
6
CONTINUOUS
10
4.945875
20
-4.7572890157480314
11
4.9505048425196847
21
-4.7509165748031492
0
LINE
8
BLACK
6
CONTINUOUS
10
4.9505048425196847
20
-4.7509165748031492
11
4.9560746062992127
21
-4.7453468110236221
0
LINE
8
BLACK
6
CONTINUOUS
10
4.9560746062992127
20
-4.7453468110236221
11
4.962447047244094
21
-4.7407169685039365
0
LINE
8
BLACK
6
CONTINUOUS
10
4.962447047244094
20
-4.7407169685039365
11
4.9694653543307084
21
-4.7371409842519681
0
LINE
8
BLACK
6
CONTINUOUS
10
4.9694653543307084
20
-4.7371409842519681
11
4.9769566141732282
21
-4.7347068897637792
0
LINE
8
BLACK
6
CONTINUOUS
10
4.9769566141732282
20
-4.7347068897637792
11
4.9847364566929135
21
-4.7334746850393703
0
LINE
8
BLACK
6
CONTINUOUS
10
4.9847364566929135
20
-4.7334746850393703
11
4.9926132283464568
21
-4.7334746850393703
0
LINE
8
BLACK
6
CONTINUOUS
10
4.9926132283464568
20
-4.7334746850393703
11
5.0003930708661413
21
-4.7347068897637792
0
LINE
8
BLACK
6
CONTINUOUS
10
4.9404464960629921
20
-4.7873124803149603
11
4.9416340551181097
21
-4.79481031496063
0
LINE
8
BLACK
6
CONTINUOUS
10
4.9416340551181097
20
-4.79481031496063
11
4.9439798818897636
21
-4.8020300787401577
0
LINE
8
BLACK
6
CONTINUOUS
10
4.9439798818897636
20
-4.8020300787401577
11
4.9474262598425192
21
-4.8087939763779524
0
LINE
8
BLACK
6
CONTINUOUS
10
4.9474262598425192
20
-4.8087939763779524
11
4.9518883070866142
21
-4.8149354724409443
0
LINE
8
BLACK
6
CONTINUOUS
10
4.9518883070866142
20
-4.8149354724409443
11
4.9572561811023617
21
-4.8203033464566927
0
LINE
8
BLACK
6
CONTINUOUS
10
4.9572561811023617
20
-4.8203033464566927
11
4.9633976771653545
21
-4.8247653937007877
0
LINE
8
BLACK
6
CONTINUOUS
10
4.9633976771653545
20
-4.8247653937007877
11
4.9701615748031491
21
-4.8282117716535433
0
LINE
8
BLACK
6
CONTINUOUS
10
4.9701615748031491
20
-4.8282117716535433
11
4.9773813385826768
21
-4.8305575984251972
0
LINE
8
BLACK
6
CONTINUOUS
10
4.9773813385826768
20
-4.8305575984251972
11
4.9848791732283466
21
-4.8317451574803147
0
LINE
8
BLACK
6
CONTINUOUS
10
4.9848791732283466
20
-4.8317451574803147
11
4.9924705118110237
21
-4.8317451574803147
0
LINE
8
BLACK
6
CONTINUOUS
10
4.9924705118110237
20
-4.8317451574803147
11
4.9999683464566926
21
-4.8305575984251972
0
LINE
8
BLACK
6
CONTINUOUS
10
4.9999683464566926
20
-4.8305575984251972
11
5.0071881102362203
21
-4.8282117716535433
0
LINE
8
BLACK
6
CONTINUOUS
10
5.0071881102362203
20
-4.8282117716535433
11
5.0139520078740158
21
-4.8247653937007877
0
LINE
8
BLACK
6
CONTINUOUS
10
5.0139520078740158
20
-4.8247653937007877
11
5.0200935039370078
21
-4.8203033464566927
0
LINE
8
BLACK
6
CONTINUOUS
10
5.0200935039370078
20
-4.8203033464566927
11
5.0254613779527562
21
-4.8149354724409443
0
LINE
8
BLACK
6
CONTINUOUS
10
5.0254613779527562
20
-4.8149354724409443
11
5.0299234251968503
21
-4.8087939763779524
0
LINE
8
BLACK
6
CONTINUOUS
10
5.0299234251968503
20
-4.8087939763779524
11
5.0333698031496059
21
-4.8020300787401577
0
LINE
8
BLACK
6
CONTINUOUS
10
5.0333698031496059
20
-4.8020300787401577
11
5.0357156299212598
21
-4.79481031496063
0
LINE
8
BLACK
6
CONTINUOUS
10
5.0357156299212598
20
-4.79481031496063
11
5.0369031889763782
21
-4.7873124803149603
0
LINE
8
BLACK
6
CONTINUOUS
10
5.0369031889763782
20
-4.7873124803149603
11
5.0369031889763782
21
-4.7797211417322831
0
LINE
8
BLACK
6
CONTINUOUS
10
5.0369031889763782
20
-4.7797211417322831
11
5.0357156299212598
21
-4.7722233070866142
0
LINE
8
BLACK
6
CONTINUOUS
10
5.0357156299212598
20
-4.7722233070866142
11
5.0333698031496059
21
-4.7650035433070865
0
LINE
8
BLACK
6
CONTINUOUS
10
5.0333698031496059
20
-4.7650035433070865
11
5.0299234251968503
21
-4.758239645669291
0
LINE
8
BLACK
6
CONTINUOUS
10
5.0299234251968503
20
-4.758239645669291
11
5.0254613779527562
21
-4.7520981496062991
0
LINE
8
BLACK
6
CONTINUOUS
10
5.0254613779527562
20
-4.7520981496062991
11
5.0200935039370078
21
-4.7467302755905507
0
LINE
8
BLACK
6
CONTINUOUS
10
5.0200935039370078
20
-4.7467302755905507
11
5.0139520078740158
21
-4.7422682283464566
0
LINE
8
BLACK
6
CONTINUOUS
10
5.0139520078740158
20
-4.7422682283464566
11
5.0071881102362203
21
-4.738821850393701
0
LINE
8
BLACK
6
CONTINUOUS
10
5.0071881102362203
20
-4.738821850393701
11
4.9999683464566926
21
-4.7364760236220471
0
LINE
8
BLACK
6
CONTINUOUS
10
4.9999683464566926
20
-4.7364760236220471
11
4.9924705118110237
21
-4.7352884645669286
0
LINE
8
BLACK
6
CONTINUOUS
10
4.9924705118110237
20
-4.7352884645669286
11
4.9848791732283466
21
-4.7352884645669286
0
LINE
8
BLACK
6
CONTINUOUS
10
4.9848791732283466
20
-4.7352884645669286
11
4.9773813385826768
21
-4.7364760236220471
0
LINE
8
BLACK
6
CONTINUOUS
10
4.9773813385826768
20
-4.7364760236220471
11
4.9701615748031491
21
-4.738821850393701
0
LINE
8
BLACK
6
CONTINUOUS
10
4.9701615748031491
20
-4.738821850393701
11
4.9633976771653545
21
-4.7422682283464566
0
LINE
8
BLACK
6
CONTINUOUS
10
4.9633976771653545
20
-4.7422682283464566
11
4.9572561811023617
21
-4.7467302755905507
0
LINE
8
BLACK
6
CONTINUOUS
10
4.9572561811023617
20
-4.7467302755905507
11
4.9518883070866142
21
-4.7520981496062991
0
LINE
8
BLACK
6
CONTINUOUS
10
4.9518883070866142
20
-4.7520981496062991
11
4.9474262598425192
21
-4.758239645669291
0
LINE
8
BLACK
6
CONTINUOUS
10
4.9474262598425192
20
-4.758239645669291
11
4.9439798818897636
21
-4.7650035433070865
0
LINE
8
BLACK
6
CONTINUOUS
10
4.9439798818897636
20
-4.7650035433070865
11
4.9416340551181097
21
-4.7722233070866142
0
LINE
8
BLACK
6
CONTINUOUS
10
4.9416340551181097
20
-4.7722233070866142
11
4.9404464960629921
21
-4.7797211417322831
0
LINE
8
BLACK
6
CONTINUOUS
10
4.9404464960629921
20
-4.7797211417322831
11
4.9404464960629921
21
-4.7873124803149603
0
LINE
8
BLACK
6
CONTINUOUS
10
5.8722798425196849
20
-4.6068437007874019
11
5.8728125196850396
21
-4.6073763779527557
0
LINE
8
BLACK
6
CONTINUOUS
10
5.8728125196850396
20
-4.6073763779527557
11
5.8728874409448819
21
-4.6077530314960633
0
LINE
8
BLACK
6
CONTINUOUS
10
5.8728874409448819
20
-4.6077530314960633
11
5.8728874409448819
21
-4.7872805905511813
0
LINE
8
BLACK
6
CONTINUOUS
10
5.8728874409448819
20
-4.7872805905511813
11
5.8728125196850396
21
-4.787657244094488
0
LINE
8
BLACK
6
CONTINUOUS
10
5.8728125196850396
20
-4.787657244094488
11
5.8722798425196849
21
-4.7881899212598427
0
LINE
8
BLACK
6
CONTINUOUS
10
5.8722798425196849
20
-4.7881899212598427
11
5.8719031889763782
21
-4.788264842519685
0
LINE
8
BLACK
6
CONTINUOUS
10
5.8719031889763782
20
-4.788264842519685
11
5.7837142125984249
21
-4.788264842519685
0
LINE
8
BLACK
6
CONTINUOUS
10
5.7837142125984249
20
-4.788264842519685
11
5.7833375590551181
21
-4.7881899212598427
0
LINE
8
BLACK
6
CONTINUOUS
10
5.7833375590551181
20
-4.7881899212598427
11
5.7828048818897635
21
-4.787657244094488
0
LINE
8
BLACK
6
CONTINUOUS
10
5.7828048818897635
20
-4.787657244094488
11
5.7827299606299212
21
-4.7872805905511813
0
LINE
8
BLACK
6
CONTINUOUS
10
5.7827299606299212
20
-4.7872805905511813
11
5.7827299606299212
21
-4.6077530314960633
0
LINE
8
BLACK
6
CONTINUOUS
10
5.7827299606299212
20
-4.6077530314960633
11
5.7828048818897635
21
-4.6073763779527557
0
LINE
8
BLACK
6
CONTINUOUS
10
5.7828048818897635
20
-4.6073763779527557
11
5.7833375590551181
21
-4.6068437007874019
0
LINE
8
BLACK
6
CONTINUOUS
10
5.7833375590551181
20
-4.6068437007874019
11
5.7837142125984249
21
-4.6067687795275587
0
LINE
8
BLACK
6
CONTINUOUS
10
5.7837142125984249
20
-4.6067687795275587
11
5.8719031889763782
21
-4.6067687795275587
0
LINE
8
BLACK
6
CONTINUOUS
10
5.8719031889763782
20
-4.6067687795275587
11
5.8722798425196849
21
-4.6068437007874019
0
LINE
8
BLACK
6
CONTINUOUS
10
5.7846984645669286
20
-4.608737283464567
11
5.7846984645669286
21
-4.7862963385826767
0
LINE
8
BLACK
6
CONTINUOUS
10
5.7846984645669286
20
-4.7862963385826767
11
5.8709189370078736
21
-4.7862963385826767
0
LINE
8
BLACK
6
CONTINUOUS
10
5.8709189370078736
20
-4.7862963385826767
11
5.8709189370078736
21
-4.608737283464567
0
LINE
8
BLACK
6
CONTINUOUS
10
5.8709189370078736
20
-4.608737283464567
11
5.7846984645669286
21
-4.608737283464567
0
LINE
8
BLACK
6
CONTINUOUS
10
6.069130236220472
20
-4.6068437007874019
11
6.0696629133858266
21
-4.6073763779527557
0
LINE
8
BLACK
6
CONTINUOUS
10
6.0696629133858266
20
-4.6073763779527557
11
6.069737834645669
21
-4.6077530314960633
0
LINE
8
BLACK
6
CONTINUOUS
10
6.069737834645669
20
-4.6077530314960633
11
6.069737834645669
21
-4.7872805905511813
0
LINE
8
BLACK
6
CONTINUOUS
10
6.069737834645669
20
-4.7872805905511813
11
6.0696629133858266
21
-4.787657244094488
0
LINE
8
BLACK
6
CONTINUOUS
10
6.0696629133858266
20
-4.787657244094488
11
6.069130236220472
21
-4.7881899212598427
0
LINE
8
BLACK
6
CONTINUOUS
10
6.069130236220472
20
-4.7881899212598427
11
6.0687535826771652
21
-4.788264842519685
0
LINE
8
BLACK
6
CONTINUOUS
10
6.0687535826771652
20
-4.788264842519685
11
5.9805646062992128
21
-4.788264842519685
0
LINE
8
BLACK
6
CONTINUOUS
10
5.9805646062992128
20
-4.788264842519685
11
5.9801879527559052
21
-4.7881899212598427
0
LINE
8
BLACK
6
CONTINUOUS
10
5.9801879527559052
20
-4.7881899212598427
11
5.9796552755905514
21
-4.787657244094488
0
LINE
8
BLACK
6
CONTINUOUS
10
5.9796552755905514
20
-4.787657244094488
11
5.9795803543307082
21
-4.7872805905511813
0
LINE
8
BLACK
6
CONTINUOUS
10
5.9795803543307082
20
-4.7872805905511813
11
5.9795803543307082
21
-4.6077530314960633
0
LINE
8
BLACK
6
CONTINUOUS
10
5.9795803543307082
20
-4.6077530314960633
11
5.9796552755905514
21
-4.6073763779527557
0
LINE
8
BLACK
6
CONTINUOUS
10
5.9796552755905514
20
-4.6073763779527557
11
5.9801879527559052
21
-4.6068437007874019
0
LINE
8
BLACK
6
CONTINUOUS
10
5.9801879527559052
20
-4.6068437007874019
11
5.9805646062992128
21
-4.6067687795275587
0
LINE
8
BLACK
6
CONTINUOUS
10
5.9805646062992128
20
-4.6067687795275587
11
6.0687535826771652
21
-4.6067687795275587
0
LINE
8
BLACK
6
CONTINUOUS
10
6.0687535826771652
20
-4.6067687795275587
11
6.069130236220472
21
-4.6068437007874019
0
LINE
8
BLACK
6
CONTINUOUS
10
5.9815488582677165
20
-4.608737283464567
11
5.9815488582677165
21
-4.7862963385826767
0
LINE
8
BLACK
6
CONTINUOUS
10
5.9815488582677165
20
-4.7862963385826767
11
6.0677693307086615
21
-4.7862963385826767
0
LINE
8
BLACK
6
CONTINUOUS
10
6.0677693307086615
20
-4.7862963385826767
11
6.0677693307086615
21
-4.608737283464567
0
LINE
8
BLACK
6
CONTINUOUS
10
6.0677693307086615
20
-4.608737283464567
11
5.9815488582677165
21
-4.608737283464567
0
LINE
8
BLACK
6
CONTINUOUS
10
6.2659806299212599
20
-4.6068437007874019
11
6.2665133070866137
21
-4.6073763779527557
0
LINE
8
BLACK
6
CONTINUOUS
10
6.2665133070866137
20
-4.6073763779527557
11
6.2665882283464569
21
-4.6077530314960633
0
LINE
8
BLACK
6
CONTINUOUS
10
6.2665882283464569
20
-4.6077530314960633
11
6.2665882283464569
21
-4.7872805905511813
0
LINE
8
BLACK
6
CONTINUOUS
10
6.2665882283464569
20
-4.7872805905511813
11
6.2665133070866137
21
-4.787657244094488
0
LINE
8
BLACK
6
CONTINUOUS
10
6.2665133070866137
20
-4.787657244094488
11
6.2659806299212599
21
-4.7881899212598427
0
LINE
8
BLACK
6
CONTINUOUS
10
6.2659806299212599
20
-4.7881899212598427
11
6.2656039763779523
21
-4.788264842519685
0
LINE
8
BLACK
6
CONTINUOUS
10
6.2656039763779523
20
-4.788264842519685
11
6.1774149999999999
21
-4.788264842519685
0
LINE
8
BLACK
6
CONTINUOUS
10
6.1774149999999999
20
-4.788264842519685
11
6.1770383464566931
21
-4.7881899212598427
0
LINE
8
BLACK
6
CONTINUOUS
10
6.1770383464566931
20
-4.7881899212598427
11
6.1765056692913385
21
-4.787657244094488
0
LINE
8
BLACK
6
CONTINUOUS
10
6.1765056692913385
20
-4.787657244094488
11
6.1764307480314962
21
-4.7872805905511813
0
LINE
8
BLACK
6
CONTINUOUS
10
6.1764307480314962
20
-4.7872805905511813
11
6.1764307480314962
21
-4.6077530314960633
0
LINE
8
BLACK
6
CONTINUOUS
10
6.1764307480314962
20
-4.6077530314960633
11
6.1765056692913385
21
-4.6073763779527557
0
LINE
8
BLACK
6
CONTINUOUS
10
6.1765056692913385
20
-4.6073763779527557
11
6.1770383464566931
21
-4.6068437007874019
0
LINE
8
BLACK
6
CONTINUOUS
10
6.1770383464566931
20
-4.6068437007874019
11
6.1774149999999999
21
-4.6067687795275587
0
LINE
8
BLACK
6
CONTINUOUS
10
6.1774149999999999
20
-4.6067687795275587
11
6.2656039763779523
21
-4.6067687795275587
0
LINE
8
BLACK
6
CONTINUOUS
10
6.2656039763779523
20
-4.6067687795275587
11
6.2659806299212599
21
-4.6068437007874019
0
LINE
8
BLACK
6
CONTINUOUS
10
6.1783992519685036
20
-4.608737283464567
11
6.1783992519685036
21
-4.7862963385826767
0
LINE
8
BLACK
6
CONTINUOUS
10
6.1783992519685036
20
-4.7862963385826767
11
6.2646197244094486
21
-4.7862963385826767
0
LINE
8
BLACK
6
CONTINUOUS
10
6.2646197244094486
20
-4.7862963385826767
11
6.2646197244094486
21
-4.608737283464567
0
LINE
8
BLACK
6
CONTINUOUS
10
6.2646197244094486
20
-4.608737283464567
11
6.1783992519685036
21
-4.608737283464567
0
LINE
8
BLACK
6
CONTINUOUS
10
6.462831023622047
20
-4.6068437007874019
11
6.4633637007874016
21
-4.6073763779527557
0
LINE
8
BLACK
6
CONTINUOUS
10
6.4633637007874016
20
-4.6073763779527557
11
6.463438622047244
21
-4.6077530314960633
0
LINE
8
BLACK
6
CONTINUOUS
10
6.463438622047244
20
-4.6077530314960633
11
6.463438622047244
21
-4.7872805905511813
0
LINE
8
BLACK
6
CONTINUOUS
10
6.463438622047244
20
-4.7872805905511813
11
6.4633637007874016
21
-4.787657244094488
0
LINE
8
BLACK
6
CONTINUOUS
10
6.4633637007874016
20
-4.787657244094488
11
6.462831023622047
21
-4.7881899212598427
0
LINE
8
BLACK
6
CONTINUOUS
10
6.462831023622047
20
-4.7881899212598427
11
6.4624543700787402
21
-4.788264842519685
0
LINE
8
BLACK
6
CONTINUOUS
10
6.4624543700787402
20
-4.788264842519685
11
6.3742653937007869
21
-4.788264842519685
0
LINE
8
BLACK
6
CONTINUOUS
10
6.3742653937007869
20
-4.788264842519685
11
6.3738887401574802
21
-4.7881899212598427
0
LINE
8
BLACK
6
CONTINUOUS
10
6.3738887401574802
20
-4.7881899212598427
11
6.3733560629921255
21
-4.787657244094488
0
LINE
8
BLACK
6
CONTINUOUS
10
6.3733560629921255
20
-4.787657244094488
11
6.3732811417322832
21
-4.7872805905511813
0
LINE
8
BLACK
6
CONTINUOUS
10
6.3732811417322832
20
-4.7872805905511813
11
6.3732811417322832
21
-4.6077530314960633
0
LINE
8
BLACK
6
CONTINUOUS
10
6.3732811417322832
20
-4.6077530314960633
11
6.3733560629921255
21
-4.6073763779527557
0
LINE
8
BLACK
6
CONTINUOUS
10
6.3733560629921255
20
-4.6073763779527557
11
6.3738887401574802
21
-4.6068437007874019
0
LINE
8
BLACK
6
CONTINUOUS
10
6.3738887401574802
20
-4.6068437007874019
11
6.3742653937007869
21
-4.6067687795275587
0
LINE
8
BLACK
6
CONTINUOUS
10
6.3742653937007869
20
-4.6067687795275587
11
6.4624543700787402
21
-4.6067687795275587
0
LINE
8
BLACK
6
CONTINUOUS
10
6.4624543700787402
20
-4.6067687795275587
11
6.462831023622047
21
-4.6068437007874019
0
LINE
8
BLACK
6
CONTINUOUS
10
6.3752496456692915
20
-4.608737283464567
11
6.3752496456692915
21
-4.7862963385826767
0
LINE
8
BLACK
6
CONTINUOUS
10
6.3752496456692915
20
-4.7862963385826767
11
6.4614701181102356
21
-4.7862963385826767
0
LINE
8
BLACK
6
CONTINUOUS
10
6.4614701181102356
20
-4.7862963385826767
11
6.4614701181102356
21
-4.608737283464567
0
LINE
8
BLACK
6
CONTINUOUS
10
6.4614701181102356
20
-4.608737283464567
11
6.3752496456692915
21
-4.608737283464567
0
LINE
8
BLACK
6
CONTINUOUS
10
6.6596814173228349
20
-4.6068437007874019
11
6.6602140944881887
21
-4.6073763779527557
0
LINE
8
BLACK
6
CONTINUOUS
10
6.6602140944881887
20
-4.6073763779527557
11
6.660289015748031
21
-4.6077530314960633
0
LINE
8
BLACK
6
CONTINUOUS
10
6.660289015748031
20
-4.6077530314960633
11
6.660289015748031
21
-4.7872805905511813
0
LINE
8
BLACK
6
CONTINUOUS
10
6.660289015748031
20
-4.7872805905511813
11
6.6602140944881887
21
-4.787657244094488
0
LINE
8
BLACK
6
CONTINUOUS
10
6.6602140944881887
20
-4.787657244094488
11
6.6596814173228349
21
-4.7881899212598427
0
LINE
8
BLACK
6
CONTINUOUS
10
6.6596814173228349
20
-4.7881899212598427
11
6.6593047637795273
21
-4.788264842519685
0
LINE
8
BLACK
6
CONTINUOUS
10
6.6593047637795273
20
-4.788264842519685
11
6.5711157874015749
21
-4.788264842519685
0
LINE
8
BLACK
6
CONTINUOUS
10
6.5711157874015749
20
-4.788264842519685
11
6.5707391338582672
21
-4.7881899212598427
0
LINE
8
BLACK
6
CONTINUOUS
10
6.5707391338582672
20
-4.7881899212598427
11
6.5702064566929135
21
-4.787657244094488
0
LINE
8
BLACK
6
CONTINUOUS
10
6.5702064566929135
20
-4.787657244094488
11
6.5701315354330712
21
-4.7872805905511813
0
LINE
8
BLACK
6
CONTINUOUS
10
6.5701315354330712
20
-4.7872805905511813
11
6.5701315354330712
21
-4.6077530314960633
0
LINE
8
BLACK
6
CONTINUOUS
10
6.5701315354330712
20
-4.6077530314960633
11
6.5702064566929135
21
-4.6073763779527557
0
LINE
8
BLACK
6
CONTINUOUS
10
6.5702064566929135
20
-4.6073763779527557
11
6.5707391338582672
21
-4.6068437007874019
0
LINE
8
BLACK
6
CONTINUOUS
10
6.5707391338582672
20
-4.6068437007874019
11
6.5711157874015749
21
-4.6067687795275587
0
LINE
8
BLACK
6
CONTINUOUS
10
6.5711157874015749
20
-4.6067687795275587
11
6.6593047637795273
21
-4.6067687795275587
0
LINE
8
BLACK
6
CONTINUOUS
10
6.6593047637795273
20
-4.6067687795275587
11
6.6596814173228349
21
-4.6068437007874019
0
LINE
8
BLACK
6
CONTINUOUS
10
6.5721000393700786
20
-4.608737283464567
11
6.5721000393700786
21
-4.7862963385826767
0
LINE
8
BLACK
6
CONTINUOUS
10
6.5721000393700786
20
-4.7862963385826767
11
6.6583205118110236
21
-4.7862963385826767
0
LINE
8
BLACK
6
CONTINUOUS
10
6.6583205118110236
20
-4.7862963385826767
11
6.6583205118110236
21
-4.608737283464567
0
LINE
8
BLACK
6
CONTINUOUS
10
6.6583205118110236
20
-4.608737283464567
11
6.5721000393700786
21
-4.608737283464567
0
LINE
8
BLACK
6
CONTINUOUS
10
5.9851932283464562
20
-4.1812059055118107
11
5.9857259055118108
21
-4.1817385826771654
0
LINE
8
BLACK
6
CONTINUOUS
10
5.9857259055118108
20
-4.1817385826771654
11
5.9858008267716531
21
-4.1821152362204721
0
LINE
8
BLACK
6
CONTINUOUS
10
5.9858008267716531
20
-4.1821152362204721
11
5.9858008267716531
21
-4.2569183858267712
0
LINE
8
BLACK
6
CONTINUOUS
10
5.9858008267716531
20
-4.2569183858267712
11
5.9857259055118108
21
-4.2572950393700788
0
LINE
8
BLACK
6
CONTINUOUS
10
5.9857259055118108
20
-4.2572950393700788
11
5.9851932283464562
21
-4.2578277165354326
0
LINE
8
BLACK
6
CONTINUOUS
10
5.9851932283464562
20
-4.2578277165354326
11
5.9848165748031494
21
-4.2579026377952758
0
LINE
8
BLACK
6
CONTINUOUS
10
5.9848165748031494
20
-4.2579026377952758
11
5.8525331102362204
21
-4.2579026377952758
0
LINE
8
BLACK
6
CONTINUOUS
10
5.8525331102362204
20
-4.2579026377952758
11
5.8521564566929136
21
-4.2578277165354326
0
LINE
8
BLACK
6
CONTINUOUS
10
5.8521564566929136
20
-4.2578277165354326
11
5.851623779527559
21
-4.2572950393700788
0
LINE
8
BLACK
6
CONTINUOUS
10
5.851623779527559
20
-4.2572950393700788
11
5.8515488582677166
21
-4.2569183858267712
0
LINE
8
BLACK
6
CONTINUOUS
10
5.8515488582677166
20
-4.2569183858267712
11
5.8515488582677166
21
-4.1821152362204721
0
LINE
8
BLACK
6
CONTINUOUS
10
5.8515488582677166
20
-4.1821152362204721
11
5.851623779527559
21
-4.1817385826771654
0
LINE
8
BLACK
6
CONTINUOUS
10
5.851623779527559
20
-4.1817385826771654
11
5.8521564566929136
21
-4.1812059055118107
0
LINE
8
BLACK
6
CONTINUOUS
10
5.8521564566929136
20
-4.1812059055118107
11
5.8525331102362204
21
-4.1811309842519684
0
LINE
8
BLACK
6
CONTINUOUS
10
5.8525331102362204
20
-4.1811309842519684
11
5.9848165748031494
21
-4.1811309842519684
0
LINE
8
BLACK
6
CONTINUOUS
10
5.9848165748031494
20
-4.1811309842519684
11
5.9851932283464562
21
-4.1812059055118107
0
LINE
8
BLACK
6
CONTINUOUS
10
5.8535173622047241
20
-4.1830994881889767
11
5.8535173622047241
21
-4.2559341338582675
0
LINE
8
BLACK
6
CONTINUOUS
10
5.8535173622047241
20
-4.2559341338582675
11
5.9838323228346457
21
-4.2559341338582675
0
LINE
8
BLACK
6
CONTINUOUS
10
5.9838323228346457
20
-4.2559341338582675
11
5.9838323228346457
21
-4.1830994881889767
0
LINE
8
BLACK
6
CONTINUOUS
10
5.9838323228346457
20
-4.1830994881889767
11
5.8535173622047241
21
-4.1830994881889767
0
LINE
8
BLACK
6
CONTINUOUS
10
5.9851932283464562
20
-3.9872059055118108
11
5.9857259055118108
21
-3.9877385826771654
0
LINE
8
BLACK
6
CONTINUOUS
10
5.9857259055118108
20
-3.9877385826771654
11
5.9858008267716531
21
-3.9881152362204721
0
LINE
8
BLACK
6
CONTINUOUS
10
5.9858008267716531
20
-3.9881152362204721
11
5.9858008267716531
21
-4.0629183858267712
0
LINE
8
BLACK
6
CONTINUOUS
10
5.9858008267716531
20
-4.0629183858267712
11
5.9857259055118108
21
-4.0632950393700789
0
LINE
8
BLACK
6
CONTINUOUS
10
5.9857259055118108
20
-4.0632950393700789
11
5.9851932283464562
21
-4.0638277165354326
0
LINE
8
BLACK
6
CONTINUOUS
10
5.9851932283464562
20
-4.0638277165354326
11
5.9848165748031494
21
-4.0639026377952758
0
LINE
8
BLACK
6
CONTINUOUS
10
5.9848165748031494
20
-4.0639026377952758
11
5.8525331102362204
21
-4.0639026377952758
0
LINE
8
BLACK
6
CONTINUOUS
10
5.8525331102362204
20
-4.0639026377952758
11
5.8521564566929136
21
-4.0638277165354326
0
LINE
8
BLACK
6
CONTINUOUS
10
5.8521564566929136
20
-4.0638277165354326
11
5.851623779527559
21
-4.0632950393700789
0
LINE
8
BLACK
6
CONTINUOUS
10
5.851623779527559
20
-4.0632950393700789
11
5.8515488582677166
21
-4.0629183858267712
0
LINE
8
BLACK
6
CONTINUOUS
10
5.8515488582677166
20
-4.0629183858267712
11
5.8515488582677166
21
-3.9881152362204721
0
LINE
8
BLACK
6
CONTINUOUS
10
5.8515488582677166
20
-3.9881152362204721
11
5.851623779527559
21
-3.9877385826771654
0
LINE
8
BLACK
6
CONTINUOUS
10
5.851623779527559
20
-3.9877385826771654
11
5.8521564566929136
21
-3.9872059055118108
0
LINE
8
BLACK
6
CONTINUOUS
10
5.8521564566929136
20
-3.9872059055118108
11
5.8525331102362204
21
-3.9871309842519684
0
LINE
8
BLACK
6
CONTINUOUS
10
5.8525331102362204
20
-3.9871309842519684
11
5.9848165748031494
21
-3.9871309842519684
0
LINE
8
BLACK
6
CONTINUOUS
10
5.9848165748031494
20
-3.9871309842519684
11
5.9851932283464562
21
-3.9872059055118108
0
LINE
8
BLACK
6
CONTINUOUS
10
5.8535173622047241
20
-3.9890994881889763
11
5.8535173622047241
21
-4.0619341338582675
0
LINE
8
BLACK
6
CONTINUOUS
10
5.8535173622047241
20
-4.0619341338582675
11
5.9838323228346457
21
-4.0619341338582675
0
LINE
8
BLACK
6
CONTINUOUS
10
5.9838323228346457
20
-4.0619341338582675
11
5.9838323228346457
21
-3.9890994881889763
0
LINE
8
BLACK
6
CONTINUOUS
10
5.9838323228346457
20
-3.9890994881889763
11
5.8535173622047241
21
-3.9890994881889763
0
LINE
8
BLACK
6
CONTINUOUS
10
5.9156341732283462
20
-3.8116783464566928
11
5.9161668503937008
21
-3.812211023622047
0
LINE
8
BLACK
6
CONTINUOUS
10
5.9161668503937008
20
-3.812211023622047
11
5.9162417716535431
21
-3.8125876771653542
0
LINE
8
BLACK
6
CONTINUOUS
10
5.9162417716535431
20
-3.8125876771653542
11
5.9162417716535431
21
-3.9464459448818898
0
LINE
8
BLACK
6
CONTINUOUS
10
5.9162417716535431
20
-3.9464459448818898
11
5.9161668503937008
21
-3.9468225984251966
0
LINE
8
BLACK
6
CONTINUOUS
10
5.9161668503937008
20
-3.9468225984251966
11
5.9156341732283462
21
-3.9473552755905512
0
LINE
8
BLACK
6
CONTINUOUS
10
5.9156341732283462
20
-3.9473552755905512
11
5.9152575196850394
21
-3.9474301968503935
0
LINE
8
BLACK
6
CONTINUOUS
10
5.9152575196850394
20
-3.9474301968503935
11
5.8380921653543307
21
-3.9474301968503935
0
LINE
8
BLACK
6
CONTINUOUS
10
5.8380921653543307
20
-3.9474301968503935
11
5.8377155118110231
21
-3.9473552755905512
0
LINE
8
BLACK
6
CONTINUOUS
10
5.8377155118110231
20
-3.9473552755905512
11
5.8371828346456693
21
-3.9468225984251966
0
LINE
8
BLACK
6
CONTINUOUS
10
5.8371828346456693
20
-3.9468225984251966
11
5.837107913385827
21
-3.9464459448818898
0
LINE
8
BLACK
6
CONTINUOUS
10
5.837107913385827
20
-3.9464459448818898
11
5.837107913385827
21
-3.8125876771653542
0
LINE
8
BLACK
6
CONTINUOUS
10
5.837107913385827
20
-3.8125876771653542
11
5.8371828346456693
21
-3.812211023622047
0
LINE
8
BLACK
6
CONTINUOUS
10
5.8371828346456693
20
-3.812211023622047
11
5.8377155118110231
21
-3.8116783464566928
0
LINE
8
BLACK
6
CONTINUOUS
10
5.8377155118110231
20
-3.8116783464566928
11
5.8380921653543307
21
-3.8116034251968505
0
LINE
8
BLACK
6
CONTINUOUS
10
5.8380921653543307
20
-3.8116034251968505
11
5.9152575196850394
21
-3.8116034251968505
0
LINE
8
BLACK
6
CONTINUOUS
10
5.9152575196850394
20
-3.8116034251968505
11
5.9156341732283462
21
-3.8116783464566928
0
LINE
8
BLACK
6
CONTINUOUS
10
5.8390764173228344
20
-3.8135719291338583
11
5.8390764173228344
21
-3.9454616929133857
0
LINE
8
BLACK
6
CONTINUOUS
10
5.8390764173228344
20
-3.9454616929133857
11
5.9142732677165357
21
-3.9454616929133857
0
LINE
8
BLACK
6
CONTINUOUS
10
5.9142732677165357
20
-3.9454616929133857
11
5.9142732677165357
21
-3.8135719291338583
0
LINE
8
BLACK
6
CONTINUOUS
10
5.9142732677165357
20
-3.8135719291338583
11
5.8390764173228344
21
-3.8135719291338583
0
LINE
8
BLACK
6
CONTINUOUS
10
5.9996341732283467
20
-3.8116783464566928
11
6.0001668503937005
21
-3.812211023622047
0
LINE
8
BLACK
6
CONTINUOUS
10
6.0001668503937005
20
-3.812211023622047
11
6.0002417716535428
21
-3.8125876771653542
0
LINE
8
BLACK
6
CONTINUOUS
10
6.0002417716535428
20
-3.8125876771653542
11
6.0002417716535428
21
-3.9464459448818898
0
LINE
8
BLACK
6
CONTINUOUS
10
6.0002417716535428
20
-3.9464459448818898
11
6.0001668503937005
21
-3.9468225984251966
0
LINE
8
BLACK
6
CONTINUOUS
10
6.0001668503937005
20
-3.9468225984251966
11
5.9996341732283467
21
-3.9473552755905512
0
LINE
8
BLACK
6
CONTINUOUS
10
5.9996341732283467
20
-3.9473552755905512
11
5.9992575196850391
21
-3.9474301968503935
0
LINE
8
BLACK
6
CONTINUOUS
10
5.9992575196850391
20
-3.9474301968503935
11
5.9220921653543304
21
-3.9474301968503935
0
LINE
8
BLACK
6
CONTINUOUS
10
5.9220921653543304
20
-3.9474301968503935
11
5.9217155118110236
21
-3.9473552755905512
0
LINE
8
BLACK
6
CONTINUOUS
10
5.9217155118110236
20
-3.9473552755905512
11
5.921182834645669
21
-3.9468225984251966
0
LINE
8
BLACK
6
CONTINUOUS
10
5.921182834645669
20
-3.9468225984251966
11
5.9211079133858266
21
-3.9464459448818898
0
LINE
8
BLACK
6
CONTINUOUS
10
5.9211079133858266
20
-3.9464459448818898
11
5.9211079133858266
21
-3.8125876771653542
0
LINE
8
BLACK
6
CONTINUOUS
10
5.9211079133858266
20
-3.8125876771653542
11
5.921182834645669
21
-3.812211023622047
0
LINE
8
BLACK
6
CONTINUOUS
10
5.921182834645669
20
-3.812211023622047
11
5.9217155118110236
21
-3.8116783464566928
0
LINE
8
BLACK
6
CONTINUOUS
10
5.9217155118110236
20
-3.8116783464566928
11
5.9220921653543304
21
-3.8116034251968505
0
LINE
8
BLACK
6
CONTINUOUS
10
5.9220921653543304
20
-3.8116034251968505
11
5.9992575196850391
21
-3.8116034251968505
0
LINE
8
BLACK
6
CONTINUOUS
10
5.9992575196850391
20
-3.8116034251968505
11
5.9996341732283467
21
-3.8116783464566928
0
LINE
8
BLACK
6
CONTINUOUS
10
5.9230764173228341
20
-3.8135719291338583
11
5.9230764173228341
21
-3.9454616929133857
0
LINE
8
BLACK
6
CONTINUOUS
10
5.9230764173228341
20
-3.9454616929133857
11
5.9982732677165354
21
-3.9454616929133857
0
LINE
8
BLACK
6
CONTINUOUS
10
5.9982732677165354
20
-3.9454616929133857
11
5.9982732677165354
21
-3.8135719291338583
0
LINE
8
BLACK
6
CONTINUOUS
10
5.9982732677165354
20
-3.8135719291338583
11
5.9230764173228341
21
-3.8135719291338583
0
LINE
8
BLACK
6
CONTINUOUS
10
5.9851932283464562
20
-3.6952059055118109
11
5.9857259055118108
21
-3.6957385826771652
0
LINE
8
BLACK
6
CONTINUOUS
10
5.9857259055118108
20
-3.6957385826771652
11
5.9858008267716531
21
-3.6961152362204723
0
LINE
8
BLACK
6
CONTINUOUS
10
5.9858008267716531
20
-3.6961152362204723
11
5.9858008267716531
21
-3.7709183858267714
0
LINE
8
BLACK
6
CONTINUOUS
10
5.9858008267716531
20
-3.7709183858267714
11
5.9857259055118108
21
-3.7712950393700786
0
LINE
8
BLACK
6
CONTINUOUS
10
5.9857259055118108
20
-3.7712950393700786
11
5.9851932283464562
21
-3.7718277165354328
0
LINE
8
BLACK
6
CONTINUOUS
10
5.9851932283464562
20
-3.7718277165354328
11
5.9848165748031494
21
-3.7719026377952756
0
LINE
8
BLACK
6
CONTINUOUS
10
5.9848165748031494
20
-3.7719026377952756
11
5.8525331102362204
21
-3.7719026377952756
0
LINE
8
BLACK
6
CONTINUOUS
10
5.8525331102362204
20
-3.7719026377952756
11
5.8521564566929136
21
-3.7718277165354328
0
LINE
8
BLACK
6
CONTINUOUS
10
5.8521564566929136
20
-3.7718277165354328
11
5.851623779527559
21
-3.7712950393700786
0
LINE
8
BLACK
6
CONTINUOUS
10
5.851623779527559
20
-3.7712950393700786
11
5.8515488582677166
21
-3.7709183858267714
0
LINE
8
BLACK
6
CONTINUOUS
10
5.8515488582677166
20
-3.7709183858267714
11
5.8515488582677166
21
-3.6961152362204723
0
LINE
8
BLACK
6
CONTINUOUS
10
5.8515488582677166
20
-3.6961152362204723
11
5.851623779527559
21
-3.6957385826771652
0
LINE
8
BLACK
6
CONTINUOUS
10
5.851623779527559
20
-3.6957385826771652
11
5.8521564566929136
21
-3.6952059055118109
0
LINE
8
BLACK
6
CONTINUOUS
10
5.8521564566929136
20
-3.6952059055118109
11
5.8525331102362204
21
-3.6951309842519686
0
LINE
8
BLACK
6
CONTINUOUS
10
5.8525331102362204
20
-3.6951309842519686
11
5.9848165748031494
21
-3.6951309842519686
0
LINE
8
BLACK
6
CONTINUOUS
10
5.9848165748031494
20
-3.6951309842519686
11
5.9851932283464562
21
-3.6952059055118109
0
LINE
8
BLACK
6
CONTINUOUS
10
5.8535173622047241
20
-3.6970994881889765
11
5.8535173622047241
21
-3.7699341338582677
0
LINE
8
BLACK
6
CONTINUOUS
10
5.8535173622047241
20
-3.7699341338582677
11
5.9838323228346457
21
-3.7699341338582677
0
LINE
8
BLACK
6
CONTINUOUS
10
5.9838323228346457
20
-3.7699341338582677
11
5.9838323228346457
21
-3.6970994881889765
0
LINE
8
BLACK
6
CONTINUOUS
10
5.9838323228346457
20
-3.6970994881889765
11
5.8535173622047241
21
-3.6970994881889765
0
LINE
8
BLACK
6
CONTINUOUS
10
5.9851932283464562
20
-3.5932059055118111
11
5.9857259055118108
21
-3.5937385826771653
0
LINE
8
BLACK
6
CONTINUOUS
10
5.9857259055118108
20
-3.5937385826771653
11
5.9858008267716531
21
-3.5941152362204725
0
LINE
8
BLACK
6
CONTINUOUS
10
5.9858008267716531
20
-3.5941152362204725
11
5.9858008267716531
21
-3.6689183858267715
0
LINE
8
BLACK
6
CONTINUOUS
10
5.9858008267716531
20
-3.6689183858267715
11
5.9857259055118108
21
-3.6692950393700787
0
LINE
8
BLACK
6
CONTINUOUS
10
5.9857259055118108
20
-3.6692950393700787
11
5.9851932283464562
21
-3.6698277165354329
0
LINE
8
BLACK
6
CONTINUOUS
10
5.9851932283464562
20
-3.6698277165354329
11
5.9848165748031494
21
-3.6699026377952757
0
LINE
8
BLACK
6
CONTINUOUS
10
5.9848165748031494
20
-3.6699026377952757
11
5.8525331102362204
21
-3.6699026377952757
0
LINE
8
BLACK
6
CONTINUOUS
10
5.8525331102362204
20
-3.6699026377952757
11
5.8521564566929136
21
-3.6698277165354329
0
LINE
8
BLACK
6
CONTINUOUS
10
5.8521564566929136
20
-3.6698277165354329
11
5.851623779527559
21
-3.6692950393700787
0
LINE
8
BLACK
6
CONTINUOUS
10
5.851623779527559
20
-3.6692950393700787
11
5.8515488582677166
21
-3.6689183858267715
0
LINE
8
BLACK
6
CONTINUOUS
10
5.8515488582677166
20
-3.6689183858267715
11
5.8515488582677166
21
-3.5941152362204725
0
LINE
8
BLACK
6
CONTINUOUS
10
5.8515488582677166
20
-3.5941152362204725
11
5.851623779527559
21
-3.5937385826771653
0
LINE
8
BLACK
6
CONTINUOUS
10
5.851623779527559
20
-3.5937385826771653
11
5.8521564566929136
21
-3.5932059055118111
0
LINE
8
BLACK
6
CONTINUOUS
10
5.8521564566929136
20
-3.5932059055118111
11
5.8525331102362204
21
-3.5931309842519683
0
LINE
8
BLACK
6
CONTINUOUS
10
5.8525331102362204
20
-3.5931309842519683
11
5.9848165748031494
21
-3.5931309842519683
0
LINE
8
BLACK
6
CONTINUOUS
10
5.9848165748031494
20
-3.5931309842519683
11
5.9851932283464562
21
-3.5932059055118111
0
LINE
8
BLACK
6
CONTINUOUS
10
5.8535173622047241
20
-3.5950994881889762
11
5.8535173622047241
21
-3.6679341338582678
0
LINE
8
BLACK
6
CONTINUOUS
10
5.8535173622047241
20
-3.6679341338582678
11
5.9838323228346457
21
-3.6679341338582678
0
LINE
8
BLACK
6
CONTINUOUS
10
5.9838323228346457
20
-3.6679341338582678
11
5.9838323228346457
21
-3.5950994881889762
0
LINE
8
BLACK
6
CONTINUOUS
10
5.9838323228346457
20
-3.5950994881889762
11
5.8535173622047241
21
-3.5950994881889762
0
LINE
8
BLACK
6
CONTINUOUS
10
5.851334960629921
20
-2.9058200787401574
11
5.8518676377952756
21
-2.9063527559055116
0
LINE
8
BLACK
6
CONTINUOUS
10
5.8518676377952756
20
-2.9063527559055116
11
5.851942559055118
21
-2.9067294094488187
0
LINE
8
BLACK
6
CONTINUOUS
10
5.851942559055118
20
-2.9067294094488187
11
5.851942559055118
21
-3.296493188976378
0
LINE
8
BLACK
6
CONTINUOUS
10
5.851942559055118
20
-3.296493188976378
11
5.8518676377952756
21
-3.2968698425196852
0
LINE
8
BLACK
6
CONTINUOUS
10
5.8518676377952756
20
-3.2968698425196852
11
5.851334960629921
21
-3.2974025196850394
0
LINE
8
BLACK
6
CONTINUOUS
10
5.851334960629921
20
-3.2974025196850394
11
5.8509583070866142
21
-3.2974774409448817
0
LINE
8
BLACK
6
CONTINUOUS
10
5.8509583070866142
20
-3.2974774409448817
11
5.3863913779527559
21
-3.2974774409448817
0
LINE
8
BLACK
6
CONTINUOUS
10
5.3863913779527559
20
-3.2974774409448817
11
5.3860147244094483
21
-3.2974025196850394
0
LINE
8
BLACK
6
CONTINUOUS
10
5.3860147244094483
20
-3.2974025196850394
11
5.3854820472440945
21
-3.2968698425196852
0
LINE
8
BLACK
6
CONTINUOUS
10
5.3854820472440945
20
-3.2968698425196852
11
5.3854071259842522
21
-3.296493188976378
0
LINE
8
BLACK
6
CONTINUOUS
10
5.3854071259842522
20
-3.296493188976378
11
5.3854071259842522
21
-2.9067294094488187
0
LINE
8
BLACK
6
CONTINUOUS
10
5.3854071259842522
20
-2.9067294094488187
11
5.3854820472440945
21
-2.9063527559055116
0
LINE
8
BLACK
6
CONTINUOUS
10
5.3854820472440945
20
-2.9063527559055116
11
5.3860147244094483
21
-2.9058200787401574
0
LINE
8
BLACK
6
CONTINUOUS
10
5.3860147244094483
20
-2.9058200787401574
11
5.3863913779527559
21
-2.905745157480315
0
LINE
8
BLACK
6
CONTINUOUS
10
5.3863913779527559
20
-2.905745157480315
11
5.8509583070866142
21
-2.905745157480315
0
LINE
8
BLACK
6
CONTINUOUS
10
5.8509583070866142
20
-2.905745157480315
11
5.851334960629921
21
-2.9058200787401574
0
LINE
8
BLACK
6
CONTINUOUS
10
5.3873756299212596
20
-2.9077136614173229
11
5.3873756299212596
21
-3.2955089370078738
0
LINE
8
BLACK
6
CONTINUOUS
10
5.3873756299212596
20
-3.2955089370078738
11
5.8499740551181105
21
-3.2955089370078738
0
LINE
8
BLACK
6
CONTINUOUS
10
5.8499740551181105
20
-3.2955089370078738
11
5.8499740551181105
21
-2.9077136614173229
0
LINE
8
BLACK
6
CONTINUOUS
10
5.8499740551181105
20
-2.9077136614173229
11
5.3873756299212596
21
-2.9077136614173229
0
LINE
8
BLACK
6
CONTINUOUS
10
6.6596814173228349
20
-3.0068437007874014
11
6.6602140944881887
21
-3.007376377952756
0
LINE
8
BLACK
6
CONTINUOUS
10
6.6602140944881887
20
-3.007376377952756
11
6.660289015748031
21
-3.0077530314960628
0
LINE
8
BLACK
6
CONTINUOUS
10
6.660289015748031
20
-3.0077530314960628
11
6.660289015748031
21
-3.1872805905511812
0
LINE
8
BLACK
6
CONTINUOUS
10
6.660289015748031
20
-3.1872805905511812
11
6.6602140944881887
21
-3.1876572440944879
0
LINE
8
BLACK
6
CONTINUOUS
10
6.6602140944881887
20
-3.1876572440944879
11
6.6596814173228349
21
-3.1881899212598426
0
LINE
8
BLACK
6
CONTINUOUS
10
6.6596814173228349
20
-3.1881899212598426
11
6.6593047637795273
21
-3.1882648425196849
0
LINE
8
BLACK
6
CONTINUOUS
10
6.6593047637795273
20
-3.1882648425196849
11
6.5711157874015749
21
-3.1882648425196849
0
LINE
8
BLACK
6
CONTINUOUS
10
6.5711157874015749
20
-3.1882648425196849
11
6.5707391338582672
21
-3.1881899212598426
0
LINE
8
BLACK
6
CONTINUOUS
10
6.5707391338582672
20
-3.1881899212598426
11
6.5702064566929135
21
-3.1876572440944879
0
LINE
8
BLACK
6
CONTINUOUS
10
6.5702064566929135
20
-3.1876572440944879
11
6.5701315354330712
21
-3.1872805905511812
0
LINE
8
BLACK
6
CONTINUOUS
10
6.5701315354330712
20
-3.1872805905511812
11
6.5701315354330712
21
-3.0077530314960628
0
LINE
8
BLACK
6
CONTINUOUS
10
6.5701315354330712
20
-3.0077530314960628
11
6.5702064566929135
21
-3.007376377952756
0
LINE
8
BLACK
6
CONTINUOUS
10
6.5702064566929135
20
-3.007376377952756
11
6.5707391338582672
21
-3.0068437007874014
0
LINE
8
BLACK
6
CONTINUOUS
10
6.5707391338582672
20
-3.0068437007874014
11
6.5711157874015749
21
-3.0067687795275591
0
LINE
8
BLACK
6
CONTINUOUS
10
6.5711157874015749
20
-3.0067687795275591
11
6.6593047637795273
21
-3.0067687795275591
0
LINE
8
BLACK
6
CONTINUOUS
10
6.6593047637795273
20
-3.0067687795275591
11
6.6596814173228349
21
-3.0068437007874014
0
LINE
8
BLACK
6
CONTINUOUS
10
6.5721000393700786
20
-3.0087372834645669
11
6.5721000393700786
21
-3.186296338582677
0
LINE
8
BLACK
6
CONTINUOUS
10
6.5721000393700786
20
-3.186296338582677
11
6.6583205118110236
21
-3.186296338582677
0
LINE
8
BLACK
6
CONTINUOUS
10
6.6583205118110236
20
-3.186296338582677
11
6.6583205118110236
21
-3.0087372834645669
0
LINE
8
BLACK
6
CONTINUOUS
10
6.6583205118110236
20
-3.0087372834645669
11
6.5721000393700786
21
-3.0087372834645669
0
LINE
8
BLACK
6
CONTINUOUS
10
6.4602404724409448
20
-2.9583712598425196
11
6.4607731496062994
21
-2.9589039370078738
0
LINE
8
BLACK
6
CONTINUOUS
10
6.4607731496062994
20
-2.9589039370078738
11
6.4608480708661418
21
-2.959280590551181
0
LINE
8
BLACK
6
CONTINUOUS
10
6.4608480708661418
20
-2.959280590551181
11
6.4608480708661418
21
-3.1797530314960629
0
LINE
8
BLACK
6
CONTINUOUS
10
6.4608480708661418
20
-3.1797530314960629
11
6.4607731496062994
21
-3.1801296850393701
0
LINE
8
BLACK
6
CONTINUOUS
10
6.4607731496062994
20
-3.1801296850393701
11
6.4602404724409448
21
-3.1806623622047243
0
LINE
8
BLACK
6
CONTINUOUS
10
6.4602404724409448
20
-3.1806623622047243
11
6.4598638188976381
21
-3.1807372834645671
0
LINE
8
BLACK
6
CONTINUOUS
10
6.4598638188976381
20
-3.1807372834645671
11
5.9834858661417325
21
-3.1807372834645671
0
LINE
8
BLACK
6
CONTINUOUS
10
5.9834858661417325
20
-3.1807372834645671
11
5.9831092125984249
21
-3.1806623622047243
0
LINE
8
BLACK
6
CONTINUOUS
10
5.9831092125984249
20
-3.1806623622047243
11
5.9825765354330711
21
-3.1801296850393701
0
LINE
8
BLACK
6
CONTINUOUS
10
5.9825765354330711
20
-3.1801296850393701
11
5.9825016141732279
21
-3.1797530314960629
0
LINE
8
BLACK
6
CONTINUOUS
10
5.9825016141732279
20
-3.1797530314960629
11
5.9825016141732279
21
-2.959280590551181
0
LINE
8
BLACK
6
CONTINUOUS
10
5.9825016141732279
20
-2.959280590551181
11
5.9825765354330711
21
-2.9589039370078738
0
LINE
8
BLACK
6
CONTINUOUS
10
5.9825765354330711
20
-2.9589039370078738
11
5.9831092125984249
21
-2.9583712598425196
0
LINE
8
BLACK
6
CONTINUOUS
10
5.9831092125984249
20
-2.9583712598425196
11
5.9834858661417325
21
-2.9582963385826773
0
LINE
8
BLACK
6
CONTINUOUS
10
5.9834858661417325
20
-2.9582963385826773
11
6.4598638188976381
21
-2.9582963385826773
0
LINE
8
BLACK
6
CONTINUOUS
10
6.4598638188976381
20
-2.9582963385826773
11
6.4602404724409448
21
-2.9583712598425196
0
LINE
8
BLACK
6
CONTINUOUS
10
5.9844701181102362
20
-2.9602648425196851
11
5.9844701181102362
21
-3.1787687795275588
0
LINE
8
BLACK
6
CONTINUOUS
10
5.9844701181102362
20
-3.1787687795275588
11
6.4588795669291335
21
-3.1787687795275588
0
LINE
8
BLACK
6
CONTINUOUS
10
6.4588795669291335
20
-3.1787687795275588
11
6.4588795669291335
21
-2.9602648425196851
0
LINE
8
BLACK
6
CONTINUOUS
10
6.4588795669291335
20
-2.9602648425196851
11
5.9844701181102362
21
-2.9602648425196851
0
LINE
8
BLACK
6
CONTINUOUS
10
7.1703930708661412
20
-3.0327068897637797
11
7.1778843307086611
21
-3.0351409842519685
0
LINE
8
BLACK
6
CONTINUOUS
10
7.1778843307086611
20
-3.0351409842519685
11
7.1849026377952754
21
-3.038716968503937
0
LINE
8
BLACK
6
CONTINUOUS
10
7.1849026377952754
20
-3.038716968503937
11
7.1912750787401576
21
-3.0433468110236221
0
LINE
8
BLACK
6
CONTINUOUS
10
7.1912750787401576
20
-3.0433468110236221
11
7.1968448425196847
21
-3.0489165748031497
0
LINE
8
BLACK
6
CONTINUOUS
10
7.1968448425196847
20
-3.0489165748031497
11
7.2014746850393703
21
-3.0552890157480315
0
LINE
8
BLACK
6
CONTINUOUS
10
7.2014746850393703
20
-3.0552890157480315
11
7.2050506692913387
21
-3.0623073228346458
0
LINE
8
BLACK
6
CONTINUOUS
10
7.2050506692913387
20
-3.0623073228346458
11
7.2074847637795276
21
-3.0697985826771652
0
LINE
8
BLACK
6
CONTINUOUS
10
7.2074847637795276
20
-3.0697985826771652
11
7.2087169685039365
21
-3.0775784251968505
0
LINE
8
BLACK
6
CONTINUOUS
10
7.2087169685039365
20
-3.0775784251968505
11
7.2087169685039365
21
-3.0854551968503938
0
LINE
8
BLACK
6
CONTINUOUS
10
7.2087169685039365
20
-3.0854551968503938
11
7.2074847637795276
21
-3.0932350393700787
0
LINE
8
BLACK
6
CONTINUOUS
10
7.2074847637795276
20
-3.0932350393700787
11
7.2050506692913387
21
-3.1007262992125986
0
LINE
8
BLACK
6
CONTINUOUS
10
7.2050506692913387
20
-3.1007262992125986
11
7.2014746850393703
21
-3.1077446062992125
0
LINE
8
BLACK
6
CONTINUOUS
10
7.2014746850393703
20
-3.1077446062992125
11
7.1968448425196847
21
-3.1141170472440942
0
LINE
8
BLACK
6
CONTINUOUS
10
7.1968448425196847
20
-3.1141170472440942
11
7.1912750787401576
21
-3.1196868110236218
0
LINE
8
BLACK
6
CONTINUOUS
10
7.1912750787401576
20
-3.1196868110236218
11
7.1849026377952754
21
-3.1243166535433069
0
LINE
8
BLACK
6
CONTINUOUS
10
7.1849026377952754
20
-3.1243166535433069
11
7.1778843307086611
21
-3.1278926377952754
0
LINE
8
BLACK
6
CONTINUOUS
10
7.1778843307086611
20
-3.1278926377952754
11
7.1703930708661412
21
-3.1303267322834647
0
LINE
8
BLACK
6
CONTINUOUS
10
7.1703930708661412
20
-3.1303267322834647
11
7.1626132283464568
21
-3.131558937007874
0
LINE
8
BLACK
6
CONTINUOUS
10
7.1626132283464568
20
-3.131558937007874
11
7.1547364566929135
21
-3.131558937007874
0
LINE
8
BLACK
6
CONTINUOUS
10
7.1547364566929135
20
-3.131558937007874
11
7.1469566141732281
21
-3.1303267322834647
0
LINE
8
BLACK
6
CONTINUOUS
10
7.1469566141732281
20
-3.1303267322834647
11
7.1394653543307083
21
-3.1278926377952754
0
LINE
8
BLACK
6
CONTINUOUS
10
7.1394653543307083
20
-3.1278926377952754
11
7.132447047244094
21
-3.1243166535433069
0
LINE
8
BLACK
6
CONTINUOUS
10
7.132447047244094
20
-3.1243166535433069
11
7.1260746062992126
21
-3.1196868110236218
0
LINE
8
BLACK
6
CONTINUOUS
10
7.1260746062992126
20
-3.1196868110236218
11
7.1205048425196846
21
-3.1141170472440942
0
LINE
8
BLACK
6
CONTINUOUS
10
7.1205048425196846
20
-3.1141170472440942
11
7.115875
21
-3.1077446062992125
0
LINE
8
BLACK
6
CONTINUOUS
10
7.115875
20
-3.1077446062992125
11
7.1122990157480315
21
-3.1007262992125986
0
LINE
8
BLACK
6
CONTINUOUS
10
7.1122990157480315
20
-3.1007262992125986
11
7.1098649212598426
21
-3.0932350393700787
0
LINE
8
BLACK
6
CONTINUOUS
10
7.1098649212598426
20
-3.0932350393700787
11
7.1086327165354328
21
-3.0854551968503938
0
LINE
8
BLACK
6
CONTINUOUS
10
7.1086327165354328
20
-3.0854551968503938
11
7.1086327165354328
21
-3.0777211417322836
0
LINE
8
BLACK
6
CONTINUOUS
10
7.1086327165354328
20
-3.0777211417322836
11
7.1086327165354328
21
-3.0775784251968505
0
LINE
8
BLACK
6
CONTINUOUS
10
7.1086327165354328
20
-3.0775784251968505
11
7.1098649212598426
21
-3.0697985826771652
0
LINE
8
BLACK
6
CONTINUOUS
10
7.1098649212598426
20
-3.0697985826771652
11
7.1122990157480315
21
-3.0623073228346458
0
LINE
8
BLACK
6
CONTINUOUS
10
7.1122990157480315
20
-3.0623073228346458
11
7.115875
21
-3.0552890157480315
0
LINE
8
BLACK
6
CONTINUOUS
10
7.115875
20
-3.0552890157480315
11
7.1205048425196846
21
-3.0489165748031497
0
LINE
8
BLACK
6
CONTINUOUS
10
7.1205048425196846
20
-3.0489165748031497
11
7.1260746062992126
21
-3.0433468110236221
0
LINE
8
BLACK
6
CONTINUOUS
10
7.1260746062992126
20
-3.0433468110236221
11
7.132447047244094
21
-3.038716968503937
0
LINE
8
BLACK
6
CONTINUOUS
10
7.132447047244094
20
-3.038716968503937
11
7.1394653543307083
21
-3.0351409842519685
0
LINE
8
BLACK
6
CONTINUOUS
10
7.1394653543307083
20
-3.0351409842519685
11
7.1469566141732281
21
-3.0327068897637797
0
LINE
8
BLACK
6
CONTINUOUS
10
7.1469566141732281
20
-3.0327068897637797
11
7.1547364566929135
21
-3.0314746850393699
0
LINE
8
BLACK
6
CONTINUOUS
10
7.1547364566929135
20
-3.0314746850393699
11
7.1626132283464568
21
-3.0314746850393699
0
LINE
8
BLACK
6
CONTINUOUS
10
7.1626132283464568
20
-3.0314746850393699
11
7.1703930708661412
21
-3.0327068897637797
0
LINE
8
BLACK
6
CONTINUOUS
10
7.1104464960629921
20
-3.0853124803149607
11
7.1116340551181096
21
-3.0928103149606296
0
LINE
8
BLACK
6
CONTINUOUS
10
7.1116340551181096
20
-3.0928103149606296
11
7.1139798818897635
21
-3.1000300787401573
0
LINE
8
BLACK
6
CONTINUOUS
10
7.1139798818897635
20
-3.1000300787401573
11
7.1174262598425191
21
-3.1067939763779528
0
LINE
8
BLACK
6
CONTINUOUS
10
7.1174262598425191
20
-3.1067939763779528
11
7.1218883070866141
21
-3.1129354724409448
0
LINE
8
BLACK
6
CONTINUOUS
10
7.1218883070866141
20
-3.1129354724409448
11
7.1272561811023625
21
-3.1183033464566927
0
LINE
8
BLACK
6
CONTINUOUS
10
7.1272561811023625
20
-3.1183033464566927
11
7.1333976771653544
21
-3.1227653937007873
0
LINE
8
BLACK
6
CONTINUOUS
10
7.1333976771653544
20
-3.1227653937007873
11
7.1401615748031491
21
-3.1262117716535434
0
LINE
8
BLACK
6
CONTINUOUS
10
7.1401615748031491
20
-3.1262117716535434
11
7.1473813385826768
21
-3.1285575984251968
0
LINE
8
BLACK
6
CONTINUOUS
10
7.1473813385826768
20
-3.1285575984251968
11
7.1548791732283465
21
-3.1297451574803148
0
LINE
8
BLACK
6
CONTINUOUS
10
7.1548791732283465
20
-3.1297451574803148
11
7.1624705118110237
21
-3.1297451574803148
0
LINE
8
BLACK
6
CONTINUOUS
10
7.1624705118110237
20
-3.1297451574803148
11
7.1699683464566926
21
-3.1285575984251968
0
LINE
8
BLACK
6
CONTINUOUS
10
7.1699683464566926
20
-3.1285575984251968
11
7.1771881102362203
21
-3.1262117716535434
0
LINE
8
BLACK
6
CONTINUOUS
10
7.1771881102362203
20
-3.1262117716535434
11
7.1839520078740158
21
-3.1227653937007873
0
LINE
8
BLACK
6
CONTINUOUS
10
7.1839520078740158
20
-3.1227653937007873
11
7.1900935039370077
21
-3.1183033464566927
0
LINE
8
BLACK
6
CONTINUOUS
10
7.1900935039370077
20
-3.1183033464566927
11
7.1954613779527561
21
-3.1129354724409448
0
LINE
8
BLACK
6
CONTINUOUS
10
7.1954613779527561
20
-3.1129354724409448
11
7.1999234251968502
21
-3.1067939763779528
0
LINE
8
BLACK
6
CONTINUOUS
10
7.1999234251968502
20
-3.1067939763779528
11
7.2033698031496058
21
-3.1000300787401573
0
LINE
8
BLACK
6
CONTINUOUS
10
7.2033698031496058
20
-3.1000300787401573
11
7.2057156299212597
21
-3.0928103149606296
0
LINE
8
BLACK
6
CONTINUOUS
10
7.2057156299212597
20
-3.0928103149606296
11
7.2069031889763782
21
-3.0853124803149607
0
LINE
8
BLACK
6
CONTINUOUS
10
7.2069031889763782
20
-3.0853124803149607
11
7.2069031889763782
21
-3.0777211417322836
0
LINE
8
BLACK
6
CONTINUOUS
10
7.2069031889763782
20
-3.0777211417322836
11
7.2057156299212597
21
-3.0702233070866143
0
LINE
8
BLACK
6
CONTINUOUS
10
7.2057156299212597
20
-3.0702233070866143
11
7.2033698031496058
21
-3.0630035433070866
0
LINE
8
BLACK
6
CONTINUOUS
10
7.2033698031496058
20
-3.0630035433070866
11
7.1999234251968502
21
-3.0562396456692911
0
LINE
8
BLACK
6
CONTINUOUS
10
7.1999234251968502
20
-3.0562396456692911
11
7.1954613779527561
21
-3.0500981496062991
0
LINE
8
BLACK
6
CONTINUOUS
10
7.1954613779527561
20
-3.0500981496062991
11
7.1900935039370077
21
-3.0447302755905512
0
LINE
8
BLACK
6
CONTINUOUS
10
7.1900935039370077
20
-3.0447302755905512
11
7.1839520078740158
21
-3.0402682283464566
0
LINE
8
BLACK
6
CONTINUOUS
10
7.1839520078740158
20
-3.0402682283464566
11
7.1771881102362203
21
-3.0368218503937006
0
LINE
8
BLACK
6
CONTINUOUS
10
7.1771881102362203
20
-3.0368218503937006
11
7.1699683464566926
21
-3.0344760236220472
0
LINE
8
BLACK
6
CONTINUOUS
10
7.1699683464566926
20
-3.0344760236220472
11
7.1624705118110237
21
-3.0332884645669291
0
LINE
8
BLACK
6
CONTINUOUS
10
7.1624705118110237
20
-3.0332884645669291
11
7.1548791732283465
21
-3.0332884645669291
0
LINE
8
BLACK
6
CONTINUOUS
10
7.1548791732283465
20
-3.0332884645669291
11
7.1473813385826768
21
-3.0344760236220472
0
LINE
8
BLACK
6
CONTINUOUS
10
7.1473813385826768
20
-3.0344760236220472
11
7.1401615748031491
21
-3.0368218503937006
0
LINE
8
BLACK
6
CONTINUOUS
10
7.1401615748031491
20
-3.0368218503937006
11
7.1333976771653544
21
-3.0402682283464566
0
LINE
8
BLACK
6
CONTINUOUS
10
7.1333976771653544
20
-3.0402682283464566
11
7.1272561811023625
21
-3.0447302755905512
0
LINE
8
BLACK
6
CONTINUOUS
10
7.1272561811023625
20
-3.0447302755905512
11
7.1218883070866141
21
-3.0500981496062991
0
LINE
8
BLACK
6
CONTINUOUS
10
7.1218883070866141
20
-3.0500981496062991
11
7.1174262598425191
21
-3.0562396456692911
0
LINE
8
BLACK
6
CONTINUOUS
10
7.1174262598425191
20
-3.0562396456692911
11
7.1139798818897635
21
-3.0630035433070866
0
LINE
8
BLACK
6
CONTINUOUS
10
7.1139798818897635
20
-3.0630035433070866
11
7.1116340551181096
21
-3.0702233070866143
0
LINE
8
BLACK
6
CONTINUOUS
10
7.1116340551181096
20
-3.0702233070866143
11
7.1104464960629921
21
-3.0777211417322836
0
LINE
8
BLACK
6
CONTINUOUS
10
7.1104464960629921
20
-3.0777211417322836
11
7.1104464960629921
21
-3.0853124803149607
0
LINE
8
BLACK
6
CONTINUOUS
10
5.0023930708661419
20
-2.9767068897637796
11
5.0098843307086609
21
-2.9791409842519685
0
LINE
8
BLACK
6
CONTINUOUS
10
5.0098843307086609
20
-2.9791409842519685
11
5.0169026377952752
21
-2.982716968503937
0
LINE
8
BLACK
6
CONTINUOUS
10
5.0169026377952752
20
-2.982716968503937
11
5.0232750787401574
21
-2.9873468110236221
0
LINE
8
BLACK
6
CONTINUOUS
10
5.0232750787401574
20
-2.9873468110236221
11
5.0288448425196846
21
-2.9929165748031497
0
LINE
8
BLACK
6
CONTINUOUS
10
5.0288448425196846
20
-2.9929165748031497
11
5.0334746850393701
21
-2.9992890157480314
0
LINE
8
BLACK
6
CONTINUOUS
10
5.0334746850393701
20
-2.9992890157480314
11
5.0370506692913386
21
-3.0063073228346457
0
LINE
8
BLACK
6
CONTINUOUS
10
5.0370506692913386
20
-3.0063073228346457
11
5.0394847637795275
21
-3.0137985826771652
0
LINE
8
BLACK
6
CONTINUOUS
10
5.0394847637795275
20
-3.0137985826771652
11
5.0407169685039372
21
-3.0215784251968505
0
LINE
8
BLACK
6
CONTINUOUS
10
5.0407169685039372
20
-3.0215784251968505
11
5.0407169685039372
21
-3.0294551968503938
0
LINE
8
BLACK
6
CONTINUOUS
10
5.0407169685039372
20
-3.0294551968503938
11
5.0394847637795275
21
-3.0372350393700787
0
LINE
8
BLACK
6
CONTINUOUS
10
5.0394847637795275
20
-3.0372350393700787
11
5.0370506692913386
21
-3.0447262992125985
0
LINE
8
BLACK
6
CONTINUOUS
10
5.0370506692913386
20
-3.0447262992125985
11
5.0334746850393701
21
-3.0517446062992124
0
LINE
8
BLACK
6
CONTINUOUS
10
5.0334746850393701
20
-3.0517446062992124
11
5.0288448425196846
21
-3.0581170472440946
0
LINE
8
BLACK
6
CONTINUOUS
10
5.0288448425196846
20
-3.0581170472440946
11
5.0232750787401574
21
-3.0636868110236222
0
LINE
8
BLACK
6
CONTINUOUS
10
5.0232750787401574
20
-3.0636868110236222
11
5.0169026377952752
21
-3.0683166535433068
0
LINE
8
BLACK
6
CONTINUOUS
10
5.0169026377952752
20
-3.0683166535433068
11
5.0098843307086609
21
-3.0718926377952753
0
LINE
8
BLACK
6
CONTINUOUS
10
5.0098843307086609
20
-3.0718926377952753
11
5.0023930708661419
21
-3.0743267322834646
0
LINE
8
BLACK
6
CONTINUOUS
10
5.0023930708661419
20
-3.0743267322834646
11
4.9946132283464566
21
-3.075558937007874
0
LINE
8
BLACK
6
CONTINUOUS
10
4.9946132283464566
20
-3.075558937007874
11
4.9867364566929133
21
-3.075558937007874
0
LINE
8
BLACK
6
CONTINUOUS
10
4.9867364566929133
20
-3.075558937007874
11
4.978956614173228
21
-3.0743267322834646
0
LINE
8
BLACK
6
CONTINUOUS
10
4.978956614173228
20
-3.0743267322834646
11
4.9714653543307081
21
-3.0718926377952753
0
LINE
8
BLACK
6
CONTINUOUS
10
4.9714653543307081
20
-3.0718926377952753
11
4.9644470472440947
21
-3.0683166535433068
0
LINE
8
BLACK
6
CONTINUOUS
10
4.9644470472440947
20
-3.0683166535433068
11
4.9580746062992125
21
-3.0636868110236222
0
LINE
8
BLACK
6
CONTINUOUS
10
4.9580746062992125
20
-3.0636868110236222
11
4.9525048425196854
21
-3.0581170472440946
0
LINE
8
BLACK
6
CONTINUOUS
10
4.9525048425196854
20
-3.0581170472440946
11
4.9478749999999998
21
-3.0517446062992124
0
LINE
8
BLACK
6
CONTINUOUS
10
4.9478749999999998
20
-3.0517446062992124
11
4.9442990157480313
21
-3.0447262992125985
0
LINE
8
BLACK
6
CONTINUOUS
10
4.9442990157480313
20
-3.0447262992125985
11
4.9418649212598424
21
-3.0372350393700787
0
LINE
8
BLACK
6
CONTINUOUS
10
4.9418649212598424
20
-3.0372350393700787
11
4.9406327165354327
21
-3.0294551968503938
0
LINE
8
BLACK
6
CONTINUOUS
10
4.9406327165354327
20
-3.0294551968503938
11
4.9406327165354327
21
-3.0217211417322836
0
LINE
8
BLACK
6
CONTINUOUS
10
4.9406327165354327
20
-3.0217211417322836
11
4.9406327165354327
21
-3.0215784251968505
0
LINE
8
BLACK
6
CONTINUOUS
10
4.9406327165354327
20
-3.0215784251968505
11
4.9418649212598424
21
-3.0137985826771652
0
LINE
8
BLACK
6
CONTINUOUS
10
4.9418649212598424
20
-3.0137985826771652
11
4.9442990157480313
21
-3.0063073228346457
0
LINE
8
BLACK
6
CONTINUOUS
10
4.9442990157480313
20
-3.0063073228346457
11
4.9478749999999998
21
-2.9992890157480314
0
LINE
8
BLACK
6
CONTINUOUS
10
4.9478749999999998
20
-2.9992890157480314
11
4.9525048425196854
21
-2.9929165748031497
0
LINE
8
BLACK
6
CONTINUOUS
10
4.9525048425196854
20
-2.9929165748031497
11
4.9580746062992125
21
-2.9873468110236221
0
LINE
8
BLACK
6
CONTINUOUS
10
4.9580746062992125
20
-2.9873468110236221
11
4.9644470472440947
21
-2.982716968503937
0
LINE
8
BLACK
6
CONTINUOUS
10
4.9644470472440947
20
-2.982716968503937
11
4.9714653543307081
21
-2.9791409842519685
0
LINE
8
BLACK
6
CONTINUOUS
10
4.9714653543307081
20
-2.9791409842519685
11
4.978956614173228
21
-2.9767068897637796
0
LINE
8
BLACK
6
CONTINUOUS
10
4.978956614173228
20
-2.9767068897637796
11
4.9867364566929133
21
-2.9754746850393698
0
LINE
8
BLACK
6
CONTINUOUS
10
4.9867364566929133
20
-2.9754746850393698
11
4.9946132283464566
21
-2.9754746850393698
0
LINE
8
BLACK
6
CONTINUOUS
10
4.9946132283464566
20
-2.9754746850393698
11
5.0023930708661419
21
-2.9767068897637796
0
LINE
8
BLACK
6
CONTINUOUS
10
4.9424464960629919
20
-3.0293124803149607
11
4.9436340551181104
21
-3.03681031496063
0
LINE
8
BLACK
6
CONTINUOUS
10
4.9436340551181104
20
-3.03681031496063
11
4.9459798818897633
21
-3.0440300787401573
0
LINE
8
BLACK
6
CONTINUOUS
10
4.9459798818897633
20
-3.0440300787401573
11
4.9494262598425198
21
-3.0507939763779528
0
LINE
8
BLACK
6
CONTINUOUS
10
4.9494262598425198
20
-3.0507939763779528
11
4.953888307086614
21
-3.0569354724409448
0
LINE
8
BLACK
6
CONTINUOUS
10
4.953888307086614
20
-3.0569354724409448
11
4.9592561811023623
21
-3.0623033464566927
0
LINE
8
BLACK
6
CONTINUOUS
10
4.9592561811023623
20
-3.0623033464566927
11
4.9653976771653543
21
-3.0667653937007873
0
LINE
8
BLACK
6
CONTINUOUS
10
4.9653976771653543
20
-3.0667653937007873
11
4.9721615748031498
21
-3.0702117716535433
0
LINE
8
BLACK
6
CONTINUOUS
10
4.9721615748031498
20
-3.0702117716535433
11
4.9793813385826766
21
-3.0725575984251967
0
LINE
8
BLACK
6
CONTINUOUS
10
4.9793813385826766
20
-3.0725575984251967
11
4.9868791732283464
21
-3.0737451574803147
0
LINE
8
BLACK
6
CONTINUOUS
10
4.9868791732283464
20
-3.0737451574803147
11
4.9944705118110235
21
-3.0737451574803147
0
LINE
8
BLACK
6
CONTINUOUS
10
4.9944705118110235
20
-3.0737451574803147
11
5.0019683464566924
21
-3.0725575984251967
0
LINE
8
BLACK
6
CONTINUOUS
10
5.0019683464566924
20
-3.0725575984251967
11
5.0091881102362201
21
-3.0702117716535433
0
LINE
8
BLACK
6
CONTINUOUS
10
5.0091881102362201
20
-3.0702117716535433
11
5.0159520078740156
21
-3.0667653937007873
0
LINE
8
BLACK
6
CONTINUOUS
10
5.0159520078740156
20
-3.0667653937007873
11
5.0220935039370076
21
-3.0623033464566927
0
LINE
8
BLACK
6
CONTINUOUS
10
5.0220935039370076
20
-3.0623033464566927
11
5.0274613779527559
21
-3.0569354724409448
0
LINE
8
BLACK
6
CONTINUOUS
10
5.0274613779527559
20
-3.0569354724409448
11
5.0319234251968501
21
-3.0507939763779528
0
LINE
8
BLACK
6
CONTINUOUS
10
5.0319234251968501
20
-3.0507939763779528
11
5.0353698031496066
21
-3.0440300787401573
0
LINE
8
BLACK
6
CONTINUOUS
10
5.0353698031496066
20
-3.0440300787401573
11
5.0377156299212595
21
-3.03681031496063
0
LINE
8
BLACK
6
CONTINUOUS
10
5.0377156299212595
20
-3.03681031496063
11
5.038903188976378
21
-3.0293124803149607
0
LINE
8
BLACK
6
CONTINUOUS
10
5.038903188976378
20
-3.0293124803149607
11
5.038903188976378
21
-3.0217211417322836
0
LINE
8
BLACK
6
CONTINUOUS
10
5.038903188976378
20
-3.0217211417322836
11
5.0377156299212595
21
-3.0142233070866142
0
LINE
8
BLACK
6
CONTINUOUS
10
5.0377156299212595
20
-3.0142233070866142
11
5.0353698031496066
21
-3.0070035433070865
0
LINE
8
BLACK
6
CONTINUOUS
10
5.0353698031496066
20
-3.0070035433070865
11
5.0319234251968501
21
-3.0002396456692915
0
LINE
8
BLACK
6
CONTINUOUS
10
5.0319234251968501
20
-3.0002396456692915
11
5.0274613779527559
21
-2.9940981496062991
0
LINE
8
BLACK
6
CONTINUOUS
10
5.0274613779527559
20
-2.9940981496062991
11
5.0220935039370076
21
-2.9887302755905512
0
LINE
8
BLACK
6
CONTINUOUS
10
5.0220935039370076
20
-2.9887302755905512
11
5.0159520078740156
21
-2.9842682283464566
0
LINE
8
BLACK
6
CONTINUOUS
10
5.0159520078740156
20
-2.9842682283464566
11
5.0091881102362201
21
-2.9808218503937005
0
LINE
8
BLACK
6
CONTINUOUS
10
5.0091881102362201
20
-2.9808218503937005
11
5.0019683464566924
21
-2.9784760236220471
0
LINE
8
BLACK
6
CONTINUOUS
10
5.0019683464566924
20
-2.9784760236220471
11
4.9944705118110235
21
-2.9772884645669291
0
LINE
8
BLACK
6
CONTINUOUS
10
4.9944705118110235
20
-2.9772884645669291
11
4.9868791732283464
21
-2.9772884645669291
0
LINE
8
BLACK
6
CONTINUOUS
10
4.9868791732283464
20
-2.9772884645669291
11
4.9793813385826766
21
-2.9784760236220471
0
LINE
8
BLACK
6
CONTINUOUS
10
4.9793813385826766
20
-2.9784760236220471
11
4.9721615748031498
21
-2.9808218503937005
0
LINE
8
BLACK
6
CONTINUOUS
10
4.9721615748031498
20
-2.9808218503937005
11
4.9653976771653543
21
-2.9842682283464566
0
LINE
8
BLACK
6
CONTINUOUS
10
4.9653976771653543
20
-2.9842682283464566
11
4.9592561811023623
21
-2.9887302755905512
0
LINE
8
BLACK
6
CONTINUOUS
10
4.9592561811023623
20
-2.9887302755905512
11
4.953888307086614
21
-2.9940981496062991
0
LINE
8
BLACK
6
CONTINUOUS
10
4.953888307086614
20
-2.9940981496062991
11
4.9494262598425198
21
-3.0002396456692915
0
LINE
8
BLACK
6
CONTINUOUS
10
4.9494262598425198
20
-3.0002396456692915
11
4.9459798818897633
21
-3.0070035433070865
0
LINE
8
BLACK
6
CONTINUOUS
10
4.9459798818897633
20
-3.0070035433070865
11
4.9436340551181104
21
-3.0142233070866142
0
LINE
8
BLACK
6
CONTINUOUS
10
4.9436340551181104
20
-3.0142233070866142
11
4.9424464960629919
21
-3.0217211417322836
0
LINE
8
BLACK
6
CONTINUOUS
10
4.9424464960629919
20
-3.0217211417322836
11
4.9424464960629919
21
-3.0293124803149607
0
CIRCLE
8
BLACK
10
6.8886748425196851
20
-3.0975168110236222
40
0.0068897637795276
0
CIRCLE
8
BLACK
10
4.0886748425196853
20
-3.0975168110236222
40
0.0068897637795276
0
CIRCLE
8
BLACK
10
4.0886748425196853
20
-4.6975168110236218
40
0.0068897637795276
0
CIRCLE
8
BLACK
10
4.493399251968504
20
-3.4644459448818896
40
0.0068897637795276
0
CIRCLE
8
BLACK
10
4.296548858267716
20
-3.4644459448818896
40
0.0068897637795276
0
CIRCLE
8
BLACK
10
6.8886748425196851
20
-4.6975168110236218
40
0.0068897637795276
0
CIRCLE
8
BLACK
10
6.1252181496062992
20
-3.0695168110236222
40
0.0068897637795276
0
CIRCLE
8
BLACK
10
6.3173441338582679
20
-3.0695168110236222
40
0.0068897637795276
0
CIRCLE
8
BLACK
10
7.2237929527559057
20
-4.5182845275590546
40
0.0068897637795276
0
CIRCLE
8
BLACK
10
7.2237929527559057
20
-4.745843582677165
40
0.0068897637795276
0
LINE
8
BLACK
6
CONTINUOUS
10
7.3859645275590546
20
-4.4502753543307083
11
7.3889427559055116
21
-4.4510733464566927
0
LINE
8
BLACK
6
CONTINUOUS
10
7.3889427559055116
20
-4.4510733464566927
11
7.3916129527559056
21
-4.4526149999999998
0
LINE
8
BLACK
6
CONTINUOUS
10
7.3916129527559056
20
-4.4526149999999998
11
7.3937931889763782
21
-4.4547952362204724
0
LINE
8
BLACK
6
CONTINUOUS
10
7.3937931889763782
20
-4.4547952362204724
11
7.3953348425196852
21
-4.4574654330708663
0
LINE
8
BLACK
6
CONTINUOUS
10
7.3953348425196852
20
-4.4574654330708663
11
7.3961328346456687
21
-4.4604436614173224
0
LINE
8
BLACK
6
CONTINUOUS
10
7.3961328346456687
20
-4.4604436614173224
11
7.3961328346456687
21
-4.4635269685039365
0
LINE
8
BLACK
6
CONTINUOUS
10
7.3961328346456687
20
-4.4635269685039365
11
7.3953348425196852
21
-4.4665051968503935
0
LINE
8
BLACK
6
CONTINUOUS
10
7.3953348425196852
20
-4.4665051968503935
11
7.3937931889763782
21
-4.4691753937007874
0
LINE
8
BLACK
6
CONTINUOUS
10
7.3937931889763782
20
-4.4691753937007874
11
7.3916129527559056
21
-4.47135562992126
0
LINE
8
BLACK
6
CONTINUOUS
10
7.3916129527559056
20
-4.47135562992126
11
7.3889427559055116
21
-4.4728972834645671
0
LINE
8
BLACK
6
CONTINUOUS
10
7.3889427559055116
20
-4.4728972834645671
11
7.3859645275590546
21
-4.4736952755905515
0
LINE
8
BLACK
6
CONTINUOUS
10
7.3859645275590546
20
-4.4736952755905515
11
7.3844228740157476
21
-4.4737963385826767
0
LINE
8
BLACK
6
CONTINUOUS
10
7.3844228740157476
20
-4.4737963385826767
11
7.3529268110236217
21
-4.4737963385826767
0
LINE
8
BLACK
6
CONTINUOUS
10
7.3529268110236217
20
-4.4737963385826767
11
7.3513851574803146
21
-4.4736952755905515
0
LINE
8
BLACK
6
CONTINUOUS
10
7.3513851574803146
20
-4.4736952755905515
11
7.3484069291338585
21
-4.4728972834645671
0
LINE
8
BLACK
6
CONTINUOUS
10
7.3484069291338585
20
-4.4728972834645671
11
7.3457367322834646
21
-4.47135562992126
0
LINE
8
BLACK
6
CONTINUOUS
10
7.3457367322834646
20
-4.47135562992126
11
7.343556496062992
21
-4.4691753937007874
0
LINE
8
BLACK
6
CONTINUOUS
10
7.343556496062992
20
-4.4691753937007874
11
7.3420148425196849
21
-4.4665051968503935
0
LINE
8
BLACK
6
CONTINUOUS
10
7.3420148425196849
20
-4.4665051968503935
11
7.3412168503937005
21
-4.4635269685039365
0
LINE
8
BLACK
6
CONTINUOUS
10
7.3412168503937005
20
-4.4635269685039365
11
7.3412168503937005
21
-4.4604436614173224
0
LINE
8
BLACK
6
CONTINUOUS
10
7.3412168503937005
20
-4.4604436614173224
11
7.3420148425196849
21
-4.4574654330708663
0
LINE
8
BLACK
6
CONTINUOUS
10
7.3420148425196849
20
-4.4574654330708663
11
7.343556496062992
21
-4.4547952362204724
0
LINE
8
BLACK
6
CONTINUOUS
10
7.343556496062992
20
-4.4547952362204724
11
7.3457367322834646
21
-4.4526149999999998
0
LINE
8
BLACK
6
CONTINUOUS
10
7.3457367322834646
20
-4.4526149999999998
11
7.3484069291338585
21
-4.4510733464566927
0
LINE
8
BLACK
6
CONTINUOUS
10
7.3484069291338585
20
-4.4510733464566927
11
7.3513851574803146
21
-4.4502753543307083
0
LINE
8
BLACK
6
CONTINUOUS
10
7.3513851574803146
20
-4.4502753543307083
11
7.3529268110236217
21
-4.4501742913385822
0
LINE
8
BLACK
6
CONTINUOUS
10
7.3529268110236217
20
-4.4501742913385822
11
7.3844228740157476
21
-4.4501742913385822
0
LINE
8
BLACK
6
CONTINUOUS
10
7.3844228740157476
20
-4.4501742913385822
11
7.3859645275590546
21
-4.4502753543307083
0
LINE
8
BLACK
6
CONTINUOUS
10
7.3859645275590546
20
-4.790432834645669
11
7.3889427559055116
21
-4.7912308267716535
0
LINE
8
BLACK
6
CONTINUOUS
10
7.3889427559055116
20
-4.7912308267716535
11
7.3916129527559056
21
-4.7927724803149605
0
LINE
8
BLACK
6
CONTINUOUS
10
7.3916129527559056
20
-4.7927724803149605
11
7.3937931889763782
21
-4.7949527165354331
0
LINE
8
BLACK
6
CONTINUOUS
10
7.3937931889763782
20
-4.7949527165354331
11
7.3953348425196852
21
-4.797622913385827
0
LINE
8
BLACK
6
CONTINUOUS
10
7.3953348425196852
20
-4.797622913385827
11
7.3961328346456687
21
-4.8006011417322831
0
LINE
8
BLACK
6
CONTINUOUS
10
7.3961328346456687
20
-4.8006011417322831
11
7.3961328346456687
21
-4.8036844488188972
0
LINE
8
BLACK
6
CONTINUOUS
10
7.3961328346456687
20
-4.8036844488188972
11
7.3953348425196852
21
-4.8066626771653542
0
LINE
8
BLACK
6
CONTINUOUS
10
7.3953348425196852
20
-4.8066626771653542
11
7.3937931889763782
21
-4.8093328740157482
0
LINE
8
BLACK
6
CONTINUOUS
10
7.3937931889763782
20
-4.8093328740157482
11
7.3916129527559056
21
-4.8115131102362207
0
LINE
8
BLACK
6
CONTINUOUS
10
7.3916129527559056
20
-4.8115131102362207
11
7.3889427559055116
21
-4.8130547637795278
0
LINE
8
BLACK
6
CONTINUOUS
10
7.3889427559055116
20
-4.8130547637795278
11
7.3859645275590546
21
-4.8138527559055113
0
LINE
8
BLACK
6
CONTINUOUS
10
7.3859645275590546
20
-4.8138527559055113
11
7.3844228740157476
21
-4.8139538188976374
0
LINE
8
BLACK
6
CONTINUOUS
10
7.3844228740157476
20
-4.8139538188976374
11
7.3529268110236217
21
-4.8139538188976374
0
LINE
8
BLACK
6
CONTINUOUS
10
7.3529268110236217
20
-4.8139538188976374
11
7.3513851574803146
21
-4.8138527559055113
0
LINE
8
BLACK
6
CONTINUOUS
10
7.3513851574803146
20
-4.8138527559055113
11
7.3484069291338585
21
-4.8130547637795278
0
LINE
8
BLACK
6
CONTINUOUS
10
7.3484069291338585
20
-4.8130547637795278
11
7.3457367322834646
21
-4.8115131102362207
0
LINE
8
BLACK
6
CONTINUOUS
10
7.3457367322834646
20
-4.8115131102362207
11
7.343556496062992
21
-4.8093328740157482
0
LINE
8
BLACK
6
CONTINUOUS
10
7.343556496062992
20
-4.8093328740157482
11
7.3420148425196849
21
-4.8066626771653542
0
LINE
8
BLACK
6
CONTINUOUS
10
7.3420148425196849
20
-4.8066626771653542
11
7.3412168503937005
21
-4.8036844488188972
0
LINE
8
BLACK
6
CONTINUOUS
10
7.3412168503937005
20
-4.8036844488188972
11
7.3412168503937005
21
-4.8006011417322831
0
LINE
8
BLACK
6
CONTINUOUS
10
7.3412168503937005
20
-4.8006011417322831
11
7.3420148425196849
21
-4.797622913385827
0
LINE
8
BLACK
6
CONTINUOUS
10
7.3420148425196849
20
-4.797622913385827
11
7.343556496062992
21
-4.7949527165354331
0
LINE
8
BLACK
6
CONTINUOUS
10
7.343556496062992
20
-4.7949527165354331
11
7.3457367322834646
21
-4.7927724803149605
0
LINE
8
BLACK
6
CONTINUOUS
10
7.3457367322834646
20
-4.7927724803149605
11
7.3484069291338585
21
-4.7912308267716535
0
LINE
8
BLACK
6
CONTINUOUS
10
7.3484069291338585
20
-4.7912308267716535
11
7.3513851574803146
21
-4.790432834645669
0
LINE
8
BLACK
6
CONTINUOUS
10
7.3513851574803146
20
-4.790432834645669
11
7.3529268110236217
21
-4.790331771653543
0
LINE
8
BLACK
6
CONTINUOUS
10
7.3529268110236217
20
-4.790331771653543
11
7.3844228740157476
21
-4.790331771653543
0
LINE
8
BLACK
6
CONTINUOUS
10
7.3844228740157476
20
-4.790331771653543
11
7.3859645275590546
21
-4.790432834645669
0
LINE
8
BLACK
6
CONTINUOUS
10
7.2273031102362202
20
-4.4502753543307083
11
7.2302813385826772
21
-4.4510733464566927
0
LINE
8
BLACK
6
CONTINUOUS
10
7.2302813385826772
20
-4.4510733464566927
11
7.2329515354330711
21
-4.4526149999999998
0
LINE
8
BLACK
6
CONTINUOUS
10
7.2329515354330711
20
-4.4526149999999998
11
7.2351317716535428
21
-4.4547952362204724
0
LINE
8
BLACK
6
CONTINUOUS
10
7.2351317716535428
20
-4.4547952362204724
11
7.2366734251968499
21
-4.4574654330708663
0
LINE
8
BLACK
6
CONTINUOUS
10
7.2366734251968499
20
-4.4574654330708663
11
7.2374714173228343
21
-4.4604436614173224
0
LINE
8
BLACK
6
CONTINUOUS
10
7.2374714173228343
20
-4.4604436614173224
11
7.2374714173228343
21
-4.4635269685039365
0
LINE
8
BLACK
6
CONTINUOUS
10
7.2374714173228343
20
-4.4635269685039365
11
7.2366734251968499
21
-4.4665051968503935
0
LINE
8
BLACK
6
CONTINUOUS
10
7.2366734251968499
20
-4.4665051968503935
11
7.2351317716535428
21
-4.4691753937007874
0
LINE
8
BLACK
6
CONTINUOUS
10
7.2351317716535428
20
-4.4691753937007874
11
7.2329515354330711
21
-4.47135562992126
0
LINE
8
BLACK
6
CONTINUOUS
10
7.2329515354330711
20
-4.47135562992126
11
7.2302813385826772
21
-4.4728972834645671
0
LINE
8
BLACK
6
CONTINUOUS
10
7.2302813385826772
20
-4.4728972834645671
11
7.2273031102362202
21
-4.4736952755905515
0
LINE
8
BLACK
6
CONTINUOUS
10
7.2273031102362202
20
-4.4736952755905515
11
7.2257614566929131
21
-4.4737963385826767
0
LINE
8
BLACK
6
CONTINUOUS
10
7.2257614566929131
20
-4.4737963385826767
11
7.18245437007874
21
-4.4737963385826767
0
LINE
8
BLACK
6
CONTINUOUS
10
7.18245437007874
20
-4.4737963385826767
11
7.1809127165354329
21
-4.4736952755905515
0
LINE
8
BLACK
6
CONTINUOUS
10
7.1809127165354329
20
-4.4736952755905515
11
7.1779344881889759
21
-4.4728972834645671
0
LINE
8
BLACK
6
CONTINUOUS
10
7.1779344881889759
20
-4.4728972834645671
11
7.1752642913385829
21
-4.47135562992126
0
LINE
8
BLACK
6
CONTINUOUS
10
7.1752642913385829
20
-4.47135562992126
11
7.1730840551181103
21
-4.4691753937007874
0
LINE
8
BLACK
6
CONTINUOUS
10
7.1730840551181103
20
-4.4691753937007874
11
7.1715424015748033
21
-4.4665051968503935
0
LINE
8
BLACK
6
CONTINUOUS
10
7.1715424015748033
20
-4.4665051968503935
11
7.1707444094488189
21
-4.4635269685039365
0
LINE
8
BLACK
6
CONTINUOUS
10
7.1707444094488189
20
-4.4635269685039365
11
7.1707444094488189
21
-4.4604436614173224
0
LINE
8
BLACK
6
CONTINUOUS
10
7.1707444094488189
20
-4.4604436614173224
11
7.1715424015748033
21
-4.4574654330708663
0
LINE
8
BLACK
6
CONTINUOUS
10
7.1715424015748033
20
-4.4574654330708663
11
7.1730840551181103
21
-4.4547952362204724
0
LINE
8
BLACK
6
CONTINUOUS
10
7.1730840551181103
20
-4.4547952362204724
11
7.1752642913385829
21
-4.4526149999999998
0
LINE
8
BLACK
6
CONTINUOUS
10
7.1752642913385829
20
-4.4526149999999998
11
7.1779344881889759
21
-4.4510733464566927
0
LINE
8
BLACK
6
CONTINUOUS
10
7.1779344881889759
20
-4.4510733464566927
11
7.1809127165354329
21
-4.4502753543307083
0
LINE
8
BLACK
6
CONTINUOUS
10
7.1809127165354329
20
-4.4502753543307083
11
7.18245437007874
21
-4.4501742913385822
0
LINE
8
BLACK
6
CONTINUOUS
10
7.18245437007874
20
-4.4501742913385822
11
7.2257614566929131
21
-4.4501742913385822
0
LINE
8
BLACK
6
CONTINUOUS
10
7.2257614566929131
20
-4.4501742913385822
11
7.2273031102362202
21
-4.4502753543307083
0
LINE
8
BLACK
6
CONTINUOUS
10
7.2273031102362202
20
-4.790432834645669
11
7.2302813385826772
21
-4.7912308267716535
0
LINE
8
BLACK
6
CONTINUOUS
10
7.2302813385826772
20
-4.7912308267716535
11
7.2329515354330711
21
-4.7927724803149605
0
LINE
8
BLACK
6
CONTINUOUS
10
7.2329515354330711
20
-4.7927724803149605
11
7.2351317716535428
21
-4.7949527165354331
0
LINE
8
BLACK
6
CONTINUOUS
10
7.2351317716535428
20
-4.7949527165354331
11
7.2366734251968499
21
-4.797622913385827
0
LINE
8
BLACK
6
CONTINUOUS
10
7.2366734251968499
20
-4.797622913385827
11
7.2374714173228343
21
-4.8006011417322831
0
LINE
8
BLACK
6
CONTINUOUS
10
7.2374714173228343
20
-4.8006011417322831
11
7.2374714173228343
21
-4.8036844488188972
0
LINE
8
BLACK
6
CONTINUOUS
10
7.2374714173228343
20
-4.8036844488188972
11
7.2366734251968499
21
-4.8066626771653542
0
LINE
8
BLACK
6
CONTINUOUS
10
7.2366734251968499
20
-4.8066626771653542
11
7.2351317716535428
21
-4.8093328740157482
0
LINE
8
BLACK
6
CONTINUOUS
10
7.2351317716535428
20
-4.8093328740157482
11
7.2329515354330711
21
-4.8115131102362207
0
LINE
8
BLACK
6
CONTINUOUS
10
7.2329515354330711
20
-4.8115131102362207
11
7.2302813385826772
21
-4.8130547637795278
0
LINE
8
BLACK
6
CONTINUOUS
10
7.2302813385826772
20
-4.8130547637795278
11
7.2273031102362202
21
-4.8138527559055113
0
LINE
8
BLACK
6
CONTINUOUS
10
7.2273031102362202
20
-4.8138527559055113
11
7.2257614566929131
21
-4.8139538188976374
0
LINE
8
BLACK
6
CONTINUOUS
10
7.2257614566929131
20
-4.8139538188976374
11
7.18245437007874
21
-4.8139538188976374
0
LINE
8
BLACK
6
CONTINUOUS
10
7.18245437007874
20
-4.8139538188976374
11
7.1809127165354329
21
-4.8138527559055113
0
LINE
8
BLACK
6
CONTINUOUS
10
7.1809127165354329
20
-4.8138527559055113
11
7.1779344881889759
21
-4.8130547637795278
0
LINE
8
BLACK
6
CONTINUOUS
10
7.1779344881889759
20
-4.8130547637795278
11
7.1752642913385829
21
-4.8115131102362207
0
LINE
8
BLACK
6
CONTINUOUS
10
7.1752642913385829
20
-4.8115131102362207
11
7.1730840551181103
21
-4.8093328740157482
0
LINE
8
BLACK
6
CONTINUOUS
10
7.1730840551181103
20
-4.8093328740157482
11
7.1715424015748033
21
-4.8066626771653542
0
LINE
8
BLACK
6
CONTINUOUS
10
7.1715424015748033
20
-4.8066626771653542
11
7.1707444094488189
21
-4.8036844488188972
0
LINE
8
BLACK
6
CONTINUOUS
10
7.1707444094488189
20
-4.8036844488188972
11
7.1707444094488189
21
-4.8006011417322831
0
LINE
8
BLACK
6
CONTINUOUS
10
7.1707444094488189
20
-4.8006011417322831
11
7.1715424015748033
21
-4.797622913385827
0
LINE
8
BLACK
6
CONTINUOUS
10
7.1715424015748033
20
-4.797622913385827
11
7.1730840551181103
21
-4.7949527165354331
0
LINE
8
BLACK
6
CONTINUOUS
10
7.1730840551181103
20
-4.7949527165354331
11
7.1752642913385829
21
-4.7927724803149605
0
LINE
8
BLACK
6
CONTINUOUS
10
7.1752642913385829
20
-4.7927724803149605
11
7.1779344881889759
21
-4.7912308267716535
0
LINE
8
BLACK
6
CONTINUOUS
10
7.1779344881889759
20
-4.7912308267716535
11
7.1809127165354329
21
-4.790432834645669
0
LINE
8
BLACK
6
CONTINUOUS
10
7.1809127165354329
20
-4.790432834645669
11
7.18245437007874
21
-4.790331771653543
0
LINE
8
BLACK
6
CONTINUOUS
10
7.18245437007874
20
-4.790331771653543
11
7.2257614566929131
21
-4.790331771653543
0
LINE
8
BLACK
6
CONTINUOUS
10
7.2257614566929131
20
-4.790331771653543
11
7.2273031102362202
21
-4.790432834645669
  0
ENDSEC
  0
EOF
