  0
SECTION
  2
HEADER
  9
$ANGBASE
  50
0.0
  9
$ANGDIR
  70
1
  9
$MEASUREMENT
  70
0
  0
ENDSEC
  0
SECTION
  2
TABLES
  0
TABLE
  2
LTYPE
  70
4
  0
LTYPE
  5
40F
  2
CONTINUOUS
  70
0
  3
Solid line
  72
65
  73
0
  40
0.0
  0
LTYPE
  5
410
  2
DASHDOT
 70
0
  3
Dash Dot ____ _ ____ _
 72
65
 73
4
 40
2.0
 49
1.25
 49
-0.25
 49
0.25
 49
-0.25
  0
LTYPE
  5
411
  2
DASHED
 70
0
  3
Dashed __ __ __ __ __
 72
65
 73
2
 40
0.75
 49
0.5
 49
-0.25
  0
LTYPE
  5
43B
  2
DOTTED
 70
0
  3
Dotted .  .  .  .
 72
65
 73
2
 40
0.2
 49
0.0
 49
-0.2
  0
ENDTAB
  0
TABLE
  2
STYLE
  70
4
  0
STYLE
  2
KICAD
  70
0
  40
0
  41
1
  42
1
  50
0
  71
0
  3
isocp.shx
  0
STYLE
  2
KICADB
  70
0
  40
0
  41
1
  42
1
  50
0
  71
0
  3
isocp.shx
  0
STYLE
  2
KICADI
  70
0
  40
0
  41
1
  42
1
  50
15
  71
0
  3
isocp.shx
  0
STYLE
  2
KICADBI
  70
0
  40
0
  41
1
  42
1
  50
15
  71
0
  3
isocp.shx
  0
ENDTAB
  0
TABLE
  2
LAYER
  70
1
  0
LAYER
  2
BLACK
  70
0
  62
7
  6
CONTINUOUS
  0
ENDTAB
  0
ENDSEC
  0
SECTION
  2
ENTITIES
0
LINE
8
BLACK
6
CONTINUOUS
10
5.85618
20
-4.72878
11
5.85937
21
-4.73091
0
LINE
8
BLACK
6
CONTINUOUS
10
5.85937
20
-4.73091
11
5.86151
21
-4.7341
0
LINE
8
BLACK
6
CONTINUOUS
10
5.86151
20
-4.7341
11
5.86226
21
-4.73787
0
LINE
8
BLACK
6
CONTINUOUS
10
5.86226
20
-4.73787
11
5.86226
21
-4.7674
0
LINE
8
BLACK
6
CONTINUOUS
10
5.86226
20
-4.7674
11
5.86151
21
-4.77117
0
LINE
8
BLACK
6
CONTINUOUS
10
5.86151
20
-4.77117
11
5.85937
21
-4.77436
0
LINE
8
BLACK
6
CONTINUOUS
10
5.85937
20
-4.77436
11
5.85618
21
-4.77649
0
LINE
8
BLACK
6
CONTINUOUS
10
5.85618
20
-4.77649
11
5.85241
21
-4.77724
0
LINE
8
BLACK
6
CONTINUOUS
10
5.85241
20
-4.77724
11
5.8032
21
-4.77724
0
LINE
8
BLACK
6
CONTINUOUS
10
5.8032
20
-4.77724
11
5.79944
21
-4.77649
0
LINE
8
BLACK
6
CONTINUOUS
10
5.79944
20
-4.77649
11
5.79624
21
-4.77436
0
LINE
8
BLACK
6
CONTINUOUS
10
5.79624
20
-4.77436
11
5.79411
21
-4.77117
0
LINE
8
BLACK
6
CONTINUOUS
10
5.79411
20
-4.77117
11
5.79336
21
-4.7674
0
LINE
8
BLACK
6
CONTINUOUS
10
5.79336
20
-4.7674
11
5.79336
21
-4.73787
0
LINE
8
BLACK
6
CONTINUOUS
10
5.79336
20
-4.73787
11
5.79411
21
-4.7341
0
LINE
8
BLACK
6
CONTINUOUS
10
5.79411
20
-4.7341
11
5.79624
21
-4.73091
0
LINE
8
BLACK
6
CONTINUOUS
10
5.79624
20
-4.73091
11
5.79944
21
-4.72878
0
LINE
8
BLACK
6
CONTINUOUS
10
5.79944
20
-4.72878
11
5.8032
21
-4.72803
0
LINE
8
BLACK
6
CONTINUOUS
10
5.8032
20
-4.72803
11
5.85241
21
-4.72803
0
LINE
8
BLACK
6
CONTINUOUS
10
5.85241
20
-4.72803
11
5.85618
21
-4.72878
0
LINE
8
BLACK
6
CONTINUOUS
10
6.05303
20
-4.72878
11
6.05623
21
-4.73091
0
LINE
8
BLACK
6
CONTINUOUS
10
6.05623
20
-4.73091
11
6.05836
21
-4.7341
0
LINE
8
BLACK
6
CONTINUOUS
10
6.05836
20
-4.7341
11
6.05911
21
-4.73787
0
LINE
8
BLACK
6
CONTINUOUS
10
6.05911
20
-4.73787
11
6.05911
21
-4.7674
0
LINE
8
BLACK
6
CONTINUOUS
10
6.05911
20
-4.7674
11
6.05836
21
-4.77117
0
LINE
8
BLACK
6
CONTINUOUS
10
6.05836
20
-4.77117
11
6.05623
21
-4.77436
0
LINE
8
BLACK
6
CONTINUOUS
10
6.05623
20
-4.77436
11
6.05303
21
-4.77649
0
LINE
8
BLACK
6
CONTINUOUS
10
6.05303
20
-4.77649
11
6.04927
21
-4.77724
0
LINE
8
BLACK
6
CONTINUOUS
10
6.04927
20
-4.77724
11
6.00005
21
-4.77724
0
LINE
8
BLACK
6
CONTINUOUS
10
6.00005
20
-4.77724
11
5.99629
21
-4.77649
0
LINE
8
BLACK
6
CONTINUOUS
10
5.99629
20
-4.77649
11
5.99309
21
-4.77436
0
LINE
8
BLACK
6
CONTINUOUS
10
5.99309
20
-4.77436
11
5.99096
21
-4.77117
0
LINE
8
BLACK
6
CONTINUOUS
10
5.99096
20
-4.77117
11
5.99021
21
-4.7674
0
LINE
8
BLACK
6
CONTINUOUS
10
5.99021
20
-4.7674
11
5.99021
21
-4.73787
0
LINE
8
BLACK
6
CONTINUOUS
10
5.99021
20
-4.73787
11
5.99096
21
-4.7341
0
LINE
8
BLACK
6
CONTINUOUS
10
5.99096
20
-4.7341
11
5.99309
21
-4.73091
0
LINE
8
BLACK
6
CONTINUOUS
10
5.99309
20
-4.73091
11
5.99629
21
-4.72878
0
LINE
8
BLACK
6
CONTINUOUS
10
5.99629
20
-4.72878
11
6.00005
21
-4.72803
0
LINE
8
BLACK
6
CONTINUOUS
10
6.00005
20
-4.72803
11
6.04927
21
-4.72803
0
LINE
8
BLACK
6
CONTINUOUS
10
6.04927
20
-4.72803
11
6.05303
21
-4.72878
0
LINE
8
BLACK
6
CONTINUOUS
10
6.24988
20
-4.72878
11
6.25308
21
-4.73091
0
LINE
8
BLACK
6
CONTINUOUS
10
6.25308
20
-4.73091
11
6.25521
21
-4.7341
0
LINE
8
BLACK
6
CONTINUOUS
10
6.25521
20
-4.7341
11
6.25596
21
-4.73787
0
LINE
8
BLACK
6
CONTINUOUS
10
6.25596
20
-4.73787
11
6.25596
21
-4.7674
0
LINE
8
BLACK
6
CONTINUOUS
10
6.25596
20
-4.7674
11
6.25521
21
-4.77117
0
LINE
8
BLACK
6
CONTINUOUS
10
6.25521
20
-4.77117
11
6.25308
21
-4.77436
0
LINE
8
BLACK
6
CONTINUOUS
10
6.25308
20
-4.77436
11
6.24988
21
-4.77649
0
LINE
8
BLACK
6
CONTINUOUS
10
6.24988
20
-4.77649
11
6.24612
21
-4.77724
0
LINE
8
BLACK
6
CONTINUOUS
10
6.24612
20
-4.77724
11
6.1969
21
-4.77724
0
LINE
8
BLACK
6
CONTINUOUS
10
6.1969
20
-4.77724
11
6.19314
21
-4.77649
0
LINE
8
BLACK
6
CONTINUOUS
10
6.19314
20
-4.77649
11
6.18994
21
-4.77436
0
LINE
8
BLACK
6
CONTINUOUS
10
6.18994
20
-4.77436
11
6.18781
21
-4.77117
0
LINE
8
BLACK
6
CONTINUOUS
10
6.18781
20
-4.77117
11
6.18706
21
-4.7674
0
LINE
8
BLACK
6
CONTINUOUS
10
6.18706
20
-4.7674
11
6.18706
21
-4.73787
0
LINE
8
BLACK
6
CONTINUOUS
10
6.18706
20
-4.73787
11
6.18781
21
-4.7341
0
LINE
8
BLACK
6
CONTINUOUS
10
6.18781
20
-4.7341
11
6.18994
21
-4.73091
0
LINE
8
BLACK
6
CONTINUOUS
10
6.18994
20
-4.73091
11
6.19314
21
-4.72878
0
LINE
8
BLACK
6
CONTINUOUS
10
6.19314
20
-4.72878
11
6.1969
21
-4.72803
0
LINE
8
BLACK
6
CONTINUOUS
10
6.1969
20
-4.72803
11
6.24612
21
-4.72803
0
LINE
8
BLACK
6
CONTINUOUS
10
6.24612
20
-4.72803
11
6.24988
21
-4.72878
0
LINE
8
BLACK
6
CONTINUOUS
10
6.44673
20
-4.72878
11
6.44993
21
-4.73091
0
LINE
8
BLACK
6
CONTINUOUS
10
6.44993
20
-4.73091
11
6.45206
21
-4.7341
0
LINE
8
BLACK
6
CONTINUOUS
10
6.45206
20
-4.7341
11
6.45281
21
-4.73787
0
LINE
8
BLACK
6
CONTINUOUS
10
6.45281
20
-4.73787
11
6.45281
21
-4.7674
0
LINE
8
BLACK
6
CONTINUOUS
10
6.45281
20
-4.7674
11
6.45206
21
-4.77117
0
LINE
8
BLACK
6
CONTINUOUS
10
6.45206
20
-4.77117
11
6.44993
21
-4.77436
0
LINE
8
BLACK
6
CONTINUOUS
10
6.44993
20
-4.77436
11
6.44673
21
-4.77649
0
LINE
8
BLACK
6
CONTINUOUS
10
6.44673
20
-4.77649
11
6.44297
21
-4.77724
0
LINE
8
BLACK
6
CONTINUOUS
10
6.44297
20
-4.77724
11
6.39375
21
-4.77724
0
LINE
8
BLACK
6
CONTINUOUS
10
6.39375
20
-4.77724
11
6.38999
21
-4.77649
0
LINE
8
BLACK
6
CONTINUOUS
10
6.38999
20
-4.77649
11
6.38679
21
-4.77436
0
LINE
8
BLACK
6
CONTINUOUS
10
6.38679
20
-4.77436
11
6.38466
21
-4.77117
0
LINE
8
BLACK
6
CONTINUOUS
10
6.38466
20
-4.77117
11
6.38391
21
-4.7674
0
LINE
8
BLACK
6
CONTINUOUS
10
6.38391
20
-4.7674
11
6.38391
21
-4.73787
0
LINE
8
BLACK
6
CONTINUOUS
10
6.38391
20
-4.73787
11
6.38466
21
-4.7341
0
LINE
8
BLACK
6
CONTINUOUS
10
6.38466
20
-4.7341
11
6.38679
21
-4.73091
0
LINE
8
BLACK
6
CONTINUOUS
10
6.38679
20
-4.73091
11
6.38999
21
-4.72878
0
LINE
8
BLACK
6
CONTINUOUS
10
6.38999
20
-4.72878
11
6.39375
21
-4.72803
0
LINE
8
BLACK
6
CONTINUOUS
10
6.39375
20
-4.72803
11
6.44297
21
-4.72803
0
LINE
8
BLACK
6
CONTINUOUS
10
6.44297
20
-4.72803
11
6.44673
21
-4.72878
0
LINE
8
BLACK
6
CONTINUOUS
10
6.64358
20
-4.72878
11
6.64678
21
-4.73091
0
LINE
8
BLACK
6
CONTINUOUS
10
6.64678
20
-4.73091
11
6.64891
21
-4.7341
0
LINE
8
BLACK
6
CONTINUOUS
10
6.64891
20
-4.7341
11
6.64966
21
-4.73787
0
LINE
8
BLACK
6
CONTINUOUS
10
6.64966
20
-4.73787
11
6.64966
21
-4.7674
0
LINE
8
BLACK
6
CONTINUOUS
10
6.64966
20
-4.7674
11
6.64891
21
-4.77117
0
LINE
8
BLACK
6
CONTINUOUS
10
6.64891
20
-4.77117
11
6.64678
21
-4.77436
0
LINE
8
BLACK
6
CONTINUOUS
10
6.64678
20
-4.77436
11
6.64358
21
-4.77649
0
LINE
8
BLACK
6
CONTINUOUS
10
6.64358
20
-4.77649
11
6.63982
21
-4.77724
0
LINE
8
BLACK
6
CONTINUOUS
10
6.63982
20
-4.77724
11
6.5906
21
-4.77724
0
LINE
8
BLACK
6
CONTINUOUS
10
6.5906
20
-4.77724
11
6.58684
21
-4.77649
0
LINE
8
BLACK
6
CONTINUOUS
10
6.58684
20
-4.77649
11
6.58364
21
-4.77436
0
LINE
8
BLACK
6
CONTINUOUS
10
6.58364
20
-4.77436
11
6.58151
21
-4.77117
0
LINE
8
BLACK
6
CONTINUOUS
10
6.58151
20
-4.77117
11
6.58076
21
-4.7674
0
LINE
8
BLACK
6
CONTINUOUS
10
6.58076
20
-4.7674
11
6.58076
21
-4.73787
0
LINE
8
BLACK
6
CONTINUOUS
10
6.58076
20
-4.73787
11
6.58151
21
-4.7341
0
LINE
8
BLACK
6
CONTINUOUS
10
6.58151
20
-4.7341
11
6.58364
21
-4.73091
0
LINE
8
BLACK
6
CONTINUOUS
10
6.58364
20
-4.73091
11
6.58684
21
-4.72878
0
LINE
8
BLACK
6
CONTINUOUS
10
6.58684
20
-4.72878
11
6.5906
21
-4.72803
0
LINE
8
BLACK
6
CONTINUOUS
10
6.5906
20
-4.72803
11
6.63982
21
-4.72803
0
LINE
8
BLACK
6
CONTINUOUS
10
6.63982
20
-4.72803
11
6.64358
21
-4.72878
0
LINE
8
BLACK
6
CONTINUOUS
10
5.85618
20
-4.61854
11
5.85937
21
-4.62068
0
LINE
8
BLACK
6
CONTINUOUS
10
5.85937
20
-4.62068
11
5.86151
21
-4.62387
0
LINE
8
BLACK
6
CONTINUOUS
10
5.86151
20
-4.62387
11
5.86226
21
-4.62763
0
LINE
8
BLACK
6
CONTINUOUS
10
5.86226
20
-4.62763
11
5.86226
21
-4.65716
0
LINE
8
BLACK
6
CONTINUOUS
10
5.86226
20
-4.65716
11
5.86151
21
-4.66093
0
LINE
8
BLACK
6
CONTINUOUS
10
5.86151
20
-4.66093
11
5.85937
21
-4.66412
0
LINE
8
BLACK
6
CONTINUOUS
10
5.85937
20
-4.66412
11
5.85618
21
-4.66626
0
LINE
8
BLACK
6
CONTINUOUS
10
5.85618
20
-4.66626
11
5.85241
21
-4.667
0
LINE
8
BLACK
6
CONTINUOUS
10
5.85241
20
-4.667
11
5.8032
21
-4.667
0
LINE
8
BLACK
6
CONTINUOUS
10
5.8032
20
-4.667
11
5.79944
21
-4.66626
0
LINE
8
BLACK
6
CONTINUOUS
10
5.79944
20
-4.66626
11
5.79624
21
-4.66412
0
LINE
8
BLACK
6
CONTINUOUS
10
5.79624
20
-4.66412
11
5.79411
21
-4.66093
0
LINE
8
BLACK
6
CONTINUOUS
10
5.79411
20
-4.66093
11
5.79336
21
-4.65716
0
LINE
8
BLACK
6
CONTINUOUS
10
5.79336
20
-4.65716
11
5.79336
21
-4.62763
0
LINE
8
BLACK
6
CONTINUOUS
10
5.79336
20
-4.62763
11
5.79411
21
-4.62387
0
LINE
8
BLACK
6
CONTINUOUS
10
5.79411
20
-4.62387
11
5.79624
21
-4.62068
0
LINE
8
BLACK
6
CONTINUOUS
10
5.79624
20
-4.62068
11
5.79944
21
-4.61854
0
LINE
8
BLACK
6
CONTINUOUS
10
5.79944
20
-4.61854
11
5.8032
21
-4.61779
0
LINE
8
BLACK
6
CONTINUOUS
10
5.8032
20
-4.61779
11
5.85241
21
-4.61779
0
LINE
8
BLACK
6
CONTINUOUS
10
5.85241
20
-4.61779
11
5.85618
21
-4.61854
0
LINE
8
BLACK
6
CONTINUOUS
10
6.05303
20
-4.61854
11
6.05623
21
-4.62068
0
LINE
8
BLACK
6
CONTINUOUS
10
6.05623
20
-4.62068
11
6.05836
21
-4.62387
0
LINE
8
BLACK
6
CONTINUOUS
10
6.05836
20
-4.62387
11
6.05911
21
-4.62763
0
LINE
8
BLACK
6
CONTINUOUS
10
6.05911
20
-4.62763
11
6.05911
21
-4.65716
0
LINE
8
BLACK
6
CONTINUOUS
10
6.05911
20
-4.65716
11
6.05836
21
-4.66093
0
LINE
8
BLACK
6
CONTINUOUS
10
6.05836
20
-4.66093
11
6.05623
21
-4.66412
0
LINE
8
BLACK
6
CONTINUOUS
10
6.05623
20
-4.66412
11
6.05303
21
-4.66626
0
LINE
8
BLACK
6
CONTINUOUS
10
6.05303
20
-4.66626
11
6.04927
21
-4.667
0
LINE
8
BLACK
6
CONTINUOUS
10
6.04927
20
-4.667
11
6.00005
21
-4.667
0
LINE
8
BLACK
6
CONTINUOUS
10
6.00005
20
-4.667
11
5.99629
21
-4.66626
0
LINE
8
BLACK
6
CONTINUOUS
10
5.99629
20
-4.66626
11
5.99309
21
-4.66412
0
LINE
8
BLACK
6
CONTINUOUS
10
5.99309
20
-4.66412
11
5.99096
21
-4.66093
0
LINE
8
BLACK
6
CONTINUOUS
10
5.99096
20
-4.66093
11
5.99021
21
-4.65716
0
LINE
8
BLACK
6
CONTINUOUS
10
5.99021
20
-4.65716
11
5.99021
21
-4.62763
0
LINE
8
BLACK
6
CONTINUOUS
10
5.99021
20
-4.62763
11
5.99096
21
-4.62387
0
LINE
8
BLACK
6
CONTINUOUS
10
5.99096
20
-4.62387
11
5.99309
21
-4.62068
0
LINE
8
BLACK
6
CONTINUOUS
10
5.99309
20
-4.62068
11
5.99629
21
-4.61854
0
LINE
8
BLACK
6
CONTINUOUS
10
5.99629
20
-4.61854
11
6.00005
21
-4.61779
0
LINE
8
BLACK
6
CONTINUOUS
10
6.00005
20
-4.61779
11
6.04927
21
-4.61779
0
LINE
8
BLACK
6
CONTINUOUS
10
6.04927
20
-4.61779
11
6.05303
21
-4.61854
0
LINE
8
BLACK
6
CONTINUOUS
10
6.24988
20
-4.61854
11
6.25308
21
-4.62068
0
LINE
8
BLACK
6
CONTINUOUS
10
6.25308
20
-4.62068
11
6.25521
21
-4.62387
0
LINE
8
BLACK
6
CONTINUOUS
10
6.25521
20
-4.62387
11
6.25596
21
-4.62763
0
LINE
8
BLACK
6
CONTINUOUS
10
6.25596
20
-4.62763
11
6.25596
21
-4.65716
0
LINE
8
BLACK
6
CONTINUOUS
10
6.25596
20
-4.65716
11
6.25521
21
-4.66093
0
LINE
8
BLACK
6
CONTINUOUS
10
6.25521
20
-4.66093
11
6.25308
21
-4.66412
0
LINE
8
BLACK
6
CONTINUOUS
10
6.25308
20
-4.66412
11
6.24988
21
-4.66626
0
LINE
8
BLACK
6
CONTINUOUS
10
6.24988
20
-4.66626
11
6.24612
21
-4.667
0
LINE
8
BLACK
6
CONTINUOUS
10
6.24612
20
-4.667
11
6.1969
21
-4.667
0
LINE
8
BLACK
6
CONTINUOUS
10
6.1969
20
-4.667
11
6.19314
21
-4.66626
0
LINE
8
BLACK
6
CONTINUOUS
10
6.19314
20
-4.66626
11
6.18994
21
-4.66412
0
LINE
8
BLACK
6
CONTINUOUS
10
6.18994
20
-4.66412
11
6.18781
21
-4.66093
0
LINE
8
BLACK
6
CONTINUOUS
10
6.18781
20
-4.66093
11
6.18706
21
-4.65716
0
LINE
8
BLACK
6
CONTINUOUS
10
6.18706
20
-4.65716
11
6.18706
21
-4.62763
0
LINE
8
BLACK
6
CONTINUOUS
10
6.18706
20
-4.62763
11
6.18781
21
-4.62387
0
LINE
8
BLACK
6
CONTINUOUS
10
6.18781
20
-4.62387
11
6.18994
21
-4.62068
0
LINE
8
BLACK
6
CONTINUOUS
10
6.18994
20
-4.62068
11
6.19314
21
-4.61854
0
LINE
8
BLACK
6
CONTINUOUS
10
6.19314
20
-4.61854
11
6.1969
21
-4.61779
0
LINE
8
BLACK
6
CONTINUOUS
10
6.1969
20
-4.61779
11
6.24612
21
-4.61779
0
LINE
8
BLACK
6
CONTINUOUS
10
6.24612
20
-4.61779
11
6.24988
21
-4.61854
0
LINE
8
BLACK
6
CONTINUOUS
10
6.44673
20
-4.61854
11
6.44993
21
-4.62068
0
LINE
8
BLACK
6
CONTINUOUS
10
6.44993
20
-4.62068
11
6.45206
21
-4.62387
0
LINE
8
BLACK
6
CONTINUOUS
10
6.45206
20
-4.62387
11
6.45281
21
-4.62763
0
LINE
8
BLACK
6
CONTINUOUS
10
6.45281
20
-4.62763
11
6.45281
21
-4.65716
0
LINE
8
BLACK
6
CONTINUOUS
10
6.45281
20
-4.65716
11
6.45206
21
-4.66093
0
LINE
8
BLACK
6
CONTINUOUS
10
6.45206
20
-4.66093
11
6.44993
21
-4.66412
0
LINE
8
BLACK
6
CONTINUOUS
10
6.44993
20
-4.66412
11
6.44673
21
-4.66626
0
LINE
8
BLACK
6
CONTINUOUS
10
6.44673
20
-4.66626
11
6.44297
21
-4.667
0
LINE
8
BLACK
6
CONTINUOUS
10
6.44297
20
-4.667
11
6.39375
21
-4.667
0
LINE
8
BLACK
6
CONTINUOUS
10
6.39375
20
-4.667
11
6.38999
21
-4.66626
0
LINE
8
BLACK
6
CONTINUOUS
10
6.38999
20
-4.66626
11
6.38679
21
-4.66412
0
LINE
8
BLACK
6
CONTINUOUS
10
6.38679
20
-4.66412
11
6.38466
21
-4.66093
0
LINE
8
BLACK
6
CONTINUOUS
10
6.38466
20
-4.66093
11
6.38391
21
-4.65716
0
LINE
8
BLACK
6
CONTINUOUS
10
6.38391
20
-4.65716
11
6.38391
21
-4.62763
0
LINE
8
BLACK
6
CONTINUOUS
10
6.38391
20
-4.62763
11
6.38466
21
-4.62387
0
LINE
8
BLACK
6
CONTINUOUS
10
6.38466
20
-4.62387
11
6.38679
21
-4.62068
0
LINE
8
BLACK
6
CONTINUOUS
10
6.38679
20
-4.62068
11
6.38999
21
-4.61854
0
LINE
8
BLACK
6
CONTINUOUS
10
6.38999
20
-4.61854
11
6.39375
21
-4.61779
0
LINE
8
BLACK
6
CONTINUOUS
10
6.39375
20
-4.61779
11
6.44297
21
-4.61779
0
LINE
8
BLACK
6
CONTINUOUS
10
6.44297
20
-4.61779
11
6.44673
21
-4.61854
0
LINE
8
BLACK
6
CONTINUOUS
10
6.64358
20
-4.61854
11
6.64678
21
-4.62068
0
LINE
8
BLACK
6
CONTINUOUS
10
6.64678
20
-4.62068
11
6.64891
21
-4.62387
0
LINE
8
BLACK
6
CONTINUOUS
10
6.64891
20
-4.62387
11
6.64966
21
-4.62763
0
LINE
8
BLACK
6
CONTINUOUS
10
6.64966
20
-4.62763
11
6.64966
21
-4.65716
0
LINE
8
BLACK
6
CONTINUOUS
10
6.64966
20
-4.65716
11
6.64891
21
-4.66093
0
LINE
8
BLACK
6
CONTINUOUS
10
6.64891
20
-4.66093
11
6.64678
21
-4.66412
0
LINE
8
BLACK
6
CONTINUOUS
10
6.64678
20
-4.66412
11
6.64358
21
-4.66626
0
LINE
8
BLACK
6
CONTINUOUS
10
6.64358
20
-4.66626
11
6.63982
21
-4.667
0
LINE
8
BLACK
6
CONTINUOUS
10
6.63982
20
-4.667
11
6.5906
21
-4.667
0
LINE
8
BLACK
6
CONTINUOUS
10
6.5906
20
-4.667
11
6.58684
21
-4.66626
0
LINE
8
BLACK
6
CONTINUOUS
10
6.58684
20
-4.66626
11
6.58364
21
-4.66412
0
LINE
8
BLACK
6
CONTINUOUS
10
6.58364
20
-4.66412
11
6.58151
21
-4.66093
0
LINE
8
BLACK
6
CONTINUOUS
10
6.58151
20
-4.66093
11
6.58076
21
-4.65716
0
LINE
8
BLACK
6
CONTINUOUS
10
6.58076
20
-4.65716
11
6.58076
21
-4.62763
0
LINE
8
BLACK
6
CONTINUOUS
10
6.58076
20
-4.62763
11
6.58151
21
-4.62387
0
LINE
8
BLACK
6
CONTINUOUS
10
6.58151
20
-4.62387
11
6.58364
21
-4.62068
0
LINE
8
BLACK
6
CONTINUOUS
10
6.58364
20
-4.62068
11
6.58684
21
-4.61854
0
LINE
8
BLACK
6
CONTINUOUS
10
6.58684
20
-4.61854
11
6.5906
21
-4.61779
0
LINE
8
BLACK
6
CONTINUOUS
10
6.5906
20
-4.61779
11
6.63982
21
-4.61779
0
LINE
8
BLACK
6
CONTINUOUS
10
6.63982
20
-4.61779
11
6.64358
21
-4.61854
0
LINE
8
BLACK
6
CONTINUOUS
10
6.28434
20
-4.49299
11
6.08749
21
-4.49299
0
LINE
8
BLACK
6
CONTINUOUS
10
6.08749
20
-4.49299
11
6.08749
21
-4.39456
0
LINE
8
BLACK
6
CONTINUOUS
10
6.08749
20
-4.39456
11
6.28434
21
-4.39456
0
LINE
8
BLACK
6
CONTINUOUS
10
6.28434
20
-4.39456
11
6.28434
21
-4.49299
0
LINE
8
BLACK
6
CONTINUOUS
10
7.47332
20
-4.49299
11
7.27647
21
-4.49299
0
LINE
8
BLACK
6
CONTINUOUS
10
7.27647
20
-4.49299
11
7.27647
21
-4.39456
0
LINE
8
BLACK
6
CONTINUOUS
10
7.27647
20
-4.39456
11
7.47332
21
-4.39456
0
LINE
8
BLACK
6
CONTINUOUS
10
7.47332
20
-4.39456
11
7.47332
21
-4.49299
0
LINE
8
BLACK
6
CONTINUOUS
10
6.07962
20
-4.31445
11
6.01663
21
-4.31445
0
LINE
8
BLACK
6
CONTINUOUS
10
6.01663
20
-4.31445
11
6.01663
21
-4.2672
0
LINE
8
BLACK
6
CONTINUOUS
10
6.01663
20
-4.2672
11
6.07962
21
-4.2672
0
LINE
8
BLACK
6
CONTINUOUS
10
6.07962
20
-4.2672
11
6.07962
21
-4.31445
0
LINE
8
BLACK
6
CONTINUOUS
10
5.89685
20
-4.19271
11
5.90004
21
-4.19484
0
LINE
8
BLACK
6
CONTINUOUS
10
5.90004
20
-4.19484
11
5.90218
21
-4.19803
0
LINE
8
BLACK
6
CONTINUOUS
10
5.90218
20
-4.19803
11
5.90293
21
-4.2018
0
LINE
8
BLACK
6
CONTINUOUS
10
5.90293
20
-4.2018
11
5.90293
21
-4.23723
0
LINE
8
BLACK
6
CONTINUOUS
10
5.90293
20
-4.23723
11
5.90218
21
-4.241
0
LINE
8
BLACK
6
CONTINUOUS
10
5.90218
20
-4.241
11
5.90004
21
-4.24419
0
LINE
8
BLACK
6
CONTINUOUS
10
5.90004
20
-4.24419
11
5.89685
21
-4.24633
0
LINE
8
BLACK
6
CONTINUOUS
10
5.89685
20
-4.24633
11
5.89308
21
-4.24708
0
LINE
8
BLACK
6
CONTINUOUS
10
5.89308
20
-4.24708
11
5.87242
21
-4.24708
0
LINE
8
BLACK
6
CONTINUOUS
10
5.87242
20
-4.24708
11
5.86865
21
-4.24633
0
LINE
8
BLACK
6
CONTINUOUS
10
5.86865
20
-4.24633
11
5.86546
21
-4.24419
0
LINE
8
BLACK
6
CONTINUOUS
10
5.86546
20
-4.24419
11
5.86332
21
-4.241
0
LINE
8
BLACK
6
CONTINUOUS
10
5.86332
20
-4.241
11
5.86257
21
-4.23723
0
LINE
8
BLACK
6
CONTINUOUS
10
5.86257
20
-4.23723
11
5.86257
21
-4.2018
0
LINE
8
BLACK
6
CONTINUOUS
10
5.86257
20
-4.2018
11
5.86332
21
-4.19803
0
LINE
8
BLACK
6
CONTINUOUS
10
5.86332
20
-4.19803
11
5.86546
21
-4.19484
0
LINE
8
BLACK
6
CONTINUOUS
10
5.86546
20
-4.19484
11
5.86865
21
-4.19271
0
LINE
8
BLACK
6
CONTINUOUS
10
5.86865
20
-4.19271
11
5.87242
21
-4.19196
0
LINE
8
BLACK
6
CONTINUOUS
10
5.87242
20
-4.19196
11
5.89308
21
-4.19196
0
LINE
8
BLACK
6
CONTINUOUS
10
5.89308
20
-4.19196
11
5.89685
21
-4.19271
0
LINE
8
BLACK
6
CONTINUOUS
10
5.9687
20
-4.19271
11
5.97189
21
-4.19484
0
LINE
8
BLACK
6
CONTINUOUS
10
5.97189
20
-4.19484
11
5.97403
21
-4.19803
0
LINE
8
BLACK
6
CONTINUOUS
10
5.97403
20
-4.19803
11
5.97478
21
-4.2018
0
LINE
8
BLACK
6
CONTINUOUS
10
5.97478
20
-4.2018
11
5.97478
21
-4.23723
0
LINE
8
BLACK
6
CONTINUOUS
10
5.97478
20
-4.23723
11
5.97403
21
-4.241
0
LINE
8
BLACK
6
CONTINUOUS
10
5.97403
20
-4.241
11
5.97189
21
-4.24419
0
LINE
8
BLACK
6
CONTINUOUS
10
5.97189
20
-4.24419
11
5.9687
21
-4.24633
0
LINE
8
BLACK
6
CONTINUOUS
10
5.9687
20
-4.24633
11
5.96493
21
-4.24708
0
LINE
8
BLACK
6
CONTINUOUS
10
5.96493
20
-4.24708
11
5.94427
21
-4.24708
0
LINE
8
BLACK
6
CONTINUOUS
10
5.94427
20
-4.24708
11
5.9405
21
-4.24633
0
LINE
8
BLACK
6
CONTINUOUS
10
5.9405
20
-4.24633
11
5.93731
21
-4.24419
0
LINE
8
BLACK
6
CONTINUOUS
10
5.93731
20
-4.24419
11
5.93517
21
-4.241
0
LINE
8
BLACK
6
CONTINUOUS
10
5.93517
20
-4.241
11
5.93442
21
-4.23723
0
LINE
8
BLACK
6
CONTINUOUS
10
5.93442
20
-4.23723
11
5.93442
21
-4.2018
0
LINE
8
BLACK
6
CONTINUOUS
10
5.93442
20
-4.2018
11
5.93517
21
-4.19803
0
LINE
8
BLACK
6
CONTINUOUS
10
5.93517
20
-4.19803
11
5.93731
21
-4.19484
0
LINE
8
BLACK
6
CONTINUOUS
10
5.93731
20
-4.19484
11
5.9405
21
-4.19271
0
LINE
8
BLACK
6
CONTINUOUS
10
5.9405
20
-4.19271
11
5.94427
21
-4.19196
0
LINE
8
BLACK
6
CONTINUOUS
10
5.94427
20
-4.19196
11
5.96493
21
-4.19196
0
LINE
8
BLACK
6
CONTINUOUS
10
5.96493
20
-4.19196
11
5.9687
21
-4.19271
0
LINE
8
BLACK
6
CONTINUOUS
10
6.07962
20
-4.24358
11
6.01663
21
-4.24358
0
LINE
8
BLACK
6
CONTINUOUS
10
6.01663
20
-4.24358
11
6.01663
21
-4.19634
0
LINE
8
BLACK
6
CONTINUOUS
10
6.01663
20
-4.19634
11
6.07962
21
-4.19634
0
LINE
8
BLACK
6
CONTINUOUS
10
6.07962
20
-4.19634
11
6.07962
21
-4.24358
0
LINE
8
BLACK
6
CONTINUOUS
10
6.07962
20
-4.14791
11
6.01663
21
-4.14791
0
LINE
8
BLACK
6
CONTINUOUS
10
6.01663
20
-4.14791
11
6.01663
21
-4.10067
0
LINE
8
BLACK
6
CONTINUOUS
10
6.01663
20
-4.10067
11
6.07962
21
-4.10067
0
LINE
8
BLACK
6
CONTINUOUS
10
6.07962
20
-4.10067
11
6.07962
21
-4.14791
0
LINE
8
BLACK
6
CONTINUOUS
10
5.89685
20
-3.99871
11
5.90004
21
-4.00084
0
LINE
8
BLACK
6
CONTINUOUS
10
5.90004
20
-4.00084
11
5.90218
21
-4.00403
0
LINE
8
BLACK
6
CONTINUOUS
10
5.90218
20
-4.00403
11
5.90293
21
-4.0078
0
LINE
8
BLACK
6
CONTINUOUS
10
5.90293
20
-4.0078
11
5.90293
21
-4.04323
0
LINE
8
BLACK
6
CONTINUOUS
10
5.90293
20
-4.04323
11
5.90218
21
-4.047
0
LINE
8
BLACK
6
CONTINUOUS
10
5.90218
20
-4.047
11
5.90004
21
-4.05019
0
LINE
8
BLACK
6
CONTINUOUS
10
5.90004
20
-4.05019
11
5.89685
21
-4.05233
0
LINE
8
BLACK
6
CONTINUOUS
10
5.89685
20
-4.05233
11
5.89308
21
-4.05308
0
LINE
8
BLACK
6
CONTINUOUS
10
5.89308
20
-4.05308
11
5.87242
21
-4.05308
0
LINE
8
BLACK
6
CONTINUOUS
10
5.87242
20
-4.05308
11
5.86865
21
-4.05233
0
LINE
8
BLACK
6
CONTINUOUS
10
5.86865
20
-4.05233
11
5.86546
21
-4.05019
0
LINE
8
BLACK
6
CONTINUOUS
10
5.86546
20
-4.05019
11
5.86332
21
-4.047
0
LINE
8
BLACK
6
CONTINUOUS
10
5.86332
20
-4.047
11
5.86257
21
-4.04323
0
LINE
8
BLACK
6
CONTINUOUS
10
5.86257
20
-4.04323
11
5.86257
21
-4.0078
0
LINE
8
BLACK
6
CONTINUOUS
10
5.86257
20
-4.0078
11
5.86332
21
-4.00403
0
LINE
8
BLACK
6
CONTINUOUS
10
5.86332
20
-4.00403
11
5.86546
21
-4.00084
0
LINE
8
BLACK
6
CONTINUOUS
10
5.86546
20
-4.00084
11
5.86865
21
-3.99871
0
LINE
8
BLACK
6
CONTINUOUS
10
5.86865
20
-3.99871
11
5.87242
21
-3.99796
0
LINE
8
BLACK
6
CONTINUOUS
10
5.87242
20
-3.99796
11
5.89308
21
-3.99796
0
LINE
8
BLACK
6
CONTINUOUS
10
5.89308
20
-3.99796
11
5.89685
21
-3.99871
0
LINE
8
BLACK
6
CONTINUOUS
10
5.9687
20
-3.99871
11
5.97189
21
-4.00084
0
LINE
8
BLACK
6
CONTINUOUS
10
5.97189
20
-4.00084
11
5.97403
21
-4.00403
0
LINE
8
BLACK
6
CONTINUOUS
10
5.97403
20
-4.00403
11
5.97478
21
-4.0078
0
LINE
8
BLACK
6
CONTINUOUS
10
5.97478
20
-4.0078
11
5.97478
21
-4.04323
0
LINE
8
BLACK
6
CONTINUOUS
10
5.97478
20
-4.04323
11
5.97403
21
-4.047
0
LINE
8
BLACK
6
CONTINUOUS
10
5.97403
20
-4.047
11
5.97189
21
-4.05019
0
LINE
8
BLACK
6
CONTINUOUS
10
5.97189
20
-4.05019
11
5.9687
21
-4.05233
0
LINE
8
BLACK
6
CONTINUOUS
10
5.9687
20
-4.05233
11
5.96493
21
-4.05308
0
LINE
8
BLACK
6
CONTINUOUS
10
5.96493
20
-4.05308
11
5.94427
21
-4.05308
0
LINE
8
BLACK
6
CONTINUOUS
10
5.94427
20
-4.05308
11
5.9405
21
-4.05233
0
LINE
8
BLACK
6
CONTINUOUS
10
5.9405
20
-4.05233
11
5.93731
21
-4.05019
0
LINE
8
BLACK
6
CONTINUOUS
10
5.93731
20
-4.05019
11
5.93517
21
-4.047
0
LINE
8
BLACK
6
CONTINUOUS
10
5.93517
20
-4.047
11
5.93442
21
-4.04323
0
LINE
8
BLACK
6
CONTINUOUS
10
5.93442
20
-4.04323
11
5.93442
21
-4.0078
0
LINE
8
BLACK
6
CONTINUOUS
10
5.93442
20
-4.0078
11
5.93517
21
-4.00403
0
LINE
8
BLACK
6
CONTINUOUS
10
5.93517
20
-4.00403
11
5.93731
21
-4.00084
0
LINE
8
BLACK
6
CONTINUOUS
10
5.93731
20
-4.00084
11
5.9405
21
-3.99871
0
LINE
8
BLACK
6
CONTINUOUS
10
5.9405
20
-3.99871
11
5.94427
21
-3.99796
0
LINE
8
BLACK
6
CONTINUOUS
10
5.94427
20
-3.99796
11
5.96493
21
-3.99796
0
LINE
8
BLACK
6
CONTINUOUS
10
5.96493
20
-3.99796
11
5.9687
21
-3.99871
0
LINE
8
BLACK
6
CONTINUOUS
10
6.07962
20
-4.04949
11
6.01663
21
-4.04949
0
LINE
8
BLACK
6
CONTINUOUS
10
6.01663
20
-4.04949
11
6.01663
21
-4.00224
0
LINE
8
BLACK
6
CONTINUOUS
10
6.01663
20
-4.00224
11
6.07962
21
-4.00224
0
LINE
8
BLACK
6
CONTINUOUS
10
6.07962
20
-4.00224
11
6.07962
21
-4.04949
0
LINE
8
BLACK
6
CONTINUOUS
10
6.07962
20
-3.95106
11
6.01663
21
-3.95106
0
LINE
8
BLACK
6
CONTINUOUS
10
6.01663
20
-3.95106
11
6.01663
21
-3.90382
0
LINE
8
BLACK
6
CONTINUOUS
10
6.01663
20
-3.90382
11
6.07962
21
-3.90382
0
LINE
8
BLACK
6
CONTINUOUS
10
6.07962
20
-3.90382
11
6.07962
21
-3.95106
0
LINE
8
BLACK
6
CONTINUOUS
10
5.89914
20
-3.89798
11
5.90234
21
-3.90012
0
LINE
8
BLACK
6
CONTINUOUS
10
5.90234
20
-3.90012
11
5.90447
21
-3.90331
0
LINE
8
BLACK
6
CONTINUOUS
10
5.90447
20
-3.90331
11
5.90522
21
-3.90708
0
LINE
8
BLACK
6
CONTINUOUS
10
5.90522
20
-3.90708
11
5.90522
21
-3.92676
0
LINE
8
BLACK
6
CONTINUOUS
10
5.90522
20
-3.92676
11
5.90447
21
-3.93053
0
LINE
8
BLACK
6
CONTINUOUS
10
5.90447
20
-3.93053
11
5.90234
21
-3.93372
0
LINE
8
BLACK
6
CONTINUOUS
10
5.90234
20
-3.93372
11
5.89914
21
-3.93585
0
LINE
8
BLACK
6
CONTINUOUS
10
5.89914
20
-3.93585
11
5.89538
21
-3.9366
0
LINE
8
BLACK
6
CONTINUOUS
10
5.89538
20
-3.9366
11
5.85797
21
-3.9366
0
LINE
8
BLACK
6
CONTINUOUS
10
5.85797
20
-3.9366
11
5.85421
21
-3.93585
0
LINE
8
BLACK
6
CONTINUOUS
10
5.85421
20
-3.93585
11
5.85101
21
-3.93372
0
LINE
8
BLACK
6
CONTINUOUS
10
5.85101
20
-3.93372
11
5.84888
21
-3.93053
0
LINE
8
BLACK
6
CONTINUOUS
10
5.84888
20
-3.93053
11
5.84813
21
-3.92676
0
LINE
8
BLACK
6
CONTINUOUS
10
5.84813
20
-3.92676
11
5.84813
21
-3.90708
0
LINE
8
BLACK
6
CONTINUOUS
10
5.84813
20
-3.90708
11
5.84888
21
-3.90331
0
LINE
8
BLACK
6
CONTINUOUS
10
5.84888
20
-3.90331
11
5.85101
21
-3.90012
0
LINE
8
BLACK
6
CONTINUOUS
10
5.85101
20
-3.90012
11
5.85421
21
-3.89798
0
LINE
8
BLACK
6
CONTINUOUS
10
5.85421
20
-3.89798
11
5.85797
21
-3.89723
0
LINE
8
BLACK
6
CONTINUOUS
10
5.85797
20
-3.89723
11
5.89538
21
-3.89723
0
LINE
8
BLACK
6
CONTINUOUS
10
5.89538
20
-3.89723
11
5.89914
21
-3.89798
0
LINE
8
BLACK
6
CONTINUOUS
10
5.98314
20
-3.89798
11
5.98634
21
-3.90012
0
LINE
8
BLACK
6
CONTINUOUS
10
5.98634
20
-3.90012
11
5.98847
21
-3.90331
0
LINE
8
BLACK
6
CONTINUOUS
10
5.98847
20
-3.90331
11
5.98922
21
-3.90708
0
LINE
8
BLACK
6
CONTINUOUS
10
5.98922
20
-3.90708
11
5.98922
21
-3.92676
0
LINE
8
BLACK
6
CONTINUOUS
10
5.98922
20
-3.92676
11
5.98847
21
-3.93053
0
LINE
8
BLACK
6
CONTINUOUS
10
5.98847
20
-3.93053
11
5.98634
21
-3.93372
0
LINE
8
BLACK
6
CONTINUOUS
10
5.98634
20
-3.93372
11
5.98314
21
-3.93585
0
LINE
8
BLACK
6
CONTINUOUS
10
5.98314
20
-3.93585
11
5.97938
21
-3.9366
0
LINE
8
BLACK
6
CONTINUOUS
10
5.97938
20
-3.9366
11
5.94197
21
-3.9366
0
LINE
8
BLACK
6
CONTINUOUS
10
5.94197
20
-3.9366
11
5.93821
21
-3.93585
0
LINE
8
BLACK
6
CONTINUOUS
10
5.93821
20
-3.93585
11
5.93501
21
-3.93372
0
LINE
8
BLACK
6
CONTINUOUS
10
5.93501
20
-3.93372
11
5.93288
21
-3.93053
0
LINE
8
BLACK
6
CONTINUOUS
10
5.93288
20
-3.93053
11
5.93213
21
-3.92676
0
LINE
8
BLACK
6
CONTINUOUS
10
5.93213
20
-3.92676
11
5.93213
21
-3.90708
0
LINE
8
BLACK
6
CONTINUOUS
10
5.93213
20
-3.90708
11
5.93288
21
-3.90331
0
LINE
8
BLACK
6
CONTINUOUS
10
5.93288
20
-3.90331
11
5.93501
21
-3.90012
0
LINE
8
BLACK
6
CONTINUOUS
10
5.93501
20
-3.90012
11
5.93821
21
-3.89798
0
LINE
8
BLACK
6
CONTINUOUS
10
5.93821
20
-3.89798
11
5.94197
21
-3.89723
0
LINE
8
BLACK
6
CONTINUOUS
10
5.94197
20
-3.89723
11
5.97938
21
-3.89723
0
LINE
8
BLACK
6
CONTINUOUS
10
5.97938
20
-3.89723
11
5.98314
21
-3.89798
0
LINE
8
BLACK
6
CONTINUOUS
10
5.89914
20
-3.82318
11
5.90234
21
-3.82531
0
LINE
8
BLACK
6
CONTINUOUS
10
5.90234
20
-3.82531
11
5.90447
21
-3.82851
0
LINE
8
BLACK
6
CONTINUOUS
10
5.90447
20
-3.82851
11
5.90522
21
-3.83227
0
LINE
8
BLACK
6
CONTINUOUS
10
5.90522
20
-3.83227
11
5.90522
21
-3.85196
0
LINE
8
BLACK
6
CONTINUOUS
10
5.90522
20
-3.85196
11
5.90447
21
-3.85572
0
LINE
8
BLACK
6
CONTINUOUS
10
5.90447
20
-3.85572
11
5.90234
21
-3.85892
0
LINE
8
BLACK
6
CONTINUOUS
10
5.90234
20
-3.85892
11
5.89914
21
-3.86105
0
LINE
8
BLACK
6
CONTINUOUS
10
5.89914
20
-3.86105
11
5.89538
21
-3.8618
0
LINE
8
BLACK
6
CONTINUOUS
10
5.89538
20
-3.8618
11
5.85797
21
-3.8618
0
LINE
8
BLACK
6
CONTINUOUS
10
5.85797
20
-3.8618
11
5.85421
21
-3.86105
0
LINE
8
BLACK
6
CONTINUOUS
10
5.85421
20
-3.86105
11
5.85101
21
-3.85892
0
LINE
8
BLACK
6
CONTINUOUS
10
5.85101
20
-3.85892
11
5.84888
21
-3.85572
0
LINE
8
BLACK
6
CONTINUOUS
10
5.84888
20
-3.85572
11
5.84813
21
-3.85196
0
LINE
8
BLACK
6
CONTINUOUS
10
5.84813
20
-3.85196
11
5.84813
21
-3.83227
0
LINE
8
BLACK
6
CONTINUOUS
10
5.84813
20
-3.83227
11
5.84888
21
-3.82851
0
LINE
8
BLACK
6
CONTINUOUS
10
5.84888
20
-3.82851
11
5.85101
21
-3.82531
0
LINE
8
BLACK
6
CONTINUOUS
10
5.85101
20
-3.82531
11
5.85421
21
-3.82318
0
LINE
8
BLACK
6
CONTINUOUS
10
5.85421
20
-3.82318
11
5.85797
21
-3.82243
0
LINE
8
BLACK
6
CONTINUOUS
10
5.85797
20
-3.82243
11
5.89538
21
-3.82243
0
LINE
8
BLACK
6
CONTINUOUS
10
5.89538
20
-3.82243
11
5.89914
21
-3.82318
0
LINE
8
BLACK
6
CONTINUOUS
10
5.98314
20
-3.82318
11
5.98634
21
-3.82531
0
LINE
8
BLACK
6
CONTINUOUS
10
5.98634
20
-3.82531
11
5.98847
21
-3.82851
0
LINE
8
BLACK
6
CONTINUOUS
10
5.98847
20
-3.82851
11
5.98922
21
-3.83227
0
LINE
8
BLACK
6
CONTINUOUS
10
5.98922
20
-3.83227
11
5.98922
21
-3.85196
0
LINE
8
BLACK
6
CONTINUOUS
10
5.98922
20
-3.85196
11
5.98847
21
-3.85572
0
LINE
8
BLACK
6
CONTINUOUS
10
5.98847
20
-3.85572
11
5.98634
21
-3.85892
0
LINE
8
BLACK
6
CONTINUOUS
10
5.98634
20
-3.85892
11
5.98314
21
-3.86105
0
LINE
8
BLACK
6
CONTINUOUS
10
5.98314
20
-3.86105
11
5.97938
21
-3.8618
0
LINE
8
BLACK
6
CONTINUOUS
10
5.97938
20
-3.8618
11
5.94197
21
-3.8618
0
LINE
8
BLACK
6
CONTINUOUS
10
5.94197
20
-3.8618
11
5.93821
21
-3.86105
0
LINE
8
BLACK
6
CONTINUOUS
10
5.93821
20
-3.86105
11
5.93501
21
-3.85892
0
LINE
8
BLACK
6
CONTINUOUS
10
5.93501
20
-3.85892
11
5.93288
21
-3.85572
0
LINE
8
BLACK
6
CONTINUOUS
10
5.93288
20
-3.85572
11
5.93213
21
-3.85196
0
LINE
8
BLACK
6
CONTINUOUS
10
5.93213
20
-3.85196
11
5.93213
21
-3.83227
0
LINE
8
BLACK
6
CONTINUOUS
10
5.93213
20
-3.83227
11
5.93288
21
-3.82851
0
LINE
8
BLACK
6
CONTINUOUS
10
5.93288
20
-3.82851
11
5.93501
21
-3.82531
0
LINE
8
BLACK
6
CONTINUOUS
10
5.93501
20
-3.82531
11
5.93821
21
-3.82318
0
LINE
8
BLACK
6
CONTINUOUS
10
5.93821
20
-3.82318
11
5.94197
21
-3.82243
0
LINE
8
BLACK
6
CONTINUOUS
10
5.94197
20
-3.82243
11
5.97938
21
-3.82243
0
LINE
8
BLACK
6
CONTINUOUS
10
5.97938
20
-3.82243
11
5.98314
21
-3.82318
0
LINE
8
BLACK
6
CONTINUOUS
10
6.07962
20
-3.85263
11
6.01663
21
-3.85263
0
LINE
8
BLACK
6
CONTINUOUS
10
6.01663
20
-3.85263
11
6.01663
21
-3.80539
0
LINE
8
BLACK
6
CONTINUOUS
10
6.01663
20
-3.80539
11
6.07962
21
-3.80539
0
LINE
8
BLACK
6
CONTINUOUS
10
6.07962
20
-3.80539
11
6.07962
21
-3.85263
0
LINE
8
BLACK
6
CONTINUOUS
10
5.89685
20
-3.70671
11
5.90004
21
-3.70884
0
LINE
8
BLACK
6
CONTINUOUS
10
5.90004
20
-3.70884
11
5.90218
21
-3.71203
0
LINE
8
BLACK
6
CONTINUOUS
10
5.90218
20
-3.71203
11
5.90293
21
-3.7158
0
LINE
8
BLACK
6
CONTINUOUS
10
5.90293
20
-3.7158
11
5.90293
21
-3.75123
0
LINE
8
BLACK
6
CONTINUOUS
10
5.90293
20
-3.75123
11
5.90218
21
-3.755
0
LINE
8
BLACK
6
CONTINUOUS
10
5.90218
20
-3.755
11
5.90004
21
-3.75819
0
LINE
8
BLACK
6
CONTINUOUS
10
5.90004
20
-3.75819
11
5.89685
21
-3.76033
0
LINE
8
BLACK
6
CONTINUOUS
10
5.89685
20
-3.76033
11
5.89308
21
-3.76108
0
LINE
8
BLACK
6
CONTINUOUS
10
5.89308
20
-3.76108
11
5.87242
21
-3.76108
0
LINE
8
BLACK
6
CONTINUOUS
10
5.87242
20
-3.76108
11
5.86865
21
-3.76033
0
LINE
8
BLACK
6
CONTINUOUS
10
5.86865
20
-3.76033
11
5.86546
21
-3.75819
0
LINE
8
BLACK
6
CONTINUOUS
10
5.86546
20
-3.75819
11
5.86332
21
-3.755
0
LINE
8
BLACK
6
CONTINUOUS
10
5.86332
20
-3.755
11
5.86257
21
-3.75123
0
LINE
8
BLACK
6
CONTINUOUS
10
5.86257
20
-3.75123
11
5.86257
21
-3.7158
0
LINE
8
BLACK
6
CONTINUOUS
10
5.86257
20
-3.7158
11
5.86332
21
-3.71203
0
LINE
8
BLACK
6
CONTINUOUS
10
5.86332
20
-3.71203
11
5.86546
21
-3.70884
0
LINE
8
BLACK
6
CONTINUOUS
10
5.86546
20
-3.70884
11
5.86865
21
-3.70671
0
LINE
8
BLACK
6
CONTINUOUS
10
5.86865
20
-3.70671
11
5.87242
21
-3.70596
0
LINE
8
BLACK
6
CONTINUOUS
10
5.87242
20
-3.70596
11
5.89308
21
-3.70596
0
LINE
8
BLACK
6
CONTINUOUS
10
5.89308
20
-3.70596
11
5.89685
21
-3.70671
0
LINE
8
BLACK
6
CONTINUOUS
10
5.9687
20
-3.70671
11
5.97189
21
-3.70884
0
LINE
8
BLACK
6
CONTINUOUS
10
5.97189
20
-3.70884
11
5.97403
21
-3.71203
0
LINE
8
BLACK
6
CONTINUOUS
10
5.97403
20
-3.71203
11
5.97478
21
-3.7158
0
LINE
8
BLACK
6
CONTINUOUS
10
5.97478
20
-3.7158
11
5.97478
21
-3.75123
0
LINE
8
BLACK
6
CONTINUOUS
10
5.97478
20
-3.75123
11
5.97403
21
-3.755
0
LINE
8
BLACK
6
CONTINUOUS
10
5.97403
20
-3.755
11
5.97189
21
-3.75819
0
LINE
8
BLACK
6
CONTINUOUS
10
5.97189
20
-3.75819
11
5.9687
21
-3.76033
0
LINE
8
BLACK
6
CONTINUOUS
10
5.9687
20
-3.76033
11
5.96493
21
-3.76108
0
LINE
8
BLACK
6
CONTINUOUS
10
5.96493
20
-3.76108
11
5.94427
21
-3.76108
0
LINE
8
BLACK
6
CONTINUOUS
10
5.94427
20
-3.76108
11
5.9405
21
-3.76033
0
LINE
8
BLACK
6
CONTINUOUS
10
5.9405
20
-3.76033
11
5.93731
21
-3.75819
0
LINE
8
BLACK
6
CONTINUOUS
10
5.93731
20
-3.75819
11
5.93517
21
-3.755
0
LINE
8
BLACK
6
CONTINUOUS
10
5.93517
20
-3.755
11
5.93442
21
-3.75123
0
LINE
8
BLACK
6
CONTINUOUS
10
5.93442
20
-3.75123
11
5.93442
21
-3.7158
0
LINE
8
BLACK
6
CONTINUOUS
10
5.93442
20
-3.7158
11
5.93517
21
-3.71203
0
LINE
8
BLACK
6
CONTINUOUS
10
5.93517
20
-3.71203
11
5.93731
21
-3.70884
0
LINE
8
BLACK
6
CONTINUOUS
10
5.93731
20
-3.70884
11
5.9405
21
-3.70671
0
LINE
8
BLACK
6
CONTINUOUS
10
5.9405
20
-3.70671
11
5.94427
21
-3.70596
0
LINE
8
BLACK
6
CONTINUOUS
10
5.94427
20
-3.70596
11
5.96493
21
-3.70596
0
LINE
8
BLACK
6
CONTINUOUS
10
5.96493
20
-3.70596
11
5.9687
21
-3.70671
0
LINE
8
BLACK
6
CONTINUOUS
10
6.07962
20
-3.75421
11
6.01663
21
-3.75421
0
LINE
8
BLACK
6
CONTINUOUS
10
6.01663
20
-3.75421
11
6.01663
21
-3.70697
0
LINE
8
BLACK
6
CONTINUOUS
10
6.01663
20
-3.70697
11
6.07962
21
-3.70697
0
LINE
8
BLACK
6
CONTINUOUS
10
6.07962
20
-3.70697
11
6.07962
21
-3.75421
0
LINE
8
BLACK
6
CONTINUOUS
10
5.89685
20
-3.60471
11
5.90004
21
-3.60684
0
LINE
8
BLACK
6
CONTINUOUS
10
5.90004
20
-3.60684
11
5.90218
21
-3.61003
0
LINE
8
BLACK
6
CONTINUOUS
10
5.90218
20
-3.61003
11
5.90293
21
-3.6138
0
LINE
8
BLACK
6
CONTINUOUS
10
5.90293
20
-3.6138
11
5.90293
21
-3.64923
0
LINE
8
BLACK
6
CONTINUOUS
10
5.90293
20
-3.64923
11
5.90218
21
-3.653
0
LINE
8
BLACK
6
CONTINUOUS
10
5.90218
20
-3.653
11
5.90004
21
-3.65619
0
LINE
8
BLACK
6
CONTINUOUS
10
5.90004
20
-3.65619
11
5.89685
21
-3.65833
0
LINE
8
BLACK
6
CONTINUOUS
10
5.89685
20
-3.65833
11
5.89308
21
-3.65908
0
LINE
8
BLACK
6
CONTINUOUS
10
5.89308
20
-3.65908
11
5.87242
21
-3.65908
0
LINE
8
BLACK
6
CONTINUOUS
10
5.87242
20
-3.65908
11
5.86865
21
-3.65833
0
LINE
8
BLACK
6
CONTINUOUS
10
5.86865
20
-3.65833
11
5.86546
21
-3.65619
0
LINE
8
BLACK
6
CONTINUOUS
10
5.86546
20
-3.65619
11
5.86332
21
-3.653
0
LINE
8
BLACK
6
CONTINUOUS
10
5.86332
20
-3.653
11
5.86257
21
-3.64923
0
LINE
8
BLACK
6
CONTINUOUS
10
5.86257
20
-3.64923
11
5.86257
21
-3.6138
0
LINE
8
BLACK
6
CONTINUOUS
10
5.86257
20
-3.6138
11
5.86332
21
-3.61003
0
LINE
8
BLACK
6
CONTINUOUS
10
5.86332
20
-3.61003
11
5.86546
21
-3.60684
0
LINE
8
BLACK
6
CONTINUOUS
10
5.86546
20
-3.60684
11
5.86865
21
-3.60471
0
LINE
8
BLACK
6
CONTINUOUS
10
5.86865
20
-3.60471
11
5.87242
21
-3.60396
0
LINE
8
BLACK
6
CONTINUOUS
10
5.87242
20
-3.60396
11
5.89308
21
-3.60396
0
LINE
8
BLACK
6
CONTINUOUS
10
5.89308
20
-3.60396
11
5.89685
21
-3.60471
0
LINE
8
BLACK
6
CONTINUOUS
10
5.9687
20
-3.60471
11
5.97189
21
-3.60684
0
LINE
8
BLACK
6
CONTINUOUS
10
5.97189
20
-3.60684
11
5.97403
21
-3.61003
0
LINE
8
BLACK
6
CONTINUOUS
10
5.97403
20
-3.61003
11
5.97478
21
-3.6138
0
LINE
8
BLACK
6
CONTINUOUS
10
5.97478
20
-3.6138
11
5.97478
21
-3.64923
0
LINE
8
BLACK
6
CONTINUOUS
10
5.97478
20
-3.64923
11
5.97403
21
-3.653
0
LINE
8
BLACK
6
CONTINUOUS
10
5.97403
20
-3.653
11
5.97189
21
-3.65619
0
LINE
8
BLACK
6
CONTINUOUS
10
5.97189
20
-3.65619
11
5.9687
21
-3.65833
0
LINE
8
BLACK
6
CONTINUOUS
10
5.9687
20
-3.65833
11
5.96493
21
-3.65908
0
LINE
8
BLACK
6
CONTINUOUS
10
5.96493
20
-3.65908
11
5.94427
21
-3.65908
0
LINE
8
BLACK
6
CONTINUOUS
10
5.94427
20
-3.65908
11
5.9405
21
-3.65833
0
LINE
8
BLACK
6
CONTINUOUS
10
5.9405
20
-3.65833
11
5.93731
21
-3.65619
0
LINE
8
BLACK
6
CONTINUOUS
10
5.93731
20
-3.65619
11
5.93517
21
-3.653
0
LINE
8
BLACK
6
CONTINUOUS
10
5.93517
20
-3.653
11
5.93442
21
-3.64923
0
LINE
8
BLACK
6
CONTINUOUS
10
5.93442
20
-3.64923
11
5.93442
21
-3.6138
0
LINE
8
BLACK
6
CONTINUOUS
10
5.93442
20
-3.6138
11
5.93517
21
-3.61003
0
LINE
8
BLACK
6
CONTINUOUS
10
5.93517
20
-3.61003
11
5.93731
21
-3.60684
0
LINE
8
BLACK
6
CONTINUOUS
10
5.93731
20
-3.60684
11
5.9405
21
-3.60471
0
LINE
8
BLACK
6
CONTINUOUS
10
5.9405
20
-3.60471
11
5.94427
21
-3.60396
0
LINE
8
BLACK
6
CONTINUOUS
10
5.94427
20
-3.60396
11
5.96493
21
-3.60396
0
LINE
8
BLACK
6
CONTINUOUS
10
5.96493
20
-3.60396
11
5.9687
21
-3.60471
0
LINE
8
BLACK
6
CONTINUOUS
10
6.07962
20
-3.65578
11
6.01663
21
-3.65578
0
LINE
8
BLACK
6
CONTINUOUS
10
6.01663
20
-3.65578
11
6.01663
21
-3.60854
0
LINE
8
BLACK
6
CONTINUOUS
10
6.01663
20
-3.60854
11
6.07962
21
-3.60854
0
LINE
8
BLACK
6
CONTINUOUS
10
6.07962
20
-3.60854
11
6.07962
21
-3.65578
0
LINE
8
BLACK
6
CONTINUOUS
10
6.07962
20
-3.55736
11
6.01663
21
-3.55736
0
LINE
8
BLACK
6
CONTINUOUS
10
6.01663
20
-3.55736
11
6.01663
21
-3.51012
0
LINE
8
BLACK
6
CONTINUOUS
10
6.01663
20
-3.51012
11
6.07962
21
-3.51012
0
LINE
8
BLACK
6
CONTINUOUS
10
6.07962
20
-3.51012
11
6.07962
21
-3.55736
0
LINE
8
BLACK
6
CONTINUOUS
10
6.28434
20
-3.29417
11
6.08749
21
-3.29417
0
LINE
8
BLACK
6
CONTINUOUS
10
6.08749
20
-3.29417
11
6.08749
21
-3.19575
0
LINE
8
BLACK
6
CONTINUOUS
10
6.08749
20
-3.19575
11
6.28434
21
-3.19575
0
LINE
8
BLACK
6
CONTINUOUS
10
6.28434
20
-3.19575
11
6.28434
21
-3.29417
0
LINE
8
BLACK
6
CONTINUOUS
10
7.2371
20
-3.29417
11
7.04025
21
-3.29417
0
LINE
8
BLACK
6
CONTINUOUS
10
7.04025
20
-3.29417
11
7.04025
21
-3.19575
0
LINE
8
BLACK
6
CONTINUOUS
10
7.04025
20
-3.19575
11
7.2371
21
-3.19575
0
LINE
8
BLACK
6
CONTINUOUS
10
7.2371
20
-3.19575
11
7.2371
21
-3.29417
0
LINE
8
BLACK
6
CONTINUOUS
10
5.46867
20
-3.20752
11
5.3986
21
-3.20752
0
LINE
8
BLACK
6
CONTINUOUS
10
5.3986
20
-3.20752
11
5.3986
21
-3.00752
0
LINE
8
BLACK
6
CONTINUOUS
10
5.3986
20
-3.00752
11
5.46867
21
-3.00752
0
LINE
8
BLACK
6
CONTINUOUS
10
5.46867
20
-3.00752
11
5.46867
21
-3.20752
0
LINE
8
BLACK
6
CONTINUOUS
10
5.83875
20
-3.20752
11
5.76867
21
-3.20752
0
LINE
8
BLACK
6
CONTINUOUS
10
5.76867
20
-3.20752
11
5.76867
21
-3.00752
0
LINE
8
BLACK
6
CONTINUOUS
10
5.76867
20
-3.00752
11
5.83875
21
-3.00752
0
LINE
8
BLACK
6
CONTINUOUS
10
5.83875
20
-3.00752
11
5.83875
21
-3.20752
0
LINE
8
BLACK
6
CONTINUOUS
10
5.69663
20
-3.18547
11
5.54072
21
-3.18547
0
LINE
8
BLACK
6
CONTINUOUS
10
5.54072
20
-3.18547
11
5.54072
21
-3.02956
0
LINE
8
BLACK
6
CONTINUOUS
10
5.54072
20
-3.02956
11
5.69663
21
-3.02956
0
LINE
8
BLACK
6
CONTINUOUS
10
5.69663
20
-3.02956
11
5.69663
21
-3.18547
0
LINE
8
BLACK
6
CONTINUOUS
10
6.64358
20
-3.12878
11
6.64678
21
-3.13091
0
LINE
8
BLACK
6
CONTINUOUS
10
6.64678
20
-3.13091
11
6.64891
21
-3.1341
0
LINE
8
BLACK
6
CONTINUOUS
10
6.64891
20
-3.1341
11
6.64966
21
-3.13787
0
LINE
8
BLACK
6
CONTINUOUS
10
6.64966
20
-3.13787
11
6.64966
21
-3.1674
0
LINE
8
BLACK
6
CONTINUOUS
10
6.64966
20
-3.1674
11
6.64891
21
-3.17117
0
LINE
8
BLACK
6
CONTINUOUS
10
6.64891
20
-3.17117
11
6.64678
21
-3.17436
0
LINE
8
BLACK
6
CONTINUOUS
10
6.64678
20
-3.17436
11
6.64358
21
-3.17649
0
LINE
8
BLACK
6
CONTINUOUS
10
6.64358
20
-3.17649
11
6.63982
21
-3.17724
0
LINE
8
BLACK
6
CONTINUOUS
10
6.63982
20
-3.17724
11
6.5906
21
-3.17724
0
LINE
8
BLACK
6
CONTINUOUS
10
6.5906
20
-3.17724
11
6.58684
21
-3.17649
0
LINE
8
BLACK
6
CONTINUOUS
10
6.58684
20
-3.17649
11
6.58364
21
-3.17436
0
LINE
8
BLACK
6
CONTINUOUS
10
6.58364
20
-3.17436
11
6.58151
21
-3.17117
0
LINE
8
BLACK
6
CONTINUOUS
10
6.58151
20
-3.17117
11
6.58076
21
-3.1674
0
LINE
8
BLACK
6
CONTINUOUS
10
6.58076
20
-3.1674
11
6.58076
21
-3.13787
0
LINE
8
BLACK
6
CONTINUOUS
10
6.58076
20
-3.13787
11
6.58151
21
-3.1341
0
LINE
8
BLACK
6
CONTINUOUS
10
6.58151
20
-3.1341
11
6.58364
21
-3.13091
0
LINE
8
BLACK
6
CONTINUOUS
10
6.58364
20
-3.13091
11
6.58684
21
-3.12878
0
LINE
8
BLACK
6
CONTINUOUS
10
6.58684
20
-3.12878
11
6.5906
21
-3.12803
0
LINE
8
BLACK
6
CONTINUOUS
10
6.5906
20
-3.12803
11
6.63982
21
-3.12803
0
LINE
8
BLACK
6
CONTINUOUS
10
6.63982
20
-3.12803
11
6.64358
21
-3.12878
0
LINE
8
BLACK
6
CONTINUOUS
10
6.64358
20
-3.01854
11
6.64678
21
-3.02068
0
LINE
8
BLACK
6
CONTINUOUS
10
6.64678
20
-3.02068
11
6.64891
21
-3.02387
0
LINE
8
BLACK
6
CONTINUOUS
10
6.64891
20
-3.02387
11
6.64966
21
-3.02763
0
LINE
8
BLACK
6
CONTINUOUS
10
6.64966
20
-3.02763
11
6.64966
21
-3.05716
0
LINE
8
BLACK
6
CONTINUOUS
10
6.64966
20
-3.05716
11
6.64891
21
-3.06093
0
LINE
8
BLACK
6
CONTINUOUS
10
6.64891
20
-3.06093
11
6.64678
21
-3.06412
0
LINE
8
BLACK
6
CONTINUOUS
10
6.64678
20
-3.06412
11
6.64358
21
-3.06626
0
LINE
8
BLACK
6
CONTINUOUS
10
6.64358
20
-3.06626
11
6.63982
21
-3.067
0
LINE
8
BLACK
6
CONTINUOUS
10
6.63982
20
-3.067
11
6.5906
21
-3.067
0
LINE
8
BLACK
6
CONTINUOUS
10
6.5906
20
-3.067
11
6.58684
21
-3.06626
0
LINE
8
BLACK
6
CONTINUOUS
10
6.58684
20
-3.06626
11
6.58364
21
-3.06412
0
LINE
8
BLACK
6
CONTINUOUS
10
6.58364
20
-3.06412
11
6.58151
21
-3.06093
0
LINE
8
BLACK
6
CONTINUOUS
10
6.58151
20
-3.06093
11
6.58076
21
-3.05716
0
LINE
8
BLACK
6
CONTINUOUS
10
6.58076
20
-3.05716
11
6.58076
21
-3.02763
0
LINE
8
BLACK
6
CONTINUOUS
10
6.58076
20
-3.02763
11
6.58151
21
-3.02387
0
LINE
8
BLACK
6
CONTINUOUS
10
6.58151
20
-3.02387
11
6.58364
21
-3.02068
0
LINE
8
BLACK
6
CONTINUOUS
10
6.58364
20
-3.02068
11
6.58684
21
-3.01854
0
LINE
8
BLACK
6
CONTINUOUS
10
6.58684
20
-3.01854
11
6.5906
21
-3.01779
0
LINE
8
BLACK
6
CONTINUOUS
10
6.5906
20
-3.01779
11
6.63982
21
-3.01779
0
LINE
8
BLACK
6
CONTINUOUS
10
6.63982
20
-3.01779
11
6.64358
21
-3.01854
  0
ENDSEC
  0
EOF
