  0
SECTION
  2
HEADER
  9
$ANGBASE
  50
0.0
  9
$ANGDIR
  70
1
  9
$MEASUREMENT
  70
0
  0
ENDSEC
  0
SECTION
  2
TABLES
  0
TABLE
  2
LTYPE
  70
4
  0
LTYPE
  5
40F
  2
CONTINUOUS
  70
0
  3
Solid line
  72
65
  73
0
  40
0.0
  0
LTYPE
  5
410
  2
DASHDOT
 70
0
  3
Dash Dot ____ _ ____ _
 72
65
 73
4
 40
2.0
 49
1.25
 49
-0.25
 49
0.25
 49
-0.25
  0
LTYPE
  5
411
  2
DASHED
 70
0
  3
Dashed __ __ __ __ __
 72
65
 73
2
 40
0.75
 49
0.5
 49
-0.25
  0
LTYPE
  5
43B
  2
DOTTED
 70
0
  3
Dotted .  .  .  .
 72
65
 73
2
 40
0.2
 49
0.0
 49
-0.2
  0
ENDTAB
  0
TABLE
  2
STYLE
  70
4
  0
STYLE
  2
KICAD
  70
0
  40
0
  41
1
  42
1
  50
0
  71
0
  3
isocp.shx
  0
STYLE
  2
KICADB
  70
0
  40
0
  41
1
  42
1
  50
0
  71
0
  3
isocp.shx
  0
STYLE
  2
KICADI
  70
0
  40
0
  41
1
  42
1
  50
15
  71
0
  3
isocp.shx
  0
STYLE
  2
KICADBI
  70
0
  40
0
  41
1
  42
1
  50
15
  71
0
  3
isocp.shx
  0
ENDTAB
  0
TABLE
  2
LAYER
  70
1
  0
LAYER
  2
BLACK
  70
0
  62
7
  6
CONTINUOUS
  0
ENDTAB
  0
ENDSEC
  0
SECTION
  2
ENTITIES
0
LINE
8
BLACK
6
CONTINUOUS
10
2.8898
20
0.385
11
2.7402
21
0.385
0
LINE
8
BLACK
6
CONTINUOUS
10
2.7402
20
0.385
11
2.7402
21
0.42437
0
LINE
8
BLACK
6
CONTINUOUS
10
2.7402
20
0.42437
11
2.8898
21
0.42437
0
LINE
8
BLACK
6
CONTINUOUS
10
2.8898
20
0.42437
11
2.8898
21
0.385
0
LINE
8
BLACK
6
CONTINUOUS
10
3.57878
20
0.385
11
3.44886
21
0.385
0
LINE
8
BLACK
6
CONTINUOUS
10
3.44886
20
0.385
11
3.44886
21
0.485394
0
LINE
8
BLACK
6
CONTINUOUS
10
3.44886
20
0.485394
11
3.57878
21
0.485394
0
LINE
8
BLACK
6
CONTINUOUS
10
3.57878
20
0.485394
11
3.57878
21
0.385
0
LINE
8
BLACK
6
CONTINUOUS
10
1.94492
20
0.385
11
1.815
21
0.385
0
LINE
8
BLACK
6
CONTINUOUS
10
1.815
20
0.385
11
1.815
21
0.485394
0
LINE
8
BLACK
6
CONTINUOUS
10
1.815
20
0.485394
11
1.94492
21
0.485394
0
LINE
8
BLACK
6
CONTINUOUS
10
1.94492
20
0.485394
11
1.94492
21
0.385
0
LINE
8
BLACK
6
CONTINUOUS
10
2.41736
20
0.385
11
2.26776
21
0.385
0
LINE
8
BLACK
6
CONTINUOUS
10
2.26776
20
0.385
11
2.26776
21
0.42437
0
LINE
8
BLACK
6
CONTINUOUS
10
2.26776
20
0.42437
11
2.41736
21
0.42437
0
LINE
8
BLACK
6
CONTINUOUS
10
2.41736
20
0.42437
11
2.41736
21
0.385
0
LINE
8
BLACK
6
CONTINUOUS
10
3.12602
20
0.385
11
2.97642
21
0.385
0
LINE
8
BLACK
6
CONTINUOUS
10
2.97642
20
0.385
11
2.97642
21
0.42437
0
LINE
8
BLACK
6
CONTINUOUS
10
2.97642
20
0.42437
11
3.12602
21
0.42437
0
LINE
8
BLACK
6
CONTINUOUS
10
3.12602
20
0.42437
11
3.12602
21
0.385
0
LINE
8
BLACK
6
CONTINUOUS
10
2.18114
20
0.385
11
2.03154
21
0.385
0
LINE
8
BLACK
6
CONTINUOUS
10
2.03154
20
0.385
11
2.03154
21
0.42437
0
LINE
8
BLACK
6
CONTINUOUS
10
2.03154
20
0.42437
11
2.18114
21
0.42437
0
LINE
8
BLACK
6
CONTINUOUS
10
2.18114
20
0.42437
11
2.18114
21
0.385
0
LINE
8
BLACK
6
CONTINUOUS
10
3.36224
20
0.385
11
3.21264
21
0.385
0
LINE
8
BLACK
6
CONTINUOUS
10
3.21264
20
0.385
11
3.21264
21
0.42437
0
LINE
8
BLACK
6
CONTINUOUS
10
3.21264
20
0.42437
11
3.36224
21
0.42437
0
LINE
8
BLACK
6
CONTINUOUS
10
3.36224
20
0.42437
11
3.36224
21
0.385
0
LINE
8
BLACK
6
CONTINUOUS
10
2.65358
20
0.385
11
2.50398
21
0.385
0
LINE
8
BLACK
6
CONTINUOUS
10
2.50398
20
0.385
11
2.50398
21
0.42437
0
LINE
8
BLACK
6
CONTINUOUS
10
2.50398
20
0.42437
11
2.65358
21
0.42437
0
LINE
8
BLACK
6
CONTINUOUS
10
2.65358
20
0.42437
11
2.65358
21
0.385
0
LINE
8
BLACK
6
CONTINUOUS
10
0.148583
20
0.387402
11
0.0186614
21
0.387402
0
LINE
8
BLACK
6
CONTINUOUS
10
0.0186614
20
0.387402
11
0.0186614
21
0.487795
0
LINE
8
BLACK
6
CONTINUOUS
10
0.0186614
20
0.487795
11
0.148583
21
0.487795
0
LINE
8
BLACK
6
CONTINUOUS
10
0.148583
20
0.487795
11
0.148583
21
0.387402
0
LINE
8
BLACK
6
CONTINUOUS
10
1.09346
20
0.387402
11
0.943858
21
0.387402
0
LINE
8
BLACK
6
CONTINUOUS
10
0.943858
20
0.387402
11
0.943858
21
0.426772
0
LINE
8
BLACK
6
CONTINUOUS
10
0.943858
20
0.426772
11
1.09346
21
0.426772
0
LINE
8
BLACK
6
CONTINUOUS
10
1.09346
20
0.426772
11
1.09346
21
0.387402
0
LINE
8
BLACK
6
CONTINUOUS
10
0.384803
20
0.387402
11
0.235197
21
0.387402
0
LINE
8
BLACK
6
CONTINUOUS
10
0.235197
20
0.387402
11
0.235197
21
0.426772
0
LINE
8
BLACK
6
CONTINUOUS
10
0.235197
20
0.426772
11
0.384803
21
0.426772
0
LINE
8
BLACK
6
CONTINUOUS
10
0.384803
20
0.426772
11
0.384803
21
0.387402
0
LINE
8
BLACK
6
CONTINUOUS
10
1.78244
20
0.387402
11
1.65252
21
0.387402
0
LINE
8
BLACK
6
CONTINUOUS
10
1.65252
20
0.387402
11
1.65252
21
0.487795
0
LINE
8
BLACK
6
CONTINUOUS
10
1.65252
20
0.487795
11
1.78244
21
0.487795
0
LINE
8
BLACK
6
CONTINUOUS
10
1.78244
20
0.487795
11
1.78244
21
0.387402
0
LINE
8
BLACK
6
CONTINUOUS
10
0.857244
20
0.387402
11
0.707638
21
0.387402
0
LINE
8
BLACK
6
CONTINUOUS
10
0.707638
20
0.387402
11
0.707638
21
0.426772
0
LINE
8
BLACK
6
CONTINUOUS
10
0.707638
20
0.426772
11
0.857244
21
0.426772
0
LINE
8
BLACK
6
CONTINUOUS
10
0.857244
20
0.426772
11
0.857244
21
0.387402
0
LINE
8
BLACK
6
CONTINUOUS
10
1.32969
20
0.387402
11
1.18008
21
0.387402
0
LINE
8
BLACK
6
CONTINUOUS
10
1.18008
20
0.387402
11
1.18008
21
0.426772
0
LINE
8
BLACK
6
CONTINUOUS
10
1.18008
20
0.426772
11
1.32969
21
0.426772
0
LINE
8
BLACK
6
CONTINUOUS
10
1.32969
20
0.426772
11
1.32969
21
0.387402
0
LINE
8
BLACK
6
CONTINUOUS
10
0.621024
20
0.387402
11
0.471417
21
0.387402
0
LINE
8
BLACK
6
CONTINUOUS
10
0.471417
20
0.387402
11
0.471417
21
0.426772
0
LINE
8
BLACK
6
CONTINUOUS
10
0.471417
20
0.426772
11
0.621024
21
0.426772
0
LINE
8
BLACK
6
CONTINUOUS
10
0.621024
20
0.426772
11
0.621024
21
0.387402
0
LINE
8
BLACK
6
CONTINUOUS
10
1.56591
20
0.387402
11
1.4163
21
0.387402
0
LINE
8
BLACK
6
CONTINUOUS
10
1.4163
20
0.387402
11
1.4163
21
0.426772
0
LINE
8
BLACK
6
CONTINUOUS
10
1.4163
20
0.426772
11
1.56591
21
0.426772
0
LINE
8
BLACK
6
CONTINUOUS
10
1.56591
20
0.426772
11
1.56591
21
0.387402
0
LINE
8
BLACK
6
CONTINUOUS
10
2.97878
20
0.445945
11
2.95122
21
0.445945
0
LINE
8
BLACK
6
CONTINUOUS
10
2.95122
20
0.445945
11
2.95122
21
0.564055
0
LINE
8
BLACK
6
CONTINUOUS
10
2.95122
20
0.564055
11
2.97878
21
0.564055
0
LINE
8
BLACK
6
CONTINUOUS
10
2.97878
20
0.564055
11
2.97878
21
0.445945
0
LINE
8
BLACK
6
CONTINUOUS
10
3.1325
20
0.46
11
3.0775
21
0.46
0
LINE
8
BLACK
6
CONTINUOUS
10
3.0775
20
0.46
11
3.0775
21
0.495
0
LINE
8
BLACK
6
CONTINUOUS
10
3.0775
20
0.495
11
3.1325
21
0.495
0
LINE
8
BLACK
6
CONTINUOUS
10
3.1325
20
0.495
11
3.1325
21
0.46
0
LINE
8
BLACK
6
CONTINUOUS
10
3.36839
20
0.461535
11
3.3172
21
0.461535
0
LINE
8
BLACK
6
CONTINUOUS
10
3.3172
20
0.461535
11
3.3172
21
0.528465
0
LINE
8
BLACK
6
CONTINUOUS
10
3.3172
20
0.528465
11
3.36839
21
0.528465
0
LINE
8
BLACK
6
CONTINUOUS
10
3.36839
20
0.528465
11
3.36839
21
0.461535
0
LINE
8
BLACK
6
CONTINUOUS
10
3.23059
20
0.461535
11
3.17941
21
0.461535
0
LINE
8
BLACK
6
CONTINUOUS
10
3.17941
20
0.461535
11
3.17941
21
0.528465
0
LINE
8
BLACK
6
CONTINUOUS
10
3.17941
20
0.528465
11
3.23059
21
0.528465
0
LINE
8
BLACK
6
CONTINUOUS
10
3.23059
20
0.528465
11
3.23059
21
0.461535
0
LINE
8
BLACK
6
CONTINUOUS
10
2.7625
20
0.4625
11
2.7075
21
0.4625
0
LINE
8
BLACK
6
CONTINUOUS
10
2.7075
20
0.4625
11
2.7075
21
0.4975
0
LINE
8
BLACK
6
CONTINUOUS
10
2.7075
20
0.4975
11
2.7625
21
0.4975
0
LINE
8
BLACK
6
CONTINUOUS
10
2.7625
20
0.4975
11
2.7625
21
0.4625
0
LINE
8
BLACK
6
CONTINUOUS
10
2.8575
20
0.465
11
2.8025
21
0.465
0
LINE
8
BLACK
6
CONTINUOUS
10
2.8025
20
0.465
11
2.8025
21
0.5
0
LINE
8
BLACK
6
CONTINUOUS
10
2.8025
20
0.5
11
2.8575
21
0.5
0
LINE
8
BLACK
6
CONTINUOUS
10
2.8575
20
0.5
11
2.8575
21
0.465
0
LINE
8
BLACK
6
CONTINUOUS
10
2.57925
20
0.467402
11
2.53752
21
0.467402
0
LINE
8
BLACK
6
CONTINUOUS
10
2.53752
20
0.467402
11
2.53752
21
0.492992
0
LINE
8
BLACK
6
CONTINUOUS
10
2.53752
20
0.492992
11
2.57925
21
0.492992
0
LINE
8
BLACK
6
CONTINUOUS
10
2.57925
20
0.492992
11
2.57925
21
0.467402
0
LINE
8
BLACK
6
CONTINUOUS
10
2.66587
20
0.467402
11
2.62413
21
0.467402
0
LINE
8
BLACK
6
CONTINUOUS
10
2.62413
20
0.467402
11
2.62413
21
0.492992
0
LINE
8
BLACK
6
CONTINUOUS
10
2.62413
20
0.492992
11
2.66587
21
0.492992
0
LINE
8
BLACK
6
CONTINUOUS
10
2.66587
20
0.492992
11
2.66587
21
0.467402
0
LINE
8
BLACK
6
CONTINUOUS
10
2.4825
20
0.47
11
2.4275
21
0.47
0
LINE
8
BLACK
6
CONTINUOUS
10
2.4275
20
0.47
11
2.4275
21
0.505
0
LINE
8
BLACK
6
CONTINUOUS
10
2.4275
20
0.505
11
2.4825
21
0.505
0
LINE
8
BLACK
6
CONTINUOUS
10
2.4825
20
0.505
11
2.4825
21
0.47
0
LINE
8
BLACK
6
CONTINUOUS
10
2.3925
20
0.4725
11
2.3375
21
0.4725
0
LINE
8
BLACK
6
CONTINUOUS
10
2.3375
20
0.4725
11
2.3375
21
0.5075
0
LINE
8
BLACK
6
CONTINUOUS
10
2.3375
20
0.5075
11
2.3925
21
0.5075
0
LINE
8
BLACK
6
CONTINUOUS
10
2.3925
20
0.5075
11
2.3925
21
0.4725
0
LINE
8
BLACK
6
CONTINUOUS
10
3.04374
20
0.475472
11
2.99256
21
0.475472
0
LINE
8
BLACK
6
CONTINUOUS
10
2.99256
20
0.475472
11
2.99256
21
0.534528
0
LINE
8
BLACK
6
CONTINUOUS
10
2.99256
20
0.534528
11
3.04374
21
0.534528
0
LINE
8
BLACK
6
CONTINUOUS
10
3.04374
20
0.534528
11
3.04374
21
0.475472
0
LINE
8
BLACK
6
CONTINUOUS
10
2.93744
20
0.475472
11
2.88626
21
0.475472
0
LINE
8
BLACK
6
CONTINUOUS
10
2.88626
20
0.475472
11
2.88626
21
0.534528
0
LINE
8
BLACK
6
CONTINUOUS
10
2.88626
20
0.534528
11
2.93744
21
0.534528
0
LINE
8
BLACK
6
CONTINUOUS
10
2.93744
20
0.534528
11
2.93744
21
0.475472
0
LINE
8
BLACK
6
CONTINUOUS
10
2.27453
20
0.48126
11
2.21547
21
0.48126
0
LINE
8
BLACK
6
CONTINUOUS
10
2.21547
20
0.48126
11
2.21547
21
0.532441
0
LINE
8
BLACK
6
CONTINUOUS
10
2.21547
20
0.532441
11
2.27453
21
0.532441
0
LINE
8
BLACK
6
CONTINUOUS
10
2.27453
20
0.532441
11
2.27453
21
0.48126
0
LINE
8
BLACK
6
CONTINUOUS
10
1.1988
20
0.487264
11
1.1638
21
0.487264
0
LINE
8
BLACK
6
CONTINUOUS
10
1.1638
20
0.487264
11
1.1638
21
0.542264
0
LINE
8
BLACK
6
CONTINUOUS
10
1.1638
20
0.542264
11
1.1988
21
0.542264
0
LINE
8
BLACK
6
CONTINUOUS
10
1.1988
20
0.542264
11
1.1988
21
0.487264
0
LINE
8
BLACK
6
CONTINUOUS
10
1.1238
20
0.487264
11
1.0888
21
0.487264
0
LINE
8
BLACK
6
CONTINUOUS
10
1.0888
20
0.487264
11
1.0888
21
0.542264
0
LINE
8
BLACK
6
CONTINUOUS
10
1.0888
20
0.542264
11
1.1238
21
0.542264
0
LINE
8
BLACK
6
CONTINUOUS
10
1.1238
20
0.542264
11
1.1238
21
0.487264
0
LINE
8
BLACK
6
CONTINUOUS
10
2.66587
20
0.504803
11
2.62413
21
0.504803
0
LINE
8
BLACK
6
CONTINUOUS
10
2.62413
20
0.504803
11
2.62413
21
0.530394
0
LINE
8
BLACK
6
CONTINUOUS
10
2.62413
20
0.530394
11
2.66587
21
0.530394
0
LINE
8
BLACK
6
CONTINUOUS
10
2.66587
20
0.530394
11
2.66587
21
0.504803
0
LINE
8
BLACK
6
CONTINUOUS
10
2.1475
20
0.52
11
2.0925
21
0.52
0
LINE
8
BLACK
6
CONTINUOUS
10
2.0925
20
0.52
11
2.0925
21
0.555
0
LINE
8
BLACK
6
CONTINUOUS
10
2.0925
20
0.555
11
2.1475
21
0.555
0
LINE
8
BLACK
6
CONTINUOUS
10
2.1475
20
0.555
11
2.1475
21
0.52
0
LINE
8
BLACK
6
CONTINUOUS
10
3.1325
20
0.535
11
3.0775
21
0.535
0
LINE
8
BLACK
6
CONTINUOUS
10
3.0775
20
0.535
11
3.0775
21
0.57
0
LINE
8
BLACK
6
CONTINUOUS
10
3.0775
20
0.57
11
3.1325
21
0.57
0
LINE
8
BLACK
6
CONTINUOUS
10
3.1325
20
0.57
11
3.1325
21
0.535
0
LINE
8
BLACK
6
CONTINUOUS
10
2.7625
20
0.5375
11
2.7075
21
0.5375
0
LINE
8
BLACK
6
CONTINUOUS
10
2.7075
20
0.5375
11
2.7075
21
0.5725
0
LINE
8
BLACK
6
CONTINUOUS
10
2.7075
20
0.5725
11
2.7625
21
0.5725
0
LINE
8
BLACK
6
CONTINUOUS
10
2.7625
20
0.5725
11
2.7625
21
0.5375
0
LINE
8
BLACK
6
CONTINUOUS
10
2.8575
20
0.54
11
2.8025
21
0.54
0
LINE
8
BLACK
6
CONTINUOUS
10
2.8025
20
0.54
11
2.8025
21
0.575
0
LINE
8
BLACK
6
CONTINUOUS
10
2.8025
20
0.575
11
2.8575
21
0.575
0
LINE
8
BLACK
6
CONTINUOUS
10
2.8575
20
0.575
11
2.8575
21
0.54
0
LINE
8
BLACK
6
CONTINUOUS
10
2.57925
20
0.542205
11
2.53752
21
0.542205
0
LINE
8
BLACK
6
CONTINUOUS
10
2.53752
20
0.542205
11
2.53752
21
0.567795
0
LINE
8
BLACK
6
CONTINUOUS
10
2.53752
20
0.567795
11
2.57925
21
0.567795
0
LINE
8
BLACK
6
CONTINUOUS
10
2.57925
20
0.567795
11
2.57925
21
0.542205
0
LINE
8
BLACK
6
CONTINUOUS
10
2.66587
20
0.542205
11
2.62413
21
0.542205
0
LINE
8
BLACK
6
CONTINUOUS
10
2.62413
20
0.542205
11
2.62413
21
0.567795
0
LINE
8
BLACK
6
CONTINUOUS
10
2.62413
20
0.567795
11
2.66587
21
0.567795
0
LINE
8
BLACK
6
CONTINUOUS
10
2.66587
20
0.567795
11
2.66587
21
0.542205
0
LINE
8
BLACK
6
CONTINUOUS
10
2.4825
20
0.545
11
2.4275
21
0.545
0
LINE
8
BLACK
6
CONTINUOUS
10
2.4275
20
0.545
11
2.4275
21
0.58
0
LINE
8
BLACK
6
CONTINUOUS
10
2.4275
20
0.58
11
2.4825
21
0.58
0
LINE
8
BLACK
6
CONTINUOUS
10
2.4825
20
0.58
11
2.4825
21
0.545
0
LINE
8
BLACK
6
CONTINUOUS
10
2.30406
20
0.54622
11
2.18594
21
0.54622
0
LINE
8
BLACK
6
CONTINUOUS
10
2.18594
20
0.54622
11
2.18594
21
0.57378
0
LINE
8
BLACK
6
CONTINUOUS
10
2.18594
20
0.57378
11
2.30406
21
0.57378
0
LINE
8
BLACK
6
CONTINUOUS
10
2.30406
20
0.57378
11
2.30406
21
0.54622
0
LINE
8
BLACK
6
CONTINUOUS
10
2.3925
20
0.5475
11
2.3375
21
0.5475
0
LINE
8
BLACK
6
CONTINUOUS
10
2.3375
20
0.5475
11
2.3375
21
0.5825
0
LINE
8
BLACK
6
CONTINUOUS
10
2.3375
20
0.5825
11
2.3925
21
0.5825
0
LINE
8
BLACK
6
CONTINUOUS
10
2.3925
20
0.5825
11
2.3925
21
0.5475
0
LINE
8
BLACK
6
CONTINUOUS
10
3.43839
20
0.561535
11
3.3872
21
0.561535
0
LINE
8
BLACK
6
CONTINUOUS
10
3.3872
20
0.561535
11
3.3872
21
0.628465
0
LINE
8
BLACK
6
CONTINUOUS
10
3.3872
20
0.628465
11
3.43839
21
0.628465
0
LINE
8
BLACK
6
CONTINUOUS
10
3.43839
20
0.628465
11
3.43839
21
0.561535
0
LINE
8
BLACK
6
CONTINUOUS
10
3.30059
20
0.561535
11
3.24941
21
0.561535
0
LINE
8
BLACK
6
CONTINUOUS
10
3.24941
20
0.561535
11
3.24941
21
0.628465
0
LINE
8
BLACK
6
CONTINUOUS
10
3.24941
20
0.628465
11
3.30059
21
0.628465
0
LINE
8
BLACK
6
CONTINUOUS
10
3.30059
20
0.628465
11
3.30059
21
0.561535
0
LINE
8
BLACK
6
CONTINUOUS
10
3.57878
20
0.572008
11
3.53941
21
0.572008
0
LINE
8
BLACK
6
CONTINUOUS
10
3.53941
20
0.572008
11
3.53941
21
0.721614
0
LINE
8
BLACK
6
CONTINUOUS
10
3.53941
20
0.721614
11
3.57878
21
0.721614
0
LINE
8
BLACK
6
CONTINUOUS
10
3.57878
20
0.721614
11
3.57878
21
0.572008
0
LINE
8
BLACK
6
CONTINUOUS
10
1.85437
20
0.572008
11
1.815
21
0.572008
0
LINE
8
BLACK
6
CONTINUOUS
10
1.815
20
0.572008
11
1.815
21
0.721614
0
LINE
8
BLACK
6
CONTINUOUS
10
1.815
20
0.721614
11
1.85437
21
0.721614
0
LINE
8
BLACK
6
CONTINUOUS
10
1.85437
20
0.721614
11
1.85437
21
0.572008
0
LINE
8
BLACK
6
CONTINUOUS
10
1.78244
20
0.574409
11
1.74307
21
0.574409
0
LINE
8
BLACK
6
CONTINUOUS
10
1.74307
20
0.574409
11
1.74307
21
0.724016
0
LINE
8
BLACK
6
CONTINUOUS
10
1.74307
20
0.724016
11
1.78244
21
0.724016
0
LINE
8
BLACK
6
CONTINUOUS
10
1.78244
20
0.724016
11
1.78244
21
0.574409
0
LINE
8
BLACK
6
CONTINUOUS
10
0.0580315
20
0.574409
11
0.0186614
21
0.574409
0
LINE
8
BLACK
6
CONTINUOUS
10
0.0186614
20
0.574409
11
0.0186614
21
0.724016
0
LINE
8
BLACK
6
CONTINUOUS
10
0.0186614
20
0.724016
11
0.0580315
21
0.724016
0
LINE
8
BLACK
6
CONTINUOUS
10
0.0580315
20
0.724016
11
0.0580315
21
0.574409
0
LINE
8
BLACK
6
CONTINUOUS
10
2.97878
20
0.585945
11
2.95122
21
0.585945
0
LINE
8
BLACK
6
CONTINUOUS
10
2.95122
20
0.585945
11
2.95122
21
0.704055
0
LINE
8
BLACK
6
CONTINUOUS
10
2.95122
20
0.704055
11
2.97878
21
0.704055
0
LINE
8
BLACK
6
CONTINUOUS
10
2.97878
20
0.704055
11
2.97878
21
0.585945
0
LINE
8
BLACK
6
CONTINUOUS
10
2.27453
20
0.587559
11
2.21547
21
0.587559
0
LINE
8
BLACK
6
CONTINUOUS
10
2.21547
20
0.587559
11
2.21547
21
0.63874
0
LINE
8
BLACK
6
CONTINUOUS
10
2.21547
20
0.63874
11
2.27453
21
0.63874
0
LINE
8
BLACK
6
CONTINUOUS
10
2.27453
20
0.63874
11
2.27453
21
0.587559
0
LINE
8
BLACK
6
CONTINUOUS
10
1.0321
20
0.590564
11
0.931699
21
0.590564
0
LINE
8
BLACK
6
CONTINUOUS
10
0.931699
20
0.590564
11
0.931699
21
0.688964
0
LINE
8
BLACK
6
CONTINUOUS
10
0.931699
20
0.688964
11
1.0321
21
0.688964
0
LINE
8
BLACK
6
CONTINUOUS
10
1.0321
20
0.688964
11
1.0321
21
0.590564
0
LINE
8
BLACK
6
CONTINUOUS
10
1.2309
20
0.590564
11
1.1305
21
0.590564
0
LINE
8
BLACK
6
CONTINUOUS
10
1.1305
20
0.590564
11
1.1305
21
0.688964
0
LINE
8
BLACK
6
CONTINUOUS
10
1.1305
20
0.688964
11
1.2309
21
0.688964
0
LINE
8
BLACK
6
CONTINUOUS
10
1.2309
20
0.688964
11
1.2309
21
0.590564
0
LINE
8
BLACK
6
CONTINUOUS
10
3.1325
20
0.5925
11
3.0775
21
0.5925
0
LINE
8
BLACK
6
CONTINUOUS
10
3.0775
20
0.5925
11
3.0775
21
0.6275
0
LINE
8
BLACK
6
CONTINUOUS
10
3.0775
20
0.6275
11
3.1325
21
0.6275
0
LINE
8
BLACK
6
CONTINUOUS
10
3.1325
20
0.6275
11
3.1325
21
0.5925
0
LINE
8
BLACK
6
CONTINUOUS
10
2.1475
20
0.595
11
2.0925
21
0.595
0
LINE
8
BLACK
6
CONTINUOUS
10
2.0925
20
0.595
11
2.0925
21
0.63
0
LINE
8
BLACK
6
CONTINUOUS
10
2.0925
20
0.63
11
2.1475
21
0.63
0
LINE
8
BLACK
6
CONTINUOUS
10
2.1475
20
0.63
11
2.1475
21
0.595
0
LINE
8
BLACK
6
CONTINUOUS
10
1.6088
20
0.609764
11
1.5538
21
0.609764
0
LINE
8
BLACK
6
CONTINUOUS
10
1.5538
20
0.609764
11
1.5538
21
0.644764
0
LINE
8
BLACK
6
CONTINUOUS
10
1.5538
20
0.644764
11
1.6088
21
0.644764
0
LINE
8
BLACK
6
CONTINUOUS
10
1.6088
20
0.644764
11
1.6088
21
0.609764
0
LINE
8
BLACK
6
CONTINUOUS
10
1.7088
20
0.609764
11
1.6538
21
0.609764
0
LINE
8
BLACK
6
CONTINUOUS
10
1.6538
20
0.609764
11
1.6538
21
0.644764
0
LINE
8
BLACK
6
CONTINUOUS
10
1.6538
20
0.644764
11
1.7088
21
0.644764
0
LINE
8
BLACK
6
CONTINUOUS
10
1.7088
20
0.644764
11
1.7088
21
0.609764
0
LINE
8
BLACK
6
CONTINUOUS
10
2.61085
20
0.66681
11
2.61405
21
0.664676
0
LINE
8
BLACK
6
CONTINUOUS
10
2.61405
20
0.664676
11
2.61618
21
0.661483
0
LINE
8
BLACK
6
CONTINUOUS
10
2.61618
20
0.661483
11
2.61693
21
0.657717
0
LINE
8
BLACK
6
CONTINUOUS
10
2.61693
20
0.657717
11
2.61693
21
0.622283
0
LINE
8
BLACK
6
CONTINUOUS
10
2.61693
20
0.622283
11
2.61618
21
0.618517
0
LINE
8
BLACK
6
CONTINUOUS
10
2.61618
20
0.618517
11
2.61405
21
0.615324
0
LINE
8
BLACK
6
CONTINUOUS
10
2.61405
20
0.615324
11
2.61085
21
0.61319
0
LINE
8
BLACK
6
CONTINUOUS
10
2.61085
20
0.61319
11
2.60709
21
0.612441
0
LINE
8
BLACK
6
CONTINUOUS
10
2.60709
20
0.612441
11
2.5815
21
0.612441
0
LINE
8
BLACK
6
CONTINUOUS
10
2.5815
20
0.612441
11
2.57773
21
0.61319
0
LINE
8
BLACK
6
CONTINUOUS
10
2.57773
20
0.61319
11
2.57454
21
0.615324
0
LINE
8
BLACK
6
CONTINUOUS
10
2.57454
20
0.615324
11
2.5724
21
0.618517
0
LINE
8
BLACK
6
CONTINUOUS
10
2.5724
20
0.618517
11
2.57165
21
0.622283
0
LINE
8
BLACK
6
CONTINUOUS
10
2.57165
20
0.622283
11
2.57165
21
0.657717
0
LINE
8
BLACK
6
CONTINUOUS
10
2.57165
20
0.657717
11
2.5724
21
0.661483
0
LINE
8
BLACK
6
CONTINUOUS
10
2.5724
20
0.661483
11
2.57454
21
0.664676
0
LINE
8
BLACK
6
CONTINUOUS
10
2.57454
20
0.664676
11
2.57773
21
0.66681
0
LINE
8
BLACK
6
CONTINUOUS
10
2.57773
20
0.66681
11
2.5815
21
0.667559
0
LINE
8
BLACK
6
CONTINUOUS
10
2.5815
20
0.667559
11
2.60709
21
0.667559
0
LINE
8
BLACK
6
CONTINUOUS
10
2.60709
20
0.667559
11
2.61085
21
0.66681
0
LINE
8
BLACK
6
CONTINUOUS
10
2.69156
20
0.66681
11
2.69475
21
0.664676
0
LINE
8
BLACK
6
CONTINUOUS
10
2.69475
20
0.664676
11
2.69689
21
0.661483
0
LINE
8
BLACK
6
CONTINUOUS
10
2.69689
20
0.661483
11
2.69764
21
0.657717
0
LINE
8
BLACK
6
CONTINUOUS
10
2.69764
20
0.657717
11
2.69764
21
0.622283
0
LINE
8
BLACK
6
CONTINUOUS
10
2.69764
20
0.622283
11
2.69689
21
0.618517
0
LINE
8
BLACK
6
CONTINUOUS
10
2.69689
20
0.618517
11
2.69475
21
0.615324
0
LINE
8
BLACK
6
CONTINUOUS
10
2.69475
20
0.615324
11
2.69156
21
0.61319
0
LINE
8
BLACK
6
CONTINUOUS
10
2.69156
20
0.61319
11
2.6878
21
0.612441
0
LINE
8
BLACK
6
CONTINUOUS
10
2.6878
20
0.612441
11
2.6622
21
0.612441
0
LINE
8
BLACK
6
CONTINUOUS
10
2.6622
20
0.612441
11
2.65844
21
0.61319
0
LINE
8
BLACK
6
CONTINUOUS
10
2.65844
20
0.61319
11
2.65524
21
0.615324
0
LINE
8
BLACK
6
CONTINUOUS
10
2.65524
20
0.615324
11
2.65311
21
0.618517
0
LINE
8
BLACK
6
CONTINUOUS
10
2.65311
20
0.618517
11
2.65236
21
0.622283
0
LINE
8
BLACK
6
CONTINUOUS
10
2.65236
20
0.622283
11
2.65236
21
0.657717
0
LINE
8
BLACK
6
CONTINUOUS
10
2.65236
20
0.657717
11
2.65311
21
0.661483
0
LINE
8
BLACK
6
CONTINUOUS
10
2.65311
20
0.661483
11
2.65524
21
0.664676
0
LINE
8
BLACK
6
CONTINUOUS
10
2.65524
20
0.664676
11
2.65844
21
0.66681
0
LINE
8
BLACK
6
CONTINUOUS
10
2.65844
20
0.66681
11
2.6622
21
0.667559
0
LINE
8
BLACK
6
CONTINUOUS
10
2.6622
20
0.667559
11
2.6878
21
0.667559
0
LINE
8
BLACK
6
CONTINUOUS
10
2.6878
20
0.667559
11
2.69156
21
0.66681
0
LINE
8
BLACK
6
CONTINUOUS
10
2.84
20
0.6125
11
2.805
21
0.6125
0
LINE
8
BLACK
6
CONTINUOUS
10
2.805
20
0.6125
11
2.805
21
0.6675
0
LINE
8
BLACK
6
CONTINUOUS
10
2.805
20
0.6675
11
2.84
21
0.6675
0
LINE
8
BLACK
6
CONTINUOUS
10
2.84
20
0.6675
11
2.84
21
0.6125
0
LINE
8
BLACK
6
CONTINUOUS
10
2.765
20
0.6125
11
2.73
21
0.6125
0
LINE
8
BLACK
6
CONTINUOUS
10
2.73
20
0.6125
11
2.73
21
0.6675
0
LINE
8
BLACK
6
CONTINUOUS
10
2.73
20
0.6675
11
2.765
21
0.6675
0
LINE
8
BLACK
6
CONTINUOUS
10
2.765
20
0.6675
11
2.765
21
0.6125
0
LINE
8
BLACK
6
CONTINUOUS
10
2.93744
20
0.615472
11
2.88626
21
0.615472
0
LINE
8
BLACK
6
CONTINUOUS
10
2.88626
20
0.615472
11
2.88626
21
0.674528
0
LINE
8
BLACK
6
CONTINUOUS
10
2.88626
20
0.674528
11
2.93744
21
0.674528
0
LINE
8
BLACK
6
CONTINUOUS
10
2.93744
20
0.674528
11
2.93744
21
0.615472
0
LINE
8
BLACK
6
CONTINUOUS
10
3.04374
20
0.615472
11
2.99256
21
0.615472
0
LINE
8
BLACK
6
CONTINUOUS
10
2.99256
20
0.615472
11
2.99256
21
0.674528
0
LINE
8
BLACK
6
CONTINUOUS
10
2.99256
20
0.674528
11
3.04374
21
0.674528
0
LINE
8
BLACK
6
CONTINUOUS
10
3.04374
20
0.674528
11
3.04374
21
0.615472
0
LINE
8
BLACK
6
CONTINUOUS
10
2.5375
20
0.62
11
2.4825
21
0.62
0
LINE
8
BLACK
6
CONTINUOUS
10
2.4825
20
0.62
11
2.4825
21
0.655
0
LINE
8
BLACK
6
CONTINUOUS
10
2.4825
20
0.655
11
2.5375
21
0.655
0
LINE
8
BLACK
6
CONTINUOUS
10
2.5375
20
0.655
11
2.5375
21
0.62
0
LINE
8
BLACK
6
CONTINUOUS
10
2.44917
20
0.629803
11
2.40744
21
0.629803
0
LINE
8
BLACK
6
CONTINUOUS
10
2.40744
20
0.629803
11
2.40744
21
0.655394
0
LINE
8
BLACK
6
CONTINUOUS
10
2.40744
20
0.655394
11
2.44917
21
0.655394
0
LINE
8
BLACK
6
CONTINUOUS
10
2.44917
20
0.655394
11
2.44917
21
0.629803
0
LINE
8
BLACK
6
CONTINUOUS
10
2.36256
20
0.629803
11
2.32083
21
0.629803
0
LINE
8
BLACK
6
CONTINUOUS
10
2.32083
20
0.629803
11
2.32083
21
0.655394
0
LINE
8
BLACK
6
CONTINUOUS
10
2.32083
20
0.655394
11
2.36256
21
0.655394
0
LINE
8
BLACK
6
CONTINUOUS
10
2.36256
20
0.655394
11
2.36256
21
0.629803
0
LINE
8
BLACK
6
CONTINUOUS
10
1.4363
20
0.662264
11
1.4013
21
0.662264
0
LINE
8
BLACK
6
CONTINUOUS
10
1.4013
20
0.662264
11
1.4013
21
0.717264
0
LINE
8
BLACK
6
CONTINUOUS
10
1.4013
20
0.717264
11
1.4363
21
0.717264
0
LINE
8
BLACK
6
CONTINUOUS
10
1.4363
20
0.717264
11
1.4363
21
0.662264
0
LINE
8
BLACK
6
CONTINUOUS
10
1.5113
20
0.662264
11
1.4763
21
0.662264
0
LINE
8
BLACK
6
CONTINUOUS
10
1.4763
20
0.662264
11
1.4763
21
0.717264
0
LINE
8
BLACK
6
CONTINUOUS
10
1.4763
20
0.717264
11
1.5113
21
0.717264
0
LINE
8
BLACK
6
CONTINUOUS
10
1.5113
20
0.717264
11
1.5113
21
0.662264
0
LINE
8
BLACK
6
CONTINUOUS
10
2.07453
20
0.66626
11
2.01547
21
0.66626
0
LINE
8
BLACK
6
CONTINUOUS
10
2.01547
20
0.66626
11
2.01547
21
0.717441
0
LINE
8
BLACK
6
CONTINUOUS
10
2.01547
20
0.717441
11
2.07453
21
0.717441
0
LINE
8
BLACK
6
CONTINUOUS
10
2.07453
20
0.717441
11
2.07453
21
0.66626
0
LINE
8
BLACK
6
CONTINUOUS
10
2.44917
20
0.667205
11
2.40744
21
0.667205
0
LINE
8
BLACK
6
CONTINUOUS
10
2.40744
20
0.667205
11
2.40744
21
0.692795
0
LINE
8
BLACK
6
CONTINUOUS
10
2.40744
20
0.692795
11
2.44917
21
0.692795
0
LINE
8
BLACK
6
CONTINUOUS
10
2.44917
20
0.692795
11
2.44917
21
0.667205
0
LINE
8
BLACK
6
CONTINUOUS
10
3.1325
20
0.6675
11
3.0775
21
0.6675
0
LINE
8
BLACK
6
CONTINUOUS
10
3.0775
20
0.6675
11
3.0775
21
0.7025
0
LINE
8
BLACK
6
CONTINUOUS
10
3.0775
20
0.7025
11
3.1325
21
0.7025
0
LINE
8
BLACK
6
CONTINUOUS
10
3.1325
20
0.7025
11
3.1325
21
0.6675
0
LINE
8
BLACK
6
CONTINUOUS
10
3.4125
20
0.6675
11
3.3775
21
0.6675
0
LINE
8
BLACK
6
CONTINUOUS
10
3.3775
20
0.6675
11
3.3775
21
0.7225
0
LINE
8
BLACK
6
CONTINUOUS
10
3.3775
20
0.7225
11
3.4125
21
0.7225
0
LINE
8
BLACK
6
CONTINUOUS
10
3.4125
20
0.7225
11
3.4125
21
0.6675
0
LINE
8
BLACK
6
CONTINUOUS
10
3.3375
20
0.6675
11
3.3025
21
0.6675
0
LINE
8
BLACK
6
CONTINUOUS
10
3.3025
20
0.6675
11
3.3025
21
0.7225
0
LINE
8
BLACK
6
CONTINUOUS
10
3.3025
20
0.7225
11
3.3375
21
0.7225
0
LINE
8
BLACK
6
CONTINUOUS
10
3.3375
20
0.7225
11
3.3375
21
0.6675
0
LINE
8
BLACK
6
CONTINUOUS
10
1.7088
20
0.684764
11
1.6538
21
0.684764
0
LINE
8
BLACK
6
CONTINUOUS
10
1.6538
20
0.684764
11
1.6538
21
0.719764
0
LINE
8
BLACK
6
CONTINUOUS
10
1.6538
20
0.719764
11
1.7088
21
0.719764
0
LINE
8
BLACK
6
CONTINUOUS
10
1.7088
20
0.719764
11
1.7088
21
0.684764
0
LINE
8
BLACK
6
CONTINUOUS
10
1.6088
20
0.684764
11
1.5538
21
0.684764
0
LINE
8
BLACK
6
CONTINUOUS
10
1.5538
20
0.684764
11
1.5538
21
0.719764
0
LINE
8
BLACK
6
CONTINUOUS
10
1.5538
20
0.719764
11
1.6088
21
0.719764
0
LINE
8
BLACK
6
CONTINUOUS
10
1.6088
20
0.719764
11
1.6088
21
0.684764
0
LINE
8
BLACK
6
CONTINUOUS
10
1.9525
20
0.685
11
1.8975
21
0.685
0
LINE
8
BLACK
6
CONTINUOUS
10
1.8975
20
0.685
11
1.8975
21
0.72
0
LINE
8
BLACK
6
CONTINUOUS
10
1.8975
20
0.72
11
1.9525
21
0.72
0
LINE
8
BLACK
6
CONTINUOUS
10
1.9525
20
0.72
11
1.9525
21
0.685
0
LINE
8
BLACK
6
CONTINUOUS
10
2.1925
20
0.6875
11
2.1375
21
0.6875
0
LINE
8
BLACK
6
CONTINUOUS
10
2.1375
20
0.6875
11
2.1375
21
0.7225
0
LINE
8
BLACK
6
CONTINUOUS
10
2.1375
20
0.7225
11
2.1925
21
0.7225
0
LINE
8
BLACK
6
CONTINUOUS
10
2.1925
20
0.7225
11
2.1925
21
0.6875
0
LINE
8
BLACK
6
CONTINUOUS
10
2.2775
20
0.6875
11
2.2225
21
0.6875
0
LINE
8
BLACK
6
CONTINUOUS
10
2.2225
20
0.6875
11
2.2225
21
0.7225
0
LINE
8
BLACK
6
CONTINUOUS
10
2.2225
20
0.7225
11
2.2775
21
0.7225
0
LINE
8
BLACK
6
CONTINUOUS
10
2.2775
20
0.7225
11
2.2775
21
0.6875
0
LINE
8
BLACK
6
CONTINUOUS
10
2.8625
20
0.695
11
2.8075
21
0.695
0
LINE
8
BLACK
6
CONTINUOUS
10
2.8075
20
0.695
11
2.8075
21
0.73
0
LINE
8
BLACK
6
CONTINUOUS
10
2.8075
20
0.73
11
2.8625
21
0.73
0
LINE
8
BLACK
6
CONTINUOUS
10
2.8625
20
0.73
11
2.8625
21
0.695
0
LINE
8
BLACK
6
CONTINUOUS
10
2.5375
20
0.695
11
2.4825
21
0.695
0
LINE
8
BLACK
6
CONTINUOUS
10
2.4825
20
0.695
11
2.4825
21
0.73
0
LINE
8
BLACK
6
CONTINUOUS
10
2.4825
20
0.73
11
2.5375
21
0.73
0
LINE
8
BLACK
6
CONTINUOUS
10
2.5375
20
0.73
11
2.5375
21
0.695
0
LINE
8
BLACK
6
CONTINUOUS
10
2.44917
20
0.704606
11
2.40744
21
0.704606
0
LINE
8
BLACK
6
CONTINUOUS
10
2.40744
20
0.704606
11
2.40744
21
0.730197
0
LINE
8
BLACK
6
CONTINUOUS
10
2.40744
20
0.730197
11
2.44917
21
0.730197
0
LINE
8
BLACK
6
CONTINUOUS
10
2.44917
20
0.730197
11
2.44917
21
0.704606
0
LINE
8
BLACK
6
CONTINUOUS
10
2.36256
20
0.704606
11
2.32083
21
0.704606
0
LINE
8
BLACK
6
CONTINUOUS
10
2.32083
20
0.704606
11
2.32083
21
0.730197
0
LINE
8
BLACK
6
CONTINUOUS
10
2.32083
20
0.730197
11
2.36256
21
0.730197
0
LINE
8
BLACK
6
CONTINUOUS
10
2.36256
20
0.730197
11
2.36256
21
0.704606
0
LINE
8
BLACK
6
CONTINUOUS
10
0.423799
20
0.714764
11
0.368799
21
0.714764
0
LINE
8
BLACK
6
CONTINUOUS
10
0.368799
20
0.714764
11
0.368799
21
0.749764
0
LINE
8
BLACK
6
CONTINUOUS
10
0.368799
20
0.749764
11
0.423799
21
0.749764
0
LINE
8
BLACK
6
CONTINUOUS
10
0.423799
20
0.749764
11
0.423799
21
0.714764
0
LINE
8
BLACK
6
CONTINUOUS
10
0.585276
20
0.716614
11
0.549843
21
0.716614
0
LINE
8
BLACK
6
CONTINUOUS
10
0.549843
20
0.716614
11
0.549843
21
0.74811
0
LINE
8
BLACK
6
CONTINUOUS
10
0.549843
20
0.74811
11
0.585276
21
0.74811
0
LINE
8
BLACK
6
CONTINUOUS
10
0.585276
20
0.74811
11
0.585276
21
0.716614
0
LINE
8
BLACK
6
CONTINUOUS
10
2.7175
20
0.7225
11
2.6825
21
0.7225
0
LINE
8
BLACK
6
CONTINUOUS
10
2.6825
20
0.7225
11
2.6825
21
0.7775
0
LINE
8
BLACK
6
CONTINUOUS
10
2.6825
20
0.7775
11
2.7175
21
0.7775
0
LINE
8
BLACK
6
CONTINUOUS
10
2.7175
20
0.7775
11
2.7175
21
0.7225
0
LINE
8
BLACK
6
CONTINUOUS
10
2.6425
20
0.7225
11
2.6075
21
0.7225
0
LINE
8
BLACK
6
CONTINUOUS
10
2.6075
20
0.7225
11
2.6075
21
0.7775
0
LINE
8
BLACK
6
CONTINUOUS
10
2.6075
20
0.7775
11
2.6425
21
0.7775
0
LINE
8
BLACK
6
CONTINUOUS
10
2.6425
20
0.7775
11
2.6425
21
0.7225
0
LINE
8
BLACK
6
CONTINUOUS
10
2.10406
20
0.73122
11
1.98594
21
0.73122
0
LINE
8
BLACK
6
CONTINUOUS
10
1.98594
20
0.73122
11
1.98594
21
0.75878
0
LINE
8
BLACK
6
CONTINUOUS
10
1.98594
20
0.75878
11
2.10406
21
0.75878
0
LINE
8
BLACK
6
CONTINUOUS
10
2.10406
20
0.75878
11
2.10406
21
0.73122
0
LINE
8
BLACK
6
CONTINUOUS
10
3.03811
20
0.734567
11
2.99874
21
0.734567
0
LINE
8
BLACK
6
CONTINUOUS
10
2.99874
20
0.734567
11
2.99874
21
0.805433
0
LINE
8
BLACK
6
CONTINUOUS
10
2.99874
20
0.805433
11
3.03811
21
0.805433
0
LINE
8
BLACK
6
CONTINUOUS
10
3.03811
20
0.805433
11
3.03811
21
0.734567
0
LINE
8
BLACK
6
CONTINUOUS
10
2.93969
20
0.734567
11
2.90031
21
0.734567
0
LINE
8
BLACK
6
CONTINUOUS
10
2.90031
20
0.734567
11
2.90031
21
0.805433
0
LINE
8
BLACK
6
CONTINUOUS
10
2.90031
20
0.805433
11
2.93969
21
0.805433
0
LINE
8
BLACK
6
CONTINUOUS
10
2.93969
20
0.805433
11
2.93969
21
0.734567
0
LINE
8
BLACK
6
CONTINUOUS
10
0.664016
20
0.754016
11
0.628583
21
0.754016
0
LINE
8
BLACK
6
CONTINUOUS
10
0.628583
20
0.754016
11
0.628583
21
0.785512
0
LINE
8
BLACK
6
CONTINUOUS
10
0.628583
20
0.785512
11
0.664016
21
0.785512
0
LINE
8
BLACK
6
CONTINUOUS
10
0.664016
20
0.785512
11
0.664016
21
0.754016
0
LINE
8
BLACK
6
CONTINUOUS
10
3.3375
20
0.7575
11
3.3025
21
0.7575
0
LINE
8
BLACK
6
CONTINUOUS
10
3.3025
20
0.7575
11
3.3025
21
0.8125
0
LINE
8
BLACK
6
CONTINUOUS
10
3.3025
20
0.8125
11
3.3375
21
0.8125
0
LINE
8
BLACK
6
CONTINUOUS
10
3.3375
20
0.8125
11
3.3375
21
0.7575
0
LINE
8
BLACK
6
CONTINUOUS
10
3.4125
20
0.7575
11
3.3775
21
0.7575
0
LINE
8
BLACK
6
CONTINUOUS
10
3.3775
20
0.7575
11
3.3775
21
0.8125
0
LINE
8
BLACK
6
CONTINUOUS
10
3.3775
20
0.8125
11
3.4125
21
0.8125
0
LINE
8
BLACK
6
CONTINUOUS
10
3.4125
20
0.8125
11
3.4125
21
0.7575
0
LINE
8
BLACK
6
CONTINUOUS
10
1.4338
20
0.759764
11
1.3788
21
0.759764
0
LINE
8
BLACK
6
CONTINUOUS
10
1.3788
20
0.759764
11
1.3788
21
0.794764
0
LINE
8
BLACK
6
CONTINUOUS
10
1.3788
20
0.794764
11
1.4338
21
0.794764
0
LINE
8
BLACK
6
CONTINUOUS
10
1.4338
20
0.794764
11
1.4338
21
0.759764
0
LINE
8
BLACK
6
CONTINUOUS
10
1.9525
20
0.76
11
1.8975
21
0.76
0
LINE
8
BLACK
6
CONTINUOUS
10
1.8975
20
0.76
11
1.8975
21
0.795
0
LINE
8
BLACK
6
CONTINUOUS
10
1.8975
20
0.795
11
1.9525
21
0.795
0
LINE
8
BLACK
6
CONTINUOUS
10
1.9525
20
0.795
11
1.9525
21
0.76
0
LINE
8
BLACK
6
CONTINUOUS
10
2.48692
20
0.81681
11
2.49011
21
0.814676
0
LINE
8
BLACK
6
CONTINUOUS
10
2.49011
20
0.814676
11
2.49224
21
0.811483
0
LINE
8
BLACK
6
CONTINUOUS
10
2.49224
20
0.811483
11
2.49299
21
0.807717
0
LINE
8
BLACK
6
CONTINUOUS
10
2.49299
20
0.807717
11
2.49299
21
0.772283
0
LINE
8
BLACK
6
CONTINUOUS
10
2.49299
20
0.772283
11
2.49224
21
0.768517
0
LINE
8
BLACK
6
CONTINUOUS
10
2.49224
20
0.768517
11
2.49011
21
0.765324
0
LINE
8
BLACK
6
CONTINUOUS
10
2.49011
20
0.765324
11
2.48692
21
0.76319
0
LINE
8
BLACK
6
CONTINUOUS
10
2.48692
20
0.76319
11
2.48315
21
0.762441
0
LINE
8
BLACK
6
CONTINUOUS
10
2.48315
20
0.762441
11
2.45756
21
0.762441
0
LINE
8
BLACK
6
CONTINUOUS
10
2.45756
20
0.762441
11
2.45379
21
0.76319
0
LINE
8
BLACK
6
CONTINUOUS
10
2.45379
20
0.76319
11
2.4506
21
0.765324
0
LINE
8
BLACK
6
CONTINUOUS
10
2.4506
20
0.765324
11
2.44847
21
0.768517
0
LINE
8
BLACK
6
CONTINUOUS
10
2.44847
20
0.768517
11
2.44772
21
0.772283
0
LINE
8
BLACK
6
CONTINUOUS
10
2.44772
20
0.772283
11
2.44772
21
0.807717
0
LINE
8
BLACK
6
CONTINUOUS
10
2.44772
20
0.807717
11
2.44847
21
0.811483
0
LINE
8
BLACK
6
CONTINUOUS
10
2.44847
20
0.811483
11
2.4506
21
0.814676
0
LINE
8
BLACK
6
CONTINUOUS
10
2.4506
20
0.814676
11
2.45379
21
0.81681
0
LINE
8
BLACK
6
CONTINUOUS
10
2.45379
20
0.81681
11
2.45756
21
0.817559
0
LINE
8
BLACK
6
CONTINUOUS
10
2.45756
20
0.817559
11
2.48315
21
0.817559
0
LINE
8
BLACK
6
CONTINUOUS
10
2.48315
20
0.817559
11
2.48692
21
0.81681
0
LINE
8
BLACK
6
CONTINUOUS
10
2.40621
20
0.81681
11
2.4094
21
0.814676
0
LINE
8
BLACK
6
CONTINUOUS
10
2.4094
20
0.814676
11
2.41153
21
0.811483
0
LINE
8
BLACK
6
CONTINUOUS
10
2.41153
20
0.811483
11
2.41228
21
0.807717
0
LINE
8
BLACK
6
CONTINUOUS
10
2.41228
20
0.807717
11
2.41228
21
0.772283
0
LINE
8
BLACK
6
CONTINUOUS
10
2.41228
20
0.772283
11
2.41153
21
0.768517
0
LINE
8
BLACK
6
CONTINUOUS
10
2.41153
20
0.768517
11
2.4094
21
0.765324
0
LINE
8
BLACK
6
CONTINUOUS
10
2.4094
20
0.765324
11
2.40621
21
0.76319
0
LINE
8
BLACK
6
CONTINUOUS
10
2.40621
20
0.76319
11
2.40244
21
0.762441
0
LINE
8
BLACK
6
CONTINUOUS
10
2.40244
20
0.762441
11
2.37685
21
0.762441
0
LINE
8
BLACK
6
CONTINUOUS
10
2.37685
20
0.762441
11
2.37308
21
0.76319
0
LINE
8
BLACK
6
CONTINUOUS
10
2.37308
20
0.76319
11
2.36989
21
0.765324
0
LINE
8
BLACK
6
CONTINUOUS
10
2.36989
20
0.765324
11
2.36776
21
0.768517
0
LINE
8
BLACK
6
CONTINUOUS
10
2.36776
20
0.768517
11
2.36701
21
0.772283
0
LINE
8
BLACK
6
CONTINUOUS
10
2.36701
20
0.772283
11
2.36701
21
0.807717
0
LINE
8
BLACK
6
CONTINUOUS
10
2.36701
20
0.807717
11
2.36776
21
0.811483
0
LINE
8
BLACK
6
CONTINUOUS
10
2.36776
20
0.811483
11
2.36989
21
0.814676
0
LINE
8
BLACK
6
CONTINUOUS
10
2.36989
20
0.814676
11
2.37308
21
0.81681
0
LINE
8
BLACK
6
CONTINUOUS
10
2.37308
20
0.81681
11
2.37685
21
0.817559
0
LINE
8
BLACK
6
CONTINUOUS
10
2.37685
20
0.817559
11
2.40244
21
0.817559
0
LINE
8
BLACK
6
CONTINUOUS
10
2.40244
20
0.817559
11
2.40621
21
0.81681
0
LINE
8
BLACK
6
CONTINUOUS
10
2.2775
20
0.7625
11
2.2225
21
0.7625
0
LINE
8
BLACK
6
CONTINUOUS
10
2.2225
20
0.7625
11
2.2225
21
0.7975
0
LINE
8
BLACK
6
CONTINUOUS
10
2.2225
20
0.7975
11
2.2775
21
0.7975
0
LINE
8
BLACK
6
CONTINUOUS
10
2.2775
20
0.7975
11
2.2775
21
0.7625
0
LINE
8
BLACK
6
CONTINUOUS
10
2.1925
20
0.7625
11
2.1375
21
0.7625
0
LINE
8
BLACK
6
CONTINUOUS
10
2.1375
20
0.7625
11
2.1375
21
0.7975
0
LINE
8
BLACK
6
CONTINUOUS
10
2.1375
20
0.7975
11
2.1925
21
0.7975
0
LINE
8
BLACK
6
CONTINUOUS
10
2.1925
20
0.7975
11
2.1925
21
0.7625
0
LINE
8
BLACK
6
CONTINUOUS
10
1.60886
20
0.764567
11
1.54744
21
0.764567
0
LINE
8
BLACK
6
CONTINUOUS
10
1.54744
20
0.764567
11
1.54744
21
0.790157
0
LINE
8
BLACK
6
CONTINUOUS
10
1.54744
20
0.790157
11
1.60886
21
0.790157
0
LINE
8
BLACK
6
CONTINUOUS
10
1.60886
20
0.790157
11
1.60886
21
0.764567
0
LINE
8
BLACK
6
CONTINUOUS
10
1.71516
20
0.764567
11
1.65374
21
0.764567
0
LINE
8
BLACK
6
CONTINUOUS
10
1.65374
20
0.764567
11
1.65374
21
0.790157
0
LINE
8
BLACK
6
CONTINUOUS
10
1.65374
20
0.790157
11
1.71516
21
0.790157
0
LINE
8
BLACK
6
CONTINUOUS
10
1.71516
20
0.790157
11
1.71516
21
0.764567
0
LINE
8
BLACK
6
CONTINUOUS
10
2.8625
20
0.77
11
2.8075
21
0.77
0
LINE
8
BLACK
6
CONTINUOUS
10
2.8075
20
0.77
11
2.8075
21
0.805
0
LINE
8
BLACK
6
CONTINUOUS
10
2.8075
20
0.805
11
2.8625
21
0.805
0
LINE
8
BLACK
6
CONTINUOUS
10
2.8625
20
0.805
11
2.8625
21
0.77
0
LINE
8
BLACK
6
CONTINUOUS
10
2.07453
20
0.772559
11
2.01547
21
0.772559
0
LINE
8
BLACK
6
CONTINUOUS
10
2.01547
20
0.772559
11
2.01547
21
0.82374
0
LINE
8
BLACK
6
CONTINUOUS
10
2.01547
20
0.82374
11
2.07453
21
0.82374
0
LINE
8
BLACK
6
CONTINUOUS
10
2.07453
20
0.82374
11
2.07453
21
0.772559
0
LINE
8
BLACK
6
CONTINUOUS
10
0.423799
20
0.789764
11
0.368799
21
0.789764
0
LINE
8
BLACK
6
CONTINUOUS
10
0.368799
20
0.789764
11
0.368799
21
0.824764
0
LINE
8
BLACK
6
CONTINUOUS
10
0.368799
20
0.824764
11
0.423799
21
0.824764
0
LINE
8
BLACK
6
CONTINUOUS
10
0.423799
20
0.824764
11
0.423799
21
0.789764
0
LINE
8
BLACK
6
CONTINUOUS
10
0.585276
20
0.791417
11
0.549843
21
0.791417
0
LINE
8
BLACK
6
CONTINUOUS
10
0.549843
20
0.791417
11
0.549843
21
0.822913
0
LINE
8
BLACK
6
CONTINUOUS
10
0.549843
20
0.822913
11
0.585276
21
0.822913
0
LINE
8
BLACK
6
CONTINUOUS
10
0.585276
20
0.822913
11
0.585276
21
0.791417
0
LINE
8
BLACK
6
CONTINUOUS
10
1.60886
20
0.801969
11
1.54744
21
0.801969
0
LINE
8
BLACK
6
CONTINUOUS
10
1.54744
20
0.801969
11
1.54744
21
0.827559
0
LINE
8
BLACK
6
CONTINUOUS
10
1.54744
20
0.827559
11
1.60886
21
0.827559
0
LINE
8
BLACK
6
CONTINUOUS
10
1.60886
20
0.827559
11
1.60886
21
0.801969
0
LINE
8
BLACK
6
CONTINUOUS
10
2.6425
20
0.8025
11
2.6075
21
0.8025
0
LINE
8
BLACK
6
CONTINUOUS
10
2.6075
20
0.8025
11
2.6075
21
0.8575
0
LINE
8
BLACK
6
CONTINUOUS
10
2.6075
20
0.8575
11
2.6425
21
0.8575
0
LINE
8
BLACK
6
CONTINUOUS
10
2.6425
20
0.8575
11
2.6425
21
0.8025
0
LINE
8
BLACK
6
CONTINUOUS
10
2.7175
20
0.8025
11
2.6825
21
0.8025
0
LINE
8
BLACK
6
CONTINUOUS
10
2.6825
20
0.8025
11
2.6825
21
0.8575
0
LINE
8
BLACK
6
CONTINUOUS
10
2.6825
20
0.8575
11
2.7175
21
0.8575
0
LINE
8
BLACK
6
CONTINUOUS
10
2.7175
20
0.8575
11
2.7175
21
0.8025
0
LINE
8
BLACK
6
CONTINUOUS
10
3.57878
20
0.808228
11
3.53941
21
0.808228
0
LINE
8
BLACK
6
CONTINUOUS
10
3.53941
20
0.808228
11
3.53941
21
0.957835
0
LINE
8
BLACK
6
CONTINUOUS
10
3.53941
20
0.957835
11
3.57878
21
0.957835
0
LINE
8
BLACK
6
CONTINUOUS
10
3.57878
20
0.957835
11
3.57878
21
0.808228
0
LINE
8
BLACK
6
CONTINUOUS
10
1.85437
20
0.808228
11
1.815
21
0.808228
0
LINE
8
BLACK
6
CONTINUOUS
10
1.815
20
0.808228
11
1.815
21
0.957835
0
LINE
8
BLACK
6
CONTINUOUS
10
1.815
20
0.957835
11
1.85437
21
0.957835
0
LINE
8
BLACK
6
CONTINUOUS
10
1.85437
20
0.957835
11
1.85437
21
0.808228
0
LINE
8
BLACK
6
CONTINUOUS
10
1.78244
20
0.81063
11
1.74307
21
0.81063
0
LINE
8
BLACK
6
CONTINUOUS
10
1.74307
20
0.81063
11
1.74307
21
0.960236
0
LINE
8
BLACK
6
CONTINUOUS
10
1.74307
20
0.960236
11
1.78244
21
0.960236
0
LINE
8
BLACK
6
CONTINUOUS
10
1.78244
20
0.960236
11
1.78244
21
0.81063
0
LINE
8
BLACK
6
CONTINUOUS
10
0.0580315
20
0.81063
11
0.0186614
21
0.81063
0
LINE
8
BLACK
6
CONTINUOUS
10
0.0186614
20
0.81063
11
0.0186614
21
0.960236
0
LINE
8
BLACK
6
CONTINUOUS
10
0.0186614
20
0.960236
11
0.0580315
21
0.960236
0
LINE
8
BLACK
6
CONTINUOUS
10
0.0580315
20
0.960236
11
0.0580315
21
0.81063
0
LINE
8
BLACK
6
CONTINUOUS
10
0.248799
20
0.812264
11
0.213799
21
0.812264
0
LINE
8
BLACK
6
CONTINUOUS
10
0.213799
20
0.812264
11
0.213799
21
0.867264
0
LINE
8
BLACK
6
CONTINUOUS
10
0.213799
20
0.867264
11
0.248799
21
0.867264
0
LINE
8
BLACK
6
CONTINUOUS
10
0.248799
20
0.867264
11
0.248799
21
0.812264
0
LINE
8
BLACK
6
CONTINUOUS
10
0.323799
20
0.812264
11
0.288799
21
0.812264
0
LINE
8
BLACK
6
CONTINUOUS
10
0.288799
20
0.812264
11
0.288799
21
0.867264
0
LINE
8
BLACK
6
CONTINUOUS
10
0.288799
20
0.867264
11
0.323799
21
0.867264
0
LINE
8
BLACK
6
CONTINUOUS
10
0.323799
20
0.867264
11
0.323799
21
0.812264
0
LINE
8
BLACK
6
CONTINUOUS
10
3.0575
20
0.83
11
3.0025
21
0.83
0
LINE
8
BLACK
6
CONTINUOUS
10
3.0025
20
0.83
11
3.0025
21
0.865
0
LINE
8
BLACK
6
CONTINUOUS
10
3.0025
20
0.865
11
3.0575
21
0.865
0
LINE
8
BLACK
6
CONTINUOUS
10
3.0575
20
0.865
11
3.0575
21
0.83
0
LINE
8
BLACK
6
CONTINUOUS
10
2.81555
20
0.833701
11
2.80571
21
0.833701
0
LINE
8
BLACK
6
CONTINUOUS
10
2.80571
20
0.833701
11
2.80571
21
0.877008
0
LINE
8
BLACK
6
CONTINUOUS
10
2.80571
20
0.877008
11
2.81555
21
0.877008
0
LINE
8
BLACK
6
CONTINUOUS
10
2.81555
20
0.877008
11
2.81555
21
0.833701
0
LINE
8
BLACK
6
CONTINUOUS
10
2.83524
20
0.833701
11
2.82539
21
0.833701
0
LINE
8
BLACK
6
CONTINUOUS
10
2.82539
20
0.833701
11
2.82539
21
0.877008
0
LINE
8
BLACK
6
CONTINUOUS
10
2.82539
20
0.877008
11
2.83524
21
0.877008
0
LINE
8
BLACK
6
CONTINUOUS
10
2.83524
20
0.877008
11
2.83524
21
0.833701
0
LINE
8
BLACK
6
CONTINUOUS
10
2.85492
20
0.833701
11
2.84508
21
0.833701
0
LINE
8
BLACK
6
CONTINUOUS
10
2.84508
20
0.833701
11
2.84508
21
0.877008
0
LINE
8
BLACK
6
CONTINUOUS
10
2.84508
20
0.877008
11
2.85492
21
0.877008
0
LINE
8
BLACK
6
CONTINUOUS
10
2.85492
20
0.877008
11
2.85492
21
0.833701
0
LINE
8
BLACK
6
CONTINUOUS
10
2.87461
20
0.833701
11
2.86476
21
0.833701
0
LINE
8
BLACK
6
CONTINUOUS
10
2.86476
20
0.833701
11
2.86476
21
0.877008
0
LINE
8
BLACK
6
CONTINUOUS
10
2.86476
20
0.877008
11
2.87461
21
0.877008
0
LINE
8
BLACK
6
CONTINUOUS
10
2.87461
20
0.877008
11
2.87461
21
0.833701
0
LINE
8
BLACK
6
CONTINUOUS
10
2.89429
20
0.833701
11
2.88445
21
0.833701
0
LINE
8
BLACK
6
CONTINUOUS
10
2.88445
20
0.833701
11
2.88445
21
0.877008
0
LINE
8
BLACK
6
CONTINUOUS
10
2.88445
20
0.877008
11
2.89429
21
0.877008
0
LINE
8
BLACK
6
CONTINUOUS
10
2.89429
20
0.877008
11
2.89429
21
0.833701
0
LINE
8
BLACK
6
CONTINUOUS
10
1.4338
20
0.834764
11
1.3788
21
0.834764
0
LINE
8
BLACK
6
CONTINUOUS
10
1.3788
20
0.834764
11
1.3788
21
0.869764
0
LINE
8
BLACK
6
CONTINUOUS
10
1.3788
20
0.869764
11
1.4338
21
0.869764
0
LINE
8
BLACK
6
CONTINUOUS
10
1.4338
20
0.869764
11
1.4338
21
0.834764
0
LINE
8
BLACK
6
CONTINUOUS
10
1.60886
20
0.83937
11
1.54744
21
0.83937
0
LINE
8
BLACK
6
CONTINUOUS
10
1.54744
20
0.83937
11
1.54744
21
0.864961
0
LINE
8
BLACK
6
CONTINUOUS
10
1.54744
20
0.864961
11
1.60886
21
0.864961
0
LINE
8
BLACK
6
CONTINUOUS
10
1.60886
20
0.864961
11
1.60886
21
0.83937
0
LINE
8
BLACK
6
CONTINUOUS
10
1.71516
20
0.83937
11
1.65374
21
0.83937
0
LINE
8
BLACK
6
CONTINUOUS
10
1.65374
20
0.83937
11
1.65374
21
0.864961
0
LINE
8
BLACK
6
CONTINUOUS
10
1.65374
20
0.864961
11
1.71516
21
0.864961
0
LINE
8
BLACK
6
CONTINUOUS
10
1.71516
20
0.864961
11
1.71516
21
0.83937
0
LINE
8
BLACK
6
CONTINUOUS
10
2.555
20
0.8475
11
2.52
21
0.8475
0
LINE
8
BLACK
6
CONTINUOUS
10
2.52
20
0.8475
11
2.52
21
0.9025
0
LINE
8
BLACK
6
CONTINUOUS
10
2.52
20
0.9025
11
2.555
21
0.9025
0
LINE
8
BLACK
6
CONTINUOUS
10
2.555
20
0.9025
11
2.555
21
0.8475
0
LINE
8
BLACK
6
CONTINUOUS
10
2.48
20
0.8475
11
2.445
21
0.8475
0
LINE
8
BLACK
6
CONTINUOUS
10
2.445
20
0.8475
11
2.445
21
0.9025
0
LINE
8
BLACK
6
CONTINUOUS
10
2.445
20
0.9025
11
2.48
21
0.9025
0
LINE
8
BLACK
6
CONTINUOUS
10
2.48
20
0.9025
11
2.48
21
0.8475
0
LINE
8
BLACK
6
CONTINUOUS
10
1.0038
20
0.882264
11
0.948799
21
0.882264
0
LINE
8
BLACK
6
CONTINUOUS
10
0.948799
20
0.882264
11
0.948799
21
0.917264
0
LINE
8
BLACK
6
CONTINUOUS
10
0.948799
20
0.917264
11
1.0038
21
0.917264
0
LINE
8
BLACK
6
CONTINUOUS
10
1.0038
20
0.917264
11
1.0038
21
0.882264
0
LINE
8
BLACK
6
CONTINUOUS
10
0.723799
20
0.882264
11
0.668799
21
0.882264
0
LINE
8
BLACK
6
CONTINUOUS
10
0.668799
20
0.882264
11
0.668799
21
0.917264
0
LINE
8
BLACK
6
CONTINUOUS
10
0.668799
20
0.917264
11
0.723799
21
0.917264
0
LINE
8
BLACK
6
CONTINUOUS
10
0.723799
20
0.917264
11
0.723799
21
0.882264
0
LINE
8
BLACK
6
CONTINUOUS
10
1.0938
20
0.882264
11
1.0388
21
0.882264
0
LINE
8
BLACK
6
CONTINUOUS
10
1.0388
20
0.882264
11
1.0388
21
0.917264
0
LINE
8
BLACK
6
CONTINUOUS
10
1.0388
20
0.917264
11
1.0938
21
0.917264
0
LINE
8
BLACK
6
CONTINUOUS
10
1.0938
20
0.917264
11
1.0938
21
0.882264
0
LINE
8
BLACK
6
CONTINUOUS
10
0.803799
20
0.882264
11
0.748799
21
0.882264
0
LINE
8
BLACK
6
CONTINUOUS
10
0.748799
20
0.882264
11
0.748799
21
0.917264
0
LINE
8
BLACK
6
CONTINUOUS
10
0.748799
20
0.917264
11
0.803799
21
0.917264
0
LINE
8
BLACK
6
CONTINUOUS
10
0.803799
20
0.917264
11
0.803799
21
0.882264
0
LINE
8
BLACK
6
CONTINUOUS
10
3.265
20
0.8925
11
3.23
21
0.8925
0
LINE
8
BLACK
6
CONTINUOUS
10
3.23
20
0.8925
11
3.23
21
0.9475
0
LINE
8
BLACK
6
CONTINUOUS
10
3.23
20
0.9475
11
3.265
21
0.9475
0
LINE
8
BLACK
6
CONTINUOUS
10
3.265
20
0.9475
11
3.265
21
0.8925
0
LINE
8
BLACK
6
CONTINUOUS
10
3.19
20
0.8925
11
3.155
21
0.8925
0
LINE
8
BLACK
6
CONTINUOUS
10
3.155
20
0.8925
11
3.155
21
0.9475
0
LINE
8
BLACK
6
CONTINUOUS
10
3.155
20
0.9475
11
3.19
21
0.9475
0
LINE
8
BLACK
6
CONTINUOUS
10
3.19
20
0.9475
11
3.19
21
0.8925
0
LINE
8
BLACK
6
CONTINUOUS
10
2.005
20
0.9
11
1.945
21
0.9
0
LINE
8
BLACK
6
CONTINUOUS
10
1.945
20
0.9
11
1.945
21
0.96
0
LINE
8
BLACK
6
CONTINUOUS
10
1.945
20
0.96
11
2.005
21
0.96
0
LINE
8
BLACK
6
CONTINUOUS
10
2.005
20
0.96
11
2.005
21
0.9
0
LINE
8
BLACK
6
CONTINUOUS
10
2.105
20
0.9
11
2.045
21
0.9
0
LINE
8
BLACK
6
CONTINUOUS
10
2.045
20
0.9
11
2.045
21
0.96
0
LINE
8
BLACK
6
CONTINUOUS
10
2.045
20
0.96
11
2.105
21
0.96
0
LINE
8
BLACK
6
CONTINUOUS
10
2.105
20
0.96
11
2.105
21
0.9
0
LINE
8
BLACK
6
CONTINUOUS
10
3.0575
20
0.905
11
3.0025
21
0.905
0
LINE
8
BLACK
6
CONTINUOUS
10
3.0025
20
0.905
11
3.0025
21
0.94
0
LINE
8
BLACK
6
CONTINUOUS
10
3.0025
20
0.94
11
3.0575
21
0.94
0
LINE
8
BLACK
6
CONTINUOUS
10
3.0575
20
0.94
11
3.0575
21
0.905
0
LINE
8
BLACK
6
CONTINUOUS
10
1.7088
20
0.909764
11
1.6538
21
0.909764
0
LINE
8
BLACK
6
CONTINUOUS
10
1.6538
20
0.909764
11
1.6538
21
0.944764
0
LINE
8
BLACK
6
CONTINUOUS
10
1.6538
20
0.944764
11
1.7088
21
0.944764
0
LINE
8
BLACK
6
CONTINUOUS
10
1.7088
20
0.944764
11
1.7088
21
0.909764
0
LINE
8
BLACK
6
CONTINUOUS
10
0.323799
20
0.912264
11
0.288799
21
0.912264
0
LINE
8
BLACK
6
CONTINUOUS
10
0.288799
20
0.912264
11
0.288799
21
0.967264
0
LINE
8
BLACK
6
CONTINUOUS
10
0.288799
20
0.967264
11
0.323799
21
0.967264
0
LINE
8
BLACK
6
CONTINUOUS
10
0.323799
20
0.967264
11
0.323799
21
0.912264
0
LINE
8
BLACK
6
CONTINUOUS
10
0.248799
20
0.912264
11
0.213799
21
0.912264
0
LINE
8
BLACK
6
CONTINUOUS
10
0.213799
20
0.912264
11
0.213799
21
0.967264
0
LINE
8
BLACK
6
CONTINUOUS
10
0.213799
20
0.967264
11
0.248799
21
0.967264
0
LINE
8
BLACK
6
CONTINUOUS
10
0.248799
20
0.967264
11
0.248799
21
0.912264
0
LINE
8
BLACK
6
CONTINUOUS
10
0.461299
20
0.912264
11
0.426299
21
0.912264
0
LINE
8
BLACK
6
CONTINUOUS
10
0.426299
20
0.912264
11
0.426299
21
0.967264
0
LINE
8
BLACK
6
CONTINUOUS
10
0.426299
20
0.967264
11
0.461299
21
0.967264
0
LINE
8
BLACK
6
CONTINUOUS
10
0.461299
20
0.967264
11
0.461299
21
0.912264
0
LINE
8
BLACK
6
CONTINUOUS
10
0.386299
20
0.912264
11
0.351299
21
0.912264
0
LINE
8
BLACK
6
CONTINUOUS
10
0.351299
20
0.912264
11
0.351299
21
0.967264
0
LINE
8
BLACK
6
CONTINUOUS
10
0.351299
20
0.967264
11
0.386299
21
0.967264
0
LINE
8
BLACK
6
CONTINUOUS
10
0.386299
20
0.967264
11
0.386299
21
0.912264
0
LINE
8
BLACK
6
CONTINUOUS
10
0.633799
20
0.922264
11
0.578799
21
0.922264
0
LINE
8
BLACK
6
CONTINUOUS
10
0.578799
20
0.922264
11
0.578799
21
0.957264
0
LINE
8
BLACK
6
CONTINUOUS
10
0.578799
20
0.957264
11
0.633799
21
0.957264
0
LINE
8
BLACK
6
CONTINUOUS
10
0.633799
20
0.957264
11
0.633799
21
0.922264
0
LINE
8
BLACK
6
CONTINUOUS
10
1.42311
20
0.922953
11
1.36209
21
0.922953
0
LINE
8
BLACK
6
CONTINUOUS
10
1.36209
20
0.922953
11
1.36209
21
0.946575
0
LINE
8
BLACK
6
CONTINUOUS
10
1.36209
20
0.946575
11
1.42311
21
0.946575
0
LINE
8
BLACK
6
CONTINUOUS
10
1.42311
20
0.946575
11
1.42311
21
0.922953
0
LINE
8
BLACK
6
CONTINUOUS
10
1.21051
20
0.922953
11
1.14949
21
0.922953
0
LINE
8
BLACK
6
CONTINUOUS
10
1.14949
20
0.922953
11
1.14949
21
0.946575
0
LINE
8
BLACK
6
CONTINUOUS
10
1.14949
20
0.946575
11
1.21051
21
0.946575
0
LINE
8
BLACK
6
CONTINUOUS
10
1.21051
20
0.946575
11
1.21051
21
0.922953
0
LINE
8
BLACK
6
CONTINUOUS
10
1.6038
20
0.924764
11
1.5488
21
0.924764
0
LINE
8
BLACK
6
CONTINUOUS
10
1.5488
20
0.924764
11
1.5488
21
0.959764
0
LINE
8
BLACK
6
CONTINUOUS
10
1.5488
20
0.959764
11
1.6038
21
0.959764
0
LINE
8
BLACK
6
CONTINUOUS
10
1.6038
20
0.959764
11
1.6038
21
0.924764
0
LINE
8
BLACK
6
CONTINUOUS
10
1.5138
20
0.924764
11
1.4588
21
0.924764
0
LINE
8
BLACK
6
CONTINUOUS
10
1.4588
20
0.924764
11
1.4588
21
0.959764
0
LINE
8
BLACK
6
CONTINUOUS
10
1.4588
20
0.959764
11
1.5138
21
0.959764
0
LINE
8
BLACK
6
CONTINUOUS
10
1.5138
20
0.959764
11
1.5138
21
0.924764
0
LINE
8
BLACK
6
CONTINUOUS
10
2.65846
20
0.952362
11
2.63681
21
0.952362
0
LINE
8
BLACK
6
CONTINUOUS
10
2.63681
20
0.952362
11
2.63681
21
1.01142
0
LINE
8
BLACK
6
CONTINUOUS
10
2.63681
20
1.01142
11
2.65846
21
1.01142
0
LINE
8
BLACK
6
CONTINUOUS
10
2.65846
20
1.01142
11
2.65846
21
0.952362
0
LINE
8
BLACK
6
CONTINUOUS
10
2.62697
20
0.952362
11
2.60531
21
0.952362
0
LINE
8
BLACK
6
CONTINUOUS
10
2.60531
20
0.952362
11
2.60531
21
1.01142
0
LINE
8
BLACK
6
CONTINUOUS
10
2.60531
20
1.01142
11
2.62697
21
1.01142
0
LINE
8
BLACK
6
CONTINUOUS
10
2.62697
20
1.01142
11
2.62697
21
0.952362
0
LINE
8
BLACK
6
CONTINUOUS
10
2.3435
20
0.952362
11
2.32185
21
0.952362
0
LINE
8
BLACK
6
CONTINUOUS
10
2.32185
20
0.952362
11
2.32185
21
1.01142
0
LINE
8
BLACK
6
CONTINUOUS
10
2.32185
20
1.01142
11
2.3435
21
1.01142
0
LINE
8
BLACK
6
CONTINUOUS
10
2.3435
20
1.01142
11
2.3435
21
0.952362
0
LINE
8
BLACK
6
CONTINUOUS
10
2.375
20
0.952362
11
2.35335
21
0.952362
0
LINE
8
BLACK
6
CONTINUOUS
10
2.35335
20
0.952362
11
2.35335
21
1.01142
0
LINE
8
BLACK
6
CONTINUOUS
10
2.35335
20
1.01142
11
2.375
21
1.01142
0
LINE
8
BLACK
6
CONTINUOUS
10
2.375
20
1.01142
11
2.375
21
0.952362
0
LINE
8
BLACK
6
CONTINUOUS
10
2.4065
20
0.952362
11
2.38484
21
0.952362
0
LINE
8
BLACK
6
CONTINUOUS
10
2.38484
20
0.952362
11
2.38484
21
1.01142
0
LINE
8
BLACK
6
CONTINUOUS
10
2.38484
20
1.01142
11
2.4065
21
1.01142
0
LINE
8
BLACK
6
CONTINUOUS
10
2.4065
20
1.01142
11
2.4065
21
0.952362
0
LINE
8
BLACK
6
CONTINUOUS
10
2.56398
20
0.952362
11
2.54232
21
0.952362
0
LINE
8
BLACK
6
CONTINUOUS
10
2.54232
20
0.952362
11
2.54232
21
1.01142
0
LINE
8
BLACK
6
CONTINUOUS
10
2.54232
20
1.01142
11
2.56398
21
1.01142
0
LINE
8
BLACK
6
CONTINUOUS
10
2.56398
20
1.01142
11
2.56398
21
0.952362
0
LINE
8
BLACK
6
CONTINUOUS
10
2.43799
20
0.952362
11
2.41634
21
0.952362
0
LINE
8
BLACK
6
CONTINUOUS
10
2.41634
20
0.952362
11
2.41634
21
1.01142
0
LINE
8
BLACK
6
CONTINUOUS
10
2.41634
20
1.01142
11
2.43799
21
1.01142
0
LINE
8
BLACK
6
CONTINUOUS
10
2.43799
20
1.01142
11
2.43799
21
0.952362
0
LINE
8
BLACK
6
CONTINUOUS
10
2.46949
20
0.952362
11
2.44783
21
0.952362
0
LINE
8
BLACK
6
CONTINUOUS
10
2.44783
20
0.952362
11
2.44783
21
1.01142
0
LINE
8
BLACK
6
CONTINUOUS
10
2.44783
20
1.01142
11
2.46949
21
1.01142
0
LINE
8
BLACK
6
CONTINUOUS
10
2.46949
20
1.01142
11
2.46949
21
0.952362
0
LINE
8
BLACK
6
CONTINUOUS
10
2.59547
20
0.952362
11
2.57382
21
0.952362
0
LINE
8
BLACK
6
CONTINUOUS
10
2.57382
20
0.952362
11
2.57382
21
1.01142
0
LINE
8
BLACK
6
CONTINUOUS
10
2.57382
20
1.01142
11
2.59547
21
1.01142
0
LINE
8
BLACK
6
CONTINUOUS
10
2.59547
20
1.01142
11
2.59547
21
0.952362
0
LINE
8
BLACK
6
CONTINUOUS
10
2.50098
20
0.952362
11
2.47933
21
0.952362
0
LINE
8
BLACK
6
CONTINUOUS
10
2.47933
20
0.952362
11
2.47933
21
1.01142
0
LINE
8
BLACK
6
CONTINUOUS
10
2.47933
20
1.01142
11
2.50098
21
1.01142
0
LINE
8
BLACK
6
CONTINUOUS
10
2.50098
20
1.01142
11
2.50098
21
0.952362
0
LINE
8
BLACK
6
CONTINUOUS
10
2.53248
20
0.952362
11
2.51083
21
0.952362
0
LINE
8
BLACK
6
CONTINUOUS
10
2.51083
20
0.952362
11
2.51083
21
1.01142
0
LINE
8
BLACK
6
CONTINUOUS
10
2.51083
20
1.01142
11
2.53248
21
1.01142
0
LINE
8
BLACK
6
CONTINUOUS
10
2.53248
20
1.01142
11
2.53248
21
0.952362
0
LINE
8
BLACK
6
CONTINUOUS
10
0.803799
20
0.957264
11
0.748799
21
0.957264
0
LINE
8
BLACK
6
CONTINUOUS
10
0.748799
20
0.957264
11
0.748799
21
0.992264
0
LINE
8
BLACK
6
CONTINUOUS
10
0.748799
20
0.992264
11
0.803799
21
0.992264
0
LINE
8
BLACK
6
CONTINUOUS
10
0.803799
20
0.992264
11
0.803799
21
0.957264
0
LINE
8
BLACK
6
CONTINUOUS
10
0.723799
20
0.957264
11
0.668799
21
0.957264
0
LINE
8
BLACK
6
CONTINUOUS
10
0.668799
20
0.957264
11
0.668799
21
0.992264
0
LINE
8
BLACK
6
CONTINUOUS
10
0.668799
20
0.992264
11
0.723799
21
0.992264
0
LINE
8
BLACK
6
CONTINUOUS
10
0.723799
20
0.992264
11
0.723799
21
0.957264
0
LINE
8
BLACK
6
CONTINUOUS
10
1.0938
20
0.957264
11
1.0388
21
0.957264
0
LINE
8
BLACK
6
CONTINUOUS
10
1.0388
20
0.957264
11
1.0388
21
0.992264
0
LINE
8
BLACK
6
CONTINUOUS
10
1.0388
20
0.992264
11
1.0938
21
0.992264
0
LINE
8
BLACK
6
CONTINUOUS
10
1.0938
20
0.992264
11
1.0938
21
0.957264
0
LINE
8
BLACK
6
CONTINUOUS
10
1.0038
20
0.957264
11
0.948799
21
0.957264
0
LINE
8
BLACK
6
CONTINUOUS
10
0.948799
20
0.957264
11
0.948799
21
0.992264
0
LINE
8
BLACK
6
CONTINUOUS
10
0.948799
20
0.992264
11
1.0038
21
0.992264
0
LINE
8
BLACK
6
CONTINUOUS
10
1.0038
20
0.992264
11
1.0038
21
0.957264
0
LINE
8
BLACK
6
CONTINUOUS
10
1.21051
20
0.972953
11
1.14949
21
0.972953
0
LINE
8
BLACK
6
CONTINUOUS
10
1.14949
20
0.972953
11
1.14949
21
0.996575
0
LINE
8
BLACK
6
CONTINUOUS
10
1.14949
20
0.996575
11
1.21051
21
0.996575
0
LINE
8
BLACK
6
CONTINUOUS
10
1.21051
20
0.996575
11
1.21051
21
0.972953
0
LINE
8
BLACK
6
CONTINUOUS
10
1.42311
20
0.972953
11
1.36209
21
0.972953
0
LINE
8
BLACK
6
CONTINUOUS
10
1.36209
20
0.972953
11
1.36209
21
0.996575
0
LINE
8
BLACK
6
CONTINUOUS
10
1.36209
20
0.996575
11
1.42311
21
0.996575
0
LINE
8
BLACK
6
CONTINUOUS
10
1.42311
20
0.996575
11
1.42311
21
0.972953
0
LINE
8
BLACK
6
CONTINUOUS
10
3.125
20
0.9825
11
3.09
21
0.9825
0
LINE
8
BLACK
6
CONTINUOUS
10
3.09
20
0.9825
11
3.09
21
1.0375
0
LINE
8
BLACK
6
CONTINUOUS
10
3.09
20
1.0375
11
3.125
21
1.0375
0
LINE
8
BLACK
6
CONTINUOUS
10
3.125
20
1.0375
11
3.125
21
0.9825
0
LINE
8
BLACK
6
CONTINUOUS
10
3.2
20
0.9825
11
3.165
21
0.9825
0
LINE
8
BLACK
6
CONTINUOUS
10
3.165
20
0.9825
11
3.165
21
1.0375
0
LINE
8
BLACK
6
CONTINUOUS
10
3.165
20
1.0375
11
3.2
21
1.0375
0
LINE
8
BLACK
6
CONTINUOUS
10
3.2
20
1.0375
11
3.2
21
0.9825
0
LINE
8
BLACK
6
CONTINUOUS
10
1.7088
20
0.984764
11
1.6538
21
0.984764
0
LINE
8
BLACK
6
CONTINUOUS
10
1.6538
20
0.984764
11
1.6538
21
1.01976
0
LINE
8
BLACK
6
CONTINUOUS
10
1.6538
20
1.01976
11
1.7088
21
1.01976
0
LINE
8
BLACK
6
CONTINUOUS
10
1.7088
20
1.01976
11
1.7088
21
0.984764
0
LINE
8
BLACK
6
CONTINUOUS
10
2.98
20
0.9925
11
2.945
21
0.9925
0
LINE
8
BLACK
6
CONTINUOUS
10
2.945
20
0.9925
11
2.945
21
1.0475
0
LINE
8
BLACK
6
CONTINUOUS
10
2.945
20
1.0475
11
2.98
21
1.0475
0
LINE
8
BLACK
6
CONTINUOUS
10
2.98
20
1.0475
11
2.98
21
0.9925
0
LINE
8
BLACK
6
CONTINUOUS
10
3.055
20
0.9925
11
3.02
21
0.9925
0
LINE
8
BLACK
6
CONTINUOUS
10
3.02
20
0.9925
11
3.02
21
1.0475
0
LINE
8
BLACK
6
CONTINUOUS
10
3.02
20
1.0475
11
3.055
21
1.0475
0
LINE
8
BLACK
6
CONTINUOUS
10
3.055
20
1.0475
11
3.055
21
0.9925
0
LINE
8
BLACK
6
CONTINUOUS
10
0.633799
20
0.997264
11
0.578799
21
0.997264
0
LINE
8
BLACK
6
CONTINUOUS
10
0.578799
20
0.997264
11
0.578799
21
1.03226
0
LINE
8
BLACK
6
CONTINUOUS
10
0.578799
20
1.03226
11
0.633799
21
1.03226
0
LINE
8
BLACK
6
CONTINUOUS
10
0.633799
20
1.03226
11
0.633799
21
0.997264
0
LINE
8
BLACK
6
CONTINUOUS
10
1.6038
20
0.999764
11
1.5488
21
0.999764
0
LINE
8
BLACK
6
CONTINUOUS
10
1.5488
20
0.999764
11
1.5488
21
1.03476
0
LINE
8
BLACK
6
CONTINUOUS
10
1.5488
20
1.03476
11
1.6038
21
1.03476
0
LINE
8
BLACK
6
CONTINUOUS
10
1.6038
20
1.03476
11
1.6038
21
0.999764
0
LINE
8
BLACK
6
CONTINUOUS
10
1.5138
20
0.999764
11
1.4588
21
0.999764
0
LINE
8
BLACK
6
CONTINUOUS
10
1.4588
20
0.999764
11
1.4588
21
1.03476
0
LINE
8
BLACK
6
CONTINUOUS
10
1.4588
20
1.03476
11
1.5138
21
1.03476
0
LINE
8
BLACK
6
CONTINUOUS
10
1.5138
20
1.03476
11
1.5138
21
0.999764
0
LINE
8
BLACK
6
CONTINUOUS
10
2.105
20
1
11
2.045
21
1
0
LINE
8
BLACK
6
CONTINUOUS
10
2.045
20
1
11
2.045
21
1.06
0
LINE
8
BLACK
6
CONTINUOUS
10
2.045
20
1.06
11
2.105
21
1.06
0
LINE
8
BLACK
6
CONTINUOUS
10
2.105
20
1.06
11
2.105
21
1
0
LINE
8
BLACK
6
CONTINUOUS
10
2.005
20
1
11
1.945
21
1
0
LINE
8
BLACK
6
CONTINUOUS
10
1.945
20
1
11
1.945
21
1.06
0
LINE
8
BLACK
6
CONTINUOUS
10
1.945
20
1.06
11
2.005
21
1.06
0
LINE
8
BLACK
6
CONTINUOUS
10
2.005
20
1.06
11
2.005
21
1
0
LINE
8
BLACK
6
CONTINUOUS
10
0.54311
20
1.00295
11
0.482087
21
1.00295
0
LINE
8
BLACK
6
CONTINUOUS
10
0.482087
20
1.00295
11
0.482087
21
1.02657
0
LINE
8
BLACK
6
CONTINUOUS
10
0.482087
20
1.02657
11
0.54311
21
1.02657
0
LINE
8
BLACK
6
CONTINUOUS
10
0.54311
20
1.02657
11
0.54311
21
1.00295
0
LINE
8
BLACK
6
CONTINUOUS
10
0.330512
20
1.00295
11
0.269488
21
1.00295
0
LINE
8
BLACK
6
CONTINUOUS
10
0.269488
20
1.00295
11
0.269488
21
1.02657
0
LINE
8
BLACK
6
CONTINUOUS
10
0.269488
20
1.02657
11
0.330512
21
1.02657
0
LINE
8
BLACK
6
CONTINUOUS
10
0.330512
20
1.02657
11
0.330512
21
1.00295
0
LINE
8
BLACK
6
CONTINUOUS
10
2.83524
20
1.00299
11
2.82539
21
1.00299
0
LINE
8
BLACK
6
CONTINUOUS
10
2.82539
20
1.00299
11
2.82539
21
1.0463
0
LINE
8
BLACK
6
CONTINUOUS
10
2.82539
20
1.0463
11
2.83524
21
1.0463
0
LINE
8
BLACK
6
CONTINUOUS
10
2.83524
20
1.0463
11
2.83524
21
1.00299
0
LINE
8
BLACK
6
CONTINUOUS
10
2.89429
20
1.00299
11
2.88445
21
1.00299
0
LINE
8
BLACK
6
CONTINUOUS
10
2.88445
20
1.00299
11
2.88445
21
1.0463
0
LINE
8
BLACK
6
CONTINUOUS
10
2.88445
20
1.0463
11
2.89429
21
1.0463
0
LINE
8
BLACK
6
CONTINUOUS
10
2.89429
20
1.0463
11
2.89429
21
1.00299
0
LINE
8
BLACK
6
CONTINUOUS
10
2.87461
20
1.00299
11
2.86476
21
1.00299
0
LINE
8
BLACK
6
CONTINUOUS
10
2.86476
20
1.00299
11
2.86476
21
1.0463
0
LINE
8
BLACK
6
CONTINUOUS
10
2.86476
20
1.0463
11
2.87461
21
1.0463
0
LINE
8
BLACK
6
CONTINUOUS
10
2.87461
20
1.0463
11
2.87461
21
1.00299
0
LINE
8
BLACK
6
CONTINUOUS
10
2.85492
20
1.00299
11
2.84508
21
1.00299
0
LINE
8
BLACK
6
CONTINUOUS
10
2.84508
20
1.00299
11
2.84508
21
1.0463
0
LINE
8
BLACK
6
CONTINUOUS
10
2.84508
20
1.0463
11
2.85492
21
1.0463
0
LINE
8
BLACK
6
CONTINUOUS
10
2.85492
20
1.0463
11
2.85492
21
1.00299
0
LINE
8
BLACK
6
CONTINUOUS
10
2.81555
20
1.00299
11
2.80571
21
1.00299
0
LINE
8
BLACK
6
CONTINUOUS
10
2.80571
20
1.00299
11
2.80571
21
1.0463
0
LINE
8
BLACK
6
CONTINUOUS
10
2.80571
20
1.0463
11
2.81555
21
1.0463
0
LINE
8
BLACK
6
CONTINUOUS
10
2.81555
20
1.0463
11
2.81555
21
1.00299
0
LINE
8
BLACK
6
CONTINUOUS
10
0.733799
20
1.02226
11
0.678799
21
1.02226
0
LINE
8
BLACK
6
CONTINUOUS
10
0.678799
20
1.02226
11
0.678799
21
1.05726
0
LINE
8
BLACK
6
CONTINUOUS
10
0.678799
20
1.05726
11
0.733799
21
1.05726
0
LINE
8
BLACK
6
CONTINUOUS
10
0.733799
20
1.05726
11
0.733799
21
1.02226
0
LINE
8
BLACK
6
CONTINUOUS
10
0.823799
20
1.02226
11
0.768799
21
1.02226
0
LINE
8
BLACK
6
CONTINUOUS
10
0.768799
20
1.02226
11
0.768799
21
1.05726
0
LINE
8
BLACK
6
CONTINUOUS
10
0.768799
20
1.05726
11
0.823799
21
1.05726
0
LINE
8
BLACK
6
CONTINUOUS
10
0.823799
20
1.05726
11
0.823799
21
1.02226
0
LINE
8
BLACK
6
CONTINUOUS
10
1.21051
20
1.02295
11
1.14949
21
1.02295
0
LINE
8
BLACK
6
CONTINUOUS
10
1.14949
20
1.02295
11
1.14949
21
1.04657
0
LINE
8
BLACK
6
CONTINUOUS
10
1.14949
20
1.04657
11
1.21051
21
1.04657
0
LINE
8
BLACK
6
CONTINUOUS
10
1.21051
20
1.04657
11
1.21051
21
1.02295
0
LINE
8
BLACK
6
CONTINUOUS
10
1.42311
20
1.02295
11
1.36209
21
1.02295
0
LINE
8
BLACK
6
CONTINUOUS
10
1.36209
20
1.02295
11
1.36209
21
1.04657
0
LINE
8
BLACK
6
CONTINUOUS
10
1.36209
20
1.04657
11
1.42311
21
1.04657
0
LINE
8
BLACK
6
CONTINUOUS
10
1.42311
20
1.04657
11
1.42311
21
1.02295
0
LINE
8
BLACK
6
CONTINUOUS
10
1.0038
20
1.02726
11
0.948799
21
1.02726
0
LINE
8
BLACK
6
CONTINUOUS
10
0.948799
20
1.02726
11
0.948799
21
1.06226
0
LINE
8
BLACK
6
CONTINUOUS
10
0.948799
20
1.06226
11
1.0038
21
1.06226
0
LINE
8
BLACK
6
CONTINUOUS
10
1.0038
20
1.06226
11
1.0038
21
1.02726
0
LINE
8
BLACK
6
CONTINUOUS
10
0.923799
20
1.02726
11
0.868799
21
1.02726
0
LINE
8
BLACK
6
CONTINUOUS
10
0.868799
20
1.02726
11
0.868799
21
1.06226
0
LINE
8
BLACK
6
CONTINUOUS
10
0.868799
20
1.06226
11
0.923799
21
1.06226
0
LINE
8
BLACK
6
CONTINUOUS
10
0.923799
20
1.06226
11
0.923799
21
1.02726
0
LINE
8
BLACK
6
CONTINUOUS
10
2.29528
20
1.03799
11
2.23622
21
1.03799
0
LINE
8
BLACK
6
CONTINUOUS
10
2.23622
20
1.03799
11
2.23622
21
1.05965
0
LINE
8
BLACK
6
CONTINUOUS
10
2.23622
20
1.05965
11
2.29528
21
1.05965
0
LINE
8
BLACK
6
CONTINUOUS
10
2.29528
20
1.05965
11
2.29528
21
1.03799
0
LINE
8
BLACK
6
CONTINUOUS
10
2.74409
20
1.03799
11
2.68504
21
1.03799
0
LINE
8
BLACK
6
CONTINUOUS
10
2.68504
20
1.03799
11
2.68504
21
1.05965
0
LINE
8
BLACK
6
CONTINUOUS
10
2.68504
20
1.05965
11
2.74409
21
1.05965
0
LINE
8
BLACK
6
CONTINUOUS
10
2.74409
20
1.05965
11
2.74409
21
1.03799
0
LINE
8
BLACK
6
CONTINUOUS
10
1.85437
20
1.04445
11
1.815
21
1.04445
0
LINE
8
BLACK
6
CONTINUOUS
10
1.815
20
1.04445
11
1.815
21
1.19406
0
LINE
8
BLACK
6
CONTINUOUS
10
1.815
20
1.19406
11
1.85437
21
1.19406
0
LINE
8
BLACK
6
CONTINUOUS
10
1.85437
20
1.19406
11
1.85437
21
1.04445
0
LINE
8
BLACK
6
CONTINUOUS
10
3.57878
20
1.04445
11
3.53941
21
1.04445
0
LINE
8
BLACK
6
CONTINUOUS
10
3.53941
20
1.04445
11
3.53941
21
1.19406
0
LINE
8
BLACK
6
CONTINUOUS
10
3.53941
20
1.19406
11
3.57878
21
1.19406
0
LINE
8
BLACK
6
CONTINUOUS
10
3.57878
20
1.19406
11
3.57878
21
1.04445
0
LINE
8
BLACK
6
CONTINUOUS
10
0.0580315
20
1.04685
11
0.0186614
21
1.04685
0
LINE
8
BLACK
6
CONTINUOUS
10
0.0186614
20
1.04685
11
0.0186614
21
1.19646
0
LINE
8
BLACK
6
CONTINUOUS
10
0.0186614
20
1.19646
11
0.0580315
21
1.19646
0
LINE
8
BLACK
6
CONTINUOUS
10
0.0580315
20
1.19646
11
0.0580315
21
1.04685
0
LINE
8
BLACK
6
CONTINUOUS
10
1.78244
20
1.04685
11
1.74307
21
1.04685
0
LINE
8
BLACK
6
CONTINUOUS
10
1.74307
20
1.04685
11
1.74307
21
1.19646
0
LINE
8
BLACK
6
CONTINUOUS
10
1.74307
20
1.19646
11
1.78244
21
1.19646
0
LINE
8
BLACK
6
CONTINUOUS
10
1.78244
20
1.19646
11
1.78244
21
1.04685
0
LINE
8
BLACK
6
CONTINUOUS
10
0.330512
20
1.05295
11
0.269488
21
1.05295
0
LINE
8
BLACK
6
CONTINUOUS
10
0.269488
20
1.05295
11
0.269488
21
1.07657
0
LINE
8
BLACK
6
CONTINUOUS
10
0.269488
20
1.07657
11
0.330512
21
1.07657
0
LINE
8
BLACK
6
CONTINUOUS
10
0.330512
20
1.07657
11
0.330512
21
1.05295
0
LINE
8
BLACK
6
CONTINUOUS
10
0.54311
20
1.05295
11
0.482087
21
1.05295
0
LINE
8
BLACK
6
CONTINUOUS
10
0.482087
20
1.05295
11
0.482087
21
1.07657
0
LINE
8
BLACK
6
CONTINUOUS
10
0.482087
20
1.07657
11
0.54311
21
1.07657
0
LINE
8
BLACK
6
CONTINUOUS
10
0.54311
20
1.07657
11
0.54311
21
1.05295
0
LINE
8
BLACK
6
CONTINUOUS
10
1.1038
20
1.05976
11
1.0488
21
1.05976
0
LINE
8
BLACK
6
CONTINUOUS
10
1.0488
20
1.05976
11
1.0488
21
1.09476
0
LINE
8
BLACK
6
CONTINUOUS
10
1.0488
20
1.09476
11
1.1038
21
1.09476
0
LINE
8
BLACK
6
CONTINUOUS
10
1.1038
20
1.09476
11
1.1038
21
1.05976
0
LINE
8
BLACK
6
CONTINUOUS
10
3.25
20
1.0675
11
3.215
21
1.0675
0
LINE
8
BLACK
6
CONTINUOUS
10
3.215
20
1.0675
11
3.215
21
1.1225
0
LINE
8
BLACK
6
CONTINUOUS
10
3.215
20
1.1225
11
3.25
21
1.1225
0
LINE
8
BLACK
6
CONTINUOUS
10
3.25
20
1.1225
11
3.25
21
1.0675
0
LINE
8
BLACK
6
CONTINUOUS
10
3.175
20
1.0675
11
3.14
21
1.0675
0
LINE
8
BLACK
6
CONTINUOUS
10
3.14
20
1.0675
11
3.14
21
1.1225
0
LINE
8
BLACK
6
CONTINUOUS
10
3.14
20
1.1225
11
3.175
21
1.1225
0
LINE
8
BLACK
6
CONTINUOUS
10
3.175
20
1.1225
11
3.175
21
1.0675
0
LINE
8
BLACK
6
CONTINUOUS
10
2.74409
20
1.06949
11
2.68504
21
1.06949
0
LINE
8
BLACK
6
CONTINUOUS
10
2.68504
20
1.06949
11
2.68504
21
1.09114
0
LINE
8
BLACK
6
CONTINUOUS
10
2.68504
20
1.09114
11
2.74409
21
1.09114
0
LINE
8
BLACK
6
CONTINUOUS
10
2.74409
20
1.09114
11
2.74409
21
1.06949
0
LINE
8
BLACK
6
CONTINUOUS
10
2.29528
20
1.06949
11
2.23622
21
1.06949
0
LINE
8
BLACK
6
CONTINUOUS
10
2.23622
20
1.06949
11
2.23622
21
1.09114
0
LINE
8
BLACK
6
CONTINUOUS
10
2.23622
20
1.09114
11
2.29528
21
1.09114
0
LINE
8
BLACK
6
CONTINUOUS
10
2.29528
20
1.09114
11
2.29528
21
1.06949
0
LINE
8
BLACK
6
CONTINUOUS
10
1.5763
20
1.07226
11
1.5413
21
1.07226
0
LINE
8
BLACK
6
CONTINUOUS
10
1.5413
20
1.07226
11
1.5413
21
1.12726
0
LINE
8
BLACK
6
CONTINUOUS
10
1.5413
20
1.12726
11
1.5763
21
1.12726
0
LINE
8
BLACK
6
CONTINUOUS
10
1.5763
20
1.12726
11
1.5763
21
1.07226
0
LINE
8
BLACK
6
CONTINUOUS
10
1.6513
20
1.07226
11
1.6163
21
1.07226
0
LINE
8
BLACK
6
CONTINUOUS
10
1.6163
20
1.07226
11
1.6163
21
1.12726
0
LINE
8
BLACK
6
CONTINUOUS
10
1.6163
20
1.12726
11
1.6513
21
1.12726
0
LINE
8
BLACK
6
CONTINUOUS
10
1.6513
20
1.12726
11
1.6513
21
1.07226
0
LINE
8
BLACK
6
CONTINUOUS
10
1.21051
20
1.07295
11
1.14949
21
1.07295
0
LINE
8
BLACK
6
CONTINUOUS
10
1.14949
20
1.07295
11
1.14949
21
1.09657
0
LINE
8
BLACK
6
CONTINUOUS
10
1.14949
20
1.09657
11
1.21051
21
1.09657
0
LINE
8
BLACK
6
CONTINUOUS
10
1.21051
20
1.09657
11
1.21051
21
1.07295
0
LINE
8
BLACK
6
CONTINUOUS
10
1.42311
20
1.07295
11
1.36209
21
1.07295
0
LINE
8
BLACK
6
CONTINUOUS
10
1.36209
20
1.07295
11
1.36209
21
1.09657
0
LINE
8
BLACK
6
CONTINUOUS
10
1.36209
20
1.09657
11
1.42311
21
1.09657
0
LINE
8
BLACK
6
CONTINUOUS
10
1.42311
20
1.09657
11
1.42311
21
1.07295
0
LINE
8
BLACK
6
CONTINUOUS
10
1.5138
20
1.07476
11
1.4588
21
1.07476
0
LINE
8
BLACK
6
CONTINUOUS
10
1.4588
20
1.07476
11
1.4588
21
1.10976
0
LINE
8
BLACK
6
CONTINUOUS
10
1.4588
20
1.10976
11
1.5138
21
1.10976
0
LINE
8
BLACK
6
CONTINUOUS
10
1.5138
20
1.10976
11
1.5138
21
1.07476
0
LINE
8
BLACK
6
CONTINUOUS
10
3.0925
20
1.0875
11
3.0575
21
1.0875
0
LINE
8
BLACK
6
CONTINUOUS
10
3.0575
20
1.0875
11
3.0575
21
1.1425
0
LINE
8
BLACK
6
CONTINUOUS
10
3.0575
20
1.1425
11
3.0925
21
1.1425
0
LINE
8
BLACK
6
CONTINUOUS
10
3.0925
20
1.1425
11
3.0925
21
1.0875
0
LINE
8
BLACK
6
CONTINUOUS
10
3.0175
20
1.0875
11
2.9825
21
1.0875
0
LINE
8
BLACK
6
CONTINUOUS
10
2.9825
20
1.0875
11
2.9825
21
1.1425
0
LINE
8
BLACK
6
CONTINUOUS
10
2.9825
20
1.1425
11
3.0175
21
1.1425
0
LINE
8
BLACK
6
CONTINUOUS
10
3.0175
20
1.1425
11
3.0175
21
1.0875
0
LINE
8
BLACK
6
CONTINUOUS
10
0.823799
20
1.09726
11
0.768799
21
1.09726
0
LINE
8
BLACK
6
CONTINUOUS
10
0.768799
20
1.09726
11
0.768799
21
1.13226
0
LINE
8
BLACK
6
CONTINUOUS
10
0.768799
20
1.13226
11
0.823799
21
1.13226
0
LINE
8
BLACK
6
CONTINUOUS
10
0.823799
20
1.13226
11
0.823799
21
1.09726
0
LINE
8
BLACK
6
CONTINUOUS
10
0.733799
20
1.09726
11
0.678799
21
1.09726
0
LINE
8
BLACK
6
CONTINUOUS
10
0.678799
20
1.09726
11
0.678799
21
1.13226
0
LINE
8
BLACK
6
CONTINUOUS
10
0.678799
20
1.13226
11
0.733799
21
1.13226
0
LINE
8
BLACK
6
CONTINUOUS
10
0.733799
20
1.13226
11
0.733799
21
1.09726
0
LINE
8
BLACK
6
CONTINUOUS
10
2.105
20
1.1
11
2.045
21
1.1
0
LINE
8
BLACK
6
CONTINUOUS
10
2.045
20
1.1
11
2.045
21
1.16
0
LINE
8
BLACK
6
CONTINUOUS
10
2.045
20
1.16
11
2.105
21
1.16
0
LINE
8
BLACK
6
CONTINUOUS
10
2.105
20
1.16
11
2.105
21
1.1
0
LINE
8
BLACK
6
CONTINUOUS
10
2.005
20
1.1
11
1.945
21
1.1
0
LINE
8
BLACK
6
CONTINUOUS
10
1.945
20
1.1
11
1.945
21
1.16
0
LINE
8
BLACK
6
CONTINUOUS
10
1.945
20
1.16
11
2.005
21
1.16
0
LINE
8
BLACK
6
CONTINUOUS
10
2.005
20
1.16
11
2.005
21
1.1
0
LINE
8
BLACK
6
CONTINUOUS
10
2.74409
20
1.10098
11
2.68504
21
1.10098
0
LINE
8
BLACK
6
CONTINUOUS
10
2.68504
20
1.10098
11
2.68504
21
1.12264
0
LINE
8
BLACK
6
CONTINUOUS
10
2.68504
20
1.12264
11
2.74409
21
1.12264
0
LINE
8
BLACK
6
CONTINUOUS
10
2.74409
20
1.12264
11
2.74409
21
1.10098
0
LINE
8
BLACK
6
CONTINUOUS
10
2.29528
20
1.10098
11
2.23622
21
1.10098
0
LINE
8
BLACK
6
CONTINUOUS
10
2.23622
20
1.10098
11
2.23622
21
1.12264
0
LINE
8
BLACK
6
CONTINUOUS
10
2.23622
20
1.12264
11
2.29528
21
1.12264
0
LINE
8
BLACK
6
CONTINUOUS
10
2.29528
20
1.12264
11
2.29528
21
1.10098
0
LINE
8
BLACK
6
CONTINUOUS
10
1.0038
20
1.10226
11
0.948799
21
1.10226
0
LINE
8
BLACK
6
CONTINUOUS
10
0.948799
20
1.10226
11
0.948799
21
1.13726
0
LINE
8
BLACK
6
CONTINUOUS
10
0.948799
20
1.13726
11
1.0038
21
1.13726
0
LINE
8
BLACK
6
CONTINUOUS
10
1.0038
20
1.13726
11
1.0038
21
1.10226
0
LINE
8
BLACK
6
CONTINUOUS
10
0.923799
20
1.10226
11
0.868799
21
1.10226
0
LINE
8
BLACK
6
CONTINUOUS
10
0.868799
20
1.10226
11
0.868799
21
1.13726
0
LINE
8
BLACK
6
CONTINUOUS
10
0.868799
20
1.13726
11
0.923799
21
1.13726
0
LINE
8
BLACK
6
CONTINUOUS
10
0.923799
20
1.13726
11
0.923799
21
1.10226
0
LINE
8
BLACK
6
CONTINUOUS
10
0.54311
20
1.10295
11
0.482087
21
1.10295
0
LINE
8
BLACK
6
CONTINUOUS
10
0.482087
20
1.10295
11
0.482087
21
1.12657
0
LINE
8
BLACK
6
CONTINUOUS
10
0.482087
20
1.12657
11
0.54311
21
1.12657
0
LINE
8
BLACK
6
CONTINUOUS
10
0.54311
20
1.12657
11
0.54311
21
1.10295
0
LINE
8
BLACK
6
CONTINUOUS
10
0.330512
20
1.10295
11
0.269488
21
1.10295
0
LINE
8
BLACK
6
CONTINUOUS
10
0.269488
20
1.10295
11
0.269488
21
1.12657
0
LINE
8
BLACK
6
CONTINUOUS
10
0.269488
20
1.12657
11
0.330512
21
1.12657
0
LINE
8
BLACK
6
CONTINUOUS
10
0.330512
20
1.12657
11
0.330512
21
1.10295
0
LINE
8
BLACK
6
CONTINUOUS
10
2.9475
20
1.105
11
2.8925
21
1.105
0
LINE
8
BLACK
6
CONTINUOUS
10
2.8925
20
1.105
11
2.8925
21
1.14
0
LINE
8
BLACK
6
CONTINUOUS
10
2.8925
20
1.14
11
2.9475
21
1.14
0
LINE
8
BLACK
6
CONTINUOUS
10
2.9475
20
1.14
11
2.9475
21
1.105
0
LINE
8
BLACK
6
CONTINUOUS
10
2.8575
20
1.105
11
2.8025
21
1.105
0
LINE
8
BLACK
6
CONTINUOUS
10
2.8025
20
1.105
11
2.8025
21
1.14
0
LINE
8
BLACK
6
CONTINUOUS
10
2.8025
20
1.14
11
2.8575
21
1.14
0
LINE
8
BLACK
6
CONTINUOUS
10
2.8575
20
1.14
11
2.8575
21
1.105
0
LINE
8
BLACK
6
CONTINUOUS
10
0.233799
20
1.12226
11
0.178799
21
1.12226
0
LINE
8
BLACK
6
CONTINUOUS
10
0.178799
20
1.12226
11
0.178799
21
1.15726
0
LINE
8
BLACK
6
CONTINUOUS
10
0.178799
20
1.15726
11
0.233799
21
1.15726
0
LINE
8
BLACK
6
CONTINUOUS
10
0.233799
20
1.15726
11
0.233799
21
1.12226
0
LINE
8
BLACK
6
CONTINUOUS
10
2.29528
20
1.13248
11
2.23622
21
1.13248
0
LINE
8
BLACK
6
CONTINUOUS
10
2.23622
20
1.13248
11
2.23622
21
1.15413
0
LINE
8
BLACK
6
CONTINUOUS
10
2.23622
20
1.15413
11
2.29528
21
1.15413
0
LINE
8
BLACK
6
CONTINUOUS
10
2.29528
20
1.15413
11
2.29528
21
1.13248
0
LINE
8
BLACK
6
CONTINUOUS
10
2.74409
20
1.13248
11
2.68504
21
1.13248
0
LINE
8
BLACK
6
CONTINUOUS
10
2.68504
20
1.13248
11
2.68504
21
1.15413
0
LINE
8
BLACK
6
CONTINUOUS
10
2.68504
20
1.15413
11
2.74409
21
1.15413
0
LINE
8
BLACK
6
CONTINUOUS
10
2.74409
20
1.15413
11
2.74409
21
1.13248
0
LINE
8
BLACK
6
CONTINUOUS
10
1.1038
20
1.13476
11
1.0488
21
1.13476
0
LINE
8
BLACK
6
CONTINUOUS
10
1.0488
20
1.13476
11
1.0488
21
1.16976
0
LINE
8
BLACK
6
CONTINUOUS
10
1.0488
20
1.16976
11
1.1038
21
1.16976
0
LINE
8
BLACK
6
CONTINUOUS
10
1.1038
20
1.16976
11
1.1038
21
1.13476
0
LINE
8
BLACK
6
CONTINUOUS
10
3.25
20
1.1475
11
3.215
21
1.1475
0
LINE
8
BLACK
6
CONTINUOUS
10
3.215
20
1.1475
11
3.215
21
1.2025
0
LINE
8
BLACK
6
CONTINUOUS
10
3.215
20
1.2025
11
3.25
21
1.2025
0
LINE
8
BLACK
6
CONTINUOUS
10
3.25
20
1.2025
11
3.25
21
1.1475
0
LINE
8
BLACK
6
CONTINUOUS
10
3.175
20
1.1475
11
3.14
21
1.1475
0
LINE
8
BLACK
6
CONTINUOUS
10
3.14
20
1.1475
11
3.14
21
1.2025
0
LINE
8
BLACK
6
CONTINUOUS
10
3.14
20
1.2025
11
3.175
21
1.2025
0
LINE
8
BLACK
6
CONTINUOUS
10
3.175
20
1.2025
11
3.175
21
1.1475
0
LINE
8
BLACK
6
CONTINUOUS
10
1.5138
20
1.14976
11
1.4588
21
1.14976
0
LINE
8
BLACK
6
CONTINUOUS
10
1.4588
20
1.14976
11
1.4588
21
1.18476
0
LINE
8
BLACK
6
CONTINUOUS
10
1.4588
20
1.18476
11
1.5138
21
1.18476
0
LINE
8
BLACK
6
CONTINUOUS
10
1.5138
20
1.18476
11
1.5138
21
1.14976
0
LINE
8
BLACK
6
CONTINUOUS
10
0.330512
20
1.15295
11
0.269488
21
1.15295
0
LINE
8
BLACK
6
CONTINUOUS
10
0.269488
20
1.15295
11
0.269488
21
1.17657
0
LINE
8
BLACK
6
CONTINUOUS
10
0.269488
20
1.17657
11
0.330512
21
1.17657
0
LINE
8
BLACK
6
CONTINUOUS
10
0.330512
20
1.17657
11
0.330512
21
1.15295
0
LINE
8
BLACK
6
CONTINUOUS
10
0.54311
20
1.15295
11
0.482087
21
1.15295
0
LINE
8
BLACK
6
CONTINUOUS
10
0.482087
20
1.15295
11
0.482087
21
1.17657
0
LINE
8
BLACK
6
CONTINUOUS
10
0.482087
20
1.17657
11
0.54311
21
1.17657
0
LINE
8
BLACK
6
CONTINUOUS
10
0.54311
20
1.17657
11
0.54311
21
1.15295
0
LINE
8
BLACK
6
CONTINUOUS
10
0.633799
20
1.15976
11
0.578799
21
1.15976
0
LINE
8
BLACK
6
CONTINUOUS
10
0.578799
20
1.15976
11
0.578799
21
1.19476
0
LINE
8
BLACK
6
CONTINUOUS
10
0.578799
20
1.19476
11
0.633799
21
1.19476
0
LINE
8
BLACK
6
CONTINUOUS
10
0.633799
20
1.19476
11
0.633799
21
1.15976
0
LINE
8
BLACK
6
CONTINUOUS
10
0.733799
20
1.16226
11
0.678799
21
1.16226
0
LINE
8
BLACK
6
CONTINUOUS
10
0.678799
20
1.16226
11
0.678799
21
1.19726
0
LINE
8
BLACK
6
CONTINUOUS
10
0.678799
20
1.19726
11
0.733799
21
1.19726
0
LINE
8
BLACK
6
CONTINUOUS
10
0.733799
20
1.19726
11
0.733799
21
1.16226
0
LINE
8
BLACK
6
CONTINUOUS
10
2.29528
20
1.16398
11
2.23622
21
1.16398
0
LINE
8
BLACK
6
CONTINUOUS
10
2.23622
20
1.16398
11
2.23622
21
1.18563
0
LINE
8
BLACK
6
CONTINUOUS
10
2.23622
20
1.18563
11
2.29528
21
1.18563
0
LINE
8
BLACK
6
CONTINUOUS
10
2.29528
20
1.18563
11
2.29528
21
1.16398
0
LINE
8
BLACK
6
CONTINUOUS
10
2.74409
20
1.16398
11
2.68504
21
1.16398
0
LINE
8
BLACK
6
CONTINUOUS
10
2.68504
20
1.16398
11
2.68504
21
1.18563
0
LINE
8
BLACK
6
CONTINUOUS
10
2.68504
20
1.18563
11
2.74409
21
1.18563
0
LINE
8
BLACK
6
CONTINUOUS
10
2.74409
20
1.18563
11
2.74409
21
1.16398
0
LINE
8
BLACK
6
CONTINUOUS
10
2.8575
20
1.18
11
2.8025
21
1.18
0
LINE
8
BLACK
6
CONTINUOUS
10
2.8025
20
1.18
11
2.8025
21
1.215
0
LINE
8
BLACK
6
CONTINUOUS
10
2.8025
20
1.215
11
2.8575
21
1.215
0
LINE
8
BLACK
6
CONTINUOUS
10
2.8575
20
1.215
11
2.8575
21
1.18
0
LINE
8
BLACK
6
CONTINUOUS
10
2.9475
20
1.18
11
2.8925
21
1.18
0
LINE
8
BLACK
6
CONTINUOUS
10
2.8925
20
1.18
11
2.8925
21
1.215
0
LINE
8
BLACK
6
CONTINUOUS
10
2.8925
20
1.215
11
2.9475
21
1.215
0
LINE
8
BLACK
6
CONTINUOUS
10
2.9475
20
1.215
11
2.9475
21
1.18
0
LINE
8
BLACK
6
CONTINUOUS
10
2.0475
20
1.1925
11
2.0125
21
1.1925
0
LINE
8
BLACK
6
CONTINUOUS
10
2.0125
20
1.1925
11
2.0125
21
1.2475
0
LINE
8
BLACK
6
CONTINUOUS
10
2.0125
20
1.2475
11
2.0475
21
1.2475
0
LINE
8
BLACK
6
CONTINUOUS
10
2.0475
20
1.2475
11
2.0475
21
1.1925
0
LINE
8
BLACK
6
CONTINUOUS
10
1.9725
20
1.1925
11
1.9375
21
1.1925
0
LINE
8
BLACK
6
CONTINUOUS
10
1.9375
20
1.1925
11
1.9375
21
1.2475
0
LINE
8
BLACK
6
CONTINUOUS
10
1.9375
20
1.2475
11
1.9725
21
1.2475
0
LINE
8
BLACK
6
CONTINUOUS
10
1.9725
20
1.2475
11
1.9725
21
1.1925
0
LINE
8
BLACK
6
CONTINUOUS
10
2.74409
20
1.19547
11
2.68504
21
1.19547
0
LINE
8
BLACK
6
CONTINUOUS
10
2.68504
20
1.19547
11
2.68504
21
1.21713
0
LINE
8
BLACK
6
CONTINUOUS
10
2.68504
20
1.21713
11
2.74409
21
1.21713
0
LINE
8
BLACK
6
CONTINUOUS
10
2.74409
20
1.21713
11
2.74409
21
1.19547
0
LINE
8
BLACK
6
CONTINUOUS
10
2.29528
20
1.19547
11
2.23622
21
1.19547
0
LINE
8
BLACK
6
CONTINUOUS
10
2.23622
20
1.19547
11
2.23622
21
1.21713
0
LINE
8
BLACK
6
CONTINUOUS
10
2.23622
20
1.21713
11
2.29528
21
1.21713
0
LINE
8
BLACK
6
CONTINUOUS
10
2.29528
20
1.21713
11
2.29528
21
1.19547
0
LINE
8
BLACK
6
CONTINUOUS
10
0.233799
20
1.19726
11
0.178799
21
1.19726
0
LINE
8
BLACK
6
CONTINUOUS
10
0.178799
20
1.19726
11
0.178799
21
1.23226
0
LINE
8
BLACK
6
CONTINUOUS
10
0.178799
20
1.23226
11
0.233799
21
1.23226
0
LINE
8
BLACK
6
CONTINUOUS
10
0.233799
20
1.23226
11
0.233799
21
1.19726
0
LINE
8
BLACK
6
CONTINUOUS
10
2.1225
20
1.1975
11
2.0675
21
1.1975
0
LINE
8
BLACK
6
CONTINUOUS
10
2.0675
20
1.1975
11
2.0675
21
1.2325
0
LINE
8
BLACK
6
CONTINUOUS
10
2.0675
20
1.2325
11
2.1225
21
1.2325
0
LINE
8
BLACK
6
CONTINUOUS
10
2.1225
20
1.2325
11
2.1225
21
1.1975
0
LINE
8
BLACK
6
CONTINUOUS
10
2.29528
20
1.22697
11
2.23622
21
1.22697
0
LINE
8
BLACK
6
CONTINUOUS
10
2.23622
20
1.22697
11
2.23622
21
1.24862
0
LINE
8
BLACK
6
CONTINUOUS
10
2.23622
20
1.24862
11
2.29528
21
1.24862
0
LINE
8
BLACK
6
CONTINUOUS
10
2.29528
20
1.24862
11
2.29528
21
1.22697
0
LINE
8
BLACK
6
CONTINUOUS
10
2.74409
20
1.22697
11
2.68504
21
1.22697
0
LINE
8
BLACK
6
CONTINUOUS
10
2.68504
20
1.22697
11
2.68504
21
1.24862
0
LINE
8
BLACK
6
CONTINUOUS
10
2.68504
20
1.24862
11
2.74409
21
1.24862
0
LINE
8
BLACK
6
CONTINUOUS
10
2.74409
20
1.24862
11
2.74409
21
1.22697
0
LINE
8
BLACK
6
CONTINUOUS
10
3.25
20
1.2325
11
3.215
21
1.2325
0
LINE
8
BLACK
6
CONTINUOUS
10
3.215
20
1.2325
11
3.215
21
1.2875
0
LINE
8
BLACK
6
CONTINUOUS
10
3.215
20
1.2875
11
3.25
21
1.2875
0
LINE
8
BLACK
6
CONTINUOUS
10
3.25
20
1.2875
11
3.25
21
1.2325
0
LINE
8
BLACK
6
CONTINUOUS
10
3.175
20
1.2325
11
3.14
21
1.2325
0
LINE
8
BLACK
6
CONTINUOUS
10
3.14
20
1.2325
11
3.14
21
1.2875
0
LINE
8
BLACK
6
CONTINUOUS
10
3.14
20
1.2875
11
3.175
21
1.2875
0
LINE
8
BLACK
6
CONTINUOUS
10
3.175
20
1.2875
11
3.175
21
1.2325
0
LINE
8
BLACK
6
CONTINUOUS
10
0.633799
20
1.23476
11
0.578799
21
1.23476
0
LINE
8
BLACK
6
CONTINUOUS
10
0.578799
20
1.23476
11
0.578799
21
1.26976
0
LINE
8
BLACK
6
CONTINUOUS
10
0.578799
20
1.26976
11
0.633799
21
1.26976
0
LINE
8
BLACK
6
CONTINUOUS
10
0.633799
20
1.26976
11
0.633799
21
1.23476
0
LINE
8
BLACK
6
CONTINUOUS
10
1.5765
20
1.23591
11
1.55091
21
1.23591
0
LINE
8
BLACK
6
CONTINUOUS
10
1.55091
20
1.23591
11
1.55091
21
1.29732
0
LINE
8
BLACK
6
CONTINUOUS
10
1.55091
20
1.29732
11
1.5765
21
1.29732
0
LINE
8
BLACK
6
CONTINUOUS
10
1.5765
20
1.29732
11
1.5765
21
1.23591
0
LINE
8
BLACK
6
CONTINUOUS
10
1.53909
20
1.23591
11
1.5135
21
1.23591
0
LINE
8
BLACK
6
CONTINUOUS
10
1.5135
20
1.23591
11
1.5135
21
1.29732
0
LINE
8
BLACK
6
CONTINUOUS
10
1.5135
20
1.29732
11
1.53909
21
1.29732
0
LINE
8
BLACK
6
CONTINUOUS
10
1.53909
20
1.29732
11
1.53909
21
1.23591
0
LINE
8
BLACK
6
CONTINUOUS
10
1.50169
20
1.23591
11
1.4761
21
1.23591
0
LINE
8
BLACK
6
CONTINUOUS
10
1.4761
20
1.23591
11
1.4761
21
1.29732
0
LINE
8
BLACK
6
CONTINUOUS
10
1.4761
20
1.29732
11
1.50169
21
1.29732
0
LINE
8
BLACK
6
CONTINUOUS
10
1.50169
20
1.29732
11
1.50169
21
1.23591
0
LINE
8
BLACK
6
CONTINUOUS
10
0.733799
20
1.23726
11
0.678799
21
1.23726
0
LINE
8
BLACK
6
CONTINUOUS
10
0.678799
20
1.23726
11
0.678799
21
1.27226
0
LINE
8
BLACK
6
CONTINUOUS
10
0.678799
20
1.27226
11
0.733799
21
1.27226
0
LINE
8
BLACK
6
CONTINUOUS
10
0.733799
20
1.27226
11
0.733799
21
1.23726
0
LINE
8
BLACK
6
CONTINUOUS
10
2.8775
20
1.2375
11
2.8225
21
1.2375
0
LINE
8
BLACK
6
CONTINUOUS
10
2.8225
20
1.2375
11
2.8225
21
1.2725
0
LINE
8
BLACK
6
CONTINUOUS
10
2.8225
20
1.2725
11
2.8775
21
1.2725
0
LINE
8
BLACK
6
CONTINUOUS
10
2.8775
20
1.2725
11
2.8775
21
1.2375
0
LINE
8
BLACK
6
CONTINUOUS
10
1.3338
20
1.24476
11
1.2788
21
1.24476
0
LINE
8
BLACK
6
CONTINUOUS
10
1.2788
20
1.24476
11
1.2788
21
1.27976
0
LINE
8
BLACK
6
CONTINUOUS
10
1.2788
20
1.27976
11
1.3338
21
1.27976
0
LINE
8
BLACK
6
CONTINUOUS
10
1.3338
20
1.27976
11
1.3338
21
1.24476
0
LINE
8
BLACK
6
CONTINUOUS
10
1.2438
20
1.24476
11
1.1888
21
1.24476
0
LINE
8
BLACK
6
CONTINUOUS
10
1.1888
20
1.24476
11
1.1888
21
1.27976
0
LINE
8
BLACK
6
CONTINUOUS
10
1.1888
20
1.27976
11
1.2438
21
1.27976
0
LINE
8
BLACK
6
CONTINUOUS
10
1.2438
20
1.27976
11
1.2438
21
1.24476
0
LINE
8
BLACK
6
CONTINUOUS
10
1.4238
20
1.24476
11
1.3688
21
1.24476
0
LINE
8
BLACK
6
CONTINUOUS
10
1.3688
20
1.24476
11
1.3688
21
1.27976
0
LINE
8
BLACK
6
CONTINUOUS
10
1.3688
20
1.27976
11
1.4238
21
1.27976
0
LINE
8
BLACK
6
CONTINUOUS
10
1.4238
20
1.27976
11
1.4238
21
1.24476
0
LINE
8
BLACK
6
CONTINUOUS
10
2.96
20
1.245
11
2.91
21
1.245
0
LINE
8
BLACK
6
CONTINUOUS
10
2.91
20
1.245
11
2.91
21
1.345
0
LINE
8
BLACK
6
CONTINUOUS
10
2.91
20
1.345
11
2.96
21
1.345
0
LINE
8
BLACK
6
CONTINUOUS
10
2.96
20
1.345
11
2.96
21
1.245
0
LINE
8
BLACK
6
CONTINUOUS
10
3.08
20
1.245
11
3.03
21
1.245
0
LINE
8
BLACK
6
CONTINUOUS
10
3.03
20
1.245
11
3.03
21
1.345
0
LINE
8
BLACK
6
CONTINUOUS
10
3.03
20
1.345
11
3.08
21
1.345
0
LINE
8
BLACK
6
CONTINUOUS
10
3.08
20
1.345
11
3.08
21
1.245
0
LINE
8
BLACK
6
CONTINUOUS
10
2.74409
20
1.25846
11
2.68504
21
1.25846
0
LINE
8
BLACK
6
CONTINUOUS
10
2.68504
20
1.25846
11
2.68504
21
1.28012
0
LINE
8
BLACK
6
CONTINUOUS
10
2.68504
20
1.28012
11
2.74409
21
1.28012
0
LINE
8
BLACK
6
CONTINUOUS
10
2.74409
20
1.28012
11
2.74409
21
1.25846
0
LINE
8
BLACK
6
CONTINUOUS
10
2.29528
20
1.25846
11
2.23622
21
1.25846
0
LINE
8
BLACK
6
CONTINUOUS
10
2.23622
20
1.25846
11
2.23622
21
1.28012
0
LINE
8
BLACK
6
CONTINUOUS
10
2.23622
20
1.28012
11
2.29528
21
1.28012
0
LINE
8
BLACK
6
CONTINUOUS
10
2.29528
20
1.28012
11
2.29528
21
1.25846
0
LINE
8
BLACK
6
CONTINUOUS
10
2.1225
20
1.2725
11
2.0675
21
1.2725
0
LINE
8
BLACK
6
CONTINUOUS
10
2.0675
20
1.2725
11
2.0675
21
1.3075
0
LINE
8
BLACK
6
CONTINUOUS
10
2.0675
20
1.3075
11
2.1225
21
1.3075
0
LINE
8
BLACK
6
CONTINUOUS
10
2.1225
20
1.3075
11
2.1225
21
1.2725
0
LINE
8
BLACK
6
CONTINUOUS
10
3.57878
20
1.28067
11
3.53941
21
1.28067
0
LINE
8
BLACK
6
CONTINUOUS
10
3.53941
20
1.28067
11
3.53941
21
1.43028
0
LINE
8
BLACK
6
CONTINUOUS
10
3.53941
20
1.43028
11
3.57878
21
1.43028
0
LINE
8
BLACK
6
CONTINUOUS
10
3.57878
20
1.43028
11
3.57878
21
1.28067
0
LINE
8
BLACK
6
CONTINUOUS
10
1.85437
20
1.28067
11
1.815
21
1.28067
0
LINE
8
BLACK
6
CONTINUOUS
10
1.815
20
1.28067
11
1.815
21
1.43028
0
LINE
8
BLACK
6
CONTINUOUS
10
1.815
20
1.43028
11
1.85437
21
1.43028
0
LINE
8
BLACK
6
CONTINUOUS
10
1.85437
20
1.43028
11
1.85437
21
1.28067
0
LINE
8
BLACK
6
CONTINUOUS
10
1.78244
20
1.28307
11
1.74307
21
1.28307
0
LINE
8
BLACK
6
CONTINUOUS
10
1.74307
20
1.28307
11
1.74307
21
1.43268
0
LINE
8
BLACK
6
CONTINUOUS
10
1.74307
20
1.43268
11
1.78244
21
1.43268
0
LINE
8
BLACK
6
CONTINUOUS
10
1.78244
20
1.43268
11
1.78244
21
1.28307
0
LINE
8
BLACK
6
CONTINUOUS
10
0.0580315
20
1.28307
11
0.0186614
21
1.28307
0
LINE
8
BLACK
6
CONTINUOUS
10
0.0186614
20
1.28307
11
0.0186614
21
1.43268
0
LINE
8
BLACK
6
CONTINUOUS
10
0.0186614
20
1.43268
11
0.0580315
21
1.43268
0
LINE
8
BLACK
6
CONTINUOUS
10
0.0580315
20
1.43268
11
0.0580315
21
1.28307
0
LINE
8
BLACK
6
CONTINUOUS
10
2.29528
20
1.28996
11
2.23622
21
1.28996
0
LINE
8
BLACK
6
CONTINUOUS
10
2.23622
20
1.28996
11
2.23622
21
1.31161
0
LINE
8
BLACK
6
CONTINUOUS
10
2.23622
20
1.31161
11
2.29528
21
1.31161
0
LINE
8
BLACK
6
CONTINUOUS
10
2.29528
20
1.31161
11
2.29528
21
1.28996
0
LINE
8
BLACK
6
CONTINUOUS
10
2.74409
20
1.28996
11
2.68504
21
1.28996
0
LINE
8
BLACK
6
CONTINUOUS
10
2.68504
20
1.28996
11
2.68504
21
1.31161
0
LINE
8
BLACK
6
CONTINUOUS
10
2.68504
20
1.31161
11
2.74409
21
1.31161
0
LINE
8
BLACK
6
CONTINUOUS
10
2.74409
20
1.31161
11
2.74409
21
1.28996
0
LINE
8
BLACK
6
CONTINUOUS
10
1.6938
20
1.30476
11
1.6388
21
1.30476
0
LINE
8
BLACK
6
CONTINUOUS
10
1.6388
20
1.30476
11
1.6388
21
1.33976
0
LINE
8
BLACK
6
CONTINUOUS
10
1.6388
20
1.33976
11
1.6938
21
1.33976
0
LINE
8
BLACK
6
CONTINUOUS
10
1.6938
20
1.33976
11
1.6938
21
1.30476
0
LINE
8
BLACK
6
CONTINUOUS
10
0.8275
20
1.305
11
0.7725
21
1.305
0
LINE
8
BLACK
6
CONTINUOUS
10
0.7725
20
1.305
11
0.7725
21
1.34
0
LINE
8
BLACK
6
CONTINUOUS
10
0.7725
20
1.34
11
0.8275
21
1.34
0
LINE
8
BLACK
6
CONTINUOUS
10
0.8275
20
1.34
11
0.8275
21
1.305
0
LINE
8
BLACK
6
CONTINUOUS
10
0.9075
20
1.305
11
0.8525
21
1.305
0
LINE
8
BLACK
6
CONTINUOUS
10
0.8525
20
1.305
11
0.8525
21
1.34
0
LINE
8
BLACK
6
CONTINUOUS
10
0.8525
20
1.34
11
0.9075
21
1.34
0
LINE
8
BLACK
6
CONTINUOUS
10
0.9075
20
1.34
11
0.9075
21
1.305
0
LINE
8
BLACK
6
CONTINUOUS
10
0.9875
20
1.305
11
0.9325
21
1.305
0
LINE
8
BLACK
6
CONTINUOUS
10
0.9325
20
1.305
11
0.9325
21
1.34
0
LINE
8
BLACK
6
CONTINUOUS
10
0.9325
20
1.34
11
0.9875
21
1.34
0
LINE
8
BLACK
6
CONTINUOUS
10
0.9875
20
1.34
11
0.9875
21
1.305
0
LINE
8
BLACK
6
CONTINUOUS
10
0.7375
20
1.3075
11
0.6825
21
1.3075
0
LINE
8
BLACK
6
CONTINUOUS
10
0.6825
20
1.3075
11
0.6825
21
1.3425
0
LINE
8
BLACK
6
CONTINUOUS
10
0.6825
20
1.3425
11
0.7375
21
1.3425
0
LINE
8
BLACK
6
CONTINUOUS
10
0.7375
20
1.3425
11
0.7375
21
1.3075
0
LINE
8
BLACK
6
CONTINUOUS
10
2.8775
20
1.3125
11
2.8225
21
1.3125
0
LINE
8
BLACK
6
CONTINUOUS
10
2.8225
20
1.3125
11
2.8225
21
1.3475
0
LINE
8
BLACK
6
CONTINUOUS
10
2.8225
20
1.3475
11
2.8775
21
1.3475
0
LINE
8
BLACK
6
CONTINUOUS
10
2.8775
20
1.3475
11
2.8775
21
1.3125
0
LINE
8
BLACK
6
CONTINUOUS
10
1.3338
20
1.31976
11
1.2788
21
1.31976
0
LINE
8
BLACK
6
CONTINUOUS
10
1.2788
20
1.31976
11
1.2788
21
1.35476
0
LINE
8
BLACK
6
CONTINUOUS
10
1.2788
20
1.35476
11
1.3338
21
1.35476
0
LINE
8
BLACK
6
CONTINUOUS
10
1.3338
20
1.35476
11
1.3338
21
1.31976
0
LINE
8
BLACK
6
CONTINUOUS
10
1.2438
20
1.31976
11
1.1888
21
1.31976
0
LINE
8
BLACK
6
CONTINUOUS
10
1.1888
20
1.31976
11
1.1888
21
1.35476
0
LINE
8
BLACK
6
CONTINUOUS
10
1.1888
20
1.35476
11
1.2438
21
1.35476
0
LINE
8
BLACK
6
CONTINUOUS
10
1.2438
20
1.35476
11
1.2438
21
1.31976
0
LINE
8
BLACK
6
CONTINUOUS
10
1.4238
20
1.31976
11
1.3688
21
1.31976
0
LINE
8
BLACK
6
CONTINUOUS
10
1.3688
20
1.31976
11
1.3688
21
1.35476
0
LINE
8
BLACK
6
CONTINUOUS
10
1.3688
20
1.35476
11
1.4238
21
1.35476
0
LINE
8
BLACK
6
CONTINUOUS
10
1.4238
20
1.35476
11
1.4238
21
1.31976
0
LINE
8
BLACK
6
CONTINUOUS
10
2.29528
20
1.32146
11
2.23622
21
1.32146
0
LINE
8
BLACK
6
CONTINUOUS
10
2.23622
20
1.32146
11
2.23622
21
1.34311
0
LINE
8
BLACK
6
CONTINUOUS
10
2.23622
20
1.34311
11
2.29528
21
1.34311
0
LINE
8
BLACK
6
CONTINUOUS
10
2.29528
20
1.34311
11
2.29528
21
1.32146
0
LINE
8
BLACK
6
CONTINUOUS
10
2.74409
20
1.32146
11
2.68504
21
1.32146
0
LINE
8
BLACK
6
CONTINUOUS
10
2.68504
20
1.32146
11
2.68504
21
1.34311
0
LINE
8
BLACK
6
CONTINUOUS
10
2.68504
20
1.34311
11
2.74409
21
1.34311
0
LINE
8
BLACK
6
CONTINUOUS
10
2.74409
20
1.34311
11
2.74409
21
1.32146
0
LINE
8
BLACK
6
CONTINUOUS
10
1.5765
20
1.3422
11
1.55091
21
1.3422
0
LINE
8
BLACK
6
CONTINUOUS
10
1.55091
20
1.3422
11
1.55091
21
1.40362
0
LINE
8
BLACK
6
CONTINUOUS
10
1.55091
20
1.40362
11
1.5765
21
1.40362
0
LINE
8
BLACK
6
CONTINUOUS
10
1.5765
20
1.40362
11
1.5765
21
1.3422
0
LINE
8
BLACK
6
CONTINUOUS
10
1.50169
20
1.3422
11
1.4761
21
1.3422
0
LINE
8
BLACK
6
CONTINUOUS
10
1.4761
20
1.3422
11
1.4761
21
1.40362
0
LINE
8
BLACK
6
CONTINUOUS
10
1.4761
20
1.40362
11
1.50169
21
1.40362
0
LINE
8
BLACK
6
CONTINUOUS
10
1.50169
20
1.40362
11
1.50169
21
1.3422
0
LINE
8
BLACK
6
CONTINUOUS
10
2.29528
20
1.35295
11
2.23622
21
1.35295
0
LINE
8
BLACK
6
CONTINUOUS
10
2.23622
20
1.35295
11
2.23622
21
1.37461
0
LINE
8
BLACK
6
CONTINUOUS
10
2.23622
20
1.37461
11
2.29528
21
1.37461
0
LINE
8
BLACK
6
CONTINUOUS
10
2.29528
20
1.37461
11
2.29528
21
1.35295
0
LINE
8
BLACK
6
CONTINUOUS
10
2.74409
20
1.35295
11
2.68504
21
1.35295
0
LINE
8
BLACK
6
CONTINUOUS
10
2.68504
20
1.35295
11
2.68504
21
1.37461
0
LINE
8
BLACK
6
CONTINUOUS
10
2.68504
20
1.37461
11
2.74409
21
1.37461
0
LINE
8
BLACK
6
CONTINUOUS
10
2.74409
20
1.37461
11
2.74409
21
1.35295
0
LINE
8
BLACK
6
CONTINUOUS
10
1.6938
20
1.37976
11
1.6388
21
1.37976
0
LINE
8
BLACK
6
CONTINUOUS
10
1.6388
20
1.37976
11
1.6388
21
1.41476
0
LINE
8
BLACK
6
CONTINUOUS
10
1.6388
20
1.41476
11
1.6938
21
1.41476
0
LINE
8
BLACK
6
CONTINUOUS
10
1.6938
20
1.41476
11
1.6938
21
1.37976
0
LINE
8
BLACK
6
CONTINUOUS
10
0.9875
20
1.38
11
0.9325
21
1.38
0
LINE
8
BLACK
6
CONTINUOUS
10
0.9325
20
1.38
11
0.9325
21
1.415
0
LINE
8
BLACK
6
CONTINUOUS
10
0.9325
20
1.415
11
0.9875
21
1.415
0
LINE
8
BLACK
6
CONTINUOUS
10
0.9875
20
1.415
11
0.9875
21
1.38
0
LINE
8
BLACK
6
CONTINUOUS
10
0.9075
20
1.38
11
0.8525
21
1.38
0
LINE
8
BLACK
6
CONTINUOUS
10
0.8525
20
1.38
11
0.8525
21
1.415
0
LINE
8
BLACK
6
CONTINUOUS
10
0.8525
20
1.415
11
0.9075
21
1.415
0
LINE
8
BLACK
6
CONTINUOUS
10
0.9075
20
1.415
11
0.9075
21
1.38
0
LINE
8
BLACK
6
CONTINUOUS
10
0.8275
20
1.38
11
0.7725
21
1.38
0
LINE
8
BLACK
6
CONTINUOUS
10
0.7725
20
1.38
11
0.7725
21
1.415
0
LINE
8
BLACK
6
CONTINUOUS
10
0.7725
20
1.415
11
0.8275
21
1.415
0
LINE
8
BLACK
6
CONTINUOUS
10
0.8275
20
1.415
11
0.8275
21
1.38
0
LINE
8
BLACK
6
CONTINUOUS
10
0.7375
20
1.3825
11
0.6825
21
1.3825
0
LINE
8
BLACK
6
CONTINUOUS
10
0.6825
20
1.3825
11
0.6825
21
1.4175
0
LINE
8
BLACK
6
CONTINUOUS
10
0.6825
20
1.4175
11
0.7375
21
1.4175
0
LINE
8
BLACK
6
CONTINUOUS
10
0.7375
20
1.4175
11
0.7375
21
1.3825
0
LINE
8
BLACK
6
CONTINUOUS
10
2.43799
20
1.40118
11
2.41634
21
1.40118
0
LINE
8
BLACK
6
CONTINUOUS
10
2.41634
20
1.40118
11
2.41634
21
1.46024
0
LINE
8
BLACK
6
CONTINUOUS
10
2.41634
20
1.46024
11
2.43799
21
1.46024
0
LINE
8
BLACK
6
CONTINUOUS
10
2.43799
20
1.46024
11
2.43799
21
1.40118
0
LINE
8
BLACK
6
CONTINUOUS
10
2.62697
20
1.40118
11
2.60531
21
1.40118
0
LINE
8
BLACK
6
CONTINUOUS
10
2.60531
20
1.40118
11
2.60531
21
1.46024
0
LINE
8
BLACK
6
CONTINUOUS
10
2.60531
20
1.46024
11
2.62697
21
1.46024
0
LINE
8
BLACK
6
CONTINUOUS
10
2.62697
20
1.46024
11
2.62697
21
1.40118
0
LINE
8
BLACK
6
CONTINUOUS
10
2.65846
20
1.40118
11
2.63681
21
1.40118
0
LINE
8
BLACK
6
CONTINUOUS
10
2.63681
20
1.40118
11
2.63681
21
1.46024
0
LINE
8
BLACK
6
CONTINUOUS
10
2.63681
20
1.46024
11
2.65846
21
1.46024
0
LINE
8
BLACK
6
CONTINUOUS
10
2.65846
20
1.46024
11
2.65846
21
1.40118
0
LINE
8
BLACK
6
CONTINUOUS
10
2.56398
20
1.40118
11
2.54232
21
1.40118
0
LINE
8
BLACK
6
CONTINUOUS
10
2.54232
20
1.40118
11
2.54232
21
1.46024
0
LINE
8
BLACK
6
CONTINUOUS
10
2.54232
20
1.46024
11
2.56398
21
1.46024
0
LINE
8
BLACK
6
CONTINUOUS
10
2.56398
20
1.46024
11
2.56398
21
1.40118
0
LINE
8
BLACK
6
CONTINUOUS
10
2.53248
20
1.40118
11
2.51083
21
1.40118
0
LINE
8
BLACK
6
CONTINUOUS
10
2.51083
20
1.40118
11
2.51083
21
1.46024
0
LINE
8
BLACK
6
CONTINUOUS
10
2.51083
20
1.46024
11
2.53248
21
1.46024
0
LINE
8
BLACK
6
CONTINUOUS
10
2.53248
20
1.46024
11
2.53248
21
1.40118
0
LINE
8
BLACK
6
CONTINUOUS
10
2.50098
20
1.40118
11
2.47933
21
1.40118
0
LINE
8
BLACK
6
CONTINUOUS
10
2.47933
20
1.40118
11
2.47933
21
1.46024
0
LINE
8
BLACK
6
CONTINUOUS
10
2.47933
20
1.46024
11
2.50098
21
1.46024
0
LINE
8
BLACK
6
CONTINUOUS
10
2.50098
20
1.46024
11
2.50098
21
1.40118
0
LINE
8
BLACK
6
CONTINUOUS
10
2.46949
20
1.40118
11
2.44783
21
1.40118
0
LINE
8
BLACK
6
CONTINUOUS
10
2.44783
20
1.40118
11
2.44783
21
1.46024
0
LINE
8
BLACK
6
CONTINUOUS
10
2.44783
20
1.46024
11
2.46949
21
1.46024
0
LINE
8
BLACK
6
CONTINUOUS
10
2.46949
20
1.46024
11
2.46949
21
1.40118
0
LINE
8
BLACK
6
CONTINUOUS
10
2.4065
20
1.40118
11
2.38484
21
1.40118
0
LINE
8
BLACK
6
CONTINUOUS
10
2.38484
20
1.40118
11
2.38484
21
1.46024
0
LINE
8
BLACK
6
CONTINUOUS
10
2.38484
20
1.46024
11
2.4065
21
1.46024
0
LINE
8
BLACK
6
CONTINUOUS
10
2.4065
20
1.46024
11
2.4065
21
1.40118
0
LINE
8
BLACK
6
CONTINUOUS
10
2.375
20
1.40118
11
2.35335
21
1.40118
0
LINE
8
BLACK
6
CONTINUOUS
10
2.35335
20
1.40118
11
2.35335
21
1.46024
0
LINE
8
BLACK
6
CONTINUOUS
10
2.35335
20
1.46024
11
2.375
21
1.46024
0
LINE
8
BLACK
6
CONTINUOUS
10
2.375
20
1.46024
11
2.375
21
1.40118
0
LINE
8
BLACK
6
CONTINUOUS
10
2.3435
20
1.40118
11
2.32185
21
1.40118
0
LINE
8
BLACK
6
CONTINUOUS
10
2.32185
20
1.40118
11
2.32185
21
1.46024
0
LINE
8
BLACK
6
CONTINUOUS
10
2.32185
20
1.46024
11
2.3435
21
1.46024
0
LINE
8
BLACK
6
CONTINUOUS
10
2.3435
20
1.46024
11
2.3435
21
1.40118
0
LINE
8
BLACK
6
CONTINUOUS
10
2.59547
20
1.40118
11
2.57382
21
1.40118
0
LINE
8
BLACK
6
CONTINUOUS
10
2.57382
20
1.40118
11
2.57382
21
1.46024
0
LINE
8
BLACK
6
CONTINUOUS
10
2.57382
20
1.46024
11
2.59547
21
1.46024
0
LINE
8
BLACK
6
CONTINUOUS
10
2.59547
20
1.46024
11
2.59547
21
1.40118
0
LINE
8
BLACK
6
CONTINUOUS
10
2.125
20
1.4275
11
2.09
21
1.4275
0
LINE
8
BLACK
6
CONTINUOUS
10
2.09
20
1.4275
11
2.09
21
1.4825
0
LINE
8
BLACK
6
CONTINUOUS
10
2.09
20
1.4825
11
2.125
21
1.4825
0
LINE
8
BLACK
6
CONTINUOUS
10
2.125
20
1.4825
11
2.125
21
1.4275
0
LINE
8
BLACK
6
CONTINUOUS
10
2.2
20
1.4275
11
2.165
21
1.4275
0
LINE
8
BLACK
6
CONTINUOUS
10
2.165
20
1.4275
11
2.165
21
1.4825
0
LINE
8
BLACK
6
CONTINUOUS
10
2.165
20
1.4825
11
2.2
21
1.4825
0
LINE
8
BLACK
6
CONTINUOUS
10
2.2
20
1.4825
11
2.2
21
1.4275
0
LINE
8
BLACK
6
CONTINUOUS
10
2.055
20
1.4275
11
2.02
21
1.4275
0
LINE
8
BLACK
6
CONTINUOUS
10
2.02
20
1.4275
11
2.02
21
1.4825
0
LINE
8
BLACK
6
CONTINUOUS
10
2.02
20
1.4825
11
2.055
21
1.4825
0
LINE
8
BLACK
6
CONTINUOUS
10
2.055
20
1.4825
11
2.055
21
1.4275
0
LINE
8
BLACK
6
CONTINUOUS
10
1.98
20
1.4275
11
1.945
21
1.4275
0
LINE
8
BLACK
6
CONTINUOUS
10
1.945
20
1.4275
11
1.945
21
1.4825
0
LINE
8
BLACK
6
CONTINUOUS
10
1.945
20
1.4825
11
1.98
21
1.4825
0
LINE
8
BLACK
6
CONTINUOUS
10
1.98
20
1.4825
11
1.98
21
1.4275
0
LINE
8
BLACK
6
CONTINUOUS
10
0.7425
20
1.4725
11
0.7075
21
1.4725
0
LINE
8
BLACK
6
CONTINUOUS
10
0.7075
20
1.4725
11
0.7075
21
1.5275
0
LINE
8
BLACK
6
CONTINUOUS
10
0.7075
20
1.5275
11
0.7425
21
1.5275
0
LINE
8
BLACK
6
CONTINUOUS
10
0.7425
20
1.5275
11
0.7425
21
1.4725
0
LINE
8
BLACK
6
CONTINUOUS
10
0.8175
20
1.4725
11
0.7825
21
1.4725
0
LINE
8
BLACK
6
CONTINUOUS
10
0.7825
20
1.4725
11
0.7825
21
1.5275
0
LINE
8
BLACK
6
CONTINUOUS
10
0.7825
20
1.5275
11
0.8175
21
1.5275
0
LINE
8
BLACK
6
CONTINUOUS
10
0.8175
20
1.5275
11
0.8175
21
1.4725
0
LINE
8
BLACK
6
CONTINUOUS
10
0.8925
20
1.4725
11
0.8575
21
1.4725
0
LINE
8
BLACK
6
CONTINUOUS
10
0.8575
20
1.4725
11
0.8575
21
1.5275
0
LINE
8
BLACK
6
CONTINUOUS
10
0.8575
20
1.5275
11
0.8925
21
1.5275
0
LINE
8
BLACK
6
CONTINUOUS
10
0.8925
20
1.5275
11
0.8925
21
1.4725
0
LINE
8
BLACK
6
CONTINUOUS
10
1.1175
20
1.4725
11
1.0825
21
1.4725
0
LINE
8
BLACK
6
CONTINUOUS
10
1.0825
20
1.4725
11
1.0825
21
1.5275
0
LINE
8
BLACK
6
CONTINUOUS
10
1.0825
20
1.5275
11
1.1175
21
1.5275
0
LINE
8
BLACK
6
CONTINUOUS
10
1.1175
20
1.5275
11
1.1175
21
1.4725
0
LINE
8
BLACK
6
CONTINUOUS
10
1.0425
20
1.4725
11
1.0075
21
1.4725
0
LINE
8
BLACK
6
CONTINUOUS
10
1.0075
20
1.4725
11
1.0075
21
1.5275
0
LINE
8
BLACK
6
CONTINUOUS
10
1.0075
20
1.5275
11
1.0425
21
1.5275
0
LINE
8
BLACK
6
CONTINUOUS
10
1.0425
20
1.5275
11
1.0425
21
1.4725
0
LINE
8
BLACK
6
CONTINUOUS
10
0.9675
20
1.4725
11
0.9325
21
1.4725
0
LINE
8
BLACK
6
CONTINUOUS
10
0.9325
20
1.4725
11
0.9325
21
1.5275
0
LINE
8
BLACK
6
CONTINUOUS
10
0.9325
20
1.5275
11
0.9675
21
1.5275
0
LINE
8
BLACK
6
CONTINUOUS
10
0.9675
20
1.5275
11
0.9675
21
1.4725
0
LINE
8
BLACK
6
CONTINUOUS
10
2.58
20
1.4875
11
2.545
21
1.4875
0
LINE
8
BLACK
6
CONTINUOUS
10
2.545
20
1.4875
11
2.545
21
1.5425
0
LINE
8
BLACK
6
CONTINUOUS
10
2.545
20
1.5425
11
2.58
21
1.5425
0
LINE
8
BLACK
6
CONTINUOUS
10
2.58
20
1.5425
11
2.58
21
1.4875
0
LINE
8
BLACK
6
CONTINUOUS
10
2.505
20
1.4875
11
2.47
21
1.4875
0
LINE
8
BLACK
6
CONTINUOUS
10
2.47
20
1.4875
11
2.47
21
1.5425
0
LINE
8
BLACK
6
CONTINUOUS
10
2.47
20
1.5425
11
2.505
21
1.5425
0
LINE
8
BLACK
6
CONTINUOUS
10
2.505
20
1.5425
11
2.505
21
1.4875
0
LINE
8
BLACK
6
CONTINUOUS
10
1.94492
20
1.51689
11
1.815
21
1.51689
0
LINE
8
BLACK
6
CONTINUOUS
10
1.815
20
1.51689
11
1.815
21
1.61728
0
LINE
8
BLACK
6
CONTINUOUS
10
1.815
20
1.61728
11
1.94492
21
1.61728
0
LINE
8
BLACK
6
CONTINUOUS
10
1.94492
20
1.61728
11
1.94492
21
1.51689
0
LINE
8
BLACK
6
CONTINUOUS
10
3.57878
20
1.51689
11
3.44886
21
1.51689
0
LINE
8
BLACK
6
CONTINUOUS
10
3.44886
20
1.51689
11
3.44886
21
1.61728
0
LINE
8
BLACK
6
CONTINUOUS
10
3.44886
20
1.61728
11
3.57878
21
1.61728
0
LINE
8
BLACK
6
CONTINUOUS
10
3.57878
20
1.61728
11
3.57878
21
1.51689
0
LINE
8
BLACK
6
CONTINUOUS
10
0.148583
20
1.51929
11
0.0186614
21
1.51929
0
LINE
8
BLACK
6
CONTINUOUS
10
0.0186614
20
1.51929
11
0.0186614
21
1.61969
0
LINE
8
BLACK
6
CONTINUOUS
10
0.0186614
20
1.61969
11
0.148583
21
1.61969
0
LINE
8
BLACK
6
CONTINUOUS
10
0.148583
20
1.61969
11
0.148583
21
1.51929
0
LINE
8
BLACK
6
CONTINUOUS
10
1.78244
20
1.51929
11
1.65252
21
1.51929
0
LINE
8
BLACK
6
CONTINUOUS
10
1.65252
20
1.51929
11
1.65252
21
1.61969
0
LINE
8
BLACK
6
CONTINUOUS
10
1.65252
20
1.61969
11
1.78244
21
1.61969
0
LINE
8
BLACK
6
CONTINUOUS
10
1.78244
20
1.61969
11
1.78244
21
1.51929
0
LINE
8
BLACK
6
CONTINUOUS
10
2.41736
20
1.57791
11
2.26776
21
1.57791
0
LINE
8
BLACK
6
CONTINUOUS
10
2.26776
20
1.57791
11
2.26776
21
1.61728
0
LINE
8
BLACK
6
CONTINUOUS
10
2.26776
20
1.61728
11
2.41736
21
1.61728
0
LINE
8
BLACK
6
CONTINUOUS
10
2.41736
20
1.61728
11
2.41736
21
1.57791
0
LINE
8
BLACK
6
CONTINUOUS
10
3.36224
20
1.57791
11
3.21264
21
1.57791
0
LINE
8
BLACK
6
CONTINUOUS
10
3.21264
20
1.57791
11
3.21264
21
1.61728
0
LINE
8
BLACK
6
CONTINUOUS
10
3.21264
20
1.61728
11
3.36224
21
1.61728
0
LINE
8
BLACK
6
CONTINUOUS
10
3.36224
20
1.61728
11
3.36224
21
1.57791
0
LINE
8
BLACK
6
CONTINUOUS
10
3.12602
20
1.57791
11
2.97642
21
1.57791
0
LINE
8
BLACK
6
CONTINUOUS
10
2.97642
20
1.57791
11
2.97642
21
1.61728
0
LINE
8
BLACK
6
CONTINUOUS
10
2.97642
20
1.61728
11
3.12602
21
1.61728
0
LINE
8
BLACK
6
CONTINUOUS
10
3.12602
20
1.61728
11
3.12602
21
1.57791
0
LINE
8
BLACK
6
CONTINUOUS
10
2.18114
20
1.57791
11
2.03154
21
1.57791
0
LINE
8
BLACK
6
CONTINUOUS
10
2.03154
20
1.57791
11
2.03154
21
1.61728
0
LINE
8
BLACK
6
CONTINUOUS
10
2.03154
20
1.61728
11
2.18114
21
1.61728
0
LINE
8
BLACK
6
CONTINUOUS
10
2.18114
20
1.61728
11
2.18114
21
1.57791
0
LINE
8
BLACK
6
CONTINUOUS
10
2.65358
20
1.57791
11
2.50398
21
1.57791
0
LINE
8
BLACK
6
CONTINUOUS
10
2.50398
20
1.57791
11
2.50398
21
1.61728
0
LINE
8
BLACK
6
CONTINUOUS
10
2.50398
20
1.61728
11
2.65358
21
1.61728
0
LINE
8
BLACK
6
CONTINUOUS
10
2.65358
20
1.61728
11
2.65358
21
1.57791
0
LINE
8
BLACK
6
CONTINUOUS
10
2.8898
20
1.57791
11
2.7402
21
1.57791
0
LINE
8
BLACK
6
CONTINUOUS
10
2.7402
20
1.57791
11
2.7402
21
1.61728
0
LINE
8
BLACK
6
CONTINUOUS
10
2.7402
20
1.61728
11
2.8898
21
1.61728
0
LINE
8
BLACK
6
CONTINUOUS
10
2.8898
20
1.61728
11
2.8898
21
1.57791
0
LINE
8
BLACK
6
CONTINUOUS
10
0.384803
20
1.58031
11
0.235197
21
1.58031
0
LINE
8
BLACK
6
CONTINUOUS
10
0.235197
20
1.58031
11
0.235197
21
1.61969
0
LINE
8
BLACK
6
CONTINUOUS
10
0.235197
20
1.61969
11
0.384803
21
1.61969
0
LINE
8
BLACK
6
CONTINUOUS
10
0.384803
20
1.61969
11
0.384803
21
1.58031
0
LINE
8
BLACK
6
CONTINUOUS
10
0.857244
20
1.58031
11
0.707638
21
1.58031
0
LINE
8
BLACK
6
CONTINUOUS
10
0.707638
20
1.58031
11
0.707638
21
1.61969
0
LINE
8
BLACK
6
CONTINUOUS
10
0.707638
20
1.61969
11
0.857244
21
1.61969
0
LINE
8
BLACK
6
CONTINUOUS
10
0.857244
20
1.61969
11
0.857244
21
1.58031
0
LINE
8
BLACK
6
CONTINUOUS
10
1.56591
20
1.58031
11
1.4163
21
1.58031
0
LINE
8
BLACK
6
CONTINUOUS
10
1.4163
20
1.58031
11
1.4163
21
1.61969
0
LINE
8
BLACK
6
CONTINUOUS
10
1.4163
20
1.61969
11
1.56591
21
1.61969
0
LINE
8
BLACK
6
CONTINUOUS
10
1.56591
20
1.61969
11
1.56591
21
1.58031
0
LINE
8
BLACK
6
CONTINUOUS
10
0.621024
20
1.58031
11
0.471417
21
1.58031
0
LINE
8
BLACK
6
CONTINUOUS
10
0.471417
20
1.58031
11
0.471417
21
1.61969
0
LINE
8
BLACK
6
CONTINUOUS
10
0.471417
20
1.61969
11
0.621024
21
1.61969
0
LINE
8
BLACK
6
CONTINUOUS
10
0.621024
20
1.61969
11
0.621024
21
1.58031
0
LINE
8
BLACK
6
CONTINUOUS
10
1.32969
20
1.58031
11
1.18008
21
1.58031
0
LINE
8
BLACK
6
CONTINUOUS
10
1.18008
20
1.58031
11
1.18008
21
1.61969
0
LINE
8
BLACK
6
CONTINUOUS
10
1.18008
20
1.61969
11
1.32969
21
1.61969
0
LINE
8
BLACK
6
CONTINUOUS
10
1.32969
20
1.61969
11
1.32969
21
1.58031
0
LINE
8
BLACK
6
CONTINUOUS
10
1.09346
20
1.58031
11
0.943858
21
1.58031
0
LINE
8
BLACK
6
CONTINUOUS
10
0.943858
20
1.58031
11
0.943858
21
1.61969
0
LINE
8
BLACK
6
CONTINUOUS
10
0.943858
20
1.61969
11
1.09346
21
1.61969
0
LINE
8
BLACK
6
CONTINUOUS
10
1.09346
20
1.61969
11
1.09346
21
1.58031
  0
ENDSEC
  0
EOF
