  0
SECTION
  2
HEADER
  9
$ANGBASE
  50
0.0
  9
$ANGDIR
  70
1
  9
$MEASUREMENT
  70
0
  0
ENDSEC
  0
SECTION
  2
TABLES
  0
TABLE
  2
LTYPE
  70
4
  0
LTYPE
  5
40F
  2
CONTINUOUS
  70
0
  3
Solid line
  72
65
  73
0
  40
0.0
  0
LTYPE
  5
410
  2
DASHDOT
 70
0
  3
Dash Dot ____ _ ____ _
 72
65
 73
4
 40
2.0
 49
1.25
 49
-0.25
 49
0.25
 49
-0.25
  0
LTYPE
  5
411
  2
DASHED
 70
0
  3
Dashed __ __ __ __ __
 72
65
 73
2
 40
0.75
 49
0.5
 49
-0.25
  0
LTYPE
  5
43B
  2
DOTTED
 70
0
  3
Dotted .  .  .  .
 72
65
 73
2
 40
0.2
 49
0.0
 49
-0.2
  0
ENDTAB
  0
TABLE
  2
STYLE
  70
4
  0
STYLE
  2
KICAD
  70
0
  40
0
  41
1
  42
1
  50
0
  71
0
  3
isocp.shx
  0
STYLE
  2
KICADB
  70
0
  40
0
  41
1
  42
1
  50
0
  71
0
  3
isocp.shx
  0
STYLE
  2
KICADI
  70
0
  40
0
  41
1
  42
1
  50
15
  71
0
  3
isocp.shx
  0
STYLE
  2
KICADBI
  70
0
  40
0
  41
1
  42
1
  50
15
  71
0
  3
isocp.shx
  0
ENDTAB
  0
TABLE
  2
LAYER
  70
1
  0
LAYER
  2
BLACK
  70
0
  62
7
  6
CONTINUOUS
  0
ENDTAB
  0
ENDSEC
  0
SECTION
  2
ENTITIES
0
LINE
8
BLACK
6
CONTINUOUS
10
0.486972
20
0.339295
11
0.487107
21
0.339182
0
LINE
8
BLACK
6
CONTINUOUS
10
0.487107
20
0.339182
11
0.487282
21
0.339161
0
LINE
8
BLACK
6
CONTINUOUS
10
0.487282
20
0.339161
11
0.491032
21
0.337287
0
LINE
8
BLACK
6
CONTINUOUS
10
0.491032
20
0.337287
11
0.491741
21
0.336761
0
LINE
8
BLACK
6
CONTINUOUS
10
0.491741
20
0.336761
11
0.491799
21
0.336734
0
LINE
8
BLACK
6
CONTINUOUS
10
0.491799
20
0.336734
11
0.493674
21
0.334859
0
LINE
8
BLACK
6
CONTINUOUS
10
0.493674
20
0.334859
11
0.49418
21
0.334136
0
LINE
8
BLACK
6
CONTINUOUS
10
0.49418
20
0.334136
11
0.494227
21
0.334091
0
LINE
8
BLACK
6
CONTINUOUS
10
0.494227
20
0.334091
11
0.496102
21
0.330342
0
LINE
8
BLACK
6
CONTINUOUS
10
0.496102
20
0.330342
11
0.496394
21
0.329359
0
LINE
8
BLACK
6
CONTINUOUS
10
0.496394
20
0.329359
11
0.496353
21
0.329187
0
LINE
8
BLACK
6
CONTINUOUS
10
0.496353
20
0.329187
11
0.496414
21
0.329021
0
LINE
8
BLACK
6
CONTINUOUS
10
0.496414
20
0.329021
11
0.496414
21
0.325272
0
LINE
8
BLACK
6
CONTINUOUS
10
0.496414
20
0.325272
11
0.496235
21
0.324262
0
LINE
8
BLACK
6
CONTINUOUS
10
0.496235
20
0.324262
11
0.496122
21
0.324127
0
LINE
8
BLACK
6
CONTINUOUS
10
0.496122
20
0.324127
11
0.496102
21
0.323951
0
LINE
8
BLACK
6
CONTINUOUS
10
0.496102
20
0.323951
11
0.494227
21
0.320202
0
LINE
8
BLACK
6
CONTINUOUS
10
0.494227
20
0.320202
11
0.493701
21
0.319493
0
LINE
8
BLACK
6
CONTINUOUS
10
0.493701
20
0.319493
11
0.493674
21
0.319434
0
LINE
8
BLACK
6
CONTINUOUS
10
0.493674
20
0.319434
11
0.492792
21
0.318552
0
LINE
8
BLACK
6
CONTINUOUS
10
0.492792
20
0.318552
11
0.493422
21
0.318211
0
LINE
8
BLACK
6
CONTINUOUS
10
0.493422
20
0.318211
11
0.493514
21
0.318061
0
LINE
8
BLACK
6
CONTINUOUS
10
0.493514
20
0.318061
11
0.493674
21
0.317986
0
LINE
8
BLACK
6
CONTINUOUS
10
0.493674
20
0.317986
11
0.495549
21
0.316111
0
LINE
8
BLACK
6
CONTINUOUS
10
0.495549
20
0.316111
11
0.496055
21
0.315388
0
LINE
8
BLACK
6
CONTINUOUS
10
0.496055
20
0.315388
11
0.496102
21
0.315344
0
LINE
8
BLACK
6
CONTINUOUS
10
0.496102
20
0.315344
11
0.497977
21
0.311594
0
LINE
8
BLACK
6
CONTINUOUS
10
0.497977
20
0.311594
11
0.498269
21
0.310611
0
LINE
8
BLACK
6
CONTINUOUS
10
0.498269
20
0.310611
11
0.498228
21
0.31044
0
LINE
8
BLACK
6
CONTINUOUS
10
0.498228
20
0.31044
11
0.498288
21
0.310274
0
LINE
8
BLACK
6
CONTINUOUS
10
0.498288
20
0.310274
11
0.498288
21
0.304649
0
LINE
8
BLACK
6
CONTINUOUS
10
0.498288
20
0.304649
11
0.49811
21
0.303639
0
LINE
8
BLACK
6
CONTINUOUS
10
0.49811
20
0.303639
11
0.497997
21
0.303504
0
LINE
8
BLACK
6
CONTINUOUS
10
0.497997
20
0.303504
11
0.497977
21
0.303329
0
LINE
8
BLACK
6
CONTINUOUS
10
0.497977
20
0.303329
11
0.496102
21
0.299579
0
LINE
8
BLACK
6
CONTINUOUS
10
0.496102
20
0.299579
11
0.495576
21
0.29887
0
LINE
8
BLACK
6
CONTINUOUS
10
0.495576
20
0.29887
11
0.495549
21
0.298812
0
LINE
8
BLACK
6
CONTINUOUS
10
0.495549
20
0.298812
11
0.493674
21
0.296937
0
LINE
8
BLACK
6
CONTINUOUS
10
0.493674
20
0.296937
11
0.492951
21
0.296431
0
LINE
8
BLACK
6
CONTINUOUS
10
0.492951
20
0.296431
11
0.492907
21
0.296384
0
LINE
8
BLACK
6
CONTINUOUS
10
0.492907
20
0.296384
11
0.489157
21
0.294509
0
LINE
8
BLACK
6
CONTINUOUS
10
0.489157
20
0.294509
11
0.488174
21
0.294217
0
LINE
8
BLACK
6
CONTINUOUS
10
0.488174
20
0.294217
11
0.488002
21
0.294258
0
LINE
8
BLACK
6
CONTINUOUS
10
0.488002
20
0.294258
11
0.487836
21
0.294198
0
LINE
8
BLACK
6
CONTINUOUS
10
0.487836
20
0.294198
11
0.472838
21
0.294198
0
LINE
8
BLACK
6
CONTINUOUS
10
0.472838
20
0.294198
11
0.472455
21
0.294265
0
LINE
8
BLACK
6
CONTINUOUS
10
0.472455
20
0.294265
11
0.472326
21
0.294242
0
LINE
8
BLACK
6
CONTINUOUS
10
0.472326
20
0.294242
11
0.472212
21
0.294308
0
LINE
8
BLACK
6
CONTINUOUS
10
0.472212
20
0.294308
11
0.471828
21
0.294376
0
LINE
8
BLACK
6
CONTINUOUS
10
0.471828
20
0.294376
11
0.471241
21
0.294869
0
LINE
8
BLACK
6
CONTINUOUS
10
0.471241
20
0.294869
11
0.470576
21
0.295252
0
LINE
8
BLACK
6
CONTINUOUS
10
0.470576
20
0.295252
11
0.470485
21
0.295503
0
LINE
8
BLACK
6
CONTINUOUS
10
0.470485
20
0.295503
11
0.470281
21
0.295674
0
LINE
8
BLACK
6
CONTINUOUS
10
0.470281
20
0.295674
11
0.470148
21
0.29643
0
LINE
8
BLACK
6
CONTINUOUS
10
0.470148
20
0.29643
11
0.469886
21
0.29715
0
LINE
8
BLACK
6
CONTINUOUS
10
0.469886
20
0.29715
11
0.469886
21
0.33652
0
LINE
8
BLACK
6
CONTINUOUS
10
0.469886
20
0.33652
11
0.469953
21
0.336904
0
LINE
8
BLACK
6
CONTINUOUS
10
0.469953
20
0.336904
11
0.46993
21
0.337033
0
LINE
8
BLACK
6
CONTINUOUS
10
0.46993
20
0.337033
11
0.469996
21
0.337147
0
LINE
8
BLACK
6
CONTINUOUS
10
0.469996
20
0.337147
11
0.470064
21
0.33753
0
LINE
8
BLACK
6
CONTINUOUS
10
0.470064
20
0.33753
11
0.470557
21
0.338118
0
LINE
8
BLACK
6
CONTINUOUS
10
0.470557
20
0.338118
11
0.47094
21
0.338782
0
LINE
8
BLACK
6
CONTINUOUS
10
0.47094
20
0.338782
11
0.471191
21
0.338873
0
LINE
8
BLACK
6
CONTINUOUS
10
0.471191
20
0.338873
11
0.471362
21
0.339078
0
LINE
8
BLACK
6
CONTINUOUS
10
0.471362
20
0.339078
11
0.472118
21
0.339211
0
LINE
8
BLACK
6
CONTINUOUS
10
0.472118
20
0.339211
11
0.472838
21
0.339473
0
LINE
8
BLACK
6
CONTINUOUS
10
0.472838
20
0.339473
11
0.485962
21
0.339473
0
LINE
8
BLACK
6
CONTINUOUS
10
0.485962
20
0.339473
11
0.486972
21
0.339295
0
LINE
8
BLACK
6
CONTINUOUS
10
0.475791
20
0.31482
11
0.475791
21
0.300103
0
LINE
8
BLACK
6
CONTINUOUS
10
0.475791
20
0.300103
11
0.487139
21
0.300103
0
LINE
8
BLACK
6
CONTINUOUS
10
0.487139
20
0.300103
11
0.489837
21
0.301452
0
LINE
8
BLACK
6
CONTINUOUS
10
0.489837
20
0.301452
11
0.491034
21
0.302649
0
LINE
8
BLACK
6
CONTINUOUS
10
0.491034
20
0.302649
11
0.492383
21
0.305346
0
LINE
8
BLACK
6
CONTINUOUS
10
0.492383
20
0.305346
11
0.492383
21
0.309577
0
LINE
8
BLACK
6
CONTINUOUS
10
0.492383
20
0.309577
11
0.491034
21
0.312274
0
LINE
8
BLACK
6
CONTINUOUS
10
0.491034
20
0.312274
11
0.489991
21
0.313317
0
LINE
8
BLACK
6
CONTINUOUS
10
0.489991
20
0.313317
11
0.485483
21
0.31482
0
LINE
8
BLACK
6
CONTINUOUS
10
0.485483
20
0.31482
11
0.475791
21
0.31482
0
LINE
8
BLACK
6
CONTINUOUS
10
0.475791
20
0.333568
11
0.475791
21
0.320726
0
LINE
8
BLACK
6
CONTINUOUS
10
0.475791
20
0.320726
11
0.485265
21
0.320726
0
LINE
8
BLACK
6
CONTINUOUS
10
0.485265
20
0.320726
11
0.487962
21
0.322074
0
LINE
8
BLACK
6
CONTINUOUS
10
0.487962
20
0.322074
11
0.489159
21
0.323271
0
LINE
8
BLACK
6
CONTINUOUS
10
0.489159
20
0.323271
11
0.490508
21
0.325969
0
LINE
8
BLACK
6
CONTINUOUS
10
0.490508
20
0.325969
11
0.490508
21
0.328324
0
LINE
8
BLACK
6
CONTINUOUS
10
0.490508
20
0.328324
11
0.489159
21
0.331022
0
LINE
8
BLACK
6
CONTINUOUS
10
0.489159
20
0.331022
11
0.487962
21
0.332219
0
LINE
8
BLACK
6
CONTINUOUS
10
0.487962
20
0.332219
11
0.485265
21
0.333568
0
LINE
8
BLACK
6
CONTINUOUS
10
0.485265
20
0.333568
11
0.475791
21
0.333568
0
LINE
8
BLACK
6
CONTINUOUS
10
0.760687
20
0.339295
11
0.760823
21
0.339182
0
LINE
8
BLACK
6
CONTINUOUS
10
0.760823
20
0.339182
11
0.760998
21
0.339161
0
LINE
8
BLACK
6
CONTINUOUS
10
0.760998
20
0.339161
11
0.764748
21
0.337287
0
LINE
8
BLACK
6
CONTINUOUS
10
0.764748
20
0.337287
11
0.765457
21
0.336761
0
LINE
8
BLACK
6
CONTINUOUS
10
0.765457
20
0.336761
11
0.765515
21
0.336734
0
LINE
8
BLACK
6
CONTINUOUS
10
0.765515
20
0.336734
11
0.76739
21
0.334859
0
LINE
8
BLACK
6
CONTINUOUS
10
0.76739
20
0.334859
11
0.767896
21
0.334136
0
LINE
8
BLACK
6
CONTINUOUS
10
0.767896
20
0.334136
11
0.767943
21
0.334091
0
LINE
8
BLACK
6
CONTINUOUS
10
0.767943
20
0.334091
11
0.769818
21
0.330342
0
LINE
8
BLACK
6
CONTINUOUS
10
0.769818
20
0.330342
11
0.769963
21
0.329853
0
LINE
8
BLACK
6
CONTINUOUS
10
0.769963
20
0.329853
11
0.770041
21
0.329737
0
LINE
8
BLACK
6
CONTINUOUS
10
0.770041
20
0.329737
11
0.771916
21
0.322238
0
LINE
8
BLACK
6
CONTINUOUS
10
0.771916
20
0.322238
11
0.771957
21
0.321651
0
LINE
8
BLACK
6
CONTINUOUS
10
0.771957
20
0.321651
11
0.772004
21
0.321522
0
LINE
8
BLACK
6
CONTINUOUS
10
0.772004
20
0.321522
11
0.772004
21
0.312148
0
LINE
8
BLACK
6
CONTINUOUS
10
0.772004
20
0.312148
11
0.771902
21
0.311568
0
LINE
8
BLACK
6
CONTINUOUS
10
0.771902
20
0.311568
11
0.771916
21
0.311432
0
LINE
8
BLACK
6
CONTINUOUS
10
0.771916
20
0.311432
11
0.770041
21
0.303933
0
LINE
8
BLACK
6
CONTINUOUS
10
0.770041
20
0.303933
11
0.769834
21
0.303468
0
LINE
8
BLACK
6
CONTINUOUS
10
0.769834
20
0.303468
11
0.769818
21
0.303329
0
LINE
8
BLACK
6
CONTINUOUS
10
0.769818
20
0.303329
11
0.767943
21
0.299579
0
LINE
8
BLACK
6
CONTINUOUS
10
0.767943
20
0.299579
11
0.767417
21
0.29887
0
LINE
8
BLACK
6
CONTINUOUS
10
0.767417
20
0.29887
11
0.76739
21
0.298812
0
LINE
8
BLACK
6
CONTINUOUS
10
0.76739
20
0.298812
11
0.765515
21
0.296937
0
LINE
8
BLACK
6
CONTINUOUS
10
0.765515
20
0.296937
11
0.764792
21
0.296431
0
LINE
8
BLACK
6
CONTINUOUS
10
0.764792
20
0.296431
11
0.764748
21
0.296384
0
LINE
8
BLACK
6
CONTINUOUS
10
0.764748
20
0.296384
11
0.760998
21
0.294509
0
LINE
8
BLACK
6
CONTINUOUS
10
0.760998
20
0.294509
11
0.760015
21
0.294217
0
LINE
8
BLACK
6
CONTINUOUS
10
0.760015
20
0.294217
11
0.759843
21
0.294258
0
LINE
8
BLACK
6
CONTINUOUS
10
0.759843
20
0.294258
11
0.759678
21
0.294198
0
LINE
8
BLACK
6
CONTINUOUS
10
0.759678
20
0.294198
11
0.755928
21
0.294198
0
LINE
8
BLACK
6
CONTINUOUS
10
0.755928
20
0.294198
11
0.754918
21
0.294376
0
LINE
8
BLACK
6
CONTINUOUS
10
0.754918
20
0.294376
11
0.754783
21
0.294489
0
LINE
8
BLACK
6
CONTINUOUS
10
0.754783
20
0.294489
11
0.754607
21
0.294509
0
LINE
8
BLACK
6
CONTINUOUS
10
0.754607
20
0.294509
11
0.750858
21
0.296384
0
LINE
8
BLACK
6
CONTINUOUS
10
0.750858
20
0.296384
11
0.750149
21
0.29691
0
LINE
8
BLACK
6
CONTINUOUS
10
0.750149
20
0.29691
11
0.750091
21
0.296937
0
LINE
8
BLACK
6
CONTINUOUS
10
0.750091
20
0.296937
11
0.748216
21
0.298812
0
LINE
8
BLACK
6
CONTINUOUS
10
0.748216
20
0.298812
11
0.747709
21
0.299535
0
LINE
8
BLACK
6
CONTINUOUS
10
0.747709
20
0.299535
11
0.747663
21
0.299579
0
LINE
8
BLACK
6
CONTINUOUS
10
0.747663
20
0.299579
11
0.745788
21
0.303329
0
LINE
8
BLACK
6
CONTINUOUS
10
0.745788
20
0.303329
11
0.745643
21
0.303817
0
LINE
8
BLACK
6
CONTINUOUS
10
0.745643
20
0.303817
11
0.745564
21
0.303933
0
LINE
8
BLACK
6
CONTINUOUS
10
0.745564
20
0.303933
11
0.74369
21
0.311432
0
LINE
8
BLACK
6
CONTINUOUS
10
0.74369
20
0.311432
11
0.743648
21
0.31202
0
LINE
8
BLACK
6
CONTINUOUS
10
0.743648
20
0.31202
11
0.743601
21
0.312148
0
LINE
8
BLACK
6
CONTINUOUS
10
0.743601
20
0.312148
11
0.743601
21
0.321522
0
LINE
8
BLACK
6
CONTINUOUS
10
0.743601
20
0.321522
11
0.743704
21
0.322103
0
LINE
8
BLACK
6
CONTINUOUS
10
0.743704
20
0.322103
11
0.74369
21
0.322238
0
LINE
8
BLACK
6
CONTINUOUS
10
0.74369
20
0.322238
11
0.745564
21
0.329737
0
LINE
8
BLACK
6
CONTINUOUS
10
0.745564
20
0.329737
11
0.745772
21
0.330203
0
LINE
8
BLACK
6
CONTINUOUS
10
0.745772
20
0.330203
11
0.745788
21
0.330342
0
LINE
8
BLACK
6
CONTINUOUS
10
0.745788
20
0.330342
11
0.747663
21
0.334091
0
LINE
8
BLACK
6
CONTINUOUS
10
0.747663
20
0.334091
11
0.748189
21
0.3348
0
LINE
8
BLACK
6
CONTINUOUS
10
0.748189
20
0.3348
11
0.748216
21
0.334859
0
LINE
8
BLACK
6
CONTINUOUS
10
0.748216
20
0.334859
11
0.750091
21
0.336734
0
LINE
8
BLACK
6
CONTINUOUS
10
0.750091
20
0.336734
11
0.750814
21
0.33724
0
LINE
8
BLACK
6
CONTINUOUS
10
0.750814
20
0.33724
11
0.750858
21
0.337287
0
LINE
8
BLACK
6
CONTINUOUS
10
0.750858
20
0.337287
11
0.754607
21
0.339161
0
LINE
8
BLACK
6
CONTINUOUS
10
0.754607
20
0.339161
11
0.75559
21
0.339454
0
LINE
8
BLACK
6
CONTINUOUS
10
0.75559
20
0.339454
11
0.755762
21
0.339413
0
LINE
8
BLACK
6
CONTINUOUS
10
0.755762
20
0.339413
11
0.755928
21
0.339473
0
LINE
8
BLACK
6
CONTINUOUS
10
0.755928
20
0.339473
11
0.759678
21
0.339473
0
LINE
8
BLACK
6
CONTINUOUS
10
0.759678
20
0.339473
11
0.760687
21
0.339295
0
LINE
8
BLACK
6
CONTINUOUS
10
0.756625
20
0.333568
11
0.753928
21
0.332219
0
LINE
8
BLACK
6
CONTINUOUS
10
0.753928
20
0.332219
11
0.75273
21
0.331022
0
LINE
8
BLACK
6
CONTINUOUS
10
0.75273
20
0.331022
11
0.751215
21
0.327991
0
LINE
8
BLACK
6
CONTINUOUS
10
0.751215
20
0.327991
11
0.749507
21
0.321159
0
LINE
8
BLACK
6
CONTINUOUS
10
0.749507
20
0.321159
11
0.749507
21
0.312512
0
LINE
8
BLACK
6
CONTINUOUS
10
0.749507
20
0.312512
11
0.751215
21
0.30568
0
LINE
8
BLACK
6
CONTINUOUS
10
0.751215
20
0.30568
11
0.75273
21
0.302649
0
LINE
8
BLACK
6
CONTINUOUS
10
0.75273
20
0.302649
11
0.753928
21
0.301452
0
LINE
8
BLACK
6
CONTINUOUS
10
0.753928
20
0.301452
11
0.756625
21
0.300103
0
LINE
8
BLACK
6
CONTINUOUS
10
0.756625
20
0.300103
11
0.75898
21
0.300103
0
LINE
8
BLACK
6
CONTINUOUS
10
0.75898
20
0.300103
11
0.761678
21
0.301452
0
LINE
8
BLACK
6
CONTINUOUS
10
0.761678
20
0.301452
11
0.762875
21
0.302649
0
LINE
8
BLACK
6
CONTINUOUS
10
0.762875
20
0.302649
11
0.764391
21
0.30568
0
LINE
8
BLACK
6
CONTINUOUS
10
0.764391
20
0.30568
11
0.766099
21
0.312512
0
LINE
8
BLACK
6
CONTINUOUS
10
0.766099
20
0.312512
11
0.766099
21
0.321159
0
LINE
8
BLACK
6
CONTINUOUS
10
0.766099
20
0.321159
11
0.764391
21
0.327991
0
LINE
8
BLACK
6
CONTINUOUS
10
0.764391
20
0.327991
11
0.762875
21
0.331022
0
LINE
8
BLACK
6
CONTINUOUS
10
0.762875
20
0.331022
11
0.761678
21
0.332219
0
LINE
8
BLACK
6
CONTINUOUS
10
0.761678
20
0.332219
11
0.75898
21
0.333568
0
LINE
8
BLACK
6
CONTINUOUS
10
0.75898
20
0.333568
11
0.756625
21
0.333568
0
LINE
8
BLACK
6
CONTINUOUS
10
0.725067
20
0.339295
11
0.725202
21
0.339182
0
LINE
8
BLACK
6
CONTINUOUS
10
0.725202
20
0.339182
11
0.725377
21
0.339161
0
LINE
8
BLACK
6
CONTINUOUS
10
0.725377
20
0.339161
11
0.729127
21
0.337287
0
LINE
8
BLACK
6
CONTINUOUS
10
0.729127
20
0.337287
11
0.729836
21
0.336761
0
LINE
8
BLACK
6
CONTINUOUS
10
0.729836
20
0.336761
11
0.729894
21
0.336734
0
LINE
8
BLACK
6
CONTINUOUS
10
0.729894
20
0.336734
11
0.731769
21
0.334859
0
LINE
8
BLACK
6
CONTINUOUS
10
0.731769
20
0.334859
11
0.732275
21
0.334136
0
LINE
8
BLACK
6
CONTINUOUS
10
0.732275
20
0.334136
11
0.732322
21
0.334091
0
LINE
8
BLACK
6
CONTINUOUS
10
0.732322
20
0.334091
11
0.734197
21
0.330342
0
LINE
8
BLACK
6
CONTINUOUS
10
0.734197
20
0.330342
11
0.734489
21
0.329359
0
LINE
8
BLACK
6
CONTINUOUS
10
0.734489
20
0.329359
11
0.734448
21
0.329187
0
LINE
8
BLACK
6
CONTINUOUS
10
0.734448
20
0.329187
11
0.734509
21
0.329021
0
LINE
8
BLACK
6
CONTINUOUS
10
0.734509
20
0.329021
11
0.734509
21
0.325272
0
LINE
8
BLACK
6
CONTINUOUS
10
0.734509
20
0.325272
11
0.734355
21
0.324402
0
LINE
8
BLACK
6
CONTINUOUS
10
0.734355
20
0.324402
11
0.734357
21
0.324338
0
LINE
8
BLACK
6
CONTINUOUS
10
0.734357
20
0.324338
11
0.732482
21
0.318714
0
LINE
8
BLACK
6
CONTINUOUS
10
0.732482
20
0.318714
11
0.731994
21
0.317812
0
LINE
8
BLACK
6
CONTINUOUS
10
0.731994
20
0.317812
11
0.731844
21
0.31772
0
LINE
8
BLACK
6
CONTINUOUS
10
0.731844
20
0.31772
11
0.731769
21
0.31756
0
LINE
8
BLACK
6
CONTINUOUS
10
0.731769
20
0.31756
11
0.714313
21
0.300103
0
LINE
8
BLACK
6
CONTINUOUS
10
0.714313
20
0.300103
11
0.731556
21
0.300103
0
LINE
8
BLACK
6
CONTINUOUS
10
0.731556
20
0.300103
11
0.732566
21
0.299925
0
LINE
8
BLACK
6
CONTINUOUS
10
0.732566
20
0.299925
11
0.734113
21
0.298627
0
LINE
8
BLACK
6
CONTINUOUS
10
0.734113
20
0.298627
11
0.734464
21
0.296638
0
LINE
8
BLACK
6
CONTINUOUS
10
0.734464
20
0.296638
11
0.733454
21
0.294888
0
LINE
8
BLACK
6
CONTINUOUS
10
0.733454
20
0.294888
11
0.731556
21
0.294198
0
LINE
8
BLACK
6
CONTINUOUS
10
0.731556
20
0.294198
11
0.707184
21
0.294198
0
LINE
8
BLACK
6
CONTINUOUS
10
0.707184
20
0.294198
11
0.706549
21
0.29431
0
LINE
8
BLACK
6
CONTINUOUS
10
0.706549
20
0.29431
11
0.70642
21
0.294298
0
LINE
8
BLACK
6
CONTINUOUS
10
0.70642
20
0.294298
11
0.706355
21
0.294344
0
LINE
8
BLACK
6
CONTINUOUS
10
0.706355
20
0.294344
11
0.706174
21
0.294376
0
LINE
8
BLACK
6
CONTINUOUS
10
0.706174
20
0.294376
11
0.705493
21
0.294947
0
LINE
8
BLACK
6
CONTINUOUS
10
0.705493
20
0.294947
11
0.704765
21
0.295457
0
LINE
8
BLACK
6
CONTINUOUS
10
0.704765
20
0.295457
11
0.70473
21
0.295587
0
LINE
8
BLACK
6
CONTINUOUS
10
0.70473
20
0.295587
11
0.704627
21
0.295674
0
LINE
8
BLACK
6
CONTINUOUS
10
0.704627
20
0.295674
11
0.704473
21
0.296549
0
LINE
8
BLACK
6
CONTINUOUS
10
0.704473
20
0.296549
11
0.704243
21
0.297408
0
LINE
8
BLACK
6
CONTINUOUS
10
0.704243
20
0.297408
11
0.7043
21
0.29753
0
LINE
8
BLACK
6
CONTINUOUS
10
0.7043
20
0.29753
11
0.704276
21
0.297663
0
LINE
8
BLACK
6
CONTINUOUS
10
0.704276
20
0.297663
11
0.704721
21
0.298433
0
LINE
8
BLACK
6
CONTINUOUS
10
0.704721
20
0.298433
11
0.705096
21
0.299238
0
LINE
8
BLACK
6
CONTINUOUS
10
0.705096
20
0.299238
11
0.7271
21
0.321243
0
LINE
8
BLACK
6
CONTINUOUS
10
0.7271
20
0.321243
11
0.728603
21
0.325751
0
LINE
8
BLACK
6
CONTINUOUS
10
0.728603
20
0.325751
11
0.728603
21
0.328324
0
LINE
8
BLACK
6
CONTINUOUS
10
0.728603
20
0.328324
11
0.727255
21
0.331022
0
LINE
8
BLACK
6
CONTINUOUS
10
0.727255
20
0.331022
11
0.726057
21
0.332219
0
LINE
8
BLACK
6
CONTINUOUS
10
0.726057
20
0.332219
11
0.72336
21
0.333568
0
LINE
8
BLACK
6
CONTINUOUS
10
0.72336
20
0.333568
11
0.71538
21
0.333568
0
LINE
8
BLACK
6
CONTINUOUS
10
0.71538
20
0.333568
11
0.712683
21
0.332219
0
LINE
8
BLACK
6
CONTINUOUS
10
0.712683
20
0.332219
11
0.711147
21
0.330683
0
LINE
8
BLACK
6
CONTINUOUS
10
0.711147
20
0.330683
11
0.710307
21
0.330095
0
LINE
8
BLACK
6
CONTINUOUS
10
0.710307
20
0.330095
11
0.708295
21
0.329919
0
LINE
8
BLACK
6
CONTINUOUS
10
0.708295
20
0.329919
11
0.70664
21
0.331077
0
LINE
8
BLACK
6
CONTINUOUS
10
0.70664
20
0.331077
11
0.706117
21
0.333028
0
LINE
8
BLACK
6
CONTINUOUS
10
0.706117
20
0.333028
11
0.706971
21
0.334859
0
LINE
8
BLACK
6
CONTINUOUS
10
0.706971
20
0.334859
11
0.708846
21
0.336734
0
LINE
8
BLACK
6
CONTINUOUS
10
0.708846
20
0.336734
11
0.709569
21
0.33724
0
LINE
8
BLACK
6
CONTINUOUS
10
0.709569
20
0.33724
11
0.709613
21
0.337287
0
LINE
8
BLACK
6
CONTINUOUS
10
0.709613
20
0.337287
11
0.713363
21
0.339161
0
LINE
8
BLACK
6
CONTINUOUS
10
0.713363
20
0.339161
11
0.714346
21
0.339454
0
LINE
8
BLACK
6
CONTINUOUS
10
0.714346
20
0.339454
11
0.714517
21
0.339413
0
LINE
8
BLACK
6
CONTINUOUS
10
0.714517
20
0.339413
11
0.714683
21
0.339473
0
LINE
8
BLACK
6
CONTINUOUS
10
0.714683
20
0.339473
11
0.724057
21
0.339473
0
LINE
8
BLACK
6
CONTINUOUS
10
0.724057
20
0.339473
11
0.725067
21
0.339295
0
LINE
8
BLACK
6
CONTINUOUS
10
0.640562
20
0.33932
11
0.640626
21
0.339322
0
LINE
8
BLACK
6
CONTINUOUS
10
0.640626
20
0.339322
11
0.646251
21
0.337447
0
LINE
8
BLACK
6
CONTINUOUS
10
0.646251
20
0.337447
11
0.647152
21
0.336959
0
LINE
8
BLACK
6
CONTINUOUS
10
0.647152
20
0.336959
11
0.64821
21
0.335238
0
LINE
8
BLACK
6
CONTINUOUS
10
0.64821
20
0.335238
11
0.647913
21
0.33324
0
LINE
8
BLACK
6
CONTINUOUS
10
0.647913
20
0.33324
11
0.646402
21
0.3319
0
LINE
8
BLACK
6
CONTINUOUS
10
0.646402
20
0.3319
11
0.644383
21
0.331844
0
LINE
8
BLACK
6
CONTINUOUS
10
0.644383
20
0.331844
11
0.639213
21
0.333568
0
LINE
8
BLACK
6
CONTINUOUS
10
0.639213
20
0.333568
11
0.631016
21
0.333568
0
LINE
8
BLACK
6
CONTINUOUS
10
0.631016
20
0.333568
11
0.628318
21
0.332219
0
LINE
8
BLACK
6
CONTINUOUS
10
0.628318
20
0.332219
11
0.627121
21
0.331022
0
LINE
8
BLACK
6
CONTINUOUS
10
0.627121
20
0.331022
11
0.625772
21
0.328324
0
LINE
8
BLACK
6
CONTINUOUS
10
0.625772
20
0.328324
11
0.625772
21
0.325969
0
LINE
8
BLACK
6
CONTINUOUS
10
0.625772
20
0.325969
11
0.627121
21
0.323271
0
LINE
8
BLACK
6
CONTINUOUS
10
0.627121
20
0.323271
11
0.628318
21
0.322074
0
LINE
8
BLACK
6
CONTINUOUS
10
0.628318
20
0.322074
11
0.631349
21
0.320559
0
LINE
8
BLACK
6
CONTINUOUS
10
0.631349
20
0.320559
11
0.638534
21
0.318763
0
LINE
8
BLACK
6
CONTINUOUS
10
0.638534
20
0.318763
11
0.638999
21
0.318555
0
LINE
8
BLACK
6
CONTINUOUS
10
0.638999
20
0.318555
11
0.639138
21
0.318539
0
LINE
8
BLACK
6
CONTINUOUS
10
0.639138
20
0.318539
11
0.642888
21
0.316664
0
LINE
8
BLACK
6
CONTINUOUS
10
0.642888
20
0.316664
11
0.643597
21
0.316138
0
LINE
8
BLACK
6
CONTINUOUS
10
0.643597
20
0.316138
11
0.643655
21
0.316111
0
LINE
8
BLACK
6
CONTINUOUS
10
0.643655
20
0.316111
11
0.64553
21
0.314236
0
LINE
8
BLACK
6
CONTINUOUS
10
0.64553
20
0.314236
11
0.646036
21
0.313513
0
LINE
8
BLACK
6
CONTINUOUS
10
0.646036
20
0.313513
11
0.646083
21
0.313469
0
LINE
8
BLACK
6
CONTINUOUS
10
0.646083
20
0.313469
11
0.647958
21
0.309719
0
LINE
8
BLACK
6
CONTINUOUS
10
0.647958
20
0.309719
11
0.64825
21
0.308737
0
LINE
8
BLACK
6
CONTINUOUS
10
0.64825
20
0.308737
11
0.648209
21
0.308565
0
LINE
8
BLACK
6
CONTINUOUS
10
0.648209
20
0.308565
11
0.64827
21
0.308399
0
LINE
8
BLACK
6
CONTINUOUS
10
0.64827
20
0.308399
11
0.64827
21
0.304649
0
LINE
8
BLACK
6
CONTINUOUS
10
0.64827
20
0.304649
11
0.648091
21
0.303639
0
LINE
8
BLACK
6
CONTINUOUS
10
0.648091
20
0.303639
11
0.647978
21
0.303504
0
LINE
8
BLACK
6
CONTINUOUS
10
0.647978
20
0.303504
11
0.647958
21
0.303329
0
LINE
8
BLACK
6
CONTINUOUS
10
0.647958
20
0.303329
11
0.646083
21
0.299579
0
LINE
8
BLACK
6
CONTINUOUS
10
0.646083
20
0.299579
11
0.645557
21
0.29887
0
LINE
8
BLACK
6
CONTINUOUS
10
0.645557
20
0.29887
11
0.64553
21
0.298812
0
LINE
8
BLACK
6
CONTINUOUS
10
0.64553
20
0.298812
11
0.643655
21
0.296937
0
LINE
8
BLACK
6
CONTINUOUS
10
0.643655
20
0.296937
11
0.642932
21
0.296431
0
LINE
8
BLACK
6
CONTINUOUS
10
0.642932
20
0.296431
11
0.642888
21
0.296384
0
LINE
8
BLACK
6
CONTINUOUS
10
0.642888
20
0.296384
11
0.639138
21
0.294509
0
LINE
8
BLACK
6
CONTINUOUS
10
0.639138
20
0.294509
11
0.638155
21
0.294217
0
LINE
8
BLACK
6
CONTINUOUS
10
0.638155
20
0.294217
11
0.637984
21
0.294258
0
LINE
8
BLACK
6
CONTINUOUS
10
0.637984
20
0.294258
11
0.637818
21
0.294198
0
LINE
8
BLACK
6
CONTINUOUS
10
0.637818
20
0.294198
11
0.628444
21
0.294198
0
LINE
8
BLACK
6
CONTINUOUS
10
0.628444
20
0.294198
11
0.627575
21
0.294351
0
LINE
8
BLACK
6
CONTINUOUS
10
0.627575
20
0.294351
11
0.62751
21
0.294349
0
LINE
8
BLACK
6
CONTINUOUS
10
0.62751
20
0.294349
11
0.621886
21
0.296224
0
LINE
8
BLACK
6
CONTINUOUS
10
0.621886
20
0.296224
11
0.620984
21
0.296712
0
LINE
8
BLACK
6
CONTINUOUS
10
0.620984
20
0.296712
11
0.619927
21
0.298433
0
LINE
8
BLACK
6
CONTINUOUS
10
0.619927
20
0.298433
11
0.620223
21
0.300431
0
LINE
8
BLACK
6
CONTINUOUS
10
0.620223
20
0.300431
11
0.621734
21
0.301771
0
LINE
8
BLACK
6
CONTINUOUS
10
0.621734
20
0.301771
11
0.623753
21
0.301826
0
LINE
8
BLACK
6
CONTINUOUS
10
0.623753
20
0.301826
11
0.628923
21
0.300103
0
LINE
8
BLACK
6
CONTINUOUS
10
0.628923
20
0.300103
11
0.637121
21
0.300103
0
LINE
8
BLACK
6
CONTINUOUS
10
0.637121
20
0.300103
11
0.639818
21
0.301452
0
LINE
8
BLACK
6
CONTINUOUS
10
0.639818
20
0.301452
11
0.641015
21
0.302649
0
LINE
8
BLACK
6
CONTINUOUS
10
0.641015
20
0.302649
11
0.642364
21
0.305346
0
LINE
8
BLACK
6
CONTINUOUS
10
0.642364
20
0.305346
11
0.642364
21
0.307702
0
LINE
8
BLACK
6
CONTINUOUS
10
0.642364
20
0.307702
11
0.641015
21
0.310399
0
LINE
8
BLACK
6
CONTINUOUS
10
0.641015
20
0.310399
11
0.639818
21
0.311596
0
LINE
8
BLACK
6
CONTINUOUS
10
0.639818
20
0.311596
11
0.636787
21
0.313112
0
LINE
8
BLACK
6
CONTINUOUS
10
0.636787
20
0.313112
11
0.629603
21
0.314908
0
LINE
8
BLACK
6
CONTINUOUS
10
0.629603
20
0.314908
11
0.629137
21
0.315116
0
LINE
8
BLACK
6
CONTINUOUS
10
0.629137
20
0.315116
11
0.628998
21
0.315132
0
LINE
8
BLACK
6
CONTINUOUS
10
0.628998
20
0.315132
11
0.625249
21
0.317006
0
LINE
8
BLACK
6
CONTINUOUS
10
0.625249
20
0.317006
11
0.62454
21
0.317532
0
LINE
8
BLACK
6
CONTINUOUS
10
0.62454
20
0.317532
11
0.624481
21
0.31756
0
LINE
8
BLACK
6
CONTINUOUS
10
0.624481
20
0.31756
11
0.622606
21
0.319434
0
LINE
8
BLACK
6
CONTINUOUS
10
0.622606
20
0.319434
11
0.6221
21
0.320157
0
LINE
8
BLACK
6
CONTINUOUS
10
0.6221
20
0.320157
11
0.622053
21
0.320202
0
LINE
8
BLACK
6
CONTINUOUS
10
0.622053
20
0.320202
11
0.620179
21
0.323951
0
LINE
8
BLACK
6
CONTINUOUS
10
0.620179
20
0.323951
11
0.619886
21
0.324934
0
LINE
8
BLACK
6
CONTINUOUS
10
0.619886
20
0.324934
11
0.619927
21
0.325106
0
LINE
8
BLACK
6
CONTINUOUS
10
0.619927
20
0.325106
11
0.619867
21
0.325272
0
LINE
8
BLACK
6
CONTINUOUS
10
0.619867
20
0.325272
11
0.619867
21
0.329021
0
LINE
8
BLACK
6
CONTINUOUS
10
0.619867
20
0.329021
11
0.620045
21
0.330031
0
LINE
8
BLACK
6
CONTINUOUS
10
0.620045
20
0.330031
11
0.620158
21
0.330166
0
LINE
8
BLACK
6
CONTINUOUS
10
0.620158
20
0.330166
11
0.620179
21
0.330342
0
LINE
8
BLACK
6
CONTINUOUS
10
0.620179
20
0.330342
11
0.622053
21
0.334091
0
LINE
8
BLACK
6
CONTINUOUS
10
0.622053
20
0.334091
11
0.622579
21
0.3348
0
LINE
8
BLACK
6
CONTINUOUS
10
0.622579
20
0.3348
11
0.622606
21
0.334859
0
LINE
8
BLACK
6
CONTINUOUS
10
0.622606
20
0.334859
11
0.624481
21
0.336734
0
LINE
8
BLACK
6
CONTINUOUS
10
0.624481
20
0.336734
11
0.625204
21
0.33724
0
LINE
8
BLACK
6
CONTINUOUS
10
0.625204
20
0.33724
11
0.625249
21
0.337287
0
LINE
8
BLACK
6
CONTINUOUS
10
0.625249
20
0.337287
11
0.628998
21
0.339161
0
LINE
8
BLACK
6
CONTINUOUS
10
0.628998
20
0.339161
11
0.629981
21
0.339454
0
LINE
8
BLACK
6
CONTINUOUS
10
0.629981
20
0.339454
11
0.630153
21
0.339413
0
LINE
8
BLACK
6
CONTINUOUS
10
0.630153
20
0.339413
11
0.630319
21
0.339473
0
LINE
8
BLACK
6
CONTINUOUS
10
0.630319
20
0.339473
11
0.639693
21
0.339473
0
LINE
8
BLACK
6
CONTINUOUS
10
0.639693
20
0.339473
11
0.640562
21
0.33932
0
LINE
8
BLACK
6
CONTINUOUS
10
0.891921
20
0.339295
11
0.893468
21
0.337997
0
LINE
8
BLACK
6
CONTINUOUS
10
0.893468
20
0.337997
11
0.893819
21
0.336008
0
LINE
8
BLACK
6
CONTINUOUS
10
0.893819
20
0.336008
11
0.892809
21
0.334259
0
LINE
8
BLACK
6
CONTINUOUS
10
0.892809
20
0.334259
11
0.890911
21
0.333568
0
LINE
8
BLACK
6
CONTINUOUS
10
0.890911
20
0.333568
11
0.875116
21
0.333568
0
LINE
8
BLACK
6
CONTINUOUS
10
0.875116
20
0.333568
11
0.875116
21
0.320726
0
LINE
8
BLACK
6
CONTINUOUS
10
0.875116
20
0.320726
11
0.885287
21
0.320726
0
LINE
8
BLACK
6
CONTINUOUS
10
0.885287
20
0.320726
11
0.886297
21
0.320547
0
LINE
8
BLACK
6
CONTINUOUS
10
0.886297
20
0.320547
11
0.887844
21
0.319249
0
LINE
8
BLACK
6
CONTINUOUS
10
0.887844
20
0.319249
11
0.888195
21
0.31726
0
LINE
8
BLACK
6
CONTINUOUS
10
0.888195
20
0.31726
11
0.887185
21
0.315511
0
LINE
8
BLACK
6
CONTINUOUS
10
0.887185
20
0.315511
11
0.885287
21
0.31482
0
LINE
8
BLACK
6
CONTINUOUS
10
0.885287
20
0.31482
11
0.875116
21
0.31482
0
LINE
8
BLACK
6
CONTINUOUS
10
0.875116
20
0.31482
11
0.875116
21
0.29715
0
LINE
8
BLACK
6
CONTINUOUS
10
0.875116
20
0.29715
11
0.874938
21
0.29614
0
LINE
8
BLACK
6
CONTINUOUS
10
0.874938
20
0.29614
11
0.87364
21
0.294593
0
LINE
8
BLACK
6
CONTINUOUS
10
0.87364
20
0.294593
11
0.871651
21
0.294242
0
LINE
8
BLACK
6
CONTINUOUS
10
0.871651
20
0.294242
11
0.869902
21
0.295252
0
LINE
8
BLACK
6
CONTINUOUS
10
0.869902
20
0.295252
11
0.869211
21
0.29715
0
LINE
8
BLACK
6
CONTINUOUS
10
0.869211
20
0.29715
11
0.869211
21
0.33652
0
LINE
8
BLACK
6
CONTINUOUS
10
0.869211
20
0.33652
11
0.869278
21
0.336904
0
LINE
8
BLACK
6
CONTINUOUS
10
0.869278
20
0.336904
11
0.869256
21
0.337033
0
LINE
8
BLACK
6
CONTINUOUS
10
0.869256
20
0.337033
11
0.869321
21
0.337147
0
LINE
8
BLACK
6
CONTINUOUS
10
0.869321
20
0.337147
11
0.869389
21
0.33753
0
LINE
8
BLACK
6
CONTINUOUS
10
0.869389
20
0.33753
11
0.869882
21
0.338118
0
LINE
8
BLACK
6
CONTINUOUS
10
0.869882
20
0.338118
11
0.870265
21
0.338782
0
LINE
8
BLACK
6
CONTINUOUS
10
0.870265
20
0.338782
11
0.870516
21
0.338873
0
LINE
8
BLACK
6
CONTINUOUS
10
0.870516
20
0.338873
11
0.870687
21
0.339078
0
LINE
8
BLACK
6
CONTINUOUS
10
0.870687
20
0.339078
11
0.871443
21
0.339211
0
LINE
8
BLACK
6
CONTINUOUS
10
0.871443
20
0.339211
11
0.872163
21
0.339473
0
LINE
8
BLACK
6
CONTINUOUS
10
0.872163
20
0.339473
11
0.890911
21
0.339473
0
LINE
8
BLACK
6
CONTINUOUS
10
0.890911
20
0.339473
11
0.891921
21
0.339295
0
LINE
8
BLACK
6
CONTINUOUS
10
0.53858
20
0.33936
11
0.538968
21
0.339428
0
LINE
8
BLACK
6
CONTINUOUS
10
0.538968
20
0.339428
11
0.539526
21
0.339106
0
LINE
8
BLACK
6
CONTINUOUS
10
0.539526
20
0.339106
11
0.54015
21
0.338939
0
LINE
8
BLACK
6
CONTINUOUS
10
0.54015
20
0.338939
11
0.540376
21
0.338616
0
LINE
8
BLACK
6
CONTINUOUS
10
0.540376
20
0.338616
11
0.540717
21
0.338418
0
LINE
8
BLACK
6
CONTINUOUS
10
0.540717
20
0.338418
11
0.540938
21
0.337812
0
LINE
8
BLACK
6
CONTINUOUS
10
0.540938
20
0.337812
11
0.541308
21
0.337284
0
LINE
8
BLACK
6
CONTINUOUS
10
0.541308
20
0.337284
11
0.541273
21
0.336891
0
LINE
8
BLACK
6
CONTINUOUS
10
0.541273
20
0.336891
11
0.541408
21
0.33652
0
LINE
8
BLACK
6
CONTINUOUS
10
0.541408
20
0.33652
11
0.541408
21
0.29715
0
LINE
8
BLACK
6
CONTINUOUS
10
0.541408
20
0.29715
11
0.54123
21
0.29614
0
LINE
8
BLACK
6
CONTINUOUS
10
0.54123
20
0.29614
11
0.539932
21
0.294593
0
LINE
8
BLACK
6
CONTINUOUS
10
0.539932
20
0.294593
11
0.537942
21
0.294242
0
LINE
8
BLACK
6
CONTINUOUS
10
0.537942
20
0.294242
11
0.536193
21
0.295252
0
LINE
8
BLACK
6
CONTINUOUS
10
0.536193
20
0.295252
11
0.535502
21
0.29715
0
LINE
8
BLACK
6
CONTINUOUS
10
0.535502
20
0.29715
11
0.535502
21
0.323211
0
LINE
8
BLACK
6
CONTINUOUS
10
0.535502
20
0.323211
11
0.528008
21
0.30715
0
LINE
8
BLACK
6
CONTINUOUS
10
0.528008
20
0.30715
11
0.527785
21
0.306833
0
LINE
8
BLACK
6
CONTINUOUS
10
0.527785
20
0.306833
11
0.527751
21
0.306706
0
LINE
8
BLACK
6
CONTINUOUS
10
0.527751
20
0.306706
11
0.527643
21
0.306631
0
LINE
8
BLACK
6
CONTINUOUS
10
0.527643
20
0.306631
11
0.527419
21
0.30631
0
LINE
8
BLACK
6
CONTINUOUS
10
0.527419
20
0.30631
11
0.526725
21
0.305987
0
LINE
8
BLACK
6
CONTINUOUS
10
0.526725
20
0.305987
11
0.526097
21
0.305547
0
LINE
8
BLACK
6
CONTINUOUS
10
0.526097
20
0.305547
11
0.525831
21
0.30557
0
LINE
8
BLACK
6
CONTINUOUS
10
0.525831
20
0.30557
11
0.525588
21
0.305457
0
LINE
8
BLACK
6
CONTINUOUS
10
0.525588
20
0.305457
11
0.524848
21
0.305656
0
LINE
8
BLACK
6
CONTINUOUS
10
0.524848
20
0.305656
11
0.524085
21
0.305722
0
LINE
8
BLACK
6
CONTINUOUS
10
0.524085
20
0.305722
11
0.523896
21
0.305911
0
LINE
8
BLACK
6
CONTINUOUS
10
0.523896
20
0.305911
11
0.523637
21
0.305981
0
LINE
8
BLACK
6
CONTINUOUS
10
0.523637
20
0.305981
11
0.523198
21
0.306609
0
LINE
8
BLACK
6
CONTINUOUS
10
0.523198
20
0.306609
11
0.522656
21
0.30715
0
LINE
8
BLACK
6
CONTINUOUS
10
0.522656
20
0.30715
11
0.515161
21
0.323211
0
LINE
8
BLACK
6
CONTINUOUS
10
0.515161
20
0.323211
11
0.515161
21
0.29715
0
LINE
8
BLACK
6
CONTINUOUS
10
0.515161
20
0.29715
11
0.514983
21
0.29614
0
LINE
8
BLACK
6
CONTINUOUS
10
0.514983
20
0.29614
11
0.513685
21
0.294593
0
LINE
8
BLACK
6
CONTINUOUS
10
0.513685
20
0.294593
11
0.511696
21
0.294242
0
LINE
8
BLACK
6
CONTINUOUS
10
0.511696
20
0.294242
11
0.509947
21
0.295252
0
LINE
8
BLACK
6
CONTINUOUS
10
0.509947
20
0.295252
11
0.509256
21
0.29715
0
LINE
8
BLACK
6
CONTINUOUS
10
0.509256
20
0.29715
11
0.509256
21
0.33652
0
LINE
8
BLACK
6
CONTINUOUS
10
0.509256
20
0.33652
11
0.509434
21
0.33753
0
LINE
8
BLACK
6
CONTINUOUS
10
0.509434
20
0.33753
11
0.509687
21
0.337832
0
LINE
8
BLACK
6
CONTINUOUS
10
0.509687
20
0.337832
11
0.509789
21
0.338213
0
LINE
8
BLACK
6
CONTINUOUS
10
0.509789
20
0.338213
11
0.510317
21
0.338583
0
LINE
8
BLACK
6
CONTINUOUS
10
0.510317
20
0.338583
11
0.510732
21
0.339078
0
LINE
8
BLACK
6
CONTINUOUS
10
0.510732
20
0.339078
11
0.51112
21
0.339146
0
LINE
8
BLACK
6
CONTINUOUS
10
0.51112
20
0.339146
11
0.511443
21
0.339372
0
LINE
8
BLACK
6
CONTINUOUS
10
0.511443
20
0.339372
11
0.512086
21
0.339316
0
LINE
8
BLACK
6
CONTINUOUS
10
0.512086
20
0.339316
11
0.512721
21
0.339428
0
LINE
8
BLACK
6
CONTINUOUS
10
0.512721
20
0.339428
11
0.513063
21
0.339231
0
LINE
8
BLACK
6
CONTINUOUS
10
0.513063
20
0.339231
11
0.513456
21
0.339197
0
LINE
8
BLACK
6
CONTINUOUS
10
0.513456
20
0.339197
11
0.513912
21
0.338741
0
LINE
8
BLACK
6
CONTINUOUS
10
0.513912
20
0.338741
11
0.51447
21
0.338418
0
LINE
8
BLACK
6
CONTINUOUS
10
0.51447
20
0.338418
11
0.514605
21
0.338048
0
LINE
8
BLACK
6
CONTINUOUS
10
0.514605
20
0.338048
11
0.514884
21
0.337769
0
LINE
8
BLACK
6
CONTINUOUS
10
0.514884
20
0.337769
11
0.525332
21
0.315381
0
LINE
8
BLACK
6
CONTINUOUS
10
0.525332
20
0.315381
11
0.535779
21
0.337769
0
LINE
8
BLACK
6
CONTINUOUS
10
0.535779
20
0.337769
11
0.536368
21
0.338609
0
LINE
8
BLACK
6
CONTINUOUS
10
0.536368
20
0.338609
11
0.536725
21
0.338776
0
LINE
8
BLACK
6
CONTINUOUS
10
0.536725
20
0.338776
11
0.536979
21
0.339078
0
LINE
8
BLACK
6
CONTINUOUS
10
0.536979
20
0.339078
11
0.537614
21
0.33919
0
LINE
8
BLACK
6
CONTINUOUS
10
0.537614
20
0.33919
11
0.538199
21
0.339462
0
LINE
8
BLACK
6
CONTINUOUS
10
0.538199
20
0.339462
11
0.53858
21
0.33936
0
LINE
8
BLACK
6
CONTINUOUS
10
0.794829
20
0.340992
11
0.796169
21
0.33948
0
LINE
8
BLACK
6
CONTINUOUS
10
0.796169
20
0.33948
11
0.796225
21
0.337461
0
LINE
8
BLACK
6
CONTINUOUS
10
0.796225
20
0.337461
11
0.788146
21
0.313226
0
LINE
8
BLACK
6
CONTINUOUS
10
0.788146
20
0.313226
11
0.799844
21
0.313226
0
LINE
8
BLACK
6
CONTINUOUS
10
0.799844
20
0.313226
11
0.799844
21
0.323397
0
LINE
8
BLACK
6
CONTINUOUS
10
0.799844
20
0.323397
11
0.800022
21
0.324407
0
LINE
8
BLACK
6
CONTINUOUS
10
0.800022
20
0.324407
11
0.801321
21
0.325954
0
LINE
8
BLACK
6
CONTINUOUS
10
0.801321
20
0.325954
11
0.80331
21
0.326305
0
LINE
8
BLACK
6
CONTINUOUS
10
0.80331
20
0.326305
11
0.805059
21
0.325295
0
LINE
8
BLACK
6
CONTINUOUS
10
0.805059
20
0.325295
11
0.80575
21
0.323397
0
LINE
8
BLACK
6
CONTINUOUS
10
0.80575
20
0.323397
11
0.80575
21
0.313226
0
LINE
8
BLACK
6
CONTINUOUS
10
0.80575
20
0.313226
11
0.808421
21
0.313226
0
LINE
8
BLACK
6
CONTINUOUS
10
0.808421
20
0.313226
11
0.809431
21
0.313048
0
LINE
8
BLACK
6
CONTINUOUS
10
0.809431
20
0.313048
11
0.810979
21
0.31175
0
LINE
8
BLACK
6
CONTINUOUS
10
0.810979
20
0.31175
11
0.811329
21
0.309761
0
LINE
8
BLACK
6
CONTINUOUS
10
0.811329
20
0.309761
11
0.810319
21
0.308012
0
LINE
8
BLACK
6
CONTINUOUS
10
0.810319
20
0.308012
11
0.808421
21
0.307321
0
LINE
8
BLACK
6
CONTINUOUS
10
0.808421
20
0.307321
11
0.80575
21
0.307321
0
LINE
8
BLACK
6
CONTINUOUS
10
0.80575
20
0.307321
11
0.80575
21
0.29715
0
LINE
8
BLACK
6
CONTINUOUS
10
0.80575
20
0.29715
11
0.805572
21
0.29614
0
LINE
8
BLACK
6
CONTINUOUS
10
0.805572
20
0.29614
11
0.804274
21
0.294593
0
LINE
8
BLACK
6
CONTINUOUS
10
0.804274
20
0.294593
11
0.802284
21
0.294242
0
LINE
8
BLACK
6
CONTINUOUS
10
0.802284
20
0.294242
11
0.800535
21
0.295252
0
LINE
8
BLACK
6
CONTINUOUS
10
0.800535
20
0.295252
11
0.799844
21
0.29715
0
LINE
8
BLACK
6
CONTINUOUS
10
0.799844
20
0.29715
11
0.799844
21
0.307321
0
LINE
8
BLACK
6
CONTINUOUS
10
0.799844
20
0.307321
11
0.784049
21
0.307321
0
LINE
8
BLACK
6
CONTINUOUS
10
0.784049
20
0.307321
11
0.78304
21
0.307499
0
LINE
8
BLACK
6
CONTINUOUS
10
0.78304
20
0.307499
11
0.782867
21
0.307644
0
LINE
8
BLACK
6
CONTINUOUS
10
0.782867
20
0.307644
11
0.782643
21
0.307677
0
LINE
8
BLACK
6
CONTINUOUS
10
0.782643
20
0.307677
11
0.782109
21
0.30828
0
LINE
8
BLACK
6
CONTINUOUS
10
0.782109
20
0.30828
11
0.781492
21
0.308797
0
LINE
8
BLACK
6
CONTINUOUS
10
0.781492
20
0.308797
11
0.781453
21
0.30902
0
LINE
8
BLACK
6
CONTINUOUS
10
0.781453
20
0.30902
11
0.781303
21
0.309188
0
LINE
8
BLACK
6
CONTINUOUS
10
0.781303
20
0.309188
11
0.781281
21
0.309993
0
LINE
8
BLACK
6
CONTINUOUS
10
0.781281
20
0.309993
11
0.781142
21
0.310786
0
LINE
8
BLACK
6
CONTINUOUS
10
0.781142
20
0.310786
11
0.781254
21
0.310982
0
LINE
8
BLACK
6
CONTINUOUS
10
0.781254
20
0.310982
11
0.781248
21
0.311207
0
LINE
8
BLACK
6
CONTINUOUS
10
0.781248
20
0.311207
11
0.790622
21
0.339329
0
LINE
8
BLACK
6
CONTINUOUS
10
0.790622
20
0.339329
11
0.79111
21
0.340231
0
LINE
8
BLACK
6
CONTINUOUS
10
0.79111
20
0.340231
11
0.792831
21
0.341288
0
LINE
8
BLACK
6
CONTINUOUS
10
0.792831
20
0.341288
11
0.794829
21
0.340992
0
LINE
8
BLACK
6
CONTINUOUS
10
0.559465
20
0.338418
11
0.560156
21
0.33652
0
LINE
8
BLACK
6
CONTINUOUS
10
0.560156
20
0.33652
11
0.560156
21
0.29715
0
LINE
8
BLACK
6
CONTINUOUS
10
0.560156
20
0.29715
11
0.559978
21
0.29614
0
LINE
8
BLACK
6
CONTINUOUS
10
0.559978
20
0.29614
11
0.558679
21
0.294593
0
LINE
8
BLACK
6
CONTINUOUS
10
0.558679
20
0.294593
11
0.55669
21
0.294242
0
LINE
8
BLACK
6
CONTINUOUS
10
0.55669
20
0.294242
11
0.554941
21
0.295252
0
LINE
8
BLACK
6
CONTINUOUS
10
0.554941
20
0.295252
11
0.55425
21
0.29715
0
LINE
8
BLACK
6
CONTINUOUS
10
0.55425
20
0.29715
11
0.55425
21
0.33652
0
LINE
8
BLACK
6
CONTINUOUS
10
0.55425
20
0.33652
11
0.554428
21
0.33753
0
LINE
8
BLACK
6
CONTINUOUS
10
0.554428
20
0.33753
11
0.555726
21
0.339078
0
LINE
8
BLACK
6
CONTINUOUS
10
0.555726
20
0.339078
11
0.557716
21
0.339428
0
LINE
8
BLACK
6
CONTINUOUS
10
0.557716
20
0.339428
11
0.559465
21
0.338418
0
LINE
8
BLACK
6
CONTINUOUS
10
0.606957
20
0.314923
11
0.608504
21
0.313625
0
LINE
8
BLACK
6
CONTINUOUS
10
0.608504
20
0.313625
11
0.608855
21
0.311636
0
LINE
8
BLACK
6
CONTINUOUS
10
0.608855
20
0.311636
11
0.607845
21
0.309887
0
LINE
8
BLACK
6
CONTINUOUS
10
0.607845
20
0.309887
11
0.605947
21
0.309196
0
LINE
8
BLACK
6
CONTINUOUS
10
0.605947
20
0.309196
11
0.57595
21
0.309196
0
LINE
8
BLACK
6
CONTINUOUS
10
0.57595
20
0.309196
11
0.574941
21
0.309374
0
LINE
8
BLACK
6
CONTINUOUS
10
0.574941
20
0.309374
11
0.573393
21
0.310672
0
LINE
8
BLACK
6
CONTINUOUS
10
0.573393
20
0.310672
11
0.573043
21
0.312661
0
LINE
8
BLACK
6
CONTINUOUS
10
0.573043
20
0.312661
11
0.574052
21
0.31441
0
LINE
8
BLACK
6
CONTINUOUS
10
0.574052
20
0.31441
11
0.57595
21
0.315101
0
LINE
8
BLACK
6
CONTINUOUS
10
0.57595
20
0.315101
11
0.605947
21
0.315101
0
LINE
8
BLACK
6
CONTINUOUS
10
0.605947
20
0.315101
11
0.606957
21
0.314923
0
LINE
8
BLACK
6
CONTINUOUS
10
0.854426
20
0.314923
11
0.855973
21
0.313625
0
LINE
8
BLACK
6
CONTINUOUS
10
0.855973
20
0.313625
11
0.856324
21
0.311636
0
LINE
8
BLACK
6
CONTINUOUS
10
0.856324
20
0.311636
11
0.855314
21
0.309887
0
LINE
8
BLACK
6
CONTINUOUS
10
0.855314
20
0.309887
11
0.853416
21
0.309196
0
LINE
8
BLACK
6
CONTINUOUS
10
0.853416
20
0.309196
11
0.82342
21
0.309196
0
LINE
8
BLACK
6
CONTINUOUS
10
0.82342
20
0.309196
11
0.82241
21
0.309374
0
LINE
8
BLACK
6
CONTINUOUS
10
0.82241
20
0.309374
11
0.820862
21
0.310672
0
LINE
8
BLACK
6
CONTINUOUS
10
0.820862
20
0.310672
11
0.820512
21
0.312661
0
LINE
8
BLACK
6
CONTINUOUS
10
0.820512
20
0.312661
11
0.821522
21
0.31441
0
LINE
8
BLACK
6
CONTINUOUS
10
0.821522
20
0.31441
11
0.82342
21
0.315101
0
LINE
8
BLACK
6
CONTINUOUS
10
0.82342
20
0.315101
11
0.853416
21
0.315101
0
LINE
8
BLACK
6
CONTINUOUS
10
0.853416
20
0.315101
11
0.854426
21
0.314923
0
LINE
8
BLACK
6
CONTINUOUS
10
0.693196
20
0.314923
11
0.694743
21
0.313625
0
LINE
8
BLACK
6
CONTINUOUS
10
0.694743
20
0.313625
11
0.695094
21
0.311636
0
LINE
8
BLACK
6
CONTINUOUS
10
0.695094
20
0.311636
11
0.694084
21
0.309887
0
LINE
8
BLACK
6
CONTINUOUS
10
0.694084
20
0.309887
11
0.692186
21
0.309196
0
LINE
8
BLACK
6
CONTINUOUS
10
0.692186
20
0.309196
11
0.66219
21
0.309196
0
LINE
8
BLACK
6
CONTINUOUS
10
0.66219
20
0.309196
11
0.66118
21
0.309374
0
LINE
8
BLACK
6
CONTINUOUS
10
0.66118
20
0.309374
11
0.659633
21
0.310672
0
LINE
8
BLACK
6
CONTINUOUS
10
0.659633
20
0.310672
11
0.659282
21
0.312661
0
LINE
8
BLACK
6
CONTINUOUS
10
0.659282
20
0.312661
11
0.660292
21
0.31441
0
LINE
8
BLACK
6
CONTINUOUS
10
0.660292
20
0.31441
11
0.66219
21
0.315101
0
LINE
8
BLACK
6
CONTINUOUS
10
0.66219
20
0.315101
11
0.692186
21
0.315101
0
LINE
8
BLACK
6
CONTINUOUS
10
0.692186
20
0.315101
11
0.693196
21
0.314923
0
LINE
8
BLACK
6
CONTINUOUS
10
1.31189
20
1.62992
11
1.31189
21
0.370079
0
LINE
8
BLACK
6
CONTINUOUS
10
1.31189
20
0.370079
11
1.31131
21
0.368687
0
LINE
8
BLACK
6
CONTINUOUS
10
1.31131
20
0.368687
11
1.30992
21
0.36811
0
LINE
8
BLACK
6
CONTINUOUS
10
1.30992
20
0.36811
11
0.0500787
21
0.36811
0
LINE
8
BLACK
6
CONTINUOUS
10
0.0500787
20
0.36811
11
0.0486868
21
0.368687
0
LINE
8
BLACK
6
CONTINUOUS
10
0.0486868
20
0.368687
11
0.0481102
21
0.370079
0
LINE
8
BLACK
6
CONTINUOUS
10
0.0481102
20
0.370079
11
0.0481102
21
1.62992
0
LINE
8
BLACK
6
CONTINUOUS
10
0.0481102
20
1.62992
11
0.0486868
21
1.63131
0
LINE
8
BLACK
6
CONTINUOUS
10
0.0486868
20
1.63131
11
0.0500787
21
1.63189
0
LINE
8
BLACK
6
CONTINUOUS
10
0.0500787
20
1.63189
11
1.22989
21
1.63189
0
LINE
8
BLACK
6
CONTINUOUS
10
1.22989
20
1.63189
11
1.22989
21
1.66124
0
LINE
8
BLACK
6
CONTINUOUS
10
1.22989
20
1.66124
11
1.22995
21
1.66163
0
LINE
8
BLACK
6
CONTINUOUS
10
1.22995
20
1.66163
11
1.22993
21
1.66176
0
LINE
8
BLACK
6
CONTINUOUS
10
1.22993
20
1.66176
11
1.23
21
1.66187
0
LINE
8
BLACK
6
CONTINUOUS
10
1.23
20
1.66187
11
1.23006
21
1.66225
0
LINE
8
BLACK
6
CONTINUOUS
10
1.23006
20
1.66225
11
1.23056
21
1.66284
0
LINE
8
BLACK
6
CONTINUOUS
10
1.23056
20
1.66284
11
1.23094
21
1.66351
0
LINE
8
BLACK
6
CONTINUOUS
10
1.23094
20
1.66351
11
1.23119
21
1.6636
0
LINE
8
BLACK
6
CONTINUOUS
10
1.23119
20
1.6636
11
1.23136
21
1.6638
0
LINE
8
BLACK
6
CONTINUOUS
10
1.23136
20
1.6638
11
1.23212
21
1.66394
0
LINE
8
BLACK
6
CONTINUOUS
10
1.23212
20
1.66394
11
1.23284
21
1.6642
0
LINE
8
BLACK
6
CONTINUOUS
10
1.23284
20
1.6642
11
1.24596
21
1.6642
0
LINE
8
BLACK
6
CONTINUOUS
10
1.24596
20
1.6642
11
1.24697
21
1.66402
0
LINE
8
BLACK
6
CONTINUOUS
10
1.24697
20
1.66402
11
1.24711
21
1.66391
0
LINE
8
BLACK
6
CONTINUOUS
10
1.24711
20
1.66391
11
1.24728
21
1.66389
0
LINE
8
BLACK
6
CONTINUOUS
10
1.24728
20
1.66389
11
1.25103
21
1.66201
0
LINE
8
BLACK
6
CONTINUOUS
10
1.25103
20
1.66201
11
1.25174
21
1.66149
0
LINE
8
BLACK
6
CONTINUOUS
10
1.25174
20
1.66149
11
1.2518
21
1.66146
0
LINE
8
BLACK
6
CONTINUOUS
10
1.2518
20
1.66146
11
1.25367
21
1.65958
0
LINE
8
BLACK
6
CONTINUOUS
10
1.25367
20
1.65958
11
1.25418
21
1.65886
0
LINE
8
BLACK
6
CONTINUOUS
10
1.25418
20
1.65886
11
1.25423
21
1.65882
0
LINE
8
BLACK
6
CONTINUOUS
10
1.25423
20
1.65882
11
1.2561
21
1.65507
0
LINE
8
BLACK
6
CONTINUOUS
10
1.2561
20
1.65507
11
1.25639
21
1.65408
0
LINE
8
BLACK
6
CONTINUOUS
10
1.25639
20
1.65408
11
1.25635
21
1.65391
0
LINE
8
BLACK
6
CONTINUOUS
10
1.25635
20
1.65391
11
1.25641
21
1.65375
0
LINE
8
BLACK
6
CONTINUOUS
10
1.25641
20
1.65375
11
1.25641
21
1.65
0
LINE
8
BLACK
6
CONTINUOUS
10
1.25641
20
1.65
11
1.25624
21
1.64899
0
LINE
8
BLACK
6
CONTINUOUS
10
1.25624
20
1.64899
11
1.25612
21
1.64885
0
LINE
8
BLACK
6
CONTINUOUS
10
1.25612
20
1.64885
11
1.2561
21
1.64868
0
LINE
8
BLACK
6
CONTINUOUS
10
1.2561
20
1.64868
11
1.25423
21
1.64493
0
LINE
8
BLACK
6
CONTINUOUS
10
1.25423
20
1.64493
11
1.2537
21
1.64422
0
LINE
8
BLACK
6
CONTINUOUS
10
1.2537
20
1.64422
11
1.25367
21
1.64416
0
LINE
8
BLACK
6
CONTINUOUS
10
1.25367
20
1.64416
11
1.25279
21
1.64328
0
LINE
8
BLACK
6
CONTINUOUS
10
1.25279
20
1.64328
11
1.25342
21
1.64294
0
LINE
8
BLACK
6
CONTINUOUS
10
1.25342
20
1.64294
11
1.25351
21
1.64278
0
LINE
8
BLACK
6
CONTINUOUS
10
1.25351
20
1.64278
11
1.25367
21
1.64271
0
LINE
8
BLACK
6
CONTINUOUS
10
1.25367
20
1.64271
11
1.25555
21
1.64084
0
LINE
8
BLACK
6
CONTINUOUS
10
1.25555
20
1.64084
11
1.25605
21
1.64011
0
LINE
8
BLACK
6
CONTINUOUS
10
1.25605
20
1.64011
11
1.2561
21
1.64007
0
LINE
8
BLACK
6
CONTINUOUS
10
1.2561
20
1.64007
11
1.25798
21
1.63632
0
LINE
8
BLACK
6
CONTINUOUS
10
1.25798
20
1.63632
11
1.25827
21
1.63534
0
LINE
8
BLACK
6
CONTINUOUS
10
1.25827
20
1.63534
11
1.25823
21
1.63516
0
LINE
8
BLACK
6
CONTINUOUS
10
1.25823
20
1.63516
11
1.25829
21
1.635
0
LINE
8
BLACK
6
CONTINUOUS
10
1.25829
20
1.635
11
1.25829
21
1.63189
0
LINE
8
BLACK
6
CONTINUOUS
10
1.25829
20
1.63189
11
1.26926
21
1.63189
0
LINE
8
BLACK
6
CONTINUOUS
10
1.26926
20
1.63189
11
1.26926
21
1.66124
0
LINE
8
BLACK
6
CONTINUOUS
10
1.26926
20
1.66124
11
1.26943
21
1.66225
0
LINE
8
BLACK
6
CONTINUOUS
10
1.26943
20
1.66225
11
1.26969
21
1.66256
0
LINE
8
BLACK
6
CONTINUOUS
10
1.26969
20
1.66256
11
1.26979
21
1.66294
0
LINE
8
BLACK
6
CONTINUOUS
10
1.26979
20
1.66294
11
1.27032
21
1.66331
0
LINE
8
BLACK
6
CONTINUOUS
10
1.27032
20
1.66331
11
1.27073
21
1.6638
0
LINE
8
BLACK
6
CONTINUOUS
10
1.27073
20
1.6638
11
1.27112
21
1.66387
0
LINE
8
BLACK
6
CONTINUOUS
10
1.27112
20
1.66387
11
1.27144
21
1.6641
0
LINE
8
BLACK
6
CONTINUOUS
10
1.27144
20
1.6641
11
1.27209
21
1.66404
0
LINE
8
BLACK
6
CONTINUOUS
10
1.27209
20
1.66404
11
1.27272
21
1.66415
0
LINE
8
BLACK
6
CONTINUOUS
10
1.27272
20
1.66415
11
1.27306
21
1.66396
0
LINE
8
BLACK
6
CONTINUOUS
10
1.27306
20
1.66396
11
1.27346
21
1.66392
0
LINE
8
BLACK
6
CONTINUOUS
10
1.27346
20
1.66392
11
1.27391
21
1.66347
0
LINE
8
BLACK
6
CONTINUOUS
10
1.27391
20
1.66347
11
1.27447
21
1.66314
0
LINE
8
BLACK
6
CONTINUOUS
10
1.27447
20
1.66314
11
1.27461
21
1.66277
0
LINE
8
BLACK
6
CONTINUOUS
10
1.27461
20
1.66277
11
1.27488
21
1.66249
0
LINE
8
BLACK
6
CONTINUOUS
10
1.27488
20
1.66249
11
1.28533
21
1.64011
0
LINE
8
BLACK
6
CONTINUOUS
10
1.28533
20
1.64011
11
1.29578
21
1.66249
0
LINE
8
BLACK
6
CONTINUOUS
10
1.29578
20
1.66249
11
1.29637
21
1.66333
0
LINE
8
BLACK
6
CONTINUOUS
10
1.29637
20
1.66333
11
1.29673
21
1.6635
0
LINE
8
BLACK
6
CONTINUOUS
10
1.29673
20
1.6635
11
1.29698
21
1.6638
0
LINE
8
BLACK
6
CONTINUOUS
10
1.29698
20
1.6638
11
1.29761
21
1.66391
0
LINE
8
BLACK
6
CONTINUOUS
10
1.29761
20
1.66391
11
1.2982
21
1.66419
0
LINE
8
BLACK
6
CONTINUOUS
10
1.2982
20
1.66419
11
1.29858
21
1.66408
0
LINE
8
BLACK
6
CONTINUOUS
10
1.29858
20
1.66408
11
1.29897
21
1.66415
0
LINE
8
BLACK
6
CONTINUOUS
10
1.29897
20
1.66415
11
1.29953
21
1.66383
0
LINE
8
BLACK
6
CONTINUOUS
10
1.29953
20
1.66383
11
1.30015
21
1.66366
0
LINE
8
BLACK
6
CONTINUOUS
10
1.30015
20
1.66366
11
1.30038
21
1.66334
0
LINE
8
BLACK
6
CONTINUOUS
10
1.30038
20
1.66334
11
1.30072
21
1.66314
0
LINE
8
BLACK
6
CONTINUOUS
10
1.30072
20
1.66314
11
1.30094
21
1.66254
0
LINE
8
BLACK
6
CONTINUOUS
10
1.30094
20
1.66254
11
1.30131
21
1.66201
0
LINE
8
BLACK
6
CONTINUOUS
10
1.30131
20
1.66201
11
1.30127
21
1.66162
0
LINE
8
BLACK
6
CONTINUOUS
10
1.30127
20
1.66162
11
1.30141
21
1.66124
0
LINE
8
BLACK
6
CONTINUOUS
10
1.30141
20
1.66124
11
1.30141
21
1.63189
0
LINE
8
BLACK
6
CONTINUOUS
10
1.30141
20
1.63189
11
1.30992
21
1.63189
0
LINE
8
BLACK
6
CONTINUOUS
10
1.30992
20
1.63189
11
1.31131
21
1.63131
0
LINE
8
BLACK
6
CONTINUOUS
10
1.31131
20
1.63131
11
1.31189
21
1.62992
0
LINE
8
BLACK
6
CONTINUOUS
10
1.30141
20
1.62795
11
1.30141
21
1.62187
0
LINE
8
BLACK
6
CONTINUOUS
10
1.30141
20
1.62187
11
1.30123
21
1.62086
0
LINE
8
BLACK
6
CONTINUOUS
10
1.30123
20
1.62086
11
1.29993
21
1.61932
0
LINE
8
BLACK
6
CONTINUOUS
10
1.29993
20
1.61932
11
1.29794
21
1.61897
0
LINE
8
BLACK
6
CONTINUOUS
10
1.29794
20
1.61897
11
1.29619
21
1.61998
0
LINE
8
BLACK
6
CONTINUOUS
10
1.29619
20
1.61998
11
1.2955
21
1.62187
0
LINE
8
BLACK
6
CONTINUOUS
10
1.2955
20
1.62187
11
1.2955
21
1.62795
0
LINE
8
BLACK
6
CONTINUOUS
10
1.2955
20
1.62795
11
1.27516
21
1.62795
0
LINE
8
BLACK
6
CONTINUOUS
10
1.27516
20
1.62795
11
1.27516
21
1.62187
0
LINE
8
BLACK
6
CONTINUOUS
10
1.27516
20
1.62187
11
1.27498
21
1.62086
0
LINE
8
BLACK
6
CONTINUOUS
10
1.27498
20
1.62086
11
1.27368
21
1.61932
0
LINE
8
BLACK
6
CONTINUOUS
10
1.27368
20
1.61932
11
1.2717
21
1.61897
0
LINE
8
BLACK
6
CONTINUOUS
10
1.2717
20
1.61897
11
1.26995
21
1.61998
0
LINE
8
BLACK
6
CONTINUOUS
10
1.26995
20
1.61998
11
1.26926
21
1.62187
0
LINE
8
BLACK
6
CONTINUOUS
10
1.26926
20
1.62187
11
1.26926
21
1.62795
0
LINE
8
BLACK
6
CONTINUOUS
10
1.26926
20
1.62795
11
1.25793
21
1.62795
0
LINE
8
BLACK
6
CONTINUOUS
10
1.25793
20
1.62795
11
1.2561
21
1.6243
0
LINE
8
BLACK
6
CONTINUOUS
10
1.2561
20
1.6243
11
1.25558
21
1.62359
0
LINE
8
BLACK
6
CONTINUOUS
10
1.25558
20
1.62359
11
1.25555
21
1.62354
0
LINE
8
BLACK
6
CONTINUOUS
10
1.25555
20
1.62354
11
1.25367
21
1.62166
0
LINE
8
BLACK
6
CONTINUOUS
10
1.25367
20
1.62166
11
1.25295
21
1.62116
0
LINE
8
BLACK
6
CONTINUOUS
10
1.25295
20
1.62116
11
1.25291
21
1.62111
0
LINE
8
BLACK
6
CONTINUOUS
10
1.25291
20
1.62111
11
1.24916
21
1.61923
0
LINE
8
BLACK
6
CONTINUOUS
10
1.24916
20
1.61923
11
1.24817
21
1.61894
0
LINE
8
BLACK
6
CONTINUOUS
10
1.24817
20
1.61894
11
1.248
21
1.61898
0
LINE
8
BLACK
6
CONTINUOUS
10
1.248
20
1.61898
11
1.24784
21
1.61892
0
LINE
8
BLACK
6
CONTINUOUS
10
1.24784
20
1.61892
11
1.23284
21
1.61892
0
LINE
8
BLACK
6
CONTINUOUS
10
1.23284
20
1.61892
11
1.23245
21
1.61899
0
LINE
8
BLACK
6
CONTINUOUS
10
1.23245
20
1.61899
11
1.23233
21
1.61897
0
LINE
8
BLACK
6
CONTINUOUS
10
1.23233
20
1.61897
11
1.23221
21
1.61903
0
LINE
8
BLACK
6
CONTINUOUS
10
1.23221
20
1.61903
11
1.23183
21
1.6191
0
LINE
8
BLACK
6
CONTINUOUS
10
1.23183
20
1.6191
11
1.23124
21
1.61959
0
LINE
8
BLACK
6
CONTINUOUS
10
1.23124
20
1.61959
11
1.23058
21
1.61998
0
LINE
8
BLACK
6
CONTINUOUS
10
1.23058
20
1.61998
11
1.23049
21
1.62023
0
LINE
8
BLACK
6
CONTINUOUS
10
1.23049
20
1.62023
11
1.23028
21
1.6204
0
LINE
8
BLACK
6
CONTINUOUS
10
1.23028
20
1.6204
11
1.23015
21
1.62115
0
LINE
8
BLACK
6
CONTINUOUS
10
1.23015
20
1.62115
11
1.22989
21
1.62187
0
LINE
8
BLACK
6
CONTINUOUS
10
1.22989
20
1.62187
11
1.22989
21
1.62795
0
LINE
8
BLACK
6
CONTINUOUS
10
1.22989
20
1.62795
11
0.0520472
21
1.62795
0
LINE
8
BLACK
6
CONTINUOUS
10
0.0520472
20
1.62795
11
0.0520472
21
0.372047
0
LINE
8
BLACK
6
CONTINUOUS
10
0.0520472
20
0.372047
11
1.30795
21
0.372047
0
LINE
8
BLACK
6
CONTINUOUS
10
1.30795
20
0.372047
11
1.30795
21
1.62795
0
LINE
8
BLACK
6
CONTINUOUS
10
1.30795
20
1.62795
11
1.30141
21
1.62795
0
LINE
8
BLACK
6
CONTINUOUS
10
1.23579
20
1.62795
11
1.23579
21
1.62483
0
LINE
8
BLACK
6
CONTINUOUS
10
1.23579
20
1.62483
11
1.24714
21
1.62483
0
LINE
8
BLACK
6
CONTINUOUS
10
1.24714
20
1.62483
11
1.24984
21
1.62618
0
LINE
8
BLACK
6
CONTINUOUS
10
1.24984
20
1.62618
11
1.25103
21
1.62737
0
LINE
8
BLACK
6
CONTINUOUS
10
1.25103
20
1.62737
11
1.25132
21
1.62795
0
LINE
8
BLACK
6
CONTINUOUS
10
1.25132
20
1.62795
11
1.23579
21
1.62795
0
LINE
8
BLACK
6
CONTINUOUS
10
1.23579
20
1.63954
11
1.23579
21
1.63189
0
LINE
8
BLACK
6
CONTINUOUS
10
1.23579
20
1.63189
11
1.25238
21
1.63189
0
LINE
8
BLACK
6
CONTINUOUS
10
1.25238
20
1.63189
11
1.25238
21
1.6343
0
LINE
8
BLACK
6
CONTINUOUS
10
1.25238
20
1.6343
11
1.25103
21
1.637
0
LINE
8
BLACK
6
CONTINUOUS
10
1.25103
20
1.637
11
1.24999
21
1.63804
0
LINE
8
BLACK
6
CONTINUOUS
10
1.24999
20
1.63804
11
1.24548
21
1.63954
0
LINE
8
BLACK
6
CONTINUOUS
10
1.24548
20
1.63954
11
1.23579
21
1.63954
0
LINE
8
BLACK
6
CONTINUOUS
10
1.27516
20
1.63189
11
1.28265
21
1.63189
0
LINE
8
BLACK
6
CONTINUOUS
10
1.28265
20
1.63189
11
1.27516
21
1.64794
0
LINE
8
BLACK
6
CONTINUOUS
10
1.27516
20
1.64794
11
1.27516
21
1.63189
0
LINE
8
BLACK
6
CONTINUOUS
10
1.28801
20
1.63189
11
1.2955
21
1.63189
0
LINE
8
BLACK
6
CONTINUOUS
10
1.2955
20
1.63189
11
1.2955
21
1.64794
0
LINE
8
BLACK
6
CONTINUOUS
10
1.2955
20
1.64794
11
1.28801
21
1.63189
0
LINE
8
BLACK
6
CONTINUOUS
10
1.23579
20
1.65829
11
1.23579
21
1.64545
0
LINE
8
BLACK
6
CONTINUOUS
10
1.23579
20
1.64545
11
1.24526
21
1.64545
0
LINE
8
BLACK
6
CONTINUOUS
10
1.24526
20
1.64545
11
1.24796
21
1.6468
0
LINE
8
BLACK
6
CONTINUOUS
10
1.24796
20
1.6468
11
1.24916
21
1.648
0
LINE
8
BLACK
6
CONTINUOUS
10
1.24916
20
1.648
11
1.25051
21
1.65069
0
LINE
8
BLACK
6
CONTINUOUS
10
1.25051
20
1.65069
11
1.25051
21
1.65305
0
LINE
8
BLACK
6
CONTINUOUS
10
1.25051
20
1.65305
11
1.24916
21
1.65575
0
LINE
8
BLACK
6
CONTINUOUS
10
1.24916
20
1.65575
11
1.24796
21
1.65694
0
LINE
8
BLACK
6
CONTINUOUS
10
1.24796
20
1.65694
11
1.24526
21
1.65829
0
LINE
8
BLACK
6
CONTINUOUS
10
1.24526
20
1.65829
11
1.23579
21
1.65829
0
LINE
8
BLACK
6
CONTINUOUS
10
0.22538
20
0.380104
11
0.224803
21
0.381496
0
LINE
8
BLACK
6
CONTINUOUS
10
0.224803
20
0.381496
11
0.224803
21
1.44449
0
LINE
8
BLACK
6
CONTINUOUS
10
0.224803
20
1.44449
11
0.22538
21
1.44588
0
LINE
8
BLACK
6
CONTINUOUS
10
0.22538
20
1.44588
11
0.226772
21
1.44646
0
LINE
8
BLACK
6
CONTINUOUS
10
0.226772
20
1.44646
11
0.785827
21
1.44646
0
LINE
8
BLACK
6
CONTINUOUS
10
0.785827
20
1.44646
11
0.787219
21
1.44588
0
LINE
8
BLACK
6
CONTINUOUS
10
0.787219
20
1.44588
11
0.787795
21
1.44449
0
LINE
8
BLACK
6
CONTINUOUS
10
0.787795
20
1.44449
11
0.787795
21
0.381496
0
LINE
8
BLACK
6
CONTINUOUS
10
0.787795
20
0.381496
11
0.787219
21
0.380104
0
LINE
8
BLACK
6
CONTINUOUS
10
0.787219
20
0.380104
11
0.785827
21
0.379528
0
LINE
8
BLACK
6
CONTINUOUS
10
0.785827
20
0.379528
11
0.226772
21
0.379528
0
LINE
8
BLACK
6
CONTINUOUS
10
0.226772
20
0.379528
11
0.22538
21
0.380104
0
LINE
8
BLACK
6
CONTINUOUS
10
0.22874
20
1.44252
11
0.22874
21
0.383465
0
LINE
8
BLACK
6
CONTINUOUS
10
0.22874
20
0.383465
11
0.783858
21
0.383465
0
LINE
8
BLACK
6
CONTINUOUS
10
0.783858
20
0.383465
11
0.783858
21
1.44252
0
LINE
8
BLACK
6
CONTINUOUS
10
0.783858
20
1.44252
11
0.22874
21
1.44252
0
LINE
8
BLACK
6
CONTINUOUS
10
0.707257
20
1.02433
11
0.707392
21
1.02422
0
LINE
8
BLACK
6
CONTINUOUS
10
0.707392
20
1.02422
11
0.707567
21
1.0242
0
LINE
8
BLACK
6
CONTINUOUS
10
0.707567
20
1.0242
11
0.711317
21
1.02233
0
LINE
8
BLACK
6
CONTINUOUS
10
0.711317
20
1.02233
11
0.712026
21
1.0218
0
LINE
8
BLACK
6
CONTINUOUS
10
0.712026
20
1.0218
11
0.712084
21
1.02177
0
LINE
8
BLACK
6
CONTINUOUS
10
0.712084
20
1.02177
11
0.713959
21
1.0199
0
LINE
8
BLACK
6
CONTINUOUS
10
0.713959
20
1.0199
11
0.714465
21
1.01918
0
LINE
8
BLACK
6
CONTINUOUS
10
0.714465
20
1.01918
11
0.714512
21
1.01913
0
LINE
8
BLACK
6
CONTINUOUS
10
0.714512
20
1.01913
11
0.716387
21
1.01538
0
LINE
8
BLACK
6
CONTINUOUS
10
0.716387
20
1.01538
11
0.716679
21
1.0144
0
LINE
8
BLACK
6
CONTINUOUS
10
0.716679
20
1.0144
11
0.716638
21
1.01423
0
LINE
8
BLACK
6
CONTINUOUS
10
0.716638
20
1.01423
11
0.716699
21
1.01406
0
LINE
8
BLACK
6
CONTINUOUS
10
0.716699
20
1.01406
11
0.716699
21
1.01219
0
LINE
8
BLACK
6
CONTINUOUS
10
0.716699
20
1.01219
11
0.71652
21
1.01118
0
LINE
8
BLACK
6
CONTINUOUS
10
0.71652
20
1.01118
11
0.716407
21
1.01104
0
LINE
8
BLACK
6
CONTINUOUS
10
0.716407
20
1.01104
11
0.716387
21
1.01087
0
LINE
8
BLACK
6
CONTINUOUS
10
0.716387
20
1.01087
11
0.714512
21
1.00712
0
LINE
8
BLACK
6
CONTINUOUS
10
0.714512
20
1.00712
11
0.713986
21
1.00641
0
LINE
8
BLACK
6
CONTINUOUS
10
0.713986
20
1.00641
11
0.713959
21
1.00635
0
LINE
8
BLACK
6
CONTINUOUS
10
0.713959
20
1.00635
11
0.712297
21
1.00469
0
LINE
8
BLACK
6
CONTINUOUS
10
0.712297
20
1.00469
11
0.713959
21
1.00303
0
LINE
8
BLACK
6
CONTINUOUS
10
0.713959
20
1.00303
11
0.714465
21
1.0023
0
LINE
8
BLACK
6
CONTINUOUS
10
0.714465
20
1.0023
11
0.714512
21
1.00226
0
LINE
8
BLACK
6
CONTINUOUS
10
0.714512
20
1.00226
11
0.716387
21
0.998508
0
LINE
8
BLACK
6
CONTINUOUS
10
0.716387
20
0.998508
11
0.716679
21
0.997525
0
LINE
8
BLACK
6
CONTINUOUS
10
0.716679
20
0.997525
11
0.716638
21
0.997354
0
LINE
8
BLACK
6
CONTINUOUS
10
0.716638
20
0.997354
11
0.716699
21
0.997188
0
LINE
8
BLACK
6
CONTINUOUS
10
0.716699
20
0.997188
11
0.716699
21
0.989689
0
LINE
8
BLACK
6
CONTINUOUS
10
0.716699
20
0.989689
11
0.71652
21
0.988679
0
LINE
8
BLACK
6
CONTINUOUS
10
0.71652
20
0.988679
11
0.716407
21
0.988544
0
LINE
8
BLACK
6
CONTINUOUS
10
0.716407
20
0.988544
11
0.716387
21
0.988368
0
LINE
8
BLACK
6
CONTINUOUS
10
0.716387
20
0.988368
11
0.714512
21
0.984619
0
LINE
8
BLACK
6
CONTINUOUS
10
0.714512
20
0.984619
11
0.713986
21
0.98391
0
LINE
8
BLACK
6
CONTINUOUS
10
0.713986
20
0.98391
11
0.713959
21
0.983851
0
LINE
8
BLACK
6
CONTINUOUS
10
0.713959
20
0.983851
11
0.712084
21
0.981977
0
LINE
8
BLACK
6
CONTINUOUS
10
0.712084
20
0.981977
11
0.711361
21
0.98147
0
LINE
8
BLACK
6
CONTINUOUS
10
0.711361
20
0.98147
11
0.711317
21
0.981423
0
LINE
8
BLACK
6
CONTINUOUS
10
0.711317
20
0.981423
11
0.707567
21
0.979549
0
LINE
8
BLACK
6
CONTINUOUS
10
0.707567
20
0.979549
11
0.706584
21
0.979256
0
LINE
8
BLACK
6
CONTINUOUS
10
0.706584
20
0.979256
11
0.706413
21
0.979297
0
LINE
8
BLACK
6
CONTINUOUS
10
0.706413
20
0.979297
11
0.706247
21
0.979237
0
LINE
8
BLACK
6
CONTINUOUS
10
0.706247
20
0.979237
11
0.698748
21
0.979237
0
LINE
8
BLACK
6
CONTINUOUS
10
0.698748
20
0.979237
11
0.697738
21
0.979415
0
LINE
8
BLACK
6
CONTINUOUS
10
0.697738
20
0.979415
11
0.697602
21
0.979529
0
LINE
8
BLACK
6
CONTINUOUS
10
0.697602
20
0.979529
11
0.697427
21
0.979549
0
LINE
8
BLACK
6
CONTINUOUS
10
0.697427
20
0.979549
11
0.693678
21
0.981423
0
LINE
8
BLACK
6
CONTINUOUS
10
0.693678
20
0.981423
11
0.692969
21
0.981949
0
LINE
8
BLACK
6
CONTINUOUS
10
0.692969
20
0.981949
11
0.69291
21
0.981977
0
LINE
8
BLACK
6
CONTINUOUS
10
0.69291
20
0.981977
11
0.691035
21
0.983851
0
LINE
8
BLACK
6
CONTINUOUS
10
0.691035
20
0.983851
11
0.690529
21
0.984574
0
LINE
8
BLACK
6
CONTINUOUS
10
0.690529
20
0.984574
11
0.690482
21
0.984619
0
LINE
8
BLACK
6
CONTINUOUS
10
0.690482
20
0.984619
11
0.688608
21
0.988368
0
LINE
8
BLACK
6
CONTINUOUS
10
0.688608
20
0.988368
11
0.688315
21
0.989351
0
LINE
8
BLACK
6
CONTINUOUS
10
0.688315
20
0.989351
11
0.688356
21
0.989523
0
LINE
8
BLACK
6
CONTINUOUS
10
0.688356
20
0.989523
11
0.688296
21
0.989689
0
LINE
8
BLACK
6
CONTINUOUS
10
0.688296
20
0.989689
11
0.688296
21
0.997188
0
LINE
8
BLACK
6
CONTINUOUS
10
0.688296
20
0.997188
11
0.688474
21
0.998198
0
LINE
8
BLACK
6
CONTINUOUS
10
0.688474
20
0.998198
11
0.688587
21
0.998333
0
LINE
8
BLACK
6
CONTINUOUS
10
0.688587
20
0.998333
11
0.688608
21
0.998508
0
LINE
8
BLACK
6
CONTINUOUS
10
0.688608
20
0.998508
11
0.690482
21
1.00226
0
LINE
8
BLACK
6
CONTINUOUS
10
0.690482
20
1.00226
11
0.691008
21
1.00297
0
LINE
8
BLACK
6
CONTINUOUS
10
0.691008
20
1.00297
11
0.691035
21
1.00303
0
LINE
8
BLACK
6
CONTINUOUS
10
0.691035
20
1.00303
11
0.692697
21
1.00469
0
LINE
8
BLACK
6
CONTINUOUS
10
0.692697
20
1.00469
11
0.691035
21
1.00635
0
LINE
8
BLACK
6
CONTINUOUS
10
0.691035
20
1.00635
11
0.690529
21
1.00707
0
LINE
8
BLACK
6
CONTINUOUS
10
0.690529
20
1.00707
11
0.690482
21
1.00712
0
LINE
8
BLACK
6
CONTINUOUS
10
0.690482
20
1.00712
11
0.688608
21
1.01087
0
LINE
8
BLACK
6
CONTINUOUS
10
0.688608
20
1.01087
11
0.688315
21
1.01185
0
LINE
8
BLACK
6
CONTINUOUS
10
0.688315
20
1.01185
11
0.688356
21
1.01202
0
LINE
8
BLACK
6
CONTINUOUS
10
0.688356
20
1.01202
11
0.688296
21
1.01219
0
LINE
8
BLACK
6
CONTINUOUS
10
0.688296
20
1.01219
11
0.688296
21
1.01406
0
LINE
8
BLACK
6
CONTINUOUS
10
0.688296
20
1.01406
11
0.688474
21
1.01507
0
LINE
8
BLACK
6
CONTINUOUS
10
0.688474
20
1.01507
11
0.688587
21
1.01521
0
LINE
8
BLACK
6
CONTINUOUS
10
0.688587
20
1.01521
11
0.688608
21
1.01538
0
LINE
8
BLACK
6
CONTINUOUS
10
0.688608
20
1.01538
11
0.690482
21
1.01913
0
LINE
8
BLACK
6
CONTINUOUS
10
0.690482
20
1.01913
11
0.691008
21
1.01984
0
LINE
8
BLACK
6
CONTINUOUS
10
0.691008
20
1.01984
11
0.691035
21
1.0199
0
LINE
8
BLACK
6
CONTINUOUS
10
0.691035
20
1.0199
11
0.69291
21
1.02177
0
LINE
8
BLACK
6
CONTINUOUS
10
0.69291
20
1.02177
11
0.693633
21
1.02228
0
LINE
8
BLACK
6
CONTINUOUS
10
0.693633
20
1.02228
11
0.693678
21
1.02233
0
LINE
8
BLACK
6
CONTINUOUS
10
0.693678
20
1.02233
11
0.697427
21
1.0242
0
LINE
8
BLACK
6
CONTINUOUS
10
0.697427
20
1.0242
11
0.69841
21
1.02449
0
LINE
8
BLACK
6
CONTINUOUS
10
0.69841
20
1.02449
11
0.698582
21
1.02445
0
LINE
8
BLACK
6
CONTINUOUS
10
0.698582
20
1.02445
11
0.698748
21
1.02451
0
LINE
8
BLACK
6
CONTINUOUS
10
0.698748
20
1.02451
11
0.706247
21
1.02451
0
LINE
8
BLACK
6
CONTINUOUS
10
0.706247
20
1.02451
11
0.707257
21
1.02433
0
LINE
8
BLACK
6
CONTINUOUS
10
0.699445
20
1.00173
11
0.696747
21
1.00039
0
LINE
8
BLACK
6
CONTINUOUS
10
0.696747
20
1.00039
11
0.69555
21
0.999188
0
LINE
8
BLACK
6
CONTINUOUS
10
0.69555
20
0.999188
11
0.694201
21
0.996491
0
LINE
8
BLACK
6
CONTINUOUS
10
0.694201
20
0.996491
11
0.694201
21
0.990386
0
LINE
8
BLACK
6
CONTINUOUS
10
0.694201
20
0.990386
11
0.69555
21
0.987688
0
LINE
8
BLACK
6
CONTINUOUS
10
0.69555
20
0.987688
11
0.696747
21
0.986491
0
LINE
8
BLACK
6
CONTINUOUS
10
0.696747
20
0.986491
11
0.699445
21
0.985142
0
LINE
8
BLACK
6
CONTINUOUS
10
0.699445
20
0.985142
11
0.70555
21
0.985142
0
LINE
8
BLACK
6
CONTINUOUS
10
0.70555
20
0.985142
11
0.708247
21
0.986491
0
LINE
8
BLACK
6
CONTINUOUS
10
0.708247
20
0.986491
11
0.709444
21
0.987688
0
LINE
8
BLACK
6
CONTINUOUS
10
0.709444
20
0.987688
11
0.710793
21
0.990386
0
LINE
8
BLACK
6
CONTINUOUS
10
0.710793
20
0.990386
11
0.710793
21
0.996491
0
LINE
8
BLACK
6
CONTINUOUS
10
0.710793
20
0.996491
11
0.709444
21
0.999188
0
LINE
8
BLACK
6
CONTINUOUS
10
0.709444
20
0.999188
11
0.708247
21
1.00039
0
LINE
8
BLACK
6
CONTINUOUS
10
0.708247
20
1.00039
11
0.70555
21
1.00173
0
LINE
8
BLACK
6
CONTINUOUS
10
0.70555
20
1.00173
11
0.699445
21
1.00173
0
LINE
8
BLACK
6
CONTINUOUS
10
0.699445
20
1.01861
11
0.696747
21
1.01726
0
LINE
8
BLACK
6
CONTINUOUS
10
0.696747
20
1.01726
11
0.69555
21
1.01606
0
LINE
8
BLACK
6
CONTINUOUS
10
0.69555
20
1.01606
11
0.694201
21
1.01336
0
LINE
8
BLACK
6
CONTINUOUS
10
0.694201
20
1.01336
11
0.694201
21
1.01288
0
LINE
8
BLACK
6
CONTINUOUS
10
0.694201
20
1.01288
11
0.69555
21
1.01019
0
LINE
8
BLACK
6
CONTINUOUS
10
0.69555
20
1.01019
11
0.696747
21
1.00899
0
LINE
8
BLACK
6
CONTINUOUS
10
0.696747
20
1.00899
11
0.699445
21
1.00764
0
LINE
8
BLACK
6
CONTINUOUS
10
0.699445
20
1.00764
11
0.70555
21
1.00764
0
LINE
8
BLACK
6
CONTINUOUS
10
0.70555
20
1.00764
11
0.708247
21
1.00899
0
LINE
8
BLACK
6
CONTINUOUS
10
0.708247
20
1.00899
11
0.709444
21
1.01019
0
LINE
8
BLACK
6
CONTINUOUS
10
0.709444
20
1.01019
11
0.710793
21
1.01288
0
LINE
8
BLACK
6
CONTINUOUS
10
0.710793
20
1.01288
11
0.710793
21
1.01336
0
LINE
8
BLACK
6
CONTINUOUS
10
0.710793
20
1.01336
11
0.709444
21
1.01606
0
LINE
8
BLACK
6
CONTINUOUS
10
0.709444
20
1.01606
11
0.708247
21
1.01726
0
LINE
8
BLACK
6
CONTINUOUS
10
0.708247
20
1.01726
11
0.70555
21
1.01861
0
LINE
8
BLACK
6
CONTINUOUS
10
0.70555
20
1.01861
11
0.699445
21
1.01861
0
LINE
8
BLACK
6
CONTINUOUS
10
0.647917
20
1.06646
11
0.648052
21
1.06635
0
LINE
8
BLACK
6
CONTINUOUS
10
0.648052
20
1.06635
11
0.648227
21
1.06633
0
LINE
8
BLACK
6
CONTINUOUS
10
0.648227
20
1.06633
11
0.651977
21
1.06445
0
LINE
8
BLACK
6
CONTINUOUS
10
0.651977
20
1.06445
11
0.652686
21
1.06393
0
LINE
8
BLACK
6
CONTINUOUS
10
0.652686
20
1.06393
11
0.652744
21
1.0639
0
LINE
8
BLACK
6
CONTINUOUS
10
0.652744
20
1.0639
11
0.654619
21
1.06202
0
LINE
8
BLACK
6
CONTINUOUS
10
0.654619
20
1.06202
11
0.655125
21
1.0613
0
LINE
8
BLACK
6
CONTINUOUS
10
0.655125
20
1.0613
11
0.655172
21
1.06126
0
LINE
8
BLACK
6
CONTINUOUS
10
0.655172
20
1.06126
11
0.657047
21
1.05751
0
LINE
8
BLACK
6
CONTINUOUS
10
0.657047
20
1.05751
11
0.657339
21
1.05652
0
LINE
8
BLACK
6
CONTINUOUS
10
0.657339
20
1.05652
11
0.657298
21
1.05635
0
LINE
8
BLACK
6
CONTINUOUS
10
0.657298
20
1.05635
11
0.657358
21
1.05619
0
LINE
8
BLACK
6
CONTINUOUS
10
0.657358
20
1.05619
11
0.657358
21
1.04119
0
LINE
8
BLACK
6
CONTINUOUS
10
0.657358
20
1.04119
11
0.657256
21
1.04061
0
LINE
8
BLACK
6
CONTINUOUS
10
0.657256
20
1.04061
11
0.65727
21
1.04047
0
LINE
8
BLACK
6
CONTINUOUS
10
0.65727
20
1.04047
11
0.655396
21
1.03297
0
LINE
8
BLACK
6
CONTINUOUS
10
0.655396
20
1.03297
11
0.654992
21
1.03207
0
LINE
8
BLACK
6
CONTINUOUS
10
0.654992
20
1.03207
11
0.654988
21
1.03205
0
LINE
8
BLACK
6
CONTINUOUS
10
0.654988
20
1.03205
11
0.651238
21
1.02643
0
LINE
8
BLACK
6
CONTINUOUS
10
0.651238
20
1.02643
11
0.650927
21
1.0261
0
LINE
8
BLACK
6
CONTINUOUS
10
0.650927
20
1.0261
11
0.650869
21
1.02598
0
LINE
8
BLACK
6
CONTINUOUS
10
0.650869
20
1.02598
11
0.649148
21
1.02426
0
LINE
8
BLACK
6
CONTINUOUS
10
0.649148
20
1.02426
11
0.649376
21
1.02424
0
LINE
8
BLACK
6
CONTINUOUS
10
0.649376
20
1.02424
11
0.649832
21
1.02378
0
LINE
8
BLACK
6
CONTINUOUS
10
0.649832
20
1.02378
11
0.650391
21
1.02346
0
LINE
8
BLACK
6
CONTINUOUS
10
0.650391
20
1.02346
11
0.650526
21
1.02309
0
LINE
8
BLACK
6
CONTINUOUS
10
0.650526
20
1.02309
11
0.650805
21
1.02281
0
LINE
8
BLACK
6
CONTINUOUS
10
0.650805
20
1.02281
11
0.661252
21
1.00042
0
LINE
8
BLACK
6
CONTINUOUS
10
0.661252
20
1.00042
11
0.6717
21
1.02281
0
LINE
8
BLACK
6
CONTINUOUS
10
0.6717
20
1.02281
11
0.672288
21
1.02365
0
LINE
8
BLACK
6
CONTINUOUS
10
0.672288
20
1.02365
11
0.672646
21
1.02381
0
LINE
8
BLACK
6
CONTINUOUS
10
0.672646
20
1.02381
11
0.672899
21
1.02412
0
LINE
8
BLACK
6
CONTINUOUS
10
0.672899
20
1.02412
11
0.673535
21
1.02423
0
LINE
8
BLACK
6
CONTINUOUS
10
0.673535
20
1.02423
11
0.674119
21
1.0245
0
LINE
8
BLACK
6
CONTINUOUS
10
0.674119
20
1.0245
11
0.6745
21
1.0244
0
LINE
8
BLACK
6
CONTINUOUS
10
0.6745
20
1.0244
11
0.674888
21
1.02447
0
LINE
8
BLACK
6
CONTINUOUS
10
0.674888
20
1.02447
11
0.675447
21
1.02415
0
LINE
8
BLACK
6
CONTINUOUS
10
0.675447
20
1.02415
11
0.67607
21
1.02398
0
LINE
8
BLACK
6
CONTINUOUS
10
0.67607
20
1.02398
11
0.676296
21
1.02365
0
LINE
8
BLACK
6
CONTINUOUS
10
0.676296
20
1.02365
11
0.676638
21
1.02346
0
LINE
8
BLACK
6
CONTINUOUS
10
0.676638
20
1.02346
11
0.676858
21
1.02285
0
LINE
8
BLACK
6
CONTINUOUS
10
0.676858
20
1.02285
11
0.677228
21
1.02232
0
LINE
8
BLACK
6
CONTINUOUS
10
0.677228
20
1.02232
11
0.677194
21
1.02193
0
LINE
8
BLACK
6
CONTINUOUS
10
0.677194
20
1.02193
11
0.677328
21
1.02156
0
LINE
8
BLACK
6
CONTINUOUS
10
0.677328
20
1.02156
11
0.677328
21
0.98219
0
LINE
8
BLACK
6
CONTINUOUS
10
0.677328
20
0.98219
11
0.67715
21
0.98118
0
LINE
8
BLACK
6
CONTINUOUS
10
0.67715
20
0.98118
11
0.675852
21
0.979633
0
LINE
8
BLACK
6
CONTINUOUS
10
0.675852
20
0.979633
11
0.673863
21
0.979282
0
LINE
8
BLACK
6
CONTINUOUS
10
0.673863
20
0.979282
11
0.672114
21
0.980292
0
LINE
8
BLACK
6
CONTINUOUS
10
0.672114
20
0.980292
11
0.671423
21
0.98219
0
LINE
8
BLACK
6
CONTINUOUS
10
0.671423
20
0.98219
11
0.671423
21
1.00825
0
LINE
8
BLACK
6
CONTINUOUS
10
0.671423
20
1.00825
11
0.663928
21
0.99219
0
LINE
8
BLACK
6
CONTINUOUS
10
0.663928
20
0.99219
11
0.663705
21
0.991872
0
LINE
8
BLACK
6
CONTINUOUS
10
0.663705
20
0.991872
11
0.663672
21
0.991745
0
LINE
8
BLACK
6
CONTINUOUS
10
0.663672
20
0.991745
11
0.663564
21
0.99167
0
LINE
8
BLACK
6
CONTINUOUS
10
0.663564
20
0.99167
11
0.66334
21
0.99135
0
LINE
8
BLACK
6
CONTINUOUS
10
0.66334
20
0.99135
11
0.662645
21
0.991026
0
LINE
8
BLACK
6
CONTINUOUS
10
0.662645
20
0.991026
11
0.662017
21
0.990586
0
LINE
8
BLACK
6
CONTINUOUS
10
0.662017
20
0.990586
11
0.661751
21
0.99061
0
LINE
8
BLACK
6
CONTINUOUS
10
0.661751
20
0.99061
11
0.661509
21
0.990497
0
LINE
8
BLACK
6
CONTINUOUS
10
0.661509
20
0.990497
11
0.660769
21
0.990695
0
LINE
8
BLACK
6
CONTINUOUS
10
0.660769
20
0.990695
11
0.660005
21
0.990762
0
LINE
8
BLACK
6
CONTINUOUS
10
0.660005
20
0.990762
11
0.659816
21
0.990951
0
LINE
8
BLACK
6
CONTINUOUS
10
0.659816
20
0.990951
11
0.659558
21
0.99102
0
LINE
8
BLACK
6
CONTINUOUS
10
0.659558
20
0.99102
11
0.659119
21
0.991648
0
LINE
8
BLACK
6
CONTINUOUS
10
0.659119
20
0.991648
11
0.658577
21
0.99219
0
LINE
8
BLACK
6
CONTINUOUS
10
0.658577
20
0.99219
11
0.651082
21
1.00825
0
LINE
8
BLACK
6
CONTINUOUS
10
0.651082
20
1.00825
11
0.651082
21
0.98219
0
LINE
8
BLACK
6
CONTINUOUS
10
0.651082
20
0.98219
11
0.650904
21
0.98118
0
LINE
8
BLACK
6
CONTINUOUS
10
0.650904
20
0.98118
11
0.649605
21
0.979633
0
LINE
8
BLACK
6
CONTINUOUS
10
0.649605
20
0.979633
11
0.647616
21
0.979282
0
LINE
8
BLACK
6
CONTINUOUS
10
0.647616
20
0.979282
11
0.645867
21
0.980292
0
LINE
8
BLACK
6
CONTINUOUS
10
0.645867
20
0.980292
11
0.645176
21
0.98219
0
LINE
8
BLACK
6
CONTINUOUS
10
0.645176
20
0.98219
11
0.645176
21
1.02156
0
LINE
8
BLACK
6
CONTINUOUS
10
0.645176
20
1.02156
11
0.645266
21
1.02207
0
LINE
8
BLACK
6
CONTINUOUS
10
0.645266
20
1.02207
11
0.644478
21
1.02167
0
LINE
8
BLACK
6
CONTINUOUS
10
0.644478
20
1.02167
11
0.643495
21
1.02138
0
LINE
8
BLACK
6
CONTINUOUS
10
0.643495
20
1.02138
11
0.643323
21
1.02142
0
LINE
8
BLACK
6
CONTINUOUS
10
0.643323
20
1.02142
11
0.643157
21
1.02136
0
LINE
8
BLACK
6
CONTINUOUS
10
0.643157
20
1.02136
11
0.635658
21
1.02136
0
LINE
8
BLACK
6
CONTINUOUS
10
0.635658
20
1.02136
11
0.634648
21
1.02154
0
LINE
8
BLACK
6
CONTINUOUS
10
0.634648
20
1.02154
11
0.633101
21
1.02284
0
LINE
8
BLACK
6
CONTINUOUS
10
0.633101
20
1.02284
11
0.63275
21
1.02483
0
LINE
8
BLACK
6
CONTINUOUS
10
0.63275
20
1.02483
11
0.63376
21
1.02658
0
LINE
8
BLACK
6
CONTINUOUS
10
0.63376
20
1.02658
11
0.635658
21
1.02727
0
LINE
8
BLACK
6
CONTINUOUS
10
0.635658
20
1.02727
11
0.64246
21
1.02727
0
LINE
8
BLACK
6
CONTINUOUS
10
0.64246
20
1.02727
11
0.645158
21
1.02862
0
LINE
8
BLACK
6
CONTINUOUS
10
0.645158
20
1.02862
11
0.646487
21
1.02995
0
LINE
8
BLACK
6
CONTINUOUS
10
0.646487
20
1.02995
11
0.64979
21
1.0349
0
LINE
8
BLACK
6
CONTINUOUS
10
0.64979
20
1.0349
11
0.65052
21
1.03782
0
LINE
8
BLACK
6
CONTINUOUS
10
0.65052
20
1.03782
11
0.648227
21
1.03667
0
LINE
8
BLACK
6
CONTINUOUS
10
0.648227
20
1.03667
11
0.647244
21
1.03638
0
LINE
8
BLACK
6
CONTINUOUS
10
0.647244
20
1.03638
11
0.647073
21
1.03642
0
LINE
8
BLACK
6
CONTINUOUS
10
0.647073
20
1.03642
11
0.646907
21
1.03636
0
LINE
8
BLACK
6
CONTINUOUS
10
0.646907
20
1.03636
11
0.639408
21
1.03636
0
LINE
8
BLACK
6
CONTINUOUS
10
0.639408
20
1.03636
11
0.638398
21
1.03654
0
LINE
8
BLACK
6
CONTINUOUS
10
0.638398
20
1.03654
11
0.638262
21
1.03665
0
LINE
8
BLACK
6
CONTINUOUS
10
0.638262
20
1.03665
11
0.638087
21
1.03667
0
LINE
8
BLACK
6
CONTINUOUS
10
0.638087
20
1.03667
11
0.634338
21
1.03855
0
LINE
8
BLACK
6
CONTINUOUS
10
0.634338
20
1.03855
11
0.633628
21
1.03907
0
LINE
8
BLACK
6
CONTINUOUS
10
0.633628
20
1.03907
11
0.63357
21
1.0391
0
LINE
8
BLACK
6
CONTINUOUS
10
0.63357
20
1.0391
11
0.631695
21
1.04098
0
LINE
8
BLACK
6
CONTINUOUS
10
0.631695
20
1.04098
11
0.631189
21
1.0417
0
LINE
8
BLACK
6
CONTINUOUS
10
0.631189
20
1.0417
11
0.631142
21
1.04174
0
LINE
8
BLACK
6
CONTINUOUS
10
0.631142
20
1.04174
11
0.629267
21
1.04549
0
LINE
8
BLACK
6
CONTINUOUS
10
0.629267
20
1.04549
11
0.628975
21
1.04648
0
LINE
8
BLACK
6
CONTINUOUS
10
0.628975
20
1.04648
11
0.629016
21
1.04665
0
LINE
8
BLACK
6
CONTINUOUS
10
0.629016
20
1.04665
11
0.628956
21
1.04681
0
LINE
8
BLACK
6
CONTINUOUS
10
0.628956
20
1.04681
11
0.628956
21
1.05619
0
LINE
8
BLACK
6
CONTINUOUS
10
0.628956
20
1.05619
11
0.629134
21
1.0572
0
LINE
8
BLACK
6
CONTINUOUS
10
0.629134
20
1.0572
11
0.629247
21
1.05733
0
LINE
8
BLACK
6
CONTINUOUS
10
0.629247
20
1.05733
11
0.629267
21
1.05751
0
LINE
8
BLACK
6
CONTINUOUS
10
0.629267
20
1.05751
11
0.631142
21
1.06126
0
LINE
8
BLACK
6
CONTINUOUS
10
0.631142
20
1.06126
11
0.631668
21
1.06197
0
LINE
8
BLACK
6
CONTINUOUS
10
0.631668
20
1.06197
11
0.631695
21
1.06202
0
LINE
8
BLACK
6
CONTINUOUS
10
0.631695
20
1.06202
11
0.63357
21
1.0639
0
LINE
8
BLACK
6
CONTINUOUS
10
0.63357
20
1.0639
11
0.634293
21
1.06441
0
LINE
8
BLACK
6
CONTINUOUS
10
0.634293
20
1.06441
11
0.634338
21
1.06445
0
LINE
8
BLACK
6
CONTINUOUS
10
0.634338
20
1.06445
11
0.638087
21
1.06633
0
LINE
8
BLACK
6
CONTINUOUS
10
0.638087
20
1.06633
11
0.63907
21
1.06662
0
LINE
8
BLACK
6
CONTINUOUS
10
0.63907
20
1.06662
11
0.639242
21
1.06658
0
LINE
8
BLACK
6
CONTINUOUS
10
0.639242
20
1.06658
11
0.639408
21
1.06664
0
LINE
8
BLACK
6
CONTINUOUS
10
0.639408
20
1.06664
11
0.646907
21
1.06664
0
LINE
8
BLACK
6
CONTINUOUS
10
0.646907
20
1.06664
11
0.647917
21
1.06646
0
LINE
8
BLACK
6
CONTINUOUS
10
0.640105
20
1.06073
11
0.637407
21
1.05938
0
LINE
8
BLACK
6
CONTINUOUS
10
0.637407
20
1.05938
11
0.63621
21
1.05819
0
LINE
8
BLACK
6
CONTINUOUS
10
0.63621
20
1.05819
11
0.634861
21
1.05549
0
LINE
8
BLACK
6
CONTINUOUS
10
0.634861
20
1.05549
11
0.634861
21
1.04751
0
LINE
8
BLACK
6
CONTINUOUS
10
0.634861
20
1.04751
11
0.63621
21
1.04481
0
LINE
8
BLACK
6
CONTINUOUS
10
0.63621
20
1.04481
11
0.637407
21
1.04362
0
LINE
8
BLACK
6
CONTINUOUS
10
0.637407
20
1.04362
11
0.640105
21
1.04227
0
LINE
8
BLACK
6
CONTINUOUS
10
0.640105
20
1.04227
11
0.64621
21
1.04227
0
LINE
8
BLACK
6
CONTINUOUS
10
0.64621
20
1.04227
11
0.648907
21
1.04362
0
LINE
8
BLACK
6
CONTINUOUS
10
0.648907
20
1.04362
11
0.650104
21
1.04481
0
LINE
8
BLACK
6
CONTINUOUS
10
0.650104
20
1.04481
11
0.651453
21
1.04751
0
LINE
8
BLACK
6
CONTINUOUS
10
0.651453
20
1.04751
11
0.651453
21
1.05549
0
LINE
8
BLACK
6
CONTINUOUS
10
0.651453
20
1.05549
11
0.650104
21
1.05819
0
LINE
8
BLACK
6
CONTINUOUS
10
0.650104
20
1.05819
11
0.648907
21
1.05938
0
LINE
8
BLACK
6
CONTINUOUS
10
0.648907
20
1.05938
11
0.64621
21
1.06073
0
LINE
8
BLACK
6
CONTINUOUS
10
0.64621
20
1.06073
11
0.640105
21
1.06073
0
LINE
8
BLACK
6
CONTINUOUS
10
0.411696
20
1.06646
11
0.411831
21
1.06635
0
LINE
8
BLACK
6
CONTINUOUS
10
0.411831
20
1.06635
11
0.412007
21
1.06633
0
LINE
8
BLACK
6
CONTINUOUS
10
0.412007
20
1.06633
11
0.415756
21
1.06445
0
LINE
8
BLACK
6
CONTINUOUS
10
0.415756
20
1.06445
11
0.416465
21
1.06393
0
LINE
8
BLACK
6
CONTINUOUS
10
0.416465
20
1.06393
11
0.416524
21
1.0639
0
LINE
8
BLACK
6
CONTINUOUS
10
0.416524
20
1.0639
11
0.418398
21
1.06202
0
LINE
8
BLACK
6
CONTINUOUS
10
0.418398
20
1.06202
11
0.418905
21
1.0613
0
LINE
8
BLACK
6
CONTINUOUS
10
0.418905
20
1.0613
11
0.418951
21
1.06126
0
LINE
8
BLACK
6
CONTINUOUS
10
0.418951
20
1.06126
11
0.420826
21
1.05751
0
LINE
8
BLACK
6
CONTINUOUS
10
0.420826
20
1.05751
11
0.421119
21
1.05652
0
LINE
8
BLACK
6
CONTINUOUS
10
0.421119
20
1.05652
11
0.421078
21
1.05635
0
LINE
8
BLACK
6
CONTINUOUS
10
0.421078
20
1.05635
11
0.421138
21
1.05619
0
LINE
8
BLACK
6
CONTINUOUS
10
0.421138
20
1.05619
11
0.421138
21
1.05244
0
LINE
8
BLACK
6
CONTINUOUS
10
0.421138
20
1.05244
11
0.420985
21
1.05157
0
LINE
8
BLACK
6
CONTINUOUS
10
0.420985
20
1.05157
11
0.420986
21
1.0515
0
LINE
8
BLACK
6
CONTINUOUS
10
0.420986
20
1.0515
11
0.419112
21
1.04588
0
LINE
8
BLACK
6
CONTINUOUS
10
0.419112
20
1.04588
11
0.418623
21
1.04498
0
LINE
8
BLACK
6
CONTINUOUS
10
0.418623
20
1.04498
11
0.418473
21
1.04488
0
LINE
8
BLACK
6
CONTINUOUS
10
0.418473
20
1.04488
11
0.418398
21
1.04472
0
LINE
8
BLACK
6
CONTINUOUS
10
0.418398
20
1.04472
11
0.400942
21
1.02727
0
LINE
8
BLACK
6
CONTINUOUS
10
0.400942
20
1.02727
11
0.418185
21
1.02727
0
LINE
8
BLACK
6
CONTINUOUS
10
0.418185
20
1.02727
11
0.419195
21
1.02709
0
LINE
8
BLACK
6
CONTINUOUS
10
0.419195
20
1.02709
11
0.420742
21
1.02579
0
LINE
8
BLACK
6
CONTINUOUS
10
0.420742
20
1.02579
11
0.421093
21
1.0238
0
LINE
8
BLACK
6
CONTINUOUS
10
0.421093
20
1.0238
11
0.420083
21
1.02205
0
LINE
8
BLACK
6
CONTINUOUS
10
0.420083
20
1.02205
11
0.418185
21
1.02136
0
LINE
8
BLACK
6
CONTINUOUS
10
0.418185
20
1.02136
11
0.393813
21
1.02136
0
LINE
8
BLACK
6
CONTINUOUS
10
0.393813
20
1.02136
11
0.393179
21
1.02147
0
LINE
8
BLACK
6
CONTINUOUS
10
0.393179
20
1.02147
11
0.393049
21
1.02146
0
LINE
8
BLACK
6
CONTINUOUS
10
0.393049
20
1.02146
11
0.392984
21
1.02151
0
LINE
8
BLACK
6
CONTINUOUS
10
0.392984
20
1.02151
11
0.392803
21
1.02154
0
LINE
8
BLACK
6
CONTINUOUS
10
0.392803
20
1.02154
11
0.392123
21
1.02211
0
LINE
8
BLACK
6
CONTINUOUS
10
0.392123
20
1.02211
11
0.391394
21
1.02262
0
LINE
8
BLACK
6
CONTINUOUS
10
0.391394
20
1.02262
11
0.39136
21
1.02275
0
LINE
8
BLACK
6
CONTINUOUS
10
0.39136
20
1.02275
11
0.391256
21
1.02284
0
LINE
8
BLACK
6
CONTINUOUS
10
0.391256
20
1.02284
11
0.391102
21
1.02371
0
LINE
8
BLACK
6
CONTINUOUS
10
0.391102
20
1.02371
11
0.390872
21
1.02457
0
LINE
8
BLACK
6
CONTINUOUS
10
0.390872
20
1.02457
11
0.390929
21
1.0247
0
LINE
8
BLACK
6
CONTINUOUS
10
0.390929
20
1.0247
11
0.390905
21
1.02483
0
LINE
8
BLACK
6
CONTINUOUS
10
0.390905
20
1.02483
11
0.39135
21
1.0256
0
LINE
8
BLACK
6
CONTINUOUS
10
0.39135
20
1.0256
11
0.391725
21
1.0264
0
LINE
8
BLACK
6
CONTINUOUS
10
0.391725
20
1.0264
11
0.41373
21
1.04841
0
LINE
8
BLACK
6
CONTINUOUS
10
0.41373
20
1.04841
11
0.415232
21
1.05292
0
LINE
8
BLACK
6
CONTINUOUS
10
0.415232
20
1.05292
11
0.415232
21
1.05549
0
LINE
8
BLACK
6
CONTINUOUS
10
0.415232
20
1.05549
11
0.413884
21
1.05819
0
LINE
8
BLACK
6
CONTINUOUS
10
0.413884
20
1.05819
11
0.412687
21
1.05938
0
LINE
8
BLACK
6
CONTINUOUS
10
0.412687
20
1.05938
11
0.409989
21
1.06073
0
LINE
8
BLACK
6
CONTINUOUS
10
0.409989
20
1.06073
11
0.402009
21
1.06073
0
LINE
8
BLACK
6
CONTINUOUS
10
0.402009
20
1.06073
11
0.399312
21
1.05938
0
LINE
8
BLACK
6
CONTINUOUS
10
0.399312
20
1.05938
11
0.397776
21
1.05785
0
LINE
8
BLACK
6
CONTINUOUS
10
0.397776
20
1.05785
11
0.396936
21
1.05726
0
LINE
8
BLACK
6
CONTINUOUS
10
0.396936
20
1.05726
11
0.394924
21
1.05708
0
LINE
8
BLACK
6
CONTINUOUS
10
0.394924
20
1.05708
11
0.393269
21
1.05824
0
LINE
8
BLACK
6
CONTINUOUS
10
0.393269
20
1.05824
11
0.392747
21
1.06019
0
LINE
8
BLACK
6
CONTINUOUS
10
0.392747
20
1.06019
11
0.3936
21
1.06202
0
LINE
8
BLACK
6
CONTINUOUS
10
0.3936
20
1.06202
11
0.395475
21
1.0639
0
LINE
8
BLACK
6
CONTINUOUS
10
0.395475
20
1.0639
11
0.396198
21
1.06441
0
LINE
8
BLACK
6
CONTINUOUS
10
0.396198
20
1.06441
11
0.396242
21
1.06445
0
LINE
8
BLACK
6
CONTINUOUS
10
0.396242
20
1.06445
11
0.399992
21
1.06633
0
LINE
8
BLACK
6
CONTINUOUS
10
0.399992
20
1.06633
11
0.400975
21
1.06662
0
LINE
8
BLACK
6
CONTINUOUS
10
0.400975
20
1.06662
11
0.401146
21
1.06658
0
LINE
8
BLACK
6
CONTINUOUS
10
0.401146
20
1.06658
11
0.401312
21
1.06664
0
LINE
8
BLACK
6
CONTINUOUS
10
0.401312
20
1.06664
11
0.410686
21
1.06664
0
LINE
8
BLACK
6
CONTINUOUS
10
0.410686
20
1.06664
11
0.411696
21
1.06646
0
LINE
8
BLACK
6
CONTINUOUS
10
0.608546
20
1.06646
11
0.608682
21
1.06635
0
LINE
8
BLACK
6
CONTINUOUS
10
0.608682
20
1.06635
11
0.608857
21
1.06633
0
LINE
8
BLACK
6
CONTINUOUS
10
0.608857
20
1.06633
11
0.612607
21
1.06445
0
LINE
8
BLACK
6
CONTINUOUS
10
0.612607
20
1.06445
11
0.613316
21
1.06393
0
LINE
8
BLACK
6
CONTINUOUS
10
0.613316
20
1.06393
11
0.613374
21
1.0639
0
LINE
8
BLACK
6
CONTINUOUS
10
0.613374
20
1.0639
11
0.615249
21
1.06202
0
LINE
8
BLACK
6
CONTINUOUS
10
0.615249
20
1.06202
11
0.615755
21
1.0613
0
LINE
8
BLACK
6
CONTINUOUS
10
0.615755
20
1.0613
11
0.615802
21
1.06126
0
LINE
8
BLACK
6
CONTINUOUS
10
0.615802
20
1.06126
11
0.617677
21
1.05751
0
LINE
8
BLACK
6
CONTINUOUS
10
0.617677
20
1.05751
11
0.617822
21
1.05702
0
LINE
8
BLACK
6
CONTINUOUS
10
0.617822
20
1.05702
11
0.6179
21
1.0569
0
LINE
8
BLACK
6
CONTINUOUS
10
0.6179
20
1.0569
11
0.619775
21
1.0494
0
LINE
8
BLACK
6
CONTINUOUS
10
0.619775
20
1.0494
11
0.619816
21
1.04882
0
LINE
8
BLACK
6
CONTINUOUS
10
0.619816
20
1.04882
11
0.619863
21
1.04869
0
LINE
8
BLACK
6
CONTINUOUS
10
0.619863
20
1.04869
11
0.619863
21
1.03931
0
LINE
8
BLACK
6
CONTINUOUS
10
0.619863
20
1.03931
11
0.619761
21
1.03873
0
LINE
8
BLACK
6
CONTINUOUS
10
0.619761
20
1.03873
11
0.619775
21
1.0386
0
LINE
8
BLACK
6
CONTINUOUS
10
0.619775
20
1.0386
11
0.6179
21
1.0311
0
LINE
8
BLACK
6
CONTINUOUS
10
0.6179
20
1.0311
11
0.617693
21
1.03063
0
LINE
8
BLACK
6
CONTINUOUS
10
0.617693
20
1.03063
11
0.617677
21
1.03049
0
LINE
8
BLACK
6
CONTINUOUS
10
0.617677
20
1.03049
11
0.615802
21
1.02674
0
LINE
8
BLACK
6
CONTINUOUS
10
0.615802
20
1.02674
11
0.615276
21
1.02604
0
LINE
8
BLACK
6
CONTINUOUS
10
0.615276
20
1.02604
11
0.615249
21
1.02598
0
LINE
8
BLACK
6
CONTINUOUS
10
0.615249
20
1.02598
11
0.613374
21
1.0241
0
LINE
8
BLACK
6
CONTINUOUS
10
0.613374
20
1.0241
11
0.612651
21
1.0236
0
LINE
8
BLACK
6
CONTINUOUS
10
0.612651
20
1.0236
11
0.612607
21
1.02355
0
LINE
8
BLACK
6
CONTINUOUS
10
0.612607
20
1.02355
11
0.608857
21
1.02167
0
LINE
8
BLACK
6
CONTINUOUS
10
0.608857
20
1.02167
11
0.607874
21
1.02138
0
LINE
8
BLACK
6
CONTINUOUS
10
0.607874
20
1.02138
11
0.607702
21
1.02142
0
LINE
8
BLACK
6
CONTINUOUS
10
0.607702
20
1.02142
11
0.607537
21
1.02136
0
LINE
8
BLACK
6
CONTINUOUS
10
0.607537
20
1.02136
11
0.603787
21
1.02136
0
LINE
8
BLACK
6
CONTINUOUS
10
0.603787
20
1.02136
11
0.602777
21
1.02154
0
LINE
8
BLACK
6
CONTINUOUS
10
0.602777
20
1.02154
11
0.602642
21
1.02165
0
LINE
8
BLACK
6
CONTINUOUS
10
0.602642
20
1.02165
11
0.602466
21
1.02167
0
LINE
8
BLACK
6
CONTINUOUS
10
0.602466
20
1.02167
11
0.598717
21
1.02355
0
LINE
8
BLACK
6
CONTINUOUS
10
0.598717
20
1.02355
11
0.598008
21
1.02408
0
LINE
8
BLACK
6
CONTINUOUS
10
0.598008
20
1.02408
11
0.59795
21
1.0241
0
LINE
8
BLACK
6
CONTINUOUS
10
0.59795
20
1.0241
11
0.596075
21
1.02598
0
LINE
8
BLACK
6
CONTINUOUS
10
0.596075
20
1.02598
11
0.595569
21
1.0267
0
LINE
8
BLACK
6
CONTINUOUS
10
0.595569
20
1.0267
11
0.595522
21
1.02674
0
LINE
8
BLACK
6
CONTINUOUS
10
0.595522
20
1.02674
11
0.593647
21
1.03049
0
LINE
8
BLACK
6
CONTINUOUS
10
0.593647
20
1.03049
11
0.593502
21
1.03098
0
LINE
8
BLACK
6
CONTINUOUS
10
0.593502
20
1.03098
11
0.593423
21
1.0311
0
LINE
8
BLACK
6
CONTINUOUS
10
0.593423
20
1.0311
11
0.591549
21
1.0386
0
LINE
8
BLACK
6
CONTINUOUS
10
0.591549
20
1.0386
11
0.591507
21
1.03919
0
LINE
8
BLACK
6
CONTINUOUS
10
0.591507
20
1.03919
11
0.59146
21
1.03931
0
LINE
8
BLACK
6
CONTINUOUS
10
0.59146
20
1.03931
11
0.59146
21
1.04869
0
LINE
8
BLACK
6
CONTINUOUS
10
0.59146
20
1.04869
11
0.591563
21
1.04927
0
LINE
8
BLACK
6
CONTINUOUS
10
0.591563
20
1.04927
11
0.591549
21
1.0494
0
LINE
8
BLACK
6
CONTINUOUS
10
0.591549
20
1.0494
11
0.593423
21
1.0569
0
LINE
8
BLACK
6
CONTINUOUS
10
0.593423
20
1.0569
11
0.593631
21
1.05737
0
LINE
8
BLACK
6
CONTINUOUS
10
0.593631
20
1.05737
11
0.593647
21
1.05751
0
LINE
8
BLACK
6
CONTINUOUS
10
0.593647
20
1.05751
11
0.595522
21
1.06126
0
LINE
8
BLACK
6
CONTINUOUS
10
0.595522
20
1.06126
11
0.596048
21
1.06197
0
LINE
8
BLACK
6
CONTINUOUS
10
0.596048
20
1.06197
11
0.596075
21
1.06202
0
LINE
8
BLACK
6
CONTINUOUS
10
0.596075
20
1.06202
11
0.59795
21
1.0639
0
LINE
8
BLACK
6
CONTINUOUS
10
0.59795
20
1.0639
11
0.598673
21
1.06441
0
LINE
8
BLACK
6
CONTINUOUS
10
0.598673
20
1.06441
11
0.598717
21
1.06445
0
LINE
8
BLACK
6
CONTINUOUS
10
0.598717
20
1.06445
11
0.602466
21
1.06633
0
LINE
8
BLACK
6
CONTINUOUS
10
0.602466
20
1.06633
11
0.603449
21
1.06662
0
LINE
8
BLACK
6
CONTINUOUS
10
0.603449
20
1.06662
11
0.603621
21
1.06658
0
LINE
8
BLACK
6
CONTINUOUS
10
0.603621
20
1.06658
11
0.603787
21
1.06664
0
LINE
8
BLACK
6
CONTINUOUS
10
0.603787
20
1.06664
11
0.607537
21
1.06664
0
LINE
8
BLACK
6
CONTINUOUS
10
0.607537
20
1.06664
11
0.608546
21
1.06646
0
LINE
8
BLACK
6
CONTINUOUS
10
0.604484
20
1.06073
11
0.601787
21
1.05938
0
LINE
8
BLACK
6
CONTINUOUS
10
0.601787
20
1.05938
11
0.600589
21
1.05819
0
LINE
8
BLACK
6
CONTINUOUS
10
0.600589
20
1.05819
11
0.599074
21
1.05516
0
LINE
8
BLACK
6
CONTINUOUS
10
0.599074
20
1.05516
11
0.597366
21
1.04832
0
LINE
8
BLACK
6
CONTINUOUS
10
0.597366
20
1.04832
11
0.597366
21
1.03968
0
LINE
8
BLACK
6
CONTINUOUS
10
0.597366
20
1.03968
11
0.599074
21
1.03285
0
LINE
8
BLACK
6
CONTINUOUS
10
0.599074
20
1.03285
11
0.600589
21
1.02981
0
LINE
8
BLACK
6
CONTINUOUS
10
0.600589
20
1.02981
11
0.601787
21
1.02862
0
LINE
8
BLACK
6
CONTINUOUS
10
0.601787
20
1.02862
11
0.604484
21
1.02727
0
LINE
8
BLACK
6
CONTINUOUS
10
0.604484
20
1.02727
11
0.606839
21
1.02727
0
LINE
8
BLACK
6
CONTINUOUS
10
0.606839
20
1.02727
11
0.609537
21
1.02862
0
LINE
8
BLACK
6
CONTINUOUS
10
0.609537
20
1.02862
11
0.610734
21
1.02981
0
LINE
8
BLACK
6
CONTINUOUS
10
0.610734
20
1.02981
11
0.61225
21
1.03285
0
LINE
8
BLACK
6
CONTINUOUS
10
0.61225
20
1.03285
11
0.613958
21
1.03968
0
LINE
8
BLACK
6
CONTINUOUS
10
0.613958
20
1.03968
11
0.613958
21
1.04832
0
LINE
8
BLACK
6
CONTINUOUS
10
0.613958
20
1.04832
11
0.61225
21
1.05516
0
LINE
8
BLACK
6
CONTINUOUS
10
0.61225
20
1.05516
11
0.610734
21
1.05819
0
LINE
8
BLACK
6
CONTINUOUS
10
0.610734
20
1.05819
11
0.609537
21
1.05938
0
LINE
8
BLACK
6
CONTINUOUS
10
0.609537
20
1.05938
11
0.606839
21
1.06073
0
LINE
8
BLACK
6
CONTINUOUS
10
0.606839
20
1.06073
11
0.604484
21
1.06073
0
LINE
8
BLACK
6
CONTINUOUS
10
0.375935
20
1.06649
11
0.375999
21
1.06649
0
LINE
8
BLACK
6
CONTINUOUS
10
0.375999
20
1.06649
11
0.381624
21
1.06461
0
LINE
8
BLACK
6
CONTINUOUS
10
0.381624
20
1.06461
11
0.382525
21
1.06412
0
LINE
8
BLACK
6
CONTINUOUS
10
0.382525
20
1.06412
11
0.383583
21
1.0624
0
LINE
8
BLACK
6
CONTINUOUS
10
0.383583
20
1.0624
11
0.383286
21
1.06041
0
LINE
8
BLACK
6
CONTINUOUS
10
0.383286
20
1.06041
11
0.381775
21
1.05906
0
LINE
8
BLACK
6
CONTINUOUS
10
0.381775
20
1.05906
11
0.379756
21
1.05901
0
LINE
8
BLACK
6
CONTINUOUS
10
0.379756
20
1.05901
11
0.374586
21
1.06073
0
LINE
8
BLACK
6
CONTINUOUS
10
0.374586
20
1.06073
11
0.366389
21
1.06073
0
LINE
8
BLACK
6
CONTINUOUS
10
0.366389
20
1.06073
11
0.363691
21
1.05938
0
LINE
8
BLACK
6
CONTINUOUS
10
0.363691
20
1.05938
11
0.362494
21
1.05819
0
LINE
8
BLACK
6
CONTINUOUS
10
0.362494
20
1.05819
11
0.361145
21
1.05549
0
LINE
8
BLACK
6
CONTINUOUS
10
0.361145
20
1.05549
11
0.361145
21
1.05313
0
LINE
8
BLACK
6
CONTINUOUS
10
0.361145
20
1.05313
11
0.362494
21
1.05044
0
LINE
8
BLACK
6
CONTINUOUS
10
0.362494
20
1.05044
11
0.363691
21
1.04924
0
LINE
8
BLACK
6
CONTINUOUS
10
0.363691
20
1.04924
11
0.366722
21
1.04772
0
LINE
8
BLACK
6
CONTINUOUS
10
0.366722
20
1.04772
11
0.373907
21
1.04593
0
LINE
8
BLACK
6
CONTINUOUS
10
0.373907
20
1.04593
11
0.374372
21
1.04572
0
LINE
8
BLACK
6
CONTINUOUS
10
0.374372
20
1.04572
11
0.374511
21
1.0457
0
LINE
8
BLACK
6
CONTINUOUS
10
0.374511
20
1.0457
11
0.378261
21
1.04383
0
LINE
8
BLACK
6
CONTINUOUS
10
0.378261
20
1.04383
11
0.37897
21
1.0433
0
LINE
8
BLACK
6
CONTINUOUS
10
0.37897
20
1.0433
11
0.379028
21
1.04328
0
LINE
8
BLACK
6
CONTINUOUS
10
0.379028
20
1.04328
11
0.380903
21
1.0414
0
LINE
8
BLACK
6
CONTINUOUS
10
0.380903
20
1.0414
11
0.381409
21
1.04068
0
LINE
8
BLACK
6
CONTINUOUS
10
0.381409
20
1.04068
11
0.381456
21
1.04063
0
LINE
8
BLACK
6
CONTINUOUS
10
0.381456
20
1.04063
11
0.383331
21
1.03688
0
LINE
8
BLACK
6
CONTINUOUS
10
0.383331
20
1.03688
11
0.383623
21
1.0359
0
LINE
8
BLACK
6
CONTINUOUS
10
0.383623
20
1.0359
11
0.383582
21
1.03573
0
LINE
8
BLACK
6
CONTINUOUS
10
0.383582
20
1.03573
11
0.383643
21
1.03556
0
LINE
8
BLACK
6
CONTINUOUS
10
0.383643
20
1.03556
11
0.383643
21
1.03181
0
LINE
8
BLACK
6
CONTINUOUS
10
0.383643
20
1.03181
11
0.383465
21
1.0308
0
LINE
8
BLACK
6
CONTINUOUS
10
0.383465
20
1.0308
11
0.383351
21
1.03067
0
LINE
8
BLACK
6
CONTINUOUS
10
0.383351
20
1.03067
11
0.383331
21
1.03049
0
LINE
8
BLACK
6
CONTINUOUS
10
0.383331
20
1.03049
11
0.381456
21
1.02674
0
LINE
8
BLACK
6
CONTINUOUS
10
0.381456
20
1.02674
11
0.38093
21
1.02604
0
LINE
8
BLACK
6
CONTINUOUS
10
0.38093
20
1.02604
11
0.380903
21
1.02598
0
LINE
8
BLACK
6
CONTINUOUS
10
0.380903
20
1.02598
11
0.379028
21
1.0241
0
LINE
8
BLACK
6
CONTINUOUS
10
0.379028
20
1.0241
11
0.378305
21
1.0236
0
LINE
8
BLACK
6
CONTINUOUS
10
0.378305
20
1.0236
11
0.378261
21
1.02355
0
LINE
8
BLACK
6
CONTINUOUS
10
0.378261
20
1.02355
11
0.374511
21
1.02167
0
LINE
8
BLACK
6
CONTINUOUS
10
0.374511
20
1.02167
11
0.373528
21
1.02138
0
LINE
8
BLACK
6
CONTINUOUS
10
0.373528
20
1.02138
11
0.373357
21
1.02142
0
LINE
8
BLACK
6
CONTINUOUS
10
0.373357
20
1.02142
11
0.373191
21
1.02136
0
LINE
8
BLACK
6
CONTINUOUS
10
0.373191
20
1.02136
11
0.363817
21
1.02136
0
LINE
8
BLACK
6
CONTINUOUS
10
0.363817
20
1.02136
11
0.362948
21
1.02152
0
LINE
8
BLACK
6
CONTINUOUS
10
0.362948
20
1.02152
11
0.362883
21
1.02151
0
LINE
8
BLACK
6
CONTINUOUS
10
0.362883
20
1.02151
11
0.357259
21
1.02339
0
LINE
8
BLACK
6
CONTINUOUS
10
0.357259
20
1.02339
11
0.356357
21
1.02388
0
LINE
8
BLACK
6
CONTINUOUS
10
0.356357
20
1.02388
11
0.3553
21
1.0256
0
LINE
8
BLACK
6
CONTINUOUS
10
0.3553
20
1.0256
11
0.355596
21
1.0276
0
LINE
8
BLACK
6
CONTINUOUS
10
0.355596
20
1.0276
11
0.357107
21
1.02894
0
LINE
8
BLACK
6
CONTINUOUS
10
0.357107
20
1.02894
11
0.359126
21
1.02899
0
LINE
8
BLACK
6
CONTINUOUS
10
0.359126
20
1.02899
11
0.364296
21
1.02727
0
LINE
8
BLACK
6
CONTINUOUS
10
0.364296
20
1.02727
11
0.372494
21
1.02727
0
LINE
8
BLACK
6
CONTINUOUS
10
0.372494
20
1.02727
11
0.375191
21
1.02862
0
LINE
8
BLACK
6
CONTINUOUS
10
0.375191
20
1.02862
11
0.376388
21
1.02981
0
LINE
8
BLACK
6
CONTINUOUS
10
0.376388
20
1.02981
11
0.377737
21
1.03251
0
LINE
8
BLACK
6
CONTINUOUS
10
0.377737
20
1.03251
11
0.377737
21
1.03487
0
LINE
8
BLACK
6
CONTINUOUS
10
0.377737
20
1.03487
11
0.376388
21
1.03756
0
LINE
8
BLACK
6
CONTINUOUS
10
0.376388
20
1.03756
11
0.375191
21
1.03876
0
LINE
8
BLACK
6
CONTINUOUS
10
0.375191
20
1.03876
11
0.37216
21
1.04028
0
LINE
8
BLACK
6
CONTINUOUS
10
0.37216
20
1.04028
11
0.364976
21
1.04207
0
LINE
8
BLACK
6
CONTINUOUS
10
0.364976
20
1.04207
11
0.36451
21
1.04228
0
LINE
8
BLACK
6
CONTINUOUS
10
0.36451
20
1.04228
11
0.364371
21
1.0423
0
LINE
8
BLACK
6
CONTINUOUS
10
0.364371
20
1.0423
11
0.360622
21
1.04417
0
LINE
8
BLACK
6
CONTINUOUS
10
0.360622
20
1.04417
11
0.359913
21
1.0447
0
LINE
8
BLACK
6
CONTINUOUS
10
0.359913
20
1.0447
11
0.359854
21
1.04472
0
LINE
8
BLACK
6
CONTINUOUS
10
0.359854
20
1.04472
11
0.35798
21
1.0466
0
LINE
8
BLACK
6
CONTINUOUS
10
0.35798
20
1.0466
11
0.357473
21
1.04732
0
LINE
8
BLACK
6
CONTINUOUS
10
0.357473
20
1.04732
11
0.357426
21
1.04737
0
LINE
8
BLACK
6
CONTINUOUS
10
0.357426
20
1.04737
11
0.355552
21
1.05112
0
LINE
8
BLACK
6
CONTINUOUS
10
0.355552
20
1.05112
11
0.355259
21
1.0521
0
LINE
8
BLACK
6
CONTINUOUS
10
0.355259
20
1.0521
11
0.3553
21
1.05227
0
LINE
8
BLACK
6
CONTINUOUS
10
0.3553
20
1.05227
11
0.35524
21
1.05244
0
LINE
8
BLACK
6
CONTINUOUS
10
0.35524
20
1.05244
11
0.35524
21
1.05619
0
LINE
8
BLACK
6
CONTINUOUS
10
0.35524
20
1.05619
11
0.355418
21
1.0572
0
LINE
8
BLACK
6
CONTINUOUS
10
0.355418
20
1.0572
11
0.355531
21
1.05733
0
LINE
8
BLACK
6
CONTINUOUS
10
0.355531
20
1.05733
11
0.355552
21
1.05751
0
LINE
8
BLACK
6
CONTINUOUS
10
0.355552
20
1.05751
11
0.357426
21
1.06126
0
LINE
8
BLACK
6
CONTINUOUS
10
0.357426
20
1.06126
11
0.357952
21
1.06197
0
LINE
8
BLACK
6
CONTINUOUS
10
0.357952
20
1.06197
11
0.35798
21
1.06202
0
LINE
8
BLACK
6
CONTINUOUS
10
0.35798
20
1.06202
11
0.359854
21
1.0639
0
LINE
8
BLACK
6
CONTINUOUS
10
0.359854
20
1.0639
11
0.360577
21
1.06441
0
LINE
8
BLACK
6
CONTINUOUS
10
0.360577
20
1.06441
11
0.360622
21
1.06445
0
LINE
8
BLACK
6
CONTINUOUS
10
0.360622
20
1.06445
11
0.364371
21
1.06633
0
LINE
8
BLACK
6
CONTINUOUS
10
0.364371
20
1.06633
11
0.365354
21
1.06662
0
LINE
8
BLACK
6
CONTINUOUS
10
0.365354
20
1.06662
11
0.365526
21
1.06658
0
LINE
8
BLACK
6
CONTINUOUS
10
0.365526
20
1.06658
11
0.365692
21
1.06664
0
LINE
8
BLACK
6
CONTINUOUS
10
0.365692
20
1.06664
11
0.375066
21
1.06664
0
LINE
8
BLACK
6
CONTINUOUS
10
0.375066
20
1.06664
11
0.375935
21
1.06649
0
LINE
8
BLACK
6
CONTINUOUS
10
0.458565
20
1.06646
11
0.458832
21
1.06624
0
LINE
8
BLACK
6
CONTINUOUS
10
0.458832
20
1.06624
11
0.459172
21
1.06616
0
LINE
8
BLACK
6
CONTINUOUS
10
0.459172
20
1.06616
11
0.459585
21
1.0656
0
LINE
8
BLACK
6
CONTINUOUS
10
0.459585
20
1.0656
11
0.460112
21
1.06516
0
LINE
8
BLACK
6
CONTINUOUS
10
0.460112
20
1.06516
11
0.460173
21
1.06482
0
LINE
8
BLACK
6
CONTINUOUS
10
0.460173
20
1.06482
11
0.460382
21
1.06454
0
LINE
8
BLACK
6
CONTINUOUS
10
0.460382
20
1.06454
11
0.460344
21
1.06385
0
LINE
8
BLACK
6
CONTINUOUS
10
0.460344
20
1.06385
11
0.460463
21
1.06317
0
LINE
8
BLACK
6
CONTINUOUS
10
0.460463
20
1.06317
11
0.460289
21
1.06287
0
LINE
8
BLACK
6
CONTINUOUS
10
0.460289
20
1.06287
11
0.460269
21
1.06252
0
LINE
8
BLACK
6
CONTINUOUS
10
0.460269
20
1.06252
11
0.443396
21
1.02315
0
LINE
8
BLACK
6
CONTINUOUS
10
0.443396
20
1.02315
11
0.442835
21
1.02229
0
LINE
8
BLACK
6
CONTINUOUS
10
0.442835
20
1.02229
11
0.441032
21
1.02138
0
LINE
8
BLACK
6
CONTINUOUS
10
0.441032
20
1.02138
11
0.439066
21
1.02184
0
LINE
8
BLACK
6
CONTINUOUS
10
0.439066
20
1.02184
11
0.437856
21
1.02346
0
LINE
8
BLACK
6
CONTINUOUS
10
0.437856
20
1.02346
11
0.437968
21
1.02548
0
LINE
8
BLACK
6
CONTINUOUS
10
0.437968
20
1.02548
11
0.453077
21
1.06073
0
LINE
8
BLACK
6
CONTINUOUS
10
0.453077
20
1.06073
11
0.431309
21
1.06073
0
LINE
8
BLACK
6
CONTINUOUS
10
0.431309
20
1.06073
11
0.430299
21
1.06091
0
LINE
8
BLACK
6
CONTINUOUS
10
0.430299
20
1.06091
11
0.428751
21
1.06221
0
LINE
8
BLACK
6
CONTINUOUS
10
0.428751
20
1.06221
11
0.428401
21
1.0642
0
LINE
8
BLACK
6
CONTINUOUS
10
0.428401
20
1.0642
11
0.429411
21
1.06595
0
LINE
8
BLACK
6
CONTINUOUS
10
0.429411
20
1.06595
11
0.431309
21
1.06664
0
LINE
8
BLACK
6
CONTINUOUS
10
0.431309
20
1.06664
11
0.457555
21
1.06664
0
LINE
8
BLACK
6
CONTINUOUS
10
0.457555
20
1.06664
11
0.458565
21
1.06646
0
LINE
8
BLACK
6
CONTINUOUS
10
0.518954
20
1.06816
11
0.520294
21
1.06665
0
LINE
8
BLACK
6
CONTINUOUS
10
0.520294
20
1.06665
11
0.520349
21
1.06463
0
LINE
8
BLACK
6
CONTINUOUS
10
0.520349
20
1.06463
11
0.512271
21
1.04039
0
LINE
8
BLACK
6
CONTINUOUS
10
0.512271
20
1.04039
11
0.523969
21
1.04039
0
LINE
8
BLACK
6
CONTINUOUS
10
0.523969
20
1.04039
11
0.523969
21
1.05056
0
LINE
8
BLACK
6
CONTINUOUS
10
0.523969
20
1.05056
11
0.524147
21
1.05157
0
LINE
8
BLACK
6
CONTINUOUS
10
0.524147
20
1.05157
11
0.525445
21
1.05312
0
LINE
8
BLACK
6
CONTINUOUS
10
0.525445
20
1.05312
11
0.527434
21
1.05347
0
LINE
8
BLACK
6
CONTINUOUS
10
0.527434
20
1.05347
11
0.529184
21
1.05246
0
LINE
8
BLACK
6
CONTINUOUS
10
0.529184
20
1.05246
11
0.529874
21
1.05056
0
LINE
8
BLACK
6
CONTINUOUS
10
0.529874
20
1.05056
11
0.529874
21
1.04039
0
LINE
8
BLACK
6
CONTINUOUS
10
0.529874
20
1.04039
11
0.532546
21
1.04039
0
LINE
8
BLACK
6
CONTINUOUS
10
0.532546
20
1.04039
11
0.533556
21
1.04021
0
LINE
8
BLACK
6
CONTINUOUS
10
0.533556
20
1.04021
11
0.535103
21
1.03892
0
LINE
8
BLACK
6
CONTINUOUS
10
0.535103
20
1.03892
11
0.535454
21
1.03693
0
LINE
8
BLACK
6
CONTINUOUS
10
0.535454
20
1.03693
11
0.534444
21
1.03518
0
LINE
8
BLACK
6
CONTINUOUS
10
0.534444
20
1.03518
11
0.532546
21
1.03449
0
LINE
8
BLACK
6
CONTINUOUS
10
0.532546
20
1.03449
11
0.529874
21
1.03449
0
LINE
8
BLACK
6
CONTINUOUS
10
0.529874
20
1.03449
11
0.529874
21
1.02432
0
LINE
8
BLACK
6
CONTINUOUS
10
0.529874
20
1.02432
11
0.529696
21
1.02331
0
LINE
8
BLACK
6
CONTINUOUS
10
0.529696
20
1.02331
11
0.528398
21
1.02176
0
LINE
8
BLACK
6
CONTINUOUS
10
0.528398
20
1.02176
11
0.526409
21
1.02141
0
LINE
8
BLACK
6
CONTINUOUS
10
0.526409
20
1.02141
11
0.52466
21
1.02242
0
LINE
8
BLACK
6
CONTINUOUS
10
0.52466
20
1.02242
11
0.523969
21
1.02432
0
LINE
8
BLACK
6
CONTINUOUS
10
0.523969
20
1.02432
11
0.523969
21
1.03449
0
LINE
8
BLACK
6
CONTINUOUS
10
0.523969
20
1.03449
11
0.508174
21
1.03449
0
LINE
8
BLACK
6
CONTINUOUS
10
0.508174
20
1.03449
11
0.507164
21
1.03466
0
LINE
8
BLACK
6
CONTINUOUS
10
0.507164
20
1.03466
11
0.506991
21
1.03481
0
LINE
8
BLACK
6
CONTINUOUS
10
0.506991
20
1.03481
11
0.506768
21
1.03484
0
LINE
8
BLACK
6
CONTINUOUS
10
0.506768
20
1.03484
11
0.506234
21
1.03545
0
LINE
8
BLACK
6
CONTINUOUS
10
0.506234
20
1.03545
11
0.505617
21
1.03596
0
LINE
8
BLACK
6
CONTINUOUS
10
0.505617
20
1.03596
11
0.505578
21
1.03618
0
LINE
8
BLACK
6
CONTINUOUS
10
0.505578
20
1.03618
11
0.505428
21
1.03635
0
LINE
8
BLACK
6
CONTINUOUS
10
0.505428
20
1.03635
11
0.505406
21
1.03716
0
LINE
8
BLACK
6
CONTINUOUS
10
0.505406
20
1.03716
11
0.505266
21
1.03795
0
LINE
8
BLACK
6
CONTINUOUS
10
0.505266
20
1.03795
11
0.505379
21
1.03815
0
LINE
8
BLACK
6
CONTINUOUS
10
0.505379
20
1.03815
11
0.505373
21
1.03837
0
LINE
8
BLACK
6
CONTINUOUS
10
0.505373
20
1.03837
11
0.514747
21
1.06649
0
LINE
8
BLACK
6
CONTINUOUS
10
0.514747
20
1.06649
11
0.515235
21
1.0674
0
LINE
8
BLACK
6
CONTINUOUS
10
0.515235
20
1.0674
11
0.516956
21
1.06845
0
LINE
8
BLACK
6
CONTINUOUS
10
0.516956
20
1.06845
11
0.518954
21
1.06816
0
LINE
8
BLACK
6
CONTINUOUS
10
0.481458
20
1.06816
11
0.482799
21
1.06665
0
LINE
8
BLACK
6
CONTINUOUS
10
0.482799
20
1.06665
11
0.482854
21
1.06463
0
LINE
8
BLACK
6
CONTINUOUS
10
0.482854
20
1.06463
11
0.474775
21
1.04039
0
LINE
8
BLACK
6
CONTINUOUS
10
0.474775
20
1.04039
11
0.486474
21
1.04039
0
LINE
8
BLACK
6
CONTINUOUS
10
0.486474
20
1.04039
11
0.486474
21
1.05056
0
LINE
8
BLACK
6
CONTINUOUS
10
0.486474
20
1.05056
11
0.486652
21
1.05157
0
LINE
8
BLACK
6
CONTINUOUS
10
0.486652
20
1.05157
11
0.48795
21
1.05312
0
LINE
8
BLACK
6
CONTINUOUS
10
0.48795
20
1.05312
11
0.489939
21
1.05347
0
LINE
8
BLACK
6
CONTINUOUS
10
0.489939
20
1.05347
11
0.491688
21
1.05246
0
LINE
8
BLACK
6
CONTINUOUS
10
0.491688
20
1.05246
11
0.492379
21
1.05056
0
LINE
8
BLACK
6
CONTINUOUS
10
0.492379
20
1.05056
11
0.492379
21
1.04039
0
LINE
8
BLACK
6
CONTINUOUS
10
0.492379
20
1.04039
11
0.495051
21
1.04039
0
LINE
8
BLACK
6
CONTINUOUS
10
0.495051
20
1.04039
11
0.496061
21
1.04021
0
LINE
8
BLACK
6
CONTINUOUS
10
0.496061
20
1.04021
11
0.497608
21
1.03892
0
LINE
8
BLACK
6
CONTINUOUS
10
0.497608
20
1.03892
11
0.497959
21
1.03693
0
LINE
8
BLACK
6
CONTINUOUS
10
0.497959
20
1.03693
11
0.496949
21
1.03518
0
LINE
8
BLACK
6
CONTINUOUS
10
0.496949
20
1.03518
11
0.495051
21
1.03449
0
LINE
8
BLACK
6
CONTINUOUS
10
0.495051
20
1.03449
11
0.492379
21
1.03449
0
LINE
8
BLACK
6
CONTINUOUS
10
0.492379
20
1.03449
11
0.492379
21
1.02432
0
LINE
8
BLACK
6
CONTINUOUS
10
0.492379
20
1.02432
11
0.492201
21
1.02331
0
LINE
8
BLACK
6
CONTINUOUS
10
0.492201
20
1.02331
11
0.490903
21
1.02176
0
LINE
8
BLACK
6
CONTINUOUS
10
0.490903
20
1.02176
11
0.488914
21
1.02141
0
LINE
8
BLACK
6
CONTINUOUS
10
0.488914
20
1.02141
11
0.487164
21
1.02242
0
LINE
8
BLACK
6
CONTINUOUS
10
0.487164
20
1.02242
11
0.486474
21
1.02432
0
LINE
8
BLACK
6
CONTINUOUS
10
0.486474
20
1.02432
11
0.486474
21
1.03449
0
LINE
8
BLACK
6
CONTINUOUS
10
0.486474
20
1.03449
11
0.470679
21
1.03449
0
LINE
8
BLACK
6
CONTINUOUS
10
0.470679
20
1.03449
11
0.469669
21
1.03466
0
LINE
8
BLACK
6
CONTINUOUS
10
0.469669
20
1.03466
11
0.469496
21
1.03481
0
LINE
8
BLACK
6
CONTINUOUS
10
0.469496
20
1.03481
11
0.469273
21
1.03484
0
LINE
8
BLACK
6
CONTINUOUS
10
0.469273
20
1.03484
11
0.468738
21
1.03545
0
LINE
8
BLACK
6
CONTINUOUS
10
0.468738
20
1.03545
11
0.468121
21
1.03596
0
LINE
8
BLACK
6
CONTINUOUS
10
0.468121
20
1.03596
11
0.468082
21
1.03618
0
LINE
8
BLACK
6
CONTINUOUS
10
0.468082
20
1.03618
11
0.467933
21
1.03635
0
LINE
8
BLACK
6
CONTINUOUS
10
0.467933
20
1.03635
11
0.467911
21
1.03716
0
LINE
8
BLACK
6
CONTINUOUS
10
0.467911
20
1.03716
11
0.467771
21
1.03795
0
LINE
8
BLACK
6
CONTINUOUS
10
0.467771
20
1.03795
11
0.467884
21
1.03815
0
LINE
8
BLACK
6
CONTINUOUS
10
0.467884
20
1.03815
11
0.467877
21
1.03837
0
LINE
8
BLACK
6
CONTINUOUS
10
0.467877
20
1.03837
11
0.477251
21
1.06649
0
LINE
8
BLACK
6
CONTINUOUS
10
0.477251
20
1.06649
11
0.47774
21
1.0674
0
LINE
8
BLACK
6
CONTINUOUS
10
0.47774
20
1.0674
11
0.479461
21
1.06845
0
LINE
8
BLACK
6
CONTINUOUS
10
0.479461
20
1.06845
11
0.481458
21
1.06816
0
LINE
8
BLACK
6
CONTINUOUS
10
0.57855
20
1.04209
11
0.580097
21
1.04079
0
LINE
8
BLACK
6
CONTINUOUS
10
0.580097
20
1.04079
11
0.580448
21
1.0388
0
LINE
8
BLACK
6
CONTINUOUS
10
0.580448
20
1.0388
11
0.579438
21
1.03705
0
LINE
8
BLACK
6
CONTINUOUS
10
0.579438
20
1.03705
11
0.57754
21
1.03636
0
LINE
8
BLACK
6
CONTINUOUS
10
0.57754
20
1.03636
11
0.547544
21
1.03636
0
LINE
8
BLACK
6
CONTINUOUS
10
0.547544
20
1.03636
11
0.546534
21
1.03654
0
LINE
8
BLACK
6
CONTINUOUS
10
0.546534
20
1.03654
11
0.544987
21
1.03784
0
LINE
8
BLACK
6
CONTINUOUS
10
0.544987
20
1.03784
11
0.544636
21
1.03983
0
LINE
8
BLACK
6
CONTINUOUS
10
0.544636
20
1.03983
11
0.545646
21
1.04158
0
LINE
8
BLACK
6
CONTINUOUS
10
0.545646
20
1.04158
11
0.547544
21
1.04227
0
LINE
8
BLACK
6
CONTINUOUS
10
0.547544
20
1.04227
11
0.57754
21
1.04227
0
LINE
8
BLACK
6
CONTINUOUS
10
0.57754
20
1.04227
11
0.57855
21
1.04209
0
LINE
8
BLACK
6
CONTINUOUS
10
0.530744
20
1.16882
11
0.530879
21
1.16871
0
LINE
8
BLACK
6
CONTINUOUS
10
0.530879
20
1.16871
11
0.531054
21
1.16869
0
LINE
8
BLACK
6
CONTINUOUS
10
0.531054
20
1.16869
11
0.534804
21
1.16681
0
LINE
8
BLACK
6
CONTINUOUS
10
0.534804
20
1.16681
11
0.535513
21
1.16629
0
LINE
8
BLACK
6
CONTINUOUS
10
0.535513
20
1.16629
11
0.535571
21
1.16626
0
LINE
8
BLACK
6
CONTINUOUS
10
0.535571
20
1.16626
11
0.537446
21
1.16439
0
LINE
8
BLACK
6
CONTINUOUS
10
0.537446
20
1.16439
11
0.537952
21
1.16366
0
LINE
8
BLACK
6
CONTINUOUS
10
0.537952
20
1.16366
11
0.537999
21
1.16362
0
LINE
8
BLACK
6
CONTINUOUS
10
0.537999
20
1.16362
11
0.539874
21
1.15987
0
LINE
8
BLACK
6
CONTINUOUS
10
0.539874
20
1.15987
11
0.540166
21
1.15889
0
LINE
8
BLACK
6
CONTINUOUS
10
0.540166
20
1.15889
11
0.540125
21
1.15871
0
LINE
8
BLACK
6
CONTINUOUS
10
0.540125
20
1.15871
11
0.540186
21
1.15855
0
LINE
8
BLACK
6
CONTINUOUS
10
0.540186
20
1.15855
11
0.540186
21
1.1548
0
LINE
8
BLACK
6
CONTINUOUS
10
0.540186
20
1.1548
11
0.540032
21
1.15393
0
LINE
8
BLACK
6
CONTINUOUS
10
0.540032
20
1.15393
11
0.540034
21
1.15387
0
LINE
8
BLACK
6
CONTINUOUS
10
0.540034
20
1.15387
11
0.538159
21
1.14824
0
LINE
8
BLACK
6
CONTINUOUS
10
0.538159
20
1.14824
11
0.537671
21
1.14734
0
LINE
8
BLACK
6
CONTINUOUS
10
0.537671
20
1.14734
11
0.537521
21
1.14725
0
LINE
8
BLACK
6
CONTINUOUS
10
0.537521
20
1.14725
11
0.537446
21
1.14709
0
LINE
8
BLACK
6
CONTINUOUS
10
0.537446
20
1.14709
11
0.519989
21
1.12963
0
LINE
8
BLACK
6
CONTINUOUS
10
0.519989
20
1.12963
11
0.537233
21
1.12963
0
LINE
8
BLACK
6
CONTINUOUS
10
0.537233
20
1.12963
11
0.538243
21
1.12945
0
LINE
8
BLACK
6
CONTINUOUS
10
0.538243
20
1.12945
11
0.53979
21
1.12815
0
LINE
8
BLACK
6
CONTINUOUS
10
0.53979
20
1.12815
11
0.540141
21
1.12617
0
LINE
8
BLACK
6
CONTINUOUS
10
0.540141
20
1.12617
11
0.539131
21
1.12442
0
LINE
8
BLACK
6
CONTINUOUS
10
0.539131
20
1.12442
11
0.537233
21
1.12373
0
LINE
8
BLACK
6
CONTINUOUS
10
0.537233
20
1.12373
11
0.512861
21
1.12373
0
LINE
8
BLACK
6
CONTINUOUS
10
0.512861
20
1.12373
11
0.512226
21
1.12384
0
LINE
8
BLACK
6
CONTINUOUS
10
0.512226
20
1.12384
11
0.512097
21
1.12383
0
LINE
8
BLACK
6
CONTINUOUS
10
0.512097
20
1.12383
11
0.512031
21
1.12387
0
LINE
8
BLACK
6
CONTINUOUS
10
0.512031
20
1.12387
11
0.511851
21
1.1239
0
LINE
8
BLACK
6
CONTINUOUS
10
0.511851
20
1.1239
11
0.51117
21
1.12447
0
LINE
8
BLACK
6
CONTINUOUS
10
0.51117
20
1.12447
11
0.510442
21
1.12498
0
LINE
8
BLACK
6
CONTINUOUS
10
0.510442
20
1.12498
11
0.510407
21
1.12511
0
LINE
8
BLACK
6
CONTINUOUS
10
0.510407
20
1.12511
11
0.510304
21
1.1252
0
LINE
8
BLACK
6
CONTINUOUS
10
0.510304
20
1.1252
11
0.510149
21
1.12608
0
LINE
8
BLACK
6
CONTINUOUS
10
0.510149
20
1.12608
11
0.509919
21
1.12694
0
LINE
8
BLACK
6
CONTINUOUS
10
0.509919
20
1.12694
11
0.509976
21
1.12706
0
LINE
8
BLACK
6
CONTINUOUS
10
0.509976
20
1.12706
11
0.509953
21
1.12719
0
LINE
8
BLACK
6
CONTINUOUS
10
0.509953
20
1.12719
11
0.510397
21
1.12796
0
LINE
8
BLACK
6
CONTINUOUS
10
0.510397
20
1.12796
11
0.510773
21
1.12877
0
LINE
8
BLACK
6
CONTINUOUS
10
0.510773
20
1.12877
11
0.532777
21
1.15077
0
LINE
8
BLACK
6
CONTINUOUS
10
0.532777
20
1.15077
11
0.53428
21
1.15528
0
LINE
8
BLACK
6
CONTINUOUS
10
0.53428
20
1.15528
11
0.53428
21
1.15785
0
LINE
8
BLACK
6
CONTINUOUS
10
0.53428
20
1.15785
11
0.532931
21
1.16055
0
LINE
8
BLACK
6
CONTINUOUS
10
0.532931
20
1.16055
11
0.531734
21
1.16175
0
LINE
8
BLACK
6
CONTINUOUS
10
0.531734
20
1.16175
11
0.529037
21
1.1631
0
LINE
8
BLACK
6
CONTINUOUS
10
0.529037
20
1.1631
11
0.521057
21
1.1631
0
LINE
8
BLACK
6
CONTINUOUS
10
0.521057
20
1.1631
11
0.518359
21
1.16175
0
LINE
8
BLACK
6
CONTINUOUS
10
0.518359
20
1.16175
11
0.516824
21
1.16021
0
LINE
8
BLACK
6
CONTINUOUS
10
0.516824
20
1.16021
11
0.515984
21
1.15962
0
LINE
8
BLACK
6
CONTINUOUS
10
0.515984
20
1.15962
11
0.513971
21
1.15945
0
LINE
8
BLACK
6
CONTINUOUS
10
0.513971
20
1.15945
11
0.512317
21
1.1606
0
LINE
8
BLACK
6
CONTINUOUS
10
0.512317
20
1.1606
11
0.511794
21
1.16256
0
LINE
8
BLACK
6
CONTINUOUS
10
0.511794
20
1.16256
11
0.512648
21
1.16439
0
LINE
8
BLACK
6
CONTINUOUS
10
0.512648
20
1.16439
11
0.514522
21
1.16626
0
LINE
8
BLACK
6
CONTINUOUS
10
0.514522
20
1.16626
11
0.515246
21
1.16677
0
LINE
8
BLACK
6
CONTINUOUS
10
0.515246
20
1.16677
11
0.51529
21
1.16681
0
LINE
8
BLACK
6
CONTINUOUS
10
0.51529
20
1.16681
11
0.519039
21
1.16869
0
LINE
8
BLACK
6
CONTINUOUS
10
0.519039
20
1.16869
11
0.520022
21
1.16898
0
LINE
8
BLACK
6
CONTINUOUS
10
0.520022
20
1.16898
11
0.520194
21
1.16894
0
LINE
8
BLACK
6
CONTINUOUS
10
0.520194
20
1.16894
11
0.52036
21
1.169
0
LINE
8
BLACK
6
CONTINUOUS
10
0.52036
20
1.169
11
0.529734
21
1.169
0
LINE
8
BLACK
6
CONTINUOUS
10
0.529734
20
1.169
11
0.530744
21
1.16882
0
LINE
8
BLACK
6
CONTINUOUS
10
0.487484
20
1.16885
11
0.487548
21
1.16885
0
LINE
8
BLACK
6
CONTINUOUS
10
0.487548
20
1.16885
11
0.493172
21
1.16697
0
LINE
8
BLACK
6
CONTINUOUS
10
0.493172
20
1.16697
11
0.494074
21
1.16649
0
LINE
8
BLACK
6
CONTINUOUS
10
0.494074
20
1.16649
11
0.494166
21
1.16634
0
LINE
8
BLACK
6
CONTINUOUS
10
0.494166
20
1.16634
11
0.494326
21
1.16626
0
LINE
8
BLACK
6
CONTINUOUS
10
0.494326
20
1.16626
11
0.498076
21
1.16251
0
LINE
8
BLACK
6
CONTINUOUS
10
0.498076
20
1.16251
11
0.498582
21
1.16179
0
LINE
8
BLACK
6
CONTINUOUS
10
0.498582
20
1.16179
11
0.498629
21
1.16174
0
LINE
8
BLACK
6
CONTINUOUS
10
0.498629
20
1.16174
11
0.500504
21
1.15799
0
LINE
8
BLACK
6
CONTINUOUS
10
0.500504
20
1.15799
11
0.500649
21
1.15751
0
LINE
8
BLACK
6
CONTINUOUS
10
0.500649
20
1.15751
11
0.500727
21
1.15739
0
LINE
8
BLACK
6
CONTINUOUS
10
0.500727
20
1.15739
11
0.502602
21
1.14989
0
LINE
8
BLACK
6
CONTINUOUS
10
0.502602
20
1.14989
11
0.502644
21
1.1493
0
LINE
8
BLACK
6
CONTINUOUS
10
0.502644
20
1.1493
11
0.50269
21
1.14918
0
LINE
8
BLACK
6
CONTINUOUS
10
0.50269
20
1.14918
11
0.50269
21
1.14355
0
LINE
8
BLACK
6
CONTINUOUS
10
0.50269
20
1.14355
11
0.502588
21
1.14297
0
LINE
8
BLACK
6
CONTINUOUS
10
0.502588
20
1.14297
11
0.502602
21
1.14283
0
LINE
8
BLACK
6
CONTINUOUS
10
0.502602
20
1.14283
11
0.500727
21
1.13534
0
LINE
8
BLACK
6
CONTINUOUS
10
0.500727
20
1.13534
11
0.50052
21
1.13487
0
LINE
8
BLACK
6
CONTINUOUS
10
0.50052
20
1.13487
11
0.500504
21
1.13473
0
LINE
8
BLACK
6
CONTINUOUS
10
0.500504
20
1.13473
11
0.498629
21
1.13098
0
LINE
8
BLACK
6
CONTINUOUS
10
0.498629
20
1.13098
11
0.498103
21
1.13027
0
LINE
8
BLACK
6
CONTINUOUS
10
0.498103
20
1.13027
11
0.498076
21
1.13021
0
LINE
8
BLACK
6
CONTINUOUS
10
0.498076
20
1.13021
11
0.494326
21
1.12646
0
LINE
8
BLACK
6
CONTINUOUS
10
0.494326
20
1.12646
11
0.493486
21
1.12588
0
LINE
8
BLACK
6
CONTINUOUS
10
0.493486
20
1.12588
11
0.49331
21
1.12586
0
LINE
8
BLACK
6
CONTINUOUS
10
0.49331
20
1.12586
11
0.493172
21
1.12575
0
LINE
8
BLACK
6
CONTINUOUS
10
0.493172
20
1.12575
11
0.487548
21
1.12388
0
LINE
8
BLACK
6
CONTINUOUS
10
0.487548
20
1.12388
11
0.486675
21
1.12375
0
LINE
8
BLACK
6
CONTINUOUS
10
0.486675
20
1.12375
11
0.486614
21
1.12373
0
LINE
8
BLACK
6
CONTINUOUS
10
0.486614
20
1.12373
11
0.47724
21
1.12373
0
LINE
8
BLACK
6
CONTINUOUS
10
0.47724
20
1.12373
11
0.476857
21
1.12379
0
LINE
8
BLACK
6
CONTINUOUS
10
0.476857
20
1.12379
11
0.476728
21
1.12377
0
LINE
8
BLACK
6
CONTINUOUS
10
0.476728
20
1.12377
11
0.476614
21
1.12384
0
LINE
8
BLACK
6
CONTINUOUS
10
0.476614
20
1.12384
11
0.47623
21
1.1239
0
LINE
8
BLACK
6
CONTINUOUS
10
0.47623
20
1.1239
11
0.475643
21
1.1244
0
LINE
8
BLACK
6
CONTINUOUS
10
0.475643
20
1.1244
11
0.474978
21
1.12478
0
LINE
8
BLACK
6
CONTINUOUS
10
0.474978
20
1.12478
11
0.474887
21
1.12503
0
LINE
8
BLACK
6
CONTINUOUS
10
0.474887
20
1.12503
11
0.474683
21
1.1252
0
LINE
8
BLACK
6
CONTINUOUS
10
0.474683
20
1.1252
11
0.47455
21
1.12596
0
LINE
8
BLACK
6
CONTINUOUS
10
0.47455
20
1.12596
11
0.474288
21
1.12668
0
LINE
8
BLACK
6
CONTINUOUS
10
0.474288
20
1.12668
11
0.474288
21
1.16605
0
LINE
8
BLACK
6
CONTINUOUS
10
0.474288
20
1.16605
11
0.474355
21
1.16643
0
LINE
8
BLACK
6
CONTINUOUS
10
0.474355
20
1.16643
11
0.474332
21
1.16656
0
LINE
8
BLACK
6
CONTINUOUS
10
0.474332
20
1.16656
11
0.474398
21
1.16667
0
LINE
8
BLACK
6
CONTINUOUS
10
0.474398
20
1.16667
11
0.474466
21
1.16706
0
LINE
8
BLACK
6
CONTINUOUS
10
0.474466
20
1.16706
11
0.474959
21
1.16765
0
LINE
8
BLACK
6
CONTINUOUS
10
0.474959
20
1.16765
11
0.475342
21
1.16831
0
LINE
8
BLACK
6
CONTINUOUS
10
0.475342
20
1.16831
11
0.475593
21
1.1684
0
LINE
8
BLACK
6
CONTINUOUS
10
0.475593
20
1.1684
11
0.475764
21
1.16861
0
LINE
8
BLACK
6
CONTINUOUS
10
0.475764
20
1.16861
11
0.476519
21
1.16874
0
LINE
8
BLACK
6
CONTINUOUS
10
0.476519
20
1.16874
11
0.47724
21
1.169
0
LINE
8
BLACK
6
CONTINUOUS
10
0.47724
20
1.169
11
0.486614
21
1.169
0
LINE
8
BLACK
6
CONTINUOUS
10
0.486614
20
1.169
11
0.487484
21
1.16885
0
LINE
8
BLACK
6
CONTINUOUS
10
0.480193
20
1.1631
11
0.480193
21
1.12963
0
LINE
8
BLACK
6
CONTINUOUS
10
0.480193
20
1.12963
11
0.486135
21
1.12963
0
LINE
8
BLACK
6
CONTINUOUS
10
0.486135
20
1.12963
11
0.490643
21
1.13113
0
LINE
8
BLACK
6
CONTINUOUS
10
0.490643
20
1.13113
11
0.493561
21
1.13405
0
LINE
8
BLACK
6
CONTINUOUS
10
0.493561
20
1.13405
11
0.495077
21
1.13708
0
LINE
8
BLACK
6
CONTINUOUS
10
0.495077
20
1.13708
11
0.496785
21
1.14391
0
LINE
8
BLACK
6
CONTINUOUS
10
0.496785
20
1.14391
11
0.496785
21
1.14881
0
LINE
8
BLACK
6
CONTINUOUS
10
0.496785
20
1.14881
11
0.495077
21
1.15564
0
LINE
8
BLACK
6
CONTINUOUS
10
0.495077
20
1.15564
11
0.493561
21
1.15867
0
LINE
8
BLACK
6
CONTINUOUS
10
0.493561
20
1.15867
11
0.490643
21
1.16159
0
LINE
8
BLACK
6
CONTINUOUS
10
0.490643
20
1.16159
11
0.486135
21
1.1631
0
LINE
8
BLACK
6
CONTINUOUS
10
0.486135
20
1.1631
11
0.480193
21
1.1631
0
LINE
8
BLACK
6
CONTINUOUS
10
0.64825
20
1.31795
11
0.648941
21
1.31605
0
LINE
8
BLACK
6
CONTINUOUS
10
0.648941
20
1.31605
11
0.648941
21
1.30068
0
LINE
8
BLACK
6
CONTINUOUS
10
0.648941
20
1.30068
11
0.666397
21
1.31814
0
LINE
8
BLACK
6
CONTINUOUS
10
0.666397
20
1.31814
11
0.667237
21
1.31872
0
LINE
8
BLACK
6
CONTINUOUS
10
0.667237
20
1.31872
11
0.669249
21
1.3189
0
LINE
8
BLACK
6
CONTINUOUS
10
0.669249
20
1.3189
11
0.670904
21
1.31774
0
LINE
8
BLACK
6
CONTINUOUS
10
0.670904
20
1.31774
11
0.671427
21
1.31579
0
LINE
8
BLACK
6
CONTINUOUS
10
0.671427
20
1.31579
11
0.670573
21
1.31396
0
LINE
8
BLACK
6
CONTINUOUS
10
0.670573
20
1.31396
11
0.655511
21
1.2989
0
LINE
8
BLACK
6
CONTINUOUS
10
0.655511
20
1.2989
11
0.670847
21
1.27845
0
LINE
8
BLACK
6
CONTINUOUS
10
0.670847
20
1.27845
11
0.671311
21
1.27753
0
LINE
8
BLACK
6
CONTINUOUS
10
0.671311
20
1.27753
11
0.671201
21
1.27552
0
LINE
8
BLACK
6
CONTINUOUS
10
0.671201
20
1.27552
11
0.66982
21
1.27404
0
LINE
8
BLACK
6
CONTINUOUS
10
0.66982
20
1.27404
11
0.667814
21
1.2738
0
LINE
8
BLACK
6
CONTINUOUS
10
0.667814
20
1.2738
11
0.666123
21
1.27491
0
LINE
8
BLACK
6
CONTINUOUS
10
0.666123
20
1.27491
11
0.651293
21
1.29468
0
LINE
8
BLACK
6
CONTINUOUS
10
0.651293
20
1.29468
11
0.648941
21
1.29233
0
LINE
8
BLACK
6
CONTINUOUS
10
0.648941
20
1.29233
11
0.648941
21
1.27668
0
LINE
8
BLACK
6
CONTINUOUS
10
0.648941
20
1.27668
11
0.648763
21
1.27567
0
LINE
8
BLACK
6
CONTINUOUS
10
0.648763
20
1.27567
11
0.647464
21
1.27412
0
LINE
8
BLACK
6
CONTINUOUS
10
0.647464
20
1.27412
11
0.645475
21
1.27377
0
LINE
8
BLACK
6
CONTINUOUS
10
0.645475
20
1.27377
11
0.643726
21
1.27478
0
LINE
8
BLACK
6
CONTINUOUS
10
0.643726
20
1.27478
11
0.643035
21
1.27668
0
LINE
8
BLACK
6
CONTINUOUS
10
0.643035
20
1.27668
11
0.643035
21
1.31605
0
LINE
8
BLACK
6
CONTINUOUS
10
0.643035
20
1.31605
11
0.643213
21
1.31706
0
LINE
8
BLACK
6
CONTINUOUS
10
0.643213
20
1.31706
11
0.644512
21
1.31861
0
LINE
8
BLACK
6
CONTINUOUS
10
0.644512
20
1.31861
11
0.646501
21
1.31896
0
LINE
8
BLACK
6
CONTINUOUS
10
0.646501
20
1.31896
11
0.64825
21
1.31795
0
LINE
8
BLACK
6
CONTINUOUS
10
0.53326
20
1.37734
11
0.533836
21
1.37595
0
LINE
8
BLACK
6
CONTINUOUS
10
0.533836
20
1.37595
11
0.533836
21
1.34642
0
LINE
8
BLACK
6
CONTINUOUS
10
0.533836
20
1.34642
11
0.567368
21
1.34642
0
LINE
8
BLACK
6
CONTINUOUS
10
0.567368
20
1.34642
11
0.56876
21
1.34584
0
LINE
8
BLACK
6
CONTINUOUS
10
0.56876
20
1.34584
11
0.569336
21
1.34445
0
LINE
8
BLACK
6
CONTINUOUS
10
0.569336
20
1.34445
11
0.56876
21
1.34306
0
LINE
8
BLACK
6
CONTINUOUS
10
0.56876
20
1.34306
11
0.567368
21
1.34248
0
LINE
8
BLACK
6
CONTINUOUS
10
0.567368
20
1.34248
11
0.533836
21
1.34248
0
LINE
8
BLACK
6
CONTINUOUS
10
0.533836
20
1.34248
11
0.533836
21
1.31295
0
LINE
8
BLACK
6
CONTINUOUS
10
0.533836
20
1.31295
11
0.53326
21
1.31156
0
LINE
8
BLACK
6
CONTINUOUS
10
0.53326
20
1.31156
11
0.531868
21
1.31098
0
LINE
8
BLACK
6
CONTINUOUS
10
0.531868
20
1.31098
11
0.530476
21
1.31156
0
LINE
8
BLACK
6
CONTINUOUS
10
0.530476
20
1.31156
11
0.529899
21
1.31295
0
LINE
8
BLACK
6
CONTINUOUS
10
0.529899
20
1.31295
11
0.529899
21
1.34082
0
LINE
8
BLACK
6
CONTINUOUS
10
0.529899
20
1.34082
11
0.487642
21
1.3133
0
LINE
8
BLACK
6
CONTINUOUS
10
0.487642
20
1.3133
11
0.487088
21
1.3132
0
LINE
8
BLACK
6
CONTINUOUS
10
0.487088
20
1.3132
11
0.486568
21
1.31298
0
LINE
8
BLACK
6
CONTINUOUS
10
0.486568
20
1.31298
11
0.486371
21
1.31306
0
LINE
8
BLACK
6
CONTINUOUS
10
0.486371
20
1.31306
11
0.486161
21
1.31302
0
LINE
8
BLACK
6
CONTINUOUS
10
0.486161
20
1.31302
11
0.485696
21
1.31334
0
LINE
8
BLACK
6
CONTINUOUS
10
0.485696
20
1.31334
11
0.485176
21
1.31356
0
LINE
8
BLACK
6
CONTINUOUS
10
0.485176
20
1.31356
11
0.485094
21
1.31375
0
LINE
8
BLACK
6
CONTINUOUS
10
0.485094
20
1.31375
11
0.484918
21
1.31387
0
LINE
8
BLACK
6
CONTINUOUS
10
0.484918
20
1.31387
11
0.484815
21
1.31443
0
LINE
8
BLACK
6
CONTINUOUS
10
0.484815
20
1.31443
11
0.484599
21
1.31495
0
LINE
8
BLACK
6
CONTINUOUS
10
0.484599
20
1.31495
11
0.484599
21
1.34248
0
LINE
8
BLACK
6
CONTINUOUS
10
0.484599
20
1.34248
11
0.447268
21
1.34248
0
LINE
8
BLACK
6
CONTINUOUS
10
0.447268
20
1.34248
11
0.445876
21
1.34306
0
LINE
8
BLACK
6
CONTINUOUS
10
0.445876
20
1.34306
11
0.445299
21
1.34445
0
LINE
8
BLACK
6
CONTINUOUS
10
0.445299
20
1.34445
11
0.445876
21
1.34584
0
LINE
8
BLACK
6
CONTINUOUS
10
0.445876
20
1.34584
11
0.447268
21
1.34642
0
LINE
8
BLACK
6
CONTINUOUS
10
0.447268
20
1.34642
11
0.484599
21
1.34642
0
LINE
8
BLACK
6
CONTINUOUS
10
0.484599
20
1.34642
11
0.484599
21
1.37595
0
LINE
8
BLACK
6
CONTINUOUS
10
0.484599
20
1.37595
11
0.484825
21
1.37649
0
LINE
8
BLACK
6
CONTINUOUS
10
0.484825
20
1.37649
11
0.484952
21
1.37707
0
LINE
8
BLACK
6
CONTINUOUS
10
0.484952
20
1.37707
11
0.485106
21
1.37717
0
LINE
8
BLACK
6
CONTINUOUS
10
0.485106
20
1.37717
11
0.485176
21
1.37734
0
LINE
8
BLACK
6
CONTINUOUS
10
0.485176
20
1.37734
11
0.485722
21
1.37757
0
LINE
8
BLACK
6
CONTINUOUS
10
0.485722
20
1.37757
11
0.48622
21
1.37789
0
LINE
8
BLACK
6
CONTINUOUS
10
0.48622
20
1.37789
11
0.486398
21
1.37785
0
LINE
8
BLACK
6
CONTINUOUS
10
0.486398
20
1.37785
11
0.486568
21
1.37792
0
LINE
8
BLACK
6
CONTINUOUS
10
0.486568
20
1.37792
11
0.487114
21
1.37769
0
LINE
8
BLACK
6
CONTINUOUS
10
0.487114
20
1.37769
11
0.487692
21
1.37756
0
LINE
8
BLACK
6
CONTINUOUS
10
0.487692
20
1.37756
11
0.529899
21
1.34821
0
LINE
8
BLACK
6
CONTINUOUS
10
0.529899
20
1.34821
11
0.529899
21
1.37595
0
LINE
8
BLACK
6
CONTINUOUS
10
0.529899
20
1.37595
11
0.530476
21
1.37734
0
LINE
8
BLACK
6
CONTINUOUS
10
0.530476
20
1.37734
11
0.531868
21
1.37792
0
LINE
8
BLACK
6
CONTINUOUS
10
0.531868
20
1.37792
11
0.53326
21
1.37734
0
LINE
8
BLACK
6
CONTINUOUS
10
0.488536
20
1.31858
11
0.528343
21
1.3445
0
LINE
8
BLACK
6
CONTINUOUS
10
0.528343
20
1.3445
11
0.488536
21
1.37218
0
LINE
8
BLACK
6
CONTINUOUS
10
0.488536
20
1.37218
11
0.488536
21
1.31858
0
LINE
8
BLACK
6
CONTINUOUS
10
3.19235
20
1.6032
11
3.19248
21
1.60322
0
LINE
8
BLACK
6
CONTINUOUS
10
3.19248
20
1.60322
11
3.19259
21
1.60316
0
LINE
8
BLACK
6
CONTINUOUS
10
3.19259
20
1.60316
11
3.19298
21
1.60309
0
LINE
8
BLACK
6
CONTINUOUS
10
3.19298
20
1.60309
11
3.19357
21
1.6026
0
LINE
8
BLACK
6
CONTINUOUS
10
3.19357
20
1.6026
11
3.19423
21
1.60221
0
LINE
8
BLACK
6
CONTINUOUS
10
3.19423
20
1.60221
11
3.19432
21
1.60196
0
LINE
8
BLACK
6
CONTINUOUS
10
3.19432
20
1.60196
11
3.19453
21
1.60179
0
LINE
8
BLACK
6
CONTINUOUS
10
3.19453
20
1.60179
11
3.19466
21
1.60104
0
LINE
8
BLACK
6
CONTINUOUS
10
3.19466
20
1.60104
11
3.19492
21
1.60031
0
LINE
8
BLACK
6
CONTINUOUS
10
3.19492
20
1.60031
11
3.19492
21
0.399528
0
LINE
8
BLACK
6
CONTINUOUS
10
3.19492
20
0.399528
11
3.19485
21
0.399144
0
LINE
8
BLACK
6
CONTINUOUS
10
3.19485
20
0.399144
11
3.19488
21
0.399015
0
LINE
8
BLACK
6
CONTINUOUS
10
3.19488
20
0.399015
11
3.19481
21
0.398901
0
LINE
8
BLACK
6
CONTINUOUS
10
3.19481
20
0.398901
11
3.19474
21
0.398518
0
LINE
8
BLACK
6
CONTINUOUS
10
3.19474
20
0.398518
11
3.19425
21
0.39793
0
LINE
8
BLACK
6
CONTINUOUS
10
3.19425
20
0.39793
11
3.19387
21
0.397266
0
LINE
8
BLACK
6
CONTINUOUS
10
3.19387
20
0.397266
11
3.19362
21
0.397175
0
LINE
8
BLACK
6
CONTINUOUS
10
3.19362
20
0.397175
11
3.19344
21
0.39697
0
LINE
8
BLACK
6
CONTINUOUS
10
3.19344
20
0.39697
11
3.19269
21
0.396837
0
LINE
8
BLACK
6
CONTINUOUS
10
3.19269
20
0.396837
11
3.19197
21
0.396575
0
LINE
8
BLACK
6
CONTINUOUS
10
3.19197
20
0.396575
11
1.45969
21
0.396575
0
LINE
8
BLACK
6
CONTINUOUS
10
1.45969
20
0.396575
11
1.4593
21
0.396642
0
LINE
8
BLACK
6
CONTINUOUS
10
1.4593
20
0.396642
11
1.45917
21
0.39662
0
LINE
8
BLACK
6
CONTINUOUS
10
1.45917
20
0.39662
11
1.45906
21
0.396685
0
LINE
8
BLACK
6
CONTINUOUS
10
1.45906
20
0.396685
11
1.45868
21
0.396753
0
LINE
8
BLACK
6
CONTINUOUS
10
1.45868
20
0.396753
11
1.45809
21
0.397246
0
LINE
8
BLACK
6
CONTINUOUS
10
1.45809
20
0.397246
11
1.45742
21
0.39763
0
LINE
8
BLACK
6
CONTINUOUS
10
1.45742
20
0.39763
11
1.45733
21
0.39788
0
LINE
8
BLACK
6
CONTINUOUS
10
1.45733
20
0.39788
11
1.45713
21
0.398051
0
LINE
8
BLACK
6
CONTINUOUS
10
1.45713
20
0.398051
11
1.45699
21
0.398807
0
LINE
8
BLACK
6
CONTINUOUS
10
1.45699
20
0.398807
11
1.45673
21
0.399528
0
LINE
8
BLACK
6
CONTINUOUS
10
1.45673
20
0.399528
11
1.45673
21
1.60031
0
LINE
8
BLACK
6
CONTINUOUS
10
1.45673
20
1.60031
11
1.4568
21
1.6007
0
LINE
8
BLACK
6
CONTINUOUS
10
1.4568
20
1.6007
11
1.45678
21
1.60083
0
LINE
8
BLACK
6
CONTINUOUS
10
1.45678
20
1.60083
11
1.45684
21
1.60094
0
LINE
8
BLACK
6
CONTINUOUS
10
1.45684
20
1.60094
11
1.45691
21
1.60132
0
LINE
8
BLACK
6
CONTINUOUS
10
1.45691
20
1.60132
11
1.4574
21
1.60191
0
LINE
8
BLACK
6
CONTINUOUS
10
1.4574
20
1.60191
11
1.45779
21
1.60258
0
LINE
8
BLACK
6
CONTINUOUS
10
1.45779
20
1.60258
11
1.45804
21
1.60267
0
LINE
8
BLACK
6
CONTINUOUS
10
1.45804
20
1.60267
11
1.45821
21
1.60287
0
LINE
8
BLACK
6
CONTINUOUS
10
1.45821
20
1.60287
11
1.45896
21
1.60301
0
LINE
8
BLACK
6
CONTINUOUS
10
1.45896
20
1.60301
11
1.45969
21
1.60327
0
LINE
8
BLACK
6
CONTINUOUS
10
1.45969
20
1.60327
11
3.19197
21
1.60327
0
LINE
8
BLACK
6
CONTINUOUS
10
3.19197
20
1.60327
11
3.19235
21
1.6032
0
LINE
8
BLACK
6
CONTINUOUS
10
1.46264
20
1.59736
11
1.46264
21
0.40248
0
LINE
8
BLACK
6
CONTINUOUS
10
1.46264
20
0.40248
11
3.18902
21
0.40248
0
LINE
8
BLACK
6
CONTINUOUS
10
3.18902
20
0.40248
11
3.18902
21
1.59736
0
LINE
8
BLACK
6
CONTINUOUS
10
3.18902
20
1.59736
11
1.46264
21
1.59736
0
LINE
8
BLACK
6
CONTINUOUS
10
2.16729
20
1.23256
11
2.16741
21
1.23258
0
LINE
8
BLACK
6
CONTINUOUS
10
2.16741
20
1.23258
11
2.16753
21
1.23251
0
LINE
8
BLACK
6
CONTINUOUS
10
2.16753
20
1.23251
11
2.168
21
1.23243
0
LINE
8
BLACK
6
CONTINUOUS
10
2.168
20
1.23243
11
2.16855
21
1.23197
0
LINE
8
BLACK
6
CONTINUOUS
10
2.16855
20
1.23197
11
2.16919
21
1.23163
0
LINE
8
BLACK
6
CONTINUOUS
10
2.16919
20
1.23163
11
2.16931
21
1.23134
0
LINE
8
BLACK
6
CONTINUOUS
10
2.16931
20
1.23134
11
2.16955
21
1.23113
0
LINE
8
BLACK
6
CONTINUOUS
10
2.16955
20
1.23113
11
2.16967
21
1.23042
0
LINE
8
BLACK
6
CONTINUOUS
10
2.16967
20
1.23042
11
2.16994
21
1.22975
0
LINE
8
BLACK
6
CONTINUOUS
10
2.16994
20
1.22975
11
2.16984
21
1.22945
0
LINE
8
BLACK
6
CONTINUOUS
10
2.16984
20
1.22945
11
2.1699
21
1.22914
0
LINE
8
BLACK
6
CONTINUOUS
10
2.1699
20
1.22914
11
2.16954
21
1.22852
0
LINE
8
BLACK
6
CONTINUOUS
10
2.16954
20
1.22852
11
2.16931
21
1.22783
0
LINE
8
BLACK
6
CONTINUOUS
10
2.16931
20
1.22783
11
2.15244
21
1.20636
0
LINE
8
BLACK
6
CONTINUOUS
10
2.15244
20
1.20636
11
2.16699
21
1.20636
0
LINE
8
BLACK
6
CONTINUOUS
10
2.16699
20
1.20636
11
2.168
21
1.20618
0
LINE
8
BLACK
6
CONTINUOUS
10
2.168
20
1.20618
11
2.16955
21
1.20489
0
LINE
8
BLACK
6
CONTINUOUS
10
2.16955
20
1.20489
11
2.1699
21
1.2029
0
LINE
8
BLACK
6
CONTINUOUS
10
2.1699
20
1.2029
11
2.16889
21
1.20115
0
LINE
8
BLACK
6
CONTINUOUS
10
2.16889
20
1.20115
11
2.16699
21
1.20046
0
LINE
8
BLACK
6
CONTINUOUS
10
2.16699
20
1.20046
11
2.14637
21
1.20046
0
LINE
8
BLACK
6
CONTINUOUS
10
2.14637
20
1.20046
11
2.14606
21
1.20051
0
LINE
8
BLACK
6
CONTINUOUS
10
2.14606
20
1.20051
11
2.14595
21
1.20049
0
LINE
8
BLACK
6
CONTINUOUS
10
2.14595
20
1.20049
11
2.14583
21
1.20055
0
LINE
8
BLACK
6
CONTINUOUS
10
2.14583
20
1.20055
11
2.14536
21
1.20064
0
LINE
8
BLACK
6
CONTINUOUS
10
2.14536
20
1.20064
11
2.1448
21
1.2011
0
LINE
8
BLACK
6
CONTINUOUS
10
2.1448
20
1.2011
11
2.14417
21
1.20144
0
LINE
8
BLACK
6
CONTINUOUS
10
2.14417
20
1.20144
11
2.14405
21
1.20173
0
LINE
8
BLACK
6
CONTINUOUS
10
2.14405
20
1.20173
11
2.14381
21
1.20193
0
LINE
8
BLACK
6
CONTINUOUS
10
2.14381
20
1.20193
11
2.14368
21
1.20264
0
LINE
8
BLACK
6
CONTINUOUS
10
2.14368
20
1.20264
11
2.14342
21
1.20332
0
LINE
8
BLACK
6
CONTINUOUS
10
2.14342
20
1.20332
11
2.14351
21
1.20361
0
LINE
8
BLACK
6
CONTINUOUS
10
2.14351
20
1.20361
11
2.14346
21
1.20392
0
LINE
8
BLACK
6
CONTINUOUS
10
2.14346
20
1.20392
11
2.14382
21
1.20455
0
LINE
8
BLACK
6
CONTINUOUS
10
2.14382
20
1.20455
11
2.14404
21
1.20523
0
LINE
8
BLACK
6
CONTINUOUS
10
2.14404
20
1.20523
11
2.16091
21
1.2267
0
LINE
8
BLACK
6
CONTINUOUS
10
2.16091
20
1.2267
11
2.14637
21
1.2267
0
LINE
8
BLACK
6
CONTINUOUS
10
2.14637
20
1.2267
11
2.14536
21
1.22688
0
LINE
8
BLACK
6
CONTINUOUS
10
2.14536
20
1.22688
11
2.14381
21
1.22818
0
LINE
8
BLACK
6
CONTINUOUS
10
2.14381
20
1.22818
11
2.14346
21
1.23017
0
LINE
8
BLACK
6
CONTINUOUS
10
2.14346
20
1.23017
11
2.14447
21
1.23192
0
LINE
8
BLACK
6
CONTINUOUS
10
2.14447
20
1.23192
11
2.14637
21
1.23261
0
LINE
8
BLACK
6
CONTINUOUS
10
2.14637
20
1.23261
11
2.16699
21
1.23261
0
LINE
8
BLACK
6
CONTINUOUS
10
2.16699
20
1.23261
11
2.16729
21
1.23256
0
LINE
8
BLACK
6
CONTINUOUS
10
1.99861
20
1.24566
11
1.99877
21
1.24569
0
LINE
8
BLACK
6
CONTINUOUS
10
1.99877
20
1.24569
11
1.99951
21
1.24526
0
LINE
8
BLACK
6
CONTINUOUS
10
1.99951
20
1.24526
11
2.0003
21
1.24492
0
LINE
8
BLACK
6
CONTINUOUS
10
2.0003
20
1.24492
11
2.00038
21
1.24476
0
LINE
8
BLACK
6
CONTINUOUS
10
2.00038
20
1.24476
11
2.00052
21
1.24468
0
LINE
8
BLACK
6
CONTINUOUS
10
2.00052
20
1.24468
11
2.00082
21
1.24387
0
LINE
8
BLACK
6
CONTINUOUS
10
2.00082
20
1.24387
11
2.0012
21
1.2431
0
LINE
8
BLACK
6
CONTINUOUS
10
2.0012
20
1.2431
11
2.00115
21
1.24294
0
LINE
8
BLACK
6
CONTINUOUS
10
2.00115
20
1.24294
11
2.00121
21
1.24278
0
LINE
8
BLACK
6
CONTINUOUS
10
2.00121
20
1.24278
11
2.00121
21
1.20636
0
LINE
8
BLACK
6
CONTINUOUS
10
2.00121
20
1.20636
11
2.00951
21
1.20636
0
LINE
8
BLACK
6
CONTINUOUS
10
2.00951
20
1.20636
11
2.01052
21
1.20618
0
LINE
8
BLACK
6
CONTINUOUS
10
2.01052
20
1.20618
11
2.01207
21
1.20489
0
LINE
8
BLACK
6
CONTINUOUS
10
2.01207
20
1.20489
11
2.01242
21
1.2029
0
LINE
8
BLACK
6
CONTINUOUS
10
2.01242
20
1.2029
11
2.01141
21
1.20115
0
LINE
8
BLACK
6
CONTINUOUS
10
2.01141
20
1.20115
11
2.00951
21
1.20046
0
LINE
8
BLACK
6
CONTINUOUS
10
2.00951
20
1.20046
11
1.98701
21
1.20046
0
LINE
8
BLACK
6
CONTINUOUS
10
1.98701
20
1.20046
11
1.986
21
1.20064
0
LINE
8
BLACK
6
CONTINUOUS
10
1.986
20
1.20064
11
1.98445
21
1.20193
0
LINE
8
BLACK
6
CONTINUOUS
10
1.98445
20
1.20193
11
1.9841
21
1.20392
0
LINE
8
BLACK
6
CONTINUOUS
10
1.9841
20
1.20392
11
1.98511
21
1.20567
0
LINE
8
BLACK
6
CONTINUOUS
10
1.98511
20
1.20567
11
1.98701
21
1.20636
0
LINE
8
BLACK
6
CONTINUOUS
10
1.98701
20
1.20636
11
1.99531
21
1.20636
0
LINE
8
BLACK
6
CONTINUOUS
10
1.99531
20
1.20636
11
1.99531
21
1.23378
0
LINE
8
BLACK
6
CONTINUOUS
10
1.99531
20
1.23378
11
1.99285
21
1.23132
0
LINE
8
BLACK
6
CONTINUOUS
10
1.99285
20
1.23132
11
1.99213
21
1.23081
0
LINE
8
BLACK
6
CONTINUOUS
10
1.99213
20
1.23081
11
1.99208
21
1.23077
0
LINE
8
BLACK
6
CONTINUOUS
10
1.99208
20
1.23077
11
1.98833
21
1.22889
0
LINE
8
BLACK
6
CONTINUOUS
10
1.98833
20
1.22889
11
1.98735
21
1.2286
0
LINE
8
BLACK
6
CONTINUOUS
10
1.98735
20
1.2286
11
1.98538
21
1.22907
0
LINE
8
BLACK
6
CONTINUOUS
10
1.98538
20
1.22907
11
1.98418
21
1.23069
0
LINE
8
BLACK
6
CONTINUOUS
10
1.98418
20
1.23069
11
1.9843
21
1.23271
0
LINE
8
BLACK
6
CONTINUOUS
10
1.9843
20
1.23271
11
1.98569
21
1.23417
0
LINE
8
BLACK
6
CONTINUOUS
10
1.98569
20
1.23417
11
1.98901
21
1.23583
0
LINE
8
BLACK
6
CONTINUOUS
10
1.98901
20
1.23583
11
1.99222
21
1.23904
0
LINE
8
BLACK
6
CONTINUOUS
10
1.99222
20
1.23904
11
1.9958
21
1.24442
0
LINE
8
BLACK
6
CONTINUOUS
10
1.9958
20
1.24442
11
1.99651
21
1.24516
0
LINE
8
BLACK
6
CONTINUOUS
10
1.99651
20
1.24516
11
1.99667
21
1.24521
0
LINE
8
BLACK
6
CONTINUOUS
10
1.99667
20
1.24521
11
1.99678
21
1.24534
0
LINE
8
BLACK
6
CONTINUOUS
10
1.99678
20
1.24534
11
1.99763
21
1.24549
0
LINE
8
BLACK
6
CONTINUOUS
10
1.99763
20
1.24549
11
1.99845
21
1.24573
0
LINE
8
BLACK
6
CONTINUOUS
10
1.99845
20
1.24573
11
1.99861
21
1.24566
0
LINE
8
BLACK
6
CONTINUOUS
10
2.04426
20
1.24555
11
2.04581
21
1.24426
0
LINE
8
BLACK
6
CONTINUOUS
10
2.04581
20
1.24426
11
2.04616
21
1.24227
0
LINE
8
BLACK
6
CONTINUOUS
10
2.04616
20
1.24227
11
2.04515
21
1.24052
0
LINE
8
BLACK
6
CONTINUOUS
10
2.04515
20
1.24052
11
2.04325
21
1.23983
0
LINE
8
BLACK
6
CONTINUOUS
10
2.04325
20
1.23983
11
2.03645
21
1.23983
0
LINE
8
BLACK
6
CONTINUOUS
10
2.03645
20
1.23983
11
2.03376
21
1.23848
0
LINE
8
BLACK
6
CONTINUOUS
10
2.03376
20
1.23848
11
2.03243
21
1.23715
0
LINE
8
BLACK
6
CONTINUOUS
10
2.03243
20
1.23715
11
2.02912
21
1.23219
0
LINE
8
BLACK
6
CONTINUOUS
10
2.02912
20
1.23219
11
2.02839
21
1.22928
0
LINE
8
BLACK
6
CONTINUOUS
10
2.02839
20
1.22928
11
2.03069
21
1.23042
0
LINE
8
BLACK
6
CONTINUOUS
10
2.03069
20
1.23042
11
2.03167
21
1.23072
0
LINE
8
BLACK
6
CONTINUOUS
10
2.03167
20
1.23072
11
2.03184
21
1.23067
0
LINE
8
BLACK
6
CONTINUOUS
10
2.03184
20
1.23067
11
2.03201
21
1.23073
0
LINE
8
BLACK
6
CONTINUOUS
10
2.03201
20
1.23073
11
2.03951
21
1.23073
0
LINE
8
BLACK
6
CONTINUOUS
10
2.03951
20
1.23073
11
2.04051
21
1.23056
0
LINE
8
BLACK
6
CONTINUOUS
10
2.04051
20
1.23056
11
2.04065
21
1.23044
0
LINE
8
BLACK
6
CONTINUOUS
10
2.04065
20
1.23044
11
2.04083
21
1.23042
0
LINE
8
BLACK
6
CONTINUOUS
10
2.04083
20
1.23042
11
2.04458
21
1.22855
0
LINE
8
BLACK
6
CONTINUOUS
10
2.04458
20
1.22855
11
2.04528
21
1.22802
0
LINE
8
BLACK
6
CONTINUOUS
10
2.04528
20
1.22802
11
2.04534
21
1.228
0
LINE
8
BLACK
6
CONTINUOUS
10
2.04534
20
1.228
11
2.04722
21
1.22612
0
LINE
8
BLACK
6
CONTINUOUS
10
2.04722
20
1.22612
11
2.04772
21
1.2254
0
LINE
8
BLACK
6
CONTINUOUS
10
2.04772
20
1.2254
11
2.04777
21
1.22535
0
LINE
8
BLACK
6
CONTINUOUS
10
2.04777
20
1.22535
11
2.04965
21
1.2216
0
LINE
8
BLACK
6
CONTINUOUS
10
2.04965
20
1.2216
11
2.04994
21
1.22062
0
LINE
8
BLACK
6
CONTINUOUS
10
2.04994
20
1.22062
11
2.0499
21
1.22045
0
LINE
8
BLACK
6
CONTINUOUS
10
2.0499
20
1.22045
11
2.04996
21
1.22028
0
LINE
8
BLACK
6
CONTINUOUS
10
2.04996
20
1.22028
11
2.04996
21
1.21091
0
LINE
8
BLACK
6
CONTINUOUS
10
2.04996
20
1.21091
11
2.04978
21
1.2099
0
LINE
8
BLACK
6
CONTINUOUS
10
2.04978
20
1.2099
11
2.04967
21
1.20976
0
LINE
8
BLACK
6
CONTINUOUS
10
2.04967
20
1.20976
11
2.04965
21
1.20959
0
LINE
8
BLACK
6
CONTINUOUS
10
2.04965
20
1.20959
11
2.04777
21
1.20584
0
LINE
8
BLACK
6
CONTINUOUS
10
2.04777
20
1.20584
11
2.04724
21
1.20513
0
LINE
8
BLACK
6
CONTINUOUS
10
2.04724
20
1.20513
11
2.04722
21
1.20507
0
LINE
8
BLACK
6
CONTINUOUS
10
2.04722
20
1.20507
11
2.04534
21
1.2032
0
LINE
8
BLACK
6
CONTINUOUS
10
2.04534
20
1.2032
11
2.04462
21
1.20269
0
LINE
8
BLACK
6
CONTINUOUS
10
2.04462
20
1.20269
11
2.04458
21
1.20264
0
LINE
8
BLACK
6
CONTINUOUS
10
2.04458
20
1.20264
11
2.04083
21
1.20077
0
LINE
8
BLACK
6
CONTINUOUS
10
2.04083
20
1.20077
11
2.03984
21
1.20048
0
LINE
8
BLACK
6
CONTINUOUS
10
2.03984
20
1.20048
11
2.03967
21
1.20052
0
LINE
8
BLACK
6
CONTINUOUS
10
2.03967
20
1.20052
11
2.03951
21
1.20046
0
LINE
8
BLACK
6
CONTINUOUS
10
2.03951
20
1.20046
11
2.03201
21
1.20046
0
LINE
8
BLACK
6
CONTINUOUS
10
2.03201
20
1.20046
11
2.031
21
1.20064
0
LINE
8
BLACK
6
CONTINUOUS
10
2.031
20
1.20064
11
2.03086
21
1.20075
0
LINE
8
BLACK
6
CONTINUOUS
10
2.03086
20
1.20075
11
2.03069
21
1.20077
0
LINE
8
BLACK
6
CONTINUOUS
10
2.03069
20
1.20077
11
2.02694
21
1.20264
0
LINE
8
BLACK
6
CONTINUOUS
10
2.02694
20
1.20264
11
2.02623
21
1.20317
0
LINE
8
BLACK
6
CONTINUOUS
10
2.02623
20
1.20317
11
2.02617
21
1.2032
0
LINE
8
BLACK
6
CONTINUOUS
10
2.02617
20
1.2032
11
2.02429
21
1.20507
0
LINE
8
BLACK
6
CONTINUOUS
10
2.02429
20
1.20507
11
2.02379
21
1.20579
0
LINE
8
BLACK
6
CONTINUOUS
10
2.02379
20
1.20579
11
2.02374
21
1.20584
0
LINE
8
BLACK
6
CONTINUOUS
10
2.02374
20
1.20584
11
2.02187
21
1.20959
0
LINE
8
BLACK
6
CONTINUOUS
10
2.02187
20
1.20959
11
2.02157
21
1.21057
0
LINE
8
BLACK
6
CONTINUOUS
10
2.02157
20
1.21057
11
2.02161
21
1.21074
0
LINE
8
BLACK
6
CONTINUOUS
10
2.02161
20
1.21074
11
2.02155
21
1.21091
0
LINE
8
BLACK
6
CONTINUOUS
10
2.02155
20
1.21091
11
2.02155
21
1.22591
0
LINE
8
BLACK
6
CONTINUOUS
10
2.02155
20
1.22591
11
2.02166
21
1.22649
0
LINE
8
BLACK
6
CONTINUOUS
10
2.02166
20
1.22649
11
2.02164
21
1.22662
0
LINE
8
BLACK
6
CONTINUOUS
10
2.02164
20
1.22662
11
2.02352
21
1.23412
0
LINE
8
BLACK
6
CONTINUOUS
10
2.02352
20
1.23412
11
2.02392
21
1.23503
0
LINE
8
BLACK
6
CONTINUOUS
10
2.02392
20
1.23503
11
2.02392
21
1.23504
0
LINE
8
BLACK
6
CONTINUOUS
10
2.02392
20
1.23504
11
2.02767
21
1.24067
0
LINE
8
BLACK
6
CONTINUOUS
10
2.02767
20
1.24067
11
2.02799
21
1.24099
0
LINE
8
BLACK
6
CONTINUOUS
10
2.02799
20
1.24099
11
2.02804
21
1.24112
0
LINE
8
BLACK
6
CONTINUOUS
10
2.02804
20
1.24112
11
2.02992
21
1.24299
0
LINE
8
BLACK
6
CONTINUOUS
10
2.02992
20
1.24299
11
2.03064
21
1.2435
0
LINE
8
BLACK
6
CONTINUOUS
10
2.03064
20
1.2435
11
2.03069
21
1.24355
0
LINE
8
BLACK
6
CONTINUOUS
10
2.03069
20
1.24355
11
2.03443
21
1.24542
0
LINE
8
BLACK
6
CONTINUOUS
10
2.03443
20
1.24542
11
2.03542
21
1.24571
0
LINE
8
BLACK
6
CONTINUOUS
10
2.03542
20
1.24571
11
2.03559
21
1.24567
0
LINE
8
BLACK
6
CONTINUOUS
10
2.03559
20
1.24567
11
2.03576
21
1.24573
0
LINE
8
BLACK
6
CONTINUOUS
10
2.03576
20
1.24573
11
2.04325
21
1.24573
0
LINE
8
BLACK
6
CONTINUOUS
10
2.04325
20
1.24573
11
2.04426
21
1.24555
0
LINE
8
BLACK
6
CONTINUOUS
10
2.0327
20
1.22483
11
2.03001
21
1.22348
0
LINE
8
BLACK
6
CONTINUOUS
10
2.03001
20
1.22348
11
2.02881
21
1.22228
0
LINE
8
BLACK
6
CONTINUOUS
10
2.02881
20
1.22228
11
2.02746
21
1.21959
0
LINE
8
BLACK
6
CONTINUOUS
10
2.02746
20
1.21959
11
2.02746
21
1.21161
0
LINE
8
BLACK
6
CONTINUOUS
10
2.02746
20
1.21161
11
2.02881
21
1.20891
0
LINE
8
BLACK
6
CONTINUOUS
10
2.02881
20
1.20891
11
2.03001
21
1.20771
0
LINE
8
BLACK
6
CONTINUOUS
10
2.03001
20
1.20771
11
2.0327
21
1.20636
0
LINE
8
BLACK
6
CONTINUOUS
10
2.0327
20
1.20636
11
2.03881
21
1.20636
0
LINE
8
BLACK
6
CONTINUOUS
10
2.03881
20
1.20636
11
2.04151
21
1.20771
0
LINE
8
BLACK
6
CONTINUOUS
10
2.04151
20
1.20771
11
2.0427
21
1.20891
0
LINE
8
BLACK
6
CONTINUOUS
10
2.0427
20
1.20891
11
2.04405
21
1.21161
0
LINE
8
BLACK
6
CONTINUOUS
10
2.04405
20
1.21161
11
2.04405
21
1.21959
0
LINE
8
BLACK
6
CONTINUOUS
10
2.04405
20
1.21959
11
2.0427
21
1.22228
0
LINE
8
BLACK
6
CONTINUOUS
10
2.0427
20
1.22228
11
2.04151
21
1.22348
0
LINE
8
BLACK
6
CONTINUOUS
10
2.04151
20
1.22348
11
2.03881
21
1.22483
0
LINE
8
BLACK
6
CONTINUOUS
10
2.03881
20
1.22483
11
2.0327
21
1.22483
0
LINE
8
BLACK
6
CONTINUOUS
10
2.13363
20
1.24468
11
2.13432
21
1.24278
0
LINE
8
BLACK
6
CONTINUOUS
10
2.13432
20
1.24278
11
2.13432
21
1.20341
0
LINE
8
BLACK
6
CONTINUOUS
10
2.13432
20
1.20341
11
2.13414
21
1.2024
0
LINE
8
BLACK
6
CONTINUOUS
10
2.13414
20
1.2024
11
2.13284
21
1.20085
0
LINE
8
BLACK
6
CONTINUOUS
10
2.13284
20
1.20085
11
2.13086
21
1.2005
0
LINE
8
BLACK
6
CONTINUOUS
10
2.13086
20
1.2005
11
2.12911
21
1.20151
0
LINE
8
BLACK
6
CONTINUOUS
10
2.12911
20
1.20151
11
2.12842
21
1.20341
0
LINE
8
BLACK
6
CONTINUOUS
10
2.12842
20
1.20341
11
2.12842
21
1.22108
0
LINE
8
BLACK
6
CONTINUOUS
10
2.12842
20
1.22108
11
2.11182
21
1.22108
0
LINE
8
BLACK
6
CONTINUOUS
10
2.11182
20
1.22108
11
2.11182
21
1.20341
0
LINE
8
BLACK
6
CONTINUOUS
10
2.11182
20
1.20341
11
2.11165
21
1.2024
0
LINE
8
BLACK
6
CONTINUOUS
10
2.11165
20
1.2024
11
2.11035
21
1.20085
0
LINE
8
BLACK
6
CONTINUOUS
10
2.11035
20
1.20085
11
2.10836
21
1.2005
0
LINE
8
BLACK
6
CONTINUOUS
10
2.10836
20
1.2005
11
2.10661
21
1.20151
0
LINE
8
BLACK
6
CONTINUOUS
10
2.10661
20
1.20151
11
2.10592
21
1.20341
0
LINE
8
BLACK
6
CONTINUOUS
10
2.10592
20
1.20341
11
2.10592
21
1.24278
0
LINE
8
BLACK
6
CONTINUOUS
10
2.10592
20
1.24278
11
2.1061
21
1.24379
0
LINE
8
BLACK
6
CONTINUOUS
10
2.1061
20
1.24379
11
2.10739
21
1.24534
0
LINE
8
BLACK
6
CONTINUOUS
10
2.10739
20
1.24534
11
2.10938
21
1.24569
0
LINE
8
BLACK
6
CONTINUOUS
10
2.10938
20
1.24569
11
2.11113
21
1.24468
0
LINE
8
BLACK
6
CONTINUOUS
10
2.11113
20
1.24468
11
2.11182
21
1.24278
0
LINE
8
BLACK
6
CONTINUOUS
10
2.11182
20
1.24278
11
2.11182
21
1.22699
0
LINE
8
BLACK
6
CONTINUOUS
10
2.11182
20
1.22699
11
2.12842
21
1.22699
0
LINE
8
BLACK
6
CONTINUOUS
10
2.12842
20
1.22699
11
2.12842
21
1.24278
0
LINE
8
BLACK
6
CONTINUOUS
10
2.12842
20
1.24278
11
2.12859
21
1.24379
0
LINE
8
BLACK
6
CONTINUOUS
10
2.12859
20
1.24379
11
2.12989
21
1.24534
0
LINE
8
BLACK
6
CONTINUOUS
10
2.12989
20
1.24534
11
2.13188
21
1.24569
0
LINE
8
BLACK
6
CONTINUOUS
10
2.13188
20
1.24569
11
2.13363
21
1.24468
0
LINE
8
BLACK
6
CONTINUOUS
10
2.09025
20
1.24562
11
2.09064
21
1.24569
0
LINE
8
BLACK
6
CONTINUOUS
10
2.09064
20
1.24569
11
2.0912
21
1.24537
0
LINE
8
BLACK
6
CONTINUOUS
10
2.0912
20
1.24537
11
2.09182
21
1.2452
0
LINE
8
BLACK
6
CONTINUOUS
10
2.09182
20
1.2452
11
2.09204
21
1.24488
0
LINE
8
BLACK
6
CONTINUOUS
10
2.09204
20
1.24488
11
2.09239
21
1.24468
0
LINE
8
BLACK
6
CONTINUOUS
10
2.09239
20
1.24468
11
2.09261
21
1.24407
0
LINE
8
BLACK
6
CONTINUOUS
10
2.09261
20
1.24407
11
2.09298
21
1.24354
0
LINE
8
BLACK
6
CONTINUOUS
10
2.09298
20
1.24354
11
2.09294
21
1.24315
0
LINE
8
BLACK
6
CONTINUOUS
10
2.09294
20
1.24315
11
2.09308
21
1.24278
0
LINE
8
BLACK
6
CONTINUOUS
10
2.09308
20
1.24278
11
2.09308
21
1.20341
0
LINE
8
BLACK
6
CONTINUOUS
10
2.09308
20
1.20341
11
2.0929
21
1.2024
0
LINE
8
BLACK
6
CONTINUOUS
10
2.0929
20
1.2024
11
2.0916
21
1.20085
0
LINE
8
BLACK
6
CONTINUOUS
10
2.0916
20
1.20085
11
2.08961
21
1.2005
0
LINE
8
BLACK
6
CONTINUOUS
10
2.08961
20
1.2005
11
2.08786
21
1.20151
0
LINE
8
BLACK
6
CONTINUOUS
10
2.08786
20
1.20151
11
2.08717
21
1.20341
0
LINE
8
BLACK
6
CONTINUOUS
10
2.08717
20
1.20341
11
2.08717
21
1.22947
0
LINE
8
BLACK
6
CONTINUOUS
10
2.08717
20
1.22947
11
2.07968
21
1.21341
0
LINE
8
BLACK
6
CONTINUOUS
10
2.07968
20
1.21341
11
2.07945
21
1.21309
0
LINE
8
BLACK
6
CONTINUOUS
10
2.07945
20
1.21309
11
2.07942
21
1.21297
0
LINE
8
BLACK
6
CONTINUOUS
10
2.07942
20
1.21297
11
2.07931
21
1.21289
0
LINE
8
BLACK
6
CONTINUOUS
10
2.07931
20
1.21289
11
2.07909
21
1.21257
0
LINE
8
BLACK
6
CONTINUOUS
10
2.07909
20
1.21257
11
2.07839
21
1.21225
0
LINE
8
BLACK
6
CONTINUOUS
10
2.07839
20
1.21225
11
2.07777
21
1.21181
0
LINE
8
BLACK
6
CONTINUOUS
10
2.07777
20
1.21181
11
2.0775
21
1.21183
0
LINE
8
BLACK
6
CONTINUOUS
10
2.0775
20
1.21183
11
2.07726
21
1.21172
0
LINE
8
BLACK
6
CONTINUOUS
10
2.07726
20
1.21172
11
2.07652
21
1.21192
0
LINE
8
BLACK
6
CONTINUOUS
10
2.07652
20
1.21192
11
2.07575
21
1.21198
0
LINE
8
BLACK
6
CONTINUOUS
10
2.07575
20
1.21198
11
2.07556
21
1.21217
0
LINE
8
BLACK
6
CONTINUOUS
10
2.07556
20
1.21217
11
2.07531
21
1.21224
0
LINE
8
BLACK
6
CONTINUOUS
10
2.07531
20
1.21224
11
2.07487
21
1.21287
0
LINE
8
BLACK
6
CONTINUOUS
10
2.07487
20
1.21287
11
2.07432
21
1.21341
0
LINE
8
BLACK
6
CONTINUOUS
10
2.07432
20
1.21341
11
2.06683
21
1.22947
0
LINE
8
BLACK
6
CONTINUOUS
10
2.06683
20
1.22947
11
2.06683
21
1.20341
0
LINE
8
BLACK
6
CONTINUOUS
10
2.06683
20
1.20341
11
2.06665
21
1.2024
0
LINE
8
BLACK
6
CONTINUOUS
10
2.06665
20
1.2024
11
2.06535
21
1.20085
0
LINE
8
BLACK
6
CONTINUOUS
10
2.06535
20
1.20085
11
2.06336
21
1.2005
0
LINE
8
BLACK
6
CONTINUOUS
10
2.06336
20
1.2005
11
2.06162
21
1.20151
0
LINE
8
BLACK
6
CONTINUOUS
10
2.06162
20
1.20151
11
2.06092
21
1.20341
0
LINE
8
BLACK
6
CONTINUOUS
10
2.06092
20
1.20341
11
2.06092
21
1.24278
0
LINE
8
BLACK
6
CONTINUOUS
10
2.06092
20
1.24278
11
2.0611
21
1.24379
0
LINE
8
BLACK
6
CONTINUOUS
10
2.0611
20
1.24379
11
2.06136
21
1.24409
0
LINE
8
BLACK
6
CONTINUOUS
10
2.06136
20
1.24409
11
2.06146
21
1.24447
0
LINE
8
BLACK
6
CONTINUOUS
10
2.06146
20
1.24447
11
2.06199
21
1.24484
0
LINE
8
BLACK
6
CONTINUOUS
10
2.06199
20
1.24484
11
2.0624
21
1.24534
0
LINE
8
BLACK
6
CONTINUOUS
10
2.0624
20
1.24534
11
2.06279
21
1.24541
0
LINE
8
BLACK
6
CONTINUOUS
10
2.06279
20
1.24541
11
2.06311
21
1.24563
0
LINE
8
BLACK
6
CONTINUOUS
10
2.06311
20
1.24563
11
2.06375
21
1.24558
0
LINE
8
BLACK
6
CONTINUOUS
10
2.06375
20
1.24558
11
2.06439
21
1.24569
0
LINE
8
BLACK
6
CONTINUOUS
10
2.06439
20
1.24569
11
2.06473
21
1.24549
0
LINE
8
BLACK
6
CONTINUOUS
10
2.06473
20
1.24549
11
2.06512
21
1.24546
0
LINE
8
BLACK
6
CONTINUOUS
10
2.06512
20
1.24546
11
2.06558
21
1.245
0
LINE
8
BLACK
6
CONTINUOUS
10
2.06558
20
1.245
11
2.06614
21
1.24468
0
LINE
8
BLACK
6
CONTINUOUS
10
2.06614
20
1.24468
11
2.06627
21
1.24431
0
LINE
8
BLACK
6
CONTINUOUS
10
2.06627
20
1.24431
11
2.06655
21
1.24403
0
LINE
8
BLACK
6
CONTINUOUS
10
2.06655
20
1.24403
11
2.077
21
1.22164
0
LINE
8
BLACK
6
CONTINUOUS
10
2.077
20
1.22164
11
2.08745
21
1.24403
0
LINE
8
BLACK
6
CONTINUOUS
10
2.08745
20
1.24403
11
2.08804
21
1.24487
0
LINE
8
BLACK
6
CONTINUOUS
10
2.08804
20
1.24487
11
2.08839
21
1.24504
0
LINE
8
BLACK
6
CONTINUOUS
10
2.08839
20
1.24504
11
2.08865
21
1.24534
0
LINE
8
BLACK
6
CONTINUOUS
10
2.08865
20
1.24534
11
2.08928
21
1.24545
0
LINE
8
BLACK
6
CONTINUOUS
10
2.08928
20
1.24545
11
2.08987
21
1.24572
0
LINE
8
BLACK
6
CONTINUOUS
10
2.08987
20
1.24572
11
2.09025
21
1.24562
0
LINE
8
BLACK
6
CONTINUOUS
10
1.93836
20
1.26723
11
1.92683
21
1.26943
0
LINE
8
BLACK
6
CONTINUOUS
10
1.92683
20
1.26943
11
1.91566
21
1.27306
0
LINE
8
BLACK
6
CONTINUOUS
10
1.91566
20
1.27306
11
1.90503
21
1.27806
0
LINE
8
BLACK
6
CONTINUOUS
10
1.90503
20
1.27806
11
1.89512
21
1.28435
0
LINE
8
BLACK
6
CONTINUOUS
10
1.89512
20
1.28435
11
1.88607
21
1.29184
0
LINE
8
BLACK
6
CONTINUOUS
10
1.88607
20
1.29184
11
1.87803
21
1.3004
0
LINE
8
BLACK
6
CONTINUOUS
10
1.87803
20
1.3004
11
1.87113
21
1.3099
0
LINE
8
BLACK
6
CONTINUOUS
10
1.87113
20
1.3099
11
1.86547
21
1.32019
0
LINE
8
BLACK
6
CONTINUOUS
10
1.86547
20
1.32019
11
1.86115
21
1.33111
0
LINE
8
BLACK
6
CONTINUOUS
10
1.86115
20
1.33111
11
1.85823
21
1.34248
0
LINE
8
BLACK
6
CONTINUOUS
10
1.85823
20
1.34248
11
1.85676
21
1.35413
0
LINE
8
BLACK
6
CONTINUOUS
10
1.85676
20
1.35413
11
1.85676
21
1.36587
0
LINE
8
BLACK
6
CONTINUOUS
10
1.85676
20
1.36587
11
1.85823
21
1.37752
0
LINE
8
BLACK
6
CONTINUOUS
10
1.85823
20
1.37752
11
1.86115
21
1.38889
0
LINE
8
BLACK
6
CONTINUOUS
10
1.86115
20
1.38889
11
1.86547
21
1.39981
0
LINE
8
BLACK
6
CONTINUOUS
10
1.86547
20
1.39981
11
1.87113
21
1.4101
0
LINE
8
BLACK
6
CONTINUOUS
10
1.87113
20
1.4101
11
1.87803
21
1.4196
0
LINE
8
BLACK
6
CONTINUOUS
10
1.87803
20
1.4196
11
1.88607
21
1.42816
0
LINE
8
BLACK
6
CONTINUOUS
10
1.88607
20
1.42816
11
1.89512
21
1.43565
0
LINE
8
BLACK
6
CONTINUOUS
10
1.89512
20
1.43565
11
1.90503
21
1.44194
0
LINE
8
BLACK
6
CONTINUOUS
10
1.90503
20
1.44194
11
1.91566
21
1.44694
0
LINE
8
BLACK
6
CONTINUOUS
10
1.91566
20
1.44694
11
1.92683
21
1.45057
0
LINE
8
BLACK
6
CONTINUOUS
10
1.92683
20
1.45057
11
1.93836
21
1.45277
0
LINE
8
BLACK
6
CONTINUOUS
10
1.93836
20
1.45277
11
1.95008
21
1.4535
0
LINE
8
BLACK
6
CONTINUOUS
10
1.95008
20
1.4535
11
2.20205
21
1.4535
0
LINE
8
BLACK
6
CONTINUOUS
10
2.20205
20
1.4535
11
2.21377
21
1.45277
0
LINE
8
BLACK
6
CONTINUOUS
10
2.21377
20
1.45277
11
2.2253
21
1.45057
0
LINE
8
BLACK
6
CONTINUOUS
10
2.2253
20
1.45057
11
2.23647
21
1.44694
0
LINE
8
BLACK
6
CONTINUOUS
10
2.23647
20
1.44694
11
2.24709
21
1.44194
0
LINE
8
BLACK
6
CONTINUOUS
10
2.24709
20
1.44194
11
2.25701
21
1.43565
0
LINE
8
BLACK
6
CONTINUOUS
10
2.25701
20
1.43565
11
2.26606
21
1.42816
0
LINE
8
BLACK
6
CONTINUOUS
10
2.26606
20
1.42816
11
2.27409
21
1.4196
0
LINE
8
BLACK
6
CONTINUOUS
10
2.27409
20
1.4196
11
2.281
21
1.4101
0
LINE
8
BLACK
6
CONTINUOUS
10
2.281
20
1.4101
11
2.28665
21
1.39981
0
LINE
8
BLACK
6
CONTINUOUS
10
2.28665
20
1.39981
11
2.29097
21
1.38889
0
LINE
8
BLACK
6
CONTINUOUS
10
2.29097
20
1.38889
11
2.29389
21
1.37752
0
LINE
8
BLACK
6
CONTINUOUS
10
2.29389
20
1.37752
11
2.29537
21
1.36587
0
LINE
8
BLACK
6
CONTINUOUS
10
2.29537
20
1.36587
11
2.29537
21
1.35413
0
LINE
8
BLACK
6
CONTINUOUS
10
2.29537
20
1.35413
11
2.29389
21
1.34248
0
LINE
8
BLACK
6
CONTINUOUS
10
2.29389
20
1.34248
11
2.29097
21
1.33111
0
LINE
8
BLACK
6
CONTINUOUS
10
2.29097
20
1.33111
11
2.28665
21
1.32019
0
LINE
8
BLACK
6
CONTINUOUS
10
2.28665
20
1.32019
11
2.281
21
1.3099
0
LINE
8
BLACK
6
CONTINUOUS
10
2.281
20
1.3099
11
2.27409
21
1.3004
0
LINE
8
BLACK
6
CONTINUOUS
10
2.27409
20
1.3004
11
2.26606
21
1.29184
0
LINE
8
BLACK
6
CONTINUOUS
10
2.26606
20
1.29184
11
2.25701
21
1.28435
0
LINE
8
BLACK
6
CONTINUOUS
10
2.25701
20
1.28435
11
2.24709
21
1.27806
0
LINE
8
BLACK
6
CONTINUOUS
10
2.24709
20
1.27806
11
2.23647
21
1.27306
0
LINE
8
BLACK
6
CONTINUOUS
10
2.23647
20
1.27306
11
2.2253
21
1.26943
0
LINE
8
BLACK
6
CONTINUOUS
10
2.2253
20
1.26943
11
2.21377
21
1.26723
0
LINE
8
BLACK
6
CONTINUOUS
10
2.21377
20
1.26723
11
2.20205
21
1.2665
0
LINE
8
BLACK
6
CONTINUOUS
10
2.20205
20
1.2665
11
1.95008
21
1.2665
0
LINE
8
BLACK
6
CONTINUOUS
10
1.95008
20
1.2665
11
1.93836
21
1.26723
0
LINE
8
BLACK
6
CONTINUOUS
10
1.94971
20
1.44972
11
1.93883
21
1.44904
0
LINE
8
BLACK
6
CONTINUOUS
10
1.93883
20
1.44904
11
1.92776
21
1.44692
0
LINE
8
BLACK
6
CONTINUOUS
10
1.92776
20
1.44692
11
1.91704
21
1.44344
0
LINE
8
BLACK
6
CONTINUOUS
10
1.91704
20
1.44344
11
1.90684
21
1.43864
0
LINE
8
BLACK
6
CONTINUOUS
10
1.90684
20
1.43864
11
1.89733
21
1.4326
0
LINE
8
BLACK
6
CONTINUOUS
10
1.89733
20
1.4326
11
1.88864
21
1.42542
0
LINE
8
BLACK
6
CONTINUOUS
10
1.88864
20
1.42542
11
1.88093
21
1.41721
0
LINE
8
BLACK
6
CONTINUOUS
10
1.88093
20
1.41721
11
1.87431
21
1.40809
0
LINE
8
BLACK
6
CONTINUOUS
10
1.87431
20
1.40809
11
1.86888
21
1.39821
0
LINE
8
BLACK
6
CONTINUOUS
10
1.86888
20
1.39821
11
1.86473
21
1.38773
0
LINE
8
BLACK
6
CONTINUOUS
10
1.86473
20
1.38773
11
1.86192
21
1.37682
0
LINE
8
BLACK
6
CONTINUOUS
10
1.86192
20
1.37682
11
1.86051
21
1.36564
0
LINE
8
BLACK
6
CONTINUOUS
10
1.86051
20
1.36564
11
1.86051
21
1.35436
0
LINE
8
BLACK
6
CONTINUOUS
10
1.86051
20
1.35436
11
1.86192
21
1.34318
0
LINE
8
BLACK
6
CONTINUOUS
10
1.86192
20
1.34318
11
1.86473
21
1.33227
0
LINE
8
BLACK
6
CONTINUOUS
10
1.86473
20
1.33227
11
1.86888
21
1.32179
0
LINE
8
BLACK
6
CONTINUOUS
10
1.86888
20
1.32179
11
1.87431
21
1.31191
0
LINE
8
BLACK
6
CONTINUOUS
10
1.87431
20
1.31191
11
1.88093
21
1.30279
0
LINE
8
BLACK
6
CONTINUOUS
10
1.88093
20
1.30279
11
1.88864
21
1.29458
0
LINE
8
BLACK
6
CONTINUOUS
10
1.88864
20
1.29458
11
1.89733
21
1.2874
0
LINE
8
BLACK
6
CONTINUOUS
10
1.89733
20
1.2874
11
1.90684
21
1.28136
0
LINE
8
BLACK
6
CONTINUOUS
10
1.90684
20
1.28136
11
1.91704
21
1.27656
0
LINE
8
BLACK
6
CONTINUOUS
10
1.91704
20
1.27656
11
1.92776
21
1.27308
0
LINE
8
BLACK
6
CONTINUOUS
10
1.92776
20
1.27308
11
1.93883
21
1.27096
0
LINE
8
BLACK
6
CONTINUOUS
10
1.93883
20
1.27096
11
1.94971
21
1.27028
0
LINE
8
BLACK
6
CONTINUOUS
10
1.94971
20
1.27028
11
1.95008
21
1.27043
0
LINE
8
BLACK
6
CONTINUOUS
10
1.95008
20
1.27043
11
2.20205
21
1.27043
0
LINE
8
BLACK
6
CONTINUOUS
10
2.20205
20
1.27043
11
2.20242
21
1.27028
0
LINE
8
BLACK
6
CONTINUOUS
10
2.20242
20
1.27028
11
2.2133
21
1.27096
0
LINE
8
BLACK
6
CONTINUOUS
10
2.2133
20
1.27096
11
2.22437
21
1.27308
0
LINE
8
BLACK
6
CONTINUOUS
10
2.22437
20
1.27308
11
2.23508
21
1.27656
0
LINE
8
BLACK
6
CONTINUOUS
10
2.23508
20
1.27656
11
2.24528
21
1.28136
0
LINE
8
BLACK
6
CONTINUOUS
10
2.24528
20
1.28136
11
2.2548
21
1.2874
0
LINE
8
BLACK
6
CONTINUOUS
10
2.2548
20
1.2874
11
2.26348
21
1.29458
0
LINE
8
BLACK
6
CONTINUOUS
10
2.26348
20
1.29458
11
2.2712
21
1.30279
0
LINE
8
BLACK
6
CONTINUOUS
10
2.2712
20
1.30279
11
2.27782
21
1.31191
0
LINE
8
BLACK
6
CONTINUOUS
10
2.27782
20
1.31191
11
2.28325
21
1.32179
0
LINE
8
BLACK
6
CONTINUOUS
10
2.28325
20
1.32179
11
2.2874
21
1.33227
0
LINE
8
BLACK
6
CONTINUOUS
10
2.2874
20
1.33227
11
2.2902
21
1.34318
0
LINE
8
BLACK
6
CONTINUOUS
10
2.2902
20
1.34318
11
2.29161
21
1.35436
0
LINE
8
BLACK
6
CONTINUOUS
10
2.29161
20
1.35436
11
2.29161
21
1.36564
0
LINE
8
BLACK
6
CONTINUOUS
10
2.29161
20
1.36564
11
2.2902
21
1.37682
0
LINE
8
BLACK
6
CONTINUOUS
10
2.2902
20
1.37682
11
2.2874
21
1.38773
0
LINE
8
BLACK
6
CONTINUOUS
10
2.2874
20
1.38773
11
2.28325
21
1.39821
0
LINE
8
BLACK
6
CONTINUOUS
10
2.28325
20
1.39821
11
2.27782
21
1.40809
0
LINE
8
BLACK
6
CONTINUOUS
10
2.27782
20
1.40809
11
2.2712
21
1.41721
0
LINE
8
BLACK
6
CONTINUOUS
10
2.2712
20
1.41721
11
2.26348
21
1.42542
0
LINE
8
BLACK
6
CONTINUOUS
10
2.26348
20
1.42542
11
2.2548
21
1.4326
0
LINE
8
BLACK
6
CONTINUOUS
10
2.2548
20
1.4326
11
2.24528
21
1.43864
0
LINE
8
BLACK
6
CONTINUOUS
10
2.24528
20
1.43864
11
2.23508
21
1.44344
0
LINE
8
BLACK
6
CONTINUOUS
10
2.23508
20
1.44344
11
2.22437
21
1.44692
0
LINE
8
BLACK
6
CONTINUOUS
10
2.22437
20
1.44692
11
2.2133
21
1.44904
0
LINE
8
BLACK
6
CONTINUOUS
10
2.2133
20
1.44904
11
2.20242
21
1.44972
0
LINE
8
BLACK
6
CONTINUOUS
10
2.20242
20
1.44972
11
2.20205
21
1.44957
0
LINE
8
BLACK
6
CONTINUOUS
10
2.20205
20
1.44957
11
1.95008
21
1.44957
0
LINE
8
BLACK
6
CONTINUOUS
10
1.95008
20
1.44957
11
1.94971
21
1.44972
0
LINE
8
BLACK
6
CONTINUOUS
10
1.94696
20
1.28004
11
1.93618
21
1.28228
0
LINE
8
BLACK
6
CONTINUOUS
10
1.93618
20
1.28228
11
1.9258
21
1.28597
0
LINE
8
BLACK
6
CONTINUOUS
10
1.9258
20
1.28597
11
1.91602
21
1.29104
0
LINE
8
BLACK
6
CONTINUOUS
10
1.91602
20
1.29104
11
1.90702
21
1.29739
0
LINE
8
BLACK
6
CONTINUOUS
10
1.90702
20
1.29739
11
1.89897
21
1.30491
0
LINE
8
BLACK
6
CONTINUOUS
10
1.89897
20
1.30491
11
1.89202
21
1.31346
0
LINE
8
BLACK
6
CONTINUOUS
10
1.89202
20
1.31346
11
1.88629
21
1.32287
0
LINE
8
BLACK
6
CONTINUOUS
10
1.88629
20
1.32287
11
1.8819
21
1.33297
0
LINE
8
BLACK
6
CONTINUOUS
10
1.8819
20
1.33297
11
1.87893
21
1.34358
0
LINE
8
BLACK
6
CONTINUOUS
10
1.87893
20
1.34358
11
1.87743
21
1.35449
0
LINE
8
BLACK
6
CONTINUOUS
10
1.87743
20
1.35449
11
1.87743
21
1.36551
0
LINE
8
BLACK
6
CONTINUOUS
10
1.87743
20
1.36551
11
1.87893
21
1.37642
0
LINE
8
BLACK
6
CONTINUOUS
10
1.87893
20
1.37642
11
1.8819
21
1.38703
0
LINE
8
BLACK
6
CONTINUOUS
10
1.8819
20
1.38703
11
1.88629
21
1.39713
0
LINE
8
BLACK
6
CONTINUOUS
10
1.88629
20
1.39713
11
1.89202
21
1.40654
0
LINE
8
BLACK
6
CONTINUOUS
10
1.89202
20
1.40654
11
1.89897
21
1.41509
0
LINE
8
BLACK
6
CONTINUOUS
10
1.89897
20
1.41509
11
1.90702
21
1.42261
0
LINE
8
BLACK
6
CONTINUOUS
10
1.90702
20
1.42261
11
1.91602
21
1.42896
0
LINE
8
BLACK
6
CONTINUOUS
10
1.91602
20
1.42896
11
1.9258
21
1.43403
0
LINE
8
BLACK
6
CONTINUOUS
10
1.9258
20
1.43403
11
1.93618
21
1.43772
0
LINE
8
BLACK
6
CONTINUOUS
10
1.93618
20
1.43772
11
1.94696
21
1.43996
0
LINE
8
BLACK
6
CONTINUOUS
10
1.94696
20
1.43996
11
1.95795
21
1.44071
0
LINE
8
BLACK
6
CONTINUOUS
10
1.95795
20
1.44071
11
2.19417
21
1.44071
0
LINE
8
BLACK
6
CONTINUOUS
10
2.19417
20
1.44071
11
2.20516
21
1.43996
0
LINE
8
BLACK
6
CONTINUOUS
10
2.20516
20
1.43996
11
2.21595
21
1.43772
0
LINE
8
BLACK
6
CONTINUOUS
10
2.21595
20
1.43772
11
2.22633
21
1.43403
0
LINE
8
BLACK
6
CONTINUOUS
10
2.22633
20
1.43403
11
2.23611
21
1.42896
0
LINE
8
BLACK
6
CONTINUOUS
10
2.23611
20
1.42896
11
2.24511
21
1.42261
0
LINE
8
BLACK
6
CONTINUOUS
10
2.24511
20
1.42261
11
2.25316
21
1.41509
0
LINE
8
BLACK
6
CONTINUOUS
10
2.25316
20
1.41509
11
2.26011
21
1.40654
0
LINE
8
BLACK
6
CONTINUOUS
10
2.26011
20
1.40654
11
2.26583
21
1.39713
0
LINE
8
BLACK
6
CONTINUOUS
10
2.26583
20
1.39713
11
2.27022
21
1.38703
0
LINE
8
BLACK
6
CONTINUOUS
10
2.27022
20
1.38703
11
2.27319
21
1.37642
0
LINE
8
BLACK
6
CONTINUOUS
10
2.27319
20
1.37642
11
2.27469
21
1.36551
0
LINE
8
BLACK
6
CONTINUOUS
10
2.27469
20
1.36551
11
2.27469
21
1.35449
0
LINE
8
BLACK
6
CONTINUOUS
10
2.27469
20
1.35449
11
2.27319
21
1.34358
0
LINE
8
BLACK
6
CONTINUOUS
10
2.27319
20
1.34358
11
2.27022
21
1.33297
0
LINE
8
BLACK
6
CONTINUOUS
10
2.27022
20
1.33297
11
2.26583
21
1.32287
0
LINE
8
BLACK
6
CONTINUOUS
10
2.26583
20
1.32287
11
2.26011
21
1.31346
0
LINE
8
BLACK
6
CONTINUOUS
10
2.26011
20
1.31346
11
2.25316
21
1.30491
0
LINE
8
BLACK
6
CONTINUOUS
10
2.25316
20
1.30491
11
2.24511
21
1.29739
0
LINE
8
BLACK
6
CONTINUOUS
10
2.24511
20
1.29739
11
2.23611
21
1.29104
0
LINE
8
BLACK
6
CONTINUOUS
10
2.23611
20
1.29104
11
2.22633
21
1.28597
0
LINE
8
BLACK
6
CONTINUOUS
10
2.22633
20
1.28597
11
2.21595
21
1.28228
0
LINE
8
BLACK
6
CONTINUOUS
10
2.21595
20
1.28228
11
2.20516
21
1.28004
0
LINE
8
BLACK
6
CONTINUOUS
10
2.20516
20
1.28004
11
2.19417
21
1.27929
0
LINE
8
BLACK
6
CONTINUOUS
10
2.19417
20
1.27929
11
1.95795
21
1.27929
0
LINE
8
BLACK
6
CONTINUOUS
10
1.95795
20
1.27929
11
1.94696
21
1.28004
0
LINE
8
BLACK
6
CONTINUOUS
10
1.95758
20
1.43693
11
1.94747
21
1.43623
0
LINE
8
BLACK
6
CONTINUOUS
10
1.94747
20
1.43623
11
1.93719
21
1.4341
0
LINE
8
BLACK
6
CONTINUOUS
10
1.93719
20
1.4341
11
1.9273
21
1.43058
0
LINE
8
BLACK
6
CONTINUOUS
10
1.9273
20
1.43058
11
1.91797
21
1.42575
0
LINE
8
BLACK
6
CONTINUOUS
10
1.91797
20
1.42575
11
1.90939
21
1.41969
0
LINE
8
BLACK
6
CONTINUOUS
10
1.90939
20
1.41969
11
1.90171
21
1.41252
0
LINE
8
BLACK
6
CONTINUOUS
10
1.90171
20
1.41252
11
1.89509
21
1.40438
0
LINE
8
BLACK
6
CONTINUOUS
10
1.89509
20
1.40438
11
1.88963
21
1.3954
0
LINE
8
BLACK
6
CONTINUOUS
10
1.88963
20
1.3954
11
1.88544
21
1.38577
0
LINE
8
BLACK
6
CONTINUOUS
10
1.88544
20
1.38577
11
1.88261
21
1.37566
0
LINE
8
BLACK
6
CONTINUOUS
10
1.88261
20
1.37566
11
1.88118
21
1.36525
0
LINE
8
BLACK
6
CONTINUOUS
10
1.88118
20
1.36525
11
1.88118
21
1.35475
0
LINE
8
BLACK
6
CONTINUOUS
10
1.88118
20
1.35475
11
1.88261
21
1.34434
0
LINE
8
BLACK
6
CONTINUOUS
10
1.88261
20
1.34434
11
1.88544
21
1.33423
0
LINE
8
BLACK
6
CONTINUOUS
10
1.88544
20
1.33423
11
1.88963
21
1.3246
0
LINE
8
BLACK
6
CONTINUOUS
10
1.88963
20
1.3246
11
1.89509
21
1.31562
0
LINE
8
BLACK
6
CONTINUOUS
10
1.89509
20
1.31562
11
1.90171
21
1.30748
0
LINE
8
BLACK
6
CONTINUOUS
10
1.90171
20
1.30748
11
1.90939
21
1.30031
0
LINE
8
BLACK
6
CONTINUOUS
10
1.90939
20
1.30031
11
1.91797
21
1.29425
0
LINE
8
BLACK
6
CONTINUOUS
10
1.91797
20
1.29425
11
1.9273
21
1.28942
0
LINE
8
BLACK
6
CONTINUOUS
10
1.9273
20
1.28942
11
1.93719
21
1.2859
0
LINE
8
BLACK
6
CONTINUOUS
10
1.93719
20
1.2859
11
1.94747
21
1.28377
0
LINE
8
BLACK
6
CONTINUOUS
10
1.94747
20
1.28377
11
1.95758
21
1.28307
0
LINE
8
BLACK
6
CONTINUOUS
10
1.95758
20
1.28307
11
1.95795
21
1.28323
0
LINE
8
BLACK
6
CONTINUOUS
10
1.95795
20
1.28323
11
2.19417
21
1.28323
0
LINE
8
BLACK
6
CONTINUOUS
10
2.19417
20
1.28323
11
2.19454
21
1.28307
0
LINE
8
BLACK
6
CONTINUOUS
10
2.19454
20
1.28307
11
2.20465
21
1.28377
0
LINE
8
BLACK
6
CONTINUOUS
10
2.20465
20
1.28377
11
2.21493
21
1.2859
0
LINE
8
BLACK
6
CONTINUOUS
10
2.21493
20
1.2859
11
2.22483
21
1.28942
0
LINE
8
BLACK
6
CONTINUOUS
10
2.22483
20
1.28942
11
2.23416
21
1.29425
0
LINE
8
BLACK
6
CONTINUOUS
10
2.23416
20
1.29425
11
2.24274
21
1.30031
0
LINE
8
BLACK
6
CONTINUOUS
10
2.24274
20
1.30031
11
2.25041
21
1.30748
0
LINE
8
BLACK
6
CONTINUOUS
10
2.25041
20
1.30748
11
2.25704
21
1.31562
0
LINE
8
BLACK
6
CONTINUOUS
10
2.25704
20
1.31562
11
2.2625
21
1.3246
0
LINE
8
BLACK
6
CONTINUOUS
10
2.2625
20
1.3246
11
2.26668
21
1.33423
0
LINE
8
BLACK
6
CONTINUOUS
10
2.26668
20
1.33423
11
2.26951
21
1.34434
0
LINE
8
BLACK
6
CONTINUOUS
10
2.26951
20
1.34434
11
2.27094
21
1.35475
0
LINE
8
BLACK
6
CONTINUOUS
10
2.27094
20
1.35475
11
2.27094
21
1.36525
0
LINE
8
BLACK
6
CONTINUOUS
10
2.27094
20
1.36525
11
2.26951
21
1.37566
0
LINE
8
BLACK
6
CONTINUOUS
10
2.26951
20
1.37566
11
2.26668
21
1.38577
0
LINE
8
BLACK
6
CONTINUOUS
10
2.26668
20
1.38577
11
2.2625
21
1.3954
0
LINE
8
BLACK
6
CONTINUOUS
10
2.2625
20
1.3954
11
2.25704
21
1.40438
0
LINE
8
BLACK
6
CONTINUOUS
10
2.25704
20
1.40438
11
2.25041
21
1.41252
0
LINE
8
BLACK
6
CONTINUOUS
10
2.25041
20
1.41252
11
2.24274
21
1.41969
0
LINE
8
BLACK
6
CONTINUOUS
10
2.24274
20
1.41969
11
2.23416
21
1.42575
0
LINE
8
BLACK
6
CONTINUOUS
10
2.23416
20
1.42575
11
2.22483
21
1.43058
0
LINE
8
BLACK
6
CONTINUOUS
10
2.22483
20
1.43058
11
2.21493
21
1.4341
0
LINE
8
BLACK
6
CONTINUOUS
10
2.21493
20
1.4341
11
2.20465
21
1.43623
0
LINE
8
BLACK
6
CONTINUOUS
10
2.20465
20
1.43623
11
2.19454
21
1.43693
0
LINE
8
BLACK
6
CONTINUOUS
10
2.19454
20
1.43693
11
2.19417
21
1.43677
0
LINE
8
BLACK
6
CONTINUOUS
10
2.19417
20
1.43677
11
1.95795
21
1.43677
0
LINE
8
BLACK
6
CONTINUOUS
10
1.95795
20
1.43677
11
1.95758
21
1.43693
0
LINE
8
BLACK
6
CONTINUOUS
10
2.09328
20
1.38444
11
2.09345
21
1.38447
0
LINE
8
BLACK
6
CONTINUOUS
10
2.09345
20
1.38447
11
2.09419
21
1.38404
0
LINE
8
BLACK
6
CONTINUOUS
10
2.09419
20
1.38404
11
2.09498
21
1.38369
0
LINE
8
BLACK
6
CONTINUOUS
10
2.09498
20
1.38369
11
2.09505
21
1.38354
0
LINE
8
BLACK
6
CONTINUOUS
10
2.09505
20
1.38354
11
2.0952
21
1.38346
0
LINE
8
BLACK
6
CONTINUOUS
10
2.0952
20
1.38346
11
2.09549
21
1.38265
0
LINE
8
BLACK
6
CONTINUOUS
10
2.09549
20
1.38265
11
2.09587
21
1.38188
0
LINE
8
BLACK
6
CONTINUOUS
10
2.09587
20
1.38188
11
2.09583
21
1.38172
0
LINE
8
BLACK
6
CONTINUOUS
10
2.09583
20
1.38172
11
2.09589
21
1.38156
0
LINE
8
BLACK
6
CONTINUOUS
10
2.09589
20
1.38156
11
2.09589
21
1.34514
0
LINE
8
BLACK
6
CONTINUOUS
10
2.09589
20
1.34514
11
2.10418
21
1.34514
0
LINE
8
BLACK
6
CONTINUOUS
10
2.10418
20
1.34514
11
2.10519
21
1.34496
0
LINE
8
BLACK
6
CONTINUOUS
10
2.10519
20
1.34496
11
2.10674
21
1.34367
0
LINE
8
BLACK
6
CONTINUOUS
10
2.10674
20
1.34367
11
2.10709
21
1.34168
0
LINE
8
BLACK
6
CONTINUOUS
10
2.10709
20
1.34168
11
2.10608
21
1.33993
0
LINE
8
BLACK
6
CONTINUOUS
10
2.10608
20
1.33993
11
2.10418
21
1.33924
0
LINE
8
BLACK
6
CONTINUOUS
10
2.10418
20
1.33924
11
2.08169
21
1.33924
0
LINE
8
BLACK
6
CONTINUOUS
10
2.08169
20
1.33924
11
2.08068
21
1.33942
0
LINE
8
BLACK
6
CONTINUOUS
10
2.08068
20
1.33942
11
2.07913
21
1.34071
0
LINE
8
BLACK
6
CONTINUOUS
10
2.07913
20
1.34071
11
2.07878
21
1.3427
0
LINE
8
BLACK
6
CONTINUOUS
10
2.07878
20
1.3427
11
2.07979
21
1.34445
0
LINE
8
BLACK
6
CONTINUOUS
10
2.07979
20
1.34445
11
2.08169
21
1.34514
0
LINE
8
BLACK
6
CONTINUOUS
10
2.08169
20
1.34514
11
2.08998
21
1.34514
0
LINE
8
BLACK
6
CONTINUOUS
10
2.08998
20
1.34514
11
2.08998
21
1.37256
0
LINE
8
BLACK
6
CONTINUOUS
10
2.08998
20
1.37256
11
2.08752
21
1.3701
0
LINE
8
BLACK
6
CONTINUOUS
10
2.08752
20
1.3701
11
2.0868
21
1.36959
0
LINE
8
BLACK
6
CONTINUOUS
10
2.0868
20
1.36959
11
2.08676
21
1.36954
0
LINE
8
BLACK
6
CONTINUOUS
10
2.08676
20
1.36954
11
2.08301
21
1.36767
0
LINE
8
BLACK
6
CONTINUOUS
10
2.08301
20
1.36767
11
2.08202
21
1.36738
0
LINE
8
BLACK
6
CONTINUOUS
10
2.08202
20
1.36738
11
2.08006
21
1.36785
0
LINE
8
BLACK
6
CONTINUOUS
10
2.08006
20
1.36785
11
2.07886
21
1.36947
0
LINE
8
BLACK
6
CONTINUOUS
10
2.07886
20
1.36947
11
2.07898
21
1.37149
0
LINE
8
BLACK
6
CONTINUOUS
10
2.07898
20
1.37149
11
2.08037
21
1.37295
0
LINE
8
BLACK
6
CONTINUOUS
10
2.08037
20
1.37295
11
2.08369
21
1.37461
0
LINE
8
BLACK
6
CONTINUOUS
10
2.08369
20
1.37461
11
2.08689
21
1.37782
0
LINE
8
BLACK
6
CONTINUOUS
10
2.08689
20
1.37782
11
2.09048
21
1.3832
0
LINE
8
BLACK
6
CONTINUOUS
10
2.09048
20
1.3832
11
2.09119
21
1.38394
0
LINE
8
BLACK
6
CONTINUOUS
10
2.09119
20
1.38394
11
2.09135
21
1.38399
0
LINE
8
BLACK
6
CONTINUOUS
10
2.09135
20
1.38399
11
2.09146
21
1.38412
0
LINE
8
BLACK
6
CONTINUOUS
10
2.09146
20
1.38412
11
2.0923
21
1.38427
0
LINE
8
BLACK
6
CONTINUOUS
10
2.0923
20
1.38427
11
2.09313
21
1.38451
0
LINE
8
BLACK
6
CONTINUOUS
10
2.09313
20
1.38451
11
2.09328
21
1.38444
0
LINE
8
BLACK
6
CONTINUOUS
10
2.07243
20
1.38374
11
2.07337
21
1.38195
0
LINE
8
BLACK
6
CONTINUOUS
10
2.07337
20
1.38195
11
2.07293
21
1.37997
0
LINE
8
BLACK
6
CONTINUOUS
10
2.07293
20
1.37997
11
2.06027
21
1.36008
0
LINE
8
BLACK
6
CONTINUOUS
10
2.06027
20
1.36008
11
2.06027
21
1.34219
0
LINE
8
BLACK
6
CONTINUOUS
10
2.06027
20
1.34219
11
2.06009
21
1.34118
0
LINE
8
BLACK
6
CONTINUOUS
10
2.06009
20
1.34118
11
2.05879
21
1.33963
0
LINE
8
BLACK
6
CONTINUOUS
10
2.05879
20
1.33963
11
2.0568
21
1.33928
0
LINE
8
BLACK
6
CONTINUOUS
10
2.0568
20
1.33928
11
2.05505
21
1.34029
0
LINE
8
BLACK
6
CONTINUOUS
10
2.05505
20
1.34029
11
2.05436
21
1.34219
0
LINE
8
BLACK
6
CONTINUOUS
10
2.05436
20
1.34219
11
2.05436
21
1.36008
0
LINE
8
BLACK
6
CONTINUOUS
10
2.05436
20
1.36008
11
2.0417
21
1.37997
0
LINE
8
BLACK
6
CONTINUOUS
10
2.0417
20
1.37997
11
2.04131
21
1.38092
0
LINE
8
BLACK
6
CONTINUOUS
10
2.04131
20
1.38092
11
2.04157
21
1.38292
0
LINE
8
BLACK
6
CONTINUOUS
10
2.04157
20
1.38292
11
2.04306
21
1.38429
0
LINE
8
BLACK
6
CONTINUOUS
10
2.04306
20
1.38429
11
2.04508
21
1.38438
0
LINE
8
BLACK
6
CONTINUOUS
10
2.04508
20
1.38438
11
2.04668
21
1.38315
0
LINE
8
BLACK
6
CONTINUOUS
10
2.04668
20
1.38315
11
2.05732
21
1.36644
0
LINE
8
BLACK
6
CONTINUOUS
10
2.05732
20
1.36644
11
2.06795
21
1.38315
0
LINE
8
BLACK
6
CONTINUOUS
10
2.06795
20
1.38315
11
2.06864
21
1.3839
0
LINE
8
BLACK
6
CONTINUOUS
10
2.06864
20
1.3839
11
2.07057
21
1.38451
0
LINE
8
BLACK
6
CONTINUOUS
10
2.07057
20
1.38451
11
2.07243
21
1.38374
0
LINE
8
BLACK
6
CONTINUOUS
10
1.60882
20
1.46715
11
1.61037
21
1.46585
0
LINE
8
BLACK
6
CONTINUOUS
10
1.61037
20
1.46585
11
1.61072
21
1.46386
0
LINE
8
BLACK
6
CONTINUOUS
10
1.61072
20
1.46386
11
1.60971
21
1.46211
0
LINE
8
BLACK
6
CONTINUOUS
10
1.60971
20
1.46211
11
1.60781
21
1.46142
0
LINE
8
BLACK
6
CONTINUOUS
10
1.60781
20
1.46142
11
1.58175
21
1.46142
0
LINE
8
BLACK
6
CONTINUOUS
10
1.58175
20
1.46142
11
1.59781
21
1.45393
0
LINE
8
BLACK
6
CONTINUOUS
10
1.59781
20
1.45393
11
1.59813
21
1.45371
0
LINE
8
BLACK
6
CONTINUOUS
10
1.59813
20
1.45371
11
1.59825
21
1.45367
0
LINE
8
BLACK
6
CONTINUOUS
10
1.59825
20
1.45367
11
1.59833
21
1.45356
0
LINE
8
BLACK
6
CONTINUOUS
10
1.59833
20
1.45356
11
1.59865
21
1.45334
0
LINE
8
BLACK
6
CONTINUOUS
10
1.59865
20
1.45334
11
1.59897
21
1.45265
0
LINE
8
BLACK
6
CONTINUOUS
10
1.59897
20
1.45265
11
1.59941
21
1.45202
0
LINE
8
BLACK
6
CONTINUOUS
10
1.59941
20
1.45202
11
1.59939
21
1.45175
0
LINE
8
BLACK
6
CONTINUOUS
10
1.59939
20
1.45175
11
1.5995
21
1.45151
0
LINE
8
BLACK
6
CONTINUOUS
10
1.5995
20
1.45151
11
1.5993
21
1.45077
0
LINE
8
BLACK
6
CONTINUOUS
10
1.5993
20
1.45077
11
1.59924
21
1.45001
0
LINE
8
BLACK
6
CONTINUOUS
10
1.59924
20
1.45001
11
1.59905
21
1.44982
0
LINE
8
BLACK
6
CONTINUOUS
10
1.59905
20
1.44982
11
1.59898
21
1.44956
0
LINE
8
BLACK
6
CONTINUOUS
10
1.59898
20
1.44956
11
1.59835
21
1.44912
0
LINE
8
BLACK
6
CONTINUOUS
10
1.59835
20
1.44912
11
1.59781
21
1.44858
0
LINE
8
BLACK
6
CONTINUOUS
10
1.59781
20
1.44858
11
1.58175
21
1.44108
0
LINE
8
BLACK
6
CONTINUOUS
10
1.58175
20
1.44108
11
1.60781
21
1.44108
0
LINE
8
BLACK
6
CONTINUOUS
10
1.60781
20
1.44108
11
1.60882
21
1.4409
0
LINE
8
BLACK
6
CONTINUOUS
10
1.60882
20
1.4409
11
1.61037
21
1.43961
0
LINE
8
BLACK
6
CONTINUOUS
10
1.61037
20
1.43961
11
1.61072
21
1.43762
0
LINE
8
BLACK
6
CONTINUOUS
10
1.61072
20
1.43762
11
1.60971
21
1.43587
0
LINE
8
BLACK
6
CONTINUOUS
10
1.60971
20
1.43587
11
1.60781
21
1.43518
0
LINE
8
BLACK
6
CONTINUOUS
10
1.60781
20
1.43518
11
1.56844
21
1.43518
0
LINE
8
BLACK
6
CONTINUOUS
10
1.56844
20
1.43518
11
1.56743
21
1.43535
0
LINE
8
BLACK
6
CONTINUOUS
10
1.56743
20
1.43535
11
1.56713
21
1.43561
0
LINE
8
BLACK
6
CONTINUOUS
10
1.56713
20
1.43561
11
1.56675
21
1.43571
0
LINE
8
BLACK
6
CONTINUOUS
10
1.56675
20
1.43571
11
1.56638
21
1.43624
0
LINE
8
BLACK
6
CONTINUOUS
10
1.56638
20
1.43624
11
1.56588
21
1.43665
0
LINE
8
BLACK
6
CONTINUOUS
10
1.56588
20
1.43665
11
1.56581
21
1.43704
0
LINE
8
BLACK
6
CONTINUOUS
10
1.56581
20
1.43704
11
1.56559
21
1.43736
0
LINE
8
BLACK
6
CONTINUOUS
10
1.56559
20
1.43736
11
1.56564
21
1.43801
0
LINE
8
BLACK
6
CONTINUOUS
10
1.56564
20
1.43801
11
1.56553
21
1.43864
0
LINE
8
BLACK
6
CONTINUOUS
10
1.56553
20
1.43864
11
1.56573
21
1.43898
0
LINE
8
BLACK
6
CONTINUOUS
10
1.56573
20
1.43898
11
1.56576
21
1.43938
0
LINE
8
BLACK
6
CONTINUOUS
10
1.56576
20
1.43938
11
1.56622
21
1.43983
0
LINE
8
BLACK
6
CONTINUOUS
10
1.56622
20
1.43983
11
1.56654
21
1.44039
0
LINE
8
BLACK
6
CONTINUOUS
10
1.56654
20
1.44039
11
1.56691
21
1.44053
0
LINE
8
BLACK
6
CONTINUOUS
10
1.56691
20
1.44053
11
1.56719
21
1.4408
0
LINE
8
BLACK
6
CONTINUOUS
10
1.56719
20
1.4408
11
1.58958
21
1.45125
0
LINE
8
BLACK
6
CONTINUOUS
10
1.58958
20
1.45125
11
1.56719
21
1.4617
0
LINE
8
BLACK
6
CONTINUOUS
10
1.56719
20
1.4617
11
1.56635
21
1.46229
0
LINE
8
BLACK
6
CONTINUOUS
10
1.56635
20
1.46229
11
1.56619
21
1.46265
0
LINE
8
BLACK
6
CONTINUOUS
10
1.56619
20
1.46265
11
1.56588
21
1.4629
0
LINE
8
BLACK
6
CONTINUOUS
10
1.56588
20
1.4629
11
1.56577
21
1.46353
0
LINE
8
BLACK
6
CONTINUOUS
10
1.56577
20
1.46353
11
1.5655
21
1.46412
0
LINE
8
BLACK
6
CONTINUOUS
10
1.5655
20
1.46412
11
1.5656
21
1.4645
0
LINE
8
BLACK
6
CONTINUOUS
10
1.5656
20
1.4645
11
1.56553
21
1.46489
0
LINE
8
BLACK
6
CONTINUOUS
10
1.56553
20
1.46489
11
1.56585
21
1.46545
0
LINE
8
BLACK
6
CONTINUOUS
10
1.56585
20
1.46545
11
1.56602
21
1.46607
0
LINE
8
BLACK
6
CONTINUOUS
10
1.56602
20
1.46607
11
1.56635
21
1.4663
0
LINE
8
BLACK
6
CONTINUOUS
10
1.56635
20
1.4663
11
1.56654
21
1.46664
0
LINE
8
BLACK
6
CONTINUOUS
10
1.56654
20
1.46664
11
1.56715
21
1.46686
0
LINE
8
BLACK
6
CONTINUOUS
10
1.56715
20
1.46686
11
1.56768
21
1.46723
0
LINE
8
BLACK
6
CONTINUOUS
10
1.56768
20
1.46723
11
1.56807
21
1.46719
0
LINE
8
BLACK
6
CONTINUOUS
10
1.56807
20
1.46719
11
1.56844
21
1.46733
0
LINE
8
BLACK
6
CONTINUOUS
10
1.56844
20
1.46733
11
1.60781
21
1.46733
0
LINE
8
BLACK
6
CONTINUOUS
10
1.60781
20
1.46733
11
1.60882
21
1.46715
0
LINE
8
BLACK
6
CONTINUOUS
10
1.60132
20
1.50652
11
1.60146
21
1.50641
0
LINE
8
BLACK
6
CONTINUOUS
10
1.60146
20
1.50641
11
1.60163
21
1.50639
0
LINE
8
BLACK
6
CONTINUOUS
10
1.60163
20
1.50639
11
1.60538
21
1.50451
0
LINE
8
BLACK
6
CONTINUOUS
10
1.60538
20
1.50451
11
1.60609
21
1.50399
0
LINE
8
BLACK
6
CONTINUOUS
10
1.60609
20
1.50399
11
1.60615
21
1.50396
0
LINE
8
BLACK
6
CONTINUOUS
10
1.60615
20
1.50396
11
1.60802
21
1.50208
0
LINE
8
BLACK
6
CONTINUOUS
10
1.60802
20
1.50208
11
1.60853
21
1.50136
0
LINE
8
BLACK
6
CONTINUOUS
10
1.60853
20
1.50136
11
1.60858
21
1.50132
0
LINE
8
BLACK
6
CONTINUOUS
10
1.60858
20
1.50132
11
1.61045
21
1.49757
0
LINE
8
BLACK
6
CONTINUOUS
10
1.61045
20
1.49757
11
1.61074
21
1.49658
0
LINE
8
BLACK
6
CONTINUOUS
10
1.61074
20
1.49658
11
1.6107
21
1.49641
0
LINE
8
BLACK
6
CONTINUOUS
10
1.6107
20
1.49641
11
1.61076
21
1.49625
0
LINE
8
BLACK
6
CONTINUOUS
10
1.61076
20
1.49625
11
1.61076
21
1.48687
0
LINE
8
BLACK
6
CONTINUOUS
10
1.61076
20
1.48687
11
1.61058
21
1.48586
0
LINE
8
BLACK
6
CONTINUOUS
10
1.61058
20
1.48586
11
1.61047
21
1.48573
0
LINE
8
BLACK
6
CONTINUOUS
10
1.61047
20
1.48573
11
1.61045
21
1.48555
0
LINE
8
BLACK
6
CONTINUOUS
10
1.61045
20
1.48555
11
1.60858
21
1.4818
0
LINE
8
BLACK
6
CONTINUOUS
10
1.60858
20
1.4818
11
1.60805
21
1.48109
0
LINE
8
BLACK
6
CONTINUOUS
10
1.60805
20
1.48109
11
1.60802
21
1.48104
0
LINE
8
BLACK
6
CONTINUOUS
10
1.60802
20
1.48104
11
1.60615
21
1.47916
0
LINE
8
BLACK
6
CONTINUOUS
10
1.60615
20
1.47916
11
1.60531
21
1.47857
0
LINE
8
BLACK
6
CONTINUOUS
10
1.60531
20
1.47857
11
1.6033
21
1.4784
0
LINE
8
BLACK
6
CONTINUOUS
10
1.6033
20
1.4784
11
1.60164
21
1.47955
0
LINE
8
BLACK
6
CONTINUOUS
10
1.60164
20
1.47955
11
1.60112
21
1.48151
0
LINE
8
BLACK
6
CONTINUOUS
10
1.60112
20
1.48151
11
1.60197
21
1.48334
0
LINE
8
BLACK
6
CONTINUOUS
10
1.60197
20
1.48334
11
1.60351
21
1.48487
0
LINE
8
BLACK
6
CONTINUOUS
10
1.60351
20
1.48487
11
1.60486
21
1.48757
0
LINE
8
BLACK
6
CONTINUOUS
10
1.60486
20
1.48757
11
1.60486
21
1.49555
0
LINE
8
BLACK
6
CONTINUOUS
10
1.60486
20
1.49555
11
1.60351
21
1.49825
0
LINE
8
BLACK
6
CONTINUOUS
10
1.60351
20
1.49825
11
1.60231
21
1.49944
0
LINE
8
BLACK
6
CONTINUOUS
10
1.60231
20
1.49944
11
1.59961
21
1.50079
0
LINE
8
BLACK
6
CONTINUOUS
10
1.59961
20
1.50079
11
1.59163
21
1.50079
0
LINE
8
BLACK
6
CONTINUOUS
10
1.59163
20
1.50079
11
1.58894
21
1.49944
0
LINE
8
BLACK
6
CONTINUOUS
10
1.58894
20
1.49944
11
1.58774
21
1.49825
0
LINE
8
BLACK
6
CONTINUOUS
10
1.58774
20
1.49825
11
1.58639
21
1.49555
0
LINE
8
BLACK
6
CONTINUOUS
10
1.58639
20
1.49555
11
1.58639
21
1.48757
0
LINE
8
BLACK
6
CONTINUOUS
10
1.58639
20
1.48757
11
1.58774
21
1.48487
0
LINE
8
BLACK
6
CONTINUOUS
10
1.58774
20
1.48487
11
1.58928
21
1.48334
0
LINE
8
BLACK
6
CONTINUOUS
10
1.58928
20
1.48334
11
1.58986
21
1.4825
0
LINE
8
BLACK
6
CONTINUOUS
10
1.58986
20
1.4825
11
1.58987
21
1.48248
0
LINE
8
BLACK
6
CONTINUOUS
10
1.58987
20
1.48248
11
1.58988
21
1.48246
0
LINE
8
BLACK
6
CONTINUOUS
10
1.58988
20
1.48246
11
1.58995
21
1.48147
0
LINE
8
BLACK
6
CONTINUOUS
10
1.58995
20
1.48147
11
1.59004
21
1.48048
0
LINE
8
BLACK
6
CONTINUOUS
10
1.59004
20
1.48048
11
1.59003
21
1.48047
0
LINE
8
BLACK
6
CONTINUOUS
10
1.59003
20
1.48047
11
1.59003
21
1.48045
0
LINE
8
BLACK
6
CONTINUOUS
10
1.59003
20
1.48045
11
1.58945
21
1.47964
0
LINE
8
BLACK
6
CONTINUOUS
10
1.58945
20
1.47964
11
1.58888
21
1.47883
0
LINE
8
BLACK
6
CONTINUOUS
10
1.58888
20
1.47883
11
1.58886
21
1.47882
0
LINE
8
BLACK
6
CONTINUOUS
10
1.58886
20
1.47882
11
1.58885
21
1.47881
0
LINE
8
BLACK
6
CONTINUOUS
10
1.58885
20
1.47881
11
1.58789
21
1.47856
0
LINE
8
BLACK
6
CONTINUOUS
10
1.58789
20
1.47856
11
1.58693
21
1.47831
0
LINE
8
BLACK
6
CONTINUOUS
10
1.58693
20
1.47831
11
1.58691
21
1.47832
0
LINE
8
BLACK
6
CONTINUOUS
10
1.58691
20
1.47832
11
1.58689
21
1.47831
0
LINE
8
BLACK
6
CONTINUOUS
10
1.58689
20
1.47831
11
1.56815
21
1.48019
0
LINE
8
BLACK
6
CONTINUOUS
10
1.56815
20
1.48019
11
1.568
21
1.48023
0
LINE
8
BLACK
6
CONTINUOUS
10
1.568
20
1.48023
11
1.56793
21
1.48022
0
LINE
8
BLACK
6
CONTINUOUS
10
1.56793
20
1.48022
11
1.56782
21
1.48028
0
LINE
8
BLACK
6
CONTINUOUS
10
1.56782
20
1.48028
11
1.56716
21
1.48046
0
LINE
8
BLACK
6
CONTINUOUS
10
1.56716
20
1.48046
11
1.56672
21
1.48091
0
LINE
8
BLACK
6
CONTINUOUS
10
1.56672
20
1.48091
11
1.56618
21
1.48123
0
LINE
8
BLACK
6
CONTINUOUS
10
1.56618
20
1.48123
11
1.56604
21
1.48161
0
LINE
8
BLACK
6
CONTINUOUS
10
1.56604
20
1.48161
11
1.56575
21
1.48191
0
LINE
8
BLACK
6
CONTINUOUS
10
1.56575
20
1.48191
11
1.5657
21
1.48253
0
LINE
8
BLACK
6
CONTINUOUS
10
1.5657
20
1.48253
11
1.56549
21
1.48312
0
LINE
8
BLACK
6
CONTINUOUS
10
1.56549
20
1.48312
11
1.56549
21
1.50187
0
LINE
8
BLACK
6
CONTINUOUS
10
1.56549
20
1.50187
11
1.56567
21
1.50288
0
LINE
8
BLACK
6
CONTINUOUS
10
1.56567
20
1.50288
11
1.56696
21
1.50443
0
LINE
8
BLACK
6
CONTINUOUS
10
1.56696
20
1.50443
11
1.56895
21
1.50478
0
LINE
8
BLACK
6
CONTINUOUS
10
1.56895
20
1.50478
11
1.5707
21
1.50377
0
LINE
8
BLACK
6
CONTINUOUS
10
1.5707
20
1.50377
11
1.57139
21
1.50187
0
LINE
8
BLACK
6
CONTINUOUS
10
1.57139
20
1.50187
11
1.57139
21
1.4858
0
LINE
8
BLACK
6
CONTINUOUS
10
1.57139
20
1.4858
11
1.58116
21
1.48482
0
LINE
8
BLACK
6
CONTINUOUS
10
1.58116
20
1.48482
11
1.5808
21
1.48555
0
LINE
8
BLACK
6
CONTINUOUS
10
1.5808
20
1.48555
11
1.5805
21
1.48654
0
LINE
8
BLACK
6
CONTINUOUS
10
1.5805
20
1.48654
11
1.58055
21
1.48671
0
LINE
8
BLACK
6
CONTINUOUS
10
1.58055
20
1.48671
11
1.58049
21
1.48687
0
LINE
8
BLACK
6
CONTINUOUS
10
1.58049
20
1.48687
11
1.58049
21
1.49625
0
LINE
8
BLACK
6
CONTINUOUS
10
1.58049
20
1.49625
11
1.58066
21
1.49726
0
LINE
8
BLACK
6
CONTINUOUS
10
1.58066
20
1.49726
11
1.58078
21
1.49739
0
LINE
8
BLACK
6
CONTINUOUS
10
1.58078
20
1.49739
11
1.5808
21
1.49757
0
LINE
8
BLACK
6
CONTINUOUS
10
1.5808
20
1.49757
11
1.58267
21
1.50132
0
LINE
8
BLACK
6
CONTINUOUS
10
1.58267
20
1.50132
11
1.5832
21
1.50203
0
LINE
8
BLACK
6
CONTINUOUS
10
1.5832
20
1.50203
11
1.58323
21
1.50208
0
LINE
8
BLACK
6
CONTINUOUS
10
1.58323
20
1.50208
11
1.5851
21
1.50396
0
LINE
8
BLACK
6
CONTINUOUS
10
1.5851
20
1.50396
11
1.58582
21
1.50447
0
LINE
8
BLACK
6
CONTINUOUS
10
1.58582
20
1.50447
11
1.58587
21
1.50451
0
LINE
8
BLACK
6
CONTINUOUS
10
1.58587
20
1.50451
11
1.58962
21
1.50639
0
LINE
8
BLACK
6
CONTINUOUS
10
1.58962
20
1.50639
11
1.5906
21
1.50668
0
LINE
8
BLACK
6
CONTINUOUS
10
1.5906
20
1.50668
11
1.59077
21
1.50664
0
LINE
8
BLACK
6
CONTINUOUS
10
1.59077
20
1.50664
11
1.59094
21
1.5067
0
LINE
8
BLACK
6
CONTINUOUS
10
1.59094
20
1.5067
11
1.60031
21
1.5067
0
LINE
8
BLACK
6
CONTINUOUS
10
1.60031
20
1.5067
11
1.60132
21
1.50652
0
LINE
8
BLACK
6
CONTINUOUS
10
1.55818
20
1.66402
11
1.55832
21
1.66391
0
LINE
8
BLACK
6
CONTINUOUS
10
1.55832
20
1.66391
11
1.55849
21
1.66389
0
LINE
8
BLACK
6
CONTINUOUS
10
1.55849
20
1.66389
11
1.56224
21
1.66201
0
LINE
8
BLACK
6
CONTINUOUS
10
1.56224
20
1.66201
11
1.56295
21
1.66149
0
LINE
8
BLACK
6
CONTINUOUS
10
1.56295
20
1.66149
11
1.56301
21
1.66146
0
LINE
8
BLACK
6
CONTINUOUS
10
1.56301
20
1.66146
11
1.56489
21
1.65958
0
LINE
8
BLACK
6
CONTINUOUS
10
1.56489
20
1.65958
11
1.56539
21
1.65886
0
LINE
8
BLACK
6
CONTINUOUS
10
1.56539
20
1.65886
11
1.56544
21
1.65882
0
LINE
8
BLACK
6
CONTINUOUS
10
1.56544
20
1.65882
11
1.56731
21
1.65507
0
LINE
8
BLACK
6
CONTINUOUS
10
1.56731
20
1.65507
11
1.56746
21
1.65458
0
LINE
8
BLACK
6
CONTINUOUS
10
1.56746
20
1.65458
11
1.56754
21
1.65446
0
LINE
8
BLACK
6
CONTINUOUS
10
1.56754
20
1.65446
11
1.56941
21
1.64696
0
LINE
8
BLACK
6
CONTINUOUS
10
1.56941
20
1.64696
11
1.56945
21
1.64637
0
LINE
8
BLACK
6
CONTINUOUS
10
1.56945
20
1.64637
11
1.5695
21
1.64625
0
LINE
8
BLACK
6
CONTINUOUS
10
1.5695
20
1.64625
11
1.5695
21
1.63687
0
LINE
8
BLACK
6
CONTINUOUS
10
1.5695
20
1.63687
11
1.5694
21
1.63629
0
LINE
8
BLACK
6
CONTINUOUS
10
1.5694
20
1.63629
11
1.56941
21
1.63616
0
LINE
8
BLACK
6
CONTINUOUS
10
1.56941
20
1.63616
11
1.56754
21
1.62866
0
LINE
8
BLACK
6
CONTINUOUS
10
1.56754
20
1.62866
11
1.56733
21
1.62819
0
LINE
8
BLACK
6
CONTINUOUS
10
1.56733
20
1.62819
11
1.56731
21
1.62805
0
LINE
8
BLACK
6
CONTINUOUS
10
1.56731
20
1.62805
11
1.56544
21
1.6243
0
LINE
8
BLACK
6
CONTINUOUS
10
1.56544
20
1.6243
11
1.56491
21
1.62359
0
LINE
8
BLACK
6
CONTINUOUS
10
1.56491
20
1.62359
11
1.56489
21
1.62354
0
LINE
8
BLACK
6
CONTINUOUS
10
1.56489
20
1.62354
11
1.56301
21
1.62166
0
LINE
8
BLACK
6
CONTINUOUS
10
1.56301
20
1.62166
11
1.56229
21
1.62116
0
LINE
8
BLACK
6
CONTINUOUS
10
1.56229
20
1.62116
11
1.56224
21
1.62111
0
LINE
8
BLACK
6
CONTINUOUS
10
1.56224
20
1.62111
11
1.55849
21
1.61923
0
LINE
8
BLACK
6
CONTINUOUS
10
1.55849
20
1.61923
11
1.55751
21
1.61894
0
LINE
8
BLACK
6
CONTINUOUS
10
1.55751
20
1.61894
11
1.55734
21
1.61898
0
LINE
8
BLACK
6
CONTINUOUS
10
1.55734
20
1.61898
11
1.55717
21
1.61892
0
LINE
8
BLACK
6
CONTINUOUS
10
1.55717
20
1.61892
11
1.55342
21
1.61892
0
LINE
8
BLACK
6
CONTINUOUS
10
1.55342
20
1.61892
11
1.55241
21
1.6191
0
LINE
8
BLACK
6
CONTINUOUS
10
1.55241
20
1.6191
11
1.55228
21
1.61921
0
LINE
8
BLACK
6
CONTINUOUS
10
1.55228
20
1.61921
11
1.5521
21
1.61923
0
LINE
8
BLACK
6
CONTINUOUS
10
1.5521
20
1.61923
11
1.54835
21
1.62111
0
LINE
8
BLACK
6
CONTINUOUS
10
1.54835
20
1.62111
11
1.54764
21
1.62163
0
LINE
8
BLACK
6
CONTINUOUS
10
1.54764
20
1.62163
11
1.54759
21
1.62166
0
LINE
8
BLACK
6
CONTINUOUS
10
1.54759
20
1.62166
11
1.54571
21
1.62354
0
LINE
8
BLACK
6
CONTINUOUS
10
1.54571
20
1.62354
11
1.5452
21
1.62426
0
LINE
8
BLACK
6
CONTINUOUS
10
1.5452
20
1.62426
11
1.54516
21
1.6243
0
LINE
8
BLACK
6
CONTINUOUS
10
1.54516
20
1.6243
11
1.54328
21
1.62805
0
LINE
8
BLACK
6
CONTINUOUS
10
1.54328
20
1.62805
11
1.54314
21
1.62854
0
LINE
8
BLACK
6
CONTINUOUS
10
1.54314
20
1.62854
11
1.54306
21
1.62866
0
LINE
8
BLACK
6
CONTINUOUS
10
1.54306
20
1.62866
11
1.54118
21
1.63616
0
LINE
8
BLACK
6
CONTINUOUS
10
1.54118
20
1.63616
11
1.54114
21
1.63674
0
LINE
8
BLACK
6
CONTINUOUS
10
1.54114
20
1.63674
11
1.5411
21
1.63687
0
LINE
8
BLACK
6
CONTINUOUS
10
1.5411
20
1.63687
11
1.5411
21
1.64625
0
LINE
8
BLACK
6
CONTINUOUS
10
1.5411
20
1.64625
11
1.5412
21
1.64683
0
LINE
8
BLACK
6
CONTINUOUS
10
1.5412
20
1.64683
11
1.54118
21
1.64696
0
LINE
8
BLACK
6
CONTINUOUS
10
1.54118
20
1.64696
11
1.54306
21
1.65446
0
LINE
8
BLACK
6
CONTINUOUS
10
1.54306
20
1.65446
11
1.54327
21
1.65493
0
LINE
8
BLACK
6
CONTINUOUS
10
1.54327
20
1.65493
11
1.54328
21
1.65507
0
LINE
8
BLACK
6
CONTINUOUS
10
1.54328
20
1.65507
11
1.54516
21
1.65882
0
LINE
8
BLACK
6
CONTINUOUS
10
1.54516
20
1.65882
11
1.54568
21
1.65952
0
LINE
8
BLACK
6
CONTINUOUS
10
1.54568
20
1.65952
11
1.54571
21
1.65958
0
LINE
8
BLACK
6
CONTINUOUS
10
1.54571
20
1.65958
11
1.54759
21
1.66146
0
LINE
8
BLACK
6
CONTINUOUS
10
1.54759
20
1.66146
11
1.54831
21
1.66196
0
LINE
8
BLACK
6
CONTINUOUS
10
1.54831
20
1.66196
11
1.54835
21
1.66201
0
LINE
8
BLACK
6
CONTINUOUS
10
1.54835
20
1.66201
11
1.5521
21
1.66389
0
LINE
8
BLACK
6
CONTINUOUS
10
1.5521
20
1.66389
11
1.55309
21
1.66418
0
LINE
8
BLACK
6
CONTINUOUS
10
1.55309
20
1.66418
11
1.55326
21
1.66414
0
LINE
8
BLACK
6
CONTINUOUS
10
1.55326
20
1.66414
11
1.55342
21
1.6642
0
LINE
8
BLACK
6
CONTINUOUS
10
1.55342
20
1.6642
11
1.55717
21
1.6642
0
LINE
8
BLACK
6
CONTINUOUS
10
1.55717
20
1.6642
11
1.55818
21
1.66402
0
LINE
8
BLACK
6
CONTINUOUS
10
1.55412
20
1.65829
11
1.55142
21
1.65694
0
LINE
8
BLACK
6
CONTINUOUS
10
1.55142
20
1.65694
11
1.55023
21
1.65575
0
LINE
8
BLACK
6
CONTINUOUS
10
1.55023
20
1.65575
11
1.54871
21
1.65272
0
LINE
8
BLACK
6
CONTINUOUS
10
1.54871
20
1.65272
11
1.547
21
1.64588
0
LINE
8
BLACK
6
CONTINUOUS
10
1.547
20
1.64588
11
1.547
21
1.63724
0
LINE
8
BLACK
6
CONTINUOUS
10
1.547
20
1.63724
11
1.54871
21
1.6304
0
LINE
8
BLACK
6
CONTINUOUS
10
1.54871
20
1.6304
11
1.55023
21
1.62737
0
LINE
8
BLACK
6
CONTINUOUS
10
1.55023
20
1.62737
11
1.55142
21
1.62618
0
LINE
8
BLACK
6
CONTINUOUS
10
1.55142
20
1.62618
11
1.55412
21
1.62483
0
LINE
8
BLACK
6
CONTINUOUS
10
1.55412
20
1.62483
11
1.55648
21
1.62483
0
LINE
8
BLACK
6
CONTINUOUS
10
1.55648
20
1.62483
11
1.55917
21
1.62618
0
LINE
8
BLACK
6
CONTINUOUS
10
1.55917
20
1.62618
11
1.56037
21
1.62737
0
LINE
8
BLACK
6
CONTINUOUS
10
1.56037
20
1.62737
11
1.56189
21
1.6304
0
LINE
8
BLACK
6
CONTINUOUS
10
1.56189
20
1.6304
11
1.56359
21
1.63724
0
LINE
8
BLACK
6
CONTINUOUS
10
1.56359
20
1.63724
11
1.56359
21
1.64588
0
LINE
8
BLACK
6
CONTINUOUS
10
1.56359
20
1.64588
11
1.56189
21
1.65272
0
LINE
8
BLACK
6
CONTINUOUS
10
1.56189
20
1.65272
11
1.56037
21
1.65575
0
LINE
8
BLACK
6
CONTINUOUS
10
1.56037
20
1.65575
11
1.55917
21
1.65694
0
LINE
8
BLACK
6
CONTINUOUS
10
1.55917
20
1.65694
11
1.55648
21
1.65829
0
LINE
8
BLACK
6
CONTINUOUS
10
1.55648
20
1.65829
11
1.55412
21
1.65829
0
LINE
8
BLACK
6
CONTINUOUS
10
1.51815
20
1.66412
11
1.51832
21
1.66415
0
LINE
8
BLACK
6
CONTINUOUS
10
1.51832
20
1.66415
11
1.51906
21
1.66372
0
LINE
8
BLACK
6
CONTINUOUS
10
1.51906
20
1.66372
11
1.51984
21
1.66338
0
LINE
8
BLACK
6
CONTINUOUS
10
1.51984
20
1.66338
11
1.51992
21
1.66323
0
LINE
8
BLACK
6
CONTINUOUS
10
1.51992
20
1.66323
11
1.52006
21
1.66314
0
LINE
8
BLACK
6
CONTINUOUS
10
1.52006
20
1.66314
11
1.52036
21
1.66234
0
LINE
8
BLACK
6
CONTINUOUS
10
1.52036
20
1.66234
11
1.52074
21
1.66157
0
LINE
8
BLACK
6
CONTINUOUS
10
1.52074
20
1.66157
11
1.5207
21
1.6614
0
LINE
8
BLACK
6
CONTINUOUS
10
1.5207
20
1.6614
11
1.52076
21
1.66124
0
LINE
8
BLACK
6
CONTINUOUS
10
1.52076
20
1.66124
11
1.52076
21
1.62483
0
LINE
8
BLACK
6
CONTINUOUS
10
1.52076
20
1.62483
11
1.52905
21
1.62483
0
LINE
8
BLACK
6
CONTINUOUS
10
1.52905
20
1.62483
11
1.53006
21
1.62465
0
LINE
8
BLACK
6
CONTINUOUS
10
1.53006
20
1.62465
11
1.53161
21
1.62335
0
LINE
8
BLACK
6
CONTINUOUS
10
1.53161
20
1.62335
11
1.53196
21
1.62136
0
LINE
8
BLACK
6
CONTINUOUS
10
1.53196
20
1.62136
11
1.53095
21
1.61961
0
LINE
8
BLACK
6
CONTINUOUS
10
1.53095
20
1.61961
11
1.52905
21
1.61892
0
LINE
8
BLACK
6
CONTINUOUS
10
1.52905
20
1.61892
11
1.50655
21
1.61892
0
LINE
8
BLACK
6
CONTINUOUS
10
1.50655
20
1.61892
11
1.50554
21
1.6191
0
LINE
8
BLACK
6
CONTINUOUS
10
1.50554
20
1.6191
11
1.504
21
1.6204
0
LINE
8
BLACK
6
CONTINUOUS
10
1.504
20
1.6204
11
1.50365
21
1.62239
0
LINE
8
BLACK
6
CONTINUOUS
10
1.50365
20
1.62239
11
1.50466
21
1.62414
0
LINE
8
BLACK
6
CONTINUOUS
10
1.50466
20
1.62414
11
1.50655
21
1.62483
0
LINE
8
BLACK
6
CONTINUOUS
10
1.50655
20
1.62483
11
1.51485
21
1.62483
0
LINE
8
BLACK
6
CONTINUOUS
10
1.51485
20
1.62483
11
1.51485
21
1.65224
0
LINE
8
BLACK
6
CONTINUOUS
10
1.51485
20
1.65224
11
1.51239
21
1.64978
0
LINE
8
BLACK
6
CONTINUOUS
10
1.51239
20
1.64978
11
1.51167
21
1.64928
0
LINE
8
BLACK
6
CONTINUOUS
10
1.51167
20
1.64928
11
1.51162
21
1.64923
0
LINE
8
BLACK
6
CONTINUOUS
10
1.51162
20
1.64923
11
1.50787
21
1.64736
0
LINE
8
BLACK
6
CONTINUOUS
10
1.50787
20
1.64736
11
1.50689
21
1.64706
0
LINE
8
BLACK
6
CONTINUOUS
10
1.50689
20
1.64706
11
1.50493
21
1.64753
0
LINE
8
BLACK
6
CONTINUOUS
10
1.50493
20
1.64753
11
1.50372
21
1.64915
0
LINE
8
BLACK
6
CONTINUOUS
10
1.50372
20
1.64915
11
1.50384
21
1.65117
0
LINE
8
BLACK
6
CONTINUOUS
10
1.50384
20
1.65117
11
1.50523
21
1.65264
0
LINE
8
BLACK
6
CONTINUOUS
10
1.50523
20
1.65264
11
1.50855
21
1.6543
0
LINE
8
BLACK
6
CONTINUOUS
10
1.50855
20
1.6543
11
1.51176
21
1.6575
0
LINE
8
BLACK
6
CONTINUOUS
10
1.51176
20
1.6575
11
1.51535
21
1.66288
0
LINE
8
BLACK
6
CONTINUOUS
10
1.51535
20
1.66288
11
1.51605
21
1.66362
0
LINE
8
BLACK
6
CONTINUOUS
10
1.51605
20
1.66362
11
1.51622
21
1.66367
0
LINE
8
BLACK
6
CONTINUOUS
10
1.51622
20
1.66367
11
1.51633
21
1.6638
0
LINE
8
BLACK
6
CONTINUOUS
10
1.51633
20
1.6638
11
1.51717
21
1.66395
0
LINE
8
BLACK
6
CONTINUOUS
10
1.51717
20
1.66395
11
1.51799
21
1.66419
0
LINE
8
BLACK
6
CONTINUOUS
10
1.51799
20
1.66419
11
1.51815
21
1.66412
0
LINE
8
BLACK
6
CONTINUOUS
10
1.48507
20
1.66402
11
1.4852
21
1.66391
0
LINE
8
BLACK
6
CONTINUOUS
10
1.4852
20
1.66391
11
1.48538
21
1.66389
0
LINE
8
BLACK
6
CONTINUOUS
10
1.48538
20
1.66389
11
1.48913
21
1.66201
0
LINE
8
BLACK
6
CONTINUOUS
10
1.48913
20
1.66201
11
1.48984
21
1.66149
0
LINE
8
BLACK
6
CONTINUOUS
10
1.48984
20
1.66149
11
1.48989
21
1.66146
0
LINE
8
BLACK
6
CONTINUOUS
10
1.48989
20
1.66146
11
1.49177
21
1.65958
0
LINE
8
BLACK
6
CONTINUOUS
10
1.49177
20
1.65958
11
1.49228
21
1.65886
0
LINE
8
BLACK
6
CONTINUOUS
10
1.49228
20
1.65886
11
1.49232
21
1.65882
0
LINE
8
BLACK
6
CONTINUOUS
10
1.49232
20
1.65882
11
1.4942
21
1.65507
0
LINE
8
BLACK
6
CONTINUOUS
10
1.4942
20
1.65507
11
1.49449
21
1.65408
0
LINE
8
BLACK
6
CONTINUOUS
10
1.49449
20
1.65408
11
1.49445
21
1.65391
0
LINE
8
BLACK
6
CONTINUOUS
10
1.49445
20
1.65391
11
1.49451
21
1.65375
0
LINE
8
BLACK
6
CONTINUOUS
10
1.49451
20
1.65375
11
1.49451
21
1.65
0
LINE
8
BLACK
6
CONTINUOUS
10
1.49451
20
1.65
11
1.49436
21
1.64913
0
LINE
8
BLACK
6
CONTINUOUS
10
1.49436
20
1.64913
11
1.49436
21
1.64906
0
LINE
8
BLACK
6
CONTINUOUS
10
1.49436
20
1.64906
11
1.49248
21
1.64344
0
LINE
8
BLACK
6
CONTINUOUS
10
1.49248
20
1.64344
11
1.49199
21
1.64254
0
LINE
8
BLACK
6
CONTINUOUS
10
1.49199
20
1.64254
11
1.49184
21
1.64244
0
LINE
8
BLACK
6
CONTINUOUS
10
1.49184
20
1.64244
11
1.49177
21
1.64228
0
LINE
8
BLACK
6
CONTINUOUS
10
1.49177
20
1.64228
11
1.47431
21
1.62483
0
LINE
8
BLACK
6
CONTINUOUS
10
1.47431
20
1.62483
11
1.49156
21
1.62483
0
LINE
8
BLACK
6
CONTINUOUS
10
1.49156
20
1.62483
11
1.49257
21
1.62465
0
LINE
8
BLACK
6
CONTINUOUS
10
1.49257
20
1.62465
11
1.49411
21
1.62335
0
LINE
8
BLACK
6
CONTINUOUS
10
1.49411
20
1.62335
11
1.49446
21
1.62136
0
LINE
8
BLACK
6
CONTINUOUS
10
1.49446
20
1.62136
11
1.49345
21
1.61961
0
LINE
8
BLACK
6
CONTINUOUS
10
1.49345
20
1.61961
11
1.49156
21
1.61892
0
LINE
8
BLACK
6
CONTINUOUS
10
1.49156
20
1.61892
11
1.46718
21
1.61892
0
LINE
8
BLACK
6
CONTINUOUS
10
1.46718
20
1.61892
11
1.46655
21
1.61903
0
LINE
8
BLACK
6
CONTINUOUS
10
1.46655
20
1.61903
11
1.46642
21
1.61902
0
LINE
8
BLACK
6
CONTINUOUS
10
1.46642
20
1.61902
11
1.46635
21
1.61907
0
LINE
8
BLACK
6
CONTINUOUS
10
1.46635
20
1.61907
11
1.46617
21
1.6191
0
LINE
8
BLACK
6
CONTINUOUS
10
1.46617
20
1.6191
11
1.46549
21
1.61967
0
LINE
8
BLACK
6
CONTINUOUS
10
1.46549
20
1.61967
11
1.46477
21
1.62018
0
LINE
8
BLACK
6
CONTINUOUS
10
1.46477
20
1.62018
11
1.46473
21
1.62031
0
LINE
8
BLACK
6
CONTINUOUS
10
1.46473
20
1.62031
11
1.46463
21
1.6204
0
LINE
8
BLACK
6
CONTINUOUS
10
1.46463
20
1.6204
11
1.46447
21
1.62127
0
LINE
8
BLACK
6
CONTINUOUS
10
1.46447
20
1.62127
11
1.46424
21
1.62213
0
LINE
8
BLACK
6
CONTINUOUS
10
1.46424
20
1.62213
11
1.4643
21
1.62225
0
LINE
8
BLACK
6
CONTINUOUS
10
1.4643
20
1.62225
11
1.46428
21
1.62239
0
LINE
8
BLACK
6
CONTINUOUS
10
1.46428
20
1.62239
11
1.46472
21
1.62316
0
LINE
8
BLACK
6
CONTINUOUS
10
1.46472
20
1.62316
11
1.4651
21
1.62396
0
LINE
8
BLACK
6
CONTINUOUS
10
1.4651
20
1.62396
11
1.4871
21
1.64597
0
LINE
8
BLACK
6
CONTINUOUS
10
1.4871
20
1.64597
11
1.4886
21
1.65048
0
LINE
8
BLACK
6
CONTINUOUS
10
1.4886
20
1.65048
11
1.4886
21
1.65305
0
LINE
8
BLACK
6
CONTINUOUS
10
1.4886
20
1.65305
11
1.48725
21
1.65575
0
LINE
8
BLACK
6
CONTINUOUS
10
1.48725
20
1.65575
11
1.48606
21
1.65694
0
LINE
8
BLACK
6
CONTINUOUS
10
1.48606
20
1.65694
11
1.48336
21
1.65829
0
LINE
8
BLACK
6
CONTINUOUS
10
1.48336
20
1.65829
11
1.47538
21
1.65829
0
LINE
8
BLACK
6
CONTINUOUS
10
1.47538
20
1.65829
11
1.47268
21
1.65694
0
LINE
8
BLACK
6
CONTINUOUS
10
1.47268
20
1.65694
11
1.47115
21
1.65541
0
LINE
8
BLACK
6
CONTINUOUS
10
1.47115
20
1.65541
11
1.47031
21
1.65482
0
LINE
8
BLACK
6
CONTINUOUS
10
1.47031
20
1.65482
11
1.46829
21
1.65464
0
LINE
8
BLACK
6
CONTINUOUS
10
1.46829
20
1.65464
11
1.46664
21
1.6558
0
LINE
8
BLACK
6
CONTINUOUS
10
1.46664
20
1.6558
11
1.46612
21
1.65775
0
LINE
8
BLACK
6
CONTINUOUS
10
1.46612
20
1.65775
11
1.46697
21
1.65958
0
LINE
8
BLACK
6
CONTINUOUS
10
1.46697
20
1.65958
11
1.46885
21
1.66146
0
LINE
8
BLACK
6
CONTINUOUS
10
1.46885
20
1.66146
11
1.46957
21
1.66196
0
LINE
8
BLACK
6
CONTINUOUS
10
1.46957
20
1.66196
11
1.46961
21
1.66201
0
LINE
8
BLACK
6
CONTINUOUS
10
1.46961
20
1.66201
11
1.47336
21
1.66389
0
LINE
8
BLACK
6
CONTINUOUS
10
1.47336
20
1.66389
11
1.47435
21
1.66418
0
LINE
8
BLACK
6
CONTINUOUS
10
1.47435
20
1.66418
11
1.47452
21
1.66414
0
LINE
8
BLACK
6
CONTINUOUS
10
1.47452
20
1.66414
11
1.47468
21
1.6642
0
LINE
8
BLACK
6
CONTINUOUS
10
1.47468
20
1.6642
11
1.48406
21
1.6642
0
LINE
8
BLACK
6
CONTINUOUS
10
1.48406
20
1.6642
11
1.48507
21
1.66402
0
LINE
8
BLACK
6
CONTINUOUS
10
1.40056
20
1.66404
11
1.40063
21
1.66405
0
LINE
8
BLACK
6
CONTINUOUS
10
1.40063
20
1.66405
11
1.40625
21
1.66217
0
LINE
8
BLACK
6
CONTINUOUS
10
1.40625
20
1.66217
11
1.40715
21
1.66168
0
LINE
8
BLACK
6
CONTINUOUS
10
1.40715
20
1.66168
11
1.40821
21
1.65996
0
LINE
8
BLACK
6
CONTINUOUS
10
1.40821
20
1.65996
11
1.40791
21
1.65796
0
LINE
8
BLACK
6
CONTINUOUS
10
1.40791
20
1.65796
11
1.4064
21
1.65662
0
LINE
8
BLACK
6
CONTINUOUS
10
1.4064
20
1.65662
11
1.40438
21
1.65657
0
LINE
8
BLACK
6
CONTINUOUS
10
1.40438
20
1.65657
11
1.39921
21
1.65829
0
LINE
8
BLACK
6
CONTINUOUS
10
1.39921
20
1.65829
11
1.39102
21
1.65829
0
LINE
8
BLACK
6
CONTINUOUS
10
1.39102
20
1.65829
11
1.38832
21
1.65694
0
LINE
8
BLACK
6
CONTINUOUS
10
1.38832
20
1.65694
11
1.38712
21
1.65575
0
LINE
8
BLACK
6
CONTINUOUS
10
1.38712
20
1.65575
11
1.38577
21
1.65305
0
LINE
8
BLACK
6
CONTINUOUS
10
1.38577
20
1.65305
11
1.38577
21
1.65069
0
LINE
8
BLACK
6
CONTINUOUS
10
1.38577
20
1.65069
11
1.38712
21
1.648
0
LINE
8
BLACK
6
CONTINUOUS
10
1.38712
20
1.648
11
1.38832
21
1.6468
0
LINE
8
BLACK
6
CONTINUOUS
10
1.38832
20
1.6468
11
1.39135
21
1.64528
0
LINE
8
BLACK
6
CONTINUOUS
10
1.39135
20
1.64528
11
1.39853
21
1.64349
0
LINE
8
BLACK
6
CONTINUOUS
10
1.39853
20
1.64349
11
1.399
21
1.64328
0
LINE
8
BLACK
6
CONTINUOUS
10
1.399
20
1.64328
11
1.39914
21
1.64326
0
LINE
8
BLACK
6
CONTINUOUS
10
1.39914
20
1.64326
11
1.40289
21
1.64139
0
LINE
8
BLACK
6
CONTINUOUS
10
1.40289
20
1.64139
11
1.4036
21
1.64086
0
LINE
8
BLACK
6
CONTINUOUS
10
1.4036
20
1.64086
11
1.40366
21
1.64084
0
LINE
8
BLACK
6
CONTINUOUS
10
1.40366
20
1.64084
11
1.40553
21
1.63896
0
LINE
8
BLACK
6
CONTINUOUS
10
1.40553
20
1.63896
11
1.40604
21
1.63824
0
LINE
8
BLACK
6
CONTINUOUS
10
1.40604
20
1.63824
11
1.40608
21
1.63819
0
LINE
8
BLACK
6
CONTINUOUS
10
1.40608
20
1.63819
11
1.40796
21
1.63444
0
LINE
8
BLACK
6
CONTINUOUS
10
1.40796
20
1.63444
11
1.40825
21
1.63346
0
LINE
8
BLACK
6
CONTINUOUS
10
1.40825
20
1.63346
11
1.40821
21
1.63329
0
LINE
8
BLACK
6
CONTINUOUS
10
1.40821
20
1.63329
11
1.40827
21
1.63312
0
LINE
8
BLACK
6
CONTINUOUS
10
1.40827
20
1.63312
11
1.40827
21
1.62937
0
LINE
8
BLACK
6
CONTINUOUS
10
1.40827
20
1.62937
11
1.40809
21
1.62836
0
LINE
8
BLACK
6
CONTINUOUS
10
1.40809
20
1.62836
11
1.40798
21
1.62823
0
LINE
8
BLACK
6
CONTINUOUS
10
1.40798
20
1.62823
11
1.40796
21
1.62805
0
LINE
8
BLACK
6
CONTINUOUS
10
1.40796
20
1.62805
11
1.40608
21
1.6243
0
LINE
8
BLACK
6
CONTINUOUS
10
1.40608
20
1.6243
11
1.40556
21
1.62359
0
LINE
8
BLACK
6
CONTINUOUS
10
1.40556
20
1.62359
11
1.40553
21
1.62354
0
LINE
8
BLACK
6
CONTINUOUS
10
1.40553
20
1.62354
11
1.40366
21
1.62166
0
LINE
8
BLACK
6
CONTINUOUS
10
1.40366
20
1.62166
11
1.40293
21
1.62116
0
LINE
8
BLACK
6
CONTINUOUS
10
1.40293
20
1.62116
11
1.40289
21
1.62111
0
LINE
8
BLACK
6
CONTINUOUS
10
1.40289
20
1.62111
11
1.39914
21
1.61923
0
LINE
8
BLACK
6
CONTINUOUS
10
1.39914
20
1.61923
11
1.39816
21
1.61894
0
LINE
8
BLACK
6
CONTINUOUS
10
1.39816
20
1.61894
11
1.39798
21
1.61898
0
LINE
8
BLACK
6
CONTINUOUS
10
1.39798
20
1.61898
11
1.39782
21
1.61892
0
LINE
8
BLACK
6
CONTINUOUS
10
1.39782
20
1.61892
11
1.38844
21
1.61892
0
LINE
8
BLACK
6
CONTINUOUS
10
1.38844
20
1.61892
11
1.38757
21
1.61908
0
LINE
8
BLACK
6
CONTINUOUS
10
1.38757
20
1.61908
11
1.38751
21
1.61907
0
LINE
8
BLACK
6
CONTINUOUS
10
1.38751
20
1.61907
11
1.38189
21
1.62095
0
LINE
8
BLACK
6
CONTINUOUS
10
1.38189
20
1.62095
11
1.38098
21
1.62144
0
LINE
8
BLACK
6
CONTINUOUS
10
1.38098
20
1.62144
11
1.37993
21
1.62316
0
LINE
8
BLACK
6
CONTINUOUS
10
1.37993
20
1.62316
11
1.38022
21
1.62516
0
LINE
8
BLACK
6
CONTINUOUS
10
1.38022
20
1.62516
11
1.38173
21
1.6265
0
LINE
8
BLACK
6
CONTINUOUS
10
1.38173
20
1.6265
11
1.38375
21
1.62655
0
LINE
8
BLACK
6
CONTINUOUS
10
1.38375
20
1.62655
11
1.38892
21
1.62483
0
LINE
8
BLACK
6
CONTINUOUS
10
1.38892
20
1.62483
11
1.39712
21
1.62483
0
LINE
8
BLACK
6
CONTINUOUS
10
1.39712
20
1.62483
11
1.39982
21
1.62618
0
LINE
8
BLACK
6
CONTINUOUS
10
1.39982
20
1.62618
11
1.40102
21
1.62737
0
LINE
8
BLACK
6
CONTINUOUS
10
1.40102
20
1.62737
11
1.40236
21
1.63007
0
LINE
8
BLACK
6
CONTINUOUS
10
1.40236
20
1.63007
11
1.40236
21
1.63243
0
LINE
8
BLACK
6
CONTINUOUS
10
1.40236
20
1.63243
11
1.40102
21
1.63512
0
LINE
8
BLACK
6
CONTINUOUS
10
1.40102
20
1.63512
11
1.39982
21
1.63632
0
LINE
8
BLACK
6
CONTINUOUS
10
1.39982
20
1.63632
11
1.39679
21
1.63784
0
LINE
8
BLACK
6
CONTINUOUS
10
1.39679
20
1.63784
11
1.3896
21
1.63963
0
LINE
8
BLACK
6
CONTINUOUS
10
1.3896
20
1.63963
11
1.38914
21
1.63984
0
LINE
8
BLACK
6
CONTINUOUS
10
1.38914
20
1.63984
11
1.389
21
1.63986
0
LINE
8
BLACK
6
CONTINUOUS
10
1.389
20
1.63986
11
1.38525
21
1.64173
0
LINE
8
BLACK
6
CONTINUOUS
10
1.38525
20
1.64173
11
1.38454
21
1.64226
0
LINE
8
BLACK
6
CONTINUOUS
10
1.38454
20
1.64226
11
1.38448
21
1.64228
0
LINE
8
BLACK
6
CONTINUOUS
10
1.38448
20
1.64228
11
1.38261
21
1.64416
0
LINE
8
BLACK
6
CONTINUOUS
10
1.38261
20
1.64416
11
1.3821
21
1.64488
0
LINE
8
BLACK
6
CONTINUOUS
10
1.3821
20
1.64488
11
1.38205
21
1.64493
0
LINE
8
BLACK
6
CONTINUOUS
10
1.38205
20
1.64493
11
1.38018
21
1.64868
0
LINE
8
BLACK
6
CONTINUOUS
10
1.38018
20
1.64868
11
1.37989
21
1.64966
0
LINE
8
BLACK
6
CONTINUOUS
10
1.37989
20
1.64966
11
1.37993
21
1.64983
0
LINE
8
BLACK
6
CONTINUOUS
10
1.37993
20
1.64983
11
1.37987
21
1.65
0
LINE
8
BLACK
6
CONTINUOUS
10
1.37987
20
1.65
11
1.37987
21
1.65375
0
LINE
8
BLACK
6
CONTINUOUS
10
1.37987
20
1.65375
11
1.38004
21
1.65476
0
LINE
8
BLACK
6
CONTINUOUS
10
1.38004
20
1.65476
11
1.38016
21
1.65489
0
LINE
8
BLACK
6
CONTINUOUS
10
1.38016
20
1.65489
11
1.38018
21
1.65507
0
LINE
8
BLACK
6
CONTINUOUS
10
1.38018
20
1.65507
11
1.38205
21
1.65882
0
LINE
8
BLACK
6
CONTINUOUS
10
1.38205
20
1.65882
11
1.38258
21
1.65952
0
LINE
8
BLACK
6
CONTINUOUS
10
1.38258
20
1.65952
11
1.38261
21
1.65958
0
LINE
8
BLACK
6
CONTINUOUS
10
1.38261
20
1.65958
11
1.38448
21
1.66146
0
LINE
8
BLACK
6
CONTINUOUS
10
1.38448
20
1.66146
11
1.3852
21
1.66196
0
LINE
8
BLACK
6
CONTINUOUS
10
1.3852
20
1.66196
11
1.38525
21
1.66201
0
LINE
8
BLACK
6
CONTINUOUS
10
1.38525
20
1.66201
11
1.389
21
1.66389
0
LINE
8
BLACK
6
CONTINUOUS
10
1.389
20
1.66389
11
1.38998
21
1.66418
0
LINE
8
BLACK
6
CONTINUOUS
10
1.38998
20
1.66418
11
1.39015
21
1.66414
0
LINE
8
BLACK
6
CONTINUOUS
10
1.39015
20
1.66414
11
1.39032
21
1.6642
0
LINE
8
BLACK
6
CONTINUOUS
10
1.39032
20
1.6642
11
1.39969
21
1.6642
0
LINE
8
BLACK
6
CONTINUOUS
10
1.39969
20
1.6642
11
1.40056
21
1.66404
0
LINE
8
BLACK
6
CONTINUOUS
10
1.65192
20
1.66402
11
1.65347
21
1.66272
0
LINE
8
BLACK
6
CONTINUOUS
10
1.65347
20
1.66272
11
1.65382
21
1.66073
0
LINE
8
BLACK
6
CONTINUOUS
10
1.65382
20
1.66073
11
1.65281
21
1.65898
0
LINE
8
BLACK
6
CONTINUOUS
10
1.65281
20
1.65898
11
1.65091
21
1.65829
0
LINE
8
BLACK
6
CONTINUOUS
10
1.65091
20
1.65829
11
1.63512
21
1.65829
0
LINE
8
BLACK
6
CONTINUOUS
10
1.63512
20
1.65829
11
1.63512
21
1.64545
0
LINE
8
BLACK
6
CONTINUOUS
10
1.63512
20
1.64545
11
1.64529
21
1.64545
0
LINE
8
BLACK
6
CONTINUOUS
10
1.64529
20
1.64545
11
1.6463
21
1.64527
0
LINE
8
BLACK
6
CONTINUOUS
10
1.6463
20
1.64527
11
1.64784
21
1.64397
0
LINE
8
BLACK
6
CONTINUOUS
10
1.64784
20
1.64397
11
1.64819
21
1.64198
0
LINE
8
BLACK
6
CONTINUOUS
10
1.64819
20
1.64198
11
1.64718
21
1.64024
0
LINE
8
BLACK
6
CONTINUOUS
10
1.64718
20
1.64024
11
1.64529
21
1.63954
0
LINE
8
BLACK
6
CONTINUOUS
10
1.64529
20
1.63954
11
1.63512
21
1.63954
0
LINE
8
BLACK
6
CONTINUOUS
10
1.63512
20
1.63954
11
1.63512
21
1.62187
0
LINE
8
BLACK
6
CONTINUOUS
10
1.63512
20
1.62187
11
1.63494
21
1.62086
0
LINE
8
BLACK
6
CONTINUOUS
10
1.63494
20
1.62086
11
1.63364
21
1.61932
0
LINE
8
BLACK
6
CONTINUOUS
10
1.63364
20
1.61932
11
1.63165
21
1.61897
0
LINE
8
BLACK
6
CONTINUOUS
10
1.63165
20
1.61897
11
1.6299
21
1.61998
0
LINE
8
BLACK
6
CONTINUOUS
10
1.6299
20
1.61998
11
1.62921
21
1.62187
0
LINE
8
BLACK
6
CONTINUOUS
10
1.62921
20
1.62187
11
1.62921
21
1.66124
0
LINE
8
BLACK
6
CONTINUOUS
10
1.62921
20
1.66124
11
1.62928
21
1.66163
0
LINE
8
BLACK
6
CONTINUOUS
10
1.62928
20
1.66163
11
1.62926
21
1.66176
0
LINE
8
BLACK
6
CONTINUOUS
10
1.62926
20
1.66176
11
1.62932
21
1.66187
0
LINE
8
BLACK
6
CONTINUOUS
10
1.62932
20
1.66187
11
1.62939
21
1.66225
0
LINE
8
BLACK
6
CONTINUOUS
10
1.62939
20
1.66225
11
1.62988
21
1.66284
0
LINE
8
BLACK
6
CONTINUOUS
10
1.62988
20
1.66284
11
1.63027
21
1.66351
0
LINE
8
BLACK
6
CONTINUOUS
10
1.63027
20
1.66351
11
1.63052
21
1.6636
0
LINE
8
BLACK
6
CONTINUOUS
10
1.63052
20
1.6636
11
1.63069
21
1.6638
0
LINE
8
BLACK
6
CONTINUOUS
10
1.63069
20
1.6638
11
1.63144
21
1.66394
0
LINE
8
BLACK
6
CONTINUOUS
10
1.63144
20
1.66394
11
1.63216
21
1.6642
0
LINE
8
BLACK
6
CONTINUOUS
10
1.63216
20
1.6642
11
1.65091
21
1.6642
0
LINE
8
BLACK
6
CONTINUOUS
10
1.65091
20
1.6642
11
1.65192
21
1.66402
0
LINE
8
BLACK
6
CONTINUOUS
10
1.31946
20
1.66314
11
1.32016
21
1.66124
0
LINE
8
BLACK
6
CONTINUOUS
10
1.32016
20
1.66124
11
1.32016
21
1.62187
0
LINE
8
BLACK
6
CONTINUOUS
10
1.32016
20
1.62187
11
1.31998
21
1.62086
0
LINE
8
BLACK
6
CONTINUOUS
10
1.31998
20
1.62086
11
1.31868
21
1.61932
0
LINE
8
BLACK
6
CONTINUOUS
10
1.31868
20
1.61932
11
1.31669
21
1.61897
0
LINE
8
BLACK
6
CONTINUOUS
10
1.31669
20
1.61897
11
1.31494
21
1.61998
0
LINE
8
BLACK
6
CONTINUOUS
10
1.31494
20
1.61998
11
1.31425
21
1.62187
0
LINE
8
BLACK
6
CONTINUOUS
10
1.31425
20
1.62187
11
1.31425
21
1.66124
0
LINE
8
BLACK
6
CONTINUOUS
10
1.31425
20
1.66124
11
1.31443
21
1.66225
0
LINE
8
BLACK
6
CONTINUOUS
10
1.31443
20
1.66225
11
1.31573
21
1.6638
0
LINE
8
BLACK
6
CONTINUOUS
10
1.31573
20
1.6638
11
1.31772
21
1.66415
0
LINE
8
BLACK
6
CONTINUOUS
10
1.31772
20
1.66415
11
1.31946
21
1.66314
0
LINE
8
BLACK
6
CONTINUOUS
10
1.36696
20
1.63965
11
1.3685
21
1.63835
0
LINE
8
BLACK
6
CONTINUOUS
10
1.3685
20
1.63835
11
1.36885
21
1.63636
0
LINE
8
BLACK
6
CONTINUOUS
10
1.36885
20
1.63636
11
1.36784
21
1.63461
0
LINE
8
BLACK
6
CONTINUOUS
10
1.36784
20
1.63461
11
1.36595
21
1.63392
0
LINE
8
BLACK
6
CONTINUOUS
10
1.36595
20
1.63392
11
1.33595
21
1.63392
0
LINE
8
BLACK
6
CONTINUOUS
10
1.33595
20
1.63392
11
1.33494
21
1.6341
0
LINE
8
BLACK
6
CONTINUOUS
10
1.33494
20
1.6341
11
1.33339
21
1.6354
0
LINE
8
BLACK
6
CONTINUOUS
10
1.33339
20
1.6354
11
1.33304
21
1.63739
0
LINE
8
BLACK
6
CONTINUOUS
10
1.33304
20
1.63739
11
1.33405
21
1.63913
0
LINE
8
BLACK
6
CONTINUOUS
10
1.33405
20
1.63913
11
1.33595
21
1.63983
0
LINE
8
BLACK
6
CONTINUOUS
10
1.33595
20
1.63983
11
1.36595
21
1.63983
0
LINE
8
BLACK
6
CONTINUOUS
10
1.36595
20
1.63983
11
1.36696
21
1.63965
0
LINE
8
BLACK
6
CONTINUOUS
10
1.61443
20
1.63965
11
1.61597
21
1.63835
0
LINE
8
BLACK
6
CONTINUOUS
10
1.61597
20
1.63835
11
1.61632
21
1.63636
0
LINE
8
BLACK
6
CONTINUOUS
10
1.61632
20
1.63636
11
1.61531
21
1.63461
0
LINE
8
BLACK
6
CONTINUOUS
10
1.61531
20
1.63461
11
1.61342
21
1.63392
0
LINE
8
BLACK
6
CONTINUOUS
10
1.61342
20
1.63392
11
1.58342
21
1.63392
0
LINE
8
BLACK
6
CONTINUOUS
10
1.58342
20
1.63392
11
1.58241
21
1.6341
0
LINE
8
BLACK
6
CONTINUOUS
10
1.58241
20
1.6341
11
1.58086
21
1.6354
0
LINE
8
BLACK
6
CONTINUOUS
10
1.58086
20
1.6354
11
1.58051
21
1.63739
0
LINE
8
BLACK
6
CONTINUOUS
10
1.58051
20
1.63739
11
1.58152
21
1.63913
0
LINE
8
BLACK
6
CONTINUOUS
10
1.58152
20
1.63913
11
1.58342
21
1.63983
0
LINE
8
BLACK
6
CONTINUOUS
10
1.58342
20
1.63983
11
1.61342
21
1.63983
0
LINE
8
BLACK
6
CONTINUOUS
10
1.61342
20
1.63983
11
1.61443
21
1.63965
0
LINE
8
BLACK
6
CONTINUOUS
10
1.4532
20
1.63965
11
1.45474
21
1.63835
0
LINE
8
BLACK
6
CONTINUOUS
10
1.45474
20
1.63835
11
1.45509
21
1.63636
0
LINE
8
BLACK
6
CONTINUOUS
10
1.45509
20
1.63636
11
1.45408
21
1.63461
0
LINE
8
BLACK
6
CONTINUOUS
10
1.45408
20
1.63461
11
1.45219
21
1.63392
0
LINE
8
BLACK
6
CONTINUOUS
10
1.45219
20
1.63392
11
1.42219
21
1.63392
0
LINE
8
BLACK
6
CONTINUOUS
10
1.42219
20
1.63392
11
1.42118
21
1.6341
0
LINE
8
BLACK
6
CONTINUOUS
10
1.42118
20
1.6341
11
1.41963
21
1.6354
0
LINE
8
BLACK
6
CONTINUOUS
10
1.41963
20
1.6354
11
1.41928
21
1.63739
0
LINE
8
BLACK
6
CONTINUOUS
10
1.41928
20
1.63739
11
1.42029
21
1.63913
0
LINE
8
BLACK
6
CONTINUOUS
10
1.42029
20
1.63913
11
1.42219
21
1.63983
0
LINE
8
BLACK
6
CONTINUOUS
10
1.42219
20
1.63983
11
1.45219
21
1.63983
0
LINE
8
BLACK
6
CONTINUOUS
10
1.45219
20
1.63983
11
1.4532
21
1.63965
  0
ENDSEC
  0
EOF
