  0
SECTION
  2
HEADER
  9
$ANGBASE
  50
0.0
  9
$ANGDIR
  70
1
  9
$MEASUREMENT
  70
0
  0
ENDSEC
  0
SECTION
  2
TABLES
  0
TABLE
  2
LTYPE
  70
4
  0
LTYPE
  5
40F
  2
CONTINUOUS
  70
0
  3
Solid line
  72
65
  73
0
  40
0.0
  0
LTYPE
  5
410
  2
DASHDOT
 70
0
  3
Dash Dot ____ _ ____ _
 72
65
 73
4
 40
2.0
 49
1.25
 49
-0.25
 49
0.25
 49
-0.25
  0
LTYPE
  5
411
  2
DASHED
 70
0
  3
Dashed __ __ __ __ __
 72
65
 73
2
 40
0.75
 49
0.5
 49
-0.25
  0
LTYPE
  5
43B
  2
DOTTED
 70
0
  3
Dotted .  .  .  .
 72
65
 73
2
 40
0.2
 49
0.0
 49
-0.2
  0
ENDTAB
  0
TABLE
  2
STYLE
  70
4
  0
STYLE
  2
KICAD
  70
0
  40
0
  41
1
  42
1
  50
0
  71
0
  3
isocp.shx
  0
STYLE
  2
KICADB
  70
0
  40
0
  41
1
  42
1
  50
0
  71
0
  3
isocp.shx
  0
STYLE
  2
KICADI
  70
0
  40
0
  41
1
  42
1
  50
15
  71
0
  3
isocp.shx
  0
STYLE
  2
KICADBI
  70
0
  40
0
  41
1
  42
1
  50
15
  71
0
  3
isocp.shx
  0
ENDTAB
  0
TABLE
  2
LAYER
  70
1
  0
LAYER
  2
BLACK
  70
0
  62
7
  6
CONTINUOUS
  0
ENDTAB
  0
ENDSEC
  0
SECTION
  2
ENTITIES
0
LINE
8
BLACK
6
CONTINUOUS
10
0.478507
20
0.327012
11
0.478642
21
0.326898
0
LINE
8
BLACK
6
CONTINUOUS
10
0.478642
20
0.326898
11
0.478818
21
0.326878
0
LINE
8
BLACK
6
CONTINUOUS
10
0.478818
20
0.326878
11
0.482567
21
0.325003
0
LINE
8
BLACK
6
CONTINUOUS
10
0.482567
20
0.325003
11
0.483276
21
0.324477
0
LINE
8
BLACK
6
CONTINUOUS
10
0.483276
20
0.324477
11
0.483335
21
0.32445
0
LINE
8
BLACK
6
CONTINUOUS
10
0.483335
20
0.32445
11
0.485209
21
0.322575
0
LINE
8
BLACK
6
CONTINUOUS
10
0.485209
20
0.322575
11
0.485716
21
0.321852
0
LINE
8
BLACK
6
CONTINUOUS
10
0.485716
20
0.321852
11
0.485762
21
0.321808
0
LINE
8
BLACK
6
CONTINUOUS
10
0.485762
20
0.321808
11
0.487637
21
0.318058
0
LINE
8
BLACK
6
CONTINUOUS
10
0.487637
20
0.318058
11
0.48793
21
0.317076
0
LINE
8
BLACK
6
CONTINUOUS
10
0.48793
20
0.317076
11
0.487889
21
0.316904
0
LINE
8
BLACK
6
CONTINUOUS
10
0.487889
20
0.316904
11
0.487949
21
0.316738
0
LINE
8
BLACK
6
CONTINUOUS
10
0.487949
20
0.316738
11
0.487949
21
0.312988
0
LINE
8
BLACK
6
CONTINUOUS
10
0.487949
20
0.312988
11
0.487771
21
0.311978
0
LINE
8
BLACK
6
CONTINUOUS
10
0.487771
20
0.311978
11
0.487657
21
0.311843
0
LINE
8
BLACK
6
CONTINUOUS
10
0.487657
20
0.311843
11
0.487637
21
0.311668
0
LINE
8
BLACK
6
CONTINUOUS
10
0.487637
20
0.311668
11
0.485762
21
0.307918
0
LINE
8
BLACK
6
CONTINUOUS
10
0.485762
20
0.307918
11
0.485237
21
0.307209
0
LINE
8
BLACK
6
CONTINUOUS
10
0.485237
20
0.307209
11
0.485209
21
0.307151
0
LINE
8
BLACK
6
CONTINUOUS
10
0.485209
20
0.307151
11
0.484327
21
0.306269
0
LINE
8
BLACK
6
CONTINUOUS
10
0.484327
20
0.306269
11
0.484957
21
0.305928
0
LINE
8
BLACK
6
CONTINUOUS
10
0.484957
20
0.305928
11
0.485049
21
0.305777
0
LINE
8
BLACK
6
CONTINUOUS
10
0.485049
20
0.305777
11
0.485209
21
0.305702
0
LINE
8
BLACK
6
CONTINUOUS
10
0.485209
20
0.305702
11
0.487084
21
0.303828
0
LINE
8
BLACK
6
CONTINUOUS
10
0.487084
20
0.303828
11
0.48759
21
0.303105
0
LINE
8
BLACK
6
CONTINUOUS
10
0.48759
20
0.303105
11
0.487637
21
0.30306
0
LINE
8
BLACK
6
CONTINUOUS
10
0.487637
20
0.30306
11
0.489512
21
0.299311
0
LINE
8
BLACK
6
CONTINUOUS
10
0.489512
20
0.299311
11
0.489804
21
0.298328
0
LINE
8
BLACK
6
CONTINUOUS
10
0.489804
20
0.298328
11
0.489763
21
0.298156
0
LINE
8
BLACK
6
CONTINUOUS
10
0.489763
20
0.298156
11
0.489824
21
0.29799
0
LINE
8
BLACK
6
CONTINUOUS
10
0.489824
20
0.29799
11
0.489824
21
0.292366
0
LINE
8
BLACK
6
CONTINUOUS
10
0.489824
20
0.292366
11
0.489646
21
0.291356
0
LINE
8
BLACK
6
CONTINUOUS
10
0.489646
20
0.291356
11
0.489532
21
0.291221
0
LINE
8
BLACK
6
CONTINUOUS
10
0.489532
20
0.291221
11
0.489512
21
0.291045
0
LINE
8
BLACK
6
CONTINUOUS
10
0.489512
20
0.291045
11
0.487637
21
0.287296
0
LINE
8
BLACK
6
CONTINUOUS
10
0.487637
20
0.287296
11
0.487111
21
0.286587
0
LINE
8
BLACK
6
CONTINUOUS
10
0.487111
20
0.286587
11
0.487084
21
0.286529
0
LINE
8
BLACK
6
CONTINUOUS
10
0.487084
20
0.286529
11
0.485209
21
0.284654
0
LINE
8
BLACK
6
CONTINUOUS
10
0.485209
20
0.284654
11
0.484486
21
0.284147
0
LINE
8
BLACK
6
CONTINUOUS
10
0.484486
20
0.284147
11
0.484442
21
0.284101
0
LINE
8
BLACK
6
CONTINUOUS
10
0.484442
20
0.284101
11
0.480692
21
0.282226
0
LINE
8
BLACK
6
CONTINUOUS
10
0.480692
20
0.282226
11
0.479709
21
0.281934
0
LINE
8
BLACK
6
CONTINUOUS
10
0.479709
20
0.281934
11
0.479538
21
0.281975
0
LINE
8
BLACK
6
CONTINUOUS
10
0.479538
20
0.281975
11
0.479372
21
0.281914
0
LINE
8
BLACK
6
CONTINUOUS
10
0.479372
20
0.281914
11
0.464374
21
0.281914
0
LINE
8
BLACK
6
CONTINUOUS
10
0.464374
20
0.281914
11
0.46399
21
0.281982
0
LINE
8
BLACK
6
CONTINUOUS
10
0.46399
20
0.281982
11
0.463861
21
0.281959
0
LINE
8
BLACK
6
CONTINUOUS
10
0.463861
20
0.281959
11
0.463747
21
0.282025
0
LINE
8
BLACK
6
CONTINUOUS
10
0.463747
20
0.282025
11
0.463364
21
0.282092
0
LINE
8
BLACK
6
CONTINUOUS
10
0.463364
20
0.282092
11
0.462776
21
0.282585
0
LINE
8
BLACK
6
CONTINUOUS
10
0.462776
20
0.282585
11
0.462112
21
0.282969
0
LINE
8
BLACK
6
CONTINUOUS
10
0.462112
20
0.282969
11
0.462021
21
0.283219
0
LINE
8
BLACK
6
CONTINUOUS
10
0.462021
20
0.283219
11
0.461817
21
0.283391
0
LINE
8
BLACK
6
CONTINUOUS
10
0.461817
20
0.283391
11
0.461683
21
0.284146
0
LINE
8
BLACK
6
CONTINUOUS
10
0.461683
20
0.284146
11
0.461421
21
0.284867
0
LINE
8
BLACK
6
CONTINUOUS
10
0.461421
20
0.284867
11
0.461421
21
0.324237
0
LINE
8
BLACK
6
CONTINUOUS
10
0.461421
20
0.324237
11
0.461489
21
0.324621
0
LINE
8
BLACK
6
CONTINUOUS
10
0.461489
20
0.324621
11
0.461466
21
0.32475
0
LINE
8
BLACK
6
CONTINUOUS
10
0.461466
20
0.32475
11
0.461531
21
0.324863
0
LINE
8
BLACK
6
CONTINUOUS
10
0.461531
20
0.324863
11
0.461599
21
0.325247
0
LINE
8
BLACK
6
CONTINUOUS
10
0.461599
20
0.325247
11
0.462092
21
0.325835
0
LINE
8
BLACK
6
CONTINUOUS
10
0.462092
20
0.325835
11
0.462476
21
0.326499
0
LINE
8
BLACK
6
CONTINUOUS
10
0.462476
20
0.326499
11
0.462726
21
0.32659
0
LINE
8
BLACK
6
CONTINUOUS
10
0.462726
20
0.32659
11
0.462897
21
0.326794
0
LINE
8
BLACK
6
CONTINUOUS
10
0.462897
20
0.326794
11
0.463653
21
0.326927
0
LINE
8
BLACK
6
CONTINUOUS
10
0.463653
20
0.326927
11
0.464374
21
0.32719
0
LINE
8
BLACK
6
CONTINUOUS
10
0.464374
20
0.32719
11
0.477497
21
0.32719
0
LINE
8
BLACK
6
CONTINUOUS
10
0.477497
20
0.32719
11
0.478507
21
0.327012
0
LINE
8
BLACK
6
CONTINUOUS
10
0.467327
20
0.302537
11
0.467327
21
0.28782
0
LINE
8
BLACK
6
CONTINUOUS
10
0.467327
20
0.28782
11
0.478675
21
0.28782
0
LINE
8
BLACK
6
CONTINUOUS
10
0.478675
20
0.28782
11
0.481372
21
0.289168
0
LINE
8
BLACK
6
CONTINUOUS
10
0.481372
20
0.289168
11
0.482569
21
0.290366
0
LINE
8
BLACK
6
CONTINUOUS
10
0.482569
20
0.290366
11
0.483918
21
0.293063
0
LINE
8
BLACK
6
CONTINUOUS
10
0.483918
20
0.293063
11
0.483918
21
0.297293
0
LINE
8
BLACK
6
CONTINUOUS
10
0.483918
20
0.297293
11
0.482569
21
0.299991
0
LINE
8
BLACK
6
CONTINUOUS
10
0.482569
20
0.299991
11
0.481526
21
0.301034
0
LINE
8
BLACK
6
CONTINUOUS
10
0.481526
20
0.301034
11
0.477018
21
0.302537
0
LINE
8
BLACK
6
CONTINUOUS
10
0.477018
20
0.302537
11
0.467327
21
0.302537
0
LINE
8
BLACK
6
CONTINUOUS
10
0.467327
20
0.321284
11
0.467327
21
0.308442
0
LINE
8
BLACK
6
CONTINUOUS
10
0.467327
20
0.308442
11
0.4768
21
0.308442
0
LINE
8
BLACK
6
CONTINUOUS
10
0.4768
20
0.308442
11
0.479498
21
0.309791
0
LINE
8
BLACK
6
CONTINUOUS
10
0.479498
20
0.309791
11
0.480695
21
0.310988
0
LINE
8
BLACK
6
CONTINUOUS
10
0.480695
20
0.310988
11
0.482043
21
0.313685
0
LINE
8
BLACK
6
CONTINUOUS
10
0.482043
20
0.313685
11
0.482043
21
0.316041
0
LINE
8
BLACK
6
CONTINUOUS
10
0.482043
20
0.316041
11
0.480695
21
0.318738
0
LINE
8
BLACK
6
CONTINUOUS
10
0.480695
20
0.318738
11
0.479498
21
0.319935
0
LINE
8
BLACK
6
CONTINUOUS
10
0.479498
20
0.319935
11
0.4768
21
0.321284
0
LINE
8
BLACK
6
CONTINUOUS
10
0.4768
20
0.321284
11
0.467327
21
0.321284
0
LINE
8
BLACK
6
CONTINUOUS
10
0.752223
20
0.327012
11
0.752358
21
0.326898
0
LINE
8
BLACK
6
CONTINUOUS
10
0.752358
20
0.326898
11
0.752534
21
0.326878
0
LINE
8
BLACK
6
CONTINUOUS
10
0.752534
20
0.326878
11
0.756283
21
0.325003
0
LINE
8
BLACK
6
CONTINUOUS
10
0.756283
20
0.325003
11
0.756992
21
0.324477
0
LINE
8
BLACK
6
CONTINUOUS
10
0.756992
20
0.324477
11
0.75705
21
0.32445
0
LINE
8
BLACK
6
CONTINUOUS
10
0.75705
20
0.32445
11
0.758925
21
0.322575
0
LINE
8
BLACK
6
CONTINUOUS
10
0.758925
20
0.322575
11
0.759431
21
0.321852
0
LINE
8
BLACK
6
CONTINUOUS
10
0.759431
20
0.321852
11
0.759478
21
0.321808
0
LINE
8
BLACK
6
CONTINUOUS
10
0.759478
20
0.321808
11
0.761353
21
0.318058
0
LINE
8
BLACK
6
CONTINUOUS
10
0.761353
20
0.318058
11
0.761498
21
0.31757
0
LINE
8
BLACK
6
CONTINUOUS
10
0.761498
20
0.31757
11
0.761577
21
0.317454
0
LINE
8
BLACK
6
CONTINUOUS
10
0.761577
20
0.317454
11
0.763451
21
0.309955
0
LINE
8
BLACK
6
CONTINUOUS
10
0.763451
20
0.309955
11
0.763493
21
0.309367
0
LINE
8
BLACK
6
CONTINUOUS
10
0.763493
20
0.309367
11
0.76354
21
0.309239
0
LINE
8
BLACK
6
CONTINUOUS
10
0.76354
20
0.309239
11
0.76354
21
0.299865
0
LINE
8
BLACK
6
CONTINUOUS
10
0.76354
20
0.299865
11
0.763437
21
0.299285
0
LINE
8
BLACK
6
CONTINUOUS
10
0.763437
20
0.299285
11
0.763451
21
0.299149
0
LINE
8
BLACK
6
CONTINUOUS
10
0.763451
20
0.299149
11
0.761577
21
0.29165
0
LINE
8
BLACK
6
CONTINUOUS
10
0.761577
20
0.29165
11
0.761369
21
0.291184
0
LINE
8
BLACK
6
CONTINUOUS
10
0.761369
20
0.291184
11
0.761353
21
0.291045
0
LINE
8
BLACK
6
CONTINUOUS
10
0.761353
20
0.291045
11
0.759478
21
0.287296
0
LINE
8
BLACK
6
CONTINUOUS
10
0.759478
20
0.287296
11
0.758952
21
0.286587
0
LINE
8
BLACK
6
CONTINUOUS
10
0.758952
20
0.286587
11
0.758925
21
0.286529
0
LINE
8
BLACK
6
CONTINUOUS
10
0.758925
20
0.286529
11
0.75705
21
0.284654
0
LINE
8
BLACK
6
CONTINUOUS
10
0.75705
20
0.284654
11
0.756327
21
0.284147
0
LINE
8
BLACK
6
CONTINUOUS
10
0.756327
20
0.284147
11
0.756283
21
0.284101
0
LINE
8
BLACK
6
CONTINUOUS
10
0.756283
20
0.284101
11
0.752533
21
0.282226
0
LINE
8
BLACK
6
CONTINUOUS
10
0.752533
20
0.282226
11
0.751551
21
0.281934
0
LINE
8
BLACK
6
CONTINUOUS
10
0.751551
20
0.281934
11
0.751379
21
0.281975
0
LINE
8
BLACK
6
CONTINUOUS
10
0.751379
20
0.281975
11
0.751213
21
0.281914
0
LINE
8
BLACK
6
CONTINUOUS
10
0.751213
20
0.281914
11
0.747463
21
0.281914
0
LINE
8
BLACK
6
CONTINUOUS
10
0.747463
20
0.281914
11
0.746454
21
0.282092
0
LINE
8
BLACK
6
CONTINUOUS
10
0.746454
20
0.282092
11
0.746318
21
0.282206
0
LINE
8
BLACK
6
CONTINUOUS
10
0.746318
20
0.282206
11
0.746143
21
0.282226
0
LINE
8
BLACK
6
CONTINUOUS
10
0.746143
20
0.282226
11
0.742393
21
0.284101
0
LINE
8
BLACK
6
CONTINUOUS
10
0.742393
20
0.284101
11
0.741684
21
0.284627
0
LINE
8
BLACK
6
CONTINUOUS
10
0.741684
20
0.284627
11
0.741626
21
0.284654
0
LINE
8
BLACK
6
CONTINUOUS
10
0.741626
20
0.284654
11
0.739751
21
0.286529
0
LINE
8
BLACK
6
CONTINUOUS
10
0.739751
20
0.286529
11
0.739245
21
0.287252
0
LINE
8
BLACK
6
CONTINUOUS
10
0.739245
20
0.287252
11
0.739198
21
0.287296
0
LINE
8
BLACK
6
CONTINUOUS
10
0.739198
20
0.287296
11
0.737323
21
0.291045
0
LINE
8
BLACK
6
CONTINUOUS
10
0.737323
20
0.291045
11
0.737178
21
0.291534
0
LINE
8
BLACK
6
CONTINUOUS
10
0.737178
20
0.291534
11
0.7371
21
0.29165
0
LINE
8
BLACK
6
CONTINUOUS
10
0.7371
20
0.29165
11
0.735225
21
0.299149
0
LINE
8
BLACK
6
CONTINUOUS
10
0.735225
20
0.299149
11
0.735184
21
0.299737
0
LINE
8
BLACK
6
CONTINUOUS
10
0.735184
20
0.299737
11
0.735137
21
0.299865
0
LINE
8
BLACK
6
CONTINUOUS
10
0.735137
20
0.299865
11
0.735137
21
0.309239
0
LINE
8
BLACK
6
CONTINUOUS
10
0.735137
20
0.309239
11
0.735239
21
0.309819
0
LINE
8
BLACK
6
CONTINUOUS
10
0.735239
20
0.309819
11
0.735225
21
0.309955
0
LINE
8
BLACK
6
CONTINUOUS
10
0.735225
20
0.309955
11
0.7371
21
0.317454
0
LINE
8
BLACK
6
CONTINUOUS
10
0.7371
20
0.317454
11
0.737307
21
0.31792
0
LINE
8
BLACK
6
CONTINUOUS
10
0.737307
20
0.31792
11
0.737323
21
0.318058
0
LINE
8
BLACK
6
CONTINUOUS
10
0.737323
20
0.318058
11
0.739198
21
0.321808
0
LINE
8
BLACK
6
CONTINUOUS
10
0.739198
20
0.321808
11
0.739724
21
0.322517
0
LINE
8
BLACK
6
CONTINUOUS
10
0.739724
20
0.322517
11
0.739751
21
0.322575
0
LINE
8
BLACK
6
CONTINUOUS
10
0.739751
20
0.322575
11
0.741626
21
0.32445
0
LINE
8
BLACK
6
CONTINUOUS
10
0.741626
20
0.32445
11
0.742349
21
0.324956
0
LINE
8
BLACK
6
CONTINUOUS
10
0.742349
20
0.324956
11
0.742393
21
0.325003
0
LINE
8
BLACK
6
CONTINUOUS
10
0.742393
20
0.325003
11
0.746143
21
0.326878
0
LINE
8
BLACK
6
CONTINUOUS
10
0.746143
20
0.326878
11
0.747126
21
0.32717
0
LINE
8
BLACK
6
CONTINUOUS
10
0.747126
20
0.32717
11
0.747298
21
0.327129
0
LINE
8
BLACK
6
CONTINUOUS
10
0.747298
20
0.327129
11
0.747463
21
0.32719
0
LINE
8
BLACK
6
CONTINUOUS
10
0.747463
20
0.32719
11
0.751213
21
0.32719
0
LINE
8
BLACK
6
CONTINUOUS
10
0.751213
20
0.32719
11
0.752223
21
0.327012
0
LINE
8
BLACK
6
CONTINUOUS
10
0.748161
20
0.321284
11
0.745463
21
0.319935
0
LINE
8
BLACK
6
CONTINUOUS
10
0.745463
20
0.319935
11
0.744266
21
0.318738
0
LINE
8
BLACK
6
CONTINUOUS
10
0.744266
20
0.318738
11
0.74275
21
0.315707
0
LINE
8
BLACK
6
CONTINUOUS
10
0.74275
20
0.315707
11
0.741042
21
0.308875
0
LINE
8
BLACK
6
CONTINUOUS
10
0.741042
20
0.308875
11
0.741042
21
0.300229
0
LINE
8
BLACK
6
CONTINUOUS
10
0.741042
20
0.300229
11
0.74275
21
0.293397
0
LINE
8
BLACK
6
CONTINUOUS
10
0.74275
20
0.293397
11
0.744266
21
0.290366
0
LINE
8
BLACK
6
CONTINUOUS
10
0.744266
20
0.290366
11
0.745463
21
0.289168
0
LINE
8
BLACK
6
CONTINUOUS
10
0.745463
20
0.289168
11
0.74816
21
0.28782
0
LINE
8
BLACK
6
CONTINUOUS
10
0.74816
20
0.28782
11
0.750516
21
0.28782
0
LINE
8
BLACK
6
CONTINUOUS
10
0.750516
20
0.28782
11
0.753213
21
0.289168
0
LINE
8
BLACK
6
CONTINUOUS
10
0.753213
20
0.289168
11
0.754411
21
0.290366
0
LINE
8
BLACK
6
CONTINUOUS
10
0.754411
20
0.290366
11
0.755926
21
0.293397
0
LINE
8
BLACK
6
CONTINUOUS
10
0.755926
20
0.293397
11
0.757634
21
0.300229
0
LINE
8
BLACK
6
CONTINUOUS
10
0.757634
20
0.300229
11
0.757634
21
0.308875
0
LINE
8
BLACK
6
CONTINUOUS
10
0.757634
20
0.308875
11
0.755926
21
0.315707
0
LINE
8
BLACK
6
CONTINUOUS
10
0.755926
20
0.315707
11
0.754411
21
0.318738
0
LINE
8
BLACK
6
CONTINUOUS
10
0.754411
20
0.318738
11
0.753213
21
0.319935
0
LINE
8
BLACK
6
CONTINUOUS
10
0.753213
20
0.319935
11
0.750516
21
0.321284
0
LINE
8
BLACK
6
CONTINUOUS
10
0.750516
20
0.321284
11
0.748161
21
0.321284
0
LINE
8
BLACK
6
CONTINUOUS
10
0.716602
20
0.327012
11
0.716738
21
0.326898
0
LINE
8
BLACK
6
CONTINUOUS
10
0.716738
20
0.326898
11
0.716913
21
0.326878
0
LINE
8
BLACK
6
CONTINUOUS
10
0.716913
20
0.326878
11
0.720662
21
0.325003
0
LINE
8
BLACK
6
CONTINUOUS
10
0.720662
20
0.325003
11
0.721371
21
0.324477
0
LINE
8
BLACK
6
CONTINUOUS
10
0.721371
20
0.324477
11
0.72143
21
0.32445
0
LINE
8
BLACK
6
CONTINUOUS
10
0.72143
20
0.32445
11
0.723305
21
0.322575
0
LINE
8
BLACK
6
CONTINUOUS
10
0.723305
20
0.322575
11
0.723811
21
0.321852
0
LINE
8
BLACK
6
CONTINUOUS
10
0.723811
20
0.321852
11
0.723858
21
0.321808
0
LINE
8
BLACK
6
CONTINUOUS
10
0.723858
20
0.321808
11
0.725732
21
0.318058
0
LINE
8
BLACK
6
CONTINUOUS
10
0.725732
20
0.318058
11
0.726025
21
0.317076
0
LINE
8
BLACK
6
CONTINUOUS
10
0.726025
20
0.317076
11
0.725984
21
0.316904
0
LINE
8
BLACK
6
CONTINUOUS
10
0.725984
20
0.316904
11
0.726044
21
0.316738
0
LINE
8
BLACK
6
CONTINUOUS
10
0.726044
20
0.316738
11
0.726044
21
0.312988
0
LINE
8
BLACK
6
CONTINUOUS
10
0.726044
20
0.312988
11
0.725891
21
0.312119
0
LINE
8
BLACK
6
CONTINUOUS
10
0.725891
20
0.312119
11
0.725893
21
0.312055
0
LINE
8
BLACK
6
CONTINUOUS
10
0.725893
20
0.312055
11
0.724018
21
0.30643
0
LINE
8
BLACK
6
CONTINUOUS
10
0.724018
20
0.30643
11
0.72353
21
0.305529
0
LINE
8
BLACK
6
CONTINUOUS
10
0.72353
20
0.305529
11
0.723379
21
0.305436
0
LINE
8
BLACK
6
CONTINUOUS
10
0.723379
20
0.305436
11
0.723305
21
0.305276
0
LINE
8
BLACK
6
CONTINUOUS
10
0.723305
20
0.305276
11
0.705848
21
0.28782
0
LINE
8
BLACK
6
CONTINUOUS
10
0.705848
20
0.28782
11
0.723091
21
0.28782
0
LINE
8
BLACK
6
CONTINUOUS
10
0.723091
20
0.28782
11
0.724101
21
0.287642
0
LINE
8
BLACK
6
CONTINUOUS
10
0.724101
20
0.287642
11
0.725649
21
0.286343
0
LINE
8
BLACK
6
CONTINUOUS
10
0.725649
20
0.286343
11
0.725999
21
0.284354
0
LINE
8
BLACK
6
CONTINUOUS
10
0.725999
20
0.284354
11
0.724989
21
0.282605
0
LINE
8
BLACK
6
CONTINUOUS
10
0.724989
20
0.282605
11
0.723091
21
0.281914
0
LINE
8
BLACK
6
CONTINUOUS
10
0.723091
20
0.281914
11
0.69872
21
0.281914
0
LINE
8
BLACK
6
CONTINUOUS
10
0.69872
20
0.281914
11
0.698085
21
0.282026
0
LINE
8
BLACK
6
CONTINUOUS
10
0.698085
20
0.282026
11
0.697955
21
0.282015
0
LINE
8
BLACK
6
CONTINUOUS
10
0.697955
20
0.282015
11
0.69789
21
0.28206
0
LINE
8
BLACK
6
CONTINUOUS
10
0.69789
20
0.28206
11
0.69771
21
0.282092
0
LINE
8
BLACK
6
CONTINUOUS
10
0.69771
20
0.282092
11
0.697029
21
0.282664
0
LINE
8
BLACK
6
CONTINUOUS
10
0.697029
20
0.282664
11
0.696301
21
0.283173
0
LINE
8
BLACK
6
CONTINUOUS
10
0.696301
20
0.283173
11
0.696266
21
0.283304
0
LINE
8
BLACK
6
CONTINUOUS
10
0.696266
20
0.283304
11
0.696162
21
0.283391
0
LINE
8
BLACK
6
CONTINUOUS
10
0.696162
20
0.283391
11
0.696008
21
0.284266
0
LINE
8
BLACK
6
CONTINUOUS
10
0.696008
20
0.284266
11
0.695778
21
0.285124
0
LINE
8
BLACK
6
CONTINUOUS
10
0.695778
20
0.285124
11
0.695835
21
0.285247
0
LINE
8
BLACK
6
CONTINUOUS
10
0.695835
20
0.285247
11
0.695812
21
0.28538
0
LINE
8
BLACK
6
CONTINUOUS
10
0.695812
20
0.28538
11
0.696256
21
0.28615
0
LINE
8
BLACK
6
CONTINUOUS
10
0.696256
20
0.28615
11
0.696632
21
0.286955
0
LINE
8
BLACK
6
CONTINUOUS
10
0.696632
20
0.286955
11
0.718636
21
0.308959
0
LINE
8
BLACK
6
CONTINUOUS
10
0.718636
20
0.308959
11
0.720139
21
0.313468
0
LINE
8
BLACK
6
CONTINUOUS
10
0.720139
20
0.313468
11
0.720139
21
0.316041
0
LINE
8
BLACK
6
CONTINUOUS
10
0.720139
20
0.316041
11
0.71879
21
0.318738
0
LINE
8
BLACK
6
CONTINUOUS
10
0.71879
20
0.318738
11
0.717593
21
0.319935
0
LINE
8
BLACK
6
CONTINUOUS
10
0.717593
20
0.319935
11
0.714895
21
0.321284
0
LINE
8
BLACK
6
CONTINUOUS
10
0.714895
20
0.321284
11
0.706916
21
0.321284
0
LINE
8
BLACK
6
CONTINUOUS
10
0.706916
20
0.321284
11
0.704218
21
0.319935
0
LINE
8
BLACK
6
CONTINUOUS
10
0.704218
20
0.319935
11
0.702682
21
0.3184
0
LINE
8
BLACK
6
CONTINUOUS
10
0.702682
20
0.3184
11
0.701842
21
0.317811
0
LINE
8
BLACK
6
CONTINUOUS
10
0.701842
20
0.317811
11
0.69983
21
0.317635
0
LINE
8
BLACK
6
CONTINUOUS
10
0.69983
20
0.317635
11
0.698176
21
0.318794
0
LINE
8
BLACK
6
CONTINUOUS
10
0.698176
20
0.318794
11
0.697653
21
0.320745
0
LINE
8
BLACK
6
CONTINUOUS
10
0.697653
20
0.320745
11
0.698506
21
0.322575
0
LINE
8
BLACK
6
CONTINUOUS
10
0.698506
20
0.322575
11
0.700381
21
0.32445
0
LINE
8
BLACK
6
CONTINUOUS
10
0.700381
20
0.32445
11
0.701104
21
0.324956
0
LINE
8
BLACK
6
CONTINUOUS
10
0.701104
20
0.324956
11
0.701149
21
0.325003
0
LINE
8
BLACK
6
CONTINUOUS
10
0.701149
20
0.325003
11
0.704898
21
0.326878
0
LINE
8
BLACK
6
CONTINUOUS
10
0.704898
20
0.326878
11
0.705881
21
0.32717
0
LINE
8
BLACK
6
CONTINUOUS
10
0.705881
20
0.32717
11
0.706053
21
0.327129
0
LINE
8
BLACK
6
CONTINUOUS
10
0.706053
20
0.327129
11
0.706219
21
0.32719
0
LINE
8
BLACK
6
CONTINUOUS
10
0.706219
20
0.32719
11
0.715592
21
0.32719
0
LINE
8
BLACK
6
CONTINUOUS
10
0.715592
20
0.32719
11
0.716602
21
0.327012
0
LINE
8
BLACK
6
CONTINUOUS
10
0.632097
20
0.327036
11
0.632162
21
0.327038
0
LINE
8
BLACK
6
CONTINUOUS
10
0.632162
20
0.327038
11
0.637786
21
0.325163
0
LINE
8
BLACK
6
CONTINUOUS
10
0.637786
20
0.325163
11
0.638688
21
0.324675
0
LINE
8
BLACK
6
CONTINUOUS
10
0.638688
20
0.324675
11
0.639745
21
0.322954
0
LINE
8
BLACK
6
CONTINUOUS
10
0.639745
20
0.322954
11
0.639449
21
0.320956
0
LINE
8
BLACK
6
CONTINUOUS
10
0.639449
20
0.320956
11
0.637938
21
0.319616
0
LINE
8
BLACK
6
CONTINUOUS
10
0.637938
20
0.319616
11
0.635919
21
0.319561
0
LINE
8
BLACK
6
CONTINUOUS
10
0.635919
20
0.319561
11
0.630749
21
0.321284
0
LINE
8
BLACK
6
CONTINUOUS
10
0.630749
20
0.321284
11
0.622551
21
0.321284
0
LINE
8
BLACK
6
CONTINUOUS
10
0.622551
20
0.321284
11
0.619854
21
0.319935
0
LINE
8
BLACK
6
CONTINUOUS
10
0.619854
20
0.319935
11
0.618657
21
0.318738
0
LINE
8
BLACK
6
CONTINUOUS
10
0.618657
20
0.318738
11
0.617308
21
0.316041
0
LINE
8
BLACK
6
CONTINUOUS
10
0.617308
20
0.316041
11
0.617308
21
0.313685
0
LINE
8
BLACK
6
CONTINUOUS
10
0.617308
20
0.313685
11
0.618657
21
0.310988
0
LINE
8
BLACK
6
CONTINUOUS
10
0.618657
20
0.310988
11
0.619854
21
0.309791
0
LINE
8
BLACK
6
CONTINUOUS
10
0.619854
20
0.309791
11
0.622885
21
0.308275
0
LINE
8
BLACK
6
CONTINUOUS
10
0.622885
20
0.308275
11
0.630069
21
0.306479
0
LINE
8
BLACK
6
CONTINUOUS
10
0.630069
20
0.306479
11
0.630535
21
0.306272
0
LINE
8
BLACK
6
CONTINUOUS
10
0.630535
20
0.306272
11
0.630674
21
0.306256
0
LINE
8
BLACK
6
CONTINUOUS
10
0.630674
20
0.306256
11
0.634423
21
0.304381
0
LINE
8
BLACK
6
CONTINUOUS
10
0.634423
20
0.304381
11
0.635132
21
0.303855
0
LINE
8
BLACK
6
CONTINUOUS
10
0.635132
20
0.303855
11
0.635191
21
0.303828
0
LINE
8
BLACK
6
CONTINUOUS
10
0.635191
20
0.303828
11
0.637065
21
0.301953
0
LINE
8
BLACK
6
CONTINUOUS
10
0.637065
20
0.301953
11
0.637572
21
0.30123
0
LINE
8
BLACK
6
CONTINUOUS
10
0.637572
20
0.30123
11
0.637619
21
0.301186
0
LINE
8
BLACK
6
CONTINUOUS
10
0.637619
20
0.301186
11
0.639493
21
0.297436
0
LINE
8
BLACK
6
CONTINUOUS
10
0.639493
20
0.297436
11
0.639786
21
0.296453
0
LINE
8
BLACK
6
CONTINUOUS
10
0.639786
20
0.296453
11
0.639745
21
0.296281
0
LINE
8
BLACK
6
CONTINUOUS
10
0.639745
20
0.296281
11
0.639805
21
0.296116
0
LINE
8
BLACK
6
CONTINUOUS
10
0.639805
20
0.296116
11
0.639805
21
0.292366
0
LINE
8
BLACK
6
CONTINUOUS
10
0.639805
20
0.292366
11
0.639627
21
0.291356
0
LINE
8
BLACK
6
CONTINUOUS
10
0.639627
20
0.291356
11
0.639513
21
0.291221
0
LINE
8
BLACK
6
CONTINUOUS
10
0.639513
20
0.291221
11
0.639493
21
0.291045
0
LINE
8
BLACK
6
CONTINUOUS
10
0.639493
20
0.291045
11
0.637619
21
0.287296
0
LINE
8
BLACK
6
CONTINUOUS
10
0.637619
20
0.287296
11
0.637093
21
0.286587
0
LINE
8
BLACK
6
CONTINUOUS
10
0.637093
20
0.286587
11
0.637065
21
0.286529
0
LINE
8
BLACK
6
CONTINUOUS
10
0.637065
20
0.286529
11
0.635191
21
0.284654
0
LINE
8
BLACK
6
CONTINUOUS
10
0.635191
20
0.284654
11
0.634468
21
0.284147
0
LINE
8
BLACK
6
CONTINUOUS
10
0.634468
20
0.284147
11
0.634423
21
0.284101
0
LINE
8
BLACK
6
CONTINUOUS
10
0.634423
20
0.284101
11
0.630674
21
0.282226
0
LINE
8
BLACK
6
CONTINUOUS
10
0.630674
20
0.282226
11
0.629691
21
0.281934
0
LINE
8
BLACK
6
CONTINUOUS
10
0.629691
20
0.281934
11
0.629519
21
0.281975
0
LINE
8
BLACK
6
CONTINUOUS
10
0.629519
20
0.281975
11
0.629353
21
0.281914
0
LINE
8
BLACK
6
CONTINUOUS
10
0.629353
20
0.281914
11
0.619979
21
0.281914
0
LINE
8
BLACK
6
CONTINUOUS
10
0.619979
20
0.281914
11
0.61911
21
0.282067
0
LINE
8
BLACK
6
CONTINUOUS
10
0.61911
20
0.282067
11
0.619046
21
0.282066
0
LINE
8
BLACK
6
CONTINUOUS
10
0.619046
20
0.282066
11
0.613421
21
0.28394
0
LINE
8
BLACK
6
CONTINUOUS
10
0.613421
20
0.28394
11
0.61252
21
0.284429
0
LINE
8
BLACK
6
CONTINUOUS
10
0.61252
20
0.284429
11
0.611462
21
0.28615
0
LINE
8
BLACK
6
CONTINUOUS
10
0.611462
20
0.28615
11
0.611759
21
0.288148
0
LINE
8
BLACK
6
CONTINUOUS
10
0.611759
20
0.288148
11
0.61327
21
0.289488
0
LINE
8
BLACK
6
CONTINUOUS
10
0.61327
20
0.289488
11
0.615289
21
0.289543
0
LINE
8
BLACK
6
CONTINUOUS
10
0.615289
20
0.289543
11
0.620459
21
0.28782
0
LINE
8
BLACK
6
CONTINUOUS
10
0.620459
20
0.28782
11
0.628656
21
0.28782
0
LINE
8
BLACK
6
CONTINUOUS
10
0.628656
20
0.28782
11
0.631354
21
0.289168
0
LINE
8
BLACK
6
CONTINUOUS
10
0.631354
20
0.289168
11
0.632551
21
0.290366
0
LINE
8
BLACK
6
CONTINUOUS
10
0.632551
20
0.290366
11
0.633899
21
0.293063
0
LINE
8
BLACK
6
CONTINUOUS
10
0.633899
20
0.293063
11
0.633899
21
0.295418
0
LINE
8
BLACK
6
CONTINUOUS
10
0.633899
20
0.295418
11
0.632551
21
0.298116
0
LINE
8
BLACK
6
CONTINUOUS
10
0.632551
20
0.298116
11
0.631354
21
0.299313
0
LINE
8
BLACK
6
CONTINUOUS
10
0.631354
20
0.299313
11
0.628323
21
0.300829
0
LINE
8
BLACK
6
CONTINUOUS
10
0.628323
20
0.300829
11
0.621138
21
0.302625
0
LINE
8
BLACK
6
CONTINUOUS
10
0.621138
20
0.302625
11
0.620673
21
0.302832
0
LINE
8
BLACK
6
CONTINUOUS
10
0.620673
20
0.302832
11
0.620534
21
0.302848
0
LINE
8
BLACK
6
CONTINUOUS
10
0.620534
20
0.302848
11
0.616784
21
0.304723
0
LINE
8
BLACK
6
CONTINUOUS
10
0.616784
20
0.304723
11
0.616075
21
0.305249
0
LINE
8
BLACK
6
CONTINUOUS
10
0.616075
20
0.305249
11
0.616017
21
0.305276
0
LINE
8
BLACK
6
CONTINUOUS
10
0.616017
20
0.305276
11
0.614142
21
0.307151
0
LINE
8
BLACK
6
CONTINUOUS
10
0.614142
20
0.307151
11
0.613636
21
0.307874
0
LINE
8
BLACK
6
CONTINUOUS
10
0.613636
20
0.307874
11
0.613589
21
0.307918
0
LINE
8
BLACK
6
CONTINUOUS
10
0.613589
20
0.307918
11
0.611714
21
0.311668
0
LINE
8
BLACK
6
CONTINUOUS
10
0.611714
20
0.311668
11
0.611422
21
0.312651
0
LINE
8
BLACK
6
CONTINUOUS
10
0.611422
20
0.312651
11
0.611463
21
0.312822
0
LINE
8
BLACK
6
CONTINUOUS
10
0.611463
20
0.312822
11
0.611402
21
0.312988
0
LINE
8
BLACK
6
CONTINUOUS
10
0.611402
20
0.312988
11
0.611402
21
0.316738
0
LINE
8
BLACK
6
CONTINUOUS
10
0.611402
20
0.316738
11
0.61158
21
0.317748
0
LINE
8
BLACK
6
CONTINUOUS
10
0.61158
20
0.317748
11
0.611694
21
0.317883
0
LINE
8
BLACK
6
CONTINUOUS
10
0.611694
20
0.317883
11
0.611714
21
0.318058
0
LINE
8
BLACK
6
CONTINUOUS
10
0.611714
20
0.318058
11
0.613589
21
0.321808
0
LINE
8
BLACK
6
CONTINUOUS
10
0.613589
20
0.321808
11
0.614115
21
0.322517
0
LINE
8
BLACK
6
CONTINUOUS
10
0.614115
20
0.322517
11
0.614142
21
0.322575
0
LINE
8
BLACK
6
CONTINUOUS
10
0.614142
20
0.322575
11
0.616017
21
0.32445
0
LINE
8
BLACK
6
CONTINUOUS
10
0.616017
20
0.32445
11
0.61674
21
0.324956
0
LINE
8
BLACK
6
CONTINUOUS
10
0.61674
20
0.324956
11
0.616784
21
0.325003
0
LINE
8
BLACK
6
CONTINUOUS
10
0.616784
20
0.325003
11
0.620534
21
0.326878
0
LINE
8
BLACK
6
CONTINUOUS
10
0.620534
20
0.326878
11
0.621517
21
0.32717
0
LINE
8
BLACK
6
CONTINUOUS
10
0.621517
20
0.32717
11
0.621688
21
0.327129
0
LINE
8
BLACK
6
CONTINUOUS
10
0.621688
20
0.327129
11
0.621854
21
0.32719
0
LINE
8
BLACK
6
CONTINUOUS
10
0.621854
20
0.32719
11
0.631228
21
0.32719
0
LINE
8
BLACK
6
CONTINUOUS
10
0.631228
20
0.32719
11
0.632097
21
0.327036
0
LINE
8
BLACK
6
CONTINUOUS
10
0.883456
20
0.327012
11
0.885004
21
0.325713
0
LINE
8
BLACK
6
CONTINUOUS
10
0.885004
20
0.325713
11
0.885354
21
0.323724
0
LINE
8
BLACK
6
CONTINUOUS
10
0.885354
20
0.323724
11
0.884345
21
0.321975
0
LINE
8
BLACK
6
CONTINUOUS
10
0.884345
20
0.321975
11
0.882447
21
0.321284
0
LINE
8
BLACK
6
CONTINUOUS
10
0.882447
20
0.321284
11
0.866652
21
0.321284
0
LINE
8
BLACK
6
CONTINUOUS
10
0.866652
20
0.321284
11
0.866652
21
0.308442
0
LINE
8
BLACK
6
CONTINUOUS
10
0.866652
20
0.308442
11
0.876822
21
0.308442
0
LINE
8
BLACK
6
CONTINUOUS
10
0.876822
20
0.308442
11
0.877832
21
0.308264
0
LINE
8
BLACK
6
CONTINUOUS
10
0.877832
20
0.308264
11
0.879379
21
0.306966
0
LINE
8
BLACK
6
CONTINUOUS
10
0.879379
20
0.306966
11
0.87973
21
0.304977
0
LINE
8
BLACK
6
CONTINUOUS
10
0.87973
20
0.304977
11
0.87872
21
0.303227
0
LINE
8
BLACK
6
CONTINUOUS
10
0.87872
20
0.303227
11
0.876822
21
0.302537
0
LINE
8
BLACK
6
CONTINUOUS
10
0.876822
20
0.302537
11
0.866652
21
0.302537
0
LINE
8
BLACK
6
CONTINUOUS
10
0.866652
20
0.302537
11
0.866652
21
0.284867
0
LINE
8
BLACK
6
CONTINUOUS
10
0.866652
20
0.284867
11
0.866474
21
0.283857
0
LINE
8
BLACK
6
CONTINUOUS
10
0.866474
20
0.283857
11
0.865175
21
0.28231
0
LINE
8
BLACK
6
CONTINUOUS
10
0.865175
20
0.28231
11
0.863186
21
0.281959
0
LINE
8
BLACK
6
CONTINUOUS
10
0.863186
20
0.281959
11
0.861437
21
0.282969
0
LINE
8
BLACK
6
CONTINUOUS
10
0.861437
20
0.282969
11
0.860746
21
0.284867
0
LINE
8
BLACK
6
CONTINUOUS
10
0.860746
20
0.284867
11
0.860746
21
0.324237
0
LINE
8
BLACK
6
CONTINUOUS
10
0.860746
20
0.324237
11
0.860814
21
0.324621
0
LINE
8
BLACK
6
CONTINUOUS
10
0.860814
20
0.324621
11
0.860791
21
0.32475
0
LINE
8
BLACK
6
CONTINUOUS
10
0.860791
20
0.32475
11
0.860857
21
0.324863
0
LINE
8
BLACK
6
CONTINUOUS
10
0.860857
20
0.324863
11
0.860924
21
0.325247
0
LINE
8
BLACK
6
CONTINUOUS
10
0.860924
20
0.325247
11
0.861417
21
0.325835
0
LINE
8
BLACK
6
CONTINUOUS
10
0.861417
20
0.325835
11
0.861801
21
0.326499
0
LINE
8
BLACK
6
CONTINUOUS
10
0.861801
20
0.326499
11
0.862051
21
0.32659
0
LINE
8
BLACK
6
CONTINUOUS
10
0.862051
20
0.32659
11
0.862223
21
0.326794
0
LINE
8
BLACK
6
CONTINUOUS
10
0.862223
20
0.326794
11
0.862978
21
0.326927
0
LINE
8
BLACK
6
CONTINUOUS
10
0.862978
20
0.326927
11
0.863699
21
0.32719
0
LINE
8
BLACK
6
CONTINUOUS
10
0.863699
20
0.32719
11
0.882447
21
0.32719
0
LINE
8
BLACK
6
CONTINUOUS
10
0.882447
20
0.32719
11
0.883456
21
0.327012
0
LINE
8
BLACK
6
CONTINUOUS
10
0.530115
20
0.327076
11
0.530503
21
0.327145
0
LINE
8
BLACK
6
CONTINUOUS
10
0.530503
20
0.327145
11
0.531062
21
0.326822
0
LINE
8
BLACK
6
CONTINUOUS
10
0.531062
20
0.326822
11
0.531685
21
0.326655
0
LINE
8
BLACK
6
CONTINUOUS
10
0.531685
20
0.326655
11
0.531911
21
0.326332
0
LINE
8
BLACK
6
CONTINUOUS
10
0.531911
20
0.326332
11
0.532253
21
0.326135
0
LINE
8
BLACK
6
CONTINUOUS
10
0.532253
20
0.326135
11
0.532473
21
0.325529
0
LINE
8
BLACK
6
CONTINUOUS
10
0.532473
20
0.325529
11
0.532843
21
0.325
0
LINE
8
BLACK
6
CONTINUOUS
10
0.532843
20
0.325
11
0.532808
21
0.324608
0
LINE
8
BLACK
6
CONTINUOUS
10
0.532808
20
0.324608
11
0.532943
21
0.324237
0
LINE
8
BLACK
6
CONTINUOUS
10
0.532943
20
0.324237
11
0.532943
21
0.284867
0
LINE
8
BLACK
6
CONTINUOUS
10
0.532943
20
0.284867
11
0.532765
21
0.283857
0
LINE
8
BLACK
6
CONTINUOUS
10
0.532765
20
0.283857
11
0.531467
21
0.28231
0
LINE
8
BLACK
6
CONTINUOUS
10
0.531467
20
0.28231
11
0.529478
21
0.281959
0
LINE
8
BLACK
6
CONTINUOUS
10
0.529478
20
0.281959
11
0.527729
21
0.282969
0
LINE
8
BLACK
6
CONTINUOUS
10
0.527729
20
0.282969
11
0.527038
21
0.284867
0
LINE
8
BLACK
6
CONTINUOUS
10
0.527038
20
0.284867
11
0.527038
21
0.310927
0
LINE
8
BLACK
6
CONTINUOUS
10
0.527038
20
0.310927
11
0.519543
21
0.294867
0
LINE
8
BLACK
6
CONTINUOUS
10
0.519543
20
0.294867
11
0.51932
21
0.294549
0
LINE
8
BLACK
6
CONTINUOUS
10
0.51932
20
0.294549
11
0.519286
21
0.294423
0
LINE
8
BLACK
6
CONTINUOUS
10
0.519286
20
0.294423
11
0.519179
21
0.294347
0
LINE
8
BLACK
6
CONTINUOUS
10
0.519179
20
0.294347
11
0.518955
21
0.294027
0
LINE
8
BLACK
6
CONTINUOUS
10
0.518955
20
0.294027
11
0.51826
21
0.293703
0
LINE
8
BLACK
6
CONTINUOUS
10
0.51826
20
0.293703
11
0.517632
21
0.293264
0
LINE
8
BLACK
6
CONTINUOUS
10
0.517632
20
0.293264
11
0.517366
21
0.293287
0
LINE
8
BLACK
6
CONTINUOUS
10
0.517366
20
0.293287
11
0.517124
21
0.293174
0
LINE
8
BLACK
6
CONTINUOUS
10
0.517124
20
0.293174
11
0.516384
21
0.293372
0
LINE
8
BLACK
6
CONTINUOUS
10
0.516384
20
0.293372
11
0.51562
21
0.293439
0
LINE
8
BLACK
6
CONTINUOUS
10
0.51562
20
0.293439
11
0.515431
21
0.293628
0
LINE
8
BLACK
6
CONTINUOUS
10
0.515431
20
0.293628
11
0.515173
21
0.293697
0
LINE
8
BLACK
6
CONTINUOUS
10
0.515173
20
0.293697
11
0.514734
21
0.294325
0
LINE
8
BLACK
6
CONTINUOUS
10
0.514734
20
0.294325
11
0.514191
21
0.294867
0
LINE
8
BLACK
6
CONTINUOUS
10
0.514191
20
0.294867
11
0.506697
21
0.310927
0
LINE
8
BLACK
6
CONTINUOUS
10
0.506697
20
0.310927
11
0.506697
21
0.284867
0
LINE
8
BLACK
6
CONTINUOUS
10
0.506697
20
0.284867
11
0.506519
21
0.283857
0
LINE
8
BLACK
6
CONTINUOUS
10
0.506519
20
0.283857
11
0.50522
21
0.28231
0
LINE
8
BLACK
6
CONTINUOUS
10
0.50522
20
0.28231
11
0.503231
21
0.281959
0
LINE
8
BLACK
6
CONTINUOUS
10
0.503231
20
0.281959
11
0.501482
21
0.282969
0
LINE
8
BLACK
6
CONTINUOUS
10
0.501482
20
0.282969
11
0.500791
21
0.284867
0
LINE
8
BLACK
6
CONTINUOUS
10
0.500791
20
0.284867
11
0.500791
21
0.324237
0
LINE
8
BLACK
6
CONTINUOUS
10
0.500791
20
0.324237
11
0.500969
21
0.325247
0
LINE
8
BLACK
6
CONTINUOUS
10
0.500969
20
0.325247
11
0.501223
21
0.325549
0
LINE
8
BLACK
6
CONTINUOUS
10
0.501223
20
0.325549
11
0.501325
21
0.32593
0
LINE
8
BLACK
6
CONTINUOUS
10
0.501325
20
0.32593
11
0.501853
21
0.3263
0
LINE
8
BLACK
6
CONTINUOUS
10
0.501853
20
0.3263
11
0.502268
21
0.326794
0
LINE
8
BLACK
6
CONTINUOUS
10
0.502268
20
0.326794
11
0.502656
21
0.326863
0
LINE
8
BLACK
6
CONTINUOUS
10
0.502656
20
0.326863
11
0.502979
21
0.327089
0
LINE
8
BLACK
6
CONTINUOUS
10
0.502979
20
0.327089
11
0.503621
21
0.327033
0
LINE
8
BLACK
6
CONTINUOUS
10
0.503621
20
0.327033
11
0.504257
21
0.327145
0
LINE
8
BLACK
6
CONTINUOUS
10
0.504257
20
0.327145
11
0.504598
21
0.326948
0
LINE
8
BLACK
6
CONTINUOUS
10
0.504598
20
0.326948
11
0.504991
21
0.326913
0
LINE
8
BLACK
6
CONTINUOUS
10
0.504991
20
0.326913
11
0.505447
21
0.326458
0
LINE
8
BLACK
6
CONTINUOUS
10
0.505447
20
0.326458
11
0.506006
21
0.326135
0
LINE
8
BLACK
6
CONTINUOUS
10
0.506006
20
0.326135
11
0.506141
21
0.325764
0
LINE
8
BLACK
6
CONTINUOUS
10
0.506141
20
0.325764
11
0.50642
21
0.325486
0
LINE
8
BLACK
6
CONTINUOUS
10
0.50642
20
0.325486
11
0.516867
21
0.303098
0
LINE
8
BLACK
6
CONTINUOUS
10
0.516867
20
0.303098
11
0.527315
21
0.325486
0
LINE
8
BLACK
6
CONTINUOUS
10
0.527315
20
0.325486
11
0.527903
21
0.326326
0
LINE
8
BLACK
6
CONTINUOUS
10
0.527903
20
0.326326
11
0.528261
21
0.326492
0
LINE
8
BLACK
6
CONTINUOUS
10
0.528261
20
0.326492
11
0.528514
21
0.326794
0
LINE
8
BLACK
6
CONTINUOUS
10
0.528514
20
0.326794
11
0.529149
21
0.326906
0
LINE
8
BLACK
6
CONTINUOUS
10
0.529149
20
0.326906
11
0.529734
21
0.327179
0
LINE
8
BLACK
6
CONTINUOUS
10
0.529734
20
0.327179
11
0.530115
21
0.327076
0
LINE
8
BLACK
6
CONTINUOUS
10
0.786365
20
0.328708
11
0.787705
21
0.327197
0
LINE
8
BLACK
6
CONTINUOUS
10
0.787705
20
0.327197
11
0.78776
21
0.325178
0
LINE
8
BLACK
6
CONTINUOUS
10
0.78776
20
0.325178
11
0.779682
21
0.300943
0
LINE
8
BLACK
6
CONTINUOUS
10
0.779682
20
0.300943
11
0.79138
21
0.300943
0
LINE
8
BLACK
6
CONTINUOUS
10
0.79138
20
0.300943
11
0.79138
21
0.311114
0
LINE
8
BLACK
6
CONTINUOUS
10
0.79138
20
0.311114
11
0.791558
21
0.312124
0
LINE
8
BLACK
6
CONTINUOUS
10
0.791558
20
0.312124
11
0.792856
21
0.313671
0
LINE
8
BLACK
6
CONTINUOUS
10
0.792856
20
0.313671
11
0.794845
21
0.314022
0
LINE
8
BLACK
6
CONTINUOUS
10
0.794845
20
0.314022
11
0.796594
21
0.313012
0
LINE
8
BLACK
6
CONTINUOUS
10
0.796594
20
0.313012
11
0.797285
21
0.311114
0
LINE
8
BLACK
6
CONTINUOUS
10
0.797285
20
0.311114
11
0.797285
21
0.300943
0
LINE
8
BLACK
6
CONTINUOUS
10
0.797285
20
0.300943
11
0.799957
21
0.300943
0
LINE
8
BLACK
6
CONTINUOUS
10
0.799957
20
0.300943
11
0.800967
21
0.300765
0
LINE
8
BLACK
6
CONTINUOUS
10
0.800967
20
0.300765
11
0.802514
21
0.299467
0
LINE
8
BLACK
6
CONTINUOUS
10
0.802514
20
0.299467
11
0.802865
21
0.297478
0
LINE
8
BLACK
6
CONTINUOUS
10
0.802865
20
0.297478
11
0.801855
21
0.295728
0
LINE
8
BLACK
6
CONTINUOUS
10
0.801855
20
0.295728
11
0.799957
21
0.295038
0
LINE
8
BLACK
6
CONTINUOUS
10
0.799957
20
0.295038
11
0.797285
21
0.295038
0
LINE
8
BLACK
6
CONTINUOUS
10
0.797285
20
0.295038
11
0.797285
21
0.284867
0
LINE
8
BLACK
6
CONTINUOUS
10
0.797285
20
0.284867
11
0.797107
21
0.283857
0
LINE
8
BLACK
6
CONTINUOUS
10
0.797107
20
0.283857
11
0.795809
21
0.28231
0
LINE
8
BLACK
6
CONTINUOUS
10
0.795809
20
0.28231
11
0.79382
21
0.281959
0
LINE
8
BLACK
6
CONTINUOUS
10
0.79382
20
0.281959
11
0.792071
21
0.282969
0
LINE
8
BLACK
6
CONTINUOUS
10
0.792071
20
0.282969
11
0.79138
21
0.284867
0
LINE
8
BLACK
6
CONTINUOUS
10
0.79138
20
0.284867
11
0.79138
21
0.295038
0
LINE
8
BLACK
6
CONTINUOUS
10
0.79138
20
0.295038
11
0.775585
21
0.295038
0
LINE
8
BLACK
6
CONTINUOUS
10
0.775585
20
0.295038
11
0.774575
21
0.295216
0
LINE
8
BLACK
6
CONTINUOUS
10
0.774575
20
0.295216
11
0.774402
21
0.295361
0
LINE
8
BLACK
6
CONTINUOUS
10
0.774402
20
0.295361
11
0.774179
21
0.295394
0
LINE
8
BLACK
6
CONTINUOUS
10
0.774179
20
0.295394
11
0.773645
21
0.295996
0
LINE
8
BLACK
6
CONTINUOUS
10
0.773645
20
0.295996
11
0.773028
21
0.296514
0
LINE
8
BLACK
6
CONTINUOUS
10
0.773028
20
0.296514
11
0.772989
21
0.296736
0
LINE
8
BLACK
6
CONTINUOUS
10
0.772989
20
0.296736
11
0.772839
21
0.296905
0
LINE
8
BLACK
6
CONTINUOUS
10
0.772839
20
0.296905
11
0.772817
21
0.29771
0
LINE
8
BLACK
6
CONTINUOUS
10
0.772817
20
0.29771
11
0.772677
21
0.298503
0
LINE
8
BLACK
6
CONTINUOUS
10
0.772677
20
0.298503
11
0.77279
21
0.298699
0
LINE
8
BLACK
6
CONTINUOUS
10
0.77279
20
0.298699
11
0.772784
21
0.298924
0
LINE
8
BLACK
6
CONTINUOUS
10
0.772784
20
0.298924
11
0.782158
21
0.327046
0
LINE
8
BLACK
6
CONTINUOUS
10
0.782158
20
0.327046
11
0.782646
21
0.327947
0
LINE
8
BLACK
6
CONTINUOUS
10
0.782646
20
0.327947
11
0.784367
21
0.329005
0
LINE
8
BLACK
6
CONTINUOUS
10
0.784367
20
0.329005
11
0.786365
21
0.328708
0
LINE
8
BLACK
6
CONTINUOUS
10
0.551
20
0.326135
11
0.551691
21
0.324237
0
LINE
8
BLACK
6
CONTINUOUS
10
0.551691
20
0.324237
11
0.551691
21
0.284867
0
LINE
8
BLACK
6
CONTINUOUS
10
0.551691
20
0.284867
11
0.551513
21
0.283857
0
LINE
8
BLACK
6
CONTINUOUS
10
0.551513
20
0.283857
11
0.550215
21
0.28231
0
LINE
8
BLACK
6
CONTINUOUS
10
0.550215
20
0.28231
11
0.548226
21
0.281959
0
LINE
8
BLACK
6
CONTINUOUS
10
0.548226
20
0.281959
11
0.546476
21
0.282969
0
LINE
8
BLACK
6
CONTINUOUS
10
0.546476
20
0.282969
11
0.545786
21
0.284867
0
LINE
8
BLACK
6
CONTINUOUS
10
0.545786
20
0.284867
11
0.545786
21
0.324237
0
LINE
8
BLACK
6
CONTINUOUS
10
0.545786
20
0.324237
11
0.545964
21
0.325247
0
LINE
8
BLACK
6
CONTINUOUS
10
0.545964
20
0.325247
11
0.547262
21
0.326794
0
LINE
8
BLACK
6
CONTINUOUS
10
0.547262
20
0.326794
11
0.549251
21
0.327145
0
LINE
8
BLACK
6
CONTINUOUS
10
0.549251
20
0.327145
11
0.551
21
0.326135
0
LINE
8
BLACK
6
CONTINUOUS
10
0.598492
20
0.30264
11
0.600039
21
0.301341
0
LINE
8
BLACK
6
CONTINUOUS
10
0.600039
20
0.301341
11
0.60039
21
0.299352
0
LINE
8
BLACK
6
CONTINUOUS
10
0.60039
20
0.299352
11
0.59938
21
0.297603
0
LINE
8
BLACK
6
CONTINUOUS
10
0.59938
20
0.297603
11
0.597482
21
0.296912
0
LINE
8
BLACK
6
CONTINUOUS
10
0.597482
20
0.296912
11
0.567486
21
0.296912
0
LINE
8
BLACK
6
CONTINUOUS
10
0.567486
20
0.296912
11
0.566476
21
0.29709
0
LINE
8
BLACK
6
CONTINUOUS
10
0.566476
20
0.29709
11
0.564929
21
0.298389
0
LINE
8
BLACK
6
CONTINUOUS
10
0.564929
20
0.298389
11
0.564578
21
0.300378
0
LINE
8
BLACK
6
CONTINUOUS
10
0.564578
20
0.300378
11
0.565588
21
0.302127
0
LINE
8
BLACK
6
CONTINUOUS
10
0.565588
20
0.302127
11
0.567486
21
0.302818
0
LINE
8
BLACK
6
CONTINUOUS
10
0.567486
20
0.302818
11
0.597482
21
0.302818
0
LINE
8
BLACK
6
CONTINUOUS
10
0.597482
20
0.302818
11
0.598492
21
0.30264
0
LINE
8
BLACK
6
CONTINUOUS
10
0.845961
20
0.30264
11
0.847508
21
0.301341
0
LINE
8
BLACK
6
CONTINUOUS
10
0.847508
20
0.301341
11
0.847859
21
0.299352
0
LINE
8
BLACK
6
CONTINUOUS
10
0.847859
20
0.299352
11
0.846849
21
0.297603
0
LINE
8
BLACK
6
CONTINUOUS
10
0.846849
20
0.297603
11
0.844951
21
0.296912
0
LINE
8
BLACK
6
CONTINUOUS
10
0.844951
20
0.296912
11
0.814955
21
0.296912
0
LINE
8
BLACK
6
CONTINUOUS
10
0.814955
20
0.296912
11
0.813945
21
0.29709
0
LINE
8
BLACK
6
CONTINUOUS
10
0.813945
20
0.29709
11
0.812398
21
0.298389
0
LINE
8
BLACK
6
CONTINUOUS
10
0.812398
20
0.298389
11
0.812047
21
0.300378
0
LINE
8
BLACK
6
CONTINUOUS
10
0.812047
20
0.300378
11
0.813057
21
0.302127
0
LINE
8
BLACK
6
CONTINUOUS
10
0.813057
20
0.302127
11
0.814955
21
0.302818
0
LINE
8
BLACK
6
CONTINUOUS
10
0.814955
20
0.302818
11
0.844951
21
0.302818
0
LINE
8
BLACK
6
CONTINUOUS
10
0.844951
20
0.302818
11
0.845961
21
0.30264
0
LINE
8
BLACK
6
CONTINUOUS
10
0.684731
20
0.30264
11
0.686279
21
0.301341
0
LINE
8
BLACK
6
CONTINUOUS
10
0.686279
20
0.301341
11
0.686629
21
0.299352
0
LINE
8
BLACK
6
CONTINUOUS
10
0.686629
20
0.299352
11
0.685619
21
0.297603
0
LINE
8
BLACK
6
CONTINUOUS
10
0.685619
20
0.297603
11
0.683721
21
0.296912
0
LINE
8
BLACK
6
CONTINUOUS
10
0.683721
20
0.296912
11
0.653725
21
0.296912
0
LINE
8
BLACK
6
CONTINUOUS
10
0.653725
20
0.296912
11
0.652715
21
0.29709
0
LINE
8
BLACK
6
CONTINUOUS
10
0.652715
20
0.29709
11
0.651168
21
0.298389
0
LINE
8
BLACK
6
CONTINUOUS
10
0.651168
20
0.298389
11
0.650817
21
0.300378
0
LINE
8
BLACK
6
CONTINUOUS
10
0.650817
20
0.300378
11
0.651827
21
0.302127
0
LINE
8
BLACK
6
CONTINUOUS
10
0.651827
20
0.302127
11
0.653725
21
0.302818
0
LINE
8
BLACK
6
CONTINUOUS
10
0.653725
20
0.302818
11
0.683721
21
0.302818
0
LINE
8
BLACK
6
CONTINUOUS
10
0.683721
20
0.302818
11
0.684731
21
0.30264
0
LINE
8
BLACK
6
CONTINUOUS
10
1.30343
20
1.61764
11
1.30343
21
0.357795
0
LINE
8
BLACK
6
CONTINUOUS
10
1.30343
20
0.357795
11
1.30285
21
0.356403
0
LINE
8
BLACK
6
CONTINUOUS
10
1.30285
20
0.356403
11
1.30146
21
0.355827
0
LINE
8
BLACK
6
CONTINUOUS
10
1.30146
20
0.355827
11
0.0416142
21
0.355827
0
LINE
8
BLACK
6
CONTINUOUS
10
0.0416142
20
0.355827
11
0.0402222
21
0.356403
0
LINE
8
BLACK
6
CONTINUOUS
10
0.0402222
20
0.356403
11
0.0396457
21
0.357795
0
LINE
8
BLACK
6
CONTINUOUS
10
0.0396457
20
0.357795
11
0.0396457
21
1.61764
0
LINE
8
BLACK
6
CONTINUOUS
10
0.0396457
20
1.61764
11
0.0402222
21
1.61903
0
LINE
8
BLACK
6
CONTINUOUS
10
0.0402222
20
1.61903
11
0.0416142
21
1.61961
0
LINE
8
BLACK
6
CONTINUOUS
10
0.0416142
20
1.61961
11
1.22142
21
1.61961
0
LINE
8
BLACK
6
CONTINUOUS
10
1.22142
20
1.61961
11
1.22142
21
1.64896
0
LINE
8
BLACK
6
CONTINUOUS
10
1.22142
20
1.64896
11
1.22149
21
1.64934
0
LINE
8
BLACK
6
CONTINUOUS
10
1.22149
20
1.64934
11
1.22147
21
1.64947
0
LINE
8
BLACK
6
CONTINUOUS
10
1.22147
20
1.64947
11
1.22153
21
1.64959
0
LINE
8
BLACK
6
CONTINUOUS
10
1.22153
20
1.64959
11
1.2216
21
1.64997
0
LINE
8
BLACK
6
CONTINUOUS
10
1.2216
20
1.64997
11
1.22209
21
1.65056
0
LINE
8
BLACK
6
CONTINUOUS
10
1.22209
20
1.65056
11
1.22248
21
1.65122
0
LINE
8
BLACK
6
CONTINUOUS
10
1.22248
20
1.65122
11
1.22273
21
1.65131
0
LINE
8
BLACK
6
CONTINUOUS
10
1.22273
20
1.65131
11
1.2229
21
1.65152
0
LINE
8
BLACK
6
CONTINUOUS
10
1.2229
20
1.65152
11
1.22365
21
1.65165
0
LINE
8
BLACK
6
CONTINUOUS
10
1.22365
20
1.65165
11
1.22437
21
1.65191
0
LINE
8
BLACK
6
CONTINUOUS
10
1.22437
20
1.65191
11
1.2375
21
1.65191
0
LINE
8
BLACK
6
CONTINUOUS
10
1.2375
20
1.65191
11
1.23851
21
1.65174
0
LINE
8
BLACK
6
CONTINUOUS
10
1.23851
20
1.65174
11
1.23864
21
1.65162
0
LINE
8
BLACK
6
CONTINUOUS
10
1.23864
20
1.65162
11
1.23882
21
1.6516
0
LINE
8
BLACK
6
CONTINUOUS
10
1.23882
20
1.6516
11
1.24257
21
1.64973
0
LINE
8
BLACK
6
CONTINUOUS
10
1.24257
20
1.64973
11
1.24328
21
1.6492
0
LINE
8
BLACK
6
CONTINUOUS
10
1.24328
20
1.6492
11
1.24333
21
1.64917
0
LINE
8
BLACK
6
CONTINUOUS
10
1.24333
20
1.64917
11
1.24521
21
1.6473
0
LINE
8
BLACK
6
CONTINUOUS
10
1.24521
20
1.6473
11
1.24572
21
1.64658
0
LINE
8
BLACK
6
CONTINUOUS
10
1.24572
20
1.64658
11
1.24576
21
1.64653
0
LINE
8
BLACK
6
CONTINUOUS
10
1.24576
20
1.64653
11
1.24764
21
1.64278
0
LINE
8
BLACK
6
CONTINUOUS
10
1.24764
20
1.64278
11
1.24793
21
1.6418
0
LINE
8
BLACK
6
CONTINUOUS
10
1.24793
20
1.6418
11
1.24789
21
1.64163
0
LINE
8
BLACK
6
CONTINUOUS
10
1.24789
20
1.64163
11
1.24795
21
1.64146
0
LINE
8
BLACK
6
CONTINUOUS
10
1.24795
20
1.64146
11
1.24795
21
1.63771
0
LINE
8
BLACK
6
CONTINUOUS
10
1.24795
20
1.63771
11
1.24777
21
1.6367
0
LINE
8
BLACK
6
CONTINUOUS
10
1.24777
20
1.6367
11
1.24766
21
1.63657
0
LINE
8
BLACK
6
CONTINUOUS
10
1.24766
20
1.63657
11
1.24764
21
1.63639
0
LINE
8
BLACK
6
CONTINUOUS
10
1.24764
20
1.63639
11
1.24576
21
1.63264
0
LINE
8
BLACK
6
CONTINUOUS
10
1.24576
20
1.63264
11
1.24524
21
1.63193
0
LINE
8
BLACK
6
CONTINUOUS
10
1.24524
20
1.63193
11
1.24521
21
1.63188
0
LINE
8
BLACK
6
CONTINUOUS
10
1.24521
20
1.63188
11
1.24433
21
1.63099
0
LINE
8
BLACK
6
CONTINUOUS
10
1.24433
20
1.63099
11
1.24496
21
1.63065
0
LINE
8
BLACK
6
CONTINUOUS
10
1.24496
20
1.63065
11
1.24505
21
1.6305
0
LINE
8
BLACK
6
CONTINUOUS
10
1.24505
20
1.6305
11
1.24521
21
1.63043
0
LINE
8
BLACK
6
CONTINUOUS
10
1.24521
20
1.63043
11
1.24708
21
1.62855
0
LINE
8
BLACK
6
CONTINUOUS
10
1.24708
20
1.62855
11
1.24759
21
1.62783
0
LINE
8
BLACK
6
CONTINUOUS
10
1.24759
20
1.62783
11
1.24764
21
1.62778
0
LINE
8
BLACK
6
CONTINUOUS
10
1.24764
20
1.62778
11
1.24951
21
1.62404
0
LINE
8
BLACK
6
CONTINUOUS
10
1.24951
20
1.62404
11
1.2498
21
1.62305
0
LINE
8
BLACK
6
CONTINUOUS
10
1.2498
20
1.62305
11
1.24976
21
1.62288
0
LINE
8
BLACK
6
CONTINUOUS
10
1.24976
20
1.62288
11
1.24982
21
1.62271
0
LINE
8
BLACK
6
CONTINUOUS
10
1.24982
20
1.62271
11
1.24982
21
1.61961
0
LINE
8
BLACK
6
CONTINUOUS
10
1.24982
20
1.61961
11
1.26079
21
1.61961
0
LINE
8
BLACK
6
CONTINUOUS
10
1.26079
20
1.61961
11
1.26079
21
1.64896
0
LINE
8
BLACK
6
CONTINUOUS
10
1.26079
20
1.64896
11
1.26097
21
1.64997
0
LINE
8
BLACK
6
CONTINUOUS
10
1.26097
20
1.64997
11
1.26122
21
1.65027
0
LINE
8
BLACK
6
CONTINUOUS
10
1.26122
20
1.65027
11
1.26132
21
1.65065
0
LINE
8
BLACK
6
CONTINUOUS
10
1.26132
20
1.65065
11
1.26185
21
1.65102
0
LINE
8
BLACK
6
CONTINUOUS
10
1.26185
20
1.65102
11
1.26227
21
1.65152
0
LINE
8
BLACK
6
CONTINUOUS
10
1.26227
20
1.65152
11
1.26266
21
1.65159
0
LINE
8
BLACK
6
CONTINUOUS
10
1.26266
20
1.65159
11
1.26298
21
1.65181
0
LINE
8
BLACK
6
CONTINUOUS
10
1.26298
20
1.65181
11
1.26362
21
1.65176
0
LINE
8
BLACK
6
CONTINUOUS
10
1.26362
20
1.65176
11
1.26426
21
1.65187
0
LINE
8
BLACK
6
CONTINUOUS
10
1.26426
20
1.65187
11
1.2646
21
1.65167
0
LINE
8
BLACK
6
CONTINUOUS
10
1.2646
20
1.65167
11
1.26499
21
1.65164
0
LINE
8
BLACK
6
CONTINUOUS
10
1.26499
20
1.65164
11
1.26545
21
1.65118
0
LINE
8
BLACK
6
CONTINUOUS
10
1.26545
20
1.65118
11
1.26601
21
1.65086
0
LINE
8
BLACK
6
CONTINUOUS
10
1.26601
20
1.65086
11
1.26614
21
1.65049
0
LINE
8
BLACK
6
CONTINUOUS
10
1.26614
20
1.65049
11
1.26642
21
1.65021
0
LINE
8
BLACK
6
CONTINUOUS
10
1.26642
20
1.65021
11
1.27687
21
1.62782
0
LINE
8
BLACK
6
CONTINUOUS
10
1.27687
20
1.62782
11
1.28731
21
1.65021
0
LINE
8
BLACK
6
CONTINUOUS
10
1.28731
20
1.65021
11
1.2879
21
1.65105
0
LINE
8
BLACK
6
CONTINUOUS
10
1.2879
20
1.65105
11
1.28826
21
1.65122
0
LINE
8
BLACK
6
CONTINUOUS
10
1.28826
20
1.65122
11
1.28851
21
1.65152
0
LINE
8
BLACK
6
CONTINUOUS
10
1.28851
20
1.65152
11
1.28915
21
1.65163
0
LINE
8
BLACK
6
CONTINUOUS
10
1.28915
20
1.65163
11
1.28973
21
1.6519
0
LINE
8
BLACK
6
CONTINUOUS
10
1.28973
20
1.6519
11
1.29011
21
1.6518
0
LINE
8
BLACK
6
CONTINUOUS
10
1.29011
20
1.6518
11
1.2905
21
1.65187
0
LINE
8
BLACK
6
CONTINUOUS
10
1.2905
20
1.65187
11
1.29106
21
1.65155
0
LINE
8
BLACK
6
CONTINUOUS
10
1.29106
20
1.65155
11
1.29168
21
1.65138
0
LINE
8
BLACK
6
CONTINUOUS
10
1.29168
20
1.65138
11
1.29191
21
1.65106
0
LINE
8
BLACK
6
CONTINUOUS
10
1.29191
20
1.65106
11
1.29225
21
1.65086
0
LINE
8
BLACK
6
CONTINUOUS
10
1.29225
20
1.65086
11
1.29247
21
1.65025
0
LINE
8
BLACK
6
CONTINUOUS
10
1.29247
20
1.65025
11
1.29284
21
1.64972
0
LINE
8
BLACK
6
CONTINUOUS
10
1.29284
20
1.64972
11
1.29281
21
1.64933
0
LINE
8
BLACK
6
CONTINUOUS
10
1.29281
20
1.64933
11
1.29294
21
1.64896
0
LINE
8
BLACK
6
CONTINUOUS
10
1.29294
20
1.64896
11
1.29294
21
1.61961
0
LINE
8
BLACK
6
CONTINUOUS
10
1.29294
20
1.61961
11
1.30146
21
1.61961
0
LINE
8
BLACK
6
CONTINUOUS
10
1.30146
20
1.61961
11
1.30285
21
1.61903
0
LINE
8
BLACK
6
CONTINUOUS
10
1.30285
20
1.61903
11
1.30343
21
1.61764
0
LINE
8
BLACK
6
CONTINUOUS
10
1.29294
20
1.61567
11
1.29294
21
1.60959
0
LINE
8
BLACK
6
CONTINUOUS
10
1.29294
20
1.60959
11
1.29277
21
1.60858
0
LINE
8
BLACK
6
CONTINUOUS
10
1.29277
20
1.60858
11
1.29147
21
1.60703
0
LINE
8
BLACK
6
CONTINUOUS
10
1.29147
20
1.60703
11
1.28948
21
1.60668
0
LINE
8
BLACK
6
CONTINUOUS
10
1.28948
20
1.60668
11
1.28773
21
1.60769
0
LINE
8
BLACK
6
CONTINUOUS
10
1.28773
20
1.60769
11
1.28704
21
1.60959
0
LINE
8
BLACK
6
CONTINUOUS
10
1.28704
20
1.60959
11
1.28704
21
1.61567
0
LINE
8
BLACK
6
CONTINUOUS
10
1.28704
20
1.61567
11
1.2667
21
1.61567
0
LINE
8
BLACK
6
CONTINUOUS
10
1.2667
20
1.61567
11
1.2667
21
1.60959
0
LINE
8
BLACK
6
CONTINUOUS
10
1.2667
20
1.60959
11
1.26652
21
1.60858
0
LINE
8
BLACK
6
CONTINUOUS
10
1.26652
20
1.60858
11
1.26522
21
1.60703
0
LINE
8
BLACK
6
CONTINUOUS
10
1.26522
20
1.60703
11
1.26323
21
1.60668
0
LINE
8
BLACK
6
CONTINUOUS
10
1.26323
20
1.60668
11
1.26148
21
1.60769
0
LINE
8
BLACK
6
CONTINUOUS
10
1.26148
20
1.60769
11
1.26079
21
1.60959
0
LINE
8
BLACK
6
CONTINUOUS
10
1.26079
20
1.60959
11
1.26079
21
1.61567
0
LINE
8
BLACK
6
CONTINUOUS
10
1.26079
20
1.61567
11
1.24946
21
1.61567
0
LINE
8
BLACK
6
CONTINUOUS
10
1.24946
20
1.61567
11
1.24764
21
1.61202
0
LINE
8
BLACK
6
CONTINUOUS
10
1.24764
20
1.61202
11
1.24711
21
1.61131
0
LINE
8
BLACK
6
CONTINUOUS
10
1.24711
20
1.61131
11
1.24708
21
1.61125
0
LINE
8
BLACK
6
CONTINUOUS
10
1.24708
20
1.61125
11
1.24521
21
1.60938
0
LINE
8
BLACK
6
CONTINUOUS
10
1.24521
20
1.60938
11
1.24449
21
1.60887
0
LINE
8
BLACK
6
CONTINUOUS
10
1.24449
20
1.60887
11
1.24444
21
1.60883
0
LINE
8
BLACK
6
CONTINUOUS
10
1.24444
20
1.60883
11
1.24069
21
1.60695
0
LINE
8
BLACK
6
CONTINUOUS
10
1.24069
20
1.60695
11
1.23971
21
1.60666
0
LINE
8
BLACK
6
CONTINUOUS
10
1.23971
20
1.60666
11
1.23954
21
1.6067
0
LINE
8
BLACK
6
CONTINUOUS
10
1.23954
20
1.6067
11
1.23937
21
1.60664
0
LINE
8
BLACK
6
CONTINUOUS
10
1.23937
20
1.60664
11
1.22437
21
1.60664
0
LINE
8
BLACK
6
CONTINUOUS
10
1.22437
20
1.60664
11
1.22399
21
1.60671
0
LINE
8
BLACK
6
CONTINUOUS
10
1.22399
20
1.60671
11
1.22386
21
1.60668
0
LINE
8
BLACK
6
CONTINUOUS
10
1.22386
20
1.60668
11
1.22375
21
1.60675
0
LINE
8
BLACK
6
CONTINUOUS
10
1.22375
20
1.60675
11
1.22336
21
1.60682
0
LINE
8
BLACK
6
CONTINUOUS
10
1.22336
20
1.60682
11
1.22278
21
1.60731
0
LINE
8
BLACK
6
CONTINUOUS
10
1.22278
20
1.60731
11
1.22211
21
1.60769
0
LINE
8
BLACK
6
CONTINUOUS
10
1.22211
20
1.60769
11
1.22202
21
1.60794
0
LINE
8
BLACK
6
CONTINUOUS
10
1.22202
20
1.60794
11
1.22182
21
1.60811
0
LINE
8
BLACK
6
CONTINUOUS
10
1.22182
20
1.60811
11
1.22168
21
1.60887
0
LINE
8
BLACK
6
CONTINUOUS
10
1.22168
20
1.60887
11
1.22142
21
1.60959
0
LINE
8
BLACK
6
CONTINUOUS
10
1.22142
20
1.60959
11
1.22142
21
1.61567
0
LINE
8
BLACK
6
CONTINUOUS
10
1.22142
20
1.61567
11
0.0435827
21
1.61567
0
LINE
8
BLACK
6
CONTINUOUS
10
0.0435827
20
1.61567
11
0.0435827
21
0.359764
0
LINE
8
BLACK
6
CONTINUOUS
10
0.0435827
20
0.359764
11
1.29949
21
0.359764
0
LINE
8
BLACK
6
CONTINUOUS
10
1.29949
20
0.359764
11
1.29949
21
1.61567
0
LINE
8
BLACK
6
CONTINUOUS
10
1.29949
20
1.61567
11
1.29294
21
1.61567
0
LINE
8
BLACK
6
CONTINUOUS
10
1.22733
20
1.61567
11
1.22733
21
1.61254
0
LINE
8
BLACK
6
CONTINUOUS
10
1.22733
20
1.61254
11
1.23867
21
1.61254
0
LINE
8
BLACK
6
CONTINUOUS
10
1.23867
20
1.61254
11
1.24137
21
1.61389
0
LINE
8
BLACK
6
CONTINUOUS
10
1.24137
20
1.61389
11
1.24257
21
1.61509
0
LINE
8
BLACK
6
CONTINUOUS
10
1.24257
20
1.61509
11
1.24286
21
1.61567
0
LINE
8
BLACK
6
CONTINUOUS
10
1.24286
20
1.61567
11
1.22733
21
1.61567
0
LINE
8
BLACK
6
CONTINUOUS
10
1.22733
20
1.62726
11
1.22733
21
1.61961
0
LINE
8
BLACK
6
CONTINUOUS
10
1.22733
20
1.61961
11
1.24392
21
1.61961
0
LINE
8
BLACK
6
CONTINUOUS
10
1.24392
20
1.61961
11
1.24392
21
1.62202
0
LINE
8
BLACK
6
CONTINUOUS
10
1.24392
20
1.62202
11
1.24257
21
1.62472
0
LINE
8
BLACK
6
CONTINUOUS
10
1.24257
20
1.62472
11
1.24153
21
1.62576
0
LINE
8
BLACK
6
CONTINUOUS
10
1.24153
20
1.62576
11
1.23702
21
1.62726
0
LINE
8
BLACK
6
CONTINUOUS
10
1.23702
20
1.62726
11
1.22733
21
1.62726
0
LINE
8
BLACK
6
CONTINUOUS
10
1.2667
20
1.61961
11
1.27418
21
1.61961
0
LINE
8
BLACK
6
CONTINUOUS
10
1.27418
20
1.61961
11
1.2667
21
1.63565
0
LINE
8
BLACK
6
CONTINUOUS
10
1.2667
20
1.63565
11
1.2667
21
1.61961
0
LINE
8
BLACK
6
CONTINUOUS
10
1.27955
20
1.61961
11
1.28704
21
1.61961
0
LINE
8
BLACK
6
CONTINUOUS
10
1.28704
20
1.61961
11
1.28704
21
1.63565
0
LINE
8
BLACK
6
CONTINUOUS
10
1.28704
20
1.63565
11
1.27955
21
1.61961
0
LINE
8
BLACK
6
CONTINUOUS
10
1.22733
20
1.64601
11
1.22733
21
1.63317
0
LINE
8
BLACK
6
CONTINUOUS
10
1.22733
20
1.63317
11
1.2368
21
1.63317
0
LINE
8
BLACK
6
CONTINUOUS
10
1.2368
20
1.63317
11
1.2395
21
1.63452
0
LINE
8
BLACK
6
CONTINUOUS
10
1.2395
20
1.63452
11
1.24069
21
1.63571
0
LINE
8
BLACK
6
CONTINUOUS
10
1.24069
20
1.63571
11
1.24204
21
1.63841
0
LINE
8
BLACK
6
CONTINUOUS
10
1.24204
20
1.63841
11
1.24204
21
1.64077
0
LINE
8
BLACK
6
CONTINUOUS
10
1.24204
20
1.64077
11
1.24069
21
1.64346
0
LINE
8
BLACK
6
CONTINUOUS
10
1.24069
20
1.64346
11
1.2395
21
1.64466
0
LINE
8
BLACK
6
CONTINUOUS
10
1.2395
20
1.64466
11
1.2368
21
1.64601
0
LINE
8
BLACK
6
CONTINUOUS
10
1.2368
20
1.64601
11
1.22733
21
1.64601
0
LINE
8
BLACK
6
CONTINUOUS
10
0.216915
20
0.367821
11
0.216339
21
0.369213
0
LINE
8
BLACK
6
CONTINUOUS
10
0.216339
20
0.369213
11
0.216339
21
1.4322
0
LINE
8
BLACK
6
CONTINUOUS
10
0.216339
20
1.4322
11
0.216915
21
1.4336
0
LINE
8
BLACK
6
CONTINUOUS
10
0.216915
20
1.4336
11
0.218307
21
1.43417
0
LINE
8
BLACK
6
CONTINUOUS
10
0.218307
20
1.43417
11
0.777362
21
1.43417
0
LINE
8
BLACK
6
CONTINUOUS
10
0.777362
20
1.43417
11
0.778754
21
1.4336
0
LINE
8
BLACK
6
CONTINUOUS
10
0.778754
20
1.4336
11
0.779331
21
1.4322
0
LINE
8
BLACK
6
CONTINUOUS
10
0.779331
20
1.4322
11
0.779331
21
0.369213
0
LINE
8
BLACK
6
CONTINUOUS
10
0.779331
20
0.369213
11
0.778754
21
0.367821
0
LINE
8
BLACK
6
CONTINUOUS
10
0.778754
20
0.367821
11
0.777362
21
0.367244
0
LINE
8
BLACK
6
CONTINUOUS
10
0.777362
20
0.367244
11
0.218307
21
0.367244
0
LINE
8
BLACK
6
CONTINUOUS
10
0.218307
20
0.367244
11
0.216915
21
0.367821
0
LINE
8
BLACK
6
CONTINUOUS
10
0.220276
20
1.43024
11
0.220276
21
0.371181
0
LINE
8
BLACK
6
CONTINUOUS
10
0.220276
20
0.371181
11
0.775394
21
0.371181
0
LINE
8
BLACK
6
CONTINUOUS
10
0.775394
20
0.371181
11
0.775394
21
1.43024
0
LINE
8
BLACK
6
CONTINUOUS
10
0.775394
20
1.43024
11
0.220276
21
1.43024
0
LINE
8
BLACK
6
CONTINUOUS
10
0.698792
20
1.01205
11
0.698927
21
1.01194
0
LINE
8
BLACK
6
CONTINUOUS
10
0.698927
20
1.01194
11
0.699103
21
1.01192
0
LINE
8
BLACK
6
CONTINUOUS
10
0.699103
20
1.01192
11
0.702852
21
1.01004
0
LINE
8
BLACK
6
CONTINUOUS
10
0.702852
20
1.01004
11
0.703561
21
1.00952
0
LINE
8
BLACK
6
CONTINUOUS
10
0.703561
20
1.00952
11
0.70362
21
1.00949
0
LINE
8
BLACK
6
CONTINUOUS
10
0.70362
20
1.00949
11
0.705494
21
1.00761
0
LINE
8
BLACK
6
CONTINUOUS
10
0.705494
20
1.00761
11
0.706001
21
1.00689
0
LINE
8
BLACK
6
CONTINUOUS
10
0.706001
20
1.00689
11
0.706047
21
1.00685
0
LINE
8
BLACK
6
CONTINUOUS
10
0.706047
20
1.00685
11
0.707922
21
1.0031
0
LINE
8
BLACK
6
CONTINUOUS
10
0.707922
20
1.0031
11
0.708215
21
1.00211
0
LINE
8
BLACK
6
CONTINUOUS
10
0.708215
20
1.00211
11
0.708174
21
1.00194
0
LINE
8
BLACK
6
CONTINUOUS
10
0.708174
20
1.00194
11
0.708234
21
1.00178
0
LINE
8
BLACK
6
CONTINUOUS
10
0.708234
20
1.00178
11
0.708234
21
0.999903
0
LINE
8
BLACK
6
CONTINUOUS
10
0.708234
20
0.999903
11
0.708056
21
0.998893
0
LINE
8
BLACK
6
CONTINUOUS
10
0.708056
20
0.998893
11
0.707942
21
0.998757
0
LINE
8
BLACK
6
CONTINUOUS
10
0.707942
20
0.998757
11
0.707922
21
0.998582
0
LINE
8
BLACK
6
CONTINUOUS
10
0.707922
20
0.998582
11
0.706047
21
0.994832
0
LINE
8
BLACK
6
CONTINUOUS
10
0.706047
20
0.994832
11
0.705522
21
0.994123
0
LINE
8
BLACK
6
CONTINUOUS
10
0.705522
20
0.994123
11
0.705494
21
0.994065
0
LINE
8
BLACK
6
CONTINUOUS
10
0.705494
20
0.994065
11
0.703833
21
0.992403
0
LINE
8
BLACK
6
CONTINUOUS
10
0.703833
20
0.992403
11
0.705494
21
0.990742
0
LINE
8
BLACK
6
CONTINUOUS
10
0.705494
20
0.990742
11
0.706001
21
0.990019
0
LINE
8
BLACK
6
CONTINUOUS
10
0.706001
20
0.990019
11
0.706047
21
0.989974
0
LINE
8
BLACK
6
CONTINUOUS
10
0.706047
20
0.989974
11
0.707922
21
0.986225
0
LINE
8
BLACK
6
CONTINUOUS
10
0.707922
20
0.986225
11
0.708215
21
0.985242
0
LINE
8
BLACK
6
CONTINUOUS
10
0.708215
20
0.985242
11
0.708174
21
0.98507
0
LINE
8
BLACK
6
CONTINUOUS
10
0.708174
20
0.98507
11
0.708234
21
0.984904
0
LINE
8
BLACK
6
CONTINUOUS
10
0.708234
20
0.984904
11
0.708234
21
0.977405
0
LINE
8
BLACK
6
CONTINUOUS
10
0.708234
20
0.977405
11
0.708056
21
0.976395
0
LINE
8
BLACK
6
CONTINUOUS
10
0.708056
20
0.976395
11
0.707942
21
0.97626
0
LINE
8
BLACK
6
CONTINUOUS
10
0.707942
20
0.97626
11
0.707922
21
0.976085
0
LINE
8
BLACK
6
CONTINUOUS
10
0.707922
20
0.976085
11
0.706047
21
0.972335
0
LINE
8
BLACK
6
CONTINUOUS
10
0.706047
20
0.972335
11
0.705522
21
0.971626
0
LINE
8
BLACK
6
CONTINUOUS
10
0.705522
20
0.971626
11
0.705494
21
0.971568
0
LINE
8
BLACK
6
CONTINUOUS
10
0.705494
20
0.971568
11
0.70362
21
0.969693
0
LINE
8
BLACK
6
CONTINUOUS
10
0.70362
20
0.969693
11
0.702896
21
0.969187
0
LINE
8
BLACK
6
CONTINUOUS
10
0.702896
20
0.969187
11
0.702852
21
0.96914
0
LINE
8
BLACK
6
CONTINUOUS
10
0.702852
20
0.96914
11
0.699103
21
0.967265
0
LINE
8
BLACK
6
CONTINUOUS
10
0.699103
20
0.967265
11
0.69812
21
0.966973
0
LINE
8
BLACK
6
CONTINUOUS
10
0.69812
20
0.966973
11
0.697948
21
0.967014
0
LINE
8
BLACK
6
CONTINUOUS
10
0.697948
20
0.967014
11
0.697782
21
0.966954
0
LINE
8
BLACK
6
CONTINUOUS
10
0.697782
20
0.966954
11
0.690283
21
0.966954
0
LINE
8
BLACK
6
CONTINUOUS
10
0.690283
20
0.966954
11
0.689273
21
0.967132
0
LINE
8
BLACK
6
CONTINUOUS
10
0.689273
20
0.967132
11
0.689138
21
0.967245
0
LINE
8
BLACK
6
CONTINUOUS
10
0.689138
20
0.967245
11
0.688963
21
0.967265
0
LINE
8
BLACK
6
CONTINUOUS
10
0.688963
20
0.967265
11
0.685213
21
0.96914
0
LINE
8
BLACK
6
CONTINUOUS
10
0.685213
20
0.96914
11
0.684504
21
0.969666
0
LINE
8
BLACK
6
CONTINUOUS
10
0.684504
20
0.969666
11
0.684446
21
0.969693
0
LINE
8
BLACK
6
CONTINUOUS
10
0.684446
20
0.969693
11
0.682571
21
0.971568
0
LINE
8
BLACK
6
CONTINUOUS
10
0.682571
20
0.971568
11
0.682065
21
0.972291
0
LINE
8
BLACK
6
CONTINUOUS
10
0.682065
20
0.972291
11
0.682018
21
0.972335
0
LINE
8
BLACK
6
CONTINUOUS
10
0.682018
20
0.972335
11
0.680143
21
0.976085
0
LINE
8
BLACK
6
CONTINUOUS
10
0.680143
20
0.976085
11
0.679851
21
0.977068
0
LINE
8
BLACK
6
CONTINUOUS
10
0.679851
20
0.977068
11
0.679892
21
0.977239
0
LINE
8
BLACK
6
CONTINUOUS
10
0.679892
20
0.977239
11
0.679831
21
0.977405
0
LINE
8
BLACK
6
CONTINUOUS
10
0.679831
20
0.977405
11
0.679831
21
0.984904
0
LINE
8
BLACK
6
CONTINUOUS
10
0.679831
20
0.984904
11
0.680009
21
0.985914
0
LINE
8
BLACK
6
CONTINUOUS
10
0.680009
20
0.985914
11
0.680123
21
0.98605
0
LINE
8
BLACK
6
CONTINUOUS
10
0.680123
20
0.98605
11
0.680143
21
0.986225
0
LINE
8
BLACK
6
CONTINUOUS
10
0.680143
20
0.986225
11
0.682018
21
0.989974
0
LINE
8
BLACK
6
CONTINUOUS
10
0.682018
20
0.989974
11
0.682544
21
0.990684
0
LINE
8
BLACK
6
CONTINUOUS
10
0.682544
20
0.990684
11
0.682571
21
0.990742
0
LINE
8
BLACK
6
CONTINUOUS
10
0.682571
20
0.990742
11
0.684232
21
0.992403
0
LINE
8
BLACK
6
CONTINUOUS
10
0.684232
20
0.992403
11
0.682571
21
0.994065
0
LINE
8
BLACK
6
CONTINUOUS
10
0.682571
20
0.994065
11
0.682065
21
0.994788
0
LINE
8
BLACK
6
CONTINUOUS
10
0.682065
20
0.994788
11
0.682018
21
0.994832
0
LINE
8
BLACK
6
CONTINUOUS
10
0.682018
20
0.994832
11
0.680143
21
0.998582
0
LINE
8
BLACK
6
CONTINUOUS
10
0.680143
20
0.998582
11
0.679851
21
0.999565
0
LINE
8
BLACK
6
CONTINUOUS
10
0.679851
20
0.999565
11
0.679892
21
0.999737
0
LINE
8
BLACK
6
CONTINUOUS
10
0.679892
20
0.999737
11
0.679831
21
0.999903
0
LINE
8
BLACK
6
CONTINUOUS
10
0.679831
20
0.999903
11
0.679831
21
1.00178
0
LINE
8
BLACK
6
CONTINUOUS
10
0.679831
20
1.00178
11
0.680009
21
1.00279
0
LINE
8
BLACK
6
CONTINUOUS
10
0.680009
20
1.00279
11
0.680123
21
1.00292
0
LINE
8
BLACK
6
CONTINUOUS
10
0.680123
20
1.00292
11
0.680143
21
1.0031
0
LINE
8
BLACK
6
CONTINUOUS
10
0.680143
20
1.0031
11
0.682018
21
1.00685
0
LINE
8
BLACK
6
CONTINUOUS
10
0.682018
20
1.00685
11
0.682544
21
1.00756
0
LINE
8
BLACK
6
CONTINUOUS
10
0.682544
20
1.00756
11
0.682571
21
1.00761
0
LINE
8
BLACK
6
CONTINUOUS
10
0.682571
20
1.00761
11
0.684446
21
1.00949
0
LINE
8
BLACK
6
CONTINUOUS
10
0.684446
20
1.00949
11
0.685169
21
1.01
0
LINE
8
BLACK
6
CONTINUOUS
10
0.685169
20
1.01
11
0.685213
21
1.01004
0
LINE
8
BLACK
6
CONTINUOUS
10
0.685213
20
1.01004
11
0.688963
21
1.01192
0
LINE
8
BLACK
6
CONTINUOUS
10
0.688963
20
1.01192
11
0.689945
21
1.01221
0
LINE
8
BLACK
6
CONTINUOUS
10
0.689945
20
1.01221
11
0.690117
21
1.01217
0
LINE
8
BLACK
6
CONTINUOUS
10
0.690117
20
1.01217
11
0.690283
21
1.01223
0
LINE
8
BLACK
6
CONTINUOUS
10
0.690283
20
1.01223
11
0.697782
21
1.01223
0
LINE
8
BLACK
6
CONTINUOUS
10
0.697782
20
1.01223
11
0.698792
21
1.01205
0
LINE
8
BLACK
6
CONTINUOUS
10
0.69098
20
0.989451
11
0.688283
21
0.988102
0
LINE
8
BLACK
6
CONTINUOUS
10
0.688283
20
0.988102
11
0.687086
21
0.986905
0
LINE
8
BLACK
6
CONTINUOUS
10
0.687086
20
0.986905
11
0.685737
21
0.984207
0
LINE
8
BLACK
6
CONTINUOUS
10
0.685737
20
0.984207
11
0.685737
21
0.978102
0
LINE
8
BLACK
6
CONTINUOUS
10
0.685737
20
0.978102
11
0.687086
21
0.975405
0
LINE
8
BLACK
6
CONTINUOUS
10
0.687086
20
0.975405
11
0.688283
21
0.974208
0
LINE
8
BLACK
6
CONTINUOUS
10
0.688283
20
0.974208
11
0.69098
21
0.972859
0
LINE
8
BLACK
6
CONTINUOUS
10
0.69098
20
0.972859
11
0.697085
21
0.972859
0
LINE
8
BLACK
6
CONTINUOUS
10
0.697085
20
0.972859
11
0.699783
21
0.974208
0
LINE
8
BLACK
6
CONTINUOUS
10
0.699783
20
0.974208
11
0.70098
21
0.975405
0
LINE
8
BLACK
6
CONTINUOUS
10
0.70098
20
0.975405
11
0.702328
21
0.978102
0
LINE
8
BLACK
6
CONTINUOUS
10
0.702328
20
0.978102
11
0.702328
21
0.984207
0
LINE
8
BLACK
6
CONTINUOUS
10
0.702328
20
0.984207
11
0.70098
21
0.986905
0
LINE
8
BLACK
6
CONTINUOUS
10
0.70098
20
0.986905
11
0.699783
21
0.988102
0
LINE
8
BLACK
6
CONTINUOUS
10
0.699783
20
0.988102
11
0.697085
21
0.989451
0
LINE
8
BLACK
6
CONTINUOUS
10
0.697085
20
0.989451
11
0.69098
21
0.989451
0
LINE
8
BLACK
6
CONTINUOUS
10
0.69098
20
1.00632
11
0.688283
21
1.00497
0
LINE
8
BLACK
6
CONTINUOUS
10
0.688283
20
1.00497
11
0.687086
21
1.00378
0
LINE
8
BLACK
6
CONTINUOUS
10
0.687086
20
1.00378
11
0.685737
21
1.00108
0
LINE
8
BLACK
6
CONTINUOUS
10
0.685737
20
1.00108
11
0.685737
21
1.0006
0
LINE
8
BLACK
6
CONTINUOUS
10
0.685737
20
1.0006
11
0.687086
21
0.997902
0
LINE
8
BLACK
6
CONTINUOUS
10
0.687086
20
0.997902
11
0.688283
21
0.996705
0
LINE
8
BLACK
6
CONTINUOUS
10
0.688283
20
0.996705
11
0.69098
21
0.995356
0
LINE
8
BLACK
6
CONTINUOUS
10
0.69098
20
0.995356
11
0.697085
21
0.995356
0
LINE
8
BLACK
6
CONTINUOUS
10
0.697085
20
0.995356
11
0.699783
21
0.996705
0
LINE
8
BLACK
6
CONTINUOUS
10
0.699783
20
0.996705
11
0.70098
21
0.997902
0
LINE
8
BLACK
6
CONTINUOUS
10
0.70098
20
0.997902
11
0.702328
21
1.0006
0
LINE
8
BLACK
6
CONTINUOUS
10
0.702328
20
1.0006
11
0.702328
21
1.00108
0
LINE
8
BLACK
6
CONTINUOUS
10
0.702328
20
1.00108
11
0.70098
21
1.00378
0
LINE
8
BLACK
6
CONTINUOUS
10
0.70098
20
1.00378
11
0.699783
21
1.00497
0
LINE
8
BLACK
6
CONTINUOUS
10
0.699783
20
1.00497
11
0.697085
21
1.00632
0
LINE
8
BLACK
6
CONTINUOUS
10
0.697085
20
1.00632
11
0.69098
21
1.00632
0
LINE
8
BLACK
6
CONTINUOUS
10
0.639452
20
1.05418
11
0.639587
21
1.05406
0
LINE
8
BLACK
6
CONTINUOUS
10
0.639587
20
1.05406
11
0.639763
21
1.05404
0
LINE
8
BLACK
6
CONTINUOUS
10
0.639763
20
1.05404
11
0.643512
21
1.05217
0
LINE
8
BLACK
6
CONTINUOUS
10
0.643512
20
1.05217
11
0.644221
21
1.05164
0
LINE
8
BLACK
6
CONTINUOUS
10
0.644221
20
1.05164
11
0.644279
21
1.05162
0
LINE
8
BLACK
6
CONTINUOUS
10
0.644279
20
1.05162
11
0.646154
21
1.04974
0
LINE
8
BLACK
6
CONTINUOUS
10
0.646154
20
1.04974
11
0.646661
21
1.04902
0
LINE
8
BLACK
6
CONTINUOUS
10
0.646661
20
1.04902
11
0.646707
21
1.04897
0
LINE
8
BLACK
6
CONTINUOUS
10
0.646707
20
1.04897
11
0.648582
21
1.04522
0
LINE
8
BLACK
6
CONTINUOUS
10
0.648582
20
1.04522
11
0.648874
21
1.04424
0
LINE
8
BLACK
6
CONTINUOUS
10
0.648874
20
1.04424
11
0.648833
21
1.04407
0
LINE
8
BLACK
6
CONTINUOUS
10
0.648833
20
1.04407
11
0.648894
21
1.0439
0
LINE
8
BLACK
6
CONTINUOUS
10
0.648894
20
1.0439
11
0.648894
21
1.02891
0
LINE
8
BLACK
6
CONTINUOUS
10
0.648894
20
1.02891
11
0.648792
21
1.02832
0
LINE
8
BLACK
6
CONTINUOUS
10
0.648792
20
1.02832
11
0.648806
21
1.02819
0
LINE
8
BLACK
6
CONTINUOUS
10
0.648806
20
1.02819
11
0.646931
21
1.02069
0
LINE
8
BLACK
6
CONTINUOUS
10
0.646931
20
1.02069
11
0.646527
21
1.01978
0
LINE
8
BLACK
6
CONTINUOUS
10
0.646527
20
1.01978
11
0.646523
21
1.01977
0
LINE
8
BLACK
6
CONTINUOUS
10
0.646523
20
1.01977
11
0.642774
21
1.01414
0
LINE
8
BLACK
6
CONTINUOUS
10
0.642774
20
1.01414
11
0.642463
21
1.01382
0
LINE
8
BLACK
6
CONTINUOUS
10
0.642463
20
1.01382
11
0.642405
21
1.01369
0
LINE
8
BLACK
6
CONTINUOUS
10
0.642405
20
1.01369
11
0.640684
21
1.01197
0
LINE
8
BLACK
6
CONTINUOUS
10
0.640684
20
1.01197
11
0.640911
21
1.01195
0
LINE
8
BLACK
6
CONTINUOUS
10
0.640911
20
1.01195
11
0.641368
21
1.0115
0
LINE
8
BLACK
6
CONTINUOUS
10
0.641368
20
1.0115
11
0.641926
21
1.01117
0
LINE
8
BLACK
6
CONTINUOUS
10
0.641926
20
1.01117
11
0.642061
21
1.0108
0
LINE
8
BLACK
6
CONTINUOUS
10
0.642061
20
1.0108
11
0.64234
21
1.01053
0
LINE
8
BLACK
6
CONTINUOUS
10
0.64234
20
1.01053
11
0.652788
21
0.988137
0
LINE
8
BLACK
6
CONTINUOUS
10
0.652788
20
0.988137
11
0.663235
21
1.01053
0
LINE
8
BLACK
6
CONTINUOUS
10
0.663235
20
1.01053
11
0.663824
21
1.01136
0
LINE
8
BLACK
6
CONTINUOUS
10
0.663824
20
1.01136
11
0.664181
21
1.01153
0
LINE
8
BLACK
6
CONTINUOUS
10
0.664181
20
1.01153
11
0.664435
21
1.01183
0
LINE
8
BLACK
6
CONTINUOUS
10
0.664435
20
1.01183
11
0.66507
21
1.01195
0
LINE
8
BLACK
6
CONTINUOUS
10
0.66507
20
1.01195
11
0.665655
21
1.01222
0
LINE
8
BLACK
6
CONTINUOUS
10
0.665655
20
1.01222
11
0.666036
21
1.01212
0
LINE
8
BLACK
6
CONTINUOUS
10
0.666036
20
1.01212
11
0.666424
21
1.01218
0
LINE
8
BLACK
6
CONTINUOUS
10
0.666424
20
1.01218
11
0.666982
21
1.01186
0
LINE
8
BLACK
6
CONTINUOUS
10
0.666982
20
1.01186
11
0.667605
21
1.01169
0
LINE
8
BLACK
6
CONTINUOUS
10
0.667605
20
1.01169
11
0.667832
21
1.01137
0
LINE
8
BLACK
6
CONTINUOUS
10
0.667832
20
1.01137
11
0.668173
21
1.01117
0
LINE
8
BLACK
6
CONTINUOUS
10
0.668173
20
1.01117
11
0.668394
21
1.01057
0
LINE
8
BLACK
6
CONTINUOUS
10
0.668394
20
1.01057
11
0.668763
21
1.01004
0
LINE
8
BLACK
6
CONTINUOUS
10
0.668763
20
1.01004
11
0.668729
21
1.00965
0
LINE
8
BLACK
6
CONTINUOUS
10
0.668729
20
1.00965
11
0.668864
21
1.00928
0
LINE
8
BLACK
6
CONTINUOUS
10
0.668864
20
1.00928
11
0.668864
21
0.969906
0
LINE
8
BLACK
6
CONTINUOUS
10
0.668864
20
0.969906
11
0.668686
21
0.968896
0
LINE
8
BLACK
6
CONTINUOUS
10
0.668686
20
0.968896
11
0.667387
21
0.967349
0
LINE
8
BLACK
6
CONTINUOUS
10
0.667387
20
0.967349
11
0.665398
21
0.966998
0
LINE
8
BLACK
6
CONTINUOUS
10
0.665398
20
0.966998
11
0.663649
21
0.968008
0
LINE
8
BLACK
6
CONTINUOUS
10
0.663649
20
0.968008
11
0.662958
21
0.969906
0
LINE
8
BLACK
6
CONTINUOUS
10
0.662958
20
0.969906
11
0.662958
21
0.995967
0
LINE
8
BLACK
6
CONTINUOUS
10
0.662958
20
0.995967
11
0.655464
21
0.979906
0
LINE
8
BLACK
6
CONTINUOUS
10
0.655464
20
0.979906
11
0.655241
21
0.979588
0
LINE
8
BLACK
6
CONTINUOUS
10
0.655241
20
0.979588
11
0.655207
21
0.979462
0
LINE
8
BLACK
6
CONTINUOUS
10
0.655207
20
0.979462
11
0.655099
21
0.979386
0
LINE
8
BLACK
6
CONTINUOUS
10
0.655099
20
0.979386
11
0.654875
21
0.979066
0
LINE
8
BLACK
6
CONTINUOUS
10
0.654875
20
0.979066
11
0.654181
21
0.978743
0
LINE
8
BLACK
6
CONTINUOUS
10
0.654181
20
0.978743
11
0.653553
21
0.978303
0
LINE
8
BLACK
6
CONTINUOUS
10
0.653553
20
0.978303
11
0.653286
21
0.978326
0
LINE
8
BLACK
6
CONTINUOUS
10
0.653286
20
0.978326
11
0.653044
21
0.978213
0
LINE
8
BLACK
6
CONTINUOUS
10
0.653044
20
0.978213
11
0.652304
21
0.978412
0
LINE
8
BLACK
6
CONTINUOUS
10
0.652304
20
0.978412
11
0.651541
21
0.978478
0
LINE
8
BLACK
6
CONTINUOUS
10
0.651541
20
0.978478
11
0.651352
21
0.978667
0
LINE
8
BLACK
6
CONTINUOUS
10
0.651352
20
0.978667
11
0.651093
21
0.978737
0
LINE
8
BLACK
6
CONTINUOUS
10
0.651093
20
0.978737
11
0.650654
21
0.979364
0
LINE
8
BLACK
6
CONTINUOUS
10
0.650654
20
0.979364
11
0.650112
21
0.979906
0
LINE
8
BLACK
6
CONTINUOUS
10
0.650112
20
0.979906
11
0.642617
21
0.995967
0
LINE
8
BLACK
6
CONTINUOUS
10
0.642617
20
0.995967
11
0.642617
21
0.969906
0
LINE
8
BLACK
6
CONTINUOUS
10
0.642617
20
0.969906
11
0.642439
21
0.968896
0
LINE
8
BLACK
6
CONTINUOUS
10
0.642439
20
0.968896
11
0.641141
21
0.967349
0
LINE
8
BLACK
6
CONTINUOUS
10
0.641141
20
0.967349
11
0.639152
21
0.966998
0
LINE
8
BLACK
6
CONTINUOUS
10
0.639152
20
0.966998
11
0.637402
21
0.968008
0
LINE
8
BLACK
6
CONTINUOUS
10
0.637402
20
0.968008
11
0.636712
21
0.969906
0
LINE
8
BLACK
6
CONTINUOUS
10
0.636712
20
0.969906
11
0.636712
21
1.00928
0
LINE
8
BLACK
6
CONTINUOUS
10
0.636712
20
1.00928
11
0.636801
21
1.00979
0
LINE
8
BLACK
6
CONTINUOUS
10
0.636801
20
1.00979
11
0.636013
21
1.00939
0
LINE
8
BLACK
6
CONTINUOUS
10
0.636013
20
1.00939
11
0.63503
21
1.0091
0
LINE
8
BLACK
6
CONTINUOUS
10
0.63503
20
1.0091
11
0.634858
21
1.00914
0
LINE
8
BLACK
6
CONTINUOUS
10
0.634858
20
1.00914
11
0.634693
21
1.00908
0
LINE
8
BLACK
6
CONTINUOUS
10
0.634693
20
1.00908
11
0.627193
21
1.00908
0
LINE
8
BLACK
6
CONTINUOUS
10
0.627193
20
1.00908
11
0.626184
21
1.00926
0
LINE
8
BLACK
6
CONTINUOUS
10
0.626184
20
1.00926
11
0.624636
21
1.01056
0
LINE
8
BLACK
6
CONTINUOUS
10
0.624636
20
1.01056
11
0.624286
21
1.01255
0
LINE
8
BLACK
6
CONTINUOUS
10
0.624286
20
1.01255
11
0.625295
21
1.01429
0
LINE
8
BLACK
6
CONTINUOUS
10
0.625295
20
1.01429
11
0.627193
21
1.01499
0
LINE
8
BLACK
6
CONTINUOUS
10
0.627193
20
1.01499
11
0.633995
21
1.01499
0
LINE
8
BLACK
6
CONTINUOUS
10
0.633995
20
1.01499
11
0.636693
21
1.01633
0
LINE
8
BLACK
6
CONTINUOUS
10
0.636693
20
1.01633
11
0.638022
21
1.01766
0
LINE
8
BLACK
6
CONTINUOUS
10
0.638022
20
1.01766
11
0.641326
21
1.02262
0
LINE
8
BLACK
6
CONTINUOUS
10
0.641326
20
1.02262
11
0.642055
21
1.02554
0
LINE
8
BLACK
6
CONTINUOUS
10
0.642055
20
1.02554
11
0.639763
21
1.02439
0
LINE
8
BLACK
6
CONTINUOUS
10
0.639763
20
1.02439
11
0.63878
21
1.0241
0
LINE
8
BLACK
6
CONTINUOUS
10
0.63878
20
1.0241
11
0.638608
21
1.02414
0
LINE
8
BLACK
6
CONTINUOUS
10
0.638608
20
1.02414
11
0.638442
21
1.02408
0
LINE
8
BLACK
6
CONTINUOUS
10
0.638442
20
1.02408
11
0.630943
21
1.02408
0
LINE
8
BLACK
6
CONTINUOUS
10
0.630943
20
1.02408
11
0.629933
21
1.02426
0
LINE
8
BLACK
6
CONTINUOUS
10
0.629933
20
1.02426
11
0.629798
21
1.02437
0
LINE
8
BLACK
6
CONTINUOUS
10
0.629798
20
1.02437
11
0.629622
21
1.02439
0
LINE
8
BLACK
6
CONTINUOUS
10
0.629622
20
1.02439
11
0.625873
21
1.02626
0
LINE
8
BLACK
6
CONTINUOUS
10
0.625873
20
1.02626
11
0.625164
21
1.02679
0
LINE
8
BLACK
6
CONTINUOUS
10
0.625164
20
1.02679
11
0.625106
21
1.02682
0
LINE
8
BLACK
6
CONTINUOUS
10
0.625106
20
1.02682
11
0.623231
21
1.02869
0
LINE
8
BLACK
6
CONTINUOUS
10
0.623231
20
1.02869
11
0.622724
21
1.02942
0
LINE
8
BLACK
6
CONTINUOUS
10
0.622724
20
1.02942
11
0.622678
21
1.02946
0
LINE
8
BLACK
6
CONTINUOUS
10
0.622678
20
1.02946
11
0.620803
21
1.03321
0
LINE
8
BLACK
6
CONTINUOUS
10
0.620803
20
1.03321
11
0.620511
21
1.03419
0
LINE
8
BLACK
6
CONTINUOUS
10
0.620511
20
1.03419
11
0.620552
21
1.03436
0
LINE
8
BLACK
6
CONTINUOUS
10
0.620552
20
1.03436
11
0.620491
21
1.03453
0
LINE
8
BLACK
6
CONTINUOUS
10
0.620491
20
1.03453
11
0.620491
21
1.0439
0
LINE
8
BLACK
6
CONTINUOUS
10
0.620491
20
1.0439
11
0.620669
21
1.04491
0
LINE
8
BLACK
6
CONTINUOUS
10
0.620669
20
1.04491
11
0.620783
21
1.04505
0
LINE
8
BLACK
6
CONTINUOUS
10
0.620783
20
1.04505
11
0.620803
21
1.04522
0
LINE
8
BLACK
6
CONTINUOUS
10
0.620803
20
1.04522
11
0.622678
21
1.04897
0
LINE
8
BLACK
6
CONTINUOUS
10
0.622678
20
1.04897
11
0.623204
21
1.04968
0
LINE
8
BLACK
6
CONTINUOUS
10
0.623204
20
1.04968
11
0.623231
21
1.04974
0
LINE
8
BLACK
6
CONTINUOUS
10
0.623231
20
1.04974
11
0.625106
21
1.05162
0
LINE
8
BLACK
6
CONTINUOUS
10
0.625106
20
1.05162
11
0.625829
21
1.05212
0
LINE
8
BLACK
6
CONTINUOUS
10
0.625829
20
1.05212
11
0.625873
21
1.05217
0
LINE
8
BLACK
6
CONTINUOUS
10
0.625873
20
1.05217
11
0.629622
21
1.05404
0
LINE
8
BLACK
6
CONTINUOUS
10
0.629622
20
1.05404
11
0.630605
21
1.05434
0
LINE
8
BLACK
6
CONTINUOUS
10
0.630605
20
1.05434
11
0.630777
21
1.05429
0
LINE
8
BLACK
6
CONTINUOUS
10
0.630777
20
1.05429
11
0.630943
21
1.05436
0
LINE
8
BLACK
6
CONTINUOUS
10
0.630943
20
1.05436
11
0.638442
21
1.05436
0
LINE
8
BLACK
6
CONTINUOUS
10
0.638442
20
1.05436
11
0.639452
21
1.05418
0
LINE
8
BLACK
6
CONTINUOUS
10
0.63164
20
1.04845
11
0.628943
21
1.0471
0
LINE
8
BLACK
6
CONTINUOUS
10
0.628943
20
1.0471
11
0.627745
21
1.0459
0
LINE
8
BLACK
6
CONTINUOUS
10
0.627745
20
1.0459
11
0.626397
21
1.04321
0
LINE
8
BLACK
6
CONTINUOUS
10
0.626397
20
1.04321
11
0.626397
21
1.03523
0
LINE
8
BLACK
6
CONTINUOUS
10
0.626397
20
1.03523
11
0.627745
21
1.03253
0
LINE
8
BLACK
6
CONTINUOUS
10
0.627745
20
1.03253
11
0.628943
21
1.03133
0
LINE
8
BLACK
6
CONTINUOUS
10
0.628943
20
1.03133
11
0.63164
21
1.02998
0
LINE
8
BLACK
6
CONTINUOUS
10
0.63164
20
1.02998
11
0.637745
21
1.02998
0
LINE
8
BLACK
6
CONTINUOUS
10
0.637745
20
1.02998
11
0.640442
21
1.03133
0
LINE
8
BLACK
6
CONTINUOUS
10
0.640442
20
1.03133
11
0.64164
21
1.03253
0
LINE
8
BLACK
6
CONTINUOUS
10
0.64164
20
1.03253
11
0.642988
21
1.03523
0
LINE
8
BLACK
6
CONTINUOUS
10
0.642988
20
1.03523
11
0.642988
21
1.04321
0
LINE
8
BLACK
6
CONTINUOUS
10
0.642988
20
1.04321
11
0.64164
21
1.0459
0
LINE
8
BLACK
6
CONTINUOUS
10
0.64164
20
1.0459
11
0.640442
21
1.0471
0
LINE
8
BLACK
6
CONTINUOUS
10
0.640442
20
1.0471
11
0.637745
21
1.04845
0
LINE
8
BLACK
6
CONTINUOUS
10
0.637745
20
1.04845
11
0.63164
21
1.04845
0
LINE
8
BLACK
6
CONTINUOUS
10
0.403231
20
1.05418
11
0.403367
21
1.05406
0
LINE
8
BLACK
6
CONTINUOUS
10
0.403367
20
1.05406
11
0.403542
21
1.05404
0
LINE
8
BLACK
6
CONTINUOUS
10
0.403542
20
1.05404
11
0.407292
21
1.05217
0
LINE
8
BLACK
6
CONTINUOUS
10
0.407292
20
1.05217
11
0.408001
21
1.05164
0
LINE
8
BLACK
6
CONTINUOUS
10
0.408001
20
1.05164
11
0.408059
21
1.05162
0
LINE
8
BLACK
6
CONTINUOUS
10
0.408059
20
1.05162
11
0.409934
21
1.04974
0
LINE
8
BLACK
6
CONTINUOUS
10
0.409934
20
1.04974
11
0.41044
21
1.04902
0
LINE
8
BLACK
6
CONTINUOUS
10
0.41044
20
1.04902
11
0.410487
21
1.04897
0
LINE
8
BLACK
6
CONTINUOUS
10
0.410487
20
1.04897
11
0.412362
21
1.04522
0
LINE
8
BLACK
6
CONTINUOUS
10
0.412362
20
1.04522
11
0.412654
21
1.04424
0
LINE
8
BLACK
6
CONTINUOUS
10
0.412654
20
1.04424
11
0.412613
21
1.04407
0
LINE
8
BLACK
6
CONTINUOUS
10
0.412613
20
1.04407
11
0.412673
21
1.0439
0
LINE
8
BLACK
6
CONTINUOUS
10
0.412673
20
1.0439
11
0.412673
21
1.04015
0
LINE
8
BLACK
6
CONTINUOUS
10
0.412673
20
1.04015
11
0.41252
21
1.03928
0
LINE
8
BLACK
6
CONTINUOUS
10
0.41252
20
1.03928
11
0.412522
21
1.03922
0
LINE
8
BLACK
6
CONTINUOUS
10
0.412522
20
1.03922
11
0.410647
21
1.0336
0
LINE
8
BLACK
6
CONTINUOUS
10
0.410647
20
1.0336
11
0.410159
21
1.03269
0
LINE
8
BLACK
6
CONTINUOUS
10
0.410159
20
1.03269
11
0.410008
21
1.0326
0
LINE
8
BLACK
6
CONTINUOUS
10
0.410008
20
1.0326
11
0.409934
21
1.03244
0
LINE
8
BLACK
6
CONTINUOUS
10
0.409934
20
1.03244
11
0.392477
21
1.01499
0
LINE
8
BLACK
6
CONTINUOUS
10
0.392477
20
1.01499
11
0.409721
21
1.01499
0
LINE
8
BLACK
6
CONTINUOUS
10
0.409721
20
1.01499
11
0.410731
21
1.01481
0
LINE
8
BLACK
6
CONTINUOUS
10
0.410731
20
1.01481
11
0.412278
21
1.01351
0
LINE
8
BLACK
6
CONTINUOUS
10
0.412278
20
1.01351
11
0.412629
21
1.01152
0
LINE
8
BLACK
6
CONTINUOUS
10
0.412629
20
1.01152
11
0.411619
21
1.00977
0
LINE
8
BLACK
6
CONTINUOUS
10
0.411619
20
1.00977
11
0.409721
21
1.00908
0
LINE
8
BLACK
6
CONTINUOUS
10
0.409721
20
1.00908
11
0.385349
21
1.00908
0
LINE
8
BLACK
6
CONTINUOUS
10
0.385349
20
1.00908
11
0.384714
21
1.00919
0
LINE
8
BLACK
6
CONTINUOUS
10
0.384714
20
1.00919
11
0.384584
21
1.00918
0
LINE
8
BLACK
6
CONTINUOUS
10
0.384584
20
1.00918
11
0.384519
21
1.00923
0
LINE
8
BLACK
6
CONTINUOUS
10
0.384519
20
1.00923
11
0.384339
21
1.00926
0
LINE
8
BLACK
6
CONTINUOUS
10
0.384339
20
1.00926
11
0.383658
21
1.00983
0
LINE
8
BLACK
6
CONTINUOUS
10
0.383658
20
1.00983
11
0.38293
21
1.01034
0
LINE
8
BLACK
6
CONTINUOUS
10
0.38293
20
1.01034
11
0.382895
21
1.01047
0
LINE
8
BLACK
6
CONTINUOUS
10
0.382895
20
1.01047
11
0.382792
21
1.01056
0
LINE
8
BLACK
6
CONTINUOUS
10
0.382792
20
1.01056
11
0.382637
21
1.01143
0
LINE
8
BLACK
6
CONTINUOUS
10
0.382637
20
1.01143
11
0.382407
21
1.01229
0
LINE
8
BLACK
6
CONTINUOUS
10
0.382407
20
1.01229
11
0.382464
21
1.01241
0
LINE
8
BLACK
6
CONTINUOUS
10
0.382464
20
1.01241
11
0.382441
21
1.01255
0
LINE
8
BLACK
6
CONTINUOUS
10
0.382441
20
1.01255
11
0.382885
21
1.01331
0
LINE
8
BLACK
6
CONTINUOUS
10
0.382885
20
1.01331
11
0.383261
21
1.01412
0
LINE
8
BLACK
6
CONTINUOUS
10
0.383261
20
1.01412
11
0.405265
21
1.03612
0
LINE
8
BLACK
6
CONTINUOUS
10
0.405265
20
1.03612
11
0.406768
21
1.04063
0
LINE
8
BLACK
6
CONTINUOUS
10
0.406768
20
1.04063
11
0.406768
21
1.04321
0
LINE
8
BLACK
6
CONTINUOUS
10
0.406768
20
1.04321
11
0.405419
21
1.0459
0
LINE
8
BLACK
6
CONTINUOUS
10
0.405419
20
1.0459
11
0.404222
21
1.0471
0
LINE
8
BLACK
6
CONTINUOUS
10
0.404222
20
1.0471
11
0.401524
21
1.04845
0
LINE
8
BLACK
6
CONTINUOUS
10
0.401524
20
1.04845
11
0.393545
21
1.04845
0
LINE
8
BLACK
6
CONTINUOUS
10
0.393545
20
1.04845
11
0.390847
21
1.0471
0
LINE
8
BLACK
6
CONTINUOUS
10
0.390847
20
1.0471
11
0.389311
21
1.04556
0
LINE
8
BLACK
6
CONTINUOUS
10
0.389311
20
1.04556
11
0.388471
21
1.04498
0
LINE
8
BLACK
6
CONTINUOUS
10
0.388471
20
1.04498
11
0.386459
21
1.0448
0
LINE
8
BLACK
6
CONTINUOUS
10
0.386459
20
1.0448
11
0.384805
21
1.04596
0
LINE
8
BLACK
6
CONTINUOUS
10
0.384805
20
1.04596
11
0.384282
21
1.04791
0
LINE
8
BLACK
6
CONTINUOUS
10
0.384282
20
1.04791
11
0.385136
21
1.04974
0
LINE
8
BLACK
6
CONTINUOUS
10
0.385136
20
1.04974
11
0.38701
21
1.05162
0
LINE
8
BLACK
6
CONTINUOUS
10
0.38701
20
1.05162
11
0.387733
21
1.05212
0
LINE
8
BLACK
6
CONTINUOUS
10
0.387733
20
1.05212
11
0.387778
21
1.05217
0
LINE
8
BLACK
6
CONTINUOUS
10
0.387778
20
1.05217
11
0.391527
21
1.05404
0
LINE
8
BLACK
6
CONTINUOUS
10
0.391527
20
1.05404
11
0.39251
21
1.05434
0
LINE
8
BLACK
6
CONTINUOUS
10
0.39251
20
1.05434
11
0.392682
21
1.05429
0
LINE
8
BLACK
6
CONTINUOUS
10
0.392682
20
1.05429
11
0.392848
21
1.05436
0
LINE
8
BLACK
6
CONTINUOUS
10
0.392848
20
1.05436
11
0.402222
21
1.05436
0
LINE
8
BLACK
6
CONTINUOUS
10
0.402222
20
1.05436
11
0.403231
21
1.05418
0
LINE
8
BLACK
6
CONTINUOUS
10
0.600082
20
1.05418
11
0.600217
21
1.05406
0
LINE
8
BLACK
6
CONTINUOUS
10
0.600217
20
1.05406
11
0.600393
21
1.05404
0
LINE
8
BLACK
6
CONTINUOUS
10
0.600393
20
1.05404
11
0.604142
21
1.05217
0
LINE
8
BLACK
6
CONTINUOUS
10
0.604142
20
1.05217
11
0.604851
21
1.05164
0
LINE
8
BLACK
6
CONTINUOUS
10
0.604851
20
1.05164
11
0.604909
21
1.05162
0
LINE
8
BLACK
6
CONTINUOUS
10
0.604909
20
1.05162
11
0.606784
21
1.04974
0
LINE
8
BLACK
6
CONTINUOUS
10
0.606784
20
1.04974
11
0.60729
21
1.04902
0
LINE
8
BLACK
6
CONTINUOUS
10
0.60729
20
1.04902
11
0.607337
21
1.04897
0
LINE
8
BLACK
6
CONTINUOUS
10
0.607337
20
1.04897
11
0.609212
21
1.04522
0
LINE
8
BLACK
6
CONTINUOUS
10
0.609212
20
1.04522
11
0.609357
21
1.04474
0
LINE
8
BLACK
6
CONTINUOUS
10
0.609357
20
1.04474
11
0.609436
21
1.04462
0
LINE
8
BLACK
6
CONTINUOUS
10
0.609436
20
1.04462
11
0.61131
21
1.03712
0
LINE
8
BLACK
6
CONTINUOUS
10
0.61131
20
1.03712
11
0.611352
21
1.03653
0
LINE
8
BLACK
6
CONTINUOUS
10
0.611352
20
1.03653
11
0.611399
21
1.0364
0
LINE
8
BLACK
6
CONTINUOUS
10
0.611399
20
1.0364
11
0.611399
21
1.02703
0
LINE
8
BLACK
6
CONTINUOUS
10
0.611399
20
1.02703
11
0.611296
21
1.02645
0
LINE
8
BLACK
6
CONTINUOUS
10
0.611296
20
1.02645
11
0.61131
21
1.02631
0
LINE
8
BLACK
6
CONTINUOUS
10
0.61131
20
1.02631
11
0.609436
21
1.01882
0
LINE
8
BLACK
6
CONTINUOUS
10
0.609436
20
1.01882
11
0.609228
21
1.01835
0
LINE
8
BLACK
6
CONTINUOUS
10
0.609228
20
1.01835
11
0.609212
21
1.01821
0
LINE
8
BLACK
6
CONTINUOUS
10
0.609212
20
1.01821
11
0.607337
21
1.01446
0
LINE
8
BLACK
6
CONTINUOUS
10
0.607337
20
1.01446
11
0.606811
21
1.01375
0
LINE
8
BLACK
6
CONTINUOUS
10
0.606811
20
1.01375
11
0.606784
21
1.01369
0
LINE
8
BLACK
6
CONTINUOUS
10
0.606784
20
1.01369
11
0.604909
21
1.01182
0
LINE
8
BLACK
6
CONTINUOUS
10
0.604909
20
1.01182
11
0.604186
21
1.01131
0
LINE
8
BLACK
6
CONTINUOUS
10
0.604186
20
1.01131
11
0.604142
21
1.01127
0
LINE
8
BLACK
6
CONTINUOUS
10
0.604142
20
1.01127
11
0.600392
21
1.00939
0
LINE
8
BLACK
6
CONTINUOUS
10
0.600392
20
1.00939
11
0.59941
21
1.0091
0
LINE
8
BLACK
6
CONTINUOUS
10
0.59941
20
1.0091
11
0.599238
21
1.00914
0
LINE
8
BLACK
6
CONTINUOUS
10
0.599238
20
1.00914
11
0.599072
21
1.00908
0
LINE
8
BLACK
6
CONTINUOUS
10
0.599072
20
1.00908
11
0.595322
21
1.00908
0
LINE
8
BLACK
6
CONTINUOUS
10
0.595322
20
1.00908
11
0.594313
21
1.00926
0
LINE
8
BLACK
6
CONTINUOUS
10
0.594313
20
1.00926
11
0.594177
21
1.00937
0
LINE
8
BLACK
6
CONTINUOUS
10
0.594177
20
1.00937
11
0.594002
21
1.00939
0
LINE
8
BLACK
6
CONTINUOUS
10
0.594002
20
1.00939
11
0.590252
21
1.01127
0
LINE
8
BLACK
6
CONTINUOUS
10
0.590252
20
1.01127
11
0.589543
21
1.01179
0
LINE
8
BLACK
6
CONTINUOUS
10
0.589543
20
1.01179
11
0.589485
21
1.01182
0
LINE
8
BLACK
6
CONTINUOUS
10
0.589485
20
1.01182
11
0.58761
21
1.01369
0
LINE
8
BLACK
6
CONTINUOUS
10
0.58761
20
1.01369
11
0.587104
21
1.01442
0
LINE
8
BLACK
6
CONTINUOUS
10
0.587104
20
1.01442
11
0.587057
21
1.01446
0
LINE
8
BLACK
6
CONTINUOUS
10
0.587057
20
1.01446
11
0.585182
21
1.01821
0
LINE
8
BLACK
6
CONTINUOUS
10
0.585182
20
1.01821
11
0.585037
21
1.0187
0
LINE
8
BLACK
6
CONTINUOUS
10
0.585037
20
1.0187
11
0.584959
21
1.01882
0
LINE
8
BLACK
6
CONTINUOUS
10
0.584959
20
1.01882
11
0.583084
21
1.02631
0
LINE
8
BLACK
6
CONTINUOUS
10
0.583084
20
1.02631
11
0.583043
21
1.0269
0
LINE
8
BLACK
6
CONTINUOUS
10
0.583043
20
1.0269
11
0.582996
21
1.02703
0
LINE
8
BLACK
6
CONTINUOUS
10
0.582996
20
1.02703
11
0.582996
21
1.0364
0
LINE
8
BLACK
6
CONTINUOUS
10
0.582996
20
1.0364
11
0.583098
21
1.03698
0
LINE
8
BLACK
6
CONTINUOUS
10
0.583098
20
1.03698
11
0.583084
21
1.03712
0
LINE
8
BLACK
6
CONTINUOUS
10
0.583084
20
1.03712
11
0.584959
21
1.04462
0
LINE
8
BLACK
6
CONTINUOUS
10
0.584959
20
1.04462
11
0.585166
21
1.04508
0
LINE
8
BLACK
6
CONTINUOUS
10
0.585166
20
1.04508
11
0.585182
21
1.04522
0
LINE
8
BLACK
6
CONTINUOUS
10
0.585182
20
1.04522
11
0.587057
21
1.04897
0
LINE
8
BLACK
6
CONTINUOUS
10
0.587057
20
1.04897
11
0.587583
21
1.04968
0
LINE
8
BLACK
6
CONTINUOUS
10
0.587583
20
1.04968
11
0.58761
21
1.04974
0
LINE
8
BLACK
6
CONTINUOUS
10
0.58761
20
1.04974
11
0.589485
21
1.05162
0
LINE
8
BLACK
6
CONTINUOUS
10
0.589485
20
1.05162
11
0.590208
21
1.05212
0
LINE
8
BLACK
6
CONTINUOUS
10
0.590208
20
1.05212
11
0.590252
21
1.05217
0
LINE
8
BLACK
6
CONTINUOUS
10
0.590252
20
1.05217
11
0.594002
21
1.05404
0
LINE
8
BLACK
6
CONTINUOUS
10
0.594002
20
1.05404
11
0.594985
21
1.05434
0
LINE
8
BLACK
6
CONTINUOUS
10
0.594985
20
1.05434
11
0.595157
21
1.05429
0
LINE
8
BLACK
6
CONTINUOUS
10
0.595157
20
1.05429
11
0.595322
21
1.05436
0
LINE
8
BLACK
6
CONTINUOUS
10
0.595322
20
1.05436
11
0.599072
21
1.05436
0
LINE
8
BLACK
6
CONTINUOUS
10
0.599072
20
1.05436
11
0.600082
21
1.05418
0
LINE
8
BLACK
6
CONTINUOUS
10
0.59602
20
1.04845
11
0.593322
21
1.0471
0
LINE
8
BLACK
6
CONTINUOUS
10
0.593322
20
1.0471
11
0.592125
21
1.0459
0
LINE
8
BLACK
6
CONTINUOUS
10
0.592125
20
1.0459
11
0.590609
21
1.04287
0
LINE
8
BLACK
6
CONTINUOUS
10
0.590609
20
1.04287
11
0.588901
21
1.03604
0
LINE
8
BLACK
6
CONTINUOUS
10
0.588901
20
1.03604
11
0.588901
21
1.02739
0
LINE
8
BLACK
6
CONTINUOUS
10
0.588901
20
1.02739
11
0.590609
21
1.02056
0
LINE
8
BLACK
6
CONTINUOUS
10
0.590609
20
1.02056
11
0.592125
21
1.01753
0
LINE
8
BLACK
6
CONTINUOUS
10
0.592125
20
1.01753
11
0.593322
21
1.01633
0
LINE
8
BLACK
6
CONTINUOUS
10
0.593322
20
1.01633
11
0.596019
21
1.01499
0
LINE
8
BLACK
6
CONTINUOUS
10
0.596019
20
1.01499
11
0.598375
21
1.01499
0
LINE
8
BLACK
6
CONTINUOUS
10
0.598375
20
1.01499
11
0.601072
21
1.01633
0
LINE
8
BLACK
6
CONTINUOUS
10
0.601072
20
1.01633
11
0.60227
21
1.01753
0
LINE
8
BLACK
6
CONTINUOUS
10
0.60227
20
1.01753
11
0.603785
21
1.02056
0
LINE
8
BLACK
6
CONTINUOUS
10
0.603785
20
1.02056
11
0.605493
21
1.02739
0
LINE
8
BLACK
6
CONTINUOUS
10
0.605493
20
1.02739
11
0.605493
21
1.03604
0
LINE
8
BLACK
6
CONTINUOUS
10
0.605493
20
1.03604
11
0.603785
21
1.04287
0
LINE
8
BLACK
6
CONTINUOUS
10
0.603785
20
1.04287
11
0.60227
21
1.0459
0
LINE
8
BLACK
6
CONTINUOUS
10
0.60227
20
1.0459
11
0.601072
21
1.0471
0
LINE
8
BLACK
6
CONTINUOUS
10
0.601072
20
1.0471
11
0.598375
21
1.04845
0
LINE
8
BLACK
6
CONTINUOUS
10
0.598375
20
1.04845
11
0.59602
21
1.04845
0
LINE
8
BLACK
6
CONTINUOUS
10
0.36747
20
1.0542
11
0.367535
21
1.0542
0
LINE
8
BLACK
6
CONTINUOUS
10
0.367535
20
1.0542
11
0.373159
21
1.05233
0
LINE
8
BLACK
6
CONTINUOUS
10
0.373159
20
1.05233
11
0.374061
21
1.05184
0
LINE
8
BLACK
6
CONTINUOUS
10
0.374061
20
1.05184
11
0.375118
21
1.05012
0
LINE
8
BLACK
6
CONTINUOUS
10
0.375118
20
1.05012
11
0.374822
21
1.04812
0
LINE
8
BLACK
6
CONTINUOUS
10
0.374822
20
1.04812
11
0.373311
21
1.04678
0
LINE
8
BLACK
6
CONTINUOUS
10
0.373311
20
1.04678
11
0.371292
21
1.04673
0
LINE
8
BLACK
6
CONTINUOUS
10
0.371292
20
1.04673
11
0.366122
21
1.04845
0
LINE
8
BLACK
6
CONTINUOUS
10
0.366122
20
1.04845
11
0.357924
21
1.04845
0
LINE
8
BLACK
6
CONTINUOUS
10
0.357924
20
1.04845
11
0.355227
21
1.0471
0
LINE
8
BLACK
6
CONTINUOUS
10
0.355227
20
1.0471
11
0.35403
21
1.0459
0
LINE
8
BLACK
6
CONTINUOUS
10
0.35403
20
1.0459
11
0.352681
21
1.04321
0
LINE
8
BLACK
6
CONTINUOUS
10
0.352681
20
1.04321
11
0.352681
21
1.04085
0
LINE
8
BLACK
6
CONTINUOUS
10
0.352681
20
1.04085
11
0.35403
21
1.03815
0
LINE
8
BLACK
6
CONTINUOUS
10
0.35403
20
1.03815
11
0.355227
21
1.03696
0
LINE
8
BLACK
6
CONTINUOUS
10
0.355227
20
1.03696
11
0.358258
21
1.03544
0
LINE
8
BLACK
6
CONTINUOUS
10
0.358258
20
1.03544
11
0.365442
21
1.03364
0
LINE
8
BLACK
6
CONTINUOUS
10
0.365442
20
1.03364
11
0.365908
21
1.03344
0
LINE
8
BLACK
6
CONTINUOUS
10
0.365908
20
1.03344
11
0.366047
21
1.03342
0
LINE
8
BLACK
6
CONTINUOUS
10
0.366047
20
1.03342
11
0.369796
21
1.03155
0
LINE
8
BLACK
6
CONTINUOUS
10
0.369796
20
1.03155
11
0.370505
21
1.03102
0
LINE
8
BLACK
6
CONTINUOUS
10
0.370505
20
1.03102
11
0.370564
21
1.03099
0
LINE
8
BLACK
6
CONTINUOUS
10
0.370564
20
1.03099
11
0.372438
21
1.02912
0
LINE
8
BLACK
6
CONTINUOUS
10
0.372438
20
1.02912
11
0.372945
21
1.0284
0
LINE
8
BLACK
6
CONTINUOUS
10
0.372945
20
1.0284
11
0.372992
21
1.02835
0
LINE
8
BLACK
6
CONTINUOUS
10
0.372992
20
1.02835
11
0.374866
21
1.0246
0
LINE
8
BLACK
6
CONTINUOUS
10
0.374866
20
1.0246
11
0.375159
21
1.02362
0
LINE
8
BLACK
6
CONTINUOUS
10
0.375159
20
1.02362
11
0.375118
21
1.02345
0
LINE
8
BLACK
6
CONTINUOUS
10
0.375118
20
1.02345
11
0.375178
21
1.02328
0
LINE
8
BLACK
6
CONTINUOUS
10
0.375178
20
1.02328
11
0.375178
21
1.01953
0
LINE
8
BLACK
6
CONTINUOUS
10
0.375178
20
1.01953
11
0.375
21
1.01852
0
LINE
8
BLACK
6
CONTINUOUS
10
0.375
20
1.01852
11
0.374887
21
1.01839
0
LINE
8
BLACK
6
CONTINUOUS
10
0.374887
20
1.01839
11
0.374866
21
1.01821
0
LINE
8
BLACK
6
CONTINUOUS
10
0.374866
20
1.01821
11
0.372992
21
1.01446
0
LINE
8
BLACK
6
CONTINUOUS
10
0.372992
20
1.01446
11
0.372466
21
1.01375
0
LINE
8
BLACK
6
CONTINUOUS
10
0.372466
20
1.01375
11
0.372438
21
1.01369
0
LINE
8
BLACK
6
CONTINUOUS
10
0.372438
20
1.01369
11
0.370564
21
1.01182
0
LINE
8
BLACK
6
CONTINUOUS
10
0.370564
20
1.01182
11
0.369841
21
1.01131
0
LINE
8
BLACK
6
CONTINUOUS
10
0.369841
20
1.01131
11
0.369796
21
1.01127
0
LINE
8
BLACK
6
CONTINUOUS
10
0.369796
20
1.01127
11
0.366047
21
1.00939
0
LINE
8
BLACK
6
CONTINUOUS
10
0.366047
20
1.00939
11
0.365064
21
1.0091
0
LINE
8
BLACK
6
CONTINUOUS
10
0.365064
20
1.0091
11
0.364892
21
1.00914
0
LINE
8
BLACK
6
CONTINUOUS
10
0.364892
20
1.00914
11
0.364726
21
1.00908
0
LINE
8
BLACK
6
CONTINUOUS
10
0.364726
20
1.00908
11
0.355352
21
1.00908
0
LINE
8
BLACK
6
CONTINUOUS
10
0.355352
20
1.00908
11
0.354483
21
1.00923
0
LINE
8
BLACK
6
CONTINUOUS
10
0.354483
20
1.00923
11
0.354419
21
1.00923
0
LINE
8
BLACK
6
CONTINUOUS
10
0.354419
20
1.00923
11
0.348794
21
1.01111
0
LINE
8
BLACK
6
CONTINUOUS
10
0.348794
20
1.01111
11
0.347893
21
1.01159
0
LINE
8
BLACK
6
CONTINUOUS
10
0.347893
20
1.01159
11
0.346835
21
1.01332
0
LINE
8
BLACK
6
CONTINUOUS
10
0.346835
20
1.01332
11
0.347132
21
1.01531
0
LINE
8
BLACK
6
CONTINUOUS
10
0.347132
20
1.01531
11
0.348643
21
1.01665
0
LINE
8
BLACK
6
CONTINUOUS
10
0.348643
20
1.01665
11
0.350662
21
1.01671
0
LINE
8
BLACK
6
CONTINUOUS
10
0.350662
20
1.01671
11
0.355832
21
1.01499
0
LINE
8
BLACK
6
CONTINUOUS
10
0.355832
20
1.01499
11
0.364029
21
1.01499
0
LINE
8
BLACK
6
CONTINUOUS
10
0.364029
20
1.01499
11
0.366727
21
1.01633
0
LINE
8
BLACK
6
CONTINUOUS
10
0.366727
20
1.01633
11
0.367924
21
1.01753
0
LINE
8
BLACK
6
CONTINUOUS
10
0.367924
20
1.01753
11
0.369273
21
1.02023
0
LINE
8
BLACK
6
CONTINUOUS
10
0.369273
20
1.02023
11
0.369273
21
1.02258
0
LINE
8
BLACK
6
CONTINUOUS
10
0.369273
20
1.02258
11
0.367924
21
1.02528
0
LINE
8
BLACK
6
CONTINUOUS
10
0.367924
20
1.02528
11
0.366727
21
1.02648
0
LINE
8
BLACK
6
CONTINUOUS
10
0.366727
20
1.02648
11
0.363696
21
1.02799
0
LINE
8
BLACK
6
CONTINUOUS
10
0.363696
20
1.02799
11
0.356511
21
1.02979
0
LINE
8
BLACK
6
CONTINUOUS
10
0.356511
20
1.02979
11
0.356046
21
1.03
0
LINE
8
BLACK
6
CONTINUOUS
10
0.356046
20
1.03
11
0.355907
21
1.03001
0
LINE
8
BLACK
6
CONTINUOUS
10
0.355907
20
1.03001
11
0.352157
21
1.03189
0
LINE
8
BLACK
6
CONTINUOUS
10
0.352157
20
1.03189
11
0.351448
21
1.03241
0
LINE
8
BLACK
6
CONTINUOUS
10
0.351448
20
1.03241
11
0.35139
21
1.03244
0
LINE
8
BLACK
6
CONTINUOUS
10
0.35139
20
1.03244
11
0.349515
21
1.03432
0
LINE
8
BLACK
6
CONTINUOUS
10
0.349515
20
1.03432
11
0.349009
21
1.03504
0
LINE
8
BLACK
6
CONTINUOUS
10
0.349009
20
1.03504
11
0.348962
21
1.03508
0
LINE
8
BLACK
6
CONTINUOUS
10
0.348962
20
1.03508
11
0.347087
21
1.03883
0
LINE
8
BLACK
6
CONTINUOUS
10
0.347087
20
1.03883
11
0.346795
21
1.03982
0
LINE
8
BLACK
6
CONTINUOUS
10
0.346795
20
1.03982
11
0.346836
21
1.03999
0
LINE
8
BLACK
6
CONTINUOUS
10
0.346836
20
1.03999
11
0.346775
21
1.04015
0
LINE
8
BLACK
6
CONTINUOUS
10
0.346775
20
1.04015
11
0.346775
21
1.0439
0
LINE
8
BLACK
6
CONTINUOUS
10
0.346775
20
1.0439
11
0.346953
21
1.04491
0
LINE
8
BLACK
6
CONTINUOUS
10
0.346953
20
1.04491
11
0.347067
21
1.04505
0
LINE
8
BLACK
6
CONTINUOUS
10
0.347067
20
1.04505
11
0.347087
21
1.04522
0
LINE
8
BLACK
6
CONTINUOUS
10
0.347087
20
1.04522
11
0.348962
21
1.04897
0
LINE
8
BLACK
6
CONTINUOUS
10
0.348962
20
1.04897
11
0.349488
21
1.04968
0
LINE
8
BLACK
6
CONTINUOUS
10
0.349488
20
1.04968
11
0.349515
21
1.04974
0
LINE
8
BLACK
6
CONTINUOUS
10
0.349515
20
1.04974
11
0.35139
21
1.05162
0
LINE
8
BLACK
6
CONTINUOUS
10
0.35139
20
1.05162
11
0.352113
21
1.05212
0
LINE
8
BLACK
6
CONTINUOUS
10
0.352113
20
1.05212
11
0.352157
21
1.05217
0
LINE
8
BLACK
6
CONTINUOUS
10
0.352157
20
1.05217
11
0.355907
21
1.05404
0
LINE
8
BLACK
6
CONTINUOUS
10
0.355907
20
1.05404
11
0.35689
21
1.05434
0
LINE
8
BLACK
6
CONTINUOUS
10
0.35689
20
1.05434
11
0.357061
21
1.05429
0
LINE
8
BLACK
6
CONTINUOUS
10
0.357061
20
1.05429
11
0.357227
21
1.05436
0
LINE
8
BLACK
6
CONTINUOUS
10
0.357227
20
1.05436
11
0.366601
21
1.05436
0
LINE
8
BLACK
6
CONTINUOUS
10
0.366601
20
1.05436
11
0.36747
21
1.0542
0
LINE
8
BLACK
6
CONTINUOUS
10
0.450101
20
1.05418
11
0.450368
21
1.05395
0
LINE
8
BLACK
6
CONTINUOUS
10
0.450368
20
1.05395
11
0.450707
21
1.05387
0
LINE
8
BLACK
6
CONTINUOUS
10
0.450707
20
1.05387
11
0.45112
21
1.05332
0
LINE
8
BLACK
6
CONTINUOUS
10
0.45112
20
1.05332
11
0.451648
21
1.05288
0
LINE
8
BLACK
6
CONTINUOUS
10
0.451648
20
1.05288
11
0.451708
21
1.05254
0
LINE
8
BLACK
6
CONTINUOUS
10
0.451708
20
1.05254
11
0.451917
21
1.05226
0
LINE
8
BLACK
6
CONTINUOUS
10
0.451917
20
1.05226
11
0.451879
21
1.05157
0
LINE
8
BLACK
6
CONTINUOUS
10
0.451879
20
1.05157
11
0.451999
21
1.05089
0
LINE
8
BLACK
6
CONTINUOUS
10
0.451999
20
1.05089
11
0.451824
21
1.05059
0
LINE
8
BLACK
6
CONTINUOUS
10
0.451824
20
1.05059
11
0.451805
21
1.05024
0
LINE
8
BLACK
6
CONTINUOUS
10
0.451805
20
1.05024
11
0.434932
21
1.01087
0
LINE
8
BLACK
6
CONTINUOUS
10
0.434932
20
1.01087
11
0.43437
21
1.01001
0
LINE
8
BLACK
6
CONTINUOUS
10
0.43437
20
1.01001
11
0.432568
21
1.0091
0
LINE
8
BLACK
6
CONTINUOUS
10
0.432568
20
1.0091
11
0.430601
21
1.00956
0
LINE
8
BLACK
6
CONTINUOUS
10
0.430601
20
1.00956
11
0.429391
21
1.01118
0
LINE
8
BLACK
6
CONTINUOUS
10
0.429391
20
1.01118
11
0.429504
21
1.0132
0
LINE
8
BLACK
6
CONTINUOUS
10
0.429504
20
1.0132
11
0.444613
21
1.04845
0
LINE
8
BLACK
6
CONTINUOUS
10
0.444613
20
1.04845
11
0.422844
21
1.04845
0
LINE
8
BLACK
6
CONTINUOUS
10
0.422844
20
1.04845
11
0.421834
21
1.04863
0
LINE
8
BLACK
6
CONTINUOUS
10
0.421834
20
1.04863
11
0.420287
21
1.04993
0
LINE
8
BLACK
6
CONTINUOUS
10
0.420287
20
1.04993
11
0.419936
21
1.05192
0
LINE
8
BLACK
6
CONTINUOUS
10
0.419936
20
1.05192
11
0.420946
21
1.05366
0
LINE
8
BLACK
6
CONTINUOUS
10
0.420946
20
1.05366
11
0.422844
21
1.05436
0
LINE
8
BLACK
6
CONTINUOUS
10
0.422844
20
1.05436
11
0.449091
21
1.05436
0
LINE
8
BLACK
6
CONTINUOUS
10
0.449091
20
1.05436
11
0.450101
21
1.05418
0
LINE
8
BLACK
6
CONTINUOUS
10
0.510489
20
1.05587
11
0.511829
21
1.05436
0
LINE
8
BLACK
6
CONTINUOUS
10
0.511829
20
1.05436
11
0.511884
21
1.05234
0
LINE
8
BLACK
6
CONTINUOUS
10
0.511884
20
1.05234
11
0.503806
21
1.02811
0
LINE
8
BLACK
6
CONTINUOUS
10
0.503806
20
1.02811
11
0.515504
21
1.02811
0
LINE
8
BLACK
6
CONTINUOUS
10
0.515504
20
1.02811
11
0.515504
21
1.03828
0
LINE
8
BLACK
6
CONTINUOUS
10
0.515504
20
1.03828
11
0.515682
21
1.03929
0
LINE
8
BLACK
6
CONTINUOUS
10
0.515682
20
1.03929
11
0.516981
21
1.04084
0
LINE
8
BLACK
6
CONTINUOUS
10
0.516981
20
1.04084
11
0.51897
21
1.04119
0
LINE
8
BLACK
6
CONTINUOUS
10
0.51897
20
1.04119
11
0.520719
21
1.04018
0
LINE
8
BLACK
6
CONTINUOUS
10
0.520719
20
1.04018
11
0.52141
21
1.03828
0
LINE
8
BLACK
6
CONTINUOUS
10
0.52141
20
1.03828
11
0.52141
21
1.02811
0
LINE
8
BLACK
6
CONTINUOUS
10
0.52141
20
1.02811
11
0.524081
21
1.02811
0
LINE
8
BLACK
6
CONTINUOUS
10
0.524081
20
1.02811
11
0.525091
21
1.02793
0
LINE
8
BLACK
6
CONTINUOUS
10
0.525091
20
1.02793
11
0.526639
21
1.02663
0
LINE
8
BLACK
6
CONTINUOUS
10
0.526639
20
1.02663
11
0.526989
21
1.02464
0
LINE
8
BLACK
6
CONTINUOUS
10
0.526989
20
1.02464
11
0.525979
21
1.02289
0
LINE
8
BLACK
6
CONTINUOUS
10
0.525979
20
1.02289
11
0.524081
21
1.0222
0
LINE
8
BLACK
6
CONTINUOUS
10
0.524081
20
1.0222
11
0.52141
21
1.0222
0
LINE
8
BLACK
6
CONTINUOUS
10
0.52141
20
1.0222
11
0.52141
21
1.01203
0
LINE
8
BLACK
6
CONTINUOUS
10
0.52141
20
1.01203
11
0.521232
21
1.01102
0
LINE
8
BLACK
6
CONTINUOUS
10
0.521232
20
1.01102
11
0.519933
21
1.00948
0
LINE
8
BLACK
6
CONTINUOUS
10
0.519933
20
1.00948
11
0.517944
21
1.00912
0
LINE
8
BLACK
6
CONTINUOUS
10
0.517944
20
1.00912
11
0.516195
21
1.01013
0
LINE
8
BLACK
6
CONTINUOUS
10
0.516195
20
1.01013
11
0.515504
21
1.01203
0
LINE
8
BLACK
6
CONTINUOUS
10
0.515504
20
1.01203
11
0.515504
21
1.0222
0
LINE
8
BLACK
6
CONTINUOUS
10
0.515504
20
1.0222
11
0.499709
21
1.0222
0
LINE
8
BLACK
6
CONTINUOUS
10
0.499709
20
1.0222
11
0.498699
21
1.02238
0
LINE
8
BLACK
6
CONTINUOUS
10
0.498699
20
1.02238
11
0.498527
21
1.02253
0
LINE
8
BLACK
6
CONTINUOUS
10
0.498527
20
1.02253
11
0.498303
21
1.02256
0
LINE
8
BLACK
6
CONTINUOUS
10
0.498303
20
1.02256
11
0.497769
21
1.02316
0
LINE
8
BLACK
6
CONTINUOUS
10
0.497769
20
1.02316
11
0.497152
21
1.02368
0
LINE
8
BLACK
6
CONTINUOUS
10
0.497152
20
1.02368
11
0.497113
21
1.0239
0
LINE
8
BLACK
6
CONTINUOUS
10
0.497113
20
1.0239
11
0.496963
21
1.02407
0
LINE
8
BLACK
6
CONTINUOUS
10
0.496963
20
1.02407
11
0.496941
21
1.02488
0
LINE
8
BLACK
6
CONTINUOUS
10
0.496941
20
1.02488
11
0.496801
21
1.02567
0
LINE
8
BLACK
6
CONTINUOUS
10
0.496801
20
1.02567
11
0.496914
21
1.02586
0
LINE
8
BLACK
6
CONTINUOUS
10
0.496914
20
1.02586
11
0.496908
21
1.02609
0
LINE
8
BLACK
6
CONTINUOUS
10
0.496908
20
1.02609
11
0.506282
21
1.05421
0
LINE
8
BLACK
6
CONTINUOUS
10
0.506282
20
1.05421
11
0.50677
21
1.05511
0
LINE
8
BLACK
6
CONTINUOUS
10
0.50677
20
1.05511
11
0.508491
21
1.05617
0
LINE
8
BLACK
6
CONTINUOUS
10
0.508491
20
1.05617
11
0.510489
21
1.05587
0
LINE
8
BLACK
6
CONTINUOUS
10
0.472994
20
1.05587
11
0.474334
21
1.05436
0
LINE
8
BLACK
6
CONTINUOUS
10
0.474334
20
1.05436
11
0.474389
21
1.05234
0
LINE
8
BLACK
6
CONTINUOUS
10
0.474389
20
1.05234
11
0.466311
21
1.02811
0
LINE
8
BLACK
6
CONTINUOUS
10
0.466311
20
1.02811
11
0.478009
21
1.02811
0
LINE
8
BLACK
6
CONTINUOUS
10
0.478009
20
1.02811
11
0.478009
21
1.03828
0
LINE
8
BLACK
6
CONTINUOUS
10
0.478009
20
1.03828
11
0.478187
21
1.03929
0
LINE
8
BLACK
6
CONTINUOUS
10
0.478187
20
1.03929
11
0.479485
21
1.04084
0
LINE
8
BLACK
6
CONTINUOUS
10
0.479485
20
1.04084
11
0.481474
21
1.04119
0
LINE
8
BLACK
6
CONTINUOUS
10
0.481474
20
1.04119
11
0.483224
21
1.04018
0
LINE
8
BLACK
6
CONTINUOUS
10
0.483224
20
1.04018
11
0.483914
21
1.03828
0
LINE
8
BLACK
6
CONTINUOUS
10
0.483914
20
1.03828
11
0.483914
21
1.02811
0
LINE
8
BLACK
6
CONTINUOUS
10
0.483914
20
1.02811
11
0.486586
21
1.02811
0
LINE
8
BLACK
6
CONTINUOUS
10
0.486586
20
1.02811
11
0.487596
21
1.02793
0
LINE
8
BLACK
6
CONTINUOUS
10
0.487596
20
1.02793
11
0.489143
21
1.02663
0
LINE
8
BLACK
6
CONTINUOUS
10
0.489143
20
1.02663
11
0.489494
21
1.02464
0
LINE
8
BLACK
6
CONTINUOUS
10
0.489494
20
1.02464
11
0.488484
21
1.02289
0
LINE
8
BLACK
6
CONTINUOUS
10
0.488484
20
1.02289
11
0.486586
21
1.0222
0
LINE
8
BLACK
6
CONTINUOUS
10
0.486586
20
1.0222
11
0.483914
21
1.0222
0
LINE
8
BLACK
6
CONTINUOUS
10
0.483914
20
1.0222
11
0.483914
21
1.01203
0
LINE
8
BLACK
6
CONTINUOUS
10
0.483914
20
1.01203
11
0.483736
21
1.01102
0
LINE
8
BLACK
6
CONTINUOUS
10
0.483736
20
1.01102
11
0.482438
21
1.00948
0
LINE
8
BLACK
6
CONTINUOUS
10
0.482438
20
1.00948
11
0.480449
21
1.00912
0
LINE
8
BLACK
6
CONTINUOUS
10
0.480449
20
1.00912
11
0.4787
21
1.01013
0
LINE
8
BLACK
6
CONTINUOUS
10
0.4787
20
1.01013
11
0.478009
21
1.01203
0
LINE
8
BLACK
6
CONTINUOUS
10
0.478009
20
1.01203
11
0.478009
21
1.0222
0
LINE
8
BLACK
6
CONTINUOUS
10
0.478009
20
1.0222
11
0.462214
21
1.0222
0
LINE
8
BLACK
6
CONTINUOUS
10
0.462214
20
1.0222
11
0.461204
21
1.02238
0
LINE
8
BLACK
6
CONTINUOUS
10
0.461204
20
1.02238
11
0.461031
21
1.02253
0
LINE
8
BLACK
6
CONTINUOUS
10
0.461031
20
1.02253
11
0.460808
21
1.02256
0
LINE
8
BLACK
6
CONTINUOUS
10
0.460808
20
1.02256
11
0.460274
21
1.02316
0
LINE
8
BLACK
6
CONTINUOUS
10
0.460274
20
1.02316
11
0.459657
21
1.02368
0
LINE
8
BLACK
6
CONTINUOUS
10
0.459657
20
1.02368
11
0.459618
21
1.0239
0
LINE
8
BLACK
6
CONTINUOUS
10
0.459618
20
1.0239
11
0.459468
21
1.02407
0
LINE
8
BLACK
6
CONTINUOUS
10
0.459468
20
1.02407
11
0.459446
21
1.02488
0
LINE
8
BLACK
6
CONTINUOUS
10
0.459446
20
1.02488
11
0.459306
21
1.02567
0
LINE
8
BLACK
6
CONTINUOUS
10
0.459306
20
1.02567
11
0.459419
21
1.02586
0
LINE
8
BLACK
6
CONTINUOUS
10
0.459419
20
1.02586
11
0.459413
21
1.02609
0
LINE
8
BLACK
6
CONTINUOUS
10
0.459413
20
1.02609
11
0.468787
21
1.05421
0
LINE
8
BLACK
6
CONTINUOUS
10
0.468787
20
1.05421
11
0.469275
21
1.05511
0
LINE
8
BLACK
6
CONTINUOUS
10
0.469275
20
1.05511
11
0.470996
21
1.05617
0
LINE
8
BLACK
6
CONTINUOUS
10
0.470996
20
1.05617
11
0.472994
21
1.05587
0
LINE
8
BLACK
6
CONTINUOUS
10
0.570086
20
1.02981
11
0.571633
21
1.02851
0
LINE
8
BLACK
6
CONTINUOUS
10
0.571633
20
1.02851
11
0.571984
21
1.02652
0
LINE
8
BLACK
6
CONTINUOUS
10
0.571984
20
1.02652
11
0.570974
21
1.02477
0
LINE
8
BLACK
6
CONTINUOUS
10
0.570974
20
1.02477
11
0.569076
21
1.02408
0
LINE
8
BLACK
6
CONTINUOUS
10
0.569076
20
1.02408
11
0.539079
21
1.02408
0
LINE
8
BLACK
6
CONTINUOUS
10
0.539079
20
1.02408
11
0.53807
21
1.02426
0
LINE
8
BLACK
6
CONTINUOUS
10
0.53807
20
1.02426
11
0.536522
21
1.02555
0
LINE
8
BLACK
6
CONTINUOUS
10
0.536522
20
1.02555
11
0.536172
21
1.02754
0
LINE
8
BLACK
6
CONTINUOUS
10
0.536172
20
1.02754
11
0.537181
21
1.02929
0
LINE
8
BLACK
6
CONTINUOUS
10
0.537181
20
1.02929
11
0.539079
21
1.02998
0
LINE
8
BLACK
6
CONTINUOUS
10
0.539079
20
1.02998
11
0.569076
21
1.02998
0
LINE
8
BLACK
6
CONTINUOUS
10
0.569076
20
1.02998
11
0.570086
21
1.02981
0
LINE
8
BLACK
6
CONTINUOUS
10
0.522279
20
1.15654
11
0.522414
21
1.15643
0
LINE
8
BLACK
6
CONTINUOUS
10
0.522414
20
1.15643
11
0.52259
21
1.15641
0
LINE
8
BLACK
6
CONTINUOUS
10
0.52259
20
1.15641
11
0.526339
21
1.15453
0
LINE
8
BLACK
6
CONTINUOUS
10
0.526339
20
1.15453
11
0.527048
21
1.154
0
LINE
8
BLACK
6
CONTINUOUS
10
0.527048
20
1.154
11
0.527107
21
1.15398
0
LINE
8
BLACK
6
CONTINUOUS
10
0.527107
20
1.15398
11
0.528981
21
1.1521
0
LINE
8
BLACK
6
CONTINUOUS
10
0.528981
20
1.1521
11
0.529488
21
1.15138
0
LINE
8
BLACK
6
CONTINUOUS
10
0.529488
20
1.15138
11
0.529535
21
1.15134
0
LINE
8
BLACK
6
CONTINUOUS
10
0.529535
20
1.15134
11
0.531409
21
1.14759
0
LINE
8
BLACK
6
CONTINUOUS
10
0.531409
20
1.14759
11
0.531702
21
1.1466
0
LINE
8
BLACK
6
CONTINUOUS
10
0.531702
20
1.1466
11
0.531661
21
1.14643
0
LINE
8
BLACK
6
CONTINUOUS
10
0.531661
20
1.14643
11
0.531721
21
1.14627
0
LINE
8
BLACK
6
CONTINUOUS
10
0.531721
20
1.14627
11
0.531721
21
1.14252
0
LINE
8
BLACK
6
CONTINUOUS
10
0.531721
20
1.14252
11
0.531568
21
1.14165
0
LINE
8
BLACK
6
CONTINUOUS
10
0.531568
20
1.14165
11
0.531569
21
1.14158
0
LINE
8
BLACK
6
CONTINUOUS
10
0.531569
20
1.14158
11
0.529695
21
1.13596
0
LINE
8
BLACK
6
CONTINUOUS
10
0.529695
20
1.13596
11
0.529206
21
1.13506
0
LINE
8
BLACK
6
CONTINUOUS
10
0.529206
20
1.13506
11
0.529056
21
1.13496
0
LINE
8
BLACK
6
CONTINUOUS
10
0.529056
20
1.13496
11
0.528981
21
1.1348
0
LINE
8
BLACK
6
CONTINUOUS
10
0.528981
20
1.1348
11
0.511525
21
1.11735
0
LINE
8
BLACK
6
CONTINUOUS
10
0.511525
20
1.11735
11
0.528768
21
1.11735
0
LINE
8
BLACK
6
CONTINUOUS
10
0.528768
20
1.11735
11
0.529778
21
1.11717
0
LINE
8
BLACK
6
CONTINUOUS
10
0.529778
20
1.11717
11
0.531325
21
1.11587
0
LINE
8
BLACK
6
CONTINUOUS
10
0.531325
20
1.11587
11
0.531676
21
1.11388
0
LINE
8
BLACK
6
CONTINUOUS
10
0.531676
20
1.11388
11
0.530666
21
1.11213
0
LINE
8
BLACK
6
CONTINUOUS
10
0.530666
20
1.11213
11
0.528768
21
1.11144
0
LINE
8
BLACK
6
CONTINUOUS
10
0.528768
20
1.11144
11
0.504396
21
1.11144
0
LINE
8
BLACK
6
CONTINUOUS
10
0.504396
20
1.11144
11
0.503761
21
1.11155
0
LINE
8
BLACK
6
CONTINUOUS
10
0.503761
20
1.11155
11
0.503632
21
1.11154
0
LINE
8
BLACK
6
CONTINUOUS
10
0.503632
20
1.11154
11
0.503567
21
1.11159
0
LINE
8
BLACK
6
CONTINUOUS
10
0.503567
20
1.11159
11
0.503386
21
1.11162
0
LINE
8
BLACK
6
CONTINUOUS
10
0.503386
20
1.11162
11
0.502706
21
1.11219
0
LINE
8
BLACK
6
CONTINUOUS
10
0.502706
20
1.11219
11
0.501978
21
1.1127
0
LINE
8
BLACK
6
CONTINUOUS
10
0.501978
20
1.1127
11
0.501943
21
1.11283
0
LINE
8
BLACK
6
CONTINUOUS
10
0.501943
20
1.11283
11
0.501839
21
1.11292
0
LINE
8
BLACK
6
CONTINUOUS
10
0.501839
20
1.11292
11
0.501685
21
1.11379
0
LINE
8
BLACK
6
CONTINUOUS
10
0.501685
20
1.11379
11
0.501455
21
1.11465
0
LINE
8
BLACK
6
CONTINUOUS
10
0.501455
20
1.11465
11
0.501512
21
1.11477
0
LINE
8
BLACK
6
CONTINUOUS
10
0.501512
20
1.11477
11
0.501488
21
1.11491
0
LINE
8
BLACK
6
CONTINUOUS
10
0.501488
20
1.11491
11
0.501933
21
1.11568
0
LINE
8
BLACK
6
CONTINUOUS
10
0.501933
20
1.11568
11
0.502308
21
1.11648
0
LINE
8
BLACK
6
CONTINUOUS
10
0.502308
20
1.11648
11
0.524313
21
1.13849
0
LINE
8
BLACK
6
CONTINUOUS
10
0.524313
20
1.13849
11
0.525816
21
1.143
0
LINE
8
BLACK
6
CONTINUOUS
10
0.525816
20
1.143
11
0.525816
21
1.14557
0
LINE
8
BLACK
6
CONTINUOUS
10
0.525816
20
1.14557
11
0.524467
21
1.14827
0
LINE
8
BLACK
6
CONTINUOUS
10
0.524467
20
1.14827
11
0.52327
21
1.14946
0
LINE
8
BLACK
6
CONTINUOUS
10
0.52327
20
1.14946
11
0.520572
21
1.15081
0
LINE
8
BLACK
6
CONTINUOUS
10
0.520572
20
1.15081
11
0.512592
21
1.15081
0
LINE
8
BLACK
6
CONTINUOUS
10
0.512592
20
1.15081
11
0.509895
21
1.14946
0
LINE
8
BLACK
6
CONTINUOUS
10
0.509895
20
1.14946
11
0.508359
21
1.14793
0
LINE
8
BLACK
6
CONTINUOUS
10
0.508359
20
1.14793
11
0.507519
21
1.14734
0
LINE
8
BLACK
6
CONTINUOUS
10
0.507519
20
1.14734
11
0.505507
21
1.14716
0
LINE
8
BLACK
6
CONTINUOUS
10
0.505507
20
1.14716
11
0.503852
21
1.14832
0
LINE
8
BLACK
6
CONTINUOUS
10
0.503852
20
1.14832
11
0.50333
21
1.15027
0
LINE
8
BLACK
6
CONTINUOUS
10
0.50333
20
1.15027
11
0.504183
21
1.1521
0
LINE
8
BLACK
6
CONTINUOUS
10
0.504183
20
1.1521
11
0.506058
21
1.15398
0
LINE
8
BLACK
6
CONTINUOUS
10
0.506058
20
1.15398
11
0.506781
21
1.15448
0
LINE
8
BLACK
6
CONTINUOUS
10
0.506781
20
1.15448
11
0.506825
21
1.15453
0
LINE
8
BLACK
6
CONTINUOUS
10
0.506825
20
1.15453
11
0.510575
21
1.15641
0
LINE
8
BLACK
6
CONTINUOUS
10
0.510575
20
1.15641
11
0.511558
21
1.1567
0
LINE
8
BLACK
6
CONTINUOUS
10
0.511558
20
1.1567
11
0.511729
21
1.15666
0
LINE
8
BLACK
6
CONTINUOUS
10
0.511729
20
1.15666
11
0.511895
21
1.15672
0
LINE
8
BLACK
6
CONTINUOUS
10
0.511895
20
1.15672
11
0.521269
21
1.15672
0
LINE
8
BLACK
6
CONTINUOUS
10
0.521269
20
1.15672
11
0.522279
21
1.15654
0
LINE
8
BLACK
6
CONTINUOUS
10
0.479019
20
1.15656
11
0.479083
21
1.15657
0
LINE
8
BLACK
6
CONTINUOUS
10
0.479083
20
1.15657
11
0.484708
21
1.15469
0
LINE
8
BLACK
6
CONTINUOUS
10
0.484708
20
1.15469
11
0.485609
21
1.1542
0
LINE
8
BLACK
6
CONTINUOUS
10
0.485609
20
1.1542
11
0.485702
21
1.15405
0
LINE
8
BLACK
6
CONTINUOUS
10
0.485702
20
1.15405
11
0.485862
21
1.15398
0
LINE
8
BLACK
6
CONTINUOUS
10
0.485862
20
1.15398
11
0.489611
21
1.15023
0
LINE
8
BLACK
6
CONTINUOUS
10
0.489611
20
1.15023
11
0.490118
21
1.1495
0
LINE
8
BLACK
6
CONTINUOUS
10
0.490118
20
1.1495
11
0.490164
21
1.14946
0
LINE
8
BLACK
6
CONTINUOUS
10
0.490164
20
1.14946
11
0.492039
21
1.14571
0
LINE
8
BLACK
6
CONTINUOUS
10
0.492039
20
1.14571
11
0.492184
21
1.14522
0
LINE
8
BLACK
6
CONTINUOUS
10
0.492184
20
1.14522
11
0.492263
21
1.14511
0
LINE
8
BLACK
6
CONTINUOUS
10
0.492263
20
1.14511
11
0.494138
21
1.13761
0
LINE
8
BLACK
6
CONTINUOUS
10
0.494138
20
1.13761
11
0.494179
21
1.13702
0
LINE
8
BLACK
6
CONTINUOUS
10
0.494179
20
1.13702
11
0.494226
21
1.13689
0
LINE
8
BLACK
6
CONTINUOUS
10
0.494226
20
1.13689
11
0.494226
21
1.13127
0
LINE
8
BLACK
6
CONTINUOUS
10
0.494226
20
1.13127
11
0.494123
21
1.13069
0
LINE
8
BLACK
6
CONTINUOUS
10
0.494123
20
1.13069
11
0.494138
21
1.13055
0
LINE
8
BLACK
6
CONTINUOUS
10
0.494138
20
1.13055
11
0.492263
21
1.12305
0
LINE
8
BLACK
6
CONTINUOUS
10
0.492263
20
1.12305
11
0.492055
21
1.12259
0
LINE
8
BLACK
6
CONTINUOUS
10
0.492055
20
1.12259
11
0.492039
21
1.12245
0
LINE
8
BLACK
6
CONTINUOUS
10
0.492039
20
1.12245
11
0.490164
21
1.1187
0
LINE
8
BLACK
6
CONTINUOUS
10
0.490164
20
1.1187
11
0.489639
21
1.11799
0
LINE
8
BLACK
6
CONTINUOUS
10
0.489639
20
1.11799
11
0.489611
21
1.11793
0
LINE
8
BLACK
6
CONTINUOUS
10
0.489611
20
1.11793
11
0.485862
21
1.11418
0
LINE
8
BLACK
6
CONTINUOUS
10
0.485862
20
1.11418
11
0.485022
21
1.11359
0
LINE
8
BLACK
6
CONTINUOUS
10
0.485022
20
1.11359
11
0.484846
21
1.11358
0
LINE
8
BLACK
6
CONTINUOUS
10
0.484846
20
1.11358
11
0.484708
21
1.11347
0
LINE
8
BLACK
6
CONTINUOUS
10
0.484708
20
1.11347
11
0.479083
21
1.11159
0
LINE
8
BLACK
6
CONTINUOUS
10
0.479083
20
1.11159
11
0.47821
21
1.11146
0
LINE
8
BLACK
6
CONTINUOUS
10
0.47821
20
1.11146
11
0.47815
21
1.11144
0
LINE
8
BLACK
6
CONTINUOUS
10
0.47815
20
1.11144
11
0.468776
21
1.11144
0
LINE
8
BLACK
6
CONTINUOUS
10
0.468776
20
1.11144
11
0.468392
21
1.11151
0
LINE
8
BLACK
6
CONTINUOUS
10
0.468392
20
1.11151
11
0.468263
21
1.11149
0
LINE
8
BLACK
6
CONTINUOUS
10
0.468263
20
1.11149
11
0.468149
21
1.11155
0
LINE
8
BLACK
6
CONTINUOUS
10
0.468149
20
1.11155
11
0.467766
21
1.11162
0
LINE
8
BLACK
6
CONTINUOUS
10
0.467766
20
1.11162
11
0.467178
21
1.11211
0
LINE
8
BLACK
6
CONTINUOUS
10
0.467178
20
1.11211
11
0.466514
21
1.1125
0
LINE
8
BLACK
6
CONTINUOUS
10
0.466514
20
1.1125
11
0.466423
21
1.11275
0
LINE
8
BLACK
6
CONTINUOUS
10
0.466423
20
1.11275
11
0.466219
21
1.11292
0
LINE
8
BLACK
6
CONTINUOUS
10
0.466219
20
1.11292
11
0.466085
21
1.11367
0
LINE
8
BLACK
6
CONTINUOUS
10
0.466085
20
1.11367
11
0.465823
21
1.11439
0
LINE
8
BLACK
6
CONTINUOUS
10
0.465823
20
1.11439
11
0.465823
21
1.15376
0
LINE
8
BLACK
6
CONTINUOUS
10
0.465823
20
1.15376
11
0.465891
21
1.15415
0
LINE
8
BLACK
6
CONTINUOUS
10
0.465891
20
1.15415
11
0.465868
21
1.15428
0
LINE
8
BLACK
6
CONTINUOUS
10
0.465868
20
1.15428
11
0.465933
21
1.15439
0
LINE
8
BLACK
6
CONTINUOUS
10
0.465933
20
1.15439
11
0.466001
21
1.15477
0
LINE
8
BLACK
6
CONTINUOUS
10
0.466001
20
1.15477
11
0.466494
21
1.15536
0
LINE
8
BLACK
6
CONTINUOUS
10
0.466494
20
1.15536
11
0.466878
21
1.15603
0
LINE
8
BLACK
6
CONTINUOUS
10
0.466878
20
1.15603
11
0.467128
21
1.15612
0
LINE
8
BLACK
6
CONTINUOUS
10
0.467128
20
1.15612
11
0.467299
21
1.15632
0
LINE
8
BLACK
6
CONTINUOUS
10
0.467299
20
1.15632
11
0.468055
21
1.15645
0
LINE
8
BLACK
6
CONTINUOUS
10
0.468055
20
1.15645
11
0.468776
21
1.15672
0
LINE
8
BLACK
6
CONTINUOUS
10
0.468776
20
1.15672
11
0.47815
21
1.15672
0
LINE
8
BLACK
6
CONTINUOUS
10
0.47815
20
1.15672
11
0.479019
21
1.15656
0
LINE
8
BLACK
6
CONTINUOUS
10
0.471729
20
1.15081
11
0.471729
21
1.11735
0
LINE
8
BLACK
6
CONTINUOUS
10
0.471729
20
1.11735
11
0.47767
21
1.11735
0
LINE
8
BLACK
6
CONTINUOUS
10
0.47767
20
1.11735
11
0.482179
21
1.11885
0
LINE
8
BLACK
6
CONTINUOUS
10
0.482179
20
1.11885
11
0.485097
21
1.12177
0
LINE
8
BLACK
6
CONTINUOUS
10
0.485097
20
1.12177
11
0.486612
21
1.1248
0
LINE
8
BLACK
6
CONTINUOUS
10
0.486612
20
1.1248
11
0.48832
21
1.13163
0
LINE
8
BLACK
6
CONTINUOUS
10
0.48832
20
1.13163
11
0.48832
21
1.13653
0
LINE
8
BLACK
6
CONTINUOUS
10
0.48832
20
1.13653
11
0.486612
21
1.14336
0
LINE
8
BLACK
6
CONTINUOUS
10
0.486612
20
1.14336
11
0.485097
21
1.14639
0
LINE
8
BLACK
6
CONTINUOUS
10
0.485097
20
1.14639
11
0.482179
21
1.14931
0
LINE
8
BLACK
6
CONTINUOUS
10
0.482179
20
1.14931
11
0.47767
21
1.15081
0
LINE
8
BLACK
6
CONTINUOUS
10
0.47767
20
1.15081
11
0.471729
21
1.15081
0
LINE
8
BLACK
6
CONTINUOUS
10
0.639785
20
1.30566
11
0.640476
21
1.30376
0
LINE
8
BLACK
6
CONTINUOUS
10
0.640476
20
1.30376
11
0.640476
21
1.2884
0
LINE
8
BLACK
6
CONTINUOUS
10
0.640476
20
1.2884
11
0.657933
21
1.30585
0
LINE
8
BLACK
6
CONTINUOUS
10
0.657933
20
1.30585
11
0.658773
21
1.30644
0
LINE
8
BLACK
6
CONTINUOUS
10
0.658773
20
1.30644
11
0.660785
21
1.30662
0
LINE
8
BLACK
6
CONTINUOUS
10
0.660785
20
1.30662
11
0.662439
21
1.30546
0
LINE
8
BLACK
6
CONTINUOUS
10
0.662439
20
1.30546
11
0.662962
21
1.30351
0
LINE
8
BLACK
6
CONTINUOUS
10
0.662962
20
1.30351
11
0.662109
21
1.30168
0
LINE
8
BLACK
6
CONTINUOUS
10
0.662109
20
1.30168
11
0.647046
21
1.28661
0
LINE
8
BLACK
6
CONTINUOUS
10
0.647046
20
1.28661
11
0.662383
21
1.26617
0
LINE
8
BLACK
6
CONTINUOUS
10
0.662383
20
1.26617
11
0.662846
21
1.26525
0
LINE
8
BLACK
6
CONTINUOUS
10
0.662846
20
1.26525
11
0.662736
21
1.26323
0
LINE
8
BLACK
6
CONTINUOUS
10
0.662736
20
1.26323
11
0.661355
21
1.26176
0
LINE
8
BLACK
6
CONTINUOUS
10
0.661355
20
1.26176
11
0.65935
21
1.26152
0
LINE
8
BLACK
6
CONTINUOUS
10
0.65935
20
1.26152
11
0.657658
21
1.26262
0
LINE
8
BLACK
6
CONTINUOUS
10
0.657658
20
1.26262
11
0.642828
21
1.2824
0
LINE
8
BLACK
6
CONTINUOUS
10
0.642828
20
1.2824
11
0.640476
21
1.28004
0
LINE
8
BLACK
6
CONTINUOUS
10
0.640476
20
1.28004
11
0.640476
21
1.26439
0
LINE
8
BLACK
6
CONTINUOUS
10
0.640476
20
1.26439
11
0.640298
21
1.26338
0
LINE
8
BLACK
6
CONTINUOUS
10
0.640298
20
1.26338
11
0.639
21
1.26184
0
LINE
8
BLACK
6
CONTINUOUS
10
0.639
20
1.26184
11
0.637011
21
1.26149
0
LINE
8
BLACK
6
CONTINUOUS
10
0.637011
20
1.26149
11
0.635261
21
1.2625
0
LINE
8
BLACK
6
CONTINUOUS
10
0.635261
20
1.2625
11
0.634571
21
1.26439
0
LINE
8
BLACK
6
CONTINUOUS
10
0.634571
20
1.26439
11
0.634571
21
1.30376
0
LINE
8
BLACK
6
CONTINUOUS
10
0.634571
20
1.30376
11
0.634749
21
1.30477
0
LINE
8
BLACK
6
CONTINUOUS
10
0.634749
20
1.30477
11
0.636047
21
1.30632
0
LINE
8
BLACK
6
CONTINUOUS
10
0.636047
20
1.30632
11
0.638036
21
1.30667
0
LINE
8
BLACK
6
CONTINUOUS
10
0.638036
20
1.30667
11
0.639785
21
1.30566
0
LINE
8
BLACK
6
CONTINUOUS
10
0.524795
20
1.36506
11
0.525372
21
1.36366
0
LINE
8
BLACK
6
CONTINUOUS
10
0.525372
20
1.36366
11
0.525372
21
1.33413
0
LINE
8
BLACK
6
CONTINUOUS
10
0.525372
20
1.33413
11
0.558903
21
1.33413
0
LINE
8
BLACK
6
CONTINUOUS
10
0.558903
20
1.33413
11
0.560295
21
1.33356
0
LINE
8
BLACK
6
CONTINUOUS
10
0.560295
20
1.33356
11
0.560872
21
1.33216
0
LINE
8
BLACK
6
CONTINUOUS
10
0.560872
20
1.33216
11
0.560295
21
1.33077
0
LINE
8
BLACK
6
CONTINUOUS
10
0.560295
20
1.33077
11
0.558903
21
1.3302
0
LINE
8
BLACK
6
CONTINUOUS
10
0.558903
20
1.3302
11
0.525372
21
1.3302
0
LINE
8
BLACK
6
CONTINUOUS
10
0.525372
20
1.3302
11
0.525372
21
1.30066
0
LINE
8
BLACK
6
CONTINUOUS
10
0.525372
20
1.30066
11
0.524795
21
1.29927
0
LINE
8
BLACK
6
CONTINUOUS
10
0.524795
20
1.29927
11
0.523403
21
1.2987
0
LINE
8
BLACK
6
CONTINUOUS
10
0.523403
20
1.2987
11
0.522011
21
1.29927
0
LINE
8
BLACK
6
CONTINUOUS
10
0.522011
20
1.29927
11
0.521435
21
1.30066
0
LINE
8
BLACK
6
CONTINUOUS
10
0.521435
20
1.30066
11
0.521435
21
1.32853
0
LINE
8
BLACK
6
CONTINUOUS
10
0.521435
20
1.32853
11
0.479177
21
1.30102
0
LINE
8
BLACK
6
CONTINUOUS
10
0.479177
20
1.30102
11
0.478624
21
1.30091
0
LINE
8
BLACK
6
CONTINUOUS
10
0.478624
20
1.30091
11
0.478103
21
1.3007
0
LINE
8
BLACK
6
CONTINUOUS
10
0.478103
20
1.3007
11
0.477906
21
1.30078
0
LINE
8
BLACK
6
CONTINUOUS
10
0.477906
20
1.30078
11
0.477696
21
1.30074
0
LINE
8
BLACK
6
CONTINUOUS
10
0.477696
20
1.30074
11
0.477232
21
1.30106
0
LINE
8
BLACK
6
CONTINUOUS
10
0.477232
20
1.30106
11
0.476711
21
1.30127
0
LINE
8
BLACK
6
CONTINUOUS
10
0.476711
20
1.30127
11
0.47663
21
1.30147
0
LINE
8
BLACK
6
CONTINUOUS
10
0.47663
20
1.30147
11
0.476454
21
1.30159
0
LINE
8
BLACK
6
CONTINUOUS
10
0.476454
20
1.30159
11
0.47635
21
1.30214
0
LINE
8
BLACK
6
CONTINUOUS
10
0.47635
20
1.30214
11
0.476135
21
1.30266
0
LINE
8
BLACK
6
CONTINUOUS
10
0.476135
20
1.30266
11
0.476135
21
1.3302
0
LINE
8
BLACK
6
CONTINUOUS
10
0.476135
20
1.3302
11
0.438803
21
1.3302
0
LINE
8
BLACK
6
CONTINUOUS
10
0.438803
20
1.3302
11
0.437411
21
1.33077
0
LINE
8
BLACK
6
CONTINUOUS
10
0.437411
20
1.33077
11
0.436835
21
1.33216
0
LINE
8
BLACK
6
CONTINUOUS
10
0.436835
20
1.33216
11
0.437411
21
1.33356
0
LINE
8
BLACK
6
CONTINUOUS
10
0.437411
20
1.33356
11
0.438803
21
1.33413
0
LINE
8
BLACK
6
CONTINUOUS
10
0.438803
20
1.33413
11
0.476135
21
1.33413
0
LINE
8
BLACK
6
CONTINUOUS
10
0.476135
20
1.33413
11
0.476135
21
1.36366
0
LINE
8
BLACK
6
CONTINUOUS
10
0.476135
20
1.36366
11
0.476361
21
1.36421
0
LINE
8
BLACK
6
CONTINUOUS
10
0.476361
20
1.36421
11
0.476487
21
1.36479
0
LINE
8
BLACK
6
CONTINUOUS
10
0.476487
20
1.36479
11
0.476641
21
1.36489
0
LINE
8
BLACK
6
CONTINUOUS
10
0.476641
20
1.36489
11
0.476711
21
1.36506
0
LINE
8
BLACK
6
CONTINUOUS
10
0.476711
20
1.36506
11
0.477257
21
1.36528
0
LINE
8
BLACK
6
CONTINUOUS
10
0.477257
20
1.36528
11
0.477755
21
1.3656
0
LINE
8
BLACK
6
CONTINUOUS
10
0.477755
20
1.3656
11
0.477934
21
1.36556
0
LINE
8
BLACK
6
CONTINUOUS
10
0.477934
20
1.36556
11
0.478103
21
1.36563
0
LINE
8
BLACK
6
CONTINUOUS
10
0.478103
20
1.36563
11
0.478649
21
1.36541
0
LINE
8
BLACK
6
CONTINUOUS
10
0.478649
20
1.36541
11
0.479227
21
1.36528
0
LINE
8
BLACK
6
CONTINUOUS
10
0.479227
20
1.36528
11
0.521435
21
1.33593
0
LINE
8
BLACK
6
CONTINUOUS
10
0.521435
20
1.33593
11
0.521435
21
1.36366
0
LINE
8
BLACK
6
CONTINUOUS
10
0.521435
20
1.36366
11
0.522011
21
1.36506
0
LINE
8
BLACK
6
CONTINUOUS
10
0.522011
20
1.36506
11
0.523403
21
1.36563
0
LINE
8
BLACK
6
CONTINUOUS
10
0.523403
20
1.36563
11
0.524795
21
1.36506
0
LINE
8
BLACK
6
CONTINUOUS
10
0.480072
20
1.3063
11
0.519878
21
1.33222
0
LINE
8
BLACK
6
CONTINUOUS
10
0.519878
20
1.33222
11
0.480072
21
1.3599
0
LINE
8
BLACK
6
CONTINUOUS
10
0.480072
20
1.3599
11
0.480072
21
1.3063
0
LINE
8
BLACK
6
CONTINUOUS
10
3.18389
20
1.59092
11
3.18402
21
1.59094
0
LINE
8
BLACK
6
CONTINUOUS
10
3.18402
20
1.59094
11
3.18413
21
1.59087
0
LINE
8
BLACK
6
CONTINUOUS
10
3.18413
20
1.59087
11
3.18451
21
1.59081
0
LINE
8
BLACK
6
CONTINUOUS
10
3.18451
20
1.59081
11
3.1851
21
1.59031
0
LINE
8
BLACK
6
CONTINUOUS
10
3.1851
20
1.59031
11
3.18577
21
1.58993
0
LINE
8
BLACK
6
CONTINUOUS
10
3.18577
20
1.58993
11
3.18586
21
1.58968
0
LINE
8
BLACK
6
CONTINUOUS
10
3.18586
20
1.58968
11
3.18606
21
1.58951
0
LINE
8
BLACK
6
CONTINUOUS
10
3.18606
20
1.58951
11
3.18619
21
1.58875
0
LINE
8
BLACK
6
CONTINUOUS
10
3.18619
20
1.58875
11
3.18646
21
1.58803
0
LINE
8
BLACK
6
CONTINUOUS
10
3.18646
20
1.58803
11
3.18646
21
0.387244
0
LINE
8
BLACK
6
CONTINUOUS
10
3.18646
20
0.387244
11
3.18639
21
0.386861
0
LINE
8
BLACK
6
CONTINUOUS
10
3.18639
20
0.386861
11
3.18641
21
0.386731
0
LINE
8
BLACK
6
CONTINUOUS
10
3.18641
20
0.386731
11
3.18635
21
0.386618
0
LINE
8
BLACK
6
CONTINUOUS
10
3.18635
20
0.386618
11
3.18628
21
0.386234
0
LINE
8
BLACK
6
CONTINUOUS
10
3.18628
20
0.386234
11
3.18579
21
0.385646
0
LINE
8
BLACK
6
CONTINUOUS
10
3.18579
20
0.385646
11
3.1854
21
0.384982
0
LINE
8
BLACK
6
CONTINUOUS
10
3.1854
20
0.384982
11
3.18515
21
0.384891
0
LINE
8
BLACK
6
CONTINUOUS
10
3.18515
20
0.384891
11
3.18498
21
0.384687
0
LINE
8
BLACK
6
CONTINUOUS
10
3.18498
20
0.384687
11
3.18422
21
0.384554
0
LINE
8
BLACK
6
CONTINUOUS
10
3.18422
20
0.384554
11
3.1835
21
0.384291
0
LINE
8
BLACK
6
CONTINUOUS
10
3.1835
20
0.384291
11
1.45122
21
0.384291
0
LINE
8
BLACK
6
CONTINUOUS
10
1.45122
20
0.384291
11
1.45084
21
0.384359
0
LINE
8
BLACK
6
CONTINUOUS
10
1.45084
20
0.384359
11
1.45071
21
0.384336
0
LINE
8
BLACK
6
CONTINUOUS
10
1.45071
20
0.384336
11
1.45059
21
0.384402
0
LINE
8
BLACK
6
CONTINUOUS
10
1.45059
20
0.384402
11
1.45021
21
0.384469
0
LINE
8
BLACK
6
CONTINUOUS
10
1.45021
20
0.384469
11
1.44962
21
0.384963
0
LINE
8
BLACK
6
CONTINUOUS
10
1.44962
20
0.384963
11
1.44896
21
0.385346
0
LINE
8
BLACK
6
CONTINUOUS
10
1.44896
20
0.385346
11
1.44887
21
0.385596
0
LINE
8
BLACK
6
CONTINUOUS
10
1.44887
20
0.385596
11
1.44866
21
0.385768
0
LINE
8
BLACK
6
CONTINUOUS
10
1.44866
20
0.385768
11
1.44853
21
0.386523
0
LINE
8
BLACK
6
CONTINUOUS
10
1.44853
20
0.386523
11
1.44827
21
0.387244
0
LINE
8
BLACK
6
CONTINUOUS
10
1.44827
20
0.387244
11
1.44827
21
1.58803
0
LINE
8
BLACK
6
CONTINUOUS
10
1.44827
20
1.58803
11
1.44834
21
1.58842
0
LINE
8
BLACK
6
CONTINUOUS
10
1.44834
20
1.58842
11
1.44831
21
1.58854
0
LINE
8
BLACK
6
CONTINUOUS
10
1.44831
20
1.58854
11
1.44838
21
1.58866
0
LINE
8
BLACK
6
CONTINUOUS
10
1.44838
20
1.58866
11
1.44845
21
1.58904
0
LINE
8
BLACK
6
CONTINUOUS
10
1.44845
20
1.58904
11
1.44894
21
1.58963
0
LINE
8
BLACK
6
CONTINUOUS
10
1.44894
20
1.58963
11
1.44932
21
1.59029
0
LINE
8
BLACK
6
CONTINUOUS
10
1.44932
20
1.59029
11
1.44957
21
1.59038
0
LINE
8
BLACK
6
CONTINUOUS
10
1.44957
20
1.59038
11
1.44974
21
1.59059
0
LINE
8
BLACK
6
CONTINUOUS
10
1.44974
20
1.59059
11
1.4505
21
1.59072
0
LINE
8
BLACK
6
CONTINUOUS
10
1.4505
20
1.59072
11
1.45122
21
1.59098
0
LINE
8
BLACK
6
CONTINUOUS
10
1.45122
20
1.59098
11
3.1835
21
1.59098
0
LINE
8
BLACK
6
CONTINUOUS
10
3.1835
20
1.59098
11
3.18389
21
1.59092
0
LINE
8
BLACK
6
CONTINUOUS
10
1.45417
20
1.58508
11
1.45417
21
0.390197
0
LINE
8
BLACK
6
CONTINUOUS
10
1.45417
20
0.390197
11
3.18055
21
0.390197
0
LINE
8
BLACK
6
CONTINUOUS
10
3.18055
20
0.390197
11
3.18055
21
1.58508
0
LINE
8
BLACK
6
CONTINUOUS
10
3.18055
20
1.58508
11
1.45417
21
1.58508
0
LINE
8
BLACK
6
CONTINUOUS
10
2.15883
20
1.22027
11
2.15894
21
1.2203
0
LINE
8
BLACK
6
CONTINUOUS
10
2.15894
20
1.2203
11
2.15907
21
1.22023
0
LINE
8
BLACK
6
CONTINUOUS
10
2.15907
20
1.22023
11
2.15953
21
1.22015
0
LINE
8
BLACK
6
CONTINUOUS
10
2.15953
20
1.22015
11
2.16009
21
1.21968
0
LINE
8
BLACK
6
CONTINUOUS
10
2.16009
20
1.21968
11
2.16072
21
1.21934
0
LINE
8
BLACK
6
CONTINUOUS
10
2.16072
20
1.21934
11
2.16084
21
1.21905
0
LINE
8
BLACK
6
CONTINUOUS
10
2.16084
20
1.21905
11
2.16108
21
1.21885
0
LINE
8
BLACK
6
CONTINUOUS
10
2.16108
20
1.21885
11
2.16121
21
1.21814
0
LINE
8
BLACK
6
CONTINUOUS
10
2.16121
20
1.21814
11
2.16148
21
1.21747
0
LINE
8
BLACK
6
CONTINUOUS
10
2.16148
20
1.21747
11
2.16138
21
1.21717
0
LINE
8
BLACK
6
CONTINUOUS
10
2.16138
20
1.21717
11
2.16143
21
1.21686
0
LINE
8
BLACK
6
CONTINUOUS
10
2.16143
20
1.21686
11
2.16107
21
1.21624
0
LINE
8
BLACK
6
CONTINUOUS
10
2.16107
20
1.21624
11
2.16085
21
1.21555
0
LINE
8
BLACK
6
CONTINUOUS
10
2.16085
20
1.21555
11
2.14398
21
1.19408
0
LINE
8
BLACK
6
CONTINUOUS
10
2.14398
20
1.19408
11
2.15852
21
1.19408
0
LINE
8
BLACK
6
CONTINUOUS
10
2.15852
20
1.19408
11
2.15953
21
1.1939
0
LINE
8
BLACK
6
CONTINUOUS
10
2.15953
20
1.1939
11
2.16108
21
1.1926
0
LINE
8
BLACK
6
CONTINUOUS
10
2.16108
20
1.1926
11
2.16143
21
1.19061
0
LINE
8
BLACK
6
CONTINUOUS
10
2.16143
20
1.19061
11
2.16042
21
1.18886
0
LINE
8
BLACK
6
CONTINUOUS
10
2.16042
20
1.18886
11
2.15852
21
1.18817
0
LINE
8
BLACK
6
CONTINUOUS
10
2.15852
20
1.18817
11
2.1379
21
1.18817
0
LINE
8
BLACK
6
CONTINUOUS
10
2.1379
20
1.18817
11
2.1376
21
1.18823
0
LINE
8
BLACK
6
CONTINUOUS
10
2.1376
20
1.18823
11
2.13748
21
1.1882
0
LINE
8
BLACK
6
CONTINUOUS
10
2.13748
20
1.1882
11
2.13736
21
1.18827
0
LINE
8
BLACK
6
CONTINUOUS
10
2.13736
20
1.18827
11
2.13689
21
1.18835
0
LINE
8
BLACK
6
CONTINUOUS
10
2.13689
20
1.18835
11
2.13634
21
1.18882
0
LINE
8
BLACK
6
CONTINUOUS
10
2.13634
20
1.18882
11
2.1357
21
1.18916
0
LINE
8
BLACK
6
CONTINUOUS
10
2.1357
20
1.18916
11
2.13559
21
1.18945
0
LINE
8
BLACK
6
CONTINUOUS
10
2.13559
20
1.18945
11
2.13534
21
1.18965
0
LINE
8
BLACK
6
CONTINUOUS
10
2.13534
20
1.18965
11
2.13522
21
1.19036
0
LINE
8
BLACK
6
CONTINUOUS
10
2.13522
20
1.19036
11
2.13495
21
1.19103
0
LINE
8
BLACK
6
CONTINUOUS
10
2.13495
20
1.19103
11
2.13505
21
1.19133
0
LINE
8
BLACK
6
CONTINUOUS
10
2.13505
20
1.19133
11
2.13499
21
1.19164
0
LINE
8
BLACK
6
CONTINUOUS
10
2.13499
20
1.19164
11
2.13536
21
1.19226
0
LINE
8
BLACK
6
CONTINUOUS
10
2.13536
20
1.19226
11
2.13558
21
1.19295
0
LINE
8
BLACK
6
CONTINUOUS
10
2.13558
20
1.19295
11
2.15245
21
1.21442
0
LINE
8
BLACK
6
CONTINUOUS
10
2.15245
20
1.21442
11
2.1379
21
1.21442
0
LINE
8
BLACK
6
CONTINUOUS
10
2.1379
20
1.21442
11
2.13689
21
1.2146
0
LINE
8
BLACK
6
CONTINUOUS
10
2.13689
20
1.2146
11
2.13534
21
1.2159
0
LINE
8
BLACK
6
CONTINUOUS
10
2.13534
20
1.2159
11
2.13499
21
1.21789
0
LINE
8
BLACK
6
CONTINUOUS
10
2.13499
20
1.21789
11
2.136
21
1.21964
0
LINE
8
BLACK
6
CONTINUOUS
10
2.136
20
1.21964
11
2.1379
21
1.22033
0
LINE
8
BLACK
6
CONTINUOUS
10
2.1379
20
1.22033
11
2.15852
21
1.22033
0
LINE
8
BLACK
6
CONTINUOUS
10
2.15852
20
1.22033
11
2.15883
21
1.22027
0
LINE
8
BLACK
6
CONTINUOUS
10
1.99014
20
1.23338
11
1.99031
21
1.2334
0
LINE
8
BLACK
6
CONTINUOUS
10
1.99031
20
1.2334
11
1.99105
21
1.23298
0
LINE
8
BLACK
6
CONTINUOUS
10
1.99105
20
1.23298
11
1.99184
21
1.23263
0
LINE
8
BLACK
6
CONTINUOUS
10
1.99184
20
1.23263
11
1.99191
21
1.23248
0
LINE
8
BLACK
6
CONTINUOUS
10
1.99191
20
1.23248
11
1.99206
21
1.23239
0
LINE
8
BLACK
6
CONTINUOUS
10
1.99206
20
1.23239
11
1.99235
21
1.23159
0
LINE
8
BLACK
6
CONTINUOUS
10
1.99235
20
1.23159
11
1.99273
21
1.23082
0
LINE
8
BLACK
6
CONTINUOUS
10
1.99273
20
1.23082
11
1.99269
21
1.23066
0
LINE
8
BLACK
6
CONTINUOUS
10
1.99269
20
1.23066
11
1.99275
21
1.2305
0
LINE
8
BLACK
6
CONTINUOUS
10
1.99275
20
1.2305
11
1.99275
21
1.19408
0
LINE
8
BLACK
6
CONTINUOUS
10
1.99275
20
1.19408
11
2.00104
21
1.19408
0
LINE
8
BLACK
6
CONTINUOUS
10
2.00104
20
1.19408
11
2.00205
21
1.1939
0
LINE
8
BLACK
6
CONTINUOUS
10
2.00205
20
1.1939
11
2.0036
21
1.1926
0
LINE
8
BLACK
6
CONTINUOUS
10
2.0036
20
1.1926
11
2.00395
21
1.19061
0
LINE
8
BLACK
6
CONTINUOUS
10
2.00395
20
1.19061
11
2.00294
21
1.18886
0
LINE
8
BLACK
6
CONTINUOUS
10
2.00294
20
1.18886
11
2.00104
21
1.18817
0
LINE
8
BLACK
6
CONTINUOUS
10
2.00104
20
1.18817
11
1.97855
21
1.18817
0
LINE
8
BLACK
6
CONTINUOUS
10
1.97855
20
1.18817
11
1.97754
21
1.18835
0
LINE
8
BLACK
6
CONTINUOUS
10
1.97754
20
1.18835
11
1.97599
21
1.18965
0
LINE
8
BLACK
6
CONTINUOUS
10
1.97599
20
1.18965
11
1.97564
21
1.19164
0
LINE
8
BLACK
6
CONTINUOUS
10
1.97564
20
1.19164
11
1.97665
21
1.19339
0
LINE
8
BLACK
6
CONTINUOUS
10
1.97665
20
1.19339
11
1.97855
21
1.19408
0
LINE
8
BLACK
6
CONTINUOUS
10
1.97855
20
1.19408
11
1.98684
21
1.19408
0
LINE
8
BLACK
6
CONTINUOUS
10
1.98684
20
1.19408
11
1.98684
21
1.22149
0
LINE
8
BLACK
6
CONTINUOUS
10
1.98684
20
1.22149
11
1.98438
21
1.21904
0
LINE
8
BLACK
6
CONTINUOUS
10
1.98438
20
1.21904
11
1.98366
21
1.21853
0
LINE
8
BLACK
6
CONTINUOUS
10
1.98366
20
1.21853
11
1.98362
21
1.21848
0
LINE
8
BLACK
6
CONTINUOUS
10
1.98362
20
1.21848
11
1.97987
21
1.21661
0
LINE
8
BLACK
6
CONTINUOUS
10
1.97987
20
1.21661
11
1.97888
21
1.21631
0
LINE
8
BLACK
6
CONTINUOUS
10
1.97888
20
1.21631
11
1.97692
21
1.21678
0
LINE
8
BLACK
6
CONTINUOUS
10
1.97692
20
1.21678
11
1.97572
21
1.21841
0
LINE
8
BLACK
6
CONTINUOUS
10
1.97572
20
1.21841
11
1.97584
21
1.22042
0
LINE
8
BLACK
6
CONTINUOUS
10
1.97584
20
1.22042
11
1.97723
21
1.22189
0
LINE
8
BLACK
6
CONTINUOUS
10
1.97723
20
1.22189
11
1.98055
21
1.22355
0
LINE
8
BLACK
6
CONTINUOUS
10
1.98055
20
1.22355
11
1.98375
21
1.22675
0
LINE
8
BLACK
6
CONTINUOUS
10
1.98375
20
1.22675
11
1.98734
21
1.23213
0
LINE
8
BLACK
6
CONTINUOUS
10
1.98734
20
1.23213
11
1.98805
21
1.23288
0
LINE
8
BLACK
6
CONTINUOUS
10
1.98805
20
1.23288
11
1.98821
21
1.23292
0
LINE
8
BLACK
6
CONTINUOUS
10
1.98821
20
1.23292
11
1.98832
21
1.23305
0
LINE
8
BLACK
6
CONTINUOUS
10
1.98832
20
1.23305
11
1.98916
21
1.2332
0
LINE
8
BLACK
6
CONTINUOUS
10
1.98916
20
1.2332
11
1.98999
21
1.23344
0
LINE
8
BLACK
6
CONTINUOUS
10
1.98999
20
1.23344
11
1.99014
21
1.23338
0
LINE
8
BLACK
6
CONTINUOUS
10
2.0358
20
1.23327
11
2.03735
21
1.23197
0
LINE
8
BLACK
6
CONTINUOUS
10
2.03735
20
1.23197
11
2.0377
21
1.22998
0
LINE
8
BLACK
6
CONTINUOUS
10
2.0377
20
1.22998
11
2.03669
21
1.22823
0
LINE
8
BLACK
6
CONTINUOUS
10
2.03669
20
1.22823
11
2.03479
21
1.22754
0
LINE
8
BLACK
6
CONTINUOUS
10
2.03479
20
1.22754
11
2.02799
21
1.22754
0
LINE
8
BLACK
6
CONTINUOUS
10
2.02799
20
1.22754
11
2.02529
21
1.2262
0
LINE
8
BLACK
6
CONTINUOUS
10
2.02529
20
1.2262
11
2.02396
21
1.22487
0
LINE
8
BLACK
6
CONTINUOUS
10
2.02396
20
1.22487
11
2.02066
21
1.21991
0
LINE
8
BLACK
6
CONTINUOUS
10
2.02066
20
1.21991
11
2.01993
21
1.21699
0
LINE
8
BLACK
6
CONTINUOUS
10
2.01993
20
1.21699
11
2.02222
21
1.21814
0
LINE
8
BLACK
6
CONTINUOUS
10
2.02222
20
1.21814
11
2.0232
21
1.21843
0
LINE
8
BLACK
6
CONTINUOUS
10
2.0232
20
1.21843
11
2.02338
21
1.21839
0
LINE
8
BLACK
6
CONTINUOUS
10
2.02338
20
1.21839
11
2.02354
21
1.21845
0
LINE
8
BLACK
6
CONTINUOUS
10
2.02354
20
1.21845
11
2.03104
21
1.21845
0
LINE
8
BLACK
6
CONTINUOUS
10
2.03104
20
1.21845
11
2.03205
21
1.21827
0
LINE
8
BLACK
6
CONTINUOUS
10
2.03205
20
1.21827
11
2.03219
21
1.21816
0
LINE
8
BLACK
6
CONTINUOUS
10
2.03219
20
1.21816
11
2.03236
21
1.21814
0
LINE
8
BLACK
6
CONTINUOUS
10
2.03236
20
1.21814
11
2.03611
21
1.21626
0
LINE
8
BLACK
6
CONTINUOUS
10
2.03611
20
1.21626
11
2.03682
21
1.21574
0
LINE
8
BLACK
6
CONTINUOUS
10
2.03682
20
1.21574
11
2.03688
21
1.21571
0
LINE
8
BLACK
6
CONTINUOUS
10
2.03688
20
1.21571
11
2.03875
21
1.21384
0
LINE
8
BLACK
6
CONTINUOUS
10
2.03875
20
1.21384
11
2.03926
21
1.21311
0
LINE
8
BLACK
6
CONTINUOUS
10
2.03926
20
1.21311
11
2.03931
21
1.21307
0
LINE
8
BLACK
6
CONTINUOUS
10
2.03931
20
1.21307
11
2.04118
21
1.20932
0
LINE
8
BLACK
6
CONTINUOUS
10
2.04118
20
1.20932
11
2.04147
21
1.20834
0
LINE
8
BLACK
6
CONTINUOUS
10
2.04147
20
1.20834
11
2.04143
21
1.20817
0
LINE
8
BLACK
6
CONTINUOUS
10
2.04143
20
1.20817
11
2.04149
21
1.208
0
LINE
8
BLACK
6
CONTINUOUS
10
2.04149
20
1.208
11
2.04149
21
1.19863
0
LINE
8
BLACK
6
CONTINUOUS
10
2.04149
20
1.19863
11
2.04131
21
1.19762
0
LINE
8
BLACK
6
CONTINUOUS
10
2.04131
20
1.19762
11
2.0412
21
1.19748
0
LINE
8
BLACK
6
CONTINUOUS
10
2.0412
20
1.19748
11
2.04118
21
1.19731
0
LINE
8
BLACK
6
CONTINUOUS
10
2.04118
20
1.19731
11
2.03931
21
1.19356
0
LINE
8
BLACK
6
CONTINUOUS
10
2.03931
20
1.19356
11
2.03878
21
1.19285
0
LINE
8
BLACK
6
CONTINUOUS
10
2.03878
20
1.19285
11
2.03875
21
1.19279
0
LINE
8
BLACK
6
CONTINUOUS
10
2.03875
20
1.19279
11
2.03688
21
1.19091
0
LINE
8
BLACK
6
CONTINUOUS
10
2.03688
20
1.19091
11
2.03615
21
1.19041
0
LINE
8
BLACK
6
CONTINUOUS
10
2.03615
20
1.19041
11
2.03611
21
1.19036
0
LINE
8
BLACK
6
CONTINUOUS
10
2.03611
20
1.19036
11
2.03236
21
1.18849
0
LINE
8
BLACK
6
CONTINUOUS
10
2.03236
20
1.18849
11
2.03138
21
1.18819
0
LINE
8
BLACK
6
CONTINUOUS
10
2.03138
20
1.18819
11
2.03121
21
1.18823
0
LINE
8
BLACK
6
CONTINUOUS
10
2.03121
20
1.18823
11
2.03104
21
1.18817
0
LINE
8
BLACK
6
CONTINUOUS
10
2.03104
20
1.18817
11
2.02354
21
1.18817
0
LINE
8
BLACK
6
CONTINUOUS
10
2.02354
20
1.18817
11
2.02253
21
1.18835
0
LINE
8
BLACK
6
CONTINUOUS
10
2.02253
20
1.18835
11
2.0224
21
1.18847
0
LINE
8
BLACK
6
CONTINUOUS
10
2.0224
20
1.18847
11
2.02222
21
1.18849
0
LINE
8
BLACK
6
CONTINUOUS
10
2.02222
20
1.18849
11
2.01847
21
1.19036
0
LINE
8
BLACK
6
CONTINUOUS
10
2.01847
20
1.19036
11
2.01776
21
1.19089
0
LINE
8
BLACK
6
CONTINUOUS
10
2.01776
20
1.19089
11
2.0177
21
1.19091
0
LINE
8
BLACK
6
CONTINUOUS
10
2.0177
20
1.19091
11
2.01583
21
1.19279
0
LINE
8
BLACK
6
CONTINUOUS
10
2.01583
20
1.19279
11
2.01532
21
1.19351
0
LINE
8
BLACK
6
CONTINUOUS
10
2.01532
20
1.19351
11
2.01528
21
1.19356
0
LINE
8
BLACK
6
CONTINUOUS
10
2.01528
20
1.19356
11
2.0134
21
1.19731
0
LINE
8
BLACK
6
CONTINUOUS
10
2.0134
20
1.19731
11
2.01311
21
1.19829
0
LINE
8
BLACK
6
CONTINUOUS
10
2.01311
20
1.19829
11
2.01315
21
1.19846
0
LINE
8
BLACK
6
CONTINUOUS
10
2.01315
20
1.19846
11
2.01309
21
1.19863
0
LINE
8
BLACK
6
CONTINUOUS
10
2.01309
20
1.19863
11
2.01309
21
1.21362
0
LINE
8
BLACK
6
CONTINUOUS
10
2.01309
20
1.21362
11
2.01319
21
1.2142
0
LINE
8
BLACK
6
CONTINUOUS
10
2.01319
20
1.2142
11
2.01318
21
1.21434
0
LINE
8
BLACK
6
CONTINUOUS
10
2.01318
20
1.21434
11
2.01505
21
1.22184
0
LINE
8
BLACK
6
CONTINUOUS
10
2.01505
20
1.22184
11
2.01546
21
1.22274
0
LINE
8
BLACK
6
CONTINUOUS
10
2.01546
20
1.22274
11
2.01546
21
1.22276
0
LINE
8
BLACK
6
CONTINUOUS
10
2.01546
20
1.22276
11
2.01921
21
1.22839
0
LINE
8
BLACK
6
CONTINUOUS
10
2.01921
20
1.22839
11
2.01952
21
1.22871
0
LINE
8
BLACK
6
CONTINUOUS
10
2.01952
20
1.22871
11
2.01958
21
1.22884
0
LINE
8
BLACK
6
CONTINUOUS
10
2.01958
20
1.22884
11
2.02145
21
1.23071
0
LINE
8
BLACK
6
CONTINUOUS
10
2.02145
20
1.23071
11
2.02218
21
1.23122
0
LINE
8
BLACK
6
CONTINUOUS
10
2.02218
20
1.23122
11
2.02222
21
1.23126
0
LINE
8
BLACK
6
CONTINUOUS
10
2.02222
20
1.23126
11
2.02597
21
1.23314
0
LINE
8
BLACK
6
CONTINUOUS
10
2.02597
20
1.23314
11
2.02695
21
1.23343
0
LINE
8
BLACK
6
CONTINUOUS
10
2.02695
20
1.23343
11
2.02713
21
1.23339
0
LINE
8
BLACK
6
CONTINUOUS
10
2.02713
20
1.23339
11
2.02729
21
1.23345
0
LINE
8
BLACK
6
CONTINUOUS
10
2.02729
20
1.23345
11
2.03479
21
1.23345
0
LINE
8
BLACK
6
CONTINUOUS
10
2.03479
20
1.23345
11
2.0358
21
1.23327
0
LINE
8
BLACK
6
CONTINUOUS
10
2.02424
20
1.21255
11
2.02154
21
1.2112
0
LINE
8
BLACK
6
CONTINUOUS
10
2.02154
20
1.2112
11
2.02034
21
1.21
0
LINE
8
BLACK
6
CONTINUOUS
10
2.02034
20
1.21
11
2.019
21
1.2073
0
LINE
8
BLACK
6
CONTINUOUS
10
2.019
20
1.2073
11
2.019
21
1.19932
0
LINE
8
BLACK
6
CONTINUOUS
10
2.019
20
1.19932
11
2.02034
21
1.19663
0
LINE
8
BLACK
6
CONTINUOUS
10
2.02034
20
1.19663
11
2.02154
21
1.19543
0
LINE
8
BLACK
6
CONTINUOUS
10
2.02154
20
1.19543
11
2.02424
21
1.19408
0
LINE
8
BLACK
6
CONTINUOUS
10
2.02424
20
1.19408
11
2.03034
21
1.19408
0
LINE
8
BLACK
6
CONTINUOUS
10
2.03034
20
1.19408
11
2.03304
21
1.19543
0
LINE
8
BLACK
6
CONTINUOUS
10
2.03304
20
1.19543
11
2.03424
21
1.19663
0
LINE
8
BLACK
6
CONTINUOUS
10
2.03424
20
1.19663
11
2.03559
21
1.19932
0
LINE
8
BLACK
6
CONTINUOUS
10
2.03559
20
1.19932
11
2.03559
21
1.2073
0
LINE
8
BLACK
6
CONTINUOUS
10
2.03559
20
1.2073
11
2.03424
21
1.21
0
LINE
8
BLACK
6
CONTINUOUS
10
2.03424
20
1.21
11
2.03304
21
1.2112
0
LINE
8
BLACK
6
CONTINUOUS
10
2.03304
20
1.2112
11
2.03034
21
1.21255
0
LINE
8
BLACK
6
CONTINUOUS
10
2.03034
20
1.21255
11
2.02424
21
1.21255
0
LINE
8
BLACK
6
CONTINUOUS
10
2.12517
20
1.23239
11
2.12586
21
1.2305
0
LINE
8
BLACK
6
CONTINUOUS
10
2.12586
20
1.2305
11
2.12586
21
1.19113
0
LINE
8
BLACK
6
CONTINUOUS
10
2.12586
20
1.19113
11
2.12568
21
1.19012
0
LINE
8
BLACK
6
CONTINUOUS
10
2.12568
20
1.19012
11
2.12438
21
1.18857
0
LINE
8
BLACK
6
CONTINUOUS
10
2.12438
20
1.18857
11
2.12239
21
1.18822
0
LINE
8
BLACK
6
CONTINUOUS
10
2.12239
20
1.18822
11
2.12064
21
1.18923
0
LINE
8
BLACK
6
CONTINUOUS
10
2.12064
20
1.18923
11
2.11995
21
1.19113
0
LINE
8
BLACK
6
CONTINUOUS
10
2.11995
20
1.19113
11
2.11995
21
1.2088
0
LINE
8
BLACK
6
CONTINUOUS
10
2.11995
20
1.2088
11
2.10336
21
1.2088
0
LINE
8
BLACK
6
CONTINUOUS
10
2.10336
20
1.2088
11
2.10336
21
1.19113
0
LINE
8
BLACK
6
CONTINUOUS
10
2.10336
20
1.19113
11
2.10318
21
1.19012
0
LINE
8
BLACK
6
CONTINUOUS
10
2.10318
20
1.19012
11
2.10188
21
1.18857
0
LINE
8
BLACK
6
CONTINUOUS
10
2.10188
20
1.18857
11
2.09989
21
1.18822
0
LINE
8
BLACK
6
CONTINUOUS
10
2.09989
20
1.18822
11
2.09814
21
1.18923
0
LINE
8
BLACK
6
CONTINUOUS
10
2.09814
20
1.18923
11
2.09745
21
1.19113
0
LINE
8
BLACK
6
CONTINUOUS
10
2.09745
20
1.19113
11
2.09745
21
1.2305
0
LINE
8
BLACK
6
CONTINUOUS
10
2.09745
20
1.2305
11
2.09763
21
1.23151
0
LINE
8
BLACK
6
CONTINUOUS
10
2.09763
20
1.23151
11
2.09893
21
1.23305
0
LINE
8
BLACK
6
CONTINUOUS
10
2.09893
20
1.23305
11
2.10092
21
1.2334
0
LINE
8
BLACK
6
CONTINUOUS
10
2.10092
20
1.2334
11
2.10267
21
1.23239
0
LINE
8
BLACK
6
CONTINUOUS
10
2.10267
20
1.23239
11
2.10336
21
1.2305
0
LINE
8
BLACK
6
CONTINUOUS
10
2.10336
20
1.2305
11
2.10336
21
1.2147
0
LINE
8
BLACK
6
CONTINUOUS
10
2.10336
20
1.2147
11
2.11995
21
1.2147
0
LINE
8
BLACK
6
CONTINUOUS
10
2.11995
20
1.2147
11
2.11995
21
1.2305
0
LINE
8
BLACK
6
CONTINUOUS
10
2.11995
20
1.2305
11
2.12013
21
1.23151
0
LINE
8
BLACK
6
CONTINUOUS
10
2.12013
20
1.23151
11
2.12143
21
1.23305
0
LINE
8
BLACK
6
CONTINUOUS
10
2.12143
20
1.23305
11
2.12342
21
1.2334
0
LINE
8
BLACK
6
CONTINUOUS
10
2.12342
20
1.2334
11
2.12517
21
1.23239
0
LINE
8
BLACK
6
CONTINUOUS
10
2.08178
20
1.23334
11
2.08217
21
1.2334
0
LINE
8
BLACK
6
CONTINUOUS
10
2.08217
20
1.2334
11
2.08273
21
1.23308
0
LINE
8
BLACK
6
CONTINUOUS
10
2.08273
20
1.23308
11
2.08335
21
1.23292
0
LINE
8
BLACK
6
CONTINUOUS
10
2.08335
20
1.23292
11
2.08358
21
1.23259
0
LINE
8
BLACK
6
CONTINUOUS
10
2.08358
20
1.23259
11
2.08392
21
1.23239
0
LINE
8
BLACK
6
CONTINUOUS
10
2.08392
20
1.23239
11
2.08414
21
1.23179
0
LINE
8
BLACK
6
CONTINUOUS
10
2.08414
20
1.23179
11
2.08451
21
1.23126
0
LINE
8
BLACK
6
CONTINUOUS
10
2.08451
20
1.23126
11
2.08448
21
1.23087
0
LINE
8
BLACK
6
CONTINUOUS
10
2.08448
20
1.23087
11
2.08461
21
1.2305
0
LINE
8
BLACK
6
CONTINUOUS
10
2.08461
20
1.2305
11
2.08461
21
1.19113
0
LINE
8
BLACK
6
CONTINUOUS
10
2.08461
20
1.19113
11
2.08443
21
1.19012
0
LINE
8
BLACK
6
CONTINUOUS
10
2.08443
20
1.19012
11
2.08314
21
1.18857
0
LINE
8
BLACK
6
CONTINUOUS
10
2.08314
20
1.18857
11
2.08115
21
1.18822
0
LINE
8
BLACK
6
CONTINUOUS
10
2.08115
20
1.18822
11
2.0794
21
1.18923
0
LINE
8
BLACK
6
CONTINUOUS
10
2.0794
20
1.18923
11
2.07871
21
1.19113
0
LINE
8
BLACK
6
CONTINUOUS
10
2.07871
20
1.19113
11
2.07871
21
1.21719
0
LINE
8
BLACK
6
CONTINUOUS
10
2.07871
20
1.21719
11
2.07121
21
1.20113
0
LINE
8
BLACK
6
CONTINUOUS
10
2.07121
20
1.20113
11
2.07099
21
1.20081
0
LINE
8
BLACK
6
CONTINUOUS
10
2.07099
20
1.20081
11
2.07096
21
1.20068
0
LINE
8
BLACK
6
CONTINUOUS
10
2.07096
20
1.20068
11
2.07085
21
1.20061
0
LINE
8
BLACK
6
CONTINUOUS
10
2.07085
20
1.20061
11
2.07062
21
1.20029
0
LINE
8
BLACK
6
CONTINUOUS
10
2.07062
20
1.20029
11
2.06993
21
1.19996
0
LINE
8
BLACK
6
CONTINUOUS
10
2.06993
20
1.19996
11
2.0693
21
1.19952
0
LINE
8
BLACK
6
CONTINUOUS
10
2.0693
20
1.19952
11
2.06903
21
1.19955
0
LINE
8
BLACK
6
CONTINUOUS
10
2.06903
20
1.19955
11
2.06879
21
1.19943
0
LINE
8
BLACK
6
CONTINUOUS
10
2.06879
20
1.19943
11
2.06805
21
1.19963
0
LINE
8
BLACK
6
CONTINUOUS
10
2.06805
20
1.19963
11
2.06729
21
1.1997
0
LINE
8
BLACK
6
CONTINUOUS
10
2.06729
20
1.1997
11
2.0671
21
1.19989
0
LINE
8
BLACK
6
CONTINUOUS
10
2.0671
20
1.19989
11
2.06684
21
1.19996
0
LINE
8
BLACK
6
CONTINUOUS
10
2.06684
20
1.19996
11
2.0664
21
1.20058
0
LINE
8
BLACK
6
CONTINUOUS
10
2.0664
20
1.20058
11
2.06586
21
1.20113
0
LINE
8
BLACK
6
CONTINUOUS
10
2.06586
20
1.20113
11
2.05837
21
1.21719
0
LINE
8
BLACK
6
CONTINUOUS
10
2.05837
20
1.21719
11
2.05837
21
1.19113
0
LINE
8
BLACK
6
CONTINUOUS
10
2.05837
20
1.19113
11
2.05819
21
1.19012
0
LINE
8
BLACK
6
CONTINUOUS
10
2.05819
20
1.19012
11
2.05689
21
1.18857
0
LINE
8
BLACK
6
CONTINUOUS
10
2.05689
20
1.18857
11
2.0549
21
1.18822
0
LINE
8
BLACK
6
CONTINUOUS
10
2.0549
20
1.18822
11
2.05315
21
1.18923
0
LINE
8
BLACK
6
CONTINUOUS
10
2.05315
20
1.18923
11
2.05246
21
1.19113
0
LINE
8
BLACK
6
CONTINUOUS
10
2.05246
20
1.19113
11
2.05246
21
1.2305
0
LINE
8
BLACK
6
CONTINUOUS
10
2.05246
20
1.2305
11
2.05264
21
1.23151
0
LINE
8
BLACK
6
CONTINUOUS
10
2.05264
20
1.23151
11
2.05289
21
1.23181
0
LINE
8
BLACK
6
CONTINUOUS
10
2.05289
20
1.23181
11
2.05299
21
1.23219
0
LINE
8
BLACK
6
CONTINUOUS
10
2.05299
20
1.23219
11
2.05352
21
1.23256
0
LINE
8
BLACK
6
CONTINUOUS
10
2.05352
20
1.23256
11
2.05394
21
1.23305
0
LINE
8
BLACK
6
CONTINUOUS
10
2.05394
20
1.23305
11
2.05432
21
1.23312
0
LINE
8
BLACK
6
CONTINUOUS
10
2.05432
20
1.23312
11
2.05465
21
1.23335
0
LINE
8
BLACK
6
CONTINUOUS
10
2.05465
20
1.23335
11
2.05529
21
1.23329
0
LINE
8
BLACK
6
CONTINUOUS
10
2.05529
20
1.23329
11
2.05593
21
1.2334
0
LINE
8
BLACK
6
CONTINUOUS
10
2.05593
20
1.2334
11
2.05627
21
1.23321
0
LINE
8
BLACK
6
CONTINUOUS
10
2.05627
20
1.23321
11
2.05666
21
1.23317
0
LINE
8
BLACK
6
CONTINUOUS
10
2.05666
20
1.23317
11
2.05712
21
1.23272
0
LINE
8
BLACK
6
CONTINUOUS
10
2.05712
20
1.23272
11
2.05767
21
1.23239
0
LINE
8
BLACK
6
CONTINUOUS
10
2.05767
20
1.23239
11
2.05781
21
1.23202
0
LINE
8
BLACK
6
CONTINUOUS
10
2.05781
20
1.23202
11
2.05809
21
1.23175
0
LINE
8
BLACK
6
CONTINUOUS
10
2.05809
20
1.23175
11
2.06854
21
1.20936
0
LINE
8
BLACK
6
CONTINUOUS
10
2.06854
20
1.20936
11
2.07898
21
1.23175
0
LINE
8
BLACK
6
CONTINUOUS
10
2.07898
20
1.23175
11
2.07957
21
1.23259
0
LINE
8
BLACK
6
CONTINUOUS
10
2.07957
20
1.23259
11
2.07993
21
1.23275
0
LINE
8
BLACK
6
CONTINUOUS
10
2.07993
20
1.23275
11
2.08018
21
1.23305
0
LINE
8
BLACK
6
CONTINUOUS
10
2.08018
20
1.23305
11
2.08082
21
1.23317
0
LINE
8
BLACK
6
CONTINUOUS
10
2.08082
20
1.23317
11
2.0814
21
1.23344
0
LINE
8
BLACK
6
CONTINUOUS
10
2.0814
20
1.23344
11
2.08178
21
1.23334
0
LINE
8
BLACK
6
CONTINUOUS
10
1.9299
20
1.25495
11
1.91836
21
1.25715
0
LINE
8
BLACK
6
CONTINUOUS
10
1.91836
20
1.25715
11
1.90719
21
1.26078
0
LINE
8
BLACK
6
CONTINUOUS
10
1.90719
20
1.26078
11
1.89657
21
1.26578
0
LINE
8
BLACK
6
CONTINUOUS
10
1.89657
20
1.26578
11
1.88665
21
1.27207
0
LINE
8
BLACK
6
CONTINUOUS
10
1.88665
20
1.27207
11
1.87761
21
1.27956
0
LINE
8
BLACK
6
CONTINUOUS
10
1.87761
20
1.27956
11
1.86957
21
1.28811
0
LINE
8
BLACK
6
CONTINUOUS
10
1.86957
20
1.28811
11
1.86267
21
1.29761
0
LINE
8
BLACK
6
CONTINUOUS
10
1.86267
20
1.29761
11
1.85701
21
1.3079
0
LINE
8
BLACK
6
CONTINUOUS
10
1.85701
20
1.3079
11
1.85269
21
1.31882
0
LINE
8
BLACK
6
CONTINUOUS
10
1.85269
20
1.31882
11
1.84977
21
1.3302
0
LINE
8
BLACK
6
CONTINUOUS
10
1.84977
20
1.3302
11
1.84829
21
1.34185
0
LINE
8
BLACK
6
CONTINUOUS
10
1.84829
20
1.34185
11
1.84829
21
1.35359
0
LINE
8
BLACK
6
CONTINUOUS
10
1.84829
20
1.35359
11
1.84977
21
1.36524
0
LINE
8
BLACK
6
CONTINUOUS
10
1.84977
20
1.36524
11
1.85269
21
1.37661
0
LINE
8
BLACK
6
CONTINUOUS
10
1.85269
20
1.37661
11
1.85701
21
1.38753
0
LINE
8
BLACK
6
CONTINUOUS
10
1.85701
20
1.38753
11
1.86267
21
1.39782
0
LINE
8
BLACK
6
CONTINUOUS
10
1.86267
20
1.39782
11
1.86957
21
1.40732
0
LINE
8
BLACK
6
CONTINUOUS
10
1.86957
20
1.40732
11
1.87761
21
1.41588
0
LINE
8
BLACK
6
CONTINUOUS
10
1.87761
20
1.41588
11
1.88665
21
1.42336
0
LINE
8
BLACK
6
CONTINUOUS
10
1.88665
20
1.42336
11
1.89657
21
1.42965
0
LINE
8
BLACK
6
CONTINUOUS
10
1.89657
20
1.42965
11
1.90719
21
1.43465
0
LINE
8
BLACK
6
CONTINUOUS
10
1.90719
20
1.43465
11
1.91836
21
1.43828
0
LINE
8
BLACK
6
CONTINUOUS
10
1.91836
20
1.43828
11
1.9299
21
1.44048
0
LINE
8
BLACK
6
CONTINUOUS
10
1.9299
20
1.44048
11
1.94161
21
1.44122
0
LINE
8
BLACK
6
CONTINUOUS
10
1.94161
20
1.44122
11
2.19358
21
1.44122
0
LINE
8
BLACK
6
CONTINUOUS
10
2.19358
20
1.44122
11
2.2053
21
1.44048
0
LINE
8
BLACK
6
CONTINUOUS
10
2.2053
20
1.44048
11
2.21684
21
1.43828
0
LINE
8
BLACK
6
CONTINUOUS
10
2.21684
20
1.43828
11
2.228
21
1.43465
0
LINE
8
BLACK
6
CONTINUOUS
10
2.228
20
1.43465
11
2.23863
21
1.42965
0
LINE
8
BLACK
6
CONTINUOUS
10
2.23863
20
1.42965
11
2.24854
21
1.42336
0
LINE
8
BLACK
6
CONTINUOUS
10
2.24854
20
1.42336
11
2.25759
21
1.41588
0
LINE
8
BLACK
6
CONTINUOUS
10
2.25759
20
1.41588
11
2.26563
21
1.40732
0
LINE
8
BLACK
6
CONTINUOUS
10
2.26563
20
1.40732
11
2.27253
21
1.39782
0
LINE
8
BLACK
6
CONTINUOUS
10
2.27253
20
1.39782
11
2.27819
21
1.38753
0
LINE
8
BLACK
6
CONTINUOUS
10
2.27819
20
1.38753
11
2.28251
21
1.37661
0
LINE
8
BLACK
6
CONTINUOUS
10
2.28251
20
1.37661
11
2.28543
21
1.36524
0
LINE
8
BLACK
6
CONTINUOUS
10
2.28543
20
1.36524
11
2.2869
21
1.35359
0
LINE
8
BLACK
6
CONTINUOUS
10
2.2869
20
1.35359
11
2.2869
21
1.34185
0
LINE
8
BLACK
6
CONTINUOUS
10
2.2869
20
1.34185
11
2.28543
21
1.3302
0
LINE
8
BLACK
6
CONTINUOUS
10
2.28543
20
1.3302
11
2.28251
21
1.31882
0
LINE
8
BLACK
6
CONTINUOUS
10
2.28251
20
1.31882
11
2.27819
21
1.3079
0
LINE
8
BLACK
6
CONTINUOUS
10
2.27819
20
1.3079
11
2.27253
21
1.29761
0
LINE
8
BLACK
6
CONTINUOUS
10
2.27253
20
1.29761
11
2.26563
21
1.28811
0
LINE
8
BLACK
6
CONTINUOUS
10
2.26563
20
1.28811
11
2.25759
21
1.27956
0
LINE
8
BLACK
6
CONTINUOUS
10
2.25759
20
1.27956
11
2.24854
21
1.27207
0
LINE
8
BLACK
6
CONTINUOUS
10
2.24854
20
1.27207
11
2.23863
21
1.26578
0
LINE
8
BLACK
6
CONTINUOUS
10
2.23863
20
1.26578
11
2.228
21
1.26078
0
LINE
8
BLACK
6
CONTINUOUS
10
2.228
20
1.26078
11
2.21684
21
1.25715
0
LINE
8
BLACK
6
CONTINUOUS
10
2.21684
20
1.25715
11
2.2053
21
1.25495
0
LINE
8
BLACK
6
CONTINUOUS
10
2.2053
20
1.25495
11
2.19358
21
1.25421
0
LINE
8
BLACK
6
CONTINUOUS
10
2.19358
20
1.25421
11
1.94161
21
1.25421
0
LINE
8
BLACK
6
CONTINUOUS
10
1.94161
20
1.25421
11
1.9299
21
1.25495
0
LINE
8
BLACK
6
CONTINUOUS
10
1.94124
20
1.43744
11
1.93037
21
1.43675
0
LINE
8
BLACK
6
CONTINUOUS
10
1.93037
20
1.43675
11
1.9193
21
1.43464
0
LINE
8
BLACK
6
CONTINUOUS
10
1.9193
20
1.43464
11
1.90858
21
1.43116
0
LINE
8
BLACK
6
CONTINUOUS
10
1.90858
20
1.43116
11
1.89838
21
1.42636
0
LINE
8
BLACK
6
CONTINUOUS
10
1.89838
20
1.42636
11
1.88886
21
1.42032
0
LINE
8
BLACK
6
CONTINUOUS
10
1.88886
20
1.42032
11
1.88018
21
1.41314
0
LINE
8
BLACK
6
CONTINUOUS
10
1.88018
20
1.41314
11
1.87247
21
1.40492
0
LINE
8
BLACK
6
CONTINUOUS
10
1.87247
20
1.40492
11
1.86584
21
1.3958
0
LINE
8
BLACK
6
CONTINUOUS
10
1.86584
20
1.3958
11
1.86041
21
1.38593
0
LINE
8
BLACK
6
CONTINUOUS
10
1.86041
20
1.38593
11
1.85626
21
1.37545
0
LINE
8
BLACK
6
CONTINUOUS
10
1.85626
20
1.37545
11
1.85346
21
1.36453
0
LINE
8
BLACK
6
CONTINUOUS
10
1.85346
20
1.36453
11
1.85205
21
1.35335
0
LINE
8
BLACK
6
CONTINUOUS
10
1.85205
20
1.35335
11
1.85205
21
1.34208
0
LINE
8
BLACK
6
CONTINUOUS
10
1.85205
20
1.34208
11
1.85346
21
1.3309
0
LINE
8
BLACK
6
CONTINUOUS
10
1.85346
20
1.3309
11
1.85626
21
1.31998
0
LINE
8
BLACK
6
CONTINUOUS
10
1.85626
20
1.31998
11
1.86041
21
1.30951
0
LINE
8
BLACK
6
CONTINUOUS
10
1.86041
20
1.30951
11
1.86584
21
1.29963
0
LINE
8
BLACK
6
CONTINUOUS
10
1.86584
20
1.29963
11
1.87247
21
1.29051
0
LINE
8
BLACK
6
CONTINUOUS
10
1.87247
20
1.29051
11
1.88018
21
1.2823
0
LINE
8
BLACK
6
CONTINUOUS
10
1.88018
20
1.2823
11
1.88886
21
1.27511
0
LINE
8
BLACK
6
CONTINUOUS
10
1.88886
20
1.27511
11
1.89838
21
1.26907
0
LINE
8
BLACK
6
CONTINUOUS
10
1.89838
20
1.26907
11
1.90858
21
1.26427
0
LINE
8
BLACK
6
CONTINUOUS
10
1.90858
20
1.26427
11
1.9193
21
1.26079
0
LINE
8
BLACK
6
CONTINUOUS
10
1.9193
20
1.26079
11
1.93037
21
1.25868
0
LINE
8
BLACK
6
CONTINUOUS
10
1.93037
20
1.25868
11
1.94124
21
1.258
0
LINE
8
BLACK
6
CONTINUOUS
10
1.94124
20
1.258
11
1.94161
21
1.25815
0
LINE
8
BLACK
6
CONTINUOUS
10
1.94161
20
1.25815
11
2.19358
21
1.25815
0
LINE
8
BLACK
6
CONTINUOUS
10
2.19358
20
1.25815
11
2.19395
21
1.258
0
LINE
8
BLACK
6
CONTINUOUS
10
2.19395
20
1.258
11
2.20483
21
1.25868
0
LINE
8
BLACK
6
CONTINUOUS
10
2.20483
20
1.25868
11
2.2159
21
1.26079
0
LINE
8
BLACK
6
CONTINUOUS
10
2.2159
20
1.26079
11
2.22662
21
1.26427
0
LINE
8
BLACK
6
CONTINUOUS
10
2.22662
20
1.26427
11
2.23682
21
1.26907
0
LINE
8
BLACK
6
CONTINUOUS
10
2.23682
20
1.26907
11
2.24633
21
1.27511
0
LINE
8
BLACK
6
CONTINUOUS
10
2.24633
20
1.27511
11
2.25502
21
1.2823
0
LINE
8
BLACK
6
CONTINUOUS
10
2.25502
20
1.2823
11
2.26273
21
1.29051
0
LINE
8
BLACK
6
CONTINUOUS
10
2.26273
20
1.29051
11
2.26936
21
1.29963
0
LINE
8
BLACK
6
CONTINUOUS
10
2.26936
20
1.29963
11
2.27479
21
1.30951
0
LINE
8
BLACK
6
CONTINUOUS
10
2.27479
20
1.30951
11
2.27893
21
1.31998
0
LINE
8
BLACK
6
CONTINUOUS
10
2.27893
20
1.31998
11
2.28174
21
1.3309
0
LINE
8
BLACK
6
CONTINUOUS
10
2.28174
20
1.3309
11
2.28315
21
1.34208
0
LINE
8
BLACK
6
CONTINUOUS
10
2.28315
20
1.34208
11
2.28315
21
1.35335
0
LINE
8
BLACK
6
CONTINUOUS
10
2.28315
20
1.35335
11
2.28174
21
1.36453
0
LINE
8
BLACK
6
CONTINUOUS
10
2.28174
20
1.36453
11
2.27893
21
1.37545
0
LINE
8
BLACK
6
CONTINUOUS
10
2.27893
20
1.37545
11
2.27479
21
1.38593
0
LINE
8
BLACK
6
CONTINUOUS
10
2.27479
20
1.38593
11
2.26936
21
1.3958
0
LINE
8
BLACK
6
CONTINUOUS
10
2.26936
20
1.3958
11
2.26273
21
1.40492
0
LINE
8
BLACK
6
CONTINUOUS
10
2.26273
20
1.40492
11
2.25502
21
1.41314
0
LINE
8
BLACK
6
CONTINUOUS
10
2.25502
20
1.41314
11
2.24633
21
1.42032
0
LINE
8
BLACK
6
CONTINUOUS
10
2.24633
20
1.42032
11
2.23682
21
1.42636
0
LINE
8
BLACK
6
CONTINUOUS
10
2.23682
20
1.42636
11
2.22662
21
1.43116
0
LINE
8
BLACK
6
CONTINUOUS
10
2.22662
20
1.43116
11
2.2159
21
1.43464
0
LINE
8
BLACK
6
CONTINUOUS
10
2.2159
20
1.43464
11
2.20483
21
1.43675
0
LINE
8
BLACK
6
CONTINUOUS
10
2.20483
20
1.43675
11
2.19395
21
1.43744
0
LINE
8
BLACK
6
CONTINUOUS
10
2.19395
20
1.43744
11
2.19358
21
1.43728
0
LINE
8
BLACK
6
CONTINUOUS
10
2.19358
20
1.43728
11
1.94161
21
1.43728
0
LINE
8
BLACK
6
CONTINUOUS
10
1.94161
20
1.43728
11
1.94124
21
1.43744
0
LINE
8
BLACK
6
CONTINUOUS
10
1.9385
20
1.26776
11
1.92771
21
1.27
0
LINE
8
BLACK
6
CONTINUOUS
10
1.92771
20
1.27
11
1.91733
21
1.27369
0
LINE
8
BLACK
6
CONTINUOUS
10
1.91733
20
1.27369
11
1.90755
21
1.27876
0
LINE
8
BLACK
6
CONTINUOUS
10
1.90755
20
1.27876
11
1.89855
21
1.28511
0
LINE
8
BLACK
6
CONTINUOUS
10
1.89855
20
1.28511
11
1.8905
21
1.29263
0
LINE
8
BLACK
6
CONTINUOUS
10
1.8905
20
1.29263
11
1.88355
21
1.30117
0
LINE
8
BLACK
6
CONTINUOUS
10
1.88355
20
1.30117
11
1.87783
21
1.31059
0
LINE
8
BLACK
6
CONTINUOUS
10
1.87783
20
1.31059
11
1.87344
21
1.32069
0
LINE
8
BLACK
6
CONTINUOUS
10
1.87344
20
1.32069
11
1.87047
21
1.3313
0
LINE
8
BLACK
6
CONTINUOUS
10
1.87047
20
1.3313
11
1.86897
21
1.34221
0
LINE
8
BLACK
6
CONTINUOUS
10
1.86897
20
1.34221
11
1.86897
21
1.35322
0
LINE
8
BLACK
6
CONTINUOUS
10
1.86897
20
1.35322
11
1.87047
21
1.36414
0
LINE
8
BLACK
6
CONTINUOUS
10
1.87047
20
1.36414
11
1.87344
21
1.37474
0
LINE
8
BLACK
6
CONTINUOUS
10
1.87344
20
1.37474
11
1.87783
21
1.38485
0
LINE
8
BLACK
6
CONTINUOUS
10
1.87783
20
1.38485
11
1.88355
21
1.39426
0
LINE
8
BLACK
6
CONTINUOUS
10
1.88355
20
1.39426
11
1.8905
21
1.4028
0
LINE
8
BLACK
6
CONTINUOUS
10
1.8905
20
1.4028
11
1.89855
21
1.41032
0
LINE
8
BLACK
6
CONTINUOUS
10
1.89855
20
1.41032
11
1.90755
21
1.41668
0
LINE
8
BLACK
6
CONTINUOUS
10
1.90755
20
1.41668
11
1.91733
21
1.42174
0
LINE
8
BLACK
6
CONTINUOUS
10
1.91733
20
1.42174
11
1.92771
21
1.42543
0
LINE
8
BLACK
6
CONTINUOUS
10
1.92771
20
1.42543
11
1.9385
21
1.42767
0
LINE
8
BLACK
6
CONTINUOUS
10
1.9385
20
1.42767
11
1.94949
21
1.42843
0
LINE
8
BLACK
6
CONTINUOUS
10
1.94949
20
1.42843
11
2.18571
21
1.42843
0
LINE
8
BLACK
6
CONTINUOUS
10
2.18571
20
1.42843
11
2.1967
21
1.42767
0
LINE
8
BLACK
6
CONTINUOUS
10
2.1967
20
1.42767
11
2.20748
21
1.42543
0
LINE
8
BLACK
6
CONTINUOUS
10
2.20748
20
1.42543
11
2.21786
21
1.42174
0
LINE
8
BLACK
6
CONTINUOUS
10
2.21786
20
1.42174
11
2.22764
21
1.41668
0
LINE
8
BLACK
6
CONTINUOUS
10
2.22764
20
1.41668
11
2.23664
21
1.41032
0
LINE
8
BLACK
6
CONTINUOUS
10
2.23664
20
1.41032
11
2.24469
21
1.4028
0
LINE
8
BLACK
6
CONTINUOUS
10
2.24469
20
1.4028
11
2.25165
21
1.39426
0
LINE
8
BLACK
6
CONTINUOUS
10
2.25165
20
1.39426
11
2.25737
21
1.38485
0
LINE
8
BLACK
6
CONTINUOUS
10
2.25737
20
1.38485
11
2.26176
21
1.37474
0
LINE
8
BLACK
6
CONTINUOUS
10
2.26176
20
1.37474
11
2.26473
21
1.36414
0
LINE
8
BLACK
6
CONTINUOUS
10
2.26473
20
1.36414
11
2.26623
21
1.35322
0
LINE
8
BLACK
6
CONTINUOUS
10
2.26623
20
1.35322
11
2.26623
21
1.34221
0
LINE
8
BLACK
6
CONTINUOUS
10
2.26623
20
1.34221
11
2.26473
21
1.3313
0
LINE
8
BLACK
6
CONTINUOUS
10
2.26473
20
1.3313
11
2.26176
21
1.32069
0
LINE
8
BLACK
6
CONTINUOUS
10
2.26176
20
1.32069
11
2.25737
21
1.31059
0
LINE
8
BLACK
6
CONTINUOUS
10
2.25737
20
1.31059
11
2.25165
21
1.30117
0
LINE
8
BLACK
6
CONTINUOUS
10
2.25165
20
1.30117
11
2.24469
21
1.29263
0
LINE
8
BLACK
6
CONTINUOUS
10
2.24469
20
1.29263
11
2.23664
21
1.28511
0
LINE
8
BLACK
6
CONTINUOUS
10
2.23664
20
1.28511
11
2.22764
21
1.27876
0
LINE
8
BLACK
6
CONTINUOUS
10
2.22764
20
1.27876
11
2.21786
21
1.27369
0
LINE
8
BLACK
6
CONTINUOUS
10
2.21786
20
1.27369
11
2.20748
21
1.27
0
LINE
8
BLACK
6
CONTINUOUS
10
2.20748
20
1.27
11
2.1967
21
1.26776
0
LINE
8
BLACK
6
CONTINUOUS
10
2.1967
20
1.26776
11
2.18571
21
1.26701
0
LINE
8
BLACK
6
CONTINUOUS
10
2.18571
20
1.26701
11
1.94949
21
1.26701
0
LINE
8
BLACK
6
CONTINUOUS
10
1.94949
20
1.26701
11
1.9385
21
1.26776
0
LINE
8
BLACK
6
CONTINUOUS
10
1.94912
20
1.42464
11
1.93901
21
1.42395
0
LINE
8
BLACK
6
CONTINUOUS
10
1.93901
20
1.42395
11
1.92873
21
1.42181
0
LINE
8
BLACK
6
CONTINUOUS
10
1.92873
20
1.42181
11
1.91883
21
1.4183
0
LINE
8
BLACK
6
CONTINUOUS
10
1.91883
20
1.4183
11
1.90951
21
1.41346
0
LINE
8
BLACK
6
CONTINUOUS
10
1.90951
20
1.41346
11
1.90093
21
1.40741
0
LINE
8
BLACK
6
CONTINUOUS
10
1.90093
20
1.40741
11
1.89325
21
1.40024
0
LINE
8
BLACK
6
CONTINUOUS
10
1.89325
20
1.40024
11
1.88662
21
1.39209
0
LINE
8
BLACK
6
CONTINUOUS
10
1.88662
20
1.39209
11
1.88116
21
1.38312
0
LINE
8
BLACK
6
CONTINUOUS
10
1.88116
20
1.38312
11
1.87698
21
1.37349
0
LINE
8
BLACK
6
CONTINUOUS
10
1.87698
20
1.37349
11
1.87415
21
1.36337
0
LINE
8
BLACK
6
CONTINUOUS
10
1.87415
20
1.36337
11
1.87272
21
1.35297
0
LINE
8
BLACK
6
CONTINUOUS
10
1.87272
20
1.35297
11
1.87272
21
1.34247
0
LINE
8
BLACK
6
CONTINUOUS
10
1.87272
20
1.34247
11
1.87415
21
1.33206
0
LINE
8
BLACK
6
CONTINUOUS
10
1.87415
20
1.33206
11
1.87698
21
1.32195
0
LINE
8
BLACK
6
CONTINUOUS
10
1.87698
20
1.32195
11
1.88116
21
1.31231
0
LINE
8
BLACK
6
CONTINUOUS
10
1.88116
20
1.31231
11
1.88662
21
1.30334
0
LINE
8
BLACK
6
CONTINUOUS
10
1.88662
20
1.30334
11
1.89325
21
1.29519
0
LINE
8
BLACK
6
CONTINUOUS
10
1.89325
20
1.29519
11
1.90093
21
1.28802
0
LINE
8
BLACK
6
CONTINUOUS
10
1.90093
20
1.28802
11
1.90951
21
1.28197
0
LINE
8
BLACK
6
CONTINUOUS
10
1.90951
20
1.28197
11
1.91883
21
1.27714
0
LINE
8
BLACK
6
CONTINUOUS
10
1.91883
20
1.27714
11
1.92873
21
1.27362
0
LINE
8
BLACK
6
CONTINUOUS
10
1.92873
20
1.27362
11
1.93901
21
1.27148
0
LINE
8
BLACK
6
CONTINUOUS
10
1.93901
20
1.27148
11
1.94912
21
1.27079
0
LINE
8
BLACK
6
CONTINUOUS
10
1.94912
20
1.27079
11
1.94949
21
1.27094
0
LINE
8
BLACK
6
CONTINUOUS
10
1.94949
20
1.27094
11
2.18571
21
1.27094
0
LINE
8
BLACK
6
CONTINUOUS
10
2.18571
20
1.27094
11
2.18608
21
1.27079
0
LINE
8
BLACK
6
CONTINUOUS
10
2.18608
20
1.27079
11
2.19619
21
1.27148
0
LINE
8
BLACK
6
CONTINUOUS
10
2.19619
20
1.27148
11
2.20647
21
1.27362
0
LINE
8
BLACK
6
CONTINUOUS
10
2.20647
20
1.27362
11
2.21637
21
1.27714
0
LINE
8
BLACK
6
CONTINUOUS
10
2.21637
20
1.27714
11
2.22569
21
1.28197
0
LINE
8
BLACK
6
CONTINUOUS
10
2.22569
20
1.28197
11
2.23427
21
1.28802
0
LINE
8
BLACK
6
CONTINUOUS
10
2.23427
20
1.28802
11
2.24195
21
1.29519
0
LINE
8
BLACK
6
CONTINUOUS
10
2.24195
20
1.29519
11
2.24858
21
1.30334
0
LINE
8
BLACK
6
CONTINUOUS
10
2.24858
20
1.30334
11
2.25403
21
1.31231
0
LINE
8
BLACK
6
CONTINUOUS
10
2.25403
20
1.31231
11
2.25822
21
1.32195
0
LINE
8
BLACK
6
CONTINUOUS
10
2.25822
20
1.32195
11
2.26105
21
1.33206
0
LINE
8
BLACK
6
CONTINUOUS
10
2.26105
20
1.33206
11
2.26248
21
1.34247
0
LINE
8
BLACK
6
CONTINUOUS
10
2.26248
20
1.34247
11
2.26248
21
1.35297
0
LINE
8
BLACK
6
CONTINUOUS
10
2.26248
20
1.35297
11
2.26105
21
1.36337
0
LINE
8
BLACK
6
CONTINUOUS
10
2.26105
20
1.36337
11
2.25822
21
1.37349
0
LINE
8
BLACK
6
CONTINUOUS
10
2.25822
20
1.37349
11
2.25403
21
1.38312
0
LINE
8
BLACK
6
CONTINUOUS
10
2.25403
20
1.38312
11
2.24858
21
1.39209
0
LINE
8
BLACK
6
CONTINUOUS
10
2.24858
20
1.39209
11
2.24195
21
1.40024
0
LINE
8
BLACK
6
CONTINUOUS
10
2.24195
20
1.40024
11
2.23427
21
1.40741
0
LINE
8
BLACK
6
CONTINUOUS
10
2.23427
20
1.40741
11
2.22569
21
1.41346
0
LINE
8
BLACK
6
CONTINUOUS
10
2.22569
20
1.41346
11
2.21637
21
1.4183
0
LINE
8
BLACK
6
CONTINUOUS
10
2.21637
20
1.4183
11
2.20647
21
1.42181
0
LINE
8
BLACK
6
CONTINUOUS
10
2.20647
20
1.42181
11
2.19619
21
1.42395
0
LINE
8
BLACK
6
CONTINUOUS
10
2.19619
20
1.42395
11
2.18608
21
1.42464
0
LINE
8
BLACK
6
CONTINUOUS
10
2.18608
20
1.42464
11
2.18571
21
1.42449
0
LINE
8
BLACK
6
CONTINUOUS
10
2.18571
20
1.42449
11
1.94949
21
1.42449
0
LINE
8
BLACK
6
CONTINUOUS
10
1.94949
20
1.42449
11
1.94912
21
1.42464
0
LINE
8
BLACK
6
CONTINUOUS
10
2.08482
20
1.37215
11
2.08498
21
1.37218
0
LINE
8
BLACK
6
CONTINUOUS
10
2.08498
20
1.37218
11
2.08573
21
1.37176
0
LINE
8
BLACK
6
CONTINUOUS
10
2.08573
20
1.37176
11
2.08651
21
1.37141
0
LINE
8
BLACK
6
CONTINUOUS
10
2.08651
20
1.37141
11
2.08659
21
1.37126
0
LINE
8
BLACK
6
CONTINUOUS
10
2.08659
20
1.37126
11
2.08673
21
1.37117
0
LINE
8
BLACK
6
CONTINUOUS
10
2.08673
20
1.37117
11
2.08703
21
1.37037
0
LINE
8
BLACK
6
CONTINUOUS
10
2.08703
20
1.37037
11
2.08741
21
1.3696
0
LINE
8
BLACK
6
CONTINUOUS
10
2.08741
20
1.3696
11
2.08737
21
1.36944
0
LINE
8
BLACK
6
CONTINUOUS
10
2.08737
20
1.36944
11
2.08742
21
1.36928
0
LINE
8
BLACK
6
CONTINUOUS
10
2.08742
20
1.36928
11
2.08742
21
1.33286
0
LINE
8
BLACK
6
CONTINUOUS
10
2.08742
20
1.33286
11
2.09572
21
1.33286
0
LINE
8
BLACK
6
CONTINUOUS
10
2.09572
20
1.33286
11
2.09673
21
1.33268
0
LINE
8
BLACK
6
CONTINUOUS
10
2.09673
20
1.33268
11
2.09828
21
1.33138
0
LINE
8
BLACK
6
CONTINUOUS
10
2.09828
20
1.33138
11
2.09863
21
1.32939
0
LINE
8
BLACK
6
CONTINUOUS
10
2.09863
20
1.32939
11
2.09762
21
1.32764
0
LINE
8
BLACK
6
CONTINUOUS
10
2.09762
20
1.32764
11
2.09572
21
1.32695
0
LINE
8
BLACK
6
CONTINUOUS
10
2.09572
20
1.32695
11
2.07322
21
1.32695
0
LINE
8
BLACK
6
CONTINUOUS
10
2.07322
20
1.32695
11
2.07221
21
1.32713
0
LINE
8
BLACK
6
CONTINUOUS
10
2.07221
20
1.32713
11
2.07067
21
1.32843
0
LINE
8
BLACK
6
CONTINUOUS
10
2.07067
20
1.32843
11
2.07031
21
1.33042
0
LINE
8
BLACK
6
CONTINUOUS
10
2.07031
20
1.33042
11
2.07132
21
1.33217
0
LINE
8
BLACK
6
CONTINUOUS
10
2.07132
20
1.33217
11
2.07322
21
1.33286
0
LINE
8
BLACK
6
CONTINUOUS
10
2.07322
20
1.33286
11
2.08152
21
1.33286
0
LINE
8
BLACK
6
CONTINUOUS
10
2.08152
20
1.33286
11
2.08152
21
1.36027
0
LINE
8
BLACK
6
CONTINUOUS
10
2.08152
20
1.36027
11
2.07906
21
1.35781
0
LINE
8
BLACK
6
CONTINUOUS
10
2.07906
20
1.35781
11
2.07834
21
1.35731
0
LINE
8
BLACK
6
CONTINUOUS
10
2.07834
20
1.35731
11
2.07829
21
1.35726
0
LINE
8
BLACK
6
CONTINUOUS
10
2.07829
20
1.35726
11
2.07454
21
1.35539
0
LINE
8
BLACK
6
CONTINUOUS
10
2.07454
20
1.35539
11
2.07356
21
1.35509
0
LINE
8
BLACK
6
CONTINUOUS
10
2.07356
20
1.35509
11
2.0716
21
1.35556
0
LINE
8
BLACK
6
CONTINUOUS
10
2.0716
20
1.35556
11
2.07039
21
1.35719
0
LINE
8
BLACK
6
CONTINUOUS
10
2.07039
20
1.35719
11
2.07051
21
1.3592
0
LINE
8
BLACK
6
CONTINUOUS
10
2.07051
20
1.3592
11
2.0719
21
1.36067
0
LINE
8
BLACK
6
CONTINUOUS
10
2.0719
20
1.36067
11
2.07522
21
1.36233
0
LINE
8
BLACK
6
CONTINUOUS
10
2.07522
20
1.36233
11
2.07843
21
1.36553
0
LINE
8
BLACK
6
CONTINUOUS
10
2.07843
20
1.36553
11
2.08201
21
1.37091
0
LINE
8
BLACK
6
CONTINUOUS
10
2.08201
20
1.37091
11
2.08272
21
1.37166
0
LINE
8
BLACK
6
CONTINUOUS
10
2.08272
20
1.37166
11
2.08289
21
1.3717
0
LINE
8
BLACK
6
CONTINUOUS
10
2.08289
20
1.3717
11
2.08299
21
1.37183
0
LINE
8
BLACK
6
CONTINUOUS
10
2.08299
20
1.37183
11
2.08384
21
1.37198
0
LINE
8
BLACK
6
CONTINUOUS
10
2.08384
20
1.37198
11
2.08466
21
1.37222
0
LINE
8
BLACK
6
CONTINUOUS
10
2.08466
20
1.37222
11
2.08482
21
1.37215
0
LINE
8
BLACK
6
CONTINUOUS
10
2.06397
20
1.37145
11
2.0649
21
1.36966
0
LINE
8
BLACK
6
CONTINUOUS
10
2.0649
20
1.36966
11
2.06447
21
1.36769
0
LINE
8
BLACK
6
CONTINUOUS
10
2.06447
20
1.36769
11
2.0518
21
1.34779
0
LINE
8
BLACK
6
CONTINUOUS
10
2.0518
20
1.34779
11
2.0518
21
1.32991
0
LINE
8
BLACK
6
CONTINUOUS
10
2.0518
20
1.32991
11
2.05163
21
1.3289
0
LINE
8
BLACK
6
CONTINUOUS
10
2.05163
20
1.3289
11
2.05033
21
1.32735
0
LINE
8
BLACK
6
CONTINUOUS
10
2.05033
20
1.32735
11
2.04834
21
1.327
0
LINE
8
BLACK
6
CONTINUOUS
10
2.04834
20
1.327
11
2.04659
21
1.32801
0
LINE
8
BLACK
6
CONTINUOUS
10
2.04659
20
1.32801
11
2.0459
21
1.32991
0
LINE
8
BLACK
6
CONTINUOUS
10
2.0459
20
1.32991
11
2.0459
21
1.34779
0
LINE
8
BLACK
6
CONTINUOUS
10
2.0459
20
1.34779
11
2.03324
21
1.36769
0
LINE
8
BLACK
6
CONTINUOUS
10
2.03324
20
1.36769
11
2.03284
21
1.36864
0
LINE
8
BLACK
6
CONTINUOUS
10
2.03284
20
1.36864
11
2.03311
21
1.37064
0
LINE
8
BLACK
6
CONTINUOUS
10
2.03311
20
1.37064
11
2.0346
21
1.372
0
LINE
8
BLACK
6
CONTINUOUS
10
2.0346
20
1.372
11
2.03662
21
1.37209
0
LINE
8
BLACK
6
CONTINUOUS
10
2.03662
20
1.37209
11
2.03822
21
1.37086
0
LINE
8
BLACK
6
CONTINUOUS
10
2.03822
20
1.37086
11
2.04885
21
1.35415
0
LINE
8
BLACK
6
CONTINUOUS
10
2.04885
20
1.35415
11
2.05948
21
1.37086
0
LINE
8
BLACK
6
CONTINUOUS
10
2.05948
20
1.37086
11
2.06018
21
1.37162
0
LINE
8
BLACK
6
CONTINUOUS
10
2.06018
20
1.37162
11
2.0621
21
1.37223
0
LINE
8
BLACK
6
CONTINUOUS
10
2.0621
20
1.37223
11
2.06397
21
1.37145
0
LINE
8
BLACK
6
CONTINUOUS
10
1.60036
20
1.45487
11
1.6019
21
1.45357
0
LINE
8
BLACK
6
CONTINUOUS
10
1.6019
20
1.45357
11
1.60225
21
1.45158
0
LINE
8
BLACK
6
CONTINUOUS
10
1.60225
20
1.45158
11
1.60124
21
1.44983
0
LINE
8
BLACK
6
CONTINUOUS
10
1.60124
20
1.44983
11
1.59935
21
1.44914
0
LINE
8
BLACK
6
CONTINUOUS
10
1.59935
20
1.44914
11
1.57329
21
1.44914
0
LINE
8
BLACK
6
CONTINUOUS
10
1.57329
20
1.44914
11
1.58935
21
1.44164
0
LINE
8
BLACK
6
CONTINUOUS
10
1.58935
20
1.44164
11
1.58966
21
1.44142
0
LINE
8
BLACK
6
CONTINUOUS
10
1.58966
20
1.44142
11
1.58979
21
1.44139
0
LINE
8
BLACK
6
CONTINUOUS
10
1.58979
20
1.44139
11
1.58987
21
1.44128
0
LINE
8
BLACK
6
CONTINUOUS
10
1.58987
20
1.44128
11
1.59019
21
1.44106
0
LINE
8
BLACK
6
CONTINUOUS
10
1.59019
20
1.44106
11
1.59051
21
1.44036
0
LINE
8
BLACK
6
CONTINUOUS
10
1.59051
20
1.44036
11
1.59095
21
1.43973
0
LINE
8
BLACK
6
CONTINUOUS
10
1.59095
20
1.43973
11
1.59093
21
1.43947
0
LINE
8
BLACK
6
CONTINUOUS
10
1.59093
20
1.43947
11
1.59104
21
1.43923
0
LINE
8
BLACK
6
CONTINUOUS
10
1.59104
20
1.43923
11
1.59084
21
1.43849
0
LINE
8
BLACK
6
CONTINUOUS
10
1.59084
20
1.43849
11
1.59077
21
1.43772
0
LINE
8
BLACK
6
CONTINUOUS
10
1.59077
20
1.43772
11
1.59058
21
1.43753
0
LINE
8
BLACK
6
CONTINUOUS
10
1.59058
20
1.43753
11
1.59052
21
1.43727
0
LINE
8
BLACK
6
CONTINUOUS
10
1.59052
20
1.43727
11
1.58989
21
1.43684
0
LINE
8
BLACK
6
CONTINUOUS
10
1.58989
20
1.43684
11
1.58935
21
1.43629
0
LINE
8
BLACK
6
CONTINUOUS
10
1.58935
20
1.43629
11
1.57329
21
1.4288
0
LINE
8
BLACK
6
CONTINUOUS
10
1.57329
20
1.4288
11
1.59935
21
1.4288
0
LINE
8
BLACK
6
CONTINUOUS
10
1.59935
20
1.4288
11
1.60036
21
1.42862
0
LINE
8
BLACK
6
CONTINUOUS
10
1.60036
20
1.42862
11
1.6019
21
1.42732
0
LINE
8
BLACK
6
CONTINUOUS
10
1.6019
20
1.42732
11
1.60225
21
1.42533
0
LINE
8
BLACK
6
CONTINUOUS
10
1.60225
20
1.42533
11
1.60124
21
1.42358
0
LINE
8
BLACK
6
CONTINUOUS
10
1.60124
20
1.42358
11
1.59935
21
1.42289
0
LINE
8
BLACK
6
CONTINUOUS
10
1.59935
20
1.42289
11
1.55998
21
1.42289
0
LINE
8
BLACK
6
CONTINUOUS
10
1.55998
20
1.42289
11
1.55897
21
1.42307
0
LINE
8
BLACK
6
CONTINUOUS
10
1.55897
20
1.42307
11
1.55866
21
1.42332
0
LINE
8
BLACK
6
CONTINUOUS
10
1.55866
20
1.42332
11
1.55828
21
1.42343
0
LINE
8
BLACK
6
CONTINUOUS
10
1.55828
20
1.42343
11
1.55791
21
1.42395
0
LINE
8
BLACK
6
CONTINUOUS
10
1.55791
20
1.42395
11
1.55742
21
1.42437
0
LINE
8
BLACK
6
CONTINUOUS
10
1.55742
20
1.42437
11
1.55735
21
1.42476
0
LINE
8
BLACK
6
CONTINUOUS
10
1.55735
20
1.42476
11
1.55712
21
1.42508
0
LINE
8
BLACK
6
CONTINUOUS
10
1.55712
20
1.42508
11
1.55718
21
1.42572
0
LINE
8
BLACK
6
CONTINUOUS
10
1.55718
20
1.42572
11
1.55707
21
1.42636
0
LINE
8
BLACK
6
CONTINUOUS
10
1.55707
20
1.42636
11
1.55726
21
1.4267
0
LINE
8
BLACK
6
CONTINUOUS
10
1.55726
20
1.4267
11
1.5573
21
1.42709
0
LINE
8
BLACK
6
CONTINUOUS
10
1.5573
20
1.42709
11
1.55776
21
1.42755
0
LINE
8
BLACK
6
CONTINUOUS
10
1.55776
20
1.42755
11
1.55808
21
1.42811
0
LINE
8
BLACK
6
CONTINUOUS
10
1.55808
20
1.42811
11
1.55845
21
1.42824
0
LINE
8
BLACK
6
CONTINUOUS
10
1.55845
20
1.42824
11
1.55873
21
1.42852
0
LINE
8
BLACK
6
CONTINUOUS
10
1.55873
20
1.42852
11
1.58111
21
1.43897
0
LINE
8
BLACK
6
CONTINUOUS
10
1.58111
20
1.43897
11
1.55873
21
1.44942
0
LINE
8
BLACK
6
CONTINUOUS
10
1.55873
20
1.44942
11
1.55789
21
1.45
0
LINE
8
BLACK
6
CONTINUOUS
10
1.55789
20
1.45
11
1.55772
21
1.45036
0
LINE
8
BLACK
6
CONTINUOUS
10
1.55772
20
1.45036
11
1.55742
21
1.45062
0
LINE
8
BLACK
6
CONTINUOUS
10
1.55742
20
1.45062
11
1.55731
21
1.45125
0
LINE
8
BLACK
6
CONTINUOUS
10
1.55731
20
1.45125
11
1.55703
21
1.45184
0
LINE
8
BLACK
6
CONTINUOUS
10
1.55703
20
1.45184
11
1.55714
21
1.45222
0
LINE
8
BLACK
6
CONTINUOUS
10
1.55714
20
1.45222
11
1.55707
21
1.4526
0
LINE
8
BLACK
6
CONTINUOUS
10
1.55707
20
1.4526
11
1.55739
21
1.45316
0
LINE
8
BLACK
6
CONTINUOUS
10
1.55739
20
1.45316
11
1.55756
21
1.45379
0
LINE
8
BLACK
6
CONTINUOUS
10
1.55756
20
1.45379
11
1.55788
21
1.45401
0
LINE
8
BLACK
6
CONTINUOUS
10
1.55788
20
1.45401
11
1.55808
21
1.45435
0
LINE
8
BLACK
6
CONTINUOUS
10
1.55808
20
1.45435
11
1.55868
21
1.45457
0
LINE
8
BLACK
6
CONTINUOUS
10
1.55868
20
1.45457
11
1.55921
21
1.45494
0
LINE
8
BLACK
6
CONTINUOUS
10
1.55921
20
1.45494
11
1.55961
21
1.45491
0
LINE
8
BLACK
6
CONTINUOUS
10
1.55961
20
1.45491
11
1.55998
21
1.45504
0
LINE
8
BLACK
6
CONTINUOUS
10
1.55998
20
1.45504
11
1.59935
21
1.45504
0
LINE
8
BLACK
6
CONTINUOUS
10
1.59935
20
1.45504
11
1.60036
21
1.45487
0
LINE
8
BLACK
6
CONTINUOUS
10
1.59286
20
1.49424
11
1.59299
21
1.49412
0
LINE
8
BLACK
6
CONTINUOUS
10
1.59299
20
1.49412
11
1.59317
21
1.4941
0
LINE
8
BLACK
6
CONTINUOUS
10
1.59317
20
1.4941
11
1.59692
21
1.49223
0
LINE
8
BLACK
6
CONTINUOUS
10
1.59692
20
1.49223
11
1.59763
21
1.4917
0
LINE
8
BLACK
6
CONTINUOUS
10
1.59763
20
1.4917
11
1.59768
21
1.49168
0
LINE
8
BLACK
6
CONTINUOUS
10
1.59768
20
1.49168
11
1.59956
21
1.4898
0
LINE
8
BLACK
6
CONTINUOUS
10
1.59956
20
1.4898
11
1.60007
21
1.48908
0
LINE
8
BLACK
6
CONTINUOUS
10
1.60007
20
1.48908
11
1.60011
21
1.48903
0
LINE
8
BLACK
6
CONTINUOUS
10
1.60011
20
1.48903
11
1.60199
21
1.48528
0
LINE
8
BLACK
6
CONTINUOUS
10
1.60199
20
1.48528
11
1.60228
21
1.4843
0
LINE
8
BLACK
6
CONTINUOUS
10
1.60228
20
1.4843
11
1.60224
21
1.48413
0
LINE
8
BLACK
6
CONTINUOUS
10
1.60224
20
1.48413
11
1.6023
21
1.48396
0
LINE
8
BLACK
6
CONTINUOUS
10
1.6023
20
1.48396
11
1.6023
21
1.47459
0
LINE
8
BLACK
6
CONTINUOUS
10
1.6023
20
1.47459
11
1.60212
21
1.47358
0
LINE
8
BLACK
6
CONTINUOUS
10
1.60212
20
1.47358
11
1.60201
21
1.47344
0
LINE
8
BLACK
6
CONTINUOUS
10
1.60201
20
1.47344
11
1.60199
21
1.47327
0
LINE
8
BLACK
6
CONTINUOUS
10
1.60199
20
1.47327
11
1.60011
21
1.46952
0
LINE
8
BLACK
6
CONTINUOUS
10
1.60011
20
1.46952
11
1.59959
21
1.46881
0
LINE
8
BLACK
6
CONTINUOUS
10
1.59959
20
1.46881
11
1.59956
21
1.46875
0
LINE
8
BLACK
6
CONTINUOUS
10
1.59956
20
1.46875
11
1.59768
21
1.46688
0
LINE
8
BLACK
6
CONTINUOUS
10
1.59768
20
1.46688
11
1.59684
21
1.46629
0
LINE
8
BLACK
6
CONTINUOUS
10
1.59684
20
1.46629
11
1.59483
21
1.46611
0
LINE
8
BLACK
6
CONTINUOUS
10
1.59483
20
1.46611
11
1.59318
21
1.46727
0
LINE
8
BLACK
6
CONTINUOUS
10
1.59318
20
1.46727
11
1.59265
21
1.46922
0
LINE
8
BLACK
6
CONTINUOUS
10
1.59265
20
1.46922
11
1.59351
21
1.47105
0
LINE
8
BLACK
6
CONTINUOUS
10
1.59351
20
1.47105
11
1.59504
21
1.47259
0
LINE
8
BLACK
6
CONTINUOUS
10
1.59504
20
1.47259
11
1.59639
21
1.47529
0
LINE
8
BLACK
6
CONTINUOUS
10
1.59639
20
1.47529
11
1.59639
21
1.48327
0
LINE
8
BLACK
6
CONTINUOUS
10
1.59639
20
1.48327
11
1.59504
21
1.48596
0
LINE
8
BLACK
6
CONTINUOUS
10
1.59504
20
1.48596
11
1.59385
21
1.48716
0
LINE
8
BLACK
6
CONTINUOUS
10
1.59385
20
1.48716
11
1.59115
21
1.48851
0
LINE
8
BLACK
6
CONTINUOUS
10
1.59115
20
1.48851
11
1.58317
21
1.48851
0
LINE
8
BLACK
6
CONTINUOUS
10
1.58317
20
1.48851
11
1.58047
21
1.48716
0
LINE
8
BLACK
6
CONTINUOUS
10
1.58047
20
1.48716
11
1.57928
21
1.48596
0
LINE
8
BLACK
6
CONTINUOUS
10
1.57928
20
1.48596
11
1.57793
21
1.48327
0
LINE
8
BLACK
6
CONTINUOUS
10
1.57793
20
1.48327
11
1.57793
21
1.47529
0
LINE
8
BLACK
6
CONTINUOUS
10
1.57793
20
1.47529
11
1.57928
21
1.47259
0
LINE
8
BLACK
6
CONTINUOUS
10
1.57928
20
1.47259
11
1.58081
21
1.47105
0
LINE
8
BLACK
6
CONTINUOUS
10
1.58081
20
1.47105
11
1.5814
21
1.47021
0
LINE
8
BLACK
6
CONTINUOUS
10
1.5814
20
1.47021
11
1.5814
21
1.47019
0
LINE
8
BLACK
6
CONTINUOUS
10
1.5814
20
1.47019
11
1.58141
21
1.47018
0
LINE
8
BLACK
6
CONTINUOUS
10
1.58141
20
1.47018
11
1.58149
21
1.46919
0
LINE
8
BLACK
6
CONTINUOUS
10
1.58149
20
1.46919
11
1.58158
21
1.4682
0
LINE
8
BLACK
6
CONTINUOUS
10
1.58158
20
1.4682
11
1.58156
21
1.46819
0
LINE
8
BLACK
6
CONTINUOUS
10
1.58156
20
1.46819
11
1.58157
21
1.46817
0
LINE
8
BLACK
6
CONTINUOUS
10
1.58157
20
1.46817
11
1.58099
21
1.46736
0
LINE
8
BLACK
6
CONTINUOUS
10
1.58099
20
1.46736
11
1.58042
21
1.46655
0
LINE
8
BLACK
6
CONTINUOUS
10
1.58042
20
1.46655
11
1.5804
21
1.46654
0
LINE
8
BLACK
6
CONTINUOUS
10
1.5804
20
1.46654
11
1.58039
21
1.46653
0
LINE
8
BLACK
6
CONTINUOUS
10
1.58039
20
1.46653
11
1.57942
21
1.46628
0
LINE
8
BLACK
6
CONTINUOUS
10
1.57942
20
1.46628
11
1.57847
21
1.46602
0
LINE
8
BLACK
6
CONTINUOUS
10
1.57847
20
1.46602
11
1.57845
21
1.46603
0
LINE
8
BLACK
6
CONTINUOUS
10
1.57845
20
1.46603
11
1.57843
21
1.46603
0
LINE
8
BLACK
6
CONTINUOUS
10
1.57843
20
1.46603
11
1.55968
21
1.4679
0
LINE
8
BLACK
6
CONTINUOUS
10
1.55968
20
1.4679
11
1.55953
21
1.46794
0
LINE
8
BLACK
6
CONTINUOUS
10
1.55953
20
1.46794
11
1.55946
21
1.46793
0
LINE
8
BLACK
6
CONTINUOUS
10
1.55946
20
1.46793
11
1.55936
21
1.46799
0
LINE
8
BLACK
6
CONTINUOUS
10
1.55936
20
1.46799
11
1.55869
21
1.46818
0
LINE
8
BLACK
6
CONTINUOUS
10
1.55869
20
1.46818
11
1.55826
21
1.46863
0
LINE
8
BLACK
6
CONTINUOUS
10
1.55826
20
1.46863
11
1.55771
21
1.46894
0
LINE
8
BLACK
6
CONTINUOUS
10
1.55771
20
1.46894
11
1.55757
21
1.46933
0
LINE
8
BLACK
6
CONTINUOUS
10
1.55757
20
1.46933
11
1.55728
21
1.46963
0
LINE
8
BLACK
6
CONTINUOUS
10
1.55728
20
1.46963
11
1.55724
21
1.47025
0
LINE
8
BLACK
6
CONTINUOUS
10
1.55724
20
1.47025
11
1.55702
21
1.47084
0
LINE
8
BLACK
6
CONTINUOUS
10
1.55702
20
1.47084
11
1.55702
21
1.48959
0
LINE
8
BLACK
6
CONTINUOUS
10
1.55702
20
1.48959
11
1.5572
21
1.4906
0
LINE
8
BLACK
6
CONTINUOUS
10
1.5572
20
1.4906
11
1.5585
21
1.49214
0
LINE
8
BLACK
6
CONTINUOUS
10
1.5585
20
1.49214
11
1.56049
21
1.4925
0
LINE
8
BLACK
6
CONTINUOUS
10
1.56049
20
1.4925
11
1.56224
21
1.49149
0
LINE
8
BLACK
6
CONTINUOUS
10
1.56224
20
1.49149
11
1.56293
21
1.48959
0
LINE
8
BLACK
6
CONTINUOUS
10
1.56293
20
1.48959
11
1.56293
21
1.47351
0
LINE
8
BLACK
6
CONTINUOUS
10
1.56293
20
1.47351
11
1.5727
21
1.47253
0
LINE
8
BLACK
6
CONTINUOUS
10
1.5727
20
1.47253
11
1.57233
21
1.47327
0
LINE
8
BLACK
6
CONTINUOUS
10
1.57233
20
1.47327
11
1.57204
21
1.47425
0
LINE
8
BLACK
6
CONTINUOUS
10
1.57204
20
1.47425
11
1.57208
21
1.47442
0
LINE
8
BLACK
6
CONTINUOUS
10
1.57208
20
1.47442
11
1.57202
21
1.47459
0
LINE
8
BLACK
6
CONTINUOUS
10
1.57202
20
1.47459
11
1.57202
21
1.48396
0
LINE
8
BLACK
6
CONTINUOUS
10
1.57202
20
1.48396
11
1.5722
21
1.48497
0
LINE
8
BLACK
6
CONTINUOUS
10
1.5722
20
1.48497
11
1.57231
21
1.48511
0
LINE
8
BLACK
6
CONTINUOUS
10
1.57231
20
1.48511
11
1.57233
21
1.48528
0
LINE
8
BLACK
6
CONTINUOUS
10
1.57233
20
1.48528
11
1.57421
21
1.48903
0
LINE
8
BLACK
6
CONTINUOUS
10
1.57421
20
1.48903
11
1.57473
21
1.48974
0
LINE
8
BLACK
6
CONTINUOUS
10
1.57473
20
1.48974
11
1.57476
21
1.4898
0
LINE
8
BLACK
6
CONTINUOUS
10
1.57476
20
1.4898
11
1.57664
21
1.49168
0
LINE
8
BLACK
6
CONTINUOUS
10
1.57664
20
1.49168
11
1.57736
21
1.49218
0
LINE
8
BLACK
6
CONTINUOUS
10
1.57736
20
1.49218
11
1.5774
21
1.49223
0
LINE
8
BLACK
6
CONTINUOUS
10
1.5774
20
1.49223
11
1.58115
21
1.4941
0
LINE
8
BLACK
6
CONTINUOUS
10
1.58115
20
1.4941
11
1.58214
21
1.4944
0
LINE
8
BLACK
6
CONTINUOUS
10
1.58214
20
1.4944
11
1.58231
21
1.49435
0
LINE
8
BLACK
6
CONTINUOUS
10
1.58231
20
1.49435
11
1.58247
21
1.49442
0
LINE
8
BLACK
6
CONTINUOUS
10
1.58247
20
1.49442
11
1.59185
21
1.49442
0
LINE
8
BLACK
6
CONTINUOUS
10
1.59185
20
1.49442
11
1.59286
21
1.49424
0
LINE
8
BLACK
6
CONTINUOUS
10
1.54972
20
1.65174
11
1.54985
21
1.65162
0
LINE
8
BLACK
6
CONTINUOUS
10
1.54985
20
1.65162
11
1.55003
21
1.6516
0
LINE
8
BLACK
6
CONTINUOUS
10
1.55003
20
1.6516
11
1.55378
21
1.64973
0
LINE
8
BLACK
6
CONTINUOUS
10
1.55378
20
1.64973
11
1.55449
21
1.6492
0
LINE
8
BLACK
6
CONTINUOUS
10
1.55449
20
1.6492
11
1.55455
21
1.64917
0
LINE
8
BLACK
6
CONTINUOUS
10
1.55455
20
1.64917
11
1.55642
21
1.6473
0
LINE
8
BLACK
6
CONTINUOUS
10
1.55642
20
1.6473
11
1.55693
21
1.64658
0
LINE
8
BLACK
6
CONTINUOUS
10
1.55693
20
1.64658
11
1.55697
21
1.64653
0
LINE
8
BLACK
6
CONTINUOUS
10
1.55697
20
1.64653
11
1.55885
21
1.64278
0
LINE
8
BLACK
6
CONTINUOUS
10
1.55885
20
1.64278
11
1.55899
21
1.64229
0
LINE
8
BLACK
6
CONTINUOUS
10
1.55899
20
1.64229
11
1.55907
21
1.64218
0
LINE
8
BLACK
6
CONTINUOUS
10
1.55907
20
1.64218
11
1.56095
21
1.63468
0
LINE
8
BLACK
6
CONTINUOUS
10
1.56095
20
1.63468
11
1.56099
21
1.63409
0
LINE
8
BLACK
6
CONTINUOUS
10
1.56099
20
1.63409
11
1.56103
21
1.63396
0
LINE
8
BLACK
6
CONTINUOUS
10
1.56103
20
1.63396
11
1.56103
21
1.62459
0
LINE
8
BLACK
6
CONTINUOUS
10
1.56103
20
1.62459
11
1.56093
21
1.62401
0
LINE
8
BLACK
6
CONTINUOUS
10
1.56093
20
1.62401
11
1.56095
21
1.62387
0
LINE
8
BLACK
6
CONTINUOUS
10
1.56095
20
1.62387
11
1.55907
21
1.61637
0
LINE
8
BLACK
6
CONTINUOUS
10
1.55907
20
1.61637
11
1.55886
21
1.61591
0
LINE
8
BLACK
6
CONTINUOUS
10
1.55886
20
1.61591
11
1.55885
21
1.61577
0
LINE
8
BLACK
6
CONTINUOUS
10
1.55885
20
1.61577
11
1.55697
21
1.61202
0
LINE
8
BLACK
6
CONTINUOUS
10
1.55697
20
1.61202
11
1.55645
21
1.61131
0
LINE
8
BLACK
6
CONTINUOUS
10
1.55645
20
1.61131
11
1.55642
21
1.61125
0
LINE
8
BLACK
6
CONTINUOUS
10
1.55642
20
1.61125
11
1.55455
21
1.60938
0
LINE
8
BLACK
6
CONTINUOUS
10
1.55455
20
1.60938
11
1.55382
21
1.60887
0
LINE
8
BLACK
6
CONTINUOUS
10
1.55382
20
1.60887
11
1.55378
21
1.60883
0
LINE
8
BLACK
6
CONTINUOUS
10
1.55378
20
1.60883
11
1.55003
21
1.60695
0
LINE
8
BLACK
6
CONTINUOUS
10
1.55003
20
1.60695
11
1.54905
21
1.60666
0
LINE
8
BLACK
6
CONTINUOUS
10
1.54905
20
1.60666
11
1.54887
21
1.6067
0
LINE
8
BLACK
6
CONTINUOUS
10
1.54887
20
1.6067
11
1.54871
21
1.60664
0
LINE
8
BLACK
6
CONTINUOUS
10
1.54871
20
1.60664
11
1.54496
21
1.60664
0
LINE
8
BLACK
6
CONTINUOUS
10
1.54496
20
1.60664
11
1.54395
21
1.60682
0
LINE
8
BLACK
6
CONTINUOUS
10
1.54395
20
1.60682
11
1.54381
21
1.60693
0
LINE
8
BLACK
6
CONTINUOUS
10
1.54381
20
1.60693
11
1.54364
21
1.60695
0
LINE
8
BLACK
6
CONTINUOUS
10
1.54364
20
1.60695
11
1.53989
21
1.60883
0
LINE
8
BLACK
6
CONTINUOUS
10
1.53989
20
1.60883
11
1.53918
21
1.60935
0
LINE
8
BLACK
6
CONTINUOUS
10
1.53918
20
1.60935
11
1.53912
21
1.60938
0
LINE
8
BLACK
6
CONTINUOUS
10
1.53912
20
1.60938
11
1.53725
21
1.61125
0
LINE
8
BLACK
6
CONTINUOUS
10
1.53725
20
1.61125
11
1.53674
21
1.61198
0
LINE
8
BLACK
6
CONTINUOUS
10
1.53674
20
1.61198
11
1.53669
21
1.61202
0
LINE
8
BLACK
6
CONTINUOUS
10
1.53669
20
1.61202
11
1.53482
21
1.61577
0
LINE
8
BLACK
6
CONTINUOUS
10
1.53482
20
1.61577
11
1.53467
21
1.61626
0
LINE
8
BLACK
6
CONTINUOUS
10
1.53467
20
1.61626
11
1.5346
21
1.61637
0
LINE
8
BLACK
6
CONTINUOUS
10
1.5346
20
1.61637
11
1.53272
21
1.62387
0
LINE
8
BLACK
6
CONTINUOUS
10
1.53272
20
1.62387
11
1.53268
21
1.62446
0
LINE
8
BLACK
6
CONTINUOUS
10
1.53268
20
1.62446
11
1.53263
21
1.62459
0
LINE
8
BLACK
6
CONTINUOUS
10
1.53263
20
1.62459
11
1.53263
21
1.63396
0
LINE
8
BLACK
6
CONTINUOUS
10
1.53263
20
1.63396
11
1.53273
21
1.63454
0
LINE
8
BLACK
6
CONTINUOUS
10
1.53273
20
1.63454
11
1.53272
21
1.63468
0
LINE
8
BLACK
6
CONTINUOUS
10
1.53272
20
1.63468
11
1.5346
21
1.64218
0
LINE
8
BLACK
6
CONTINUOUS
10
1.5346
20
1.64218
11
1.5348
21
1.64264
0
LINE
8
BLACK
6
CONTINUOUS
10
1.5348
20
1.64264
11
1.53482
21
1.64278
0
LINE
8
BLACK
6
CONTINUOUS
10
1.53482
20
1.64278
11
1.53669
21
1.64653
0
LINE
8
BLACK
6
CONTINUOUS
10
1.53669
20
1.64653
11
1.53722
21
1.64724
0
LINE
8
BLACK
6
CONTINUOUS
10
1.53722
20
1.64724
11
1.53725
21
1.6473
0
LINE
8
BLACK
6
CONTINUOUS
10
1.53725
20
1.6473
11
1.53912
21
1.64917
0
LINE
8
BLACK
6
CONTINUOUS
10
1.53912
20
1.64917
11
1.53984
21
1.64968
0
LINE
8
BLACK
6
CONTINUOUS
10
1.53984
20
1.64968
11
1.53989
21
1.64973
0
LINE
8
BLACK
6
CONTINUOUS
10
1.53989
20
1.64973
11
1.54364
21
1.6516
0
LINE
8
BLACK
6
CONTINUOUS
10
1.54364
20
1.6516
11
1.54462
21
1.65189
0
LINE
8
BLACK
6
CONTINUOUS
10
1.54462
20
1.65189
11
1.54479
21
1.65185
0
LINE
8
BLACK
6
CONTINUOUS
10
1.54479
20
1.65185
11
1.54496
21
1.65191
0
LINE
8
BLACK
6
CONTINUOUS
10
1.54496
20
1.65191
11
1.54871
21
1.65191
0
LINE
8
BLACK
6
CONTINUOUS
10
1.54871
20
1.65191
11
1.54972
21
1.65174
0
LINE
8
BLACK
6
CONTINUOUS
10
1.54566
20
1.64601
11
1.54296
21
1.64466
0
LINE
8
BLACK
6
CONTINUOUS
10
1.54296
20
1.64466
11
1.54176
21
1.64346
0
LINE
8
BLACK
6
CONTINUOUS
10
1.54176
20
1.64346
11
1.54025
21
1.64043
0
LINE
8
BLACK
6
CONTINUOUS
10
1.54025
20
1.64043
11
1.53854
21
1.6336
0
LINE
8
BLACK
6
CONTINUOUS
10
1.53854
20
1.6336
11
1.53854
21
1.62495
0
LINE
8
BLACK
6
CONTINUOUS
10
1.53854
20
1.62495
11
1.54025
21
1.61812
0
LINE
8
BLACK
6
CONTINUOUS
10
1.54025
20
1.61812
11
1.54176
21
1.61509
0
LINE
8
BLACK
6
CONTINUOUS
10
1.54176
20
1.61509
11
1.54296
21
1.61389
0
LINE
8
BLACK
6
CONTINUOUS
10
1.54296
20
1.61389
11
1.54566
21
1.61254
0
LINE
8
BLACK
6
CONTINUOUS
10
1.54566
20
1.61254
11
1.54801
21
1.61254
0
LINE
8
BLACK
6
CONTINUOUS
10
1.54801
20
1.61254
11
1.55071
21
1.61389
0
LINE
8
BLACK
6
CONTINUOUS
10
1.55071
20
1.61389
11
1.55191
21
1.61509
0
LINE
8
BLACK
6
CONTINUOUS
10
1.55191
20
1.61509
11
1.55342
21
1.61812
0
LINE
8
BLACK
6
CONTINUOUS
10
1.55342
20
1.61812
11
1.55513
21
1.62495
0
LINE
8
BLACK
6
CONTINUOUS
10
1.55513
20
1.62495
11
1.55513
21
1.6336
0
LINE
8
BLACK
6
CONTINUOUS
10
1.55513
20
1.6336
11
1.55342
21
1.64043
0
LINE
8
BLACK
6
CONTINUOUS
10
1.55342
20
1.64043
11
1.55191
21
1.64346
0
LINE
8
BLACK
6
CONTINUOUS
10
1.55191
20
1.64346
11
1.55071
21
1.64466
0
LINE
8
BLACK
6
CONTINUOUS
10
1.55071
20
1.64466
11
1.54801
21
1.64601
0
LINE
8
BLACK
6
CONTINUOUS
10
1.54801
20
1.64601
11
1.54566
21
1.64601
0
LINE
8
BLACK
6
CONTINUOUS
10
1.50968
20
1.65184
11
1.50985
21
1.65187
0
LINE
8
BLACK
6
CONTINUOUS
10
1.50985
20
1.65187
11
1.51059
21
1.65144
0
LINE
8
BLACK
6
CONTINUOUS
10
1.51059
20
1.65144
11
1.51138
21
1.6511
0
LINE
8
BLACK
6
CONTINUOUS
10
1.51138
20
1.6511
11
1.51145
21
1.65094
0
LINE
8
BLACK
6
CONTINUOUS
10
1.51145
20
1.65094
11
1.5116
21
1.65086
0
LINE
8
BLACK
6
CONTINUOUS
10
1.5116
20
1.65086
11
1.51189
21
1.65005
0
LINE
8
BLACK
6
CONTINUOUS
10
1.51189
20
1.65005
11
1.51227
21
1.64929
0
LINE
8
BLACK
6
CONTINUOUS
10
1.51227
20
1.64929
11
1.51223
21
1.64912
0
LINE
8
BLACK
6
CONTINUOUS
10
1.51223
20
1.64912
11
1.51229
21
1.64896
0
LINE
8
BLACK
6
CONTINUOUS
10
1.51229
20
1.64896
11
1.51229
21
1.61254
0
LINE
8
BLACK
6
CONTINUOUS
10
1.51229
20
1.61254
11
1.52059
21
1.61254
0
LINE
8
BLACK
6
CONTINUOUS
10
1.52059
20
1.61254
11
1.5216
21
1.61237
0
LINE
8
BLACK
6
CONTINUOUS
10
1.5216
20
1.61237
11
1.52314
21
1.61107
0
LINE
8
BLACK
6
CONTINUOUS
10
1.52314
20
1.61107
11
1.52349
21
1.60908
0
LINE
8
BLACK
6
CONTINUOUS
10
1.52349
20
1.60908
11
1.52248
21
1.60733
0
LINE
8
BLACK
6
CONTINUOUS
10
1.52248
20
1.60733
11
1.52059
21
1.60664
0
LINE
8
BLACK
6
CONTINUOUS
10
1.52059
20
1.60664
11
1.49809
21
1.60664
0
LINE
8
BLACK
6
CONTINUOUS
10
1.49809
20
1.60664
11
1.49708
21
1.60682
0
LINE
8
BLACK
6
CONTINUOUS
10
1.49708
20
1.60682
11
1.49553
21
1.60811
0
LINE
8
BLACK
6
CONTINUOUS
10
1.49553
20
1.60811
11
1.49518
21
1.6101
0
LINE
8
BLACK
6
CONTINUOUS
10
1.49518
20
1.6101
11
1.49619
21
1.61185
0
LINE
8
BLACK
6
CONTINUOUS
10
1.49619
20
1.61185
11
1.49809
21
1.61254
0
LINE
8
BLACK
6
CONTINUOUS
10
1.49809
20
1.61254
11
1.50639
21
1.61254
0
LINE
8
BLACK
6
CONTINUOUS
10
1.50639
20
1.61254
11
1.50639
21
1.63996
0
LINE
8
BLACK
6
CONTINUOUS
10
1.50639
20
1.63996
11
1.50393
21
1.6375
0
LINE
8
BLACK
6
CONTINUOUS
10
1.50393
20
1.6375
11
1.5032
21
1.63699
0
LINE
8
BLACK
6
CONTINUOUS
10
1.5032
20
1.63699
11
1.50316
21
1.63695
0
LINE
8
BLACK
6
CONTINUOUS
10
1.50316
20
1.63695
11
1.49941
21
1.63507
0
LINE
8
BLACK
6
CONTINUOUS
10
1.49941
20
1.63507
11
1.49843
21
1.63478
0
LINE
8
BLACK
6
CONTINUOUS
10
1.49843
20
1.63478
11
1.49646
21
1.63525
0
LINE
8
BLACK
6
CONTINUOUS
10
1.49646
20
1.63525
11
1.49526
21
1.63687
0
LINE
8
BLACK
6
CONTINUOUS
10
1.49526
20
1.63687
11
1.49538
21
1.63889
0
LINE
8
BLACK
6
CONTINUOUS
10
1.49538
20
1.63889
11
1.49677
21
1.64035
0
LINE
8
BLACK
6
CONTINUOUS
10
1.49677
20
1.64035
11
1.50009
21
1.64201
0
LINE
8
BLACK
6
CONTINUOUS
10
1.50009
20
1.64201
11
1.50329
21
1.64522
0
LINE
8
BLACK
6
CONTINUOUS
10
1.50329
20
1.64522
11
1.50688
21
1.6506
0
LINE
8
BLACK
6
CONTINUOUS
10
1.50688
20
1.6506
11
1.50759
21
1.65134
0
LINE
8
BLACK
6
CONTINUOUS
10
1.50759
20
1.65134
11
1.50775
21
1.65139
0
LINE
8
BLACK
6
CONTINUOUS
10
1.50775
20
1.65139
11
1.50786
21
1.65152
0
LINE
8
BLACK
6
CONTINUOUS
10
1.50786
20
1.65152
11
1.50871
21
1.65167
0
LINE
8
BLACK
6
CONTINUOUS
10
1.50871
20
1.65167
11
1.50953
21
1.65191
0
LINE
8
BLACK
6
CONTINUOUS
10
1.50953
20
1.65191
11
1.50968
21
1.65184
0
LINE
8
BLACK
6
CONTINUOUS
10
1.4766
20
1.65174
11
1.47674
21
1.65162
0
LINE
8
BLACK
6
CONTINUOUS
10
1.47674
20
1.65162
11
1.47691
21
1.6516
0
LINE
8
BLACK
6
CONTINUOUS
10
1.47691
20
1.6516
11
1.48066
21
1.64973
0
LINE
8
BLACK
6
CONTINUOUS
10
1.48066
20
1.64973
11
1.48137
21
1.6492
0
LINE
8
BLACK
6
CONTINUOUS
10
1.48137
20
1.6492
11
1.48143
21
1.64917
0
LINE
8
BLACK
6
CONTINUOUS
10
1.48143
20
1.64917
11
1.4833
21
1.6473
0
LINE
8
BLACK
6
CONTINUOUS
10
1.4833
20
1.6473
11
1.48381
21
1.64658
0
LINE
8
BLACK
6
CONTINUOUS
10
1.48381
20
1.64658
11
1.48386
21
1.64653
0
LINE
8
BLACK
6
CONTINUOUS
10
1.48386
20
1.64653
11
1.48573
21
1.64278
0
LINE
8
BLACK
6
CONTINUOUS
10
1.48573
20
1.64278
11
1.48602
21
1.6418
0
LINE
8
BLACK
6
CONTINUOUS
10
1.48602
20
1.6418
11
1.48598
21
1.64163
0
LINE
8
BLACK
6
CONTINUOUS
10
1.48598
20
1.64163
11
1.48604
21
1.64146
0
LINE
8
BLACK
6
CONTINUOUS
10
1.48604
20
1.64146
11
1.48604
21
1.63771
0
LINE
8
BLACK
6
CONTINUOUS
10
1.48604
20
1.63771
11
1.48589
21
1.63684
0
LINE
8
BLACK
6
CONTINUOUS
10
1.48589
20
1.63684
11
1.48589
21
1.63678
0
LINE
8
BLACK
6
CONTINUOUS
10
1.48589
20
1.63678
11
1.48402
21
1.63115
0
LINE
8
BLACK
6
CONTINUOUS
10
1.48402
20
1.63115
11
1.48353
21
1.63025
0
LINE
8
BLACK
6
CONTINUOUS
10
1.48353
20
1.63025
11
1.48338
21
1.63016
0
LINE
8
BLACK
6
CONTINUOUS
10
1.48338
20
1.63016
11
1.4833
21
1.63
0
LINE
8
BLACK
6
CONTINUOUS
10
1.4833
20
1.63
11
1.46585
21
1.61254
0
LINE
8
BLACK
6
CONTINUOUS
10
1.46585
20
1.61254
11
1.48309
21
1.61254
0
LINE
8
BLACK
6
CONTINUOUS
10
1.48309
20
1.61254
11
1.4841
21
1.61237
0
LINE
8
BLACK
6
CONTINUOUS
10
1.4841
20
1.61237
11
1.48565
21
1.61107
0
LINE
8
BLACK
6
CONTINUOUS
10
1.48565
20
1.61107
11
1.486
21
1.60908
0
LINE
8
BLACK
6
CONTINUOUS
10
1.486
20
1.60908
11
1.48499
21
1.60733
0
LINE
8
BLACK
6
CONTINUOUS
10
1.48499
20
1.60733
11
1.48309
21
1.60664
0
LINE
8
BLACK
6
CONTINUOUS
10
1.48309
20
1.60664
11
1.45872
21
1.60664
0
LINE
8
BLACK
6
CONTINUOUS
10
1.45872
20
1.60664
11
1.45808
21
1.60675
0
LINE
8
BLACK
6
CONTINUOUS
10
1.45808
20
1.60675
11
1.45796
21
1.60674
0
LINE
8
BLACK
6
CONTINUOUS
10
1.45796
20
1.60674
11
1.45789
21
1.60678
0
LINE
8
BLACK
6
CONTINUOUS
10
1.45789
20
1.60678
11
1.45771
21
1.60682
0
LINE
8
BLACK
6
CONTINUOUS
10
1.45771
20
1.60682
11
1.45703
21
1.60739
0
LINE
8
BLACK
6
CONTINUOUS
10
1.45703
20
1.60739
11
1.4563
21
1.6079
0
LINE
8
BLACK
6
CONTINUOUS
10
1.4563
20
1.6079
11
1.45627
21
1.60803
0
LINE
8
BLACK
6
CONTINUOUS
10
1.45627
20
1.60803
11
1.45616
21
1.60811
0
LINE
8
BLACK
6
CONTINUOUS
10
1.45616
20
1.60811
11
1.45601
21
1.60899
0
LINE
8
BLACK
6
CONTINUOUS
10
1.45601
20
1.60899
11
1.45578
21
1.60985
0
LINE
8
BLACK
6
CONTINUOUS
10
1.45578
20
1.60985
11
1.45584
21
1.60997
0
LINE
8
BLACK
6
CONTINUOUS
10
1.45584
20
1.60997
11
1.45581
21
1.6101
0
LINE
8
BLACK
6
CONTINUOUS
10
1.45581
20
1.6101
11
1.45626
21
1.61087
0
LINE
8
BLACK
6
CONTINUOUS
10
1.45626
20
1.61087
11
1.45663
21
1.61168
0
LINE
8
BLACK
6
CONTINUOUS
10
1.45663
20
1.61168
11
1.47864
21
1.63368
0
LINE
8
BLACK
6
CONTINUOUS
10
1.47864
20
1.63368
11
1.48014
21
1.63819
0
LINE
8
BLACK
6
CONTINUOUS
10
1.48014
20
1.63819
11
1.48014
21
1.64077
0
LINE
8
BLACK
6
CONTINUOUS
10
1.48014
20
1.64077
11
1.47879
21
1.64346
0
LINE
8
BLACK
6
CONTINUOUS
10
1.47879
20
1.64346
11
1.47759
21
1.64466
0
LINE
8
BLACK
6
CONTINUOUS
10
1.47759
20
1.64466
11
1.4749
21
1.64601
0
LINE
8
BLACK
6
CONTINUOUS
10
1.4749
20
1.64601
11
1.46692
21
1.64601
0
LINE
8
BLACK
6
CONTINUOUS
10
1.46692
20
1.64601
11
1.46422
21
1.64466
0
LINE
8
BLACK
6
CONTINUOUS
10
1.46422
20
1.64466
11
1.46268
21
1.64312
0
LINE
8
BLACK
6
CONTINUOUS
10
1.46268
20
1.64312
11
1.46184
21
1.64254
0
LINE
8
BLACK
6
CONTINUOUS
10
1.46184
20
1.64254
11
1.45983
21
1.64236
0
LINE
8
BLACK
6
CONTINUOUS
10
1.45983
20
1.64236
11
1.45818
21
1.64352
0
LINE
8
BLACK
6
CONTINUOUS
10
1.45818
20
1.64352
11
1.45765
21
1.64547
0
LINE
8
BLACK
6
CONTINUOUS
10
1.45765
20
1.64547
11
1.45851
21
1.6473
0
LINE
8
BLACK
6
CONTINUOUS
10
1.45851
20
1.6473
11
1.46038
21
1.64917
0
LINE
8
BLACK
6
CONTINUOUS
10
1.46038
20
1.64917
11
1.4611
21
1.64968
0
LINE
8
BLACK
6
CONTINUOUS
10
1.4611
20
1.64968
11
1.46115
21
1.64973
0
LINE
8
BLACK
6
CONTINUOUS
10
1.46115
20
1.64973
11
1.4649
21
1.6516
0
LINE
8
BLACK
6
CONTINUOUS
10
1.4649
20
1.6516
11
1.46588
21
1.65189
0
LINE
8
BLACK
6
CONTINUOUS
10
1.46588
20
1.65189
11
1.46605
21
1.65185
0
LINE
8
BLACK
6
CONTINUOUS
10
1.46605
20
1.65185
11
1.46622
21
1.65191
0
LINE
8
BLACK
6
CONTINUOUS
10
1.46622
20
1.65191
11
1.47559
21
1.65191
0
LINE
8
BLACK
6
CONTINUOUS
10
1.47559
20
1.65191
11
1.4766
21
1.65174
0
LINE
8
BLACK
6
CONTINUOUS
10
1.3921
20
1.65176
11
1.39216
21
1.65176
0
LINE
8
BLACK
6
CONTINUOUS
10
1.39216
20
1.65176
11
1.39779
21
1.64989
0
LINE
8
BLACK
6
CONTINUOUS
10
1.39779
20
1.64989
11
1.39869
21
1.6494
0
LINE
8
BLACK
6
CONTINUOUS
10
1.39869
20
1.6494
11
1.39975
21
1.64768
0
LINE
8
BLACK
6
CONTINUOUS
10
1.39975
20
1.64768
11
1.39945
21
1.64568
0
LINE
8
BLACK
6
CONTINUOUS
10
1.39945
20
1.64568
11
1.39794
21
1.64434
0
LINE
8
BLACK
6
CONTINUOUS
10
1.39794
20
1.64434
11
1.39592
21
1.64429
0
LINE
8
BLACK
6
CONTINUOUS
10
1.39592
20
1.64429
11
1.39075
21
1.64601
0
LINE
8
BLACK
6
CONTINUOUS
10
1.39075
20
1.64601
11
1.38255
21
1.64601
0
LINE
8
BLACK
6
CONTINUOUS
10
1.38255
20
1.64601
11
1.37985
21
1.64466
0
LINE
8
BLACK
6
CONTINUOUS
10
1.37985
20
1.64466
11
1.37866
21
1.64346
0
LINE
8
BLACK
6
CONTINUOUS
10
1.37866
20
1.64346
11
1.37731
21
1.64077
0
LINE
8
BLACK
6
CONTINUOUS
10
1.37731
20
1.64077
11
1.37731
21
1.63841
0
LINE
8
BLACK
6
CONTINUOUS
10
1.37731
20
1.63841
11
1.37866
21
1.63571
0
LINE
8
BLACK
6
CONTINUOUS
10
1.37866
20
1.63571
11
1.37985
21
1.63452
0
LINE
8
BLACK
6
CONTINUOUS
10
1.37985
20
1.63452
11
1.38288
21
1.633
0
LINE
8
BLACK
6
CONTINUOUS
10
1.38288
20
1.633
11
1.39007
21
1.6312
0
LINE
8
BLACK
6
CONTINUOUS
10
1.39007
20
1.6312
11
1.39053
21
1.631
0
LINE
8
BLACK
6
CONTINUOUS
10
1.39053
20
1.631
11
1.39067
21
1.63098
0
LINE
8
BLACK
6
CONTINUOUS
10
1.39067
20
1.63098
11
1.39442
21
1.62911
0
LINE
8
BLACK
6
CONTINUOUS
10
1.39442
20
1.62911
11
1.39513
21
1.62858
0
LINE
8
BLACK
6
CONTINUOUS
10
1.39513
20
1.62858
11
1.39519
21
1.62855
0
LINE
8
BLACK
6
CONTINUOUS
10
1.39519
20
1.62855
11
1.39707
21
1.62668
0
LINE
8
BLACK
6
CONTINUOUS
10
1.39707
20
1.62668
11
1.39757
21
1.62595
0
LINE
8
BLACK
6
CONTINUOUS
10
1.39757
20
1.62595
11
1.39762
21
1.62591
0
LINE
8
BLACK
6
CONTINUOUS
10
1.39762
20
1.62591
11
1.39949
21
1.62216
0
LINE
8
BLACK
6
CONTINUOUS
10
1.39949
20
1.62216
11
1.39979
21
1.62118
0
LINE
8
BLACK
6
CONTINUOUS
10
1.39979
20
1.62118
11
1.39974
21
1.62101
0
LINE
8
BLACK
6
CONTINUOUS
10
1.39974
20
1.62101
11
1.3998
21
1.62084
0
LINE
8
BLACK
6
CONTINUOUS
10
1.3998
20
1.62084
11
1.3998
21
1.61709
0
LINE
8
BLACK
6
CONTINUOUS
10
1.3998
20
1.61709
11
1.39963
21
1.61608
0
LINE
8
BLACK
6
CONTINUOUS
10
1.39963
20
1.61608
11
1.39951
21
1.61595
0
LINE
8
BLACK
6
CONTINUOUS
10
1.39951
20
1.61595
11
1.39949
21
1.61577
0
LINE
8
BLACK
6
CONTINUOUS
10
1.39949
20
1.61577
11
1.39762
21
1.61202
0
LINE
8
BLACK
6
CONTINUOUS
10
1.39762
20
1.61202
11
1.39709
21
1.61131
0
LINE
8
BLACK
6
CONTINUOUS
10
1.39709
20
1.61131
11
1.39707
21
1.61125
0
LINE
8
BLACK
6
CONTINUOUS
10
1.39707
20
1.61125
11
1.39519
21
1.60938
0
LINE
8
BLACK
6
CONTINUOUS
10
1.39519
20
1.60938
11
1.39447
21
1.60887
0
LINE
8
BLACK
6
CONTINUOUS
10
1.39447
20
1.60887
11
1.39442
21
1.60883
0
LINE
8
BLACK
6
CONTINUOUS
10
1.39442
20
1.60883
11
1.39067
21
1.60695
0
LINE
8
BLACK
6
CONTINUOUS
10
1.39067
20
1.60695
11
1.38969
21
1.60666
0
LINE
8
BLACK
6
CONTINUOUS
10
1.38969
20
1.60666
11
1.38952
21
1.6067
0
LINE
8
BLACK
6
CONTINUOUS
10
1.38952
20
1.6067
11
1.38935
21
1.60664
0
LINE
8
BLACK
6
CONTINUOUS
10
1.38935
20
1.60664
11
1.37998
21
1.60664
0
LINE
8
BLACK
6
CONTINUOUS
10
1.37998
20
1.60664
11
1.37911
21
1.60679
0
LINE
8
BLACK
6
CONTINUOUS
10
1.37911
20
1.60679
11
1.37905
21
1.60679
0
LINE
8
BLACK
6
CONTINUOUS
10
1.37905
20
1.60679
11
1.37342
21
1.60866
0
LINE
8
BLACK
6
CONTINUOUS
10
1.37342
20
1.60866
11
1.37252
21
1.60915
0
LINE
8
BLACK
6
CONTINUOUS
10
1.37252
20
1.60915
11
1.37146
21
1.61087
0
LINE
8
BLACK
6
CONTINUOUS
10
1.37146
20
1.61087
11
1.37176
21
1.61287
0
LINE
8
BLACK
6
CONTINUOUS
10
1.37176
20
1.61287
11
1.37327
21
1.61421
0
LINE
8
BLACK
6
CONTINUOUS
10
1.37327
20
1.61421
11
1.37529
21
1.61427
0
LINE
8
BLACK
6
CONTINUOUS
10
1.37529
20
1.61427
11
1.38046
21
1.61254
0
LINE
8
BLACK
6
CONTINUOUS
10
1.38046
20
1.61254
11
1.38866
21
1.61254
0
LINE
8
BLACK
6
CONTINUOUS
10
1.38866
20
1.61254
11
1.39135
21
1.61389
0
LINE
8
BLACK
6
CONTINUOUS
10
1.39135
20
1.61389
11
1.39255
21
1.61509
0
LINE
8
BLACK
6
CONTINUOUS
10
1.39255
20
1.61509
11
1.3939
21
1.61779
0
LINE
8
BLACK
6
CONTINUOUS
10
1.3939
20
1.61779
11
1.3939
21
1.62014
0
LINE
8
BLACK
6
CONTINUOUS
10
1.3939
20
1.62014
11
1.39255
21
1.62284
0
LINE
8
BLACK
6
CONTINUOUS
10
1.39255
20
1.62284
11
1.39135
21
1.62404
0
LINE
8
BLACK
6
CONTINUOUS
10
1.39135
20
1.62404
11
1.38832
21
1.62555
0
LINE
8
BLACK
6
CONTINUOUS
10
1.38832
20
1.62555
11
1.38114
21
1.62735
0
LINE
8
BLACK
6
CONTINUOUS
10
1.38114
20
1.62735
11
1.38067
21
1.62756
0
LINE
8
BLACK
6
CONTINUOUS
10
1.38067
20
1.62756
11
1.38053
21
1.62757
0
LINE
8
BLACK
6
CONTINUOUS
10
1.38053
20
1.62757
11
1.37678
21
1.62945
0
LINE
8
BLACK
6
CONTINUOUS
10
1.37678
20
1.62945
11
1.37608
21
1.62997
0
LINE
8
BLACK
6
CONTINUOUS
10
1.37608
20
1.62997
11
1.37602
21
1.63
0
LINE
8
BLACK
6
CONTINUOUS
10
1.37602
20
1.63
11
1.37414
21
1.63188
0
LINE
8
BLACK
6
CONTINUOUS
10
1.37414
20
1.63188
11
1.37364
21
1.6326
0
LINE
8
BLACK
6
CONTINUOUS
10
1.37364
20
1.6326
11
1.37359
21
1.63264
0
LINE
8
BLACK
6
CONTINUOUS
10
1.37359
20
1.63264
11
1.37171
21
1.63639
0
LINE
8
BLACK
6
CONTINUOUS
10
1.37171
20
1.63639
11
1.37142
21
1.63738
0
LINE
8
BLACK
6
CONTINUOUS
10
1.37142
20
1.63738
11
1.37146
21
1.63755
0
LINE
8
BLACK
6
CONTINUOUS
10
1.37146
20
1.63755
11
1.3714
21
1.63771
0
LINE
8
BLACK
6
CONTINUOUS
10
1.3714
20
1.63771
11
1.3714
21
1.64146
0
LINE
8
BLACK
6
CONTINUOUS
10
1.3714
20
1.64146
11
1.37158
21
1.64247
0
LINE
8
BLACK
6
CONTINUOUS
10
1.37158
20
1.64247
11
1.37169
21
1.64261
0
LINE
8
BLACK
6
CONTINUOUS
10
1.37169
20
1.64261
11
1.37171
21
1.64278
0
LINE
8
BLACK
6
CONTINUOUS
10
1.37171
20
1.64278
11
1.37359
21
1.64653
0
LINE
8
BLACK
6
CONTINUOUS
10
1.37359
20
1.64653
11
1.37411
21
1.64724
0
LINE
8
BLACK
6
CONTINUOUS
10
1.37411
20
1.64724
11
1.37414
21
1.6473
0
LINE
8
BLACK
6
CONTINUOUS
10
1.37414
20
1.6473
11
1.37602
21
1.64917
0
LINE
8
BLACK
6
CONTINUOUS
10
1.37602
20
1.64917
11
1.37674
21
1.64968
0
LINE
8
BLACK
6
CONTINUOUS
10
1.37674
20
1.64968
11
1.37678
21
1.64973
0
LINE
8
BLACK
6
CONTINUOUS
10
1.37678
20
1.64973
11
1.38053
21
1.6516
0
LINE
8
BLACK
6
CONTINUOUS
10
1.38053
20
1.6516
11
1.38152
21
1.65189
0
LINE
8
BLACK
6
CONTINUOUS
10
1.38152
20
1.65189
11
1.38169
21
1.65185
0
LINE
8
BLACK
6
CONTINUOUS
10
1.38169
20
1.65185
11
1.38185
21
1.65191
0
LINE
8
BLACK
6
CONTINUOUS
10
1.38185
20
1.65191
11
1.39123
21
1.65191
0
LINE
8
BLACK
6
CONTINUOUS
10
1.39123
20
1.65191
11
1.3921
21
1.65176
0
LINE
8
BLACK
6
CONTINUOUS
10
1.64346
20
1.65174
11
1.645
21
1.65044
0
LINE
8
BLACK
6
CONTINUOUS
10
1.645
20
1.65044
11
1.64535
21
1.64845
0
LINE
8
BLACK
6
CONTINUOUS
10
1.64535
20
1.64845
11
1.64434
21
1.6467
0
LINE
8
BLACK
6
CONTINUOUS
10
1.64434
20
1.6467
11
1.64245
21
1.64601
0
LINE
8
BLACK
6
CONTINUOUS
10
1.64245
20
1.64601
11
1.62665
21
1.64601
0
LINE
8
BLACK
6
CONTINUOUS
10
1.62665
20
1.64601
11
1.62665
21
1.63317
0
LINE
8
BLACK
6
CONTINUOUS
10
1.62665
20
1.63317
11
1.63682
21
1.63317
0
LINE
8
BLACK
6
CONTINUOUS
10
1.63682
20
1.63317
11
1.63783
21
1.63299
0
LINE
8
BLACK
6
CONTINUOUS
10
1.63783
20
1.63299
11
1.63938
21
1.63169
0
LINE
8
BLACK
6
CONTINUOUS
10
1.63938
20
1.63169
11
1.63973
21
1.6297
0
LINE
8
BLACK
6
CONTINUOUS
10
1.63973
20
1.6297
11
1.63872
21
1.62795
0
LINE
8
BLACK
6
CONTINUOUS
10
1.63872
20
1.62795
11
1.63682
21
1.62726
0
LINE
8
BLACK
6
CONTINUOUS
10
1.63682
20
1.62726
11
1.62665
21
1.62726
0
LINE
8
BLACK
6
CONTINUOUS
10
1.62665
20
1.62726
11
1.62665
21
1.60959
0
LINE
8
BLACK
6
CONTINUOUS
10
1.62665
20
1.60959
11
1.62647
21
1.60858
0
LINE
8
BLACK
6
CONTINUOUS
10
1.62647
20
1.60858
11
1.62518
21
1.60703
0
LINE
8
BLACK
6
CONTINUOUS
10
1.62518
20
1.60703
11
1.62319
21
1.60668
0
LINE
8
BLACK
6
CONTINUOUS
10
1.62319
20
1.60668
11
1.62144
21
1.60769
0
LINE
8
BLACK
6
CONTINUOUS
10
1.62144
20
1.60769
11
1.62075
21
1.60959
0
LINE
8
BLACK
6
CONTINUOUS
10
1.62075
20
1.60959
11
1.62075
21
1.64896
0
LINE
8
BLACK
6
CONTINUOUS
10
1.62075
20
1.64896
11
1.62081
21
1.64934
0
LINE
8
BLACK
6
CONTINUOUS
10
1.62081
20
1.64934
11
1.62079
21
1.64947
0
LINE
8
BLACK
6
CONTINUOUS
10
1.62079
20
1.64947
11
1.62086
21
1.64959
0
LINE
8
BLACK
6
CONTINUOUS
10
1.62086
20
1.64959
11
1.62092
21
1.64997
0
LINE
8
BLACK
6
CONTINUOUS
10
1.62092
20
1.64997
11
1.62142
21
1.65056
0
LINE
8
BLACK
6
CONTINUOUS
10
1.62142
20
1.65056
11
1.6218
21
1.65122
0
LINE
8
BLACK
6
CONTINUOUS
10
1.6218
20
1.65122
11
1.62205
21
1.65131
0
LINE
8
BLACK
6
CONTINUOUS
10
1.62205
20
1.65131
11
1.62222
21
1.65152
0
LINE
8
BLACK
6
CONTINUOUS
10
1.62222
20
1.65152
11
1.62298
21
1.65165
0
LINE
8
BLACK
6
CONTINUOUS
10
1.62298
20
1.65165
11
1.6237
21
1.65191
0
LINE
8
BLACK
6
CONTINUOUS
10
1.6237
20
1.65191
11
1.64245
21
1.65191
0
LINE
8
BLACK
6
CONTINUOUS
10
1.64245
20
1.65191
11
1.64346
21
1.65174
0
LINE
8
BLACK
6
CONTINUOUS
10
1.311
20
1.65086
11
1.31169
21
1.64896
0
LINE
8
BLACK
6
CONTINUOUS
10
1.31169
20
1.64896
11
1.31169
21
1.60959
0
LINE
8
BLACK
6
CONTINUOUS
10
1.31169
20
1.60959
11
1.31151
21
1.60858
0
LINE
8
BLACK
6
CONTINUOUS
10
1.31151
20
1.60858
11
1.31021
21
1.60703
0
LINE
8
BLACK
6
CONTINUOUS
10
1.31021
20
1.60703
11
1.30823
21
1.60668
0
LINE
8
BLACK
6
CONTINUOUS
10
1.30823
20
1.60668
11
1.30648
21
1.60769
0
LINE
8
BLACK
6
CONTINUOUS
10
1.30648
20
1.60769
11
1.30579
21
1.60959
0
LINE
8
BLACK
6
CONTINUOUS
10
1.30579
20
1.60959
11
1.30579
21
1.64896
0
LINE
8
BLACK
6
CONTINUOUS
10
1.30579
20
1.64896
11
1.30596
21
1.64997
0
LINE
8
BLACK
6
CONTINUOUS
10
1.30596
20
1.64997
11
1.30726
21
1.65152
0
LINE
8
BLACK
6
CONTINUOUS
10
1.30726
20
1.65152
11
1.30925
21
1.65187
0
LINE
8
BLACK
6
CONTINUOUS
10
1.30925
20
1.65187
11
1.311
21
1.65086
0
LINE
8
BLACK
6
CONTINUOUS
10
1.35849
20
1.62736
11
1.36004
21
1.62607
0
LINE
8
BLACK
6
CONTINUOUS
10
1.36004
20
1.62607
11
1.36039
21
1.62408
0
LINE
8
BLACK
6
CONTINUOUS
10
1.36039
20
1.62408
11
1.35938
21
1.62233
0
LINE
8
BLACK
6
CONTINUOUS
10
1.35938
20
1.62233
11
1.35748
21
1.62164
0
LINE
8
BLACK
6
CONTINUOUS
10
1.35748
20
1.62164
11
1.32749
21
1.62164
0
LINE
8
BLACK
6
CONTINUOUS
10
1.32749
20
1.62164
11
1.32648
21
1.62181
0
LINE
8
BLACK
6
CONTINUOUS
10
1.32648
20
1.62181
11
1.32493
21
1.62311
0
LINE
8
BLACK
6
CONTINUOUS
10
1.32493
20
1.62311
11
1.32458
21
1.6251
0
LINE
8
BLACK
6
CONTINUOUS
10
1.32458
20
1.6251
11
1.32559
21
1.62685
0
LINE
8
BLACK
6
CONTINUOUS
10
1.32559
20
1.62685
11
1.32749
21
1.62754
0
LINE
8
BLACK
6
CONTINUOUS
10
1.32749
20
1.62754
11
1.35748
21
1.62754
0
LINE
8
BLACK
6
CONTINUOUS
10
1.35748
20
1.62754
11
1.35849
21
1.62736
0
LINE
8
BLACK
6
CONTINUOUS
10
1.60596
20
1.62736
11
1.60751
21
1.62607
0
LINE
8
BLACK
6
CONTINUOUS
10
1.60751
20
1.62607
11
1.60786
21
1.62408
0
LINE
8
BLACK
6
CONTINUOUS
10
1.60786
20
1.62408
11
1.60685
21
1.62233
0
LINE
8
BLACK
6
CONTINUOUS
10
1.60685
20
1.62233
11
1.60495
21
1.62164
0
LINE
8
BLACK
6
CONTINUOUS
10
1.60495
20
1.62164
11
1.57495
21
1.62164
0
LINE
8
BLACK
6
CONTINUOUS
10
1.57495
20
1.62164
11
1.57395
21
1.62181
0
LINE
8
BLACK
6
CONTINUOUS
10
1.57395
20
1.62181
11
1.5724
21
1.62311
0
LINE
8
BLACK
6
CONTINUOUS
10
1.5724
20
1.62311
11
1.57205
21
1.6251
0
LINE
8
BLACK
6
CONTINUOUS
10
1.57205
20
1.6251
11
1.57306
21
1.62685
0
LINE
8
BLACK
6
CONTINUOUS
10
1.57306
20
1.62685
11
1.57495
21
1.62754
0
LINE
8
BLACK
6
CONTINUOUS
10
1.57495
20
1.62754
11
1.60495
21
1.62754
0
LINE
8
BLACK
6
CONTINUOUS
10
1.60495
20
1.62754
11
1.60596
21
1.62736
0
LINE
8
BLACK
6
CONTINUOUS
10
1.44473
20
1.62736
11
1.44628
21
1.62607
0
LINE
8
BLACK
6
CONTINUOUS
10
1.44628
20
1.62607
11
1.44663
21
1.62408
0
LINE
8
BLACK
6
CONTINUOUS
10
1.44663
20
1.62408
11
1.44562
21
1.62233
0
LINE
8
BLACK
6
CONTINUOUS
10
1.44562
20
1.62233
11
1.44372
21
1.62164
0
LINE
8
BLACK
6
CONTINUOUS
10
1.44372
20
1.62164
11
1.41373
21
1.62164
0
LINE
8
BLACK
6
CONTINUOUS
10
1.41373
20
1.62164
11
1.41272
21
1.62181
0
LINE
8
BLACK
6
CONTINUOUS
10
1.41272
20
1.62181
11
1.41117
21
1.62311
0
LINE
8
BLACK
6
CONTINUOUS
10
1.41117
20
1.62311
11
1.41082
21
1.6251
0
LINE
8
BLACK
6
CONTINUOUS
10
1.41082
20
1.6251
11
1.41183
21
1.62685
0
LINE
8
BLACK
6
CONTINUOUS
10
1.41183
20
1.62685
11
1.41373
21
1.62754
0
LINE
8
BLACK
6
CONTINUOUS
10
1.41373
20
1.62754
11
1.44372
21
1.62754
0
LINE
8
BLACK
6
CONTINUOUS
10
1.44372
20
1.62754
11
1.44473
21
1.62736
  0
ENDSEC
  0
EOF
