  0
SECTION
  2
HEADER
  9
$ANGBASE
  50
0.0
  9
$ANGDIR
  70
1
  9
$MEASUREMENT
  70
0
  0
ENDSEC
  0
SECTION
  2
TABLES
  0
TABLE
  2
LTYPE
  70
4
  0
LTYPE
  5
40F
  2
CONTINUOUS
  70
0
  3
Solid line
  72
65
  73
0
  40
0.0
  0
LTYPE
  5
410
  2
DASHDOT
 70
0
  3
Dash Dot ____ _ ____ _
 72
65
 73
4
 40
2.0
 49
1.25
 49
-0.25
 49
0.25
 49
-0.25
  0
LTYPE
  5
411
  2
DASHED
 70
0
  3
Dashed __ __ __ __ __
 72
65
 73
2
 40
0.75
 49
0.5
 49
-0.25
  0
LTYPE
  5
43B
  2
DOTTED
 70
0
  3
Dotted .  .  .  .
 72
65
 73
2
 40
0.2
 49
0.0
 49
-0.2
  0
ENDTAB
  0
TABLE
  2
STYLE
  70
4
  0
STYLE
  2
KICAD
  70
0
  40
0
  41
1
  42
1
  50
0
  71
0
  3
isocp.shx
  0
STYLE
  2
KICADB
  70
0
  40
0
  41
1
  42
1
  50
0
  71
0
  3
isocp.shx
  0
STYLE
  2
KICADI
  70
0
  40
0
  41
1
  42
1
  50
15
  71
0
  3
isocp.shx
  0
STYLE
  2
KICADBI
  70
0
  40
0
  41
1
  42
1
  50
15
  71
0
  3
isocp.shx
  0
ENDTAB
  0
TABLE
  2
LAYER
  70
1
  0
LAYER
  2
BLACK
  70
0
  62
7
  6
CONTINUOUS
  0
ENDTAB
  0
ENDSEC
  0
SECTION
  2
ENTITIES
0
LINE
8
BLACK
6
CONTINUOUS
10
4.8921
20
-2.90809
11
4.89267
21
-2.90947
0
LINE
8
BLACK
6
CONTINUOUS
10
4.89267
20
-2.90947
11
4.89267
21
-4.88557
0
LINE
8
BLACK
6
CONTINUOUS
10
4.89267
20
-4.88557
11
4.8921
21
-4.88695
0
LINE
8
BLACK
6
CONTINUOUS
10
4.8921
20
-4.88695
11
4.89073
21
-4.88752
0
LINE
8
BLACK
6
CONTINUOUS
10
4.89073
20
-4.88752
11
3.90062
21
-4.88752
0
LINE
8
BLACK
6
CONTINUOUS
10
3.90062
20
-4.88752
11
3.89925
21
-4.88695
0
LINE
8
BLACK
6
CONTINUOUS
10
3.89925
20
-4.88695
11
3.89867
21
-4.88557
0
LINE
8
BLACK
6
CONTINUOUS
10
3.89867
20
-4.88557
11
3.89867
21
-2.90947
0
LINE
8
BLACK
6
CONTINUOUS
10
3.89867
20
-2.90947
11
3.89925
21
-2.90809
0
LINE
8
BLACK
6
CONTINUOUS
10
3.89925
20
-2.90809
11
3.90062
21
-2.90752
0
LINE
8
BLACK
6
CONTINUOUS
10
3.90062
20
-2.90752
11
4.89073
21
-2.90752
0
LINE
8
BLACK
6
CONTINUOUS
10
4.89073
20
-2.90752
11
4.8921
21
-2.90809
0
LINE
8
BLACK
6
CONTINUOUS
10
7.22809
20
-4.77379
11
7.23454
21
-4.77532
0
LINE
8
BLACK
6
CONTINUOUS
10
7.23454
20
-4.77532
11
7.24046
21
-4.7783
0
LINE
8
BLACK
6
CONTINUOUS
10
7.24046
20
-4.7783
11
7.24554
21
-4.78256
0
LINE
8
BLACK
6
CONTINUOUS
10
7.24554
20
-4.78256
11
7.2495
21
-4.78787
0
LINE
8
BLACK
6
CONTINUOUS
10
7.2495
20
-4.78787
11
7.25212
21
-4.79396
0
LINE
8
BLACK
6
CONTINUOUS
10
7.25212
20
-4.79396
11
7.25327
21
-4.80048
0
LINE
8
BLACK
6
CONTINUOUS
10
7.25327
20
-4.80048
11
7.25289
21
-4.8071
0
LINE
8
BLACK
6
CONTINUOUS
10
7.25289
20
-4.8071
11
7.25099
21
-4.81345
0
LINE
8
BLACK
6
CONTINUOUS
10
7.25099
20
-4.81345
11
7.24767
21
-4.81919
0
LINE
8
BLACK
6
CONTINUOUS
10
7.24767
20
-4.81919
11
7.24312
21
-4.82401
0
LINE
8
BLACK
6
CONTINUOUS
10
7.24312
20
-4.82401
11
7.23759
21
-4.82765
0
LINE
8
BLACK
6
CONTINUOUS
10
7.23759
20
-4.82765
11
7.23136
21
-4.82992
0
LINE
8
BLACK
6
CONTINUOUS
10
7.23136
20
-4.82992
11
7.22478
21
-4.83069
0
LINE
8
BLACK
6
CONTINUOUS
10
7.22478
20
-4.83069
11
7.18344
21
-4.83069
0
LINE
8
BLACK
6
CONTINUOUS
10
7.18344
20
-4.83069
11
7.18012
21
-4.83049
0
LINE
8
BLACK
6
CONTINUOUS
10
7.18012
20
-4.83049
11
7.17368
21
-4.82896
0
LINE
8
BLACK
6
CONTINUOUS
10
7.17368
20
-4.82896
11
7.16775
21
-4.82599
0
LINE
8
BLACK
6
CONTINUOUS
10
7.16775
20
-4.82599
11
7.16268
21
-4.82173
0
LINE
8
BLACK
6
CONTINUOUS
10
7.16268
20
-4.82173
11
7.15872
21
-4.81641
0
LINE
8
BLACK
6
CONTINUOUS
10
7.15872
20
-4.81641
11
7.15609
21
-4.81033
0
LINE
8
BLACK
6
CONTINUOUS
10
7.15609
20
-4.81033
11
7.15494
21
-4.8038
0
LINE
8
BLACK
6
CONTINUOUS
10
7.15494
20
-4.8038
11
7.15533
21
-4.79719
0
LINE
8
BLACK
6
CONTINUOUS
10
7.15533
20
-4.79719
11
7.15723
21
-4.79084
0
LINE
8
BLACK
6
CONTINUOUS
10
7.15723
20
-4.79084
11
7.16054
21
-4.7851
0
LINE
8
BLACK
6
CONTINUOUS
10
7.16054
20
-4.7851
11
7.16509
21
-4.78028
0
LINE
8
BLACK
6
CONTINUOUS
10
7.16509
20
-4.78028
11
7.17063
21
-4.77664
0
LINE
8
BLACK
6
CONTINUOUS
10
7.17063
20
-4.77664
11
7.17686
21
-4.77437
0
LINE
8
BLACK
6
CONTINUOUS
10
7.17686
20
-4.77437
11
7.18344
21
-4.7736
0
LINE
8
BLACK
6
CONTINUOUS
10
7.18344
20
-4.7736
11
7.22478
21
-4.7736
0
LINE
8
BLACK
6
CONTINUOUS
10
7.22478
20
-4.7736
11
7.22809
21
-4.77379
0
LINE
8
BLACK
6
CONTINUOUS
10
7.39496
20
-4.77538
11
7.40117
21
-4.77774
0
LINE
8
BLACK
6
CONTINUOUS
10
7.40117
20
-4.77774
11
7.40663
21
-4.78151
0
LINE
8
BLACK
6
CONTINUOUS
10
7.40663
20
-4.78151
11
7.41104
21
-4.78649
0
LINE
8
BLACK
6
CONTINUOUS
10
7.41104
20
-4.78649
11
7.41413
21
-4.79237
0
LINE
8
BLACK
6
CONTINUOUS
10
7.41413
20
-4.79237
11
7.41572
21
-4.79882
0
LINE
8
BLACK
6
CONTINUOUS
10
7.41572
20
-4.79882
11
7.41572
21
-4.80546
0
LINE
8
BLACK
6
CONTINUOUS
10
7.41572
20
-4.80546
11
7.41413
21
-4.81192
0
LINE
8
BLACK
6
CONTINUOUS
10
7.41413
20
-4.81192
11
7.41104
21
-4.8178
0
LINE
8
BLACK
6
CONTINUOUS
10
7.41104
20
-4.8178
11
7.40663
21
-4.82277
0
LINE
8
BLACK
6
CONTINUOUS
10
7.40663
20
-4.82277
11
7.40117
21
-4.82655
0
LINE
8
BLACK
6
CONTINUOUS
10
7.40117
20
-4.82655
11
7.39496
21
-4.8289
0
LINE
8
BLACK
6
CONTINUOUS
10
7.39496
20
-4.8289
11
7.38836
21
-4.8297
0
LINE
8
BLACK
6
CONTINUOUS
10
7.38836
20
-4.8297
11
7.34899
21
-4.8297
0
LINE
8
BLACK
6
CONTINUOUS
10
7.34899
20
-4.8297
11
7.34239
21
-4.8289
0
LINE
8
BLACK
6
CONTINUOUS
10
7.34239
20
-4.8289
11
7.33618
21
-4.82655
0
LINE
8
BLACK
6
CONTINUOUS
10
7.33618
20
-4.82655
11
7.33071
21
-4.82277
0
LINE
8
BLACK
6
CONTINUOUS
10
7.33071
20
-4.82277
11
7.32631
21
-4.8178
0
LINE
8
BLACK
6
CONTINUOUS
10
7.32631
20
-4.8178
11
7.32322
21
-4.81192
0
LINE
8
BLACK
6
CONTINUOUS
10
7.32322
20
-4.81192
11
7.32163
21
-4.80546
0
LINE
8
BLACK
6
CONTINUOUS
10
7.32163
20
-4.80546
11
7.32163
21
-4.79882
0
LINE
8
BLACK
6
CONTINUOUS
10
7.32163
20
-4.79882
11
7.32322
21
-4.79237
0
LINE
8
BLACK
6
CONTINUOUS
10
7.32322
20
-4.79237
11
7.32631
21
-4.78649
0
LINE
8
BLACK
6
CONTINUOUS
10
7.32631
20
-4.78649
11
7.33071
21
-4.78151
0
LINE
8
BLACK
6
CONTINUOUS
10
7.33071
20
-4.78151
11
7.33618
21
-4.77774
0
LINE
8
BLACK
6
CONTINUOUS
10
7.33618
20
-4.77774
11
7.34239
21
-4.77538
0
LINE
8
BLACK
6
CONTINUOUS
10
7.34239
20
-4.77538
11
7.34899
21
-4.77458
0
LINE
8
BLACK
6
CONTINUOUS
10
7.34899
20
-4.77458
11
7.38836
21
-4.77458
0
LINE
8
BLACK
6
CONTINUOUS
10
7.38836
20
-4.77458
11
7.39496
21
-4.77538
0
LINE
8
BLACK
6
CONTINUOUS
10
6.90278
20
-4.57232
11
6.91671
21
-4.57469
0
LINE
8
BLACK
6
CONTINUOUS
10
6.91671
20
-4.57469
11
6.93028
21
-4.5786
0
LINE
8
BLACK
6
CONTINUOUS
10
6.93028
20
-4.5786
11
6.94334
21
-4.58401
0
LINE
8
BLACK
6
CONTINUOUS
10
6.94334
20
-4.58401
11
6.9557
21
-4.59084
0
LINE
8
BLACK
6
CONTINUOUS
10
6.9557
20
-4.59084
11
6.96722
21
-4.59902
0
LINE
8
BLACK
6
CONTINUOUS
10
6.96722
20
-4.59902
11
6.97776
21
-4.60843
0
LINE
8
BLACK
6
CONTINUOUS
10
6.97776
20
-4.60843
11
6.98717
21
-4.61897
0
LINE
8
BLACK
6
CONTINUOUS
10
6.98717
20
-4.61897
11
6.99535
21
-4.63049
0
LINE
8
BLACK
6
CONTINUOUS
10
6.99535
20
-4.63049
11
7.00218
21
-4.64285
0
LINE
8
BLACK
6
CONTINUOUS
10
7.00218
20
-4.64285
11
7.00759
21
-4.65591
0
LINE
8
BLACK
6
CONTINUOUS
10
7.00759
20
-4.65591
11
7.0115
21
-4.66948
0
LINE
8
BLACK
6
CONTINUOUS
10
7.0115
20
-4.66948
11
7.01387
21
-4.68341
0
LINE
8
BLACK
6
CONTINUOUS
10
7.01387
20
-4.68341
11
7.01466
21
-4.69752
0
LINE
8
BLACK
6
CONTINUOUS
10
7.01466
20
-4.69752
11
7.01387
21
-4.71162
0
LINE
8
BLACK
6
CONTINUOUS
10
7.01387
20
-4.71162
11
7.0115
21
-4.72555
0
LINE
8
BLACK
6
CONTINUOUS
10
7.0115
20
-4.72555
11
7.00759
21
-4.73913
0
LINE
8
BLACK
6
CONTINUOUS
10
7.00759
20
-4.73913
11
7.00218
21
-4.75218
0
LINE
8
BLACK
6
CONTINUOUS
10
7.00218
20
-4.75218
11
6.99535
21
-4.76454
0
LINE
8
BLACK
6
CONTINUOUS
10
6.99535
20
-4.76454
11
6.98717
21
-4.77607
0
LINE
8
BLACK
6
CONTINUOUS
10
6.98717
20
-4.77607
11
6.97776
21
-4.7866
0
LINE
8
BLACK
6
CONTINUOUS
10
6.97776
20
-4.7866
11
6.96722
21
-4.79602
0
LINE
8
BLACK
6
CONTINUOUS
10
6.96722
20
-4.79602
11
6.9557
21
-4.80419
0
LINE
8
BLACK
6
CONTINUOUS
10
6.9557
20
-4.80419
11
6.94334
21
-4.81102
0
LINE
8
BLACK
6
CONTINUOUS
10
6.94334
20
-4.81102
11
6.93028
21
-4.81643
0
LINE
8
BLACK
6
CONTINUOUS
10
6.93028
20
-4.81643
11
6.91671
21
-4.82034
0
LINE
8
BLACK
6
CONTINUOUS
10
6.91671
20
-4.82034
11
6.90278
21
-4.82271
0
LINE
8
BLACK
6
CONTINUOUS
10
6.90278
20
-4.82271
11
6.88867
21
-4.8235
0
LINE
8
BLACK
6
CONTINUOUS
10
6.88867
20
-4.8235
11
6.87457
21
-4.82271
0
LINE
8
BLACK
6
CONTINUOUS
10
6.87457
20
-4.82271
11
6.86064
21
-4.82034
0
LINE
8
BLACK
6
CONTINUOUS
10
6.86064
20
-4.82034
11
6.84706
21
-4.81643
0
LINE
8
BLACK
6
CONTINUOUS
10
6.84706
20
-4.81643
11
6.83401
21
-4.81102
0
LINE
8
BLACK
6
CONTINUOUS
10
6.83401
20
-4.81102
11
6.82165
21
-4.80419
0
LINE
8
BLACK
6
CONTINUOUS
10
6.82165
20
-4.80419
11
6.81012
21
-4.79602
0
LINE
8
BLACK
6
CONTINUOUS
10
6.81012
20
-4.79602
11
6.79959
21
-4.7866
0
LINE
8
BLACK
6
CONTINUOUS
10
6.79959
20
-4.7866
11
6.79018
21
-4.77607
0
LINE
8
BLACK
6
CONTINUOUS
10
6.79018
20
-4.77607
11
6.782
21
-4.76454
0
LINE
8
BLACK
6
CONTINUOUS
10
6.782
20
-4.76454
11
6.77517
21
-4.75218
0
LINE
8
BLACK
6
CONTINUOUS
10
6.77517
20
-4.75218
11
6.76976
21
-4.73913
0
LINE
8
BLACK
6
CONTINUOUS
10
6.76976
20
-4.73913
11
6.76585
21
-4.72555
0
LINE
8
BLACK
6
CONTINUOUS
10
6.76585
20
-4.72555
11
6.76348
21
-4.71162
0
LINE
8
BLACK
6
CONTINUOUS
10
6.76348
20
-4.71162
11
6.76269
21
-4.69752
0
LINE
8
BLACK
6
CONTINUOUS
10
6.76269
20
-4.69752
11
6.76348
21
-4.68341
0
LINE
8
BLACK
6
CONTINUOUS
10
6.76348
20
-4.68341
11
6.76585
21
-4.66948
0
LINE
8
BLACK
6
CONTINUOUS
10
6.76585
20
-4.66948
11
6.76976
21
-4.65591
0
LINE
8
BLACK
6
CONTINUOUS
10
6.76976
20
-4.65591
11
6.77517
21
-4.64285
0
LINE
8
BLACK
6
CONTINUOUS
10
6.77517
20
-4.64285
11
6.782
21
-4.63049
0
LINE
8
BLACK
6
CONTINUOUS
10
6.782
20
-4.63049
11
6.79018
21
-4.61897
0
LINE
8
BLACK
6
CONTINUOUS
10
6.79018
20
-4.61897
11
6.79959
21
-4.60843
0
LINE
8
BLACK
6
CONTINUOUS
10
6.79959
20
-4.60843
11
6.81012
21
-4.59902
0
LINE
8
BLACK
6
CONTINUOUS
10
6.81012
20
-4.59902
11
6.82165
21
-4.59084
0
LINE
8
BLACK
6
CONTINUOUS
10
6.82165
20
-4.59084
11
6.83401
21
-4.58401
0
LINE
8
BLACK
6
CONTINUOUS
10
6.83401
20
-4.58401
11
6.84706
21
-4.5786
0
LINE
8
BLACK
6
CONTINUOUS
10
6.84706
20
-4.5786
11
6.86064
21
-4.57469
0
LINE
8
BLACK
6
CONTINUOUS
10
6.86064
20
-4.57469
11
6.87457
21
-4.57232
0
LINE
8
BLACK
6
CONTINUOUS
10
6.87457
20
-4.57232
11
6.88867
21
-4.57153
0
LINE
8
BLACK
6
CONTINUOUS
10
6.88867
20
-4.57153
11
6.90278
21
-4.57232
0
LINE
8
BLACK
6
CONTINUOUS
10
4.99636
20
-4.7449
11
5.00374
21
-4.74714
0
LINE
8
BLACK
6
CONTINUOUS
10
5.00374
20
-4.74714
11
5.01055
21
-4.75078
0
LINE
8
BLACK
6
CONTINUOUS
10
5.01055
20
-4.75078
11
5.01651
21
-4.75568
0
LINE
8
BLACK
6
CONTINUOUS
10
5.01651
20
-4.75568
11
5.02141
21
-4.76164
0
LINE
8
BLACK
6
CONTINUOUS
10
5.02141
20
-4.76164
11
5.02505
21
-4.76845
0
LINE
8
BLACK
6
CONTINUOUS
10
5.02505
20
-4.76845
11
5.02729
21
-4.77584
0
LINE
8
BLACK
6
CONTINUOUS
10
5.02729
20
-4.77584
11
5.02804
21
-4.78352
0
LINE
8
BLACK
6
CONTINUOUS
10
5.02804
20
-4.78352
11
5.02729
21
-4.7912
0
LINE
8
BLACK
6
CONTINUOUS
10
5.02729
20
-4.7912
11
5.02505
21
-4.79858
0
LINE
8
BLACK
6
CONTINUOUS
10
5.02505
20
-4.79858
11
5.02141
21
-4.80539
0
LINE
8
BLACK
6
CONTINUOUS
10
5.02141
20
-4.80539
11
5.01651
21
-4.81136
0
LINE
8
BLACK
6
CONTINUOUS
10
5.01651
20
-4.81136
11
5.01055
21
-4.81625
0
LINE
8
BLACK
6
CONTINUOUS
10
5.01055
20
-4.81625
11
5.00374
21
-4.81989
0
LINE
8
BLACK
6
CONTINUOUS
10
5.00374
20
-4.81989
11
4.99636
21
-4.82213
0
LINE
8
BLACK
6
CONTINUOUS
10
4.99636
20
-4.82213
11
4.98867
21
-4.82289
0
LINE
8
BLACK
6
CONTINUOUS
10
4.98867
20
-4.82289
11
4.98099
21
-4.82213
0
LINE
8
BLACK
6
CONTINUOUS
10
4.98099
20
-4.82213
11
4.97361
21
-4.81989
0
LINE
8
BLACK
6
CONTINUOUS
10
4.97361
20
-4.81989
11
4.9668
21
-4.81625
0
LINE
8
BLACK
6
CONTINUOUS
10
4.9668
20
-4.81625
11
4.96084
21
-4.81136
0
LINE
8
BLACK
6
CONTINUOUS
10
4.96084
20
-4.81136
11
4.95594
21
-4.80539
0
LINE
8
BLACK
6
CONTINUOUS
10
4.95594
20
-4.80539
11
4.9523
21
-4.79858
0
LINE
8
BLACK
6
CONTINUOUS
10
4.9523
20
-4.79858
11
4.95006
21
-4.7912
0
LINE
8
BLACK
6
CONTINUOUS
10
4.95006
20
-4.7912
11
4.9493
21
-4.78352
0
LINE
8
BLACK
6
CONTINUOUS
10
4.9493
20
-4.78352
11
4.95006
21
-4.77584
0
LINE
8
BLACK
6
CONTINUOUS
10
4.95006
20
-4.77584
11
4.9523
21
-4.76845
0
LINE
8
BLACK
6
CONTINUOUS
10
4.9523
20
-4.76845
11
4.95594
21
-4.76164
0
LINE
8
BLACK
6
CONTINUOUS
10
4.95594
20
-4.76164
11
4.96084
21
-4.75568
0
LINE
8
BLACK
6
CONTINUOUS
10
4.96084
20
-4.75568
11
4.9668
21
-4.75078
0
LINE
8
BLACK
6
CONTINUOUS
10
4.9668
20
-4.75078
11
4.97361
21
-4.74714
0
LINE
8
BLACK
6
CONTINUOUS
10
4.97361
20
-4.74714
11
4.98099
21
-4.7449
0
LINE
8
BLACK
6
CONTINUOUS
10
4.98099
20
-4.7449
11
4.98867
21
-4.74415
0
LINE
8
BLACK
6
CONTINUOUS
10
4.98867
20
-4.74415
11
4.99636
21
-4.7449
0
LINE
8
BLACK
6
CONTINUOUS
10
5.85571
20
-4.72046
11
5.86069
21
-4.72221
0
LINE
8
BLACK
6
CONTINUOUS
10
5.86069
20
-4.72221
11
5.86494
21
-4.72534
0
LINE
8
BLACK
6
CONTINUOUS
10
5.86494
20
-4.72534
11
5.86808
21
-4.72959
0
LINE
8
BLACK
6
CONTINUOUS
10
5.86808
20
-4.72959
11
5.86982
21
-4.73458
0
LINE
8
BLACK
6
CONTINUOUS
10
5.86982
20
-4.73458
11
5.87013
21
-4.73787
0
LINE
8
BLACK
6
CONTINUOUS
10
5.87013
20
-4.73787
11
5.87013
21
-4.7674
0
LINE
8
BLACK
6
CONTINUOUS
10
5.87013
20
-4.7674
11
5.86982
21
-4.77069
0
LINE
8
BLACK
6
CONTINUOUS
10
5.86982
20
-4.77069
11
5.86808
21
-4.77568
0
LINE
8
BLACK
6
CONTINUOUS
10
5.86808
20
-4.77568
11
5.86494
21
-4.77993
0
LINE
8
BLACK
6
CONTINUOUS
10
5.86494
20
-4.77993
11
5.86069
21
-4.78306
0
LINE
8
BLACK
6
CONTINUOUS
10
5.86069
20
-4.78306
11
5.85571
21
-4.78481
0
LINE
8
BLACK
6
CONTINUOUS
10
5.85571
20
-4.78481
11
5.85241
21
-4.78512
0
LINE
8
BLACK
6
CONTINUOUS
10
5.85241
20
-4.78512
11
5.8032
21
-4.78512
0
LINE
8
BLACK
6
CONTINUOUS
10
5.8032
20
-4.78512
11
5.79991
21
-4.78481
0
LINE
8
BLACK
6
CONTINUOUS
10
5.79991
20
-4.78481
11
5.79492
21
-4.78306
0
LINE
8
BLACK
6
CONTINUOUS
10
5.79492
20
-4.78306
11
5.79067
21
-4.77993
0
LINE
8
BLACK
6
CONTINUOUS
10
5.79067
20
-4.77993
11
5.78754
21
-4.77568
0
LINE
8
BLACK
6
CONTINUOUS
10
5.78754
20
-4.77568
11
5.78579
21
-4.77069
0
LINE
8
BLACK
6
CONTINUOUS
10
5.78579
20
-4.77069
11
5.78549
21
-4.7674
0
LINE
8
BLACK
6
CONTINUOUS
10
5.78549
20
-4.7674
11
5.78549
21
-4.73787
0
LINE
8
BLACK
6
CONTINUOUS
10
5.78549
20
-4.73787
11
5.78579
21
-4.73458
0
LINE
8
BLACK
6
CONTINUOUS
10
5.78579
20
-4.73458
11
5.78754
21
-4.72959
0
LINE
8
BLACK
6
CONTINUOUS
10
5.78754
20
-4.72959
11
5.79067
21
-4.72534
0
LINE
8
BLACK
6
CONTINUOUS
10
5.79067
20
-4.72534
11
5.79492
21
-4.72221
0
LINE
8
BLACK
6
CONTINUOUS
10
5.79492
20
-4.72221
11
5.79991
21
-4.72046
0
LINE
8
BLACK
6
CONTINUOUS
10
5.79991
20
-4.72046
11
5.8032
21
-4.72015
0
LINE
8
BLACK
6
CONTINUOUS
10
5.8032
20
-4.72015
11
5.85241
21
-4.72015
0
LINE
8
BLACK
6
CONTINUOUS
10
5.85241
20
-4.72015
11
5.85571
21
-4.72046
0
LINE
8
BLACK
6
CONTINUOUS
10
6.05256
20
-4.72046
11
6.05754
21
-4.72221
0
LINE
8
BLACK
6
CONTINUOUS
10
6.05754
20
-4.72221
11
6.06179
21
-4.72534
0
LINE
8
BLACK
6
CONTINUOUS
10
6.06179
20
-4.72534
11
6.06493
21
-4.72959
0
LINE
8
BLACK
6
CONTINUOUS
10
6.06493
20
-4.72959
11
6.06667
21
-4.73458
0
LINE
8
BLACK
6
CONTINUOUS
10
6.06667
20
-4.73458
11
6.06698
21
-4.73787
0
LINE
8
BLACK
6
CONTINUOUS
10
6.06698
20
-4.73787
11
6.06698
21
-4.7674
0
LINE
8
BLACK
6
CONTINUOUS
10
6.06698
20
-4.7674
11
6.06667
21
-4.77069
0
LINE
8
BLACK
6
CONTINUOUS
10
6.06667
20
-4.77069
11
6.06493
21
-4.77568
0
LINE
8
BLACK
6
CONTINUOUS
10
6.06493
20
-4.77568
11
6.06179
21
-4.77993
0
LINE
8
BLACK
6
CONTINUOUS
10
6.06179
20
-4.77993
11
6.05754
21
-4.78306
0
LINE
8
BLACK
6
CONTINUOUS
10
6.05754
20
-4.78306
11
6.05256
21
-4.78481
0
LINE
8
BLACK
6
CONTINUOUS
10
6.05256
20
-4.78481
11
6.04927
21
-4.78512
0
LINE
8
BLACK
6
CONTINUOUS
10
6.04927
20
-4.78512
11
6.00005
21
-4.78512
0
LINE
8
BLACK
6
CONTINUOUS
10
6.00005
20
-4.78512
11
5.99676
21
-4.78481
0
LINE
8
BLACK
6
CONTINUOUS
10
5.99676
20
-4.78481
11
5.99177
21
-4.78306
0
LINE
8
BLACK
6
CONTINUOUS
10
5.99177
20
-4.78306
11
5.98753
21
-4.77993
0
LINE
8
BLACK
6
CONTINUOUS
10
5.98753
20
-4.77993
11
5.98439
21
-4.77568
0
LINE
8
BLACK
6
CONTINUOUS
10
5.98439
20
-4.77568
11
5.98265
21
-4.77069
0
LINE
8
BLACK
6
CONTINUOUS
10
5.98265
20
-4.77069
11
5.98234
21
-4.7674
0
LINE
8
BLACK
6
CONTINUOUS
10
5.98234
20
-4.7674
11
5.98234
21
-4.73787
0
LINE
8
BLACK
6
CONTINUOUS
10
5.98234
20
-4.73787
11
5.98265
21
-4.73458
0
LINE
8
BLACK
6
CONTINUOUS
10
5.98265
20
-4.73458
11
5.98439
21
-4.72959
0
LINE
8
BLACK
6
CONTINUOUS
10
5.98439
20
-4.72959
11
5.98753
21
-4.72534
0
LINE
8
BLACK
6
CONTINUOUS
10
5.98753
20
-4.72534
11
5.99177
21
-4.72221
0
LINE
8
BLACK
6
CONTINUOUS
10
5.99177
20
-4.72221
11
5.99676
21
-4.72046
0
LINE
8
BLACK
6
CONTINUOUS
10
5.99676
20
-4.72046
11
6.00005
21
-4.72015
0
LINE
8
BLACK
6
CONTINUOUS
10
6.00005
20
-4.72015
11
6.04927
21
-4.72015
0
LINE
8
BLACK
6
CONTINUOUS
10
6.04927
20
-4.72015
11
6.05256
21
-4.72046
0
LINE
8
BLACK
6
CONTINUOUS
10
6.24941
20
-4.72046
11
6.25439
21
-4.72221
0
LINE
8
BLACK
6
CONTINUOUS
10
6.25439
20
-4.72221
11
6.25864
21
-4.72534
0
LINE
8
BLACK
6
CONTINUOUS
10
6.25864
20
-4.72534
11
6.26178
21
-4.72959
0
LINE
8
BLACK
6
CONTINUOUS
10
6.26178
20
-4.72959
11
6.26352
21
-4.73458
0
LINE
8
BLACK
6
CONTINUOUS
10
6.26352
20
-4.73458
11
6.26383
21
-4.73787
0
LINE
8
BLACK
6
CONTINUOUS
10
6.26383
20
-4.73787
11
6.26383
21
-4.7674
0
LINE
8
BLACK
6
CONTINUOUS
10
6.26383
20
-4.7674
11
6.26352
21
-4.77069
0
LINE
8
BLACK
6
CONTINUOUS
10
6.26352
20
-4.77069
11
6.26178
21
-4.77568
0
LINE
8
BLACK
6
CONTINUOUS
10
6.26178
20
-4.77568
11
6.25864
21
-4.77993
0
LINE
8
BLACK
6
CONTINUOUS
10
6.25864
20
-4.77993
11
6.25439
21
-4.78306
0
LINE
8
BLACK
6
CONTINUOUS
10
6.25439
20
-4.78306
11
6.24941
21
-4.78481
0
LINE
8
BLACK
6
CONTINUOUS
10
6.24941
20
-4.78481
11
6.24612
21
-4.78512
0
LINE
8
BLACK
6
CONTINUOUS
10
6.24612
20
-4.78512
11
6.1969
21
-4.78512
0
LINE
8
BLACK
6
CONTINUOUS
10
6.1969
20
-4.78512
11
6.19361
21
-4.78481
0
LINE
8
BLACK
6
CONTINUOUS
10
6.19361
20
-4.78481
11
6.18862
21
-4.78306
0
LINE
8
BLACK
6
CONTINUOUS
10
6.18862
20
-4.78306
11
6.18438
21
-4.77993
0
LINE
8
BLACK
6
CONTINUOUS
10
6.18438
20
-4.77993
11
6.18124
21
-4.77568
0
LINE
8
BLACK
6
CONTINUOUS
10
6.18124
20
-4.77568
11
6.1795
21
-4.77069
0
LINE
8
BLACK
6
CONTINUOUS
10
6.1795
20
-4.77069
11
6.17919
21
-4.7674
0
LINE
8
BLACK
6
CONTINUOUS
10
6.17919
20
-4.7674
11
6.17919
21
-4.73787
0
LINE
8
BLACK
6
CONTINUOUS
10
6.17919
20
-4.73787
11
6.1795
21
-4.73458
0
LINE
8
BLACK
6
CONTINUOUS
10
6.1795
20
-4.73458
11
6.18124
21
-4.72959
0
LINE
8
BLACK
6
CONTINUOUS
10
6.18124
20
-4.72959
11
6.18438
21
-4.72534
0
LINE
8
BLACK
6
CONTINUOUS
10
6.18438
20
-4.72534
11
6.18862
21
-4.72221
0
LINE
8
BLACK
6
CONTINUOUS
10
6.18862
20
-4.72221
11
6.19361
21
-4.72046
0
LINE
8
BLACK
6
CONTINUOUS
10
6.19361
20
-4.72046
11
6.1969
21
-4.72015
0
LINE
8
BLACK
6
CONTINUOUS
10
6.1969
20
-4.72015
11
6.24612
21
-4.72015
0
LINE
8
BLACK
6
CONTINUOUS
10
6.24612
20
-4.72015
11
6.24941
21
-4.72046
0
LINE
8
BLACK
6
CONTINUOUS
10
6.44626
20
-4.72046
11
6.45124
21
-4.72221
0
LINE
8
BLACK
6
CONTINUOUS
10
6.45124
20
-4.72221
11
6.45549
21
-4.72534
0
LINE
8
BLACK
6
CONTINUOUS
10
6.45549
20
-4.72534
11
6.45863
21
-4.72959
0
LINE
8
BLACK
6
CONTINUOUS
10
6.45863
20
-4.72959
11
6.46037
21
-4.73458
0
LINE
8
BLACK
6
CONTINUOUS
10
6.46037
20
-4.73458
11
6.46068
21
-4.73787
0
LINE
8
BLACK
6
CONTINUOUS
10
6.46068
20
-4.73787
11
6.46068
21
-4.7674
0
LINE
8
BLACK
6
CONTINUOUS
10
6.46068
20
-4.7674
11
6.46037
21
-4.77069
0
LINE
8
BLACK
6
CONTINUOUS
10
6.46037
20
-4.77069
11
6.45863
21
-4.77568
0
LINE
8
BLACK
6
CONTINUOUS
10
6.45863
20
-4.77568
11
6.45549
21
-4.77993
0
LINE
8
BLACK
6
CONTINUOUS
10
6.45549
20
-4.77993
11
6.45124
21
-4.78306
0
LINE
8
BLACK
6
CONTINUOUS
10
6.45124
20
-4.78306
11
6.44626
21
-4.78481
0
LINE
8
BLACK
6
CONTINUOUS
10
6.44626
20
-4.78481
11
6.44297
21
-4.78512
0
LINE
8
BLACK
6
CONTINUOUS
10
6.44297
20
-4.78512
11
6.39375
21
-4.78512
0
LINE
8
BLACK
6
CONTINUOUS
10
6.39375
20
-4.78512
11
6.39046
21
-4.78481
0
LINE
8
BLACK
6
CONTINUOUS
10
6.39046
20
-4.78481
11
6.38548
21
-4.78306
0
LINE
8
BLACK
6
CONTINUOUS
10
6.38548
20
-4.78306
11
6.38123
21
-4.77993
0
LINE
8
BLACK
6
CONTINUOUS
10
6.38123
20
-4.77993
11
6.37809
21
-4.77568
0
LINE
8
BLACK
6
CONTINUOUS
10
6.37809
20
-4.77568
11
6.37635
21
-4.77069
0
LINE
8
BLACK
6
CONTINUOUS
10
6.37635
20
-4.77069
11
6.37604
21
-4.7674
0
LINE
8
BLACK
6
CONTINUOUS
10
6.37604
20
-4.7674
11
6.37604
21
-4.73787
0
LINE
8
BLACK
6
CONTINUOUS
10
6.37604
20
-4.73787
11
6.37635
21
-4.73458
0
LINE
8
BLACK
6
CONTINUOUS
10
6.37635
20
-4.73458
11
6.37809
21
-4.72959
0
LINE
8
BLACK
6
CONTINUOUS
10
6.37809
20
-4.72959
11
6.38123
21
-4.72534
0
LINE
8
BLACK
6
CONTINUOUS
10
6.38123
20
-4.72534
11
6.38548
21
-4.72221
0
LINE
8
BLACK
6
CONTINUOUS
10
6.38548
20
-4.72221
11
6.39046
21
-4.72046
0
LINE
8
BLACK
6
CONTINUOUS
10
6.39046
20
-4.72046
11
6.39375
21
-4.72015
0
LINE
8
BLACK
6
CONTINUOUS
10
6.39375
20
-4.72015
11
6.44297
21
-4.72015
0
LINE
8
BLACK
6
CONTINUOUS
10
6.44297
20
-4.72015
11
6.44626
21
-4.72046
0
LINE
8
BLACK
6
CONTINUOUS
10
6.64311
20
-4.72046
11
6.64809
21
-4.72221
0
LINE
8
BLACK
6
CONTINUOUS
10
6.64809
20
-4.72221
11
6.65234
21
-4.72534
0
LINE
8
BLACK
6
CONTINUOUS
10
6.65234
20
-4.72534
11
6.65548
21
-4.72959
0
LINE
8
BLACK
6
CONTINUOUS
10
6.65548
20
-4.72959
11
6.65722
21
-4.73458
0
LINE
8
BLACK
6
CONTINUOUS
10
6.65722
20
-4.73458
11
6.65753
21
-4.73787
0
LINE
8
BLACK
6
CONTINUOUS
10
6.65753
20
-4.73787
11
6.65753
21
-4.7674
0
LINE
8
BLACK
6
CONTINUOUS
10
6.65753
20
-4.7674
11
6.65722
21
-4.77069
0
LINE
8
BLACK
6
CONTINUOUS
10
6.65722
20
-4.77069
11
6.65548
21
-4.77568
0
LINE
8
BLACK
6
CONTINUOUS
10
6.65548
20
-4.77568
11
6.65234
21
-4.77993
0
LINE
8
BLACK
6
CONTINUOUS
10
6.65234
20
-4.77993
11
6.64809
21
-4.78306
0
LINE
8
BLACK
6
CONTINUOUS
10
6.64809
20
-4.78306
11
6.64311
21
-4.78481
0
LINE
8
BLACK
6
CONTINUOUS
10
6.64311
20
-4.78481
11
6.63982
21
-4.78512
0
LINE
8
BLACK
6
CONTINUOUS
10
6.63982
20
-4.78512
11
6.5906
21
-4.78512
0
LINE
8
BLACK
6
CONTINUOUS
10
6.5906
20
-4.78512
11
6.58731
21
-4.78481
0
LINE
8
BLACK
6
CONTINUOUS
10
6.58731
20
-4.78481
11
6.58233
21
-4.78306
0
LINE
8
BLACK
6
CONTINUOUS
10
6.58233
20
-4.78306
11
6.57808
21
-4.77993
0
LINE
8
BLACK
6
CONTINUOUS
10
6.57808
20
-4.77993
11
6.57494
21
-4.77568
0
LINE
8
BLACK
6
CONTINUOUS
10
6.57494
20
-4.77568
11
6.5732
21
-4.77069
0
LINE
8
BLACK
6
CONTINUOUS
10
6.5732
20
-4.77069
11
6.57289
21
-4.7674
0
LINE
8
BLACK
6
CONTINUOUS
10
6.57289
20
-4.7674
11
6.57289
21
-4.73787
0
LINE
8
BLACK
6
CONTINUOUS
10
6.57289
20
-4.73787
11
6.5732
21
-4.73458
0
LINE
8
BLACK
6
CONTINUOUS
10
6.5732
20
-4.73458
11
6.57494
21
-4.72959
0
LINE
8
BLACK
6
CONTINUOUS
10
6.57494
20
-4.72959
11
6.57808
21
-4.72534
0
LINE
8
BLACK
6
CONTINUOUS
10
6.57808
20
-4.72534
11
6.58233
21
-4.72221
0
LINE
8
BLACK
6
CONTINUOUS
10
6.58233
20
-4.72221
11
6.58731
21
-4.72046
0
LINE
8
BLACK
6
CONTINUOUS
10
6.58731
20
-4.72046
11
6.5906
21
-4.72015
0
LINE
8
BLACK
6
CONTINUOUS
10
6.5906
20
-4.72015
11
6.63982
21
-4.72015
0
LINE
8
BLACK
6
CONTINUOUS
10
6.63982
20
-4.72015
11
6.64311
21
-4.72046
0
LINE
8
BLACK
6
CONTINUOUS
10
7.22914
20
-4.72588
11
7.23413
21
-4.72794
0
LINE
8
BLACK
6
CONTINUOUS
10
7.23413
20
-4.72794
11
7.23841
21
-4.73123
0
LINE
8
BLACK
6
CONTINUOUS
10
7.23841
20
-4.73123
11
7.24169
21
-4.73551
0
LINE
8
BLACK
6
CONTINUOUS
10
7.24169
20
-4.73551
11
7.24376
21
-4.74049
0
LINE
8
BLACK
6
CONTINUOUS
10
7.24376
20
-4.74049
11
7.24446
21
-4.74584
0
LINE
8
BLACK
6
CONTINUOUS
10
7.24446
20
-4.74584
11
7.24376
21
-4.75119
0
LINE
8
BLACK
6
CONTINUOUS
10
7.24376
20
-4.75119
11
7.24169
21
-4.75618
0
LINE
8
BLACK
6
CONTINUOUS
10
7.24169
20
-4.75618
11
7.23841
21
-4.76046
0
LINE
8
BLACK
6
CONTINUOUS
10
7.23841
20
-4.76046
11
7.23413
21
-4.76374
0
LINE
8
BLACK
6
CONTINUOUS
10
7.23413
20
-4.76374
11
7.22914
21
-4.76581
0
LINE
8
BLACK
6
CONTINUOUS
10
7.22914
20
-4.76581
11
7.22379
21
-4.76651
0
LINE
8
BLACK
6
CONTINUOUS
10
7.22379
20
-4.76651
11
7.21844
21
-4.76581
0
LINE
8
BLACK
6
CONTINUOUS
10
7.21844
20
-4.76581
11
7.21346
21
-4.76374
0
LINE
8
BLACK
6
CONTINUOUS
10
7.21346
20
-4.76374
11
7.20918
21
-4.76046
0
LINE
8
BLACK
6
CONTINUOUS
10
7.20918
20
-4.76046
11
7.20589
21
-4.75618
0
LINE
8
BLACK
6
CONTINUOUS
10
7.20589
20
-4.75618
11
7.20383
21
-4.75119
0
LINE
8
BLACK
6
CONTINUOUS
10
7.20383
20
-4.75119
11
7.20312
21
-4.74584
0
LINE
8
BLACK
6
CONTINUOUS
10
7.20312
20
-4.74584
11
7.20383
21
-4.74049
0
LINE
8
BLACK
6
CONTINUOUS
10
7.20383
20
-4.74049
11
7.20589
21
-4.73551
0
LINE
8
BLACK
6
CONTINUOUS
10
7.20589
20
-4.73551
11
7.20918
21
-4.73123
0
LINE
8
BLACK
6
CONTINUOUS
10
7.20918
20
-4.73123
11
7.21346
21
-4.72794
0
LINE
8
BLACK
6
CONTINUOUS
10
7.21346
20
-4.72794
11
7.21844
21
-4.72588
0
LINE
8
BLACK
6
CONTINUOUS
10
7.21844
20
-4.72588
11
7.22379
21
-4.72517
0
LINE
8
BLACK
6
CONTINUOUS
10
7.22379
20
-4.72517
11
7.22914
21
-4.72588
0
LINE
8
BLACK
6
CONTINUOUS
10
5.85571
20
-4.61023
11
5.86069
21
-4.61197
0
LINE
8
BLACK
6
CONTINUOUS
10
5.86069
20
-4.61197
11
5.86494
21
-4.61511
0
LINE
8
BLACK
6
CONTINUOUS
10
5.86494
20
-4.61511
11
5.86808
21
-4.61936
0
LINE
8
BLACK
6
CONTINUOUS
10
5.86808
20
-4.61936
11
5.86982
21
-4.62434
0
LINE
8
BLACK
6
CONTINUOUS
10
5.86982
20
-4.62434
11
5.87013
21
-4.62763
0
LINE
8
BLACK
6
CONTINUOUS
10
5.87013
20
-4.62763
11
5.87013
21
-4.65716
0
LINE
8
BLACK
6
CONTINUOUS
10
5.87013
20
-4.65716
11
5.86982
21
-4.66046
0
LINE
8
BLACK
6
CONTINUOUS
10
5.86982
20
-4.66046
11
5.86808
21
-4.66544
0
LINE
8
BLACK
6
CONTINUOUS
10
5.86808
20
-4.66544
11
5.86494
21
-4.66969
0
LINE
8
BLACK
6
CONTINUOUS
10
5.86494
20
-4.66969
11
5.86069
21
-4.67283
0
LINE
8
BLACK
6
CONTINUOUS
10
5.86069
20
-4.67283
11
5.85571
21
-4.67457
0
LINE
8
BLACK
6
CONTINUOUS
10
5.85571
20
-4.67457
11
5.85241
21
-4.67488
0
LINE
8
BLACK
6
CONTINUOUS
10
5.85241
20
-4.67488
11
5.8032
21
-4.67488
0
LINE
8
BLACK
6
CONTINUOUS
10
5.8032
20
-4.67488
11
5.79991
21
-4.67457
0
LINE
8
BLACK
6
CONTINUOUS
10
5.79991
20
-4.67457
11
5.79492
21
-4.67283
0
LINE
8
BLACK
6
CONTINUOUS
10
5.79492
20
-4.67283
11
5.79067
21
-4.66969
0
LINE
8
BLACK
6
CONTINUOUS
10
5.79067
20
-4.66969
11
5.78754
21
-4.66544
0
LINE
8
BLACK
6
CONTINUOUS
10
5.78754
20
-4.66544
11
5.78579
21
-4.66046
0
LINE
8
BLACK
6
CONTINUOUS
10
5.78579
20
-4.66046
11
5.78549
21
-4.65716
0
LINE
8
BLACK
6
CONTINUOUS
10
5.78549
20
-4.65716
11
5.78549
21
-4.62763
0
LINE
8
BLACK
6
CONTINUOUS
10
5.78549
20
-4.62763
11
5.78579
21
-4.62434
0
LINE
8
BLACK
6
CONTINUOUS
10
5.78579
20
-4.62434
11
5.78754
21
-4.61936
0
LINE
8
BLACK
6
CONTINUOUS
10
5.78754
20
-4.61936
11
5.79067
21
-4.61511
0
LINE
8
BLACK
6
CONTINUOUS
10
5.79067
20
-4.61511
11
5.79492
21
-4.61197
0
LINE
8
BLACK
6
CONTINUOUS
10
5.79492
20
-4.61197
11
5.79991
21
-4.61023
0
LINE
8
BLACK
6
CONTINUOUS
10
5.79991
20
-4.61023
11
5.8032
21
-4.60992
0
LINE
8
BLACK
6
CONTINUOUS
10
5.8032
20
-4.60992
11
5.85241
21
-4.60992
0
LINE
8
BLACK
6
CONTINUOUS
10
5.85241
20
-4.60992
11
5.85571
21
-4.61023
0
LINE
8
BLACK
6
CONTINUOUS
10
6.05256
20
-4.61023
11
6.05754
21
-4.61197
0
LINE
8
BLACK
6
CONTINUOUS
10
6.05754
20
-4.61197
11
6.06179
21
-4.61511
0
LINE
8
BLACK
6
CONTINUOUS
10
6.06179
20
-4.61511
11
6.06493
21
-4.61936
0
LINE
8
BLACK
6
CONTINUOUS
10
6.06493
20
-4.61936
11
6.06667
21
-4.62434
0
LINE
8
BLACK
6
CONTINUOUS
10
6.06667
20
-4.62434
11
6.06698
21
-4.62763
0
LINE
8
BLACK
6
CONTINUOUS
10
6.06698
20
-4.62763
11
6.06698
21
-4.65716
0
LINE
8
BLACK
6
CONTINUOUS
10
6.06698
20
-4.65716
11
6.06667
21
-4.66046
0
LINE
8
BLACK
6
CONTINUOUS
10
6.06667
20
-4.66046
11
6.06493
21
-4.66544
0
LINE
8
BLACK
6
CONTINUOUS
10
6.06493
20
-4.66544
11
6.06179
21
-4.66969
0
LINE
8
BLACK
6
CONTINUOUS
10
6.06179
20
-4.66969
11
6.05754
21
-4.67283
0
LINE
8
BLACK
6
CONTINUOUS
10
6.05754
20
-4.67283
11
6.05256
21
-4.67457
0
LINE
8
BLACK
6
CONTINUOUS
10
6.05256
20
-4.67457
11
6.04927
21
-4.67488
0
LINE
8
BLACK
6
CONTINUOUS
10
6.04927
20
-4.67488
11
6.00005
21
-4.67488
0
LINE
8
BLACK
6
CONTINUOUS
10
6.00005
20
-4.67488
11
5.99676
21
-4.67457
0
LINE
8
BLACK
6
CONTINUOUS
10
5.99676
20
-4.67457
11
5.99177
21
-4.67283
0
LINE
8
BLACK
6
CONTINUOUS
10
5.99177
20
-4.67283
11
5.98753
21
-4.66969
0
LINE
8
BLACK
6
CONTINUOUS
10
5.98753
20
-4.66969
11
5.98439
21
-4.66544
0
LINE
8
BLACK
6
CONTINUOUS
10
5.98439
20
-4.66544
11
5.98265
21
-4.66046
0
LINE
8
BLACK
6
CONTINUOUS
10
5.98265
20
-4.66046
11
5.98234
21
-4.65716
0
LINE
8
BLACK
6
CONTINUOUS
10
5.98234
20
-4.65716
11
5.98234
21
-4.62763
0
LINE
8
BLACK
6
CONTINUOUS
10
5.98234
20
-4.62763
11
5.98265
21
-4.62434
0
LINE
8
BLACK
6
CONTINUOUS
10
5.98265
20
-4.62434
11
5.98439
21
-4.61936
0
LINE
8
BLACK
6
CONTINUOUS
10
5.98439
20
-4.61936
11
5.98753
21
-4.61511
0
LINE
8
BLACK
6
CONTINUOUS
10
5.98753
20
-4.61511
11
5.99177
21
-4.61197
0
LINE
8
BLACK
6
CONTINUOUS
10
5.99177
20
-4.61197
11
5.99676
21
-4.61023
0
LINE
8
BLACK
6
CONTINUOUS
10
5.99676
20
-4.61023
11
6.00005
21
-4.60992
0
LINE
8
BLACK
6
CONTINUOUS
10
6.00005
20
-4.60992
11
6.04927
21
-4.60992
0
LINE
8
BLACK
6
CONTINUOUS
10
6.04927
20
-4.60992
11
6.05256
21
-4.61023
0
LINE
8
BLACK
6
CONTINUOUS
10
6.24941
20
-4.61023
11
6.25439
21
-4.61197
0
LINE
8
BLACK
6
CONTINUOUS
10
6.25439
20
-4.61197
11
6.25864
21
-4.61511
0
LINE
8
BLACK
6
CONTINUOUS
10
6.25864
20
-4.61511
11
6.26178
21
-4.61936
0
LINE
8
BLACK
6
CONTINUOUS
10
6.26178
20
-4.61936
11
6.26352
21
-4.62434
0
LINE
8
BLACK
6
CONTINUOUS
10
6.26352
20
-4.62434
11
6.26383
21
-4.62763
0
LINE
8
BLACK
6
CONTINUOUS
10
6.26383
20
-4.62763
11
6.26383
21
-4.65716
0
LINE
8
BLACK
6
CONTINUOUS
10
6.26383
20
-4.65716
11
6.26352
21
-4.66046
0
LINE
8
BLACK
6
CONTINUOUS
10
6.26352
20
-4.66046
11
6.26178
21
-4.66544
0
LINE
8
BLACK
6
CONTINUOUS
10
6.26178
20
-4.66544
11
6.25864
21
-4.66969
0
LINE
8
BLACK
6
CONTINUOUS
10
6.25864
20
-4.66969
11
6.25439
21
-4.67283
0
LINE
8
BLACK
6
CONTINUOUS
10
6.25439
20
-4.67283
11
6.24941
21
-4.67457
0
LINE
8
BLACK
6
CONTINUOUS
10
6.24941
20
-4.67457
11
6.24612
21
-4.67488
0
LINE
8
BLACK
6
CONTINUOUS
10
6.24612
20
-4.67488
11
6.1969
21
-4.67488
0
LINE
8
BLACK
6
CONTINUOUS
10
6.1969
20
-4.67488
11
6.19361
21
-4.67457
0
LINE
8
BLACK
6
CONTINUOUS
10
6.19361
20
-4.67457
11
6.18862
21
-4.67283
0
LINE
8
BLACK
6
CONTINUOUS
10
6.18862
20
-4.67283
11
6.18438
21
-4.66969
0
LINE
8
BLACK
6
CONTINUOUS
10
6.18438
20
-4.66969
11
6.18124
21
-4.66544
0
LINE
8
BLACK
6
CONTINUOUS
10
6.18124
20
-4.66544
11
6.1795
21
-4.66046
0
LINE
8
BLACK
6
CONTINUOUS
10
6.1795
20
-4.66046
11
6.17919
21
-4.65716
0
LINE
8
BLACK
6
CONTINUOUS
10
6.17919
20
-4.65716
11
6.17919
21
-4.62763
0
LINE
8
BLACK
6
CONTINUOUS
10
6.17919
20
-4.62763
11
6.1795
21
-4.62434
0
LINE
8
BLACK
6
CONTINUOUS
10
6.1795
20
-4.62434
11
6.18124
21
-4.61936
0
LINE
8
BLACK
6
CONTINUOUS
10
6.18124
20
-4.61936
11
6.18438
21
-4.61511
0
LINE
8
BLACK
6
CONTINUOUS
10
6.18438
20
-4.61511
11
6.18862
21
-4.61197
0
LINE
8
BLACK
6
CONTINUOUS
10
6.18862
20
-4.61197
11
6.19361
21
-4.61023
0
LINE
8
BLACK
6
CONTINUOUS
10
6.19361
20
-4.61023
11
6.1969
21
-4.60992
0
LINE
8
BLACK
6
CONTINUOUS
10
6.1969
20
-4.60992
11
6.24612
21
-4.60992
0
LINE
8
BLACK
6
CONTINUOUS
10
6.24612
20
-4.60992
11
6.24941
21
-4.61023
0
LINE
8
BLACK
6
CONTINUOUS
10
6.44626
20
-4.61023
11
6.45124
21
-4.61197
0
LINE
8
BLACK
6
CONTINUOUS
10
6.45124
20
-4.61197
11
6.45549
21
-4.61511
0
LINE
8
BLACK
6
CONTINUOUS
10
6.45549
20
-4.61511
11
6.45863
21
-4.61936
0
LINE
8
BLACK
6
CONTINUOUS
10
6.45863
20
-4.61936
11
6.46037
21
-4.62434
0
LINE
8
BLACK
6
CONTINUOUS
10
6.46037
20
-4.62434
11
6.46068
21
-4.62763
0
LINE
8
BLACK
6
CONTINUOUS
10
6.46068
20
-4.62763
11
6.46068
21
-4.65716
0
LINE
8
BLACK
6
CONTINUOUS
10
6.46068
20
-4.65716
11
6.46037
21
-4.66046
0
LINE
8
BLACK
6
CONTINUOUS
10
6.46037
20
-4.66046
11
6.45863
21
-4.66544
0
LINE
8
BLACK
6
CONTINUOUS
10
6.45863
20
-4.66544
11
6.45549
21
-4.66969
0
LINE
8
BLACK
6
CONTINUOUS
10
6.45549
20
-4.66969
11
6.45124
21
-4.67283
0
LINE
8
BLACK
6
CONTINUOUS
10
6.45124
20
-4.67283
11
6.44626
21
-4.67457
0
LINE
8
BLACK
6
CONTINUOUS
10
6.44626
20
-4.67457
11
6.44297
21
-4.67488
0
LINE
8
BLACK
6
CONTINUOUS
10
6.44297
20
-4.67488
11
6.39375
21
-4.67488
0
LINE
8
BLACK
6
CONTINUOUS
10
6.39375
20
-4.67488
11
6.39046
21
-4.67457
0
LINE
8
BLACK
6
CONTINUOUS
10
6.39046
20
-4.67457
11
6.38548
21
-4.67283
0
LINE
8
BLACK
6
CONTINUOUS
10
6.38548
20
-4.67283
11
6.38123
21
-4.66969
0
LINE
8
BLACK
6
CONTINUOUS
10
6.38123
20
-4.66969
11
6.37809
21
-4.66544
0
LINE
8
BLACK
6
CONTINUOUS
10
6.37809
20
-4.66544
11
6.37635
21
-4.66046
0
LINE
8
BLACK
6
CONTINUOUS
10
6.37635
20
-4.66046
11
6.37604
21
-4.65716
0
LINE
8
BLACK
6
CONTINUOUS
10
6.37604
20
-4.65716
11
6.37604
21
-4.62763
0
LINE
8
BLACK
6
CONTINUOUS
10
6.37604
20
-4.62763
11
6.37635
21
-4.62434
0
LINE
8
BLACK
6
CONTINUOUS
10
6.37635
20
-4.62434
11
6.37809
21
-4.61936
0
LINE
8
BLACK
6
CONTINUOUS
10
6.37809
20
-4.61936
11
6.38123
21
-4.61511
0
LINE
8
BLACK
6
CONTINUOUS
10
6.38123
20
-4.61511
11
6.38548
21
-4.61197
0
LINE
8
BLACK
6
CONTINUOUS
10
6.38548
20
-4.61197
11
6.39046
21
-4.61023
0
LINE
8
BLACK
6
CONTINUOUS
10
6.39046
20
-4.61023
11
6.39375
21
-4.60992
0
LINE
8
BLACK
6
CONTINUOUS
10
6.39375
20
-4.60992
11
6.44297
21
-4.60992
0
LINE
8
BLACK
6
CONTINUOUS
10
6.44297
20
-4.60992
11
6.44626
21
-4.61023
0
LINE
8
BLACK
6
CONTINUOUS
10
6.64311
20
-4.61023
11
6.64809
21
-4.61197
0
LINE
8
BLACK
6
CONTINUOUS
10
6.64809
20
-4.61197
11
6.65234
21
-4.61511
0
LINE
8
BLACK
6
CONTINUOUS
10
6.65234
20
-4.61511
11
6.65548
21
-4.61936
0
LINE
8
BLACK
6
CONTINUOUS
10
6.65548
20
-4.61936
11
6.65722
21
-4.62434
0
LINE
8
BLACK
6
CONTINUOUS
10
6.65722
20
-4.62434
11
6.65753
21
-4.62763
0
LINE
8
BLACK
6
CONTINUOUS
10
6.65753
20
-4.62763
11
6.65753
21
-4.65716
0
LINE
8
BLACK
6
CONTINUOUS
10
6.65753
20
-4.65716
11
6.65722
21
-4.66046
0
LINE
8
BLACK
6
CONTINUOUS
10
6.65722
20
-4.66046
11
6.65548
21
-4.66544
0
LINE
8
BLACK
6
CONTINUOUS
10
6.65548
20
-4.66544
11
6.65234
21
-4.66969
0
LINE
8
BLACK
6
CONTINUOUS
10
6.65234
20
-4.66969
11
6.64809
21
-4.67283
0
LINE
8
BLACK
6
CONTINUOUS
10
6.64809
20
-4.67283
11
6.64311
21
-4.67457
0
LINE
8
BLACK
6
CONTINUOUS
10
6.64311
20
-4.67457
11
6.63982
21
-4.67488
0
LINE
8
BLACK
6
CONTINUOUS
10
6.63982
20
-4.67488
11
6.5906
21
-4.67488
0
LINE
8
BLACK
6
CONTINUOUS
10
6.5906
20
-4.67488
11
6.58731
21
-4.67457
0
LINE
8
BLACK
6
CONTINUOUS
10
6.58731
20
-4.67457
11
6.58233
21
-4.67283
0
LINE
8
BLACK
6
CONTINUOUS
10
6.58233
20
-4.67283
11
6.57808
21
-4.66969
0
LINE
8
BLACK
6
CONTINUOUS
10
6.57808
20
-4.66969
11
6.57494
21
-4.66544
0
LINE
8
BLACK
6
CONTINUOUS
10
6.57494
20
-4.66544
11
6.5732
21
-4.66046
0
LINE
8
BLACK
6
CONTINUOUS
10
6.5732
20
-4.66046
11
6.57289
21
-4.65716
0
LINE
8
BLACK
6
CONTINUOUS
10
6.57289
20
-4.65716
11
6.57289
21
-4.62763
0
LINE
8
BLACK
6
CONTINUOUS
10
6.57289
20
-4.62763
11
6.5732
21
-4.62434
0
LINE
8
BLACK
6
CONTINUOUS
10
6.5732
20
-4.62434
11
6.57494
21
-4.61936
0
LINE
8
BLACK
6
CONTINUOUS
10
6.57494
20
-4.61936
11
6.57808
21
-4.61511
0
LINE
8
BLACK
6
CONTINUOUS
10
6.57808
20
-4.61511
11
6.58233
21
-4.61197
0
LINE
8
BLACK
6
CONTINUOUS
10
6.58233
20
-4.61197
11
6.58731
21
-4.61023
0
LINE
8
BLACK
6
CONTINUOUS
10
6.58731
20
-4.61023
11
6.5906
21
-4.60992
0
LINE
8
BLACK
6
CONTINUOUS
10
6.5906
20
-4.60992
11
6.63982
21
-4.60992
0
LINE
8
BLACK
6
CONTINUOUS
10
6.63982
20
-4.60992
11
6.64311
21
-4.61023
0
LINE
8
BLACK
6
CONTINUOUS
10
7.22914
20
-4.49832
11
7.23413
21
-4.50038
0
LINE
8
BLACK
6
CONTINUOUS
10
7.23413
20
-4.50038
11
7.23841
21
-4.50367
0
LINE
8
BLACK
6
CONTINUOUS
10
7.23841
20
-4.50367
11
7.24169
21
-4.50795
0
LINE
8
BLACK
6
CONTINUOUS
10
7.24169
20
-4.50795
11
7.24376
21
-4.51293
0
LINE
8
BLACK
6
CONTINUOUS
10
7.24376
20
-4.51293
11
7.24446
21
-4.51828
0
LINE
8
BLACK
6
CONTINUOUS
10
7.24446
20
-4.51828
11
7.24376
21
-4.52363
0
LINE
8
BLACK
6
CONTINUOUS
10
7.24376
20
-4.52363
11
7.24169
21
-4.52862
0
LINE
8
BLACK
6
CONTINUOUS
10
7.24169
20
-4.52862
11
7.23841
21
-4.5329
0
LINE
8
BLACK
6
CONTINUOUS
10
7.23841
20
-4.5329
11
7.23413
21
-4.53618
0
LINE
8
BLACK
6
CONTINUOUS
10
7.23413
20
-4.53618
11
7.22914
21
-4.53825
0
LINE
8
BLACK
6
CONTINUOUS
10
7.22914
20
-4.53825
11
7.22379
21
-4.53895
0
LINE
8
BLACK
6
CONTINUOUS
10
7.22379
20
-4.53895
11
7.21844
21
-4.53825
0
LINE
8
BLACK
6
CONTINUOUS
10
7.21844
20
-4.53825
11
7.21346
21
-4.53618
0
LINE
8
BLACK
6
CONTINUOUS
10
7.21346
20
-4.53618
11
7.20918
21
-4.5329
0
LINE
8
BLACK
6
CONTINUOUS
10
7.20918
20
-4.5329
11
7.20589
21
-4.52862
0
LINE
8
BLACK
6
CONTINUOUS
10
7.20589
20
-4.52862
11
7.20383
21
-4.52363
0
LINE
8
BLACK
6
CONTINUOUS
10
7.20383
20
-4.52363
11
7.20312
21
-4.51828
0
LINE
8
BLACK
6
CONTINUOUS
10
7.20312
20
-4.51828
11
7.20383
21
-4.51293
0
LINE
8
BLACK
6
CONTINUOUS
10
7.20383
20
-4.51293
11
7.20589
21
-4.50795
0
LINE
8
BLACK
6
CONTINUOUS
10
7.20589
20
-4.50795
11
7.20918
21
-4.50367
0
LINE
8
BLACK
6
CONTINUOUS
10
7.20918
20
-4.50367
11
7.21346
21
-4.50038
0
LINE
8
BLACK
6
CONTINUOUS
10
7.21346
20
-4.50038
11
7.21844
21
-4.49832
0
LINE
8
BLACK
6
CONTINUOUS
10
7.21844
20
-4.49832
11
7.22379
21
-4.49762
0
LINE
8
BLACK
6
CONTINUOUS
10
7.22379
20
-4.49762
11
7.22914
21
-4.49832
0
LINE
8
BLACK
6
CONTINUOUS
10
6.28736
20
-4.38729
11
6.28991
21
-4.389
0
LINE
8
BLACK
6
CONTINUOUS
10
6.28991
20
-4.389
11
6.29162
21
-4.39155
0
LINE
8
BLACK
6
CONTINUOUS
10
6.29162
20
-4.39155
11
6.29222
21
-4.39456
0
LINE
8
BLACK
6
CONTINUOUS
10
6.29222
20
-4.39456
11
6.29222
21
-4.49299
0
LINE
8
BLACK
6
CONTINUOUS
10
6.29222
20
-4.49299
11
6.29162
21
-4.496
0
LINE
8
BLACK
6
CONTINUOUS
10
6.29162
20
-4.496
11
6.28991
21
-4.49856
0
LINE
8
BLACK
6
CONTINUOUS
10
6.28991
20
-4.49856
11
6.28736
21
-4.50026
0
LINE
8
BLACK
6
CONTINUOUS
10
6.28736
20
-4.50026
11
6.28434
21
-4.50086
0
LINE
8
BLACK
6
CONTINUOUS
10
6.28434
20
-4.50086
11
6.08749
21
-4.50086
0
LINE
8
BLACK
6
CONTINUOUS
10
6.08749
20
-4.50086
11
6.08448
21
-4.50026
0
LINE
8
BLACK
6
CONTINUOUS
10
6.08448
20
-4.50026
11
6.08193
21
-4.49856
0
LINE
8
BLACK
6
CONTINUOUS
10
6.08193
20
-4.49856
11
6.08022
21
-4.496
0
LINE
8
BLACK
6
CONTINUOUS
10
6.08022
20
-4.496
11
6.07962
21
-4.49299
0
LINE
8
BLACK
6
CONTINUOUS
10
6.07962
20
-4.49299
11
6.07962
21
-4.39456
0
LINE
8
BLACK
6
CONTINUOUS
10
6.07962
20
-4.39456
11
6.08022
21
-4.39155
0
LINE
8
BLACK
6
CONTINUOUS
10
6.08022
20
-4.39155
11
6.08193
21
-4.389
0
LINE
8
BLACK
6
CONTINUOUS
10
6.08193
20
-4.389
11
6.08448
21
-4.38729
0
LINE
8
BLACK
6
CONTINUOUS
10
6.08448
20
-4.38729
11
6.08749
21
-4.38669
0
LINE
8
BLACK
6
CONTINUOUS
10
6.08749
20
-4.38669
11
6.28434
21
-4.38669
0
LINE
8
BLACK
6
CONTINUOUS
10
6.28434
20
-4.38669
11
6.28736
21
-4.38729
0
LINE
8
BLACK
6
CONTINUOUS
10
7.47633
20
-4.38729
11
7.47889
21
-4.389
0
LINE
8
BLACK
6
CONTINUOUS
10
7.47889
20
-4.389
11
7.4806
21
-4.39155
0
LINE
8
BLACK
6
CONTINUOUS
10
7.4806
20
-4.39155
11
7.48119
21
-4.39456
0
LINE
8
BLACK
6
CONTINUOUS
10
7.48119
20
-4.39456
11
7.48119
21
-4.49299
0
LINE
8
BLACK
6
CONTINUOUS
10
7.48119
20
-4.49299
11
7.4806
21
-4.496
0
LINE
8
BLACK
6
CONTINUOUS
10
7.4806
20
-4.496
11
7.47889
21
-4.49856
0
LINE
8
BLACK
6
CONTINUOUS
10
7.47889
20
-4.49856
11
7.47633
21
-4.50026
0
LINE
8
BLACK
6
CONTINUOUS
10
7.47633
20
-4.50026
11
7.47332
21
-4.50086
0
LINE
8
BLACK
6
CONTINUOUS
10
7.47332
20
-4.50086
11
7.27647
21
-4.50086
0
LINE
8
BLACK
6
CONTINUOUS
10
7.27647
20
-4.50086
11
7.27346
21
-4.50026
0
LINE
8
BLACK
6
CONTINUOUS
10
7.27346
20
-4.50026
11
7.2709
21
-4.49856
0
LINE
8
BLACK
6
CONTINUOUS
10
7.2709
20
-4.49856
11
7.2692
21
-4.496
0
LINE
8
BLACK
6
CONTINUOUS
10
7.2692
20
-4.496
11
7.2686
21
-4.49299
0
LINE
8
BLACK
6
CONTINUOUS
10
7.2686
20
-4.49299
11
7.2686
21
-4.39456
0
LINE
8
BLACK
6
CONTINUOUS
10
7.2686
20
-4.39456
11
7.2692
21
-4.39155
0
LINE
8
BLACK
6
CONTINUOUS
10
7.2692
20
-4.39155
11
7.2709
21
-4.389
0
LINE
8
BLACK
6
CONTINUOUS
10
7.2709
20
-4.389
11
7.27346
21
-4.38729
0
LINE
8
BLACK
6
CONTINUOUS
10
7.27346
20
-4.38729
11
7.27647
21
-4.38669
0
LINE
8
BLACK
6
CONTINUOUS
10
7.27647
20
-4.38669
11
7.47332
21
-4.38669
0
LINE
8
BLACK
6
CONTINUOUS
10
7.47332
20
-4.38669
11
7.47633
21
-4.38729
0
LINE
8
BLACK
6
CONTINUOUS
10
7.22809
20
-4.43363
11
7.23454
21
-4.43516
0
LINE
8
BLACK
6
CONTINUOUS
10
7.23454
20
-4.43516
11
7.24046
21
-4.43814
0
LINE
8
BLACK
6
CONTINUOUS
10
7.24046
20
-4.43814
11
7.24554
21
-4.4424
0
LINE
8
BLACK
6
CONTINUOUS
10
7.24554
20
-4.4424
11
7.2495
21
-4.44771
0
LINE
8
BLACK
6
CONTINUOUS
10
7.2495
20
-4.44771
11
7.25212
21
-4.4538
0
LINE
8
BLACK
6
CONTINUOUS
10
7.25212
20
-4.4538
11
7.25327
21
-4.46033
0
LINE
8
BLACK
6
CONTINUOUS
10
7.25327
20
-4.46033
11
7.25289
21
-4.46694
0
LINE
8
BLACK
6
CONTINUOUS
10
7.25289
20
-4.46694
11
7.25099
21
-4.47329
0
LINE
8
BLACK
6
CONTINUOUS
10
7.25099
20
-4.47329
11
7.24767
21
-4.47903
0
LINE
8
BLACK
6
CONTINUOUS
10
7.24767
20
-4.47903
11
7.24312
21
-4.48385
0
LINE
8
BLACK
6
CONTINUOUS
10
7.24312
20
-4.48385
11
7.23759
21
-4.48749
0
LINE
8
BLACK
6
CONTINUOUS
10
7.23759
20
-4.48749
11
7.23136
21
-4.48976
0
LINE
8
BLACK
6
CONTINUOUS
10
7.23136
20
-4.48976
11
7.22478
21
-4.49053
0
LINE
8
BLACK
6
CONTINUOUS
10
7.22478
20
-4.49053
11
7.18344
21
-4.49053
0
LINE
8
BLACK
6
CONTINUOUS
10
7.18344
20
-4.49053
11
7.18012
21
-4.49034
0
LINE
8
BLACK
6
CONTINUOUS
10
7.18012
20
-4.49034
11
7.17368
21
-4.48881
0
LINE
8
BLACK
6
CONTINUOUS
10
7.17368
20
-4.48881
11
7.16775
21
-4.48583
0
LINE
8
BLACK
6
CONTINUOUS
10
7.16775
20
-4.48583
11
7.16268
21
-4.48157
0
LINE
8
BLACK
6
CONTINUOUS
10
7.16268
20
-4.48157
11
7.15872
21
-4.47626
0
LINE
8
BLACK
6
CONTINUOUS
10
7.15872
20
-4.47626
11
7.15609
21
-4.47017
0
LINE
8
BLACK
6
CONTINUOUS
10
7.15609
20
-4.47017
11
7.15494
21
-4.46364
0
LINE
8
BLACK
6
CONTINUOUS
10
7.15494
20
-4.46364
11
7.15533
21
-4.45703
0
LINE
8
BLACK
6
CONTINUOUS
10
7.15533
20
-4.45703
11
7.15723
21
-4.45068
0
LINE
8
BLACK
6
CONTINUOUS
10
7.15723
20
-4.45068
11
7.16054
21
-4.44494
0
LINE
8
BLACK
6
CONTINUOUS
10
7.16054
20
-4.44494
11
7.16509
21
-4.44012
0
LINE
8
BLACK
6
CONTINUOUS
10
7.16509
20
-4.44012
11
7.17063
21
-4.43648
0
LINE
8
BLACK
6
CONTINUOUS
10
7.17063
20
-4.43648
11
7.17686
21
-4.43421
0
LINE
8
BLACK
6
CONTINUOUS
10
7.17686
20
-4.43421
11
7.18344
21
-4.43344
0
LINE
8
BLACK
6
CONTINUOUS
10
7.18344
20
-4.43344
11
7.22478
21
-4.43344
0
LINE
8
BLACK
6
CONTINUOUS
10
7.22478
20
-4.43344
11
7.22809
21
-4.43363
0
LINE
8
BLACK
6
CONTINUOUS
10
6.08263
20
-4.25993
11
6.08519
21
-4.26163
0
LINE
8
BLACK
6
CONTINUOUS
10
6.08519
20
-4.26163
11
6.08689
21
-4.26419
0
LINE
8
BLACK
6
CONTINUOUS
10
6.08689
20
-4.26419
11
6.08749
21
-4.2672
0
LINE
8
BLACK
6
CONTINUOUS
10
6.08749
20
-4.2672
11
6.08749
21
-4.31445
0
LINE
8
BLACK
6
CONTINUOUS
10
6.08749
20
-4.31445
11
6.08689
21
-4.31746
0
LINE
8
BLACK
6
CONTINUOUS
10
6.08689
20
-4.31746
11
6.08519
21
-4.32001
0
LINE
8
BLACK
6
CONTINUOUS
10
6.08519
20
-4.32001
11
6.08263
21
-4.32172
0
LINE
8
BLACK
6
CONTINUOUS
10
6.08263
20
-4.32172
11
6.07962
21
-4.32232
0
LINE
8
BLACK
6
CONTINUOUS
10
6.07962
20
-4.32232
11
6.01663
21
-4.32232
0
LINE
8
BLACK
6
CONTINUOUS
10
6.01663
20
-4.32232
11
6.01361
21
-4.32172
0
LINE
8
BLACK
6
CONTINUOUS
10
6.01361
20
-4.32172
11
6.01106
21
-4.32001
0
LINE
8
BLACK
6
CONTINUOUS
10
6.01106
20
-4.32001
11
6.00935
21
-4.31746
0
LINE
8
BLACK
6
CONTINUOUS
10
6.00935
20
-4.31746
11
6.00875
21
-4.31445
0
LINE
8
BLACK
6
CONTINUOUS
10
6.00875
20
-4.31445
11
6.00875
21
-4.2672
0
LINE
8
BLACK
6
CONTINUOUS
10
6.00875
20
-4.2672
11
6.00935
21
-4.26419
0
LINE
8
BLACK
6
CONTINUOUS
10
6.00935
20
-4.26419
11
6.01106
21
-4.26163
0
LINE
8
BLACK
6
CONTINUOUS
10
6.01106
20
-4.26163
11
6.01361
21
-4.25993
0
LINE
8
BLACK
6
CONTINUOUS
10
6.01361
20
-4.25993
11
6.01663
21
-4.25933
0
LINE
8
BLACK
6
CONTINUOUS
10
6.01663
20
-4.25933
11
6.07962
21
-4.25933
0
LINE
8
BLACK
6
CONTINUOUS
10
6.07962
20
-4.25933
11
6.08263
21
-4.25993
0
LINE
8
BLACK
6
CONTINUOUS
10
5.89638
20
-4.18439
11
5.90136
21
-4.18614
0
LINE
8
BLACK
6
CONTINUOUS
10
5.90136
20
-4.18614
11
5.90561
21
-4.18927
0
LINE
8
BLACK
6
CONTINUOUS
10
5.90561
20
-4.18927
11
5.90875
21
-4.19352
0
LINE
8
BLACK
6
CONTINUOUS
10
5.90875
20
-4.19352
11
5.91049
21
-4.19851
0
LINE
8
BLACK
6
CONTINUOUS
10
5.91049
20
-4.19851
11
5.9108
21
-4.2018
0
LINE
8
BLACK
6
CONTINUOUS
10
5.9108
20
-4.2018
11
5.9108
21
-4.23723
0
LINE
8
BLACK
6
CONTINUOUS
10
5.9108
20
-4.23723
11
5.91049
21
-4.24053
0
LINE
8
BLACK
6
CONTINUOUS
10
5.91049
20
-4.24053
11
5.90875
21
-4.24551
0
LINE
8
BLACK
6
CONTINUOUS
10
5.90875
20
-4.24551
11
5.90561
21
-4.24976
0
LINE
8
BLACK
6
CONTINUOUS
10
5.90561
20
-4.24976
11
5.90136
21
-4.2529
0
LINE
8
BLACK
6
CONTINUOUS
10
5.90136
20
-4.2529
11
5.89638
21
-4.25464
0
LINE
8
BLACK
6
CONTINUOUS
10
5.89638
20
-4.25464
11
5.89308
21
-4.25495
0
LINE
8
BLACK
6
CONTINUOUS
10
5.89308
20
-4.25495
11
5.87242
21
-4.25495
0
LINE
8
BLACK
6
CONTINUOUS
10
5.87242
20
-4.25495
11
5.86912
21
-4.25464
0
LINE
8
BLACK
6
CONTINUOUS
10
5.86912
20
-4.25464
11
5.86414
21
-4.2529
0
LINE
8
BLACK
6
CONTINUOUS
10
5.86414
20
-4.2529
11
5.85989
21
-4.24976
0
LINE
8
BLACK
6
CONTINUOUS
10
5.85989
20
-4.24976
11
5.85675
21
-4.24551
0
LINE
8
BLACK
6
CONTINUOUS
10
5.85675
20
-4.24551
11
5.85501
21
-4.24053
0
LINE
8
BLACK
6
CONTINUOUS
10
5.85501
20
-4.24053
11
5.8547
21
-4.23723
0
LINE
8
BLACK
6
CONTINUOUS
10
5.8547
20
-4.23723
11
5.8547
21
-4.2018
0
LINE
8
BLACK
6
CONTINUOUS
10
5.8547
20
-4.2018
11
5.85501
21
-4.19851
0
LINE
8
BLACK
6
CONTINUOUS
10
5.85501
20
-4.19851
11
5.85675
21
-4.19352
0
LINE
8
BLACK
6
CONTINUOUS
10
5.85675
20
-4.19352
11
5.85989
21
-4.18927
0
LINE
8
BLACK
6
CONTINUOUS
10
5.85989
20
-4.18927
11
5.86414
21
-4.18614
0
LINE
8
BLACK
6
CONTINUOUS
10
5.86414
20
-4.18614
11
5.86912
21
-4.18439
0
LINE
8
BLACK
6
CONTINUOUS
10
5.86912
20
-4.18439
11
5.87242
21
-4.18408
0
LINE
8
BLACK
6
CONTINUOUS
10
5.87242
20
-4.18408
11
5.89308
21
-4.18408
0
LINE
8
BLACK
6
CONTINUOUS
10
5.89308
20
-4.18408
11
5.89638
21
-4.18439
0
LINE
8
BLACK
6
CONTINUOUS
10
5.96823
20
-4.18439
11
5.97321
21
-4.18614
0
LINE
8
BLACK
6
CONTINUOUS
10
5.97321
20
-4.18614
11
5.97746
21
-4.18927
0
LINE
8
BLACK
6
CONTINUOUS
10
5.97746
20
-4.18927
11
5.9806
21
-4.19352
0
LINE
8
BLACK
6
CONTINUOUS
10
5.9806
20
-4.19352
11
5.98234
21
-4.19851
0
LINE
8
BLACK
6
CONTINUOUS
10
5.98234
20
-4.19851
11
5.98265
21
-4.2018
0
LINE
8
BLACK
6
CONTINUOUS
10
5.98265
20
-4.2018
11
5.98265
21
-4.23723
0
LINE
8
BLACK
6
CONTINUOUS
10
5.98265
20
-4.23723
11
5.98234
21
-4.24053
0
LINE
8
BLACK
6
CONTINUOUS
10
5.98234
20
-4.24053
11
5.9806
21
-4.24551
0
LINE
8
BLACK
6
CONTINUOUS
10
5.9806
20
-4.24551
11
5.97746
21
-4.24976
0
LINE
8
BLACK
6
CONTINUOUS
10
5.97746
20
-4.24976
11
5.97321
21
-4.2529
0
LINE
8
BLACK
6
CONTINUOUS
10
5.97321
20
-4.2529
11
5.96823
21
-4.25464
0
LINE
8
BLACK
6
CONTINUOUS
10
5.96823
20
-4.25464
11
5.96493
21
-4.25495
0
LINE
8
BLACK
6
CONTINUOUS
10
5.96493
20
-4.25495
11
5.94427
21
-4.25495
0
LINE
8
BLACK
6
CONTINUOUS
10
5.94427
20
-4.25495
11
5.94097
21
-4.25464
0
LINE
8
BLACK
6
CONTINUOUS
10
5.94097
20
-4.25464
11
5.93599
21
-4.2529
0
LINE
8
BLACK
6
CONTINUOUS
10
5.93599
20
-4.2529
11
5.93174
21
-4.24976
0
LINE
8
BLACK
6
CONTINUOUS
10
5.93174
20
-4.24976
11
5.9286
21
-4.24551
0
LINE
8
BLACK
6
CONTINUOUS
10
5.9286
20
-4.24551
11
5.92686
21
-4.24053
0
LINE
8
BLACK
6
CONTINUOUS
10
5.92686
20
-4.24053
11
5.92655
21
-4.23723
0
LINE
8
BLACK
6
CONTINUOUS
10
5.92655
20
-4.23723
11
5.92655
21
-4.2018
0
LINE
8
BLACK
6
CONTINUOUS
10
5.92655
20
-4.2018
11
5.92686
21
-4.19851
0
LINE
8
BLACK
6
CONTINUOUS
10
5.92686
20
-4.19851
11
5.9286
21
-4.19352
0
LINE
8
BLACK
6
CONTINUOUS
10
5.9286
20
-4.19352
11
5.93174
21
-4.18927
0
LINE
8
BLACK
6
CONTINUOUS
10
5.93174
20
-4.18927
11
5.93599
21
-4.18614
0
LINE
8
BLACK
6
CONTINUOUS
10
5.93599
20
-4.18614
11
5.94097
21
-4.18439
0
LINE
8
BLACK
6
CONTINUOUS
10
5.94097
20
-4.18439
11
5.94427
21
-4.18408
0
LINE
8
BLACK
6
CONTINUOUS
10
5.94427
20
-4.18408
11
5.96493
21
-4.18408
0
LINE
8
BLACK
6
CONTINUOUS
10
5.96493
20
-4.18408
11
5.96823
21
-4.18439
0
LINE
8
BLACK
6
CONTINUOUS
10
6.08263
20
-4.18906
11
6.08519
21
-4.19077
0
LINE
8
BLACK
6
CONTINUOUS
10
6.08519
20
-4.19077
11
6.08689
21
-4.19332
0
LINE
8
BLACK
6
CONTINUOUS
10
6.08689
20
-4.19332
11
6.08749
21
-4.19634
0
LINE
8
BLACK
6
CONTINUOUS
10
6.08749
20
-4.19634
11
6.08749
21
-4.24358
0
LINE
8
BLACK
6
CONTINUOUS
10
6.08749
20
-4.24358
11
6.08689
21
-4.24659
0
LINE
8
BLACK
6
CONTINUOUS
10
6.08689
20
-4.24659
11
6.08519
21
-4.24915
0
LINE
8
BLACK
6
CONTINUOUS
10
6.08519
20
-4.24915
11
6.08263
21
-4.25085
0
LINE
8
BLACK
6
CONTINUOUS
10
6.08263
20
-4.25085
11
6.07962
21
-4.25145
0
LINE
8
BLACK
6
CONTINUOUS
10
6.07962
20
-4.25145
11
6.01663
21
-4.25145
0
LINE
8
BLACK
6
CONTINUOUS
10
6.01663
20
-4.25145
11
6.01361
21
-4.25085
0
LINE
8
BLACK
6
CONTINUOUS
10
6.01361
20
-4.25085
11
6.01106
21
-4.24915
0
LINE
8
BLACK
6
CONTINUOUS
10
6.01106
20
-4.24915
11
6.00935
21
-4.24659
0
LINE
8
BLACK
6
CONTINUOUS
10
6.00935
20
-4.24659
11
6.00875
21
-4.24358
0
LINE
8
BLACK
6
CONTINUOUS
10
6.00875
20
-4.24358
11
6.00875
21
-4.19634
0
LINE
8
BLACK
6
CONTINUOUS
10
6.00875
20
-4.19634
11
6.00935
21
-4.19332
0
LINE
8
BLACK
6
CONTINUOUS
10
6.00935
20
-4.19332
11
6.01106
21
-4.19077
0
LINE
8
BLACK
6
CONTINUOUS
10
6.01106
20
-4.19077
11
6.01361
21
-4.18906
0
LINE
8
BLACK
6
CONTINUOUS
10
6.01361
20
-4.18906
11
6.01663
21
-4.18846
0
LINE
8
BLACK
6
CONTINUOUS
10
6.01663
20
-4.18846
11
6.07962
21
-4.18846
0
LINE
8
BLACK
6
CONTINUOUS
10
6.07962
20
-4.18846
11
6.08263
21
-4.18906
0
LINE
8
BLACK
6
CONTINUOUS
10
6.08263
20
-4.09339
11
6.08519
21
-4.0951
0
LINE
8
BLACK
6
CONTINUOUS
10
6.08519
20
-4.0951
11
6.08689
21
-4.09765
0
LINE
8
BLACK
6
CONTINUOUS
10
6.08689
20
-4.09765
11
6.08749
21
-4.10067
0
LINE
8
BLACK
6
CONTINUOUS
10
6.08749
20
-4.10067
11
6.08749
21
-4.14791
0
LINE
8
BLACK
6
CONTINUOUS
10
6.08749
20
-4.14791
11
6.08689
21
-4.15092
0
LINE
8
BLACK
6
CONTINUOUS
10
6.08689
20
-4.15092
11
6.08519
21
-4.15348
0
LINE
8
BLACK
6
CONTINUOUS
10
6.08519
20
-4.15348
11
6.08263
21
-4.15519
0
LINE
8
BLACK
6
CONTINUOUS
10
6.08263
20
-4.15519
11
6.07962
21
-4.15578
0
LINE
8
BLACK
6
CONTINUOUS
10
6.07962
20
-4.15578
11
6.01663
21
-4.15578
0
LINE
8
BLACK
6
CONTINUOUS
10
6.01663
20
-4.15578
11
6.01361
21
-4.15519
0
LINE
8
BLACK
6
CONTINUOUS
10
6.01361
20
-4.15519
11
6.01106
21
-4.15348
0
LINE
8
BLACK
6
CONTINUOUS
10
6.01106
20
-4.15348
11
6.00935
21
-4.15092
0
LINE
8
BLACK
6
CONTINUOUS
10
6.00935
20
-4.15092
11
6.00875
21
-4.14791
0
LINE
8
BLACK
6
CONTINUOUS
10
6.00875
20
-4.14791
11
6.00875
21
-4.10067
0
LINE
8
BLACK
6
CONTINUOUS
10
6.00875
20
-4.10067
11
6.00935
21
-4.09765
0
LINE
8
BLACK
6
CONTINUOUS
10
6.00935
20
-4.09765
11
6.01106
21
-4.0951
0
LINE
8
BLACK
6
CONTINUOUS
10
6.01106
20
-4.0951
11
6.01361
21
-4.09339
0
LINE
8
BLACK
6
CONTINUOUS
10
6.01361
20
-4.09339
11
6.01663
21
-4.09279
0
LINE
8
BLACK
6
CONTINUOUS
10
6.01663
20
-4.09279
11
6.07962
21
-4.09279
0
LINE
8
BLACK
6
CONTINUOUS
10
6.07962
20
-4.09279
11
6.08263
21
-4.09339
0
LINE
8
BLACK
6
CONTINUOUS
10
5.89638
20
-3.99039
11
5.90136
21
-3.99214
0
LINE
8
BLACK
6
CONTINUOUS
10
5.90136
20
-3.99214
11
5.90561
21
-3.99527
0
LINE
8
BLACK
6
CONTINUOUS
10
5.90561
20
-3.99527
11
5.90875
21
-3.99952
0
LINE
8
BLACK
6
CONTINUOUS
10
5.90875
20
-3.99952
11
5.91049
21
-4.00451
0
LINE
8
BLACK
6
CONTINUOUS
10
5.91049
20
-4.00451
11
5.9108
21
-4.0078
0
LINE
8
BLACK
6
CONTINUOUS
10
5.9108
20
-4.0078
11
5.9108
21
-4.04323
0
LINE
8
BLACK
6
CONTINUOUS
10
5.9108
20
-4.04323
11
5.91049
21
-4.04653
0
LINE
8
BLACK
6
CONTINUOUS
10
5.91049
20
-4.04653
11
5.90875
21
-4.05151
0
LINE
8
BLACK
6
CONTINUOUS
10
5.90875
20
-4.05151
11
5.90561
21
-4.05576
0
LINE
8
BLACK
6
CONTINUOUS
10
5.90561
20
-4.05576
11
5.90136
21
-4.0589
0
LINE
8
BLACK
6
CONTINUOUS
10
5.90136
20
-4.0589
11
5.89638
21
-4.06064
0
LINE
8
BLACK
6
CONTINUOUS
10
5.89638
20
-4.06064
11
5.89308
21
-4.06095
0
LINE
8
BLACK
6
CONTINUOUS
10
5.89308
20
-4.06095
11
5.87242
21
-4.06095
0
LINE
8
BLACK
6
CONTINUOUS
10
5.87242
20
-4.06095
11
5.86912
21
-4.06064
0
LINE
8
BLACK
6
CONTINUOUS
10
5.86912
20
-4.06064
11
5.86414
21
-4.0589
0
LINE
8
BLACK
6
CONTINUOUS
10
5.86414
20
-4.0589
11
5.85989
21
-4.05576
0
LINE
8
BLACK
6
CONTINUOUS
10
5.85989
20
-4.05576
11
5.85675
21
-4.05151
0
LINE
8
BLACK
6
CONTINUOUS
10
5.85675
20
-4.05151
11
5.85501
21
-4.04653
0
LINE
8
BLACK
6
CONTINUOUS
10
5.85501
20
-4.04653
11
5.8547
21
-4.04323
0
LINE
8
BLACK
6
CONTINUOUS
10
5.8547
20
-4.04323
11
5.8547
21
-4.0078
0
LINE
8
BLACK
6
CONTINUOUS
10
5.8547
20
-4.0078
11
5.85501
21
-4.00451
0
LINE
8
BLACK
6
CONTINUOUS
10
5.85501
20
-4.00451
11
5.85675
21
-3.99952
0
LINE
8
BLACK
6
CONTINUOUS
10
5.85675
20
-3.99952
11
5.85989
21
-3.99527
0
LINE
8
BLACK
6
CONTINUOUS
10
5.85989
20
-3.99527
11
5.86414
21
-3.99214
0
LINE
8
BLACK
6
CONTINUOUS
10
5.86414
20
-3.99214
11
5.86912
21
-3.99039
0
LINE
8
BLACK
6
CONTINUOUS
10
5.86912
20
-3.99039
11
5.87242
21
-3.99008
0
LINE
8
BLACK
6
CONTINUOUS
10
5.87242
20
-3.99008
11
5.89308
21
-3.99008
0
LINE
8
BLACK
6
CONTINUOUS
10
5.89308
20
-3.99008
11
5.89638
21
-3.99039
0
LINE
8
BLACK
6
CONTINUOUS
10
5.96823
20
-3.99039
11
5.97321
21
-3.99214
0
LINE
8
BLACK
6
CONTINUOUS
10
5.97321
20
-3.99214
11
5.97746
21
-3.99527
0
LINE
8
BLACK
6
CONTINUOUS
10
5.97746
20
-3.99527
11
5.9806
21
-3.99952
0
LINE
8
BLACK
6
CONTINUOUS
10
5.9806
20
-3.99952
11
5.98234
21
-4.00451
0
LINE
8
BLACK
6
CONTINUOUS
10
5.98234
20
-4.00451
11
5.98265
21
-4.0078
0
LINE
8
BLACK
6
CONTINUOUS
10
5.98265
20
-4.0078
11
5.98265
21
-4.04323
0
LINE
8
BLACK
6
CONTINUOUS
10
5.98265
20
-4.04323
11
5.98234
21
-4.04653
0
LINE
8
BLACK
6
CONTINUOUS
10
5.98234
20
-4.04653
11
5.9806
21
-4.05151
0
LINE
8
BLACK
6
CONTINUOUS
10
5.9806
20
-4.05151
11
5.97746
21
-4.05576
0
LINE
8
BLACK
6
CONTINUOUS
10
5.97746
20
-4.05576
11
5.97321
21
-4.0589
0
LINE
8
BLACK
6
CONTINUOUS
10
5.97321
20
-4.0589
11
5.96823
21
-4.06064
0
LINE
8
BLACK
6
CONTINUOUS
10
5.96823
20
-4.06064
11
5.96493
21
-4.06095
0
LINE
8
BLACK
6
CONTINUOUS
10
5.96493
20
-4.06095
11
5.94427
21
-4.06095
0
LINE
8
BLACK
6
CONTINUOUS
10
5.94427
20
-4.06095
11
5.94097
21
-4.06064
0
LINE
8
BLACK
6
CONTINUOUS
10
5.94097
20
-4.06064
11
5.93599
21
-4.0589
0
LINE
8
BLACK
6
CONTINUOUS
10
5.93599
20
-4.0589
11
5.93174
21
-4.05576
0
LINE
8
BLACK
6
CONTINUOUS
10
5.93174
20
-4.05576
11
5.9286
21
-4.05151
0
LINE
8
BLACK
6
CONTINUOUS
10
5.9286
20
-4.05151
11
5.92686
21
-4.04653
0
LINE
8
BLACK
6
CONTINUOUS
10
5.92686
20
-4.04653
11
5.92655
21
-4.04323
0
LINE
8
BLACK
6
CONTINUOUS
10
5.92655
20
-4.04323
11
5.92655
21
-4.0078
0
LINE
8
BLACK
6
CONTINUOUS
10
5.92655
20
-4.0078
11
5.92686
21
-4.00451
0
LINE
8
BLACK
6
CONTINUOUS
10
5.92686
20
-4.00451
11
5.9286
21
-3.99952
0
LINE
8
BLACK
6
CONTINUOUS
10
5.9286
20
-3.99952
11
5.93174
21
-3.99527
0
LINE
8
BLACK
6
CONTINUOUS
10
5.93174
20
-3.99527
11
5.93599
21
-3.99214
0
LINE
8
BLACK
6
CONTINUOUS
10
5.93599
20
-3.99214
11
5.94097
21
-3.99039
0
LINE
8
BLACK
6
CONTINUOUS
10
5.94097
20
-3.99039
11
5.94427
21
-3.99008
0
LINE
8
BLACK
6
CONTINUOUS
10
5.94427
20
-3.99008
11
5.96493
21
-3.99008
0
LINE
8
BLACK
6
CONTINUOUS
10
5.96493
20
-3.99008
11
5.96823
21
-3.99039
0
LINE
8
BLACK
6
CONTINUOUS
10
6.08263
20
-3.99497
11
6.08519
21
-3.99667
0
LINE
8
BLACK
6
CONTINUOUS
10
6.08519
20
-3.99667
11
6.08689
21
-3.99923
0
LINE
8
BLACK
6
CONTINUOUS
10
6.08689
20
-3.99923
11
6.08749
21
-4.00224
0
LINE
8
BLACK
6
CONTINUOUS
10
6.08749
20
-4.00224
11
6.08749
21
-4.04949
0
LINE
8
BLACK
6
CONTINUOUS
10
6.08749
20
-4.04949
11
6.08689
21
-4.0525
0
LINE
8
BLACK
6
CONTINUOUS
10
6.08689
20
-4.0525
11
6.08519
21
-4.05505
0
LINE
8
BLACK
6
CONTINUOUS
10
6.08519
20
-4.05505
11
6.08263
21
-4.05676
0
LINE
8
BLACK
6
CONTINUOUS
10
6.08263
20
-4.05676
11
6.07962
21
-4.05736
0
LINE
8
BLACK
6
CONTINUOUS
10
6.07962
20
-4.05736
11
6.01663
21
-4.05736
0
LINE
8
BLACK
6
CONTINUOUS
10
6.01663
20
-4.05736
11
6.01361
21
-4.05676
0
LINE
8
BLACK
6
CONTINUOUS
10
6.01361
20
-4.05676
11
6.01106
21
-4.05505
0
LINE
8
BLACK
6
CONTINUOUS
10
6.01106
20
-4.05505
11
6.00935
21
-4.0525
0
LINE
8
BLACK
6
CONTINUOUS
10
6.00935
20
-4.0525
11
6.00875
21
-4.04949
0
LINE
8
BLACK
6
CONTINUOUS
10
6.00875
20
-4.04949
11
6.00875
21
-4.00224
0
LINE
8
BLACK
6
CONTINUOUS
10
6.00875
20
-4.00224
11
6.00935
21
-3.99923
0
LINE
8
BLACK
6
CONTINUOUS
10
6.00935
20
-3.99923
11
6.01106
21
-3.99667
0
LINE
8
BLACK
6
CONTINUOUS
10
6.01106
20
-3.99667
11
6.01361
21
-3.99497
0
LINE
8
BLACK
6
CONTINUOUS
10
6.01361
20
-3.99497
11
6.01663
21
-3.99437
0
LINE
8
BLACK
6
CONTINUOUS
10
6.01663
20
-3.99437
11
6.07962
21
-3.99437
0
LINE
8
BLACK
6
CONTINUOUS
10
6.07962
20
-3.99437
11
6.08263
21
-3.99497
0
LINE
8
BLACK
6
CONTINUOUS
10
5.47569
20
-3.90624
11
5.47824
21
-3.90795
0
LINE
8
BLACK
6
CONTINUOUS
10
5.47824
20
-3.90795
11
5.47995
21
-3.9105
0
LINE
8
BLACK
6
CONTINUOUS
10
5.47995
20
-3.9105
11
5.48055
21
-3.91352
0
LINE
8
BLACK
6
CONTINUOUS
10
5.48055
20
-3.91352
11
5.48055
21
-3.97352
0
LINE
8
BLACK
6
CONTINUOUS
10
5.48055
20
-3.97352
11
5.47995
21
-3.97653
0
LINE
8
BLACK
6
CONTINUOUS
10
5.47995
20
-3.97653
11
5.47824
21
-3.97908
0
LINE
8
BLACK
6
CONTINUOUS
10
5.47824
20
-3.97908
11
5.47569
21
-3.98079
0
LINE
8
BLACK
6
CONTINUOUS
10
5.47569
20
-3.98079
11
5.47267
21
-3.98139
0
LINE
8
BLACK
6
CONTINUOUS
10
5.47267
20
-3.98139
11
5.41267
21
-3.98139
0
LINE
8
BLACK
6
CONTINUOUS
10
5.41267
20
-3.98139
11
5.40966
21
-3.98079
0
LINE
8
BLACK
6
CONTINUOUS
10
5.40966
20
-3.98079
11
5.40711
21
-3.97908
0
LINE
8
BLACK
6
CONTINUOUS
10
5.40711
20
-3.97908
11
5.4054
21
-3.97653
0
LINE
8
BLACK
6
CONTINUOUS
10
5.4054
20
-3.97653
11
5.4048
21
-3.97352
0
LINE
8
BLACK
6
CONTINUOUS
10
5.4048
20
-3.97352
11
5.4048
21
-3.91352
0
LINE
8
BLACK
6
CONTINUOUS
10
5.4048
20
-3.91352
11
5.4054
21
-3.9105
0
LINE
8
BLACK
6
CONTINUOUS
10
5.4054
20
-3.9105
11
5.40711
21
-3.90795
0
LINE
8
BLACK
6
CONTINUOUS
10
5.40711
20
-3.90795
11
5.40966
21
-3.90624
0
LINE
8
BLACK
6
CONTINUOUS
10
5.40966
20
-3.90624
11
5.41267
21
-3.90564
0
LINE
8
BLACK
6
CONTINUOUS
10
5.41267
20
-3.90564
11
5.47267
21
-3.90564
0
LINE
8
BLACK
6
CONTINUOUS
10
5.47267
20
-3.90564
11
5.47569
21
-3.90624
0
LINE
8
BLACK
6
CONTINUOUS
10
5.57569
20
-3.90624
11
5.57824
21
-3.90795
0
LINE
8
BLACK
6
CONTINUOUS
10
5.57824
20
-3.90795
11
5.57995
21
-3.9105
0
LINE
8
BLACK
6
CONTINUOUS
10
5.57995
20
-3.9105
11
5.58055
21
-3.91352
0
LINE
8
BLACK
6
CONTINUOUS
10
5.58055
20
-3.91352
11
5.58055
21
-3.97352
0
LINE
8
BLACK
6
CONTINUOUS
10
5.58055
20
-3.97352
11
5.57995
21
-3.97653
0
LINE
8
BLACK
6
CONTINUOUS
10
5.57995
20
-3.97653
11
5.57824
21
-3.97908
0
LINE
8
BLACK
6
CONTINUOUS
10
5.57824
20
-3.97908
11
5.57569
21
-3.98079
0
LINE
8
BLACK
6
CONTINUOUS
10
5.57569
20
-3.98079
11
5.57267
21
-3.98139
0
LINE
8
BLACK
6
CONTINUOUS
10
5.57267
20
-3.98139
11
5.51267
21
-3.98139
0
LINE
8
BLACK
6
CONTINUOUS
10
5.51267
20
-3.98139
11
5.50966
21
-3.98079
0
LINE
8
BLACK
6
CONTINUOUS
10
5.50966
20
-3.98079
11
5.50711
21
-3.97908
0
LINE
8
BLACK
6
CONTINUOUS
10
5.50711
20
-3.97908
11
5.5054
21
-3.97653
0
LINE
8
BLACK
6
CONTINUOUS
10
5.5054
20
-3.97653
11
5.5048
21
-3.97352
0
LINE
8
BLACK
6
CONTINUOUS
10
5.5048
20
-3.97352
11
5.5048
21
-3.91352
0
LINE
8
BLACK
6
CONTINUOUS
10
5.5048
20
-3.91352
11
5.5054
21
-3.9105
0
LINE
8
BLACK
6
CONTINUOUS
10
5.5054
20
-3.9105
11
5.50711
21
-3.90795
0
LINE
8
BLACK
6
CONTINUOUS
10
5.50711
20
-3.90795
11
5.50966
21
-3.90624
0
LINE
8
BLACK
6
CONTINUOUS
10
5.50966
20
-3.90624
11
5.51267
21
-3.90564
0
LINE
8
BLACK
6
CONTINUOUS
10
5.51267
20
-3.90564
11
5.57267
21
-3.90564
0
LINE
8
BLACK
6
CONTINUOUS
10
5.57267
20
-3.90564
11
5.57569
21
-3.90624
0
LINE
8
BLACK
6
CONTINUOUS
10
6.08263
20
-3.89654
11
6.08519
21
-3.89825
0
LINE
8
BLACK
6
CONTINUOUS
10
6.08519
20
-3.89825
11
6.08689
21
-3.9008
0
LINE
8
BLACK
6
CONTINUOUS
10
6.08689
20
-3.9008
11
6.08749
21
-3.90382
0
LINE
8
BLACK
6
CONTINUOUS
10
6.08749
20
-3.90382
11
6.08749
21
-3.95106
0
LINE
8
BLACK
6
CONTINUOUS
10
6.08749
20
-3.95106
11
6.08689
21
-3.95407
0
LINE
8
BLACK
6
CONTINUOUS
10
6.08689
20
-3.95407
11
6.08519
21
-3.95663
0
LINE
8
BLACK
6
CONTINUOUS
10
6.08519
20
-3.95663
11
6.08263
21
-3.95833
0
LINE
8
BLACK
6
CONTINUOUS
10
6.08263
20
-3.95833
11
6.07962
21
-3.95893
0
LINE
8
BLACK
6
CONTINUOUS
10
6.07962
20
-3.95893
11
6.01663
21
-3.95893
0
LINE
8
BLACK
6
CONTINUOUS
10
6.01663
20
-3.95893
11
6.01361
21
-3.95833
0
LINE
8
BLACK
6
CONTINUOUS
10
6.01361
20
-3.95833
11
6.01106
21
-3.95663
0
LINE
8
BLACK
6
CONTINUOUS
10
6.01106
20
-3.95663
11
6.00935
21
-3.95407
0
LINE
8
BLACK
6
CONTINUOUS
10
6.00935
20
-3.95407
11
6.00875
21
-3.95106
0
LINE
8
BLACK
6
CONTINUOUS
10
6.00875
20
-3.95106
11
6.00875
21
-3.90382
0
LINE
8
BLACK
6
CONTINUOUS
10
6.00875
20
-3.90382
11
6.00935
21
-3.9008
0
LINE
8
BLACK
6
CONTINUOUS
10
6.00935
20
-3.9008
11
6.01106
21
-3.89825
0
LINE
8
BLACK
6
CONTINUOUS
10
6.01106
20
-3.89825
11
6.01361
21
-3.89654
0
LINE
8
BLACK
6
CONTINUOUS
10
6.01361
20
-3.89654
11
6.01663
21
-3.89594
0
LINE
8
BLACK
6
CONTINUOUS
10
6.01663
20
-3.89594
11
6.07962
21
-3.89594
0
LINE
8
BLACK
6
CONTINUOUS
10
6.07962
20
-3.89594
11
6.08263
21
-3.89654
0
LINE
8
BLACK
6
CONTINUOUS
10
5.89867
20
-3.88967
11
5.90365
21
-3.89141
0
LINE
8
BLACK
6
CONTINUOUS
10
5.90365
20
-3.89141
11
5.9079
21
-3.89455
0
LINE
8
BLACK
6
CONTINUOUS
10
5.9079
20
-3.89455
11
5.91104
21
-3.8988
0
LINE
8
BLACK
6
CONTINUOUS
10
5.91104
20
-3.8988
11
5.91278
21
-3.90378
0
LINE
8
BLACK
6
CONTINUOUS
10
5.91278
20
-3.90378
11
5.91309
21
-3.90708
0
LINE
8
BLACK
6
CONTINUOUS
10
5.91309
20
-3.90708
11
5.91309
21
-3.92676
0
LINE
8
BLACK
6
CONTINUOUS
10
5.91309
20
-3.92676
11
5.91278
21
-3.93005
0
LINE
8
BLACK
6
CONTINUOUS
10
5.91278
20
-3.93005
11
5.91104
21
-3.93504
0
LINE
8
BLACK
6
CONTINUOUS
10
5.91104
20
-3.93504
11
5.9079
21
-3.93929
0
LINE
8
BLACK
6
CONTINUOUS
10
5.9079
20
-3.93929
11
5.90365
21
-3.94242
0
LINE
8
BLACK
6
CONTINUOUS
10
5.90365
20
-3.94242
11
5.89867
21
-3.94417
0
LINE
8
BLACK
6
CONTINUOUS
10
5.89867
20
-3.94417
11
5.89538
21
-3.94448
0
LINE
8
BLACK
6
CONTINUOUS
10
5.89538
20
-3.94448
11
5.85797
21
-3.94448
0
LINE
8
BLACK
6
CONTINUOUS
10
5.85797
20
-3.94448
11
5.85468
21
-3.94417
0
LINE
8
BLACK
6
CONTINUOUS
10
5.85468
20
-3.94417
11
5.8497
21
-3.94242
0
LINE
8
BLACK
6
CONTINUOUS
10
5.8497
20
-3.94242
11
5.84545
21
-3.93929
0
LINE
8
BLACK
6
CONTINUOUS
10
5.84545
20
-3.93929
11
5.84231
21
-3.93504
0
LINE
8
BLACK
6
CONTINUOUS
10
5.84231
20
-3.93504
11
5.84057
21
-3.93005
0
LINE
8
BLACK
6
CONTINUOUS
10
5.84057
20
-3.93005
11
5.84026
21
-3.92676
0
LINE
8
BLACK
6
CONTINUOUS
10
5.84026
20
-3.92676
11
5.84026
21
-3.90708
0
LINE
8
BLACK
6
CONTINUOUS
10
5.84026
20
-3.90708
11
5.84057
21
-3.90378
0
LINE
8
BLACK
6
CONTINUOUS
10
5.84057
20
-3.90378
11
5.84231
21
-3.8988
0
LINE
8
BLACK
6
CONTINUOUS
10
5.84231
20
-3.8988
11
5.84545
21
-3.89455
0
LINE
8
BLACK
6
CONTINUOUS
10
5.84545
20
-3.89455
11
5.8497
21
-3.89141
0
LINE
8
BLACK
6
CONTINUOUS
10
5.8497
20
-3.89141
11
5.85468
21
-3.88967
0
LINE
8
BLACK
6
CONTINUOUS
10
5.85468
20
-3.88967
11
5.85797
21
-3.88936
0
LINE
8
BLACK
6
CONTINUOUS
10
5.85797
20
-3.88936
11
5.89538
21
-3.88936
0
LINE
8
BLACK
6
CONTINUOUS
10
5.89538
20
-3.88936
11
5.89867
21
-3.88967
0
LINE
8
BLACK
6
CONTINUOUS
10
5.98267
20
-3.88967
11
5.98765
21
-3.89141
0
LINE
8
BLACK
6
CONTINUOUS
10
5.98765
20
-3.89141
11
5.9919
21
-3.89455
0
LINE
8
BLACK
6
CONTINUOUS
10
5.9919
20
-3.89455
11
5.99504
21
-3.8988
0
LINE
8
BLACK
6
CONTINUOUS
10
5.99504
20
-3.8988
11
5.99678
21
-3.90378
0
LINE
8
BLACK
6
CONTINUOUS
10
5.99678
20
-3.90378
11
5.99709
21
-3.90708
0
LINE
8
BLACK
6
CONTINUOUS
10
5.99709
20
-3.90708
11
5.99709
21
-3.92676
0
LINE
8
BLACK
6
CONTINUOUS
10
5.99709
20
-3.92676
11
5.99678
21
-3.93005
0
LINE
8
BLACK
6
CONTINUOUS
10
5.99678
20
-3.93005
11
5.99504
21
-3.93504
0
LINE
8
BLACK
6
CONTINUOUS
10
5.99504
20
-3.93504
11
5.9919
21
-3.93929
0
LINE
8
BLACK
6
CONTINUOUS
10
5.9919
20
-3.93929
11
5.98765
21
-3.94242
0
LINE
8
BLACK
6
CONTINUOUS
10
5.98765
20
-3.94242
11
5.98267
21
-3.94417
0
LINE
8
BLACK
6
CONTINUOUS
10
5.98267
20
-3.94417
11
5.97938
21
-3.94448
0
LINE
8
BLACK
6
CONTINUOUS
10
5.97938
20
-3.94448
11
5.94197
21
-3.94448
0
LINE
8
BLACK
6
CONTINUOUS
10
5.94197
20
-3.94448
11
5.93868
21
-3.94417
0
LINE
8
BLACK
6
CONTINUOUS
10
5.93868
20
-3.94417
11
5.9337
21
-3.94242
0
LINE
8
BLACK
6
CONTINUOUS
10
5.9337
20
-3.94242
11
5.92945
21
-3.93929
0
LINE
8
BLACK
6
CONTINUOUS
10
5.92945
20
-3.93929
11
5.92631
21
-3.93504
0
LINE
8
BLACK
6
CONTINUOUS
10
5.92631
20
-3.93504
11
5.92457
21
-3.93005
0
LINE
8
BLACK
6
CONTINUOUS
10
5.92457
20
-3.93005
11
5.92426
21
-3.92676
0
LINE
8
BLACK
6
CONTINUOUS
10
5.92426
20
-3.92676
11
5.92426
21
-3.90708
0
LINE
8
BLACK
6
CONTINUOUS
10
5.92426
20
-3.90708
11
5.92457
21
-3.90378
0
LINE
8
BLACK
6
CONTINUOUS
10
5.92457
20
-3.90378
11
5.92631
21
-3.8988
0
LINE
8
BLACK
6
CONTINUOUS
10
5.92631
20
-3.8988
11
5.92945
21
-3.89455
0
LINE
8
BLACK
6
CONTINUOUS
10
5.92945
20
-3.89455
11
5.9337
21
-3.89141
0
LINE
8
BLACK
6
CONTINUOUS
10
5.9337
20
-3.89141
11
5.93868
21
-3.88967
0
LINE
8
BLACK
6
CONTINUOUS
10
5.93868
20
-3.88967
11
5.94197
21
-3.88936
0
LINE
8
BLACK
6
CONTINUOUS
10
5.94197
20
-3.88936
11
5.97938
21
-3.88936
0
LINE
8
BLACK
6
CONTINUOUS
10
5.97938
20
-3.88936
11
5.98267
21
-3.88967
0
LINE
8
BLACK
6
CONTINUOUS
10
5.47569
20
-3.80624
11
5.47824
21
-3.80795
0
LINE
8
BLACK
6
CONTINUOUS
10
5.47824
20
-3.80795
11
5.47995
21
-3.8105
0
LINE
8
BLACK
6
CONTINUOUS
10
5.47995
20
-3.8105
11
5.48055
21
-3.81352
0
LINE
8
BLACK
6
CONTINUOUS
10
5.48055
20
-3.81352
11
5.48055
21
-3.87352
0
LINE
8
BLACK
6
CONTINUOUS
10
5.48055
20
-3.87352
11
5.47995
21
-3.87653
0
LINE
8
BLACK
6
CONTINUOUS
10
5.47995
20
-3.87653
11
5.47824
21
-3.87908
0
LINE
8
BLACK
6
CONTINUOUS
10
5.47824
20
-3.87908
11
5.47569
21
-3.88079
0
LINE
8
BLACK
6
CONTINUOUS
10
5.47569
20
-3.88079
11
5.47267
21
-3.88139
0
LINE
8
BLACK
6
CONTINUOUS
10
5.47267
20
-3.88139
11
5.41267
21
-3.88139
0
LINE
8
BLACK
6
CONTINUOUS
10
5.41267
20
-3.88139
11
5.40966
21
-3.88079
0
LINE
8
BLACK
6
CONTINUOUS
10
5.40966
20
-3.88079
11
5.40711
21
-3.87908
0
LINE
8
BLACK
6
CONTINUOUS
10
5.40711
20
-3.87908
11
5.4054
21
-3.87653
0
LINE
8
BLACK
6
CONTINUOUS
10
5.4054
20
-3.87653
11
5.4048
21
-3.87352
0
LINE
8
BLACK
6
CONTINUOUS
10
5.4048
20
-3.87352
11
5.4048
21
-3.81352
0
LINE
8
BLACK
6
CONTINUOUS
10
5.4048
20
-3.81352
11
5.4054
21
-3.8105
0
LINE
8
BLACK
6
CONTINUOUS
10
5.4054
20
-3.8105
11
5.40711
21
-3.80795
0
LINE
8
BLACK
6
CONTINUOUS
10
5.40711
20
-3.80795
11
5.40966
21
-3.80624
0
LINE
8
BLACK
6
CONTINUOUS
10
5.40966
20
-3.80624
11
5.41267
21
-3.80564
0
LINE
8
BLACK
6
CONTINUOUS
10
5.41267
20
-3.80564
11
5.47267
21
-3.80564
0
LINE
8
BLACK
6
CONTINUOUS
10
5.47267
20
-3.80564
11
5.47569
21
-3.80624
0
LINE
8
BLACK
6
CONTINUOUS
10
5.57569
20
-3.80624
11
5.57824
21
-3.80795
0
LINE
8
BLACK
6
CONTINUOUS
10
5.57824
20
-3.80795
11
5.57995
21
-3.8105
0
LINE
8
BLACK
6
CONTINUOUS
10
5.57995
20
-3.8105
11
5.58055
21
-3.81352
0
LINE
8
BLACK
6
CONTINUOUS
10
5.58055
20
-3.81352
11
5.58055
21
-3.87352
0
LINE
8
BLACK
6
CONTINUOUS
10
5.58055
20
-3.87352
11
5.57995
21
-3.87653
0
LINE
8
BLACK
6
CONTINUOUS
10
5.57995
20
-3.87653
11
5.57824
21
-3.87908
0
LINE
8
BLACK
6
CONTINUOUS
10
5.57824
20
-3.87908
11
5.57569
21
-3.88079
0
LINE
8
BLACK
6
CONTINUOUS
10
5.57569
20
-3.88079
11
5.57267
21
-3.88139
0
LINE
8
BLACK
6
CONTINUOUS
10
5.57267
20
-3.88139
11
5.51267
21
-3.88139
0
LINE
8
BLACK
6
CONTINUOUS
10
5.51267
20
-3.88139
11
5.50966
21
-3.88079
0
LINE
8
BLACK
6
CONTINUOUS
10
5.50966
20
-3.88079
11
5.50711
21
-3.87908
0
LINE
8
BLACK
6
CONTINUOUS
10
5.50711
20
-3.87908
11
5.5054
21
-3.87653
0
LINE
8
BLACK
6
CONTINUOUS
10
5.5054
20
-3.87653
11
5.5048
21
-3.87352
0
LINE
8
BLACK
6
CONTINUOUS
10
5.5048
20
-3.87352
11
5.5048
21
-3.81352
0
LINE
8
BLACK
6
CONTINUOUS
10
5.5048
20
-3.81352
11
5.5054
21
-3.8105
0
LINE
8
BLACK
6
CONTINUOUS
10
5.5054
20
-3.8105
11
5.50711
21
-3.80795
0
LINE
8
BLACK
6
CONTINUOUS
10
5.50711
20
-3.80795
11
5.50966
21
-3.80624
0
LINE
8
BLACK
6
CONTINUOUS
10
5.50966
20
-3.80624
11
5.51267
21
-3.80564
0
LINE
8
BLACK
6
CONTINUOUS
10
5.51267
20
-3.80564
11
5.57267
21
-3.80564
0
LINE
8
BLACK
6
CONTINUOUS
10
5.57267
20
-3.80564
11
5.57569
21
-3.80624
0
LINE
8
BLACK
6
CONTINUOUS
10
5.89867
20
-3.81487
11
5.90365
21
-3.81661
0
LINE
8
BLACK
6
CONTINUOUS
10
5.90365
20
-3.81661
11
5.9079
21
-3.81975
0
LINE
8
BLACK
6
CONTINUOUS
10
5.9079
20
-3.81975
11
5.91104
21
-3.82399
0
LINE
8
BLACK
6
CONTINUOUS
10
5.91104
20
-3.82399
11
5.91278
21
-3.82898
0
LINE
8
BLACK
6
CONTINUOUS
10
5.91278
20
-3.82898
11
5.91309
21
-3.83227
0
LINE
8
BLACK
6
CONTINUOUS
10
5.91309
20
-3.83227
11
5.91309
21
-3.85196
0
LINE
8
BLACK
6
CONTINUOUS
10
5.91309
20
-3.85196
11
5.91278
21
-3.85525
0
LINE
8
BLACK
6
CONTINUOUS
10
5.91278
20
-3.85525
11
5.91104
21
-3.86024
0
LINE
8
BLACK
6
CONTINUOUS
10
5.91104
20
-3.86024
11
5.9079
21
-3.86449
0
LINE
8
BLACK
6
CONTINUOUS
10
5.9079
20
-3.86449
11
5.90365
21
-3.86762
0
LINE
8
BLACK
6
CONTINUOUS
10
5.90365
20
-3.86762
11
5.89867
21
-3.86937
0
LINE
8
BLACK
6
CONTINUOUS
10
5.89867
20
-3.86937
11
5.89538
21
-3.86967
0
LINE
8
BLACK
6
CONTINUOUS
10
5.89538
20
-3.86967
11
5.85797
21
-3.86967
0
LINE
8
BLACK
6
CONTINUOUS
10
5.85797
20
-3.86967
11
5.85468
21
-3.86937
0
LINE
8
BLACK
6
CONTINUOUS
10
5.85468
20
-3.86937
11
5.8497
21
-3.86762
0
LINE
8
BLACK
6
CONTINUOUS
10
5.8497
20
-3.86762
11
5.84545
21
-3.86449
0
LINE
8
BLACK
6
CONTINUOUS
10
5.84545
20
-3.86449
11
5.84231
21
-3.86024
0
LINE
8
BLACK
6
CONTINUOUS
10
5.84231
20
-3.86024
11
5.84057
21
-3.85525
0
LINE
8
BLACK
6
CONTINUOUS
10
5.84057
20
-3.85525
11
5.84026
21
-3.85196
0
LINE
8
BLACK
6
CONTINUOUS
10
5.84026
20
-3.85196
11
5.84026
21
-3.83227
0
LINE
8
BLACK
6
CONTINUOUS
10
5.84026
20
-3.83227
11
5.84057
21
-3.82898
0
LINE
8
BLACK
6
CONTINUOUS
10
5.84057
20
-3.82898
11
5.84231
21
-3.82399
0
LINE
8
BLACK
6
CONTINUOUS
10
5.84231
20
-3.82399
11
5.84545
21
-3.81975
0
LINE
8
BLACK
6
CONTINUOUS
10
5.84545
20
-3.81975
11
5.8497
21
-3.81661
0
LINE
8
BLACK
6
CONTINUOUS
10
5.8497
20
-3.81661
11
5.85468
21
-3.81487
0
LINE
8
BLACK
6
CONTINUOUS
10
5.85468
20
-3.81487
11
5.85797
21
-3.81456
0
LINE
8
BLACK
6
CONTINUOUS
10
5.85797
20
-3.81456
11
5.89538
21
-3.81456
0
LINE
8
BLACK
6
CONTINUOUS
10
5.89538
20
-3.81456
11
5.89867
21
-3.81487
0
LINE
8
BLACK
6
CONTINUOUS
10
5.98267
20
-3.81487
11
5.98765
21
-3.81661
0
LINE
8
BLACK
6
CONTINUOUS
10
5.98765
20
-3.81661
11
5.9919
21
-3.81975
0
LINE
8
BLACK
6
CONTINUOUS
10
5.9919
20
-3.81975
11
5.99504
21
-3.82399
0
LINE
8
BLACK
6
CONTINUOUS
10
5.99504
20
-3.82399
11
5.99678
21
-3.82898
0
LINE
8
BLACK
6
CONTINUOUS
10
5.99678
20
-3.82898
11
5.99709
21
-3.83227
0
LINE
8
BLACK
6
CONTINUOUS
10
5.99709
20
-3.83227
11
5.99709
21
-3.85196
0
LINE
8
BLACK
6
CONTINUOUS
10
5.99709
20
-3.85196
11
5.99678
21
-3.85525
0
LINE
8
BLACK
6
CONTINUOUS
10
5.99678
20
-3.85525
11
5.99504
21
-3.86024
0
LINE
8
BLACK
6
CONTINUOUS
10
5.99504
20
-3.86024
11
5.9919
21
-3.86449
0
LINE
8
BLACK
6
CONTINUOUS
10
5.9919
20
-3.86449
11
5.98765
21
-3.86762
0
LINE
8
BLACK
6
CONTINUOUS
10
5.98765
20
-3.86762
11
5.98267
21
-3.86937
0
LINE
8
BLACK
6
CONTINUOUS
10
5.98267
20
-3.86937
11
5.97938
21
-3.86967
0
LINE
8
BLACK
6
CONTINUOUS
10
5.97938
20
-3.86967
11
5.94197
21
-3.86967
0
LINE
8
BLACK
6
CONTINUOUS
10
5.94197
20
-3.86967
11
5.93868
21
-3.86937
0
LINE
8
BLACK
6
CONTINUOUS
10
5.93868
20
-3.86937
11
5.9337
21
-3.86762
0
LINE
8
BLACK
6
CONTINUOUS
10
5.9337
20
-3.86762
11
5.92945
21
-3.86449
0
LINE
8
BLACK
6
CONTINUOUS
10
5.92945
20
-3.86449
11
5.92631
21
-3.86024
0
LINE
8
BLACK
6
CONTINUOUS
10
5.92631
20
-3.86024
11
5.92457
21
-3.85525
0
LINE
8
BLACK
6
CONTINUOUS
10
5.92457
20
-3.85525
11
5.92426
21
-3.85196
0
LINE
8
BLACK
6
CONTINUOUS
10
5.92426
20
-3.85196
11
5.92426
21
-3.83227
0
LINE
8
BLACK
6
CONTINUOUS
10
5.92426
20
-3.83227
11
5.92457
21
-3.82898
0
LINE
8
BLACK
6
CONTINUOUS
10
5.92457
20
-3.82898
11
5.92631
21
-3.82399
0
LINE
8
BLACK
6
CONTINUOUS
10
5.92631
20
-3.82399
11
5.92945
21
-3.81975
0
LINE
8
BLACK
6
CONTINUOUS
10
5.92945
20
-3.81975
11
5.9337
21
-3.81661
0
LINE
8
BLACK
6
CONTINUOUS
10
5.9337
20
-3.81661
11
5.93868
21
-3.81487
0
LINE
8
BLACK
6
CONTINUOUS
10
5.93868
20
-3.81487
11
5.94197
21
-3.81456
0
LINE
8
BLACK
6
CONTINUOUS
10
5.94197
20
-3.81456
11
5.97938
21
-3.81456
0
LINE
8
BLACK
6
CONTINUOUS
10
5.97938
20
-3.81456
11
5.98267
21
-3.81487
0
LINE
8
BLACK
6
CONTINUOUS
10
6.08263
20
-3.79812
11
6.08519
21
-3.79982
0
LINE
8
BLACK
6
CONTINUOUS
10
6.08519
20
-3.79982
11
6.08689
21
-3.80238
0
LINE
8
BLACK
6
CONTINUOUS
10
6.08689
20
-3.80238
11
6.08749
21
-3.80539
0
LINE
8
BLACK
6
CONTINUOUS
10
6.08749
20
-3.80539
11
6.08749
21
-3.85263
0
LINE
8
BLACK
6
CONTINUOUS
10
6.08749
20
-3.85263
11
6.08689
21
-3.85565
0
LINE
8
BLACK
6
CONTINUOUS
10
6.08689
20
-3.85565
11
6.08519
21
-3.8582
0
LINE
8
BLACK
6
CONTINUOUS
10
6.08519
20
-3.8582
11
6.08263
21
-3.85991
0
LINE
8
BLACK
6
CONTINUOUS
10
6.08263
20
-3.85991
11
6.07962
21
-3.86051
0
LINE
8
BLACK
6
CONTINUOUS
10
6.07962
20
-3.86051
11
6.01663
21
-3.86051
0
LINE
8
BLACK
6
CONTINUOUS
10
6.01663
20
-3.86051
11
6.01361
21
-3.85991
0
LINE
8
BLACK
6
CONTINUOUS
10
6.01361
20
-3.85991
11
6.01106
21
-3.8582
0
LINE
8
BLACK
6
CONTINUOUS
10
6.01106
20
-3.8582
11
6.00935
21
-3.85565
0
LINE
8
BLACK
6
CONTINUOUS
10
6.00935
20
-3.85565
11
6.00875
21
-3.85263
0
LINE
8
BLACK
6
CONTINUOUS
10
6.00875
20
-3.85263
11
6.00875
21
-3.80539
0
LINE
8
BLACK
6
CONTINUOUS
10
6.00875
20
-3.80539
11
6.00935
21
-3.80238
0
LINE
8
BLACK
6
CONTINUOUS
10
6.00935
20
-3.80238
11
6.01106
21
-3.79982
0
LINE
8
BLACK
6
CONTINUOUS
10
6.01106
20
-3.79982
11
6.01361
21
-3.79812
0
LINE
8
BLACK
6
CONTINUOUS
10
6.01361
20
-3.79812
11
6.01663
21
-3.79752
0
LINE
8
BLACK
6
CONTINUOUS
10
6.01663
20
-3.79752
11
6.07962
21
-3.79752
0
LINE
8
BLACK
6
CONTINUOUS
10
6.07962
20
-3.79752
11
6.08263
21
-3.79812
0
LINE
8
BLACK
6
CONTINUOUS
10
5.47569
20
-3.70624
11
5.47824
21
-3.70795
0
LINE
8
BLACK
6
CONTINUOUS
10
5.47824
20
-3.70795
11
5.47995
21
-3.7105
0
LINE
8
BLACK
6
CONTINUOUS
10
5.47995
20
-3.7105
11
5.48055
21
-3.71352
0
LINE
8
BLACK
6
CONTINUOUS
10
5.48055
20
-3.71352
11
5.48055
21
-3.77352
0
LINE
8
BLACK
6
CONTINUOUS
10
5.48055
20
-3.77352
11
5.47995
21
-3.77653
0
LINE
8
BLACK
6
CONTINUOUS
10
5.47995
20
-3.77653
11
5.47824
21
-3.77908
0
LINE
8
BLACK
6
CONTINUOUS
10
5.47824
20
-3.77908
11
5.47569
21
-3.78079
0
LINE
8
BLACK
6
CONTINUOUS
10
5.47569
20
-3.78079
11
5.47267
21
-3.78139
0
LINE
8
BLACK
6
CONTINUOUS
10
5.47267
20
-3.78139
11
5.41267
21
-3.78139
0
LINE
8
BLACK
6
CONTINUOUS
10
5.41267
20
-3.78139
11
5.40966
21
-3.78079
0
LINE
8
BLACK
6
CONTINUOUS
10
5.40966
20
-3.78079
11
5.40711
21
-3.77908
0
LINE
8
BLACK
6
CONTINUOUS
10
5.40711
20
-3.77908
11
5.4054
21
-3.77653
0
LINE
8
BLACK
6
CONTINUOUS
10
5.4054
20
-3.77653
11
5.4048
21
-3.77352
0
LINE
8
BLACK
6
CONTINUOUS
10
5.4048
20
-3.77352
11
5.4048
21
-3.71352
0
LINE
8
BLACK
6
CONTINUOUS
10
5.4048
20
-3.71352
11
5.4054
21
-3.7105
0
LINE
8
BLACK
6
CONTINUOUS
10
5.4054
20
-3.7105
11
5.40711
21
-3.70795
0
LINE
8
BLACK
6
CONTINUOUS
10
5.40711
20
-3.70795
11
5.40966
21
-3.70624
0
LINE
8
BLACK
6
CONTINUOUS
10
5.40966
20
-3.70624
11
5.41267
21
-3.70564
0
LINE
8
BLACK
6
CONTINUOUS
10
5.41267
20
-3.70564
11
5.47267
21
-3.70564
0
LINE
8
BLACK
6
CONTINUOUS
10
5.47267
20
-3.70564
11
5.47569
21
-3.70624
0
LINE
8
BLACK
6
CONTINUOUS
10
5.57569
20
-3.70624
11
5.57824
21
-3.70795
0
LINE
8
BLACK
6
CONTINUOUS
10
5.57824
20
-3.70795
11
5.57995
21
-3.7105
0
LINE
8
BLACK
6
CONTINUOUS
10
5.57995
20
-3.7105
11
5.58055
21
-3.71352
0
LINE
8
BLACK
6
CONTINUOUS
10
5.58055
20
-3.71352
11
5.58055
21
-3.77352
0
LINE
8
BLACK
6
CONTINUOUS
10
5.58055
20
-3.77352
11
5.57995
21
-3.77653
0
LINE
8
BLACK
6
CONTINUOUS
10
5.57995
20
-3.77653
11
5.57824
21
-3.77908
0
LINE
8
BLACK
6
CONTINUOUS
10
5.57824
20
-3.77908
11
5.57569
21
-3.78079
0
LINE
8
BLACK
6
CONTINUOUS
10
5.57569
20
-3.78079
11
5.57267
21
-3.78139
0
LINE
8
BLACK
6
CONTINUOUS
10
5.57267
20
-3.78139
11
5.51267
21
-3.78139
0
LINE
8
BLACK
6
CONTINUOUS
10
5.51267
20
-3.78139
11
5.50966
21
-3.78079
0
LINE
8
BLACK
6
CONTINUOUS
10
5.50966
20
-3.78079
11
5.50711
21
-3.77908
0
LINE
8
BLACK
6
CONTINUOUS
10
5.50711
20
-3.77908
11
5.5054
21
-3.77653
0
LINE
8
BLACK
6
CONTINUOUS
10
5.5054
20
-3.77653
11
5.5048
21
-3.77352
0
LINE
8
BLACK
6
CONTINUOUS
10
5.5048
20
-3.77352
11
5.5048
21
-3.71352
0
LINE
8
BLACK
6
CONTINUOUS
10
5.5048
20
-3.71352
11
5.5054
21
-3.7105
0
LINE
8
BLACK
6
CONTINUOUS
10
5.5054
20
-3.7105
11
5.50711
21
-3.70795
0
LINE
8
BLACK
6
CONTINUOUS
10
5.50711
20
-3.70795
11
5.50966
21
-3.70624
0
LINE
8
BLACK
6
CONTINUOUS
10
5.50966
20
-3.70624
11
5.51267
21
-3.70564
0
LINE
8
BLACK
6
CONTINUOUS
10
5.51267
20
-3.70564
11
5.57267
21
-3.70564
0
LINE
8
BLACK
6
CONTINUOUS
10
5.57267
20
-3.70564
11
5.57569
21
-3.70624
0
LINE
8
BLACK
6
CONTINUOUS
10
5.89638
20
-3.69839
11
5.90136
21
-3.70014
0
LINE
8
BLACK
6
CONTINUOUS
10
5.90136
20
-3.70014
11
5.90561
21
-3.70327
0
LINE
8
BLACK
6
CONTINUOUS
10
5.90561
20
-3.70327
11
5.90875
21
-3.70752
0
LINE
8
BLACK
6
CONTINUOUS
10
5.90875
20
-3.70752
11
5.91049
21
-3.71251
0
LINE
8
BLACK
6
CONTINUOUS
10
5.91049
20
-3.71251
11
5.9108
21
-3.7158
0
LINE
8
BLACK
6
CONTINUOUS
10
5.9108
20
-3.7158
11
5.9108
21
-3.75123
0
LINE
8
BLACK
6
CONTINUOUS
10
5.9108
20
-3.75123
11
5.91049
21
-3.75453
0
LINE
8
BLACK
6
CONTINUOUS
10
5.91049
20
-3.75453
11
5.90875
21
-3.75951
0
LINE
8
BLACK
6
CONTINUOUS
10
5.90875
20
-3.75951
11
5.90561
21
-3.76376
0
LINE
8
BLACK
6
CONTINUOUS
10
5.90561
20
-3.76376
11
5.90136
21
-3.7669
0
LINE
8
BLACK
6
CONTINUOUS
10
5.90136
20
-3.7669
11
5.89638
21
-3.76864
0
LINE
8
BLACK
6
CONTINUOUS
10
5.89638
20
-3.76864
11
5.89308
21
-3.76895
0
LINE
8
BLACK
6
CONTINUOUS
10
5.89308
20
-3.76895
11
5.87242
21
-3.76895
0
LINE
8
BLACK
6
CONTINUOUS
10
5.87242
20
-3.76895
11
5.86912
21
-3.76864
0
LINE
8
BLACK
6
CONTINUOUS
10
5.86912
20
-3.76864
11
5.86414
21
-3.7669
0
LINE
8
BLACK
6
CONTINUOUS
10
5.86414
20
-3.7669
11
5.85989
21
-3.76376
0
LINE
8
BLACK
6
CONTINUOUS
10
5.85989
20
-3.76376
11
5.85675
21
-3.75951
0
LINE
8
BLACK
6
CONTINUOUS
10
5.85675
20
-3.75951
11
5.85501
21
-3.75453
0
LINE
8
BLACK
6
CONTINUOUS
10
5.85501
20
-3.75453
11
5.8547
21
-3.75123
0
LINE
8
BLACK
6
CONTINUOUS
10
5.8547
20
-3.75123
11
5.8547
21
-3.7158
0
LINE
8
BLACK
6
CONTINUOUS
10
5.8547
20
-3.7158
11
5.85501
21
-3.71251
0
LINE
8
BLACK
6
CONTINUOUS
10
5.85501
20
-3.71251
11
5.85675
21
-3.70752
0
LINE
8
BLACK
6
CONTINUOUS
10
5.85675
20
-3.70752
11
5.85989
21
-3.70327
0
LINE
8
BLACK
6
CONTINUOUS
10
5.85989
20
-3.70327
11
5.86414
21
-3.70014
0
LINE
8
BLACK
6
CONTINUOUS
10
5.86414
20
-3.70014
11
5.86912
21
-3.69839
0
LINE
8
BLACK
6
CONTINUOUS
10
5.86912
20
-3.69839
11
5.87242
21
-3.69808
0
LINE
8
BLACK
6
CONTINUOUS
10
5.87242
20
-3.69808
11
5.89308
21
-3.69808
0
LINE
8
BLACK
6
CONTINUOUS
10
5.89308
20
-3.69808
11
5.89638
21
-3.69839
0
LINE
8
BLACK
6
CONTINUOUS
10
5.96823
20
-3.69839
11
5.97321
21
-3.70014
0
LINE
8
BLACK
6
CONTINUOUS
10
5.97321
20
-3.70014
11
5.97746
21
-3.70327
0
LINE
8
BLACK
6
CONTINUOUS
10
5.97746
20
-3.70327
11
5.9806
21
-3.70752
0
LINE
8
BLACK
6
CONTINUOUS
10
5.9806
20
-3.70752
11
5.98234
21
-3.71251
0
LINE
8
BLACK
6
CONTINUOUS
10
5.98234
20
-3.71251
11
5.98265
21
-3.7158
0
LINE
8
BLACK
6
CONTINUOUS
10
5.98265
20
-3.7158
11
5.98265
21
-3.75123
0
LINE
8
BLACK
6
CONTINUOUS
10
5.98265
20
-3.75123
11
5.98234
21
-3.75453
0
LINE
8
BLACK
6
CONTINUOUS
10
5.98234
20
-3.75453
11
5.9806
21
-3.75951
0
LINE
8
BLACK
6
CONTINUOUS
10
5.9806
20
-3.75951
11
5.97746
21
-3.76376
0
LINE
8
BLACK
6
CONTINUOUS
10
5.97746
20
-3.76376
11
5.97321
21
-3.7669
0
LINE
8
BLACK
6
CONTINUOUS
10
5.97321
20
-3.7669
11
5.96823
21
-3.76864
0
LINE
8
BLACK
6
CONTINUOUS
10
5.96823
20
-3.76864
11
5.96493
21
-3.76895
0
LINE
8
BLACK
6
CONTINUOUS
10
5.96493
20
-3.76895
11
5.94427
21
-3.76895
0
LINE
8
BLACK
6
CONTINUOUS
10
5.94427
20
-3.76895
11
5.94097
21
-3.76864
0
LINE
8
BLACK
6
CONTINUOUS
10
5.94097
20
-3.76864
11
5.93599
21
-3.7669
0
LINE
8
BLACK
6
CONTINUOUS
10
5.93599
20
-3.7669
11
5.93174
21
-3.76376
0
LINE
8
BLACK
6
CONTINUOUS
10
5.93174
20
-3.76376
11
5.9286
21
-3.75951
0
LINE
8
BLACK
6
CONTINUOUS
10
5.9286
20
-3.75951
11
5.92686
21
-3.75453
0
LINE
8
BLACK
6
CONTINUOUS
10
5.92686
20
-3.75453
11
5.92655
21
-3.75123
0
LINE
8
BLACK
6
CONTINUOUS
10
5.92655
20
-3.75123
11
5.92655
21
-3.7158
0
LINE
8
BLACK
6
CONTINUOUS
10
5.92655
20
-3.7158
11
5.92686
21
-3.71251
0
LINE
8
BLACK
6
CONTINUOUS
10
5.92686
20
-3.71251
11
5.9286
21
-3.70752
0
LINE
8
BLACK
6
CONTINUOUS
10
5.9286
20
-3.70752
11
5.93174
21
-3.70327
0
LINE
8
BLACK
6
CONTINUOUS
10
5.93174
20
-3.70327
11
5.93599
21
-3.70014
0
LINE
8
BLACK
6
CONTINUOUS
10
5.93599
20
-3.70014
11
5.94097
21
-3.69839
0
LINE
8
BLACK
6
CONTINUOUS
10
5.94097
20
-3.69839
11
5.94427
21
-3.69808
0
LINE
8
BLACK
6
CONTINUOUS
10
5.94427
20
-3.69808
11
5.96493
21
-3.69808
0
LINE
8
BLACK
6
CONTINUOUS
10
5.96493
20
-3.69808
11
5.96823
21
-3.69839
0
LINE
8
BLACK
6
CONTINUOUS
10
6.08263
20
-3.69969
11
6.08519
21
-3.7014
0
LINE
8
BLACK
6
CONTINUOUS
10
6.08519
20
-3.7014
11
6.08689
21
-3.70395
0
LINE
8
BLACK
6
CONTINUOUS
10
6.08689
20
-3.70395
11
6.08749
21
-3.70697
0
LINE
8
BLACK
6
CONTINUOUS
10
6.08749
20
-3.70697
11
6.08749
21
-3.75421
0
LINE
8
BLACK
6
CONTINUOUS
10
6.08749
20
-3.75421
11
6.08689
21
-3.75722
0
LINE
8
BLACK
6
CONTINUOUS
10
6.08689
20
-3.75722
11
6.08519
21
-3.75978
0
LINE
8
BLACK
6
CONTINUOUS
10
6.08519
20
-3.75978
11
6.08263
21
-3.76148
0
LINE
8
BLACK
6
CONTINUOUS
10
6.08263
20
-3.76148
11
6.07962
21
-3.76208
0
LINE
8
BLACK
6
CONTINUOUS
10
6.07962
20
-3.76208
11
6.01663
21
-3.76208
0
LINE
8
BLACK
6
CONTINUOUS
10
6.01663
20
-3.76208
11
6.01361
21
-3.76148
0
LINE
8
BLACK
6
CONTINUOUS
10
6.01361
20
-3.76148
11
6.01106
21
-3.75978
0
LINE
8
BLACK
6
CONTINUOUS
10
6.01106
20
-3.75978
11
6.00935
21
-3.75722
0
LINE
8
BLACK
6
CONTINUOUS
10
6.00935
20
-3.75722
11
6.00875
21
-3.75421
0
LINE
8
BLACK
6
CONTINUOUS
10
6.00875
20
-3.75421
11
6.00875
21
-3.70697
0
LINE
8
BLACK
6
CONTINUOUS
10
6.00875
20
-3.70697
11
6.00935
21
-3.70395
0
LINE
8
BLACK
6
CONTINUOUS
10
6.00935
20
-3.70395
11
6.01106
21
-3.7014
0
LINE
8
BLACK
6
CONTINUOUS
10
6.01106
20
-3.7014
11
6.01361
21
-3.69969
0
LINE
8
BLACK
6
CONTINUOUS
10
6.01361
20
-3.69969
11
6.01663
21
-3.69909
0
LINE
8
BLACK
6
CONTINUOUS
10
6.01663
20
-3.69909
11
6.07962
21
-3.69909
0
LINE
8
BLACK
6
CONTINUOUS
10
6.07962
20
-3.69909
11
6.08263
21
-3.69969
0
LINE
8
BLACK
6
CONTINUOUS
10
5.89638
20
-3.59639
11
5.90136
21
-3.59814
0
LINE
8
BLACK
6
CONTINUOUS
10
5.90136
20
-3.59814
11
5.90561
21
-3.60127
0
LINE
8
BLACK
6
CONTINUOUS
10
5.90561
20
-3.60127
11
5.90875
21
-3.60552
0
LINE
8
BLACK
6
CONTINUOUS
10
5.90875
20
-3.60552
11
5.91049
21
-3.61051
0
LINE
8
BLACK
6
CONTINUOUS
10
5.91049
20
-3.61051
11
5.9108
21
-3.6138
0
LINE
8
BLACK
6
CONTINUOUS
10
5.9108
20
-3.6138
11
5.9108
21
-3.64923
0
LINE
8
BLACK
6
CONTINUOUS
10
5.9108
20
-3.64923
11
5.91049
21
-3.65253
0
LINE
8
BLACK
6
CONTINUOUS
10
5.91049
20
-3.65253
11
5.90875
21
-3.65751
0
LINE
8
BLACK
6
CONTINUOUS
10
5.90875
20
-3.65751
11
5.90561
21
-3.66176
0
LINE
8
BLACK
6
CONTINUOUS
10
5.90561
20
-3.66176
11
5.90136
21
-3.6649
0
LINE
8
BLACK
6
CONTINUOUS
10
5.90136
20
-3.6649
11
5.89638
21
-3.66664
0
LINE
8
BLACK
6
CONTINUOUS
10
5.89638
20
-3.66664
11
5.89308
21
-3.66695
0
LINE
8
BLACK
6
CONTINUOUS
10
5.89308
20
-3.66695
11
5.87242
21
-3.66695
0
LINE
8
BLACK
6
CONTINUOUS
10
5.87242
20
-3.66695
11
5.86912
21
-3.66664
0
LINE
8
BLACK
6
CONTINUOUS
10
5.86912
20
-3.66664
11
5.86414
21
-3.6649
0
LINE
8
BLACK
6
CONTINUOUS
10
5.86414
20
-3.6649
11
5.85989
21
-3.66176
0
LINE
8
BLACK
6
CONTINUOUS
10
5.85989
20
-3.66176
11
5.85675
21
-3.65751
0
LINE
8
BLACK
6
CONTINUOUS
10
5.85675
20
-3.65751
11
5.85501
21
-3.65253
0
LINE
8
BLACK
6
CONTINUOUS
10
5.85501
20
-3.65253
11
5.8547
21
-3.64923
0
LINE
8
BLACK
6
CONTINUOUS
10
5.8547
20
-3.64923
11
5.8547
21
-3.6138
0
LINE
8
BLACK
6
CONTINUOUS
10
5.8547
20
-3.6138
11
5.85501
21
-3.61051
0
LINE
8
BLACK
6
CONTINUOUS
10
5.85501
20
-3.61051
11
5.85675
21
-3.60552
0
LINE
8
BLACK
6
CONTINUOUS
10
5.85675
20
-3.60552
11
5.85989
21
-3.60127
0
LINE
8
BLACK
6
CONTINUOUS
10
5.85989
20
-3.60127
11
5.86414
21
-3.59814
0
LINE
8
BLACK
6
CONTINUOUS
10
5.86414
20
-3.59814
11
5.86912
21
-3.59639
0
LINE
8
BLACK
6
CONTINUOUS
10
5.86912
20
-3.59639
11
5.87242
21
-3.59608
0
LINE
8
BLACK
6
CONTINUOUS
10
5.87242
20
-3.59608
11
5.89308
21
-3.59608
0
LINE
8
BLACK
6
CONTINUOUS
10
5.89308
20
-3.59608
11
5.89638
21
-3.59639
0
LINE
8
BLACK
6
CONTINUOUS
10
5.96823
20
-3.59639
11
5.97321
21
-3.59814
0
LINE
8
BLACK
6
CONTINUOUS
10
5.97321
20
-3.59814
11
5.97746
21
-3.60127
0
LINE
8
BLACK
6
CONTINUOUS
10
5.97746
20
-3.60127
11
5.9806
21
-3.60552
0
LINE
8
BLACK
6
CONTINUOUS
10
5.9806
20
-3.60552
11
5.98234
21
-3.61051
0
LINE
8
BLACK
6
CONTINUOUS
10
5.98234
20
-3.61051
11
5.98265
21
-3.6138
0
LINE
8
BLACK
6
CONTINUOUS
10
5.98265
20
-3.6138
11
5.98265
21
-3.64923
0
LINE
8
BLACK
6
CONTINUOUS
10
5.98265
20
-3.64923
11
5.98234
21
-3.65253
0
LINE
8
BLACK
6
CONTINUOUS
10
5.98234
20
-3.65253
11
5.9806
21
-3.65751
0
LINE
8
BLACK
6
CONTINUOUS
10
5.9806
20
-3.65751
11
5.97746
21
-3.66176
0
LINE
8
BLACK
6
CONTINUOUS
10
5.97746
20
-3.66176
11
5.97321
21
-3.6649
0
LINE
8
BLACK
6
CONTINUOUS
10
5.97321
20
-3.6649
11
5.96823
21
-3.66664
0
LINE
8
BLACK
6
CONTINUOUS
10
5.96823
20
-3.66664
11
5.96493
21
-3.66695
0
LINE
8
BLACK
6
CONTINUOUS
10
5.96493
20
-3.66695
11
5.94427
21
-3.66695
0
LINE
8
BLACK
6
CONTINUOUS
10
5.94427
20
-3.66695
11
5.94097
21
-3.66664
0
LINE
8
BLACK
6
CONTINUOUS
10
5.94097
20
-3.66664
11
5.93599
21
-3.6649
0
LINE
8
BLACK
6
CONTINUOUS
10
5.93599
20
-3.6649
11
5.93174
21
-3.66176
0
LINE
8
BLACK
6
CONTINUOUS
10
5.93174
20
-3.66176
11
5.9286
21
-3.65751
0
LINE
8
BLACK
6
CONTINUOUS
10
5.9286
20
-3.65751
11
5.92686
21
-3.65253
0
LINE
8
BLACK
6
CONTINUOUS
10
5.92686
20
-3.65253
11
5.92655
21
-3.64923
0
LINE
8
BLACK
6
CONTINUOUS
10
5.92655
20
-3.64923
11
5.92655
21
-3.6138
0
LINE
8
BLACK
6
CONTINUOUS
10
5.92655
20
-3.6138
11
5.92686
21
-3.61051
0
LINE
8
BLACK
6
CONTINUOUS
10
5.92686
20
-3.61051
11
5.9286
21
-3.60552
0
LINE
8
BLACK
6
CONTINUOUS
10
5.9286
20
-3.60552
11
5.93174
21
-3.60127
0
LINE
8
BLACK
6
CONTINUOUS
10
5.93174
20
-3.60127
11
5.93599
21
-3.59814
0
LINE
8
BLACK
6
CONTINUOUS
10
5.93599
20
-3.59814
11
5.94097
21
-3.59639
0
LINE
8
BLACK
6
CONTINUOUS
10
5.94097
20
-3.59639
11
5.94427
21
-3.59608
0
LINE
8
BLACK
6
CONTINUOUS
10
5.94427
20
-3.59608
11
5.96493
21
-3.59608
0
LINE
8
BLACK
6
CONTINUOUS
10
5.96493
20
-3.59608
11
5.96823
21
-3.59639
0
LINE
8
BLACK
6
CONTINUOUS
10
6.08263
20
-3.60127
11
6.08519
21
-3.60297
0
LINE
8
BLACK
6
CONTINUOUS
10
6.08519
20
-3.60297
11
6.08689
21
-3.60553
0
LINE
8
BLACK
6
CONTINUOUS
10
6.08689
20
-3.60553
11
6.08749
21
-3.60854
0
LINE
8
BLACK
6
CONTINUOUS
10
6.08749
20
-3.60854
11
6.08749
21
-3.65578
0
LINE
8
BLACK
6
CONTINUOUS
10
6.08749
20
-3.65578
11
6.08689
21
-3.6588
0
LINE
8
BLACK
6
CONTINUOUS
10
6.08689
20
-3.6588
11
6.08519
21
-3.66135
0
LINE
8
BLACK
6
CONTINUOUS
10
6.08519
20
-3.66135
11
6.08263
21
-3.66306
0
LINE
8
BLACK
6
CONTINUOUS
10
6.08263
20
-3.66306
11
6.07962
21
-3.66366
0
LINE
8
BLACK
6
CONTINUOUS
10
6.07962
20
-3.66366
11
6.01663
21
-3.66366
0
LINE
8
BLACK
6
CONTINUOUS
10
6.01663
20
-3.66366
11
6.01361
21
-3.66306
0
LINE
8
BLACK
6
CONTINUOUS
10
6.01361
20
-3.66306
11
6.01106
21
-3.66135
0
LINE
8
BLACK
6
CONTINUOUS
10
6.01106
20
-3.66135
11
6.00935
21
-3.6588
0
LINE
8
BLACK
6
CONTINUOUS
10
6.00935
20
-3.6588
11
6.00875
21
-3.65578
0
LINE
8
BLACK
6
CONTINUOUS
10
6.00875
20
-3.65578
11
6.00875
21
-3.60854
0
LINE
8
BLACK
6
CONTINUOUS
10
6.00875
20
-3.60854
11
6.00935
21
-3.60553
0
LINE
8
BLACK
6
CONTINUOUS
10
6.00935
20
-3.60553
11
6.01106
21
-3.60297
0
LINE
8
BLACK
6
CONTINUOUS
10
6.01106
20
-3.60297
11
6.01361
21
-3.60127
0
LINE
8
BLACK
6
CONTINUOUS
10
6.01361
20
-3.60127
11
6.01663
21
-3.60067
0
LINE
8
BLACK
6
CONTINUOUS
10
6.01663
20
-3.60067
11
6.07962
21
-3.60067
0
LINE
8
BLACK
6
CONTINUOUS
10
6.07962
20
-3.60067
11
6.08263
21
-3.60127
0
LINE
8
BLACK
6
CONTINUOUS
10
6.08263
20
-3.50284
11
6.08519
21
-3.50455
0
LINE
8
BLACK
6
CONTINUOUS
10
6.08519
20
-3.50455
11
6.08689
21
-3.5071
0
LINE
8
BLACK
6
CONTINUOUS
10
6.08689
20
-3.5071
11
6.08749
21
-3.51012
0
LINE
8
BLACK
6
CONTINUOUS
10
6.08749
20
-3.51012
11
6.08749
21
-3.55736
0
LINE
8
BLACK
6
CONTINUOUS
10
6.08749
20
-3.55736
11
6.08689
21
-3.56037
0
LINE
8
BLACK
6
CONTINUOUS
10
6.08689
20
-3.56037
11
6.08519
21
-3.56293
0
LINE
8
BLACK
6
CONTINUOUS
10
6.08519
20
-3.56293
11
6.08263
21
-3.56463
0
LINE
8
BLACK
6
CONTINUOUS
10
6.08263
20
-3.56463
11
6.07962
21
-3.56523
0
LINE
8
BLACK
6
CONTINUOUS
10
6.07962
20
-3.56523
11
6.01663
21
-3.56523
0
LINE
8
BLACK
6
CONTINUOUS
10
6.01663
20
-3.56523
11
6.01361
21
-3.56463
0
LINE
8
BLACK
6
CONTINUOUS
10
6.01361
20
-3.56463
11
6.01106
21
-3.56293
0
LINE
8
BLACK
6
CONTINUOUS
10
6.01106
20
-3.56293
11
6.00935
21
-3.56037
0
LINE
8
BLACK
6
CONTINUOUS
10
6.00935
20
-3.56037
11
6.00875
21
-3.55736
0
LINE
8
BLACK
6
CONTINUOUS
10
6.00875
20
-3.55736
11
6.00875
21
-3.51012
0
LINE
8
BLACK
6
CONTINUOUS
10
6.00875
20
-3.51012
11
6.00935
21
-3.5071
0
LINE
8
BLACK
6
CONTINUOUS
10
6.00935
20
-3.5071
11
6.01106
21
-3.50455
0
LINE
8
BLACK
6
CONTINUOUS
10
6.01106
20
-3.50455
11
6.01361
21
-3.50284
0
LINE
8
BLACK
6
CONTINUOUS
10
6.01361
20
-3.50284
11
6.01663
21
-3.50224
0
LINE
8
BLACK
6
CONTINUOUS
10
6.01663
20
-3.50224
11
6.07962
21
-3.50224
0
LINE
8
BLACK
6
CONTINUOUS
10
6.07962
20
-3.50224
11
6.08263
21
-3.50284
0
LINE
8
BLACK
6
CONTINUOUS
10
6.28736
20
-3.18847
11
6.28991
21
-3.19018
0
LINE
8
BLACK
6
CONTINUOUS
10
6.28991
20
-3.19018
11
6.29162
21
-3.19273
0
LINE
8
BLACK
6
CONTINUOUS
10
6.29162
20
-3.19273
11
6.29222
21
-3.19575
0
LINE
8
BLACK
6
CONTINUOUS
10
6.29222
20
-3.19575
11
6.29222
21
-3.29417
0
LINE
8
BLACK
6
CONTINUOUS
10
6.29222
20
-3.29417
11
6.29162
21
-3.29718
0
LINE
8
BLACK
6
CONTINUOUS
10
6.29162
20
-3.29718
11
6.28991
21
-3.29974
0
LINE
8
BLACK
6
CONTINUOUS
10
6.28991
20
-3.29974
11
6.28736
21
-3.30144
0
LINE
8
BLACK
6
CONTINUOUS
10
6.28736
20
-3.30144
11
6.28434
21
-3.30204
0
LINE
8
BLACK
6
CONTINUOUS
10
6.28434
20
-3.30204
11
6.08749
21
-3.30204
0
LINE
8
BLACK
6
CONTINUOUS
10
6.08749
20
-3.30204
11
6.08448
21
-3.30144
0
LINE
8
BLACK
6
CONTINUOUS
10
6.08448
20
-3.30144
11
6.08193
21
-3.29974
0
LINE
8
BLACK
6
CONTINUOUS
10
6.08193
20
-3.29974
11
6.08022
21
-3.29718
0
LINE
8
BLACK
6
CONTINUOUS
10
6.08022
20
-3.29718
11
6.07962
21
-3.29417
0
LINE
8
BLACK
6
CONTINUOUS
10
6.07962
20
-3.29417
11
6.07962
21
-3.19575
0
LINE
8
BLACK
6
CONTINUOUS
10
6.07962
20
-3.19575
11
6.08022
21
-3.19273
0
LINE
8
BLACK
6
CONTINUOUS
10
6.08022
20
-3.19273
11
6.08193
21
-3.19018
0
LINE
8
BLACK
6
CONTINUOUS
10
6.08193
20
-3.19018
11
6.08448
21
-3.18847
0
LINE
8
BLACK
6
CONTINUOUS
10
6.08448
20
-3.18847
11
6.08749
21
-3.18787
0
LINE
8
BLACK
6
CONTINUOUS
10
6.08749
20
-3.18787
11
6.28434
21
-3.18787
0
LINE
8
BLACK
6
CONTINUOUS
10
6.28434
20
-3.18787
11
6.28736
21
-3.18847
0
LINE
8
BLACK
6
CONTINUOUS
10
7.24011
20
-3.18847
11
7.24267
21
-3.19018
0
LINE
8
BLACK
6
CONTINUOUS
10
7.24267
20
-3.19018
11
7.24437
21
-3.19273
0
LINE
8
BLACK
6
CONTINUOUS
10
7.24437
20
-3.19273
11
7.24497
21
-3.19575
0
LINE
8
BLACK
6
CONTINUOUS
10
7.24497
20
-3.19575
11
7.24497
21
-3.29417
0
LINE
8
BLACK
6
CONTINUOUS
10
7.24497
20
-3.29417
11
7.24437
21
-3.29718
0
LINE
8
BLACK
6
CONTINUOUS
10
7.24437
20
-3.29718
11
7.24267
21
-3.29974
0
LINE
8
BLACK
6
CONTINUOUS
10
7.24267
20
-3.29974
11
7.24011
21
-3.30144
0
LINE
8
BLACK
6
CONTINUOUS
10
7.24011
20
-3.30144
11
7.2371
21
-3.30204
0
LINE
8
BLACK
6
CONTINUOUS
10
7.2371
20
-3.30204
11
7.04025
21
-3.30204
0
LINE
8
BLACK
6
CONTINUOUS
10
7.04025
20
-3.30204
11
7.03724
21
-3.30144
0
LINE
8
BLACK
6
CONTINUOUS
10
7.03724
20
-3.30144
11
7.03468
21
-3.29974
0
LINE
8
BLACK
6
CONTINUOUS
10
7.03468
20
-3.29974
11
7.03297
21
-3.29718
0
LINE
8
BLACK
6
CONTINUOUS
10
7.03297
20
-3.29718
11
7.03238
21
-3.29417
0
LINE
8
BLACK
6
CONTINUOUS
10
7.03238
20
-3.29417
11
7.03238
21
-3.19575
0
LINE
8
BLACK
6
CONTINUOUS
10
7.03238
20
-3.19575
11
7.03297
21
-3.19273
0
LINE
8
BLACK
6
CONTINUOUS
10
7.03297
20
-3.19273
11
7.03468
21
-3.19018
0
LINE
8
BLACK
6
CONTINUOUS
10
7.03468
20
-3.19018
11
7.03724
21
-3.18847
0
LINE
8
BLACK
6
CONTINUOUS
10
7.03724
20
-3.18847
11
7.04025
21
-3.18787
0
LINE
8
BLACK
6
CONTINUOUS
10
7.04025
20
-3.18787
11
7.2371
21
-3.18787
0
LINE
8
BLACK
6
CONTINUOUS
10
7.2371
20
-3.18787
11
7.24011
21
-3.18847
0
LINE
8
BLACK
6
CONTINUOUS
10
6.90278
20
-2.97232
11
6.91671
21
-2.97469
0
LINE
8
BLACK
6
CONTINUOUS
10
6.91671
20
-2.97469
11
6.93028
21
-2.9786
0
LINE
8
BLACK
6
CONTINUOUS
10
6.93028
20
-2.9786
11
6.94334
21
-2.98401
0
LINE
8
BLACK
6
CONTINUOUS
10
6.94334
20
-2.98401
11
6.9557
21
-2.99084
0
LINE
8
BLACK
6
CONTINUOUS
10
6.9557
20
-2.99084
11
6.96722
21
-2.99902
0
LINE
8
BLACK
6
CONTINUOUS
10
6.96722
20
-2.99902
11
6.97776
21
-3.00843
0
LINE
8
BLACK
6
CONTINUOUS
10
6.97776
20
-3.00843
11
6.98717
21
-3.01897
0
LINE
8
BLACK
6
CONTINUOUS
10
6.98717
20
-3.01897
11
6.99535
21
-3.03049
0
LINE
8
BLACK
6
CONTINUOUS
10
6.99535
20
-3.03049
11
7.00218
21
-3.04285
0
LINE
8
BLACK
6
CONTINUOUS
10
7.00218
20
-3.04285
11
7.00759
21
-3.05591
0
LINE
8
BLACK
6
CONTINUOUS
10
7.00759
20
-3.05591
11
7.0115
21
-3.06948
0
LINE
8
BLACK
6
CONTINUOUS
10
7.0115
20
-3.06948
11
7.01387
21
-3.08341
0
LINE
8
BLACK
6
CONTINUOUS
10
7.01387
20
-3.08341
11
7.01466
21
-3.09752
0
LINE
8
BLACK
6
CONTINUOUS
10
7.01466
20
-3.09752
11
7.01387
21
-3.11162
0
LINE
8
BLACK
6
CONTINUOUS
10
7.01387
20
-3.11162
11
7.0115
21
-3.12555
0
LINE
8
BLACK
6
CONTINUOUS
10
7.0115
20
-3.12555
11
7.00759
21
-3.13913
0
LINE
8
BLACK
6
CONTINUOUS
10
7.00759
20
-3.13913
11
7.00218
21
-3.15218
0
LINE
8
BLACK
6
CONTINUOUS
10
7.00218
20
-3.15218
11
6.99535
21
-3.16454
0
LINE
8
BLACK
6
CONTINUOUS
10
6.99535
20
-3.16454
11
6.98717
21
-3.17607
0
LINE
8
BLACK
6
CONTINUOUS
10
6.98717
20
-3.17607
11
6.97776
21
-3.1866
0
LINE
8
BLACK
6
CONTINUOUS
10
6.97776
20
-3.1866
11
6.96722
21
-3.19602
0
LINE
8
BLACK
6
CONTINUOUS
10
6.96722
20
-3.19602
11
6.9557
21
-3.20419
0
LINE
8
BLACK
6
CONTINUOUS
10
6.9557
20
-3.20419
11
6.94334
21
-3.21102
0
LINE
8
BLACK
6
CONTINUOUS
10
6.94334
20
-3.21102
11
6.93028
21
-3.21643
0
LINE
8
BLACK
6
CONTINUOUS
10
6.93028
20
-3.21643
11
6.91671
21
-3.22034
0
LINE
8
BLACK
6
CONTINUOUS
10
6.91671
20
-3.22034
11
6.90278
21
-3.22271
0
LINE
8
BLACK
6
CONTINUOUS
10
6.90278
20
-3.22271
11
6.88867
21
-3.2235
0
LINE
8
BLACK
6
CONTINUOUS
10
6.88867
20
-3.2235
11
6.87457
21
-3.22271
0
LINE
8
BLACK
6
CONTINUOUS
10
6.87457
20
-3.22271
11
6.86064
21
-3.22034
0
LINE
8
BLACK
6
CONTINUOUS
10
6.86064
20
-3.22034
11
6.84706
21
-3.21643
0
LINE
8
BLACK
6
CONTINUOUS
10
6.84706
20
-3.21643
11
6.83401
21
-3.21102
0
LINE
8
BLACK
6
CONTINUOUS
10
6.83401
20
-3.21102
11
6.82165
21
-3.20419
0
LINE
8
BLACK
6
CONTINUOUS
10
6.82165
20
-3.20419
11
6.81012
21
-3.19602
0
LINE
8
BLACK
6
CONTINUOUS
10
6.81012
20
-3.19602
11
6.79959
21
-3.1866
0
LINE
8
BLACK
6
CONTINUOUS
10
6.79959
20
-3.1866
11
6.79018
21
-3.17607
0
LINE
8
BLACK
6
CONTINUOUS
10
6.79018
20
-3.17607
11
6.782
21
-3.16454
0
LINE
8
BLACK
6
CONTINUOUS
10
6.782
20
-3.16454
11
6.77517
21
-3.15218
0
LINE
8
BLACK
6
CONTINUOUS
10
6.77517
20
-3.15218
11
6.76976
21
-3.13913
0
LINE
8
BLACK
6
CONTINUOUS
10
6.76976
20
-3.13913
11
6.76585
21
-3.12555
0
LINE
8
BLACK
6
CONTINUOUS
10
6.76585
20
-3.12555
11
6.76348
21
-3.11162
0
LINE
8
BLACK
6
CONTINUOUS
10
6.76348
20
-3.11162
11
6.76269
21
-3.09752
0
LINE
8
BLACK
6
CONTINUOUS
10
6.76269
20
-3.09752
11
6.76348
21
-3.08341
0
LINE
8
BLACK
6
CONTINUOUS
10
6.76348
20
-3.08341
11
6.76585
21
-3.06948
0
LINE
8
BLACK
6
CONTINUOUS
10
6.76585
20
-3.06948
11
6.76976
21
-3.05591
0
LINE
8
BLACK
6
CONTINUOUS
10
6.76976
20
-3.05591
11
6.77517
21
-3.04285
0
LINE
8
BLACK
6
CONTINUOUS
10
6.77517
20
-3.04285
11
6.782
21
-3.03049
0
LINE
8
BLACK
6
CONTINUOUS
10
6.782
20
-3.03049
11
6.79018
21
-3.01897
0
LINE
8
BLACK
6
CONTINUOUS
10
6.79018
20
-3.01897
11
6.79959
21
-3.00843
0
LINE
8
BLACK
6
CONTINUOUS
10
6.79959
20
-3.00843
11
6.81012
21
-2.99902
0
LINE
8
BLACK
6
CONTINUOUS
10
6.81012
20
-2.99902
11
6.82165
21
-2.99084
0
LINE
8
BLACK
6
CONTINUOUS
10
6.82165
20
-2.99084
11
6.83401
21
-2.98401
0
LINE
8
BLACK
6
CONTINUOUS
10
6.83401
20
-2.98401
11
6.84706
21
-2.9786
0
LINE
8
BLACK
6
CONTINUOUS
10
6.84706
20
-2.9786
11
6.86064
21
-2.97469
0
LINE
8
BLACK
6
CONTINUOUS
10
6.86064
20
-2.97469
11
6.87457
21
-2.97232
0
LINE
8
BLACK
6
CONTINUOUS
10
6.87457
20
-2.97232
11
6.88867
21
-2.97153
0
LINE
8
BLACK
6
CONTINUOUS
10
6.88867
20
-2.97153
11
6.90278
21
-2.97232
0
LINE
8
BLACK
6
CONTINUOUS
10
5.47169
20
-3.00024
11
5.47424
21
-3.00195
0
LINE
8
BLACK
6
CONTINUOUS
10
5.47424
20
-3.00195
11
5.47595
21
-3.0045
0
LINE
8
BLACK
6
CONTINUOUS
10
5.47595
20
-3.0045
11
5.47655
21
-3.00752
0
LINE
8
BLACK
6
CONTINUOUS
10
5.47655
20
-3.00752
11
5.47655
21
-3.20752
0
LINE
8
BLACK
6
CONTINUOUS
10
5.47655
20
-3.20752
11
5.47595
21
-3.21053
0
LINE
8
BLACK
6
CONTINUOUS
10
5.47595
20
-3.21053
11
5.47424
21
-3.21308
0
LINE
8
BLACK
6
CONTINUOUS
10
5.47424
20
-3.21308
11
5.47169
21
-3.21479
0
LINE
8
BLACK
6
CONTINUOUS
10
5.47169
20
-3.21479
11
5.46867
21
-3.21539
0
LINE
8
BLACK
6
CONTINUOUS
10
5.46867
20
-3.21539
11
5.3986
21
-3.21539
0
LINE
8
BLACK
6
CONTINUOUS
10
5.3986
20
-3.21539
11
5.39558
21
-3.21479
0
LINE
8
BLACK
6
CONTINUOUS
10
5.39558
20
-3.21479
11
5.39303
21
-3.21308
0
LINE
8
BLACK
6
CONTINUOUS
10
5.39303
20
-3.21308
11
5.39132
21
-3.21053
0
LINE
8
BLACK
6
CONTINUOUS
10
5.39132
20
-3.21053
11
5.39072
21
-3.20752
0
LINE
8
BLACK
6
CONTINUOUS
10
5.39072
20
-3.20752
11
5.39072
21
-3.00752
0
LINE
8
BLACK
6
CONTINUOUS
10
5.39072
20
-3.00752
11
5.39132
21
-3.0045
0
LINE
8
BLACK
6
CONTINUOUS
10
5.39132
20
-3.0045
11
5.39303
21
-3.00195
0
LINE
8
BLACK
6
CONTINUOUS
10
5.39303
20
-3.00195
11
5.39558
21
-3.00024
0
LINE
8
BLACK
6
CONTINUOUS
10
5.39558
20
-3.00024
11
5.3986
21
-2.99964
0
LINE
8
BLACK
6
CONTINUOUS
10
5.3986
20
-2.99964
11
5.46867
21
-2.99964
0
LINE
8
BLACK
6
CONTINUOUS
10
5.46867
20
-2.99964
11
5.47169
21
-3.00024
0
LINE
8
BLACK
6
CONTINUOUS
10
5.84177
20
-3.00024
11
5.84432
21
-3.00195
0
LINE
8
BLACK
6
CONTINUOUS
10
5.84432
20
-3.00195
11
5.84603
21
-3.0045
0
LINE
8
BLACK
6
CONTINUOUS
10
5.84603
20
-3.0045
11
5.84663
21
-3.00752
0
LINE
8
BLACK
6
CONTINUOUS
10
5.84663
20
-3.00752
11
5.84663
21
-3.20752
0
LINE
8
BLACK
6
CONTINUOUS
10
5.84663
20
-3.20752
11
5.84603
21
-3.21053
0
LINE
8
BLACK
6
CONTINUOUS
10
5.84603
20
-3.21053
11
5.84432
21
-3.21308
0
LINE
8
BLACK
6
CONTINUOUS
10
5.84432
20
-3.21308
11
5.84177
21
-3.21479
0
LINE
8
BLACK
6
CONTINUOUS
10
5.84177
20
-3.21479
11
5.83875
21
-3.21539
0
LINE
8
BLACK
6
CONTINUOUS
10
5.83875
20
-3.21539
11
5.76867
21
-3.21539
0
LINE
8
BLACK
6
CONTINUOUS
10
5.76867
20
-3.21539
11
5.76566
21
-3.21479
0
LINE
8
BLACK
6
CONTINUOUS
10
5.76566
20
-3.21479
11
5.76311
21
-3.21308
0
LINE
8
BLACK
6
CONTINUOUS
10
5.76311
20
-3.21308
11
5.7614
21
-3.21053
0
LINE
8
BLACK
6
CONTINUOUS
10
5.7614
20
-3.21053
11
5.7608
21
-3.20752
0
LINE
8
BLACK
6
CONTINUOUS
10
5.7608
20
-3.20752
11
5.7608
21
-3.00752
0
LINE
8
BLACK
6
CONTINUOUS
10
5.7608
20
-3.00752
11
5.7614
21
-3.0045
0
LINE
8
BLACK
6
CONTINUOUS
10
5.7614
20
-3.0045
11
5.76311
21
-3.00195
0
LINE
8
BLACK
6
CONTINUOUS
10
5.76311
20
-3.00195
11
5.76566
21
-3.00024
0
LINE
8
BLACK
6
CONTINUOUS
10
5.76566
20
-3.00024
11
5.76867
21
-2.99964
0
LINE
8
BLACK
6
CONTINUOUS
10
5.76867
20
-2.99964
11
5.83875
21
-2.99964
0
LINE
8
BLACK
6
CONTINUOUS
10
5.83875
20
-2.99964
11
5.84177
21
-3.00024
0
LINE
8
BLACK
6
CONTINUOUS
10
5.69964
20
-3.02229
11
5.7022
21
-3.024
0
LINE
8
BLACK
6
CONTINUOUS
10
5.7022
20
-3.024
11
5.7039
21
-3.02655
0
LINE
8
BLACK
6
CONTINUOUS
10
5.7039
20
-3.02655
11
5.7045
21
-3.02956
0
LINE
8
BLACK
6
CONTINUOUS
10
5.7045
20
-3.02956
11
5.7045
21
-3.18547
0
LINE
8
BLACK
6
CONTINUOUS
10
5.7045
20
-3.18547
11
5.7039
21
-3.18848
0
LINE
8
BLACK
6
CONTINUOUS
10
5.7039
20
-3.18848
11
5.7022
21
-3.19104
0
LINE
8
BLACK
6
CONTINUOUS
10
5.7022
20
-3.19104
11
5.69964
21
-3.19274
0
LINE
8
BLACK
6
CONTINUOUS
10
5.69964
20
-3.19274
11
5.69663
21
-3.19334
0
LINE
8
BLACK
6
CONTINUOUS
10
5.69663
20
-3.19334
11
5.54072
21
-3.19334
0
LINE
8
BLACK
6
CONTINUOUS
10
5.54072
20
-3.19334
11
5.53771
21
-3.19274
0
LINE
8
BLACK
6
CONTINUOUS
10
5.53771
20
-3.19274
11
5.53515
21
-3.19104
0
LINE
8
BLACK
6
CONTINUOUS
10
5.53515
20
-3.19104
11
5.53345
21
-3.18848
0
LINE
8
BLACK
6
CONTINUOUS
10
5.53345
20
-3.18848
11
5.53285
21
-3.18547
0
LINE
8
BLACK
6
CONTINUOUS
10
5.53285
20
-3.18547
11
5.53285
21
-3.02956
0
LINE
8
BLACK
6
CONTINUOUS
10
5.53285
20
-3.02956
11
5.53345
21
-3.02655
0
LINE
8
BLACK
6
CONTINUOUS
10
5.53345
20
-3.02655
11
5.53515
21
-3.024
0
LINE
8
BLACK
6
CONTINUOUS
10
5.53515
20
-3.024
11
5.53771
21
-3.02229
0
LINE
8
BLACK
6
CONTINUOUS
10
5.53771
20
-3.02229
11
5.54072
21
-3.02169
0
LINE
8
BLACK
6
CONTINUOUS
10
5.54072
20
-3.02169
11
5.69663
21
-3.02169
0
LINE
8
BLACK
6
CONTINUOUS
10
5.69663
20
-3.02169
11
5.69964
21
-3.02229
0
LINE
8
BLACK
6
CONTINUOUS
10
6.64311
20
-3.12046
11
6.64809
21
-3.12221
0
LINE
8
BLACK
6
CONTINUOUS
10
6.64809
20
-3.12221
11
6.65234
21
-3.12534
0
LINE
8
BLACK
6
CONTINUOUS
10
6.65234
20
-3.12534
11
6.65548
21
-3.12959
0
LINE
8
BLACK
6
CONTINUOUS
10
6.65548
20
-3.12959
11
6.65722
21
-3.13458
0
LINE
8
BLACK
6
CONTINUOUS
10
6.65722
20
-3.13458
11
6.65753
21
-3.13787
0
LINE
8
BLACK
6
CONTINUOUS
10
6.65753
20
-3.13787
11
6.65753
21
-3.1674
0
LINE
8
BLACK
6
CONTINUOUS
10
6.65753
20
-3.1674
11
6.65722
21
-3.17069
0
LINE
8
BLACK
6
CONTINUOUS
10
6.65722
20
-3.17069
11
6.65548
21
-3.17568
0
LINE
8
BLACK
6
CONTINUOUS
10
6.65548
20
-3.17568
11
6.65234
21
-3.17993
0
LINE
8
BLACK
6
CONTINUOUS
10
6.65234
20
-3.17993
11
6.64809
21
-3.18306
0
LINE
8
BLACK
6
CONTINUOUS
10
6.64809
20
-3.18306
11
6.64311
21
-3.18481
0
LINE
8
BLACK
6
CONTINUOUS
10
6.64311
20
-3.18481
11
6.63982
21
-3.18512
0
LINE
8
BLACK
6
CONTINUOUS
10
6.63982
20
-3.18512
11
6.5906
21
-3.18512
0
LINE
8
BLACK
6
CONTINUOUS
10
6.5906
20
-3.18512
11
6.58731
21
-3.18481
0
LINE
8
BLACK
6
CONTINUOUS
10
6.58731
20
-3.18481
11
6.58233
21
-3.18306
0
LINE
8
BLACK
6
CONTINUOUS
10
6.58233
20
-3.18306
11
6.57808
21
-3.17993
0
LINE
8
BLACK
6
CONTINUOUS
10
6.57808
20
-3.17993
11
6.57494
21
-3.17568
0
LINE
8
BLACK
6
CONTINUOUS
10
6.57494
20
-3.17568
11
6.5732
21
-3.17069
0
LINE
8
BLACK
6
CONTINUOUS
10
6.5732
20
-3.17069
11
6.57289
21
-3.1674
0
LINE
8
BLACK
6
CONTINUOUS
10
6.57289
20
-3.1674
11
6.57289
21
-3.13787
0
LINE
8
BLACK
6
CONTINUOUS
10
6.57289
20
-3.13787
11
6.5732
21
-3.13458
0
LINE
8
BLACK
6
CONTINUOUS
10
6.5732
20
-3.13458
11
6.57494
21
-3.12959
0
LINE
8
BLACK
6
CONTINUOUS
10
6.57494
20
-3.12959
11
6.57808
21
-3.12534
0
LINE
8
BLACK
6
CONTINUOUS
10
6.57808
20
-3.12534
11
6.58233
21
-3.12221
0
LINE
8
BLACK
6
CONTINUOUS
10
6.58233
20
-3.12221
11
6.58731
21
-3.12046
0
LINE
8
BLACK
6
CONTINUOUS
10
6.58731
20
-3.12046
11
6.5906
21
-3.12015
0
LINE
8
BLACK
6
CONTINUOUS
10
6.5906
20
-3.12015
11
6.63982
21
-3.12015
0
LINE
8
BLACK
6
CONTINUOUS
10
6.63982
20
-3.12015
11
6.64311
21
-3.12046
0
LINE
8
BLACK
6
CONTINUOUS
10
7.16636
20
-3.0429
11
7.17374
21
-3.04514
0
LINE
8
BLACK
6
CONTINUOUS
10
7.17374
20
-3.04514
11
7.18055
21
-3.04878
0
LINE
8
BLACK
6
CONTINUOUS
10
7.18055
20
-3.04878
11
7.18651
21
-3.05368
0
LINE
8
BLACK
6
CONTINUOUS
10
7.18651
20
-3.05368
11
7.19141
21
-3.05964
0
LINE
8
BLACK
6
CONTINUOUS
10
7.19141
20
-3.05964
11
7.19505
21
-3.06645
0
LINE
8
BLACK
6
CONTINUOUS
10
7.19505
20
-3.06645
11
7.19729
21
-3.07384
0
LINE
8
BLACK
6
CONTINUOUS
10
7.19729
20
-3.07384
11
7.19804
21
-3.08152
0
LINE
8
BLACK
6
CONTINUOUS
10
7.19804
20
-3.08152
11
7.19729
21
-3.0892
0
LINE
8
BLACK
6
CONTINUOUS
10
7.19729
20
-3.0892
11
7.19505
21
-3.09658
0
LINE
8
BLACK
6
CONTINUOUS
10
7.19505
20
-3.09658
11
7.19141
21
-3.10339
0
LINE
8
BLACK
6
CONTINUOUS
10
7.19141
20
-3.10339
11
7.18651
21
-3.10936
0
LINE
8
BLACK
6
CONTINUOUS
10
7.18651
20
-3.10936
11
7.18055
21
-3.11425
0
LINE
8
BLACK
6
CONTINUOUS
10
7.18055
20
-3.11425
11
7.17374
21
-3.11789
0
LINE
8
BLACK
6
CONTINUOUS
10
7.17374
20
-3.11789
11
7.16636
21
-3.12013
0
LINE
8
BLACK
6
CONTINUOUS
10
7.16636
20
-3.12013
11
7.15867
21
-3.12089
0
LINE
8
BLACK
6
CONTINUOUS
10
7.15867
20
-3.12089
11
7.15099
21
-3.12013
0
LINE
8
BLACK
6
CONTINUOUS
10
7.15099
20
-3.12013
11
7.14361
21
-3.11789
0
LINE
8
BLACK
6
CONTINUOUS
10
7.14361
20
-3.11789
11
7.1368
21
-3.11425
0
LINE
8
BLACK
6
CONTINUOUS
10
7.1368
20
-3.11425
11
7.13084
21
-3.10936
0
LINE
8
BLACK
6
CONTINUOUS
10
7.13084
20
-3.10936
11
7.12594
21
-3.10339
0
LINE
8
BLACK
6
CONTINUOUS
10
7.12594
20
-3.10339
11
7.1223
21
-3.09658
0
LINE
8
BLACK
6
CONTINUOUS
10
7.1223
20
-3.09658
11
7.12006
21
-3.0892
0
LINE
8
BLACK
6
CONTINUOUS
10
7.12006
20
-3.0892
11
7.1193
21
-3.08152
0
LINE
8
BLACK
6
CONTINUOUS
10
7.1193
20
-3.08152
11
7.12006
21
-3.07384
0
LINE
8
BLACK
6
CONTINUOUS
10
7.12006
20
-3.07384
11
7.1223
21
-3.06645
0
LINE
8
BLACK
6
CONTINUOUS
10
7.1223
20
-3.06645
11
7.12594
21
-3.05964
0
LINE
8
BLACK
6
CONTINUOUS
10
7.12594
20
-3.05964
11
7.13084
21
-3.05368
0
LINE
8
BLACK
6
CONTINUOUS
10
7.13084
20
-3.05368
11
7.1368
21
-3.04878
0
LINE
8
BLACK
6
CONTINUOUS
10
7.1368
20
-3.04878
11
7.14361
21
-3.04514
0
LINE
8
BLACK
6
CONTINUOUS
10
7.14361
20
-3.04514
11
7.15099
21
-3.0429
0
LINE
8
BLACK
6
CONTINUOUS
10
7.15099
20
-3.0429
11
7.15867
21
-3.04215
0
LINE
8
BLACK
6
CONTINUOUS
10
7.15867
20
-3.04215
11
7.16636
21
-3.0429
0
LINE
8
BLACK
6
CONTINUOUS
10
6.13251
20
-3.03283
11
6.13953
21
-3.03496
0
LINE
8
BLACK
6
CONTINUOUS
10
6.13953
20
-3.03496
11
6.146
21
-3.03842
0
LINE
8
BLACK
6
CONTINUOUS
10
6.146
20
-3.03842
11
6.15167
21
-3.04307
0
LINE
8
BLACK
6
CONTINUOUS
10
6.15167
20
-3.04307
11
6.15632
21
-3.04874
0
LINE
8
BLACK
6
CONTINUOUS
10
6.15632
20
-3.04874
11
6.15977
21
-3.0552
0
LINE
8
BLACK
6
CONTINUOUS
10
6.15977
20
-3.0552
11
6.1619
21
-3.06222
0
LINE
8
BLACK
6
CONTINUOUS
10
6.1619
20
-3.06222
11
6.16262
21
-3.06952
0
LINE
8
BLACK
6
CONTINUOUS
10
6.16262
20
-3.06952
11
6.1619
21
-3.07681
0
LINE
8
BLACK
6
CONTINUOUS
10
6.1619
20
-3.07681
11
6.15977
21
-3.08383
0
LINE
8
BLACK
6
CONTINUOUS
10
6.15977
20
-3.08383
11
6.15632
21
-3.0903
0
LINE
8
BLACK
6
CONTINUOUS
10
6.15632
20
-3.0903
11
6.15167
21
-3.09596
0
LINE
8
BLACK
6
CONTINUOUS
10
6.15167
20
-3.09596
11
6.146
21
-3.10062
0
LINE
8
BLACK
6
CONTINUOUS
10
6.146
20
-3.10062
11
6.13953
21
-3.10407
0
LINE
8
BLACK
6
CONTINUOUS
10
6.13953
20
-3.10407
11
6.13251
21
-3.1062
0
LINE
8
BLACK
6
CONTINUOUS
10
6.13251
20
-3.1062
11
6.12522
21
-3.10692
0
LINE
8
BLACK
6
CONTINUOUS
10
6.12522
20
-3.10692
11
6.11792
21
-3.1062
0
LINE
8
BLACK
6
CONTINUOUS
10
6.11792
20
-3.1062
11
6.11091
21
-3.10407
0
LINE
8
BLACK
6
CONTINUOUS
10
6.11091
20
-3.10407
11
6.10444
21
-3.10062
0
LINE
8
BLACK
6
CONTINUOUS
10
6.10444
20
-3.10062
11
6.09877
21
-3.09596
0
LINE
8
BLACK
6
CONTINUOUS
10
6.09877
20
-3.09596
11
6.09412
21
-3.0903
0
LINE
8
BLACK
6
CONTINUOUS
10
6.09412
20
-3.0903
11
6.09066
21
-3.08383
0
LINE
8
BLACK
6
CONTINUOUS
10
6.09066
20
-3.08383
11
6.08854
21
-3.07681
0
LINE
8
BLACK
6
CONTINUOUS
10
6.08854
20
-3.07681
11
6.08782
21
-3.06952
0
LINE
8
BLACK
6
CONTINUOUS
10
6.08782
20
-3.06952
11
6.08854
21
-3.06222
0
LINE
8
BLACK
6
CONTINUOUS
10
6.08854
20
-3.06222
11
6.09066
21
-3.0552
0
LINE
8
BLACK
6
CONTINUOUS
10
6.09066
20
-3.0552
11
6.09412
21
-3.04874
0
LINE
8
BLACK
6
CONTINUOUS
10
6.09412
20
-3.04874
11
6.09877
21
-3.04307
0
LINE
8
BLACK
6
CONTINUOUS
10
6.09877
20
-3.04307
11
6.10444
21
-3.03842
0
LINE
8
BLACK
6
CONTINUOUS
10
6.10444
20
-3.03842
11
6.11091
21
-3.03496
0
LINE
8
BLACK
6
CONTINUOUS
10
6.11091
20
-3.03496
11
6.11792
21
-3.03283
0
LINE
8
BLACK
6
CONTINUOUS
10
6.11792
20
-3.03283
11
6.12522
21
-3.03212
0
LINE
8
BLACK
6
CONTINUOUS
10
6.12522
20
-3.03212
11
6.13251
21
-3.03283
0
LINE
8
BLACK
6
CONTINUOUS
10
6.32464
20
-3.03283
11
6.33166
21
-3.03496
0
LINE
8
BLACK
6
CONTINUOUS
10
6.33166
20
-3.03496
11
6.33812
21
-3.03842
0
LINE
8
BLACK
6
CONTINUOUS
10
6.33812
20
-3.03842
11
6.34379
21
-3.04307
0
LINE
8
BLACK
6
CONTINUOUS
10
6.34379
20
-3.04307
11
6.34844
21
-3.04874
0
LINE
8
BLACK
6
CONTINUOUS
10
6.34844
20
-3.04874
11
6.3519
21
-3.0552
0
LINE
8
BLACK
6
CONTINUOUS
10
6.3519
20
-3.0552
11
6.35403
21
-3.06222
0
LINE
8
BLACK
6
CONTINUOUS
10
6.35403
20
-3.06222
11
6.35475
21
-3.06952
0
LINE
8
BLACK
6
CONTINUOUS
10
6.35475
20
-3.06952
11
6.35403
21
-3.07681
0
LINE
8
BLACK
6
CONTINUOUS
10
6.35403
20
-3.07681
11
6.3519
21
-3.08383
0
LINE
8
BLACK
6
CONTINUOUS
10
6.3519
20
-3.08383
11
6.34844
21
-3.0903
0
LINE
8
BLACK
6
CONTINUOUS
10
6.34844
20
-3.0903
11
6.34379
21
-3.09596
0
LINE
8
BLACK
6
CONTINUOUS
10
6.34379
20
-3.09596
11
6.33812
21
-3.10062
0
LINE
8
BLACK
6
CONTINUOUS
10
6.33812
20
-3.10062
11
6.33166
21
-3.10407
0
LINE
8
BLACK
6
CONTINUOUS
10
6.33166
20
-3.10407
11
6.32464
21
-3.1062
0
LINE
8
BLACK
6
CONTINUOUS
10
6.32464
20
-3.1062
11
6.31734
21
-3.10692
0
LINE
8
BLACK
6
CONTINUOUS
10
6.31734
20
-3.10692
11
6.31005
21
-3.1062
0
LINE
8
BLACK
6
CONTINUOUS
10
6.31005
20
-3.1062
11
6.30303
21
-3.10407
0
LINE
8
BLACK
6
CONTINUOUS
10
6.30303
20
-3.10407
11
6.29656
21
-3.10062
0
LINE
8
BLACK
6
CONTINUOUS
10
6.29656
20
-3.10062
11
6.2909
21
-3.09596
0
LINE
8
BLACK
6
CONTINUOUS
10
6.2909
20
-3.09596
11
6.28625
21
-3.0903
0
LINE
8
BLACK
6
CONTINUOUS
10
6.28625
20
-3.0903
11
6.28279
21
-3.08383
0
LINE
8
BLACK
6
CONTINUOUS
10
6.28279
20
-3.08383
11
6.28066
21
-3.07681
0
LINE
8
BLACK
6
CONTINUOUS
10
6.28066
20
-3.07681
11
6.27994
21
-3.06952
0
LINE
8
BLACK
6
CONTINUOUS
10
6.27994
20
-3.06952
11
6.28066
21
-3.06222
0
LINE
8
BLACK
6
CONTINUOUS
10
6.28066
20
-3.06222
11
6.28279
21
-3.0552
0
LINE
8
BLACK
6
CONTINUOUS
10
6.28279
20
-3.0552
11
6.28625
21
-3.04874
0
LINE
8
BLACK
6
CONTINUOUS
10
6.28625
20
-3.04874
11
6.2909
21
-3.04307
0
LINE
8
BLACK
6
CONTINUOUS
10
6.2909
20
-3.04307
11
6.29656
21
-3.03842
0
LINE
8
BLACK
6
CONTINUOUS
10
6.29656
20
-3.03842
11
6.30303
21
-3.03496
0
LINE
8
BLACK
6
CONTINUOUS
10
6.30303
20
-3.03496
11
6.31005
21
-3.03283
0
LINE
8
BLACK
6
CONTINUOUS
10
6.31005
20
-3.03283
11
6.31734
21
-3.03212
0
LINE
8
BLACK
6
CONTINUOUS
10
6.31734
20
-3.03212
11
6.32464
21
-3.03283
0
LINE
8
BLACK
6
CONTINUOUS
10
6.64311
20
-3.01023
11
6.64809
21
-3.01197
0
LINE
8
BLACK
6
CONTINUOUS
10
6.64809
20
-3.01197
11
6.65234
21
-3.01511
0
LINE
8
BLACK
6
CONTINUOUS
10
6.65234
20
-3.01511
11
6.65548
21
-3.01936
0
LINE
8
BLACK
6
CONTINUOUS
10
6.65548
20
-3.01936
11
6.65722
21
-3.02434
0
LINE
8
BLACK
6
CONTINUOUS
10
6.65722
20
-3.02434
11
6.65753
21
-3.02763
0
LINE
8
BLACK
6
CONTINUOUS
10
6.65753
20
-3.02763
11
6.65753
21
-3.05716
0
LINE
8
BLACK
6
CONTINUOUS
10
6.65753
20
-3.05716
11
6.65722
21
-3.06046
0
LINE
8
BLACK
6
CONTINUOUS
10
6.65722
20
-3.06046
11
6.65548
21
-3.06544
0
LINE
8
BLACK
6
CONTINUOUS
10
6.65548
20
-3.06544
11
6.65234
21
-3.06969
0
LINE
8
BLACK
6
CONTINUOUS
10
6.65234
20
-3.06969
11
6.64809
21
-3.07283
0
LINE
8
BLACK
6
CONTINUOUS
10
6.64809
20
-3.07283
11
6.64311
21
-3.07457
0
LINE
8
BLACK
6
CONTINUOUS
10
6.64311
20
-3.07457
11
6.63982
21
-3.07488
0
LINE
8
BLACK
6
CONTINUOUS
10
6.63982
20
-3.07488
11
6.5906
21
-3.07488
0
LINE
8
BLACK
6
CONTINUOUS
10
6.5906
20
-3.07488
11
6.58731
21
-3.07457
0
LINE
8
BLACK
6
CONTINUOUS
10
6.58731
20
-3.07457
11
6.58233
21
-3.07283
0
LINE
8
BLACK
6
CONTINUOUS
10
6.58233
20
-3.07283
11
6.57808
21
-3.06969
0
LINE
8
BLACK
6
CONTINUOUS
10
6.57808
20
-3.06969
11
6.57494
21
-3.06544
0
LINE
8
BLACK
6
CONTINUOUS
10
6.57494
20
-3.06544
11
6.5732
21
-3.06046
0
LINE
8
BLACK
6
CONTINUOUS
10
6.5732
20
-3.06046
11
6.57289
21
-3.05716
0
LINE
8
BLACK
6
CONTINUOUS
10
6.57289
20
-3.05716
11
6.57289
21
-3.02763
0
LINE
8
BLACK
6
CONTINUOUS
10
6.57289
20
-3.02763
11
6.5732
21
-3.02434
0
LINE
8
BLACK
6
CONTINUOUS
10
6.5732
20
-3.02434
11
6.57494
21
-3.01936
0
LINE
8
BLACK
6
CONTINUOUS
10
6.57494
20
-3.01936
11
6.57808
21
-3.01511
0
LINE
8
BLACK
6
CONTINUOUS
10
6.57808
20
-3.01511
11
6.58233
21
-3.01197
0
LINE
8
BLACK
6
CONTINUOUS
10
6.58233
20
-3.01197
11
6.58731
21
-3.01023
0
LINE
8
BLACK
6
CONTINUOUS
10
6.58731
20
-3.01023
11
6.5906
21
-3.00992
0
LINE
8
BLACK
6
CONTINUOUS
10
6.5906
20
-3.00992
11
6.63982
21
-3.00992
0
LINE
8
BLACK
6
CONTINUOUS
10
6.63982
20
-3.00992
11
6.64311
21
-3.01023
  0
ENDSEC
  0
EOF
