  0
SECTION
  2
HEADER
  9
$ANGBASE
  50
0.0
  9
$ANGDIR
  70
1
  9
$MEASUREMENT
  70
0
  0
ENDSEC
  0
SECTION
  2
TABLES
  0
TABLE
  2
LTYPE
  70
4
  0
LTYPE
  5
40F
  2
CONTINUOUS
  70
0
  3
Solid line
  72
65
  73
0
  40
0.0
  0
LTYPE
  5
410
  2
DASHDOT
 70
0
  3
Dash Dot ____ _ ____ _
 72
65
 73
4
 40
2.0
 49
1.25
 49
-0.25
 49
0.25
 49
-0.25
  0
LTYPE
  5
411
  2
DASHED
 70
0
  3
Dashed __ __ __ __ __
 72
65
 73
2
 40
0.75
 49
0.5
 49
-0.25
  0
LTYPE
  5
43B
  2
DOTTED
 70
0
  3
Dotted .  .  .  .
 72
65
 73
2
 40
0.2
 49
0.0
 49
-0.2
  0
ENDTAB
  0
TABLE
  2
STYLE
  70
4
  0
STYLE
  2
KICAD
  70
0
  40
0
  41
1
  42
1
  50
0
  71
0
  3
isocp.shx
  0
STYLE
  2
KICADB
  70
0
  40
0
  41
1
  42
1
  50
0
  71
0
  3
isocp.shx
  0
STYLE
  2
KICADI
  70
0
  40
0
  41
1
  42
1
  50
15
  71
0
  3
isocp.shx
  0
STYLE
  2
KICADBI
  70
0
  40
0
  41
1
  42
1
  50
15
  71
0
  3
isocp.shx
  0
ENDTAB
  0
TABLE
  2
LAYER
  70
1
  0
LAYER
  2
BLACK
  70
0
  62
7
  6
CONTINUOUS
  0
ENDTAB
  0
ENDSEC
  0
SECTION
  2
ENTITIES
0
LINE
8
BLACK
6
CONTINUOUS
10
4.9973914173228344
20
-4.7340825590551177
11
5.0058431889763781
21
-4.7363472047244093
0
LINE
8
BLACK
6
CONTINUOUS
10
5.0058431889763781
20
-4.7363472047244093
11
5.0137732677165356
21
-4.7400450787401578
0
LINE
8
BLACK
6
CONTINUOUS
10
5.0137732677165356
20
-4.7400450787401578
11
5.0209407480314958
21
-4.745063779527559
0
LINE
8
BLACK
6
CONTINUOUS
10
5.0209407480314958
20
-4.745063779527559
11
5.0271278740157479
21
-4.7512509055118111
0
LINE
8
BLACK
6
CONTINUOUS
10
5.0271278740157479
20
-4.7512509055118111
11
5.0321465748031491
21
-4.7584183858267712
0
LINE
8
BLACK
6
CONTINUOUS
10
5.0321465748031491
20
-4.7584183858267712
11
5.0358444488188976
21
-4.7663484645669287
0
LINE
8
BLACK
6
CONTINUOUS
10
5.0358444488188976
20
-4.7663484645669287
11
5.0381090944881892
21
-4.7748002362204724
0
LINE
8
BLACK
6
CONTINUOUS
10
5.0381090944881892
20
-4.7748002362204724
11
5.0388716929133857
21
-4.7835168110236221
0
LINE
8
BLACK
6
CONTINUOUS
10
5.0388716929133857
20
-4.7835168110236221
11
5.0381090944881892
21
-4.7922333858267718
0
LINE
8
BLACK
6
CONTINUOUS
10
5.0381090944881892
20
-4.7922333858267718
11
5.0358444488188976
21
-4.8006851574803147
0
LINE
8
BLACK
6
CONTINUOUS
10
5.0358444488188976
20
-4.8006851574803147
11
5.0321465748031491
21
-4.8086152362204722
0
LINE
8
BLACK
6
CONTINUOUS
10
5.0321465748031491
20
-4.8086152362204722
11
5.0271278740157479
21
-4.8157827165354332
0
LINE
8
BLACK
6
CONTINUOUS
10
5.0271278740157479
20
-4.8157827165354332
11
5.0209407480314958
21
-4.8219698425196853
0
LINE
8
BLACK
6
CONTINUOUS
10
5.0209407480314958
20
-4.8219698425196853
11
5.0137732677165356
21
-4.8269885433070865
0
LINE
8
BLACK
6
CONTINUOUS
10
5.0137732677165356
20
-4.8269885433070865
11
5.0058431889763781
21
-4.8306864173228341
0
LINE
8
BLACK
6
CONTINUOUS
10
5.0058431889763781
20
-4.8306864173228341
11
4.9973914173228344
21
-4.8329510629921257
0
LINE
8
BLACK
6
CONTINUOUS
10
4.9973914173228344
20
-4.8329510629921257
11
4.9886748425196847
21
-4.8337136614173231
0
LINE
8
BLACK
6
CONTINUOUS
10
4.9886748425196847
20
-4.8337136614173231
11
4.979958267716535
21
-4.8329510629921257
0
LINE
8
BLACK
6
CONTINUOUS
10
4.979958267716535
20
-4.8329510629921257
11
4.9715064960629922
21
-4.8306864173228341
0
LINE
8
BLACK
6
CONTINUOUS
10
4.9715064960629922
20
-4.8306864173228341
11
4.9635764173228347
21
-4.8269885433070865
0
LINE
8
BLACK
6
CONTINUOUS
10
4.9635764173228347
20
-4.8269885433070865
11
4.9564089370078737
21
-4.8219698425196853
0
LINE
8
BLACK
6
CONTINUOUS
10
4.9564089370078737
20
-4.8219698425196853
11
4.9502218110236216
21
-4.8157827165354332
0
LINE
8
BLACK
6
CONTINUOUS
10
4.9502218110236216
20
-4.8157827165354332
11
4.9452031102362204
21
-4.8086152362204722
0
LINE
8
BLACK
6
CONTINUOUS
10
4.9452031102362204
20
-4.8086152362204722
11
4.9415052362204719
21
-4.8006851574803147
0
LINE
8
BLACK
6
CONTINUOUS
10
4.9415052362204719
20
-4.8006851574803147
11
4.9392405905511811
21
-4.7922333858267718
0
LINE
8
BLACK
6
CONTINUOUS
10
4.9392405905511811
20
-4.7922333858267718
11
4.9384779921259838
21
-4.7835168110236221
0
LINE
8
BLACK
6
CONTINUOUS
10
4.9384779921259838
20
-4.7835168110236221
11
4.9392405905511811
21
-4.7748002362204724
0
LINE
8
BLACK
6
CONTINUOUS
10
4.9392405905511811
20
-4.7748002362204724
11
4.9415052362204719
21
-4.7663484645669287
0
LINE
8
BLACK
6
CONTINUOUS
10
4.9415052362204719
20
-4.7663484645669287
11
4.9452031102362204
21
-4.7584183858267712
0
LINE
8
BLACK
6
CONTINUOUS
10
4.9452031102362204
20
-4.7584183858267712
11
4.9502218110236216
21
-4.7512509055118111
0
LINE
8
BLACK
6
CONTINUOUS
10
4.9502218110236216
20
-4.7512509055118111
11
4.9564089370078737
21
-4.745063779527559
0
LINE
8
BLACK
6
CONTINUOUS
10
4.9564089370078737
20
-4.745063779527559
11
4.9635764173228347
21
-4.7400450787401578
0
LINE
8
BLACK
6
CONTINUOUS
10
4.9635764173228347
20
-4.7400450787401578
11
4.9715064960629922
21
-4.7363472047244093
0
LINE
8
BLACK
6
CONTINUOUS
10
4.9715064960629922
20
-4.7363472047244093
11
4.979958267716535
21
-4.7340825590551177
0
LINE
8
BLACK
6
CONTINUOUS
10
4.979958267716535
20
-4.7340825590551177
11
4.9886748425196847
21
-4.7333199606299212
0
LINE
8
BLACK
6
CONTINUOUS
10
4.9886748425196847
20
-4.7333199606299212
11
4.9973914173228344
21
-4.7340825590551177
0
LINE
8
BLACK
6
CONTINUOUS
10
4.9409977952755906
20
-4.7919235826771649
11
4.9431819291338579
21
-4.8000748818897634
0
LINE
8
BLACK
6
CONTINUOUS
10
4.9431819291338579
20
-4.8000748818897634
11
4.946748346456693
21
-4.8077231102362203
0
LINE
8
BLACK
6
CONTINUOUS
10
4.946748346456693
20
-4.8077231102362203
11
4.9515886614173228
21
-4.8146357874015751
0
LINE
8
BLACK
6
CONTINUOUS
10
4.9515886614173228
20
-4.8146357874015751
11
4.9575558661417318
21
-4.8206029921259841
0
LINE
8
BLACK
6
CONTINUOUS
10
4.9575558661417318
20
-4.8206029921259841
11
4.9644685433070865
21
-4.8254433070866138
0
LINE
8
BLACK
6
CONTINUOUS
10
4.9644685433070865
20
-4.8254433070866138
11
4.9721167716535435
21
-4.829009724409449
0
LINE
8
BLACK
6
CONTINUOUS
10
4.9721167716535435
20
-4.829009724409449
11
4.980268070866142
21
-4.8311938582677163
0
LINE
8
BLACK
6
CONTINUOUS
10
4.980268070866142
20
-4.8311938582677163
11
4.9886748425196847
21
-4.8319293700787398
0
LINE
8
BLACK
6
CONTINUOUS
10
4.9886748425196847
20
-4.8319293700787398
11
4.9970816141732284
21
-4.8311938582677163
0
LINE
8
BLACK
6
CONTINUOUS
10
4.9970816141732284
20
-4.8311938582677163
11
5.0052329133858269
21
-4.829009724409449
0
LINE
8
BLACK
6
CONTINUOUS
10
5.0052329133858269
20
-4.829009724409449
11
5.0128811417322829
21
-4.8254433070866138
0
LINE
8
BLACK
6
CONTINUOUS
10
5.0128811417322829
20
-4.8254433070866138
11
5.0197938188976376
21
-4.8206029921259841
0
LINE
8
BLACK
6
CONTINUOUS
10
5.0197938188976376
20
-4.8206029921259841
11
5.0257610236220467
21
-4.8146357874015751
0
LINE
8
BLACK
6
CONTINUOUS
10
5.0257610236220467
20
-4.8146357874015751
11
5.0306013385826773
21
-4.8077231102362203
0
LINE
8
BLACK
6
CONTINUOUS
10
5.0306013385826773
20
-4.8077231102362203
11
5.0341677559055116
21
-4.8000748818897634
0
LINE
8
BLACK
6
CONTINUOUS
10
5.0341677559055116
20
-4.8000748818897634
11
5.0363518897637798
21
-4.7919235826771649
0
LINE
8
BLACK
6
CONTINUOUS
10
5.0363518897637798
20
-4.7919235826771649
11
5.0370874015748033
21
-4.7835168110236221
0
LINE
8
BLACK
6
CONTINUOUS
10
5.0370874015748033
20
-4.7835168110236221
11
5.0363518897637798
21
-4.7751100393700785
0
LINE
8
BLACK
6
CONTINUOUS
10
5.0363518897637798
20
-4.7751100393700785
11
5.0341677559055116
21
-4.76695874015748
0
LINE
8
BLACK
6
CONTINUOUS
10
5.0341677559055116
20
-4.76695874015748
11
5.0306013385826773
21
-4.7593105511811027
0
LINE
8
BLACK
6
CONTINUOUS
10
5.0306013385826773
20
-4.7593105511811027
11
5.0257610236220467
21
-4.7523978346456692
0
LINE
8
BLACK
6
CONTINUOUS
10
5.0257610236220467
20
-4.7523978346456692
11
5.0197938188976376
21
-4.7464306299212593
0
LINE
8
BLACK
6
CONTINUOUS
10
5.0197938188976376
20
-4.7464306299212593
11
5.0128811417322829
21
-4.7415903149606295
0
LINE
8
BLACK
6
CONTINUOUS
10
5.0128811417322829
20
-4.7415903149606295
11
5.0052329133858269
21
-4.7380238976377953
0
LINE
8
BLACK
6
CONTINUOUS
10
5.0052329133858269
20
-4.7380238976377953
11
4.9970816141732284
21
-4.7358397637795271
0
LINE
8
BLACK
6
CONTINUOUS
10
4.9970816141732284
20
-4.7358397637795271
11
4.9886748425196847
21
-4.7351042519685036
0
LINE
8
BLACK
6
CONTINUOUS
10
4.9886748425196847
20
-4.7351042519685036
11
4.980268070866142
21
-4.7358397637795271
0
LINE
8
BLACK
6
CONTINUOUS
10
4.980268070866142
20
-4.7358397637795271
11
4.9721167716535435
21
-4.7380238976377953
0
LINE
8
BLACK
6
CONTINUOUS
10
4.9721167716535435
20
-4.7380238976377953
11
4.9644685826771653
21
-4.7415903149606295
0
LINE
8
BLACK
6
CONTINUOUS
10
4.9644685826771653
20
-4.7415903149606295
11
4.9575558661417318
21
-4.7464306299212593
0
LINE
8
BLACK
6
CONTINUOUS
10
4.9575558661417318
20
-4.7464306299212593
11
4.9515886614173228
21
-4.7523978346456692
0
LINE
8
BLACK
6
CONTINUOUS
10
4.9515886614173228
20
-4.7523978346456692
11
4.946748346456693
21
-4.7593105511811027
0
LINE
8
BLACK
6
CONTINUOUS
10
4.946748346456693
20
-4.7593105511811027
11
4.9431819291338579
21
-4.76695874015748
0
LINE
8
BLACK
6
CONTINUOUS
10
4.9431819291338579
20
-4.76695874015748
11
4.9409977952755906
21
-4.7751100393700785
0
LINE
8
BLACK
6
CONTINUOUS
10
4.9409977952755906
20
-4.7751100393700785
11
4.9402622834645671
21
-4.7835168110236221
0
LINE
8
BLACK
6
CONTINUOUS
10
4.9402622834645671
20
-4.7835168110236221
11
4.9409977952755906
21
-4.7919235826771649
0
LINE
8
BLACK
6
CONTINUOUS
10
5.8719031889763782
20
-4.6067687795275587
11
5.8725991732283465
21
-4.6070570472440942
0
LINE
8
BLACK
6
CONTINUOUS
10
5.8725991732283465
20
-4.6070570472440942
11
5.8728874409448819
21
-4.6077530314960633
0
LINE
8
BLACK
6
CONTINUOUS
10
5.8728874409448819
20
-4.6077530314960633
11
5.8728874409448819
21
-4.7872805905511813
0
LINE
8
BLACK
6
CONTINUOUS
10
5.8728874409448819
20
-4.7872805905511813
11
5.8725991732283465
21
-4.7879765748031495
0
LINE
8
BLACK
6
CONTINUOUS
10
5.8725991732283465
20
-4.7879765748031495
11
5.8719031889763782
21
-4.788264842519685
0
LINE
8
BLACK
6
CONTINUOUS
10
5.8719031889763782
20
-4.788264842519685
11
5.7837142125984249
21
-4.788264842519685
0
LINE
8
BLACK
6
CONTINUOUS
10
5.7837142125984249
20
-4.788264842519685
11
5.7830182283464566
21
-4.7879765748031495
0
LINE
8
BLACK
6
CONTINUOUS
10
5.7830182283464566
20
-4.7879765748031495
11
5.7827299606299212
21
-4.7872805905511813
0
LINE
8
BLACK
6
CONTINUOUS
10
5.7827299606299212
20
-4.7872805905511813
11
5.7827299606299212
21
-4.6077530314960633
0
LINE
8
BLACK
6
CONTINUOUS
10
5.7827299606299212
20
-4.6077530314960633
11
5.7830182283464566
21
-4.6070570472440942
0
LINE
8
BLACK
6
CONTINUOUS
10
5.7830182283464566
20
-4.6070570472440942
11
5.7837142125984249
21
-4.6067687795275587
0
LINE
8
BLACK
6
CONTINUOUS
10
5.7837142125984249
20
-4.6067687795275587
11
5.8719031889763782
21
-4.6067687795275587
0
LINE
8
BLACK
6
CONTINUOUS
10
5.7846984645669286
20
-4.608737283464567
11
5.7846984645669286
21
-4.7862963385826767
0
LINE
8
BLACK
6
CONTINUOUS
10
5.7846984645669286
20
-4.7862963385826767
11
5.8709189370078736
21
-4.7862963385826767
0
LINE
8
BLACK
6
CONTINUOUS
10
5.8709189370078736
20
-4.7862963385826767
11
5.8709189370078736
21
-4.608737283464567
0
LINE
8
BLACK
6
CONTINUOUS
10
5.8709189370078736
20
-4.608737283464567
11
5.7846984645669286
21
-4.608737283464567
0
LINE
8
BLACK
6
CONTINUOUS
10
6.0687535826771652
20
-4.6067687795275587
11
6.0694495669291335
21
-4.6070570472440942
0
LINE
8
BLACK
6
CONTINUOUS
10
6.0694495669291335
20
-4.6070570472440942
11
6.069737834645669
21
-4.6077530314960633
0
LINE
8
BLACK
6
CONTINUOUS
10
6.069737834645669
20
-4.6077530314960633
11
6.069737834645669
21
-4.7872805905511813
0
LINE
8
BLACK
6
CONTINUOUS
10
6.069737834645669
20
-4.7872805905511813
11
6.0694495669291335
21
-4.7879765748031495
0
LINE
8
BLACK
6
CONTINUOUS
10
6.0694495669291335
20
-4.7879765748031495
11
6.0687535826771652
21
-4.788264842519685
0
LINE
8
BLACK
6
CONTINUOUS
10
6.0687535826771652
20
-4.788264842519685
11
5.9805646062992128
21
-4.788264842519685
0
LINE
8
BLACK
6
CONTINUOUS
10
5.9805646062992128
20
-4.788264842519685
11
5.9798686220472437
21
-4.7879765748031495
0
LINE
8
BLACK
6
CONTINUOUS
10
5.9798686220472437
20
-4.7879765748031495
11
5.9795803543307082
21
-4.7872805905511813
0
LINE
8
BLACK
6
CONTINUOUS
10
5.9795803543307082
20
-4.7872805905511813
11
5.9795803543307082
21
-4.6077530314960633
0
LINE
8
BLACK
6
CONTINUOUS
10
5.9795803543307082
20
-4.6077530314960633
11
5.9798686220472437
21
-4.6070570472440942
0
LINE
8
BLACK
6
CONTINUOUS
10
5.9798686220472437
20
-4.6070570472440942
11
5.9805646062992128
21
-4.6067687795275587
0
LINE
8
BLACK
6
CONTINUOUS
10
5.9805646062992128
20
-4.6067687795275587
11
6.0687535826771652
21
-4.6067687795275587
0
LINE
8
BLACK
6
CONTINUOUS
10
5.9815488582677165
20
-4.608737283464567
11
5.9815488582677165
21
-4.7862963385826767
0
LINE
8
BLACK
6
CONTINUOUS
10
5.9815488582677165
20
-4.7862963385826767
11
6.0677693307086615
21
-4.7862963385826767
0
LINE
8
BLACK
6
CONTINUOUS
10
6.0677693307086615
20
-4.7862963385826767
11
6.0677693307086615
21
-4.608737283464567
0
LINE
8
BLACK
6
CONTINUOUS
10
6.0677693307086615
20
-4.608737283464567
11
5.9815488582677165
21
-4.608737283464567
0
LINE
8
BLACK
6
CONTINUOUS
10
6.2656039763779523
20
-4.6067687795275587
11
6.2662999606299215
21
-4.6070570472440942
0
LINE
8
BLACK
6
CONTINUOUS
10
6.2662999606299215
20
-4.6070570472440942
11
6.2665882283464569
21
-4.6077530314960633
0
LINE
8
BLACK
6
CONTINUOUS
10
6.2665882283464569
20
-4.6077530314960633
11
6.2665882283464569
21
-4.7872805905511813
0
LINE
8
BLACK
6
CONTINUOUS
10
6.2665882283464569
20
-4.7872805905511813
11
6.2662999606299215
21
-4.7879765748031495
0
LINE
8
BLACK
6
CONTINUOUS
10
6.2662999606299215
20
-4.7879765748031495
11
6.2656039763779523
21
-4.788264842519685
0
LINE
8
BLACK
6
CONTINUOUS
10
6.2656039763779523
20
-4.788264842519685
11
6.1774149999999999
21
-4.788264842519685
0
LINE
8
BLACK
6
CONTINUOUS
10
6.1774149999999999
20
-4.788264842519685
11
6.1767190157480316
21
-4.7879765748031495
0
LINE
8
BLACK
6
CONTINUOUS
10
6.1767190157480316
20
-4.7879765748031495
11
6.1764307480314962
21
-4.7872805905511813
0
LINE
8
BLACK
6
CONTINUOUS
10
6.1764307480314962
20
-4.7872805905511813
11
6.1764307480314962
21
-4.6077530314960633
0
LINE
8
BLACK
6
CONTINUOUS
10
6.1764307480314962
20
-4.6077530314960633
11
6.1767190157480316
21
-4.6070570472440942
0
LINE
8
BLACK
6
CONTINUOUS
10
6.1767190157480316
20
-4.6070570472440942
11
6.1774149999999999
21
-4.6067687795275587
0
LINE
8
BLACK
6
CONTINUOUS
10
6.1774149999999999
20
-4.6067687795275587
11
6.2656039763779523
21
-4.6067687795275587
0
LINE
8
BLACK
6
CONTINUOUS
10
6.1783992519685036
20
-4.608737283464567
11
6.1783992519685036
21
-4.7862963385826767
0
LINE
8
BLACK
6
CONTINUOUS
10
6.1783992519685036
20
-4.7862963385826767
11
6.2646197244094486
21
-4.7862963385826767
0
LINE
8
BLACK
6
CONTINUOUS
10
6.2646197244094486
20
-4.7862963385826767
11
6.2646197244094486
21
-4.608737283464567
0
LINE
8
BLACK
6
CONTINUOUS
10
6.2646197244094486
20
-4.608737283464567
11
6.1783992519685036
21
-4.608737283464567
0
LINE
8
BLACK
6
CONTINUOUS
10
6.4624543700787402
20
-4.6067687795275587
11
6.4631503543307085
21
-4.6070570472440942
0
LINE
8
BLACK
6
CONTINUOUS
10
6.4631503543307085
20
-4.6070570472440942
11
6.463438622047244
21
-4.6077530314960633
0
LINE
8
BLACK
6
CONTINUOUS
10
6.463438622047244
20
-4.6077530314960633
11
6.463438622047244
21
-4.7872805905511813
0
LINE
8
BLACK
6
CONTINUOUS
10
6.463438622047244
20
-4.7872805905511813
11
6.4631503543307085
21
-4.7879765748031495
0
LINE
8
BLACK
6
CONTINUOUS
10
6.4631503543307085
20
-4.7879765748031495
11
6.4624543700787402
21
-4.788264842519685
0
LINE
8
BLACK
6
CONTINUOUS
10
6.4624543700787402
20
-4.788264842519685
11
6.3742653937007869
21
-4.788264842519685
0
LINE
8
BLACK
6
CONTINUOUS
10
6.3742653937007869
20
-4.788264842519685
11
6.3735694094488187
21
-4.7879765748031495
0
LINE
8
BLACK
6
CONTINUOUS
10
6.3735694094488187
20
-4.7879765748031495
11
6.3732811417322832
21
-4.7872805905511813
0
LINE
8
BLACK
6
CONTINUOUS
10
6.3732811417322832
20
-4.7872805905511813
11
6.3732811417322832
21
-4.6077530314960633
0
LINE
8
BLACK
6
CONTINUOUS
10
6.3732811417322832
20
-4.6077530314960633
11
6.3735694094488187
21
-4.6070570472440942
0
LINE
8
BLACK
6
CONTINUOUS
10
6.3735694094488187
20
-4.6070570472440942
11
6.3742653937007869
21
-4.6067687795275587
0
LINE
8
BLACK
6
CONTINUOUS
10
6.3742653937007869
20
-4.6067687795275587
11
6.4624543700787402
21
-4.6067687795275587
0
LINE
8
BLACK
6
CONTINUOUS
10
6.3752496456692915
20
-4.608737283464567
11
6.3752496456692915
21
-4.7862963385826767
0
LINE
8
BLACK
6
CONTINUOUS
10
6.3752496456692915
20
-4.7862963385826767
11
6.4614701181102356
21
-4.7862963385826767
0
LINE
8
BLACK
6
CONTINUOUS
10
6.4614701181102356
20
-4.7862963385826767
11
6.4614701181102356
21
-4.608737283464567
0
LINE
8
BLACK
6
CONTINUOUS
10
6.4614701181102356
20
-4.608737283464567
11
6.3752496456692915
21
-4.608737283464567
0
LINE
8
BLACK
6
CONTINUOUS
10
6.6593047637795273
20
-4.6067687795275587
11
6.6600007480314956
21
-4.6070570472440942
0
LINE
8
BLACK
6
CONTINUOUS
10
6.6600007480314956
20
-4.6070570472440942
11
6.660289015748031
21
-4.6077530314960633
0
LINE
8
BLACK
6
CONTINUOUS
10
6.660289015748031
20
-4.6077530314960633
11
6.660289015748031
21
-4.7872805905511813
0
LINE
8
BLACK
6
CONTINUOUS
10
6.660289015748031
20
-4.7872805905511813
11
6.6600007480314956
21
-4.7879765748031495
0
LINE
8
BLACK
6
CONTINUOUS
10
6.6600007480314956
20
-4.7879765748031495
11
6.6593047637795273
21
-4.788264842519685
0
LINE
8
BLACK
6
CONTINUOUS
10
6.6593047637795273
20
-4.788264842519685
11
6.5711157874015749
21
-4.788264842519685
0
LINE
8
BLACK
6
CONTINUOUS
10
6.5711157874015749
20
-4.788264842519685
11
6.5704198031496057
21
-4.7879765748031495
0
LINE
8
BLACK
6
CONTINUOUS
10
6.5704198031496057
20
-4.7879765748031495
11
6.5701315354330712
21
-4.7872805905511813
0
LINE
8
BLACK
6
CONTINUOUS
10
6.5701315354330712
20
-4.7872805905511813
11
6.5701315354330712
21
-4.6077530314960633
0
LINE
8
BLACK
6
CONTINUOUS
10
6.5701315354330712
20
-4.6077530314960633
11
6.5704198031496057
21
-4.6070570472440942
0
LINE
8
BLACK
6
CONTINUOUS
10
6.5704198031496057
20
-4.6070570472440942
11
6.5711157874015749
21
-4.6067687795275587
0
LINE
8
BLACK
6
CONTINUOUS
10
6.5711157874015749
20
-4.6067687795275587
11
6.6593047637795273
21
-4.6067687795275587
0
LINE
8
BLACK
6
CONTINUOUS
10
6.5721000393700786
20
-4.608737283464567
11
6.5721000393700786
21
-4.7862963385826767
0
LINE
8
BLACK
6
CONTINUOUS
10
6.5721000393700786
20
-4.7862963385826767
11
6.6583205118110236
21
-4.7862963385826767
0
LINE
8
BLACK
6
CONTINUOUS
10
6.6583205118110236
20
-4.7862963385826767
11
6.6583205118110236
21
-4.608737283464567
0
LINE
8
BLACK
6
CONTINUOUS
10
6.6583205118110236
20
-4.608737283464567
11
6.5721000393700786
21
-4.608737283464567
0
LINE
8
BLACK
6
CONTINUOUS
10
5.9848165748031494
20
-4.1811309842519684
11
5.9855125590551177
21
-4.1814192519685038
0
LINE
8
BLACK
6
CONTINUOUS
10
5.9855125590551177
20
-4.1814192519685038
11
5.9858008267716531
21
-4.1821152362204721
0
LINE
8
BLACK
6
CONTINUOUS
10
5.9858008267716531
20
-4.1821152362204721
11
5.9858008267716531
21
-4.2569183858267712
0
LINE
8
BLACK
6
CONTINUOUS
10
5.9858008267716531
20
-4.2569183858267712
11
5.9855125590551177
21
-4.2576143700787403
0
LINE
8
BLACK
6
CONTINUOUS
10
5.9855125590551177
20
-4.2576143700787403
11
5.9848165748031494
21
-4.2579026377952758
0
LINE
8
BLACK
6
CONTINUOUS
10
5.9848165748031494
20
-4.2579026377952758
11
5.8525331102362204
21
-4.2579026377952758
0
LINE
8
BLACK
6
CONTINUOUS
10
5.8525331102362204
20
-4.2579026377952758
11
5.8518371259842521
21
-4.2576143700787403
0
LINE
8
BLACK
6
CONTINUOUS
10
5.8518371259842521
20
-4.2576143700787403
11
5.8515488582677166
21
-4.2569183858267712
0
LINE
8
BLACK
6
CONTINUOUS
10
5.8515488582677166
20
-4.2569183858267712
11
5.8515488582677166
21
-4.1821152362204721
0
LINE
8
BLACK
6
CONTINUOUS
10
5.8515488582677166
20
-4.1821152362204721
11
5.8518371259842521
21
-4.1814192519685038
0
LINE
8
BLACK
6
CONTINUOUS
10
5.8518371259842521
20
-4.1814192519685038
11
5.8525331102362204
21
-4.1811309842519684
0
LINE
8
BLACK
6
CONTINUOUS
10
5.8525331102362204
20
-4.1811309842519684
11
5.9848165748031494
21
-4.1811309842519684
0
LINE
8
BLACK
6
CONTINUOUS
10
5.8535173622047241
20
-4.1830994881889767
11
5.8535173622047241
21
-4.2559341338582675
0
LINE
8
BLACK
6
CONTINUOUS
10
5.8535173622047241
20
-4.2559341338582675
11
5.9838323228346457
21
-4.2559341338582675
0
LINE
8
BLACK
6
CONTINUOUS
10
5.9838323228346457
20
-4.2559341338582675
11
5.9838323228346457
21
-4.1830994881889767
0
LINE
8
BLACK
6
CONTINUOUS
10
5.9838323228346457
20
-4.1830994881889767
11
5.8535173622047241
21
-4.1830994881889767
0
LINE
8
BLACK
6
CONTINUOUS
10
5.9848165748031494
20
-3.9871309842519684
11
5.9855125590551177
21
-3.9874192519685039
0
LINE
8
BLACK
6
CONTINUOUS
10
5.9855125590551177
20
-3.9874192519685039
11
5.9858008267716531
21
-3.9881152362204721
0
LINE
8
BLACK
6
CONTINUOUS
10
5.9858008267716531
20
-3.9881152362204721
11
5.9858008267716531
21
-4.0629183858267712
0
LINE
8
BLACK
6
CONTINUOUS
10
5.9858008267716531
20
-4.0629183858267712
11
5.9855125590551177
21
-4.0636143700787404
0
LINE
8
BLACK
6
CONTINUOUS
10
5.9855125590551177
20
-4.0636143700787404
11
5.9848165748031494
21
-4.0639026377952758
0
LINE
8
BLACK
6
CONTINUOUS
10
5.9848165748031494
20
-4.0639026377952758
11
5.8525331102362204
21
-4.0639026377952758
0
LINE
8
BLACK
6
CONTINUOUS
10
5.8525331102362204
20
-4.0639026377952758
11
5.8518371259842521
21
-4.0636143700787404
0
LINE
8
BLACK
6
CONTINUOUS
10
5.8518371259842521
20
-4.0636143700787404
11
5.8515488582677166
21
-4.0629183858267712
0
LINE
8
BLACK
6
CONTINUOUS
10
5.8515488582677166
20
-4.0629183858267712
11
5.8515488582677166
21
-3.9881152362204721
0
LINE
8
BLACK
6
CONTINUOUS
10
5.8515488582677166
20
-3.9881152362204721
11
5.8518371259842521
21
-3.9874192519685039
0
LINE
8
BLACK
6
CONTINUOUS
10
5.8518371259842521
20
-3.9874192519685039
11
5.8525331102362204
21
-3.9871309842519684
0
LINE
8
BLACK
6
CONTINUOUS
10
5.8525331102362204
20
-3.9871309842519684
11
5.9848165748031494
21
-3.9871309842519684
0
LINE
8
BLACK
6
CONTINUOUS
10
5.8535173622047241
20
-3.9890994881889763
11
5.8535173622047241
21
-4.0619341338582675
0
LINE
8
BLACK
6
CONTINUOUS
10
5.8535173622047241
20
-4.0619341338582675
11
5.9838323228346457
21
-4.0619341338582675
0
LINE
8
BLACK
6
CONTINUOUS
10
5.9838323228346457
20
-4.0619341338582675
11
5.9838323228346457
21
-3.9890994881889763
0
LINE
8
BLACK
6
CONTINUOUS
10
5.9838323228346457
20
-3.9890994881889763
11
5.8535173622047241
21
-3.9890994881889763
0
LINE
8
BLACK
6
CONTINUOUS
10
5.9152575196850394
20
-3.8116034251968505
11
5.9159535039370077
21
-3.8118916929133859
0
LINE
8
BLACK
6
CONTINUOUS
10
5.9159535039370077
20
-3.8118916929133859
11
5.9162417716535431
21
-3.8125876771653542
0
LINE
8
BLACK
6
CONTINUOUS
10
5.9162417716535431
20
-3.8125876771653542
11
5.9162417716535431
21
-3.9464459448818898
0
LINE
8
BLACK
6
CONTINUOUS
10
5.9162417716535431
20
-3.9464459448818898
11
5.9159535039370077
21
-3.9471419291338581
0
LINE
8
BLACK
6
CONTINUOUS
10
5.9159535039370077
20
-3.9471419291338581
11
5.9152575196850394
21
-3.9474301968503935
0
LINE
8
BLACK
6
CONTINUOUS
10
5.9152575196850394
20
-3.9474301968503935
11
5.8380921653543307
21
-3.9474301968503935
0
LINE
8
BLACK
6
CONTINUOUS
10
5.8380921653543307
20
-3.9474301968503935
11
5.8373961811023625
21
-3.9471419291338581
0
LINE
8
BLACK
6
CONTINUOUS
10
5.8373961811023625
20
-3.9471419291338581
11
5.837107913385827
21
-3.9464459448818898
0
LINE
8
BLACK
6
CONTINUOUS
10
5.837107913385827
20
-3.9464459448818898
11
5.837107913385827
21
-3.8125876771653542
0
LINE
8
BLACK
6
CONTINUOUS
10
5.837107913385827
20
-3.8125876771653542
11
5.8373961811023625
21
-3.8118916929133859
0
LINE
8
BLACK
6
CONTINUOUS
10
5.8373961811023625
20
-3.8118916929133859
11
5.8380921653543307
21
-3.8116034251968505
0
LINE
8
BLACK
6
CONTINUOUS
10
5.8380921653543307
20
-3.8116034251968505
11
5.9152575196850394
21
-3.8116034251968505
0
LINE
8
BLACK
6
CONTINUOUS
10
5.8390764173228344
20
-3.8135719291338583
11
5.8390764173228344
21
-3.9454616929133857
0
LINE
8
BLACK
6
CONTINUOUS
10
5.8390764173228344
20
-3.9454616929133857
11
5.9142732677165357
21
-3.9454616929133857
0
LINE
8
BLACK
6
CONTINUOUS
10
5.9142732677165357
20
-3.9454616929133857
11
5.9142732677165357
21
-3.8135719291338583
0
LINE
8
BLACK
6
CONTINUOUS
10
5.9142732677165357
20
-3.8135719291338583
11
5.8390764173228344
21
-3.8135719291338583
0
LINE
8
BLACK
6
CONTINUOUS
10
5.9992575196850391
20
-3.8116034251968505
11
5.9999535039370073
21
-3.8118916929133859
0
LINE
8
BLACK
6
CONTINUOUS
10
5.9999535039370073
20
-3.8118916929133859
11
6.0002417716535428
21
-3.8125876771653542
0
LINE
8
BLACK
6
CONTINUOUS
10
6.0002417716535428
20
-3.8125876771653542
11
6.0002417716535428
21
-3.9464459448818898
0
LINE
8
BLACK
6
CONTINUOUS
10
6.0002417716535428
20
-3.9464459448818898
11
5.9999535039370073
21
-3.9471419291338581
0
LINE
8
BLACK
6
CONTINUOUS
10
5.9999535039370073
20
-3.9471419291338581
11
5.9992575196850391
21
-3.9474301968503935
0
LINE
8
BLACK
6
CONTINUOUS
10
5.9992575196850391
20
-3.9474301968503935
11
5.9220921653543304
21
-3.9474301968503935
0
LINE
8
BLACK
6
CONTINUOUS
10
5.9220921653543304
20
-3.9474301968503935
11
5.9213961811023621
21
-3.9471419291338581
0
LINE
8
BLACK
6
CONTINUOUS
10
5.9213961811023621
20
-3.9471419291338581
11
5.9211079133858266
21
-3.9464459448818898
0
LINE
8
BLACK
6
CONTINUOUS
10
5.9211079133858266
20
-3.9464459448818898
11
5.9211079133858266
21
-3.8125876771653542
0
LINE
8
BLACK
6
CONTINUOUS
10
5.9211079133858266
20
-3.8125876771653542
11
5.9213961811023621
21
-3.8118916929133859
0
LINE
8
BLACK
6
CONTINUOUS
10
5.9213961811023621
20
-3.8118916929133859
11
5.9220921653543304
21
-3.8116034251968505
0
LINE
8
BLACK
6
CONTINUOUS
10
5.9220921653543304
20
-3.8116034251968505
11
5.9992575196850391
21
-3.8116034251968505
0
LINE
8
BLACK
6
CONTINUOUS
10
5.9230764173228341
20
-3.8135719291338583
11
5.9230764173228341
21
-3.9454616929133857
0
LINE
8
BLACK
6
CONTINUOUS
10
5.9230764173228341
20
-3.9454616929133857
11
5.9982732677165354
21
-3.9454616929133857
0
LINE
8
BLACK
6
CONTINUOUS
10
5.9982732677165354
20
-3.9454616929133857
11
5.9982732677165354
21
-3.8135719291338583
0
LINE
8
BLACK
6
CONTINUOUS
10
5.9982732677165354
20
-3.8135719291338583
11
5.9230764173228341
21
-3.8135719291338583
0
LINE
8
BLACK
6
CONTINUOUS
10
5.9848165748031494
20
-3.6951309842519686
11
5.9855125590551177
21
-3.6954192519685041
0
LINE
8
BLACK
6
CONTINUOUS
10
5.9855125590551177
20
-3.6954192519685041
11
5.9858008267716531
21
-3.6961152362204723
0
LINE
8
BLACK
6
CONTINUOUS
10
5.9858008267716531
20
-3.6961152362204723
11
5.9858008267716531
21
-3.7709183858267714
0
LINE
8
BLACK
6
CONTINUOUS
10
5.9858008267716531
20
-3.7709183858267714
11
5.9855125590551177
21
-3.7716143700787401
0
LINE
8
BLACK
6
CONTINUOUS
10
5.9855125590551177
20
-3.7716143700787401
11
5.9848165748031494
21
-3.7719026377952756
0
LINE
8
BLACK
6
CONTINUOUS
10
5.9848165748031494
20
-3.7719026377952756
11
5.8525331102362204
21
-3.7719026377952756
0
LINE
8
BLACK
6
CONTINUOUS
10
5.8525331102362204
20
-3.7719026377952756
11
5.8518371259842521
21
-3.7716143700787401
0
LINE
8
BLACK
6
CONTINUOUS
10
5.8518371259842521
20
-3.7716143700787401
11
5.8515488582677166
21
-3.7709183858267714
0
LINE
8
BLACK
6
CONTINUOUS
10
5.8515488582677166
20
-3.7709183858267714
11
5.8515488582677166
21
-3.6961152362204723
0
LINE
8
BLACK
6
CONTINUOUS
10
5.8515488582677166
20
-3.6961152362204723
11
5.8518371259842521
21
-3.6954192519685041
0
LINE
8
BLACK
6
CONTINUOUS
10
5.8518371259842521
20
-3.6954192519685041
11
5.8525331102362204
21
-3.6951309842519686
0
LINE
8
BLACK
6
CONTINUOUS
10
5.8525331102362204
20
-3.6951309842519686
11
5.9848165748031494
21
-3.6951309842519686
0
LINE
8
BLACK
6
CONTINUOUS
10
5.8535173622047241
20
-3.6970994881889765
11
5.8535173622047241
21
-3.7699341338582677
0
LINE
8
BLACK
6
CONTINUOUS
10
5.8535173622047241
20
-3.7699341338582677
11
5.9838323228346457
21
-3.7699341338582677
0
LINE
8
BLACK
6
CONTINUOUS
10
5.9838323228346457
20
-3.7699341338582677
11
5.9838323228346457
21
-3.6970994881889765
0
LINE
8
BLACK
6
CONTINUOUS
10
5.9838323228346457
20
-3.6970994881889765
11
5.8535173622047241
21
-3.6970994881889765
0
LINE
8
BLACK
6
CONTINUOUS
10
5.9848165748031494
20
-3.5931309842519683
11
5.9855125590551177
21
-3.5934192519685038
0
LINE
8
BLACK
6
CONTINUOUS
10
5.9855125590551177
20
-3.5934192519685038
11
5.9858008267716531
21
-3.5941152362204725
0
LINE
8
BLACK
6
CONTINUOUS
10
5.9858008267716531
20
-3.5941152362204725
11
5.9858008267716531
21
-3.6689183858267715
0
LINE
8
BLACK
6
CONTINUOUS
10
5.9858008267716531
20
-3.6689183858267715
11
5.9855125590551177
21
-3.6696143700787403
0
LINE
8
BLACK
6
CONTINUOUS
10
5.9855125590551177
20
-3.6696143700787403
11
5.9848165748031494
21
-3.6699026377952757
0
LINE
8
BLACK
6
CONTINUOUS
10
5.9848165748031494
20
-3.6699026377952757
11
5.8525331102362204
21
-3.6699026377952757
0
LINE
8
BLACK
6
CONTINUOUS
10
5.8525331102362204
20
-3.6699026377952757
11
5.8518371259842521
21
-3.6696143700787403
0
LINE
8
BLACK
6
CONTINUOUS
10
5.8518371259842521
20
-3.6696143700787403
11
5.8515488582677166
21
-3.6689183858267715
0
LINE
8
BLACK
6
CONTINUOUS
10
5.8515488582677166
20
-3.6689183858267715
11
5.8515488582677166
21
-3.5941152362204725
0
LINE
8
BLACK
6
CONTINUOUS
10
5.8515488582677166
20
-3.5941152362204725
11
5.8518371259842521
21
-3.5934192519685038
0
LINE
8
BLACK
6
CONTINUOUS
10
5.8518371259842521
20
-3.5934192519685038
11
5.8525331102362204
21
-3.5931309842519683
0
LINE
8
BLACK
6
CONTINUOUS
10
5.8525331102362204
20
-3.5931309842519683
11
5.9848165748031494
21
-3.5931309842519683
0
LINE
8
BLACK
6
CONTINUOUS
10
5.8535173622047241
20
-3.5950994881889762
11
5.8535173622047241
21
-3.6679341338582678
0
LINE
8
BLACK
6
CONTINUOUS
10
5.8535173622047241
20
-3.6679341338582678
11
5.9838323228346457
21
-3.6679341338582678
0
LINE
8
BLACK
6
CONTINUOUS
10
5.9838323228346457
20
-3.6679341338582678
11
5.9838323228346457
21
-3.5950994881889762
0
LINE
8
BLACK
6
CONTINUOUS
10
5.9838323228346457
20
-3.5950994881889762
11
5.8535173622047241
21
-3.5950994881889762
0
LINE
8
BLACK
6
CONTINUOUS
10
5.8509583070866142
20
-2.905745157480315
11
5.8516542913385825
21
-2.9060334251968505
0
LINE
8
BLACK
6
CONTINUOUS
10
5.8516542913385825
20
-2.9060334251968505
11
5.851942559055118
21
-2.9067294094488187
0
LINE
8
BLACK
6
CONTINUOUS
10
5.851942559055118
20
-2.9067294094488187
11
5.851942559055118
21
-3.296493188976378
0
LINE
8
BLACK
6
CONTINUOUS
10
5.851942559055118
20
-3.296493188976378
11
5.8516542913385825
21
-3.2971891732283463
0
LINE
8
BLACK
6
CONTINUOUS
10
5.8516542913385825
20
-3.2971891732283463
11
5.8509583070866142
21
-3.2974774409448817
0
LINE
8
BLACK
6
CONTINUOUS
10
5.8509583070866142
20
-3.2974774409448817
11
5.3863913779527559
21
-3.2974774409448817
0
LINE
8
BLACK
6
CONTINUOUS
10
5.3863913779527559
20
-3.2974774409448817
11
5.3856953937007876
21
-3.2971891732283463
0
LINE
8
BLACK
6
CONTINUOUS
10
5.3856953937007876
20
-3.2971891732283463
11
5.3854071259842522
21
-3.296493188976378
0
LINE
8
BLACK
6
CONTINUOUS
10
5.3854071259842522
20
-3.296493188976378
11
5.3854071259842522
21
-2.9067294094488187
0
LINE
8
BLACK
6
CONTINUOUS
10
5.3854071259842522
20
-2.9067294094488187
11
5.3856953937007876
21
-2.9060334251968505
0
LINE
8
BLACK
6
CONTINUOUS
10
5.3856953937007876
20
-2.9060334251968505
11
5.3863913779527559
21
-2.905745157480315
0
LINE
8
BLACK
6
CONTINUOUS
10
5.3863913779527559
20
-2.905745157480315
11
5.8509583070866142
21
-2.905745157480315
0
LINE
8
BLACK
6
CONTINUOUS
10
5.3873756299212596
20
-2.9077136614173229
11
5.3873756299212596
21
-3.2955089370078738
0
LINE
8
BLACK
6
CONTINUOUS
10
5.3873756299212596
20
-3.2955089370078738
11
5.8499740551181105
21
-3.2955089370078738
0
LINE
8
BLACK
6
CONTINUOUS
10
5.8499740551181105
20
-3.2955089370078738
11
5.8499740551181105
21
-2.9077136614173229
0
LINE
8
BLACK
6
CONTINUOUS
10
5.8499740551181105
20
-2.9077136614173229
11
5.3873756299212596
21
-2.9077136614173229
0
LINE
8
BLACK
6
CONTINUOUS
10
6.6593047637795273
20
-3.0067687795275591
11
6.6600007480314956
21
-3.0070570472440945
0
LINE
8
BLACK
6
CONTINUOUS
10
6.6600007480314956
20
-3.0070570472440945
11
6.660289015748031
21
-3.0077530314960628
0
LINE
8
BLACK
6
CONTINUOUS
10
6.660289015748031
20
-3.0077530314960628
11
6.660289015748031
21
-3.1872805905511812
0
LINE
8
BLACK
6
CONTINUOUS
10
6.660289015748031
20
-3.1872805905511812
11
6.6600007480314956
21
-3.1879765748031494
0
LINE
8
BLACK
6
CONTINUOUS
10
6.6600007480314956
20
-3.1879765748031494
11
6.6593047637795273
21
-3.1882648425196849
0
LINE
8
BLACK
6
CONTINUOUS
10
6.6593047637795273
20
-3.1882648425196849
11
6.5711157874015749
21
-3.1882648425196849
0
LINE
8
BLACK
6
CONTINUOUS
10
6.5711157874015749
20
-3.1882648425196849
11
6.5704198031496057
21
-3.1879765748031494
0
LINE
8
BLACK
6
CONTINUOUS
10
6.5704198031496057
20
-3.1879765748031494
11
6.5701315354330712
21
-3.1872805905511812
0
LINE
8
BLACK
6
CONTINUOUS
10
6.5701315354330712
20
-3.1872805905511812
11
6.5701315354330712
21
-3.0077530314960628
0
LINE
8
BLACK
6
CONTINUOUS
10
6.5701315354330712
20
-3.0077530314960628
11
6.5704198031496057
21
-3.0070570472440945
0
LINE
8
BLACK
6
CONTINUOUS
10
6.5704198031496057
20
-3.0070570472440945
11
6.5711157874015749
21
-3.0067687795275591
0
LINE
8
BLACK
6
CONTINUOUS
10
6.5711157874015749
20
-3.0067687795275591
11
6.6593047637795273
21
-3.0067687795275591
0
LINE
8
BLACK
6
CONTINUOUS
10
6.5721000393700786
20
-3.0087372834645669
11
6.5721000393700786
21
-3.186296338582677
0
LINE
8
BLACK
6
CONTINUOUS
10
6.5721000393700786
20
-3.186296338582677
11
6.6583205118110236
21
-3.186296338582677
0
LINE
8
BLACK
6
CONTINUOUS
10
6.6583205118110236
20
-3.186296338582677
11
6.6583205118110236
21
-3.0087372834645669
0
LINE
8
BLACK
6
CONTINUOUS
10
6.6583205118110236
20
-3.0087372834645669
11
6.5721000393700786
21
-3.0087372834645669
0
LINE
8
BLACK
6
CONTINUOUS
10
6.4598638188976381
20
-2.9582963385826773
11
6.4605598031496063
21
-2.9585846062992127
0
LINE
8
BLACK
6
CONTINUOUS
10
6.4605598031496063
20
-2.9585846062992127
11
6.4608480708661418
21
-2.959280590551181
0
LINE
8
BLACK
6
CONTINUOUS
10
6.4608480708661418
20
-2.959280590551181
11
6.4608480708661418
21
-3.1797530314960629
0
LINE
8
BLACK
6
CONTINUOUS
10
6.4608480708661418
20
-3.1797530314960629
11
6.4605598031496063
21
-3.1804490157480316
0
LINE
8
BLACK
6
CONTINUOUS
10
6.4605598031496063
20
-3.1804490157480316
11
6.4598638188976381
21
-3.1807372834645671
0
LINE
8
BLACK
6
CONTINUOUS
10
6.4598638188976381
20
-3.1807372834645671
11
5.9834858661417325
21
-3.1807372834645671
0
LINE
8
BLACK
6
CONTINUOUS
10
5.9834858661417325
20
-3.1807372834645671
11
5.9827898818897634
21
-3.1804490157480316
0
LINE
8
BLACK
6
CONTINUOUS
10
5.9827898818897634
20
-3.1804490157480316
11
5.9825016141732279
21
-3.1797530314960629
0
LINE
8
BLACK
6
CONTINUOUS
10
5.9825016141732279
20
-3.1797530314960629
11
5.9825016141732279
21
-2.959280590551181
0
LINE
8
BLACK
6
CONTINUOUS
10
5.9825016141732279
20
-2.959280590551181
11
5.9827898818897634
21
-2.9585846062992127
0
LINE
8
BLACK
6
CONTINUOUS
10
5.9827898818897634
20
-2.9585846062992127
11
5.9834858661417325
21
-2.9582963385826773
0
LINE
8
BLACK
6
CONTINUOUS
10
5.9834858661417325
20
-2.9582963385826773
11
6.4598638188976381
21
-2.9582963385826773
0
LINE
8
BLACK
6
CONTINUOUS
10
5.9844701181102362
20
-2.9602648425196851
11
5.9844701181102362
21
-3.1787687795275588
0
LINE
8
BLACK
6
CONTINUOUS
10
5.9844701181102362
20
-3.1787687795275588
11
6.4588795669291335
21
-3.1787687795275588
0
LINE
8
BLACK
6
CONTINUOUS
10
6.4588795669291335
20
-3.1787687795275588
11
6.4588795669291335
21
-2.9602648425196851
0
LINE
8
BLACK
6
CONTINUOUS
10
6.4588795669291335
20
-2.9602648425196851
11
5.9844701181102362
21
-2.9602648425196851
0
LINE
8
BLACK
6
CONTINUOUS
10
7.1673914173228344
20
-3.0320825590551181
11
7.1758431889763781
21
-3.0343472047244093
0
LINE
8
BLACK
6
CONTINUOUS
10
7.1758431889763781
20
-3.0343472047244093
11
7.1837732677165356
21
-3.0380450787401574
0
LINE
8
BLACK
6
CONTINUOUS
10
7.1837732677165356
20
-3.0380450787401574
11
7.1909407480314957
21
-3.043063779527559
0
LINE
8
BLACK
6
CONTINUOUS
10
7.1909407480314957
20
-3.043063779527559
11
7.1971278740157478
21
-3.0492509055118111
0
LINE
8
BLACK
6
CONTINUOUS
10
7.1971278740157478
20
-3.0492509055118111
11
7.202146574803149
21
-3.0564183858267717
0
LINE
8
BLACK
6
CONTINUOUS
10
7.202146574803149
20
-3.0564183858267717
11
7.2058444488188975
21
-3.0643484645669292
0
LINE
8
BLACK
6
CONTINUOUS
10
7.2058444488188975
20
-3.0643484645669292
11
7.2081090944881892
21
-3.0728002362204725
0
LINE
8
BLACK
6
CONTINUOUS
10
7.2081090944881892
20
-3.0728002362204725
11
7.2088716929133856
21
-3.0815168110236222
0
LINE
8
BLACK
6
CONTINUOUS
10
7.2088716929133856
20
-3.0815168110236222
11
7.2081090944881892
21
-3.0902333858267714
0
LINE
8
BLACK
6
CONTINUOUS
10
7.2081090944881892
20
-3.0902333858267714
11
7.2058444488188975
21
-3.0986851574803147
0
LINE
8
BLACK
6
CONTINUOUS
10
7.2058444488188975
20
-3.0986851574803147
11
7.202146574803149
21
-3.1066152362204722
0
LINE
8
BLACK
6
CONTINUOUS
10
7.202146574803149
20
-3.1066152362204722
11
7.1971278740157478
21
-3.1137827165354328
0
LINE
8
BLACK
6
CONTINUOUS
10
7.1971278740157478
20
-3.1137827165354328
11
7.1909407480314957
21
-3.1199698425196849
0
LINE
8
BLACK
6
CONTINUOUS
10
7.1909407480314957
20
-3.1199698425196849
11
7.1837732677165356
21
-3.1249885433070865
0
LINE
8
BLACK
6
CONTINUOUS
10
7.1837732677165356
20
-3.1249885433070865
11
7.1758431889763781
21
-3.1286864173228346
0
LINE
8
BLACK
6
CONTINUOUS
10
7.1758431889763781
20
-3.1286864173228346
11
7.1673914173228344
21
-3.1309510629921258
0
LINE
8
BLACK
6
CONTINUOUS
10
7.1673914173228344
20
-3.1309510629921258
11
7.1586748425196847
21
-3.1317136614173227
0
LINE
8
BLACK
6
CONTINUOUS
10
7.1586748425196847
20
-3.1317136614173227
11
7.149958267716535
21
-3.1309510629921258
0
LINE
8
BLACK
6
CONTINUOUS
10
7.149958267716535
20
-3.1309510629921258
11
7.1415064960629921
21
-3.1286864173228346
0
LINE
8
BLACK
6
CONTINUOUS
10
7.1415064960629921
20
-3.1286864173228346
11
7.1335764173228347
21
-3.1249885433070865
0
LINE
8
BLACK
6
CONTINUOUS
10
7.1335764173228347
20
-3.1249885433070865
11
7.1264089370078736
21
-3.1199698425196849
0
LINE
8
BLACK
6
CONTINUOUS
10
7.1264089370078736
20
-3.1199698425196849
11
7.1202218110236215
21
-3.1137827165354328
0
LINE
8
BLACK
6
CONTINUOUS
10
7.1202218110236215
20
-3.1137827165354328
11
7.1152031102362203
21
-3.1066152362204722
0
LINE
8
BLACK
6
CONTINUOUS
10
7.1152031102362203
20
-3.1066152362204722
11
7.1115052362204727
21
-3.0986851574803147
0
LINE
8
BLACK
6
CONTINUOUS
10
7.1115052362204727
20
-3.0986851574803147
11
7.1092405905511811
21
-3.0902333858267714
0
LINE
8
BLACK
6
CONTINUOUS
10
7.1092405905511811
20
-3.0902333858267714
11
7.1084779921259837
21
-3.0815168110236222
0
LINE
8
BLACK
6
CONTINUOUS
10
7.1084779921259837
20
-3.0815168110236222
11
7.1092405905511811
21
-3.0728002362204725
0
LINE
8
BLACK
6
CONTINUOUS
10
7.1092405905511811
20
-3.0728002362204725
11
7.1115052362204727
21
-3.0643484645669292
0
LINE
8
BLACK
6
CONTINUOUS
10
7.1115052362204727
20
-3.0643484645669292
11
7.1152031102362203
21
-3.0564183858267717
0
LINE
8
BLACK
6
CONTINUOUS
10
7.1152031102362203
20
-3.0564183858267717
11
7.1202218110236215
21
-3.0492509055118111
0
LINE
8
BLACK
6
CONTINUOUS
10
7.1202218110236215
20
-3.0492509055118111
11
7.1264089370078736
21
-3.043063779527559
0
LINE
8
BLACK
6
CONTINUOUS
10
7.1264089370078736
20
-3.043063779527559
11
7.1335764173228347
21
-3.0380450787401574
0
LINE
8
BLACK
6
CONTINUOUS
10
7.1335764173228347
20
-3.0380450787401574
11
7.1415064960629921
21
-3.0343472047244093
0
LINE
8
BLACK
6
CONTINUOUS
10
7.1415064960629921
20
-3.0343472047244093
11
7.149958267716535
21
-3.0320825590551181
0
LINE
8
BLACK
6
CONTINUOUS
10
7.149958267716535
20
-3.0320825590551181
11
7.1586748425196847
21
-3.0313199606299213
0
LINE
8
BLACK
6
CONTINUOUS
10
7.1586748425196847
20
-3.0313199606299213
11
7.1673914173228344
21
-3.0320825590551181
0
LINE
8
BLACK
6
CONTINUOUS
10
7.1109977952755905
20
-3.0899235826771654
11
7.1131819291338578
21
-3.0980748818897639
0
LINE
8
BLACK
6
CONTINUOUS
10
7.1131819291338578
20
-3.0980748818897639
11
7.116748346456693
21
-3.1057231102362204
0
LINE
8
BLACK
6
CONTINUOUS
10
7.116748346456693
20
-3.1057231102362204
11
7.1215886614173227
21
-3.1126357874015746
0
LINE
8
BLACK
6
CONTINUOUS
10
7.1215886614173227
20
-3.1126357874015746
11
7.1275558661417318
21
-3.1186029921259841
0
LINE
8
BLACK
6
CONTINUOUS
10
7.1275558661417318
20
-3.1186029921259841
11
7.1344685433070865
21
-3.1234433070866139
0
LINE
8
BLACK
6
CONTINUOUS
10
7.1344685433070865
20
-3.1234433070866139
11
7.1421167716535434
21
-3.1270097244094486
0
LINE
8
BLACK
6
CONTINUOUS
10
7.1421167716535434
20
-3.1270097244094486
11
7.1502680708661419
21
-3.1291938582677163
0
LINE
8
BLACK
6
CONTINUOUS
10
7.1502680708661419
20
-3.1291938582677163
11
7.1586748425196847
21
-3.1299293700787403
0
LINE
8
BLACK
6
CONTINUOUS
10
7.1586748425196847
20
-3.1299293700787403
11
7.1670816141732283
21
-3.1291938582677163
0
LINE
8
BLACK
6
CONTINUOUS
10
7.1670816141732283
20
-3.1291938582677163
11
7.1752329133858268
21
-3.1270097244094486
0
LINE
8
BLACK
6
CONTINUOUS
10
7.1752329133858268
20
-3.1270097244094486
11
7.1828811417322829
21
-3.1234433070866139
0
LINE
8
BLACK
6
CONTINUOUS
10
7.1828811417322829
20
-3.1234433070866139
11
7.1897938188976376
21
-3.1186029921259841
0
LINE
8
BLACK
6
CONTINUOUS
10
7.1897938188976376
20
-3.1186029921259841
11
7.1957610236220475
21
-3.1126357874015746
0
LINE
8
BLACK
6
CONTINUOUS
10
7.1957610236220475
20
-3.1126357874015746
11
7.2006013385826773
21
-3.1057231102362204
0
LINE
8
BLACK
6
CONTINUOUS
10
7.2006013385826773
20
-3.1057231102362204
11
7.2041677559055115
21
-3.0980748818897639
0
LINE
8
BLACK
6
CONTINUOUS
10
7.2041677559055115
20
-3.0980748818897639
11
7.2063518897637797
21
-3.0899235826771654
0
LINE
8
BLACK
6
CONTINUOUS
10
7.2063518897637797
20
-3.0899235826771654
11
7.2070874015748032
21
-3.0815168110236222
0
LINE
8
BLACK
6
CONTINUOUS
10
7.2070874015748032
20
-3.0815168110236222
11
7.2063518897637797
21
-3.0731100393700785
0
LINE
8
BLACK
6
CONTINUOUS
10
7.2063518897637797
20
-3.0731100393700785
11
7.2041677559055115
21
-3.06495874015748
0
LINE
8
BLACK
6
CONTINUOUS
10
7.2041677559055115
20
-3.06495874015748
11
7.2006013385826773
21
-3.0573105511811023
0
LINE
8
BLACK
6
CONTINUOUS
10
7.2006013385826773
20
-3.0573105511811023
11
7.1957610236220475
21
-3.0503978346456693
0
LINE
8
BLACK
6
CONTINUOUS
10
7.1957610236220475
20
-3.0503978346456693
11
7.1897938188976376
21
-3.0444306299212598
0
LINE
8
BLACK
6
CONTINUOUS
10
7.1897938188976376
20
-3.0444306299212598
11
7.1828811417322829
21
-3.03959031496063
0
LINE
8
BLACK
6
CONTINUOUS
10
7.1828811417322829
20
-3.03959031496063
11
7.1752329133858268
21
-3.0360238976377953
0
LINE
8
BLACK
6
CONTINUOUS
10
7.1752329133858268
20
-3.0360238976377953
11
7.1670816141732283
21
-3.0338397637795276
0
LINE
8
BLACK
6
CONTINUOUS
10
7.1670816141732283
20
-3.0338397637795276
11
7.1586748425196847
21
-3.0331042519685041
0
LINE
8
BLACK
6
CONTINUOUS
10
7.1586748425196847
20
-3.0331042519685041
11
7.1502680708661419
21
-3.0338397637795276
0
LINE
8
BLACK
6
CONTINUOUS
10
7.1502680708661419
20
-3.0338397637795276
11
7.1421167716535434
21
-3.0360238976377953
0
LINE
8
BLACK
6
CONTINUOUS
10
7.1421167716535434
20
-3.0360238976377953
11
7.1344685826771652
21
-3.03959031496063
0
LINE
8
BLACK
6
CONTINUOUS
10
7.1344685826771652
20
-3.03959031496063
11
7.1275558661417318
21
-3.0444306299212598
0
LINE
8
BLACK
6
CONTINUOUS
10
7.1275558661417318
20
-3.0444306299212598
11
7.1215886614173227
21
-3.0503978346456693
0
LINE
8
BLACK
6
CONTINUOUS
10
7.1215886614173227
20
-3.0503978346456693
11
7.116748346456693
21
-3.0573105511811023
0
LINE
8
BLACK
6
CONTINUOUS
10
7.116748346456693
20
-3.0573105511811023
11
7.1131819291338578
21
-3.06495874015748
0
LINE
8
BLACK
6
CONTINUOUS
10
7.1131819291338578
20
-3.06495874015748
11
7.1109977952755905
21
-3.0731100393700785
0
LINE
8
BLACK
6
CONTINUOUS
10
7.1109977952755905
20
-3.0731100393700785
11
7.110262283464567
21
-3.0815168110236222
0
LINE
8
BLACK
6
CONTINUOUS
10
7.110262283464567
20
-3.0815168110236222
11
7.1109977952755905
21
-3.0899235826771654
0
LINE
8
BLACK
6
CONTINUOUS
10
4.9993914173228342
20
-2.9760825590551181
11
5.0078431889763779
21
-2.9783472047244093
0
LINE
8
BLACK
6
CONTINUOUS
10
5.0078431889763779
20
-2.9783472047244093
11
5.0157732677165354
21
-2.9820450787401573
0
LINE
8
BLACK
6
CONTINUOUS
10
5.0157732677165354
20
-2.9820450787401573
11
5.0229407480314956
21
-2.987063779527559
0
LINE
8
BLACK
6
CONTINUOUS
10
5.0229407480314956
20
-2.987063779527559
11
5.0291278740157477
21
-2.9932509055118111
0
LINE
8
BLACK
6
CONTINUOUS
10
5.0291278740157477
20
-2.9932509055118111
11
5.0341465748031498
21
-3.0004183858267717
0
LINE
8
BLACK
6
CONTINUOUS
10
5.0341465748031498
20
-3.0004183858267717
11
5.0378444488188974
21
-3.0083484645669292
0
LINE
8
BLACK
6
CONTINUOUS
10
5.0378444488188974
20
-3.0083484645669292
11
5.040109094488189
21
-3.0168002362204724
0
LINE
8
BLACK
6
CONTINUOUS
10
5.040109094488189
20
-3.0168002362204724
11
5.0408716929133854
21
-3.0255168110236221
0
LINE
8
BLACK
6
CONTINUOUS
10
5.0408716929133854
20
-3.0255168110236221
11
5.040109094488189
21
-3.0342333858267714
0
LINE
8
BLACK
6
CONTINUOUS
10
5.040109094488189
20
-3.0342333858267714
11
5.0378444488188974
21
-3.0426851574803151
0
LINE
8
BLACK
6
CONTINUOUS
10
5.0378444488188974
20
-3.0426851574803151
11
5.0341465748031498
21
-3.0506152362204726
0
LINE
8
BLACK
6
CONTINUOUS
10
5.0341465748031498
20
-3.0506152362204726
11
5.0291278740157477
21
-3.0577827165354332
0
LINE
8
BLACK
6
CONTINUOUS
10
5.0291278740157477
20
-3.0577827165354332
11
5.0229407480314956
21
-3.0639698425196848
0
LINE
8
BLACK
6
CONTINUOUS
10
5.0229407480314956
20
-3.0639698425196848
11
5.0157732677165354
21
-3.0689885433070865
0
LINE
8
BLACK
6
CONTINUOUS
10
5.0157732677165354
20
-3.0689885433070865
11
5.0078431889763779
21
-3.0726864173228345
0
LINE
8
BLACK
6
CONTINUOUS
10
5.0078431889763779
20
-3.0726864173228345
11
4.9993914173228342
21
-3.0749510629921257
0
LINE
8
BLACK
6
CONTINUOUS
10
4.9993914173228342
20
-3.0749510629921257
11
4.9906748425196845
21
-3.0757136614173226
0
LINE
8
BLACK
6
CONTINUOUS
10
4.9906748425196845
20
-3.0757136614173226
11
4.9819582677165357
21
-3.0749510629921257
0
LINE
8
BLACK
6
CONTINUOUS
10
4.9819582677165357
20
-3.0749510629921257
11
4.973506496062992
21
-3.0726864173228345
0
LINE
8
BLACK
6
CONTINUOUS
10
4.973506496062992
20
-3.0726864173228345
11
4.9655764173228345
21
-3.0689885433070865
0
LINE
8
BLACK
6
CONTINUOUS
10
4.9655764173228345
20
-3.0689885433070865
11
4.9584089370078743
21
-3.0639698425196848
0
LINE
8
BLACK
6
CONTINUOUS
10
4.9584089370078743
20
-3.0639698425196848
11
4.9522218110236222
21
-3.0577827165354332
0
LINE
8
BLACK
6
CONTINUOUS
10
4.9522218110236222
20
-3.0577827165354332
11
4.9472031102362202
21
-3.0506152362204726
0
LINE
8
BLACK
6
CONTINUOUS
10
4.9472031102362202
20
-3.0506152362204726
11
4.9435052362204726
21
-3.0426851574803151
0
LINE
8
BLACK
6
CONTINUOUS
10
4.9435052362204726
20
-3.0426851574803151
11
4.9412405905511809
21
-3.0342333858267714
0
LINE
8
BLACK
6
CONTINUOUS
10
4.9412405905511809
20
-3.0342333858267714
11
4.9404779921259845
21
-3.0255168110236221
0
LINE
8
BLACK
6
CONTINUOUS
10
4.9404779921259845
20
-3.0255168110236221
11
4.9412405905511809
21
-3.0168002362204724
0
LINE
8
BLACK
6
CONTINUOUS
10
4.9412405905511809
20
-3.0168002362204724
11
4.9435052362204726
21
-3.0083484645669292
0
LINE
8
BLACK
6
CONTINUOUS
10
4.9435052362204726
20
-3.0083484645669292
11
4.9472031102362202
21
-3.0004183858267717
0
LINE
8
BLACK
6
CONTINUOUS
10
4.9472031102362202
20
-3.0004183858267717
11
4.9522218110236222
21
-2.9932509055118111
0
LINE
8
BLACK
6
CONTINUOUS
10
4.9522218110236222
20
-2.9932509055118111
11
4.9584089370078743
21
-2.987063779527559
0
LINE
8
BLACK
6
CONTINUOUS
10
4.9584089370078743
20
-2.987063779527559
11
4.9655764173228345
21
-2.9820450787401573
0
LINE
8
BLACK
6
CONTINUOUS
10
4.9655764173228345
20
-2.9820450787401573
11
4.973506496062992
21
-2.9783472047244093
0
LINE
8
BLACK
6
CONTINUOUS
10
4.973506496062992
20
-2.9783472047244093
11
4.9819582677165357
21
-2.9760825590551181
0
LINE
8
BLACK
6
CONTINUOUS
10
4.9819582677165357
20
-2.9760825590551181
11
4.9906748425196845
21
-2.9753199606299212
0
LINE
8
BLACK
6
CONTINUOUS
10
4.9906748425196845
20
-2.9753199606299212
11
4.9993914173228342
21
-2.9760825590551181
0
LINE
8
BLACK
6
CONTINUOUS
10
4.9429977952755904
20
-3.0339235826771653
11
4.9451819291338586
21
-3.0420748818897638
0
LINE
8
BLACK
6
CONTINUOUS
10
4.9451819291338586
20
-3.0420748818897638
11
4.9487483464566928
21
-3.0497231102362203
0
LINE
8
BLACK
6
CONTINUOUS
10
4.9487483464566928
20
-3.0497231102362203
11
4.9535886614173226
21
-3.0566357874015746
0
LINE
8
BLACK
6
CONTINUOUS
10
4.9535886614173226
20
-3.0566357874015746
11
4.9595558661417325
21
-3.0626029921259841
0
LINE
8
BLACK
6
CONTINUOUS
10
4.9595558661417325
20
-3.0626029921259841
11
4.9664685433070863
21
-3.0674433070866143
0
LINE
8
BLACK
6
CONTINUOUS
10
4.9664685433070863
20
-3.0674433070866143
11
4.9741167716535433
21
-3.071009724409449
0
LINE
8
BLACK
6
CONTINUOUS
10
4.9741167716535433
20
-3.071009724409449
11
4.9822680708661418
21
-3.0731938582677163
0
LINE
8
BLACK
6
CONTINUOUS
10
4.9822680708661418
20
-3.0731938582677163
11
4.9906748425196845
21
-3.0739293700787402
0
LINE
8
BLACK
6
CONTINUOUS
10
4.9906748425196845
20
-3.0739293700787402
11
4.9990816141732282
21
-3.0731938582677163
0
LINE
8
BLACK
6
CONTINUOUS
10
4.9990816141732282
20
-3.0731938582677163
11
5.0072329133858267
21
-3.071009724409449
0
LINE
8
BLACK
6
CONTINUOUS
10
5.0072329133858267
20
-3.071009724409449
11
5.0148811417322836
21
-3.0674433070866143
0
LINE
8
BLACK
6
CONTINUOUS
10
5.0148811417322836
20
-3.0674433070866143
11
5.0217938188976374
21
-3.0626029921259841
0
LINE
8
BLACK
6
CONTINUOUS
10
5.0217938188976374
20
-3.0626029921259841
11
5.0277610236220474
21
-3.0566357874015746
0
LINE
8
BLACK
6
CONTINUOUS
10
5.0277610236220474
20
-3.0566357874015746
11
5.0326013385826771
21
-3.0497231102362203
0
LINE
8
BLACK
6
CONTINUOUS
10
5.0326013385826771
20
-3.0497231102362203
11
5.0361677559055114
21
-3.0420748818897638
0
LINE
8
BLACK
6
CONTINUOUS
10
5.0361677559055114
20
-3.0420748818897638
11
5.0383518897637796
21
-3.0339235826771653
0
LINE
8
BLACK
6
CONTINUOUS
10
5.0383518897637796
20
-3.0339235826771653
11
5.0390874015748031
21
-3.0255168110236221
0
LINE
8
BLACK
6
CONTINUOUS
10
5.0390874015748031
20
-3.0255168110236221
11
5.0383518897637796
21
-3.0171100393700785
0
LINE
8
BLACK
6
CONTINUOUS
10
5.0383518897637796
20
-3.0171100393700785
11
5.0361677559055114
21
-3.0089587401574804
0
LINE
8
BLACK
6
CONTINUOUS
10
5.0361677559055114
20
-3.0089587401574804
11
5.0326013385826771
21
-3.0013105511811022
0
LINE
8
BLACK
6
CONTINUOUS
10
5.0326013385826771
20
-3.0013105511811022
11
5.0277610236220474
21
-2.9943978346456692
0
LINE
8
BLACK
6
CONTINUOUS
10
5.0277610236220474
20
-2.9943978346456692
11
5.0217938188976374
21
-2.9884306299212597
0
LINE
8
BLACK
6
CONTINUOUS
10
5.0217938188976374
20
-2.9884306299212597
11
5.0148811417322836
21
-2.98359031496063
0
LINE
8
BLACK
6
CONTINUOUS
10
5.0148811417322836
20
-2.98359031496063
11
5.0072329133858267
21
-2.9800238976377953
0
LINE
8
BLACK
6
CONTINUOUS
10
5.0072329133858267
20
-2.9800238976377953
11
4.9990816141732282
21
-2.9778397637795275
0
LINE
8
BLACK
6
CONTINUOUS
10
4.9990816141732282
20
-2.9778397637795275
11
4.9906748425196845
21
-2.977104251968504
0
LINE
8
BLACK
6
CONTINUOUS
10
4.9906748425196845
20
-2.977104251968504
11
4.9822680708661418
21
-2.9778397637795275
0
LINE
8
BLACK
6
CONTINUOUS
10
4.9822680708661418
20
-2.9778397637795275
11
4.9741167716535433
21
-2.9800238976377953
0
LINE
8
BLACK
6
CONTINUOUS
10
4.9741167716535433
20
-2.9800238976377953
11
4.9664685826771651
21
-2.98359031496063
0
LINE
8
BLACK
6
CONTINUOUS
10
4.9664685826771651
20
-2.98359031496063
11
4.9595558661417325
21
-2.9884306299212597
0
LINE
8
BLACK
6
CONTINUOUS
10
4.9595558661417325
20
-2.9884306299212597
11
4.9535886614173226
21
-2.9943978346456692
0
LINE
8
BLACK
6
CONTINUOUS
10
4.9535886614173226
20
-2.9943978346456692
11
4.9487483464566928
21
-3.0013105511811022
0
LINE
8
BLACK
6
CONTINUOUS
10
4.9487483464566928
20
-3.0013105511811022
11
4.9451819291338586
21
-3.0089587401574804
0
LINE
8
BLACK
6
CONTINUOUS
10
4.9451819291338586
20
-3.0089587401574804
11
4.9429977952755904
21
-3.0171100393700785
0
LINE
8
BLACK
6
CONTINUOUS
10
4.9429977952755904
20
-3.0171100393700785
11
4.9422622834645669
21
-3.0255168110236221
0
LINE
8
BLACK
6
CONTINUOUS
10
4.9422622834645669
20
-3.0255168110236221
11
4.9429977952755904
21
-3.0339235826771653
  0
ENDSEC
  0
EOF
