  0
SECTION
  2
HEADER
  9
$ANGBASE
  50
0.0
  9
$ANGDIR
  70
1
  9
$MEASUREMENT
  70
0
  0
ENDSEC
  0
SECTION
  2
TABLES
  0
TABLE
  2
LTYPE
  70
4
  0
LTYPE
  5
40F
  2
CONTINUOUS
  70
0
  3
Solid line
  72
65
  73
0
  40
0.0
  0
LTYPE
  5
410
  2
DASHDOT
 70
0
  3
Dash Dot ____ _ ____ _
 72
65
 73
4
 40
2.0
 49
1.25
 49
-0.25
 49
0.25
 49
-0.25
  0
LTYPE
  5
411
  2
DASHED
 70
0
  3
Dashed __ __ __ __ __
 72
65
 73
2
 40
0.75
 49
0.5
 49
-0.25
  0
LTYPE
  5
43B
  2
DOTTED
 70
0
  3
Dotted .  .  .  .
 72
65
 73
2
 40
0.2
 49
0.0
 49
-0.2
  0
ENDTAB
  0
TABLE
  2
STYLE
  70
4
  0
STYLE
  2
KICAD
  70
0
  40
0
  41
1
  42
1
  50
0
  71
0
  3
isocp.shx
  0
STYLE
  2
KICADB
  70
0
  40
0
  41
1
  42
1
  50
0
  71
0
  3
isocp.shx
  0
STYLE
  2
KICADI
  70
0
  40
0
  41
1
  42
1
  50
15
  71
0
  3
isocp.shx
  0
STYLE
  2
KICADBI
  70
0
  40
0
  41
1
  42
1
  50
15
  71
0
  3
isocp.shx
  0
ENDTAB
  0
TABLE
  2
LAYER
  70
1
  0
LAYER
  2
BLACK
  70
0
  62
7
  6
CONTINUOUS
  0
ENDTAB
  0
ENDSEC
  0
SECTION
  2
ENTITIES
0
LINE
8
BLACK
6
CONTINUOUS
10
7.4794429133858262
20
-2.9036554330708659
11
7.4808621259842516
21
-2.904243307086614
0
LINE
8
BLACK
6
CONTINUOUS
10
7.4808621259842516
20
-2.904243307086614
11
7.4819483464566927
21
-2.9053295275590552
0
LINE
8
BLACK
6
CONTINUOUS
10
7.4819483464566927
20
-2.9053295275590552
11
7.4825362204724408
21
-2.9067487401574801
0
LINE
8
BLACK
6
CONTINUOUS
10
7.4825362204724408
20
-2.9067487401574801
11
7.4826118503937007
21
-2.9075168110236218
0
LINE
8
BLACK
6
CONTINUOUS
10
7.4826118503937007
20
-2.9075168110236218
11
7.4826118503937007
21
-4.8875168110236222
0
LINE
8
BLACK
6
CONTINUOUS
10
7.4826118503937007
20
-4.8875168110236222
11
7.4825362204724408
21
-4.8882848818897635
0
LINE
8
BLACK
6
CONTINUOUS
10
7.4825362204724408
20
-4.8882848818897635
11
7.4819483464566927
21
-4.8897040944881889
0
LINE
8
BLACK
6
CONTINUOUS
10
7.4819483464566927
20
-4.8897040944881889
11
7.4808621259842516
21
-4.89079031496063
0
LINE
8
BLACK
6
CONTINUOUS
10
7.4808621259842516
20
-4.89079031496063
11
7.4794429133858262
21
-4.8913781889763781
0
LINE
8
BLACK
6
CONTINUOUS
10
7.4794429133858262
20
-4.8913781889763781
11
7.478674842519685
21
-4.891453818897638
0
LINE
8
BLACK
6
CONTINUOUS
10
7.478674842519685
20
-4.891453818897638
11
3.8986748425196849
21
-4.891453818897638
0
LINE
8
BLACK
6
CONTINUOUS
10
3.8986748425196849
20
-4.891453818897638
11
3.8979067716535432
21
-4.8913781889763781
0
LINE
8
BLACK
6
CONTINUOUS
10
3.8979067716535432
20
-4.8913781889763781
11
3.8964875590551182
21
-4.89079031496063
0
LINE
8
BLACK
6
CONTINUOUS
10
3.8964875590551182
20
-4.89079031496063
11
3.8954013385826771
21
-4.8897040944881889
0
LINE
8
BLACK
6
CONTINUOUS
10
3.8954013385826771
20
-4.8897040944881889
11
3.894813464566929
21
-4.8882848818897635
0
LINE
8
BLACK
6
CONTINUOUS
10
3.894813464566929
20
-4.8882848818897635
11
3.8947378346456691
21
-4.8875168110236222
0
LINE
8
BLACK
6
CONTINUOUS
10
3.8947378346456691
20
-4.8875168110236222
11
3.8947378346456691
21
-2.9075168110236218
0
LINE
8
BLACK
6
CONTINUOUS
10
3.8947378346456691
20
-2.9075168110236218
11
3.894813464566929
21
-2.9067487401574801
0
LINE
8
BLACK
6
CONTINUOUS
10
3.894813464566929
20
-2.9067487401574801
11
3.8954013385826771
21
-2.9053295275590552
0
LINE
8
BLACK
6
CONTINUOUS
10
3.8954013385826771
20
-2.9053295275590552
11
3.8964875590551182
21
-2.904243307086614
0
LINE
8
BLACK
6
CONTINUOUS
10
3.8964875590551182
20
-2.904243307086614
11
3.8979067716535432
21
-2.9036554330708659
0
LINE
8
BLACK
6
CONTINUOUS
10
3.8979067716535432
20
-2.9036554330708659
11
3.8986748425196849
21
-2.9035798031496061
0
LINE
8
BLACK
6
CONTINUOUS
10
3.8986748425196849
20
-2.9035798031496061
11
7.478674842519685
21
-2.9035798031496061
0
LINE
8
BLACK
6
CONTINUOUS
10
7.478674842519685
20
-2.9035798031496061
11
7.4794429133858262
21
-2.9036554330708659
0
LINE
8
BLACK
6
CONTINUOUS
10
3.9026118503937006
20
-2.9114538188976375
11
3.9026118503937006
21
-4.8835798031496065
0
LINE
8
BLACK
6
CONTINUOUS
10
3.9026118503937006
20
-4.8835798031496065
11
7.4747378346456692
21
-4.8835798031496065
0
LINE
8
BLACK
6
CONTINUOUS
10
7.4747378346456692
20
-4.8835798031496065
11
7.4747378346456692
21
-2.9114538188976375
0
LINE
8
BLACK
6
CONTINUOUS
10
7.4747378346456692
20
-2.9114538188976375
11
3.9026118503937006
21
-2.9114538188976375
0
CIRCLE
8
BLACK
10
6.8886748425196851
20
-3.0975168110236222
40
0.0068897637795276
0
CIRCLE
8
BLACK
10
4.0886748425196853
20
-3.0975168110236222
40
0.0068897637795276
0
CIRCLE
8
BLACK
10
4.0886748425196853
20
-4.6975168110236218
40
0.0068897637795276
0
CIRCLE
8
BLACK
10
4.493399251968504
20
-3.4644459448818896
40
0.0068897637795276
0
CIRCLE
8
BLACK
10
4.296548858267716
20
-3.4644459448818896
40
0.0068897637795276
0
CIRCLE
8
BLACK
10
6.8886748425196851
20
-4.6975168110236218
40
0.0068897637795276
0
CIRCLE
8
BLACK
10
6.1252181496062992
20
-3.0695168110236222
40
0.0068897637795276
0
CIRCLE
8
BLACK
10
6.3173441338582679
20
-3.0695168110236222
40
0.0068897637795276
0
CIRCLE
8
BLACK
10
7.2237929527559057
20
-4.5182845275590546
40
0.0068897637795276
0
CIRCLE
8
BLACK
10
7.2237929527559057
20
-4.745843582677165
40
0.0068897637795276
0
LINE
8
BLACK
6
CONTINUOUS
10
7.3859645275590546
20
-4.4502753543307083
11
7.3889427559055116
21
-4.4510733464566927
0
LINE
8
BLACK
6
CONTINUOUS
10
7.3889427559055116
20
-4.4510733464566927
11
7.3916129527559056
21
-4.4526149999999998
0
LINE
8
BLACK
6
CONTINUOUS
10
7.3916129527559056
20
-4.4526149999999998
11
7.3937931889763782
21
-4.4547952362204724
0
LINE
8
BLACK
6
CONTINUOUS
10
7.3937931889763782
20
-4.4547952362204724
11
7.3953348425196852
21
-4.4574654330708663
0
LINE
8
BLACK
6
CONTINUOUS
10
7.3953348425196852
20
-4.4574654330708663
11
7.3961328346456687
21
-4.4604436614173224
0
LINE
8
BLACK
6
CONTINUOUS
10
7.3961328346456687
20
-4.4604436614173224
11
7.3961328346456687
21
-4.4635269685039365
0
LINE
8
BLACK
6
CONTINUOUS
10
7.3961328346456687
20
-4.4635269685039365
11
7.3953348425196852
21
-4.4665051968503935
0
LINE
8
BLACK
6
CONTINUOUS
10
7.3953348425196852
20
-4.4665051968503935
11
7.3937931889763782
21
-4.4691753937007874
0
LINE
8
BLACK
6
CONTINUOUS
10
7.3937931889763782
20
-4.4691753937007874
11
7.3916129527559056
21
-4.47135562992126
0
LINE
8
BLACK
6
CONTINUOUS
10
7.3916129527559056
20
-4.47135562992126
11
7.3889427559055116
21
-4.4728972834645671
0
LINE
8
BLACK
6
CONTINUOUS
10
7.3889427559055116
20
-4.4728972834645671
11
7.3859645275590546
21
-4.4736952755905515
0
LINE
8
BLACK
6
CONTINUOUS
10
7.3859645275590546
20
-4.4736952755905515
11
7.3844228740157476
21
-4.4737963385826767
0
LINE
8
BLACK
6
CONTINUOUS
10
7.3844228740157476
20
-4.4737963385826767
11
7.3529268110236217
21
-4.4737963385826767
0
LINE
8
BLACK
6
CONTINUOUS
10
7.3529268110236217
20
-4.4737963385826767
11
7.3513851574803146
21
-4.4736952755905515
0
LINE
8
BLACK
6
CONTINUOUS
10
7.3513851574803146
20
-4.4736952755905515
11
7.3484069291338585
21
-4.4728972834645671
0
LINE
8
BLACK
6
CONTINUOUS
10
7.3484069291338585
20
-4.4728972834645671
11
7.3457367322834646
21
-4.47135562992126
0
LINE
8
BLACK
6
CONTINUOUS
10
7.3457367322834646
20
-4.47135562992126
11
7.343556496062992
21
-4.4691753937007874
0
LINE
8
BLACK
6
CONTINUOUS
10
7.343556496062992
20
-4.4691753937007874
11
7.3420148425196849
21
-4.4665051968503935
0
LINE
8
BLACK
6
CONTINUOUS
10
7.3420148425196849
20
-4.4665051968503935
11
7.3412168503937005
21
-4.4635269685039365
0
LINE
8
BLACK
6
CONTINUOUS
10
7.3412168503937005
20
-4.4635269685039365
11
7.3412168503937005
21
-4.4604436614173224
0
LINE
8
BLACK
6
CONTINUOUS
10
7.3412168503937005
20
-4.4604436614173224
11
7.3420148425196849
21
-4.4574654330708663
0
LINE
8
BLACK
6
CONTINUOUS
10
7.3420148425196849
20
-4.4574654330708663
11
7.343556496062992
21
-4.4547952362204724
0
LINE
8
BLACK
6
CONTINUOUS
10
7.343556496062992
20
-4.4547952362204724
11
7.3457367322834646
21
-4.4526149999999998
0
LINE
8
BLACK
6
CONTINUOUS
10
7.3457367322834646
20
-4.4526149999999998
11
7.3484069291338585
21
-4.4510733464566927
0
LINE
8
BLACK
6
CONTINUOUS
10
7.3484069291338585
20
-4.4510733464566927
11
7.3513851574803146
21
-4.4502753543307083
0
LINE
8
BLACK
6
CONTINUOUS
10
7.3513851574803146
20
-4.4502753543307083
11
7.3529268110236217
21
-4.4501742913385822
0
LINE
8
BLACK
6
CONTINUOUS
10
7.3529268110236217
20
-4.4501742913385822
11
7.3844228740157476
21
-4.4501742913385822
0
LINE
8
BLACK
6
CONTINUOUS
10
7.3844228740157476
20
-4.4501742913385822
11
7.3859645275590546
21
-4.4502753543307083
0
LINE
8
BLACK
6
CONTINUOUS
10
7.3859645275590546
20
-4.790432834645669
11
7.3889427559055116
21
-4.7912308267716535
0
LINE
8
BLACK
6
CONTINUOUS
10
7.3889427559055116
20
-4.7912308267716535
11
7.3916129527559056
21
-4.7927724803149605
0
LINE
8
BLACK
6
CONTINUOUS
10
7.3916129527559056
20
-4.7927724803149605
11
7.3937931889763782
21
-4.7949527165354331
0
LINE
8
BLACK
6
CONTINUOUS
10
7.3937931889763782
20
-4.7949527165354331
11
7.3953348425196852
21
-4.797622913385827
0
LINE
8
BLACK
6
CONTINUOUS
10
7.3953348425196852
20
-4.797622913385827
11
7.3961328346456687
21
-4.8006011417322831
0
LINE
8
BLACK
6
CONTINUOUS
10
7.3961328346456687
20
-4.8006011417322831
11
7.3961328346456687
21
-4.8036844488188972
0
LINE
8
BLACK
6
CONTINUOUS
10
7.3961328346456687
20
-4.8036844488188972
11
7.3953348425196852
21
-4.8066626771653542
0
LINE
8
BLACK
6
CONTINUOUS
10
7.3953348425196852
20
-4.8066626771653542
11
7.3937931889763782
21
-4.8093328740157482
0
LINE
8
BLACK
6
CONTINUOUS
10
7.3937931889763782
20
-4.8093328740157482
11
7.3916129527559056
21
-4.8115131102362207
0
LINE
8
BLACK
6
CONTINUOUS
10
7.3916129527559056
20
-4.8115131102362207
11
7.3889427559055116
21
-4.8130547637795278
0
LINE
8
BLACK
6
CONTINUOUS
10
7.3889427559055116
20
-4.8130547637795278
11
7.3859645275590546
21
-4.8138527559055113
0
LINE
8
BLACK
6
CONTINUOUS
10
7.3859645275590546
20
-4.8138527559055113
11
7.3844228740157476
21
-4.8139538188976374
0
LINE
8
BLACK
6
CONTINUOUS
10
7.3844228740157476
20
-4.8139538188976374
11
7.3529268110236217
21
-4.8139538188976374
0
LINE
8
BLACK
6
CONTINUOUS
10
7.3529268110236217
20
-4.8139538188976374
11
7.3513851574803146
21
-4.8138527559055113
0
LINE
8
BLACK
6
CONTINUOUS
10
7.3513851574803146
20
-4.8138527559055113
11
7.3484069291338585
21
-4.8130547637795278
0
LINE
8
BLACK
6
CONTINUOUS
10
7.3484069291338585
20
-4.8130547637795278
11
7.3457367322834646
21
-4.8115131102362207
0
LINE
8
BLACK
6
CONTINUOUS
10
7.3457367322834646
20
-4.8115131102362207
11
7.343556496062992
21
-4.8093328740157482
0
LINE
8
BLACK
6
CONTINUOUS
10
7.343556496062992
20
-4.8093328740157482
11
7.3420148425196849
21
-4.8066626771653542
0
LINE
8
BLACK
6
CONTINUOUS
10
7.3420148425196849
20
-4.8066626771653542
11
7.3412168503937005
21
-4.8036844488188972
0
LINE
8
BLACK
6
CONTINUOUS
10
7.3412168503937005
20
-4.8036844488188972
11
7.3412168503937005
21
-4.8006011417322831
0
LINE
8
BLACK
6
CONTINUOUS
10
7.3412168503937005
20
-4.8006011417322831
11
7.3420148425196849
21
-4.797622913385827
0
LINE
8
BLACK
6
CONTINUOUS
10
7.3420148425196849
20
-4.797622913385827
11
7.343556496062992
21
-4.7949527165354331
0
LINE
8
BLACK
6
CONTINUOUS
10
7.343556496062992
20
-4.7949527165354331
11
7.3457367322834646
21
-4.7927724803149605
0
LINE
8
BLACK
6
CONTINUOUS
10
7.3457367322834646
20
-4.7927724803149605
11
7.3484069291338585
21
-4.7912308267716535
0
LINE
8
BLACK
6
CONTINUOUS
10
7.3484069291338585
20
-4.7912308267716535
11
7.3513851574803146
21
-4.790432834645669
0
LINE
8
BLACK
6
CONTINUOUS
10
7.3513851574803146
20
-4.790432834645669
11
7.3529268110236217
21
-4.790331771653543
0
LINE
8
BLACK
6
CONTINUOUS
10
7.3529268110236217
20
-4.790331771653543
11
7.3844228740157476
21
-4.790331771653543
0
LINE
8
BLACK
6
CONTINUOUS
10
7.3844228740157476
20
-4.790331771653543
11
7.3859645275590546
21
-4.790432834645669
0
LINE
8
BLACK
6
CONTINUOUS
10
7.2273031102362202
20
-4.4502753543307083
11
7.2302813385826772
21
-4.4510733464566927
0
LINE
8
BLACK
6
CONTINUOUS
10
7.2302813385826772
20
-4.4510733464566927
11
7.2329515354330711
21
-4.4526149999999998
0
LINE
8
BLACK
6
CONTINUOUS
10
7.2329515354330711
20
-4.4526149999999998
11
7.2351317716535428
21
-4.4547952362204724
0
LINE
8
BLACK
6
CONTINUOUS
10
7.2351317716535428
20
-4.4547952362204724
11
7.2366734251968499
21
-4.4574654330708663
0
LINE
8
BLACK
6
CONTINUOUS
10
7.2366734251968499
20
-4.4574654330708663
11
7.2374714173228343
21
-4.4604436614173224
0
LINE
8
BLACK
6
CONTINUOUS
10
7.2374714173228343
20
-4.4604436614173224
11
7.2374714173228343
21
-4.4635269685039365
0
LINE
8
BLACK
6
CONTINUOUS
10
7.2374714173228343
20
-4.4635269685039365
11
7.2366734251968499
21
-4.4665051968503935
0
LINE
8
BLACK
6
CONTINUOUS
10
7.2366734251968499
20
-4.4665051968503935
11
7.2351317716535428
21
-4.4691753937007874
0
LINE
8
BLACK
6
CONTINUOUS
10
7.2351317716535428
20
-4.4691753937007874
11
7.2329515354330711
21
-4.47135562992126
0
LINE
8
BLACK
6
CONTINUOUS
10
7.2329515354330711
20
-4.47135562992126
11
7.2302813385826772
21
-4.4728972834645671
0
LINE
8
BLACK
6
CONTINUOUS
10
7.2302813385826772
20
-4.4728972834645671
11
7.2273031102362202
21
-4.4736952755905515
0
LINE
8
BLACK
6
CONTINUOUS
10
7.2273031102362202
20
-4.4736952755905515
11
7.2257614566929131
21
-4.4737963385826767
0
LINE
8
BLACK
6
CONTINUOUS
10
7.2257614566929131
20
-4.4737963385826767
11
7.18245437007874
21
-4.4737963385826767
0
LINE
8
BLACK
6
CONTINUOUS
10
7.18245437007874
20
-4.4737963385826767
11
7.1809127165354329
21
-4.4736952755905515
0
LINE
8
BLACK
6
CONTINUOUS
10
7.1809127165354329
20
-4.4736952755905515
11
7.1779344881889759
21
-4.4728972834645671
0
LINE
8
BLACK
6
CONTINUOUS
10
7.1779344881889759
20
-4.4728972834645671
11
7.1752642913385829
21
-4.47135562992126
0
LINE
8
BLACK
6
CONTINUOUS
10
7.1752642913385829
20
-4.47135562992126
11
7.1730840551181103
21
-4.4691753937007874
0
LINE
8
BLACK
6
CONTINUOUS
10
7.1730840551181103
20
-4.4691753937007874
11
7.1715424015748033
21
-4.4665051968503935
0
LINE
8
BLACK
6
CONTINUOUS
10
7.1715424015748033
20
-4.4665051968503935
11
7.1707444094488189
21
-4.4635269685039365
0
LINE
8
BLACK
6
CONTINUOUS
10
7.1707444094488189
20
-4.4635269685039365
11
7.1707444094488189
21
-4.4604436614173224
0
LINE
8
BLACK
6
CONTINUOUS
10
7.1707444094488189
20
-4.4604436614173224
11
7.1715424015748033
21
-4.4574654330708663
0
LINE
8
BLACK
6
CONTINUOUS
10
7.1715424015748033
20
-4.4574654330708663
11
7.1730840551181103
21
-4.4547952362204724
0
LINE
8
BLACK
6
CONTINUOUS
10
7.1730840551181103
20
-4.4547952362204724
11
7.1752642913385829
21
-4.4526149999999998
0
LINE
8
BLACK
6
CONTINUOUS
10
7.1752642913385829
20
-4.4526149999999998
11
7.1779344881889759
21
-4.4510733464566927
0
LINE
8
BLACK
6
CONTINUOUS
10
7.1779344881889759
20
-4.4510733464566927
11
7.1809127165354329
21
-4.4502753543307083
0
LINE
8
BLACK
6
CONTINUOUS
10
7.1809127165354329
20
-4.4502753543307083
11
7.18245437007874
21
-4.4501742913385822
0
LINE
8
BLACK
6
CONTINUOUS
10
7.18245437007874
20
-4.4501742913385822
11
7.2257614566929131
21
-4.4501742913385822
0
LINE
8
BLACK
6
CONTINUOUS
10
7.2257614566929131
20
-4.4501742913385822
11
7.2273031102362202
21
-4.4502753543307083
0
LINE
8
BLACK
6
CONTINUOUS
10
7.2273031102362202
20
-4.790432834645669
11
7.2302813385826772
21
-4.7912308267716535
0
LINE
8
BLACK
6
CONTINUOUS
10
7.2302813385826772
20
-4.7912308267716535
11
7.2329515354330711
21
-4.7927724803149605
0
LINE
8
BLACK
6
CONTINUOUS
10
7.2329515354330711
20
-4.7927724803149605
11
7.2351317716535428
21
-4.7949527165354331
0
LINE
8
BLACK
6
CONTINUOUS
10
7.2351317716535428
20
-4.7949527165354331
11
7.2366734251968499
21
-4.797622913385827
0
LINE
8
BLACK
6
CONTINUOUS
10
7.2366734251968499
20
-4.797622913385827
11
7.2374714173228343
21
-4.8006011417322831
0
LINE
8
BLACK
6
CONTINUOUS
10
7.2374714173228343
20
-4.8006011417322831
11
7.2374714173228343
21
-4.8036844488188972
0
LINE
8
BLACK
6
CONTINUOUS
10
7.2374714173228343
20
-4.8036844488188972
11
7.2366734251968499
21
-4.8066626771653542
0
LINE
8
BLACK
6
CONTINUOUS
10
7.2366734251968499
20
-4.8066626771653542
11
7.2351317716535428
21
-4.8093328740157482
0
LINE
8
BLACK
6
CONTINUOUS
10
7.2351317716535428
20
-4.8093328740157482
11
7.2329515354330711
21
-4.8115131102362207
0
LINE
8
BLACK
6
CONTINUOUS
10
7.2329515354330711
20
-4.8115131102362207
11
7.2302813385826772
21
-4.8130547637795278
0
LINE
8
BLACK
6
CONTINUOUS
10
7.2302813385826772
20
-4.8130547637795278
11
7.2273031102362202
21
-4.8138527559055113
0
LINE
8
BLACK
6
CONTINUOUS
10
7.2273031102362202
20
-4.8138527559055113
11
7.2257614566929131
21
-4.8139538188976374
0
LINE
8
BLACK
6
CONTINUOUS
10
7.2257614566929131
20
-4.8139538188976374
11
7.18245437007874
21
-4.8139538188976374
0
LINE
8
BLACK
6
CONTINUOUS
10
7.18245437007874
20
-4.8139538188976374
11
7.1809127165354329
21
-4.8138527559055113
0
LINE
8
BLACK
6
CONTINUOUS
10
7.1809127165354329
20
-4.8138527559055113
11
7.1779344881889759
21
-4.8130547637795278
0
LINE
8
BLACK
6
CONTINUOUS
10
7.1779344881889759
20
-4.8130547637795278
11
7.1752642913385829
21
-4.8115131102362207
0
LINE
8
BLACK
6
CONTINUOUS
10
7.1752642913385829
20
-4.8115131102362207
11
7.1730840551181103
21
-4.8093328740157482
0
LINE
8
BLACK
6
CONTINUOUS
10
7.1730840551181103
20
-4.8093328740157482
11
7.1715424015748033
21
-4.8066626771653542
0
LINE
8
BLACK
6
CONTINUOUS
10
7.1715424015748033
20
-4.8066626771653542
11
7.1707444094488189
21
-4.8036844488188972
0
LINE
8
BLACK
6
CONTINUOUS
10
7.1707444094488189
20
-4.8036844488188972
11
7.1707444094488189
21
-4.8006011417322831
0
LINE
8
BLACK
6
CONTINUOUS
10
7.1707444094488189
20
-4.8006011417322831
11
7.1715424015748033
21
-4.797622913385827
0
LINE
8
BLACK
6
CONTINUOUS
10
7.1715424015748033
20
-4.797622913385827
11
7.1730840551181103
21
-4.7949527165354331
0
LINE
8
BLACK
6
CONTINUOUS
10
7.1730840551181103
20
-4.7949527165354331
11
7.1752642913385829
21
-4.7927724803149605
0
LINE
8
BLACK
6
CONTINUOUS
10
7.1752642913385829
20
-4.7927724803149605
11
7.1779344881889759
21
-4.7912308267716535
0
LINE
8
BLACK
6
CONTINUOUS
10
7.1779344881889759
20
-4.7912308267716535
11
7.1809127165354329
21
-4.790432834645669
0
LINE
8
BLACK
6
CONTINUOUS
10
7.1809127165354329
20
-4.790432834645669
11
7.18245437007874
21
-4.790331771653543
0
LINE
8
BLACK
6
CONTINUOUS
10
7.18245437007874
20
-4.790331771653543
11
7.2257614566929131
21
-4.790331771653543
0
LINE
8
BLACK
6
CONTINUOUS
10
7.2257614566929131
20
-4.790331771653543
11
7.2273031102362202
21
-4.790432834645669
0
CIRCLE
8
BLACK
10
6.8886748425196851
20
-3.0975168110236222
40
0.0068897637795276
0
CIRCLE
8
BLACK
10
4.0886748425196853
20
-3.0975168110236222
40
0.0068897637795276
0
CIRCLE
8
BLACK
10
4.0886748425196853
20
-4.6975168110236218
40
0.0068897637795276
0
CIRCLE
8
BLACK
10
4.493399251968504
20
-3.4644459448818896
40
0.0068897637795276
0
CIRCLE
8
BLACK
10
4.296548858267716
20
-3.4644459448818896
40
0.0068897637795276
0
CIRCLE
8
BLACK
10
6.8886748425196851
20
-4.6975168110236218
40
0.0068897637795276
0
CIRCLE
8
BLACK
10
6.1252181496062992
20
-3.0695168110236222
40
0.0068897637795276
0
CIRCLE
8
BLACK
10
6.3173441338582679
20
-3.0695168110236222
40
0.0068897637795276
0
CIRCLE
8
BLACK
10
7.2237929527559057
20
-4.5182845275590546
40
0.0068897637795276
0
CIRCLE
8
BLACK
10
7.2237929527559057
20
-4.745843582677165
40
0.0068897637795276
0
LINE
8
BLACK
6
CONTINUOUS
10
7.3844228740157476
20
-4.4501742913385822
11
7.3529268110236217
21
-4.4501742913385822
0
ARC
8
BLACK
10
7.3529268110236217
20
-4.4619853149606294
40
0.0118110236220472
50
90.00000000
51
270.00000000
0
LINE
8
BLACK
6
CONTINUOUS
10
7.3529268110236217
20
-4.4737963385826767
11
7.3844228740157476
21
-4.4737963385826767
0
ARC
8
BLACK
10
7.3844228740157476
20
-4.4619853149606294
40
0.0118110236220472
50
270.00000000
51
450.00000000
0
LINE
8
BLACK
6
CONTINUOUS
10
7.3844228740157476
20
-4.790331771653543
11
7.3529268110236217
21
-4.790331771653543
0
ARC
8
BLACK
10
7.3529268110236217
20
-4.8021427952755902
40
0.0118110236220472
50
90.00000000
51
270.00000000
0
LINE
8
BLACK
6
CONTINUOUS
10
7.3529268110236217
20
-4.8139538188976374
11
7.3844228740157476
21
-4.8139538188976374
0
ARC
8
BLACK
10
7.3844228740157476
20
-4.8021427952755902
40
0.0118110236220472
50
270.00000000
51
450.00000000
0
LINE
8
BLACK
6
CONTINUOUS
10
7.2257614566929131
20
-4.4501742913385822
11
7.18245437007874
21
-4.4501742913385822
0
ARC
8
BLACK
10
7.18245437007874
20
-4.4619853149606294
40
0.0118110236220472
50
90.00000000
51
270.00000000
0
LINE
8
BLACK
6
CONTINUOUS
10
7.18245437007874
20
-4.4737963385826767
11
7.2257614566929131
21
-4.4737963385826767
0
ARC
8
BLACK
10
7.2257614566929131
20
-4.4619853149606294
40
0.0118110236220472
50
270.00000000
51
450.00000000
0
LINE
8
BLACK
6
CONTINUOUS
10
7.2257614566929131
20
-4.790331771653543
11
7.18245437007874
21
-4.790331771653543
0
ARC
8
BLACK
10
7.18245437007874
20
-4.8021427952755902
40
0.0118110236220472
50
90.00000000
51
270.00000000
0
LINE
8
BLACK
6
CONTINUOUS
10
7.18245437007874
20
-4.8139538188976374
11
7.2257614566929131
21
-4.8139538188976374
0
ARC
8
BLACK
10
7.2257614566929131
20
-4.8021427952755902
40
0.0118110236220472
50
270.00000000
51
450.00000000
  0
ENDSEC
  0
EOF
