  0
SECTION
  2
HEADER
  9
$ANGBASE
  50
0.0
  9
$ANGDIR
  70
1
  9
$MEASUREMENT
  70
0
  0
ENDSEC
  0
SECTION
  2
TABLES
  0
TABLE
  2
LTYPE
  70
4
  0
LTYPE
  5
40F
  2
CONTINUOUS
  70
0
  3
Solid line
  72
65
  73
0
  40
0.0
  0
LTYPE
  5
410
  2
DASHDOT
 70
0
  3
Dash Dot ____ _ ____ _
 72
65
 73
4
 40
2.0
 49
1.25
 49
-0.25
 49
0.25
 49
-0.25
  0
LTYPE
  5
411
  2
DASHED
 70
0
  3
Dashed __ __ __ __ __
 72
65
 73
2
 40
0.75
 49
0.5
 49
-0.25
  0
LTYPE
  5
43B
  2
DOTTED
 70
0
  3
Dotted .  .  .  .
 72
65
 73
2
 40
0.2
 49
0.0
 49
-0.2
  0
ENDTAB
  0
TABLE
  2
STYLE
  70
4
  0
STYLE
  2
KICAD
  70
0
  40
0
  41
1
  42
1
  50
0
  71
0
  3
isocp.shx
  0
STYLE
  2
KICADB
  70
0
  40
0
  41
1
  42
1
  50
0
  71
0
  3
isocp.shx
  0
STYLE
  2
KICADI
  70
0
  40
0
  41
1
  42
1
  50
15
  71
0
  3
isocp.shx
  0
STYLE
  2
KICADBI
  70
0
  40
0
  41
1
  42
1
  50
15
  71
0
  3
isocp.shx
  0
ENDTAB
  0
TABLE
  2
LAYER
  70
1
  0
LAYER
  2
BLACK
  70
0
  62
7
  6
CONTINUOUS
  0
ENDTAB
  0
ENDSEC
  0
SECTION
  2
ENTITIES
0
LINE
8
BLACK
6
CONTINUOUS
10
2.28804
20
0.10954
11
2.28776
21
0.110236
0
LINE
8
BLACK
6
CONTINUOUS
10
2.28776
20
0.110236
11
2.28776
21
0.289764
0
LINE
8
BLACK
6
CONTINUOUS
10
2.28776
20
0.289764
11
2.28804
21
0.29046
0
LINE
8
BLACK
6
CONTINUOUS
10
2.28804
20
0.29046
11
2.28874
21
0.290748
0
LINE
8
BLACK
6
CONTINUOUS
10
2.28874
20
0.290748
11
2.37693
21
0.290748
0
LINE
8
BLACK
6
CONTINUOUS
10
2.37693
20
0.290748
11
2.37763
21
0.29046
0
LINE
8
BLACK
6
CONTINUOUS
10
2.37763
20
0.29046
11
2.37791
21
0.289764
0
LINE
8
BLACK
6
CONTINUOUS
10
2.37791
20
0.289764
11
2.37791
21
0.110236
0
LINE
8
BLACK
6
CONTINUOUS
10
2.37791
20
0.110236
11
2.37763
21
0.10954
0
LINE
8
BLACK
6
CONTINUOUS
10
2.37763
20
0.10954
11
2.37693
21
0.109252
0
LINE
8
BLACK
6
CONTINUOUS
10
2.37693
20
0.109252
11
2.28874
21
0.109252
0
LINE
8
BLACK
6
CONTINUOUS
10
2.28874
20
0.109252
11
2.28804
21
0.10954
0
LINE
8
BLACK
6
CONTINUOUS
10
2.28972
20
0.28878
11
2.28972
21
0.11122
0
LINE
8
BLACK
6
CONTINUOUS
10
2.28972
20
0.11122
11
2.37594
21
0.11122
0
LINE
8
BLACK
6
CONTINUOUS
10
2.37594
20
0.11122
11
2.37594
21
0.28878
0
LINE
8
BLACK
6
CONTINUOUS
10
2.37594
20
0.28878
11
2.28972
21
0.28878
0
LINE
8
BLACK
6
CONTINUOUS
10
1.89434
20
0.10954
11
1.89406
21
0.110236
0
LINE
8
BLACK
6
CONTINUOUS
10
1.89406
20
0.110236
11
1.89406
21
0.289764
0
LINE
8
BLACK
6
CONTINUOUS
10
1.89406
20
0.289764
11
1.89434
21
0.29046
0
LINE
8
BLACK
6
CONTINUOUS
10
1.89434
20
0.29046
11
1.89504
21
0.290748
0
LINE
8
BLACK
6
CONTINUOUS
10
1.89504
20
0.290748
11
1.98323
21
0.290748
0
LINE
8
BLACK
6
CONTINUOUS
10
1.98323
20
0.290748
11
1.98392
21
0.29046
0
LINE
8
BLACK
6
CONTINUOUS
10
1.98392
20
0.29046
11
1.98421
21
0.289764
0
LINE
8
BLACK
6
CONTINUOUS
10
1.98421
20
0.289764
11
1.98421
21
0.110236
0
LINE
8
BLACK
6
CONTINUOUS
10
1.98421
20
0.110236
11
1.98392
21
0.10954
0
LINE
8
BLACK
6
CONTINUOUS
10
1.98392
20
0.10954
11
1.98323
21
0.109252
0
LINE
8
BLACK
6
CONTINUOUS
10
1.98323
20
0.109252
11
1.89504
21
0.109252
0
LINE
8
BLACK
6
CONTINUOUS
10
1.89504
20
0.109252
11
1.89434
21
0.10954
0
LINE
8
BLACK
6
CONTINUOUS
10
1.89602
20
0.28878
11
1.89602
21
0.11122
0
LINE
8
BLACK
6
CONTINUOUS
10
1.89602
20
0.11122
11
1.98224
21
0.11122
0
LINE
8
BLACK
6
CONTINUOUS
10
1.98224
20
0.11122
11
1.98224
21
0.28878
0
LINE
8
BLACK
6
CONTINUOUS
10
1.98224
20
0.28878
11
1.89602
21
0.28878
0
LINE
8
BLACK
6
CONTINUOUS
10
2.09119
20
0.10954
11
2.09091
21
0.110236
0
LINE
8
BLACK
6
CONTINUOUS
10
2.09091
20
0.110236
11
2.09091
21
0.289764
0
LINE
8
BLACK
6
CONTINUOUS
10
2.09091
20
0.289764
11
2.09119
21
0.29046
0
LINE
8
BLACK
6
CONTINUOUS
10
2.09119
20
0.29046
11
2.09189
21
0.290748
0
LINE
8
BLACK
6
CONTINUOUS
10
2.09189
20
0.290748
11
2.18008
21
0.290748
0
LINE
8
BLACK
6
CONTINUOUS
10
2.18008
20
0.290748
11
2.18077
21
0.29046
0
LINE
8
BLACK
6
CONTINUOUS
10
2.18077
20
0.29046
11
2.18106
21
0.289764
0
LINE
8
BLACK
6
CONTINUOUS
10
2.18106
20
0.289764
11
2.18106
21
0.110236
0
LINE
8
BLACK
6
CONTINUOUS
10
2.18106
20
0.110236
11
2.18077
21
0.10954
0
LINE
8
BLACK
6
CONTINUOUS
10
2.18077
20
0.10954
11
2.18008
21
0.109252
0
LINE
8
BLACK
6
CONTINUOUS
10
2.18008
20
0.109252
11
2.09189
21
0.109252
0
LINE
8
BLACK
6
CONTINUOUS
10
2.09189
20
0.109252
11
2.09119
21
0.10954
0
LINE
8
BLACK
6
CONTINUOUS
10
2.09287
20
0.28878
11
2.09287
21
0.11122
0
LINE
8
BLACK
6
CONTINUOUS
10
2.09287
20
0.11122
11
2.17909
21
0.11122
0
LINE
8
BLACK
6
CONTINUOUS
10
2.17909
20
0.11122
11
2.17909
21
0.28878
0
LINE
8
BLACK
6
CONTINUOUS
10
2.17909
20
0.28878
11
2.09287
21
0.28878
0
LINE
8
BLACK
6
CONTINUOUS
10
2.48489
20
0.10954
11
2.48461
21
0.110236
0
LINE
8
BLACK
6
CONTINUOUS
10
2.48461
20
0.110236
11
2.48461
21
0.289764
0
LINE
8
BLACK
6
CONTINUOUS
10
2.48461
20
0.289764
11
2.48489
21
0.29046
0
LINE
8
BLACK
6
CONTINUOUS
10
2.48489
20
0.29046
11
2.48559
21
0.290748
0
LINE
8
BLACK
6
CONTINUOUS
10
2.48559
20
0.290748
11
2.57378
21
0.290748
0
LINE
8
BLACK
6
CONTINUOUS
10
2.57378
20
0.290748
11
2.57448
21
0.29046
0
LINE
8
BLACK
6
CONTINUOUS
10
2.57448
20
0.29046
11
2.57476
21
0.289764
0
LINE
8
BLACK
6
CONTINUOUS
10
2.57476
20
0.289764
11
2.57476
21
0.110236
0
LINE
8
BLACK
6
CONTINUOUS
10
2.57476
20
0.110236
11
2.57448
21
0.10954
0
LINE
8
BLACK
6
CONTINUOUS
10
2.57448
20
0.10954
11
2.57378
21
0.109252
0
LINE
8
BLACK
6
CONTINUOUS
10
2.57378
20
0.109252
11
2.48559
21
0.109252
0
LINE
8
BLACK
6
CONTINUOUS
10
2.48559
20
0.109252
11
2.48489
21
0.10954
0
LINE
8
BLACK
6
CONTINUOUS
10
2.48657
20
0.28878
11
2.48657
21
0.11122
0
LINE
8
BLACK
6
CONTINUOUS
10
2.48657
20
0.11122
11
2.5728
21
0.11122
0
LINE
8
BLACK
6
CONTINUOUS
10
2.5728
20
0.11122
11
2.5728
21
0.28878
0
LINE
8
BLACK
6
CONTINUOUS
10
2.5728
20
0.28878
11
2.48657
21
0.28878
0
LINE
8
BLACK
6
CONTINUOUS
10
2.68174
20
0.10954
11
2.68146
21
0.110236
0
LINE
8
BLACK
6
CONTINUOUS
10
2.68146
20
0.110236
11
2.68146
21
0.289764
0
LINE
8
BLACK
6
CONTINUOUS
10
2.68146
20
0.289764
11
2.68174
21
0.29046
0
LINE
8
BLACK
6
CONTINUOUS
10
2.68174
20
0.29046
11
2.68244
21
0.290748
0
LINE
8
BLACK
6
CONTINUOUS
10
2.68244
20
0.290748
11
2.77063
21
0.290748
0
LINE
8
BLACK
6
CONTINUOUS
10
2.77063
20
0.290748
11
2.77133
21
0.29046
0
LINE
8
BLACK
6
CONTINUOUS
10
2.77133
20
0.29046
11
2.77161
21
0.289764
0
LINE
8
BLACK
6
CONTINUOUS
10
2.77161
20
0.289764
11
2.77161
21
0.110236
0
LINE
8
BLACK
6
CONTINUOUS
10
2.77161
20
0.110236
11
2.77133
21
0.10954
0
LINE
8
BLACK
6
CONTINUOUS
10
2.77133
20
0.10954
11
2.77063
21
0.109252
0
LINE
8
BLACK
6
CONTINUOUS
10
2.77063
20
0.109252
11
2.68244
21
0.109252
0
LINE
8
BLACK
6
CONTINUOUS
10
2.68244
20
0.109252
11
2.68174
21
0.10954
0
LINE
8
BLACK
6
CONTINUOUS
10
2.68343
20
0.28878
11
2.68343
21
0.11122
0
LINE
8
BLACK
6
CONTINUOUS
10
2.68343
20
0.11122
11
2.76965
21
0.11122
0
LINE
8
BLACK
6
CONTINUOUS
10
2.76965
20
0.11122
11
2.76965
21
0.28878
0
LINE
8
BLACK
6
CONTINUOUS
10
2.76965
20
0.28878
11
2.68343
21
0.28878
0
LINE
8
BLACK
6
CONTINUOUS
10
1.97854
20
0.795564
11
1.97825
21
0.79626
0
LINE
8
BLACK
6
CONTINUOUS
10
1.97825
20
0.79626
11
1.97825
21
0.85374
0
LINE
8
BLACK
6
CONTINUOUS
10
1.97825
20
0.85374
11
1.97854
21
0.854436
0
LINE
8
BLACK
6
CONTINUOUS
10
1.97854
20
0.854436
11
1.97923
21
0.854724
0
LINE
8
BLACK
6
CONTINUOUS
10
1.97923
20
0.854724
11
2.09577
21
0.854724
0
LINE
8
BLACK
6
CONTINUOUS
10
2.09577
20
0.854724
11
2.09646
21
0.854436
0
LINE
8
BLACK
6
CONTINUOUS
10
2.09646
20
0.854436
11
2.09675
21
0.85374
0
LINE
8
BLACK
6
CONTINUOUS
10
2.09675
20
0.85374
11
2.09675
21
0.79626
0
LINE
8
BLACK
6
CONTINUOUS
10
2.09675
20
0.79626
11
2.09646
21
0.795564
0
LINE
8
BLACK
6
CONTINUOUS
10
2.09646
20
0.795564
11
2.09577
21
0.795276
0
LINE
8
BLACK
6
CONTINUOUS
10
2.09577
20
0.795276
11
1.97923
21
0.795276
0
LINE
8
BLACK
6
CONTINUOUS
10
1.97923
20
0.795276
11
1.97854
21
0.795564
0
LINE
8
BLACK
6
CONTINUOUS
10
1.98022
20
0.852756
11
1.98022
21
0.797244
0
LINE
8
BLACK
6
CONTINUOUS
10
1.98022
20
0.797244
11
2.09478
21
0.797244
0
LINE
8
BLACK
6
CONTINUOUS
10
2.09478
20
0.797244
11
2.09478
21
0.852756
0
LINE
8
BLACK
6
CONTINUOUS
10
2.09478
20
0.852756
11
1.98022
21
0.852756
0
LINE
8
BLACK
6
CONTINUOUS
10
1.97854
20
0.985564
11
1.97825
21
0.98626
0
LINE
8
BLACK
6
CONTINUOUS
10
1.97825
20
0.98626
11
1.97825
21
1.04374
0
LINE
8
BLACK
6
CONTINUOUS
10
1.97825
20
1.04374
11
1.97854
21
1.04444
0
LINE
8
BLACK
6
CONTINUOUS
10
1.97854
20
1.04444
11
1.97923
21
1.04472
0
LINE
8
BLACK
6
CONTINUOUS
10
1.97923
20
1.04472
11
2.09577
21
1.04472
0
LINE
8
BLACK
6
CONTINUOUS
10
2.09577
20
1.04472
11
2.09646
21
1.04444
0
LINE
8
BLACK
6
CONTINUOUS
10
2.09646
20
1.04444
11
2.09675
21
1.04374
0
LINE
8
BLACK
6
CONTINUOUS
10
2.09675
20
1.04374
11
2.09675
21
0.98626
0
LINE
8
BLACK
6
CONTINUOUS
10
2.09675
20
0.98626
11
2.09646
21
0.985564
0
LINE
8
BLACK
6
CONTINUOUS
10
2.09646
20
0.985564
11
2.09577
21
0.985276
0
LINE
8
BLACK
6
CONTINUOUS
10
2.09577
20
0.985276
11
1.97923
21
0.985276
0
LINE
8
BLACK
6
CONTINUOUS
10
1.97923
20
0.985276
11
1.97854
21
0.985564
0
LINE
8
BLACK
6
CONTINUOUS
10
1.98022
20
1.04276
11
1.98022
21
0.987244
0
LINE
8
BLACK
6
CONTINUOUS
10
1.98022
20
0.987244
11
2.09478
21
0.987244
0
LINE
8
BLACK
6
CONTINUOUS
10
2.09478
20
0.987244
11
2.09478
21
1.04276
0
LINE
8
BLACK
6
CONTINUOUS
10
2.09478
20
1.04276
11
1.98022
21
1.04276
0
LINE
8
BLACK
6
CONTINUOUS
10
1.96905
20
1.06556
11
1.96876
21
1.06626
0
LINE
8
BLACK
6
CONTINUOUS
10
1.96876
20
1.06626
11
1.96876
21
1.12374
0
LINE
8
BLACK
6
CONTINUOUS
10
1.96876
20
1.12374
11
1.96905
21
1.12444
0
LINE
8
BLACK
6
CONTINUOUS
10
1.96905
20
1.12444
11
1.96974
21
1.12472
0
LINE
8
BLACK
6
CONTINUOUS
10
1.96974
20
1.12472
11
2.08628
21
1.12472
0
LINE
8
BLACK
6
CONTINUOUS
10
2.08628
20
1.12472
11
2.08698
21
1.12444
0
LINE
8
BLACK
6
CONTINUOUS
10
2.08698
20
1.12444
11
2.08726
21
1.12374
0
LINE
8
BLACK
6
CONTINUOUS
10
2.08726
20
1.12374
11
2.08726
21
1.06626
0
LINE
8
BLACK
6
CONTINUOUS
10
2.08726
20
1.06626
11
2.08698
21
1.06556
0
LINE
8
BLACK
6
CONTINUOUS
10
2.08698
20
1.06556
11
2.08628
21
1.06528
0
LINE
8
BLACK
6
CONTINUOUS
10
2.08628
20
1.06528
11
1.96974
21
1.06528
0
LINE
8
BLACK
6
CONTINUOUS
10
1.96974
20
1.06528
11
1.96905
21
1.06556
0
LINE
8
BLACK
6
CONTINUOUS
10
1.97073
20
1.12276
11
1.97073
21
1.06724
0
LINE
8
BLACK
6
CONTINUOUS
10
1.97073
20
1.06724
11
2.0853
21
1.06724
0
LINE
8
BLACK
6
CONTINUOUS
10
2.0853
20
1.06724
11
2.0853
21
1.12276
0
LINE
8
BLACK
6
CONTINUOUS
10
2.0853
20
1.12276
11
1.97073
21
1.12276
0
LINE
8
BLACK
6
CONTINUOUS
10
1.59907
20
1.08757
11
1.59878
21
1.08827
0
LINE
8
BLACK
6
CONTINUOUS
10
1.59878
20
1.08827
11
1.59878
21
1.56465
0
LINE
8
BLACK
6
CONTINUOUS
10
1.59878
20
1.56465
11
1.59907
21
1.56534
0
LINE
8
BLACK
6
CONTINUOUS
10
1.59907
20
1.56534
11
1.59976
21
1.56563
0
LINE
8
BLACK
6
CONTINUOUS
10
1.59976
20
1.56563
11
1.82024
21
1.56563
0
LINE
8
BLACK
6
CONTINUOUS
10
1.82024
20
1.56563
11
1.82093
21
1.56534
0
LINE
8
BLACK
6
CONTINUOUS
10
1.82093
20
1.56534
11
1.82122
21
1.56465
0
LINE
8
BLACK
6
CONTINUOUS
10
1.82122
20
1.56465
11
1.82122
21
1.08827
0
LINE
8
BLACK
6
CONTINUOUS
10
1.82122
20
1.08827
11
1.82093
21
1.08757
0
LINE
8
BLACK
6
CONTINUOUS
10
1.82093
20
1.08757
11
1.82024
21
1.08728
0
LINE
8
BLACK
6
CONTINUOUS
10
1.82024
20
1.08728
11
1.59976
21
1.08728
0
LINE
8
BLACK
6
CONTINUOUS
10
1.59976
20
1.08728
11
1.59907
21
1.08757
0
LINE
8
BLACK
6
CONTINUOUS
10
1.60075
20
1.56366
11
1.60075
21
1.08925
0
LINE
8
BLACK
6
CONTINUOUS
10
1.60075
20
1.08925
11
1.81925
21
1.08925
0
LINE
8
BLACK
6
CONTINUOUS
10
1.81925
20
1.08925
11
1.81925
21
1.56366
0
LINE
8
BLACK
6
CONTINUOUS
10
1.81925
20
1.56366
11
1.60075
21
1.56366
0
LINE
8
BLACK
6
CONTINUOUS
10
1.96905
20
1.13556
11
1.96876
21
1.13626
0
LINE
8
BLACK
6
CONTINUOUS
10
1.96876
20
1.13626
11
1.96876
21
1.19374
0
LINE
8
BLACK
6
CONTINUOUS
10
1.96876
20
1.19374
11
1.96905
21
1.19444
0
LINE
8
BLACK
6
CONTINUOUS
10
1.96905
20
1.19444
11
1.96974
21
1.19472
0
LINE
8
BLACK
6
CONTINUOUS
10
1.96974
20
1.19472
11
2.08628
21
1.19472
0
LINE
8
BLACK
6
CONTINUOUS
10
2.08628
20
1.19472
11
2.08698
21
1.19444
0
LINE
8
BLACK
6
CONTINUOUS
10
2.08698
20
1.19444
11
2.08726
21
1.19374
0
LINE
8
BLACK
6
CONTINUOUS
10
2.08726
20
1.19374
11
2.08726
21
1.13626
0
LINE
8
BLACK
6
CONTINUOUS
10
2.08726
20
1.13626
11
2.08698
21
1.13556
0
LINE
8
BLACK
6
CONTINUOUS
10
2.08698
20
1.13556
11
2.08628
21
1.13528
0
LINE
8
BLACK
6
CONTINUOUS
10
2.08628
20
1.13528
11
1.96974
21
1.13528
0
LINE
8
BLACK
6
CONTINUOUS
10
1.96974
20
1.13528
11
1.96905
21
1.13556
0
LINE
8
BLACK
6
CONTINUOUS
10
1.97073
20
1.19276
11
1.97073
21
1.13724
0
LINE
8
BLACK
6
CONTINUOUS
10
1.97073
20
1.13724
11
2.0853
21
1.13724
0
LINE
8
BLACK
6
CONTINUOUS
10
2.0853
20
1.13724
11
2.0853
21
1.19276
0
LINE
8
BLACK
6
CONTINUOUS
10
2.0853
20
1.19276
11
1.97073
21
1.19276
0
LINE
8
BLACK
6
CONTINUOUS
10
1.9735
20
1.28556
11
1.97321
21
1.28626
0
LINE
8
BLACK
6
CONTINUOUS
10
1.97321
20
1.28626
11
1.97321
21
1.34374
0
LINE
8
BLACK
6
CONTINUOUS
10
1.97321
20
1.34374
11
1.9735
21
1.34444
0
LINE
8
BLACK
6
CONTINUOUS
10
1.9735
20
1.34444
11
1.97419
21
1.34472
0
LINE
8
BLACK
6
CONTINUOUS
10
1.97419
20
1.34472
11
2.09073
21
1.34472
0
LINE
8
BLACK
6
CONTINUOUS
10
2.09073
20
1.34472
11
2.09142
21
1.34444
0
LINE
8
BLACK
6
CONTINUOUS
10
2.09142
20
1.34444
11
2.09171
21
1.34374
0
LINE
8
BLACK
6
CONTINUOUS
10
2.09171
20
1.34374
11
2.09171
21
1.28626
0
LINE
8
BLACK
6
CONTINUOUS
10
2.09171
20
1.28626
11
2.09142
21
1.28556
0
LINE
8
BLACK
6
CONTINUOUS
10
2.09142
20
1.28556
11
2.09073
21
1.28528
0
LINE
8
BLACK
6
CONTINUOUS
10
2.09073
20
1.28528
11
1.97419
21
1.28528
0
LINE
8
BLACK
6
CONTINUOUS
10
1.97419
20
1.28528
11
1.9735
21
1.28556
0
LINE
8
BLACK
6
CONTINUOUS
10
1.97518
20
1.34276
11
1.97518
21
1.28724
0
LINE
8
BLACK
6
CONTINUOUS
10
1.97518
20
1.28724
11
2.08974
21
1.28724
0
LINE
8
BLACK
6
CONTINUOUS
10
2.08974
20
1.28724
11
2.08974
21
1.34276
0
LINE
8
BLACK
6
CONTINUOUS
10
2.08974
20
1.34276
11
1.97518
21
1.34276
0
LINE
8
BLACK
6
CONTINUOUS
10
1.97854
20
1.37556
11
1.97825
21
1.37626
0
LINE
8
BLACK
6
CONTINUOUS
10
1.97825
20
1.37626
11
1.97825
21
1.43374
0
LINE
8
BLACK
6
CONTINUOUS
10
1.97825
20
1.43374
11
1.97854
21
1.43444
0
LINE
8
BLACK
6
CONTINUOUS
10
1.97854
20
1.43444
11
1.97923
21
1.43472
0
LINE
8
BLACK
6
CONTINUOUS
10
1.97923
20
1.43472
11
2.09577
21
1.43472
0
LINE
8
BLACK
6
CONTINUOUS
10
2.09577
20
1.43472
11
2.09646
21
1.43444
0
LINE
8
BLACK
6
CONTINUOUS
10
2.09646
20
1.43444
11
2.09675
21
1.43374
0
LINE
8
BLACK
6
CONTINUOUS
10
2.09675
20
1.43374
11
2.09675
21
1.37626
0
LINE
8
BLACK
6
CONTINUOUS
10
2.09675
20
1.37626
11
2.09646
21
1.37556
0
LINE
8
BLACK
6
CONTINUOUS
10
2.09646
20
1.37556
11
2.09577
21
1.37528
0
LINE
8
BLACK
6
CONTINUOUS
10
2.09577
20
1.37528
11
1.97923
21
1.37528
0
LINE
8
BLACK
6
CONTINUOUS
10
1.97923
20
1.37528
11
1.97854
21
1.37556
0
LINE
8
BLACK
6
CONTINUOUS
10
1.98022
20
1.43276
11
1.98022
21
1.37724
0
LINE
8
BLACK
6
CONTINUOUS
10
1.98022
20
1.37724
11
2.09478
21
1.37724
0
LINE
8
BLACK
6
CONTINUOUS
10
2.09478
20
1.37724
11
2.09478
21
1.43276
0
LINE
8
BLACK
6
CONTINUOUS
10
2.09478
20
1.43276
11
1.98022
21
1.43276
0
LINE
8
BLACK
6
CONTINUOUS
10
1.49702
20
1.60033
11
1.49673
21
1.60102
0
LINE
8
BLACK
6
CONTINUOUS
10
1.49673
20
1.60102
11
1.49673
21
1.99079
0
LINE
8
BLACK
6
CONTINUOUS
10
1.49673
20
1.99079
11
1.49702
21
1.99148
0
LINE
8
BLACK
6
CONTINUOUS
10
1.49702
20
1.99148
11
1.49772
21
1.99177
0
LINE
8
BLACK
6
CONTINUOUS
10
1.49772
20
1.99177
11
1.96228
21
1.99177
0
LINE
8
BLACK
6
CONTINUOUS
10
1.96228
20
1.99177
11
1.96298
21
1.99148
0
LINE
8
BLACK
6
CONTINUOUS
10
1.96298
20
1.99148
11
1.96327
21
1.99079
0
LINE
8
BLACK
6
CONTINUOUS
10
1.96327
20
1.99079
11
1.96327
21
1.60102
0
LINE
8
BLACK
6
CONTINUOUS
10
1.96327
20
1.60102
11
1.96298
21
1.60033
0
LINE
8
BLACK
6
CONTINUOUS
10
1.96298
20
1.60033
11
1.96228
21
1.60004
0
LINE
8
BLACK
6
CONTINUOUS
10
1.96228
20
1.60004
11
1.49772
21
1.60004
0
LINE
8
BLACK
6
CONTINUOUS
10
1.49772
20
1.60004
11
1.49702
21
1.60033
0
LINE
8
BLACK
6
CONTINUOUS
10
1.4987
20
1.9898
11
1.4987
21
1.60201
0
LINE
8
BLACK
6
CONTINUOUS
10
1.4987
20
1.60201
11
1.9613
21
1.60201
0
LINE
8
BLACK
6
CONTINUOUS
10
1.9613
20
1.60201
11
1.9613
21
1.9898
0
LINE
8
BLACK
6
CONTINUOUS
10
1.9613
20
1.9898
11
1.4987
21
1.9898
0
LINE
8
BLACK
6
CONTINUOUS
10
2.68174
20
1.70954
11
2.68146
21
1.71024
0
LINE
8
BLACK
6
CONTINUOUS
10
2.68146
20
1.71024
11
2.68146
21
1.88976
0
LINE
8
BLACK
6
CONTINUOUS
10
2.68146
20
1.88976
11
2.68174
21
1.89046
0
LINE
8
BLACK
6
CONTINUOUS
10
2.68174
20
1.89046
11
2.68244
21
1.89075
0
LINE
8
BLACK
6
CONTINUOUS
10
2.68244
20
1.89075
11
2.77063
21
1.89075
0
LINE
8
BLACK
6
CONTINUOUS
10
2.77063
20
1.89075
11
2.77133
21
1.89046
0
LINE
8
BLACK
6
CONTINUOUS
10
2.77133
20
1.89046
11
2.77161
21
1.88976
0
LINE
8
BLACK
6
CONTINUOUS
10
2.77161
20
1.88976
11
2.77161
21
1.71024
0
LINE
8
BLACK
6
CONTINUOUS
10
2.77161
20
1.71024
11
2.77133
21
1.70954
0
LINE
8
BLACK
6
CONTINUOUS
10
2.77133
20
1.70954
11
2.77063
21
1.70925
0
LINE
8
BLACK
6
CONTINUOUS
10
2.77063
20
1.70925
11
2.68244
21
1.70925
0
LINE
8
BLACK
6
CONTINUOUS
10
2.68244
20
1.70925
11
2.68174
21
1.70954
0
LINE
8
BLACK
6
CONTINUOUS
10
2.68343
20
1.88878
11
2.68343
21
1.71122
0
LINE
8
BLACK
6
CONTINUOUS
10
2.68343
20
1.71122
11
2.76965
21
1.71122
0
LINE
8
BLACK
6
CONTINUOUS
10
2.76965
20
1.71122
11
2.76965
21
1.88878
0
LINE
8
BLACK
6
CONTINUOUS
10
2.76965
20
1.88878
11
2.68343
21
1.88878
  0
ENDSEC
  0
EOF
