  0
SECTION
  2
HEADER
  9
$ANGBASE
  50
0.0
  9
$ANGDIR
  70
1
  9
$MEASUREMENT
  70
0
  0
ENDSEC
  0
SECTION
  2
TABLES
  0
TABLE
  2
LTYPE
  70
4
  0
LTYPE
  5
40F
  2
CONTINUOUS
  70
0
  3
Solid line
  72
65
  73
0
  40
0.0
  0
LTYPE
  5
410
  2
DASHDOT
 70
0
  3
Dash Dot ____ _ ____ _
 72
65
 73
4
 40
2.0
 49
1.25
 49
-0.25
 49
0.25
 49
-0.25
  0
LTYPE
  5
411
  2
DASHED
 70
0
  3
Dashed __ __ __ __ __
 72
65
 73
2
 40
0.75
 49
0.5
 49
-0.25
  0
LTYPE
  5
43B
  2
DOTTED
 70
0
  3
Dotted .  .  .  .
 72
65
 73
2
 40
0.2
 49
0.0
 49
-0.2
  0
ENDTAB
  0
TABLE
  2
STYLE
  70
4
  0
STYLE
  2
KICAD
  70
0
  40
0
  41
1
  42
1
  50
0
  71
0
  3
isocp.shx
  0
STYLE
  2
KICADB
  70
0
  40
0
  41
1
  42
1
  50
0
  71
0
  3
isocp.shx
  0
STYLE
  2
KICADI
  70
0
  40
0
  41
1
  42
1
  50
15
  71
0
  3
isocp.shx
  0
STYLE
  2
KICADBI
  70
0
  40
0
  41
1
  42
1
  50
15
  71
0
  3
isocp.shx
  0
ENDTAB
  0
TABLE
  2
LAYER
  70
1
  0
LAYER
  2
BLACK
  70
0
  62
7
  6
CONTINUOUS
  0
ENDTAB
  0
ENDSEC
  0
SECTION
  2
ENTITIES
0
LINE
8
BLACK
6
CONTINUOUS
10
4.8921040551181099
20
-2.9080875984251966
11
4.8926748425196847
21
-2.9094656299212596
0
LINE
8
BLACK
6
CONTINUOUS
10
4.8926748425196847
20
-2.9094656299212596
11
4.8926748425196847
21
-4.885567992125984
0
LINE
8
BLACK
6
CONTINUOUS
10
4.8926748425196847
20
-4.885567992125984
11
4.8921040551181099
21
-4.8869460236220474
0
LINE
8
BLACK
6
CONTINUOUS
10
4.8921040551181099
20
-4.8869460236220474
11
4.8907260236220473
21
-4.8875168110236222
0
LINE
8
BLACK
6
CONTINUOUS
10
4.8907260236220473
20
-4.8875168110236222
11
3.9006236614173226
21
-4.8875168110236222
0
LINE
8
BLACK
6
CONTINUOUS
10
3.9006236614173226
20
-4.8875168110236222
11
3.8992456299212597
21
-4.8869460236220474
0
LINE
8
BLACK
6
CONTINUOUS
10
3.8992456299212597
20
-4.8869460236220474
11
3.8986748425196849
21
-4.885567992125984
0
LINE
8
BLACK
6
CONTINUOUS
10
3.8986748425196849
20
-4.885567992125984
11
3.8986748425196849
21
-2.9094656299212596
0
LINE
8
BLACK
6
CONTINUOUS
10
3.8986748425196849
20
-2.9094656299212596
11
3.8992456299212597
21
-2.9080875984251966
0
LINE
8
BLACK
6
CONTINUOUS
10
3.8992456299212597
20
-2.9080875984251966
11
3.9006236614173226
21
-2.9075168110236218
0
LINE
8
BLACK
6
CONTINUOUS
10
3.9006236614173226
20
-2.9075168110236218
11
4.8907260236220473
21
-2.9075168110236218
0
LINE
8
BLACK
6
CONTINUOUS
10
4.8907260236220473
20
-2.9075168110236218
11
4.8921040551181099
21
-2.9080875984251966
0
LINE
8
BLACK
6
CONTINUOUS
10
7.2278861811023623
20
-4.7785276771653544
11
7.2338922834645665
21
-4.780137007874016
0
LINE
8
BLACK
6
CONTINUOUS
10
7.2338922834645665
20
-4.780137007874016
11
7.2392772440944881
21
-4.7832459842519688
0
LINE
8
BLACK
6
CONTINUOUS
10
7.2392772440944881
20
-4.7832459842519688
11
7.2436740157480317
21
-4.7876427559055115
0
LINE
8
BLACK
6
CONTINUOUS
10
7.2436740157480317
20
-4.7876427559055115
11
7.2467829921259836
21
-4.7930277165354331
0
LINE
8
BLACK
6
CONTINUOUS
10
7.2467829921259836
20
-4.7930277165354331
11
7.2483923228346452
21
-4.7990338188976374
0
LINE
8
BLACK
6
CONTINUOUS
10
7.2483923228346452
20
-4.7990338188976374
11
7.2483923228346452
21
-4.805251771653543
0
LINE
8
BLACK
6
CONTINUOUS
10
7.2483923228346452
20
-4.805251771653543
11
7.2467829921259836
21
-4.8112578740157481
0
LINE
8
BLACK
6
CONTINUOUS
10
7.2467829921259836
20
-4.8112578740157481
11
7.2436740157480317
21
-4.8166428346456689
0
LINE
8
BLACK
6
CONTINUOUS
10
7.2436740157480317
20
-4.8166428346456689
11
7.2392772440944881
21
-4.8210396062992125
0
LINE
8
BLACK
6
CONTINUOUS
10
7.2392772440944881
20
-4.8210396062992125
11
7.2338922834645665
21
-4.8241485826771653
0
LINE
8
BLACK
6
CONTINUOUS
10
7.2338922834645665
20
-4.8241485826771653
11
7.2278861811023623
21
-4.8257579133858268
0
LINE
8
BLACK
6
CONTINUOUS
10
7.2278861811023623
20
-4.8257579133858268
11
7.2247772047244094
21
-4.8259616929133857
0
LINE
8
BLACK
6
CONTINUOUS
10
7.2247772047244094
20
-4.8259616929133857
11
7.1834386220472437
21
-4.8259616929133857
0
LINE
8
BLACK
6
CONTINUOUS
10
7.1834386220472437
20
-4.8259616929133857
11
7.1803296456692909
21
-4.8257579133858268
0
LINE
8
BLACK
6
CONTINUOUS
10
7.1803296456692909
20
-4.8257579133858268
11
7.1743235433070867
21
-4.8241485826771653
0
LINE
8
BLACK
6
CONTINUOUS
10
7.1743235433070867
20
-4.8241485826771653
11
7.168938582677165
21
-4.8210396062992125
0
LINE
8
BLACK
6
CONTINUOUS
10
7.168938582677165
20
-4.8210396062992125
11
7.1645418110236223
21
-4.8166428346456689
0
LINE
8
BLACK
6
CONTINUOUS
10
7.1645418110236223
20
-4.8166428346456689
11
7.1614328346456695
21
-4.8112578740157481
0
LINE
8
BLACK
6
CONTINUOUS
10
7.1614328346456695
20
-4.8112578740157481
11
7.1598235039370079
21
-4.805251771653543
0
LINE
8
BLACK
6
CONTINUOUS
10
7.1598235039370079
20
-4.805251771653543
11
7.1598235039370079
21
-4.7990338188976374
0
LINE
8
BLACK
6
CONTINUOUS
10
7.1598235039370079
20
-4.7990338188976374
11
7.1614328346456695
21
-4.7930277165354331
0
LINE
8
BLACK
6
CONTINUOUS
10
7.1614328346456695
20
-4.7930277165354331
11
7.1645418110236223
21
-4.7876427559055115
0
LINE
8
BLACK
6
CONTINUOUS
10
7.1645418110236223
20
-4.7876427559055115
11
7.168938582677165
21
-4.7832459842519688
0
LINE
8
BLACK
6
CONTINUOUS
10
7.168938582677165
20
-4.7832459842519688
11
7.1743235433070867
21
-4.780137007874016
0
LINE
8
BLACK
6
CONTINUOUS
10
7.1743235433070867
20
-4.780137007874016
11
7.1803296456692909
21
-4.7785276771653544
0
LINE
8
BLACK
6
CONTINUOUS
10
7.1803296456692909
20
-4.7785276771653544
11
7.1834386220472437
21
-4.7783238976377955
0
LINE
8
BLACK
6
CONTINUOUS
10
7.1834386220472437
20
-4.7783238976377955
11
7.2247772047244094
21
-4.7783238976377955
0
LINE
8
BLACK
6
CONTINUOUS
10
7.2247772047244094
20
-4.7783238976377955
11
7.2278861811023623
21
-4.7785276771653544
0
LINE
8
BLACK
6
CONTINUOUS
10
7.3913403937007871
20
-4.7795035039370077
11
7.3970983070866136
21
-4.7810463385826774
0
LINE
8
BLACK
6
CONTINUOUS
10
7.3970983070866136
20
-4.7810463385826774
11
7.4022607480314955
21
-4.7840268503937002
0
LINE
8
BLACK
6
CONTINUOUS
10
7.4022607480314955
20
-4.7840268503937002
11
7.4064758267716533
21
-4.788241929133858
0
LINE
8
BLACK
6
CONTINUOUS
10
7.4064758267716533
20
-4.788241929133858
11
7.409456338582677
21
-4.7934043700787399
0
LINE
8
BLACK
6
CONTINUOUS
10
7.409456338582677
20
-4.7934043700787399
11
7.4109991732283467
21
-4.7991622834645664
0
LINE
8
BLACK
6
CONTINUOUS
10
7.4109991732283467
20
-4.7991622834645664
11
7.4109991732283467
21
-4.8051233070866139
0
LINE
8
BLACK
6
CONTINUOUS
10
7.4109991732283467
20
-4.8051233070866139
11
7.409456338582677
21
-4.8108812204724405
0
LINE
8
BLACK
6
CONTINUOUS
10
7.409456338582677
20
-4.8108812204724405
11
7.4064758267716533
21
-4.8160436614173223
0
LINE
8
BLACK
6
CONTINUOUS
10
7.4064758267716533
20
-4.8160436614173223
11
7.4022607480314955
21
-4.8202587401574801
0
LINE
8
BLACK
6
CONTINUOUS
10
7.4022607480314955
20
-4.8202587401574801
11
7.3970983070866136
21
-4.8232392519685039
0
LINE
8
BLACK
6
CONTINUOUS
10
7.3970983070866136
20
-4.8232392519685039
11
7.3913403937007871
21
-4.8247820866141735
0
LINE
8
BLACK
6
CONTINUOUS
10
7.3913403937007871
20
-4.8247820866141735
11
7.3883598818897633
21
-4.824977440944882
0
LINE
8
BLACK
6
CONTINUOUS
10
7.3883598818897633
20
-4.824977440944882
11
7.3489898031496059
21
-4.824977440944882
0
LINE
8
BLACK
6
CONTINUOUS
10
7.3489898031496059
20
-4.824977440944882
11
7.3460092913385822
21
-4.8247820866141735
0
LINE
8
BLACK
6
CONTINUOUS
10
7.3460092913385822
20
-4.8247820866141735
11
7.3402513779527556
21
-4.8232392519685039
0
LINE
8
BLACK
6
CONTINUOUS
10
7.3402513779527556
20
-4.8232392519685039
11
7.3350889370078738
21
-4.8202587401574801
0
LINE
8
BLACK
6
CONTINUOUS
10
7.3350889370078738
20
-4.8202587401574801
11
7.330873858267716
21
-4.8160436614173223
0
LINE
8
BLACK
6
CONTINUOUS
10
7.330873858267716
20
-4.8160436614173223
11
7.3278933464566931
21
-4.8108812204724405
0
LINE
8
BLACK
6
CONTINUOUS
10
7.3278933464566931
20
-4.8108812204724405
11
7.3263505118110235
21
-4.8051233070866139
0
LINE
8
BLACK
6
CONTINUOUS
10
7.3263505118110235
20
-4.8051233070866139
11
7.3263505118110235
21
-4.7991622834645664
0
LINE
8
BLACK
6
CONTINUOUS
10
7.3263505118110235
20
-4.7991622834645664
11
7.3278933464566931
21
-4.7934043700787399
0
LINE
8
BLACK
6
CONTINUOUS
10
7.3278933464566931
20
-4.7934043700787399
11
7.330873858267716
21
-4.788241929133858
0
LINE
8
BLACK
6
CONTINUOUS
10
7.330873858267716
20
-4.788241929133858
11
7.3350889370078738
21
-4.7840268503937002
0
LINE
8
BLACK
6
CONTINUOUS
10
7.3350889370078738
20
-4.7840268503937002
11
7.3402513779527556
21
-4.7810463385826774
0
LINE
8
BLACK
6
CONTINUOUS
10
7.3402513779527556
20
-4.7810463385826774
11
7.3460092913385822
21
-4.7795035039370077
0
LINE
8
BLACK
6
CONTINUOUS
10
7.3460092913385822
20
-4.7795035039370077
11
7.3489898031496059
21
-4.7793081496062992
0
LINE
8
BLACK
6
CONTINUOUS
10
7.3489898031496059
20
-4.7793081496062992
11
7.3883598818897633
21
-4.7793081496062992
0
LINE
8
BLACK
6
CONTINUOUS
10
7.3883598818897633
20
-4.7793081496062992
11
7.3913403937007871
21
-4.7795035039370077
0
LINE
8
BLACK
6
CONTINUOUS
10
5.0001033858267716
20
-4.7458420078740158
11
5.0072337795275592
21
-4.7487955118110232
0
LINE
8
BLACK
6
CONTINUOUS
10
5.0072337795275592
20
-4.7487955118110232
11
5.0136509448818893
21
-4.7530833464566928
0
LINE
8
BLACK
6
CONTINUOUS
10
5.0136509448818893
20
-4.7530833464566928
11
5.019108307086614
21
-4.7585407086614175
0
LINE
8
BLACK
6
CONTINUOUS
10
5.019108307086614
20
-4.7585407086614175
11
5.0233961417322837
21
-4.7649578740157477
0
LINE
8
BLACK
6
CONTINUOUS
10
5.0233961417322837
20
-4.7649578740157477
11
5.0263496456692911
21
-4.7720882677165353
0
LINE
8
BLACK
6
CONTINUOUS
10
5.0263496456692911
20
-4.7720882677165353
11
5.0278553543307085
21
-4.779657874015748
0
LINE
8
BLACK
6
CONTINUOUS
10
5.0278553543307085
20
-4.779657874015748
11
5.0278553543307085
21
-4.7873757480314962
0
LINE
8
BLACK
6
CONTINUOUS
10
5.0278553543307085
20
-4.7873757480314962
11
5.0263496456692911
21
-4.7949453543307081
0
LINE
8
BLACK
6
CONTINUOUS
10
5.0263496456692911
20
-4.7949453543307081
11
5.0233961417322837
21
-4.8020757480314957
0
LINE
8
BLACK
6
CONTINUOUS
10
5.0233961417322837
20
-4.8020757480314957
11
5.019108307086614
21
-4.8084929133858267
0
LINE
8
BLACK
6
CONTINUOUS
10
5.019108307086614
20
-4.8084929133858267
11
5.0136509448818893
21
-4.8139502755905514
0
LINE
8
BLACK
6
CONTINUOUS
10
5.0136509448818893
20
-4.8139502755905514
11
5.0072337795275592
21
-4.8182381102362202
0
LINE
8
BLACK
6
CONTINUOUS
10
5.0072337795275592
20
-4.8182381102362202
11
5.0001033858267716
21
-4.8211916141732285
0
LINE
8
BLACK
6
CONTINUOUS
10
5.0001033858267716
20
-4.8211916141732285
11
4.9925337795275588
21
-4.8226973228346459
0
LINE
8
BLACK
6
CONTINUOUS
10
4.9925337795275588
20
-4.8226973228346459
11
4.9848159055118106
21
-4.8226973228346459
0
LINE
8
BLACK
6
CONTINUOUS
10
4.9848159055118106
20
-4.8226973228346459
11
4.9772462992125979
21
-4.8211916141732285
0
LINE
8
BLACK
6
CONTINUOUS
10
4.9772462992125979
20
-4.8211916141732285
11
4.9701159055118111
21
-4.8182381102362202
0
LINE
8
BLACK
6
CONTINUOUS
10
4.9701159055118111
20
-4.8182381102362202
11
4.9636987401574801
21
-4.8139502755905514
0
LINE
8
BLACK
6
CONTINUOUS
10
4.9636987401574801
20
-4.8139502755905514
11
4.9582413779527554
21
-4.8084929133858267
0
LINE
8
BLACK
6
CONTINUOUS
10
4.9582413779527554
20
-4.8084929133858267
11
4.9539535433070867
21
-4.8020757480314957
0
LINE
8
BLACK
6
CONTINUOUS
10
4.9539535433070867
20
-4.8020757480314957
11
4.9510000393700784
21
-4.7949453543307081
0
LINE
8
BLACK
6
CONTINUOUS
10
4.9510000393700784
20
-4.7949453543307081
11
4.949494330708661
21
-4.7873757480314962
0
LINE
8
BLACK
6
CONTINUOUS
10
4.949494330708661
20
-4.7873757480314962
11
4.949494330708661
21
-4.779657874015748
0
LINE
8
BLACK
6
CONTINUOUS
10
4.949494330708661
20
-4.779657874015748
11
4.9510000393700784
21
-4.7720882677165353
0
LINE
8
BLACK
6
CONTINUOUS
10
4.9510000393700784
20
-4.7720882677165353
11
4.9539535433070867
21
-4.7649578740157477
0
LINE
8
BLACK
6
CONTINUOUS
10
4.9539535433070867
20
-4.7649578740157477
11
4.9582413779527554
21
-4.7585407086614175
0
LINE
8
BLACK
6
CONTINUOUS
10
4.9582413779527554
20
-4.7585407086614175
11
4.9636987401574801
21
-4.7530833464566928
0
LINE
8
BLACK
6
CONTINUOUS
10
4.9636987401574801
20
-4.7530833464566928
11
4.9701159055118111
21
-4.7487955118110232
0
LINE
8
BLACK
6
CONTINUOUS
10
4.9701159055118111
20
-4.7487955118110232
11
4.9772462992125979
21
-4.7458420078740158
0
LINE
8
BLACK
6
CONTINUOUS
10
4.9772462992125979
20
-4.7458420078740158
11
4.9848159055118106
21
-4.7443362992125984
0
LINE
8
BLACK
6
CONTINUOUS
10
4.9848159055118106
20
-4.7443362992125984
11
4.9925337795275588
21
-4.7443362992125984
0
LINE
8
BLACK
6
CONTINUOUS
10
4.9925337795275588
20
-4.7443362992125984
11
5.0001033858267716
21
-4.7458420078740158
0
LINE
8
BLACK
6
CONTINUOUS
10
6.9089866141732283
20
-4.5779702362204722
11
6.9222438582677164
21
-4.5809961417322835
0
LINE
8
BLACK
6
CONTINUOUS
10
6.9222438582677164
20
-4.5809961417322835
11
6.9350789763779526
21
-4.5854873228346458
0
LINE
8
BLACK
6
CONTINUOUS
10
6.9350789763779526
20
-4.5854873228346458
11
6.9473305118110238
21
-4.5913873622047241
0
LINE
8
BLACK
6
CONTINUOUS
10
6.9473305118110238
20
-4.5913873622047241
11
6.9588444488188976
21
-4.5986220472440946
0
LINE
8
BLACK
6
CONTINUOUS
10
6.9588444488188976
20
-4.5986220472440946
11
6.9694759055118105
21
-4.6071003543307087
0
LINE
8
BLACK
6
CONTINUOUS
10
6.9694759055118105
20
-4.6071003543307087
11
6.9790912992125982
21
-4.6167157480314955
0
LINE
8
BLACK
6
CONTINUOUS
10
6.9790912992125982
20
-4.6167157480314955
11
6.9875696062992123
21
-4.6273472047244093
0
LINE
8
BLACK
6
CONTINUOUS
10
6.9875696062992123
20
-4.6273472047244093
11
6.9948042913385828
21
-4.6388611417322831
0
LINE
8
BLACK
6
CONTINUOUS
10
6.9948042913385828
20
-4.6388611417322831
11
7.0007043307086612
21
-4.6511126771653544
0
LINE
8
BLACK
6
CONTINUOUS
10
7.0007043307086612
20
-4.6511126771653544
11
7.0051955118110234
21
-4.6639477952755906
0
LINE
8
BLACK
6
CONTINUOUS
10
7.0051955118110234
20
-4.6639477952755906
11
7.0082214173228348
21
-4.6772050393700786
0
LINE
8
BLACK
6
CONTINUOUS
10
7.0082214173228348
20
-4.6772050393700786
11
7.0097439370078742
21
-4.690717716535433
0
LINE
8
BLACK
6
CONTINUOUS
10
7.0097439370078742
20
-4.690717716535433
11
7.0097439370078742
21
-4.7043159055118107
0
LINE
8
BLACK
6
CONTINUOUS
10
7.0097439370078742
20
-4.7043159055118107
11
7.0082214173228348
21
-4.7178285826771651
0
LINE
8
BLACK
6
CONTINUOUS
10
7.0082214173228348
20
-4.7178285826771651
11
7.0051955118110234
21
-4.7310858267716531
0
LINE
8
BLACK
6
CONTINUOUS
10
7.0051955118110234
20
-4.7310858267716531
11
7.0007043307086612
21
-4.7439209448818893
0
LINE
8
BLACK
6
CONTINUOUS
10
7.0007043307086612
20
-4.7439209448818893
11
6.9948042913385828
21
-4.7561724803149605
0
LINE
8
BLACK
6
CONTINUOUS
10
6.9948042913385828
20
-4.7561724803149605
11
6.9875696062992123
21
-4.7676864173228344
0
LINE
8
BLACK
6
CONTINUOUS
10
6.9875696062992123
20
-4.7676864173228344
11
6.9790912992125982
21
-4.7783178740157481
0
LINE
8
BLACK
6
CONTINUOUS
10
6.9790912992125982
20
-4.7783178740157481
11
6.9694759055118105
21
-4.7879332677165349
0
LINE
8
BLACK
6
CONTINUOUS
10
6.9694759055118105
20
-4.7879332677165349
11
6.9588444488188976
21
-4.7964115748031491
0
LINE
8
BLACK
6
CONTINUOUS
10
6.9588444488188976
20
-4.7964115748031491
11
6.9473305118110238
21
-4.8036462598425196
0
LINE
8
BLACK
6
CONTINUOUS
10
6.9473305118110238
20
-4.8036462598425196
11
6.9350789763779526
21
-4.8095462992125979
0
LINE
8
BLACK
6
CONTINUOUS
10
6.9350789763779526
20
-4.8095462992125979
11
6.9222438582677164
21
-4.8140374803149601
0
LINE
8
BLACK
6
CONTINUOUS
10
6.9222438582677164
20
-4.8140374803149601
11
6.9089866141732283
21
-4.8170633858267715
0
LINE
8
BLACK
6
CONTINUOUS
10
6.9089866141732283
20
-4.8170633858267715
11
6.8954739370078739
21
-4.818585905511811
0
LINE
8
BLACK
6
CONTINUOUS
10
6.8954739370078739
20
-4.818585905511811
11
6.8818757480314963
21
-4.818585905511811
0
LINE
8
BLACK
6
CONTINUOUS
10
6.8818757480314963
20
-4.818585905511811
11
6.8683630708661418
21
-4.8170633858267715
0
LINE
8
BLACK
6
CONTINUOUS
10
6.8683630708661418
20
-4.8170633858267715
11
6.8551058267716538
21
-4.8140374803149601
0
LINE
8
BLACK
6
CONTINUOUS
10
6.8551058267716538
20
-4.8140374803149601
11
6.8422707086614167
21
-4.8095462992125979
0
LINE
8
BLACK
6
CONTINUOUS
10
6.8422707086614167
20
-4.8095462992125979
11
6.8300191732283464
21
-4.8036462598425196
0
LINE
8
BLACK
6
CONTINUOUS
10
6.8300191732283464
20
-4.8036462598425196
11
6.8185052362204726
21
-4.7964115748031491
0
LINE
8
BLACK
6
CONTINUOUS
10
6.8185052362204726
20
-4.7964115748031491
11
6.8078737795275588
21
-4.7879332677165349
0
LINE
8
BLACK
6
CONTINUOUS
10
6.8078737795275588
20
-4.7879332677165349
11
6.7982583858267711
21
-4.7783178740157481
0
LINE
8
BLACK
6
CONTINUOUS
10
6.7982583858267711
20
-4.7783178740157481
11
6.789780078740157
21
-4.7676864173228344
0
LINE
8
BLACK
6
CONTINUOUS
10
6.789780078740157
20
-4.7676864173228344
11
6.7825453937007874
21
-4.7561724803149605
0
LINE
8
BLACK
6
CONTINUOUS
10
6.7825453937007874
20
-4.7561724803149605
11
6.7766453543307081
21
-4.7439209448818893
0
LINE
8
BLACK
6
CONTINUOUS
10
6.7766453543307081
20
-4.7439209448818893
11
6.7721541732283459
21
-4.7310858267716531
0
LINE
8
BLACK
6
CONTINUOUS
10
6.7721541732283459
20
-4.7310858267716531
11
6.7691282677165354
21
-4.7178285826771651
0
LINE
8
BLACK
6
CONTINUOUS
10
6.7691282677165354
20
-4.7178285826771651
11
6.7676057480314959
21
-4.7043159055118107
0
LINE
8
BLACK
6
CONTINUOUS
10
6.7676057480314959
20
-4.7043159055118107
11
6.7676057480314959
21
-4.690717716535433
0
LINE
8
BLACK
6
CONTINUOUS
10
6.7676057480314959
20
-4.690717716535433
11
6.7691282677165354
21
-4.6772050393700786
0
LINE
8
BLACK
6
CONTINUOUS
10
6.7691282677165354
20
-4.6772050393700786
11
6.7721541732283459
21
-4.6639477952755906
0
LINE
8
BLACK
6
CONTINUOUS
10
6.7721541732283459
20
-4.6639477952755906
11
6.7766453543307081
21
-4.6511126771653544
0
LINE
8
BLACK
6
CONTINUOUS
10
6.7766453543307081
20
-4.6511126771653544
11
6.7825453937007874
21
-4.6388611417322831
0
LINE
8
BLACK
6
CONTINUOUS
10
6.7825453937007874
20
-4.6388611417322831
11
6.789780078740157
21
-4.6273472047244093
0
LINE
8
BLACK
6
CONTINUOUS
10
6.789780078740157
20
-4.6273472047244093
11
6.7982583858267711
21
-4.6167157480314955
0
LINE
8
BLACK
6
CONTINUOUS
10
6.7982583858267711
20
-4.6167157480314955
11
6.8078737795275588
21
-4.6071003543307087
0
LINE
8
BLACK
6
CONTINUOUS
10
6.8078737795275588
20
-4.6071003543307087
11
6.8185052362204726
21
-4.5986220472440946
0
LINE
8
BLACK
6
CONTINUOUS
10
6.8185052362204726
20
-4.5986220472440946
11
6.8300191732283464
21
-4.5913873622047241
0
LINE
8
BLACK
6
CONTINUOUS
10
6.8300191732283464
20
-4.5913873622047241
11
6.8422707086614167
21
-4.5854873228346458
0
LINE
8
BLACK
6
CONTINUOUS
10
6.8422707086614167
20
-4.5854873228346458
11
6.8551058267716538
21
-4.5809961417322835
0
LINE
8
BLACK
6
CONTINUOUS
10
6.8551058267716538
20
-4.5809961417322835
11
6.8683630708661418
21
-4.5779702362204722
0
LINE
8
BLACK
6
CONTINUOUS
10
6.8683630708661418
20
-4.5779702362204722
11
6.8818757480314963
21
-4.5764477165354327
0
LINE
8
BLACK
6
CONTINUOUS
10
6.8818757480314963
20
-4.5764477165354327
11
6.8954739370078739
21
-4.5764477165354327
0
LINE
8
BLACK
6
CONTINUOUS
10
6.8954739370078739
20
-4.5764477165354327
11
6.9089866141732283
21
-4.5779702362204722
0
LINE
8
BLACK
6
CONTINUOUS
10
5.8557775984251963
20
-4.7253216929133854
11
5.8598669685039368
21
-4.7272286220472441
0
LINE
8
BLACK
6
CONTINUOUS
10
5.8598669685039368
20
-4.7272286220472441
11
5.8630575196850394
21
-4.7304191732283467
0
LINE
8
BLACK
6
CONTINUOUS
10
5.8630575196850394
20
-4.7304191732283467
11
5.8649644488188972
21
-4.7345085433070864
0
LINE
8
BLACK
6
CONTINUOUS
10
5.8649644488188972
20
-4.7345085433070864
11
5.8654071259842517
21
-4.737871141732283
0
LINE
8
BLACK
6
CONTINUOUS
10
5.8654071259842517
20
-4.737871141732283
11
5.8654071259842517
21
-4.7673987007874015
0
LINE
8
BLACK
6
CONTINUOUS
10
5.8654071259842517
20
-4.7673987007874015
11
5.8649644488188972
21
-4.7707612992125981
0
LINE
8
BLACK
6
CONTINUOUS
10
5.8649644488188972
20
-4.7707612992125981
11
5.8630575196850394
21
-4.7748506692913386
0
LINE
8
BLACK
6
CONTINUOUS
10
5.8630575196850394
20
-4.7748506692913386
11
5.8598669685039368
21
-4.7780412204724412
0
LINE
8
BLACK
6
CONTINUOUS
10
5.8598669685039368
20
-4.7780412204724412
11
5.8557775984251963
21
-4.779948149606299
0
LINE
8
BLACK
6
CONTINUOUS
10
5.8557775984251963
20
-4.779948149606299
11
5.8524149999999997
21
-4.7803908267716535
0
LINE
8
BLACK
6
CONTINUOUS
10
5.8524149999999997
20
-4.7803908267716535
11
5.8032024015748034
21
-4.7803908267716535
0
LINE
8
BLACK
6
CONTINUOUS
10
5.8032024015748034
20
-4.7803908267716535
11
5.7998398031496059
21
-4.779948149606299
0
LINE
8
BLACK
6
CONTINUOUS
10
5.7998398031496059
20
-4.779948149606299
11
5.7957504330708662
21
-4.7780412204724412
0
LINE
8
BLACK
6
CONTINUOUS
10
5.7957504330708662
20
-4.7780412204724412
11
5.7925598818897637
21
-4.7748506692913386
0
LINE
8
BLACK
6
CONTINUOUS
10
5.7925598818897637
20
-4.7748506692913386
11
5.790652952755905
21
-4.7707612992125981
0
LINE
8
BLACK
6
CONTINUOUS
10
5.790652952755905
20
-4.7707612992125981
11
5.7902102755905513
21
-4.7673987007874015
0
LINE
8
BLACK
6
CONTINUOUS
10
5.7902102755905513
20
-4.7673987007874015
11
5.7902102755905513
21
-4.737871141732283
0
LINE
8
BLACK
6
CONTINUOUS
10
5.7902102755905513
20
-4.737871141732283
11
5.790652952755905
21
-4.7345085433070864
0
LINE
8
BLACK
6
CONTINUOUS
10
5.790652952755905
20
-4.7345085433070864
11
5.7925598818897637
21
-4.7304191732283467
0
LINE
8
BLACK
6
CONTINUOUS
10
5.7925598818897637
20
-4.7304191732283467
11
5.7957504330708662
21
-4.7272286220472441
0
LINE
8
BLACK
6
CONTINUOUS
10
5.7957504330708662
20
-4.7272286220472441
11
5.7998398031496059
21
-4.7253216929133854
0
LINE
8
BLACK
6
CONTINUOUS
10
5.7998398031496059
20
-4.7253216929133854
11
5.8032024015748034
21
-4.7248790157480318
0
LINE
8
BLACK
6
CONTINUOUS
10
5.8032024015748034
20
-4.7248790157480318
11
5.8524149999999997
21
-4.7248790157480318
0
LINE
8
BLACK
6
CONTINUOUS
10
5.8524149999999997
20
-4.7248790157480318
11
5.8557775984251963
21
-4.7253216929133854
0
LINE
8
BLACK
6
CONTINUOUS
10
6.0526279921259842
20
-4.7253216929133854
11
6.0567173622047239
21
-4.7272286220472441
0
LINE
8
BLACK
6
CONTINUOUS
10
6.0567173622047239
20
-4.7272286220472441
11
6.0599079133858265
21
-4.7304191732283467
0
LINE
8
BLACK
6
CONTINUOUS
10
6.0599079133858265
20
-4.7304191732283467
11
6.0618148425196852
21
-4.7345085433070864
0
LINE
8
BLACK
6
CONTINUOUS
10
6.0618148425196852
20
-4.7345085433070864
11
6.0622575196850397
21
-4.737871141732283
0
LINE
8
BLACK
6
CONTINUOUS
10
6.0622575196850397
20
-4.737871141732283
11
6.0622575196850397
21
-4.7673987007874015
0
LINE
8
BLACK
6
CONTINUOUS
10
6.0622575196850397
20
-4.7673987007874015
11
6.0618148425196852
21
-4.7707612992125981
0
LINE
8
BLACK
6
CONTINUOUS
10
6.0618148425196852
20
-4.7707612992125981
11
6.0599079133858265
21
-4.7748506692913386
0
LINE
8
BLACK
6
CONTINUOUS
10
6.0599079133858265
20
-4.7748506692913386
11
6.0567173622047239
21
-4.7780412204724412
0
LINE
8
BLACK
6
CONTINUOUS
10
6.0567173622047239
20
-4.7780412204724412
11
6.0526279921259842
21
-4.779948149606299
0
LINE
8
BLACK
6
CONTINUOUS
10
6.0526279921259842
20
-4.779948149606299
11
6.0492653937007876
21
-4.7803908267716535
0
LINE
8
BLACK
6
CONTINUOUS
10
6.0492653937007876
20
-4.7803908267716535
11
6.0000527952755904
21
-4.7803908267716535
0
LINE
8
BLACK
6
CONTINUOUS
10
6.0000527952755904
20
-4.7803908267716535
11
5.9966901968503938
21
-4.779948149606299
0
LINE
8
BLACK
6
CONTINUOUS
10
5.9966901968503938
20
-4.779948149606299
11
5.9926008267716533
21
-4.7780412204724412
0
LINE
8
BLACK
6
CONTINUOUS
10
5.9926008267716533
20
-4.7780412204724412
11
5.9894102755905507
21
-4.7748506692913386
0
LINE
8
BLACK
6
CONTINUOUS
10
5.9894102755905507
20
-4.7748506692913386
11
5.9875033464566929
21
-4.7707612992125981
0
LINE
8
BLACK
6
CONTINUOUS
10
5.9875033464566929
20
-4.7707612992125981
11
5.9870606692913384
21
-4.7673987007874015
0
LINE
8
BLACK
6
CONTINUOUS
10
5.9870606692913384
20
-4.7673987007874015
11
5.9870606692913384
21
-4.737871141732283
0
LINE
8
BLACK
6
CONTINUOUS
10
5.9870606692913384
20
-4.737871141732283
11
5.9875033464566929
21
-4.7345085433070864
0
LINE
8
BLACK
6
CONTINUOUS
10
5.9875033464566929
20
-4.7345085433070864
11
5.9894102755905507
21
-4.7304191732283467
0
LINE
8
BLACK
6
CONTINUOUS
10
5.9894102755905507
20
-4.7304191732283467
11
5.9926008267716533
21
-4.7272286220472441
0
LINE
8
BLACK
6
CONTINUOUS
10
5.9926008267716533
20
-4.7272286220472441
11
5.9966901968503938
21
-4.7253216929133854
0
LINE
8
BLACK
6
CONTINUOUS
10
5.9966901968503938
20
-4.7253216929133854
11
6.0000527952755904
21
-4.7248790157480318
0
LINE
8
BLACK
6
CONTINUOUS
10
6.0000527952755904
20
-4.7248790157480318
11
6.0492653937007876
21
-4.7248790157480318
0
LINE
8
BLACK
6
CONTINUOUS
10
6.0492653937007876
20
-4.7248790157480318
11
6.0526279921259842
21
-4.7253216929133854
0
LINE
8
BLACK
6
CONTINUOUS
10
6.2494783858267713
20
-4.7253216929133854
11
6.2535677559055118
21
-4.7272286220472441
0
LINE
8
BLACK
6
CONTINUOUS
10
6.2535677559055118
20
-4.7272286220472441
11
6.2567583070866144
21
-4.7304191732283467
0
LINE
8
BLACK
6
CONTINUOUS
10
6.2567583070866144
20
-4.7304191732283467
11
6.2586652362204722
21
-4.7345085433070864
0
LINE
8
BLACK
6
CONTINUOUS
10
6.2586652362204722
20
-4.7345085433070864
11
6.2591079133858267
21
-4.737871141732283
0
LINE
8
BLACK
6
CONTINUOUS
10
6.2591079133858267
20
-4.737871141732283
11
6.2591079133858267
21
-4.7673987007874015
0
LINE
8
BLACK
6
CONTINUOUS
10
6.2591079133858267
20
-4.7673987007874015
11
6.2586652362204722
21
-4.7707612992125981
0
LINE
8
BLACK
6
CONTINUOUS
10
6.2586652362204722
20
-4.7707612992125981
11
6.2567583070866144
21
-4.7748506692913386
0
LINE
8
BLACK
6
CONTINUOUS
10
6.2567583070866144
20
-4.7748506692913386
11
6.2535677559055118
21
-4.7780412204724412
0
LINE
8
BLACK
6
CONTINUOUS
10
6.2535677559055118
20
-4.7780412204724412
11
6.2494783858267713
21
-4.779948149606299
0
LINE
8
BLACK
6
CONTINUOUS
10
6.2494783858267713
20
-4.779948149606299
11
6.2461157874015747
21
-4.7803908267716535
0
LINE
8
BLACK
6
CONTINUOUS
10
6.2461157874015747
20
-4.7803908267716535
11
6.1969031889763775
21
-4.7803908267716535
0
LINE
8
BLACK
6
CONTINUOUS
10
6.1969031889763775
20
-4.7803908267716535
11
6.1935405905511809
21
-4.779948149606299
0
LINE
8
BLACK
6
CONTINUOUS
10
6.1935405905511809
20
-4.779948149606299
11
6.1894512204724412
21
-4.7780412204724412
0
LINE
8
BLACK
6
CONTINUOUS
10
6.1894512204724412
20
-4.7780412204724412
11
6.1862606692913387
21
-4.7748506692913386
0
LINE
8
BLACK
6
CONTINUOUS
10
6.1862606692913387
20
-4.7748506692913386
11
6.18435374015748
21
-4.7707612992125981
0
LINE
8
BLACK
6
CONTINUOUS
10
6.18435374015748
20
-4.7707612992125981
11
6.1839110629921255
21
-4.7673987007874015
0
LINE
8
BLACK
6
CONTINUOUS
10
6.1839110629921255
20
-4.7673987007874015
11
6.1839110629921255
21
-4.737871141732283
0
LINE
8
BLACK
6
CONTINUOUS
10
6.1839110629921255
20
-4.737871141732283
11
6.18435374015748
21
-4.7345085433070864
0
LINE
8
BLACK
6
CONTINUOUS
10
6.18435374015748
20
-4.7345085433070864
11
6.1862606692913387
21
-4.7304191732283467
0
LINE
8
BLACK
6
CONTINUOUS
10
6.1862606692913387
20
-4.7304191732283467
11
6.1894512204724412
21
-4.7272286220472441
0
LINE
8
BLACK
6
CONTINUOUS
10
6.1894512204724412
20
-4.7272286220472441
11
6.1935405905511809
21
-4.7253216929133854
0
LINE
8
BLACK
6
CONTINUOUS
10
6.1935405905511809
20
-4.7253216929133854
11
6.1969031889763775
21
-4.7248790157480318
0
LINE
8
BLACK
6
CONTINUOUS
10
6.1969031889763775
20
-4.7248790157480318
11
6.2461157874015747
21
-4.7248790157480318
0
LINE
8
BLACK
6
CONTINUOUS
10
6.2461157874015747
20
-4.7248790157480318
11
6.2494783858267713
21
-4.7253216929133854
0
LINE
8
BLACK
6
CONTINUOUS
10
6.4463287795275592
20
-4.7253216929133854
11
6.4504181496062989
21
-4.7272286220472441
0
LINE
8
BLACK
6
CONTINUOUS
10
6.4504181496062989
20
-4.7272286220472441
11
6.4536087007874015
21
-4.7304191732283467
0
LINE
8
BLACK
6
CONTINUOUS
10
6.4536087007874015
20
-4.7304191732283467
11
6.4555156299212593
21
-4.7345085433070864
0
LINE
8
BLACK
6
CONTINUOUS
10
6.4555156299212593
20
-4.7345085433070864
11
6.4559583070866138
21
-4.737871141732283
0
LINE
8
BLACK
6
CONTINUOUS
10
6.4559583070866138
20
-4.737871141732283
11
6.4559583070866138
21
-4.7673987007874015
0
LINE
8
BLACK
6
CONTINUOUS
10
6.4559583070866138
20
-4.7673987007874015
11
6.4555156299212593
21
-4.7707612992125981
0
LINE
8
BLACK
6
CONTINUOUS
10
6.4555156299212593
20
-4.7707612992125981
11
6.4536087007874015
21
-4.7748506692913386
0
LINE
8
BLACK
6
CONTINUOUS
10
6.4536087007874015
20
-4.7748506692913386
11
6.4504181496062989
21
-4.7780412204724412
0
LINE
8
BLACK
6
CONTINUOUS
10
6.4504181496062989
20
-4.7780412204724412
11
6.4463287795275592
21
-4.779948149606299
0
LINE
8
BLACK
6
CONTINUOUS
10
6.4463287795275592
20
-4.779948149606299
11
6.4429661811023617
21
-4.7803908267716535
0
LINE
8
BLACK
6
CONTINUOUS
10
6.4429661811023617
20
-4.7803908267716535
11
6.3937535826771654
21
-4.7803908267716535
0
LINE
8
BLACK
6
CONTINUOUS
10
6.3937535826771654
20
-4.7803908267716535
11
6.3903909842519679
21
-4.779948149606299
0
LINE
8
BLACK
6
CONTINUOUS
10
6.3903909842519679
20
-4.779948149606299
11
6.3863016141732283
21
-4.7780412204724412
0
LINE
8
BLACK
6
CONTINUOUS
10
6.3863016141732283
20
-4.7780412204724412
11
6.3831110629921257
21
-4.7748506692913386
0
LINE
8
BLACK
6
CONTINUOUS
10
6.3831110629921257
20
-4.7748506692913386
11
6.3812041338582679
21
-4.7707612992125981
0
LINE
8
BLACK
6
CONTINUOUS
10
6.3812041338582679
20
-4.7707612992125981
11
6.3807614566929134
21
-4.7673987007874015
0
LINE
8
BLACK
6
CONTINUOUS
10
6.3807614566929134
20
-4.7673987007874015
11
6.3807614566929134
21
-4.737871141732283
0
LINE
8
BLACK
6
CONTINUOUS
10
6.3807614566929134
20
-4.737871141732283
11
6.3812041338582679
21
-4.7345085433070864
0
LINE
8
BLACK
6
CONTINUOUS
10
6.3812041338582679
20
-4.7345085433070864
11
6.3831110629921257
21
-4.7304191732283467
0
LINE
8
BLACK
6
CONTINUOUS
10
6.3831110629921257
20
-4.7304191732283467
11
6.3863016141732283
21
-4.7272286220472441
0
LINE
8
BLACK
6
CONTINUOUS
10
6.3863016141732283
20
-4.7272286220472441
11
6.3903909842519679
21
-4.7253216929133854
0
LINE
8
BLACK
6
CONTINUOUS
10
6.3903909842519679
20
-4.7253216929133854
11
6.3937535826771654
21
-4.7248790157480318
0
LINE
8
BLACK
6
CONTINUOUS
10
6.3937535826771654
20
-4.7248790157480318
11
6.4429661811023617
21
-4.7248790157480318
0
LINE
8
BLACK
6
CONTINUOUS
10
6.4429661811023617
20
-4.7248790157480318
11
6.4463287795275592
21
-4.7253216929133854
0
LINE
8
BLACK
6
CONTINUOUS
10
6.6431791732283463
20
-4.7253216929133854
11
6.6472685433070868
21
-4.7272286220472441
0
LINE
8
BLACK
6
CONTINUOUS
10
6.6472685433070868
20
-4.7272286220472441
11
6.6504590944881885
21
-4.7304191732283467
0
LINE
8
BLACK
6
CONTINUOUS
10
6.6504590944881885
20
-4.7304191732283467
11
6.6523660236220472
21
-4.7345085433070864
0
LINE
8
BLACK
6
CONTINUOUS
10
6.6523660236220472
20
-4.7345085433070864
11
6.6528087007874017
21
-4.737871141732283
0
LINE
8
BLACK
6
CONTINUOUS
10
6.6528087007874017
20
-4.737871141732283
11
6.6528087007874017
21
-4.7673987007874015
0
LINE
8
BLACK
6
CONTINUOUS
10
6.6528087007874017
20
-4.7673987007874015
11
6.6523660236220472
21
-4.7707612992125981
0
LINE
8
BLACK
6
CONTINUOUS
10
6.6523660236220472
20
-4.7707612992125981
11
6.6504590944881885
21
-4.7748506692913386
0
LINE
8
BLACK
6
CONTINUOUS
10
6.6504590944881885
20
-4.7748506692913386
11
6.6472685433070868
21
-4.7780412204724412
0
LINE
8
BLACK
6
CONTINUOUS
10
6.6472685433070868
20
-4.7780412204724412
11
6.6431791732283463
21
-4.779948149606299
0
LINE
8
BLACK
6
CONTINUOUS
10
6.6431791732283463
20
-4.779948149606299
11
6.6398165748031497
21
-4.7803908267716535
0
LINE
8
BLACK
6
CONTINUOUS
10
6.6398165748031497
20
-4.7803908267716535
11
6.5906039763779525
21
-4.7803908267716535
0
LINE
8
BLACK
6
CONTINUOUS
10
6.5906039763779525
20
-4.7803908267716535
11
6.5872413779527559
21
-4.779948149606299
0
LINE
8
BLACK
6
CONTINUOUS
10
6.5872413779527559
20
-4.779948149606299
11
6.5831520078740153
21
-4.7780412204724412
0
LINE
8
BLACK
6
CONTINUOUS
10
6.5831520078740153
20
-4.7780412204724412
11
6.5799614566929137
21
-4.7748506692913386
0
LINE
8
BLACK
6
CONTINUOUS
10
6.5799614566929137
20
-4.7748506692913386
11
6.578054527559055
21
-4.7707612992125981
0
LINE
8
BLACK
6
CONTINUOUS
10
6.578054527559055
20
-4.7707612992125981
11
6.5776118503937004
21
-4.7673987007874015
0
LINE
8
BLACK
6
CONTINUOUS
10
6.5776118503937004
20
-4.7673987007874015
11
6.5776118503937004
21
-4.737871141732283
0
LINE
8
BLACK
6
CONTINUOUS
10
6.5776118503937004
20
-4.737871141732283
11
6.578054527559055
21
-4.7345085433070864
0
LINE
8
BLACK
6
CONTINUOUS
10
6.578054527559055
20
-4.7345085433070864
11
6.5799614566929137
21
-4.7304191732283467
0
LINE
8
BLACK
6
CONTINUOUS
10
6.5799614566929137
20
-4.7304191732283467
11
6.5831520078740153
21
-4.7272286220472441
0
LINE
8
BLACK
6
CONTINUOUS
10
6.5831520078740153
20
-4.7272286220472441
11
6.5872413779527559
21
-4.7253216929133854
0
LINE
8
BLACK
6
CONTINUOUS
10
6.5872413779527559
20
-4.7253216929133854
11
6.5906039763779525
21
-4.7248790157480318
0
LINE
8
BLACK
6
CONTINUOUS
10
6.5906039763779525
20
-4.7248790157480318
11
6.6398165748031497
21
-4.7248790157480318
0
LINE
8
BLACK
6
CONTINUOUS
10
6.6398165748031497
20
-4.7248790157480318
11
6.6431791732283463
21
-4.7253216929133854
0
LINE
8
BLACK
6
CONTINUOUS
10
7.2298948031496062
20
-4.7311124409448819
11
7.233499566929134
21
-4.7331936614173227
0
LINE
8
BLACK
6
CONTINUOUS
10
7.233499566929134
20
-4.7331936614173227
11
7.236442874015748
21
-4.7361369685039367
0
LINE
8
BLACK
6
CONTINUOUS
10
7.236442874015748
20
-4.7361369685039367
11
7.2385240944881888
21
-4.7397417322834645
0
LINE
8
BLACK
6
CONTINUOUS
10
7.2385240944881888
20
-4.7397417322834645
11
7.2396014173228345
21
-4.7437623622047242
0
LINE
8
BLACK
6
CONTINUOUS
10
7.2396014173228345
20
-4.7437623622047242
11
7.2396014173228345
21
-4.7479248031496066
0
LINE
8
BLACK
6
CONTINUOUS
10
7.2396014173228345
20
-4.7479248031496066
11
7.2385240944881888
21
-4.7519454330708664
0
LINE
8
BLACK
6
CONTINUOUS
10
7.2385240944881888
20
-4.7519454330708664
11
7.236442874015748
21
-4.7555501968503933
0
LINE
8
BLACK
6
CONTINUOUS
10
7.236442874015748
20
-4.7555501968503933
11
7.233499566929134
21
-4.7584935039370082
0
LINE
8
BLACK
6
CONTINUOUS
10
7.233499566929134
20
-4.7584935039370082
11
7.2298948031496062
21
-4.760574724409449
0
LINE
8
BLACK
6
CONTINUOUS
10
7.2298948031496062
20
-4.760574724409449
11
7.2258741732283465
21
-4.7616520472440946
0
LINE
8
BLACK
6
CONTINUOUS
10
7.2258741732283465
20
-4.7616520472440946
11
7.2217117322834641
21
-4.7616520472440946
0
LINE
8
BLACK
6
CONTINUOUS
10
7.2217117322834641
20
-4.7616520472440946
11
7.2176911023622043
21
-4.760574724409449
0
LINE
8
BLACK
6
CONTINUOUS
10
7.2176911023622043
20
-4.760574724409449
11
7.2140863385826766
21
-4.7584935039370082
0
LINE
8
BLACK
6
CONTINUOUS
10
7.2140863385826766
20
-4.7584935039370082
11
7.2111430314960625
21
-4.7555501968503933
0
LINE
8
BLACK
6
CONTINUOUS
10
7.2111430314960625
20
-4.7555501968503933
11
7.2090618110236218
21
-4.7519454330708664
0
LINE
8
BLACK
6
CONTINUOUS
10
7.2090618110236218
20
-4.7519454330708664
11
7.2079844881889761
21
-4.7479248031496066
0
LINE
8
BLACK
6
CONTINUOUS
10
7.2079844881889761
20
-4.7479248031496066
11
7.2079844881889761
21
-4.7437623622047242
0
LINE
8
BLACK
6
CONTINUOUS
10
7.2079844881889761
20
-4.7437623622047242
11
7.2090618110236218
21
-4.7397417322834645
0
LINE
8
BLACK
6
CONTINUOUS
10
7.2090618110236218
20
-4.7397417322834645
11
7.2111430314960625
21
-4.7361369685039367
0
LINE
8
BLACK
6
CONTINUOUS
10
7.2111430314960625
20
-4.7361369685039367
11
7.2140863385826766
21
-4.7331936614173227
0
LINE
8
BLACK
6
CONTINUOUS
10
7.2140863385826766
20
-4.7331936614173227
11
7.2176911023622043
21
-4.7311124409448819
0
LINE
8
BLACK
6
CONTINUOUS
10
7.2176911023622043
20
-4.7311124409448819
11
7.2217117322834641
21
-4.7300351181102362
0
LINE
8
BLACK
6
CONTINUOUS
10
7.2217117322834641
20
-4.7300351181102362
11
7.2258741732283465
21
-4.7300351181102362
0
LINE
8
BLACK
6
CONTINUOUS
10
7.2258741732283465
20
-4.7300351181102362
11
7.2298948031496062
21
-4.7311124409448819
0
LINE
8
BLACK
6
CONTINUOUS
10
5.8557775984251963
20
-4.6150854724409447
11
5.8598669685039368
21
-4.6169924015748034
0
LINE
8
BLACK
6
CONTINUOUS
10
5.8598669685039368
20
-4.6169924015748034
11
5.8630575196850394
21
-4.6201829527559051
0
LINE
8
BLACK
6
CONTINUOUS
10
5.8630575196850394
20
-4.6201829527559051
11
5.8649644488188972
21
-4.6242723228346456
0
LINE
8
BLACK
6
CONTINUOUS
10
5.8649644488188972
20
-4.6242723228346456
11
5.8654071259842517
21
-4.6276349212598422
0
LINE
8
BLACK
6
CONTINUOUS
10
5.8654071259842517
20
-4.6276349212598422
11
5.8654071259842517
21
-4.6571624803149607
0
LINE
8
BLACK
6
CONTINUOUS
10
5.8654071259842517
20
-4.6571624803149607
11
5.8649644488188972
21
-4.6605250787401573
0
LINE
8
BLACK
6
CONTINUOUS
10
5.8649644488188972
20
-4.6605250787401573
11
5.8630575196850394
21
-4.6646144488188979
0
LINE
8
BLACK
6
CONTINUOUS
10
5.8630575196850394
20
-4.6646144488188979
11
5.8598669685039368
21
-4.6678049999999995
0
LINE
8
BLACK
6
CONTINUOUS
10
5.8598669685039368
20
-4.6678049999999995
11
5.8557775984251963
21
-4.6697119291338582
0
LINE
8
BLACK
6
CONTINUOUS
10
5.8557775984251963
20
-4.6697119291338582
11
5.8524149999999997
21
-4.6701546062992128
0
LINE
8
BLACK
6
CONTINUOUS
10
5.8524149999999997
20
-4.6701546062992128
11
5.8032024015748034
21
-4.6701546062992128
0
LINE
8
BLACK
6
CONTINUOUS
10
5.8032024015748034
20
-4.6701546062992128
11
5.7998398031496059
21
-4.6697119291338582
0
LINE
8
BLACK
6
CONTINUOUS
10
5.7998398031496059
20
-4.6697119291338582
11
5.7957504330708662
21
-4.6678049999999995
0
LINE
8
BLACK
6
CONTINUOUS
10
5.7957504330708662
20
-4.6678049999999995
11
5.7925598818897637
21
-4.6646144488188979
0
LINE
8
BLACK
6
CONTINUOUS
10
5.7925598818897637
20
-4.6646144488188979
11
5.790652952755905
21
-4.6605250787401573
0
LINE
8
BLACK
6
CONTINUOUS
10
5.790652952755905
20
-4.6605250787401573
11
5.7902102755905513
21
-4.6571624803149607
0
LINE
8
BLACK
6
CONTINUOUS
10
5.7902102755905513
20
-4.6571624803149607
11
5.7902102755905513
21
-4.6276349212598422
0
LINE
8
BLACK
6
CONTINUOUS
10
5.7902102755905513
20
-4.6276349212598422
11
5.790652952755905
21
-4.6242723228346456
0
LINE
8
BLACK
6
CONTINUOUS
10
5.790652952755905
20
-4.6242723228346456
11
5.7925598818897637
21
-4.6201829527559051
0
LINE
8
BLACK
6
CONTINUOUS
10
5.7925598818897637
20
-4.6201829527559051
11
5.7957504330708662
21
-4.6169924015748034
0
LINE
8
BLACK
6
CONTINUOUS
10
5.7957504330708662
20
-4.6169924015748034
11
5.7998398031496059
21
-4.6150854724409447
0
LINE
8
BLACK
6
CONTINUOUS
10
5.7998398031496059
20
-4.6150854724409447
11
5.8032024015748034
21
-4.6146427952755902
0
LINE
8
BLACK
6
CONTINUOUS
10
5.8032024015748034
20
-4.6146427952755902
11
5.8524149999999997
21
-4.6146427952755902
0
LINE
8
BLACK
6
CONTINUOUS
10
5.8524149999999997
20
-4.6146427952755902
11
5.8557775984251963
21
-4.6150854724409447
0
LINE
8
BLACK
6
CONTINUOUS
10
6.0526279921259842
20
-4.6150854724409447
11
6.0567173622047239
21
-4.6169924015748034
0
LINE
8
BLACK
6
CONTINUOUS
10
6.0567173622047239
20
-4.6169924015748034
11
6.0599079133858265
21
-4.6201829527559051
0
LINE
8
BLACK
6
CONTINUOUS
10
6.0599079133858265
20
-4.6201829527559051
11
6.0618148425196852
21
-4.6242723228346456
0
LINE
8
BLACK
6
CONTINUOUS
10
6.0618148425196852
20
-4.6242723228346456
11
6.0622575196850397
21
-4.6276349212598422
0
LINE
8
BLACK
6
CONTINUOUS
10
6.0622575196850397
20
-4.6276349212598422
11
6.0622575196850397
21
-4.6571624803149607
0
LINE
8
BLACK
6
CONTINUOUS
10
6.0622575196850397
20
-4.6571624803149607
11
6.0618148425196852
21
-4.6605250787401573
0
LINE
8
BLACK
6
CONTINUOUS
10
6.0618148425196852
20
-4.6605250787401573
11
6.0599079133858265
21
-4.6646144488188979
0
LINE
8
BLACK
6
CONTINUOUS
10
6.0599079133858265
20
-4.6646144488188979
11
6.0567173622047239
21
-4.6678049999999995
0
LINE
8
BLACK
6
CONTINUOUS
10
6.0567173622047239
20
-4.6678049999999995
11
6.0526279921259842
21
-4.6697119291338582
0
LINE
8
BLACK
6
CONTINUOUS
10
6.0526279921259842
20
-4.6697119291338582
11
6.0492653937007876
21
-4.6701546062992128
0
LINE
8
BLACK
6
CONTINUOUS
10
6.0492653937007876
20
-4.6701546062992128
11
6.0000527952755904
21
-4.6701546062992128
0
LINE
8
BLACK
6
CONTINUOUS
10
6.0000527952755904
20
-4.6701546062992128
11
5.9966901968503938
21
-4.6697119291338582
0
LINE
8
BLACK
6
CONTINUOUS
10
5.9966901968503938
20
-4.6697119291338582
11
5.9926008267716533
21
-4.6678049999999995
0
LINE
8
BLACK
6
CONTINUOUS
10
5.9926008267716533
20
-4.6678049999999995
11
5.9894102755905507
21
-4.6646144488188979
0
LINE
8
BLACK
6
CONTINUOUS
10
5.9894102755905507
20
-4.6646144488188979
11
5.9875033464566929
21
-4.6605250787401573
0
LINE
8
BLACK
6
CONTINUOUS
10
5.9875033464566929
20
-4.6605250787401573
11
5.9870606692913384
21
-4.6571624803149607
0
LINE
8
BLACK
6
CONTINUOUS
10
5.9870606692913384
20
-4.6571624803149607
11
5.9870606692913384
21
-4.6276349212598422
0
LINE
8
BLACK
6
CONTINUOUS
10
5.9870606692913384
20
-4.6276349212598422
11
5.9875033464566929
21
-4.6242723228346456
0
LINE
8
BLACK
6
CONTINUOUS
10
5.9875033464566929
20
-4.6242723228346456
11
5.9894102755905507
21
-4.6201829527559051
0
LINE
8
BLACK
6
CONTINUOUS
10
5.9894102755905507
20
-4.6201829527559051
11
5.9926008267716533
21
-4.6169924015748034
0
LINE
8
BLACK
6
CONTINUOUS
10
5.9926008267716533
20
-4.6169924015748034
11
5.9966901968503938
21
-4.6150854724409447
0
LINE
8
BLACK
6
CONTINUOUS
10
5.9966901968503938
20
-4.6150854724409447
11
6.0000527952755904
21
-4.6146427952755902
0
LINE
8
BLACK
6
CONTINUOUS
10
6.0000527952755904
20
-4.6146427952755902
11
6.0492653937007876
21
-4.6146427952755902
0
LINE
8
BLACK
6
CONTINUOUS
10
6.0492653937007876
20
-4.6146427952755902
11
6.0526279921259842
21
-4.6150854724409447
0
LINE
8
BLACK
6
CONTINUOUS
10
6.2494783858267713
20
-4.6150854724409447
11
6.2535677559055118
21
-4.6169924015748034
0
LINE
8
BLACK
6
CONTINUOUS
10
6.2535677559055118
20
-4.6169924015748034
11
6.2567583070866144
21
-4.6201829527559051
0
LINE
8
BLACK
6
CONTINUOUS
10
6.2567583070866144
20
-4.6201829527559051
11
6.2586652362204722
21
-4.6242723228346456
0
LINE
8
BLACK
6
CONTINUOUS
10
6.2586652362204722
20
-4.6242723228346456
11
6.2591079133858267
21
-4.6276349212598422
0
LINE
8
BLACK
6
CONTINUOUS
10
6.2591079133858267
20
-4.6276349212598422
11
6.2591079133858267
21
-4.6571624803149607
0
LINE
8
BLACK
6
CONTINUOUS
10
6.2591079133858267
20
-4.6571624803149607
11
6.2586652362204722
21
-4.6605250787401573
0
LINE
8
BLACK
6
CONTINUOUS
10
6.2586652362204722
20
-4.6605250787401573
11
6.2567583070866144
21
-4.6646144488188979
0
LINE
8
BLACK
6
CONTINUOUS
10
6.2567583070866144
20
-4.6646144488188979
11
6.2535677559055118
21
-4.6678049999999995
0
LINE
8
BLACK
6
CONTINUOUS
10
6.2535677559055118
20
-4.6678049999999995
11
6.2494783858267713
21
-4.6697119291338582
0
LINE
8
BLACK
6
CONTINUOUS
10
6.2494783858267713
20
-4.6697119291338582
11
6.2461157874015747
21
-4.6701546062992128
0
LINE
8
BLACK
6
CONTINUOUS
10
6.2461157874015747
20
-4.6701546062992128
11
6.1969031889763775
21
-4.6701546062992128
0
LINE
8
BLACK
6
CONTINUOUS
10
6.1969031889763775
20
-4.6701546062992128
11
6.1935405905511809
21
-4.6697119291338582
0
LINE
8
BLACK
6
CONTINUOUS
10
6.1935405905511809
20
-4.6697119291338582
11
6.1894512204724412
21
-4.6678049999999995
0
LINE
8
BLACK
6
CONTINUOUS
10
6.1894512204724412
20
-4.6678049999999995
11
6.1862606692913387
21
-4.6646144488188979
0
LINE
8
BLACK
6
CONTINUOUS
10
6.1862606692913387
20
-4.6646144488188979
11
6.18435374015748
21
-4.6605250787401573
0
LINE
8
BLACK
6
CONTINUOUS
10
6.18435374015748
20
-4.6605250787401573
11
6.1839110629921255
21
-4.6571624803149607
0
LINE
8
BLACK
6
CONTINUOUS
10
6.1839110629921255
20
-4.6571624803149607
11
6.1839110629921255
21
-4.6276349212598422
0
LINE
8
BLACK
6
CONTINUOUS
10
6.1839110629921255
20
-4.6276349212598422
11
6.18435374015748
21
-4.6242723228346456
0
LINE
8
BLACK
6
CONTINUOUS
10
6.18435374015748
20
-4.6242723228346456
11
6.1862606692913387
21
-4.6201829527559051
0
LINE
8
BLACK
6
CONTINUOUS
10
6.1862606692913387
20
-4.6201829527559051
11
6.1894512204724412
21
-4.6169924015748034
0
LINE
8
BLACK
6
CONTINUOUS
10
6.1894512204724412
20
-4.6169924015748034
11
6.1935405905511809
21
-4.6150854724409447
0
LINE
8
BLACK
6
CONTINUOUS
10
6.1935405905511809
20
-4.6150854724409447
11
6.1969031889763775
21
-4.6146427952755902
0
LINE
8
BLACK
6
CONTINUOUS
10
6.1969031889763775
20
-4.6146427952755902
11
6.2461157874015747
21
-4.6146427952755902
0
LINE
8
BLACK
6
CONTINUOUS
10
6.2461157874015747
20
-4.6146427952755902
11
6.2494783858267713
21
-4.6150854724409447
0
LINE
8
BLACK
6
CONTINUOUS
10
6.4463287795275592
20
-4.6150854724409447
11
6.4504181496062989
21
-4.6169924015748034
0
LINE
8
BLACK
6
CONTINUOUS
10
6.4504181496062989
20
-4.6169924015748034
11
6.4536087007874015
21
-4.6201829527559051
0
LINE
8
BLACK
6
CONTINUOUS
10
6.4536087007874015
20
-4.6201829527559051
11
6.4555156299212593
21
-4.6242723228346456
0
LINE
8
BLACK
6
CONTINUOUS
10
6.4555156299212593
20
-4.6242723228346456
11
6.4559583070866138
21
-4.6276349212598422
0
LINE
8
BLACK
6
CONTINUOUS
10
6.4559583070866138
20
-4.6276349212598422
11
6.4559583070866138
21
-4.6571624803149607
0
LINE
8
BLACK
6
CONTINUOUS
10
6.4559583070866138
20
-4.6571624803149607
11
6.4555156299212593
21
-4.6605250787401573
0
LINE
8
BLACK
6
CONTINUOUS
10
6.4555156299212593
20
-4.6605250787401573
11
6.4536087007874015
21
-4.6646144488188979
0
LINE
8
BLACK
6
CONTINUOUS
10
6.4536087007874015
20
-4.6646144488188979
11
6.4504181496062989
21
-4.6678049999999995
0
LINE
8
BLACK
6
CONTINUOUS
10
6.4504181496062989
20
-4.6678049999999995
11
6.4463287795275592
21
-4.6697119291338582
0
LINE
8
BLACK
6
CONTINUOUS
10
6.4463287795275592
20
-4.6697119291338582
11
6.4429661811023617
21
-4.6701546062992128
0
LINE
8
BLACK
6
CONTINUOUS
10
6.4429661811023617
20
-4.6701546062992128
11
6.3937535826771654
21
-4.6701546062992128
0
LINE
8
BLACK
6
CONTINUOUS
10
6.3937535826771654
20
-4.6701546062992128
11
6.3903909842519679
21
-4.6697119291338582
0
LINE
8
BLACK
6
CONTINUOUS
10
6.3903909842519679
20
-4.6697119291338582
11
6.3863016141732283
21
-4.6678049999999995
0
LINE
8
BLACK
6
CONTINUOUS
10
6.3863016141732283
20
-4.6678049999999995
11
6.3831110629921257
21
-4.6646144488188979
0
LINE
8
BLACK
6
CONTINUOUS
10
6.3831110629921257
20
-4.6646144488188979
11
6.3812041338582679
21
-4.6605250787401573
0
LINE
8
BLACK
6
CONTINUOUS
10
6.3812041338582679
20
-4.6605250787401573
11
6.3807614566929134
21
-4.6571624803149607
0
LINE
8
BLACK
6
CONTINUOUS
10
6.3807614566929134
20
-4.6571624803149607
11
6.3807614566929134
21
-4.6276349212598422
0
LINE
8
BLACK
6
CONTINUOUS
10
6.3807614566929134
20
-4.6276349212598422
11
6.3812041338582679
21
-4.6242723228346456
0
LINE
8
BLACK
6
CONTINUOUS
10
6.3812041338582679
20
-4.6242723228346456
11
6.3831110629921257
21
-4.6201829527559051
0
LINE
8
BLACK
6
CONTINUOUS
10
6.3831110629921257
20
-4.6201829527559051
11
6.3863016141732283
21
-4.6169924015748034
0
LINE
8
BLACK
6
CONTINUOUS
10
6.3863016141732283
20
-4.6169924015748034
11
6.3903909842519679
21
-4.6150854724409447
0
LINE
8
BLACK
6
CONTINUOUS
10
6.3903909842519679
20
-4.6150854724409447
11
6.3937535826771654
21
-4.6146427952755902
0
LINE
8
BLACK
6
CONTINUOUS
10
6.3937535826771654
20
-4.6146427952755902
11
6.4429661811023617
21
-4.6146427952755902
0
LINE
8
BLACK
6
CONTINUOUS
10
6.4429661811023617
20
-4.6146427952755902
11
6.4463287795275592
21
-4.6150854724409447
0
LINE
8
BLACK
6
CONTINUOUS
10
6.6431791732283463
20
-4.6150854724409447
11
6.6472685433070868
21
-4.6169924015748034
0
LINE
8
BLACK
6
CONTINUOUS
10
6.6472685433070868
20
-4.6169924015748034
11
6.6504590944881885
21
-4.6201829527559051
0
LINE
8
BLACK
6
CONTINUOUS
10
6.6504590944881885
20
-4.6201829527559051
11
6.6523660236220472
21
-4.6242723228346456
0
LINE
8
BLACK
6
CONTINUOUS
10
6.6523660236220472
20
-4.6242723228346456
11
6.6528087007874017
21
-4.6276349212598422
0
LINE
8
BLACK
6
CONTINUOUS
10
6.6528087007874017
20
-4.6276349212598422
11
6.6528087007874017
21
-4.6571624803149607
0
LINE
8
BLACK
6
CONTINUOUS
10
6.6528087007874017
20
-4.6571624803149607
11
6.6523660236220472
21
-4.6605250787401573
0
LINE
8
BLACK
6
CONTINUOUS
10
6.6523660236220472
20
-4.6605250787401573
11
6.6504590944881885
21
-4.6646144488188979
0
LINE
8
BLACK
6
CONTINUOUS
10
6.6504590944881885
20
-4.6646144488188979
11
6.6472685433070868
21
-4.6678049999999995
0
LINE
8
BLACK
6
CONTINUOUS
10
6.6472685433070868
20
-4.6678049999999995
11
6.6431791732283463
21
-4.6697119291338582
0
LINE
8
BLACK
6
CONTINUOUS
10
6.6431791732283463
20
-4.6697119291338582
11
6.6398165748031497
21
-4.6701546062992128
0
LINE
8
BLACK
6
CONTINUOUS
10
6.6398165748031497
20
-4.6701546062992128
11
6.5906039763779525
21
-4.6701546062992128
0
LINE
8
BLACK
6
CONTINUOUS
10
6.5906039763779525
20
-4.6701546062992128
11
6.5872413779527559
21
-4.6697119291338582
0
LINE
8
BLACK
6
CONTINUOUS
10
6.5872413779527559
20
-4.6697119291338582
11
6.5831520078740153
21
-4.6678049999999995
0
LINE
8
BLACK
6
CONTINUOUS
10
6.5831520078740153
20
-4.6678049999999995
11
6.5799614566929137
21
-4.6646144488188979
0
LINE
8
BLACK
6
CONTINUOUS
10
6.5799614566929137
20
-4.6646144488188979
11
6.578054527559055
21
-4.6605250787401573
0
LINE
8
BLACK
6
CONTINUOUS
10
6.578054527559055
20
-4.6605250787401573
11
6.5776118503937004
21
-4.6571624803149607
0
LINE
8
BLACK
6
CONTINUOUS
10
6.5776118503937004
20
-4.6571624803149607
11
6.5776118503937004
21
-4.6276349212598422
0
LINE
8
BLACK
6
CONTINUOUS
10
6.5776118503937004
20
-4.6276349212598422
11
6.578054527559055
21
-4.6242723228346456
0
LINE
8
BLACK
6
CONTINUOUS
10
6.578054527559055
20
-4.6242723228346456
11
6.5799614566929137
21
-4.6201829527559051
0
LINE
8
BLACK
6
CONTINUOUS
10
6.5799614566929137
20
-4.6201829527559051
11
6.5831520078740153
21
-4.6169924015748034
0
LINE
8
BLACK
6
CONTINUOUS
10
6.5831520078740153
20
-4.6169924015748034
11
6.5872413779527559
21
-4.6150854724409447
0
LINE
8
BLACK
6
CONTINUOUS
10
6.5872413779527559
20
-4.6150854724409447
11
6.5906039763779525
21
-4.6146427952755902
0
LINE
8
BLACK
6
CONTINUOUS
10
6.5906039763779525
20
-4.6146427952755902
11
6.6398165748031497
21
-4.6146427952755902
0
LINE
8
BLACK
6
CONTINUOUS
10
6.6398165748031497
20
-4.6146427952755902
11
6.6431791732283463
21
-4.6150854724409447
0
LINE
8
BLACK
6
CONTINUOUS
10
7.2298948031496062
20
-4.5035533858267716
11
7.233499566929134
21
-4.5056346062992123
0
LINE
8
BLACK
6
CONTINUOUS
10
7.233499566929134
20
-4.5056346062992123
11
7.236442874015748
21
-4.5085779133858264
0
LINE
8
BLACK
6
CONTINUOUS
10
7.236442874015748
20
-4.5085779133858264
11
7.2385240944881888
21
-4.5121826771653541
0
LINE
8
BLACK
6
CONTINUOUS
10
7.2385240944881888
20
-4.5121826771653541
11
7.2396014173228345
21
-4.5162033070866139
0
LINE
8
BLACK
6
CONTINUOUS
10
7.2396014173228345
20
-4.5162033070866139
11
7.2396014173228345
21
-4.5203657480314963
0
LINE
8
BLACK
6
CONTINUOUS
10
7.2396014173228345
20
-4.5203657480314963
11
7.2385240944881888
21
-4.524386377952756
0
LINE
8
BLACK
6
CONTINUOUS
10
7.2385240944881888
20
-4.524386377952756
11
7.236442874015748
21
-4.5279911417322838
0
LINE
8
BLACK
6
CONTINUOUS
10
7.236442874015748
20
-4.5279911417322838
11
7.233499566929134
21
-4.5309344488188978
0
LINE
8
BLACK
6
CONTINUOUS
10
7.233499566929134
20
-4.5309344488188978
11
7.2298948031496062
21
-4.5330156692913386
0
LINE
8
BLACK
6
CONTINUOUS
10
7.2298948031496062
20
-4.5330156692913386
11
7.2258741732283465
21
-4.5340929921259843
0
LINE
8
BLACK
6
CONTINUOUS
10
7.2258741732283465
20
-4.5340929921259843
11
7.2217117322834641
21
-4.5340929921259843
0
LINE
8
BLACK
6
CONTINUOUS
10
7.2217117322834641
20
-4.5340929921259843
11
7.2176911023622043
21
-4.5330156692913386
0
LINE
8
BLACK
6
CONTINUOUS
10
7.2176911023622043
20
-4.5330156692913386
11
7.2140863385826766
21
-4.5309344488188978
0
LINE
8
BLACK
6
CONTINUOUS
10
7.2140863385826766
20
-4.5309344488188978
11
7.2111430314960625
21
-4.5279911417322838
0
LINE
8
BLACK
6
CONTINUOUS
10
7.2111430314960625
20
-4.5279911417322838
11
7.2090618110236218
21
-4.524386377952756
0
LINE
8
BLACK
6
CONTINUOUS
10
7.2090618110236218
20
-4.524386377952756
11
7.2079844881889761
21
-4.5203657480314963
0
LINE
8
BLACK
6
CONTINUOUS
10
7.2079844881889761
20
-4.5203657480314963
11
7.2079844881889761
21
-4.5162033070866139
0
LINE
8
BLACK
6
CONTINUOUS
10
7.2079844881889761
20
-4.5162033070866139
11
7.2090618110236218
21
-4.5121826771653541
0
LINE
8
BLACK
6
CONTINUOUS
10
7.2090618110236218
20
-4.5121826771653541
11
7.2111430314960625
21
-4.5085779133858264
0
LINE
8
BLACK
6
CONTINUOUS
10
7.2111430314960625
20
-4.5085779133858264
11
7.2140863385826766
21
-4.5056346062992123
0
LINE
8
BLACK
6
CONTINUOUS
10
7.2140863385826766
20
-4.5056346062992123
11
7.2176911023622043
21
-4.5035533858267716
0
LINE
8
BLACK
6
CONTINUOUS
10
7.2176911023622043
20
-4.5035533858267716
11
7.2217117322834641
21
-4.5024760629921259
0
LINE
8
BLACK
6
CONTINUOUS
10
7.2217117322834641
20
-4.5024760629921259
11
7.2258741732283465
21
-4.5024760629921259
0
LINE
8
BLACK
6
CONTINUOUS
10
7.2258741732283465
20
-4.5024760629921259
11
7.2298948031496062
21
-4.5035533858267716
0
LINE
8
BLACK
6
CONTINUOUS
10
6.2855494488188972
20
-4.391654212598425
11
6.2865712598425194
21
-4.3923369291338581
0
LINE
8
BLACK
6
CONTINUOUS
10
6.2865712598425194
20
-4.3923369291338581
11
6.2872539763779525
21
-4.3933587401574803
0
LINE
8
BLACK
6
CONTINUOUS
10
6.2872539763779525
20
-4.3933587401574803
11
6.2874937401574797
21
-4.39456405511811
0
LINE
8
BLACK
6
CONTINUOUS
10
6.2874937401574797
20
-4.39456405511811
11
6.2874937401574797
21
-4.4929892519685035
0
LINE
8
BLACK
6
CONTINUOUS
10
6.2874937401574797
20
-4.4929892519685035
11
6.2872539763779525
21
-4.4941945669291341
0
LINE
8
BLACK
6
CONTINUOUS
10
6.2872539763779525
20
-4.4941945669291341
11
6.2865712598425194
21
-4.4952163779527554
0
LINE
8
BLACK
6
CONTINUOUS
10
6.2865712598425194
20
-4.4952163779527554
11
6.2855494488188972
21
-4.4958990944881885
0
LINE
8
BLACK
6
CONTINUOUS
10
6.2855494488188972
20
-4.4958990944881885
11
6.2843441338582675
21
-4.4961388582677166
0
LINE
8
BLACK
6
CONTINUOUS
10
6.2843441338582675
20
-4.4961388582677166
11
6.0874937401574805
21
-4.4961388582677166
0
LINE
8
BLACK
6
CONTINUOUS
10
6.0874937401574805
20
-4.4961388582677166
11
6.0862884251968499
21
-4.4958990944881885
0
LINE
8
BLACK
6
CONTINUOUS
10
6.0862884251968499
20
-4.4958990944881885
11
6.0852666141732286
21
-4.4952163779527554
0
LINE
8
BLACK
6
CONTINUOUS
10
6.0852666141732286
20
-4.4952163779527554
11
6.0845838976377955
21
-4.4941945669291341
0
LINE
8
BLACK
6
CONTINUOUS
10
6.0845838976377955
20
-4.4941945669291341
11
6.0843441338582673
21
-4.4929892519685035
0
LINE
8
BLACK
6
CONTINUOUS
10
6.0843441338582673
20
-4.4929892519685035
11
6.0843441338582673
21
-4.39456405511811
0
LINE
8
BLACK
6
CONTINUOUS
10
6.0843441338582673
20
-4.39456405511811
11
6.0845838976377955
21
-4.3933587401574803
0
LINE
8
BLACK
6
CONTINUOUS
10
6.0845838976377955
20
-4.3933587401574803
11
6.0852666141732286
21
-4.3923369291338581
0
LINE
8
BLACK
6
CONTINUOUS
10
6.0852666141732286
20
-4.3923369291338581
11
6.0862884251968499
21
-4.391654212598425
0
LINE
8
BLACK
6
CONTINUOUS
10
6.0862884251968499
20
-4.391654212598425
11
6.0874937401574805
21
-4.3914144488188978
0
LINE
8
BLACK
6
CONTINUOUS
10
6.0874937401574805
20
-4.3914144488188978
11
6.2843441338582675
21
-4.3914144488188978
0
LINE
8
BLACK
6
CONTINUOUS
10
6.2843441338582675
20
-4.3914144488188978
11
6.2855494488188972
21
-4.391654212598425
0
LINE
8
BLACK
6
CONTINUOUS
10
7.4745258267716537
20
-4.391654212598425
11
7.475547637795275
21
-4.3923369291338581
0
LINE
8
BLACK
6
CONTINUOUS
10
7.475547637795275
20
-4.3923369291338581
11
7.4762303543307089
21
-4.3933587401574803
0
LINE
8
BLACK
6
CONTINUOUS
10
7.4762303543307089
20
-4.3933587401574803
11
7.4764701181102362
21
-4.39456405511811
0
LINE
8
BLACK
6
CONTINUOUS
10
7.4764701181102362
20
-4.39456405511811
11
7.4764701181102362
21
-4.4929892519685035
0
LINE
8
BLACK
6
CONTINUOUS
10
7.4764701181102362
20
-4.4929892519685035
11
7.4762303543307089
21
-4.4941945669291341
0
LINE
8
BLACK
6
CONTINUOUS
10
7.4762303543307089
20
-4.4941945669291341
11
7.475547637795275
21
-4.4952163779527554
0
LINE
8
BLACK
6
CONTINUOUS
10
7.475547637795275
20
-4.4952163779527554
11
7.4745258267716537
21
-4.4958990944881885
0
LINE
8
BLACK
6
CONTINUOUS
10
7.4745258267716537
20
-4.4958990944881885
11
7.4733205118110231
21
-4.4961388582677166
0
LINE
8
BLACK
6
CONTINUOUS
10
7.4733205118110231
20
-4.4961388582677166
11
7.276470118110236
21
-4.4961388582677166
0
LINE
8
BLACK
6
CONTINUOUS
10
7.276470118110236
20
-4.4961388582677166
11
7.2752648031496063
21
-4.4958990944881885
0
LINE
8
BLACK
6
CONTINUOUS
10
7.2752648031496063
20
-4.4958990944881885
11
7.2742429921259841
21
-4.4952163779527554
0
LINE
8
BLACK
6
CONTINUOUS
10
7.2742429921259841
20
-4.4952163779527554
11
7.2735602755905511
21
-4.4941945669291341
0
LINE
8
BLACK
6
CONTINUOUS
10
7.2735602755905511
20
-4.4941945669291341
11
7.2733205118110238
21
-4.4929892519685035
0
LINE
8
BLACK
6
CONTINUOUS
10
7.2733205118110238
20
-4.4929892519685035
11
7.2733205118110238
21
-4.39456405511811
0
LINE
8
BLACK
6
CONTINUOUS
10
7.2733205118110238
20
-4.39456405511811
11
7.2735602755905511
21
-4.3933587401574803
0
LINE
8
BLACK
6
CONTINUOUS
10
7.2735602755905511
20
-4.3933587401574803
11
7.2742429921259841
21
-4.3923369291338581
0
LINE
8
BLACK
6
CONTINUOUS
10
7.2742429921259841
20
-4.3923369291338581
11
7.2752648031496063
21
-4.391654212598425
0
LINE
8
BLACK
6
CONTINUOUS
10
7.2752648031496063
20
-4.391654212598425
11
7.276470118110236
21
-4.3914144488188978
0
LINE
8
BLACK
6
CONTINUOUS
10
7.276470118110236
20
-4.3914144488188978
11
7.4733205118110231
21
-4.3914144488188978
0
LINE
8
BLACK
6
CONTINUOUS
10
7.4733205118110231
20
-4.3914144488188978
11
7.4745258267716537
21
-4.391654212598425
0
LINE
8
BLACK
6
CONTINUOUS
10
7.2278861811023623
20
-4.4383701968503937
11
7.2338922834645665
21
-4.4399795275590552
0
LINE
8
BLACK
6
CONTINUOUS
10
7.2338922834645665
20
-4.4399795275590552
11
7.2392772440944881
21
-4.443088503937008
0
LINE
8
BLACK
6
CONTINUOUS
10
7.2392772440944881
20
-4.443088503937008
11
7.2436740157480317
21
-4.4474852755905507
0
LINE
8
BLACK
6
CONTINUOUS
10
7.2436740157480317
20
-4.4474852755905507
11
7.2467829921259836
21
-4.4528702362204724
0
LINE
8
BLACK
6
CONTINUOUS
10
7.2467829921259836
20
-4.4528702362204724
11
7.2483923228346452
21
-4.4588763385826766
0
LINE
8
BLACK
6
CONTINUOUS
10
7.2483923228346452
20
-4.4588763385826766
11
7.2483923228346452
21
-4.4650942913385823
0
LINE
8
BLACK
6
CONTINUOUS
10
7.2483923228346452
20
-4.4650942913385823
11
7.2467829921259836
21
-4.4711003937007874
0
LINE
8
BLACK
6
CONTINUOUS
10
7.2467829921259836
20
-4.4711003937007874
11
7.2436740157480317
21
-4.4764853543307082
0
LINE
8
BLACK
6
CONTINUOUS
10
7.2436740157480317
20
-4.4764853543307082
11
7.2392772440944881
21
-4.4808821259842517
0
LINE
8
BLACK
6
CONTINUOUS
10
7.2392772440944881
20
-4.4808821259842517
11
7.2338922834645665
21
-4.4839911023622046
0
LINE
8
BLACK
6
CONTINUOUS
10
7.2338922834645665
20
-4.4839911023622046
11
7.2278861811023623
21
-4.4856004330708661
0
LINE
8
BLACK
6
CONTINUOUS
10
7.2278861811023623
20
-4.4856004330708661
11
7.2247772047244094
21
-4.485804212598425
0
LINE
8
BLACK
6
CONTINUOUS
10
7.2247772047244094
20
-4.485804212598425
11
7.1834386220472437
21
-4.485804212598425
0
LINE
8
BLACK
6
CONTINUOUS
10
7.1834386220472437
20
-4.485804212598425
11
7.1803296456692909
21
-4.4856004330708661
0
LINE
8
BLACK
6
CONTINUOUS
10
7.1803296456692909
20
-4.4856004330708661
11
7.1743235433070867
21
-4.4839911023622046
0
LINE
8
BLACK
6
CONTINUOUS
10
7.1743235433070867
20
-4.4839911023622046
11
7.168938582677165
21
-4.4808821259842517
0
LINE
8
BLACK
6
CONTINUOUS
10
7.168938582677165
20
-4.4808821259842517
11
7.1645418110236223
21
-4.4764853543307082
0
LINE
8
BLACK
6
CONTINUOUS
10
7.1645418110236223
20
-4.4764853543307082
11
7.1614328346456695
21
-4.4711003937007874
0
LINE
8
BLACK
6
CONTINUOUS
10
7.1614328346456695
20
-4.4711003937007874
11
7.1598235039370079
21
-4.4650942913385823
0
LINE
8
BLACK
6
CONTINUOUS
10
7.1598235039370079
20
-4.4650942913385823
11
7.1598235039370079
21
-4.4588763385826766
0
LINE
8
BLACK
6
CONTINUOUS
10
7.1598235039370079
20
-4.4588763385826766
11
7.1614328346456695
21
-4.4528702362204724
0
LINE
8
BLACK
6
CONTINUOUS
10
7.1614328346456695
20
-4.4528702362204724
11
7.1645418110236223
21
-4.4474852755905507
0
LINE
8
BLACK
6
CONTINUOUS
10
7.1645418110236223
20
-4.4474852755905507
11
7.168938582677165
21
-4.443088503937008
0
LINE
8
BLACK
6
CONTINUOUS
10
7.168938582677165
20
-4.443088503937008
11
7.1743235433070867
21
-4.4399795275590552
0
LINE
8
BLACK
6
CONTINUOUS
10
7.1743235433070867
20
-4.4399795275590552
11
7.1803296456692909
21
-4.4383701968503937
0
LINE
8
BLACK
6
CONTINUOUS
10
7.1803296456692909
20
-4.4383701968503937
11
7.1834386220472437
21
-4.4381664173228348
0
LINE
8
BLACK
6
CONTINUOUS
10
7.1834386220472437
20
-4.4381664173228348
11
7.2247772047244094
21
-4.4381664173228348
0
LINE
8
BLACK
6
CONTINUOUS
10
7.2247772047244094
20
-4.4381664173228348
11
7.2278861811023623
21
-4.4383701968503937
0
LINE
8
BLACK
6
CONTINUOUS
10
6.0808250393700787
20
-4.2642920078740154
11
6.0818468503937009
21
-4.2649747244094485
0
LINE
8
BLACK
6
CONTINUOUS
10
6.0818468503937009
20
-4.2649747244094485
11
6.0825295669291339
21
-4.2659965354330707
0
LINE
8
BLACK
6
CONTINUOUS
10
6.0825295669291339
20
-4.2659965354330707
11
6.0827693307086612
21
-4.2672018503937004
0
LINE
8
BLACK
6
CONTINUOUS
10
6.0827693307086612
20
-4.2672018503937004
11
6.0827693307086612
21
-4.3144459448818893
0
LINE
8
BLACK
6
CONTINUOUS
10
6.0827693307086612
20
-4.3144459448818893
11
6.0825295669291339
21
-4.3156512598425198
0
LINE
8
BLACK
6
CONTINUOUS
10
6.0825295669291339
20
-4.3156512598425198
11
6.0818468503937009
21
-4.316673070866142
0
LINE
8
BLACK
6
CONTINUOUS
10
6.0818468503937009
20
-4.316673070866142
11
6.0808250393700787
21
-4.3173557874015751
0
LINE
8
BLACK
6
CONTINUOUS
10
6.0808250393700787
20
-4.3173557874015751
11
6.079619724409449
21
-4.3175955511811024
0
LINE
8
BLACK
6
CONTINUOUS
10
6.079619724409449
20
-4.3175955511811024
11
6.0166275984251971
21
-4.3175955511811024
0
LINE
8
BLACK
6
CONTINUOUS
10
6.0166275984251971
20
-4.3175955511811024
11
6.0154222834645665
21
-4.3173557874015751
0
LINE
8
BLACK
6
CONTINUOUS
10
6.0154222834645665
20
-4.3173557874015751
11
6.0144004724409443
21
-4.316673070866142
0
LINE
8
BLACK
6
CONTINUOUS
10
6.0144004724409443
20
-4.316673070866142
11
6.0137177559055113
21
-4.3156512598425198
0
LINE
8
BLACK
6
CONTINUOUS
10
6.0137177559055113
20
-4.3156512598425198
11
6.013477992125984
21
-4.3144459448818893
0
LINE
8
BLACK
6
CONTINUOUS
10
6.013477992125984
20
-4.3144459448818893
11
6.013477992125984
21
-4.2672018503937004
0
LINE
8
BLACK
6
CONTINUOUS
10
6.013477992125984
20
-4.2672018503937004
11
6.0137177559055113
21
-4.2659965354330707
0
LINE
8
BLACK
6
CONTINUOUS
10
6.0137177559055113
20
-4.2659965354330707
11
6.0144004724409443
21
-4.2649747244094485
0
LINE
8
BLACK
6
CONTINUOUS
10
6.0144004724409443
20
-4.2649747244094485
11
6.0154222834645665
21
-4.2642920078740154
0
LINE
8
BLACK
6
CONTINUOUS
10
6.0154222834645665
20
-4.2642920078740154
11
6.0166275984251971
21
-4.2640522440944881
0
LINE
8
BLACK
6
CONTINUOUS
10
6.0166275984251971
20
-4.2640522440944881
11
6.079619724409449
21
-4.2640522440944881
0
LINE
8
BLACK
6
CONTINUOUS
10
6.079619724409449
20
-4.2640522440944881
11
6.0808250393700787
21
-4.2642920078740154
0
LINE
8
BLACK
6
CONTINUOUS
10
5.8964468897637792
20
-4.1892508267716533
11
5.9005362598425197
21
-4.191157755905512
0
LINE
8
BLACK
6
CONTINUOUS
10
5.9005362598425197
20
-4.191157755905512
11
5.9037268110236223
21
-4.1943483070866137
0
LINE
8
BLACK
6
CONTINUOUS
10
5.9037268110236223
20
-4.1943483070866137
11
5.9056337401574801
21
-4.1984376771653542
0
LINE
8
BLACK
6
CONTINUOUS
10
5.9056337401574801
20
-4.1984376771653542
11
5.9060764173228346
21
-4.2018002755905508
0
LINE
8
BLACK
6
CONTINUOUS
10
5.9060764173228346
20
-4.2018002755905508
11
5.9060764173228346
21
-4.2372333464566925
0
LINE
8
BLACK
6
CONTINUOUS
10
5.9060764173228346
20
-4.2372333464566925
11
5.9056337401574801
21
-4.24059594488189
0
LINE
8
BLACK
6
CONTINUOUS
10
5.9056337401574801
20
-4.24059594488189
11
5.9037268110236223
21
-4.2446853149606296
0
LINE
8
BLACK
6
CONTINUOUS
10
5.9037268110236223
20
-4.2446853149606296
11
5.9005362598425197
21
-4.2478758661417322
0
LINE
8
BLACK
6
CONTINUOUS
10
5.9005362598425197
20
-4.2478758661417322
11
5.8964468897637792
21
-4.2497827952755909
0
LINE
8
BLACK
6
CONTINUOUS
10
5.8964468897637792
20
-4.2497827952755909
11
5.8930842913385826
21
-4.2502254724409445
0
LINE
8
BLACK
6
CONTINUOUS
10
5.8930842913385826
20
-4.2502254724409445
11
5.8724150000000002
21
-4.2502254724409445
0
LINE
8
BLACK
6
CONTINUOUS
10
5.8724150000000002
20
-4.2502254724409445
11
5.8690524015748027
21
-4.2497827952755909
0
LINE
8
BLACK
6
CONTINUOUS
10
5.8690524015748027
20
-4.2497827952755909
11
5.864963031496063
21
-4.2478758661417322
0
LINE
8
BLACK
6
CONTINUOUS
10
5.864963031496063
20
-4.2478758661417322
11
5.8617724803149605
21
-4.2446853149606296
0
LINE
8
BLACK
6
CONTINUOUS
10
5.8617724803149605
20
-4.2446853149606296
11
5.8598655511811026
21
-4.24059594488189
0
LINE
8
BLACK
6
CONTINUOUS
10
5.8598655511811026
20
-4.24059594488189
11
5.8594228740157481
21
-4.2372333464566925
0
LINE
8
BLACK
6
CONTINUOUS
10
5.8594228740157481
20
-4.2372333464566925
11
5.8594228740157481
21
-4.2018002755905508
0
LINE
8
BLACK
6
CONTINUOUS
10
5.8594228740157481
20
-4.2018002755905508
11
5.8598655511811026
21
-4.1984376771653542
0
LINE
8
BLACK
6
CONTINUOUS
10
5.8598655511811026
20
-4.1984376771653542
11
5.8617724803149605
21
-4.1943483070866137
0
LINE
8
BLACK
6
CONTINUOUS
10
5.8617724803149605
20
-4.1943483070866137
11
5.864963031496063
21
-4.191157755905512
0
LINE
8
BLACK
6
CONTINUOUS
10
5.864963031496063
20
-4.191157755905512
11
5.8690524015748027
21
-4.1892508267716533
0
LINE
8
BLACK
6
CONTINUOUS
10
5.8690524015748027
20
-4.1892508267716533
11
5.8724150000000002
21
-4.1888081496062988
0
LINE
8
BLACK
6
CONTINUOUS
10
5.8724150000000002
20
-4.1888081496062988
11
5.8930842913385826
21
-4.1888081496062988
0
LINE
8
BLACK
6
CONTINUOUS
10
5.8930842913385826
20
-4.1888081496062988
11
5.8964468897637792
21
-4.1892508267716533
0
LINE
8
BLACK
6
CONTINUOUS
10
5.9682972834645671
20
-4.1892508267716533
11
5.9723866535433068
21
-4.191157755905512
0
LINE
8
BLACK
6
CONTINUOUS
10
5.9723866535433068
20
-4.191157755905512
11
5.9755772047244093
21
-4.1943483070866137
0
LINE
8
BLACK
6
CONTINUOUS
10
5.9755772047244093
20
-4.1943483070866137
11
5.9774841338582672
21
-4.1984376771653542
0
LINE
8
BLACK
6
CONTINUOUS
10
5.9774841338582672
20
-4.1984376771653542
11
5.9779268110236217
21
-4.2018002755905508
0
LINE
8
BLACK
6
CONTINUOUS
10
5.9779268110236217
20
-4.2018002755905508
11
5.9779268110236217
21
-4.2372333464566925
0
LINE
8
BLACK
6
CONTINUOUS
10
5.9779268110236217
20
-4.2372333464566925
11
5.9774841338582672
21
-4.24059594488189
0
LINE
8
BLACK
6
CONTINUOUS
10
5.9774841338582672
20
-4.24059594488189
11
5.9755772047244093
21
-4.2446853149606296
0
LINE
8
BLACK
6
CONTINUOUS
10
5.9755772047244093
20
-4.2446853149606296
11
5.9723866535433068
21
-4.2478758661417322
0
LINE
8
BLACK
6
CONTINUOUS
10
5.9723866535433068
20
-4.2478758661417322
11
5.9682972834645671
21
-4.2497827952755909
0
LINE
8
BLACK
6
CONTINUOUS
10
5.9682972834645671
20
-4.2497827952755909
11
5.9649346850393696
21
-4.2502254724409445
0
LINE
8
BLACK
6
CONTINUOUS
10
5.9649346850393696
20
-4.2502254724409445
11
5.9442653937007872
21
-4.2502254724409445
0
LINE
8
BLACK
6
CONTINUOUS
10
5.9442653937007872
20
-4.2502254724409445
11
5.9409027952755906
21
-4.2497827952755909
0
LINE
8
BLACK
6
CONTINUOUS
10
5.9409027952755906
20
-4.2497827952755909
11
5.9368134251968501
21
-4.2478758661417322
0
LINE
8
BLACK
6
CONTINUOUS
10
5.9368134251968501
20
-4.2478758661417322
11
5.9336228740157475
21
-4.2446853149606296
0
LINE
8
BLACK
6
CONTINUOUS
10
5.9336228740157475
20
-4.2446853149606296
11
5.9317159448818897
21
-4.24059594488189
0
LINE
8
BLACK
6
CONTINUOUS
10
5.9317159448818897
20
-4.24059594488189
11
5.9312732677165352
21
-4.2372333464566925
0
LINE
8
BLACK
6
CONTINUOUS
10
5.9312732677165352
20
-4.2372333464566925
11
5.9312732677165352
21
-4.2018002755905508
0
LINE
8
BLACK
6
CONTINUOUS
10
5.9312732677165352
20
-4.2018002755905508
11
5.9317159448818897
21
-4.1984376771653542
0
LINE
8
BLACK
6
CONTINUOUS
10
5.9317159448818897
20
-4.1984376771653542
11
5.9336228740157475
21
-4.1943483070866137
0
LINE
8
BLACK
6
CONTINUOUS
10
5.9336228740157475
20
-4.1943483070866137
11
5.9368134251968501
21
-4.191157755905512
0
LINE
8
BLACK
6
CONTINUOUS
10
5.9368134251968501
20
-4.191157755905512
11
5.9409027952755906
21
-4.1892508267716533
0
LINE
8
BLACK
6
CONTINUOUS
10
5.9409027952755906
20
-4.1892508267716533
11
5.9442653937007872
21
-4.1888081496062988
0
LINE
8
BLACK
6
CONTINUOUS
10
5.9442653937007872
20
-4.1888081496062988
11
5.9649346850393696
21
-4.1888081496062988
0
LINE
8
BLACK
6
CONTINUOUS
10
5.9649346850393696
20
-4.1888081496062988
11
5.9682972834645671
21
-4.1892508267716533
0
LINE
8
BLACK
6
CONTINUOUS
10
6.0808250393700787
20
-4.1934258661417321
11
6.0818468503937009
21
-4.1941085826771651
0
LINE
8
BLACK
6
CONTINUOUS
10
6.0818468503937009
20
-4.1941085826771651
11
6.0825295669291339
21
-4.1951303937007873
0
LINE
8
BLACK
6
CONTINUOUS
10
6.0825295669291339
20
-4.1951303937007873
11
6.0827693307086612
21
-4.196335708661417
0
LINE
8
BLACK
6
CONTINUOUS
10
6.0827693307086612
20
-4.196335708661417
11
6.0827693307086612
21
-4.2435798031496059
0
LINE
8
BLACK
6
CONTINUOUS
10
6.0827693307086612
20
-4.2435798031496059
11
6.0825295669291339
21
-4.2447851181102365
0
LINE
8
BLACK
6
CONTINUOUS
10
6.0825295669291339
20
-4.2447851181102365
11
6.0818468503937009
21
-4.2458069291338578
0
LINE
8
BLACK
6
CONTINUOUS
10
6.0818468503937009
20
-4.2458069291338578
11
6.0808250393700787
21
-4.2464896456692909
0
LINE
8
BLACK
6
CONTINUOUS
10
6.0808250393700787
20
-4.2464896456692909
11
6.079619724409449
21
-4.246729409448819
0
LINE
8
BLACK
6
CONTINUOUS
10
6.079619724409449
20
-4.246729409448819
11
6.0166275984251971
21
-4.246729409448819
0
LINE
8
BLACK
6
CONTINUOUS
10
6.0166275984251971
20
-4.246729409448819
11
6.0154222834645665
21
-4.2464896456692909
0
LINE
8
BLACK
6
CONTINUOUS
10
6.0154222834645665
20
-4.2464896456692909
11
6.0144004724409443
21
-4.2458069291338578
0
LINE
8
BLACK
6
CONTINUOUS
10
6.0144004724409443
20
-4.2458069291338578
11
6.0137177559055113
21
-4.2447851181102365
0
LINE
8
BLACK
6
CONTINUOUS
10
6.0137177559055113
20
-4.2447851181102365
11
6.013477992125984
21
-4.2435798031496059
0
LINE
8
BLACK
6
CONTINUOUS
10
6.013477992125984
20
-4.2435798031496059
11
6.013477992125984
21
-4.196335708661417
0
LINE
8
BLACK
6
CONTINUOUS
10
6.013477992125984
20
-4.196335708661417
11
6.0137177559055113
21
-4.1951303937007873
0
LINE
8
BLACK
6
CONTINUOUS
10
6.0137177559055113
20
-4.1951303937007873
11
6.0144004724409443
21
-4.1941085826771651
0
LINE
8
BLACK
6
CONTINUOUS
10
6.0144004724409443
20
-4.1941085826771651
11
6.0154222834645665
21
-4.1934258661417321
0
LINE
8
BLACK
6
CONTINUOUS
10
6.0154222834645665
20
-4.1934258661417321
11
6.0166275984251971
21
-4.1931861023622048
0
LINE
8
BLACK
6
CONTINUOUS
10
6.0166275984251971
20
-4.1931861023622048
11
6.079619724409449
21
-4.1931861023622048
0
LINE
8
BLACK
6
CONTINUOUS
10
6.079619724409449
20
-4.1931861023622048
11
6.0808250393700787
21
-4.1934258661417321
0
LINE
8
BLACK
6
CONTINUOUS
10
6.0808250393700787
20
-4.0977565748031495
11
6.0818468503937009
21
-4.0984392913385825
0
LINE
8
BLACK
6
CONTINUOUS
10
6.0818468503937009
20
-4.0984392913385825
11
6.0825295669291339
21
-4.0994611023622047
0
LINE
8
BLACK
6
CONTINUOUS
10
6.0825295669291339
20
-4.0994611023622047
11
6.0827693307086612
21
-4.1006664173228344
0
LINE
8
BLACK
6
CONTINUOUS
10
6.0827693307086612
20
-4.1006664173228344
11
6.0827693307086612
21
-4.1479105118110233
0
LINE
8
BLACK
6
CONTINUOUS
10
6.0827693307086612
20
-4.1479105118110233
11
6.0825295669291339
21
-4.149115826771653
0
LINE
8
BLACK
6
CONTINUOUS
10
6.0825295669291339
20
-4.149115826771653
11
6.0818468503937009
21
-4.1501376377952752
0
LINE
8
BLACK
6
CONTINUOUS
10
6.0818468503937009
20
-4.1501376377952752
11
6.0808250393700787
21
-4.1508203543307083
0
LINE
8
BLACK
6
CONTINUOUS
10
6.0808250393700787
20
-4.1508203543307083
11
6.079619724409449
21
-4.1510601181102365
0
LINE
8
BLACK
6
CONTINUOUS
10
6.079619724409449
20
-4.1510601181102365
11
6.0166275984251971
21
-4.1510601181102365
0
LINE
8
BLACK
6
CONTINUOUS
10
6.0166275984251971
20
-4.1510601181102365
11
6.0154222834645665
21
-4.1508203543307083
0
LINE
8
BLACK
6
CONTINUOUS
10
6.0154222834645665
20
-4.1508203543307083
11
6.0144004724409443
21
-4.1501376377952752
0
LINE
8
BLACK
6
CONTINUOUS
10
6.0144004724409443
20
-4.1501376377952752
11
6.0137177559055113
21
-4.149115826771653
0
LINE
8
BLACK
6
CONTINUOUS
10
6.0137177559055113
20
-4.149115826771653
11
6.013477992125984
21
-4.1479105118110233
0
LINE
8
BLACK
6
CONTINUOUS
10
6.013477992125984
20
-4.1479105118110233
11
6.013477992125984
21
-4.1006664173228344
0
LINE
8
BLACK
6
CONTINUOUS
10
6.013477992125984
20
-4.1006664173228344
11
6.0137177559055113
21
-4.0994611023622047
0
LINE
8
BLACK
6
CONTINUOUS
10
6.0137177559055113
20
-4.0994611023622047
11
6.0144004724409443
21
-4.0984392913385825
0
LINE
8
BLACK
6
CONTINUOUS
10
6.0144004724409443
20
-4.0984392913385825
11
6.0154222834645665
21
-4.0977565748031495
0
LINE
8
BLACK
6
CONTINUOUS
10
6.0154222834645665
20
-4.0977565748031495
11
6.0166275984251971
21
-4.0975168110236222
0
LINE
8
BLACK
6
CONTINUOUS
10
6.0166275984251971
20
-4.0975168110236222
11
6.079619724409449
21
-4.0975168110236222
0
LINE
8
BLACK
6
CONTINUOUS
10
6.079619724409449
20
-4.0975168110236222
11
6.0808250393700787
21
-4.0977565748031495
0
LINE
8
BLACK
6
CONTINUOUS
10
5.8964468897637792
20
-3.9952508267716533
11
5.9005362598425197
21
-3.9971577559055116
0
LINE
8
BLACK
6
CONTINUOUS
10
5.9005362598425197
20
-3.9971577559055116
11
5.9037268110236223
21
-4.0003483070866137
0
LINE
8
BLACK
6
CONTINUOUS
10
5.9037268110236223
20
-4.0003483070866137
11
5.9056337401574801
21
-4.0044376771653543
0
LINE
8
BLACK
6
CONTINUOUS
10
5.9056337401574801
20
-4.0044376771653543
11
5.9060764173228346
21
-4.0078002755905509
0
LINE
8
BLACK
6
CONTINUOUS
10
5.9060764173228346
20
-4.0078002755905509
11
5.9060764173228346
21
-4.0432333464566925
0
LINE
8
BLACK
6
CONTINUOUS
10
5.9060764173228346
20
-4.0432333464566925
11
5.9056337401574801
21
-4.04659594488189
0
LINE
8
BLACK
6
CONTINUOUS
10
5.9056337401574801
20
-4.04659594488189
11
5.9037268110236223
21
-4.0506853149606297
0
LINE
8
BLACK
6
CONTINUOUS
10
5.9037268110236223
20
-4.0506853149606297
11
5.9005362598425197
21
-4.0538758661417322
0
LINE
8
BLACK
6
CONTINUOUS
10
5.9005362598425197
20
-4.0538758661417322
11
5.8964468897637792
21
-4.05578279527559
0
LINE
8
BLACK
6
CONTINUOUS
10
5.8964468897637792
20
-4.05578279527559
11
5.8930842913385826
21
-4.0562254724409446
0
LINE
8
BLACK
6
CONTINUOUS
10
5.8930842913385826
20
-4.0562254724409446
11
5.8724150000000002
21
-4.0562254724409446
0
LINE
8
BLACK
6
CONTINUOUS
10
5.8724150000000002
20
-4.0562254724409446
11
5.8690524015748027
21
-4.05578279527559
0
LINE
8
BLACK
6
CONTINUOUS
10
5.8690524015748027
20
-4.05578279527559
11
5.864963031496063
21
-4.0538758661417322
0
LINE
8
BLACK
6
CONTINUOUS
10
5.864963031496063
20
-4.0538758661417322
11
5.8617724803149605
21
-4.0506853149606297
0
LINE
8
BLACK
6
CONTINUOUS
10
5.8617724803149605
20
-4.0506853149606297
11
5.8598655511811026
21
-4.04659594488189
0
LINE
8
BLACK
6
CONTINUOUS
10
5.8598655511811026
20
-4.04659594488189
11
5.8594228740157481
21
-4.0432333464566925
0
LINE
8
BLACK
6
CONTINUOUS
10
5.8594228740157481
20
-4.0432333464566925
11
5.8594228740157481
21
-4.0078002755905509
0
LINE
8
BLACK
6
CONTINUOUS
10
5.8594228740157481
20
-4.0078002755905509
11
5.8598655511811026
21
-4.0044376771653543
0
LINE
8
BLACK
6
CONTINUOUS
10
5.8598655511811026
20
-4.0044376771653543
11
5.8617724803149605
21
-4.0003483070866137
0
LINE
8
BLACK
6
CONTINUOUS
10
5.8617724803149605
20
-4.0003483070866137
11
5.864963031496063
21
-3.9971577559055116
0
LINE
8
BLACK
6
CONTINUOUS
10
5.864963031496063
20
-3.9971577559055116
11
5.8690524015748027
21
-3.9952508267716533
0
LINE
8
BLACK
6
CONTINUOUS
10
5.8690524015748027
20
-3.9952508267716533
11
5.8724150000000002
21
-3.9948081496062993
0
LINE
8
BLACK
6
CONTINUOUS
10
5.8724150000000002
20
-3.9948081496062993
11
5.8930842913385826
21
-3.9948081496062993
0
LINE
8
BLACK
6
CONTINUOUS
10
5.8930842913385826
20
-3.9948081496062993
11
5.8964468897637792
21
-3.9952508267716533
0
LINE
8
BLACK
6
CONTINUOUS
10
5.9682972834645671
20
-3.9952508267716533
11
5.9723866535433068
21
-3.9971577559055116
0
LINE
8
BLACK
6
CONTINUOUS
10
5.9723866535433068
20
-3.9971577559055116
11
5.9755772047244093
21
-4.0003483070866137
0
LINE
8
BLACK
6
CONTINUOUS
10
5.9755772047244093
20
-4.0003483070866137
11
5.9774841338582672
21
-4.0044376771653543
0
LINE
8
BLACK
6
CONTINUOUS
10
5.9774841338582672
20
-4.0044376771653543
11
5.9779268110236217
21
-4.0078002755905509
0
LINE
8
BLACK
6
CONTINUOUS
10
5.9779268110236217
20
-4.0078002755905509
11
5.9779268110236217
21
-4.0432333464566925
0
LINE
8
BLACK
6
CONTINUOUS
10
5.9779268110236217
20
-4.0432333464566925
11
5.9774841338582672
21
-4.04659594488189
0
LINE
8
BLACK
6
CONTINUOUS
10
5.9774841338582672
20
-4.04659594488189
11
5.9755772047244093
21
-4.0506853149606297
0
LINE
8
BLACK
6
CONTINUOUS
10
5.9755772047244093
20
-4.0506853149606297
11
5.9723866535433068
21
-4.0538758661417322
0
LINE
8
BLACK
6
CONTINUOUS
10
5.9723866535433068
20
-4.0538758661417322
11
5.9682972834645671
21
-4.05578279527559
0
LINE
8
BLACK
6
CONTINUOUS
10
5.9682972834645671
20
-4.05578279527559
11
5.9649346850393696
21
-4.0562254724409446
0
LINE
8
BLACK
6
CONTINUOUS
10
5.9649346850393696
20
-4.0562254724409446
11
5.9442653937007872
21
-4.0562254724409446
0
LINE
8
BLACK
6
CONTINUOUS
10
5.9442653937007872
20
-4.0562254724409446
11
5.9409027952755906
21
-4.05578279527559
0
LINE
8
BLACK
6
CONTINUOUS
10
5.9409027952755906
20
-4.05578279527559
11
5.9368134251968501
21
-4.0538758661417322
0
LINE
8
BLACK
6
CONTINUOUS
10
5.9368134251968501
20
-4.0538758661417322
11
5.9336228740157475
21
-4.0506853149606297
0
LINE
8
BLACK
6
CONTINUOUS
10
5.9336228740157475
20
-4.0506853149606297
11
5.9317159448818897
21
-4.04659594488189
0
LINE
8
BLACK
6
CONTINUOUS
10
5.9317159448818897
20
-4.04659594488189
11
5.9312732677165352
21
-4.0432333464566925
0
LINE
8
BLACK
6
CONTINUOUS
10
5.9312732677165352
20
-4.0432333464566925
11
5.9312732677165352
21
-4.0078002755905509
0
LINE
8
BLACK
6
CONTINUOUS
10
5.9312732677165352
20
-4.0078002755905509
11
5.9317159448818897
21
-4.0044376771653543
0
LINE
8
BLACK
6
CONTINUOUS
10
5.9317159448818897
20
-4.0044376771653543
11
5.9336228740157475
21
-4.0003483070866137
0
LINE
8
BLACK
6
CONTINUOUS
10
5.9336228740157475
20
-4.0003483070866137
11
5.9368134251968501
21
-3.9971577559055116
0
LINE
8
BLACK
6
CONTINUOUS
10
5.9368134251968501
20
-3.9971577559055116
11
5.9409027952755906
21
-3.9952508267716533
0
LINE
8
BLACK
6
CONTINUOUS
10
5.9409027952755906
20
-3.9952508267716533
11
5.9442653937007872
21
-3.9948081496062993
0
LINE
8
BLACK
6
CONTINUOUS
10
5.9442653937007872
20
-3.9948081496062993
11
5.9649346850393696
21
-3.9948081496062993
0
LINE
8
BLACK
6
CONTINUOUS
10
5.9649346850393696
20
-3.9948081496062993
11
5.9682972834645671
21
-3.9952508267716533
0
LINE
8
BLACK
6
CONTINUOUS
10
6.0808250393700787
20
-3.999331377952756
11
6.0818468503937009
21
-4.000014094488189
0
LINE
8
BLACK
6
CONTINUOUS
10
6.0818468503937009
20
-4.000014094488189
11
6.0825295669291339
21
-4.0010359055118112
0
LINE
8
BLACK
6
CONTINUOUS
10
6.0825295669291339
20
-4.0010359055118112
11
6.0827693307086612
21
-4.0022412204724409
0
LINE
8
BLACK
6
CONTINUOUS
10
6.0827693307086612
20
-4.0022412204724409
11
6.0827693307086612
21
-4.0494853149606298
0
LINE
8
BLACK
6
CONTINUOUS
10
6.0827693307086612
20
-4.0494853149606298
11
6.0825295669291339
21
-4.0506906299212595
0
LINE
8
BLACK
6
CONTINUOUS
10
6.0825295669291339
20
-4.0506906299212595
11
6.0818468503937009
21
-4.0517124409448817
0
LINE
8
BLACK
6
CONTINUOUS
10
6.0818468503937009
20
-4.0517124409448817
11
6.0808250393700787
21
-4.0523951574803148
0
LINE
8
BLACK
6
CONTINUOUS
10
6.0808250393700787
20
-4.0523951574803148
11
6.079619724409449
21
-4.052634921259842
0
LINE
8
BLACK
6
CONTINUOUS
10
6.079619724409449
20
-4.052634921259842
11
6.0166275984251971
21
-4.052634921259842
0
LINE
8
BLACK
6
CONTINUOUS
10
6.0166275984251971
20
-4.052634921259842
11
6.0154222834645665
21
-4.0523951574803148
0
LINE
8
BLACK
6
CONTINUOUS
10
6.0154222834645665
20
-4.0523951574803148
11
6.0144004724409443
21
-4.0517124409448817
0
LINE
8
BLACK
6
CONTINUOUS
10
6.0144004724409443
20
-4.0517124409448817
11
6.0137177559055113
21
-4.0506906299212595
0
LINE
8
BLACK
6
CONTINUOUS
10
6.0137177559055113
20
-4.0506906299212595
11
6.013477992125984
21
-4.0494853149606298
0
LINE
8
BLACK
6
CONTINUOUS
10
6.013477992125984
20
-4.0494853149606298
11
6.013477992125984
21
-4.0022412204724409
0
LINE
8
BLACK
6
CONTINUOUS
10
6.013477992125984
20
-4.0022412204724409
11
6.0137177559055113
21
-4.0010359055118112
0
LINE
8
BLACK
6
CONTINUOUS
10
6.0137177559055113
20
-4.0010359055118112
11
6.0144004724409443
21
-4.000014094488189
0
LINE
8
BLACK
6
CONTINUOUS
10
6.0144004724409443
20
-4.000014094488189
11
6.0154222834645665
21
-3.999331377952756
0
LINE
8
BLACK
6
CONTINUOUS
10
6.0154222834645665
20
-3.999331377952756
11
6.0166275984251971
21
-3.9990916141732282
0
LINE
8
BLACK
6
CONTINUOUS
10
6.0166275984251971
20
-3.9990916141732282
11
6.079619724409449
21
-3.9990916141732282
0
LINE
8
BLACK
6
CONTINUOUS
10
6.079619724409449
20
-3.9990916141732282
11
6.0808250393700787
21
-3.999331377952756
0
LINE
8
BLACK
6
CONTINUOUS
10
5.4738801574803144
20
-3.9106069685039371
11
5.4749019685039366
21
-3.9112896850393701
0
LINE
8
BLACK
6
CONTINUOUS
10
5.4749019685039366
20
-3.9112896850393701
11
5.4755846850393697
21
-3.9123114960629919
0
LINE
8
BLACK
6
CONTINUOUS
10
5.4755846850393697
20
-3.9123114960629919
11
5.4758244488188978
21
-3.913516811023622
0
LINE
8
BLACK
6
CONTINUOUS
10
5.4758244488188978
20
-3.913516811023622
11
5.4758244488188978
21
-3.9735168110236221
0
LINE
8
BLACK
6
CONTINUOUS
10
5.4758244488188978
20
-3.9735168110236221
11
5.4755846850393697
21
-3.9747221259842518
0
LINE
8
BLACK
6
CONTINUOUS
10
5.4755846850393697
20
-3.9747221259842518
11
5.4749019685039366
21
-3.975743937007874
0
LINE
8
BLACK
6
CONTINUOUS
10
5.4749019685039366
20
-3.975743937007874
11
5.4738801574803144
21
-3.976426653543307
0
LINE
8
BLACK
6
CONTINUOUS
10
5.4738801574803144
20
-3.976426653543307
11
5.4726748425196847
21
-3.9766664173228348
0
LINE
8
BLACK
6
CONTINUOUS
10
5.4726748425196847
20
-3.9766664173228348
11
5.4126748425196851
21
-3.9766664173228348
0
LINE
8
BLACK
6
CONTINUOUS
10
5.4126748425196851
20
-3.9766664173228348
11
5.4114695275590554
21
-3.976426653543307
0
LINE
8
BLACK
6
CONTINUOUS
10
5.4114695275590554
20
-3.976426653543307
11
5.4104477165354332
21
-3.975743937007874
0
LINE
8
BLACK
6
CONTINUOUS
10
5.4104477165354332
20
-3.975743937007874
11
5.4097650000000002
21
-3.9747221259842518
0
LINE
8
BLACK
6
CONTINUOUS
10
5.4097650000000002
20
-3.9747221259842518
11
5.409525236220472
21
-3.9735168110236221
0
LINE
8
BLACK
6
CONTINUOUS
10
5.409525236220472
20
-3.9735168110236221
11
5.409525236220472
21
-3.913516811023622
0
LINE
8
BLACK
6
CONTINUOUS
10
5.409525236220472
20
-3.913516811023622
11
5.4097650000000002
21
-3.9123114960629919
0
LINE
8
BLACK
6
CONTINUOUS
10
5.4097650000000002
20
-3.9123114960629919
11
5.4104477165354332
21
-3.9112896850393701
0
LINE
8
BLACK
6
CONTINUOUS
10
5.4104477165354332
20
-3.9112896850393701
11
5.4114695275590554
21
-3.9106069685039371
0
LINE
8
BLACK
6
CONTINUOUS
10
5.4114695275590554
20
-3.9106069685039371
11
5.4126748425196851
21
-3.9103672047244094
0
LINE
8
BLACK
6
CONTINUOUS
10
5.4126748425196851
20
-3.9103672047244094
11
5.4726748425196847
21
-3.9103672047244094
0
LINE
8
BLACK
6
CONTINUOUS
10
5.4726748425196847
20
-3.9103672047244094
11
5.4738801574803144
21
-3.9106069685039371
0
LINE
8
BLACK
6
CONTINUOUS
10
5.573880157480315
20
-3.9106069685039371
11
5.5749019685039372
21
-3.9112896850393701
0
LINE
8
BLACK
6
CONTINUOUS
10
5.5749019685039372
20
-3.9112896850393701
11
5.5755846850393702
21
-3.9123114960629919
0
LINE
8
BLACK
6
CONTINUOUS
10
5.5755846850393702
20
-3.9123114960629919
11
5.5758244488188975
21
-3.913516811023622
0
LINE
8
BLACK
6
CONTINUOUS
10
5.5758244488188975
20
-3.913516811023622
11
5.5758244488188975
21
-3.9735168110236221
0
LINE
8
BLACK
6
CONTINUOUS
10
5.5758244488188975
20
-3.9735168110236221
11
5.5755846850393702
21
-3.9747221259842518
0
LINE
8
BLACK
6
CONTINUOUS
10
5.5755846850393702
20
-3.9747221259842518
11
5.5749019685039372
21
-3.975743937007874
0
LINE
8
BLACK
6
CONTINUOUS
10
5.5749019685039372
20
-3.975743937007874
11
5.573880157480315
21
-3.976426653543307
0
LINE
8
BLACK
6
CONTINUOUS
10
5.573880157480315
20
-3.976426653543307
11
5.5726748425196853
21
-3.9766664173228348
0
LINE
8
BLACK
6
CONTINUOUS
10
5.5726748425196853
20
-3.9766664173228348
11
5.5126748425196848
21
-3.9766664173228348
0
LINE
8
BLACK
6
CONTINUOUS
10
5.5126748425196848
20
-3.9766664173228348
11
5.5114695275590551
21
-3.976426653543307
0
LINE
8
BLACK
6
CONTINUOUS
10
5.5114695275590551
20
-3.976426653543307
11
5.5104477165354329
21
-3.975743937007874
0
LINE
8
BLACK
6
CONTINUOUS
10
5.5104477165354329
20
-3.975743937007874
11
5.5097649999999998
21
-3.9747221259842518
0
LINE
8
BLACK
6
CONTINUOUS
10
5.5097649999999998
20
-3.9747221259842518
11
5.5095252362204725
21
-3.9735168110236221
0
LINE
8
BLACK
6
CONTINUOUS
10
5.5095252362204725
20
-3.9735168110236221
11
5.5095252362204725
21
-3.913516811023622
0
LINE
8
BLACK
6
CONTINUOUS
10
5.5095252362204725
20
-3.913516811023622
11
5.5097649999999998
21
-3.9123114960629919
0
LINE
8
BLACK
6
CONTINUOUS
10
5.5097649999999998
20
-3.9123114960629919
11
5.5104477165354329
21
-3.9112896850393701
0
LINE
8
BLACK
6
CONTINUOUS
10
5.5104477165354329
20
-3.9112896850393701
11
5.5114695275590551
21
-3.9106069685039371
0
LINE
8
BLACK
6
CONTINUOUS
10
5.5114695275590551
20
-3.9106069685039371
11
5.5126748425196848
21
-3.9103672047244094
0
LINE
8
BLACK
6
CONTINUOUS
10
5.5126748425196848
20
-3.9103672047244094
11
5.5726748425196853
21
-3.9103672047244094
0
LINE
8
BLACK
6
CONTINUOUS
10
5.5726748425196853
20
-3.9103672047244094
11
5.573880157480315
21
-3.9106069685039371
0
LINE
8
BLACK
6
CONTINUOUS
10
6.0808250393700787
20
-3.900906181102362
11
6.0818468503937009
21
-3.901588897637795
0
LINE
8
BLACK
6
CONTINUOUS
10
6.0818468503937009
20
-3.901588897637795
11
6.0825295669291339
21
-3.9026107086614172
0
LINE
8
BLACK
6
CONTINUOUS
10
6.0825295669291339
20
-3.9026107086614172
11
6.0827693307086612
21
-3.9038160236220469
0
LINE
8
BLACK
6
CONTINUOUS
10
6.0827693307086612
20
-3.9038160236220469
11
6.0827693307086612
21
-3.9510601181102363
0
LINE
8
BLACK
6
CONTINUOUS
10
6.0827693307086612
20
-3.9510601181102363
11
6.0825295669291339
21
-3.952265433070866
0
LINE
8
BLACK
6
CONTINUOUS
10
6.0825295669291339
20
-3.952265433070866
11
6.0818468503937009
21
-3.9532872440944882
0
LINE
8
BLACK
6
CONTINUOUS
10
6.0818468503937009
20
-3.9532872440944882
11
6.0808250393700787
21
-3.9539699606299212
0
LINE
8
BLACK
6
CONTINUOUS
10
6.0808250393700787
20
-3.9539699606299212
11
6.079619724409449
21
-3.9542097244094485
0
LINE
8
BLACK
6
CONTINUOUS
10
6.079619724409449
20
-3.9542097244094485
11
6.0166275984251971
21
-3.9542097244094485
0
LINE
8
BLACK
6
CONTINUOUS
10
6.0166275984251971
20
-3.9542097244094485
11
6.0154222834645665
21
-3.9539699606299212
0
LINE
8
BLACK
6
CONTINUOUS
10
6.0154222834645665
20
-3.9539699606299212
11
6.0144004724409443
21
-3.9532872440944882
0
LINE
8
BLACK
6
CONTINUOUS
10
6.0144004724409443
20
-3.9532872440944882
11
6.0137177559055113
21
-3.952265433070866
0
LINE
8
BLACK
6
CONTINUOUS
10
6.0137177559055113
20
-3.952265433070866
11
6.013477992125984
21
-3.9510601181102363
0
LINE
8
BLACK
6
CONTINUOUS
10
6.013477992125984
20
-3.9510601181102363
11
6.013477992125984
21
-3.9038160236220469
0
LINE
8
BLACK
6
CONTINUOUS
10
6.013477992125984
20
-3.9038160236220469
11
6.0137177559055113
21
-3.9026107086614172
0
LINE
8
BLACK
6
CONTINUOUS
10
6.0137177559055113
20
-3.9026107086614172
11
6.0144004724409443
21
-3.901588897637795
0
LINE
8
BLACK
6
CONTINUOUS
10
6.0144004724409443
20
-3.901588897637795
11
6.0154222834645665
21
-3.900906181102362
0
LINE
8
BLACK
6
CONTINUOUS
10
6.0154222834645665
20
-3.900906181102362
11
6.0166275984251971
21
-3.9006664173228347
0
LINE
8
BLACK
6
CONTINUOUS
10
6.0166275984251971
20
-3.9006664173228347
11
6.079619724409449
21
-3.9006664173228347
0
LINE
8
BLACK
6
CONTINUOUS
10
6.079619724409449
20
-3.9006664173228347
11
6.0808250393700787
21
-3.900906181102362
0
LINE
8
BLACK
6
CONTINUOUS
10
5.8987382283464562
20
-3.8945264173228344
11
5.9028275984251968
21
-3.8964333464566927
0
LINE
8
BLACK
6
CONTINUOUS
10
5.9028275984251968
20
-3.8964333464566927
11
5.9060181496062993
21
-3.8996238976377953
0
LINE
8
BLACK
6
CONTINUOUS
10
5.9060181496062993
20
-3.8996238976377953
11
5.9079250787401572
21
-3.9037132677165354
0
LINE
8
BLACK
6
CONTINUOUS
10
5.9079250787401572
20
-3.9037132677165354
11
5.9083677559055117
21
-3.9070758661417324
0
LINE
8
BLACK
6
CONTINUOUS
10
5.9083677559055117
20
-3.9070758661417324
11
5.9083677559055117
21
-3.9267609055118111
0
LINE
8
BLACK
6
CONTINUOUS
10
5.9083677559055117
20
-3.9267609055118111
11
5.9079250787401572
21
-3.9301235039370077
0
LINE
8
BLACK
6
CONTINUOUS
10
5.9079250787401572
20
-3.9301235039370077
11
5.9060181496062993
21
-3.9342128740157478
0
LINE
8
BLACK
6
CONTINUOUS
10
5.9060181496062993
20
-3.9342128740157478
11
5.9028275984251968
21
-3.9374034251968504
0
LINE
8
BLACK
6
CONTINUOUS
10
5.9028275984251968
20
-3.9374034251968504
11
5.8987382283464562
21
-3.9393103543307086
0
LINE
8
BLACK
6
CONTINUOUS
10
5.8987382283464562
20
-3.9393103543307086
11
5.8953756299212596
21
-3.9397530314960627
0
LINE
8
BLACK
6
CONTINUOUS
10
5.8953756299212596
20
-3.9397530314960627
11
5.8579740551181105
21
-3.9397530314960627
0
LINE
8
BLACK
6
CONTINUOUS
10
5.8579740551181105
20
-3.9397530314960627
11
5.8546114566929131
21
-3.9393103543307086
0
LINE
8
BLACK
6
CONTINUOUS
10
5.8546114566929131
20
-3.9393103543307086
11
5.8505220866141734
21
-3.9374034251968504
0
LINE
8
BLACK
6
CONTINUOUS
10
5.8505220866141734
20
-3.9374034251968504
11
5.8473315354330708
21
-3.9342128740157478
0
LINE
8
BLACK
6
CONTINUOUS
10
5.8473315354330708
20
-3.9342128740157478
11
5.8454246062992121
21
-3.9301235039370077
0
LINE
8
BLACK
6
CONTINUOUS
10
5.8454246062992121
20
-3.9301235039370077
11
5.8449819291338585
21
-3.9267609055118111
0
LINE
8
BLACK
6
CONTINUOUS
10
5.8449819291338585
20
-3.9267609055118111
11
5.8449819291338585
21
-3.9070758661417324
0
LINE
8
BLACK
6
CONTINUOUS
10
5.8449819291338585
20
-3.9070758661417324
11
5.8454246062992121
21
-3.9037132677165354
0
LINE
8
BLACK
6
CONTINUOUS
10
5.8454246062992121
20
-3.9037132677165354
11
5.8473315354330708
21
-3.8996238976377953
0
LINE
8
BLACK
6
CONTINUOUS
10
5.8473315354330708
20
-3.8996238976377953
11
5.8505220866141734
21
-3.8964333464566927
0
LINE
8
BLACK
6
CONTINUOUS
10
5.8505220866141734
20
-3.8964333464566927
11
5.8546114566929131
21
-3.8945264173228344
0
LINE
8
BLACK
6
CONTINUOUS
10
5.8546114566929131
20
-3.8945264173228344
11
5.8579740551181105
21
-3.8940837401574804
0
LINE
8
BLACK
6
CONTINUOUS
10
5.8579740551181105
20
-3.8940837401574804
11
5.8953756299212596
21
-3.8940837401574804
0
LINE
8
BLACK
6
CONTINUOUS
10
5.8953756299212596
20
-3.8940837401574804
11
5.8987382283464562
21
-3.8945264173228344
0
LINE
8
BLACK
6
CONTINUOUS
10
5.9827382283464567
20
-3.8945264173228344
11
5.9868275984251964
21
-3.8964333464566927
0
LINE
8
BLACK
6
CONTINUOUS
10
5.9868275984251964
20
-3.8964333464566927
11
5.990018149606299
21
-3.8996238976377953
0
LINE
8
BLACK
6
CONTINUOUS
10
5.990018149606299
20
-3.8996238976377953
11
5.9919250787401577
21
-3.9037132677165354
0
LINE
8
BLACK
6
CONTINUOUS
10
5.9919250787401577
20
-3.9037132677165354
11
5.9923677559055113
21
-3.9070758661417324
0
LINE
8
BLACK
6
CONTINUOUS
10
5.9923677559055113
20
-3.9070758661417324
11
5.9923677559055113
21
-3.9267609055118111
0
LINE
8
BLACK
6
CONTINUOUS
10
5.9923677559055113
20
-3.9267609055118111
11
5.9919250787401577
21
-3.9301235039370077
0
LINE
8
BLACK
6
CONTINUOUS
10
5.9919250787401577
20
-3.9301235039370077
11
5.990018149606299
21
-3.9342128740157478
0
LINE
8
BLACK
6
CONTINUOUS
10
5.990018149606299
20
-3.9342128740157478
11
5.9868275984251964
21
-3.9374034251968504
0
LINE
8
BLACK
6
CONTINUOUS
10
5.9868275984251964
20
-3.9374034251968504
11
5.9827382283464567
21
-3.9393103543307086
0
LINE
8
BLACK
6
CONTINUOUS
10
5.9827382283464567
20
-3.9393103543307086
11
5.9793756299212601
21
-3.9397530314960627
0
LINE
8
BLACK
6
CONTINUOUS
10
5.9793756299212601
20
-3.9397530314960627
11
5.9419740551181102
21
-3.9397530314960627
0
LINE
8
BLACK
6
CONTINUOUS
10
5.9419740551181102
20
-3.9397530314960627
11
5.9386114566929136
21
-3.9393103543307086
0
LINE
8
BLACK
6
CONTINUOUS
10
5.9386114566929136
20
-3.9393103543307086
11
5.934522086614173
21
-3.9374034251968504
0
LINE
8
BLACK
6
CONTINUOUS
10
5.934522086614173
20
-3.9374034251968504
11
5.9313315354330705
21
-3.9342128740157478
0
LINE
8
BLACK
6
CONTINUOUS
10
5.9313315354330705
20
-3.9342128740157478
11
5.9294246062992126
21
-3.9301235039370077
0
LINE
8
BLACK
6
CONTINUOUS
10
5.9294246062992126
20
-3.9301235039370077
11
5.9289819291338581
21
-3.9267609055118111
0
LINE
8
BLACK
6
CONTINUOUS
10
5.9289819291338581
20
-3.9267609055118111
11
5.9289819291338581
21
-3.9070758661417324
0
LINE
8
BLACK
6
CONTINUOUS
10
5.9289819291338581
20
-3.9070758661417324
11
5.9294246062992126
21
-3.9037132677165354
0
LINE
8
BLACK
6
CONTINUOUS
10
5.9294246062992126
20
-3.9037132677165354
11
5.9313315354330705
21
-3.8996238976377953
0
LINE
8
BLACK
6
CONTINUOUS
10
5.9313315354330705
20
-3.8996238976377953
11
5.934522086614173
21
-3.8964333464566927
0
LINE
8
BLACK
6
CONTINUOUS
10
5.934522086614173
20
-3.8964333464566927
11
5.9386114566929136
21
-3.8945264173228344
0
LINE
8
BLACK
6
CONTINUOUS
10
5.9386114566929136
20
-3.8945264173228344
11
5.9419740551181102
21
-3.8940837401574804
0
LINE
8
BLACK
6
CONTINUOUS
10
5.9419740551181102
20
-3.8940837401574804
11
5.9793756299212601
21
-3.8940837401574804
0
LINE
8
BLACK
6
CONTINUOUS
10
5.9793756299212601
20
-3.8940837401574804
11
5.9827382283464567
21
-3.8945264173228344
0
LINE
8
BLACK
6
CONTINUOUS
10
5.4738801574803144
20
-3.810606968503937
11
5.4749019685039366
21
-3.81128968503937
0
LINE
8
BLACK
6
CONTINUOUS
10
5.4749019685039366
20
-3.81128968503937
11
5.4755846850393697
21
-3.8123114960629922
0
LINE
8
BLACK
6
CONTINUOUS
10
5.4755846850393697
20
-3.8123114960629922
11
5.4758244488188978
21
-3.8135168110236219
0
LINE
8
BLACK
6
CONTINUOUS
10
5.4758244488188978
20
-3.8135168110236219
11
5.4758244488188978
21
-3.873516811023622
0
LINE
8
BLACK
6
CONTINUOUS
10
5.4758244488188978
20
-3.873516811023622
11
5.4755846850393697
21
-3.8747221259842517
0
LINE
8
BLACK
6
CONTINUOUS
10
5.4755846850393697
20
-3.8747221259842517
11
5.4749019685039366
21
-3.8757439370078739
0
LINE
8
BLACK
6
CONTINUOUS
10
5.4749019685039366
20
-3.8757439370078739
11
5.4738801574803144
21
-3.876426653543307
0
LINE
8
BLACK
6
CONTINUOUS
10
5.4738801574803144
20
-3.876426653543307
11
5.4726748425196847
21
-3.8766664173228347
0
LINE
8
BLACK
6
CONTINUOUS
10
5.4726748425196847
20
-3.8766664173228347
11
5.4126748425196851
21
-3.8766664173228347
0
LINE
8
BLACK
6
CONTINUOUS
10
5.4126748425196851
20
-3.8766664173228347
11
5.4114695275590554
21
-3.876426653543307
0
LINE
8
BLACK
6
CONTINUOUS
10
5.4114695275590554
20
-3.876426653543307
11
5.4104477165354332
21
-3.8757439370078739
0
LINE
8
BLACK
6
CONTINUOUS
10
5.4104477165354332
20
-3.8757439370078739
11
5.4097650000000002
21
-3.8747221259842517
0
LINE
8
BLACK
6
CONTINUOUS
10
5.4097650000000002
20
-3.8747221259842517
11
5.409525236220472
21
-3.873516811023622
0
LINE
8
BLACK
6
CONTINUOUS
10
5.409525236220472
20
-3.873516811023622
11
5.409525236220472
21
-3.8135168110236219
0
LINE
8
BLACK
6
CONTINUOUS
10
5.409525236220472
20
-3.8135168110236219
11
5.4097650000000002
21
-3.8123114960629922
0
LINE
8
BLACK
6
CONTINUOUS
10
5.4097650000000002
20
-3.8123114960629922
11
5.4104477165354332
21
-3.81128968503937
0
LINE
8
BLACK
6
CONTINUOUS
10
5.4104477165354332
20
-3.81128968503937
11
5.4114695275590554
21
-3.810606968503937
0
LINE
8
BLACK
6
CONTINUOUS
10
5.4114695275590554
20
-3.810606968503937
11
5.4126748425196851
21
-3.8103672047244093
0
LINE
8
BLACK
6
CONTINUOUS
10
5.4126748425196851
20
-3.8103672047244093
11
5.4726748425196847
21
-3.8103672047244093
0
LINE
8
BLACK
6
CONTINUOUS
10
5.4726748425196847
20
-3.8103672047244093
11
5.4738801574803144
21
-3.810606968503937
0
LINE
8
BLACK
6
CONTINUOUS
10
5.573880157480315
20
-3.810606968503937
11
5.5749019685039372
21
-3.81128968503937
0
LINE
8
BLACK
6
CONTINUOUS
10
5.5749019685039372
20
-3.81128968503937
11
5.5755846850393702
21
-3.8123114960629922
0
LINE
8
BLACK
6
CONTINUOUS
10
5.5755846850393702
20
-3.8123114960629922
11
5.5758244488188975
21
-3.8135168110236219
0
LINE
8
BLACK
6
CONTINUOUS
10
5.5758244488188975
20
-3.8135168110236219
11
5.5758244488188975
21
-3.873516811023622
0
LINE
8
BLACK
6
CONTINUOUS
10
5.5758244488188975
20
-3.873516811023622
11
5.5755846850393702
21
-3.8747221259842517
0
LINE
8
BLACK
6
CONTINUOUS
10
5.5755846850393702
20
-3.8747221259842517
11
5.5749019685039372
21
-3.8757439370078739
0
LINE
8
BLACK
6
CONTINUOUS
10
5.5749019685039372
20
-3.8757439370078739
11
5.573880157480315
21
-3.876426653543307
0
LINE
8
BLACK
6
CONTINUOUS
10
5.573880157480315
20
-3.876426653543307
11
5.5726748425196853
21
-3.8766664173228347
0
LINE
8
BLACK
6
CONTINUOUS
10
5.5726748425196853
20
-3.8766664173228347
11
5.5126748425196848
21
-3.8766664173228347
0
LINE
8
BLACK
6
CONTINUOUS
10
5.5126748425196848
20
-3.8766664173228347
11
5.5114695275590551
21
-3.876426653543307
0
LINE
8
BLACK
6
CONTINUOUS
10
5.5114695275590551
20
-3.876426653543307
11
5.5104477165354329
21
-3.8757439370078739
0
LINE
8
BLACK
6
CONTINUOUS
10
5.5104477165354329
20
-3.8757439370078739
11
5.5097649999999998
21
-3.8747221259842517
0
LINE
8
BLACK
6
CONTINUOUS
10
5.5097649999999998
20
-3.8747221259842517
11
5.5095252362204725
21
-3.873516811023622
0
LINE
8
BLACK
6
CONTINUOUS
10
5.5095252362204725
20
-3.873516811023622
11
5.5095252362204725
21
-3.8135168110236219
0
LINE
8
BLACK
6
CONTINUOUS
10
5.5095252362204725
20
-3.8135168110236219
11
5.5097649999999998
21
-3.8123114960629922
0
LINE
8
BLACK
6
CONTINUOUS
10
5.5097649999999998
20
-3.8123114960629922
11
5.5104477165354329
21
-3.81128968503937
0
LINE
8
BLACK
6
CONTINUOUS
10
5.5104477165354329
20
-3.81128968503937
11
5.5114695275590551
21
-3.810606968503937
0
LINE
8
BLACK
6
CONTINUOUS
10
5.5114695275590551
20
-3.810606968503937
11
5.5126748425196848
21
-3.8103672047244093
0
LINE
8
BLACK
6
CONTINUOUS
10
5.5126748425196848
20
-3.8103672047244093
11
5.5726748425196853
21
-3.8103672047244093
0
LINE
8
BLACK
6
CONTINUOUS
10
5.5726748425196853
20
-3.8103672047244093
11
5.573880157480315
21
-3.810606968503937
0
LINE
8
BLACK
6
CONTINUOUS
10
5.8987382283464562
20
-3.8197232677165354
11
5.9028275984251968
21
-3.8216301968503936
0
LINE
8
BLACK
6
CONTINUOUS
10
5.9028275984251968
20
-3.8216301968503936
11
5.9060181496062993
21
-3.8248207480314962
0
LINE
8
BLACK
6
CONTINUOUS
10
5.9060181496062993
20
-3.8248207480314962
11
5.9079250787401572
21
-3.8289101181102363
0
LINE
8
BLACK
6
CONTINUOUS
10
5.9079250787401572
20
-3.8289101181102363
11
5.9083677559055117
21
-3.8322727165354329
0
LINE
8
BLACK
6
CONTINUOUS
10
5.9083677559055117
20
-3.8322727165354329
11
5.9083677559055117
21
-3.8519577559055116
0
LINE
8
BLACK
6
CONTINUOUS
10
5.9083677559055117
20
-3.8519577559055116
11
5.9079250787401572
21
-3.8553203543307086
0
LINE
8
BLACK
6
CONTINUOUS
10
5.9079250787401572
20
-3.8553203543307086
11
5.9060181496062993
21
-3.8594097244094487
0
LINE
8
BLACK
6
CONTINUOUS
10
5.9060181496062993
20
-3.8594097244094487
11
5.9028275984251968
21
-3.8626002755905513
0
LINE
8
BLACK
6
CONTINUOUS
10
5.9028275984251968
20
-3.8626002755905513
11
5.8987382283464562
21
-3.8645072047244096
0
LINE
8
BLACK
6
CONTINUOUS
10
5.8987382283464562
20
-3.8645072047244096
11
5.8953756299212596
21
-3.8649498818897636
0
LINE
8
BLACK
6
CONTINUOUS
10
5.8953756299212596
20
-3.8649498818897636
11
5.8579740551181105
21
-3.8649498818897636
0
LINE
8
BLACK
6
CONTINUOUS
10
5.8579740551181105
20
-3.8649498818897636
11
5.8546114566929131
21
-3.8645072047244096
0
LINE
8
BLACK
6
CONTINUOUS
10
5.8546114566929131
20
-3.8645072047244096
11
5.8505220866141734
21
-3.8626002755905513
0
LINE
8
BLACK
6
CONTINUOUS
10
5.8505220866141734
20
-3.8626002755905513
11
5.8473315354330708
21
-3.8594097244094487
0
LINE
8
BLACK
6
CONTINUOUS
10
5.8473315354330708
20
-3.8594097244094487
11
5.8454246062992121
21
-3.8553203543307086
0
LINE
8
BLACK
6
CONTINUOUS
10
5.8454246062992121
20
-3.8553203543307086
11
5.8449819291338585
21
-3.8519577559055116
0
LINE
8
BLACK
6
CONTINUOUS
10
5.8449819291338585
20
-3.8519577559055116
11
5.8449819291338585
21
-3.8322727165354329
0
LINE
8
BLACK
6
CONTINUOUS
10
5.8449819291338585
20
-3.8322727165354329
11
5.8454246062992121
21
-3.8289101181102363
0
LINE
8
BLACK
6
CONTINUOUS
10
5.8454246062992121
20
-3.8289101181102363
11
5.8473315354330708
21
-3.8248207480314962
0
LINE
8
BLACK
6
CONTINUOUS
10
5.8473315354330708
20
-3.8248207480314962
11
5.8505220866141734
21
-3.8216301968503936
0
LINE
8
BLACK
6
CONTINUOUS
10
5.8505220866141734
20
-3.8216301968503936
11
5.8546114566929131
21
-3.8197232677165354
0
LINE
8
BLACK
6
CONTINUOUS
10
5.8546114566929131
20
-3.8197232677165354
11
5.8579740551181105
21
-3.8192805905511809
0
LINE
8
BLACK
6
CONTINUOUS
10
5.8579740551181105
20
-3.8192805905511809
11
5.8953756299212596
21
-3.8192805905511809
0
LINE
8
BLACK
6
CONTINUOUS
10
5.8953756299212596
20
-3.8192805905511809
11
5.8987382283464562
21
-3.8197232677165354
0
LINE
8
BLACK
6
CONTINUOUS
10
5.9827382283464567
20
-3.8197232677165354
11
5.9868275984251964
21
-3.8216301968503936
0
LINE
8
BLACK
6
CONTINUOUS
10
5.9868275984251964
20
-3.8216301968503936
11
5.990018149606299
21
-3.8248207480314962
0
LINE
8
BLACK
6
CONTINUOUS
10
5.990018149606299
20
-3.8248207480314962
11
5.9919250787401577
21
-3.8289101181102363
0
LINE
8
BLACK
6
CONTINUOUS
10
5.9919250787401577
20
-3.8289101181102363
11
5.9923677559055113
21
-3.8322727165354329
0
LINE
8
BLACK
6
CONTINUOUS
10
5.9923677559055113
20
-3.8322727165354329
11
5.9923677559055113
21
-3.8519577559055116
0
LINE
8
BLACK
6
CONTINUOUS
10
5.9923677559055113
20
-3.8519577559055116
11
5.9919250787401577
21
-3.8553203543307086
0
LINE
8
BLACK
6
CONTINUOUS
10
5.9919250787401577
20
-3.8553203543307086
11
5.990018149606299
21
-3.8594097244094487
0
LINE
8
BLACK
6
CONTINUOUS
10
5.990018149606299
20
-3.8594097244094487
11
5.9868275984251964
21
-3.8626002755905513
0
LINE
8
BLACK
6
CONTINUOUS
10
5.9868275984251964
20
-3.8626002755905513
11
5.9827382283464567
21
-3.8645072047244096
0
LINE
8
BLACK
6
CONTINUOUS
10
5.9827382283464567
20
-3.8645072047244096
11
5.9793756299212601
21
-3.8649498818897636
0
LINE
8
BLACK
6
CONTINUOUS
10
5.9793756299212601
20
-3.8649498818897636
11
5.9419740551181102
21
-3.8649498818897636
0
LINE
8
BLACK
6
CONTINUOUS
10
5.9419740551181102
20
-3.8649498818897636
11
5.9386114566929136
21
-3.8645072047244096
0
LINE
8
BLACK
6
CONTINUOUS
10
5.9386114566929136
20
-3.8645072047244096
11
5.934522086614173
21
-3.8626002755905513
0
LINE
8
BLACK
6
CONTINUOUS
10
5.934522086614173
20
-3.8626002755905513
11
5.9313315354330705
21
-3.8594097244094487
0
LINE
8
BLACK
6
CONTINUOUS
10
5.9313315354330705
20
-3.8594097244094487
11
5.9294246062992126
21
-3.8553203543307086
0
LINE
8
BLACK
6
CONTINUOUS
10
5.9294246062992126
20
-3.8553203543307086
11
5.9289819291338581
21
-3.8519577559055116
0
LINE
8
BLACK
6
CONTINUOUS
10
5.9289819291338581
20
-3.8519577559055116
11
5.9289819291338581
21
-3.8322727165354329
0
LINE
8
BLACK
6
CONTINUOUS
10
5.9289819291338581
20
-3.8322727165354329
11
5.9294246062992126
21
-3.8289101181102363
0
LINE
8
BLACK
6
CONTINUOUS
10
5.9294246062992126
20
-3.8289101181102363
11
5.9313315354330705
21
-3.8248207480314962
0
LINE
8
BLACK
6
CONTINUOUS
10
5.9313315354330705
20
-3.8248207480314962
11
5.934522086614173
21
-3.8216301968503936
0
LINE
8
BLACK
6
CONTINUOUS
10
5.934522086614173
20
-3.8216301968503936
11
5.9386114566929136
21
-3.8197232677165354
0
LINE
8
BLACK
6
CONTINUOUS
10
5.9386114566929136
20
-3.8197232677165354
11
5.9419740551181102
21
-3.8192805905511809
0
LINE
8
BLACK
6
CONTINUOUS
10
5.9419740551181102
20
-3.8192805905511809
11
5.9793756299212601
21
-3.8192805905511809
0
LINE
8
BLACK
6
CONTINUOUS
10
5.9793756299212601
20
-3.8192805905511809
11
5.9827382283464567
21
-3.8197232677165354
0
LINE
8
BLACK
6
CONTINUOUS
10
6.0808250393700787
20
-3.8024809842519685
11
6.0818468503937009
21
-3.8031637007874015
0
LINE
8
BLACK
6
CONTINUOUS
10
6.0818468503937009
20
-3.8031637007874015
11
6.0825295669291339
21
-3.8041855118110237
0
LINE
8
BLACK
6
CONTINUOUS
10
6.0825295669291339
20
-3.8041855118110237
11
6.0827693307086612
21
-3.8053908267716534
0
LINE
8
BLACK
6
CONTINUOUS
10
6.0827693307086612
20
-3.8053908267716534
11
6.0827693307086612
21
-3.8526349212598423
0
LINE
8
BLACK
6
CONTINUOUS
10
6.0827693307086612
20
-3.8526349212598423
11
6.0825295669291339
21
-3.8538402362204724
0
LINE
8
BLACK
6
CONTINUOUS
10
6.0825295669291339
20
-3.8538402362204724
11
6.0818468503937009
21
-3.8548620472440942
0
LINE
8
BLACK
6
CONTINUOUS
10
6.0818468503937009
20
-3.8548620472440942
11
6.0808250393700787
21
-3.8555447637795273
0
LINE
8
BLACK
6
CONTINUOUS
10
6.0808250393700787
20
-3.8555447637795273
11
6.079619724409449
21
-3.855784527559055
0
LINE
8
BLACK
6
CONTINUOUS
10
6.079619724409449
20
-3.855784527559055
11
6.0166275984251971
21
-3.855784527559055
0
LINE
8
BLACK
6
CONTINUOUS
10
6.0166275984251971
20
-3.855784527559055
11
6.0154222834645665
21
-3.8555447637795273
0
LINE
8
BLACK
6
CONTINUOUS
10
6.0154222834645665
20
-3.8555447637795273
11
6.0144004724409443
21
-3.8548620472440942
0
LINE
8
BLACK
6
CONTINUOUS
10
6.0144004724409443
20
-3.8548620472440942
11
6.0137177559055113
21
-3.8538402362204724
0
LINE
8
BLACK
6
CONTINUOUS
10
6.0137177559055113
20
-3.8538402362204724
11
6.013477992125984
21
-3.8526349212598423
0
LINE
8
BLACK
6
CONTINUOUS
10
6.013477992125984
20
-3.8526349212598423
11
6.013477992125984
21
-3.8053908267716534
0
LINE
8
BLACK
6
CONTINUOUS
10
6.013477992125984
20
-3.8053908267716534
11
6.0137177559055113
21
-3.8041855118110237
0
LINE
8
BLACK
6
CONTINUOUS
10
6.0137177559055113
20
-3.8041855118110237
11
6.0144004724409443
21
-3.8031637007874015
0
LINE
8
BLACK
6
CONTINUOUS
10
6.0144004724409443
20
-3.8031637007874015
11
6.0154222834645665
21
-3.8024809842519685
0
LINE
8
BLACK
6
CONTINUOUS
10
6.0154222834645665
20
-3.8024809842519685
11
6.0166275984251971
21
-3.8022412204724407
0
LINE
8
BLACK
6
CONTINUOUS
10
6.0166275984251971
20
-3.8022412204724407
11
6.079619724409449
21
-3.8022412204724407
0
LINE
8
BLACK
6
CONTINUOUS
10
6.079619724409449
20
-3.8022412204724407
11
6.0808250393700787
21
-3.8024809842519685
0
LINE
8
BLACK
6
CONTINUOUS
10
5.4738801574803144
20
-3.7106069685039369
11
5.4749019685039366
21
-3.71128968503937
0
LINE
8
BLACK
6
CONTINUOUS
10
5.4749019685039366
20
-3.71128968503937
11
5.4755846850393697
21
-3.7123114960629922
0
LINE
8
BLACK
6
CONTINUOUS
10
5.4755846850393697
20
-3.7123114960629922
11
5.4758244488188978
21
-3.7135168110236219
0
LINE
8
BLACK
6
CONTINUOUS
10
5.4758244488188978
20
-3.7135168110236219
11
5.4758244488188978
21
-3.7735168110236219
0
LINE
8
BLACK
6
CONTINUOUS
10
5.4758244488188978
20
-3.7735168110236219
11
5.4755846850393697
21
-3.7747221259842521
0
LINE
8
BLACK
6
CONTINUOUS
10
5.4755846850393697
20
-3.7747221259842521
11
5.4749019685039366
21
-3.7757439370078738
0
LINE
8
BLACK
6
CONTINUOUS
10
5.4749019685039366
20
-3.7757439370078738
11
5.4738801574803144
21
-3.7764266535433069
0
LINE
8
BLACK
6
CONTINUOUS
10
5.4738801574803144
20
-3.7764266535433069
11
5.4726748425196847
21
-3.7766664173228346
0
LINE
8
BLACK
6
CONTINUOUS
10
5.4726748425196847
20
-3.7766664173228346
11
5.4126748425196851
21
-3.7766664173228346
0
LINE
8
BLACK
6
CONTINUOUS
10
5.4126748425196851
20
-3.7766664173228346
11
5.4114695275590554
21
-3.7764266535433069
0
LINE
8
BLACK
6
CONTINUOUS
10
5.4114695275590554
20
-3.7764266535433069
11
5.4104477165354332
21
-3.7757439370078738
0
LINE
8
BLACK
6
CONTINUOUS
10
5.4104477165354332
20
-3.7757439370078738
11
5.4097650000000002
21
-3.7747221259842521
0
LINE
8
BLACK
6
CONTINUOUS
10
5.4097650000000002
20
-3.7747221259842521
11
5.409525236220472
21
-3.7735168110236219
0
LINE
8
BLACK
6
CONTINUOUS
10
5.409525236220472
20
-3.7735168110236219
11
5.409525236220472
21
-3.7135168110236219
0
LINE
8
BLACK
6
CONTINUOUS
10
5.409525236220472
20
-3.7135168110236219
11
5.4097650000000002
21
-3.7123114960629922
0
LINE
8
BLACK
6
CONTINUOUS
10
5.4097650000000002
20
-3.7123114960629922
11
5.4104477165354332
21
-3.71128968503937
0
LINE
8
BLACK
6
CONTINUOUS
10
5.4104477165354332
20
-3.71128968503937
11
5.4114695275590554
21
-3.7106069685039369
0
LINE
8
BLACK
6
CONTINUOUS
10
5.4114695275590554
20
-3.7106069685039369
11
5.4126748425196851
21
-3.7103672047244092
0
LINE
8
BLACK
6
CONTINUOUS
10
5.4126748425196851
20
-3.7103672047244092
11
5.4726748425196847
21
-3.7103672047244092
0
LINE
8
BLACK
6
CONTINUOUS
10
5.4726748425196847
20
-3.7103672047244092
11
5.4738801574803144
21
-3.7106069685039369
0
LINE
8
BLACK
6
CONTINUOUS
10
5.573880157480315
20
-3.7106069685039369
11
5.5749019685039372
21
-3.71128968503937
0
LINE
8
BLACK
6
CONTINUOUS
10
5.5749019685039372
20
-3.71128968503937
11
5.5755846850393702
21
-3.7123114960629922
0
LINE
8
BLACK
6
CONTINUOUS
10
5.5755846850393702
20
-3.7123114960629922
11
5.5758244488188975
21
-3.7135168110236219
0
LINE
8
BLACK
6
CONTINUOUS
10
5.5758244488188975
20
-3.7135168110236219
11
5.5758244488188975
21
-3.7735168110236219
0
LINE
8
BLACK
6
CONTINUOUS
10
5.5758244488188975
20
-3.7735168110236219
11
5.5755846850393702
21
-3.7747221259842521
0
LINE
8
BLACK
6
CONTINUOUS
10
5.5755846850393702
20
-3.7747221259842521
11
5.5749019685039372
21
-3.7757439370078738
0
LINE
8
BLACK
6
CONTINUOUS
10
5.5749019685039372
20
-3.7757439370078738
11
5.573880157480315
21
-3.7764266535433069
0
LINE
8
BLACK
6
CONTINUOUS
10
5.573880157480315
20
-3.7764266535433069
11
5.5726748425196853
21
-3.7766664173228346
0
LINE
8
BLACK
6
CONTINUOUS
10
5.5726748425196853
20
-3.7766664173228346
11
5.5126748425196848
21
-3.7766664173228346
0
LINE
8
BLACK
6
CONTINUOUS
10
5.5126748425196848
20
-3.7766664173228346
11
5.5114695275590551
21
-3.7764266535433069
0
LINE
8
BLACK
6
CONTINUOUS
10
5.5114695275590551
20
-3.7764266535433069
11
5.5104477165354329
21
-3.7757439370078738
0
LINE
8
BLACK
6
CONTINUOUS
10
5.5104477165354329
20
-3.7757439370078738
11
5.5097649999999998
21
-3.7747221259842521
0
LINE
8
BLACK
6
CONTINUOUS
10
5.5097649999999998
20
-3.7747221259842521
11
5.5095252362204725
21
-3.7735168110236219
0
LINE
8
BLACK
6
CONTINUOUS
10
5.5095252362204725
20
-3.7735168110236219
11
5.5095252362204725
21
-3.7135168110236219
0
LINE
8
BLACK
6
CONTINUOUS
10
5.5095252362204725
20
-3.7135168110236219
11
5.5097649999999998
21
-3.7123114960629922
0
LINE
8
BLACK
6
CONTINUOUS
10
5.5097649999999998
20
-3.7123114960629922
11
5.5104477165354329
21
-3.71128968503937
0
LINE
8
BLACK
6
CONTINUOUS
10
5.5104477165354329
20
-3.71128968503937
11
5.5114695275590551
21
-3.7106069685039369
0
LINE
8
BLACK
6
CONTINUOUS
10
5.5114695275590551
20
-3.7106069685039369
11
5.5126748425196848
21
-3.7103672047244092
0
LINE
8
BLACK
6
CONTINUOUS
10
5.5126748425196848
20
-3.7103672047244092
11
5.5726748425196853
21
-3.7103672047244092
0
LINE
8
BLACK
6
CONTINUOUS
10
5.5726748425196853
20
-3.7103672047244092
11
5.573880157480315
21
-3.7106069685039369
0
LINE
8
BLACK
6
CONTINUOUS
10
5.8964468897637792
20
-3.7032508267716535
11
5.9005362598425197
21
-3.7051577559055118
0
LINE
8
BLACK
6
CONTINUOUS
10
5.9005362598425197
20
-3.7051577559055118
11
5.9037268110236223
21
-3.7083483070866139
0
LINE
8
BLACK
6
CONTINUOUS
10
5.9037268110236223
20
-3.7083483070866139
11
5.9056337401574801
21
-3.7124376771653544
0
LINE
8
BLACK
6
CONTINUOUS
10
5.9056337401574801
20
-3.7124376771653544
11
5.9060764173228346
21
-3.715800275590551
0
LINE
8
BLACK
6
CONTINUOUS
10
5.9060764173228346
20
-3.715800275590551
11
5.9060764173228346
21
-3.7512333464566927
0
LINE
8
BLACK
6
CONTINUOUS
10
5.9060764173228346
20
-3.7512333464566927
11
5.9056337401574801
21
-3.7545959448818897
0
LINE
8
BLACK
6
CONTINUOUS
10
5.9056337401574801
20
-3.7545959448818897
11
5.9037268110236223
21
-3.7586853149606299
0
LINE
8
BLACK
6
CONTINUOUS
10
5.9037268110236223
20
-3.7586853149606299
11
5.9005362598425197
21
-3.7618758661417324
0
LINE
8
BLACK
6
CONTINUOUS
10
5.9005362598425197
20
-3.7618758661417324
11
5.8964468897637792
21
-3.7637827952755907
0
LINE
8
BLACK
6
CONTINUOUS
10
5.8964468897637792
20
-3.7637827952755907
11
5.8930842913385826
21
-3.7642254724409447
0
LINE
8
BLACK
6
CONTINUOUS
10
5.8930842913385826
20
-3.7642254724409447
11
5.8724150000000002
21
-3.7642254724409447
0
LINE
8
BLACK
6
CONTINUOUS
10
5.8724150000000002
20
-3.7642254724409447
11
5.8690524015748027
21
-3.7637827952755907
0
LINE
8
BLACK
6
CONTINUOUS
10
5.8690524015748027
20
-3.7637827952755907
11
5.864963031496063
21
-3.7618758661417324
0
LINE
8
BLACK
6
CONTINUOUS
10
5.864963031496063
20
-3.7618758661417324
11
5.8617724803149605
21
-3.7586853149606299
0
LINE
8
BLACK
6
CONTINUOUS
10
5.8617724803149605
20
-3.7586853149606299
11
5.8598655511811026
21
-3.7545959448818897
0
LINE
8
BLACK
6
CONTINUOUS
10
5.8598655511811026
20
-3.7545959448818897
11
5.8594228740157481
21
-3.7512333464566927
0
LINE
8
BLACK
6
CONTINUOUS
10
5.8594228740157481
20
-3.7512333464566927
11
5.8594228740157481
21
-3.715800275590551
0
LINE
8
BLACK
6
CONTINUOUS
10
5.8594228740157481
20
-3.715800275590551
11
5.8598655511811026
21
-3.7124376771653544
0
LINE
8
BLACK
6
CONTINUOUS
10
5.8598655511811026
20
-3.7124376771653544
11
5.8617724803149605
21
-3.7083483070866139
0
LINE
8
BLACK
6
CONTINUOUS
10
5.8617724803149605
20
-3.7083483070866139
11
5.864963031496063
21
-3.7051577559055118
0
LINE
8
BLACK
6
CONTINUOUS
10
5.864963031496063
20
-3.7051577559055118
11
5.8690524015748027
21
-3.7032508267716535
0
LINE
8
BLACK
6
CONTINUOUS
10
5.8690524015748027
20
-3.7032508267716535
11
5.8724150000000002
21
-3.702808149606299
0
LINE
8
BLACK
6
CONTINUOUS
10
5.8724150000000002
20
-3.702808149606299
11
5.8930842913385826
21
-3.702808149606299
0
LINE
8
BLACK
6
CONTINUOUS
10
5.8930842913385826
20
-3.702808149606299
11
5.8964468897637792
21
-3.7032508267716535
0
LINE
8
BLACK
6
CONTINUOUS
10
5.9682972834645671
20
-3.7032508267716535
11
5.9723866535433068
21
-3.7051577559055118
0
LINE
8
BLACK
6
CONTINUOUS
10
5.9723866535433068
20
-3.7051577559055118
11
5.9755772047244093
21
-3.7083483070866139
0
LINE
8
BLACK
6
CONTINUOUS
10
5.9755772047244093
20
-3.7083483070866139
11
5.9774841338582672
21
-3.7124376771653544
0
LINE
8
BLACK
6
CONTINUOUS
10
5.9774841338582672
20
-3.7124376771653544
11
5.9779268110236217
21
-3.715800275590551
0
LINE
8
BLACK
6
CONTINUOUS
10
5.9779268110236217
20
-3.715800275590551
11
5.9779268110236217
21
-3.7512333464566927
0
LINE
8
BLACK
6
CONTINUOUS
10
5.9779268110236217
20
-3.7512333464566927
11
5.9774841338582672
21
-3.7545959448818897
0
LINE
8
BLACK
6
CONTINUOUS
10
5.9774841338582672
20
-3.7545959448818897
11
5.9755772047244093
21
-3.7586853149606299
0
LINE
8
BLACK
6
CONTINUOUS
10
5.9755772047244093
20
-3.7586853149606299
11
5.9723866535433068
21
-3.7618758661417324
0
LINE
8
BLACK
6
CONTINUOUS
10
5.9723866535433068
20
-3.7618758661417324
11
5.9682972834645671
21
-3.7637827952755907
0
LINE
8
BLACK
6
CONTINUOUS
10
5.9682972834645671
20
-3.7637827952755907
11
5.9649346850393696
21
-3.7642254724409447
0
LINE
8
BLACK
6
CONTINUOUS
10
5.9649346850393696
20
-3.7642254724409447
11
5.9442653937007872
21
-3.7642254724409447
0
LINE
8
BLACK
6
CONTINUOUS
10
5.9442653937007872
20
-3.7642254724409447
11
5.9409027952755906
21
-3.7637827952755907
0
LINE
8
BLACK
6
CONTINUOUS
10
5.9409027952755906
20
-3.7637827952755907
11
5.9368134251968501
21
-3.7618758661417324
0
LINE
8
BLACK
6
CONTINUOUS
10
5.9368134251968501
20
-3.7618758661417324
11
5.9336228740157475
21
-3.7586853149606299
0
LINE
8
BLACK
6
CONTINUOUS
10
5.9336228740157475
20
-3.7586853149606299
11
5.9317159448818897
21
-3.7545959448818897
0
LINE
8
BLACK
6
CONTINUOUS
10
5.9317159448818897
20
-3.7545959448818897
11
5.9312732677165352
21
-3.7512333464566927
0
LINE
8
BLACK
6
CONTINUOUS
10
5.9312732677165352
20
-3.7512333464566927
11
5.9312732677165352
21
-3.715800275590551
0
LINE
8
BLACK
6
CONTINUOUS
10
5.9312732677165352
20
-3.715800275590551
11
5.9317159448818897
21
-3.7124376771653544
0
LINE
8
BLACK
6
CONTINUOUS
10
5.9317159448818897
20
-3.7124376771653544
11
5.9336228740157475
21
-3.7083483070866139
0
LINE
8
BLACK
6
CONTINUOUS
10
5.9336228740157475
20
-3.7083483070866139
11
5.9368134251968501
21
-3.7051577559055118
0
LINE
8
BLACK
6
CONTINUOUS
10
5.9368134251968501
20
-3.7051577559055118
11
5.9409027952755906
21
-3.7032508267716535
0
LINE
8
BLACK
6
CONTINUOUS
10
5.9409027952755906
20
-3.7032508267716535
11
5.9442653937007872
21
-3.702808149606299
0
LINE
8
BLACK
6
CONTINUOUS
10
5.9442653937007872
20
-3.702808149606299
11
5.9649346850393696
21
-3.702808149606299
0
LINE
8
BLACK
6
CONTINUOUS
10
5.9649346850393696
20
-3.702808149606299
11
5.9682972834645671
21
-3.7032508267716535
0
LINE
8
BLACK
6
CONTINUOUS
10
6.0808250393700787
20
-3.7040557874015749
11
6.0818468503937009
21
-3.704738503937008
0
LINE
8
BLACK
6
CONTINUOUS
10
6.0818468503937009
20
-3.704738503937008
11
6.0825295669291339
21
-3.7057603149606297
0
LINE
8
BLACK
6
CONTINUOUS
10
6.0825295669291339
20
-3.7057603149606297
11
6.0827693307086612
21
-3.7069656299212599
0
LINE
8
BLACK
6
CONTINUOUS
10
6.0827693307086612
20
-3.7069656299212599
11
6.0827693307086612
21
-3.7542097244094488
0
LINE
8
BLACK
6
CONTINUOUS
10
6.0827693307086612
20
-3.7542097244094488
11
6.0825295669291339
21
-3.7554150393700785
0
LINE
8
BLACK
6
CONTINUOUS
10
6.0825295669291339
20
-3.7554150393700785
11
6.0818468503937009
21
-3.7564368503937007
0
LINE
8
BLACK
6
CONTINUOUS
10
6.0818468503937009
20
-3.7564368503937007
11
6.0808250393700787
21
-3.7571195669291337
0
LINE
8
BLACK
6
CONTINUOUS
10
6.0808250393700787
20
-3.7571195669291337
11
6.079619724409449
21
-3.7573593307086615
0
LINE
8
BLACK
6
CONTINUOUS
10
6.079619724409449
20
-3.7573593307086615
11
6.0166275984251971
21
-3.7573593307086615
0
LINE
8
BLACK
6
CONTINUOUS
10
6.0166275984251971
20
-3.7573593307086615
11
6.0154222834645665
21
-3.7571195669291337
0
LINE
8
BLACK
6
CONTINUOUS
10
6.0154222834645665
20
-3.7571195669291337
11
6.0144004724409443
21
-3.7564368503937007
0
LINE
8
BLACK
6
CONTINUOUS
10
6.0144004724409443
20
-3.7564368503937007
11
6.0137177559055113
21
-3.7554150393700785
0
LINE
8
BLACK
6
CONTINUOUS
10
6.0137177559055113
20
-3.7554150393700785
11
6.013477992125984
21
-3.7542097244094488
0
LINE
8
BLACK
6
CONTINUOUS
10
6.013477992125984
20
-3.7542097244094488
11
6.013477992125984
21
-3.7069656299212599
0
LINE
8
BLACK
6
CONTINUOUS
10
6.013477992125984
20
-3.7069656299212599
11
6.0137177559055113
21
-3.7057603149606297
0
LINE
8
BLACK
6
CONTINUOUS
10
6.0137177559055113
20
-3.7057603149606297
11
6.0144004724409443
21
-3.704738503937008
0
LINE
8
BLACK
6
CONTINUOUS
10
6.0144004724409443
20
-3.704738503937008
11
6.0154222834645665
21
-3.7040557874015749
0
LINE
8
BLACK
6
CONTINUOUS
10
6.0154222834645665
20
-3.7040557874015749
11
6.0166275984251971
21
-3.7038160236220472
0
LINE
8
BLACK
6
CONTINUOUS
10
6.0166275984251971
20
-3.7038160236220472
11
6.079619724409449
21
-3.7038160236220472
0
LINE
8
BLACK
6
CONTINUOUS
10
6.079619724409449
20
-3.7038160236220472
11
6.0808250393700787
21
-3.7040557874015749
0
LINE
8
BLACK
6
CONTINUOUS
10
5.8964468897637792
20
-3.6012508267716536
11
5.9005362598425197
21
-3.6031577559055119
0
LINE
8
BLACK
6
CONTINUOUS
10
5.9005362598425197
20
-3.6031577559055119
11
5.9037268110236223
21
-3.606348307086614
0
LINE
8
BLACK
6
CONTINUOUS
10
5.9037268110236223
20
-3.606348307086614
11
5.9056337401574801
21
-3.6104376771653541
0
LINE
8
BLACK
6
CONTINUOUS
10
5.9056337401574801
20
-3.6104376771653541
11
5.9060764173228346
21
-3.6138002755905512
0
LINE
8
BLACK
6
CONTINUOUS
10
5.9060764173228346
20
-3.6138002755905512
11
5.9060764173228346
21
-3.6492333464566928
0
LINE
8
BLACK
6
CONTINUOUS
10
5.9060764173228346
20
-3.6492333464566928
11
5.9056337401574801
21
-3.6525959448818899
0
LINE
8
BLACK
6
CONTINUOUS
10
5.9056337401574801
20
-3.6525959448818899
11
5.9037268110236223
21
-3.65668531496063
0
LINE
8
BLACK
6
CONTINUOUS
10
5.9037268110236223
20
-3.65668531496063
11
5.9005362598425197
21
-3.6598758661417321
0
LINE
8
BLACK
6
CONTINUOUS
10
5.9005362598425197
20
-3.6598758661417321
11
5.8964468897637792
21
-3.6617827952755904
0
LINE
8
BLACK
6
CONTINUOUS
10
5.8964468897637792
20
-3.6617827952755904
11
5.8930842913385826
21
-3.6622254724409449
0
LINE
8
BLACK
6
CONTINUOUS
10
5.8930842913385826
20
-3.6622254724409449
11
5.8724150000000002
21
-3.6622254724409449
0
LINE
8
BLACK
6
CONTINUOUS
10
5.8724150000000002
20
-3.6622254724409449
11
5.8690524015748027
21
-3.6617827952755904
0
LINE
8
BLACK
6
CONTINUOUS
10
5.8690524015748027
20
-3.6617827952755904
11
5.864963031496063
21
-3.6598758661417321
0
LINE
8
BLACK
6
CONTINUOUS
10
5.864963031496063
20
-3.6598758661417321
11
5.8617724803149605
21
-3.65668531496063
0
LINE
8
BLACK
6
CONTINUOUS
10
5.8617724803149605
20
-3.65668531496063
11
5.8598655511811026
21
-3.6525959448818899
0
LINE
8
BLACK
6
CONTINUOUS
10
5.8598655511811026
20
-3.6525959448818899
11
5.8594228740157481
21
-3.6492333464566928
0
LINE
8
BLACK
6
CONTINUOUS
10
5.8594228740157481
20
-3.6492333464566928
11
5.8594228740157481
21
-3.6138002755905512
0
LINE
8
BLACK
6
CONTINUOUS
10
5.8594228740157481
20
-3.6138002755905512
11
5.8598655511811026
21
-3.6104376771653541
0
LINE
8
BLACK
6
CONTINUOUS
10
5.8598655511811026
20
-3.6104376771653541
11
5.8617724803149605
21
-3.606348307086614
0
LINE
8
BLACK
6
CONTINUOUS
10
5.8617724803149605
20
-3.606348307086614
11
5.864963031496063
21
-3.6031577559055119
0
LINE
8
BLACK
6
CONTINUOUS
10
5.864963031496063
20
-3.6031577559055119
11
5.8690524015748027
21
-3.6012508267716536
0
LINE
8
BLACK
6
CONTINUOUS
10
5.8690524015748027
20
-3.6012508267716536
11
5.8724150000000002
21
-3.6008081496062991
0
LINE
8
BLACK
6
CONTINUOUS
10
5.8724150000000002
20
-3.6008081496062991
11
5.8930842913385826
21
-3.6008081496062991
0
LINE
8
BLACK
6
CONTINUOUS
10
5.8930842913385826
20
-3.6008081496062991
11
5.8964468897637792
21
-3.6012508267716536
0
LINE
8
BLACK
6
CONTINUOUS
10
5.9682972834645671
20
-3.6012508267716536
11
5.9723866535433068
21
-3.6031577559055119
0
LINE
8
BLACK
6
CONTINUOUS
10
5.9723866535433068
20
-3.6031577559055119
11
5.9755772047244093
21
-3.606348307086614
0
LINE
8
BLACK
6
CONTINUOUS
10
5.9755772047244093
20
-3.606348307086614
11
5.9774841338582672
21
-3.6104376771653541
0
LINE
8
BLACK
6
CONTINUOUS
10
5.9774841338582672
20
-3.6104376771653541
11
5.9779268110236217
21
-3.6138002755905512
0
LINE
8
BLACK
6
CONTINUOUS
10
5.9779268110236217
20
-3.6138002755905512
11
5.9779268110236217
21
-3.6492333464566928
0
LINE
8
BLACK
6
CONTINUOUS
10
5.9779268110236217
20
-3.6492333464566928
11
5.9774841338582672
21
-3.6525959448818899
0
LINE
8
BLACK
6
CONTINUOUS
10
5.9774841338582672
20
-3.6525959448818899
11
5.9755772047244093
21
-3.65668531496063
0
LINE
8
BLACK
6
CONTINUOUS
10
5.9755772047244093
20
-3.65668531496063
11
5.9723866535433068
21
-3.6598758661417321
0
LINE
8
BLACK
6
CONTINUOUS
10
5.9723866535433068
20
-3.6598758661417321
11
5.9682972834645671
21
-3.6617827952755904
0
LINE
8
BLACK
6
CONTINUOUS
10
5.9682972834645671
20
-3.6617827952755904
11
5.9649346850393696
21
-3.6622254724409449
0
LINE
8
BLACK
6
CONTINUOUS
10
5.9649346850393696
20
-3.6622254724409449
11
5.9442653937007872
21
-3.6622254724409449
0
LINE
8
BLACK
6
CONTINUOUS
10
5.9442653937007872
20
-3.6622254724409449
11
5.9409027952755906
21
-3.6617827952755904
0
LINE
8
BLACK
6
CONTINUOUS
10
5.9409027952755906
20
-3.6617827952755904
11
5.9368134251968501
21
-3.6598758661417321
0
LINE
8
BLACK
6
CONTINUOUS
10
5.9368134251968501
20
-3.6598758661417321
11
5.9336228740157475
21
-3.65668531496063
0
LINE
8
BLACK
6
CONTINUOUS
10
5.9336228740157475
20
-3.65668531496063
11
5.9317159448818897
21
-3.6525959448818899
0
LINE
8
BLACK
6
CONTINUOUS
10
5.9317159448818897
20
-3.6525959448818899
11
5.9312732677165352
21
-3.6492333464566928
0
LINE
8
BLACK
6
CONTINUOUS
10
5.9312732677165352
20
-3.6492333464566928
11
5.9312732677165352
21
-3.6138002755905512
0
LINE
8
BLACK
6
CONTINUOUS
10
5.9312732677165352
20
-3.6138002755905512
11
5.9317159448818897
21
-3.6104376771653541
0
LINE
8
BLACK
6
CONTINUOUS
10
5.9317159448818897
20
-3.6104376771653541
11
5.9336228740157475
21
-3.606348307086614
0
LINE
8
BLACK
6
CONTINUOUS
10
5.9336228740157475
20
-3.606348307086614
11
5.9368134251968501
21
-3.6031577559055119
0
LINE
8
BLACK
6
CONTINUOUS
10
5.9368134251968501
20
-3.6031577559055119
11
5.9409027952755906
21
-3.6012508267716536
0
LINE
8
BLACK
6
CONTINUOUS
10
5.9409027952755906
20
-3.6012508267716536
11
5.9442653937007872
21
-3.6008081496062991
0
LINE
8
BLACK
6
CONTINUOUS
10
5.9442653937007872
20
-3.6008081496062991
11
5.9649346850393696
21
-3.6008081496062991
0
LINE
8
BLACK
6
CONTINUOUS
10
5.9649346850393696
20
-3.6008081496062991
11
5.9682972834645671
21
-3.6012508267716536
0
LINE
8
BLACK
6
CONTINUOUS
10
6.0808250393700787
20
-3.605630590551181
11
6.0818468503937009
21
-3.606313307086614
0
LINE
8
BLACK
6
CONTINUOUS
10
6.0818468503937009
20
-3.606313307086614
11
6.0825295669291339
21
-3.6073351181102362
0
LINE
8
BLACK
6
CONTINUOUS
10
6.0825295669291339
20
-3.6073351181102362
11
6.0827693307086612
21
-3.6085404330708659
0
LINE
8
BLACK
6
CONTINUOUS
10
6.0827693307086612
20
-3.6085404330708659
11
6.0827693307086612
21
-3.6557845275590553
0
LINE
8
BLACK
6
CONTINUOUS
10
6.0827693307086612
20
-3.6557845275590553
11
6.0825295669291339
21
-3.656989842519685
0
LINE
8
BLACK
6
CONTINUOUS
10
6.0825295669291339
20
-3.656989842519685
11
6.0818468503937009
21
-3.6580116535433072
0
LINE
8
BLACK
6
CONTINUOUS
10
6.0818468503937009
20
-3.6580116535433072
11
6.0808250393700787
21
-3.6586943700787402
0
LINE
8
BLACK
6
CONTINUOUS
10
6.0808250393700787
20
-3.6586943700787402
11
6.079619724409449
21
-3.6589341338582675
0
LINE
8
BLACK
6
CONTINUOUS
10
6.079619724409449
20
-3.6589341338582675
11
6.0166275984251971
21
-3.6589341338582675
0
LINE
8
BLACK
6
CONTINUOUS
10
6.0166275984251971
20
-3.6589341338582675
11
6.0154222834645665
21
-3.6586943700787402
0
LINE
8
BLACK
6
CONTINUOUS
10
6.0154222834645665
20
-3.6586943700787402
11
6.0144004724409443
21
-3.6580116535433072
0
LINE
8
BLACK
6
CONTINUOUS
10
6.0144004724409443
20
-3.6580116535433072
11
6.0137177559055113
21
-3.656989842519685
0
LINE
8
BLACK
6
CONTINUOUS
10
6.0137177559055113
20
-3.656989842519685
11
6.013477992125984
21
-3.6557845275590553
0
LINE
8
BLACK
6
CONTINUOUS
10
6.013477992125984
20
-3.6557845275590553
11
6.013477992125984
21
-3.6085404330708659
0
LINE
8
BLACK
6
CONTINUOUS
10
6.013477992125984
20
-3.6085404330708659
11
6.0137177559055113
21
-3.6073351181102362
0
LINE
8
BLACK
6
CONTINUOUS
10
6.0137177559055113
20
-3.6073351181102362
11
6.0144004724409443
21
-3.606313307086614
0
LINE
8
BLACK
6
CONTINUOUS
10
6.0144004724409443
20
-3.606313307086614
11
6.0154222834645665
21
-3.605630590551181
0
LINE
8
BLACK
6
CONTINUOUS
10
6.0154222834645665
20
-3.605630590551181
11
6.0166275984251971
21
-3.6053908267716537
0
LINE
8
BLACK
6
CONTINUOUS
10
6.0166275984251971
20
-3.6053908267716537
11
6.079619724409449
21
-3.6053908267716537
0
LINE
8
BLACK
6
CONTINUOUS
10
6.079619724409449
20
-3.6053908267716537
11
6.0808250393700787
21
-3.605630590551181
0
LINE
8
BLACK
6
CONTINUOUS
10
6.0808250393700787
20
-3.5072053937007874
11
6.0818468503937009
21
-3.5078881102362205
0
LINE
8
BLACK
6
CONTINUOUS
10
6.0818468503937009
20
-3.5078881102362205
11
6.0825295669291339
21
-3.5089099212598422
0
LINE
8
BLACK
6
CONTINUOUS
10
6.0825295669291339
20
-3.5089099212598422
11
6.0827693307086612
21
-3.5101152362204724
0
LINE
8
BLACK
6
CONTINUOUS
10
6.0827693307086612
20
-3.5101152362204724
11
6.0827693307086612
21
-3.5573593307086613
0
LINE
8
BLACK
6
CONTINUOUS
10
6.0827693307086612
20
-3.5573593307086613
11
6.0825295669291339
21
-3.5585646456692914
0
LINE
8
BLACK
6
CONTINUOUS
10
6.0825295669291339
20
-3.5585646456692914
11
6.0818468503937009
21
-3.5595864566929132
0
LINE
8
BLACK
6
CONTINUOUS
10
6.0818468503937009
20
-3.5595864566929132
11
6.0808250393700787
21
-3.5602691732283462
0
LINE
8
BLACK
6
CONTINUOUS
10
6.0808250393700787
20
-3.5602691732283462
11
6.079619724409449
21
-3.560508937007874
0
LINE
8
BLACK
6
CONTINUOUS
10
6.079619724409449
20
-3.560508937007874
11
6.0166275984251971
21
-3.560508937007874
0
LINE
8
BLACK
6
CONTINUOUS
10
6.0166275984251971
20
-3.560508937007874
11
6.0154222834645665
21
-3.5602691732283462
0
LINE
8
BLACK
6
CONTINUOUS
10
6.0154222834645665
20
-3.5602691732283462
11
6.0144004724409443
21
-3.5595864566929132
0
LINE
8
BLACK
6
CONTINUOUS
10
6.0144004724409443
20
-3.5595864566929132
11
6.0137177559055113
21
-3.5585646456692914
0
LINE
8
BLACK
6
CONTINUOUS
10
6.0137177559055113
20
-3.5585646456692914
11
6.013477992125984
21
-3.5573593307086613
0
LINE
8
BLACK
6
CONTINUOUS
10
6.013477992125984
20
-3.5573593307086613
11
6.013477992125984
21
-3.5101152362204724
0
LINE
8
BLACK
6
CONTINUOUS
10
6.013477992125984
20
-3.5101152362204724
11
6.0137177559055113
21
-3.5089099212598422
0
LINE
8
BLACK
6
CONTINUOUS
10
6.0137177559055113
20
-3.5089099212598422
11
6.0144004724409443
21
-3.5078881102362205
0
LINE
8
BLACK
6
CONTINUOUS
10
6.0144004724409443
20
-3.5078881102362205
11
6.0154222834645665
21
-3.5072053937007874
0
LINE
8
BLACK
6
CONTINUOUS
10
6.0154222834645665
20
-3.5072053937007874
11
6.0166275984251971
21
-3.5069656299212597
0
LINE
8
BLACK
6
CONTINUOUS
10
6.0166275984251971
20
-3.5069656299212597
11
6.079619724409449
21
-3.5069656299212597
0
LINE
8
BLACK
6
CONTINUOUS
10
6.079619724409449
20
-3.5069656299212597
11
6.0808250393700787
21
-3.5072053937007874
0
LINE
8
BLACK
6
CONTINUOUS
10
6.2855494488188972
20
-3.1928353149606297
11
6.2865712598425194
21
-3.1935180314960627
0
LINE
8
BLACK
6
CONTINUOUS
10
6.2865712598425194
20
-3.1935180314960627
11
6.2872539763779525
21
-3.1945398425196849
0
LINE
8
BLACK
6
CONTINUOUS
10
6.2872539763779525
20
-3.1945398425196849
11
6.2874937401574797
21
-3.1957451574803151
0
LINE
8
BLACK
6
CONTINUOUS
10
6.2874937401574797
20
-3.1957451574803151
11
6.2874937401574797
21
-3.2941703543307086
0
LINE
8
BLACK
6
CONTINUOUS
10
6.2874937401574797
20
-3.2941703543307086
11
6.2872539763779525
21
-3.2953756692913383
0
LINE
8
BLACK
6
CONTINUOUS
10
6.2872539763779525
20
-3.2953756692913383
11
6.2865712598425194
21
-3.2963974803149605
0
LINE
8
BLACK
6
CONTINUOUS
10
6.2865712598425194
20
-3.2963974803149605
11
6.2855494488188972
21
-3.2970801968503936
0
LINE
8
BLACK
6
CONTINUOUS
10
6.2855494488188972
20
-3.2970801968503936
11
6.2843441338582675
21
-3.2973199606299213
0
LINE
8
BLACK
6
CONTINUOUS
10
6.2843441338582675
20
-3.2973199606299213
11
6.0874937401574805
21
-3.2973199606299213
0
LINE
8
BLACK
6
CONTINUOUS
10
6.0874937401574805
20
-3.2973199606299213
11
6.0862884251968499
21
-3.2970801968503936
0
LINE
8
BLACK
6
CONTINUOUS
10
6.0862884251968499
20
-3.2970801968503936
11
6.0852666141732286
21
-3.2963974803149605
0
LINE
8
BLACK
6
CONTINUOUS
10
6.0852666141732286
20
-3.2963974803149605
11
6.0845838976377955
21
-3.2953756692913383
0
LINE
8
BLACK
6
CONTINUOUS
10
6.0845838976377955
20
-3.2953756692913383
11
6.0843441338582673
21
-3.2941703543307086
0
LINE
8
BLACK
6
CONTINUOUS
10
6.0843441338582673
20
-3.2941703543307086
11
6.0843441338582673
21
-3.1957451574803151
0
LINE
8
BLACK
6
CONTINUOUS
10
6.0843441338582673
20
-3.1957451574803151
11
6.0845838976377955
21
-3.1945398425196849
0
LINE
8
BLACK
6
CONTINUOUS
10
6.0845838976377955
20
-3.1945398425196849
11
6.0852666141732286
21
-3.1935180314960627
0
LINE
8
BLACK
6
CONTINUOUS
10
6.0852666141732286
20
-3.1935180314960627
11
6.0862884251968499
21
-3.1928353149606297
0
LINE
8
BLACK
6
CONTINUOUS
10
6.0862884251968499
20
-3.1928353149606297
11
6.0874937401574805
21
-3.1925955511811024
0
LINE
8
BLACK
6
CONTINUOUS
10
6.0874937401574805
20
-3.1925955511811024
11
6.2843441338582675
21
-3.1925955511811024
0
LINE
8
BLACK
6
CONTINUOUS
10
6.2843441338582675
20
-3.1925955511811024
11
6.2855494488188972
21
-3.1928353149606297
0
LINE
8
BLACK
6
CONTINUOUS
10
7.2383053543307083
20
-3.1928353149606297
11
7.2393271653543305
21
-3.1935180314960627
0
LINE
8
BLACK
6
CONTINUOUS
10
7.2393271653543305
20
-3.1935180314960627
11
7.2400098818897636
21
-3.1945398425196849
0
LINE
8
BLACK
6
CONTINUOUS
10
7.2400098818897636
20
-3.1945398425196849
11
7.2402496456692909
21
-3.1957451574803151
0
LINE
8
BLACK
6
CONTINUOUS
10
7.2402496456692909
20
-3.1957451574803151
11
7.2402496456692909
21
-3.2941703543307086
0
LINE
8
BLACK
6
CONTINUOUS
10
7.2402496456692909
20
-3.2941703543307086
11
7.2400098818897636
21
-3.2953756692913383
0
LINE
8
BLACK
6
CONTINUOUS
10
7.2400098818897636
20
-3.2953756692913383
11
7.2393271653543305
21
-3.2963974803149605
0
LINE
8
BLACK
6
CONTINUOUS
10
7.2393271653543305
20
-3.2963974803149605
11
7.2383053543307083
21
-3.2970801968503936
0
LINE
8
BLACK
6
CONTINUOUS
10
7.2383053543307083
20
-3.2970801968503936
11
7.2371000393700786
21
-3.2973199606299213
0
LINE
8
BLACK
6
CONTINUOUS
10
7.2371000393700786
20
-3.2973199606299213
11
7.0402496456692916
21
-3.2973199606299213
0
LINE
8
BLACK
6
CONTINUOUS
10
7.0402496456692916
20
-3.2973199606299213
11
7.039044330708661
21
-3.2970801968503936
0
LINE
8
BLACK
6
CONTINUOUS
10
7.039044330708661
20
-3.2970801968503936
11
7.0380225196850388
21
-3.2963974803149605
0
LINE
8
BLACK
6
CONTINUOUS
10
7.0380225196850388
20
-3.2963974803149605
11
7.0373398031496057
21
-3.2953756692913383
0
LINE
8
BLACK
6
CONTINUOUS
10
7.0373398031496057
20
-3.2953756692913383
11
7.0371000393700784
21
-3.2941703543307086
0
LINE
8
BLACK
6
CONTINUOUS
10
7.0371000393700784
20
-3.2941703543307086
11
7.0371000393700784
21
-3.1957451574803151
0
LINE
8
BLACK
6
CONTINUOUS
10
7.0371000393700784
20
-3.1957451574803151
11
7.0373398031496057
21
-3.1945398425196849
0
LINE
8
BLACK
6
CONTINUOUS
10
7.0373398031496057
20
-3.1945398425196849
11
7.0380225196850388
21
-3.1935180314960627
0
LINE
8
BLACK
6
CONTINUOUS
10
7.0380225196850388
20
-3.1935180314960627
11
7.039044330708661
21
-3.1928353149606297
0
LINE
8
BLACK
6
CONTINUOUS
10
7.039044330708661
20
-3.1928353149606297
11
7.0402496456692916
21
-3.1925955511811024
0
LINE
8
BLACK
6
CONTINUOUS
10
7.0402496456692916
20
-3.1925955511811024
11
7.2371000393700786
21
-3.1925955511811024
0
LINE
8
BLACK
6
CONTINUOUS
10
7.2371000393700786
20
-3.1925955511811024
11
7.2383053543307083
21
-3.1928353149606297
0
LINE
8
BLACK
6
CONTINUOUS
10
6.9089866141732283
20
-2.9779702362204725
11
6.9222438582677164
21
-2.9809961417322834
0
LINE
8
BLACK
6
CONTINUOUS
10
6.9222438582677164
20
-2.9809961417322834
11
6.9350789763779526
21
-2.9854873228346457
0
LINE
8
BLACK
6
CONTINUOUS
10
6.9350789763779526
20
-2.9854873228346457
11
6.9473305118110238
21
-2.9913873622047245
0
LINE
8
BLACK
6
CONTINUOUS
10
6.9473305118110238
20
-2.9913873622047245
11
6.9588444488188976
21
-2.9986220472440945
0
LINE
8
BLACK
6
CONTINUOUS
10
6.9588444488188976
20
-2.9986220472440945
11
6.9694759055118105
21
-3.0071003543307087
0
LINE
8
BLACK
6
CONTINUOUS
10
6.9694759055118105
20
-3.0071003543307087
11
6.9790912992125982
21
-3.0167157480314959
0
LINE
8
BLACK
6
CONTINUOUS
10
6.9790912992125982
20
-3.0167157480314959
11
6.9875696062992123
21
-3.0273472047244092
0
LINE
8
BLACK
6
CONTINUOUS
10
6.9875696062992123
20
-3.0273472047244092
11
6.9948042913385828
21
-3.0388611417322835
0
LINE
8
BLACK
6
CONTINUOUS
10
6.9948042913385828
20
-3.0388611417322835
11
7.0007043307086612
21
-3.0511126771653543
0
LINE
8
BLACK
6
CONTINUOUS
10
7.0007043307086612
20
-3.0511126771653543
11
7.0051955118110234
21
-3.0639477952755905
0
LINE
8
BLACK
6
CONTINUOUS
10
7.0051955118110234
20
-3.0639477952755905
11
7.0082214173228348
21
-3.0772050393700785
0
LINE
8
BLACK
6
CONTINUOUS
10
7.0082214173228348
20
-3.0772050393700785
11
7.0097439370078742
21
-3.0907177165354329
0
LINE
8
BLACK
6
CONTINUOUS
10
7.0097439370078742
20
-3.0907177165354329
11
7.0097439370078742
21
-3.104315905511811
0
LINE
8
BLACK
6
CONTINUOUS
10
7.0097439370078742
20
-3.104315905511811
11
7.0082214173228348
21
-3.1178285826771654
0
LINE
8
BLACK
6
CONTINUOUS
10
7.0082214173228348
20
-3.1178285826771654
11
7.0051955118110234
21
-3.1310858267716535
0
LINE
8
BLACK
6
CONTINUOUS
10
7.0051955118110234
20
-3.1310858267716535
11
7.0007043307086612
21
-3.1439209448818897
0
LINE
8
BLACK
6
CONTINUOUS
10
7.0007043307086612
20
-3.1439209448818897
11
6.9948042913385828
21
-3.1561724803149604
0
LINE
8
BLACK
6
CONTINUOUS
10
6.9948042913385828
20
-3.1561724803149604
11
6.9875696062992123
21
-3.1676864173228347
0
LINE
8
BLACK
6
CONTINUOUS
10
6.9875696062992123
20
-3.1676864173228347
11
6.9790912992125982
21
-3.1783178740157481
0
LINE
8
BLACK
6
CONTINUOUS
10
6.9790912992125982
20
-3.1783178740157481
11
6.9694759055118105
21
-3.1879332677165353
0
LINE
8
BLACK
6
CONTINUOUS
10
6.9694759055118105
20
-3.1879332677165353
11
6.9588444488188976
21
-3.1964115748031494
0
LINE
8
BLACK
6
CONTINUOUS
10
6.9588444488188976
20
-3.1964115748031494
11
6.9473305118110238
21
-3.2036462598425195
0
LINE
8
BLACK
6
CONTINUOUS
10
6.9473305118110238
20
-3.2036462598425195
11
6.9350789763779526
21
-3.2095462992125983
0
LINE
8
BLACK
6
CONTINUOUS
10
6.9350789763779526
20
-3.2095462992125983
11
6.9222438582677164
21
-3.2140374803149605
0
LINE
8
BLACK
6
CONTINUOUS
10
6.9222438582677164
20
-3.2140374803149605
11
6.9089866141732283
21
-3.2170633858267714
0
LINE
8
BLACK
6
CONTINUOUS
10
6.9089866141732283
20
-3.2170633858267714
11
6.8954739370078739
21
-3.2185859055118109
0
LINE
8
BLACK
6
CONTINUOUS
10
6.8954739370078739
20
-3.2185859055118109
11
6.8818757480314963
21
-3.2185859055118109
0
LINE
8
BLACK
6
CONTINUOUS
10
6.8818757480314963
20
-3.2185859055118109
11
6.8683630708661418
21
-3.2170633858267714
0
LINE
8
BLACK
6
CONTINUOUS
10
6.8683630708661418
20
-3.2170633858267714
11
6.8551058267716538
21
-3.2140374803149605
0
LINE
8
BLACK
6
CONTINUOUS
10
6.8551058267716538
20
-3.2140374803149605
11
6.8422707086614167
21
-3.2095462992125983
0
LINE
8
BLACK
6
CONTINUOUS
10
6.8422707086614167
20
-3.2095462992125983
11
6.8300191732283464
21
-3.2036462598425195
0
LINE
8
BLACK
6
CONTINUOUS
10
6.8300191732283464
20
-3.2036462598425195
11
6.8185052362204726
21
-3.1964115748031494
0
LINE
8
BLACK
6
CONTINUOUS
10
6.8185052362204726
20
-3.1964115748031494
11
6.8078737795275588
21
-3.1879332677165353
0
LINE
8
BLACK
6
CONTINUOUS
10
6.8078737795275588
20
-3.1879332677165353
11
6.7982583858267711
21
-3.1783178740157481
0
LINE
8
BLACK
6
CONTINUOUS
10
6.7982583858267711
20
-3.1783178740157481
11
6.789780078740157
21
-3.1676864173228347
0
LINE
8
BLACK
6
CONTINUOUS
10
6.789780078740157
20
-3.1676864173228347
11
6.7825453937007874
21
-3.1561724803149604
0
LINE
8
BLACK
6
CONTINUOUS
10
6.7825453937007874
20
-3.1561724803149604
11
6.7766453543307081
21
-3.1439209448818897
0
LINE
8
BLACK
6
CONTINUOUS
10
6.7766453543307081
20
-3.1439209448818897
11
6.7721541732283459
21
-3.1310858267716535
0
LINE
8
BLACK
6
CONTINUOUS
10
6.7721541732283459
20
-3.1310858267716535
11
6.7691282677165354
21
-3.1178285826771654
0
LINE
8
BLACK
6
CONTINUOUS
10
6.7691282677165354
20
-3.1178285826771654
11
6.7676057480314959
21
-3.104315905511811
0
LINE
8
BLACK
6
CONTINUOUS
10
6.7676057480314959
20
-3.104315905511811
11
6.7676057480314959
21
-3.0907177165354329
0
LINE
8
BLACK
6
CONTINUOUS
10
6.7676057480314959
20
-3.0907177165354329
11
6.7691282677165354
21
-3.0772050393700785
0
LINE
8
BLACK
6
CONTINUOUS
10
6.7691282677165354
20
-3.0772050393700785
11
6.7721541732283459
21
-3.0639477952755905
0
LINE
8
BLACK
6
CONTINUOUS
10
6.7721541732283459
20
-3.0639477952755905
11
6.7766453543307081
21
-3.0511126771653543
0
LINE
8
BLACK
6
CONTINUOUS
10
6.7766453543307081
20
-3.0511126771653543
11
6.7825453937007874
21
-3.0388611417322835
0
LINE
8
BLACK
6
CONTINUOUS
10
6.7825453937007874
20
-3.0388611417322835
11
6.789780078740157
21
-3.0273472047244092
0
LINE
8
BLACK
6
CONTINUOUS
10
6.789780078740157
20
-3.0273472047244092
11
6.7982583858267711
21
-3.0167157480314959
0
LINE
8
BLACK
6
CONTINUOUS
10
6.7982583858267711
20
-3.0167157480314959
11
6.8078737795275588
21
-3.0071003543307087
0
LINE
8
BLACK
6
CONTINUOUS
10
6.8078737795275588
20
-3.0071003543307087
11
6.8185052362204726
21
-2.9986220472440945
0
LINE
8
BLACK
6
CONTINUOUS
10
6.8185052362204726
20
-2.9986220472440945
11
6.8300191732283464
21
-2.9913873622047245
0
LINE
8
BLACK
6
CONTINUOUS
10
6.8300191732283464
20
-2.9913873622047245
11
6.8422707086614167
21
-2.9854873228346457
0
LINE
8
BLACK
6
CONTINUOUS
10
6.8422707086614167
20
-2.9854873228346457
11
6.8551058267716538
21
-2.9809961417322834
0
LINE
8
BLACK
6
CONTINUOUS
10
6.8551058267716538
20
-2.9809961417322834
11
6.8683630708661418
21
-2.9779702362204725
0
LINE
8
BLACK
6
CONTINUOUS
10
6.8683630708661418
20
-2.9779702362204725
11
6.8818757480314963
21
-2.9764477165354331
0
LINE
8
BLACK
6
CONTINUOUS
10
6.8818757480314963
20
-2.9764477165354331
11
6.8954739370078739
21
-2.9764477165354331
0
LINE
8
BLACK
6
CONTINUOUS
10
6.8954739370078739
20
-2.9764477165354331
11
6.9089866141732283
21
-2.9779702362204725
0
LINE
8
BLACK
6
CONTINUOUS
10
5.4698801574803149
20
-3.0046069685039369
11
5.4709019685039371
21
-3.00528968503937
0
LINE
8
BLACK
6
CONTINUOUS
10
5.4709019685039371
20
-3.00528968503937
11
5.4715846850393701
21
-3.0063114960629922
0
LINE
8
BLACK
6
CONTINUOUS
10
5.4715846850393701
20
-3.0063114960629922
11
5.4718244488188974
21
-3.0075168110236219
0
LINE
8
BLACK
6
CONTINUOUS
10
5.4718244488188974
20
-3.0075168110236219
11
5.4718244488188974
21
-3.2075168110236221
0
LINE
8
BLACK
6
CONTINUOUS
10
5.4718244488188974
20
-3.2075168110236221
11
5.4715846850393701
21
-3.2087221259842518
0
LINE
8
BLACK
6
CONTINUOUS
10
5.4715846850393701
20
-3.2087221259842518
11
5.4709019685039371
21
-3.209743937007874
0
LINE
8
BLACK
6
CONTINUOUS
10
5.4709019685039371
20
-3.209743937007874
11
5.4698801574803149
21
-3.210426653543307
0
LINE
8
BLACK
6
CONTINUOUS
10
5.4698801574803149
20
-3.210426653543307
11
5.4686748425196852
21
-3.2106664173228348
0
LINE
8
BLACK
6
CONTINUOUS
10
5.4686748425196852
20
-3.2106664173228348
11
5.3985961023622044
21
-3.2106664173228348
0
LINE
8
BLACK
6
CONTINUOUS
10
5.3985961023622044
20
-3.2106664173228348
11
5.3973907874015747
21
-3.210426653543307
0
LINE
8
BLACK
6
CONTINUOUS
10
5.3973907874015747
20
-3.210426653543307
11
5.3963689763779525
21
-3.209743937007874
0
LINE
8
BLACK
6
CONTINUOUS
10
5.3963689763779525
20
-3.209743937007874
11
5.3956862598425195
21
-3.2087221259842518
0
LINE
8
BLACK
6
CONTINUOUS
10
5.3956862598425195
20
-3.2087221259842518
11
5.3954464960629922
21
-3.2075168110236221
0
LINE
8
BLACK
6
CONTINUOUS
10
5.3954464960629922
20
-3.2075168110236221
11
5.3954464960629922
21
-3.0075168110236219
0
LINE
8
BLACK
6
CONTINUOUS
10
5.3954464960629922
20
-3.0075168110236219
11
5.3956862598425195
21
-3.0063114960629922
0
LINE
8
BLACK
6
CONTINUOUS
10
5.3956862598425195
20
-3.0063114960629922
11
5.3963689763779525
21
-3.00528968503937
0
LINE
8
BLACK
6
CONTINUOUS
10
5.3963689763779525
20
-3.00528968503937
11
5.3973907874015747
21
-3.0046069685039369
0
LINE
8
BLACK
6
CONTINUOUS
10
5.3973907874015747
20
-3.0046069685039369
11
5.3985961023622044
21
-3.0043672047244092
0
LINE
8
BLACK
6
CONTINUOUS
10
5.3985961023622044
20
-3.0043672047244092
11
5.4686748425196852
21
-3.0043672047244092
0
LINE
8
BLACK
6
CONTINUOUS
10
5.4686748425196852
20
-3.0043672047244092
11
5.4698801574803149
21
-3.0046069685039369
0
LINE
8
BLACK
6
CONTINUOUS
10
5.8399588976377954
20
-3.0046069685039369
11
5.8409807086614176
21
-3.00528968503937
0
LINE
8
BLACK
6
CONTINUOUS
10
5.8409807086614176
20
-3.00528968503937
11
5.8416634251968507
21
-3.0063114960629922
0
LINE
8
BLACK
6
CONTINUOUS
10
5.8416634251968507
20
-3.0063114960629922
11
5.8419031889763779
21
-3.0075168110236219
0
LINE
8
BLACK
6
CONTINUOUS
10
5.8419031889763779
20
-3.0075168110236219
11
5.8419031889763779
21
-3.2075168110236221
0
LINE
8
BLACK
6
CONTINUOUS
10
5.8419031889763779
20
-3.2075168110236221
11
5.8416634251968507
21
-3.2087221259842518
0
LINE
8
BLACK
6
CONTINUOUS
10
5.8416634251968507
20
-3.2087221259842518
11
5.8409807086614176
21
-3.209743937007874
0
LINE
8
BLACK
6
CONTINUOUS
10
5.8409807086614176
20
-3.209743937007874
11
5.8399588976377954
21
-3.210426653543307
0
LINE
8
BLACK
6
CONTINUOUS
10
5.8399588976377954
20
-3.210426653543307
11
5.8387535826771648
21
-3.2106664173228348
0
LINE
8
BLACK
6
CONTINUOUS
10
5.8387535826771648
20
-3.2106664173228348
11
5.768674842519685
21
-3.2106664173228348
0
LINE
8
BLACK
6
CONTINUOUS
10
5.768674842519685
20
-3.2106664173228348
11
5.7674695275590553
21
-3.210426653543307
0
LINE
8
BLACK
6
CONTINUOUS
10
5.7674695275590553
20
-3.210426653543307
11
5.7664477165354331
21
-3.209743937007874
0
LINE
8
BLACK
6
CONTINUOUS
10
5.7664477165354331
20
-3.209743937007874
11
5.765765
21
-3.2087221259842518
0
LINE
8
BLACK
6
CONTINUOUS
10
5.765765
20
-3.2087221259842518
11
5.7655252362204727
21
-3.2075168110236221
0
LINE
8
BLACK
6
CONTINUOUS
10
5.7655252362204727
20
-3.2075168110236221
11
5.7655252362204727
21
-3.0075168110236219
0
LINE
8
BLACK
6
CONTINUOUS
10
5.7655252362204727
20
-3.0075168110236219
11
5.765765
21
-3.0063114960629922
0
LINE
8
BLACK
6
CONTINUOUS
10
5.765765
20
-3.0063114960629922
11
5.7664477165354331
21
-3.00528968503937
0
LINE
8
BLACK
6
CONTINUOUS
10
5.7664477165354331
20
-3.00528968503937
11
5.7674695275590553
21
-3.0046069685039369
0
LINE
8
BLACK
6
CONTINUOUS
10
5.7674695275590553
20
-3.0046069685039369
11
5.768674842519685
21
-3.0043672047244092
0
LINE
8
BLACK
6
CONTINUOUS
10
5.768674842519685
20
-3.0043672047244092
11
5.8387535826771648
21
-3.0043672047244092
0
LINE
8
BLACK
6
CONTINUOUS
10
5.8387535826771648
20
-3.0043672047244092
11
5.8399588976377954
21
-3.0046069685039369
0
LINE
8
BLACK
6
CONTINUOUS
10
5.6978329133858265
20
-3.0266542125984253
11
5.6988547244094487
21
-3.0273369291338583
0
LINE
8
BLACK
6
CONTINUOUS
10
5.6988547244094487
20
-3.0273369291338583
11
5.6995374409448818
21
-3.0283587401574801
0
LINE
8
BLACK
6
CONTINUOUS
10
5.6995374409448818
20
-3.0283587401574801
11
5.6997772047244091
21
-3.0295640551181102
0
LINE
8
BLACK
6
CONTINUOUS
10
5.6997772047244091
20
-3.0295640551181102
11
5.6997772047244091
21
-3.1854695669291337
0
LINE
8
BLACK
6
CONTINUOUS
10
5.6997772047244091
20
-3.1854695669291337
11
5.6995374409448818
21
-3.1866748818897639
0
LINE
8
BLACK
6
CONTINUOUS
10
5.6995374409448818
20
-3.1866748818897639
11
5.6988547244094487
21
-3.1876966929133856
0
LINE
8
BLACK
6
CONTINUOUS
10
5.6988547244094487
20
-3.1876966929133856
11
5.6978329133858265
21
-3.1883794094488187
0
LINE
8
BLACK
6
CONTINUOUS
10
5.6978329133858265
20
-3.1883794094488187
11
5.6966275984251968
21
-3.1886191732283464
0
LINE
8
BLACK
6
CONTINUOUS
10
5.6966275984251968
20
-3.1886191732283464
11
5.5407220866141733
21
-3.1886191732283464
0
LINE
8
BLACK
6
CONTINUOUS
10
5.5407220866141733
20
-3.1886191732283464
11
5.5395167716535436
21
-3.1883794094488187
0
LINE
8
BLACK
6
CONTINUOUS
10
5.5395167716535436
20
-3.1883794094488187
11
5.5384949606299214
21
-3.1876966929133856
0
LINE
8
BLACK
6
CONTINUOUS
10
5.5384949606299214
20
-3.1876966929133856
11
5.5378122440944884
21
-3.1866748818897639
0
LINE
8
BLACK
6
CONTINUOUS
10
5.5378122440944884
20
-3.1866748818897639
11
5.5375724803149602
21
-3.1854695669291337
0
LINE
8
BLACK
6
CONTINUOUS
10
5.5375724803149602
20
-3.1854695669291337
11
5.5375724803149602
21
-3.0295640551181102
0
LINE
8
BLACK
6
CONTINUOUS
10
5.5375724803149602
20
-3.0295640551181102
11
5.5378122440944884
21
-3.0283587401574801
0
LINE
8
BLACK
6
CONTINUOUS
10
5.5378122440944884
20
-3.0283587401574801
11
5.5384949606299214
21
-3.0273369291338583
0
LINE
8
BLACK
6
CONTINUOUS
10
5.5384949606299214
20
-3.0273369291338583
11
5.5395167716535436
21
-3.0266542125984253
0
LINE
8
BLACK
6
CONTINUOUS
10
5.5395167716535436
20
-3.0266542125984253
11
5.5407220866141733
21
-3.0264144488188975
0
LINE
8
BLACK
6
CONTINUOUS
10
5.5407220866141733
20
-3.0264144488188975
11
5.6966275984251968
21
-3.0264144488188975
0
LINE
8
BLACK
6
CONTINUOUS
10
5.6966275984251968
20
-3.0264144488188975
11
5.6978329133858265
21
-3.0266542125984253
0
LINE
8
BLACK
6
CONTINUOUS
10
6.6431791732283463
20
-3.1253216929133858
11
6.6472685433070868
21
-3.1272286220472441
0
LINE
8
BLACK
6
CONTINUOUS
10
6.6472685433070868
20
-3.1272286220472441
11
6.6504590944881885
21
-3.1304191732283462
0
LINE
8
BLACK
6
CONTINUOUS
10
6.6504590944881885
20
-3.1304191732283462
11
6.6523660236220472
21
-3.1345085433070867
0
LINE
8
BLACK
6
CONTINUOUS
10
6.6523660236220472
20
-3.1345085433070867
11
6.6528087007874017
21
-3.1378711417322833
0
LINE
8
BLACK
6
CONTINUOUS
10
6.6528087007874017
20
-3.1378711417322833
11
6.6528087007874017
21
-3.1673987007874014
0
LINE
8
BLACK
6
CONTINUOUS
10
6.6528087007874017
20
-3.1673987007874014
11
6.6523660236220472
21
-3.1707612992125984
0
LINE
8
BLACK
6
CONTINUOUS
10
6.6523660236220472
20
-3.1707612992125984
11
6.6504590944881885
21
-3.1748506692913385
0
LINE
8
BLACK
6
CONTINUOUS
10
6.6504590944881885
20
-3.1748506692913385
11
6.6472685433070868
21
-3.1780412204724411
0
LINE
8
BLACK
6
CONTINUOUS
10
6.6472685433070868
20
-3.1780412204724411
11
6.6431791732283463
21
-3.1799481496062993
0
LINE
8
BLACK
6
CONTINUOUS
10
6.6431791732283463
20
-3.1799481496062993
11
6.6398165748031497
21
-3.1803908267716534
0
LINE
8
BLACK
6
CONTINUOUS
10
6.6398165748031497
20
-3.1803908267716534
11
6.5906039763779525
21
-3.1803908267716534
0
LINE
8
BLACK
6
CONTINUOUS
10
6.5906039763779525
20
-3.1803908267716534
11
6.5872413779527559
21
-3.1799481496062993
0
LINE
8
BLACK
6
CONTINUOUS
10
6.5872413779527559
20
-3.1799481496062993
11
6.5831520078740153
21
-3.1780412204724411
0
LINE
8
BLACK
6
CONTINUOUS
10
6.5831520078740153
20
-3.1780412204724411
11
6.5799614566929137
21
-3.1748506692913385
0
LINE
8
BLACK
6
CONTINUOUS
10
6.5799614566929137
20
-3.1748506692913385
11
6.578054527559055
21
-3.1707612992125984
0
LINE
8
BLACK
6
CONTINUOUS
10
6.578054527559055
20
-3.1707612992125984
11
6.5776118503937004
21
-3.1673987007874014
0
LINE
8
BLACK
6
CONTINUOUS
10
6.5776118503937004
20
-3.1673987007874014
11
6.5776118503937004
21
-3.1378711417322833
0
LINE
8
BLACK
6
CONTINUOUS
10
6.5776118503937004
20
-3.1378711417322833
11
6.578054527559055
21
-3.1345085433070867
0
LINE
8
BLACK
6
CONTINUOUS
10
6.578054527559055
20
-3.1345085433070867
11
6.5799614566929137
21
-3.1304191732283462
0
LINE
8
BLACK
6
CONTINUOUS
10
6.5799614566929137
20
-3.1304191732283462
11
6.5831520078740153
21
-3.1272286220472441
0
LINE
8
BLACK
6
CONTINUOUS
10
6.5831520078740153
20
-3.1272286220472441
11
6.5872413779527559
21
-3.1253216929133858
0
LINE
8
BLACK
6
CONTINUOUS
10
6.5872413779527559
20
-3.1253216929133858
11
6.5906039763779525
21
-3.1248790157480313
0
LINE
8
BLACK
6
CONTINUOUS
10
6.5906039763779525
20
-3.1248790157480313
11
6.6398165748031497
21
-3.1248790157480313
0
LINE
8
BLACK
6
CONTINUOUS
10
6.6398165748031497
20
-3.1248790157480313
11
6.6431791732283463
21
-3.1253216929133858
0
LINE
8
BLACK
6
CONTINUOUS
10
7.1701033858267715
20
-3.0438420078740158
11
7.1772337795275591
21
-3.0467955118110237
0
LINE
8
BLACK
6
CONTINUOUS
10
7.1772337795275591
20
-3.0467955118110237
11
7.1836509448818893
21
-3.0510833464566929
0
LINE
8
BLACK
6
CONTINUOUS
10
7.1836509448818893
20
-3.0510833464566929
11
7.189108307086614
21
-3.0565407086614171
0
LINE
8
BLACK
6
CONTINUOUS
10
7.189108307086614
20
-3.0565407086614171
11
7.1933961417322836
21
-3.0629578740157481
0
LINE
8
BLACK
6
CONTINUOUS
10
7.1933961417322836
20
-3.0629578740157481
11
7.196349645669291
21
-3.0700882677165353
0
LINE
8
BLACK
6
CONTINUOUS
10
7.196349645669291
20
-3.0700882677165353
11
7.1978553543307084
21
-3.0776578740157481
0
LINE
8
BLACK
6
CONTINUOUS
10
7.1978553543307084
20
-3.0776578740157481
11
7.1978553543307084
21
-3.0853757480314958
0
LINE
8
BLACK
6
CONTINUOUS
10
7.1978553543307084
20
-3.0853757480314958
11
7.196349645669291
21
-3.0929453543307086
0
LINE
8
BLACK
6
CONTINUOUS
10
7.196349645669291
20
-3.0929453543307086
11
7.1933961417322836
21
-3.1000757480314962
0
LINE
8
BLACK
6
CONTINUOUS
10
7.1933961417322836
20
-3.1000757480314962
11
7.189108307086614
21
-3.1064929133858268
0
LINE
8
BLACK
6
CONTINUOUS
10
7.189108307086614
20
-3.1064929133858268
11
7.1836509448818893
21
-3.111950275590551
0
LINE
8
BLACK
6
CONTINUOUS
10
7.1836509448818893
20
-3.111950275590551
11
7.1772337795275591
21
-3.1162381102362202
0
LINE
8
BLACK
6
CONTINUOUS
10
7.1772337795275591
20
-3.1162381102362202
11
7.1701033858267715
21
-3.1191916141732281
0
LINE
8
BLACK
6
CONTINUOUS
10
7.1701033858267715
20
-3.1191916141732281
11
7.1625337795275588
21
-3.1206973228346455
0
LINE
8
BLACK
6
CONTINUOUS
10
7.1625337795275588
20
-3.1206973228346455
11
7.1548159055118106
21
-3.1206973228346455
0
LINE
8
BLACK
6
CONTINUOUS
10
7.1548159055118106
20
-3.1206973228346455
11
7.1472462992125987
21
-3.1191916141732281
0
LINE
8
BLACK
6
CONTINUOUS
10
7.1472462992125987
20
-3.1191916141732281
11
7.1401159055118111
21
-3.1162381102362202
0
LINE
8
BLACK
6
CONTINUOUS
10
7.1401159055118111
20
-3.1162381102362202
11
7.1336987401574801
21
-3.111950275590551
0
LINE
8
BLACK
6
CONTINUOUS
10
7.1336987401574801
20
-3.111950275590551
11
7.1282413779527554
21
-3.1064929133858268
0
LINE
8
BLACK
6
CONTINUOUS
10
7.1282413779527554
20
-3.1064929133858268
11
7.1239535433070866
21
-3.1000757480314962
0
LINE
8
BLACK
6
CONTINUOUS
10
7.1239535433070866
20
-3.1000757480314962
11
7.1210000393700783
21
-3.0929453543307086
0
LINE
8
BLACK
6
CONTINUOUS
10
7.1210000393700783
20
-3.0929453543307086
11
7.1194943307086609
21
-3.0853757480314958
0
LINE
8
BLACK
6
CONTINUOUS
10
7.1194943307086609
20
-3.0853757480314958
11
7.1194943307086609
21
-3.0776578740157481
0
LINE
8
BLACK
6
CONTINUOUS
10
7.1194943307086609
20
-3.0776578740157481
11
7.1210000393700783
21
-3.0700882677165353
0
LINE
8
BLACK
6
CONTINUOUS
10
7.1210000393700783
20
-3.0700882677165353
11
7.1239535433070866
21
-3.0629578740157481
0
LINE
8
BLACK
6
CONTINUOUS
10
7.1239535433070866
20
-3.0629578740157481
11
7.1282413779527554
21
-3.0565407086614171
0
LINE
8
BLACK
6
CONTINUOUS
10
7.1282413779527554
20
-3.0565407086614171
11
7.1336987401574801
21
-3.0510833464566929
0
LINE
8
BLACK
6
CONTINUOUS
10
7.1336987401574801
20
-3.0510833464566929
11
7.1401159055118111
21
-3.0467955118110237
0
LINE
8
BLACK
6
CONTINUOUS
10
7.1401159055118111
20
-3.0467955118110237
11
7.1472462992125987
21
-3.0438420078740158
0
LINE
8
BLACK
6
CONTINUOUS
10
7.1472462992125987
20
-3.0438420078740158
11
7.1548159055118106
21
-3.0423362992125984
0
LINE
8
BLACK
6
CONTINUOUS
10
7.1548159055118106
20
-3.0423362992125984
11
7.1625337795275588
21
-3.0423362992125984
0
LINE
8
BLACK
6
CONTINUOUS
10
7.1625337795275588
20
-3.0423362992125984
11
7.1701033858267715
21
-3.0438420078740158
0
LINE
8
BLACK
6
CONTINUOUS
10
6.1347038188976377
20
-3.0382467322834645
11
6.1406220472440944
21
-3.0406981102362205
0
LINE
8
BLACK
6
CONTINUOUS
10
6.1406220472440944
20
-3.0406981102362205
11
6.1459483070866137
21
-3.0442570078740157
0
LINE
8
BLACK
6
CONTINUOUS
10
6.1459483070866137
20
-3.0442570078740157
11
6.1504779527559057
21
-3.0487866535433068
0
LINE
8
BLACK
6
CONTINUOUS
10
6.1504779527559057
20
-3.0487866535433068
11
6.1540368503937009
21
-3.0541129133858269
0
LINE
8
BLACK
6
CONTINUOUS
10
6.1540368503937009
20
-3.0541129133858269
11
6.1564882283464568
21
-3.0600311417322832
0
LINE
8
BLACK
6
CONTINUOUS
10
6.1564882283464568
20
-3.0600311417322832
11
6.1577379527559053
21
-3.0663138976377953
0
LINE
8
BLACK
6
CONTINUOUS
10
6.1577379527559053
20
-3.0663138976377953
11
6.1577379527559053
21
-3.0727197244094486
0
LINE
8
BLACK
6
CONTINUOUS
10
6.1577379527559053
20
-3.0727197244094486
11
6.1564882283464568
21
-3.0790024803149607
0
LINE
8
BLACK
6
CONTINUOUS
10
6.1564882283464568
20
-3.0790024803149607
11
6.1540368503937009
21
-3.0849207086614174
0
LINE
8
BLACK
6
CONTINUOUS
10
6.1540368503937009
20
-3.0849207086614174
11
6.1504779527559057
21
-3.0902469685039371
0
LINE
8
BLACK
6
CONTINUOUS
10
6.1504779527559057
20
-3.0902469685039371
11
6.1459483070866137
21
-3.0947766141732282
0
LINE
8
BLACK
6
CONTINUOUS
10
6.1459483070866137
20
-3.0947766141732282
11
6.1406220472440944
21
-3.0983355118110234
0
LINE
8
BLACK
6
CONTINUOUS
10
6.1406220472440944
20
-3.0983355118110234
11
6.1347038188976377
21
-3.1007868897637794
0
LINE
8
BLACK
6
CONTINUOUS
10
6.1347038188976377
20
-3.1007868897637794
11
6.1284210629921256
21
-3.1020366141732283
0
LINE
8
BLACK
6
CONTINUOUS
10
6.1284210629921256
20
-3.1020366141732283
11
6.1220152362204727
21
-3.1020366141732283
0
LINE
8
BLACK
6
CONTINUOUS
10
6.1220152362204727
20
-3.1020366141732283
11
6.1157324803149606
21
-3.1007868897637794
0
LINE
8
BLACK
6
CONTINUOUS
10
6.1157324803149606
20
-3.1007868897637794
11
6.1098142519685039
21
-3.0983355118110234
0
LINE
8
BLACK
6
CONTINUOUS
10
6.1098142519685039
20
-3.0983355118110234
11
6.1044879921259838
21
-3.0947766141732282
0
LINE
8
BLACK
6
CONTINUOUS
10
6.1044879921259838
20
-3.0947766141732282
11
6.0999583464566927
21
-3.0902469685039371
0
LINE
8
BLACK
6
CONTINUOUS
10
6.0999583464566927
20
-3.0902469685039371
11
6.0963994488188975
21
-3.0849207086614174
0
LINE
8
BLACK
6
CONTINUOUS
10
6.0963994488188975
20
-3.0849207086614174
11
6.0939480708661415
21
-3.0790024803149607
0
LINE
8
BLACK
6
CONTINUOUS
10
6.0939480708661415
20
-3.0790024803149607
11
6.0926983464566931
21
-3.0727197244094486
0
LINE
8
BLACK
6
CONTINUOUS
10
6.0926983464566931
20
-3.0727197244094486
11
6.0926983464566931
21
-3.0663138976377953
0
LINE
8
BLACK
6
CONTINUOUS
10
6.0926983464566931
20
-3.0663138976377953
11
6.0939480708661415
21
-3.0600311417322832
0
LINE
8
BLACK
6
CONTINUOUS
10
6.0939480708661415
20
-3.0600311417322832
11
6.0963994488188975
21
-3.0541129133858269
0
LINE
8
BLACK
6
CONTINUOUS
10
6.0963994488188975
20
-3.0541129133858269
11
6.0999583464566927
21
-3.0487866535433068
0
LINE
8
BLACK
6
CONTINUOUS
10
6.0999583464566927
20
-3.0487866535433068
11
6.1044879921259838
21
-3.0442570078740157
0
LINE
8
BLACK
6
CONTINUOUS
10
6.1044879921259838
20
-3.0442570078740157
11
6.1098142519685039
21
-3.0406981102362205
0
LINE
8
BLACK
6
CONTINUOUS
10
6.1098142519685039
20
-3.0406981102362205
11
6.1157324803149606
21
-3.0382467322834645
0
LINE
8
BLACK
6
CONTINUOUS
10
6.1157324803149606
20
-3.0382467322834645
11
6.1220152362204727
21
-3.0369970078740156
0
LINE
8
BLACK
6
CONTINUOUS
10
6.1220152362204727
20
-3.0369970078740156
11
6.1284210629921256
21
-3.0369970078740156
0
LINE
8
BLACK
6
CONTINUOUS
10
6.1284210629921256
20
-3.0369970078740156
11
6.1347038188976377
21
-3.0382467322834645
0
LINE
8
BLACK
6
CONTINUOUS
10
6.3268298031496064
20
-3.0382467322834645
11
6.3327480314960631
21
-3.0406981102362205
0
LINE
8
BLACK
6
CONTINUOUS
10
6.3327480314960631
20
-3.0406981102362205
11
6.3380742913385824
21
-3.0442570078740157
0
LINE
8
BLACK
6
CONTINUOUS
10
6.3380742913385824
20
-3.0442570078740157
11
6.3426039370078735
21
-3.0487866535433068
0
LINE
8
BLACK
6
CONTINUOUS
10
6.3426039370078735
20
-3.0487866535433068
11
6.3461628346456695
21
-3.0541129133858269
0
LINE
8
BLACK
6
CONTINUOUS
10
6.3461628346456695
20
-3.0541129133858269
11
6.3486142125984246
21
-3.0600311417322832
0
LINE
8
BLACK
6
CONTINUOUS
10
6.3486142125984246
20
-3.0600311417322832
11
6.349863937007874
21
-3.0663138976377953
0
LINE
8
BLACK
6
CONTINUOUS
10
6.349863937007874
20
-3.0663138976377953
11
6.349863937007874
21
-3.0727197244094486
0
LINE
8
BLACK
6
CONTINUOUS
10
6.349863937007874
20
-3.0727197244094486
11
6.3486142125984246
21
-3.0790024803149607
0
LINE
8
BLACK
6
CONTINUOUS
10
6.3486142125984246
20
-3.0790024803149607
11
6.3461628346456695
21
-3.0849207086614174
0
LINE
8
BLACK
6
CONTINUOUS
10
6.3461628346456695
20
-3.0849207086614174
11
6.3426039370078735
21
-3.0902469685039371
0
LINE
8
BLACK
6
CONTINUOUS
10
6.3426039370078735
20
-3.0902469685039371
11
6.3380742913385824
21
-3.0947766141732282
0
LINE
8
BLACK
6
CONTINUOUS
10
6.3380742913385824
20
-3.0947766141732282
11
6.3327480314960631
21
-3.0983355118110234
0
LINE
8
BLACK
6
CONTINUOUS
10
6.3327480314960631
20
-3.0983355118110234
11
6.3268298031496064
21
-3.1007868897637794
0
LINE
8
BLACK
6
CONTINUOUS
10
6.3268298031496064
20
-3.1007868897637794
11
6.3205470472440943
21
-3.1020366141732283
0
LINE
8
BLACK
6
CONTINUOUS
10
6.3205470472440943
20
-3.1020366141732283
11
6.3141412204724405
21
-3.1020366141732283
0
LINE
8
BLACK
6
CONTINUOUS
10
6.3141412204724405
20
-3.1020366141732283
11
6.3078584645669293
21
-3.1007868897637794
0
LINE
8
BLACK
6
CONTINUOUS
10
6.3078584645669293
20
-3.1007868897637794
11
6.3019402362204726
21
-3.0983355118110234
0
LINE
8
BLACK
6
CONTINUOUS
10
6.3019402362204726
20
-3.0983355118110234
11
6.2966139763779525
21
-3.0947766141732282
0
LINE
8
BLACK
6
CONTINUOUS
10
6.2966139763779525
20
-3.0947766141732282
11
6.2920843307086614
21
-3.0902469685039371
0
LINE
8
BLACK
6
CONTINUOUS
10
6.2920843307086614
20
-3.0902469685039371
11
6.2885254330708662
21
-3.0849207086614174
0
LINE
8
BLACK
6
CONTINUOUS
10
6.2885254330708662
20
-3.0849207086614174
11
6.2860740551181102
21
-3.0790024803149607
0
LINE
8
BLACK
6
CONTINUOUS
10
6.2860740551181102
20
-3.0790024803149607
11
6.2848243307086609
21
-3.0727197244094486
0
LINE
8
BLACK
6
CONTINUOUS
10
6.2848243307086609
20
-3.0727197244094486
11
6.2848243307086609
21
-3.0663138976377953
0
LINE
8
BLACK
6
CONTINUOUS
10
6.2848243307086609
20
-3.0663138976377953
11
6.2860740551181102
21
-3.0600311417322832
0
LINE
8
BLACK
6
CONTINUOUS
10
6.2860740551181102
20
-3.0600311417322832
11
6.2885254330708662
21
-3.0541129133858269
0
LINE
8
BLACK
6
CONTINUOUS
10
6.2885254330708662
20
-3.0541129133858269
11
6.2920843307086614
21
-3.0487866535433068
0
LINE
8
BLACK
6
CONTINUOUS
10
6.2920843307086614
20
-3.0487866535433068
11
6.2966139763779525
21
-3.0442570078740157
0
LINE
8
BLACK
6
CONTINUOUS
10
6.2966139763779525
20
-3.0442570078740157
11
6.3019402362204726
21
-3.0406981102362205
0
LINE
8
BLACK
6
CONTINUOUS
10
6.3019402362204726
20
-3.0406981102362205
11
6.3078584645669293
21
-3.0382467322834645
0
LINE
8
BLACK
6
CONTINUOUS
10
6.3078584645669293
20
-3.0382467322834645
11
6.3141412204724405
21
-3.0369970078740156
0
LINE
8
BLACK
6
CONTINUOUS
10
6.3141412204724405
20
-3.0369970078740156
11
6.3205470472440943
21
-3.0369970078740156
0
LINE
8
BLACK
6
CONTINUOUS
10
6.3205470472440943
20
-3.0369970078740156
11
6.3268298031496064
21
-3.0382467322834645
0
LINE
8
BLACK
6
CONTINUOUS
10
6.6431791732283463
20
-3.0150854724409446
11
6.6472685433070868
21
-3.0169924015748029
0
LINE
8
BLACK
6
CONTINUOUS
10
6.6472685433070868
20
-3.0169924015748029
11
6.6504590944881885
21
-3.0201829527559054
0
LINE
8
BLACK
6
CONTINUOUS
10
6.6504590944881885
20
-3.0201829527559054
11
6.6523660236220472
21
-3.0242723228346455
0
LINE
8
BLACK
6
CONTINUOUS
10
6.6523660236220472
20
-3.0242723228346455
11
6.6528087007874017
21
-3.0276349212598426
0
LINE
8
BLACK
6
CONTINUOUS
10
6.6528087007874017
20
-3.0276349212598426
11
6.6528087007874017
21
-3.0571624803149606
0
LINE
8
BLACK
6
CONTINUOUS
10
6.6528087007874017
20
-3.0571624803149606
11
6.6523660236220472
21
-3.0605250787401572
0
LINE
8
BLACK
6
CONTINUOUS
10
6.6523660236220472
20
-3.0605250787401572
11
6.6504590944881885
21
-3.0646144488188978
0
LINE
8
BLACK
6
CONTINUOUS
10
6.6504590944881885
20
-3.0646144488188978
11
6.6472685433070868
21
-3.0678049999999999
0
LINE
8
BLACK
6
CONTINUOUS
10
6.6472685433070868
20
-3.0678049999999999
11
6.6431791732283463
21
-3.0697119291338582
0
LINE
8
BLACK
6
CONTINUOUS
10
6.6431791732283463
20
-3.0697119291338582
11
6.6398165748031497
21
-3.0701546062992127
0
LINE
8
BLACK
6
CONTINUOUS
10
6.6398165748031497
20
-3.0701546062992127
11
6.5906039763779525
21
-3.0701546062992127
0
LINE
8
BLACK
6
CONTINUOUS
10
6.5906039763779525
20
-3.0701546062992127
11
6.5872413779527559
21
-3.0697119291338582
0
LINE
8
BLACK
6
CONTINUOUS
10
6.5872413779527559
20
-3.0697119291338582
11
6.5831520078740153
21
-3.0678049999999999
0
LINE
8
BLACK
6
CONTINUOUS
10
6.5831520078740153
20
-3.0678049999999999
11
6.5799614566929137
21
-3.0646144488188978
0
LINE
8
BLACK
6
CONTINUOUS
10
6.5799614566929137
20
-3.0646144488188978
11
6.578054527559055
21
-3.0605250787401572
0
LINE
8
BLACK
6
CONTINUOUS
10
6.578054527559055
20
-3.0605250787401572
11
6.5776118503937004
21
-3.0571624803149606
0
LINE
8
BLACK
6
CONTINUOUS
10
6.5776118503937004
20
-3.0571624803149606
11
6.5776118503937004
21
-3.0276349212598426
0
LINE
8
BLACK
6
CONTINUOUS
10
6.5776118503937004
20
-3.0276349212598426
11
6.578054527559055
21
-3.0242723228346455
0
LINE
8
BLACK
6
CONTINUOUS
10
6.578054527559055
20
-3.0242723228346455
11
6.5799614566929137
21
-3.0201829527559054
0
LINE
8
BLACK
6
CONTINUOUS
10
6.5799614566929137
20
-3.0201829527559054
11
6.5831520078740153
21
-3.0169924015748029
0
LINE
8
BLACK
6
CONTINUOUS
10
6.5831520078740153
20
-3.0169924015748029
11
6.5872413779527559
21
-3.0150854724409446
0
LINE
8
BLACK
6
CONTINUOUS
10
6.5872413779527559
20
-3.0150854724409446
11
6.5906039763779525
21
-3.0146427952755905
0
LINE
8
BLACK
6
CONTINUOUS
10
6.5906039763779525
20
-3.0146427952755905
11
6.6398165748031497
21
-3.0146427952755905
0
LINE
8
BLACK
6
CONTINUOUS
10
6.6398165748031497
20
-3.0146427952755905
11
6.6431791732283463
21
-3.0150854724409446
0
LINE
8
BLACK
6
CONTINUOUS
10
5.0021033858267714
20
-2.9878420078740158
11
5.009233779527559
21
-2.9907955118110237
0
LINE
8
BLACK
6
CONTINUOUS
10
5.009233779527559
20
-2.9907955118110237
11
5.01565094488189
21
-2.9950833464566928
0
LINE
8
BLACK
6
CONTINUOUS
10
5.01565094488189
20
-2.9950833464566928
11
5.0211083070866138
21
-3.0005407086614171
0
LINE
8
BLACK
6
CONTINUOUS
10
5.0211083070866138
20
-3.0005407086614171
11
5.0253961417322834
21
-3.0069578740157481
0
LINE
8
BLACK
6
CONTINUOUS
10
5.0253961417322834
20
-3.0069578740157481
11
5.0283496456692909
21
-3.0140882677165353
0
LINE
8
BLACK
6
CONTINUOUS
10
5.0283496456692909
20
-3.0140882677165353
11
5.0298553543307083
21
-3.021657874015748
0
LINE
8
BLACK
6
CONTINUOUS
10
5.0298553543307083
20
-3.021657874015748
11
5.0298553543307083
21
-3.0293757480314958
0
LINE
8
BLACK
6
CONTINUOUS
10
5.0298553543307083
20
-3.0293757480314958
11
5.0283496456692909
21
-3.0369453543307086
0
LINE
8
BLACK
6
CONTINUOUS
10
5.0283496456692909
20
-3.0369453543307086
11
5.0253961417322834
21
-3.0440757480314962
0
LINE
8
BLACK
6
CONTINUOUS
10
5.0253961417322834
20
-3.0440757480314962
11
5.0211083070866138
21
-3.0504929133858267
0
LINE
8
BLACK
6
CONTINUOUS
10
5.0211083070866138
20
-3.0504929133858267
11
5.01565094488189
21
-3.055950275590551
0
LINE
8
BLACK
6
CONTINUOUS
10
5.01565094488189
20
-3.055950275590551
11
5.009233779527559
21
-3.0602381102362206
0
LINE
8
BLACK
6
CONTINUOUS
10
5.009233779527559
20
-3.0602381102362206
11
5.0021033858267714
21
-3.0631916141732285
0
LINE
8
BLACK
6
CONTINUOUS
10
5.0021033858267714
20
-3.0631916141732285
11
4.9945337795275586
21
-3.0646973228346455
0
LINE
8
BLACK
6
CONTINUOUS
10
4.9945337795275586
20
-3.0646973228346455
11
4.9868159055118113
21
-3.0646973228346455
0
LINE
8
BLACK
6
CONTINUOUS
10
4.9868159055118113
20
-3.0646973228346455
11
4.9792462992125985
21
-3.0631916141732285
0
LINE
8
BLACK
6
CONTINUOUS
10
4.9792462992125985
20
-3.0631916141732285
11
4.9721159055118109
21
-3.0602381102362206
0
LINE
8
BLACK
6
CONTINUOUS
10
4.9721159055118109
20
-3.0602381102362206
11
4.9656987401574799
21
-3.055950275590551
0
LINE
8
BLACK
6
CONTINUOUS
10
4.9656987401574799
20
-3.055950275590551
11
4.9602413779527561
21
-3.0504929133858267
0
LINE
8
BLACK
6
CONTINUOUS
10
4.9602413779527561
20
-3.0504929133858267
11
4.9559535433070865
21
-3.0440757480314962
0
LINE
8
BLACK
6
CONTINUOUS
10
4.9559535433070865
20
-3.0440757480314962
11
4.953000039370079
21
-3.0369453543307086
0
LINE
8
BLACK
6
CONTINUOUS
10
4.953000039370079
20
-3.0369453543307086
11
4.9514943307086616
21
-3.0293757480314958
0
LINE
8
BLACK
6
CONTINUOUS
10
4.9514943307086616
20
-3.0293757480314958
11
4.9514943307086616
21
-3.021657874015748
0
LINE
8
BLACK
6
CONTINUOUS
10
4.9514943307086616
20
-3.021657874015748
11
4.953000039370079
21
-3.0140882677165353
0
LINE
8
BLACK
6
CONTINUOUS
10
4.953000039370079
20
-3.0140882677165353
11
4.9559535433070865
21
-3.0069578740157481
0
LINE
8
BLACK
6
CONTINUOUS
10
4.9559535433070865
20
-3.0069578740157481
11
4.9602413779527561
21
-3.0005407086614171
0
LINE
8
BLACK
6
CONTINUOUS
10
4.9602413779527561
20
-3.0005407086614171
11
4.9656987401574799
21
-2.9950833464566928
0
LINE
8
BLACK
6
CONTINUOUS
10
4.9656987401574799
20
-2.9950833464566928
11
4.9721159055118109
21
-2.9907955118110237
0
LINE
8
BLACK
6
CONTINUOUS
10
4.9721159055118109
20
-2.9907955118110237
11
4.9792462992125985
21
-2.9878420078740158
0
LINE
8
BLACK
6
CONTINUOUS
10
4.9792462992125985
20
-2.9878420078740158
11
4.9868159055118113
21
-2.9863362992125984
0
LINE
8
BLACK
6
CONTINUOUS
10
4.9868159055118113
20
-2.9863362992125984
11
4.9945337795275586
21
-2.9863362992125984
0
LINE
8
BLACK
6
CONTINUOUS
10
4.9945337795275586
20
-2.9863362992125984
11
5.0021033858267714
21
-2.9878420078740158
0
CIRCLE
8
BLACK
10
6.8886748425196851
20
-3.0975168110236222
40
0.0068897637795276
0
CIRCLE
8
BLACK
10
4.0886748425196853
20
-3.0975168110236222
40
0.0068897637795276
0
CIRCLE
8
BLACK
10
4.0886748425196853
20
-4.6975168110236218
40
0.0068897637795276
0
CIRCLE
8
BLACK
10
4.493399251968504
20
-3.4644459448818896
40
0.0068897637795276
0
CIRCLE
8
BLACK
10
4.296548858267716
20
-3.4644459448818896
40
0.0068897637795276
0
CIRCLE
8
BLACK
10
6.8886748425196851
20
-4.6975168110236218
40
0.0068897637795276
0
CIRCLE
8
BLACK
10
6.1252181496062992
20
-3.0695168110236222
40
0.0068897637795276
0
CIRCLE
8
BLACK
10
6.3173441338582679
20
-3.0695168110236222
40
0.0068897637795276
0
CIRCLE
8
BLACK
10
7.2237929527559057
20
-4.5182845275590546
40
0.0068897637795276
0
CIRCLE
8
BLACK
10
7.2237929527559057
20
-4.745843582677165
40
0.0068897637795276
0
LINE
8
BLACK
6
CONTINUOUS
10
7.3859645275590546
20
-4.4502753543307083
11
7.3889427559055116
21
-4.4510733464566927
0
LINE
8
BLACK
6
CONTINUOUS
10
7.3889427559055116
20
-4.4510733464566927
11
7.3916129527559056
21
-4.4526149999999998
0
LINE
8
BLACK
6
CONTINUOUS
10
7.3916129527559056
20
-4.4526149999999998
11
7.3937931889763782
21
-4.4547952362204724
0
LINE
8
BLACK
6
CONTINUOUS
10
7.3937931889763782
20
-4.4547952362204724
11
7.3953348425196852
21
-4.4574654330708663
0
LINE
8
BLACK
6
CONTINUOUS
10
7.3953348425196852
20
-4.4574654330708663
11
7.3961328346456687
21
-4.4604436614173224
0
LINE
8
BLACK
6
CONTINUOUS
10
7.3961328346456687
20
-4.4604436614173224
11
7.3961328346456687
21
-4.4635269685039365
0
LINE
8
BLACK
6
CONTINUOUS
10
7.3961328346456687
20
-4.4635269685039365
11
7.3953348425196852
21
-4.4665051968503935
0
LINE
8
BLACK
6
CONTINUOUS
10
7.3953348425196852
20
-4.4665051968503935
11
7.3937931889763782
21
-4.4691753937007874
0
LINE
8
BLACK
6
CONTINUOUS
10
7.3937931889763782
20
-4.4691753937007874
11
7.3916129527559056
21
-4.47135562992126
0
LINE
8
BLACK
6
CONTINUOUS
10
7.3916129527559056
20
-4.47135562992126
11
7.3889427559055116
21
-4.4728972834645671
0
LINE
8
BLACK
6
CONTINUOUS
10
7.3889427559055116
20
-4.4728972834645671
11
7.3859645275590546
21
-4.4736952755905515
0
LINE
8
BLACK
6
CONTINUOUS
10
7.3859645275590546
20
-4.4736952755905515
11
7.3844228740157476
21
-4.4737963385826767
0
LINE
8
BLACK
6
CONTINUOUS
10
7.3844228740157476
20
-4.4737963385826767
11
7.3529268110236217
21
-4.4737963385826767
0
LINE
8
BLACK
6
CONTINUOUS
10
7.3529268110236217
20
-4.4737963385826767
11
7.3513851574803146
21
-4.4736952755905515
0
LINE
8
BLACK
6
CONTINUOUS
10
7.3513851574803146
20
-4.4736952755905515
11
7.3484069291338585
21
-4.4728972834645671
0
LINE
8
BLACK
6
CONTINUOUS
10
7.3484069291338585
20
-4.4728972834645671
11
7.3457367322834646
21
-4.47135562992126
0
LINE
8
BLACK
6
CONTINUOUS
10
7.3457367322834646
20
-4.47135562992126
11
7.343556496062992
21
-4.4691753937007874
0
LINE
8
BLACK
6
CONTINUOUS
10
7.343556496062992
20
-4.4691753937007874
11
7.3420148425196849
21
-4.4665051968503935
0
LINE
8
BLACK
6
CONTINUOUS
10
7.3420148425196849
20
-4.4665051968503935
11
7.3412168503937005
21
-4.4635269685039365
0
LINE
8
BLACK
6
CONTINUOUS
10
7.3412168503937005
20
-4.4635269685039365
11
7.3412168503937005
21
-4.4604436614173224
0
LINE
8
BLACK
6
CONTINUOUS
10
7.3412168503937005
20
-4.4604436614173224
11
7.3420148425196849
21
-4.4574654330708663
0
LINE
8
BLACK
6
CONTINUOUS
10
7.3420148425196849
20
-4.4574654330708663
11
7.343556496062992
21
-4.4547952362204724
0
LINE
8
BLACK
6
CONTINUOUS
10
7.343556496062992
20
-4.4547952362204724
11
7.3457367322834646
21
-4.4526149999999998
0
LINE
8
BLACK
6
CONTINUOUS
10
7.3457367322834646
20
-4.4526149999999998
11
7.3484069291338585
21
-4.4510733464566927
0
LINE
8
BLACK
6
CONTINUOUS
10
7.3484069291338585
20
-4.4510733464566927
11
7.3513851574803146
21
-4.4502753543307083
0
LINE
8
BLACK
6
CONTINUOUS
10
7.3513851574803146
20
-4.4502753543307083
11
7.3529268110236217
21
-4.4501742913385822
0
LINE
8
BLACK
6
CONTINUOUS
10
7.3529268110236217
20
-4.4501742913385822
11
7.3844228740157476
21
-4.4501742913385822
0
LINE
8
BLACK
6
CONTINUOUS
10
7.3844228740157476
20
-4.4501742913385822
11
7.3859645275590546
21
-4.4502753543307083
0
LINE
8
BLACK
6
CONTINUOUS
10
7.3859645275590546
20
-4.790432834645669
11
7.3889427559055116
21
-4.7912308267716535
0
LINE
8
BLACK
6
CONTINUOUS
10
7.3889427559055116
20
-4.7912308267716535
11
7.3916129527559056
21
-4.7927724803149605
0
LINE
8
BLACK
6
CONTINUOUS
10
7.3916129527559056
20
-4.7927724803149605
11
7.3937931889763782
21
-4.7949527165354331
0
LINE
8
BLACK
6
CONTINUOUS
10
7.3937931889763782
20
-4.7949527165354331
11
7.3953348425196852
21
-4.797622913385827
0
LINE
8
BLACK
6
CONTINUOUS
10
7.3953348425196852
20
-4.797622913385827
11
7.3961328346456687
21
-4.8006011417322831
0
LINE
8
BLACK
6
CONTINUOUS
10
7.3961328346456687
20
-4.8006011417322831
11
7.3961328346456687
21
-4.8036844488188972
0
LINE
8
BLACK
6
CONTINUOUS
10
7.3961328346456687
20
-4.8036844488188972
11
7.3953348425196852
21
-4.8066626771653542
0
LINE
8
BLACK
6
CONTINUOUS
10
7.3953348425196852
20
-4.8066626771653542
11
7.3937931889763782
21
-4.8093328740157482
0
LINE
8
BLACK
6
CONTINUOUS
10
7.3937931889763782
20
-4.8093328740157482
11
7.3916129527559056
21
-4.8115131102362207
0
LINE
8
BLACK
6
CONTINUOUS
10
7.3916129527559056
20
-4.8115131102362207
11
7.3889427559055116
21
-4.8130547637795278
0
LINE
8
BLACK
6
CONTINUOUS
10
7.3889427559055116
20
-4.8130547637795278
11
7.3859645275590546
21
-4.8138527559055113
0
LINE
8
BLACK
6
CONTINUOUS
10
7.3859645275590546
20
-4.8138527559055113
11
7.3844228740157476
21
-4.8139538188976374
0
LINE
8
BLACK
6
CONTINUOUS
10
7.3844228740157476
20
-4.8139538188976374
11
7.3529268110236217
21
-4.8139538188976374
0
LINE
8
BLACK
6
CONTINUOUS
10
7.3529268110236217
20
-4.8139538188976374
11
7.3513851574803146
21
-4.8138527559055113
0
LINE
8
BLACK
6
CONTINUOUS
10
7.3513851574803146
20
-4.8138527559055113
11
7.3484069291338585
21
-4.8130547637795278
0
LINE
8
BLACK
6
CONTINUOUS
10
7.3484069291338585
20
-4.8130547637795278
11
7.3457367322834646
21
-4.8115131102362207
0
LINE
8
BLACK
6
CONTINUOUS
10
7.3457367322834646
20
-4.8115131102362207
11
7.343556496062992
21
-4.8093328740157482
0
LINE
8
BLACK
6
CONTINUOUS
10
7.343556496062992
20
-4.8093328740157482
11
7.3420148425196849
21
-4.8066626771653542
0
LINE
8
BLACK
6
CONTINUOUS
10
7.3420148425196849
20
-4.8066626771653542
11
7.3412168503937005
21
-4.8036844488188972
0
LINE
8
BLACK
6
CONTINUOUS
10
7.3412168503937005
20
-4.8036844488188972
11
7.3412168503937005
21
-4.8006011417322831
0
LINE
8
BLACK
6
CONTINUOUS
10
7.3412168503937005
20
-4.8006011417322831
11
7.3420148425196849
21
-4.797622913385827
0
LINE
8
BLACK
6
CONTINUOUS
10
7.3420148425196849
20
-4.797622913385827
11
7.343556496062992
21
-4.7949527165354331
0
LINE
8
BLACK
6
CONTINUOUS
10
7.343556496062992
20
-4.7949527165354331
11
7.3457367322834646
21
-4.7927724803149605
0
LINE
8
BLACK
6
CONTINUOUS
10
7.3457367322834646
20
-4.7927724803149605
11
7.3484069291338585
21
-4.7912308267716535
0
LINE
8
BLACK
6
CONTINUOUS
10
7.3484069291338585
20
-4.7912308267716535
11
7.3513851574803146
21
-4.790432834645669
0
LINE
8
BLACK
6
CONTINUOUS
10
7.3513851574803146
20
-4.790432834645669
11
7.3529268110236217
21
-4.790331771653543
0
LINE
8
BLACK
6
CONTINUOUS
10
7.3529268110236217
20
-4.790331771653543
11
7.3844228740157476
21
-4.790331771653543
0
LINE
8
BLACK
6
CONTINUOUS
10
7.3844228740157476
20
-4.790331771653543
11
7.3859645275590546
21
-4.790432834645669
0
LINE
8
BLACK
6
CONTINUOUS
10
7.2273031102362202
20
-4.4502753543307083
11
7.2302813385826772
21
-4.4510733464566927
0
LINE
8
BLACK
6
CONTINUOUS
10
7.2302813385826772
20
-4.4510733464566927
11
7.2329515354330711
21
-4.4526149999999998
0
LINE
8
BLACK
6
CONTINUOUS
10
7.2329515354330711
20
-4.4526149999999998
11
7.2351317716535428
21
-4.4547952362204724
0
LINE
8
BLACK
6
CONTINUOUS
10
7.2351317716535428
20
-4.4547952362204724
11
7.2366734251968499
21
-4.4574654330708663
0
LINE
8
BLACK
6
CONTINUOUS
10
7.2366734251968499
20
-4.4574654330708663
11
7.2374714173228343
21
-4.4604436614173224
0
LINE
8
BLACK
6
CONTINUOUS
10
7.2374714173228343
20
-4.4604436614173224
11
7.2374714173228343
21
-4.4635269685039365
0
LINE
8
BLACK
6
CONTINUOUS
10
7.2374714173228343
20
-4.4635269685039365
11
7.2366734251968499
21
-4.4665051968503935
0
LINE
8
BLACK
6
CONTINUOUS
10
7.2366734251968499
20
-4.4665051968503935
11
7.2351317716535428
21
-4.4691753937007874
0
LINE
8
BLACK
6
CONTINUOUS
10
7.2351317716535428
20
-4.4691753937007874
11
7.2329515354330711
21
-4.47135562992126
0
LINE
8
BLACK
6
CONTINUOUS
10
7.2329515354330711
20
-4.47135562992126
11
7.2302813385826772
21
-4.4728972834645671
0
LINE
8
BLACK
6
CONTINUOUS
10
7.2302813385826772
20
-4.4728972834645671
11
7.2273031102362202
21
-4.4736952755905515
0
LINE
8
BLACK
6
CONTINUOUS
10
7.2273031102362202
20
-4.4736952755905515
11
7.2257614566929131
21
-4.4737963385826767
0
LINE
8
BLACK
6
CONTINUOUS
10
7.2257614566929131
20
-4.4737963385826767
11
7.18245437007874
21
-4.4737963385826767
0
LINE
8
BLACK
6
CONTINUOUS
10
7.18245437007874
20
-4.4737963385826767
11
7.1809127165354329
21
-4.4736952755905515
0
LINE
8
BLACK
6
CONTINUOUS
10
7.1809127165354329
20
-4.4736952755905515
11
7.1779344881889759
21
-4.4728972834645671
0
LINE
8
BLACK
6
CONTINUOUS
10
7.1779344881889759
20
-4.4728972834645671
11
7.1752642913385829
21
-4.47135562992126
0
LINE
8
BLACK
6
CONTINUOUS
10
7.1752642913385829
20
-4.47135562992126
11
7.1730840551181103
21
-4.4691753937007874
0
LINE
8
BLACK
6
CONTINUOUS
10
7.1730840551181103
20
-4.4691753937007874
11
7.1715424015748033
21
-4.4665051968503935
0
LINE
8
BLACK
6
CONTINUOUS
10
7.1715424015748033
20
-4.4665051968503935
11
7.1707444094488189
21
-4.4635269685039365
0
LINE
8
BLACK
6
CONTINUOUS
10
7.1707444094488189
20
-4.4635269685039365
11
7.1707444094488189
21
-4.4604436614173224
0
LINE
8
BLACK
6
CONTINUOUS
10
7.1707444094488189
20
-4.4604436614173224
11
7.1715424015748033
21
-4.4574654330708663
0
LINE
8
BLACK
6
CONTINUOUS
10
7.1715424015748033
20
-4.4574654330708663
11
7.1730840551181103
21
-4.4547952362204724
0
LINE
8
BLACK
6
CONTINUOUS
10
7.1730840551181103
20
-4.4547952362204724
11
7.1752642913385829
21
-4.4526149999999998
0
LINE
8
BLACK
6
CONTINUOUS
10
7.1752642913385829
20
-4.4526149999999998
11
7.1779344881889759
21
-4.4510733464566927
0
LINE
8
BLACK
6
CONTINUOUS
10
7.1779344881889759
20
-4.4510733464566927
11
7.1809127165354329
21
-4.4502753543307083
0
LINE
8
BLACK
6
CONTINUOUS
10
7.1809127165354329
20
-4.4502753543307083
11
7.18245437007874
21
-4.4501742913385822
0
LINE
8
BLACK
6
CONTINUOUS
10
7.18245437007874
20
-4.4501742913385822
11
7.2257614566929131
21
-4.4501742913385822
0
LINE
8
BLACK
6
CONTINUOUS
10
7.2257614566929131
20
-4.4501742913385822
11
7.2273031102362202
21
-4.4502753543307083
0
LINE
8
BLACK
6
CONTINUOUS
10
7.2273031102362202
20
-4.790432834645669
11
7.2302813385826772
21
-4.7912308267716535
0
LINE
8
BLACK
6
CONTINUOUS
10
7.2302813385826772
20
-4.7912308267716535
11
7.2329515354330711
21
-4.7927724803149605
0
LINE
8
BLACK
6
CONTINUOUS
10
7.2329515354330711
20
-4.7927724803149605
11
7.2351317716535428
21
-4.7949527165354331
0
LINE
8
BLACK
6
CONTINUOUS
10
7.2351317716535428
20
-4.7949527165354331
11
7.2366734251968499
21
-4.797622913385827
0
LINE
8
BLACK
6
CONTINUOUS
10
7.2366734251968499
20
-4.797622913385827
11
7.2374714173228343
21
-4.8006011417322831
0
LINE
8
BLACK
6
CONTINUOUS
10
7.2374714173228343
20
-4.8006011417322831
11
7.2374714173228343
21
-4.8036844488188972
0
LINE
8
BLACK
6
CONTINUOUS
10
7.2374714173228343
20
-4.8036844488188972
11
7.2366734251968499
21
-4.8066626771653542
0
LINE
8
BLACK
6
CONTINUOUS
10
7.2366734251968499
20
-4.8066626771653542
11
7.2351317716535428
21
-4.8093328740157482
0
LINE
8
BLACK
6
CONTINUOUS
10
7.2351317716535428
20
-4.8093328740157482
11
7.2329515354330711
21
-4.8115131102362207
0
LINE
8
BLACK
6
CONTINUOUS
10
7.2329515354330711
20
-4.8115131102362207
11
7.2302813385826772
21
-4.8130547637795278
0
LINE
8
BLACK
6
CONTINUOUS
10
7.2302813385826772
20
-4.8130547637795278
11
7.2273031102362202
21
-4.8138527559055113
0
LINE
8
BLACK
6
CONTINUOUS
10
7.2273031102362202
20
-4.8138527559055113
11
7.2257614566929131
21
-4.8139538188976374
0
LINE
8
BLACK
6
CONTINUOUS
10
7.2257614566929131
20
-4.8139538188976374
11
7.18245437007874
21
-4.8139538188976374
0
LINE
8
BLACK
6
CONTINUOUS
10
7.18245437007874
20
-4.8139538188976374
11
7.1809127165354329
21
-4.8138527559055113
0
LINE
8
BLACK
6
CONTINUOUS
10
7.1809127165354329
20
-4.8138527559055113
11
7.1779344881889759
21
-4.8130547637795278
0
LINE
8
BLACK
6
CONTINUOUS
10
7.1779344881889759
20
-4.8130547637795278
11
7.1752642913385829
21
-4.8115131102362207
0
LINE
8
BLACK
6
CONTINUOUS
10
7.1752642913385829
20
-4.8115131102362207
11
7.1730840551181103
21
-4.8093328740157482
0
LINE
8
BLACK
6
CONTINUOUS
10
7.1730840551181103
20
-4.8093328740157482
11
7.1715424015748033
21
-4.8066626771653542
0
LINE
8
BLACK
6
CONTINUOUS
10
7.1715424015748033
20
-4.8066626771653542
11
7.1707444094488189
21
-4.8036844488188972
0
LINE
8
BLACK
6
CONTINUOUS
10
7.1707444094488189
20
-4.8036844488188972
11
7.1707444094488189
21
-4.8006011417322831
0
LINE
8
BLACK
6
CONTINUOUS
10
7.1707444094488189
20
-4.8006011417322831
11
7.1715424015748033
21
-4.797622913385827
0
LINE
8
BLACK
6
CONTINUOUS
10
7.1715424015748033
20
-4.797622913385827
11
7.1730840551181103
21
-4.7949527165354331
0
LINE
8
BLACK
6
CONTINUOUS
10
7.1730840551181103
20
-4.7949527165354331
11
7.1752642913385829
21
-4.7927724803149605
0
LINE
8
BLACK
6
CONTINUOUS
10
7.1752642913385829
20
-4.7927724803149605
11
7.1779344881889759
21
-4.7912308267716535
0
LINE
8
BLACK
6
CONTINUOUS
10
7.1779344881889759
20
-4.7912308267716535
11
7.1809127165354329
21
-4.790432834645669
0
LINE
8
BLACK
6
CONTINUOUS
10
7.1809127165354329
20
-4.790432834645669
11
7.18245437007874
21
-4.790331771653543
0
LINE
8
BLACK
6
CONTINUOUS
10
7.18245437007874
20
-4.790331771653543
11
7.2257614566929131
21
-4.790331771653543
0
LINE
8
BLACK
6
CONTINUOUS
10
7.2257614566929131
20
-4.790331771653543
11
7.2273031102362202
21
-4.790432834645669
0
CIRCLE
8
WHITE
10
6.8886748425196851
20
-3.0975168110236222
40
0.0068897637795276
0
CIRCLE
8
WHITE
10
4.0886748425196853
20
-3.0975168110236222
40
0.0068897637795276
0
CIRCLE
8
WHITE
10
4.0886748425196853
20
-4.6975168110236218
40
0.0068897637795276
0
CIRCLE
8
WHITE
10
4.493399251968504
20
-3.4644459448818896
40
0.0068897637795276
0
CIRCLE
8
WHITE
10
4.296548858267716
20
-3.4644459448818896
40
0.0068897637795276
0
CIRCLE
8
WHITE
10
6.8886748425196851
20
-4.6975168110236218
40
0.0068897637795276
0
CIRCLE
8
WHITE
10
6.1252181496062992
20
-3.0695168110236222
40
0.0068897637795276
0
CIRCLE
8
WHITE
10
6.3173441338582679
20
-3.0695168110236222
40
0.0068897637795276
0
CIRCLE
8
WHITE
10
7.2237929527559057
20
-4.5182845275590546
40
0.0068897637795276
0
CIRCLE
8
WHITE
10
7.2237929527559057
20
-4.745843582677165
40
0.0068897637795276
0
LINE
8
WHITE
6
CONTINUOUS
10
7.3844228740157476
20
-4.4501742913385822
11
7.3529268110236217
21
-4.4501742913385822
0
ARC
8
WHITE
10
7.3529268110236217
20
-4.4619853149606294
40
0.0118110236220472
50
90.00000000
51
270.00000000
0
LINE
8
WHITE
6
CONTINUOUS
10
7.3529268110236217
20
-4.4737963385826767
11
7.3844228740157476
21
-4.4737963385826767
0
ARC
8
WHITE
10
7.3844228740157476
20
-4.4619853149606294
40
0.0118110236220472
50
270.00000000
51
450.00000000
0
LINE
8
WHITE
6
CONTINUOUS
10
7.3844228740157476
20
-4.790331771653543
11
7.3529268110236217
21
-4.790331771653543
0
ARC
8
WHITE
10
7.3529268110236217
20
-4.8021427952755902
40
0.0118110236220472
50
90.00000000
51
270.00000000
0
LINE
8
WHITE
6
CONTINUOUS
10
7.3529268110236217
20
-4.8139538188976374
11
7.3844228740157476
21
-4.8139538188976374
0
ARC
8
WHITE
10
7.3844228740157476
20
-4.8021427952755902
40
0.0118110236220472
50
270.00000000
51
450.00000000
0
LINE
8
WHITE
6
CONTINUOUS
10
7.2257614566929131
20
-4.4501742913385822
11
7.18245437007874
21
-4.4501742913385822
0
ARC
8
WHITE
10
7.18245437007874
20
-4.4619853149606294
40
0.0118110236220472
50
90.00000000
51
270.00000000
0
LINE
8
WHITE
6
CONTINUOUS
10
7.18245437007874
20
-4.4737963385826767
11
7.2257614566929131
21
-4.4737963385826767
0
ARC
8
WHITE
10
7.2257614566929131
20
-4.4619853149606294
40
0.0118110236220472
50
270.00000000
51
450.00000000
0
LINE
8
WHITE
6
CONTINUOUS
10
7.2257614566929131
20
-4.790331771653543
11
7.18245437007874
21
-4.790331771653543
0
ARC
8
WHITE
10
7.18245437007874
20
-4.8021427952755902
40
0.0118110236220472
50
90.00000000
51
270.00000000
0
LINE
8
WHITE
6
CONTINUOUS
10
7.18245437007874
20
-4.8139538188976374
11
7.2257614566929131
21
-4.8139538188976374
0
ARC
8
WHITE
10
7.2257614566929131
20
-4.8021427952755902
40
0.0118110236220472
50
270.00000000
51
450.00000000
  0
ENDSEC
  0
EOF
